{
  "header": {
    "keySignatures": [],
    "meta": [],
    "name": "",
    "ppq": 384,
    "tempos": [
      {
        "bpm": 192,
        "ticks": 0
      }
    ],
    "timeSignatures": [
      {
        "ticks": 0,
        "timeSignature": [
          1,
          4
        ],
        "measures": 0
      }
    ]
  },
  "tracks": [
    {
      "channel": 0,
      "controlChanges": {},
      "pitchBends": [],
      "instrument": {
        "family": "piano",
        "number": 0,
        "name": "acoustic grand piano"
      },
      "name": "Elec. Piano (Classic)",
      "notes": [
        {
          "duration": 0.15625,
          "durationTicks": 192,
          "midi": 69,
          "name": "A4",
          "ticks": 30144,
          "time": 24.53125,
          "velocity": 0.3937007874015748
        },
        {
          "duration": 0.15625,
          "durationTicks": 192,
          "midi": 68,
          "name": "G#4",
          "ticks": 30336,
          "time": 24.6875,
          "velocity": 0.3937007874015748
        },
        {
          "duration": 0.15625,
          "durationTicks": 192,
          "midi": 69,
          "name": "A4",
          "ticks": 30528,
          "time": 24.84375,
          "velocity": 0.3937007874015748
        },
        {
          "duration": 0.15625,
          "durationTicks": 192,
          "midi": 71,
          "name": "B4",
          "ticks": 30720,
          "time": 25,
          "velocity": 0.3937007874015748
        },
        {
          "duration": 0.15625,
          "durationTicks": 192,
          "midi": 64,
          "name": "E4",
          "ticks": 30912,
          "time": 25.15625,
          "velocity": 0.3937007874015748
        },
        {
          "duration": 0.15625,
          "durationTicks": 192,
          "midi": 63,
          "name": "D#4",
          "ticks": 31104,
          "time": 25.3125,
          "velocity": 0.3937007874015748
        },
        {
          "duration": 0.15625,
          "durationTicks": 192,
          "midi": 64,
          "name": "E4",
          "ticks": 31296,
          "time": 25.46875,
          "velocity": 0.3937007874015748
        },
        {
          "duration": 0.15625,
          "durationTicks": 192,
          "midi": 71,
          "name": "B4",
          "ticks": 31488,
          "time": 25.625,
          "velocity": 0.3937007874015748
        },
        {
          "duration": 0.15625,
          "durationTicks": 192,
          "midi": 64,
          "name": "E4",
          "ticks": 31680,
          "time": 25.78125,
          "velocity": 0.3937007874015748
        },
        {
          "duration": 0.15625,
          "durationTicks": 192,
          "midi": 76,
          "name": "E5",
          "ticks": 31872,
          "time": 25.9375,
          "velocity": 0.3937007874015748
        },
        {
          "duration": 0.15625,
          "durationTicks": 192,
          "midi": 74,
          "name": "D5",
          "ticks": 32064,
          "time": 26.09375,
          "velocity": 0.3937007874015748
        },
        {
          "duration": 0.15625,
          "durationTicks": 192,
          "midi": 74,
          "name": "D5",
          "ticks": 32256,
          "time": 26.25,
          "velocity": 0.3937007874015748
        },
        {
          "duration": 0.15625,
          "durationTicks": 192,
          "midi": 72,
          "name": "C5",
          "ticks": 32448,
          "time": 26.40625,
          "velocity": 0.3937007874015748
        },
        {
          "duration": 0.15625,
          "durationTicks": 192,
          "midi": 71,
          "name": "B4",
          "ticks": 32640,
          "time": 26.5625,
          "velocity": 0.3937007874015748
        },
        {
          "duration": 0.15625,
          "durationTicks": 192,
          "midi": 69,
          "name": "A4",
          "ticks": 32832,
          "time": 26.71875,
          "velocity": 0.3937007874015748
        },
        {
          "duration": 0.15625,
          "durationTicks": 192,
          "midi": 69,
          "name": "A4",
          "ticks": 33024,
          "time": 26.875,
          "velocity": 0.3937007874015748
        },
        {
          "duration": 0.15625,
          "durationTicks": 192,
          "midi": 71,
          "name": "B4",
          "ticks": 33216,
          "time": 27.03125,
          "velocity": 0.3937007874015748
        },
        {
          "duration": 0.15625,
          "durationTicks": 192,
          "midi": 72,
          "name": "C5",
          "ticks": 33408,
          "time": 27.1875,
          "velocity": 0.3937007874015748
        },
        {
          "duration": 0.15625,
          "durationTicks": 192,
          "midi": 69,
          "name": "A4",
          "ticks": 33600,
          "time": 27.34375,
          "velocity": 0.3937007874015748
        },
        {
          "duration": 0.15625,
          "durationTicks": 192,
          "midi": 71,
          "name": "B4",
          "ticks": 33792,
          "time": 27.5,
          "velocity": 0.3937007874015748
        },
        {
          "duration": 0.15625,
          "durationTicks": 192,
          "midi": 67,
          "name": "G4",
          "ticks": 33984,
          "time": 27.65625,
          "velocity": 0.3937007874015748
        },
        {
          "duration": 0.15625,
          "durationTicks": 192,
          "midi": 66,
          "name": "F#4",
          "ticks": 34176,
          "time": 27.8125,
          "velocity": 0.3937007874015748
        },
        {
          "duration": 0.15625,
          "durationTicks": 192,
          "midi": 67,
          "name": "G4",
          "ticks": 34368,
          "time": 27.96875,
          "velocity": 0.3937007874015748
        },
        {
          "duration": 0.15625,
          "durationTicks": 192,
          "midi": 71,
          "name": "B4",
          "ticks": 34560,
          "time": 28.125,
          "velocity": 0.3937007874015748
        },
        {
          "duration": 0.15625,
          "durationTicks": 192,
          "midi": 67,
          "name": "G4",
          "ticks": 34752,
          "time": 28.28125,
          "velocity": 0.3937007874015748
        },
        {
          "duration": 0.15625,
          "durationTicks": 192,
          "midi": 79,
          "name": "G5",
          "ticks": 34944,
          "time": 28.4375,
          "velocity": 0.3937007874015748
        },
        {
          "duration": 0.15625,
          "durationTicks": 192,
          "midi": 77,
          "name": "F5",
          "ticks": 35136,
          "time": 28.59375,
          "velocity": 0.3937007874015748
        },
        {
          "duration": 0.15625,
          "durationTicks": 192,
          "midi": 77,
          "name": "F5",
          "ticks": 35328,
          "time": 28.75,
          "velocity": 0.3937007874015748
        },
        {
          "duration": 0.15625,
          "durationTicks": 192,
          "midi": 76,
          "name": "E5",
          "ticks": 35520,
          "time": 28.90625,
          "velocity": 0.3937007874015748
        },
        {
          "duration": 0.15625,
          "durationTicks": 192,
          "midi": 74,
          "name": "D5",
          "ticks": 35712,
          "time": 29.0625,
          "velocity": 0.3937007874015748
        },
        {
          "duration": 0.15625,
          "durationTicks": 192,
          "midi": 72,
          "name": "C5",
          "ticks": 35904,
          "time": 29.21875,
          "velocity": 0.3937007874015748
        },
        {
          "duration": 0.15625,
          "durationTicks": 192,
          "midi": 72,
          "name": "C5",
          "ticks": 36096,
          "time": 29.375,
          "velocity": 0.3937007874015748
        },
        {
          "duration": 0.15625,
          "durationTicks": 192,
          "midi": 74,
          "name": "D5",
          "ticks": 36288,
          "time": 29.53125,
          "velocity": 0.3937007874015748
        },
        {
          "duration": 0.15625,
          "durationTicks": 192,
          "midi": 76,
          "name": "E5",
          "ticks": 36480,
          "time": 29.6875,
          "velocity": 0.3937007874015748
        },
        {
          "duration": 0.15625,
          "durationTicks": 192,
          "midi": 72,
          "name": "C5",
          "ticks": 36672,
          "time": 29.84375,
          "velocity": 0.3937007874015748
        },
        {
          "duration": 0.15625,
          "durationTicks": 192,
          "midi": 73,
          "name": "C#5",
          "ticks": 36864,
          "time": 30,
          "velocity": 0.3937007874015748
        },
        {
          "duration": 0.15625,
          "durationTicks": 192,
          "midi": 69,
          "name": "A4",
          "ticks": 37056,
          "time": 30.15625,
          "velocity": 0.3937007874015748
        },
        {
          "duration": 0.15625,
          "durationTicks": 192,
          "midi": 73,
          "name": "C#5",
          "ticks": 37248,
          "time": 30.3125,
          "velocity": 0.3937007874015748
        },
        {
          "duration": 0.15625,
          "durationTicks": 192,
          "midi": 76,
          "name": "E5",
          "ticks": 37440,
          "time": 30.46875,
          "velocity": 0.3937007874015748
        },
        {
          "duration": 0.15625,
          "durationTicks": 192,
          "midi": 81,
          "name": "A5",
          "ticks": 37632,
          "time": 30.625,
          "velocity": 0.3937007874015748
        },
        {
          "duration": 0.15625,
          "durationTicks": 192,
          "midi": 69,
          "name": "A4",
          "ticks": 37824,
          "time": 30.78125,
          "velocity": 0.3937007874015748
        },
        {
          "duration": 0.15625,
          "durationTicks": 192,
          "midi": 79,
          "name": "G5",
          "ticks": 38016,
          "time": 30.9375,
          "velocity": 0.3937007874015748
        },
        {
          "duration": 0.15625,
          "durationTicks": 192,
          "midi": 69,
          "name": "A4",
          "ticks": 38208,
          "time": 31.09375,
          "velocity": 0.3937007874015748
        },
        {
          "duration": 0.15625,
          "durationTicks": 192,
          "midi": 77,
          "name": "F5",
          "ticks": 38400,
          "time": 31.25,
          "velocity": 0.3937007874015748
        },
        {
          "duration": 0.15625,
          "durationTicks": 192,
          "midi": 76,
          "name": "E5",
          "ticks": 38592,
          "time": 31.40625,
          "velocity": 0.3937007874015748
        },
        {
          "duration": 0.15625,
          "durationTicks": 192,
          "midi": 74,
          "name": "D5",
          "ticks": 38784,
          "time": 31.5625,
          "velocity": 0.3937007874015748
        },
        {
          "duration": 0.15625,
          "durationTicks": 192,
          "midi": 73,
          "name": "C#5",
          "ticks": 38976,
          "time": 31.71875,
          "velocity": 0.3937007874015748
        },
        {
          "duration": 0.15625,
          "durationTicks": 192,
          "midi": 74,
          "name": "D5",
          "ticks": 39168,
          "time": 31.875,
          "velocity": 0.3937007874015748
        },
        {
          "duration": 0.15625,
          "durationTicks": 192,
          "midi": 69,
          "name": "A4",
          "ticks": 39360,
          "time": 32.03125,
          "velocity": 0.3937007874015748
        },
        {
          "duration": 0.15625,
          "durationTicks": 192,
          "midi": 68,
          "name": "G#4",
          "ticks": 39552,
          "time": 32.1875,
          "velocity": 0.3937007874015748
        },
        {
          "duration": 0.15625,
          "durationTicks": 192,
          "midi": 69,
          "name": "A4",
          "ticks": 39744,
          "time": 32.34375,
          "velocity": 0.3937007874015748
        },
        {
          "duration": 0.15625,
          "durationTicks": 192,
          "midi": 75,
          "name": "D#5",
          "ticks": 39936,
          "time": 32.5,
          "velocity": 0.3937007874015748
        },
        {
          "duration": 0.15625,
          "durationTicks": 192,
          "midi": 71,
          "name": "B4",
          "ticks": 40128,
          "time": 32.65625,
          "velocity": 0.3937007874015748
        },
        {
          "duration": 0.15625,
          "durationTicks": 192,
          "midi": 75,
          "name": "D#5",
          "ticks": 40320,
          "time": 32.8125,
          "velocity": 0.3937007874015748
        },
        {
          "duration": 0.15625,
          "durationTicks": 192,
          "midi": 78,
          "name": "F#5",
          "ticks": 40512,
          "time": 32.96875,
          "velocity": 0.3937007874015748
        },
        {
          "duration": 0.15625,
          "durationTicks": 192,
          "midi": 84,
          "name": "C6",
          "ticks": 40704,
          "time": 33.125,
          "velocity": 0.3937007874015748
        },
        {
          "duration": 0.15625,
          "durationTicks": 192,
          "midi": 75,
          "name": "D#5",
          "ticks": 40896,
          "time": 33.28125,
          "velocity": 0.3937007874015748
        },
        {
          "duration": 0.15625,
          "durationTicks": 192,
          "midi": 83,
          "name": "B5",
          "ticks": 41088,
          "time": 33.4375,
          "velocity": 0.3937007874015748
        },
        {
          "duration": 0.15625,
          "durationTicks": 192,
          "midi": 81,
          "name": "A5",
          "ticks": 41280,
          "time": 33.59375,
          "velocity": 0.3937007874015748
        },
        {
          "duration": 0.15625,
          "durationTicks": 192,
          "midi": 81,
          "name": "A5",
          "ticks": 41472,
          "time": 33.75,
          "velocity": 0.3937007874015748
        },
        {
          "duration": 0.15625,
          "durationTicks": 192,
          "midi": 76,
          "name": "E5",
          "ticks": 41664,
          "time": 33.90625,
          "velocity": 0.3937007874015748
        },
        {
          "duration": 0.15625,
          "durationTicks": 192,
          "midi": 71,
          "name": "B4",
          "ticks": 41856,
          "time": 34.0625,
          "velocity": 0.3937007874015748
        },
        {
          "duration": 0.15625,
          "durationTicks": 192,
          "midi": 81,
          "name": "A5",
          "ticks": 42048,
          "time": 34.21875,
          "velocity": 0.3937007874015748
        },
        {
          "duration": 0.15625,
          "durationTicks": 192,
          "midi": 80,
          "name": "G#5",
          "ticks": 42240,
          "time": 34.375,
          "velocity": 0.3937007874015748
        },
        {
          "duration": 0.15625,
          "durationTicks": 192,
          "midi": 81,
          "name": "A5",
          "ticks": 42432,
          "time": 34.53125,
          "velocity": 0.3937007874015748
        },
        {
          "duration": 0.15625,
          "durationTicks": 192,
          "midi": 83,
          "name": "B5",
          "ticks": 42624,
          "time": 34.6875,
          "velocity": 0.3937007874015748
        },
        {
          "duration": 0.15625,
          "durationTicks": 192,
          "midi": 76,
          "name": "E5",
          "ticks": 42816,
          "time": 34.84375,
          "velocity": 0.3937007874015748
        },
        {
          "duration": 0.15625,
          "durationTicks": 192,
          "midi": 88,
          "name": "E6",
          "ticks": 55296,
          "time": 45,
          "velocity": 0.3937007874015748
        },
        {
          "duration": 0.078125,
          "durationTicks": 96,
          "midi": 86,
          "name": "D6",
          "ticks": 55488,
          "time": 45.15625,
          "velocity": 0.3937007874015748
        },
        {
          "duration": 0.078125,
          "durationTicks": 96,
          "midi": 88,
          "name": "E6",
          "ticks": 55584,
          "time": 45.234375,
          "velocity": 0.3937007874015748
        },
        {
          "duration": 0.078125,
          "durationTicks": 96,
          "midi": 84,
          "name": "C6",
          "ticks": 55680,
          "time": 45.3125,
          "velocity": 0.3937007874015748
        },
        {
          "duration": 0.078125,
          "durationTicks": 96,
          "midi": 88,
          "name": "E6",
          "ticks": 55776,
          "time": 45.390625,
          "velocity": 0.3937007874015748
        },
        {
          "duration": 0.078125,
          "durationTicks": 96,
          "midi": 83,
          "name": "B5",
          "ticks": 55872,
          "time": 45.46875,
          "velocity": 0.3937007874015748
        },
        {
          "duration": 0.078125,
          "durationTicks": 96,
          "midi": 88,
          "name": "E6",
          "ticks": 55968,
          "time": 45.546875,
          "velocity": 0.3937007874015748
        },
        {
          "duration": 0.078125,
          "durationTicks": 96,
          "midi": 81,
          "name": "A5",
          "ticks": 56064,
          "time": 45.625,
          "velocity": 0.3937007874015748
        },
        {
          "duration": 0.078125,
          "durationTicks": 96,
          "midi": 72,
          "name": "C5",
          "ticks": 56160,
          "time": 45.703125,
          "velocity": 0.3937007874015748
        },
        {
          "duration": 0.078125,
          "durationTicks": 96,
          "midi": 79,
          "name": "G5",
          "ticks": 56256,
          "time": 45.78125,
          "velocity": 0.3937007874015748
        },
        {
          "duration": 0.078125,
          "durationTicks": 96,
          "midi": 72,
          "name": "C5",
          "ticks": 56352,
          "time": 45.859375,
          "velocity": 0.3937007874015748
        },
        {
          "duration": 0.078125,
          "durationTicks": 96,
          "midi": 77,
          "name": "F5",
          "ticks": 56448,
          "time": 45.9375,
          "velocity": 0.3937007874015748
        },
        {
          "duration": 0.078125,
          "durationTicks": 96,
          "midi": 72,
          "name": "C5",
          "ticks": 56544,
          "time": 46.015625,
          "velocity": 0.3937007874015748
        },
        {
          "duration": 0.078125,
          "durationTicks": 96,
          "midi": 76,
          "name": "E5",
          "ticks": 56640,
          "time": 46.09375,
          "velocity": 0.3937007874015748
        },
        {
          "duration": 0.078125,
          "durationTicks": 96,
          "midi": 72,
          "name": "C5",
          "ticks": 56736,
          "time": 46.171875,
          "velocity": 0.3937007874015748
        },
        {
          "duration": 0.15625,
          "durationTicks": 192,
          "midi": 77,
          "name": "F5",
          "ticks": 56832,
          "time": 46.25,
          "velocity": 0.3937007874015748
        },
        {
          "duration": 0.078125,
          "durationTicks": 96,
          "midi": 76,
          "name": "E5",
          "ticks": 57024,
          "time": 46.40625,
          "velocity": 0.3937007874015748
        },
        {
          "duration": 0.078125,
          "durationTicks": 96,
          "midi": 77,
          "name": "F5",
          "ticks": 57120,
          "time": 46.484375,
          "velocity": 0.3937007874015748
        },
        {
          "duration": 0.078125,
          "durationTicks": 96,
          "midi": 74,
          "name": "D5",
          "ticks": 57216,
          "time": 46.5625,
          "velocity": 0.3937007874015748
        },
        {
          "duration": 0.078125,
          "durationTicks": 96,
          "midi": 77,
          "name": "F5",
          "ticks": 57312,
          "time": 46.640625,
          "velocity": 0.3937007874015748
        },
        {
          "duration": 0.078125,
          "durationTicks": 96,
          "midi": 72,
          "name": "C5",
          "ticks": 57408,
          "time": 46.71875,
          "velocity": 0.3937007874015748
        },
        {
          "duration": 0.078125,
          "durationTicks": 96,
          "midi": 77,
          "name": "F5",
          "ticks": 57504,
          "time": 46.796875,
          "velocity": 0.3937007874015748
        },
        {
          "duration": 0.078125,
          "durationTicks": 96,
          "midi": 71,
          "name": "B4",
          "ticks": 57600,
          "time": 46.875,
          "velocity": 0.3937007874015748
        },
        {
          "duration": 0.078125,
          "durationTicks": 96,
          "midi": 62,
          "name": "D4",
          "ticks": 57696,
          "time": 46.953125,
          "velocity": 0.3937007874015748
        },
        {
          "duration": 0.078125,
          "durationTicks": 96,
          "midi": 69,
          "name": "A4",
          "ticks": 57792,
          "time": 47.03125,
          "velocity": 0.3937007874015748
        },
        {
          "duration": 0.078125,
          "durationTicks": 96,
          "midi": 62,
          "name": "D4",
          "ticks": 57888,
          "time": 47.109375,
          "velocity": 0.3937007874015748
        },
        {
          "duration": 0.078125,
          "durationTicks": 96,
          "midi": 67,
          "name": "G4",
          "ticks": 57984,
          "time": 47.1875,
          "velocity": 0.3937007874015748
        },
        {
          "duration": 0.078125,
          "durationTicks": 96,
          "midi": 62,
          "name": "D4",
          "ticks": 58080,
          "time": 47.265625,
          "velocity": 0.3937007874015748
        },
        {
          "duration": 0.078125,
          "durationTicks": 96,
          "midi": 65,
          "name": "F4",
          "ticks": 58176,
          "time": 47.34375,
          "velocity": 0.3937007874015748
        },
        {
          "duration": 0.078125,
          "durationTicks": 96,
          "midi": 62,
          "name": "D4",
          "ticks": 58272,
          "time": 47.421875,
          "velocity": 0.3937007874015748
        },
        {
          "duration": 0.078125,
          "durationTicks": 96,
          "midi": 67,
          "name": "G4",
          "ticks": 58368,
          "time": 47.5,
          "velocity": 0.3937007874015748
        },
        {
          "duration": 0.078125,
          "durationTicks": 96,
          "midi": 62,
          "name": "D4",
          "ticks": 58464,
          "time": 47.578125,
          "velocity": 0.3937007874015748
        },
        {
          "duration": 0.078125,
          "durationTicks": 96,
          "midi": 69,
          "name": "A4",
          "ticks": 58560,
          "time": 47.65625,
          "velocity": 0.3937007874015748
        },
        {
          "duration": 0.078125,
          "durationTicks": 96,
          "midi": 62,
          "name": "D4",
          "ticks": 58656,
          "time": 47.734375,
          "velocity": 0.3937007874015748
        },
        {
          "duration": 0.078125,
          "durationTicks": 96,
          "midi": 71,
          "name": "B4",
          "ticks": 58752,
          "time": 47.8125,
          "velocity": 0.3937007874015748
        },
        {
          "duration": 0.078125,
          "durationTicks": 96,
          "midi": 62,
          "name": "D4",
          "ticks": 58848,
          "time": 47.890625,
          "velocity": 0.3937007874015748
        },
        {
          "duration": 0.078125,
          "durationTicks": 96,
          "midi": 72,
          "name": "C5",
          "ticks": 58944,
          "time": 47.96875,
          "velocity": 0.3937007874015748
        },
        {
          "duration": 0.078125,
          "durationTicks": 96,
          "midi": 62,
          "name": "D4",
          "ticks": 59040,
          "time": 48.046875,
          "velocity": 0.3937007874015748
        },
        {
          "duration": 0.078125,
          "durationTicks": 96,
          "midi": 74,
          "name": "D5",
          "ticks": 59136,
          "time": 48.125,
          "velocity": 0.3937007874015748
        },
        {
          "duration": 0.078125,
          "durationTicks": 96,
          "midi": 62,
          "name": "D4",
          "ticks": 59232,
          "time": 48.203125,
          "velocity": 0.3937007874015748
        },
        {
          "duration": 0.078125,
          "durationTicks": 96,
          "midi": 71,
          "name": "B4",
          "ticks": 59328,
          "time": 48.28125,
          "velocity": 0.3937007874015748
        },
        {
          "duration": 0.078125,
          "durationTicks": 96,
          "midi": 62,
          "name": "D4",
          "ticks": 59424,
          "time": 48.359375,
          "velocity": 0.3937007874015748
        },
        {
          "duration": 0.078125,
          "durationTicks": 96,
          "midi": 69,
          "name": "A4",
          "ticks": 59520,
          "time": 48.4375,
          "velocity": 0.3937007874015748
        },
        {
          "duration": 0.078125,
          "durationTicks": 96,
          "midi": 62,
          "name": "D4",
          "ticks": 59616,
          "time": 48.515625,
          "velocity": 0.3937007874015748
        },
        {
          "duration": 0.078125,
          "durationTicks": 96,
          "midi": 67,
          "name": "G4",
          "ticks": 59712,
          "time": 48.59375,
          "velocity": 0.3937007874015748
        },
        {
          "duration": 0.078125,
          "durationTicks": 96,
          "midi": 62,
          "name": "D4",
          "ticks": 59808,
          "time": 48.671875,
          "velocity": 0.3937007874015748
        },
        {
          "duration": 0.078125,
          "durationTicks": 96,
          "midi": 60,
          "name": "C4",
          "ticks": 59904,
          "time": 48.75,
          "velocity": 0.3937007874015748
        },
        {
          "duration": 0.078125,
          "durationTicks": 96,
          "midi": 62,
          "name": "D4",
          "ticks": 60000,
          "time": 48.828125,
          "velocity": 0.3937007874015748
        },
        {
          "duration": 0.078125,
          "durationTicks": 96,
          "midi": 64,
          "name": "E4",
          "ticks": 60096,
          "time": 48.90625,
          "velocity": 0.3937007874015748
        },
        {
          "duration": 0.078125,
          "durationTicks": 96,
          "midi": 67,
          "name": "G4",
          "ticks": 60192,
          "time": 48.984375,
          "velocity": 0.3937007874015748
        },
        {
          "duration": 0.078125,
          "durationTicks": 96,
          "midi": 72,
          "name": "C5",
          "ticks": 60288,
          "time": 49.0625,
          "velocity": 0.3937007874015748
        },
        {
          "duration": 0.078125,
          "durationTicks": 96,
          "midi": 74,
          "name": "D5",
          "ticks": 60384,
          "time": 49.140625,
          "velocity": 0.3937007874015748
        },
        {
          "duration": 0.078125,
          "durationTicks": 96,
          "midi": 76,
          "name": "E5",
          "ticks": 60480,
          "time": 49.21875,
          "velocity": 0.3937007874015748
        },
        {
          "duration": 0.078125,
          "durationTicks": 96,
          "midi": 79,
          "name": "G5",
          "ticks": 60576,
          "time": 49.296875,
          "velocity": 0.3937007874015748
        },
        {
          "duration": 0.078125,
          "durationTicks": 96,
          "midi": 88,
          "name": "E6",
          "ticks": 60672,
          "time": 49.375,
          "velocity": 0.3937007874015748
        },
        {
          "duration": 0.078125,
          "durationTicks": 96,
          "midi": 86,
          "name": "D6",
          "ticks": 60768,
          "time": 49.453125,
          "velocity": 0.3937007874015748
        },
        {
          "duration": 0.078125,
          "durationTicks": 96,
          "midi": 84,
          "name": "C6",
          "ticks": 60864,
          "time": 49.53125,
          "velocity": 0.3937007874015748
        },
        {
          "duration": 0.078125,
          "durationTicks": 96,
          "midi": 79,
          "name": "G5",
          "ticks": 60960,
          "time": 49.609375,
          "velocity": 0.3937007874015748
        },
        {
          "duration": 0.078125,
          "durationTicks": 96,
          "midi": 76,
          "name": "E5",
          "ticks": 61056,
          "time": 49.6875,
          "velocity": 0.3937007874015748
        },
        {
          "duration": 0.078125,
          "durationTicks": 96,
          "midi": 74,
          "name": "D5",
          "ticks": 61152,
          "time": 49.765625,
          "velocity": 0.3937007874015748
        },
        {
          "duration": 0.078125,
          "durationTicks": 96,
          "midi": 72,
          "name": "C5",
          "ticks": 61248,
          "time": 49.84375,
          "velocity": 0.3937007874015748
        },
        {
          "duration": 0.078125,
          "durationTicks": 96,
          "midi": 67,
          "name": "G4",
          "ticks": 61344,
          "time": 49.921875,
          "velocity": 0.3937007874015748
        },
        {
          "duration": 0.15625,
          "durationTicks": 192,
          "midi": 72,
          "name": "C5",
          "ticks": 61440,
          "time": 50,
          "velocity": 0.3937007874015748
        },
        {
          "duration": 0.078125,
          "durationTicks": 96,
          "midi": 71,
          "name": "B4",
          "ticks": 61632,
          "time": 50.15625,
          "velocity": 0.3937007874015748
        },
        {
          "duration": 0.078125,
          "durationTicks": 96,
          "midi": 72,
          "name": "C5",
          "ticks": 61728,
          "time": 50.234375,
          "velocity": 0.3937007874015748
        },
        {
          "duration": 0.078125,
          "durationTicks": 96,
          "midi": 69,
          "name": "A4",
          "ticks": 61824,
          "time": 50.3125,
          "velocity": 0.3937007874015748
        },
        {
          "duration": 0.078125,
          "durationTicks": 96,
          "midi": 72,
          "name": "C5",
          "ticks": 61920,
          "time": 50.390625,
          "velocity": 0.3937007874015748
        },
        {
          "duration": 0.078125,
          "durationTicks": 96,
          "midi": 67,
          "name": "G4",
          "ticks": 62016,
          "time": 50.46875,
          "velocity": 0.3937007874015748
        },
        {
          "duration": 0.078125,
          "durationTicks": 96,
          "midi": 72,
          "name": "C5",
          "ticks": 62112,
          "time": 50.546875,
          "velocity": 0.3937007874015748
        },
        {
          "duration": 0.078125,
          "durationTicks": 96,
          "midi": 65,
          "name": "F4",
          "ticks": 62208,
          "time": 50.625,
          "velocity": 0.3937007874015748
        },
        {
          "duration": 0.078125,
          "durationTicks": 96,
          "midi": 72,
          "name": "C5",
          "ticks": 62304,
          "time": 50.703125,
          "velocity": 0.3937007874015748
        },
        {
          "duration": 0.078125,
          "durationTicks": 96,
          "midi": 64,
          "name": "E4",
          "ticks": 62400,
          "time": 50.78125,
          "velocity": 0.3937007874015748
        },
        {
          "duration": 0.078125,
          "durationTicks": 96,
          "midi": 72,
          "name": "C5",
          "ticks": 62496,
          "time": 50.859375,
          "velocity": 0.3937007874015748
        },
        {
          "duration": 0.078125,
          "durationTicks": 96,
          "midi": 62,
          "name": "D4",
          "ticks": 62592,
          "time": 50.9375,
          "velocity": 0.3937007874015748
        },
        {
          "duration": 0.078125,
          "durationTicks": 96,
          "midi": 72,
          "name": "C5",
          "ticks": 62688,
          "time": 51.015625,
          "velocity": 0.3937007874015748
        },
        {
          "duration": 0.078125,
          "durationTicks": 96,
          "midi": 60,
          "name": "C4",
          "ticks": 62784,
          "time": 51.09375,
          "velocity": 0.3937007874015748
        },
        {
          "duration": 0.078125,
          "durationTicks": 96,
          "midi": 72,
          "name": "C5",
          "ticks": 62880,
          "time": 51.171875,
          "velocity": 0.3937007874015748
        },
        {
          "duration": 0.15625,
          "durationTicks": 192,
          "midi": 74,
          "name": "D5",
          "ticks": 62976,
          "time": 51.25,
          "velocity": 0.3937007874015748
        },
        {
          "duration": 0.078125,
          "durationTicks": 96,
          "midi": 72,
          "name": "C5",
          "ticks": 63168,
          "time": 51.40625,
          "velocity": 0.3937007874015748
        },
        {
          "duration": 0.078125,
          "durationTicks": 96,
          "midi": 74,
          "name": "D5",
          "ticks": 63264,
          "time": 51.484375,
          "velocity": 0.3937007874015748
        },
        {
          "duration": 0.078125,
          "durationTicks": 96,
          "midi": 71,
          "name": "B4",
          "ticks": 63360,
          "time": 51.5625,
          "velocity": 0.3937007874015748
        },
        {
          "duration": 0.078125,
          "durationTicks": 96,
          "midi": 74,
          "name": "D5",
          "ticks": 63456,
          "time": 51.640625,
          "velocity": 0.3937007874015748
        },
        {
          "duration": 0.078125,
          "durationTicks": 96,
          "midi": 69,
          "name": "A4",
          "ticks": 63552,
          "time": 51.71875,
          "velocity": 0.3937007874015748
        },
        {
          "duration": 0.078125,
          "durationTicks": 96,
          "midi": 74,
          "name": "D5",
          "ticks": 63648,
          "time": 51.796875,
          "velocity": 0.3937007874015748
        },
        {
          "duration": 0.078125,
          "durationTicks": 96,
          "midi": 67,
          "name": "G4",
          "ticks": 63744,
          "time": 51.875,
          "velocity": 0.3937007874015748
        },
        {
          "duration": 0.078125,
          "durationTicks": 96,
          "midi": 74,
          "name": "D5",
          "ticks": 63840,
          "time": 51.953125,
          "velocity": 0.3937007874015748
        },
        {
          "duration": 0.078125,
          "durationTicks": 96,
          "midi": 65,
          "name": "F4",
          "ticks": 63936,
          "time": 52.03125,
          "velocity": 0.3937007874015748
        },
        {
          "duration": 0.078125,
          "durationTicks": 96,
          "midi": 74,
          "name": "D5",
          "ticks": 64032,
          "time": 52.109375,
          "velocity": 0.3937007874015748
        },
        {
          "duration": 0.078125,
          "durationTicks": 96,
          "midi": 64,
          "name": "E4",
          "ticks": 64128,
          "time": 52.1875,
          "velocity": 0.3937007874015748
        },
        {
          "duration": 0.078125,
          "durationTicks": 96,
          "midi": 74,
          "name": "D5",
          "ticks": 64224,
          "time": 52.265625,
          "velocity": 0.3937007874015748
        },
        {
          "duration": 0.078125,
          "durationTicks": 96,
          "midi": 62,
          "name": "D4",
          "ticks": 64320,
          "time": 52.34375,
          "velocity": 0.3937007874015748
        },
        {
          "duration": 0.078125,
          "durationTicks": 96,
          "midi": 74,
          "name": "D5",
          "ticks": 64416,
          "time": 52.421875,
          "velocity": 0.3937007874015748
        },
        {
          "duration": 0.078125,
          "durationTicks": 96,
          "midi": 64,
          "name": "E4",
          "ticks": 64512,
          "time": 52.5,
          "velocity": 0.3937007874015748
        },
        {
          "duration": 0.078125,
          "durationTicks": 96,
          "midi": 68,
          "name": "G#4",
          "ticks": 64608,
          "time": 52.578125,
          "velocity": 0.3937007874015748
        },
        {
          "duration": 0.078125,
          "durationTicks": 96,
          "midi": 71,
          "name": "B4",
          "ticks": 64704,
          "time": 52.65625,
          "velocity": 0.3937007874015748
        },
        {
          "duration": 0.078125,
          "durationTicks": 96,
          "midi": 74,
          "name": "D5",
          "ticks": 64800,
          "time": 52.734375,
          "velocity": 0.3937007874015748
        },
        {
          "duration": 0.078125,
          "durationTicks": 96,
          "midi": 76,
          "name": "E5",
          "ticks": 64896,
          "time": 52.8125,
          "velocity": 0.3937007874015748
        },
        {
          "duration": 0.078125,
          "durationTicks": 96,
          "midi": 80,
          "name": "G#5",
          "ticks": 64992,
          "time": 52.890625,
          "velocity": 0.3937007874015748
        },
        {
          "duration": 0.078125,
          "durationTicks": 96,
          "midi": 83,
          "name": "B5",
          "ticks": 65088,
          "time": 52.96875,
          "velocity": 0.3937007874015748
        },
        {
          "duration": 0.078125,
          "durationTicks": 96,
          "midi": 86,
          "name": "D6",
          "ticks": 65184,
          "time": 53.046875,
          "velocity": 0.3937007874015748
        },
        {
          "duration": 0.078125,
          "durationTicks": 96,
          "midi": 88,
          "name": "E6",
          "ticks": 65280,
          "time": 53.125,
          "velocity": 0.3937007874015748
        },
        {
          "duration": 0.078125,
          "durationTicks": 96,
          "midi": 86,
          "name": "D6",
          "ticks": 65376,
          "time": 53.203125,
          "velocity": 0.3937007874015748
        },
        {
          "duration": 0.078125,
          "durationTicks": 96,
          "midi": 83,
          "name": "B5",
          "ticks": 65472,
          "time": 53.28125,
          "velocity": 0.3937007874015748
        },
        {
          "duration": 0.078125,
          "durationTicks": 96,
          "midi": 80,
          "name": "G#5",
          "ticks": 65568,
          "time": 53.359375,
          "velocity": 0.3937007874015748
        },
        {
          "duration": 0.078125,
          "durationTicks": 96,
          "midi": 76,
          "name": "E5",
          "ticks": 65664,
          "time": 53.4375,
          "velocity": 0.3937007874015748
        },
        {
          "duration": 0.078125,
          "durationTicks": 96,
          "midi": 74,
          "name": "D5",
          "ticks": 65760,
          "time": 53.515625,
          "velocity": 0.3937007874015748
        },
        {
          "duration": 0.078125,
          "durationTicks": 96,
          "midi": 71,
          "name": "B4",
          "ticks": 65856,
          "time": 53.59375,
          "velocity": 0.3937007874015748
        },
        {
          "duration": 0.078125,
          "durationTicks": 96,
          "midi": 68,
          "name": "G#4",
          "ticks": 65952,
          "time": 53.671875,
          "velocity": 0.3937007874015748
        },
        {
          "duration": 0.078125,
          "durationTicks": 96,
          "midi": 69,
          "name": "A4",
          "ticks": 66048,
          "time": 53.75,
          "velocity": 0.3937007874015748
        },
        {
          "duration": 0.078125,
          "durationTicks": 96,
          "midi": 72,
          "name": "C5",
          "ticks": 66144,
          "time": 53.828125,
          "velocity": 0.3937007874015748
        },
        {
          "duration": 0.078125,
          "durationTicks": 96,
          "midi": 76,
          "name": "E5",
          "ticks": 66240,
          "time": 53.90625,
          "velocity": 0.3937007874015748
        },
        {
          "duration": 0.078125,
          "durationTicks": 96,
          "midi": 81,
          "name": "A5",
          "ticks": 66336,
          "time": 53.984375,
          "velocity": 0.3937007874015748
        },
        {
          "duration": 0.078125,
          "durationTicks": 96,
          "midi": 84,
          "name": "C6",
          "ticks": 66432,
          "time": 54.0625,
          "velocity": 0.3937007874015748
        },
        {
          "duration": 0.078125,
          "durationTicks": 96,
          "midi": 83,
          "name": "B5",
          "ticks": 66528,
          "time": 54.140625,
          "velocity": 0.3937007874015748
        },
        {
          "duration": 0.078125,
          "durationTicks": 96,
          "midi": 81,
          "name": "A5",
          "ticks": 66624,
          "time": 54.21875,
          "velocity": 0.3937007874015748
        },
        {
          "duration": 0.078125,
          "durationTicks": 96,
          "midi": 80,
          "name": "G#5",
          "ticks": 66720,
          "time": 54.296875,
          "velocity": 0.3937007874015748
        },
        {
          "duration": 0.078125,
          "durationTicks": 96,
          "midi": 81,
          "name": "A5",
          "ticks": 66816,
          "time": 54.375,
          "velocity": 0.3937007874015748
        }
      ],
      "endOfTrackTicks": 66912
    },
    {
      "channel": 1,
      "controlChanges": {},
      "pitchBends": [],
      "instrument": {
        "family": "guitar",
        "number": 24,
        "name": "acoustic guitar (nylon)"
      },
      "name": "Acoustic Guitar",
      "notes": [
        {
          "duration": 0.078125,
          "durationTicks": 96,
          "midi": 47,
          "name": "B2",
          "ticks": 0,
          "time": 0,
          "velocity": 0.3937007874015748
        },
        {
          "duration": 0.078125,
          "durationTicks": 96,
          "midi": 45,
          "name": "A2",
          "ticks": 192,
          "time": 0.15625,
          "velocity": 0.3937007874015748
        },
        {
          "duration": 0.078125,
          "durationTicks": 96,
          "midi": 45,
          "name": "A2",
          "ticks": 384,
          "time": 0.3125,
          "velocity": 0.3937007874015748
        },
        {
          "duration": 0.078125,
          "durationTicks": 96,
          "midi": 48,
          "name": "C3",
          "ticks": 576,
          "time": 0.46875,
          "velocity": 0.3937007874015748
        },
        {
          "duration": 0.078125,
          "durationTicks": 96,
          "midi": 45,
          "name": "A2",
          "ticks": 768,
          "time": 0.625,
          "velocity": 0.3937007874015748
        },
        {
          "duration": 0.078125,
          "durationTicks": 96,
          "midi": 45,
          "name": "A2",
          "ticks": 960,
          "time": 0.78125,
          "velocity": 0.3937007874015748
        },
        {
          "duration": 0.078125,
          "durationTicks": 96,
          "midi": 50,
          "name": "D3",
          "ticks": 1152,
          "time": 0.9375,
          "velocity": 0.3937007874015748
        },
        {
          "duration": 0.078125,
          "durationTicks": 96,
          "midi": 45,
          "name": "A2",
          "ticks": 1344,
          "time": 1.09375,
          "velocity": 0.3937007874015748
        },
        {
          "duration": 0.078125,
          "durationTicks": 96,
          "midi": 45,
          "name": "A2",
          "ticks": 1536,
          "time": 1.25,
          "velocity": 0.3937007874015748
        },
        {
          "duration": 0.078125,
          "durationTicks": 96,
          "midi": 52,
          "name": "E3",
          "ticks": 1728,
          "time": 1.40625,
          "velocity": 0.3937007874015748
        },
        {
          "duration": 0.078125,
          "durationTicks": 96,
          "midi": 45,
          "name": "A2",
          "ticks": 1920,
          "time": 1.5625,
          "velocity": 0.3937007874015748
        },
        {
          "duration": 0.078125,
          "durationTicks": 96,
          "midi": 45,
          "name": "A2",
          "ticks": 2112,
          "time": 1.71875,
          "velocity": 0.3937007874015748
        },
        {
          "duration": 0.078125,
          "durationTicks": 96,
          "midi": 53,
          "name": "F3",
          "ticks": 2304,
          "time": 1.875,
          "velocity": 0.3937007874015748
        },
        {
          "duration": 0.078125,
          "durationTicks": 96,
          "midi": 45,
          "name": "A2",
          "ticks": 2496,
          "time": 2.03125,
          "velocity": 0.3937007874015748
        },
        {
          "duration": 0.078125,
          "durationTicks": 96,
          "midi": 45,
          "name": "A2",
          "ticks": 2688,
          "time": 2.1875,
          "velocity": 0.3937007874015748
        },
        {
          "duration": 0.078125,
          "durationTicks": 96,
          "midi": 53,
          "name": "F3",
          "ticks": 2880,
          "time": 2.34375,
          "velocity": 0.3937007874015748
        },
        {
          "duration": 0.078125,
          "durationTicks": 96,
          "midi": 52,
          "name": "E3",
          "ticks": 3072,
          "time": 2.5,
          "velocity": 0.3937007874015748
        },
        {
          "duration": 0.078125,
          "durationTicks": 96,
          "midi": 45,
          "name": "A2",
          "ticks": 3264,
          "time": 2.65625,
          "velocity": 0.3937007874015748
        },
        {
          "duration": 0.078125,
          "durationTicks": 96,
          "midi": 45,
          "name": "A2",
          "ticks": 3456,
          "time": 2.8125,
          "velocity": 0.3937007874015748
        },
        {
          "duration": 0.078125,
          "durationTicks": 96,
          "midi": 50,
          "name": "D3",
          "ticks": 3648,
          "time": 2.96875,
          "velocity": 0.3937007874015748
        },
        {
          "duration": 0.078125,
          "durationTicks": 96,
          "midi": 45,
          "name": "A2",
          "ticks": 3840,
          "time": 3.125,
          "velocity": 0.3937007874015748
        },
        {
          "duration": 0.078125,
          "durationTicks": 96,
          "midi": 45,
          "name": "A2",
          "ticks": 4032,
          "time": 3.28125,
          "velocity": 0.3937007874015748
        },
        {
          "duration": 0.078125,
          "durationTicks": 96,
          "midi": 48,
          "name": "C3",
          "ticks": 4224,
          "time": 3.4375,
          "velocity": 0.3937007874015748
        },
        {
          "duration": 0.078125,
          "durationTicks": 96,
          "midi": 45,
          "name": "A2",
          "ticks": 4416,
          "time": 3.59375,
          "velocity": 0.3937007874015748
        },
        {
          "duration": 0.078125,
          "durationTicks": 96,
          "midi": 45,
          "name": "A2",
          "ticks": 4608,
          "time": 3.75,
          "velocity": 0.3937007874015748
        },
        {
          "duration": 0.078125,
          "durationTicks": 96,
          "midi": 47,
          "name": "B2",
          "ticks": 4800,
          "time": 3.90625,
          "velocity": 0.3937007874015748
        },
        {
          "duration": 0.078125,
          "durationTicks": 96,
          "midi": 45,
          "name": "A2",
          "ticks": 4992,
          "time": 4.0625,
          "velocity": 0.3937007874015748
        },
        {
          "duration": 0.078125,
          "durationTicks": 96,
          "midi": 45,
          "name": "A2",
          "ticks": 5184,
          "time": 4.21875,
          "velocity": 0.3937007874015748
        },
        {
          "duration": 0.078125,
          "durationTicks": 96,
          "midi": 48,
          "name": "C3",
          "ticks": 5376,
          "time": 4.375,
          "velocity": 0.3937007874015748
        },
        {
          "duration": 0.078125,
          "durationTicks": 96,
          "midi": 45,
          "name": "A2",
          "ticks": 5568,
          "time": 4.53125,
          "velocity": 0.3937007874015748
        },
        {
          "duration": 0.078125,
          "durationTicks": 96,
          "midi": 47,
          "name": "B2",
          "ticks": 5760,
          "time": 4.6875,
          "velocity": 0.3937007874015748
        },
        {
          "duration": 0.078125,
          "durationTicks": 96,
          "midi": 45,
          "name": "A2",
          "ticks": 5952,
          "time": 4.84375,
          "velocity": 0.3937007874015748
        },
        {
          "duration": 0.625,
          "durationTicks": 768,
          "midi": 45,
          "name": "A2",
          "ticks": 6144,
          "time": 5,
          "velocity": 0.3937007874015748
        },
        {
          "duration": 0.625,
          "durationTicks": 768,
          "midi": 64,
          "name": "E4",
          "ticks": 6144,
          "time": 5,
          "velocity": 0.3937007874015748
        },
        {
          "duration": 0.625,
          "durationTicks": 768,
          "midi": 57,
          "name": "A3",
          "ticks": 6144,
          "time": 5,
          "velocity": 0.3937007874015748
        },
        {
          "duration": 0.625,
          "durationTicks": 768,
          "midi": 60,
          "name": "C4",
          "ticks": 6144,
          "time": 5,
          "velocity": 0.3937007874015748
        },
        {
          "duration": 0.625,
          "durationTicks": 768,
          "midi": 59,
          "name": "B3",
          "ticks": 6912,
          "time": 5.625,
          "velocity": 0.3937007874015748
        },
        {
          "duration": 0.625,
          "durationTicks": 768,
          "midi": 44,
          "name": "G#2",
          "ticks": 6912,
          "time": 5.625,
          "velocity": 0.3937007874015748
        },
        {
          "duration": 0.625,
          "durationTicks": 768,
          "midi": 56,
          "name": "G#3",
          "ticks": 6912,
          "time": 5.625,
          "velocity": 0.3937007874015748
        },
        {
          "duration": 0.625,
          "durationTicks": 768,
          "midi": 64,
          "name": "E4",
          "ticks": 6912,
          "time": 5.625,
          "velocity": 0.3937007874015748
        },
        {
          "duration": 1.25,
          "durationTicks": 1536,
          "midi": 60,
          "name": "C4",
          "ticks": 7680,
          "time": 6.25,
          "velocity": 0.3937007874015748
        },
        {
          "duration": 1.25,
          "durationTicks": 1536,
          "midi": 57,
          "name": "A3",
          "ticks": 7680,
          "time": 6.25,
          "velocity": 0.3937007874015748
        },
        {
          "duration": 1.25,
          "durationTicks": 1536,
          "midi": 64,
          "name": "E4",
          "ticks": 7680,
          "time": 6.25,
          "velocity": 0.3937007874015748
        },
        {
          "duration": 1.25,
          "durationTicks": 1536,
          "midi": 45,
          "name": "A2",
          "ticks": 7680,
          "time": 6.25,
          "velocity": 0.3937007874015748
        },
        {
          "duration": 0.625,
          "durationTicks": 768,
          "midi": 60,
          "name": "C4",
          "ticks": 9216,
          "time": 7.5,
          "velocity": 0.3937007874015748
        },
        {
          "duration": 0.625,
          "durationTicks": 768,
          "midi": 57,
          "name": "A3",
          "ticks": 9216,
          "time": 7.5,
          "velocity": 0.3937007874015748
        },
        {
          "duration": 0.625,
          "durationTicks": 768,
          "midi": 64,
          "name": "E4",
          "ticks": 9216,
          "time": 7.5,
          "velocity": 0.3937007874015748
        },
        {
          "duration": 0.625,
          "durationTicks": 768,
          "midi": 45,
          "name": "A2",
          "ticks": 9216,
          "time": 7.5,
          "velocity": 0.3937007874015748
        },
        {
          "duration": 0.625,
          "durationTicks": 768,
          "midi": 47,
          "name": "B2",
          "ticks": 9984,
          "time": 8.125,
          "velocity": 0.3937007874015748
        },
        {
          "duration": 0.625,
          "durationTicks": 768,
          "midi": 55,
          "name": "G3",
          "ticks": 9984,
          "time": 8.125,
          "velocity": 0.3937007874015748
        },
        {
          "duration": 0.625,
          "durationTicks": 768,
          "midi": 59,
          "name": "B3",
          "ticks": 9984,
          "time": 8.125,
          "velocity": 0.3937007874015748
        },
        {
          "duration": 0.625,
          "durationTicks": 768,
          "midi": 62,
          "name": "D4",
          "ticks": 9984,
          "time": 8.125,
          "velocity": 0.3937007874015748
        },
        {
          "duration": 1.25,
          "durationTicks": 1536,
          "midi": 48,
          "name": "C3",
          "ticks": 10752,
          "time": 8.75,
          "velocity": 0.3937007874015748
        },
        {
          "duration": 1.171875,
          "durationTicks": 1440,
          "midi": 60,
          "name": "C4",
          "ticks": 10752,
          "time": 8.75,
          "velocity": 0.3937007874015748
        },
        {
          "duration": 1.171875,
          "durationTicks": 1440,
          "midi": 64,
          "name": "E4",
          "ticks": 10752,
          "time": 8.75,
          "velocity": 0.3937007874015748
        },
        {
          "duration": 1.171875,
          "durationTicks": 1440,
          "midi": 67,
          "name": "G4",
          "ticks": 10752,
          "time": 8.75,
          "velocity": 0.3937007874015748
        },
        {
          "duration": 0.625,
          "durationTicks": 768,
          "midi": 50,
          "name": "D3",
          "ticks": 12288,
          "time": 10,
          "velocity": 0.3937007874015748
        },
        {
          "duration": 0.625,
          "durationTicks": 768,
          "midi": 65,
          "name": "F4",
          "ticks": 12288,
          "time": 10,
          "velocity": 0.3937007874015748
        },
        {
          "duration": 0.625,
          "durationTicks": 768,
          "midi": 62,
          "name": "D4",
          "ticks": 12288,
          "time": 10,
          "velocity": 0.3937007874015748
        },
        {
          "duration": 0.625,
          "durationTicks": 768,
          "midi": 57,
          "name": "A3",
          "ticks": 12288,
          "time": 10,
          "velocity": 0.3937007874015748
        },
        {
          "duration": 0.625,
          "durationTicks": 768,
          "midi": 56,
          "name": "G#3",
          "ticks": 13056,
          "time": 10.625,
          "velocity": 0.3937007874015748
        },
        {
          "duration": 0.625,
          "durationTicks": 768,
          "midi": 59,
          "name": "B3",
          "ticks": 13056,
          "time": 10.625,
          "velocity": 0.3937007874015748
        },
        {
          "duration": 0.625,
          "durationTicks": 768,
          "midi": 64,
          "name": "E4",
          "ticks": 13056,
          "time": 10.625,
          "velocity": 0.3937007874015748
        },
        {
          "duration": 0.625,
          "durationTicks": 768,
          "midi": 40,
          "name": "E2",
          "ticks": 13056,
          "time": 10.625,
          "velocity": 0.3937007874015748
        },
        {
          "duration": 0.625,
          "durationTicks": 768,
          "midi": 45,
          "name": "A2",
          "ticks": 13824,
          "time": 11.25,
          "velocity": 0.3937007874015748
        },
        {
          "duration": 0.625,
          "durationTicks": 768,
          "midi": 64,
          "name": "E4",
          "ticks": 13824,
          "time": 11.25,
          "velocity": 0.3937007874015748
        },
        {
          "duration": 0.625,
          "durationTicks": 768,
          "midi": 60,
          "name": "C4",
          "ticks": 13824,
          "time": 11.25,
          "velocity": 0.3937007874015748
        },
        {
          "duration": 0.625,
          "durationTicks": 768,
          "midi": 57,
          "name": "A3",
          "ticks": 13824,
          "time": 11.25,
          "velocity": 0.3937007874015748
        },
        {
          "duration": 0.625,
          "durationTicks": 768,
          "midi": 62,
          "name": "D4",
          "ticks": 14592,
          "time": 11.875,
          "velocity": 0.3937007874015748
        },
        {
          "duration": 0.625,
          "durationTicks": 768,
          "midi": 42,
          "name": "F#2",
          "ticks": 14592,
          "time": 11.875,
          "velocity": 0.3937007874015748
        },
        {
          "duration": 0.625,
          "durationTicks": 768,
          "midi": 57,
          "name": "A3",
          "ticks": 14592,
          "time": 11.875,
          "velocity": 0.3937007874015748
        },
        {
          "duration": 0.625,
          "durationTicks": 768,
          "midi": 66,
          "name": "F#4",
          "ticks": 14592,
          "time": 11.875,
          "velocity": 0.3937007874015748
        },
        {
          "duration": 0.625,
          "durationTicks": 768,
          "midi": 60,
          "name": "C4",
          "ticks": 15360,
          "time": 12.5,
          "velocity": 0.3937007874015748
        },
        {
          "duration": 0.625,
          "durationTicks": 768,
          "midi": 54,
          "name": "F#3",
          "ticks": 15360,
          "time": 12.5,
          "velocity": 0.3937007874015748
        },
        {
          "duration": 0.625,
          "durationTicks": 768,
          "midi": 63,
          "name": "D#4",
          "ticks": 15360,
          "time": 12.5,
          "velocity": 0.3937007874015748
        },
        {
          "duration": 0.625,
          "durationTicks": 768,
          "midi": 51,
          "name": "D#3",
          "ticks": 15360,
          "time": 12.5,
          "velocity": 0.3937007874015748
        },
        {
          "duration": 0.625,
          "durationTicks": 768,
          "midi": 64,
          "name": "E4",
          "ticks": 16128,
          "time": 13.125,
          "velocity": 0.3937007874015748
        },
        {
          "duration": 0.625,
          "durationTicks": 768,
          "midi": 56,
          "name": "G#3",
          "ticks": 16128,
          "time": 13.125,
          "velocity": 0.3937007874015748
        },
        {
          "duration": 0.625,
          "durationTicks": 768,
          "midi": 59,
          "name": "B3",
          "ticks": 16128,
          "time": 13.125,
          "velocity": 0.3937007874015748
        },
        {
          "duration": 0.625,
          "durationTicks": 768,
          "midi": 52,
          "name": "E3",
          "ticks": 16128,
          "time": 13.125,
          "velocity": 0.3937007874015748
        },
        {
          "duration": 1.25,
          "durationTicks": 1536,
          "midi": 60,
          "name": "C4",
          "ticks": 16896,
          "time": 13.75,
          "velocity": 0.3937007874015748
        },
        {
          "duration": 1.25,
          "durationTicks": 1536,
          "midi": 57,
          "name": "A3",
          "ticks": 16896,
          "time": 13.75,
          "velocity": 0.3937007874015748
        },
        {
          "duration": 1.25,
          "durationTicks": 1536,
          "midi": 45,
          "name": "A2",
          "ticks": 16896,
          "time": 13.75,
          "velocity": 0.3937007874015748
        },
        {
          "duration": 1.25,
          "durationTicks": 1536,
          "midi": 52,
          "name": "E3",
          "ticks": 16896,
          "time": 13.75,
          "velocity": 0.3937007874015748
        },
        {
          "duration": 0.625,
          "durationTicks": 768,
          "midi": 60,
          "name": "C4",
          "ticks": 18432,
          "time": 15,
          "velocity": 0.3937007874015748
        },
        {
          "duration": 0.625,
          "durationTicks": 768,
          "midi": 64,
          "name": "E4",
          "ticks": 18432,
          "time": 15,
          "velocity": 0.3937007874015748
        },
        {
          "duration": 0.625,
          "durationTicks": 768,
          "midi": 45,
          "name": "A2",
          "ticks": 18432,
          "time": 15,
          "velocity": 0.3937007874015748
        },
        {
          "duration": 0.625,
          "durationTicks": 768,
          "midi": 57,
          "name": "A3",
          "ticks": 18432,
          "time": 15,
          "velocity": 0.3937007874015748
        },
        {
          "duration": 0.625,
          "durationTicks": 768,
          "midi": 64,
          "name": "E4",
          "ticks": 19200,
          "time": 15.625,
          "velocity": 0.3937007874015748
        },
        {
          "duration": 0.625,
          "durationTicks": 768,
          "midi": 56,
          "name": "G#3",
          "ticks": 19200,
          "time": 15.625,
          "velocity": 0.3937007874015748
        },
        {
          "duration": 0.625,
          "durationTicks": 768,
          "midi": 44,
          "name": "G#2",
          "ticks": 19200,
          "time": 15.625,
          "velocity": 0.3937007874015748
        },
        {
          "duration": 0.625,
          "durationTicks": 768,
          "midi": 59,
          "name": "B3",
          "ticks": 19200,
          "time": 15.625,
          "velocity": 0.3937007874015748
        },
        {
          "duration": 1.25,
          "durationTicks": 1536,
          "midi": 60,
          "name": "C4",
          "ticks": 19968,
          "time": 16.25,
          "velocity": 0.3937007874015748
        },
        {
          "duration": 1.25,
          "durationTicks": 1536,
          "midi": 45,
          "name": "A2",
          "ticks": 19968,
          "time": 16.25,
          "velocity": 0.3937007874015748
        },
        {
          "duration": 1.25,
          "durationTicks": 1536,
          "midi": 64,
          "name": "E4",
          "ticks": 19968,
          "time": 16.25,
          "velocity": 0.3937007874015748
        },
        {
          "duration": 1.25,
          "durationTicks": 1536,
          "midi": 57,
          "name": "A3",
          "ticks": 19968,
          "time": 16.25,
          "velocity": 0.3937007874015748
        },
        {
          "duration": 0.625,
          "durationTicks": 768,
          "midi": 45,
          "name": "A2",
          "ticks": 21504,
          "time": 17.5,
          "velocity": 0.3937007874015748
        },
        {
          "duration": 0.625,
          "durationTicks": 768,
          "midi": 60,
          "name": "C4",
          "ticks": 21504,
          "time": 17.5,
          "velocity": 0.3937007874015748
        },
        {
          "duration": 0.625,
          "durationTicks": 768,
          "midi": 64,
          "name": "E4",
          "ticks": 21504,
          "time": 17.5,
          "velocity": 0.3937007874015748
        },
        {
          "duration": 0.625,
          "durationTicks": 768,
          "midi": 57,
          "name": "A3",
          "ticks": 21504,
          "time": 17.5,
          "velocity": 0.3937007874015748
        },
        {
          "duration": 0.625,
          "durationTicks": 768,
          "midi": 59,
          "name": "B3",
          "ticks": 22272,
          "time": 18.125,
          "velocity": 0.3937007874015748
        },
        {
          "duration": 0.625,
          "durationTicks": 768,
          "midi": 62,
          "name": "D4",
          "ticks": 22272,
          "time": 18.125,
          "velocity": 0.3937007874015748
        },
        {
          "duration": 0.625,
          "durationTicks": 768,
          "midi": 47,
          "name": "B2",
          "ticks": 22272,
          "time": 18.125,
          "velocity": 0.3937007874015748
        },
        {
          "duration": 0.625,
          "durationTicks": 768,
          "midi": 55,
          "name": "G3",
          "ticks": 22272,
          "time": 18.125,
          "velocity": 0.3937007874015748
        },
        {
          "duration": 1.171875,
          "durationTicks": 1440,
          "midi": 64,
          "name": "E4",
          "ticks": 23040,
          "time": 18.75,
          "velocity": 0.3937007874015748
        },
        {
          "duration": 1.171875,
          "durationTicks": 1440,
          "midi": 60,
          "name": "C4",
          "ticks": 23040,
          "time": 18.75,
          "velocity": 0.3937007874015748
        },
        {
          "duration": 1.171875,
          "durationTicks": 1440,
          "midi": 67,
          "name": "G4",
          "ticks": 23040,
          "time": 18.75,
          "velocity": 0.3937007874015748
        },
        {
          "duration": 1.25,
          "durationTicks": 1536,
          "midi": 48,
          "name": "C3",
          "ticks": 23040,
          "time": 18.75,
          "velocity": 0.3937007874015748
        },
        {
          "duration": 0.625,
          "durationTicks": 768,
          "midi": 57,
          "name": "A3",
          "ticks": 24576,
          "time": 20,
          "velocity": 0.3937007874015748
        },
        {
          "duration": 0.625,
          "durationTicks": 768,
          "midi": 62,
          "name": "D4",
          "ticks": 24576,
          "time": 20,
          "velocity": 0.3937007874015748
        },
        {
          "duration": 0.625,
          "durationTicks": 768,
          "midi": 50,
          "name": "D3",
          "ticks": 24576,
          "time": 20,
          "velocity": 0.3937007874015748
        },
        {
          "duration": 0.625,
          "durationTicks": 768,
          "midi": 65,
          "name": "F4",
          "ticks": 24576,
          "time": 20,
          "velocity": 0.3937007874015748
        },
        {
          "duration": 0.625,
          "durationTicks": 768,
          "midi": 56,
          "name": "G#3",
          "ticks": 25344,
          "time": 20.625,
          "velocity": 0.3937007874015748
        },
        {
          "duration": 0.625,
          "durationTicks": 768,
          "midi": 40,
          "name": "E2",
          "ticks": 25344,
          "time": 20.625,
          "velocity": 0.3937007874015748
        },
        {
          "duration": 0.625,
          "durationTicks": 768,
          "midi": 64,
          "name": "E4",
          "ticks": 25344,
          "time": 20.625,
          "velocity": 0.3937007874015748
        },
        {
          "duration": 0.625,
          "durationTicks": 768,
          "midi": 59,
          "name": "B3",
          "ticks": 25344,
          "time": 20.625,
          "velocity": 0.3937007874015748
        },
        {
          "duration": 0.625,
          "durationTicks": 768,
          "midi": 57,
          "name": "A3",
          "ticks": 26112,
          "time": 21.25,
          "velocity": 0.3937007874015748
        },
        {
          "duration": 0.625,
          "durationTicks": 768,
          "midi": 45,
          "name": "A2",
          "ticks": 26112,
          "time": 21.25,
          "velocity": 0.3937007874015748
        },
        {
          "duration": 0.625,
          "durationTicks": 768,
          "midi": 60,
          "name": "C4",
          "ticks": 26112,
          "time": 21.25,
          "velocity": 0.3937007874015748
        },
        {
          "duration": 0.625,
          "durationTicks": 768,
          "midi": 64,
          "name": "E4",
          "ticks": 26112,
          "time": 21.25,
          "velocity": 0.3937007874015748
        },
        {
          "duration": 0.625,
          "durationTicks": 768,
          "midi": 57,
          "name": "A3",
          "ticks": 26880,
          "time": 21.875,
          "velocity": 0.3937007874015748
        },
        {
          "duration": 0.625,
          "durationTicks": 768,
          "midi": 62,
          "name": "D4",
          "ticks": 26880,
          "time": 21.875,
          "velocity": 0.3937007874015748
        },
        {
          "duration": 0.625,
          "durationTicks": 768,
          "midi": 66,
          "name": "F#4",
          "ticks": 26880,
          "time": 21.875,
          "velocity": 0.3937007874015748
        },
        {
          "duration": 0.625,
          "durationTicks": 768,
          "midi": 42,
          "name": "F#2",
          "ticks": 26880,
          "time": 21.875,
          "velocity": 0.3937007874015748
        },
        {
          "duration": 0.625,
          "durationTicks": 768,
          "midi": 60,
          "name": "C4",
          "ticks": 27648,
          "time": 22.5,
          "velocity": 0.3937007874015748
        },
        {
          "duration": 0.625,
          "durationTicks": 768,
          "midi": 51,
          "name": "D#3",
          "ticks": 27648,
          "time": 22.5,
          "velocity": 0.3937007874015748
        },
        {
          "duration": 0.625,
          "durationTicks": 768,
          "midi": 63,
          "name": "D#4",
          "ticks": 27648,
          "time": 22.5,
          "velocity": 0.3937007874015748
        },
        {
          "duration": 0.625,
          "durationTicks": 768,
          "midi": 54,
          "name": "F#3",
          "ticks": 27648,
          "time": 22.5,
          "velocity": 0.3937007874015748
        },
        {
          "duration": 0.625,
          "durationTicks": 768,
          "midi": 59,
          "name": "B3",
          "ticks": 28416,
          "time": 23.125,
          "velocity": 0.3937007874015748
        },
        {
          "duration": 0.625,
          "durationTicks": 768,
          "midi": 64,
          "name": "E4",
          "ticks": 28416,
          "time": 23.125,
          "velocity": 0.3937007874015748
        },
        {
          "duration": 0.625,
          "durationTicks": 768,
          "midi": 52,
          "name": "E3",
          "ticks": 28416,
          "time": 23.125,
          "velocity": 0.3937007874015748
        },
        {
          "duration": 0.625,
          "durationTicks": 768,
          "midi": 56,
          "name": "G#3",
          "ticks": 28416,
          "time": 23.125,
          "velocity": 0.3937007874015748
        },
        {
          "duration": 1.25,
          "durationTicks": 1536,
          "midi": 60,
          "name": "C4",
          "ticks": 29184,
          "time": 23.75,
          "velocity": 0.3937007874015748
        },
        {
          "duration": 1.25,
          "durationTicks": 1536,
          "midi": 57,
          "name": "A3",
          "ticks": 29184,
          "time": 23.75,
          "velocity": 0.3937007874015748
        },
        {
          "duration": 1.25,
          "durationTicks": 1536,
          "midi": 52,
          "name": "E3",
          "ticks": 29184,
          "time": 23.75,
          "velocity": 0.3937007874015748
        },
        {
          "duration": 1.25,
          "durationTicks": 1536,
          "midi": 45,
          "name": "A2",
          "ticks": 29184,
          "time": 23.75,
          "velocity": 0.3937007874015748
        },
        {
          "duration": 0.15625,
          "durationTicks": 192,
          "midi": 40,
          "name": "E2",
          "ticks": 30720,
          "time": 25,
          "velocity": 0.3937007874015748
        },
        {
          "duration": 0.15625,
          "durationTicks": 192,
          "midi": 28,
          "name": "E1",
          "ticks": 30720,
          "time": 25,
          "velocity": 0.3937007874015748
        },
        {
          "duration": 0.15625,
          "durationTicks": 192,
          "midi": 28,
          "name": "E1",
          "ticks": 30912,
          "time": 25.15625,
          "velocity": 0.3937007874015748
        },
        {
          "duration": 0.15625,
          "durationTicks": 192,
          "midi": 40,
          "name": "E2",
          "ticks": 30912,
          "time": 25.15625,
          "velocity": 0.3937007874015748
        },
        {
          "duration": 0.15625,
          "durationTicks": 192,
          "midi": 40,
          "name": "E2",
          "ticks": 31104,
          "time": 25.3125,
          "velocity": 0.3937007874015748
        },
        {
          "duration": 0.15625,
          "durationTicks": 192,
          "midi": 28,
          "name": "E1",
          "ticks": 31104,
          "time": 25.3125,
          "velocity": 0.3937007874015748
        },
        {
          "duration": 0.15625,
          "durationTicks": 192,
          "midi": 40,
          "name": "E2",
          "ticks": 31296,
          "time": 25.46875,
          "velocity": 0.3937007874015748
        },
        {
          "duration": 0.15625,
          "durationTicks": 192,
          "midi": 28,
          "name": "E1",
          "ticks": 31296,
          "time": 25.46875,
          "velocity": 0.3937007874015748
        },
        {
          "duration": 0.15625,
          "durationTicks": 192,
          "midi": 44,
          "name": "G#2",
          "ticks": 31488,
          "time": 25.625,
          "velocity": 0.3937007874015748
        },
        {
          "duration": 0.15625,
          "durationTicks": 192,
          "midi": 32,
          "name": "G#1",
          "ticks": 31488,
          "time": 25.625,
          "velocity": 0.3937007874015748
        },
        {
          "duration": 0.15625,
          "durationTicks": 192,
          "midi": 44,
          "name": "G#2",
          "ticks": 31680,
          "time": 25.78125,
          "velocity": 0.3937007874015748
        },
        {
          "duration": 0.15625,
          "durationTicks": 192,
          "midi": 32,
          "name": "G#1",
          "ticks": 31680,
          "time": 25.78125,
          "velocity": 0.3937007874015748
        },
        {
          "duration": 0.15625,
          "durationTicks": 192,
          "midi": 32,
          "name": "G#1",
          "ticks": 31872,
          "time": 25.9375,
          "velocity": 0.3937007874015748
        },
        {
          "duration": 0.15625,
          "durationTicks": 192,
          "midi": 44,
          "name": "G#2",
          "ticks": 31872,
          "time": 25.9375,
          "velocity": 0.3937007874015748
        },
        {
          "duration": 0.15625,
          "durationTicks": 192,
          "midi": 44,
          "name": "G#2",
          "ticks": 32064,
          "time": 26.09375,
          "velocity": 0.3937007874015748
        },
        {
          "duration": 0.15625,
          "durationTicks": 192,
          "midi": 32,
          "name": "G#1",
          "ticks": 32064,
          "time": 26.09375,
          "velocity": 0.3937007874015748
        },
        {
          "duration": 0.15625,
          "durationTicks": 192,
          "midi": 33,
          "name": "A1",
          "ticks": 32256,
          "time": 26.25,
          "velocity": 0.3937007874015748
        },
        {
          "duration": 0.15625,
          "durationTicks": 192,
          "midi": 45,
          "name": "A2",
          "ticks": 32256,
          "time": 26.25,
          "velocity": 0.3937007874015748
        },
        {
          "duration": 0.15625,
          "durationTicks": 192,
          "midi": 33,
          "name": "A1",
          "ticks": 32448,
          "time": 26.40625,
          "velocity": 0.3937007874015748
        },
        {
          "duration": 0.15625,
          "durationTicks": 192,
          "midi": 45,
          "name": "A2",
          "ticks": 32448,
          "time": 26.40625,
          "velocity": 0.3937007874015748
        },
        {
          "duration": 0.15625,
          "durationTicks": 192,
          "midi": 33,
          "name": "A1",
          "ticks": 32640,
          "time": 26.5625,
          "velocity": 0.3937007874015748
        },
        {
          "duration": 0.15625,
          "durationTicks": 192,
          "midi": 45,
          "name": "A2",
          "ticks": 32640,
          "time": 26.5625,
          "velocity": 0.3937007874015748
        },
        {
          "duration": 0.15625,
          "durationTicks": 192,
          "midi": 45,
          "name": "A2",
          "ticks": 32832,
          "time": 26.71875,
          "velocity": 0.3937007874015748
        },
        {
          "duration": 0.15625,
          "durationTicks": 192,
          "midi": 33,
          "name": "A1",
          "ticks": 32832,
          "time": 26.71875,
          "velocity": 0.3937007874015748
        },
        {
          "duration": 0.15625,
          "durationTicks": 192,
          "midi": 33,
          "name": "A1",
          "ticks": 33024,
          "time": 26.875,
          "velocity": 0.3937007874015748
        },
        {
          "duration": 0.15625,
          "durationTicks": 192,
          "midi": 45,
          "name": "A2",
          "ticks": 33024,
          "time": 26.875,
          "velocity": 0.3937007874015748
        },
        {
          "duration": 0.15625,
          "durationTicks": 192,
          "midi": 33,
          "name": "A1",
          "ticks": 33216,
          "time": 27.03125,
          "velocity": 0.3937007874015748
        },
        {
          "duration": 0.15625,
          "durationTicks": 192,
          "midi": 45,
          "name": "A2",
          "ticks": 33216,
          "time": 27.03125,
          "velocity": 0.3937007874015748
        },
        {
          "duration": 0.15625,
          "durationTicks": 192,
          "midi": 45,
          "name": "A2",
          "ticks": 33408,
          "time": 27.1875,
          "velocity": 0.3937007874015748
        },
        {
          "duration": 0.15625,
          "durationTicks": 192,
          "midi": 33,
          "name": "A1",
          "ticks": 33408,
          "time": 27.1875,
          "velocity": 0.3937007874015748
        },
        {
          "duration": 0.15625,
          "durationTicks": 192,
          "midi": 45,
          "name": "A2",
          "ticks": 33600,
          "time": 27.34375,
          "velocity": 0.3937007874015748
        },
        {
          "duration": 0.15625,
          "durationTicks": 192,
          "midi": 33,
          "name": "A1",
          "ticks": 33600,
          "time": 27.34375,
          "velocity": 0.3937007874015748
        },
        {
          "duration": 0.15625,
          "durationTicks": 192,
          "midi": 31,
          "name": "G1",
          "ticks": 33792,
          "time": 27.5,
          "velocity": 0.3937007874015748
        },
        {
          "duration": 0.15625,
          "durationTicks": 192,
          "midi": 43,
          "name": "G2",
          "ticks": 33792,
          "time": 27.5,
          "velocity": 0.3937007874015748
        },
        {
          "duration": 0.15625,
          "durationTicks": 192,
          "midi": 31,
          "name": "G1",
          "ticks": 33984,
          "time": 27.65625,
          "velocity": 0.3937007874015748
        },
        {
          "duration": 0.15625,
          "durationTicks": 192,
          "midi": 43,
          "name": "G2",
          "ticks": 33984,
          "time": 27.65625,
          "velocity": 0.3937007874015748
        },
        {
          "duration": 0.15625,
          "durationTicks": 192,
          "midi": 31,
          "name": "G1",
          "ticks": 34176,
          "time": 27.8125,
          "velocity": 0.3937007874015748
        },
        {
          "duration": 0.15625,
          "durationTicks": 192,
          "midi": 43,
          "name": "G2",
          "ticks": 34176,
          "time": 27.8125,
          "velocity": 0.3937007874015748
        },
        {
          "duration": 0.15625,
          "durationTicks": 192,
          "midi": 31,
          "name": "G1",
          "ticks": 34368,
          "time": 27.96875,
          "velocity": 0.3937007874015748
        },
        {
          "duration": 0.15625,
          "durationTicks": 192,
          "midi": 43,
          "name": "G2",
          "ticks": 34368,
          "time": 27.96875,
          "velocity": 0.3937007874015748
        },
        {
          "duration": 0.15625,
          "durationTicks": 192,
          "midi": 35,
          "name": "B1",
          "ticks": 34560,
          "time": 28.125,
          "velocity": 0.3937007874015748
        },
        {
          "duration": 0.15625,
          "durationTicks": 192,
          "midi": 47,
          "name": "B2",
          "ticks": 34560,
          "time": 28.125,
          "velocity": 0.3937007874015748
        },
        {
          "duration": 0.15625,
          "durationTicks": 192,
          "midi": 35,
          "name": "B1",
          "ticks": 34752,
          "time": 28.28125,
          "velocity": 0.3937007874015748
        },
        {
          "duration": 0.15625,
          "durationTicks": 192,
          "midi": 47,
          "name": "B2",
          "ticks": 34752,
          "time": 28.28125,
          "velocity": 0.3937007874015748
        },
        {
          "duration": 0.15625,
          "durationTicks": 192,
          "midi": 35,
          "name": "B1",
          "ticks": 34944,
          "time": 28.4375,
          "velocity": 0.3937007874015748
        },
        {
          "duration": 0.15625,
          "durationTicks": 192,
          "midi": 47,
          "name": "B2",
          "ticks": 34944,
          "time": 28.4375,
          "velocity": 0.3937007874015748
        },
        {
          "duration": 0.15625,
          "durationTicks": 192,
          "midi": 35,
          "name": "B1",
          "ticks": 35136,
          "time": 28.59375,
          "velocity": 0.3937007874015748
        },
        {
          "duration": 0.15625,
          "durationTicks": 192,
          "midi": 47,
          "name": "B2",
          "ticks": 35136,
          "time": 28.59375,
          "velocity": 0.3937007874015748
        },
        {
          "duration": 0.15625,
          "durationTicks": 192,
          "midi": 36,
          "name": "C2",
          "ticks": 35328,
          "time": 28.75,
          "velocity": 0.3937007874015748
        },
        {
          "duration": 0.15625,
          "durationTicks": 192,
          "midi": 48,
          "name": "C3",
          "ticks": 35328,
          "time": 28.75,
          "velocity": 0.3937007874015748
        },
        {
          "duration": 0.15625,
          "durationTicks": 192,
          "midi": 48,
          "name": "C3",
          "ticks": 35520,
          "time": 28.90625,
          "velocity": 0.3937007874015748
        },
        {
          "duration": 0.15625,
          "durationTicks": 192,
          "midi": 36,
          "name": "C2",
          "ticks": 35520,
          "time": 28.90625,
          "velocity": 0.3937007874015748
        },
        {
          "duration": 0.15625,
          "durationTicks": 192,
          "midi": 36,
          "name": "C2",
          "ticks": 35712,
          "time": 29.0625,
          "velocity": 0.3937007874015748
        },
        {
          "duration": 0.15625,
          "durationTicks": 192,
          "midi": 48,
          "name": "C3",
          "ticks": 35712,
          "time": 29.0625,
          "velocity": 0.3937007874015748
        },
        {
          "duration": 0.15625,
          "durationTicks": 192,
          "midi": 36,
          "name": "C2",
          "ticks": 35904,
          "time": 29.21875,
          "velocity": 0.3937007874015748
        },
        {
          "duration": 0.15625,
          "durationTicks": 192,
          "midi": 48,
          "name": "C3",
          "ticks": 35904,
          "time": 29.21875,
          "velocity": 0.3937007874015748
        },
        {
          "duration": 0.15625,
          "durationTicks": 192,
          "midi": 36,
          "name": "C2",
          "ticks": 36096,
          "time": 29.375,
          "velocity": 0.3937007874015748
        },
        {
          "duration": 0.15625,
          "durationTicks": 192,
          "midi": 48,
          "name": "C3",
          "ticks": 36096,
          "time": 29.375,
          "velocity": 0.3937007874015748
        },
        {
          "duration": 0.15625,
          "durationTicks": 192,
          "midi": 48,
          "name": "C3",
          "ticks": 36288,
          "time": 29.53125,
          "velocity": 0.3937007874015748
        },
        {
          "duration": 0.15625,
          "durationTicks": 192,
          "midi": 36,
          "name": "C2",
          "ticks": 36288,
          "time": 29.53125,
          "velocity": 0.3937007874015748
        },
        {
          "duration": 0.15625,
          "durationTicks": 192,
          "midi": 36,
          "name": "C2",
          "ticks": 36480,
          "time": 29.6875,
          "velocity": 0.3937007874015748
        },
        {
          "duration": 0.15625,
          "durationTicks": 192,
          "midi": 48,
          "name": "C3",
          "ticks": 36480,
          "time": 29.6875,
          "velocity": 0.3937007874015748
        },
        {
          "duration": 0.15625,
          "durationTicks": 192,
          "midi": 36,
          "name": "C2",
          "ticks": 36672,
          "time": 29.84375,
          "velocity": 0.3937007874015748
        },
        {
          "duration": 0.15625,
          "durationTicks": 192,
          "midi": 48,
          "name": "C3",
          "ticks": 36672,
          "time": 29.84375,
          "velocity": 0.3937007874015748
        },
        {
          "duration": 0.15625,
          "durationTicks": 192,
          "midi": 45,
          "name": "A2",
          "ticks": 36864,
          "time": 30,
          "velocity": 0.3937007874015748
        },
        {
          "duration": 0.15625,
          "durationTicks": 192,
          "midi": 33,
          "name": "A1",
          "ticks": 36864,
          "time": 30,
          "velocity": 0.3937007874015748
        },
        {
          "duration": 0.15625,
          "durationTicks": 192,
          "midi": 33,
          "name": "A1",
          "ticks": 37056,
          "time": 30.15625,
          "velocity": 0.3937007874015748
        },
        {
          "duration": 0.15625,
          "durationTicks": 192,
          "midi": 45,
          "name": "A2",
          "ticks": 37056,
          "time": 30.15625,
          "velocity": 0.3937007874015748
        },
        {
          "duration": 0.15625,
          "durationTicks": 192,
          "midi": 33,
          "name": "A1",
          "ticks": 37248,
          "time": 30.3125,
          "velocity": 0.3937007874015748
        },
        {
          "duration": 0.15625,
          "durationTicks": 192,
          "midi": 45,
          "name": "A2",
          "ticks": 37248,
          "time": 30.3125,
          "velocity": 0.3937007874015748
        },
        {
          "duration": 0.15625,
          "durationTicks": 192,
          "midi": 45,
          "name": "A2",
          "ticks": 37440,
          "time": 30.46875,
          "velocity": 0.3937007874015748
        },
        {
          "duration": 0.15625,
          "durationTicks": 192,
          "midi": 33,
          "name": "A1",
          "ticks": 37440,
          "time": 30.46875,
          "velocity": 0.3937007874015748
        },
        {
          "duration": 0.15625,
          "durationTicks": 192,
          "midi": 49,
          "name": "C#3",
          "ticks": 37632,
          "time": 30.625,
          "velocity": 0.3937007874015748
        },
        {
          "duration": 0.15625,
          "durationTicks": 192,
          "midi": 37,
          "name": "C#2",
          "ticks": 37632,
          "time": 30.625,
          "velocity": 0.3937007874015748
        },
        {
          "duration": 0.15625,
          "durationTicks": 192,
          "midi": 37,
          "name": "C#2",
          "ticks": 37824,
          "time": 30.78125,
          "velocity": 0.3937007874015748
        },
        {
          "duration": 0.15625,
          "durationTicks": 192,
          "midi": 49,
          "name": "C#3",
          "ticks": 37824,
          "time": 30.78125,
          "velocity": 0.3937007874015748
        },
        {
          "duration": 0.15625,
          "durationTicks": 192,
          "midi": 49,
          "name": "C#3",
          "ticks": 38016,
          "time": 30.9375,
          "velocity": 0.3937007874015748
        },
        {
          "duration": 0.15625,
          "durationTicks": 192,
          "midi": 37,
          "name": "C#2",
          "ticks": 38016,
          "time": 30.9375,
          "velocity": 0.3937007874015748
        },
        {
          "duration": 0.15625,
          "durationTicks": 192,
          "midi": 37,
          "name": "C#2",
          "ticks": 38208,
          "time": 31.09375,
          "velocity": 0.3937007874015748
        },
        {
          "duration": 0.15625,
          "durationTicks": 192,
          "midi": 49,
          "name": "C#3",
          "ticks": 38208,
          "time": 31.09375,
          "velocity": 0.3937007874015748
        },
        {
          "duration": 0.15625,
          "durationTicks": 192,
          "midi": 38,
          "name": "D2",
          "ticks": 38400,
          "time": 31.25,
          "velocity": 0.3937007874015748
        },
        {
          "duration": 0.15625,
          "durationTicks": 192,
          "midi": 50,
          "name": "D3",
          "ticks": 38400,
          "time": 31.25,
          "velocity": 0.3937007874015748
        },
        {
          "duration": 0.15625,
          "durationTicks": 192,
          "midi": 38,
          "name": "D2",
          "ticks": 38592,
          "time": 31.40625,
          "velocity": 0.3937007874015748
        },
        {
          "duration": 0.15625,
          "durationTicks": 192,
          "midi": 50,
          "name": "D3",
          "ticks": 38592,
          "time": 31.40625,
          "velocity": 0.3937007874015748
        },
        {
          "duration": 0.15625,
          "durationTicks": 192,
          "midi": 38,
          "name": "D2",
          "ticks": 38784,
          "time": 31.5625,
          "velocity": 0.3937007874015748
        },
        {
          "duration": 0.15625,
          "durationTicks": 192,
          "midi": 50,
          "name": "D3",
          "ticks": 38784,
          "time": 31.5625,
          "velocity": 0.3937007874015748
        },
        {
          "duration": 0.15625,
          "durationTicks": 192,
          "midi": 50,
          "name": "D3",
          "ticks": 38976,
          "time": 31.71875,
          "velocity": 0.3937007874015748
        },
        {
          "duration": 0.15625,
          "durationTicks": 192,
          "midi": 38,
          "name": "D2",
          "ticks": 38976,
          "time": 31.71875,
          "velocity": 0.3937007874015748
        },
        {
          "duration": 0.15625,
          "durationTicks": 192,
          "midi": 36,
          "name": "C2",
          "ticks": 39168,
          "time": 31.875,
          "velocity": 0.3937007874015748
        },
        {
          "duration": 0.15625,
          "durationTicks": 192,
          "midi": 48,
          "name": "C3",
          "ticks": 39168,
          "time": 31.875,
          "velocity": 0.3937007874015748
        },
        {
          "duration": 0.15625,
          "durationTicks": 192,
          "midi": 48,
          "name": "C3",
          "ticks": 39360,
          "time": 32.03125,
          "velocity": 0.3937007874015748
        },
        {
          "duration": 0.15625,
          "durationTicks": 192,
          "midi": 36,
          "name": "C2",
          "ticks": 39360,
          "time": 32.03125,
          "velocity": 0.3937007874015748
        },
        {
          "duration": 0.15625,
          "durationTicks": 192,
          "midi": 36,
          "name": "C2",
          "ticks": 39552,
          "time": 32.1875,
          "velocity": 0.3937007874015748
        },
        {
          "duration": 0.15625,
          "durationTicks": 192,
          "midi": 48,
          "name": "C3",
          "ticks": 39552,
          "time": 32.1875,
          "velocity": 0.3937007874015748
        },
        {
          "duration": 0.15625,
          "durationTicks": 192,
          "midi": 36,
          "name": "C2",
          "ticks": 39744,
          "time": 32.34375,
          "velocity": 0.3937007874015748
        },
        {
          "duration": 0.15625,
          "durationTicks": 192,
          "midi": 48,
          "name": "C3",
          "ticks": 39744,
          "time": 32.34375,
          "velocity": 0.3937007874015748
        },
        {
          "duration": 0.15625,
          "durationTicks": 192,
          "midi": 35,
          "name": "B1",
          "ticks": 39936,
          "time": 32.5,
          "velocity": 0.3937007874015748
        },
        {
          "duration": 0.15625,
          "durationTicks": 192,
          "midi": 47,
          "name": "B2",
          "ticks": 39936,
          "time": 32.5,
          "velocity": 0.3937007874015748
        },
        {
          "duration": 0.15625,
          "durationTicks": 192,
          "midi": 35,
          "name": "B1",
          "ticks": 40128,
          "time": 32.65625,
          "velocity": 0.3937007874015748
        },
        {
          "duration": 0.15625,
          "durationTicks": 192,
          "midi": 47,
          "name": "B2",
          "ticks": 40128,
          "time": 32.65625,
          "velocity": 0.3937007874015748
        },
        {
          "duration": 0.15625,
          "durationTicks": 192,
          "midi": 35,
          "name": "B1",
          "ticks": 40320,
          "time": 32.8125,
          "velocity": 0.3937007874015748
        },
        {
          "duration": 0.15625,
          "durationTicks": 192,
          "midi": 47,
          "name": "B2",
          "ticks": 40320,
          "time": 32.8125,
          "velocity": 0.3937007874015748
        },
        {
          "duration": 0.15625,
          "durationTicks": 192,
          "midi": 35,
          "name": "B1",
          "ticks": 40512,
          "time": 32.96875,
          "velocity": 0.3937007874015748
        },
        {
          "duration": 0.15625,
          "durationTicks": 192,
          "midi": 47,
          "name": "B2",
          "ticks": 40512,
          "time": 32.96875,
          "velocity": 0.3937007874015748
        },
        {
          "duration": 0.15625,
          "durationTicks": 192,
          "midi": 51,
          "name": "D#3",
          "ticks": 40704,
          "time": 33.125,
          "velocity": 0.3937007874015748
        },
        {
          "duration": 0.15625,
          "durationTicks": 192,
          "midi": 39,
          "name": "D#2",
          "ticks": 40704,
          "time": 33.125,
          "velocity": 0.3937007874015748
        },
        {
          "duration": 0.15625,
          "durationTicks": 192,
          "midi": 51,
          "name": "D#3",
          "ticks": 40896,
          "time": 33.28125,
          "velocity": 0.3937007874015748
        },
        {
          "duration": 0.15625,
          "durationTicks": 192,
          "midi": 39,
          "name": "D#2",
          "ticks": 40896,
          "time": 33.28125,
          "velocity": 0.3937007874015748
        },
        {
          "duration": 0.15625,
          "durationTicks": 192,
          "midi": 39,
          "name": "D#2",
          "ticks": 41088,
          "time": 33.4375,
          "velocity": 0.3937007874015748
        },
        {
          "duration": 0.15625,
          "durationTicks": 192,
          "midi": 51,
          "name": "D#3",
          "ticks": 41088,
          "time": 33.4375,
          "velocity": 0.3937007874015748
        },
        {
          "duration": 0.15625,
          "durationTicks": 192,
          "midi": 51,
          "name": "D#3",
          "ticks": 41280,
          "time": 33.59375,
          "velocity": 0.3937007874015748
        },
        {
          "duration": 0.15625,
          "durationTicks": 192,
          "midi": 39,
          "name": "D#2",
          "ticks": 41280,
          "time": 33.59375,
          "velocity": 0.3937007874015748
        },
        {
          "duration": 0.15625,
          "durationTicks": 192,
          "midi": 40,
          "name": "E2",
          "ticks": 41472,
          "time": 33.75,
          "velocity": 0.3937007874015748
        },
        {
          "duration": 0.15625,
          "durationTicks": 192,
          "midi": 52,
          "name": "E3",
          "ticks": 41472,
          "time": 33.75,
          "velocity": 0.3937007874015748
        },
        {
          "duration": 0.15625,
          "durationTicks": 192,
          "midi": 40,
          "name": "E2",
          "ticks": 41664,
          "time": 33.90625,
          "velocity": 0.3937007874015748
        },
        {
          "duration": 0.15625,
          "durationTicks": 192,
          "midi": 52,
          "name": "E3",
          "ticks": 41664,
          "time": 33.90625,
          "velocity": 0.3937007874015748
        },
        {
          "duration": 0.15625,
          "durationTicks": 192,
          "midi": 40,
          "name": "E2",
          "ticks": 41856,
          "time": 34.0625,
          "velocity": 0.3937007874015748
        },
        {
          "duration": 0.15625,
          "durationTicks": 192,
          "midi": 52,
          "name": "E3",
          "ticks": 41856,
          "time": 34.0625,
          "velocity": 0.3937007874015748
        },
        {
          "duration": 0.15625,
          "durationTicks": 192,
          "midi": 52,
          "name": "E3",
          "ticks": 42048,
          "time": 34.21875,
          "velocity": 0.3937007874015748
        },
        {
          "duration": 0.15625,
          "durationTicks": 192,
          "midi": 40,
          "name": "E2",
          "ticks": 42048,
          "time": 34.21875,
          "velocity": 0.3937007874015748
        },
        {
          "duration": 0.15625,
          "durationTicks": 192,
          "midi": 40,
          "name": "E2",
          "ticks": 42240,
          "time": 34.375,
          "velocity": 0.3937007874015748
        },
        {
          "duration": 0.15625,
          "durationTicks": 192,
          "midi": 52,
          "name": "E3",
          "ticks": 42240,
          "time": 34.375,
          "velocity": 0.3937007874015748
        },
        {
          "duration": 0.15625,
          "durationTicks": 192,
          "midi": 40,
          "name": "E2",
          "ticks": 42432,
          "time": 34.53125,
          "velocity": 0.3937007874015748
        },
        {
          "duration": 0.15625,
          "durationTicks": 192,
          "midi": 52,
          "name": "E3",
          "ticks": 42432,
          "time": 34.53125,
          "velocity": 0.3937007874015748
        },
        {
          "duration": 0.15625,
          "durationTicks": 192,
          "midi": 52,
          "name": "E3",
          "ticks": 42624,
          "time": 34.6875,
          "velocity": 0.3937007874015748
        },
        {
          "duration": 0.15625,
          "durationTicks": 192,
          "midi": 40,
          "name": "E2",
          "ticks": 42624,
          "time": 34.6875,
          "velocity": 0.3937007874015748
        },
        {
          "duration": 0.15625,
          "durationTicks": 192,
          "midi": 52,
          "name": "E3",
          "ticks": 42816,
          "time": 34.84375,
          "velocity": 0.3937007874015748
        },
        {
          "duration": 0.15625,
          "durationTicks": 192,
          "midi": 40,
          "name": "E2",
          "ticks": 42816,
          "time": 34.84375,
          "velocity": 0.3937007874015748
        },
        {
          "duration": 0.15625,
          "durationTicks": 192,
          "midi": 57,
          "name": "A3",
          "ticks": 55296,
          "time": 45,
          "velocity": 0.3937007874015748
        },
        {
          "duration": 0.15625,
          "durationTicks": 192,
          "midi": 60,
          "name": "C4",
          "ticks": 55296,
          "time": 45,
          "velocity": 0.3937007874015748
        },
        {
          "duration": 0.15625,
          "durationTicks": 192,
          "midi": 64,
          "name": "E4",
          "ticks": 55296,
          "time": 45,
          "velocity": 0.3937007874015748
        },
        {
          "duration": 0.15625,
          "durationTicks": 192,
          "midi": 62,
          "name": "D4",
          "ticks": 56832,
          "time": 46.25,
          "velocity": 0.3937007874015748
        },
        {
          "duration": 0.15625,
          "durationTicks": 192,
          "midi": 65,
          "name": "F4",
          "ticks": 56832,
          "time": 46.25,
          "velocity": 0.3937007874015748
        },
        {
          "duration": 0.15625,
          "durationTicks": 192,
          "midi": 57,
          "name": "A3",
          "ticks": 56832,
          "time": 46.25,
          "velocity": 0.3937007874015748
        },
        {
          "duration": 0.15625,
          "durationTicks": 192,
          "midi": 55,
          "name": "G3",
          "ticks": 58368,
          "time": 47.5,
          "velocity": 0.3937007874015748
        },
        {
          "duration": 0.15625,
          "durationTicks": 192,
          "midi": 59,
          "name": "B3",
          "ticks": 58368,
          "time": 47.5,
          "velocity": 0.3937007874015748
        },
        {
          "duration": 0.15625,
          "durationTicks": 192,
          "midi": 62,
          "name": "D4",
          "ticks": 58368,
          "time": 47.5,
          "velocity": 0.3937007874015748
        },
        {
          "duration": 0.15625,
          "durationTicks": 192,
          "midi": 60,
          "name": "C4",
          "ticks": 59904,
          "time": 48.75,
          "velocity": 0.3937007874015748
        },
        {
          "duration": 0.15625,
          "durationTicks": 192,
          "midi": 52,
          "name": "E3",
          "ticks": 59904,
          "time": 48.75,
          "velocity": 0.3937007874015748
        },
        {
          "duration": 0.15625,
          "durationTicks": 192,
          "midi": 55,
          "name": "G3",
          "ticks": 59904,
          "time": 48.75,
          "velocity": 0.3937007874015748
        },
        {
          "duration": 0.15625,
          "durationTicks": 192,
          "midi": 53,
          "name": "F3",
          "ticks": 61440,
          "time": 50,
          "velocity": 0.3937007874015748
        },
        {
          "duration": 0.15625,
          "durationTicks": 192,
          "midi": 57,
          "name": "A3",
          "ticks": 61440,
          "time": 50,
          "velocity": 0.3937007874015748
        },
        {
          "duration": 0.15625,
          "durationTicks": 192,
          "midi": 60,
          "name": "C4",
          "ticks": 61440,
          "time": 50,
          "velocity": 0.3937007874015748
        },
        {
          "duration": 0.15625,
          "durationTicks": 192,
          "midi": 62,
          "name": "D4",
          "ticks": 62976,
          "time": 51.25,
          "velocity": 0.3937007874015748
        },
        {
          "duration": 0.15625,
          "durationTicks": 192,
          "midi": 57,
          "name": "A3",
          "ticks": 62976,
          "time": 51.25,
          "velocity": 0.3937007874015748
        },
        {
          "duration": 0.15625,
          "durationTicks": 192,
          "midi": 53,
          "name": "F3",
          "ticks": 62976,
          "time": 51.25,
          "velocity": 0.3937007874015748
        },
        {
          "duration": 0.15625,
          "durationTicks": 192,
          "midi": 56,
          "name": "G#3",
          "ticks": 64512,
          "time": 52.5,
          "velocity": 0.3937007874015748
        },
        {
          "duration": 0.15625,
          "durationTicks": 192,
          "midi": 59,
          "name": "B3",
          "ticks": 64512,
          "time": 52.5,
          "velocity": 0.3937007874015748
        },
        {
          "duration": 0.15625,
          "durationTicks": 192,
          "midi": 64,
          "name": "E4",
          "ticks": 64512,
          "time": 52.5,
          "velocity": 0.3937007874015748
        },
        {
          "duration": 0.15625,
          "durationTicks": 192,
          "midi": 52,
          "name": "E3",
          "ticks": 66048,
          "time": 53.75,
          "velocity": 0.3937007874015748
        },
        {
          "duration": 0.15625,
          "durationTicks": 192,
          "midi": 57,
          "name": "A3",
          "ticks": 66048,
          "time": 53.75,
          "velocity": 0.3937007874015748
        },
        {
          "duration": 0.15625,
          "durationTicks": 192,
          "midi": 60,
          "name": "C4",
          "ticks": 66048,
          "time": 53.75,
          "velocity": 0.3937007874015748
        },
        {
          "duration": 0.078125,
          "durationTicks": 96,
          "midi": 60,
          "name": "C4",
          "ticks": 66432,
          "time": 54.0625,
          "velocity": 0.3937007874015748
        },
        {
          "duration": 0.078125,
          "durationTicks": 96,
          "midi": 57,
          "name": "A3",
          "ticks": 66432,
          "time": 54.0625,
          "velocity": 0.3937007874015748
        },
        {
          "duration": 0.078125,
          "durationTicks": 96,
          "midi": 52,
          "name": "E3",
          "ticks": 66432,
          "time": 54.0625,
          "velocity": 0.3937007874015748
        },
        {
          "duration": 0.078125,
          "durationTicks": 96,
          "midi": 52,
          "name": "E3",
          "ticks": 66624,
          "time": 54.21875,
          "velocity": 0.3937007874015748
        },
        {
          "duration": 0.078125,
          "durationTicks": 96,
          "midi": 57,
          "name": "A3",
          "ticks": 66624,
          "time": 54.21875,
          "velocity": 0.3937007874015748
        },
        {
          "duration": 0.078125,
          "durationTicks": 96,
          "midi": 60,
          "name": "C4",
          "ticks": 66624,
          "time": 54.21875,
          "velocity": 0.3937007874015748
        },
        {
          "duration": 0.15625,
          "durationTicks": 192,
          "midi": 60,
          "name": "C4",
          "ticks": 66816,
          "time": 54.375,
          "velocity": 0.3937007874015748
        },
        {
          "duration": 0.15625,
          "durationTicks": 192,
          "midi": 57,
          "name": "A3",
          "ticks": 66816,
          "time": 54.375,
          "velocity": 0.3937007874015748
        },
        {
          "duration": 0.15625,
          "durationTicks": 192,
          "midi": 52,
          "name": "E3",
          "ticks": 66816,
          "time": 54.375,
          "velocity": 0.3937007874015748
        },
        {
          "duration": 0.234375,
          "durationTicks": 288,
          "midi": 65,
          "name": "F4",
          "ticks": 67584,
          "time": 55,
          "velocity": 0.3937007874015748
        },
        {
          "duration": 0.234375,
          "durationTicks": 288,
          "midi": 62,
          "name": "D4",
          "ticks": 67584,
          "time": 55,
          "velocity": 0.3937007874015748
        },
        {
          "duration": 0.234375,
          "durationTicks": 288,
          "midi": 62,
          "name": "D4",
          "ticks": 67968,
          "time": 55.3125,
          "velocity": 0.3937007874015748
        },
        {
          "duration": 0.234375,
          "durationTicks": 288,
          "midi": 65,
          "name": "F4",
          "ticks": 67968,
          "time": 55.3125,
          "velocity": 0.3937007874015748
        },
        {
          "duration": 0.234375,
          "durationTicks": 288,
          "midi": 65,
          "name": "F4",
          "ticks": 68352,
          "time": 55.625,
          "velocity": 0.3937007874015748
        },
        {
          "duration": 0.234375,
          "durationTicks": 288,
          "midi": 55,
          "name": "G3",
          "ticks": 68352,
          "time": 55.625,
          "velocity": 0.3937007874015748
        },
        {
          "duration": 0.234375,
          "durationTicks": 288,
          "midi": 65,
          "name": "F4",
          "ticks": 68736,
          "time": 55.9375,
          "velocity": 0.3937007874015748
        },
        {
          "duration": 0.234375,
          "durationTicks": 288,
          "midi": 55,
          "name": "G3",
          "ticks": 68736,
          "time": 55.9375,
          "velocity": 0.3937007874015748
        },
        {
          "duration": 0.625,
          "durationTicks": 768,
          "midi": 48,
          "name": "C3",
          "ticks": 69120,
          "time": 56.25,
          "velocity": 0.3937007874015748
        },
        {
          "duration": 0.625,
          "durationTicks": 768,
          "midi": 63,
          "name": "D#4",
          "ticks": 69120,
          "time": 56.25,
          "velocity": 0.3937007874015748
        },
        {
          "duration": 0.625,
          "durationTicks": 768,
          "midi": 60,
          "name": "C4",
          "ticks": 69120,
          "time": 56.25,
          "velocity": 0.3937007874015748
        },
        {
          "duration": 0.625,
          "durationTicks": 768,
          "midi": 67,
          "name": "G4",
          "ticks": 69120,
          "time": 56.25,
          "velocity": 0.3937007874015748
        },
        {
          "duration": 0.625,
          "durationTicks": 768,
          "midi": 67,
          "name": "G4",
          "ticks": 69888,
          "time": 56.875,
          "velocity": 0.3937007874015748
        },
        {
          "duration": 0.625,
          "durationTicks": 768,
          "midi": 59,
          "name": "B3",
          "ticks": 69888,
          "time": 56.875,
          "velocity": 0.3937007874015748
        },
        {
          "duration": 0.625,
          "durationTicks": 768,
          "midi": 47,
          "name": "B2",
          "ticks": 69888,
          "time": 56.875,
          "velocity": 0.3937007874015748
        },
        {
          "duration": 0.625,
          "durationTicks": 768,
          "midi": 62,
          "name": "D4",
          "ticks": 69888,
          "time": 56.875,
          "velocity": 0.3937007874015748
        },
        {
          "duration": 1.25,
          "durationTicks": 1536,
          "midi": 67,
          "name": "G4",
          "ticks": 70656,
          "time": 57.5,
          "velocity": 0.3937007874015748
        },
        {
          "duration": 1.25,
          "durationTicks": 1536,
          "midi": 48,
          "name": "C3",
          "ticks": 70656,
          "time": 57.5,
          "velocity": 0.3937007874015748
        },
        {
          "duration": 1.25,
          "durationTicks": 1536,
          "midi": 63,
          "name": "D#4",
          "ticks": 70656,
          "time": 57.5,
          "velocity": 0.3937007874015748
        },
        {
          "duration": 1.25,
          "durationTicks": 1536,
          "midi": 60,
          "name": "C4",
          "ticks": 70656,
          "time": 57.5,
          "velocity": 0.3937007874015748
        },
        {
          "duration": 0.625,
          "durationTicks": 768,
          "midi": 67,
          "name": "G4",
          "ticks": 72192,
          "time": 58.75,
          "velocity": 0.3937007874015748
        },
        {
          "duration": 0.625,
          "durationTicks": 768,
          "midi": 48,
          "name": "C3",
          "ticks": 72192,
          "time": 58.75,
          "velocity": 0.3937007874015748
        },
        {
          "duration": 0.625,
          "durationTicks": 768,
          "midi": 63,
          "name": "D#4",
          "ticks": 72192,
          "time": 58.75,
          "velocity": 0.3937007874015748
        },
        {
          "duration": 0.625,
          "durationTicks": 768,
          "midi": 60,
          "name": "C4",
          "ticks": 72192,
          "time": 58.75,
          "velocity": 0.3937007874015748
        },
        {
          "duration": 0.625,
          "durationTicks": 768,
          "midi": 62,
          "name": "D4",
          "ticks": 72960,
          "time": 59.375,
          "velocity": 0.3937007874015748
        },
        {
          "duration": 0.625,
          "durationTicks": 768,
          "midi": 65,
          "name": "F4",
          "ticks": 72960,
          "time": 59.375,
          "velocity": 0.3937007874015748
        },
        {
          "duration": 0.625,
          "durationTicks": 768,
          "midi": 50,
          "name": "D3",
          "ticks": 72960,
          "time": 59.375,
          "velocity": 0.3937007874015748
        },
        {
          "duration": 0.625,
          "durationTicks": 768,
          "midi": 58,
          "name": "A#3",
          "ticks": 72960,
          "time": 59.375,
          "velocity": 0.3937007874015748
        },
        {
          "duration": 1.25,
          "durationTicks": 1536,
          "midi": 51,
          "name": "D#3",
          "ticks": 73728,
          "time": 60,
          "velocity": 0.3937007874015748
        },
        {
          "duration": 1.171875,
          "durationTicks": 1440,
          "midi": 70,
          "name": "A#4",
          "ticks": 73728,
          "time": 60,
          "velocity": 0.3937007874015748
        },
        {
          "duration": 1.171875,
          "durationTicks": 1440,
          "midi": 63,
          "name": "D#4",
          "ticks": 73728,
          "time": 60,
          "velocity": 0.3937007874015748
        },
        {
          "duration": 1.171875,
          "durationTicks": 1440,
          "midi": 67,
          "name": "G4",
          "ticks": 73728,
          "time": 60,
          "velocity": 0.3937007874015748
        },
        {
          "duration": 0.625,
          "durationTicks": 768,
          "midi": 60,
          "name": "C4",
          "ticks": 75264,
          "time": 61.25,
          "velocity": 0.3937007874015748
        },
        {
          "duration": 0.625,
          "durationTicks": 768,
          "midi": 65,
          "name": "F4",
          "ticks": 75264,
          "time": 61.25,
          "velocity": 0.3937007874015748
        },
        {
          "duration": 0.625,
          "durationTicks": 768,
          "midi": 53,
          "name": "F3",
          "ticks": 75264,
          "time": 61.25,
          "velocity": 0.3937007874015748
        },
        {
          "duration": 0.625,
          "durationTicks": 768,
          "midi": 68,
          "name": "G#4",
          "ticks": 75264,
          "time": 61.25,
          "velocity": 0.3937007874015748
        },
        {
          "duration": 0.625,
          "durationTicks": 768,
          "midi": 43,
          "name": "G2",
          "ticks": 76032,
          "time": 61.875,
          "velocity": 0.3937007874015748
        },
        {
          "duration": 0.625,
          "durationTicks": 768,
          "midi": 62,
          "name": "D4",
          "ticks": 76032,
          "time": 61.875,
          "velocity": 0.3937007874015748
        },
        {
          "duration": 0.625,
          "durationTicks": 768,
          "midi": 59,
          "name": "B3",
          "ticks": 76032,
          "time": 61.875,
          "velocity": 0.3937007874015748
        },
        {
          "duration": 0.625,
          "durationTicks": 768,
          "midi": 67,
          "name": "G4",
          "ticks": 76032,
          "time": 61.875,
          "velocity": 0.3937007874015748
        },
        {
          "duration": 0.625,
          "durationTicks": 768,
          "midi": 63,
          "name": "D#4",
          "ticks": 76800,
          "time": 62.5,
          "velocity": 0.3937007874015748
        },
        {
          "duration": 0.625,
          "durationTicks": 768,
          "midi": 67,
          "name": "G4",
          "ticks": 76800,
          "time": 62.5,
          "velocity": 0.3937007874015748
        },
        {
          "duration": 0.625,
          "durationTicks": 768,
          "midi": 60,
          "name": "C4",
          "ticks": 76800,
          "time": 62.5,
          "velocity": 0.3937007874015748
        },
        {
          "duration": 0.625,
          "durationTicks": 768,
          "midi": 48,
          "name": "C3",
          "ticks": 76800,
          "time": 62.5,
          "velocity": 0.3937007874015748
        },
        {
          "duration": 0.625,
          "durationTicks": 768,
          "midi": 69,
          "name": "A4",
          "ticks": 77568,
          "time": 63.125,
          "velocity": 0.3937007874015748
        },
        {
          "duration": 0.625,
          "durationTicks": 768,
          "midi": 65,
          "name": "F4",
          "ticks": 77568,
          "time": 63.125,
          "velocity": 0.3937007874015748
        },
        {
          "duration": 0.625,
          "durationTicks": 768,
          "midi": 45,
          "name": "A2",
          "ticks": 77568,
          "time": 63.125,
          "velocity": 0.3937007874015748
        },
        {
          "duration": 0.625,
          "durationTicks": 768,
          "midi": 60,
          "name": "C4",
          "ticks": 77568,
          "time": 63.125,
          "velocity": 0.3937007874015748
        },
        {
          "duration": 0.625,
          "durationTicks": 768,
          "midi": 57,
          "name": "A3",
          "ticks": 78336,
          "time": 63.75,
          "velocity": 0.3937007874015748
        },
        {
          "duration": 0.625,
          "durationTicks": 768,
          "midi": 63,
          "name": "D#4",
          "ticks": 78336,
          "time": 63.75,
          "velocity": 0.3937007874015748
        },
        {
          "duration": 0.625,
          "durationTicks": 768,
          "midi": 66,
          "name": "F#4",
          "ticks": 78336,
          "time": 63.75,
          "velocity": 0.3937007874015748
        },
        {
          "duration": 0.625,
          "durationTicks": 768,
          "midi": 54,
          "name": "F#3",
          "ticks": 78336,
          "time": 63.75,
          "velocity": 0.3937007874015748
        },
        {
          "duration": 0.625,
          "durationTicks": 768,
          "midi": 59,
          "name": "B3",
          "ticks": 79104,
          "time": 64.375,
          "velocity": 0.3937007874015748
        },
        {
          "duration": 0.625,
          "durationTicks": 768,
          "midi": 55,
          "name": "G3",
          "ticks": 79104,
          "time": 64.375,
          "velocity": 0.3937007874015748
        },
        {
          "duration": 0.625,
          "durationTicks": 768,
          "midi": 67,
          "name": "G4",
          "ticks": 79104,
          "time": 64.375,
          "velocity": 0.3937007874015748
        },
        {
          "duration": 0.625,
          "durationTicks": 768,
          "midi": 62,
          "name": "D4",
          "ticks": 79104,
          "time": 64.375,
          "velocity": 0.3937007874015748
        },
        {
          "duration": 1.25,
          "durationTicks": 1536,
          "midi": 48,
          "name": "C3",
          "ticks": 79872,
          "time": 65,
          "velocity": 0.3937007874015748
        },
        {
          "duration": 1.25,
          "durationTicks": 1536,
          "midi": 63,
          "name": "D#4",
          "ticks": 79872,
          "time": 65,
          "velocity": 0.3937007874015748
        },
        {
          "duration": 1.25,
          "durationTicks": 1536,
          "midi": 60,
          "name": "C4",
          "ticks": 79872,
          "time": 65,
          "velocity": 0.3937007874015748
        },
        {
          "duration": 1.25,
          "durationTicks": 1536,
          "midi": 55,
          "name": "G3",
          "ticks": 79872,
          "time": 65,
          "velocity": 0.3937007874015748
        },
        {
          "duration": 0.625,
          "durationTicks": 768,
          "midi": 67,
          "name": "G4",
          "ticks": 81408,
          "time": 66.25,
          "velocity": 0.3937007874015748
        },
        {
          "duration": 0.625,
          "durationTicks": 768,
          "midi": 63,
          "name": "D#4",
          "ticks": 81408,
          "time": 66.25,
          "velocity": 0.3937007874015748
        },
        {
          "duration": 0.625,
          "durationTicks": 768,
          "midi": 48,
          "name": "C3",
          "ticks": 81408,
          "time": 66.25,
          "velocity": 0.3937007874015748
        },
        {
          "duration": 0.625,
          "durationTicks": 768,
          "midi": 60,
          "name": "C4",
          "ticks": 81408,
          "time": 66.25,
          "velocity": 0.3937007874015748
        },
        {
          "duration": 0.625,
          "durationTicks": 768,
          "midi": 47,
          "name": "B2",
          "ticks": 82176,
          "time": 66.875,
          "velocity": 0.3937007874015748
        },
        {
          "duration": 0.625,
          "durationTicks": 768,
          "midi": 62,
          "name": "D4",
          "ticks": 82176,
          "time": 66.875,
          "velocity": 0.3937007874015748
        },
        {
          "duration": 0.625,
          "durationTicks": 768,
          "midi": 67,
          "name": "G4",
          "ticks": 82176,
          "time": 66.875,
          "velocity": 0.3937007874015748
        },
        {
          "duration": 0.625,
          "durationTicks": 768,
          "midi": 59,
          "name": "B3",
          "ticks": 82176,
          "time": 66.875,
          "velocity": 0.3937007874015748
        },
        {
          "duration": 1.25,
          "durationTicks": 1536,
          "midi": 48,
          "name": "C3",
          "ticks": 82944,
          "time": 67.5,
          "velocity": 0.3937007874015748
        },
        {
          "duration": 1.25,
          "durationTicks": 1536,
          "midi": 67,
          "name": "G4",
          "ticks": 82944,
          "time": 67.5,
          "velocity": 0.3937007874015748
        },
        {
          "duration": 1.25,
          "durationTicks": 1536,
          "midi": 63,
          "name": "D#4",
          "ticks": 82944,
          "time": 67.5,
          "velocity": 0.3937007874015748
        },
        {
          "duration": 1.25,
          "durationTicks": 1536,
          "midi": 60,
          "name": "C4",
          "ticks": 82944,
          "time": 67.5,
          "velocity": 0.3937007874015748
        },
        {
          "duration": 0.625,
          "durationTicks": 768,
          "midi": 60,
          "name": "C4",
          "ticks": 84480,
          "time": 68.75,
          "velocity": 0.3937007874015748
        },
        {
          "duration": 0.625,
          "durationTicks": 768,
          "midi": 67,
          "name": "G4",
          "ticks": 84480,
          "time": 68.75,
          "velocity": 0.3937007874015748
        },
        {
          "duration": 0.625,
          "durationTicks": 768,
          "midi": 63,
          "name": "D#4",
          "ticks": 84480,
          "time": 68.75,
          "velocity": 0.3937007874015748
        },
        {
          "duration": 0.625,
          "durationTicks": 768,
          "midi": 48,
          "name": "C3",
          "ticks": 84480,
          "time": 68.75,
          "velocity": 0.3937007874015748
        },
        {
          "duration": 0.625,
          "durationTicks": 768,
          "midi": 58,
          "name": "A#3",
          "ticks": 85248,
          "time": 69.375,
          "velocity": 0.3937007874015748
        },
        {
          "duration": 0.625,
          "durationTicks": 768,
          "midi": 62,
          "name": "D4",
          "ticks": 85248,
          "time": 69.375,
          "velocity": 0.3937007874015748
        },
        {
          "duration": 0.625,
          "durationTicks": 768,
          "midi": 65,
          "name": "F4",
          "ticks": 85248,
          "time": 69.375,
          "velocity": 0.3937007874015748
        },
        {
          "duration": 0.625,
          "durationTicks": 768,
          "midi": 50,
          "name": "D3",
          "ticks": 85248,
          "time": 69.375,
          "velocity": 0.3937007874015748
        },
        {
          "duration": 1.25,
          "durationTicks": 1536,
          "midi": 51,
          "name": "D#3",
          "ticks": 86016,
          "time": 70,
          "velocity": 0.3937007874015748
        },
        {
          "duration": 1.171875,
          "durationTicks": 1440,
          "midi": 70,
          "name": "A#4",
          "ticks": 86016,
          "time": 70,
          "velocity": 0.3937007874015748
        },
        {
          "duration": 1.171875,
          "durationTicks": 1440,
          "midi": 63,
          "name": "D#4",
          "ticks": 86016,
          "time": 70,
          "velocity": 0.3937007874015748
        },
        {
          "duration": 1.171875,
          "durationTicks": 1440,
          "midi": 67,
          "name": "G4",
          "ticks": 86016,
          "time": 70,
          "velocity": 0.3937007874015748
        },
        {
          "duration": 0.625,
          "durationTicks": 768,
          "midi": 65,
          "name": "F4",
          "ticks": 87552,
          "time": 71.25,
          "velocity": 0.3937007874015748
        },
        {
          "duration": 0.625,
          "durationTicks": 768,
          "midi": 53,
          "name": "F3",
          "ticks": 87552,
          "time": 71.25,
          "velocity": 0.3937007874015748
        },
        {
          "duration": 0.625,
          "durationTicks": 768,
          "midi": 60,
          "name": "C4",
          "ticks": 87552,
          "time": 71.25,
          "velocity": 0.3937007874015748
        },
        {
          "duration": 0.625,
          "durationTicks": 768,
          "midi": 68,
          "name": "G#4",
          "ticks": 87552,
          "time": 71.25,
          "velocity": 0.3937007874015748
        },
        {
          "duration": 0.625,
          "durationTicks": 768,
          "midi": 43,
          "name": "G2",
          "ticks": 88320,
          "time": 71.875,
          "velocity": 0.3937007874015748
        },
        {
          "duration": 0.625,
          "durationTicks": 768,
          "midi": 67,
          "name": "G4",
          "ticks": 88320,
          "time": 71.875,
          "velocity": 0.3937007874015748
        },
        {
          "duration": 0.625,
          "durationTicks": 768,
          "midi": 62,
          "name": "D4",
          "ticks": 88320,
          "time": 71.875,
          "velocity": 0.3937007874015748
        },
        {
          "duration": 0.625,
          "durationTicks": 768,
          "midi": 59,
          "name": "B3",
          "ticks": 88320,
          "time": 71.875,
          "velocity": 0.3937007874015748
        },
        {
          "duration": 0.625,
          "durationTicks": 768,
          "midi": 48,
          "name": "C3",
          "ticks": 89088,
          "time": 72.5,
          "velocity": 0.3937007874015748
        },
        {
          "duration": 0.625,
          "durationTicks": 768,
          "midi": 60,
          "name": "C4",
          "ticks": 89088,
          "time": 72.5,
          "velocity": 0.3937007874015748
        },
        {
          "duration": 0.625,
          "durationTicks": 768,
          "midi": 67,
          "name": "G4",
          "ticks": 89088,
          "time": 72.5,
          "velocity": 0.3937007874015748
        },
        {
          "duration": 0.625,
          "durationTicks": 768,
          "midi": 63,
          "name": "D#4",
          "ticks": 89088,
          "time": 72.5,
          "velocity": 0.3937007874015748
        },
        {
          "duration": 0.625,
          "durationTicks": 768,
          "midi": 45,
          "name": "A2",
          "ticks": 89856,
          "time": 73.125,
          "velocity": 0.3937007874015748
        },
        {
          "duration": 0.625,
          "durationTicks": 768,
          "midi": 69,
          "name": "A4",
          "ticks": 89856,
          "time": 73.125,
          "velocity": 0.3937007874015748
        },
        {
          "duration": 0.625,
          "durationTicks": 768,
          "midi": 65,
          "name": "F4",
          "ticks": 89856,
          "time": 73.125,
          "velocity": 0.3937007874015748
        },
        {
          "duration": 0.625,
          "durationTicks": 768,
          "midi": 60,
          "name": "C4",
          "ticks": 89856,
          "time": 73.125,
          "velocity": 0.3937007874015748
        },
        {
          "duration": 0.625,
          "durationTicks": 768,
          "midi": 63,
          "name": "D#4",
          "ticks": 90624,
          "time": 73.75,
          "velocity": 0.3937007874015748
        },
        {
          "duration": 0.625,
          "durationTicks": 768,
          "midi": 66,
          "name": "F#4",
          "ticks": 90624,
          "time": 73.75,
          "velocity": 0.3937007874015748
        },
        {
          "duration": 0.625,
          "durationTicks": 768,
          "midi": 57,
          "name": "A3",
          "ticks": 90624,
          "time": 73.75,
          "velocity": 0.3937007874015748
        },
        {
          "duration": 0.625,
          "durationTicks": 768,
          "midi": 54,
          "name": "F#3",
          "ticks": 90624,
          "time": 73.75,
          "velocity": 0.3937007874015748
        },
        {
          "duration": 0.625,
          "durationTicks": 768,
          "midi": 67,
          "name": "G4",
          "ticks": 91392,
          "time": 74.375,
          "velocity": 0.3937007874015748
        },
        {
          "duration": 0.625,
          "durationTicks": 768,
          "midi": 62,
          "name": "D4",
          "ticks": 91392,
          "time": 74.375,
          "velocity": 0.3937007874015748
        },
        {
          "duration": 0.625,
          "durationTicks": 768,
          "midi": 59,
          "name": "B3",
          "ticks": 91392,
          "time": 74.375,
          "velocity": 0.3937007874015748
        },
        {
          "duration": 0.625,
          "durationTicks": 768,
          "midi": 55,
          "name": "G3",
          "ticks": 91392,
          "time": 74.375,
          "velocity": 0.3937007874015748
        },
        {
          "duration": 1.25,
          "durationTicks": 1536,
          "midi": 55,
          "name": "G3",
          "ticks": 92160,
          "time": 75,
          "velocity": 0.3937007874015748
        },
        {
          "duration": 1.25,
          "durationTicks": 1536,
          "midi": 60,
          "name": "C4",
          "ticks": 92160,
          "time": 75,
          "velocity": 0.3937007874015748
        },
        {
          "duration": 1.25,
          "durationTicks": 1536,
          "midi": 63,
          "name": "D#4",
          "ticks": 92160,
          "time": 75,
          "velocity": 0.3937007874015748
        },
        {
          "duration": 1.25,
          "durationTicks": 1536,
          "midi": 48,
          "name": "C3",
          "ticks": 92160,
          "time": 75,
          "velocity": 0.3937007874015748
        },
        {
          "duration": 0.625,
          "durationTicks": 768,
          "midi": 53,
          "name": "F3",
          "ticks": 93696,
          "time": 76.25,
          "velocity": 0.3937007874015748
        },
        {
          "duration": 0.625,
          "durationTicks": 768,
          "midi": 68,
          "name": "G#4",
          "ticks": 93696,
          "time": 76.25,
          "velocity": 0.3937007874015748
        },
        {
          "duration": 0.625,
          "durationTicks": 768,
          "midi": 60,
          "name": "C4",
          "ticks": 93696,
          "time": 76.25,
          "velocity": 0.3937007874015748
        },
        {
          "duration": 0.625,
          "durationTicks": 768,
          "midi": 65,
          "name": "F4",
          "ticks": 93696,
          "time": 76.25,
          "velocity": 0.3937007874015748
        },
        {
          "duration": 0.625,
          "durationTicks": 768,
          "midi": 59,
          "name": "B3",
          "ticks": 94464,
          "time": 76.875,
          "velocity": 0.3937007874015748
        },
        {
          "duration": 0.625,
          "durationTicks": 768,
          "midi": 43,
          "name": "G2",
          "ticks": 94464,
          "time": 76.875,
          "velocity": 0.3937007874015748
        },
        {
          "duration": 0.625,
          "durationTicks": 768,
          "midi": 62,
          "name": "D4",
          "ticks": 94464,
          "time": 76.875,
          "velocity": 0.3937007874015748
        },
        {
          "duration": 0.625,
          "durationTicks": 768,
          "midi": 67,
          "name": "G4",
          "ticks": 94464,
          "time": 76.875,
          "velocity": 0.3937007874015748
        },
        {
          "duration": 0.625,
          "durationTicks": 768,
          "midi": 60,
          "name": "C4",
          "ticks": 95232,
          "time": 77.5,
          "velocity": 0.3937007874015748
        },
        {
          "duration": 0.625,
          "durationTicks": 768,
          "midi": 63,
          "name": "D#4",
          "ticks": 95232,
          "time": 77.5,
          "velocity": 0.3937007874015748
        },
        {
          "duration": 0.625,
          "durationTicks": 768,
          "midi": 48,
          "name": "C3",
          "ticks": 95232,
          "time": 77.5,
          "velocity": 0.3937007874015748
        },
        {
          "duration": 0.625,
          "durationTicks": 768,
          "midi": 67,
          "name": "G4",
          "ticks": 95232,
          "time": 77.5,
          "velocity": 0.3937007874015748
        },
        {
          "duration": 0.625,
          "durationTicks": 768,
          "midi": 60,
          "name": "C4",
          "ticks": 96000,
          "time": 78.125,
          "velocity": 0.3937007874015748
        },
        {
          "duration": 0.625,
          "durationTicks": 768,
          "midi": 69,
          "name": "A4",
          "ticks": 96000,
          "time": 78.125,
          "velocity": 0.3937007874015748
        },
        {
          "duration": 0.625,
          "durationTicks": 768,
          "midi": 65,
          "name": "F4",
          "ticks": 96000,
          "time": 78.125,
          "velocity": 0.3937007874015748
        },
        {
          "duration": 0.625,
          "durationTicks": 768,
          "midi": 45,
          "name": "A2",
          "ticks": 96000,
          "time": 78.125,
          "velocity": 0.3937007874015748
        },
        {
          "duration": 0.625,
          "durationTicks": 768,
          "midi": 57,
          "name": "A3",
          "ticks": 96768,
          "time": 78.75,
          "velocity": 0.3937007874015748
        },
        {
          "duration": 0.625,
          "durationTicks": 768,
          "midi": 63,
          "name": "D#4",
          "ticks": 96768,
          "time": 78.75,
          "velocity": 0.3937007874015748
        },
        {
          "duration": 0.625,
          "durationTicks": 768,
          "midi": 66,
          "name": "F#4",
          "ticks": 96768,
          "time": 78.75,
          "velocity": 0.3937007874015748
        },
        {
          "duration": 0.625,
          "durationTicks": 768,
          "midi": 54,
          "name": "F#3",
          "ticks": 96768,
          "time": 78.75,
          "velocity": 0.3937007874015748
        },
        {
          "duration": 0.625,
          "durationTicks": 768,
          "midi": 55,
          "name": "G3",
          "ticks": 97536,
          "time": 79.375,
          "velocity": 0.3937007874015748
        },
        {
          "duration": 0.625,
          "durationTicks": 768,
          "midi": 59,
          "name": "B3",
          "ticks": 97536,
          "time": 79.375,
          "velocity": 0.3937007874015748
        },
        {
          "duration": 0.625,
          "durationTicks": 768,
          "midi": 62,
          "name": "D4",
          "ticks": 97536,
          "time": 79.375,
          "velocity": 0.3937007874015748
        },
        {
          "duration": 0.625,
          "durationTicks": 768,
          "midi": 67,
          "name": "G4",
          "ticks": 97536,
          "time": 79.375,
          "velocity": 0.3937007874015748
        },
        {
          "duration": 1.25,
          "durationTicks": 1536,
          "midi": 63,
          "name": "D#4",
          "ticks": 98304,
          "time": 80,
          "velocity": 0.3937007874015748
        },
        {
          "duration": 1.25,
          "durationTicks": 1536,
          "midi": 60,
          "name": "C4",
          "ticks": 98304,
          "time": 80,
          "velocity": 0.3937007874015748
        },
        {
          "duration": 1.25,
          "durationTicks": 1536,
          "midi": 48,
          "name": "C3",
          "ticks": 98304,
          "time": 80,
          "velocity": 0.3937007874015748
        },
        {
          "duration": 1.25,
          "durationTicks": 1536,
          "midi": 55,
          "name": "G3",
          "ticks": 98304,
          "time": 80,
          "velocity": 0.3937007874015748
        },
        {
          "duration": 0.234375,
          "durationTicks": 288,
          "midi": 63,
          "name": "D#4",
          "ticks": 99840,
          "time": 81.25,
          "velocity": 0.3937007874015748
        },
        {
          "duration": 0.234375,
          "durationTicks": 288,
          "midi": 67,
          "name": "G4",
          "ticks": 99840,
          "time": 81.25,
          "velocity": 0.3937007874015748
        },
        {
          "duration": 0.234375,
          "durationTicks": 288,
          "midi": 60,
          "name": "C4",
          "ticks": 99840,
          "time": 81.25,
          "velocity": 0.3937007874015748
        }
      ],
      "endOfTrackTicks": 100128
    },
    {
      "channel": 9,
      "controlChanges": {},
      "pitchBends": [],
      "instrument": {
        "family": "drums",
        "number": 0,
        "name": "standard kit"
      },
      "name": "Drum Kit",
      "notes": [
        {
          "duration": 0.078125,
          "durationTicks": 96,
          "midi": 42,
          "name": "F#2",
          "ticks": 3072,
          "time": 2.5,
          "velocity": 0.7874015748031497
        },
        {
          "duration": 0.078125,
          "durationTicks": 96,
          "midi": 42,
          "name": "F#2",
          "ticks": 3168,
          "time": 2.578125,
          "velocity": 0.7874015748031497
        },
        {
          "duration": 0.078125,
          "durationTicks": 96,
          "midi": 42,
          "name": "F#2",
          "ticks": 3264,
          "time": 2.65625,
          "velocity": 0.7874015748031497
        },
        {
          "duration": 0.078125,
          "durationTicks": 96,
          "midi": 42,
          "name": "F#2",
          "ticks": 3360,
          "time": 2.734375,
          "velocity": 0.7874015748031497
        },
        {
          "duration": 0.078125,
          "durationTicks": 96,
          "midi": 42,
          "name": "F#2",
          "ticks": 3456,
          "time": 2.8125,
          "velocity": 0.7874015748031497
        },
        {
          "duration": 0.078125,
          "durationTicks": 96,
          "midi": 42,
          "name": "F#2",
          "ticks": 3552,
          "time": 2.890625,
          "velocity": 0.7874015748031497
        },
        {
          "duration": 0.078125,
          "durationTicks": 96,
          "midi": 42,
          "name": "F#2",
          "ticks": 3648,
          "time": 2.96875,
          "velocity": 0.7874015748031497
        },
        {
          "duration": 0.078125,
          "durationTicks": 96,
          "midi": 42,
          "name": "F#2",
          "ticks": 3744,
          "time": 3.046875,
          "velocity": 0.7874015748031497
        },
        {
          "duration": 0.078125,
          "durationTicks": 96,
          "midi": 42,
          "name": "F#2",
          "ticks": 3840,
          "time": 3.125,
          "velocity": 0.7874015748031497
        },
        {
          "duration": 0.078125,
          "durationTicks": 96,
          "midi": 42,
          "name": "F#2",
          "ticks": 3936,
          "time": 3.203125,
          "velocity": 0.7874015748031497
        },
        {
          "duration": 0.078125,
          "durationTicks": 96,
          "midi": 42,
          "name": "F#2",
          "ticks": 4032,
          "time": 3.28125,
          "velocity": 0.7874015748031497
        },
        {
          "duration": 0.078125,
          "durationTicks": 96,
          "midi": 42,
          "name": "F#2",
          "ticks": 4128,
          "time": 3.359375,
          "velocity": 0.7874015748031497
        },
        {
          "duration": 0.078125,
          "durationTicks": 96,
          "midi": 42,
          "name": "F#2",
          "ticks": 4224,
          "time": 3.4375,
          "velocity": 0.7874015748031497
        },
        {
          "duration": 0.078125,
          "durationTicks": 96,
          "midi": 42,
          "name": "F#2",
          "ticks": 4320,
          "time": 3.515625,
          "velocity": 0.7874015748031497
        },
        {
          "duration": 0.078125,
          "durationTicks": 96,
          "midi": 42,
          "name": "F#2",
          "ticks": 4416,
          "time": 3.59375,
          "velocity": 0.7874015748031497
        },
        {
          "duration": 0.078125,
          "durationTicks": 96,
          "midi": 42,
          "name": "F#2",
          "ticks": 4512,
          "time": 3.671875,
          "velocity": 0.7874015748031497
        },
        {
          "duration": 0.078125,
          "durationTicks": 96,
          "midi": 36,
          "name": "C2",
          "ticks": 4608,
          "time": 3.75,
          "velocity": 0.7874015748031497
        },
        {
          "duration": 0.078125,
          "durationTicks": 96,
          "midi": 42,
          "name": "F#2",
          "ticks": 4608,
          "time": 3.75,
          "velocity": 0.7874015748031497
        },
        {
          "duration": 0.078125,
          "durationTicks": 96,
          "midi": 35,
          "name": "B1",
          "ticks": 4608,
          "time": 3.75,
          "velocity": 0.7874015748031497
        },
        {
          "duration": 0.078125,
          "durationTicks": 96,
          "midi": 42,
          "name": "F#2",
          "ticks": 4704,
          "time": 3.828125,
          "velocity": 0.7874015748031497
        },
        {
          "duration": 0.078125,
          "durationTicks": 96,
          "midi": 42,
          "name": "F#2",
          "ticks": 4800,
          "time": 3.90625,
          "velocity": 0.7874015748031497
        },
        {
          "duration": 0.078125,
          "durationTicks": 96,
          "midi": 42,
          "name": "F#2",
          "ticks": 4896,
          "time": 3.984375,
          "velocity": 0.7874015748031497
        },
        {
          "duration": 0.078125,
          "durationTicks": 96,
          "midi": 35,
          "name": "B1",
          "ticks": 4992,
          "time": 4.0625,
          "velocity": 0.7874015748031497
        },
        {
          "duration": 0.078125,
          "durationTicks": 96,
          "midi": 42,
          "name": "F#2",
          "ticks": 4992,
          "time": 4.0625,
          "velocity": 0.7874015748031497
        },
        {
          "duration": 0.078125,
          "durationTicks": 96,
          "midi": 36,
          "name": "C2",
          "ticks": 4992,
          "time": 4.0625,
          "velocity": 0.7874015748031497
        },
        {
          "duration": 0.078125,
          "durationTicks": 96,
          "midi": 42,
          "name": "F#2",
          "ticks": 5088,
          "time": 4.140625,
          "velocity": 0.7874015748031497
        },
        {
          "duration": 0.078125,
          "durationTicks": 96,
          "midi": 42,
          "name": "F#2",
          "ticks": 5184,
          "time": 4.21875,
          "velocity": 0.7874015748031497
        },
        {
          "duration": 0.078125,
          "durationTicks": 96,
          "midi": 42,
          "name": "F#2",
          "ticks": 5280,
          "time": 4.296875,
          "velocity": 0.7874015748031497
        },
        {
          "duration": 0.078125,
          "durationTicks": 96,
          "midi": 35,
          "name": "B1",
          "ticks": 5376,
          "time": 4.375,
          "velocity": 0.7874015748031497
        },
        {
          "duration": 0.078125,
          "durationTicks": 96,
          "midi": 36,
          "name": "C2",
          "ticks": 5376,
          "time": 4.375,
          "velocity": 0.7874015748031497
        },
        {
          "duration": 0.078125,
          "durationTicks": 96,
          "midi": 42,
          "name": "F#2",
          "ticks": 5376,
          "time": 4.375,
          "velocity": 0.7874015748031497
        },
        {
          "duration": 0.078125,
          "durationTicks": 96,
          "midi": 42,
          "name": "F#2",
          "ticks": 5472,
          "time": 4.453125,
          "velocity": 0.7874015748031497
        },
        {
          "duration": 0.078125,
          "durationTicks": 96,
          "midi": 36,
          "name": "C2",
          "ticks": 5568,
          "time": 4.53125,
          "velocity": 0.7874015748031497
        },
        {
          "duration": 0.078125,
          "durationTicks": 96,
          "midi": 42,
          "name": "F#2",
          "ticks": 5568,
          "time": 4.53125,
          "velocity": 0.7874015748031497
        },
        {
          "duration": 0.078125,
          "durationTicks": 96,
          "midi": 35,
          "name": "B1",
          "ticks": 5568,
          "time": 4.53125,
          "velocity": 0.7874015748031497
        },
        {
          "duration": 0.078125,
          "durationTicks": 96,
          "midi": 42,
          "name": "F#2",
          "ticks": 5664,
          "time": 4.609375,
          "velocity": 0.7874015748031497
        },
        {
          "duration": 0.078125,
          "durationTicks": 96,
          "midi": 42,
          "name": "F#2",
          "ticks": 5760,
          "time": 4.6875,
          "velocity": 0.7874015748031497
        },
        {
          "duration": 0.078125,
          "durationTicks": 96,
          "midi": 35,
          "name": "B1",
          "ticks": 5760,
          "time": 4.6875,
          "velocity": 0.7874015748031497
        },
        {
          "duration": 0.078125,
          "durationTicks": 96,
          "midi": 36,
          "name": "C2",
          "ticks": 5760,
          "time": 4.6875,
          "velocity": 0.7874015748031497
        },
        {
          "duration": 0.078125,
          "durationTicks": 96,
          "midi": 42,
          "name": "F#2",
          "ticks": 5856,
          "time": 4.765625,
          "velocity": 0.7874015748031497
        },
        {
          "duration": 0.078125,
          "durationTicks": 96,
          "midi": 36,
          "name": "C2",
          "ticks": 5952,
          "time": 4.84375,
          "velocity": 0.7874015748031497
        },
        {
          "duration": 0.078125,
          "durationTicks": 96,
          "midi": 35,
          "name": "B1",
          "ticks": 5952,
          "time": 4.84375,
          "velocity": 0.7874015748031497
        },
        {
          "duration": 0.078125,
          "durationTicks": 96,
          "midi": 42,
          "name": "F#2",
          "ticks": 5952,
          "time": 4.84375,
          "velocity": 0.7874015748031497
        },
        {
          "duration": 0.078125,
          "durationTicks": 96,
          "midi": 42,
          "name": "F#2",
          "ticks": 6048,
          "time": 4.921875,
          "velocity": 0.7874015748031497
        },
        {
          "duration": 0.15625,
          "durationTicks": 192,
          "midi": 46,
          "name": "A#2",
          "ticks": 6144,
          "time": 5,
          "velocity": 0.7874015748031497
        },
        {
          "duration": 0.15625,
          "durationTicks": 192,
          "midi": 36,
          "name": "C2",
          "ticks": 6144,
          "time": 5,
          "velocity": 0.7874015748031497
        },
        {
          "duration": 0.15625,
          "durationTicks": 192,
          "midi": 49,
          "name": "C#3",
          "ticks": 6144,
          "time": 5,
          "velocity": 0.7874015748031497
        },
        {
          "duration": 0.15625,
          "durationTicks": 192,
          "midi": 54,
          "name": "F#3",
          "ticks": 6144,
          "time": 5,
          "velocity": 0.7874015748031497
        },
        {
          "duration": 0.15625,
          "durationTicks": 192,
          "midi": 57,
          "name": "A3",
          "ticks": 6144,
          "time": 5,
          "velocity": 0.7874015748031497
        },
        {
          "duration": 0.15625,
          "durationTicks": 192,
          "midi": 59,
          "name": "B3",
          "ticks": 6144,
          "time": 5,
          "velocity": 0.7874015748031497
        },
        {
          "duration": 0.15625,
          "durationTicks": 192,
          "midi": 42,
          "name": "F#2",
          "ticks": 6336,
          "time": 5.15625,
          "velocity": 0.7874015748031497
        },
        {
          "duration": 0.15625,
          "durationTicks": 192,
          "midi": 40,
          "name": "E2",
          "ticks": 6528,
          "time": 5.3125,
          "velocity": 0.7874015748031497
        },
        {
          "duration": 0.15625,
          "durationTicks": 192,
          "midi": 38,
          "name": "D2",
          "ticks": 6528,
          "time": 5.3125,
          "velocity": 0.7874015748031497
        },
        {
          "duration": 0.15625,
          "durationTicks": 192,
          "midi": 59,
          "name": "B3",
          "ticks": 6528,
          "time": 5.3125,
          "velocity": 0.7874015748031497
        },
        {
          "duration": 0.15625,
          "durationTicks": 192,
          "midi": 54,
          "name": "F#3",
          "ticks": 6528,
          "time": 5.3125,
          "velocity": 0.7874015748031497
        },
        {
          "duration": 0.15625,
          "durationTicks": 192,
          "midi": 42,
          "name": "F#2",
          "ticks": 6720,
          "time": 5.46875,
          "velocity": 0.7874015748031497
        },
        {
          "duration": 0.15625,
          "durationTicks": 192,
          "midi": 36,
          "name": "C2",
          "ticks": 6912,
          "time": 5.625,
          "velocity": 0.7874015748031497
        },
        {
          "duration": 0.15625,
          "durationTicks": 192,
          "midi": 54,
          "name": "F#3",
          "ticks": 6912,
          "time": 5.625,
          "velocity": 0.7874015748031497
        },
        {
          "duration": 0.15625,
          "durationTicks": 192,
          "midi": 59,
          "name": "B3",
          "ticks": 6912,
          "time": 5.625,
          "velocity": 0.7874015748031497
        },
        {
          "duration": 0.15625,
          "durationTicks": 192,
          "midi": 42,
          "name": "F#2",
          "ticks": 7104,
          "time": 5.78125,
          "velocity": 0.7874015748031497
        },
        {
          "duration": 0.15625,
          "durationTicks": 192,
          "midi": 40,
          "name": "E2",
          "ticks": 7296,
          "time": 5.9375,
          "velocity": 0.7874015748031497
        },
        {
          "duration": 0.15625,
          "durationTicks": 192,
          "midi": 54,
          "name": "F#3",
          "ticks": 7296,
          "time": 5.9375,
          "velocity": 0.7874015748031497
        },
        {
          "duration": 0.15625,
          "durationTicks": 192,
          "midi": 59,
          "name": "B3",
          "ticks": 7296,
          "time": 5.9375,
          "velocity": 0.7874015748031497
        },
        {
          "duration": 0.15625,
          "durationTicks": 192,
          "midi": 38,
          "name": "D2",
          "ticks": 7296,
          "time": 5.9375,
          "velocity": 0.7874015748031497
        },
        {
          "duration": 0.15625,
          "durationTicks": 192,
          "midi": 42,
          "name": "F#2",
          "ticks": 7488,
          "time": 6.09375,
          "velocity": 0.7874015748031497
        },
        {
          "duration": 0.15625,
          "durationTicks": 192,
          "midi": 59,
          "name": "B3",
          "ticks": 7680,
          "time": 6.25,
          "velocity": 0.7874015748031497
        },
        {
          "duration": 0.15625,
          "durationTicks": 192,
          "midi": 54,
          "name": "F#3",
          "ticks": 7680,
          "time": 6.25,
          "velocity": 0.7874015748031497
        },
        {
          "duration": 0.15625,
          "durationTicks": 192,
          "midi": 36,
          "name": "C2",
          "ticks": 7680,
          "time": 6.25,
          "velocity": 0.7874015748031497
        },
        {
          "duration": 0.15625,
          "durationTicks": 192,
          "midi": 42,
          "name": "F#2",
          "ticks": 7872,
          "time": 6.40625,
          "velocity": 0.7874015748031497
        },
        {
          "duration": 0.15625,
          "durationTicks": 192,
          "midi": 40,
          "name": "E2",
          "ticks": 8064,
          "time": 6.5625,
          "velocity": 0.7874015748031497
        },
        {
          "duration": 0.15625,
          "durationTicks": 192,
          "midi": 54,
          "name": "F#3",
          "ticks": 8064,
          "time": 6.5625,
          "velocity": 0.7874015748031497
        },
        {
          "duration": 0.15625,
          "durationTicks": 192,
          "midi": 59,
          "name": "B3",
          "ticks": 8064,
          "time": 6.5625,
          "velocity": 0.7874015748031497
        },
        {
          "duration": 0.15625,
          "durationTicks": 192,
          "midi": 38,
          "name": "D2",
          "ticks": 8064,
          "time": 6.5625,
          "velocity": 0.7874015748031497
        },
        {
          "duration": 0.15625,
          "durationTicks": 192,
          "midi": 42,
          "name": "F#2",
          "ticks": 8256,
          "time": 6.71875,
          "velocity": 0.7874015748031497
        },
        {
          "duration": 0.15625,
          "durationTicks": 192,
          "midi": 36,
          "name": "C2",
          "ticks": 8448,
          "time": 6.875,
          "velocity": 0.7874015748031497
        },
        {
          "duration": 0.15625,
          "durationTicks": 192,
          "midi": 54,
          "name": "F#3",
          "ticks": 8448,
          "time": 6.875,
          "velocity": 0.7874015748031497
        },
        {
          "duration": 0.15625,
          "durationTicks": 192,
          "midi": 59,
          "name": "B3",
          "ticks": 8448,
          "time": 6.875,
          "velocity": 0.7874015748031497
        },
        {
          "duration": 0.15625,
          "durationTicks": 192,
          "midi": 42,
          "name": "F#2",
          "ticks": 8640,
          "time": 7.03125,
          "velocity": 0.7874015748031497
        },
        {
          "duration": 0.15625,
          "durationTicks": 192,
          "midi": 54,
          "name": "F#3",
          "ticks": 8832,
          "time": 7.1875,
          "velocity": 0.7874015748031497
        },
        {
          "duration": 0.15625,
          "durationTicks": 192,
          "midi": 59,
          "name": "B3",
          "ticks": 8832,
          "time": 7.1875,
          "velocity": 0.7874015748031497
        },
        {
          "duration": 0.15625,
          "durationTicks": 192,
          "midi": 38,
          "name": "D2",
          "ticks": 8832,
          "time": 7.1875,
          "velocity": 0.7874015748031497
        },
        {
          "duration": 0.15625,
          "durationTicks": 192,
          "midi": 40,
          "name": "E2",
          "ticks": 8832,
          "time": 7.1875,
          "velocity": 0.7874015748031497
        },
        {
          "duration": 0.15625,
          "durationTicks": 192,
          "midi": 42,
          "name": "F#2",
          "ticks": 9024,
          "time": 7.34375,
          "velocity": 0.7874015748031497
        },
        {
          "duration": 0.15625,
          "durationTicks": 192,
          "midi": 59,
          "name": "B3",
          "ticks": 9216,
          "time": 7.5,
          "velocity": 0.7874015748031497
        },
        {
          "duration": 0.15625,
          "durationTicks": 192,
          "midi": 36,
          "name": "C2",
          "ticks": 9216,
          "time": 7.5,
          "velocity": 0.7874015748031497
        },
        {
          "duration": 0.15625,
          "durationTicks": 192,
          "midi": 54,
          "name": "F#3",
          "ticks": 9216,
          "time": 7.5,
          "velocity": 0.7874015748031497
        },
        {
          "duration": 0.15625,
          "durationTicks": 192,
          "midi": 42,
          "name": "F#2",
          "ticks": 9408,
          "time": 7.65625,
          "velocity": 0.7874015748031497
        },
        {
          "duration": 0.15625,
          "durationTicks": 192,
          "midi": 40,
          "name": "E2",
          "ticks": 9600,
          "time": 7.8125,
          "velocity": 0.7874015748031497
        },
        {
          "duration": 0.15625,
          "durationTicks": 192,
          "midi": 54,
          "name": "F#3",
          "ticks": 9600,
          "time": 7.8125,
          "velocity": 0.7874015748031497
        },
        {
          "duration": 0.15625,
          "durationTicks": 192,
          "midi": 59,
          "name": "B3",
          "ticks": 9600,
          "time": 7.8125,
          "velocity": 0.7874015748031497
        },
        {
          "duration": 0.15625,
          "durationTicks": 192,
          "midi": 38,
          "name": "D2",
          "ticks": 9600,
          "time": 7.8125,
          "velocity": 0.7874015748031497
        },
        {
          "duration": 0.15625,
          "durationTicks": 192,
          "midi": 42,
          "name": "F#2",
          "ticks": 9792,
          "time": 7.96875,
          "velocity": 0.7874015748031497
        },
        {
          "duration": 0.15625,
          "durationTicks": 192,
          "midi": 54,
          "name": "F#3",
          "ticks": 9984,
          "time": 8.125,
          "velocity": 0.7874015748031497
        },
        {
          "duration": 0.15625,
          "durationTicks": 192,
          "midi": 36,
          "name": "C2",
          "ticks": 9984,
          "time": 8.125,
          "velocity": 0.7874015748031497
        },
        {
          "duration": 0.15625,
          "durationTicks": 192,
          "midi": 59,
          "name": "B3",
          "ticks": 9984,
          "time": 8.125,
          "velocity": 0.7874015748031497
        },
        {
          "duration": 0.15625,
          "durationTicks": 192,
          "midi": 42,
          "name": "F#2",
          "ticks": 10176,
          "time": 8.28125,
          "velocity": 0.7874015748031497
        },
        {
          "duration": 0.15625,
          "durationTicks": 192,
          "midi": 40,
          "name": "E2",
          "ticks": 10368,
          "time": 8.4375,
          "velocity": 0.7874015748031497
        },
        {
          "duration": 0.15625,
          "durationTicks": 192,
          "midi": 38,
          "name": "D2",
          "ticks": 10368,
          "time": 8.4375,
          "velocity": 0.7874015748031497
        },
        {
          "duration": 0.15625,
          "durationTicks": 192,
          "midi": 54,
          "name": "F#3",
          "ticks": 10368,
          "time": 8.4375,
          "velocity": 0.7874015748031497
        },
        {
          "duration": 0.15625,
          "durationTicks": 192,
          "midi": 59,
          "name": "B3",
          "ticks": 10368,
          "time": 8.4375,
          "velocity": 0.7874015748031497
        },
        {
          "duration": 0.15625,
          "durationTicks": 192,
          "midi": 42,
          "name": "F#2",
          "ticks": 10560,
          "time": 8.59375,
          "velocity": 0.7874015748031497
        },
        {
          "duration": 0.15625,
          "durationTicks": 192,
          "midi": 49,
          "name": "C#3",
          "ticks": 10752,
          "time": 8.75,
          "velocity": 0.7874015748031497
        },
        {
          "duration": 0.15625,
          "durationTicks": 192,
          "midi": 36,
          "name": "C2",
          "ticks": 10752,
          "time": 8.75,
          "velocity": 0.7874015748031497
        },
        {
          "duration": 0.15625,
          "durationTicks": 192,
          "midi": 57,
          "name": "A3",
          "ticks": 10752,
          "time": 8.75,
          "velocity": 0.7874015748031497
        },
        {
          "duration": 0.15625,
          "durationTicks": 192,
          "midi": 54,
          "name": "F#3",
          "ticks": 10752,
          "time": 8.75,
          "velocity": 0.7874015748031497
        },
        {
          "duration": 0.15625,
          "durationTicks": 192,
          "midi": 59,
          "name": "B3",
          "ticks": 10752,
          "time": 8.75,
          "velocity": 0.7874015748031497
        },
        {
          "duration": 0.15625,
          "durationTicks": 192,
          "midi": 42,
          "name": "F#2",
          "ticks": 10944,
          "time": 8.90625,
          "velocity": 0.7874015748031497
        },
        {
          "duration": 0.15625,
          "durationTicks": 192,
          "midi": 59,
          "name": "B3",
          "ticks": 11136,
          "time": 9.0625,
          "velocity": 0.7874015748031497
        },
        {
          "duration": 0.15625,
          "durationTicks": 192,
          "midi": 54,
          "name": "F#3",
          "ticks": 11136,
          "time": 9.0625,
          "velocity": 0.7874015748031497
        },
        {
          "duration": 0.15625,
          "durationTicks": 192,
          "midi": 40,
          "name": "E2",
          "ticks": 11136,
          "time": 9.0625,
          "velocity": 0.7874015748031497
        },
        {
          "duration": 0.15625,
          "durationTicks": 192,
          "midi": 38,
          "name": "D2",
          "ticks": 11136,
          "time": 9.0625,
          "velocity": 0.7874015748031497
        },
        {
          "duration": 0.15625,
          "durationTicks": 192,
          "midi": 42,
          "name": "F#2",
          "ticks": 11328,
          "time": 9.21875,
          "velocity": 0.7874015748031497
        },
        {
          "duration": 0.15625,
          "durationTicks": 192,
          "midi": 59,
          "name": "B3",
          "ticks": 11520,
          "time": 9.375,
          "velocity": 0.7874015748031497
        },
        {
          "duration": 0.15625,
          "durationTicks": 192,
          "midi": 36,
          "name": "C2",
          "ticks": 11520,
          "time": 9.375,
          "velocity": 0.7874015748031497
        },
        {
          "duration": 0.15625,
          "durationTicks": 192,
          "midi": 54,
          "name": "F#3",
          "ticks": 11520,
          "time": 9.375,
          "velocity": 0.7874015748031497
        },
        {
          "duration": 0.15625,
          "durationTicks": 192,
          "midi": 42,
          "name": "F#2",
          "ticks": 11712,
          "time": 9.53125,
          "velocity": 0.7874015748031497
        },
        {
          "duration": 0.15625,
          "durationTicks": 192,
          "midi": 38,
          "name": "D2",
          "ticks": 11904,
          "time": 9.6875,
          "velocity": 0.7874015748031497
        },
        {
          "duration": 0.15625,
          "durationTicks": 192,
          "midi": 40,
          "name": "E2",
          "ticks": 11904,
          "time": 9.6875,
          "velocity": 0.7874015748031497
        },
        {
          "duration": 0.15625,
          "durationTicks": 192,
          "midi": 54,
          "name": "F#3",
          "ticks": 11904,
          "time": 9.6875,
          "velocity": 0.7874015748031497
        },
        {
          "duration": 0.15625,
          "durationTicks": 192,
          "midi": 59,
          "name": "B3",
          "ticks": 11904,
          "time": 9.6875,
          "velocity": 0.7874015748031497
        },
        {
          "duration": 0.15625,
          "durationTicks": 192,
          "midi": 42,
          "name": "F#2",
          "ticks": 12096,
          "time": 9.84375,
          "velocity": 0.7874015748031497
        },
        {
          "duration": 0.15625,
          "durationTicks": 192,
          "midi": 59,
          "name": "B3",
          "ticks": 12288,
          "time": 10,
          "velocity": 0.7874015748031497
        },
        {
          "duration": 0.15625,
          "durationTicks": 192,
          "midi": 54,
          "name": "F#3",
          "ticks": 12288,
          "time": 10,
          "velocity": 0.7874015748031497
        },
        {
          "duration": 0.15625,
          "durationTicks": 192,
          "midi": 36,
          "name": "C2",
          "ticks": 12288,
          "time": 10,
          "velocity": 0.7874015748031497
        },
        {
          "duration": 0.15625,
          "durationTicks": 192,
          "midi": 42,
          "name": "F#2",
          "ticks": 12480,
          "time": 10.15625,
          "velocity": 0.7874015748031497
        },
        {
          "duration": 0.15625,
          "durationTicks": 192,
          "midi": 40,
          "name": "E2",
          "ticks": 12672,
          "time": 10.3125,
          "velocity": 0.7874015748031497
        },
        {
          "duration": 0.15625,
          "durationTicks": 192,
          "midi": 54,
          "name": "F#3",
          "ticks": 12672,
          "time": 10.3125,
          "velocity": 0.7874015748031497
        },
        {
          "duration": 0.15625,
          "durationTicks": 192,
          "midi": 59,
          "name": "B3",
          "ticks": 12672,
          "time": 10.3125,
          "velocity": 0.7874015748031497
        },
        {
          "duration": 0.15625,
          "durationTicks": 192,
          "midi": 38,
          "name": "D2",
          "ticks": 12672,
          "time": 10.3125,
          "velocity": 0.7874015748031497
        },
        {
          "duration": 0.15625,
          "durationTicks": 192,
          "midi": 42,
          "name": "F#2",
          "ticks": 12864,
          "time": 10.46875,
          "velocity": 0.7874015748031497
        },
        {
          "duration": 0.15625,
          "durationTicks": 192,
          "midi": 59,
          "name": "B3",
          "ticks": 13056,
          "time": 10.625,
          "velocity": 0.7874015748031497
        },
        {
          "duration": 0.15625,
          "durationTicks": 192,
          "midi": 54,
          "name": "F#3",
          "ticks": 13056,
          "time": 10.625,
          "velocity": 0.7874015748031497
        },
        {
          "duration": 0.15625,
          "durationTicks": 192,
          "midi": 36,
          "name": "C2",
          "ticks": 13056,
          "time": 10.625,
          "velocity": 0.7874015748031497
        },
        {
          "duration": 0.15625,
          "durationTicks": 192,
          "midi": 42,
          "name": "F#2",
          "ticks": 13248,
          "time": 10.78125,
          "velocity": 0.7874015748031497
        },
        {
          "duration": 0.15625,
          "durationTicks": 192,
          "midi": 54,
          "name": "F#3",
          "ticks": 13440,
          "time": 10.9375,
          "velocity": 0.7874015748031497
        },
        {
          "duration": 0.15625,
          "durationTicks": 192,
          "midi": 38,
          "name": "D2",
          "ticks": 13440,
          "time": 10.9375,
          "velocity": 0.7874015748031497
        },
        {
          "duration": 0.15625,
          "durationTicks": 192,
          "midi": 59,
          "name": "B3",
          "ticks": 13440,
          "time": 10.9375,
          "velocity": 0.7874015748031497
        },
        {
          "duration": 0.15625,
          "durationTicks": 192,
          "midi": 40,
          "name": "E2",
          "ticks": 13440,
          "time": 10.9375,
          "velocity": 0.7874015748031497
        },
        {
          "duration": 0.15625,
          "durationTicks": 192,
          "midi": 42,
          "name": "F#2",
          "ticks": 13632,
          "time": 11.09375,
          "velocity": 0.7874015748031497
        },
        {
          "duration": 0.15625,
          "durationTicks": 192,
          "midi": 54,
          "name": "F#3",
          "ticks": 13824,
          "time": 11.25,
          "velocity": 0.7874015748031497
        },
        {
          "duration": 0.15625,
          "durationTicks": 192,
          "midi": 59,
          "name": "B3",
          "ticks": 13824,
          "time": 11.25,
          "velocity": 0.7874015748031497
        },
        {
          "duration": 0.15625,
          "durationTicks": 192,
          "midi": 36,
          "name": "C2",
          "ticks": 13824,
          "time": 11.25,
          "velocity": 0.7874015748031497
        },
        {
          "duration": 0.15625,
          "durationTicks": 192,
          "midi": 42,
          "name": "F#2",
          "ticks": 14016,
          "time": 11.40625,
          "velocity": 0.7874015748031497
        },
        {
          "duration": 0.15625,
          "durationTicks": 192,
          "midi": 59,
          "name": "B3",
          "ticks": 14208,
          "time": 11.5625,
          "velocity": 0.7874015748031497
        },
        {
          "duration": 0.15625,
          "durationTicks": 192,
          "midi": 38,
          "name": "D2",
          "ticks": 14208,
          "time": 11.5625,
          "velocity": 0.7874015748031497
        },
        {
          "duration": 0.15625,
          "durationTicks": 192,
          "midi": 40,
          "name": "E2",
          "ticks": 14208,
          "time": 11.5625,
          "velocity": 0.7874015748031497
        },
        {
          "duration": 0.15625,
          "durationTicks": 192,
          "midi": 54,
          "name": "F#3",
          "ticks": 14208,
          "time": 11.5625,
          "velocity": 0.7874015748031497
        },
        {
          "duration": 0.15625,
          "durationTicks": 192,
          "midi": 42,
          "name": "F#2",
          "ticks": 14400,
          "time": 11.71875,
          "velocity": 0.7874015748031497
        },
        {
          "duration": 0.15625,
          "durationTicks": 192,
          "midi": 36,
          "name": "C2",
          "ticks": 14592,
          "time": 11.875,
          "velocity": 0.7874015748031497
        },
        {
          "duration": 0.15625,
          "durationTicks": 192,
          "midi": 54,
          "name": "F#3",
          "ticks": 14592,
          "time": 11.875,
          "velocity": 0.7874015748031497
        },
        {
          "duration": 0.15625,
          "durationTicks": 192,
          "midi": 59,
          "name": "B3",
          "ticks": 14592,
          "time": 11.875,
          "velocity": 0.7874015748031497
        },
        {
          "duration": 0.15625,
          "durationTicks": 192,
          "midi": 42,
          "name": "F#2",
          "ticks": 14784,
          "time": 12.03125,
          "velocity": 0.7874015748031497
        },
        {
          "duration": 0.15625,
          "durationTicks": 192,
          "midi": 40,
          "name": "E2",
          "ticks": 14976,
          "time": 12.1875,
          "velocity": 0.7874015748031497
        },
        {
          "duration": 0.15625,
          "durationTicks": 192,
          "midi": 38,
          "name": "D2",
          "ticks": 14976,
          "time": 12.1875,
          "velocity": 0.7874015748031497
        },
        {
          "duration": 0.15625,
          "durationTicks": 192,
          "midi": 54,
          "name": "F#3",
          "ticks": 14976,
          "time": 12.1875,
          "velocity": 0.7874015748031497
        },
        {
          "duration": 0.15625,
          "durationTicks": 192,
          "midi": 59,
          "name": "B3",
          "ticks": 14976,
          "time": 12.1875,
          "velocity": 0.7874015748031497
        },
        {
          "duration": 0.15625,
          "durationTicks": 192,
          "midi": 42,
          "name": "F#2",
          "ticks": 15168,
          "time": 12.34375,
          "velocity": 0.7874015748031497
        },
        {
          "duration": 0.15625,
          "durationTicks": 192,
          "midi": 59,
          "name": "B3",
          "ticks": 15360,
          "time": 12.5,
          "velocity": 0.7874015748031497
        },
        {
          "duration": 0.15625,
          "durationTicks": 192,
          "midi": 36,
          "name": "C2",
          "ticks": 15360,
          "time": 12.5,
          "velocity": 0.7874015748031497
        },
        {
          "duration": 0.15625,
          "durationTicks": 192,
          "midi": 54,
          "name": "F#3",
          "ticks": 15360,
          "time": 12.5,
          "velocity": 0.7874015748031497
        },
        {
          "duration": 0.15625,
          "durationTicks": 192,
          "midi": 42,
          "name": "F#2",
          "ticks": 15552,
          "time": 12.65625,
          "velocity": 0.7874015748031497
        },
        {
          "duration": 0.15625,
          "durationTicks": 192,
          "midi": 38,
          "name": "D2",
          "ticks": 15744,
          "time": 12.8125,
          "velocity": 0.7874015748031497
        },
        {
          "duration": 0.15625,
          "durationTicks": 192,
          "midi": 40,
          "name": "E2",
          "ticks": 15744,
          "time": 12.8125,
          "velocity": 0.7874015748031497
        },
        {
          "duration": 0.15625,
          "durationTicks": 192,
          "midi": 59,
          "name": "B3",
          "ticks": 15744,
          "time": 12.8125,
          "velocity": 0.7874015748031497
        },
        {
          "duration": 0.15625,
          "durationTicks": 192,
          "midi": 54,
          "name": "F#3",
          "ticks": 15744,
          "time": 12.8125,
          "velocity": 0.7874015748031497
        },
        {
          "duration": 0.15625,
          "durationTicks": 192,
          "midi": 42,
          "name": "F#2",
          "ticks": 15936,
          "time": 12.96875,
          "velocity": 0.7874015748031497
        },
        {
          "duration": 0.15625,
          "durationTicks": 192,
          "midi": 54,
          "name": "F#3",
          "ticks": 16128,
          "time": 13.125,
          "velocity": 0.7874015748031497
        },
        {
          "duration": 0.15625,
          "durationTicks": 192,
          "midi": 59,
          "name": "B3",
          "ticks": 16128,
          "time": 13.125,
          "velocity": 0.7874015748031497
        },
        {
          "duration": 0.15625,
          "durationTicks": 192,
          "midi": 36,
          "name": "C2",
          "ticks": 16128,
          "time": 13.125,
          "velocity": 0.7874015748031497
        },
        {
          "duration": 0.15625,
          "durationTicks": 192,
          "midi": 42,
          "name": "F#2",
          "ticks": 16320,
          "time": 13.28125,
          "velocity": 0.7874015748031497
        },
        {
          "duration": 0.15625,
          "durationTicks": 192,
          "midi": 40,
          "name": "E2",
          "ticks": 16512,
          "time": 13.4375,
          "velocity": 0.7874015748031497
        },
        {
          "duration": 0.15625,
          "durationTicks": 192,
          "midi": 54,
          "name": "F#3",
          "ticks": 16512,
          "time": 13.4375,
          "velocity": 0.7874015748031497
        },
        {
          "duration": 0.15625,
          "durationTicks": 192,
          "midi": 59,
          "name": "B3",
          "ticks": 16512,
          "time": 13.4375,
          "velocity": 0.7874015748031497
        },
        {
          "duration": 0.15625,
          "durationTicks": 192,
          "midi": 38,
          "name": "D2",
          "ticks": 16512,
          "time": 13.4375,
          "velocity": 0.7874015748031497
        },
        {
          "duration": 0.15625,
          "durationTicks": 192,
          "midi": 42,
          "name": "F#2",
          "ticks": 16704,
          "time": 13.59375,
          "velocity": 0.7874015748031497
        },
        {
          "duration": 0.15625,
          "durationTicks": 192,
          "midi": 36,
          "name": "C2",
          "ticks": 16896,
          "time": 13.75,
          "velocity": 0.7874015748031497
        },
        {
          "duration": 0.15625,
          "durationTicks": 192,
          "midi": 54,
          "name": "F#3",
          "ticks": 16896,
          "time": 13.75,
          "velocity": 0.7874015748031497
        },
        {
          "duration": 0.15625,
          "durationTicks": 192,
          "midi": 59,
          "name": "B3",
          "ticks": 16896,
          "time": 13.75,
          "velocity": 0.7874015748031497
        },
        {
          "duration": 0.15625,
          "durationTicks": 192,
          "midi": 42,
          "name": "F#2",
          "ticks": 17088,
          "time": 13.90625,
          "velocity": 0.7874015748031497
        },
        {
          "duration": 0.15625,
          "durationTicks": 192,
          "midi": 38,
          "name": "D2",
          "ticks": 17280,
          "time": 14.0625,
          "velocity": 0.7874015748031497
        },
        {
          "duration": 0.15625,
          "durationTicks": 192,
          "midi": 54,
          "name": "F#3",
          "ticks": 17280,
          "time": 14.0625,
          "velocity": 0.7874015748031497
        },
        {
          "duration": 0.15625,
          "durationTicks": 192,
          "midi": 59,
          "name": "B3",
          "ticks": 17280,
          "time": 14.0625,
          "velocity": 0.7874015748031497
        },
        {
          "duration": 0.15625,
          "durationTicks": 192,
          "midi": 40,
          "name": "E2",
          "ticks": 17280,
          "time": 14.0625,
          "velocity": 0.7874015748031497
        },
        {
          "duration": 0.15625,
          "durationTicks": 192,
          "midi": 42,
          "name": "F#2",
          "ticks": 17472,
          "time": 14.21875,
          "velocity": 0.7874015748031497
        },
        {
          "duration": 0.15625,
          "durationTicks": 192,
          "midi": 54,
          "name": "F#3",
          "ticks": 17664,
          "time": 14.375,
          "velocity": 0.7874015748031497
        },
        {
          "duration": 0.15625,
          "durationTicks": 192,
          "midi": 36,
          "name": "C2",
          "ticks": 17664,
          "time": 14.375,
          "velocity": 0.7874015748031497
        },
        {
          "duration": 0.15625,
          "durationTicks": 192,
          "midi": 59,
          "name": "B3",
          "ticks": 17664,
          "time": 14.375,
          "velocity": 0.7874015748031497
        },
        {
          "duration": 0.15625,
          "durationTicks": 192,
          "midi": 42,
          "name": "F#2",
          "ticks": 17856,
          "time": 14.53125,
          "velocity": 0.7874015748031497
        },
        {
          "duration": 0.15625,
          "durationTicks": 192,
          "midi": 38,
          "name": "D2",
          "ticks": 18048,
          "time": 14.6875,
          "velocity": 0.7874015748031497
        },
        {
          "duration": 0.15625,
          "durationTicks": 192,
          "midi": 40,
          "name": "E2",
          "ticks": 18048,
          "time": 14.6875,
          "velocity": 0.7874015748031497
        },
        {
          "duration": 0.15625,
          "durationTicks": 192,
          "midi": 54,
          "name": "F#3",
          "ticks": 18048,
          "time": 14.6875,
          "velocity": 0.7874015748031497
        },
        {
          "duration": 0.15625,
          "durationTicks": 192,
          "midi": 59,
          "name": "B3",
          "ticks": 18048,
          "time": 14.6875,
          "velocity": 0.7874015748031497
        },
        {
          "duration": 0.15625,
          "durationTicks": 192,
          "midi": 42,
          "name": "F#2",
          "ticks": 18240,
          "time": 14.84375,
          "velocity": 0.7874015748031497
        },
        {
          "duration": 0.15625,
          "durationTicks": 192,
          "midi": 36,
          "name": "C2",
          "ticks": 18432,
          "time": 15,
          "velocity": 0.7874015748031497
        },
        {
          "duration": 0.15625,
          "durationTicks": 192,
          "midi": 54,
          "name": "F#3",
          "ticks": 18432,
          "time": 15,
          "velocity": 0.7874015748031497
        },
        {
          "duration": 0.15625,
          "durationTicks": 192,
          "midi": 49,
          "name": "C#3",
          "ticks": 18432,
          "time": 15,
          "velocity": 0.7874015748031497
        },
        {
          "duration": 0.15625,
          "durationTicks": 192,
          "midi": 57,
          "name": "A3",
          "ticks": 18432,
          "time": 15,
          "velocity": 0.7874015748031497
        },
        {
          "duration": 0.15625,
          "durationTicks": 192,
          "midi": 59,
          "name": "B3",
          "ticks": 18432,
          "time": 15,
          "velocity": 0.7874015748031497
        },
        {
          "duration": 0.15625,
          "durationTicks": 192,
          "midi": 42,
          "name": "F#2",
          "ticks": 18624,
          "time": 15.15625,
          "velocity": 0.7874015748031497
        },
        {
          "duration": 0.15625,
          "durationTicks": 192,
          "midi": 38,
          "name": "D2",
          "ticks": 18816,
          "time": 15.3125,
          "velocity": 0.7874015748031497
        },
        {
          "duration": 0.15625,
          "durationTicks": 192,
          "midi": 40,
          "name": "E2",
          "ticks": 18816,
          "time": 15.3125,
          "velocity": 0.7874015748031497
        },
        {
          "duration": 0.15625,
          "durationTicks": 192,
          "midi": 54,
          "name": "F#3",
          "ticks": 18816,
          "time": 15.3125,
          "velocity": 0.7874015748031497
        },
        {
          "duration": 0.15625,
          "durationTicks": 192,
          "midi": 59,
          "name": "B3",
          "ticks": 18816,
          "time": 15.3125,
          "velocity": 0.7874015748031497
        },
        {
          "duration": 0.15625,
          "durationTicks": 192,
          "midi": 42,
          "name": "F#2",
          "ticks": 19008,
          "time": 15.46875,
          "velocity": 0.7874015748031497
        },
        {
          "duration": 0.15625,
          "durationTicks": 192,
          "midi": 59,
          "name": "B3",
          "ticks": 19200,
          "time": 15.625,
          "velocity": 0.7874015748031497
        },
        {
          "duration": 0.15625,
          "durationTicks": 192,
          "midi": 54,
          "name": "F#3",
          "ticks": 19200,
          "time": 15.625,
          "velocity": 0.7874015748031497
        },
        {
          "duration": 0.15625,
          "durationTicks": 192,
          "midi": 36,
          "name": "C2",
          "ticks": 19200,
          "time": 15.625,
          "velocity": 0.7874015748031497
        },
        {
          "duration": 0.15625,
          "durationTicks": 192,
          "midi": 42,
          "name": "F#2",
          "ticks": 19392,
          "time": 15.78125,
          "velocity": 0.7874015748031497
        },
        {
          "duration": 0.15625,
          "durationTicks": 192,
          "midi": 38,
          "name": "D2",
          "ticks": 19584,
          "time": 15.9375,
          "velocity": 0.7874015748031497
        },
        {
          "duration": 0.15625,
          "durationTicks": 192,
          "midi": 59,
          "name": "B3",
          "ticks": 19584,
          "time": 15.9375,
          "velocity": 0.7874015748031497
        },
        {
          "duration": 0.15625,
          "durationTicks": 192,
          "midi": 40,
          "name": "E2",
          "ticks": 19584,
          "time": 15.9375,
          "velocity": 0.7874015748031497
        },
        {
          "duration": 0.15625,
          "durationTicks": 192,
          "midi": 54,
          "name": "F#3",
          "ticks": 19584,
          "time": 15.9375,
          "velocity": 0.7874015748031497
        },
        {
          "duration": 0.15625,
          "durationTicks": 192,
          "midi": 42,
          "name": "F#2",
          "ticks": 19776,
          "time": 16.09375,
          "velocity": 0.7874015748031497
        },
        {
          "duration": 0.15625,
          "durationTicks": 192,
          "midi": 59,
          "name": "B3",
          "ticks": 19968,
          "time": 16.25,
          "velocity": 0.7874015748031497
        },
        {
          "duration": 0.15625,
          "durationTicks": 192,
          "midi": 54,
          "name": "F#3",
          "ticks": 19968,
          "time": 16.25,
          "velocity": 0.7874015748031497
        },
        {
          "duration": 0.15625,
          "durationTicks": 192,
          "midi": 36,
          "name": "C2",
          "ticks": 19968,
          "time": 16.25,
          "velocity": 0.7874015748031497
        },
        {
          "duration": 0.15625,
          "durationTicks": 192,
          "midi": 42,
          "name": "F#2",
          "ticks": 20160,
          "time": 16.40625,
          "velocity": 0.7874015748031497
        },
        {
          "duration": 0.15625,
          "durationTicks": 192,
          "midi": 54,
          "name": "F#3",
          "ticks": 20352,
          "time": 16.5625,
          "velocity": 0.7874015748031497
        },
        {
          "duration": 0.15625,
          "durationTicks": 192,
          "midi": 38,
          "name": "D2",
          "ticks": 20352,
          "time": 16.5625,
          "velocity": 0.7874015748031497
        },
        {
          "duration": 0.15625,
          "durationTicks": 192,
          "midi": 59,
          "name": "B3",
          "ticks": 20352,
          "time": 16.5625,
          "velocity": 0.7874015748031497
        },
        {
          "duration": 0.15625,
          "durationTicks": 192,
          "midi": 40,
          "name": "E2",
          "ticks": 20352,
          "time": 16.5625,
          "velocity": 0.7874015748031497
        },
        {
          "duration": 0.15625,
          "durationTicks": 192,
          "midi": 42,
          "name": "F#2",
          "ticks": 20544,
          "time": 16.71875,
          "velocity": 0.7874015748031497
        },
        {
          "duration": 0.15625,
          "durationTicks": 192,
          "midi": 36,
          "name": "C2",
          "ticks": 20736,
          "time": 16.875,
          "velocity": 0.7874015748031497
        },
        {
          "duration": 0.15625,
          "durationTicks": 192,
          "midi": 54,
          "name": "F#3",
          "ticks": 20736,
          "time": 16.875,
          "velocity": 0.7874015748031497
        },
        {
          "duration": 0.15625,
          "durationTicks": 192,
          "midi": 59,
          "name": "B3",
          "ticks": 20736,
          "time": 16.875,
          "velocity": 0.7874015748031497
        },
        {
          "duration": 0.15625,
          "durationTicks": 192,
          "midi": 42,
          "name": "F#2",
          "ticks": 20928,
          "time": 17.03125,
          "velocity": 0.7874015748031497
        },
        {
          "duration": 0.15625,
          "durationTicks": 192,
          "midi": 54,
          "name": "F#3",
          "ticks": 21120,
          "time": 17.1875,
          "velocity": 0.7874015748031497
        },
        {
          "duration": 0.15625,
          "durationTicks": 192,
          "midi": 59,
          "name": "B3",
          "ticks": 21120,
          "time": 17.1875,
          "velocity": 0.7874015748031497
        },
        {
          "duration": 0.15625,
          "durationTicks": 192,
          "midi": 40,
          "name": "E2",
          "ticks": 21120,
          "time": 17.1875,
          "velocity": 0.7874015748031497
        },
        {
          "duration": 0.15625,
          "durationTicks": 192,
          "midi": 38,
          "name": "D2",
          "ticks": 21120,
          "time": 17.1875,
          "velocity": 0.7874015748031497
        },
        {
          "duration": 0.15625,
          "durationTicks": 192,
          "midi": 42,
          "name": "F#2",
          "ticks": 21312,
          "time": 17.34375,
          "velocity": 0.7874015748031497
        },
        {
          "duration": 0.15625,
          "durationTicks": 192,
          "midi": 36,
          "name": "C2",
          "ticks": 21504,
          "time": 17.5,
          "velocity": 0.7874015748031497
        },
        {
          "duration": 0.15625,
          "durationTicks": 192,
          "midi": 54,
          "name": "F#3",
          "ticks": 21504,
          "time": 17.5,
          "velocity": 0.7874015748031497
        },
        {
          "duration": 0.15625,
          "durationTicks": 192,
          "midi": 59,
          "name": "B3",
          "ticks": 21504,
          "time": 17.5,
          "velocity": 0.7874015748031497
        },
        {
          "duration": 0.15625,
          "durationTicks": 192,
          "midi": 42,
          "name": "F#2",
          "ticks": 21696,
          "time": 17.65625,
          "velocity": 0.7874015748031497
        },
        {
          "duration": 0.15625,
          "durationTicks": 192,
          "midi": 59,
          "name": "B3",
          "ticks": 21888,
          "time": 17.8125,
          "velocity": 0.7874015748031497
        },
        {
          "duration": 0.15625,
          "durationTicks": 192,
          "midi": 38,
          "name": "D2",
          "ticks": 21888,
          "time": 17.8125,
          "velocity": 0.7874015748031497
        },
        {
          "duration": 0.15625,
          "durationTicks": 192,
          "midi": 40,
          "name": "E2",
          "ticks": 21888,
          "time": 17.8125,
          "velocity": 0.7874015748031497
        },
        {
          "duration": 0.15625,
          "durationTicks": 192,
          "midi": 54,
          "name": "F#3",
          "ticks": 21888,
          "time": 17.8125,
          "velocity": 0.7874015748031497
        },
        {
          "duration": 0.15625,
          "durationTicks": 192,
          "midi": 42,
          "name": "F#2",
          "ticks": 22080,
          "time": 17.96875,
          "velocity": 0.7874015748031497
        },
        {
          "duration": 0.15625,
          "durationTicks": 192,
          "midi": 36,
          "name": "C2",
          "ticks": 22272,
          "time": 18.125,
          "velocity": 0.7874015748031497
        },
        {
          "duration": 0.15625,
          "durationTicks": 192,
          "midi": 54,
          "name": "F#3",
          "ticks": 22272,
          "time": 18.125,
          "velocity": 0.7874015748031497
        },
        {
          "duration": 0.15625,
          "durationTicks": 192,
          "midi": 59,
          "name": "B3",
          "ticks": 22272,
          "time": 18.125,
          "velocity": 0.7874015748031497
        },
        {
          "duration": 0.15625,
          "durationTicks": 192,
          "midi": 42,
          "name": "F#2",
          "ticks": 22464,
          "time": 18.28125,
          "velocity": 0.7874015748031497
        },
        {
          "duration": 0.15625,
          "durationTicks": 192,
          "midi": 59,
          "name": "B3",
          "ticks": 22656,
          "time": 18.4375,
          "velocity": 0.7874015748031497
        },
        {
          "duration": 0.15625,
          "durationTicks": 192,
          "midi": 38,
          "name": "D2",
          "ticks": 22656,
          "time": 18.4375,
          "velocity": 0.7874015748031497
        },
        {
          "duration": 0.15625,
          "durationTicks": 192,
          "midi": 40,
          "name": "E2",
          "ticks": 22656,
          "time": 18.4375,
          "velocity": 0.7874015748031497
        },
        {
          "duration": 0.15625,
          "durationTicks": 192,
          "midi": 54,
          "name": "F#3",
          "ticks": 22656,
          "time": 18.4375,
          "velocity": 0.7874015748031497
        },
        {
          "duration": 0.15625,
          "durationTicks": 192,
          "midi": 42,
          "name": "F#2",
          "ticks": 22848,
          "time": 18.59375,
          "velocity": 0.7874015748031497
        },
        {
          "duration": 0.15625,
          "durationTicks": 192,
          "midi": 36,
          "name": "C2",
          "ticks": 23040,
          "time": 18.75,
          "velocity": 0.7874015748031497
        },
        {
          "duration": 0.15625,
          "durationTicks": 192,
          "midi": 49,
          "name": "C#3",
          "ticks": 23040,
          "time": 18.75,
          "velocity": 0.7874015748031497
        },
        {
          "duration": 0.15625,
          "durationTicks": 192,
          "midi": 54,
          "name": "F#3",
          "ticks": 23040,
          "time": 18.75,
          "velocity": 0.7874015748031497
        },
        {
          "duration": 0.15625,
          "durationTicks": 192,
          "midi": 57,
          "name": "A3",
          "ticks": 23040,
          "time": 18.75,
          "velocity": 0.7874015748031497
        },
        {
          "duration": 0.15625,
          "durationTicks": 192,
          "midi": 59,
          "name": "B3",
          "ticks": 23040,
          "time": 18.75,
          "velocity": 0.7874015748031497
        },
        {
          "duration": 0.15625,
          "durationTicks": 192,
          "midi": 42,
          "name": "F#2",
          "ticks": 23232,
          "time": 18.90625,
          "velocity": 0.7874015748031497
        },
        {
          "duration": 0.15625,
          "durationTicks": 192,
          "midi": 54,
          "name": "F#3",
          "ticks": 23424,
          "time": 19.0625,
          "velocity": 0.7874015748031497
        },
        {
          "duration": 0.15625,
          "durationTicks": 192,
          "midi": 59,
          "name": "B3",
          "ticks": 23424,
          "time": 19.0625,
          "velocity": 0.7874015748031497
        },
        {
          "duration": 0.15625,
          "durationTicks": 192,
          "midi": 38,
          "name": "D2",
          "ticks": 23424,
          "time": 19.0625,
          "velocity": 0.7874015748031497
        },
        {
          "duration": 0.15625,
          "durationTicks": 192,
          "midi": 40,
          "name": "E2",
          "ticks": 23424,
          "time": 19.0625,
          "velocity": 0.7874015748031497
        },
        {
          "duration": 0.15625,
          "durationTicks": 192,
          "midi": 42,
          "name": "F#2",
          "ticks": 23616,
          "time": 19.21875,
          "velocity": 0.7874015748031497
        },
        {
          "duration": 0.15625,
          "durationTicks": 192,
          "midi": 36,
          "name": "C2",
          "ticks": 23808,
          "time": 19.375,
          "velocity": 0.7874015748031497
        },
        {
          "duration": 0.15625,
          "durationTicks": 192,
          "midi": 54,
          "name": "F#3",
          "ticks": 23808,
          "time": 19.375,
          "velocity": 0.7874015748031497
        },
        {
          "duration": 0.15625,
          "durationTicks": 192,
          "midi": 59,
          "name": "B3",
          "ticks": 23808,
          "time": 19.375,
          "velocity": 0.7874015748031497
        },
        {
          "duration": 0.15625,
          "durationTicks": 192,
          "midi": 42,
          "name": "F#2",
          "ticks": 24000,
          "time": 19.53125,
          "velocity": 0.7874015748031497
        },
        {
          "duration": 0.15625,
          "durationTicks": 192,
          "midi": 54,
          "name": "F#3",
          "ticks": 24192,
          "time": 19.6875,
          "velocity": 0.7874015748031497
        },
        {
          "duration": 0.15625,
          "durationTicks": 192,
          "midi": 59,
          "name": "B3",
          "ticks": 24192,
          "time": 19.6875,
          "velocity": 0.7874015748031497
        },
        {
          "duration": 0.15625,
          "durationTicks": 192,
          "midi": 38,
          "name": "D2",
          "ticks": 24192,
          "time": 19.6875,
          "velocity": 0.7874015748031497
        },
        {
          "duration": 0.15625,
          "durationTicks": 192,
          "midi": 40,
          "name": "E2",
          "ticks": 24192,
          "time": 19.6875,
          "velocity": 0.7874015748031497
        },
        {
          "duration": 0.15625,
          "durationTicks": 192,
          "midi": 42,
          "name": "F#2",
          "ticks": 24384,
          "time": 19.84375,
          "velocity": 0.7874015748031497
        },
        {
          "duration": 0.15625,
          "durationTicks": 192,
          "midi": 59,
          "name": "B3",
          "ticks": 24576,
          "time": 20,
          "velocity": 0.7874015748031497
        },
        {
          "duration": 0.15625,
          "durationTicks": 192,
          "midi": 54,
          "name": "F#3",
          "ticks": 24576,
          "time": 20,
          "velocity": 0.7874015748031497
        },
        {
          "duration": 0.15625,
          "durationTicks": 192,
          "midi": 36,
          "name": "C2",
          "ticks": 24576,
          "time": 20,
          "velocity": 0.7874015748031497
        },
        {
          "duration": 0.15625,
          "durationTicks": 192,
          "midi": 42,
          "name": "F#2",
          "ticks": 24768,
          "time": 20.15625,
          "velocity": 0.7874015748031497
        },
        {
          "duration": 0.15625,
          "durationTicks": 192,
          "midi": 40,
          "name": "E2",
          "ticks": 24960,
          "time": 20.3125,
          "velocity": 0.7874015748031497
        },
        {
          "duration": 0.15625,
          "durationTicks": 192,
          "midi": 54,
          "name": "F#3",
          "ticks": 24960,
          "time": 20.3125,
          "velocity": 0.7874015748031497
        },
        {
          "duration": 0.15625,
          "durationTicks": 192,
          "midi": 59,
          "name": "B3",
          "ticks": 24960,
          "time": 20.3125,
          "velocity": 0.7874015748031497
        },
        {
          "duration": 0.15625,
          "durationTicks": 192,
          "midi": 38,
          "name": "D2",
          "ticks": 24960,
          "time": 20.3125,
          "velocity": 0.7874015748031497
        },
        {
          "duration": 0.15625,
          "durationTicks": 192,
          "midi": 42,
          "name": "F#2",
          "ticks": 25152,
          "time": 20.46875,
          "velocity": 0.7874015748031497
        },
        {
          "duration": 0.15625,
          "durationTicks": 192,
          "midi": 59,
          "name": "B3",
          "ticks": 25344,
          "time": 20.625,
          "velocity": 0.7874015748031497
        },
        {
          "duration": 0.15625,
          "durationTicks": 192,
          "midi": 54,
          "name": "F#3",
          "ticks": 25344,
          "time": 20.625,
          "velocity": 0.7874015748031497
        },
        {
          "duration": 0.15625,
          "durationTicks": 192,
          "midi": 36,
          "name": "C2",
          "ticks": 25344,
          "time": 20.625,
          "velocity": 0.7874015748031497
        },
        {
          "duration": 0.15625,
          "durationTicks": 192,
          "midi": 42,
          "name": "F#2",
          "ticks": 25536,
          "time": 20.78125,
          "velocity": 0.7874015748031497
        },
        {
          "duration": 0.15625,
          "durationTicks": 192,
          "midi": 40,
          "name": "E2",
          "ticks": 25728,
          "time": 20.9375,
          "velocity": 0.7874015748031497
        },
        {
          "duration": 0.15625,
          "durationTicks": 192,
          "midi": 38,
          "name": "D2",
          "ticks": 25728,
          "time": 20.9375,
          "velocity": 0.7874015748031497
        },
        {
          "duration": 0.15625,
          "durationTicks": 192,
          "midi": 54,
          "name": "F#3",
          "ticks": 25728,
          "time": 20.9375,
          "velocity": 0.7874015748031497
        },
        {
          "duration": 0.15625,
          "durationTicks": 192,
          "midi": 59,
          "name": "B3",
          "ticks": 25728,
          "time": 20.9375,
          "velocity": 0.7874015748031497
        },
        {
          "duration": 0.15625,
          "durationTicks": 192,
          "midi": 42,
          "name": "F#2",
          "ticks": 25920,
          "time": 21.09375,
          "velocity": 0.7874015748031497
        },
        {
          "duration": 0.15625,
          "durationTicks": 192,
          "midi": 36,
          "name": "C2",
          "ticks": 26112,
          "time": 21.25,
          "velocity": 0.7874015748031497
        },
        {
          "duration": 0.15625,
          "durationTicks": 192,
          "midi": 54,
          "name": "F#3",
          "ticks": 26112,
          "time": 21.25,
          "velocity": 0.7874015748031497
        },
        {
          "duration": 0.15625,
          "durationTicks": 192,
          "midi": 59,
          "name": "B3",
          "ticks": 26112,
          "time": 21.25,
          "velocity": 0.7874015748031497
        },
        {
          "duration": 0.15625,
          "durationTicks": 192,
          "midi": 42,
          "name": "F#2",
          "ticks": 26304,
          "time": 21.40625,
          "velocity": 0.7874015748031497
        },
        {
          "duration": 0.15625,
          "durationTicks": 192,
          "midi": 38,
          "name": "D2",
          "ticks": 26496,
          "time": 21.5625,
          "velocity": 0.7874015748031497
        },
        {
          "duration": 0.15625,
          "durationTicks": 192,
          "midi": 40,
          "name": "E2",
          "ticks": 26496,
          "time": 21.5625,
          "velocity": 0.7874015748031497
        },
        {
          "duration": 0.15625,
          "durationTicks": 192,
          "midi": 54,
          "name": "F#3",
          "ticks": 26496,
          "time": 21.5625,
          "velocity": 0.7874015748031497
        },
        {
          "duration": 0.15625,
          "durationTicks": 192,
          "midi": 59,
          "name": "B3",
          "ticks": 26496,
          "time": 21.5625,
          "velocity": 0.7874015748031497
        },
        {
          "duration": 0.15625,
          "durationTicks": 192,
          "midi": 42,
          "name": "F#2",
          "ticks": 26688,
          "time": 21.71875,
          "velocity": 0.7874015748031497
        },
        {
          "duration": 0.15625,
          "durationTicks": 192,
          "midi": 59,
          "name": "B3",
          "ticks": 26880,
          "time": 21.875,
          "velocity": 0.7874015748031497
        },
        {
          "duration": 0.15625,
          "durationTicks": 192,
          "midi": 54,
          "name": "F#3",
          "ticks": 26880,
          "time": 21.875,
          "velocity": 0.7874015748031497
        },
        {
          "duration": 0.15625,
          "durationTicks": 192,
          "midi": 36,
          "name": "C2",
          "ticks": 26880,
          "time": 21.875,
          "velocity": 0.7874015748031497
        },
        {
          "duration": 0.15625,
          "durationTicks": 192,
          "midi": 42,
          "name": "F#2",
          "ticks": 27072,
          "time": 22.03125,
          "velocity": 0.7874015748031497
        },
        {
          "duration": 0.15625,
          "durationTicks": 192,
          "midi": 59,
          "name": "B3",
          "ticks": 27264,
          "time": 22.1875,
          "velocity": 0.7874015748031497
        },
        {
          "duration": 0.15625,
          "durationTicks": 192,
          "midi": 38,
          "name": "D2",
          "ticks": 27264,
          "time": 22.1875,
          "velocity": 0.7874015748031497
        },
        {
          "duration": 0.15625,
          "durationTicks": 192,
          "midi": 40,
          "name": "E2",
          "ticks": 27264,
          "time": 22.1875,
          "velocity": 0.7874015748031497
        },
        {
          "duration": 0.15625,
          "durationTicks": 192,
          "midi": 54,
          "name": "F#3",
          "ticks": 27264,
          "time": 22.1875,
          "velocity": 0.7874015748031497
        },
        {
          "duration": 0.15625,
          "durationTicks": 192,
          "midi": 42,
          "name": "F#2",
          "ticks": 27456,
          "time": 22.34375,
          "velocity": 0.7874015748031497
        },
        {
          "duration": 0.15625,
          "durationTicks": 192,
          "midi": 36,
          "name": "C2",
          "ticks": 27648,
          "time": 22.5,
          "velocity": 0.7874015748031497
        },
        {
          "duration": 0.15625,
          "durationTicks": 192,
          "midi": 54,
          "name": "F#3",
          "ticks": 27648,
          "time": 22.5,
          "velocity": 0.7874015748031497
        },
        {
          "duration": 0.15625,
          "durationTicks": 192,
          "midi": 59,
          "name": "B3",
          "ticks": 27648,
          "time": 22.5,
          "velocity": 0.7874015748031497
        },
        {
          "duration": 0.15625,
          "durationTicks": 192,
          "midi": 42,
          "name": "F#2",
          "ticks": 27840,
          "time": 22.65625,
          "velocity": 0.7874015748031497
        },
        {
          "duration": 0.15625,
          "durationTicks": 192,
          "midi": 59,
          "name": "B3",
          "ticks": 28032,
          "time": 22.8125,
          "velocity": 0.7874015748031497
        },
        {
          "duration": 0.15625,
          "durationTicks": 192,
          "midi": 54,
          "name": "F#3",
          "ticks": 28032,
          "time": 22.8125,
          "velocity": 0.7874015748031497
        },
        {
          "duration": 0.15625,
          "durationTicks": 192,
          "midi": 38,
          "name": "D2",
          "ticks": 28032,
          "time": 22.8125,
          "velocity": 0.7874015748031497
        },
        {
          "duration": 0.15625,
          "durationTicks": 192,
          "midi": 40,
          "name": "E2",
          "ticks": 28032,
          "time": 22.8125,
          "velocity": 0.7874015748031497
        },
        {
          "duration": 0.15625,
          "durationTicks": 192,
          "midi": 42,
          "name": "F#2",
          "ticks": 28224,
          "time": 22.96875,
          "velocity": 0.7874015748031497
        },
        {
          "duration": 0.15625,
          "durationTicks": 192,
          "midi": 54,
          "name": "F#3",
          "ticks": 28416,
          "time": 23.125,
          "velocity": 0.7874015748031497
        },
        {
          "duration": 0.15625,
          "durationTicks": 192,
          "midi": 36,
          "name": "C2",
          "ticks": 28416,
          "time": 23.125,
          "velocity": 0.7874015748031497
        },
        {
          "duration": 0.15625,
          "durationTicks": 192,
          "midi": 59,
          "name": "B3",
          "ticks": 28416,
          "time": 23.125,
          "velocity": 0.7874015748031497
        },
        {
          "duration": 0.15625,
          "durationTicks": 192,
          "midi": 42,
          "name": "F#2",
          "ticks": 28608,
          "time": 23.28125,
          "velocity": 0.7874015748031497
        },
        {
          "duration": 0.15625,
          "durationTicks": 192,
          "midi": 59,
          "name": "B3",
          "ticks": 28800,
          "time": 23.4375,
          "velocity": 0.7874015748031497
        },
        {
          "duration": 0.15625,
          "durationTicks": 192,
          "midi": 54,
          "name": "F#3",
          "ticks": 28800,
          "time": 23.4375,
          "velocity": 0.7874015748031497
        },
        {
          "duration": 0.15625,
          "durationTicks": 192,
          "midi": 40,
          "name": "E2",
          "ticks": 28800,
          "time": 23.4375,
          "velocity": 0.7874015748031497
        },
        {
          "duration": 0.15625,
          "durationTicks": 192,
          "midi": 38,
          "name": "D2",
          "ticks": 28800,
          "time": 23.4375,
          "velocity": 0.7874015748031497
        },
        {
          "duration": 0.15625,
          "durationTicks": 192,
          "midi": 42,
          "name": "F#2",
          "ticks": 28992,
          "time": 23.59375,
          "velocity": 0.7874015748031497
        },
        {
          "duration": 0.15625,
          "durationTicks": 192,
          "midi": 54,
          "name": "F#3",
          "ticks": 29184,
          "time": 23.75,
          "velocity": 0.7874015748031497
        },
        {
          "duration": 0.15625,
          "durationTicks": 192,
          "midi": 36,
          "name": "C2",
          "ticks": 29184,
          "time": 23.75,
          "velocity": 0.7874015748031497
        },
        {
          "duration": 0.15625,
          "durationTicks": 192,
          "midi": 59,
          "name": "B3",
          "ticks": 29184,
          "time": 23.75,
          "velocity": 0.7874015748031497
        },
        {
          "duration": 0.15625,
          "durationTicks": 192,
          "midi": 42,
          "name": "F#2",
          "ticks": 29376,
          "time": 23.90625,
          "velocity": 0.7874015748031497
        },
        {
          "duration": 0.15625,
          "durationTicks": 192,
          "midi": 38,
          "name": "D2",
          "ticks": 29568,
          "time": 24.0625,
          "velocity": 0.7874015748031497
        },
        {
          "duration": 0.15625,
          "durationTicks": 192,
          "midi": 40,
          "name": "E2",
          "ticks": 29568,
          "time": 24.0625,
          "velocity": 0.7874015748031497
        },
        {
          "duration": 0.15625,
          "durationTicks": 192,
          "midi": 54,
          "name": "F#3",
          "ticks": 29568,
          "time": 24.0625,
          "velocity": 0.7874015748031497
        },
        {
          "duration": 0.15625,
          "durationTicks": 192,
          "midi": 59,
          "name": "B3",
          "ticks": 29568,
          "time": 24.0625,
          "velocity": 0.7874015748031497
        },
        {
          "duration": 0.15625,
          "durationTicks": 192,
          "midi": 42,
          "name": "F#2",
          "ticks": 29760,
          "time": 24.21875,
          "velocity": 0.7874015748031497
        },
        {
          "duration": 0.15625,
          "durationTicks": 192,
          "midi": 36,
          "name": "C2",
          "ticks": 29952,
          "time": 24.375,
          "velocity": 0.7874015748031497
        },
        {
          "duration": 0.15625,
          "durationTicks": 192,
          "midi": 59,
          "name": "B3",
          "ticks": 29952,
          "time": 24.375,
          "velocity": 0.7874015748031497
        },
        {
          "duration": 0.15625,
          "durationTicks": 192,
          "midi": 54,
          "name": "F#3",
          "ticks": 29952,
          "time": 24.375,
          "velocity": 0.7874015748031497
        },
        {
          "duration": 0.15625,
          "durationTicks": 192,
          "midi": 42,
          "name": "F#2",
          "ticks": 30144,
          "time": 24.53125,
          "velocity": 0.7874015748031497
        },
        {
          "duration": 0.15625,
          "durationTicks": 192,
          "midi": 59,
          "name": "B3",
          "ticks": 30336,
          "time": 24.6875,
          "velocity": 0.7874015748031497
        },
        {
          "duration": 0.15625,
          "durationTicks": 192,
          "midi": 38,
          "name": "D2",
          "ticks": 30336,
          "time": 24.6875,
          "velocity": 0.7874015748031497
        },
        {
          "duration": 0.15625,
          "durationTicks": 192,
          "midi": 54,
          "name": "F#3",
          "ticks": 30336,
          "time": 24.6875,
          "velocity": 0.7874015748031497
        },
        {
          "duration": 0.15625,
          "durationTicks": 192,
          "midi": 40,
          "name": "E2",
          "ticks": 30336,
          "time": 24.6875,
          "velocity": 0.7874015748031497
        },
        {
          "duration": 0.15625,
          "durationTicks": 192,
          "midi": 42,
          "name": "F#2",
          "ticks": 30528,
          "time": 24.84375,
          "velocity": 0.7874015748031497
        },
        {
          "duration": 0.15625,
          "durationTicks": 192,
          "midi": 36,
          "name": "C2",
          "ticks": 30720,
          "time": 25,
          "velocity": 0.7874015748031497
        },
        {
          "duration": 0.15625,
          "durationTicks": 192,
          "midi": 54,
          "name": "F#3",
          "ticks": 30720,
          "time": 25,
          "velocity": 0.7874015748031497
        },
        {
          "duration": 0.15625,
          "durationTicks": 192,
          "midi": 57,
          "name": "A3",
          "ticks": 30720,
          "time": 25,
          "velocity": 0.7874015748031497
        },
        {
          "duration": 0.15625,
          "durationTicks": 192,
          "midi": 59,
          "name": "B3",
          "ticks": 30720,
          "time": 25,
          "velocity": 0.7874015748031497
        },
        {
          "duration": 0.15625,
          "durationTicks": 192,
          "midi": 49,
          "name": "C#3",
          "ticks": 30720,
          "time": 25,
          "velocity": 0.7874015748031497
        },
        {
          "duration": 0.15625,
          "durationTicks": 192,
          "midi": 42,
          "name": "F#2",
          "ticks": 30912,
          "time": 25.15625,
          "velocity": 0.7874015748031497
        },
        {
          "duration": 0.15625,
          "durationTicks": 192,
          "midi": 59,
          "name": "B3",
          "ticks": 31104,
          "time": 25.3125,
          "velocity": 0.7874015748031497
        },
        {
          "duration": 0.15625,
          "durationTicks": 192,
          "midi": 54,
          "name": "F#3",
          "ticks": 31104,
          "time": 25.3125,
          "velocity": 0.7874015748031497
        },
        {
          "duration": 0.15625,
          "durationTicks": 192,
          "midi": 38,
          "name": "D2",
          "ticks": 31104,
          "time": 25.3125,
          "velocity": 0.7874015748031497
        },
        {
          "duration": 0.15625,
          "durationTicks": 192,
          "midi": 40,
          "name": "E2",
          "ticks": 31104,
          "time": 25.3125,
          "velocity": 0.7874015748031497
        },
        {
          "duration": 0.15625,
          "durationTicks": 192,
          "midi": 42,
          "name": "F#2",
          "ticks": 31296,
          "time": 25.46875,
          "velocity": 0.7874015748031497
        },
        {
          "duration": 0.15625,
          "durationTicks": 192,
          "midi": 36,
          "name": "C2",
          "ticks": 31488,
          "time": 25.625,
          "velocity": 0.7874015748031497
        },
        {
          "duration": 0.15625,
          "durationTicks": 192,
          "midi": 54,
          "name": "F#3",
          "ticks": 31488,
          "time": 25.625,
          "velocity": 0.7874015748031497
        },
        {
          "duration": 0.15625,
          "durationTicks": 192,
          "midi": 59,
          "name": "B3",
          "ticks": 31488,
          "time": 25.625,
          "velocity": 0.7874015748031497
        },
        {
          "duration": 0.15625,
          "durationTicks": 192,
          "midi": 42,
          "name": "F#2",
          "ticks": 31680,
          "time": 25.78125,
          "velocity": 0.7874015748031497
        },
        {
          "duration": 0.15625,
          "durationTicks": 192,
          "midi": 40,
          "name": "E2",
          "ticks": 31872,
          "time": 25.9375,
          "velocity": 0.7874015748031497
        },
        {
          "duration": 0.15625,
          "durationTicks": 192,
          "midi": 38,
          "name": "D2",
          "ticks": 31872,
          "time": 25.9375,
          "velocity": 0.7874015748031497
        },
        {
          "duration": 0.15625,
          "durationTicks": 192,
          "midi": 54,
          "name": "F#3",
          "ticks": 31872,
          "time": 25.9375,
          "velocity": 0.7874015748031497
        },
        {
          "duration": 0.15625,
          "durationTicks": 192,
          "midi": 59,
          "name": "B3",
          "ticks": 31872,
          "time": 25.9375,
          "velocity": 0.7874015748031497
        },
        {
          "duration": 0.15625,
          "durationTicks": 192,
          "midi": 42,
          "name": "F#2",
          "ticks": 32064,
          "time": 26.09375,
          "velocity": 0.7874015748031497
        },
        {
          "duration": 0.15625,
          "durationTicks": 192,
          "midi": 59,
          "name": "B3",
          "ticks": 32256,
          "time": 26.25,
          "velocity": 0.7874015748031497
        },
        {
          "duration": 0.15625,
          "durationTicks": 192,
          "midi": 54,
          "name": "F#3",
          "ticks": 32256,
          "time": 26.25,
          "velocity": 0.7874015748031497
        },
        {
          "duration": 0.15625,
          "durationTicks": 192,
          "midi": 36,
          "name": "C2",
          "ticks": 32256,
          "time": 26.25,
          "velocity": 0.7874015748031497
        },
        {
          "duration": 0.15625,
          "durationTicks": 192,
          "midi": 42,
          "name": "F#2",
          "ticks": 32448,
          "time": 26.40625,
          "velocity": 0.7874015748031497
        },
        {
          "duration": 0.15625,
          "durationTicks": 192,
          "midi": 38,
          "name": "D2",
          "ticks": 32640,
          "time": 26.5625,
          "velocity": 0.7874015748031497
        },
        {
          "duration": 0.15625,
          "durationTicks": 192,
          "midi": 40,
          "name": "E2",
          "ticks": 32640,
          "time": 26.5625,
          "velocity": 0.7874015748031497
        },
        {
          "duration": 0.15625,
          "durationTicks": 192,
          "midi": 54,
          "name": "F#3",
          "ticks": 32640,
          "time": 26.5625,
          "velocity": 0.7874015748031497
        },
        {
          "duration": 0.15625,
          "durationTicks": 192,
          "midi": 59,
          "name": "B3",
          "ticks": 32640,
          "time": 26.5625,
          "velocity": 0.7874015748031497
        },
        {
          "duration": 0.15625,
          "durationTicks": 192,
          "midi": 42,
          "name": "F#2",
          "ticks": 32832,
          "time": 26.71875,
          "velocity": 0.7874015748031497
        },
        {
          "duration": 0.15625,
          "durationTicks": 192,
          "midi": 54,
          "name": "F#3",
          "ticks": 33024,
          "time": 26.875,
          "velocity": 0.7874015748031497
        },
        {
          "duration": 0.15625,
          "durationTicks": 192,
          "midi": 59,
          "name": "B3",
          "ticks": 33024,
          "time": 26.875,
          "velocity": 0.7874015748031497
        },
        {
          "duration": 0.15625,
          "durationTicks": 192,
          "midi": 36,
          "name": "C2",
          "ticks": 33024,
          "time": 26.875,
          "velocity": 0.7874015748031497
        },
        {
          "duration": 0.15625,
          "durationTicks": 192,
          "midi": 42,
          "name": "F#2",
          "ticks": 33216,
          "time": 27.03125,
          "velocity": 0.7874015748031497
        },
        {
          "duration": 0.15625,
          "durationTicks": 192,
          "midi": 38,
          "name": "D2",
          "ticks": 33408,
          "time": 27.1875,
          "velocity": 0.7874015748031497
        },
        {
          "duration": 0.15625,
          "durationTicks": 192,
          "midi": 54,
          "name": "F#3",
          "ticks": 33408,
          "time": 27.1875,
          "velocity": 0.7874015748031497
        },
        {
          "duration": 0.15625,
          "durationTicks": 192,
          "midi": 59,
          "name": "B3",
          "ticks": 33408,
          "time": 27.1875,
          "velocity": 0.7874015748031497
        },
        {
          "duration": 0.15625,
          "durationTicks": 192,
          "midi": 40,
          "name": "E2",
          "ticks": 33408,
          "time": 27.1875,
          "velocity": 0.7874015748031497
        },
        {
          "duration": 0.15625,
          "durationTicks": 192,
          "midi": 42,
          "name": "F#2",
          "ticks": 33600,
          "time": 27.34375,
          "velocity": 0.7874015748031497
        },
        {
          "duration": 0.15625,
          "durationTicks": 192,
          "midi": 59,
          "name": "B3",
          "ticks": 33792,
          "time": 27.5,
          "velocity": 0.7874015748031497
        },
        {
          "duration": 0.15625,
          "durationTicks": 192,
          "midi": 54,
          "name": "F#3",
          "ticks": 33792,
          "time": 27.5,
          "velocity": 0.7874015748031497
        },
        {
          "duration": 0.15625,
          "durationTicks": 192,
          "midi": 36,
          "name": "C2",
          "ticks": 33792,
          "time": 27.5,
          "velocity": 0.7874015748031497
        },
        {
          "duration": 0.15625,
          "durationTicks": 192,
          "midi": 42,
          "name": "F#2",
          "ticks": 33984,
          "time": 27.65625,
          "velocity": 0.7874015748031497
        },
        {
          "duration": 0.15625,
          "durationTicks": 192,
          "midi": 38,
          "name": "D2",
          "ticks": 34176,
          "time": 27.8125,
          "velocity": 0.7874015748031497
        },
        {
          "duration": 0.15625,
          "durationTicks": 192,
          "midi": 40,
          "name": "E2",
          "ticks": 34176,
          "time": 27.8125,
          "velocity": 0.7874015748031497
        },
        {
          "duration": 0.15625,
          "durationTicks": 192,
          "midi": 54,
          "name": "F#3",
          "ticks": 34176,
          "time": 27.8125,
          "velocity": 0.7874015748031497
        },
        {
          "duration": 0.15625,
          "durationTicks": 192,
          "midi": 59,
          "name": "B3",
          "ticks": 34176,
          "time": 27.8125,
          "velocity": 0.7874015748031497
        },
        {
          "duration": 0.15625,
          "durationTicks": 192,
          "midi": 42,
          "name": "F#2",
          "ticks": 34368,
          "time": 27.96875,
          "velocity": 0.7874015748031497
        },
        {
          "duration": 0.15625,
          "durationTicks": 192,
          "midi": 36,
          "name": "C2",
          "ticks": 34560,
          "time": 28.125,
          "velocity": 0.7874015748031497
        },
        {
          "duration": 0.15625,
          "durationTicks": 192,
          "midi": 59,
          "name": "B3",
          "ticks": 34560,
          "time": 28.125,
          "velocity": 0.7874015748031497
        },
        {
          "duration": 0.15625,
          "durationTicks": 192,
          "midi": 54,
          "name": "F#3",
          "ticks": 34560,
          "time": 28.125,
          "velocity": 0.7874015748031497
        },
        {
          "duration": 0.15625,
          "durationTicks": 192,
          "midi": 42,
          "name": "F#2",
          "ticks": 34752,
          "time": 28.28125,
          "velocity": 0.7874015748031497
        },
        {
          "duration": 0.15625,
          "durationTicks": 192,
          "midi": 59,
          "name": "B3",
          "ticks": 34944,
          "time": 28.4375,
          "velocity": 0.7874015748031497
        },
        {
          "duration": 0.15625,
          "durationTicks": 192,
          "midi": 38,
          "name": "D2",
          "ticks": 34944,
          "time": 28.4375,
          "velocity": 0.7874015748031497
        },
        {
          "duration": 0.15625,
          "durationTicks": 192,
          "midi": 40,
          "name": "E2",
          "ticks": 34944,
          "time": 28.4375,
          "velocity": 0.7874015748031497
        },
        {
          "duration": 0.15625,
          "durationTicks": 192,
          "midi": 54,
          "name": "F#3",
          "ticks": 34944,
          "time": 28.4375,
          "velocity": 0.7874015748031497
        },
        {
          "duration": 0.15625,
          "durationTicks": 192,
          "midi": 42,
          "name": "F#2",
          "ticks": 35136,
          "time": 28.59375,
          "velocity": 0.7874015748031497
        },
        {
          "duration": 0.15625,
          "durationTicks": 192,
          "midi": 59,
          "name": "B3",
          "ticks": 35328,
          "time": 28.75,
          "velocity": 0.7874015748031497
        },
        {
          "duration": 0.15625,
          "durationTicks": 192,
          "midi": 36,
          "name": "C2",
          "ticks": 35328,
          "time": 28.75,
          "velocity": 0.7874015748031497
        },
        {
          "duration": 0.15625,
          "durationTicks": 192,
          "midi": 54,
          "name": "F#3",
          "ticks": 35328,
          "time": 28.75,
          "velocity": 0.7874015748031497
        },
        {
          "duration": 0.15625,
          "durationTicks": 192,
          "midi": 42,
          "name": "F#2",
          "ticks": 35520,
          "time": 28.90625,
          "velocity": 0.7874015748031497
        },
        {
          "duration": 0.15625,
          "durationTicks": 192,
          "midi": 40,
          "name": "E2",
          "ticks": 35712,
          "time": 29.0625,
          "velocity": 0.7874015748031497
        },
        {
          "duration": 0.15625,
          "durationTicks": 192,
          "midi": 54,
          "name": "F#3",
          "ticks": 35712,
          "time": 29.0625,
          "velocity": 0.7874015748031497
        },
        {
          "duration": 0.15625,
          "durationTicks": 192,
          "midi": 59,
          "name": "B3",
          "ticks": 35712,
          "time": 29.0625,
          "velocity": 0.7874015748031497
        },
        {
          "duration": 0.15625,
          "durationTicks": 192,
          "midi": 38,
          "name": "D2",
          "ticks": 35712,
          "time": 29.0625,
          "velocity": 0.7874015748031497
        },
        {
          "duration": 0.15625,
          "durationTicks": 192,
          "midi": 42,
          "name": "F#2",
          "ticks": 35904,
          "time": 29.21875,
          "velocity": 0.7874015748031497
        },
        {
          "duration": 0.15625,
          "durationTicks": 192,
          "midi": 54,
          "name": "F#3",
          "ticks": 36096,
          "time": 29.375,
          "velocity": 0.7874015748031497
        },
        {
          "duration": 0.15625,
          "durationTicks": 192,
          "midi": 59,
          "name": "B3",
          "ticks": 36096,
          "time": 29.375,
          "velocity": 0.7874015748031497
        },
        {
          "duration": 0.15625,
          "durationTicks": 192,
          "midi": 36,
          "name": "C2",
          "ticks": 36096,
          "time": 29.375,
          "velocity": 0.7874015748031497
        },
        {
          "duration": 0.15625,
          "durationTicks": 192,
          "midi": 42,
          "name": "F#2",
          "ticks": 36288,
          "time": 29.53125,
          "velocity": 0.7874015748031497
        },
        {
          "duration": 0.15625,
          "durationTicks": 192,
          "midi": 59,
          "name": "B3",
          "ticks": 36480,
          "time": 29.6875,
          "velocity": 0.7874015748031497
        },
        {
          "duration": 0.15625,
          "durationTicks": 192,
          "midi": 40,
          "name": "E2",
          "ticks": 36480,
          "time": 29.6875,
          "velocity": 0.7874015748031497
        },
        {
          "duration": 0.15625,
          "durationTicks": 192,
          "midi": 54,
          "name": "F#3",
          "ticks": 36480,
          "time": 29.6875,
          "velocity": 0.7874015748031497
        },
        {
          "duration": 0.15625,
          "durationTicks": 192,
          "midi": 38,
          "name": "D2",
          "ticks": 36480,
          "time": 29.6875,
          "velocity": 0.7874015748031497
        },
        {
          "duration": 0.15625,
          "durationTicks": 192,
          "midi": 42,
          "name": "F#2",
          "ticks": 36672,
          "time": 29.84375,
          "velocity": 0.7874015748031497
        },
        {
          "duration": 0.15625,
          "durationTicks": 192,
          "midi": 59,
          "name": "B3",
          "ticks": 36864,
          "time": 30,
          "velocity": 0.7874015748031497
        },
        {
          "duration": 0.15625,
          "durationTicks": 192,
          "midi": 54,
          "name": "F#3",
          "ticks": 36864,
          "time": 30,
          "velocity": 0.7874015748031497
        },
        {
          "duration": 0.15625,
          "durationTicks": 192,
          "midi": 36,
          "name": "C2",
          "ticks": 36864,
          "time": 30,
          "velocity": 0.7874015748031497
        },
        {
          "duration": 0.15625,
          "durationTicks": 192,
          "midi": 42,
          "name": "F#2",
          "ticks": 37056,
          "time": 30.15625,
          "velocity": 0.7874015748031497
        },
        {
          "duration": 0.15625,
          "durationTicks": 192,
          "midi": 54,
          "name": "F#3",
          "ticks": 37248,
          "time": 30.3125,
          "velocity": 0.7874015748031497
        },
        {
          "duration": 0.15625,
          "durationTicks": 192,
          "midi": 38,
          "name": "D2",
          "ticks": 37248,
          "time": 30.3125,
          "velocity": 0.7874015748031497
        },
        {
          "duration": 0.15625,
          "durationTicks": 192,
          "midi": 40,
          "name": "E2",
          "ticks": 37248,
          "time": 30.3125,
          "velocity": 0.7874015748031497
        },
        {
          "duration": 0.15625,
          "durationTicks": 192,
          "midi": 59,
          "name": "B3",
          "ticks": 37248,
          "time": 30.3125,
          "velocity": 0.7874015748031497
        },
        {
          "duration": 0.15625,
          "durationTicks": 192,
          "midi": 42,
          "name": "F#2",
          "ticks": 37440,
          "time": 30.46875,
          "velocity": 0.7874015748031497
        },
        {
          "duration": 0.15625,
          "durationTicks": 192,
          "midi": 36,
          "name": "C2",
          "ticks": 37632,
          "time": 30.625,
          "velocity": 0.7874015748031497
        },
        {
          "duration": 0.15625,
          "durationTicks": 192,
          "midi": 54,
          "name": "F#3",
          "ticks": 37632,
          "time": 30.625,
          "velocity": 0.7874015748031497
        },
        {
          "duration": 0.15625,
          "durationTicks": 192,
          "midi": 59,
          "name": "B3",
          "ticks": 37632,
          "time": 30.625,
          "velocity": 0.7874015748031497
        },
        {
          "duration": 0.15625,
          "durationTicks": 192,
          "midi": 42,
          "name": "F#2",
          "ticks": 37824,
          "time": 30.78125,
          "velocity": 0.7874015748031497
        },
        {
          "duration": 0.15625,
          "durationTicks": 192,
          "midi": 38,
          "name": "D2",
          "ticks": 38016,
          "time": 30.9375,
          "velocity": 0.7874015748031497
        },
        {
          "duration": 0.15625,
          "durationTicks": 192,
          "midi": 40,
          "name": "E2",
          "ticks": 38016,
          "time": 30.9375,
          "velocity": 0.7874015748031497
        },
        {
          "duration": 0.15625,
          "durationTicks": 192,
          "midi": 59,
          "name": "B3",
          "ticks": 38016,
          "time": 30.9375,
          "velocity": 0.7874015748031497
        },
        {
          "duration": 0.15625,
          "durationTicks": 192,
          "midi": 54,
          "name": "F#3",
          "ticks": 38016,
          "time": 30.9375,
          "velocity": 0.7874015748031497
        },
        {
          "duration": 0.15625,
          "durationTicks": 192,
          "midi": 42,
          "name": "F#2",
          "ticks": 38208,
          "time": 31.09375,
          "velocity": 0.7874015748031497
        },
        {
          "duration": 0.15625,
          "durationTicks": 192,
          "midi": 36,
          "name": "C2",
          "ticks": 38400,
          "time": 31.25,
          "velocity": 0.7874015748031497
        },
        {
          "duration": 0.15625,
          "durationTicks": 192,
          "midi": 54,
          "name": "F#3",
          "ticks": 38400,
          "time": 31.25,
          "velocity": 0.7874015748031497
        },
        {
          "duration": 0.15625,
          "durationTicks": 192,
          "midi": 59,
          "name": "B3",
          "ticks": 38400,
          "time": 31.25,
          "velocity": 0.7874015748031497
        },
        {
          "duration": 0.15625,
          "durationTicks": 192,
          "midi": 42,
          "name": "F#2",
          "ticks": 38592,
          "time": 31.40625,
          "velocity": 0.7874015748031497
        },
        {
          "duration": 0.15625,
          "durationTicks": 192,
          "midi": 59,
          "name": "B3",
          "ticks": 38784,
          "time": 31.5625,
          "velocity": 0.7874015748031497
        },
        {
          "duration": 0.15625,
          "durationTicks": 192,
          "midi": 54,
          "name": "F#3",
          "ticks": 38784,
          "time": 31.5625,
          "velocity": 0.7874015748031497
        },
        {
          "duration": 0.15625,
          "durationTicks": 192,
          "midi": 38,
          "name": "D2",
          "ticks": 38784,
          "time": 31.5625,
          "velocity": 0.7874015748031497
        },
        {
          "duration": 0.15625,
          "durationTicks": 192,
          "midi": 40,
          "name": "E2",
          "ticks": 38784,
          "time": 31.5625,
          "velocity": 0.7874015748031497
        },
        {
          "duration": 0.15625,
          "durationTicks": 192,
          "midi": 42,
          "name": "F#2",
          "ticks": 38976,
          "time": 31.71875,
          "velocity": 0.7874015748031497
        },
        {
          "duration": 0.15625,
          "durationTicks": 192,
          "midi": 59,
          "name": "B3",
          "ticks": 39168,
          "time": 31.875,
          "velocity": 0.7874015748031497
        },
        {
          "duration": 0.15625,
          "durationTicks": 192,
          "midi": 54,
          "name": "F#3",
          "ticks": 39168,
          "time": 31.875,
          "velocity": 0.7874015748031497
        },
        {
          "duration": 0.15625,
          "durationTicks": 192,
          "midi": 36,
          "name": "C2",
          "ticks": 39168,
          "time": 31.875,
          "velocity": 0.7874015748031497
        },
        {
          "duration": 0.15625,
          "durationTicks": 192,
          "midi": 42,
          "name": "F#2",
          "ticks": 39360,
          "time": 32.03125,
          "velocity": 0.7874015748031497
        },
        {
          "duration": 0.15625,
          "durationTicks": 192,
          "midi": 40,
          "name": "E2",
          "ticks": 39552,
          "time": 32.1875,
          "velocity": 0.7874015748031497
        },
        {
          "duration": 0.15625,
          "durationTicks": 192,
          "midi": 54,
          "name": "F#3",
          "ticks": 39552,
          "time": 32.1875,
          "velocity": 0.7874015748031497
        },
        {
          "duration": 0.15625,
          "durationTicks": 192,
          "midi": 38,
          "name": "D2",
          "ticks": 39552,
          "time": 32.1875,
          "velocity": 0.7874015748031497
        },
        {
          "duration": 0.15625,
          "durationTicks": 192,
          "midi": 59,
          "name": "B3",
          "ticks": 39552,
          "time": 32.1875,
          "velocity": 0.7874015748031497
        },
        {
          "duration": 0.15625,
          "durationTicks": 192,
          "midi": 42,
          "name": "F#2",
          "ticks": 39744,
          "time": 32.34375,
          "velocity": 0.7874015748031497
        },
        {
          "duration": 0.15625,
          "durationTicks": 192,
          "midi": 36,
          "name": "C2",
          "ticks": 39936,
          "time": 32.5,
          "velocity": 0.7874015748031497
        },
        {
          "duration": 0.15625,
          "durationTicks": 192,
          "midi": 54,
          "name": "F#3",
          "ticks": 39936,
          "time": 32.5,
          "velocity": 0.7874015748031497
        },
        {
          "duration": 0.15625,
          "durationTicks": 192,
          "midi": 59,
          "name": "B3",
          "ticks": 39936,
          "time": 32.5,
          "velocity": 0.7874015748031497
        },
        {
          "duration": 0.15625,
          "durationTicks": 192,
          "midi": 42,
          "name": "F#2",
          "ticks": 40128,
          "time": 32.65625,
          "velocity": 0.7874015748031497
        },
        {
          "duration": 0.15625,
          "durationTicks": 192,
          "midi": 38,
          "name": "D2",
          "ticks": 40320,
          "time": 32.8125,
          "velocity": 0.7874015748031497
        },
        {
          "duration": 0.15625,
          "durationTicks": 192,
          "midi": 54,
          "name": "F#3",
          "ticks": 40320,
          "time": 32.8125,
          "velocity": 0.7874015748031497
        },
        {
          "duration": 0.15625,
          "durationTicks": 192,
          "midi": 59,
          "name": "B3",
          "ticks": 40320,
          "time": 32.8125,
          "velocity": 0.7874015748031497
        },
        {
          "duration": 0.15625,
          "durationTicks": 192,
          "midi": 40,
          "name": "E2",
          "ticks": 40320,
          "time": 32.8125,
          "velocity": 0.7874015748031497
        },
        {
          "duration": 0.15625,
          "durationTicks": 192,
          "midi": 42,
          "name": "F#2",
          "ticks": 40512,
          "time": 32.96875,
          "velocity": 0.7874015748031497
        },
        {
          "duration": 0.15625,
          "durationTicks": 192,
          "midi": 59,
          "name": "B3",
          "ticks": 40704,
          "time": 33.125,
          "velocity": 0.7874015748031497
        },
        {
          "duration": 0.15625,
          "durationTicks": 192,
          "midi": 36,
          "name": "C2",
          "ticks": 40704,
          "time": 33.125,
          "velocity": 0.7874015748031497
        },
        {
          "duration": 0.15625,
          "durationTicks": 192,
          "midi": 54,
          "name": "F#3",
          "ticks": 40704,
          "time": 33.125,
          "velocity": 0.7874015748031497
        },
        {
          "duration": 0.15625,
          "durationTicks": 192,
          "midi": 42,
          "name": "F#2",
          "ticks": 40896,
          "time": 33.28125,
          "velocity": 0.7874015748031497
        },
        {
          "duration": 0.15625,
          "durationTicks": 192,
          "midi": 38,
          "name": "D2",
          "ticks": 41088,
          "time": 33.4375,
          "velocity": 0.7874015748031497
        },
        {
          "duration": 0.15625,
          "durationTicks": 192,
          "midi": 40,
          "name": "E2",
          "ticks": 41088,
          "time": 33.4375,
          "velocity": 0.7874015748031497
        },
        {
          "duration": 0.15625,
          "durationTicks": 192,
          "midi": 54,
          "name": "F#3",
          "ticks": 41088,
          "time": 33.4375,
          "velocity": 0.7874015748031497
        },
        {
          "duration": 0.15625,
          "durationTicks": 192,
          "midi": 59,
          "name": "B3",
          "ticks": 41088,
          "time": 33.4375,
          "velocity": 0.7874015748031497
        },
        {
          "duration": 0.15625,
          "durationTicks": 192,
          "midi": 42,
          "name": "F#2",
          "ticks": 41280,
          "time": 33.59375,
          "velocity": 0.7874015748031497
        },
        {
          "duration": 0.15625,
          "durationTicks": 192,
          "midi": 59,
          "name": "B3",
          "ticks": 41472,
          "time": 33.75,
          "velocity": 0.7874015748031497
        },
        {
          "duration": 0.15625,
          "durationTicks": 192,
          "midi": 36,
          "name": "C2",
          "ticks": 41472,
          "time": 33.75,
          "velocity": 0.7874015748031497
        },
        {
          "duration": 0.15625,
          "durationTicks": 192,
          "midi": 54,
          "name": "F#3",
          "ticks": 41472,
          "time": 33.75,
          "velocity": 0.7874015748031497
        },
        {
          "duration": 0.15625,
          "durationTicks": 192,
          "midi": 42,
          "name": "F#2",
          "ticks": 41664,
          "time": 33.90625,
          "velocity": 0.7874015748031497
        },
        {
          "duration": 0.15625,
          "durationTicks": 192,
          "midi": 59,
          "name": "B3",
          "ticks": 41856,
          "time": 34.0625,
          "velocity": 0.7874015748031497
        },
        {
          "duration": 0.15625,
          "durationTicks": 192,
          "midi": 38,
          "name": "D2",
          "ticks": 41856,
          "time": 34.0625,
          "velocity": 0.7874015748031497
        },
        {
          "duration": 0.15625,
          "durationTicks": 192,
          "midi": 40,
          "name": "E2",
          "ticks": 41856,
          "time": 34.0625,
          "velocity": 0.7874015748031497
        },
        {
          "duration": 0.15625,
          "durationTicks": 192,
          "midi": 54,
          "name": "F#3",
          "ticks": 41856,
          "time": 34.0625,
          "velocity": 0.7874015748031497
        },
        {
          "duration": 0.15625,
          "durationTicks": 192,
          "midi": 42,
          "name": "F#2",
          "ticks": 42048,
          "time": 34.21875,
          "velocity": 0.7874015748031497
        },
        {
          "duration": 0.15625,
          "durationTicks": 192,
          "midi": 36,
          "name": "C2",
          "ticks": 42240,
          "time": 34.375,
          "velocity": 0.7874015748031497
        },
        {
          "duration": 0.15625,
          "durationTicks": 192,
          "midi": 54,
          "name": "F#3",
          "ticks": 42240,
          "time": 34.375,
          "velocity": 0.7874015748031497
        },
        {
          "duration": 0.15625,
          "durationTicks": 192,
          "midi": 59,
          "name": "B3",
          "ticks": 42240,
          "time": 34.375,
          "velocity": 0.7874015748031497
        },
        {
          "duration": 0.15625,
          "durationTicks": 192,
          "midi": 42,
          "name": "F#2",
          "ticks": 42432,
          "time": 34.53125,
          "velocity": 0.7874015748031497
        },
        {
          "duration": 0.15625,
          "durationTicks": 192,
          "midi": 40,
          "name": "E2",
          "ticks": 42624,
          "time": 34.6875,
          "velocity": 0.7874015748031497
        },
        {
          "duration": 0.15625,
          "durationTicks": 192,
          "midi": 54,
          "name": "F#3",
          "ticks": 42624,
          "time": 34.6875,
          "velocity": 0.7874015748031497
        },
        {
          "duration": 0.15625,
          "durationTicks": 192,
          "midi": 59,
          "name": "B3",
          "ticks": 42624,
          "time": 34.6875,
          "velocity": 0.7874015748031497
        },
        {
          "duration": 0.15625,
          "durationTicks": 192,
          "midi": 38,
          "name": "D2",
          "ticks": 42624,
          "time": 34.6875,
          "velocity": 0.7874015748031497
        },
        {
          "duration": 0.15625,
          "durationTicks": 192,
          "midi": 42,
          "name": "F#2",
          "ticks": 42816,
          "time": 34.84375,
          "velocity": 0.7874015748031497
        },
        {
          "duration": 0.15625,
          "durationTicks": 192,
          "midi": 57,
          "name": "A3",
          "ticks": 43008,
          "time": 35,
          "velocity": 0.7874015748031497
        },
        {
          "duration": 0.15625,
          "durationTicks": 192,
          "midi": 36,
          "name": "C2",
          "ticks": 43008,
          "time": 35,
          "velocity": 0.7874015748031497
        },
        {
          "duration": 0.15625,
          "durationTicks": 192,
          "midi": 49,
          "name": "C#3",
          "ticks": 43008,
          "time": 35,
          "velocity": 0.7874015748031497
        },
        {
          "duration": 0.15625,
          "durationTicks": 192,
          "midi": 59,
          "name": "B3",
          "ticks": 43008,
          "time": 35,
          "velocity": 0.7874015748031497
        },
        {
          "duration": 0.15625,
          "durationTicks": 192,
          "midi": 54,
          "name": "F#3",
          "ticks": 43008,
          "time": 35,
          "velocity": 0.7874015748031497
        },
        {
          "duration": 0.15625,
          "durationTicks": 192,
          "midi": 42,
          "name": "F#2",
          "ticks": 43200,
          "time": 35.15625,
          "velocity": 0.7874015748031497
        },
        {
          "duration": 0.15625,
          "durationTicks": 192,
          "midi": 38,
          "name": "D2",
          "ticks": 43392,
          "time": 35.3125,
          "velocity": 0.7874015748031497
        },
        {
          "duration": 0.15625,
          "durationTicks": 192,
          "midi": 59,
          "name": "B3",
          "ticks": 43392,
          "time": 35.3125,
          "velocity": 0.7874015748031497
        },
        {
          "duration": 0.15625,
          "durationTicks": 192,
          "midi": 54,
          "name": "F#3",
          "ticks": 43392,
          "time": 35.3125,
          "velocity": 0.7874015748031497
        },
        {
          "duration": 0.15625,
          "durationTicks": 192,
          "midi": 40,
          "name": "E2",
          "ticks": 43392,
          "time": 35.3125,
          "velocity": 0.7874015748031497
        },
        {
          "duration": 0.15625,
          "durationTicks": 192,
          "midi": 42,
          "name": "F#2",
          "ticks": 43584,
          "time": 35.46875,
          "velocity": 0.7874015748031497
        },
        {
          "duration": 0.15625,
          "durationTicks": 192,
          "midi": 54,
          "name": "F#3",
          "ticks": 43776,
          "time": 35.625,
          "velocity": 0.7874015748031497
        },
        {
          "duration": 0.15625,
          "durationTicks": 192,
          "midi": 59,
          "name": "B3",
          "ticks": 43776,
          "time": 35.625,
          "velocity": 0.7874015748031497
        },
        {
          "duration": 0.15625,
          "durationTicks": 192,
          "midi": 36,
          "name": "C2",
          "ticks": 43776,
          "time": 35.625,
          "velocity": 0.7874015748031497
        },
        {
          "duration": 0.15625,
          "durationTicks": 192,
          "midi": 42,
          "name": "F#2",
          "ticks": 43968,
          "time": 35.78125,
          "velocity": 0.7874015748031497
        },
        {
          "duration": 0.15625,
          "durationTicks": 192,
          "midi": 40,
          "name": "E2",
          "ticks": 44160,
          "time": 35.9375,
          "velocity": 0.7874015748031497
        },
        {
          "duration": 0.15625,
          "durationTicks": 192,
          "midi": 59,
          "name": "B3",
          "ticks": 44160,
          "time": 35.9375,
          "velocity": 0.7874015748031497
        },
        {
          "duration": 0.15625,
          "durationTicks": 192,
          "midi": 38,
          "name": "D2",
          "ticks": 44160,
          "time": 35.9375,
          "velocity": 0.7874015748031497
        },
        {
          "duration": 0.15625,
          "durationTicks": 192,
          "midi": 54,
          "name": "F#3",
          "ticks": 44160,
          "time": 35.9375,
          "velocity": 0.7874015748031497
        },
        {
          "duration": 0.15625,
          "durationTicks": 192,
          "midi": 42,
          "name": "F#2",
          "ticks": 44352,
          "time": 36.09375,
          "velocity": 0.7874015748031497
        },
        {
          "duration": 0.15625,
          "durationTicks": 192,
          "midi": 59,
          "name": "B3",
          "ticks": 44544,
          "time": 36.25,
          "velocity": 0.7874015748031497
        },
        {
          "duration": 0.15625,
          "durationTicks": 192,
          "midi": 54,
          "name": "F#3",
          "ticks": 44544,
          "time": 36.25,
          "velocity": 0.7874015748031497
        },
        {
          "duration": 0.15625,
          "durationTicks": 192,
          "midi": 36,
          "name": "C2",
          "ticks": 44544,
          "time": 36.25,
          "velocity": 0.7874015748031497
        },
        {
          "duration": 0.15625,
          "durationTicks": 192,
          "midi": 42,
          "name": "F#2",
          "ticks": 44736,
          "time": 36.40625,
          "velocity": 0.7874015748031497
        },
        {
          "duration": 0.15625,
          "durationTicks": 192,
          "midi": 40,
          "name": "E2",
          "ticks": 44928,
          "time": 36.5625,
          "velocity": 0.7874015748031497
        },
        {
          "duration": 0.15625,
          "durationTicks": 192,
          "midi": 38,
          "name": "D2",
          "ticks": 44928,
          "time": 36.5625,
          "velocity": 0.7874015748031497
        },
        {
          "duration": 0.15625,
          "durationTicks": 192,
          "midi": 59,
          "name": "B3",
          "ticks": 44928,
          "time": 36.5625,
          "velocity": 0.7874015748031497
        },
        {
          "duration": 0.15625,
          "durationTicks": 192,
          "midi": 54,
          "name": "F#3",
          "ticks": 44928,
          "time": 36.5625,
          "velocity": 0.7874015748031497
        },
        {
          "duration": 0.15625,
          "durationTicks": 192,
          "midi": 42,
          "name": "F#2",
          "ticks": 45120,
          "time": 36.71875,
          "velocity": 0.7874015748031497
        },
        {
          "duration": 0.15625,
          "durationTicks": 192,
          "midi": 59,
          "name": "B3",
          "ticks": 45312,
          "time": 36.875,
          "velocity": 0.7874015748031497
        },
        {
          "duration": 0.15625,
          "durationTicks": 192,
          "midi": 54,
          "name": "F#3",
          "ticks": 45312,
          "time": 36.875,
          "velocity": 0.7874015748031497
        },
        {
          "duration": 0.15625,
          "durationTicks": 192,
          "midi": 36,
          "name": "C2",
          "ticks": 45312,
          "time": 36.875,
          "velocity": 0.7874015748031497
        },
        {
          "duration": 0.15625,
          "durationTicks": 192,
          "midi": 42,
          "name": "F#2",
          "ticks": 45504,
          "time": 37.03125,
          "velocity": 0.7874015748031497
        },
        {
          "duration": 0.15625,
          "durationTicks": 192,
          "midi": 38,
          "name": "D2",
          "ticks": 45696,
          "time": 37.1875,
          "velocity": 0.7874015748031497
        },
        {
          "duration": 0.15625,
          "durationTicks": 192,
          "midi": 40,
          "name": "E2",
          "ticks": 45696,
          "time": 37.1875,
          "velocity": 0.7874015748031497
        },
        {
          "duration": 0.15625,
          "durationTicks": 192,
          "midi": 54,
          "name": "F#3",
          "ticks": 45696,
          "time": 37.1875,
          "velocity": 0.7874015748031497
        },
        {
          "duration": 0.15625,
          "durationTicks": 192,
          "midi": 59,
          "name": "B3",
          "ticks": 45696,
          "time": 37.1875,
          "velocity": 0.7874015748031497
        },
        {
          "duration": 0.15625,
          "durationTicks": 192,
          "midi": 42,
          "name": "F#2",
          "ticks": 45888,
          "time": 37.34375,
          "velocity": 0.7874015748031497
        },
        {
          "duration": 0.15625,
          "durationTicks": 192,
          "midi": 54,
          "name": "F#3",
          "ticks": 46080,
          "time": 37.5,
          "velocity": 0.7874015748031497
        },
        {
          "duration": 0.15625,
          "durationTicks": 192,
          "midi": 59,
          "name": "B3",
          "ticks": 46080,
          "time": 37.5,
          "velocity": 0.7874015748031497
        },
        {
          "duration": 0.15625,
          "durationTicks": 192,
          "midi": 36,
          "name": "C2",
          "ticks": 46080,
          "time": 37.5,
          "velocity": 0.7874015748031497
        },
        {
          "duration": 0.15625,
          "durationTicks": 192,
          "midi": 42,
          "name": "F#2",
          "ticks": 46272,
          "time": 37.65625,
          "velocity": 0.7874015748031497
        },
        {
          "duration": 0.15625,
          "durationTicks": 192,
          "midi": 54,
          "name": "F#3",
          "ticks": 46464,
          "time": 37.8125,
          "velocity": 0.7874015748031497
        },
        {
          "duration": 0.15625,
          "durationTicks": 192,
          "midi": 40,
          "name": "E2",
          "ticks": 46464,
          "time": 37.8125,
          "velocity": 0.7874015748031497
        },
        {
          "duration": 0.15625,
          "durationTicks": 192,
          "midi": 59,
          "name": "B3",
          "ticks": 46464,
          "time": 37.8125,
          "velocity": 0.7874015748031497
        },
        {
          "duration": 0.15625,
          "durationTicks": 192,
          "midi": 38,
          "name": "D2",
          "ticks": 46464,
          "time": 37.8125,
          "velocity": 0.7874015748031497
        },
        {
          "duration": 0.15625,
          "durationTicks": 192,
          "midi": 42,
          "name": "F#2",
          "ticks": 46656,
          "time": 37.96875,
          "velocity": 0.7874015748031497
        },
        {
          "duration": 0.15625,
          "durationTicks": 192,
          "midi": 54,
          "name": "F#3",
          "ticks": 46848,
          "time": 38.125,
          "velocity": 0.7874015748031497
        },
        {
          "duration": 0.15625,
          "durationTicks": 192,
          "midi": 59,
          "name": "B3",
          "ticks": 46848,
          "time": 38.125,
          "velocity": 0.7874015748031497
        },
        {
          "duration": 0.15625,
          "durationTicks": 192,
          "midi": 36,
          "name": "C2",
          "ticks": 46848,
          "time": 38.125,
          "velocity": 0.7874015748031497
        },
        {
          "duration": 0.15625,
          "durationTicks": 192,
          "midi": 42,
          "name": "F#2",
          "ticks": 47040,
          "time": 38.28125,
          "velocity": 0.7874015748031497
        },
        {
          "duration": 0.15625,
          "durationTicks": 192,
          "midi": 38,
          "name": "D2",
          "ticks": 47232,
          "time": 38.4375,
          "velocity": 0.7874015748031497
        },
        {
          "duration": 0.15625,
          "durationTicks": 192,
          "midi": 40,
          "name": "E2",
          "ticks": 47232,
          "time": 38.4375,
          "velocity": 0.7874015748031497
        },
        {
          "duration": 0.15625,
          "durationTicks": 192,
          "midi": 54,
          "name": "F#3",
          "ticks": 47232,
          "time": 38.4375,
          "velocity": 0.7874015748031497
        },
        {
          "duration": 0.15625,
          "durationTicks": 192,
          "midi": 59,
          "name": "B3",
          "ticks": 47232,
          "time": 38.4375,
          "velocity": 0.7874015748031497
        },
        {
          "duration": 0.15625,
          "durationTicks": 192,
          "midi": 42,
          "name": "F#2",
          "ticks": 47424,
          "time": 38.59375,
          "velocity": 0.7874015748031497
        },
        {
          "duration": 0.15625,
          "durationTicks": 192,
          "midi": 36,
          "name": "C2",
          "ticks": 47616,
          "time": 38.75,
          "velocity": 0.7874015748031497
        },
        {
          "duration": 0.15625,
          "durationTicks": 192,
          "midi": 59,
          "name": "B3",
          "ticks": 47616,
          "time": 38.75,
          "velocity": 0.7874015748031497
        },
        {
          "duration": 0.15625,
          "durationTicks": 192,
          "midi": 54,
          "name": "F#3",
          "ticks": 47616,
          "time": 38.75,
          "velocity": 0.7874015748031497
        },
        {
          "duration": 0.15625,
          "durationTicks": 192,
          "midi": 42,
          "name": "F#2",
          "ticks": 47808,
          "time": 38.90625,
          "velocity": 0.7874015748031497
        },
        {
          "duration": 0.15625,
          "durationTicks": 192,
          "midi": 40,
          "name": "E2",
          "ticks": 48000,
          "time": 39.0625,
          "velocity": 0.7874015748031497
        },
        {
          "duration": 0.15625,
          "durationTicks": 192,
          "midi": 38,
          "name": "D2",
          "ticks": 48000,
          "time": 39.0625,
          "velocity": 0.7874015748031497
        },
        {
          "duration": 0.15625,
          "durationTicks": 192,
          "midi": 54,
          "name": "F#3",
          "ticks": 48000,
          "time": 39.0625,
          "velocity": 0.7874015748031497
        },
        {
          "duration": 0.15625,
          "durationTicks": 192,
          "midi": 59,
          "name": "B3",
          "ticks": 48000,
          "time": 39.0625,
          "velocity": 0.7874015748031497
        },
        {
          "duration": 0.15625,
          "durationTicks": 192,
          "midi": 42,
          "name": "F#2",
          "ticks": 48192,
          "time": 39.21875,
          "velocity": 0.7874015748031497
        },
        {
          "duration": 0.15625,
          "durationTicks": 192,
          "midi": 59,
          "name": "B3",
          "ticks": 48384,
          "time": 39.375,
          "velocity": 0.7874015748031497
        },
        {
          "duration": 0.15625,
          "durationTicks": 192,
          "midi": 54,
          "name": "F#3",
          "ticks": 48384,
          "time": 39.375,
          "velocity": 0.7874015748031497
        },
        {
          "duration": 0.15625,
          "durationTicks": 192,
          "midi": 36,
          "name": "C2",
          "ticks": 48384,
          "time": 39.375,
          "velocity": 0.7874015748031497
        },
        {
          "duration": 0.15625,
          "durationTicks": 192,
          "midi": 42,
          "name": "F#2",
          "ticks": 48576,
          "time": 39.53125,
          "velocity": 0.7874015748031497
        },
        {
          "duration": 0.15625,
          "durationTicks": 192,
          "midi": 40,
          "name": "E2",
          "ticks": 48768,
          "time": 39.6875,
          "velocity": 0.7874015748031497
        },
        {
          "duration": 0.15625,
          "durationTicks": 192,
          "midi": 54,
          "name": "F#3",
          "ticks": 48768,
          "time": 39.6875,
          "velocity": 0.7874015748031497
        },
        {
          "duration": 0.15625,
          "durationTicks": 192,
          "midi": 38,
          "name": "D2",
          "ticks": 48768,
          "time": 39.6875,
          "velocity": 0.7874015748031497
        },
        {
          "duration": 0.15625,
          "durationTicks": 192,
          "midi": 59,
          "name": "B3",
          "ticks": 48768,
          "time": 39.6875,
          "velocity": 0.7874015748031497
        },
        {
          "duration": 0.15625,
          "durationTicks": 192,
          "midi": 42,
          "name": "F#2",
          "ticks": 48960,
          "time": 39.84375,
          "velocity": 0.7874015748031497
        },
        {
          "duration": 0.15625,
          "durationTicks": 192,
          "midi": 59,
          "name": "B3",
          "ticks": 49152,
          "time": 40,
          "velocity": 0.7874015748031497
        },
        {
          "duration": 0.15625,
          "durationTicks": 192,
          "midi": 36,
          "name": "C2",
          "ticks": 49152,
          "time": 40,
          "velocity": 0.7874015748031497
        },
        {
          "duration": 0.15625,
          "durationTicks": 192,
          "midi": 54,
          "name": "F#3",
          "ticks": 49152,
          "time": 40,
          "velocity": 0.7874015748031497
        },
        {
          "duration": 0.15625,
          "durationTicks": 192,
          "midi": 42,
          "name": "F#2",
          "ticks": 49344,
          "time": 40.15625,
          "velocity": 0.7874015748031497
        },
        {
          "duration": 0.15625,
          "durationTicks": 192,
          "midi": 54,
          "name": "F#3",
          "ticks": 49536,
          "time": 40.3125,
          "velocity": 0.7874015748031497
        },
        {
          "duration": 0.15625,
          "durationTicks": 192,
          "midi": 59,
          "name": "B3",
          "ticks": 49536,
          "time": 40.3125,
          "velocity": 0.7874015748031497
        },
        {
          "duration": 0.15625,
          "durationTicks": 192,
          "midi": 38,
          "name": "D2",
          "ticks": 49536,
          "time": 40.3125,
          "velocity": 0.7874015748031497
        },
        {
          "duration": 0.15625,
          "durationTicks": 192,
          "midi": 40,
          "name": "E2",
          "ticks": 49536,
          "time": 40.3125,
          "velocity": 0.7874015748031497
        },
        {
          "duration": 0.15625,
          "durationTicks": 192,
          "midi": 42,
          "name": "F#2",
          "ticks": 49728,
          "time": 40.46875,
          "velocity": 0.7874015748031497
        },
        {
          "duration": 0.15625,
          "durationTicks": 192,
          "midi": 36,
          "name": "C2",
          "ticks": 49920,
          "time": 40.625,
          "velocity": 0.7874015748031497
        },
        {
          "duration": 0.15625,
          "durationTicks": 192,
          "midi": 59,
          "name": "B3",
          "ticks": 49920,
          "time": 40.625,
          "velocity": 0.7874015748031497
        },
        {
          "duration": 0.15625,
          "durationTicks": 192,
          "midi": 54,
          "name": "F#3",
          "ticks": 49920,
          "time": 40.625,
          "velocity": 0.7874015748031497
        },
        {
          "duration": 0.15625,
          "durationTicks": 192,
          "midi": 42,
          "name": "F#2",
          "ticks": 50112,
          "time": 40.78125,
          "velocity": 0.7874015748031497
        },
        {
          "duration": 0.15625,
          "durationTicks": 192,
          "midi": 40,
          "name": "E2",
          "ticks": 50304,
          "time": 40.9375,
          "velocity": 0.7874015748031497
        },
        {
          "duration": 0.15625,
          "durationTicks": 192,
          "midi": 59,
          "name": "B3",
          "ticks": 50304,
          "time": 40.9375,
          "velocity": 0.7874015748031497
        },
        {
          "duration": 0.15625,
          "durationTicks": 192,
          "midi": 38,
          "name": "D2",
          "ticks": 50304,
          "time": 40.9375,
          "velocity": 0.7874015748031497
        },
        {
          "duration": 0.15625,
          "durationTicks": 192,
          "midi": 54,
          "name": "F#3",
          "ticks": 50304,
          "time": 40.9375,
          "velocity": 0.7874015748031497
        },
        {
          "duration": 0.15625,
          "durationTicks": 192,
          "midi": 42,
          "name": "F#2",
          "ticks": 50496,
          "time": 41.09375,
          "velocity": 0.7874015748031497
        },
        {
          "duration": 0.15625,
          "durationTicks": 192,
          "midi": 54,
          "name": "F#3",
          "ticks": 50688,
          "time": 41.25,
          "velocity": 0.7874015748031497
        },
        {
          "duration": 0.15625,
          "durationTicks": 192,
          "midi": 59,
          "name": "B3",
          "ticks": 50688,
          "time": 41.25,
          "velocity": 0.7874015748031497
        },
        {
          "duration": 0.15625,
          "durationTicks": 192,
          "midi": 36,
          "name": "C2",
          "ticks": 50688,
          "time": 41.25,
          "velocity": 0.7874015748031497
        },
        {
          "duration": 0.15625,
          "durationTicks": 192,
          "midi": 42,
          "name": "F#2",
          "ticks": 50880,
          "time": 41.40625,
          "velocity": 0.7874015748031497
        },
        {
          "duration": 0.15625,
          "durationTicks": 192,
          "midi": 40,
          "name": "E2",
          "ticks": 51072,
          "time": 41.5625,
          "velocity": 0.7874015748031497
        },
        {
          "duration": 0.15625,
          "durationTicks": 192,
          "midi": 59,
          "name": "B3",
          "ticks": 51072,
          "time": 41.5625,
          "velocity": 0.7874015748031497
        },
        {
          "duration": 0.15625,
          "durationTicks": 192,
          "midi": 38,
          "name": "D2",
          "ticks": 51072,
          "time": 41.5625,
          "velocity": 0.7874015748031497
        },
        {
          "duration": 0.15625,
          "durationTicks": 192,
          "midi": 54,
          "name": "F#3",
          "ticks": 51072,
          "time": 41.5625,
          "velocity": 0.7874015748031497
        },
        {
          "duration": 0.15625,
          "durationTicks": 192,
          "midi": 42,
          "name": "F#2",
          "ticks": 51264,
          "time": 41.71875,
          "velocity": 0.7874015748031497
        },
        {
          "duration": 0.15625,
          "durationTicks": 192,
          "midi": 59,
          "name": "B3",
          "ticks": 51456,
          "time": 41.875,
          "velocity": 0.7874015748031497
        },
        {
          "duration": 0.15625,
          "durationTicks": 192,
          "midi": 36,
          "name": "C2",
          "ticks": 51456,
          "time": 41.875,
          "velocity": 0.7874015748031497
        },
        {
          "duration": 0.15625,
          "durationTicks": 192,
          "midi": 54,
          "name": "F#3",
          "ticks": 51456,
          "time": 41.875,
          "velocity": 0.7874015748031497
        },
        {
          "duration": 0.15625,
          "durationTicks": 192,
          "midi": 42,
          "name": "F#2",
          "ticks": 51648,
          "time": 42.03125,
          "velocity": 0.7874015748031497
        },
        {
          "duration": 0.15625,
          "durationTicks": 192,
          "midi": 54,
          "name": "F#3",
          "ticks": 51840,
          "time": 42.1875,
          "velocity": 0.7874015748031497
        },
        {
          "duration": 0.15625,
          "durationTicks": 192,
          "midi": 59,
          "name": "B3",
          "ticks": 51840,
          "time": 42.1875,
          "velocity": 0.7874015748031497
        },
        {
          "duration": 0.15625,
          "durationTicks": 192,
          "midi": 40,
          "name": "E2",
          "ticks": 51840,
          "time": 42.1875,
          "velocity": 0.7874015748031497
        },
        {
          "duration": 0.15625,
          "durationTicks": 192,
          "midi": 38,
          "name": "D2",
          "ticks": 51840,
          "time": 42.1875,
          "velocity": 0.7874015748031497
        },
        {
          "duration": 0.15625,
          "durationTicks": 192,
          "midi": 42,
          "name": "F#2",
          "ticks": 52032,
          "time": 42.34375,
          "velocity": 0.7874015748031497
        },
        {
          "duration": 0.15625,
          "durationTicks": 192,
          "midi": 59,
          "name": "B3",
          "ticks": 52224,
          "time": 42.5,
          "velocity": 0.7874015748031497
        },
        {
          "duration": 0.15625,
          "durationTicks": 192,
          "midi": 54,
          "name": "F#3",
          "ticks": 52224,
          "time": 42.5,
          "velocity": 0.7874015748031497
        },
        {
          "duration": 0.15625,
          "durationTicks": 192,
          "midi": 36,
          "name": "C2",
          "ticks": 52224,
          "time": 42.5,
          "velocity": 0.7874015748031497
        },
        {
          "duration": 0.15625,
          "durationTicks": 192,
          "midi": 42,
          "name": "F#2",
          "ticks": 52416,
          "time": 42.65625,
          "velocity": 0.7874015748031497
        },
        {
          "duration": 0.15625,
          "durationTicks": 192,
          "midi": 54,
          "name": "F#3",
          "ticks": 52608,
          "time": 42.8125,
          "velocity": 0.7874015748031497
        },
        {
          "duration": 0.15625,
          "durationTicks": 192,
          "midi": 40,
          "name": "E2",
          "ticks": 52608,
          "time": 42.8125,
          "velocity": 0.7874015748031497
        },
        {
          "duration": 0.15625,
          "durationTicks": 192,
          "midi": 38,
          "name": "D2",
          "ticks": 52608,
          "time": 42.8125,
          "velocity": 0.7874015748031497
        },
        {
          "duration": 0.15625,
          "durationTicks": 192,
          "midi": 59,
          "name": "B3",
          "ticks": 52608,
          "time": 42.8125,
          "velocity": 0.7874015748031497
        },
        {
          "duration": 0.15625,
          "durationTicks": 192,
          "midi": 42,
          "name": "F#2",
          "ticks": 52800,
          "time": 42.96875,
          "velocity": 0.7874015748031497
        },
        {
          "duration": 0.15625,
          "durationTicks": 192,
          "midi": 36,
          "name": "C2",
          "ticks": 52992,
          "time": 43.125,
          "velocity": 0.7874015748031497
        },
        {
          "duration": 0.15625,
          "durationTicks": 192,
          "midi": 54,
          "name": "F#3",
          "ticks": 52992,
          "time": 43.125,
          "velocity": 0.7874015748031497
        },
        {
          "duration": 0.15625,
          "durationTicks": 192,
          "midi": 59,
          "name": "B3",
          "ticks": 52992,
          "time": 43.125,
          "velocity": 0.7874015748031497
        },
        {
          "duration": 0.15625,
          "durationTicks": 192,
          "midi": 42,
          "name": "F#2",
          "ticks": 53184,
          "time": 43.28125,
          "velocity": 0.7874015748031497
        },
        {
          "duration": 0.15625,
          "durationTicks": 192,
          "midi": 40,
          "name": "E2",
          "ticks": 53376,
          "time": 43.4375,
          "velocity": 0.7874015748031497
        },
        {
          "duration": 0.15625,
          "durationTicks": 192,
          "midi": 38,
          "name": "D2",
          "ticks": 53376,
          "time": 43.4375,
          "velocity": 0.7874015748031497
        },
        {
          "duration": 0.15625,
          "durationTicks": 192,
          "midi": 59,
          "name": "B3",
          "ticks": 53376,
          "time": 43.4375,
          "velocity": 0.7874015748031497
        },
        {
          "duration": 0.15625,
          "durationTicks": 192,
          "midi": 54,
          "name": "F#3",
          "ticks": 53376,
          "time": 43.4375,
          "velocity": 0.7874015748031497
        },
        {
          "duration": 0.15625,
          "durationTicks": 192,
          "midi": 42,
          "name": "F#2",
          "ticks": 53568,
          "time": 43.59375,
          "velocity": 0.7874015748031497
        },
        {
          "duration": 0.15625,
          "durationTicks": 192,
          "midi": 59,
          "name": "B3",
          "ticks": 53760,
          "time": 43.75,
          "velocity": 0.7874015748031497
        },
        {
          "duration": 0.15625,
          "durationTicks": 192,
          "midi": 36,
          "name": "C2",
          "ticks": 53760,
          "time": 43.75,
          "velocity": 0.7874015748031497
        },
        {
          "duration": 0.15625,
          "durationTicks": 192,
          "midi": 54,
          "name": "F#3",
          "ticks": 53760,
          "time": 43.75,
          "velocity": 0.7874015748031497
        },
        {
          "duration": 0.15625,
          "durationTicks": 192,
          "midi": 42,
          "name": "F#2",
          "ticks": 53952,
          "time": 43.90625,
          "velocity": 0.7874015748031497
        },
        {
          "duration": 0.15625,
          "durationTicks": 192,
          "midi": 38,
          "name": "D2",
          "ticks": 54144,
          "time": 44.0625,
          "velocity": 0.7874015748031497
        },
        {
          "duration": 0.15625,
          "durationTicks": 192,
          "midi": 40,
          "name": "E2",
          "ticks": 54144,
          "time": 44.0625,
          "velocity": 0.7874015748031497
        },
        {
          "duration": 0.15625,
          "durationTicks": 192,
          "midi": 59,
          "name": "B3",
          "ticks": 54144,
          "time": 44.0625,
          "velocity": 0.7874015748031497
        },
        {
          "duration": 0.15625,
          "durationTicks": 192,
          "midi": 54,
          "name": "F#3",
          "ticks": 54144,
          "time": 44.0625,
          "velocity": 0.7874015748031497
        },
        {
          "duration": 0.15625,
          "durationTicks": 192,
          "midi": 42,
          "name": "F#2",
          "ticks": 54336,
          "time": 44.21875,
          "velocity": 0.7874015748031497
        },
        {
          "duration": 0.15625,
          "durationTicks": 192,
          "midi": 59,
          "name": "B3",
          "ticks": 54528,
          "time": 44.375,
          "velocity": 0.7874015748031497
        },
        {
          "duration": 0.15625,
          "durationTicks": 192,
          "midi": 54,
          "name": "F#3",
          "ticks": 54528,
          "time": 44.375,
          "velocity": 0.7874015748031497
        },
        {
          "duration": 0.15625,
          "durationTicks": 192,
          "midi": 36,
          "name": "C2",
          "ticks": 54528,
          "time": 44.375,
          "velocity": 0.7874015748031497
        },
        {
          "duration": 0.15625,
          "durationTicks": 192,
          "midi": 42,
          "name": "F#2",
          "ticks": 54720,
          "time": 44.53125,
          "velocity": 0.7874015748031497
        },
        {
          "duration": 0.15625,
          "durationTicks": 192,
          "midi": 38,
          "name": "D2",
          "ticks": 54912,
          "time": 44.6875,
          "velocity": 0.7874015748031497
        },
        {
          "duration": 0.15625,
          "durationTicks": 192,
          "midi": 40,
          "name": "E2",
          "ticks": 54912,
          "time": 44.6875,
          "velocity": 0.7874015748031497
        },
        {
          "duration": 0.15625,
          "durationTicks": 192,
          "midi": 59,
          "name": "B3",
          "ticks": 54912,
          "time": 44.6875,
          "velocity": 0.7874015748031497
        },
        {
          "duration": 0.15625,
          "durationTicks": 192,
          "midi": 54,
          "name": "F#3",
          "ticks": 54912,
          "time": 44.6875,
          "velocity": 0.7874015748031497
        },
        {
          "duration": 0.15625,
          "durationTicks": 192,
          "midi": 42,
          "name": "F#2",
          "ticks": 55104,
          "time": 44.84375,
          "velocity": 0.7874015748031497
        },
        {
          "duration": 0.15625,
          "durationTicks": 192,
          "midi": 36,
          "name": "C2",
          "ticks": 55296,
          "time": 45,
          "velocity": 0.7874015748031497
        },
        {
          "duration": 0.15625,
          "durationTicks": 192,
          "midi": 59,
          "name": "B3",
          "ticks": 55296,
          "time": 45,
          "velocity": 0.7874015748031497
        },
        {
          "duration": 0.15625,
          "durationTicks": 192,
          "midi": 57,
          "name": "A3",
          "ticks": 55296,
          "time": 45,
          "velocity": 0.7874015748031497
        },
        {
          "duration": 0.15625,
          "durationTicks": 192,
          "midi": 49,
          "name": "C#3",
          "ticks": 55296,
          "time": 45,
          "velocity": 0.7874015748031497
        },
        {
          "duration": 0.15625,
          "durationTicks": 192,
          "midi": 54,
          "name": "F#3",
          "ticks": 55296,
          "time": 45,
          "velocity": 0.7874015748031497
        },
        {
          "duration": 0.15625,
          "durationTicks": 192,
          "midi": 42,
          "name": "F#2",
          "ticks": 55488,
          "time": 45.15625,
          "velocity": 0.7874015748031497
        },
        {
          "duration": 0.15625,
          "durationTicks": 192,
          "midi": 54,
          "name": "F#3",
          "ticks": 55680,
          "time": 45.3125,
          "velocity": 0.7874015748031497
        },
        {
          "duration": 0.15625,
          "durationTicks": 192,
          "midi": 46,
          "name": "A#2",
          "ticks": 55680,
          "time": 45.3125,
          "velocity": 0.7874015748031497
        },
        {
          "duration": 0.15625,
          "durationTicks": 192,
          "midi": 59,
          "name": "B3",
          "ticks": 55680,
          "time": 45.3125,
          "velocity": 0.7874015748031497
        },
        {
          "duration": 0.15625,
          "durationTicks": 192,
          "midi": 40,
          "name": "E2",
          "ticks": 55680,
          "time": 45.3125,
          "velocity": 0.7874015748031497
        },
        {
          "duration": 0.15625,
          "durationTicks": 192,
          "midi": 38,
          "name": "D2",
          "ticks": 55680,
          "time": 45.3125,
          "velocity": 0.7874015748031497
        },
        {
          "duration": 0.15625,
          "durationTicks": 192,
          "midi": 54,
          "name": "F#3",
          "ticks": 55872,
          "time": 45.46875,
          "velocity": 0.7874015748031497
        },
        {
          "duration": 0.15625,
          "durationTicks": 192,
          "midi": 42,
          "name": "F#2",
          "ticks": 55872,
          "time": 45.46875,
          "velocity": 0.7874015748031497
        },
        {
          "duration": 0.15625,
          "durationTicks": 192,
          "midi": 36,
          "name": "C2",
          "ticks": 56064,
          "time": 45.625,
          "velocity": 0.7874015748031497
        },
        {
          "duration": 0.15625,
          "durationTicks": 192,
          "midi": 54,
          "name": "F#3",
          "ticks": 56064,
          "time": 45.625,
          "velocity": 0.7874015748031497
        },
        {
          "duration": 0.15625,
          "durationTicks": 192,
          "midi": 59,
          "name": "B3",
          "ticks": 56064,
          "time": 45.625,
          "velocity": 0.7874015748031497
        },
        {
          "duration": 0.15625,
          "durationTicks": 192,
          "midi": 42,
          "name": "F#2",
          "ticks": 56256,
          "time": 45.78125,
          "velocity": 0.7874015748031497
        },
        {
          "duration": 0.15625,
          "durationTicks": 192,
          "midi": 59,
          "name": "B3",
          "ticks": 56448,
          "time": 45.9375,
          "velocity": 0.7874015748031497
        },
        {
          "duration": 0.15625,
          "durationTicks": 192,
          "midi": 40,
          "name": "E2",
          "ticks": 56448,
          "time": 45.9375,
          "velocity": 0.7874015748031497
        },
        {
          "duration": 0.15625,
          "durationTicks": 192,
          "midi": 38,
          "name": "D2",
          "ticks": 56448,
          "time": 45.9375,
          "velocity": 0.7874015748031497
        },
        {
          "duration": 0.15625,
          "durationTicks": 192,
          "midi": 54,
          "name": "F#3",
          "ticks": 56448,
          "time": 45.9375,
          "velocity": 0.7874015748031497
        },
        {
          "duration": 0.15625,
          "durationTicks": 192,
          "midi": 42,
          "name": "F#2",
          "ticks": 56640,
          "time": 46.09375,
          "velocity": 0.7874015748031497
        },
        {
          "duration": 0.15625,
          "durationTicks": 192,
          "midi": 46,
          "name": "A#2",
          "ticks": 56640,
          "time": 46.09375,
          "velocity": 0.7874015748031497
        },
        {
          "duration": 0.15625,
          "durationTicks": 192,
          "midi": 54,
          "name": "F#3",
          "ticks": 56640,
          "time": 46.09375,
          "velocity": 0.7874015748031497
        },
        {
          "duration": 0.15625,
          "durationTicks": 192,
          "midi": 59,
          "name": "B3",
          "ticks": 56832,
          "time": 46.25,
          "velocity": 0.7874015748031497
        },
        {
          "duration": 0.15625,
          "durationTicks": 192,
          "midi": 57,
          "name": "A3",
          "ticks": 56832,
          "time": 46.25,
          "velocity": 0.7874015748031497
        },
        {
          "duration": 0.15625,
          "durationTicks": 192,
          "midi": 36,
          "name": "C2",
          "ticks": 56832,
          "time": 46.25,
          "velocity": 0.7874015748031497
        },
        {
          "duration": 0.15625,
          "durationTicks": 192,
          "midi": 49,
          "name": "C#3",
          "ticks": 56832,
          "time": 46.25,
          "velocity": 0.7874015748031497
        },
        {
          "duration": 0.15625,
          "durationTicks": 192,
          "midi": 54,
          "name": "F#3",
          "ticks": 56832,
          "time": 46.25,
          "velocity": 0.7874015748031497
        },
        {
          "duration": 0.15625,
          "durationTicks": 192,
          "midi": 42,
          "name": "F#2",
          "ticks": 57024,
          "time": 46.40625,
          "velocity": 0.7874015748031497
        },
        {
          "duration": 0.15625,
          "durationTicks": 192,
          "midi": 40,
          "name": "E2",
          "ticks": 57216,
          "time": 46.5625,
          "velocity": 0.7874015748031497
        },
        {
          "duration": 0.15625,
          "durationTicks": 192,
          "midi": 46,
          "name": "A#2",
          "ticks": 57216,
          "time": 46.5625,
          "velocity": 0.7874015748031497
        },
        {
          "duration": 0.15625,
          "durationTicks": 192,
          "midi": 54,
          "name": "F#3",
          "ticks": 57216,
          "time": 46.5625,
          "velocity": 0.7874015748031497
        },
        {
          "duration": 0.15625,
          "durationTicks": 192,
          "midi": 59,
          "name": "B3",
          "ticks": 57216,
          "time": 46.5625,
          "velocity": 0.7874015748031497
        },
        {
          "duration": 0.15625,
          "durationTicks": 192,
          "midi": 38,
          "name": "D2",
          "ticks": 57216,
          "time": 46.5625,
          "velocity": 0.7874015748031497
        },
        {
          "duration": 0.15625,
          "durationTicks": 192,
          "midi": 54,
          "name": "F#3",
          "ticks": 57408,
          "time": 46.71875,
          "velocity": 0.7874015748031497
        },
        {
          "duration": 0.15625,
          "durationTicks": 192,
          "midi": 42,
          "name": "F#2",
          "ticks": 57408,
          "time": 46.71875,
          "velocity": 0.7874015748031497
        },
        {
          "duration": 0.15625,
          "durationTicks": 192,
          "midi": 36,
          "name": "C2",
          "ticks": 57600,
          "time": 46.875,
          "velocity": 0.7874015748031497
        },
        {
          "duration": 0.15625,
          "durationTicks": 192,
          "midi": 54,
          "name": "F#3",
          "ticks": 57600,
          "time": 46.875,
          "velocity": 0.7874015748031497
        },
        {
          "duration": 0.15625,
          "durationTicks": 192,
          "midi": 59,
          "name": "B3",
          "ticks": 57600,
          "time": 46.875,
          "velocity": 0.7874015748031497
        },
        {
          "duration": 0.15625,
          "durationTicks": 192,
          "midi": 42,
          "name": "F#2",
          "ticks": 57792,
          "time": 47.03125,
          "velocity": 0.7874015748031497
        },
        {
          "duration": 0.15625,
          "durationTicks": 192,
          "midi": 38,
          "name": "D2",
          "ticks": 57984,
          "time": 47.1875,
          "velocity": 0.7874015748031497
        },
        {
          "duration": 0.15625,
          "durationTicks": 192,
          "midi": 59,
          "name": "B3",
          "ticks": 57984,
          "time": 47.1875,
          "velocity": 0.7874015748031497
        },
        {
          "duration": 0.15625,
          "durationTicks": 192,
          "midi": 40,
          "name": "E2",
          "ticks": 57984,
          "time": 47.1875,
          "velocity": 0.7874015748031497
        },
        {
          "duration": 0.15625,
          "durationTicks": 192,
          "midi": 54,
          "name": "F#3",
          "ticks": 57984,
          "time": 47.1875,
          "velocity": 0.7874015748031497
        },
        {
          "duration": 0.15625,
          "durationTicks": 192,
          "midi": 46,
          "name": "A#2",
          "ticks": 58176,
          "time": 47.34375,
          "velocity": 0.7874015748031497
        },
        {
          "duration": 0.15625,
          "durationTicks": 192,
          "midi": 54,
          "name": "F#3",
          "ticks": 58176,
          "time": 47.34375,
          "velocity": 0.7874015748031497
        },
        {
          "duration": 0.15625,
          "durationTicks": 192,
          "midi": 42,
          "name": "F#2",
          "ticks": 58176,
          "time": 47.34375,
          "velocity": 0.7874015748031497
        },
        {
          "duration": 0.15625,
          "durationTicks": 192,
          "midi": 54,
          "name": "F#3",
          "ticks": 58368,
          "time": 47.5,
          "velocity": 0.7874015748031497
        },
        {
          "duration": 0.15625,
          "durationTicks": 192,
          "midi": 57,
          "name": "A3",
          "ticks": 58368,
          "time": 47.5,
          "velocity": 0.7874015748031497
        },
        {
          "duration": 0.15625,
          "durationTicks": 192,
          "midi": 36,
          "name": "C2",
          "ticks": 58368,
          "time": 47.5,
          "velocity": 0.7874015748031497
        },
        {
          "duration": 0.15625,
          "durationTicks": 192,
          "midi": 59,
          "name": "B3",
          "ticks": 58368,
          "time": 47.5,
          "velocity": 0.7874015748031497
        },
        {
          "duration": 0.15625,
          "durationTicks": 192,
          "midi": 49,
          "name": "C#3",
          "ticks": 58368,
          "time": 47.5,
          "velocity": 0.7874015748031497
        },
        {
          "duration": 0.15625,
          "durationTicks": 192,
          "midi": 42,
          "name": "F#2",
          "ticks": 58560,
          "time": 47.65625,
          "velocity": 0.7874015748031497
        },
        {
          "duration": 0.15625,
          "durationTicks": 192,
          "midi": 40,
          "name": "E2",
          "ticks": 58752,
          "time": 47.8125,
          "velocity": 0.7874015748031497
        },
        {
          "duration": 0.15625,
          "durationTicks": 192,
          "midi": 46,
          "name": "A#2",
          "ticks": 58752,
          "time": 47.8125,
          "velocity": 0.7874015748031497
        },
        {
          "duration": 0.15625,
          "durationTicks": 192,
          "midi": 38,
          "name": "D2",
          "ticks": 58752,
          "time": 47.8125,
          "velocity": 0.7874015748031497
        },
        {
          "duration": 0.15625,
          "durationTicks": 192,
          "midi": 54,
          "name": "F#3",
          "ticks": 58752,
          "time": 47.8125,
          "velocity": 0.7874015748031497
        },
        {
          "duration": 0.15625,
          "durationTicks": 192,
          "midi": 59,
          "name": "B3",
          "ticks": 58752,
          "time": 47.8125,
          "velocity": 0.7874015748031497
        },
        {
          "duration": 0.15625,
          "durationTicks": 192,
          "midi": 42,
          "name": "F#2",
          "ticks": 58944,
          "time": 47.96875,
          "velocity": 0.7874015748031497
        },
        {
          "duration": 0.15625,
          "durationTicks": 192,
          "midi": 54,
          "name": "F#3",
          "ticks": 58944,
          "time": 47.96875,
          "velocity": 0.7874015748031497
        },
        {
          "duration": 0.15625,
          "durationTicks": 192,
          "midi": 36,
          "name": "C2",
          "ticks": 59136,
          "time": 48.125,
          "velocity": 0.7874015748031497
        },
        {
          "duration": 0.15625,
          "durationTicks": 192,
          "midi": 54,
          "name": "F#3",
          "ticks": 59136,
          "time": 48.125,
          "velocity": 0.7874015748031497
        },
        {
          "duration": 0.15625,
          "durationTicks": 192,
          "midi": 59,
          "name": "B3",
          "ticks": 59136,
          "time": 48.125,
          "velocity": 0.7874015748031497
        },
        {
          "duration": 0.15625,
          "durationTicks": 192,
          "midi": 42,
          "name": "F#2",
          "ticks": 59328,
          "time": 48.28125,
          "velocity": 0.7874015748031497
        },
        {
          "duration": 0.15625,
          "durationTicks": 192,
          "midi": 59,
          "name": "B3",
          "ticks": 59520,
          "time": 48.4375,
          "velocity": 0.7874015748031497
        },
        {
          "duration": 0.15625,
          "durationTicks": 192,
          "midi": 54,
          "name": "F#3",
          "ticks": 59520,
          "time": 48.4375,
          "velocity": 0.7874015748031497
        },
        {
          "duration": 0.15625,
          "durationTicks": 192,
          "midi": 40,
          "name": "E2",
          "ticks": 59520,
          "time": 48.4375,
          "velocity": 0.7874015748031497
        },
        {
          "duration": 0.15625,
          "durationTicks": 192,
          "midi": 38,
          "name": "D2",
          "ticks": 59520,
          "time": 48.4375,
          "velocity": 0.7874015748031497
        },
        {
          "duration": 0.15625,
          "durationTicks": 192,
          "midi": 42,
          "name": "F#2",
          "ticks": 59712,
          "time": 48.59375,
          "velocity": 0.7874015748031497
        },
        {
          "duration": 0.15625,
          "durationTicks": 192,
          "midi": 46,
          "name": "A#2",
          "ticks": 59712,
          "time": 48.59375,
          "velocity": 0.7874015748031497
        },
        {
          "duration": 0.15625,
          "durationTicks": 192,
          "midi": 54,
          "name": "F#3",
          "ticks": 59712,
          "time": 48.59375,
          "velocity": 0.7874015748031497
        },
        {
          "duration": 0.15625,
          "durationTicks": 192,
          "midi": 36,
          "name": "C2",
          "ticks": 59904,
          "time": 48.75,
          "velocity": 0.7874015748031497
        },
        {
          "duration": 0.15625,
          "durationTicks": 192,
          "midi": 54,
          "name": "F#3",
          "ticks": 59904,
          "time": 48.75,
          "velocity": 0.7874015748031497
        },
        {
          "duration": 0.15625,
          "durationTicks": 192,
          "midi": 57,
          "name": "A3",
          "ticks": 59904,
          "time": 48.75,
          "velocity": 0.7874015748031497
        },
        {
          "duration": 0.15625,
          "durationTicks": 192,
          "midi": 59,
          "name": "B3",
          "ticks": 59904,
          "time": 48.75,
          "velocity": 0.7874015748031497
        },
        {
          "duration": 0.15625,
          "durationTicks": 192,
          "midi": 49,
          "name": "C#3",
          "ticks": 59904,
          "time": 48.75,
          "velocity": 0.7874015748031497
        },
        {
          "duration": 0.15625,
          "durationTicks": 192,
          "midi": 42,
          "name": "F#2",
          "ticks": 60096,
          "time": 48.90625,
          "velocity": 0.7874015748031497
        },
        {
          "duration": 0.15625,
          "durationTicks": 192,
          "midi": 46,
          "name": "A#2",
          "ticks": 60288,
          "time": 49.0625,
          "velocity": 0.7874015748031497
        },
        {
          "duration": 0.15625,
          "durationTicks": 192,
          "midi": 54,
          "name": "F#3",
          "ticks": 60288,
          "time": 49.0625,
          "velocity": 0.7874015748031497
        },
        {
          "duration": 0.15625,
          "durationTicks": 192,
          "midi": 59,
          "name": "B3",
          "ticks": 60288,
          "time": 49.0625,
          "velocity": 0.7874015748031497
        },
        {
          "duration": 0.15625,
          "durationTicks": 192,
          "midi": 38,
          "name": "D2",
          "ticks": 60288,
          "time": 49.0625,
          "velocity": 0.7874015748031497
        },
        {
          "duration": 0.15625,
          "durationTicks": 192,
          "midi": 40,
          "name": "E2",
          "ticks": 60288,
          "time": 49.0625,
          "velocity": 0.7874015748031497
        },
        {
          "duration": 0.15625,
          "durationTicks": 192,
          "midi": 42,
          "name": "F#2",
          "ticks": 60480,
          "time": 49.21875,
          "velocity": 0.7874015748031497
        },
        {
          "duration": 0.15625,
          "durationTicks": 192,
          "midi": 54,
          "name": "F#3",
          "ticks": 60480,
          "time": 49.21875,
          "velocity": 0.7874015748031497
        },
        {
          "duration": 0.15625,
          "durationTicks": 192,
          "midi": 59,
          "name": "B3",
          "ticks": 60672,
          "time": 49.375,
          "velocity": 0.7874015748031497
        },
        {
          "duration": 0.15625,
          "durationTicks": 192,
          "midi": 54,
          "name": "F#3",
          "ticks": 60672,
          "time": 49.375,
          "velocity": 0.7874015748031497
        },
        {
          "duration": 0.15625,
          "durationTicks": 192,
          "midi": 36,
          "name": "C2",
          "ticks": 60672,
          "time": 49.375,
          "velocity": 0.7874015748031497
        },
        {
          "duration": 0.15625,
          "durationTicks": 192,
          "midi": 42,
          "name": "F#2",
          "ticks": 60864,
          "time": 49.53125,
          "velocity": 0.7874015748031497
        },
        {
          "duration": 0.15625,
          "durationTicks": 192,
          "midi": 38,
          "name": "D2",
          "ticks": 61056,
          "time": 49.6875,
          "velocity": 0.7874015748031497
        },
        {
          "duration": 0.15625,
          "durationTicks": 192,
          "midi": 59,
          "name": "B3",
          "ticks": 61056,
          "time": 49.6875,
          "velocity": 0.7874015748031497
        },
        {
          "duration": 0.15625,
          "durationTicks": 192,
          "midi": 40,
          "name": "E2",
          "ticks": 61056,
          "time": 49.6875,
          "velocity": 0.7874015748031497
        },
        {
          "duration": 0.15625,
          "durationTicks": 192,
          "midi": 54,
          "name": "F#3",
          "ticks": 61056,
          "time": 49.6875,
          "velocity": 0.7874015748031497
        },
        {
          "duration": 0.15625,
          "durationTicks": 192,
          "midi": 42,
          "name": "F#2",
          "ticks": 61248,
          "time": 49.84375,
          "velocity": 0.7874015748031497
        },
        {
          "duration": 0.15625,
          "durationTicks": 192,
          "midi": 46,
          "name": "A#2",
          "ticks": 61248,
          "time": 49.84375,
          "velocity": 0.7874015748031497
        },
        {
          "duration": 0.15625,
          "durationTicks": 192,
          "midi": 54,
          "name": "F#3",
          "ticks": 61248,
          "time": 49.84375,
          "velocity": 0.7874015748031497
        },
        {
          "duration": 0.15625,
          "durationTicks": 192,
          "midi": 59,
          "name": "B3",
          "ticks": 61440,
          "time": 50,
          "velocity": 0.7874015748031497
        },
        {
          "duration": 0.15625,
          "durationTicks": 192,
          "midi": 57,
          "name": "A3",
          "ticks": 61440,
          "time": 50,
          "velocity": 0.7874015748031497
        },
        {
          "duration": 0.15625,
          "durationTicks": 192,
          "midi": 49,
          "name": "C#3",
          "ticks": 61440,
          "time": 50,
          "velocity": 0.7874015748031497
        },
        {
          "duration": 0.15625,
          "durationTicks": 192,
          "midi": 36,
          "name": "C2",
          "ticks": 61440,
          "time": 50,
          "velocity": 0.7874015748031497
        },
        {
          "duration": 0.15625,
          "durationTicks": 192,
          "midi": 54,
          "name": "F#3",
          "ticks": 61440,
          "time": 50,
          "velocity": 0.7874015748031497
        },
        {
          "duration": 0.15625,
          "durationTicks": 192,
          "midi": 42,
          "name": "F#2",
          "ticks": 61632,
          "time": 50.15625,
          "velocity": 0.7874015748031497
        },
        {
          "duration": 0.15625,
          "durationTicks": 192,
          "midi": 40,
          "name": "E2",
          "ticks": 61824,
          "time": 50.3125,
          "velocity": 0.7874015748031497
        },
        {
          "duration": 0.15625,
          "durationTicks": 192,
          "midi": 38,
          "name": "D2",
          "ticks": 61824,
          "time": 50.3125,
          "velocity": 0.7874015748031497
        },
        {
          "duration": 0.15625,
          "durationTicks": 192,
          "midi": 46,
          "name": "A#2",
          "ticks": 61824,
          "time": 50.3125,
          "velocity": 0.7874015748031497
        },
        {
          "duration": 0.15625,
          "durationTicks": 192,
          "midi": 54,
          "name": "F#3",
          "ticks": 61824,
          "time": 50.3125,
          "velocity": 0.7874015748031497
        },
        {
          "duration": 0.15625,
          "durationTicks": 192,
          "midi": 59,
          "name": "B3",
          "ticks": 61824,
          "time": 50.3125,
          "velocity": 0.7874015748031497
        },
        {
          "duration": 0.15625,
          "durationTicks": 192,
          "midi": 54,
          "name": "F#3",
          "ticks": 62016,
          "time": 50.46875,
          "velocity": 0.7874015748031497
        },
        {
          "duration": 0.15625,
          "durationTicks": 192,
          "midi": 42,
          "name": "F#2",
          "ticks": 62016,
          "time": 50.46875,
          "velocity": 0.7874015748031497
        },
        {
          "duration": 0.15625,
          "durationTicks": 192,
          "midi": 36,
          "name": "C2",
          "ticks": 62208,
          "time": 50.625,
          "velocity": 0.7874015748031497
        },
        {
          "duration": 0.15625,
          "durationTicks": 192,
          "midi": 54,
          "name": "F#3",
          "ticks": 62208,
          "time": 50.625,
          "velocity": 0.7874015748031497
        },
        {
          "duration": 0.15625,
          "durationTicks": 192,
          "midi": 59,
          "name": "B3",
          "ticks": 62208,
          "time": 50.625,
          "velocity": 0.7874015748031497
        },
        {
          "duration": 0.15625,
          "durationTicks": 192,
          "midi": 42,
          "name": "F#2",
          "ticks": 62400,
          "time": 50.78125,
          "velocity": 0.7874015748031497
        },
        {
          "duration": 0.15625,
          "durationTicks": 192,
          "midi": 38,
          "name": "D2",
          "ticks": 62592,
          "time": 50.9375,
          "velocity": 0.7874015748031497
        },
        {
          "duration": 0.15625,
          "durationTicks": 192,
          "midi": 59,
          "name": "B3",
          "ticks": 62592,
          "time": 50.9375,
          "velocity": 0.7874015748031497
        },
        {
          "duration": 0.15625,
          "durationTicks": 192,
          "midi": 40,
          "name": "E2",
          "ticks": 62592,
          "time": 50.9375,
          "velocity": 0.7874015748031497
        },
        {
          "duration": 0.15625,
          "durationTicks": 192,
          "midi": 54,
          "name": "F#3",
          "ticks": 62592,
          "time": 50.9375,
          "velocity": 0.7874015748031497
        },
        {
          "duration": 0.15625,
          "durationTicks": 192,
          "midi": 54,
          "name": "F#3",
          "ticks": 62784,
          "time": 51.09375,
          "velocity": 0.7874015748031497
        },
        {
          "duration": 0.15625,
          "durationTicks": 192,
          "midi": 42,
          "name": "F#2",
          "ticks": 62784,
          "time": 51.09375,
          "velocity": 0.7874015748031497
        },
        {
          "duration": 0.15625,
          "durationTicks": 192,
          "midi": 46,
          "name": "A#2",
          "ticks": 62784,
          "time": 51.09375,
          "velocity": 0.7874015748031497
        },
        {
          "duration": 0.15625,
          "durationTicks": 192,
          "midi": 57,
          "name": "A3",
          "ticks": 62976,
          "time": 51.25,
          "velocity": 0.7874015748031497
        },
        {
          "duration": 0.15625,
          "durationTicks": 192,
          "midi": 59,
          "name": "B3",
          "ticks": 62976,
          "time": 51.25,
          "velocity": 0.7874015748031497
        },
        {
          "duration": 0.15625,
          "durationTicks": 192,
          "midi": 49,
          "name": "C#3",
          "ticks": 62976,
          "time": 51.25,
          "velocity": 0.7874015748031497
        },
        {
          "duration": 0.15625,
          "durationTicks": 192,
          "midi": 54,
          "name": "F#3",
          "ticks": 62976,
          "time": 51.25,
          "velocity": 0.7874015748031497
        },
        {
          "duration": 0.15625,
          "durationTicks": 192,
          "midi": 36,
          "name": "C2",
          "ticks": 62976,
          "time": 51.25,
          "velocity": 0.7874015748031497
        },
        {
          "duration": 0.15625,
          "durationTicks": 192,
          "midi": 42,
          "name": "F#2",
          "ticks": 63168,
          "time": 51.40625,
          "velocity": 0.7874015748031497
        },
        {
          "duration": 0.15625,
          "durationTicks": 192,
          "midi": 38,
          "name": "D2",
          "ticks": 63360,
          "time": 51.5625,
          "velocity": 0.7874015748031497
        },
        {
          "duration": 0.15625,
          "durationTicks": 192,
          "midi": 59,
          "name": "B3",
          "ticks": 63360,
          "time": 51.5625,
          "velocity": 0.7874015748031497
        },
        {
          "duration": 0.15625,
          "durationTicks": 192,
          "midi": 46,
          "name": "A#2",
          "ticks": 63360,
          "time": 51.5625,
          "velocity": 0.7874015748031497
        },
        {
          "duration": 0.15625,
          "durationTicks": 192,
          "midi": 40,
          "name": "E2",
          "ticks": 63360,
          "time": 51.5625,
          "velocity": 0.7874015748031497
        },
        {
          "duration": 0.15625,
          "durationTicks": 192,
          "midi": 54,
          "name": "F#3",
          "ticks": 63360,
          "time": 51.5625,
          "velocity": 0.7874015748031497
        },
        {
          "duration": 0.15625,
          "durationTicks": 192,
          "midi": 54,
          "name": "F#3",
          "ticks": 63552,
          "time": 51.71875,
          "velocity": 0.7874015748031497
        },
        {
          "duration": 0.15625,
          "durationTicks": 192,
          "midi": 42,
          "name": "F#2",
          "ticks": 63552,
          "time": 51.71875,
          "velocity": 0.7874015748031497
        },
        {
          "duration": 0.15625,
          "durationTicks": 192,
          "midi": 54,
          "name": "F#3",
          "ticks": 63744,
          "time": 51.875,
          "velocity": 0.7874015748031497
        },
        {
          "duration": 0.15625,
          "durationTicks": 192,
          "midi": 59,
          "name": "B3",
          "ticks": 63744,
          "time": 51.875,
          "velocity": 0.7874015748031497
        },
        {
          "duration": 0.15625,
          "durationTicks": 192,
          "midi": 36,
          "name": "C2",
          "ticks": 63744,
          "time": 51.875,
          "velocity": 0.7874015748031497
        },
        {
          "duration": 0.15625,
          "durationTicks": 192,
          "midi": 42,
          "name": "F#2",
          "ticks": 63936,
          "time": 52.03125,
          "velocity": 0.7874015748031497
        },
        {
          "duration": 0.15625,
          "durationTicks": 192,
          "midi": 59,
          "name": "B3",
          "ticks": 64128,
          "time": 52.1875,
          "velocity": 0.7874015748031497
        },
        {
          "duration": 0.15625,
          "durationTicks": 192,
          "midi": 40,
          "name": "E2",
          "ticks": 64128,
          "time": 52.1875,
          "velocity": 0.7874015748031497
        },
        {
          "duration": 0.15625,
          "durationTicks": 192,
          "midi": 38,
          "name": "D2",
          "ticks": 64128,
          "time": 52.1875,
          "velocity": 0.7874015748031497
        },
        {
          "duration": 0.15625,
          "durationTicks": 192,
          "midi": 54,
          "name": "F#3",
          "ticks": 64128,
          "time": 52.1875,
          "velocity": 0.7874015748031497
        },
        {
          "duration": 0.15625,
          "durationTicks": 192,
          "midi": 54,
          "name": "F#3",
          "ticks": 64320,
          "time": 52.34375,
          "velocity": 0.7874015748031497
        },
        {
          "duration": 0.15625,
          "durationTicks": 192,
          "midi": 42,
          "name": "F#2",
          "ticks": 64320,
          "time": 52.34375,
          "velocity": 0.7874015748031497
        },
        {
          "duration": 0.15625,
          "durationTicks": 192,
          "midi": 46,
          "name": "A#2",
          "ticks": 64320,
          "time": 52.34375,
          "velocity": 0.7874015748031497
        },
        {
          "duration": 0.15625,
          "durationTicks": 192,
          "midi": 59,
          "name": "B3",
          "ticks": 64512,
          "time": 52.5,
          "velocity": 0.7874015748031497
        },
        {
          "duration": 0.15625,
          "durationTicks": 192,
          "midi": 57,
          "name": "A3",
          "ticks": 64512,
          "time": 52.5,
          "velocity": 0.7874015748031497
        },
        {
          "duration": 0.15625,
          "durationTicks": 192,
          "midi": 36,
          "name": "C2",
          "ticks": 64512,
          "time": 52.5,
          "velocity": 0.7874015748031497
        },
        {
          "duration": 0.15625,
          "durationTicks": 192,
          "midi": 49,
          "name": "C#3",
          "ticks": 64512,
          "time": 52.5,
          "velocity": 0.7874015748031497
        },
        {
          "duration": 0.15625,
          "durationTicks": 192,
          "midi": 54,
          "name": "F#3",
          "ticks": 64512,
          "time": 52.5,
          "velocity": 0.7874015748031497
        },
        {
          "duration": 0.15625,
          "durationTicks": 192,
          "midi": 42,
          "name": "F#2",
          "ticks": 64704,
          "time": 52.65625,
          "velocity": 0.7874015748031497
        },
        {
          "duration": 0.15625,
          "durationTicks": 192,
          "midi": 59,
          "name": "B3",
          "ticks": 64896,
          "time": 52.8125,
          "velocity": 0.7874015748031497
        },
        {
          "duration": 0.15625,
          "durationTicks": 192,
          "midi": 38,
          "name": "D2",
          "ticks": 64896,
          "time": 52.8125,
          "velocity": 0.7874015748031497
        },
        {
          "duration": 0.15625,
          "durationTicks": 192,
          "midi": 40,
          "name": "E2",
          "ticks": 64896,
          "time": 52.8125,
          "velocity": 0.7874015748031497
        },
        {
          "duration": 0.15625,
          "durationTicks": 192,
          "midi": 46,
          "name": "A#2",
          "ticks": 64896,
          "time": 52.8125,
          "velocity": 0.7874015748031497
        },
        {
          "duration": 0.15625,
          "durationTicks": 192,
          "midi": 54,
          "name": "F#3",
          "ticks": 64896,
          "time": 52.8125,
          "velocity": 0.7874015748031497
        },
        {
          "duration": 0.15625,
          "durationTicks": 192,
          "midi": 54,
          "name": "F#3",
          "ticks": 65088,
          "time": 52.96875,
          "velocity": 0.7874015748031497
        },
        {
          "duration": 0.15625,
          "durationTicks": 192,
          "midi": 42,
          "name": "F#2",
          "ticks": 65088,
          "time": 52.96875,
          "velocity": 0.7874015748031497
        },
        {
          "duration": 0.15625,
          "durationTicks": 192,
          "midi": 36,
          "name": "C2",
          "ticks": 65280,
          "time": 53.125,
          "velocity": 0.7874015748031497
        },
        {
          "duration": 0.15625,
          "durationTicks": 192,
          "midi": 54,
          "name": "F#3",
          "ticks": 65280,
          "time": 53.125,
          "velocity": 0.7874015748031497
        },
        {
          "duration": 0.15625,
          "durationTicks": 192,
          "midi": 59,
          "name": "B3",
          "ticks": 65280,
          "time": 53.125,
          "velocity": 0.7874015748031497
        },
        {
          "duration": 0.15625,
          "durationTicks": 192,
          "midi": 42,
          "name": "F#2",
          "ticks": 65472,
          "time": 53.28125,
          "velocity": 0.7874015748031497
        },
        {
          "duration": 0.15625,
          "durationTicks": 192,
          "midi": 54,
          "name": "F#3",
          "ticks": 65664,
          "time": 53.4375,
          "velocity": 0.7874015748031497
        },
        {
          "duration": 0.15625,
          "durationTicks": 192,
          "midi": 59,
          "name": "B3",
          "ticks": 65664,
          "time": 53.4375,
          "velocity": 0.7874015748031497
        },
        {
          "duration": 0.15625,
          "durationTicks": 192,
          "midi": 38,
          "name": "D2",
          "ticks": 65664,
          "time": 53.4375,
          "velocity": 0.7874015748031497
        },
        {
          "duration": 0.15625,
          "durationTicks": 192,
          "midi": 40,
          "name": "E2",
          "ticks": 65664,
          "time": 53.4375,
          "velocity": 0.7874015748031497
        },
        {
          "duration": 0.15625,
          "durationTicks": 192,
          "midi": 54,
          "name": "F#3",
          "ticks": 65856,
          "time": 53.59375,
          "velocity": 0.7874015748031497
        },
        {
          "duration": 0.15625,
          "durationTicks": 192,
          "midi": 46,
          "name": "A#2",
          "ticks": 65856,
          "time": 53.59375,
          "velocity": 0.7874015748031497
        },
        {
          "duration": 0.15625,
          "durationTicks": 192,
          "midi": 42,
          "name": "F#2",
          "ticks": 65856,
          "time": 53.59375,
          "velocity": 0.7874015748031497
        },
        {
          "duration": 0.15625,
          "durationTicks": 192,
          "midi": 59,
          "name": "B3",
          "ticks": 66048,
          "time": 53.75,
          "velocity": 0.7874015748031497
        },
        {
          "duration": 0.15625,
          "durationTicks": 192,
          "midi": 55,
          "name": "G3",
          "ticks": 66048,
          "time": 53.75,
          "velocity": 0.7874015748031497
        },
        {
          "duration": 0.15625,
          "durationTicks": 192,
          "midi": 40,
          "name": "E2",
          "ticks": 66048,
          "time": 53.75,
          "velocity": 0.7874015748031497
        },
        {
          "duration": 0.15625,
          "durationTicks": 192,
          "midi": 36,
          "name": "C2",
          "ticks": 66048,
          "time": 53.75,
          "velocity": 0.7874015748031497
        },
        {
          "duration": 0.15625,
          "durationTicks": 192,
          "midi": 54,
          "name": "F#3",
          "ticks": 66048,
          "time": 53.75,
          "velocity": 0.7874015748031497
        },
        {
          "duration": 0.15625,
          "durationTicks": 192,
          "midi": 42,
          "name": "F#2",
          "ticks": 66240,
          "time": 53.90625,
          "velocity": 0.7874015748031497
        },
        {
          "duration": 0.15625,
          "durationTicks": 192,
          "midi": 38,
          "name": "D2",
          "ticks": 66432,
          "time": 54.0625,
          "velocity": 0.7874015748031497
        },
        {
          "duration": 0.15625,
          "durationTicks": 192,
          "midi": 54,
          "name": "F#3",
          "ticks": 66432,
          "time": 54.0625,
          "velocity": 0.7874015748031497
        },
        {
          "duration": 0.15625,
          "durationTicks": 192,
          "midi": 40,
          "name": "E2",
          "ticks": 66432,
          "time": 54.0625,
          "velocity": 0.7874015748031497
        },
        {
          "duration": 0.15625,
          "durationTicks": 192,
          "midi": 55,
          "name": "G3",
          "ticks": 66432,
          "time": 54.0625,
          "velocity": 0.7874015748031497
        },
        {
          "duration": 0.15625,
          "durationTicks": 192,
          "midi": 36,
          "name": "C2",
          "ticks": 66432,
          "time": 54.0625,
          "velocity": 0.7874015748031497
        },
        {
          "duration": 0.15625,
          "durationTicks": 192,
          "midi": 59,
          "name": "B3",
          "ticks": 66432,
          "time": 54.0625,
          "velocity": 0.7874015748031497
        },
        {
          "duration": 0.15625,
          "durationTicks": 192,
          "midi": 55,
          "name": "G3",
          "ticks": 66624,
          "time": 54.21875,
          "velocity": 0.7874015748031497
        },
        {
          "duration": 0.15625,
          "durationTicks": 192,
          "midi": 38,
          "name": "D2",
          "ticks": 66624,
          "time": 54.21875,
          "velocity": 0.7874015748031497
        },
        {
          "duration": 0.15625,
          "durationTicks": 192,
          "midi": 59,
          "name": "B3",
          "ticks": 66624,
          "time": 54.21875,
          "velocity": 0.7874015748031497
        },
        {
          "duration": 0.15625,
          "durationTicks": 192,
          "midi": 42,
          "name": "F#2",
          "ticks": 66624,
          "time": 54.21875,
          "velocity": 0.7874015748031497
        },
        {
          "duration": 0.15625,
          "durationTicks": 192,
          "midi": 40,
          "name": "E2",
          "ticks": 66624,
          "time": 54.21875,
          "velocity": 0.7874015748031497
        },
        {
          "duration": 0.15625,
          "durationTicks": 192,
          "midi": 54,
          "name": "F#3",
          "ticks": 66624,
          "time": 54.21875,
          "velocity": 0.7874015748031497
        },
        {
          "duration": 0.546875,
          "durationTicks": 672,
          "midi": 57,
          "name": "A3",
          "ticks": 66816,
          "time": 54.375,
          "velocity": 0.7874015748031497
        },
        {
          "duration": 0.546875,
          "durationTicks": 672,
          "midi": 55,
          "name": "G3",
          "ticks": 66816,
          "time": 54.375,
          "velocity": 0.7874015748031497
        },
        {
          "duration": 0.546875,
          "durationTicks": 672,
          "midi": 49,
          "name": "C#3",
          "ticks": 66816,
          "time": 54.375,
          "velocity": 0.7874015748031497
        },
        {
          "duration": 0.546875,
          "durationTicks": 672,
          "midi": 38,
          "name": "D2",
          "ticks": 66816,
          "time": 54.375,
          "velocity": 0.7874015748031497
        },
        {
          "duration": 0.546875,
          "durationTicks": 672,
          "midi": 40,
          "name": "E2",
          "ticks": 66816,
          "time": 54.375,
          "velocity": 0.7874015748031497
        },
        {
          "duration": 0.546875,
          "durationTicks": 672,
          "midi": 59,
          "name": "B3",
          "ticks": 66816,
          "time": 54.375,
          "velocity": 0.7874015748031497
        },
        {
          "duration": 0.546875,
          "durationTicks": 672,
          "midi": 54,
          "name": "F#3",
          "ticks": 66816,
          "time": 54.375,
          "velocity": 0.7874015748031497
        },
        {
          "duration": 0.234375,
          "durationTicks": 288,
          "midi": 46,
          "name": "A#2",
          "ticks": 67584,
          "time": 55,
          "velocity": 0.7874015748031497
        },
        {
          "duration": 0.234375,
          "durationTicks": 288,
          "midi": 52,
          "name": "E3",
          "ticks": 67584,
          "time": 55,
          "velocity": 0.7874015748031497
        },
        {
          "duration": 0.234375,
          "durationTicks": 288,
          "midi": 38,
          "name": "D2",
          "ticks": 67584,
          "time": 55,
          "velocity": 0.7874015748031497
        },
        {
          "duration": 0.234375,
          "durationTicks": 288,
          "midi": 39,
          "name": "D#2",
          "ticks": 67584,
          "time": 55,
          "velocity": 0.7874015748031497
        },
        {
          "duration": 0.234375,
          "durationTicks": 288,
          "midi": 40,
          "name": "E2",
          "ticks": 67584,
          "time": 55,
          "velocity": 0.7874015748031497
        },
        {
          "duration": 0.234375,
          "durationTicks": 288,
          "midi": 55,
          "name": "G3",
          "ticks": 67584,
          "time": 55,
          "velocity": 0.7874015748031497
        },
        {
          "duration": 0.234375,
          "durationTicks": 288,
          "midi": 46,
          "name": "A#2",
          "ticks": 67968,
          "time": 55.3125,
          "velocity": 0.7874015748031497
        },
        {
          "duration": 0.234375,
          "durationTicks": 288,
          "midi": 52,
          "name": "E3",
          "ticks": 67968,
          "time": 55.3125,
          "velocity": 0.7874015748031497
        },
        {
          "duration": 0.234375,
          "durationTicks": 288,
          "midi": 38,
          "name": "D2",
          "ticks": 67968,
          "time": 55.3125,
          "velocity": 0.7874015748031497
        },
        {
          "duration": 0.234375,
          "durationTicks": 288,
          "midi": 55,
          "name": "G3",
          "ticks": 67968,
          "time": 55.3125,
          "velocity": 0.7874015748031497
        },
        {
          "duration": 0.234375,
          "durationTicks": 288,
          "midi": 40,
          "name": "E2",
          "ticks": 67968,
          "time": 55.3125,
          "velocity": 0.7874015748031497
        },
        {
          "duration": 0.234375,
          "durationTicks": 288,
          "midi": 39,
          "name": "D#2",
          "ticks": 67968,
          "time": 55.3125,
          "velocity": 0.7874015748031497
        },
        {
          "duration": 0.234375,
          "durationTicks": 288,
          "midi": 38,
          "name": "D2",
          "ticks": 68352,
          "time": 55.625,
          "velocity": 0.7874015748031497
        },
        {
          "duration": 0.234375,
          "durationTicks": 288,
          "midi": 39,
          "name": "D#2",
          "ticks": 68352,
          "time": 55.625,
          "velocity": 0.7874015748031497
        },
        {
          "duration": 0.234375,
          "durationTicks": 288,
          "midi": 52,
          "name": "E3",
          "ticks": 68352,
          "time": 55.625,
          "velocity": 0.7874015748031497
        },
        {
          "duration": 0.234375,
          "durationTicks": 288,
          "midi": 40,
          "name": "E2",
          "ticks": 68352,
          "time": 55.625,
          "velocity": 0.7874015748031497
        },
        {
          "duration": 0.234375,
          "durationTicks": 288,
          "midi": 46,
          "name": "A#2",
          "ticks": 68352,
          "time": 55.625,
          "velocity": 0.7874015748031497
        },
        {
          "duration": 0.234375,
          "durationTicks": 288,
          "midi": 55,
          "name": "G3",
          "ticks": 68352,
          "time": 55.625,
          "velocity": 0.7874015748031497
        },
        {
          "duration": 0.234375,
          "durationTicks": 288,
          "midi": 40,
          "name": "E2",
          "ticks": 68736,
          "time": 55.9375,
          "velocity": 0.7874015748031497
        },
        {
          "duration": 0.234375,
          "durationTicks": 288,
          "midi": 46,
          "name": "A#2",
          "ticks": 68736,
          "time": 55.9375,
          "velocity": 0.7874015748031497
        },
        {
          "duration": 0.234375,
          "durationTicks": 288,
          "midi": 38,
          "name": "D2",
          "ticks": 68736,
          "time": 55.9375,
          "velocity": 0.7874015748031497
        },
        {
          "duration": 0.234375,
          "durationTicks": 288,
          "midi": 52,
          "name": "E3",
          "ticks": 68736,
          "time": 55.9375,
          "velocity": 0.7874015748031497
        },
        {
          "duration": 0.234375,
          "durationTicks": 288,
          "midi": 39,
          "name": "D#2",
          "ticks": 68736,
          "time": 55.9375,
          "velocity": 0.7874015748031497
        },
        {
          "duration": 0.234375,
          "durationTicks": 288,
          "midi": 55,
          "name": "G3",
          "ticks": 68736,
          "time": 55.9375,
          "velocity": 0.7874015748031497
        },
        {
          "duration": 0.15625,
          "durationTicks": 192,
          "midi": 57,
          "name": "A3",
          "ticks": 69120,
          "time": 56.25,
          "velocity": 0.7874015748031497
        },
        {
          "duration": 0.15625,
          "durationTicks": 192,
          "midi": 59,
          "name": "B3",
          "ticks": 69120,
          "time": 56.25,
          "velocity": 0.7874015748031497
        },
        {
          "duration": 0.15625,
          "durationTicks": 192,
          "midi": 54,
          "name": "F#3",
          "ticks": 69120,
          "time": 56.25,
          "velocity": 0.7874015748031497
        },
        {
          "duration": 0.15625,
          "durationTicks": 192,
          "midi": 36,
          "name": "C2",
          "ticks": 69120,
          "time": 56.25,
          "velocity": 0.7874015748031497
        },
        {
          "duration": 0.15625,
          "durationTicks": 192,
          "midi": 46,
          "name": "A#2",
          "ticks": 69120,
          "time": 56.25,
          "velocity": 0.7874015748031497
        },
        {
          "duration": 0.15625,
          "durationTicks": 192,
          "midi": 49,
          "name": "C#3",
          "ticks": 69120,
          "time": 56.25,
          "velocity": 0.7874015748031497
        },
        {
          "duration": 0.15625,
          "durationTicks": 192,
          "midi": 42,
          "name": "F#2",
          "ticks": 69312,
          "time": 56.40625,
          "velocity": 0.7874015748031497
        },
        {
          "duration": 0.15625,
          "durationTicks": 192,
          "midi": 58,
          "name": "A#3",
          "ticks": 69504,
          "time": 56.5625,
          "velocity": 0.7874015748031497
        },
        {
          "duration": 0.15625,
          "durationTicks": 192,
          "midi": 55,
          "name": "G3",
          "ticks": 69504,
          "time": 56.5625,
          "velocity": 0.7874015748031497
        },
        {
          "duration": 0.15625,
          "durationTicks": 192,
          "midi": 54,
          "name": "F#3",
          "ticks": 69504,
          "time": 56.5625,
          "velocity": 0.7874015748031497
        },
        {
          "duration": 0.15625,
          "durationTicks": 192,
          "midi": 46,
          "name": "A#2",
          "ticks": 69504,
          "time": 56.5625,
          "velocity": 0.7874015748031497
        },
        {
          "duration": 0.15625,
          "durationTicks": 192,
          "midi": 38,
          "name": "D2",
          "ticks": 69504,
          "time": 56.5625,
          "velocity": 0.7874015748031497
        },
        {
          "duration": 0.15625,
          "durationTicks": 192,
          "midi": 49,
          "name": "C#3",
          "ticks": 69504,
          "time": 56.5625,
          "velocity": 0.7874015748031497
        },
        {
          "duration": 0.15625,
          "durationTicks": 192,
          "midi": 40,
          "name": "E2",
          "ticks": 69504,
          "time": 56.5625,
          "velocity": 0.7874015748031497
        },
        {
          "duration": 0.15625,
          "durationTicks": 192,
          "midi": 52,
          "name": "E3",
          "ticks": 69504,
          "time": 56.5625,
          "velocity": 0.7874015748031497
        },
        {
          "duration": 0.15625,
          "durationTicks": 192,
          "midi": 59,
          "name": "B3",
          "ticks": 69504,
          "time": 56.5625,
          "velocity": 0.7874015748031497
        },
        {
          "duration": 0.15625,
          "durationTicks": 192,
          "midi": 39,
          "name": "D#2",
          "ticks": 69504,
          "time": 56.5625,
          "velocity": 0.7874015748031497
        },
        {
          "duration": 0.15625,
          "durationTicks": 192,
          "midi": 42,
          "name": "F#2",
          "ticks": 69696,
          "time": 56.71875,
          "velocity": 0.7874015748031497
        },
        {
          "duration": 0.15625,
          "durationTicks": 192,
          "midi": 59,
          "name": "B3",
          "ticks": 69888,
          "time": 56.875,
          "velocity": 0.7874015748031497
        },
        {
          "duration": 0.15625,
          "durationTicks": 192,
          "midi": 36,
          "name": "C2",
          "ticks": 69888,
          "time": 56.875,
          "velocity": 0.7874015748031497
        },
        {
          "duration": 0.15625,
          "durationTicks": 192,
          "midi": 54,
          "name": "F#3",
          "ticks": 69888,
          "time": 56.875,
          "velocity": 0.7874015748031497
        },
        {
          "duration": 0.15625,
          "durationTicks": 192,
          "midi": 42,
          "name": "F#2",
          "ticks": 70080,
          "time": 57.03125,
          "velocity": 0.7874015748031497
        },
        {
          "duration": 0.15625,
          "durationTicks": 192,
          "midi": 59,
          "name": "B3",
          "ticks": 70272,
          "time": 57.1875,
          "velocity": 0.7874015748031497
        },
        {
          "duration": 0.15625,
          "durationTicks": 192,
          "midi": 58,
          "name": "A#3",
          "ticks": 70272,
          "time": 57.1875,
          "velocity": 0.7874015748031497
        },
        {
          "duration": 0.15625,
          "durationTicks": 192,
          "midi": 46,
          "name": "A#2",
          "ticks": 70272,
          "time": 57.1875,
          "velocity": 0.7874015748031497
        },
        {
          "duration": 0.15625,
          "durationTicks": 192,
          "midi": 49,
          "name": "C#3",
          "ticks": 70272,
          "time": 57.1875,
          "velocity": 0.7874015748031497
        },
        {
          "duration": 0.15625,
          "durationTicks": 192,
          "midi": 40,
          "name": "E2",
          "ticks": 70272,
          "time": 57.1875,
          "velocity": 0.7874015748031497
        },
        {
          "duration": 0.15625,
          "durationTicks": 192,
          "midi": 52,
          "name": "E3",
          "ticks": 70272,
          "time": 57.1875,
          "velocity": 0.7874015748031497
        },
        {
          "duration": 0.15625,
          "durationTicks": 192,
          "midi": 55,
          "name": "G3",
          "ticks": 70272,
          "time": 57.1875,
          "velocity": 0.7874015748031497
        },
        {
          "duration": 0.15625,
          "durationTicks": 192,
          "midi": 38,
          "name": "D2",
          "ticks": 70272,
          "time": 57.1875,
          "velocity": 0.7874015748031497
        },
        {
          "duration": 0.15625,
          "durationTicks": 192,
          "midi": 54,
          "name": "F#3",
          "ticks": 70272,
          "time": 57.1875,
          "velocity": 0.7874015748031497
        },
        {
          "duration": 0.15625,
          "durationTicks": 192,
          "midi": 39,
          "name": "D#2",
          "ticks": 70272,
          "time": 57.1875,
          "velocity": 0.7874015748031497
        },
        {
          "duration": 0.15625,
          "durationTicks": 192,
          "midi": 42,
          "name": "F#2",
          "ticks": 70464,
          "time": 57.34375,
          "velocity": 0.7874015748031497
        },
        {
          "duration": 0.15625,
          "durationTicks": 192,
          "midi": 36,
          "name": "C2",
          "ticks": 70656,
          "time": 57.5,
          "velocity": 0.7874015748031497
        },
        {
          "duration": 0.15625,
          "durationTicks": 192,
          "midi": 54,
          "name": "F#3",
          "ticks": 70656,
          "time": 57.5,
          "velocity": 0.7874015748031497
        },
        {
          "duration": 0.15625,
          "durationTicks": 192,
          "midi": 59,
          "name": "B3",
          "ticks": 70656,
          "time": 57.5,
          "velocity": 0.7874015748031497
        },
        {
          "duration": 0.15625,
          "durationTicks": 192,
          "midi": 42,
          "name": "F#2",
          "ticks": 70848,
          "time": 57.65625,
          "velocity": 0.7874015748031497
        },
        {
          "duration": 0.15625,
          "durationTicks": 192,
          "midi": 59,
          "name": "B3",
          "ticks": 71040,
          "time": 57.8125,
          "velocity": 0.7874015748031497
        },
        {
          "duration": 0.15625,
          "durationTicks": 192,
          "midi": 57,
          "name": "A3",
          "ticks": 71040,
          "time": 57.8125,
          "velocity": 0.7874015748031497
        },
        {
          "duration": 0.15625,
          "durationTicks": 192,
          "midi": 49,
          "name": "C#3",
          "ticks": 71040,
          "time": 57.8125,
          "velocity": 0.7874015748031497
        },
        {
          "duration": 0.15625,
          "durationTicks": 192,
          "midi": 46,
          "name": "A#2",
          "ticks": 71040,
          "time": 57.8125,
          "velocity": 0.7874015748031497
        },
        {
          "duration": 0.15625,
          "durationTicks": 192,
          "midi": 55,
          "name": "G3",
          "ticks": 71040,
          "time": 57.8125,
          "velocity": 0.7874015748031497
        },
        {
          "duration": 0.15625,
          "durationTicks": 192,
          "midi": 40,
          "name": "E2",
          "ticks": 71040,
          "time": 57.8125,
          "velocity": 0.7874015748031497
        },
        {
          "duration": 0.15625,
          "durationTicks": 192,
          "midi": 52,
          "name": "E3",
          "ticks": 71040,
          "time": 57.8125,
          "velocity": 0.7874015748031497
        },
        {
          "duration": 0.15625,
          "durationTicks": 192,
          "midi": 38,
          "name": "D2",
          "ticks": 71040,
          "time": 57.8125,
          "velocity": 0.7874015748031497
        },
        {
          "duration": 0.15625,
          "durationTicks": 192,
          "midi": 54,
          "name": "F#3",
          "ticks": 71040,
          "time": 57.8125,
          "velocity": 0.7874015748031497
        },
        {
          "duration": 0.15625,
          "durationTicks": 192,
          "midi": 39,
          "name": "D#2",
          "ticks": 71040,
          "time": 57.8125,
          "velocity": 0.7874015748031497
        },
        {
          "duration": 0.15625,
          "durationTicks": 192,
          "midi": 42,
          "name": "F#2",
          "ticks": 71232,
          "time": 57.96875,
          "velocity": 0.7874015748031497
        },
        {
          "duration": 0.15625,
          "durationTicks": 192,
          "midi": 35,
          "name": "B1",
          "ticks": 71232,
          "time": 57.96875,
          "velocity": 0.7874015748031497
        },
        {
          "duration": 0.15625,
          "durationTicks": 192,
          "midi": 55,
          "name": "G3",
          "ticks": 71424,
          "time": 58.125,
          "velocity": 0.7874015748031497
        },
        {
          "duration": 0.15625,
          "durationTicks": 192,
          "midi": 39,
          "name": "D#2",
          "ticks": 71424,
          "time": 58.125,
          "velocity": 0.7874015748031497
        },
        {
          "duration": 0.15625,
          "durationTicks": 192,
          "midi": 46,
          "name": "A#2",
          "ticks": 71424,
          "time": 58.125,
          "velocity": 0.7874015748031497
        },
        {
          "duration": 0.15625,
          "durationTicks": 192,
          "midi": 58,
          "name": "A#3",
          "ticks": 71424,
          "time": 58.125,
          "velocity": 0.7874015748031497
        },
        {
          "duration": 0.15625,
          "durationTicks": 192,
          "midi": 49,
          "name": "C#3",
          "ticks": 71424,
          "time": 58.125,
          "velocity": 0.7874015748031497
        },
        {
          "duration": 0.15625,
          "durationTicks": 192,
          "midi": 40,
          "name": "E2",
          "ticks": 71424,
          "time": 58.125,
          "velocity": 0.7874015748031497
        },
        {
          "duration": 0.15625,
          "durationTicks": 192,
          "midi": 54,
          "name": "F#3",
          "ticks": 71424,
          "time": 58.125,
          "velocity": 0.7874015748031497
        },
        {
          "duration": 0.15625,
          "durationTicks": 192,
          "midi": 38,
          "name": "D2",
          "ticks": 71424,
          "time": 58.125,
          "velocity": 0.7874015748031497
        },
        {
          "duration": 0.15625,
          "durationTicks": 192,
          "midi": 52,
          "name": "E3",
          "ticks": 71424,
          "time": 58.125,
          "velocity": 0.7874015748031497
        },
        {
          "duration": 0.15625,
          "durationTicks": 192,
          "midi": 59,
          "name": "B3",
          "ticks": 71424,
          "time": 58.125,
          "velocity": 0.7874015748031497
        },
        {
          "duration": 0.15625,
          "durationTicks": 192,
          "midi": 42,
          "name": "F#2",
          "ticks": 71616,
          "time": 58.28125,
          "velocity": 0.7874015748031497
        },
        {
          "duration": 0.15625,
          "durationTicks": 192,
          "midi": 54,
          "name": "F#3",
          "ticks": 71808,
          "time": 58.4375,
          "velocity": 0.7874015748031497
        },
        {
          "duration": 0.15625,
          "durationTicks": 192,
          "midi": 59,
          "name": "B3",
          "ticks": 71808,
          "time": 58.4375,
          "velocity": 0.7874015748031497
        },
        {
          "duration": 0.15625,
          "durationTicks": 192,
          "midi": 36,
          "name": "C2",
          "ticks": 71808,
          "time": 58.4375,
          "velocity": 0.7874015748031497
        },
        {
          "duration": 0.15625,
          "durationTicks": 192,
          "midi": 42,
          "name": "F#2",
          "ticks": 72000,
          "time": 58.59375,
          "velocity": 0.7874015748031497
        },
        {
          "duration": 0.15625,
          "durationTicks": 192,
          "midi": 59,
          "name": "B3",
          "ticks": 72192,
          "time": 58.75,
          "velocity": 0.7874015748031497
        },
        {
          "duration": 0.15625,
          "durationTicks": 192,
          "midi": 54,
          "name": "F#3",
          "ticks": 72192,
          "time": 58.75,
          "velocity": 0.7874015748031497
        },
        {
          "duration": 0.15625,
          "durationTicks": 192,
          "midi": 36,
          "name": "C2",
          "ticks": 72192,
          "time": 58.75,
          "velocity": 0.7874015748031497
        },
        {
          "duration": 0.15625,
          "durationTicks": 192,
          "midi": 42,
          "name": "F#2",
          "ticks": 72384,
          "time": 58.90625,
          "velocity": 0.7874015748031497
        },
        {
          "duration": 0.15625,
          "durationTicks": 192,
          "midi": 59,
          "name": "B3",
          "ticks": 72576,
          "time": 59.0625,
          "velocity": 0.7874015748031497
        },
        {
          "duration": 0.15625,
          "durationTicks": 192,
          "midi": 54,
          "name": "F#3",
          "ticks": 72576,
          "time": 59.0625,
          "velocity": 0.7874015748031497
        },
        {
          "duration": 0.15625,
          "durationTicks": 192,
          "midi": 38,
          "name": "D2",
          "ticks": 72576,
          "time": 59.0625,
          "velocity": 0.7874015748031497
        },
        {
          "duration": 0.15625,
          "durationTicks": 192,
          "midi": 40,
          "name": "E2",
          "ticks": 72576,
          "time": 59.0625,
          "velocity": 0.7874015748031497
        },
        {
          "duration": 0.15625,
          "durationTicks": 192,
          "midi": 42,
          "name": "F#2",
          "ticks": 72768,
          "time": 59.21875,
          "velocity": 0.7874015748031497
        },
        {
          "duration": 0.15625,
          "durationTicks": 192,
          "midi": 36,
          "name": "C2",
          "ticks": 72960,
          "time": 59.375,
          "velocity": 0.7874015748031497
        },
        {
          "duration": 0.15625,
          "durationTicks": 192,
          "midi": 54,
          "name": "F#3",
          "ticks": 72960,
          "time": 59.375,
          "velocity": 0.7874015748031497
        },
        {
          "duration": 0.15625,
          "durationTicks": 192,
          "midi": 59,
          "name": "B3",
          "ticks": 72960,
          "time": 59.375,
          "velocity": 0.7874015748031497
        },
        {
          "duration": 0.15625,
          "durationTicks": 192,
          "midi": 42,
          "name": "F#2",
          "ticks": 73152,
          "time": 59.53125,
          "velocity": 0.7874015748031497
        },
        {
          "duration": 0.15625,
          "durationTicks": 192,
          "midi": 38,
          "name": "D2",
          "ticks": 73344,
          "time": 59.6875,
          "velocity": 0.7874015748031497
        },
        {
          "duration": 0.15625,
          "durationTicks": 192,
          "midi": 40,
          "name": "E2",
          "ticks": 73344,
          "time": 59.6875,
          "velocity": 0.7874015748031497
        },
        {
          "duration": 0.15625,
          "durationTicks": 192,
          "midi": 54,
          "name": "F#3",
          "ticks": 73344,
          "time": 59.6875,
          "velocity": 0.7874015748031497
        },
        {
          "duration": 0.15625,
          "durationTicks": 192,
          "midi": 59,
          "name": "B3",
          "ticks": 73344,
          "time": 59.6875,
          "velocity": 0.7874015748031497
        },
        {
          "duration": 0.15625,
          "durationTicks": 192,
          "midi": 42,
          "name": "F#2",
          "ticks": 73536,
          "time": 59.84375,
          "velocity": 0.7874015748031497
        },
        {
          "duration": 0.15625,
          "durationTicks": 192,
          "midi": 36,
          "name": "C2",
          "ticks": 73728,
          "time": 60,
          "velocity": 0.7874015748031497
        },
        {
          "duration": 0.15625,
          "durationTicks": 192,
          "midi": 49,
          "name": "C#3",
          "ticks": 73728,
          "time": 60,
          "velocity": 0.7874015748031497
        },
        {
          "duration": 0.15625,
          "durationTicks": 192,
          "midi": 54,
          "name": "F#3",
          "ticks": 73728,
          "time": 60,
          "velocity": 0.7874015748031497
        },
        {
          "duration": 0.15625,
          "durationTicks": 192,
          "midi": 57,
          "name": "A3",
          "ticks": 73728,
          "time": 60,
          "velocity": 0.7874015748031497
        },
        {
          "duration": 0.15625,
          "durationTicks": 192,
          "midi": 59,
          "name": "B3",
          "ticks": 73728,
          "time": 60,
          "velocity": 0.7874015748031497
        },
        {
          "duration": 0.15625,
          "durationTicks": 192,
          "midi": 42,
          "name": "F#2",
          "ticks": 73920,
          "time": 60.15625,
          "velocity": 0.7874015748031497
        },
        {
          "duration": 0.15625,
          "durationTicks": 192,
          "midi": 38,
          "name": "D2",
          "ticks": 74112,
          "time": 60.3125,
          "velocity": 0.7874015748031497
        },
        {
          "duration": 0.15625,
          "durationTicks": 192,
          "midi": 59,
          "name": "B3",
          "ticks": 74112,
          "time": 60.3125,
          "velocity": 0.7874015748031497
        },
        {
          "duration": 0.15625,
          "durationTicks": 192,
          "midi": 40,
          "name": "E2",
          "ticks": 74112,
          "time": 60.3125,
          "velocity": 0.7874015748031497
        },
        {
          "duration": 0.15625,
          "durationTicks": 192,
          "midi": 54,
          "name": "F#3",
          "ticks": 74112,
          "time": 60.3125,
          "velocity": 0.7874015748031497
        },
        {
          "duration": 0.15625,
          "durationTicks": 192,
          "midi": 42,
          "name": "F#2",
          "ticks": 74304,
          "time": 60.46875,
          "velocity": 0.7874015748031497
        },
        {
          "duration": 0.15625,
          "durationTicks": 192,
          "midi": 36,
          "name": "C2",
          "ticks": 74496,
          "time": 60.625,
          "velocity": 0.7874015748031497
        },
        {
          "duration": 0.15625,
          "durationTicks": 192,
          "midi": 54,
          "name": "F#3",
          "ticks": 74496,
          "time": 60.625,
          "velocity": 0.7874015748031497
        },
        {
          "duration": 0.15625,
          "durationTicks": 192,
          "midi": 59,
          "name": "B3",
          "ticks": 74496,
          "time": 60.625,
          "velocity": 0.7874015748031497
        },
        {
          "duration": 0.15625,
          "durationTicks": 192,
          "midi": 42,
          "name": "F#2",
          "ticks": 74688,
          "time": 60.78125,
          "velocity": 0.7874015748031497
        },
        {
          "duration": 0.15625,
          "durationTicks": 192,
          "midi": 38,
          "name": "D2",
          "ticks": 74880,
          "time": 60.9375,
          "velocity": 0.7874015748031497
        },
        {
          "duration": 0.15625,
          "durationTicks": 192,
          "midi": 40,
          "name": "E2",
          "ticks": 74880,
          "time": 60.9375,
          "velocity": 0.7874015748031497
        },
        {
          "duration": 0.15625,
          "durationTicks": 192,
          "midi": 54,
          "name": "F#3",
          "ticks": 74880,
          "time": 60.9375,
          "velocity": 0.7874015748031497
        },
        {
          "duration": 0.15625,
          "durationTicks": 192,
          "midi": 59,
          "name": "B3",
          "ticks": 74880,
          "time": 60.9375,
          "velocity": 0.7874015748031497
        },
        {
          "duration": 0.15625,
          "durationTicks": 192,
          "midi": 42,
          "name": "F#2",
          "ticks": 75072,
          "time": 61.09375,
          "velocity": 0.7874015748031497
        },
        {
          "duration": 0.15625,
          "durationTicks": 192,
          "midi": 54,
          "name": "F#3",
          "ticks": 75264,
          "time": 61.25,
          "velocity": 0.7874015748031497
        },
        {
          "duration": 0.15625,
          "durationTicks": 192,
          "midi": 36,
          "name": "C2",
          "ticks": 75264,
          "time": 61.25,
          "velocity": 0.7874015748031497
        },
        {
          "duration": 0.15625,
          "durationTicks": 192,
          "midi": 59,
          "name": "B3",
          "ticks": 75264,
          "time": 61.25,
          "velocity": 0.7874015748031497
        },
        {
          "duration": 0.15625,
          "durationTicks": 192,
          "midi": 42,
          "name": "F#2",
          "ticks": 75456,
          "time": 61.40625,
          "velocity": 0.7874015748031497
        },
        {
          "duration": 0.15625,
          "durationTicks": 192,
          "midi": 54,
          "name": "F#3",
          "ticks": 75648,
          "time": 61.5625,
          "velocity": 0.7874015748031497
        },
        {
          "duration": 0.15625,
          "durationTicks": 192,
          "midi": 40,
          "name": "E2",
          "ticks": 75648,
          "time": 61.5625,
          "velocity": 0.7874015748031497
        },
        {
          "duration": 0.15625,
          "durationTicks": 192,
          "midi": 59,
          "name": "B3",
          "ticks": 75648,
          "time": 61.5625,
          "velocity": 0.7874015748031497
        },
        {
          "duration": 0.15625,
          "durationTicks": 192,
          "midi": 38,
          "name": "D2",
          "ticks": 75648,
          "time": 61.5625,
          "velocity": 0.7874015748031497
        },
        {
          "duration": 0.15625,
          "durationTicks": 192,
          "midi": 42,
          "name": "F#2",
          "ticks": 75840,
          "time": 61.71875,
          "velocity": 0.7874015748031497
        },
        {
          "duration": 0.15625,
          "durationTicks": 192,
          "midi": 36,
          "name": "C2",
          "ticks": 76032,
          "time": 61.875,
          "velocity": 0.7874015748031497
        },
        {
          "duration": 0.15625,
          "durationTicks": 192,
          "midi": 54,
          "name": "F#3",
          "ticks": 76032,
          "time": 61.875,
          "velocity": 0.7874015748031497
        },
        {
          "duration": 0.15625,
          "durationTicks": 192,
          "midi": 59,
          "name": "B3",
          "ticks": 76032,
          "time": 61.875,
          "velocity": 0.7874015748031497
        },
        {
          "duration": 0.15625,
          "durationTicks": 192,
          "midi": 42,
          "name": "F#2",
          "ticks": 76224,
          "time": 62.03125,
          "velocity": 0.7874015748031497
        },
        {
          "duration": 0.15625,
          "durationTicks": 192,
          "midi": 59,
          "name": "B3",
          "ticks": 76416,
          "time": 62.1875,
          "velocity": 0.7874015748031497
        },
        {
          "duration": 0.15625,
          "durationTicks": 192,
          "midi": 38,
          "name": "D2",
          "ticks": 76416,
          "time": 62.1875,
          "velocity": 0.7874015748031497
        },
        {
          "duration": 0.15625,
          "durationTicks": 192,
          "midi": 40,
          "name": "E2",
          "ticks": 76416,
          "time": 62.1875,
          "velocity": 0.7874015748031497
        },
        {
          "duration": 0.15625,
          "durationTicks": 192,
          "midi": 54,
          "name": "F#3",
          "ticks": 76416,
          "time": 62.1875,
          "velocity": 0.7874015748031497
        },
        {
          "duration": 0.15625,
          "durationTicks": 192,
          "midi": 42,
          "name": "F#2",
          "ticks": 76608,
          "time": 62.34375,
          "velocity": 0.7874015748031497
        },
        {
          "duration": 0.15625,
          "durationTicks": 192,
          "midi": 36,
          "name": "C2",
          "ticks": 76800,
          "time": 62.5,
          "velocity": 0.7874015748031497
        },
        {
          "duration": 0.15625,
          "durationTicks": 192,
          "midi": 54,
          "name": "F#3",
          "ticks": 76800,
          "time": 62.5,
          "velocity": 0.7874015748031497
        },
        {
          "duration": 0.15625,
          "durationTicks": 192,
          "midi": 59,
          "name": "B3",
          "ticks": 76800,
          "time": 62.5,
          "velocity": 0.7874015748031497
        },
        {
          "duration": 0.15625,
          "durationTicks": 192,
          "midi": 42,
          "name": "F#2",
          "ticks": 76992,
          "time": 62.65625,
          "velocity": 0.7874015748031497
        },
        {
          "duration": 0.15625,
          "durationTicks": 192,
          "midi": 59,
          "name": "B3",
          "ticks": 77184,
          "time": 62.8125,
          "velocity": 0.7874015748031497
        },
        {
          "duration": 0.15625,
          "durationTicks": 192,
          "midi": 38,
          "name": "D2",
          "ticks": 77184,
          "time": 62.8125,
          "velocity": 0.7874015748031497
        },
        {
          "duration": 0.15625,
          "durationTicks": 192,
          "midi": 40,
          "name": "E2",
          "ticks": 77184,
          "time": 62.8125,
          "velocity": 0.7874015748031497
        },
        {
          "duration": 0.15625,
          "durationTicks": 192,
          "midi": 54,
          "name": "F#3",
          "ticks": 77184,
          "time": 62.8125,
          "velocity": 0.7874015748031497
        },
        {
          "duration": 0.15625,
          "durationTicks": 192,
          "midi": 42,
          "name": "F#2",
          "ticks": 77376,
          "time": 62.96875,
          "velocity": 0.7874015748031497
        },
        {
          "duration": 0.15625,
          "durationTicks": 192,
          "midi": 36,
          "name": "C2",
          "ticks": 77568,
          "time": 63.125,
          "velocity": 0.7874015748031497
        },
        {
          "duration": 0.15625,
          "durationTicks": 192,
          "midi": 59,
          "name": "B3",
          "ticks": 77568,
          "time": 63.125,
          "velocity": 0.7874015748031497
        },
        {
          "duration": 0.15625,
          "durationTicks": 192,
          "midi": 54,
          "name": "F#3",
          "ticks": 77568,
          "time": 63.125,
          "velocity": 0.7874015748031497
        },
        {
          "duration": 0.15625,
          "durationTicks": 192,
          "midi": 42,
          "name": "F#2",
          "ticks": 77760,
          "time": 63.28125,
          "velocity": 0.7874015748031497
        },
        {
          "duration": 0.15625,
          "durationTicks": 192,
          "midi": 38,
          "name": "D2",
          "ticks": 77952,
          "time": 63.4375,
          "velocity": 0.7874015748031497
        },
        {
          "duration": 0.15625,
          "durationTicks": 192,
          "midi": 59,
          "name": "B3",
          "ticks": 77952,
          "time": 63.4375,
          "velocity": 0.7874015748031497
        },
        {
          "duration": 0.15625,
          "durationTicks": 192,
          "midi": 40,
          "name": "E2",
          "ticks": 77952,
          "time": 63.4375,
          "velocity": 0.7874015748031497
        },
        {
          "duration": 0.15625,
          "durationTicks": 192,
          "midi": 54,
          "name": "F#3",
          "ticks": 77952,
          "time": 63.4375,
          "velocity": 0.7874015748031497
        },
        {
          "duration": 0.15625,
          "durationTicks": 192,
          "midi": 42,
          "name": "F#2",
          "ticks": 78144,
          "time": 63.59375,
          "velocity": 0.7874015748031497
        },
        {
          "duration": 0.15625,
          "durationTicks": 192,
          "midi": 59,
          "name": "B3",
          "ticks": 78336,
          "time": 63.75,
          "velocity": 0.7874015748031497
        },
        {
          "duration": 0.15625,
          "durationTicks": 192,
          "midi": 36,
          "name": "C2",
          "ticks": 78336,
          "time": 63.75,
          "velocity": 0.7874015748031497
        },
        {
          "duration": 0.15625,
          "durationTicks": 192,
          "midi": 54,
          "name": "F#3",
          "ticks": 78336,
          "time": 63.75,
          "velocity": 0.7874015748031497
        },
        {
          "duration": 0.15625,
          "durationTicks": 192,
          "midi": 42,
          "name": "F#2",
          "ticks": 78528,
          "time": 63.90625,
          "velocity": 0.7874015748031497
        },
        {
          "duration": 0.15625,
          "durationTicks": 192,
          "midi": 59,
          "name": "B3",
          "ticks": 78720,
          "time": 64.0625,
          "velocity": 0.7874015748031497
        },
        {
          "duration": 0.15625,
          "durationTicks": 192,
          "midi": 54,
          "name": "F#3",
          "ticks": 78720,
          "time": 64.0625,
          "velocity": 0.7874015748031497
        },
        {
          "duration": 0.15625,
          "durationTicks": 192,
          "midi": 38,
          "name": "D2",
          "ticks": 78720,
          "time": 64.0625,
          "velocity": 0.7874015748031497
        },
        {
          "duration": 0.15625,
          "durationTicks": 192,
          "midi": 40,
          "name": "E2",
          "ticks": 78720,
          "time": 64.0625,
          "velocity": 0.7874015748031497
        },
        {
          "duration": 0.15625,
          "durationTicks": 192,
          "midi": 42,
          "name": "F#2",
          "ticks": 78912,
          "time": 64.21875,
          "velocity": 0.7874015748031497
        },
        {
          "duration": 0.15625,
          "durationTicks": 192,
          "midi": 54,
          "name": "F#3",
          "ticks": 79104,
          "time": 64.375,
          "velocity": 0.7874015748031497
        },
        {
          "duration": 0.15625,
          "durationTicks": 192,
          "midi": 59,
          "name": "B3",
          "ticks": 79104,
          "time": 64.375,
          "velocity": 0.7874015748031497
        },
        {
          "duration": 0.15625,
          "durationTicks": 192,
          "midi": 36,
          "name": "C2",
          "ticks": 79104,
          "time": 64.375,
          "velocity": 0.7874015748031497
        },
        {
          "duration": 0.15625,
          "durationTicks": 192,
          "midi": 42,
          "name": "F#2",
          "ticks": 79296,
          "time": 64.53125,
          "velocity": 0.7874015748031497
        },
        {
          "duration": 0.15625,
          "durationTicks": 192,
          "midi": 59,
          "name": "B3",
          "ticks": 79488,
          "time": 64.6875,
          "velocity": 0.7874015748031497
        },
        {
          "duration": 0.15625,
          "durationTicks": 192,
          "midi": 54,
          "name": "F#3",
          "ticks": 79488,
          "time": 64.6875,
          "velocity": 0.7874015748031497
        },
        {
          "duration": 0.15625,
          "durationTicks": 192,
          "midi": 38,
          "name": "D2",
          "ticks": 79488,
          "time": 64.6875,
          "velocity": 0.7874015748031497
        },
        {
          "duration": 0.15625,
          "durationTicks": 192,
          "midi": 40,
          "name": "E2",
          "ticks": 79488,
          "time": 64.6875,
          "velocity": 0.7874015748031497
        },
        {
          "duration": 0.15625,
          "durationTicks": 192,
          "midi": 42,
          "name": "F#2",
          "ticks": 79680,
          "time": 64.84375,
          "velocity": 0.7874015748031497
        },
        {
          "duration": 0.15625,
          "durationTicks": 192,
          "midi": 54,
          "name": "F#3",
          "ticks": 79872,
          "time": 65,
          "velocity": 0.7874015748031497
        },
        {
          "duration": 0.15625,
          "durationTicks": 192,
          "midi": 59,
          "name": "B3",
          "ticks": 79872,
          "time": 65,
          "velocity": 0.7874015748031497
        },
        {
          "duration": 0.15625,
          "durationTicks": 192,
          "midi": 36,
          "name": "C2",
          "ticks": 79872,
          "time": 65,
          "velocity": 0.7874015748031497
        },
        {
          "duration": 0.15625,
          "durationTicks": 192,
          "midi": 42,
          "name": "F#2",
          "ticks": 80064,
          "time": 65.15625,
          "velocity": 0.7874015748031497
        },
        {
          "duration": 0.15625,
          "durationTicks": 192,
          "midi": 54,
          "name": "F#3",
          "ticks": 80256,
          "time": 65.3125,
          "velocity": 0.7874015748031497
        },
        {
          "duration": 0.15625,
          "durationTicks": 192,
          "midi": 59,
          "name": "B3",
          "ticks": 80256,
          "time": 65.3125,
          "velocity": 0.7874015748031497
        },
        {
          "duration": 0.15625,
          "durationTicks": 192,
          "midi": 40,
          "name": "E2",
          "ticks": 80256,
          "time": 65.3125,
          "velocity": 0.7874015748031497
        },
        {
          "duration": 0.15625,
          "durationTicks": 192,
          "midi": 38,
          "name": "D2",
          "ticks": 80256,
          "time": 65.3125,
          "velocity": 0.7874015748031497
        },
        {
          "duration": 0.15625,
          "durationTicks": 192,
          "midi": 42,
          "name": "F#2",
          "ticks": 80448,
          "time": 65.46875,
          "velocity": 0.7874015748031497
        },
        {
          "duration": 0.15625,
          "durationTicks": 192,
          "midi": 36,
          "name": "C2",
          "ticks": 80640,
          "time": 65.625,
          "velocity": 0.7874015748031497
        },
        {
          "duration": 0.15625,
          "durationTicks": 192,
          "midi": 54,
          "name": "F#3",
          "ticks": 80640,
          "time": 65.625,
          "velocity": 0.7874015748031497
        },
        {
          "duration": 0.15625,
          "durationTicks": 192,
          "midi": 59,
          "name": "B3",
          "ticks": 80640,
          "time": 65.625,
          "velocity": 0.7874015748031497
        },
        {
          "duration": 0.15625,
          "durationTicks": 192,
          "midi": 42,
          "name": "F#2",
          "ticks": 80832,
          "time": 65.78125,
          "velocity": 0.7874015748031497
        },
        {
          "duration": 0.15625,
          "durationTicks": 192,
          "midi": 59,
          "name": "B3",
          "ticks": 81024,
          "time": 65.9375,
          "velocity": 0.7874015748031497
        },
        {
          "duration": 0.15625,
          "durationTicks": 192,
          "midi": 38,
          "name": "D2",
          "ticks": 81024,
          "time": 65.9375,
          "velocity": 0.7874015748031497
        },
        {
          "duration": 0.15625,
          "durationTicks": 192,
          "midi": 40,
          "name": "E2",
          "ticks": 81024,
          "time": 65.9375,
          "velocity": 0.7874015748031497
        },
        {
          "duration": 0.15625,
          "durationTicks": 192,
          "midi": 54,
          "name": "F#3",
          "ticks": 81024,
          "time": 65.9375,
          "velocity": 0.7874015748031497
        },
        {
          "duration": 0.15625,
          "durationTicks": 192,
          "midi": 42,
          "name": "F#2",
          "ticks": 81216,
          "time": 66.09375,
          "velocity": 0.7874015748031497
        },
        {
          "duration": 0.15625,
          "durationTicks": 192,
          "midi": 54,
          "name": "F#3",
          "ticks": 81408,
          "time": 66.25,
          "velocity": 0.7874015748031497
        },
        {
          "duration": 0.15625,
          "durationTicks": 192,
          "midi": 49,
          "name": "C#3",
          "ticks": 81408,
          "time": 66.25,
          "velocity": 0.7874015748031497
        },
        {
          "duration": 0.15625,
          "durationTicks": 192,
          "midi": 36,
          "name": "C2",
          "ticks": 81408,
          "time": 66.25,
          "velocity": 0.7874015748031497
        },
        {
          "duration": 0.15625,
          "durationTicks": 192,
          "midi": 46,
          "name": "A#2",
          "ticks": 81408,
          "time": 66.25,
          "velocity": 0.7874015748031497
        },
        {
          "duration": 0.15625,
          "durationTicks": 192,
          "midi": 59,
          "name": "B3",
          "ticks": 81408,
          "time": 66.25,
          "velocity": 0.7874015748031497
        },
        {
          "duration": 0.15625,
          "durationTicks": 192,
          "midi": 57,
          "name": "A3",
          "ticks": 81408,
          "time": 66.25,
          "velocity": 0.7874015748031497
        },
        {
          "duration": 0.15625,
          "durationTicks": 192,
          "midi": 42,
          "name": "F#2",
          "ticks": 81600,
          "time": 66.40625,
          "velocity": 0.7874015748031497
        },
        {
          "duration": 0.15625,
          "durationTicks": 192,
          "midi": 46,
          "name": "A#2",
          "ticks": 81792,
          "time": 66.5625,
          "velocity": 0.7874015748031497
        },
        {
          "duration": 0.15625,
          "durationTicks": 192,
          "midi": 38,
          "name": "D2",
          "ticks": 81792,
          "time": 66.5625,
          "velocity": 0.7874015748031497
        },
        {
          "duration": 0.15625,
          "durationTicks": 192,
          "midi": 40,
          "name": "E2",
          "ticks": 81792,
          "time": 66.5625,
          "velocity": 0.7874015748031497
        },
        {
          "duration": 0.15625,
          "durationTicks": 192,
          "midi": 49,
          "name": "C#3",
          "ticks": 81792,
          "time": 66.5625,
          "velocity": 0.7874015748031497
        },
        {
          "duration": 0.15625,
          "durationTicks": 192,
          "midi": 55,
          "name": "G3",
          "ticks": 81792,
          "time": 66.5625,
          "velocity": 0.7874015748031497
        },
        {
          "duration": 0.15625,
          "durationTicks": 192,
          "midi": 52,
          "name": "E3",
          "ticks": 81792,
          "time": 66.5625,
          "velocity": 0.7874015748031497
        },
        {
          "duration": 0.15625,
          "durationTicks": 192,
          "midi": 58,
          "name": "A#3",
          "ticks": 81792,
          "time": 66.5625,
          "velocity": 0.7874015748031497
        },
        {
          "duration": 0.15625,
          "durationTicks": 192,
          "midi": 54,
          "name": "F#3",
          "ticks": 81792,
          "time": 66.5625,
          "velocity": 0.7874015748031497
        },
        {
          "duration": 0.15625,
          "durationTicks": 192,
          "midi": 39,
          "name": "D#2",
          "ticks": 81792,
          "time": 66.5625,
          "velocity": 0.7874015748031497
        },
        {
          "duration": 0.15625,
          "durationTicks": 192,
          "midi": 59,
          "name": "B3",
          "ticks": 81792,
          "time": 66.5625,
          "velocity": 0.7874015748031497
        },
        {
          "duration": 0.15625,
          "durationTicks": 192,
          "midi": 42,
          "name": "F#2",
          "ticks": 81984,
          "time": 66.71875,
          "velocity": 0.7874015748031497
        },
        {
          "duration": 0.15625,
          "durationTicks": 192,
          "midi": 36,
          "name": "C2",
          "ticks": 82176,
          "time": 66.875,
          "velocity": 0.7874015748031497
        },
        {
          "duration": 0.15625,
          "durationTicks": 192,
          "midi": 54,
          "name": "F#3",
          "ticks": 82176,
          "time": 66.875,
          "velocity": 0.7874015748031497
        },
        {
          "duration": 0.15625,
          "durationTicks": 192,
          "midi": 59,
          "name": "B3",
          "ticks": 82176,
          "time": 66.875,
          "velocity": 0.7874015748031497
        },
        {
          "duration": 0.15625,
          "durationTicks": 192,
          "midi": 42,
          "name": "F#2",
          "ticks": 82368,
          "time": 67.03125,
          "velocity": 0.7874015748031497
        },
        {
          "duration": 0.15625,
          "durationTicks": 192,
          "midi": 58,
          "name": "A#3",
          "ticks": 82560,
          "time": 67.1875,
          "velocity": 0.7874015748031497
        },
        {
          "duration": 0.15625,
          "durationTicks": 192,
          "midi": 55,
          "name": "G3",
          "ticks": 82560,
          "time": 67.1875,
          "velocity": 0.7874015748031497
        },
        {
          "duration": 0.15625,
          "durationTicks": 192,
          "midi": 59,
          "name": "B3",
          "ticks": 82560,
          "time": 67.1875,
          "velocity": 0.7874015748031497
        },
        {
          "duration": 0.15625,
          "durationTicks": 192,
          "midi": 40,
          "name": "E2",
          "ticks": 82560,
          "time": 67.1875,
          "velocity": 0.7874015748031497
        },
        {
          "duration": 0.15625,
          "durationTicks": 192,
          "midi": 39,
          "name": "D#2",
          "ticks": 82560,
          "time": 67.1875,
          "velocity": 0.7874015748031497
        },
        {
          "duration": 0.15625,
          "durationTicks": 192,
          "midi": 46,
          "name": "A#2",
          "ticks": 82560,
          "time": 67.1875,
          "velocity": 0.7874015748031497
        },
        {
          "duration": 0.15625,
          "durationTicks": 192,
          "midi": 49,
          "name": "C#3",
          "ticks": 82560,
          "time": 67.1875,
          "velocity": 0.7874015748031497
        },
        {
          "duration": 0.15625,
          "durationTicks": 192,
          "midi": 52,
          "name": "E3",
          "ticks": 82560,
          "time": 67.1875,
          "velocity": 0.7874015748031497
        },
        {
          "duration": 0.15625,
          "durationTicks": 192,
          "midi": 54,
          "name": "F#3",
          "ticks": 82560,
          "time": 67.1875,
          "velocity": 0.7874015748031497
        },
        {
          "duration": 0.15625,
          "durationTicks": 192,
          "midi": 38,
          "name": "D2",
          "ticks": 82560,
          "time": 67.1875,
          "velocity": 0.7874015748031497
        },
        {
          "duration": 0.15625,
          "durationTicks": 192,
          "midi": 42,
          "name": "F#2",
          "ticks": 82752,
          "time": 67.34375,
          "velocity": 0.7874015748031497
        },
        {
          "duration": 0.15625,
          "durationTicks": 192,
          "midi": 59,
          "name": "B3",
          "ticks": 82944,
          "time": 67.5,
          "velocity": 0.7874015748031497
        },
        {
          "duration": 0.15625,
          "durationTicks": 192,
          "midi": 36,
          "name": "C2",
          "ticks": 82944,
          "time": 67.5,
          "velocity": 0.7874015748031497
        },
        {
          "duration": 0.15625,
          "durationTicks": 192,
          "midi": 54,
          "name": "F#3",
          "ticks": 82944,
          "time": 67.5,
          "velocity": 0.7874015748031497
        },
        {
          "duration": 0.15625,
          "durationTicks": 192,
          "midi": 42,
          "name": "F#2",
          "ticks": 83136,
          "time": 67.65625,
          "velocity": 0.7874015748031497
        },
        {
          "duration": 0.15625,
          "durationTicks": 192,
          "midi": 38,
          "name": "D2",
          "ticks": 83328,
          "time": 67.8125,
          "velocity": 0.7874015748031497
        },
        {
          "duration": 0.15625,
          "durationTicks": 192,
          "midi": 55,
          "name": "G3",
          "ticks": 83328,
          "time": 67.8125,
          "velocity": 0.7874015748031497
        },
        {
          "duration": 0.15625,
          "durationTicks": 192,
          "midi": 40,
          "name": "E2",
          "ticks": 83328,
          "time": 67.8125,
          "velocity": 0.7874015748031497
        },
        {
          "duration": 0.15625,
          "durationTicks": 192,
          "midi": 54,
          "name": "F#3",
          "ticks": 83328,
          "time": 67.8125,
          "velocity": 0.7874015748031497
        },
        {
          "duration": 0.15625,
          "durationTicks": 192,
          "midi": 39,
          "name": "D#2",
          "ticks": 83328,
          "time": 67.8125,
          "velocity": 0.7874015748031497
        },
        {
          "duration": 0.15625,
          "durationTicks": 192,
          "midi": 57,
          "name": "A3",
          "ticks": 83328,
          "time": 67.8125,
          "velocity": 0.7874015748031497
        },
        {
          "duration": 0.15625,
          "durationTicks": 192,
          "midi": 46,
          "name": "A#2",
          "ticks": 83328,
          "time": 67.8125,
          "velocity": 0.7874015748031497
        },
        {
          "duration": 0.15625,
          "durationTicks": 192,
          "midi": 59,
          "name": "B3",
          "ticks": 83328,
          "time": 67.8125,
          "velocity": 0.7874015748031497
        },
        {
          "duration": 0.15625,
          "durationTicks": 192,
          "midi": 49,
          "name": "C#3",
          "ticks": 83328,
          "time": 67.8125,
          "velocity": 0.7874015748031497
        },
        {
          "duration": 0.15625,
          "durationTicks": 192,
          "midi": 52,
          "name": "E3",
          "ticks": 83328,
          "time": 67.8125,
          "velocity": 0.7874015748031497
        },
        {
          "duration": 0.15625,
          "durationTicks": 192,
          "midi": 42,
          "name": "F#2",
          "ticks": 83520,
          "time": 67.96875,
          "velocity": 0.7874015748031497
        },
        {
          "duration": 0.15625,
          "durationTicks": 192,
          "midi": 35,
          "name": "B1",
          "ticks": 83520,
          "time": 67.96875,
          "velocity": 0.7874015748031497
        },
        {
          "duration": 0.15625,
          "durationTicks": 192,
          "midi": 59,
          "name": "B3",
          "ticks": 83712,
          "time": 68.125,
          "velocity": 0.7874015748031497
        },
        {
          "duration": 0.15625,
          "durationTicks": 192,
          "midi": 39,
          "name": "D#2",
          "ticks": 83712,
          "time": 68.125,
          "velocity": 0.7874015748031497
        },
        {
          "duration": 0.15625,
          "durationTicks": 192,
          "midi": 38,
          "name": "D2",
          "ticks": 83712,
          "time": 68.125,
          "velocity": 0.7874015748031497
        },
        {
          "duration": 0.15625,
          "durationTicks": 192,
          "midi": 46,
          "name": "A#2",
          "ticks": 83712,
          "time": 68.125,
          "velocity": 0.7874015748031497
        },
        {
          "duration": 0.15625,
          "durationTicks": 192,
          "midi": 49,
          "name": "C#3",
          "ticks": 83712,
          "time": 68.125,
          "velocity": 0.7874015748031497
        },
        {
          "duration": 0.15625,
          "durationTicks": 192,
          "midi": 54,
          "name": "F#3",
          "ticks": 83712,
          "time": 68.125,
          "velocity": 0.7874015748031497
        },
        {
          "duration": 0.15625,
          "durationTicks": 192,
          "midi": 58,
          "name": "A#3",
          "ticks": 83712,
          "time": 68.125,
          "velocity": 0.7874015748031497
        },
        {
          "duration": 0.15625,
          "durationTicks": 192,
          "midi": 52,
          "name": "E3",
          "ticks": 83712,
          "time": 68.125,
          "velocity": 0.7874015748031497
        },
        {
          "duration": 0.15625,
          "durationTicks": 192,
          "midi": 40,
          "name": "E2",
          "ticks": 83712,
          "time": 68.125,
          "velocity": 0.7874015748031497
        },
        {
          "duration": 0.15625,
          "durationTicks": 192,
          "midi": 55,
          "name": "G3",
          "ticks": 83712,
          "time": 68.125,
          "velocity": 0.7874015748031497
        },
        {
          "duration": 0.15625,
          "durationTicks": 192,
          "midi": 42,
          "name": "F#2",
          "ticks": 83904,
          "time": 68.28125,
          "velocity": 0.7874015748031497
        },
        {
          "duration": 0.15625,
          "durationTicks": 192,
          "midi": 36,
          "name": "C2",
          "ticks": 84096,
          "time": 68.4375,
          "velocity": 0.7874015748031497
        },
        {
          "duration": 0.15625,
          "durationTicks": 192,
          "midi": 59,
          "name": "B3",
          "ticks": 84096,
          "time": 68.4375,
          "velocity": 0.7874015748031497
        },
        {
          "duration": 0.15625,
          "durationTicks": 192,
          "midi": 54,
          "name": "F#3",
          "ticks": 84096,
          "time": 68.4375,
          "velocity": 0.7874015748031497
        },
        {
          "duration": 0.15625,
          "durationTicks": 192,
          "midi": 42,
          "name": "F#2",
          "ticks": 84288,
          "time": 68.59375,
          "velocity": 0.7874015748031497
        },
        {
          "duration": 0.15625,
          "durationTicks": 192,
          "midi": 59,
          "name": "B3",
          "ticks": 84480,
          "time": 68.75,
          "velocity": 0.7874015748031497
        },
        {
          "duration": 0.15625,
          "durationTicks": 192,
          "midi": 36,
          "name": "C2",
          "ticks": 84480,
          "time": 68.75,
          "velocity": 0.7874015748031497
        },
        {
          "duration": 0.15625,
          "durationTicks": 192,
          "midi": 57,
          "name": "A3",
          "ticks": 84480,
          "time": 68.75,
          "velocity": 0.7874015748031497
        },
        {
          "duration": 0.15625,
          "durationTicks": 192,
          "midi": 55,
          "name": "G3",
          "ticks": 84480,
          "time": 68.75,
          "velocity": 0.7874015748031497
        },
        {
          "duration": 0.15625,
          "durationTicks": 192,
          "midi": 54,
          "name": "F#3",
          "ticks": 84480,
          "time": 68.75,
          "velocity": 0.7874015748031497
        },
        {
          "duration": 0.15625,
          "durationTicks": 192,
          "midi": 49,
          "name": "C#3",
          "ticks": 84480,
          "time": 68.75,
          "velocity": 0.7874015748031497
        },
        {
          "duration": 0.15625,
          "durationTicks": 192,
          "midi": 42,
          "name": "F#2",
          "ticks": 84672,
          "time": 68.90625,
          "velocity": 0.7874015748031497
        },
        {
          "duration": 0.15625,
          "durationTicks": 192,
          "midi": 38,
          "name": "D2",
          "ticks": 84864,
          "time": 69.0625,
          "velocity": 0.7874015748031497
        },
        {
          "duration": 0.15625,
          "durationTicks": 192,
          "midi": 40,
          "name": "E2",
          "ticks": 84864,
          "time": 69.0625,
          "velocity": 0.7874015748031497
        },
        {
          "duration": 0.15625,
          "durationTicks": 192,
          "midi": 49,
          "name": "C#3",
          "ticks": 84864,
          "time": 69.0625,
          "velocity": 0.7874015748031497
        },
        {
          "duration": 0.15625,
          "durationTicks": 192,
          "midi": 57,
          "name": "A3",
          "ticks": 84864,
          "time": 69.0625,
          "velocity": 0.7874015748031497
        },
        {
          "duration": 0.15625,
          "durationTicks": 192,
          "midi": 54,
          "name": "F#3",
          "ticks": 84864,
          "time": 69.0625,
          "velocity": 0.7874015748031497
        },
        {
          "duration": 0.15625,
          "durationTicks": 192,
          "midi": 55,
          "name": "G3",
          "ticks": 84864,
          "time": 69.0625,
          "velocity": 0.7874015748031497
        },
        {
          "duration": 0.15625,
          "durationTicks": 192,
          "midi": 59,
          "name": "B3",
          "ticks": 84864,
          "time": 69.0625,
          "velocity": 0.7874015748031497
        },
        {
          "duration": 0.15625,
          "durationTicks": 192,
          "midi": 42,
          "name": "F#2",
          "ticks": 85056,
          "time": 69.21875,
          "velocity": 0.7874015748031497
        },
        {
          "duration": 0.15625,
          "durationTicks": 192,
          "midi": 57,
          "name": "A3",
          "ticks": 85248,
          "time": 69.375,
          "velocity": 0.7874015748031497
        },
        {
          "duration": 0.15625,
          "durationTicks": 192,
          "midi": 55,
          "name": "G3",
          "ticks": 85248,
          "time": 69.375,
          "velocity": 0.7874015748031497
        },
        {
          "duration": 0.15625,
          "durationTicks": 192,
          "midi": 49,
          "name": "C#3",
          "ticks": 85248,
          "time": 69.375,
          "velocity": 0.7874015748031497
        },
        {
          "duration": 0.15625,
          "durationTicks": 192,
          "midi": 59,
          "name": "B3",
          "ticks": 85248,
          "time": 69.375,
          "velocity": 0.7874015748031497
        },
        {
          "duration": 0.15625,
          "durationTicks": 192,
          "midi": 54,
          "name": "F#3",
          "ticks": 85248,
          "time": 69.375,
          "velocity": 0.7874015748031497
        },
        {
          "duration": 0.15625,
          "durationTicks": 192,
          "midi": 36,
          "name": "C2",
          "ticks": 85248,
          "time": 69.375,
          "velocity": 0.7874015748031497
        },
        {
          "duration": 0.15625,
          "durationTicks": 192,
          "midi": 42,
          "name": "F#2",
          "ticks": 85440,
          "time": 69.53125,
          "velocity": 0.7874015748031497
        },
        {
          "duration": 0.15625,
          "durationTicks": 192,
          "midi": 59,
          "name": "B3",
          "ticks": 85632,
          "time": 69.6875,
          "velocity": 0.7874015748031497
        },
        {
          "duration": 0.15625,
          "durationTicks": 192,
          "midi": 49,
          "name": "C#3",
          "ticks": 85632,
          "time": 69.6875,
          "velocity": 0.7874015748031497
        },
        {
          "duration": 0.15625,
          "durationTicks": 192,
          "midi": 38,
          "name": "D2",
          "ticks": 85632,
          "time": 69.6875,
          "velocity": 0.7874015748031497
        },
        {
          "duration": 0.15625,
          "durationTicks": 192,
          "midi": 57,
          "name": "A3",
          "ticks": 85632,
          "time": 69.6875,
          "velocity": 0.7874015748031497
        },
        {
          "duration": 0.15625,
          "durationTicks": 192,
          "midi": 40,
          "name": "E2",
          "ticks": 85632,
          "time": 69.6875,
          "velocity": 0.7874015748031497
        },
        {
          "duration": 0.15625,
          "durationTicks": 192,
          "midi": 54,
          "name": "F#3",
          "ticks": 85632,
          "time": 69.6875,
          "velocity": 0.7874015748031497
        },
        {
          "duration": 0.15625,
          "durationTicks": 192,
          "midi": 55,
          "name": "G3",
          "ticks": 85632,
          "time": 69.6875,
          "velocity": 0.7874015748031497
        },
        {
          "duration": 0.15625,
          "durationTicks": 192,
          "midi": 42,
          "name": "F#2",
          "ticks": 85824,
          "time": 69.84375,
          "velocity": 0.7874015748031497
        },
        {
          "duration": 0.15625,
          "durationTicks": 192,
          "midi": 57,
          "name": "A3",
          "ticks": 86016,
          "time": 70,
          "velocity": 0.7874015748031497
        },
        {
          "duration": 0.15625,
          "durationTicks": 192,
          "midi": 36,
          "name": "C2",
          "ticks": 86016,
          "time": 70,
          "velocity": 0.7874015748031497
        },
        {
          "duration": 0.15625,
          "durationTicks": 192,
          "midi": 49,
          "name": "C#3",
          "ticks": 86016,
          "time": 70,
          "velocity": 0.7874015748031497
        },
        {
          "duration": 0.15625,
          "durationTicks": 192,
          "midi": 54,
          "name": "F#3",
          "ticks": 86016,
          "time": 70,
          "velocity": 0.7874015748031497
        },
        {
          "duration": 0.15625,
          "durationTicks": 192,
          "midi": 59,
          "name": "B3",
          "ticks": 86016,
          "time": 70,
          "velocity": 0.7874015748031497
        },
        {
          "duration": 0.15625,
          "durationTicks": 192,
          "midi": 42,
          "name": "F#2",
          "ticks": 86208,
          "time": 70.15625,
          "velocity": 0.7874015748031497
        },
        {
          "duration": 0.15625,
          "durationTicks": 192,
          "midi": 40,
          "name": "E2",
          "ticks": 86400,
          "time": 70.3125,
          "velocity": 0.7874015748031497
        },
        {
          "duration": 0.15625,
          "durationTicks": 192,
          "midi": 54,
          "name": "F#3",
          "ticks": 86400,
          "time": 70.3125,
          "velocity": 0.7874015748031497
        },
        {
          "duration": 0.15625,
          "durationTicks": 192,
          "midi": 59,
          "name": "B3",
          "ticks": 86400,
          "time": 70.3125,
          "velocity": 0.7874015748031497
        },
        {
          "duration": 0.15625,
          "durationTicks": 192,
          "midi": 38,
          "name": "D2",
          "ticks": 86400,
          "time": 70.3125,
          "velocity": 0.7874015748031497
        },
        {
          "duration": 0.15625,
          "durationTicks": 192,
          "midi": 42,
          "name": "F#2",
          "ticks": 86592,
          "time": 70.46875,
          "velocity": 0.7874015748031497
        },
        {
          "duration": 0.15625,
          "durationTicks": 192,
          "midi": 59,
          "name": "B3",
          "ticks": 86784,
          "time": 70.625,
          "velocity": 0.7874015748031497
        },
        {
          "duration": 0.15625,
          "durationTicks": 192,
          "midi": 36,
          "name": "C2",
          "ticks": 86784,
          "time": 70.625,
          "velocity": 0.7874015748031497
        },
        {
          "duration": 0.15625,
          "durationTicks": 192,
          "midi": 54,
          "name": "F#3",
          "ticks": 86784,
          "time": 70.625,
          "velocity": 0.7874015748031497
        },
        {
          "duration": 0.15625,
          "durationTicks": 192,
          "midi": 42,
          "name": "F#2",
          "ticks": 86976,
          "time": 70.78125,
          "velocity": 0.7874015748031497
        },
        {
          "duration": 0.15625,
          "durationTicks": 192,
          "midi": 54,
          "name": "F#3",
          "ticks": 87168,
          "time": 70.9375,
          "velocity": 0.7874015748031497
        },
        {
          "duration": 0.15625,
          "durationTicks": 192,
          "midi": 59,
          "name": "B3",
          "ticks": 87168,
          "time": 70.9375,
          "velocity": 0.7874015748031497
        },
        {
          "duration": 0.15625,
          "durationTicks": 192,
          "midi": 38,
          "name": "D2",
          "ticks": 87168,
          "time": 70.9375,
          "velocity": 0.7874015748031497
        },
        {
          "duration": 0.15625,
          "durationTicks": 192,
          "midi": 40,
          "name": "E2",
          "ticks": 87168,
          "time": 70.9375,
          "velocity": 0.7874015748031497
        },
        {
          "duration": 0.15625,
          "durationTicks": 192,
          "midi": 42,
          "name": "F#2",
          "ticks": 87360,
          "time": 71.09375,
          "velocity": 0.7874015748031497
        },
        {
          "duration": 0.15625,
          "durationTicks": 192,
          "midi": 59,
          "name": "B3",
          "ticks": 87552,
          "time": 71.25,
          "velocity": 0.7874015748031497
        },
        {
          "duration": 0.15625,
          "durationTicks": 192,
          "midi": 54,
          "name": "F#3",
          "ticks": 87552,
          "time": 71.25,
          "velocity": 0.7874015748031497
        },
        {
          "duration": 0.15625,
          "durationTicks": 192,
          "midi": 36,
          "name": "C2",
          "ticks": 87552,
          "time": 71.25,
          "velocity": 0.7874015748031497
        },
        {
          "duration": 0.15625,
          "durationTicks": 192,
          "midi": 42,
          "name": "F#2",
          "ticks": 87744,
          "time": 71.40625,
          "velocity": 0.7874015748031497
        },
        {
          "duration": 0.15625,
          "durationTicks": 192,
          "midi": 59,
          "name": "B3",
          "ticks": 87936,
          "time": 71.5625,
          "velocity": 0.7874015748031497
        },
        {
          "duration": 0.15625,
          "durationTicks": 192,
          "midi": 40,
          "name": "E2",
          "ticks": 87936,
          "time": 71.5625,
          "velocity": 0.7874015748031497
        },
        {
          "duration": 0.15625,
          "durationTicks": 192,
          "midi": 54,
          "name": "F#3",
          "ticks": 87936,
          "time": 71.5625,
          "velocity": 0.7874015748031497
        },
        {
          "duration": 0.15625,
          "durationTicks": 192,
          "midi": 38,
          "name": "D2",
          "ticks": 87936,
          "time": 71.5625,
          "velocity": 0.7874015748031497
        },
        {
          "duration": 0.15625,
          "durationTicks": 192,
          "midi": 42,
          "name": "F#2",
          "ticks": 88128,
          "time": 71.71875,
          "velocity": 0.7874015748031497
        },
        {
          "duration": 0.15625,
          "durationTicks": 192,
          "midi": 36,
          "name": "C2",
          "ticks": 88320,
          "time": 71.875,
          "velocity": 0.7874015748031497
        },
        {
          "duration": 0.15625,
          "durationTicks": 192,
          "midi": 59,
          "name": "B3",
          "ticks": 88320,
          "time": 71.875,
          "velocity": 0.7874015748031497
        },
        {
          "duration": 0.15625,
          "durationTicks": 192,
          "midi": 54,
          "name": "F#3",
          "ticks": 88320,
          "time": 71.875,
          "velocity": 0.7874015748031497
        },
        {
          "duration": 0.15625,
          "durationTicks": 192,
          "midi": 42,
          "name": "F#2",
          "ticks": 88512,
          "time": 72.03125,
          "velocity": 0.7874015748031497
        },
        {
          "duration": 0.15625,
          "durationTicks": 192,
          "midi": 38,
          "name": "D2",
          "ticks": 88704,
          "time": 72.1875,
          "velocity": 0.7874015748031497
        },
        {
          "duration": 0.15625,
          "durationTicks": 192,
          "midi": 54,
          "name": "F#3",
          "ticks": 88704,
          "time": 72.1875,
          "velocity": 0.7874015748031497
        },
        {
          "duration": 0.15625,
          "durationTicks": 192,
          "midi": 59,
          "name": "B3",
          "ticks": 88704,
          "time": 72.1875,
          "velocity": 0.7874015748031497
        },
        {
          "duration": 0.15625,
          "durationTicks": 192,
          "midi": 40,
          "name": "E2",
          "ticks": 88704,
          "time": 72.1875,
          "velocity": 0.7874015748031497
        },
        {
          "duration": 0.15625,
          "durationTicks": 192,
          "midi": 42,
          "name": "F#2",
          "ticks": 88896,
          "time": 72.34375,
          "velocity": 0.7874015748031497
        },
        {
          "duration": 0.15625,
          "durationTicks": 192,
          "midi": 54,
          "name": "F#3",
          "ticks": 89088,
          "time": 72.5,
          "velocity": 0.7874015748031497
        },
        {
          "duration": 0.15625,
          "durationTicks": 192,
          "midi": 59,
          "name": "B3",
          "ticks": 89088,
          "time": 72.5,
          "velocity": 0.7874015748031497
        },
        {
          "duration": 0.15625,
          "durationTicks": 192,
          "midi": 36,
          "name": "C2",
          "ticks": 89088,
          "time": 72.5,
          "velocity": 0.7874015748031497
        },
        {
          "duration": 0.15625,
          "durationTicks": 192,
          "midi": 42,
          "name": "F#2",
          "ticks": 89280,
          "time": 72.65625,
          "velocity": 0.7874015748031497
        },
        {
          "duration": 0.15625,
          "durationTicks": 192,
          "midi": 59,
          "name": "B3",
          "ticks": 89472,
          "time": 72.8125,
          "velocity": 0.7874015748031497
        },
        {
          "duration": 0.15625,
          "durationTicks": 192,
          "midi": 38,
          "name": "D2",
          "ticks": 89472,
          "time": 72.8125,
          "velocity": 0.7874015748031497
        },
        {
          "duration": 0.15625,
          "durationTicks": 192,
          "midi": 40,
          "name": "E2",
          "ticks": 89472,
          "time": 72.8125,
          "velocity": 0.7874015748031497
        },
        {
          "duration": 0.15625,
          "durationTicks": 192,
          "midi": 54,
          "name": "F#3",
          "ticks": 89472,
          "time": 72.8125,
          "velocity": 0.7874015748031497
        },
        {
          "duration": 0.15625,
          "durationTicks": 192,
          "midi": 42,
          "name": "F#2",
          "ticks": 89664,
          "time": 72.96875,
          "velocity": 0.7874015748031497
        },
        {
          "duration": 0.15625,
          "durationTicks": 192,
          "midi": 54,
          "name": "F#3",
          "ticks": 89856,
          "time": 73.125,
          "velocity": 0.7874015748031497
        },
        {
          "duration": 0.15625,
          "durationTicks": 192,
          "midi": 36,
          "name": "C2",
          "ticks": 89856,
          "time": 73.125,
          "velocity": 0.7874015748031497
        },
        {
          "duration": 0.15625,
          "durationTicks": 192,
          "midi": 59,
          "name": "B3",
          "ticks": 89856,
          "time": 73.125,
          "velocity": 0.7874015748031497
        },
        {
          "duration": 0.15625,
          "durationTicks": 192,
          "midi": 42,
          "name": "F#2",
          "ticks": 90048,
          "time": 73.28125,
          "velocity": 0.7874015748031497
        },
        {
          "duration": 0.15625,
          "durationTicks": 192,
          "midi": 40,
          "name": "E2",
          "ticks": 90240,
          "time": 73.4375,
          "velocity": 0.7874015748031497
        },
        {
          "duration": 0.15625,
          "durationTicks": 192,
          "midi": 54,
          "name": "F#3",
          "ticks": 90240,
          "time": 73.4375,
          "velocity": 0.7874015748031497
        },
        {
          "duration": 0.15625,
          "durationTicks": 192,
          "midi": 59,
          "name": "B3",
          "ticks": 90240,
          "time": 73.4375,
          "velocity": 0.7874015748031497
        },
        {
          "duration": 0.15625,
          "durationTicks": 192,
          "midi": 38,
          "name": "D2",
          "ticks": 90240,
          "time": 73.4375,
          "velocity": 0.7874015748031497
        },
        {
          "duration": 0.15625,
          "durationTicks": 192,
          "midi": 42,
          "name": "F#2",
          "ticks": 90432,
          "time": 73.59375,
          "velocity": 0.7874015748031497
        },
        {
          "duration": 0.15625,
          "durationTicks": 192,
          "midi": 59,
          "name": "B3",
          "ticks": 90624,
          "time": 73.75,
          "velocity": 0.7874015748031497
        },
        {
          "duration": 0.15625,
          "durationTicks": 192,
          "midi": 54,
          "name": "F#3",
          "ticks": 90624,
          "time": 73.75,
          "velocity": 0.7874015748031497
        },
        {
          "duration": 0.15625,
          "durationTicks": 192,
          "midi": 36,
          "name": "C2",
          "ticks": 90624,
          "time": 73.75,
          "velocity": 0.7874015748031497
        },
        {
          "duration": 0.15625,
          "durationTicks": 192,
          "midi": 42,
          "name": "F#2",
          "ticks": 90816,
          "time": 73.90625,
          "velocity": 0.7874015748031497
        },
        {
          "duration": 0.15625,
          "durationTicks": 192,
          "midi": 54,
          "name": "F#3",
          "ticks": 91008,
          "time": 74.0625,
          "velocity": 0.7874015748031497
        },
        {
          "duration": 0.15625,
          "durationTicks": 192,
          "midi": 59,
          "name": "B3",
          "ticks": 91008,
          "time": 74.0625,
          "velocity": 0.7874015748031497
        },
        {
          "duration": 0.15625,
          "durationTicks": 192,
          "midi": 38,
          "name": "D2",
          "ticks": 91008,
          "time": 74.0625,
          "velocity": 0.7874015748031497
        },
        {
          "duration": 0.15625,
          "durationTicks": 192,
          "midi": 40,
          "name": "E2",
          "ticks": 91008,
          "time": 74.0625,
          "velocity": 0.7874015748031497
        },
        {
          "duration": 0.15625,
          "durationTicks": 192,
          "midi": 42,
          "name": "F#2",
          "ticks": 91200,
          "time": 74.21875,
          "velocity": 0.7874015748031497
        },
        {
          "duration": 0.15625,
          "durationTicks": 192,
          "midi": 54,
          "name": "F#3",
          "ticks": 91392,
          "time": 74.375,
          "velocity": 0.7874015748031497
        },
        {
          "duration": 0.15625,
          "durationTicks": 192,
          "midi": 59,
          "name": "B3",
          "ticks": 91392,
          "time": 74.375,
          "velocity": 0.7874015748031497
        },
        {
          "duration": 0.15625,
          "durationTicks": 192,
          "midi": 36,
          "name": "C2",
          "ticks": 91392,
          "time": 74.375,
          "velocity": 0.7874015748031497
        },
        {
          "duration": 0.15625,
          "durationTicks": 192,
          "midi": 42,
          "name": "F#2",
          "ticks": 91584,
          "time": 74.53125,
          "velocity": 0.7874015748031497
        },
        {
          "duration": 0.15625,
          "durationTicks": 192,
          "midi": 38,
          "name": "D2",
          "ticks": 91776,
          "time": 74.6875,
          "velocity": 0.7874015748031497
        },
        {
          "duration": 0.15625,
          "durationTicks": 192,
          "midi": 59,
          "name": "B3",
          "ticks": 91776,
          "time": 74.6875,
          "velocity": 0.7874015748031497
        },
        {
          "duration": 0.15625,
          "durationTicks": 192,
          "midi": 40,
          "name": "E2",
          "ticks": 91776,
          "time": 74.6875,
          "velocity": 0.7874015748031497
        },
        {
          "duration": 0.15625,
          "durationTicks": 192,
          "midi": 54,
          "name": "F#3",
          "ticks": 91776,
          "time": 74.6875,
          "velocity": 0.7874015748031497
        },
        {
          "duration": 0.15625,
          "durationTicks": 192,
          "midi": 42,
          "name": "F#2",
          "ticks": 91968,
          "time": 74.84375,
          "velocity": 0.7874015748031497
        },
        {
          "duration": 0.15625,
          "durationTicks": 192,
          "midi": 36,
          "name": "C2",
          "ticks": 92160,
          "time": 75,
          "velocity": 0.7874015748031497
        },
        {
          "duration": 0.15625,
          "durationTicks": 192,
          "midi": 54,
          "name": "F#3",
          "ticks": 92160,
          "time": 75,
          "velocity": 0.7874015748031497
        },
        {
          "duration": 0.15625,
          "durationTicks": 192,
          "midi": 59,
          "name": "B3",
          "ticks": 92160,
          "time": 75,
          "velocity": 0.7874015748031497
        },
        {
          "duration": 0.15625,
          "durationTicks": 192,
          "midi": 42,
          "name": "F#2",
          "ticks": 92352,
          "time": 75.15625,
          "velocity": 0.7874015748031497
        },
        {
          "duration": 0.15625,
          "durationTicks": 192,
          "midi": 40,
          "name": "E2",
          "ticks": 92544,
          "time": 75.3125,
          "velocity": 0.7874015748031497
        },
        {
          "duration": 0.15625,
          "durationTicks": 192,
          "midi": 38,
          "name": "D2",
          "ticks": 92544,
          "time": 75.3125,
          "velocity": 0.7874015748031497
        },
        {
          "duration": 0.15625,
          "durationTicks": 192,
          "midi": 54,
          "name": "F#3",
          "ticks": 92544,
          "time": 75.3125,
          "velocity": 0.7874015748031497
        },
        {
          "duration": 0.15625,
          "durationTicks": 192,
          "midi": 59,
          "name": "B3",
          "ticks": 92544,
          "time": 75.3125,
          "velocity": 0.7874015748031497
        },
        {
          "duration": 0.15625,
          "durationTicks": 192,
          "midi": 42,
          "name": "F#2",
          "ticks": 92736,
          "time": 75.46875,
          "velocity": 0.7874015748031497
        },
        {
          "duration": 0.15625,
          "durationTicks": 192,
          "midi": 59,
          "name": "B3",
          "ticks": 92928,
          "time": 75.625,
          "velocity": 0.7874015748031497
        },
        {
          "duration": 0.15625,
          "durationTicks": 192,
          "midi": 36,
          "name": "C2",
          "ticks": 92928,
          "time": 75.625,
          "velocity": 0.7874015748031497
        },
        {
          "duration": 0.15625,
          "durationTicks": 192,
          "midi": 54,
          "name": "F#3",
          "ticks": 92928,
          "time": 75.625,
          "velocity": 0.7874015748031497
        },
        {
          "duration": 0.15625,
          "durationTicks": 192,
          "midi": 42,
          "name": "F#2",
          "ticks": 93120,
          "time": 75.78125,
          "velocity": 0.7874015748031497
        },
        {
          "duration": 0.15625,
          "durationTicks": 192,
          "midi": 59,
          "name": "B3",
          "ticks": 93312,
          "time": 75.9375,
          "velocity": 0.7874015748031497
        },
        {
          "duration": 0.15625,
          "durationTicks": 192,
          "midi": 54,
          "name": "F#3",
          "ticks": 93312,
          "time": 75.9375,
          "velocity": 0.7874015748031497
        },
        {
          "duration": 0.15625,
          "durationTicks": 192,
          "midi": 38,
          "name": "D2",
          "ticks": 93312,
          "time": 75.9375,
          "velocity": 0.7874015748031497
        },
        {
          "duration": 0.15625,
          "durationTicks": 192,
          "midi": 40,
          "name": "E2",
          "ticks": 93312,
          "time": 75.9375,
          "velocity": 0.7874015748031497
        },
        {
          "duration": 0.15625,
          "durationTicks": 192,
          "midi": 42,
          "name": "F#2",
          "ticks": 93504,
          "time": 76.09375,
          "velocity": 0.7874015748031497
        },
        {
          "duration": 0.15625,
          "durationTicks": 192,
          "midi": 57,
          "name": "A3",
          "ticks": 93696,
          "time": 76.25,
          "velocity": 0.7874015748031497
        },
        {
          "duration": 0.15625,
          "durationTicks": 192,
          "midi": 54,
          "name": "F#3",
          "ticks": 93696,
          "time": 76.25,
          "velocity": 0.7874015748031497
        },
        {
          "duration": 0.15625,
          "durationTicks": 192,
          "midi": 36,
          "name": "C2",
          "ticks": 93696,
          "time": 76.25,
          "velocity": 0.7874015748031497
        },
        {
          "duration": 0.15625,
          "durationTicks": 192,
          "midi": 46,
          "name": "A#2",
          "ticks": 93696,
          "time": 76.25,
          "velocity": 0.7874015748031497
        },
        {
          "duration": 0.15625,
          "durationTicks": 192,
          "midi": 59,
          "name": "B3",
          "ticks": 93696,
          "time": 76.25,
          "velocity": 0.7874015748031497
        },
        {
          "duration": 0.15625,
          "durationTicks": 192,
          "midi": 49,
          "name": "C#3",
          "ticks": 93696,
          "time": 76.25,
          "velocity": 0.7874015748031497
        },
        {
          "duration": 0.15625,
          "durationTicks": 192,
          "midi": 42,
          "name": "F#2",
          "ticks": 93888,
          "time": 76.40625,
          "velocity": 0.7874015748031497
        },
        {
          "duration": 0.15625,
          "durationTicks": 192,
          "midi": 54,
          "name": "F#3",
          "ticks": 94080,
          "time": 76.5625,
          "velocity": 0.7874015748031497
        },
        {
          "duration": 0.15625,
          "durationTicks": 192,
          "midi": 38,
          "name": "D2",
          "ticks": 94080,
          "time": 76.5625,
          "velocity": 0.7874015748031497
        },
        {
          "duration": 0.15625,
          "durationTicks": 192,
          "midi": 40,
          "name": "E2",
          "ticks": 94080,
          "time": 76.5625,
          "velocity": 0.7874015748031497
        },
        {
          "duration": 0.15625,
          "durationTicks": 192,
          "midi": 59,
          "name": "B3",
          "ticks": 94080,
          "time": 76.5625,
          "velocity": 0.7874015748031497
        },
        {
          "duration": 0.15625,
          "durationTicks": 192,
          "midi": 42,
          "name": "F#2",
          "ticks": 94272,
          "time": 76.71875,
          "velocity": 0.7874015748031497
        },
        {
          "duration": 0.15625,
          "durationTicks": 192,
          "midi": 36,
          "name": "C2",
          "ticks": 94464,
          "time": 76.875,
          "velocity": 0.7874015748031497
        },
        {
          "duration": 0.15625,
          "durationTicks": 192,
          "midi": 59,
          "name": "B3",
          "ticks": 94464,
          "time": 76.875,
          "velocity": 0.7874015748031497
        },
        {
          "duration": 0.15625,
          "durationTicks": 192,
          "midi": 54,
          "name": "F#3",
          "ticks": 94464,
          "time": 76.875,
          "velocity": 0.7874015748031497
        },
        {
          "duration": 0.15625,
          "durationTicks": 192,
          "midi": 42,
          "name": "F#2",
          "ticks": 94656,
          "time": 77.03125,
          "velocity": 0.7874015748031497
        },
        {
          "duration": 0.15625,
          "durationTicks": 192,
          "midi": 38,
          "name": "D2",
          "ticks": 94848,
          "time": 77.1875,
          "velocity": 0.7874015748031497
        },
        {
          "duration": 0.15625,
          "durationTicks": 192,
          "midi": 59,
          "name": "B3",
          "ticks": 94848,
          "time": 77.1875,
          "velocity": 0.7874015748031497
        },
        {
          "duration": 0.15625,
          "durationTicks": 192,
          "midi": 40,
          "name": "E2",
          "ticks": 94848,
          "time": 77.1875,
          "velocity": 0.7874015748031497
        },
        {
          "duration": 0.15625,
          "durationTicks": 192,
          "midi": 54,
          "name": "F#3",
          "ticks": 94848,
          "time": 77.1875,
          "velocity": 0.7874015748031497
        },
        {
          "duration": 0.15625,
          "durationTicks": 192,
          "midi": 42,
          "name": "F#2",
          "ticks": 95040,
          "time": 77.34375,
          "velocity": 0.7874015748031497
        },
        {
          "duration": 0.15625,
          "durationTicks": 192,
          "midi": 59,
          "name": "B3",
          "ticks": 95232,
          "time": 77.5,
          "velocity": 0.7874015748031497
        },
        {
          "duration": 0.15625,
          "durationTicks": 192,
          "midi": 54,
          "name": "F#3",
          "ticks": 95232,
          "time": 77.5,
          "velocity": 0.7874015748031497
        },
        {
          "duration": 0.15625,
          "durationTicks": 192,
          "midi": 36,
          "name": "C2",
          "ticks": 95232,
          "time": 77.5,
          "velocity": 0.7874015748031497
        },
        {
          "duration": 0.15625,
          "durationTicks": 192,
          "midi": 42,
          "name": "F#2",
          "ticks": 95424,
          "time": 77.65625,
          "velocity": 0.7874015748031497
        },
        {
          "duration": 0.15625,
          "durationTicks": 192,
          "midi": 59,
          "name": "B3",
          "ticks": 95616,
          "time": 77.8125,
          "velocity": 0.7874015748031497
        },
        {
          "duration": 0.15625,
          "durationTicks": 192,
          "midi": 54,
          "name": "F#3",
          "ticks": 95616,
          "time": 77.8125,
          "velocity": 0.7874015748031497
        },
        {
          "duration": 0.15625,
          "durationTicks": 192,
          "midi": 40,
          "name": "E2",
          "ticks": 95616,
          "time": 77.8125,
          "velocity": 0.7874015748031497
        },
        {
          "duration": 0.15625,
          "durationTicks": 192,
          "midi": 38,
          "name": "D2",
          "ticks": 95616,
          "time": 77.8125,
          "velocity": 0.7874015748031497
        },
        {
          "duration": 0.15625,
          "durationTicks": 192,
          "midi": 42,
          "name": "F#2",
          "ticks": 95808,
          "time": 77.96875,
          "velocity": 0.7874015748031497
        },
        {
          "duration": 0.15625,
          "durationTicks": 192,
          "midi": 59,
          "name": "B3",
          "ticks": 96000,
          "time": 78.125,
          "velocity": 0.7874015748031497
        },
        {
          "duration": 0.15625,
          "durationTicks": 192,
          "midi": 36,
          "name": "C2",
          "ticks": 96000,
          "time": 78.125,
          "velocity": 0.7874015748031497
        },
        {
          "duration": 0.15625,
          "durationTicks": 192,
          "midi": 54,
          "name": "F#3",
          "ticks": 96000,
          "time": 78.125,
          "velocity": 0.7874015748031497
        },
        {
          "duration": 0.15625,
          "durationTicks": 192,
          "midi": 42,
          "name": "F#2",
          "ticks": 96192,
          "time": 78.28125,
          "velocity": 0.7874015748031497
        },
        {
          "duration": 0.15625,
          "durationTicks": 192,
          "midi": 38,
          "name": "D2",
          "ticks": 96384,
          "time": 78.4375,
          "velocity": 0.7874015748031497
        },
        {
          "duration": 0.15625,
          "durationTicks": 192,
          "midi": 54,
          "name": "F#3",
          "ticks": 96384,
          "time": 78.4375,
          "velocity": 0.7874015748031497
        },
        {
          "duration": 0.15625,
          "durationTicks": 192,
          "midi": 59,
          "name": "B3",
          "ticks": 96384,
          "time": 78.4375,
          "velocity": 0.7874015748031497
        },
        {
          "duration": 0.15625,
          "durationTicks": 192,
          "midi": 40,
          "name": "E2",
          "ticks": 96384,
          "time": 78.4375,
          "velocity": 0.7874015748031497
        },
        {
          "duration": 0.15625,
          "durationTicks": 192,
          "midi": 42,
          "name": "F#2",
          "ticks": 96576,
          "time": 78.59375,
          "velocity": 0.7874015748031497
        },
        {
          "duration": 0.15625,
          "durationTicks": 192,
          "midi": 36,
          "name": "C2",
          "ticks": 96768,
          "time": 78.75,
          "velocity": 0.7874015748031497
        },
        {
          "duration": 0.15625,
          "durationTicks": 192,
          "midi": 54,
          "name": "F#3",
          "ticks": 96768,
          "time": 78.75,
          "velocity": 0.7874015748031497
        },
        {
          "duration": 0.15625,
          "durationTicks": 192,
          "midi": 59,
          "name": "B3",
          "ticks": 96768,
          "time": 78.75,
          "velocity": 0.7874015748031497
        },
        {
          "duration": 0.15625,
          "durationTicks": 192,
          "midi": 42,
          "name": "F#2",
          "ticks": 96960,
          "time": 78.90625,
          "velocity": 0.7874015748031497
        },
        {
          "duration": 0.15625,
          "durationTicks": 192,
          "midi": 38,
          "name": "D2",
          "ticks": 97152,
          "time": 79.0625,
          "velocity": 0.7874015748031497
        },
        {
          "duration": 0.15625,
          "durationTicks": 192,
          "midi": 40,
          "name": "E2",
          "ticks": 97152,
          "time": 79.0625,
          "velocity": 0.7874015748031497
        },
        {
          "duration": 0.15625,
          "durationTicks": 192,
          "midi": 54,
          "name": "F#3",
          "ticks": 97152,
          "time": 79.0625,
          "velocity": 0.7874015748031497
        },
        {
          "duration": 0.15625,
          "durationTicks": 192,
          "midi": 59,
          "name": "B3",
          "ticks": 97152,
          "time": 79.0625,
          "velocity": 0.7874015748031497
        },
        {
          "duration": 0.15625,
          "durationTicks": 192,
          "midi": 42,
          "name": "F#2",
          "ticks": 97344,
          "time": 79.21875,
          "velocity": 0.7874015748031497
        },
        {
          "duration": 0.15625,
          "durationTicks": 192,
          "midi": 59,
          "name": "B3",
          "ticks": 97536,
          "time": 79.375,
          "velocity": 0.7874015748031497
        },
        {
          "duration": 0.15625,
          "durationTicks": 192,
          "midi": 54,
          "name": "F#3",
          "ticks": 97536,
          "time": 79.375,
          "velocity": 0.7874015748031497
        },
        {
          "duration": 0.15625,
          "durationTicks": 192,
          "midi": 36,
          "name": "C2",
          "ticks": 97536,
          "time": 79.375,
          "velocity": 0.7874015748031497
        },
        {
          "duration": 0.15625,
          "durationTicks": 192,
          "midi": 42,
          "name": "F#2",
          "ticks": 97728,
          "time": 79.53125,
          "velocity": 0.7874015748031497
        },
        {
          "duration": 0.15625,
          "durationTicks": 192,
          "midi": 59,
          "name": "B3",
          "ticks": 97920,
          "time": 79.6875,
          "velocity": 0.7874015748031497
        },
        {
          "duration": 0.15625,
          "durationTicks": 192,
          "midi": 54,
          "name": "F#3",
          "ticks": 97920,
          "time": 79.6875,
          "velocity": 0.7874015748031497
        },
        {
          "duration": 0.15625,
          "durationTicks": 192,
          "midi": 38,
          "name": "D2",
          "ticks": 97920,
          "time": 79.6875,
          "velocity": 0.7874015748031497
        },
        {
          "duration": 0.15625,
          "durationTicks": 192,
          "midi": 40,
          "name": "E2",
          "ticks": 97920,
          "time": 79.6875,
          "velocity": 0.7874015748031497
        },
        {
          "duration": 0.15625,
          "durationTicks": 192,
          "midi": 42,
          "name": "F#2",
          "ticks": 98112,
          "time": 79.84375,
          "velocity": 0.7874015748031497
        },
        {
          "duration": 0.15625,
          "durationTicks": 192,
          "midi": 59,
          "name": "B3",
          "ticks": 98304,
          "time": 80,
          "velocity": 0.7874015748031497
        },
        {
          "duration": 0.15625,
          "durationTicks": 192,
          "midi": 54,
          "name": "F#3",
          "ticks": 98304,
          "time": 80,
          "velocity": 0.7874015748031497
        },
        {
          "duration": 0.15625,
          "durationTicks": 192,
          "midi": 36,
          "name": "C2",
          "ticks": 98304,
          "time": 80,
          "velocity": 0.7874015748031497
        },
        {
          "duration": 0.15625,
          "durationTicks": 192,
          "midi": 42,
          "name": "F#2",
          "ticks": 98496,
          "time": 80.15625,
          "velocity": 0.7874015748031497
        },
        {
          "duration": 0.15625,
          "durationTicks": 192,
          "midi": 59,
          "name": "B3",
          "ticks": 98688,
          "time": 80.3125,
          "velocity": 0.7874015748031497
        },
        {
          "duration": 0.15625,
          "durationTicks": 192,
          "midi": 54,
          "name": "F#3",
          "ticks": 98688,
          "time": 80.3125,
          "velocity": 0.7874015748031497
        },
        {
          "duration": 0.15625,
          "durationTicks": 192,
          "midi": 40,
          "name": "E2",
          "ticks": 98688,
          "time": 80.3125,
          "velocity": 0.7874015748031497
        },
        {
          "duration": 0.15625,
          "durationTicks": 192,
          "midi": 38,
          "name": "D2",
          "ticks": 98688,
          "time": 80.3125,
          "velocity": 0.7874015748031497
        },
        {
          "duration": 0.15625,
          "durationTicks": 192,
          "midi": 42,
          "name": "F#2",
          "ticks": 98880,
          "time": 80.46875,
          "velocity": 0.7874015748031497
        },
        {
          "duration": 0.15625,
          "durationTicks": 192,
          "midi": 36,
          "name": "C2",
          "ticks": 99072,
          "time": 80.625,
          "velocity": 0.7874015748031497
        },
        {
          "duration": 0.15625,
          "durationTicks": 192,
          "midi": 54,
          "name": "F#3",
          "ticks": 99072,
          "time": 80.625,
          "velocity": 0.7874015748031497
        },
        {
          "duration": 0.15625,
          "durationTicks": 192,
          "midi": 59,
          "name": "B3",
          "ticks": 99072,
          "time": 80.625,
          "velocity": 0.7874015748031497
        },
        {
          "duration": 0.15625,
          "durationTicks": 192,
          "midi": 42,
          "name": "F#2",
          "ticks": 99264,
          "time": 80.78125,
          "velocity": 0.7874015748031497
        },
        {
          "duration": 0.078125,
          "durationTicks": 96,
          "midi": 40,
          "name": "E2",
          "ticks": 99456,
          "time": 80.9375,
          "velocity": 0.7874015748031497
        },
        {
          "duration": 0.078125,
          "durationTicks": 96,
          "midi": 59,
          "name": "B3",
          "ticks": 99456,
          "time": 80.9375,
          "velocity": 0.7874015748031497
        },
        {
          "duration": 0.078125,
          "durationTicks": 96,
          "midi": 38,
          "name": "D2",
          "ticks": 99456,
          "time": 80.9375,
          "velocity": 0.7874015748031497
        },
        {
          "duration": 0.078125,
          "durationTicks": 96,
          "midi": 54,
          "name": "F#3",
          "ticks": 99456,
          "time": 80.9375,
          "velocity": 0.7874015748031497
        },
        {
          "duration": 0.078125,
          "durationTicks": 96,
          "midi": 40,
          "name": "E2",
          "ticks": 99552,
          "time": 81.015625,
          "velocity": 0.7874015748031497
        },
        {
          "duration": 0.078125,
          "durationTicks": 96,
          "midi": 40,
          "name": "E2",
          "ticks": 99648,
          "time": 81.09375,
          "velocity": 0.7874015748031497
        },
        {
          "duration": 0.078125,
          "durationTicks": 96,
          "midi": 42,
          "name": "F#2",
          "ticks": 99648,
          "time": 81.09375,
          "velocity": 0.7874015748031497
        },
        {
          "duration": 0.078125,
          "durationTicks": 96,
          "midi": 40,
          "name": "E2",
          "ticks": 99744,
          "time": 81.171875,
          "velocity": 0.7874015748031497
        },
        {
          "duration": 2.421875,
          "durationTicks": 2976,
          "midi": 55,
          "name": "G3",
          "ticks": 99840,
          "time": 81.25,
          "velocity": 0.7874015748031497
        },
        {
          "duration": 2.421875,
          "durationTicks": 2976,
          "midi": 53,
          "name": "F3",
          "ticks": 99840,
          "time": 81.25,
          "velocity": 0.7874015748031497
        },
        {
          "duration": 2.421875,
          "durationTicks": 2976,
          "midi": 57,
          "name": "A3",
          "ticks": 99840,
          "time": 81.25,
          "velocity": 0.7874015748031497
        },
        {
          "duration": 2.421875,
          "durationTicks": 2976,
          "midi": 46,
          "name": "A#2",
          "ticks": 99840,
          "time": 81.25,
          "velocity": 0.7874015748031497
        },
        {
          "duration": 2.421875,
          "durationTicks": 2976,
          "midi": 49,
          "name": "C#3",
          "ticks": 99840,
          "time": 81.25,
          "velocity": 0.7874015748031497
        },
        {
          "duration": 2.421875,
          "durationTicks": 2976,
          "midi": 59,
          "name": "B3",
          "ticks": 99840,
          "time": 81.25,
          "velocity": 0.7874015748031497
        },
        {
          "duration": 2.421875,
          "durationTicks": 2976,
          "midi": 52,
          "name": "E3",
          "ticks": 99840,
          "time": 81.25,
          "velocity": 0.7874015748031497
        },
        {
          "duration": 2.421875,
          "durationTicks": 2976,
          "midi": 40,
          "name": "E2",
          "ticks": 99840,
          "time": 81.25,
          "velocity": 0.7874015748031497
        },
        {
          "duration": 2.421875,
          "durationTicks": 2976,
          "midi": 38,
          "name": "D2",
          "ticks": 99840,
          "time": 81.25,
          "velocity": 0.7874015748031497
        },
        {
          "duration": 2.421875,
          "durationTicks": 2976,
          "midi": 39,
          "name": "D#2",
          "ticks": 99840,
          "time": 81.25,
          "velocity": 0.7874015748031497
        }
      ],
      "endOfTrackTicks": 102816
    },
    {
      "channel": 2,
      "controlChanges": {},
      "pitchBends": [],
      "instrument": {
        "family": "bass",
        "number": 32,
        "name": "acoustic bass"
      },
      "name": "Bass (Classic)",
      "notes": [
        {
          "duration": 1.171875,
          "durationTicks": 1440,
          "midi": 33,
          "name": "A1",
          "ticks": 6144,
          "time": 5,
          "velocity": 0.3937007874015748
        },
        {
          "duration": 1.171875,
          "durationTicks": 1440,
          "midi": 45,
          "name": "A2",
          "ticks": 6144,
          "time": 5,
          "velocity": 0.3937007874015748
        },
        {
          "duration": 0.234375,
          "durationTicks": 288,
          "midi": 33,
          "name": "A1",
          "ticks": 9216,
          "time": 7.5,
          "velocity": 0.3937007874015748
        },
        {
          "duration": 0.234375,
          "durationTicks": 288,
          "midi": 45,
          "name": "A2",
          "ticks": 9216,
          "time": 7.5,
          "velocity": 0.3937007874015748
        },
        {
          "duration": 0.234375,
          "durationTicks": 288,
          "midi": 33,
          "name": "A1",
          "ticks": 9600,
          "time": 7.8125,
          "velocity": 0.3937007874015748
        },
        {
          "duration": 0.234375,
          "durationTicks": 288,
          "midi": 45,
          "name": "A2",
          "ticks": 9600,
          "time": 7.8125,
          "velocity": 0.3937007874015748
        },
        {
          "duration": 0.234375,
          "durationTicks": 288,
          "midi": 47,
          "name": "B2",
          "ticks": 9984,
          "time": 8.125,
          "velocity": 0.3937007874015748
        },
        {
          "duration": 0.234375,
          "durationTicks": 288,
          "midi": 35,
          "name": "B1",
          "ticks": 9984,
          "time": 8.125,
          "velocity": 0.3937007874015748
        },
        {
          "duration": 0.234375,
          "durationTicks": 288,
          "midi": 35,
          "name": "B1",
          "ticks": 10368,
          "time": 8.4375,
          "velocity": 0.3937007874015748
        },
        {
          "duration": 0.234375,
          "durationTicks": 288,
          "midi": 47,
          "name": "B2",
          "ticks": 10368,
          "time": 8.4375,
          "velocity": 0.3937007874015748
        },
        {
          "duration": 1.171875,
          "durationTicks": 1440,
          "midi": 36,
          "name": "C2",
          "ticks": 10752,
          "time": 8.75,
          "velocity": 0.3937007874015748
        },
        {
          "duration": 1.171875,
          "durationTicks": 1440,
          "midi": 48,
          "name": "C3",
          "ticks": 10752,
          "time": 8.75,
          "velocity": 0.3937007874015748
        },
        {
          "duration": 0.078125,
          "durationTicks": 96,
          "midi": 28,
          "name": "E1",
          "ticks": 17856,
          "time": 14.53125,
          "velocity": 0.3937007874015748
        },
        {
          "duration": 0.078125,
          "durationTicks": 96,
          "midi": 40,
          "name": "E2",
          "ticks": 17856,
          "time": 14.53125,
          "velocity": 0.3937007874015748
        },
        {
          "duration": 0.078125,
          "durationTicks": 96,
          "midi": 40,
          "name": "E2",
          "ticks": 17952,
          "time": 14.609375,
          "velocity": 0.3937007874015748
        },
        {
          "duration": 0.078125,
          "durationTicks": 96,
          "midi": 28,
          "name": "E1",
          "ticks": 17952,
          "time": 14.609375,
          "velocity": 0.3937007874015748
        },
        {
          "duration": 0.078125,
          "durationTicks": 96,
          "midi": 28,
          "name": "E1",
          "ticks": 18048,
          "time": 14.6875,
          "velocity": 0.3937007874015748
        },
        {
          "duration": 0.078125,
          "durationTicks": 96,
          "midi": 40,
          "name": "E2",
          "ticks": 18048,
          "time": 14.6875,
          "velocity": 0.3937007874015748
        },
        {
          "duration": 0.078125,
          "durationTicks": 96,
          "midi": 28,
          "name": "E1",
          "ticks": 18144,
          "time": 14.765625,
          "velocity": 0.3937007874015748
        },
        {
          "duration": 0.078125,
          "durationTicks": 96,
          "midi": 40,
          "name": "E2",
          "ticks": 18144,
          "time": 14.765625,
          "velocity": 0.3937007874015748
        },
        {
          "duration": 0.078125,
          "durationTicks": 96,
          "midi": 28,
          "name": "E1",
          "ticks": 18240,
          "time": 14.84375,
          "velocity": 0.3937007874015748
        },
        {
          "duration": 0.078125,
          "durationTicks": 96,
          "midi": 40,
          "name": "E2",
          "ticks": 18240,
          "time": 14.84375,
          "velocity": 0.3937007874015748
        },
        {
          "duration": 0.078125,
          "durationTicks": 96,
          "midi": 28,
          "name": "E1",
          "ticks": 18336,
          "time": 14.921875,
          "velocity": 0.3937007874015748
        },
        {
          "duration": 0.078125,
          "durationTicks": 96,
          "midi": 40,
          "name": "E2",
          "ticks": 18336,
          "time": 14.921875,
          "velocity": 0.3937007874015748
        },
        {
          "duration": 1.171875,
          "durationTicks": 1440,
          "midi": 33,
          "name": "A1",
          "ticks": 18432,
          "time": 15,
          "velocity": 0.3937007874015748
        },
        {
          "duration": 1.171875,
          "durationTicks": 1440,
          "midi": 45,
          "name": "A2",
          "ticks": 18432,
          "time": 15,
          "velocity": 0.3937007874015748
        },
        {
          "duration": 0.234375,
          "durationTicks": 288,
          "midi": 45,
          "name": "A2",
          "ticks": 21504,
          "time": 17.5,
          "velocity": 0.3937007874015748
        },
        {
          "duration": 0.234375,
          "durationTicks": 288,
          "midi": 33,
          "name": "A1",
          "ticks": 21504,
          "time": 17.5,
          "velocity": 0.3937007874015748
        },
        {
          "duration": 0.234375,
          "durationTicks": 288,
          "midi": 33,
          "name": "A1",
          "ticks": 21888,
          "time": 17.8125,
          "velocity": 0.3937007874015748
        },
        {
          "duration": 0.234375,
          "durationTicks": 288,
          "midi": 45,
          "name": "A2",
          "ticks": 21888,
          "time": 17.8125,
          "velocity": 0.3937007874015748
        },
        {
          "duration": 0.234375,
          "durationTicks": 288,
          "midi": 35,
          "name": "B1",
          "ticks": 22272,
          "time": 18.125,
          "velocity": 0.3937007874015748
        },
        {
          "duration": 0.234375,
          "durationTicks": 288,
          "midi": 47,
          "name": "B2",
          "ticks": 22272,
          "time": 18.125,
          "velocity": 0.3937007874015748
        },
        {
          "duration": 0.234375,
          "durationTicks": 288,
          "midi": 35,
          "name": "B1",
          "ticks": 22656,
          "time": 18.4375,
          "velocity": 0.3937007874015748
        },
        {
          "duration": 0.234375,
          "durationTicks": 288,
          "midi": 47,
          "name": "B2",
          "ticks": 22656,
          "time": 18.4375,
          "velocity": 0.3937007874015748
        },
        {
          "duration": 1.171875,
          "durationTicks": 1440,
          "midi": 36,
          "name": "C2",
          "ticks": 23040,
          "time": 18.75,
          "velocity": 0.3937007874015748
        },
        {
          "duration": 1.171875,
          "durationTicks": 1440,
          "midi": 48,
          "name": "C3",
          "ticks": 23040,
          "time": 18.75,
          "velocity": 0.3937007874015748
        },
        {
          "duration": 0.078125,
          "durationTicks": 96,
          "midi": 40,
          "name": "E2",
          "ticks": 30144,
          "time": 24.53125,
          "velocity": 0.3937007874015748
        },
        {
          "duration": 0.078125,
          "durationTicks": 96,
          "midi": 28,
          "name": "E1",
          "ticks": 30144,
          "time": 24.53125,
          "velocity": 0.3937007874015748
        },
        {
          "duration": 0.078125,
          "durationTicks": 96,
          "midi": 28,
          "name": "E1",
          "ticks": 30240,
          "time": 24.609375,
          "velocity": 0.3937007874015748
        },
        {
          "duration": 0.078125,
          "durationTicks": 96,
          "midi": 40,
          "name": "E2",
          "ticks": 30240,
          "time": 24.609375,
          "velocity": 0.3937007874015748
        },
        {
          "duration": 0.078125,
          "durationTicks": 96,
          "midi": 40,
          "name": "E2",
          "ticks": 30336,
          "time": 24.6875,
          "velocity": 0.3937007874015748
        },
        {
          "duration": 0.078125,
          "durationTicks": 96,
          "midi": 28,
          "name": "E1",
          "ticks": 30336,
          "time": 24.6875,
          "velocity": 0.3937007874015748
        },
        {
          "duration": 0.078125,
          "durationTicks": 96,
          "midi": 28,
          "name": "E1",
          "ticks": 30432,
          "time": 24.765625,
          "velocity": 0.3937007874015748
        },
        {
          "duration": 0.078125,
          "durationTicks": 96,
          "midi": 40,
          "name": "E2",
          "ticks": 30432,
          "time": 24.765625,
          "velocity": 0.3937007874015748
        },
        {
          "duration": 0.078125,
          "durationTicks": 96,
          "midi": 28,
          "name": "E1",
          "ticks": 30528,
          "time": 24.84375,
          "velocity": 0.3937007874015748
        },
        {
          "duration": 0.078125,
          "durationTicks": 96,
          "midi": 40,
          "name": "E2",
          "ticks": 30528,
          "time": 24.84375,
          "velocity": 0.3937007874015748
        },
        {
          "duration": 0.078125,
          "durationTicks": 96,
          "midi": 40,
          "name": "E2",
          "ticks": 30624,
          "time": 24.921875,
          "velocity": 0.3937007874015748
        },
        {
          "duration": 0.078125,
          "durationTicks": 96,
          "midi": 28,
          "name": "E1",
          "ticks": 30624,
          "time": 24.921875,
          "velocity": 0.3937007874015748
        },
        {
          "duration": 1.171875,
          "durationTicks": 1440,
          "midi": 36,
          "name": "C2",
          "ticks": 30720,
          "time": 25,
          "velocity": 0.3937007874015748
        },
        {
          "duration": 1.171875,
          "durationTicks": 1440,
          "midi": 48,
          "name": "C3",
          "ticks": 30720,
          "time": 25,
          "velocity": 0.3937007874015748
        },
        {
          "duration": 0.078125,
          "durationTicks": 96,
          "midi": 28,
          "name": "E1",
          "ticks": 42432,
          "time": 34.53125,
          "velocity": 0.3937007874015748
        },
        {
          "duration": 0.078125,
          "durationTicks": 96,
          "midi": 40,
          "name": "E2",
          "ticks": 42432,
          "time": 34.53125,
          "velocity": 0.3937007874015748
        },
        {
          "duration": 0.078125,
          "durationTicks": 96,
          "midi": 28,
          "name": "E1",
          "ticks": 42528,
          "time": 34.609375,
          "velocity": 0.3937007874015748
        },
        {
          "duration": 0.078125,
          "durationTicks": 96,
          "midi": 40,
          "name": "E2",
          "ticks": 42528,
          "time": 34.609375,
          "velocity": 0.3937007874015748
        },
        {
          "duration": 0.078125,
          "durationTicks": 96,
          "midi": 28,
          "name": "E1",
          "ticks": 42624,
          "time": 34.6875,
          "velocity": 0.3937007874015748
        },
        {
          "duration": 0.078125,
          "durationTicks": 96,
          "midi": 40,
          "name": "E2",
          "ticks": 42624,
          "time": 34.6875,
          "velocity": 0.3937007874015748
        },
        {
          "duration": 0.078125,
          "durationTicks": 96,
          "midi": 40,
          "name": "E2",
          "ticks": 42720,
          "time": 34.765625,
          "velocity": 0.3937007874015748
        },
        {
          "duration": 0.078125,
          "durationTicks": 96,
          "midi": 28,
          "name": "E1",
          "ticks": 42720,
          "time": 34.765625,
          "velocity": 0.3937007874015748
        },
        {
          "duration": 0.078125,
          "durationTicks": 96,
          "midi": 28,
          "name": "E1",
          "ticks": 42816,
          "time": 34.84375,
          "velocity": 0.3937007874015748
        },
        {
          "duration": 0.078125,
          "durationTicks": 96,
          "midi": 40,
          "name": "E2",
          "ticks": 42816,
          "time": 34.84375,
          "velocity": 0.3937007874015748
        },
        {
          "duration": 0.078125,
          "durationTicks": 96,
          "midi": 28,
          "name": "E1",
          "ticks": 42912,
          "time": 34.921875,
          "velocity": 0.3937007874015748
        },
        {
          "duration": 0.078125,
          "durationTicks": 96,
          "midi": 40,
          "name": "E2",
          "ticks": 42912,
          "time": 34.921875,
          "velocity": 0.3937007874015748
        },
        {
          "duration": 1.171875,
          "durationTicks": 1440,
          "midi": 40,
          "name": "E2",
          "ticks": 43008,
          "time": 35,
          "velocity": 0.3937007874015748
        },
        {
          "duration": 1.171875,
          "durationTicks": 1440,
          "midi": 52,
          "name": "E3",
          "ticks": 43008,
          "time": 35,
          "velocity": 0.3937007874015748
        },
        {
          "duration": 0.078125,
          "durationTicks": 96,
          "midi": 40,
          "name": "E2",
          "ticks": 55104,
          "time": 44.84375,
          "velocity": 0.3937007874015748
        },
        {
          "duration": 0.078125,
          "durationTicks": 96,
          "midi": 28,
          "name": "E1",
          "ticks": 55104,
          "time": 44.84375,
          "velocity": 0.3937007874015748
        },
        {
          "duration": 0.078125,
          "durationTicks": 96,
          "midi": 28,
          "name": "E1",
          "ticks": 55200,
          "time": 44.921875,
          "velocity": 0.3937007874015748
        },
        {
          "duration": 0.078125,
          "durationTicks": 96,
          "midi": 40,
          "name": "E2",
          "ticks": 55200,
          "time": 44.921875,
          "velocity": 0.3937007874015748
        },
        {
          "duration": 0.859375,
          "durationTicks": 1056,
          "midi": 33,
          "name": "A1",
          "ticks": 55296,
          "time": 45,
          "velocity": 0.3937007874015748
        },
        {
          "duration": 0.859375,
          "durationTicks": 1056,
          "midi": 45,
          "name": "A2",
          "ticks": 55296,
          "time": 45,
          "velocity": 0.3937007874015748
        },
        {
          "duration": 0.15625,
          "durationTicks": 192,
          "midi": 33,
          "name": "A1",
          "ticks": 56640,
          "time": 46.09375,
          "velocity": 0.3937007874015748
        },
        {
          "duration": 0.15625,
          "durationTicks": 192,
          "midi": 45,
          "name": "A2",
          "ticks": 56640,
          "time": 46.09375,
          "velocity": 0.3937007874015748
        },
        {
          "duration": 1.171875,
          "durationTicks": 1440,
          "midi": 38,
          "name": "D2",
          "ticks": 56832,
          "time": 46.25,
          "velocity": 0.3937007874015748
        },
        {
          "duration": 1.171875,
          "durationTicks": 1440,
          "midi": 50,
          "name": "D3",
          "ticks": 56832,
          "time": 46.25,
          "velocity": 0.3937007874015748
        },
        {
          "duration": 0.859375,
          "durationTicks": 1056,
          "midi": 31,
          "name": "G1",
          "ticks": 58368,
          "time": 47.5,
          "velocity": 0.3937007874015748
        },
        {
          "duration": 0.859375,
          "durationTicks": 1056,
          "midi": 43,
          "name": "G2",
          "ticks": 58368,
          "time": 47.5,
          "velocity": 0.3937007874015748
        },
        {
          "duration": 0.15625,
          "durationTicks": 192,
          "midi": 43,
          "name": "G2",
          "ticks": 59712,
          "time": 48.59375,
          "velocity": 0.3937007874015748
        },
        {
          "duration": 0.15625,
          "durationTicks": 192,
          "midi": 31,
          "name": "G1",
          "ticks": 59712,
          "time": 48.59375,
          "velocity": 0.3937007874015748
        },
        {
          "duration": 0.859375,
          "durationTicks": 1056,
          "midi": 36,
          "name": "C2",
          "ticks": 59904,
          "time": 48.75,
          "velocity": 0.3937007874015748
        },
        {
          "duration": 0.859375,
          "durationTicks": 1056,
          "midi": 48,
          "name": "C3",
          "ticks": 59904,
          "time": 48.75,
          "velocity": 0.3937007874015748
        },
        {
          "duration": 1.171875,
          "durationTicks": 1440,
          "midi": 48,
          "name": "C3",
          "ticks": 61440,
          "time": 50,
          "velocity": 0.3937007874015748
        },
        {
          "duration": 1.171875,
          "durationTicks": 1440,
          "midi": 36,
          "name": "C2",
          "ticks": 61440,
          "time": 50,
          "velocity": 0.3937007874015748
        },
        {
          "duration": 1.171875,
          "durationTicks": 1440,
          "midi": 38,
          "name": "D2",
          "ticks": 62976,
          "time": 51.25,
          "velocity": 0.3937007874015748
        },
        {
          "duration": 1.171875,
          "durationTicks": 1440,
          "midi": 50,
          "name": "D3",
          "ticks": 62976,
          "time": 51.25,
          "velocity": 0.3937007874015748
        },
        {
          "duration": 1.171875,
          "durationTicks": 1440,
          "midi": 40,
          "name": "E2",
          "ticks": 64512,
          "time": 52.5,
          "velocity": 0.3937007874015748
        },
        {
          "duration": 1.171875,
          "durationTicks": 1440,
          "midi": 52,
          "name": "E3",
          "ticks": 64512,
          "time": 52.5,
          "velocity": 0.3937007874015748
        },
        {
          "duration": 0.234375,
          "durationTicks": 288,
          "midi": 33,
          "name": "A1",
          "ticks": 66048,
          "time": 53.75,
          "velocity": 0.3937007874015748
        },
        {
          "duration": 0.234375,
          "durationTicks": 288,
          "midi": 45,
          "name": "A2",
          "ticks": 66048,
          "time": 53.75,
          "velocity": 0.3937007874015748
        },
        {
          "duration": 0.15625,
          "durationTicks": 192,
          "midi": 33,
          "name": "A1",
          "ticks": 66432,
          "time": 54.0625,
          "velocity": 0.3937007874015748
        },
        {
          "duration": 0.15625,
          "durationTicks": 192,
          "midi": 45,
          "name": "A2",
          "ticks": 66432,
          "time": 54.0625,
          "velocity": 0.3937007874015748
        },
        {
          "duration": 0.15625,
          "durationTicks": 192,
          "midi": 45,
          "name": "A2",
          "ticks": 66624,
          "time": 54.21875,
          "velocity": 0.3937007874015748
        },
        {
          "duration": 0.15625,
          "durationTicks": 192,
          "midi": 33,
          "name": "A1",
          "ticks": 66624,
          "time": 54.21875,
          "velocity": 0.3937007874015748
        },
        {
          "duration": 0.546875,
          "durationTicks": 672,
          "midi": 33,
          "name": "A1",
          "ticks": 66816,
          "time": 54.375,
          "velocity": 0.3937007874015748
        },
        {
          "duration": 0.546875,
          "durationTicks": 672,
          "midi": 45,
          "name": "A2",
          "ticks": 66816,
          "time": 54.375,
          "velocity": 0.3937007874015748
        },
        {
          "duration": 0.234375,
          "durationTicks": 288,
          "midi": 38,
          "name": "D2",
          "ticks": 67584,
          "time": 55,
          "velocity": 0.3937007874015748
        },
        {
          "duration": 0.234375,
          "durationTicks": 288,
          "midi": 50,
          "name": "D3",
          "ticks": 67584,
          "time": 55,
          "velocity": 0.3937007874015748
        },
        {
          "duration": 0.234375,
          "durationTicks": 288,
          "midi": 50,
          "name": "D3",
          "ticks": 67968,
          "time": 55.3125,
          "velocity": 0.3937007874015748
        },
        {
          "duration": 0.234375,
          "durationTicks": 288,
          "midi": 38,
          "name": "D2",
          "ticks": 67968,
          "time": 55.3125,
          "velocity": 0.3937007874015748
        },
        {
          "duration": 0.234375,
          "durationTicks": 288,
          "midi": 31,
          "name": "G1",
          "ticks": 68352,
          "time": 55.625,
          "velocity": 0.3937007874015748
        },
        {
          "duration": 0.234375,
          "durationTicks": 288,
          "midi": 43,
          "name": "G2",
          "ticks": 68352,
          "time": 55.625,
          "velocity": 0.3937007874015748
        },
        {
          "duration": 0.234375,
          "durationTicks": 288,
          "midi": 31,
          "name": "G1",
          "ticks": 68736,
          "time": 55.9375,
          "velocity": 0.3937007874015748
        },
        {
          "duration": 0.234375,
          "durationTicks": 288,
          "midi": 43,
          "name": "G2",
          "ticks": 68736,
          "time": 55.9375,
          "velocity": 0.3937007874015748
        },
        {
          "duration": 0.234375,
          "durationTicks": 288,
          "midi": 36,
          "name": "C2",
          "ticks": 69120,
          "time": 56.25,
          "velocity": 0.3937007874015748
        },
        {
          "duration": 0.234375,
          "durationTicks": 288,
          "midi": 36,
          "name": "C2",
          "ticks": 69504,
          "time": 56.5625,
          "velocity": 0.3937007874015748
        },
        {
          "duration": 0.234375,
          "durationTicks": 288,
          "midi": 48,
          "name": "C3",
          "ticks": 69504,
          "time": 56.5625,
          "velocity": 0.3937007874015748
        },
        {
          "duration": 0.234375,
          "durationTicks": 288,
          "midi": 43,
          "name": "G2",
          "ticks": 70272,
          "time": 57.1875,
          "velocity": 0.3937007874015748
        },
        {
          "duration": 0.234375,
          "durationTicks": 288,
          "midi": 31,
          "name": "G1",
          "ticks": 70272,
          "time": 57.1875,
          "velocity": 0.3937007874015748
        },
        {
          "duration": 0.234375,
          "durationTicks": 288,
          "midi": 36,
          "name": "C2",
          "ticks": 71040,
          "time": 57.8125,
          "velocity": 0.3937007874015748
        },
        {
          "duration": 0.234375,
          "durationTicks": 288,
          "midi": 48,
          "name": "C3",
          "ticks": 71040,
          "time": 57.8125,
          "velocity": 0.3937007874015748
        },
        {
          "duration": 0.234375,
          "durationTicks": 288,
          "midi": 36,
          "name": "C2",
          "ticks": 71424,
          "time": 58.125,
          "velocity": 0.3937007874015748
        },
        {
          "duration": 0.234375,
          "durationTicks": 288,
          "midi": 48,
          "name": "C3",
          "ticks": 71424,
          "time": 58.125,
          "velocity": 0.3937007874015748
        },
        {
          "duration": 0.234375,
          "durationTicks": 288,
          "midi": 36,
          "name": "C2",
          "ticks": 72192,
          "time": 58.75,
          "velocity": 0.3937007874015748
        },
        {
          "duration": 0.234375,
          "durationTicks": 288,
          "midi": 36,
          "name": "C2",
          "ticks": 72576,
          "time": 59.0625,
          "velocity": 0.3937007874015748
        },
        {
          "duration": 0.234375,
          "durationTicks": 288,
          "midi": 38,
          "name": "D2",
          "ticks": 72960,
          "time": 59.375,
          "velocity": 0.3937007874015748
        },
        {
          "duration": 0.234375,
          "durationTicks": 288,
          "midi": 38,
          "name": "D2",
          "ticks": 73344,
          "time": 59.6875,
          "velocity": 0.3937007874015748
        },
        {
          "duration": 1.171875,
          "durationTicks": 1440,
          "midi": 39,
          "name": "D#2",
          "ticks": 73728,
          "time": 60,
          "velocity": 0.3937007874015748
        },
        {
          "duration": 0.078125,
          "durationTicks": 96,
          "midi": 43,
          "name": "G2",
          "ticks": 80640,
          "time": 65.625,
          "velocity": 0.3937007874015748
        },
        {
          "duration": 0.07893880208334281,
          "durationTicks": 97,
          "midi": 43,
          "name": "G2",
          "ticks": 80704,
          "time": 65.67708333333333,
          "velocity": 0.3937007874015748
        },
        {
          "duration": 0.0789388020833286,
          "durationTicks": 97,
          "midi": 43,
          "name": "G2",
          "ticks": 80768,
          "time": 65.72916666666667,
          "velocity": 0.3937007874015748
        },
        {
          "duration": 0.07893880208334281,
          "durationTicks": 97,
          "midi": 43,
          "name": "G2",
          "ticks": 80833,
          "time": 65.78206380208333,
          "velocity": 0.3937007874015748
        },
        {
          "duration": 0.0789388020833286,
          "durationTicks": 97,
          "midi": 43,
          "name": "G2",
          "ticks": 80898,
          "time": 65.8349609375,
          "velocity": 0.3937007874015748
        },
        {
          "duration": 0.07893880208334281,
          "durationTicks": 97,
          "midi": 43,
          "name": "G2",
          "ticks": 80962,
          "time": 65.88704427083333,
          "velocity": 0.3937007874015748
        },
        {
          "duration": 0.0789388020833286,
          "durationTicks": 97,
          "midi": 43,
          "name": "G2",
          "ticks": 81027,
          "time": 65.93994140625,
          "velocity": 0.3937007874015748
        },
        {
          "duration": 0.0789388020833286,
          "durationTicks": 97,
          "midi": 43,
          "name": "G2",
          "ticks": 81092,
          "time": 65.99283854166667,
          "velocity": 0.3937007874015748
        },
        {
          "duration": 0.0789388020833286,
          "durationTicks": 97,
          "midi": 43,
          "name": "G2",
          "ticks": 81156,
          "time": 66.044921875,
          "velocity": 0.3937007874015748
        },
        {
          "duration": 0.0789388020833286,
          "durationTicks": 97,
          "midi": 43,
          "name": "G2",
          "ticks": 81221,
          "time": 66.09781901041667,
          "velocity": 0.3937007874015748
        },
        {
          "duration": 0.07893880208334281,
          "durationTicks": 97,
          "midi": 43,
          "name": "G2",
          "ticks": 81286,
          "time": 66.15071614583333,
          "velocity": 0.3937007874015748
        },
        {
          "duration": 0.0789388020833286,
          "durationTicks": 97,
          "midi": 43,
          "name": "G2",
          "ticks": 81350,
          "time": 66.20279947916667,
          "velocity": 0.3937007874015748
        },
        {
          "duration": 0.234375,
          "durationTicks": 288,
          "midi": 36,
          "name": "C2",
          "ticks": 81415,
          "time": 66.25569661458333,
          "velocity": 0.3937007874015748
        },
        {
          "duration": 0.234375,
          "durationTicks": 288,
          "midi": 36,
          "name": "C2",
          "ticks": 81799,
          "time": 66.56819661458333,
          "velocity": 0.3937007874015748
        },
        {
          "duration": 0.234375,
          "durationTicks": 288,
          "midi": 48,
          "name": "C3",
          "ticks": 81799,
          "time": 66.56819661458333,
          "velocity": 0.3937007874015748
        },
        {
          "duration": 0.234375,
          "durationTicks": 288,
          "midi": 43,
          "name": "G2",
          "ticks": 82567,
          "time": 67.19319661458333,
          "velocity": 0.3937007874015748
        },
        {
          "duration": 0.234375,
          "durationTicks": 288,
          "midi": 31,
          "name": "G1",
          "ticks": 82567,
          "time": 67.19319661458333,
          "velocity": 0.3937007874015748
        },
        {
          "duration": 0.234375,
          "durationTicks": 288,
          "midi": 48,
          "name": "C3",
          "ticks": 83335,
          "time": 67.81819661458333,
          "velocity": 0.3937007874015748
        },
        {
          "duration": 0.234375,
          "durationTicks": 288,
          "midi": 36,
          "name": "C2",
          "ticks": 83335,
          "time": 67.81819661458333,
          "velocity": 0.3937007874015748
        },
        {
          "duration": 0.234375,
          "durationTicks": 288,
          "midi": 36,
          "name": "C2",
          "ticks": 83719,
          "time": 68.13069661458333,
          "velocity": 0.3937007874015748
        },
        {
          "duration": 0.234375,
          "durationTicks": 288,
          "midi": 48,
          "name": "C3",
          "ticks": 83719,
          "time": 68.13069661458333,
          "velocity": 0.3937007874015748
        },
        {
          "duration": 0.234375,
          "durationTicks": 288,
          "midi": 48,
          "name": "C3",
          "ticks": 84487,
          "time": 68.75569661458333,
          "velocity": 0.3937007874015748
        },
        {
          "duration": 0.234375,
          "durationTicks": 288,
          "midi": 36,
          "name": "C2",
          "ticks": 84487,
          "time": 68.75569661458333,
          "velocity": 0.3937007874015748
        },
        {
          "duration": 0.234375,
          "durationTicks": 288,
          "midi": 36,
          "name": "C2",
          "ticks": 84871,
          "time": 69.06819661458333,
          "velocity": 0.3937007874015748
        },
        {
          "duration": 0.234375,
          "durationTicks": 288,
          "midi": 48,
          "name": "C3",
          "ticks": 84871,
          "time": 69.06819661458333,
          "velocity": 0.3937007874015748
        },
        {
          "duration": 0.234375,
          "durationTicks": 288,
          "midi": 38,
          "name": "D2",
          "ticks": 85255,
          "time": 69.38069661458333,
          "velocity": 0.3937007874015748
        },
        {
          "duration": 0.234375,
          "durationTicks": 288,
          "midi": 50,
          "name": "D3",
          "ticks": 85255,
          "time": 69.38069661458333,
          "velocity": 0.3937007874015748
        },
        {
          "duration": 0.234375,
          "durationTicks": 288,
          "midi": 50,
          "name": "D3",
          "ticks": 85639,
          "time": 69.69319661458333,
          "velocity": 0.3937007874015748
        },
        {
          "duration": 0.234375,
          "durationTicks": 288,
          "midi": 38,
          "name": "D2",
          "ticks": 85639,
          "time": 69.69319661458333,
          "velocity": 0.3937007874015748
        },
        {
          "duration": 1.171875,
          "durationTicks": 1440,
          "midi": 39,
          "name": "D#2",
          "ticks": 86023,
          "time": 70.00569661458333,
          "velocity": 0.3937007874015748
        },
        {
          "duration": 1.171875,
          "durationTicks": 1440,
          "midi": 51,
          "name": "D#3",
          "ticks": 86023,
          "time": 70.00569661458333,
          "velocity": 0.3937007874015748
        },
        {
          "duration": 0.078125,
          "durationTicks": 96,
          "midi": 43,
          "name": "G2",
          "ticks": 92935,
          "time": 75.63069661458333,
          "velocity": 0.3937007874015748
        },
        {
          "duration": 0.0789388020833286,
          "durationTicks": 97,
          "midi": 43,
          "name": "G2",
          "ticks": 92999,
          "time": 75.68277994791667,
          "velocity": 0.3937007874015748
        },
        {
          "duration": 0.0789388020833286,
          "durationTicks": 97,
          "midi": 43,
          "name": "G2",
          "ticks": 93063,
          "time": 75.73486328125,
          "velocity": 0.3937007874015748
        },
        {
          "duration": 0.0789388020833286,
          "durationTicks": 97,
          "midi": 43,
          "name": "G2",
          "ticks": 93128,
          "time": 75.78776041666667,
          "velocity": 0.3937007874015748
        },
        {
          "duration": 0.07893880208334281,
          "durationTicks": 97,
          "midi": 43,
          "name": "G2",
          "ticks": 93193,
          "time": 75.84065755208333,
          "velocity": 0.3937007874015748
        },
        {
          "duration": 0.0789388020833286,
          "durationTicks": 97,
          "midi": 43,
          "name": "G2",
          "ticks": 93257,
          "time": 75.89274088541667,
          "velocity": 0.3937007874015748
        },
        {
          "duration": 0.07893880208334281,
          "durationTicks": 97,
          "midi": 43,
          "name": "G2",
          "ticks": 93322,
          "time": 75.94563802083333,
          "velocity": 0.3937007874015748
        },
        {
          "duration": 0.0789388020833286,
          "durationTicks": 97,
          "midi": 43,
          "name": "G2",
          "ticks": 93387,
          "time": 75.99853515625,
          "velocity": 0.3937007874015748
        },
        {
          "duration": 0.07893880208334281,
          "durationTicks": 97,
          "midi": 43,
          "name": "G2",
          "ticks": 93451,
          "time": 76.05061848958333,
          "velocity": 0.3937007874015748
        },
        {
          "duration": 0.0789388020833286,
          "durationTicks": 97,
          "midi": 43,
          "name": "G2",
          "ticks": 93516,
          "time": 76.103515625,
          "velocity": 0.3937007874015748
        },
        {
          "duration": 0.0789388020833286,
          "durationTicks": 97,
          "midi": 43,
          "name": "G2",
          "ticks": 93581,
          "time": 76.15641276041667,
          "velocity": 0.3937007874015748
        },
        {
          "duration": 0.0789388020833286,
          "durationTicks": 97,
          "midi": 43,
          "name": "G2",
          "ticks": 93645,
          "time": 76.20849609375,
          "velocity": 0.3937007874015748
        },
        {
          "duration": 1.171875,
          "durationTicks": 1440,
          "midi": 29,
          "name": "F1",
          "ticks": 93710,
          "time": 76.26139322916667,
          "velocity": 0.3937007874015748
        },
        {
          "duration": 1.171875,
          "durationTicks": 1440,
          "midi": 41,
          "name": "F2",
          "ticks": 93710,
          "time": 76.26139322916667,
          "velocity": 0.3937007874015748
        },
        {
          "duration": 1.171875,
          "durationTicks": 1440,
          "midi": 36,
          "name": "C2",
          "ticks": 99854,
          "time": 81.26139322916666,
          "velocity": 0.3937007874015748
        },
        {
          "duration": 1.171875,
          "durationTicks": 1440,
          "midi": 48,
          "name": "C3",
          "ticks": 99854,
          "time": 81.26139322916666,
          "velocity": 0.3937007874015748
        }
      ],
      "endOfTrackTicks": 101294
    },
    {
      "channel": 3,
      "controlChanges": {},
      "pitchBends": [],
      "instrument": {
        "family": "synth effects",
        "number": 99,
        "name": "fx 4 (atmosphere)"
      },
      "name": "Scifi",
      "notes": [
        {
          "duration": 0.15625,
          "durationTicks": 192,
          "midi": 57,
          "name": "A3",
          "ticks": 30144,
          "time": 24.53125,
          "velocity": 0.3937007874015748
        },
        {
          "duration": 0.15625,
          "durationTicks": 192,
          "midi": 56,
          "name": "G#3",
          "ticks": 30336,
          "time": 24.6875,
          "velocity": 0.3937007874015748
        },
        {
          "duration": 0.15625,
          "durationTicks": 192,
          "midi": 57,
          "name": "A3",
          "ticks": 30528,
          "time": 24.84375,
          "velocity": 0.3937007874015748
        },
        {
          "duration": 0.15625,
          "durationTicks": 192,
          "midi": 59,
          "name": "B3",
          "ticks": 30720,
          "time": 25,
          "velocity": 0.3937007874015748
        },
        {
          "duration": 0.15625,
          "durationTicks": 192,
          "midi": 52,
          "name": "E3",
          "ticks": 30912,
          "time": 25.15625,
          "velocity": 0.3937007874015748
        },
        {
          "duration": 0.15625,
          "durationTicks": 192,
          "midi": 51,
          "name": "D#3",
          "ticks": 31104,
          "time": 25.3125,
          "velocity": 0.3937007874015748
        },
        {
          "duration": 0.15625,
          "durationTicks": 192,
          "midi": 52,
          "name": "E3",
          "ticks": 31296,
          "time": 25.46875,
          "velocity": 0.3937007874015748
        },
        {
          "duration": 0.15625,
          "durationTicks": 192,
          "midi": 59,
          "name": "B3",
          "ticks": 31488,
          "time": 25.625,
          "velocity": 0.3937007874015748
        },
        {
          "duration": 0.15625,
          "durationTicks": 192,
          "midi": 52,
          "name": "E3",
          "ticks": 31680,
          "time": 25.78125,
          "velocity": 0.3937007874015748
        },
        {
          "duration": 0.15625,
          "durationTicks": 192,
          "midi": 64,
          "name": "E4",
          "ticks": 31872,
          "time": 25.9375,
          "velocity": 0.3937007874015748
        },
        {
          "duration": 0.15625,
          "durationTicks": 192,
          "midi": 62,
          "name": "D4",
          "ticks": 32064,
          "time": 26.09375,
          "velocity": 0.3937007874015748
        },
        {
          "duration": 0.15625,
          "durationTicks": 192,
          "midi": 62,
          "name": "D4",
          "ticks": 32256,
          "time": 26.25,
          "velocity": 0.3937007874015748
        },
        {
          "duration": 0.15625,
          "durationTicks": 192,
          "midi": 60,
          "name": "C4",
          "ticks": 32448,
          "time": 26.40625,
          "velocity": 0.3937007874015748
        },
        {
          "duration": 0.15625,
          "durationTicks": 192,
          "midi": 59,
          "name": "B3",
          "ticks": 32640,
          "time": 26.5625,
          "velocity": 0.3937007874015748
        },
        {
          "duration": 0.15625,
          "durationTicks": 192,
          "midi": 57,
          "name": "A3",
          "ticks": 32832,
          "time": 26.71875,
          "velocity": 0.3937007874015748
        },
        {
          "duration": 0.15625,
          "durationTicks": 192,
          "midi": 57,
          "name": "A3",
          "ticks": 33024,
          "time": 26.875,
          "velocity": 0.3937007874015748
        },
        {
          "duration": 0.15625,
          "durationTicks": 192,
          "midi": 59,
          "name": "B3",
          "ticks": 33216,
          "time": 27.03125,
          "velocity": 0.3937007874015748
        },
        {
          "duration": 0.15625,
          "durationTicks": 192,
          "midi": 60,
          "name": "C4",
          "ticks": 33408,
          "time": 27.1875,
          "velocity": 0.3937007874015748
        },
        {
          "duration": 0.15625,
          "durationTicks": 192,
          "midi": 57,
          "name": "A3",
          "ticks": 33600,
          "time": 27.34375,
          "velocity": 0.3937007874015748
        },
        {
          "duration": 0.15625,
          "durationTicks": 192,
          "midi": 59,
          "name": "B3",
          "ticks": 33792,
          "time": 27.5,
          "velocity": 0.3937007874015748
        },
        {
          "duration": 0.15625,
          "durationTicks": 192,
          "midi": 55,
          "name": "G3",
          "ticks": 33984,
          "time": 27.65625,
          "velocity": 0.3937007874015748
        },
        {
          "duration": 0.15625,
          "durationTicks": 192,
          "midi": 54,
          "name": "F#3",
          "ticks": 34176,
          "time": 27.8125,
          "velocity": 0.3937007874015748
        },
        {
          "duration": 0.15625,
          "durationTicks": 192,
          "midi": 55,
          "name": "G3",
          "ticks": 34368,
          "time": 27.96875,
          "velocity": 0.3937007874015748
        },
        {
          "duration": 0.15625,
          "durationTicks": 192,
          "midi": 59,
          "name": "B3",
          "ticks": 34560,
          "time": 28.125,
          "velocity": 0.3937007874015748
        },
        {
          "duration": 0.15625,
          "durationTicks": 192,
          "midi": 55,
          "name": "G3",
          "ticks": 34752,
          "time": 28.28125,
          "velocity": 0.3937007874015748
        },
        {
          "duration": 0.15625,
          "durationTicks": 192,
          "midi": 67,
          "name": "G4",
          "ticks": 34944,
          "time": 28.4375,
          "velocity": 0.3937007874015748
        },
        {
          "duration": 0.15625,
          "durationTicks": 192,
          "midi": 65,
          "name": "F4",
          "ticks": 35136,
          "time": 28.59375,
          "velocity": 0.3937007874015748
        },
        {
          "duration": 0.15625,
          "durationTicks": 192,
          "midi": 65,
          "name": "F4",
          "ticks": 35328,
          "time": 28.75,
          "velocity": 0.3937007874015748
        },
        {
          "duration": 0.15625,
          "durationTicks": 192,
          "midi": 64,
          "name": "E4",
          "ticks": 35520,
          "time": 28.90625,
          "velocity": 0.3937007874015748
        },
        {
          "duration": 0.15625,
          "durationTicks": 192,
          "midi": 62,
          "name": "D4",
          "ticks": 35712,
          "time": 29.0625,
          "velocity": 0.3937007874015748
        },
        {
          "duration": 0.15625,
          "durationTicks": 192,
          "midi": 60,
          "name": "C4",
          "ticks": 35904,
          "time": 29.21875,
          "velocity": 0.3937007874015748
        },
        {
          "duration": 0.15625,
          "durationTicks": 192,
          "midi": 60,
          "name": "C4",
          "ticks": 36096,
          "time": 29.375,
          "velocity": 0.3937007874015748
        },
        {
          "duration": 0.15625,
          "durationTicks": 192,
          "midi": 62,
          "name": "D4",
          "ticks": 36288,
          "time": 29.53125,
          "velocity": 0.3937007874015748
        },
        {
          "duration": 0.15625,
          "durationTicks": 192,
          "midi": 64,
          "name": "E4",
          "ticks": 36480,
          "time": 29.6875,
          "velocity": 0.3937007874015748
        },
        {
          "duration": 0.15625,
          "durationTicks": 192,
          "midi": 60,
          "name": "C4",
          "ticks": 36672,
          "time": 29.84375,
          "velocity": 0.3937007874015748
        },
        {
          "duration": 0.15625,
          "durationTicks": 192,
          "midi": 61,
          "name": "C#4",
          "ticks": 36864,
          "time": 30,
          "velocity": 0.3937007874015748
        },
        {
          "duration": 0.15625,
          "durationTicks": 192,
          "midi": 57,
          "name": "A3",
          "ticks": 37056,
          "time": 30.15625,
          "velocity": 0.3937007874015748
        },
        {
          "duration": 0.15625,
          "durationTicks": 192,
          "midi": 61,
          "name": "C#4",
          "ticks": 37248,
          "time": 30.3125,
          "velocity": 0.3937007874015748
        },
        {
          "duration": 0.15625,
          "durationTicks": 192,
          "midi": 64,
          "name": "E4",
          "ticks": 37440,
          "time": 30.46875,
          "velocity": 0.3937007874015748
        },
        {
          "duration": 0.15625,
          "durationTicks": 192,
          "midi": 69,
          "name": "A4",
          "ticks": 37632,
          "time": 30.625,
          "velocity": 0.3937007874015748
        },
        {
          "duration": 0.15625,
          "durationTicks": 192,
          "midi": 57,
          "name": "A3",
          "ticks": 37824,
          "time": 30.78125,
          "velocity": 0.3937007874015748
        },
        {
          "duration": 0.15625,
          "durationTicks": 192,
          "midi": 67,
          "name": "G4",
          "ticks": 38016,
          "time": 30.9375,
          "velocity": 0.3937007874015748
        },
        {
          "duration": 0.15625,
          "durationTicks": 192,
          "midi": 57,
          "name": "A3",
          "ticks": 38208,
          "time": 31.09375,
          "velocity": 0.3937007874015748
        },
        {
          "duration": 0.15625,
          "durationTicks": 192,
          "midi": 65,
          "name": "F4",
          "ticks": 38400,
          "time": 31.25,
          "velocity": 0.3937007874015748
        },
        {
          "duration": 0.15625,
          "durationTicks": 192,
          "midi": 64,
          "name": "E4",
          "ticks": 38592,
          "time": 31.40625,
          "velocity": 0.3937007874015748
        },
        {
          "duration": 0.15625,
          "durationTicks": 192,
          "midi": 62,
          "name": "D4",
          "ticks": 38784,
          "time": 31.5625,
          "velocity": 0.3937007874015748
        },
        {
          "duration": 0.15625,
          "durationTicks": 192,
          "midi": 61,
          "name": "C#4",
          "ticks": 38976,
          "time": 31.71875,
          "velocity": 0.3937007874015748
        },
        {
          "duration": 0.15625,
          "durationTicks": 192,
          "midi": 62,
          "name": "D4",
          "ticks": 39168,
          "time": 31.875,
          "velocity": 0.3937007874015748
        },
        {
          "duration": 0.15625,
          "durationTicks": 192,
          "midi": 57,
          "name": "A3",
          "ticks": 39360,
          "time": 32.03125,
          "velocity": 0.3937007874015748
        },
        {
          "duration": 0.15625,
          "durationTicks": 192,
          "midi": 56,
          "name": "G#3",
          "ticks": 39552,
          "time": 32.1875,
          "velocity": 0.3937007874015748
        },
        {
          "duration": 0.15625,
          "durationTicks": 192,
          "midi": 57,
          "name": "A3",
          "ticks": 39744,
          "time": 32.34375,
          "velocity": 0.3937007874015748
        },
        {
          "duration": 0.15625,
          "durationTicks": 192,
          "midi": 63,
          "name": "D#4",
          "ticks": 39936,
          "time": 32.5,
          "velocity": 0.3937007874015748
        },
        {
          "duration": 0.15625,
          "durationTicks": 192,
          "midi": 59,
          "name": "B3",
          "ticks": 40128,
          "time": 32.65625,
          "velocity": 0.3937007874015748
        },
        {
          "duration": 0.15625,
          "durationTicks": 192,
          "midi": 63,
          "name": "D#4",
          "ticks": 40320,
          "time": 32.8125,
          "velocity": 0.3937007874015748
        },
        {
          "duration": 0.15625,
          "durationTicks": 192,
          "midi": 66,
          "name": "F#4",
          "ticks": 40512,
          "time": 32.96875,
          "velocity": 0.3937007874015748
        },
        {
          "duration": 0.15625,
          "durationTicks": 192,
          "midi": 72,
          "name": "C5",
          "ticks": 40704,
          "time": 33.125,
          "velocity": 0.3937007874015748
        },
        {
          "duration": 0.15625,
          "durationTicks": 192,
          "midi": 63,
          "name": "D#4",
          "ticks": 40896,
          "time": 33.28125,
          "velocity": 0.3937007874015748
        },
        {
          "duration": 0.15625,
          "durationTicks": 192,
          "midi": 71,
          "name": "B4",
          "ticks": 41088,
          "time": 33.4375,
          "velocity": 0.3937007874015748
        },
        {
          "duration": 0.15625,
          "durationTicks": 192,
          "midi": 69,
          "name": "A4",
          "ticks": 41280,
          "time": 33.59375,
          "velocity": 0.3937007874015748
        },
        {
          "duration": 0.15625,
          "durationTicks": 192,
          "midi": 69,
          "name": "A4",
          "ticks": 41472,
          "time": 33.75,
          "velocity": 0.3937007874015748
        },
        {
          "duration": 0.15625,
          "durationTicks": 192,
          "midi": 64,
          "name": "E4",
          "ticks": 41664,
          "time": 33.90625,
          "velocity": 0.3937007874015748
        },
        {
          "duration": 0.15625,
          "durationTicks": 192,
          "midi": 59,
          "name": "B3",
          "ticks": 41856,
          "time": 34.0625,
          "velocity": 0.3937007874015748
        },
        {
          "duration": 0.15625,
          "durationTicks": 192,
          "midi": 69,
          "name": "A4",
          "ticks": 42048,
          "time": 34.21875,
          "velocity": 0.3937007874015748
        },
        {
          "duration": 0.15625,
          "durationTicks": 192,
          "midi": 68,
          "name": "G#4",
          "ticks": 42240,
          "time": 34.375,
          "velocity": 0.3937007874015748
        },
        {
          "duration": 0.15625,
          "durationTicks": 192,
          "midi": 69,
          "name": "A4",
          "ticks": 42432,
          "time": 34.53125,
          "velocity": 0.3937007874015748
        },
        {
          "duration": 0.15625,
          "durationTicks": 192,
          "midi": 71,
          "name": "B4",
          "ticks": 42624,
          "time": 34.6875,
          "velocity": 0.3937007874015748
        },
        {
          "duration": 0.15625,
          "durationTicks": 192,
          "midi": 64,
          "name": "E4",
          "ticks": 42816,
          "time": 34.84375,
          "velocity": 0.3937007874015748
        },
        {
          "duration": 0.390625,
          "durationTicks": 480,
          "midi": 76,
          "name": "E5",
          "ticks": 43008,
          "time": 35,
          "velocity": 0.3937007874015748
        },
        {
          "duration": 0.078125,
          "durationTicks": 96,
          "midi": 74,
          "name": "D5",
          "ticks": 43584,
          "time": 35.46875,
          "velocity": 0.3937007874015748
        },
        {
          "duration": 0.078125,
          "durationTicks": 96,
          "midi": 72,
          "name": "C5",
          "ticks": 43680,
          "time": 35.546875,
          "velocity": 0.3937007874015748
        },
        {
          "duration": 0.078125,
          "durationTicks": 96,
          "midi": 71,
          "name": "B4",
          "ticks": 43776,
          "time": 35.625,
          "velocity": 0.3937007874015748
        },
        {
          "duration": 0.078125,
          "durationTicks": 96,
          "midi": 64,
          "name": "E4",
          "ticks": 43872,
          "time": 35.703125,
          "velocity": 0.3937007874015748
        },
        {
          "duration": 0.078125,
          "durationTicks": 96,
          "midi": 72,
          "name": "C5",
          "ticks": 43968,
          "time": 35.78125,
          "velocity": 0.3937007874015748
        },
        {
          "duration": 0.078125,
          "durationTicks": 96,
          "midi": 64,
          "name": "E4",
          "ticks": 44064,
          "time": 35.859375,
          "velocity": 0.3937007874015748
        },
        {
          "duration": 0.078125,
          "durationTicks": 96,
          "midi": 74,
          "name": "D5",
          "ticks": 44160,
          "time": 35.9375,
          "velocity": 0.3937007874015748
        },
        {
          "duration": 0.078125,
          "durationTicks": 96,
          "midi": 64,
          "name": "E4",
          "ticks": 44352,
          "time": 36.09375,
          "velocity": 0.3937007874015748
        },
        {
          "duration": 0.078125,
          "durationTicks": 96,
          "midi": 72,
          "name": "C5",
          "ticks": 44544,
          "time": 36.25,
          "velocity": 0.3937007874015748
        },
        {
          "duration": 0.078125,
          "durationTicks": 96,
          "midi": 64,
          "name": "E4",
          "ticks": 44640,
          "time": 36.328125,
          "velocity": 0.3937007874015748
        },
        {
          "duration": 0.078125,
          "durationTicks": 96,
          "midi": 71,
          "name": "B4",
          "ticks": 44736,
          "time": 36.40625,
          "velocity": 0.3937007874015748
        },
        {
          "duration": 0.078125,
          "durationTicks": 96,
          "midi": 69,
          "name": "A4",
          "ticks": 44928,
          "time": 36.5625,
          "velocity": 0.3937007874015748
        },
        {
          "duration": 0.078125,
          "durationTicks": 96,
          "midi": 68,
          "name": "G#4",
          "ticks": 45120,
          "time": 36.71875,
          "velocity": 0.3937007874015748
        },
        {
          "duration": 0.078125,
          "durationTicks": 96,
          "midi": 69,
          "name": "A4",
          "ticks": 45312,
          "time": 36.875,
          "velocity": 0.3937007874015748
        },
        {
          "duration": 0.078125,
          "durationTicks": 96,
          "midi": 64,
          "name": "E4",
          "ticks": 45408,
          "time": 36.953125,
          "velocity": 0.3937007874015748
        },
        {
          "duration": 0.078125,
          "durationTicks": 96,
          "midi": 71,
          "name": "B4",
          "ticks": 45504,
          "time": 37.03125,
          "velocity": 0.3937007874015748
        },
        {
          "duration": 0.078125,
          "durationTicks": 96,
          "midi": 64,
          "name": "E4",
          "ticks": 45600,
          "time": 37.109375,
          "velocity": 0.3937007874015748
        },
        {
          "duration": 0.078125,
          "durationTicks": 96,
          "midi": 72,
          "name": "C5",
          "ticks": 45696,
          "time": 37.1875,
          "velocity": 0.3937007874015748
        },
        {
          "duration": 0.078125,
          "durationTicks": 96,
          "midi": 64,
          "name": "E4",
          "ticks": 45792,
          "time": 37.265625,
          "velocity": 0.3937007874015748
        },
        {
          "duration": 0.078125,
          "durationTicks": 96,
          "midi": 69,
          "name": "A4",
          "ticks": 45888,
          "time": 37.34375,
          "velocity": 0.3937007874015748
        },
        {
          "duration": 0.078125,
          "durationTicks": 96,
          "midi": 64,
          "name": "E4",
          "ticks": 45984,
          "time": 37.421875,
          "velocity": 0.3937007874015748
        },
        {
          "duration": 0.390625,
          "durationTicks": 480,
          "midi": 71,
          "name": "B4",
          "ticks": 46080,
          "time": 37.5,
          "velocity": 0.3937007874015748
        },
        {
          "duration": 0.078125,
          "durationTicks": 96,
          "midi": 67,
          "name": "G4",
          "ticks": 46656,
          "time": 37.96875,
          "velocity": 0.3937007874015748
        },
        {
          "duration": 0.078125,
          "durationTicks": 96,
          "midi": 71,
          "name": "B4",
          "ticks": 46752,
          "time": 38.046875,
          "velocity": 0.3937007874015748
        },
        {
          "duration": 0.15625,
          "durationTicks": 192,
          "midi": 79,
          "name": "G5",
          "ticks": 46848,
          "time": 38.125,
          "velocity": 0.3937007874015748
        },
        {
          "duration": 0.15625,
          "durationTicks": 192,
          "midi": 77,
          "name": "F5",
          "ticks": 47040,
          "time": 38.28125,
          "velocity": 0.3937007874015748
        },
        {
          "duration": 0.15625,
          "durationTicks": 192,
          "midi": 76,
          "name": "E5",
          "ticks": 47232,
          "time": 38.4375,
          "velocity": 0.3937007874015748
        },
        {
          "duration": 0.15625,
          "durationTicks": 192,
          "midi": 74,
          "name": "D5",
          "ticks": 47424,
          "time": 38.59375,
          "velocity": 0.3937007874015748
        },
        {
          "duration": 0.078125,
          "durationTicks": 96,
          "midi": 76,
          "name": "E5",
          "ticks": 47616,
          "time": 38.75,
          "velocity": 0.3937007874015748
        },
        {
          "duration": 0.078125,
          "durationTicks": 96,
          "midi": 67,
          "name": "G4",
          "ticks": 47712,
          "time": 38.828125,
          "velocity": 0.3937007874015748
        },
        {
          "duration": 0.078125,
          "durationTicks": 96,
          "midi": 74,
          "name": "D5",
          "ticks": 47808,
          "time": 38.90625,
          "velocity": 0.3937007874015748
        },
        {
          "duration": 0.078125,
          "durationTicks": 96,
          "midi": 67,
          "name": "G4",
          "ticks": 47904,
          "time": 38.984375,
          "velocity": 0.3937007874015748
        },
        {
          "duration": 0.078125,
          "durationTicks": 96,
          "midi": 72,
          "name": "C5",
          "ticks": 48000,
          "time": 39.0625,
          "velocity": 0.3937007874015748
        },
        {
          "duration": 0.078125,
          "durationTicks": 96,
          "midi": 67,
          "name": "G4",
          "ticks": 48096,
          "time": 39.140625,
          "velocity": 0.3937007874015748
        },
        {
          "duration": 0.078125,
          "durationTicks": 96,
          "midi": 71,
          "name": "B4",
          "ticks": 48192,
          "time": 39.21875,
          "velocity": 0.3937007874015748
        },
        {
          "duration": 0.078125,
          "durationTicks": 96,
          "midi": 67,
          "name": "G4",
          "ticks": 48288,
          "time": 39.296875,
          "velocity": 0.3937007874015748
        },
        {
          "duration": 0.078125,
          "durationTicks": 96,
          "midi": 72,
          "name": "C5",
          "ticks": 48384,
          "time": 39.375,
          "velocity": 0.3937007874015748
        },
        {
          "duration": 0.078125,
          "durationTicks": 96,
          "midi": 67,
          "name": "G4",
          "ticks": 48480,
          "time": 39.453125,
          "velocity": 0.3937007874015748
        },
        {
          "duration": 0.078125,
          "durationTicks": 96,
          "midi": 74,
          "name": "D5",
          "ticks": 48576,
          "time": 39.53125,
          "velocity": 0.3937007874015748
        },
        {
          "duration": 0.078125,
          "durationTicks": 96,
          "midi": 67,
          "name": "G4",
          "ticks": 48672,
          "time": 39.609375,
          "velocity": 0.3937007874015748
        },
        {
          "duration": 0.078125,
          "durationTicks": 96,
          "midi": 76,
          "name": "E5",
          "ticks": 48768,
          "time": 39.6875,
          "velocity": 0.3937007874015748
        },
        {
          "duration": 0.078125,
          "durationTicks": 96,
          "midi": 67,
          "name": "G4",
          "ticks": 48864,
          "time": 39.765625,
          "velocity": 0.3937007874015748
        },
        {
          "duration": 0.078125,
          "durationTicks": 96,
          "midi": 72,
          "name": "C5",
          "ticks": 48960,
          "time": 39.84375,
          "velocity": 0.3937007874015748
        },
        {
          "duration": 0.078125,
          "durationTicks": 96,
          "midi": 67,
          "name": "G4",
          "ticks": 49056,
          "time": 39.921875,
          "velocity": 0.3937007874015748
        },
        {
          "duration": 0.390625,
          "durationTicks": 480,
          "midi": 82,
          "name": "A#5",
          "ticks": 49152,
          "time": 40,
          "velocity": 0.3937007874015748
        },
        {
          "duration": 0.078125,
          "durationTicks": 96,
          "midi": 79,
          "name": "G5",
          "ticks": 49728,
          "time": 40.46875,
          "velocity": 0.3937007874015748
        },
        {
          "duration": 0.078125,
          "durationTicks": 96,
          "midi": 82,
          "name": "A#5",
          "ticks": 49824,
          "time": 40.546875,
          "velocity": 0.3937007874015748
        },
        {
          "duration": 0.078125,
          "durationTicks": 96,
          "midi": 79,
          "name": "G5",
          "ticks": 49920,
          "time": 40.625,
          "velocity": 0.3937007874015748
        },
        {
          "duration": 0.078125,
          "durationTicks": 96,
          "midi": 82,
          "name": "A#5",
          "ticks": 50016,
          "time": 40.703125,
          "velocity": 0.3937007874015748
        },
        {
          "duration": 0.078125,
          "durationTicks": 96,
          "midi": 76,
          "name": "E5",
          "ticks": 50112,
          "time": 40.78125,
          "velocity": 0.3937007874015748
        },
        {
          "duration": 0.078125,
          "durationTicks": 96,
          "midi": 79,
          "name": "G5",
          "ticks": 50208,
          "time": 40.859375,
          "velocity": 0.3937007874015748
        },
        {
          "duration": 0.078125,
          "durationTicks": 96,
          "midi": 73,
          "name": "C#5",
          "ticks": 50304,
          "time": 40.9375,
          "velocity": 0.3937007874015748
        },
        {
          "duration": 0.078125,
          "durationTicks": 96,
          "midi": 76,
          "name": "E5",
          "ticks": 50400,
          "time": 41.015625,
          "velocity": 0.3937007874015748
        },
        {
          "duration": 0.078125,
          "durationTicks": 96,
          "midi": 69,
          "name": "A4",
          "ticks": 50496,
          "time": 41.09375,
          "velocity": 0.3937007874015748
        },
        {
          "duration": 0.078125,
          "durationTicks": 96,
          "midi": 76,
          "name": "E5",
          "ticks": 50592,
          "time": 41.171875,
          "velocity": 0.3937007874015748
        },
        {
          "duration": 0.078125,
          "durationTicks": 96,
          "midi": 81,
          "name": "A5",
          "ticks": 50688,
          "time": 41.25,
          "velocity": 0.3937007874015748
        },
        {
          "duration": 0.078125,
          "durationTicks": 96,
          "midi": 79,
          "name": "G5",
          "ticks": 50880,
          "time": 41.40625,
          "velocity": 0.3937007874015748
        },
        {
          "duration": 0.078125,
          "durationTicks": 96,
          "midi": 81,
          "name": "A5",
          "ticks": 50976,
          "time": 41.484375,
          "velocity": 0.3937007874015748
        },
        {
          "duration": 0.078125,
          "durationTicks": 96,
          "midi": 77,
          "name": "F5",
          "ticks": 51072,
          "time": 41.5625,
          "velocity": 0.3937007874015748
        },
        {
          "duration": 0.078125,
          "durationTicks": 96,
          "midi": 81,
          "name": "A5",
          "ticks": 51264,
          "time": 41.71875,
          "velocity": 0.3937007874015748
        },
        {
          "duration": 0.078125,
          "durationTicks": 96,
          "midi": 76,
          "name": "E5",
          "ticks": 51456,
          "time": 41.875,
          "velocity": 0.3937007874015748
        },
        {
          "duration": 0.078125,
          "durationTicks": 96,
          "midi": 81,
          "name": "A5",
          "ticks": 51648,
          "time": 42.03125,
          "velocity": 0.3937007874015748
        },
        {
          "duration": 0.078125,
          "durationTicks": 96,
          "midi": 74,
          "name": "D5",
          "ticks": 51840,
          "time": 42.1875,
          "velocity": 0.3937007874015748
        },
        {
          "duration": 0.078125,
          "durationTicks": 96,
          "midi": 81,
          "name": "A5",
          "ticks": 52032,
          "time": 42.34375,
          "velocity": 0.3937007874015748
        },
        {
          "duration": 0.390625,
          "durationTicks": 480,
          "midi": 75,
          "name": "D#5",
          "ticks": 52224,
          "time": 42.5,
          "velocity": 0.3937007874015748
        },
        {
          "duration": 0.078125,
          "durationTicks": 96,
          "midi": 71,
          "name": "B4",
          "ticks": 52800,
          "time": 42.96875,
          "velocity": 0.3937007874015748
        },
        {
          "duration": 0.07893880208334281,
          "durationTicks": 97,
          "midi": 75,
          "name": "D#5",
          "ticks": 52864,
          "time": 43.02083333333333,
          "velocity": 0.3937007874015748
        },
        {
          "duration": 0.0789388020833286,
          "durationTicks": 97,
          "midi": 78,
          "name": "F#5",
          "ticks": 52928,
          "time": 43.07291666666667,
          "velocity": 0.3937007874015748
        },
        {
          "duration": 0.15625,
          "durationTicks": 192,
          "midi": 84,
          "name": "C6",
          "ticks": 52993,
          "time": 43.12581380208333,
          "velocity": 0.3937007874015748
        },
        {
          "duration": 0.15625,
          "durationTicks": 192,
          "midi": 71,
          "name": "B4",
          "ticks": 53185,
          "time": 43.28206380208333,
          "velocity": 0.3937007874015748
        },
        {
          "duration": 0.15625,
          "durationTicks": 192,
          "midi": 83,
          "name": "B5",
          "ticks": 53377,
          "time": 43.43831380208333,
          "velocity": 0.3937007874015748
        },
        {
          "duration": 0.15625,
          "durationTicks": 192,
          "midi": 81,
          "name": "A5",
          "ticks": 53569,
          "time": 43.59456380208333,
          "velocity": 0.3937007874015748
        },
        {
          "duration": 0.078125,
          "durationTicks": 96,
          "midi": 64,
          "name": "E4",
          "ticks": 53761,
          "time": 43.75081380208333,
          "velocity": 0.3937007874015748
        },
        {
          "duration": 0.078125,
          "durationTicks": 96,
          "midi": 68,
          "name": "G#4",
          "ticks": 53857,
          "time": 43.82893880208333,
          "velocity": 0.3937007874015748
        },
        {
          "duration": 0.078125,
          "durationTicks": 96,
          "midi": 71,
          "name": "B4",
          "ticks": 53953,
          "time": 43.90706380208333,
          "velocity": 0.3937007874015748
        },
        {
          "duration": 0.078125,
          "durationTicks": 96,
          "midi": 74,
          "name": "D5",
          "ticks": 54049,
          "time": 43.98518880208333,
          "velocity": 0.3937007874015748
        },
        {
          "duration": 0.078125,
          "durationTicks": 96,
          "midi": 76,
          "name": "E5",
          "ticks": 54145,
          "time": 44.06331380208333,
          "velocity": 0.3937007874015748
        },
        {
          "duration": 0.078125,
          "durationTicks": 96,
          "midi": 80,
          "name": "G#5",
          "ticks": 54241,
          "time": 44.14143880208333,
          "velocity": 0.3937007874015748
        },
        {
          "duration": 0.078125,
          "durationTicks": 96,
          "midi": 83,
          "name": "B5",
          "ticks": 54337,
          "time": 44.21956380208333,
          "velocity": 0.3937007874015748
        },
        {
          "duration": 0.078125,
          "durationTicks": 96,
          "midi": 86,
          "name": "D6",
          "ticks": 54433,
          "time": 44.29768880208333,
          "velocity": 0.3937007874015748
        },
        {
          "duration": 0.078125,
          "durationTicks": 96,
          "midi": 88,
          "name": "E6",
          "ticks": 54529,
          "time": 44.37581380208333,
          "velocity": 0.3937007874015748
        },
        {
          "duration": 0.078125,
          "durationTicks": 96,
          "midi": 83,
          "name": "B5",
          "ticks": 54625,
          "time": 44.45393880208333,
          "velocity": 0.3937007874015748
        },
        {
          "duration": 0.078125,
          "durationTicks": 96,
          "midi": 80,
          "name": "G#5",
          "ticks": 54721,
          "time": 44.53206380208333,
          "velocity": 0.3937007874015748
        },
        {
          "duration": 0.078125,
          "durationTicks": 96,
          "midi": 76,
          "name": "E5",
          "ticks": 54817,
          "time": 44.61018880208333,
          "velocity": 0.3937007874015748
        },
        {
          "duration": 0.078125,
          "durationTicks": 96,
          "midi": 71,
          "name": "B4",
          "ticks": 54913,
          "time": 44.68831380208333,
          "velocity": 0.3937007874015748
        },
        {
          "duration": 0.078125,
          "durationTicks": 96,
          "midi": 68,
          "name": "G#4",
          "ticks": 55009,
          "time": 44.76643880208333,
          "velocity": 0.3937007874015748
        },
        {
          "duration": 0.078125,
          "durationTicks": 96,
          "midi": 64,
          "name": "E4",
          "ticks": 55105,
          "time": 44.84456380208333,
          "velocity": 0.3937007874015748
        },
        {
          "duration": 0.078125,
          "durationTicks": 96,
          "midi": 68,
          "name": "G#4",
          "ticks": 55201,
          "time": 44.92268880208333,
          "velocity": 0.3937007874015748
        }
      ],
      "endOfTrackTicks": 55297
    },
    {
      "channel": 4,
      "controlChanges": {},
      "pitchBends": [],
      "instrument": {
        "family": "piano",
        "number": 0,
        "name": "acoustic grand piano"
      },
      "name": "Grand Piano (Classic)",
      "notes": [
        {
          "duration": 0.234375,
          "durationTicks": 288,
          "midi": 33,
          "name": "A1",
          "ticks": 6144,
          "time": 5,
          "velocity": 0.3937007874015748
        },
        {
          "duration": 0.234375,
          "durationTicks": 288,
          "midi": 33,
          "name": "A1",
          "ticks": 6528,
          "time": 5.3125,
          "velocity": 0.3937007874015748
        },
        {
          "duration": 0.234375,
          "durationTicks": 288,
          "midi": 32,
          "name": "G#1",
          "ticks": 6912,
          "time": 5.625,
          "velocity": 0.3937007874015748
        },
        {
          "duration": 0.234375,
          "durationTicks": 288,
          "midi": 32,
          "name": "G#1",
          "ticks": 7296,
          "time": 5.9375,
          "velocity": 0.3937007874015748
        },
        {
          "duration": 0.234375,
          "durationTicks": 288,
          "midi": 33,
          "name": "A1",
          "ticks": 7680,
          "time": 6.25,
          "velocity": 0.3937007874015748
        },
        {
          "duration": 0.234375,
          "durationTicks": 288,
          "midi": 33,
          "name": "A1",
          "ticks": 8064,
          "time": 6.5625,
          "velocity": 0.3937007874015748
        },
        {
          "duration": 0.234375,
          "durationTicks": 288,
          "midi": 33,
          "name": "A1",
          "ticks": 8448,
          "time": 6.875,
          "velocity": 0.3937007874015748
        },
        {
          "duration": 0.234375,
          "durationTicks": 288,
          "midi": 33,
          "name": "A1",
          "ticks": 8832,
          "time": 7.1875,
          "velocity": 0.3937007874015748
        },
        {
          "duration": 0.234375,
          "durationTicks": 288,
          "midi": 33,
          "name": "A1",
          "ticks": 9216,
          "time": 7.5,
          "velocity": 0.3937007874015748
        },
        {
          "duration": 0.234375,
          "durationTicks": 288,
          "midi": 33,
          "name": "A1",
          "ticks": 9600,
          "time": 7.8125,
          "velocity": 0.3937007874015748
        },
        {
          "duration": 0.234375,
          "durationTicks": 288,
          "midi": 35,
          "name": "B1",
          "ticks": 9984,
          "time": 8.125,
          "velocity": 0.3937007874015748
        },
        {
          "duration": 0.234375,
          "durationTicks": 288,
          "midi": 35,
          "name": "B1",
          "ticks": 10368,
          "time": 8.4375,
          "velocity": 0.3937007874015748
        },
        {
          "duration": 0.234375,
          "durationTicks": 288,
          "midi": 36,
          "name": "C2",
          "ticks": 10752,
          "time": 8.75,
          "velocity": 0.3937007874015748
        },
        {
          "duration": 0.234375,
          "durationTicks": 288,
          "midi": 36,
          "name": "C2",
          "ticks": 11136,
          "time": 9.0625,
          "velocity": 0.3937007874015748
        },
        {
          "duration": 0.234375,
          "durationTicks": 288,
          "midi": 36,
          "name": "C2",
          "ticks": 11520,
          "time": 9.375,
          "velocity": 0.3937007874015748
        },
        {
          "duration": 0.234375,
          "durationTicks": 288,
          "midi": 36,
          "name": "C2",
          "ticks": 11904,
          "time": 9.6875,
          "velocity": 0.3937007874015748
        },
        {
          "duration": 0.234375,
          "durationTicks": 288,
          "midi": 38,
          "name": "D2",
          "ticks": 12288,
          "time": 10,
          "velocity": 0.3937007874015748
        },
        {
          "duration": 0.234375,
          "durationTicks": 288,
          "midi": 38,
          "name": "D2",
          "ticks": 12672,
          "time": 10.3125,
          "velocity": 0.3937007874015748
        },
        {
          "duration": 0.234375,
          "durationTicks": 288,
          "midi": 28,
          "name": "E1",
          "ticks": 13056,
          "time": 10.625,
          "velocity": 0.3937007874015748
        },
        {
          "duration": 0.234375,
          "durationTicks": 288,
          "midi": 28,
          "name": "E1",
          "ticks": 13440,
          "time": 10.9375,
          "velocity": 0.3937007874015748
        },
        {
          "duration": 0.234375,
          "durationTicks": 288,
          "midi": 33,
          "name": "A1",
          "ticks": 13824,
          "time": 11.25,
          "velocity": 0.3937007874015748
        },
        {
          "duration": 0.234375,
          "durationTicks": 288,
          "midi": 33,
          "name": "A1",
          "ticks": 14208,
          "time": 11.5625,
          "velocity": 0.3937007874015748
        },
        {
          "duration": 0.234375,
          "durationTicks": 288,
          "midi": 30,
          "name": "F#1",
          "ticks": 14592,
          "time": 11.875,
          "velocity": 0.3937007874015748
        },
        {
          "duration": 0.234375,
          "durationTicks": 288,
          "midi": 30,
          "name": "F#1",
          "ticks": 14976,
          "time": 12.1875,
          "velocity": 0.3937007874015748
        },
        {
          "duration": 0.234375,
          "durationTicks": 288,
          "midi": 39,
          "name": "D#2",
          "ticks": 15360,
          "time": 12.5,
          "velocity": 0.3937007874015748
        },
        {
          "duration": 0.234375,
          "durationTicks": 288,
          "midi": 39,
          "name": "D#2",
          "ticks": 15744,
          "time": 12.8125,
          "velocity": 0.3937007874015748
        },
        {
          "duration": 0.234375,
          "durationTicks": 288,
          "midi": 40,
          "name": "E2",
          "ticks": 16128,
          "time": 13.125,
          "velocity": 0.3937007874015748
        },
        {
          "duration": 0.234375,
          "durationTicks": 288,
          "midi": 40,
          "name": "E2",
          "ticks": 16512,
          "time": 13.4375,
          "velocity": 0.3937007874015748
        },
        {
          "duration": 0.234375,
          "durationTicks": 288,
          "midi": 33,
          "name": "A1",
          "ticks": 16896,
          "time": 13.75,
          "velocity": 0.3937007874015748
        },
        {
          "duration": 0.234375,
          "durationTicks": 288,
          "midi": 33,
          "name": "A1",
          "ticks": 17280,
          "time": 14.0625,
          "velocity": 0.3937007874015748
        },
        {
          "duration": 0.234375,
          "durationTicks": 288,
          "midi": 33,
          "name": "A1",
          "ticks": 17664,
          "time": 14.375,
          "velocity": 0.3937007874015748
        },
        {
          "duration": 0.234375,
          "durationTicks": 288,
          "midi": 33,
          "name": "A1",
          "ticks": 18048,
          "time": 14.6875,
          "velocity": 0.3937007874015748
        },
        {
          "duration": 0.234375,
          "durationTicks": 288,
          "midi": 33,
          "name": "A1",
          "ticks": 18432,
          "time": 15,
          "velocity": 0.3937007874015748
        },
        {
          "duration": 0.234375,
          "durationTicks": 288,
          "midi": 33,
          "name": "A1",
          "ticks": 18816,
          "time": 15.3125,
          "velocity": 0.3937007874015748
        },
        {
          "duration": 0.234375,
          "durationTicks": 288,
          "midi": 32,
          "name": "G#1",
          "ticks": 19200,
          "time": 15.625,
          "velocity": 0.3937007874015748
        },
        {
          "duration": 0.234375,
          "durationTicks": 288,
          "midi": 32,
          "name": "G#1",
          "ticks": 19584,
          "time": 15.9375,
          "velocity": 0.3937007874015748
        },
        {
          "duration": 0.234375,
          "durationTicks": 288,
          "midi": 33,
          "name": "A1",
          "ticks": 19968,
          "time": 16.25,
          "velocity": 0.3937007874015748
        },
        {
          "duration": 0.234375,
          "durationTicks": 288,
          "midi": 33,
          "name": "A1",
          "ticks": 20352,
          "time": 16.5625,
          "velocity": 0.3937007874015748
        },
        {
          "duration": 0.234375,
          "durationTicks": 288,
          "midi": 33,
          "name": "A1",
          "ticks": 20736,
          "time": 16.875,
          "velocity": 0.3937007874015748
        },
        {
          "duration": 0.234375,
          "durationTicks": 288,
          "midi": 33,
          "name": "A1",
          "ticks": 21120,
          "time": 17.1875,
          "velocity": 0.3937007874015748
        },
        {
          "duration": 0.234375,
          "durationTicks": 288,
          "midi": 33,
          "name": "A1",
          "ticks": 21504,
          "time": 17.5,
          "velocity": 0.3937007874015748
        },
        {
          "duration": 0.234375,
          "durationTicks": 288,
          "midi": 33,
          "name": "A1",
          "ticks": 21888,
          "time": 17.8125,
          "velocity": 0.3937007874015748
        },
        {
          "duration": 0.234375,
          "durationTicks": 288,
          "midi": 35,
          "name": "B1",
          "ticks": 22272,
          "time": 18.125,
          "velocity": 0.3937007874015748
        },
        {
          "duration": 0.234375,
          "durationTicks": 288,
          "midi": 35,
          "name": "B1",
          "ticks": 22656,
          "time": 18.4375,
          "velocity": 0.3937007874015748
        },
        {
          "duration": 0.234375,
          "durationTicks": 288,
          "midi": 36,
          "name": "C2",
          "ticks": 23040,
          "time": 18.75,
          "velocity": 0.3937007874015748
        },
        {
          "duration": 0.234375,
          "durationTicks": 288,
          "midi": 36,
          "name": "C2",
          "ticks": 23424,
          "time": 19.0625,
          "velocity": 0.3937007874015748
        },
        {
          "duration": 0.234375,
          "durationTicks": 288,
          "midi": 36,
          "name": "C2",
          "ticks": 23808,
          "time": 19.375,
          "velocity": 0.3937007874015748
        },
        {
          "duration": 0.234375,
          "durationTicks": 288,
          "midi": 36,
          "name": "C2",
          "ticks": 24192,
          "time": 19.6875,
          "velocity": 0.3937007874015748
        },
        {
          "duration": 0.234375,
          "durationTicks": 288,
          "midi": 38,
          "name": "D2",
          "ticks": 24576,
          "time": 20,
          "velocity": 0.3937007874015748
        },
        {
          "duration": 0.234375,
          "durationTicks": 288,
          "midi": 38,
          "name": "D2",
          "ticks": 24960,
          "time": 20.3125,
          "velocity": 0.3937007874015748
        },
        {
          "duration": 0.234375,
          "durationTicks": 288,
          "midi": 28,
          "name": "E1",
          "ticks": 25344,
          "time": 20.625,
          "velocity": 0.3937007874015748
        },
        {
          "duration": 0.234375,
          "durationTicks": 288,
          "midi": 28,
          "name": "E1",
          "ticks": 25728,
          "time": 20.9375,
          "velocity": 0.3937007874015748
        },
        {
          "duration": 0.234375,
          "durationTicks": 288,
          "midi": 33,
          "name": "A1",
          "ticks": 26112,
          "time": 21.25,
          "velocity": 0.3937007874015748
        },
        {
          "duration": 0.234375,
          "durationTicks": 288,
          "midi": 33,
          "name": "A1",
          "ticks": 26496,
          "time": 21.5625,
          "velocity": 0.3937007874015748
        },
        {
          "duration": 0.234375,
          "durationTicks": 288,
          "midi": 30,
          "name": "F#1",
          "ticks": 26880,
          "time": 21.875,
          "velocity": 0.3937007874015748
        },
        {
          "duration": 0.234375,
          "durationTicks": 288,
          "midi": 30,
          "name": "F#1",
          "ticks": 27264,
          "time": 22.1875,
          "velocity": 0.3937007874015748
        },
        {
          "duration": 0.234375,
          "durationTicks": 288,
          "midi": 39,
          "name": "D#2",
          "ticks": 27648,
          "time": 22.5,
          "velocity": 0.3937007874015748
        },
        {
          "duration": 0.234375,
          "durationTicks": 288,
          "midi": 39,
          "name": "D#2",
          "ticks": 28032,
          "time": 22.8125,
          "velocity": 0.3937007874015748
        },
        {
          "duration": 0.234375,
          "durationTicks": 288,
          "midi": 40,
          "name": "E2",
          "ticks": 28416,
          "time": 23.125,
          "velocity": 0.3937007874015748
        },
        {
          "duration": 0.234375,
          "durationTicks": 288,
          "midi": 40,
          "name": "E2",
          "ticks": 28800,
          "time": 23.4375,
          "velocity": 0.3937007874015748
        },
        {
          "duration": 0.234375,
          "durationTicks": 288,
          "midi": 33,
          "name": "A1",
          "ticks": 29184,
          "time": 23.75,
          "velocity": 0.3937007874015748
        },
        {
          "duration": 0.234375,
          "durationTicks": 288,
          "midi": 33,
          "name": "A1",
          "ticks": 29568,
          "time": 24.0625,
          "velocity": 0.3937007874015748
        },
        {
          "duration": 0.234375,
          "durationTicks": 288,
          "midi": 33,
          "name": "A1",
          "ticks": 29952,
          "time": 24.375,
          "velocity": 0.3937007874015748
        },
        {
          "duration": 0.234375,
          "durationTicks": 288,
          "midi": 33,
          "name": "A1",
          "ticks": 30336,
          "time": 24.6875,
          "velocity": 0.3937007874015748
        },
        {
          "duration": 0.234375,
          "durationTicks": 288,
          "midi": 28,
          "name": "E1",
          "ticks": 30720,
          "time": 25,
          "velocity": 0.3937007874015748
        },
        {
          "duration": 0.234375,
          "durationTicks": 288,
          "midi": 28,
          "name": "E1",
          "ticks": 31104,
          "time": 25.3125,
          "velocity": 0.3937007874015748
        },
        {
          "duration": 0.234375,
          "durationTicks": 288,
          "midi": 32,
          "name": "G#1",
          "ticks": 31488,
          "time": 25.625,
          "velocity": 0.3937007874015748
        },
        {
          "duration": 0.234375,
          "durationTicks": 288,
          "midi": 32,
          "name": "G#1",
          "ticks": 31872,
          "time": 25.9375,
          "velocity": 0.3937007874015748
        },
        {
          "duration": 0.234375,
          "durationTicks": 288,
          "midi": 33,
          "name": "A1",
          "ticks": 32256,
          "time": 26.25,
          "velocity": 0.3937007874015748
        },
        {
          "duration": 0.234375,
          "durationTicks": 288,
          "midi": 33,
          "name": "A1",
          "ticks": 32640,
          "time": 26.5625,
          "velocity": 0.3937007874015748
        },
        {
          "duration": 0.234375,
          "durationTicks": 288,
          "midi": 33,
          "name": "A1",
          "ticks": 33024,
          "time": 26.875,
          "velocity": 0.3937007874015748
        },
        {
          "duration": 0.234375,
          "durationTicks": 288,
          "midi": 33,
          "name": "A1",
          "ticks": 33408,
          "time": 27.1875,
          "velocity": 0.3937007874015748
        },
        {
          "duration": 0.234375,
          "durationTicks": 288,
          "midi": 31,
          "name": "G1",
          "ticks": 33792,
          "time": 27.5,
          "velocity": 0.3937007874015748
        },
        {
          "duration": 0.234375,
          "durationTicks": 288,
          "midi": 31,
          "name": "G1",
          "ticks": 34176,
          "time": 27.8125,
          "velocity": 0.3937007874015748
        },
        {
          "duration": 0.234375,
          "durationTicks": 288,
          "midi": 35,
          "name": "B1",
          "ticks": 34560,
          "time": 28.125,
          "velocity": 0.3937007874015748
        },
        {
          "duration": 0.234375,
          "durationTicks": 288,
          "midi": 35,
          "name": "B1",
          "ticks": 34944,
          "time": 28.4375,
          "velocity": 0.3937007874015748
        },
        {
          "duration": 0.234375,
          "durationTicks": 288,
          "midi": 36,
          "name": "C2",
          "ticks": 35328,
          "time": 28.75,
          "velocity": 0.3937007874015748
        },
        {
          "duration": 0.234375,
          "durationTicks": 288,
          "midi": 36,
          "name": "C2",
          "ticks": 35712,
          "time": 29.0625,
          "velocity": 0.3937007874015748
        },
        {
          "duration": 0.234375,
          "durationTicks": 288,
          "midi": 36,
          "name": "C2",
          "ticks": 36096,
          "time": 29.375,
          "velocity": 0.3937007874015748
        },
        {
          "duration": 0.234375,
          "durationTicks": 288,
          "midi": 36,
          "name": "C2",
          "ticks": 36480,
          "time": 29.6875,
          "velocity": 0.3937007874015748
        },
        {
          "duration": 0.234375,
          "durationTicks": 288,
          "midi": 33,
          "name": "A1",
          "ticks": 36864,
          "time": 30,
          "velocity": 0.3937007874015748
        },
        {
          "duration": 0.234375,
          "durationTicks": 288,
          "midi": 33,
          "name": "A1",
          "ticks": 37248,
          "time": 30.3125,
          "velocity": 0.3937007874015748
        },
        {
          "duration": 0.234375,
          "durationTicks": 288,
          "midi": 37,
          "name": "C#2",
          "ticks": 37632,
          "time": 30.625,
          "velocity": 0.3937007874015748
        },
        {
          "duration": 0.234375,
          "durationTicks": 288,
          "midi": 37,
          "name": "C#2",
          "ticks": 38016,
          "time": 30.9375,
          "velocity": 0.3937007874015748
        },
        {
          "duration": 0.234375,
          "durationTicks": 288,
          "midi": 38,
          "name": "D2",
          "ticks": 38400,
          "time": 31.25,
          "velocity": 0.3937007874015748
        },
        {
          "duration": 0.234375,
          "durationTicks": 288,
          "midi": 38,
          "name": "D2",
          "ticks": 38784,
          "time": 31.5625,
          "velocity": 0.3937007874015748
        },
        {
          "duration": 0.234375,
          "durationTicks": 288,
          "midi": 36,
          "name": "C2",
          "ticks": 39168,
          "time": 31.875,
          "velocity": 0.3937007874015748
        },
        {
          "duration": 0.234375,
          "durationTicks": 288,
          "midi": 36,
          "name": "C2",
          "ticks": 39552,
          "time": 32.1875,
          "velocity": 0.3937007874015748
        },
        {
          "duration": 0.234375,
          "durationTicks": 288,
          "midi": 35,
          "name": "B1",
          "ticks": 39936,
          "time": 32.5,
          "velocity": 0.3937007874015748
        },
        {
          "duration": 0.234375,
          "durationTicks": 288,
          "midi": 35,
          "name": "B1",
          "ticks": 40320,
          "time": 32.8125,
          "velocity": 0.3937007874015748
        },
        {
          "duration": 0.234375,
          "durationTicks": 288,
          "midi": 39,
          "name": "D#2",
          "ticks": 40704,
          "time": 33.125,
          "velocity": 0.3937007874015748
        },
        {
          "duration": 0.234375,
          "durationTicks": 288,
          "midi": 39,
          "name": "D#2",
          "ticks": 41088,
          "time": 33.4375,
          "velocity": 0.3937007874015748
        },
        {
          "duration": 0.234375,
          "durationTicks": 288,
          "midi": 40,
          "name": "E2",
          "ticks": 41472,
          "time": 33.75,
          "velocity": 0.3937007874015748
        },
        {
          "duration": 0.234375,
          "durationTicks": 288,
          "midi": 40,
          "name": "E2",
          "ticks": 41856,
          "time": 34.0625,
          "velocity": 0.3937007874015748
        },
        {
          "duration": 0.234375,
          "durationTicks": 288,
          "midi": 40,
          "name": "E2",
          "ticks": 42240,
          "time": 34.375,
          "velocity": 0.3937007874015748
        },
        {
          "duration": 0.234375,
          "durationTicks": 288,
          "midi": 40,
          "name": "E2",
          "ticks": 42624,
          "time": 34.6875,
          "velocity": 0.3937007874015748
        },
        {
          "duration": 0.234375,
          "durationTicks": 288,
          "midi": 28,
          "name": "E1",
          "ticks": 43008,
          "time": 35,
          "velocity": 0.3937007874015748
        },
        {
          "duration": 0.234375,
          "durationTicks": 288,
          "midi": 28,
          "name": "E1",
          "ticks": 43392,
          "time": 35.3125,
          "velocity": 0.3937007874015748
        },
        {
          "duration": 0.234375,
          "durationTicks": 288,
          "midi": 32,
          "name": "G#1",
          "ticks": 43776,
          "time": 35.625,
          "velocity": 0.3937007874015748
        },
        {
          "duration": 0.234375,
          "durationTicks": 288,
          "midi": 32,
          "name": "G#1",
          "ticks": 44160,
          "time": 35.9375,
          "velocity": 0.3937007874015748
        },
        {
          "duration": 0.234375,
          "durationTicks": 288,
          "midi": 33,
          "name": "A1",
          "ticks": 44544,
          "time": 36.25,
          "velocity": 0.3937007874015748
        },
        {
          "duration": 0.234375,
          "durationTicks": 288,
          "midi": 33,
          "name": "A1",
          "ticks": 44928,
          "time": 36.5625,
          "velocity": 0.3937007874015748
        },
        {
          "duration": 0.234375,
          "durationTicks": 288,
          "midi": 33,
          "name": "A1",
          "ticks": 45312,
          "time": 36.875,
          "velocity": 0.3937007874015748
        },
        {
          "duration": 0.234375,
          "durationTicks": 288,
          "midi": 33,
          "name": "A1",
          "ticks": 45696,
          "time": 37.1875,
          "velocity": 0.3937007874015748
        },
        {
          "duration": 0.234375,
          "durationTicks": 288,
          "midi": 31,
          "name": "G1",
          "ticks": 46080,
          "time": 37.5,
          "velocity": 0.3937007874015748
        },
        {
          "duration": 0.234375,
          "durationTicks": 288,
          "midi": 31,
          "name": "G1",
          "ticks": 46464,
          "time": 37.8125,
          "velocity": 0.3937007874015748
        },
        {
          "duration": 0.234375,
          "durationTicks": 288,
          "midi": 35,
          "name": "B1",
          "ticks": 46848,
          "time": 38.125,
          "velocity": 0.3937007874015748
        },
        {
          "duration": 0.234375,
          "durationTicks": 288,
          "midi": 35,
          "name": "B1",
          "ticks": 47232,
          "time": 38.4375,
          "velocity": 0.3937007874015748
        },
        {
          "duration": 0.234375,
          "durationTicks": 288,
          "midi": 36,
          "name": "C2",
          "ticks": 47616,
          "time": 38.75,
          "velocity": 0.3937007874015748
        },
        {
          "duration": 0.234375,
          "durationTicks": 288,
          "midi": 36,
          "name": "C2",
          "ticks": 48000,
          "time": 39.0625,
          "velocity": 0.3937007874015748
        },
        {
          "duration": 0.234375,
          "durationTicks": 288,
          "midi": 36,
          "name": "C2",
          "ticks": 48384,
          "time": 39.375,
          "velocity": 0.3937007874015748
        },
        {
          "duration": 0.234375,
          "durationTicks": 288,
          "midi": 36,
          "name": "C2",
          "ticks": 48768,
          "time": 39.6875,
          "velocity": 0.3937007874015748
        },
        {
          "duration": 0.234375,
          "durationTicks": 288,
          "midi": 33,
          "name": "A1",
          "ticks": 49152,
          "time": 40,
          "velocity": 0.3937007874015748
        },
        {
          "duration": 0.234375,
          "durationTicks": 288,
          "midi": 33,
          "name": "A1",
          "ticks": 49536,
          "time": 40.3125,
          "velocity": 0.3937007874015748
        },
        {
          "duration": 0.234375,
          "durationTicks": 288,
          "midi": 37,
          "name": "C#2",
          "ticks": 49920,
          "time": 40.625,
          "velocity": 0.3937007874015748
        },
        {
          "duration": 0.234375,
          "durationTicks": 288,
          "midi": 37,
          "name": "C#2",
          "ticks": 50304,
          "time": 40.9375,
          "velocity": 0.3937007874015748
        },
        {
          "duration": 0.234375,
          "durationTicks": 288,
          "midi": 38,
          "name": "D2",
          "ticks": 50688,
          "time": 41.25,
          "velocity": 0.3937007874015748
        },
        {
          "duration": 0.234375,
          "durationTicks": 288,
          "midi": 38,
          "name": "D2",
          "ticks": 51072,
          "time": 41.5625,
          "velocity": 0.3937007874015748
        },
        {
          "duration": 0.234375,
          "durationTicks": 288,
          "midi": 36,
          "name": "C2",
          "ticks": 51456,
          "time": 41.875,
          "velocity": 0.3937007874015748
        },
        {
          "duration": 0.234375,
          "durationTicks": 288,
          "midi": 36,
          "name": "C2",
          "ticks": 51840,
          "time": 42.1875,
          "velocity": 0.3937007874015748
        },
        {
          "duration": 0.234375,
          "durationTicks": 288,
          "midi": 35,
          "name": "B1",
          "ticks": 52224,
          "time": 42.5,
          "velocity": 0.3937007874015748
        },
        {
          "duration": 0.234375,
          "durationTicks": 288,
          "midi": 35,
          "name": "B1",
          "ticks": 52608,
          "time": 42.8125,
          "velocity": 0.3937007874015748
        },
        {
          "duration": 0.234375,
          "durationTicks": 288,
          "midi": 39,
          "name": "D#2",
          "ticks": 52992,
          "time": 43.125,
          "velocity": 0.3937007874015748
        },
        {
          "duration": 0.234375,
          "durationTicks": 288,
          "midi": 39,
          "name": "D#2",
          "ticks": 53376,
          "time": 43.4375,
          "velocity": 0.3937007874015748
        },
        {
          "duration": 0.234375,
          "durationTicks": 288,
          "midi": 40,
          "name": "E2",
          "ticks": 53760,
          "time": 43.75,
          "velocity": 0.3937007874015748
        },
        {
          "duration": 0.234375,
          "durationTicks": 288,
          "midi": 40,
          "name": "E2",
          "ticks": 54144,
          "time": 44.0625,
          "velocity": 0.3937007874015748
        },
        {
          "duration": 0.234375,
          "durationTicks": 288,
          "midi": 40,
          "name": "E2",
          "ticks": 54528,
          "time": 44.375,
          "velocity": 0.3937007874015748
        },
        {
          "duration": 0.234375,
          "durationTicks": 288,
          "midi": 40,
          "name": "E2",
          "ticks": 54912,
          "time": 44.6875,
          "velocity": 0.3937007874015748
        },
        {
          "duration": 0.234375,
          "durationTicks": 288,
          "midi": 38,
          "name": "D2",
          "ticks": 67584,
          "time": 55,
          "velocity": 0.3937007874015748
        },
        {
          "duration": 0.234375,
          "durationTicks": 288,
          "midi": 38,
          "name": "D2",
          "ticks": 67968,
          "time": 55.3125,
          "velocity": 0.3937007874015748
        },
        {
          "duration": 0.234375,
          "durationTicks": 288,
          "midi": 31,
          "name": "G1",
          "ticks": 68352,
          "time": 55.625,
          "velocity": 0.3937007874015748
        },
        {
          "duration": 0.234375,
          "durationTicks": 288,
          "midi": 31,
          "name": "G1",
          "ticks": 68736,
          "time": 55.9375,
          "velocity": 0.3937007874015748
        },
        {
          "duration": 0.234375,
          "durationTicks": 288,
          "midi": 36,
          "name": "C2",
          "ticks": 69120,
          "time": 56.25,
          "velocity": 0.3937007874015748
        },
        {
          "duration": 0.234375,
          "durationTicks": 288,
          "midi": 36,
          "name": "C2",
          "ticks": 69504,
          "time": 56.5625,
          "velocity": 0.3937007874015748
        },
        {
          "duration": 0.234375,
          "durationTicks": 288,
          "midi": 35,
          "name": "B1",
          "ticks": 69888,
          "time": 56.875,
          "velocity": 0.3937007874015748
        },
        {
          "duration": 0.234375,
          "durationTicks": 288,
          "midi": 35,
          "name": "B1",
          "ticks": 70272,
          "time": 57.1875,
          "velocity": 0.3937007874015748
        },
        {
          "duration": 0.234375,
          "durationTicks": 288,
          "midi": 36,
          "name": "C2",
          "ticks": 70656,
          "time": 57.5,
          "velocity": 0.3937007874015748
        },
        {
          "duration": 0.234375,
          "durationTicks": 288,
          "midi": 36,
          "name": "C2",
          "ticks": 71040,
          "time": 57.8125,
          "velocity": 0.3937007874015748
        },
        {
          "duration": 0.234375,
          "durationTicks": 288,
          "midi": 36,
          "name": "C2",
          "ticks": 71424,
          "time": 58.125,
          "velocity": 0.3937007874015748
        },
        {
          "duration": 0.234375,
          "durationTicks": 288,
          "midi": 36,
          "name": "C2",
          "ticks": 71808,
          "time": 58.4375,
          "velocity": 0.3937007874015748
        },
        {
          "duration": 0.234375,
          "durationTicks": 288,
          "midi": 36,
          "name": "C2",
          "ticks": 72192,
          "time": 58.75,
          "velocity": 0.3937007874015748
        },
        {
          "duration": 0.234375,
          "durationTicks": 288,
          "midi": 36,
          "name": "C2",
          "ticks": 72576,
          "time": 59.0625,
          "velocity": 0.3937007874015748
        },
        {
          "duration": 0.234375,
          "durationTicks": 288,
          "midi": 38,
          "name": "D2",
          "ticks": 72960,
          "time": 59.375,
          "velocity": 0.3937007874015748
        },
        {
          "duration": 0.234375,
          "durationTicks": 288,
          "midi": 38,
          "name": "D2",
          "ticks": 73344,
          "time": 59.6875,
          "velocity": 0.3937007874015748
        },
        {
          "duration": 0.234375,
          "durationTicks": 288,
          "midi": 39,
          "name": "D#2",
          "ticks": 73728,
          "time": 60,
          "velocity": 0.3937007874015748
        },
        {
          "duration": 0.234375,
          "durationTicks": 288,
          "midi": 39,
          "name": "D#2",
          "ticks": 74112,
          "time": 60.3125,
          "velocity": 0.3937007874015748
        },
        {
          "duration": 0.234375,
          "durationTicks": 288,
          "midi": 39,
          "name": "D#2",
          "ticks": 74496,
          "time": 60.625,
          "velocity": 0.3937007874015748
        },
        {
          "duration": 0.234375,
          "durationTicks": 288,
          "midi": 39,
          "name": "D#2",
          "ticks": 74880,
          "time": 60.9375,
          "velocity": 0.3937007874015748
        },
        {
          "duration": 0.234375,
          "durationTicks": 288,
          "midi": 41,
          "name": "F2",
          "ticks": 75264,
          "time": 61.25,
          "velocity": 0.3937007874015748
        },
        {
          "duration": 0.234375,
          "durationTicks": 288,
          "midi": 41,
          "name": "F2",
          "ticks": 75648,
          "time": 61.5625,
          "velocity": 0.3937007874015748
        },
        {
          "duration": 0.234375,
          "durationTicks": 288,
          "midi": 31,
          "name": "G1",
          "ticks": 76032,
          "time": 61.875,
          "velocity": 0.3937007874015748
        },
        {
          "duration": 0.234375,
          "durationTicks": 288,
          "midi": 31,
          "name": "G1",
          "ticks": 76416,
          "time": 62.1875,
          "velocity": 0.3937007874015748
        },
        {
          "duration": 0.234375,
          "durationTicks": 288,
          "midi": 36,
          "name": "C2",
          "ticks": 76800,
          "time": 62.5,
          "velocity": 0.3937007874015748
        },
        {
          "duration": 0.234375,
          "durationTicks": 288,
          "midi": 36,
          "name": "C2",
          "ticks": 77184,
          "time": 62.8125,
          "velocity": 0.3937007874015748
        },
        {
          "duration": 0.234375,
          "durationTicks": 288,
          "midi": 33,
          "name": "A1",
          "ticks": 77568,
          "time": 63.125,
          "velocity": 0.3937007874015748
        },
        {
          "duration": 0.234375,
          "durationTicks": 288,
          "midi": 33,
          "name": "A1",
          "ticks": 77952,
          "time": 63.4375,
          "velocity": 0.3937007874015748
        },
        {
          "duration": 0.234375,
          "durationTicks": 288,
          "midi": 42,
          "name": "F#2",
          "ticks": 78336,
          "time": 63.75,
          "velocity": 0.3937007874015748
        },
        {
          "duration": 0.234375,
          "durationTicks": 288,
          "midi": 42,
          "name": "F#2",
          "ticks": 78720,
          "time": 64.0625,
          "velocity": 0.3937007874015748
        },
        {
          "duration": 0.234375,
          "durationTicks": 288,
          "midi": 43,
          "name": "G2",
          "ticks": 79104,
          "time": 64.375,
          "velocity": 0.3937007874015748
        },
        {
          "duration": 0.234375,
          "durationTicks": 288,
          "midi": 43,
          "name": "G2",
          "ticks": 79488,
          "time": 64.6875,
          "velocity": 0.3937007874015748
        },
        {
          "duration": 0.234375,
          "durationTicks": 288,
          "midi": 36,
          "name": "C2",
          "ticks": 79872,
          "time": 65,
          "velocity": 0.3937007874015748
        },
        {
          "duration": 0.234375,
          "durationTicks": 288,
          "midi": 36,
          "name": "C2",
          "ticks": 80256,
          "time": 65.3125,
          "velocity": 0.3937007874015748
        },
        {
          "duration": 0.234375,
          "durationTicks": 288,
          "midi": 36,
          "name": "C2",
          "ticks": 80640,
          "time": 65.625,
          "velocity": 0.3937007874015748
        },
        {
          "duration": 0.234375,
          "durationTicks": 288,
          "midi": 36,
          "name": "C2",
          "ticks": 81024,
          "time": 65.9375,
          "velocity": 0.3937007874015748
        },
        {
          "duration": 0.234375,
          "durationTicks": 288,
          "midi": 36,
          "name": "C2",
          "ticks": 81408,
          "time": 66.25,
          "velocity": 0.3937007874015748
        },
        {
          "duration": 0.234375,
          "durationTicks": 288,
          "midi": 36,
          "name": "C2",
          "ticks": 81792,
          "time": 66.5625,
          "velocity": 0.3937007874015748
        },
        {
          "duration": 0.234375,
          "durationTicks": 288,
          "midi": 35,
          "name": "B1",
          "ticks": 82176,
          "time": 66.875,
          "velocity": 0.3937007874015748
        },
        {
          "duration": 0.234375,
          "durationTicks": 288,
          "midi": 35,
          "name": "B1",
          "ticks": 82560,
          "time": 67.1875,
          "velocity": 0.3937007874015748
        },
        {
          "duration": 0.234375,
          "durationTicks": 288,
          "midi": 36,
          "name": "C2",
          "ticks": 82944,
          "time": 67.5,
          "velocity": 0.3937007874015748
        },
        {
          "duration": 0.234375,
          "durationTicks": 288,
          "midi": 36,
          "name": "C2",
          "ticks": 83328,
          "time": 67.8125,
          "velocity": 0.3937007874015748
        },
        {
          "duration": 0.234375,
          "durationTicks": 288,
          "midi": 36,
          "name": "C2",
          "ticks": 83712,
          "time": 68.125,
          "velocity": 0.3937007874015748
        },
        {
          "duration": 0.234375,
          "durationTicks": 288,
          "midi": 36,
          "name": "C2",
          "ticks": 84096,
          "time": 68.4375,
          "velocity": 0.3937007874015748
        },
        {
          "duration": 0.234375,
          "durationTicks": 288,
          "midi": 36,
          "name": "C2",
          "ticks": 84480,
          "time": 68.75,
          "velocity": 0.3937007874015748
        },
        {
          "duration": 0.234375,
          "durationTicks": 288,
          "midi": 36,
          "name": "C2",
          "ticks": 84864,
          "time": 69.0625,
          "velocity": 0.3937007874015748
        },
        {
          "duration": 0.234375,
          "durationTicks": 288,
          "midi": 38,
          "name": "D2",
          "ticks": 85248,
          "time": 69.375,
          "velocity": 0.3937007874015748
        },
        {
          "duration": 0.234375,
          "durationTicks": 288,
          "midi": 38,
          "name": "D2",
          "ticks": 85632,
          "time": 69.6875,
          "velocity": 0.3937007874015748
        },
        {
          "duration": 0.234375,
          "durationTicks": 288,
          "midi": 39,
          "name": "D#2",
          "ticks": 86016,
          "time": 70,
          "velocity": 0.3937007874015748
        },
        {
          "duration": 0.234375,
          "durationTicks": 288,
          "midi": 39,
          "name": "D#2",
          "ticks": 86400,
          "time": 70.3125,
          "velocity": 0.3937007874015748
        },
        {
          "duration": 0.234375,
          "durationTicks": 288,
          "midi": 39,
          "name": "D#2",
          "ticks": 86784,
          "time": 70.625,
          "velocity": 0.3937007874015748
        },
        {
          "duration": 0.234375,
          "durationTicks": 288,
          "midi": 39,
          "name": "D#2",
          "ticks": 87168,
          "time": 70.9375,
          "velocity": 0.3937007874015748
        },
        {
          "duration": 0.234375,
          "durationTicks": 288,
          "midi": 41,
          "name": "F2",
          "ticks": 87552,
          "time": 71.25,
          "velocity": 0.3937007874015748
        },
        {
          "duration": 0.234375,
          "durationTicks": 288,
          "midi": 41,
          "name": "F2",
          "ticks": 87936,
          "time": 71.5625,
          "velocity": 0.3937007874015748
        },
        {
          "duration": 0.234375,
          "durationTicks": 288,
          "midi": 31,
          "name": "G1",
          "ticks": 88320,
          "time": 71.875,
          "velocity": 0.3937007874015748
        },
        {
          "duration": 0.234375,
          "durationTicks": 288,
          "midi": 31,
          "name": "G1",
          "ticks": 88704,
          "time": 72.1875,
          "velocity": 0.3937007874015748
        },
        {
          "duration": 0.234375,
          "durationTicks": 288,
          "midi": 36,
          "name": "C2",
          "ticks": 89088,
          "time": 72.5,
          "velocity": 0.3937007874015748
        },
        {
          "duration": 0.234375,
          "durationTicks": 288,
          "midi": 36,
          "name": "C2",
          "ticks": 89472,
          "time": 72.8125,
          "velocity": 0.3937007874015748
        },
        {
          "duration": 0.234375,
          "durationTicks": 288,
          "midi": 33,
          "name": "A1",
          "ticks": 89856,
          "time": 73.125,
          "velocity": 0.3937007874015748
        },
        {
          "duration": 0.234375,
          "durationTicks": 288,
          "midi": 33,
          "name": "A1",
          "ticks": 90240,
          "time": 73.4375,
          "velocity": 0.3937007874015748
        },
        {
          "duration": 0.234375,
          "durationTicks": 288,
          "midi": 42,
          "name": "F#2",
          "ticks": 90624,
          "time": 73.75,
          "velocity": 0.3937007874015748
        },
        {
          "duration": 0.234375,
          "durationTicks": 288,
          "midi": 42,
          "name": "F#2",
          "ticks": 91008,
          "time": 74.0625,
          "velocity": 0.3937007874015748
        },
        {
          "duration": 0.234375,
          "durationTicks": 288,
          "midi": 43,
          "name": "G2",
          "ticks": 91392,
          "time": 74.375,
          "velocity": 0.3937007874015748
        },
        {
          "duration": 0.234375,
          "durationTicks": 288,
          "midi": 43,
          "name": "G2",
          "ticks": 91776,
          "time": 74.6875,
          "velocity": 0.3937007874015748
        },
        {
          "duration": 0.234375,
          "durationTicks": 288,
          "midi": 36,
          "name": "C2",
          "ticks": 92160,
          "time": 75,
          "velocity": 0.3937007874015748
        },
        {
          "duration": 0.234375,
          "durationTicks": 288,
          "midi": 36,
          "name": "C2",
          "ticks": 92544,
          "time": 75.3125,
          "velocity": 0.3937007874015748
        },
        {
          "duration": 0.234375,
          "durationTicks": 288,
          "midi": 36,
          "name": "C2",
          "ticks": 92928,
          "time": 75.625,
          "velocity": 0.3937007874015748
        },
        {
          "duration": 0.234375,
          "durationTicks": 288,
          "midi": 36,
          "name": "C2",
          "ticks": 93312,
          "time": 75.9375,
          "velocity": 0.3937007874015748
        },
        {
          "duration": 0.234375,
          "durationTicks": 288,
          "midi": 41,
          "name": "F2",
          "ticks": 93696,
          "time": 76.25,
          "velocity": 0.3937007874015748
        },
        {
          "duration": 0.234375,
          "durationTicks": 288,
          "midi": 41,
          "name": "F2",
          "ticks": 94080,
          "time": 76.5625,
          "velocity": 0.3937007874015748
        },
        {
          "duration": 0.234375,
          "durationTicks": 288,
          "midi": 31,
          "name": "G1",
          "ticks": 94464,
          "time": 76.875,
          "velocity": 0.3937007874015748
        },
        {
          "duration": 0.234375,
          "durationTicks": 288,
          "midi": 31,
          "name": "G1",
          "ticks": 94848,
          "time": 77.1875,
          "velocity": 0.3937007874015748
        },
        {
          "duration": 0.234375,
          "durationTicks": 288,
          "midi": 36,
          "name": "C2",
          "ticks": 95232,
          "time": 77.5,
          "velocity": 0.3937007874015748
        },
        {
          "duration": 0.234375,
          "durationTicks": 288,
          "midi": 36,
          "name": "C2",
          "ticks": 95616,
          "time": 77.8125,
          "velocity": 0.3937007874015748
        },
        {
          "duration": 0.234375,
          "durationTicks": 288,
          "midi": 33,
          "name": "A1",
          "ticks": 96000,
          "time": 78.125,
          "velocity": 0.3937007874015748
        },
        {
          "duration": 0.234375,
          "durationTicks": 288,
          "midi": 33,
          "name": "A1",
          "ticks": 96384,
          "time": 78.4375,
          "velocity": 0.3937007874015748
        },
        {
          "duration": 0.234375,
          "durationTicks": 288,
          "midi": 42,
          "name": "F#2",
          "ticks": 96768,
          "time": 78.75,
          "velocity": 0.3937007874015748
        },
        {
          "duration": 0.234375,
          "durationTicks": 288,
          "midi": 42,
          "name": "F#2",
          "ticks": 97152,
          "time": 79.0625,
          "velocity": 0.3937007874015748
        },
        {
          "duration": 0.234375,
          "durationTicks": 288,
          "midi": 43,
          "name": "G2",
          "ticks": 97536,
          "time": 79.375,
          "velocity": 0.3937007874015748
        },
        {
          "duration": 0.234375,
          "durationTicks": 288,
          "midi": 43,
          "name": "G2",
          "ticks": 97920,
          "time": 79.6875,
          "velocity": 0.3937007874015748
        },
        {
          "duration": 0.234375,
          "durationTicks": 288,
          "midi": 36,
          "name": "C2",
          "ticks": 98304,
          "time": 80,
          "velocity": 0.3937007874015748
        },
        {
          "duration": 0.234375,
          "durationTicks": 288,
          "midi": 36,
          "name": "C2",
          "ticks": 98688,
          "time": 80.3125,
          "velocity": 0.3937007874015748
        },
        {
          "duration": 0.234375,
          "durationTicks": 288,
          "midi": 36,
          "name": "C2",
          "ticks": 99072,
          "time": 80.625,
          "velocity": 0.3937007874015748
        },
        {
          "duration": 0.234375,
          "durationTicks": 288,
          "midi": 36,
          "name": "C2",
          "ticks": 99456,
          "time": 80.9375,
          "velocity": 0.3937007874015748
        },
        {
          "duration": 0.234375,
          "durationTicks": 288,
          "midi": 36,
          "name": "C2",
          "ticks": 99840,
          "time": 81.25,
          "velocity": 0.3937007874015748
        }
      ],
      "endOfTrackTicks": 100128
    },
    {
      "channel": 5,
      "controlChanges": {},
      "pitchBends": [],
      "instrument": {
        "family": "piano",
        "number": 6,
        "name": "harpsichord"
      },
      "name": "Harpsichord",
      "notes": [
        {
          "duration": 0.078125,
          "durationTicks": 96,
          "midi": 47,
          "name": "B2",
          "ticks": 0,
          "time": 0,
          "velocity": 0.3937007874015748
        },
        {
          "duration": 0.078125,
          "durationTicks": 96,
          "midi": 45,
          "name": "A2",
          "ticks": 192,
          "time": 0.15625,
          "velocity": 0.3937007874015748
        },
        {
          "duration": 0.078125,
          "durationTicks": 96,
          "midi": 45,
          "name": "A2",
          "ticks": 384,
          "time": 0.3125,
          "velocity": 0.3937007874015748
        },
        {
          "duration": 0.078125,
          "durationTicks": 96,
          "midi": 48,
          "name": "C3",
          "ticks": 576,
          "time": 0.46875,
          "velocity": 0.3937007874015748
        },
        {
          "duration": 0.078125,
          "durationTicks": 96,
          "midi": 45,
          "name": "A2",
          "ticks": 768,
          "time": 0.625,
          "velocity": 0.3937007874015748
        },
        {
          "duration": 0.078125,
          "durationTicks": 96,
          "midi": 45,
          "name": "A2",
          "ticks": 960,
          "time": 0.78125,
          "velocity": 0.3937007874015748
        },
        {
          "duration": 0.078125,
          "durationTicks": 96,
          "midi": 50,
          "name": "D3",
          "ticks": 1152,
          "time": 0.9375,
          "velocity": 0.3937007874015748
        },
        {
          "duration": 0.078125,
          "durationTicks": 96,
          "midi": 45,
          "name": "A2",
          "ticks": 1344,
          "time": 1.09375,
          "velocity": 0.3937007874015748
        },
        {
          "duration": 0.078125,
          "durationTicks": 96,
          "midi": 45,
          "name": "A2",
          "ticks": 1536,
          "time": 1.25,
          "velocity": 0.3937007874015748
        },
        {
          "duration": 0.078125,
          "durationTicks": 96,
          "midi": 52,
          "name": "E3",
          "ticks": 1728,
          "time": 1.40625,
          "velocity": 0.3937007874015748
        },
        {
          "duration": 0.078125,
          "durationTicks": 96,
          "midi": 45,
          "name": "A2",
          "ticks": 1920,
          "time": 1.5625,
          "velocity": 0.3937007874015748
        },
        {
          "duration": 0.078125,
          "durationTicks": 96,
          "midi": 45,
          "name": "A2",
          "ticks": 2112,
          "time": 1.71875,
          "velocity": 0.3937007874015748
        },
        {
          "duration": 0.078125,
          "durationTicks": 96,
          "midi": 53,
          "name": "F3",
          "ticks": 2304,
          "time": 1.875,
          "velocity": 0.3937007874015748
        },
        {
          "duration": 0.078125,
          "durationTicks": 96,
          "midi": 45,
          "name": "A2",
          "ticks": 2496,
          "time": 2.03125,
          "velocity": 0.3937007874015748
        },
        {
          "duration": 0.078125,
          "durationTicks": 96,
          "midi": 45,
          "name": "A2",
          "ticks": 2688,
          "time": 2.1875,
          "velocity": 0.3937007874015748
        },
        {
          "duration": 0.078125,
          "durationTicks": 96,
          "midi": 53,
          "name": "F3",
          "ticks": 2880,
          "time": 2.34375,
          "velocity": 0.3937007874015748
        },
        {
          "duration": 0.078125,
          "durationTicks": 96,
          "midi": 52,
          "name": "E3",
          "ticks": 3072,
          "time": 2.5,
          "velocity": 0.3937007874015748
        },
        {
          "duration": 0.078125,
          "durationTicks": 96,
          "midi": 45,
          "name": "A2",
          "ticks": 3264,
          "time": 2.65625,
          "velocity": 0.3937007874015748
        },
        {
          "duration": 0.078125,
          "durationTicks": 96,
          "midi": 45,
          "name": "A2",
          "ticks": 3456,
          "time": 2.8125,
          "velocity": 0.3937007874015748
        },
        {
          "duration": 0.078125,
          "durationTicks": 96,
          "midi": 50,
          "name": "D3",
          "ticks": 3648,
          "time": 2.96875,
          "velocity": 0.3937007874015748
        },
        {
          "duration": 0.078125,
          "durationTicks": 96,
          "midi": 45,
          "name": "A2",
          "ticks": 3840,
          "time": 3.125,
          "velocity": 0.3937007874015748
        },
        {
          "duration": 0.078125,
          "durationTicks": 96,
          "midi": 45,
          "name": "A2",
          "ticks": 4032,
          "time": 3.28125,
          "velocity": 0.3937007874015748
        },
        {
          "duration": 0.078125,
          "durationTicks": 96,
          "midi": 48,
          "name": "C3",
          "ticks": 4224,
          "time": 3.4375,
          "velocity": 0.3937007874015748
        },
        {
          "duration": 0.078125,
          "durationTicks": 96,
          "midi": 45,
          "name": "A2",
          "ticks": 4416,
          "time": 3.59375,
          "velocity": 0.3937007874015748
        },
        {
          "duration": 0.078125,
          "durationTicks": 96,
          "midi": 45,
          "name": "A2",
          "ticks": 4608,
          "time": 3.75,
          "velocity": 0.3937007874015748
        },
        {
          "duration": 0.078125,
          "durationTicks": 96,
          "midi": 47,
          "name": "B2",
          "ticks": 4800,
          "time": 3.90625,
          "velocity": 0.3937007874015748
        },
        {
          "duration": 0.078125,
          "durationTicks": 96,
          "midi": 45,
          "name": "A2",
          "ticks": 4992,
          "time": 4.0625,
          "velocity": 0.3937007874015748
        },
        {
          "duration": 0.078125,
          "durationTicks": 96,
          "midi": 45,
          "name": "A2",
          "ticks": 5184,
          "time": 4.21875,
          "velocity": 0.3937007874015748
        },
        {
          "duration": 0.078125,
          "durationTicks": 96,
          "midi": 48,
          "name": "C3",
          "ticks": 5376,
          "time": 4.375,
          "velocity": 0.3937007874015748
        },
        {
          "duration": 0.078125,
          "durationTicks": 96,
          "midi": 45,
          "name": "A2",
          "ticks": 5568,
          "time": 4.53125,
          "velocity": 0.3937007874015748
        },
        {
          "duration": 0.078125,
          "durationTicks": 96,
          "midi": 52,
          "name": "E3",
          "ticks": 5568,
          "time": 4.53125,
          "velocity": 0.3937007874015748
        },
        {
          "duration": 0.078125,
          "durationTicks": 96,
          "midi": 76,
          "name": "E5",
          "ticks": 5568,
          "time": 4.53125,
          "velocity": 0.3937007874015748
        },
        {
          "duration": 0.078125,
          "durationTicks": 96,
          "midi": 64,
          "name": "E4",
          "ticks": 5568,
          "time": 4.53125,
          "velocity": 0.3937007874015748
        },
        {
          "duration": 0.078125,
          "durationTicks": 96,
          "midi": 81,
          "name": "A5",
          "ticks": 5760,
          "time": 4.6875,
          "velocity": 0.3937007874015748
        },
        {
          "duration": 0.078125,
          "durationTicks": 96,
          "midi": 69,
          "name": "A4",
          "ticks": 5760,
          "time": 4.6875,
          "velocity": 0.3937007874015748
        },
        {
          "duration": 0.078125,
          "durationTicks": 96,
          "midi": 47,
          "name": "B2",
          "ticks": 5760,
          "time": 4.6875,
          "velocity": 0.3937007874015748
        },
        {
          "duration": 0.078125,
          "durationTicks": 96,
          "midi": 57,
          "name": "A3",
          "ticks": 5760,
          "time": 4.6875,
          "velocity": 0.3937007874015748
        },
        {
          "duration": 0.078125,
          "durationTicks": 96,
          "midi": 59,
          "name": "B3",
          "ticks": 5952,
          "time": 4.84375,
          "velocity": 0.3937007874015748
        },
        {
          "duration": 0.078125,
          "durationTicks": 96,
          "midi": 83,
          "name": "B5",
          "ticks": 5952,
          "time": 4.84375,
          "velocity": 0.3937007874015748
        },
        {
          "duration": 0.078125,
          "durationTicks": 96,
          "midi": 71,
          "name": "B4",
          "ticks": 5952,
          "time": 4.84375,
          "velocity": 0.3937007874015748
        },
        {
          "duration": 0.078125,
          "durationTicks": 96,
          "midi": 45,
          "name": "A2",
          "ticks": 5952,
          "time": 4.84375,
          "velocity": 0.3937007874015748
        },
        {
          "duration": 0.390625,
          "durationTicks": 480,
          "midi": 60,
          "name": "C4",
          "ticks": 6144,
          "time": 5,
          "velocity": 0.3937007874015748
        },
        {
          "duration": 0.15625,
          "durationTicks": 192,
          "midi": 45,
          "name": "A2",
          "ticks": 6144,
          "time": 5,
          "velocity": 0.3937007874015748
        },
        {
          "duration": 0.390625,
          "durationTicks": 480,
          "midi": 84,
          "name": "C6",
          "ticks": 6144,
          "time": 5,
          "velocity": 0.3937007874015748
        },
        {
          "duration": 0.390625,
          "durationTicks": 480,
          "midi": 72,
          "name": "C5",
          "ticks": 6144,
          "time": 5,
          "velocity": 0.3937007874015748
        },
        {
          "duration": 0.15625,
          "durationTicks": 192,
          "midi": 45,
          "name": "A2",
          "ticks": 6336,
          "time": 5.15625,
          "velocity": 0.3937007874015748
        },
        {
          "duration": 0.15625,
          "durationTicks": 192,
          "midi": 45,
          "name": "A2",
          "ticks": 6528,
          "time": 5.3125,
          "velocity": 0.3937007874015748
        },
        {
          "duration": 0.15625,
          "durationTicks": 192,
          "midi": 45,
          "name": "A2",
          "ticks": 6720,
          "time": 5.46875,
          "velocity": 0.3937007874015748
        },
        {
          "duration": 0.078125,
          "durationTicks": 96,
          "midi": 86,
          "name": "D6",
          "ticks": 6720,
          "time": 5.46875,
          "velocity": 0.3937007874015748
        },
        {
          "duration": 0.078125,
          "durationTicks": 96,
          "midi": 74,
          "name": "D5",
          "ticks": 6720,
          "time": 5.46875,
          "velocity": 0.3937007874015748
        },
        {
          "duration": 0.078125,
          "durationTicks": 96,
          "midi": 62,
          "name": "D4",
          "ticks": 6720,
          "time": 5.46875,
          "velocity": 0.3937007874015748
        },
        {
          "duration": 0.390625,
          "durationTicks": 480,
          "midi": 59,
          "name": "B3",
          "ticks": 6912,
          "time": 5.625,
          "velocity": 0.3937007874015748
        },
        {
          "duration": 0.390625,
          "durationTicks": 480,
          "midi": 71,
          "name": "B4",
          "ticks": 6912,
          "time": 5.625,
          "velocity": 0.3937007874015748
        },
        {
          "duration": 0.390625,
          "durationTicks": 480,
          "midi": 83,
          "name": "B5",
          "ticks": 6912,
          "time": 5.625,
          "velocity": 0.3937007874015748
        },
        {
          "duration": 0.15625,
          "durationTicks": 192,
          "midi": 44,
          "name": "G#2",
          "ticks": 6912,
          "time": 5.625,
          "velocity": 0.3937007874015748
        },
        {
          "duration": 0.15625,
          "durationTicks": 192,
          "midi": 44,
          "name": "G#2",
          "ticks": 7104,
          "time": 5.78125,
          "velocity": 0.3937007874015748
        },
        {
          "duration": 0.15625,
          "durationTicks": 192,
          "midi": 44,
          "name": "G#2",
          "ticks": 7296,
          "time": 5.9375,
          "velocity": 0.3937007874015748
        },
        {
          "duration": 0.078125,
          "durationTicks": 96,
          "midi": 72,
          "name": "C5",
          "ticks": 7488,
          "time": 6.09375,
          "velocity": 0.3937007874015748
        },
        {
          "duration": 0.078125,
          "durationTicks": 96,
          "midi": 60,
          "name": "C4",
          "ticks": 7488,
          "time": 6.09375,
          "velocity": 0.3937007874015748
        },
        {
          "duration": 0.15625,
          "durationTicks": 192,
          "midi": 44,
          "name": "G#2",
          "ticks": 7488,
          "time": 6.09375,
          "velocity": 0.3937007874015748
        },
        {
          "duration": 0.078125,
          "durationTicks": 96,
          "midi": 84,
          "name": "C6",
          "ticks": 7488,
          "time": 6.09375,
          "velocity": 0.3937007874015748
        },
        {
          "duration": 0.15625,
          "durationTicks": 192,
          "midi": 45,
          "name": "A2",
          "ticks": 7680,
          "time": 6.25,
          "velocity": 0.3937007874015748
        },
        {
          "duration": 0.546875,
          "durationTicks": 672,
          "midi": 57,
          "name": "A3",
          "ticks": 7680,
          "time": 6.25,
          "velocity": 0.3937007874015748
        },
        {
          "duration": 0.546875,
          "durationTicks": 672,
          "midi": 81,
          "name": "A5",
          "ticks": 7680,
          "time": 6.25,
          "velocity": 0.3937007874015748
        },
        {
          "duration": 0.546875,
          "durationTicks": 672,
          "midi": 69,
          "name": "A4",
          "ticks": 7680,
          "time": 6.25,
          "velocity": 0.3937007874015748
        },
        {
          "duration": 0.15625,
          "durationTicks": 192,
          "midi": 45,
          "name": "A2",
          "ticks": 7872,
          "time": 6.40625,
          "velocity": 0.3937007874015748
        },
        {
          "duration": 0.15625,
          "durationTicks": 192,
          "midi": 45,
          "name": "A2",
          "ticks": 8064,
          "time": 6.5625,
          "velocity": 0.3937007874015748
        },
        {
          "duration": 0.15625,
          "durationTicks": 192,
          "midi": 45,
          "name": "A2",
          "ticks": 8256,
          "time": 6.71875,
          "velocity": 0.3937007874015748
        },
        {
          "duration": 0.15625,
          "durationTicks": 192,
          "midi": 45,
          "name": "A2",
          "ticks": 8448,
          "time": 6.875,
          "velocity": 0.3937007874015748
        },
        {
          "duration": 0.078125,
          "durationTicks": 96,
          "midi": 81,
          "name": "A5",
          "ticks": 8640,
          "time": 7.03125,
          "velocity": 0.3937007874015748
        },
        {
          "duration": 0.078125,
          "durationTicks": 96,
          "midi": 69,
          "name": "A4",
          "ticks": 8640,
          "time": 7.03125,
          "velocity": 0.3937007874015748
        },
        {
          "duration": 0.15625,
          "durationTicks": 192,
          "midi": 45,
          "name": "A2",
          "ticks": 8640,
          "time": 7.03125,
          "velocity": 0.3937007874015748
        },
        {
          "duration": 0.078125,
          "durationTicks": 96,
          "midi": 57,
          "name": "A3",
          "ticks": 8640,
          "time": 7.03125,
          "velocity": 0.3937007874015748
        },
        {
          "duration": 0.078125,
          "durationTicks": 96,
          "midi": 56,
          "name": "G#3",
          "ticks": 8768,
          "time": 7.135416666666666,
          "velocity": 0.3937007874015748
        },
        {
          "duration": 0.078125,
          "durationTicks": 96,
          "midi": 68,
          "name": "G#4",
          "ticks": 8768,
          "time": 7.135416666666666,
          "velocity": 0.3937007874015748
        },
        {
          "duration": 0.078125,
          "durationTicks": 96,
          "midi": 80,
          "name": "G#5",
          "ticks": 8768,
          "time": 7.135416666666666,
          "velocity": 0.3937007874015748
        },
        {
          "duration": 0.15625,
          "durationTicks": 192,
          "midi": 45,
          "name": "A2",
          "ticks": 8832,
          "time": 7.1875,
          "velocity": 0.3937007874015748
        },
        {
          "duration": 0.078125,
          "durationTicks": 96,
          "midi": 57,
          "name": "A3",
          "ticks": 8832,
          "time": 7.1875,
          "velocity": 0.3937007874015748
        },
        {
          "duration": 0.078125,
          "durationTicks": 96,
          "midi": 81,
          "name": "A5",
          "ticks": 8832,
          "time": 7.1875,
          "velocity": 0.3937007874015748
        },
        {
          "duration": 0.078125,
          "durationTicks": 96,
          "midi": 69,
          "name": "A4",
          "ticks": 8832,
          "time": 7.1875,
          "velocity": 0.3937007874015748
        },
        {
          "duration": 0.078125,
          "durationTicks": 96,
          "midi": 71,
          "name": "B4",
          "ticks": 8960,
          "time": 7.291666666666666,
          "velocity": 0.3937007874015748
        },
        {
          "duration": 0.078125,
          "durationTicks": 96,
          "midi": 59,
          "name": "B3",
          "ticks": 8960,
          "time": 7.291666666666666,
          "velocity": 0.3937007874015748
        },
        {
          "duration": 0.078125,
          "durationTicks": 96,
          "midi": 83,
          "name": "B5",
          "ticks": 8960,
          "time": 7.291666666666666,
          "velocity": 0.3937007874015748
        },
        {
          "duration": 0.15625,
          "durationTicks": 192,
          "midi": 45,
          "name": "A2",
          "ticks": 9024,
          "time": 7.34375,
          "velocity": 0.3937007874015748
        },
        {
          "duration": 0.078125,
          "durationTicks": 96,
          "midi": 84,
          "name": "C6",
          "ticks": 9024,
          "time": 7.34375,
          "velocity": 0.3937007874015748
        },
        {
          "duration": 0.078125,
          "durationTicks": 96,
          "midi": 72,
          "name": "C5",
          "ticks": 9024,
          "time": 7.34375,
          "velocity": 0.3937007874015748
        },
        {
          "duration": 0.078125,
          "durationTicks": 96,
          "midi": 60,
          "name": "C4",
          "ticks": 9024,
          "time": 7.34375,
          "velocity": 0.3937007874015748
        },
        {
          "duration": 0.078125,
          "durationTicks": 96,
          "midi": 62,
          "name": "D4",
          "ticks": 9152,
          "time": 7.447916666666666,
          "velocity": 0.3937007874015748
        },
        {
          "duration": 0.078125,
          "durationTicks": 96,
          "midi": 74,
          "name": "D5",
          "ticks": 9152,
          "time": 7.447916666666666,
          "velocity": 0.3937007874015748
        },
        {
          "duration": 0.078125,
          "durationTicks": 96,
          "midi": 86,
          "name": "D6",
          "ticks": 9152,
          "time": 7.447916666666666,
          "velocity": 0.3937007874015748
        },
        {
          "duration": 0.234375,
          "durationTicks": 288,
          "midi": 88,
          "name": "E6",
          "ticks": 9216,
          "time": 7.5,
          "velocity": 0.3937007874015748
        },
        {
          "duration": 0.234375,
          "durationTicks": 288,
          "midi": 64,
          "name": "E4",
          "ticks": 9216,
          "time": 7.5,
          "velocity": 0.3937007874015748
        },
        {
          "duration": 0.15625,
          "durationTicks": 192,
          "midi": 45,
          "name": "A2",
          "ticks": 9216,
          "time": 7.5,
          "velocity": 0.3937007874015748
        },
        {
          "duration": 0.234375,
          "durationTicks": 288,
          "midi": 76,
          "name": "E5",
          "ticks": 9216,
          "time": 7.5,
          "velocity": 0.3937007874015748
        },
        {
          "duration": 0.15625,
          "durationTicks": 192,
          "midi": 45,
          "name": "A2",
          "ticks": 9408,
          "time": 7.65625,
          "velocity": 0.3937007874015748
        },
        {
          "duration": 0.234375,
          "durationTicks": 288,
          "midi": 76,
          "name": "E5",
          "ticks": 9600,
          "time": 7.8125,
          "velocity": 0.3937007874015748
        },
        {
          "duration": 0.234375,
          "durationTicks": 288,
          "midi": 88,
          "name": "E6",
          "ticks": 9600,
          "time": 7.8125,
          "velocity": 0.3937007874015748
        },
        {
          "duration": 0.15625,
          "durationTicks": 192,
          "midi": 45,
          "name": "A2",
          "ticks": 9600,
          "time": 7.8125,
          "velocity": 0.3937007874015748
        },
        {
          "duration": 0.234375,
          "durationTicks": 288,
          "midi": 64,
          "name": "E4",
          "ticks": 9600,
          "time": 7.8125,
          "velocity": 0.3937007874015748
        },
        {
          "duration": 0.15625,
          "durationTicks": 192,
          "midi": 45,
          "name": "A2",
          "ticks": 9792,
          "time": 7.96875,
          "velocity": 0.3937007874015748
        },
        {
          "duration": 0.234375,
          "durationTicks": 288,
          "midi": 76,
          "name": "E5",
          "ticks": 9984,
          "time": 8.125,
          "velocity": 0.3937007874015748
        },
        {
          "duration": 0.15625,
          "durationTicks": 192,
          "midi": 47,
          "name": "B2",
          "ticks": 9984,
          "time": 8.125,
          "velocity": 0.3937007874015748
        },
        {
          "duration": 0.234375,
          "durationTicks": 288,
          "midi": 64,
          "name": "E4",
          "ticks": 9984,
          "time": 8.125,
          "velocity": 0.3937007874015748
        },
        {
          "duration": 0.234375,
          "durationTicks": 288,
          "midi": 88,
          "name": "E6",
          "ticks": 9984,
          "time": 8.125,
          "velocity": 0.3937007874015748
        },
        {
          "duration": 0.15625,
          "durationTicks": 192,
          "midi": 47,
          "name": "B2",
          "ticks": 10176,
          "time": 8.28125,
          "velocity": 0.3937007874015748
        },
        {
          "duration": 0.234375,
          "durationTicks": 288,
          "midi": 88,
          "name": "E6",
          "ticks": 10368,
          "time": 8.4375,
          "velocity": 0.3937007874015748
        },
        {
          "duration": 0.234375,
          "durationTicks": 288,
          "midi": 76,
          "name": "E5",
          "ticks": 10368,
          "time": 8.4375,
          "velocity": 0.3937007874015748
        },
        {
          "duration": 0.234375,
          "durationTicks": 288,
          "midi": 64,
          "name": "E4",
          "ticks": 10368,
          "time": 8.4375,
          "velocity": 0.3937007874015748
        },
        {
          "duration": 0.15625,
          "durationTicks": 192,
          "midi": 47,
          "name": "B2",
          "ticks": 10368,
          "time": 8.4375,
          "velocity": 0.3937007874015748
        },
        {
          "duration": 0.15625,
          "durationTicks": 192,
          "midi": 47,
          "name": "B2",
          "ticks": 10560,
          "time": 8.59375,
          "velocity": 0.3937007874015748
        },
        {
          "duration": 0.78125,
          "durationTicks": 960,
          "midi": 64,
          "name": "E4",
          "ticks": 10752,
          "time": 8.75,
          "velocity": 0.3937007874015748
        },
        {
          "duration": 0.78125,
          "durationTicks": 960,
          "midi": 76,
          "name": "E5",
          "ticks": 10752,
          "time": 8.75,
          "velocity": 0.3937007874015748
        },
        {
          "duration": 0.15625,
          "durationTicks": 192,
          "midi": 48,
          "name": "C3",
          "ticks": 10752,
          "time": 8.75,
          "velocity": 0.3937007874015748
        },
        {
          "duration": 0.78125,
          "durationTicks": 960,
          "midi": 88,
          "name": "E6",
          "ticks": 10752,
          "time": 8.75,
          "velocity": 0.3937007874015748
        },
        {
          "duration": 0.15625,
          "durationTicks": 192,
          "midi": 48,
          "name": "C3",
          "ticks": 10944,
          "time": 8.90625,
          "velocity": 0.3937007874015748
        },
        {
          "duration": 0.15625,
          "durationTicks": 192,
          "midi": 48,
          "name": "C3",
          "ticks": 11136,
          "time": 9.0625,
          "velocity": 0.3937007874015748
        },
        {
          "duration": 0.15625,
          "durationTicks": 192,
          "midi": 48,
          "name": "C3",
          "ticks": 11328,
          "time": 9.21875,
          "velocity": 0.3937007874015748
        },
        {
          "duration": 0.15625,
          "durationTicks": 192,
          "midi": 48,
          "name": "C3",
          "ticks": 11520,
          "time": 9.375,
          "velocity": 0.3937007874015748
        },
        {
          "duration": 0.15625,
          "durationTicks": 192,
          "midi": 48,
          "name": "C3",
          "ticks": 11712,
          "time": 9.53125,
          "velocity": 0.3937007874015748
        },
        {
          "duration": 0.078125,
          "durationTicks": 96,
          "midi": 74,
          "name": "D5",
          "ticks": 11904,
          "time": 9.6875,
          "velocity": 0.3937007874015748
        },
        {
          "duration": 0.078125,
          "durationTicks": 96,
          "midi": 62,
          "name": "D4",
          "ticks": 11904,
          "time": 9.6875,
          "velocity": 0.3937007874015748
        },
        {
          "duration": 0.15625,
          "durationTicks": 192,
          "midi": 48,
          "name": "C3",
          "ticks": 11904,
          "time": 9.6875,
          "velocity": 0.3937007874015748
        },
        {
          "duration": 0.078125,
          "durationTicks": 96,
          "midi": 86,
          "name": "D6",
          "ticks": 11904,
          "time": 9.6875,
          "velocity": 0.3937007874015748
        },
        {
          "duration": 0.15625,
          "durationTicks": 192,
          "midi": 48,
          "name": "C3",
          "ticks": 12096,
          "time": 9.84375,
          "velocity": 0.3937007874015748
        },
        {
          "duration": 0.078125,
          "durationTicks": 96,
          "midi": 88,
          "name": "E6",
          "ticks": 12096,
          "time": 9.84375,
          "velocity": 0.3937007874015748
        },
        {
          "duration": 0.078125,
          "durationTicks": 96,
          "midi": 76,
          "name": "E5",
          "ticks": 12096,
          "time": 9.84375,
          "velocity": 0.3937007874015748
        },
        {
          "duration": 0.078125,
          "durationTicks": 96,
          "midi": 64,
          "name": "E4",
          "ticks": 12096,
          "time": 9.84375,
          "velocity": 0.3937007874015748
        },
        {
          "duration": 0.546875,
          "durationTicks": 672,
          "midi": 65,
          "name": "F4",
          "ticks": 12288,
          "time": 10,
          "velocity": 0.3937007874015748
        },
        {
          "duration": 0.546875,
          "durationTicks": 672,
          "midi": 89,
          "name": "F6",
          "ticks": 12288,
          "time": 10,
          "velocity": 0.3937007874015748
        },
        {
          "duration": 0.15625,
          "durationTicks": 192,
          "midi": 50,
          "name": "D3",
          "ticks": 12288,
          "time": 10,
          "velocity": 0.3937007874015748
        },
        {
          "duration": 0.546875,
          "durationTicks": 672,
          "midi": 77,
          "name": "F5",
          "ticks": 12288,
          "time": 10,
          "velocity": 0.3937007874015748
        },
        {
          "duration": 0.15625,
          "durationTicks": 192,
          "midi": 50,
          "name": "D3",
          "ticks": 12480,
          "time": 10.15625,
          "velocity": 0.3937007874015748
        },
        {
          "duration": 0.15625,
          "durationTicks": 192,
          "midi": 50,
          "name": "D3",
          "ticks": 12672,
          "time": 10.3125,
          "velocity": 0.3937007874015748
        },
        {
          "duration": 0.15625,
          "durationTicks": 192,
          "midi": 50,
          "name": "D3",
          "ticks": 12864,
          "time": 10.46875,
          "velocity": 0.3937007874015748
        },
        {
          "duration": 0.234375,
          "durationTicks": 288,
          "midi": 83,
          "name": "B5",
          "ticks": 13056,
          "time": 10.625,
          "velocity": 0.3937007874015748
        },
        {
          "duration": 0.234375,
          "durationTicks": 288,
          "midi": 59,
          "name": "B3",
          "ticks": 13056,
          "time": 10.625,
          "velocity": 0.3937007874015748
        },
        {
          "duration": 0.15625,
          "durationTicks": 192,
          "midi": 40,
          "name": "E2",
          "ticks": 13056,
          "time": 10.625,
          "velocity": 0.3937007874015748
        },
        {
          "duration": 0.234375,
          "durationTicks": 288,
          "midi": 71,
          "name": "B4",
          "ticks": 13056,
          "time": 10.625,
          "velocity": 0.3937007874015748
        },
        {
          "duration": 0.15625,
          "durationTicks": 192,
          "midi": 40,
          "name": "E2",
          "ticks": 13248,
          "time": 10.78125,
          "velocity": 0.3937007874015748
        },
        {
          "duration": 0.078125,
          "durationTicks": 96,
          "midi": 72,
          "name": "C5",
          "ticks": 13440,
          "time": 10.9375,
          "velocity": 0.3937007874015748
        },
        {
          "duration": 0.078125,
          "durationTicks": 96,
          "midi": 60,
          "name": "C4",
          "ticks": 13440,
          "time": 10.9375,
          "velocity": 0.3937007874015748
        },
        {
          "duration": 0.15625,
          "durationTicks": 192,
          "midi": 40,
          "name": "E2",
          "ticks": 13440,
          "time": 10.9375,
          "velocity": 0.3937007874015748
        },
        {
          "duration": 0.078125,
          "durationTicks": 96,
          "midi": 84,
          "name": "C6",
          "ticks": 13440,
          "time": 10.9375,
          "velocity": 0.3937007874015748
        },
        {
          "duration": 0.078125,
          "durationTicks": 96,
          "midi": 86,
          "name": "D6",
          "ticks": 13632,
          "time": 11.09375,
          "velocity": 0.3937007874015748
        },
        {
          "duration": 0.15625,
          "durationTicks": 192,
          "midi": 40,
          "name": "E2",
          "ticks": 13632,
          "time": 11.09375,
          "velocity": 0.3937007874015748
        },
        {
          "duration": 0.078125,
          "durationTicks": 96,
          "midi": 74,
          "name": "D5",
          "ticks": 13632,
          "time": 11.09375,
          "velocity": 0.3937007874015748
        },
        {
          "duration": 0.078125,
          "durationTicks": 96,
          "midi": 62,
          "name": "D4",
          "ticks": 13632,
          "time": 11.09375,
          "velocity": 0.3937007874015748
        },
        {
          "duration": 0.15625,
          "durationTicks": 192,
          "midi": 45,
          "name": "A2",
          "ticks": 13824,
          "time": 11.25,
          "velocity": 0.3937007874015748
        },
        {
          "duration": 0.546875,
          "durationTicks": 672,
          "midi": 88,
          "name": "E6",
          "ticks": 13824,
          "time": 11.25,
          "velocity": 0.3937007874015748
        },
        {
          "duration": 0.546875,
          "durationTicks": 672,
          "midi": 64,
          "name": "E4",
          "ticks": 13824,
          "time": 11.25,
          "velocity": 0.3937007874015748
        },
        {
          "duration": 0.546875,
          "durationTicks": 672,
          "midi": 76,
          "name": "E5",
          "ticks": 13824,
          "time": 11.25,
          "velocity": 0.3937007874015748
        },
        {
          "duration": 0.15625,
          "durationTicks": 192,
          "midi": 45,
          "name": "A2",
          "ticks": 14016,
          "time": 11.40625,
          "velocity": 0.3937007874015748
        },
        {
          "duration": 0.15625,
          "durationTicks": 192,
          "midi": 45,
          "name": "A2",
          "ticks": 14208,
          "time": 11.5625,
          "velocity": 0.3937007874015748
        },
        {
          "duration": 0.15625,
          "durationTicks": 192,
          "midi": 45,
          "name": "A2",
          "ticks": 14400,
          "time": 11.71875,
          "velocity": 0.3937007874015748
        },
        {
          "duration": 0.234375,
          "durationTicks": 288,
          "midi": 81,
          "name": "A5",
          "ticks": 14592,
          "time": 11.875,
          "velocity": 0.3937007874015748
        },
        {
          "duration": 0.234375,
          "durationTicks": 288,
          "midi": 69,
          "name": "A4",
          "ticks": 14592,
          "time": 11.875,
          "velocity": 0.3937007874015748
        },
        {
          "duration": 0.234375,
          "durationTicks": 288,
          "midi": 57,
          "name": "A3",
          "ticks": 14592,
          "time": 11.875,
          "velocity": 0.3937007874015748
        },
        {
          "duration": 0.15625,
          "durationTicks": 192,
          "midi": 42,
          "name": "F#2",
          "ticks": 14592,
          "time": 11.875,
          "velocity": 0.3937007874015748
        },
        {
          "duration": 0.15625,
          "durationTicks": 192,
          "midi": 42,
          "name": "F#2",
          "ticks": 14784,
          "time": 12.03125,
          "velocity": 0.3937007874015748
        },
        {
          "duration": 0.078125,
          "durationTicks": 96,
          "midi": 69,
          "name": "A4",
          "ticks": 14976,
          "time": 12.1875,
          "velocity": 0.3937007874015748
        },
        {
          "duration": 0.15625,
          "durationTicks": 192,
          "midi": 42,
          "name": "F#2",
          "ticks": 14976,
          "time": 12.1875,
          "velocity": 0.3937007874015748
        },
        {
          "duration": 0.078125,
          "durationTicks": 96,
          "midi": 81,
          "name": "A5",
          "ticks": 14976,
          "time": 12.1875,
          "velocity": 0.3937007874015748
        },
        {
          "duration": 0.078125,
          "durationTicks": 96,
          "midi": 57,
          "name": "A3",
          "ticks": 14976,
          "time": 12.1875,
          "velocity": 0.3937007874015748
        },
        {
          "duration": 0.15625,
          "durationTicks": 192,
          "midi": 42,
          "name": "F#2",
          "ticks": 15168,
          "time": 12.34375,
          "velocity": 0.3937007874015748
        },
        {
          "duration": 0.078125,
          "durationTicks": 96,
          "midi": 59,
          "name": "B3",
          "ticks": 15168,
          "time": 12.34375,
          "velocity": 0.3937007874015748
        },
        {
          "duration": 0.078125,
          "durationTicks": 96,
          "midi": 71,
          "name": "B4",
          "ticks": 15168,
          "time": 12.34375,
          "velocity": 0.3937007874015748
        },
        {
          "duration": 0.078125,
          "durationTicks": 96,
          "midi": 83,
          "name": "B5",
          "ticks": 15168,
          "time": 12.34375,
          "velocity": 0.3937007874015748
        },
        {
          "duration": 0.390625,
          "durationTicks": 480,
          "midi": 60,
          "name": "C4",
          "ticks": 15360,
          "time": 12.5,
          "velocity": 0.3937007874015748
        },
        {
          "duration": 0.390625,
          "durationTicks": 480,
          "midi": 84,
          "name": "C6",
          "ticks": 15360,
          "time": 12.5,
          "velocity": 0.3937007874015748
        },
        {
          "duration": 0.15625,
          "durationTicks": 192,
          "midi": 51,
          "name": "D#3",
          "ticks": 15360,
          "time": 12.5,
          "velocity": 0.3937007874015748
        },
        {
          "duration": 0.390625,
          "durationTicks": 480,
          "midi": 72,
          "name": "C5",
          "ticks": 15360,
          "time": 12.5,
          "velocity": 0.3937007874015748
        },
        {
          "duration": 0.15625,
          "durationTicks": 192,
          "midi": 51,
          "name": "D#3",
          "ticks": 15552,
          "time": 12.65625,
          "velocity": 0.3937007874015748
        },
        {
          "duration": 0.15625,
          "durationTicks": 192,
          "midi": 51,
          "name": "D#3",
          "ticks": 15744,
          "time": 12.8125,
          "velocity": 0.3937007874015748
        },
        {
          "duration": 0.078125,
          "durationTicks": 96,
          "midi": 86,
          "name": "D6",
          "ticks": 15936,
          "time": 12.96875,
          "velocity": 0.3937007874015748
        },
        {
          "duration": 0.15625,
          "durationTicks": 192,
          "midi": 51,
          "name": "D#3",
          "ticks": 15936,
          "time": 12.96875,
          "velocity": 0.3937007874015748
        },
        {
          "duration": 0.078125,
          "durationTicks": 96,
          "midi": 62,
          "name": "D4",
          "ticks": 15936,
          "time": 12.96875,
          "velocity": 0.3937007874015748
        },
        {
          "duration": 0.078125,
          "durationTicks": 96,
          "midi": 74,
          "name": "D5",
          "ticks": 15936,
          "time": 12.96875,
          "velocity": 0.3937007874015748
        },
        {
          "duration": 0.390625,
          "durationTicks": 480,
          "midi": 59,
          "name": "B3",
          "ticks": 16128,
          "time": 13.125,
          "velocity": 0.3937007874015748
        },
        {
          "duration": 0.390625,
          "durationTicks": 480,
          "midi": 83,
          "name": "B5",
          "ticks": 16128,
          "time": 13.125,
          "velocity": 0.3937007874015748
        },
        {
          "duration": 0.15625,
          "durationTicks": 192,
          "midi": 52,
          "name": "E3",
          "ticks": 16128,
          "time": 13.125,
          "velocity": 0.3937007874015748
        },
        {
          "duration": 0.390625,
          "durationTicks": 480,
          "midi": 71,
          "name": "B4",
          "ticks": 16128,
          "time": 13.125,
          "velocity": 0.3937007874015748
        },
        {
          "duration": 0.15625,
          "durationTicks": 192,
          "midi": 52,
          "name": "E3",
          "ticks": 16320,
          "time": 13.28125,
          "velocity": 0.3937007874015748
        },
        {
          "duration": 0.15625,
          "durationTicks": 192,
          "midi": 52,
          "name": "E3",
          "ticks": 16512,
          "time": 13.4375,
          "velocity": 0.3937007874015748
        },
        {
          "duration": 0.15625,
          "durationTicks": 192,
          "midi": 52,
          "name": "E3",
          "ticks": 16704,
          "time": 13.59375,
          "velocity": 0.3937007874015748
        },
        {
          "duration": 0.078125,
          "durationTicks": 96,
          "midi": 84,
          "name": "C6",
          "ticks": 16704,
          "time": 13.59375,
          "velocity": 0.3937007874015748
        },
        {
          "duration": 0.078125,
          "durationTicks": 96,
          "midi": 60,
          "name": "C4",
          "ticks": 16704,
          "time": 13.59375,
          "velocity": 0.3937007874015748
        },
        {
          "duration": 0.078125,
          "durationTicks": 96,
          "midi": 72,
          "name": "C5",
          "ticks": 16704,
          "time": 13.59375,
          "velocity": 0.3937007874015748
        },
        {
          "duration": 0.546875,
          "durationTicks": 672,
          "midi": 69,
          "name": "A4",
          "ticks": 16896,
          "time": 13.75,
          "velocity": 0.3937007874015748
        },
        {
          "duration": 0.546875,
          "durationTicks": 672,
          "midi": 57,
          "name": "A3",
          "ticks": 16896,
          "time": 13.75,
          "velocity": 0.3937007874015748
        },
        {
          "duration": 0.15625,
          "durationTicks": 192,
          "midi": 45,
          "name": "A2",
          "ticks": 16896,
          "time": 13.75,
          "velocity": 0.3937007874015748
        },
        {
          "duration": 0.546875,
          "durationTicks": 672,
          "midi": 81,
          "name": "A5",
          "ticks": 16896,
          "time": 13.75,
          "velocity": 0.3937007874015748
        },
        {
          "duration": 0.15625,
          "durationTicks": 192,
          "midi": 45,
          "name": "A2",
          "ticks": 17088,
          "time": 13.90625,
          "velocity": 0.3937007874015748
        },
        {
          "duration": 0.15625,
          "durationTicks": 192,
          "midi": 45,
          "name": "A2",
          "ticks": 17280,
          "time": 14.0625,
          "velocity": 0.3937007874015748
        },
        {
          "duration": 0.15625,
          "durationTicks": 192,
          "midi": 45,
          "name": "A2",
          "ticks": 17472,
          "time": 14.21875,
          "velocity": 0.3937007874015748
        },
        {
          "duration": 0.15625,
          "durationTicks": 192,
          "midi": 45,
          "name": "A2",
          "ticks": 17664,
          "time": 14.375,
          "velocity": 0.3937007874015748
        },
        {
          "duration": 0.15625,
          "durationTicks": 192,
          "midi": 45,
          "name": "A2",
          "ticks": 17856,
          "time": 14.53125,
          "velocity": 0.3937007874015748
        },
        {
          "duration": 0.078125,
          "durationTicks": 96,
          "midi": 76,
          "name": "E5",
          "ticks": 17856,
          "time": 14.53125,
          "velocity": 0.3937007874015748
        },
        {
          "duration": 0.078125,
          "durationTicks": 96,
          "midi": 64,
          "name": "E4",
          "ticks": 17856,
          "time": 14.53125,
          "velocity": 0.3937007874015748
        },
        {
          "duration": 0.078125,
          "durationTicks": 96,
          "midi": 52,
          "name": "E3",
          "ticks": 17856,
          "time": 14.53125,
          "velocity": 0.3937007874015748
        },
        {
          "duration": 0.078125,
          "durationTicks": 96,
          "midi": 81,
          "name": "A5",
          "ticks": 18048,
          "time": 14.6875,
          "velocity": 0.3937007874015748
        },
        {
          "duration": 0.078125,
          "durationTicks": 96,
          "midi": 57,
          "name": "A3",
          "ticks": 18048,
          "time": 14.6875,
          "velocity": 0.3937007874015748
        },
        {
          "duration": 0.078125,
          "durationTicks": 96,
          "midi": 69,
          "name": "A4",
          "ticks": 18048,
          "time": 14.6875,
          "velocity": 0.3937007874015748
        },
        {
          "duration": 0.15625,
          "durationTicks": 192,
          "midi": 45,
          "name": "A2",
          "ticks": 18048,
          "time": 14.6875,
          "velocity": 0.3937007874015748
        },
        {
          "duration": 0.15625,
          "durationTicks": 192,
          "midi": 45,
          "name": "A2",
          "ticks": 18240,
          "time": 14.84375,
          "velocity": 0.3937007874015748
        },
        {
          "duration": 0.078125,
          "durationTicks": 96,
          "midi": 59,
          "name": "B3",
          "ticks": 18240,
          "time": 14.84375,
          "velocity": 0.3937007874015748
        },
        {
          "duration": 0.078125,
          "durationTicks": 96,
          "midi": 71,
          "name": "B4",
          "ticks": 18240,
          "time": 14.84375,
          "velocity": 0.3937007874015748
        },
        {
          "duration": 0.078125,
          "durationTicks": 96,
          "midi": 83,
          "name": "B5",
          "ticks": 18240,
          "time": 14.84375,
          "velocity": 0.3937007874015748
        },
        {
          "duration": 0.15625,
          "durationTicks": 192,
          "midi": 45,
          "name": "A2",
          "ticks": 18432,
          "time": 15,
          "velocity": 0.3937007874015748
        },
        {
          "duration": 0.390625,
          "durationTicks": 480,
          "midi": 84,
          "name": "C6",
          "ticks": 18432,
          "time": 15,
          "velocity": 0.3937007874015748
        },
        {
          "duration": 0.390625,
          "durationTicks": 480,
          "midi": 72,
          "name": "C5",
          "ticks": 18432,
          "time": 15,
          "velocity": 0.3937007874015748
        },
        {
          "duration": 0.390625,
          "durationTicks": 480,
          "midi": 60,
          "name": "C4",
          "ticks": 18432,
          "time": 15,
          "velocity": 0.3937007874015748
        },
        {
          "duration": 0.15625,
          "durationTicks": 192,
          "midi": 45,
          "name": "A2",
          "ticks": 18624,
          "time": 15.15625,
          "velocity": 0.3937007874015748
        },
        {
          "duration": 0.15625,
          "durationTicks": 192,
          "midi": 45,
          "name": "A2",
          "ticks": 18816,
          "time": 15.3125,
          "velocity": 0.3937007874015748
        },
        {
          "duration": 0.15625,
          "durationTicks": 192,
          "midi": 45,
          "name": "A2",
          "ticks": 19008,
          "time": 15.46875,
          "velocity": 0.3937007874015748
        },
        {
          "duration": 0.078125,
          "durationTicks": 96,
          "midi": 74,
          "name": "D5",
          "ticks": 19008,
          "time": 15.46875,
          "velocity": 0.3937007874015748
        },
        {
          "duration": 0.078125,
          "durationTicks": 96,
          "midi": 86,
          "name": "D6",
          "ticks": 19008,
          "time": 15.46875,
          "velocity": 0.3937007874015748
        },
        {
          "duration": 0.078125,
          "durationTicks": 96,
          "midi": 62,
          "name": "D4",
          "ticks": 19008,
          "time": 15.46875,
          "velocity": 0.3937007874015748
        },
        {
          "duration": 0.390625,
          "durationTicks": 480,
          "midi": 71,
          "name": "B4",
          "ticks": 19200,
          "time": 15.625,
          "velocity": 0.3937007874015748
        },
        {
          "duration": 0.15625,
          "durationTicks": 192,
          "midi": 44,
          "name": "G#2",
          "ticks": 19200,
          "time": 15.625,
          "velocity": 0.3937007874015748
        },
        {
          "duration": 0.390625,
          "durationTicks": 480,
          "midi": 83,
          "name": "B5",
          "ticks": 19200,
          "time": 15.625,
          "velocity": 0.3937007874015748
        },
        {
          "duration": 0.390625,
          "durationTicks": 480,
          "midi": 59,
          "name": "B3",
          "ticks": 19200,
          "time": 15.625,
          "velocity": 0.3937007874015748
        },
        {
          "duration": 0.15625,
          "durationTicks": 192,
          "midi": 44,
          "name": "G#2",
          "ticks": 19392,
          "time": 15.78125,
          "velocity": 0.3937007874015748
        },
        {
          "duration": 0.15625,
          "durationTicks": 192,
          "midi": 44,
          "name": "G#2",
          "ticks": 19584,
          "time": 15.9375,
          "velocity": 0.3937007874015748
        },
        {
          "duration": 0.15625,
          "durationTicks": 192,
          "midi": 44,
          "name": "G#2",
          "ticks": 19776,
          "time": 16.09375,
          "velocity": 0.3937007874015748
        },
        {
          "duration": 0.078125,
          "durationTicks": 96,
          "midi": 84,
          "name": "C6",
          "ticks": 19776,
          "time": 16.09375,
          "velocity": 0.3937007874015748
        },
        {
          "duration": 0.078125,
          "durationTicks": 96,
          "midi": 72,
          "name": "C5",
          "ticks": 19776,
          "time": 16.09375,
          "velocity": 0.3937007874015748
        },
        {
          "duration": 0.078125,
          "durationTicks": 96,
          "midi": 60,
          "name": "C4",
          "ticks": 19776,
          "time": 16.09375,
          "velocity": 0.3937007874015748
        },
        {
          "duration": 0.15625,
          "durationTicks": 192,
          "midi": 45,
          "name": "A2",
          "ticks": 19968,
          "time": 16.25,
          "velocity": 0.3937007874015748
        },
        {
          "duration": 0.546875,
          "durationTicks": 672,
          "midi": 81,
          "name": "A5",
          "ticks": 19968,
          "time": 16.25,
          "velocity": 0.3937007874015748
        },
        {
          "duration": 0.546875,
          "durationTicks": 672,
          "midi": 69,
          "name": "A4",
          "ticks": 19968,
          "time": 16.25,
          "velocity": 0.3937007874015748
        },
        {
          "duration": 0.546875,
          "durationTicks": 672,
          "midi": 57,
          "name": "A3",
          "ticks": 19968,
          "time": 16.25,
          "velocity": 0.3937007874015748
        },
        {
          "duration": 0.15625,
          "durationTicks": 192,
          "midi": 45,
          "name": "A2",
          "ticks": 20160,
          "time": 16.40625,
          "velocity": 0.3937007874015748
        },
        {
          "duration": 0.15625,
          "durationTicks": 192,
          "midi": 45,
          "name": "A2",
          "ticks": 20352,
          "time": 16.5625,
          "velocity": 0.3937007874015748
        },
        {
          "duration": 0.15625,
          "durationTicks": 192,
          "midi": 45,
          "name": "A2",
          "ticks": 20544,
          "time": 16.71875,
          "velocity": 0.3937007874015748
        },
        {
          "duration": 0.15625,
          "durationTicks": 192,
          "midi": 45,
          "name": "A2",
          "ticks": 20736,
          "time": 16.875,
          "velocity": 0.3937007874015748
        },
        {
          "duration": 0.15625,
          "durationTicks": 192,
          "midi": 45,
          "name": "A2",
          "ticks": 20928,
          "time": 17.03125,
          "velocity": 0.3937007874015748
        },
        {
          "duration": 0.078125,
          "durationTicks": 96,
          "midi": 69,
          "name": "A4",
          "ticks": 20928,
          "time": 17.03125,
          "velocity": 0.3937007874015748
        },
        {
          "duration": 0.078125,
          "durationTicks": 96,
          "midi": 57,
          "name": "A3",
          "ticks": 20928,
          "time": 17.03125,
          "velocity": 0.3937007874015748
        },
        {
          "duration": 0.078125,
          "durationTicks": 96,
          "midi": 81,
          "name": "A5",
          "ticks": 20928,
          "time": 17.03125,
          "velocity": 0.3937007874015748
        },
        {
          "duration": 0.078125,
          "durationTicks": 96,
          "midi": 68,
          "name": "G#4",
          "ticks": 21056,
          "time": 17.135416666666668,
          "velocity": 0.3937007874015748
        },
        {
          "duration": 0.078125,
          "durationTicks": 96,
          "midi": 56,
          "name": "G#3",
          "ticks": 21056,
          "time": 17.135416666666668,
          "velocity": 0.3937007874015748
        },
        {
          "duration": 0.078125,
          "durationTicks": 96,
          "midi": 80,
          "name": "G#5",
          "ticks": 21056,
          "time": 17.135416666666668,
          "velocity": 0.3937007874015748
        },
        {
          "duration": 0.15625,
          "durationTicks": 192,
          "midi": 45,
          "name": "A2",
          "ticks": 21120,
          "time": 17.1875,
          "velocity": 0.3937007874015748
        },
        {
          "duration": 0.078125,
          "durationTicks": 96,
          "midi": 81,
          "name": "A5",
          "ticks": 21120,
          "time": 17.1875,
          "velocity": 0.3937007874015748
        },
        {
          "duration": 0.078125,
          "durationTicks": 96,
          "midi": 69,
          "name": "A4",
          "ticks": 21120,
          "time": 17.1875,
          "velocity": 0.3937007874015748
        },
        {
          "duration": 0.078125,
          "durationTicks": 96,
          "midi": 57,
          "name": "A3",
          "ticks": 21120,
          "time": 17.1875,
          "velocity": 0.3937007874015748
        },
        {
          "duration": 0.078125,
          "durationTicks": 96,
          "midi": 71,
          "name": "B4",
          "ticks": 21248,
          "time": 17.291666666666668,
          "velocity": 0.3937007874015748
        },
        {
          "duration": 0.078125,
          "durationTicks": 96,
          "midi": 59,
          "name": "B3",
          "ticks": 21248,
          "time": 17.291666666666668,
          "velocity": 0.3937007874015748
        },
        {
          "duration": 0.078125,
          "durationTicks": 96,
          "midi": 83,
          "name": "B5",
          "ticks": 21248,
          "time": 17.291666666666668,
          "velocity": 0.3937007874015748
        },
        {
          "duration": 0.078125,
          "durationTicks": 96,
          "midi": 72,
          "name": "C5",
          "ticks": 21312,
          "time": 17.34375,
          "velocity": 0.3937007874015748
        },
        {
          "duration": 0.078125,
          "durationTicks": 96,
          "midi": 84,
          "name": "C6",
          "ticks": 21312,
          "time": 17.34375,
          "velocity": 0.3937007874015748
        },
        {
          "duration": 0.15625,
          "durationTicks": 192,
          "midi": 45,
          "name": "A2",
          "ticks": 21312,
          "time": 17.34375,
          "velocity": 0.3937007874015748
        },
        {
          "duration": 0.078125,
          "durationTicks": 96,
          "midi": 60,
          "name": "C4",
          "ticks": 21312,
          "time": 17.34375,
          "velocity": 0.3937007874015748
        },
        {
          "duration": 0.078125,
          "durationTicks": 96,
          "midi": 86,
          "name": "D6",
          "ticks": 21440,
          "time": 17.447916666666668,
          "velocity": 0.3937007874015748
        },
        {
          "duration": 0.078125,
          "durationTicks": 96,
          "midi": 62,
          "name": "D4",
          "ticks": 21440,
          "time": 17.447916666666668,
          "velocity": 0.3937007874015748
        },
        {
          "duration": 0.078125,
          "durationTicks": 96,
          "midi": 74,
          "name": "D5",
          "ticks": 21440,
          "time": 17.447916666666668,
          "velocity": 0.3937007874015748
        },
        {
          "duration": 0.234375,
          "durationTicks": 288,
          "midi": 76,
          "name": "E5",
          "ticks": 21504,
          "time": 17.5,
          "velocity": 0.3937007874015748
        },
        {
          "duration": 0.234375,
          "durationTicks": 288,
          "midi": 88,
          "name": "E6",
          "ticks": 21504,
          "time": 17.5,
          "velocity": 0.3937007874015748
        },
        {
          "duration": 0.234375,
          "durationTicks": 288,
          "midi": 64,
          "name": "E4",
          "ticks": 21504,
          "time": 17.5,
          "velocity": 0.3937007874015748
        },
        {
          "duration": 0.15625,
          "durationTicks": 192,
          "midi": 45,
          "name": "A2",
          "ticks": 21504,
          "time": 17.5,
          "velocity": 0.3937007874015748
        },
        {
          "duration": 0.15625,
          "durationTicks": 192,
          "midi": 45,
          "name": "A2",
          "ticks": 21696,
          "time": 17.65625,
          "velocity": 0.3937007874015748
        },
        {
          "duration": 0.234375,
          "durationTicks": 288,
          "midi": 76,
          "name": "E5",
          "ticks": 21888,
          "time": 17.8125,
          "velocity": 0.3937007874015748
        },
        {
          "duration": 0.15625,
          "durationTicks": 192,
          "midi": 45,
          "name": "A2",
          "ticks": 21888,
          "time": 17.8125,
          "velocity": 0.3937007874015748
        },
        {
          "duration": 0.234375,
          "durationTicks": 288,
          "midi": 64,
          "name": "E4",
          "ticks": 21888,
          "time": 17.8125,
          "velocity": 0.3937007874015748
        },
        {
          "duration": 0.234375,
          "durationTicks": 288,
          "midi": 88,
          "name": "E6",
          "ticks": 21888,
          "time": 17.8125,
          "velocity": 0.3937007874015748
        },
        {
          "duration": 0.15625,
          "durationTicks": 192,
          "midi": 45,
          "name": "A2",
          "ticks": 22080,
          "time": 17.96875,
          "velocity": 0.3937007874015748
        },
        {
          "duration": 0.15625,
          "durationTicks": 192,
          "midi": 47,
          "name": "B2",
          "ticks": 22272,
          "time": 18.125,
          "velocity": 0.3937007874015748
        },
        {
          "duration": 0.234375,
          "durationTicks": 288,
          "midi": 88,
          "name": "E6",
          "ticks": 22272,
          "time": 18.125,
          "velocity": 0.3937007874015748
        },
        {
          "duration": 0.234375,
          "durationTicks": 288,
          "midi": 76,
          "name": "E5",
          "ticks": 22272,
          "time": 18.125,
          "velocity": 0.3937007874015748
        },
        {
          "duration": 0.234375,
          "durationTicks": 288,
          "midi": 64,
          "name": "E4",
          "ticks": 22272,
          "time": 18.125,
          "velocity": 0.3937007874015748
        },
        {
          "duration": 0.15625,
          "durationTicks": 192,
          "midi": 47,
          "name": "B2",
          "ticks": 22464,
          "time": 18.28125,
          "velocity": 0.3937007874015748
        },
        {
          "duration": 0.15625,
          "durationTicks": 192,
          "midi": 47,
          "name": "B2",
          "ticks": 22656,
          "time": 18.4375,
          "velocity": 0.3937007874015748
        },
        {
          "duration": 0.234375,
          "durationTicks": 288,
          "midi": 88,
          "name": "E6",
          "ticks": 22656,
          "time": 18.4375,
          "velocity": 0.3937007874015748
        },
        {
          "duration": 0.234375,
          "durationTicks": 288,
          "midi": 64,
          "name": "E4",
          "ticks": 22656,
          "time": 18.4375,
          "velocity": 0.3937007874015748
        },
        {
          "duration": 0.234375,
          "durationTicks": 288,
          "midi": 76,
          "name": "E5",
          "ticks": 22656,
          "time": 18.4375,
          "velocity": 0.3937007874015748
        },
        {
          "duration": 0.15625,
          "durationTicks": 192,
          "midi": 47,
          "name": "B2",
          "ticks": 22848,
          "time": 18.59375,
          "velocity": 0.3937007874015748
        },
        {
          "duration": 0.15625,
          "durationTicks": 192,
          "midi": 48,
          "name": "C3",
          "ticks": 23040,
          "time": 18.75,
          "velocity": 0.3937007874015748
        },
        {
          "duration": 0.78125,
          "durationTicks": 960,
          "midi": 76,
          "name": "E5",
          "ticks": 23040,
          "time": 18.75,
          "velocity": 0.3937007874015748
        },
        {
          "duration": 0.78125,
          "durationTicks": 960,
          "midi": 64,
          "name": "E4",
          "ticks": 23040,
          "time": 18.75,
          "velocity": 0.3937007874015748
        },
        {
          "duration": 0.78125,
          "durationTicks": 960,
          "midi": 88,
          "name": "E6",
          "ticks": 23040,
          "time": 18.75,
          "velocity": 0.3937007874015748
        },
        {
          "duration": 0.15625,
          "durationTicks": 192,
          "midi": 48,
          "name": "C3",
          "ticks": 23232,
          "time": 18.90625,
          "velocity": 0.3937007874015748
        },
        {
          "duration": 0.15625,
          "durationTicks": 192,
          "midi": 48,
          "name": "C3",
          "ticks": 23424,
          "time": 19.0625,
          "velocity": 0.3937007874015748
        },
        {
          "duration": 0.15625,
          "durationTicks": 192,
          "midi": 48,
          "name": "C3",
          "ticks": 23616,
          "time": 19.21875,
          "velocity": 0.3937007874015748
        },
        {
          "duration": 0.15625,
          "durationTicks": 192,
          "midi": 48,
          "name": "C3",
          "ticks": 23808,
          "time": 19.375,
          "velocity": 0.3937007874015748
        },
        {
          "duration": 0.15625,
          "durationTicks": 192,
          "midi": 48,
          "name": "C3",
          "ticks": 24000,
          "time": 19.53125,
          "velocity": 0.3937007874015748
        },
        {
          "duration": 0.078125,
          "durationTicks": 96,
          "midi": 62,
          "name": "D4",
          "ticks": 24192,
          "time": 19.6875,
          "velocity": 0.3937007874015748
        },
        {
          "duration": 0.15625,
          "durationTicks": 192,
          "midi": 48,
          "name": "C3",
          "ticks": 24192,
          "time": 19.6875,
          "velocity": 0.3937007874015748
        },
        {
          "duration": 0.078125,
          "durationTicks": 96,
          "midi": 74,
          "name": "D5",
          "ticks": 24192,
          "time": 19.6875,
          "velocity": 0.3937007874015748
        },
        {
          "duration": 0.078125,
          "durationTicks": 96,
          "midi": 86,
          "name": "D6",
          "ticks": 24192,
          "time": 19.6875,
          "velocity": 0.3937007874015748
        },
        {
          "duration": 0.078125,
          "durationTicks": 96,
          "midi": 76,
          "name": "E5",
          "ticks": 24384,
          "time": 19.84375,
          "velocity": 0.3937007874015748
        },
        {
          "duration": 0.078125,
          "durationTicks": 96,
          "midi": 88,
          "name": "E6",
          "ticks": 24384,
          "time": 19.84375,
          "velocity": 0.3937007874015748
        },
        {
          "duration": 0.078125,
          "durationTicks": 96,
          "midi": 64,
          "name": "E4",
          "ticks": 24384,
          "time": 19.84375,
          "velocity": 0.3937007874015748
        },
        {
          "duration": 0.15625,
          "durationTicks": 192,
          "midi": 48,
          "name": "C3",
          "ticks": 24384,
          "time": 19.84375,
          "velocity": 0.3937007874015748
        },
        {
          "duration": 0.546875,
          "durationTicks": 672,
          "midi": 65,
          "name": "F4",
          "ticks": 24576,
          "time": 20,
          "velocity": 0.3937007874015748
        },
        {
          "duration": 0.15625,
          "durationTicks": 192,
          "midi": 50,
          "name": "D3",
          "ticks": 24576,
          "time": 20,
          "velocity": 0.3937007874015748
        },
        {
          "duration": 0.546875,
          "durationTicks": 672,
          "midi": 77,
          "name": "F5",
          "ticks": 24576,
          "time": 20,
          "velocity": 0.3937007874015748
        },
        {
          "duration": 0.546875,
          "durationTicks": 672,
          "midi": 89,
          "name": "F6",
          "ticks": 24576,
          "time": 20,
          "velocity": 0.3937007874015748
        },
        {
          "duration": 0.15625,
          "durationTicks": 192,
          "midi": 50,
          "name": "D3",
          "ticks": 24768,
          "time": 20.15625,
          "velocity": 0.3937007874015748
        },
        {
          "duration": 0.15625,
          "durationTicks": 192,
          "midi": 50,
          "name": "D3",
          "ticks": 24960,
          "time": 20.3125,
          "velocity": 0.3937007874015748
        },
        {
          "duration": 0.15625,
          "durationTicks": 192,
          "midi": 50,
          "name": "D3",
          "ticks": 25152,
          "time": 20.46875,
          "velocity": 0.3937007874015748
        },
        {
          "duration": 0.234375,
          "durationTicks": 288,
          "midi": 71,
          "name": "B4",
          "ticks": 25344,
          "time": 20.625,
          "velocity": 0.3937007874015748
        },
        {
          "duration": 0.234375,
          "durationTicks": 288,
          "midi": 83,
          "name": "B5",
          "ticks": 25344,
          "time": 20.625,
          "velocity": 0.3937007874015748
        },
        {
          "duration": 0.234375,
          "durationTicks": 288,
          "midi": 59,
          "name": "B3",
          "ticks": 25344,
          "time": 20.625,
          "velocity": 0.3937007874015748
        },
        {
          "duration": 0.15625,
          "durationTicks": 192,
          "midi": 40,
          "name": "E2",
          "ticks": 25344,
          "time": 20.625,
          "velocity": 0.3937007874015748
        },
        {
          "duration": 0.15625,
          "durationTicks": 192,
          "midi": 40,
          "name": "E2",
          "ticks": 25536,
          "time": 20.78125,
          "velocity": 0.3937007874015748
        },
        {
          "duration": 0.078125,
          "durationTicks": 96,
          "midi": 60,
          "name": "C4",
          "ticks": 25728,
          "time": 20.9375,
          "velocity": 0.3937007874015748
        },
        {
          "duration": 0.15625,
          "durationTicks": 192,
          "midi": 40,
          "name": "E2",
          "ticks": 25728,
          "time": 20.9375,
          "velocity": 0.3937007874015748
        },
        {
          "duration": 0.078125,
          "durationTicks": 96,
          "midi": 72,
          "name": "C5",
          "ticks": 25728,
          "time": 20.9375,
          "velocity": 0.3937007874015748
        },
        {
          "duration": 0.078125,
          "durationTicks": 96,
          "midi": 84,
          "name": "C6",
          "ticks": 25728,
          "time": 20.9375,
          "velocity": 0.3937007874015748
        },
        {
          "duration": 0.078125,
          "durationTicks": 96,
          "midi": 62,
          "name": "D4",
          "ticks": 25920,
          "time": 21.09375,
          "velocity": 0.3937007874015748
        },
        {
          "duration": 0.15625,
          "durationTicks": 192,
          "midi": 40,
          "name": "E2",
          "ticks": 25920,
          "time": 21.09375,
          "velocity": 0.3937007874015748
        },
        {
          "duration": 0.078125,
          "durationTicks": 96,
          "midi": 74,
          "name": "D5",
          "ticks": 25920,
          "time": 21.09375,
          "velocity": 0.3937007874015748
        },
        {
          "duration": 0.078125,
          "durationTicks": 96,
          "midi": 86,
          "name": "D6",
          "ticks": 25920,
          "time": 21.09375,
          "velocity": 0.3937007874015748
        },
        {
          "duration": 0.15625,
          "durationTicks": 192,
          "midi": 45,
          "name": "A2",
          "ticks": 26112,
          "time": 21.25,
          "velocity": 0.3937007874015748
        },
        {
          "duration": 0.546875,
          "durationTicks": 672,
          "midi": 64,
          "name": "E4",
          "ticks": 26112,
          "time": 21.25,
          "velocity": 0.3937007874015748
        },
        {
          "duration": 0.546875,
          "durationTicks": 672,
          "midi": 76,
          "name": "E5",
          "ticks": 26112,
          "time": 21.25,
          "velocity": 0.3937007874015748
        },
        {
          "duration": 0.546875,
          "durationTicks": 672,
          "midi": 88,
          "name": "E6",
          "ticks": 26112,
          "time": 21.25,
          "velocity": 0.3937007874015748
        },
        {
          "duration": 0.15625,
          "durationTicks": 192,
          "midi": 45,
          "name": "A2",
          "ticks": 26304,
          "time": 21.40625,
          "velocity": 0.3937007874015748
        },
        {
          "duration": 0.15625,
          "durationTicks": 192,
          "midi": 45,
          "name": "A2",
          "ticks": 26496,
          "time": 21.5625,
          "velocity": 0.3937007874015748
        },
        {
          "duration": 0.15625,
          "durationTicks": 192,
          "midi": 45,
          "name": "A2",
          "ticks": 26688,
          "time": 21.71875,
          "velocity": 0.3937007874015748
        },
        {
          "duration": 0.234375,
          "durationTicks": 288,
          "midi": 57,
          "name": "A3",
          "ticks": 26880,
          "time": 21.875,
          "velocity": 0.3937007874015748
        },
        {
          "duration": 0.234375,
          "durationTicks": 288,
          "midi": 69,
          "name": "A4",
          "ticks": 26880,
          "time": 21.875,
          "velocity": 0.3937007874015748
        },
        {
          "duration": 0.234375,
          "durationTicks": 288,
          "midi": 81,
          "name": "A5",
          "ticks": 26880,
          "time": 21.875,
          "velocity": 0.3937007874015748
        },
        {
          "duration": 0.15625,
          "durationTicks": 192,
          "midi": 42,
          "name": "F#2",
          "ticks": 26880,
          "time": 21.875,
          "velocity": 0.3937007874015748
        },
        {
          "duration": 0.15625,
          "durationTicks": 192,
          "midi": 42,
          "name": "F#2",
          "ticks": 27072,
          "time": 22.03125,
          "velocity": 0.3937007874015748
        },
        {
          "duration": 0.078125,
          "durationTicks": 96,
          "midi": 69,
          "name": "A4",
          "ticks": 27264,
          "time": 22.1875,
          "velocity": 0.3937007874015748
        },
        {
          "duration": 0.15625,
          "durationTicks": 192,
          "midi": 42,
          "name": "F#2",
          "ticks": 27264,
          "time": 22.1875,
          "velocity": 0.3937007874015748
        },
        {
          "duration": 0.078125,
          "durationTicks": 96,
          "midi": 81,
          "name": "A5",
          "ticks": 27264,
          "time": 22.1875,
          "velocity": 0.3937007874015748
        },
        {
          "duration": 0.078125,
          "durationTicks": 96,
          "midi": 57,
          "name": "A3",
          "ticks": 27264,
          "time": 22.1875,
          "velocity": 0.3937007874015748
        },
        {
          "duration": 0.15625,
          "durationTicks": 192,
          "midi": 42,
          "name": "F#2",
          "ticks": 27456,
          "time": 22.34375,
          "velocity": 0.3937007874015748
        },
        {
          "duration": 0.078125,
          "durationTicks": 96,
          "midi": 59,
          "name": "B3",
          "ticks": 27456,
          "time": 22.34375,
          "velocity": 0.3937007874015748
        },
        {
          "duration": 0.078125,
          "durationTicks": 96,
          "midi": 71,
          "name": "B4",
          "ticks": 27456,
          "time": 22.34375,
          "velocity": 0.3937007874015748
        },
        {
          "duration": 0.078125,
          "durationTicks": 96,
          "midi": 83,
          "name": "B5",
          "ticks": 27456,
          "time": 22.34375,
          "velocity": 0.3937007874015748
        },
        {
          "duration": 0.390625,
          "durationTicks": 480,
          "midi": 60,
          "name": "C4",
          "ticks": 27648,
          "time": 22.5,
          "velocity": 0.3937007874015748
        },
        {
          "duration": 0.15625,
          "durationTicks": 192,
          "midi": 51,
          "name": "D#3",
          "ticks": 27648,
          "time": 22.5,
          "velocity": 0.3937007874015748
        },
        {
          "duration": 0.390625,
          "durationTicks": 480,
          "midi": 72,
          "name": "C5",
          "ticks": 27648,
          "time": 22.5,
          "velocity": 0.3937007874015748
        },
        {
          "duration": 0.390625,
          "durationTicks": 480,
          "midi": 84,
          "name": "C6",
          "ticks": 27648,
          "time": 22.5,
          "velocity": 0.3937007874015748
        },
        {
          "duration": 0.15625,
          "durationTicks": 192,
          "midi": 51,
          "name": "D#3",
          "ticks": 27840,
          "time": 22.65625,
          "velocity": 0.3937007874015748
        },
        {
          "duration": 0.15625,
          "durationTicks": 192,
          "midi": 51,
          "name": "D#3",
          "ticks": 28032,
          "time": 22.8125,
          "velocity": 0.3937007874015748
        },
        {
          "duration": 0.078125,
          "durationTicks": 96,
          "midi": 86,
          "name": "D6",
          "ticks": 28224,
          "time": 22.96875,
          "velocity": 0.3937007874015748
        },
        {
          "duration": 0.15625,
          "durationTicks": 192,
          "midi": 51,
          "name": "D#3",
          "ticks": 28224,
          "time": 22.96875,
          "velocity": 0.3937007874015748
        },
        {
          "duration": 0.078125,
          "durationTicks": 96,
          "midi": 74,
          "name": "D5",
          "ticks": 28224,
          "time": 22.96875,
          "velocity": 0.3937007874015748
        },
        {
          "duration": 0.078125,
          "durationTicks": 96,
          "midi": 62,
          "name": "D4",
          "ticks": 28224,
          "time": 22.96875,
          "velocity": 0.3937007874015748
        },
        {
          "duration": 0.390625,
          "durationTicks": 480,
          "midi": 83,
          "name": "B5",
          "ticks": 28416,
          "time": 23.125,
          "velocity": 0.3937007874015748
        },
        {
          "duration": 0.15625,
          "durationTicks": 192,
          "midi": 52,
          "name": "E3",
          "ticks": 28416,
          "time": 23.125,
          "velocity": 0.3937007874015748
        },
        {
          "duration": 0.390625,
          "durationTicks": 480,
          "midi": 59,
          "name": "B3",
          "ticks": 28416,
          "time": 23.125,
          "velocity": 0.3937007874015748
        },
        {
          "duration": 0.390625,
          "durationTicks": 480,
          "midi": 71,
          "name": "B4",
          "ticks": 28416,
          "time": 23.125,
          "velocity": 0.3937007874015748
        },
        {
          "duration": 0.15625,
          "durationTicks": 192,
          "midi": 52,
          "name": "E3",
          "ticks": 28608,
          "time": 23.28125,
          "velocity": 0.3937007874015748
        },
        {
          "duration": 0.15625,
          "durationTicks": 192,
          "midi": 52,
          "name": "E3",
          "ticks": 28800,
          "time": 23.4375,
          "velocity": 0.3937007874015748
        },
        {
          "duration": 0.078125,
          "durationTicks": 96,
          "midi": 84,
          "name": "C6",
          "ticks": 28992,
          "time": 23.59375,
          "velocity": 0.3937007874015748
        },
        {
          "duration": 0.078125,
          "durationTicks": 96,
          "midi": 72,
          "name": "C5",
          "ticks": 28992,
          "time": 23.59375,
          "velocity": 0.3937007874015748
        },
        {
          "duration": 0.078125,
          "durationTicks": 96,
          "midi": 60,
          "name": "C4",
          "ticks": 28992,
          "time": 23.59375,
          "velocity": 0.3937007874015748
        },
        {
          "duration": 0.15625,
          "durationTicks": 192,
          "midi": 52,
          "name": "E3",
          "ticks": 28992,
          "time": 23.59375,
          "velocity": 0.3937007874015748
        },
        {
          "duration": 0.546875,
          "durationTicks": 672,
          "midi": 69,
          "name": "A4",
          "ticks": 29184,
          "time": 23.75,
          "velocity": 0.3937007874015748
        },
        {
          "duration": 0.546875,
          "durationTicks": 672,
          "midi": 81,
          "name": "A5",
          "ticks": 29184,
          "time": 23.75,
          "velocity": 0.3937007874015748
        },
        {
          "duration": 0.546875,
          "durationTicks": 672,
          "midi": 57,
          "name": "A3",
          "ticks": 29184,
          "time": 23.75,
          "velocity": 0.3937007874015748
        },
        {
          "duration": 0.15625,
          "durationTicks": 192,
          "midi": 45,
          "name": "A2",
          "ticks": 29184,
          "time": 23.75,
          "velocity": 0.3937007874015748
        },
        {
          "duration": 0.15625,
          "durationTicks": 192,
          "midi": 45,
          "name": "A2",
          "ticks": 29376,
          "time": 23.90625,
          "velocity": 0.3937007874015748
        },
        {
          "duration": 0.15625,
          "durationTicks": 192,
          "midi": 45,
          "name": "A2",
          "ticks": 29568,
          "time": 24.0625,
          "velocity": 0.3937007874015748
        },
        {
          "duration": 0.15625,
          "durationTicks": 192,
          "midi": 45,
          "name": "A2",
          "ticks": 29760,
          "time": 24.21875,
          "velocity": 0.3937007874015748
        },
        {
          "duration": 0.15625,
          "durationTicks": 192,
          "midi": 45,
          "name": "A2",
          "ticks": 29952,
          "time": 24.375,
          "velocity": 0.3937007874015748
        },
        {
          "duration": 0.15625,
          "durationTicks": 192,
          "midi": 45,
          "name": "A2",
          "ticks": 30144,
          "time": 24.53125,
          "velocity": 0.3937007874015748
        },
        {
          "duration": 0.15625,
          "durationTicks": 192,
          "midi": 45,
          "name": "A2",
          "ticks": 30336,
          "time": 24.6875,
          "velocity": 0.3937007874015748
        },
        {
          "duration": 0.15625,
          "durationTicks": 192,
          "midi": 45,
          "name": "A2",
          "ticks": 30528,
          "time": 24.84375,
          "velocity": 0.3937007874015748
        },
        {
          "duration": 0.15625,
          "durationTicks": 192,
          "midi": 40,
          "name": "E2",
          "ticks": 30720,
          "time": 25,
          "velocity": 0.3937007874015748
        },
        {
          "duration": 0.15625,
          "durationTicks": 192,
          "midi": 40,
          "name": "E2",
          "ticks": 30912,
          "time": 25.15625,
          "velocity": 0.3937007874015748
        },
        {
          "duration": 0.15625,
          "durationTicks": 192,
          "midi": 40,
          "name": "E2",
          "ticks": 31104,
          "time": 25.3125,
          "velocity": 0.3937007874015748
        },
        {
          "duration": 0.15625,
          "durationTicks": 192,
          "midi": 40,
          "name": "E2",
          "ticks": 31296,
          "time": 25.46875,
          "velocity": 0.3937007874015748
        },
        {
          "duration": 0.15625,
          "durationTicks": 192,
          "midi": 44,
          "name": "G#2",
          "ticks": 31488,
          "time": 25.625,
          "velocity": 0.3937007874015748
        },
        {
          "duration": 0.15625,
          "durationTicks": 192,
          "midi": 44,
          "name": "G#2",
          "ticks": 31680,
          "time": 25.78125,
          "velocity": 0.3937007874015748
        },
        {
          "duration": 0.15625,
          "durationTicks": 192,
          "midi": 44,
          "name": "G#2",
          "ticks": 31872,
          "time": 25.9375,
          "velocity": 0.3937007874015748
        },
        {
          "duration": 0.15625,
          "durationTicks": 192,
          "midi": 44,
          "name": "G#2",
          "ticks": 32064,
          "time": 26.09375,
          "velocity": 0.3937007874015748
        },
        {
          "duration": 0.15625,
          "durationTicks": 192,
          "midi": 45,
          "name": "A2",
          "ticks": 32256,
          "time": 26.25,
          "velocity": 0.3937007874015748
        },
        {
          "duration": 0.15625,
          "durationTicks": 192,
          "midi": 45,
          "name": "A2",
          "ticks": 32448,
          "time": 26.40625,
          "velocity": 0.3937007874015748
        },
        {
          "duration": 0.15625,
          "durationTicks": 192,
          "midi": 45,
          "name": "A2",
          "ticks": 32640,
          "time": 26.5625,
          "velocity": 0.3937007874015748
        },
        {
          "duration": 0.15625,
          "durationTicks": 192,
          "midi": 45,
          "name": "A2",
          "ticks": 32832,
          "time": 26.71875,
          "velocity": 0.3937007874015748
        },
        {
          "duration": 0.15625,
          "durationTicks": 192,
          "midi": 45,
          "name": "A2",
          "ticks": 33024,
          "time": 26.875,
          "velocity": 0.3937007874015748
        },
        {
          "duration": 0.15625,
          "durationTicks": 192,
          "midi": 45,
          "name": "A2",
          "ticks": 33216,
          "time": 27.03125,
          "velocity": 0.3937007874015748
        },
        {
          "duration": 0.15625,
          "durationTicks": 192,
          "midi": 45,
          "name": "A2",
          "ticks": 33408,
          "time": 27.1875,
          "velocity": 0.3937007874015748
        },
        {
          "duration": 0.15625,
          "durationTicks": 192,
          "midi": 45,
          "name": "A2",
          "ticks": 33600,
          "time": 27.34375,
          "velocity": 0.3937007874015748
        },
        {
          "duration": 0.15625,
          "durationTicks": 192,
          "midi": 43,
          "name": "G2",
          "ticks": 33792,
          "time": 27.5,
          "velocity": 0.3937007874015748
        },
        {
          "duration": 0.15625,
          "durationTicks": 192,
          "midi": 43,
          "name": "G2",
          "ticks": 33984,
          "time": 27.65625,
          "velocity": 0.3937007874015748
        },
        {
          "duration": 0.15625,
          "durationTicks": 192,
          "midi": 43,
          "name": "G2",
          "ticks": 34176,
          "time": 27.8125,
          "velocity": 0.3937007874015748
        },
        {
          "duration": 0.15625,
          "durationTicks": 192,
          "midi": 43,
          "name": "G2",
          "ticks": 34368,
          "time": 27.96875,
          "velocity": 0.3937007874015748
        },
        {
          "duration": 0.15625,
          "durationTicks": 192,
          "midi": 47,
          "name": "B2",
          "ticks": 34560,
          "time": 28.125,
          "velocity": 0.3937007874015748
        },
        {
          "duration": 0.15625,
          "durationTicks": 192,
          "midi": 47,
          "name": "B2",
          "ticks": 34752,
          "time": 28.28125,
          "velocity": 0.3937007874015748
        },
        {
          "duration": 0.15625,
          "durationTicks": 192,
          "midi": 47,
          "name": "B2",
          "ticks": 34944,
          "time": 28.4375,
          "velocity": 0.3937007874015748
        },
        {
          "duration": 0.15625,
          "durationTicks": 192,
          "midi": 47,
          "name": "B2",
          "ticks": 35136,
          "time": 28.59375,
          "velocity": 0.3937007874015748
        },
        {
          "duration": 0.15625,
          "durationTicks": 192,
          "midi": 48,
          "name": "C3",
          "ticks": 35328,
          "time": 28.75,
          "velocity": 0.3937007874015748
        },
        {
          "duration": 0.15625,
          "durationTicks": 192,
          "midi": 48,
          "name": "C3",
          "ticks": 35520,
          "time": 28.90625,
          "velocity": 0.3937007874015748
        },
        {
          "duration": 0.15625,
          "durationTicks": 192,
          "midi": 48,
          "name": "C3",
          "ticks": 35712,
          "time": 29.0625,
          "velocity": 0.3937007874015748
        },
        {
          "duration": 0.15625,
          "durationTicks": 192,
          "midi": 48,
          "name": "C3",
          "ticks": 35904,
          "time": 29.21875,
          "velocity": 0.3937007874015748
        },
        {
          "duration": 0.15625,
          "durationTicks": 192,
          "midi": 48,
          "name": "C3",
          "ticks": 36096,
          "time": 29.375,
          "velocity": 0.3937007874015748
        },
        {
          "duration": 0.15625,
          "durationTicks": 192,
          "midi": 48,
          "name": "C3",
          "ticks": 36288,
          "time": 29.53125,
          "velocity": 0.3937007874015748
        },
        {
          "duration": 0.15625,
          "durationTicks": 192,
          "midi": 48,
          "name": "C3",
          "ticks": 36480,
          "time": 29.6875,
          "velocity": 0.3937007874015748
        },
        {
          "duration": 0.15625,
          "durationTicks": 192,
          "midi": 48,
          "name": "C3",
          "ticks": 36672,
          "time": 29.84375,
          "velocity": 0.3937007874015748
        },
        {
          "duration": 0.15625,
          "durationTicks": 192,
          "midi": 45,
          "name": "A2",
          "ticks": 36864,
          "time": 30,
          "velocity": 0.3937007874015748
        },
        {
          "duration": 0.15625,
          "durationTicks": 192,
          "midi": 45,
          "name": "A2",
          "ticks": 37056,
          "time": 30.15625,
          "velocity": 0.3937007874015748
        },
        {
          "duration": 0.15625,
          "durationTicks": 192,
          "midi": 45,
          "name": "A2",
          "ticks": 37248,
          "time": 30.3125,
          "velocity": 0.3937007874015748
        },
        {
          "duration": 0.15625,
          "durationTicks": 192,
          "midi": 45,
          "name": "A2",
          "ticks": 37440,
          "time": 30.46875,
          "velocity": 0.3937007874015748
        },
        {
          "duration": 0.15625,
          "durationTicks": 192,
          "midi": 49,
          "name": "C#3",
          "ticks": 37632,
          "time": 30.625,
          "velocity": 0.3937007874015748
        },
        {
          "duration": 0.15625,
          "durationTicks": 192,
          "midi": 49,
          "name": "C#3",
          "ticks": 37824,
          "time": 30.78125,
          "velocity": 0.3937007874015748
        },
        {
          "duration": 0.15625,
          "durationTicks": 192,
          "midi": 49,
          "name": "C#3",
          "ticks": 38016,
          "time": 30.9375,
          "velocity": 0.3937007874015748
        },
        {
          "duration": 0.15625,
          "durationTicks": 192,
          "midi": 49,
          "name": "C#3",
          "ticks": 38208,
          "time": 31.09375,
          "velocity": 0.3937007874015748
        },
        {
          "duration": 0.15625,
          "durationTicks": 192,
          "midi": 50,
          "name": "D3",
          "ticks": 38400,
          "time": 31.25,
          "velocity": 0.3937007874015748
        },
        {
          "duration": 0.15625,
          "durationTicks": 192,
          "midi": 50,
          "name": "D3",
          "ticks": 38592,
          "time": 31.40625,
          "velocity": 0.3937007874015748
        },
        {
          "duration": 0.15625,
          "durationTicks": 192,
          "midi": 50,
          "name": "D3",
          "ticks": 38784,
          "time": 31.5625,
          "velocity": 0.3937007874015748
        },
        {
          "duration": 0.15625,
          "durationTicks": 192,
          "midi": 50,
          "name": "D3",
          "ticks": 38976,
          "time": 31.71875,
          "velocity": 0.3937007874015748
        },
        {
          "duration": 0.15625,
          "durationTicks": 192,
          "midi": 48,
          "name": "C3",
          "ticks": 39168,
          "time": 31.875,
          "velocity": 0.3937007874015748
        },
        {
          "duration": 0.15625,
          "durationTicks": 192,
          "midi": 48,
          "name": "C3",
          "ticks": 39360,
          "time": 32.03125,
          "velocity": 0.3937007874015748
        },
        {
          "duration": 0.15625,
          "durationTicks": 192,
          "midi": 48,
          "name": "C3",
          "ticks": 39552,
          "time": 32.1875,
          "velocity": 0.3937007874015748
        },
        {
          "duration": 0.15625,
          "durationTicks": 192,
          "midi": 48,
          "name": "C3",
          "ticks": 39744,
          "time": 32.34375,
          "velocity": 0.3937007874015748
        },
        {
          "duration": 0.15625,
          "durationTicks": 192,
          "midi": 47,
          "name": "B2",
          "ticks": 39936,
          "time": 32.5,
          "velocity": 0.3937007874015748
        },
        {
          "duration": 0.15625,
          "durationTicks": 192,
          "midi": 47,
          "name": "B2",
          "ticks": 40128,
          "time": 32.65625,
          "velocity": 0.3937007874015748
        },
        {
          "duration": 0.15625,
          "durationTicks": 192,
          "midi": 47,
          "name": "B2",
          "ticks": 40320,
          "time": 32.8125,
          "velocity": 0.3937007874015748
        },
        {
          "duration": 0.15625,
          "durationTicks": 192,
          "midi": 47,
          "name": "B2",
          "ticks": 40512,
          "time": 32.96875,
          "velocity": 0.3937007874015748
        },
        {
          "duration": 0.15625,
          "durationTicks": 192,
          "midi": 51,
          "name": "D#3",
          "ticks": 40704,
          "time": 33.125,
          "velocity": 0.3937007874015748
        },
        {
          "duration": 0.15625,
          "durationTicks": 192,
          "midi": 51,
          "name": "D#3",
          "ticks": 40896,
          "time": 33.28125,
          "velocity": 0.3937007874015748
        },
        {
          "duration": 0.15625,
          "durationTicks": 192,
          "midi": 51,
          "name": "D#3",
          "ticks": 41088,
          "time": 33.4375,
          "velocity": 0.3937007874015748
        },
        {
          "duration": 0.15625,
          "durationTicks": 192,
          "midi": 51,
          "name": "D#3",
          "ticks": 41280,
          "time": 33.59375,
          "velocity": 0.3937007874015748
        },
        {
          "duration": 0.15625,
          "durationTicks": 192,
          "midi": 52,
          "name": "E3",
          "ticks": 41472,
          "time": 33.75,
          "velocity": 0.3937007874015748
        },
        {
          "duration": 0.15625,
          "durationTicks": 192,
          "midi": 52,
          "name": "E3",
          "ticks": 41664,
          "time": 33.90625,
          "velocity": 0.3937007874015748
        },
        {
          "duration": 0.15625,
          "durationTicks": 192,
          "midi": 52,
          "name": "E3",
          "ticks": 41856,
          "time": 34.0625,
          "velocity": 0.3937007874015748
        },
        {
          "duration": 0.15625,
          "durationTicks": 192,
          "midi": 52,
          "name": "E3",
          "ticks": 42048,
          "time": 34.21875,
          "velocity": 0.3937007874015748
        },
        {
          "duration": 0.15625,
          "durationTicks": 192,
          "midi": 52,
          "name": "E3",
          "ticks": 42240,
          "time": 34.375,
          "velocity": 0.3937007874015748
        },
        {
          "duration": 0.15625,
          "durationTicks": 192,
          "midi": 52,
          "name": "E3",
          "ticks": 42432,
          "time": 34.53125,
          "velocity": 0.3937007874015748
        },
        {
          "duration": 0.15625,
          "durationTicks": 192,
          "midi": 52,
          "name": "E3",
          "ticks": 42624,
          "time": 34.6875,
          "velocity": 0.3937007874015748
        },
        {
          "duration": 0.15625,
          "durationTicks": 192,
          "midi": 52,
          "name": "E3",
          "ticks": 42816,
          "time": 34.84375,
          "velocity": 0.3937007874015748
        },
        {
          "duration": 0.15625,
          "durationTicks": 192,
          "midi": 40,
          "name": "E2",
          "ticks": 43008,
          "time": 35,
          "velocity": 0.3937007874015748
        },
        {
          "duration": 0.390625,
          "durationTicks": 480,
          "midi": 76,
          "name": "E5",
          "ticks": 43008,
          "time": 35,
          "velocity": 0.3937007874015748
        },
        {
          "duration": 0.15625,
          "durationTicks": 192,
          "midi": 40,
          "name": "E2",
          "ticks": 43200,
          "time": 35.15625,
          "velocity": 0.3937007874015748
        },
        {
          "duration": 0.15625,
          "durationTicks": 192,
          "midi": 40,
          "name": "E2",
          "ticks": 43392,
          "time": 35.3125,
          "velocity": 0.3937007874015748
        },
        {
          "duration": 0.078125,
          "durationTicks": 96,
          "midi": 74,
          "name": "D5",
          "ticks": 43584,
          "time": 35.46875,
          "velocity": 0.3937007874015748
        },
        {
          "duration": 0.15625,
          "durationTicks": 192,
          "midi": 40,
          "name": "E2",
          "ticks": 43584,
          "time": 35.46875,
          "velocity": 0.3937007874015748
        },
        {
          "duration": 0.078125,
          "durationTicks": 96,
          "midi": 72,
          "name": "C5",
          "ticks": 43680,
          "time": 35.546875,
          "velocity": 0.3937007874015748
        },
        {
          "duration": 0.15625,
          "durationTicks": 192,
          "midi": 44,
          "name": "G#2",
          "ticks": 43776,
          "time": 35.625,
          "velocity": 0.3937007874015748
        },
        {
          "duration": 0.078125,
          "durationTicks": 96,
          "midi": 71,
          "name": "B4",
          "ticks": 43776,
          "time": 35.625,
          "velocity": 0.3937007874015748
        },
        {
          "duration": 0.078125,
          "durationTicks": 96,
          "midi": 64,
          "name": "E4",
          "ticks": 43872,
          "time": 35.703125,
          "velocity": 0.3937007874015748
        },
        {
          "duration": 0.15625,
          "durationTicks": 192,
          "midi": 44,
          "name": "G#2",
          "ticks": 43968,
          "time": 35.78125,
          "velocity": 0.3937007874015748
        },
        {
          "duration": 0.078125,
          "durationTicks": 96,
          "midi": 72,
          "name": "C5",
          "ticks": 43968,
          "time": 35.78125,
          "velocity": 0.3937007874015748
        },
        {
          "duration": 0.078125,
          "durationTicks": 96,
          "midi": 64,
          "name": "E4",
          "ticks": 44064,
          "time": 35.859375,
          "velocity": 0.3937007874015748
        },
        {
          "duration": 0.078125,
          "durationTicks": 96,
          "midi": 74,
          "name": "D5",
          "ticks": 44160,
          "time": 35.9375,
          "velocity": 0.3937007874015748
        },
        {
          "duration": 0.15625,
          "durationTicks": 192,
          "midi": 44,
          "name": "G#2",
          "ticks": 44160,
          "time": 35.9375,
          "velocity": 0.3937007874015748
        },
        {
          "duration": 0.15625,
          "durationTicks": 192,
          "midi": 44,
          "name": "G#2",
          "ticks": 44352,
          "time": 36.09375,
          "velocity": 0.3937007874015748
        },
        {
          "duration": 0.078125,
          "durationTicks": 96,
          "midi": 64,
          "name": "E4",
          "ticks": 44352,
          "time": 36.09375,
          "velocity": 0.3937007874015748
        },
        {
          "duration": 0.15625,
          "durationTicks": 192,
          "midi": 45,
          "name": "A2",
          "ticks": 44544,
          "time": 36.25,
          "velocity": 0.3937007874015748
        },
        {
          "duration": 0.078125,
          "durationTicks": 96,
          "midi": 72,
          "name": "C5",
          "ticks": 44544,
          "time": 36.25,
          "velocity": 0.3937007874015748
        },
        {
          "duration": 0.078125,
          "durationTicks": 96,
          "midi": 64,
          "name": "E4",
          "ticks": 44640,
          "time": 36.328125,
          "velocity": 0.3937007874015748
        },
        {
          "duration": 0.078125,
          "durationTicks": 96,
          "midi": 71,
          "name": "B4",
          "ticks": 44736,
          "time": 36.40625,
          "velocity": 0.3937007874015748
        },
        {
          "duration": 0.15625,
          "durationTicks": 192,
          "midi": 45,
          "name": "A2",
          "ticks": 44736,
          "time": 36.40625,
          "velocity": 0.3937007874015748
        },
        {
          "duration": 0.15625,
          "durationTicks": 192,
          "midi": 45,
          "name": "A2",
          "ticks": 44928,
          "time": 36.5625,
          "velocity": 0.3937007874015748
        },
        {
          "duration": 0.078125,
          "durationTicks": 96,
          "midi": 69,
          "name": "A4",
          "ticks": 44928,
          "time": 36.5625,
          "velocity": 0.3937007874015748
        },
        {
          "duration": 0.078125,
          "durationTicks": 96,
          "midi": 68,
          "name": "G#4",
          "ticks": 45120,
          "time": 36.71875,
          "velocity": 0.3937007874015748
        },
        {
          "duration": 0.15625,
          "durationTicks": 192,
          "midi": 45,
          "name": "A2",
          "ticks": 45120,
          "time": 36.71875,
          "velocity": 0.3937007874015748
        },
        {
          "duration": 0.15625,
          "durationTicks": 192,
          "midi": 45,
          "name": "A2",
          "ticks": 45312,
          "time": 36.875,
          "velocity": 0.3937007874015748
        },
        {
          "duration": 0.078125,
          "durationTicks": 96,
          "midi": 69,
          "name": "A4",
          "ticks": 45312,
          "time": 36.875,
          "velocity": 0.3937007874015748
        },
        {
          "duration": 0.078125,
          "durationTicks": 96,
          "midi": 64,
          "name": "E4",
          "ticks": 45408,
          "time": 36.953125,
          "velocity": 0.3937007874015748
        },
        {
          "duration": 0.078125,
          "durationTicks": 96,
          "midi": 71,
          "name": "B4",
          "ticks": 45504,
          "time": 37.03125,
          "velocity": 0.3937007874015748
        },
        {
          "duration": 0.15625,
          "durationTicks": 192,
          "midi": 45,
          "name": "A2",
          "ticks": 45504,
          "time": 37.03125,
          "velocity": 0.3937007874015748
        },
        {
          "duration": 0.078125,
          "durationTicks": 96,
          "midi": 64,
          "name": "E4",
          "ticks": 45600,
          "time": 37.109375,
          "velocity": 0.3937007874015748
        },
        {
          "duration": 0.15625,
          "durationTicks": 192,
          "midi": 45,
          "name": "A2",
          "ticks": 45696,
          "time": 37.1875,
          "velocity": 0.3937007874015748
        },
        {
          "duration": 0.078125,
          "durationTicks": 96,
          "midi": 72,
          "name": "C5",
          "ticks": 45696,
          "time": 37.1875,
          "velocity": 0.3937007874015748
        },
        {
          "duration": 0.078125,
          "durationTicks": 96,
          "midi": 64,
          "name": "E4",
          "ticks": 45792,
          "time": 37.265625,
          "velocity": 0.3937007874015748
        },
        {
          "duration": 0.15625,
          "durationTicks": 192,
          "midi": 45,
          "name": "A2",
          "ticks": 45888,
          "time": 37.34375,
          "velocity": 0.3937007874015748
        },
        {
          "duration": 0.078125,
          "durationTicks": 96,
          "midi": 69,
          "name": "A4",
          "ticks": 45888,
          "time": 37.34375,
          "velocity": 0.3937007874015748
        },
        {
          "duration": 0.078125,
          "durationTicks": 96,
          "midi": 64,
          "name": "E4",
          "ticks": 45984,
          "time": 37.421875,
          "velocity": 0.3937007874015748
        },
        {
          "duration": 0.390625,
          "durationTicks": 480,
          "midi": 71,
          "name": "B4",
          "ticks": 46080,
          "time": 37.5,
          "velocity": 0.3937007874015748
        },
        {
          "duration": 0.15625,
          "durationTicks": 192,
          "midi": 43,
          "name": "G2",
          "ticks": 46080,
          "time": 37.5,
          "velocity": 0.3937007874015748
        },
        {
          "duration": 0.15625,
          "durationTicks": 192,
          "midi": 43,
          "name": "G2",
          "ticks": 46272,
          "time": 37.65625,
          "velocity": 0.3937007874015748
        },
        {
          "duration": 0.15625,
          "durationTicks": 192,
          "midi": 43,
          "name": "G2",
          "ticks": 46464,
          "time": 37.8125,
          "velocity": 0.3937007874015748
        },
        {
          "duration": 0.078125,
          "durationTicks": 96,
          "midi": 67,
          "name": "G4",
          "ticks": 46656,
          "time": 37.96875,
          "velocity": 0.3937007874015748
        },
        {
          "duration": 0.15625,
          "durationTicks": 192,
          "midi": 43,
          "name": "G2",
          "ticks": 46656,
          "time": 37.96875,
          "velocity": 0.3937007874015748
        },
        {
          "duration": 0.078125,
          "durationTicks": 96,
          "midi": 71,
          "name": "B4",
          "ticks": 46752,
          "time": 38.046875,
          "velocity": 0.3937007874015748
        },
        {
          "duration": 0.15625,
          "durationTicks": 192,
          "midi": 79,
          "name": "G5",
          "ticks": 46848,
          "time": 38.125,
          "velocity": 0.3937007874015748
        },
        {
          "duration": 0.15625,
          "durationTicks": 192,
          "midi": 47,
          "name": "B2",
          "ticks": 46848,
          "time": 38.125,
          "velocity": 0.3937007874015748
        },
        {
          "duration": 0.15625,
          "durationTicks": 192,
          "midi": 47,
          "name": "B2",
          "ticks": 47040,
          "time": 38.28125,
          "velocity": 0.3937007874015748
        },
        {
          "duration": 0.15625,
          "durationTicks": 192,
          "midi": 77,
          "name": "F5",
          "ticks": 47040,
          "time": 38.28125,
          "velocity": 0.3937007874015748
        },
        {
          "duration": 0.15625,
          "durationTicks": 192,
          "midi": 76,
          "name": "E5",
          "ticks": 47232,
          "time": 38.4375,
          "velocity": 0.3937007874015748
        },
        {
          "duration": 0.15625,
          "durationTicks": 192,
          "midi": 47,
          "name": "B2",
          "ticks": 47232,
          "time": 38.4375,
          "velocity": 0.3937007874015748
        },
        {
          "duration": 0.15625,
          "durationTicks": 192,
          "midi": 74,
          "name": "D5",
          "ticks": 47424,
          "time": 38.59375,
          "velocity": 0.3937007874015748
        },
        {
          "duration": 0.15625,
          "durationTicks": 192,
          "midi": 47,
          "name": "B2",
          "ticks": 47424,
          "time": 38.59375,
          "velocity": 0.3937007874015748
        },
        {
          "duration": 0.15625,
          "durationTicks": 192,
          "midi": 48,
          "name": "C3",
          "ticks": 47616,
          "time": 38.75,
          "velocity": 0.3937007874015748
        },
        {
          "duration": 0.078125,
          "durationTicks": 96,
          "midi": 76,
          "name": "E5",
          "ticks": 47616,
          "time": 38.75,
          "velocity": 0.3937007874015748
        },
        {
          "duration": 0.078125,
          "durationTicks": 96,
          "midi": 67,
          "name": "G4",
          "ticks": 47712,
          "time": 38.828125,
          "velocity": 0.3937007874015748
        },
        {
          "duration": 0.15625,
          "durationTicks": 192,
          "midi": 48,
          "name": "C3",
          "ticks": 47808,
          "time": 38.90625,
          "velocity": 0.3937007874015748
        },
        {
          "duration": 0.078125,
          "durationTicks": 96,
          "midi": 74,
          "name": "D5",
          "ticks": 47808,
          "time": 38.90625,
          "velocity": 0.3937007874015748
        },
        {
          "duration": 0.078125,
          "durationTicks": 96,
          "midi": 67,
          "name": "G4",
          "ticks": 47904,
          "time": 38.984375,
          "velocity": 0.3937007874015748
        },
        {
          "duration": 0.078125,
          "durationTicks": 96,
          "midi": 72,
          "name": "C5",
          "ticks": 48000,
          "time": 39.0625,
          "velocity": 0.3937007874015748
        },
        {
          "duration": 0.15625,
          "durationTicks": 192,
          "midi": 48,
          "name": "C3",
          "ticks": 48000,
          "time": 39.0625,
          "velocity": 0.3937007874015748
        },
        {
          "duration": 0.078125,
          "durationTicks": 96,
          "midi": 67,
          "name": "G4",
          "ticks": 48096,
          "time": 39.140625,
          "velocity": 0.3937007874015748
        },
        {
          "duration": 0.078125,
          "durationTicks": 96,
          "midi": 71,
          "name": "B4",
          "ticks": 48192,
          "time": 39.21875,
          "velocity": 0.3937007874015748
        },
        {
          "duration": 0.15625,
          "durationTicks": 192,
          "midi": 48,
          "name": "C3",
          "ticks": 48192,
          "time": 39.21875,
          "velocity": 0.3937007874015748
        },
        {
          "duration": 0.078125,
          "durationTicks": 96,
          "midi": 67,
          "name": "G4",
          "ticks": 48288,
          "time": 39.296875,
          "velocity": 0.3937007874015748
        },
        {
          "duration": 0.15625,
          "durationTicks": 192,
          "midi": 48,
          "name": "C3",
          "ticks": 48384,
          "time": 39.375,
          "velocity": 0.3937007874015748
        },
        {
          "duration": 0.078125,
          "durationTicks": 96,
          "midi": 72,
          "name": "C5",
          "ticks": 48384,
          "time": 39.375,
          "velocity": 0.3937007874015748
        },
        {
          "duration": 0.078125,
          "durationTicks": 96,
          "midi": 67,
          "name": "G4",
          "ticks": 48480,
          "time": 39.453125,
          "velocity": 0.3937007874015748
        },
        {
          "duration": 0.15625,
          "durationTicks": 192,
          "midi": 48,
          "name": "C3",
          "ticks": 48576,
          "time": 39.53125,
          "velocity": 0.3937007874015748
        },
        {
          "duration": 0.078125,
          "durationTicks": 96,
          "midi": 74,
          "name": "D5",
          "ticks": 48576,
          "time": 39.53125,
          "velocity": 0.3937007874015748
        },
        {
          "duration": 0.078125,
          "durationTicks": 96,
          "midi": 67,
          "name": "G4",
          "ticks": 48672,
          "time": 39.609375,
          "velocity": 0.3937007874015748
        },
        {
          "duration": 0.15625,
          "durationTicks": 192,
          "midi": 48,
          "name": "C3",
          "ticks": 48768,
          "time": 39.6875,
          "velocity": 0.3937007874015748
        },
        {
          "duration": 0.078125,
          "durationTicks": 96,
          "midi": 76,
          "name": "E5",
          "ticks": 48768,
          "time": 39.6875,
          "velocity": 0.3937007874015748
        },
        {
          "duration": 0.078125,
          "durationTicks": 96,
          "midi": 67,
          "name": "G4",
          "ticks": 48864,
          "time": 39.765625,
          "velocity": 0.3937007874015748
        },
        {
          "duration": 0.15625,
          "durationTicks": 192,
          "midi": 48,
          "name": "C3",
          "ticks": 48960,
          "time": 39.84375,
          "velocity": 0.3937007874015748
        },
        {
          "duration": 0.078125,
          "durationTicks": 96,
          "midi": 72,
          "name": "C5",
          "ticks": 48960,
          "time": 39.84375,
          "velocity": 0.3937007874015748
        },
        {
          "duration": 0.078125,
          "durationTicks": 96,
          "midi": 67,
          "name": "G4",
          "ticks": 49056,
          "time": 39.921875,
          "velocity": 0.3937007874015748
        },
        {
          "duration": 0.15625,
          "durationTicks": 192,
          "midi": 45,
          "name": "A2",
          "ticks": 49152,
          "time": 40,
          "velocity": 0.3937007874015748
        },
        {
          "duration": 0.390625,
          "durationTicks": 480,
          "midi": 82,
          "name": "A#5",
          "ticks": 49152,
          "time": 40,
          "velocity": 0.3937007874015748
        },
        {
          "duration": 0.15625,
          "durationTicks": 192,
          "midi": 45,
          "name": "A2",
          "ticks": 49344,
          "time": 40.15625,
          "velocity": 0.3937007874015748
        },
        {
          "duration": 0.15625,
          "durationTicks": 192,
          "midi": 45,
          "name": "A2",
          "ticks": 49536,
          "time": 40.3125,
          "velocity": 0.3937007874015748
        },
        {
          "duration": 0.15625,
          "durationTicks": 192,
          "midi": 45,
          "name": "A2",
          "ticks": 49728,
          "time": 40.46875,
          "velocity": 0.3937007874015748
        },
        {
          "duration": 0.078125,
          "durationTicks": 96,
          "midi": 79,
          "name": "G5",
          "ticks": 49728,
          "time": 40.46875,
          "velocity": 0.3937007874015748
        },
        {
          "duration": 0.078125,
          "durationTicks": 96,
          "midi": 82,
          "name": "A#5",
          "ticks": 49824,
          "time": 40.546875,
          "velocity": 0.3937007874015748
        },
        {
          "duration": 0.15625,
          "durationTicks": 192,
          "midi": 49,
          "name": "C#3",
          "ticks": 49920,
          "time": 40.625,
          "velocity": 0.3937007874015748
        },
        {
          "duration": 0.078125,
          "durationTicks": 96,
          "midi": 79,
          "name": "G5",
          "ticks": 49920,
          "time": 40.625,
          "velocity": 0.3937007874015748
        },
        {
          "duration": 0.078125,
          "durationTicks": 96,
          "midi": 82,
          "name": "A#5",
          "ticks": 50016,
          "time": 40.703125,
          "velocity": 0.3937007874015748
        },
        {
          "duration": 0.078125,
          "durationTicks": 96,
          "midi": 76,
          "name": "E5",
          "ticks": 50112,
          "time": 40.78125,
          "velocity": 0.3937007874015748
        },
        {
          "duration": 0.15625,
          "durationTicks": 192,
          "midi": 49,
          "name": "C#3",
          "ticks": 50112,
          "time": 40.78125,
          "velocity": 0.3937007874015748
        },
        {
          "duration": 0.078125,
          "durationTicks": 96,
          "midi": 79,
          "name": "G5",
          "ticks": 50208,
          "time": 40.859375,
          "velocity": 0.3937007874015748
        },
        {
          "duration": 0.15625,
          "durationTicks": 192,
          "midi": 49,
          "name": "C#3",
          "ticks": 50304,
          "time": 40.9375,
          "velocity": 0.3937007874015748
        },
        {
          "duration": 0.078125,
          "durationTicks": 96,
          "midi": 73,
          "name": "C#5",
          "ticks": 50304,
          "time": 40.9375,
          "velocity": 0.3937007874015748
        },
        {
          "duration": 0.078125,
          "durationTicks": 96,
          "midi": 76,
          "name": "E5",
          "ticks": 50400,
          "time": 41.015625,
          "velocity": 0.3937007874015748
        },
        {
          "duration": 0.078125,
          "durationTicks": 96,
          "midi": 69,
          "name": "A4",
          "ticks": 50496,
          "time": 41.09375,
          "velocity": 0.3937007874015748
        },
        {
          "duration": 0.15625,
          "durationTicks": 192,
          "midi": 49,
          "name": "C#3",
          "ticks": 50496,
          "time": 41.09375,
          "velocity": 0.3937007874015748
        },
        {
          "duration": 0.078125,
          "durationTicks": 96,
          "midi": 76,
          "name": "E5",
          "ticks": 50592,
          "time": 41.171875,
          "velocity": 0.3937007874015748
        },
        {
          "duration": 0.15625,
          "durationTicks": 192,
          "midi": 50,
          "name": "D3",
          "ticks": 50688,
          "time": 41.25,
          "velocity": 0.3937007874015748
        },
        {
          "duration": 0.078125,
          "durationTicks": 96,
          "midi": 81,
          "name": "A5",
          "ticks": 50688,
          "time": 41.25,
          "velocity": 0.3937007874015748
        },
        {
          "duration": 0.15625,
          "durationTicks": 192,
          "midi": 50,
          "name": "D3",
          "ticks": 50880,
          "time": 41.40625,
          "velocity": 0.3937007874015748
        },
        {
          "duration": 0.078125,
          "durationTicks": 96,
          "midi": 79,
          "name": "G5",
          "ticks": 50880,
          "time": 41.40625,
          "velocity": 0.3937007874015748
        },
        {
          "duration": 0.078125,
          "durationTicks": 96,
          "midi": 81,
          "name": "A5",
          "ticks": 50976,
          "time": 41.484375,
          "velocity": 0.3937007874015748
        },
        {
          "duration": 0.15625,
          "durationTicks": 192,
          "midi": 50,
          "name": "D3",
          "ticks": 51072,
          "time": 41.5625,
          "velocity": 0.3937007874015748
        },
        {
          "duration": 0.078125,
          "durationTicks": 96,
          "midi": 77,
          "name": "F5",
          "ticks": 51072,
          "time": 41.5625,
          "velocity": 0.3937007874015748
        },
        {
          "duration": 0.078125,
          "durationTicks": 96,
          "midi": 81,
          "name": "A5",
          "ticks": 51264,
          "time": 41.71875,
          "velocity": 0.3937007874015748
        },
        {
          "duration": 0.15625,
          "durationTicks": 192,
          "midi": 50,
          "name": "D3",
          "ticks": 51264,
          "time": 41.71875,
          "velocity": 0.3937007874015748
        },
        {
          "duration": 0.15625,
          "durationTicks": 192,
          "midi": 48,
          "name": "C3",
          "ticks": 51456,
          "time": 41.875,
          "velocity": 0.3937007874015748
        },
        {
          "duration": 0.078125,
          "durationTicks": 96,
          "midi": 76,
          "name": "E5",
          "ticks": 51456,
          "time": 41.875,
          "velocity": 0.3937007874015748
        },
        {
          "duration": 0.15625,
          "durationTicks": 192,
          "midi": 48,
          "name": "C3",
          "ticks": 51648,
          "time": 42.03125,
          "velocity": 0.3937007874015748
        },
        {
          "duration": 0.078125,
          "durationTicks": 96,
          "midi": 81,
          "name": "A5",
          "ticks": 51648,
          "time": 42.03125,
          "velocity": 0.3937007874015748
        },
        {
          "duration": 0.078125,
          "durationTicks": 96,
          "midi": 74,
          "name": "D5",
          "ticks": 51840,
          "time": 42.1875,
          "velocity": 0.3937007874015748
        },
        {
          "duration": 0.15625,
          "durationTicks": 192,
          "midi": 48,
          "name": "C3",
          "ticks": 51840,
          "time": 42.1875,
          "velocity": 0.3937007874015748
        },
        {
          "duration": 0.15625,
          "durationTicks": 192,
          "midi": 48,
          "name": "C3",
          "ticks": 52032,
          "time": 42.34375,
          "velocity": 0.3937007874015748
        },
        {
          "duration": 0.078125,
          "durationTicks": 96,
          "midi": 81,
          "name": "A5",
          "ticks": 52032,
          "time": 42.34375,
          "velocity": 0.3937007874015748
        },
        {
          "duration": 0.15625,
          "durationTicks": 192,
          "midi": 47,
          "name": "B2",
          "ticks": 52224,
          "time": 42.5,
          "velocity": 0.3937007874015748
        },
        {
          "duration": 0.390625,
          "durationTicks": 480,
          "midi": 75,
          "name": "D#5",
          "ticks": 52224,
          "time": 42.5,
          "velocity": 0.3937007874015748
        },
        {
          "duration": 0.15625,
          "durationTicks": 192,
          "midi": 47,
          "name": "B2",
          "ticks": 52416,
          "time": 42.65625,
          "velocity": 0.3937007874015748
        },
        {
          "duration": 0.15625,
          "durationTicks": 192,
          "midi": 47,
          "name": "B2",
          "ticks": 52608,
          "time": 42.8125,
          "velocity": 0.3937007874015748
        },
        {
          "duration": 0.1570638020833286,
          "durationTicks": 193,
          "midi": 47,
          "name": "B2",
          "ticks": 52800,
          "time": 42.96875,
          "velocity": 0.3937007874015748
        },
        {
          "duration": 0.078125,
          "durationTicks": 96,
          "midi": 71,
          "name": "B4",
          "ticks": 52800,
          "time": 42.96875,
          "velocity": 0.3937007874015748
        },
        {
          "duration": 0.07893880208334281,
          "durationTicks": 97,
          "midi": 75,
          "name": "D#5",
          "ticks": 52864,
          "time": 43.02083333333333,
          "velocity": 0.3937007874015748
        },
        {
          "duration": 0.0789388020833286,
          "durationTicks": 97,
          "midi": 78,
          "name": "F#5",
          "ticks": 52928,
          "time": 43.07291666666667,
          "velocity": 0.3937007874015748
        },
        {
          "duration": 0.15625,
          "durationTicks": 192,
          "midi": 51,
          "name": "D#3",
          "ticks": 52993,
          "time": 43.12581380208333,
          "velocity": 0.3937007874015748
        },
        {
          "duration": 0.15625,
          "durationTicks": 192,
          "midi": 84,
          "name": "C6",
          "ticks": 52993,
          "time": 43.12581380208333,
          "velocity": 0.3937007874015748
        },
        {
          "duration": 0.15625,
          "durationTicks": 192,
          "midi": 51,
          "name": "D#3",
          "ticks": 53185,
          "time": 43.28206380208333,
          "velocity": 0.3937007874015748
        },
        {
          "duration": 0.15625,
          "durationTicks": 192,
          "midi": 71,
          "name": "B4",
          "ticks": 53185,
          "time": 43.28206380208333,
          "velocity": 0.3937007874015748
        },
        {
          "duration": 0.15625,
          "durationTicks": 192,
          "midi": 83,
          "name": "B5",
          "ticks": 53377,
          "time": 43.43831380208333,
          "velocity": 0.3937007874015748
        },
        {
          "duration": 0.15625,
          "durationTicks": 192,
          "midi": 51,
          "name": "D#3",
          "ticks": 53377,
          "time": 43.43831380208333,
          "velocity": 0.3937007874015748
        },
        {
          "duration": 0.15625,
          "durationTicks": 192,
          "midi": 81,
          "name": "A5",
          "ticks": 53569,
          "time": 43.59456380208333,
          "velocity": 0.3937007874015748
        },
        {
          "duration": 0.15625,
          "durationTicks": 192,
          "midi": 51,
          "name": "D#3",
          "ticks": 53569,
          "time": 43.59456380208333,
          "velocity": 0.3937007874015748
        },
        {
          "duration": 0.15625,
          "durationTicks": 192,
          "midi": 52,
          "name": "E3",
          "ticks": 53761,
          "time": 43.75081380208333,
          "velocity": 0.3937007874015748
        },
        {
          "duration": 0.078125,
          "durationTicks": 96,
          "midi": 64,
          "name": "E4",
          "ticks": 53761,
          "time": 43.75081380208333,
          "velocity": 0.3937007874015748
        },
        {
          "duration": 0.078125,
          "durationTicks": 96,
          "midi": 68,
          "name": "G#4",
          "ticks": 53857,
          "time": 43.82893880208333,
          "velocity": 0.3937007874015748
        },
        {
          "duration": 0.15625,
          "durationTicks": 192,
          "midi": 52,
          "name": "E3",
          "ticks": 53953,
          "time": 43.90706380208333,
          "velocity": 0.3937007874015748
        },
        {
          "duration": 0.078125,
          "durationTicks": 96,
          "midi": 71,
          "name": "B4",
          "ticks": 53953,
          "time": 43.90706380208333,
          "velocity": 0.3937007874015748
        },
        {
          "duration": 0.078125,
          "durationTicks": 96,
          "midi": 74,
          "name": "D5",
          "ticks": 54049,
          "time": 43.98518880208333,
          "velocity": 0.3937007874015748
        },
        {
          "duration": 0.078125,
          "durationTicks": 96,
          "midi": 76,
          "name": "E5",
          "ticks": 54145,
          "time": 44.06331380208333,
          "velocity": 0.3937007874015748
        },
        {
          "duration": 0.15625,
          "durationTicks": 192,
          "midi": 52,
          "name": "E3",
          "ticks": 54145,
          "time": 44.06331380208333,
          "velocity": 0.3937007874015748
        },
        {
          "duration": 0.078125,
          "durationTicks": 96,
          "midi": 80,
          "name": "G#5",
          "ticks": 54241,
          "time": 44.14143880208333,
          "velocity": 0.3937007874015748
        },
        {
          "duration": 0.15625,
          "durationTicks": 192,
          "midi": 52,
          "name": "E3",
          "ticks": 54337,
          "time": 44.21956380208333,
          "velocity": 0.3937007874015748
        },
        {
          "duration": 0.078125,
          "durationTicks": 96,
          "midi": 83,
          "name": "B5",
          "ticks": 54337,
          "time": 44.21956380208333,
          "velocity": 0.3937007874015748
        },
        {
          "duration": 0.078125,
          "durationTicks": 96,
          "midi": 86,
          "name": "D6",
          "ticks": 54433,
          "time": 44.29768880208333,
          "velocity": 0.3937007874015748
        },
        {
          "duration": 0.078125,
          "durationTicks": 96,
          "midi": 88,
          "name": "E6",
          "ticks": 54529,
          "time": 44.37581380208333,
          "velocity": 0.3937007874015748
        },
        {
          "duration": 0.15625,
          "durationTicks": 192,
          "midi": 52,
          "name": "E3",
          "ticks": 54529,
          "time": 44.37581380208333,
          "velocity": 0.3937007874015748
        },
        {
          "duration": 0.078125,
          "durationTicks": 96,
          "midi": 83,
          "name": "B5",
          "ticks": 54625,
          "time": 44.45393880208333,
          "velocity": 0.3937007874015748
        },
        {
          "duration": 0.078125,
          "durationTicks": 96,
          "midi": 80,
          "name": "G#5",
          "ticks": 54721,
          "time": 44.53206380208333,
          "velocity": 0.3937007874015748
        },
        {
          "duration": 0.15625,
          "durationTicks": 192,
          "midi": 52,
          "name": "E3",
          "ticks": 54721,
          "time": 44.53206380208333,
          "velocity": 0.3937007874015748
        },
        {
          "duration": 0.078125,
          "durationTicks": 96,
          "midi": 76,
          "name": "E5",
          "ticks": 54817,
          "time": 44.61018880208333,
          "velocity": 0.3937007874015748
        },
        {
          "duration": 0.078125,
          "durationTicks": 96,
          "midi": 71,
          "name": "B4",
          "ticks": 54913,
          "time": 44.68831380208333,
          "velocity": 0.3937007874015748
        },
        {
          "duration": 0.15625,
          "durationTicks": 192,
          "midi": 52,
          "name": "E3",
          "ticks": 54913,
          "time": 44.68831380208333,
          "velocity": 0.3937007874015748
        },
        {
          "duration": 0.078125,
          "durationTicks": 96,
          "midi": 68,
          "name": "G#4",
          "ticks": 55009,
          "time": 44.76643880208333,
          "velocity": 0.3937007874015748
        },
        {
          "duration": 0.15625,
          "durationTicks": 192,
          "midi": 52,
          "name": "E3",
          "ticks": 55105,
          "time": 44.84456380208333,
          "velocity": 0.3937007874015748
        },
        {
          "duration": 0.078125,
          "durationTicks": 96,
          "midi": 64,
          "name": "E4",
          "ticks": 55105,
          "time": 44.84456380208333,
          "velocity": 0.3937007874015748
        },
        {
          "duration": 0.078125,
          "durationTicks": 96,
          "midi": 68,
          "name": "G#4",
          "ticks": 55201,
          "time": 44.92268880208333,
          "velocity": 0.3937007874015748
        },
        {
          "duration": 0.15625,
          "durationTicks": 192,
          "midi": 88,
          "name": "E6",
          "ticks": 55297,
          "time": 45.00081380208333,
          "velocity": 0.3937007874015748
        },
        {
          "duration": 0.078125,
          "durationTicks": 96,
          "midi": 86,
          "name": "D6",
          "ticks": 55489,
          "time": 45.15706380208333,
          "velocity": 0.3937007874015748
        },
        {
          "duration": 0.078125,
          "durationTicks": 96,
          "midi": 88,
          "name": "E6",
          "ticks": 55585,
          "time": 45.23518880208333,
          "velocity": 0.3937007874015748
        },
        {
          "duration": 0.078125,
          "durationTicks": 96,
          "midi": 84,
          "name": "C6",
          "ticks": 55681,
          "time": 45.31331380208333,
          "velocity": 0.3937007874015748
        },
        {
          "duration": 0.078125,
          "durationTicks": 96,
          "midi": 88,
          "name": "E6",
          "ticks": 55777,
          "time": 45.39143880208333,
          "velocity": 0.3937007874015748
        },
        {
          "duration": 0.078125,
          "durationTicks": 96,
          "midi": 83,
          "name": "B5",
          "ticks": 55873,
          "time": 45.46956380208333,
          "velocity": 0.3937007874015748
        },
        {
          "duration": 0.078125,
          "durationTicks": 96,
          "midi": 88,
          "name": "E6",
          "ticks": 55969,
          "time": 45.54768880208333,
          "velocity": 0.3937007874015748
        },
        {
          "duration": 0.078125,
          "durationTicks": 96,
          "midi": 81,
          "name": "A5",
          "ticks": 56065,
          "time": 45.62581380208333,
          "velocity": 0.3937007874015748
        },
        {
          "duration": 0.078125,
          "durationTicks": 96,
          "midi": 72,
          "name": "C5",
          "ticks": 56161,
          "time": 45.70393880208333,
          "velocity": 0.3937007874015748
        },
        {
          "duration": 0.078125,
          "durationTicks": 96,
          "midi": 79,
          "name": "G5",
          "ticks": 56257,
          "time": 45.78206380208333,
          "velocity": 0.3937007874015748
        },
        {
          "duration": 0.078125,
          "durationTicks": 96,
          "midi": 72,
          "name": "C5",
          "ticks": 56353,
          "time": 45.86018880208333,
          "velocity": 0.3937007874015748
        },
        {
          "duration": 0.078125,
          "durationTicks": 96,
          "midi": 77,
          "name": "F5",
          "ticks": 56449,
          "time": 45.93831380208333,
          "velocity": 0.3937007874015748
        },
        {
          "duration": 0.078125,
          "durationTicks": 96,
          "midi": 72,
          "name": "C5",
          "ticks": 56545,
          "time": 46.01643880208333,
          "velocity": 0.3937007874015748
        },
        {
          "duration": 0.078125,
          "durationTicks": 96,
          "midi": 76,
          "name": "E5",
          "ticks": 56641,
          "time": 46.09456380208333,
          "velocity": 0.3937007874015748
        },
        {
          "duration": 0.078125,
          "durationTicks": 96,
          "midi": 72,
          "name": "C5",
          "ticks": 56737,
          "time": 46.17268880208333,
          "velocity": 0.3937007874015748
        },
        {
          "duration": 0.15625,
          "durationTicks": 192,
          "midi": 77,
          "name": "F5",
          "ticks": 56833,
          "time": 46.25081380208333,
          "velocity": 0.3937007874015748
        },
        {
          "duration": 0.078125,
          "durationTicks": 96,
          "midi": 76,
          "name": "E5",
          "ticks": 57025,
          "time": 46.40706380208333,
          "velocity": 0.3937007874015748
        },
        {
          "duration": 0.078125,
          "durationTicks": 96,
          "midi": 77,
          "name": "F5",
          "ticks": 57121,
          "time": 46.48518880208333,
          "velocity": 0.3937007874015748
        },
        {
          "duration": 0.078125,
          "durationTicks": 96,
          "midi": 74,
          "name": "D5",
          "ticks": 57217,
          "time": 46.56331380208333,
          "velocity": 0.3937007874015748
        },
        {
          "duration": 0.078125,
          "durationTicks": 96,
          "midi": 77,
          "name": "F5",
          "ticks": 57313,
          "time": 46.64143880208333,
          "velocity": 0.3937007874015748
        },
        {
          "duration": 0.078125,
          "durationTicks": 96,
          "midi": 72,
          "name": "C5",
          "ticks": 57409,
          "time": 46.71956380208333,
          "velocity": 0.3937007874015748
        },
        {
          "duration": 0.078125,
          "durationTicks": 96,
          "midi": 77,
          "name": "F5",
          "ticks": 57505,
          "time": 46.79768880208333,
          "velocity": 0.3937007874015748
        },
        {
          "duration": 0.078125,
          "durationTicks": 96,
          "midi": 71,
          "name": "B4",
          "ticks": 57601,
          "time": 46.87581380208333,
          "velocity": 0.3937007874015748
        },
        {
          "duration": 0.078125,
          "durationTicks": 96,
          "midi": 62,
          "name": "D4",
          "ticks": 57697,
          "time": 46.95393880208333,
          "velocity": 0.3937007874015748
        },
        {
          "duration": 0.078125,
          "durationTicks": 96,
          "midi": 69,
          "name": "A4",
          "ticks": 57793,
          "time": 47.03206380208333,
          "velocity": 0.3937007874015748
        },
        {
          "duration": 0.078125,
          "durationTicks": 96,
          "midi": 62,
          "name": "D4",
          "ticks": 57889,
          "time": 47.11018880208333,
          "velocity": 0.3937007874015748
        },
        {
          "duration": 0.078125,
          "durationTicks": 96,
          "midi": 67,
          "name": "G4",
          "ticks": 57985,
          "time": 47.18831380208333,
          "velocity": 0.3937007874015748
        },
        {
          "duration": 0.078125,
          "durationTicks": 96,
          "midi": 62,
          "name": "D4",
          "ticks": 58081,
          "time": 47.26643880208333,
          "velocity": 0.3937007874015748
        },
        {
          "duration": 0.078125,
          "durationTicks": 96,
          "midi": 65,
          "name": "F4",
          "ticks": 58177,
          "time": 47.34456380208333,
          "velocity": 0.3937007874015748
        },
        {
          "duration": 0.078125,
          "durationTicks": 96,
          "midi": 62,
          "name": "D4",
          "ticks": 58273,
          "time": 47.42268880208333,
          "velocity": 0.3937007874015748
        },
        {
          "duration": 0.078125,
          "durationTicks": 96,
          "midi": 67,
          "name": "G4",
          "ticks": 58369,
          "time": 47.50081380208333,
          "velocity": 0.3937007874015748
        },
        {
          "duration": 0.078125,
          "durationTicks": 96,
          "midi": 62,
          "name": "D4",
          "ticks": 58465,
          "time": 47.57893880208333,
          "velocity": 0.3937007874015748
        },
        {
          "duration": 0.078125,
          "durationTicks": 96,
          "midi": 69,
          "name": "A4",
          "ticks": 58561,
          "time": 47.65706380208333,
          "velocity": 0.3937007874015748
        },
        {
          "duration": 0.078125,
          "durationTicks": 96,
          "midi": 62,
          "name": "D4",
          "ticks": 58657,
          "time": 47.73518880208333,
          "velocity": 0.3937007874015748
        },
        {
          "duration": 0.078125,
          "durationTicks": 96,
          "midi": 71,
          "name": "B4",
          "ticks": 58753,
          "time": 47.81331380208333,
          "velocity": 0.3937007874015748
        },
        {
          "duration": 0.078125,
          "durationTicks": 96,
          "midi": 62,
          "name": "D4",
          "ticks": 58849,
          "time": 47.89143880208333,
          "velocity": 0.3937007874015748
        },
        {
          "duration": 0.078125,
          "durationTicks": 96,
          "midi": 72,
          "name": "C5",
          "ticks": 58945,
          "time": 47.96956380208333,
          "velocity": 0.3937007874015748
        },
        {
          "duration": 0.078125,
          "durationTicks": 96,
          "midi": 62,
          "name": "D4",
          "ticks": 59041,
          "time": 48.04768880208333,
          "velocity": 0.3937007874015748
        },
        {
          "duration": 0.078125,
          "durationTicks": 96,
          "midi": 74,
          "name": "D5",
          "ticks": 59137,
          "time": 48.12581380208333,
          "velocity": 0.3937007874015748
        },
        {
          "duration": 0.078125,
          "durationTicks": 96,
          "midi": 62,
          "name": "D4",
          "ticks": 59233,
          "time": 48.20393880208333,
          "velocity": 0.3937007874015748
        },
        {
          "duration": 0.078125,
          "durationTicks": 96,
          "midi": 71,
          "name": "B4",
          "ticks": 59329,
          "time": 48.28206380208333,
          "velocity": 0.3937007874015748
        },
        {
          "duration": 0.078125,
          "durationTicks": 96,
          "midi": 62,
          "name": "D4",
          "ticks": 59425,
          "time": 48.36018880208333,
          "velocity": 0.3937007874015748
        },
        {
          "duration": 0.078125,
          "durationTicks": 96,
          "midi": 69,
          "name": "A4",
          "ticks": 59521,
          "time": 48.43831380208333,
          "velocity": 0.3937007874015748
        },
        {
          "duration": 0.078125,
          "durationTicks": 96,
          "midi": 62,
          "name": "D4",
          "ticks": 59617,
          "time": 48.51643880208333,
          "velocity": 0.3937007874015748
        },
        {
          "duration": 0.078125,
          "durationTicks": 96,
          "midi": 67,
          "name": "G4",
          "ticks": 59713,
          "time": 48.59456380208333,
          "velocity": 0.3937007874015748
        },
        {
          "duration": 0.078125,
          "durationTicks": 96,
          "midi": 62,
          "name": "D4",
          "ticks": 59809,
          "time": 48.67268880208333,
          "velocity": 0.3937007874015748
        },
        {
          "duration": 0.078125,
          "durationTicks": 96,
          "midi": 60,
          "name": "C4",
          "ticks": 59905,
          "time": 48.75081380208333,
          "velocity": 0.3937007874015748
        },
        {
          "duration": 0.078125,
          "durationTicks": 96,
          "midi": 62,
          "name": "D4",
          "ticks": 60001,
          "time": 48.82893880208333,
          "velocity": 0.3937007874015748
        },
        {
          "duration": 0.078125,
          "durationTicks": 96,
          "midi": 64,
          "name": "E4",
          "ticks": 60097,
          "time": 48.90706380208333,
          "velocity": 0.3937007874015748
        },
        {
          "duration": 0.078125,
          "durationTicks": 96,
          "midi": 67,
          "name": "G4",
          "ticks": 60193,
          "time": 48.98518880208333,
          "velocity": 0.3937007874015748
        },
        {
          "duration": 0.078125,
          "durationTicks": 96,
          "midi": 72,
          "name": "C5",
          "ticks": 60289,
          "time": 49.06331380208333,
          "velocity": 0.3937007874015748
        },
        {
          "duration": 0.078125,
          "durationTicks": 96,
          "midi": 74,
          "name": "D5",
          "ticks": 60385,
          "time": 49.14143880208333,
          "velocity": 0.3937007874015748
        },
        {
          "duration": 0.078125,
          "durationTicks": 96,
          "midi": 76,
          "name": "E5",
          "ticks": 60481,
          "time": 49.21956380208333,
          "velocity": 0.3937007874015748
        },
        {
          "duration": 0.078125,
          "durationTicks": 96,
          "midi": 79,
          "name": "G5",
          "ticks": 60577,
          "time": 49.29768880208333,
          "velocity": 0.3937007874015748
        },
        {
          "duration": 0.078125,
          "durationTicks": 96,
          "midi": 88,
          "name": "E6",
          "ticks": 60673,
          "time": 49.37581380208333,
          "velocity": 0.3937007874015748
        },
        {
          "duration": 0.078125,
          "durationTicks": 96,
          "midi": 86,
          "name": "D6",
          "ticks": 60769,
          "time": 49.45393880208333,
          "velocity": 0.3937007874015748
        },
        {
          "duration": 0.078125,
          "durationTicks": 96,
          "midi": 84,
          "name": "C6",
          "ticks": 60865,
          "time": 49.53206380208333,
          "velocity": 0.3937007874015748
        },
        {
          "duration": 0.078125,
          "durationTicks": 96,
          "midi": 79,
          "name": "G5",
          "ticks": 60961,
          "time": 49.61018880208333,
          "velocity": 0.3937007874015748
        },
        {
          "duration": 0.078125,
          "durationTicks": 96,
          "midi": 76,
          "name": "E5",
          "ticks": 61057,
          "time": 49.68831380208333,
          "velocity": 0.3937007874015748
        },
        {
          "duration": 0.078125,
          "durationTicks": 96,
          "midi": 74,
          "name": "D5",
          "ticks": 61153,
          "time": 49.76643880208333,
          "velocity": 0.3937007874015748
        },
        {
          "duration": 0.078125,
          "durationTicks": 96,
          "midi": 72,
          "name": "C5",
          "ticks": 61249,
          "time": 49.84456380208333,
          "velocity": 0.3937007874015748
        },
        {
          "duration": 0.078125,
          "durationTicks": 96,
          "midi": 67,
          "name": "G4",
          "ticks": 61345,
          "time": 49.92268880208333,
          "velocity": 0.3937007874015748
        },
        {
          "duration": 0.15625,
          "durationTicks": 192,
          "midi": 72,
          "name": "C5",
          "ticks": 61441,
          "time": 50.00081380208333,
          "velocity": 0.3937007874015748
        },
        {
          "duration": 0.078125,
          "durationTicks": 96,
          "midi": 71,
          "name": "B4",
          "ticks": 61633,
          "time": 50.15706380208333,
          "velocity": 0.3937007874015748
        },
        {
          "duration": 0.078125,
          "durationTicks": 96,
          "midi": 72,
          "name": "C5",
          "ticks": 61729,
          "time": 50.23518880208333,
          "velocity": 0.3937007874015748
        },
        {
          "duration": 0.078125,
          "durationTicks": 96,
          "midi": 69,
          "name": "A4",
          "ticks": 61825,
          "time": 50.31331380208333,
          "velocity": 0.3937007874015748
        },
        {
          "duration": 0.078125,
          "durationTicks": 96,
          "midi": 72,
          "name": "C5",
          "ticks": 61921,
          "time": 50.39143880208333,
          "velocity": 0.3937007874015748
        },
        {
          "duration": 0.078125,
          "durationTicks": 96,
          "midi": 67,
          "name": "G4",
          "ticks": 62017,
          "time": 50.46956380208333,
          "velocity": 0.3937007874015748
        },
        {
          "duration": 0.078125,
          "durationTicks": 96,
          "midi": 72,
          "name": "C5",
          "ticks": 62113,
          "time": 50.54768880208333,
          "velocity": 0.3937007874015748
        },
        {
          "duration": 0.078125,
          "durationTicks": 96,
          "midi": 65,
          "name": "F4",
          "ticks": 62209,
          "time": 50.62581380208333,
          "velocity": 0.3937007874015748
        },
        {
          "duration": 0.078125,
          "durationTicks": 96,
          "midi": 72,
          "name": "C5",
          "ticks": 62305,
          "time": 50.70393880208333,
          "velocity": 0.3937007874015748
        },
        {
          "duration": 0.078125,
          "durationTicks": 96,
          "midi": 64,
          "name": "E4",
          "ticks": 62401,
          "time": 50.78206380208333,
          "velocity": 0.3937007874015748
        },
        {
          "duration": 0.078125,
          "durationTicks": 96,
          "midi": 72,
          "name": "C5",
          "ticks": 62497,
          "time": 50.86018880208333,
          "velocity": 0.3937007874015748
        },
        {
          "duration": 0.078125,
          "durationTicks": 96,
          "midi": 62,
          "name": "D4",
          "ticks": 62593,
          "time": 50.93831380208333,
          "velocity": 0.3937007874015748
        },
        {
          "duration": 0.078125,
          "durationTicks": 96,
          "midi": 72,
          "name": "C5",
          "ticks": 62689,
          "time": 51.01643880208333,
          "velocity": 0.3937007874015748
        },
        {
          "duration": 0.078125,
          "durationTicks": 96,
          "midi": 60,
          "name": "C4",
          "ticks": 62785,
          "time": 51.09456380208333,
          "velocity": 0.3937007874015748
        },
        {
          "duration": 0.078125,
          "durationTicks": 96,
          "midi": 72,
          "name": "C5",
          "ticks": 62881,
          "time": 51.17268880208333,
          "velocity": 0.3937007874015748
        },
        {
          "duration": 0.15625,
          "durationTicks": 192,
          "midi": 74,
          "name": "D5",
          "ticks": 62977,
          "time": 51.25081380208333,
          "velocity": 0.3937007874015748
        },
        {
          "duration": 0.078125,
          "durationTicks": 96,
          "midi": 72,
          "name": "C5",
          "ticks": 63169,
          "time": 51.40706380208333,
          "velocity": 0.3937007874015748
        },
        {
          "duration": 0.078125,
          "durationTicks": 96,
          "midi": 74,
          "name": "D5",
          "ticks": 63265,
          "time": 51.48518880208333,
          "velocity": 0.3937007874015748
        },
        {
          "duration": 0.078125,
          "durationTicks": 96,
          "midi": 71,
          "name": "B4",
          "ticks": 63361,
          "time": 51.56331380208333,
          "velocity": 0.3937007874015748
        },
        {
          "duration": 0.078125,
          "durationTicks": 96,
          "midi": 74,
          "name": "D5",
          "ticks": 63457,
          "time": 51.64143880208333,
          "velocity": 0.3937007874015748
        },
        {
          "duration": 0.078125,
          "durationTicks": 96,
          "midi": 69,
          "name": "A4",
          "ticks": 63553,
          "time": 51.71956380208333,
          "velocity": 0.3937007874015748
        },
        {
          "duration": 0.078125,
          "durationTicks": 96,
          "midi": 74,
          "name": "D5",
          "ticks": 63649,
          "time": 51.79768880208333,
          "velocity": 0.3937007874015748
        },
        {
          "duration": 0.078125,
          "durationTicks": 96,
          "midi": 67,
          "name": "G4",
          "ticks": 63745,
          "time": 51.87581380208333,
          "velocity": 0.3937007874015748
        },
        {
          "duration": 0.078125,
          "durationTicks": 96,
          "midi": 74,
          "name": "D5",
          "ticks": 63841,
          "time": 51.95393880208333,
          "velocity": 0.3937007874015748
        },
        {
          "duration": 0.078125,
          "durationTicks": 96,
          "midi": 65,
          "name": "F4",
          "ticks": 63937,
          "time": 52.03206380208333,
          "velocity": 0.3937007874015748
        },
        {
          "duration": 0.078125,
          "durationTicks": 96,
          "midi": 74,
          "name": "D5",
          "ticks": 64033,
          "time": 52.11018880208333,
          "velocity": 0.3937007874015748
        },
        {
          "duration": 0.078125,
          "durationTicks": 96,
          "midi": 64,
          "name": "E4",
          "ticks": 64129,
          "time": 52.18831380208333,
          "velocity": 0.3937007874015748
        },
        {
          "duration": 0.078125,
          "durationTicks": 96,
          "midi": 74,
          "name": "D5",
          "ticks": 64225,
          "time": 52.26643880208333,
          "velocity": 0.3937007874015748
        },
        {
          "duration": 0.078125,
          "durationTicks": 96,
          "midi": 62,
          "name": "D4",
          "ticks": 64321,
          "time": 52.34456380208333,
          "velocity": 0.3937007874015748
        },
        {
          "duration": 0.078125,
          "durationTicks": 96,
          "midi": 74,
          "name": "D5",
          "ticks": 64417,
          "time": 52.42268880208333,
          "velocity": 0.3937007874015748
        },
        {
          "duration": 0.078125,
          "durationTicks": 96,
          "midi": 64,
          "name": "E4",
          "ticks": 64513,
          "time": 52.50081380208333,
          "velocity": 0.3937007874015748
        },
        {
          "duration": 0.078125,
          "durationTicks": 96,
          "midi": 68,
          "name": "G#4",
          "ticks": 64609,
          "time": 52.57893880208333,
          "velocity": 0.3937007874015748
        },
        {
          "duration": 0.078125,
          "durationTicks": 96,
          "midi": 71,
          "name": "B4",
          "ticks": 64705,
          "time": 52.65706380208333,
          "velocity": 0.3937007874015748
        },
        {
          "duration": 0.078125,
          "durationTicks": 96,
          "midi": 74,
          "name": "D5",
          "ticks": 64801,
          "time": 52.73518880208333,
          "velocity": 0.3937007874015748
        },
        {
          "duration": 0.078125,
          "durationTicks": 96,
          "midi": 76,
          "name": "E5",
          "ticks": 64897,
          "time": 52.81331380208333,
          "velocity": 0.3937007874015748
        },
        {
          "duration": 0.078125,
          "durationTicks": 96,
          "midi": 80,
          "name": "G#5",
          "ticks": 64993,
          "time": 52.89143880208333,
          "velocity": 0.3937007874015748
        },
        {
          "duration": 0.078125,
          "durationTicks": 96,
          "midi": 83,
          "name": "B5",
          "ticks": 65089,
          "time": 52.96956380208333,
          "velocity": 0.3937007874015748
        },
        {
          "duration": 0.078125,
          "durationTicks": 96,
          "midi": 86,
          "name": "D6",
          "ticks": 65185,
          "time": 53.04768880208333,
          "velocity": 0.3937007874015748
        },
        {
          "duration": 0.078125,
          "durationTicks": 96,
          "midi": 88,
          "name": "E6",
          "ticks": 65281,
          "time": 53.12581380208333,
          "velocity": 0.3937007874015748
        },
        {
          "duration": 0.078125,
          "durationTicks": 96,
          "midi": 86,
          "name": "D6",
          "ticks": 65377,
          "time": 53.20393880208333,
          "velocity": 0.3937007874015748
        },
        {
          "duration": 0.078125,
          "durationTicks": 96,
          "midi": 83,
          "name": "B5",
          "ticks": 65473,
          "time": 53.28206380208333,
          "velocity": 0.3937007874015748
        },
        {
          "duration": 0.078125,
          "durationTicks": 96,
          "midi": 80,
          "name": "G#5",
          "ticks": 65569,
          "time": 53.36018880208333,
          "velocity": 0.3937007874015748
        },
        {
          "duration": 0.078125,
          "durationTicks": 96,
          "midi": 76,
          "name": "E5",
          "ticks": 65665,
          "time": 53.43831380208333,
          "velocity": 0.3937007874015748
        },
        {
          "duration": 0.078125,
          "durationTicks": 96,
          "midi": 74,
          "name": "D5",
          "ticks": 65761,
          "time": 53.51643880208333,
          "velocity": 0.3937007874015748
        },
        {
          "duration": 0.078125,
          "durationTicks": 96,
          "midi": 71,
          "name": "B4",
          "ticks": 65857,
          "time": 53.59456380208333,
          "velocity": 0.3937007874015748
        },
        {
          "duration": 0.078125,
          "durationTicks": 96,
          "midi": 68,
          "name": "G#4",
          "ticks": 65953,
          "time": 53.67268880208333,
          "velocity": 0.3937007874015748
        },
        {
          "duration": 0.078125,
          "durationTicks": 96,
          "midi": 69,
          "name": "A4",
          "ticks": 66049,
          "time": 53.75081380208333,
          "velocity": 0.3937007874015748
        },
        {
          "duration": 0.078125,
          "durationTicks": 96,
          "midi": 72,
          "name": "C5",
          "ticks": 66145,
          "time": 53.82893880208333,
          "velocity": 0.3937007874015748
        },
        {
          "duration": 0.078125,
          "durationTicks": 96,
          "midi": 76,
          "name": "E5",
          "ticks": 66241,
          "time": 53.90706380208333,
          "velocity": 0.3937007874015748
        },
        {
          "duration": 0.078125,
          "durationTicks": 96,
          "midi": 81,
          "name": "A5",
          "ticks": 66337,
          "time": 53.98518880208333,
          "velocity": 0.3937007874015748
        },
        {
          "duration": 0.078125,
          "durationTicks": 96,
          "midi": 84,
          "name": "C6",
          "ticks": 66433,
          "time": 54.06331380208333,
          "velocity": 0.3937007874015748
        },
        {
          "duration": 0.078125,
          "durationTicks": 96,
          "midi": 83,
          "name": "B5",
          "ticks": 66529,
          "time": 54.14143880208333,
          "velocity": 0.3937007874015748
        },
        {
          "duration": 0.078125,
          "durationTicks": 96,
          "midi": 81,
          "name": "A5",
          "ticks": 66625,
          "time": 54.21956380208333,
          "velocity": 0.3937007874015748
        },
        {
          "duration": 0.078125,
          "durationTicks": 96,
          "midi": 80,
          "name": "G#5",
          "ticks": 66721,
          "time": 54.29768880208333,
          "velocity": 0.3937007874015748
        },
        {
          "duration": 0.078125,
          "durationTicks": 96,
          "midi": 81,
          "name": "A5",
          "ticks": 66817,
          "time": 54.37581380208333,
          "velocity": 0.3937007874015748
        },
        {
          "duration": 0.234375,
          "durationTicks": 288,
          "midi": 62,
          "name": "D4",
          "ticks": 67585,
          "time": 55.00081380208333,
          "velocity": 0.3937007874015748
        },
        {
          "duration": 0.234375,
          "durationTicks": 288,
          "midi": 62,
          "name": "D4",
          "ticks": 67969,
          "time": 55.31331380208333,
          "velocity": 0.3937007874015748
        },
        {
          "duration": 0.234375,
          "durationTicks": 288,
          "midi": 55,
          "name": "G3",
          "ticks": 68353,
          "time": 55.62581380208333,
          "velocity": 0.3937007874015748
        },
        {
          "duration": 0.078125,
          "durationTicks": 96,
          "midi": 79,
          "name": "G5",
          "ticks": 68545,
          "time": 55.78206380208333,
          "velocity": 0.3937007874015748
        },
        {
          "duration": 0.078125,
          "durationTicks": 96,
          "midi": 55,
          "name": "G3",
          "ticks": 68545,
          "time": 55.78206380208333,
          "velocity": 0.3937007874015748
        },
        {
          "duration": 0.078125,
          "durationTicks": 96,
          "midi": 67,
          "name": "G4",
          "ticks": 68545,
          "time": 55.78206380208333,
          "velocity": 0.3937007874015748
        },
        {
          "duration": 0.078125,
          "durationTicks": 96,
          "midi": 60,
          "name": "C4",
          "ticks": 68737,
          "time": 55.93831380208333,
          "velocity": 0.3937007874015748
        },
        {
          "duration": 0.234375,
          "durationTicks": 288,
          "midi": 55,
          "name": "G3",
          "ticks": 68737,
          "time": 55.93831380208333,
          "velocity": 0.3937007874015748
        },
        {
          "duration": 0.078125,
          "durationTicks": 96,
          "midi": 72,
          "name": "C5",
          "ticks": 68737,
          "time": 55.93831380208333,
          "velocity": 0.3937007874015748
        },
        {
          "duration": 0.078125,
          "durationTicks": 96,
          "midi": 84,
          "name": "C6",
          "ticks": 68737,
          "time": 55.93831380208333,
          "velocity": 0.3937007874015748
        },
        {
          "duration": 0.078125,
          "durationTicks": 96,
          "midi": 74,
          "name": "D5",
          "ticks": 68929,
          "time": 56.09456380208333,
          "velocity": 0.3937007874015748
        },
        {
          "duration": 0.078125,
          "durationTicks": 96,
          "midi": 86,
          "name": "D6",
          "ticks": 68929,
          "time": 56.09456380208333,
          "velocity": 0.3937007874015748
        },
        {
          "duration": 0.078125,
          "durationTicks": 96,
          "midi": 62,
          "name": "D4",
          "ticks": 68929,
          "time": 56.09456380208333,
          "velocity": 0.3937007874015748
        },
        {
          "duration": 0.390625,
          "durationTicks": 480,
          "midi": 75,
          "name": "D#5",
          "ticks": 69121,
          "time": 56.25081380208333,
          "velocity": 0.3937007874015748
        },
        {
          "duration": 0.390625,
          "durationTicks": 480,
          "midi": 87,
          "name": "D#6",
          "ticks": 69121,
          "time": 56.25081380208333,
          "velocity": 0.3937007874015748
        },
        {
          "duration": 0.390625,
          "durationTicks": 480,
          "midi": 63,
          "name": "D#4",
          "ticks": 69121,
          "time": 56.25081380208333,
          "velocity": 0.3937007874015748
        },
        {
          "duration": 0.15625,
          "durationTicks": 192,
          "midi": 48,
          "name": "C3",
          "ticks": 69121,
          "time": 56.25081380208333,
          "velocity": 0.3937007874015748
        },
        {
          "duration": 0.15625,
          "durationTicks": 192,
          "midi": 48,
          "name": "C3",
          "ticks": 69313,
          "time": 56.40706380208333,
          "velocity": 0.3937007874015748
        },
        {
          "duration": 0.15625,
          "durationTicks": 192,
          "midi": 48,
          "name": "C3",
          "ticks": 69505,
          "time": 56.56331380208333,
          "velocity": 0.3937007874015748
        },
        {
          "duration": 0.15625,
          "durationTicks": 192,
          "midi": 48,
          "name": "C3",
          "ticks": 69697,
          "time": 56.71956380208333,
          "velocity": 0.3937007874015748
        },
        {
          "duration": 0.078125,
          "durationTicks": 96,
          "midi": 77,
          "name": "F5",
          "ticks": 69697,
          "time": 56.71956380208333,
          "velocity": 0.3937007874015748
        },
        {
          "duration": 0.078125,
          "durationTicks": 96,
          "midi": 89,
          "name": "F6",
          "ticks": 69697,
          "time": 56.71956380208333,
          "velocity": 0.3937007874015748
        },
        {
          "duration": 0.078125,
          "durationTicks": 96,
          "midi": 65,
          "name": "F4",
          "ticks": 69697,
          "time": 56.71956380208333,
          "velocity": 0.3937007874015748
        },
        {
          "duration": 0.390625,
          "durationTicks": 480,
          "midi": 86,
          "name": "D6",
          "ticks": 69889,
          "time": 56.87581380208333,
          "velocity": 0.3937007874015748
        },
        {
          "duration": 0.390625,
          "durationTicks": 480,
          "midi": 62,
          "name": "D4",
          "ticks": 69889,
          "time": 56.87581380208333,
          "velocity": 0.3937007874015748
        },
        {
          "duration": 0.390625,
          "durationTicks": 480,
          "midi": 74,
          "name": "D5",
          "ticks": 69889,
          "time": 56.87581380208333,
          "velocity": 0.3937007874015748
        },
        {
          "duration": 0.15625,
          "durationTicks": 192,
          "midi": 47,
          "name": "B2",
          "ticks": 69889,
          "time": 56.87581380208333,
          "velocity": 0.3937007874015748
        },
        {
          "duration": 0.15625,
          "durationTicks": 192,
          "midi": 47,
          "name": "B2",
          "ticks": 70081,
          "time": 57.03206380208333,
          "velocity": 0.3937007874015748
        },
        {
          "duration": 0.15625,
          "durationTicks": 192,
          "midi": 47,
          "name": "B2",
          "ticks": 70273,
          "time": 57.18831380208333,
          "velocity": 0.3937007874015748
        },
        {
          "duration": 0.078125,
          "durationTicks": 96,
          "midi": 75,
          "name": "D#5",
          "ticks": 70465,
          "time": 57.34456380208333,
          "velocity": 0.3937007874015748
        },
        {
          "duration": 0.15625,
          "durationTicks": 192,
          "midi": 47,
          "name": "B2",
          "ticks": 70465,
          "time": 57.34456380208333,
          "velocity": 0.3937007874015748
        },
        {
          "duration": 0.078125,
          "durationTicks": 96,
          "midi": 63,
          "name": "D#4",
          "ticks": 70465,
          "time": 57.34456380208333,
          "velocity": 0.3937007874015748
        },
        {
          "duration": 0.078125,
          "durationTicks": 96,
          "midi": 87,
          "name": "D#6",
          "ticks": 70465,
          "time": 57.34456380208333,
          "velocity": 0.3937007874015748
        },
        {
          "duration": 0.15625,
          "durationTicks": 192,
          "midi": 48,
          "name": "C3",
          "ticks": 70657,
          "time": 57.50081380208333,
          "velocity": 0.3937007874015748
        },
        {
          "duration": 0.546875,
          "durationTicks": 672,
          "midi": 60,
          "name": "C4",
          "ticks": 70657,
          "time": 57.50081380208333,
          "velocity": 0.3937007874015748
        },
        {
          "duration": 0.546875,
          "durationTicks": 672,
          "midi": 72,
          "name": "C5",
          "ticks": 70657,
          "time": 57.50081380208333,
          "velocity": 0.3937007874015748
        },
        {
          "duration": 0.546875,
          "durationTicks": 672,
          "midi": 84,
          "name": "C6",
          "ticks": 70657,
          "time": 57.50081380208333,
          "velocity": 0.3937007874015748
        },
        {
          "duration": 0.15625,
          "durationTicks": 192,
          "midi": 48,
          "name": "C3",
          "ticks": 70849,
          "time": 57.65706380208333,
          "velocity": 0.3937007874015748
        },
        {
          "duration": 0.15625,
          "durationTicks": 192,
          "midi": 48,
          "name": "C3",
          "ticks": 71041,
          "time": 57.81331380208333,
          "velocity": 0.3937007874015748
        },
        {
          "duration": 0.15625,
          "durationTicks": 192,
          "midi": 48,
          "name": "C3",
          "ticks": 71233,
          "time": 57.96956380208333,
          "velocity": 0.3937007874015748
        },
        {
          "duration": 0.15625,
          "durationTicks": 192,
          "midi": 48,
          "name": "C3",
          "ticks": 71425,
          "time": 58.12581380208333,
          "velocity": 0.3937007874015748
        },
        {
          "duration": 0.078125,
          "durationTicks": 96,
          "midi": 72,
          "name": "C5",
          "ticks": 71617,
          "time": 58.28206380208333,
          "velocity": 0.3937007874015748
        },
        {
          "duration": 0.15625,
          "durationTicks": 192,
          "midi": 48,
          "name": "C3",
          "ticks": 71617,
          "time": 58.28206380208333,
          "velocity": 0.3937007874015748
        },
        {
          "duration": 0.078125,
          "durationTicks": 96,
          "midi": 84,
          "name": "C6",
          "ticks": 71617,
          "time": 58.28206380208333,
          "velocity": 0.3937007874015748
        },
        {
          "duration": 0.078125,
          "durationTicks": 96,
          "midi": 60,
          "name": "C4",
          "ticks": 71617,
          "time": 58.28206380208333,
          "velocity": 0.3937007874015748
        },
        {
          "duration": 0.078125,
          "durationTicks": 96,
          "midi": 59,
          "name": "B3",
          "ticks": 71745,
          "time": 58.38623046875,
          "velocity": 0.3937007874015748
        },
        {
          "duration": 0.078125,
          "durationTicks": 96,
          "midi": 83,
          "name": "B5",
          "ticks": 71745,
          "time": 58.38623046875,
          "velocity": 0.3937007874015748
        },
        {
          "duration": 0.078125,
          "durationTicks": 96,
          "midi": 71,
          "name": "B4",
          "ticks": 71745,
          "time": 58.38623046875,
          "velocity": 0.3937007874015748
        },
        {
          "duration": 0.078125,
          "durationTicks": 96,
          "midi": 72,
          "name": "C5",
          "ticks": 71809,
          "time": 58.43831380208333,
          "velocity": 0.3937007874015748
        },
        {
          "duration": 0.15625,
          "durationTicks": 192,
          "midi": 48,
          "name": "C3",
          "ticks": 71809,
          "time": 58.43831380208333,
          "velocity": 0.3937007874015748
        },
        {
          "duration": 0.078125,
          "durationTicks": 96,
          "midi": 84,
          "name": "C6",
          "ticks": 71809,
          "time": 58.43831380208333,
          "velocity": 0.3937007874015748
        },
        {
          "duration": 0.078125,
          "durationTicks": 96,
          "midi": 60,
          "name": "C4",
          "ticks": 71809,
          "time": 58.43831380208333,
          "velocity": 0.3937007874015748
        },
        {
          "duration": 0.078125,
          "durationTicks": 96,
          "midi": 62,
          "name": "D4",
          "ticks": 71937,
          "time": 58.54248046875,
          "velocity": 0.3937007874015748
        },
        {
          "duration": 0.078125,
          "durationTicks": 96,
          "midi": 74,
          "name": "D5",
          "ticks": 71937,
          "time": 58.54248046875,
          "velocity": 0.3937007874015748
        },
        {
          "duration": 0.078125,
          "durationTicks": 96,
          "midi": 86,
          "name": "D6",
          "ticks": 71937,
          "time": 58.54248046875,
          "velocity": 0.3937007874015748
        },
        {
          "duration": 0.078125,
          "durationTicks": 96,
          "midi": 87,
          "name": "D#6",
          "ticks": 72001,
          "time": 58.59456380208333,
          "velocity": 0.3937007874015748
        },
        {
          "duration": 0.078125,
          "durationTicks": 96,
          "midi": 75,
          "name": "D#5",
          "ticks": 72001,
          "time": 58.59456380208333,
          "velocity": 0.3937007874015748
        },
        {
          "duration": 0.15625,
          "durationTicks": 192,
          "midi": 48,
          "name": "C3",
          "ticks": 72001,
          "time": 58.59456380208333,
          "velocity": 0.3937007874015748
        },
        {
          "duration": 0.078125,
          "durationTicks": 96,
          "midi": 63,
          "name": "D#4",
          "ticks": 72001,
          "time": 58.59456380208333,
          "velocity": 0.3937007874015748
        },
        {
          "duration": 0.078125,
          "durationTicks": 96,
          "midi": 77,
          "name": "F5",
          "ticks": 72129,
          "time": 58.69873046875,
          "velocity": 0.3937007874015748
        },
        {
          "duration": 0.078125,
          "durationTicks": 96,
          "midi": 89,
          "name": "F6",
          "ticks": 72129,
          "time": 58.69873046875,
          "velocity": 0.3937007874015748
        },
        {
          "duration": 0.078125,
          "durationTicks": 96,
          "midi": 65,
          "name": "F4",
          "ticks": 72129,
          "time": 58.69873046875,
          "velocity": 0.3937007874015748
        },
        {
          "duration": 0.234375,
          "durationTicks": 288,
          "midi": 91,
          "name": "G6",
          "ticks": 72193,
          "time": 58.75081380208333,
          "velocity": 0.3937007874015748
        },
        {
          "duration": 0.15625,
          "durationTicks": 192,
          "midi": 48,
          "name": "C3",
          "ticks": 72193,
          "time": 58.75081380208333,
          "velocity": 0.3937007874015748
        },
        {
          "duration": 0.234375,
          "durationTicks": 288,
          "midi": 67,
          "name": "G4",
          "ticks": 72193,
          "time": 58.75081380208333,
          "velocity": 0.3937007874015748
        },
        {
          "duration": 0.234375,
          "durationTicks": 288,
          "midi": 79,
          "name": "G5",
          "ticks": 72193,
          "time": 58.75081380208333,
          "velocity": 0.3937007874015748
        },
        {
          "duration": 0.15625,
          "durationTicks": 192,
          "midi": 48,
          "name": "C3",
          "ticks": 72385,
          "time": 58.90706380208333,
          "velocity": 0.3937007874015748
        },
        {
          "duration": 0.234375,
          "durationTicks": 288,
          "midi": 79,
          "name": "G5",
          "ticks": 72577,
          "time": 59.06331380208333,
          "velocity": 0.3937007874015748
        },
        {
          "duration": 0.234375,
          "durationTicks": 288,
          "midi": 67,
          "name": "G4",
          "ticks": 72577,
          "time": 59.06331380208333,
          "velocity": 0.3937007874015748
        },
        {
          "duration": 0.15625,
          "durationTicks": 192,
          "midi": 48,
          "name": "C3",
          "ticks": 72577,
          "time": 59.06331380208333,
          "velocity": 0.3937007874015748
        },
        {
          "duration": 0.234375,
          "durationTicks": 288,
          "midi": 91,
          "name": "G6",
          "ticks": 72577,
          "time": 59.06331380208333,
          "velocity": 0.3937007874015748
        },
        {
          "duration": 0.15625,
          "durationTicks": 192,
          "midi": 48,
          "name": "C3",
          "ticks": 72769,
          "time": 59.21956380208333,
          "velocity": 0.3937007874015748
        },
        {
          "duration": 0.15625,
          "durationTicks": 192,
          "midi": 50,
          "name": "D3",
          "ticks": 72961,
          "time": 59.37581380208333,
          "velocity": 0.3937007874015748
        },
        {
          "duration": 0.234375,
          "durationTicks": 288,
          "midi": 91,
          "name": "G6",
          "ticks": 72961,
          "time": 59.37581380208333,
          "velocity": 0.3937007874015748
        },
        {
          "duration": 0.234375,
          "durationTicks": 288,
          "midi": 67,
          "name": "G4",
          "ticks": 72961,
          "time": 59.37581380208333,
          "velocity": 0.3937007874015748
        },
        {
          "duration": 0.234375,
          "durationTicks": 288,
          "midi": 79,
          "name": "G5",
          "ticks": 72961,
          "time": 59.37581380208333,
          "velocity": 0.3937007874015748
        },
        {
          "duration": 0.15625,
          "durationTicks": 192,
          "midi": 50,
          "name": "D3",
          "ticks": 73153,
          "time": 59.53206380208333,
          "velocity": 0.3937007874015748
        },
        {
          "duration": 0.234375,
          "durationTicks": 288,
          "midi": 79,
          "name": "G5",
          "ticks": 73345,
          "time": 59.68831380208333,
          "velocity": 0.3937007874015748
        },
        {
          "duration": 0.234375,
          "durationTicks": 288,
          "midi": 67,
          "name": "G4",
          "ticks": 73345,
          "time": 59.68831380208333,
          "velocity": 0.3937007874015748
        },
        {
          "duration": 0.234375,
          "durationTicks": 288,
          "midi": 91,
          "name": "G6",
          "ticks": 73345,
          "time": 59.68831380208333,
          "velocity": 0.3937007874015748
        },
        {
          "duration": 0.15625,
          "durationTicks": 192,
          "midi": 50,
          "name": "D3",
          "ticks": 73345,
          "time": 59.68831380208333,
          "velocity": 0.3937007874015748
        },
        {
          "duration": 0.15625,
          "durationTicks": 192,
          "midi": 50,
          "name": "D3",
          "ticks": 73537,
          "time": 59.84456380208333,
          "velocity": 0.3937007874015748
        },
        {
          "duration": 0.78125,
          "durationTicks": 960,
          "midi": 91,
          "name": "G6",
          "ticks": 73729,
          "time": 60.00081380208333,
          "velocity": 0.3937007874015748
        },
        {
          "duration": 0.78125,
          "durationTicks": 960,
          "midi": 67,
          "name": "G4",
          "ticks": 73729,
          "time": 60.00081380208333,
          "velocity": 0.3937007874015748
        },
        {
          "duration": 0.78125,
          "durationTicks": 960,
          "midi": 79,
          "name": "G5",
          "ticks": 73729,
          "time": 60.00081380208333,
          "velocity": 0.3937007874015748
        },
        {
          "duration": 0.15625,
          "durationTicks": 192,
          "midi": 51,
          "name": "D#3",
          "ticks": 73729,
          "time": 60.00081380208333,
          "velocity": 0.3937007874015748
        },
        {
          "duration": 0.15625,
          "durationTicks": 192,
          "midi": 51,
          "name": "D#3",
          "ticks": 73921,
          "time": 60.15706380208333,
          "velocity": 0.3937007874015748
        },
        {
          "duration": 0.15625,
          "durationTicks": 192,
          "midi": 51,
          "name": "D#3",
          "ticks": 74113,
          "time": 60.31331380208333,
          "velocity": 0.3937007874015748
        },
        {
          "duration": 0.15625,
          "durationTicks": 192,
          "midi": 51,
          "name": "D#3",
          "ticks": 74305,
          "time": 60.46956380208333,
          "velocity": 0.3937007874015748
        },
        {
          "duration": 0.15625,
          "durationTicks": 192,
          "midi": 51,
          "name": "D#3",
          "ticks": 74497,
          "time": 60.62581380208333,
          "velocity": 0.3937007874015748
        },
        {
          "duration": 0.15625,
          "durationTicks": 192,
          "midi": 51,
          "name": "D#3",
          "ticks": 74689,
          "time": 60.78206380208333,
          "velocity": 0.3937007874015748
        },
        {
          "duration": 0.15625,
          "durationTicks": 192,
          "midi": 51,
          "name": "D#3",
          "ticks": 74881,
          "time": 60.93831380208333,
          "velocity": 0.3937007874015748
        },
        {
          "duration": 0.078125,
          "durationTicks": 96,
          "midi": 65,
          "name": "F4",
          "ticks": 74881,
          "time": 60.93831380208333,
          "velocity": 0.3937007874015748
        },
        {
          "duration": 0.078125,
          "durationTicks": 96,
          "midi": 77,
          "name": "F5",
          "ticks": 74881,
          "time": 60.93831380208333,
          "velocity": 0.3937007874015748
        },
        {
          "duration": 0.078125,
          "durationTicks": 96,
          "midi": 89,
          "name": "F6",
          "ticks": 74881,
          "time": 60.93831380208333,
          "velocity": 0.3937007874015748
        },
        {
          "duration": 0.15625,
          "durationTicks": 192,
          "midi": 51,
          "name": "D#3",
          "ticks": 75073,
          "time": 61.09456380208333,
          "velocity": 0.3937007874015748
        },
        {
          "duration": 0.078125,
          "durationTicks": 96,
          "midi": 91,
          "name": "G6",
          "ticks": 75073,
          "time": 61.09456380208333,
          "velocity": 0.3937007874015748
        },
        {
          "duration": 0.078125,
          "durationTicks": 96,
          "midi": 79,
          "name": "G5",
          "ticks": 75073,
          "time": 61.09456380208333,
          "velocity": 0.3937007874015748
        },
        {
          "duration": 0.078125,
          "durationTicks": 96,
          "midi": 67,
          "name": "G4",
          "ticks": 75073,
          "time": 61.09456380208333,
          "velocity": 0.3937007874015748
        },
        {
          "duration": 0.546875,
          "durationTicks": 672,
          "midi": 92,
          "name": "G#6",
          "ticks": 75265,
          "time": 61.25081380208333,
          "velocity": 0.3937007874015748
        },
        {
          "duration": 0.15625,
          "durationTicks": 192,
          "midi": 53,
          "name": "F3",
          "ticks": 75265,
          "time": 61.25081380208333,
          "velocity": 0.3937007874015748
        },
        {
          "duration": 0.546875,
          "durationTicks": 672,
          "midi": 68,
          "name": "G#4",
          "ticks": 75265,
          "time": 61.25081380208333,
          "velocity": 0.3937007874015748
        },
        {
          "duration": 0.546875,
          "durationTicks": 672,
          "midi": 80,
          "name": "G#5",
          "ticks": 75265,
          "time": 61.25081380208333,
          "velocity": 0.3937007874015748
        },
        {
          "duration": 0.15625,
          "durationTicks": 192,
          "midi": 53,
          "name": "F3",
          "ticks": 75457,
          "time": 61.40706380208333,
          "velocity": 0.3937007874015748
        },
        {
          "duration": 0.15625,
          "durationTicks": 192,
          "midi": 53,
          "name": "F3",
          "ticks": 75649,
          "time": 61.56331380208333,
          "velocity": 0.3937007874015748
        },
        {
          "duration": 0.15625,
          "durationTicks": 192,
          "midi": 53,
          "name": "F3",
          "ticks": 75841,
          "time": 61.71956380208333,
          "velocity": 0.3937007874015748
        },
        {
          "duration": 0.234375,
          "durationTicks": 288,
          "midi": 86,
          "name": "D6",
          "ticks": 76033,
          "time": 61.87581380208333,
          "velocity": 0.3937007874015748
        },
        {
          "duration": 0.15625,
          "durationTicks": 192,
          "midi": 43,
          "name": "G2",
          "ticks": 76033,
          "time": 61.87581380208333,
          "velocity": 0.3937007874015748
        },
        {
          "duration": 0.234375,
          "durationTicks": 288,
          "midi": 62,
          "name": "D4",
          "ticks": 76033,
          "time": 61.87581380208333,
          "velocity": 0.3937007874015748
        },
        {
          "duration": 0.234375,
          "durationTicks": 288,
          "midi": 74,
          "name": "D5",
          "ticks": 76033,
          "time": 61.87581380208333,
          "velocity": 0.3937007874015748
        },
        {
          "duration": 0.15625,
          "durationTicks": 192,
          "midi": 43,
          "name": "G2",
          "ticks": 76225,
          "time": 62.03206380208333,
          "velocity": 0.3937007874015748
        },
        {
          "duration": 0.078125,
          "durationTicks": 96,
          "midi": 87,
          "name": "D#6",
          "ticks": 76417,
          "time": 62.18831380208333,
          "velocity": 0.3937007874015748
        },
        {
          "duration": 0.15625,
          "durationTicks": 192,
          "midi": 43,
          "name": "G2",
          "ticks": 76417,
          "time": 62.18831380208333,
          "velocity": 0.3937007874015748
        },
        {
          "duration": 0.078125,
          "durationTicks": 96,
          "midi": 75,
          "name": "D#5",
          "ticks": 76417,
          "time": 62.18831380208333,
          "velocity": 0.3937007874015748
        },
        {
          "duration": 0.078125,
          "durationTicks": 96,
          "midi": 63,
          "name": "D#4",
          "ticks": 76417,
          "time": 62.18831380208333,
          "velocity": 0.3937007874015748
        },
        {
          "duration": 0.078125,
          "durationTicks": 96,
          "midi": 65,
          "name": "F4",
          "ticks": 76609,
          "time": 62.34456380208333,
          "velocity": 0.3937007874015748
        },
        {
          "duration": 0.15625,
          "durationTicks": 192,
          "midi": 43,
          "name": "G2",
          "ticks": 76609,
          "time": 62.34456380208333,
          "velocity": 0.3937007874015748
        },
        {
          "duration": 0.078125,
          "durationTicks": 96,
          "midi": 77,
          "name": "F5",
          "ticks": 76609,
          "time": 62.34456380208333,
          "velocity": 0.3937007874015748
        },
        {
          "duration": 0.078125,
          "durationTicks": 96,
          "midi": 89,
          "name": "F6",
          "ticks": 76609,
          "time": 62.34456380208333,
          "velocity": 0.3937007874015748
        },
        {
          "duration": 0.546875,
          "durationTicks": 672,
          "midi": 79,
          "name": "G5",
          "ticks": 76801,
          "time": 62.50081380208333,
          "velocity": 0.3937007874015748
        },
        {
          "duration": 0.15625,
          "durationTicks": 192,
          "midi": 48,
          "name": "C3",
          "ticks": 76801,
          "time": 62.50081380208333,
          "velocity": 0.3937007874015748
        },
        {
          "duration": 0.546875,
          "durationTicks": 672,
          "midi": 67,
          "name": "G4",
          "ticks": 76801,
          "time": 62.50081380208333,
          "velocity": 0.3937007874015748
        },
        {
          "duration": 0.546875,
          "durationTicks": 672,
          "midi": 91,
          "name": "G6",
          "ticks": 76801,
          "time": 62.50081380208333,
          "velocity": 0.3937007874015748
        },
        {
          "duration": 0.15625,
          "durationTicks": 192,
          "midi": 48,
          "name": "C3",
          "ticks": 76993,
          "time": 62.65706380208333,
          "velocity": 0.3937007874015748
        },
        {
          "duration": 0.15625,
          "durationTicks": 192,
          "midi": 48,
          "name": "C3",
          "ticks": 77185,
          "time": 62.81331380208333,
          "velocity": 0.3937007874015748
        },
        {
          "duration": 0.15625,
          "durationTicks": 192,
          "midi": 48,
          "name": "C3",
          "ticks": 77377,
          "time": 62.96956380208333,
          "velocity": 0.3937007874015748
        },
        {
          "duration": 0.15625,
          "durationTicks": 192,
          "midi": 45,
          "name": "A2",
          "ticks": 77569,
          "time": 63.12581380208333,
          "velocity": 0.3937007874015748
        },
        {
          "duration": 0.234375,
          "durationTicks": 288,
          "midi": 72,
          "name": "C5",
          "ticks": 77569,
          "time": 63.12581380208333,
          "velocity": 0.3937007874015748
        },
        {
          "duration": 0.234375,
          "durationTicks": 288,
          "midi": 84,
          "name": "C6",
          "ticks": 77569,
          "time": 63.12581380208333,
          "velocity": 0.3937007874015748
        },
        {
          "duration": 0.234375,
          "durationTicks": 288,
          "midi": 60,
          "name": "C4",
          "ticks": 77569,
          "time": 63.12581380208333,
          "velocity": 0.3937007874015748
        },
        {
          "duration": 0.15625,
          "durationTicks": 192,
          "midi": 45,
          "name": "A2",
          "ticks": 77761,
          "time": 63.28206380208333,
          "velocity": 0.3937007874015748
        },
        {
          "duration": 0.15625,
          "durationTicks": 192,
          "midi": 45,
          "name": "A2",
          "ticks": 77953,
          "time": 63.43831380208333,
          "velocity": 0.3937007874015748
        },
        {
          "duration": 0.078125,
          "durationTicks": 96,
          "midi": 84,
          "name": "C6",
          "ticks": 77953,
          "time": 63.43831380208333,
          "velocity": 0.3937007874015748
        },
        {
          "duration": 0.078125,
          "durationTicks": 96,
          "midi": 60,
          "name": "C4",
          "ticks": 77953,
          "time": 63.43831380208333,
          "velocity": 0.3937007874015748
        },
        {
          "duration": 0.078125,
          "durationTicks": 96,
          "midi": 72,
          "name": "C5",
          "ticks": 77953,
          "time": 63.43831380208333,
          "velocity": 0.3937007874015748
        },
        {
          "duration": 0.078125,
          "durationTicks": 96,
          "midi": 62,
          "name": "D4",
          "ticks": 78145,
          "time": 63.59456380208333,
          "velocity": 0.3937007874015748
        },
        {
          "duration": 0.078125,
          "durationTicks": 96,
          "midi": 86,
          "name": "D6",
          "ticks": 78145,
          "time": 63.59456380208333,
          "velocity": 0.3937007874015748
        },
        {
          "duration": 0.078125,
          "durationTicks": 96,
          "midi": 74,
          "name": "D5",
          "ticks": 78145,
          "time": 63.59456380208333,
          "velocity": 0.3937007874015748
        },
        {
          "duration": 0.15625,
          "durationTicks": 192,
          "midi": 45,
          "name": "A2",
          "ticks": 78145,
          "time": 63.59456380208333,
          "velocity": 0.3937007874015748
        },
        {
          "duration": 0.390625,
          "durationTicks": 480,
          "midi": 63,
          "name": "D#4",
          "ticks": 78337,
          "time": 63.75081380208333,
          "velocity": 0.3937007874015748
        },
        {
          "duration": 0.390625,
          "durationTicks": 480,
          "midi": 75,
          "name": "D#5",
          "ticks": 78337,
          "time": 63.75081380208333,
          "velocity": 0.3937007874015748
        },
        {
          "duration": 0.15625,
          "durationTicks": 192,
          "midi": 54,
          "name": "F#3",
          "ticks": 78337,
          "time": 63.75081380208333,
          "velocity": 0.3937007874015748
        },
        {
          "duration": 0.390625,
          "durationTicks": 480,
          "midi": 87,
          "name": "D#6",
          "ticks": 78337,
          "time": 63.75081380208333,
          "velocity": 0.3937007874015748
        },
        {
          "duration": 0.15625,
          "durationTicks": 192,
          "midi": 54,
          "name": "F#3",
          "ticks": 78529,
          "time": 63.90706380208333,
          "velocity": 0.3937007874015748
        },
        {
          "duration": 0.15625,
          "durationTicks": 192,
          "midi": 54,
          "name": "F#3",
          "ticks": 78721,
          "time": 64.06331380208333,
          "velocity": 0.3937007874015748
        },
        {
          "duration": 0.078125,
          "durationTicks": 96,
          "midi": 65,
          "name": "F4",
          "ticks": 78913,
          "time": 64.21956380208333,
          "velocity": 0.3937007874015748
        },
        {
          "duration": 0.15625,
          "durationTicks": 192,
          "midi": 54,
          "name": "F#3",
          "ticks": 78913,
          "time": 64.21956380208333,
          "velocity": 0.3937007874015748
        },
        {
          "duration": 0.078125,
          "durationTicks": 96,
          "midi": 77,
          "name": "F5",
          "ticks": 78913,
          "time": 64.21956380208333,
          "velocity": 0.3937007874015748
        },
        {
          "duration": 0.078125,
          "durationTicks": 96,
          "midi": 89,
          "name": "F6",
          "ticks": 78913,
          "time": 64.21956380208333,
          "velocity": 0.3937007874015748
        },
        {
          "duration": 0.15625,
          "durationTicks": 192,
          "midi": 55,
          "name": "G3",
          "ticks": 79105,
          "time": 64.37581380208333,
          "velocity": 0.3937007874015748
        },
        {
          "duration": 0.390625,
          "durationTicks": 480,
          "midi": 86,
          "name": "D6",
          "ticks": 79105,
          "time": 64.37581380208333,
          "velocity": 0.3937007874015748
        },
        {
          "duration": 0.390625,
          "durationTicks": 480,
          "midi": 62,
          "name": "D4",
          "ticks": 79105,
          "time": 64.37581380208333,
          "velocity": 0.3937007874015748
        },
        {
          "duration": 0.390625,
          "durationTicks": 480,
          "midi": 74,
          "name": "D5",
          "ticks": 79105,
          "time": 64.37581380208333,
          "velocity": 0.3937007874015748
        },
        {
          "duration": 0.15625,
          "durationTicks": 192,
          "midi": 55,
          "name": "G3",
          "ticks": 79297,
          "time": 64.53206380208333,
          "velocity": 0.3937007874015748
        },
        {
          "duration": 0.15625,
          "durationTicks": 192,
          "midi": 55,
          "name": "G3",
          "ticks": 79489,
          "time": 64.68831380208333,
          "velocity": 0.3937007874015748
        },
        {
          "duration": 0.078125,
          "durationTicks": 96,
          "midi": 75,
          "name": "D#5",
          "ticks": 79681,
          "time": 64.84456380208333,
          "velocity": 0.3937007874015748
        },
        {
          "duration": 0.15625,
          "durationTicks": 192,
          "midi": 55,
          "name": "G3",
          "ticks": 79681,
          "time": 64.84456380208333,
          "velocity": 0.3937007874015748
        },
        {
          "duration": 0.078125,
          "durationTicks": 96,
          "midi": 63,
          "name": "D#4",
          "ticks": 79681,
          "time": 64.84456380208333,
          "velocity": 0.3937007874015748
        },
        {
          "duration": 0.078125,
          "durationTicks": 96,
          "midi": 87,
          "name": "D#6",
          "ticks": 79681,
          "time": 64.84456380208333,
          "velocity": 0.3937007874015748
        },
        {
          "duration": 0.546875,
          "durationTicks": 672,
          "midi": 60,
          "name": "C4",
          "ticks": 79873,
          "time": 65.00081380208333,
          "velocity": 0.3937007874015748
        },
        {
          "duration": 0.546875,
          "durationTicks": 672,
          "midi": 84,
          "name": "C6",
          "ticks": 79873,
          "time": 65.00081380208333,
          "velocity": 0.3937007874015748
        },
        {
          "duration": 0.15625,
          "durationTicks": 192,
          "midi": 48,
          "name": "C3",
          "ticks": 79873,
          "time": 65.00081380208333,
          "velocity": 0.3937007874015748
        },
        {
          "duration": 0.546875,
          "durationTicks": 672,
          "midi": 72,
          "name": "C5",
          "ticks": 79873,
          "time": 65.00081380208333,
          "velocity": 0.3937007874015748
        },
        {
          "duration": 0.15625,
          "durationTicks": 192,
          "midi": 48,
          "name": "C3",
          "ticks": 80065,
          "time": 65.15706380208333,
          "velocity": 0.3937007874015748
        },
        {
          "duration": 0.15625,
          "durationTicks": 192,
          "midi": 48,
          "name": "C3",
          "ticks": 80257,
          "time": 65.31331380208333,
          "velocity": 0.3937007874015748
        },
        {
          "duration": 0.15625,
          "durationTicks": 192,
          "midi": 48,
          "name": "C3",
          "ticks": 80449,
          "time": 65.46956380208333,
          "velocity": 0.3937007874015748
        },
        {
          "duration": 0.15625,
          "durationTicks": 192,
          "midi": 48,
          "name": "C3",
          "ticks": 80641,
          "time": 65.62581380208333,
          "velocity": 0.3937007874015748
        },
        {
          "duration": 0.078125,
          "durationTicks": 96,
          "midi": 55,
          "name": "G3",
          "ticks": 80833,
          "time": 65.78206380208333,
          "velocity": 0.3937007874015748
        },
        {
          "duration": 0.15625,
          "durationTicks": 192,
          "midi": 48,
          "name": "C3",
          "ticks": 80833,
          "time": 65.78206380208333,
          "velocity": 0.3937007874015748
        },
        {
          "duration": 0.078125,
          "durationTicks": 96,
          "midi": 67,
          "name": "G4",
          "ticks": 80833,
          "time": 65.78206380208333,
          "velocity": 0.3937007874015748
        },
        {
          "duration": 0.078125,
          "durationTicks": 96,
          "midi": 79,
          "name": "G5",
          "ticks": 80833,
          "time": 65.78206380208333,
          "velocity": 0.3937007874015748
        },
        {
          "duration": 0.078125,
          "durationTicks": 96,
          "midi": 72,
          "name": "C5",
          "ticks": 81025,
          "time": 65.93831380208333,
          "velocity": 0.3937007874015748
        },
        {
          "duration": 0.15625,
          "durationTicks": 192,
          "midi": 48,
          "name": "C3",
          "ticks": 81025,
          "time": 65.93831380208333,
          "velocity": 0.3937007874015748
        },
        {
          "duration": 0.078125,
          "durationTicks": 96,
          "midi": 84,
          "name": "C6",
          "ticks": 81025,
          "time": 65.93831380208333,
          "velocity": 0.3937007874015748
        },
        {
          "duration": 0.078125,
          "durationTicks": 96,
          "midi": 60,
          "name": "C4",
          "ticks": 81025,
          "time": 65.93831380208333,
          "velocity": 0.3937007874015748
        },
        {
          "duration": 0.078125,
          "durationTicks": 96,
          "midi": 62,
          "name": "D4",
          "ticks": 81217,
          "time": 66.09456380208333,
          "velocity": 0.3937007874015748
        },
        {
          "duration": 0.078125,
          "durationTicks": 96,
          "midi": 74,
          "name": "D5",
          "ticks": 81217,
          "time": 66.09456380208333,
          "velocity": 0.3937007874015748
        },
        {
          "duration": 0.15625,
          "durationTicks": 192,
          "midi": 48,
          "name": "C3",
          "ticks": 81217,
          "time": 66.09456380208333,
          "velocity": 0.3937007874015748
        },
        {
          "duration": 0.078125,
          "durationTicks": 96,
          "midi": 86,
          "name": "D6",
          "ticks": 81217,
          "time": 66.09456380208333,
          "velocity": 0.3937007874015748
        },
        {
          "duration": 0.15625,
          "durationTicks": 192,
          "midi": 48,
          "name": "C3",
          "ticks": 81409,
          "time": 66.25081380208333,
          "velocity": 0.3937007874015748
        },
        {
          "duration": 0.390625,
          "durationTicks": 480,
          "midi": 63,
          "name": "D#4",
          "ticks": 81409,
          "time": 66.25081380208333,
          "velocity": 0.3937007874015748
        },
        {
          "duration": 0.390625,
          "durationTicks": 480,
          "midi": 75,
          "name": "D#5",
          "ticks": 81409,
          "time": 66.25081380208333,
          "velocity": 0.3937007874015748
        },
        {
          "duration": 0.390625,
          "durationTicks": 480,
          "midi": 87,
          "name": "D#6",
          "ticks": 81409,
          "time": 66.25081380208333,
          "velocity": 0.3937007874015748
        },
        {
          "duration": 0.15625,
          "durationTicks": 192,
          "midi": 48,
          "name": "C3",
          "ticks": 81601,
          "time": 66.40706380208333,
          "velocity": 0.3937007874015748
        },
        {
          "duration": 0.15625,
          "durationTicks": 192,
          "midi": 48,
          "name": "C3",
          "ticks": 81793,
          "time": 66.56331380208333,
          "velocity": 0.3937007874015748
        },
        {
          "duration": 0.078125,
          "durationTicks": 96,
          "midi": 89,
          "name": "F6",
          "ticks": 81985,
          "time": 66.71956380208333,
          "velocity": 0.3937007874015748
        },
        {
          "duration": 0.15625,
          "durationTicks": 192,
          "midi": 48,
          "name": "C3",
          "ticks": 81985,
          "time": 66.71956380208333,
          "velocity": 0.3937007874015748
        },
        {
          "duration": 0.078125,
          "durationTicks": 96,
          "midi": 65,
          "name": "F4",
          "ticks": 81985,
          "time": 66.71956380208333,
          "velocity": 0.3937007874015748
        },
        {
          "duration": 0.078125,
          "durationTicks": 96,
          "midi": 77,
          "name": "F5",
          "ticks": 81985,
          "time": 66.71956380208333,
          "velocity": 0.3937007874015748
        },
        {
          "duration": 0.390625,
          "durationTicks": 480,
          "midi": 62,
          "name": "D4",
          "ticks": 82177,
          "time": 66.87581380208333,
          "velocity": 0.3937007874015748
        },
        {
          "duration": 0.390625,
          "durationTicks": 480,
          "midi": 86,
          "name": "D6",
          "ticks": 82177,
          "time": 66.87581380208333,
          "velocity": 0.3937007874015748
        },
        {
          "duration": 0.15625,
          "durationTicks": 192,
          "midi": 47,
          "name": "B2",
          "ticks": 82177,
          "time": 66.87581380208333,
          "velocity": 0.3937007874015748
        },
        {
          "duration": 0.390625,
          "durationTicks": 480,
          "midi": 74,
          "name": "D5",
          "ticks": 82177,
          "time": 66.87581380208333,
          "velocity": 0.3937007874015748
        },
        {
          "duration": 0.15625,
          "durationTicks": 192,
          "midi": 47,
          "name": "B2",
          "ticks": 82369,
          "time": 67.03206380208333,
          "velocity": 0.3937007874015748
        },
        {
          "duration": 0.15625,
          "durationTicks": 192,
          "midi": 47,
          "name": "B2",
          "ticks": 82561,
          "time": 67.18831380208333,
          "velocity": 0.3937007874015748
        },
        {
          "duration": 0.15625,
          "durationTicks": 192,
          "midi": 47,
          "name": "B2",
          "ticks": 82753,
          "time": 67.34456380208333,
          "velocity": 0.3937007874015748
        },
        {
          "duration": 0.078125,
          "durationTicks": 96,
          "midi": 63,
          "name": "D#4",
          "ticks": 82753,
          "time": 67.34456380208333,
          "velocity": 0.3937007874015748
        },
        {
          "duration": 0.078125,
          "durationTicks": 96,
          "midi": 87,
          "name": "D#6",
          "ticks": 82753,
          "time": 67.34456380208333,
          "velocity": 0.3937007874015748
        },
        {
          "duration": 0.078125,
          "durationTicks": 96,
          "midi": 75,
          "name": "D#5",
          "ticks": 82753,
          "time": 67.34456380208333,
          "velocity": 0.3937007874015748
        },
        {
          "duration": 0.15625,
          "durationTicks": 192,
          "midi": 48,
          "name": "C3",
          "ticks": 82945,
          "time": 67.50081380208333,
          "velocity": 0.3937007874015748
        },
        {
          "duration": 0.546875,
          "durationTicks": 672,
          "midi": 84,
          "name": "C6",
          "ticks": 82945,
          "time": 67.50081380208333,
          "velocity": 0.3937007874015748
        },
        {
          "duration": 0.546875,
          "durationTicks": 672,
          "midi": 60,
          "name": "C4",
          "ticks": 82945,
          "time": 67.50081380208333,
          "velocity": 0.3937007874015748
        },
        {
          "duration": 0.546875,
          "durationTicks": 672,
          "midi": 72,
          "name": "C5",
          "ticks": 82945,
          "time": 67.50081380208333,
          "velocity": 0.3937007874015748
        },
        {
          "duration": 0.15625,
          "durationTicks": 192,
          "midi": 48,
          "name": "C3",
          "ticks": 83137,
          "time": 67.65706380208333,
          "velocity": 0.3937007874015748
        },
        {
          "duration": 0.15625,
          "durationTicks": 192,
          "midi": 48,
          "name": "C3",
          "ticks": 83329,
          "time": 67.81331380208333,
          "velocity": 0.3937007874015748
        },
        {
          "duration": 0.15625,
          "durationTicks": 192,
          "midi": 48,
          "name": "C3",
          "ticks": 83521,
          "time": 67.96956380208333,
          "velocity": 0.3937007874015748
        },
        {
          "duration": 0.15625,
          "durationTicks": 192,
          "midi": 48,
          "name": "C3",
          "ticks": 83713,
          "time": 68.12581380208333,
          "velocity": 0.3937007874015748
        },
        {
          "duration": 0.15625,
          "durationTicks": 192,
          "midi": 48,
          "name": "C3",
          "ticks": 83905,
          "time": 68.28206380208333,
          "velocity": 0.3937007874015748
        },
        {
          "duration": 0.078125,
          "durationTicks": 96,
          "midi": 60,
          "name": "C4",
          "ticks": 83905,
          "time": 68.28206380208333,
          "velocity": 0.3937007874015748
        },
        {
          "duration": 0.078125,
          "durationTicks": 96,
          "midi": 84,
          "name": "C6",
          "ticks": 83905,
          "time": 68.28206380208333,
          "velocity": 0.3937007874015748
        },
        {
          "duration": 0.078125,
          "durationTicks": 96,
          "midi": 72,
          "name": "C5",
          "ticks": 83905,
          "time": 68.28206380208333,
          "velocity": 0.3937007874015748
        },
        {
          "duration": 0.078125,
          "durationTicks": 96,
          "midi": 83,
          "name": "B5",
          "ticks": 84033,
          "time": 68.38623046875,
          "velocity": 0.3937007874015748
        },
        {
          "duration": 0.078125,
          "durationTicks": 96,
          "midi": 59,
          "name": "B3",
          "ticks": 84033,
          "time": 68.38623046875,
          "velocity": 0.3937007874015748
        },
        {
          "duration": 0.078125,
          "durationTicks": 96,
          "midi": 71,
          "name": "B4",
          "ticks": 84033,
          "time": 68.38623046875,
          "velocity": 0.3937007874015748
        },
        {
          "duration": 0.078125,
          "durationTicks": 96,
          "midi": 72,
          "name": "C5",
          "ticks": 84097,
          "time": 68.43831380208333,
          "velocity": 0.3937007874015748
        },
        {
          "duration": 0.078125,
          "durationTicks": 96,
          "midi": 84,
          "name": "C6",
          "ticks": 84097,
          "time": 68.43831380208333,
          "velocity": 0.3937007874015748
        },
        {
          "duration": 0.15625,
          "durationTicks": 192,
          "midi": 48,
          "name": "C3",
          "ticks": 84097,
          "time": 68.43831380208333,
          "velocity": 0.3937007874015748
        },
        {
          "duration": 0.078125,
          "durationTicks": 96,
          "midi": 60,
          "name": "C4",
          "ticks": 84097,
          "time": 68.43831380208333,
          "velocity": 0.3937007874015748
        },
        {
          "duration": 0.078125,
          "durationTicks": 96,
          "midi": 62,
          "name": "D4",
          "ticks": 84225,
          "time": 68.54248046875,
          "velocity": 0.3937007874015748
        },
        {
          "duration": 0.078125,
          "durationTicks": 96,
          "midi": 86,
          "name": "D6",
          "ticks": 84225,
          "time": 68.54248046875,
          "velocity": 0.3937007874015748
        },
        {
          "duration": 0.078125,
          "durationTicks": 96,
          "midi": 74,
          "name": "D5",
          "ticks": 84225,
          "time": 68.54248046875,
          "velocity": 0.3937007874015748
        },
        {
          "duration": 0.15625,
          "durationTicks": 192,
          "midi": 48,
          "name": "C3",
          "ticks": 84289,
          "time": 68.59456380208333,
          "velocity": 0.3937007874015748
        },
        {
          "duration": 0.078125,
          "durationTicks": 96,
          "midi": 75,
          "name": "D#5",
          "ticks": 84289,
          "time": 68.59456380208333,
          "velocity": 0.3937007874015748
        },
        {
          "duration": 0.078125,
          "durationTicks": 96,
          "midi": 63,
          "name": "D#4",
          "ticks": 84289,
          "time": 68.59456380208333,
          "velocity": 0.3937007874015748
        },
        {
          "duration": 0.078125,
          "durationTicks": 96,
          "midi": 87,
          "name": "D#6",
          "ticks": 84289,
          "time": 68.59456380208333,
          "velocity": 0.3937007874015748
        },
        {
          "duration": 0.078125,
          "durationTicks": 96,
          "midi": 77,
          "name": "F5",
          "ticks": 84417,
          "time": 68.69873046875,
          "velocity": 0.3937007874015748
        },
        {
          "duration": 0.078125,
          "durationTicks": 96,
          "midi": 89,
          "name": "F6",
          "ticks": 84417,
          "time": 68.69873046875,
          "velocity": 0.3937007874015748
        },
        {
          "duration": 0.078125,
          "durationTicks": 96,
          "midi": 65,
          "name": "F4",
          "ticks": 84417,
          "time": 68.69873046875,
          "velocity": 0.3937007874015748
        },
        {
          "duration": 0.234375,
          "durationTicks": 288,
          "midi": 91,
          "name": "G6",
          "ticks": 84481,
          "time": 68.75081380208333,
          "velocity": 0.3937007874015748
        },
        {
          "duration": 0.234375,
          "durationTicks": 288,
          "midi": 79,
          "name": "G5",
          "ticks": 84481,
          "time": 68.75081380208333,
          "velocity": 0.3937007874015748
        },
        {
          "duration": 0.234375,
          "durationTicks": 288,
          "midi": 67,
          "name": "G4",
          "ticks": 84481,
          "time": 68.75081380208333,
          "velocity": 0.3937007874015748
        },
        {
          "duration": 0.15625,
          "durationTicks": 192,
          "midi": 48,
          "name": "C3",
          "ticks": 84481,
          "time": 68.75081380208333,
          "velocity": 0.3937007874015748
        },
        {
          "duration": 0.15625,
          "durationTicks": 192,
          "midi": 48,
          "name": "C3",
          "ticks": 84673,
          "time": 68.90706380208333,
          "velocity": 0.3937007874015748
        },
        {
          "duration": 0.234375,
          "durationTicks": 288,
          "midi": 67,
          "name": "G4",
          "ticks": 84865,
          "time": 69.06331380208333,
          "velocity": 0.3937007874015748
        },
        {
          "duration": 0.234375,
          "durationTicks": 288,
          "midi": 79,
          "name": "G5",
          "ticks": 84865,
          "time": 69.06331380208333,
          "velocity": 0.3937007874015748
        },
        {
          "duration": 0.15625,
          "durationTicks": 192,
          "midi": 48,
          "name": "C3",
          "ticks": 84865,
          "time": 69.06331380208333,
          "velocity": 0.3937007874015748
        },
        {
          "duration": 0.234375,
          "durationTicks": 288,
          "midi": 91,
          "name": "G6",
          "ticks": 84865,
          "time": 69.06331380208333,
          "velocity": 0.3937007874015748
        },
        {
          "duration": 0.15625,
          "durationTicks": 192,
          "midi": 48,
          "name": "C3",
          "ticks": 85057,
          "time": 69.21956380208333,
          "velocity": 0.3937007874015748
        },
        {
          "duration": 0.234375,
          "durationTicks": 288,
          "midi": 91,
          "name": "G6",
          "ticks": 85249,
          "time": 69.37581380208333,
          "velocity": 0.3937007874015748
        },
        {
          "duration": 0.234375,
          "durationTicks": 288,
          "midi": 67,
          "name": "G4",
          "ticks": 85249,
          "time": 69.37581380208333,
          "velocity": 0.3937007874015748
        },
        {
          "duration": 0.234375,
          "durationTicks": 288,
          "midi": 79,
          "name": "G5",
          "ticks": 85249,
          "time": 69.37581380208333,
          "velocity": 0.3937007874015748
        },
        {
          "duration": 0.15625,
          "durationTicks": 192,
          "midi": 50,
          "name": "D3",
          "ticks": 85249,
          "time": 69.37581380208333,
          "velocity": 0.3937007874015748
        },
        {
          "duration": 0.15625,
          "durationTicks": 192,
          "midi": 50,
          "name": "D3",
          "ticks": 85441,
          "time": 69.53206380208333,
          "velocity": 0.3937007874015748
        },
        {
          "duration": 0.234375,
          "durationTicks": 288,
          "midi": 91,
          "name": "G6",
          "ticks": 85633,
          "time": 69.68831380208333,
          "velocity": 0.3937007874015748
        },
        {
          "duration": 0.15625,
          "durationTicks": 192,
          "midi": 50,
          "name": "D3",
          "ticks": 85633,
          "time": 69.68831380208333,
          "velocity": 0.3937007874015748
        },
        {
          "duration": 0.234375,
          "durationTicks": 288,
          "midi": 67,
          "name": "G4",
          "ticks": 85633,
          "time": 69.68831380208333,
          "velocity": 0.3937007874015748
        },
        {
          "duration": 0.234375,
          "durationTicks": 288,
          "midi": 79,
          "name": "G5",
          "ticks": 85633,
          "time": 69.68831380208333,
          "velocity": 0.3937007874015748
        },
        {
          "duration": 0.15625,
          "durationTicks": 192,
          "midi": 50,
          "name": "D3",
          "ticks": 85825,
          "time": 69.84456380208333,
          "velocity": 0.3937007874015748
        },
        {
          "duration": 0.15625,
          "durationTicks": 192,
          "midi": 51,
          "name": "D#3",
          "ticks": 86017,
          "time": 70.00081380208333,
          "velocity": 0.3937007874015748
        },
        {
          "duration": 0.78125,
          "durationTicks": 960,
          "midi": 67,
          "name": "G4",
          "ticks": 86017,
          "time": 70.00081380208333,
          "velocity": 0.3937007874015748
        },
        {
          "duration": 0.78125,
          "durationTicks": 960,
          "midi": 79,
          "name": "G5",
          "ticks": 86017,
          "time": 70.00081380208333,
          "velocity": 0.3937007874015748
        },
        {
          "duration": 0.78125,
          "durationTicks": 960,
          "midi": 91,
          "name": "G6",
          "ticks": 86017,
          "time": 70.00081380208333,
          "velocity": 0.3937007874015748
        },
        {
          "duration": 0.15625,
          "durationTicks": 192,
          "midi": 51,
          "name": "D#3",
          "ticks": 86209,
          "time": 70.15706380208333,
          "velocity": 0.3937007874015748
        },
        {
          "duration": 0.15625,
          "durationTicks": 192,
          "midi": 51,
          "name": "D#3",
          "ticks": 86401,
          "time": 70.31331380208333,
          "velocity": 0.3937007874015748
        },
        {
          "duration": 0.15625,
          "durationTicks": 192,
          "midi": 51,
          "name": "D#3",
          "ticks": 86593,
          "time": 70.46956380208333,
          "velocity": 0.3937007874015748
        },
        {
          "duration": 0.15625,
          "durationTicks": 192,
          "midi": 51,
          "name": "D#3",
          "ticks": 86785,
          "time": 70.62581380208333,
          "velocity": 0.3937007874015748
        },
        {
          "duration": 0.15625,
          "durationTicks": 192,
          "midi": 51,
          "name": "D#3",
          "ticks": 86977,
          "time": 70.78206380208333,
          "velocity": 0.3937007874015748
        },
        {
          "duration": 0.078125,
          "durationTicks": 96,
          "midi": 77,
          "name": "F5",
          "ticks": 87169,
          "time": 70.93831380208333,
          "velocity": 0.3937007874015748
        },
        {
          "duration": 0.078125,
          "durationTicks": 96,
          "midi": 65,
          "name": "F4",
          "ticks": 87169,
          "time": 70.93831380208333,
          "velocity": 0.3937007874015748
        },
        {
          "duration": 0.078125,
          "durationTicks": 96,
          "midi": 89,
          "name": "F6",
          "ticks": 87169,
          "time": 70.93831380208333,
          "velocity": 0.3937007874015748
        },
        {
          "duration": 0.15625,
          "durationTicks": 192,
          "midi": 51,
          "name": "D#3",
          "ticks": 87169,
          "time": 70.93831380208333,
          "velocity": 0.3937007874015748
        },
        {
          "duration": 0.078125,
          "durationTicks": 96,
          "midi": 67,
          "name": "G4",
          "ticks": 87361,
          "time": 71.09456380208333,
          "velocity": 0.3937007874015748
        },
        {
          "duration": 0.078125,
          "durationTicks": 96,
          "midi": 79,
          "name": "G5",
          "ticks": 87361,
          "time": 71.09456380208333,
          "velocity": 0.3937007874015748
        },
        {
          "duration": 0.078125,
          "durationTicks": 96,
          "midi": 91,
          "name": "G6",
          "ticks": 87361,
          "time": 71.09456380208333,
          "velocity": 0.3937007874015748
        },
        {
          "duration": 0.15625,
          "durationTicks": 192,
          "midi": 51,
          "name": "D#3",
          "ticks": 87361,
          "time": 71.09456380208333,
          "velocity": 0.3937007874015748
        },
        {
          "duration": 0.546875,
          "durationTicks": 672,
          "midi": 68,
          "name": "G#4",
          "ticks": 87553,
          "time": 71.25081380208333,
          "velocity": 0.3937007874015748
        },
        {
          "duration": 0.546875,
          "durationTicks": 672,
          "midi": 92,
          "name": "G#6",
          "ticks": 87553,
          "time": 71.25081380208333,
          "velocity": 0.3937007874015748
        },
        {
          "duration": 0.15625,
          "durationTicks": 192,
          "midi": 53,
          "name": "F3",
          "ticks": 87553,
          "time": 71.25081380208333,
          "velocity": 0.3937007874015748
        },
        {
          "duration": 0.546875,
          "durationTicks": 672,
          "midi": 80,
          "name": "G#5",
          "ticks": 87553,
          "time": 71.25081380208333,
          "velocity": 0.3937007874015748
        },
        {
          "duration": 0.15625,
          "durationTicks": 192,
          "midi": 53,
          "name": "F3",
          "ticks": 87745,
          "time": 71.40706380208333,
          "velocity": 0.3937007874015748
        },
        {
          "duration": 0.15625,
          "durationTicks": 192,
          "midi": 53,
          "name": "F3",
          "ticks": 87937,
          "time": 71.56331380208333,
          "velocity": 0.3937007874015748
        },
        {
          "duration": 0.15625,
          "durationTicks": 192,
          "midi": 53,
          "name": "F3",
          "ticks": 88129,
          "time": 71.71956380208333,
          "velocity": 0.3937007874015748
        },
        {
          "duration": 0.234375,
          "durationTicks": 288,
          "midi": 74,
          "name": "D5",
          "ticks": 88321,
          "time": 71.87581380208333,
          "velocity": 0.3937007874015748
        },
        {
          "duration": 0.15625,
          "durationTicks": 192,
          "midi": 43,
          "name": "G2",
          "ticks": 88321,
          "time": 71.87581380208333,
          "velocity": 0.3937007874015748
        },
        {
          "duration": 0.234375,
          "durationTicks": 288,
          "midi": 62,
          "name": "D4",
          "ticks": 88321,
          "time": 71.87581380208333,
          "velocity": 0.3937007874015748
        },
        {
          "duration": 0.234375,
          "durationTicks": 288,
          "midi": 86,
          "name": "D6",
          "ticks": 88321,
          "time": 71.87581380208333,
          "velocity": 0.3937007874015748
        },
        {
          "duration": 0.15625,
          "durationTicks": 192,
          "midi": 43,
          "name": "G2",
          "ticks": 88513,
          "time": 72.03206380208333,
          "velocity": 0.3937007874015748
        },
        {
          "duration": 0.15625,
          "durationTicks": 192,
          "midi": 43,
          "name": "G2",
          "ticks": 88705,
          "time": 72.18831380208333,
          "velocity": 0.3937007874015748
        },
        {
          "duration": 0.078125,
          "durationTicks": 96,
          "midi": 87,
          "name": "D#6",
          "ticks": 88705,
          "time": 72.18831380208333,
          "velocity": 0.3937007874015748
        },
        {
          "duration": 0.078125,
          "durationTicks": 96,
          "midi": 75,
          "name": "D#5",
          "ticks": 88705,
          "time": 72.18831380208333,
          "velocity": 0.3937007874015748
        },
        {
          "duration": 0.078125,
          "durationTicks": 96,
          "midi": 63,
          "name": "D#4",
          "ticks": 88705,
          "time": 72.18831380208333,
          "velocity": 0.3937007874015748
        },
        {
          "duration": 0.15625,
          "durationTicks": 192,
          "midi": 43,
          "name": "G2",
          "ticks": 88897,
          "time": 72.34456380208333,
          "velocity": 0.3937007874015748
        },
        {
          "duration": 0.078125,
          "durationTicks": 96,
          "midi": 89,
          "name": "F6",
          "ticks": 88897,
          "time": 72.34456380208333,
          "velocity": 0.3937007874015748
        },
        {
          "duration": 0.078125,
          "durationTicks": 96,
          "midi": 77,
          "name": "F5",
          "ticks": 88897,
          "time": 72.34456380208333,
          "velocity": 0.3937007874015748
        },
        {
          "duration": 0.078125,
          "durationTicks": 96,
          "midi": 65,
          "name": "F4",
          "ticks": 88897,
          "time": 72.34456380208333,
          "velocity": 0.3937007874015748
        },
        {
          "duration": 0.546875,
          "durationTicks": 672,
          "midi": 91,
          "name": "G6",
          "ticks": 89089,
          "time": 72.50081380208333,
          "velocity": 0.3937007874015748
        },
        {
          "duration": 0.546875,
          "durationTicks": 672,
          "midi": 79,
          "name": "G5",
          "ticks": 89089,
          "time": 72.50081380208333,
          "velocity": 0.3937007874015748
        },
        {
          "duration": 0.15625,
          "durationTicks": 192,
          "midi": 48,
          "name": "C3",
          "ticks": 89089,
          "time": 72.50081380208333,
          "velocity": 0.3937007874015748
        },
        {
          "duration": 0.546875,
          "durationTicks": 672,
          "midi": 67,
          "name": "G4",
          "ticks": 89089,
          "time": 72.50081380208333,
          "velocity": 0.3937007874015748
        },
        {
          "duration": 0.15625,
          "durationTicks": 192,
          "midi": 48,
          "name": "C3",
          "ticks": 89281,
          "time": 72.65706380208333,
          "velocity": 0.3937007874015748
        },
        {
          "duration": 0.15625,
          "durationTicks": 192,
          "midi": 48,
          "name": "C3",
          "ticks": 89473,
          "time": 72.81331380208333,
          "velocity": 0.3937007874015748
        },
        {
          "duration": 0.15625,
          "durationTicks": 192,
          "midi": 48,
          "name": "C3",
          "ticks": 89665,
          "time": 72.96956380208333,
          "velocity": 0.3937007874015748
        },
        {
          "duration": 0.234375,
          "durationTicks": 288,
          "midi": 84,
          "name": "C6",
          "ticks": 89857,
          "time": 73.12581380208333,
          "velocity": 0.3937007874015748
        },
        {
          "duration": 0.15625,
          "durationTicks": 192,
          "midi": 45,
          "name": "A2",
          "ticks": 89857,
          "time": 73.12581380208333,
          "velocity": 0.3937007874015748
        },
        {
          "duration": 0.234375,
          "durationTicks": 288,
          "midi": 60,
          "name": "C4",
          "ticks": 89857,
          "time": 73.12581380208333,
          "velocity": 0.3937007874015748
        },
        {
          "duration": 0.234375,
          "durationTicks": 288,
          "midi": 72,
          "name": "C5",
          "ticks": 89857,
          "time": 73.12581380208333,
          "velocity": 0.3937007874015748
        },
        {
          "duration": 0.15625,
          "durationTicks": 192,
          "midi": 45,
          "name": "A2",
          "ticks": 90049,
          "time": 73.28206380208333,
          "velocity": 0.3937007874015748
        },
        {
          "duration": 0.078125,
          "durationTicks": 96,
          "midi": 84,
          "name": "C6",
          "ticks": 90241,
          "time": 73.43831380208333,
          "velocity": 0.3937007874015748
        },
        {
          "duration": 0.078125,
          "durationTicks": 96,
          "midi": 72,
          "name": "C5",
          "ticks": 90241,
          "time": 73.43831380208333,
          "velocity": 0.3937007874015748
        },
        {
          "duration": 0.078125,
          "durationTicks": 96,
          "midi": 60,
          "name": "C4",
          "ticks": 90241,
          "time": 73.43831380208333,
          "velocity": 0.3937007874015748
        },
        {
          "duration": 0.15625,
          "durationTicks": 192,
          "midi": 45,
          "name": "A2",
          "ticks": 90241,
          "time": 73.43831380208333,
          "velocity": 0.3937007874015748
        },
        {
          "duration": 0.15625,
          "durationTicks": 192,
          "midi": 45,
          "name": "A2",
          "ticks": 90433,
          "time": 73.59456380208333,
          "velocity": 0.3937007874015748
        },
        {
          "duration": 0.078125,
          "durationTicks": 96,
          "midi": 74,
          "name": "D5",
          "ticks": 90433,
          "time": 73.59456380208333,
          "velocity": 0.3937007874015748
        },
        {
          "duration": 0.078125,
          "durationTicks": 96,
          "midi": 86,
          "name": "D6",
          "ticks": 90433,
          "time": 73.59456380208333,
          "velocity": 0.3937007874015748
        },
        {
          "duration": 0.078125,
          "durationTicks": 96,
          "midi": 62,
          "name": "D4",
          "ticks": 90433,
          "time": 73.59456380208333,
          "velocity": 0.3937007874015748
        },
        {
          "duration": 0.390625,
          "durationTicks": 480,
          "midi": 75,
          "name": "D#5",
          "ticks": 90625,
          "time": 73.75081380208333,
          "velocity": 0.3937007874015748
        },
        {
          "duration": 0.15625,
          "durationTicks": 192,
          "midi": 54,
          "name": "F#3",
          "ticks": 90625,
          "time": 73.75081380208333,
          "velocity": 0.3937007874015748
        },
        {
          "duration": 0.390625,
          "durationTicks": 480,
          "midi": 87,
          "name": "D#6",
          "ticks": 90625,
          "time": 73.75081380208333,
          "velocity": 0.3937007874015748
        },
        {
          "duration": 0.390625,
          "durationTicks": 480,
          "midi": 63,
          "name": "D#4",
          "ticks": 90625,
          "time": 73.75081380208333,
          "velocity": 0.3937007874015748
        },
        {
          "duration": 0.15625,
          "durationTicks": 192,
          "midi": 54,
          "name": "F#3",
          "ticks": 90817,
          "time": 73.90706380208333,
          "velocity": 0.3937007874015748
        },
        {
          "duration": 0.15625,
          "durationTicks": 192,
          "midi": 54,
          "name": "F#3",
          "ticks": 91009,
          "time": 74.06331380208333,
          "velocity": 0.3937007874015748
        },
        {
          "duration": 0.078125,
          "durationTicks": 96,
          "midi": 89,
          "name": "F6",
          "ticks": 91201,
          "time": 74.21956380208333,
          "velocity": 0.3937007874015748
        },
        {
          "duration": 0.078125,
          "durationTicks": 96,
          "midi": 65,
          "name": "F4",
          "ticks": 91201,
          "time": 74.21956380208333,
          "velocity": 0.3937007874015748
        },
        {
          "duration": 0.078125,
          "durationTicks": 96,
          "midi": 77,
          "name": "F5",
          "ticks": 91201,
          "time": 74.21956380208333,
          "velocity": 0.3937007874015748
        },
        {
          "duration": 0.15625,
          "durationTicks": 192,
          "midi": 54,
          "name": "F#3",
          "ticks": 91201,
          "time": 74.21956380208333,
          "velocity": 0.3937007874015748
        },
        {
          "duration": 0.15625,
          "durationTicks": 192,
          "midi": 55,
          "name": "G3",
          "ticks": 91393,
          "time": 74.37581380208333,
          "velocity": 0.3937007874015748
        },
        {
          "duration": 0.390625,
          "durationTicks": 480,
          "midi": 62,
          "name": "D4",
          "ticks": 91393,
          "time": 74.37581380208333,
          "velocity": 0.3937007874015748
        },
        {
          "duration": 0.390625,
          "durationTicks": 480,
          "midi": 86,
          "name": "D6",
          "ticks": 91393,
          "time": 74.37581380208333,
          "velocity": 0.3937007874015748
        },
        {
          "duration": 0.390625,
          "durationTicks": 480,
          "midi": 74,
          "name": "D5",
          "ticks": 91393,
          "time": 74.37581380208333,
          "velocity": 0.3937007874015748
        },
        {
          "duration": 0.15625,
          "durationTicks": 192,
          "midi": 55,
          "name": "G3",
          "ticks": 91585,
          "time": 74.53206380208333,
          "velocity": 0.3937007874015748
        },
        {
          "duration": 0.15625,
          "durationTicks": 192,
          "midi": 55,
          "name": "G3",
          "ticks": 91777,
          "time": 74.68831380208333,
          "velocity": 0.3937007874015748
        },
        {
          "duration": 0.078125,
          "durationTicks": 96,
          "midi": 63,
          "name": "D#4",
          "ticks": 91969,
          "time": 74.84456380208333,
          "velocity": 0.3937007874015748
        },
        {
          "duration": 0.078125,
          "durationTicks": 96,
          "midi": 75,
          "name": "D#5",
          "ticks": 91969,
          "time": 74.84456380208333,
          "velocity": 0.3937007874015748
        },
        {
          "duration": 0.078125,
          "durationTicks": 96,
          "midi": 87,
          "name": "D#6",
          "ticks": 91969,
          "time": 74.84456380208333,
          "velocity": 0.3937007874015748
        },
        {
          "duration": 0.15625,
          "durationTicks": 192,
          "midi": 55,
          "name": "G3",
          "ticks": 91969,
          "time": 74.84456380208333,
          "velocity": 0.3937007874015748
        },
        {
          "duration": 0.546875,
          "durationTicks": 672,
          "midi": 72,
          "name": "C5",
          "ticks": 92161,
          "time": 75.00081380208333,
          "velocity": 0.3937007874015748
        },
        {
          "duration": 0.546875,
          "durationTicks": 672,
          "midi": 60,
          "name": "C4",
          "ticks": 92161,
          "time": 75.00081380208333,
          "velocity": 0.3937007874015748
        },
        {
          "duration": 0.546875,
          "durationTicks": 672,
          "midi": 84,
          "name": "C6",
          "ticks": 92161,
          "time": 75.00081380208333,
          "velocity": 0.3937007874015748
        },
        {
          "duration": 0.15625,
          "durationTicks": 192,
          "midi": 48,
          "name": "C3",
          "ticks": 92161,
          "time": 75.00081380208333,
          "velocity": 0.3937007874015748
        },
        {
          "duration": 0.15625,
          "durationTicks": 192,
          "midi": 48,
          "name": "C3",
          "ticks": 92353,
          "time": 75.15706380208333,
          "velocity": 0.3937007874015748
        },
        {
          "duration": 0.15625,
          "durationTicks": 192,
          "midi": 48,
          "name": "C3",
          "ticks": 92545,
          "time": 75.31331380208333,
          "velocity": 0.3937007874015748
        },
        {
          "duration": 0.15625,
          "durationTicks": 192,
          "midi": 48,
          "name": "C3",
          "ticks": 92737,
          "time": 75.46956380208333,
          "velocity": 0.3937007874015748
        },
        {
          "duration": 0.15625,
          "durationTicks": 192,
          "midi": 48,
          "name": "C3",
          "ticks": 92929,
          "time": 75.62581380208333,
          "velocity": 0.3937007874015748
        },
        {
          "duration": 0.15625,
          "durationTicks": 192,
          "midi": 48,
          "name": "C3",
          "ticks": 93121,
          "time": 75.78206380208333,
          "velocity": 0.3937007874015748
        },
        {
          "duration": 0.15625,
          "durationTicks": 192,
          "midi": 48,
          "name": "C3",
          "ticks": 93313,
          "time": 75.93831380208333,
          "velocity": 0.3937007874015748
        },
        {
          "duration": 0.078125,
          "durationTicks": 96,
          "midi": 89,
          "name": "F6",
          "ticks": 93313,
          "time": 75.93831380208333,
          "velocity": 0.3937007874015748
        },
        {
          "duration": 0.078125,
          "durationTicks": 96,
          "midi": 77,
          "name": "F5",
          "ticks": 93313,
          "time": 75.93831380208333,
          "velocity": 0.3937007874015748
        },
        {
          "duration": 0.078125,
          "durationTicks": 96,
          "midi": 65,
          "name": "F4",
          "ticks": 93313,
          "time": 75.93831380208333,
          "velocity": 0.3937007874015748
        },
        {
          "duration": 0.078125,
          "durationTicks": 96,
          "midi": 79,
          "name": "G5",
          "ticks": 93505,
          "time": 76.09456380208333,
          "velocity": 0.3937007874015748
        },
        {
          "duration": 0.15625,
          "durationTicks": 192,
          "midi": 48,
          "name": "C3",
          "ticks": 93505,
          "time": 76.09456380208333,
          "velocity": 0.3937007874015748
        },
        {
          "duration": 0.078125,
          "durationTicks": 96,
          "midi": 91,
          "name": "G6",
          "ticks": 93505,
          "time": 76.09456380208333,
          "velocity": 0.3937007874015748
        },
        {
          "duration": 0.078125,
          "durationTicks": 96,
          "midi": 67,
          "name": "G4",
          "ticks": 93505,
          "time": 76.09456380208333,
          "velocity": 0.3937007874015748
        },
        {
          "duration": 0.546875,
          "durationTicks": 672,
          "midi": 80,
          "name": "G#5",
          "ticks": 93697,
          "time": 76.25081380208333,
          "velocity": 0.3937007874015748
        },
        {
          "duration": 0.15625,
          "durationTicks": 192,
          "midi": 53,
          "name": "F3",
          "ticks": 93697,
          "time": 76.25081380208333,
          "velocity": 0.3937007874015748
        },
        {
          "duration": 0.546875,
          "durationTicks": 672,
          "midi": 68,
          "name": "G#4",
          "ticks": 93697,
          "time": 76.25081380208333,
          "velocity": 0.3937007874015748
        },
        {
          "duration": 0.546875,
          "durationTicks": 672,
          "midi": 92,
          "name": "G#6",
          "ticks": 93697,
          "time": 76.25081380208333,
          "velocity": 0.3937007874015748
        },
        {
          "duration": 0.15625,
          "durationTicks": 192,
          "midi": 53,
          "name": "F3",
          "ticks": 93889,
          "time": 76.40706380208333,
          "velocity": 0.3937007874015748
        },
        {
          "duration": 0.15625,
          "durationTicks": 192,
          "midi": 53,
          "name": "F3",
          "ticks": 94081,
          "time": 76.56331380208333,
          "velocity": 0.3937007874015748
        },
        {
          "duration": 0.15625,
          "durationTicks": 192,
          "midi": 53,
          "name": "F3",
          "ticks": 94273,
          "time": 76.71956380208333,
          "velocity": 0.3937007874015748
        },
        {
          "duration": 0.234375,
          "durationTicks": 288,
          "midi": 74,
          "name": "D5",
          "ticks": 94465,
          "time": 76.87581380208333,
          "velocity": 0.3937007874015748
        },
        {
          "duration": 0.234375,
          "durationTicks": 288,
          "midi": 86,
          "name": "D6",
          "ticks": 94465,
          "time": 76.87581380208333,
          "velocity": 0.3937007874015748
        },
        {
          "duration": 0.234375,
          "durationTicks": 288,
          "midi": 62,
          "name": "D4",
          "ticks": 94465,
          "time": 76.87581380208333,
          "velocity": 0.3937007874015748
        },
        {
          "duration": 0.15625,
          "durationTicks": 192,
          "midi": 43,
          "name": "G2",
          "ticks": 94465,
          "time": 76.87581380208333,
          "velocity": 0.3937007874015748
        },
        {
          "duration": 0.15625,
          "durationTicks": 192,
          "midi": 43,
          "name": "G2",
          "ticks": 94657,
          "time": 77.03206380208333,
          "velocity": 0.3937007874015748
        },
        {
          "duration": 0.15625,
          "durationTicks": 192,
          "midi": 43,
          "name": "G2",
          "ticks": 94849,
          "time": 77.18831380208333,
          "velocity": 0.3937007874015748
        },
        {
          "duration": 0.078125,
          "durationTicks": 96,
          "midi": 75,
          "name": "D#5",
          "ticks": 94849,
          "time": 77.18831380208333,
          "velocity": 0.3937007874015748
        },
        {
          "duration": 0.078125,
          "durationTicks": 96,
          "midi": 87,
          "name": "D#6",
          "ticks": 94849,
          "time": 77.18831380208333,
          "velocity": 0.3937007874015748
        },
        {
          "duration": 0.078125,
          "durationTicks": 96,
          "midi": 63,
          "name": "D#4",
          "ticks": 94849,
          "time": 77.18831380208333,
          "velocity": 0.3937007874015748
        },
        {
          "duration": 0.078125,
          "durationTicks": 96,
          "midi": 77,
          "name": "F5",
          "ticks": 95041,
          "time": 77.34456380208333,
          "velocity": 0.3937007874015748
        },
        {
          "duration": 0.078125,
          "durationTicks": 96,
          "midi": 65,
          "name": "F4",
          "ticks": 95041,
          "time": 77.34456380208333,
          "velocity": 0.3937007874015748
        },
        {
          "duration": 0.078125,
          "durationTicks": 96,
          "midi": 89,
          "name": "F6",
          "ticks": 95041,
          "time": 77.34456380208333,
          "velocity": 0.3937007874015748
        },
        {
          "duration": 0.15625,
          "durationTicks": 192,
          "midi": 43,
          "name": "G2",
          "ticks": 95041,
          "time": 77.34456380208333,
          "velocity": 0.3937007874015748
        },
        {
          "duration": 0.546875,
          "durationTicks": 672,
          "midi": 79,
          "name": "G5",
          "ticks": 95233,
          "time": 77.50081380208333,
          "velocity": 0.3937007874015748
        },
        {
          "duration": 0.546875,
          "durationTicks": 672,
          "midi": 91,
          "name": "G6",
          "ticks": 95233,
          "time": 77.50081380208333,
          "velocity": 0.3937007874015748
        },
        {
          "duration": 0.546875,
          "durationTicks": 672,
          "midi": 67,
          "name": "G4",
          "ticks": 95233,
          "time": 77.50081380208333,
          "velocity": 0.3937007874015748
        },
        {
          "duration": 0.15625,
          "durationTicks": 192,
          "midi": 48,
          "name": "C3",
          "ticks": 95233,
          "time": 77.50081380208333,
          "velocity": 0.3937007874015748
        },
        {
          "duration": 0.15625,
          "durationTicks": 192,
          "midi": 48,
          "name": "C3",
          "ticks": 95425,
          "time": 77.65706380208333,
          "velocity": 0.3937007874015748
        },
        {
          "duration": 0.15625,
          "durationTicks": 192,
          "midi": 48,
          "name": "C3",
          "ticks": 95617,
          "time": 77.81331380208333,
          "velocity": 0.3937007874015748
        },
        {
          "duration": 0.15625,
          "durationTicks": 192,
          "midi": 48,
          "name": "C3",
          "ticks": 95809,
          "time": 77.96956380208333,
          "velocity": 0.3937007874015748
        },
        {
          "duration": 0.15625,
          "durationTicks": 192,
          "midi": 45,
          "name": "A2",
          "ticks": 96001,
          "time": 78.12581380208333,
          "velocity": 0.3937007874015748
        },
        {
          "duration": 0.234375,
          "durationTicks": 288,
          "midi": 72,
          "name": "C5",
          "ticks": 96001,
          "time": 78.12581380208333,
          "velocity": 0.3937007874015748
        },
        {
          "duration": 0.234375,
          "durationTicks": 288,
          "midi": 60,
          "name": "C4",
          "ticks": 96001,
          "time": 78.12581380208333,
          "velocity": 0.3937007874015748
        },
        {
          "duration": 0.234375,
          "durationTicks": 288,
          "midi": 84,
          "name": "C6",
          "ticks": 96001,
          "time": 78.12581380208333,
          "velocity": 0.3937007874015748
        },
        {
          "duration": 0.15625,
          "durationTicks": 192,
          "midi": 45,
          "name": "A2",
          "ticks": 96193,
          "time": 78.28206380208333,
          "velocity": 0.3937007874015748
        },
        {
          "duration": 0.078125,
          "durationTicks": 96,
          "midi": 72,
          "name": "C5",
          "ticks": 96385,
          "time": 78.43831380208333,
          "velocity": 0.3937007874015748
        },
        {
          "duration": 0.078125,
          "durationTicks": 96,
          "midi": 84,
          "name": "C6",
          "ticks": 96385,
          "time": 78.43831380208333,
          "velocity": 0.3937007874015748
        },
        {
          "duration": 0.078125,
          "durationTicks": 96,
          "midi": 60,
          "name": "C4",
          "ticks": 96385,
          "time": 78.43831380208333,
          "velocity": 0.3937007874015748
        },
        {
          "duration": 0.15625,
          "durationTicks": 192,
          "midi": 45,
          "name": "A2",
          "ticks": 96385,
          "time": 78.43831380208333,
          "velocity": 0.3937007874015748
        },
        {
          "duration": 0.078125,
          "durationTicks": 96,
          "midi": 86,
          "name": "D6",
          "ticks": 96577,
          "time": 78.59456380208333,
          "velocity": 0.3937007874015748
        },
        {
          "duration": 0.15625,
          "durationTicks": 192,
          "midi": 45,
          "name": "A2",
          "ticks": 96577,
          "time": 78.59456380208333,
          "velocity": 0.3937007874015748
        },
        {
          "duration": 0.078125,
          "durationTicks": 96,
          "midi": 62,
          "name": "D4",
          "ticks": 96577,
          "time": 78.59456380208333,
          "velocity": 0.3937007874015748
        },
        {
          "duration": 0.078125,
          "durationTicks": 96,
          "midi": 74,
          "name": "D5",
          "ticks": 96577,
          "time": 78.59456380208333,
          "velocity": 0.3937007874015748
        },
        {
          "duration": 0.15625,
          "durationTicks": 192,
          "midi": 54,
          "name": "F#3",
          "ticks": 96769,
          "time": 78.75081380208333,
          "velocity": 0.3937007874015748
        },
        {
          "duration": 0.390625,
          "durationTicks": 480,
          "midi": 87,
          "name": "D#6",
          "ticks": 96769,
          "time": 78.75081380208333,
          "velocity": 0.3937007874015748
        },
        {
          "duration": 0.390625,
          "durationTicks": 480,
          "midi": 63,
          "name": "D#4",
          "ticks": 96769,
          "time": 78.75081380208333,
          "velocity": 0.3937007874015748
        },
        {
          "duration": 0.390625,
          "durationTicks": 480,
          "midi": 75,
          "name": "D#5",
          "ticks": 96769,
          "time": 78.75081380208333,
          "velocity": 0.3937007874015748
        },
        {
          "duration": 0.15625,
          "durationTicks": 192,
          "midi": 54,
          "name": "F#3",
          "ticks": 96961,
          "time": 78.90706380208333,
          "velocity": 0.3937007874015748
        },
        {
          "duration": 0.15625,
          "durationTicks": 192,
          "midi": 54,
          "name": "F#3",
          "ticks": 97153,
          "time": 79.06331380208333,
          "velocity": 0.3937007874015748
        },
        {
          "duration": 0.078125,
          "durationTicks": 96,
          "midi": 89,
          "name": "F6",
          "ticks": 97345,
          "time": 79.21956380208333,
          "velocity": 0.3937007874015748
        },
        {
          "duration": 0.078125,
          "durationTicks": 96,
          "midi": 77,
          "name": "F5",
          "ticks": 97345,
          "time": 79.21956380208333,
          "velocity": 0.3937007874015748
        },
        {
          "duration": 0.15625,
          "durationTicks": 192,
          "midi": 54,
          "name": "F#3",
          "ticks": 97345,
          "time": 79.21956380208333,
          "velocity": 0.3937007874015748
        },
        {
          "duration": 0.078125,
          "durationTicks": 96,
          "midi": 65,
          "name": "F4",
          "ticks": 97345,
          "time": 79.21956380208333,
          "velocity": 0.3937007874015748
        },
        {
          "duration": 0.15625,
          "durationTicks": 192,
          "midi": 55,
          "name": "G3",
          "ticks": 97537,
          "time": 79.37581380208333,
          "velocity": 0.3937007874015748
        },
        {
          "duration": 0.390625,
          "durationTicks": 480,
          "midi": 74,
          "name": "D5",
          "ticks": 97537,
          "time": 79.37581380208333,
          "velocity": 0.3937007874015748
        },
        {
          "duration": 0.390625,
          "durationTicks": 480,
          "midi": 86,
          "name": "D6",
          "ticks": 97537,
          "time": 79.37581380208333,
          "velocity": 0.3937007874015748
        },
        {
          "duration": 0.390625,
          "durationTicks": 480,
          "midi": 62,
          "name": "D4",
          "ticks": 97537,
          "time": 79.37581380208333,
          "velocity": 0.3937007874015748
        },
        {
          "duration": 0.15625,
          "durationTicks": 192,
          "midi": 55,
          "name": "G3",
          "ticks": 97729,
          "time": 79.53206380208333,
          "velocity": 0.3937007874015748
        },
        {
          "duration": 0.15625,
          "durationTicks": 192,
          "midi": 55,
          "name": "G3",
          "ticks": 97921,
          "time": 79.68831380208333,
          "velocity": 0.3937007874015748
        },
        {
          "duration": 0.078125,
          "durationTicks": 96,
          "midi": 75,
          "name": "D#5",
          "ticks": 98113,
          "time": 79.84456380208333,
          "velocity": 0.3937007874015748
        },
        {
          "duration": 0.078125,
          "durationTicks": 96,
          "midi": 63,
          "name": "D#4",
          "ticks": 98113,
          "time": 79.84456380208333,
          "velocity": 0.3937007874015748
        },
        {
          "duration": 0.078125,
          "durationTicks": 96,
          "midi": 87,
          "name": "D#6",
          "ticks": 98113,
          "time": 79.84456380208333,
          "velocity": 0.3937007874015748
        },
        {
          "duration": 0.1562500000000142,
          "durationTicks": 192,
          "midi": 55,
          "name": "G3",
          "ticks": 98113,
          "time": 79.84456380208333,
          "velocity": 0.3937007874015748
        },
        {
          "duration": 0.546875,
          "durationTicks": 672,
          "midi": 60,
          "name": "C4",
          "ticks": 98305,
          "time": 80.00081380208334,
          "velocity": 0.3937007874015748
        },
        {
          "duration": 0.15625,
          "durationTicks": 192,
          "midi": 48,
          "name": "C3",
          "ticks": 98305,
          "time": 80.00081380208334,
          "velocity": 0.3937007874015748
        },
        {
          "duration": 0.546875,
          "durationTicks": 672,
          "midi": 72,
          "name": "C5",
          "ticks": 98305,
          "time": 80.00081380208334,
          "velocity": 0.3937007874015748
        },
        {
          "duration": 0.546875,
          "durationTicks": 672,
          "midi": 84,
          "name": "C6",
          "ticks": 98305,
          "time": 80.00081380208334,
          "velocity": 0.3937007874015748
        },
        {
          "duration": 0.15625,
          "durationTicks": 192,
          "midi": 48,
          "name": "C3",
          "ticks": 98497,
          "time": 80.15706380208334,
          "velocity": 0.3937007874015748
        },
        {
          "duration": 0.15625,
          "durationTicks": 192,
          "midi": 48,
          "name": "C3",
          "ticks": 98689,
          "time": 80.31331380208334,
          "velocity": 0.3937007874015748
        },
        {
          "duration": 0.15625,
          "durationTicks": 192,
          "midi": 48,
          "name": "C3",
          "ticks": 98881,
          "time": 80.46956380208334,
          "velocity": 0.3937007874015748
        },
        {
          "duration": 0.15625,
          "durationTicks": 192,
          "midi": 48,
          "name": "C3",
          "ticks": 99073,
          "time": 80.62581380208334,
          "velocity": 0.3937007874015748
        },
        {
          "duration": 0.15625,
          "durationTicks": 192,
          "midi": 48,
          "name": "C3",
          "ticks": 99265,
          "time": 80.78206380208334,
          "velocity": 0.3937007874015748
        },
        {
          "duration": 0.15625,
          "durationTicks": 192,
          "midi": 48,
          "name": "C3",
          "ticks": 99457,
          "time": 80.93831380208334,
          "velocity": 0.3937007874015748
        },
        {
          "duration": 0.15625,
          "durationTicks": 192,
          "midi": 48,
          "name": "C3",
          "ticks": 99649,
          "time": 81.09456380208334,
          "velocity": 0.3937007874015748
        },
        {
          "duration": 0.234375,
          "durationTicks": 288,
          "midi": 48,
          "name": "C3",
          "ticks": 99841,
          "time": 81.25081380208334,
          "velocity": 0.3937007874015748
        },
        {
          "duration": 0.234375,
          "durationTicks": 288,
          "midi": 84,
          "name": "C6",
          "ticks": 99841,
          "time": 81.25081380208334,
          "velocity": 0.3937007874015748
        },
        {
          "duration": 0.234375,
          "durationTicks": 288,
          "midi": 72,
          "name": "C5",
          "ticks": 99841,
          "time": 81.25081380208334,
          "velocity": 0.3937007874015748
        },
        {
          "duration": 0.234375,
          "durationTicks": 288,
          "midi": 60,
          "name": "C4",
          "ticks": 99841,
          "time": 81.25081380208334,
          "velocity": 0.3937007874015748
        }
      ],
      "endOfTrackTicks": 100129
    },
    {
      "channel": 6,
      "controlChanges": {},
      "pitchBends": [],
      "instrument": {
        "family": "strings",
        "number": 45,
        "name": "pizzicato strings"
      },
      "name": "Concert Harp",
      "notes": [
        {
          "duration": 0.078125,
          "durationTicks": 96,
          "midi": 47,
          "name": "B2",
          "ticks": 0,
          "time": 0,
          "velocity": 0.3937007874015748
        },
        {
          "duration": 0.078125,
          "durationTicks": 96,
          "midi": 45,
          "name": "A2",
          "ticks": 192,
          "time": 0.15625,
          "velocity": 0.3937007874015748
        },
        {
          "duration": 0.078125,
          "durationTicks": 96,
          "midi": 45,
          "name": "A2",
          "ticks": 384,
          "time": 0.3125,
          "velocity": 0.3937007874015748
        },
        {
          "duration": 0.078125,
          "durationTicks": 96,
          "midi": 48,
          "name": "C3",
          "ticks": 576,
          "time": 0.46875,
          "velocity": 0.3937007874015748
        },
        {
          "duration": 0.078125,
          "durationTicks": 96,
          "midi": 45,
          "name": "A2",
          "ticks": 768,
          "time": 0.625,
          "velocity": 0.3937007874015748
        },
        {
          "duration": 0.078125,
          "durationTicks": 96,
          "midi": 45,
          "name": "A2",
          "ticks": 960,
          "time": 0.78125,
          "velocity": 0.3937007874015748
        },
        {
          "duration": 0.078125,
          "durationTicks": 96,
          "midi": 50,
          "name": "D3",
          "ticks": 1152,
          "time": 0.9375,
          "velocity": 0.3937007874015748
        },
        {
          "duration": 0.078125,
          "durationTicks": 96,
          "midi": 45,
          "name": "A2",
          "ticks": 1344,
          "time": 1.09375,
          "velocity": 0.3937007874015748
        },
        {
          "duration": 0.078125,
          "durationTicks": 96,
          "midi": 45,
          "name": "A2",
          "ticks": 1536,
          "time": 1.25,
          "velocity": 0.3937007874015748
        },
        {
          "duration": 0.078125,
          "durationTicks": 96,
          "midi": 52,
          "name": "E3",
          "ticks": 1728,
          "time": 1.40625,
          "velocity": 0.3937007874015748
        },
        {
          "duration": 0.078125,
          "durationTicks": 96,
          "midi": 45,
          "name": "A2",
          "ticks": 1920,
          "time": 1.5625,
          "velocity": 0.3937007874015748
        },
        {
          "duration": 0.078125,
          "durationTicks": 96,
          "midi": 45,
          "name": "A2",
          "ticks": 2112,
          "time": 1.71875,
          "velocity": 0.3937007874015748
        },
        {
          "duration": 0.078125,
          "durationTicks": 96,
          "midi": 53,
          "name": "F3",
          "ticks": 2304,
          "time": 1.875,
          "velocity": 0.3937007874015748
        },
        {
          "duration": 0.078125,
          "durationTicks": 96,
          "midi": 45,
          "name": "A2",
          "ticks": 2496,
          "time": 2.03125,
          "velocity": 0.3937007874015748
        },
        {
          "duration": 0.078125,
          "durationTicks": 96,
          "midi": 45,
          "name": "A2",
          "ticks": 2688,
          "time": 2.1875,
          "velocity": 0.3937007874015748
        },
        {
          "duration": 0.078125,
          "durationTicks": 96,
          "midi": 53,
          "name": "F3",
          "ticks": 2880,
          "time": 2.34375,
          "velocity": 0.3937007874015748
        },
        {
          "duration": 0.078125,
          "durationTicks": 96,
          "midi": 52,
          "name": "E3",
          "ticks": 3072,
          "time": 2.5,
          "velocity": 0.3937007874015748
        },
        {
          "duration": 0.078125,
          "durationTicks": 96,
          "midi": 45,
          "name": "A2",
          "ticks": 3264,
          "time": 2.65625,
          "velocity": 0.3937007874015748
        },
        {
          "duration": 0.078125,
          "durationTicks": 96,
          "midi": 45,
          "name": "A2",
          "ticks": 3456,
          "time": 2.8125,
          "velocity": 0.3937007874015748
        },
        {
          "duration": 0.078125,
          "durationTicks": 96,
          "midi": 50,
          "name": "D3",
          "ticks": 3648,
          "time": 2.96875,
          "velocity": 0.3937007874015748
        },
        {
          "duration": 0.078125,
          "durationTicks": 96,
          "midi": 45,
          "name": "A2",
          "ticks": 3840,
          "time": 3.125,
          "velocity": 0.3937007874015748
        },
        {
          "duration": 0.078125,
          "durationTicks": 96,
          "midi": 45,
          "name": "A2",
          "ticks": 4032,
          "time": 3.28125,
          "velocity": 0.3937007874015748
        },
        {
          "duration": 0.078125,
          "durationTicks": 96,
          "midi": 48,
          "name": "C3",
          "ticks": 4224,
          "time": 3.4375,
          "velocity": 0.3937007874015748
        },
        {
          "duration": 0.078125,
          "durationTicks": 96,
          "midi": 45,
          "name": "A2",
          "ticks": 4416,
          "time": 3.59375,
          "velocity": 0.3937007874015748
        },
        {
          "duration": 0.078125,
          "durationTicks": 96,
          "midi": 45,
          "name": "A2",
          "ticks": 4608,
          "time": 3.75,
          "velocity": 0.3937007874015748
        },
        {
          "duration": 0.078125,
          "durationTicks": 96,
          "midi": 47,
          "name": "B2",
          "ticks": 4800,
          "time": 3.90625,
          "velocity": 0.3937007874015748
        },
        {
          "duration": 0.078125,
          "durationTicks": 96,
          "midi": 45,
          "name": "A2",
          "ticks": 4992,
          "time": 4.0625,
          "velocity": 0.3937007874015748
        },
        {
          "duration": 0.078125,
          "durationTicks": 96,
          "midi": 45,
          "name": "A2",
          "ticks": 5184,
          "time": 4.21875,
          "velocity": 0.3937007874015748
        },
        {
          "duration": 0.078125,
          "durationTicks": 96,
          "midi": 48,
          "name": "C3",
          "ticks": 5376,
          "time": 4.375,
          "velocity": 0.3937007874015748
        },
        {
          "duration": 0.078125,
          "durationTicks": 96,
          "midi": 45,
          "name": "A2",
          "ticks": 5568,
          "time": 4.53125,
          "velocity": 0.3937007874015748
        },
        {
          "duration": 0.078125,
          "durationTicks": 96,
          "midi": 47,
          "name": "B2",
          "ticks": 5760,
          "time": 4.6875,
          "velocity": 0.3937007874015748
        },
        {
          "duration": 0.078125,
          "durationTicks": 96,
          "midi": 45,
          "name": "A2",
          "ticks": 5952,
          "time": 4.84375,
          "velocity": 0.3937007874015748
        },
        {
          "duration": 0.078125,
          "durationTicks": 96,
          "midi": 57,
          "name": "A3",
          "ticks": 6144,
          "time": 5,
          "velocity": 0.3937007874015748
        },
        {
          "duration": 0.078125,
          "durationTicks": 96,
          "midi": 52,
          "name": "E3",
          "ticks": 6336,
          "time": 5.15625,
          "velocity": 0.3937007874015748
        },
        {
          "duration": 0.078125,
          "durationTicks": 96,
          "midi": 57,
          "name": "A3",
          "ticks": 6528,
          "time": 5.3125,
          "velocity": 0.3937007874015748
        },
        {
          "duration": 0.078125,
          "durationTicks": 96,
          "midi": 60,
          "name": "C4",
          "ticks": 6720,
          "time": 5.46875,
          "velocity": 0.3937007874015748
        },
        {
          "duration": 0.078125,
          "durationTicks": 96,
          "midi": 59,
          "name": "B3",
          "ticks": 6912,
          "time": 5.625,
          "velocity": 0.3937007874015748
        },
        {
          "duration": 0.078125,
          "durationTicks": 96,
          "midi": 56,
          "name": "G#3",
          "ticks": 7104,
          "time": 5.78125,
          "velocity": 0.3937007874015748
        },
        {
          "duration": 0.078125,
          "durationTicks": 96,
          "midi": 59,
          "name": "B3",
          "ticks": 7296,
          "time": 5.9375,
          "velocity": 0.3937007874015748
        },
        {
          "duration": 0.078125,
          "durationTicks": 96,
          "midi": 52,
          "name": "E3",
          "ticks": 7488,
          "time": 6.09375,
          "velocity": 0.3937007874015748
        },
        {
          "duration": 0.078125,
          "durationTicks": 96,
          "midi": 57,
          "name": "A3",
          "ticks": 7680,
          "time": 6.25,
          "velocity": 0.3937007874015748
        },
        {
          "duration": 0.078125,
          "durationTicks": 96,
          "midi": 52,
          "name": "E3",
          "ticks": 7872,
          "time": 6.40625,
          "velocity": 0.3937007874015748
        },
        {
          "duration": 0.078125,
          "durationTicks": 96,
          "midi": 57,
          "name": "A3",
          "ticks": 8064,
          "time": 6.5625,
          "velocity": 0.3937007874015748
        },
        {
          "duration": 0.078125,
          "durationTicks": 96,
          "midi": 60,
          "name": "C4",
          "ticks": 8256,
          "time": 6.71875,
          "velocity": 0.3937007874015748
        },
        {
          "duration": 0.078125,
          "durationTicks": 96,
          "midi": 64,
          "name": "E4",
          "ticks": 8448,
          "time": 6.875,
          "velocity": 0.3937007874015748
        },
        {
          "duration": 0.078125,
          "durationTicks": 96,
          "midi": 60,
          "name": "C4",
          "ticks": 8640,
          "time": 7.03125,
          "velocity": 0.3937007874015748
        },
        {
          "duration": 0.078125,
          "durationTicks": 96,
          "midi": 57,
          "name": "A3",
          "ticks": 8832,
          "time": 7.1875,
          "velocity": 0.3937007874015748
        },
        {
          "duration": 0.078125,
          "durationTicks": 96,
          "midi": 52,
          "name": "E3",
          "ticks": 9024,
          "time": 7.34375,
          "velocity": 0.3937007874015748
        },
        {
          "duration": 0.078125,
          "durationTicks": 96,
          "midi": 57,
          "name": "A3",
          "ticks": 9216,
          "time": 7.5,
          "velocity": 0.3937007874015748
        },
        {
          "duration": 0.078125,
          "durationTicks": 96,
          "midi": 52,
          "name": "E3",
          "ticks": 9408,
          "time": 7.65625,
          "velocity": 0.3937007874015748
        },
        {
          "duration": 0.078125,
          "durationTicks": 96,
          "midi": 57,
          "name": "A3",
          "ticks": 9600,
          "time": 7.8125,
          "velocity": 0.3937007874015748
        },
        {
          "duration": 0.078125,
          "durationTicks": 96,
          "midi": 60,
          "name": "C4",
          "ticks": 9792,
          "time": 7.96875,
          "velocity": 0.3937007874015748
        },
        {
          "duration": 0.078125,
          "durationTicks": 96,
          "midi": 59,
          "name": "B3",
          "ticks": 9984,
          "time": 8.125,
          "velocity": 0.3937007874015748
        },
        {
          "duration": 0.078125,
          "durationTicks": 96,
          "midi": 55,
          "name": "G3",
          "ticks": 10176,
          "time": 8.28125,
          "velocity": 0.3937007874015748
        },
        {
          "duration": 0.078125,
          "durationTicks": 96,
          "midi": 59,
          "name": "B3",
          "ticks": 10368,
          "time": 8.4375,
          "velocity": 0.3937007874015748
        },
        {
          "duration": 0.078125,
          "durationTicks": 96,
          "midi": 62,
          "name": "D4",
          "ticks": 10560,
          "time": 8.59375,
          "velocity": 0.3937007874015748
        },
        {
          "duration": 0.078125,
          "durationTicks": 96,
          "midi": 60,
          "name": "C4",
          "ticks": 10752,
          "time": 8.75,
          "velocity": 0.3937007874015748
        },
        {
          "duration": 0.078125,
          "durationTicks": 96,
          "midi": 55,
          "name": "G3",
          "ticks": 10944,
          "time": 8.90625,
          "velocity": 0.3937007874015748
        },
        {
          "duration": 0.078125,
          "durationTicks": 96,
          "midi": 60,
          "name": "C4",
          "ticks": 11136,
          "time": 9.0625,
          "velocity": 0.3937007874015748
        },
        {
          "duration": 0.078125,
          "durationTicks": 96,
          "midi": 64,
          "name": "E4",
          "ticks": 11328,
          "time": 9.21875,
          "velocity": 0.3937007874015748
        },
        {
          "duration": 0.078125,
          "durationTicks": 96,
          "midi": 67,
          "name": "G4",
          "ticks": 11520,
          "time": 9.375,
          "velocity": 0.3937007874015748
        },
        {
          "duration": 0.078125,
          "durationTicks": 96,
          "midi": 64,
          "name": "E4",
          "ticks": 11712,
          "time": 9.53125,
          "velocity": 0.3937007874015748
        },
        {
          "duration": 0.078125,
          "durationTicks": 96,
          "midi": 60,
          "name": "C4",
          "ticks": 11904,
          "time": 9.6875,
          "velocity": 0.3937007874015748
        },
        {
          "duration": 0.078125,
          "durationTicks": 96,
          "midi": 55,
          "name": "G3",
          "ticks": 12096,
          "time": 9.84375,
          "velocity": 0.3937007874015748
        },
        {
          "duration": 0.078125,
          "durationTicks": 96,
          "midi": 65,
          "name": "F4",
          "ticks": 12288,
          "time": 10,
          "velocity": 0.3937007874015748
        },
        {
          "duration": 0.078125,
          "durationTicks": 96,
          "midi": 62,
          "name": "D4",
          "ticks": 12480,
          "time": 10.15625,
          "velocity": 0.3937007874015748
        },
        {
          "duration": 0.078125,
          "durationTicks": 96,
          "midi": 57,
          "name": "A3",
          "ticks": 12672,
          "time": 10.3125,
          "velocity": 0.3937007874015748
        },
        {
          "duration": 0.078125,
          "durationTicks": 96,
          "midi": 62,
          "name": "D4",
          "ticks": 12864,
          "time": 10.46875,
          "velocity": 0.3937007874015748
        },
        {
          "duration": 0.078125,
          "durationTicks": 96,
          "midi": 59,
          "name": "B3",
          "ticks": 13056,
          "time": 10.625,
          "velocity": 0.3937007874015748
        },
        {
          "duration": 0.078125,
          "durationTicks": 96,
          "midi": 56,
          "name": "G#3",
          "ticks": 13248,
          "time": 10.78125,
          "velocity": 0.3937007874015748
        },
        {
          "duration": 0.078125,
          "durationTicks": 96,
          "midi": 59,
          "name": "B3",
          "ticks": 13440,
          "time": 10.9375,
          "velocity": 0.3937007874015748
        },
        {
          "duration": 0.078125,
          "durationTicks": 96,
          "midi": 64,
          "name": "E4",
          "ticks": 13632,
          "time": 11.09375,
          "velocity": 0.3937007874015748
        },
        {
          "duration": 0.078125,
          "durationTicks": 96,
          "midi": 57,
          "name": "A3",
          "ticks": 13824,
          "time": 11.25,
          "velocity": 0.3937007874015748
        },
        {
          "duration": 0.078125,
          "durationTicks": 96,
          "midi": 60,
          "name": "C4",
          "ticks": 14016,
          "time": 11.40625,
          "velocity": 0.3937007874015748
        },
        {
          "duration": 0.078125,
          "durationTicks": 96,
          "midi": 64,
          "name": "E4",
          "ticks": 14208,
          "time": 11.5625,
          "velocity": 0.3937007874015748
        },
        {
          "duration": 0.078125,
          "durationTicks": 96,
          "midi": 60,
          "name": "C4",
          "ticks": 14400,
          "time": 11.71875,
          "velocity": 0.3937007874015748
        },
        {
          "duration": 0.078125,
          "durationTicks": 96,
          "midi": 57,
          "name": "A3",
          "ticks": 14592,
          "time": 11.875,
          "velocity": 0.3937007874015748
        },
        {
          "duration": 0.078125,
          "durationTicks": 96,
          "midi": 62,
          "name": "D4",
          "ticks": 14784,
          "time": 12.03125,
          "velocity": 0.3937007874015748
        },
        {
          "duration": 0.078125,
          "durationTicks": 96,
          "midi": 66,
          "name": "F#4",
          "ticks": 14976,
          "time": 12.1875,
          "velocity": 0.3937007874015748
        },
        {
          "duration": 0.078125,
          "durationTicks": 96,
          "midi": 62,
          "name": "D4",
          "ticks": 15168,
          "time": 12.34375,
          "velocity": 0.3937007874015748
        },
        {
          "duration": 0.078125,
          "durationTicks": 96,
          "midi": 60,
          "name": "C4",
          "ticks": 15360,
          "time": 12.5,
          "velocity": 0.3937007874015748
        },
        {
          "duration": 0.078125,
          "durationTicks": 96,
          "midi": 63,
          "name": "D#4",
          "ticks": 15552,
          "time": 12.65625,
          "velocity": 0.3937007874015748
        },
        {
          "duration": 0.078125,
          "durationTicks": 96,
          "midi": 66,
          "name": "F#4",
          "ticks": 15744,
          "time": 12.8125,
          "velocity": 0.3937007874015748
        },
        {
          "duration": 0.078125,
          "durationTicks": 96,
          "midi": 63,
          "name": "D#4",
          "ticks": 15936,
          "time": 12.96875,
          "velocity": 0.3937007874015748
        },
        {
          "duration": 0.078125,
          "durationTicks": 96,
          "midi": 56,
          "name": "G#3",
          "ticks": 16128,
          "time": 13.125,
          "velocity": 0.3937007874015748
        },
        {
          "duration": 0.078125,
          "durationTicks": 96,
          "midi": 59,
          "name": "B3",
          "ticks": 16320,
          "time": 13.28125,
          "velocity": 0.3937007874015748
        },
        {
          "duration": 0.078125,
          "durationTicks": 96,
          "midi": 64,
          "name": "E4",
          "ticks": 16512,
          "time": 13.4375,
          "velocity": 0.3937007874015748
        },
        {
          "duration": 0.078125,
          "durationTicks": 96,
          "midi": 59,
          "name": "B3",
          "ticks": 16704,
          "time": 13.59375,
          "velocity": 0.3937007874015748
        },
        {
          "duration": 0.078125,
          "durationTicks": 96,
          "midi": 57,
          "name": "A3",
          "ticks": 16896,
          "time": 13.75,
          "velocity": 0.3937007874015748
        },
        {
          "duration": 0.078125,
          "durationTicks": 96,
          "midi": 52,
          "name": "E3",
          "ticks": 17088,
          "time": 13.90625,
          "velocity": 0.3937007874015748
        },
        {
          "duration": 0.078125,
          "durationTicks": 96,
          "midi": 57,
          "name": "A3",
          "ticks": 17280,
          "time": 14.0625,
          "velocity": 0.3937007874015748
        },
        {
          "duration": 0.078125,
          "durationTicks": 96,
          "midi": 60,
          "name": "C4",
          "ticks": 17472,
          "time": 14.21875,
          "velocity": 0.3937007874015748
        },
        {
          "duration": 0.078125,
          "durationTicks": 96,
          "midi": 64,
          "name": "E4",
          "ticks": 17664,
          "time": 14.375,
          "velocity": 0.3937007874015748
        },
        {
          "duration": 0.078125,
          "durationTicks": 96,
          "midi": 60,
          "name": "C4",
          "ticks": 17856,
          "time": 14.53125,
          "velocity": 0.3937007874015748
        },
        {
          "duration": 0.078125,
          "durationTicks": 96,
          "midi": 57,
          "name": "A3",
          "ticks": 18048,
          "time": 14.6875,
          "velocity": 0.3937007874015748
        },
        {
          "duration": 0.078125,
          "durationTicks": 96,
          "midi": 52,
          "name": "E3",
          "ticks": 18240,
          "time": 14.84375,
          "velocity": 0.3937007874015748
        },
        {
          "duration": 0.078125,
          "durationTicks": 96,
          "midi": 57,
          "name": "A3",
          "ticks": 18432,
          "time": 15,
          "velocity": 0.3937007874015748
        },
        {
          "duration": 0.078125,
          "durationTicks": 96,
          "midi": 52,
          "name": "E3",
          "ticks": 18624,
          "time": 15.15625,
          "velocity": 0.3937007874015748
        },
        {
          "duration": 0.078125,
          "durationTicks": 96,
          "midi": 57,
          "name": "A3",
          "ticks": 18816,
          "time": 15.3125,
          "velocity": 0.3937007874015748
        },
        {
          "duration": 0.078125,
          "durationTicks": 96,
          "midi": 60,
          "name": "C4",
          "ticks": 19008,
          "time": 15.46875,
          "velocity": 0.3937007874015748
        },
        {
          "duration": 0.078125,
          "durationTicks": 96,
          "midi": 59,
          "name": "B3",
          "ticks": 19200,
          "time": 15.625,
          "velocity": 0.3937007874015748
        },
        {
          "duration": 0.078125,
          "durationTicks": 96,
          "midi": 56,
          "name": "G#3",
          "ticks": 19392,
          "time": 15.78125,
          "velocity": 0.3937007874015748
        },
        {
          "duration": 0.078125,
          "durationTicks": 96,
          "midi": 59,
          "name": "B3",
          "ticks": 19584,
          "time": 15.9375,
          "velocity": 0.3937007874015748
        },
        {
          "duration": 0.078125,
          "durationTicks": 96,
          "midi": 52,
          "name": "E3",
          "ticks": 19776,
          "time": 16.09375,
          "velocity": 0.3937007874015748
        },
        {
          "duration": 0.078125,
          "durationTicks": 96,
          "midi": 57,
          "name": "A3",
          "ticks": 19968,
          "time": 16.25,
          "velocity": 0.3937007874015748
        },
        {
          "duration": 0.078125,
          "durationTicks": 96,
          "midi": 52,
          "name": "E3",
          "ticks": 20160,
          "time": 16.40625,
          "velocity": 0.3937007874015748
        },
        {
          "duration": 0.078125,
          "durationTicks": 96,
          "midi": 57,
          "name": "A3",
          "ticks": 20352,
          "time": 16.5625,
          "velocity": 0.3937007874015748
        },
        {
          "duration": 0.078125,
          "durationTicks": 96,
          "midi": 60,
          "name": "C4",
          "ticks": 20544,
          "time": 16.71875,
          "velocity": 0.3937007874015748
        },
        {
          "duration": 0.078125,
          "durationTicks": 96,
          "midi": 64,
          "name": "E4",
          "ticks": 20736,
          "time": 16.875,
          "velocity": 0.3937007874015748
        },
        {
          "duration": 0.078125,
          "durationTicks": 96,
          "midi": 60,
          "name": "C4",
          "ticks": 20928,
          "time": 17.03125,
          "velocity": 0.3937007874015748
        },
        {
          "duration": 0.078125,
          "durationTicks": 96,
          "midi": 57,
          "name": "A3",
          "ticks": 21120,
          "time": 17.1875,
          "velocity": 0.3937007874015748
        },
        {
          "duration": 0.078125,
          "durationTicks": 96,
          "midi": 52,
          "name": "E3",
          "ticks": 21312,
          "time": 17.34375,
          "velocity": 0.3937007874015748
        },
        {
          "duration": 0.078125,
          "durationTicks": 96,
          "midi": 57,
          "name": "A3",
          "ticks": 21504,
          "time": 17.5,
          "velocity": 0.3937007874015748
        },
        {
          "duration": 0.078125,
          "durationTicks": 96,
          "midi": 52,
          "name": "E3",
          "ticks": 21696,
          "time": 17.65625,
          "velocity": 0.3937007874015748
        },
        {
          "duration": 0.078125,
          "durationTicks": 96,
          "midi": 57,
          "name": "A3",
          "ticks": 21888,
          "time": 17.8125,
          "velocity": 0.3937007874015748
        },
        {
          "duration": 0.078125,
          "durationTicks": 96,
          "midi": 60,
          "name": "C4",
          "ticks": 22080,
          "time": 17.96875,
          "velocity": 0.3937007874015748
        },
        {
          "duration": 0.078125,
          "durationTicks": 96,
          "midi": 59,
          "name": "B3",
          "ticks": 22272,
          "time": 18.125,
          "velocity": 0.3937007874015748
        },
        {
          "duration": 0.078125,
          "durationTicks": 96,
          "midi": 55,
          "name": "G3",
          "ticks": 22464,
          "time": 18.28125,
          "velocity": 0.3937007874015748
        },
        {
          "duration": 0.078125,
          "durationTicks": 96,
          "midi": 59,
          "name": "B3",
          "ticks": 22656,
          "time": 18.4375,
          "velocity": 0.3937007874015748
        },
        {
          "duration": 0.078125,
          "durationTicks": 96,
          "midi": 62,
          "name": "D4",
          "ticks": 22848,
          "time": 18.59375,
          "velocity": 0.3937007874015748
        },
        {
          "duration": 0.078125,
          "durationTicks": 96,
          "midi": 60,
          "name": "C4",
          "ticks": 23040,
          "time": 18.75,
          "velocity": 0.3937007874015748
        },
        {
          "duration": 0.078125,
          "durationTicks": 96,
          "midi": 55,
          "name": "G3",
          "ticks": 23232,
          "time": 18.90625,
          "velocity": 0.3937007874015748
        },
        {
          "duration": 0.078125,
          "durationTicks": 96,
          "midi": 60,
          "name": "C4",
          "ticks": 23424,
          "time": 19.0625,
          "velocity": 0.3937007874015748
        },
        {
          "duration": 0.078125,
          "durationTicks": 96,
          "midi": 64,
          "name": "E4",
          "ticks": 23616,
          "time": 19.21875,
          "velocity": 0.3937007874015748
        },
        {
          "duration": 0.078125,
          "durationTicks": 96,
          "midi": 67,
          "name": "G4",
          "ticks": 23808,
          "time": 19.375,
          "velocity": 0.3937007874015748
        },
        {
          "duration": 0.078125,
          "durationTicks": 96,
          "midi": 64,
          "name": "E4",
          "ticks": 24000,
          "time": 19.53125,
          "velocity": 0.3937007874015748
        },
        {
          "duration": 0.078125,
          "durationTicks": 96,
          "midi": 60,
          "name": "C4",
          "ticks": 24192,
          "time": 19.6875,
          "velocity": 0.3937007874015748
        },
        {
          "duration": 0.078125,
          "durationTicks": 96,
          "midi": 55,
          "name": "G3",
          "ticks": 24384,
          "time": 19.84375,
          "velocity": 0.3937007874015748
        },
        {
          "duration": 0.078125,
          "durationTicks": 96,
          "midi": 65,
          "name": "F4",
          "ticks": 24576,
          "time": 20,
          "velocity": 0.3937007874015748
        },
        {
          "duration": 0.078125,
          "durationTicks": 96,
          "midi": 62,
          "name": "D4",
          "ticks": 24768,
          "time": 20.15625,
          "velocity": 0.3937007874015748
        },
        {
          "duration": 0.078125,
          "durationTicks": 96,
          "midi": 57,
          "name": "A3",
          "ticks": 24960,
          "time": 20.3125,
          "velocity": 0.3937007874015748
        },
        {
          "duration": 0.078125,
          "durationTicks": 96,
          "midi": 62,
          "name": "D4",
          "ticks": 25152,
          "time": 20.46875,
          "velocity": 0.3937007874015748
        },
        {
          "duration": 0.078125,
          "durationTicks": 96,
          "midi": 59,
          "name": "B3",
          "ticks": 25344,
          "time": 20.625,
          "velocity": 0.3937007874015748
        },
        {
          "duration": 0.078125,
          "durationTicks": 96,
          "midi": 56,
          "name": "G#3",
          "ticks": 25536,
          "time": 20.78125,
          "velocity": 0.3937007874015748
        },
        {
          "duration": 0.078125,
          "durationTicks": 96,
          "midi": 59,
          "name": "B3",
          "ticks": 25728,
          "time": 20.9375,
          "velocity": 0.3937007874015748
        },
        {
          "duration": 0.078125,
          "durationTicks": 96,
          "midi": 64,
          "name": "E4",
          "ticks": 25920,
          "time": 21.09375,
          "velocity": 0.3937007874015748
        },
        {
          "duration": 0.078125,
          "durationTicks": 96,
          "midi": 57,
          "name": "A3",
          "ticks": 26112,
          "time": 21.25,
          "velocity": 0.3937007874015748
        },
        {
          "duration": 0.078125,
          "durationTicks": 96,
          "midi": 60,
          "name": "C4",
          "ticks": 26304,
          "time": 21.40625,
          "velocity": 0.3937007874015748
        },
        {
          "duration": 0.078125,
          "durationTicks": 96,
          "midi": 64,
          "name": "E4",
          "ticks": 26496,
          "time": 21.5625,
          "velocity": 0.3937007874015748
        },
        {
          "duration": 0.078125,
          "durationTicks": 96,
          "midi": 60,
          "name": "C4",
          "ticks": 26688,
          "time": 21.71875,
          "velocity": 0.3937007874015748
        },
        {
          "duration": 0.078125,
          "durationTicks": 96,
          "midi": 57,
          "name": "A3",
          "ticks": 26880,
          "time": 21.875,
          "velocity": 0.3937007874015748
        },
        {
          "duration": 0.078125,
          "durationTicks": 96,
          "midi": 62,
          "name": "D4",
          "ticks": 27072,
          "time": 22.03125,
          "velocity": 0.3937007874015748
        },
        {
          "duration": 0.078125,
          "durationTicks": 96,
          "midi": 66,
          "name": "F#4",
          "ticks": 27264,
          "time": 22.1875,
          "velocity": 0.3937007874015748
        },
        {
          "duration": 0.078125,
          "durationTicks": 96,
          "midi": 62,
          "name": "D4",
          "ticks": 27456,
          "time": 22.34375,
          "velocity": 0.3937007874015748
        },
        {
          "duration": 0.078125,
          "durationTicks": 96,
          "midi": 60,
          "name": "C4",
          "ticks": 27648,
          "time": 22.5,
          "velocity": 0.3937007874015748
        },
        {
          "duration": 0.078125,
          "durationTicks": 96,
          "midi": 63,
          "name": "D#4",
          "ticks": 27840,
          "time": 22.65625,
          "velocity": 0.3937007874015748
        },
        {
          "duration": 0.078125,
          "durationTicks": 96,
          "midi": 66,
          "name": "F#4",
          "ticks": 28032,
          "time": 22.8125,
          "velocity": 0.3937007874015748
        },
        {
          "duration": 0.078125,
          "durationTicks": 96,
          "midi": 63,
          "name": "D#4",
          "ticks": 28224,
          "time": 22.96875,
          "velocity": 0.3937007874015748
        },
        {
          "duration": 0.078125,
          "durationTicks": 96,
          "midi": 56,
          "name": "G#3",
          "ticks": 28416,
          "time": 23.125,
          "velocity": 0.3937007874015748
        },
        {
          "duration": 0.078125,
          "durationTicks": 96,
          "midi": 59,
          "name": "B3",
          "ticks": 28608,
          "time": 23.28125,
          "velocity": 0.3937007874015748
        },
        {
          "duration": 0.078125,
          "durationTicks": 96,
          "midi": 64,
          "name": "E4",
          "ticks": 28800,
          "time": 23.4375,
          "velocity": 0.3937007874015748
        },
        {
          "duration": 0.078125,
          "durationTicks": 96,
          "midi": 59,
          "name": "B3",
          "ticks": 28992,
          "time": 23.59375,
          "velocity": 0.3937007874015748
        },
        {
          "duration": 0.078125,
          "durationTicks": 96,
          "midi": 57,
          "name": "A3",
          "ticks": 29184,
          "time": 23.75,
          "velocity": 0.3937007874015748
        },
        {
          "duration": 0.078125,
          "durationTicks": 96,
          "midi": 52,
          "name": "E3",
          "ticks": 29376,
          "time": 23.90625,
          "velocity": 0.3937007874015748
        },
        {
          "duration": 0.078125,
          "durationTicks": 96,
          "midi": 57,
          "name": "A3",
          "ticks": 29568,
          "time": 24.0625,
          "velocity": 0.3937007874015748
        },
        {
          "duration": 0.078125,
          "durationTicks": 96,
          "midi": 60,
          "name": "C4",
          "ticks": 29760,
          "time": 24.21875,
          "velocity": 0.3937007874015748
        },
        {
          "duration": 0.078125,
          "durationTicks": 96,
          "midi": 64,
          "name": "E4",
          "ticks": 29952,
          "time": 24.375,
          "velocity": 0.3937007874015748
        },
        {
          "duration": 0.078125,
          "durationTicks": 96,
          "midi": 60,
          "name": "C4",
          "ticks": 30144,
          "time": 24.53125,
          "velocity": 0.3937007874015748
        },
        {
          "duration": 0.078125,
          "durationTicks": 96,
          "midi": 57,
          "name": "A3",
          "ticks": 30336,
          "time": 24.6875,
          "velocity": 0.3937007874015748
        },
        {
          "duration": 0.078125,
          "durationTicks": 96,
          "midi": 52,
          "name": "E3",
          "ticks": 30528,
          "time": 24.84375,
          "velocity": 0.3937007874015748
        },
        {
          "duration": 0.625,
          "durationTicks": 768,
          "midi": 64,
          "name": "E4",
          "ticks": 43008,
          "time": 35,
          "velocity": 0.3937007874015748
        },
        {
          "duration": 0.625,
          "durationTicks": 768,
          "midi": 68,
          "name": "G#4",
          "ticks": 43776,
          "time": 35.625,
          "velocity": 0.3937007874015748
        },
        {
          "duration": 1.25,
          "durationTicks": 1536,
          "midi": 69,
          "name": "A4",
          "ticks": 44544,
          "time": 36.25,
          "velocity": 0.3937007874015748
        },
        {
          "duration": 0.625,
          "durationTicks": 768,
          "midi": 67,
          "name": "G4",
          "ticks": 46080,
          "time": 37.5,
          "velocity": 0.3937007874015748
        },
        {
          "duration": 0.625,
          "durationTicks": 768,
          "midi": 71,
          "name": "B4",
          "ticks": 46848,
          "time": 38.125,
          "velocity": 0.3937007874015748
        },
        {
          "duration": 1.25,
          "durationTicks": 1536,
          "midi": 72,
          "name": "C5",
          "ticks": 47616,
          "time": 38.75,
          "velocity": 0.3937007874015748
        },
        {
          "duration": 0.625,
          "durationTicks": 768,
          "midi": 69,
          "name": "A4",
          "ticks": 49152,
          "time": 40,
          "velocity": 0.3937007874015748
        },
        {
          "duration": 0.625,
          "durationTicks": 768,
          "midi": 73,
          "name": "C#5",
          "ticks": 49920,
          "time": 40.625,
          "velocity": 0.3937007874015748
        },
        {
          "duration": 0.625,
          "durationTicks": 768,
          "midi": 74,
          "name": "D5",
          "ticks": 50688,
          "time": 41.25,
          "velocity": 0.3937007874015748
        },
        {
          "duration": 0.625,
          "durationTicks": 768,
          "midi": 72,
          "name": "C5",
          "ticks": 51456,
          "time": 41.875,
          "velocity": 0.3937007874015748
        },
        {
          "duration": 0.625,
          "durationTicks": 768,
          "midi": 71,
          "name": "B4",
          "ticks": 52224,
          "time": 42.5,
          "velocity": 0.3937007874015748
        },
        {
          "duration": 0.625,
          "durationTicks": 768,
          "midi": 75,
          "name": "D#5",
          "ticks": 52992,
          "time": 43.125,
          "velocity": 0.3937007874015748
        },
        {
          "duration": 1.25,
          "durationTicks": 1536,
          "midi": 76,
          "name": "E5",
          "ticks": 53760,
          "time": 43.75,
          "velocity": 0.3937007874015748
        },
        {
          "duration": 0.078125,
          "durationTicks": 96,
          "midi": 72,
          "name": "C5",
          "ticks": 69120,
          "time": 56.25,
          "velocity": 0.3937007874015748
        },
        {
          "duration": 0.078125,
          "durationTicks": 96,
          "midi": 67,
          "name": "G4",
          "ticks": 69312,
          "time": 56.40625,
          "velocity": 0.3937007874015748
        },
        {
          "duration": 0.078125,
          "durationTicks": 96,
          "midi": 72,
          "name": "C5",
          "ticks": 69504,
          "time": 56.5625,
          "velocity": 0.3937007874015748
        },
        {
          "duration": 0.078125,
          "durationTicks": 96,
          "midi": 75,
          "name": "D#5",
          "ticks": 69696,
          "time": 56.71875,
          "velocity": 0.3937007874015748
        },
        {
          "duration": 0.078125,
          "durationTicks": 96,
          "midi": 74,
          "name": "D5",
          "ticks": 69888,
          "time": 56.875,
          "velocity": 0.3937007874015748
        },
        {
          "duration": 0.078125,
          "durationTicks": 96,
          "midi": 71,
          "name": "B4",
          "ticks": 70080,
          "time": 57.03125,
          "velocity": 0.3937007874015748
        },
        {
          "duration": 0.078125,
          "durationTicks": 96,
          "midi": 74,
          "name": "D5",
          "ticks": 70272,
          "time": 57.1875,
          "velocity": 0.3937007874015748
        },
        {
          "duration": 0.078125,
          "durationTicks": 96,
          "midi": 67,
          "name": "G4",
          "ticks": 70464,
          "time": 57.34375,
          "velocity": 0.3937007874015748
        },
        {
          "duration": 0.078125,
          "durationTicks": 96,
          "midi": 72,
          "name": "C5",
          "ticks": 70656,
          "time": 57.5,
          "velocity": 0.3937007874015748
        },
        {
          "duration": 0.078125,
          "durationTicks": 96,
          "midi": 67,
          "name": "G4",
          "ticks": 70848,
          "time": 57.65625,
          "velocity": 0.3937007874015748
        },
        {
          "duration": 0.078125,
          "durationTicks": 96,
          "midi": 72,
          "name": "C5",
          "ticks": 71040,
          "time": 57.8125,
          "velocity": 0.3937007874015748
        },
        {
          "duration": 0.078125,
          "durationTicks": 96,
          "midi": 75,
          "name": "D#5",
          "ticks": 71232,
          "time": 57.96875,
          "velocity": 0.3937007874015748
        },
        {
          "duration": 0.078125,
          "durationTicks": 96,
          "midi": 79,
          "name": "G5",
          "ticks": 71424,
          "time": 58.125,
          "velocity": 0.3937007874015748
        },
        {
          "duration": 0.078125,
          "durationTicks": 96,
          "midi": 75,
          "name": "D#5",
          "ticks": 71616,
          "time": 58.28125,
          "velocity": 0.3937007874015748
        },
        {
          "duration": 0.078125,
          "durationTicks": 96,
          "midi": 72,
          "name": "C5",
          "ticks": 71808,
          "time": 58.4375,
          "velocity": 0.3937007874015748
        },
        {
          "duration": 0.078125,
          "durationTicks": 96,
          "midi": 67,
          "name": "G4",
          "ticks": 72000,
          "time": 58.59375,
          "velocity": 0.3937007874015748
        },
        {
          "duration": 0.078125,
          "durationTicks": 96,
          "midi": 72,
          "name": "C5",
          "ticks": 72192,
          "time": 58.75,
          "velocity": 0.3937007874015748
        },
        {
          "duration": 0.078125,
          "durationTicks": 96,
          "midi": 67,
          "name": "G4",
          "ticks": 72384,
          "time": 58.90625,
          "velocity": 0.3937007874015748
        },
        {
          "duration": 0.078125,
          "durationTicks": 96,
          "midi": 72,
          "name": "C5",
          "ticks": 72576,
          "time": 59.0625,
          "velocity": 0.3937007874015748
        },
        {
          "duration": 0.078125,
          "durationTicks": 96,
          "midi": 75,
          "name": "D#5",
          "ticks": 72768,
          "time": 59.21875,
          "velocity": 0.3937007874015748
        },
        {
          "duration": 0.078125,
          "durationTicks": 96,
          "midi": 74,
          "name": "D5",
          "ticks": 72960,
          "time": 59.375,
          "velocity": 0.3937007874015748
        },
        {
          "duration": 0.078125,
          "durationTicks": 96,
          "midi": 70,
          "name": "A#4",
          "ticks": 73152,
          "time": 59.53125,
          "velocity": 0.3937007874015748
        },
        {
          "duration": 0.078125,
          "durationTicks": 96,
          "midi": 74,
          "name": "D5",
          "ticks": 73344,
          "time": 59.6875,
          "velocity": 0.3937007874015748
        },
        {
          "duration": 0.078125,
          "durationTicks": 96,
          "midi": 77,
          "name": "F5",
          "ticks": 73536,
          "time": 59.84375,
          "velocity": 0.3937007874015748
        },
        {
          "duration": 0.078125,
          "durationTicks": 96,
          "midi": 75,
          "name": "D#5",
          "ticks": 73728,
          "time": 60,
          "velocity": 0.3937007874015748
        },
        {
          "duration": 0.078125,
          "durationTicks": 96,
          "midi": 70,
          "name": "A#4",
          "ticks": 73920,
          "time": 60.15625,
          "velocity": 0.3937007874015748
        },
        {
          "duration": 0.078125,
          "durationTicks": 96,
          "midi": 75,
          "name": "D#5",
          "ticks": 74112,
          "time": 60.3125,
          "velocity": 0.3937007874015748
        },
        {
          "duration": 0.078125,
          "durationTicks": 96,
          "midi": 79,
          "name": "G5",
          "ticks": 74304,
          "time": 60.46875,
          "velocity": 0.3937007874015748
        },
        {
          "duration": 0.078125,
          "durationTicks": 96,
          "midi": 82,
          "name": "A#5",
          "ticks": 74496,
          "time": 60.625,
          "velocity": 0.3937007874015748
        },
        {
          "duration": 0.078125,
          "durationTicks": 96,
          "midi": 79,
          "name": "G5",
          "ticks": 74688,
          "time": 60.78125,
          "velocity": 0.3937007874015748
        },
        {
          "duration": 0.078125,
          "durationTicks": 96,
          "midi": 75,
          "name": "D#5",
          "ticks": 74880,
          "time": 60.9375,
          "velocity": 0.3937007874015748
        },
        {
          "duration": 0.078125,
          "durationTicks": 96,
          "midi": 70,
          "name": "A#4",
          "ticks": 75072,
          "time": 61.09375,
          "velocity": 0.3937007874015748
        },
        {
          "duration": 0.078125,
          "durationTicks": 96,
          "midi": 80,
          "name": "G#5",
          "ticks": 75264,
          "time": 61.25,
          "velocity": 0.3937007874015748
        },
        {
          "duration": 0.078125,
          "durationTicks": 96,
          "midi": 77,
          "name": "F5",
          "ticks": 75456,
          "time": 61.40625,
          "velocity": 0.3937007874015748
        },
        {
          "duration": 0.078125,
          "durationTicks": 96,
          "midi": 72,
          "name": "C5",
          "ticks": 75648,
          "time": 61.5625,
          "velocity": 0.3937007874015748
        },
        {
          "duration": 0.078125,
          "durationTicks": 96,
          "midi": 77,
          "name": "F5",
          "ticks": 75840,
          "time": 61.71875,
          "velocity": 0.3937007874015748
        },
        {
          "duration": 0.078125,
          "durationTicks": 96,
          "midi": 74,
          "name": "D5",
          "ticks": 76032,
          "time": 61.875,
          "velocity": 0.3937007874015748
        },
        {
          "duration": 0.078125,
          "durationTicks": 96,
          "midi": 71,
          "name": "B4",
          "ticks": 76224,
          "time": 62.03125,
          "velocity": 0.3937007874015748
        },
        {
          "duration": 0.078125,
          "durationTicks": 96,
          "midi": 74,
          "name": "D5",
          "ticks": 76416,
          "time": 62.1875,
          "velocity": 0.3937007874015748
        },
        {
          "duration": 0.078125,
          "durationTicks": 96,
          "midi": 79,
          "name": "G5",
          "ticks": 76608,
          "time": 62.34375,
          "velocity": 0.3937007874015748
        },
        {
          "duration": 0.078125,
          "durationTicks": 96,
          "midi": 72,
          "name": "C5",
          "ticks": 76800,
          "time": 62.5,
          "velocity": 0.3937007874015748
        },
        {
          "duration": 0.078125,
          "durationTicks": 96,
          "midi": 75,
          "name": "D#5",
          "ticks": 76992,
          "time": 62.65625,
          "velocity": 0.3937007874015748
        },
        {
          "duration": 0.078125,
          "durationTicks": 96,
          "midi": 79,
          "name": "G5",
          "ticks": 77184,
          "time": 62.8125,
          "velocity": 0.3937007874015748
        },
        {
          "duration": 0.078125,
          "durationTicks": 96,
          "midi": 75,
          "name": "D#5",
          "ticks": 77376,
          "time": 62.96875,
          "velocity": 0.3937007874015748
        },
        {
          "duration": 0.078125,
          "durationTicks": 96,
          "midi": 72,
          "name": "C5",
          "ticks": 77568,
          "time": 63.125,
          "velocity": 0.3937007874015748
        },
        {
          "duration": 0.078125,
          "durationTicks": 96,
          "midi": 77,
          "name": "F5",
          "ticks": 77760,
          "time": 63.28125,
          "velocity": 0.3937007874015748
        },
        {
          "duration": 0.078125,
          "durationTicks": 96,
          "midi": 81,
          "name": "A5",
          "ticks": 77952,
          "time": 63.4375,
          "velocity": 0.3937007874015748
        },
        {
          "duration": 0.078125,
          "durationTicks": 96,
          "midi": 77,
          "name": "F5",
          "ticks": 78144,
          "time": 63.59375,
          "velocity": 0.3937007874015748
        },
        {
          "duration": 0.078125,
          "durationTicks": 96,
          "midi": 75,
          "name": "D#5",
          "ticks": 78336,
          "time": 63.75,
          "velocity": 0.3937007874015748
        },
        {
          "duration": 0.078125,
          "durationTicks": 96,
          "midi": 78,
          "name": "F#5",
          "ticks": 78528,
          "time": 63.90625,
          "velocity": 0.3937007874015748
        },
        {
          "duration": 0.078125,
          "durationTicks": 96,
          "midi": 81,
          "name": "A5",
          "ticks": 78720,
          "time": 64.0625,
          "velocity": 0.3937007874015748
        },
        {
          "duration": 0.078125,
          "durationTicks": 96,
          "midi": 78,
          "name": "F#5",
          "ticks": 78912,
          "time": 64.21875,
          "velocity": 0.3937007874015748
        },
        {
          "duration": 0.078125,
          "durationTicks": 96,
          "midi": 71,
          "name": "B4",
          "ticks": 79104,
          "time": 64.375,
          "velocity": 0.3937007874015748
        },
        {
          "duration": 0.078125,
          "durationTicks": 96,
          "midi": 74,
          "name": "D5",
          "ticks": 79296,
          "time": 64.53125,
          "velocity": 0.3937007874015748
        },
        {
          "duration": 0.078125,
          "durationTicks": 96,
          "midi": 79,
          "name": "G5",
          "ticks": 79488,
          "time": 64.6875,
          "velocity": 0.3937007874015748
        },
        {
          "duration": 0.078125,
          "durationTicks": 96,
          "midi": 74,
          "name": "D5",
          "ticks": 79680,
          "time": 64.84375,
          "velocity": 0.3937007874015748
        },
        {
          "duration": 0.078125,
          "durationTicks": 96,
          "midi": 72,
          "name": "C5",
          "ticks": 79872,
          "time": 65,
          "velocity": 0.3937007874015748
        },
        {
          "duration": 0.078125,
          "durationTicks": 96,
          "midi": 67,
          "name": "G4",
          "ticks": 80064,
          "time": 65.15625,
          "velocity": 0.3937007874015748
        },
        {
          "duration": 0.078125,
          "durationTicks": 96,
          "midi": 72,
          "name": "C5",
          "ticks": 80256,
          "time": 65.3125,
          "velocity": 0.3937007874015748
        },
        {
          "duration": 0.078125,
          "durationTicks": 96,
          "midi": 75,
          "name": "D#5",
          "ticks": 80448,
          "time": 65.46875,
          "velocity": 0.3937007874015748
        },
        {
          "duration": 0.078125,
          "durationTicks": 96,
          "midi": 79,
          "name": "G5",
          "ticks": 80640,
          "time": 65.625,
          "velocity": 0.3937007874015748
        },
        {
          "duration": 0.078125,
          "durationTicks": 96,
          "midi": 75,
          "name": "D#5",
          "ticks": 80832,
          "time": 65.78125,
          "velocity": 0.3937007874015748
        },
        {
          "duration": 0.078125,
          "durationTicks": 96,
          "midi": 72,
          "name": "C5",
          "ticks": 81024,
          "time": 65.9375,
          "velocity": 0.3937007874015748
        },
        {
          "duration": 0.078125,
          "durationTicks": 96,
          "midi": 67,
          "name": "G4",
          "ticks": 81216,
          "time": 66.09375,
          "velocity": 0.3937007874015748
        },
        {
          "duration": 0.078125,
          "durationTicks": 96,
          "midi": 72,
          "name": "C5",
          "ticks": 81408,
          "time": 66.25,
          "velocity": 0.3937007874015748
        },
        {
          "duration": 0.078125,
          "durationTicks": 96,
          "midi": 67,
          "name": "G4",
          "ticks": 81600,
          "time": 66.40625,
          "velocity": 0.3937007874015748
        },
        {
          "duration": 0.078125,
          "durationTicks": 96,
          "midi": 72,
          "name": "C5",
          "ticks": 81792,
          "time": 66.5625,
          "velocity": 0.3937007874015748
        },
        {
          "duration": 0.078125,
          "durationTicks": 96,
          "midi": 75,
          "name": "D#5",
          "ticks": 81984,
          "time": 66.71875,
          "velocity": 0.3937007874015748
        },
        {
          "duration": 0.078125,
          "durationTicks": 96,
          "midi": 74,
          "name": "D5",
          "ticks": 82176,
          "time": 66.875,
          "velocity": 0.3937007874015748
        },
        {
          "duration": 0.078125,
          "durationTicks": 96,
          "midi": 71,
          "name": "B4",
          "ticks": 82368,
          "time": 67.03125,
          "velocity": 0.3937007874015748
        },
        {
          "duration": 0.078125,
          "durationTicks": 96,
          "midi": 74,
          "name": "D5",
          "ticks": 82560,
          "time": 67.1875,
          "velocity": 0.3937007874015748
        },
        {
          "duration": 0.078125,
          "durationTicks": 96,
          "midi": 67,
          "name": "G4",
          "ticks": 82752,
          "time": 67.34375,
          "velocity": 0.3937007874015748
        },
        {
          "duration": 0.078125,
          "durationTicks": 96,
          "midi": 72,
          "name": "C5",
          "ticks": 82944,
          "time": 67.5,
          "velocity": 0.3937007874015748
        },
        {
          "duration": 0.078125,
          "durationTicks": 96,
          "midi": 67,
          "name": "G4",
          "ticks": 83136,
          "time": 67.65625,
          "velocity": 0.3937007874015748
        },
        {
          "duration": 0.078125,
          "durationTicks": 96,
          "midi": 72,
          "name": "C5",
          "ticks": 83328,
          "time": 67.8125,
          "velocity": 0.3937007874015748
        },
        {
          "duration": 0.078125,
          "durationTicks": 96,
          "midi": 75,
          "name": "D#5",
          "ticks": 83520,
          "time": 67.96875,
          "velocity": 0.3937007874015748
        },
        {
          "duration": 0.078125,
          "durationTicks": 96,
          "midi": 79,
          "name": "G5",
          "ticks": 83712,
          "time": 68.125,
          "velocity": 0.3937007874015748
        },
        {
          "duration": 0.078125,
          "durationTicks": 96,
          "midi": 75,
          "name": "D#5",
          "ticks": 83904,
          "time": 68.28125,
          "velocity": 0.3937007874015748
        },
        {
          "duration": 0.078125,
          "durationTicks": 96,
          "midi": 72,
          "name": "C5",
          "ticks": 84096,
          "time": 68.4375,
          "velocity": 0.3937007874015748
        },
        {
          "duration": 0.078125,
          "durationTicks": 96,
          "midi": 67,
          "name": "G4",
          "ticks": 84288,
          "time": 68.59375,
          "velocity": 0.3937007874015748
        },
        {
          "duration": 0.078125,
          "durationTicks": 96,
          "midi": 72,
          "name": "C5",
          "ticks": 84480,
          "time": 68.75,
          "velocity": 0.3937007874015748
        },
        {
          "duration": 0.078125,
          "durationTicks": 96,
          "midi": 67,
          "name": "G4",
          "ticks": 84672,
          "time": 68.90625,
          "velocity": 0.3937007874015748
        },
        {
          "duration": 0.078125,
          "durationTicks": 96,
          "midi": 72,
          "name": "C5",
          "ticks": 84864,
          "time": 69.0625,
          "velocity": 0.3937007874015748
        },
        {
          "duration": 0.078125,
          "durationTicks": 96,
          "midi": 75,
          "name": "D#5",
          "ticks": 85056,
          "time": 69.21875,
          "velocity": 0.3937007874015748
        },
        {
          "duration": 0.078125,
          "durationTicks": 96,
          "midi": 74,
          "name": "D5",
          "ticks": 85248,
          "time": 69.375,
          "velocity": 0.3937007874015748
        },
        {
          "duration": 0.078125,
          "durationTicks": 96,
          "midi": 70,
          "name": "A#4",
          "ticks": 85440,
          "time": 69.53125,
          "velocity": 0.3937007874015748
        },
        {
          "duration": 0.078125,
          "durationTicks": 96,
          "midi": 74,
          "name": "D5",
          "ticks": 85632,
          "time": 69.6875,
          "velocity": 0.3937007874015748
        },
        {
          "duration": 0.078125,
          "durationTicks": 96,
          "midi": 77,
          "name": "F5",
          "ticks": 85824,
          "time": 69.84375,
          "velocity": 0.3937007874015748
        },
        {
          "duration": 0.078125,
          "durationTicks": 96,
          "midi": 75,
          "name": "D#5",
          "ticks": 86016,
          "time": 70,
          "velocity": 0.3937007874015748
        },
        {
          "duration": 0.078125,
          "durationTicks": 96,
          "midi": 70,
          "name": "A#4",
          "ticks": 86208,
          "time": 70.15625,
          "velocity": 0.3937007874015748
        },
        {
          "duration": 0.078125,
          "durationTicks": 96,
          "midi": 75,
          "name": "D#5",
          "ticks": 86400,
          "time": 70.3125,
          "velocity": 0.3937007874015748
        },
        {
          "duration": 0.078125,
          "durationTicks": 96,
          "midi": 79,
          "name": "G5",
          "ticks": 86592,
          "time": 70.46875,
          "velocity": 0.3937007874015748
        },
        {
          "duration": 0.078125,
          "durationTicks": 96,
          "midi": 82,
          "name": "A#5",
          "ticks": 86784,
          "time": 70.625,
          "velocity": 0.3937007874015748
        },
        {
          "duration": 0.078125,
          "durationTicks": 96,
          "midi": 79,
          "name": "G5",
          "ticks": 86976,
          "time": 70.78125,
          "velocity": 0.3937007874015748
        },
        {
          "duration": 0.078125,
          "durationTicks": 96,
          "midi": 75,
          "name": "D#5",
          "ticks": 87168,
          "time": 70.9375,
          "velocity": 0.3937007874015748
        },
        {
          "duration": 0.078125,
          "durationTicks": 96,
          "midi": 70,
          "name": "A#4",
          "ticks": 87360,
          "time": 71.09375,
          "velocity": 0.3937007874015748
        },
        {
          "duration": 0.078125,
          "durationTicks": 96,
          "midi": 80,
          "name": "G#5",
          "ticks": 87552,
          "time": 71.25,
          "velocity": 0.3937007874015748
        },
        {
          "duration": 0.078125,
          "durationTicks": 96,
          "midi": 77,
          "name": "F5",
          "ticks": 87744,
          "time": 71.40625,
          "velocity": 0.3937007874015748
        },
        {
          "duration": 0.078125,
          "durationTicks": 96,
          "midi": 72,
          "name": "C5",
          "ticks": 87936,
          "time": 71.5625,
          "velocity": 0.3937007874015748
        },
        {
          "duration": 0.078125,
          "durationTicks": 96,
          "midi": 77,
          "name": "F5",
          "ticks": 88128,
          "time": 71.71875,
          "velocity": 0.3937007874015748
        },
        {
          "duration": 0.078125,
          "durationTicks": 96,
          "midi": 74,
          "name": "D5",
          "ticks": 88320,
          "time": 71.875,
          "velocity": 0.3937007874015748
        },
        {
          "duration": 0.078125,
          "durationTicks": 96,
          "midi": 71,
          "name": "B4",
          "ticks": 88512,
          "time": 72.03125,
          "velocity": 0.3937007874015748
        },
        {
          "duration": 0.078125,
          "durationTicks": 96,
          "midi": 74,
          "name": "D5",
          "ticks": 88704,
          "time": 72.1875,
          "velocity": 0.3937007874015748
        },
        {
          "duration": 0.078125,
          "durationTicks": 96,
          "midi": 79,
          "name": "G5",
          "ticks": 88896,
          "time": 72.34375,
          "velocity": 0.3937007874015748
        },
        {
          "duration": 0.078125,
          "durationTicks": 96,
          "midi": 72,
          "name": "C5",
          "ticks": 89088,
          "time": 72.5,
          "velocity": 0.3937007874015748
        },
        {
          "duration": 0.078125,
          "durationTicks": 96,
          "midi": 75,
          "name": "D#5",
          "ticks": 89280,
          "time": 72.65625,
          "velocity": 0.3937007874015748
        },
        {
          "duration": 0.078125,
          "durationTicks": 96,
          "midi": 79,
          "name": "G5",
          "ticks": 89472,
          "time": 72.8125,
          "velocity": 0.3937007874015748
        },
        {
          "duration": 0.078125,
          "durationTicks": 96,
          "midi": 75,
          "name": "D#5",
          "ticks": 89664,
          "time": 72.96875,
          "velocity": 0.3937007874015748
        },
        {
          "duration": 0.078125,
          "durationTicks": 96,
          "midi": 72,
          "name": "C5",
          "ticks": 89856,
          "time": 73.125,
          "velocity": 0.3937007874015748
        },
        {
          "duration": 0.078125,
          "durationTicks": 96,
          "midi": 77,
          "name": "F5",
          "ticks": 90048,
          "time": 73.28125,
          "velocity": 0.3937007874015748
        },
        {
          "duration": 0.078125,
          "durationTicks": 96,
          "midi": 81,
          "name": "A5",
          "ticks": 90240,
          "time": 73.4375,
          "velocity": 0.3937007874015748
        },
        {
          "duration": 0.078125,
          "durationTicks": 96,
          "midi": 77,
          "name": "F5",
          "ticks": 90432,
          "time": 73.59375,
          "velocity": 0.3937007874015748
        },
        {
          "duration": 0.078125,
          "durationTicks": 96,
          "midi": 75,
          "name": "D#5",
          "ticks": 90624,
          "time": 73.75,
          "velocity": 0.3937007874015748
        },
        {
          "duration": 0.078125,
          "durationTicks": 96,
          "midi": 78,
          "name": "F#5",
          "ticks": 90816,
          "time": 73.90625,
          "velocity": 0.3937007874015748
        },
        {
          "duration": 0.078125,
          "durationTicks": 96,
          "midi": 81,
          "name": "A5",
          "ticks": 91008,
          "time": 74.0625,
          "velocity": 0.3937007874015748
        },
        {
          "duration": 0.078125,
          "durationTicks": 96,
          "midi": 78,
          "name": "F#5",
          "ticks": 91200,
          "time": 74.21875,
          "velocity": 0.3937007874015748
        },
        {
          "duration": 0.078125,
          "durationTicks": 96,
          "midi": 71,
          "name": "B4",
          "ticks": 91392,
          "time": 74.375,
          "velocity": 0.3937007874015748
        },
        {
          "duration": 0.078125,
          "durationTicks": 96,
          "midi": 74,
          "name": "D5",
          "ticks": 91584,
          "time": 74.53125,
          "velocity": 0.3937007874015748
        },
        {
          "duration": 0.078125,
          "durationTicks": 96,
          "midi": 79,
          "name": "G5",
          "ticks": 91776,
          "time": 74.6875,
          "velocity": 0.3937007874015748
        },
        {
          "duration": 0.078125,
          "durationTicks": 96,
          "midi": 74,
          "name": "D5",
          "ticks": 91968,
          "time": 74.84375,
          "velocity": 0.3937007874015748
        },
        {
          "duration": 0.078125,
          "durationTicks": 96,
          "midi": 72,
          "name": "C5",
          "ticks": 92160,
          "time": 75,
          "velocity": 0.3937007874015748
        },
        {
          "duration": 0.078125,
          "durationTicks": 96,
          "midi": 67,
          "name": "G4",
          "ticks": 92352,
          "time": 75.15625,
          "velocity": 0.3937007874015748
        },
        {
          "duration": 0.078125,
          "durationTicks": 96,
          "midi": 72,
          "name": "C5",
          "ticks": 92544,
          "time": 75.3125,
          "velocity": 0.3937007874015748
        },
        {
          "duration": 0.078125,
          "durationTicks": 96,
          "midi": 75,
          "name": "D#5",
          "ticks": 92736,
          "time": 75.46875,
          "velocity": 0.3937007874015748
        },
        {
          "duration": 0.078125,
          "durationTicks": 96,
          "midi": 79,
          "name": "G5",
          "ticks": 92928,
          "time": 75.625,
          "velocity": 0.3937007874015748
        },
        {
          "duration": 0.078125,
          "durationTicks": 96,
          "midi": 75,
          "name": "D#5",
          "ticks": 93120,
          "time": 75.78125,
          "velocity": 0.3937007874015748
        },
        {
          "duration": 0.078125,
          "durationTicks": 96,
          "midi": 72,
          "name": "C5",
          "ticks": 93312,
          "time": 75.9375,
          "velocity": 0.3937007874015748
        },
        {
          "duration": 0.078125,
          "durationTicks": 96,
          "midi": 67,
          "name": "G4",
          "ticks": 93504,
          "time": 76.09375,
          "velocity": 0.3937007874015748
        },
        {
          "duration": 0.078125,
          "durationTicks": 96,
          "midi": 80,
          "name": "G#5",
          "ticks": 93696,
          "time": 76.25,
          "velocity": 0.3937007874015748
        },
        {
          "duration": 0.078125,
          "durationTicks": 96,
          "midi": 77,
          "name": "F5",
          "ticks": 93888,
          "time": 76.40625,
          "velocity": 0.3937007874015748
        },
        {
          "duration": 0.078125,
          "durationTicks": 96,
          "midi": 72,
          "name": "C5",
          "ticks": 94080,
          "time": 76.5625,
          "velocity": 0.3937007874015748
        },
        {
          "duration": 0.078125,
          "durationTicks": 96,
          "midi": 77,
          "name": "F5",
          "ticks": 94272,
          "time": 76.71875,
          "velocity": 0.3937007874015748
        },
        {
          "duration": 0.078125,
          "durationTicks": 96,
          "midi": 74,
          "name": "D5",
          "ticks": 94464,
          "time": 76.875,
          "velocity": 0.3937007874015748
        },
        {
          "duration": 0.078125,
          "durationTicks": 96,
          "midi": 71,
          "name": "B4",
          "ticks": 94656,
          "time": 77.03125,
          "velocity": 0.3937007874015748
        },
        {
          "duration": 0.078125,
          "durationTicks": 96,
          "midi": 74,
          "name": "D5",
          "ticks": 94848,
          "time": 77.1875,
          "velocity": 0.3937007874015748
        },
        {
          "duration": 0.078125,
          "durationTicks": 96,
          "midi": 79,
          "name": "G5",
          "ticks": 95040,
          "time": 77.34375,
          "velocity": 0.3937007874015748
        },
        {
          "duration": 0.078125,
          "durationTicks": 96,
          "midi": 72,
          "name": "C5",
          "ticks": 95232,
          "time": 77.5,
          "velocity": 0.3937007874015748
        },
        {
          "duration": 0.078125,
          "durationTicks": 96,
          "midi": 75,
          "name": "D#5",
          "ticks": 95424,
          "time": 77.65625,
          "velocity": 0.3937007874015748
        },
        {
          "duration": 0.078125,
          "durationTicks": 96,
          "midi": 79,
          "name": "G5",
          "ticks": 95616,
          "time": 77.8125,
          "velocity": 0.3937007874015748
        },
        {
          "duration": 0.078125,
          "durationTicks": 96,
          "midi": 75,
          "name": "D#5",
          "ticks": 95808,
          "time": 77.96875,
          "velocity": 0.3937007874015748
        },
        {
          "duration": 0.078125,
          "durationTicks": 96,
          "midi": 72,
          "name": "C5",
          "ticks": 96000,
          "time": 78.125,
          "velocity": 0.3937007874015748
        },
        {
          "duration": 0.078125,
          "durationTicks": 96,
          "midi": 77,
          "name": "F5",
          "ticks": 96192,
          "time": 78.28125,
          "velocity": 0.3937007874015748
        },
        {
          "duration": 0.078125,
          "durationTicks": 96,
          "midi": 81,
          "name": "A5",
          "ticks": 96384,
          "time": 78.4375,
          "velocity": 0.3937007874015748
        },
        {
          "duration": 0.078125,
          "durationTicks": 96,
          "midi": 77,
          "name": "F5",
          "ticks": 96576,
          "time": 78.59375,
          "velocity": 0.3937007874015748
        },
        {
          "duration": 0.078125,
          "durationTicks": 96,
          "midi": 75,
          "name": "D#5",
          "ticks": 96768,
          "time": 78.75,
          "velocity": 0.3937007874015748
        },
        {
          "duration": 0.078125,
          "durationTicks": 96,
          "midi": 78,
          "name": "F#5",
          "ticks": 96960,
          "time": 78.90625,
          "velocity": 0.3937007874015748
        },
        {
          "duration": 0.078125,
          "durationTicks": 96,
          "midi": 81,
          "name": "A5",
          "ticks": 97152,
          "time": 79.0625,
          "velocity": 0.3937007874015748
        },
        {
          "duration": 0.078125,
          "durationTicks": 96,
          "midi": 78,
          "name": "F#5",
          "ticks": 97344,
          "time": 79.21875,
          "velocity": 0.3937007874015748
        },
        {
          "duration": 0.078125,
          "durationTicks": 96,
          "midi": 71,
          "name": "B4",
          "ticks": 97536,
          "time": 79.375,
          "velocity": 0.3937007874015748
        },
        {
          "duration": 0.078125,
          "durationTicks": 96,
          "midi": 74,
          "name": "D5",
          "ticks": 97728,
          "time": 79.53125,
          "velocity": 0.3937007874015748
        },
        {
          "duration": 0.078125,
          "durationTicks": 96,
          "midi": 79,
          "name": "G5",
          "ticks": 97920,
          "time": 79.6875,
          "velocity": 0.3937007874015748
        },
        {
          "duration": 0.078125,
          "durationTicks": 96,
          "midi": 74,
          "name": "D5",
          "ticks": 98112,
          "time": 79.84375,
          "velocity": 0.3937007874015748
        },
        {
          "duration": 0.078125,
          "durationTicks": 96,
          "midi": 72,
          "name": "C5",
          "ticks": 98304,
          "time": 80,
          "velocity": 0.3937007874015748
        },
        {
          "duration": 0.078125,
          "durationTicks": 96,
          "midi": 67,
          "name": "G4",
          "ticks": 98496,
          "time": 80.15625,
          "velocity": 0.3937007874015748
        },
        {
          "duration": 0.078125,
          "durationTicks": 96,
          "midi": 72,
          "name": "C5",
          "ticks": 98688,
          "time": 80.3125,
          "velocity": 0.3937007874015748
        },
        {
          "duration": 0.078125,
          "durationTicks": 96,
          "midi": 75,
          "name": "D#5",
          "ticks": 98880,
          "time": 80.46875,
          "velocity": 0.3937007874015748
        },
        {
          "duration": 0.078125,
          "durationTicks": 96,
          "midi": 79,
          "name": "G5",
          "ticks": 99072,
          "time": 80.625,
          "velocity": 0.3937007874015748
        },
        {
          "duration": 0.078125,
          "durationTicks": 96,
          "midi": 75,
          "name": "D#5",
          "ticks": 99264,
          "time": 80.78125,
          "velocity": 0.3937007874015748
        },
        {
          "duration": 0.078125,
          "durationTicks": 96,
          "midi": 72,
          "name": "C5",
          "ticks": 99456,
          "time": 80.9375,
          "velocity": 0.3937007874015748
        },
        {
          "duration": 0.078125,
          "durationTicks": 96,
          "midi": 67,
          "name": "G4",
          "ticks": 99648,
          "time": 81.09375,
          "velocity": 0.3937007874015748
        },
        {
          "duration": 0.234375,
          "durationTicks": 288,
          "midi": 60,
          "name": "C4",
          "ticks": 99840,
          "time": 81.25,
          "velocity": 0.3937007874015748
        }
      ],
      "endOfTrackTicks": 100128
    }
  ]
}
