{
  "header": {
    "keySignatures": [],
    "meta": [],
    "name": "",
    "ppq": 384,
    "tempos": [
      {
        "bpm": 75,
        "ticks": 0
      }
    ],
    "timeSignatures": [
      {
        "ticks": 0,
        "timeSignature": [
          1,
          4
        ],
        "measures": 0
      }
    ]
  },
  "tracks": [
    {
      "channel": 0,
      "controlChanges": {},
      "pitchBends": [],
      "instrument": {
        "family": "world",
        "number": 107,
        "name": "koto"
      },
      "name": "Koto",
      "notes": [
        {
          "duration": 0.2,
          "durationTicks": 96,
          "midi": 39,
          "name": "D#2",
          "ticks": 0,
          "time": 0,
          "velocity": 0.5118110236220472
        },
        {
          "duration": 0.19999999999999996,
          "durationTicks": 96,
          "midi": 39,
          "name": "D#2",
          "ticks": 288,
          "time": 0.6000000000000001,
          "velocity": 0.5118110236220472
        },
        {
          "duration": 0.19999999999999996,
          "durationTicks": 96,
          "midi": 42,
          "name": "F#2",
          "ticks": 384,
          "time": 0.8,
          "velocity": 0.5118110236220472
        },
        {
          "duration": 0.19999999999999996,
          "durationTicks": 96,
          "midi": 42,
          "name": "F#2",
          "ticks": 672,
          "time": 1.4000000000000001,
          "velocity": 0.5118110236220472
        },
        {
          "duration": 0.19999999999999996,
          "durationTicks": 96,
          "midi": 39,
          "name": "D#2",
          "ticks": 768,
          "time": 1.6,
          "velocity": 0.5118110236220472
        },
        {
          "duration": 0.20000000000000018,
          "durationTicks": 96,
          "midi": 39,
          "name": "D#2",
          "ticks": 1056,
          "time": 2.2,
          "velocity": 0.5118110236220472
        },
        {
          "duration": 0.19999999999999973,
          "durationTicks": 96,
          "midi": 46,
          "name": "A#2",
          "ticks": 1152,
          "time": 2.4000000000000004,
          "velocity": 0.5118110236220472
        },
        {
          "duration": 0.20000000000000018,
          "durationTicks": 96,
          "midi": 46,
          "name": "A#2",
          "ticks": 1440,
          "time": 3,
          "velocity": 0.5118110236220472
        },
        {
          "duration": 0.20000000000000018,
          "durationTicks": 96,
          "midi": 37,
          "name": "C#2",
          "ticks": 1536,
          "time": 3.2,
          "velocity": 0.5118110236220472
        },
        {
          "duration": 0.19999999999999973,
          "durationTicks": 96,
          "midi": 37,
          "name": "C#2",
          "ticks": 1824,
          "time": 3.8000000000000003,
          "velocity": 0.5118110236220472
        },
        {
          "duration": 0.20000000000000018,
          "durationTicks": 96,
          "midi": 41,
          "name": "F2",
          "ticks": 1920,
          "time": 4,
          "velocity": 0.5118110236220472
        },
        {
          "duration": 0.20000000000000018,
          "durationTicks": 96,
          "midi": 41,
          "name": "F2",
          "ticks": 2208,
          "time": 4.6000000000000005,
          "velocity": 0.5118110236220472
        },
        {
          "duration": 0.1999999999999993,
          "durationTicks": 96,
          "midi": 37,
          "name": "C#2",
          "ticks": 2304,
          "time": 4.800000000000001,
          "velocity": 0.5118110236220472
        },
        {
          "duration": 0.20000000000000018,
          "durationTicks": 96,
          "midi": 37,
          "name": "C#2",
          "ticks": 2592,
          "time": 5.4,
          "velocity": 0.5118110236220472
        },
        {
          "duration": 0.20000000000000018,
          "durationTicks": 96,
          "midi": 44,
          "name": "G#2",
          "ticks": 2688,
          "time": 5.6000000000000005,
          "velocity": 0.5118110236220472
        },
        {
          "duration": 0.20000000000000018,
          "durationTicks": 96,
          "midi": 44,
          "name": "G#2",
          "ticks": 2976,
          "time": 6.2,
          "velocity": 0.5118110236220472
        },
        {
          "duration": 0.20000000000000018,
          "durationTicks": 96,
          "midi": 35,
          "name": "B1",
          "ticks": 3072,
          "time": 6.4,
          "velocity": 0.5118110236220472
        },
        {
          "duration": 0.20000000000000018,
          "durationTicks": 96,
          "midi": 35,
          "name": "B1",
          "ticks": 3360,
          "time": 7,
          "velocity": 0.5118110236220472
        },
        {
          "duration": 0.20000000000000018,
          "durationTicks": 96,
          "midi": 39,
          "name": "D#2",
          "ticks": 3456,
          "time": 7.2,
          "velocity": 0.5118110236220472
        },
        {
          "duration": 0.1999999999999993,
          "durationTicks": 96,
          "midi": 39,
          "name": "D#2",
          "ticks": 3744,
          "time": 7.800000000000001,
          "velocity": 0.5118110236220472
        },
        {
          "duration": 0.20000000000000107,
          "durationTicks": 96,
          "midi": 35,
          "name": "B1",
          "ticks": 3840,
          "time": 8,
          "velocity": 0.5118110236220472
        },
        {
          "duration": 0.20000000000000107,
          "durationTicks": 96,
          "midi": 35,
          "name": "B1",
          "ticks": 4128,
          "time": 8.6,
          "velocity": 0.5118110236220472
        },
        {
          "duration": 0.1999999999999993,
          "durationTicks": 96,
          "midi": 42,
          "name": "F#2",
          "ticks": 4224,
          "time": 8.8,
          "velocity": 0.5118110236220472
        },
        {
          "duration": 0.20000000000000107,
          "durationTicks": 96,
          "midi": 42,
          "name": "F#2",
          "ticks": 4512,
          "time": 9.4,
          "velocity": 0.5118110236220472
        },
        {
          "duration": 0.1999999999999993,
          "durationTicks": 96,
          "midi": 34,
          "name": "A#1",
          "ticks": 4608,
          "time": 9.600000000000001,
          "velocity": 0.5118110236220472
        },
        {
          "duration": 0.1999999999999993,
          "durationTicks": 96,
          "midi": 34,
          "name": "A#1",
          "ticks": 4896,
          "time": 10.200000000000001,
          "velocity": 0.5118110236220472
        },
        {
          "duration": 0.20000000000000107,
          "durationTicks": 96,
          "midi": 38,
          "name": "D2",
          "ticks": 4992,
          "time": 10.4,
          "velocity": 0.5118110236220472
        },
        {
          "duration": 0.20000000000000107,
          "durationTicks": 96,
          "midi": 38,
          "name": "D2",
          "ticks": 5280,
          "time": 11,
          "velocity": 0.5118110236220472
        },
        {
          "duration": 0.1999999999999993,
          "durationTicks": 96,
          "midi": 34,
          "name": "A#1",
          "ticks": 5376,
          "time": 11.200000000000001,
          "velocity": 0.5118110236220472
        },
        {
          "duration": 0.1999999999999993,
          "durationTicks": 96,
          "midi": 34,
          "name": "A#1",
          "ticks": 5664,
          "time": 11.8,
          "velocity": 0.5118110236220472
        },
        {
          "duration": 0.20000000000000107,
          "durationTicks": 96,
          "midi": 41,
          "name": "F2",
          "ticks": 5760,
          "time": 12,
          "velocity": 0.5118110236220472
        },
        {
          "duration": 0.1999999999999993,
          "durationTicks": 96,
          "midi": 41,
          "name": "F2",
          "ticks": 6048,
          "time": 12.600000000000001,
          "velocity": 0.5118110236220472
        },
        {
          "duration": 0.1999999999999993,
          "durationTicks": 96,
          "midi": 39,
          "name": "D#2",
          "ticks": 6144,
          "time": 12.8,
          "velocity": 0.5118110236220472
        },
        {
          "duration": 0.20000000000000107,
          "durationTicks": 96,
          "midi": 39,
          "name": "D#2",
          "ticks": 6432,
          "time": 13.4,
          "velocity": 0.5118110236220472
        },
        {
          "duration": 0.1999999999999993,
          "durationTicks": 96,
          "midi": 42,
          "name": "F#2",
          "ticks": 6528,
          "time": 13.600000000000001,
          "velocity": 0.5118110236220472
        },
        {
          "duration": 0.1999999999999993,
          "durationTicks": 96,
          "midi": 42,
          "name": "F#2",
          "ticks": 6816,
          "time": 14.200000000000001,
          "velocity": 0.5118110236220472
        },
        {
          "duration": 0.20000000000000107,
          "durationTicks": 96,
          "midi": 39,
          "name": "D#2",
          "ticks": 6912,
          "time": 14.4,
          "velocity": 0.5118110236220472
        },
        {
          "duration": 0.20000000000000107,
          "durationTicks": 96,
          "midi": 39,
          "name": "D#2",
          "ticks": 7200,
          "time": 15,
          "velocity": 0.5118110236220472
        },
        {
          "duration": 0.1999999999999993,
          "durationTicks": 96,
          "midi": 46,
          "name": "A#2",
          "ticks": 7296,
          "time": 15.200000000000001,
          "velocity": 0.5118110236220472
        },
        {
          "duration": 0.1999999999999993,
          "durationTicks": 96,
          "midi": 46,
          "name": "A#2",
          "ticks": 7584,
          "time": 15.8,
          "velocity": 0.5118110236220472
        },
        {
          "duration": 0.1999999999999993,
          "durationTicks": 96,
          "midi": 37,
          "name": "C#2",
          "ticks": 7680,
          "time": 16,
          "velocity": 0.5118110236220472
        },
        {
          "duration": 0.1999999999999993,
          "durationTicks": 96,
          "midi": 37,
          "name": "C#2",
          "ticks": 7968,
          "time": 16.6,
          "velocity": 0.5118110236220472
        },
        {
          "duration": 0.1999999999999993,
          "durationTicks": 96,
          "midi": 41,
          "name": "F2",
          "ticks": 8064,
          "time": 16.8,
          "velocity": 0.5118110236220472
        },
        {
          "duration": 0.1999999999999993,
          "durationTicks": 96,
          "midi": 41,
          "name": "F2",
          "ticks": 8352,
          "time": 17.400000000000002,
          "velocity": 0.5118110236220472
        },
        {
          "duration": 0.1999999999999993,
          "durationTicks": 96,
          "midi": 37,
          "name": "C#2",
          "ticks": 8448,
          "time": 17.6,
          "velocity": 0.5118110236220472
        },
        {
          "duration": 0.20000000000000284,
          "durationTicks": 96,
          "midi": 37,
          "name": "C#2",
          "ticks": 8736,
          "time": 18.2,
          "velocity": 0.5118110236220472
        },
        {
          "duration": 0.1999999999999993,
          "durationTicks": 96,
          "midi": 44,
          "name": "G#2",
          "ticks": 8832,
          "time": 18.400000000000002,
          "velocity": 0.5118110236220472
        },
        {
          "duration": 0.20000000000000284,
          "durationTicks": 96,
          "midi": 44,
          "name": "G#2",
          "ticks": 9120,
          "time": 19,
          "velocity": 0.5118110236220472
        },
        {
          "duration": 0.1999999999999993,
          "durationTicks": 96,
          "midi": 35,
          "name": "B1",
          "ticks": 9216,
          "time": 19.200000000000003,
          "velocity": 0.5118110236220472
        },
        {
          "duration": 0.1999999999999993,
          "durationTicks": 96,
          "midi": 35,
          "name": "B1",
          "ticks": 9504,
          "time": 19.8,
          "velocity": 0.5118110236220472
        },
        {
          "duration": 0.20000000000000284,
          "durationTicks": 96,
          "midi": 39,
          "name": "D#2",
          "ticks": 9600,
          "time": 20,
          "velocity": 0.5118110236220472
        },
        {
          "duration": 0.1999999999999993,
          "durationTicks": 96,
          "midi": 39,
          "name": "D#2",
          "ticks": 9888,
          "time": 20.6,
          "velocity": 0.5118110236220472
        },
        {
          "duration": 0.1999999999999993,
          "durationTicks": 96,
          "midi": 35,
          "name": "B1",
          "ticks": 9984,
          "time": 20.8,
          "velocity": 0.5118110236220472
        },
        {
          "duration": 0.1999999999999993,
          "durationTicks": 96,
          "midi": 35,
          "name": "B1",
          "ticks": 10272,
          "time": 21.400000000000002,
          "velocity": 0.5118110236220472
        },
        {
          "duration": 0.1999999999999993,
          "durationTicks": 96,
          "midi": 42,
          "name": "F#2",
          "ticks": 10368,
          "time": 21.6,
          "velocity": 0.5118110236220472
        },
        {
          "duration": 0.1999999999999993,
          "durationTicks": 96,
          "midi": 42,
          "name": "F#2",
          "ticks": 10656,
          "time": 22.200000000000003,
          "velocity": 0.5118110236220472
        },
        {
          "duration": 0.1999999999999993,
          "durationTicks": 96,
          "midi": 34,
          "name": "A#1",
          "ticks": 10752,
          "time": 22.400000000000002,
          "velocity": 0.5118110236220472
        },
        {
          "duration": 0.20000000000000284,
          "durationTicks": 96,
          "midi": 34,
          "name": "A#1",
          "ticks": 11040,
          "time": 23,
          "velocity": 0.5118110236220472
        },
        {
          "duration": 0.1999999999999993,
          "durationTicks": 96,
          "midi": 38,
          "name": "D2",
          "ticks": 11136,
          "time": 23.200000000000003,
          "velocity": 0.5118110236220472
        },
        {
          "duration": 0.1999999999999993,
          "durationTicks": 96,
          "midi": 38,
          "name": "D2",
          "ticks": 11424,
          "time": 23.8,
          "velocity": 0.5118110236220472
        },
        {
          "duration": 0.20000000000000284,
          "durationTicks": 96,
          "midi": 34,
          "name": "A#1",
          "ticks": 11520,
          "time": 24,
          "velocity": 0.5118110236220472
        },
        {
          "duration": 0.1999999999999993,
          "durationTicks": 96,
          "midi": 34,
          "name": "A#1",
          "ticks": 11808,
          "time": 24.6,
          "velocity": 0.5118110236220472
        },
        {
          "duration": 0.1999999999999993,
          "durationTicks": 96,
          "midi": 41,
          "name": "F2",
          "ticks": 11904,
          "time": 24.8,
          "velocity": 0.5118110236220472
        },
        {
          "duration": 0.1999999999999993,
          "durationTicks": 96,
          "midi": 41,
          "name": "F2",
          "ticks": 12192,
          "time": 25.400000000000002,
          "velocity": 0.5118110236220472
        },
        {
          "duration": 0.1999999999999993,
          "durationTicks": 96,
          "midi": 39,
          "name": "D#2",
          "ticks": 12288,
          "time": 25.6,
          "velocity": 0.5118110236220472
        },
        {
          "duration": 0.1999999999999993,
          "durationTicks": 96,
          "midi": 39,
          "name": "D#2",
          "ticks": 12576,
          "time": 26.200000000000003,
          "velocity": 0.5118110236220472
        },
        {
          "duration": 0.1999999999999993,
          "durationTicks": 96,
          "midi": 42,
          "name": "F#2",
          "ticks": 12672,
          "time": 26.400000000000002,
          "velocity": 0.5118110236220472
        },
        {
          "duration": 0.20000000000000284,
          "durationTicks": 96,
          "midi": 42,
          "name": "F#2",
          "ticks": 12960,
          "time": 27,
          "velocity": 0.5118110236220472
        },
        {
          "duration": 0.1999999999999993,
          "durationTicks": 96,
          "midi": 44,
          "name": "G#2",
          "ticks": 13056,
          "time": 27.200000000000003,
          "velocity": 0.5118110236220472
        },
        {
          "duration": 0.1999999999999993,
          "durationTicks": 96,
          "midi": 44,
          "name": "G#2",
          "ticks": 13344,
          "time": 27.8,
          "velocity": 0.5118110236220472
        },
        {
          "duration": 0.20000000000000284,
          "durationTicks": 96,
          "midi": 41,
          "name": "F2",
          "ticks": 13440,
          "time": 28,
          "velocity": 0.5118110236220472
        },
        {
          "duration": 0.1999999999999993,
          "durationTicks": 96,
          "midi": 41,
          "name": "F2",
          "ticks": 13728,
          "time": 28.6,
          "velocity": 0.5118110236220472
        },
        {
          "duration": 0.1999999999999993,
          "durationTicks": 96,
          "midi": 39,
          "name": "D#2",
          "ticks": 13824,
          "time": 28.8,
          "velocity": 0.5118110236220472
        }
      ],
      "endOfTrackTicks": 13920
    },
    {
      "channel": 1,
      "controlChanges": {},
      "pitchBends": [],
      "instrument": {
        "family": "chromatic percussion",
        "number": 11,
        "name": "vibraphone"
      },
      "name": "Vibraphone",
      "notes": [
        {
          "duration": 0.2,
          "durationTicks": 96,
          "midi": 63,
          "name": "D#4",
          "ticks": 0,
          "time": 0,
          "velocity": 0.3464566929133858
        },
        {
          "duration": 0.20000000000000007,
          "durationTicks": 96,
          "midi": 70,
          "name": "A#4",
          "ticks": 192,
          "time": 0.4,
          "velocity": 0.3464566929133858
        },
        {
          "duration": 0.20000000000000007,
          "durationTicks": 96,
          "midi": 66,
          "name": "F#4",
          "ticks": 192,
          "time": 0.4,
          "velocity": 0.3464566929133858
        },
        {
          "duration": 0.19999999999999996,
          "durationTicks": 96,
          "midi": 63,
          "name": "D#4",
          "ticks": 384,
          "time": 0.8,
          "velocity": 0.3464566929133858
        },
        {
          "duration": 0.20000000000000018,
          "durationTicks": 96,
          "midi": 66,
          "name": "F#4",
          "ticks": 480,
          "time": 1,
          "velocity": 0.3464566929133858
        },
        {
          "duration": 0.20000000000000018,
          "durationTicks": 96,
          "midi": 70,
          "name": "A#4",
          "ticks": 480,
          "time": 1,
          "velocity": 0.3464566929133858
        },
        {
          "duration": 0.19999999999999996,
          "durationTicks": 96,
          "midi": 63,
          "name": "D#4",
          "ticks": 672,
          "time": 1.4000000000000001,
          "velocity": 0.3464566929133858
        },
        {
          "duration": 0.19999999999999996,
          "durationTicks": 96,
          "midi": 70,
          "name": "A#4",
          "ticks": 864,
          "time": 1.8,
          "velocity": 0.3464566929133858
        },
        {
          "duration": 0.19999999999999996,
          "durationTicks": 96,
          "midi": 66,
          "name": "F#4",
          "ticks": 864,
          "time": 1.8,
          "velocity": 0.3464566929133858
        },
        {
          "duration": 0.20000000000000018,
          "durationTicks": 96,
          "midi": 63,
          "name": "D#4",
          "ticks": 1056,
          "time": 2.2,
          "velocity": 0.3464566929133858
        },
        {
          "duration": 0.19999999999999973,
          "durationTicks": 96,
          "midi": 63,
          "name": "D#4",
          "ticks": 1152,
          "time": 2.4000000000000004,
          "velocity": 0.3464566929133858
        },
        {
          "duration": 0.19999999999999973,
          "durationTicks": 96,
          "midi": 66,
          "name": "F#4",
          "ticks": 1344,
          "time": 2.8000000000000003,
          "velocity": 0.3464566929133858
        },
        {
          "duration": 0.19999999999999973,
          "durationTicks": 96,
          "midi": 70,
          "name": "A#4",
          "ticks": 1344,
          "time": 2.8000000000000003,
          "velocity": 0.3464566929133858
        },
        {
          "duration": 0.20000000000000018,
          "durationTicks": 96,
          "midi": 61,
          "name": "C#4",
          "ticks": 1536,
          "time": 3.2,
          "velocity": 0.3464566929133858
        },
        {
          "duration": 0.20000000000000018,
          "durationTicks": 96,
          "midi": 68,
          "name": "G#4",
          "ticks": 1728,
          "time": 3.6,
          "velocity": 0.3464566929133858
        },
        {
          "duration": 0.20000000000000018,
          "durationTicks": 96,
          "midi": 65,
          "name": "F4",
          "ticks": 1728,
          "time": 3.6,
          "velocity": 0.3464566929133858
        },
        {
          "duration": 0.20000000000000018,
          "durationTicks": 96,
          "midi": 61,
          "name": "C#4",
          "ticks": 1920,
          "time": 4,
          "velocity": 0.3464566929133858
        },
        {
          "duration": 0.20000000000000018,
          "durationTicks": 96,
          "midi": 65,
          "name": "F4",
          "ticks": 2016,
          "time": 4.2,
          "velocity": 0.3464566929133858
        },
        {
          "duration": 0.20000000000000018,
          "durationTicks": 96,
          "midi": 68,
          "name": "G#4",
          "ticks": 2016,
          "time": 4.2,
          "velocity": 0.3464566929133858
        },
        {
          "duration": 0.20000000000000018,
          "durationTicks": 96,
          "midi": 61,
          "name": "C#4",
          "ticks": 2208,
          "time": 4.6000000000000005,
          "velocity": 0.3464566929133858
        },
        {
          "duration": 0.20000000000000018,
          "durationTicks": 96,
          "midi": 65,
          "name": "F4",
          "ticks": 2400,
          "time": 5,
          "velocity": 0.3464566929133858
        },
        {
          "duration": 0.20000000000000018,
          "durationTicks": 96,
          "midi": 68,
          "name": "G#4",
          "ticks": 2400,
          "time": 5,
          "velocity": 0.3464566929133858
        },
        {
          "duration": 0.20000000000000018,
          "durationTicks": 96,
          "midi": 61,
          "name": "C#4",
          "ticks": 2592,
          "time": 5.4,
          "velocity": 0.3464566929133858
        },
        {
          "duration": 0.20000000000000018,
          "durationTicks": 96,
          "midi": 61,
          "name": "C#4",
          "ticks": 2688,
          "time": 5.6000000000000005,
          "velocity": 0.3464566929133858
        },
        {
          "duration": 0.20000000000000018,
          "durationTicks": 96,
          "midi": 65,
          "name": "F4",
          "ticks": 2880,
          "time": 6,
          "velocity": 0.3464566929133858
        },
        {
          "duration": 0.20000000000000018,
          "durationTicks": 96,
          "midi": 68,
          "name": "G#4",
          "ticks": 2880,
          "time": 6,
          "velocity": 0.3464566929133858
        },
        {
          "duration": 0.20000000000000018,
          "durationTicks": 96,
          "midi": 59,
          "name": "B3",
          "ticks": 3072,
          "time": 6.4,
          "velocity": 0.3464566929133858
        },
        {
          "duration": 0.1999999999999993,
          "durationTicks": 96,
          "midi": 66,
          "name": "F#4",
          "ticks": 3264,
          "time": 6.800000000000001,
          "velocity": 0.3464566929133858
        },
        {
          "duration": 0.1999999999999993,
          "durationTicks": 96,
          "midi": 63,
          "name": "D#4",
          "ticks": 3264,
          "time": 6.800000000000001,
          "velocity": 0.3464566929133858
        },
        {
          "duration": 0.20000000000000018,
          "durationTicks": 96,
          "midi": 59,
          "name": "B3",
          "ticks": 3456,
          "time": 7.2,
          "velocity": 0.3464566929133858
        },
        {
          "duration": 0.20000000000000018,
          "durationTicks": 96,
          "midi": 66,
          "name": "F#4",
          "ticks": 3552,
          "time": 7.4,
          "velocity": 0.3464566929133858
        },
        {
          "duration": 0.20000000000000018,
          "durationTicks": 96,
          "midi": 63,
          "name": "D#4",
          "ticks": 3552,
          "time": 7.4,
          "velocity": 0.3464566929133858
        },
        {
          "duration": 0.1999999999999993,
          "durationTicks": 96,
          "midi": 59,
          "name": "B3",
          "ticks": 3744,
          "time": 7.800000000000001,
          "velocity": 0.3464566929133858
        },
        {
          "duration": 0.1999999999999993,
          "durationTicks": 96,
          "midi": 63,
          "name": "D#4",
          "ticks": 3936,
          "time": 8.200000000000001,
          "velocity": 0.3464566929133858
        },
        {
          "duration": 0.1999999999999993,
          "durationTicks": 96,
          "midi": 66,
          "name": "F#4",
          "ticks": 3936,
          "time": 8.200000000000001,
          "velocity": 0.3464566929133858
        },
        {
          "duration": 0.20000000000000107,
          "durationTicks": 96,
          "midi": 59,
          "name": "B3",
          "ticks": 4128,
          "time": 8.6,
          "velocity": 0.3464566929133858
        },
        {
          "duration": 0.1999999999999993,
          "durationTicks": 96,
          "midi": 59,
          "name": "B3",
          "ticks": 4224,
          "time": 8.8,
          "velocity": 0.3464566929133858
        },
        {
          "duration": 0.1999999999999993,
          "durationTicks": 96,
          "midi": 63,
          "name": "D#4",
          "ticks": 4416,
          "time": 9.200000000000001,
          "velocity": 0.3464566929133858
        },
        {
          "duration": 0.1999999999999993,
          "durationTicks": 96,
          "midi": 66,
          "name": "F#4",
          "ticks": 4416,
          "time": 9.200000000000001,
          "velocity": 0.3464566929133858
        },
        {
          "duration": 0.1999999999999993,
          "durationTicks": 96,
          "midi": 58,
          "name": "A#3",
          "ticks": 4608,
          "time": 9.600000000000001,
          "velocity": 0.3464566929133858
        },
        {
          "duration": 0.20000000000000107,
          "durationTicks": 96,
          "midi": 68,
          "name": "G#4",
          "ticks": 4800,
          "time": 10,
          "velocity": 0.3464566929133858
        },
        {
          "duration": 0.20000000000000107,
          "durationTicks": 96,
          "midi": 62,
          "name": "D4",
          "ticks": 4800,
          "time": 10,
          "velocity": 0.3464566929133858
        },
        {
          "duration": 0.20000000000000107,
          "durationTicks": 96,
          "midi": 58,
          "name": "A#3",
          "ticks": 4992,
          "time": 10.4,
          "velocity": 0.3464566929133858
        },
        {
          "duration": 0.1999999999999993,
          "durationTicks": 96,
          "midi": 68,
          "name": "G#4",
          "ticks": 5088,
          "time": 10.600000000000001,
          "velocity": 0.3464566929133858
        },
        {
          "duration": 0.1999999999999993,
          "durationTicks": 96,
          "midi": 62,
          "name": "D4",
          "ticks": 5088,
          "time": 10.600000000000001,
          "velocity": 0.3464566929133858
        },
        {
          "duration": 0.20000000000000107,
          "durationTicks": 96,
          "midi": 58,
          "name": "A#3",
          "ticks": 5280,
          "time": 11,
          "velocity": 0.3464566929133858
        },
        {
          "duration": 0.20000000000000107,
          "durationTicks": 96,
          "midi": 62,
          "name": "D4",
          "ticks": 5472,
          "time": 11.4,
          "velocity": 0.3464566929133858
        },
        {
          "duration": 0.20000000000000107,
          "durationTicks": 96,
          "midi": 65,
          "name": "F4",
          "ticks": 5472,
          "time": 11.4,
          "velocity": 0.3464566929133858
        },
        {
          "duration": 0.1999999999999993,
          "durationTicks": 96,
          "midi": 58,
          "name": "A#3",
          "ticks": 5664,
          "time": 11.8,
          "velocity": 0.3464566929133858
        },
        {
          "duration": 0.20000000000000107,
          "durationTicks": 96,
          "midi": 58,
          "name": "A#3",
          "ticks": 5760,
          "time": 12,
          "velocity": 0.3464566929133858
        },
        {
          "duration": 0.20000000000000107,
          "durationTicks": 96,
          "midi": 62,
          "name": "D4",
          "ticks": 5952,
          "time": 12.4,
          "velocity": 0.3464566929133858
        },
        {
          "duration": 0.20000000000000107,
          "durationTicks": 96,
          "midi": 65,
          "name": "F4",
          "ticks": 5952,
          "time": 12.4,
          "velocity": 0.3464566929133858
        },
        {
          "duration": 0.1999999999999993,
          "durationTicks": 96,
          "midi": 63,
          "name": "D#4",
          "ticks": 6144,
          "time": 12.8,
          "velocity": 0.3464566929133858
        },
        {
          "duration": 0.1999999999999993,
          "durationTicks": 96,
          "midi": 66,
          "name": "F#4",
          "ticks": 6336,
          "time": 13.200000000000001,
          "velocity": 0.3464566929133858
        },
        {
          "duration": 0.1999999999999993,
          "durationTicks": 96,
          "midi": 70,
          "name": "A#4",
          "ticks": 6336,
          "time": 13.200000000000001,
          "velocity": 0.3464566929133858
        },
        {
          "duration": 0.1999999999999993,
          "durationTicks": 96,
          "midi": 63,
          "name": "D#4",
          "ticks": 6528,
          "time": 13.600000000000001,
          "velocity": 0.3464566929133858
        },
        {
          "duration": 0.1999999999999993,
          "durationTicks": 96,
          "midi": 70,
          "name": "A#4",
          "ticks": 6624,
          "time": 13.8,
          "velocity": 0.3464566929133858
        },
        {
          "duration": 0.1999999999999993,
          "durationTicks": 96,
          "midi": 66,
          "name": "F#4",
          "ticks": 6624,
          "time": 13.8,
          "velocity": 0.3464566929133858
        },
        {
          "duration": 0.1999999999999993,
          "durationTicks": 96,
          "midi": 63,
          "name": "D#4",
          "ticks": 6816,
          "time": 14.200000000000001,
          "velocity": 0.3464566929133858
        },
        {
          "duration": 0.1999999999999993,
          "durationTicks": 96,
          "midi": 66,
          "name": "F#4",
          "ticks": 7008,
          "time": 14.600000000000001,
          "velocity": 0.3464566929133858
        },
        {
          "duration": 0.1999999999999993,
          "durationTicks": 96,
          "midi": 70,
          "name": "A#4",
          "ticks": 7008,
          "time": 14.600000000000001,
          "velocity": 0.3464566929133858
        },
        {
          "duration": 0.20000000000000107,
          "durationTicks": 96,
          "midi": 63,
          "name": "D#4",
          "ticks": 7200,
          "time": 15,
          "velocity": 0.3464566929133858
        },
        {
          "duration": 0.1999999999999993,
          "durationTicks": 96,
          "midi": 63,
          "name": "D#4",
          "ticks": 7296,
          "time": 15.200000000000001,
          "velocity": 0.3464566929133858
        },
        {
          "duration": 0.1999999999999993,
          "durationTicks": 96,
          "midi": 66,
          "name": "F#4",
          "ticks": 7488,
          "time": 15.600000000000001,
          "velocity": 0.3464566929133858
        },
        {
          "duration": 0.1999999999999993,
          "durationTicks": 96,
          "midi": 70,
          "name": "A#4",
          "ticks": 7488,
          "time": 15.600000000000001,
          "velocity": 0.3464566929133858
        },
        {
          "duration": 0.1999999999999993,
          "durationTicks": 96,
          "midi": 61,
          "name": "C#4",
          "ticks": 7680,
          "time": 16,
          "velocity": 0.3464566929133858
        },
        {
          "duration": 0.1999999999999993,
          "durationTicks": 96,
          "midi": 65,
          "name": "F4",
          "ticks": 7872,
          "time": 16.400000000000002,
          "velocity": 0.3464566929133858
        },
        {
          "duration": 0.1999999999999993,
          "durationTicks": 96,
          "midi": 68,
          "name": "G#4",
          "ticks": 7872,
          "time": 16.400000000000002,
          "velocity": 0.3464566929133858
        },
        {
          "duration": 0.1999999999999993,
          "durationTicks": 96,
          "midi": 61,
          "name": "C#4",
          "ticks": 8064,
          "time": 16.8,
          "velocity": 0.3464566929133858
        },
        {
          "duration": 0.1999999999999993,
          "durationTicks": 96,
          "midi": 65,
          "name": "F4",
          "ticks": 8160,
          "time": 17,
          "velocity": 0.3464566929133858
        },
        {
          "duration": 0.1999999999999993,
          "durationTicks": 96,
          "midi": 68,
          "name": "G#4",
          "ticks": 8160,
          "time": 17,
          "velocity": 0.3464566929133858
        },
        {
          "duration": 0.1999999999999993,
          "durationTicks": 96,
          "midi": 61,
          "name": "C#4",
          "ticks": 8352,
          "time": 17.400000000000002,
          "velocity": 0.3464566929133858
        },
        {
          "duration": 0.1999999999999993,
          "durationTicks": 96,
          "midi": 65,
          "name": "F4",
          "ticks": 8544,
          "time": 17.8,
          "velocity": 0.3464566929133858
        },
        {
          "duration": 0.1999999999999993,
          "durationTicks": 96,
          "midi": 68,
          "name": "G#4",
          "ticks": 8544,
          "time": 17.8,
          "velocity": 0.3464566929133858
        },
        {
          "duration": 0.20000000000000284,
          "durationTicks": 96,
          "midi": 61,
          "name": "C#4",
          "ticks": 8736,
          "time": 18.2,
          "velocity": 0.3464566929133858
        },
        {
          "duration": 0.1999999999999993,
          "durationTicks": 96,
          "midi": 61,
          "name": "C#4",
          "ticks": 8832,
          "time": 18.400000000000002,
          "velocity": 0.3464566929133858
        },
        {
          "duration": 0.1999999999999993,
          "durationTicks": 96,
          "midi": 65,
          "name": "F4",
          "ticks": 9024,
          "time": 18.8,
          "velocity": 0.3464566929133858
        },
        {
          "duration": 0.1999999999999993,
          "durationTicks": 96,
          "midi": 68,
          "name": "G#4",
          "ticks": 9024,
          "time": 18.8,
          "velocity": 0.3464566929133858
        },
        {
          "duration": 0.1999999999999993,
          "durationTicks": 96,
          "midi": 59,
          "name": "B3",
          "ticks": 9216,
          "time": 19.200000000000003,
          "velocity": 0.3464566929133858
        },
        {
          "duration": 0.1999999999999993,
          "durationTicks": 96,
          "midi": 66,
          "name": "F#4",
          "ticks": 9408,
          "time": 19.6,
          "velocity": 0.3464566929133858
        },
        {
          "duration": 0.1999999999999993,
          "durationTicks": 96,
          "midi": 63,
          "name": "D#4",
          "ticks": 9408,
          "time": 19.6,
          "velocity": 0.3464566929133858
        },
        {
          "duration": 0.20000000000000284,
          "durationTicks": 96,
          "midi": 59,
          "name": "B3",
          "ticks": 9600,
          "time": 20,
          "velocity": 0.3464566929133858
        },
        {
          "duration": 0.1999999999999993,
          "durationTicks": 96,
          "midi": 66,
          "name": "F#4",
          "ticks": 9696,
          "time": 20.200000000000003,
          "velocity": 0.3464566929133858
        },
        {
          "duration": 0.1999999999999993,
          "durationTicks": 96,
          "midi": 63,
          "name": "D#4",
          "ticks": 9696,
          "time": 20.200000000000003,
          "velocity": 0.3464566929133858
        },
        {
          "duration": 0.1999999999999993,
          "durationTicks": 96,
          "midi": 59,
          "name": "B3",
          "ticks": 9888,
          "time": 20.6,
          "velocity": 0.3464566929133858
        },
        {
          "duration": 0.20000000000000284,
          "durationTicks": 96,
          "midi": 66,
          "name": "F#4",
          "ticks": 10080,
          "time": 21,
          "velocity": 0.3464566929133858
        },
        {
          "duration": 0.20000000000000284,
          "durationTicks": 96,
          "midi": 63,
          "name": "D#4",
          "ticks": 10080,
          "time": 21,
          "velocity": 0.3464566929133858
        },
        {
          "duration": 0.1999999999999993,
          "durationTicks": 96,
          "midi": 59,
          "name": "B3",
          "ticks": 10272,
          "time": 21.400000000000002,
          "velocity": 0.3464566929133858
        },
        {
          "duration": 0.1999999999999993,
          "durationTicks": 96,
          "midi": 59,
          "name": "B3",
          "ticks": 10368,
          "time": 21.6,
          "velocity": 0.3464566929133858
        },
        {
          "duration": 0.20000000000000284,
          "durationTicks": 96,
          "midi": 66,
          "name": "F#4",
          "ticks": 10560,
          "time": 22,
          "velocity": 0.3464566929133858
        },
        {
          "duration": 0.20000000000000284,
          "durationTicks": 96,
          "midi": 63,
          "name": "D#4",
          "ticks": 10560,
          "time": 22,
          "velocity": 0.3464566929133858
        },
        {
          "duration": 0.1999999999999993,
          "durationTicks": 96,
          "midi": 58,
          "name": "A#3",
          "ticks": 10752,
          "time": 22.400000000000002,
          "velocity": 0.3464566929133858
        },
        {
          "duration": 0.1999999999999993,
          "durationTicks": 96,
          "midi": 68,
          "name": "G#4",
          "ticks": 10944,
          "time": 22.8,
          "velocity": 0.3464566929133858
        },
        {
          "duration": 0.1999999999999993,
          "durationTicks": 96,
          "midi": 62,
          "name": "D4",
          "ticks": 10944,
          "time": 22.8,
          "velocity": 0.3464566929133858
        },
        {
          "duration": 0.1999999999999993,
          "durationTicks": 96,
          "midi": 58,
          "name": "A#3",
          "ticks": 11136,
          "time": 23.200000000000003,
          "velocity": 0.3464566929133858
        },
        {
          "duration": 0.1999999999999993,
          "durationTicks": 96,
          "midi": 68,
          "name": "G#4",
          "ticks": 11232,
          "time": 23.400000000000002,
          "velocity": 0.3464566929133858
        },
        {
          "duration": 0.1999999999999993,
          "durationTicks": 96,
          "midi": 62,
          "name": "D4",
          "ticks": 11232,
          "time": 23.400000000000002,
          "velocity": 0.3464566929133858
        },
        {
          "duration": 0.1999999999999993,
          "durationTicks": 96,
          "midi": 58,
          "name": "A#3",
          "ticks": 11424,
          "time": 23.8,
          "velocity": 0.3464566929133858
        },
        {
          "duration": 0.1999999999999993,
          "durationTicks": 96,
          "midi": 62,
          "name": "D4",
          "ticks": 11616,
          "time": 24.200000000000003,
          "velocity": 0.3464566929133858
        },
        {
          "duration": 0.1999999999999993,
          "durationTicks": 96,
          "midi": 65,
          "name": "F4",
          "ticks": 11616,
          "time": 24.200000000000003,
          "velocity": 0.3464566929133858
        },
        {
          "duration": 0.1999999999999993,
          "durationTicks": 96,
          "midi": 58,
          "name": "A#3",
          "ticks": 11808,
          "time": 24.6,
          "velocity": 0.3464566929133858
        },
        {
          "duration": 0.1999999999999993,
          "durationTicks": 96,
          "midi": 58,
          "name": "A#3",
          "ticks": 11904,
          "time": 24.8,
          "velocity": 0.3464566929133858
        },
        {
          "duration": 0.1999999999999993,
          "durationTicks": 96,
          "midi": 62,
          "name": "D4",
          "ticks": 12096,
          "time": 25.200000000000003,
          "velocity": 0.3464566929133858
        },
        {
          "duration": 0.1999999999999993,
          "durationTicks": 96,
          "midi": 65,
          "name": "F4",
          "ticks": 12096,
          "time": 25.200000000000003,
          "velocity": 0.3464566929133858
        },
        {
          "duration": 0.1999999999999993,
          "durationTicks": 96,
          "midi": 63,
          "name": "D#4",
          "ticks": 12288,
          "time": 25.6,
          "velocity": 0.3464566929133858
        },
        {
          "duration": 0.20000000000000284,
          "durationTicks": 96,
          "midi": 66,
          "name": "F#4",
          "ticks": 12480,
          "time": 26,
          "velocity": 0.3464566929133858
        },
        {
          "duration": 0.20000000000000284,
          "durationTicks": 96,
          "midi": 70,
          "name": "A#4",
          "ticks": 12480,
          "time": 26,
          "velocity": 0.3464566929133858
        },
        {
          "duration": 0.1999999999999993,
          "durationTicks": 96,
          "midi": 66,
          "name": "F#4",
          "ticks": 12672,
          "time": 26.400000000000002,
          "velocity": 0.3464566929133858
        },
        {
          "duration": 0.1999999999999993,
          "durationTicks": 96,
          "midi": 70,
          "name": "A#4",
          "ticks": 12672,
          "time": 26.400000000000002,
          "velocity": 0.3464566929133858
        },
        {
          "duration": 0.1999999999999993,
          "durationTicks": 96,
          "midi": 72,
          "name": "C5",
          "ticks": 12768,
          "time": 26.6,
          "velocity": 0.3464566929133858
        },
        {
          "duration": 0.1999999999999993,
          "durationTicks": 96,
          "midi": 68,
          "name": "G#4",
          "ticks": 12768,
          "time": 26.6,
          "velocity": 0.3464566929133858
        },
        {
          "duration": 0.20000000000000284,
          "durationTicks": 96,
          "midi": 68,
          "name": "G#4",
          "ticks": 12960,
          "time": 27,
          "velocity": 0.3464566929133858
        },
        {
          "duration": 0.20000000000000284,
          "durationTicks": 96,
          "midi": 63,
          "name": "D#4",
          "ticks": 12960,
          "time": 27,
          "velocity": 0.3464566929133858
        },
        {
          "duration": 0.1999999999999993,
          "durationTicks": 96,
          "midi": 73,
          "name": "C#5",
          "ticks": 13152,
          "time": 27.400000000000002,
          "velocity": 0.3464566929133858
        },
        {
          "duration": 0.1999999999999993,
          "durationTicks": 96,
          "midi": 70,
          "name": "A#4",
          "ticks": 13152,
          "time": 27.400000000000002,
          "velocity": 0.3464566929133858
        },
        {
          "duration": 0.1999999999999993,
          "durationTicks": 96,
          "midi": 58,
          "name": "A#3",
          "ticks": 13344,
          "time": 27.8,
          "velocity": 0.3464566929133858
        },
        {
          "duration": 0.20000000000000284,
          "durationTicks": 96,
          "midi": 65,
          "name": "F4",
          "ticks": 13440,
          "time": 28,
          "velocity": 0.3464566929133858
        },
        {
          "duration": 0.20000000000000284,
          "durationTicks": 96,
          "midi": 62,
          "name": "D4",
          "ticks": 13440,
          "time": 28,
          "velocity": 0.3464566929133858
        },
        {
          "duration": 0.1999999999999993,
          "durationTicks": 96,
          "midi": 58,
          "name": "A#3",
          "ticks": 13536,
          "time": 28.200000000000003,
          "velocity": 0.3464566929133858
        },
        {
          "duration": 0.1999999999999993,
          "durationTicks": 96,
          "midi": 65,
          "name": "F4",
          "ticks": 13632,
          "time": 28.400000000000002,
          "velocity": 0.3464566929133858
        },
        {
          "duration": 0.1999999999999993,
          "durationTicks": 96,
          "midi": 62,
          "name": "D4",
          "ticks": 13632,
          "time": 28.400000000000002,
          "velocity": 0.3464566929133858
        },
        {
          "duration": 0.8000000000000007,
          "durationTicks": 384,
          "midi": 63,
          "name": "D#4",
          "ticks": 13824,
          "time": 28.8,
          "velocity": 0.3464566929133858
        },
        {
          "duration": 0.8000000000000007,
          "durationTicks": 384,
          "midi": 66,
          "name": "F#4",
          "ticks": 13824,
          "time": 28.8,
          "velocity": 0.3464566929133858
        }
      ],
      "endOfTrackTicks": 14208
    },
    {
      "channel": 2,
      "controlChanges": {},
      "pitchBends": [],
      "instrument": {
        "family": "piano",
        "number": 0,
        "name": "acoustic grand piano"
      },
      "name": "Electric Piano",
      "notes": [
        {
          "duration": 0.1999999999999993,
          "durationTicks": 96,
          "midi": 63,
          "name": "D#4",
          "ticks": 5856,
          "time": 12.200000000000001,
          "velocity": 0.7559055118110236
        },
        {
          "duration": 0.20000000000000107,
          "durationTicks": 96,
          "midi": 66,
          "name": "F#4",
          "ticks": 5952,
          "time": 12.4,
          "velocity": 0.7559055118110236
        },
        {
          "duration": 0.1999999999999993,
          "durationTicks": 96,
          "midi": 68,
          "name": "G#4",
          "ticks": 6048,
          "time": 12.600000000000001,
          "velocity": 0.7559055118110236
        },
        {
          "duration": 0.8000000000000007,
          "durationTicks": 384,
          "midi": 70,
          "name": "A#4",
          "ticks": 6144,
          "time": 12.8,
          "velocity": 0.7559055118110236
        },
        {
          "duration": 0.1999999999999993,
          "durationTicks": 96,
          "midi": 68,
          "name": "G#4",
          "ticks": 7008,
          "time": 14.600000000000001,
          "velocity": 0.7559055118110236
        },
        {
          "duration": 0.10000000000000142,
          "durationTicks": 48,
          "midi": 66,
          "name": "F#4",
          "ticks": 7200,
          "time": 15,
          "velocity": 0.7559055118110236
        },
        {
          "duration": 0.09999999999999964,
          "durationTicks": 48,
          "midi": 65,
          "name": "F4",
          "ticks": 7248,
          "time": 15.100000000000001,
          "velocity": 0.7559055118110236
        },
        {
          "duration": 0.1999999999999993,
          "durationTicks": 96,
          "midi": 68,
          "name": "G#4",
          "ticks": 7296,
          "time": 15.200000000000001,
          "velocity": 0.7559055118110236
        },
        {
          "duration": 0.1999999999999993,
          "durationTicks": 96,
          "midi": 66,
          "name": "F#4",
          "ticks": 7488,
          "time": 15.600000000000001,
          "velocity": 0.7559055118110236
        },
        {
          "duration": 0.10000000000000142,
          "durationTicks": 48,
          "midi": 65,
          "name": "F4",
          "ticks": 7680,
          "time": 16,
          "velocity": 0.7559055118110236
        },
        {
          "duration": 0.09999999999999787,
          "durationTicks": 48,
          "midi": 63,
          "name": "D#4",
          "ticks": 7728,
          "time": 16.1,
          "velocity": 0.7559055118110236
        },
        {
          "duration": 0.8000000000000007,
          "durationTicks": 384,
          "midi": 65,
          "name": "F4",
          "ticks": 7776,
          "time": 16.2,
          "velocity": 0.7559055118110236
        },
        {
          "duration": 0.1999999999999993,
          "durationTicks": 96,
          "midi": 66,
          "name": "F#4",
          "ticks": 8544,
          "time": 17.8,
          "velocity": 0.7559055118110236
        },
        {
          "duration": 0.10000000000000142,
          "durationTicks": 48,
          "midi": 65,
          "name": "F4",
          "ticks": 8736,
          "time": 18.2,
          "velocity": 0.7559055118110236
        },
        {
          "duration": 0.10000000000000142,
          "durationTicks": 48,
          "midi": 63,
          "name": "D#4",
          "ticks": 8784,
          "time": 18.3,
          "velocity": 0.7559055118110236
        },
        {
          "duration": 0.1999999999999993,
          "durationTicks": 96,
          "midi": 66,
          "name": "F#4",
          "ticks": 8832,
          "time": 18.400000000000002,
          "velocity": 0.7559055118110236
        },
        {
          "duration": 0.1999999999999993,
          "durationTicks": 96,
          "midi": 65,
          "name": "F4",
          "ticks": 9024,
          "time": 18.8,
          "velocity": 0.7559055118110236
        },
        {
          "duration": 0.09999999999999787,
          "durationTicks": 48,
          "midi": 63,
          "name": "D#4",
          "ticks": 9216,
          "time": 19.200000000000003,
          "velocity": 0.7559055118110236
        },
        {
          "duration": 0.10000000000000142,
          "durationTicks": 48,
          "midi": 61,
          "name": "C#4",
          "ticks": 9264,
          "time": 19.3,
          "velocity": 0.7559055118110236
        },
        {
          "duration": 0.8000000000000007,
          "durationTicks": 384,
          "midi": 59,
          "name": "B3",
          "ticks": 9312,
          "time": 19.400000000000002,
          "velocity": 0.7559055118110236
        },
        {
          "duration": 0.1999999999999993,
          "durationTicks": 96,
          "midi": 59,
          "name": "B3",
          "ticks": 10464,
          "time": 21.8,
          "velocity": 0.7559055118110236
        },
        {
          "duration": 0.20000000000000284,
          "durationTicks": 96,
          "midi": 61,
          "name": "C#4",
          "ticks": 10560,
          "time": 22,
          "velocity": 0.7559055118110236
        },
        {
          "duration": 0.1999999999999993,
          "durationTicks": 96,
          "midi": 63,
          "name": "D#4",
          "ticks": 10656,
          "time": 22.200000000000003,
          "velocity": 0.7559055118110236
        },
        {
          "duration": 0.8000000000000007,
          "durationTicks": 384,
          "midi": 65,
          "name": "F4",
          "ticks": 10752,
          "time": 22.400000000000002,
          "velocity": 0.7559055118110236
        },
        {
          "duration": 0.7999999999999972,
          "durationTicks": 384,
          "midi": 68,
          "name": "G#4",
          "ticks": 11136,
          "time": 23.200000000000003,
          "velocity": 0.7559055118110236
        },
        {
          "duration": 0.8000000000000007,
          "durationTicks": 384,
          "midi": 66,
          "name": "F#4",
          "ticks": 11520,
          "time": 24,
          "velocity": 0.7559055118110236
        },
        {
          "duration": 0.8000000000000007,
          "durationTicks": 384,
          "midi": 62,
          "name": "D4",
          "ticks": 11904,
          "time": 24.8,
          "velocity": 0.7559055118110236
        },
        {
          "duration": 0.8000000000000007,
          "durationTicks": 384,
          "midi": 63,
          "name": "D#4",
          "ticks": 12288,
          "time": 25.6,
          "velocity": 0.7559055118110236
        }
      ],
      "endOfTrackTicks": 12672
    }
  ]
}
