{
  "header": {
    "keySignatures": [],
    "meta": [],
    "name": "",
    "ppq": 43,
    "tempos": [
      {
        "bpm": 120,
        "ticks": 0
      }
    ],
    "timeSignatures": []
  },
  "tracks": [
    {
      "channel": 0,
      "controlChanges": {},
      "pitchBends": [],
      "instrument": {
        "family": "piano",
        "number": 0,
        "name": "acoustic grand piano"
      },
      "name": "",
      "notes": [
        {
          "duration": 0.046511627906976744,
          "durationTicks": 4,
          "midi": 51,
          "name": "D#3",
          "ticks": 0,
          "time": 0,
          "velocity": 0.5196850393700787
        },
        {
          "duration": 0.023255813953488372,
          "durationTicks": 2,
          "midi": 60,
          "name": "C4",
          "ticks": 0,
          "time": 0,
          "velocity": 0.23622047244094488
        },
        {
          "duration": 0.1511627906976744,
          "durationTicks": 13,
          "midi": 59,
          "name": "B3",
          "ticks": 2,
          "time": 0.023255813953488372,
          "velocity": 0.2125984251968504
        },
        {
          "duration": 0.45348837209302323,
          "durationTicks": 39,
          "midi": 64,
          "name": "E4",
          "ticks": 3,
          "time": 0.03488372093023256,
          "velocity": 0.5669291338582677
        },
        {
          "duration": 0.023255813953488372,
          "durationTicks": 2,
          "midi": 50,
          "name": "D3",
          "ticks": 4,
          "time": 0.046511627906976744,
          "velocity": 0.41732283464566927
        },
        {
          "duration": 0.023255813953488372,
          "durationTicks": 2,
          "midi": 49,
          "name": "C#3",
          "ticks": 6,
          "time": 0.06976744186046512,
          "velocity": 0.33858267716535434
        },
        {
          "duration": 0.023255813953488372,
          "durationTicks": 2,
          "midi": 53,
          "name": "F3",
          "ticks": 7,
          "time": 0.08139534883720931,
          "velocity": 0.2992125984251969
        },
        {
          "duration": 0.058139534883720936,
          "durationTicks": 5,
          "midi": 52,
          "name": "E3",
          "ticks": 9,
          "time": 0.10465116279069768,
          "velocity": 0.33070866141732286
        },
        {
          "duration": 0.7441860465116279,
          "durationTicks": 64,
          "midi": 59,
          "name": "B3",
          "ticks": 16,
          "time": 0.18604651162790697,
          "velocity": 0.2204724409448819
        },
        {
          "duration": 0.023255813953488386,
          "durationTicks": 2,
          "midi": 51,
          "name": "D#3",
          "ticks": 17,
          "time": 0.19767441860465115,
          "velocity": 0.33858267716535434
        },
        {
          "duration": 0.034883720930232565,
          "durationTicks": 3,
          "midi": 37,
          "name": "C#2",
          "ticks": 19,
          "time": 0.22093023255813954,
          "velocity": 0.2047244094488189
        },
        {
          "duration": 1.3255813953488371,
          "durationTicks": 114,
          "midi": 52,
          "name": "E3",
          "ticks": 21,
          "time": 0.2441860465116279,
          "velocity": 0.4330708661417323
        },
        {
          "duration": 1.4069767441860463,
          "durationTicks": 121,
          "midi": 67,
          "name": "G4",
          "ticks": 25,
          "time": 0.29069767441860467,
          "velocity": 0.4645669291338583
        },
        {
          "duration": 0.03488372093023251,
          "durationTicks": 3,
          "midi": 40,
          "name": "E2",
          "ticks": 51,
          "time": 0.5930232558139535,
          "velocity": 0.10236220472440945
        },
        {
          "duration": 0.03488372093023262,
          "durationTicks": 3,
          "midi": 40,
          "name": "E2",
          "ticks": 80,
          "time": 0.9302325581395349,
          "velocity": 0.07874015748031496
        },
        {
          "duration": 7.488372093023256,
          "durationTicks": 644,
          "midi": 59,
          "name": "B3",
          "ticks": 87,
          "time": 1.0116279069767442,
          "velocity": 0.5196850393700787
        },
        {
          "duration": 0.30232558139534893,
          "durationTicks": 26,
          "midi": 40,
          "name": "E2",
          "ticks": 107,
          "time": 1.244186046511628,
          "velocity": 0.13385826771653545
        },
        {
          "duration": 0.17441860465116288,
          "durationTicks": 15,
          "midi": 86,
          "name": "D6",
          "ticks": 107,
          "time": 1.244186046511628,
          "velocity": 0.09448818897637795
        },
        {
          "duration": 0.31395348837209314,
          "durationTicks": 27,
          "midi": 95,
          "name": "B6",
          "ticks": 124,
          "time": 1.441860465116279,
          "velocity": 0.13385826771653545
        },
        {
          "duration": 0.05813953488372081,
          "durationTicks": 5,
          "midi": 86,
          "name": "D6",
          "ticks": 133,
          "time": 1.5465116279069768,
          "velocity": 0.09448818897637795
        },
        {
          "duration": 0.988372093023256,
          "durationTicks": 85,
          "midi": 64,
          "name": "E4",
          "ticks": 138,
          "time": 1.6046511627906976,
          "velocity": 0.30708661417322836
        },
        {
          "duration": 0.48837209302325557,
          "durationTicks": 42,
          "midi": 52,
          "name": "E3",
          "ticks": 142,
          "time": 1.6511627906976745,
          "velocity": 0.25984251968503935
        },
        {
          "duration": 0.15116279069767447,
          "durationTicks": 13,
          "midi": 67,
          "name": "G4",
          "ticks": 148,
          "time": 1.7209302325581395,
          "velocity": 0.2440944881889764
        },
        {
          "duration": 0.31395348837209314,
          "durationTicks": 27,
          "midi": 95,
          "name": "B6",
          "ticks": 155,
          "time": 1.802325581395349,
          "velocity": 0.2047244094488189
        },
        {
          "duration": 0.058139534883721034,
          "durationTicks": 5,
          "midi": 78,
          "name": "F#5",
          "ticks": 157,
          "time": 1.8255813953488371,
          "velocity": 0.07874015748031496
        },
        {
          "duration": 0.09302325581395365,
          "durationTicks": 8,
          "midi": 86,
          "name": "D6",
          "ticks": 158,
          "time": 1.8372093023255813,
          "velocity": 0.13385826771653545
        },
        {
          "duration": 0.11627906976744184,
          "durationTicks": 10,
          "midi": 67,
          "name": "G4",
          "ticks": 162,
          "time": 1.8837209302325582,
          "velocity": 0.33858267716535434
        },
        {
          "duration": 0.19767441860465107,
          "durationTicks": 17,
          "midi": 78,
          "name": "F#5",
          "ticks": 170,
          "time": 1.9767441860465116,
          "velocity": 0.11811023622047244
        },
        {
          "duration": 0.09302325581395365,
          "durationTicks": 8,
          "midi": 98,
          "name": "D7",
          "ticks": 173,
          "time": 2.011627906976744,
          "velocity": 0.14173228346456693
        },
        {
          "duration": 0.09302325581395321,
          "durationTicks": 8,
          "midi": 88,
          "name": "E6",
          "ticks": 175,
          "time": 2.0348837209302326,
          "velocity": 0.15748031496062992
        },
        {
          "duration": 0.03488372093023262,
          "durationTicks": 3,
          "midi": 86,
          "name": "D6",
          "ticks": 177,
          "time": 2.058139534883721,
          "velocity": 0.11023622047244094
        },
        {
          "duration": 0.18604651162790686,
          "durationTicks": 16,
          "midi": 67,
          "name": "G4",
          "ticks": 179,
          "time": 2.0813953488372094,
          "velocity": 0.3779527559055118
        },
        {
          "duration": 0.034883720930232176,
          "durationTicks": 3,
          "midi": 91,
          "name": "G6",
          "ticks": 180,
          "time": 2.0930232558139537,
          "velocity": 0.11811023622047244
        },
        {
          "duration": 0.034883720930232176,
          "durationTicks": 3,
          "midi": 86,
          "name": "D6",
          "ticks": 182,
          "time": 2.116279069767442,
          "velocity": 0.10236220472440945
        },
        {
          "duration": 0.04651162790697683,
          "durationTicks": 4,
          "midi": 52,
          "name": "E3",
          "ticks": 185,
          "time": 2.1511627906976742,
          "velocity": 0.18110236220472442
        },
        {
          "duration": 0.058139534883721034,
          "durationTicks": 5,
          "midi": 88,
          "name": "E6",
          "ticks": 186,
          "time": 2.1627906976744184,
          "velocity": 0.2125984251968504
        },
        {
          "duration": 0.1744186046511631,
          "durationTicks": 15,
          "midi": 91,
          "name": "G6",
          "ticks": 186,
          "time": 2.1627906976744184,
          "velocity": 0.1732283464566929
        },
        {
          "duration": 0.6279069767441863,
          "durationTicks": 54,
          "midi": 95,
          "name": "B6",
          "ticks": 188,
          "time": 2.186046511627907,
          "velocity": 0.23622047244094488
        },
        {
          "duration": 0.1627906976744189,
          "durationTicks": 14,
          "midi": 52,
          "name": "E3",
          "ticks": 190,
          "time": 2.2093023255813953,
          "velocity": 0.1968503937007874
        },
        {
          "duration": 0.03488372093023262,
          "durationTicks": 3,
          "midi": 40,
          "name": "E2",
          "ticks": 191,
          "time": 2.2209302325581395,
          "velocity": 0.07874015748031496
        },
        {
          "duration": 0.04651162790697683,
          "durationTicks": 4,
          "midi": 86,
          "name": "D6",
          "ticks": 191,
          "time": 2.2209302325581395,
          "velocity": 0.12598425196850394
        },
        {
          "duration": 0.09302325581395365,
          "durationTicks": 8,
          "midi": 98,
          "name": "D7",
          "ticks": 191,
          "time": 2.2209302325581395,
          "velocity": 0.1732283464566929
        },
        {
          "duration": 0.09302325581395365,
          "durationTicks": 8,
          "midi": 88,
          "name": "E6",
          "ticks": 194,
          "time": 2.255813953488372,
          "velocity": 0.16535433070866143
        },
        {
          "duration": 0.10465116279069742,
          "durationTicks": 9,
          "midi": 86,
          "name": "D6",
          "ticks": 198,
          "time": 2.302325581395349,
          "velocity": 0.1732283464566929
        },
        {
          "duration": 0.3372093023255811,
          "durationTicks": 29,
          "midi": 67,
          "name": "G4",
          "ticks": 199,
          "time": 2.313953488372093,
          "velocity": 0.41732283464566927
        },
        {
          "duration": 0.2325581395348837,
          "durationTicks": 20,
          "midi": 78,
          "name": "F#5",
          "ticks": 199,
          "time": 2.313953488372093,
          "velocity": 0.1968503937007874
        },
        {
          "duration": 0.17441860465116266,
          "durationTicks": 15,
          "midi": 52,
          "name": "E3",
          "ticks": 211,
          "time": 2.453488372093023,
          "velocity": 0.28346456692913385
        },
        {
          "duration": 0.08139534883720945,
          "durationTicks": 7,
          "midi": 40,
          "name": "E2",
          "ticks": 213,
          "time": 2.4767441860465116,
          "velocity": 0.16535433070866143
        },
        {
          "duration": 0.11627906976744207,
          "durationTicks": 10,
          "midi": 86,
          "name": "D6",
          "ticks": 215,
          "time": 2.5,
          "velocity": 0.11811023622047244
        },
        {
          "duration": 0.13953488372093004,
          "durationTicks": 12,
          "midi": 98,
          "name": "D7",
          "ticks": 218,
          "time": 2.5348837209302326,
          "velocity": 0.14173228346456693
        },
        {
          "duration": 0.3604651162790695,
          "durationTicks": 31,
          "midi": 40,
          "name": "E2",
          "ticks": 221,
          "time": 2.5697674418604652,
          "velocity": 0.18110236220472442
        },
        {
          "duration": 0.40697674418604635,
          "durationTicks": 35,
          "midi": 88,
          "name": "E6",
          "ticks": 222,
          "time": 2.5813953488372094,
          "velocity": 0.2440944881889764
        },
        {
          "duration": 0.1860465116279073,
          "durationTicks": 16,
          "midi": 86,
          "name": "D6",
          "ticks": 226,
          "time": 2.627906976744186,
          "velocity": 0.18110236220472442
        },
        {
          "duration": 0.1744186046511631,
          "durationTicks": 15,
          "midi": 78,
          "name": "F#5",
          "ticks": 227,
          "time": 2.63953488372093,
          "velocity": 0.1968503937007874
        },
        {
          "duration": 2.197674418604651,
          "durationTicks": 189,
          "midi": 52,
          "name": "E3",
          "ticks": 228,
          "time": 2.6511627906976742,
          "velocity": 0.4881889763779528
        },
        {
          "duration": 0.03488372093023262,
          "durationTicks": 3,
          "midi": 68,
          "name": "G#4",
          "ticks": 228,
          "time": 2.6511627906976742,
          "velocity": 0.25984251968503935
        },
        {
          "duration": 0.03488372093023262,
          "durationTicks": 3,
          "midi": 67,
          "name": "G4",
          "ticks": 231,
          "time": 2.686046511627907,
          "velocity": 0.12598425196850394
        },
        {
          "duration": 0.03488372093023262,
          "durationTicks": 3,
          "midi": 68,
          "name": "G#4",
          "ticks": 234,
          "time": 2.7209302325581395,
          "velocity": 0.2204724409448819
        },
        {
          "duration": 0.13953488372093048,
          "durationTicks": 12,
          "midi": 98,
          "name": "D7",
          "ticks": 234,
          "time": 2.7209302325581395,
          "velocity": 0.1968503937007874
        },
        {
          "duration": 0.10465116279069786,
          "durationTicks": 9,
          "midi": 67,
          "name": "G4",
          "ticks": 237,
          "time": 2.755813953488372,
          "velocity": 0.4094488188976378
        },
        {
          "duration": 0.03488372093023262,
          "durationTicks": 3,
          "midi": 92,
          "name": "G#6",
          "ticks": 238,
          "time": 2.7674418604651163,
          "velocity": 0.10236220472440945
        },
        {
          "duration": 0.10465116279069742,
          "durationTicks": 9,
          "midi": 91,
          "name": "G6",
          "ticks": 240,
          "time": 2.7906976744186047,
          "velocity": 0.13385826771653545
        },
        {
          "duration": 1.5697674418604648,
          "durationTicks": 135,
          "midi": 64,
          "name": "E4",
          "ticks": 242,
          "time": 2.813953488372093,
          "velocity": 0.49606299212598426
        },
        {
          "duration": 0.4767441860465116,
          "durationTicks": 41,
          "midi": 95,
          "name": "B6",
          "ticks": 244,
          "time": 2.8372093023255816,
          "velocity": 0.30708661417322836
        },
        {
          "duration": 0.11627906976744162,
          "durationTicks": 10,
          "midi": 86,
          "name": "D6",
          "ticks": 246,
          "time": 2.86046511627907,
          "velocity": 0.14960629921259844
        },
        {
          "duration": 0.9651162790697674,
          "durationTicks": 83,
          "midi": 67,
          "name": "G4",
          "ticks": 247,
          "time": 2.872093023255814,
          "velocity": 0.5433070866141733
        },
        {
          "duration": 0.6976744186046515,
          "durationTicks": 60,
          "midi": 98,
          "name": "D7",
          "ticks": 248,
          "time": 2.883720930232558,
          "velocity": 0.2204724409448819
        },
        {
          "duration": 0.03488372093023262,
          "durationTicks": 3,
          "midi": 93,
          "name": "A6",
          "ticks": 250,
          "time": 2.9069767441860463,
          "velocity": 0.07086614173228346
        },
        {
          "duration": 0.1511627906976747,
          "durationTicks": 13,
          "midi": 78,
          "name": "F#5",
          "ticks": 252,
          "time": 2.9302325581395348,
          "velocity": 0.2283464566929134
        },
        {
          "duration": 0.06976744186046524,
          "durationTicks": 6,
          "midi": 91,
          "name": "G6",
          "ticks": 252,
          "time": 2.9302325581395348,
          "velocity": 0.11811023622047244
        },
        {
          "duration": 0.12790697674418627,
          "durationTicks": 11,
          "midi": 40,
          "name": "E2",
          "ticks": 253,
          "time": 2.941860465116279,
          "velocity": 0.11023622047244094
        },
        {
          "duration": 0.03488372093023262,
          "durationTicks": 3,
          "midi": 92,
          "name": "G#6",
          "ticks": 255,
          "time": 2.9651162790697674,
          "velocity": 0.10236220472440945
        },
        {
          "duration": 0.09302325581395365,
          "durationTicks": 8,
          "midi": 86,
          "name": "D6",
          "ticks": 257,
          "time": 2.988372093023256,
          "velocity": 0.16535433070866143
        },
        {
          "duration": 0.03488372093023262,
          "durationTicks": 3,
          "midi": 87,
          "name": "D#6",
          "ticks": 264,
          "time": 3.0697674418604652,
          "velocity": 0.07086614173228346
        },
        {
          "duration": 0.36046511627906996,
          "durationTicks": 31,
          "midi": 78,
          "name": "F#5",
          "ticks": 270,
          "time": 3.13953488372093,
          "velocity": 0.28346456692913385
        },
        {
          "duration": 0.1744186046511631,
          "durationTicks": 15,
          "midi": 86,
          "name": "D6",
          "ticks": 272,
          "time": 3.1627906976744184,
          "velocity": 0.2283464566929134
        },
        {
          "duration": 0.12790697674418627,
          "durationTicks": 11,
          "midi": 91,
          "name": "G6",
          "ticks": 277,
          "time": 3.2209302325581395,
          "velocity": 0.1889763779527559
        },
        {
          "duration": 0.38372093023255793,
          "durationTicks": 33,
          "midi": 95,
          "name": "B6",
          "ticks": 287,
          "time": 3.3372093023255816,
          "velocity": 0.29133858267716534
        },
        {
          "duration": 0.04651162790697638,
          "durationTicks": 4,
          "midi": 101,
          "name": "F7",
          "ticks": 288,
          "time": 3.3488372093023258,
          "velocity": 0.07874015748031496
        },
        {
          "duration": 0.06976744186046524,
          "durationTicks": 6,
          "midi": 40,
          "name": "E2",
          "ticks": 291,
          "time": 3.383720930232558,
          "velocity": 0.1968503937007874
        },
        {
          "duration": 0.03488372093023262,
          "durationTicks": 3,
          "midi": 93,
          "name": "A6",
          "ticks": 294,
          "time": 3.4186046511627906,
          "velocity": 0.11023622047244094
        },
        {
          "duration": 0.03488372093023262,
          "durationTicks": 3,
          "midi": 86,
          "name": "D6",
          "ticks": 296,
          "time": 3.441860465116279,
          "velocity": 0.1968503937007874
        },
        {
          "duration": 0.06976744186046524,
          "durationTicks": 6,
          "midi": 91,
          "name": "G6",
          "ticks": 297,
          "time": 3.453488372093023,
          "velocity": 0.15748031496062992
        },
        {
          "duration": 0.03488372093023262,
          "durationTicks": 3,
          "midi": 101,
          "name": "F7",
          "ticks": 298,
          "time": 3.4651162790697674,
          "velocity": 0.08661417322834646
        },
        {
          "duration": 0.08139534883720945,
          "durationTicks": 7,
          "midi": 86,
          "name": "D6",
          "ticks": 301,
          "time": 3.5,
          "velocity": 0.2125984251968504
        },
        {
          "duration": 0.34883720930232576,
          "durationTicks": 30,
          "midi": 40,
          "name": "E2",
          "ticks": 303,
          "time": 3.5232558139534884,
          "velocity": 0.23622047244094488
        },
        {
          "duration": 0.22093023255813948,
          "durationTicks": 19,
          "midi": 78,
          "name": "F#5",
          "ticks": 305,
          "time": 3.546511627906977,
          "velocity": 0.2440944881889764
        },
        {
          "duration": 0.03488372093023262,
          "durationTicks": 3,
          "midi": 91,
          "name": "G6",
          "ticks": 305,
          "time": 3.546511627906977,
          "velocity": 0.16535433070866143
        },
        {
          "duration": 0.2441860465116279,
          "durationTicks": 21,
          "midi": 93,
          "name": "A6",
          "ticks": 305,
          "time": 3.546511627906977,
          "velocity": 0.18110236220472442
        },
        {
          "duration": 0.03488372093023262,
          "durationTicks": 3,
          "midi": 101,
          "name": "F7",
          "ticks": 305,
          "time": 3.546511627906977,
          "velocity": 0.09448818897637795
        },
        {
          "duration": 0.03488372093023262,
          "durationTicks": 3,
          "midi": 87,
          "name": "D#6",
          "ticks": 307,
          "time": 3.5697674418604652,
          "velocity": 0.11811023622047244
        },
        {
          "duration": 0.17441860465116266,
          "durationTicks": 15,
          "midi": 86,
          "name": "D6",
          "ticks": 309,
          "time": 3.5930232558139537,
          "velocity": 0.25196850393700787
        },
        {
          "duration": 0.3023255813953485,
          "durationTicks": 26,
          "midi": 88,
          "name": "E6",
          "ticks": 311,
          "time": 3.616279069767442,
          "velocity": 0.30708661417322836
        },
        {
          "duration": 0.058139534883721034,
          "durationTicks": 5,
          "midi": 92,
          "name": "G#6",
          "ticks": 315,
          "time": 3.6627906976744184,
          "velocity": 0.13385826771653545
        },
        {
          "duration": 0.06976744186046524,
          "durationTicks": 6,
          "midi": 101,
          "name": "F7",
          "ticks": 316,
          "time": 3.6744186046511627,
          "velocity": 0.07086614173228346
        },
        {
          "duration": 0.06976744186046524,
          "durationTicks": 6,
          "midi": 91,
          "name": "G6",
          "ticks": 317,
          "time": 3.686046511627907,
          "velocity": 0.11023622047244094
        },
        {
          "duration": 0.09302325581395365,
          "durationTicks": 8,
          "midi": 87,
          "name": "D#6",
          "ticks": 321,
          "time": 3.7325581395348837,
          "velocity": 0.14173228346456693
        },
        {
          "duration": 0.03488372093023262,
          "durationTicks": 3,
          "midi": 92,
          "name": "G#6",
          "ticks": 322,
          "time": 3.744186046511628,
          "velocity": 0.14173228346456693
        },
        {
          "duration": 0.5930232558139532,
          "durationTicks": 51,
          "midi": 95,
          "name": "B6",
          "ticks": 322,
          "time": 3.744186046511628,
          "velocity": 0.30708661417322836
        },
        {
          "duration": 0.058139534883721034,
          "durationTicks": 5,
          "midi": 91,
          "name": "G6",
          "ticks": 325,
          "time": 3.7790697674418605,
          "velocity": 0.14173228346456693
        },
        {
          "duration": 0.0697674418604648,
          "durationTicks": 6,
          "midi": 78,
          "name": "F#5",
          "ticks": 328,
          "time": 3.813953488372093,
          "velocity": 0.25196850393700787
        },
        {
          "duration": 0.09302325581395321,
          "durationTicks": 8,
          "midi": 93,
          "name": "A6",
          "ticks": 329,
          "time": 3.8255813953488373,
          "velocity": 0.16535433070866143
        },
        {
          "duration": 0.13953488372093004,
          "durationTicks": 12,
          "midi": 92,
          "name": "G#6",
          "ticks": 330,
          "time": 3.8372093023255816,
          "velocity": 0.14173228346456693
        },
        {
          "duration": 0.19767441860465107,
          "durationTicks": 17,
          "midi": 98,
          "name": "D7",
          "ticks": 331,
          "time": 3.8488372093023258,
          "velocity": 0.2125984251968504
        },
        {
          "duration": 0.04651162790697638,
          "durationTicks": 4,
          "midi": 67,
          "name": "G4",
          "ticks": 332,
          "time": 3.86046511627907,
          "velocity": 0.30708661417322836
        },
        {
          "duration": 0.13953488372093004,
          "durationTicks": 12,
          "midi": 87,
          "name": "D#6",
          "ticks": 332,
          "time": 3.86046511627907,
          "velocity": 0.1732283464566929
        },
        {
          "duration": 0.1627906976744189,
          "durationTicks": 14,
          "midi": 40,
          "name": "E2",
          "ticks": 334,
          "time": 3.883720930232558,
          "velocity": 0.2283464566929134
        },
        {
          "duration": 0.1511627906976747,
          "durationTicks": 13,
          "midi": 67,
          "name": "G4",
          "ticks": 337,
          "time": 3.9186046511627906,
          "velocity": 0.4015748031496063
        },
        {
          "duration": 0.9883720930232558,
          "durationTicks": 85,
          "midi": 78,
          "name": "F#5",
          "ticks": 337,
          "time": 3.9186046511627906,
          "velocity": 0.33858267716535434
        },
        {
          "duration": 0.13953488372093048,
          "durationTicks": 12,
          "midi": 88,
          "name": "E6",
          "ticks": 339,
          "time": 3.941860465116279,
          "velocity": 0.2440944881889764
        },
        {
          "duration": 0.03488372093023262,
          "durationTicks": 3,
          "midi": 93,
          "name": "A6",
          "ticks": 340,
          "time": 3.953488372093023,
          "velocity": 0.1889763779527559
        },
        {
          "duration": 0.04651162790697683,
          "durationTicks": 4,
          "midi": 91,
          "name": "G6",
          "ticks": 343,
          "time": 3.988372093023256,
          "velocity": 0.18110236220472442
        },
        {
          "duration": 0.24418604651162834,
          "durationTicks": 21,
          "midi": 92,
          "name": "G#6",
          "ticks": 343,
          "time": 3.988372093023256,
          "velocity": 0.1732283464566929
        },
        {
          "duration": 0.13953488372093048,
          "durationTicks": 12,
          "midi": 86,
          "name": "D6",
          "ticks": 344,
          "time": 4,
          "velocity": 0.2125984251968504
        },
        {
          "duration": 0.023255813953488413,
          "durationTicks": 2,
          "midi": 68,
          "name": "G#4",
          "ticks": 350,
          "time": 4.069767441860465,
          "velocity": 0.29133858267716534
        },
        {
          "duration": 0.3255813953488369,
          "durationTicks": 28,
          "midi": 67,
          "name": "G4",
          "ticks": 352,
          "time": 4.093023255813954,
          "velocity": 0.4094488188976378
        },
        {
          "duration": 0.1511627906976747,
          "durationTicks": 13,
          "midi": 87,
          "name": "D#6",
          "ticks": 352,
          "time": 4.093023255813954,
          "velocity": 0.1889763779527559
        },
        {
          "duration": 0.06976744186046524,
          "durationTicks": 6,
          "midi": 40,
          "name": "E2",
          "ticks": 354,
          "time": 4.116279069767442,
          "velocity": 0.23622047244094488
        },
        {
          "duration": 0.3139534883720927,
          "durationTicks": 27,
          "midi": 74,
          "name": "D5",
          "ticks": 355,
          "time": 4.127906976744186,
          "velocity": 0.16535433070866143
        },
        {
          "duration": 0.6395348837209296,
          "durationTicks": 55,
          "midi": 98,
          "name": "D7",
          "ticks": 356,
          "time": 4.1395348837209305,
          "velocity": 0.16535433070866143
        },
        {
          "duration": 0.12790697674418539,
          "durationTicks": 11,
          "midi": 91,
          "name": "G6",
          "ticks": 358,
          "time": 4.162790697674419,
          "velocity": 0.14173228346456693
        },
        {
          "duration": 0.04651162790697683,
          "durationTicks": 4,
          "midi": 40,
          "name": "E2",
          "ticks": 361,
          "time": 4.1976744186046515,
          "velocity": 0.2283464566929134
        },
        {
          "duration": 0.058139534883720145,
          "durationTicks": 5,
          "midi": 93,
          "name": "A6",
          "ticks": 363,
          "time": 4.22093023255814,
          "velocity": 0.09448818897637795
        },
        {
          "duration": 0.39534883720930303,
          "durationTicks": 34,
          "midi": 40,
          "name": "E2",
          "ticks": 366,
          "time": 4.255813953488372,
          "velocity": 0.33070866141732286
        },
        {
          "duration": 0.3023255813953494,
          "durationTicks": 26,
          "midi": 87,
          "name": "D#6",
          "ticks": 366,
          "time": 4.255813953488372,
          "velocity": 0.2047244094488189
        },
        {
          "duration": 0.1860465116279073,
          "durationTicks": 16,
          "midi": 93,
          "name": "A6",
          "ticks": 371,
          "time": 4.313953488372093,
          "velocity": 0.1968503937007874
        },
        {
          "duration": 0.04651162790697683,
          "durationTicks": 4,
          "midi": 92,
          "name": "G#6",
          "ticks": 373,
          "time": 4.337209302325581,
          "velocity": 0.11023622047244094
        },
        {
          "duration": 0.3023255813953494,
          "durationTicks": 26,
          "midi": 95,
          "name": "B6",
          "ticks": 377,
          "time": 4.383720930232558,
          "velocity": 0.2755905511811024
        },
        {
          "duration": 0.023255813953488413,
          "durationTicks": 2,
          "midi": 68,
          "name": "G#4",
          "ticks": 380,
          "time": 4.4186046511627906,
          "velocity": 0.3700787401574803
        },
        {
          "duration": 0.09302325581395365,
          "durationTicks": 8,
          "midi": 67,
          "name": "G4",
          "ticks": 382,
          "time": 4.441860465116279,
          "velocity": 0.3779527559055118
        },
        {
          "duration": 0.12790697674418627,
          "durationTicks": 11,
          "midi": 76,
          "name": "E5",
          "ticks": 382,
          "time": 4.441860465116279,
          "velocity": 0.2047244094488189
        },
        {
          "duration": 0.058139534883721034,
          "durationTicks": 5,
          "midi": 92,
          "name": "G#6",
          "ticks": 382,
          "time": 4.441860465116279,
          "velocity": 0.10236220472440945
        },
        {
          "duration": 0.058139534883721034,
          "durationTicks": 5,
          "midi": 91,
          "name": "G6",
          "ticks": 389,
          "time": 4.523255813953488,
          "velocity": 0.08661417322834646
        },
        {
          "duration": 0.1627906976744189,
          "durationTicks": 14,
          "midi": 93,
          "name": "A6",
          "ticks": 389,
          "time": 4.523255813953488,
          "velocity": 0.14173228346456693
        },
        {
          "duration": 0.04651162790697683,
          "durationTicks": 4,
          "midi": 68,
          "name": "G#4",
          "ticks": 390,
          "time": 4.534883720930233,
          "velocity": 0.3779527559055118
        },
        {
          "duration": 0.03488372093023262,
          "durationTicks": 3,
          "midi": 79,
          "name": "G5",
          "ticks": 390,
          "time": 4.534883720930233,
          "velocity": 0.11811023622047244
        },
        {
          "duration": 0.03488372093023262,
          "durationTicks": 3,
          "midi": 86,
          "name": "D6",
          "ticks": 392,
          "time": 4.558139534883721,
          "velocity": 0.11811023622047244
        },
        {
          "duration": 0.03488372093023262,
          "durationTicks": 3,
          "midi": 73,
          "name": "C#5",
          "ticks": 393,
          "time": 4.569767441860465,
          "velocity": 0.09448818897637795
        },
        {
          "duration": 0.06976744186046524,
          "durationTicks": 6,
          "midi": 88,
          "name": "E6",
          "ticks": 393,
          "time": 4.569767441860465,
          "velocity": 0.16535433070866143
        },
        {
          "duration": 0.04651162790697683,
          "durationTicks": 4,
          "midi": 92,
          "name": "G#6",
          "ticks": 393,
          "time": 4.569767441860465,
          "velocity": 0.11023622047244094
        },
        {
          "duration": 0.2906976744186043,
          "durationTicks": 25,
          "midi": 76,
          "name": "E5",
          "ticks": 394,
          "time": 4.5813953488372094,
          "velocity": 0.33858267716535434
        },
        {
          "duration": 0.023255813953488413,
          "durationTicks": 2,
          "midi": 68,
          "name": "G#4",
          "ticks": 395,
          "time": 4.593023255813954,
          "velocity": 0.3543307086614173
        },
        {
          "duration": 0.11627906976744207,
          "durationTicks": 10,
          "midi": 87,
          "name": "D#6",
          "ticks": 395,
          "time": 4.593023255813954,
          "velocity": 0.14173228346456693
        },
        {
          "duration": 0.03488372093023262,
          "durationTicks": 3,
          "midi": 81,
          "name": "A5",
          "ticks": 396,
          "time": 4.604651162790698,
          "velocity": 0.12598425196850394
        },
        {
          "duration": 0.1395348837209296,
          "durationTicks": 12,
          "midi": 67,
          "name": "G4",
          "ticks": 397,
          "time": 4.616279069767442,
          "velocity": 0.3937007874015748
        },
        {
          "duration": 0.08139534883720945,
          "durationTicks": 7,
          "midi": 73,
          "name": "C#5",
          "ticks": 398,
          "time": 4.627906976744186,
          "velocity": 0.11023622047244094
        },
        {
          "duration": 0.24418604651162745,
          "durationTicks": 21,
          "midi": 40,
          "name": "E2",
          "ticks": 401,
          "time": 4.662790697674419,
          "velocity": 0.2755905511811024
        },
        {
          "duration": 0.08139534883720856,
          "durationTicks": 7,
          "midi": 91,
          "name": "G6",
          "ticks": 402,
          "time": 4.674418604651163,
          "velocity": 0.14173228346456693
        },
        {
          "duration": 0.10465116279069697,
          "durationTicks": 9,
          "midi": 93,
          "name": "A6",
          "ticks": 404,
          "time": 4.6976744186046515,
          "velocity": 0.12598425196850394
        },
        {
          "duration": 0.12790697674418539,
          "durationTicks": 11,
          "midi": 74,
          "name": "D5",
          "ticks": 405,
          "time": 4.709302325581396,
          "velocity": 0.1968503937007874
        },
        {
          "duration": 0.03488372093023262,
          "durationTicks": 3,
          "midi": 81,
          "name": "A5",
          "ticks": 405,
          "time": 4.709302325581396,
          "velocity": 0.14173228346456693
        },
        {
          "duration": 0.06976744186046435,
          "durationTicks": 6,
          "midi": 95,
          "name": "B6",
          "ticks": 405,
          "time": 4.709302325581396,
          "velocity": 0.30708661417322836
        },
        {
          "duration": 0.058139534883720145,
          "durationTicks": 5,
          "midi": 87,
          "name": "D#6",
          "ticks": 406,
          "time": 4.72093023255814,
          "velocity": 0.14960629921259844
        },
        {
          "duration": 0.13953488372093048,
          "durationTicks": 12,
          "midi": 68,
          "name": "G#4",
          "ticks": 409,
          "time": 4.755813953488372,
          "velocity": 0.4251968503937008
        },
        {
          "duration": 0.03488372093023262,
          "durationTicks": 3,
          "midi": 91,
          "name": "G6",
          "ticks": 412,
          "time": 4.790697674418604,
          "velocity": 0.07086614173228346
        },
        {
          "duration": 0.3488372093023262,
          "durationTicks": 30,
          "midi": 95,
          "name": "B6",
          "ticks": 412,
          "time": 4.790697674418604,
          "velocity": 0.29133858267716534
        },
        {
          "duration": 0.09302325581395365,
          "durationTicks": 8,
          "midi": 79,
          "name": "G5",
          "ticks": 415,
          "time": 4.825581395348837,
          "velocity": 0.2440944881889764
        },
        {
          "duration": 1.8139534883720936,
          "durationTicks": 156,
          "midi": 52,
          "name": "E3",
          "ticks": 418,
          "time": 4.8604651162790695,
          "velocity": 0.4566929133858268
        },
        {
          "duration": 0.1511627906976747,
          "durationTicks": 13,
          "midi": 98,
          "name": "D7",
          "ticks": 420,
          "time": 4.883720930232558,
          "velocity": 0.18110236220472442
        },
        {
          "duration": 0.03488372093023262,
          "durationTicks": 3,
          "midi": 67,
          "name": "G4",
          "ticks": 421,
          "time": 4.895348837209302,
          "velocity": 0.33070866141732286
        },
        {
          "duration": 0.7325581395348841,
          "durationTicks": 63,
          "midi": 76,
          "name": "E5",
          "ticks": 421,
          "time": 4.895348837209302,
          "velocity": 0.31496062992125984
        },
        {
          "duration": 0.03488372093023262,
          "durationTicks": 3,
          "midi": 87,
          "name": "D#6",
          "ticks": 422,
          "time": 4.906976744186046,
          "velocity": 0.07874015748031496
        },
        {
          "duration": 0.13953488372093048,
          "durationTicks": 12,
          "midi": 93,
          "name": "A6",
          "ticks": 423,
          "time": 4.9186046511627906,
          "velocity": 0.1889763779527559
        },
        {
          "duration": 0.11627906976744207,
          "durationTicks": 10,
          "midi": 68,
          "name": "G#4",
          "ticks": 424,
          "time": 4.930232558139535,
          "velocity": 0.2755905511811024
        },
        {
          "duration": 0.058139534883721034,
          "durationTicks": 5,
          "midi": 41,
          "name": "F2",
          "ticks": 427,
          "time": 4.965116279069767,
          "velocity": 0.2204724409448819
        },
        {
          "duration": 0.3023255813953485,
          "durationTicks": 26,
          "midi": 78,
          "name": "F#5",
          "ticks": 427,
          "time": 4.965116279069767,
          "velocity": 0.2992125984251969
        },
        {
          "duration": 0.13953488372093048,
          "durationTicks": 12,
          "midi": 74,
          "name": "D5",
          "ticks": 428,
          "time": 4.976744186046512,
          "velocity": 0.2125984251968504
        },
        {
          "duration": 0.058139534883721034,
          "durationTicks": 5,
          "midi": 81,
          "name": "A5",
          "ticks": 428,
          "time": 4.976744186046512,
          "velocity": 0.1968503937007874
        },
        {
          "duration": 0.04651162790697683,
          "durationTicks": 4,
          "midi": 79,
          "name": "G5",
          "ticks": 431,
          "time": 5.011627906976744,
          "velocity": 0.18110236220472442
        },
        {
          "duration": 0.8488372093023253,
          "durationTicks": 73,
          "midi": 40,
          "name": "E2",
          "ticks": 432,
          "time": 5.023255813953488,
          "velocity": 0.36220472440944884
        },
        {
          "duration": 0.023255813953488413,
          "durationTicks": 2,
          "midi": 67,
          "name": "G4",
          "ticks": 434,
          "time": 5.046511627906977,
          "velocity": 0.25984251968503935
        },
        {
          "duration": 0.03488372093023262,
          "durationTicks": 3,
          "midi": 80,
          "name": "G#5",
          "ticks": 435,
          "time": 5.058139534883721,
          "velocity": 0.12598425196850394
        },
        {
          "duration": 0.03488372093023262,
          "durationTicks": 3,
          "midi": 68,
          "name": "G#4",
          "ticks": 436,
          "time": 5.069767441860465,
          "velocity": 0.33858267716535434
        },
        {
          "duration": 0.04651162790697683,
          "durationTicks": 4,
          "midi": 93,
          "name": "A6",
          "ticks": 437,
          "time": 5.0813953488372094,
          "velocity": 0.14173228346456693
        },
        {
          "duration": 0.10465116279069786,
          "durationTicks": 9,
          "midi": 67,
          "name": "G4",
          "ticks": 439,
          "time": 5.104651162790698,
          "velocity": 0.3700787401574803
        },
        {
          "duration": 0.058139534883721034,
          "durationTicks": 5,
          "midi": 73,
          "name": "C#5",
          "ticks": 440,
          "time": 5.116279069767442,
          "velocity": 0.08661417322834646
        },
        {
          "duration": 0.1511627906976738,
          "durationTicks": 13,
          "midi": 98,
          "name": "D7",
          "ticks": 440,
          "time": 5.116279069767442,
          "velocity": 0.1968503937007874
        },
        {
          "duration": 0.12790697674418539,
          "durationTicks": 11,
          "midi": 86,
          "name": "D6",
          "ticks": 442,
          "time": 5.1395348837209305,
          "velocity": 0.1889763779527559
        },
        {
          "duration": 0.3604651162790695,
          "durationTicks": 31,
          "midi": 95,
          "name": "B6",
          "ticks": 443,
          "time": 5.151162790697675,
          "velocity": 0.3700787401574803
        },
        {
          "duration": 0.1744186046511622,
          "durationTicks": 15,
          "midi": 74,
          "name": "D5",
          "ticks": 445,
          "time": 5.174418604651163,
          "velocity": 0.16535433070866143
        },
        {
          "duration": 0.03488372093023262,
          "durationTicks": 3,
          "midi": 82,
          "name": "A#5",
          "ticks": 447,
          "time": 5.1976744186046515,
          "velocity": 0.11023622047244094
        },
        {
          "duration": 0.08139534883720856,
          "durationTicks": 7,
          "midi": 68,
          "name": "G#4",
          "ticks": 448,
          "time": 5.209302325581396,
          "velocity": 0.4566929133858268
        },
        {
          "duration": 0.1395348837209296,
          "durationTicks": 12,
          "midi": 79,
          "name": "G5",
          "ticks": 450,
          "time": 5.232558139534884,
          "velocity": 0.2125984251968504
        },
        {
          "duration": 0.058139534883720145,
          "durationTicks": 5,
          "midi": 93,
          "name": "A6",
          "ticks": 451,
          "time": 5.244186046511628,
          "velocity": 0.1968503937007874
        },
        {
          "duration": 0.11627906976744118,
          "durationTicks": 10,
          "midi": 101,
          "name": "F7",
          "ticks": 451,
          "time": 5.244186046511628,
          "velocity": 0.09448818897637795
        },
        {
          "duration": 0.04651162790697683,
          "durationTicks": 4,
          "midi": 92,
          "name": "G#6",
          "ticks": 452,
          "time": 5.255813953488372,
          "velocity": 0.14960629921259844
        },
        {
          "duration": 0.10465116279069786,
          "durationTicks": 9,
          "midi": 86,
          "name": "D6",
          "ticks": 454,
          "time": 5.27906976744186,
          "velocity": 0.18110236220472442
        },
        {
          "duration": 0.1744186046511631,
          "durationTicks": 15,
          "midi": 67,
          "name": "G4",
          "ticks": 455,
          "time": 5.290697674418604,
          "velocity": 0.47244094488188976
        },
        {
          "duration": 0.09302325581395365,
          "durationTicks": 8,
          "midi": 78,
          "name": "F#5",
          "ticks": 456,
          "time": 5.3023255813953485,
          "velocity": 0.11023622047244094
        },
        {
          "duration": 0.13953488372093048,
          "durationTicks": 12,
          "midi": 98,
          "name": "D7",
          "ticks": 458,
          "time": 5.325581395348837,
          "velocity": 0.2440944881889764
        },
        {
          "duration": 0.06976744186046524,
          "durationTicks": 6,
          "midi": 82,
          "name": "A#5",
          "ticks": 459,
          "time": 5.337209302325581,
          "velocity": 0.10236220472440945
        },
        {
          "duration": 0.23255813953488413,
          "durationTicks": 20,
          "midi": 93,
          "name": "A6",
          "ticks": 459,
          "time": 5.337209302325581,
          "velocity": 0.1732283464566929
        },
        {
          "duration": 0.058139534883721034,
          "durationTicks": 5,
          "midi": 87,
          "name": "D#6",
          "ticks": 461,
          "time": 5.3604651162790695,
          "velocity": 0.1889763779527559
        },
        {
          "duration": 0.1860465116279073,
          "durationTicks": 16,
          "midi": 74,
          "name": "D5",
          "ticks": 464,
          "time": 5.395348837209302,
          "velocity": 0.14960629921259844
        },
        {
          "duration": 0.058139534883721034,
          "durationTicks": 5,
          "midi": 86,
          "name": "D6",
          "ticks": 465,
          "time": 5.406976744186046,
          "velocity": 0.25984251968503935
        },
        {
          "duration": 0.09302325581395365,
          "durationTicks": 8,
          "midi": 101,
          "name": "F7",
          "ticks": 465,
          "time": 5.406976744186046,
          "velocity": 0.12598425196850394
        },
        {
          "duration": 0.06976744186046524,
          "durationTicks": 6,
          "midi": 92,
          "name": "G#6",
          "ticks": 467,
          "time": 5.430232558139535,
          "velocity": 0.11811023622047244
        },
        {
          "duration": 0.058139534883721034,
          "durationTicks": 5,
          "midi": 81,
          "name": "A5",
          "ticks": 468,
          "time": 5.441860465116279,
          "velocity": 0.14173228346456693
        },
        {
          "duration": 0.43023255813953476,
          "durationTicks": 37,
          "midi": 78,
          "name": "F#5",
          "ticks": 469,
          "time": 5.453488372093023,
          "velocity": 0.3228346456692913
        },
        {
          "duration": 0.04651162790697683,
          "durationTicks": 4,
          "midi": 87,
          "name": "D#6",
          "ticks": 469,
          "time": 5.453488372093023,
          "velocity": 0.2047244094488189
        },
        {
          "duration": 0.058139534883721034,
          "durationTicks": 5,
          "midi": 68,
          "name": "G#4",
          "ticks": 470,
          "time": 5.465116279069767,
          "velocity": 0.3858267716535433
        },
        {
          "duration": 0.12790697674418627,
          "durationTicks": 11,
          "midi": 86,
          "name": "D6",
          "ticks": 472,
          "time": 5.488372093023256,
          "velocity": 0.2677165354330709
        },
        {
          "duration": 0.08139534883720945,
          "durationTicks": 7,
          "midi": 79,
          "name": "G5",
          "ticks": 474,
          "time": 5.511627906976744,
          "velocity": 0.28346456692913385
        },
        {
          "duration": 0.24418604651162745,
          "durationTicks": 21,
          "midi": 67,
          "name": "G4",
          "ticks": 475,
          "time": 5.523255813953488,
          "velocity": 0.48031496062992124
        },
        {
          "duration": 0.12790697674418627,
          "durationTicks": 11,
          "midi": 87,
          "name": "D#6",
          "ticks": 476,
          "time": 5.534883720930233,
          "velocity": 0.2125984251968504
        },
        {
          "duration": 0.3023255813953485,
          "durationTicks": 26,
          "midi": 93,
          "name": "A6",
          "ticks": 480,
          "time": 5.5813953488372094,
          "velocity": 0.25196850393700787
        },
        {
          "duration": 0.04651162790697683,
          "durationTicks": 4,
          "midi": 101,
          "name": "F7",
          "ticks": 480,
          "time": 5.5813953488372094,
          "velocity": 0.07874015748031496
        },
        {
          "duration": 0.18604651162790642,
          "durationTicks": 16,
          "midi": 74,
          "name": "D5",
          "ticks": 484,
          "time": 5.627906976744186,
          "velocity": 0.1732283464566929
        },
        {
          "duration": 0.06976744186046524,
          "durationTicks": 6,
          "midi": 86,
          "name": "D6",
          "ticks": 484,
          "time": 5.627906976744186,
          "velocity": 0.1732283464566929
        },
        {
          "duration": 0.08139534883720945,
          "durationTicks": 7,
          "midi": 92,
          "name": "G#6",
          "ticks": 485,
          "time": 5.6395348837209305,
          "velocity": 0.08661417322834646
        },
        {
          "duration": 0.03488372093023262,
          "durationTicks": 3,
          "midi": 82,
          "name": "A#5",
          "ticks": 486,
          "time": 5.651162790697675,
          "velocity": 0.12598425196850394
        },
        {
          "duration": 0.18604651162790642,
          "durationTicks": 16,
          "midi": 98,
          "name": "D7",
          "ticks": 490,
          "time": 5.6976744186046515,
          "velocity": 0.2440944881889764
        },
        {
          "duration": 0.058139534883720145,
          "durationTicks": 5,
          "midi": 86,
          "name": "D6",
          "ticks": 492,
          "time": 5.72093023255814,
          "velocity": 0.18110236220472442
        },
        {
          "duration": 0.5,
          "durationTicks": 43,
          "midi": 95,
          "name": "B6",
          "ticks": 492,
          "time": 5.72093023255814,
          "velocity": 0.30708661417322836
        },
        {
          "duration": 0.03488372093023262,
          "durationTicks": 3,
          "midi": 92,
          "name": "G#6",
          "ticks": 496,
          "time": 5.767441860465116,
          "velocity": 0.10236220472440945
        },
        {
          "duration": 0.04651162790697683,
          "durationTicks": 4,
          "midi": 67,
          "name": "G4",
          "ticks": 497,
          "time": 5.77906976744186,
          "velocity": 0.33858267716535434
        },
        {
          "duration": 0.03488372093023262,
          "durationTicks": 3,
          "midi": 101,
          "name": "F7",
          "ticks": 499,
          "time": 5.8023255813953485,
          "velocity": 0.12598425196850394
        },
        {
          "duration": 0.06976744186046524,
          "durationTicks": 6,
          "midi": 68,
          "name": "G#4",
          "ticks": 501,
          "time": 5.825581395348837,
          "velocity": 0.33858267716535434
        },
        {
          "duration": 1.616279069767442,
          "durationTicks": 139,
          "midi": 76,
          "name": "E5",
          "ticks": 501,
          "time": 5.825581395348837,
          "velocity": 0.2440944881889764
        },
        {
          "duration": 0.23255813953488413,
          "durationTicks": 20,
          "midi": 86,
          "name": "D6",
          "ticks": 501,
          "time": 5.825581395348837,
          "velocity": 0.18110236220472442
        },
        {
          "duration": 0.13953488372093048,
          "durationTicks": 12,
          "midi": 74,
          "name": "D5",
          "ticks": 504,
          "time": 5.8604651162790695,
          "velocity": 0.12598425196850394
        },
        {
          "duration": 0.20930232558139572,
          "durationTicks": 18,
          "midi": 40,
          "name": "E2",
          "ticks": 507,
          "time": 5.895348837209302,
          "velocity": 0.2677165354330709
        },
        {
          "duration": 0.1860465116279073,
          "durationTicks": 16,
          "midi": 67,
          "name": "G4",
          "ticks": 507,
          "time": 5.895348837209302,
          "velocity": 0.49606299212598426
        },
        {
          "duration": 0.06976744186046524,
          "durationTicks": 6,
          "midi": 78,
          "name": "F#5",
          "ticks": 508,
          "time": 5.906976744186046,
          "velocity": 0.2204724409448819
        },
        {
          "duration": 0.058139534883721034,
          "durationTicks": 5,
          "midi": 87,
          "name": "D#6",
          "ticks": 508,
          "time": 5.906976744186046,
          "velocity": 0.14173228346456693
        },
        {
          "duration": 0.058139534883721034,
          "durationTicks": 5,
          "midi": 93,
          "name": "A6",
          "ticks": 508,
          "time": 5.906976744186046,
          "velocity": 0.2047244094488189
        },
        {
          "duration": 0.03488372093023262,
          "durationTicks": 3,
          "midi": 92,
          "name": "G#6",
          "ticks": 513,
          "time": 5.965116279069767,
          "velocity": 0.14173228346456693
        },
        {
          "duration": 0.2790697674418601,
          "durationTicks": 24,
          "midi": 93,
          "name": "A6",
          "ticks": 515,
          "time": 5.988372093023256,
          "velocity": 0.25984251968503935
        },
        {
          "duration": 0.4534883720930232,
          "durationTicks": 39,
          "midi": 78,
          "name": "F#5",
          "ticks": 518,
          "time": 6.023255813953488,
          "velocity": 0.33070866141732286
        },
        {
          "duration": 0.06976744186046524,
          "durationTicks": 6,
          "midi": 91,
          "name": "G6",
          "ticks": 523,
          "time": 6.0813953488372094,
          "velocity": 0.11811023622047244
        },
        {
          "duration": 0.04651162790697683,
          "durationTicks": 4,
          "midi": 86,
          "name": "D6",
          "ticks": 524,
          "time": 6.093023255813954,
          "velocity": 0.14960629921259844
        },
        {
          "duration": 0.10465116279069786,
          "durationTicks": 9,
          "midi": 74,
          "name": "D5",
          "ticks": 525,
          "time": 6.104651162790698,
          "velocity": 0.11023622047244094
        },
        {
          "duration": 0.04651162790697683,
          "durationTicks": 4,
          "midi": 40,
          "name": "E2",
          "ticks": 526,
          "time": 6.116279069767442,
          "velocity": 0.2440944881889764
        },
        {
          "duration": 0.22093023255813904,
          "durationTicks": 19,
          "midi": 67,
          "name": "G4",
          "ticks": 526,
          "time": 6.116279069767442,
          "velocity": 0.48031496062992124
        },
        {
          "duration": 0.058139534883721034,
          "durationTicks": 5,
          "midi": 86,
          "name": "D6",
          "ticks": 530,
          "time": 6.162790697674419,
          "velocity": 0.14173228346456693
        },
        {
          "duration": 0.1395348837209296,
          "durationTicks": 12,
          "midi": 40,
          "name": "E2",
          "ticks": 532,
          "time": 6.186046511627907,
          "velocity": 0.2440944881889764
        },
        {
          "duration": 0.2906976744186043,
          "durationTicks": 25,
          "midi": 98,
          "name": "D7",
          "ticks": 532,
          "time": 6.186046511627907,
          "velocity": 0.14960629921259844
        },
        {
          "duration": 0.04651162790697683,
          "durationTicks": 4,
          "midi": 87,
          "name": "D#6",
          "ticks": 533,
          "time": 6.1976744186046515,
          "velocity": 0.10236220472440945
        },
        {
          "duration": 0.06976744186046524,
          "durationTicks": 6,
          "midi": 93,
          "name": "A6",
          "ticks": 541,
          "time": 6.290697674418604,
          "velocity": 0.1889763779527559
        },
        {
          "duration": 0.04651162790697683,
          "durationTicks": 4,
          "midi": 87,
          "name": "D#6",
          "ticks": 542,
          "time": 6.3023255813953485,
          "velocity": 0.11023622047244094
        },
        {
          "duration": 0.058139534883721034,
          "durationTicks": 5,
          "midi": 40,
          "name": "E2",
          "ticks": 545,
          "time": 6.337209302325581,
          "velocity": 0.14960629921259844
        },
        {
          "duration": 0.20930232558139572,
          "durationTicks": 18,
          "midi": 67,
          "name": "G4",
          "ticks": 546,
          "time": 6.348837209302325,
          "velocity": 0.4251968503937008
        },
        {
          "duration": 0.058139534883721034,
          "durationTicks": 5,
          "midi": 92,
          "name": "G#6",
          "ticks": 547,
          "time": 6.3604651162790695,
          "velocity": 0.1732283464566929
        },
        {
          "duration": 0.09302325581395365,
          "durationTicks": 8,
          "midi": 87,
          "name": "D#6",
          "ticks": 548,
          "time": 6.372093023255814,
          "velocity": 0.16535433070866143
        },
        {
          "duration": 0.13953488372093048,
          "durationTicks": 12,
          "midi": 40,
          "name": "E2",
          "ticks": 551,
          "time": 6.406976744186046,
          "velocity": 0.15748031496062992
        },
        {
          "duration": 0.1511627906976747,
          "durationTicks": 13,
          "midi": 93,
          "name": "A6",
          "ticks": 551,
          "time": 6.406976744186046,
          "velocity": 0.15748031496062992
        },
        {
          "duration": 0.13953488372093048,
          "durationTicks": 12,
          "midi": 98,
          "name": "D7",
          "ticks": 560,
          "time": 6.511627906976744,
          "velocity": 0.14173228346456693
        },
        {
          "duration": 0.38372093023255793,
          "durationTicks": 33,
          "midi": 78,
          "name": "F#5",
          "ticks": 562,
          "time": 6.534883720930233,
          "velocity": 0.29133858267716534
        },
        {
          "duration": 0.023255813953488413,
          "durationTicks": 2,
          "midi": 68,
          "name": "G#4",
          "ticks": 564,
          "time": 6.558139534883721,
          "velocity": 0.3464566929133858
        },
        {
          "duration": 0.06976744186046524,
          "durationTicks": 6,
          "midi": 67,
          "name": "G4",
          "ticks": 566,
          "time": 6.5813953488372094,
          "velocity": 0.33070866141732286
        },
        {
          "duration": 0.06976744186046524,
          "durationTicks": 6,
          "midi": 87,
          "name": "D#6",
          "ticks": 567,
          "time": 6.593023255813954,
          "velocity": 0.14960629921259844
        },
        {
          "duration": 0.11627906976744118,
          "durationTicks": 10,
          "midi": 67,
          "name": "G4",
          "ticks": 573,
          "time": 6.662790697674419,
          "velocity": 0.3700787401574803
        },
        {
          "duration": 0.03488372093023262,
          "durationTicks": 3,
          "midi": 93,
          "name": "A6",
          "ticks": 573,
          "time": 6.662790697674419,
          "velocity": 0.07874015748031496
        },
        {
          "duration": 0.03488372093023262,
          "durationTicks": 3,
          "midi": 51,
          "name": "D#3",
          "ticks": 574,
          "time": 6.674418604651163,
          "velocity": 0.08661417322834646
        },
        {
          "duration": 0.04651162790697683,
          "durationTicks": 4,
          "midi": 86,
          "name": "D6",
          "ticks": 576,
          "time": 6.6976744186046515,
          "velocity": 0.07086614173228346
        },
        {
          "duration": 0.4534883720930232,
          "durationTicks": 39,
          "midi": 52,
          "name": "E3",
          "ticks": 577,
          "time": 6.709302325581396,
          "velocity": 0.2755905511811024
        },
        {
          "duration": 0.03488372093023173,
          "durationTicks": 3,
          "midi": 91,
          "name": "G6",
          "ticks": 578,
          "time": 6.72093023255814,
          "velocity": 0.07086614173228346
        },
        {
          "duration": 0.12790697674418539,
          "durationTicks": 11,
          "midi": 98,
          "name": "D7",
          "ticks": 579,
          "time": 6.732558139534884,
          "velocity": 0.12598425196850394
        },
        {
          "duration": 0.6511627906976747,
          "durationTicks": 56,
          "midi": 67,
          "name": "G4",
          "ticks": 584,
          "time": 6.790697674418604,
          "velocity": 0.3228346456692913
        },
        {
          "duration": 0.03488372093023262,
          "durationTicks": 3,
          "midi": 78,
          "name": "F#5",
          "ticks": 597,
          "time": 6.941860465116279,
          "velocity": 0.09448818897637795
        },
        {
          "duration": 0.03488372093023262,
          "durationTicks": 3,
          "midi": 87,
          "name": "D#6",
          "ticks": 603,
          "time": 7.011627906976744,
          "velocity": 0.07086614173228346
        },
        {
          "duration": 0.06976744186046524,
          "durationTicks": 6,
          "midi": 86,
          "name": "D6",
          "ticks": 605,
          "time": 7.034883720930233,
          "velocity": 0.09448818897637795
        },
        {
          "duration": 0.8720930232558137,
          "durationTicks": 75,
          "midi": 64,
          "name": "E4",
          "ticks": 607,
          "time": 7.058139534883721,
          "velocity": 0.2992125984251969
        },
        {
          "duration": 0.058139534883721034,
          "durationTicks": 5,
          "midi": 78,
          "name": "F#5",
          "ticks": 609,
          "time": 7.0813953488372094,
          "velocity": 0.12598425196850394
        },
        {
          "duration": 0.18604651162790642,
          "durationTicks": 16,
          "midi": 40,
          "name": "E2",
          "ticks": 611,
          "time": 7.104651162790698,
          "velocity": 0.16535433070866143
        },
        {
          "duration": 0.058139534883720145,
          "durationTicks": 5,
          "midi": 87,
          "name": "D#6",
          "ticks": 619,
          "time": 7.1976744186046515,
          "velocity": 0.10236220472440945
        },
        {
          "duration": 0.1511627906976738,
          "durationTicks": 13,
          "midi": 78,
          "name": "F#5",
          "ticks": 620,
          "time": 7.209302325581396,
          "velocity": 0.14173228346456693
        },
        {
          "duration": 0.3720930232558137,
          "durationTicks": 32,
          "midi": 52,
          "name": "E3",
          "ticks": 623,
          "time": 7.244186046511628,
          "velocity": 0.23622047244094488
        },
        {
          "duration": 0.09302325581395365,
          "durationTicks": 8,
          "midi": 40,
          "name": "E2",
          "ticks": 628,
          "time": 7.3023255813953485,
          "velocity": 0.10236220472440945
        },
        {
          "duration": 0.1627906976744189,
          "durationTicks": 14,
          "midi": 78,
          "name": "F#5",
          "ticks": 636,
          "time": 7.395348837209302,
          "velocity": 0.1968503937007874
        },
        {
          "duration": 0.23255813953488413,
          "durationTicks": 20,
          "midi": 67,
          "name": "G4",
          "ticks": 642,
          "time": 7.465116279069767,
          "velocity": 0.2677165354330709
        },
        {
          "duration": 0.11627906976744207,
          "durationTicks": 10,
          "midi": 78,
          "name": "F#5",
          "ticks": 653,
          "time": 7.593023255813954,
          "velocity": 0.14173228346456693
        },
        {
          "duration": 0.03488372093023262,
          "durationTicks": 3,
          "midi": 41,
          "name": "F2",
          "ticks": 660,
          "time": 7.674418604651163,
          "velocity": 0.14960629921259844
        },
        {
          "duration": 0.8372093023255802,
          "durationTicks": 72,
          "midi": 52,
          "name": "E3",
          "ticks": 662,
          "time": 7.6976744186046515,
          "velocity": 0.1889763779527559
        },
        {
          "duration": 0.162790697674418,
          "durationTicks": 14,
          "midi": 67,
          "name": "G4",
          "ticks": 663,
          "time": 7.709302325581396,
          "velocity": 0.1968503937007874
        },
        {
          "duration": 0.03488372093023173,
          "durationTicks": 3,
          "midi": 41,
          "name": "F2",
          "ticks": 665,
          "time": 7.732558139534884,
          "velocity": 0.11023622047244094
        },
        {
          "duration": 0.20930232558139572,
          "durationTicks": 18,
          "midi": 67,
          "name": "G4",
          "ticks": 680,
          "time": 7.906976744186046,
          "velocity": 0.1968503937007874
        },
        {
          "duration": 0.03488372093023351,
          "durationTicks": 3,
          "midi": 41,
          "name": "F2",
          "ticks": 691,
          "time": 8.034883720930232,
          "velocity": 0.13385826771653545
        },
        {
          "duration": 0.03488372093023351,
          "durationTicks": 3,
          "midi": 40,
          "name": "E2",
          "ticks": 701,
          "time": 8.151162790697674,
          "velocity": 0.07086614173228346
        },
        {
          "duration": 0.1511627906976738,
          "durationTicks": 13,
          "midi": 67,
          "name": "G4",
          "ticks": 722,
          "time": 8.395348837209303,
          "velocity": 0.14960629921259844
        },
        {
          "duration": 0.08139534883721034,
          "durationTicks": 7,
          "midi": 59,
          "name": "B3",
          "ticks": 734,
          "time": 8.534883720930232,
          "velocity": 0.28346456692913385
        },
        {
          "duration": 0.058139534883720145,
          "durationTicks": 5,
          "midi": 50,
          "name": "D3",
          "ticks": 741,
          "time": 8.616279069767442,
          "velocity": 0.5511811023622047
        },
        {
          "duration": 0.12790697674418716,
          "durationTicks": 11,
          "midi": 59,
          "name": "B3",
          "ticks": 742,
          "time": 8.627906976744185,
          "velocity": 0.30708661417322836
        },
        {
          "duration": 0.4534883720930232,
          "durationTicks": 39,
          "midi": 64,
          "name": "E4",
          "ticks": 742,
          "time": 8.627906976744185,
          "velocity": 0.6062992125984252
        },
        {
          "duration": 2.453488372093023,
          "durationTicks": 211,
          "midi": 69,
          "name": "A4",
          "ticks": 746,
          "time": 8.674418604651162,
          "velocity": 0.5118110236220472
        },
        {
          "duration": 0.04651162790697683,
          "durationTicks": 4,
          "midi": 52,
          "name": "E3",
          "ticks": 747,
          "time": 8.686046511627907,
          "velocity": 0.3228346456692913
        },
        {
          "duration": 0.023255813953488413,
          "durationTicks": 2,
          "midi": 51,
          "name": "D#3",
          "ticks": 751,
          "time": 8.732558139534884,
          "velocity": 0.2992125984251969
        },
        {
          "duration": 0.03488372093023173,
          "durationTicks": 3,
          "midi": 50,
          "name": "D3",
          "ticks": 755,
          "time": 8.779069767441861,
          "velocity": 0.29133858267716534
        },
        {
          "duration": 0.09302325581395365,
          "durationTicks": 8,
          "midi": 59,
          "name": "B3",
          "ticks": 755,
          "time": 8.779069767441861,
          "velocity": 0.2204724409448819
        },
        {
          "duration": 0.023255813953488413,
          "durationTicks": 2,
          "midi": 50,
          "name": "D3",
          "ticks": 759,
          "time": 8.825581395348838,
          "velocity": 0.2992125984251969
        },
        {
          "duration": 0.7906976744186043,
          "durationTicks": 68,
          "midi": 52,
          "name": "E3",
          "ticks": 762,
          "time": 8.86046511627907,
          "velocity": 0.4645669291338583
        },
        {
          "duration": 0.38372093023255793,
          "durationTicks": 33,
          "midi": 59,
          "name": "B3",
          "ticks": 766,
          "time": 8.906976744186046,
          "velocity": 0.2125984251968504
        },
        {
          "duration": 0.41860465116279144,
          "durationTicks": 36,
          "midi": 72,
          "name": "C5",
          "ticks": 775,
          "time": 9.011627906976743,
          "velocity": 0.2440944881889764
        },
        {
          "duration": 0.3139534883720927,
          "durationTicks": 27,
          "midi": 86,
          "name": "D6",
          "ticks": 797,
          "time": 9.267441860465116,
          "velocity": 0.07874015748031496
        },
        {
          "duration": 0.13953488372093048,
          "durationTicks": 12,
          "midi": 59,
          "name": "B3",
          "ticks": 802,
          "time": 9.325581395348838,
          "velocity": 0.1889763779527559
        },
        {
          "duration": 0.1511627906976738,
          "durationTicks": 13,
          "midi": 88,
          "name": "E6",
          "ticks": 807,
          "time": 9.383720930232558,
          "velocity": 0.14960629921259844
        },
        {
          "duration": 0.06976744186046524,
          "durationTicks": 6,
          "midi": 62,
          "name": "D4",
          "ticks": 813,
          "time": 9.453488372093023,
          "velocity": 0.2125984251968504
        },
        {
          "duration": 0.04651162790697683,
          "durationTicks": 4,
          "midi": 40,
          "name": "E2",
          "ticks": 821,
          "time": 9.546511627906977,
          "velocity": 0.2047244094488189
        },
        {
          "duration": 0.10465116279069697,
          "durationTicks": 9,
          "midi": 59,
          "name": "B3",
          "ticks": 825,
          "time": 9.593023255813954,
          "velocity": 0.16535433070866143
        },
        {
          "duration": 0.09302325581395365,
          "durationTicks": 8,
          "midi": 40,
          "name": "E2",
          "ticks": 826,
          "time": 9.604651162790697,
          "velocity": 0.13385826771653545
        },
        {
          "duration": 0.1860465116279073,
          "durationTicks": 16,
          "midi": 62,
          "name": "D4",
          "ticks": 829,
          "time": 9.63953488372093,
          "velocity": 0.2204724409448819
        },
        {
          "duration": 0.04651162790697683,
          "durationTicks": 4,
          "midi": 52,
          "name": "E3",
          "ticks": 831,
          "time": 9.662790697674419,
          "velocity": 0.1968503937007874
        },
        {
          "duration": 0.04651162790697683,
          "durationTicks": 4,
          "midi": 88,
          "name": "E6",
          "ticks": 831,
          "time": 9.662790697674419,
          "velocity": 0.10236220472440945
        },
        {
          "duration": 0.10465116279069875,
          "durationTicks": 9,
          "midi": 52,
          "name": "E3",
          "ticks": 836,
          "time": 9.720930232558139,
          "velocity": 0.14960629921259844
        },
        {
          "duration": 0.03488372093023351,
          "durationTicks": 3,
          "midi": 59,
          "name": "B3",
          "ticks": 836,
          "time": 9.720930232558139,
          "velocity": 0.08661417322834646
        },
        {
          "duration": 0.40697674418604635,
          "durationTicks": 35,
          "midi": 88,
          "name": "E6",
          "ticks": 839,
          "time": 9.755813953488373,
          "velocity": 0.25984251968503935
        },
        {
          "duration": 0.12790697674418539,
          "durationTicks": 11,
          "midi": 86,
          "name": "D6",
          "ticks": 841,
          "time": 9.779069767441861,
          "velocity": 0.11811023622047244
        },
        {
          "duration": 0.10465116279069697,
          "durationTicks": 9,
          "midi": 76,
          "name": "E5",
          "ticks": 843,
          "time": 9.80232558139535,
          "velocity": 0.11811023622047244
        },
        {
          "duration": 0.06976744186046524,
          "durationTicks": 6,
          "midi": 90,
          "name": "F#6",
          "ticks": 845,
          "time": 9.825581395348838,
          "velocity": 0.07874015748031496
        },
        {
          "duration": 0.13953488372093048,
          "durationTicks": 12,
          "midi": 64,
          "name": "E4",
          "ticks": 846,
          "time": 9.837209302325581,
          "velocity": 0.28346456692913385
        },
        {
          "duration": 0.09302325581395365,
          "durationTicks": 8,
          "midi": 40,
          "name": "E2",
          "ticks": 854,
          "time": 9.930232558139535,
          "velocity": 0.10236220472440945
        },
        {
          "duration": 5.674418604651162,
          "durationTicks": 488,
          "midi": 52,
          "name": "E3",
          "ticks": 855,
          "time": 9.94186046511628,
          "velocity": 0.6220472440944882
        },
        {
          "duration": 0.08139534883720856,
          "durationTicks": 7,
          "midi": 62,
          "name": "D4",
          "ticks": 859,
          "time": 9.988372093023257,
          "velocity": 0.1968503937007874
        },
        {
          "duration": 0.06976744186046524,
          "durationTicks": 6,
          "midi": 83,
          "name": "B5",
          "ticks": 861,
          "time": 10.011627906976743,
          "velocity": 0.09448818897637795
        },
        {
          "duration": 0.3372093023255829,
          "durationTicks": 29,
          "midi": 86,
          "name": "D6",
          "ticks": 861,
          "time": 10.011627906976743,
          "velocity": 0.16535433070866143
        },
        {
          "duration": 0.10465116279069875,
          "durationTicks": 9,
          "midi": 90,
          "name": "F#6",
          "ticks": 861,
          "time": 10.011627906976743,
          "velocity": 0.15748031496062992
        },
        {
          "duration": 0.1744186046511622,
          "durationTicks": 15,
          "midi": 76,
          "name": "E5",
          "ticks": 864,
          "time": 10.046511627906977,
          "velocity": 0.13385826771653545
        },
        {
          "duration": 0.04651162790697683,
          "durationTicks": 4,
          "midi": 59,
          "name": "B3",
          "ticks": 870,
          "time": 10.116279069767442,
          "velocity": 0.12598425196850394
        },
        {
          "duration": 0.2906976744186043,
          "durationTicks": 25,
          "midi": 59,
          "name": "B3",
          "ticks": 879,
          "time": 10.220930232558139,
          "velocity": 0.2125984251968504
        },
        {
          "duration": 0.10465116279069875,
          "durationTicks": 9,
          "midi": 90,
          "name": "F#6",
          "ticks": 879,
          "time": 10.220930232558139,
          "velocity": 0.1968503937007874
        },
        {
          "duration": 0.06976744186046524,
          "durationTicks": 6,
          "midi": 83,
          "name": "B5",
          "ticks": 880,
          "time": 10.232558139534884,
          "velocity": 0.08661417322834646
        },
        {
          "duration": 0.1511627906976738,
          "durationTicks": 13,
          "midi": 88,
          "name": "E6",
          "ticks": 880,
          "time": 10.232558139534884,
          "velocity": 0.14960629921259844
        },
        {
          "duration": 0.03488372093023173,
          "durationTicks": 3,
          "midi": 97,
          "name": "C#7",
          "ticks": 882,
          "time": 10.255813953488373,
          "velocity": 0.08661417322834646
        },
        {
          "duration": 0.10465116279069875,
          "durationTicks": 9,
          "midi": 100,
          "name": "E7",
          "ticks": 889,
          "time": 10.337209302325581,
          "velocity": 0.16535433070866143
        },
        {
          "duration": 0.3372093023255811,
          "durationTicks": 29,
          "midi": 40,
          "name": "E2",
          "ticks": 893,
          "time": 10.383720930232558,
          "velocity": 0.25196850393700787
        },
        {
          "duration": 0.1627906976744189,
          "durationTicks": 14,
          "midi": 86,
          "name": "D6",
          "ticks": 895,
          "time": 10.406976744186046,
          "velocity": 0.18110236220472442
        },
        {
          "duration": 0.10465116279069697,
          "durationTicks": 9,
          "midi": 90,
          "name": "F#6",
          "ticks": 895,
          "time": 10.406976744186046,
          "velocity": 0.2283464566929134
        },
        {
          "duration": 0.1395348837209287,
          "durationTicks": 12,
          "midi": 88,
          "name": "E6",
          "ticks": 896,
          "time": 10.418604651162791,
          "velocity": 0.28346456692913385
        },
        {
          "duration": 0.08139534883720856,
          "durationTicks": 7,
          "midi": 97,
          "name": "C#7",
          "ticks": 903,
          "time": 10.5,
          "velocity": 0.2204724409448819
        },
        {
          "duration": 0.24418604651162923,
          "durationTicks": 21,
          "midi": 62,
          "name": "D4",
          "ticks": 904,
          "time": 10.511627906976743,
          "velocity": 0.3464566929133858
        },
        {
          "duration": 0.9651162790697683,
          "durationTicks": 83,
          "midi": 88,
          "name": "E6",
          "ticks": 910,
          "time": 10.581395348837209,
          "velocity": 0.3228346456692913
        },
        {
          "duration": 0.10465116279069875,
          "durationTicks": 9,
          "midi": 90,
          "name": "F#6",
          "ticks": 916,
          "time": 10.651162790697674,
          "velocity": 0.2047244094488189
        },
        {
          "duration": 0.08139534883721034,
          "durationTicks": 7,
          "midi": 96,
          "name": "C7",
          "ticks": 920,
          "time": 10.69767441860465,
          "velocity": 0.10236220472440945
        },
        {
          "duration": 0.10465116279069697,
          "durationTicks": 9,
          "midi": 97,
          "name": "C#7",
          "ticks": 921,
          "time": 10.709302325581396,
          "velocity": 0.14173228346456693
        },
        {
          "duration": 0.1627906976744189,
          "durationTicks": 14,
          "midi": 40,
          "name": "E2",
          "ticks": 923,
          "time": 10.732558139534884,
          "velocity": 0.2047244094488189
        },
        {
          "duration": 0.05813953488372192,
          "durationTicks": 5,
          "midi": 62,
          "name": "D4",
          "ticks": 926,
          "time": 10.767441860465116,
          "velocity": 0.3779527559055118
        },
        {
          "duration": 0.05813953488372192,
          "durationTicks": 5,
          "midi": 103,
          "name": "G7",
          "ticks": 930,
          "time": 10.813953488372093,
          "velocity": 0.09448818897637795
        },
        {
          "duration": 0.12790697674418539,
          "durationTicks": 11,
          "midi": 90,
          "name": "F#6",
          "ticks": 931,
          "time": 10.825581395348838,
          "velocity": 0.25196850393700787
        },
        {
          "duration": 0.05813953488372192,
          "durationTicks": 5,
          "midi": 96,
          "name": "C7",
          "ticks": 932,
          "time": 10.837209302325581,
          "velocity": 0.07874015748031496
        },
        {
          "duration": 0.13953488372093048,
          "durationTicks": 12,
          "midi": 97,
          "name": "C#7",
          "ticks": 933,
          "time": 10.848837209302326,
          "velocity": 0.15748031496062992
        },
        {
          "duration": 0.03488372093023351,
          "durationTicks": 3,
          "midi": 40,
          "name": "E2",
          "ticks": 938,
          "time": 10.906976744186046,
          "velocity": 0.16535433070866143
        },
        {
          "duration": 0.08139534883721034,
          "durationTicks": 7,
          "midi": 83,
          "name": "B5",
          "ticks": 938,
          "time": 10.906976744186046,
          "velocity": 0.11023622047244094
        },
        {
          "duration": 0.5116279069767451,
          "durationTicks": 44,
          "midi": 74,
          "name": "D5",
          "ticks": 944,
          "time": 10.976744186046512,
          "velocity": 0.2755905511811024
        },
        {
          "duration": 0.1976744186046524,
          "durationTicks": 17,
          "midi": 90,
          "name": "F#6",
          "ticks": 947,
          "time": 11.011627906976743,
          "velocity": 0.2440944881889764
        },
        {
          "duration": 0.15116279069767558,
          "durationTicks": 13,
          "midi": 97,
          "name": "C#7",
          "ticks": 949,
          "time": 11.034883720930232,
          "velocity": 0.13385826771653545
        },
        {
          "duration": 0.12790697674418539,
          "durationTicks": 11,
          "midi": 83,
          "name": "B5",
          "ticks": 954,
          "time": 11.093023255813954,
          "velocity": 0.12598425196850394
        },
        {
          "duration": 0.08139534883720856,
          "durationTicks": 7,
          "midi": 96,
          "name": "C7",
          "ticks": 954,
          "time": 11.093023255813954,
          "velocity": 0.11811023622047244
        },
        {
          "duration": 0.09302325581395365,
          "durationTicks": 8,
          "midi": 103,
          "name": "G7",
          "ticks": 955,
          "time": 11.104651162790697,
          "velocity": 0.08661417322834646
        },
        {
          "duration": 0.058139534883720145,
          "durationTicks": 5,
          "midi": 71,
          "name": "B4",
          "ticks": 956,
          "time": 11.116279069767442,
          "velocity": 0.14173228346456693
        },
        {
          "duration": 0.06976744186046524,
          "durationTicks": 6,
          "midi": 68,
          "name": "G#4",
          "ticks": 957,
          "time": 11.127906976744185,
          "velocity": 0.2204724409448819
        },
        {
          "duration": 0.03488372093023351,
          "durationTicks": 3,
          "midi": 98,
          "name": "D7",
          "ticks": 957,
          "time": 11.127906976744185,
          "velocity": 0.14960629921259844
        },
        {
          "duration": 0.3255813953488378,
          "durationTicks": 28,
          "midi": 59,
          "name": "B3",
          "ticks": 961,
          "time": 11.174418604651162,
          "velocity": 0.28346456692913385
        },
        {
          "duration": 0.604651162790697,
          "durationTicks": 52,
          "midi": 69,
          "name": "A4",
          "ticks": 962,
          "time": 11.186046511627907,
          "velocity": 0.5196850393700787
        },
        {
          "duration": 0.03488372093023351,
          "durationTicks": 3,
          "midi": 40,
          "name": "E2",
          "ticks": 965,
          "time": 11.220930232558139,
          "velocity": 0.09448818897637795
        },
        {
          "duration": 0.22093023255814082,
          "durationTicks": 19,
          "midi": 96,
          "name": "C7",
          "ticks": 965,
          "time": 11.220930232558139,
          "velocity": 0.15748031496062992
        },
        {
          "duration": 0.10465116279069875,
          "durationTicks": 9,
          "midi": 97,
          "name": "C#7",
          "ticks": 965,
          "time": 11.220930232558139,
          "velocity": 0.1732283464566929
        },
        {
          "duration": 0.03488372093023351,
          "durationTicks": 3,
          "midi": 103,
          "name": "G7",
          "ticks": 965,
          "time": 11.220930232558139,
          "velocity": 0.15748031496062992
        },
        {
          "duration": 0.1627906976744189,
          "durationTicks": 14,
          "midi": 90,
          "name": "F#6",
          "ticks": 966,
          "time": 11.232558139534884,
          "velocity": 0.2755905511811024
        },
        {
          "duration": 0.08139534883721034,
          "durationTicks": 7,
          "midi": 83,
          "name": "B5",
          "ticks": 975,
          "time": 11.337209302325581,
          "velocity": 0.12598425196850394
        },
        {
          "duration": 0.09302325581395365,
          "durationTicks": 8,
          "midi": 92,
          "name": "G#6",
          "ticks": 975,
          "time": 11.337209302325581,
          "velocity": 0.08661417322834646
        },
        {
          "duration": 0.08139534883721034,
          "durationTicks": 7,
          "midi": 97,
          "name": "C#7",
          "ticks": 975,
          "time": 11.337209302325581,
          "velocity": 0.12598425196850394
        },
        {
          "duration": 0.08139534883721034,
          "durationTicks": 7,
          "midi": 103,
          "name": "G7",
          "ticks": 979,
          "time": 11.383720930232558,
          "velocity": 0.12598425196850394
        },
        {
          "duration": 0.11627906976744029,
          "durationTicks": 10,
          "midi": 40,
          "name": "E2",
          "ticks": 982,
          "time": 11.418604651162791,
          "velocity": 0.1732283464566929
        },
        {
          "duration": 0.2906976744186043,
          "durationTicks": 25,
          "midi": 97,
          "name": "C#7",
          "ticks": 985,
          "time": 11.453488372093023,
          "velocity": 0.2047244094488189
        },
        {
          "duration": 0.04651162790697683,
          "durationTicks": 4,
          "midi": 90,
          "name": "F#6",
          "ticks": 987,
          "time": 11.476744186046512,
          "velocity": 0.2204724409448819
        },
        {
          "duration": 0.13953488372093048,
          "durationTicks": 12,
          "midi": 74,
          "name": "D5",
          "ticks": 989,
          "time": 11.5,
          "velocity": 0.1889763779527559
        },
        {
          "duration": 0.11627906976744207,
          "durationTicks": 10,
          "midi": 92,
          "name": "G#6",
          "ticks": 992,
          "time": 11.534883720930232,
          "velocity": 0.2047244094488189
        },
        {
          "duration": 0.26744186046511587,
          "durationTicks": 23,
          "midi": 40,
          "name": "E2",
          "ticks": 993,
          "time": 11.546511627906977,
          "velocity": 0.2755905511811024
        },
        {
          "duration": 0.24418604651162745,
          "durationTicks": 21,
          "midi": 90,
          "name": "F#6",
          "ticks": 993,
          "time": 11.546511627906977,
          "velocity": 0.1889763779527559
        },
        {
          "duration": 0.11627906976744207,
          "durationTicks": 10,
          "midi": 95,
          "name": "B6",
          "ticks": 993,
          "time": 11.546511627906977,
          "velocity": 0.18110236220472442
        },
        {
          "duration": 1.4534883720930232,
          "durationTicks": 125,
          "midi": 88,
          "name": "E6",
          "ticks": 994,
          "time": 11.55813953488372,
          "velocity": 0.3700787401574803
        },
        {
          "duration": 0.03488372093023351,
          "durationTicks": 3,
          "midi": 103,
          "name": "G7",
          "ticks": 994,
          "time": 11.55813953488372,
          "velocity": 0.14173228346456693
        },
        {
          "duration": 0.1744186046511622,
          "durationTicks": 15,
          "midi": 83,
          "name": "B5",
          "ticks": 995,
          "time": 11.569767441860465,
          "velocity": 0.25984251968503935
        },
        {
          "duration": 0.03488372093023173,
          "durationTicks": 3,
          "midi": 98,
          "name": "D7",
          "ticks": 995,
          "time": 11.569767441860465,
          "velocity": 0.07086614173228346
        },
        {
          "duration": 0.03488372093023173,
          "durationTicks": 3,
          "midi": 71,
          "name": "B4",
          "ticks": 999,
          "time": 11.616279069767442,
          "velocity": 0.11811023622047244
        },
        {
          "duration": 0.06976744186046524,
          "durationTicks": 6,
          "midi": 96,
          "name": "C7",
          "ticks": 999,
          "time": 11.616279069767442,
          "velocity": 0.14960629921259844
        },
        {
          "duration": 0.24418604651162745,
          "durationTicks": 21,
          "midi": 98,
          "name": "D7",
          "ticks": 1001,
          "time": 11.63953488372093,
          "velocity": 0.2125984251968504
        },
        {
          "duration": 0.13953488372093048,
          "durationTicks": 12,
          "midi": 86,
          "name": "D6",
          "ticks": 1003,
          "time": 11.662790697674419,
          "velocity": 0.18110236220472442
        },
        {
          "duration": 0.12790697674418539,
          "durationTicks": 11,
          "midi": 74,
          "name": "D5",
          "ticks": 1005,
          "time": 11.686046511627907,
          "velocity": 0.2992125984251969
        },
        {
          "duration": 2.220930232558141,
          "durationTicks": 191,
          "midi": 59,
          "name": "B3",
          "ticks": 1008,
          "time": 11.720930232558139,
          "velocity": 0.3858267716535433
        },
        {
          "duration": 0.20930232558139572,
          "durationTicks": 18,
          "midi": 83,
          "name": "B5",
          "ticks": 1011,
          "time": 11.755813953488373,
          "velocity": 0.1968503937007874
        },
        {
          "duration": 0.10465116279069875,
          "durationTicks": 9,
          "midi": 92,
          "name": "G#6",
          "ticks": 1012,
          "time": 11.767441860465116,
          "velocity": 0.14173228346456693
        },
        {
          "duration": 0.1627906976744189,
          "durationTicks": 14,
          "midi": 97,
          "name": "C#7",
          "ticks": 1012,
          "time": 11.767441860465116,
          "velocity": 0.2125984251968504
        },
        {
          "duration": 0.2790697674418592,
          "durationTicks": 24,
          "midi": 69,
          "name": "A4",
          "ticks": 1015,
          "time": 11.80232558139535,
          "velocity": 0.4566929133858268
        },
        {
          "duration": 0.04651162790697683,
          "durationTicks": 4,
          "midi": 90,
          "name": "F#6",
          "ticks": 1016,
          "time": 11.813953488372093,
          "velocity": 0.14960629921259844
        },
        {
          "duration": 0.1744186046511622,
          "durationTicks": 15,
          "midi": 40,
          "name": "E2",
          "ticks": 1017,
          "time": 11.825581395348838,
          "velocity": 0.25196850393700787
        },
        {
          "duration": 0.08139534883720856,
          "durationTicks": 7,
          "midi": 74,
          "name": "D5",
          "ticks": 1017,
          "time": 11.825581395348838,
          "velocity": 0.28346456692913385
        },
        {
          "duration": 0.023255813953488413,
          "durationTicks": 2,
          "midi": 62,
          "name": "D4",
          "ticks": 1021,
          "time": 11.872093023255815,
          "velocity": 0.2677165354330709
        },
        {
          "duration": 0.05813953488372192,
          "durationTicks": 5,
          "midi": 90,
          "name": "F#6",
          "ticks": 1022,
          "time": 11.883720930232558,
          "velocity": 0.15748031496062992
        },
        {
          "duration": 0.12790697674418539,
          "durationTicks": 11,
          "midi": 103,
          "name": "G7",
          "ticks": 1023,
          "time": 11.895348837209303,
          "velocity": 0.08661417322834646
        },
        {
          "duration": 0.023255813953488413,
          "durationTicks": 2,
          "midi": 62,
          "name": "D4",
          "ticks": 1024,
          "time": 11.906976744186046,
          "velocity": 0.2755905511811024
        },
        {
          "duration": 0.40697674418604635,
          "durationTicks": 35,
          "midi": 86,
          "name": "D6",
          "ticks": 1024,
          "time": 11.906976744186046,
          "velocity": 0.1968503937007874
        },
        {
          "duration": 0.09302325581395365,
          "durationTicks": 8,
          "midi": 92,
          "name": "G#6",
          "ticks": 1024,
          "time": 11.906976744186046,
          "velocity": 0.1968503937007874
        },
        {
          "duration": 0.05813953488372192,
          "durationTicks": 5,
          "midi": 96,
          "name": "C7",
          "ticks": 1024,
          "time": 11.906976744186046,
          "velocity": 0.09448818897637795
        },
        {
          "duration": 0.023255813953488413,
          "durationTicks": 2,
          "midi": 62,
          "name": "D4",
          "ticks": 1027,
          "time": 11.94186046511628,
          "velocity": 0.2677165354330709
        },
        {
          "duration": 0.16279069767441712,
          "durationTicks": 14,
          "midi": 97,
          "name": "C#7",
          "ticks": 1029,
          "time": 11.965116279069768,
          "velocity": 0.2047244094488189
        },
        {
          "duration": 0.04651162790697683,
          "durationTicks": 4,
          "midi": 62,
          "name": "D4",
          "ticks": 1030,
          "time": 11.976744186046512,
          "velocity": 0.29133858267716534
        },
        {
          "duration": 1.4302325581395365,
          "durationTicks": 123,
          "midi": 40,
          "name": "E2",
          "ticks": 1033,
          "time": 12.011627906976743,
          "velocity": 0.3937007874015748
        },
        {
          "duration": 0.05813953488372192,
          "durationTicks": 5,
          "midi": 90,
          "name": "F#6",
          "ticks": 1033,
          "time": 12.011627906976743,
          "velocity": 0.11811023622047244
        },
        {
          "duration": 0.04651162790697683,
          "durationTicks": 4,
          "midi": 96,
          "name": "C7",
          "ticks": 1033,
          "time": 12.011627906976743,
          "velocity": 0.11023622047244094
        },
        {
          "duration": 0.2906976744186043,
          "durationTicks": 25,
          "midi": 83,
          "name": "B5",
          "ticks": 1034,
          "time": 12.023255813953488,
          "velocity": 0.2677165354330709
        },
        {
          "duration": 0.023255813953488413,
          "durationTicks": 2,
          "midi": 62,
          "name": "D4",
          "ticks": 1035,
          "time": 12.034883720930232,
          "velocity": 0.3228346456692913
        },
        {
          "duration": 0.09302325581395365,
          "durationTicks": 8,
          "midi": 80,
          "name": "G#5",
          "ticks": 1035,
          "time": 12.034883720930232,
          "velocity": 0.07086614173228346
        },
        {
          "duration": 1.5348837209302317,
          "durationTicks": 132,
          "midi": 76,
          "name": "E5",
          "ticks": 1036,
          "time": 12.046511627906977,
          "velocity": 0.3779527559055118
        },
        {
          "duration": 0.058139534883720145,
          "durationTicks": 5,
          "midi": 92,
          "name": "G#6",
          "ticks": 1036,
          "time": 12.046511627906977,
          "velocity": 0.08661417322834646
        },
        {
          "duration": 0.27906976744186096,
          "durationTicks": 24,
          "midi": 74,
          "name": "D5",
          "ticks": 1037,
          "time": 12.05813953488372,
          "velocity": 0.2677165354330709
        },
        {
          "duration": 0.03488372093023351,
          "durationTicks": 3,
          "midi": 68,
          "name": "G#4",
          "ticks": 1039,
          "time": 12.081395348837209,
          "velocity": 0.3543307086614173
        },
        {
          "duration": 0.1627906976744189,
          "durationTicks": 14,
          "midi": 90,
          "name": "F#6",
          "ticks": 1040,
          "time": 12.093023255813954,
          "velocity": 0.15748031496062992
        },
        {
          "duration": 0.09302325581395365,
          "durationTicks": 8,
          "midi": 69,
          "name": "A4",
          "ticks": 1042,
          "time": 12.116279069767442,
          "velocity": 0.44881889763779526
        },
        {
          "duration": 0.1511627906976738,
          "durationTicks": 13,
          "midi": 92,
          "name": "G#6",
          "ticks": 1042,
          "time": 12.116279069767442,
          "velocity": 0.1889763779527559
        },
        {
          "duration": 0.13953488372093048,
          "durationTicks": 12,
          "midi": 97,
          "name": "C#7",
          "ticks": 1045,
          "time": 12.151162790697674,
          "velocity": 0.2204724409448819
        },
        {
          "duration": 0.06976744186046524,
          "durationTicks": 6,
          "midi": 96,
          "name": "C7",
          "ticks": 1046,
          "time": 12.162790697674419,
          "velocity": 0.10236220472440945
        },
        {
          "duration": 0.03488372093023351,
          "durationTicks": 3,
          "midi": 80,
          "name": "G#5",
          "ticks": 1049,
          "time": 12.19767441860465,
          "velocity": 0.08661417322834646
        },
        {
          "duration": 0.04651162790697683,
          "durationTicks": 4,
          "midi": 62,
          "name": "D4",
          "ticks": 1050,
          "time": 12.209302325581396,
          "velocity": 0.3228346456692913
        },
        {
          "duration": 0.46511627906976827,
          "durationTicks": 40,
          "midi": 69,
          "name": "A4",
          "ticks": 1051,
          "time": 12.220930232558139,
          "velocity": 0.47244094488188976
        },
        {
          "duration": 0.03488372093023173,
          "durationTicks": 3,
          "midi": 96,
          "name": "C7",
          "ticks": 1054,
          "time": 12.255813953488373,
          "velocity": 0.09448818897637795
        },
        {
          "duration": 0.1976744186046524,
          "durationTicks": 17,
          "midi": 90,
          "name": "F#6",
          "ticks": 1055,
          "time": 12.267441860465116,
          "velocity": 0.11811023622047244
        },
        {
          "duration": 0.04651162790697683,
          "durationTicks": 4,
          "midi": 95,
          "name": "B6",
          "ticks": 1059,
          "time": 12.313953488372093,
          "velocity": 0.14173228346456693
        },
        {
          "duration": 0.3023255813953494,
          "durationTicks": 26,
          "midi": 97,
          "name": "C#7",
          "ticks": 1059,
          "time": 12.313953488372093,
          "velocity": 0.2047244094488189
        },
        {
          "duration": 0.03488372093023173,
          "durationTicks": 3,
          "midi": 92,
          "name": "G#6",
          "ticks": 1060,
          "time": 12.325581395348838,
          "velocity": 0.08661417322834646
        },
        {
          "duration": 0.13953488372093048,
          "durationTicks": 12,
          "midi": 83,
          "name": "B5",
          "ticks": 1061,
          "time": 12.337209302325581,
          "velocity": 0.2755905511811024
        },
        {
          "duration": 0.09302325581395365,
          "durationTicks": 8,
          "midi": 74,
          "name": "D5",
          "ticks": 1062,
          "time": 12.348837209302326,
          "velocity": 0.30708661417322836
        },
        {
          "duration": 0.06976744186046524,
          "durationTicks": 6,
          "midi": 96,
          "name": "C7",
          "ticks": 1065,
          "time": 12.383720930232558,
          "velocity": 0.14173228346456693
        },
        {
          "duration": 0.22093023255813904,
          "durationTicks": 19,
          "midi": 92,
          "name": "G#6",
          "ticks": 1066,
          "time": 12.395348837209303,
          "velocity": 0.2125984251968504
        },
        {
          "duration": 0.058139534883720145,
          "durationTicks": 5,
          "midi": 62,
          "name": "D4",
          "ticks": 1068,
          "time": 12.418604651162791,
          "velocity": 0.30708661417322836
        },
        {
          "duration": 0.20930232558139394,
          "durationTicks": 18,
          "midi": 83,
          "name": "B5",
          "ticks": 1074,
          "time": 12.488372093023257,
          "velocity": 0.25196850393700787
        },
        {
          "duration": 0.08139534883721034,
          "durationTicks": 7,
          "midi": 74,
          "name": "D5",
          "ticks": 1080,
          "time": 12.55813953488372,
          "velocity": 0.29133858267716534
        },
        {
          "duration": 0.11627906976744207,
          "durationTicks": 10,
          "midi": 96,
          "name": "C7",
          "ticks": 1080,
          "time": 12.55813953488372,
          "velocity": 0.11023622047244094
        },
        {
          "duration": 0.12790697674418716,
          "durationTicks": 11,
          "midi": 103,
          "name": "G7",
          "ticks": 1084,
          "time": 12.604651162790697,
          "velocity": 0.13385826771653545
        },
        {
          "duration": 0.03488372093023173,
          "durationTicks": 3,
          "midi": 92,
          "name": "G#6",
          "ticks": 1087,
          "time": 12.63953488372093,
          "velocity": 0.08661417322834646
        },
        {
          "duration": 0.09302325581395365,
          "durationTicks": 8,
          "midi": 74,
          "name": "D5",
          "ticks": 1088,
          "time": 12.651162790697674,
          "velocity": 0.29133858267716534
        },
        {
          "duration": 0.15116279069767558,
          "durationTicks": 13,
          "midi": 97,
          "name": "C#7",
          "ticks": 1088,
          "time": 12.651162790697674,
          "velocity": 0.1968503937007874
        },
        {
          "duration": 0.03488372093023173,
          "durationTicks": 3,
          "midi": 102,
          "name": "F#7",
          "ticks": 1089,
          "time": 12.662790697674419,
          "velocity": 0.07086614173228346
        },
        {
          "duration": 0.11627906976744207,
          "durationTicks": 10,
          "midi": 69,
          "name": "A4",
          "ticks": 1092,
          "time": 12.69767441860465,
          "velocity": 0.4409448818897638
        },
        {
          "duration": 0.6279069767441872,
          "durationTicks": 54,
          "midi": 83,
          "name": "B5",
          "ticks": 1094,
          "time": 12.720930232558139,
          "velocity": 0.23622047244094488
        },
        {
          "duration": 0.40697674418604635,
          "durationTicks": 35,
          "midi": 86,
          "name": "D6",
          "ticks": 1096,
          "time": 12.744186046511627,
          "velocity": 0.2047244094488189
        },
        {
          "duration": 0.08139534883721034,
          "durationTicks": 7,
          "midi": 92,
          "name": "G#6",
          "ticks": 1096,
          "time": 12.744186046511627,
          "velocity": 0.1732283464566929
        },
        {
          "duration": 0.10465116279069697,
          "durationTicks": 9,
          "midi": 74,
          "name": "D5",
          "ticks": 1097,
          "time": 12.755813953488373,
          "velocity": 0.3228346456692913
        },
        {
          "duration": 0.04651162790697683,
          "durationTicks": 4,
          "midi": 80,
          "name": "G#5",
          "ticks": 1098,
          "time": 12.767441860465116,
          "velocity": 0.07874015748031496
        },
        {
          "duration": 0.058139534883720145,
          "durationTicks": 5,
          "midi": 94,
          "name": "A#6",
          "ticks": 1099,
          "time": 12.779069767441861,
          "velocity": 0.07086614173228346
        },
        {
          "duration": 0.08139534883721034,
          "durationTicks": 7,
          "midi": 103,
          "name": "G7",
          "ticks": 1100,
          "time": 12.790697674418604,
          "velocity": 0.11811023622047244
        },
        {
          "duration": 0.11627906976744207,
          "durationTicks": 10,
          "midi": 68,
          "name": "G#4",
          "ticks": 1102,
          "time": 12.813953488372093,
          "velocity": 0.4015748031496063
        },
        {
          "duration": 0.20930232558139572,
          "durationTicks": 18,
          "midi": 97,
          "name": "C#7",
          "ticks": 1102,
          "time": 12.813953488372093,
          "velocity": 0.25984251968503935
        },
        {
          "duration": 0.04651162790697683,
          "durationTicks": 4,
          "midi": 102,
          "name": "F#7",
          "ticks": 1104,
          "time": 12.837209302325581,
          "velocity": 0.08661417322834646
        },
        {
          "duration": 0.11627906976744207,
          "durationTicks": 10,
          "midi": 74,
          "name": "D5",
          "ticks": 1107,
          "time": 12.872093023255815,
          "velocity": 0.29133858267716534
        },
        {
          "duration": 0.03488372093023351,
          "durationTicks": 3,
          "midi": 92,
          "name": "G#6",
          "ticks": 1110,
          "time": 12.906976744186046,
          "velocity": 0.11023622047244094
        },
        {
          "duration": 0.06976744186046524,
          "durationTicks": 6,
          "midi": 96,
          "name": "C7",
          "ticks": 1112,
          "time": 12.930232558139535,
          "velocity": 0.11023622047244094
        },
        {
          "duration": 0.09302325581395188,
          "durationTicks": 8,
          "midi": 62,
          "name": "D4",
          "ticks": 1113,
          "time": 12.94186046511628,
          "velocity": 0.29133858267716534
        },
        {
          "duration": 0.325581395348836,
          "durationTicks": 28,
          "midi": 69,
          "name": "A4",
          "ticks": 1113,
          "time": 12.94186046511628,
          "velocity": 0.5196850393700787
        },
        {
          "duration": 0.04651162790697683,
          "durationTicks": 4,
          "midi": 103,
          "name": "G7",
          "ticks": 1116,
          "time": 12.976744186046512,
          "velocity": 0.09448818897637795
        },
        {
          "duration": 0.06976744186046346,
          "durationTicks": 6,
          "midi": 92,
          "name": "G#6",
          "ticks": 1117,
          "time": 12.988372093023257,
          "velocity": 0.13385826771653545
        },
        {
          "duration": 0.41860465116279144,
          "durationTicks": 36,
          "midi": 97,
          "name": "C#7",
          "ticks": 1121,
          "time": 13.034883720930232,
          "velocity": 0.3543307086614173
        },
        {
          "duration": 0.04651162790697683,
          "durationTicks": 4,
          "midi": 80,
          "name": "G#5",
          "ticks": 1124,
          "time": 13.069767441860465,
          "velocity": 0.09448818897637795
        },
        {
          "duration": 0.09302325581395365,
          "durationTicks": 8,
          "midi": 96,
          "name": "C7",
          "ticks": 1129,
          "time": 13.127906976744185,
          "velocity": 0.11023622047244094
        },
        {
          "duration": 0.03488372093023173,
          "durationTicks": 3,
          "midi": 103,
          "name": "G7",
          "ticks": 1130,
          "time": 13.13953488372093,
          "velocity": 0.09448818897637795
        },
        {
          "duration": 0.11627906976744207,
          "durationTicks": 10,
          "midi": 100,
          "name": "E7",
          "ticks": 1134,
          "time": 13.186046511627907,
          "velocity": 0.25984251968503935
        },
        {
          "duration": 0.05813953488372192,
          "durationTicks": 5,
          "midi": 103,
          "name": "G7",
          "ticks": 1135,
          "time": 13.19767441860465,
          "velocity": 0.13385826771653545
        },
        {
          "duration": 0.03488372093023351,
          "durationTicks": 3,
          "midi": 68,
          "name": "G#4",
          "ticks": 1141,
          "time": 13.267441860465116,
          "velocity": 0.2755905511811024
        },
        {
          "duration": 0.03488372093023173,
          "durationTicks": 3,
          "midi": 90,
          "name": "F#6",
          "ticks": 1142,
          "time": 13.279069767441861,
          "velocity": 0.07874015748031496
        },
        {
          "duration": 1.383720930232558,
          "durationTicks": 119,
          "midi": 69,
          "name": "A4",
          "ticks": 1144,
          "time": 13.30232558139535,
          "velocity": 0.5748031496062992
        },
        {
          "duration": 0.13953488372093048,
          "durationTicks": 12,
          "midi": 96,
          "name": "C7",
          "ticks": 1144,
          "time": 13.30232558139535,
          "velocity": 0.11023622047244094
        },
        {
          "duration": 0.03488372093023351,
          "durationTicks": 3,
          "midi": 95,
          "name": "B6",
          "ticks": 1149,
          "time": 13.36046511627907,
          "velocity": 0.07874015748031496
        },
        {
          "duration": 0.06976744186046524,
          "durationTicks": 6,
          "midi": 90,
          "name": "F#6",
          "ticks": 1151,
          "time": 13.383720930232558,
          "velocity": 0.08661417322834646
        },
        {
          "duration": 0.04651162790697683,
          "durationTicks": 4,
          "midi": 80,
          "name": "G#5",
          "ticks": 1152,
          "time": 13.395348837209303,
          "velocity": 0.07874015748031496
        },
        {
          "duration": 0.12790697674418539,
          "durationTicks": 11,
          "midi": 103,
          "name": "G7",
          "ticks": 1152,
          "time": 13.395348837209303,
          "velocity": 0.14960629921259844
        },
        {
          "duration": 0.1511627906976738,
          "durationTicks": 13,
          "midi": 100,
          "name": "E7",
          "ticks": 1153,
          "time": 13.406976744186046,
          "velocity": 0.25196850393700787
        },
        {
          "duration": 0.10465116279069697,
          "durationTicks": 9,
          "midi": 83,
          "name": "B5",
          "ticks": 1156,
          "time": 13.44186046511628,
          "velocity": 0.1732283464566929
        },
        {
          "duration": 1.0930232558139537,
          "durationTicks": 94,
          "midi": 40,
          "name": "E2",
          "ticks": 1157,
          "time": 13.453488372093023,
          "velocity": 0.36220472440944884
        },
        {
          "duration": 0.058139534883720145,
          "durationTicks": 5,
          "midi": 96,
          "name": "C7",
          "ticks": 1159,
          "time": 13.476744186046512,
          "velocity": 0.11811023622047244
        },
        {
          "duration": 0.6976744186046506,
          "durationTicks": 60,
          "midi": 97,
          "name": "C#7",
          "ticks": 1160,
          "time": 13.488372093023257,
          "velocity": 0.28346456692913385
        },
        {
          "duration": 0.04651162790697683,
          "durationTicks": 4,
          "midi": 92,
          "name": "G#6",
          "ticks": 1161,
          "time": 13.5,
          "velocity": 0.13385826771653545
        },
        {
          "duration": 0.04651162790697683,
          "durationTicks": 4,
          "midi": 80,
          "name": "G#5",
          "ticks": 1163,
          "time": 13.523255813953488,
          "velocity": 0.09448818897637795
        },
        {
          "duration": 0.06976744186046524,
          "durationTicks": 6,
          "midi": 83,
          "name": "B5",
          "ticks": 1167,
          "time": 13.569767441860465,
          "velocity": 0.13385826771653545
        },
        {
          "duration": 0.20930232558139572,
          "durationTicks": 18,
          "midi": 95,
          "name": "B6",
          "ticks": 1167,
          "time": 13.569767441860465,
          "velocity": 0.2204724409448819
        },
        {
          "duration": 0.24418604651162745,
          "durationTicks": 21,
          "midi": 96,
          "name": "C7",
          "ticks": 1167,
          "time": 13.569767441860465,
          "velocity": 0.15748031496062992
        },
        {
          "duration": 0.7558139534883725,
          "durationTicks": 65,
          "midi": 88,
          "name": "E6",
          "ticks": 1168,
          "time": 13.581395348837209,
          "velocity": 0.25196850393700787
        },
        {
          "duration": 0.06976744186046524,
          "durationTicks": 6,
          "midi": 98,
          "name": "D7",
          "ticks": 1170,
          "time": 13.604651162790697,
          "velocity": 0.11811023622047244
        },
        {
          "duration": 0.1511627906976738,
          "durationTicks": 13,
          "midi": 74,
          "name": "D5",
          "ticks": 1171,
          "time": 13.616279069767442,
          "velocity": 0.2755905511811024
        },
        {
          "duration": 0.05813953488372192,
          "durationTicks": 5,
          "midi": 90,
          "name": "F#6",
          "ticks": 1172,
          "time": 13.627906976744185,
          "velocity": 0.1889763779527559
        },
        {
          "duration": 0.15116279069767558,
          "durationTicks": 13,
          "midi": 103,
          "name": "G7",
          "ticks": 1174,
          "time": 13.651162790697674,
          "velocity": 0.14960629921259844
        },
        {
          "duration": 0.1627906976744189,
          "durationTicks": 14,
          "midi": 83,
          "name": "B5",
          "ticks": 1180,
          "time": 13.720930232558139,
          "velocity": 0.1732283464566929
        },
        {
          "duration": 0.03488372093023351,
          "durationTicks": 3,
          "midi": 92,
          "name": "G#6",
          "ticks": 1180,
          "time": 13.720930232558139,
          "velocity": 0.07874015748031496
        },
        {
          "duration": 0.174418604651164,
          "durationTicks": 15,
          "midi": 90,
          "name": "F#6",
          "ticks": 1182,
          "time": 13.744186046511627,
          "velocity": 0.14960629921259844
        },
        {
          "duration": 0.12790697674418539,
          "durationTicks": 11,
          "midi": 74,
          "name": "D5",
          "ticks": 1185,
          "time": 13.779069767441861,
          "velocity": 0.2677165354330709
        },
        {
          "duration": 0.08139534883720856,
          "durationTicks": 7,
          "midi": 103,
          "name": "G7",
          "ticks": 1191,
          "time": 13.848837209302326,
          "velocity": 0.09448818897637795
        },
        {
          "duration": 0.06976744186046524,
          "durationTicks": 6,
          "midi": 95,
          "name": "B6",
          "ticks": 1194,
          "time": 13.883720930232558,
          "velocity": 0.12598425196850394
        },
        {
          "duration": 0.04651162790697683,
          "durationTicks": 4,
          "midi": 96,
          "name": "C7",
          "ticks": 1195,
          "time": 13.895348837209303,
          "velocity": 0.15748031496062992
        },
        {
          "duration": 0.18604651162790553,
          "durationTicks": 16,
          "midi": 74,
          "name": "D5",
          "ticks": 1197,
          "time": 13.918604651162791,
          "velocity": 0.2755905511811024
        },
        {
          "duration": 0.058139534883720145,
          "durationTicks": 5,
          "midi": 92,
          "name": "G#6",
          "ticks": 1199,
          "time": 13.94186046511628,
          "velocity": 0.11811023622047244
        },
        {
          "duration": 0.04651162790697683,
          "durationTicks": 4,
          "midi": 59,
          "name": "B3",
          "ticks": 1200,
          "time": 13.953488372093023,
          "velocity": 0.2283464566929134
        },
        {
          "duration": 0.12790697674418539,
          "durationTicks": 11,
          "midi": 62,
          "name": "D4",
          "ticks": 1200,
          "time": 13.953488372093023,
          "velocity": 0.3464566929133858
        },
        {
          "duration": 0.09302325581395365,
          "durationTicks": 8,
          "midi": 90,
          "name": "F#6",
          "ticks": 1200,
          "time": 13.953488372093023,
          "velocity": 0.12598425196850394
        },
        {
          "duration": 0.058139534883720145,
          "durationTicks": 5,
          "midi": 95,
          "name": "B6",
          "ticks": 1202,
          "time": 13.976744186046512,
          "velocity": 0.12598425196850394
        },
        {
          "duration": 0.04651162790697683,
          "durationTicks": 4,
          "midi": 59,
          "name": "B3",
          "ticks": 1207,
          "time": 14.034883720930232,
          "velocity": 0.14960629921259844
        },
        {
          "duration": 0.25581395348837255,
          "durationTicks": 22,
          "midi": 83,
          "name": "B5",
          "ticks": 1211,
          "time": 14.081395348837209,
          "velocity": 0.1889763779527559
        },
        {
          "duration": 0.10465116279069875,
          "durationTicks": 9,
          "midi": 74,
          "name": "D5",
          "ticks": 1215,
          "time": 14.127906976744185,
          "velocity": 0.28346456692913385
        },
        {
          "duration": 0.09302325581395365,
          "durationTicks": 8,
          "midi": 92,
          "name": "G#6",
          "ticks": 1216,
          "time": 14.13953488372093,
          "velocity": 0.14173228346456693
        },
        {
          "duration": 0.05813953488372192,
          "durationTicks": 5,
          "midi": 71,
          "name": "B4",
          "ticks": 1217,
          "time": 14.151162790697674,
          "velocity": 0.11811023622047244
        },
        {
          "duration": 0.10465116279069697,
          "durationTicks": 9,
          "midi": 90,
          "name": "F#6",
          "ticks": 1218,
          "time": 14.162790697674419,
          "velocity": 0.1889763779527559
        },
        {
          "duration": 0.03488372093023351,
          "durationTicks": 3,
          "midi": 97,
          "name": "C#7",
          "ticks": 1223,
          "time": 14.220930232558139,
          "velocity": 0.10236220472440945
        },
        {
          "duration": 0.3720930232558146,
          "durationTicks": 32,
          "midi": 74,
          "name": "D5",
          "ticks": 1227,
          "time": 14.267441860465116,
          "velocity": 0.29133858267716534
        },
        {
          "duration": 0.2790697674418592,
          "durationTicks": 24,
          "midi": 97,
          "name": "C#7",
          "ticks": 1228,
          "time": 14.279069767441861,
          "velocity": 0.18110236220472442
        },
        {
          "duration": 0.3023255813953476,
          "durationTicks": 26,
          "midi": 59,
          "name": "B3",
          "ticks": 1230,
          "time": 14.30232558139535,
          "velocity": 0.3228346456692913
        },
        {
          "duration": 0.11627906976744207,
          "durationTicks": 10,
          "midi": 92,
          "name": "G#6",
          "ticks": 1232,
          "time": 14.325581395348838,
          "velocity": 0.11811023622047244
        },
        {
          "duration": 0.3372093023255811,
          "durationTicks": 29,
          "midi": 83,
          "name": "B5",
          "ticks": 1237,
          "time": 14.383720930232558,
          "velocity": 0.1732283464566929
        },
        {
          "duration": 0.03488372093023351,
          "durationTicks": 3,
          "midi": 90,
          "name": "F#6",
          "ticks": 1237,
          "time": 14.383720930232558,
          "velocity": 0.10236220472440945
        },
        {
          "duration": 0.06976744186046524,
          "durationTicks": 6,
          "midi": 90,
          "name": "F#6",
          "ticks": 1243,
          "time": 14.453488372093023,
          "velocity": 0.18110236220472442
        },
        {
          "duration": 0.1744186046511622,
          "durationTicks": 15,
          "midi": 40,
          "name": "E2",
          "ticks": 1255,
          "time": 14.593023255813954,
          "velocity": 0.16535433070866143
        },
        {
          "duration": 0.04651162790697683,
          "durationTicks": 4,
          "midi": 90,
          "name": "F#6",
          "ticks": 1258,
          "time": 14.627906976744185,
          "velocity": 0.07874015748031496
        },
        {
          "duration": 0.09302325581395365,
          "durationTicks": 8,
          "midi": 71,
          "name": "B4",
          "ticks": 1261,
          "time": 14.662790697674419,
          "velocity": 0.10236220472440945
        },
        {
          "duration": 0.04651162790697683,
          "durationTicks": 4,
          "midi": 68,
          "name": "G#4",
          "ticks": 1262,
          "time": 14.674418604651162,
          "velocity": 0.2755905511811024
        },
        {
          "duration": 0.5348837209302335,
          "durationTicks": 46,
          "midi": 74,
          "name": "D5",
          "ticks": 1262,
          "time": 14.674418604651162,
          "velocity": 0.2125984251968504
        },
        {
          "duration": 0.10465116279069875,
          "durationTicks": 9,
          "midi": 90,
          "name": "F#6",
          "ticks": 1264,
          "time": 14.69767441860465,
          "velocity": 0.14173228346456693
        },
        {
          "duration": 0.20930232558139572,
          "durationTicks": 18,
          "midi": 69,
          "name": "A4",
          "ticks": 1266,
          "time": 14.720930232558139,
          "velocity": 0.3779527559055118
        },
        {
          "duration": 0.05813953488372192,
          "durationTicks": 5,
          "midi": 83,
          "name": "B5",
          "ticks": 1270,
          "time": 14.767441860465116,
          "velocity": 0.11811023622047244
        },
        {
          "duration": 0.08139534883720856,
          "durationTicks": 7,
          "midi": 59,
          "name": "B3",
          "ticks": 1271,
          "time": 14.779069767441861,
          "velocity": 0.1889763779527559
        },
        {
          "duration": 0.08139534883720856,
          "durationTicks": 7,
          "midi": 40,
          "name": "E2",
          "ticks": 1273,
          "time": 14.80232558139535,
          "velocity": 0.14960629921259844
        },
        {
          "duration": 0.1511627906976738,
          "durationTicks": 13,
          "midi": 90,
          "name": "F#6",
          "ticks": 1281,
          "time": 14.895348837209303,
          "velocity": 0.13385826771653545
        },
        {
          "duration": 0.04651162790697683,
          "durationTicks": 4,
          "midi": 68,
          "name": "G#4",
          "ticks": 1283,
          "time": 14.918604651162791,
          "velocity": 0.25984251968503935
        },
        {
          "duration": 0.26744186046511587,
          "durationTicks": 23,
          "midi": 59,
          "name": "B3",
          "ticks": 1284,
          "time": 14.930232558139535,
          "velocity": 0.25984251968503935
        },
        {
          "duration": 0.06976744186046346,
          "durationTicks": 6,
          "midi": 69,
          "name": "A4",
          "ticks": 1287,
          "time": 14.965116279069768,
          "velocity": 0.3543307086614173
        },
        {
          "duration": 0.11627906976744207,
          "durationTicks": 10,
          "midi": 40,
          "name": "E2",
          "ticks": 1291,
          "time": 15.011627906976743,
          "velocity": 0.14173228346456693
        },
        {
          "duration": 0.04651162790697683,
          "durationTicks": 4,
          "midi": 62,
          "name": "D4",
          "ticks": 1292,
          "time": 15.023255813953488,
          "velocity": 0.2125984251968504
        },
        {
          "duration": 0.11627906976744207,
          "durationTicks": 10,
          "midi": 83,
          "name": "B5",
          "ticks": 1294,
          "time": 15.046511627906977,
          "velocity": 0.15748031496062992
        },
        {
          "duration": 0.5348837209302335,
          "durationTicks": 46,
          "midi": 69,
          "name": "A4",
          "ticks": 1295,
          "time": 15.05813953488372,
          "velocity": 0.41732283464566927
        },
        {
          "duration": 0.04651162790697683,
          "durationTicks": 4,
          "midi": 90,
          "name": "F#6",
          "ticks": 1297,
          "time": 15.081395348837209,
          "velocity": 0.11811023622047244
        },
        {
          "duration": 0.1627906976744189,
          "durationTicks": 14,
          "midi": 40,
          "name": "E2",
          "ticks": 1303,
          "time": 15.151162790697674,
          "velocity": 0.14173228346456693
        },
        {
          "duration": 0.13953488372093048,
          "durationTicks": 12,
          "midi": 83,
          "name": "B5",
          "ticks": 1313,
          "time": 15.267441860465116,
          "velocity": 0.11811023622047244
        },
        {
          "duration": 0.05813953488372192,
          "durationTicks": 5,
          "midi": 71,
          "name": "B4",
          "ticks": 1319,
          "time": 15.337209302325581,
          "velocity": 0.07086614173228346
        },
        {
          "duration": 0.058139534883720145,
          "durationTicks": 5,
          "midi": 74,
          "name": "D5",
          "ticks": 1320,
          "time": 15.348837209302326,
          "velocity": 0.08661417322834646
        },
        {
          "duration": 0.1860465116279073,
          "durationTicks": 16,
          "midi": 74,
          "name": "D5",
          "ticks": 1327,
          "time": 15.430232558139535,
          "velocity": 0.14173228346456693
        },
        {
          "duration": 0.06976744186046346,
          "durationTicks": 6,
          "midi": 83,
          "name": "B5",
          "ticks": 1328,
          "time": 15.44186046511628,
          "velocity": 0.07874015748031496
        },
        {
          "duration": 0.10465116279069697,
          "durationTicks": 9,
          "midi": 88,
          "name": "E6",
          "ticks": 1328,
          "time": 15.44186046511628,
          "velocity": 0.11023622047244094
        },
        {
          "duration": 0.03488372093023173,
          "durationTicks": 3,
          "midi": 40,
          "name": "E2",
          "ticks": 1333,
          "time": 15.5,
          "velocity": 0.10236220472440945
        },
        {
          "duration": 0.40697674418604635,
          "durationTicks": 35,
          "midi": 59,
          "name": "B3",
          "ticks": 1337,
          "time": 15.546511627906977,
          "velocity": 0.18110236220472442
        },
        {
          "duration": 0.058139534883720145,
          "durationTicks": 5,
          "midi": 40,
          "name": "E2",
          "ticks": 1341,
          "time": 15.593023255813954,
          "velocity": 0.2125984251968504
        },
        {
          "duration": 0.03488372093023173,
          "durationTicks": 3,
          "midi": 68,
          "name": "G#4",
          "ticks": 1341,
          "time": 15.593023255813954,
          "velocity": 0.14173228346456693
        },
        {
          "duration": 0.23255813953488413,
          "durationTicks": 20,
          "midi": 69,
          "name": "A4",
          "ticks": 1343,
          "time": 15.616279069767442,
          "velocity": 0.2677165354330709
        },
        {
          "duration": 0.1511627906976738,
          "durationTicks": 13,
          "midi": 40,
          "name": "E2",
          "ticks": 1347,
          "time": 15.662790697674419,
          "velocity": 0.1889763779527559
        },
        {
          "duration": 0.09302325581395365,
          "durationTicks": 8,
          "midi": 74,
          "name": "D5",
          "ticks": 1349,
          "time": 15.686046511627907,
          "velocity": 0.14173228346456693
        },
        {
          "duration": 0.8139534883720909,
          "durationTicks": 70,
          "midi": 52,
          "name": "E3",
          "ticks": 1351,
          "time": 15.709302325581396,
          "velocity": 0.31496062992125984
        },
        {
          "duration": 0.06976744186046524,
          "durationTicks": 6,
          "midi": 88,
          "name": "E6",
          "ticks": 1351,
          "time": 15.709302325581396,
          "velocity": 0.13385826771653545
        },
        {
          "duration": 0.05813953488372192,
          "durationTicks": 5,
          "midi": 83,
          "name": "B5",
          "ticks": 1360,
          "time": 15.813953488372093,
          "velocity": 0.08661417322834646
        },
        {
          "duration": 0.08139534883720856,
          "durationTicks": 7,
          "midi": 88,
          "name": "E6",
          "ticks": 1361,
          "time": 15.825581395348838,
          "velocity": 0.14960629921259844
        },
        {
          "duration": 0.04651162790697683,
          "durationTicks": 4,
          "midi": 68,
          "name": "G#4",
          "ticks": 1363,
          "time": 15.848837209302326,
          "velocity": 0.08661417322834646
        },
        {
          "duration": 0.08139534883721034,
          "durationTicks": 7,
          "midi": 40,
          "name": "E2",
          "ticks": 1366,
          "time": 15.883720930232558,
          "velocity": 0.13385826771653545
        },
        {
          "duration": 1.1976744186046488,
          "durationTicks": 103,
          "midi": 69,
          "name": "A4",
          "ticks": 1369,
          "time": 15.918604651162791,
          "velocity": 0.33858267716535434
        },
        {
          "duration": 0.06976744186046524,
          "durationTicks": 6,
          "midi": 74,
          "name": "D5",
          "ticks": 1371,
          "time": 15.94186046511628,
          "velocity": 0.07874015748031496
        },
        {
          "duration": 0.22093023255814082,
          "durationTicks": 19,
          "midi": 40,
          "name": "E2",
          "ticks": 1374,
          "time": 15.976744186046512,
          "velocity": 0.1889763779527559
        },
        {
          "duration": 0.1744186046511622,
          "durationTicks": 15,
          "midi": 83,
          "name": "B5",
          "ticks": 1380,
          "time": 16.046511627906977,
          "velocity": 0.07874015748031496
        },
        {
          "duration": 0.17441860465116577,
          "durationTicks": 15,
          "midi": 40,
          "name": "E2",
          "ticks": 1394,
          "time": 16.209302325581394,
          "velocity": 0.18110236220472442
        },
        {
          "duration": 0.32558139534883423,
          "durationTicks": 28,
          "midi": 40,
          "name": "E2",
          "ticks": 1413,
          "time": 16.430232558139537,
          "velocity": 0.18110236220472442
        },
        {
          "duration": 0.6162790697674438,
          "durationTicks": 53,
          "midi": 64,
          "name": "E4",
          "ticks": 1430,
          "time": 16.627906976744185,
          "velocity": 0.29133858267716534
        },
        {
          "duration": 0.39534883720930125,
          "durationTicks": 34,
          "midi": 52,
          "name": "E3",
          "ticks": 1438,
          "time": 16.72093023255814,
          "velocity": 0.33070866141732286
        },
        {
          "duration": 0.11627906976744029,
          "durationTicks": 10,
          "midi": 59,
          "name": "B3",
          "ticks": 1459,
          "time": 16.96511627906977,
          "velocity": 0.09448818897637795
        },
        {
          "duration": 0.03488372093023173,
          "durationTicks": 3,
          "midi": 40,
          "name": "E2",
          "ticks": 1465,
          "time": 17.03488372093023,
          "velocity": 0.14960629921259844
        },
        {
          "duration": 0.02325581395349019,
          "durationTicks": 2,
          "midi": 50,
          "name": "D3",
          "ticks": 1472,
          "time": 17.11627906976744,
          "velocity": 0.6614173228346457
        },
        {
          "duration": 0.023255813953486637,
          "durationTicks": 2,
          "midi": 49,
          "name": "C#3",
          "ticks": 1474,
          "time": 17.13953488372093,
          "velocity": 0.6062992125984252
        },
        {
          "duration": 0.023255813953486637,
          "durationTicks": 2,
          "midi": 59,
          "name": "B3",
          "ticks": 1474,
          "time": 17.13953488372093,
          "velocity": 0.3700787401574803
        },
        {
          "duration": 0.16279069767441712,
          "durationTicks": 14,
          "midi": 69,
          "name": "A4",
          "ticks": 1474,
          "time": 17.13953488372093,
          "velocity": 0.23622047244094488
        },
        {
          "duration": 0.034883720930235285,
          "durationTicks": 3,
          "midi": 48,
          "name": "C3",
          "ticks": 1476,
          "time": 17.162790697674417,
          "velocity": 0.48031496062992124
        },
        {
          "duration": 0.06976744186046702,
          "durationTicks": 6,
          "midi": 58,
          "name": "A#3",
          "ticks": 1476,
          "time": 17.162790697674417,
          "velocity": 0.28346456692913385
        },
        {
          "duration": 0.023255813953486637,
          "durationTicks": 2,
          "midi": 49,
          "name": "C#3",
          "ticks": 1479,
          "time": 17.197674418604652,
          "velocity": 0.23622047244094488
        },
        {
          "duration": 0.05813953488372192,
          "durationTicks": 5,
          "midi": 51,
          "name": "D#3",
          "ticks": 1482,
          "time": 17.232558139534884,
          "velocity": 0.48031496062992124
        },
        {
          "duration": 0.06976744186046346,
          "durationTicks": 6,
          "midi": 58,
          "name": "A#3",
          "ticks": 1483,
          "time": 17.24418604651163,
          "velocity": 0.1732283464566929
        },
        {
          "duration": 0.05813953488371837,
          "durationTicks": 5,
          "midi": 67,
          "name": "G4",
          "ticks": 1483,
          "time": 17.24418604651163,
          "velocity": 0.16535433070866143
        },
        {
          "duration": 0.023255813953486637,
          "durationTicks": 2,
          "midi": 40,
          "name": "E2",
          "ticks": 1486,
          "time": 17.27906976744186,
          "velocity": 0.25984251968503935
        },
        {
          "duration": 0.02325581395349019,
          "durationTicks": 2,
          "midi": 51,
          "name": "D#3",
          "ticks": 1488,
          "time": 17.302325581395348,
          "velocity": 0.44881889763779526
        },
        {
          "duration": 0.023255813953486637,
          "durationTicks": 2,
          "midi": 50,
          "name": "D3",
          "ticks": 1490,
          "time": 17.325581395348838,
          "velocity": 0.4881889763779528
        },
        {
          "duration": 0.03488372093023173,
          "durationTicks": 3,
          "midi": 58,
          "name": "A#3",
          "ticks": 1490,
          "time": 17.325581395348838,
          "velocity": 0.09448818897637795
        },
        {
          "duration": 0.8720930232558146,
          "durationTicks": 75,
          "midi": 63,
          "name": "D#4",
          "ticks": 1490,
          "time": 17.325581395348838,
          "velocity": 0.5433070866141733
        },
        {
          "duration": 0.05813953488371837,
          "durationTicks": 5,
          "midi": 67,
          "name": "G4",
          "ticks": 1491,
          "time": 17.337209302325583,
          "velocity": 0.10236220472440945
        },
        {
          "duration": 0.06976744186046346,
          "durationTicks": 6,
          "midi": 69,
          "name": "A4",
          "ticks": 1491,
          "time": 17.337209302325583,
          "velocity": 0.14173228346456693
        },
        {
          "duration": 0.034883720930235285,
          "durationTicks": 3,
          "midi": 38,
          "name": "D2",
          "ticks": 1492,
          "time": 17.348837209302324,
          "velocity": 0.2204724409448819
        },
        {
          "duration": 0.10465116279069875,
          "durationTicks": 9,
          "midi": 51,
          "name": "D#3",
          "ticks": 1494,
          "time": 17.372093023255815,
          "velocity": 0.4645669291338583
        },
        {
          "duration": 0.03488372093023173,
          "durationTicks": 3,
          "midi": 40,
          "name": "E2",
          "ticks": 1497,
          "time": 17.406976744186046,
          "velocity": 0.13385826771653545
        },
        {
          "duration": 0.06976744186046346,
          "durationTicks": 6,
          "midi": 69,
          "name": "A4",
          "ticks": 1498,
          "time": 17.41860465116279,
          "velocity": 0.15748031496062992
        },
        {
          "duration": 0.03488372093023173,
          "durationTicks": 3,
          "midi": 51,
          "name": "D#3",
          "ticks": 1504,
          "time": 17.488372093023255,
          "velocity": 0.4251968503937008
        },
        {
          "duration": 0.03488372093023173,
          "durationTicks": 3,
          "midi": 40,
          "name": "E2",
          "ticks": 1505,
          "time": 17.5,
          "velocity": 0.25984251968503935
        },
        {
          "duration": 0.5348837209302317,
          "durationTicks": 46,
          "midi": 66,
          "name": "F#4",
          "ticks": 1505,
          "time": 17.5,
          "velocity": 0.44881889763779526
        },
        {
          "duration": 0.08139534883720856,
          "durationTicks": 7,
          "midi": 58,
          "name": "A#3",
          "ticks": 1506,
          "time": 17.511627906976745,
          "velocity": 0.2204724409448819
        },
        {
          "duration": 0.16279069767442067,
          "durationTicks": 14,
          "midi": 51,
          "name": "D#3",
          "ticks": 1508,
          "time": 17.53488372093023,
          "velocity": 0.47244094488188976
        },
        {
          "duration": 0.03488372093023173,
          "durationTicks": 3,
          "midi": 40,
          "name": "E2",
          "ticks": 1509,
          "time": 17.546511627906977,
          "velocity": 0.2677165354330709
        },
        {
          "duration": 1.7558139534883743,
          "durationTicks": 151,
          "midi": 69,
          "name": "A4",
          "ticks": 1512,
          "time": 17.58139534883721,
          "velocity": 0.4330708661417323
        },
        {
          "duration": 0.13953488372093048,
          "durationTicks": 12,
          "midi": 58,
          "name": "A#3",
          "ticks": 1514,
          "time": 17.6046511627907,
          "velocity": 0.28346456692913385
        },
        {
          "duration": 0.02325581395349019,
          "durationTicks": 2,
          "midi": 39,
          "name": "D#2",
          "ticks": 1523,
          "time": 17.709302325581394,
          "velocity": 0.23622047244094488
        },
        {
          "duration": 8.02325581395349,
          "durationTicks": 690,
          "midi": 51,
          "name": "D#3",
          "ticks": 1523,
          "time": 17.709302325581394,
          "velocity": 0.5590551181102362
        },
        {
          "duration": 0.03488372093023173,
          "durationTicks": 3,
          "midi": 40,
          "name": "E2",
          "ticks": 1525,
          "time": 17.732558139534884,
          "velocity": 0.2755905511811024
        },
        {
          "duration": 0.023255813953486637,
          "durationTicks": 2,
          "midi": 59,
          "name": "B3",
          "ticks": 1526,
          "time": 17.74418604651163,
          "velocity": 0.29133858267716534
        },
        {
          "duration": 0.02325581395349019,
          "durationTicks": 2,
          "midi": 39,
          "name": "D#2",
          "ticks": 1528,
          "time": 17.767441860465116,
          "velocity": 0.29133858267716534
        },
        {
          "duration": 0.023255813953486637,
          "durationTicks": 2,
          "midi": 59,
          "name": "B3",
          "ticks": 1530,
          "time": 17.790697674418606,
          "velocity": 0.30708661417322836
        },
        {
          "duration": 0.40697674418604635,
          "durationTicks": 35,
          "midi": 72,
          "name": "C5",
          "ticks": 1530,
          "time": 17.790697674418606,
          "velocity": 0.41732283464566927
        },
        {
          "duration": 0.034883720930235285,
          "durationTicks": 3,
          "midi": 39,
          "name": "D#2",
          "ticks": 1531,
          "time": 17.802325581395348,
          "velocity": 0.25196850393700787
        },
        {
          "duration": 0.02325581395349019,
          "durationTicks": 2,
          "midi": 58,
          "name": "A#3",
          "ticks": 1532,
          "time": 17.813953488372093,
          "velocity": 0.33070866141732286
        },
        {
          "duration": 3.7325581395348806,
          "durationTicks": 321,
          "midi": 59,
          "name": "B3",
          "ticks": 1534,
          "time": 17.837209302325583,
          "velocity": 0.5039370078740157
        },
        {
          "duration": 0.023255813953486637,
          "durationTicks": 2,
          "midi": 40,
          "name": "E2",
          "ticks": 1545,
          "time": 17.96511627906977,
          "velocity": 0.2755905511811024
        },
        {
          "duration": 0.10465116279069875,
          "durationTicks": 9,
          "midi": 39,
          "name": "D#2",
          "ticks": 1547,
          "time": 17.988372093023255,
          "velocity": 0.2755905511811024
        },
        {
          "duration": 2.0930232558139537,
          "durationTicks": 180,
          "midi": 39,
          "name": "D#2",
          "ticks": 1560,
          "time": 18.13953488372093,
          "velocity": 0.3858267716535433
        },
        {
          "duration": 0.034883720930235285,
          "durationTicks": 3,
          "midi": 67,
          "name": "G4",
          "ticks": 1562,
          "time": 18.162790697674417,
          "velocity": 0.2283464566929134
        },
        {
          "duration": 0.9069767441860463,
          "durationTicks": 78,
          "midi": 78,
          "name": "F#5",
          "ticks": 1564,
          "time": 18.186046511627907,
          "velocity": 0.28346456692913385
        },
        {
          "duration": 0.1976744186046524,
          "durationTicks": 17,
          "midi": 67,
          "name": "G4",
          "ticks": 1566,
          "time": 18.209302325581394,
          "velocity": 0.28346456692913385
        },
        {
          "duration": 0.023255813953486637,
          "durationTicks": 2,
          "midi": 67,
          "name": "G4",
          "ticks": 1585,
          "time": 18.430232558139537,
          "velocity": 0.28346456692913385
        },
        {
          "duration": 0.10465116279069875,
          "durationTicks": 9,
          "midi": 66,
          "name": "F#4",
          "ticks": 1587,
          "time": 18.453488372093023,
          "velocity": 0.2992125984251969
        },
        {
          "duration": 0.03488372093023173,
          "durationTicks": 3,
          "midi": 72,
          "name": "C5",
          "ticks": 1588,
          "time": 18.46511627906977,
          "velocity": 0.2047244094488189
        },
        {
          "duration": 0.04651162790697683,
          "durationTicks": 4,
          "midi": 97,
          "name": "C#7",
          "ticks": 1593,
          "time": 18.523255813953487,
          "velocity": 0.08661417322834646
        },
        {
          "duration": 0.15116279069767558,
          "durationTicks": 13,
          "midi": 85,
          "name": "C#6",
          "ticks": 1595,
          "time": 18.546511627906977,
          "velocity": 0.14173228346456693
        },
        {
          "duration": 0.09302325581395365,
          "durationTicks": 8,
          "midi": 94,
          "name": "A#6",
          "ticks": 1595,
          "time": 18.546511627906977,
          "velocity": 0.08661417322834646
        },
        {
          "duration": 0.13953488372093048,
          "durationTicks": 12,
          "midi": 66,
          "name": "F#4",
          "ticks": 1601,
          "time": 18.61627906976744,
          "velocity": 0.2283464566929134
        },
        {
          "duration": 0.43023255813953654,
          "durationTicks": 37,
          "midi": 94,
          "name": "A#6",
          "ticks": 1606,
          "time": 18.674418604651162,
          "velocity": 0.1968503937007874
        },
        {
          "duration": 0.08139534883720856,
          "durationTicks": 7,
          "midi": 85,
          "name": "C#6",
          "ticks": 1611,
          "time": 18.732558139534884,
          "velocity": 0.15748031496062992
        },
        {
          "duration": 0.034883720930235285,
          "durationTicks": 3,
          "midi": 67,
          "name": "G4",
          "ticks": 1613,
          "time": 18.75581395348837,
          "velocity": 0.1889763779527559
        },
        {
          "duration": 0.02325581395349019,
          "durationTicks": 2,
          "midi": 67,
          "name": "G4",
          "ticks": 1617,
          "time": 18.802325581395348,
          "velocity": 0.2283464566929134
        },
        {
          "duration": 0.04651162790697683,
          "durationTicks": 4,
          "midi": 67,
          "name": "G4",
          "ticks": 1620,
          "time": 18.837209302325583,
          "velocity": 0.2755905511811024
        },
        {
          "duration": 0.03488372093023173,
          "durationTicks": 3,
          "midi": 97,
          "name": "C#7",
          "ticks": 1622,
          "time": 18.86046511627907,
          "velocity": 0.11811023622047244
        },
        {
          "duration": 0.03488372093023173,
          "durationTicks": 3,
          "midi": 88,
          "name": "E6",
          "ticks": 1624,
          "time": 18.88372093023256,
          "velocity": 0.07086614173228346
        },
        {
          "duration": 0.04651162790697683,
          "durationTicks": 4,
          "midi": 66,
          "name": "F#4",
          "ticks": 1627,
          "time": 18.91860465116279,
          "velocity": 0.2677165354330709
        },
        {
          "duration": 0.03488372093023173,
          "durationTicks": 3,
          "midi": 85,
          "name": "C#6",
          "ticks": 1627,
          "time": 18.91860465116279,
          "velocity": 0.08661417322834646
        },
        {
          "duration": 0.023255813953486637,
          "durationTicks": 2,
          "midi": 67,
          "name": "G4",
          "ticks": 1631,
          "time": 18.96511627906977,
          "velocity": 0.2677165354330709
        },
        {
          "duration": 0.08139534883720856,
          "durationTicks": 7,
          "midi": 85,
          "name": "C#6",
          "ticks": 1632,
          "time": 18.976744186046513,
          "velocity": 0.14173228346456693
        },
        {
          "duration": 0.02325581395349019,
          "durationTicks": 2,
          "midi": 66,
          "name": "F#4",
          "ticks": 1633,
          "time": 18.988372093023255,
          "velocity": 0.2283464566929134
        },
        {
          "duration": 0.023255813953486637,
          "durationTicks": 2,
          "midi": 67,
          "name": "G4",
          "ticks": 1635,
          "time": 19.011627906976745,
          "velocity": 0.31496062992125984
        },
        {
          "duration": 0.03488372093023173,
          "durationTicks": 3,
          "midi": 66,
          "name": "F#4",
          "ticks": 1637,
          "time": 19.03488372093023,
          "velocity": 0.2755905511811024
        },
        {
          "duration": 0.08139534883721211,
          "durationTicks": 7,
          "midi": 88,
          "name": "E6",
          "ticks": 1640,
          "time": 19.069767441860463,
          "velocity": 0.12598425196850394
        },
        {
          "duration": 0.02325581395349019,
          "durationTicks": 2,
          "midi": 67,
          "name": "G4",
          "ticks": 1641,
          "time": 19.08139534883721,
          "velocity": 0.2677165354330709
        },
        {
          "duration": 0.1744186046511622,
          "durationTicks": 15,
          "midi": 85,
          "name": "C#6",
          "ticks": 1642,
          "time": 19.093023255813954,
          "velocity": 0.14173228346456693
        },
        {
          "duration": 0.1976744186046524,
          "durationTicks": 17,
          "midi": 78,
          "name": "F#5",
          "ticks": 1644,
          "time": 19.11627906976744,
          "velocity": 0.25196850393700787
        },
        {
          "duration": 0.1860465116279073,
          "durationTicks": 16,
          "midi": 94,
          "name": "A#6",
          "ticks": 1647,
          "time": 19.151162790697676,
          "velocity": 0.2204724409448819
        },
        {
          "duration": 0.03488372093023173,
          "durationTicks": 3,
          "midi": 67,
          "name": "G4",
          "ticks": 1650,
          "time": 19.186046511627907,
          "velocity": 0.3543307086614173
        },
        {
          "duration": 0.11627906976744029,
          "durationTicks": 10,
          "midi": 97,
          "name": "C#7",
          "ticks": 1650,
          "time": 19.186046511627907,
          "velocity": 0.14173228346456693
        },
        {
          "duration": 0.05813953488372192,
          "durationTicks": 5,
          "midi": 66,
          "name": "F#4",
          "ticks": 1653,
          "time": 19.22093023255814,
          "velocity": 0.3937007874015748
        },
        {
          "duration": 0.09302325581395365,
          "durationTicks": 8,
          "midi": 87,
          "name": "D#6",
          "ticks": 1653,
          "time": 19.22093023255814,
          "velocity": 0.13385826771653545
        },
        {
          "duration": 0.13953488372093048,
          "durationTicks": 12,
          "midi": 83,
          "name": "B5",
          "ticks": 1655,
          "time": 19.24418604651163,
          "velocity": 0.16535433070866143
        },
        {
          "duration": 0.12790697674418539,
          "durationTicks": 11,
          "midi": 67,
          "name": "G4",
          "ticks": 1661,
          "time": 19.313953488372093,
          "velocity": 0.33858267716535434
        },
        {
          "duration": 0.05813953488372192,
          "durationTicks": 5,
          "midi": 77,
          "name": "F5",
          "ticks": 1661,
          "time": 19.313953488372093,
          "velocity": 0.15748031496062992
        },
        {
          "duration": 0.06976744186046702,
          "durationTicks": 6,
          "midi": 85,
          "name": "C#6",
          "ticks": 1661,
          "time": 19.313953488372093,
          "velocity": 0.1889763779527559
        },
        {
          "duration": 0.4883720930232549,
          "durationTicks": 42,
          "midi": 90,
          "name": "F#6",
          "ticks": 1661,
          "time": 19.313953488372093,
          "velocity": 0.25984251968503935
        },
        {
          "duration": 0.19767441860464885,
          "durationTicks": 17,
          "midi": 69,
          "name": "A4",
          "ticks": 1666,
          "time": 19.372093023255815,
          "velocity": 0.3937007874015748
        },
        {
          "duration": 0.2906976744186025,
          "durationTicks": 25,
          "midi": 78,
          "name": "F#5",
          "ticks": 1666,
          "time": 19.372093023255815,
          "velocity": 0.28346456692913385
        },
        {
          "duration": 0.15116279069767202,
          "durationTicks": 13,
          "midi": 97,
          "name": "C#7",
          "ticks": 1666,
          "time": 19.372093023255815,
          "velocity": 0.2125984251968504
        },
        {
          "duration": 0.06976744186046702,
          "durationTicks": 6,
          "midi": 94,
          "name": "A#6",
          "ticks": 1668,
          "time": 19.3953488372093,
          "velocity": 0.1968503937007874
        },
        {
          "duration": 0.034883720930235285,
          "durationTicks": 3,
          "midi": 85,
          "name": "C#6",
          "ticks": 1672,
          "time": 19.441860465116278,
          "velocity": 0.09448818897637795
        },
        {
          "duration": 0.04651162790697683,
          "durationTicks": 4,
          "midi": 87,
          "name": "D#6",
          "ticks": 1673,
          "time": 19.453488372093023,
          "velocity": 0.15748031496062992
        },
        {
          "duration": 0.04651162790697683,
          "durationTicks": 4,
          "midi": 67,
          "name": "G4",
          "ticks": 1674,
          "time": 19.46511627906977,
          "velocity": 0.4094488188976378
        },
        {
          "duration": 0.12790697674418539,
          "durationTicks": 11,
          "midi": 94,
          "name": "A#6",
          "ticks": 1676,
          "time": 19.488372093023255,
          "velocity": 0.2047244094488189
        },
        {
          "duration": 0.22093023255813904,
          "durationTicks": 19,
          "midi": 85,
          "name": "C#6",
          "ticks": 1677,
          "time": 19.5,
          "velocity": 0.1968503937007874
        },
        {
          "duration": 0.31395348837209625,
          "durationTicks": 27,
          "midi": 67,
          "name": "G4",
          "ticks": 1679,
          "time": 19.523255813953487,
          "velocity": 0.3464566929133858
        },
        {
          "duration": 0.12790697674418539,
          "durationTicks": 11,
          "midi": 88,
          "name": "E6",
          "ticks": 1680,
          "time": 19.53488372093023,
          "velocity": 0.1968503937007874
        },
        {
          "duration": 1.3023255813953476,
          "durationTicks": 112,
          "midi": 95,
          "name": "B6",
          "ticks": 1681,
          "time": 19.546511627906977,
          "velocity": 0.2677165354330709
        },
        {
          "duration": 0.03488372093023173,
          "durationTicks": 3,
          "midi": 82,
          "name": "A#5",
          "ticks": 1682,
          "time": 19.558139534883722,
          "velocity": 0.07874015748031496
        },
        {
          "duration": 0.08139534883720856,
          "durationTicks": 7,
          "midi": 87,
          "name": "D#6",
          "ticks": 1686,
          "time": 19.6046511627907,
          "velocity": 0.1732283464566929
        },
        {
          "duration": 0.16279069767442067,
          "durationTicks": 14,
          "midi": 69,
          "name": "A4",
          "ticks": 1688,
          "time": 19.627906976744185,
          "velocity": 0.3937007874015748
        },
        {
          "duration": 0.06976744186046702,
          "durationTicks": 6,
          "midi": 83,
          "name": "B5",
          "ticks": 1691,
          "time": 19.662790697674417,
          "velocity": 0.07086614173228346
        },
        {
          "duration": 0.13953488372093048,
          "durationTicks": 12,
          "midi": 94,
          "name": "A#6",
          "ticks": 1691,
          "time": 19.662790697674417,
          "velocity": 0.2283464566929134
        },
        {
          "duration": 0.09302325581395365,
          "durationTicks": 8,
          "midi": 78,
          "name": "F#5",
          "ticks": 1694,
          "time": 19.697674418604652,
          "velocity": 0.1968503937007874
        },
        {
          "duration": 0.06976744186046346,
          "durationTicks": 6,
          "midi": 87,
          "name": "D#6",
          "ticks": 1698,
          "time": 19.74418604651163,
          "velocity": 0.15748031496062992
        },
        {
          "duration": 0.11627906976744029,
          "durationTicks": 10,
          "midi": 100,
          "name": "E7",
          "ticks": 1698,
          "time": 19.74418604651163,
          "velocity": 0.1968503937007874
        },
        {
          "duration": 0.06976744186046346,
          "durationTicks": 6,
          "midi": 103,
          "name": "G7",
          "ticks": 1698,
          "time": 19.74418604651163,
          "velocity": 0.11023622047244094
        },
        {
          "duration": 0.17441860465116577,
          "durationTicks": 15,
          "midi": 88,
          "name": "E6",
          "ticks": 1699,
          "time": 19.75581395348837,
          "velocity": 0.1968503937007874
        },
        {
          "duration": 0.6511627906976756,
          "durationTicks": 56,
          "midi": 69,
          "name": "A4",
          "ticks": 1703,
          "time": 19.802325581395348,
          "velocity": 0.5433070866141733
        },
        {
          "duration": 0.05813953488372192,
          "durationTicks": 5,
          "midi": 78,
          "name": "F#5",
          "ticks": 1703,
          "time": 19.802325581395348,
          "velocity": 0.13385826771653545
        },
        {
          "duration": 0.15116279069767558,
          "durationTicks": 13,
          "midi": 85,
          "name": "C#6",
          "ticks": 1703,
          "time": 19.802325581395348,
          "velocity": 0.2125984251968504
        },
        {
          "duration": 0.24418604651162568,
          "durationTicks": 21,
          "midi": 83,
          "name": "B5",
          "ticks": 1705,
          "time": 19.825581395348838,
          "velocity": 0.2047244094488189
        },
        {
          "duration": 1.1162790697674403,
          "durationTicks": 96,
          "midi": 97,
          "name": "C#7",
          "ticks": 1705,
          "time": 19.825581395348838,
          "velocity": 0.2992125984251969
        },
        {
          "duration": 0.1744186046511622,
          "durationTicks": 15,
          "midi": 87,
          "name": "D#6",
          "ticks": 1706,
          "time": 19.837209302325583,
          "velocity": 0.1968503937007874
        },
        {
          "duration": 0.1046511627906952,
          "durationTicks": 9,
          "midi": 90,
          "name": "F#6",
          "ticks": 1706,
          "time": 19.837209302325583,
          "velocity": 0.2440944881889764
        },
        {
          "duration": 0.5232558139534866,
          "durationTicks": 45,
          "midi": 94,
          "name": "A#6",
          "ticks": 1706,
          "time": 19.837209302325583,
          "velocity": 0.25984251968503935
        },
        {
          "duration": 0.02325581395349019,
          "durationTicks": 2,
          "midi": 67,
          "name": "G4",
          "ticks": 1707,
          "time": 19.848837209302324,
          "velocity": 0.33858267716535434
        },
        {
          "duration": 0.03488372093023173,
          "durationTicks": 3,
          "midi": 66,
          "name": "F#4",
          "ticks": 1709,
          "time": 19.872093023255815,
          "velocity": 0.2755905511811024
        },
        {
          "duration": 0.034883720930235285,
          "durationTicks": 3,
          "midi": 77,
          "name": "F5",
          "ticks": 1711,
          "time": 19.8953488372093,
          "velocity": 0.08661417322834646
        },
        {
          "duration": 0.03488372093023173,
          "durationTicks": 3,
          "midi": 67,
          "name": "G4",
          "ticks": 1712,
          "time": 19.906976744186046,
          "velocity": 0.3858267716535433
        },
        {
          "duration": 0.03488372093023173,
          "durationTicks": 3,
          "midi": 78,
          "name": "F#5",
          "ticks": 1714,
          "time": 19.930232558139537,
          "velocity": 0.2047244094488189
        },
        {
          "duration": 0.11627906976744384,
          "durationTicks": 10,
          "midi": 66,
          "name": "F#4",
          "ticks": 1715,
          "time": 19.941860465116278,
          "velocity": 0.44881889763779526
        },
        {
          "duration": 0.04651162790697683,
          "durationTicks": 4,
          "midi": 79,
          "name": "G5",
          "ticks": 1716,
          "time": 19.953488372093023,
          "velocity": 0.09448818897637795
        },
        {
          "duration": 0.20930232558139394,
          "durationTicks": 18,
          "midi": 90,
          "name": "F#6",
          "ticks": 1716,
          "time": 19.953488372093023,
          "velocity": 0.25196850393700787
        },
        {
          "duration": 0.04651162790697683,
          "durationTicks": 4,
          "midi": 77,
          "name": "F5",
          "ticks": 1717,
          "time": 19.96511627906977,
          "velocity": 0.15748031496062992
        },
        {
          "duration": 0.16279069767442067,
          "durationTicks": 14,
          "midi": 88,
          "name": "E6",
          "ticks": 1719,
          "time": 19.988372093023255,
          "velocity": 0.1889763779527559
        },
        {
          "duration": 0.12790697674418539,
          "durationTicks": 11,
          "midi": 100,
          "name": "E7",
          "ticks": 1719,
          "time": 19.988372093023255,
          "velocity": 0.29133858267716534
        },
        {
          "duration": 0.3255813953488378,
          "durationTicks": 28,
          "midi": 85,
          "name": "C#6",
          "ticks": 1720,
          "time": 20,
          "velocity": 0.2283464566929134
        },
        {
          "duration": 0.08139534883720856,
          "durationTicks": 7,
          "midi": 103,
          "name": "G7",
          "ticks": 1720,
          "time": 20,
          "velocity": 0.16535433070866143
        },
        {
          "duration": 0.04651162790697683,
          "durationTicks": 4,
          "midi": 92,
          "name": "G#6",
          "ticks": 1721,
          "time": 20.011627906976745,
          "velocity": 0.13385826771653545
        },
        {
          "duration": 0.04651162790697683,
          "durationTicks": 4,
          "midi": 87,
          "name": "D#6",
          "ticks": 1723,
          "time": 20.03488372093023,
          "velocity": 0.23622047244094488
        },
        {
          "duration": 0.05813953488371837,
          "durationTicks": 5,
          "midi": 67,
          "name": "G4",
          "ticks": 1725,
          "time": 20.058139534883722,
          "velocity": 0.3858267716535433
        },
        {
          "duration": 0.09302325581395365,
          "durationTicks": 8,
          "midi": 83,
          "name": "B5",
          "ticks": 1727,
          "time": 20.08139534883721,
          "velocity": 0.1968503937007874
        },
        {
          "duration": 0.20930232558139394,
          "durationTicks": 18,
          "midi": 75,
          "name": "D#5",
          "ticks": 1729,
          "time": 20.1046511627907,
          "velocity": 0.13385826771653545
        },
        {
          "duration": 0.3255813953488378,
          "durationTicks": 28,
          "midi": 87,
          "name": "D#6",
          "ticks": 1730,
          "time": 20.11627906976744,
          "velocity": 0.2204724409448819
        },
        {
          "duration": 0.04651162790697683,
          "durationTicks": 4,
          "midi": 67,
          "name": "G4",
          "ticks": 1731,
          "time": 20.127906976744185,
          "velocity": 0.3464566929133858
        },
        {
          "duration": 0.03488372093023173,
          "durationTicks": 3,
          "midi": 77,
          "name": "F5",
          "ticks": 1731,
          "time": 20.127906976744185,
          "velocity": 0.1732283464566929
        },
        {
          "duration": 0.11627906976744029,
          "durationTicks": 10,
          "midi": 78,
          "name": "F#5",
          "ticks": 1733,
          "time": 20.151162790697676,
          "velocity": 0.33858267716535434
        },
        {
          "duration": 0.11627906976744029,
          "durationTicks": 10,
          "midi": 100,
          "name": "E7",
          "ticks": 1736,
          "time": 20.186046511627907,
          "velocity": 0.25984251968503935
        },
        {
          "duration": 0.08139534883721211,
          "durationTicks": 7,
          "midi": 66,
          "name": "F#4",
          "ticks": 1738,
          "time": 20.209302325581394,
          "velocity": 0.33858267716535434
        },
        {
          "duration": 0.05813953488372192,
          "durationTicks": 5,
          "midi": 103,
          "name": "G7",
          "ticks": 1738,
          "time": 20.209302325581394,
          "velocity": 0.15748031496062992
        },
        {
          "duration": 0.03488372093023173,
          "durationTicks": 3,
          "midi": 79,
          "name": "G5",
          "ticks": 1739,
          "time": 20.22093023255814,
          "velocity": 0.2204724409448819
        },
        {
          "duration": 0.16279069767442067,
          "durationTicks": 14,
          "midi": 88,
          "name": "E6",
          "ticks": 1739,
          "time": 20.22093023255814,
          "velocity": 0.2204724409448819
        },
        {
          "duration": 0.04651162790697683,
          "durationTicks": 4,
          "midi": 39,
          "name": "D#2",
          "ticks": 1741,
          "time": 20.24418604651163,
          "velocity": 0.25984251968503935
        },
        {
          "duration": 0.27906976744186096,
          "durationTicks": 24,
          "midi": 83,
          "name": "B5",
          "ticks": 1742,
          "time": 20.25581395348837,
          "velocity": 0.18110236220472442
        },
        {
          "duration": 0.08139534883720856,
          "durationTicks": 7,
          "midi": 73,
          "name": "C#5",
          "ticks": 1743,
          "time": 20.267441860465116,
          "velocity": 0.1732283464566929
        },
        {
          "duration": 0.03488372093023173,
          "durationTicks": 3,
          "midi": 77,
          "name": "F5",
          "ticks": 1744,
          "time": 20.27906976744186,
          "velocity": 0.18110236220472442
        },
        {
          "duration": 0.023255813953486637,
          "durationTicks": 2,
          "midi": 40,
          "name": "E2",
          "ticks": 1745,
          "time": 20.290697674418606,
          "velocity": 0.23622047244094488
        },
        {
          "duration": 0.17441860465116577,
          "durationTicks": 15,
          "midi": 78,
          "name": "F#5",
          "ticks": 1746,
          "time": 20.302325581395348,
          "velocity": 0.29133858267716534
        },
        {
          "duration": 0.08139534883720856,
          "durationTicks": 7,
          "midi": 39,
          "name": "D#2",
          "ticks": 1747,
          "time": 20.313953488372093,
          "velocity": 0.2677165354330709
        },
        {
          "duration": 0.02325581395349019,
          "durationTicks": 2,
          "midi": 67,
          "name": "G4",
          "ticks": 1747,
          "time": 20.313953488372093,
          "velocity": 0.25196850393700787
        },
        {
          "duration": 0.04651162790697683,
          "durationTicks": 4,
          "midi": 67,
          "name": "G4",
          "ticks": 1750,
          "time": 20.348837209302324,
          "velocity": 0.44881889763779526
        },
        {
          "duration": 0.24418604651162923,
          "durationTicks": 21,
          "midi": 85,
          "name": "C#6",
          "ticks": 1750,
          "time": 20.348837209302324,
          "velocity": 0.2125984251968504
        },
        {
          "duration": 0.08139534883720856,
          "durationTicks": 7,
          "midi": 94,
          "name": "A#6",
          "ticks": 1753,
          "time": 20.38372093023256,
          "velocity": 0.1968503937007874
        },
        {
          "duration": 0.11627906976744029,
          "durationTicks": 10,
          "midi": 39,
          "name": "D#2",
          "ticks": 1755,
          "time": 20.406976744186046,
          "velocity": 0.2677165354330709
        },
        {
          "duration": 0.1046511627906952,
          "durationTicks": 9,
          "midi": 67,
          "name": "G4",
          "ticks": 1756,
          "time": 20.41860465116279,
          "velocity": 0.41732283464566927
        },
        {
          "duration": 0.5697674418604635,
          "durationTicks": 49,
          "midi": 88,
          "name": "E6",
          "ticks": 1756,
          "time": 20.41860465116279,
          "velocity": 0.2440944881889764
        },
        {
          "duration": 0.09302325581395365,
          "durationTicks": 8,
          "midi": 92,
          "name": "G#6",
          "ticks": 1756,
          "time": 20.41860465116279,
          "velocity": 0.2047244094488189
        },
        {
          "duration": 0.08139534883720856,
          "durationTicks": 7,
          "midi": 103,
          "name": "G7",
          "ticks": 1756,
          "time": 20.41860465116279,
          "velocity": 0.10236220472440945
        },
        {
          "duration": 0.26744186046511587,
          "durationTicks": 23,
          "midi": 87,
          "name": "D#6",
          "ticks": 1760,
          "time": 20.46511627906977,
          "velocity": 0.1889763779527559
        },
        {
          "duration": 0.5232558139534866,
          "durationTicks": 45,
          "midi": 78,
          "name": "F#5",
          "ticks": 1763,
          "time": 20.5,
          "velocity": 0.3464566929133858
        },
        {
          "duration": 0.15116279069767202,
          "durationTicks": 13,
          "midi": 69,
          "name": "A4",
          "ticks": 1764,
          "time": 20.511627906976745,
          "velocity": 0.4409448818897638
        },
        {
          "duration": 0.02325581395349019,
          "durationTicks": 2,
          "midi": 40,
          "name": "E2",
          "ticks": 1765,
          "time": 20.523255813953487,
          "velocity": 0.2755905511811024
        },
        {
          "duration": 0.23255813953488413,
          "durationTicks": 20,
          "midi": 94,
          "name": "A#6",
          "ticks": 1765,
          "time": 20.523255813953487,
          "velocity": 0.1732283464566929
        },
        {
          "duration": 0.04651162790697683,
          "durationTicks": 4,
          "midi": 67,
          "name": "G4",
          "ticks": 1766,
          "time": 20.53488372093023,
          "velocity": 0.3700787401574803
        },
        {
          "duration": 0.779069767441861,
          "durationTicks": 67,
          "midi": 39,
          "name": "D#2",
          "ticks": 1767,
          "time": 20.546511627906977,
          "velocity": 0.3700787401574803
        },
        {
          "duration": 0.26744186046511587,
          "durationTicks": 23,
          "midi": 83,
          "name": "B5",
          "ticks": 1770,
          "time": 20.58139534883721,
          "velocity": 0.2204724409448819
        },
        {
          "duration": 0.1860465116279073,
          "durationTicks": 16,
          "midi": 67,
          "name": "G4",
          "ticks": 1771,
          "time": 20.593023255813954,
          "velocity": 0.3464566929133858
        },
        {
          "duration": 0.22093023255813904,
          "durationTicks": 19,
          "midi": 100,
          "name": "E7",
          "ticks": 1771,
          "time": 20.593023255813954,
          "velocity": 0.29133858267716534
        },
        {
          "duration": 0.430232558139533,
          "durationTicks": 37,
          "midi": 85,
          "name": "C#6",
          "ticks": 1772,
          "time": 20.6046511627907,
          "velocity": 0.2047244094488189
        },
        {
          "duration": 0.03488372093023173,
          "durationTicks": 3,
          "midi": 92,
          "name": "G#6",
          "ticks": 1776,
          "time": 20.651162790697676,
          "velocity": 0.2047244094488189
        },
        {
          "duration": 0.10465116279069875,
          "durationTicks": 9,
          "midi": 103,
          "name": "G7",
          "ticks": 1778,
          "time": 20.674418604651162,
          "velocity": 0.1732283464566929
        },
        {
          "duration": 0.13953488372093048,
          "durationTicks": 12,
          "midi": 69,
          "name": "A4",
          "ticks": 1783,
          "time": 20.732558139534884,
          "velocity": 0.4015748031496063
        },
        {
          "duration": 0.11627906976744029,
          "durationTicks": 10,
          "midi": 87,
          "name": "D#6",
          "ticks": 1784,
          "time": 20.74418604651163,
          "velocity": 0.2125984251968504
        },
        {
          "duration": 0.11627906976744029,
          "durationTicks": 10,
          "midi": 66,
          "name": "F#4",
          "ticks": 1787,
          "time": 20.77906976744186,
          "velocity": 0.4330708661417323
        },
        {
          "duration": 0.03488372093023173,
          "durationTicks": 3,
          "midi": 79,
          "name": "G5",
          "ticks": 1791,
          "time": 20.825581395348838,
          "velocity": 0.23622047244094488
        },
        {
          "duration": 0.05813953488372192,
          "durationTicks": 5,
          "midi": 92,
          "name": "G#6",
          "ticks": 1795,
          "time": 20.872093023255815,
          "velocity": 0.16535433070866143
        },
        {
          "duration": 0.16279069767441712,
          "durationTicks": 14,
          "midi": 95,
          "name": "B6",
          "ticks": 1796,
          "time": 20.88372093023256,
          "velocity": 0.25984251968503935
        },
        {
          "duration": 0.13953488372093048,
          "durationTicks": 12,
          "midi": 100,
          "name": "E7",
          "ticks": 1797,
          "time": 20.8953488372093,
          "velocity": 0.25196850393700787
        },
        {
          "duration": 0.1744186046511622,
          "durationTicks": 15,
          "midi": 75,
          "name": "D#5",
          "ticks": 1798,
          "time": 20.906976744186046,
          "velocity": 0.16535433070866143
        },
        {
          "duration": 0.25581395348837077,
          "durationTicks": 22,
          "midi": 87,
          "name": "D#6",
          "ticks": 1798,
          "time": 20.906976744186046,
          "velocity": 0.1968503937007874
        },
        {
          "duration": 0.10465116279069875,
          "durationTicks": 9,
          "midi": 103,
          "name": "G7",
          "ticks": 1798,
          "time": 20.906976744186046,
          "velocity": 0.11811023622047244
        },
        {
          "duration": 0.05813953488372192,
          "durationTicks": 5,
          "midi": 66,
          "name": "F#4",
          "ticks": 1799,
          "time": 20.91860465116279,
          "velocity": 0.25196850393700787
        },
        {
          "duration": 0.08139534883720856,
          "durationTicks": 7,
          "midi": 82,
          "name": "A#5",
          "ticks": 1799,
          "time": 20.91860465116279,
          "velocity": 0.14960629921259844
        },
        {
          "duration": 0.5348837209302317,
          "durationTicks": 46,
          "midi": 69,
          "name": "A4",
          "ticks": 1800,
          "time": 20.930232558139537,
          "velocity": 0.5354330708661418
        },
        {
          "duration": 0.2790697674418574,
          "durationTicks": 24,
          "midi": 97,
          "name": "C#7",
          "ticks": 1804,
          "time": 20.976744186046513,
          "velocity": 0.29133858267716534
        },
        {
          "duration": 0.03488372093023173,
          "durationTicks": 3,
          "midi": 66,
          "name": "F#4",
          "ticks": 1805,
          "time": 20.988372093023255,
          "velocity": 0.2440944881889764
        },
        {
          "duration": 0.04651162790697683,
          "durationTicks": 4,
          "midi": 67,
          "name": "G4",
          "ticks": 1808,
          "time": 21.023255813953487,
          "velocity": 0.2992125984251969
        },
        {
          "duration": 0.04651162790697683,
          "durationTicks": 4,
          "midi": 88,
          "name": "E6",
          "ticks": 1808,
          "time": 21.023255813953487,
          "velocity": 0.11811023622047244
        },
        {
          "duration": 0.09302325581395365,
          "durationTicks": 8,
          "midi": 78,
          "name": "F#5",
          "ticks": 1809,
          "time": 21.03488372093023,
          "velocity": 0.2755905511811024
        },
        {
          "duration": 0.12790697674418539,
          "durationTicks": 11,
          "midi": 103,
          "name": "G7",
          "ticks": 1810,
          "time": 21.046511627906977,
          "velocity": 0.12598425196850394
        },
        {
          "duration": 0.1860465116279073,
          "durationTicks": 16,
          "midi": 85,
          "name": "C#6",
          "ticks": 1811,
          "time": 21.058139534883722,
          "velocity": 0.1968503937007874
        },
        {
          "duration": 0.25581395348837077,
          "durationTicks": 22,
          "midi": 94,
          "name": "A#6",
          "ticks": 1811,
          "time": 21.058139534883722,
          "velocity": 0.15748031496062992
        },
        {
          "duration": 0.1860465116279073,
          "durationTicks": 16,
          "midi": 100,
          "name": "E7",
          "ticks": 1812,
          "time": 21.069767441860463,
          "velocity": 0.2440944881889764
        },
        {
          "duration": 0.03488372093023173,
          "durationTicks": 3,
          "midi": 88,
          "name": "E6",
          "ticks": 1814,
          "time": 21.093023255813954,
          "velocity": 0.08661417322834646
        },
        {
          "duration": 0.09302325581395365,
          "durationTicks": 8,
          "midi": 79,
          "name": "G5",
          "ticks": 1816,
          "time": 21.11627906976744,
          "velocity": 0.1968503937007874
        },
        {
          "duration": 0.1860465116279073,
          "durationTicks": 16,
          "midi": 90,
          "name": "F#6",
          "ticks": 1817,
          "time": 21.127906976744185,
          "velocity": 0.2283464566929134
        },
        {
          "duration": 0.12790697674418894,
          "durationTicks": 11,
          "midi": 78,
          "name": "F#5",
          "ticks": 1820,
          "time": 21.162790697674417,
          "velocity": 0.2992125984251969
        },
        {
          "duration": 0.38372093023255616,
          "durationTicks": 33,
          "midi": 67,
          "name": "G4",
          "ticks": 1822,
          "time": 21.186046511627907,
          "velocity": 0.4330708661417323
        },
        {
          "duration": 0.09302325581395365,
          "durationTicks": 8,
          "midi": 73,
          "name": "C#5",
          "ticks": 1822,
          "time": 21.186046511627907,
          "velocity": 0.1889763779527559
        },
        {
          "duration": 0.1976744186046524,
          "durationTicks": 17,
          "midi": 87,
          "name": "D#6",
          "ticks": 1822,
          "time": 21.186046511627907,
          "velocity": 0.2283464566929134
        },
        {
          "duration": 1.279069767441861,
          "durationTicks": 110,
          "midi": 88,
          "name": "E6",
          "ticks": 1822,
          "time": 21.186046511627907,
          "velocity": 0.25984251968503935
        },
        {
          "duration": 0.05813953488371837,
          "durationTicks": 5,
          "midi": 103,
          "name": "G7",
          "ticks": 1823,
          "time": 21.197674418604652,
          "velocity": 0.11023622047244094
        },
        {
          "duration": 0.06976744186046346,
          "durationTicks": 6,
          "midi": 92,
          "name": "G#6",
          "ticks": 1830,
          "time": 21.27906976744186,
          "velocity": 0.18110236220472442
        },
        {
          "duration": 0.13953488372093048,
          "durationTicks": 12,
          "midi": 78,
          "name": "F#5",
          "ticks": 1832,
          "time": 21.302325581395348,
          "velocity": 0.33070866141732286
        },
        {
          "duration": 0.04651162790697683,
          "durationTicks": 4,
          "midi": 103,
          "name": "G7",
          "ticks": 1834,
          "time": 21.325581395348838,
          "velocity": 0.11023622047244094
        },
        {
          "duration": 1.3372093023255793,
          "durationTicks": 115,
          "midi": 39,
          "name": "D#2",
          "ticks": 1835,
          "time": 21.337209302325583,
          "velocity": 0.47244094488188976
        },
        {
          "duration": 0.04651162790697683,
          "durationTicks": 4,
          "midi": 94,
          "name": "A#6",
          "ticks": 1835,
          "time": 21.337209302325583,
          "velocity": 0.18110236220472442
        },
        {
          "duration": 0.05813953488372192,
          "durationTicks": 5,
          "midi": 73,
          "name": "C#5",
          "ticks": 1836,
          "time": 21.348837209302324,
          "velocity": 0.16535433070866143
        },
        {
          "duration": 0.16279069767441712,
          "durationTicks": 14,
          "midi": 97,
          "name": "C#7",
          "ticks": 1838,
          "time": 21.372093023255815,
          "velocity": 0.25196850393700787
        },
        {
          "duration": 0.15116279069767202,
          "durationTicks": 13,
          "midi": 85,
          "name": "C#6",
          "ticks": 1839,
          "time": 21.38372093023256,
          "velocity": 0.25196850393700787
        },
        {
          "duration": 0.034883720930235285,
          "durationTicks": 3,
          "midi": 94,
          "name": "A#6",
          "ticks": 1844,
          "time": 21.441860465116278,
          "velocity": 0.11811023622047244
        },
        {
          "duration": 0.16279069767441712,
          "durationTicks": 14,
          "midi": 78,
          "name": "F#5",
          "ticks": 1846,
          "time": 21.46511627906977,
          "velocity": 0.3228346456692913
        },
        {
          "duration": 0.023255813953486637,
          "durationTicks": 2,
          "midi": 69,
          "name": "A4",
          "ticks": 1847,
          "time": 21.476744186046513,
          "velocity": 0.30708661417322836
        },
        {
          "duration": 0.03488372093023173,
          "durationTicks": 3,
          "midi": 103,
          "name": "G7",
          "ticks": 1848,
          "time": 21.488372093023255,
          "velocity": 0.11811023622047244
        },
        {
          "duration": 0.1860465116279073,
          "durationTicks": 16,
          "midi": 87,
          "name": "D#6",
          "ticks": 1849,
          "time": 21.5,
          "velocity": 0.1968503937007874
        },
        {
          "duration": 0.16279069767441712,
          "durationTicks": 14,
          "midi": 69,
          "name": "A4",
          "ticks": 1850,
          "time": 21.511627906976745,
          "velocity": 0.41732283464566927
        },
        {
          "duration": 0.15116279069767558,
          "durationTicks": 13,
          "midi": 58,
          "name": "A#3",
          "ticks": 1855,
          "time": 21.569767441860463,
          "velocity": 0.3779527559055118
        },
        {
          "duration": 0.6511627906976756,
          "durationTicks": 56,
          "midi": 97,
          "name": "C#7",
          "ticks": 1855,
          "time": 21.569767441860463,
          "velocity": 0.25984251968503935
        },
        {
          "duration": 0.09302325581395365,
          "durationTicks": 8,
          "midi": 103,
          "name": "G7",
          "ticks": 1855,
          "time": 21.569767441860463,
          "velocity": 0.07874015748031496
        },
        {
          "duration": 0.08139534883720856,
          "durationTicks": 7,
          "midi": 67,
          "name": "G4",
          "ticks": 1856,
          "time": 21.58139534883721,
          "velocity": 0.3779527559055118
        },
        {
          "duration": 0.16279069767442067,
          "durationTicks": 14,
          "midi": 85,
          "name": "C#6",
          "ticks": 1856,
          "time": 21.58139534883721,
          "velocity": 0.1889763779527559
        },
        {
          "duration": 0.04651162790697683,
          "durationTicks": 4,
          "midi": 96,
          "name": "C7",
          "ticks": 1857,
          "time": 21.593023255813954,
          "velocity": 0.07874015748031496
        },
        {
          "duration": 0.03488372093023173,
          "durationTicks": 3,
          "midi": 71,
          "name": "B4",
          "ticks": 1858,
          "time": 21.6046511627907,
          "velocity": 0.33858267716535434
        },
        {
          "duration": 0.034883720930235285,
          "durationTicks": 3,
          "midi": 77,
          "name": "F5",
          "ticks": 1859,
          "time": 21.61627906976744,
          "velocity": 0.18110236220472442
        },
        {
          "duration": 0.04651162790697683,
          "durationTicks": 4,
          "midi": 94,
          "name": "A#6",
          "ticks": 1859,
          "time": 21.61627906976744,
          "velocity": 0.07086614173228346
        },
        {
          "duration": 0.03488372093023173,
          "durationTicks": 3,
          "midi": 71,
          "name": "B4",
          "ticks": 1862,
          "time": 21.651162790697676,
          "velocity": 0.3228346456692913
        },
        {
          "duration": 0.13953488372093048,
          "durationTicks": 12,
          "midi": 78,
          "name": "F#5",
          "ticks": 1862,
          "time": 21.651162790697676,
          "velocity": 0.33858267716535434
        },
        {
          "duration": 0.02325581395349019,
          "durationTicks": 2,
          "midi": 67,
          "name": "G4",
          "ticks": 1864,
          "time": 21.674418604651162,
          "velocity": 0.3779527559055118
        },
        {
          "duration": 0.04651162790697683,
          "durationTicks": 4,
          "midi": 66,
          "name": "F#4",
          "ticks": 1866,
          "time": 21.697674418604652,
          "velocity": 0.4094488188976378
        },
        {
          "duration": 0.1046511627906952,
          "durationTicks": 9,
          "midi": 71,
          "name": "B4",
          "ticks": 1866,
          "time": 21.697674418604652,
          "velocity": 0.3700787401574803
        },
        {
          "duration": 0.04651162790697683,
          "durationTicks": 4,
          "midi": 87,
          "name": "D#6",
          "ticks": 1867,
          "time": 21.709302325581394,
          "velocity": 0.2047244094488189
        },
        {
          "duration": 0.04651162790697683,
          "durationTicks": 4,
          "midi": 94,
          "name": "A#6",
          "ticks": 1867,
          "time": 21.709302325581394,
          "velocity": 0.12598425196850394
        },
        {
          "duration": 0.15116279069767558,
          "durationTicks": 13,
          "midi": 81,
          "name": "A5",
          "ticks": 1868,
          "time": 21.72093023255814,
          "velocity": 0.2992125984251969
        },
        {
          "duration": 0.16279069767441712,
          "durationTicks": 14,
          "midi": 58,
          "name": "A#3",
          "ticks": 1869,
          "time": 21.732558139534884,
          "velocity": 0.3858267716535433
        },
        {
          "duration": 0.3255813953488378,
          "durationTicks": 28,
          "midi": 69,
          "name": "A4",
          "ticks": 1869,
          "time": 21.732558139534884,
          "velocity": 0.4881889763779528
        },
        {
          "duration": 0.04651162790697683,
          "durationTicks": 4,
          "midi": 67,
          "name": "G4",
          "ticks": 1870,
          "time": 21.74418604651163,
          "velocity": 0.4330708661417323
        },
        {
          "duration": 0.11627906976744384,
          "durationTicks": 10,
          "midi": 85,
          "name": "C#6",
          "ticks": 1871,
          "time": 21.75581395348837,
          "velocity": 0.1732283464566929
        },
        {
          "duration": 0.09302325581395365,
          "durationTicks": 8,
          "midi": 87,
          "name": "D#6",
          "ticks": 1873,
          "time": 21.77906976744186,
          "velocity": 0.10236220472440945
        },
        {
          "duration": 0.05813953488371837,
          "durationTicks": 5,
          "midi": 94,
          "name": "A#6",
          "ticks": 1874,
          "time": 21.790697674418606,
          "velocity": 0.08661417322834646
        },
        {
          "duration": 0.04651162790697683,
          "durationTicks": 4,
          "midi": 67,
          "name": "G4",
          "ticks": 1875,
          "time": 21.802325581395348,
          "velocity": 0.47244094488188976
        },
        {
          "duration": 0.06976744186046702,
          "durationTicks": 6,
          "midi": 77,
          "name": "F5",
          "ticks": 1879,
          "time": 21.848837209302324,
          "velocity": 0.11811023622047244
        },
        {
          "duration": 0.05813953488372192,
          "durationTicks": 5,
          "midi": 82,
          "name": "A#5",
          "ticks": 1879,
          "time": 21.848837209302324,
          "velocity": 0.11023622047244094
        },
        {
          "duration": 0.3837209302325597,
          "durationTicks": 33,
          "midi": 67,
          "name": "G4",
          "ticks": 1880,
          "time": 21.86046511627907,
          "velocity": 0.4645669291338583
        },
        {
          "duration": 2.7558139534883708,
          "durationTicks": 237,
          "midi": 83,
          "name": "B5",
          "ticks": 1880,
          "time": 21.86046511627907,
          "velocity": 0.2755905511811024
        },
        {
          "duration": 0.02325581395349019,
          "durationTicks": 2,
          "midi": 71,
          "name": "B4",
          "ticks": 1883,
          "time": 21.8953488372093,
          "velocity": 0.29133858267716534
        },
        {
          "duration": 0.11627906976744384,
          "durationTicks": 10,
          "midi": 85,
          "name": "C#6",
          "ticks": 1883,
          "time": 21.8953488372093,
          "velocity": 0.1968503937007874
        },
        {
          "duration": 0.40697674418604635,
          "durationTicks": 35,
          "midi": 90,
          "name": "F#6",
          "ticks": 1883,
          "time": 21.8953488372093,
          "velocity": 0.16535433070866143
        },
        {
          "duration": 0.06976744186046702,
          "durationTicks": 6,
          "midi": 58,
          "name": "A#3",
          "ticks": 1884,
          "time": 21.906976744186046,
          "velocity": 0.31496062992125984
        },
        {
          "duration": 0.13953488372093048,
          "durationTicks": 12,
          "midi": 94,
          "name": "A#6",
          "ticks": 1884,
          "time": 21.906976744186046,
          "velocity": 0.16535433070866143
        },
        {
          "duration": 0.7093023255813939,
          "durationTicks": 61,
          "midi": 78,
          "name": "F#5",
          "ticks": 1885,
          "time": 21.91860465116279,
          "velocity": 0.31496062992125984
        },
        {
          "duration": 0.03488372093023173,
          "durationTicks": 3,
          "midi": 71,
          "name": "B4",
          "ticks": 1886,
          "time": 21.930232558139537,
          "velocity": 0.3228346456692913
        },
        {
          "duration": 0.03488372093023173,
          "durationTicks": 3,
          "midi": 71,
          "name": "B4",
          "ticks": 1890,
          "time": 21.976744186046513,
          "velocity": 0.30708661417322836
        },
        {
          "duration": 0.046511627906973274,
          "durationTicks": 4,
          "midi": 82,
          "name": "A#5",
          "ticks": 1890,
          "time": 21.976744186046513,
          "velocity": 0.09448818897637795
        },
        {
          "duration": 0.05813953488372192,
          "durationTicks": 5,
          "midi": 58,
          "name": "A#3",
          "ticks": 1891,
          "time": 21.988372093023255,
          "velocity": 0.36220472440944884
        },
        {
          "duration": 0.20930232558139394,
          "durationTicks": 18,
          "midi": 86,
          "name": "D6",
          "ticks": 1892,
          "time": 22,
          "velocity": 0.07086614173228346
        },
        {
          "duration": 0.03488372093023173,
          "durationTicks": 3,
          "midi": 71,
          "name": "B4",
          "ticks": 1897,
          "time": 22.058139534883722,
          "velocity": 0.25196850393700787
        },
        {
          "duration": 0.03488372093023173,
          "durationTicks": 3,
          "midi": 85,
          "name": "C#6",
          "ticks": 1897,
          "time": 22.058139534883722,
          "velocity": 0.14173228346456693
        },
        {
          "duration": 0.4418604651162781,
          "durationTicks": 38,
          "midi": 69,
          "name": "A4",
          "ticks": 1899,
          "time": 22.08139534883721,
          "velocity": 0.5118110236220472
        },
        {
          "duration": 0.27906976744186096,
          "durationTicks": 24,
          "midi": 94,
          "name": "A#6",
          "ticks": 1899,
          "time": 22.08139534883721,
          "velocity": 0.16535433070866143
        },
        {
          "duration": 0.11627906976744029,
          "durationTicks": 10,
          "midi": 58,
          "name": "A#3",
          "ticks": 1900,
          "time": 22.093023255813954,
          "velocity": 0.3700787401574803
        },
        {
          "duration": 0.06976744186046346,
          "durationTicks": 6,
          "midi": 71,
          "name": "B4",
          "ticks": 1901,
          "time": 22.1046511627907,
          "velocity": 0.3700787401574803
        },
        {
          "duration": 0.16279069767442067,
          "durationTicks": 14,
          "midi": 85,
          "name": "C#6",
          "ticks": 1902,
          "time": 22.11627906976744,
          "velocity": 0.2125984251968504
        },
        {
          "duration": 0.04651162790697683,
          "durationTicks": 4,
          "midi": 103,
          "name": "G7",
          "ticks": 1909,
          "time": 22.197674418604652,
          "velocity": 0.08661417322834646
        },
        {
          "duration": 0.12790697674418539,
          "durationTicks": 11,
          "midi": 58,
          "name": "A#3",
          "ticks": 1911,
          "time": 22.22093023255814,
          "velocity": 0.36220472440944884
        },
        {
          "duration": 0.023255813953486637,
          "durationTicks": 2,
          "midi": 71,
          "name": "B4",
          "ticks": 1912,
          "time": 22.232558139534884,
          "velocity": 0.3228346456692913
        },
        {
          "duration": 0.13953488372093048,
          "durationTicks": 12,
          "midi": 67,
          "name": "G4",
          "ticks": 1914,
          "time": 22.25581395348837,
          "velocity": 0.4409448818897638
        },
        {
          "duration": 0.06976744186046346,
          "durationTicks": 6,
          "midi": 71,
          "name": "B4",
          "ticks": 1917,
          "time": 22.290697674418606,
          "velocity": 0.36220472440944884
        },
        {
          "duration": 0.40697674418604635,
          "durationTicks": 35,
          "midi": 85,
          "name": "C#6",
          "ticks": 1917,
          "time": 22.290697674418606,
          "velocity": 0.2204724409448819
        },
        {
          "duration": 0.04651162790697683,
          "durationTicks": 4,
          "midi": 103,
          "name": "G7",
          "ticks": 1917,
          "time": 22.290697674418606,
          "velocity": 0.11811023622047244
        },
        {
          "duration": 1,
          "durationTicks": 86,
          "midi": 87,
          "name": "D#6",
          "ticks": 1918,
          "time": 22.302325581395348,
          "velocity": 0.2125984251968504
        },
        {
          "duration": 0.7906976744186061,
          "durationTicks": 68,
          "midi": 59,
          "name": "B3",
          "ticks": 1922,
          "time": 22.348837209302324,
          "velocity": 0.4409448818897638
        },
        {
          "duration": 0.04651162790697683,
          "durationTicks": 4,
          "midi": 67,
          "name": "G4",
          "ticks": 1927,
          "time": 22.406976744186046,
          "velocity": 0.3937007874015748
        },
        {
          "duration": 0.24418604651162923,
          "durationTicks": 21,
          "midi": 75,
          "name": "D#5",
          "ticks": 1931,
          "time": 22.453488372093023,
          "velocity": 0.14960629921259844
        },
        {
          "duration": 0.13953488372093048,
          "durationTicks": 12,
          "midi": 67,
          "name": "G4",
          "ticks": 1932,
          "time": 22.46511627906977,
          "velocity": 0.41732283464566927
        },
        {
          "duration": 0.20930232558139394,
          "durationTicks": 18,
          "midi": 88,
          "name": "E6",
          "ticks": 1933,
          "time": 22.476744186046513,
          "velocity": 0.2283464566929134
        },
        {
          "duration": 0.09302325581395365,
          "durationTicks": 8,
          "midi": 94,
          "name": "A#6",
          "ticks": 1937,
          "time": 22.523255813953487,
          "velocity": 0.16535433070866143
        },
        {
          "duration": 0.8837209302325597,
          "durationTicks": 76,
          "midi": 69,
          "name": "A4",
          "ticks": 1938,
          "time": 22.53488372093023,
          "velocity": 0.5118110236220472
        },
        {
          "duration": 0.04651162790697683,
          "durationTicks": 4,
          "midi": 73,
          "name": "C#5",
          "ticks": 1941,
          "time": 22.569767441860463,
          "velocity": 0.13385826771653545
        },
        {
          "duration": 0.04651162790697683,
          "durationTicks": 4,
          "midi": 67,
          "name": "G4",
          "ticks": 1945,
          "time": 22.61627906976744,
          "velocity": 0.3700787401574803
        },
        {
          "duration": 0.034883720930235285,
          "durationTicks": 3,
          "midi": 77,
          "name": "F5",
          "ticks": 1949,
          "time": 22.662790697674417,
          "velocity": 0.15748031496062992
        },
        {
          "duration": 0.03488372093023173,
          "durationTicks": 3,
          "midi": 67,
          "name": "G4",
          "ticks": 1950,
          "time": 22.674418604651162,
          "velocity": 0.3228346456692913
        },
        {
          "duration": 0.08139534883720856,
          "durationTicks": 7,
          "midi": 78,
          "name": "F#5",
          "ticks": 1951,
          "time": 22.686046511627907,
          "velocity": 0.2440944881889764
        },
        {
          "duration": 0.12790697674418539,
          "durationTicks": 11,
          "midi": 100,
          "name": "E7",
          "ticks": 1951,
          "time": 22.686046511627907,
          "velocity": 0.16535433070866143
        },
        {
          "duration": 0.03488372093023173,
          "durationTicks": 3,
          "midi": 39,
          "name": "D#2",
          "ticks": 1952,
          "time": 22.697674418604652,
          "velocity": 0.1732283464566929
        },
        {
          "duration": 0.05813953488371837,
          "durationTicks": 5,
          "midi": 103,
          "name": "G7",
          "ticks": 1952,
          "time": 22.697674418604652,
          "velocity": 0.08661417322834646
        },
        {
          "duration": 0.04651162790697683,
          "durationTicks": 4,
          "midi": 66,
          "name": "F#4",
          "ticks": 1953,
          "time": 22.709302325581394,
          "velocity": 0.2440944881889764
        },
        {
          "duration": 0.09302325581395365,
          "durationTicks": 8,
          "midi": 88,
          "name": "E6",
          "ticks": 1953,
          "time": 22.709302325581394,
          "velocity": 0.1889763779527559
        },
        {
          "duration": 0.15116279069767202,
          "durationTicks": 13,
          "midi": 39,
          "name": "D#2",
          "ticks": 1956,
          "time": 22.74418604651163,
          "velocity": 0.23622047244094488
        },
        {
          "duration": 0.03488372093023173,
          "durationTicks": 3,
          "midi": 94,
          "name": "A#6",
          "ticks": 1958,
          "time": 22.767441860465116,
          "velocity": 0.07086614173228346
        },
        {
          "duration": 0.10465116279069875,
          "durationTicks": 9,
          "midi": 78,
          "name": "F#5",
          "ticks": 1959,
          "time": 22.77906976744186,
          "velocity": 0.2755905511811024
        },
        {
          "duration": 0.12790697674418539,
          "durationTicks": 11,
          "midi": 73,
          "name": "C#5",
          "ticks": 1960,
          "time": 22.790697674418606,
          "velocity": 0.13385826771653545
        },
        {
          "duration": 0.32558139534883423,
          "durationTicks": 28,
          "midi": 97,
          "name": "C#7",
          "ticks": 1960,
          "time": 22.790697674418606,
          "velocity": 0.23622047244094488
        },
        {
          "duration": 0.05813953488372192,
          "durationTicks": 5,
          "midi": 66,
          "name": "F#4",
          "ticks": 1961,
          "time": 22.802325581395348,
          "velocity": 0.3543307086614173
        },
        {
          "duration": 0.11627906976744029,
          "durationTicks": 10,
          "midi": 94,
          "name": "A#6",
          "ticks": 1963,
          "time": 22.825581395348838,
          "velocity": 0.11811023622047244
        },
        {
          "duration": 0.08139534883721211,
          "durationTicks": 7,
          "midi": 88,
          "name": "E6",
          "ticks": 1965,
          "time": 22.848837209302324,
          "velocity": 0.1968503937007874
        },
        {
          "duration": 0.08139534883720856,
          "durationTicks": 7,
          "midi": 67,
          "name": "G4",
          "ticks": 1966,
          "time": 22.86046511627907,
          "velocity": 0.36220472440944884
        },
        {
          "duration": 0.8139534883720927,
          "durationTicks": 70,
          "midi": 39,
          "name": "D#2",
          "ticks": 1970,
          "time": 22.906976744186046,
          "velocity": 0.3228346456692913
        },
        {
          "duration": 0.22093023255813904,
          "durationTicks": 19,
          "midi": 78,
          "name": "F#5",
          "ticks": 1972,
          "time": 22.930232558139537,
          "velocity": 0.28346456692913385
        },
        {
          "duration": 0.04651162790697683,
          "durationTicks": 4,
          "midi": 67,
          "name": "G4",
          "ticks": 1974,
          "time": 22.953488372093023,
          "velocity": 0.3543307086614173
        },
        {
          "duration": 0.08139534883720856,
          "durationTicks": 7,
          "midi": 88,
          "name": "E6",
          "ticks": 1974,
          "time": 22.953488372093023,
          "velocity": 0.2755905511811024
        },
        {
          "duration": 0.12790697674418539,
          "durationTicks": 11,
          "midi": 73,
          "name": "C#5",
          "ticks": 1978,
          "time": 23,
          "velocity": 0.07874015748031496
        },
        {
          "duration": 0.023255813953486637,
          "durationTicks": 2,
          "midi": 67,
          "name": "G4",
          "ticks": 1979,
          "time": 23.011627906976745,
          "velocity": 0.3543307086614173
        },
        {
          "duration": 0.02325581395349019,
          "durationTicks": 2,
          "midi": 66,
          "name": "F#4",
          "ticks": 1981,
          "time": 23.03488372093023,
          "velocity": 0.2440944881889764
        },
        {
          "duration": 0.023255813953486637,
          "durationTicks": 2,
          "midi": 67,
          "name": "G4",
          "ticks": 1983,
          "time": 23.058139534883722,
          "velocity": 0.33858267716535434
        },
        {
          "duration": 0.26744186046511587,
          "durationTicks": 23,
          "midi": 88,
          "name": "E6",
          "ticks": 1983,
          "time": 23.058139534883722,
          "velocity": 0.18110236220472442
        },
        {
          "duration": 0.05813953488372192,
          "durationTicks": 5,
          "midi": 66,
          "name": "F#4",
          "ticks": 1985,
          "time": 23.08139534883721,
          "velocity": 0.28346456692913385
        },
        {
          "duration": 0.04651162790697683,
          "durationTicks": 4,
          "midi": 79,
          "name": "G5",
          "ticks": 1989,
          "time": 23.127906976744185,
          "velocity": 0.10236220472440945
        },
        {
          "duration": 0.04651162790697683,
          "durationTicks": 4,
          "midi": 58,
          "name": "A#3",
          "ticks": 1990,
          "time": 23.13953488372093,
          "velocity": 0.33858267716535434
        },
        {
          "duration": 0.02325581395349019,
          "durationTicks": 2,
          "midi": 71,
          "name": "B4",
          "ticks": 1992,
          "time": 23.162790697674417,
          "velocity": 0.29133858267716534
        },
        {
          "duration": 0.05813953488372192,
          "durationTicks": 5,
          "midi": 78,
          "name": "F#5",
          "ticks": 1992,
          "time": 23.162790697674417,
          "velocity": 0.14960629921259844
        },
        {
          "duration": 0.06976744186046702,
          "durationTicks": 6,
          "midi": 85,
          "name": "C#6",
          "ticks": 1992,
          "time": 23.162790697674417,
          "velocity": 0.07086614173228346
        },
        {
          "duration": 2.3604651162790695,
          "durationTicks": 203,
          "midi": 59,
          "name": "B3",
          "ticks": 1994,
          "time": 23.186046511627907,
          "velocity": 0.4015748031496063
        },
        {
          "duration": 0.03488372093023173,
          "durationTicks": 3,
          "midi": 97,
          "name": "C#7",
          "ticks": 1997,
          "time": 23.22093023255814,
          "velocity": 0.11023622047244094
        },
        {
          "duration": 0.09302325581395365,
          "durationTicks": 8,
          "midi": 90,
          "name": "F#6",
          "ticks": 1998,
          "time": 23.232558139534884,
          "velocity": 0.13385826771653545
        },
        {
          "duration": 0.6279069767441854,
          "durationTicks": 54,
          "midi": 78,
          "name": "F#5",
          "ticks": 1999,
          "time": 23.24418604651163,
          "velocity": 0.2992125984251969
        },
        {
          "duration": 0.03488372093023173,
          "durationTicks": 3,
          "midi": 67,
          "name": "G4",
          "ticks": 2001,
          "time": 23.267441860465116,
          "velocity": 0.3228346456692913
        },
        {
          "duration": 0.08139534883720856,
          "durationTicks": 7,
          "midi": 97,
          "name": "C#7",
          "ticks": 2002,
          "time": 23.27906976744186,
          "velocity": 0.09448818897637795
        },
        {
          "duration": 0.034883720930235285,
          "durationTicks": 3,
          "midi": 66,
          "name": "F#4",
          "ticks": 2004,
          "time": 23.302325581395348,
          "velocity": 0.28346456692913385
        },
        {
          "duration": 0.05813953488372192,
          "durationTicks": 5,
          "midi": 94,
          "name": "A#6",
          "ticks": 2004,
          "time": 23.302325581395348,
          "velocity": 0.09448818897637795
        },
        {
          "duration": 0.034883720930235285,
          "durationTicks": 3,
          "midi": 66,
          "name": "F#4",
          "ticks": 2008,
          "time": 23.348837209302324,
          "velocity": 0.33070866141732286
        },
        {
          "duration": 0.1976744186046524,
          "durationTicks": 17,
          "midi": 100,
          "name": "E7",
          "ticks": 2009,
          "time": 23.36046511627907,
          "velocity": 0.1732283464566929
        },
        {
          "duration": 0.3023255813953476,
          "durationTicks": 26,
          "midi": 87,
          "name": "D#6",
          "ticks": 2010,
          "time": 23.372093023255815,
          "velocity": 0.16535433070866143
        },
        {
          "duration": 0.03488372093023173,
          "durationTicks": 3,
          "midi": 67,
          "name": "G4",
          "ticks": 2011,
          "time": 23.38372093023256,
          "velocity": 0.29133858267716534
        },
        {
          "duration": 0.03488372093023173,
          "durationTicks": 3,
          "midi": 94,
          "name": "A#6",
          "ticks": 2013,
          "time": 23.406976744186046,
          "velocity": 0.07874015748031496
        },
        {
          "duration": 0.03488372093023173,
          "durationTicks": 3,
          "midi": 67,
          "name": "G4",
          "ticks": 2015,
          "time": 23.430232558139537,
          "velocity": 0.25196850393700787
        },
        {
          "duration": 0.09302325581395365,
          "durationTicks": 8,
          "midi": 69,
          "name": "A4",
          "ticks": 2016,
          "time": 23.441860465116278,
          "velocity": 0.4015748031496063
        },
        {
          "duration": 0.1860465116279073,
          "durationTicks": 16,
          "midi": 85,
          "name": "C#6",
          "ticks": 2021,
          "time": 23.5,
          "velocity": 0.11811023622047244
        },
        {
          "duration": 0.04651162790697683,
          "durationTicks": 4,
          "midi": 66,
          "name": "F#4",
          "ticks": 2022,
          "time": 23.511627906976745,
          "velocity": 0.2755905511811024
        },
        {
          "duration": 0.03488372093023173,
          "durationTicks": 3,
          "midi": 69,
          "name": "A4",
          "ticks": 2025,
          "time": 23.546511627906977,
          "velocity": 0.3228346456692913
        },
        {
          "duration": 0.03488372093023173,
          "durationTicks": 3,
          "midi": 67,
          "name": "G4",
          "ticks": 2029,
          "time": 23.593023255813954,
          "velocity": 0.2440944881889764
        },
        {
          "duration": 0.03488372093023173,
          "durationTicks": 3,
          "midi": 94,
          "name": "A#6",
          "ticks": 2029,
          "time": 23.593023255813954,
          "velocity": 0.07086614173228346
        },
        {
          "duration": 0.13953488372093048,
          "durationTicks": 12,
          "midi": 69,
          "name": "A4",
          "ticks": 2030,
          "time": 23.6046511627907,
          "velocity": 0.3228346456692913
        },
        {
          "duration": 0.04651162790697683,
          "durationTicks": 4,
          "midi": 97,
          "name": "C#7",
          "ticks": 2031,
          "time": 23.61627906976744,
          "velocity": 0.15748031496062992
        },
        {
          "duration": 0.08139534883720856,
          "durationTicks": 7,
          "midi": 100,
          "name": "E7",
          "ticks": 2032,
          "time": 23.627906976744185,
          "velocity": 0.11023622047244094
        },
        {
          "duration": 0.03488372093023173,
          "durationTicks": 3,
          "midi": 67,
          "name": "G4",
          "ticks": 2034,
          "time": 23.651162790697676,
          "velocity": 0.25196850393700787
        },
        {
          "duration": 0.16279069767441712,
          "durationTicks": 14,
          "midi": 67,
          "name": "G4",
          "ticks": 2038,
          "time": 23.697674418604652,
          "velocity": 0.2755905511811024
        },
        {
          "duration": 0.13953488372093048,
          "durationTicks": 12,
          "midi": 85,
          "name": "C#6",
          "ticks": 2040,
          "time": 23.72093023255814,
          "velocity": 0.10236220472440945
        },
        {
          "duration": 0.08139534883720856,
          "durationTicks": 7,
          "midi": 39,
          "name": "D#2",
          "ticks": 2041,
          "time": 23.732558139534884,
          "velocity": 0.2283464566929134
        },
        {
          "duration": 0.12790697674418539,
          "durationTicks": 11,
          "midi": 71,
          "name": "B4",
          "ticks": 2041,
          "time": 23.732558139534884,
          "velocity": 0.4094488188976378
        },
        {
          "duration": 0.09302325581395365,
          "durationTicks": 8,
          "midi": 87,
          "name": "D#6",
          "ticks": 2045,
          "time": 23.77906976744186,
          "velocity": 0.13385826771653545
        },
        {
          "duration": 0.06976744186046346,
          "durationTicks": 6,
          "midi": 69,
          "name": "A4",
          "ticks": 2049,
          "time": 23.825581395348838,
          "velocity": 0.25196850393700787
        },
        {
          "duration": 0.09302325581395365,
          "durationTicks": 8,
          "midi": 39,
          "name": "D#2",
          "ticks": 2050,
          "time": 23.837209302325583,
          "velocity": 0.1889763779527559
        },
        {
          "duration": 0.05813953488372192,
          "durationTicks": 5,
          "midi": 100,
          "name": "E7",
          "ticks": 2051,
          "time": 23.848837209302324,
          "velocity": 0.09448818897637795
        },
        {
          "duration": 0.04651162790697683,
          "durationTicks": 4,
          "midi": 67,
          "name": "G4",
          "ticks": 2053,
          "time": 23.872093023255815,
          "velocity": 0.29133858267716534
        },
        {
          "duration": 0.2093023255813975,
          "durationTicks": 18,
          "midi": 78,
          "name": "F#5",
          "ticks": 2055,
          "time": 23.8953488372093,
          "velocity": 0.25196850393700787
        },
        {
          "duration": 0.15116279069767558,
          "durationTicks": 13,
          "midi": 85,
          "name": "C#6",
          "ticks": 2055,
          "time": 23.8953488372093,
          "velocity": 0.07874015748031496
        },
        {
          "duration": 0.04651162790697683,
          "durationTicks": 4,
          "midi": 88,
          "name": "E6",
          "ticks": 2058,
          "time": 23.930232558139537,
          "velocity": 0.08661417322834646
        },
        {
          "duration": 0.10465116279069875,
          "durationTicks": 9,
          "midi": 66,
          "name": "F#4",
          "ticks": 2059,
          "time": 23.941860465116278,
          "velocity": 0.2283464566929134
        },
        {
          "duration": 0.06976744186046346,
          "durationTicks": 6,
          "midi": 69,
          "name": "A4",
          "ticks": 2061,
          "time": 23.96511627906977,
          "velocity": 0.2204724409448819
        },
        {
          "duration": 0.03488372093023173,
          "durationTicks": 3,
          "midi": 39,
          "name": "D#2",
          "ticks": 2062,
          "time": 23.976744186046513,
          "velocity": 0.13385826771653545
        },
        {
          "duration": 0.22093023255813904,
          "durationTicks": 19,
          "midi": 81,
          "name": "A5",
          "ticks": 2063,
          "time": 23.988372093023255,
          "velocity": 0.25196850393700787
        },
        {
          "duration": 0.15116279069767558,
          "durationTicks": 13,
          "midi": 39,
          "name": "D#2",
          "ticks": 2067,
          "time": 24.03488372093023,
          "velocity": 0.23622047244094488
        },
        {
          "duration": 0.04651162790697683,
          "durationTicks": 4,
          "midi": 88,
          "name": "E6",
          "ticks": 2067,
          "time": 24.03488372093023,
          "velocity": 0.07874015748031496
        },
        {
          "duration": 0.03488372093023173,
          "durationTicks": 3,
          "midi": 67,
          "name": "G4",
          "ticks": 2068,
          "time": 24.046511627906977,
          "velocity": 0.2755905511811024
        },
        {
          "duration": 0.3488372093023244,
          "durationTicks": 30,
          "midi": 87,
          "name": "D#6",
          "ticks": 2068,
          "time": 24.046511627906977,
          "velocity": 0.11023622047244094
        },
        {
          "duration": 0.20930232558139394,
          "durationTicks": 18,
          "midi": 69,
          "name": "A4",
          "ticks": 2069,
          "time": 24.058139534883722,
          "velocity": 0.4094488188976378
        },
        {
          "duration": 0.08139534883720856,
          "durationTicks": 7,
          "midi": 67,
          "name": "G4",
          "ticks": 2072,
          "time": 24.093023255813954,
          "velocity": 0.29133858267716534
        },
        {
          "duration": 0.09302325581395365,
          "durationTicks": 8,
          "midi": 88,
          "name": "E6",
          "ticks": 2074,
          "time": 24.11627906976744,
          "velocity": 0.11811023622047244
        },
        {
          "duration": 0.034883720930235285,
          "durationTicks": 3,
          "midi": 97,
          "name": "C#7",
          "ticks": 2074,
          "time": 24.11627906976744,
          "velocity": 0.10236220472440945
        },
        {
          "duration": 0.27906976744186096,
          "durationTicks": 24,
          "midi": 78,
          "name": "F#5",
          "ticks": 2075,
          "time": 24.127906976744185,
          "velocity": 0.2047244094488189
        },
        {
          "duration": 0.03488372093023173,
          "durationTicks": 3,
          "midi": 67,
          "name": "G4",
          "ticks": 2080,
          "time": 24.186046511627907,
          "velocity": 0.28346456692913385
        },
        {
          "duration": 0.4186046511627879,
          "durationTicks": 36,
          "midi": 39,
          "name": "D#2",
          "ticks": 2081,
          "time": 24.197674418604652,
          "velocity": 0.29133858267716534
        },
        {
          "duration": 0.19767441860464885,
          "durationTicks": 17,
          "midi": 85,
          "name": "C#6",
          "ticks": 2085,
          "time": 24.24418604651163,
          "velocity": 0.11023622047244094
        },
        {
          "duration": 0.1976744186046524,
          "durationTicks": 17,
          "midi": 69,
          "name": "A4",
          "ticks": 2090,
          "time": 24.302325581395348,
          "velocity": 0.4015748031496063
        },
        {
          "duration": 0.03488372093023173,
          "durationTicks": 3,
          "midi": 67,
          "name": "G4",
          "ticks": 2099,
          "time": 24.406976744186046,
          "velocity": 0.2677165354330709
        },
        {
          "duration": 0.13953488372093048,
          "durationTicks": 12,
          "midi": 67,
          "name": "G4",
          "ticks": 2103,
          "time": 24.453488372093023,
          "velocity": 0.2755905511811024
        },
        {
          "duration": 0.10465116279069875,
          "durationTicks": 9,
          "midi": 78,
          "name": "F#5",
          "ticks": 2107,
          "time": 24.5,
          "velocity": 0.13385826771653545
        },
        {
          "duration": 0.13953488372093048,
          "durationTicks": 12,
          "midi": 69,
          "name": "A4",
          "ticks": 2113,
          "time": 24.569767441860463,
          "velocity": 0.2755905511811024
        },
        {
          "duration": 0.09302325581395365,
          "durationTicks": 8,
          "midi": 39,
          "name": "D#2",
          "ticks": 2118,
          "time": 24.627906976744185,
          "velocity": 0.28346456692913385
        },
        {
          "duration": 0.034883720930235285,
          "durationTicks": 3,
          "midi": 67,
          "name": "G4",
          "ticks": 2121,
          "time": 24.662790697674417,
          "velocity": 0.16535433070866143
        },
        {
          "duration": 0.034883720930235285,
          "durationTicks": 3,
          "midi": 81,
          "name": "A5",
          "ticks": 2125,
          "time": 24.709302325581394,
          "velocity": 0.08661417322834646
        },
        {
          "duration": 0.03488372093023173,
          "durationTicks": 3,
          "midi": 67,
          "name": "G4",
          "ticks": 2126,
          "time": 24.72093023255814,
          "velocity": 0.1968503937007874
        },
        {
          "duration": 0.11627906976744029,
          "durationTicks": 10,
          "midi": 39,
          "name": "D#2",
          "ticks": 2127,
          "time": 24.732558139534884,
          "velocity": 0.2440944881889764
        },
        {
          "duration": 0.15116279069767558,
          "durationTicks": 13,
          "midi": 69,
          "name": "A4",
          "ticks": 2130,
          "time": 24.767441860465116,
          "velocity": 0.1889763779527559
        },
        {
          "duration": 0.06976744186046346,
          "durationTicks": 6,
          "midi": 67,
          "name": "G4",
          "ticks": 2131,
          "time": 24.77906976744186,
          "velocity": 0.2204724409448819
        },
        {
          "duration": 0.6744186046511622,
          "durationTicks": 58,
          "midi": 66,
          "name": "F#4",
          "ticks": 2137,
          "time": 24.848837209302324,
          "velocity": 0.3228346456692913
        },
        {
          "duration": 0.04651162790697683,
          "durationTicks": 4,
          "midi": 39,
          "name": "D#2",
          "ticks": 2140,
          "time": 24.88372093023256,
          "velocity": 0.18110236220472442
        },
        {
          "duration": 0.03488372093023173,
          "durationTicks": 3,
          "midi": 39,
          "name": "D#2",
          "ticks": 2146,
          "time": 24.953488372093023,
          "velocity": 0.12598425196850394
        },
        {
          "duration": 0.03488372093023173,
          "durationTicks": 3,
          "midi": 39,
          "name": "D#2",
          "ticks": 2154,
          "time": 25.046511627906977,
          "velocity": 0.09448818897637795
        },
        {
          "duration": 0.10465116279069875,
          "durationTicks": 9,
          "midi": 69,
          "name": "A4",
          "ticks": 2156,
          "time": 25.069767441860463,
          "velocity": 0.18110236220472442
        },
        {
          "duration": 0.034883720930235285,
          "durationTicks": 3,
          "midi": 39,
          "name": "D#2",
          "ticks": 2176,
          "time": 25.302325581395348,
          "velocity": 0.08661417322834646
        },
        {
          "duration": 0.20930232558139394,
          "durationTicks": 18,
          "midi": 69,
          "name": "A4",
          "ticks": 2177,
          "time": 25.313953488372093,
          "velocity": 0.25196850393700787
        },
        {
          "duration": 0.06976744186046346,
          "durationTicks": 6,
          "midi": 39,
          "name": "D#2",
          "ticks": 2183,
          "time": 25.38372093023256,
          "velocity": 0.08661417322834646
        },
        {
          "duration": 0.03488372093023173,
          "durationTicks": 3,
          "midi": 39,
          "name": "D#2",
          "ticks": 2193,
          "time": 25.5,
          "velocity": 0.14173228346456693
        },
        {
          "duration": 0.05813953488372192,
          "durationTicks": 5,
          "midi": 67,
          "name": "G4",
          "ticks": 2195,
          "time": 25.523255813953487,
          "velocity": 0.2677165354330709
        },
        {
          "duration": 0.06976744186046346,
          "durationTicks": 6,
          "midi": 39,
          "name": "D#2",
          "ticks": 2197,
          "time": 25.546511627906977,
          "velocity": 0.13385826771653545
        },
        {
          "duration": 0.17441860465116577,
          "durationTicks": 15,
          "midi": 59,
          "name": "B3",
          "ticks": 2199,
          "time": 25.569767441860463,
          "velocity": 0.28346456692913385
        },
        {
          "duration": 0.03488372093023173,
          "durationTicks": 3,
          "midi": 66,
          "name": "F#4",
          "ticks": 2200,
          "time": 25.58139534883721,
          "velocity": 0.2047244094488189
        },
        {
          "duration": 0.03488372093023173,
          "durationTicks": 3,
          "midi": 39,
          "name": "D#2",
          "ticks": 2204,
          "time": 25.627906976744185,
          "velocity": 0.10236220472440945
        },
        {
          "duration": 0.23255813953488413,
          "durationTicks": 20,
          "midi": 66,
          "name": "F#4",
          "ticks": 2204,
          "time": 25.627906976744185,
          "velocity": 0.2204724409448819
        },
        {
          "duration": 0.22093023255813904,
          "durationTicks": 19,
          "midi": 69,
          "name": "A4",
          "ticks": 2204,
          "time": 25.627906976744185,
          "velocity": 0.28346456692913385
        },
        {
          "duration": 0.011627906976741542,
          "durationTicks": 1,
          "midi": 51,
          "name": "D#3",
          "ticks": 2214,
          "time": 25.74418604651163,
          "velocity": 0.5590551181102362
        },
        {
          "duration": 0.023255813953486637,
          "durationTicks": 2,
          "midi": 60,
          "name": "C4",
          "ticks": 2214,
          "time": 25.74418604651163,
          "velocity": 0.3464566929133858
        },
        {
          "duration": 0.02325581395349019,
          "durationTicks": 2,
          "midi": 50,
          "name": "D3",
          "ticks": 2215,
          "time": 25.75581395348837,
          "velocity": 0.5275590551181102
        },
        {
          "duration": 0.1860465116279073,
          "durationTicks": 16,
          "midi": 59,
          "name": "B3",
          "ticks": 2216,
          "time": 25.767441860465116,
          "velocity": 0.31496062992125984
        },
        {
          "duration": 0.023255813953486637,
          "durationTicks": 2,
          "midi": 51,
          "name": "D#3",
          "ticks": 2218,
          "time": 25.790697674418606,
          "velocity": 0.5511811023622047
        },
        {
          "duration": 0.29069767441860606,
          "durationTicks": 25,
          "midi": 52,
          "name": "E3",
          "ticks": 2220,
          "time": 25.813953488372093,
          "velocity": 0.5354330708661418
        },
        {
          "duration": 0.05813953488372192,
          "durationTicks": 5,
          "midi": 66,
          "name": "F#4",
          "ticks": 2227,
          "time": 25.8953488372093,
          "velocity": 0.18110236220472442
        },
        {
          "duration": 0.3372093023255829,
          "durationTicks": 29,
          "midi": 64,
          "name": "E4",
          "ticks": 2231,
          "time": 25.941860465116278,
          "velocity": 0.5984251968503937
        },
        {
          "duration": 0.03488372093023173,
          "durationTicks": 3,
          "midi": 59,
          "name": "B3",
          "ticks": 2236,
          "time": 26,
          "velocity": 0.1732283464566929
        },
        {
          "duration": 1.1395348837209305,
          "durationTicks": 98,
          "midi": 67,
          "name": "G4",
          "ticks": 2241,
          "time": 26.058139534883722,
          "velocity": 0.4409448818897638
        },
        {
          "duration": 0.12790697674418539,
          "durationTicks": 11,
          "midi": 95,
          "name": "B6",
          "ticks": 2243,
          "time": 26.08139534883721,
          "velocity": 0.09448818897637795
        },
        {
          "duration": 0.03488372093023173,
          "durationTicks": 3,
          "midi": 51,
          "name": "D#3",
          "ticks": 2245,
          "time": 26.1046511627907,
          "velocity": 0.4015748031496063
        },
        {
          "duration": 4.186046511627907,
          "durationTicks": 360,
          "midi": 59,
          "name": "B3",
          "ticks": 2246,
          "time": 26.11627906976744,
          "velocity": 0.5118110236220472
        },
        {
          "duration": 0.023255813953486637,
          "durationTicks": 2,
          "midi": 53,
          "name": "F3",
          "ticks": 2248,
          "time": 26.13953488372093,
          "velocity": 0.23622047244094488
        },
        {
          "duration": 0.02325581395349019,
          "durationTicks": 2,
          "midi": 51,
          "name": "D#3",
          "ticks": 2250,
          "time": 26.162790697674417,
          "velocity": 0.3464566929133858
        },
        {
          "duration": 0.03488372093023173,
          "durationTicks": 3,
          "midi": 52,
          "name": "E3",
          "ticks": 2252,
          "time": 26.186046511627907,
          "velocity": 0.28346456692913385
        },
        {
          "duration": 0.02325581395349019,
          "durationTicks": 2,
          "midi": 51,
          "name": "D#3",
          "ticks": 2255,
          "time": 26.22093023255814,
          "velocity": 0.33070866141732286
        },
        {
          "duration": 1.2209302325581426,
          "durationTicks": 105,
          "midi": 95,
          "name": "B6",
          "ticks": 2258,
          "time": 26.25581395348837,
          "velocity": 0.25196850393700787
        },
        {
          "duration": 0.02325581395349019,
          "durationTicks": 2,
          "midi": 51,
          "name": "D#3",
          "ticks": 2259,
          "time": 26.267441860465116,
          "velocity": 0.2755905511811024
        },
        {
          "duration": 0.03488372093023173,
          "durationTicks": 3,
          "midi": 52,
          "name": "E3",
          "ticks": 2261,
          "time": 26.290697674418606,
          "velocity": 0.33070866141732286
        },
        {
          "duration": 1.0465116279069768,
          "durationTicks": 90,
          "midi": 64,
          "name": "E4",
          "ticks": 2262,
          "time": 26.302325581395348,
          "velocity": 0.3937007874015748
        },
        {
          "duration": 0.4418604651162781,
          "durationTicks": 38,
          "midi": 52,
          "name": "E3",
          "ticks": 2265,
          "time": 26.337209302325583,
          "velocity": 0.4645669291338583
        },
        {
          "duration": 0.04651162790697683,
          "durationTicks": 4,
          "midi": 40,
          "name": "E2",
          "ticks": 2270,
          "time": 26.3953488372093,
          "velocity": 0.07086614173228346
        },
        {
          "duration": 0.08139534883720856,
          "durationTicks": 7,
          "midi": 78,
          "name": "F#5",
          "ticks": 2288,
          "time": 26.6046511627907,
          "velocity": 0.07086614173228346
        },
        {
          "duration": 0.04651162790697683,
          "durationTicks": 4,
          "midi": 98,
          "name": "D7",
          "ticks": 2302,
          "time": 26.767441860465116,
          "velocity": 0.07086614173228346
        },
        {
          "duration": 0.3837209302325597,
          "durationTicks": 33,
          "midi": 78,
          "name": "F#5",
          "ticks": 2305,
          "time": 26.802325581395348,
          "velocity": 0.16535433070866143
        },
        {
          "duration": 0.03488372093023173,
          "durationTicks": 3,
          "midi": 52,
          "name": "E3",
          "ticks": 2307,
          "time": 26.825581395348838,
          "velocity": 0.13385826771653545
        },
        {
          "duration": 0.03488372093023173,
          "durationTicks": 3,
          "midi": 51,
          "name": "D#3",
          "ticks": 2310,
          "time": 26.86046511627907,
          "velocity": 0.15748031496062992
        },
        {
          "duration": 0.15116279069767202,
          "durationTicks": 13,
          "midi": 40,
          "name": "E2",
          "ticks": 2315,
          "time": 26.91860465116279,
          "velocity": 0.13385826771653545
        },
        {
          "duration": 1.1162790697674403,
          "durationTicks": 96,
          "midi": 52,
          "name": "E3",
          "ticks": 2318,
          "time": 26.953488372093023,
          "velocity": 0.3464566929133858
        },
        {
          "duration": 0.05813953488372192,
          "durationTicks": 5,
          "midi": 86,
          "name": "D6",
          "ticks": 2321,
          "time": 26.988372093023255,
          "velocity": 0.11023622047244094
        },
        {
          "duration": 0.13953488372093048,
          "durationTicks": 12,
          "midi": 98,
          "name": "D7",
          "ticks": 2328,
          "time": 27.069767441860463,
          "velocity": 0.07874015748031496
        },
        {
          "duration": 0.15116279069767558,
          "durationTicks": 13,
          "midi": 40,
          "name": "E2",
          "ticks": 2329,
          "time": 27.08139534883721,
          "velocity": 0.18110236220472442
        },
        {
          "duration": 0.05813953488372192,
          "durationTicks": 5,
          "midi": 67,
          "name": "G4",
          "ticks": 2340,
          "time": 27.209302325581394,
          "velocity": 0.28346456692913385
        },
        {
          "duration": 0.05813953488371837,
          "durationTicks": 5,
          "midi": 40,
          "name": "E2",
          "ticks": 2343,
          "time": 27.24418604651163,
          "velocity": 0.11811023622047244
        },
        {
          "duration": 0.12790697674418539,
          "durationTicks": 11,
          "midi": 67,
          "name": "G4",
          "ticks": 2346,
          "time": 27.27906976744186,
          "velocity": 0.3937007874015748
        },
        {
          "duration": 0.06976744186046702,
          "durationTicks": 6,
          "midi": 90,
          "name": "F#6",
          "ticks": 2349,
          "time": 27.313953488372093,
          "velocity": 0.11811023622047244
        },
        {
          "duration": 0.1046511627906952,
          "durationTicks": 9,
          "midi": 98,
          "name": "D7",
          "ticks": 2351,
          "time": 27.337209302325583,
          "velocity": 0.15748031496062992
        },
        {
          "duration": 0.1976744186046524,
          "durationTicks": 17,
          "midi": 78,
          "name": "F#5",
          "ticks": 2356,
          "time": 27.3953488372093,
          "velocity": 0.1889763779527559
        },
        {
          "duration": 0.3255813953488378,
          "durationTicks": 28,
          "midi": 67,
          "name": "G4",
          "ticks": 2358,
          "time": 27.41860465116279,
          "velocity": 0.4015748031496063
        },
        {
          "duration": 0.09302325581395365,
          "durationTicks": 8,
          "midi": 91,
          "name": "G6",
          "ticks": 2360,
          "time": 27.441860465116278,
          "velocity": 0.13385826771653545
        },
        {
          "duration": 0.09302325581395365,
          "durationTicks": 8,
          "midi": 40,
          "name": "E2",
          "ticks": 2362,
          "time": 27.46511627906977,
          "velocity": 0.16535433070866143
        },
        {
          "duration": 0.05813953488371837,
          "durationTicks": 5,
          "midi": 87,
          "name": "D#6",
          "ticks": 2362,
          "time": 27.46511627906977,
          "velocity": 0.07086614173228346
        },
        {
          "duration": 0.5348837209302317,
          "durationTicks": 46,
          "midi": 95,
          "name": "B6",
          "ticks": 2366,
          "time": 27.511627906976745,
          "velocity": 0.33070866141732286
        },
        {
          "duration": 0.12790697674418894,
          "durationTicks": 11,
          "midi": 86,
          "name": "D6",
          "ticks": 2367,
          "time": 27.523255813953487,
          "velocity": 0.18110236220472442
        },
        {
          "duration": 0.06976744186046702,
          "durationTicks": 6,
          "midi": 40,
          "name": "E2",
          "ticks": 2371,
          "time": 27.569767441860463,
          "velocity": 0.11811023622047244
        },
        {
          "duration": 0.034883720930235285,
          "durationTicks": 3,
          "midi": 87,
          "name": "D#6",
          "ticks": 2375,
          "time": 27.61627906976744,
          "velocity": 0.09448818897637795
        },
        {
          "duration": 0.09302325581395365,
          "durationTicks": 8,
          "midi": 91,
          "name": "G6",
          "ticks": 2379,
          "time": 27.662790697674417,
          "velocity": 0.14173228346456693
        },
        {
          "duration": 0.06976744186046346,
          "durationTicks": 6,
          "midi": 78,
          "name": "F#5",
          "ticks": 2381,
          "time": 27.686046511627907,
          "velocity": 0.14960629921259844
        },
        {
          "duration": 0.17441860465116577,
          "durationTicks": 15,
          "midi": 98,
          "name": "D7",
          "ticks": 2383,
          "time": 27.709302325581394,
          "velocity": 0.14960629921259844
        },
        {
          "duration": 0.05813953488371837,
          "durationTicks": 5,
          "midi": 85,
          "name": "C#6",
          "ticks": 2386,
          "time": 27.74418604651163,
          "velocity": 0.07086614173228346
        },
        {
          "duration": 0.2209302325581426,
          "durationTicks": 19,
          "midi": 67,
          "name": "G4",
          "ticks": 2387,
          "time": 27.75581395348837,
          "velocity": 0.44881889763779526
        },
        {
          "duration": 0.23255813953488413,
          "durationTicks": 20,
          "midi": 78,
          "name": "F#5",
          "ticks": 2389,
          "time": 27.77906976744186,
          "velocity": 0.31496062992125984
        },
        {
          "duration": 0.10465116279069875,
          "durationTicks": 9,
          "midi": 86,
          "name": "D6",
          "ticks": 2389,
          "time": 27.77906976744186,
          "velocity": 0.16535433070866143
        },
        {
          "duration": 0.04651162790697683,
          "durationTicks": 4,
          "midi": 40,
          "name": "E2",
          "ticks": 2391,
          "time": 27.802325581395348,
          "velocity": 0.13385826771653545
        },
        {
          "duration": 0.06976744186046702,
          "durationTicks": 6,
          "midi": 86,
          "name": "D6",
          "ticks": 2399,
          "time": 27.8953488372093,
          "velocity": 0.14173228346456693
        },
        {
          "duration": 0.13953488372093048,
          "durationTicks": 12,
          "midi": 98,
          "name": "D7",
          "ticks": 2399,
          "time": 27.8953488372093,
          "velocity": 0.2283464566929134
        },
        {
          "duration": 0.0930232558139501,
          "durationTicks": 8,
          "midi": 86,
          "name": "D6",
          "ticks": 2406,
          "time": 27.976744186046513,
          "velocity": 0.2047244094488189
        },
        {
          "duration": 0.08139534883720856,
          "durationTicks": 7,
          "midi": 67,
          "name": "G4",
          "ticks": 2407,
          "time": 27.988372093023255,
          "velocity": 0.33858267716535434
        },
        {
          "duration": 0.15116279069767558,
          "durationTicks": 13,
          "midi": 91,
          "name": "G6",
          "ticks": 2408,
          "time": 28,
          "velocity": 0.18110236220472442
        },
        {
          "duration": 0.04651162790697683,
          "durationTicks": 4,
          "midi": 40,
          "name": "E2",
          "ticks": 2411,
          "time": 28.03488372093023,
          "velocity": 0.07874015748031496
        },
        {
          "duration": 0.1976744186046524,
          "durationTicks": 17,
          "midi": 78,
          "name": "F#5",
          "ticks": 2412,
          "time": 28.046511627906977,
          "velocity": 0.23622047244094488
        },
        {
          "duration": 0.023255813953486637,
          "durationTicks": 2,
          "midi": 66,
          "name": "F#4",
          "ticks": 2413,
          "time": 28.058139534883722,
          "velocity": 0.25196850393700787
        },
        {
          "duration": 0.034883720930235285,
          "durationTicks": 3,
          "midi": 64,
          "name": "E4",
          "ticks": 2414,
          "time": 28.069767441860463,
          "velocity": 0.2283464566929134
        },
        {
          "duration": 0.09302325581395365,
          "durationTicks": 8,
          "midi": 86,
          "name": "D6",
          "ticks": 2416,
          "time": 28.093023255813954,
          "velocity": 0.14960629921259844
        },
        {
          "duration": 0.03488372093023173,
          "durationTicks": 3,
          "midi": 40,
          "name": "E2",
          "ticks": 2417,
          "time": 28.1046511627907,
          "velocity": 0.07874015748031496
        },
        {
          "duration": 0.39534883720930125,
          "durationTicks": 34,
          "midi": 67,
          "name": "G4",
          "ticks": 2417,
          "time": 28.1046511627907,
          "velocity": 0.4566929133858268
        },
        {
          "duration": 1.4767441860465098,
          "durationTicks": 127,
          "midi": 95,
          "name": "B6",
          "ticks": 2417,
          "time": 28.1046511627907,
          "velocity": 0.4015748031496063
        },
        {
          "duration": 0.12790697674418894,
          "durationTicks": 11,
          "midi": 98,
          "name": "D7",
          "ticks": 2418,
          "time": 28.11627906976744,
          "velocity": 0.2440944881889764
        },
        {
          "duration": 1.872093023255811,
          "durationTicks": 161,
          "midi": 52,
          "name": "E3",
          "ticks": 2421,
          "time": 28.151162790697676,
          "velocity": 0.5039370078740157
        },
        {
          "duration": 0.04651162790697683,
          "durationTicks": 4,
          "midi": 87,
          "name": "D#6",
          "ticks": 2423,
          "time": 28.174418604651162,
          "velocity": 0.14960629921259844
        },
        {
          "duration": 0.03488372093023173,
          "durationTicks": 3,
          "midi": 40,
          "name": "E2",
          "ticks": 2424,
          "time": 28.186046511627907,
          "velocity": 0.07874015748031496
        },
        {
          "duration": 0.06976744186046346,
          "durationTicks": 6,
          "midi": 86,
          "name": "D6",
          "ticks": 2425,
          "time": 28.197674418604652,
          "velocity": 0.12598425196850394
        },
        {
          "duration": 0.09302325581395365,
          "durationTicks": 8,
          "midi": 90,
          "name": "F#6",
          "ticks": 2430,
          "time": 28.25581395348837,
          "velocity": 0.16535433070866143
        },
        {
          "duration": 0.04651162790697683,
          "durationTicks": 4,
          "midi": 87,
          "name": "D#6",
          "ticks": 2431,
          "time": 28.267441860465116,
          "velocity": 0.16535433070866143
        },
        {
          "duration": 0.1860465116279073,
          "durationTicks": 16,
          "midi": 91,
          "name": "G6",
          "ticks": 2431,
          "time": 28.267441860465116,
          "velocity": 0.25196850393700787
        },
        {
          "duration": 0.5232558139534866,
          "durationTicks": 45,
          "midi": 78,
          "name": "F#5",
          "ticks": 2432,
          "time": 28.27906976744186,
          "velocity": 0.2677165354330709
        },
        {
          "duration": 0.08139534883720856,
          "durationTicks": 7,
          "midi": 86,
          "name": "D6",
          "ticks": 2433,
          "time": 28.290697674418606,
          "velocity": 0.12598425196850394
        },
        {
          "duration": 0.08139534883720856,
          "durationTicks": 7,
          "midi": 93,
          "name": "A6",
          "ticks": 2435,
          "time": 28.313953488372093,
          "velocity": 0.13385826771653545
        },
        {
          "duration": 1.6860465116279073,
          "durationTicks": 145,
          "midi": 74,
          "name": "D5",
          "ticks": 2436,
          "time": 28.325581395348838,
          "velocity": 0.25984251968503935
        },
        {
          "duration": 0.27906976744186096,
          "durationTicks": 24,
          "midi": 94,
          "name": "A#6",
          "ticks": 2436,
          "time": 28.325581395348838,
          "velocity": 0.1732283464566929
        },
        {
          "duration": 0.03488372093023173,
          "durationTicks": 3,
          "midi": 101,
          "name": "F7",
          "ticks": 2436,
          "time": 28.325581395348838,
          "velocity": 0.10236220472440945
        },
        {
          "duration": 0.1046511627906952,
          "durationTicks": 9,
          "midi": 98,
          "name": "D7",
          "ticks": 2437,
          "time": 28.337209302325583,
          "velocity": 0.23622047244094488
        },
        {
          "duration": 0.3488372093023244,
          "durationTicks": 30,
          "midi": 40,
          "name": "E2",
          "ticks": 2440,
          "time": 28.372093023255815,
          "velocity": 0.1889763779527559
        },
        {
          "duration": 0.03488372093023173,
          "durationTicks": 3,
          "midi": 92,
          "name": "G#6",
          "ticks": 2445,
          "time": 28.430232558139537,
          "velocity": 0.08661417322834646
        },
        {
          "duration": 0.8488372093023244,
          "durationTicks": 73,
          "midi": 85,
          "name": "C#6",
          "ticks": 2448,
          "time": 28.46511627906977,
          "velocity": 0.2125984251968504
        },
        {
          "duration": 0.05813953488371837,
          "durationTicks": 5,
          "midi": 87,
          "name": "D#6",
          "ticks": 2448,
          "time": 28.46511627906977,
          "velocity": 0.1889763779527559
        },
        {
          "duration": 0.046511627906973274,
          "durationTicks": 4,
          "midi": 101,
          "name": "F7",
          "ticks": 2449,
          "time": 28.476744186046513,
          "velocity": 0.11811023622047244
        },
        {
          "duration": 0.08139534883720856,
          "durationTicks": 7,
          "midi": 67,
          "name": "G4",
          "ticks": 2452,
          "time": 28.511627906976745,
          "velocity": 0.4094488188976378
        },
        {
          "duration": 0.16279069767441712,
          "durationTicks": 14,
          "midi": 93,
          "name": "A6",
          "ticks": 2452,
          "time": 28.511627906976745,
          "velocity": 0.1732283464566929
        },
        {
          "duration": 0.13953488372093048,
          "durationTicks": 12,
          "midi": 98,
          "name": "D7",
          "ticks": 2453,
          "time": 28.523255813953487,
          "velocity": 0.25196850393700787
        },
        {
          "duration": 0.7093023255813975,
          "durationTicks": 61,
          "midi": 91,
          "name": "G6",
          "ticks": 2454,
          "time": 28.53488372093023,
          "velocity": 0.23622047244094488
        },
        {
          "duration": 0.034883720930235285,
          "durationTicks": 3,
          "midi": 66,
          "name": "F#4",
          "ticks": 2457,
          "time": 28.569767441860463,
          "velocity": 0.33070866141732286
        },
        {
          "duration": 0.12790697674418539,
          "durationTicks": 11,
          "midi": 87,
          "name": "D#6",
          "ticks": 2459,
          "time": 28.593023255813954,
          "velocity": 0.15748031496062992
        },
        {
          "duration": 0.04651162790697683,
          "durationTicks": 4,
          "midi": 67,
          "name": "G4",
          "ticks": 2460,
          "time": 28.6046511627907,
          "velocity": 0.3700787401574803
        },
        {
          "duration": 0.1744186046511622,
          "durationTicks": 15,
          "midi": 94,
          "name": "A#6",
          "ticks": 2462,
          "time": 28.627906976744185,
          "velocity": 0.1732283464566929
        },
        {
          "duration": 0.034883720930235285,
          "durationTicks": 3,
          "midi": 68,
          "name": "G#4",
          "ticks": 2465,
          "time": 28.662790697674417,
          "velocity": 0.29133858267716534
        },
        {
          "duration": 0.5465116279069768,
          "durationTicks": 47,
          "midi": 98,
          "name": "D7",
          "ticks": 2467,
          "time": 28.686046511627907,
          "velocity": 0.2992125984251969
        },
        {
          "duration": 0.11627906976744029,
          "durationTicks": 10,
          "midi": 67,
          "name": "G4",
          "ticks": 2468,
          "time": 28.697674418604652,
          "velocity": 0.5039370078740157
        },
        {
          "duration": 0.05813953488372192,
          "durationTicks": 5,
          "midi": 92,
          "name": "G#6",
          "ticks": 2470,
          "time": 28.72093023255814,
          "velocity": 0.11811023622047244
        },
        {
          "duration": 1.372093023255811,
          "durationTicks": 118,
          "midi": 40,
          "name": "E2",
          "ticks": 2472,
          "time": 28.74418604651163,
          "velocity": 0.3779527559055118
        },
        {
          "duration": 0.09302325581395365,
          "durationTicks": 8,
          "midi": 87,
          "name": "D#6",
          "ticks": 2472,
          "time": 28.74418604651163,
          "velocity": 0.1889763779527559
        },
        {
          "duration": 0.16279069767442067,
          "durationTicks": 14,
          "midi": 101,
          "name": "F7",
          "ticks": 2474,
          "time": 28.767441860465116,
          "velocity": 0.13385826771653545
        },
        {
          "duration": 0.09302325581395365,
          "durationTicks": 8,
          "midi": 93,
          "name": "A6",
          "ticks": 2475,
          "time": 28.77906976744186,
          "velocity": 0.2047244094488189
        },
        {
          "duration": 0.05813953488372192,
          "durationTicks": 5,
          "midi": 67,
          "name": "G4",
          "ticks": 2479,
          "time": 28.825581395348838,
          "velocity": 0.4015748031496063
        },
        {
          "duration": 0.03488372093023173,
          "durationTicks": 3,
          "midi": 94,
          "name": "A#6",
          "ticks": 2479,
          "time": 28.825581395348838,
          "velocity": 0.15748031496062992
        },
        {
          "duration": 1.1976744186046488,
          "durationTicks": 103,
          "midi": 78,
          "name": "F#5",
          "ticks": 2480,
          "time": 28.837209302325583,
          "velocity": 0.3779527559055118
        },
        {
          "duration": 0.4534883720930232,
          "durationTicks": 39,
          "midi": 94,
          "name": "A#6",
          "ticks": 2483,
          "time": 28.872093023255815,
          "velocity": 0.23622047244094488
        },
        {
          "duration": 0.1744186046511622,
          "durationTicks": 15,
          "midi": 67,
          "name": "G4",
          "ticks": 2485,
          "time": 28.8953488372093,
          "velocity": 0.4881889763779528
        },
        {
          "duration": 0.08139534883721211,
          "durationTicks": 7,
          "midi": 87,
          "name": "D#6",
          "ticks": 2485,
          "time": 28.8953488372093,
          "velocity": 0.2047244094488189
        },
        {
          "duration": 0.04651162790697683,
          "durationTicks": 4,
          "midi": 92,
          "name": "G#6",
          "ticks": 2486,
          "time": 28.906976744186046,
          "velocity": 0.13385826771653545
        },
        {
          "duration": 0.03488372093023173,
          "durationTicks": 3,
          "midi": 92,
          "name": "G#6",
          "ticks": 2491,
          "time": 28.96511627906977,
          "velocity": 0.1889763779527559
        },
        {
          "duration": 0.13953488372093048,
          "durationTicks": 12,
          "midi": 93,
          "name": "A6",
          "ticks": 2494,
          "time": 29,
          "velocity": 0.1732283464566929
        },
        {
          "duration": 0.08139534883720856,
          "durationTicks": 7,
          "midi": 101,
          "name": "F7",
          "ticks": 2494,
          "time": 29,
          "velocity": 0.15748031496062992
        },
        {
          "duration": 0.06976744186046346,
          "durationTicks": 6,
          "midi": 82,
          "name": "A#5",
          "ticks": 2495,
          "time": 29.011627906976745,
          "velocity": 0.10236220472440945
        },
        {
          "duration": 0.05813953488372192,
          "durationTicks": 5,
          "midi": 66,
          "name": "F#4",
          "ticks": 2500,
          "time": 29.069767441860463,
          "velocity": 0.3464566929133858
        },
        {
          "duration": 0.09302325581395365,
          "durationTicks": 8,
          "midi": 87,
          "name": "D#6",
          "ticks": 2500,
          "time": 29.069767441860463,
          "velocity": 0.1732283464566929
        },
        {
          "duration": 0.02325581395349019,
          "durationTicks": 2,
          "midi": 68,
          "name": "G#4",
          "ticks": 2505,
          "time": 29.127906976744185,
          "velocity": 0.4015748031496063
        },
        {
          "duration": 0.06976744186046346,
          "durationTicks": 6,
          "midi": 67,
          "name": "G4",
          "ticks": 2507,
          "time": 29.151162790697676,
          "velocity": 0.4251968503937008
        },
        {
          "duration": 0.06976744186046702,
          "durationTicks": 6,
          "midi": 82,
          "name": "A#5",
          "ticks": 2508,
          "time": 29.162790697674417,
          "velocity": 0.12598425196850394
        },
        {
          "duration": 0.06976744186046702,
          "durationTicks": 6,
          "midi": 92,
          "name": "G#6",
          "ticks": 2509,
          "time": 29.174418604651162,
          "velocity": 0.08661417322834646
        },
        {
          "duration": 0.034883720930235285,
          "durationTicks": 3,
          "midi": 66,
          "name": "F#4",
          "ticks": 2512,
          "time": 29.209302325581394,
          "velocity": 0.2992125984251969
        },
        {
          "duration": 0.02325581395349019,
          "durationTicks": 2,
          "midi": 66,
          "name": "F#4",
          "ticks": 2516,
          "time": 29.25581395348837,
          "velocity": 0.36220472440944884
        },
        {
          "duration": 0.04651162790697683,
          "durationTicks": 4,
          "midi": 87,
          "name": "D#6",
          "ticks": 2518,
          "time": 29.27906976744186,
          "velocity": 0.12598425196850394
        },
        {
          "duration": 0.03488372093023173,
          "durationTicks": 3,
          "midi": 93,
          "name": "A6",
          "ticks": 2518,
          "time": 29.27906976744186,
          "velocity": 0.11811023622047244
        },
        {
          "duration": 0.05813953488371837,
          "durationTicks": 5,
          "midi": 80,
          "name": "G#5",
          "ticks": 2519,
          "time": 29.290697674418606,
          "velocity": 0.11023622047244094
        },
        {
          "duration": 0.6860465116279073,
          "durationTicks": 59,
          "midi": 98,
          "name": "D7",
          "ticks": 2519,
          "time": 29.290697674418606,
          "velocity": 0.2677165354330709
        },
        {
          "duration": 0.10465116279069875,
          "durationTicks": 9,
          "midi": 81,
          "name": "A5",
          "ticks": 2522,
          "time": 29.325581395348838,
          "velocity": 0.13385826771653545
        },
        {
          "duration": 0.15116279069767202,
          "durationTicks": 13,
          "midi": 85,
          "name": "C#6",
          "ticks": 2523,
          "time": 29.337209302325583,
          "velocity": 0.2047244094488189
        },
        {
          "duration": 0.09302325581395365,
          "durationTicks": 8,
          "midi": 87,
          "name": "D#6",
          "ticks": 2523,
          "time": 29.337209302325583,
          "velocity": 0.2047244094488189
        },
        {
          "duration": 0.09302325581395365,
          "durationTicks": 8,
          "midi": 67,
          "name": "G4",
          "ticks": 2524,
          "time": 29.348837209302324,
          "velocity": 0.4094488188976378
        },
        {
          "duration": 0.06976744186046702,
          "durationTicks": 6,
          "midi": 91,
          "name": "G6",
          "ticks": 2525,
          "time": 29.36046511627907,
          "velocity": 0.1968503937007874
        },
        {
          "duration": 0.04651162790697683,
          "durationTicks": 4,
          "midi": 93,
          "name": "A6",
          "ticks": 2525,
          "time": 29.36046511627907,
          "velocity": 0.13385826771653545
        },
        {
          "duration": 0.04651162790697683,
          "durationTicks": 4,
          "midi": 94,
          "name": "A#6",
          "ticks": 2525,
          "time": 29.36046511627907,
          "velocity": 0.11811023622047244
        },
        {
          "duration": 0.05813953488372192,
          "durationTicks": 5,
          "midi": 101,
          "name": "F7",
          "ticks": 2525,
          "time": 29.36046511627907,
          "velocity": 0.09448818897637795
        },
        {
          "duration": 0.08139534883720856,
          "durationTicks": 7,
          "midi": 92,
          "name": "G#6",
          "ticks": 2529,
          "time": 29.406976744186046,
          "velocity": 0.18110236220472442
        },
        {
          "duration": 0.1046511627906952,
          "durationTicks": 9,
          "midi": 94,
          "name": "A#6",
          "ticks": 2531,
          "time": 29.430232558139537,
          "velocity": 0.18110236220472442
        },
        {
          "duration": 0.348837209302328,
          "durationTicks": 30,
          "midi": 87,
          "name": "D#6",
          "ticks": 2532,
          "time": 29.441860465116278,
          "velocity": 0.2125984251968504
        },
        {
          "duration": 0.046511627906973274,
          "durationTicks": 4,
          "midi": 79,
          "name": "G5",
          "ticks": 2535,
          "time": 29.476744186046513,
          "velocity": 0.1732283464566929
        },
        {
          "duration": 0.08139534883720856,
          "durationTicks": 7,
          "midi": 81,
          "name": "A5",
          "ticks": 2535,
          "time": 29.476744186046513,
          "velocity": 0.15748031496062992
        },
        {
          "duration": 0.08139534883720856,
          "durationTicks": 7,
          "midi": 93,
          "name": "A6",
          "ticks": 2536,
          "time": 29.488372093023255,
          "velocity": 0.16535433070866143
        },
        {
          "duration": 0.13953488372093048,
          "durationTicks": 12,
          "midi": 67,
          "name": "G4",
          "ticks": 2537,
          "time": 29.5,
          "velocity": 0.4409448818897638
        },
        {
          "duration": 0.04651162790697683,
          "durationTicks": 4,
          "midi": 97,
          "name": "C#7",
          "ticks": 2537,
          "time": 29.5,
          "velocity": 0.16535433070866143
        },
        {
          "duration": 0.4534883720930232,
          "durationTicks": 39,
          "midi": 85,
          "name": "C#6",
          "ticks": 2538,
          "time": 29.511627906976745,
          "velocity": 0.2677165354330709
        },
        {
          "duration": 0.04651162790697683,
          "durationTicks": 4,
          "midi": 93,
          "name": "A6",
          "ticks": 2545,
          "time": 29.593023255813954,
          "velocity": 0.2047244094488189
        },
        {
          "duration": 0.5348837209302317,
          "durationTicks": 46,
          "midi": 95,
          "name": "B6",
          "ticks": 2545,
          "time": 29.593023255813954,
          "velocity": 0.30708661417322836
        },
        {
          "duration": 0.023255813953486637,
          "durationTicks": 2,
          "midi": 66,
          "name": "F#4",
          "ticks": 2549,
          "time": 29.63953488372093,
          "velocity": 0.25984251968503935
        },
        {
          "duration": 0.05813953488372192,
          "durationTicks": 5,
          "midi": 92,
          "name": "G#6",
          "ticks": 2549,
          "time": 29.63953488372093,
          "velocity": 0.16535433070866143
        },
        {
          "duration": 0.13953488372093048,
          "durationTicks": 12,
          "midi": 94,
          "name": "A#6",
          "ticks": 2549,
          "time": 29.63953488372093,
          "velocity": 0.1968503937007874
        },
        {
          "duration": 0.02325581395349019,
          "durationTicks": 2,
          "midi": 67,
          "name": "G4",
          "ticks": 2552,
          "time": 29.674418604651162,
          "velocity": 0.3543307086614173
        },
        {
          "duration": 0.1744186046511622,
          "durationTicks": 15,
          "midi": 91,
          "name": "G6",
          "ticks": 2553,
          "time": 29.686046511627907,
          "velocity": 0.2047244094488189
        },
        {
          "duration": 0.02325581395349019,
          "durationTicks": 2,
          "midi": 67,
          "name": "G4",
          "ticks": 2555,
          "time": 29.709302325581394,
          "velocity": 0.3464566929133858
        },
        {
          "duration": 0.04651162790697683,
          "durationTicks": 4,
          "midi": 101,
          "name": "F7",
          "ticks": 2555,
          "time": 29.709302325581394,
          "velocity": 0.07874015748031496
        },
        {
          "duration": 0.16279069767441712,
          "durationTicks": 14,
          "midi": 81,
          "name": "A5",
          "ticks": 2557,
          "time": 29.732558139534884,
          "velocity": 0.12598425196850394
        },
        {
          "duration": 0.023255813953486637,
          "durationTicks": 2,
          "midi": 67,
          "name": "G4",
          "ticks": 2558,
          "time": 29.74418604651163,
          "velocity": 0.3858267716535433
        },
        {
          "duration": 0.023255813953486637,
          "durationTicks": 2,
          "midi": 67,
          "name": "G4",
          "ticks": 2561,
          "time": 29.77906976744186,
          "velocity": 0.36220472440944884
        },
        {
          "duration": 0.05813953488372192,
          "durationTicks": 5,
          "midi": 68,
          "name": "G#4",
          "ticks": 2563,
          "time": 29.802325581395348,
          "velocity": 0.2755905511811024
        },
        {
          "duration": 0.25581395348837077,
          "durationTicks": 22,
          "midi": 94,
          "name": "A#6",
          "ticks": 2564,
          "time": 29.813953488372093,
          "velocity": 0.15748031496062992
        },
        {
          "duration": 0.05813953488371837,
          "durationTicks": 5,
          "midi": 79,
          "name": "G5",
          "ticks": 2566,
          "time": 29.837209302325583,
          "velocity": 0.16535433070866143
        },
        {
          "duration": 0.04651162790697683,
          "durationTicks": 4,
          "midi": 87,
          "name": "D#6",
          "ticks": 2566,
          "time": 29.837209302325583,
          "velocity": 0.16535433070866143
        },
        {
          "duration": 0.034883720930235285,
          "durationTicks": 3,
          "midi": 92,
          "name": "G#6",
          "ticks": 2567,
          "time": 29.848837209302324,
          "velocity": 0.12598425196850394
        },
        {
          "duration": 0.02325581395349019,
          "durationTicks": 2,
          "midi": 67,
          "name": "G4",
          "ticks": 2568,
          "time": 29.86046511627907,
          "velocity": 0.41732283464566927
        },
        {
          "duration": 0.16279069767441712,
          "durationTicks": 14,
          "midi": 93,
          "name": "A6",
          "ticks": 2568,
          "time": 29.86046511627907,
          "velocity": 0.2125984251968504
        },
        {
          "duration": 0.12790697674418539,
          "durationTicks": 11,
          "midi": 67,
          "name": "G4",
          "ticks": 2573,
          "time": 29.91860465116279,
          "velocity": 0.3937007874015748
        },
        {
          "duration": 0.05813953488371837,
          "durationTicks": 5,
          "midi": 87,
          "name": "D#6",
          "ticks": 2574,
          "time": 29.930232558139537,
          "velocity": 0.2204724409448819
        },
        {
          "duration": 0.09302325581395365,
          "durationTicks": 8,
          "midi": 91,
          "name": "G6",
          "ticks": 2575,
          "time": 29.941860465116278,
          "velocity": 0.18110236220472442
        },
        {
          "duration": 0.08139534883720856,
          "durationTicks": 7,
          "midi": 101,
          "name": "F7",
          "ticks": 2577,
          "time": 29.96511627906977,
          "velocity": 0.11023622047244094
        },
        {
          "duration": 0.09302325581395365,
          "durationTicks": 8,
          "midi": 85,
          "name": "C#6",
          "ticks": 2580,
          "time": 30,
          "velocity": 0.14960629921259844
        },
        {
          "duration": 0.04651162790697683,
          "durationTicks": 4,
          "midi": 73,
          "name": "C#5",
          "ticks": 2583,
          "time": 30.03488372093023,
          "velocity": 0.10236220472440945
        },
        {
          "duration": 2.3953488372093013,
          "durationTicks": 206,
          "midi": 52,
          "name": "E3",
          "ticks": 2584,
          "time": 30.046511627906977,
          "velocity": 0.5118110236220472
        },
        {
          "duration": 0.03488372093023173,
          "durationTicks": 3,
          "midi": 66,
          "name": "F#4",
          "ticks": 2584,
          "time": 30.046511627906977,
          "velocity": 0.2204724409448819
        },
        {
          "duration": 0.03488372093023173,
          "durationTicks": 3,
          "midi": 68,
          "name": "G#4",
          "ticks": 2584,
          "time": 30.046511627906977,
          "velocity": 0.2992125984251969
        },
        {
          "duration": 0.4534883720930232,
          "durationTicks": 39,
          "midi": 78,
          "name": "F#5",
          "ticks": 2584,
          "time": 30.046511627906977,
          "velocity": 0.2992125984251969
        },
        {
          "duration": 0.034883720930235285,
          "durationTicks": 3,
          "midi": 87,
          "name": "D#6",
          "ticks": 2586,
          "time": 30.069767441860463,
          "velocity": 0.11023622047244094
        },
        {
          "duration": 0.023255813953486637,
          "durationTicks": 2,
          "midi": 68,
          "name": "G#4",
          "ticks": 2588,
          "time": 30.093023255813954,
          "velocity": 0.3700787401574803
        },
        {
          "duration": 0.1976744186046524,
          "durationTicks": 17,
          "midi": 94,
          "name": "A#6",
          "ticks": 2588,
          "time": 30.093023255813954,
          "velocity": 0.14960629921259844
        },
        {
          "duration": 0.04651162790697683,
          "durationTicks": 4,
          "midi": 81,
          "name": "A5",
          "ticks": 2589,
          "time": 30.1046511627907,
          "velocity": 0.11811023622047244
        },
        {
          "duration": 0.09302325581395365,
          "durationTicks": 8,
          "midi": 88,
          "name": "E6",
          "ticks": 2589,
          "time": 30.1046511627907,
          "velocity": 0.1968503937007874
        },
        {
          "duration": 0.03488372093023173,
          "durationTicks": 3,
          "midi": 40,
          "name": "E2",
          "ticks": 2591,
          "time": 30.127906976744185,
          "velocity": 0.2125984251968504
        },
        {
          "duration": 0.06976744186046702,
          "durationTicks": 6,
          "midi": 66,
          "name": "F#4",
          "ticks": 2591,
          "time": 30.127906976744185,
          "velocity": 0.33858267716535434
        },
        {
          "duration": 0.22093023255813904,
          "durationTicks": 19,
          "midi": 76,
          "name": "E5",
          "ticks": 2592,
          "time": 30.13953488372093,
          "velocity": 0.2204724409448819
        },
        {
          "duration": 0.05813953488372192,
          "durationTicks": 5,
          "midi": 87,
          "name": "D#6",
          "ticks": 2592,
          "time": 30.13953488372093,
          "velocity": 0.16535433070866143
        },
        {
          "duration": 0.05813953488372192,
          "durationTicks": 5,
          "midi": 92,
          "name": "G#6",
          "ticks": 2592,
          "time": 30.13953488372093,
          "velocity": 0.08661417322834646
        },
        {
          "duration": 0.1046511627906952,
          "durationTicks": 9,
          "midi": 74,
          "name": "D5",
          "ticks": 2593,
          "time": 30.151162790697676,
          "velocity": 0.14960629921259844
        },
        {
          "duration": 0.1046511627906952,
          "durationTicks": 9,
          "midi": 85,
          "name": "C#6",
          "ticks": 2593,
          "time": 30.151162790697676,
          "velocity": 0.2047244094488189
        },
        {
          "duration": 0.03488372093023173,
          "durationTicks": 3,
          "midi": 40,
          "name": "E2",
          "ticks": 2595,
          "time": 30.174418604651162,
          "velocity": 0.1968503937007874
        },
        {
          "duration": 0.03488372093023173,
          "durationTicks": 3,
          "midi": 81,
          "name": "A5",
          "ticks": 2595,
          "time": 30.174418604651162,
          "velocity": 0.12598425196850394
        },
        {
          "duration": 0.08139534883721211,
          "durationTicks": 7,
          "midi": 66,
          "name": "F#4",
          "ticks": 2598,
          "time": 30.209302325581394,
          "velocity": 0.3543307086614173
        },
        {
          "duration": 0.09302325581395365,
          "durationTicks": 8,
          "midi": 40,
          "name": "E2",
          "ticks": 2600,
          "time": 30.232558139534884,
          "velocity": 0.25196850393700787
        },
        {
          "duration": 0.04651162790697683,
          "durationTicks": 4,
          "midi": 100,
          "name": "E7",
          "ticks": 2600,
          "time": 30.232558139534884,
          "velocity": 0.11023622047244094
        },
        {
          "duration": 0.03488372093023173,
          "durationTicks": 3,
          "midi": 92,
          "name": "G#6",
          "ticks": 2601,
          "time": 30.24418604651163,
          "velocity": 0.07874015748031496
        },
        {
          "duration": 0.3837209302325597,
          "durationTicks": 33,
          "midi": 87,
          "name": "D#6",
          "ticks": 2602,
          "time": 30.25581395348837,
          "velocity": 0.1968503937007874
        },
        {
          "duration": 0.15116279069767558,
          "durationTicks": 13,
          "midi": 93,
          "name": "A6",
          "ticks": 2604,
          "time": 30.27906976744186,
          "velocity": 0.14173228346456693
        },
        {
          "duration": 0.3139534883720927,
          "durationTicks": 27,
          "midi": 85,
          "name": "C#6",
          "ticks": 2605,
          "time": 30.290697674418606,
          "velocity": 0.14960629921259844
        },
        {
          "duration": 0.19767441860464885,
          "durationTicks": 17,
          "midi": 98,
          "name": "D7",
          "ticks": 2605,
          "time": 30.290697674418606,
          "velocity": 0.14173228346456693
        },
        {
          "duration": 0.17441860465116577,
          "durationTicks": 15,
          "midi": 92,
          "name": "G#6",
          "ticks": 2606,
          "time": 30.302325581395348,
          "velocity": 0.16535433070866143
        },
        {
          "duration": 0.08139534883720856,
          "durationTicks": 7,
          "midi": 68,
          "name": "G#4",
          "ticks": 2607,
          "time": 30.313953488372093,
          "velocity": 0.13385826771653545
        },
        {
          "duration": 0.7441860465116292,
          "durationTicks": 64,
          "midi": 74,
          "name": "D5",
          "ticks": 2607,
          "time": 30.313953488372093,
          "velocity": 0.16535433070866143
        },
        {
          "duration": 0.19767441860464885,
          "durationTicks": 17,
          "midi": 59,
          "name": "B3",
          "ticks": 2608,
          "time": 30.325581395348838,
          "velocity": 0.3228346456692913
        },
        {
          "duration": 0.7790697674418574,
          "durationTicks": 67,
          "midi": 40,
          "name": "E2",
          "ticks": 2609,
          "time": 30.337209302325583,
          "velocity": 0.3700787401574803
        },
        {
          "duration": 0.03488372093023173,
          "durationTicks": 3,
          "midi": 81,
          "name": "A5",
          "ticks": 2612,
          "time": 30.372093023255815,
          "velocity": 0.11811023622047244
        },
        {
          "duration": 0.05813953488372192,
          "durationTicks": 5,
          "midi": 88,
          "name": "E6",
          "ticks": 2612,
          "time": 30.372093023255815,
          "velocity": 0.10236220472440945
        },
        {
          "duration": 0.04651162790697683,
          "durationTicks": 4,
          "midi": 94,
          "name": "A#6",
          "ticks": 2613,
          "time": 30.38372093023256,
          "velocity": 0.13385826771653545
        },
        {
          "duration": 0.04651162790697683,
          "durationTicks": 4,
          "midi": 80,
          "name": "G#5",
          "ticks": 2614,
          "time": 30.3953488372093,
          "velocity": 0.07086614173228346
        },
        {
          "duration": 0.04651162790697683,
          "durationTicks": 4,
          "midi": 82,
          "name": "A#5",
          "ticks": 2615,
          "time": 30.406976744186046,
          "velocity": 0.15748031496062992
        },
        {
          "duration": 0.16279069767441712,
          "durationTicks": 14,
          "midi": 68,
          "name": "G#4",
          "ticks": 2619,
          "time": 30.453488372093023,
          "velocity": 0.2992125984251969
        },
        {
          "duration": 0.03488372093023173,
          "durationTicks": 3,
          "midi": 81,
          "name": "A5",
          "ticks": 2619,
          "time": 30.453488372093023,
          "velocity": 0.13385826771653545
        },
        {
          "duration": 0.09302325581395365,
          "durationTicks": 8,
          "midi": 100,
          "name": "E7",
          "ticks": 2620,
          "time": 30.46511627906977,
          "velocity": 0.11023622047244094
        },
        {
          "duration": 0.9767441860465098,
          "durationTicks": 84,
          "midi": 88,
          "name": "E6",
          "ticks": 2621,
          "time": 30.476744186046513,
          "velocity": 0.3700787401574803
        },
        {
          "duration": 0.05813953488372192,
          "durationTicks": 5,
          "midi": 93,
          "name": "A6",
          "ticks": 2623,
          "time": 30.5,
          "velocity": 0.12598425196850394
        },
        {
          "duration": 0.6046511627906952,
          "durationTicks": 52,
          "midi": 78,
          "name": "F#5",
          "ticks": 2624,
          "time": 30.511627906976745,
          "velocity": 0.33858267716535434
        },
        {
          "duration": 0.23255813953488413,
          "durationTicks": 20,
          "midi": 98,
          "name": "D7",
          "ticks": 2625,
          "time": 30.523255813953487,
          "velocity": 0.2755905511811024
        },
        {
          "duration": 1.0813953488372086,
          "durationTicks": 93,
          "midi": 95,
          "name": "B6",
          "ticks": 2626,
          "time": 30.53488372093023,
          "velocity": 0.31496062992125984
        },
        {
          "duration": 0.3488372093023244,
          "durationTicks": 30,
          "midi": 59,
          "name": "B3",
          "ticks": 2627,
          "time": 30.546511627906977,
          "velocity": 0.4094488188976378
        },
        {
          "duration": 0.034883720930235285,
          "durationTicks": 3,
          "midi": 81,
          "name": "A5",
          "ticks": 2629,
          "time": 30.569767441860463,
          "velocity": 0.13385826771653545
        },
        {
          "duration": 0.15116279069767558,
          "durationTicks": 13,
          "midi": 94,
          "name": "A#6",
          "ticks": 2629,
          "time": 30.569767441860463,
          "velocity": 0.12598425196850394
        },
        {
          "duration": 0.08139534883720856,
          "durationTicks": 7,
          "midi": 97,
          "name": "C#7",
          "ticks": 2634,
          "time": 30.627906976744185,
          "velocity": 0.07874015748031496
        },
        {
          "duration": 0.06976744186046346,
          "durationTicks": 6,
          "midi": 85,
          "name": "C#6",
          "ticks": 2635,
          "time": 30.63953488372093,
          "velocity": 0.12598425196850394
        },
        {
          "duration": 0.6744186046511622,
          "durationTicks": 58,
          "midi": 92,
          "name": "G#6",
          "ticks": 2640,
          "time": 30.697674418604652,
          "velocity": 0.33858267716535434
        },
        {
          "duration": 0.04651162790697683,
          "durationTicks": 4,
          "midi": 82,
          "name": "A#5",
          "ticks": 2643,
          "time": 30.732558139534884,
          "velocity": 0.10236220472440945
        },
        {
          "duration": 0.04651162790697683,
          "durationTicks": 4,
          "midi": 87,
          "name": "D#6",
          "ticks": 2644,
          "time": 30.74418604651163,
          "velocity": 0.07086614173228346
        },
        {
          "duration": 0.25581395348837077,
          "durationTicks": 22,
          "midi": 68,
          "name": "G#4",
          "ticks": 2646,
          "time": 30.767441860465116,
          "velocity": 0.30708661417322836
        },
        {
          "duration": 0.1860465116279073,
          "durationTicks": 16,
          "midi": 98,
          "name": "D7",
          "ticks": 2647,
          "time": 30.77906976744186,
          "velocity": 0.2755905511811024
        },
        {
          "duration": 0.04651162790697683,
          "durationTicks": 4,
          "midi": 93,
          "name": "A6",
          "ticks": 2651,
          "time": 30.825581395348838,
          "velocity": 0.14960629921259844
        },
        {
          "duration": 0.05813953488372192,
          "durationTicks": 5,
          "midi": 82,
          "name": "A#5",
          "ticks": 2654,
          "time": 30.86046511627907,
          "velocity": 0.12598425196850394
        },
        {
          "duration": 1.3372093023255829,
          "durationTicks": 115,
          "midi": 87,
          "name": "D#6",
          "ticks": 2655,
          "time": 30.872093023255815,
          "velocity": 0.2125984251968504
        },
        {
          "duration": 0.08139534883721211,
          "durationTicks": 7,
          "midi": 94,
          "name": "A#6",
          "ticks": 2657,
          "time": 30.8953488372093,
          "velocity": 0.14173228346456693
        },
        {
          "duration": 3.6046511627906987,
          "durationTicks": 310,
          "midi": 59,
          "name": "B3",
          "ticks": 2659,
          "time": 30.91860465116279,
          "velocity": 0.5196850393700787
        },
        {
          "duration": 0.04651162790697683,
          "durationTicks": 4,
          "midi": 81,
          "name": "A5",
          "ticks": 2659,
          "time": 30.91860465116279,
          "velocity": 0.12598425196850394
        },
        {
          "duration": 0.09302325581395365,
          "durationTicks": 8,
          "midi": 85,
          "name": "C#6",
          "ticks": 2659,
          "time": 30.91860465116279,
          "velocity": 0.15748031496062992
        },
        {
          "duration": 0.046511627906973274,
          "durationTicks": 4,
          "midi": 97,
          "name": "C#7",
          "ticks": 2664,
          "time": 30.976744186046513,
          "velocity": 0.15748031496062992
        },
        {
          "duration": 0.09302325581395365,
          "durationTicks": 8,
          "midi": 93,
          "name": "A6",
          "ticks": 2667,
          "time": 31.011627906976745,
          "velocity": 0.1968503937007874
        },
        {
          "duration": 0.034883720930235285,
          "durationTicks": 3,
          "midi": 98,
          "name": "D7",
          "ticks": 2668,
          "time": 31.023255813953487,
          "velocity": 0.18110236220472442
        },
        {
          "duration": 0.30232558139535115,
          "durationTicks": 26,
          "midi": 74,
          "name": "D5",
          "ticks": 2672,
          "time": 31.069767441860463,
          "velocity": 0.13385826771653545
        },
        {
          "duration": 0.15116279069767558,
          "durationTicks": 13,
          "midi": 85,
          "name": "C#6",
          "ticks": 2673,
          "time": 31.08139534883721,
          "velocity": 0.1732283464566929
        },
        {
          "duration": 0.11627906976744384,
          "durationTicks": 10,
          "midi": 94,
          "name": "A#6",
          "ticks": 2673,
          "time": 31.08139534883721,
          "velocity": 0.11023622047244094
        },
        {
          "duration": 0.09302325581395365,
          "durationTicks": 8,
          "midi": 98,
          "name": "D7",
          "ticks": 2674,
          "time": 31.093023255813954,
          "velocity": 0.23622047244094488
        },
        {
          "duration": 0.3372093023255829,
          "durationTicks": 29,
          "midi": 40,
          "name": "E2",
          "ticks": 2677,
          "time": 31.127906976744185,
          "velocity": 0.2755905511811024
        },
        {
          "duration": 0.04651162790697683,
          "durationTicks": 4,
          "midi": 97,
          "name": "C#7",
          "ticks": 2683,
          "time": 31.197674418604652,
          "velocity": 0.1968503937007874
        },
        {
          "duration": 0.09302325581395365,
          "durationTicks": 8,
          "midi": 78,
          "name": "F#5",
          "ticks": 2684,
          "time": 31.209302325581394,
          "velocity": 0.2992125984251969
        },
        {
          "duration": 0.04651162790697683,
          "durationTicks": 4,
          "midi": 93,
          "name": "A6",
          "ticks": 2685,
          "time": 31.22093023255814,
          "velocity": 0.14173228346456693
        },
        {
          "duration": 0.08139534883720856,
          "durationTicks": 7,
          "midi": 98,
          "name": "D7",
          "ticks": 2687,
          "time": 31.24418604651163,
          "velocity": 0.15748031496062992
        },
        {
          "duration": 0.16279069767442067,
          "durationTicks": 14,
          "midi": 68,
          "name": "G#4",
          "ticks": 2692,
          "time": 31.302325581395348,
          "velocity": 0.2677165354330709
        },
        {
          "duration": 0.6511627906976756,
          "durationTicks": 56,
          "midi": 78,
          "name": "F#5",
          "ticks": 2693,
          "time": 31.313953488372093,
          "velocity": 0.36220472440944884
        },
        {
          "duration": 0.1976744186046524,
          "durationTicks": 17,
          "midi": 93,
          "name": "A6",
          "ticks": 2693,
          "time": 31.313953488372093,
          "velocity": 0.23622047244094488
        },
        {
          "duration": 0.8720930232558111,
          "durationTicks": 75,
          "midi": 85,
          "name": "C#6",
          "ticks": 2699,
          "time": 31.38372093023256,
          "velocity": 0.2047244094488189
        },
        {
          "duration": 0.4534883720930232,
          "durationTicks": 39,
          "midi": 74,
          "name": "D5",
          "ticks": 2700,
          "time": 31.3953488372093,
          "velocity": 0.15748031496062992
        },
        {
          "duration": 0.1046511627906952,
          "durationTicks": 9,
          "midi": 98,
          "name": "D7",
          "ticks": 2702,
          "time": 31.41860465116279,
          "velocity": 0.08661417322834646
        },
        {
          "duration": 0.23255813953488058,
          "durationTicks": 20,
          "midi": 92,
          "name": "G#6",
          "ticks": 2703,
          "time": 31.430232558139537,
          "velocity": 0.23622047244094488
        },
        {
          "duration": 0.06976744186046702,
          "durationTicks": 6,
          "midi": 40,
          "name": "E2",
          "ticks": 2708,
          "time": 31.488372093023255,
          "velocity": 0.11811023622047244
        },
        {
          "duration": 0.05813953488372192,
          "durationTicks": 5,
          "midi": 93,
          "name": "A6",
          "ticks": 2711,
          "time": 31.523255813953487,
          "velocity": 0.1732283464566929
        },
        {
          "duration": 0.26744186046511587,
          "durationTicks": 23,
          "midi": 68,
          "name": "G#4",
          "ticks": 2714,
          "time": 31.558139534883722,
          "velocity": 0.29133858267716534
        },
        {
          "duration": 0.034883720930235285,
          "durationTicks": 3,
          "midi": 102,
          "name": "F#7",
          "ticks": 2715,
          "time": 31.569767441860463,
          "velocity": 0.10236220472440945
        },
        {
          "duration": 0.08139534883720856,
          "durationTicks": 7,
          "midi": 98,
          "name": "D7",
          "ticks": 2717,
          "time": 31.593023255813954,
          "velocity": 0.07874015748031496
        },
        {
          "duration": 0.08139534883721211,
          "durationTicks": 7,
          "midi": 40,
          "name": "E2",
          "ticks": 2723,
          "time": 31.662790697674417,
          "velocity": 0.1732283464566929
        },
        {
          "duration": 0.03488372093023173,
          "durationTicks": 3,
          "midi": 93,
          "name": "A6",
          "ticks": 2725,
          "time": 31.686046511627907,
          "velocity": 0.13385826771653545
        },
        {
          "duration": 0.16279069767442067,
          "durationTicks": 14,
          "midi": 92,
          "name": "G#6",
          "ticks": 2728,
          "time": 31.72093023255814,
          "velocity": 0.2125984251968504
        },
        {
          "duration": 0.09302325581395365,
          "durationTicks": 8,
          "midi": 93,
          "name": "A6",
          "ticks": 2729,
          "time": 31.732558139534884,
          "velocity": 0.2125984251968504
        },
        {
          "duration": 0.15116279069767202,
          "durationTicks": 13,
          "midi": 40,
          "name": "E2",
          "ticks": 2734,
          "time": 31.790697674418606,
          "velocity": 0.16535433070866143
        },
        {
          "duration": 0.16279069767441356,
          "durationTicks": 14,
          "midi": 93,
          "name": "A6",
          "ticks": 2742,
          "time": 31.88372093023256,
          "velocity": 0.13385826771653545
        },
        {
          "duration": 0.12790697674418539,
          "durationTicks": 11,
          "midi": 92,
          "name": "G#6",
          "ticks": 2746,
          "time": 31.930232558139537,
          "velocity": 0.18110236220472442
        },
        {
          "duration": 0.9534883720930232,
          "durationTicks": 82,
          "midi": 78,
          "name": "F#5",
          "ticks": 2750,
          "time": 31.976744186046513,
          "velocity": 0.3464566929133858
        },
        {
          "duration": 0.05813953488372192,
          "durationTicks": 5,
          "midi": 66,
          "name": "F#4",
          "ticks": 2752,
          "time": 32,
          "velocity": 0.25984251968503935
        },
        {
          "duration": 0.1279069767441925,
          "durationTicks": 11,
          "midi": 74,
          "name": "D5",
          "ticks": 2756,
          "time": 32.04651162790697,
          "velocity": 0.08661417322834646
        },
        {
          "duration": 0.46511627906976827,
          "durationTicks": 40,
          "midi": 40,
          "name": "E2",
          "ticks": 2757,
          "time": 32.05813953488372,
          "velocity": 0.18110236220472442
        },
        {
          "duration": 0.046511627906973274,
          "durationTicks": 4,
          "midi": 93,
          "name": "A6",
          "ticks": 2757,
          "time": 32.05813953488372,
          "velocity": 0.11811023622047244
        },
        {
          "duration": 0.09302325581395365,
          "durationTicks": 8,
          "midi": 88,
          "name": "E6",
          "ticks": 2760,
          "time": 32.093023255813954,
          "velocity": 0.14173228346456693
        },
        {
          "duration": 0.04651162790698038,
          "durationTicks": 4,
          "midi": 93,
          "name": "A6",
          "ticks": 2766,
          "time": 32.16279069767442,
          "velocity": 0.11811023622047244
        },
        {
          "duration": 0.03488372093023173,
          "durationTicks": 3,
          "midi": 92,
          "name": "G#6",
          "ticks": 2767,
          "time": 32.174418604651166,
          "velocity": 0.09448818897637795
        },
        {
          "duration": 0.06976744186047057,
          "durationTicks": 6,
          "midi": 92,
          "name": "G#6",
          "ticks": 2772,
          "time": 32.23255813953488,
          "velocity": 0.10236220472440945
        },
        {
          "duration": 0.17441860465115866,
          "durationTicks": 15,
          "midi": 87,
          "name": "D#6",
          "ticks": 2773,
          "time": 32.24418604651163,
          "velocity": 0.14173228346456693
        },
        {
          "duration": 0.16279069767441712,
          "durationTicks": 14,
          "midi": 68,
          "name": "G#4",
          "ticks": 2774,
          "time": 32.25581395348837,
          "velocity": 0.15748031496062992
        },
        {
          "duration": 0.05813953488372192,
          "durationTicks": 5,
          "midi": 88,
          "name": "E6",
          "ticks": 2776,
          "time": 32.27906976744186,
          "velocity": 0.1732283464566929
        },
        {
          "duration": 0.058139534883714816,
          "durationTicks": 5,
          "midi": 85,
          "name": "C#6",
          "ticks": 2783,
          "time": 32.36046511627907,
          "velocity": 0.07874015748031496
        },
        {
          "duration": 0.058139534883714816,
          "durationTicks": 5,
          "midi": 92,
          "name": "G#6",
          "ticks": 2783,
          "time": 32.36046511627907,
          "velocity": 0.08661417322834646
        },
        {
          "duration": 0.03488372093023173,
          "durationTicks": 3,
          "midi": 87,
          "name": "D#6",
          "ticks": 2793,
          "time": 32.47674418604651,
          "velocity": 0.09448818897637795
        },
        {
          "duration": 0.058139534883714816,
          "durationTicks": 5,
          "midi": 66,
          "name": "F#4",
          "ticks": 2794,
          "time": 32.48837209302326,
          "velocity": 0.23622047244094488
        },
        {
          "duration": 1.5813953488372121,
          "durationTicks": 136,
          "midi": 52,
          "name": "E3",
          "ticks": 2795,
          "time": 32.5,
          "velocity": 0.3700787401574803
        },
        {
          "duration": 0.03488372093023173,
          "durationTicks": 3,
          "midi": 85,
          "name": "C#6",
          "ticks": 2797,
          "time": 32.52325581395349,
          "velocity": 0.08661417322834646
        },
        {
          "duration": 0.05813953488372192,
          "durationTicks": 5,
          "midi": 40,
          "name": "E2",
          "ticks": 2798,
          "time": 32.53488372093023,
          "velocity": 0.09448818897637795
        },
        {
          "duration": 0.08139534883721211,
          "durationTicks": 7,
          "midi": 87,
          "name": "D#6",
          "ticks": 2799,
          "time": 32.54651162790697,
          "velocity": 0.12598425196850394
        },
        {
          "duration": 0.860465116279066,
          "durationTicks": 74,
          "midi": 64,
          "name": "E4",
          "ticks": 2802,
          "time": 32.58139534883721,
          "velocity": 0.3937007874015748
        },
        {
          "duration": 0.1046511627907023,
          "durationTicks": 9,
          "midi": 40,
          "name": "E2",
          "ticks": 2809,
          "time": 32.66279069767442,
          "velocity": 0.14173228346456693
        },
        {
          "duration": 0.11627906976743674,
          "durationTicks": 10,
          "midi": 87,
          "name": "D#6",
          "ticks": 2818,
          "time": 32.76744186046512,
          "velocity": 0.14960629921259844
        },
        {
          "duration": 0.08139534883721211,
          "durationTicks": 7,
          "midi": 68,
          "name": "G#4",
          "ticks": 2820,
          "time": 32.7906976744186,
          "velocity": 0.11811023622047244
        },
        {
          "duration": 0.03488372093023173,
          "durationTicks": 3,
          "midi": 66,
          "name": "F#4",
          "ticks": 2827,
          "time": 32.872093023255815,
          "velocity": 0.07874015748031496
        },
        {
          "duration": 0.24418604651162923,
          "durationTicks": 21,
          "midi": 78,
          "name": "F#5",
          "ticks": 2833,
          "time": 32.94186046511628,
          "velocity": 0.2204724409448819
        },
        {
          "duration": 0.05813953488372192,
          "durationTicks": 5,
          "midi": 68,
          "name": "G#4",
          "ticks": 2838,
          "time": 33,
          "velocity": 0.09448818897637795
        },
        {
          "duration": 0.19767441860465595,
          "durationTicks": 17,
          "midi": 40,
          "name": "E2",
          "ticks": 2847,
          "time": 33.104651162790695,
          "velocity": 0.15748031496062992
        },
        {
          "duration": 0.06976744186047057,
          "durationTicks": 6,
          "midi": 68,
          "name": "G#4",
          "ticks": 2866,
          "time": 33.325581395348834,
          "velocity": 0.08661417322834646
        },
        {
          "duration": 0.03488372093023173,
          "durationTicks": 3,
          "midi": 83,
          "name": "B5",
          "ticks": 2870,
          "time": 33.372093023255815,
          "velocity": 0.08661417322834646
        },
        {
          "duration": 0.03488372093023173,
          "durationTicks": 3,
          "midi": 40,
          "name": "E2",
          "ticks": 2871,
          "time": 33.383720930232556,
          "velocity": 0.09448818897637795
        },
        {
          "duration": 0.24418604651162212,
          "durationTicks": 21,
          "midi": 78,
          "name": "F#5",
          "ticks": 2872,
          "time": 33.395348837209305,
          "velocity": 0.14173228346456693
        },
        {
          "duration": 0.03488372093023173,
          "durationTicks": 3,
          "midi": 40,
          "name": "E2",
          "ticks": 2878,
          "time": 33.46511627906977,
          "velocity": 0.07086614173228346
        },
        {
          "duration": 0.6627906976744242,
          "durationTicks": 57,
          "midi": 40,
          "name": "E2",
          "ticks": 2882,
          "time": 33.51162790697674,
          "velocity": 0.2204724409448819
        },
        {
          "duration": 0.03488372093023173,
          "durationTicks": 3,
          "midi": 78,
          "name": "F#5",
          "ticks": 2913,
          "time": 33.872093023255815,
          "velocity": 0.07086614173228346
        },
        {
          "duration": 0.046511627906973274,
          "durationTicks": 4,
          "midi": 68,
          "name": "G#4",
          "ticks": 2939,
          "time": 34.174418604651166,
          "velocity": 0.09448818897637795
        },
        {
          "duration": 0.09302325581395365,
          "durationTicks": 8,
          "midi": 52,
          "name": "E3",
          "ticks": 2940,
          "time": 34.18604651162791,
          "velocity": 0.16535433070866143
        },
        {
          "duration": 0.023255813953483084,
          "durationTicks": 2,
          "midi": 51,
          "name": "D#3",
          "ticks": 2950,
          "time": 34.30232558139535,
          "velocity": 0.6062992125984252
        },
        {
          "duration": 0.02325581395349019,
          "durationTicks": 2,
          "midi": 51,
          "name": "D#3",
          "ticks": 2954,
          "time": 34.348837209302324,
          "velocity": 0.5039370078740157
        },
        {
          "duration": 0.09302325581395365,
          "durationTicks": 8,
          "midi": 52,
          "name": "E3",
          "ticks": 2956,
          "time": 34.372093023255815,
          "velocity": 0.49606299212598426
        },
        {
          "duration": 0.023255813953483084,
          "durationTicks": 2,
          "midi": 41,
          "name": "F2",
          "ticks": 2963,
          "time": 34.45348837209303,
          "velocity": 0.2440944881889764
        },
        {
          "duration": 0.5116279069767486,
          "durationTicks": 44,
          "midi": 52,
          "name": "E3",
          "ticks": 2968,
          "time": 34.51162790697674,
          "velocity": 0.49606299212598426
        },
        {
          "duration": 0.32558139534884134,
          "durationTicks": 28,
          "midi": 64,
          "name": "E4",
          "ticks": 2968,
          "time": 34.51162790697674,
          "velocity": 0.5748031496062992
        },
        {
          "duration": 0.081395348837205,
          "durationTicks": 7,
          "midi": 69,
          "name": "A4",
          "ticks": 2969,
          "time": 34.52325581395349,
          "velocity": 0.1889763779527559
        },
        {
          "duration": 0.05813953488372192,
          "durationTicks": 5,
          "midi": 40,
          "name": "E2",
          "ticks": 2971,
          "time": 34.54651162790697,
          "velocity": 0.2125984251968504
        },
        {
          "duration": 0.05813953488372192,
          "durationTicks": 5,
          "midi": 59,
          "name": "B3",
          "ticks": 2972,
          "time": 34.55813953488372,
          "velocity": 0.2755905511811024
        },
        {
          "duration": 0.046511627906973274,
          "durationTicks": 4,
          "midi": 40,
          "name": "E2",
          "ticks": 2977,
          "time": 34.616279069767444,
          "velocity": 0.2440944881889764
        },
        {
          "duration": 1.7906976744186025,
          "durationTicks": 154,
          "midi": 69,
          "name": "A4",
          "ticks": 2977,
          "time": 34.616279069767444,
          "velocity": 0.5196850393700787
        },
        {
          "duration": 0.03488372093023173,
          "durationTicks": 3,
          "midi": 59,
          "name": "B3",
          "ticks": 2978,
          "time": 34.627906976744185,
          "velocity": 0.2283464566929134
        },
        {
          "duration": 0.2093023255813904,
          "durationTicks": 18,
          "midi": 59,
          "name": "B3",
          "ticks": 2982,
          "time": 34.674418604651166,
          "velocity": 0.2755905511811024
        },
        {
          "duration": 0.08139534883721211,
          "durationTicks": 7,
          "midi": 40,
          "name": "E2",
          "ticks": 2984,
          "time": 34.69767441860465,
          "velocity": 0.2204724409448819
        },
        {
          "duration": 0.4418604651162781,
          "durationTicks": 38,
          "midi": 72,
          "name": "C5",
          "ticks": 2989,
          "time": 34.75581395348837,
          "velocity": 0.33070866141732286
        },
        {
          "duration": 0.04651162790698038,
          "durationTicks": 4,
          "midi": 40,
          "name": "E2",
          "ticks": 2992,
          "time": 34.7906976744186,
          "velocity": 0.11023622047244094
        },
        {
          "duration": 0.023255813953483084,
          "durationTicks": 2,
          "midi": 60,
          "name": "C4",
          "ticks": 3001,
          "time": 34.895348837209305,
          "velocity": 0.2440944881889764
        },
        {
          "duration": 0.16279069767441712,
          "durationTicks": 14,
          "midi": 40,
          "name": "E2",
          "ticks": 3002,
          "time": 34.906976744186046,
          "velocity": 0.2283464566929134
        },
        {
          "duration": 0.02325581395349019,
          "durationTicks": 2,
          "midi": 59,
          "name": "B3",
          "ticks": 3003,
          "time": 34.91860465116279,
          "velocity": 0.2283464566929134
        },
        {
          "duration": 0.02325581395349019,
          "durationTicks": 2,
          "midi": 60,
          "name": "C4",
          "ticks": 3007,
          "time": 34.96511627906977,
          "velocity": 0.2755905511811024
        },
        {
          "duration": 0.03488372093023173,
          "durationTicks": 3,
          "midi": 83,
          "name": "B5",
          "ticks": 3009,
          "time": 34.98837209302326,
          "velocity": 0.07086614173228346
        },
        {
          "duration": 0.046511627906973274,
          "durationTicks": 4,
          "midi": 60,
          "name": "C4",
          "ticks": 3012,
          "time": 35.02325581395349,
          "velocity": 0.2677165354330709
        },
        {
          "duration": 0.13953488372092693,
          "durationTicks": 12,
          "midi": 40,
          "name": "E2",
          "ticks": 3017,
          "time": 35.08139534883721,
          "velocity": 0.2125984251968504
        },
        {
          "duration": 0.11627906976743674,
          "durationTicks": 10,
          "midi": 60,
          "name": "C4",
          "ticks": 3017,
          "time": 35.08139534883721,
          "velocity": 0.28346456692913385
        },
        {
          "duration": 0.02325581395349019,
          "durationTicks": 2,
          "midi": 51,
          "name": "D#3",
          "ticks": 3019,
          "time": 35.104651162790695,
          "velocity": 0.2283464566929134
        },
        {
          "duration": 0.15116279069767558,
          "durationTicks": 13,
          "midi": 52,
          "name": "E3",
          "ticks": 3023,
          "time": 35.151162790697676,
          "velocity": 0.2204724409448819
        },
        {
          "duration": 0.03488372093023173,
          "durationTicks": 3,
          "midi": 88,
          "name": "E6",
          "ticks": 3023,
          "time": 35.151162790697676,
          "velocity": 0.11811023622047244
        },
        {
          "duration": 0.046511627906973274,
          "durationTicks": 4,
          "midi": 60,
          "name": "C4",
          "ticks": 3028,
          "time": 35.2093023255814,
          "velocity": 0.2992125984251969
        },
        {
          "duration": 0.13953488372092693,
          "durationTicks": 12,
          "midi": 40,
          "name": "E2",
          "ticks": 3031,
          "time": 35.24418604651163,
          "velocity": 0.15748031496062992
        },
        {
          "duration": 0.2674418604651194,
          "durationTicks": 23,
          "midi": 72,
          "name": "C5",
          "ticks": 3032,
          "time": 35.25581395348837,
          "velocity": 0.1889763779527559
        },
        {
          "duration": 0.058139534883714816,
          "durationTicks": 5,
          "midi": 60,
          "name": "C4",
          "ticks": 3033,
          "time": 35.26744186046512,
          "velocity": 0.30708661417322836
        },
        {
          "duration": 0.081395348837205,
          "durationTicks": 7,
          "midi": 83,
          "name": "B5",
          "ticks": 3036,
          "time": 35.30232558139535,
          "velocity": 0.08661417322834646
        },
        {
          "duration": 0.046511627906973274,
          "durationTicks": 4,
          "midi": 88,
          "name": "E6",
          "ticks": 3036,
          "time": 35.30232558139535,
          "velocity": 0.11811023622047244
        },
        {
          "duration": 0.04651162790698038,
          "durationTicks": 4,
          "midi": 52,
          "name": "E3",
          "ticks": 3037,
          "time": 35.31395348837209,
          "velocity": 0.1968503937007874
        },
        {
          "duration": 0.7674418604651123,
          "durationTicks": 66,
          "midi": 60,
          "name": "C4",
          "ticks": 3039,
          "time": 35.33720930232558,
          "velocity": 0.33858267716535434
        },
        {
          "duration": 0.023255813953483084,
          "durationTicks": 2,
          "midi": 51,
          "name": "D#3",
          "ticks": 3041,
          "time": 35.36046511627907,
          "velocity": 0.2283464566929134
        },
        {
          "duration": 0.1860465116279073,
          "durationTicks": 16,
          "midi": 88,
          "name": "E6",
          "ticks": 3042,
          "time": 35.372093023255815,
          "velocity": 0.1889763779527559
        },
        {
          "duration": 0.5232558139534902,
          "durationTicks": 45,
          "midi": 52,
          "name": "E3",
          "ticks": 3043,
          "time": 35.383720930232556,
          "velocity": 0.2755905511811024
        },
        {
          "duration": 0.046511627906973274,
          "durationTicks": 4,
          "midi": 40,
          "name": "E2",
          "ticks": 3044,
          "time": 35.395348837209305,
          "velocity": 0.16535433070866143
        },
        {
          "duration": 0.34883720930233153,
          "durationTicks": 30,
          "midi": 79,
          "name": "G5",
          "ticks": 3046,
          "time": 35.41860465116279,
          "velocity": 0.10236220472440945
        },
        {
          "duration": 0.03488372093023173,
          "durationTicks": 3,
          "midi": 40,
          "name": "E2",
          "ticks": 3049,
          "time": 35.45348837209303,
          "velocity": 0.2047244094488189
        },
        {
          "duration": 0.13953488372092693,
          "durationTicks": 12,
          "midi": 40,
          "name": "E2",
          "ticks": 3053,
          "time": 35.5,
          "velocity": 0.2125984251968504
        },
        {
          "duration": 0.5697674418604635,
          "durationTicks": 49,
          "midi": 76,
          "name": "E5",
          "ticks": 3056,
          "time": 35.53488372093023,
          "velocity": 0.2204724409448819
        },
        {
          "duration": 0.25581395348837077,
          "durationTicks": 22,
          "midi": 97,
          "name": "C#7",
          "ticks": 3060,
          "time": 35.58139534883721,
          "velocity": 0.14173228346456693
        },
        {
          "duration": 0.23255813953488058,
          "durationTicks": 20,
          "midi": 40,
          "name": "E2",
          "ticks": 3066,
          "time": 35.651162790697676,
          "velocity": 0.2677165354330709
        },
        {
          "duration": 0.16279069767441712,
          "durationTicks": 14,
          "midi": 88,
          "name": "E6",
          "ticks": 3067,
          "time": 35.66279069767442,
          "velocity": 0.2283464566929134
        },
        {
          "duration": 0.3372093023255829,
          "durationTicks": 29,
          "midi": 83,
          "name": "B5",
          "ticks": 3069,
          "time": 35.68604651162791,
          "velocity": 0.15748031496062992
        },
        {
          "duration": 0.9418604651162781,
          "durationTicks": 81,
          "midi": 64,
          "name": "E4",
          "ticks": 3072,
          "time": 35.72093023255814,
          "velocity": 0.4566929133858268
        },
        {
          "duration": 0.12790697674418539,
          "durationTicks": 11,
          "midi": 79,
          "name": "G5",
          "ticks": 3079,
          "time": 35.80232558139535,
          "velocity": 0.07086614173228346
        },
        {
          "duration": 0.13953488372093403,
          "durationTicks": 12,
          "midi": 88,
          "name": "E6",
          "ticks": 3083,
          "time": 35.848837209302324,
          "velocity": 0.25984251968503935
        },
        {
          "duration": 0.058139534883714816,
          "durationTicks": 5,
          "midi": 97,
          "name": "C#7",
          "ticks": 3084,
          "time": 35.86046511627907,
          "velocity": 0.14960629921259844
        },
        {
          "duration": 1.2093023255813904,
          "durationTicks": 104,
          "midi": 40,
          "name": "E2",
          "ticks": 3087,
          "time": 35.895348837209305,
          "velocity": 0.3779527559055118
        },
        {
          "duration": 0.03488372093023173,
          "durationTicks": 3,
          "midi": 51,
          "name": "D#3",
          "ticks": 3088,
          "time": 35.906976744186046,
          "velocity": 0.13385826771653545
        },
        {
          "duration": 0.046511627906973274,
          "durationTicks": 4,
          "midi": 92,
          "name": "G#6",
          "ticks": 3090,
          "time": 35.93023255813954,
          "velocity": 0.08661417322834646
        },
        {
          "duration": 0.06976744186046346,
          "durationTicks": 6,
          "midi": 97,
          "name": "C#7",
          "ticks": 3090,
          "time": 35.93023255813954,
          "velocity": 0.12598425196850394
        },
        {
          "duration": 0.48837209302325846,
          "durationTicks": 42,
          "midi": 52,
          "name": "E3",
          "ticks": 3091,
          "time": 35.94186046511628,
          "velocity": 0.4094488188976378
        },
        {
          "duration": 1.279069767441861,
          "durationTicks": 110,
          "midi": 88,
          "name": "E6",
          "ticks": 3097,
          "time": 36.01162790697674,
          "velocity": 0.3779527559055118
        },
        {
          "duration": 0.11627906976743674,
          "durationTicks": 10,
          "midi": 79,
          "name": "G5",
          "ticks": 3098,
          "time": 36.02325581395349,
          "velocity": 0.15748031496062992
        },
        {
          "duration": 0.06976744186046346,
          "durationTicks": 6,
          "midi": 83,
          "name": "B5",
          "ticks": 3101,
          "time": 36.05813953488372,
          "velocity": 0.08661417322834646
        },
        {
          "duration": 0.12790697674418539,
          "durationTicks": 11,
          "midi": 95,
          "name": "B6",
          "ticks": 3102,
          "time": 36.06976744186046,
          "velocity": 0.09448818897637795
        },
        {
          "duration": 0.13953488372092693,
          "durationTicks": 12,
          "midi": 97,
          "name": "C#7",
          "ticks": 3104,
          "time": 36.093023255813954,
          "velocity": 0.16535433070866143
        },
        {
          "duration": 0.05813953488372192,
          "durationTicks": 5,
          "midi": 60,
          "name": "C4",
          "ticks": 3106,
          "time": 36.116279069767444,
          "velocity": 0.3228346456692913
        },
        {
          "duration": 0.11627906976744384,
          "durationTicks": 10,
          "midi": 83,
          "name": "B5",
          "ticks": 3110,
          "time": 36.16279069767442,
          "velocity": 0.2204724409448819
        },
        {
          "duration": 0.2093023255813975,
          "durationTicks": 18,
          "midi": 60,
          "name": "C4",
          "ticks": 3112,
          "time": 36.18604651162791,
          "velocity": 0.4015748031496063
        },
        {
          "duration": 0.04651162790698038,
          "durationTicks": 4,
          "midi": 71,
          "name": "B4",
          "ticks": 3116,
          "time": 36.23255813953488,
          "velocity": 0.11811023622047244
        },
        {
          "duration": 0.11627906976744384,
          "durationTicks": 10,
          "midi": 79,
          "name": "G5",
          "ticks": 3118,
          "time": 36.25581395348837,
          "velocity": 0.18110236220472442
        },
        {
          "duration": 0.04651162790698038,
          "durationTicks": 4,
          "midi": 96,
          "name": "C7",
          "ticks": 3121,
          "time": 36.2906976744186,
          "velocity": 0.10236220472440945
        },
        {
          "duration": 0.7558139534883708,
          "durationTicks": 65,
          "midi": 83,
          "name": "B5",
          "ticks": 3125,
          "time": 36.33720930232558,
          "velocity": 0.2755905511811024
        },
        {
          "duration": 0.12790697674418539,
          "durationTicks": 11,
          "midi": 92,
          "name": "G#6",
          "ticks": 3127,
          "time": 36.36046511627907,
          "velocity": 0.1889763779527559
        },
        {
          "duration": 0.03488372093023173,
          "durationTicks": 3,
          "midi": 68,
          "name": "G#4",
          "ticks": 3130,
          "time": 36.395348837209305,
          "velocity": 0.18110236220472442
        },
        {
          "duration": 0.06976744186046346,
          "durationTicks": 6,
          "midi": 97,
          "name": "C#7",
          "ticks": 3130,
          "time": 36.395348837209305,
          "velocity": 0.18110236220472442
        },
        {
          "duration": 0.03488372093023884,
          "durationTicks": 3,
          "midi": 60,
          "name": "C4",
          "ticks": 3132,
          "time": 36.41860465116279,
          "velocity": 0.3543307086614173
        },
        {
          "duration": 0.03488372093023884,
          "durationTicks": 3,
          "midi": 69,
          "name": "A4",
          "ticks": 3132,
          "time": 36.41860465116279,
          "velocity": 0.2440944881889764
        },
        {
          "duration": 0.06976744186047057,
          "durationTicks": 6,
          "midi": 91,
          "name": "G6",
          "ticks": 3132,
          "time": 36.41860465116279,
          "velocity": 0.08661417322834646
        },
        {
          "duration": 0.1046511627906952,
          "durationTicks": 9,
          "midi": 96,
          "name": "C7",
          "ticks": 3134,
          "time": 36.44186046511628,
          "velocity": 0.25196850393700787
        },
        {
          "duration": 2.720930232558139,
          "durationTicks": 234,
          "midi": 52,
          "name": "E3",
          "ticks": 3135,
          "time": 36.45348837209303,
          "velocity": 0.5748031496062992
        },
        {
          "duration": 0.03488372093023173,
          "durationTicks": 3,
          "midi": 59,
          "name": "B3",
          "ticks": 3135,
          "time": 36.45348837209303,
          "velocity": 0.3779527559055118
        },
        {
          "duration": 0.1046511627906952,
          "durationTicks": 9,
          "midi": 79,
          "name": "G5",
          "ticks": 3135,
          "time": 36.45348837209303,
          "velocity": 0.15748031496062992
        },
        {
          "duration": 0.6046511627907023,
          "durationTicks": 52,
          "midi": 69,
          "name": "A4",
          "ticks": 3137,
          "time": 36.47674418604651,
          "velocity": 0.4645669291338583
        },
        {
          "duration": 0.046511627906973274,
          "durationTicks": 4,
          "midi": 60,
          "name": "C4",
          "ticks": 3138,
          "time": 36.48837209302326,
          "velocity": 0.4094488188976378
        },
        {
          "duration": 0.12790697674418539,
          "durationTicks": 11,
          "midi": 94,
          "name": "A#6",
          "ticks": 3138,
          "time": 36.48837209302326,
          "velocity": 0.10236220472440945
        },
        {
          "duration": 0.5581395348837148,
          "durationTicks": 48,
          "midi": 97,
          "name": "C#7",
          "ticks": 3138,
          "time": 36.48837209302326,
          "velocity": 0.2677165354330709
        },
        {
          "duration": 0.06976744186047057,
          "durationTicks": 6,
          "midi": 103,
          "name": "G7",
          "ticks": 3140,
          "time": 36.51162790697674,
          "velocity": 0.10236220472440945
        },
        {
          "duration": 0.16279069767441712,
          "durationTicks": 14,
          "midi": 98,
          "name": "D7",
          "ticks": 3141,
          "time": 36.52325581395349,
          "velocity": 0.14960629921259844
        },
        {
          "duration": 0.19767441860464885,
          "durationTicks": 17,
          "midi": 92,
          "name": "G#6",
          "ticks": 3142,
          "time": 36.53488372093023,
          "velocity": 0.1732283464566929
        },
        {
          "duration": 0.04651162790698038,
          "durationTicks": 4,
          "midi": 60,
          "name": "C4",
          "ticks": 3143,
          "time": 36.54651162790697,
          "velocity": 0.3937007874015748
        },
        {
          "duration": 0.03488372093023173,
          "durationTicks": 3,
          "midi": 96,
          "name": "C7",
          "ticks": 3145,
          "time": 36.56976744186046,
          "velocity": 0.07874015748031496
        },
        {
          "duration": 0.03488372093023173,
          "durationTicks": 3,
          "midi": 60,
          "name": "C4",
          "ticks": 3149,
          "time": 36.616279069767444,
          "velocity": 0.2755905511811024
        },
        {
          "duration": 0.2325581395348877,
          "durationTicks": 20,
          "midi": 79,
          "name": "G5",
          "ticks": 3150,
          "time": 36.627906976744185,
          "velocity": 0.2047244094488189
        },
        {
          "duration": 0.04651162790698038,
          "durationTicks": 4,
          "midi": 103,
          "name": "G7",
          "ticks": 3150,
          "time": 36.627906976744185,
          "velocity": 0.07086614173228346
        },
        {
          "duration": 0.03488372093023884,
          "durationTicks": 3,
          "midi": 96,
          "name": "C7",
          "ticks": 3151,
          "time": 36.63953488372093,
          "velocity": 0.13385826771653545
        },
        {
          "duration": 0.03488372093023173,
          "durationTicks": 3,
          "midi": 94,
          "name": "A#6",
          "ticks": 3152,
          "time": 36.651162790697676,
          "velocity": 0.12598425196850394
        },
        {
          "duration": 0.2093023255813904,
          "durationTicks": 18,
          "midi": 60,
          "name": "C4",
          "ticks": 3154,
          "time": 36.674418604651166,
          "velocity": 0.33070866141732286
        },
        {
          "duration": 0.1046511627906952,
          "durationTicks": 9,
          "midi": 96,
          "name": "C7",
          "ticks": 3155,
          "time": 36.68604651162791,
          "velocity": 0.2283464566929134
        },
        {
          "duration": 0.06976744186046346,
          "durationTicks": 6,
          "midi": 98,
          "name": "D7",
          "ticks": 3157,
          "time": 36.7093023255814,
          "velocity": 0.11023622047244094
        },
        {
          "duration": 0.05813953488372192,
          "durationTicks": 5,
          "midi": 103,
          "name": "G7",
          "ticks": 3158,
          "time": 36.72093023255814,
          "velocity": 0.12598425196850394
        },
        {
          "duration": 0.081395348837205,
          "durationTicks": 7,
          "midi": 92,
          "name": "G#6",
          "ticks": 3160,
          "time": 36.74418604651163,
          "velocity": 0.12598425196850394
        },
        {
          "duration": 0.6395348837209269,
          "durationTicks": 55,
          "midi": 72,
          "name": "C5",
          "ticks": 3162,
          "time": 36.76744186046512,
          "velocity": 0.3464566929133858
        },
        {
          "duration": 0.046511627906973274,
          "durationTicks": 4,
          "midi": 94,
          "name": "A#6",
          "ticks": 3163,
          "time": 36.77906976744186,
          "velocity": 0.08661417322834646
        },
        {
          "duration": 0.17441860465115866,
          "durationTicks": 15,
          "midi": 98,
          "name": "D7",
          "ticks": 3165,
          "time": 36.80232558139535,
          "velocity": 0.2047244094488189
        },
        {
          "duration": 0.17441860465116577,
          "durationTicks": 15,
          "midi": 96,
          "name": "C7",
          "ticks": 3167,
          "time": 36.825581395348834,
          "velocity": 0.1889763779527559
        },
        {
          "duration": 0.03488372093023173,
          "durationTicks": 3,
          "midi": 103,
          "name": "G7",
          "ticks": 3168,
          "time": 36.83720930232558,
          "velocity": 0.1732283464566929
        },
        {
          "duration": 0.04651162790698038,
          "durationTicks": 4,
          "midi": 94,
          "name": "A#6",
          "ticks": 3169,
          "time": 36.848837209302324,
          "velocity": 0.13385826771653545
        },
        {
          "duration": 0.05813953488372192,
          "durationTicks": 5,
          "midi": 92,
          "name": "G#6",
          "ticks": 3173,
          "time": 36.895348837209305,
          "velocity": 0.15748031496062992
        },
        {
          "duration": 0.05813953488372192,
          "durationTicks": 5,
          "midi": 60,
          "name": "C4",
          "ticks": 3174,
          "time": 36.906976744186046,
          "velocity": 0.2204724409448819
        },
        {
          "duration": 0.15116279069767558,
          "durationTicks": 13,
          "midi": 79,
          "name": "G5",
          "ticks": 3174,
          "time": 36.906976744186046,
          "velocity": 0.1889763779527559
        },
        {
          "duration": 0.418604651162795,
          "durationTicks": 36,
          "midi": 103,
          "name": "G7",
          "ticks": 3177,
          "time": 36.94186046511628,
          "velocity": 0.2204724409448819
        },
        {
          "duration": 0.05813953488372192,
          "durationTicks": 5,
          "midi": 60,
          "name": "C4",
          "ticks": 3180,
          "time": 36.97674418604651,
          "velocity": 0.36220472440944884
        },
        {
          "duration": 0.03488372093023173,
          "durationTicks": 3,
          "midi": 92,
          "name": "G#6",
          "ticks": 3181,
          "time": 36.98837209302326,
          "velocity": 0.07086614173228346
        },
        {
          "duration": 0.06976744186046346,
          "durationTicks": 6,
          "midi": 96,
          "name": "C7",
          "ticks": 3184,
          "time": 37.02325581395349,
          "velocity": 0.11811023622047244
        },
        {
          "duration": 0.6046511627906952,
          "durationTicks": 52,
          "midi": 98,
          "name": "D7",
          "ticks": 3184,
          "time": 37.02325581395349,
          "velocity": 0.25984251968503935
        },
        {
          "duration": 0.03488372093023884,
          "durationTicks": 3,
          "midi": 94,
          "name": "A#6",
          "ticks": 3186,
          "time": 37.04651162790697,
          "velocity": 0.14173228346456693
        },
        {
          "duration": 0.02325581395349019,
          "durationTicks": 2,
          "midi": 60,
          "name": "C4",
          "ticks": 3187,
          "time": 37.05813953488372,
          "velocity": 0.31496062992125984
        },
        {
          "duration": 0.19767441860464885,
          "durationTicks": 17,
          "midi": 97,
          "name": "C#7",
          "ticks": 3187,
          "time": 37.05813953488372,
          "velocity": 0.23622047244094488
        },
        {
          "duration": 0.12790697674418539,
          "durationTicks": 11,
          "midi": 59,
          "name": "B3",
          "ticks": 3189,
          "time": 37.08139534883721,
          "velocity": 0.28346456692913385
        },
        {
          "duration": 0.19767441860464885,
          "durationTicks": 17,
          "midi": 69,
          "name": "A4",
          "ticks": 3190,
          "time": 37.093023255813954,
          "velocity": 0.5669291338582677
        },
        {
          "duration": 0.03488372093023173,
          "durationTicks": 3,
          "midi": 94,
          "name": "A#6",
          "ticks": 3191,
          "time": 37.104651162790695,
          "velocity": 0.09448818897637795
        },
        {
          "duration": 2.2674418604651123,
          "durationTicks": 195,
          "midi": 40,
          "name": "E2",
          "ticks": 3192,
          "time": 37.116279069767444,
          "velocity": 0.4881889763779528
        },
        {
          "duration": 0.04651162790698038,
          "durationTicks": 4,
          "midi": 79,
          "name": "G5",
          "ticks": 3193,
          "time": 37.127906976744185,
          "velocity": 0.11023622047244094
        },
        {
          "duration": 0.1860465116279073,
          "durationTicks": 16,
          "midi": 83,
          "name": "B5",
          "ticks": 3193,
          "time": 37.127906976744185,
          "velocity": 0.1968503937007874
        },
        {
          "duration": 0.12790697674418539,
          "durationTicks": 11,
          "midi": 96,
          "name": "C7",
          "ticks": 3193,
          "time": 37.127906976744185,
          "velocity": 0.1889763779527559
        },
        {
          "duration": 0.11627906976744384,
          "durationTicks": 10,
          "midi": 92,
          "name": "G#6",
          "ticks": 3194,
          "time": 37.13953488372093,
          "velocity": 0.10236220472440945
        },
        {
          "duration": 0.03488372093023173,
          "durationTicks": 3,
          "midi": 89,
          "name": "F6",
          "ticks": 3198,
          "time": 37.18604651162791,
          "velocity": 0.07086614173228346
        },
        {
          "duration": 0.3372093023255829,
          "durationTicks": 29,
          "midi": 94,
          "name": "A#6",
          "ticks": 3199,
          "time": 37.19767441860465,
          "velocity": 0.18110236220472442
        },
        {
          "duration": 0.05813953488372192,
          "durationTicks": 5,
          "midi": 60,
          "name": "C4",
          "ticks": 3200,
          "time": 37.2093023255814,
          "velocity": 0.2283464566929134
        },
        {
          "duration": 0.03488372093023173,
          "durationTicks": 3,
          "midi": 97,
          "name": "C#7",
          "ticks": 3205,
          "time": 37.26744186046512,
          "velocity": 0.13385826771653545
        },
        {
          "duration": 0.02325581395349019,
          "durationTicks": 2,
          "midi": 60,
          "name": "C4",
          "ticks": 3206,
          "time": 37.27906976744186,
          "velocity": 0.23622047244094488
        },
        {
          "duration": 0.5465116279069733,
          "durationTicks": 47,
          "midi": 79,
          "name": "G5",
          "ticks": 3206,
          "time": 37.27906976744186,
          "velocity": 0.2204724409448819
        },
        {
          "duration": 0.03488372093023173,
          "durationTicks": 3,
          "midi": 92,
          "name": "G#6",
          "ticks": 3206,
          "time": 37.27906976744186,
          "velocity": 0.08661417322834646
        },
        {
          "duration": 0.05813953488372192,
          "durationTicks": 5,
          "midi": 96,
          "name": "C7",
          "ticks": 3206,
          "time": 37.27906976744186,
          "velocity": 0.14173228346456693
        },
        {
          "duration": 0.02325581395349019,
          "durationTicks": 2,
          "midi": 68,
          "name": "G#4",
          "ticks": 3207,
          "time": 37.2906976744186,
          "velocity": 0.2440944881889764
        },
        {
          "duration": 0.03488372093023173,
          "durationTicks": 3,
          "midi": 59,
          "name": "B3",
          "ticks": 3208,
          "time": 37.30232558139535,
          "velocity": 0.28346456692913385
        },
        {
          "duration": 0.7674418604651123,
          "durationTicks": 66,
          "midi": 88,
          "name": "E6",
          "ticks": 3208,
          "time": 37.30232558139535,
          "velocity": 0.3779527559055118
        },
        {
          "duration": 0.3604651162790731,
          "durationTicks": 31,
          "midi": 69,
          "name": "A4",
          "ticks": 3209,
          "time": 37.31395348837209,
          "velocity": 0.5039370078740157
        },
        {
          "duration": 0.08139534883721211,
          "durationTicks": 7,
          "midi": 83,
          "name": "B5",
          "ticks": 3212,
          "time": 37.348837209302324,
          "velocity": 0.23622047244094488
        },
        {
          "duration": 0.13953488372093403,
          "durationTicks": 12,
          "midi": 96,
          "name": "C7",
          "ticks": 3212,
          "time": 37.348837209302324,
          "velocity": 0.2440944881889764
        },
        {
          "duration": 0.046511627906973274,
          "durationTicks": 4,
          "midi": 60,
          "name": "C4",
          "ticks": 3214,
          "time": 37.372093023255815,
          "velocity": 0.33070866141732286
        },
        {
          "duration": 0.15116279069767558,
          "durationTicks": 13,
          "midi": 97,
          "name": "C#7",
          "ticks": 3214,
          "time": 37.372093023255815,
          "velocity": 0.23622047244094488
        },
        {
          "duration": 0.1046511627907023,
          "durationTicks": 9,
          "midi": 92,
          "name": "G#6",
          "ticks": 3215,
          "time": 37.383720930232556,
          "velocity": 0.14173228346456693
        },
        {
          "duration": 0.22093023255813904,
          "durationTicks": 19,
          "midi": 103,
          "name": "G7",
          "ticks": 3215,
          "time": 37.383720930232556,
          "velocity": 0.1968503937007874
        },
        {
          "duration": 0.06976744186046346,
          "durationTicks": 6,
          "midi": 74,
          "name": "D5",
          "ticks": 3216,
          "time": 37.395348837209305,
          "velocity": 0.15748031496062992
        },
        {
          "duration": 0.03488372093023173,
          "durationTicks": 3,
          "midi": 71,
          "name": "B4",
          "ticks": 3217,
          "time": 37.406976744186046,
          "velocity": 0.25196850393700787
        },
        {
          "duration": 0.1860465116279073,
          "durationTicks": 16,
          "midi": 72,
          "name": "C5",
          "ticks": 3222,
          "time": 37.46511627906977,
          "velocity": 0.31496062992125984
        },
        {
          "duration": 0.11627906976744384,
          "durationTicks": 10,
          "midi": 83,
          "name": "B5",
          "ticks": 3223,
          "time": 37.47674418604651,
          "velocity": 0.1889763779527559
        },
        {
          "duration": 0.05813953488372192,
          "durationTicks": 5,
          "midi": 60,
          "name": "C4",
          "ticks": 3225,
          "time": 37.5,
          "velocity": 0.1968503937007874
        },
        {
          "duration": 0.2674418604651194,
          "durationTicks": 23,
          "midi": 76,
          "name": "E5",
          "ticks": 3228,
          "time": 37.53488372093023,
          "velocity": 0.3543307086614173
        },
        {
          "duration": 0.1860465116279073,
          "durationTicks": 16,
          "midi": 92,
          "name": "G#6",
          "ticks": 3228,
          "time": 37.53488372093023,
          "velocity": 0.14960629921259844
        },
        {
          "duration": 0.30232558139535115,
          "durationTicks": 26,
          "midi": 97,
          "name": "C#7",
          "ticks": 3229,
          "time": 37.54651162790697,
          "velocity": 0.23622047244094488
        },
        {
          "duration": 0.081395348837205,
          "durationTicks": 7,
          "midi": 96,
          "name": "C7",
          "ticks": 3230,
          "time": 37.55813953488372,
          "velocity": 0.11023622047244094
        },
        {
          "duration": 0.058139534883714816,
          "durationTicks": 5,
          "midi": 60,
          "name": "C4",
          "ticks": 3232,
          "time": 37.58139534883721,
          "velocity": 0.3228346456692913
        },
        {
          "duration": 0.081395348837205,
          "durationTicks": 7,
          "midi": 94,
          "name": "A#6",
          "ticks": 3232,
          "time": 37.58139534883721,
          "velocity": 0.1732283464566929
        },
        {
          "duration": 0.3488372093023244,
          "durationTicks": 30,
          "midi": 74,
          "name": "D5",
          "ticks": 3233,
          "time": 37.593023255813954,
          "velocity": 0.15748031496062992
        },
        {
          "duration": 0.06976744186046346,
          "durationTicks": 6,
          "midi": 83,
          "name": "B5",
          "ticks": 3236,
          "time": 37.627906976744185,
          "velocity": 0.13385826771653545
        },
        {
          "duration": 0.13953488372093403,
          "durationTicks": 12,
          "midi": 59,
          "name": "B3",
          "ticks": 3239,
          "time": 37.66279069767442,
          "velocity": 0.33070866141732286
        },
        {
          "duration": 0.03488372093023173,
          "durationTicks": 3,
          "midi": 68,
          "name": "G#4",
          "ticks": 3240,
          "time": 37.674418604651166,
          "velocity": 0.2755905511811024
        },
        {
          "duration": 0.03488372093023173,
          "durationTicks": 3,
          "midi": 96,
          "name": "C7",
          "ticks": 3240,
          "time": 37.674418604651166,
          "velocity": 0.09448818897637795
        },
        {
          "duration": 0.16279069767441712,
          "durationTicks": 14,
          "midi": 72,
          "name": "C5",
          "ticks": 3241,
          "time": 37.68604651162791,
          "velocity": 0.2204724409448819
        },
        {
          "duration": 0.2906976744186096,
          "durationTicks": 25,
          "midi": 69,
          "name": "A4",
          "ticks": 3242,
          "time": 37.69767441860465,
          "velocity": 0.5511811023622047
        },
        {
          "duration": 0.03488372093023173,
          "durationTicks": 3,
          "midi": 95,
          "name": "B6",
          "ticks": 3242,
          "time": 37.69767441860465,
          "velocity": 0.09448818897637795
        },
        {
          "duration": 0.03488372093023173,
          "durationTicks": 3,
          "midi": 78,
          "name": "F#5",
          "ticks": 3244,
          "time": 37.72093023255814,
          "velocity": 0.10236220472440945
        },
        {
          "duration": 0.12790697674418539,
          "durationTicks": 11,
          "midi": 98,
          "name": "D7",
          "ticks": 3244,
          "time": 37.72093023255814,
          "velocity": 0.18110236220472442
        },
        {
          "duration": 0.13953488372093403,
          "durationTicks": 12,
          "midi": 83,
          "name": "B5",
          "ticks": 3245,
          "time": 37.73255813953488,
          "velocity": 0.16535433070866143
        },
        {
          "duration": 0.06976744186046346,
          "durationTicks": 6,
          "midi": 94,
          "name": "A#6",
          "ticks": 3247,
          "time": 37.75581395348837,
          "velocity": 0.14960629921259844
        },
        {
          "duration": 0.03488372093023173,
          "durationTicks": 3,
          "midi": 60,
          "name": "C4",
          "ticks": 3251,
          "time": 37.80232558139535,
          "velocity": 0.31496062992125984
        },
        {
          "duration": 0.06976744186046346,
          "durationTicks": 6,
          "midi": 60,
          "name": "C4",
          "ticks": 3255,
          "time": 37.848837209302324,
          "velocity": 0.30708661417322836
        },
        {
          "duration": 0.25581395348837077,
          "durationTicks": 22,
          "midi": 97,
          "name": "C#7",
          "ticks": 3256,
          "time": 37.86046511627907,
          "velocity": 0.2440944881889764
        },
        {
          "duration": 0.03488372093023173,
          "durationTicks": 3,
          "midi": 103,
          "name": "G7",
          "ticks": 3256,
          "time": 37.86046511627907,
          "velocity": 0.11811023622047244
        },
        {
          "duration": 0.15116279069767558,
          "durationTicks": 13,
          "midi": 94,
          "name": "A#6",
          "ticks": 3257,
          "time": 37.872093023255815,
          "velocity": 0.1889763779527559
        },
        {
          "duration": 0.27906976744186096,
          "durationTicks": 24,
          "midi": 79,
          "name": "G5",
          "ticks": 3260,
          "time": 37.906976744186046,
          "velocity": 0.11811023622047244
        },
        {
          "duration": 0.16279069767442422,
          "durationTicks": 14,
          "midi": 59,
          "name": "B3",
          "ticks": 3261,
          "time": 37.91860465116279,
          "velocity": 0.28346456692913385
        },
        {
          "duration": 0.09302325581395365,
          "durationTicks": 8,
          "midi": 83,
          "name": "B5",
          "ticks": 3261,
          "time": 37.91860465116279,
          "velocity": 0.14173228346456693
        },
        {
          "duration": 0.03488372093023884,
          "durationTicks": 3,
          "midi": 92,
          "name": "G#6",
          "ticks": 3261,
          "time": 37.91860465116279,
          "velocity": 0.10236220472440945
        },
        {
          "duration": 0.16279069767441712,
          "durationTicks": 14,
          "midi": 98,
          "name": "D7",
          "ticks": 3262,
          "time": 37.93023255813954,
          "velocity": 0.12598425196850394
        },
        {
          "duration": 0.03488372093023173,
          "durationTicks": 3,
          "midi": 103,
          "name": "G7",
          "ticks": 3265,
          "time": 37.96511627906977,
          "velocity": 0.07874015748031496
        },
        {
          "duration": 0.02325581395349019,
          "durationTicks": 2,
          "midi": 68,
          "name": "G#4",
          "ticks": 3266,
          "time": 37.97674418604651,
          "velocity": 0.31496062992125984
        },
        {
          "duration": 0.08139534883721211,
          "durationTicks": 7,
          "midi": 96,
          "name": "C7",
          "ticks": 3266,
          "time": 37.97674418604651,
          "velocity": 0.11811023622047244
        },
        {
          "duration": 0.06976744186046346,
          "durationTicks": 6,
          "midi": 74,
          "name": "D5",
          "ticks": 3267,
          "time": 37.98837209302326,
          "velocity": 0.07874015748031496
        },
        {
          "duration": 0.06976744186046346,
          "durationTicks": 6,
          "midi": 69,
          "name": "A4",
          "ticks": 3268,
          "time": 38,
          "velocity": 0.4409448818897638
        },
        {
          "duration": 0.11627906976744384,
          "durationTicks": 10,
          "midi": 83,
          "name": "B5",
          "ticks": 3271,
          "time": 38.03488372093023,
          "velocity": 0.14173228346456693
        },
        {
          "duration": 0.04651162790698038,
          "durationTicks": 4,
          "midi": 92,
          "name": "G#6",
          "ticks": 3272,
          "time": 38.04651162790697,
          "velocity": 0.08661417322834646
        },
        {
          "duration": 0.02325581395349019,
          "durationTicks": 2,
          "midi": 68,
          "name": "G#4",
          "ticks": 3274,
          "time": 38.06976744186046,
          "velocity": 0.2992125984251969
        },
        {
          "duration": 0.046511627906973274,
          "durationTicks": 4,
          "midi": 60,
          "name": "C4",
          "ticks": 3275,
          "time": 38.08139534883721,
          "velocity": 0.2755905511811024
        },
        {
          "duration": 0.08139534883721211,
          "durationTicks": 7,
          "midi": 69,
          "name": "A4",
          "ticks": 3276,
          "time": 38.093023255813954,
          "velocity": 0.4566929133858268
        },
        {
          "duration": 0.1860465116279073,
          "durationTicks": 16,
          "midi": 74,
          "name": "D5",
          "ticks": 3277,
          "time": 38.104651162790695,
          "velocity": 0.14173228346456693
        },
        {
          "duration": 0.06976744186046346,
          "durationTicks": 6,
          "midi": 92,
          "name": "G#6",
          "ticks": 3278,
          "time": 38.116279069767444,
          "velocity": 0.14960629921259844
        },
        {
          "duration": 0.12790697674418539,
          "durationTicks": 11,
          "midi": 94,
          "name": "A#6",
          "ticks": 3279,
          "time": 38.127906976744185,
          "velocity": 0.1732283464566929
        },
        {
          "duration": 0.03488372093023173,
          "durationTicks": 3,
          "midi": 82,
          "name": "A#5",
          "ticks": 3281,
          "time": 38.151162790697676,
          "velocity": 0.14960629921259844
        },
        {
          "duration": 0.09302325581395365,
          "durationTicks": 8,
          "midi": 97,
          "name": "C#7",
          "ticks": 3281,
          "time": 38.151162790697676,
          "velocity": 0.14173228346456693
        },
        {
          "duration": 0.11627906976744384,
          "durationTicks": 10,
          "midi": 98,
          "name": "D7",
          "ticks": 3282,
          "time": 38.16279069767442,
          "velocity": 0.11811023622047244
        },
        {
          "duration": 0.25581395348837077,
          "durationTicks": 22,
          "midi": 59,
          "name": "B3",
          "ticks": 3283,
          "time": 38.174418604651166,
          "velocity": 0.3464566929133858
        },
        {
          "duration": 0.023255813953483084,
          "durationTicks": 2,
          "midi": 68,
          "name": "G#4",
          "ticks": 3283,
          "time": 38.174418604651166,
          "velocity": 0.25196850393700787
        },
        {
          "duration": 0.2674418604651194,
          "durationTicks": 23,
          "midi": 81,
          "name": "A5",
          "ticks": 3284,
          "time": 38.18604651162791,
          "velocity": 0.25196850393700787
        },
        {
          "duration": 0.04651162790698038,
          "durationTicks": 4,
          "midi": 69,
          "name": "A4",
          "ticks": 3285,
          "time": 38.19767441860465,
          "velocity": 0.2992125984251969
        },
        {
          "duration": 0.03488372093023173,
          "durationTicks": 3,
          "midi": 72,
          "name": "C5",
          "ticks": 3285,
          "time": 38.19767441860465,
          "velocity": 0.2125984251968504
        },
        {
          "duration": 0.13953488372092693,
          "durationTicks": 12,
          "midi": 83,
          "name": "B5",
          "ticks": 3286,
          "time": 38.2093023255814,
          "velocity": 0.14960629921259844
        },
        {
          "duration": 0.05813953488372192,
          "durationTicks": 5,
          "midi": 72,
          "name": "C5",
          "ticks": 3289,
          "time": 38.24418604651163,
          "velocity": 0.2283464566929134
        },
        {
          "duration": 0.13953488372093403,
          "durationTicks": 12,
          "midi": 69,
          "name": "A4",
          "ticks": 3290,
          "time": 38.25581395348837,
          "velocity": 0.3858267716535433
        },
        {
          "duration": 0.03488372093023173,
          "durationTicks": 3,
          "midi": 103,
          "name": "G7",
          "ticks": 3291,
          "time": 38.26744186046512,
          "velocity": 0.07874015748031496
        },
        {
          "duration": 0.1860465116279073,
          "durationTicks": 16,
          "midi": 94,
          "name": "A#6",
          "ticks": 3292,
          "time": 38.27906976744186,
          "velocity": 0.2125984251968504
        },
        {
          "duration": 0.1046511627907023,
          "durationTicks": 9,
          "midi": 79,
          "name": "G5",
          "ticks": 3293,
          "time": 38.2906976744186,
          "velocity": 0.16535433070866143
        },
        {
          "duration": 0.2674418604651123,
          "durationTicks": 23,
          "midi": 76,
          "name": "E5",
          "ticks": 3297,
          "time": 38.33720930232558,
          "velocity": 0.2992125984251969
        },
        {
          "duration": 0.05813953488372192,
          "durationTicks": 5,
          "midi": 97,
          "name": "C#7",
          "ticks": 3297,
          "time": 38.33720930232558,
          "velocity": 0.1968503937007874
        },
        {
          "duration": 0.09302325581395365,
          "durationTicks": 8,
          "midi": 74,
          "name": "D5",
          "ticks": 3300,
          "time": 38.372093023255815,
          "velocity": 0.07874015748031496
        },
        {
          "duration": 0.13953488372092693,
          "durationTicks": 12,
          "midi": 100,
          "name": "E7",
          "ticks": 3300,
          "time": 38.372093023255815,
          "velocity": 0.1732283464566929
        },
        {
          "duration": 0.03488372093023173,
          "durationTicks": 3,
          "midi": 92,
          "name": "G#6",
          "ticks": 3302,
          "time": 38.395348837209305,
          "velocity": 0.07874015748031496
        },
        {
          "duration": 0.03488372093023173,
          "durationTicks": 3,
          "midi": 96,
          "name": "C7",
          "ticks": 3303,
          "time": 38.406976744186046,
          "velocity": 0.09448818897637795
        },
        {
          "duration": 0.08139534883721211,
          "durationTicks": 7,
          "midi": 68,
          "name": "G#4",
          "ticks": 3304,
          "time": 38.41860465116279,
          "velocity": 0.3228346456692913
        },
        {
          "duration": 0.12790697674418539,
          "durationTicks": 11,
          "midi": 97,
          "name": "C#7",
          "ticks": 3304,
          "time": 38.41860465116279,
          "velocity": 0.2047244094488189
        },
        {
          "duration": 0.046511627906973274,
          "durationTicks": 4,
          "midi": 95,
          "name": "B6",
          "ticks": 3305,
          "time": 38.43023255813954,
          "velocity": 0.12598425196850394
        },
        {
          "duration": 0.06976744186046346,
          "durationTicks": 6,
          "midi": 98,
          "name": "D7",
          "ticks": 3305,
          "time": 38.43023255813954,
          "velocity": 0.12598425196850394
        },
        {
          "duration": 0.32558139534884134,
          "durationTicks": 28,
          "midi": 59,
          "name": "B3",
          "ticks": 3306,
          "time": 38.44186046511628,
          "velocity": 0.3700787401574803
        },
        {
          "duration": 0.09302325581395365,
          "durationTicks": 8,
          "midi": 72,
          "name": "C5",
          "ticks": 3306,
          "time": 38.44186046511628,
          "velocity": 0.2204724409448819
        },
        {
          "duration": 0.03488372093023173,
          "durationTicks": 3,
          "midi": 78,
          "name": "F#5",
          "ticks": 3308,
          "time": 38.46511627906977,
          "velocity": 0.09448818897637795
        },
        {
          "duration": 0.2093023255813975,
          "durationTicks": 18,
          "midi": 81,
          "name": "A5",
          "ticks": 3308,
          "time": 38.46511627906977,
          "velocity": 0.3543307086614173
        },
        {
          "duration": 0.22093023255813904,
          "durationTicks": 19,
          "midi": 69,
          "name": "A4",
          "ticks": 3309,
          "time": 38.47674418604651,
          "velocity": 0.47244094488188976
        },
        {
          "duration": 0.12790697674418539,
          "durationTicks": 11,
          "midi": 79,
          "name": "G5",
          "ticks": 3309,
          "time": 38.47674418604651,
          "velocity": 0.1732283464566929
        },
        {
          "duration": 0.22093023255813904,
          "durationTicks": 19,
          "midi": 94,
          "name": "A#6",
          "ticks": 3310,
          "time": 38.48837209302326,
          "velocity": 0.1889763779527559
        },
        {
          "duration": 0.2906976744186025,
          "durationTicks": 25,
          "midi": 74,
          "name": "D5",
          "ticks": 3311,
          "time": 38.5,
          "velocity": 0.14173228346456693
        },
        {
          "duration": 0.04651162790698038,
          "durationTicks": 4,
          "midi": 95,
          "name": "B6",
          "ticks": 3317,
          "time": 38.56976744186046,
          "velocity": 0.09448818897637795
        },
        {
          "duration": 0.06976744186046346,
          "durationTicks": 6,
          "midi": 97,
          "name": "C#7",
          "ticks": 3318,
          "time": 38.58139534883721,
          "velocity": 0.12598425196850394
        },
        {
          "duration": 0.4767441860465169,
          "durationTicks": 41,
          "midi": 88,
          "name": "E6",
          "ticks": 3320,
          "time": 38.604651162790695,
          "velocity": 0.28346456692913385
        },
        {
          "duration": 0.08139534883721211,
          "durationTicks": 7,
          "midi": 92,
          "name": "G#6",
          "ticks": 3320,
          "time": 38.604651162790695,
          "velocity": 0.15748031496062992
        },
        {
          "duration": 0.2906976744186025,
          "durationTicks": 25,
          "midi": 71,
          "name": "B4",
          "ticks": 3324,
          "time": 38.651162790697676,
          "velocity": 0.4409448818897638
        },
        {
          "duration": 0.046511627906973274,
          "durationTicks": 4,
          "midi": 98,
          "name": "D7",
          "ticks": 3324,
          "time": 38.651162790697676,
          "velocity": 0.10236220472440945
        },
        {
          "duration": 0.023255813953483084,
          "durationTicks": 2,
          "midi": 69,
          "name": "A4",
          "ticks": 3329,
          "time": 38.7093023255814,
          "velocity": 0.2677165354330709
        },
        {
          "duration": 1.3023255813953512,
          "durationTicks": 112,
          "midi": 68,
          "name": "G#4",
          "ticks": 3331,
          "time": 38.73255813953488,
          "velocity": 0.33858267716535434
        },
        {
          "duration": 0.046511627906973274,
          "durationTicks": 4,
          "midi": 92,
          "name": "G#6",
          "ticks": 3332,
          "time": 38.74418604651163,
          "velocity": 0.08661417322834646
        },
        {
          "duration": 0.046511627906973274,
          "durationTicks": 4,
          "midi": 60,
          "name": "C4",
          "ticks": 3334,
          "time": 38.76744186046512,
          "velocity": 0.2047244094488189
        },
        {
          "duration": 0.04651162790698038,
          "durationTicks": 4,
          "midi": 94,
          "name": "A#6",
          "ticks": 3336,
          "time": 38.7906976744186,
          "velocity": 0.12598425196850394
        },
        {
          "duration": 0.1046511627907023,
          "durationTicks": 9,
          "midi": 92,
          "name": "G#6",
          "ticks": 3339,
          "time": 38.825581395348834,
          "velocity": 0.1732283464566929
        },
        {
          "duration": 0.03488372093023173,
          "durationTicks": 3,
          "midi": 60,
          "name": "C4",
          "ticks": 3340,
          "time": 38.83720930232558,
          "velocity": 0.16535433070866143
        },
        {
          "duration": 0.17441860465116577,
          "durationTicks": 15,
          "midi": 74,
          "name": "D5",
          "ticks": 3341,
          "time": 38.848837209302324,
          "velocity": 0.15748031496062992
        },
        {
          "duration": 0.08139534883721211,
          "durationTicks": 7,
          "midi": 82,
          "name": "A#5",
          "ticks": 3341,
          "time": 38.848837209302324,
          "velocity": 0.13385826771653545
        },
        {
          "duration": 0.046511627906973274,
          "durationTicks": 4,
          "midi": 59,
          "name": "B3",
          "ticks": 3343,
          "time": 38.872093023255815,
          "velocity": 0.11811023622047244
        },
        {
          "duration": 0.06976744186046346,
          "durationTicks": 6,
          "midi": 83,
          "name": "B5",
          "ticks": 3349,
          "time": 38.94186046511628,
          "velocity": 0.14173228346456693
        },
        {
          "duration": 0.40697674418604635,
          "durationTicks": 35,
          "midi": 71,
          "name": "B4",
          "ticks": 3350,
          "time": 38.95348837209303,
          "velocity": 0.49606299212598426
        },
        {
          "duration": 0.24418604651162212,
          "durationTicks": 21,
          "midi": 95,
          "name": "B6",
          "ticks": 3350,
          "time": 38.95348837209303,
          "velocity": 0.25196850393700787
        },
        {
          "duration": 0.19767441860464885,
          "durationTicks": 17,
          "midi": 79,
          "name": "G5",
          "ticks": 3351,
          "time": 38.96511627906977,
          "velocity": 0.09448818897637795
        },
        {
          "duration": 0.03488372093023173,
          "durationTicks": 3,
          "midi": 59,
          "name": "B3",
          "ticks": 3352,
          "time": 38.97674418604651,
          "velocity": 0.1968503937007874
        },
        {
          "duration": 0.15116279069767558,
          "durationTicks": 13,
          "midi": 99,
          "name": "D#7",
          "ticks": 3354,
          "time": 39,
          "velocity": 0.14960629921259844
        },
        {
          "duration": 0.22093023255813904,
          "durationTicks": 19,
          "midi": 59,
          "name": "B3",
          "ticks": 3356,
          "time": 39.02325581395349,
          "velocity": 0.3779527559055118
        },
        {
          "duration": 0.046511627906973274,
          "durationTicks": 4,
          "midi": 90,
          "name": "F#6",
          "ticks": 3356,
          "time": 39.02325581395349,
          "velocity": 0.14960629921259844
        },
        {
          "duration": 0.2093023255813975,
          "durationTicks": 18,
          "midi": 74,
          "name": "D5",
          "ticks": 3360,
          "time": 39.06976744186046,
          "velocity": 0.14173228346456693
        },
        {
          "duration": 0.046511627906973274,
          "durationTicks": 4,
          "midi": 82,
          "name": "A#5",
          "ticks": 3361,
          "time": 39.08139534883721,
          "velocity": 0.11811023622047244
        },
        {
          "duration": 0.06976744186046346,
          "durationTicks": 6,
          "midi": 92,
          "name": "G#6",
          "ticks": 3362,
          "time": 39.093023255813954,
          "velocity": 0.11023622047244094
        },
        {
          "duration": 0.1046511627907023,
          "durationTicks": 9,
          "midi": 90,
          "name": "F#6",
          "ticks": 3363,
          "time": 39.104651162790695,
          "velocity": 0.1732283464566929
        },
        {
          "duration": 0.13953488372093403,
          "durationTicks": 12,
          "midi": 94,
          "name": "A#6",
          "ticks": 3366,
          "time": 39.13953488372093,
          "velocity": 0.16535433070866143
        },
        {
          "duration": 0.023255813953483084,
          "durationTicks": 2,
          "midi": 53,
          "name": "F3",
          "ticks": 3369,
          "time": 39.174418604651166,
          "velocity": 0.3228346456692913
        },
        {
          "duration": 0.03488372093023173,
          "durationTicks": 3,
          "midi": 99,
          "name": "D#7",
          "ticks": 3369,
          "time": 39.174418604651166,
          "velocity": 0.11023622047244094
        },
        {
          "duration": 3.395348837209305,
          "durationTicks": 292,
          "midi": 52,
          "name": "E3",
          "ticks": 3371,
          "time": 39.19767441860465,
          "velocity": 0.5433070866141733
        },
        {
          "duration": 0.09302325581395365,
          "durationTicks": 8,
          "midi": 82,
          "name": "A#5",
          "ticks": 3371,
          "time": 39.19767441860465,
          "velocity": 0.1732283464566929
        },
        {
          "duration": 0.2093023255813975,
          "durationTicks": 18,
          "midi": 90,
          "name": "F#6",
          "ticks": 3374,
          "time": 39.23255813953488,
          "velocity": 0.16535433070866143
        },
        {
          "duration": 0.02325581395349019,
          "durationTicks": 2,
          "midi": 60,
          "name": "C4",
          "ticks": 3375,
          "time": 39.24418604651163,
          "velocity": 0.31496062992125984
        },
        {
          "duration": 0.09302325581395365,
          "durationTicks": 8,
          "midi": 79,
          "name": "G5",
          "ticks": 3376,
          "time": 39.25581395348837,
          "velocity": 0.13385826771653545
        },
        {
          "duration": 0.17441860465116577,
          "durationTicks": 15,
          "midi": 92,
          "name": "G#6",
          "ticks": 3378,
          "time": 39.27906976744186,
          "velocity": 0.16535433070866143
        },
        {
          "duration": 0.11627906976744384,
          "durationTicks": 10,
          "midi": 60,
          "name": "C4",
          "ticks": 3379,
          "time": 39.2906976744186,
          "velocity": 0.30708661417322836
        },
        {
          "duration": 0.05813953488372192,
          "durationTicks": 5,
          "midi": 99,
          "name": "D#7",
          "ticks": 3381,
          "time": 39.31395348837209,
          "velocity": 0.14173228346456693
        },
        {
          "duration": 0.023255813953483084,
          "durationTicks": 2,
          "midi": 72,
          "name": "C5",
          "ticks": 3385,
          "time": 39.36046511627907,
          "velocity": 0.31496062992125984
        },
        {
          "duration": 0.02325581395349019,
          "durationTicks": 2,
          "midi": 71,
          "name": "B4",
          "ticks": 3386,
          "time": 39.372093023255815,
          "velocity": 0.25196850393700787
        },
        {
          "duration": 0.1860465116279073,
          "durationTicks": 16,
          "midi": 82,
          "name": "A#5",
          "ticks": 3386,
          "time": 39.372093023255815,
          "velocity": 0.14173228346456693
        },
        {
          "duration": 0.09302325581395365,
          "durationTicks": 8,
          "midi": 79,
          "name": "G5",
          "ticks": 3387,
          "time": 39.383720930232556,
          "velocity": 0.14173228346456693
        },
        {
          "duration": 0.023255813953483084,
          "durationTicks": 2,
          "midi": 72,
          "name": "C5",
          "ticks": 3388,
          "time": 39.395348837209305,
          "velocity": 0.30708661417322836
        },
        {
          "duration": 0.38372093023255616,
          "durationTicks": 33,
          "midi": 94,
          "name": "A#6",
          "ticks": 3388,
          "time": 39.395348837209305,
          "velocity": 0.29133858267716534
        },
        {
          "duration": 0.23255813953488058,
          "durationTicks": 20,
          "midi": 99,
          "name": "D#7",
          "ticks": 3388,
          "time": 39.395348837209305,
          "velocity": 0.1889763779527559
        },
        {
          "duration": 0.19767441860464885,
          "durationTicks": 17,
          "midi": 59,
          "name": "B3",
          "ticks": 3389,
          "time": 39.406976744186046,
          "velocity": 0.33070866141732286
        },
        {
          "duration": 0.046511627906973274,
          "durationTicks": 4,
          "midi": 72,
          "name": "C5",
          "ticks": 3391,
          "time": 39.43023255813954,
          "velocity": 0.2992125984251969
        },
        {
          "duration": 0.081395348837205,
          "durationTicks": 7,
          "midi": 90,
          "name": "F#6",
          "ticks": 3394,
          "time": 39.46511627906977,
          "velocity": 0.11811023622047244
        },
        {
          "duration": 0.19767441860465595,
          "durationTicks": 17,
          "midi": 74,
          "name": "D5",
          "ticks": 3395,
          "time": 39.47674418604651,
          "velocity": 0.15748031496062992
        },
        {
          "duration": 0.058139534883714816,
          "durationTicks": 5,
          "midi": 91,
          "name": "G6",
          "ticks": 3396,
          "time": 39.48837209302326,
          "velocity": 0.10236220472440945
        },
        {
          "duration": 0.02325581395349019,
          "durationTicks": 2,
          "midi": 72,
          "name": "C5",
          "ticks": 3398,
          "time": 39.51162790697674,
          "velocity": 0.25984251968503935
        },
        {
          "duration": 0.06976744186047057,
          "durationTicks": 6,
          "midi": 96,
          "name": "C7",
          "ticks": 3398,
          "time": 39.51162790697674,
          "velocity": 0.07874015748031496
        },
        {
          "duration": 0.17441860465115866,
          "durationTicks": 15,
          "midi": 92,
          "name": "G#6",
          "ticks": 3399,
          "time": 39.52325581395349,
          "velocity": 0.14173228346456693
        },
        {
          "duration": 0.09302325581395365,
          "durationTicks": 8,
          "midi": 72,
          "name": "C5",
          "ticks": 3404,
          "time": 39.58139534883721,
          "velocity": 0.30708661417322836
        },
        {
          "duration": 0.6627906976744171,
          "durationTicks": 57,
          "midi": 90,
          "name": "F#6",
          "ticks": 3404,
          "time": 39.58139534883721,
          "velocity": 0.23622047244094488
        },
        {
          "duration": 0.02325581395349019,
          "durationTicks": 2,
          "midi": 60,
          "name": "C4",
          "ticks": 3406,
          "time": 39.604651162790695,
          "velocity": 0.25984251968503935
        },
        {
          "duration": 0.11627906976744384,
          "durationTicks": 10,
          "midi": 98,
          "name": "D7",
          "ticks": 3406,
          "time": 39.604651162790695,
          "velocity": 0.09448818897637795
        },
        {
          "duration": 0.081395348837205,
          "durationTicks": 7,
          "midi": 79,
          "name": "G5",
          "ticks": 3407,
          "time": 39.616279069767444,
          "velocity": 0.23622047244094488
        },
        {
          "duration": 0.04651162790698038,
          "durationTicks": 4,
          "midi": 40,
          "name": "E2",
          "ticks": 3408,
          "time": 39.627906976744185,
          "velocity": 0.12598425196850394
        },
        {
          "duration": 0.09302325581395365,
          "durationTicks": 8,
          "midi": 60,
          "name": "C4",
          "ticks": 3410,
          "time": 39.651162790697676,
          "velocity": 0.23622047244094488
        },
        {
          "duration": 0.06976744186046346,
          "durationTicks": 6,
          "midi": 71,
          "name": "B4",
          "ticks": 3411,
          "time": 39.66279069767442,
          "velocity": 0.3937007874015748
        },
        {
          "duration": 0.11627906976744384,
          "durationTicks": 10,
          "midi": 99,
          "name": "D#7",
          "ticks": 3411,
          "time": 39.66279069767442,
          "velocity": 0.10236220472440945
        },
        {
          "duration": 0.3139534883720927,
          "durationTicks": 27,
          "midi": 82,
          "name": "A#5",
          "ticks": 3412,
          "time": 39.674418604651166,
          "velocity": 0.11023622047244094
        },
        {
          "duration": 0.36046511627906597,
          "durationTicks": 31,
          "midi": 96,
          "name": "C7",
          "ticks": 3412,
          "time": 39.674418604651166,
          "velocity": 0.18110236220472442
        },
        {
          "duration": 0.17441860465116577,
          "durationTicks": 15,
          "midi": 74,
          "name": "D5",
          "ticks": 3413,
          "time": 39.68604651162791,
          "velocity": 0.12598425196850394
        },
        {
          "duration": 0.05813953488372192,
          "durationTicks": 5,
          "midi": 40,
          "name": "E2",
          "ticks": 3416,
          "time": 39.72093023255814,
          "velocity": 0.15748031496062992
        },
        {
          "duration": 0.02325581395349019,
          "durationTicks": 2,
          "midi": 60,
          "name": "C4",
          "ticks": 3419,
          "time": 39.75581395348837,
          "velocity": 0.29133858267716534
        },
        {
          "duration": 0.30232558139535115,
          "durationTicks": 26,
          "midi": 71,
          "name": "B4",
          "ticks": 3419,
          "time": 39.75581395348837,
          "velocity": 0.48031496062992124
        },
        {
          "duration": 0.3720930232558146,
          "durationTicks": 32,
          "midi": 79,
          "name": "G5",
          "ticks": 3419,
          "time": 39.75581395348837,
          "velocity": 0.29133858267716534
        },
        {
          "duration": 0.04651162790698038,
          "durationTicks": 4,
          "midi": 92,
          "name": "G#6",
          "ticks": 3419,
          "time": 39.75581395348837,
          "velocity": 0.08661417322834646
        },
        {
          "duration": 0.1046511627906952,
          "durationTicks": 9,
          "midi": 59,
          "name": "B3",
          "ticks": 3421,
          "time": 39.77906976744186,
          "velocity": 0.2992125984251969
        },
        {
          "duration": 0.6744186046511587,
          "durationTicks": 58,
          "midi": 40,
          "name": "E2",
          "ticks": 3423,
          "time": 39.80232558139535,
          "velocity": 0.3464566929133858
        },
        {
          "duration": 0.11627906976743674,
          "durationTicks": 10,
          "midi": 99,
          "name": "D#7",
          "ticks": 3423,
          "time": 39.80232558139535,
          "velocity": 0.2047244094488189
        },
        {
          "duration": 0.2906976744186025,
          "durationTicks": 25,
          "midi": 94,
          "name": "A#6",
          "ticks": 3424,
          "time": 39.81395348837209,
          "velocity": 0.2440944881889764
        },
        {
          "duration": 0.09302325581395365,
          "durationTicks": 8,
          "midi": 98,
          "name": "D7",
          "ticks": 3428,
          "time": 39.86046511627907,
          "velocity": 0.14173228346456693
        },
        {
          "duration": 0.2906976744186025,
          "durationTicks": 25,
          "midi": 60,
          "name": "C4",
          "ticks": 3431,
          "time": 39.895348837209305,
          "velocity": 0.3543307086614173
        },
        {
          "duration": 0.03488372093023173,
          "durationTicks": 3,
          "midi": 99,
          "name": "D#7",
          "ticks": 3435,
          "time": 39.94186046511628,
          "velocity": 0.1732283464566929
        },
        {
          "duration": 0.1046511627906952,
          "durationTicks": 9,
          "midi": 74,
          "name": "D5",
          "ticks": 3436,
          "time": 39.95348837209303,
          "velocity": 0.14173228346456693
        },
        {
          "duration": 0.5116279069767415,
          "durationTicks": 44,
          "midi": 99,
          "name": "D#7",
          "ticks": 3439,
          "time": 39.98837209302326,
          "velocity": 0.2755905511811024
        },
        {
          "duration": 0.11627906976744384,
          "durationTicks": 10,
          "midi": 72,
          "name": "C5",
          "ticks": 3445,
          "time": 40.05813953488372,
          "velocity": 0.3937007874015748
        },
        {
          "duration": 0.09302325581395365,
          "durationTicks": 8,
          "midi": 98,
          "name": "D7",
          "ticks": 3445,
          "time": 40.05813953488372,
          "velocity": 0.14173228346456693
        },
        {
          "duration": 0.15116279069767558,
          "durationTicks": 13,
          "midi": 96,
          "name": "C7",
          "ticks": 3448,
          "time": 40.093023255813954,
          "velocity": 0.14173228346456693
        },
        {
          "duration": 0.09302325581395365,
          "durationTicks": 8,
          "midi": 94,
          "name": "A#6",
          "ticks": 3452,
          "time": 40.13953488372093,
          "velocity": 0.1968503937007874
        },
        {
          "duration": 0.3720930232558146,
          "durationTicks": 32,
          "midi": 71,
          "name": "B4",
          "ticks": 3453,
          "time": 40.151162790697676,
          "velocity": 0.5275590551181102
        },
        {
          "duration": 0.16279069767441712,
          "durationTicks": 14,
          "midi": 68,
          "name": "G#4",
          "ticks": 3454,
          "time": 40.16279069767442,
          "velocity": 0.13385826771653545
        },
        {
          "duration": 0.27906976744186096,
          "durationTicks": 24,
          "midi": 79,
          "name": "G5",
          "ticks": 3455,
          "time": 40.174418604651166,
          "velocity": 0.2677165354330709
        },
        {
          "duration": 0.4534883720930267,
          "durationTicks": 39,
          "midi": 60,
          "name": "C4",
          "ticks": 3457,
          "time": 40.19767441860465,
          "velocity": 0.3779527559055118
        },
        {
          "duration": 0.12790697674418539,
          "durationTicks": 11,
          "midi": 74,
          "name": "D5",
          "ticks": 3458,
          "time": 40.2093023255814,
          "velocity": 0.15748031496062992
        },
        {
          "duration": 0.11627906976743674,
          "durationTicks": 10,
          "midi": 90,
          "name": "F#6",
          "ticks": 3463,
          "time": 40.26744186046512,
          "velocity": 0.14960629921259844
        },
        {
          "duration": 0.03488372093023173,
          "durationTicks": 3,
          "midi": 84,
          "name": "C6",
          "ticks": 3464,
          "time": 40.27906976744186,
          "velocity": 0.10236220472440945
        },
        {
          "duration": 0.13953488372092693,
          "durationTicks": 12,
          "midi": 94,
          "name": "A#6",
          "ticks": 3464,
          "time": 40.27906976744186,
          "velocity": 0.1968503937007874
        },
        {
          "duration": 0.03488372093023173,
          "durationTicks": 3,
          "midi": 84,
          "name": "C6",
          "ticks": 3469,
          "time": 40.33720930232558,
          "velocity": 0.07874015748031496
        },
        {
          "duration": 0.03488372093023173,
          "durationTicks": 3,
          "midi": 96,
          "name": "C7",
          "ticks": 3471,
          "time": 40.36046511627907,
          "velocity": 0.11023622047244094
        },
        {
          "duration": 0.1860465116279073,
          "durationTicks": 16,
          "midi": 74,
          "name": "D5",
          "ticks": 3472,
          "time": 40.372093023255815,
          "velocity": 0.12598425196850394
        },
        {
          "duration": 0.06976744186046346,
          "durationTicks": 6,
          "midi": 90,
          "name": "F#6",
          "ticks": 3475,
          "time": 40.406976744186046,
          "velocity": 0.13385826771653545
        },
        {
          "duration": 0.05813953488372192,
          "durationTicks": 5,
          "midi": 94,
          "name": "A#6",
          "ticks": 3477,
          "time": 40.43023255813954,
          "velocity": 0.2440944881889764
        },
        {
          "duration": 0.2906976744186025,
          "durationTicks": 25,
          "midi": 79,
          "name": "G5",
          "ticks": 3480,
          "time": 40.46511627906977,
          "velocity": 0.2047244094488189
        },
        {
          "duration": 0.5116279069767415,
          "durationTicks": 44,
          "midi": 40,
          "name": "E2",
          "ticks": 3482,
          "time": 40.48837209302326,
          "velocity": 0.2125984251968504
        },
        {
          "duration": 0.03488372093023173,
          "durationTicks": 3,
          "midi": 102,
          "name": "F#7",
          "ticks": 3482,
          "time": 40.48837209302326,
          "velocity": 0.11811023622047244
        },
        {
          "duration": 0.12790697674418539,
          "durationTicks": 11,
          "midi": 68,
          "name": "G#4",
          "ticks": 3483,
          "time": 40.5,
          "velocity": 0.12598425196850394
        },
        {
          "duration": 0.05813953488372192,
          "durationTicks": 5,
          "midi": 71,
          "name": "B4",
          "ticks": 3486,
          "time": 40.53488372093023,
          "velocity": 0.3937007874015748
        },
        {
          "duration": 0.1860465116279073,
          "durationTicks": 16,
          "midi": 90,
          "name": "F#6",
          "ticks": 3489,
          "time": 40.56976744186046,
          "velocity": 0.2047244094488189
        },
        {
          "duration": 0.046511627906973274,
          "durationTicks": 4,
          "midi": 94,
          "name": "A#6",
          "ticks": 3491,
          "time": 40.593023255813954,
          "velocity": 0.14960629921259844
        },
        {
          "duration": 0.17441860465116577,
          "durationTicks": 15,
          "midi": 99,
          "name": "D#7",
          "ticks": 3492,
          "time": 40.604651162790695,
          "velocity": 0.16535433070866143
        },
        {
          "duration": 0.4186046511627879,
          "durationTicks": 36,
          "midi": 71,
          "name": "B4",
          "ticks": 3493,
          "time": 40.616279069767444,
          "velocity": 0.47244094488188976
        },
        {
          "duration": 0.13953488372093403,
          "durationTicks": 12,
          "midi": 74,
          "name": "D5",
          "ticks": 3495,
          "time": 40.63953488372093,
          "velocity": 0.07874015748031496
        },
        {
          "duration": 0.11627906976744384,
          "durationTicks": 10,
          "midi": 60,
          "name": "C4",
          "ticks": 3497,
          "time": 40.66279069767442,
          "velocity": 0.2677165354330709
        },
        {
          "duration": 0.04651162790698038,
          "durationTicks": 4,
          "midi": 94,
          "name": "A#6",
          "ticks": 3497,
          "time": 40.66279069767442,
          "velocity": 0.14173228346456693
        },
        {
          "duration": 0.2093023255813975,
          "durationTicks": 18,
          "midi": 68,
          "name": "G#4",
          "ticks": 3503,
          "time": 40.73255813953488,
          "velocity": 0.09448818897637795
        },
        {
          "duration": 0.046511627906973274,
          "durationTicks": 4,
          "midi": 94,
          "name": "A#6",
          "ticks": 3506,
          "time": 40.76744186046512,
          "velocity": 0.09448818897637795
        },
        {
          "duration": 0.1046511627907023,
          "durationTicks": 9,
          "midi": 90,
          "name": "F#6",
          "ticks": 3508,
          "time": 40.7906976744186,
          "velocity": 0.1889763779527559
        },
        {
          "duration": 0.03488372093023173,
          "durationTicks": 3,
          "midi": 60,
          "name": "C4",
          "ticks": 3512,
          "time": 40.83720930232558,
          "velocity": 0.10236220472440945
        },
        {
          "duration": 0.25581395348837077,
          "durationTicks": 22,
          "midi": 79,
          "name": "G5",
          "ticks": 3515,
          "time": 40.872093023255815,
          "velocity": 0.1732283464566929
        },
        {
          "duration": 0.06976744186046346,
          "durationTicks": 6,
          "midi": 60,
          "name": "C4",
          "ticks": 3517,
          "time": 40.895348837209305,
          "velocity": 0.25984251968503935
        },
        {
          "duration": 0.081395348837205,
          "durationTicks": 7,
          "midi": 99,
          "name": "D#7",
          "ticks": 3517,
          "time": 40.895348837209305,
          "velocity": 0.14960629921259844
        },
        {
          "duration": 0.05813953488372192,
          "durationTicks": 5,
          "midi": 60,
          "name": "C4",
          "ticks": 3524,
          "time": 40.97674418604651,
          "velocity": 0.25984251968503935
        },
        {
          "duration": 0.11627906976743674,
          "durationTicks": 10,
          "midi": 68,
          "name": "G#4",
          "ticks": 3528,
          "time": 41.02325581395349,
          "velocity": 0.09448818897637795
        },
        {
          "duration": 0.08139534883721211,
          "durationTicks": 7,
          "midi": 72,
          "name": "C5",
          "ticks": 3529,
          "time": 41.03488372093023,
          "velocity": 0.18110236220472442
        },
        {
          "duration": 0.09302325581395365,
          "durationTicks": 8,
          "midi": 40,
          "name": "E2",
          "ticks": 3530,
          "time": 41.04651162790697,
          "velocity": 0.1968503937007874
        },
        {
          "duration": 0.8488372093023315,
          "durationTicks": 73,
          "midi": 60,
          "name": "C4",
          "ticks": 3530,
          "time": 41.04651162790697,
          "velocity": 0.23622047244094488
        },
        {
          "duration": 0.16279069767441712,
          "durationTicks": 14,
          "midi": 83,
          "name": "B5",
          "ticks": 3533,
          "time": 41.08139534883721,
          "velocity": 0.25196850393700787
        },
        {
          "duration": 0.418604651162795,
          "durationTicks": 36,
          "midi": 71,
          "name": "B4",
          "ticks": 3535,
          "time": 41.104651162790695,
          "velocity": 0.3858267716535433
        },
        {
          "duration": 0.27906976744186096,
          "durationTicks": 24,
          "midi": 40,
          "name": "E2",
          "ticks": 3542,
          "time": 41.18604651162791,
          "velocity": 0.15748031496062992
        },
        {
          "duration": 0.03488372093023173,
          "durationTicks": 3,
          "midi": 68,
          "name": "G#4",
          "ticks": 3548,
          "time": 41.25581395348837,
          "velocity": 0.07086614173228346
        },
        {
          "duration": 0.1046511627907023,
          "durationTicks": 9,
          "midi": 68,
          "name": "G#4",
          "ticks": 3562,
          "time": 41.41860465116279,
          "velocity": 0.10236220472440945
        },
        {
          "duration": 0.1046511627906952,
          "durationTicks": 9,
          "midi": 79,
          "name": "G5",
          "ticks": 3566,
          "time": 41.46511627906977,
          "velocity": 0.10236220472440945
        },
        {
          "duration": 0.05813953488372192,
          "durationTicks": 5,
          "midi": 71,
          "name": "B4",
          "ticks": 3572,
          "time": 41.53488372093023,
          "velocity": 0.31496062992125984
        },
        {
          "duration": 0.06976744186046346,
          "durationTicks": 6,
          "midi": 88,
          "name": "E6",
          "ticks": 3577,
          "time": 41.593023255813954,
          "velocity": 0.11811023622047244
        },
        {
          "duration": 0.3604651162790731,
          "durationTicks": 31,
          "midi": 68,
          "name": "G#4",
          "ticks": 3578,
          "time": 41.604651162790695,
          "velocity": 0.08661417322834646
        },
        {
          "duration": 0.1046511627906952,
          "durationTicks": 9,
          "midi": 71,
          "name": "B4",
          "ticks": 3579,
          "time": 41.616279069767444,
          "velocity": 0.1968503937007874
        },
        {
          "duration": 0.19767441860465595,
          "durationTicks": 17,
          "midi": 95,
          "name": "B6",
          "ticks": 3586,
          "time": 41.69767441860465,
          "velocity": 0.16535433070866143
        },
        {
          "duration": 0.11627906976744384,
          "durationTicks": 10,
          "midi": 71,
          "name": "B4",
          "ticks": 3591,
          "time": 41.75581395348837,
          "velocity": 0.28346456692913385
        },
        {
          "duration": 0.1860465116279073,
          "durationTicks": 16,
          "midi": 71,
          "name": "B4",
          "ticks": 3603,
          "time": 41.895348837209305,
          "velocity": 0.23622047244094488
        },
        {
          "duration": 1.0697674418604635,
          "durationTicks": 92,
          "midi": 60,
          "name": "C4",
          "ticks": 3604,
          "time": 41.906976744186046,
          "velocity": 0.3937007874015748
        },
        {
          "duration": 0.09302325581394655,
          "durationTicks": 8,
          "midi": 95,
          "name": "B6",
          "ticks": 3608,
          "time": 41.95348837209303,
          "velocity": 0.16535433070866143
        },
        {
          "duration": 0.1046511627907023,
          "durationTicks": 9,
          "midi": 71,
          "name": "B4",
          "ticks": 3621,
          "time": 42.104651162790695,
          "velocity": 0.2125984251968504
        },
        {
          "duration": 0.6162790697674438,
          "durationTicks": 53,
          "midi": 40,
          "name": "E2",
          "ticks": 3631,
          "time": 42.22093023255814,
          "velocity": 0.16535433070866143
        },
        {
          "duration": 0.081395348837205,
          "durationTicks": 7,
          "midi": 71,
          "name": "B4",
          "ticks": 3633,
          "time": 42.24418604651163,
          "velocity": 0.3464566929133858
        },
        {
          "duration": 0.11627906976744384,
          "durationTicks": 10,
          "midi": 68,
          "name": "G#4",
          "ticks": 3640,
          "time": 42.325581395348834,
          "velocity": 0.07086614173228346
        },
        {
          "duration": 0.11627906976744384,
          "durationTicks": 10,
          "midi": 83,
          "name": "B5",
          "ticks": 3640,
          "time": 42.325581395348834,
          "velocity": 0.14173228346456693
        },
        {
          "duration": 0.03488372093023173,
          "durationTicks": 3,
          "midi": 71,
          "name": "B4",
          "ticks": 3641,
          "time": 42.33720930232558,
          "velocity": 0.1968503937007874
        },
        {
          "duration": 0.2093023255813904,
          "durationTicks": 18,
          "midi": 71,
          "name": "B4",
          "ticks": 3649,
          "time": 42.43023255813954,
          "velocity": 0.2992125984251969
        },
        {
          "duration": 0.22093023255813904,
          "durationTicks": 19,
          "midi": 52,
          "name": "E3",
          "ticks": 3669,
          "time": 42.66279069767442,
          "velocity": 0.3858267716535433
        },
        {
          "duration": 0.046511627906973274,
          "durationTicks": 4,
          "midi": 71,
          "name": "B4",
          "ticks": 3670,
          "time": 42.674418604651166,
          "velocity": 0.08661417322834646
        },
        {
          "duration": 0.03488372093023173,
          "durationTicks": 3,
          "midi": 71,
          "name": "B4",
          "ticks": 3677,
          "time": 42.75581395348837,
          "velocity": 0.10236220472440945
        },
        {
          "duration": 0.08139534883721211,
          "durationTicks": 7,
          "midi": 83,
          "name": "B5",
          "ticks": 3683,
          "time": 42.825581395348834,
          "velocity": 0.11811023622047244
        },
        {
          "duration": 0.03488372093023173,
          "durationTicks": 3,
          "midi": 41,
          "name": "F2",
          "ticks": 3684,
          "time": 42.83720930232558,
          "velocity": 0.2283464566929134
        },
        {
          "duration": 0.081395348837205,
          "durationTicks": 7,
          "midi": 71,
          "name": "B4",
          "ticks": 3684,
          "time": 42.83720930232558,
          "velocity": 0.15748031496062992
        },
        {
          "duration": 0.011627906976741542,
          "durationTicks": 1,
          "midi": 52,
          "name": "E3",
          "ticks": 3689,
          "time": 42.895348837209305,
          "velocity": 0.5984251968503937
        },
        {
          "duration": 0.011627906976741542,
          "durationTicks": 1,
          "midi": 50,
          "name": "D3",
          "ticks": 3690,
          "time": 42.906976744186046,
          "velocity": 0.6535433070866141
        },
        {
          "duration": 0.011627906976748648,
          "durationTicks": 1,
          "midi": 49,
          "name": "C#3",
          "ticks": 3691,
          "time": 42.91860465116279,
          "velocity": 0.5905511811023622
        },
        {
          "duration": 0.03488372093023884,
          "durationTicks": 3,
          "midi": 68,
          "name": "G#4",
          "ticks": 3691,
          "time": 42.91860465116279,
          "velocity": 0.14173228346456693
        },
        {
          "duration": 0.046511627906973274,
          "durationTicks": 4,
          "midi": 48,
          "name": "C3",
          "ticks": 3692,
          "time": 42.93023255813954,
          "velocity": 0.49606299212598426
        },
        {
          "duration": 0.02325581395349019,
          "durationTicks": 2,
          "midi": 41,
          "name": "F2",
          "ticks": 3695,
          "time": 42.96511627906977,
          "velocity": 0.3543307086614173
        },
        {
          "duration": 0.03488372093023173,
          "durationTicks": 3,
          "midi": 58,
          "name": "A#3",
          "ticks": 3695,
          "time": 42.96511627906977,
          "velocity": 0.33070866141732286
        },
        {
          "duration": 0.12790697674418539,
          "durationTicks": 11,
          "midi": 71,
          "name": "B4",
          "ticks": 3695,
          "time": 42.96511627906977,
          "velocity": 0.25196850393700787
        },
        {
          "duration": 0.03488372093023173,
          "durationTicks": 3,
          "midi": 64,
          "name": "E4",
          "ticks": 3696,
          "time": 42.97674418604651,
          "velocity": 0.25196850393700787
        },
        {
          "duration": 0.03488372093023173,
          "durationTicks": 3,
          "midi": 52,
          "name": "E3",
          "ticks": 3697,
          "time": 42.98837209302326,
          "velocity": 0.3543307086614173
        },
        {
          "duration": 0.02325581395349019,
          "durationTicks": 2,
          "midi": 41,
          "name": "F2",
          "ticks": 3698,
          "time": 43,
          "velocity": 0.25196850393700787
        },
        {
          "duration": 0.6627906976744242,
          "durationTicks": 57,
          "midi": 63,
          "name": "D#4",
          "ticks": 3699,
          "time": 43.01162790697674,
          "velocity": 0.5984251968503937
        },
        {
          "duration": 0.023255813953483084,
          "durationTicks": 2,
          "midi": 39,
          "name": "D#2",
          "ticks": 3700,
          "time": 43.02325581395349,
          "velocity": 0.3228346456692913
        },
        {
          "duration": 0.02325581395349019,
          "durationTicks": 2,
          "midi": 51,
          "name": "D#3",
          "ticks": 3704,
          "time": 43.06976744186046,
          "velocity": 0.4094488188976378
        },
        {
          "duration": 0.023255813953483084,
          "durationTicks": 2,
          "midi": 39,
          "name": "D#2",
          "ticks": 3705,
          "time": 43.08139534883721,
          "velocity": 0.23622047244094488
        },
        {
          "duration": 0.3720930232558146,
          "durationTicks": 32,
          "midi": 66,
          "name": "F#4",
          "ticks": 3707,
          "time": 43.104651162790695,
          "velocity": 0.4409448818897638
        },
        {
          "duration": 0.023255813953483084,
          "durationTicks": 2,
          "midi": 50,
          "name": "D3",
          "ticks": 3708,
          "time": 43.116279069767444,
          "velocity": 0.3543307086614173
        },
        {
          "duration": 0.05813953488372192,
          "durationTicks": 5,
          "midi": 71,
          "name": "B4",
          "ticks": 3709,
          "time": 43.127906976744185,
          "velocity": 0.18110236220472442
        },
        {
          "duration": 0.03488372093023884,
          "durationTicks": 3,
          "midi": 51,
          "name": "D#3",
          "ticks": 3710,
          "time": 43.13953488372093,
          "velocity": 0.4094488188976378
        },
        {
          "duration": 0.03488372093023173,
          "durationTicks": 3,
          "midi": 40,
          "name": "E2",
          "ticks": 3712,
          "time": 43.16279069767442,
          "velocity": 0.2047244094488189
        },
        {
          "duration": 0.03488372093023173,
          "durationTicks": 3,
          "midi": 70,
          "name": "A#4",
          "ticks": 3713,
          "time": 43.174418604651166,
          "velocity": 0.11023622047244094
        },
        {
          "duration": 0.02325581395349019,
          "durationTicks": 2,
          "midi": 51,
          "name": "D#3",
          "ticks": 3714,
          "time": 43.18604651162791,
          "velocity": 0.3543307086614173
        },
        {
          "duration": 0.11627906976744384,
          "durationTicks": 10,
          "midi": 71,
          "name": "B4",
          "ticks": 3715,
          "time": 43.19767441860465,
          "velocity": 0.2440944881889764
        },
        {
          "duration": 0.023255813953483084,
          "durationTicks": 2,
          "midi": 52,
          "name": "E3",
          "ticks": 3716,
          "time": 43.2093023255814,
          "velocity": 0.31496062992125984
        },
        {
          "duration": 0.15116279069767558,
          "durationTicks": 13,
          "midi": 69,
          "name": "A4",
          "ticks": 3716,
          "time": 43.2093023255814,
          "velocity": 0.2204724409448819
        },
        {
          "duration": 0.03488372093023173,
          "durationTicks": 3,
          "midi": 95,
          "name": "B6",
          "ticks": 3717,
          "time": 43.22093023255814,
          "velocity": 0.09448818897637795
        },
        {
          "duration": 0.02325581395349019,
          "durationTicks": 2,
          "midi": 50,
          "name": "D3",
          "ticks": 3718,
          "time": 43.23255813953488,
          "velocity": 0.3858267716535433
        },
        {
          "duration": 0.06976744186046346,
          "durationTicks": 6,
          "midi": 51,
          "name": "D#3",
          "ticks": 3720,
          "time": 43.25581395348837,
          "velocity": 0.4330708661417323
        },
        {
          "duration": 0.03488372093023173,
          "durationTicks": 3,
          "midi": 59,
          "name": "B3",
          "ticks": 3721,
          "time": 43.26744186046512,
          "velocity": 0.2755905511811024
        },
        {
          "duration": 0.06976744186046346,
          "durationTicks": 6,
          "midi": 72,
          "name": "C5",
          "ticks": 3724,
          "time": 43.30232558139535,
          "velocity": 0.29133858267716534
        },
        {
          "duration": 0.7906976744186025,
          "durationTicks": 68,
          "midi": 51,
          "name": "D#3",
          "ticks": 3727,
          "time": 43.33720930232558,
          "velocity": 0.5118110236220472
        },
        {
          "duration": 0.046511627906973274,
          "durationTicks": 4,
          "midi": 59,
          "name": "B3",
          "ticks": 3727,
          "time": 43.33720930232558,
          "velocity": 0.28346456692913385
        },
        {
          "duration": 0.12790697674418539,
          "durationTicks": 11,
          "midi": 69,
          "name": "A4",
          "ticks": 3730,
          "time": 43.372093023255815,
          "velocity": 0.23622047244094488
        },
        {
          "duration": 0.03488372093023173,
          "durationTicks": 3,
          "midi": 40,
          "name": "E2",
          "ticks": 3731,
          "time": 43.383720930232556,
          "velocity": 0.2440944881889764
        },
        {
          "duration": 0.04651162790698038,
          "durationTicks": 4,
          "midi": 59,
          "name": "B3",
          "ticks": 3733,
          "time": 43.406976744186046,
          "velocity": 0.29133858267716534
        },
        {
          "duration": 3.7906976744186096,
          "durationTicks": 326,
          "midi": 59,
          "name": "B3",
          "ticks": 3739,
          "time": 43.47674418604651,
          "velocity": 0.5196850393700787
        },
        {
          "duration": 0.058139534883714816,
          "durationTicks": 5,
          "midi": 66,
          "name": "F#4",
          "ticks": 3740,
          "time": 43.48837209302326,
          "velocity": 0.2677165354330709
        },
        {
          "duration": 0.22093023255813904,
          "durationTicks": 19,
          "midi": 69,
          "name": "A4",
          "ticks": 3742,
          "time": 43.51162790697674,
          "velocity": 0.2125984251968504
        },
        {
          "duration": 0.046511627906973274,
          "durationTicks": 4,
          "midi": 40,
          "name": "E2",
          "ticks": 3746,
          "time": 43.55813953488372,
          "velocity": 0.30708661417322836
        },
        {
          "duration": 0.13953488372092693,
          "durationTicks": 12,
          "midi": 72,
          "name": "C5",
          "ticks": 3746,
          "time": 43.55813953488372,
          "velocity": 0.2204724409448819
        },
        {
          "duration": 0.02325581395349019,
          "durationTicks": 2,
          "midi": 39,
          "name": "D#2",
          "ticks": 3750,
          "time": 43.604651162790695,
          "velocity": 0.3228346456692913
        },
        {
          "duration": 0.09302325581395365,
          "durationTicks": 8,
          "midi": 39,
          "name": "D#2",
          "ticks": 3753,
          "time": 43.63953488372093,
          "velocity": 0.30708661417322836
        },
        {
          "duration": 0.03488372093023173,
          "durationTicks": 3,
          "midi": 67,
          "name": "G4",
          "ticks": 3754,
          "time": 43.651162790697676,
          "velocity": 0.25984251968503935
        },
        {
          "duration": 0.03488372093023173,
          "durationTicks": 3,
          "midi": 90,
          "name": "F#6",
          "ticks": 3756,
          "time": 43.674418604651166,
          "velocity": 0.10236220472440945
        },
        {
          "duration": 0.023255813953483084,
          "durationTicks": 2,
          "midi": 67,
          "name": "G4",
          "ticks": 3759,
          "time": 43.7093023255814,
          "velocity": 0.23622047244094488
        },
        {
          "duration": 1.1162790697674438,
          "durationTicks": 96,
          "midi": 39,
          "name": "D#2",
          "ticks": 3762,
          "time": 43.74418604651163,
          "velocity": 0.3779527559055118
        },
        {
          "duration": 0.03488372093023173,
          "durationTicks": 3,
          "midi": 67,
          "name": "G4",
          "ticks": 3763,
          "time": 43.75581395348837,
          "velocity": 0.23622047244094488
        },
        {
          "duration": 0.03488372093023173,
          "durationTicks": 3,
          "midi": 67,
          "name": "G4",
          "ticks": 3767,
          "time": 43.80232558139535,
          "velocity": 0.2440944881889764
        },
        {
          "duration": 0.918604651162795,
          "durationTicks": 79,
          "midi": 85,
          "name": "C#6",
          "ticks": 3769,
          "time": 43.825581395348834,
          "velocity": 0.15748031496062992
        },
        {
          "duration": 0.06976744186046346,
          "durationTicks": 6,
          "midi": 67,
          "name": "G4",
          "ticks": 3772,
          "time": 43.86046511627907,
          "velocity": 0.31496062992125984
        },
        {
          "duration": 0.25581395348837077,
          "durationTicks": 22,
          "midi": 78,
          "name": "F#5",
          "ticks": 3773,
          "time": 43.872093023255815,
          "velocity": 0.14960629921259844
        },
        {
          "duration": 0.22093023255813904,
          "durationTicks": 19,
          "midi": 66,
          "name": "F#4",
          "ticks": 3778,
          "time": 43.93023255813954,
          "velocity": 0.33858267716535434
        },
        {
          "duration": 0.03488372093023173,
          "durationTicks": 3,
          "midi": 69,
          "name": "A4",
          "ticks": 3779,
          "time": 43.94186046511628,
          "velocity": 0.16535433070866143
        },
        {
          "duration": 0.03488372093023173,
          "durationTicks": 3,
          "midi": 50,
          "name": "D3",
          "ticks": 3797,
          "time": 44.151162790697676,
          "velocity": 0.12598425196850394
        },
        {
          "duration": 0.2093023255813975,
          "durationTicks": 18,
          "midi": 67,
          "name": "G4",
          "ticks": 3797,
          "time": 44.151162790697676,
          "velocity": 0.28346456692913385
        },
        {
          "duration": 0.24418604651162923,
          "durationTicks": 21,
          "midi": 63,
          "name": "D#4",
          "ticks": 3798,
          "time": 44.16279069767442,
          "velocity": 0.29133858267716534
        },
        {
          "duration": 0.03488372093023173,
          "durationTicks": 3,
          "midi": 90,
          "name": "F#6",
          "ticks": 3801,
          "time": 44.19767441860465,
          "velocity": 0.1732283464566929
        },
        {
          "duration": 0.03488372093023173,
          "durationTicks": 3,
          "midi": 78,
          "name": "F#5",
          "ticks": 3802,
          "time": 44.2093023255814,
          "velocity": 0.07874015748031496
        },
        {
          "duration": 0.03488372093023173,
          "durationTicks": 3,
          "midi": 50,
          "name": "D3",
          "ticks": 3803,
          "time": 44.22093023255814,
          "velocity": 0.15748031496062992
        },
        {
          "duration": 3.302325581395351,
          "durationTicks": 284,
          "midi": 51,
          "name": "D#3",
          "ticks": 3806,
          "time": 44.25581395348837,
          "velocity": 0.6220472440944882
        },
        {
          "duration": 0.2093023255813975,
          "durationTicks": 18,
          "midi": 95,
          "name": "B6",
          "ticks": 3806,
          "time": 44.25581395348837,
          "velocity": 0.1968503937007874
        },
        {
          "duration": 0.08139534883721211,
          "durationTicks": 7,
          "midi": 90,
          "name": "F#6",
          "ticks": 3809,
          "time": 44.2906976744186,
          "velocity": 0.1889763779527559
        },
        {
          "duration": 0.11627906976743674,
          "durationTicks": 10,
          "midi": 78,
          "name": "F#5",
          "ticks": 3810,
          "time": 44.30232558139535,
          "velocity": 0.1732283464566929
        },
        {
          "duration": 0.09302325581395365,
          "durationTicks": 8,
          "midi": 66,
          "name": "F#4",
          "ticks": 3815,
          "time": 44.36046511627907,
          "velocity": 0.3228346456692913
        },
        {
          "duration": 0.25581395348837077,
          "durationTicks": 22,
          "midi": 94,
          "name": "A#6",
          "ticks": 3815,
          "time": 44.36046511627907,
          "velocity": 0.11811023622047244
        },
        {
          "duration": 0.24418604651162923,
          "durationTicks": 21,
          "midi": 90,
          "name": "F#6",
          "ticks": 3820,
          "time": 44.41860465116279,
          "velocity": 0.2677165354330709
        },
        {
          "duration": 0.058139534883714816,
          "durationTicks": 5,
          "midi": 67,
          "name": "G4",
          "ticks": 3823,
          "time": 44.45348837209303,
          "velocity": 0.31496062992125984
        },
        {
          "duration": 0.2093023255813975,
          "durationTicks": 18,
          "midi": 78,
          "name": "F#5",
          "ticks": 3825,
          "time": 44.47674418604651,
          "velocity": 0.2204724409448819
        },
        {
          "duration": 0.16279069767442422,
          "durationTicks": 14,
          "midi": 66,
          "name": "F#4",
          "ticks": 3828,
          "time": 44.51162790697674,
          "velocity": 0.3937007874015748
        },
        {
          "duration": 0.2093023255813975,
          "durationTicks": 18,
          "midi": 94,
          "name": "A#6",
          "ticks": 3838,
          "time": 44.627906976744185,
          "velocity": 0.2047244094488189
        },
        {
          "duration": 0.12790697674418539,
          "durationTicks": 11,
          "midi": 67,
          "name": "G4",
          "ticks": 3842,
          "time": 44.674418604651166,
          "velocity": 0.30708661417322836
        },
        {
          "duration": 0.081395348837205,
          "durationTicks": 7,
          "midi": 90,
          "name": "F#6",
          "ticks": 3842,
          "time": 44.674418604651166,
          "velocity": 0.3228346456692913
        },
        {
          "duration": 0.12790697674418539,
          "durationTicks": 11,
          "midi": 78,
          "name": "F#5",
          "ticks": 3846,
          "time": 44.72093023255814,
          "velocity": 0.2283464566929134
        },
        {
          "duration": 0.023255813953483084,
          "durationTicks": 2,
          "midi": 70,
          "name": "A#4",
          "ticks": 3850,
          "time": 44.76744186046512,
          "velocity": 0.2677165354330709
        },
        {
          "duration": 2.3488372093023244,
          "durationTicks": 202,
          "midi": 90,
          "name": "F#6",
          "ticks": 3851,
          "time": 44.77906976744186,
          "velocity": 0.36220472440944884
        },
        {
          "duration": 0.12790697674418539,
          "durationTicks": 11,
          "midi": 85,
          "name": "C#6",
          "ticks": 3852,
          "time": 44.7906976744186,
          "velocity": 0.15748031496062992
        },
        {
          "duration": 2.220930232558139,
          "durationTicks": 191,
          "midi": 95,
          "name": "B6",
          "ticks": 3852,
          "time": 44.7906976744186,
          "velocity": 0.3779527559055118
        },
        {
          "duration": 0.06976744186047057,
          "durationTicks": 6,
          "midi": 99,
          "name": "D#7",
          "ticks": 3852,
          "time": 44.7906976744186,
          "velocity": 0.13385826771653545
        },
        {
          "duration": 0.8372093023255758,
          "durationTicks": 72,
          "midi": 66,
          "name": "F#4",
          "ticks": 3853,
          "time": 44.80232558139535,
          "velocity": 0.5354330708661418
        },
        {
          "duration": 0.05813953488372192,
          "durationTicks": 5,
          "midi": 99,
          "name": "D#7",
          "ticks": 3860,
          "time": 44.883720930232556,
          "velocity": 0.12598425196850394
        },
        {
          "duration": 0.13953488372092693,
          "durationTicks": 12,
          "midi": 94,
          "name": "A#6",
          "ticks": 3862,
          "time": 44.906976744186046,
          "velocity": 0.18110236220472442
        },
        {
          "duration": 0.46511627906976827,
          "durationTicks": 40,
          "midi": 85,
          "name": "C#6",
          "ticks": 3865,
          "time": 44.94186046511628,
          "velocity": 0.1968503937007874
        },
        {
          "duration": 0.03488372093023173,
          "durationTicks": 3,
          "midi": 99,
          "name": "D#7",
          "ticks": 3875,
          "time": 45.05813953488372,
          "velocity": 0.08661417322834646
        },
        {
          "duration": 0.03488372093023173,
          "durationTicks": 3,
          "midi": 39,
          "name": "D#2",
          "ticks": 3876,
          "time": 45.06976744186046,
          "velocity": 0.18110236220472442
        },
        {
          "duration": 2.0930232558139537,
          "durationTicks": 180,
          "midi": 39,
          "name": "D#2",
          "ticks": 3880,
          "time": 45.116279069767444,
          "velocity": 0.4251968503937008
        },
        {
          "duration": 0.08139534883721211,
          "durationTicks": 7,
          "midi": 99,
          "name": "D#7",
          "ticks": 3882,
          "time": 45.13953488372093,
          "velocity": 0.1732283464566929
        },
        {
          "duration": 0.16279069767441712,
          "durationTicks": 14,
          "midi": 94,
          "name": "A#6",
          "ticks": 3883,
          "time": 45.151162790697676,
          "velocity": 0.2440944881889764
        },
        {
          "duration": 0.15116279069767558,
          "durationTicks": 13,
          "midi": 99,
          "name": "D#7",
          "ticks": 3894,
          "time": 45.27906976744186,
          "velocity": 0.1968503937007874
        },
        {
          "duration": 0.09302325581395365,
          "durationTicks": 8,
          "midi": 93,
          "name": "A6",
          "ticks": 3895,
          "time": 45.2906976744186,
          "velocity": 0.11023622047244094
        },
        {
          "duration": 0.046511627906973274,
          "durationTicks": 4,
          "midi": 94,
          "name": "A#6",
          "ticks": 3899,
          "time": 45.33720930232558,
          "velocity": 0.23622047244094488
        },
        {
          "duration": 0.03488372093023173,
          "durationTicks": 3,
          "midi": 87,
          "name": "D#6",
          "ticks": 3902,
          "time": 45.372093023255815,
          "velocity": 0.07874015748031496
        },
        {
          "duration": 0.8023255813953512,
          "durationTicks": 69,
          "midi": 94,
          "name": "A#6",
          "ticks": 3905,
          "time": 45.406976744186046,
          "velocity": 0.29133858267716534
        },
        {
          "duration": 1.4069767441860463,
          "durationTicks": 121,
          "midi": 99,
          "name": "D#7",
          "ticks": 3908,
          "time": 45.44186046511628,
          "velocity": 0.29133858267716534
        },
        {
          "duration": 0.2093023255813975,
          "durationTicks": 18,
          "midi": 85,
          "name": "C#6",
          "ticks": 3913,
          "time": 45.5,
          "velocity": 0.2755905511811024
        },
        {
          "duration": 0.12790697674418539,
          "durationTicks": 11,
          "midi": 93,
          "name": "A6",
          "ticks": 3913,
          "time": 45.5,
          "velocity": 0.14173228346456693
        },
        {
          "duration": 0.03488372093023173,
          "durationTicks": 3,
          "midi": 70,
          "name": "A#4",
          "ticks": 3919,
          "time": 45.56976744186046,
          "velocity": 0.2677165354330709
        },
        {
          "duration": 0.023255813953483084,
          "durationTicks": 2,
          "midi": 70,
          "name": "A#4",
          "ticks": 3923,
          "time": 45.616279069767444,
          "velocity": 0.2755905511811024
        },
        {
          "duration": 0.19767441860465595,
          "durationTicks": 17,
          "midi": 71,
          "name": "B4",
          "ticks": 3925,
          "time": 45.63953488372093,
          "velocity": 0.5196850393700787
        },
        {
          "duration": 0.2093023255813975,
          "durationTicks": 18,
          "midi": 66,
          "name": "F#4",
          "ticks": 3926,
          "time": 45.651162790697676,
          "velocity": 0.48031496062992124
        },
        {
          "duration": 0.2093023255813975,
          "durationTicks": 18,
          "midi": 93,
          "name": "A6",
          "ticks": 3929,
          "time": 45.68604651162791,
          "velocity": 0.15748031496062992
        },
        {
          "duration": 0.03488372093023173,
          "durationTicks": 3,
          "midi": 97,
          "name": "C#7",
          "ticks": 3931,
          "time": 45.7093023255814,
          "velocity": 0.09448818897637795
        },
        {
          "duration": 0.30232558139535115,
          "durationTicks": 26,
          "midi": 85,
          "name": "C#6",
          "ticks": 3933,
          "time": 45.73255813953488,
          "velocity": 0.2755905511811024
        },
        {
          "duration": 0.046511627906973274,
          "durationTicks": 4,
          "midi": 87,
          "name": "D#6",
          "ticks": 3936,
          "time": 45.76744186046512,
          "velocity": 0.09448818897637795
        },
        {
          "duration": 0.06976744186046346,
          "durationTicks": 6,
          "midi": 77,
          "name": "F5",
          "ticks": 3942,
          "time": 45.83720930232558,
          "velocity": 0.15748031496062992
        },
        {
          "duration": 0.06976744186046346,
          "durationTicks": 6,
          "midi": 67,
          "name": "G4",
          "ticks": 3943,
          "time": 45.848837209302324,
          "velocity": 0.5118110236220472
        },
        {
          "duration": 0.15116279069767558,
          "durationTicks": 13,
          "midi": 71,
          "name": "B4",
          "ticks": 3943,
          "time": 45.848837209302324,
          "velocity": 0.5748031496062992
        },
        {
          "duration": 0.05813953488372192,
          "durationTicks": 5,
          "midi": 87,
          "name": "D#6",
          "ticks": 3943,
          "time": 45.848837209302324,
          "velocity": 0.08661417322834646
        },
        {
          "duration": 0.05813953488372192,
          "durationTicks": 5,
          "midi": 82,
          "name": "A#5",
          "ticks": 3945,
          "time": 45.872093023255815,
          "velocity": 0.12598425196850394
        },
        {
          "duration": 0.02325581395349019,
          "durationTicks": 2,
          "midi": 66,
          "name": "F#4",
          "ticks": 3948,
          "time": 45.906976744186046,
          "velocity": 0.4251968503937008
        },
        {
          "duration": 0.30232558139535115,
          "durationTicks": 26,
          "midi": 93,
          "name": "A6",
          "ticks": 3949,
          "time": 45.91860465116279,
          "velocity": 0.2283464566929134
        },
        {
          "duration": 0.011627906976741542,
          "durationTicks": 1,
          "midi": 67,
          "name": "G4",
          "ticks": 3950,
          "time": 45.93023255813954,
          "velocity": 0.5196850393700787
        },
        {
          "duration": 0.17441860465116577,
          "durationTicks": 15,
          "midi": 66,
          "name": "F#4",
          "ticks": 3951,
          "time": 45.94186046511628,
          "velocity": 0.5354330708661418
        },
        {
          "duration": 0.06976744186046346,
          "durationTicks": 6,
          "midi": 75,
          "name": "D#5",
          "ticks": 3952,
          "time": 45.95348837209303,
          "velocity": 0.09448818897637795
        },
        {
          "duration": 0.02325581395349019,
          "durationTicks": 2,
          "midi": 70,
          "name": "A#4",
          "ticks": 3956,
          "time": 46,
          "velocity": 0.30708661417322836
        },
        {
          "duration": 0.27906976744186096,
          "durationTicks": 24,
          "midi": 71,
          "name": "B4",
          "ticks": 3958,
          "time": 46.02325581395349,
          "velocity": 0.5196850393700787
        },
        {
          "duration": 0.2325581395348877,
          "durationTicks": 20,
          "midi": 85,
          "name": "C#6",
          "ticks": 3960,
          "time": 46.04651162790697,
          "velocity": 0.2992125984251969
        },
        {
          "duration": 0.04651162790698038,
          "durationTicks": 4,
          "midi": 67,
          "name": "G4",
          "ticks": 3965,
          "time": 46.104651162790695,
          "velocity": 0.47244094488188976
        },
        {
          "duration": 0.09302325581395365,
          "durationTicks": 8,
          "midi": 66,
          "name": "F#4",
          "ticks": 3969,
          "time": 46.151162790697676,
          "velocity": 0.44881889763779526
        },
        {
          "duration": 0.081395348837205,
          "durationTicks": 7,
          "midi": 87,
          "name": "D#6",
          "ticks": 3969,
          "time": 46.151162790697676,
          "velocity": 0.10236220472440945
        },
        {
          "duration": 0.1279069767441925,
          "durationTicks": 11,
          "midi": 93,
          "name": "A6",
          "ticks": 3976,
          "time": 46.23255813953488,
          "velocity": 0.12598425196850394
        },
        {
          "duration": 0.22093023255814614,
          "durationTicks": 19,
          "midi": 94,
          "name": "A#6",
          "ticks": 3976,
          "time": 46.23255813953488,
          "velocity": 0.18110236220472442
        },
        {
          "duration": 0.36046511627906597,
          "durationTicks": 31,
          "midi": 67,
          "name": "G4",
          "ticks": 3977,
          "time": 46.24418604651163,
          "velocity": 0.4645669291338583
        },
        {
          "duration": 0.40697674418604635,
          "durationTicks": 35,
          "midi": 85,
          "name": "C#6",
          "ticks": 3984,
          "time": 46.325581395348834,
          "velocity": 0.28346456692913385
        },
        {
          "duration": 0.32558139534884134,
          "durationTicks": 28,
          "midi": 93,
          "name": "A6",
          "ticks": 3989,
          "time": 46.383720930232556,
          "velocity": 0.25196850393700787
        },
        {
          "duration": 0.3372093023255829,
          "durationTicks": 29,
          "midi": 71,
          "name": "B4",
          "ticks": 3997,
          "time": 46.47674418604651,
          "velocity": 0.5275590551181102
        },
        {
          "duration": 0.15116279069766847,
          "durationTicks": 13,
          "midi": 94,
          "name": "A#6",
          "ticks": 3998,
          "time": 46.48837209302326,
          "velocity": 0.18110236220472442
        },
        {
          "duration": 0.15116279069767558,
          "durationTicks": 13,
          "midi": 87,
          "name": "D#6",
          "ticks": 4000,
          "time": 46.51162790697674,
          "velocity": 0.13385826771653545
        },
        {
          "duration": 0.03488372093023884,
          "durationTicks": 3,
          "midi": 73,
          "name": "C#5",
          "ticks": 4003,
          "time": 46.54651162790697,
          "velocity": 0.1968503937007874
        },
        {
          "duration": 0.04651162790698038,
          "durationTicks": 4,
          "midi": 82,
          "name": "A#5",
          "ticks": 4005,
          "time": 46.56976744186046,
          "velocity": 0.12598425196850394
        },
        {
          "duration": 0.11627906976744384,
          "durationTicks": 10,
          "midi": 66,
          "name": "F#4",
          "ticks": 4008,
          "time": 46.604651162790695,
          "velocity": 0.4015748031496063
        },
        {
          "duration": 0.09302325581395365,
          "durationTicks": 8,
          "midi": 82,
          "name": "A#5",
          "ticks": 4010,
          "time": 46.627906976744185,
          "velocity": 0.1732283464566929
        },
        {
          "duration": 0.05813953488372192,
          "durationTicks": 5,
          "midi": 94,
          "name": "A#6",
          "ticks": 4013,
          "time": 46.66279069767442,
          "velocity": 0.2204724409448819
        },
        {
          "duration": 0.046511627906973274,
          "durationTicks": 4,
          "midi": 87,
          "name": "D#6",
          "ticks": 4015,
          "time": 46.68604651162791,
          "velocity": 0.07874015748031496
        },
        {
          "duration": 0.3139534883720927,
          "durationTicks": 27,
          "midi": 75,
          "name": "D#5",
          "ticks": 4016,
          "time": 46.69767441860465,
          "velocity": 0.1889763779527559
        },
        {
          "duration": 0.19767441860464885,
          "durationTicks": 17,
          "midi": 67,
          "name": "G4",
          "ticks": 4017,
          "time": 46.7093023255814,
          "velocity": 0.3700787401574803
        },
        {
          "duration": 0.16279069767441712,
          "durationTicks": 14,
          "midi": 93,
          "name": "A6",
          "ticks": 4018,
          "time": 46.72093023255814,
          "velocity": 0.1968503937007874
        },
        {
          "duration": 0.05813953488372192,
          "durationTicks": 5,
          "midi": 94,
          "name": "A#6",
          "ticks": 4021,
          "time": 46.75581395348837,
          "velocity": 0.1732283464566929
        },
        {
          "duration": 0.03488372093023173,
          "durationTicks": 3,
          "midi": 77,
          "name": "F5",
          "ticks": 4022,
          "time": 46.76744186046512,
          "velocity": 0.14960629921259844
        },
        {
          "duration": 0.16279069767442422,
          "durationTicks": 14,
          "midi": 82,
          "name": "A#5",
          "ticks": 4024,
          "time": 46.7906976744186,
          "velocity": 0.12598425196850394
        },
        {
          "duration": 0.3488372093023244,
          "durationTicks": 30,
          "midi": 85,
          "name": "C#6",
          "ticks": 4024,
          "time": 46.7906976744186,
          "velocity": 0.25984251968503935
        },
        {
          "duration": 2.9069767441860463,
          "durationTicks": 250,
          "midi": 78,
          "name": "F#5",
          "ticks": 4025,
          "time": 46.80232558139535,
          "velocity": 0.36220472440944884
        },
        {
          "duration": 0.48837209302325846,
          "durationTicks": 42,
          "midi": 71,
          "name": "B4",
          "ticks": 4027,
          "time": 46.825581395348834,
          "velocity": 0.5590551181102362
        },
        {
          "duration": 0.16279069767441712,
          "durationTicks": 14,
          "midi": 94,
          "name": "A#6",
          "ticks": 4030,
          "time": 46.86046511627907,
          "velocity": 0.16535433070866143
        },
        {
          "duration": 0.03488372093023173,
          "durationTicks": 3,
          "midi": 99,
          "name": "D#7",
          "ticks": 4030,
          "time": 46.86046511627907,
          "velocity": 0.12598425196850394
        },
        {
          "duration": 0.15116279069767558,
          "durationTicks": 13,
          "midi": 66,
          "name": "F#4",
          "ticks": 4034,
          "time": 46.906976744186046,
          "velocity": 0.3858267716535433
        },
        {
          "duration": 0.03488372093023173,
          "durationTicks": 3,
          "midi": 93,
          "name": "A6",
          "ticks": 4037,
          "time": 46.94186046511628,
          "velocity": 0.14173228346456693
        },
        {
          "duration": 0.16279069767441712,
          "durationTicks": 14,
          "midi": 99,
          "name": "D#7",
          "ticks": 4041,
          "time": 46.98837209302326,
          "velocity": 0.16535433070866143
        },
        {
          "duration": 0.09302325581395365,
          "durationTicks": 8,
          "midi": 93,
          "name": "A6",
          "ticks": 4042,
          "time": 47,
          "velocity": 0.1968503937007874
        },
        {
          "duration": 0.12790697674418539,
          "durationTicks": 11,
          "midi": 75,
          "name": "D#5",
          "ticks": 4044,
          "time": 47.02325581395349,
          "velocity": 0.13385826771653545
        },
        {
          "duration": 0.03488372093023884,
          "durationTicks": 3,
          "midi": 64,
          "name": "E4",
          "ticks": 4046,
          "time": 47.04651162790697,
          "velocity": 0.30708661417322836
        },
        {
          "duration": 0.7093023255813975,
          "durationTicks": 61,
          "midi": 94,
          "name": "A#6",
          "ticks": 4047,
          "time": 47.05813953488372,
          "velocity": 0.2440944881889764
        },
        {
          "duration": 0.08139534883721211,
          "durationTicks": 7,
          "midi": 66,
          "name": "F#4",
          "ticks": 4048,
          "time": 47.06976744186046,
          "velocity": 0.3858267716535433
        },
        {
          "duration": 0.16279069767441712,
          "durationTicks": 14,
          "midi": 93,
          "name": "A6",
          "ticks": 4052,
          "time": 47.116279069767444,
          "velocity": 0.15748031496062992
        },
        {
          "duration": 0.06976744186046346,
          "durationTicks": 6,
          "midi": 67,
          "name": "G4",
          "ticks": 4055,
          "time": 47.151162790697676,
          "velocity": 0.4251968503937008
        },
        {
          "duration": 0.13953488372093403,
          "durationTicks": 12,
          "midi": 85,
          "name": "C#6",
          "ticks": 4056,
          "time": 47.16279069767442,
          "velocity": 0.2047244094488189
        },
        {
          "duration": 0.03488372093023173,
          "durationTicks": 3,
          "midi": 75,
          "name": "D#5",
          "ticks": 4057,
          "time": 47.174418604651166,
          "velocity": 0.11023622047244094
        },
        {
          "duration": 0.15116279069766847,
          "durationTicks": 13,
          "midi": 87,
          "name": "D#6",
          "ticks": 4057,
          "time": 47.174418604651166,
          "velocity": 0.11811023622047244
        },
        {
          "duration": 0.1860465116279073,
          "durationTicks": 16,
          "midi": 96,
          "name": "C7",
          "ticks": 4058,
          "time": 47.18604651162791,
          "velocity": 0.11023622047244094
        },
        {
          "duration": 0.03488372093023173,
          "durationTicks": 3,
          "midi": 39,
          "name": "D#2",
          "ticks": 4061,
          "time": 47.22093023255814,
          "velocity": 0.4015748031496063
        },
        {
          "duration": 0.04651162790698038,
          "durationTicks": 4,
          "midi": 66,
          "name": "F#4",
          "ticks": 4061,
          "time": 47.22093023255814,
          "velocity": 0.4251968503937008
        },
        {
          "duration": 0.19767441860464885,
          "durationTicks": 17,
          "midi": 84,
          "name": "C6",
          "ticks": 4061,
          "time": 47.22093023255814,
          "velocity": 0.23622047244094488
        },
        {
          "duration": 0.011627906976741542,
          "durationTicks": 1,
          "midi": 62,
          "name": "D4",
          "ticks": 4065,
          "time": 47.26744186046512,
          "velocity": 0.5275590551181102
        },
        {
          "duration": 0.03488372093023173,
          "durationTicks": 3,
          "midi": 42,
          "name": "F#2",
          "ticks": 4066,
          "time": 47.27906976744186,
          "velocity": 0.4881889763779528
        },
        {
          "duration": 0.13953488372092693,
          "durationTicks": 12,
          "midi": 72,
          "name": "C5",
          "ticks": 4068,
          "time": 47.30232558139535,
          "velocity": 0.3700787401574803
        },
        {
          "duration": 0.046511627906973274,
          "durationTicks": 4,
          "midi": 93,
          "name": "A6",
          "ticks": 4068,
          "time": 47.30232558139535,
          "velocity": 0.11811023622047244
        },
        {
          "duration": 0.06976744186046346,
          "durationTicks": 6,
          "midi": 101,
          "name": "F7",
          "ticks": 4068,
          "time": 47.30232558139535,
          "velocity": 0.07086614173228346
        },
        {
          "duration": 0.03488372093023173,
          "durationTicks": 3,
          "midi": 41,
          "name": "F2",
          "ticks": 4069,
          "time": 47.31395348837209,
          "velocity": 0.5590551181102362
        },
        {
          "duration": 0.9302325581395365,
          "durationTicks": 80,
          "midi": 66,
          "name": "F#4",
          "ticks": 4069,
          "time": 47.31395348837209,
          "velocity": 0.5354330708661418
        },
        {
          "duration": 0.02325581395349019,
          "durationTicks": 2,
          "midi": 59,
          "name": "B3",
          "ticks": 4070,
          "time": 47.325581395348834,
          "velocity": 0.29133858267716534
        },
        {
          "duration": 0.4418604651162781,
          "durationTicks": 38,
          "midi": 83,
          "name": "B5",
          "ticks": 4072,
          "time": 47.348837209302324,
          "velocity": 0.1732283464566929
        },
        {
          "duration": 0.023255813953483084,
          "durationTicks": 2,
          "midi": 43,
          "name": "G2",
          "ticks": 4073,
          "time": 47.36046511627907,
          "velocity": 0.48031496062992124
        },
        {
          "duration": 0.36046511627906597,
          "durationTicks": 31,
          "midi": 97,
          "name": "C#7",
          "ticks": 4073,
          "time": 47.36046511627907,
          "velocity": 0.14173228346456693
        },
        {
          "duration": 0.011627906976748648,
          "durationTicks": 1,
          "midi": 42,
          "name": "F#2",
          "ticks": 4075,
          "time": 47.383720930232556,
          "velocity": 0.5354330708661418
        },
        {
          "duration": 0.023255813953483084,
          "durationTicks": 2,
          "midi": 41,
          "name": "F2",
          "ticks": 4076,
          "time": 47.395348837209305,
          "velocity": 0.5433070866141733
        },
        {
          "duration": 0.36046511627906597,
          "durationTicks": 31,
          "midi": 85,
          "name": "C#6",
          "ticks": 4076,
          "time": 47.395348837209305,
          "velocity": 0.18110236220472442
        },
        {
          "duration": 0.02325581395349019,
          "durationTicks": 2,
          "midi": 70,
          "name": "A#4",
          "ticks": 4078,
          "time": 47.41860465116279,
          "velocity": 0.30708661417322836
        },
        {
          "duration": 0.06976744186047057,
          "durationTicks": 6,
          "midi": 76,
          "name": "E5",
          "ticks": 4078,
          "time": 47.41860465116279,
          "velocity": 0.1968503937007874
        },
        {
          "duration": 0.03488372093023173,
          "durationTicks": 3,
          "midi": 42,
          "name": "F#2",
          "ticks": 4080,
          "time": 47.44186046511628,
          "velocity": 0.5196850393700787
        },
        {
          "duration": 0.023255813953483084,
          "durationTicks": 2,
          "midi": 59,
          "name": "B3",
          "ticks": 4081,
          "time": 47.45348837209303,
          "velocity": 0.23622047244094488
        },
        {
          "duration": 0.023255813953483084,
          "durationTicks": 2,
          "midi": 70,
          "name": "A#4",
          "ticks": 4081,
          "time": 47.45348837209303,
          "velocity": 0.2992125984251969
        },
        {
          "duration": 0.023255813953483084,
          "durationTicks": 2,
          "midi": 72,
          "name": "C5",
          "ticks": 4081,
          "time": 47.45348837209303,
          "velocity": 0.29133858267716534
        },
        {
          "duration": 0.02325581395349019,
          "durationTicks": 2,
          "midi": 43,
          "name": "G2",
          "ticks": 4083,
          "time": 47.47674418604651,
          "velocity": 0.4409448818897638
        },
        {
          "duration": 0.4186046511627879,
          "durationTicks": 36,
          "midi": 72,
          "name": "C5",
          "ticks": 4084,
          "time": 47.48837209302326,
          "velocity": 0.5275590551181102
        },
        {
          "duration": 0.046511627906973274,
          "durationTicks": 4,
          "midi": 100,
          "name": "E7",
          "ticks": 4084,
          "time": 47.48837209302326,
          "velocity": 0.07874015748031496
        },
        {
          "duration": 0.046511627906973274,
          "durationTicks": 4,
          "midi": 42,
          "name": "F#2",
          "ticks": 4085,
          "time": 47.5,
          "velocity": 0.5669291338582677
        },
        {
          "duration": 0.05813953488372192,
          "durationTicks": 5,
          "midi": 76,
          "name": "E5",
          "ticks": 4087,
          "time": 47.52325581395349,
          "velocity": 0.2204724409448819
        },
        {
          "duration": 0.06976744186046346,
          "durationTicks": 6,
          "midi": 101,
          "name": "F7",
          "ticks": 4087,
          "time": 47.52325581395349,
          "velocity": 0.10236220472440945
        },
        {
          "duration": 0.02325581395349019,
          "durationTicks": 2,
          "midi": 43,
          "name": "G2",
          "ticks": 4089,
          "time": 47.54651162790697,
          "velocity": 0.5354330708661418
        },
        {
          "duration": 0.04651162790698038,
          "durationTicks": 4,
          "midi": 59,
          "name": "B3",
          "ticks": 4089,
          "time": 47.54651162790697,
          "velocity": 0.25984251968503935
        },
        {
          "duration": 0.02325581395349019,
          "durationTicks": 2,
          "midi": 70,
          "name": "A#4",
          "ticks": 4089,
          "time": 47.54651162790697,
          "velocity": 0.30708661417322836
        },
        {
          "duration": 0.04651162790698038,
          "durationTicks": 4,
          "midi": 42,
          "name": "F#2",
          "ticks": 4091,
          "time": 47.56976744186046,
          "velocity": 0.6062992125984252
        },
        {
          "duration": 0.02325581395349019,
          "durationTicks": 2,
          "midi": 53,
          "name": "F3",
          "ticks": 4091,
          "time": 47.56976744186046,
          "velocity": 0.3543307086614173
        },
        {
          "duration": 0.05813953488372192,
          "durationTicks": 5,
          "midi": 100,
          "name": "E7",
          "ticks": 4091,
          "time": 47.56976744186046,
          "velocity": 0.10236220472440945
        },
        {
          "duration": 0.011627906976741542,
          "durationTicks": 1,
          "midi": 43,
          "name": "G2",
          "ticks": 4095,
          "time": 47.616279069767444,
          "velocity": 0.5433070866141733
        },
        {
          "duration": 0.04651162790698038,
          "durationTicks": 4,
          "midi": 42,
          "name": "F#2",
          "ticks": 4096,
          "time": 47.627906976744185,
          "velocity": 0.6220472440944882
        },
        {
          "duration": 0.08139534883721211,
          "durationTicks": 7,
          "midi": 76,
          "name": "E5",
          "ticks": 4096,
          "time": 47.627906976744185,
          "velocity": 0.1968503937007874
        },
        {
          "duration": 0.023255813953483084,
          "durationTicks": 2,
          "midi": 43,
          "name": "G2",
          "ticks": 4100,
          "time": 47.674418604651166,
          "velocity": 0.5669291338582677
        },
        {
          "duration": 0.04651162790698038,
          "durationTicks": 4,
          "midi": 42,
          "name": "F#2",
          "ticks": 4102,
          "time": 47.69767441860465,
          "velocity": 0.6299212598425197
        },
        {
          "duration": 0.04651162790698038,
          "durationTicks": 4,
          "midi": 91,
          "name": "G6",
          "ticks": 4102,
          "time": 47.69767441860465,
          "velocity": 0.08661417322834646
        },
        {
          "duration": 0.12790697674418539,
          "durationTicks": 11,
          "midi": 51,
          "name": "D#3",
          "ticks": 4104,
          "time": 47.72093023255814,
          "velocity": 0.3464566929133858
        },
        {
          "duration": 3.8139534883720927,
          "durationTicks": 328,
          "midi": 59,
          "name": "B3",
          "ticks": 4104,
          "time": 47.72093023255814,
          "velocity": 0.49606299212598426
        },
        {
          "duration": 0.02325581395349019,
          "durationTicks": 2,
          "midi": 43,
          "name": "G2",
          "ticks": 4106,
          "time": 47.74418604651163,
          "velocity": 0.5905511811023622
        },
        {
          "duration": 0.06976744186046346,
          "durationTicks": 6,
          "midi": 76,
          "name": "E5",
          "ticks": 4106,
          "time": 47.74418604651163,
          "velocity": 0.2125984251968504
        },
        {
          "duration": 0.081395348837205,
          "durationTicks": 7,
          "midi": 93,
          "name": "A6",
          "ticks": 4106,
          "time": 47.74418604651163,
          "velocity": 0.11811023622047244
        },
        {
          "duration": 0.3953488372093048,
          "durationTicks": 34,
          "midi": 100,
          "name": "E7",
          "ticks": 4107,
          "time": 47.75581395348837,
          "velocity": 0.15748031496062992
        },
        {
          "duration": 0.046511627906973274,
          "durationTicks": 4,
          "midi": 42,
          "name": "F#2",
          "ticks": 4108,
          "time": 47.76744186046512,
          "velocity": 0.6299212598425197
        },
        {
          "duration": 0.22093023255813904,
          "durationTicks": 19,
          "midi": 91,
          "name": "G6",
          "ticks": 4108,
          "time": 47.76744186046512,
          "velocity": 0.2047244094488189
        },
        {
          "duration": 0.08139534883721211,
          "durationTicks": 7,
          "midi": 85,
          "name": "C#6",
          "ticks": 4110,
          "time": 47.7906976744186,
          "velocity": 0.13385826771653545
        },
        {
          "duration": 0.05813953488372192,
          "durationTicks": 5,
          "midi": 94,
          "name": "A#6",
          "ticks": 4110,
          "time": 47.7906976744186,
          "velocity": 0.14173228346456693
        },
        {
          "duration": 0.13953488372092693,
          "durationTicks": 12,
          "midi": 83,
          "name": "B5",
          "ticks": 4111,
          "time": 47.80232558139535,
          "velocity": 0.2047244094488189
        },
        {
          "duration": 0.11627906976743674,
          "durationTicks": 10,
          "midi": 87,
          "name": "D#6",
          "ticks": 4111,
          "time": 47.80232558139535,
          "velocity": 0.15748031496062992
        },
        {
          "duration": 0.011627906976741542,
          "durationTicks": 1,
          "midi": 43,
          "name": "G2",
          "ticks": 4112,
          "time": 47.81395348837209,
          "velocity": 0.5590551181102362
        },
        {
          "duration": 0.05813953488372192,
          "durationTicks": 5,
          "midi": 42,
          "name": "F#2",
          "ticks": 4113,
          "time": 47.825581395348834,
          "velocity": 0.6220472440944882
        },
        {
          "duration": 0.09302325581395365,
          "durationTicks": 8,
          "midi": 76,
          "name": "E5",
          "ticks": 4114,
          "time": 47.83720930232558,
          "velocity": 0.23622047244094488
        },
        {
          "duration": 0.1046511627906952,
          "durationTicks": 9,
          "midi": 97,
          "name": "C#7",
          "ticks": 4114,
          "time": 47.83720930232558,
          "velocity": 0.16535433070866143
        },
        {
          "duration": 0.011627906976748648,
          "durationTicks": 1,
          "midi": 43,
          "name": "G2",
          "ticks": 4118,
          "time": 47.883720930232556,
          "velocity": 0.5433070866141733
        },
        {
          "duration": 0.02325581395349019,
          "durationTicks": 2,
          "midi": 53,
          "name": "F3",
          "ticks": 4118,
          "time": 47.883720930232556,
          "velocity": 0.36220472440944884
        },
        {
          "duration": 0.046511627906973274,
          "durationTicks": 4,
          "midi": 42,
          "name": "F#2",
          "ticks": 4119,
          "time": 47.895348837209305,
          "velocity": 0.6220472440944882
        },
        {
          "duration": 0.05813953488372192,
          "durationTicks": 5,
          "midi": 85,
          "name": "C#6",
          "ticks": 4119,
          "time": 47.895348837209305,
          "velocity": 0.12598425196850394
        },
        {
          "duration": 0.4418604651162781,
          "durationTicks": 38,
          "midi": 94,
          "name": "A#6",
          "ticks": 4120,
          "time": 47.906976744186046,
          "velocity": 0.28346456692913385
        },
        {
          "duration": 0.02325581395349019,
          "durationTicks": 2,
          "midi": 43,
          "name": "G2",
          "ticks": 4123,
          "time": 47.94186046511628,
          "velocity": 0.5511811023622047
        },
        {
          "duration": 0.02325581395349019,
          "durationTicks": 2,
          "midi": 62,
          "name": "D4",
          "ticks": 4123,
          "time": 47.94186046511628,
          "velocity": 0.3228346456692913
        },
        {
          "duration": 0.06976744186046346,
          "durationTicks": 6,
          "midi": 72,
          "name": "C5",
          "ticks": 4123,
          "time": 47.94186046511628,
          "velocity": 0.4566929133858268
        },
        {
          "duration": 0.1046511627906952,
          "durationTicks": 9,
          "midi": 93,
          "name": "A6",
          "ticks": 4123,
          "time": 47.94186046511628,
          "velocity": 0.2283464566929134
        },
        {
          "duration": 0.09302325581394655,
          "durationTicks": 8,
          "midi": 76,
          "name": "E5",
          "ticks": 4124,
          "time": 47.95348837209303,
          "velocity": 0.2283464566929134
        },
        {
          "duration": 0.05813953488372192,
          "durationTicks": 5,
          "midi": 42,
          "name": "F#2",
          "ticks": 4125,
          "time": 47.96511627906977,
          "velocity": 0.6141732283464567
        },
        {
          "duration": 0.046511627906973274,
          "durationTicks": 4,
          "midi": 63,
          "name": "D#4",
          "ticks": 4125,
          "time": 47.96511627906977,
          "velocity": 0.31496062992125984
        },
        {
          "duration": 0.15116279069767558,
          "durationTicks": 13,
          "midi": 87,
          "name": "D#6",
          "ticks": 4125,
          "time": 47.96511627906977,
          "velocity": 0.13385826771653545
        },
        {
          "duration": 0.046511627906973274,
          "durationTicks": 4,
          "midi": 83,
          "name": "B5",
          "ticks": 4128,
          "time": 48,
          "velocity": 0.10236220472440945
        },
        {
          "duration": 0.639534883720934,
          "durationTicks": 55,
          "midi": 85,
          "name": "C#6",
          "ticks": 4129,
          "time": 48.01162790697674,
          "velocity": 0.2047244094488189
        },
        {
          "duration": 0.011627906976741542,
          "durationTicks": 1,
          "midi": 43,
          "name": "G2",
          "ticks": 4130,
          "time": 48.02325581395349,
          "velocity": 0.5511811023622047
        },
        {
          "duration": 0.04651162790698038,
          "durationTicks": 4,
          "midi": 42,
          "name": "F#2",
          "ticks": 4131,
          "time": 48.03488372093023,
          "velocity": 0.5984251968503937
        },
        {
          "duration": 0.02325581395349019,
          "durationTicks": 2,
          "midi": 51,
          "name": "D#3",
          "ticks": 4131,
          "time": 48.03488372093023,
          "velocity": 0.28346456692913385
        },
        {
          "duration": 0.1046511627907023,
          "durationTicks": 9,
          "midi": 72,
          "name": "C5",
          "ticks": 4132,
          "time": 48.04651162790697,
          "velocity": 0.49606299212598426
        },
        {
          "duration": 0.17441860465115866,
          "durationTicks": 15,
          "midi": 91,
          "name": "G6",
          "ticks": 4133,
          "time": 48.05813953488372,
          "velocity": 0.2204724409448819
        },
        {
          "duration": 0.02325581395349019,
          "durationTicks": 2,
          "midi": 51,
          "name": "D#3",
          "ticks": 4134,
          "time": 48.06976744186046,
          "velocity": 0.29133858267716534
        },
        {
          "duration": 0.27906976744186096,
          "durationTicks": 24,
          "midi": 76,
          "name": "E5",
          "ticks": 4134,
          "time": 48.06976744186046,
          "velocity": 0.2283464566929134
        },
        {
          "duration": 0.03488372093023173,
          "durationTicks": 3,
          "midi": 93,
          "name": "A6",
          "ticks": 4134,
          "time": 48.06976744186046,
          "velocity": 0.11023622047244094
        },
        {
          "duration": 0.011627906976741542,
          "durationTicks": 1,
          "midi": 43,
          "name": "G2",
          "ticks": 4135,
          "time": 48.08139534883721,
          "velocity": 0.5118110236220472
        },
        {
          "duration": 0.05813953488372192,
          "durationTicks": 5,
          "midi": 42,
          "name": "F#2",
          "ticks": 4136,
          "time": 48.093023255813954,
          "velocity": 0.6062992125984252
        },
        {
          "duration": 0.06976744186046346,
          "durationTicks": 6,
          "midi": 51,
          "name": "D#3",
          "ticks": 4138,
          "time": 48.116279069767444,
          "velocity": 0.31496062992125984
        },
        {
          "duration": 0.2093023255813904,
          "durationTicks": 18,
          "midi": 83,
          "name": "B5",
          "ticks": 4138,
          "time": 48.116279069767444,
          "velocity": 0.2283464566929134
        },
        {
          "duration": 0.02325581395349019,
          "durationTicks": 2,
          "midi": 63,
          "name": "D#4",
          "ticks": 4140,
          "time": 48.13953488372093,
          "velocity": 0.33070866141732286
        },
        {
          "duration": 0.011627906976741542,
          "durationTicks": 1,
          "midi": 43,
          "name": "G2",
          "ticks": 4141,
          "time": 48.151162790697676,
          "velocity": 0.5511811023622047
        },
        {
          "duration": 0.04651162790698038,
          "durationTicks": 4,
          "midi": 42,
          "name": "F#2",
          "ticks": 4142,
          "time": 48.16279069767442,
          "velocity": 0.6220472440944882
        },
        {
          "duration": 1.360465116279073,
          "durationTicks": 117,
          "midi": 87,
          "name": "D#6",
          "ticks": 4142,
          "time": 48.16279069767442,
          "velocity": 0.1968503937007874
        },
        {
          "duration": 0.12790697674418539,
          "durationTicks": 11,
          "midi": 63,
          "name": "D#4",
          "ticks": 4143,
          "time": 48.174418604651166,
          "velocity": 0.3543307086614173
        },
        {
          "duration": 0.06976744186046346,
          "durationTicks": 6,
          "midi": 73,
          "name": "C#5",
          "ticks": 4143,
          "time": 48.174418604651166,
          "velocity": 0.4094488188976378
        },
        {
          "duration": 0.09302325581395365,
          "durationTicks": 8,
          "midi": 100,
          "name": "E7",
          "ticks": 4144,
          "time": 48.18604651162791,
          "velocity": 0.2125984251968504
        },
        {
          "duration": 0.08139534883721211,
          "durationTicks": 7,
          "midi": 51,
          "name": "D#3",
          "ticks": 4145,
          "time": 48.19767441860465,
          "velocity": 0.3779527559055118
        },
        {
          "duration": 0.023255813953483084,
          "durationTicks": 2,
          "midi": 43,
          "name": "G2",
          "ticks": 4146,
          "time": 48.2093023255814,
          "velocity": 0.6141732283464567
        },
        {
          "duration": 0.03488372093023173,
          "durationTicks": 3,
          "midi": 93,
          "name": "A6",
          "ticks": 4147,
          "time": 48.22093023255814,
          "velocity": 0.11023622047244094
        },
        {
          "duration": 0.03488372093023884,
          "durationTicks": 3,
          "midi": 42,
          "name": "F#2",
          "ticks": 4148,
          "time": 48.23255813953488,
          "velocity": 0.6535433070866141
        },
        {
          "duration": 0.40697674418604635,
          "durationTicks": 35,
          "midi": 72,
          "name": "C5",
          "ticks": 4149,
          "time": 48.24418604651163,
          "velocity": 0.6062992125984252
        },
        {
          "duration": 0.02325581395349019,
          "durationTicks": 2,
          "midi": 66,
          "name": "F#4",
          "ticks": 4150,
          "time": 48.25581395348837,
          "velocity": 0.2440944881889764
        },
        {
          "duration": 0.13953488372093403,
          "durationTicks": 12,
          "midi": 91,
          "name": "G6",
          "ticks": 4150,
          "time": 48.25581395348837,
          "velocity": 0.25196850393700787
        },
        {
          "duration": 0.023255813953483084,
          "durationTicks": 2,
          "midi": 43,
          "name": "G2",
          "ticks": 4151,
          "time": 48.26744186046512,
          "velocity": 0.6220472440944882
        },
        {
          "duration": 0.046511627906973274,
          "durationTicks": 4,
          "midi": 67,
          "name": "G4",
          "ticks": 4151,
          "time": 48.26744186046512,
          "velocity": 0.2992125984251969
        },
        {
          "duration": 0.04651162790698038,
          "durationTicks": 4,
          "midi": 42,
          "name": "F#2",
          "ticks": 4153,
          "time": 48.2906976744186,
          "velocity": 0.6771653543307087
        },
        {
          "duration": 0.02325581395349019,
          "durationTicks": 2,
          "midi": 51,
          "name": "D#3",
          "ticks": 4153,
          "time": 48.2906976744186,
          "velocity": 0.3937007874015748
        },
        {
          "duration": 1.1162790697674438,
          "durationTicks": 96,
          "midi": 100,
          "name": "E7",
          "ticks": 4153,
          "time": 48.2906976744186,
          "velocity": 0.2992125984251969
        },
        {
          "duration": 0.04651162790698038,
          "durationTicks": 4,
          "midi": 67,
          "name": "G4",
          "ticks": 4156,
          "time": 48.325581395348834,
          "velocity": 0.2283464566929134
        },
        {
          "duration": 0.02325581395349019,
          "durationTicks": 2,
          "midi": 43,
          "name": "G2",
          "ticks": 4157,
          "time": 48.33720930232558,
          "velocity": 0.6456692913385826
        },
        {
          "duration": 0.046511627906973274,
          "durationTicks": 4,
          "midi": 42,
          "name": "F#2",
          "ticks": 4159,
          "time": 48.36046511627907,
          "velocity": 0.6850393700787402
        },
        {
          "duration": 0.023255813953483084,
          "durationTicks": 2,
          "midi": 51,
          "name": "D#3",
          "ticks": 4159,
          "time": 48.36046511627907,
          "velocity": 0.3937007874015748
        },
        {
          "duration": 0.046511627906973274,
          "durationTicks": 4,
          "midi": 70,
          "name": "A#4",
          "ticks": 4159,
          "time": 48.36046511627907,
          "velocity": 0.2204724409448819
        },
        {
          "duration": 0.43023255813953654,
          "durationTicks": 37,
          "midi": 94,
          "name": "A#6",
          "ticks": 4160,
          "time": 48.372093023255815,
          "velocity": 0.2440944881889764
        },
        {
          "duration": 0.02325581395349019,
          "durationTicks": 2,
          "midi": 67,
          "name": "G4",
          "ticks": 4161,
          "time": 48.383720930232556,
          "velocity": 0.2755905511811024
        },
        {
          "duration": 0.3953488372093048,
          "durationTicks": 34,
          "midi": 76,
          "name": "E5",
          "ticks": 4161,
          "time": 48.383720930232556,
          "velocity": 0.23622047244094488
        },
        {
          "duration": 0.04651162790698038,
          "durationTicks": 4,
          "midi": 83,
          "name": "B5",
          "ticks": 4161,
          "time": 48.383720930232556,
          "velocity": 0.2204724409448819
        },
        {
          "duration": 0.023255813953483084,
          "durationTicks": 2,
          "midi": 51,
          "name": "D#3",
          "ticks": 4162,
          "time": 48.395348837209305,
          "velocity": 0.41732283464566927
        },
        {
          "duration": 0.2093023255813904,
          "durationTicks": 18,
          "midi": 93,
          "name": "A6",
          "ticks": 4162,
          "time": 48.395348837209305,
          "velocity": 0.1968503937007874
        },
        {
          "duration": 0.011627906976741542,
          "durationTicks": 1,
          "midi": 43,
          "name": "G2",
          "ticks": 4163,
          "time": 48.406976744186046,
          "velocity": 0.6377952755905512
        },
        {
          "duration": 0.32558139534883423,
          "durationTicks": 28,
          "midi": 66,
          "name": "F#4",
          "ticks": 4163,
          "time": 48.406976744186046,
          "velocity": 0.30708661417322836
        },
        {
          "duration": 0.11627906976744384,
          "durationTicks": 10,
          "midi": 91,
          "name": "G6",
          "ticks": 4163,
          "time": 48.406976744186046,
          "velocity": 0.2125984251968504
        },
        {
          "duration": 0.05813953488372192,
          "durationTicks": 5,
          "midi": 42,
          "name": "F#2",
          "ticks": 4164,
          "time": 48.41860465116279,
          "velocity": 0.6771653543307087
        },
        {
          "duration": 0.02325581395349019,
          "durationTicks": 2,
          "midi": 51,
          "name": "D#3",
          "ticks": 4165,
          "time": 48.43023255813954,
          "velocity": 0.4251968503937008
        },
        {
          "duration": 0.2093023255813975,
          "durationTicks": 18,
          "midi": 51,
          "name": "D#3",
          "ticks": 4168,
          "time": 48.46511627906977,
          "velocity": 0.4330708661417323
        },
        {
          "duration": 0.011627906976748648,
          "durationTicks": 1,
          "midi": 43,
          "name": "G2",
          "ticks": 4169,
          "time": 48.47674418604651,
          "velocity": 0.6299212598425197
        },
        {
          "duration": 0.058139534883714816,
          "durationTicks": 5,
          "midi": 42,
          "name": "F#2",
          "ticks": 4170,
          "time": 48.48837209302326,
          "velocity": 0.6692913385826772
        },
        {
          "duration": 0.05813953488372192,
          "durationTicks": 5,
          "midi": 83,
          "name": "B5",
          "ticks": 4173,
          "time": 48.52325581395349,
          "velocity": 0.1889763779527559
        },
        {
          "duration": 0.011627906976748648,
          "durationTicks": 1,
          "midi": 43,
          "name": "G2",
          "ticks": 4175,
          "time": 48.54651162790697,
          "velocity": 0.6141732283464567
        },
        {
          "duration": 0.046511627906973274,
          "durationTicks": 4,
          "midi": 42,
          "name": "F#2",
          "ticks": 4176,
          "time": 48.55813953488372,
          "velocity": 0.6535433070866141
        },
        {
          "duration": 0.2674418604651194,
          "durationTicks": 23,
          "midi": 83,
          "name": "B5",
          "ticks": 4179,
          "time": 48.593023255813954,
          "velocity": 0.25984251968503935
        },
        {
          "duration": 0.17441860465116577,
          "durationTicks": 15,
          "midi": 91,
          "name": "G6",
          "ticks": 4179,
          "time": 48.593023255813954,
          "velocity": 0.2125984251968504
        },
        {
          "duration": 0.02325581395349019,
          "durationTicks": 2,
          "midi": 43,
          "name": "G2",
          "ticks": 4180,
          "time": 48.604651162790695,
          "velocity": 0.5984251968503937
        },
        {
          "duration": 0.04651162790698038,
          "durationTicks": 4,
          "midi": 42,
          "name": "F#2",
          "ticks": 4182,
          "time": 48.627906976744185,
          "velocity": 0.6377952755905512
        },
        {
          "duration": 0.03488372093023173,
          "durationTicks": 3,
          "midi": 93,
          "name": "A6",
          "ticks": 4182,
          "time": 48.627906976744185,
          "velocity": 0.11023622047244094
        },
        {
          "duration": 0.12790697674418539,
          "durationTicks": 11,
          "midi": 85,
          "name": "C#6",
          "ticks": 4185,
          "time": 48.66279069767442,
          "velocity": 0.1732283464566929
        },
        {
          "duration": 0.023255813953483084,
          "durationTicks": 2,
          "midi": 43,
          "name": "G2",
          "ticks": 4186,
          "time": 48.674418604651166,
          "velocity": 0.5826771653543307
        },
        {
          "duration": 0.17441860465115866,
          "durationTicks": 15,
          "midi": 72,
          "name": "C5",
          "ticks": 4186,
          "time": 48.674418604651166,
          "velocity": 0.5275590551181102
        },
        {
          "duration": 0.02325581395349019,
          "durationTicks": 2,
          "midi": 51,
          "name": "D#3",
          "ticks": 4187,
          "time": 48.68604651162791,
          "velocity": 0.4015748031496063
        },
        {
          "duration": 0.04651162790698038,
          "durationTicks": 4,
          "midi": 42,
          "name": "F#2",
          "ticks": 4188,
          "time": 48.69767441860465,
          "velocity": 0.6141732283464567
        },
        {
          "duration": 0.023255813953483084,
          "durationTicks": 2,
          "midi": 63,
          "name": "D#4",
          "ticks": 4189,
          "time": 48.7093023255814,
          "velocity": 0.30708661417322836
        },
        {
          "duration": 0.02325581395349019,
          "durationTicks": 2,
          "midi": 51,
          "name": "D#3",
          "ticks": 4190,
          "time": 48.72093023255814,
          "velocity": 0.3858267716535433
        },
        {
          "duration": 0.17441860465116577,
          "durationTicks": 15,
          "midi": 93,
          "name": "A6",
          "ticks": 4190,
          "time": 48.72093023255814,
          "velocity": 0.1889763779527559
        },
        {
          "duration": 0.09302325581395365,
          "durationTicks": 8,
          "midi": 63,
          "name": "D#4",
          "ticks": 4192,
          "time": 48.74418604651163,
          "velocity": 0.25984251968503935
        },
        {
          "duration": 0.09302325581395365,
          "durationTicks": 8,
          "midi": 66,
          "name": "F#4",
          "ticks": 4192,
          "time": 48.74418604651163,
          "velocity": 0.2755905511811024
        },
        {
          "duration": 0.05813953488372192,
          "durationTicks": 5,
          "midi": 42,
          "name": "F#2",
          "ticks": 4193,
          "time": 48.75581395348837,
          "velocity": 0.5826771653543307
        },
        {
          "duration": 0.02325581395349019,
          "durationTicks": 2,
          "midi": 51,
          "name": "D#3",
          "ticks": 4193,
          "time": 48.75581395348837,
          "velocity": 0.3779527559055118
        },
        {
          "duration": 0.16279069767441712,
          "durationTicks": 14,
          "midi": 91,
          "name": "G6",
          "ticks": 4195,
          "time": 48.77906976744186,
          "velocity": 0.1889763779527559
        },
        {
          "duration": 0.02325581395349019,
          "durationTicks": 2,
          "midi": 51,
          "name": "D#3",
          "ticks": 4196,
          "time": 48.7906976744186,
          "velocity": 0.3700787401574803
        },
        {
          "duration": 0.06976744186046346,
          "durationTicks": 6,
          "midi": 76,
          "name": "E5",
          "ticks": 4198,
          "time": 48.81395348837209,
          "velocity": 0.2047244094488189
        },
        {
          "duration": 0.04651162790698038,
          "durationTicks": 4,
          "midi": 42,
          "name": "F#2",
          "ticks": 4199,
          "time": 48.825581395348834,
          "velocity": 0.5669291338582677
        },
        {
          "duration": 0.13953488372093403,
          "durationTicks": 12,
          "midi": 51,
          "name": "D#3",
          "ticks": 4199,
          "time": 48.825581395348834,
          "velocity": 0.3779527559055118
        },
        {
          "duration": 0.1046511627906952,
          "durationTicks": 9,
          "midi": 67,
          "name": "G4",
          "ticks": 4200,
          "time": 48.83720930232558,
          "velocity": 0.25984251968503935
        },
        {
          "duration": 0.06976744186046346,
          "durationTicks": 6,
          "midi": 85,
          "name": "C#6",
          "ticks": 4202,
          "time": 48.86046511627907,
          "velocity": 0.18110236220472442
        },
        {
          "duration": 0.02325581395349019,
          "durationTicks": 2,
          "midi": 43,
          "name": "G2",
          "ticks": 4203,
          "time": 48.872093023255815,
          "velocity": 0.5275590551181102
        },
        {
          "duration": 0.09302325581395365,
          "durationTicks": 8,
          "midi": 94,
          "name": "A#6",
          "ticks": 4204,
          "time": 48.883720930232556,
          "velocity": 0.1732283464566929
        },
        {
          "duration": 0.5,
          "durationTicks": 43,
          "midi": 96,
          "name": "C7",
          "ticks": 4204,
          "time": 48.883720930232556,
          "velocity": 0.2677165354330709
        },
        {
          "duration": 0.03488372093023173,
          "durationTicks": 3,
          "midi": 42,
          "name": "F#2",
          "ticks": 4205,
          "time": 48.895348837209305,
          "velocity": 0.5669291338582677
        },
        {
          "duration": 0.11627906976744384,
          "durationTicks": 10,
          "midi": 72,
          "name": "C5",
          "ticks": 4206,
          "time": 48.906976744186046,
          "velocity": 0.5196850393700787
        },
        {
          "duration": 0.06976744186047057,
          "durationTicks": 6,
          "midi": 76,
          "name": "E5",
          "ticks": 4207,
          "time": 48.91860465116279,
          "velocity": 0.2204724409448819
        },
        {
          "duration": 0.13953488372093403,
          "durationTicks": 12,
          "midi": 95,
          "name": "B6",
          "ticks": 4207,
          "time": 48.91860465116279,
          "velocity": 0.1732283464566929
        },
        {
          "duration": 0.02325581395349019,
          "durationTicks": 2,
          "midi": 43,
          "name": "G2",
          "ticks": 4208,
          "time": 48.93023255813954,
          "velocity": 0.5196850393700787
        },
        {
          "duration": 0.11627906976744384,
          "durationTicks": 10,
          "midi": 93,
          "name": "A6",
          "ticks": 4209,
          "time": 48.94186046511628,
          "velocity": 0.1732283464566929
        },
        {
          "duration": 0.046511627906973274,
          "durationTicks": 4,
          "midi": 42,
          "name": "F#2",
          "ticks": 4210,
          "time": 48.95348837209303,
          "velocity": 0.6062992125984252
        },
        {
          "duration": 0.03488372093023173,
          "durationTicks": 3,
          "midi": 67,
          "name": "G4",
          "ticks": 4210,
          "time": 48.95348837209303,
          "velocity": 0.28346456692913385
        },
        {
          "duration": 0.17441860465115866,
          "durationTicks": 15,
          "midi": 63,
          "name": "D#4",
          "ticks": 4211,
          "time": 48.96511627906977,
          "velocity": 0.2283464566929134
        },
        {
          "duration": 0.02325581395349019,
          "durationTicks": 2,
          "midi": 51,
          "name": "D#3",
          "ticks": 4212,
          "time": 48.97674418604651,
          "velocity": 0.33858267716535434
        },
        {
          "duration": 0.1046511627907023,
          "durationTicks": 9,
          "midi": 91,
          "name": "G6",
          "ticks": 4212,
          "time": 48.97674418604651,
          "velocity": 0.13385826771653545
        },
        {
          "duration": 0.06976744186046346,
          "durationTicks": 6,
          "midi": 66,
          "name": "F#4",
          "ticks": 4213,
          "time": 48.98837209302326,
          "velocity": 0.23622047244094488
        },
        {
          "duration": 0.5348837209302317,
          "durationTicks": 46,
          "midi": 83,
          "name": "B5",
          "ticks": 4213,
          "time": 48.98837209302326,
          "velocity": 0.2440944881889764
        },
        {
          "duration": 0.058139534883714816,
          "durationTicks": 5,
          "midi": 85,
          "name": "C#6",
          "ticks": 4213,
          "time": 48.98837209302326,
          "velocity": 0.1889763779527559
        },
        {
          "duration": 0.02325581395349019,
          "durationTicks": 2,
          "midi": 43,
          "name": "G2",
          "ticks": 4214,
          "time": 49,
          "velocity": 0.5826771653543307
        },
        {
          "duration": 0.15116279069767558,
          "durationTicks": 13,
          "midi": 94,
          "name": "A#6",
          "ticks": 4214,
          "time": 49,
          "velocity": 0.18110236220472442
        },
        {
          "duration": 0.08139534883721211,
          "durationTicks": 7,
          "midi": 76,
          "name": "E5",
          "ticks": 4215,
          "time": 49.01162790697674,
          "velocity": 0.1732283464566929
        },
        {
          "duration": 0.046511627906973274,
          "durationTicks": 4,
          "midi": 42,
          "name": "F#2",
          "ticks": 4216,
          "time": 49.02325581395349,
          "velocity": 0.6299212598425197
        },
        {
          "duration": 0.09302325581395365,
          "durationTicks": 8,
          "midi": 84,
          "name": "C6",
          "ticks": 4218,
          "time": 49.04651162790697,
          "velocity": 0.30708661417322836
        },
        {
          "duration": 0.011627906976748648,
          "durationTicks": 1,
          "midi": 43,
          "name": "G2",
          "ticks": 4220,
          "time": 49.06976744186046,
          "velocity": 0.5826771653543307
        },
        {
          "duration": 0.02325581395349019,
          "durationTicks": 2,
          "midi": 53,
          "name": "F3",
          "ticks": 4220,
          "time": 49.06976744186046,
          "velocity": 0.3858267716535433
        },
        {
          "duration": 0.04651162790698038,
          "durationTicks": 4,
          "midi": 67,
          "name": "G4",
          "ticks": 4220,
          "time": 49.06976744186046,
          "velocity": 0.2047244094488189
        },
        {
          "duration": 0.3604651162790731,
          "durationTicks": 31,
          "midi": 72,
          "name": "C5",
          "ticks": 4220,
          "time": 49.06976744186046,
          "velocity": 0.4881889763779528
        },
        {
          "duration": 0.046511627906973274,
          "durationTicks": 4,
          "midi": 42,
          "name": "F#2",
          "ticks": 4221,
          "time": 49.08139534883721,
          "velocity": 0.6535433070866141
        },
        {
          "duration": 0.1046511627906952,
          "durationTicks": 9,
          "midi": 85,
          "name": "C#6",
          "ticks": 4221,
          "time": 49.08139534883721,
          "velocity": 0.1732283464566929
        },
        {
          "duration": 0.03488372093023173,
          "durationTicks": 3,
          "midi": 93,
          "name": "A6",
          "ticks": 4222,
          "time": 49.093023255813954,
          "velocity": 0.14960629921259844
        },
        {
          "duration": 0.081395348837205,
          "durationTicks": 7,
          "midi": 91,
          "name": "G6",
          "ticks": 4224,
          "time": 49.116279069767444,
          "velocity": 0.2125984251968504
        },
        {
          "duration": 0.02325581395349019,
          "durationTicks": 2,
          "midi": 43,
          "name": "G2",
          "ticks": 4225,
          "time": 49.127906976744185,
          "velocity": 0.6141732283464567
        },
        {
          "duration": 0.046511627906973274,
          "durationTicks": 4,
          "midi": 42,
          "name": "F#2",
          "ticks": 4227,
          "time": 49.151162790697676,
          "velocity": 0.6535433070866141
        },
        {
          "duration": 0.081395348837205,
          "durationTicks": 7,
          "midi": 76,
          "name": "E5",
          "ticks": 4227,
          "time": 49.151162790697676,
          "velocity": 0.11023622047244094
        },
        {
          "duration": 0.1046511627906952,
          "durationTicks": 9,
          "midi": 94,
          "name": "A#6",
          "ticks": 4229,
          "time": 49.174418604651166,
          "velocity": 0.16535433070866143
        },
        {
          "duration": 0.1046511627906952,
          "durationTicks": 9,
          "midi": 93,
          "name": "A6",
          "ticks": 4230,
          "time": 49.18604651162791,
          "velocity": 0.15748031496062992
        },
        {
          "duration": 0.011627906976748648,
          "durationTicks": 1,
          "midi": 43,
          "name": "G2",
          "ticks": 4231,
          "time": 49.19767441860465,
          "velocity": 0.5905511811023622
        },
        {
          "duration": 0.2093023255813975,
          "durationTicks": 18,
          "midi": 66,
          "name": "F#4",
          "ticks": 4231,
          "time": 49.19767441860465,
          "velocity": 0.33070866141732286
        },
        {
          "duration": 0.03488372093023173,
          "durationTicks": 3,
          "midi": 85,
          "name": "C#6",
          "ticks": 4231,
          "time": 49.19767441860465,
          "velocity": 0.12598425196850394
        },
        {
          "duration": 0.05813953488372192,
          "durationTicks": 5,
          "midi": 42,
          "name": "F#2",
          "ticks": 4232,
          "time": 49.2093023255814,
          "velocity": 0.6535433070866141
        },
        {
          "duration": 0.011627906976741542,
          "durationTicks": 1,
          "midi": 43,
          "name": "G2",
          "ticks": 4237,
          "time": 49.26744186046512,
          "velocity": 0.5748031496062992
        },
        {
          "duration": 0.05813953488372192,
          "durationTicks": 5,
          "midi": 42,
          "name": "F#2",
          "ticks": 4238,
          "time": 49.27906976744186,
          "velocity": 0.6299212598425197
        },
        {
          "duration": 0.06976744186046346,
          "durationTicks": 6,
          "midi": 76,
          "name": "E5",
          "ticks": 4241,
          "time": 49.31395348837209,
          "velocity": 0.10236220472440945
        },
        {
          "duration": 0.12790697674418539,
          "durationTicks": 11,
          "midi": 85,
          "name": "C#6",
          "ticks": 4241,
          "time": 49.31395348837209,
          "velocity": 0.14960629921259844
        },
        {
          "duration": 0.011627906976741542,
          "durationTicks": 1,
          "midi": 43,
          "name": "G2",
          "ticks": 4243,
          "time": 49.33720930232558,
          "velocity": 0.5433070866141733
        },
        {
          "duration": 0.13953488372092693,
          "durationTicks": 12,
          "midi": 93,
          "name": "A6",
          "ticks": 4243,
          "time": 49.33720930232558,
          "velocity": 0.10236220472440945
        },
        {
          "duration": 0.02325581395349019,
          "durationTicks": 2,
          "midi": 42,
          "name": "F#2",
          "ticks": 4244,
          "time": 49.348837209302324,
          "velocity": 0.6062992125984252
        },
        {
          "duration": 0.011627906976741542,
          "durationTicks": 1,
          "midi": 41,
          "name": "F2",
          "ticks": 4246,
          "time": 49.372093023255815,
          "velocity": 0.5984251968503937
        },
        {
          "duration": 0.011627906976748648,
          "durationTicks": 1,
          "midi": 42,
          "name": "F#2",
          "ticks": 4247,
          "time": 49.383720930232556,
          "velocity": 0.5511811023622047
        },
        {
          "duration": 0.023255813953483084,
          "durationTicks": 2,
          "midi": 43,
          "name": "G2",
          "ticks": 4248,
          "time": 49.395348837209305,
          "velocity": 0.5275590551181102
        },
        {
          "duration": 0.02325581395349019,
          "durationTicks": 2,
          "midi": 53,
          "name": "F3",
          "ticks": 4249,
          "time": 49.406976744186046,
          "velocity": 0.25196850393700787
        },
        {
          "duration": 0.04651162790698038,
          "durationTicks": 4,
          "midi": 42,
          "name": "F#2",
          "ticks": 4250,
          "time": 49.41860465116279,
          "velocity": 0.5905511811023622
        },
        {
          "duration": 0.046511627906973274,
          "durationTicks": 4,
          "midi": 76,
          "name": "E5",
          "ticks": 4253,
          "time": 49.45348837209303,
          "velocity": 0.10236220472440945
        },
        {
          "duration": 0.02325581395349019,
          "durationTicks": 2,
          "midi": 43,
          "name": "G2",
          "ticks": 4254,
          "time": 49.46511627906977,
          "velocity": 0.5196850393700787
        },
        {
          "duration": 0.1046511627906952,
          "durationTicks": 9,
          "midi": 66,
          "name": "F#4",
          "ticks": 4254,
          "time": 49.46511627906977,
          "velocity": 0.30708661417322836
        },
        {
          "duration": 0.046511627906973274,
          "durationTicks": 4,
          "midi": 42,
          "name": "F#2",
          "ticks": 4256,
          "time": 49.48837209302326,
          "velocity": 0.5748031496062992
        },
        {
          "duration": 0.046511627906973274,
          "durationTicks": 4,
          "midi": 72,
          "name": "C5",
          "ticks": 4256,
          "time": 49.48837209302326,
          "velocity": 0.33070866141732286
        },
        {
          "duration": 0.02325581395349019,
          "durationTicks": 2,
          "midi": 43,
          "name": "G2",
          "ticks": 4260,
          "time": 49.53488372093023,
          "velocity": 0.5118110236220472
        },
        {
          "duration": 0.08139534883721211,
          "durationTicks": 7,
          "midi": 83,
          "name": "B5",
          "ticks": 4261,
          "time": 49.54651162790697,
          "velocity": 0.25984251968503935
        },
        {
          "duration": 0.03488372093023173,
          "durationTicks": 3,
          "midi": 42,
          "name": "F#2",
          "ticks": 4262,
          "time": 49.55813953488372,
          "velocity": 0.5511811023622047
        },
        {
          "duration": 0.046511627906973274,
          "durationTicks": 4,
          "midi": 72,
          "name": "C5",
          "ticks": 4264,
          "time": 49.58139534883721,
          "velocity": 0.2047244094488189
        },
        {
          "duration": 0.02325581395349019,
          "durationTicks": 2,
          "midi": 43,
          "name": "G2",
          "ticks": 4265,
          "time": 49.593023255813954,
          "velocity": 0.4566929133858268
        },
        {
          "duration": 0.8139534883720927,
          "durationTicks": 70,
          "midi": 66,
          "name": "F#4",
          "ticks": 4265,
          "time": 49.593023255813954,
          "velocity": 0.3779527559055118
        },
        {
          "duration": 0.011627906976741542,
          "durationTicks": 1,
          "midi": 42,
          "name": "F#2",
          "ticks": 4267,
          "time": 49.616279069767444,
          "velocity": 0.5275590551181102
        },
        {
          "duration": 0.011627906976741542,
          "durationTicks": 1,
          "midi": 41,
          "name": "F2",
          "ticks": 4268,
          "time": 49.627906976744185,
          "velocity": 0.5433070866141733
        },
        {
          "duration": 0.02325581395349019,
          "durationTicks": 2,
          "midi": 42,
          "name": "F#2",
          "ticks": 4269,
          "time": 49.63953488372093,
          "velocity": 0.5118110236220472
        },
        {
          "duration": 0.03488372093023884,
          "durationTicks": 3,
          "midi": 51,
          "name": "D#3",
          "ticks": 4269,
          "time": 49.63953488372093,
          "velocity": 0.1732283464566929
        },
        {
          "duration": 0.02325581395349019,
          "durationTicks": 2,
          "midi": 72,
          "name": "C5",
          "ticks": 4269,
          "time": 49.63953488372093,
          "velocity": 0.2677165354330709
        },
        {
          "duration": 0.05813953488372192,
          "durationTicks": 5,
          "midi": 87,
          "name": "D#6",
          "ticks": 4270,
          "time": 49.651162790697676,
          "velocity": 0.11811023622047244
        },
        {
          "duration": 0.02325581395349019,
          "durationTicks": 2,
          "midi": 43,
          "name": "G2",
          "ticks": 4271,
          "time": 49.66279069767442,
          "velocity": 0.49606299212598426
        },
        {
          "duration": 0.011627906976741542,
          "durationTicks": 1,
          "midi": 42,
          "name": "F#2",
          "ticks": 4273,
          "time": 49.68604651162791,
          "velocity": 0.5354330708661418
        },
        {
          "duration": 0.011627906976748648,
          "durationTicks": 1,
          "midi": 41,
          "name": "F2",
          "ticks": 4274,
          "time": 49.69767441860465,
          "velocity": 0.5433070866141733
        },
        {
          "duration": 0.046511627906973274,
          "durationTicks": 4,
          "midi": 94,
          "name": "A#6",
          "ticks": 4275,
          "time": 49.7093023255814,
          "velocity": 0.09448818897637795
        },
        {
          "duration": 0.02325581395349019,
          "durationTicks": 2,
          "midi": 43,
          "name": "G2",
          "ticks": 4276,
          "time": 49.72093023255814,
          "velocity": 0.48031496062992124
        },
        {
          "duration": 0.05813953488372192,
          "durationTicks": 5,
          "midi": 42,
          "name": "F#2",
          "ticks": 4278,
          "time": 49.74418604651163,
          "velocity": 0.5590551181102362
        },
        {
          "duration": 0.3139534883720927,
          "durationTicks": 27,
          "midi": 85,
          "name": "C#6",
          "ticks": 4278,
          "time": 49.74418604651163,
          "velocity": 0.14173228346456693
        },
        {
          "duration": 0.03488372093023173,
          "durationTicks": 3,
          "midi": 51,
          "name": "D#3",
          "ticks": 4280,
          "time": 49.76744186046512,
          "velocity": 0.2440944881889764
        },
        {
          "duration": 0.011627906976741542,
          "durationTicks": 1,
          "midi": 43,
          "name": "G2",
          "ticks": 4283,
          "time": 49.80232558139535,
          "velocity": 0.5196850393700787
        },
        {
          "duration": 0.04651162790698038,
          "durationTicks": 4,
          "midi": 42,
          "name": "F#2",
          "ticks": 4284,
          "time": 49.81395348837209,
          "velocity": 0.5669291338582677
        },
        {
          "duration": 0.15116279069767558,
          "durationTicks": 13,
          "midi": 51,
          "name": "D#3",
          "ticks": 4284,
          "time": 49.81395348837209,
          "velocity": 0.30708661417322836
        },
        {
          "duration": 0.15116279069767558,
          "durationTicks": 13,
          "midi": 83,
          "name": "B5",
          "ticks": 4284,
          "time": 49.81395348837209,
          "velocity": 0.1968503937007874
        },
        {
          "duration": 0.081395348837205,
          "durationTicks": 7,
          "midi": 90,
          "name": "F#6",
          "ticks": 4286,
          "time": 49.83720930232558,
          "velocity": 0.13385826771653545
        },
        {
          "duration": 0.046511627906973274,
          "durationTicks": 4,
          "midi": 42,
          "name": "F#2",
          "ticks": 4289,
          "time": 49.872093023255815,
          "velocity": 0.5826771653543307
        },
        {
          "duration": 0.02325581395349019,
          "durationTicks": 2,
          "midi": 72,
          "name": "C5",
          "ticks": 4289,
          "time": 49.872093023255815,
          "velocity": 0.2755905511811024
        },
        {
          "duration": 0.02325581395349019,
          "durationTicks": 2,
          "midi": 43,
          "name": "G2",
          "ticks": 4293,
          "time": 49.91860465116279,
          "velocity": 0.5354330708661418
        },
        {
          "duration": 0.04651162790698038,
          "durationTicks": 4,
          "midi": 42,
          "name": "F#2",
          "ticks": 4295,
          "time": 49.94186046511628,
          "velocity": 0.6062992125984252
        },
        {
          "duration": 0.02325581395349019,
          "durationTicks": 2,
          "midi": 72,
          "name": "C5",
          "ticks": 4295,
          "time": 49.94186046511628,
          "velocity": 0.2283464566929134
        },
        {
          "duration": 0.03488372093023173,
          "durationTicks": 3,
          "midi": 99,
          "name": "D#7",
          "ticks": 4297,
          "time": 49.96511627906977,
          "velocity": 0.07874015748031496
        },
        {
          "duration": 0.15116279069767558,
          "durationTicks": 13,
          "midi": 51,
          "name": "D#3",
          "ticks": 4298,
          "time": 49.97674418604651,
          "velocity": 0.30708661417322836
        },
        {
          "duration": 0.023255813953483084,
          "durationTicks": 2,
          "midi": 43,
          "name": "G2",
          "ticks": 4299,
          "time": 49.98837209302326,
          "velocity": 0.5669291338582677
        },
        {
          "duration": 0.04651162790698038,
          "durationTicks": 4,
          "midi": 42,
          "name": "F#2",
          "ticks": 4301,
          "time": 50.01162790697674,
          "velocity": 0.6062992125984252
        },
        {
          "duration": 0.023255813953483084,
          "durationTicks": 2,
          "midi": 72,
          "name": "C5",
          "ticks": 4302,
          "time": 50.02325581395349,
          "velocity": 0.2283464566929134
        },
        {
          "duration": 0.011627906976741542,
          "durationTicks": 1,
          "midi": 43,
          "name": "G2",
          "ticks": 4305,
          "time": 50.05813953488372,
          "velocity": 0.5354330708661418
        },
        {
          "duration": 0.04651162790698038,
          "durationTicks": 4,
          "midi": 42,
          "name": "F#2",
          "ticks": 4306,
          "time": 50.06976744186046,
          "velocity": 0.5905511811023622
        },
        {
          "duration": 0.13953488372093403,
          "durationTicks": 12,
          "midi": 95,
          "name": "B6",
          "ticks": 4306,
          "time": 50.06976744186046,
          "velocity": 0.18110236220472442
        },
        {
          "duration": 0.11627906976744384,
          "durationTicks": 10,
          "midi": 83,
          "name": "B5",
          "ticks": 4308,
          "time": 50.093023255813954,
          "velocity": 0.2204724409448819
        },
        {
          "duration": 0.22093023255813904,
          "durationTicks": 19,
          "midi": 85,
          "name": "C#6",
          "ticks": 4309,
          "time": 50.104651162790695,
          "velocity": 0.07874015748031496
        },
        {
          "duration": 0.023255813953483084,
          "durationTicks": 2,
          "midi": 43,
          "name": "G2",
          "ticks": 4310,
          "time": 50.116279069767444,
          "velocity": 0.5275590551181102
        },
        {
          "duration": 0.04651162790698038,
          "durationTicks": 4,
          "midi": 42,
          "name": "F#2",
          "ticks": 4312,
          "time": 50.13953488372093,
          "velocity": 0.5826771653543307
        },
        {
          "duration": 0.08139534883721211,
          "durationTicks": 7,
          "midi": 51,
          "name": "D#3",
          "ticks": 4312,
          "time": 50.13953488372093,
          "velocity": 0.2992125984251969
        },
        {
          "duration": 0.02325581395349019,
          "durationTicks": 2,
          "midi": 43,
          "name": "G2",
          "ticks": 4316,
          "time": 50.18604651162791,
          "velocity": 0.5275590551181102
        },
        {
          "duration": 0.046511627906973274,
          "durationTicks": 4,
          "midi": 42,
          "name": "F#2",
          "ticks": 4318,
          "time": 50.2093023255814,
          "velocity": 0.5590551181102362
        },
        {
          "duration": 0.08139534883721211,
          "durationTicks": 7,
          "midi": 51,
          "name": "D#3",
          "ticks": 4320,
          "time": 50.23255813953488,
          "velocity": 0.30708661417322836
        },
        {
          "duration": 0.05813953488372192,
          "durationTicks": 5,
          "midi": 95,
          "name": "B6",
          "ticks": 4320,
          "time": 50.23255813953488,
          "velocity": 0.08661417322834646
        },
        {
          "duration": 0.046511627906973274,
          "durationTicks": 4,
          "midi": 42,
          "name": "F#2",
          "ticks": 4323,
          "time": 50.26744186046512,
          "velocity": 0.5511811023622047
        },
        {
          "duration": 0.02325581395349019,
          "durationTicks": 2,
          "midi": 43,
          "name": "G2",
          "ticks": 4327,
          "time": 50.31395348837209,
          "velocity": 0.5118110236220472
        },
        {
          "duration": 0.6162790697674438,
          "durationTicks": 53,
          "midi": 51,
          "name": "D#3",
          "ticks": 4328,
          "time": 50.325581395348834,
          "velocity": 0.2992125984251969
        },
        {
          "duration": 0.046511627906973274,
          "durationTicks": 4,
          "midi": 42,
          "name": "F#2",
          "ticks": 4329,
          "time": 50.33720930232558,
          "velocity": 0.5511811023622047
        },
        {
          "duration": 0.046511627906973274,
          "durationTicks": 4,
          "midi": 42,
          "name": "F#2",
          "ticks": 4334,
          "time": 50.395348837209305,
          "velocity": 0.5433070866141733
        },
        {
          "duration": 0.02325581395349019,
          "durationTicks": 2,
          "midi": 43,
          "name": "G2",
          "ticks": 4338,
          "time": 50.44186046511628,
          "velocity": 0.49606299212598426
        },
        {
          "duration": 0.046511627906973274,
          "durationTicks": 4,
          "midi": 42,
          "name": "F#2",
          "ticks": 4340,
          "time": 50.46511627906977,
          "velocity": 0.5354330708661418
        },
        {
          "duration": 0.30232558139534405,
          "durationTicks": 26,
          "midi": 66,
          "name": "F#4",
          "ticks": 4342,
          "time": 50.48837209302326,
          "velocity": 0.2440944881889764
        },
        {
          "duration": 0.03488372093023173,
          "durationTicks": 3,
          "midi": 95,
          "name": "B6",
          "ticks": 4342,
          "time": 50.48837209302326,
          "velocity": 0.07874015748031496
        },
        {
          "duration": 0.046511627906973274,
          "durationTicks": 4,
          "midi": 42,
          "name": "F#2",
          "ticks": 4345,
          "time": 50.52325581395349,
          "velocity": 0.5354330708661418
        },
        {
          "duration": 0.5581395348837219,
          "durationTicks": 48,
          "midi": 63,
          "name": "D#4",
          "ticks": 4345,
          "time": 50.52325581395349,
          "velocity": 0.3543307086614173
        },
        {
          "duration": 0.02325581395349019,
          "durationTicks": 2,
          "midi": 43,
          "name": "G2",
          "ticks": 4349,
          "time": 50.56976744186046,
          "velocity": 0.4881889763779528
        },
        {
          "duration": 0.046511627906973274,
          "durationTicks": 4,
          "midi": 42,
          "name": "F#2",
          "ticks": 4351,
          "time": 50.593023255813954,
          "velocity": 0.5196850393700787
        },
        {
          "duration": 0.03488372093023173,
          "durationTicks": 3,
          "midi": 95,
          "name": "B6",
          "ticks": 4352,
          "time": 50.604651162790695,
          "velocity": 0.13385826771653545
        },
        {
          "duration": 0.046511627906973274,
          "durationTicks": 4,
          "midi": 42,
          "name": "F#2",
          "ticks": 4356,
          "time": 50.651162790697676,
          "velocity": 0.49606299212598426
        },
        {
          "duration": 0.046511627906973274,
          "durationTicks": 4,
          "midi": 42,
          "name": "F#2",
          "ticks": 4361,
          "time": 50.7093023255814,
          "velocity": 0.4645669291338583
        },
        {
          "duration": 0.02325581395349019,
          "durationTicks": 2,
          "midi": 43,
          "name": "G2",
          "ticks": 4365,
          "time": 50.75581395348837,
          "velocity": 0.41732283464566927
        },
        {
          "duration": 0.03488372093023173,
          "durationTicks": 3,
          "midi": 42,
          "name": "F#2",
          "ticks": 4367,
          "time": 50.77906976744186,
          "velocity": 0.4566929133858268
        },
        {
          "duration": 0.02325581395349019,
          "durationTicks": 2,
          "midi": 43,
          "name": "G2",
          "ticks": 4370,
          "time": 50.81395348837209,
          "velocity": 0.4015748031496063
        },
        {
          "duration": 0.046511627906973274,
          "durationTicks": 4,
          "midi": 42,
          "name": "F#2",
          "ticks": 4372,
          "time": 50.83720930232558,
          "velocity": 0.4409448818897638
        },
        {
          "duration": 0.11627906976744384,
          "durationTicks": 10,
          "midi": 66,
          "name": "F#4",
          "ticks": 4373,
          "time": 50.848837209302324,
          "velocity": 0.14960629921259844
        },
        {
          "duration": 0.02325581395349019,
          "durationTicks": 2,
          "midi": 41,
          "name": "F2",
          "ticks": 4378,
          "time": 50.906976744186046,
          "velocity": 0.4015748031496063
        },
        {
          "duration": 0.40697674418604635,
          "durationTicks": 35,
          "midi": 51,
          "name": "D#3",
          "ticks": 4382,
          "time": 50.95348837209303,
          "velocity": 0.2677165354330709
        },
        {
          "duration": 0.03488372093023173,
          "durationTicks": 3,
          "midi": 41,
          "name": "F2",
          "ticks": 4383,
          "time": 50.96511627906977,
          "velocity": 0.3464566929133858
        },
        {
          "duration": 0.1046511627907023,
          "durationTicks": 9,
          "midi": 66,
          "name": "F#4",
          "ticks": 4387,
          "time": 51.01162790697674,
          "velocity": 0.2125984251968504
        },
        {
          "duration": 0.023255813953483084,
          "durationTicks": 2,
          "midi": 41,
          "name": "F2",
          "ticks": 4388,
          "time": 51.02325581395349,
          "velocity": 0.2992125984251969
        },
        {
          "duration": 0.03488372093023173,
          "durationTicks": 3,
          "midi": 40,
          "name": "E2",
          "ticks": 4394,
          "time": 51.093023255813954,
          "velocity": 0.2677165354330709
        },
        {
          "duration": 0.03488372093023173,
          "durationTicks": 3,
          "midi": 39,
          "name": "D#2",
          "ticks": 4397,
          "time": 51.127906976744185,
          "velocity": 0.2283464566929134
        },
        {
          "duration": 0.03488372093023173,
          "durationTicks": 3,
          "midi": 40,
          "name": "E2",
          "ticks": 4400,
          "time": 51.16279069767442,
          "velocity": 0.2755905511811024
        },
        {
          "duration": 0.03488372093023173,
          "durationTicks": 3,
          "midi": 66,
          "name": "F#4",
          "ticks": 4400,
          "time": 51.16279069767442,
          "velocity": 0.07874015748031496
        },
        {
          "duration": 0.023255813953483084,
          "durationTicks": 2,
          "midi": 38,
          "name": "D2",
          "ticks": 4404,
          "time": 51.2093023255814,
          "velocity": 0.23622047244094488
        },
        {
          "duration": 0.03488372093023884,
          "durationTicks": 3,
          "midi": 40,
          "name": "E2",
          "ticks": 4406,
          "time": 51.23255813953488,
          "velocity": 0.33070866141732286
        },
        {
          "duration": 0.03488372093023173,
          "durationTicks": 3,
          "midi": 40,
          "name": "E2",
          "ticks": 4412,
          "time": 51.30232558139535,
          "velocity": 0.33070866141732286
        },
        {
          "duration": 0.03488372093023173,
          "durationTicks": 3,
          "midi": 40,
          "name": "E2",
          "ticks": 4417,
          "time": 51.36046511627907,
          "velocity": 0.2677165354330709
        },
        {
          "duration": 0.08139534883721211,
          "durationTicks": 7,
          "midi": 51,
          "name": "D#3",
          "ticks": 4418,
          "time": 51.372093023255815,
          "velocity": 0.25196850393700787
        },
        {
          "duration": 0.05813953488372192,
          "durationTicks": 5,
          "midi": 39,
          "name": "D#2",
          "ticks": 4420,
          "time": 51.395348837209305,
          "velocity": 0.16535433070866143
        },
        {
          "duration": 0.03488372093023173,
          "durationTicks": 3,
          "midi": 66,
          "name": "F#4",
          "ticks": 4420,
          "time": 51.395348837209305,
          "velocity": 0.10236220472440945
        },
        {
          "duration": 0.06976744186046346,
          "durationTicks": 6,
          "midi": 63,
          "name": "D#4",
          "ticks": 4425,
          "time": 51.45348837209303,
          "velocity": 0.16535433070866143
        },
        {
          "duration": 0.03488372093023173,
          "durationTicks": 3,
          "midi": 39,
          "name": "D#2",
          "ticks": 4426,
          "time": 51.46511627906977,
          "velocity": 0.08661417322834646
        },
        {
          "duration": 0.06976744186046346,
          "durationTicks": 6,
          "midi": 51,
          "name": "D#3",
          "ticks": 4427,
          "time": 51.47674418604651,
          "velocity": 0.5511811023622047
        },
        {
          "duration": 0.06976744186046346,
          "durationTicks": 6,
          "midi": 66,
          "name": "F#4",
          "ticks": 4429,
          "time": 51.5,
          "velocity": 0.16535433070866143
        },
        {
          "duration": 0.02325581395349019,
          "durationTicks": 2,
          "midi": 52,
          "name": "E3",
          "ticks": 4433,
          "time": 51.54651162790697,
          "velocity": 0.41732283464566927
        },
        {
          "duration": 0.17441860465116577,
          "durationTicks": 15,
          "midi": 59,
          "name": "B3",
          "ticks": 4433,
          "time": 51.54651162790697,
          "velocity": 0.31496062992125984
        },
        {
          "duration": 0.05813953488372192,
          "durationTicks": 5,
          "midi": 63,
          "name": "D#4",
          "ticks": 4434,
          "time": 51.55813953488372,
          "velocity": 0.15748031496062992
        },
        {
          "duration": 0.02325581395349019,
          "durationTicks": 2,
          "midi": 51,
          "name": "D#3",
          "ticks": 4435,
          "time": 51.56976744186046,
          "velocity": 0.4566929133858268
        },
        {
          "duration": 0.08139534883721211,
          "durationTicks": 7,
          "midi": 52,
          "name": "E3",
          "ticks": 4437,
          "time": 51.593023255813954,
          "velocity": 0.44881889763779526
        },
        {
          "duration": 0.02325581395349019,
          "durationTicks": 2,
          "midi": 51,
          "name": "D#3",
          "ticks": 4449,
          "time": 51.73255813953488,
          "velocity": 0.3700787401574803
        },
        {
          "duration": 0.4534883720930267,
          "durationTicks": 39,
          "midi": 64,
          "name": "E4",
          "ticks": 4449,
          "time": 51.73255813953488,
          "velocity": 0.5590551181102362
        },
        {
          "duration": 0.023255813953483084,
          "durationTicks": 2,
          "midi": 53,
          "name": "F3",
          "ticks": 4452,
          "time": 51.76744186046512,
          "velocity": 0.30708661417322836
        },
        {
          "duration": 0.05813953488372192,
          "durationTicks": 5,
          "midi": 52,
          "name": "E3",
          "ticks": 4454,
          "time": 51.7906976744186,
          "velocity": 0.3228346456692913
        },
        {
          "duration": 0.03488372093023173,
          "durationTicks": 3,
          "midi": 41,
          "name": "F2",
          "ticks": 4456,
          "time": 51.81395348837209,
          "velocity": 0.2440944881889764
        },
        {
          "duration": 0.04651162790698038,
          "durationTicks": 4,
          "midi": 71,
          "name": "B4",
          "ticks": 4456,
          "time": 51.81395348837209,
          "velocity": 0.07874015748031496
        },
        {
          "duration": 1.2674418604651123,
          "durationTicks": 109,
          "midi": 67,
          "name": "G4",
          "ticks": 4458,
          "time": 51.83720930232558,
          "velocity": 0.41732283464566927
        },
        {
          "duration": 0.17441860465116577,
          "durationTicks": 15,
          "midi": 95,
          "name": "B6",
          "ticks": 4462,
          "time": 51.883720930232556,
          "velocity": 0.11811023622047244
        },
        {
          "duration": 0.05813953488372192,
          "durationTicks": 5,
          "midi": 52,
          "name": "E3",
          "ticks": 4465,
          "time": 51.91860465116279,
          "velocity": 0.3228346456692913
        },
        {
          "duration": 2.5348837209302317,
          "durationTicks": 218,
          "midi": 59,
          "name": "B3",
          "ticks": 4470,
          "time": 51.97674418604651,
          "velocity": 0.5275590551181102
        },
        {
          "duration": 1.279069767441861,
          "durationTicks": 110,
          "midi": 52,
          "name": "E3",
          "ticks": 4471,
          "time": 51.98837209302326,
          "velocity": 0.4330708661417323
        },
        {
          "duration": 0.046511627906973274,
          "durationTicks": 4,
          "midi": 41,
          "name": "F2",
          "ticks": 4477,
          "time": 52.05813953488372,
          "velocity": 0.2283464566929134
        },
        {
          "duration": 0.8488372093023315,
          "durationTicks": 73,
          "midi": 95,
          "name": "B6",
          "ticks": 4481,
          "time": 52.104651162790695,
          "velocity": 0.2204724409448819
        },
        {
          "duration": 0.05813953488372192,
          "durationTicks": 5,
          "midi": 40,
          "name": "E2",
          "ticks": 4483,
          "time": 52.127906976744185,
          "velocity": 0.2283464566929134
        },
        {
          "duration": 0.05813953488372192,
          "durationTicks": 5,
          "midi": 63,
          "name": "D#4",
          "ticks": 4489,
          "time": 52.19767441860465,
          "velocity": 0.14960629921259844
        },
        {
          "duration": 0.02325581395349019,
          "durationTicks": 2,
          "midi": 41,
          "name": "F2",
          "ticks": 4493,
          "time": 52.24418604651163,
          "velocity": 0.25196850393700787
        },
        {
          "duration": 1.860465116279066,
          "durationTicks": 160,
          "midi": 76,
          "name": "E5",
          "ticks": 4493,
          "time": 52.24418604651163,
          "velocity": 0.30708661417322836
        },
        {
          "duration": 0.058139534883714816,
          "durationTicks": 5,
          "midi": 40,
          "name": "E2",
          "ticks": 4495,
          "time": 52.26744186046512,
          "velocity": 0.2047244094488189
        },
        {
          "duration": 0.02325581395349019,
          "durationTicks": 2,
          "midi": 41,
          "name": "F2",
          "ticks": 4502,
          "time": 52.348837209302324,
          "velocity": 0.2440944881889764
        },
        {
          "duration": 0.1860465116279073,
          "durationTicks": 16,
          "midi": 78,
          "name": "F#5",
          "ticks": 4506,
          "time": 52.395348837209305,
          "velocity": 0.14173228346456693
        },
        {
          "duration": 0.08139534883721211,
          "durationTicks": 7,
          "midi": 40,
          "name": "E2",
          "ticks": 4507,
          "time": 52.406976744186046,
          "velocity": 0.23622047244094488
        },
        {
          "duration": 0.046511627906973274,
          "durationTicks": 4,
          "midi": 98,
          "name": "D7",
          "ticks": 4509,
          "time": 52.43023255813954,
          "velocity": 0.07086614173228346
        },
        {
          "duration": 0.15116279069767558,
          "durationTicks": 13,
          "midi": 40,
          "name": "E2",
          "ticks": 4516,
          "time": 52.51162790697674,
          "velocity": 0.25196850393700787
        },
        {
          "duration": 0.1860465116279073,
          "durationTicks": 16,
          "midi": 78,
          "name": "F#5",
          "ticks": 4525,
          "time": 52.616279069767444,
          "velocity": 0.16535433070866143
        },
        {
          "duration": 0.046511627906973274,
          "durationTicks": 4,
          "midi": 40,
          "name": "E2",
          "ticks": 4530,
          "time": 52.674418604651166,
          "velocity": 0.2204724409448819
        },
        {
          "duration": 4.279069767441861,
          "durationTicks": 368,
          "midi": 40,
          "name": "E2",
          "ticks": 4535,
          "time": 52.73255813953488,
          "velocity": 0.48031496062992124
        },
        {
          "duration": 0.03488372093023884,
          "durationTicks": 3,
          "midi": 86,
          "name": "D6",
          "ticks": 4543,
          "time": 52.825581395348834,
          "velocity": 0.08661417322834646
        },
        {
          "duration": 0.38372093023256326,
          "durationTicks": 33,
          "midi": 78,
          "name": "F#5",
          "ticks": 4548,
          "time": 52.883720930232556,
          "velocity": 0.2047244094488189
        },
        {
          "duration": 0.09302325581395365,
          "durationTicks": 8,
          "midi": 86,
          "name": "D6",
          "ticks": 4553,
          "time": 52.94186046511628,
          "velocity": 0.15748031496062992
        },
        {
          "duration": 0.058139534883714816,
          "durationTicks": 5,
          "midi": 95,
          "name": "B6",
          "ticks": 4557,
          "time": 52.98837209302326,
          "velocity": 0.13385826771653545
        },
        {
          "duration": 1.7325581395348806,
          "durationTicks": 149,
          "midi": 95,
          "name": "B6",
          "ticks": 4563,
          "time": 53.05813953488372,
          "velocity": 0.3779527559055118
        },
        {
          "duration": 0.19767441860464885,
          "durationTicks": 17,
          "midi": 91,
          "name": "G6",
          "ticks": 4566,
          "time": 53.093023255813954,
          "velocity": 0.14173228346456693
        },
        {
          "duration": 0.2674418604651123,
          "durationTicks": 23,
          "midi": 67,
          "name": "G4",
          "ticks": 4568,
          "time": 53.116279069767444,
          "velocity": 0.4566929133858268
        },
        {
          "duration": 0.06976744186046346,
          "durationTicks": 6,
          "midi": 86,
          "name": "D6",
          "ticks": 4569,
          "time": 53.127906976744185,
          "velocity": 0.09448818897637795
        },
        {
          "duration": 0.046511627906973274,
          "durationTicks": 4,
          "midi": 98,
          "name": "D7",
          "ticks": 4573,
          "time": 53.174418604651166,
          "velocity": 0.12598425196850394
        },
        {
          "duration": 0.40697674418604635,
          "durationTicks": 35,
          "midi": 64,
          "name": "E4",
          "ticks": 4581,
          "time": 53.26744186046512,
          "velocity": 0.3543307086614173
        },
        {
          "duration": 0.11627906976744384,
          "durationTicks": 10,
          "midi": 78,
          "name": "F#5",
          "ticks": 4582,
          "time": 53.27906976744186,
          "velocity": 0.2047244094488189
        },
        {
          "duration": 0.16279069767441712,
          "durationTicks": 14,
          "midi": 86,
          "name": "D6",
          "ticks": 4584,
          "time": 53.30232558139535,
          "velocity": 0.14960629921259844
        },
        {
          "duration": 5.081395348837212,
          "durationTicks": 437,
          "midi": 52,
          "name": "E3",
          "ticks": 4586,
          "time": 53.325581395348834,
          "velocity": 0.5039370078740157
        },
        {
          "duration": 0.13953488372092693,
          "durationTicks": 12,
          "midi": 67,
          "name": "G4",
          "ticks": 4592,
          "time": 53.395348837209305,
          "velocity": 0.33070866141732286
        },
        {
          "duration": 0.08139534883721211,
          "durationTicks": 7,
          "midi": 92,
          "name": "G#6",
          "ticks": 4593,
          "time": 53.406976744186046,
          "velocity": 0.11811023622047244
        },
        {
          "duration": 0.081395348837205,
          "durationTicks": 7,
          "midi": 98,
          "name": "D7",
          "ticks": 4598,
          "time": 53.46511627906977,
          "velocity": 0.14960629921259844
        },
        {
          "duration": 0.24418604651162212,
          "durationTicks": 21,
          "midi": 74,
          "name": "D5",
          "ticks": 4600,
          "time": 53.48837209302326,
          "velocity": 0.12598425196850394
        },
        {
          "duration": 0.03488372093023173,
          "durationTicks": 3,
          "midi": 86,
          "name": "D6",
          "ticks": 4601,
          "time": 53.5,
          "velocity": 0.18110236220472442
        },
        {
          "duration": 0.1860465116279073,
          "durationTicks": 16,
          "midi": 78,
          "name": "F#5",
          "ticks": 4602,
          "time": 53.51162790697674,
          "velocity": 0.1968503937007874
        },
        {
          "duration": 0.03488372093023884,
          "durationTicks": 3,
          "midi": 82,
          "name": "A#5",
          "ticks": 4605,
          "time": 53.54651162790697,
          "velocity": 0.09448818897637795
        },
        {
          "duration": 0.06976744186046346,
          "durationTicks": 6,
          "midi": 67,
          "name": "G4",
          "ticks": 4606,
          "time": 53.55813953488372,
          "velocity": 0.33858267716535434
        },
        {
          "duration": 0.1046511627906952,
          "durationTicks": 9,
          "midi": 86,
          "name": "D6",
          "ticks": 4606,
          "time": 53.55813953488372,
          "velocity": 0.1732283464566929
        },
        {
          "duration": 0.15116279069767558,
          "durationTicks": 13,
          "midi": 88,
          "name": "E6",
          "ticks": 4606,
          "time": 53.55813953488372,
          "velocity": 0.31496062992125984
        },
        {
          "duration": 0.2674418604651123,
          "durationTicks": 23,
          "midi": 91,
          "name": "G6",
          "ticks": 4606,
          "time": 53.55813953488372,
          "velocity": 0.23622047244094488
        },
        {
          "duration": 0.058139534883714816,
          "durationTicks": 5,
          "midi": 81,
          "name": "A5",
          "ticks": 4608,
          "time": 53.58139534883721,
          "velocity": 0.10236220472440945
        },
        {
          "duration": 0.02325581395349019,
          "durationTicks": 2,
          "midi": 67,
          "name": "G4",
          "ticks": 4614,
          "time": 53.651162790697676,
          "velocity": 0.25984251968503935
        },
        {
          "duration": 0.03488372093023173,
          "durationTicks": 3,
          "midi": 67,
          "name": "G4",
          "ticks": 4617,
          "time": 53.68604651162791,
          "velocity": 0.33858267716535434
        },
        {
          "duration": 0.09302325581395365,
          "durationTicks": 8,
          "midi": 98,
          "name": "D7",
          "ticks": 4619,
          "time": 53.7093023255814,
          "velocity": 0.11811023622047244
        },
        {
          "duration": 0.09302325581395365,
          "durationTicks": 8,
          "midi": 68,
          "name": "G#4",
          "ticks": 4621,
          "time": 53.73255813953488,
          "velocity": 0.3543307086614173
        },
        {
          "duration": 0.5930232558139537,
          "durationTicks": 51,
          "midi": 78,
          "name": "F#5",
          "ticks": 4622,
          "time": 53.74418604651163,
          "velocity": 0.2755905511811024
        },
        {
          "duration": 0.3953488372092977,
          "durationTicks": 34,
          "midi": 88,
          "name": "E6",
          "ticks": 4622,
          "time": 53.74418604651163,
          "velocity": 0.36220472440944884
        },
        {
          "duration": 0.046511627906973274,
          "durationTicks": 4,
          "midi": 92,
          "name": "G#6",
          "ticks": 4625,
          "time": 53.77906976744186,
          "velocity": 0.13385826771653545
        },
        {
          "duration": 0.12790697674418539,
          "durationTicks": 11,
          "midi": 67,
          "name": "G4",
          "ticks": 4628,
          "time": 53.81395348837209,
          "velocity": 0.47244094488188976
        },
        {
          "duration": 0.046511627906973274,
          "durationTicks": 4,
          "midi": 98,
          "name": "D7",
          "ticks": 4630,
          "time": 53.83720930232558,
          "velocity": 0.08661417322834646
        },
        {
          "duration": 0.03488372093023173,
          "durationTicks": 3,
          "midi": 92,
          "name": "G#6",
          "ticks": 4631,
          "time": 53.848837209302324,
          "velocity": 0.08661417322834646
        },
        {
          "duration": 0.11627906976744384,
          "durationTicks": 10,
          "midi": 93,
          "name": "A6",
          "ticks": 4631,
          "time": 53.848837209302324,
          "velocity": 0.11811023622047244
        },
        {
          "duration": 0.04651162790698038,
          "durationTicks": 4,
          "midi": 86,
          "name": "D6",
          "ticks": 4634,
          "time": 53.883720930232556,
          "velocity": 0.1889763779527559
        },
        {
          "duration": 0.09302325581395365,
          "durationTicks": 8,
          "midi": 91,
          "name": "G6",
          "ticks": 4635,
          "time": 53.895348837209305,
          "velocity": 0.11811023622047244
        },
        {
          "duration": 0.03488372093023173,
          "durationTicks": 3,
          "midi": 92,
          "name": "G#6",
          "ticks": 4636,
          "time": 53.906976744186046,
          "velocity": 0.13385826771653545
        },
        {
          "duration": 0.05813953488372192,
          "durationTicks": 5,
          "midi": 68,
          "name": "G#4",
          "ticks": 4638,
          "time": 53.93023255813954,
          "velocity": 0.3464566929133858
        },
        {
          "duration": 0.32558139534883423,
          "durationTicks": 28,
          "midi": 98,
          "name": "D7",
          "ticks": 4638,
          "time": 53.93023255813954,
          "velocity": 0.28346456692913385
        },
        {
          "duration": 0.25581395348837077,
          "durationTicks": 22,
          "midi": 67,
          "name": "G4",
          "ticks": 4642,
          "time": 53.97674418604651,
          "velocity": 0.47244094488188976
        },
        {
          "duration": 0.05813953488372192,
          "durationTicks": 5,
          "midi": 87,
          "name": "D#6",
          "ticks": 4642,
          "time": 53.97674418604651,
          "velocity": 0.15748031496062992
        },
        {
          "duration": 1.6744186046511587,
          "durationTicks": 144,
          "midi": 74,
          "name": "D5",
          "ticks": 4643,
          "time": 53.98837209302326,
          "velocity": 0.23622047244094488
        },
        {
          "duration": 0.05813953488372192,
          "durationTicks": 5,
          "midi": 91,
          "name": "G6",
          "ticks": 4644,
          "time": 54,
          "velocity": 0.14173228346456693
        },
        {
          "duration": 0.05813953488372192,
          "durationTicks": 5,
          "midi": 92,
          "name": "G#6",
          "ticks": 4648,
          "time": 54.04651162790697,
          "velocity": 0.13385826771653545
        },
        {
          "duration": 0.15116279069767558,
          "durationTicks": 13,
          "midi": 93,
          "name": "A6",
          "ticks": 4648,
          "time": 54.04651162790697,
          "velocity": 0.1732283464566929
        },
        {
          "duration": 0.05813953488372192,
          "durationTicks": 5,
          "midi": 101,
          "name": "F7",
          "ticks": 4648,
          "time": 54.04651162790697,
          "velocity": 0.10236220472440945
        },
        {
          "duration": 0.12790697674418539,
          "durationTicks": 11,
          "midi": 87,
          "name": "D#6",
          "ticks": 4651,
          "time": 54.08139534883721,
          "velocity": 0.16535433070866143
        },
        {
          "duration": 0.9186046511627879,
          "durationTicks": 79,
          "midi": 76,
          "name": "E5",
          "ticks": 4654,
          "time": 54.116279069767444,
          "velocity": 0.4015748031496063
        },
        {
          "duration": 0.15116279069767558,
          "durationTicks": 13,
          "midi": 91,
          "name": "G6",
          "ticks": 4654,
          "time": 54.116279069767444,
          "velocity": 0.2204724409448819
        },
        {
          "duration": 0.04651162790698038,
          "durationTicks": 4,
          "midi": 92,
          "name": "G#6",
          "ticks": 4658,
          "time": 54.16279069767442,
          "velocity": 0.1889763779527559
        },
        {
          "duration": 1.8720930232558146,
          "durationTicks": 161,
          "midi": 64,
          "name": "E4",
          "ticks": 4661,
          "time": 54.19767441860465,
          "velocity": 0.5039370078740157
        },
        {
          "duration": 0.5581395348837219,
          "durationTicks": 48,
          "midi": 67,
          "name": "G4",
          "ticks": 4665,
          "time": 54.24418604651163,
          "velocity": 0.4094488188976378
        },
        {
          "duration": 0.9186046511627879,
          "durationTicks": 79,
          "midi": 98,
          "name": "D7",
          "ticks": 4667,
          "time": 54.26744186046512,
          "velocity": 0.28346456692913385
        },
        {
          "duration": 0.13953488372092693,
          "durationTicks": 12,
          "midi": 93,
          "name": "A6",
          "ticks": 4668,
          "time": 54.27906976744186,
          "velocity": 0.11811023622047244
        },
        {
          "duration": 0.03488372093023173,
          "durationTicks": 3,
          "midi": 91,
          "name": "G6",
          "ticks": 4669,
          "time": 54.2906976744186,
          "velocity": 0.16535433070866143
        },
        {
          "duration": 0.046511627906973274,
          "durationTicks": 4,
          "midi": 101,
          "name": "F7",
          "ticks": 4673,
          "time": 54.33720930232558,
          "velocity": 0.07086614173228346
        },
        {
          "duration": 1.3837209302325562,
          "durationTicks": 119,
          "midi": 78,
          "name": "F#5",
          "ticks": 4674,
          "time": 54.348837209302324,
          "velocity": 0.3543307086614173
        },
        {
          "duration": 0.3372093023255829,
          "durationTicks": 29,
          "midi": 91,
          "name": "G6",
          "ticks": 4674,
          "time": 54.348837209302324,
          "velocity": 0.28346456692913385
        },
        {
          "duration": 0.06976744186046346,
          "durationTicks": 6,
          "midi": 92,
          "name": "G#6",
          "ticks": 4674,
          "time": 54.348837209302324,
          "velocity": 0.18110236220472442
        },
        {
          "duration": 0.06976744186046346,
          "durationTicks": 6,
          "midi": 87,
          "name": "D#6",
          "ticks": 4682,
          "time": 54.44186046511628,
          "velocity": 0.23622047244094488
        },
        {
          "duration": 0.03488372093023173,
          "durationTicks": 3,
          "midi": 92,
          "name": "G#6",
          "ticks": 4684,
          "time": 54.46511627906977,
          "velocity": 0.14173228346456693
        },
        {
          "duration": 0.03488372093023173,
          "durationTicks": 3,
          "midi": 101,
          "name": "F7",
          "ticks": 4684,
          "time": 54.46511627906977,
          "velocity": 0.09448818897637795
        },
        {
          "duration": 1.3255813953488342,
          "durationTicks": 114,
          "midi": 59,
          "name": "B3",
          "ticks": 4689,
          "time": 54.52325581395349,
          "velocity": 0.5433070866141733
        },
        {
          "duration": 0.03488372093023173,
          "durationTicks": 3,
          "midi": 92,
          "name": "G#6",
          "ticks": 4689,
          "time": 54.52325581395349,
          "velocity": 0.10236220472440945
        },
        {
          "duration": 0.13953488372093403,
          "durationTicks": 12,
          "midi": 93,
          "name": "A6",
          "ticks": 4690,
          "time": 54.53488372093023,
          "velocity": 0.15748031496062992
        },
        {
          "duration": 0.06976744186047057,
          "durationTicks": 6,
          "midi": 101,
          "name": "F7",
          "ticks": 4691,
          "time": 54.54651162790697,
          "velocity": 0.11023622047244094
        },
        {
          "duration": 0.11627906976744384,
          "durationTicks": 10,
          "midi": 87,
          "name": "D#6",
          "ticks": 4692,
          "time": 54.55813953488372,
          "velocity": 0.18110236220472442
        },
        {
          "duration": 0.24418604651162923,
          "durationTicks": 21,
          "midi": 92,
          "name": "G#6",
          "ticks": 4693,
          "time": 54.56976744186046,
          "velocity": 0.2047244094488189
        },
        {
          "duration": 0.2674418604651194,
          "durationTicks": 23,
          "midi": 86,
          "name": "D6",
          "ticks": 4696,
          "time": 54.604651162790695,
          "velocity": 0.2755905511811024
        },
        {
          "duration": 0.03488372093023173,
          "durationTicks": 3,
          "midi": 100,
          "name": "E7",
          "ticks": 4697,
          "time": 54.616279069767444,
          "velocity": 0.07874015748031496
        },
        {
          "duration": 0.03488372093023173,
          "durationTicks": 3,
          "midi": 82,
          "name": "A#5",
          "ticks": 4698,
          "time": 54.627906976744185,
          "velocity": 0.11811023622047244
        },
        {
          "duration": 0.03488372093023173,
          "durationTicks": 3,
          "midi": 81,
          "name": "A5",
          "ticks": 4701,
          "time": 54.66279069767442,
          "velocity": 0.08661417322834646
        },
        {
          "duration": 0.5813953488372121,
          "durationTicks": 50,
          "midi": 93,
          "name": "A6",
          "ticks": 4703,
          "time": 54.68604651162791,
          "velocity": 0.25984251968503935
        },
        {
          "duration": 0.046511627906973274,
          "durationTicks": 4,
          "midi": 87,
          "name": "D#6",
          "ticks": 4708,
          "time": 54.74418604651163,
          "velocity": 0.15748031496062992
        },
        {
          "duration": 0.11627906976743674,
          "durationTicks": 10,
          "midi": 91,
          "name": "G6",
          "ticks": 4710,
          "time": 54.76744186046512,
          "velocity": 0.1889763779527559
        },
        {
          "duration": 0.06976744186047057,
          "durationTicks": 6,
          "midi": 80,
          "name": "G#5",
          "ticks": 4712,
          "time": 54.7906976744186,
          "velocity": 0.10236220472440945
        },
        {
          "duration": 1.1627906976744171,
          "durationTicks": 100,
          "midi": 95,
          "name": "B6",
          "ticks": 4713,
          "time": 54.80232558139535,
          "velocity": 0.3464566929133858
        },
        {
          "duration": 0.1279069767441925,
          "durationTicks": 11,
          "midi": 67,
          "name": "G4",
          "ticks": 4715,
          "time": 54.825581395348834,
          "velocity": 0.4015748031496063
        },
        {
          "duration": 0.05813953488372192,
          "durationTicks": 5,
          "midi": 80,
          "name": "G#5",
          "ticks": 4721,
          "time": 54.895348837209305,
          "velocity": 0.11023622047244094
        },
        {
          "duration": 0.12790697674418539,
          "durationTicks": 11,
          "midi": 92,
          "name": "G#6",
          "ticks": 4721,
          "time": 54.895348837209305,
          "velocity": 0.18110236220472442
        },
        {
          "duration": 0.08139534883721211,
          "durationTicks": 7,
          "midi": 91,
          "name": "G6",
          "ticks": 4722,
          "time": 54.906976744186046,
          "velocity": 0.16535433070866143
        },
        {
          "duration": 0.03488372093023173,
          "durationTicks": 3,
          "midi": 81,
          "name": "A5",
          "ticks": 4724,
          "time": 54.93023255813954,
          "velocity": 0.10236220472440945
        },
        {
          "duration": 0.046511627906973274,
          "durationTicks": 4,
          "midi": 101,
          "name": "F7",
          "ticks": 4724,
          "time": 54.93023255813954,
          "velocity": 0.07086614173228346
        },
        {
          "duration": 0.11627906976744384,
          "durationTicks": 10,
          "midi": 87,
          "name": "D#6",
          "ticks": 4725,
          "time": 54.94186046511628,
          "velocity": 0.2047244094488189
        },
        {
          "duration": 0.081395348837205,
          "durationTicks": 7,
          "midi": 68,
          "name": "G#4",
          "ticks": 4726,
          "time": 54.95348837209303,
          "velocity": 0.4094488188976378
        },
        {
          "duration": 0.05813953488372192,
          "durationTicks": 5,
          "midi": 82,
          "name": "A#5",
          "ticks": 4727,
          "time": 54.96511627906977,
          "velocity": 0.12598425196850394
        },
        {
          "duration": 0.08139534883721211,
          "durationTicks": 7,
          "midi": 91,
          "name": "G6",
          "ticks": 4731,
          "time": 55.01162790697674,
          "velocity": 0.2283464566929134
        },
        {
          "duration": 0.17441860465116577,
          "durationTicks": 15,
          "midi": 67,
          "name": "G4",
          "ticks": 4733,
          "time": 55.03488372093023,
          "velocity": 0.49606299212598426
        },
        {
          "duration": 0.03488372093023173,
          "durationTicks": 3,
          "midi": 80,
          "name": "G#5",
          "ticks": 4733,
          "time": 55.03488372093023,
          "velocity": 0.07874015748031496
        },
        {
          "duration": 0.03488372093023884,
          "durationTicks": 3,
          "midi": 92,
          "name": "G#6",
          "ticks": 4734,
          "time": 55.04651162790697,
          "velocity": 0.07874015748031496
        },
        {
          "duration": 0.05813953488372192,
          "durationTicks": 5,
          "midi": 101,
          "name": "F7",
          "ticks": 4734,
          "time": 55.04651162790697,
          "velocity": 0.12598425196850394
        },
        {
          "duration": 0.17441860465116577,
          "durationTicks": 15,
          "midi": 87,
          "name": "D#6",
          "ticks": 4736,
          "time": 55.06976744186046,
          "velocity": 0.2125984251968504
        },
        {
          "duration": 0.03488372093023173,
          "durationTicks": 3,
          "midi": 91,
          "name": "G6",
          "ticks": 4740,
          "time": 55.116279069767444,
          "velocity": 0.09448818897637795
        },
        {
          "duration": 0.16279069767441712,
          "durationTicks": 14,
          "midi": 92,
          "name": "G#6",
          "ticks": 4740,
          "time": 55.116279069767444,
          "velocity": 0.1732283464566929
        },
        {
          "duration": 0.06976744186046346,
          "durationTicks": 6,
          "midi": 101,
          "name": "F7",
          "ticks": 4743,
          "time": 55.151162790697676,
          "velocity": 0.09448818897637795
        },
        {
          "duration": 0.04651162790698038,
          "durationTicks": 4,
          "midi": 91,
          "name": "G6",
          "ticks": 4747,
          "time": 55.19767441860465,
          "velocity": 0.2283464566929134
        },
        {
          "duration": 0.25581395348837077,
          "durationTicks": 22,
          "midi": 68,
          "name": "G#4",
          "ticks": 4748,
          "time": 55.2093023255814,
          "velocity": 0.4330708661417323
        },
        {
          "duration": 0.15116279069766847,
          "durationTicks": 13,
          "midi": 91,
          "name": "G6",
          "ticks": 4753,
          "time": 55.26744186046512,
          "velocity": 0.12598425196850394
        },
        {
          "duration": 0.046511627906973274,
          "durationTicks": 4,
          "midi": 82,
          "name": "A#5",
          "ticks": 4754,
          "time": 55.27906976744186,
          "velocity": 0.11023622047244094
        },
        {
          "duration": 0.22093023255813904,
          "durationTicks": 19,
          "midi": 93,
          "name": "A6",
          "ticks": 4754,
          "time": 55.27906976744186,
          "velocity": 0.25196850393700787
        },
        {
          "duration": 0.05813953488372192,
          "durationTicks": 5,
          "midi": 92,
          "name": "G#6",
          "ticks": 4756,
          "time": 55.30232558139535,
          "velocity": 0.07874015748031496
        },
        {
          "duration": 0.12790697674418539,
          "durationTicks": 11,
          "midi": 98,
          "name": "D7",
          "ticks": 4756,
          "time": 55.30232558139535,
          "velocity": 0.2047244094488189
        },
        {
          "duration": 0.03488372093023173,
          "durationTicks": 3,
          "midi": 101,
          "name": "F7",
          "ticks": 4759,
          "time": 55.33720930232558,
          "velocity": 0.14173228346456693
        },
        {
          "duration": 0.04651162790698038,
          "durationTicks": 4,
          "midi": 82,
          "name": "A#5",
          "ticks": 4760,
          "time": 55.348837209302324,
          "velocity": 0.09448818897637795
        },
        {
          "duration": 0.3604651162790731,
          "durationTicks": 31,
          "midi": 87,
          "name": "D#6",
          "ticks": 4760,
          "time": 55.348837209302324,
          "velocity": 0.25196850393700787
        },
        {
          "duration": 0.11627906976743674,
          "durationTicks": 10,
          "midi": 92,
          "name": "G#6",
          "ticks": 4764,
          "time": 55.395348837209305,
          "velocity": 0.2047244094488189
        },
        {
          "duration": 0.09302325581395365,
          "durationTicks": 8,
          "midi": 101,
          "name": "F7",
          "ticks": 4767,
          "time": 55.43023255813954,
          "velocity": 0.12598425196850394
        },
        {
          "duration": 0.5,
          "durationTicks": 43,
          "midi": 98,
          "name": "D7",
          "ticks": 4769,
          "time": 55.45348837209303,
          "velocity": 0.31496062992125984
        },
        {
          "duration": 0.3488372093023244,
          "durationTicks": 30,
          "midi": 67,
          "name": "G4",
          "ticks": 4770,
          "time": 55.46511627906977,
          "velocity": 0.4330708661417323
        },
        {
          "duration": 0.15116279069766847,
          "durationTicks": 13,
          "midi": 91,
          "name": "G6",
          "ticks": 4772,
          "time": 55.48837209302326,
          "velocity": 0.2204724409448819
        },
        {
          "duration": 0.04651162790698038,
          "durationTicks": 4,
          "midi": 93,
          "name": "A6",
          "ticks": 4774,
          "time": 55.51162790697674,
          "velocity": 0.18110236220472442
        },
        {
          "duration": 0.11627906976744384,
          "durationTicks": 10,
          "midi": 92,
          "name": "G#6",
          "ticks": 4776,
          "time": 55.53488372093023,
          "velocity": 0.15748031496062992
        },
        {
          "duration": 0.03488372093023173,
          "durationTicks": 3,
          "midi": 101,
          "name": "F7",
          "ticks": 4778,
          "time": 55.55813953488372,
          "velocity": 0.12598425196850394
        },
        {
          "duration": 0.03488372093023173,
          "durationTicks": 3,
          "midi": 81,
          "name": "A5",
          "ticks": 4782,
          "time": 55.604651162790695,
          "velocity": 0.07086614173228346
        },
        {
          "duration": 0.11627906976744384,
          "durationTicks": 10,
          "midi": 101,
          "name": "F7",
          "ticks": 4784,
          "time": 55.627906976744185,
          "velocity": 0.13385826771653545
        },
        {
          "duration": 0.08139534883721211,
          "durationTicks": 7,
          "midi": 93,
          "name": "A6",
          "ticks": 4785,
          "time": 55.63953488372093,
          "velocity": 0.1968503937007874
        },
        {
          "duration": 0.04651162790698038,
          "durationTicks": 4,
          "midi": 81,
          "name": "A5",
          "ticks": 4787,
          "time": 55.66279069767442,
          "velocity": 0.09448818897637795
        },
        {
          "duration": 0.081395348837205,
          "durationTicks": 7,
          "midi": 92,
          "name": "G#6",
          "ticks": 4788,
          "time": 55.674418604651166,
          "velocity": 0.1889763779527559
        },
        {
          "duration": 0.09302325581395365,
          "durationTicks": 8,
          "midi": 91,
          "name": "G6",
          "ticks": 4790,
          "time": 55.69767441860465,
          "velocity": 0.2047244094488189
        },
        {
          "duration": 0.03488372093023173,
          "durationTicks": 3,
          "midi": 82,
          "name": "A#5",
          "ticks": 4791,
          "time": 55.7093023255814,
          "velocity": 0.08661417322834646
        },
        {
          "duration": 0.06976744186046346,
          "durationTicks": 6,
          "midi": 87,
          "name": "D#6",
          "ticks": 4792,
          "time": 55.72093023255814,
          "velocity": 0.12598425196850394
        },
        {
          "duration": 0.13953488372092693,
          "durationTicks": 12,
          "midi": 93,
          "name": "A6",
          "ticks": 4794,
          "time": 55.74418604651163,
          "velocity": 0.18110236220472442
        },
        {
          "duration": 0.081395348837205,
          "durationTicks": 7,
          "midi": 90,
          "name": "F#6",
          "ticks": 4799,
          "time": 55.80232558139535,
          "velocity": 0.07086614173228346
        },
        {
          "duration": 0.09302325581395365,
          "durationTicks": 8,
          "midi": 68,
          "name": "G#4",
          "ticks": 4800,
          "time": 55.81395348837209,
          "velocity": 0.3700787401574803
        },
        {
          "duration": 0.03488372093023173,
          "durationTicks": 3,
          "midi": 58,
          "name": "A#3",
          "ticks": 4803,
          "time": 55.848837209302324,
          "velocity": 0.25196850393700787
        },
        {
          "duration": 0.43023255813953654,
          "durationTicks": 37,
          "midi": 85,
          "name": "C#6",
          "ticks": 4803,
          "time": 55.848837209302324,
          "velocity": 0.2047244094488189
        },
        {
          "duration": 0.11627906976744384,
          "durationTicks": 10,
          "midi": 78,
          "name": "F#5",
          "ticks": 4805,
          "time": 55.872093023255815,
          "velocity": 0.2204724409448819
        },
        {
          "duration": 3.9651162790697683,
          "durationTicks": 341,
          "midi": 59,
          "name": "B3",
          "ticks": 4806,
          "time": 55.883720930232556,
          "velocity": 0.5118110236220472
        },
        {
          "duration": 0.05813953488372192,
          "durationTicks": 5,
          "midi": 87,
          "name": "D#6",
          "ticks": 4808,
          "time": 55.906976744186046,
          "velocity": 0.08661417322834646
        },
        {
          "duration": 0.06976744186046346,
          "durationTicks": 6,
          "midi": 93,
          "name": "A6",
          "ticks": 4808,
          "time": 55.906976744186046,
          "velocity": 0.14173228346456693
        },
        {
          "duration": 0.04651162790698038,
          "durationTicks": 4,
          "midi": 68,
          "name": "G#4",
          "ticks": 4809,
          "time": 55.91860465116279,
          "velocity": 0.3700787401574803
        },
        {
          "duration": 0.09302325581395365,
          "durationTicks": 8,
          "midi": 92,
          "name": "G#6",
          "ticks": 4809,
          "time": 55.91860465116279,
          "velocity": 0.2047244094488189
        },
        {
          "duration": 0.3372093023255829,
          "durationTicks": 29,
          "midi": 74,
          "name": "D5",
          "ticks": 4813,
          "time": 55.96511627906977,
          "velocity": 0.12598425196850394
        },
        {
          "duration": 0.023255813953483084,
          "durationTicks": 2,
          "midi": 68,
          "name": "G#4",
          "ticks": 4815,
          "time": 55.98837209302326,
          "velocity": 0.3779527559055118
        },
        {
          "duration": 0.12790697674418539,
          "durationTicks": 11,
          "midi": 83,
          "name": "B5",
          "ticks": 4815,
          "time": 55.98837209302326,
          "velocity": 0.1732283464566929
        },
        {
          "duration": 0.023255813953483084,
          "durationTicks": 2,
          "midi": 66,
          "name": "F#4",
          "ticks": 4818,
          "time": 56.02325581395349,
          "velocity": 0.4094488188976378
        },
        {
          "duration": 0.5348837209302317,
          "durationTicks": 46,
          "midi": 90,
          "name": "F#6",
          "ticks": 4818,
          "time": 56.02325581395349,
          "velocity": 0.23622047244094488
        },
        {
          "duration": 1.2674418604651194,
          "durationTicks": 109,
          "midi": 87,
          "name": "D#6",
          "ticks": 4819,
          "time": 56.03488372093023,
          "velocity": 0.2204724409448819
        },
        {
          "duration": 0.03488372093023173,
          "durationTicks": 3,
          "midi": 92,
          "name": "G#6",
          "ticks": 4819,
          "time": 56.03488372093023,
          "velocity": 0.08661417322834646
        },
        {
          "duration": 0.04651162790698038,
          "durationTicks": 4,
          "midi": 94,
          "name": "A#6",
          "ticks": 4819,
          "time": 56.03488372093023,
          "velocity": 0.08661417322834646
        },
        {
          "duration": 0.03488372093023173,
          "durationTicks": 3,
          "midi": 66,
          "name": "F#4",
          "ticks": 4822,
          "time": 56.06976744186046,
          "velocity": 0.3858267716535433
        },
        {
          "duration": 0.03488372093023173,
          "durationTicks": 3,
          "midi": 98,
          "name": "D7",
          "ticks": 4822,
          "time": 56.06976744186046,
          "velocity": 0.08661417322834646
        },
        {
          "duration": 0.02325581395349019,
          "durationTicks": 2,
          "midi": 68,
          "name": "G#4",
          "ticks": 4824,
          "time": 56.093023255813954,
          "velocity": 0.3779527559055118
        },
        {
          "duration": 0.16279069767442422,
          "durationTicks": 14,
          "midi": 92,
          "name": "G#6",
          "ticks": 4825,
          "time": 56.104651162790695,
          "velocity": 0.16535433070866143
        },
        {
          "duration": 0.03488372093023884,
          "durationTicks": 3,
          "midi": 68,
          "name": "G#4",
          "ticks": 4828,
          "time": 56.13953488372093,
          "velocity": 0.3779527559055118
        },
        {
          "duration": 0.06976744186047057,
          "durationTicks": 6,
          "midi": 83,
          "name": "B5",
          "ticks": 4828,
          "time": 56.13953488372093,
          "velocity": 0.2047244094488189
        },
        {
          "duration": 0.03488372093023884,
          "durationTicks": 3,
          "midi": 94,
          "name": "A#6",
          "ticks": 4828,
          "time": 56.13953488372093,
          "velocity": 0.07086614173228346
        },
        {
          "duration": 0.5581395348837219,
          "durationTicks": 48,
          "midi": 95,
          "name": "B6",
          "ticks": 4829,
          "time": 56.151162790697676,
          "velocity": 0.25984251968503935
        },
        {
          "duration": 0.03488372093023173,
          "durationTicks": 3,
          "midi": 66,
          "name": "F#4",
          "ticks": 4831,
          "time": 56.174418604651166,
          "velocity": 0.3464566929133858
        },
        {
          "duration": 0.02325581395349019,
          "durationTicks": 2,
          "midi": 68,
          "name": "G#4",
          "ticks": 4833,
          "time": 56.19767441860465,
          "velocity": 0.3543307086614173
        },
        {
          "duration": 0.12790697674418539,
          "durationTicks": 11,
          "midi": 94,
          "name": "A#6",
          "ticks": 4833,
          "time": 56.19767441860465,
          "velocity": 0.1732283464566929
        },
        {
          "duration": 0.11627906976743674,
          "durationTicks": 10,
          "midi": 93,
          "name": "A6",
          "ticks": 4834,
          "time": 56.2093023255814,
          "velocity": 0.13385826771653545
        },
        {
          "duration": 0.08139534883721211,
          "durationTicks": 7,
          "midi": 76,
          "name": "E5",
          "ticks": 4836,
          "time": 56.23255813953488,
          "velocity": 0.14960629921259844
        },
        {
          "duration": 0.3139534883720927,
          "durationTicks": 27,
          "midi": 66,
          "name": "F#4",
          "ticks": 4838,
          "time": 56.25581395348837,
          "velocity": 0.4094488188976378
        },
        {
          "duration": 0.19767441860465595,
          "durationTicks": 17,
          "midi": 88,
          "name": "E6",
          "ticks": 4838,
          "time": 56.25581395348837,
          "velocity": 0.2204724409448819
        },
        {
          "duration": 0.03488372093023173,
          "durationTicks": 3,
          "midi": 98,
          "name": "D7",
          "ticks": 4841,
          "time": 56.2906976744186,
          "velocity": 0.08661417322834646
        },
        {
          "duration": 0.23255813953488058,
          "durationTicks": 20,
          "midi": 92,
          "name": "G#6",
          "ticks": 4842,
          "time": 56.30232558139535,
          "velocity": 0.13385826771653545
        },
        {
          "duration": 0.1860465116279073,
          "durationTicks": 16,
          "midi": 100,
          "name": "E7",
          "ticks": 4843,
          "time": 56.31395348837209,
          "velocity": 0.2204724409448819
        },
        {
          "duration": 0.2674418604651123,
          "durationTicks": 23,
          "midi": 85,
          "name": "C#6",
          "ticks": 4845,
          "time": 56.33720930232558,
          "velocity": 0.29133858267716534
        },
        {
          "duration": 1.418604651162795,
          "durationTicks": 122,
          "midi": 76,
          "name": "E5",
          "ticks": 4846,
          "time": 56.348837209302324,
          "velocity": 0.2677165354330709
        },
        {
          "duration": 0.13953488372092693,
          "durationTicks": 12,
          "midi": 94,
          "name": "A#6",
          "ticks": 4847,
          "time": 56.36046511627907,
          "velocity": 0.16535433070866143
        },
        {
          "duration": 0.23255813953488058,
          "durationTicks": 20,
          "midi": 93,
          "name": "A6",
          "ticks": 4851,
          "time": 56.406976744186046,
          "velocity": 0.18110236220472442
        },
        {
          "duration": 0.9302325581395365,
          "durationTicks": 80,
          "midi": 97,
          "name": "C#7",
          "ticks": 4860,
          "time": 56.51162790697674,
          "velocity": 0.3228346456692913
        },
        {
          "duration": 0.5465116279069733,
          "durationTicks": 47,
          "midi": 100,
          "name": "E7",
          "ticks": 4861,
          "time": 56.52325581395349,
          "velocity": 0.25196850393700787
        },
        {
          "duration": 0.7441860465116292,
          "durationTicks": 64,
          "midi": 94,
          "name": "A#6",
          "ticks": 4868,
          "time": 56.604651162790695,
          "velocity": 0.29133858267716534
        },
        {
          "duration": 0.25581395348837077,
          "durationTicks": 22,
          "midi": 85,
          "name": "C#6",
          "ticks": 4870,
          "time": 56.627906976744185,
          "velocity": 0.23622047244094488
        },
        {
          "duration": 0.25581395348837077,
          "durationTicks": 22,
          "midi": 74,
          "name": "D5",
          "ticks": 4873,
          "time": 56.66279069767442,
          "velocity": 0.10236220472440945
        },
        {
          "duration": 0.08139534883721211,
          "durationTicks": 7,
          "midi": 93,
          "name": "A6",
          "ticks": 4878,
          "time": 56.72093023255814,
          "velocity": 0.14960629921259844
        },
        {
          "duration": 1.2674418604651194,
          "durationTicks": 109,
          "midi": 85,
          "name": "C#6",
          "ticks": 4894,
          "time": 56.906976744186046,
          "velocity": 0.33070866141732286
        },
        {
          "duration": 0.12790697674418539,
          "durationTicks": 11,
          "midi": 66,
          "name": "F#4",
          "ticks": 4895,
          "time": 56.91860465116279,
          "velocity": 0.41732283464566927
        },
        {
          "duration": 0.081395348837205,
          "durationTicks": 7,
          "midi": 93,
          "name": "A6",
          "ticks": 4898,
          "time": 56.95348837209303,
          "velocity": 0.13385826771653545
        },
        {
          "duration": 0.03488372093023173,
          "durationTicks": 3,
          "midi": 92,
          "name": "G#6",
          "ticks": 4900,
          "time": 56.97674418604651,
          "velocity": 0.07086614173228346
        },
        {
          "duration": 0.2906976744186025,
          "durationTicks": 25,
          "midi": 40,
          "name": "E2",
          "ticks": 4904,
          "time": 57.02325581395349,
          "velocity": 0.2125984251968504
        },
        {
          "duration": 0.03488372093023173,
          "durationTicks": 3,
          "midi": 68,
          "name": "G#4",
          "ticks": 4910,
          "time": 57.093023255813954,
          "velocity": 0.1732283464566929
        },
        {
          "duration": 0.7441860465116292,
          "durationTicks": 64,
          "midi": 66,
          "name": "F#4",
          "ticks": 4915,
          "time": 57.151162790697676,
          "velocity": 0.3858267716535433
        },
        {
          "duration": 0.03488372093023173,
          "durationTicks": 3,
          "midi": 92,
          "name": "G#6",
          "ticks": 4917,
          "time": 57.174418604651166,
          "velocity": 0.07086614173228346
        },
        {
          "duration": 0.05813953488372192,
          "durationTicks": 5,
          "midi": 93,
          "name": "A6",
          "ticks": 4921,
          "time": 57.22093023255814,
          "velocity": 0.12598425196850394
        },
        {
          "duration": 0.09302325581395365,
          "durationTicks": 8,
          "midi": 100,
          "name": "E7",
          "ticks": 4923,
          "time": 57.24418604651163,
          "velocity": 0.25196850393700787
        },
        {
          "duration": 0.08139534883721211,
          "durationTicks": 7,
          "midi": 95,
          "name": "B6",
          "ticks": 4924,
          "time": 57.25581395348837,
          "velocity": 0.2125984251968504
        },
        {
          "duration": 1.1744186046511658,
          "durationTicks": 101,
          "midi": 40,
          "name": "E2",
          "ticks": 4930,
          "time": 57.325581395348834,
          "velocity": 0.2047244094488189
        },
        {
          "duration": 0.40697674418604635,
          "durationTicks": 35,
          "midi": 87,
          "name": "D#6",
          "ticks": 4931,
          "time": 57.33720930232558,
          "velocity": 0.14173228346456693
        },
        {
          "duration": 0.05813953488372192,
          "durationTicks": 5,
          "midi": 99,
          "name": "D#7",
          "ticks": 4932,
          "time": 57.348837209302324,
          "velocity": 0.1732283464566929
        },
        {
          "duration": 0.09302325581395365,
          "durationTicks": 8,
          "midi": 95,
          "name": "B6",
          "ticks": 4933,
          "time": 57.36046511627907,
          "velocity": 0.14173228346456693
        },
        {
          "duration": 0.06976744186046346,
          "durationTicks": 6,
          "midi": 92,
          "name": "G#6",
          "ticks": 4936,
          "time": 57.395348837209305,
          "velocity": 0.07086614173228346
        },
        {
          "duration": 0.12790697674418539,
          "durationTicks": 11,
          "midi": 100,
          "name": "E7",
          "ticks": 4938,
          "time": 57.41860465116279,
          "velocity": 0.2204724409448819
        },
        {
          "duration": 0.2093023255813904,
          "durationTicks": 18,
          "midi": 94,
          "name": "A#6",
          "ticks": 4941,
          "time": 57.45348837209303,
          "velocity": 0.2047244094488189
        },
        {
          "duration": 0.09302325581395365,
          "durationTicks": 8,
          "midi": 100,
          "name": "E7",
          "ticks": 4958,
          "time": 57.651162790697676,
          "velocity": 0.2677165354330709
        },
        {
          "duration": 0.03488372093023173,
          "durationTicks": 3,
          "midi": 94,
          "name": "A#6",
          "ticks": 4968,
          "time": 57.76744186046512,
          "velocity": 0.07874015748031496
        },
        {
          "duration": 0.04651162790698038,
          "durationTicks": 4,
          "midi": 87,
          "name": "D#6",
          "ticks": 4972,
          "time": 57.81395348837209,
          "velocity": 0.08661417322834646
        },
        {
          "duration": 0.03488372093023173,
          "durationTicks": 3,
          "midi": 68,
          "name": "G#4",
          "ticks": 4977,
          "time": 57.872093023255815,
          "velocity": 0.10236220472440945
        },
        {
          "duration": 0.04651162790698038,
          "durationTicks": 4,
          "midi": 94,
          "name": "A#6",
          "ticks": 4978,
          "time": 57.883720930232556,
          "velocity": 0.13385826771653545
        },
        {
          "duration": 0.06976744186047057,
          "durationTicks": 6,
          "midi": 68,
          "name": "G#4",
          "ticks": 4981,
          "time": 57.91860465116279,
          "velocity": 0.11023622047244094
        },
        {
          "duration": 0.4418604651162781,
          "durationTicks": 38,
          "midi": 78,
          "name": "F#5",
          "ticks": 4983,
          "time": 57.94186046511628,
          "velocity": 0.28346456692913385
        },
        {
          "duration": 0.2906976744186025,
          "durationTicks": 25,
          "midi": 88,
          "name": "E6",
          "ticks": 4984,
          "time": 57.95348837209303,
          "velocity": 0.18110236220472442
        },
        {
          "duration": 0.046511627906973274,
          "durationTicks": 4,
          "midi": 66,
          "name": "F#4",
          "ticks": 4988,
          "time": 58,
          "velocity": 0.1968503937007874
        },
        {
          "duration": 0.03488372093023173,
          "durationTicks": 3,
          "midi": 94,
          "name": "A#6",
          "ticks": 4989,
          "time": 58.01162790697674,
          "velocity": 0.11811023622047244
        },
        {
          "duration": 0.058139534883714816,
          "durationTicks": 5,
          "midi": 66,
          "name": "F#4",
          "ticks": 4995,
          "time": 58.08139534883721,
          "velocity": 0.23622047244094488
        },
        {
          "duration": 0.05813953488372192,
          "durationTicks": 5,
          "midi": 94,
          "name": "A#6",
          "ticks": 4998,
          "time": 58.116279069767444,
          "velocity": 0.11023622047244094
        },
        {
          "duration": 0.046511627906973274,
          "durationTicks": 4,
          "midi": 66,
          "name": "F#4",
          "ticks": 5001,
          "time": 58.151162790697676,
          "velocity": 0.29133858267716534
        },
        {
          "duration": 0.16279069767442422,
          "durationTicks": 14,
          "midi": 85,
          "name": "C#6",
          "ticks": 5005,
          "time": 58.19767441860465,
          "velocity": 0.2283464566929134
        },
        {
          "duration": 0.05813953488372192,
          "durationTicks": 5,
          "midi": 100,
          "name": "E7",
          "ticks": 5018,
          "time": 58.348837209302324,
          "velocity": 0.11811023622047244
        },
        {
          "duration": 0.058139534883714816,
          "durationTicks": 5,
          "midi": 88,
          "name": "E6",
          "ticks": 5019,
          "time": 58.36046511627907,
          "velocity": 0.09448818897637795
        },
        {
          "duration": 0.1860465116279073,
          "durationTicks": 16,
          "midi": 85,
          "name": "C#6",
          "ticks": 5021,
          "time": 58.383720930232556,
          "velocity": 0.18110236220472442
        },
        {
          "duration": 0.15116279069767558,
          "durationTicks": 13,
          "midi": 78,
          "name": "F#5",
          "ticks": 5024,
          "time": 58.41860465116279,
          "velocity": 0.1732283464566929
        },
        {
          "duration": 0.03488372093023173,
          "durationTicks": 3,
          "midi": 68,
          "name": "G#4",
          "ticks": 5025,
          "time": 58.43023255813954,
          "velocity": 0.07874015748031496
        },
        {
          "duration": 0.081395348837205,
          "durationTicks": 7,
          "midi": 64,
          "name": "E4",
          "ticks": 5030,
          "time": 58.48837209302326,
          "velocity": 0.14173228346456693
        },
        {
          "duration": 0.09302325581395365,
          "durationTicks": 8,
          "midi": 40,
          "name": "E2",
          "ticks": 5032,
          "time": 58.51162790697674,
          "velocity": 0.10236220472440945
        },
        {
          "duration": 0.24418604651162923,
          "durationTicks": 21,
          "midi": 66,
          "name": "F#4",
          "ticks": 5037,
          "time": 58.56976744186046,
          "velocity": 0.1889763779527559
        },
        {
          "duration": 0.12790697674418539,
          "durationTicks": 11,
          "midi": 78,
          "name": "F#5",
          "ticks": 5039,
          "time": 58.593023255813954,
          "velocity": 0.23622047244094488
        },
        {
          "duration": 0.2558139534883779,
          "durationTicks": 22,
          "midi": 76,
          "name": "E5",
          "ticks": 5040,
          "time": 58.604651162790695,
          "velocity": 0.11023622047244094
        },
        {
          "duration": 1.441860465116278,
          "durationTicks": 124,
          "midi": 52,
          "name": "E3",
          "ticks": 5041,
          "time": 58.616279069767444,
          "velocity": 0.3779527559055118
        },
        {
          "duration": 0.08139534883721211,
          "durationTicks": 7,
          "midi": 85,
          "name": "C#6",
          "ticks": 5043,
          "time": 58.63953488372093,
          "velocity": 0.15748031496062992
        },
        {
          "duration": 0.05813953488372192,
          "durationTicks": 5,
          "midi": 85,
          "name": "C#6",
          "ticks": 5055,
          "time": 58.77906976744186,
          "velocity": 0.09448818897637795
        },
        {
          "duration": 0.1046511627907023,
          "durationTicks": 9,
          "midi": 78,
          "name": "F#5",
          "ticks": 5064,
          "time": 58.883720930232556,
          "velocity": 0.15748031496062992
        },
        {
          "duration": 0.6395348837209269,
          "durationTicks": 55,
          "midi": 40,
          "name": "E2",
          "ticks": 5073,
          "time": 58.98837209302326,
          "velocity": 0.2204724409448819
        },
        {
          "duration": 0.058139534883714816,
          "durationTicks": 5,
          "midi": 85,
          "name": "C#6",
          "ticks": 5073,
          "time": 58.98837209302326,
          "velocity": 0.09448818897637795
        },
        {
          "duration": 0.06976744186046346,
          "durationTicks": 6,
          "midi": 78,
          "name": "F#5",
          "ticks": 5076,
          "time": 59.02325581395349,
          "velocity": 0.15748031496062992
        },
        {
          "duration": 0.05813953488372192,
          "durationTicks": 5,
          "midi": 78,
          "name": "F#5",
          "ticks": 5091,
          "time": 59.19767441860465,
          "velocity": 0.14960629921259844
        },
        {
          "duration": 0.11627906976744384,
          "durationTicks": 10,
          "midi": 40,
          "name": "E2",
          "ticks": 5129,
          "time": 59.63953488372093,
          "velocity": 0.1732283464566929
        },
        {
          "duration": 0.19767441860464885,
          "durationTicks": 17,
          "midi": 40,
          "name": "E2",
          "ticks": 5140,
          "time": 59.76744186046512,
          "velocity": 0.1732283464566929
        },
        {
          "duration": 0.09302325581395365,
          "durationTicks": 8,
          "midi": 59,
          "name": "B3",
          "ticks": 5155,
          "time": 59.94186046511628,
          "velocity": 0.14960629921259844
        },
        {
          "duration": 0.046511627906973274,
          "durationTicks": 4,
          "midi": 39,
          "name": "D#2",
          "ticks": 5157,
          "time": 59.96511627906977,
          "velocity": 0.16535433070866143
        },
        {
          "duration": 0.03488372093023173,
          "durationTicks": 3,
          "midi": 40,
          "name": "E2",
          "ticks": 5161,
          "time": 60.01162790697674,
          "velocity": 0.10236220472440945
        },
        {
          "duration": 0.03488372093023173,
          "durationTicks": 3,
          "midi": 85,
          "name": "C#6",
          "ticks": 5161,
          "time": 60.01162790697674,
          "velocity": 0.07874015748031496
        },
        {
          "duration": 0.03488372093023173,
          "durationTicks": 3,
          "midi": 51,
          "name": "D#3",
          "ticks": 5165,
          "time": 60.05813953488372,
          "velocity": 0.5511811023622047
        },
        {
          "duration": 0.06976744186046346,
          "durationTicks": 6,
          "midi": 71,
          "name": "B4",
          "ticks": 5168,
          "time": 60.093023255813954,
          "velocity": 0.10236220472440945
        },
        {
          "duration": 0.02325581395349019,
          "durationTicks": 2,
          "midi": 51,
          "name": "D#3",
          "ticks": 5169,
          "time": 60.104651162790695,
          "velocity": 0.4409448818897638
        },
        {
          "duration": 0.06976744186047057,
          "durationTicks": 6,
          "midi": 59,
          "name": "B3",
          "ticks": 5169,
          "time": 60.104651162790695,
          "velocity": 0.2283464566929134
        },
        {
          "duration": 0.02325581395349019,
          "durationTicks": 2,
          "midi": 52,
          "name": "E3",
          "ticks": 5171,
          "time": 60.127906976744185,
          "velocity": 0.4015748031496063
        },
        {
          "duration": 0.1046511627907023,
          "durationTicks": 9,
          "midi": 52,
          "name": "E3",
          "ticks": 5174,
          "time": 60.16279069767442,
          "velocity": 0.3858267716535433
        },
        {
          "duration": 0.05813953488372192,
          "durationTicks": 5,
          "midi": 95,
          "name": "B6",
          "ticks": 5174,
          "time": 60.16279069767442,
          "velocity": 0.11023622047244094
        },
        {
          "duration": 0.7325581395348806,
          "durationTicks": 63,
          "midi": 64,
          "name": "E4",
          "ticks": 5176,
          "time": 60.18604651162791,
          "velocity": 0.5511811023622047
        },
        {
          "duration": 4.3488372093023315,
          "durationTicks": 374,
          "midi": 59,
          "name": "B3",
          "ticks": 5177,
          "time": 60.19767441860465,
          "velocity": 0.5511811023622047
        },
        {
          "duration": 0.5697674418604635,
          "durationTicks": 49,
          "midi": 52,
          "name": "E3",
          "ticks": 5184,
          "time": 60.27906976744186,
          "velocity": 0.4645669291338583
        },
        {
          "duration": 1.4302325581395365,
          "durationTicks": 123,
          "midi": 67,
          "name": "G4",
          "ticks": 5187,
          "time": 60.31395348837209,
          "velocity": 0.47244094488188976
        },
        {
          "duration": 1.279069767441861,
          "durationTicks": 110,
          "midi": 95,
          "name": "B6",
          "ticks": 5188,
          "time": 60.325581395348834,
          "velocity": 0.2677165354330709
        },
        {
          "duration": 0.03488372093023173,
          "durationTicks": 3,
          "midi": 40,
          "name": "E2",
          "ticks": 5194,
          "time": 60.395348837209305,
          "velocity": 0.18110236220472442
        },
        {
          "duration": 0.05813953488372192,
          "durationTicks": 5,
          "midi": 40,
          "name": "E2",
          "ticks": 5201,
          "time": 60.47674418604651,
          "velocity": 0.1732283464566929
        },
        {
          "duration": 0.03488372093023173,
          "durationTicks": 3,
          "midi": 40,
          "name": "E2",
          "ticks": 5221,
          "time": 60.7093023255814,
          "velocity": 0.14173228346456693
        },
        {
          "duration": 0.03488372093023173,
          "durationTicks": 3,
          "midi": 40,
          "name": "E2",
          "ticks": 5227,
          "time": 60.77906976744186,
          "velocity": 0.11811023622047244
        },
        {
          "duration": 0.02325581395349019,
          "durationTicks": 2,
          "midi": 51,
          "name": "D#3",
          "ticks": 5233,
          "time": 60.848837209302324,
          "velocity": 0.28346456692913385
        },
        {
          "duration": 0.03488372093023173,
          "durationTicks": 3,
          "midi": 52,
          "name": "E3",
          "ticks": 5235,
          "time": 60.872093023255815,
          "velocity": 0.2677165354330709
        },
        {
          "duration": 0.03488372093023173,
          "durationTicks": 3,
          "midi": 40,
          "name": "E2",
          "ticks": 5236,
          "time": 60.883720930232556,
          "velocity": 0.09448818897637795
        },
        {
          "duration": 2.3720930232558146,
          "durationTicks": 204,
          "midi": 52,
          "name": "E3",
          "ticks": 5239,
          "time": 60.91860465116279,
          "velocity": 0.41732283464566927
        },
        {
          "duration": 0.06976744186046346,
          "durationTicks": 6,
          "midi": 40,
          "name": "E2",
          "ticks": 5243,
          "time": 60.96511627906977,
          "velocity": 0.09448818897637795
        },
        {
          "duration": 0.03488372093023173,
          "durationTicks": 3,
          "midi": 86,
          "name": "D6",
          "ticks": 5259,
          "time": 61.151162790697676,
          "velocity": 0.07086614173228346
        },
        {
          "duration": 0.04651162790698038,
          "durationTicks": 4,
          "midi": 83,
          "name": "B5",
          "ticks": 5266,
          "time": 61.23255813953488,
          "velocity": 0.07874015748031496
        },
        {
          "duration": 0.081395348837205,
          "durationTicks": 7,
          "midi": 83,
          "name": "B5",
          "ticks": 5275,
          "time": 61.33720930232558,
          "velocity": 0.15748031496062992
        },
        {
          "duration": 0.30232558139535115,
          "durationTicks": 26,
          "midi": 95,
          "name": "B6",
          "ticks": 5300,
          "time": 61.627906976744185,
          "velocity": 0.2677165354330709
        },
        {
          "duration": 0.04651162790698038,
          "durationTicks": 4,
          "midi": 40,
          "name": "E2",
          "ticks": 5303,
          "time": 61.66279069767442,
          "velocity": 0.08661417322834646
        },
        {
          "duration": 0.17441860465116577,
          "durationTicks": 15,
          "midi": 40,
          "name": "E2",
          "ticks": 5309,
          "time": 61.73255813953488,
          "velocity": 0.18110236220472442
        },
        {
          "duration": 0.03488372093023884,
          "durationTicks": 3,
          "midi": 78,
          "name": "F#5",
          "ticks": 5309,
          "time": 61.73255813953488,
          "velocity": 0.14960629921259844
        },
        {
          "duration": 0.08139534883721211,
          "durationTicks": 7,
          "midi": 79,
          "name": "G5",
          "ticks": 5311,
          "time": 61.75581395348837,
          "velocity": 0.1968503937007874
        },
        {
          "duration": 0.03488372093023173,
          "durationTicks": 3,
          "midi": 78,
          "name": "F#5",
          "ticks": 5313,
          "time": 61.77906976744186,
          "velocity": 0.1889763779527559
        },
        {
          "duration": 0.046511627906973274,
          "durationTicks": 4,
          "midi": 86,
          "name": "D6",
          "ticks": 5313,
          "time": 61.77906976744186,
          "velocity": 0.10236220472440945
        },
        {
          "duration": 0.12790697674418539,
          "durationTicks": 11,
          "midi": 67,
          "name": "G4",
          "ticks": 5314,
          "time": 61.7906976744186,
          "velocity": 0.3464566929133858
        },
        {
          "duration": 0.15116279069767558,
          "durationTicks": 13,
          "midi": 78,
          "name": "F#5",
          "ticks": 5317,
          "time": 61.825581395348834,
          "velocity": 0.2047244094488189
        },
        {
          "duration": 0.1046511627907023,
          "durationTicks": 9,
          "midi": 91,
          "name": "G6",
          "ticks": 5319,
          "time": 61.848837209302324,
          "velocity": 0.14960629921259844
        },
        {
          "duration": 0.04651162790698038,
          "durationTicks": 4,
          "midi": 87,
          "name": "D#6",
          "ticks": 5322,
          "time": 61.883720930232556,
          "velocity": 0.07086614173228346
        },
        {
          "duration": 0.02325581395349019,
          "durationTicks": 2,
          "midi": 66,
          "name": "F#4",
          "ticks": 5325,
          "time": 61.91860465116279,
          "velocity": 0.2677165354330709
        },
        {
          "duration": 3.2441860465116292,
          "durationTicks": 279,
          "midi": 40,
          "name": "E2",
          "ticks": 5326,
          "time": 61.93023255813954,
          "velocity": 0.33858267716535434
        },
        {
          "duration": 0.17441860465116577,
          "durationTicks": 15,
          "midi": 67,
          "name": "G4",
          "ticks": 5327,
          "time": 61.94186046511628,
          "velocity": 0.36220472440944884
        },
        {
          "duration": 0.5581395348837148,
          "durationTicks": 48,
          "midi": 95,
          "name": "B6",
          "ticks": 5328,
          "time": 61.95348837209303,
          "velocity": 0.29133858267716534
        },
        {
          "duration": 0.1046511627906952,
          "durationTicks": 9,
          "midi": 86,
          "name": "D6",
          "ticks": 5329,
          "time": 61.96511627906977,
          "velocity": 0.11811023622047244
        },
        {
          "duration": 0.04651162790698038,
          "durationTicks": 4,
          "midi": 90,
          "name": "F#6",
          "ticks": 5330,
          "time": 61.97674418604651,
          "velocity": 0.11023622047244094
        },
        {
          "duration": 0.03488372093023173,
          "durationTicks": 3,
          "midi": 78,
          "name": "F#5",
          "ticks": 5335,
          "time": 62.03488372093023,
          "velocity": 0.07086614173228346
        },
        {
          "duration": 0.081395348837205,
          "durationTicks": 7,
          "midi": 86,
          "name": "D6",
          "ticks": 5339,
          "time": 62.08139534883721,
          "velocity": 0.14173228346456693
        },
        {
          "duration": 0.4186046511627879,
          "durationTicks": 36,
          "midi": 67,
          "name": "G4",
          "ticks": 5343,
          "time": 62.127906976744185,
          "velocity": 0.4566929133858268
        },
        {
          "duration": 0.04651162790698038,
          "durationTicks": 4,
          "midi": 87,
          "name": "D#6",
          "ticks": 5346,
          "time": 62.16279069767442,
          "velocity": 0.07874015748031496
        },
        {
          "duration": 0.11627906976744384,
          "durationTicks": 10,
          "midi": 98,
          "name": "D7",
          "ticks": 5346,
          "time": 62.16279069767442,
          "velocity": 0.1889763779527559
        },
        {
          "duration": 0.11627906976744384,
          "durationTicks": 10,
          "midi": 78,
          "name": "F#5",
          "ticks": 5351,
          "time": 62.22093023255814,
          "velocity": 0.2440944881889764
        },
        {
          "duration": 0.05813953488372192,
          "durationTicks": 5,
          "midi": 86,
          "name": "D6",
          "ticks": 5356,
          "time": 62.27906976744186,
          "velocity": 0.09448818897637795
        },
        {
          "duration": 0.16279069767441712,
          "durationTicks": 14,
          "midi": 101,
          "name": "F7",
          "ticks": 5356,
          "time": 62.27906976744186,
          "velocity": 0.11023622047244094
        },
        {
          "duration": 0.04651162790698038,
          "durationTicks": 4,
          "midi": 91,
          "name": "G6",
          "ticks": 5357,
          "time": 62.2906976744186,
          "velocity": 0.10236220472440945
        },
        {
          "duration": 1.3720930232558146,
          "durationTicks": 118,
          "midi": 64,
          "name": "E4",
          "ticks": 5358,
          "time": 62.30232558139535,
          "velocity": 0.4330708661417323
        },
        {
          "duration": 0.17441860465115866,
          "durationTicks": 15,
          "midi": 98,
          "name": "D7",
          "ticks": 5358,
          "time": 62.30232558139535,
          "velocity": 0.16535433070866143
        },
        {
          "duration": 0.43023255813953654,
          "durationTicks": 37,
          "midi": 78,
          "name": "F#5",
          "ticks": 5364,
          "time": 62.372093023255815,
          "velocity": 0.23622047244094488
        },
        {
          "duration": 0.09302325581395365,
          "durationTicks": 8,
          "midi": 91,
          "name": "G6",
          "ticks": 5370,
          "time": 62.44186046511628,
          "velocity": 0.14960629921259844
        },
        {
          "duration": 0.03488372093023173,
          "durationTicks": 3,
          "midi": 101,
          "name": "F7",
          "ticks": 5372,
          "time": 62.46511627906977,
          "velocity": 0.11023622047244094
        },
        {
          "duration": 0.04651162790698038,
          "durationTicks": 4,
          "midi": 86,
          "name": "D6",
          "ticks": 5373,
          "time": 62.47674418604651,
          "velocity": 0.16535433070866143
        },
        {
          "duration": 0.22093023255813904,
          "durationTicks": 19,
          "midi": 98,
          "name": "D7",
          "ticks": 5375,
          "time": 62.5,
          "velocity": 0.23622047244094488
        },
        {
          "duration": 0.11627906976744384,
          "durationTicks": 10,
          "midi": 95,
          "name": "B6",
          "ticks": 5379,
          "time": 62.54651162790697,
          "velocity": 0.2440944881889764
        },
        {
          "duration": 0.11627906976744384,
          "durationTicks": 10,
          "midi": 87,
          "name": "D#6",
          "ticks": 5380,
          "time": 62.55813953488372,
          "velocity": 0.11023622047244094
        },
        {
          "duration": 0.6860465116279073,
          "durationTicks": 59,
          "midi": 67,
          "name": "G4",
          "ticks": 5381,
          "time": 62.56976744186046,
          "velocity": 0.41732283464566927
        },
        {
          "duration": 0.03488372093023173,
          "durationTicks": 3,
          "midi": 86,
          "name": "D6",
          "ticks": 5381,
          "time": 62.56976744186046,
          "velocity": 0.10236220472440945
        },
        {
          "duration": 0.24418604651162212,
          "durationTicks": 21,
          "midi": 91,
          "name": "G6",
          "ticks": 5382,
          "time": 62.58139534883721,
          "velocity": 0.18110236220472442
        },
        {
          "duration": 0.1860465116279073,
          "durationTicks": 16,
          "midi": 86,
          "name": "D6",
          "ticks": 5389,
          "time": 62.66279069767442,
          "velocity": 0.1968503937007874
        },
        {
          "duration": 1.0697674418604706,
          "durationTicks": 92,
          "midi": 95,
          "name": "B6",
          "ticks": 5395,
          "time": 62.73255813953488,
          "velocity": 0.30708661417322836
        },
        {
          "duration": 0.40697674418604635,
          "durationTicks": 35,
          "midi": 98,
          "name": "D7",
          "ticks": 5396,
          "time": 62.74418604651163,
          "velocity": 0.28346456692913385
        },
        {
          "duration": 0.3372093023255758,
          "durationTicks": 29,
          "midi": 88,
          "name": "E6",
          "ticks": 5398,
          "time": 62.76744186046512,
          "velocity": 0.2440944881889764
        },
        {
          "duration": 0.1046511627906952,
          "durationTicks": 9,
          "midi": 92,
          "name": "G#6",
          "ticks": 5404,
          "time": 62.83720930232558,
          "velocity": 0.11023622047244094
        },
        {
          "duration": 0.05813953488372192,
          "durationTicks": 5,
          "midi": 86,
          "name": "D6",
          "ticks": 5408,
          "time": 62.883720930232556,
          "velocity": 0.1968503937007874
        },
        {
          "duration": 0.04651162790698038,
          "durationTicks": 4,
          "midi": 101,
          "name": "F7",
          "ticks": 5411,
          "time": 62.91860465116279,
          "velocity": 0.13385826771653545
        },
        {
          "duration": 0.581395348837205,
          "durationTicks": 50,
          "midi": 78,
          "name": "F#5",
          "ticks": 5412,
          "time": 62.93023255813954,
          "velocity": 0.2992125984251969
        },
        {
          "duration": 0.081395348837205,
          "durationTicks": 7,
          "midi": 87,
          "name": "D#6",
          "ticks": 5412,
          "time": 62.93023255813954,
          "velocity": 0.14173228346456693
        },
        {
          "duration": 0.36046511627906597,
          "durationTicks": 31,
          "midi": 91,
          "name": "G6",
          "ticks": 5420,
          "time": 63.02325581395349,
          "velocity": 0.2047244094488189
        },
        {
          "duration": 0.22093023255813904,
          "durationTicks": 19,
          "midi": 92,
          "name": "G#6",
          "ticks": 5420,
          "time": 63.02325581395349,
          "velocity": 0.15748031496062992
        },
        {
          "duration": 0.1046511627907023,
          "durationTicks": 9,
          "midi": 93,
          "name": "A6",
          "ticks": 5422,
          "time": 63.04651162790697,
          "velocity": 0.13385826771653545
        },
        {
          "duration": 0.046511627906973274,
          "durationTicks": 4,
          "midi": 87,
          "name": "D#6",
          "ticks": 5426,
          "time": 63.093023255813954,
          "velocity": 0.14173228346456693
        },
        {
          "duration": 0.2325581395348877,
          "durationTicks": 20,
          "midi": 86,
          "name": "D6",
          "ticks": 5427,
          "time": 63.104651162790695,
          "velocity": 0.18110236220472442
        },
        {
          "duration": 0.046511627906973274,
          "durationTicks": 4,
          "midi": 87,
          "name": "D#6",
          "ticks": 5431,
          "time": 63.151162790697676,
          "velocity": 0.13385826771653545
        },
        {
          "duration": 1.1627906976744242,
          "durationTicks": 100,
          "midi": 98,
          "name": "D7",
          "ticks": 5434,
          "time": 63.18604651162791,
          "velocity": 0.25984251968503935
        },
        {
          "duration": 0.03488372093023173,
          "durationTicks": 3,
          "midi": 87,
          "name": "D#6",
          "ticks": 5436,
          "time": 63.2093023255814,
          "velocity": 0.10236220472440945
        },
        {
          "duration": 0.046511627906973274,
          "durationTicks": 4,
          "midi": 101,
          "name": "F7",
          "ticks": 5436,
          "time": 63.2093023255814,
          "velocity": 0.11023622047244094
        },
        {
          "duration": 0.11627906976743674,
          "durationTicks": 10,
          "midi": 67,
          "name": "G4",
          "ticks": 5441,
          "time": 63.26744186046512,
          "velocity": 0.31496062992125984
        },
        {
          "duration": 0.12790697674418539,
          "durationTicks": 11,
          "midi": 93,
          "name": "A6",
          "ticks": 5441,
          "time": 63.26744186046512,
          "velocity": 0.15748031496062992
        },
        {
          "duration": 0.05813953488372192,
          "durationTicks": 5,
          "midi": 101,
          "name": "F7",
          "ticks": 5444,
          "time": 63.30232558139535,
          "velocity": 0.09448818897637795
        },
        {
          "duration": 0.11627906976744384,
          "durationTicks": 10,
          "midi": 92,
          "name": "G#6",
          "ticks": 5446,
          "time": 63.325581395348834,
          "velocity": 0.2283464566929134
        },
        {
          "duration": 0.04651162790698038,
          "durationTicks": 4,
          "midi": 86,
          "name": "D6",
          "ticks": 5448,
          "time": 63.348837209302324,
          "velocity": 0.16535433070866143
        },
        {
          "duration": 0.03488372093023173,
          "durationTicks": 3,
          "midi": 87,
          "name": "D#6",
          "ticks": 5449,
          "time": 63.36046511627907,
          "velocity": 0.09448818897637795
        },
        {
          "duration": 0.941860465116271,
          "durationTicks": 81,
          "midi": 67,
          "name": "G4",
          "ticks": 5452,
          "time": 63.395348837209305,
          "velocity": 0.4409448818897638
        },
        {
          "duration": 0.04651162790698038,
          "durationTicks": 4,
          "midi": 86,
          "name": "D6",
          "ticks": 5454,
          "time": 63.41860465116279,
          "velocity": 0.2047244094488189
        },
        {
          "duration": 0.058139534883714816,
          "durationTicks": 5,
          "midi": 87,
          "name": "D#6",
          "ticks": 5457,
          "time": 63.45348837209303,
          "velocity": 0.14960629921259844
        },
        {
          "duration": 0.1046511627906952,
          "durationTicks": 9,
          "midi": 86,
          "name": "D6",
          "ticks": 5460,
          "time": 63.48837209302326,
          "velocity": 0.1732283464566929
        },
        {
          "duration": 0.2093023255813904,
          "durationTicks": 18,
          "midi": 91,
          "name": "G6",
          "ticks": 5460,
          "time": 63.48837209302326,
          "velocity": 0.2204724409448819
        },
        {
          "duration": 0.16279069767441712,
          "durationTicks": 14,
          "midi": 93,
          "name": "A6",
          "ticks": 5460,
          "time": 63.48837209302326,
          "velocity": 0.16535433070866143
        },
        {
          "duration": 0.046511627906973274,
          "durationTicks": 4,
          "midi": 101,
          "name": "F7",
          "ticks": 5460,
          "time": 63.48837209302326,
          "velocity": 0.08661417322834646
        },
        {
          "duration": 0.1860465116279073,
          "durationTicks": 16,
          "midi": 92,
          "name": "G#6",
          "ticks": 5465,
          "time": 63.54651162790697,
          "velocity": 0.2047244094488189
        },
        {
          "duration": 5.116279069767444,
          "durationTicks": 440,
          "midi": 52,
          "name": "E3",
          "ticks": 5466,
          "time": 63.55813953488372,
          "velocity": 0.5196850393700787
        },
        {
          "duration": 0.06976744186046346,
          "durationTicks": 6,
          "midi": 87,
          "name": "D#6",
          "ticks": 5469,
          "time": 63.593023255813954,
          "velocity": 0.10236220472440945
        },
        {
          "duration": 0.17441860465116577,
          "durationTicks": 15,
          "midi": 78,
          "name": "F#5",
          "ticks": 5470,
          "time": 63.604651162790695,
          "velocity": 0.2440944881889764
        },
        {
          "duration": 0.09302325581395365,
          "durationTicks": 8,
          "midi": 86,
          "name": "D6",
          "ticks": 5470,
          "time": 63.604651162790695,
          "velocity": 0.14960629921259844
        },
        {
          "duration": 0.9302325581395365,
          "durationTicks": 80,
          "midi": 93,
          "name": "A6",
          "ticks": 5476,
          "time": 63.674418604651166,
          "velocity": 0.23622047244094488
        },
        {
          "duration": 0.1046511627906952,
          "durationTicks": 9,
          "midi": 91,
          "name": "G6",
          "ticks": 5479,
          "time": 63.7093023255814,
          "velocity": 0.15748031496062992
        },
        {
          "duration": 0.05813953488372192,
          "durationTicks": 5,
          "midi": 86,
          "name": "D6",
          "ticks": 5482,
          "time": 63.74418604651163,
          "velocity": 0.16535433070866143
        },
        {
          "duration": 0.16279069767441712,
          "durationTicks": 14,
          "midi": 87,
          "name": "D#6",
          "ticks": 5484,
          "time": 63.76744186046512,
          "velocity": 0.1889763779527559
        },
        {
          "duration": 0.19767441860464885,
          "durationTicks": 17,
          "midi": 92,
          "name": "G#6",
          "ticks": 5484,
          "time": 63.76744186046512,
          "velocity": 0.2125984251968504
        },
        {
          "duration": 0.43023255813954364,
          "durationTicks": 37,
          "midi": 76,
          "name": "E5",
          "ticks": 5486,
          "time": 63.7906976744186,
          "velocity": 0.25984251968503935
        },
        {
          "duration": 0.15116279069767558,
          "durationTicks": 13,
          "midi": 78,
          "name": "F#5",
          "ticks": 5488,
          "time": 63.81395348837209,
          "velocity": 0.2204724409448819
        },
        {
          "duration": 1.1744186046511658,
          "durationTicks": 101,
          "midi": 64,
          "name": "E4",
          "ticks": 5489,
          "time": 63.825581395348834,
          "velocity": 0.6141732283464567
        },
        {
          "duration": 0.13953488372092693,
          "durationTicks": 12,
          "midi": 91,
          "name": "G6",
          "ticks": 5490,
          "time": 63.83720930232558,
          "velocity": 0.25984251968503935
        },
        {
          "duration": 0.46511627906976827,
          "durationTicks": 40,
          "midi": 88,
          "name": "E6",
          "ticks": 5495,
          "time": 63.895348837209305,
          "velocity": 0.28346456692913385
        },
        {
          "duration": 0.05813953488372192,
          "durationTicks": 5,
          "midi": 86,
          "name": "D6",
          "ticks": 5497,
          "time": 63.91860465116279,
          "velocity": 0.14960629921259844
        },
        {
          "duration": 0.12790697674418539,
          "durationTicks": 11,
          "midi": 87,
          "name": "D#6",
          "ticks": 5499,
          "time": 63.94186046511628,
          "velocity": 0.12598425196850394
        },
        {
          "duration": 0.03488372093023173,
          "durationTicks": 3,
          "midi": 101,
          "name": "F7",
          "ticks": 5501,
          "time": 63.96511627906977,
          "velocity": 0.11023622047244094
        },
        {
          "duration": 0.12790697674418539,
          "durationTicks": 11,
          "midi": 91,
          "name": "G6",
          "ticks": 5504,
          "time": 64,
          "velocity": 0.1889763779527559
        },
        {
          "duration": 0.2093023255814046,
          "durationTicks": 18,
          "midi": 74,
          "name": "D5",
          "ticks": 5505,
          "time": 64.01162790697674,
          "velocity": 0.12598425196850394
        },
        {
          "duration": 0.19767441860464885,
          "durationTicks": 17,
          "midi": 78,
          "name": "F#5",
          "ticks": 5505,
          "time": 64.01162790697674,
          "velocity": 0.2283464566929134
        },
        {
          "duration": 0.06976744186046346,
          "durationTicks": 6,
          "midi": 86,
          "name": "D6",
          "ticks": 5505,
          "time": 64.01162790697674,
          "velocity": 0.14960629921259844
        },
        {
          "duration": 0.034883720930224626,
          "durationTicks": 3,
          "midi": 101,
          "name": "F7",
          "ticks": 5508,
          "time": 64.04651162790698,
          "velocity": 0.11023622047244094
        },
        {
          "duration": 0.034883720930224626,
          "durationTicks": 3,
          "midi": 87,
          "name": "D#6",
          "ticks": 5514,
          "time": 64.11627906976744,
          "velocity": 0.11023622047244094
        },
        {
          "duration": 0.3604651162790731,
          "durationTicks": 31,
          "midi": 92,
          "name": "G#6",
          "ticks": 5515,
          "time": 64.12790697674419,
          "velocity": 0.16535433070866143
        },
        {
          "duration": 0.04651162790698038,
          "durationTicks": 4,
          "midi": 86,
          "name": "D6",
          "ticks": 5521,
          "time": 64.19767441860465,
          "velocity": 0.1889763779527559
        },
        {
          "duration": 0.1046511627907023,
          "durationTicks": 9,
          "midi": 87,
          "name": "D#6",
          "ticks": 5522,
          "time": 64.20930232558139,
          "velocity": 0.14173228346456693
        },
        {
          "duration": 0.06976744186046346,
          "durationTicks": 6,
          "midi": 101,
          "name": "F7",
          "ticks": 5524,
          "time": 64.23255813953489,
          "velocity": 0.13385826771653545
        },
        {
          "duration": 0.03488372093023884,
          "durationTicks": 3,
          "midi": 86,
          "name": "D6",
          "ticks": 5526,
          "time": 64.25581395348837,
          "velocity": 0.13385826771653545
        },
        {
          "duration": 0.11627906976744384,
          "durationTicks": 10,
          "midi": 78,
          "name": "F#5",
          "ticks": 5528,
          "time": 64.27906976744185,
          "velocity": 0.28346456692913385
        },
        {
          "duration": 0.24418604651162923,
          "durationTicks": 21,
          "midi": 87,
          "name": "D#6",
          "ticks": 5533,
          "time": 64.33720930232558,
          "velocity": 0.1732283464566929
        },
        {
          "duration": 0.034883720930224626,
          "durationTicks": 3,
          "midi": 67,
          "name": "G4",
          "ticks": 5534,
          "time": 64.34883720930233,
          "velocity": 0.29133858267716534
        },
        {
          "duration": 0.19767441860464885,
          "durationTicks": 17,
          "midi": 81,
          "name": "A5",
          "ticks": 5536,
          "time": 64.37209302325581,
          "velocity": 0.2125984251968504
        },
        {
          "duration": 0.2325581395348877,
          "durationTicks": 20,
          "midi": 88,
          "name": "E6",
          "ticks": 5537,
          "time": 64.38372093023256,
          "velocity": 0.2755905511811024
        },
        {
          "duration": 0.03488372093023884,
          "durationTicks": 3,
          "midi": 98,
          "name": "D7",
          "ticks": 5537,
          "time": 64.38372093023256,
          "velocity": 0.11023622047244094
        },
        {
          "duration": 0.03488372093023884,
          "durationTicks": 3,
          "midi": 67,
          "name": "G4",
          "ticks": 5538,
          "time": 64.3953488372093,
          "velocity": 0.2283464566929134
        },
        {
          "duration": 0.05813953488372192,
          "durationTicks": 5,
          "midi": 97,
          "name": "C#7",
          "ticks": 5540,
          "time": 64.4186046511628,
          "velocity": 0.18110236220472442
        },
        {
          "duration": 0.023255813953483084,
          "durationTicks": 2,
          "midi": 68,
          "name": "G#4",
          "ticks": 5541,
          "time": 64.43023255813954,
          "velocity": 0.4566929133858268
        },
        {
          "duration": 0.2325581395348877,
          "durationTicks": 20,
          "midi": 79,
          "name": "G5",
          "ticks": 5542,
          "time": 64.44186046511628,
          "velocity": 0.2204724409448819
        },
        {
          "duration": 0.6162790697674438,
          "durationTicks": 53,
          "midi": 67,
          "name": "G4",
          "ticks": 5543,
          "time": 64.45348837209302,
          "velocity": 0.5433070866141733
        },
        {
          "duration": 0.7906976744186096,
          "durationTicks": 68,
          "midi": 78,
          "name": "F#5",
          "ticks": 5544,
          "time": 64.46511627906976,
          "velocity": 0.3228346456692913
        },
        {
          "duration": 0.03488372093023884,
          "durationTicks": 3,
          "midi": 98,
          "name": "D7",
          "ticks": 5547,
          "time": 64.5,
          "velocity": 0.10236220472440945
        },
        {
          "duration": 0.06976744186046346,
          "durationTicks": 6,
          "midi": 97,
          "name": "C#7",
          "ticks": 5548,
          "time": 64.51162790697674,
          "velocity": 0.12598425196850394
        },
        {
          "duration": 0.034883720930224626,
          "durationTicks": 3,
          "midi": 102,
          "name": "F#7",
          "ticks": 5551,
          "time": 64.54651162790698,
          "velocity": 0.07086614173228346
        },
        {
          "duration": 0.034883720930224626,
          "durationTicks": 3,
          "midi": 59,
          "name": "B3",
          "ticks": 5552,
          "time": 64.55813953488372,
          "velocity": 0.14960629921259844
        },
        {
          "duration": 0.04651162790698038,
          "durationTicks": 4,
          "midi": 98,
          "name": "D7",
          "ticks": 5552,
          "time": 64.55813953488372,
          "velocity": 0.11023622047244094
        },
        {
          "duration": 0.1046511627907023,
          "durationTicks": 9,
          "midi": 92,
          "name": "G#6",
          "ticks": 5555,
          "time": 64.59302325581395,
          "velocity": 0.1889763779527559
        },
        {
          "duration": 3.860465116279059,
          "durationTicks": 332,
          "midi": 59,
          "name": "B3",
          "ticks": 5556,
          "time": 64.6046511627907,
          "velocity": 0.48031496062992124
        },
        {
          "duration": 0.3953488372092977,
          "durationTicks": 34,
          "midi": 74,
          "name": "D5",
          "ticks": 5556,
          "time": 64.6046511627907,
          "velocity": 0.13385826771653545
        },
        {
          "duration": 0.6860465116279073,
          "durationTicks": 59,
          "midi": 81,
          "name": "A5",
          "ticks": 5556,
          "time": 64.6046511627907,
          "velocity": 0.41732283464566927
        },
        {
          "duration": 0.3372093023255758,
          "durationTicks": 29,
          "midi": 83,
          "name": "B5",
          "ticks": 5556,
          "time": 64.6046511627907,
          "velocity": 0.25984251968503935
        },
        {
          "duration": 0.16279069767441,
          "durationTicks": 14,
          "midi": 97,
          "name": "C#7",
          "ticks": 5557,
          "time": 64.61627906976744,
          "velocity": 0.14960629921259844
        },
        {
          "duration": 0.081395348837205,
          "durationTicks": 7,
          "midi": 87,
          "name": "D#6",
          "ticks": 5558,
          "time": 64.62790697674419,
          "velocity": 0.09448818897637795
        },
        {
          "duration": 0.06976744186046346,
          "durationTicks": 6,
          "midi": 69,
          "name": "A4",
          "ticks": 5559,
          "time": 64.63953488372093,
          "velocity": 0.4409448818897638
        },
        {
          "duration": 0.13953488372092693,
          "durationTicks": 12,
          "midi": 98,
          "name": "D7",
          "ticks": 5568,
          "time": 64.74418604651163,
          "velocity": 0.15748031496062992
        },
        {
          "duration": 0.03488372093023884,
          "durationTicks": 3,
          "midi": 87,
          "name": "D#6",
          "ticks": 5569,
          "time": 64.75581395348837,
          "velocity": 0.07086614173228346
        },
        {
          "duration": 0.03488372093023884,
          "durationTicks": 3,
          "midi": 92,
          "name": "G#6",
          "ticks": 5569,
          "time": 64.75581395348837,
          "velocity": 0.07086614173228346
        },
        {
          "duration": 0.3953488372092977,
          "durationTicks": 34,
          "midi": 97,
          "name": "C#7",
          "ticks": 5572,
          "time": 64.79069767441861,
          "velocity": 0.2755905511811024
        },
        {
          "duration": 0.023255813953483084,
          "durationTicks": 2,
          "midi": 69,
          "name": "A4",
          "ticks": 5573,
          "time": 64.80232558139535,
          "velocity": 0.3464566929133858
        },
        {
          "duration": 0.05813953488372192,
          "durationTicks": 5,
          "midi": 69,
          "name": "A4",
          "ticks": 5576,
          "time": 64.83720930232558,
          "velocity": 0.4330708661417323
        },
        {
          "duration": 0.17441860465116577,
          "durationTicks": 15,
          "midi": 87,
          "name": "D#6",
          "ticks": 5578,
          "time": 64.86046511627907,
          "velocity": 0.16535433070866143
        },
        {
          "duration": 0.11627906976742963,
          "durationTicks": 10,
          "midi": 92,
          "name": "G#6",
          "ticks": 5582,
          "time": 64.90697674418605,
          "velocity": 0.13385826771653545
        },
        {
          "duration": 0.09302325581396076,
          "durationTicks": 8,
          "midi": 69,
          "name": "A4",
          "ticks": 5592,
          "time": 65.02325581395348,
          "velocity": 0.5118110236220472
        },
        {
          "duration": 0.034883720930224626,
          "durationTicks": 3,
          "midi": 103,
          "name": "G7",
          "ticks": 5593,
          "time": 65.03488372093024,
          "velocity": 0.10236220472440945
        },
        {
          "duration": 0.05813953488372192,
          "durationTicks": 5,
          "midi": 87,
          "name": "D#6",
          "ticks": 5595,
          "time": 65.05813953488372,
          "velocity": 0.16535433070866143
        },
        {
          "duration": 0.08139534883721922,
          "durationTicks": 7,
          "midi": 67,
          "name": "G4",
          "ticks": 5597,
          "time": 65.0813953488372,
          "velocity": 0.4330708661417323
        },
        {
          "duration": 0.2325581395348877,
          "durationTicks": 20,
          "midi": 69,
          "name": "A4",
          "ticks": 5601,
          "time": 65.12790697674419,
          "velocity": 0.5511811023622047
        },
        {
          "duration": 0.13953488372094114,
          "durationTicks": 12,
          "midi": 92,
          "name": "G#6",
          "ticks": 5603,
          "time": 65.15116279069767,
          "velocity": 0.12598425196850394
        },
        {
          "duration": 0.19767441860464885,
          "durationTicks": 17,
          "midi": 87,
          "name": "D#6",
          "ticks": 5604,
          "time": 65.16279069767442,
          "velocity": 0.16535433070866143
        },
        {
          "duration": 0.034883720930224626,
          "durationTicks": 3,
          "midi": 67,
          "name": "G4",
          "ticks": 5605,
          "time": 65.17441860465117,
          "velocity": 0.4094488188976378
        },
        {
          "duration": 0.04651162790698038,
          "durationTicks": 4,
          "midi": 40,
          "name": "E2",
          "ticks": 5606,
          "time": 65.18604651162791,
          "velocity": 0.10236220472440945
        },
        {
          "duration": 1,
          "durationTicks": 86,
          "midi": 74,
          "name": "D5",
          "ticks": 5607,
          "time": 65.19767441860465,
          "velocity": 0.14960629921259844
        },
        {
          "duration": 0.04651162790696617,
          "durationTicks": 4,
          "midi": 67,
          "name": "G4",
          "ticks": 5609,
          "time": 65.22093023255815,
          "velocity": 0.4094488188976378
        },
        {
          "duration": 0.17441860465116577,
          "durationTicks": 15,
          "midi": 97,
          "name": "C#7",
          "ticks": 5610,
          "time": 65.23255813953489,
          "velocity": 0.2440944881889764
        },
        {
          "duration": 0.3139534883720927,
          "durationTicks": 27,
          "midi": 78,
          "name": "F#5",
          "ticks": 5615,
          "time": 65.29069767441861,
          "velocity": 0.25984251968503935
        },
        {
          "duration": 0.034883720930224626,
          "durationTicks": 3,
          "midi": 98,
          "name": "D7",
          "ticks": 5616,
          "time": 65.30232558139535,
          "velocity": 0.10236220472440945
        },
        {
          "duration": 0.12790697674418539,
          "durationTicks": 11,
          "midi": 67,
          "name": "G4",
          "ticks": 5618,
          "time": 65.32558139534883,
          "velocity": 0.4094488188976378
        },
        {
          "duration": 0.06976744186046346,
          "durationTicks": 6,
          "midi": 103,
          "name": "G7",
          "ticks": 5620,
          "time": 65.34883720930233,
          "velocity": 0.10236220472440945
        },
        {
          "duration": 0.081395348837205,
          "durationTicks": 7,
          "midi": 92,
          "name": "G#6",
          "ticks": 5621,
          "time": 65.36046511627907,
          "velocity": 0.1732283464566929
        },
        {
          "duration": 0.23255813953487348,
          "durationTicks": 20,
          "midi": 69,
          "name": "A4",
          "ticks": 5626,
          "time": 65.4186046511628,
          "velocity": 0.5826771653543307
        },
        {
          "duration": 1.2441860465116292,
          "durationTicks": 107,
          "midi": 97,
          "name": "C#7",
          "ticks": 5627,
          "time": 65.43023255813954,
          "velocity": 0.3858267716535433
        },
        {
          "duration": 0.03488372093023884,
          "durationTicks": 3,
          "midi": 40,
          "name": "E2",
          "ticks": 5628,
          "time": 65.44186046511628,
          "velocity": 0.07874015748031496
        },
        {
          "duration": 0.09302325581394655,
          "durationTicks": 8,
          "midi": 92,
          "name": "G#6",
          "ticks": 5633,
          "time": 65.5,
          "velocity": 0.13385826771653545
        },
        {
          "duration": 0.581395348837205,
          "durationTicks": 50,
          "midi": 87,
          "name": "D#6",
          "ticks": 5634,
          "time": 65.51162790697674,
          "velocity": 0.18110236220472442
        },
        {
          "duration": 0.03488372093023884,
          "durationTicks": 3,
          "midi": 67,
          "name": "G4",
          "ticks": 5639,
          "time": 65.56976744186046,
          "velocity": 0.30708661417322836
        },
        {
          "duration": 0.034883720930224626,
          "durationTicks": 3,
          "midi": 67,
          "name": "G4",
          "ticks": 5643,
          "time": 65.61627906976744,
          "velocity": 0.29133858267716534
        },
        {
          "duration": 0.7325581395348877,
          "durationTicks": 63,
          "midi": 78,
          "name": "F#5",
          "ticks": 5645,
          "time": 65.63953488372093,
          "velocity": 0.3543307086614173
        },
        {
          "duration": 0.03488372093023884,
          "durationTicks": 3,
          "midi": 92,
          "name": "G#6",
          "ticks": 5645,
          "time": 65.63953488372093,
          "velocity": 0.11811023622047244
        },
        {
          "duration": 0.13953488372092693,
          "durationTicks": 12,
          "midi": 67,
          "name": "G4",
          "ticks": 5647,
          "time": 65.66279069767442,
          "velocity": 0.31496062992125984
        },
        {
          "duration": 0.5116279069767415,
          "durationTicks": 44,
          "midi": 88,
          "name": "E6",
          "ticks": 5647,
          "time": 65.66279069767442,
          "velocity": 0.3779527559055118
        },
        {
          "duration": 0.04651162790698038,
          "durationTicks": 4,
          "midi": 98,
          "name": "D7",
          "ticks": 5651,
          "time": 65.70930232558139,
          "velocity": 0.11023622047244094
        },
        {
          "duration": 0.13953488372092693,
          "durationTicks": 12,
          "midi": 40,
          "name": "E2",
          "ticks": 5652,
          "time": 65.72093023255815,
          "velocity": 0.2283464566929134
        },
        {
          "duration": 0.05813953488372192,
          "durationTicks": 5,
          "midi": 69,
          "name": "A4",
          "ticks": 5655,
          "time": 65.75581395348837,
          "velocity": 0.3700787401574803
        },
        {
          "duration": 0.04651162790698038,
          "durationTicks": 4,
          "midi": 92,
          "name": "G#6",
          "ticks": 5655,
          "time": 65.75581395348837,
          "velocity": 0.07874015748031496
        },
        {
          "duration": 0.04651162790698038,
          "durationTicks": 4,
          "midi": 98,
          "name": "D7",
          "ticks": 5657,
          "time": 65.77906976744185,
          "velocity": 0.08661417322834646
        },
        {
          "duration": 0.1860465116279073,
          "durationTicks": 16,
          "midi": 83,
          "name": "B5",
          "ticks": 5658,
          "time": 65.79069767441861,
          "velocity": 0.3543307086614173
        },
        {
          "duration": 0.03488372093023884,
          "durationTicks": 3,
          "midi": 67,
          "name": "G4",
          "ticks": 5660,
          "time": 65.81395348837209,
          "velocity": 0.2755905511811024
        },
        {
          "duration": 0.6976744186046488,
          "durationTicks": 60,
          "midi": 69,
          "name": "A4",
          "ticks": 5663,
          "time": 65.84883720930233,
          "velocity": 0.5905511811023622
        },
        {
          "duration": 0.9883720930232585,
          "durationTicks": 85,
          "midi": 40,
          "name": "E2",
          "ticks": 5665,
          "time": 65.87209302325581,
          "velocity": 0.3543307086614173
        },
        {
          "duration": 0.04651162790698038,
          "durationTicks": 4,
          "midi": 92,
          "name": "G#6",
          "ticks": 5665,
          "time": 65.87209302325581,
          "velocity": 0.07874015748031496
        },
        {
          "duration": 0.04651162790698038,
          "durationTicks": 4,
          "midi": 98,
          "name": "D7",
          "ticks": 5667,
          "time": 65.8953488372093,
          "velocity": 0.12598425196850394
        },
        {
          "duration": 0.034883720930224626,
          "durationTicks": 3,
          "midi": 67,
          "name": "G4",
          "ticks": 5670,
          "time": 65.93023255813954,
          "velocity": 0.2204724409448819
        },
        {
          "duration": 0.15116279069766847,
          "durationTicks": 13,
          "midi": 92,
          "name": "G#6",
          "ticks": 5670,
          "time": 65.93023255813954,
          "velocity": 0.16535433070866143
        },
        {
          "duration": 0.023255813953483084,
          "durationTicks": 2,
          "midi": 67,
          "name": "G4",
          "ticks": 5674,
          "time": 65.97674418604652,
          "velocity": 0.25196850393700787
        },
        {
          "duration": 0.04651162790696617,
          "durationTicks": 4,
          "midi": 98,
          "name": "D7",
          "ticks": 5674,
          "time": 65.97674418604652,
          "velocity": 0.09448818897637795
        },
        {
          "duration": 2.360465116279073,
          "durationTicks": 203,
          "midi": 83,
          "name": "B5",
          "ticks": 5678,
          "time": 66.02325581395348,
          "velocity": 0.4330708661417323
        },
        {
          "duration": 0.081395348837205,
          "durationTicks": 7,
          "midi": 98,
          "name": "D7",
          "ticks": 5680,
          "time": 66.04651162790698,
          "velocity": 0.12598425196850394
        },
        {
          "duration": 0.1860465116279073,
          "durationTicks": 16,
          "midi": 92,
          "name": "G#6",
          "ticks": 5685,
          "time": 66.1046511627907,
          "velocity": 0.25196850393700787
        },
        {
          "duration": 0.17441860465116577,
          "durationTicks": 15,
          "midi": 87,
          "name": "D#6",
          "ticks": 5689,
          "time": 66.15116279069767,
          "velocity": 0.1889763779527559
        },
        {
          "duration": 0.1046511627907023,
          "durationTicks": 9,
          "midi": 100,
          "name": "E7",
          "ticks": 5692,
          "time": 66.18604651162791,
          "velocity": 0.11811023622047244
        },
        {
          "duration": 0.2674418604651123,
          "durationTicks": 23,
          "midi": 74,
          "name": "D5",
          "ticks": 5698,
          "time": 66.25581395348837,
          "velocity": 0.1968503937007874
        },
        {
          "duration": 0.05813953488372192,
          "durationTicks": 5,
          "midi": 98,
          "name": "D7",
          "ticks": 5702,
          "time": 66.30232558139535,
          "velocity": 0.09448818897637795
        },
        {
          "duration": 0.5813953488372192,
          "durationTicks": 50,
          "midi": 92,
          "name": "G#6",
          "ticks": 5705,
          "time": 66.33720930232558,
          "velocity": 0.2755905511811024
        },
        {
          "duration": 0.16279069767441,
          "durationTicks": 14,
          "midi": 87,
          "name": "D#6",
          "ticks": 5707,
          "time": 66.36046511627907,
          "velocity": 0.2047244094488189
        },
        {
          "duration": 2.279069767441868,
          "durationTicks": 196,
          "midi": 64,
          "name": "E4",
          "ticks": 5710,
          "time": 66.3953488372093,
          "velocity": 0.5511811023622047
        },
        {
          "duration": 0.1860465116279073,
          "durationTicks": 16,
          "midi": 78,
          "name": "F#5",
          "ticks": 5712,
          "time": 66.4186046511628,
          "velocity": 0.2677165354330709
        },
        {
          "duration": 0.081395348837205,
          "durationTicks": 7,
          "midi": 98,
          "name": "D7",
          "ticks": 5714,
          "time": 66.44186046511628,
          "velocity": 0.12598425196850394
        },
        {
          "duration": 0.04651162790698038,
          "durationTicks": 4,
          "midi": 103,
          "name": "G7",
          "ticks": 5714,
          "time": 66.44186046511628,
          "velocity": 0.13385826771653545
        },
        {
          "duration": 1.8139534883720927,
          "durationTicks": 156,
          "midi": 95,
          "name": "B6",
          "ticks": 5718,
          "time": 66.48837209302326,
          "velocity": 0.4330708661417323
        },
        {
          "duration": 0.06976744186046346,
          "durationTicks": 6,
          "midi": 102,
          "name": "F#7",
          "ticks": 5720,
          "time": 66.51162790697674,
          "velocity": 0.12598425196850394
        },
        {
          "duration": 0.34883720930233153,
          "durationTicks": 30,
          "midi": 87,
          "name": "D#6",
          "ticks": 5724,
          "time": 66.55813953488372,
          "velocity": 0.15748031496062992
        },
        {
          "duration": 0.06976744186046346,
          "durationTicks": 6,
          "midi": 98,
          "name": "D7",
          "ticks": 5724,
          "time": 66.55813953488372,
          "velocity": 0.11811023622047244
        },
        {
          "duration": 0.03488372093023884,
          "durationTicks": 3,
          "midi": 103,
          "name": "G7",
          "ticks": 5725,
          "time": 66.56976744186046,
          "velocity": 0.11023622047244094
        },
        {
          "duration": 0.03488372093023884,
          "durationTicks": 3,
          "midi": 69,
          "name": "A4",
          "ticks": 5727,
          "time": 66.59302325581395,
          "velocity": 0.33070866141732286
        },
        {
          "duration": 0.40697674418603924,
          "durationTicks": 35,
          "midi": 102,
          "name": "F#7",
          "ticks": 5728,
          "time": 66.6046511627907,
          "velocity": 0.2047244094488189
        },
        {
          "duration": 0.581395348837205,
          "durationTicks": 50,
          "midi": 71,
          "name": "B4",
          "ticks": 5729,
          "time": 66.61627906976744,
          "velocity": 0.49606299212598426
        },
        {
          "duration": 0.09302325581396076,
          "durationTicks": 8,
          "midi": 78,
          "name": "F#5",
          "ticks": 5730,
          "time": 66.62790697674419,
          "velocity": 0.1968503937007874
        },
        {
          "duration": 0.08139534883721922,
          "durationTicks": 7,
          "midi": 98,
          "name": "D7",
          "ticks": 5732,
          "time": 66.65116279069767,
          "velocity": 0.13385826771653545
        },
        {
          "duration": 0.034883720930224626,
          "durationTicks": 3,
          "midi": 86,
          "name": "D6",
          "ticks": 5733,
          "time": 66.66279069767442,
          "velocity": 0.07086614173228346
        },
        {
          "duration": 0.023255813953483084,
          "durationTicks": 2,
          "midi": 69,
          "name": "A4",
          "ticks": 5735,
          "time": 66.68604651162791,
          "velocity": 0.25196850393700787
        },
        {
          "duration": 0.081395348837205,
          "durationTicks": 7,
          "midi": 93,
          "name": "A6",
          "ticks": 5735,
          "time": 66.68604651162791,
          "velocity": 0.07874015748031496
        },
        {
          "duration": 0.06976744186046346,
          "durationTicks": 6,
          "midi": 97,
          "name": "C#7",
          "ticks": 5736,
          "time": 66.69767441860465,
          "velocity": 0.09448818897637795
        },
        {
          "duration": 0.034883720930224626,
          "durationTicks": 3,
          "midi": 81,
          "name": "A5",
          "ticks": 5738,
          "time": 66.72093023255815,
          "velocity": 0.08661417322834646
        },
        {
          "duration": 1.023255813953483,
          "durationTicks": 88,
          "midi": 78,
          "name": "F#5",
          "ticks": 5740,
          "time": 66.74418604651163,
          "velocity": 0.2755905511811024
        },
        {
          "duration": 0.19767441860464885,
          "durationTicks": 17,
          "midi": 74,
          "name": "D5",
          "ticks": 5741,
          "time": 66.75581395348837,
          "velocity": 0.2125984251968504
        },
        {
          "duration": 0.04651162790698038,
          "durationTicks": 4,
          "midi": 68,
          "name": "G#4",
          "ticks": 5742,
          "time": 66.76744186046511,
          "velocity": 0.1889763779527559
        },
        {
          "duration": 0.04651162790698038,
          "durationTicks": 4,
          "midi": 98,
          "name": "D7",
          "ticks": 5745,
          "time": 66.80232558139535,
          "velocity": 0.12598425196850394
        },
        {
          "duration": 0.03488372093023884,
          "durationTicks": 3,
          "midi": 82,
          "name": "A#5",
          "ticks": 5746,
          "time": 66.81395348837209,
          "velocity": 0.11811023622047244
        },
        {
          "duration": 0.08139534883721922,
          "durationTicks": 7,
          "midi": 100,
          "name": "E7",
          "ticks": 5747,
          "time": 66.82558139534883,
          "velocity": 0.14173228346456693
        },
        {
          "duration": 0.06976744186046346,
          "durationTicks": 6,
          "midi": 68,
          "name": "G#4",
          "ticks": 5749,
          "time": 66.84883720930233,
          "velocity": 0.3228346456692913
        },
        {
          "duration": 0.034883720930224626,
          "durationTicks": 3,
          "midi": 81,
          "name": "A5",
          "ticks": 5749,
          "time": 66.84883720930233,
          "velocity": 0.2047244094488189
        },
        {
          "duration": 0.25581395348837077,
          "durationTicks": 22,
          "midi": 40,
          "name": "E2",
          "ticks": 5751,
          "time": 66.87209302325581,
          "velocity": 0.2755905511811024
        },
        {
          "duration": 0.03488372093023884,
          "durationTicks": 3,
          "midi": 98,
          "name": "D7",
          "ticks": 5751,
          "time": 66.87209302325581,
          "velocity": 0.11023622047244094
        },
        {
          "duration": 0.03488372093023884,
          "durationTicks": 3,
          "midi": 93,
          "name": "A6",
          "ticks": 5752,
          "time": 66.88372093023256,
          "velocity": 0.09448818897637795
        },
        {
          "duration": 0.023255813953483084,
          "durationTicks": 2,
          "midi": 69,
          "name": "A4",
          "ticks": 5755,
          "time": 66.9186046511628,
          "velocity": 0.3464566929133858
        },
        {
          "duration": 0.5465116279069804,
          "durationTicks": 47,
          "midi": 92,
          "name": "G#6",
          "ticks": 5756,
          "time": 66.93023255813954,
          "velocity": 0.3228346456692913
        },
        {
          "duration": 0.04651162790698038,
          "durationTicks": 4,
          "midi": 81,
          "name": "A5",
          "ticks": 5758,
          "time": 66.95348837209302,
          "velocity": 0.16535433070866143
        },
        {
          "duration": 0.09302325581396076,
          "durationTicks": 8,
          "midi": 68,
          "name": "G#4",
          "ticks": 5759,
          "time": 66.96511627906976,
          "velocity": 0.31496062992125984
        },
        {
          "duration": 0.11627906976744384,
          "durationTicks": 10,
          "midi": 87,
          "name": "D#6",
          "ticks": 5759,
          "time": 66.96511627906976,
          "velocity": 0.11811023622047244
        },
        {
          "duration": 0.27906976744186807,
          "durationTicks": 24,
          "midi": 99,
          "name": "D#7",
          "ticks": 5759,
          "time": 66.96511627906976,
          "velocity": 0.1732283464566929
        },
        {
          "duration": 0.1860465116279073,
          "durationTicks": 16,
          "midi": 74,
          "name": "D5",
          "ticks": 5760,
          "time": 66.97674418604652,
          "velocity": 0.1968503937007874
        },
        {
          "duration": 0.10465116279068809,
          "durationTicks": 9,
          "midi": 98,
          "name": "D7",
          "ticks": 5765,
          "time": 67.03488372093024,
          "velocity": 0.14173228346456693
        },
        {
          "duration": 0.034883720930224626,
          "durationTicks": 3,
          "midi": 81,
          "name": "A5",
          "ticks": 5766,
          "time": 67.04651162790698,
          "velocity": 0.08661417322834646
        },
        {
          "duration": 0.2325581395348877,
          "durationTicks": 20,
          "midi": 102,
          "name": "F#7",
          "ticks": 5768,
          "time": 67.06976744186046,
          "velocity": 0.25196850393700787
        },
        {
          "duration": 0.03488372093023884,
          "durationTicks": 3,
          "midi": 93,
          "name": "A6",
          "ticks": 5774,
          "time": 67.13953488372093,
          "velocity": 0.09448818897637795
        },
        {
          "duration": 0.03488372093023884,
          "durationTicks": 3,
          "midi": 40,
          "name": "E2",
          "ticks": 5775,
          "time": 67.15116279069767,
          "velocity": 0.2755905511811024
        },
        {
          "duration": 0.06976744186046346,
          "durationTicks": 6,
          "midi": 98,
          "name": "D7",
          "ticks": 5776,
          "time": 67.16279069767442,
          "velocity": 0.2125984251968504
        },
        {
          "duration": 0.04651162790698038,
          "durationTicks": 4,
          "midi": 40,
          "name": "E2",
          "ticks": 5779,
          "time": 67.19767441860465,
          "velocity": 0.25984251968503935
        },
        {
          "duration": 0.13953488372092693,
          "durationTicks": 12,
          "midi": 87,
          "name": "D#6",
          "ticks": 5779,
          "time": 67.19767441860465,
          "velocity": 0.13385826771653545
        },
        {
          "duration": 0.023255813953483084,
          "durationTicks": 2,
          "midi": 41,
          "name": "F2",
          "ticks": 5783,
          "time": 67.24418604651163,
          "velocity": 0.25984251968503935
        },
        {
          "duration": 0.04651162790698038,
          "durationTicks": 4,
          "midi": 68,
          "name": "G#4",
          "ticks": 5784,
          "time": 67.25581395348837,
          "velocity": 0.13385826771653545
        },
        {
          "duration": 0.05813953488372192,
          "durationTicks": 5,
          "midi": 99,
          "name": "D#7",
          "ticks": 5785,
          "time": 67.26744186046511,
          "velocity": 0.25984251968503935
        },
        {
          "duration": 0.2674418604651265,
          "durationTicks": 23,
          "midi": 71,
          "name": "B4",
          "ticks": 5786,
          "time": 67.27906976744185,
          "velocity": 0.5275590551181102
        },
        {
          "duration": 0.05813953488372192,
          "durationTicks": 5,
          "midi": 40,
          "name": "E2",
          "ticks": 5788,
          "time": 67.30232558139535,
          "velocity": 0.25984251968503935
        },
        {
          "duration": 0.05813953488372192,
          "durationTicks": 5,
          "midi": 99,
          "name": "D#7",
          "ticks": 5791,
          "time": 67.33720930232558,
          "velocity": 0.2204724409448819
        },
        {
          "duration": 0.023255813953483084,
          "durationTicks": 2,
          "midi": 41,
          "name": "F2",
          "ticks": 5793,
          "time": 67.36046511627907,
          "velocity": 0.28346456692913385
        },
        {
          "duration": 0.4534883720930196,
          "durationTicks": 39,
          "midi": 68,
          "name": "G#4",
          "ticks": 5793,
          "time": 67.36046511627907,
          "velocity": 0.23622047244094488
        },
        {
          "duration": 0.081395348837205,
          "durationTicks": 7,
          "midi": 98,
          "name": "D7",
          "ticks": 5794,
          "time": 67.37209302325581,
          "velocity": 0.15748031496062992
        },
        {
          "duration": 0.023255813953497295,
          "durationTicks": 2,
          "midi": 39,
          "name": "D#2",
          "ticks": 5796,
          "time": 67.3953488372093,
          "velocity": 0.2440944881889764
        },
        {
          "duration": 0.15116279069768268,
          "durationTicks": 13,
          "midi": 74,
          "name": "D5",
          "ticks": 5796,
          "time": 67.3953488372093,
          "velocity": 0.14960629921259844
        },
        {
          "duration": 0.034883720930224626,
          "durationTicks": 3,
          "midi": 81,
          "name": "A5",
          "ticks": 5797,
          "time": 67.40697674418605,
          "velocity": 0.08661417322834646
        },
        {
          "duration": 0.1860465116279073,
          "durationTicks": 16,
          "midi": 87,
          "name": "D#6",
          "ticks": 5798,
          "time": 67.4186046511628,
          "velocity": 0.11023622047244094
        },
        {
          "duration": 0.19767441860464885,
          "durationTicks": 17,
          "midi": 99,
          "name": "D#7",
          "ticks": 5798,
          "time": 67.4186046511628,
          "velocity": 0.2440944881889764
        },
        {
          "duration": 0.04651162790698038,
          "durationTicks": 4,
          "midi": 40,
          "name": "E2",
          "ticks": 5800,
          "time": 67.44186046511628,
          "velocity": 0.2992125984251969
        },
        {
          "duration": 0.09302325581396076,
          "durationTicks": 8,
          "midi": 82,
          "name": "A#5",
          "ticks": 5800,
          "time": 67.44186046511628,
          "velocity": 0.07086614173228346
        },
        {
          "duration": 0.66279069767441,
          "durationTicks": 57,
          "midi": 98,
          "name": "D7",
          "ticks": 5804,
          "time": 67.48837209302326,
          "velocity": 0.1968503937007874
        },
        {
          "duration": 0.13953488372092693,
          "durationTicks": 12,
          "midi": 40,
          "name": "E2",
          "ticks": 5805,
          "time": 67.5,
          "velocity": 0.25984251968503935
        },
        {
          "duration": 0.8255813953488342,
          "durationTicks": 71,
          "midi": 92,
          "name": "G#6",
          "ticks": 5805,
          "time": 67.5,
          "velocity": 0.33858267716535434
        },
        {
          "duration": 1.1511627906976685,
          "durationTicks": 99,
          "midi": 71,
          "name": "B4",
          "ticks": 5810,
          "time": 67.55813953488372,
          "velocity": 0.6062992125984252
        },
        {
          "duration": 0.15116279069766847,
          "durationTicks": 13,
          "midi": 82,
          "name": "A#5",
          "ticks": 5814,
          "time": 67.6046511627907,
          "velocity": 0.10236220472440945
        },
        {
          "duration": 0.06976744186046346,
          "durationTicks": 6,
          "midi": 99,
          "name": "D#7",
          "ticks": 5817,
          "time": 67.63953488372093,
          "velocity": 0.28346456692913385
        },
        {
          "duration": 0.03488372093023884,
          "durationTicks": 3,
          "midi": 87,
          "name": "D#6",
          "ticks": 5821,
          "time": 67.68604651162791,
          "velocity": 0.07874015748031496
        },
        {
          "duration": 0.034883720930224626,
          "durationTicks": 3,
          "midi": 99,
          "name": "D#7",
          "ticks": 5825,
          "time": 67.73255813953489,
          "velocity": 0.09448818897637795
        },
        {
          "duration": 0.081395348837205,
          "durationTicks": 7,
          "midi": 40,
          "name": "E2",
          "ticks": 5826,
          "time": 67.74418604651163,
          "velocity": 0.1732283464566929
        },
        {
          "duration": 0.11627906976744384,
          "durationTicks": 10,
          "midi": 99,
          "name": "D#7",
          "ticks": 5830,
          "time": 67.79069767441861,
          "velocity": 0.1889763779527559
        },
        {
          "duration": 0.06976744186046346,
          "durationTicks": 6,
          "midi": 74,
          "name": "D5",
          "ticks": 5832,
          "time": 67.81395348837209,
          "velocity": 0.07874015748031496
        },
        {
          "duration": 0.5697674418604635,
          "durationTicks": 49,
          "midi": 78,
          "name": "F#5",
          "ticks": 5832,
          "time": 67.81395348837209,
          "velocity": 0.2755905511811024
        },
        {
          "duration": 0.09302325581396076,
          "durationTicks": 8,
          "midi": 40,
          "name": "E2",
          "ticks": 5834,
          "time": 67.83720930232558,
          "velocity": 0.18110236220472442
        },
        {
          "duration": 0.05813953488372192,
          "durationTicks": 5,
          "midi": 87,
          "name": "D#6",
          "ticks": 5839,
          "time": 67.8953488372093,
          "velocity": 0.08661417322834646
        },
        {
          "duration": 0.5116279069767415,
          "durationTicks": 44,
          "midi": 99,
          "name": "D#7",
          "ticks": 5842,
          "time": 67.93023255813954,
          "velocity": 0.1732283464566929
        },
        {
          "duration": 0.06976744186047767,
          "durationTicks": 6,
          "midi": 68,
          "name": "G#4",
          "ticks": 5845,
          "time": 67.96511627906976,
          "velocity": 0.11023622047244094
        },
        {
          "duration": 0.03488372093023884,
          "durationTicks": 3,
          "midi": 102,
          "name": "F#7",
          "ticks": 5855,
          "time": 68.0813953488372,
          "velocity": 0.07086614173228346
        },
        {
          "duration": 0.04651162790698038,
          "durationTicks": 4,
          "midi": 41,
          "name": "F2",
          "ticks": 5859,
          "time": 68.12790697674419,
          "velocity": 0.12598425196850394
        },
        {
          "duration": 0.3953488372092977,
          "durationTicks": 34,
          "midi": 88,
          "name": "E6",
          "ticks": 5862,
          "time": 68.16279069767442,
          "velocity": 0.25196850393700787
        },
        {
          "duration": 0.3720930232558146,
          "durationTicks": 32,
          "midi": 68,
          "name": "G#4",
          "ticks": 5863,
          "time": 68.17441860465117,
          "velocity": 0.2125984251968504
        },
        {
          "duration": 0.09302325581394655,
          "durationTicks": 8,
          "midi": 98,
          "name": "D7",
          "ticks": 5864,
          "time": 68.18604651162791,
          "velocity": 0.15748031496062992
        },
        {
          "duration": 0.03488372093023884,
          "durationTicks": 3,
          "midi": 40,
          "name": "E2",
          "ticks": 5891,
          "time": 68.5,
          "velocity": 0.1732283464566929
        },
        {
          "duration": 0.15116279069768268,
          "durationTicks": 13,
          "midi": 59,
          "name": "B3",
          "ticks": 5892,
          "time": 68.51162790697674,
          "velocity": 0.1968503937007874
        },
        {
          "duration": 0.12790697674418539,
          "durationTicks": 11,
          "midi": 90,
          "name": "F#6",
          "ticks": 5892,
          "time": 68.51162790697674,
          "velocity": 0.14960629921259844
        },
        {
          "duration": 0.09302325581396076,
          "durationTicks": 8,
          "midi": 78,
          "name": "F#5",
          "ticks": 5897,
          "time": 68.56976744186046,
          "velocity": 0.07086614173228346
        },
        {
          "duration": 0.08139534883721922,
          "durationTicks": 7,
          "midi": 68,
          "name": "G#4",
          "ticks": 5898,
          "time": 68.5813953488372,
          "velocity": 0.11811023622047244
        },
        {
          "duration": 0.023255813953483084,
          "durationTicks": 2,
          "midi": 74,
          "name": "D5",
          "ticks": 5905,
          "time": 68.66279069767442,
          "velocity": 0.23622047244094488
        },
        {
          "duration": 1.9651162790697612,
          "durationTicks": 169,
          "midi": 81,
          "name": "A5",
          "ticks": 5905,
          "time": 68.66279069767442,
          "velocity": 0.48031496062992124
        },
        {
          "duration": 0.023255813953483084,
          "durationTicks": 2,
          "midi": 53,
          "name": "F3",
          "ticks": 5906,
          "time": 68.67441860465117,
          "velocity": 0.5039370078740157
        },
        {
          "duration": 1.1860465116279073,
          "durationTicks": 102,
          "midi": 90,
          "name": "F#6",
          "ticks": 5906,
          "time": 68.67441860465117,
          "velocity": 0.3700787401574803
        },
        {
          "duration": 1.1976744186046488,
          "durationTicks": 103,
          "midi": 95,
          "name": "B6",
          "ticks": 5906,
          "time": 68.67441860465117,
          "velocity": 0.3937007874015748
        },
        {
          "duration": 0.16279069767442422,
          "durationTicks": 14,
          "midi": 66,
          "name": "F#4",
          "ticks": 5907,
          "time": 68.68604651162791,
          "velocity": 0.1732283464566929
        },
        {
          "duration": 1.5465116279069804,
          "durationTicks": 133,
          "midi": 69,
          "name": "A4",
          "ticks": 5907,
          "time": 68.68604651162791,
          "velocity": 0.48031496062992124
        },
        {
          "duration": 0.1860465116279073,
          "durationTicks": 16,
          "midi": 73,
          "name": "C#5",
          "ticks": 5907,
          "time": 68.68604651162791,
          "velocity": 0.3228346456692913
        },
        {
          "duration": 0.06976744186046346,
          "durationTicks": 6,
          "midi": 54,
          "name": "F#3",
          "ticks": 5908,
          "time": 68.69767441860465,
          "velocity": 0.4881889763779528
        },
        {
          "duration": 0.04651162790698038,
          "durationTicks": 4,
          "midi": 40,
          "name": "E2",
          "ticks": 5909,
          "time": 68.70930232558139,
          "velocity": 0.2755905511811024
        },
        {
          "duration": 0.5697674418604635,
          "durationTicks": 49,
          "midi": 99,
          "name": "D#7",
          "ticks": 5909,
          "time": 68.70930232558139,
          "velocity": 0.25196850393700787
        },
        {
          "duration": 0.05813953488372192,
          "durationTicks": 5,
          "midi": 71,
          "name": "B4",
          "ticks": 5912,
          "time": 68.74418604651163,
          "velocity": 0.18110236220472442
        },
        {
          "duration": 0.023255813953483084,
          "durationTicks": 2,
          "midi": 41,
          "name": "F2",
          "ticks": 5913,
          "time": 68.75581395348837,
          "velocity": 0.28346456692913385
        },
        {
          "duration": 0.03488372093023884,
          "durationTicks": 3,
          "midi": 64,
          "name": "E4",
          "ticks": 5913,
          "time": 68.75581395348837,
          "velocity": 0.11023622047244094
        },
        {
          "duration": 0.09302325581396076,
          "durationTicks": 8,
          "midi": 54,
          "name": "F#3",
          "ticks": 5915,
          "time": 68.77906976744185,
          "velocity": 0.4881889763779528
        },
        {
          "duration": 0.04651162790698038,
          "durationTicks": 4,
          "midi": 64,
          "name": "E4",
          "ticks": 5917,
          "time": 68.80232558139535,
          "velocity": 0.13385826771653545
        },
        {
          "duration": 0.03488372093023884,
          "durationTicks": 3,
          "midi": 41,
          "name": "F2",
          "ticks": 5919,
          "time": 68.82558139534883,
          "velocity": 0.2755905511811024
        },
        {
          "duration": 0.06976744186046346,
          "durationTicks": 6,
          "midi": 71,
          "name": "B4",
          "ticks": 5919,
          "time": 68.82558139534883,
          "velocity": 0.16535433070866143
        },
        {
          "duration": 0.2093023255813904,
          "durationTicks": 18,
          "midi": 64,
          "name": "E4",
          "ticks": 5922,
          "time": 68.86046511627907,
          "velocity": 0.1732283464566929
        },
        {
          "duration": 1.6976744186046488,
          "durationTicks": 146,
          "midi": 54,
          "name": "F#3",
          "ticks": 5924,
          "time": 68.88372093023256,
          "velocity": 0.4645669291338583
        },
        {
          "duration": 0.04651162790698038,
          "durationTicks": 4,
          "midi": 41,
          "name": "F2",
          "ticks": 5925,
          "time": 68.8953488372093,
          "velocity": 0.25196850393700787
        },
        {
          "duration": 1.9302325581395223,
          "durationTicks": 166,
          "midi": 75,
          "name": "D#5",
          "ticks": 5926,
          "time": 68.90697674418605,
          "velocity": 0.18110236220472442
        },
        {
          "duration": 0.09302325581394655,
          "durationTicks": 8,
          "midi": 71,
          "name": "B4",
          "ticks": 5927,
          "time": 68.9186046511628,
          "velocity": 0.16535433070866143
        },
        {
          "duration": 0.034883720930224626,
          "durationTicks": 3,
          "midi": 61,
          "name": "C#4",
          "ticks": 5928,
          "time": 68.93023255813954,
          "velocity": 0.07874015748031496
        },
        {
          "duration": 0.023255813953497295,
          "durationTicks": 2,
          "midi": 40,
          "name": "E2",
          "ticks": 5931,
          "time": 68.96511627906976,
          "velocity": 0.25196850393700787
        },
        {
          "duration": 0.023255813953483084,
          "durationTicks": 2,
          "midi": 41,
          "name": "F2",
          "ticks": 5933,
          "time": 68.98837209302326,
          "velocity": 0.25984251968503935
        },
        {
          "duration": 0.034883720930224626,
          "durationTicks": 3,
          "midi": 41,
          "name": "F2",
          "ticks": 5938,
          "time": 69.04651162790698,
          "velocity": 0.25984251968503935
        },
        {
          "duration": 0.11627906976744384,
          "durationTicks": 10,
          "midi": 97,
          "name": "C#7",
          "ticks": 5938,
          "time": 69.04651162790698,
          "velocity": 0.14173228346456693
        },
        {
          "duration": 0.034883720930224626,
          "durationTicks": 3,
          "midi": 61,
          "name": "C#4",
          "ticks": 5939,
          "time": 69.05813953488372,
          "velocity": 0.07086614173228346
        },
        {
          "duration": 0.13953488372094114,
          "durationTicks": 12,
          "midi": 100,
          "name": "E7",
          "ticks": 5947,
          "time": 69.15116279069767,
          "velocity": 0.14960629921259844
        },
        {
          "duration": 0.06976744186046346,
          "durationTicks": 6,
          "midi": 73,
          "name": "C#5",
          "ticks": 5949,
          "time": 69.17441860465117,
          "velocity": 0.11023622047244094
        },
        {
          "duration": 0.03488372093023884,
          "durationTicks": 3,
          "midi": 42,
          "name": "F#2",
          "ticks": 5952,
          "time": 69.20930232558139,
          "velocity": 0.18110236220472442
        },
        {
          "duration": 0.03488372093023884,
          "durationTicks": 3,
          "midi": 71,
          "name": "B4",
          "ticks": 5952,
          "time": 69.20930232558139,
          "velocity": 0.09448818897637795
        },
        {
          "duration": 0.081395348837205,
          "durationTicks": 7,
          "midi": 42,
          "name": "F#2",
          "ticks": 5956,
          "time": 69.25581395348837,
          "velocity": 0.2283464566929134
        },
        {
          "duration": 0.1279069767441996,
          "durationTicks": 11,
          "midi": 97,
          "name": "C#7",
          "ticks": 5958,
          "time": 69.27906976744185,
          "velocity": 0.23622047244094488
        },
        {
          "duration": 0.034883720930224626,
          "durationTicks": 3,
          "midi": 88,
          "name": "E6",
          "ticks": 5960,
          "time": 69.30232558139535,
          "velocity": 0.11023622047244094
        },
        {
          "duration": 0.11627906976744384,
          "durationTicks": 10,
          "midi": 73,
          "name": "C#5",
          "ticks": 5961,
          "time": 69.31395348837209,
          "velocity": 0.18110236220472442
        },
        {
          "duration": 0.13953488372092693,
          "durationTicks": 12,
          "midi": 100,
          "name": "E7",
          "ticks": 5961,
          "time": 69.31395348837209,
          "velocity": 0.2283464566929134
        },
        {
          "duration": 0.10465116279068809,
          "durationTicks": 9,
          "midi": 42,
          "name": "F#2",
          "ticks": 5965,
          "time": 69.36046511627907,
          "velocity": 0.2283464566929134
        },
        {
          "duration": 0.11627906976744384,
          "durationTicks": 10,
          "midi": 61,
          "name": "C#4",
          "ticks": 5967,
          "time": 69.38372093023256,
          "velocity": 0.13385826771653545
        },
        {
          "duration": 0.12790697674418539,
          "durationTicks": 11,
          "midi": 88,
          "name": "E6",
          "ticks": 5968,
          "time": 69.3953488372093,
          "velocity": 0.18110236220472442
        },
        {
          "duration": 0.27906976744186807,
          "durationTicks": 24,
          "midi": 97,
          "name": "C#7",
          "ticks": 5972,
          "time": 69.44186046511628,
          "velocity": 0.2440944881889764
        },
        {
          "duration": 0.1860465116279073,
          "durationTicks": 16,
          "midi": 73,
          "name": "C#5",
          "ticks": 5974,
          "time": 69.46511627906976,
          "velocity": 0.2047244094488189
        },
        {
          "duration": 0.1860465116279073,
          "durationTicks": 16,
          "midi": 100,
          "name": "E7",
          "ticks": 5975,
          "time": 69.47674418604652,
          "velocity": 0.2125984251968504
        },
        {
          "duration": 0.8720930232558146,
          "durationTicks": 75,
          "midi": 88,
          "name": "E6",
          "ticks": 5981,
          "time": 69.54651162790698,
          "velocity": 0.30708661417322836
        },
        {
          "duration": 0.06976744186046346,
          "durationTicks": 6,
          "midi": 61,
          "name": "C#4",
          "ticks": 5989,
          "time": 69.63953488372093,
          "velocity": 0.16535433070866143
        },
        {
          "duration": 0.36046511627905886,
          "durationTicks": 31,
          "midi": 85,
          "name": "C#6",
          "ticks": 5991,
          "time": 69.66279069767442,
          "velocity": 0.2204724409448819
        },
        {
          "duration": 0.03488372093023884,
          "durationTicks": 3,
          "midi": 42,
          "name": "F#2",
          "ticks": 5994,
          "time": 69.69767441860465,
          "velocity": 0.10236220472440945
        },
        {
          "duration": 1.0348837209302246,
          "durationTicks": 89,
          "midi": 61,
          "name": "C#4",
          "ticks": 5996,
          "time": 69.72093023255815,
          "velocity": 0.5748031496062992
        },
        {
          "duration": 0.19767441860464885,
          "durationTicks": 17,
          "midi": 42,
          "name": "F#2",
          "ticks": 6000,
          "time": 69.76744186046511,
          "velocity": 0.15748031496062992
        },
        {
          "duration": 0.23255813953487348,
          "durationTicks": 20,
          "midi": 42,
          "name": "F#2",
          "ticks": 6024,
          "time": 70.04651162790698,
          "velocity": 0.2204724409448819
        },
        {
          "duration": 0.06976744186046346,
          "durationTicks": 6,
          "midi": 97,
          "name": "C#7",
          "ticks": 6026,
          "time": 70.06976744186046,
          "velocity": 0.13385826771653545
        },
        {
          "duration": 0.11627906976744384,
          "durationTicks": 10,
          "midi": 85,
          "name": "C#6",
          "ticks": 6028,
          "time": 70.09302325581395,
          "velocity": 0.14173228346456693
        },
        {
          "duration": 0.03488372093023884,
          "durationTicks": 3,
          "midi": 80,
          "name": "G#5",
          "ticks": 6031,
          "time": 70.12790697674419,
          "velocity": 0.09448818897637795
        },
        {
          "duration": 0.23255813953487348,
          "durationTicks": 20,
          "midi": 85,
          "name": "C#6",
          "ticks": 6040,
          "time": 70.23255813953489,
          "velocity": 0.1968503937007874
        },
        {
          "duration": 0.5930232558139608,
          "durationTicks": 51,
          "midi": 69,
          "name": "A4",
          "ticks": 6043,
          "time": 70.26744186046511,
          "velocity": 0.31496062992125984
        },
        {
          "duration": 0.11627906976744384,
          "durationTicks": 10,
          "midi": 43,
          "name": "G2",
          "ticks": 6044,
          "time": 70.27906976744185,
          "velocity": 0.10236220472440945
        },
        {
          "duration": 0.27906976744185386,
          "durationTicks": 24,
          "midi": 42,
          "name": "F#2",
          "ticks": 6057,
          "time": 70.43023255813954,
          "velocity": 0.1968503937007874
        },
        {
          "duration": 0.5581395348837219,
          "durationTicks": 48,
          "midi": 88,
          "name": "E6",
          "ticks": 6059,
          "time": 70.45348837209302,
          "velocity": 0.15748031496062992
        },
        {
          "duration": 0.08139534883721922,
          "durationTicks": 7,
          "midi": 80,
          "name": "G#5",
          "ticks": 6070,
          "time": 70.5813953488372,
          "velocity": 0.15748031496062992
        },
        {
          "duration": 0.05813953488372192,
          "durationTicks": 5,
          "midi": 43,
          "name": "G2",
          "ticks": 6081,
          "time": 70.70930232558139,
          "velocity": 0.07874015748031496
        },
        {
          "duration": 0.4418604651162781,
          "durationTicks": 38,
          "midi": 54,
          "name": "F#3",
          "ticks": 6081,
          "time": 70.70930232558139,
          "velocity": 0.2125984251968504
        },
        {
          "duration": 1.058139534883722,
          "durationTicks": 91,
          "midi": 80,
          "name": "G#5",
          "ticks": 6084,
          "time": 70.74418604651163,
          "velocity": 0.5039370078740157
        },
        {
          "duration": 0.32558139534883423,
          "durationTicks": 28,
          "midi": 64,
          "name": "E4",
          "ticks": 6085,
          "time": 70.75581395348837,
          "velocity": 0.6220472440944882
        },
        {
          "duration": 0.04651162790698038,
          "durationTicks": 4,
          "midi": 83,
          "name": "B5",
          "ticks": 6086,
          "time": 70.76744186046511,
          "velocity": 0.07086614173228346
        },
        {
          "duration": 0.04651162790696617,
          "durationTicks": 4,
          "midi": 69,
          "name": "A4",
          "ticks": 6098,
          "time": 70.90697674418605,
          "velocity": 0.07086614173228346
        },
        {
          "duration": 0.8604651162790589,
          "durationTicks": 74,
          "midi": 42,
          "name": "F#2",
          "ticks": 6104,
          "time": 70.97674418604652,
          "velocity": 0.4645669291338583
        },
        {
          "duration": 0.04651162790696617,
          "durationTicks": 4,
          "midi": 61,
          "name": "C#4",
          "ticks": 6104,
          "time": 70.97674418604652,
          "velocity": 0.2992125984251969
        },
        {
          "duration": 0.13953488372092693,
          "durationTicks": 12,
          "midi": 69,
          "name": "A4",
          "ticks": 6105,
          "time": 70.98837209302326,
          "velocity": 0.14960629921259844
        },
        {
          "duration": 2.7674418604651265,
          "durationTicks": 238,
          "midi": 61,
          "name": "C#4",
          "ticks": 6113,
          "time": 71.0813953488372,
          "velocity": 0.44881889763779526
        },
        {
          "duration": 0.03488372093023884,
          "durationTicks": 3,
          "midi": 64,
          "name": "E4",
          "ticks": 6114,
          "time": 71.09302325581395,
          "velocity": 0.25196850393700787
        },
        {
          "duration": 0.04651162790698038,
          "durationTicks": 4,
          "midi": 64,
          "name": "E4",
          "ticks": 6118,
          "time": 71.13953488372093,
          "velocity": 0.31496062992125984
        },
        {
          "duration": 0.17441860465116577,
          "durationTicks": 15,
          "midi": 69,
          "name": "A4",
          "ticks": 6123,
          "time": 71.19767441860465,
          "velocity": 0.12598425196850394
        },
        {
          "duration": 0.15116279069768268,
          "durationTicks": 13,
          "midi": 64,
          "name": "E4",
          "ticks": 6124,
          "time": 71.20930232558139,
          "velocity": 0.3937007874015748
        },
        {
          "duration": 0.08139534883721922,
          "durationTicks": 7,
          "midi": 95,
          "name": "B6",
          "ticks": 6135,
          "time": 71.33720930232558,
          "velocity": 0.12598425196850394
        },
        {
          "duration": 0.04651162790696617,
          "durationTicks": 4,
          "midi": 89,
          "name": "F6",
          "ticks": 6136,
          "time": 71.34883720930233,
          "velocity": 0.13385826771653545
        },
        {
          "duration": 0.13953488372092693,
          "durationTicks": 12,
          "midi": 91,
          "name": "G6",
          "ticks": 6136,
          "time": 71.34883720930233,
          "velocity": 0.07086614173228346
        },
        {
          "duration": 0.023255813953497295,
          "durationTicks": 2,
          "midi": 64,
          "name": "E4",
          "ticks": 6140,
          "time": 71.3953488372093,
          "velocity": 0.2677165354330709
        },
        {
          "duration": 0.081395348837205,
          "durationTicks": 7,
          "midi": 70,
          "name": "A#4",
          "ticks": 6141,
          "time": 71.40697674418605,
          "velocity": 0.08661417322834646
        },
        {
          "duration": 0.06976744186046346,
          "durationTicks": 6,
          "midi": 88,
          "name": "E6",
          "ticks": 6147,
          "time": 71.47674418604652,
          "velocity": 0.10236220472440945
        },
        {
          "duration": 0.2674418604651123,
          "durationTicks": 23,
          "midi": 69,
          "name": "A4",
          "ticks": 6148,
          "time": 71.48837209302326,
          "velocity": 0.23622047244094488
        },
        {
          "duration": 0.13953488372092693,
          "durationTicks": 12,
          "midi": 95,
          "name": "B6",
          "ticks": 6148,
          "time": 71.48837209302326,
          "velocity": 0.1889763779527559
        },
        {
          "duration": 0.04651162790698038,
          "durationTicks": 4,
          "midi": 89,
          "name": "F6",
          "ticks": 6149,
          "time": 71.5,
          "velocity": 0.10236220472440945
        },
        {
          "duration": 0.09302325581396076,
          "durationTicks": 8,
          "midi": 89,
          "name": "F6",
          "ticks": 6155,
          "time": 71.56976744186046,
          "velocity": 0.11811023622047244
        },
        {
          "duration": 0.03488372093023884,
          "durationTicks": 3,
          "midi": 64,
          "name": "E4",
          "ticks": 6157,
          "time": 71.59302325581395,
          "velocity": 0.30708661417322836
        },
        {
          "duration": 0.2093023255813904,
          "durationTicks": 18,
          "midi": 88,
          "name": "E6",
          "ticks": 6159,
          "time": 71.61627906976744,
          "velocity": 0.1732283464566929
        },
        {
          "duration": 0.034883720930224626,
          "durationTicks": 3,
          "midi": 95,
          "name": "B6",
          "ticks": 6164,
          "time": 71.67441860465117,
          "velocity": 0.14960629921259844
        },
        {
          "duration": 0.081395348837205,
          "durationTicks": 7,
          "midi": 89,
          "name": "F6",
          "ticks": 6165,
          "time": 71.68604651162791,
          "velocity": 0.14173228346456693
        },
        {
          "duration": 0.2093023255813904,
          "durationTicks": 18,
          "midi": 91,
          "name": "G6",
          "ticks": 6168,
          "time": 71.72093023255815,
          "velocity": 0.08661417322834646
        },
        {
          "duration": 0.06976744186046346,
          "durationTicks": 6,
          "midi": 95,
          "name": "B6",
          "ticks": 6170,
          "time": 71.74418604651163,
          "velocity": 0.18110236220472442
        },
        {
          "duration": 0.023255813953497295,
          "durationTicks": 2,
          "midi": 64,
          "name": "E4",
          "ticks": 6172,
          "time": 71.76744186046511,
          "velocity": 0.25196850393700787
        },
        {
          "duration": 0.05813953488372192,
          "durationTicks": 5,
          "midi": 89,
          "name": "F6",
          "ticks": 6174,
          "time": 71.79069767441861,
          "velocity": 0.10236220472440945
        },
        {
          "duration": 0.05813953488372192,
          "durationTicks": 5,
          "midi": 55,
          "name": "G3",
          "ticks": 6175,
          "time": 71.80232558139535,
          "velocity": 0.25984251968503935
        },
        {
          "duration": 0.081395348837205,
          "durationTicks": 7,
          "midi": 95,
          "name": "B6",
          "ticks": 6179,
          "time": 71.84883720930233,
          "velocity": 0.10236220472440945
        },
        {
          "duration": 0.12790697674418539,
          "durationTicks": 11,
          "midi": 54,
          "name": "F#3",
          "ticks": 6180,
          "time": 71.86046511627907,
          "velocity": 0.36220472440944884
        },
        {
          "duration": 0.24418604651162923,
          "durationTicks": 21,
          "midi": 80,
          "name": "G#5",
          "ticks": 6180,
          "time": 71.86046511627907,
          "velocity": 0.2283464566929134
        },
        {
          "duration": 0.05813953488372192,
          "durationTicks": 5,
          "midi": 89,
          "name": "F6",
          "ticks": 6180,
          "time": 71.86046511627907,
          "velocity": 0.16535433070866143
        },
        {
          "duration": 0.5,
          "durationTicks": 43,
          "midi": 42,
          "name": "F#2",
          "ticks": 6181,
          "time": 71.87209302325581,
          "velocity": 0.4251968503937008
        },
        {
          "duration": 0.418604651162795,
          "durationTicks": 36,
          "midi": 66,
          "name": "F#4",
          "ticks": 6181,
          "time": 71.87209302325581,
          "velocity": 0.47244094488188976
        },
        {
          "duration": 0.5930232558139465,
          "durationTicks": 51,
          "midi": 69,
          "name": "A4",
          "ticks": 6181,
          "time": 71.87209302325581,
          "velocity": 0.25984251968503935
        },
        {
          "duration": 0.3372093023255758,
          "durationTicks": 29,
          "midi": 88,
          "name": "E6",
          "ticks": 6181,
          "time": 71.87209302325581,
          "velocity": 0.18110236220472442
        },
        {
          "duration": 0.05813953488372192,
          "durationTicks": 5,
          "midi": 95,
          "name": "B6",
          "ticks": 6189,
          "time": 71.96511627906976,
          "velocity": 0.11023622047244094
        },
        {
          "duration": 0.04651162790696617,
          "durationTicks": 4,
          "midi": 76,
          "name": "E5",
          "ticks": 6190,
          "time": 71.97674418604652,
          "velocity": 0.09448818897637795
        },
        {
          "duration": 0.30232558139535115,
          "durationTicks": 26,
          "midi": 95,
          "name": "B6",
          "ticks": 6196,
          "time": 72.04651162790698,
          "velocity": 0.15748031496062992
        },
        {
          "duration": 0.05813953488372192,
          "durationTicks": 5,
          "midi": 89,
          "name": "F6",
          "ticks": 6198,
          "time": 72.06976744186046,
          "velocity": 0.09448818897637795
        },
        {
          "duration": 0.023255813953483084,
          "durationTicks": 2,
          "midi": 53,
          "name": "F3",
          "ticks": 6202,
          "time": 72.11627906976744,
          "velocity": 0.25984251968503935
        },
        {
          "duration": 0.06976744186047767,
          "durationTicks": 6,
          "midi": 89,
          "name": "F6",
          "ticks": 6205,
          "time": 72.15116279069767,
          "velocity": 0.11811023622047244
        },
        {
          "duration": 0.16279069767441,
          "durationTicks": 14,
          "midi": 92,
          "name": "G#6",
          "ticks": 6207,
          "time": 72.17441860465117,
          "velocity": 0.13385826771653545
        },
        {
          "duration": 0.27906976744185386,
          "durationTicks": 24,
          "midi": 76,
          "name": "E5",
          "ticks": 6208,
          "time": 72.18604651162791,
          "velocity": 0.15748031496062992
        },
        {
          "duration": 0.05813953488372192,
          "durationTicks": 5,
          "midi": 80,
          "name": "G#5",
          "ticks": 6209,
          "time": 72.19767441860465,
          "velocity": 0.07086614173228346
        },
        {
          "duration": 0.12790697674418539,
          "durationTicks": 11,
          "midi": 91,
          "name": "G6",
          "ticks": 6213,
          "time": 72.24418604651163,
          "velocity": 0.13385826771653545
        },
        {
          "duration": 0.081395348837205,
          "durationTicks": 7,
          "midi": 89,
          "name": "F6",
          "ticks": 6214,
          "time": 72.25581395348837,
          "velocity": 0.14960629921259844
        },
        {
          "duration": 0.04651162790698038,
          "durationTicks": 4,
          "midi": 64,
          "name": "E4",
          "ticks": 6218,
          "time": 72.30232558139535,
          "velocity": 0.2283464566929134
        },
        {
          "duration": 0.1046511627907023,
          "durationTicks": 9,
          "midi": 80,
          "name": "G#5",
          "ticks": 6218,
          "time": 72.30232558139535,
          "velocity": 0.2283464566929134
        },
        {
          "duration": 0.04651162790698038,
          "durationTicks": 4,
          "midi": 64,
          "name": "E4",
          "ticks": 6223,
          "time": 72.36046511627907,
          "velocity": 0.2283464566929134
        },
        {
          "duration": 0.09302325581394655,
          "durationTicks": 8,
          "midi": 88,
          "name": "E6",
          "ticks": 6224,
          "time": 72.37209302325581,
          "velocity": 0.2283464566929134
        },
        {
          "duration": 0.04651162790698038,
          "durationTicks": 4,
          "midi": 95,
          "name": "B6",
          "ticks": 6224,
          "time": 72.37209302325581,
          "velocity": 0.12598425196850394
        },
        {
          "duration": 0.081395348837205,
          "durationTicks": 7,
          "midi": 89,
          "name": "F6",
          "ticks": 6225,
          "time": 72.38372093023256,
          "velocity": 0.10236220472440945
        },
        {
          "duration": 0.03488372093023884,
          "durationTicks": 3,
          "midi": 42,
          "name": "F#2",
          "ticks": 6226,
          "time": 72.3953488372093,
          "velocity": 0.14173228346456693
        },
        {
          "duration": 0.05813953488372192,
          "durationTicks": 5,
          "midi": 43,
          "name": "G2",
          "ticks": 6229,
          "time": 72.43023255813954,
          "velocity": 0.14173228346456693
        },
        {
          "duration": 0.17441860465116577,
          "durationTicks": 15,
          "midi": 80,
          "name": "G#5",
          "ticks": 6229,
          "time": 72.43023255813954,
          "velocity": 0.2283464566929134
        },
        {
          "duration": 0.09302325581394655,
          "durationTicks": 8,
          "midi": 91,
          "name": "G6",
          "ticks": 6233,
          "time": 72.47674418604652,
          "velocity": 0.12598425196850394
        },
        {
          "duration": 0.10465116279068809,
          "durationTicks": 9,
          "midi": 95,
          "name": "B6",
          "ticks": 6233,
          "time": 72.47674418604652,
          "velocity": 0.11811023622047244
        },
        {
          "duration": 0.15116279069766847,
          "durationTicks": 13,
          "midi": 42,
          "name": "F#2",
          "ticks": 6234,
          "time": 72.48837209302326,
          "velocity": 0.2440944881889764
        },
        {
          "duration": 0.04651162790698038,
          "durationTicks": 4,
          "midi": 76,
          "name": "E5",
          "ticks": 6234,
          "time": 72.48837209302326,
          "velocity": 0.12598425196850394
        },
        {
          "duration": 0.11627906976744384,
          "durationTicks": 10,
          "midi": 69,
          "name": "A4",
          "ticks": 6237,
          "time": 72.52325581395348,
          "velocity": 0.18110236220472442
        },
        {
          "duration": 0.1046511627907023,
          "durationTicks": 9,
          "midi": 88,
          "name": "E6",
          "ticks": 6237,
          "time": 72.52325581395348,
          "velocity": 0.1732283464566929
        },
        {
          "duration": 0.09302325581394655,
          "durationTicks": 8,
          "midi": 89,
          "name": "F6",
          "ticks": 6238,
          "time": 72.53488372093024,
          "velocity": 0.10236220472440945
        },
        {
          "duration": 0.04651162790698038,
          "durationTicks": 4,
          "midi": 76,
          "name": "E5",
          "ticks": 6240,
          "time": 72.55813953488372,
          "velocity": 0.11023622047244094
        },
        {
          "duration": 0.2325581395348877,
          "durationTicks": 20,
          "midi": 76,
          "name": "E5",
          "ticks": 6247,
          "time": 72.63953488372093,
          "velocity": 0.1889763779527559
        },
        {
          "duration": 0.03488372093023884,
          "durationTicks": 3,
          "midi": 95,
          "name": "B6",
          "ticks": 6248,
          "time": 72.65116279069767,
          "velocity": 0.10236220472440945
        },
        {
          "duration": 0.05813953488372192,
          "durationTicks": 5,
          "midi": 89,
          "name": "F6",
          "ticks": 6249,
          "time": 72.66279069767442,
          "velocity": 0.08661417322834646
        },
        {
          "duration": 0.081395348837205,
          "durationTicks": 7,
          "midi": 42,
          "name": "F#2",
          "ticks": 6250,
          "time": 72.67441860465117,
          "velocity": 0.18110236220472442
        },
        {
          "duration": 0.081395348837205,
          "durationTicks": 7,
          "midi": 80,
          "name": "G#5",
          "ticks": 6250,
          "time": 72.67441860465117,
          "velocity": 0.1889763779527559
        },
        {
          "duration": 0.06976744186046346,
          "durationTicks": 6,
          "midi": 91,
          "name": "G6",
          "ticks": 6252,
          "time": 72.69767441860465,
          "velocity": 0.08661417322834646
        },
        {
          "duration": 0.03488372093023884,
          "durationTicks": 3,
          "midi": 64,
          "name": "E4",
          "ticks": 6253,
          "time": 72.70930232558139,
          "velocity": 0.2204724409448819
        },
        {
          "duration": 0.034883720930224626,
          "durationTicks": 3,
          "midi": 81,
          "name": "A5",
          "ticks": 6255,
          "time": 72.73255813953489,
          "velocity": 0.08661417322834646
        },
        {
          "duration": 0.034883720930224626,
          "durationTicks": 3,
          "midi": 95,
          "name": "B6",
          "ticks": 6256,
          "time": 72.74418604651163,
          "velocity": 0.11023622047244094
        },
        {
          "duration": 0.06976744186046346,
          "durationTicks": 6,
          "midi": 41,
          "name": "F2",
          "ticks": 6257,
          "time": 72.75581395348837,
          "velocity": 0.14173228346456693
        },
        {
          "duration": 0.04651162790698038,
          "durationTicks": 4,
          "midi": 89,
          "name": "F6",
          "ticks": 6257,
          "time": 72.75581395348837,
          "velocity": 0.07874015748031496
        },
        {
          "duration": 0.8139534883720927,
          "durationTicks": 70,
          "midi": 69,
          "name": "A4",
          "ticks": 6258,
          "time": 72.76744186046511,
          "velocity": 0.2677165354330709
        },
        {
          "duration": 0.09302325581396076,
          "durationTicks": 8,
          "midi": 88,
          "name": "E6",
          "ticks": 6258,
          "time": 72.76744186046511,
          "velocity": 0.23622047244094488
        },
        {
          "duration": 0.11627906976744384,
          "durationTicks": 10,
          "midi": 92,
          "name": "G#6",
          "ticks": 6258,
          "time": 72.76744186046511,
          "velocity": 0.09448818897637795
        },
        {
          "duration": 0.05813953488372192,
          "durationTicks": 5,
          "midi": 42,
          "name": "F#2",
          "ticks": 6263,
          "time": 72.82558139534883,
          "velocity": 0.12598425196850394
        },
        {
          "duration": 0.04651162790698038,
          "durationTicks": 4,
          "midi": 89,
          "name": "F6",
          "ticks": 6263,
          "time": 72.82558139534883,
          "velocity": 0.1732283464566929
        },
        {
          "duration": 0.17441860465116577,
          "durationTicks": 15,
          "midi": 95,
          "name": "B6",
          "ticks": 6266,
          "time": 72.86046511627907,
          "velocity": 0.13385826771653545
        },
        {
          "duration": 0.09302325581396076,
          "durationTicks": 8,
          "midi": 89,
          "name": "F6",
          "ticks": 6269,
          "time": 72.8953488372093,
          "velocity": 0.14173228346456693
        },
        {
          "duration": 0.16279069767441,
          "durationTicks": 14,
          "midi": 42,
          "name": "F#2",
          "ticks": 6271,
          "time": 72.9186046511628,
          "velocity": 0.2283464566929134
        },
        {
          "duration": 0.06976744186046346,
          "durationTicks": 6,
          "midi": 66,
          "name": "F#4",
          "ticks": 6271,
          "time": 72.9186046511628,
          "velocity": 0.23622047244094488
        },
        {
          "duration": 0.22093023255813193,
          "durationTicks": 19,
          "midi": 91,
          "name": "G6",
          "ticks": 6272,
          "time": 72.93023255813954,
          "velocity": 0.14173228346456693
        },
        {
          "duration": 0.05813953488372192,
          "durationTicks": 5,
          "midi": 76,
          "name": "E5",
          "ticks": 6273,
          "time": 72.94186046511628,
          "velocity": 0.1968503937007874
        },
        {
          "duration": 0.3720930232558146,
          "durationTicks": 32,
          "midi": 80,
          "name": "G#5",
          "ticks": 6274,
          "time": 72.95348837209302,
          "velocity": 0.25196850393700787
        },
        {
          "duration": 0.06976744186046346,
          "durationTicks": 6,
          "midi": 88,
          "name": "E6",
          "ticks": 6278,
          "time": 73,
          "velocity": 0.16535433070866143
        },
        {
          "duration": 0.13953488372092693,
          "durationTicks": 12,
          "midi": 89,
          "name": "F6",
          "ticks": 6282,
          "time": 73.04651162790698,
          "velocity": 0.13385826771653545
        },
        {
          "duration": 0.06976744186046346,
          "durationTicks": 6,
          "midi": 43,
          "name": "G2",
          "ticks": 6285,
          "time": 73.0813953488372,
          "velocity": 0.2047244094488189
        },
        {
          "duration": 0.17441860465116577,
          "durationTicks": 15,
          "midi": 66,
          "name": "F#4",
          "ticks": 6285,
          "time": 73.0813953488372,
          "velocity": 0.2283464566929134
        },
        {
          "duration": 0.06976744186046346,
          "durationTicks": 6,
          "midi": 76,
          "name": "E5",
          "ticks": 6285,
          "time": 73.0813953488372,
          "velocity": 0.14960629921259844
        },
        {
          "duration": 0.1860465116279073,
          "durationTicks": 16,
          "midi": 54,
          "name": "F#3",
          "ticks": 6286,
          "time": 73.09302325581395,
          "velocity": 0.2204724409448819
        },
        {
          "duration": 0.08139534883721922,
          "durationTicks": 7,
          "midi": 42,
          "name": "F#2",
          "ticks": 6291,
          "time": 73.15116279069767,
          "velocity": 0.2125984251968504
        },
        {
          "duration": 0.40697674418605345,
          "durationTicks": 35,
          "midi": 88,
          "name": "E6",
          "ticks": 6295,
          "time": 73.19767441860465,
          "velocity": 0.1968503937007874
        },
        {
          "duration": 0.04651162790696617,
          "durationTicks": 4,
          "midi": 43,
          "name": "G2",
          "ticks": 6298,
          "time": 73.23255813953489,
          "velocity": 0.07874015748031496
        },
        {
          "duration": 0.05813953488372192,
          "durationTicks": 5,
          "midi": 76,
          "name": "E5",
          "ticks": 6298,
          "time": 73.23255813953489,
          "velocity": 0.11811023622047244
        },
        {
          "duration": 0.034883720930224626,
          "durationTicks": 3,
          "midi": 42,
          "name": "F#2",
          "ticks": 6303,
          "time": 73.29069767441861,
          "velocity": 0.07086614173228346
        },
        {
          "duration": 0.09302325581394655,
          "durationTicks": 8,
          "midi": 89,
          "name": "F6",
          "ticks": 6303,
          "time": 73.29069767441861,
          "velocity": 0.14960629921259844
        },
        {
          "duration": 0.05813953488372192,
          "durationTicks": 5,
          "midi": 91,
          "name": "G6",
          "ticks": 6305,
          "time": 73.31395348837209,
          "velocity": 0.11811023622047244
        },
        {
          "duration": 1.1279069767441854,
          "durationTicks": 97,
          "midi": 54,
          "name": "F#3",
          "ticks": 6306,
          "time": 73.32558139534883,
          "velocity": 0.33858267716535434
        },
        {
          "duration": 0.09302325581394655,
          "durationTicks": 8,
          "midi": 80,
          "name": "G#5",
          "ticks": 6308,
          "time": 73.34883720930233,
          "velocity": 0.2047244094488189
        },
        {
          "duration": 0.09302325581394655,
          "durationTicks": 8,
          "midi": 42,
          "name": "F#2",
          "ticks": 6309,
          "time": 73.36046511627907,
          "velocity": 0.2125984251968504
        },
        {
          "duration": 0.081395348837205,
          "durationTicks": 7,
          "midi": 95,
          "name": "B6",
          "ticks": 6313,
          "time": 73.40697674418605,
          "velocity": 0.07086614173228346
        },
        {
          "duration": 0.17441860465116577,
          "durationTicks": 15,
          "midi": 76,
          "name": "E5",
          "ticks": 6316,
          "time": 73.44186046511628,
          "velocity": 0.14960629921259844
        },
        {
          "duration": 0.12790697674418539,
          "durationTicks": 11,
          "midi": 43,
          "name": "G2",
          "ticks": 6317,
          "time": 73.45348837209302,
          "velocity": 0.23622047244094488
        },
        {
          "duration": 0.034883720930224626,
          "durationTicks": 3,
          "midi": 80,
          "name": "G#5",
          "ticks": 6319,
          "time": 73.47674418604652,
          "velocity": 0.12598425196850394
        },
        {
          "duration": 0.7209302325581461,
          "durationTicks": 62,
          "midi": 81,
          "name": "A5",
          "ticks": 6322,
          "time": 73.51162790697674,
          "velocity": 0.28346456692913385
        },
        {
          "duration": 0.1046511627907023,
          "durationTicks": 9,
          "midi": 80,
          "name": "G#5",
          "ticks": 6327,
          "time": 73.56976744186046,
          "velocity": 0.1889763779527559
        },
        {
          "duration": 0.3720930232558146,
          "durationTicks": 32,
          "midi": 42,
          "name": "F#2",
          "ticks": 6328,
          "time": 73.5813953488372,
          "velocity": 0.4015748031496063
        },
        {
          "duration": 0.66279069767441,
          "durationTicks": 57,
          "midi": 69,
          "name": "A4",
          "ticks": 6331,
          "time": 73.61627906976744,
          "velocity": 0.3858267716535433
        },
        {
          "duration": 0.11627906976742963,
          "durationTicks": 10,
          "midi": 88,
          "name": "E6",
          "ticks": 6335,
          "time": 73.66279069767442,
          "velocity": 0.15748031496062992
        },
        {
          "duration": 0.30232558139535115,
          "durationTicks": 26,
          "midi": 76,
          "name": "E5",
          "ticks": 6336,
          "time": 73.67441860465117,
          "velocity": 0.1732283464566929
        },
        {
          "duration": 0.034883720930224626,
          "durationTicks": 3,
          "midi": 91,
          "name": "G6",
          "ticks": 6346,
          "time": 73.79069767441861,
          "velocity": 0.07086614173228346
        },
        {
          "duration": 0.05813953488370771,
          "durationTicks": 5,
          "midi": 100,
          "name": "E7",
          "ticks": 6356,
          "time": 73.90697674418605,
          "velocity": 0.09448818897637795
        },
        {
          "duration": 2.2558139534883708,
          "durationTicks": 194,
          "midi": 61,
          "name": "C#4",
          "ticks": 6358,
          "time": 73.93023255813954,
          "velocity": 0.3543307086614173
        },
        {
          "duration": 0.17441860465115155,
          "durationTicks": 15,
          "midi": 88,
          "name": "E6",
          "ticks": 6362,
          "time": 73.97674418604652,
          "velocity": 0.2125984251968504
        },
        {
          "duration": 3.0465116279069804,
          "durationTicks": 262,
          "midi": 42,
          "name": "F#2",
          "ticks": 6363,
          "time": 73.98837209302326,
          "velocity": 0.5590551181102362
        },
        {
          "duration": 0.05813953488370771,
          "durationTicks": 5,
          "midi": 76,
          "name": "E5",
          "ticks": 6367,
          "time": 74.03488372093024,
          "velocity": 0.1732283464566929
        },
        {
          "duration": 0.1046511627907023,
          "durationTicks": 9,
          "midi": 76,
          "name": "E5",
          "ticks": 6374,
          "time": 74.11627906976744,
          "velocity": 0.16535433070866143
        },
        {
          "duration": 0.12790697674418539,
          "durationTicks": 11,
          "midi": 88,
          "name": "E6",
          "ticks": 6381,
          "time": 74.19767441860465,
          "velocity": 0.2283464566929134
        },
        {
          "duration": 0.11627906976744384,
          "durationTicks": 10,
          "midi": 103,
          "name": "G7",
          "ticks": 6381,
          "time": 74.19767441860465,
          "velocity": 0.09448818897637795
        },
        {
          "duration": 0.034883720930224626,
          "durationTicks": 3,
          "midi": 80,
          "name": "G#5",
          "ticks": 6383,
          "time": 74.22093023255815,
          "velocity": 0.12598425196850394
        },
        {
          "duration": 0.04651162790698038,
          "durationTicks": 4,
          "midi": 76,
          "name": "E5",
          "ticks": 6386,
          "time": 74.25581395348837,
          "velocity": 0.10236220472440945
        },
        {
          "duration": 0.43023255813953654,
          "durationTicks": 37,
          "midi": 69,
          "name": "A4",
          "ticks": 6389,
          "time": 74.29069767441861,
          "velocity": 0.31496062992125984
        },
        {
          "duration": 0.11627906976742963,
          "durationTicks": 10,
          "midi": 88,
          "name": "E6",
          "ticks": 6394,
          "time": 74.34883720930233,
          "velocity": 0.15748031496062992
        },
        {
          "duration": 0.12790697674418539,
          "durationTicks": 11,
          "midi": 76,
          "name": "E5",
          "ticks": 6395,
          "time": 74.36046511627907,
          "velocity": 0.13385826771653545
        },
        {
          "duration": 0.05813953488372192,
          "durationTicks": 5,
          "midi": 100,
          "name": "E7",
          "ticks": 6404,
          "time": 74.46511627906976,
          "velocity": 0.14960629921259844
        },
        {
          "duration": 0.15116279069766847,
          "durationTicks": 13,
          "midi": 88,
          "name": "E6",
          "ticks": 6405,
          "time": 74.47674418604652,
          "velocity": 0.1968503937007874
        },
        {
          "duration": 0.03488372093023884,
          "durationTicks": 3,
          "midi": 76,
          "name": "E5",
          "ticks": 6414,
          "time": 74.5813953488372,
          "velocity": 0.08661417322834646
        },
        {
          "duration": 0.12790697674418539,
          "durationTicks": 11,
          "midi": 80,
          "name": "G#5",
          "ticks": 6417,
          "time": 74.61627906976744,
          "velocity": 0.2677165354330709
        },
        {
          "duration": 0.081395348837205,
          "durationTicks": 7,
          "midi": 76,
          "name": "E5",
          "ticks": 6421,
          "time": 74.66279069767442,
          "velocity": 0.1732283464566929
        },
        {
          "duration": 0.5697674418604635,
          "durationTicks": 49,
          "midi": 88,
          "name": "E6",
          "ticks": 6423,
          "time": 74.68604651162791,
          "velocity": 0.2204724409448819
        },
        {
          "duration": 0.38372093023255616,
          "durationTicks": 33,
          "midi": 89,
          "name": "F6",
          "ticks": 6423,
          "time": 74.68604651162791,
          "velocity": 0.15748031496062992
        },
        {
          "duration": 0.06976744186046346,
          "durationTicks": 6,
          "midi": 93,
          "name": "A6",
          "ticks": 6423,
          "time": 74.68604651162791,
          "velocity": 0.14173228346456693
        },
        {
          "duration": 0.03488372093023884,
          "durationTicks": 3,
          "midi": 95,
          "name": "B6",
          "ticks": 6424,
          "time": 74.69767441860465,
          "velocity": 0.07086614173228346
        },
        {
          "duration": 0.034883720930224626,
          "durationTicks": 3,
          "midi": 70,
          "name": "A#4",
          "ticks": 6426,
          "time": 74.72093023255815,
          "velocity": 0.11023622047244094
        },
        {
          "duration": 0.13953488372092693,
          "durationTicks": 12,
          "midi": 81,
          "name": "A5",
          "ticks": 6427,
          "time": 74.73255813953489,
          "velocity": 0.3228346456692913
        },
        {
          "duration": 0.34883720930233153,
          "durationTicks": 30,
          "midi": 69,
          "name": "A4",
          "ticks": 6429,
          "time": 74.75581395348837,
          "velocity": 0.3464566929133858
        },
        {
          "duration": 0.03488372093023884,
          "durationTicks": 3,
          "midi": 95,
          "name": "B6",
          "ticks": 6429,
          "time": 74.75581395348837,
          "velocity": 0.11023622047244094
        },
        {
          "duration": 0.04651162790698038,
          "durationTicks": 4,
          "midi": 92,
          "name": "G#6",
          "ticks": 6430,
          "time": 74.76744186046511,
          "velocity": 0.11023622047244094
        },
        {
          "duration": 0.13953488372094114,
          "durationTicks": 12,
          "midi": 76,
          "name": "E5",
          "ticks": 6431,
          "time": 74.77906976744185,
          "velocity": 0.14173228346456693
        },
        {
          "duration": 0.09302325581394655,
          "durationTicks": 8,
          "midi": 80,
          "name": "G#5",
          "ticks": 6433,
          "time": 74.80232558139535,
          "velocity": 0.2755905511811024
        },
        {
          "duration": 0.25581395348837077,
          "durationTicks": 22,
          "midi": 95,
          "name": "B6",
          "ticks": 6434,
          "time": 74.81395348837209,
          "velocity": 0.16535433070866143
        },
        {
          "duration": 0.11627906976744384,
          "durationTicks": 10,
          "midi": 80,
          "name": "G#5",
          "ticks": 6445,
          "time": 74.94186046511628,
          "velocity": 0.28346456692913385
        },
        {
          "duration": 0.05813953488372192,
          "durationTicks": 5,
          "midi": 76,
          "name": "E5",
          "ticks": 6448,
          "time": 74.97674418604652,
          "velocity": 0.11811023622047244
        },
        {
          "duration": 0.19767441860464885,
          "durationTicks": 17,
          "midi": 80,
          "name": "G#5",
          "ticks": 6456,
          "time": 75.06976744186046,
          "velocity": 0.23622047244094488
        },
        {
          "duration": 0.04651162790698038,
          "durationTicks": 4,
          "midi": 76,
          "name": "E5",
          "ticks": 6457,
          "time": 75.0813953488372,
          "velocity": 0.15748031496062992
        },
        {
          "duration": 0.06976744186046346,
          "durationTicks": 6,
          "midi": 69,
          "name": "A4",
          "ticks": 6460,
          "time": 75.11627906976744,
          "velocity": 0.2204724409448819
        },
        {
          "duration": 0.06976744186046346,
          "durationTicks": 6,
          "midi": 95,
          "name": "B6",
          "ticks": 6460,
          "time": 75.11627906976744,
          "velocity": 0.14173228346456693
        },
        {
          "duration": 0.1046511627907023,
          "durationTicks": 9,
          "midi": 89,
          "name": "F6",
          "ticks": 6463,
          "time": 75.15116279069767,
          "velocity": 0.12598425196850394
        },
        {
          "duration": 0.04651162790696617,
          "durationTicks": 4,
          "midi": 76,
          "name": "E5",
          "ticks": 6464,
          "time": 75.16279069767442,
          "velocity": 0.18110236220472442
        },
        {
          "duration": 0.15116279069766847,
          "durationTicks": 13,
          "midi": 81,
          "name": "A5",
          "ticks": 6465,
          "time": 75.17441860465117,
          "velocity": 0.2677165354330709
        },
        {
          "duration": 0.03488372093023884,
          "durationTicks": 3,
          "midi": 70,
          "name": "A#4",
          "ticks": 6467,
          "time": 75.19767441860465,
          "velocity": 0.1732283464566929
        },
        {
          "duration": 0.04651162790698038,
          "durationTicks": 4,
          "midi": 85,
          "name": "C#6",
          "ticks": 6468,
          "time": 75.20930232558139,
          "velocity": 0.16535433070866143
        },
        {
          "duration": 0.5813953488372192,
          "durationTicks": 50,
          "midi": 95,
          "name": "B6",
          "ticks": 6468,
          "time": 75.20930232558139,
          "velocity": 0.1889763779527559
        },
        {
          "duration": 0.034883720930224626,
          "durationTicks": 3,
          "midi": 76,
          "name": "E5",
          "ticks": 6469,
          "time": 75.22093023255815,
          "velocity": 0.11811023622047244
        },
        {
          "duration": 0.06976744186046346,
          "durationTicks": 6,
          "midi": 69,
          "name": "A4",
          "ticks": 6470,
          "time": 75.23255813953489,
          "velocity": 0.23622047244094488
        },
        {
          "duration": 0.03488372093023884,
          "durationTicks": 3,
          "midi": 76,
          "name": "E5",
          "ticks": 6474,
          "time": 75.27906976744185,
          "velocity": 0.10236220472440945
        },
        {
          "duration": 2.6860465116279073,
          "durationTicks": 231,
          "midi": 85,
          "name": "C#6",
          "ticks": 6474,
          "time": 75.27906976744185,
          "velocity": 0.3779527559055118
        },
        {
          "duration": 0.5465116279069804,
          "durationTicks": 47,
          "midi": 88,
          "name": "E6",
          "ticks": 6476,
          "time": 75.30232558139535,
          "velocity": 0.28346456692913385
        },
        {
          "duration": 0.06976744186046346,
          "durationTicks": 6,
          "midi": 91,
          "name": "G6",
          "ticks": 6477,
          "time": 75.31395348837209,
          "velocity": 0.07086614173228346
        },
        {
          "duration": 0.2093023255814046,
          "durationTicks": 18,
          "midi": 69,
          "name": "A4",
          "ticks": 6478,
          "time": 75.32558139534883,
          "velocity": 0.33070866141732286
        },
        {
          "duration": 0.16279069767442422,
          "durationTicks": 14,
          "midi": 80,
          "name": "G#5",
          "ticks": 6478,
          "time": 75.32558139534883,
          "velocity": 0.2992125984251969
        },
        {
          "duration": 0.1046511627907023,
          "durationTicks": 9,
          "midi": 76,
          "name": "E5",
          "ticks": 6479,
          "time": 75.33720930232558,
          "velocity": 0.10236220472440945
        },
        {
          "duration": 0.05813953488372192,
          "durationTicks": 5,
          "midi": 89,
          "name": "F6",
          "ticks": 6480,
          "time": 75.34883720930233,
          "velocity": 0.12598425196850394
        },
        {
          "duration": 0.16279069767441,
          "durationTicks": 14,
          "midi": 89,
          "name": "F6",
          "ticks": 6487,
          "time": 75.43023255813954,
          "velocity": 0.14173228346456693
        },
        {
          "duration": 0.034883720930224626,
          "durationTicks": 3,
          "midi": 76,
          "name": "E5",
          "ticks": 6492,
          "time": 75.48837209302326,
          "velocity": 0.07874015748031496
        },
        {
          "duration": 0.06976744186046346,
          "durationTicks": 6,
          "midi": 80,
          "name": "G#5",
          "ticks": 6495,
          "time": 75.52325581395348,
          "velocity": 0.2204724409448819
        },
        {
          "duration": 0.2674418604651123,
          "durationTicks": 23,
          "midi": 69,
          "name": "A4",
          "ticks": 6498,
          "time": 75.55813953488372,
          "velocity": 0.2755905511811024
        },
        {
          "duration": 0.27906976744185386,
          "durationTicks": 24,
          "midi": 80,
          "name": "G#5",
          "ticks": 6503,
          "time": 75.61627906976744,
          "velocity": 0.33070866141732286
        },
        {
          "duration": 0.03488372093023884,
          "durationTicks": 3,
          "midi": 89,
          "name": "F6",
          "ticks": 6504,
          "time": 75.62790697674419,
          "velocity": 0.15748031496062992
        },
        {
          "duration": 1.7093023255814046,
          "durationTicks": 147,
          "midi": 73,
          "name": "C#5",
          "ticks": 6506,
          "time": 75.65116279069767,
          "velocity": 0.3543307086614173
        },
        {
          "duration": 0.034883720930224626,
          "durationTicks": 3,
          "midi": 76,
          "name": "E5",
          "ticks": 6507,
          "time": 75.66279069767442,
          "velocity": 0.14173228346456693
        },
        {
          "duration": 0.04651162790696617,
          "durationTicks": 4,
          "midi": 89,
          "name": "F6",
          "ticks": 6513,
          "time": 75.73255813953489,
          "velocity": 0.11023622047244094
        },
        {
          "duration": 0.22093023255813193,
          "durationTicks": 19,
          "midi": 93,
          "name": "A6",
          "ticks": 6513,
          "time": 75.73255813953489,
          "velocity": 0.18110236220472442
        },
        {
          "duration": 0.06976744186046346,
          "durationTicks": 6,
          "midi": 91,
          "name": "G6",
          "ticks": 6514,
          "time": 75.74418604651163,
          "velocity": 0.12598425196850394
        },
        {
          "duration": 0.05813953488372192,
          "durationTicks": 5,
          "midi": 95,
          "name": "B6",
          "ticks": 6520,
          "time": 75.81395348837209,
          "velocity": 0.1732283464566929
        },
        {
          "duration": 0.16279069767442422,
          "durationTicks": 14,
          "midi": 81,
          "name": "A5",
          "ticks": 6522,
          "time": 75.83720930232558,
          "velocity": 0.2047244094488189
        },
        {
          "duration": 0.10465116279068809,
          "durationTicks": 9,
          "midi": 69,
          "name": "A4",
          "ticks": 6523,
          "time": 75.84883720930233,
          "velocity": 0.18110236220472442
        },
        {
          "duration": 0.03488372093023884,
          "durationTicks": 3,
          "midi": 88,
          "name": "E6",
          "ticks": 6527,
          "time": 75.8953488372093,
          "velocity": 0.10236220472440945
        },
        {
          "duration": 0.12790697674418539,
          "durationTicks": 11,
          "midi": 91,
          "name": "G6",
          "ticks": 6529,
          "time": 75.9186046511628,
          "velocity": 0.13385826771653545
        },
        {
          "duration": 0.2325581395348877,
          "durationTicks": 20,
          "midi": 88,
          "name": "E6",
          "ticks": 6532,
          "time": 75.95348837209302,
          "velocity": 0.2283464566929134
        },
        {
          "duration": 0.2906976744186096,
          "durationTicks": 25,
          "midi": 95,
          "name": "B6",
          "ticks": 6532,
          "time": 75.95348837209302,
          "velocity": 0.15748031496062992
        },
        {
          "duration": 1.0697674418604777,
          "durationTicks": 92,
          "midi": 69,
          "name": "A4",
          "ticks": 6533,
          "time": 75.96511627906976,
          "velocity": 0.3228346456692913
        },
        {
          "duration": 0.09302325581396076,
          "durationTicks": 8,
          "midi": 89,
          "name": "F6",
          "ticks": 6533,
          "time": 75.96511627906976,
          "velocity": 0.1732283464566929
        },
        {
          "duration": 0.11627906976744384,
          "durationTicks": 10,
          "midi": 92,
          "name": "G#6",
          "ticks": 6537,
          "time": 76.01162790697674,
          "velocity": 0.13385826771653545
        },
        {
          "duration": 0.034883720930224626,
          "durationTicks": 3,
          "midi": 76,
          "name": "E5",
          "ticks": 6540,
          "time": 76.04651162790698,
          "velocity": 0.10236220472440945
        },
        {
          "duration": 0.034883720930224626,
          "durationTicks": 3,
          "midi": 76,
          "name": "E5",
          "ticks": 6545,
          "time": 76.1046511627907,
          "velocity": 0.09448818897637795
        },
        {
          "duration": 0.034883720930224626,
          "durationTicks": 3,
          "midi": 80,
          "name": "G#5",
          "ticks": 6546,
          "time": 76.11627906976744,
          "velocity": 0.11023622047244094
        },
        {
          "duration": 0.19767441860464885,
          "durationTicks": 17,
          "midi": 91,
          "name": "G6",
          "ticks": 6546,
          "time": 76.11627906976744,
          "velocity": 0.11023622047244094
        },
        {
          "duration": 0.15116279069768268,
          "durationTicks": 13,
          "midi": 89,
          "name": "F6",
          "ticks": 6549,
          "time": 76.15116279069767,
          "velocity": 0.14173228346456693
        },
        {
          "duration": 0.24418604651162923,
          "durationTicks": 21,
          "midi": 80,
          "name": "G#5",
          "ticks": 6550,
          "time": 76.16279069767442,
          "velocity": 0.28346456692913385
        },
        {
          "duration": 0.06976744186047767,
          "durationTicks": 6,
          "midi": 88,
          "name": "E6",
          "ticks": 6560,
          "time": 76.27906976744185,
          "velocity": 0.23622047244094488
        },
        {
          "duration": 0.13953488372092693,
          "durationTicks": 12,
          "midi": 76,
          "name": "E5",
          "ticks": 6561,
          "time": 76.29069767441861,
          "velocity": 0.10236220472440945
        },
        {
          "duration": 0.034883720930224626,
          "durationTicks": 3,
          "midi": 95,
          "name": "B6",
          "ticks": 6561,
          "time": 76.29069767441861,
          "velocity": 0.14173228346456693
        },
        {
          "duration": 0.3139534883720927,
          "durationTicks": 27,
          "midi": 61,
          "name": "C#4",
          "ticks": 6562,
          "time": 76.30232558139535,
          "velocity": 0.1889763779527559
        },
        {
          "duration": 0.09302325581394655,
          "durationTicks": 8,
          "midi": 95,
          "name": "B6",
          "ticks": 6566,
          "time": 76.34883720930233,
          "velocity": 0.14960629921259844
        },
        {
          "duration": 0.8604651162790731,
          "durationTicks": 74,
          "midi": 91,
          "name": "G6",
          "ticks": 6568,
          "time": 76.37209302325581,
          "velocity": 0.1732283464566929
        },
        {
          "duration": 0.06976744186046346,
          "durationTicks": 6,
          "midi": 88,
          "name": "E6",
          "ticks": 6569,
          "time": 76.38372093023256,
          "velocity": 0.16535433070866143
        },
        {
          "duration": 0.03488372093023884,
          "durationTicks": 3,
          "midi": 89,
          "name": "F6",
          "ticks": 6569,
          "time": 76.38372093023256,
          "velocity": 0.08661417322834646
        },
        {
          "duration": 0.11627906976744384,
          "durationTicks": 10,
          "midi": 66,
          "name": "F#4",
          "ticks": 6570,
          "time": 76.3953488372093,
          "velocity": 0.07874015748031496
        },
        {
          "duration": 0.13953488372092693,
          "durationTicks": 12,
          "midi": 80,
          "name": "G#5",
          "ticks": 6572,
          "time": 76.4186046511628,
          "velocity": 0.23622047244094488
        },
        {
          "duration": 0.04651162790696617,
          "durationTicks": 4,
          "midi": 76,
          "name": "E5",
          "ticks": 6577,
          "time": 76.47674418604652,
          "velocity": 0.07086614173228346
        },
        {
          "duration": 0.04651162790698038,
          "durationTicks": 4,
          "midi": 89,
          "name": "F6",
          "ticks": 6579,
          "time": 76.5,
          "velocity": 0.16535433070866143
        },
        {
          "duration": 0.04651162790698038,
          "durationTicks": 4,
          "midi": 88,
          "name": "E6",
          "ticks": 6580,
          "time": 76.51162790697674,
          "velocity": 0.12598425196850394
        },
        {
          "duration": 0.1046511627907023,
          "durationTicks": 9,
          "midi": 95,
          "name": "B6",
          "ticks": 6581,
          "time": 76.52325581395348,
          "velocity": 0.10236220472440945
        },
        {
          "duration": 0.05813953488372192,
          "durationTicks": 5,
          "midi": 92,
          "name": "G#6",
          "ticks": 6584,
          "time": 76.55813953488372,
          "velocity": 0.08661417322834646
        },
        {
          "duration": 0.06976744186046346,
          "durationTicks": 6,
          "midi": 76,
          "name": "E5",
          "ticks": 6588,
          "time": 76.6046511627907,
          "velocity": 0.14960629921259844
        },
        {
          "duration": 0.32558139534883423,
          "durationTicks": 28,
          "midi": 80,
          "name": "G#5",
          "ticks": 6591,
          "time": 76.63953488372093,
          "velocity": 0.28346456692913385
        },
        {
          "duration": 0.05813953488372192,
          "durationTicks": 5,
          "midi": 88,
          "name": "E6",
          "ticks": 6591,
          "time": 76.63953488372093,
          "velocity": 0.1968503937007874
        },
        {
          "duration": 0.6046511627906881,
          "durationTicks": 52,
          "midi": 61,
          "name": "C#4",
          "ticks": 6593,
          "time": 76.66279069767442,
          "velocity": 0.2440944881889764
        },
        {
          "duration": 0.034883720930224626,
          "durationTicks": 3,
          "midi": 95,
          "name": "B6",
          "ticks": 6594,
          "time": 76.67441860465117,
          "velocity": 0.10236220472440945
        },
        {
          "duration": 0.05813953488372192,
          "durationTicks": 5,
          "midi": 89,
          "name": "F6",
          "ticks": 6595,
          "time": 76.68604651162791,
          "velocity": 0.09448818897637795
        },
        {
          "duration": 0.081395348837205,
          "durationTicks": 7,
          "midi": 95,
          "name": "B6",
          "ticks": 6599,
          "time": 76.73255813953489,
          "velocity": 0.13385826771653545
        },
        {
          "duration": 0.081395348837205,
          "durationTicks": 7,
          "midi": 88,
          "name": "E6",
          "ticks": 6601,
          "time": 76.75581395348837,
          "velocity": 0.11023622047244094
        },
        {
          "duration": 0.034883720930224626,
          "durationTicks": 3,
          "midi": 93,
          "name": "A6",
          "ticks": 6605,
          "time": 76.80232558139535,
          "velocity": 0.07086614173228346
        },
        {
          "duration": 0.09302325581396076,
          "durationTicks": 8,
          "midi": 89,
          "name": "F6",
          "ticks": 6607,
          "time": 76.82558139534883,
          "velocity": 0.11811023622047244
        },
        {
          "duration": 0.05813953488372192,
          "durationTicks": 5,
          "midi": 76,
          "name": "E5",
          "ticks": 6610,
          "time": 76.86046511627907,
          "velocity": 0.09448818897637795
        },
        {
          "duration": 0.11627906976744384,
          "durationTicks": 10,
          "midi": 88,
          "name": "E6",
          "ticks": 6611,
          "time": 76.87209302325581,
          "velocity": 0.11811023622047244
        },
        {
          "duration": 0.03488372093023884,
          "durationTicks": 3,
          "midi": 95,
          "name": "B6",
          "ticks": 6618,
          "time": 76.95348837209302,
          "velocity": 0.14960629921259844
        },
        {
          "duration": 0.04651162790698038,
          "durationTicks": 4,
          "midi": 80,
          "name": "G#5",
          "ticks": 6621,
          "time": 76.98837209302326,
          "velocity": 0.15748031496062992
        },
        {
          "duration": 0.05813953488372192,
          "durationTicks": 5,
          "midi": 76,
          "name": "E5",
          "ticks": 6626,
          "time": 77.04651162790698,
          "velocity": 0.10236220472440945
        },
        {
          "duration": 0.09302325581396076,
          "durationTicks": 8,
          "midi": 69,
          "name": "A4",
          "ticks": 6628,
          "time": 77.06976744186046,
          "velocity": 0.14173228346456693
        },
        {
          "duration": 0.1046511627907023,
          "durationTicks": 9,
          "midi": 80,
          "name": "G#5",
          "ticks": 6628,
          "time": 77.06976744186046,
          "velocity": 0.25196850393700787
        },
        {
          "duration": 0.05813953488372192,
          "durationTicks": 5,
          "midi": 89,
          "name": "F6",
          "ticks": 6628,
          "time": 77.06976744186046,
          "velocity": 0.11811023622047244
        },
        {
          "duration": 0.5581395348837219,
          "durationTicks": 48,
          "midi": 42,
          "name": "F#2",
          "ticks": 6629,
          "time": 77.0813953488372,
          "velocity": 0.3464566929133858
        },
        {
          "duration": 0.03488372093023884,
          "durationTicks": 3,
          "midi": 95,
          "name": "B6",
          "ticks": 6635,
          "time": 77.15116279069767,
          "velocity": 0.10236220472440945
        },
        {
          "duration": 0.3139534883720927,
          "durationTicks": 27,
          "midi": 69,
          "name": "A4",
          "ticks": 6639,
          "time": 77.19767441860465,
          "velocity": 0.29133858267716534
        },
        {
          "duration": 0.081395348837205,
          "durationTicks": 7,
          "midi": 88,
          "name": "E6",
          "ticks": 6639,
          "time": 77.19767441860465,
          "velocity": 0.12598425196850394
        },
        {
          "duration": 0.17441860465116577,
          "durationTicks": 15,
          "midi": 80,
          "name": "G#5",
          "ticks": 6640,
          "time": 77.20930232558139,
          "velocity": 0.2047244094488189
        },
        {
          "duration": 0.081395348837205,
          "durationTicks": 7,
          "midi": 89,
          "name": "F6",
          "ticks": 6644,
          "time": 77.25581395348837,
          "velocity": 0.07086614173228346
        },
        {
          "duration": 0.023255813953497295,
          "durationTicks": 2,
          "midi": 60,
          "name": "C4",
          "ticks": 6646,
          "time": 77.27906976744185,
          "velocity": 0.2992125984251969
        },
        {
          "duration": 0.09302325581394655,
          "durationTicks": 8,
          "midi": 61,
          "name": "C#4",
          "ticks": 6648,
          "time": 77.30232558139535,
          "velocity": 0.2204724409448819
        },
        {
          "duration": 1.3953488372092977,
          "durationTicks": 120,
          "midi": 92,
          "name": "G#6",
          "ticks": 6648,
          "time": 77.30232558139535,
          "velocity": 0.33858267716535434
        },
        {
          "duration": 0.11627906976742963,
          "durationTicks": 10,
          "midi": 80,
          "name": "G#5",
          "ticks": 6657,
          "time": 77.40697674418605,
          "velocity": 0.14960629921259844
        },
        {
          "duration": 0.04651162790696617,
          "durationTicks": 4,
          "midi": 91,
          "name": "G6",
          "ticks": 6658,
          "time": 77.4186046511628,
          "velocity": 0.07874015748031496
        },
        {
          "duration": 0.09302325581396076,
          "durationTicks": 8,
          "midi": 61,
          "name": "C#4",
          "ticks": 6660,
          "time": 77.44186046511628,
          "velocity": 0.12598425196850394
        },
        {
          "duration": 0.22093023255813193,
          "durationTicks": 19,
          "midi": 73,
          "name": "C#5",
          "ticks": 6664,
          "time": 77.48837209302326,
          "velocity": 0.2047244094488189
        },
        {
          "duration": 1.0930232558139465,
          "durationTicks": 94,
          "midi": 61,
          "name": "C#4",
          "ticks": 6674,
          "time": 77.6046511627907,
          "velocity": 0.2047244094488189
        },
        {
          "duration": 0.40697674418603924,
          "durationTicks": 35,
          "midi": 80,
          "name": "G#5",
          "ticks": 6674,
          "time": 77.6046511627907,
          "velocity": 0.1889763779527559
        },
        {
          "duration": 0.19767441860464885,
          "durationTicks": 17,
          "midi": 69,
          "name": "A4",
          "ticks": 6676,
          "time": 77.62790697674419,
          "velocity": 0.2204724409448819
        },
        {
          "duration": 0.06976744186046346,
          "durationTicks": 6,
          "midi": 76,
          "name": "E5",
          "ticks": 6676,
          "time": 77.62790697674419,
          "velocity": 0.07086614173228346
        },
        {
          "duration": 0.04651162790698038,
          "durationTicks": 4,
          "midi": 43,
          "name": "G2",
          "ticks": 6677,
          "time": 77.63953488372093,
          "velocity": 0.12598425196850394
        },
        {
          "duration": 0.32558139534883423,
          "durationTicks": 28,
          "midi": 42,
          "name": "F#2",
          "ticks": 6681,
          "time": 77.68604651162791,
          "velocity": 0.2677165354330709
        },
        {
          "duration": 0.10465116279068809,
          "durationTicks": 9,
          "midi": 73,
          "name": "C#5",
          "ticks": 6695,
          "time": 77.84883720930233,
          "velocity": 0.2047244094488189
        },
        {
          "duration": 0.06976744186046346,
          "durationTicks": 6,
          "midi": 69,
          "name": "A4",
          "ticks": 6699,
          "time": 77.8953488372093,
          "velocity": 0.08661417322834646
        },
        {
          "duration": 1.8255813953488484,
          "durationTicks": 157,
          "midi": 42,
          "name": "F#2",
          "ticks": 6710,
          "time": 78.02325581395348,
          "velocity": 0.41732283464566927
        },
        {
          "duration": 0.8023255813953512,
          "durationTicks": 69,
          "midi": 85,
          "name": "C#6",
          "ticks": 6710,
          "time": 78.02325581395348,
          "velocity": 0.23622047244094488
        },
        {
          "duration": 0.17441860465116577,
          "durationTicks": 15,
          "midi": 80,
          "name": "G#5",
          "ticks": 6712,
          "time": 78.04651162790698,
          "velocity": 0.14173228346456693
        },
        {
          "duration": 0.04651162790696617,
          "durationTicks": 4,
          "midi": 69,
          "name": "A4",
          "ticks": 6717,
          "time": 78.1046511627907,
          "velocity": 0.07086614173228346
        },
        {
          "duration": 0.3604651162790731,
          "durationTicks": 31,
          "midi": 73,
          "name": "C#5",
          "ticks": 6729,
          "time": 78.24418604651163,
          "velocity": 0.2283464566929134
        },
        {
          "duration": 0.16279069767441,
          "durationTicks": 14,
          "midi": 80,
          "name": "G#5",
          "ticks": 6733,
          "time": 78.29069767441861,
          "velocity": 0.13385826771653545
        },
        {
          "duration": 0.12790697674418539,
          "durationTicks": 11,
          "midi": 69,
          "name": "A4",
          "ticks": 6747,
          "time": 78.45348837209302,
          "velocity": 0.11023622047244094
        },
        {
          "duration": 0.16279069767442422,
          "durationTicks": 14,
          "midi": 69,
          "name": "A4",
          "ticks": 6768,
          "time": 78.69767441860465,
          "velocity": 0.12598425196850394
        },
        {
          "duration": 0.06976744186046346,
          "durationTicks": 6,
          "midi": 92,
          "name": "G#6",
          "ticks": 6771,
          "time": 78.73255813953489,
          "velocity": 0.08661417322834646
        },
        {
          "duration": 0.13953488372092693,
          "durationTicks": 12,
          "midi": 69,
          "name": "A4",
          "ticks": 6792,
          "time": 78.97674418604652,
          "velocity": 0.09448818897637795
        },
        {
          "duration": 0.9418604651162781,
          "durationTicks": 81,
          "midi": 85,
          "name": "C#6",
          "ticks": 6807,
          "time": 79.15116279069767,
          "velocity": 0.29133858267716534
        },
        {
          "duration": 0.12790697674418539,
          "durationTicks": 11,
          "midi": 73,
          "name": "C#5",
          "ticks": 6819,
          "time": 79.29069767441861,
          "velocity": 0.11023622047244094
        },
        {
          "duration": 0.25581395348837077,
          "durationTicks": 22,
          "midi": 80,
          "name": "G#5",
          "ticks": 6826,
          "time": 79.37209302325581,
          "velocity": 0.2283464566929134
        },
        {
          "duration": 0.03488372093023884,
          "durationTicks": 3,
          "midi": 61,
          "name": "C#4",
          "ticks": 6839,
          "time": 79.52325581395348,
          "velocity": 0.07086614173228346
        },
        {
          "duration": 0.25581395348837077,
          "durationTicks": 22,
          "midi": 42,
          "name": "F#2",
          "ticks": 6878,
          "time": 79.97674418604652,
          "velocity": 0.14173228346456693
        },
        {
          "duration": 0.30232558139535115,
          "durationTicks": 26,
          "midi": 85,
          "name": "C#6",
          "ticks": 6902,
          "time": 80.25581395348837,
          "velocity": 0.11811023622047244
        },
        {
          "duration": 1.1976744186046488,
          "durationTicks": 103,
          "midi": 42,
          "name": "F#2",
          "ticks": 6916,
          "time": 80.4186046511628,
          "velocity": 0.23622047244094488
        },
        {
          "duration": 0.1860465116279073,
          "durationTicks": 16,
          "midi": 78,
          "name": "F#5",
          "ticks": 7013,
          "time": 81.54651162790698,
          "velocity": 0.2677165354330709
        },
        {
          "duration": 0.12790697674418539,
          "durationTicks": 11,
          "midi": 85,
          "name": "C#6",
          "ticks": 7202,
          "time": 83.74418604651163,
          "velocity": 0.07086614173228346
        },
        {
          "duration": 0.023255813953483084,
          "durationTicks": 2,
          "midi": 12,
          "name": "C0",
          "ticks": 7213,
          "time": 83.87209302325581,
          "velocity": 0.31496062992125984
        },
        {
          "duration": 0.023255813953483084,
          "durationTicks": 2,
          "midi": 62,
          "name": "D4",
          "ticks": 7383,
          "time": 85.84883720930233,
          "velocity": 0.25984251968503935
        },
        {
          "duration": 1.1744186046511516,
          "durationTicks": 101,
          "midi": 73,
          "name": "C#5",
          "ticks": 7383,
          "time": 85.84883720930233,
          "velocity": 0.4409448818897638
        },
        {
          "duration": 0.5465116279069804,
          "durationTicks": 47,
          "midi": 64,
          "name": "E4",
          "ticks": 7387,
          "time": 85.8953488372093,
          "velocity": 0.25984251968503935
        },
        {
          "duration": 0.023255813953483084,
          "durationTicks": 2,
          "midi": 53,
          "name": "F3",
          "ticks": 7388,
          "time": 85.90697674418605,
          "velocity": 0.3464566929133858
        },
        {
          "duration": 0.06976744186046346,
          "durationTicks": 6,
          "midi": 71,
          "name": "B4",
          "ticks": 7388,
          "time": 85.90697674418605,
          "velocity": 0.09448818897637795
        },
        {
          "duration": 1.6511627906976685,
          "durationTicks": 142,
          "midi": 52,
          "name": "E3",
          "ticks": 7390,
          "time": 85.93023255813954,
          "velocity": 0.3937007874015748
        },
        {
          "duration": 1.0697674418604635,
          "durationTicks": 92,
          "midi": 69,
          "name": "A4",
          "ticks": 7399,
          "time": 86.03488372093024,
          "velocity": 0.4094488188976378
        },
        {
          "duration": 0.03488372093023884,
          "durationTicks": 3,
          "midi": 18,
          "name": "F#0",
          "ticks": 7436,
          "time": 86.46511627906976,
          "velocity": 0.12598425196850394
        },
        {
          "duration": 0.7790697674418681,
          "durationTicks": 67,
          "midi": 88,
          "name": "E6",
          "ticks": 7440,
          "time": 86.51162790697674,
          "velocity": 0.25196850393700787
        },
        {
          "duration": 0.023255813953497295,
          "durationTicks": 2,
          "midi": 60,
          "name": "C4",
          "ticks": 7479,
          "time": 86.96511627906976,
          "velocity": 0.4409448818897638
        },
        {
          "duration": 0.2906976744185954,
          "durationTicks": 25,
          "midi": 59,
          "name": "B3",
          "ticks": 7481,
          "time": 86.98837209302326,
          "velocity": 0.4881889763779528
        },
        {
          "duration": 0.023255813953483084,
          "durationTicks": 2,
          "midi": 68,
          "name": "G#4",
          "ticks": 7491,
          "time": 87.1046511627907,
          "velocity": 0.23622047244094488
        },
        {
          "duration": 0.24418604651162923,
          "durationTicks": 21,
          "midi": 73,
          "name": "C#5",
          "ticks": 7492,
          "time": 87.11627906976744,
          "velocity": 0.13385826771653545
        },
        {
          "duration": 0.25581395348837077,
          "durationTicks": 22,
          "midi": 69,
          "name": "A4",
          "ticks": 7493,
          "time": 87.12790697674419,
          "velocity": 0.29133858267716534
        },
        {
          "duration": 0.12790697674418539,
          "durationTicks": 11,
          "midi": 85,
          "name": "C#6",
          "ticks": 7493,
          "time": 87.12790697674419,
          "velocity": 0.14960629921259844
        },
        {
          "duration": 0.04651162790696617,
          "durationTicks": 4,
          "midi": 80,
          "name": "G#5",
          "ticks": 7496,
          "time": 87.16279069767442,
          "velocity": 0.11023622047244094
        },
        {
          "duration": 0.3720930232558146,
          "durationTicks": 32,
          "midi": 59,
          "name": "B3",
          "ticks": 7507,
          "time": 87.29069767441861,
          "velocity": 0.33858267716535434
        },
        {
          "duration": 0.11627906976744384,
          "durationTicks": 10,
          "midi": 88,
          "name": "E6",
          "ticks": 7511,
          "time": 87.33720930232558,
          "velocity": 0.18110236220472442
        },
        {
          "duration": 0.09302325581396076,
          "durationTicks": 8,
          "midi": 69,
          "name": "A4",
          "ticks": 7516,
          "time": 87.3953488372093,
          "velocity": 0.2125984251968504
        },
        {
          "duration": 0.06976744186046346,
          "durationTicks": 6,
          "midi": 80,
          "name": "G#5",
          "ticks": 7518,
          "time": 87.4186046511628,
          "velocity": 0.11023622047244094
        },
        {
          "duration": 0.2325581395348877,
          "durationTicks": 20,
          "midi": 73,
          "name": "C#5",
          "ticks": 7520,
          "time": 87.44186046511628,
          "velocity": 0.13385826771653545
        },
        {
          "duration": 0.04651162790698038,
          "durationTicks": 4,
          "midi": 81,
          "name": "A5",
          "ticks": 7524,
          "time": 87.48837209302326,
          "velocity": 0.14173228346456693
        },
        {
          "duration": 0.12790697674418539,
          "durationTicks": 11,
          "midi": 69,
          "name": "A4",
          "ticks": 7526,
          "time": 87.51162790697674,
          "velocity": 0.25984251968503935
        },
        {
          "duration": 0.15116279069768268,
          "durationTicks": 13,
          "midi": 80,
          "name": "G#5",
          "ticks": 7527,
          "time": 87.52325581395348,
          "velocity": 0.13385826771653545
        },
        {
          "duration": 2.046511627906966,
          "durationTicks": 176,
          "midi": 52,
          "name": "E3",
          "ticks": 7534,
          "time": 87.6046511627907,
          "velocity": 0.4330708661417323
        },
        {
          "duration": 0.05813953488372192,
          "durationTicks": 5,
          "midi": 85,
          "name": "C#6",
          "ticks": 7536,
          "time": 87.62790697674419,
          "velocity": 0.14960629921259844
        },
        {
          "duration": 0.09302325581394655,
          "durationTicks": 8,
          "midi": 80,
          "name": "G#5",
          "ticks": 7541,
          "time": 87.68604651162791,
          "velocity": 0.12598425196850394
        },
        {
          "duration": 0.25581395348837077,
          "durationTicks": 22,
          "midi": 73,
          "name": "C#5",
          "ticks": 7543,
          "time": 87.70930232558139,
          "velocity": 0.2047244094488189
        },
        {
          "duration": 1.476744186046517,
          "durationTicks": 127,
          "midi": 85,
          "name": "C#6",
          "ticks": 7543,
          "time": 87.70930232558139,
          "velocity": 0.29133858267716534
        },
        {
          "duration": 0.09302325581394655,
          "durationTicks": 8,
          "midi": 69,
          "name": "A4",
          "ticks": 7545,
          "time": 87.73255813953489,
          "velocity": 0.1968503937007874
        },
        {
          "duration": 0.1279069767441996,
          "durationTicks": 11,
          "midi": 61,
          "name": "C#4",
          "ticks": 7549,
          "time": 87.77906976744185,
          "velocity": 0.16535433070866143
        },
        {
          "duration": 0.13953488372092693,
          "durationTicks": 12,
          "midi": 80,
          "name": "G#5",
          "ticks": 7552,
          "time": 87.81395348837209,
          "velocity": 0.16535433070866143
        },
        {
          "duration": 0.16279069767442422,
          "durationTicks": 14,
          "midi": 69,
          "name": "A4",
          "ticks": 7554,
          "time": 87.83720930232558,
          "velocity": 0.14960629921259844
        },
        {
          "duration": 0.06976744186046346,
          "durationTicks": 6,
          "midi": 81,
          "name": "A5",
          "ticks": 7561,
          "time": 87.9186046511628,
          "velocity": 0.2283464566929134
        },
        {
          "duration": 0.7209302325581461,
          "durationTicks": 62,
          "midi": 62,
          "name": "D4",
          "ticks": 7563,
          "time": 87.94186046511628,
          "velocity": 0.6377952755905512
        },
        {
          "duration": 0.04651162790698038,
          "durationTicks": 4,
          "midi": 88,
          "name": "E6",
          "ticks": 7564,
          "time": 87.95348837209302,
          "velocity": 0.08661417322834646
        },
        {
          "duration": 0.30232558139535115,
          "durationTicks": 26,
          "midi": 80,
          "name": "G#5",
          "ticks": 7565,
          "time": 87.96511627906976,
          "velocity": 0.31496062992125984
        },
        {
          "duration": 0.33720930232559,
          "durationTicks": 29,
          "midi": 71,
          "name": "B4",
          "ticks": 7569,
          "time": 88.01162790697674,
          "velocity": 0.3858267716535433
        },
        {
          "duration": 0.7558139534883708,
          "durationTicks": 65,
          "midi": 40,
          "name": "E2",
          "ticks": 7570,
          "time": 88.02325581395348,
          "velocity": 0.1889763779527559
        },
        {
          "duration": 0.023255813953483084,
          "durationTicks": 2,
          "midi": 10,
          "name": "A#-1",
          "ticks": 7573,
          "time": 88.05813953488372,
          "velocity": 0.2677165354330709
        },
        {
          "duration": 0.06976744186046346,
          "durationTicks": 6,
          "midi": 73,
          "name": "C#5",
          "ticks": 7573,
          "time": 88.05813953488372,
          "velocity": 0.18110236220472442
        },
        {
          "duration": 1.3023255813953512,
          "durationTicks": 112,
          "midi": 73,
          "name": "C#5",
          "ticks": 7580,
          "time": 88.13953488372093,
          "velocity": 0.5669291338582677
        },
        {
          "duration": 0.06976744186046346,
          "durationTicks": 6,
          "midi": 81,
          "name": "A5",
          "ticks": 7580,
          "time": 88.13953488372093,
          "velocity": 0.13385826771653545
        },
        {
          "duration": 0.04651162790698038,
          "durationTicks": 4,
          "midi": 69,
          "name": "A4",
          "ticks": 7585,
          "time": 88.19767441860465,
          "velocity": 0.10236220472440945
        },
        {
          "duration": 0.034883720930224626,
          "durationTicks": 3,
          "midi": 15,
          "name": "D#0",
          "ticks": 7589,
          "time": 88.24418604651163,
          "velocity": 0.2125984251968504
        },
        {
          "duration": 0.11627906976742963,
          "durationTicks": 10,
          "midi": 80,
          "name": "G#5",
          "ticks": 7598,
          "time": 88.34883720930233,
          "velocity": 0.11023622047244094
        },
        {
          "duration": 0.13953488372092693,
          "durationTicks": 12,
          "midi": 71,
          "name": "B4",
          "ticks": 7601,
          "time": 88.38372093023256,
          "velocity": 0.25196850393700787
        },
        {
          "duration": 0.023255813953483084,
          "durationTicks": 2,
          "midi": 10,
          "name": "A#-1",
          "ticks": 7603,
          "time": 88.40697674418605,
          "velocity": 0.23622047244094488
        },
        {
          "duration": 0.06976744186047767,
          "durationTicks": 6,
          "midi": 95,
          "name": "B6",
          "ticks": 7608,
          "time": 88.46511627906976,
          "velocity": 0.11811023622047244
        },
        {
          "duration": 0.023255813953497295,
          "durationTicks": 2,
          "midi": 7,
          "name": "G-1",
          "ticks": 7612,
          "time": 88.51162790697674,
          "velocity": 0.23622047244094488
        },
        {
          "duration": 1.058139534883722,
          "durationTicks": 91,
          "midi": 80,
          "name": "G#5",
          "ticks": 7616,
          "time": 88.55813953488372,
          "velocity": 0.2204724409448819
        },
        {
          "duration": 0.03488372093023884,
          "durationTicks": 3,
          "midi": 95,
          "name": "B6",
          "ticks": 7617,
          "time": 88.56976744186046,
          "velocity": 0.08661417322834646
        },
        {
          "duration": 1.6046511627907023,
          "durationTicks": 138,
          "midi": 69,
          "name": "A4",
          "ticks": 7618,
          "time": 88.5813953488372,
          "velocity": 0.30708661417322836
        },
        {
          "duration": 0.034883720930224626,
          "durationTicks": 3,
          "midi": 61,
          "name": "C#4",
          "ticks": 7625,
          "time": 88.66279069767442,
          "velocity": 0.44881889763779526
        },
        {
          "duration": 0.34883720930233153,
          "durationTicks": 30,
          "midi": 61,
          "name": "C#4",
          "ticks": 7629,
          "time": 88.70930232558139,
          "velocity": 0.4330708661417323
        },
        {
          "duration": 0.12790697674418539,
          "durationTicks": 11,
          "midi": 95,
          "name": "B6",
          "ticks": 7629,
          "time": 88.70930232558139,
          "velocity": 0.18110236220472442
        },
        {
          "duration": 1.6511627906976685,
          "durationTicks": 142,
          "midi": 40,
          "name": "E2",
          "ticks": 7636,
          "time": 88.79069767441861,
          "velocity": 0.2755905511811024
        },
        {
          "duration": 0.17441860465116577,
          "durationTicks": 15,
          "midi": 91,
          "name": "G6",
          "ticks": 7639,
          "time": 88.82558139534883,
          "velocity": 0.07874015748031496
        },
        {
          "duration": 0.09302325581396076,
          "durationTicks": 8,
          "midi": 89,
          "name": "F6",
          "ticks": 7640,
          "time": 88.83720930232558,
          "velocity": 0.09448818897637795
        },
        {
          "duration": 0.04651162790698038,
          "durationTicks": 4,
          "midi": 95,
          "name": "B6",
          "ticks": 7643,
          "time": 88.87209302325581,
          "velocity": 0.10236220472440945
        },
        {
          "duration": 0.06976744186046346,
          "durationTicks": 6,
          "midi": 88,
          "name": "E6",
          "ticks": 7656,
          "time": 89.02325581395348,
          "velocity": 0.13385826771653545
        },
        {
          "duration": 0.034883720930224626,
          "durationTicks": 3,
          "midi": 95,
          "name": "B6",
          "ticks": 7658,
          "time": 89.04651162790698,
          "velocity": 0.14173228346456693
        },
        {
          "duration": 0.40697674418605345,
          "durationTicks": 35,
          "midi": 64,
          "name": "E4",
          "ticks": 7660,
          "time": 89.06976744186046,
          "velocity": 0.5354330708661418
        },
        {
          "duration": 1.0930232558139608,
          "durationTicks": 94,
          "midi": 91,
          "name": "G6",
          "ticks": 7665,
          "time": 89.12790697674419,
          "velocity": 0.1968503937007874
        },
        {
          "duration": 0.09302325581396076,
          "durationTicks": 8,
          "midi": 95,
          "name": "B6",
          "ticks": 7665,
          "time": 89.12790697674419,
          "velocity": 0.11811023622047244
        },
        {
          "duration": 0.023255813953497295,
          "durationTicks": 2,
          "midi": 5,
          "name": "F-1",
          "ticks": 7667,
          "time": 89.15116279069767,
          "velocity": 0.23622047244094488
        },
        {
          "duration": 0.06976744186046346,
          "durationTicks": 6,
          "midi": 61,
          "name": "C#4",
          "ticks": 7670,
          "time": 89.18604651162791,
          "velocity": 0.3779527559055118
        },
        {
          "duration": 0.081395348837205,
          "durationTicks": 7,
          "midi": 88,
          "name": "E6",
          "ticks": 7674,
          "time": 89.23255813953489,
          "velocity": 0.15748031496062992
        },
        {
          "duration": 0.03488372093023884,
          "durationTicks": 3,
          "midi": 95,
          "name": "B6",
          "ticks": 7677,
          "time": 89.26744186046511,
          "velocity": 0.12598425196850394
        },
        {
          "duration": 0.06976744186046346,
          "durationTicks": 6,
          "midi": 59,
          "name": "B3",
          "ticks": 7679,
          "time": 89.29069767441861,
          "velocity": 0.25196850393700787
        },
        {
          "duration": 0.034883720930224626,
          "durationTicks": 3,
          "midi": 95,
          "name": "B6",
          "ticks": 7685,
          "time": 89.36046511627907,
          "velocity": 0.08661417322834646
        },
        {
          "duration": 0.04651162790696617,
          "durationTicks": 4,
          "midi": 59,
          "name": "B3",
          "ticks": 7690,
          "time": 89.4186046511628,
          "velocity": 0.2677165354330709
        },
        {
          "duration": 0.1046511627907023,
          "durationTicks": 9,
          "midi": 88,
          "name": "E6",
          "ticks": 7691,
          "time": 89.43023255813954,
          "velocity": 0.16535433070866143
        },
        {
          "duration": 0.04651162790698038,
          "durationTicks": 4,
          "midi": 95,
          "name": "B6",
          "ticks": 7692,
          "time": 89.44186046511628,
          "velocity": 0.08661417322834646
        },
        {
          "duration": 0.30232558139535115,
          "durationTicks": 26,
          "midi": 73,
          "name": "C#5",
          "ticks": 7693,
          "time": 89.45348837209302,
          "velocity": 0.3937007874015748
        },
        {
          "duration": 0.023255813953483084,
          "durationTicks": 2,
          "midi": 62,
          "name": "D4",
          "ticks": 7695,
          "time": 89.47674418604652,
          "velocity": 0.3228346456692913
        },
        {
          "duration": 0.16279069767442422,
          "durationTicks": 14,
          "midi": 61,
          "name": "C#4",
          "ticks": 7698,
          "time": 89.51162790697674,
          "velocity": 0.3543307086614173
        },
        {
          "duration": 0.034883720930224626,
          "durationTicks": 3,
          "midi": 95,
          "name": "B6",
          "ticks": 7707,
          "time": 89.61627906976744,
          "velocity": 0.12598425196850394
        },
        {
          "duration": 0.04651162790698038,
          "durationTicks": 4,
          "midi": 88,
          "name": "E6",
          "ticks": 7708,
          "time": 89.62790697674419,
          "velocity": 0.11023622047244094
        },
        {
          "duration": 0.12790697674418539,
          "durationTicks": 11,
          "midi": 80,
          "name": "G#5",
          "ticks": 7710,
          "time": 89.65116279069767,
          "velocity": 0.2125984251968504
        },
        {
          "duration": 8.41860465116278,
          "durationTicks": 724,
          "midi": 52,
          "name": "E3",
          "ticks": 7711,
          "time": 89.66279069767442,
          "velocity": 0.4881889763779528
        },
        {
          "duration": 0.03488372093023884,
          "durationTicks": 3,
          "midi": 95,
          "name": "B6",
          "ticks": 7713,
          "time": 89.68604651162791,
          "velocity": 0.07086614173228346
        },
        {
          "duration": 0.081395348837205,
          "durationTicks": 7,
          "midi": 88,
          "name": "E6",
          "ticks": 7714,
          "time": 89.69767441860465,
          "velocity": 0.2047244094488189
        },
        {
          "duration": 0.27906976744186807,
          "durationTicks": 24,
          "midi": 73,
          "name": "C#5",
          "ticks": 7721,
          "time": 89.77906976744185,
          "velocity": 0.4251968503937008
        },
        {
          "duration": 0.034883720930224626,
          "durationTicks": 3,
          "midi": 89,
          "name": "F6",
          "ticks": 7722,
          "time": 89.79069767441861,
          "velocity": 0.08661417322834646
        },
        {
          "duration": 0.06976744186046346,
          "durationTicks": 6,
          "midi": 88,
          "name": "E6",
          "ticks": 7724,
          "time": 89.81395348837209,
          "velocity": 0.15748031496062992
        },
        {
          "duration": 0.10465116279068809,
          "durationTicks": 9,
          "midi": 80,
          "name": "G#5",
          "ticks": 7727,
          "time": 89.84883720930233,
          "velocity": 0.2283464566929134
        },
        {
          "duration": 0.04651162790696617,
          "durationTicks": 4,
          "midi": 88,
          "name": "E6",
          "ticks": 7733,
          "time": 89.9186046511628,
          "velocity": 0.16535433070866143
        },
        {
          "duration": 0.05813953488372192,
          "durationTicks": 5,
          "midi": 89,
          "name": "F6",
          "ticks": 7739,
          "time": 89.98837209302326,
          "velocity": 0.07086614173228346
        },
        {
          "duration": 0.3488372093023173,
          "durationTicks": 30,
          "midi": 88,
          "name": "E6",
          "ticks": 7744,
          "time": 90.04651162790698,
          "velocity": 0.29133858267716534
        },
        {
          "duration": 0.03488372093023884,
          "durationTicks": 3,
          "midi": 61,
          "name": "C#4",
          "ticks": 7746,
          "time": 90.06976744186046,
          "velocity": 0.3858267716535433
        },
        {
          "duration": 0.30232558139535115,
          "durationTicks": 26,
          "midi": 78,
          "name": "F#5",
          "ticks": 7746,
          "time": 90.06976744186046,
          "velocity": 0.2440944881889764
        },
        {
          "duration": 0.13953488372092693,
          "durationTicks": 12,
          "midi": 80,
          "name": "G#5",
          "ticks": 7746,
          "time": 90.06976744186046,
          "velocity": 0.2125984251968504
        },
        {
          "duration": 0.1046511627907023,
          "durationTicks": 9,
          "midi": 73,
          "name": "C#5",
          "ticks": 7747,
          "time": 90.0813953488372,
          "velocity": 0.3858267716535433
        },
        {
          "duration": 0.04651162790698038,
          "durationTicks": 4,
          "midi": 61,
          "name": "C#4",
          "ticks": 7750,
          "time": 90.11627906976744,
          "velocity": 0.3937007874015748
        },
        {
          "duration": 0.023255813953483084,
          "durationTicks": 2,
          "midi": 61,
          "name": "C#4",
          "ticks": 7755,
          "time": 90.17441860465117,
          "velocity": 0.33858267716535434
        },
        {
          "duration": 0.023255813953497295,
          "durationTicks": 2,
          "midi": 60,
          "name": "C4",
          "ticks": 7757,
          "time": 90.19767441860465,
          "velocity": 0.33858267716535434
        },
        {
          "duration": 0.9883720930232585,
          "durationTicks": 85,
          "midi": 69,
          "name": "A4",
          "ticks": 7757,
          "time": 90.19767441860465,
          "velocity": 0.47244094488188976
        },
        {
          "duration": 0.13953488372092693,
          "durationTicks": 12,
          "midi": 73,
          "name": "C#5",
          "ticks": 7757,
          "time": 90.19767441860465,
          "velocity": 0.2283464566929134
        },
        {
          "duration": 0.04651162790696617,
          "durationTicks": 4,
          "midi": 61,
          "name": "C#4",
          "ticks": 7759,
          "time": 90.22093023255815,
          "velocity": 0.31496062992125984
        },
        {
          "duration": 0.05813953488372192,
          "durationTicks": 5,
          "midi": 80,
          "name": "G#5",
          "ticks": 7760,
          "time": 90.23255813953489,
          "velocity": 0.13385826771653545
        },
        {
          "duration": 0.30232558139535115,
          "durationTicks": 26,
          "midi": 91,
          "name": "G6",
          "ticks": 7761,
          "time": 90.24418604651163,
          "velocity": 0.2047244094488189
        },
        {
          "duration": 0.034883720930224626,
          "durationTicks": 3,
          "midi": 61,
          "name": "C#4",
          "ticks": 7766,
          "time": 90.30232558139535,
          "velocity": 0.25196850393700787
        },
        {
          "duration": 0.1046511627907023,
          "durationTicks": 9,
          "midi": 80,
          "name": "G#5",
          "ticks": 7768,
          "time": 90.32558139534883,
          "velocity": 0.2125984251968504
        },
        {
          "duration": 0.7325581395348735,
          "durationTicks": 63,
          "midi": 73,
          "name": "C#5",
          "ticks": 7770,
          "time": 90.34883720930233,
          "velocity": 0.3464566929133858
        },
        {
          "duration": 0.034883720930224626,
          "durationTicks": 3,
          "midi": 95,
          "name": "B6",
          "ticks": 7770,
          "time": 90.34883720930233,
          "velocity": 0.07086614173228346
        },
        {
          "duration": 0.03488372093023884,
          "durationTicks": 3,
          "midi": 61,
          "name": "C#4",
          "ticks": 7772,
          "time": 90.37209302325581,
          "velocity": 0.23622047244094488
        },
        {
          "duration": 0.11627906976744384,
          "durationTicks": 10,
          "midi": 61,
          "name": "C#4",
          "ticks": 7776,
          "time": 90.4186046511628,
          "velocity": 0.2755905511811024
        },
        {
          "duration": 0.19767441860464885,
          "durationTicks": 17,
          "midi": 88,
          "name": "E6",
          "ticks": 7776,
          "time": 90.4186046511628,
          "velocity": 0.2204724409448819
        },
        {
          "duration": 0.38372093023255616,
          "durationTicks": 33,
          "midi": 40,
          "name": "E2",
          "ticks": 7779,
          "time": 90.45348837209302,
          "velocity": 0.2125984251968504
        },
        {
          "duration": 0.25581395348837077,
          "durationTicks": 22,
          "midi": 80,
          "name": "G#5",
          "ticks": 7781,
          "time": 90.47674418604652,
          "velocity": 0.15748031496062992
        },
        {
          "duration": 0.05813953488372192,
          "durationTicks": 5,
          "midi": 61,
          "name": "C#4",
          "ticks": 7787,
          "time": 90.54651162790698,
          "velocity": 0.25984251968503935
        },
        {
          "duration": 0.34883720930233153,
          "durationTicks": 30,
          "midi": 91,
          "name": "G6",
          "ticks": 7790,
          "time": 90.5813953488372,
          "velocity": 0.2047244094488189
        },
        {
          "duration": 0.04651162790698038,
          "durationTicks": 4,
          "midi": 61,
          "name": "C#4",
          "ticks": 7793,
          "time": 90.61627906976744,
          "velocity": 0.2755905511811024
        },
        {
          "duration": 0.12790697674418539,
          "durationTicks": 11,
          "midi": 88,
          "name": "E6",
          "ticks": 7798,
          "time": 90.67441860465117,
          "velocity": 0.1968503937007874
        },
        {
          "duration": 0.34883720930233153,
          "durationTicks": 30,
          "midi": 93,
          "name": "A6",
          "ticks": 7799,
          "time": 90.68604651162791,
          "velocity": 0.1889763779527559
        },
        {
          "duration": 0.03488372093023884,
          "durationTicks": 3,
          "midi": 61,
          "name": "C#4",
          "ticks": 7800,
          "time": 90.69767441860465,
          "velocity": 0.2755905511811024
        },
        {
          "duration": 0.023255813953483084,
          "durationTicks": 2,
          "midi": 59,
          "name": "B3",
          "ticks": 7804,
          "time": 90.74418604651163,
          "velocity": 0.23622047244094488
        },
        {
          "duration": 0.023255813953497295,
          "durationTicks": 2,
          "midi": 61,
          "name": "C#4",
          "ticks": 7807,
          "time": 90.77906976744185,
          "velocity": 0.25984251968503935
        },
        {
          "duration": 0.12790697674418539,
          "durationTicks": 11,
          "midi": 80,
          "name": "G#5",
          "ticks": 7808,
          "time": 90.79069767441861,
          "velocity": 0.2125984251968504
        },
        {
          "duration": 0.04651162790698038,
          "durationTicks": 4,
          "midi": 95,
          "name": "B6",
          "ticks": 7809,
          "time": 90.80232558139535,
          "velocity": 0.07874015748031496
        },
        {
          "duration": 0.023255813953483084,
          "durationTicks": 2,
          "midi": 59,
          "name": "B3",
          "ticks": 7810,
          "time": 90.81395348837209,
          "velocity": 0.25196850393700787
        },
        {
          "duration": 0.15116279069768268,
          "durationTicks": 13,
          "midi": 88,
          "name": "E6",
          "ticks": 7811,
          "time": 90.82558139534883,
          "velocity": 0.2283464566929134
        },
        {
          "duration": 0.023255813953497295,
          "durationTicks": 2,
          "midi": 61,
          "name": "C#4",
          "ticks": 7812,
          "time": 90.83720930232558,
          "velocity": 0.2677165354330709
        },
        {
          "duration": 0.23255813953487348,
          "durationTicks": 20,
          "midi": 40,
          "name": "E2",
          "ticks": 7814,
          "time": 90.86046511627907,
          "velocity": 0.1968503937007874
        },
        {
          "duration": 0.023255813953483084,
          "durationTicks": 2,
          "midi": 60,
          "name": "C4",
          "ticks": 7814,
          "time": 90.86046511627907,
          "velocity": 0.25196850393700787
        },
        {
          "duration": 0.03488372093023884,
          "durationTicks": 3,
          "midi": 61,
          "name": "C#4",
          "ticks": 7817,
          "time": 90.8953488372093,
          "velocity": 0.2677165354330709
        },
        {
          "duration": 0.15116279069766847,
          "durationTicks": 13,
          "midi": 80,
          "name": "G#5",
          "ticks": 7820,
          "time": 90.93023255813954,
          "velocity": 0.2204724409448819
        },
        {
          "duration": 0.11627906976744384,
          "durationTicks": 10,
          "midi": 61,
          "name": "C#4",
          "ticks": 7821,
          "time": 90.94186046511628,
          "velocity": 0.2755905511811024
        },
        {
          "duration": 0.32558139534883423,
          "durationTicks": 28,
          "midi": 91,
          "name": "G6",
          "ticks": 7825,
          "time": 90.98837209302326,
          "velocity": 0.13385826771653545
        },
        {
          "duration": 0.06976744186046346,
          "durationTicks": 6,
          "midi": 100,
          "name": "E7",
          "ticks": 7831,
          "time": 91.05813953488372,
          "velocity": 0.09448818897637795
        },
        {
          "duration": 0.05813953488372192,
          "durationTicks": 5,
          "midi": 61,
          "name": "C#4",
          "ticks": 7832,
          "time": 91.06976744186046,
          "velocity": 0.25196850393700787
        },
        {
          "duration": 0.2674418604651123,
          "durationTicks": 23,
          "midi": 88,
          "name": "E6",
          "ticks": 7832,
          "time": 91.06976744186046,
          "velocity": 0.25984251968503935
        },
        {
          "duration": 0.4418604651162781,
          "durationTicks": 38,
          "midi": 40,
          "name": "E2",
          "ticks": 7837,
          "time": 91.12790697674419,
          "velocity": 0.2125984251968504
        },
        {
          "duration": 0.03488372093023884,
          "durationTicks": 3,
          "midi": 61,
          "name": "C#4",
          "ticks": 7838,
          "time": 91.13953488372093,
          "velocity": 0.25984251968503935
        },
        {
          "duration": 0.38372093023257037,
          "durationTicks": 33,
          "midi": 76,
          "name": "E5",
          "ticks": 7839,
          "time": 91.15116279069767,
          "velocity": 0.2283464566929134
        },
        {
          "duration": 0.04651162790696617,
          "durationTicks": 4,
          "midi": 80,
          "name": "G#5",
          "ticks": 7840,
          "time": 91.16279069767442,
          "velocity": 0.13385826771653545
        },
        {
          "duration": 0.081395348837205,
          "durationTicks": 7,
          "midi": 93,
          "name": "A6",
          "ticks": 7841,
          "time": 91.17441860465117,
          "velocity": 0.2440944881889764
        },
        {
          "duration": 0.5116279069767415,
          "durationTicks": 44,
          "midi": 81,
          "name": "A5",
          "ticks": 7843,
          "time": 91.19767441860465,
          "velocity": 0.2992125984251969
        },
        {
          "duration": 1.081395348837205,
          "durationTicks": 93,
          "midi": 69,
          "name": "A4",
          "ticks": 7845,
          "time": 91.22093023255815,
          "velocity": 0.4409448818897638
        },
        {
          "duration": 0.034883720930224626,
          "durationTicks": 3,
          "midi": 74,
          "name": "D5",
          "ticks": 7846,
          "time": 91.23255813953489,
          "velocity": 0.11023622047244094
        },
        {
          "duration": 0.05813953488372192,
          "durationTicks": 5,
          "midi": 80,
          "name": "G#5",
          "ticks": 7848,
          "time": 91.25581395348837,
          "velocity": 0.11023622047244094
        },
        {
          "duration": 0.11627906976744384,
          "durationTicks": 10,
          "midi": 73,
          "name": "C#5",
          "ticks": 7849,
          "time": 91.26744186046511,
          "velocity": 0.2125984251968504
        },
        {
          "duration": 0.04651162790698038,
          "durationTicks": 4,
          "midi": 91,
          "name": "G6",
          "ticks": 7858,
          "time": 91.37209302325581,
          "velocity": 0.09448818897637795
        },
        {
          "duration": 0.48837209302324425,
          "durationTicks": 42,
          "midi": 73,
          "name": "C#5",
          "ticks": 7861,
          "time": 91.40697674418605,
          "velocity": 0.31496062992125984
        },
        {
          "duration": 0.04651162790698038,
          "durationTicks": 4,
          "midi": 59,
          "name": "B3",
          "ticks": 7864,
          "time": 91.44186046511628,
          "velocity": 0.25196850393700787
        },
        {
          "duration": 0.023255813953497295,
          "durationTicks": 2,
          "midi": 14,
          "name": "D0",
          "ticks": 7865,
          "time": 91.45348837209302,
          "velocity": 0.2283464566929134
        },
        {
          "duration": 0.03488372093023884,
          "durationTicks": 3,
          "midi": 59,
          "name": "B3",
          "ticks": 7869,
          "time": 91.5,
          "velocity": 0.2204724409448819
        },
        {
          "duration": 0.04651162790696617,
          "durationTicks": 4,
          "midi": 80,
          "name": "G#5",
          "ticks": 7872,
          "time": 91.53488372093024,
          "velocity": 0.15748031496062992
        },
        {
          "duration": 0.05813953488370771,
          "durationTicks": 5,
          "midi": 88,
          "name": "E6",
          "ticks": 7872,
          "time": 91.53488372093024,
          "velocity": 0.2204724409448819
        },
        {
          "duration": 0.17441860465116577,
          "durationTicks": 15,
          "midi": 91,
          "name": "G6",
          "ticks": 7875,
          "time": 91.56976744186046,
          "velocity": 0.11811023622047244
        },
        {
          "duration": 0.16279069767442422,
          "durationTicks": 14,
          "midi": 40,
          "name": "E2",
          "ticks": 7877,
          "time": 91.59302325581395,
          "velocity": 0.1968503937007874
        },
        {
          "duration": 0.023255813953483084,
          "durationTicks": 2,
          "midi": 61,
          "name": "C#4",
          "ticks": 7878,
          "time": 91.6046511627907,
          "velocity": 0.2283464566929134
        },
        {
          "duration": 0.1860465116279073,
          "durationTicks": 16,
          "midi": 88,
          "name": "E6",
          "ticks": 7878,
          "time": 91.6046511627907,
          "velocity": 0.18110236220472442
        },
        {
          "duration": 0.06976744186046346,
          "durationTicks": 6,
          "midi": 89,
          "name": "F6",
          "ticks": 7879,
          "time": 91.61627906976744,
          "velocity": 0.08661417322834646
        },
        {
          "duration": 0.023255813953483084,
          "durationTicks": 2,
          "midi": 7,
          "name": "G-1",
          "ticks": 7880,
          "time": 91.62790697674419,
          "velocity": 0.2992125984251969
        },
        {
          "duration": 0.023255813953483084,
          "durationTicks": 2,
          "midi": 59,
          "name": "B3",
          "ticks": 7884,
          "time": 91.67441860465117,
          "velocity": 0.25984251968503935
        },
        {
          "duration": 0.05813953488372192,
          "durationTicks": 5,
          "midi": 80,
          "name": "G#5",
          "ticks": 7886,
          "time": 91.69767441860465,
          "velocity": 0.2125984251968504
        },
        {
          "duration": 0.8953488372093119,
          "durationTicks": 77,
          "midi": 40,
          "name": "E2",
          "ticks": 7892,
          "time": 91.76744186046511,
          "velocity": 0.30708661417322836
        },
        {
          "duration": 0.023255813953497295,
          "durationTicks": 2,
          "midi": 61,
          "name": "C#4",
          "ticks": 7892,
          "time": 91.76744186046511,
          "velocity": 0.2283464566929134
        },
        {
          "duration": 0.16279069767441,
          "durationTicks": 14,
          "midi": 76,
          "name": "E5",
          "ticks": 7894,
          "time": 91.79069767441861,
          "velocity": 0.1968503937007874
        },
        {
          "duration": 0.09302325581394655,
          "durationTicks": 8,
          "midi": 89,
          "name": "F6",
          "ticks": 7895,
          "time": 91.80232558139535,
          "velocity": 0.10236220472440945
        },
        {
          "duration": 0.023255813953497295,
          "durationTicks": 2,
          "midi": 7,
          "name": "G-1",
          "ticks": 7898,
          "time": 91.83720930232558,
          "velocity": 0.29133858267716534
        },
        {
          "duration": 0.04651162790698038,
          "durationTicks": 4,
          "midi": 61,
          "name": "C#4",
          "ticks": 7898,
          "time": 91.83720930232558,
          "velocity": 0.28346456692913385
        },
        {
          "duration": 0.11627906976744384,
          "durationTicks": 10,
          "midi": 88,
          "name": "E6",
          "ticks": 7901,
          "time": 91.87209302325581,
          "velocity": 0.1968503937007874
        },
        {
          "duration": 0.023255813953497295,
          "durationTicks": 2,
          "midi": 60,
          "name": "C4",
          "ticks": 7902,
          "time": 91.88372093023256,
          "velocity": 0.2992125984251969
        },
        {
          "duration": 0.04651162790698038,
          "durationTicks": 4,
          "midi": 74,
          "name": "D5",
          "ticks": 7903,
          "time": 91.8953488372093,
          "velocity": 0.11811023622047244
        },
        {
          "duration": 0.09302325581394655,
          "durationTicks": 8,
          "midi": 80,
          "name": "G#5",
          "ticks": 7905,
          "time": 91.9186046511628,
          "velocity": 0.1968503937007874
        },
        {
          "duration": 0.023255813953483084,
          "durationTicks": 2,
          "midi": 59,
          "name": "B3",
          "ticks": 7906,
          "time": 91.93023255813954,
          "velocity": 0.2283464566929134
        },
        {
          "duration": 0.7093023255813904,
          "durationTicks": 61,
          "midi": 73,
          "name": "C#5",
          "ticks": 7907,
          "time": 91.94186046511628,
          "velocity": 0.31496062992125984
        },
        {
          "duration": 0.03488372093023884,
          "durationTicks": 3,
          "midi": 89,
          "name": "F6",
          "ticks": 7908,
          "time": 91.95348837209302,
          "velocity": 0.10236220472440945
        },
        {
          "duration": 0.06976744186046346,
          "durationTicks": 6,
          "midi": 59,
          "name": "B3",
          "ticks": 7912,
          "time": 92,
          "velocity": 0.25984251968503935
        },
        {
          "duration": 0.04651162790696617,
          "durationTicks": 4,
          "midi": 88,
          "name": "E6",
          "ticks": 7915,
          "time": 92.03488372093024,
          "velocity": 0.11811023622047244
        },
        {
          "duration": 0.12790697674418539,
          "durationTicks": 11,
          "midi": 59,
          "name": "B3",
          "ticks": 7919,
          "time": 92.0813953488372,
          "velocity": 0.29133858267716534
        },
        {
          "duration": 0.7790697674418681,
          "durationTicks": 67,
          "midi": 76,
          "name": "E5",
          "ticks": 7919,
          "time": 92.0813953488372,
          "velocity": 0.25196850393700787
        },
        {
          "duration": 0.1860465116279073,
          "durationTicks": 16,
          "midi": 80,
          "name": "G#5",
          "ticks": 7920,
          "time": 92.09302325581395,
          "velocity": 0.23622047244094488
        },
        {
          "duration": 0.11627906976744384,
          "durationTicks": 10,
          "midi": 89,
          "name": "F6",
          "ticks": 7923,
          "time": 92.12790697674419,
          "velocity": 0.11811023622047244
        },
        {
          "duration": 0.06976744186046346,
          "durationTicks": 6,
          "midi": 59,
          "name": "B3",
          "ticks": 7931,
          "time": 92.22093023255815,
          "velocity": 0.2755905511811024
        },
        {
          "duration": 0.05813953488372192,
          "durationTicks": 5,
          "midi": 80,
          "name": "G#5",
          "ticks": 7937,
          "time": 92.29069767441861,
          "velocity": 0.1732283464566929
        },
        {
          "duration": 0.034883720930224626,
          "durationTicks": 3,
          "midi": 59,
          "name": "B3",
          "ticks": 7938,
          "time": 92.30232558139535,
          "velocity": 0.2677165354330709
        },
        {
          "duration": 0.3372093023255758,
          "durationTicks": 29,
          "midi": 83,
          "name": "B5",
          "ticks": 7939,
          "time": 92.31395348837209,
          "velocity": 0.30708661417322836
        },
        {
          "duration": 0.2325581395348877,
          "durationTicks": 20,
          "midi": 69,
          "name": "A4",
          "ticks": 7940,
          "time": 92.32558139534883,
          "velocity": 0.2755905511811024
        },
        {
          "duration": 0.19767441860464885,
          "durationTicks": 17,
          "midi": 81,
          "name": "A5",
          "ticks": 7940,
          "time": 92.32558139534883,
          "velocity": 0.30708661417322836
        },
        {
          "duration": 0.023255813953483084,
          "durationTicks": 2,
          "midi": 59,
          "name": "B3",
          "ticks": 7942,
          "time": 92.34883720930233,
          "velocity": 0.2440944881889764
        },
        {
          "duration": 0.023255813953497295,
          "durationTicks": 2,
          "midi": 59,
          "name": "B3",
          "ticks": 7945,
          "time": 92.38372093023256,
          "velocity": 0.25984251968503935
        },
        {
          "duration": 0.09302325581396076,
          "durationTicks": 8,
          "midi": 80,
          "name": "G#5",
          "ticks": 7945,
          "time": 92.38372093023256,
          "velocity": 0.23622047244094488
        },
        {
          "duration": 0.06976744186046346,
          "durationTicks": 6,
          "midi": 91,
          "name": "G6",
          "ticks": 7946,
          "time": 92.3953488372093,
          "velocity": 0.11023622047244094
        },
        {
          "duration": 0.023255813953483084,
          "durationTicks": 2,
          "midi": 61,
          "name": "C#4",
          "ticks": 7950,
          "time": 92.44186046511628,
          "velocity": 0.25984251968503935
        },
        {
          "duration": 3.7325581395348877,
          "durationTicks": 321,
          "midi": 85,
          "name": "C#6",
          "ticks": 7950,
          "time": 92.44186046511628,
          "velocity": 0.3700787401574803
        },
        {
          "duration": 0.023255813953483084,
          "durationTicks": 2,
          "midi": 61,
          "name": "C#4",
          "ticks": 7953,
          "time": 92.47674418604652,
          "velocity": 0.25196850393700787
        },
        {
          "duration": 0.081395348837205,
          "durationTicks": 7,
          "midi": 91,
          "name": "G6",
          "ticks": 7955,
          "time": 92.5,
          "velocity": 0.08661417322834646
        },
        {
          "duration": 0.05813953488372192,
          "durationTicks": 5,
          "midi": 61,
          "name": "C#4",
          "ticks": 7956,
          "time": 92.51162790697674,
          "velocity": 0.2992125984251969
        },
        {
          "duration": 0.2093023255814046,
          "durationTicks": 18,
          "midi": 80,
          "name": "G#5",
          "ticks": 7957,
          "time": 92.52325581395348,
          "velocity": 0.2047244094488189
        },
        {
          "duration": 0.05813953488372192,
          "durationTicks": 5,
          "midi": 68,
          "name": "G#4",
          "ticks": 7961,
          "time": 92.56976744186046,
          "velocity": 0.23622047244094488
        },
        {
          "duration": 0.04651162790698038,
          "durationTicks": 4,
          "midi": 61,
          "name": "C#4",
          "ticks": 7962,
          "time": 92.5813953488372,
          "velocity": 0.2440944881889764
        },
        {
          "duration": 0.05813953488372192,
          "durationTicks": 5,
          "midi": 89,
          "name": "F6",
          "ticks": 7963,
          "time": 92.59302325581395,
          "velocity": 0.14960629921259844
        },
        {
          "duration": 0.13953488372092693,
          "durationTicks": 12,
          "midi": 81,
          "name": "A5",
          "ticks": 7964,
          "time": 92.6046511627907,
          "velocity": 0.2125984251968504
        },
        {
          "duration": 0.09302325581394655,
          "durationTicks": 8,
          "midi": 69,
          "name": "A4",
          "ticks": 7965,
          "time": 92.61627906976744,
          "velocity": 0.2992125984251969
        },
        {
          "duration": 0.16279069767441,
          "durationTicks": 14,
          "midi": 91,
          "name": "G6",
          "ticks": 7965,
          "time": 92.61627906976744,
          "velocity": 0.14960629921259844
        },
        {
          "duration": 0.05813953488372192,
          "durationTicks": 5,
          "midi": 61,
          "name": "C#4",
          "ticks": 7967,
          "time": 92.63953488372093,
          "velocity": 0.2677165354330709
        },
        {
          "duration": 0.081395348837205,
          "durationTicks": 7,
          "midi": 89,
          "name": "F6",
          "ticks": 7970,
          "time": 92.67441860465117,
          "velocity": 0.09448818897637795
        },
        {
          "duration": 0.5930232558139465,
          "durationTicks": 51,
          "midi": 73,
          "name": "C#5",
          "ticks": 7971,
          "time": 92.68604651162791,
          "velocity": 0.3464566929133858
        },
        {
          "duration": 0.11627906976744384,
          "durationTicks": 10,
          "midi": 61,
          "name": "C#4",
          "ticks": 7973,
          "time": 92.70930232558139,
          "velocity": 0.30708661417322836
        },
        {
          "duration": 0.12790697674418539,
          "durationTicks": 11,
          "midi": 40,
          "name": "E2",
          "ticks": 7974,
          "time": 92.72093023255815,
          "velocity": 0.1968503937007874
        },
        {
          "duration": 0.7674418604651123,
          "durationTicks": 66,
          "midi": 69,
          "name": "A4",
          "ticks": 7975,
          "time": 92.73255813953489,
          "velocity": 0.3779527559055118
        },
        {
          "duration": 0.09302325581394655,
          "durationTicks": 8,
          "midi": 93,
          "name": "A6",
          "ticks": 7975,
          "time": 92.73255813953489,
          "velocity": 0.2440944881889764
        },
        {
          "duration": 0.03488372093023884,
          "durationTicks": 3,
          "midi": 92,
          "name": "G#6",
          "ticks": 7979,
          "time": 92.77906976744185,
          "velocity": 0.07874015748031496
        },
        {
          "duration": 0.13953488372092693,
          "durationTicks": 12,
          "midi": 80,
          "name": "G#5",
          "ticks": 7982,
          "time": 92.81395348837209,
          "velocity": 0.2440944881889764
        },
        {
          "duration": 0.023255813953497295,
          "durationTicks": 2,
          "midi": 60,
          "name": "C4",
          "ticks": 7983,
          "time": 92.82558139534883,
          "velocity": 0.25196850393700787
        },
        {
          "duration": 0.05813953488372192,
          "durationTicks": 5,
          "midi": 61,
          "name": "C#4",
          "ticks": 7984,
          "time": 92.83720930232558,
          "velocity": 0.2755905511811024
        },
        {
          "duration": 0.03488372093023884,
          "durationTicks": 3,
          "midi": 95,
          "name": "B6",
          "ticks": 7984,
          "time": 92.83720930232558,
          "velocity": 0.11811023622047244
        },
        {
          "duration": 0.034883720930224626,
          "durationTicks": 3,
          "midi": 89,
          "name": "F6",
          "ticks": 7985,
          "time": 92.84883720930233,
          "velocity": 0.07086614173228346
        },
        {
          "duration": 0.6395348837209269,
          "durationTicks": 55,
          "midi": 40,
          "name": "E2",
          "ticks": 7986,
          "time": 92.86046511627907,
          "velocity": 0.2755905511811024
        },
        {
          "duration": 0.05813953488370771,
          "durationTicks": 5,
          "midi": 61,
          "name": "C#4",
          "ticks": 7990,
          "time": 92.90697674418605,
          "velocity": 0.2677165354330709
        },
        {
          "duration": 0.03488372093023884,
          "durationTicks": 3,
          "midi": 89,
          "name": "F6",
          "ticks": 7993,
          "time": 92.94186046511628,
          "velocity": 0.10236220472440945
        },
        {
          "duration": 0.6627906976744242,
          "durationTicks": 57,
          "midi": 91,
          "name": "G6",
          "ticks": 7993,
          "time": 92.94186046511628,
          "velocity": 0.2440944881889764
        },
        {
          "duration": 0.19767441860464885,
          "durationTicks": 17,
          "midi": 95,
          "name": "B6",
          "ticks": 7994,
          "time": 92.95348837209302,
          "velocity": 0.16535433070866143
        },
        {
          "duration": 0.023255813953497295,
          "durationTicks": 2,
          "midi": 60,
          "name": "C4",
          "ticks": 7995,
          "time": 92.96511627906976,
          "velocity": 0.29133858267716534
        },
        {
          "duration": 0.023255813953483084,
          "durationTicks": 2,
          "midi": 61,
          "name": "C#4",
          "ticks": 7996,
          "time": 92.97674418604652,
          "velocity": 0.29133858267716534
        },
        {
          "duration": 0.13953488372092693,
          "durationTicks": 12,
          "midi": 88,
          "name": "E6",
          "ticks": 7998,
          "time": 93,
          "velocity": 0.23622047244094488
        },
        {
          "duration": 0.04651162790698038,
          "durationTicks": 4,
          "midi": 59,
          "name": "B3",
          "ticks": 7999,
          "time": 93.01162790697674,
          "velocity": 0.29133858267716534
        },
        {
          "duration": 0.27906976744186807,
          "durationTicks": 24,
          "midi": 89,
          "name": "F6",
          "ticks": 7999,
          "time": 93.01162790697674,
          "velocity": 0.1732283464566929
        },
        {
          "duration": 0.7209302325581461,
          "durationTicks": 62,
          "midi": 76,
          "name": "E5",
          "ticks": 8000,
          "time": 93.02325581395348,
          "velocity": 0.28346456692913385
        },
        {
          "duration": 0.023255813953483084,
          "durationTicks": 2,
          "midi": 61,
          "name": "C#4",
          "ticks": 8001,
          "time": 93.03488372093024,
          "velocity": 0.2755905511811024
        },
        {
          "duration": 0.12790697674418539,
          "durationTicks": 11,
          "midi": 80,
          "name": "G#5",
          "ticks": 8003,
          "time": 93.05813953488372,
          "velocity": 0.2755905511811024
        },
        {
          "duration": 0.023255813953483084,
          "durationTicks": 2,
          "midi": 61,
          "name": "C#4",
          "ticks": 8004,
          "time": 93.06976744186046,
          "velocity": 0.2283464566929134
        },
        {
          "duration": 0.023255813953483084,
          "durationTicks": 2,
          "midi": 61,
          "name": "C#4",
          "ticks": 8007,
          "time": 93.1046511627907,
          "velocity": 0.23622047244094488
        },
        {
          "duration": 0.023255813953483084,
          "durationTicks": 2,
          "midi": 60,
          "name": "C4",
          "ticks": 8009,
          "time": 93.12790697674419,
          "velocity": 0.28346456692913385
        },
        {
          "duration": 0.6860465116279073,
          "durationTicks": 59,
          "midi": 95,
          "name": "B6",
          "ticks": 8012,
          "time": 93.16279069767442,
          "velocity": 0.2047244094488189
        },
        {
          "duration": 0.023255813953483084,
          "durationTicks": 2,
          "midi": 59,
          "name": "B3",
          "ticks": 8013,
          "time": 93.17441860465117,
          "velocity": 0.2440944881889764
        },
        {
          "duration": 0.023255813953497295,
          "durationTicks": 2,
          "midi": 59,
          "name": "B3",
          "ticks": 8016,
          "time": 93.20930232558139,
          "velocity": 0.25984251968503935
        },
        {
          "duration": 0.40697674418605345,
          "durationTicks": 35,
          "midi": 80,
          "name": "G#5",
          "ticks": 8016,
          "time": 93.20930232558139,
          "velocity": 0.28346456692913385
        },
        {
          "duration": 0.023255813953483084,
          "durationTicks": 2,
          "midi": 59,
          "name": "B3",
          "ticks": 8019,
          "time": 93.24418604651163,
          "velocity": 0.25984251968503935
        },
        {
          "duration": 0.04651162790698038,
          "durationTicks": 4,
          "midi": 74,
          "name": "D5",
          "ticks": 8021,
          "time": 93.26744186046511,
          "velocity": 0.1732283464566929
        },
        {
          "duration": 0.05813953488372192,
          "durationTicks": 5,
          "midi": 59,
          "name": "B3",
          "ticks": 8022,
          "time": 93.27906976744185,
          "velocity": 0.25984251968503935
        },
        {
          "duration": 0.46511627906976116,
          "durationTicks": 40,
          "midi": 73,
          "name": "C#5",
          "ticks": 8025,
          "time": 93.31395348837209,
          "velocity": 0.3543307086614173
        },
        {
          "duration": 0.1860465116279073,
          "durationTicks": 16,
          "midi": 89,
          "name": "F6",
          "ticks": 8025,
          "time": 93.31395348837209,
          "velocity": 0.13385826771653545
        },
        {
          "duration": 0.023255813953483084,
          "durationTicks": 2,
          "midi": 59,
          "name": "B3",
          "ticks": 8028,
          "time": 93.34883720930233,
          "velocity": 0.25196850393700787
        },
        {
          "duration": 0.023255813953497295,
          "durationTicks": 2,
          "midi": 59,
          "name": "B3",
          "ticks": 8031,
          "time": 93.38372093023256,
          "velocity": 0.2440944881889764
        },
        {
          "duration": 0.023255813953483084,
          "durationTicks": 2,
          "midi": 59,
          "name": "B3",
          "ticks": 8034,
          "time": 93.4186046511628,
          "velocity": 0.25196850393700787
        },
        {
          "duration": 0.13953488372092693,
          "durationTicks": 12,
          "midi": 59,
          "name": "B3",
          "ticks": 8037,
          "time": 93.45348837209302,
          "velocity": 0.2755905511811024
        },
        {
          "duration": 0.6395348837209269,
          "durationTicks": 55,
          "midi": 69,
          "name": "A4",
          "ticks": 8042,
          "time": 93.51162790697674,
          "velocity": 0.3858267716535433
        },
        {
          "duration": 0.06976744186046346,
          "durationTicks": 6,
          "midi": 40,
          "name": "E2",
          "ticks": 8043,
          "time": 93.52325581395348,
          "velocity": 0.15748031496062992
        },
        {
          "duration": 0.04651162790698038,
          "durationTicks": 4,
          "midi": 89,
          "name": "F6",
          "ticks": 8043,
          "time": 93.52325581395348,
          "velocity": 0.14173228346456693
        },
        {
          "duration": 0.09302325581394655,
          "durationTicks": 8,
          "midi": 89,
          "name": "F6",
          "ticks": 8051,
          "time": 93.61627906976744,
          "velocity": 0.11023622047244094
        },
        {
          "duration": 0.04651162790698038,
          "durationTicks": 4,
          "midi": 59,
          "name": "B3",
          "ticks": 8054,
          "time": 93.65116279069767,
          "velocity": 0.2992125984251969
        },
        {
          "duration": 0.3372093023255758,
          "durationTicks": 29,
          "midi": 80,
          "name": "G#5",
          "ticks": 8056,
          "time": 93.67441860465117,
          "velocity": 0.2755905511811024
        },
        {
          "duration": 0.04651162790698038,
          "durationTicks": 4,
          "midi": 40,
          "name": "E2",
          "ticks": 8058,
          "time": 93.69767441860465,
          "velocity": 0.12598425196850394
        },
        {
          "duration": 0.09302325581396076,
          "durationTicks": 8,
          "midi": 91,
          "name": "G6",
          "ticks": 8059,
          "time": 93.70930232558139,
          "velocity": 0.11023622047244094
        },
        {
          "duration": 0.2093023255813904,
          "durationTicks": 18,
          "midi": 93,
          "name": "A6",
          "ticks": 8061,
          "time": 93.73255813953489,
          "velocity": 0.1968503937007874
        },
        {
          "duration": 0.023255813953483084,
          "durationTicks": 2,
          "midi": 59,
          "name": "B3",
          "ticks": 8062,
          "time": 93.74418604651163,
          "velocity": 0.25984251968503935
        },
        {
          "duration": 0.03488372093023884,
          "durationTicks": 3,
          "midi": 89,
          "name": "F6",
          "ticks": 8063,
          "time": 93.75581395348837,
          "velocity": 0.12598425196850394
        },
        {
          "duration": 0.7209302325581461,
          "durationTicks": 62,
          "midi": 40,
          "name": "E2",
          "ticks": 8064,
          "time": 93.76744186046511,
          "velocity": 0.2755905511811024
        },
        {
          "duration": 0.10465116279068809,
          "durationTicks": 9,
          "midi": 73,
          "name": "C#5",
          "ticks": 8066,
          "time": 93.79069767441861,
          "velocity": 0.2283464566929134
        },
        {
          "duration": 1.0465116279069662,
          "durationTicks": 90,
          "midi": 76,
          "name": "E5",
          "ticks": 8066,
          "time": 93.79069767441861,
          "velocity": 0.2283464566929134
        },
        {
          "duration": 0.023255813953483084,
          "durationTicks": 2,
          "midi": 61,
          "name": "C#4",
          "ticks": 8067,
          "time": 93.80232558139535,
          "velocity": 0.2283464566929134
        },
        {
          "duration": 0.023255813953497295,
          "durationTicks": 2,
          "midi": 61,
          "name": "C#4",
          "ticks": 8070,
          "time": 93.83720930232558,
          "velocity": 0.2283464566929134
        },
        {
          "duration": 0.081395348837205,
          "durationTicks": 7,
          "midi": 61,
          "name": "C#4",
          "ticks": 8073,
          "time": 93.87209302325581,
          "velocity": 0.28346456692913385
        },
        {
          "duration": 0.03488372093023884,
          "durationTicks": 3,
          "midi": 74,
          "name": "D5",
          "ticks": 8075,
          "time": 93.8953488372093,
          "velocity": 0.09448818897637795
        },
        {
          "duration": 0.19767441860464885,
          "durationTicks": 17,
          "midi": 73,
          "name": "C#5",
          "ticks": 8078,
          "time": 93.93023255813954,
          "velocity": 0.30708661417322836
        },
        {
          "duration": 0.04651162790698038,
          "durationTicks": 4,
          "midi": 89,
          "name": "F6",
          "ticks": 8078,
          "time": 93.93023255813954,
          "velocity": 0.15748031496062992
        },
        {
          "duration": 0.05813953488372192,
          "durationTicks": 5,
          "midi": 61,
          "name": "C#4",
          "ticks": 8081,
          "time": 93.96511627906976,
          "velocity": 0.2677165354330709
        },
        {
          "duration": 0.03488372093023884,
          "durationTicks": 3,
          "midi": 95,
          "name": "B6",
          "ticks": 8081,
          "time": 93.96511627906976,
          "velocity": 0.12598425196850394
        },
        {
          "duration": 0.03488372093023884,
          "durationTicks": 3,
          "midi": 92,
          "name": "G#6",
          "ticks": 8085,
          "time": 94.01162790697674,
          "velocity": 0.07874015748031496
        },
        {
          "duration": 0.04651162790698038,
          "durationTicks": 4,
          "midi": 95,
          "name": "B6",
          "ticks": 8085,
          "time": 94.01162790697674,
          "velocity": 0.14173228346456693
        },
        {
          "duration": 0.05813953488370771,
          "durationTicks": 5,
          "midi": 61,
          "name": "C#4",
          "ticks": 8087,
          "time": 94.03488372093024,
          "velocity": 0.25984251968503935
        },
        {
          "duration": 0.034883720930224626,
          "durationTicks": 3,
          "midi": 80,
          "name": "G#5",
          "ticks": 8087,
          "time": 94.03488372093024,
          "velocity": 0.14173228346456693
        },
        {
          "duration": 0.023255813953483084,
          "durationTicks": 2,
          "midi": 61,
          "name": "C#4",
          "ticks": 8093,
          "time": 94.1046511627907,
          "velocity": 0.25984251968503935
        },
        {
          "duration": 0.8139534883720927,
          "durationTicks": 70,
          "midi": 80,
          "name": "G#5",
          "ticks": 8093,
          "time": 94.1046511627907,
          "velocity": 0.2992125984251969
        },
        {
          "duration": 0.05813953488372192,
          "durationTicks": 5,
          "midi": 89,
          "name": "F6",
          "ticks": 8093,
          "time": 94.1046511627907,
          "velocity": 0.16535433070866143
        },
        {
          "duration": 0.2674418604651265,
          "durationTicks": 23,
          "midi": 73,
          "name": "C#5",
          "ticks": 8097,
          "time": 94.15116279069767,
          "velocity": 0.33070866141732286
        },
        {
          "duration": 0.12790697674418539,
          "durationTicks": 11,
          "midi": 69,
          "name": "A4",
          "ticks": 8098,
          "time": 94.16279069767442,
          "velocity": 0.29133858267716534
        },
        {
          "duration": 0.081395348837205,
          "durationTicks": 7,
          "midi": 95,
          "name": "B6",
          "ticks": 8098,
          "time": 94.16279069767442,
          "velocity": 0.14173228346456693
        },
        {
          "duration": 0.023255813953483084,
          "durationTicks": 2,
          "midi": 59,
          "name": "B3",
          "ticks": 8099,
          "time": 94.17441860465117,
          "velocity": 0.2755905511811024
        },
        {
          "duration": 0.03488372093023884,
          "durationTicks": 3,
          "midi": 60,
          "name": "C4",
          "ticks": 8101,
          "time": 94.19767441860465,
          "velocity": 0.2677165354330709
        },
        {
          "duration": 0.023255813953483084,
          "durationTicks": 2,
          "midi": 61,
          "name": "C#4",
          "ticks": 8104,
          "time": 94.23255813953489,
          "velocity": 0.23622047244094488
        },
        {
          "duration": 0.05813953488372192,
          "durationTicks": 5,
          "midi": 60,
          "name": "C4",
          "ticks": 8105,
          "time": 94.24418604651163,
          "velocity": 0.2440944881889764
        },
        {
          "duration": 0.2674418604651123,
          "durationTicks": 23,
          "midi": 69,
          "name": "A4",
          "ticks": 8110,
          "time": 94.30232558139535,
          "velocity": 0.3228346456692913
        },
        {
          "duration": 0.06976744186046346,
          "durationTicks": 6,
          "midi": 89,
          "name": "F6",
          "ticks": 8110,
          "time": 94.30232558139535,
          "velocity": 0.14173228346456693
        },
        {
          "duration": 0.023255813953483084,
          "durationTicks": 2,
          "midi": 60,
          "name": "C4",
          "ticks": 8114,
          "time": 94.34883720930233,
          "velocity": 0.23622047244094488
        },
        {
          "duration": 0.081395348837205,
          "durationTicks": 7,
          "midi": 95,
          "name": "B6",
          "ticks": 8115,
          "time": 94.36046511627907,
          "velocity": 0.13385826771653545
        },
        {
          "duration": 0.06976744186046346,
          "durationTicks": 6,
          "midi": 91,
          "name": "G6",
          "ticks": 8116,
          "time": 94.37209302325581,
          "velocity": 0.07086614173228346
        },
        {
          "duration": 0.023255813953497295,
          "durationTicks": 2,
          "midi": 60,
          "name": "C4",
          "ticks": 8118,
          "time": 94.3953488372093,
          "velocity": 0.2440944881889764
        },
        {
          "duration": 1.3720930232558004,
          "durationTicks": 118,
          "midi": 92,
          "name": "G#6",
          "ticks": 8119,
          "time": 94.40697674418605,
          "velocity": 0.36220472440944884
        },
        {
          "duration": 0.13953488372092693,
          "durationTicks": 12,
          "midi": 93,
          "name": "A6",
          "ticks": 8119,
          "time": 94.40697674418605,
          "velocity": 0.14960629921259844
        },
        {
          "duration": 0.023255813953483084,
          "durationTicks": 2,
          "midi": 74,
          "name": "D5",
          "ticks": 8120,
          "time": 94.4186046511628,
          "velocity": 0.28346456692913385
        },
        {
          "duration": 0.023255813953483084,
          "durationTicks": 2,
          "midi": 73,
          "name": "C#5",
          "ticks": 8122,
          "time": 94.44186046511628,
          "velocity": 0.2283464566929134
        },
        {
          "duration": 0.13953488372092693,
          "durationTicks": 12,
          "midi": 59,
          "name": "B3",
          "ticks": 8125,
          "time": 94.47674418604652,
          "velocity": 0.2125984251968504
        },
        {
          "duration": 0.22093023255813193,
          "durationTicks": 19,
          "midi": 73,
          "name": "C#5",
          "ticks": 8126,
          "time": 94.48837209302326,
          "velocity": 0.33070866141732286
        },
        {
          "duration": 0.12790697674418539,
          "durationTicks": 11,
          "midi": 40,
          "name": "E2",
          "ticks": 8127,
          "time": 94.5,
          "velocity": 0.25984251968503935
        },
        {
          "duration": 0.05813953488372192,
          "durationTicks": 5,
          "midi": 89,
          "name": "F6",
          "ticks": 8128,
          "time": 94.51162790697674,
          "velocity": 0.07874015748031496
        },
        {
          "duration": 0.03488372093023884,
          "durationTicks": 3,
          "midi": 59,
          "name": "B3",
          "ticks": 8138,
          "time": 94.62790697674419,
          "velocity": 0.1732283464566929
        },
        {
          "duration": 0.5116279069767415,
          "durationTicks": 44,
          "midi": 69,
          "name": "A4",
          "ticks": 8138,
          "time": 94.62790697674419,
          "velocity": 0.4251968503937008
        },
        {
          "duration": 0.034883720930224626,
          "durationTicks": 3,
          "midi": 89,
          "name": "F6",
          "ticks": 8141,
          "time": 94.66279069767442,
          "velocity": 0.09448818897637795
        },
        {
          "duration": 0.03488372093023884,
          "durationTicks": 3,
          "midi": 17,
          "name": "F0",
          "ticks": 8145,
          "time": 94.70930232558139,
          "velocity": 0.13385826771653545
        },
        {
          "duration": 0.17441860465116577,
          "durationTicks": 15,
          "midi": 40,
          "name": "E2",
          "ticks": 8145,
          "time": 94.70930232558139,
          "velocity": 0.2204724409448819
        },
        {
          "duration": 0.2674418604651265,
          "durationTicks": 23,
          "midi": 73,
          "name": "C#5",
          "ticks": 8150,
          "time": 94.76744186046511,
          "velocity": 0.25984251968503935
        },
        {
          "duration": 0.03488372093023884,
          "durationTicks": 3,
          "midi": 61,
          "name": "C#4",
          "ticks": 8154,
          "time": 94.81395348837209,
          "velocity": 0.11811023622047244
        },
        {
          "duration": 0.04651162790696617,
          "durationTicks": 4,
          "midi": 76,
          "name": "E5",
          "ticks": 8157,
          "time": 94.84883720930233,
          "velocity": 0.14960629921259844
        },
        {
          "duration": 0.034883720930224626,
          "durationTicks": 3,
          "midi": 40,
          "name": "E2",
          "ticks": 8162,
          "time": 94.90697674418605,
          "velocity": 0.14960629921259844
        },
        {
          "duration": 0.034883720930224626,
          "durationTicks": 3,
          "midi": 76,
          "name": "E5",
          "ticks": 8162,
          "time": 94.90697674418605,
          "velocity": 0.15748031496062992
        },
        {
          "duration": 0.11627906976744384,
          "durationTicks": 10,
          "midi": 75,
          "name": "D#5",
          "ticks": 8164,
          "time": 94.93023255813954,
          "velocity": 0.15748031496062992
        },
        {
          "duration": 0.06976744186046346,
          "durationTicks": 6,
          "midi": 84,
          "name": "C6",
          "ticks": 8164,
          "time": 94.93023255813954,
          "velocity": 0.11023622047244094
        },
        {
          "duration": 0.11627906976744384,
          "durationTicks": 10,
          "midi": 40,
          "name": "E2",
          "ticks": 8166,
          "time": 94.95348837209302,
          "velocity": 0.14960629921259844
        },
        {
          "duration": 0.04651162790698038,
          "durationTicks": 4,
          "midi": 80,
          "name": "G#5",
          "ticks": 8166,
          "time": 94.95348837209302,
          "velocity": 0.09448818897637795
        },
        {
          "duration": 0.05813953488370771,
          "durationTicks": 5,
          "midi": 74,
          "name": "D5",
          "ticks": 8173,
          "time": 95.03488372093024,
          "velocity": 0.10236220472440945
        },
        {
          "duration": 0.2093023255813904,
          "durationTicks": 18,
          "midi": 75,
          "name": "D#5",
          "ticks": 8180,
          "time": 95.11627906976744,
          "velocity": 0.18110236220472442
        },
        {
          "duration": 0.17441860465116577,
          "durationTicks": 15,
          "midi": 80,
          "name": "G#5",
          "ticks": 8180,
          "time": 95.11627906976744,
          "velocity": 0.28346456692913385
        },
        {
          "duration": 0.023255813953483084,
          "durationTicks": 2,
          "midi": 68,
          "name": "G#4",
          "ticks": 8181,
          "time": 95.12790697674419,
          "velocity": 0.2283464566929134
        },
        {
          "duration": 0.2325581395348877,
          "durationTicks": 20,
          "midi": 73,
          "name": "C#5",
          "ticks": 8182,
          "time": 95.13953488372093,
          "velocity": 0.25196850393700787
        },
        {
          "duration": 0.03488372093023884,
          "durationTicks": 3,
          "midi": 69,
          "name": "A4",
          "ticks": 8183,
          "time": 95.15116279069767,
          "velocity": 0.33070866141732286
        },
        {
          "duration": 0.06976744186046346,
          "durationTicks": 6,
          "midi": 40,
          "name": "E2",
          "ticks": 8184,
          "time": 95.16279069767442,
          "velocity": 0.18110236220472442
        },
        {
          "duration": 0.03488372093023884,
          "durationTicks": 3,
          "midi": 68,
          "name": "G#4",
          "ticks": 8188,
          "time": 95.20930232558139,
          "velocity": 0.28346456692913385
        },
        {
          "duration": 0.06976744186046346,
          "durationTicks": 6,
          "midi": 59,
          "name": "B3",
          "ticks": 8189,
          "time": 95.22093023255815,
          "velocity": 0.09448818897637795
        },
        {
          "duration": 0.11627906976744384,
          "durationTicks": 10,
          "midi": 40,
          "name": "E2",
          "ticks": 8192,
          "time": 95.25581395348837,
          "velocity": 0.14173228346456693
        },
        {
          "duration": 1.3372093023255758,
          "durationTicks": 115,
          "midi": 68,
          "name": "G#4",
          "ticks": 8192,
          "time": 95.25581395348837,
          "velocity": 0.33070866141732286
        },
        {
          "duration": 0.5930232558139608,
          "durationTicks": 51,
          "midi": 75,
          "name": "D#5",
          "ticks": 8199,
          "time": 95.33720930232558,
          "velocity": 0.1889763779527559
        },
        {
          "duration": 0.04651162790698038,
          "durationTicks": 4,
          "midi": 59,
          "name": "B3",
          "ticks": 8202,
          "time": 95.37209302325581,
          "velocity": 0.07086614173228346
        },
        {
          "duration": 0.3139534883720927,
          "durationTicks": 27,
          "midi": 40,
          "name": "E2",
          "ticks": 8203,
          "time": 95.38372093023256,
          "velocity": 0.1968503937007874
        },
        {
          "duration": 0.7558139534883708,
          "durationTicks": 65,
          "midi": 73,
          "name": "C#5",
          "ticks": 8204,
          "time": 95.3953488372093,
          "velocity": 0.25196850393700787
        },
        {
          "duration": 0.034883720930224626,
          "durationTicks": 3,
          "midi": 84,
          "name": "C6",
          "ticks": 8216,
          "time": 95.53488372093024,
          "velocity": 0.08661417322834646
        },
        {
          "duration": 0.09302325581394655,
          "durationTicks": 8,
          "midi": 40,
          "name": "E2",
          "ticks": 8232,
          "time": 95.72093023255815,
          "velocity": 0.14173228346456693
        },
        {
          "duration": 0.2093023255814046,
          "durationTicks": 18,
          "midi": 40,
          "name": "E2",
          "ticks": 8241,
          "time": 95.82558139534883,
          "velocity": 0.16535433070866143
        },
        {
          "duration": 0.04651162790698038,
          "durationTicks": 4,
          "midi": 92,
          "name": "G#6",
          "ticks": 8266,
          "time": 96.11627906976744,
          "velocity": 0.13385826771653545
        },
        {
          "duration": 0.08139534883721922,
          "durationTicks": 7,
          "midi": 40,
          "name": "E2",
          "ticks": 8268,
          "time": 96.13953488372093,
          "velocity": 0.15748031496062992
        },
        {
          "duration": 0.08139534883721922,
          "durationTicks": 7,
          "midi": 75,
          "name": "D#5",
          "ticks": 8268,
          "time": 96.13953488372093,
          "velocity": 0.09448818897637795
        },
        {
          "duration": 0.09302325581394655,
          "durationTicks": 8,
          "midi": 59,
          "name": "B3",
          "ticks": 8270,
          "time": 96.16279069767442,
          "velocity": 0.12598425196850394
        },
        {
          "duration": 0.1860465116279073,
          "durationTicks": 16,
          "midi": 85,
          "name": "C#6",
          "ticks": 8276,
          "time": 96.23255813953489,
          "velocity": 0.18110236220472442
        },
        {
          "duration": 0.09302325581396076,
          "durationTicks": 8,
          "midi": 73,
          "name": "C#5",
          "ticks": 8278,
          "time": 96.25581395348837,
          "velocity": 0.1968503937007874
        },
        {
          "duration": 0.2906976744185954,
          "durationTicks": 25,
          "midi": 40,
          "name": "E2",
          "ticks": 8281,
          "time": 96.29069767441861,
          "velocity": 0.16535433070866143
        },
        {
          "duration": 0.4767441860465027,
          "durationTicks": 41,
          "midi": 85,
          "name": "C#6",
          "ticks": 8297,
          "time": 96.47674418604652,
          "velocity": 0.3464566929133858
        },
        {
          "duration": 0.06976744186046346,
          "durationTicks": 6,
          "midi": 73,
          "name": "C#5",
          "ticks": 8298,
          "time": 96.48837209302326,
          "velocity": 0.09448818897637795
        },
        {
          "duration": 0.10465116279068809,
          "durationTicks": 9,
          "midi": 40,
          "name": "E2",
          "ticks": 8308,
          "time": 96.6046511627907,
          "velocity": 0.09448818897637795
        },
        {
          "duration": 0.06976744186046346,
          "durationTicks": 6,
          "midi": 61,
          "name": "C#4",
          "ticks": 8310,
          "time": 96.62790697674419,
          "velocity": 0.08661417322834646
        },
        {
          "duration": 1.3720930232558146,
          "durationTicks": 118,
          "midi": 68,
          "name": "G#4",
          "ticks": 8310,
          "time": 96.62790697674419,
          "velocity": 0.4566929133858268
        },
        {
          "duration": 0.081395348837205,
          "durationTicks": 7,
          "midi": 75,
          "name": "D#5",
          "ticks": 8310,
          "time": 96.62790697674419,
          "velocity": 0.08661417322834646
        },
        {
          "duration": 0.06976744186046346,
          "durationTicks": 6,
          "midi": 61,
          "name": "C#4",
          "ticks": 8318,
          "time": 96.72093023255815,
          "velocity": 0.07874015748031496
        },
        {
          "duration": 0.034883720930224626,
          "durationTicks": 3,
          "midi": 73,
          "name": "C#5",
          "ticks": 8318,
          "time": 96.72093023255815,
          "velocity": 0.07874015748031496
        },
        {
          "duration": 0.11627906976744384,
          "durationTicks": 10,
          "midi": 75,
          "name": "D#5",
          "ticks": 8322,
          "time": 96.76744186046511,
          "velocity": 0.07874015748031496
        },
        {
          "duration": 0.06976744186046346,
          "durationTicks": 6,
          "midi": 73,
          "name": "C#5",
          "ticks": 8333,
          "time": 96.8953488372093,
          "velocity": 0.07874015748031496
        },
        {
          "duration": 0.2674418604651123,
          "durationTicks": 23,
          "midi": 85,
          "name": "C#6",
          "ticks": 8340,
          "time": 96.97674418604652,
          "velocity": 0.28346456692913385
        },
        {
          "duration": 0.081395348837205,
          "durationTicks": 7,
          "midi": 40,
          "name": "E2",
          "ticks": 8348,
          "time": 97.06976744186046,
          "velocity": 0.07874015748031496
        },
        {
          "duration": 0.27906976744185386,
          "durationTicks": 24,
          "midi": 85,
          "name": "C#6",
          "ticks": 8368,
          "time": 97.30232558139535,
          "velocity": 0.2283464566929134
        },
        {
          "duration": 0.05813953488372192,
          "durationTicks": 5,
          "midi": 40,
          "name": "E2",
          "ticks": 8369,
          "time": 97.31395348837209,
          "velocity": 0.07874015748031496
        },
        {
          "duration": 0.11627906976744384,
          "durationTicks": 10,
          "midi": 40,
          "name": "E2",
          "ticks": 8387,
          "time": 97.52325581395348,
          "velocity": 0.08661417322834646
        },
        {
          "duration": 0.04651162790698038,
          "durationTicks": 4,
          "midi": 73,
          "name": "C#5",
          "ticks": 8390,
          "time": 97.55813953488372,
          "velocity": 0.07086614173228346
        },
        {
          "duration": 0.16279069767442422,
          "durationTicks": 14,
          "midi": 85,
          "name": "C#6",
          "ticks": 8401,
          "time": 97.68604651162791,
          "velocity": 0.11023622047244094
        },
        {
          "duration": 0.09302325581394655,
          "durationTicks": 8,
          "midi": 68,
          "name": "G#4",
          "ticks": 8444,
          "time": 98.18604651162791,
          "velocity": 0.07086614173228346
        },
        {
          "duration": 0.08139534883721922,
          "durationTicks": 7,
          "midi": 85,
          "name": "C#6",
          "ticks": 8446,
          "time": 98.20930232558139,
          "velocity": 0.07086614173228346
        },
        {
          "duration": 0.2093023255813904,
          "durationTicks": 18,
          "midi": 78,
          "name": "F#5",
          "ticks": 8490,
          "time": 98.72093023255815,
          "velocity": 0.2755905511811024
        },
        {
          "duration": 0.34883720930233153,
          "durationTicks": 30,
          "midi": 83,
          "name": "B5",
          "ticks": 8675,
          "time": 100.87209302325581,
          "velocity": 0.28346456692913385
        },
        {
          "duration": 0.9651162790697754,
          "durationTicks": 83,
          "midi": 73,
          "name": "C#5",
          "ticks": 8676,
          "time": 100.88372093023256,
          "velocity": 0.41732283464566927
        },
        {
          "duration": 0.023255813953497295,
          "durationTicks": 2,
          "midi": 62,
          "name": "D4",
          "ticks": 8860,
          "time": 103.02325581395348,
          "velocity": 0.25196850393700787
        },
        {
          "duration": 0.7906976744185954,
          "durationTicks": 68,
          "midi": 73,
          "name": "C#5",
          "ticks": 8861,
          "time": 103.03488372093024,
          "velocity": 0.4409448818897638
        },
        {
          "duration": 0.023255813953483084,
          "durationTicks": 2,
          "midi": 45,
          "name": "A2",
          "ticks": 8864,
          "time": 103.06976744186046,
          "velocity": 0.2283464566929134
        },
        {
          "duration": 0.6279069767441854,
          "durationTicks": 54,
          "midi": 66,
          "name": "F#4",
          "ticks": 8864,
          "time": 103.06976744186046,
          "velocity": 0.28346456692913385
        },
        {
          "duration": 0.081395348837205,
          "durationTicks": 7,
          "midi": 71,
          "name": "B4",
          "ticks": 8864,
          "time": 103.06976744186046,
          "velocity": 0.14173228346456693
        },
        {
          "duration": 0.06976744186046346,
          "durationTicks": 6,
          "midi": 59,
          "name": "B3",
          "ticks": 8865,
          "time": 103.0813953488372,
          "velocity": 0.15748031496062992
        },
        {
          "duration": 0.03488372093023884,
          "durationTicks": 3,
          "midi": 46,
          "name": "A#2",
          "ticks": 8866,
          "time": 103.09302325581395,
          "velocity": 0.30708661417322836
        },
        {
          "duration": 0.023255813953483084,
          "durationTicks": 2,
          "midi": 47,
          "name": "B2",
          "ticks": 8869,
          "time": 103.12790697674419,
          "velocity": 0.25196850393700787
        },
        {
          "duration": 0.023255813953497295,
          "durationTicks": 2,
          "midi": 48,
          "name": "C3",
          "ticks": 8871,
          "time": 103.15116279069767,
          "velocity": 0.2283464566929134
        },
        {
          "duration": 0.09302325581396076,
          "durationTicks": 8,
          "midi": 47,
          "name": "B2",
          "ticks": 8875,
          "time": 103.19767441860465,
          "velocity": 0.25984251968503935
        },
        {
          "duration": 0.83720930232559,
          "durationTicks": 72,
          "midi": 69,
          "name": "A4",
          "ticks": 8881,
          "time": 103.26744186046511,
          "velocity": 0.33070866141732286
        },
        {
          "duration": 0.023255813953483084,
          "durationTicks": 2,
          "midi": 48,
          "name": "C3",
          "ticks": 8890,
          "time": 103.37209302325581,
          "velocity": 0.23622047244094488
        },
        {
          "duration": 0.04651162790698038,
          "durationTicks": 4,
          "midi": 47,
          "name": "B2",
          "ticks": 8897,
          "time": 103.45348837209302,
          "velocity": 0.29133858267716534
        },
        {
          "duration": 0.023255813953483084,
          "durationTicks": 2,
          "midi": 47,
          "name": "B2",
          "ticks": 8904,
          "time": 103.53488372093024,
          "velocity": 0.30708661417322836
        },
        {
          "duration": 0.09302325581396076,
          "durationTicks": 8,
          "midi": 88,
          "name": "E6",
          "ticks": 8907,
          "time": 103.56976744186046,
          "velocity": 0.14173228346456693
        },
        {
          "duration": 0.04651162790698038,
          "durationTicks": 4,
          "midi": 97,
          "name": "C#7",
          "ticks": 8914,
          "time": 103.65116279069767,
          "velocity": 0.11811023622047244
        },
        {
          "duration": 0.023255813953497295,
          "durationTicks": 2,
          "midi": 48,
          "name": "C3",
          "ticks": 8918,
          "time": 103.69767441860465,
          "velocity": 0.28346456692913385
        },
        {
          "duration": 0.023255813953483084,
          "durationTicks": 2,
          "midi": 47,
          "name": "B2",
          "ticks": 8920,
          "time": 103.72093023255815,
          "velocity": 0.23622047244094488
        },
        {
          "duration": 0.023255813953483084,
          "durationTicks": 2,
          "midi": 48,
          "name": "C3",
          "ticks": 8922,
          "time": 103.74418604651163,
          "velocity": 0.2755905511811024
        },
        {
          "duration": 0.1046511627907023,
          "durationTicks": 9,
          "midi": 88,
          "name": "E6",
          "ticks": 8923,
          "time": 103.75581395348837,
          "velocity": 0.13385826771653545
        },
        {
          "duration": 0.5,
          "durationTicks": 43,
          "midi": 78,
          "name": "F#5",
          "ticks": 8924,
          "time": 103.76744186046511,
          "velocity": 0.08661417322834646
        },
        {
          "duration": 0.023255813953497295,
          "durationTicks": 2,
          "midi": 48,
          "name": "C3",
          "ticks": 8925,
          "time": 103.77906976744185,
          "velocity": 0.2992125984251969
        },
        {
          "duration": 0.11627906976744384,
          "durationTicks": 10,
          "midi": 66,
          "name": "F#4",
          "ticks": 8926,
          "time": 103.79069767441861,
          "velocity": 0.10236220472440945
        },
        {
          "duration": 0.30232558139535115,
          "durationTicks": 26,
          "midi": 50,
          "name": "D3",
          "ticks": 8929,
          "time": 103.82558139534883,
          "velocity": 0.36220472440944884
        },
        {
          "duration": 0.034883720930224626,
          "durationTicks": 3,
          "midi": 59,
          "name": "B3",
          "ticks": 8937,
          "time": 103.9186046511628,
          "velocity": 0.07874015748031496
        },
        {
          "duration": 0.27906976744186807,
          "durationTicks": 24,
          "midi": 73,
          "name": "C#5",
          "ticks": 8939,
          "time": 103.94186046511628,
          "velocity": 0.2283464566929134
        },
        {
          "duration": 0.09302325581396076,
          "durationTicks": 8,
          "midi": 88,
          "name": "E6",
          "ticks": 8939,
          "time": 103.94186046511628,
          "velocity": 0.16535433070866143
        },
        {
          "duration": 0.04651162790698038,
          "durationTicks": 4,
          "midi": 66,
          "name": "F#4",
          "ticks": 8950,
          "time": 104.06976744186046,
          "velocity": 0.07086614173228346
        },
        {
          "duration": 0.17441860465116577,
          "durationTicks": 15,
          "midi": 88,
          "name": "E6",
          "ticks": 8954,
          "time": 104.11627906976744,
          "velocity": 0.1889763779527559
        },
        {
          "duration": 1.0116279069767415,
          "durationTicks": 87,
          "midi": 69,
          "name": "A4",
          "ticks": 8955,
          "time": 104.12790697674419,
          "velocity": 0.33858267716535434
        },
        {
          "duration": 0.1860465116279073,
          "durationTicks": 16,
          "midi": 54,
          "name": "F#3",
          "ticks": 8956,
          "time": 104.13953488372093,
          "velocity": 0.4645669291338583
        },
        {
          "duration": 0.6279069767441854,
          "durationTicks": 54,
          "midi": 62,
          "name": "D4",
          "ticks": 8969,
          "time": 104.29069767441861,
          "velocity": 0.16535433070866143
        },
        {
          "duration": 0.081395348837205,
          "durationTicks": 7,
          "midi": 54,
          "name": "F#3",
          "ticks": 8975,
          "time": 104.36046511627907,
          "velocity": 0.4409448818897638
        },
        {
          "duration": 0.05813953488372192,
          "durationTicks": 5,
          "midi": 88,
          "name": "E6",
          "ticks": 8975,
          "time": 104.36046511627907,
          "velocity": 0.15748031496062992
        },
        {
          "duration": 0.15116279069768268,
          "durationTicks": 13,
          "midi": 85,
          "name": "C#6",
          "ticks": 8977,
          "time": 104.38372093023256,
          "velocity": 0.12598425196850394
        },
        {
          "duration": 0.36046511627905886,
          "durationTicks": 31,
          "midi": 73,
          "name": "C#5",
          "ticks": 8979,
          "time": 104.40697674418605,
          "velocity": 0.25196850393700787
        },
        {
          "duration": 0.13953488372092693,
          "durationTicks": 12,
          "midi": 54,
          "name": "F#3",
          "ticks": 8983,
          "time": 104.45348837209302,
          "velocity": 0.44881889763779526
        },
        {
          "duration": 0.4534883720930196,
          "durationTicks": 39,
          "midi": 88,
          "name": "E6",
          "ticks": 8988,
          "time": 104.51162790697674,
          "velocity": 0.1889763779527559
        },
        {
          "duration": 0.05813953488372192,
          "durationTicks": 5,
          "midi": 82,
          "name": "A#5",
          "ticks": 8991,
          "time": 104.54651162790698,
          "velocity": 0.07874015748031496
        },
        {
          "duration": 0.11627906976744384,
          "durationTicks": 10,
          "midi": 50,
          "name": "D3",
          "ticks": 8998,
          "time": 104.62790697674419,
          "velocity": 0.4330708661417323
        },
        {
          "duration": 0.023255813953483084,
          "durationTicks": 2,
          "midi": 54,
          "name": "F#3",
          "ticks": 9007,
          "time": 104.73255813953489,
          "velocity": 0.36220472440944884
        },
        {
          "duration": 2.1744186046511658,
          "durationTicks": 187,
          "midi": 50,
          "name": "D3",
          "ticks": 9009,
          "time": 104.75581395348837,
          "velocity": 0.4566929133858268
        },
        {
          "duration": 0.11627906976744384,
          "durationTicks": 10,
          "midi": 82,
          "name": "A#5",
          "ticks": 9012,
          "time": 104.79069767441861,
          "velocity": 0.10236220472440945
        },
        {
          "duration": 0.11627906976744384,
          "durationTicks": 10,
          "midi": 73,
          "name": "C#5",
          "ticks": 9016,
          "time": 104.83720930232558,
          "velocity": 0.2047244094488189
        },
        {
          "duration": 0.19767441860464885,
          "durationTicks": 17,
          "midi": 82,
          "name": "A#5",
          "ticks": 9026,
          "time": 104.95348837209302,
          "velocity": 0.10236220472440945
        },
        {
          "duration": 0.17441860465116577,
          "durationTicks": 15,
          "midi": 73,
          "name": "C#5",
          "ticks": 9029,
          "time": 104.98837209302326,
          "velocity": 0.2440944881889764
        },
        {
          "duration": 0.6162790697674438,
          "durationTicks": 53,
          "midi": 88,
          "name": "E6",
          "ticks": 9032,
          "time": 105.02325581395348,
          "velocity": 0.18110236220472442
        },
        {
          "duration": 0.05813953488372192,
          "durationTicks": 5,
          "midi": 76,
          "name": "E5",
          "ticks": 9040,
          "time": 105.11627906976744,
          "velocity": 0.07086614173228346
        },
        {
          "duration": 0.2906976744186096,
          "durationTicks": 25,
          "midi": 80,
          "name": "G#5",
          "ticks": 9043,
          "time": 105.15116279069767,
          "velocity": 0.3464566929133858
        },
        {
          "duration": 0.023255813953483084,
          "durationTicks": 2,
          "midi": 60,
          "name": "C4",
          "ticks": 9045,
          "time": 105.17441860465117,
          "velocity": 0.28346456692913385
        },
        {
          "duration": 0.04651162790698038,
          "durationTicks": 4,
          "midi": 73,
          "name": "C#5",
          "ticks": 9045,
          "time": 105.17441860465117,
          "velocity": 0.16535433070866143
        },
        {
          "duration": 0.04651162790698038,
          "durationTicks": 4,
          "midi": 82,
          "name": "A#5",
          "ticks": 9045,
          "time": 105.17441860465117,
          "velocity": 0.2047244094488189
        },
        {
          "duration": 0.34883720930233153,
          "durationTicks": 30,
          "midi": 71,
          "name": "B4",
          "ticks": 9046,
          "time": 105.18604651162791,
          "velocity": 0.41732283464566927
        },
        {
          "duration": 0.38372093023255616,
          "durationTicks": 33,
          "midi": 57,
          "name": "A3",
          "ticks": 9047,
          "time": 105.19767441860465,
          "velocity": 0.5275590551181102
        },
        {
          "duration": 0.3139534883720927,
          "durationTicks": 27,
          "midi": 76,
          "name": "E5",
          "ticks": 9047,
          "time": 105.19767441860465,
          "velocity": 0.1968503937007874
        },
        {
          "duration": 0.03488372093023884,
          "durationTicks": 3,
          "midi": 81,
          "name": "A5",
          "ticks": 9048,
          "time": 105.20930232558139,
          "velocity": 0.16535433070866143
        },
        {
          "duration": 0.05813953488372192,
          "durationTicks": 5,
          "midi": 91,
          "name": "G6",
          "ticks": 9048,
          "time": 105.20930232558139,
          "velocity": 0.07874015748031496
        },
        {
          "duration": 0.06976744186046346,
          "durationTicks": 6,
          "midi": 73,
          "name": "C#5",
          "ticks": 9050,
          "time": 105.23255813953489,
          "velocity": 0.15748031496062992
        },
        {
          "duration": 0.1046511627907023,
          "durationTicks": 9,
          "midi": 82,
          "name": "A#5",
          "ticks": 9052,
          "time": 105.25581395348837,
          "velocity": 0.09448818897637795
        },
        {
          "duration": 0.04651162790698038,
          "durationTicks": 4,
          "midi": 73,
          "name": "C#5",
          "ticks": 9057,
          "time": 105.31395348837209,
          "velocity": 0.18110236220472442
        },
        {
          "duration": 0.40697674418603924,
          "durationTicks": 35,
          "midi": 78,
          "name": "F#5",
          "ticks": 9062,
          "time": 105.37209302325581,
          "velocity": 0.16535433070866143
        },
        {
          "duration": 1.0116279069767415,
          "durationTicks": 87,
          "midi": 66,
          "name": "F#4",
          "ticks": 9063,
          "time": 105.38372093023256,
          "velocity": 0.3228346456692913
        },
        {
          "duration": 0.09302325581396076,
          "durationTicks": 8,
          "midi": 73,
          "name": "C#5",
          "ticks": 9063,
          "time": 105.38372093023256,
          "velocity": 0.2440944881889764
        },
        {
          "duration": 0.034883720930224626,
          "durationTicks": 3,
          "midi": 82,
          "name": "A#5",
          "ticks": 9066,
          "time": 105.4186046511628,
          "velocity": 0.13385826771653545
        },
        {
          "duration": 0.04651162790698038,
          "durationTicks": 4,
          "midi": 81,
          "name": "A5",
          "ticks": 9068,
          "time": 105.44186046511628,
          "velocity": 0.13385826771653545
        },
        {
          "duration": 0.03488372093023884,
          "durationTicks": 3,
          "midi": 61,
          "name": "C#4",
          "ticks": 9070,
          "time": 105.46511627906976,
          "velocity": 0.11811023622047244
        },
        {
          "duration": 0.12790697674418539,
          "durationTicks": 11,
          "midi": 82,
          "name": "A#5",
          "ticks": 9072,
          "time": 105.48837209302326,
          "velocity": 0.14960629921259844
        },
        {
          "duration": 1.2558139534883708,
          "durationTicks": 108,
          "midi": 73,
          "name": "C#5",
          "ticks": 9076,
          "time": 105.53488372093024,
          "velocity": 0.5275590551181102
        },
        {
          "duration": 0.09302325581394655,
          "durationTicks": 8,
          "midi": 91,
          "name": "G6",
          "ticks": 9076,
          "time": 105.53488372093024,
          "velocity": 0.08661417322834646
        },
        {
          "duration": 0.32558139534883423,
          "durationTicks": 28,
          "midi": 71,
          "name": "B4",
          "ticks": 9078,
          "time": 105.55813953488372,
          "velocity": 0.3700787401574803
        },
        {
          "duration": 0.3604651162790731,
          "durationTicks": 31,
          "midi": 80,
          "name": "G#5",
          "ticks": 9078,
          "time": 105.55813953488372,
          "velocity": 0.16535433070866143
        },
        {
          "duration": 0.05813953488372192,
          "durationTicks": 5,
          "midi": 61,
          "name": "C#4",
          "ticks": 9081,
          "time": 105.59302325581395,
          "velocity": 0.2677165354330709
        },
        {
          "duration": 0.12790697674418539,
          "durationTicks": 11,
          "midi": 57,
          "name": "A3",
          "ticks": 9082,
          "time": 105.6046511627907,
          "velocity": 0.3464566929133858
        },
        {
          "duration": 0.034883720930224626,
          "durationTicks": 3,
          "midi": 76,
          "name": "E5",
          "ticks": 9083,
          "time": 105.61627906976744,
          "velocity": 0.08661417322834646
        },
        {
          "duration": 0.04651162790698038,
          "durationTicks": 4,
          "midi": 82,
          "name": "A#5",
          "ticks": 9086,
          "time": 105.65116279069767,
          "velocity": 0.10236220472440945
        },
        {
          "duration": 0.1860465116279073,
          "durationTicks": 16,
          "midi": 61,
          "name": "C#4",
          "ticks": 9087,
          "time": 105.66279069767442,
          "velocity": 0.3543307086614173
        },
        {
          "duration": 0.04651162790698038,
          "durationTicks": 4,
          "midi": 88,
          "name": "E6",
          "ticks": 9088,
          "time": 105.67441860465117,
          "velocity": 0.12598425196850394
        },
        {
          "duration": 0.11627906976742963,
          "durationTicks": 10,
          "midi": 95,
          "name": "B6",
          "ticks": 9092,
          "time": 105.72093023255815,
          "velocity": 0.11811023622047244
        },
        {
          "duration": 0.15116279069766847,
          "durationTicks": 13,
          "midi": 82,
          "name": "A#5",
          "ticks": 9093,
          "time": 105.73255813953489,
          "velocity": 0.14173228346456693
        },
        {
          "duration": 0.19767441860464885,
          "durationTicks": 17,
          "midi": 57,
          "name": "A3",
          "ticks": 9094,
          "time": 105.74418604651163,
          "velocity": 0.3228346456692913
        },
        {
          "duration": 0.30232558139535115,
          "durationTicks": 26,
          "midi": 88,
          "name": "E6",
          "ticks": 9094,
          "time": 105.74418604651163,
          "velocity": 0.18110236220472442
        },
        {
          "duration": 0.03488372093023884,
          "durationTicks": 3,
          "midi": 76,
          "name": "E5",
          "ticks": 9095,
          "time": 105.75581395348837,
          "velocity": 0.07874015748031496
        },
        {
          "duration": 0.13953488372092693,
          "durationTicks": 12,
          "midi": 91,
          "name": "G6",
          "ticks": 9101,
          "time": 105.82558139534883,
          "velocity": 0.12598425196850394
        },
        {
          "duration": 0.034883720930224626,
          "durationTicks": 3,
          "midi": 76,
          "name": "E5",
          "ticks": 9103,
          "time": 105.84883720930233,
          "velocity": 0.09448818897637795
        },
        {
          "duration": 0.04651162790698038,
          "durationTicks": 4,
          "midi": 61,
          "name": "C#4",
          "ticks": 9104,
          "time": 105.86046511627907,
          "velocity": 0.3779527559055118
        },
        {
          "duration": 0.12790697674418539,
          "durationTicks": 11,
          "midi": 95,
          "name": "B6",
          "ticks": 9106,
          "time": 105.88372093023256,
          "velocity": 0.14173228346456693
        },
        {
          "duration": 0.30232558139535115,
          "durationTicks": 26,
          "midi": 61,
          "name": "C#4",
          "ticks": 9109,
          "time": 105.9186046511628,
          "velocity": 0.3779527559055118
        },
        {
          "duration": 0.05813953488372192,
          "durationTicks": 5,
          "midi": 76,
          "name": "E5",
          "ticks": 9109,
          "time": 105.9186046511628,
          "velocity": 0.10236220472440945
        },
        {
          "duration": 0.1046511627907023,
          "durationTicks": 9,
          "midi": 57,
          "name": "A3",
          "ticks": 9112,
          "time": 105.95348837209302,
          "velocity": 0.2992125984251969
        },
        {
          "duration": 0.11627906976744384,
          "durationTicks": 10,
          "midi": 82,
          "name": "A#5",
          "ticks": 9112,
          "time": 105.95348837209302,
          "velocity": 0.14173228346456693
        },
        {
          "duration": 0.15116279069766847,
          "durationTicks": 13,
          "midi": 76,
          "name": "E5",
          "ticks": 9119,
          "time": 106.03488372093024,
          "velocity": 0.16535433070866143
        },
        {
          "duration": 0.06976744186046346,
          "durationTicks": 6,
          "midi": 80,
          "name": "G#5",
          "ticks": 9120,
          "time": 106.04651162790698,
          "velocity": 0.14173228346456693
        },
        {
          "duration": 0.04651162790698038,
          "durationTicks": 4,
          "midi": 95,
          "name": "B6",
          "ticks": 9122,
          "time": 106.06976744186046,
          "velocity": 0.10236220472440945
        },
        {
          "duration": 0.25581395348837077,
          "durationTicks": 22,
          "midi": 88,
          "name": "E6",
          "ticks": 9123,
          "time": 106.0813953488372,
          "velocity": 0.2047244094488189
        },
        {
          "duration": 0.13953488372092693,
          "durationTicks": 12,
          "midi": 91,
          "name": "G6",
          "ticks": 9125,
          "time": 106.1046511627907,
          "velocity": 0.13385826771653545
        },
        {
          "duration": 0.06976744186046346,
          "durationTicks": 6,
          "midi": 81,
          "name": "A5",
          "ticks": 9127,
          "time": 106.12790697674419,
          "velocity": 0.14960629921259844
        },
        {
          "duration": 0.6744186046511658,
          "durationTicks": 58,
          "midi": 69,
          "name": "A4",
          "ticks": 9133,
          "time": 106.19767441860465,
          "velocity": 0.3228346456692913
        },
        {
          "duration": 0.081395348837205,
          "durationTicks": 7,
          "midi": 59,
          "name": "B3",
          "ticks": 9135,
          "time": 106.22093023255815,
          "velocity": 0.5118110236220472
        },
        {
          "duration": 0.04651162790696617,
          "durationTicks": 4,
          "midi": 95,
          "name": "B6",
          "ticks": 9135,
          "time": 106.22093023255815,
          "velocity": 0.12598425196850394
        },
        {
          "duration": 0.081395348837205,
          "durationTicks": 7,
          "midi": 80,
          "name": "G#5",
          "ticks": 9136,
          "time": 106.23255813953489,
          "velocity": 0.13385826771653545
        },
        {
          "duration": 0.16279069767442422,
          "durationTicks": 14,
          "midi": 91,
          "name": "G6",
          "ticks": 9140,
          "time": 106.27906976744185,
          "velocity": 0.15748031496062992
        },
        {
          "duration": 0.023255813953483084,
          "durationTicks": 2,
          "midi": 59,
          "name": "B3",
          "ticks": 9143,
          "time": 106.31395348837209,
          "velocity": 0.4566929133858268
        },
        {
          "duration": 0.06976744186046346,
          "durationTicks": 6,
          "midi": 76,
          "name": "E5",
          "ticks": 9143,
          "time": 106.31395348837209,
          "velocity": 0.11023622047244094
        },
        {
          "duration": 0.13953488372092693,
          "durationTicks": 12,
          "midi": 59,
          "name": "B3",
          "ticks": 9146,
          "time": 106.34883720930233,
          "velocity": 0.44881889763779526
        },
        {
          "duration": 0.12790697674418539,
          "durationTicks": 11,
          "midi": 88,
          "name": "E6",
          "ticks": 9147,
          "time": 106.36046511627907,
          "velocity": 0.1968503937007874
        },
        {
          "duration": 0.4418604651162781,
          "durationTicks": 38,
          "midi": 66,
          "name": "F#4",
          "ticks": 9153,
          "time": 106.43023255813954,
          "velocity": 0.29133858267716534
        },
        {
          "duration": 0.03488372093023884,
          "durationTicks": 3,
          "midi": 82,
          "name": "A#5",
          "ticks": 9154,
          "time": 106.44186046511628,
          "velocity": 0.09448818897637795
        },
        {
          "duration": 0.06976744186046346,
          "durationTicks": 6,
          "midi": 76,
          "name": "E5",
          "ticks": 9157,
          "time": 106.47674418604652,
          "velocity": 0.14173228346456693
        },
        {
          "duration": 0.023255813953497295,
          "durationTicks": 2,
          "midi": 59,
          "name": "B3",
          "ticks": 9160,
          "time": 106.51162790697674,
          "velocity": 0.36220472440944884
        },
        {
          "duration": 0.11627906976744384,
          "durationTicks": 10,
          "midi": 91,
          "name": "G6",
          "ticks": 9161,
          "time": 106.52325581395348,
          "velocity": 0.11811023622047244
        },
        {
          "duration": 0.023255813953483084,
          "durationTicks": 2,
          "midi": 59,
          "name": "B3",
          "ticks": 9163,
          "time": 106.54651162790698,
          "velocity": 0.3464566929133858
        },
        {
          "duration": 0.081395348837205,
          "durationTicks": 7,
          "midi": 88,
          "name": "E6",
          "ticks": 9163,
          "time": 106.54651162790698,
          "velocity": 0.11023622047244094
        },
        {
          "duration": 0.03488372093023884,
          "durationTicks": 3,
          "midi": 59,
          "name": "B3",
          "ticks": 9166,
          "time": 106.5813953488372,
          "velocity": 0.3779527559055118
        },
        {
          "duration": 0.06976744186046346,
          "durationTicks": 6,
          "midi": 80,
          "name": "G#5",
          "ticks": 9169,
          "time": 106.61627906976744,
          "velocity": 0.11811023622047244
        },
        {
          "duration": 0.06976744186046346,
          "durationTicks": 6,
          "midi": 76,
          "name": "E5",
          "ticks": 9170,
          "time": 106.62790697674419,
          "velocity": 0.09448818897637795
        },
        {
          "duration": 0.023255813953483084,
          "durationTicks": 2,
          "midi": 61,
          "name": "C#4",
          "ticks": 9174,
          "time": 106.67441860465117,
          "velocity": 0.31496062992125984
        },
        {
          "duration": 0.023255813953483084,
          "durationTicks": 2,
          "midi": 57,
          "name": "A3",
          "ticks": 9175,
          "time": 106.68604651162791,
          "velocity": 0.31496062992125984
        },
        {
          "duration": 0.32558139534883423,
          "durationTicks": 28,
          "midi": 91,
          "name": "G6",
          "ticks": 9176,
          "time": 106.69767441860465,
          "velocity": 0.1968503937007874
        },
        {
          "duration": 0.023255813953497295,
          "durationTicks": 2,
          "midi": 58,
          "name": "A#3",
          "ticks": 9177,
          "time": 106.70930232558139,
          "velocity": 0.3700787401574803
        },
        {
          "duration": 0.023255813953483084,
          "durationTicks": 2,
          "midi": 57,
          "name": "A3",
          "ticks": 9178,
          "time": 106.72093023255815,
          "velocity": 0.30708661417322836
        },
        {
          "duration": 0.11627906976742963,
          "durationTicks": 10,
          "midi": 88,
          "name": "E6",
          "ticks": 9178,
          "time": 106.72093023255815,
          "velocity": 0.1889763779527559
        },
        {
          "duration": 0.023255813953483084,
          "durationTicks": 2,
          "midi": 58,
          "name": "A#3",
          "ticks": 9180,
          "time": 106.74418604651163,
          "velocity": 0.3779527559055118
        },
        {
          "duration": 0.05813953488372192,
          "durationTicks": 5,
          "midi": 82,
          "name": "A#5",
          "ticks": 9183,
          "time": 106.77906976744185,
          "velocity": 0.09448818897637795
        },
        {
          "duration": 0.5232558139534831,
          "durationTicks": 45,
          "midi": 73,
          "name": "C#5",
          "ticks": 9185,
          "time": 106.80232558139535,
          "velocity": 0.47244094488188976
        },
        {
          "duration": 0.1046511627907023,
          "durationTicks": 9,
          "midi": 93,
          "name": "A6",
          "ticks": 9185,
          "time": 106.80232558139535,
          "velocity": 0.14173228346456693
        },
        {
          "duration": 0.03488372093023884,
          "durationTicks": 3,
          "midi": 59,
          "name": "B3",
          "ticks": 9187,
          "time": 106.82558139534883,
          "velocity": 0.28346456692913385
        },
        {
          "duration": 0.05813953488372192,
          "durationTicks": 5,
          "midi": 76,
          "name": "E5",
          "ticks": 9187,
          "time": 106.82558139534883,
          "velocity": 0.11023622047244094
        },
        {
          "duration": 0.04651162790698038,
          "durationTicks": 4,
          "midi": 61,
          "name": "C#4",
          "ticks": 9191,
          "time": 106.87209302325581,
          "velocity": 0.30708661417322836
        },
        {
          "duration": 0.8953488372092977,
          "durationTicks": 77,
          "midi": 69,
          "name": "A4",
          "ticks": 9195,
          "time": 106.9186046511628,
          "velocity": 0.3779527559055118
        },
        {
          "duration": 0.034883720930224626,
          "durationTicks": 3,
          "midi": 95,
          "name": "B6",
          "ticks": 9195,
          "time": 106.9186046511628,
          "velocity": 0.07086614173228346
        },
        {
          "duration": 0.034883720930224626,
          "durationTicks": 3,
          "midi": 49,
          "name": "C#3",
          "ticks": 9196,
          "time": 106.93023255813954,
          "velocity": 0.10236220472440945
        },
        {
          "duration": 0.11627906976744384,
          "durationTicks": 10,
          "midi": 61,
          "name": "C#4",
          "ticks": 9196,
          "time": 106.93023255813954,
          "velocity": 0.30708661417322836
        },
        {
          "duration": 0.6395348837209269,
          "durationTicks": 55,
          "midi": 88,
          "name": "E6",
          "ticks": 9197,
          "time": 106.94186046511628,
          "velocity": 0.23622047244094488
        },
        {
          "duration": 0.03488372093023884,
          "durationTicks": 3,
          "midi": 57,
          "name": "A3",
          "ticks": 9199,
          "time": 106.96511627906976,
          "velocity": 0.25984251968503935
        },
        {
          "duration": 0.06976744186047767,
          "durationTicks": 6,
          "midi": 76,
          "name": "E5",
          "ticks": 9199,
          "time": 106.96511627906976,
          "velocity": 0.10236220472440945
        },
        {
          "duration": 4.244186046511629,
          "durationTicks": 365,
          "midi": 50,
          "name": "D3",
          "ticks": 9200,
          "time": 106.97674418604652,
          "velocity": 0.5669291338582677
        },
        {
          "duration": 0.2093023255813904,
          "durationTicks": 18,
          "midi": 66,
          "name": "F#4",
          "ticks": 9200,
          "time": 106.97674418604652,
          "velocity": 0.14960629921259844
        },
        {
          "duration": 0.023255813953497295,
          "durationTicks": 2,
          "midi": 57,
          "name": "A3",
          "ticks": 9203,
          "time": 107.01162790697674,
          "velocity": 0.2440944881889764
        },
        {
          "duration": 0.06976744186046346,
          "durationTicks": 6,
          "midi": 95,
          "name": "B6",
          "ticks": 9204,
          "time": 107.02325581395348,
          "velocity": 0.09448818897637795
        },
        {
          "duration": 0.023255813953483084,
          "durationTicks": 2,
          "midi": 58,
          "name": "A#3",
          "ticks": 9205,
          "time": 107.03488372093024,
          "velocity": 0.29133858267716534
        },
        {
          "duration": 0.04651162790698038,
          "durationTicks": 4,
          "midi": 61,
          "name": "C#4",
          "ticks": 9208,
          "time": 107.06976744186046,
          "velocity": 0.30708661417322836
        },
        {
          "duration": 0.13953488372092693,
          "durationTicks": 12,
          "midi": 76,
          "name": "E5",
          "ticks": 9208,
          "time": 107.06976744186046,
          "velocity": 0.15748031496062992
        },
        {
          "duration": 0.4767441860465169,
          "durationTicks": 41,
          "midi": 91,
          "name": "G6",
          "ticks": 9209,
          "time": 107.0813953488372,
          "velocity": 0.1968503937007874
        },
        {
          "duration": 0.023255813953483084,
          "durationTicks": 2,
          "midi": 60,
          "name": "C4",
          "ticks": 9212,
          "time": 107.11627906976744,
          "velocity": 0.2283464566929134
        },
        {
          "duration": 0.023255813953497295,
          "durationTicks": 2,
          "midi": 61,
          "name": "C#4",
          "ticks": 9215,
          "time": 107.15116279069767,
          "velocity": 0.36220472440944884
        },
        {
          "duration": 0.1046511627907023,
          "durationTicks": 9,
          "midi": 66,
          "name": "F#4",
          "ticks": 9220,
          "time": 107.20930232558139,
          "velocity": 0.30708661417322836
        },
        {
          "duration": 0.17441860465115155,
          "durationTicks": 15,
          "midi": 57,
          "name": "A3",
          "ticks": 9221,
          "time": 107.22093023255815,
          "velocity": 0.33070866141732286
        },
        {
          "duration": 0.023255813953483084,
          "durationTicks": 2,
          "midi": 61,
          "name": "C#4",
          "ticks": 9221,
          "time": 107.22093023255815,
          "velocity": 0.3700787401574803
        },
        {
          "duration": 0.04651162790698038,
          "durationTicks": 4,
          "midi": 61,
          "name": "C#4",
          "ticks": 9225,
          "time": 107.26744186046511,
          "velocity": 0.3543307086614173
        },
        {
          "duration": 0.06976744186046346,
          "durationTicks": 6,
          "midi": 76,
          "name": "E5",
          "ticks": 9225,
          "time": 107.26744186046511,
          "velocity": 0.13385826771653545
        },
        {
          "duration": 0.023255813953483084,
          "durationTicks": 2,
          "midi": 65,
          "name": "F4",
          "ticks": 9229,
          "time": 107.31395348837209,
          "velocity": 0.3464566929133858
        },
        {
          "duration": 0.3953488372093119,
          "durationTicks": 34,
          "midi": 66,
          "name": "F#4",
          "ticks": 9231,
          "time": 107.33720930232558,
          "velocity": 0.48031496062992124
        },
        {
          "duration": 0.13953488372094114,
          "durationTicks": 12,
          "midi": 73,
          "name": "C#5",
          "ticks": 9231,
          "time": 107.33720930232558,
          "velocity": 0.31496062992125984
        },
        {
          "duration": 0.9069767441860535,
          "durationTicks": 78,
          "midi": 81,
          "name": "A5",
          "ticks": 9231,
          "time": 107.33720930232558,
          "velocity": 0.3779527559055118
        },
        {
          "duration": 0.05813953488372192,
          "durationTicks": 5,
          "midi": 76,
          "name": "E5",
          "ticks": 9234,
          "time": 107.37209302325581,
          "velocity": 0.1968503937007874
        },
        {
          "duration": 0.09302325581396076,
          "durationTicks": 8,
          "midi": 72,
          "name": "C5",
          "ticks": 9242,
          "time": 107.46511627906976,
          "velocity": 0.1968503937007874
        },
        {
          "duration": 0.04651162790698038,
          "durationTicks": 4,
          "midi": 76,
          "name": "E5",
          "ticks": 9242,
          "time": 107.46511627906976,
          "velocity": 0.09448818897637795
        },
        {
          "duration": 0.05813953488372192,
          "durationTicks": 5,
          "midi": 76,
          "name": "E5",
          "ticks": 9249,
          "time": 107.54651162790698,
          "velocity": 0.16535433070866143
        },
        {
          "duration": 0.11627906976744384,
          "durationTicks": 10,
          "midi": 73,
          "name": "C#5",
          "ticks": 9250,
          "time": 107.55813953488372,
          "velocity": 0.25984251968503935
        },
        {
          "duration": 0.023255813953483084,
          "durationTicks": 2,
          "midi": 58,
          "name": "A#3",
          "ticks": 9251,
          "time": 107.56976744186046,
          "velocity": 0.2755905511811024
        },
        {
          "duration": 0.023255813953483084,
          "durationTicks": 2,
          "midi": 58,
          "name": "A#3",
          "ticks": 9254,
          "time": 107.6046511627907,
          "velocity": 0.25984251968503935
        },
        {
          "duration": 0.1046511627907023,
          "durationTicks": 9,
          "midi": 91,
          "name": "G6",
          "ticks": 9255,
          "time": 107.61627906976744,
          "velocity": 0.16535433070866143
        },
        {
          "duration": 0.04651162790698038,
          "durationTicks": 4,
          "midi": 76,
          "name": "E5",
          "ticks": 9256,
          "time": 107.62790697674419,
          "velocity": 0.14960629921259844
        },
        {
          "duration": 0.15116279069768268,
          "durationTicks": 13,
          "midi": 88,
          "name": "E6",
          "ticks": 9257,
          "time": 107.63953488372093,
          "velocity": 0.1968503937007874
        },
        {
          "duration": 0.081395348837205,
          "durationTicks": 7,
          "midi": 73,
          "name": "C#5",
          "ticks": 9262,
          "time": 107.69767441860465,
          "velocity": 0.2204724409448819
        },
        {
          "duration": 0.034883720930224626,
          "durationTicks": 3,
          "midi": 38,
          "name": "D2",
          "ticks": 9265,
          "time": 107.73255813953489,
          "velocity": 0.07874015748031496
        },
        {
          "duration": 0.05813953488372192,
          "durationTicks": 5,
          "midi": 76,
          "name": "E5",
          "ticks": 9268,
          "time": 107.76744186046511,
          "velocity": 0.11811023622047244
        },
        {
          "duration": 0.08139534883721922,
          "durationTicks": 7,
          "midi": 72,
          "name": "C5",
          "ticks": 9269,
          "time": 107.77906976744185,
          "velocity": 0.1889763779527559
        },
        {
          "duration": 0.3372093023255758,
          "durationTicks": 29,
          "midi": 66,
          "name": "F#4",
          "ticks": 9270,
          "time": 107.79069767441861,
          "velocity": 0.3464566929133858
        },
        {
          "duration": 0.12790697674418539,
          "durationTicks": 11,
          "midi": 91,
          "name": "G6",
          "ticks": 9271,
          "time": 107.80232558139535,
          "velocity": 0.15748031496062992
        },
        {
          "duration": 0.30232558139535115,
          "durationTicks": 26,
          "midi": 85,
          "name": "C#6",
          "ticks": 9272,
          "time": 107.81395348837209,
          "velocity": 0.18110236220472442
        },
        {
          "duration": 0.12790697674418539,
          "durationTicks": 11,
          "midi": 88,
          "name": "E6",
          "ticks": 9272,
          "time": 107.81395348837209,
          "velocity": 0.2125984251968504
        },
        {
          "duration": 0.023255813953497295,
          "durationTicks": 2,
          "midi": 57,
          "name": "A3",
          "ticks": 9274,
          "time": 107.83720930232558,
          "velocity": 0.23622047244094488
        },
        {
          "duration": 0.8604651162790731,
          "durationTicks": 74,
          "midi": 69,
          "name": "A4",
          "ticks": 9276,
          "time": 107.86046511627907,
          "velocity": 0.3858267716535433
        },
        {
          "duration": 0.06976744186046346,
          "durationTicks": 6,
          "midi": 73,
          "name": "C#5",
          "ticks": 9276,
          "time": 107.86046511627907,
          "velocity": 0.1732283464566929
        },
        {
          "duration": 0.03488372093023884,
          "durationTicks": 3,
          "midi": 57,
          "name": "A3",
          "ticks": 9277,
          "time": 107.87209302325581,
          "velocity": 0.29133858267716534
        },
        {
          "duration": 0.05813953488372192,
          "durationTicks": 5,
          "midi": 38,
          "name": "D2",
          "ticks": 9279,
          "time": 107.8953488372093,
          "velocity": 0.09448818897637795
        },
        {
          "duration": 0.03488372093023884,
          "durationTicks": 3,
          "midi": 76,
          "name": "E5",
          "ticks": 9279,
          "time": 107.8953488372093,
          "velocity": 0.07086614173228346
        },
        {
          "duration": 0.13953488372092693,
          "durationTicks": 12,
          "midi": 72,
          "name": "C5",
          "ticks": 9283,
          "time": 107.94186046511628,
          "velocity": 0.1968503937007874
        },
        {
          "duration": 0.04651162790698038,
          "durationTicks": 4,
          "midi": 91,
          "name": "G6",
          "ticks": 9285,
          "time": 107.96511627906976,
          "velocity": 0.11023622047244094
        },
        {
          "duration": 0.22093023255813193,
          "durationTicks": 19,
          "midi": 76,
          "name": "E5",
          "ticks": 9287,
          "time": 107.98837209302326,
          "velocity": 0.2283464566929134
        },
        {
          "duration": 0.7209302325581319,
          "durationTicks": 62,
          "midi": 88,
          "name": "E6",
          "ticks": 9287,
          "time": 107.98837209302326,
          "velocity": 0.2677165354330709
        },
        {
          "duration": 0.04651162790698038,
          "durationTicks": 4,
          "midi": 73,
          "name": "C#5",
          "ticks": 9294,
          "time": 108.06976744186046,
          "velocity": 0.1732283464566929
        },
        {
          "duration": 0.023255813953497295,
          "durationTicks": 2,
          "midi": 57,
          "name": "A3",
          "ticks": 9296,
          "time": 108.09302325581395,
          "velocity": 0.2440944881889764
        },
        {
          "duration": 1.0232558139534973,
          "durationTicks": 88,
          "midi": 72,
          "name": "C5",
          "ticks": 9296,
          "time": 108.09302325581395,
          "velocity": 0.25984251968503935
        },
        {
          "duration": 0.034883720930224626,
          "durationTicks": 3,
          "midi": 91,
          "name": "G6",
          "ticks": 9297,
          "time": 108.1046511627907,
          "velocity": 0.07086614173228346
        },
        {
          "duration": 0.023255813953483084,
          "durationTicks": 2,
          "midi": 57,
          "name": "A3",
          "ticks": 9299,
          "time": 108.12790697674419,
          "velocity": 0.23622047244094488
        },
        {
          "duration": 0.13953488372092693,
          "durationTicks": 12,
          "midi": 78,
          "name": "F#5",
          "ticks": 9300,
          "time": 108.13953488372093,
          "velocity": 0.13385826771653545
        },
        {
          "duration": 0.9418604651162781,
          "durationTicks": 81,
          "midi": 85,
          "name": "C#6",
          "ticks": 9301,
          "time": 108.15116279069767,
          "velocity": 0.2677165354330709
        },
        {
          "duration": 0.05813953488372192,
          "durationTicks": 5,
          "midi": 57,
          "name": "A3",
          "ticks": 9302,
          "time": 108.16279069767442,
          "velocity": 0.2440944881889764
        },
        {
          "duration": 1.6279069767441854,
          "durationTicks": 140,
          "midi": 66,
          "name": "F#4",
          "ticks": 9303,
          "time": 108.17441860465117,
          "velocity": 0.4094488188976378
        },
        {
          "duration": 0.023255813953483084,
          "durationTicks": 2,
          "midi": 58,
          "name": "A#3",
          "ticks": 9307,
          "time": 108.22093023255815,
          "velocity": 0.2283464566929134
        },
        {
          "duration": 0.13953488372092693,
          "durationTicks": 12,
          "midi": 91,
          "name": "G6",
          "ticks": 9307,
          "time": 108.22093023255815,
          "velocity": 0.11811023622047244
        },
        {
          "duration": 0.06976744186047767,
          "durationTicks": 6,
          "midi": 76,
          "name": "E5",
          "ticks": 9312,
          "time": 108.27906976744185,
          "velocity": 0.10236220472440945
        },
        {
          "duration": 0.023255813953483084,
          "durationTicks": 2,
          "midi": 58,
          "name": "A#3",
          "ticks": 9320,
          "time": 108.37209302325581,
          "velocity": 0.2283464566929134
        },
        {
          "duration": 0.09302325581396076,
          "durationTicks": 8,
          "midi": 76,
          "name": "E5",
          "ticks": 9321,
          "time": 108.38372093023256,
          "velocity": 0.15748031496062992
        },
        {
          "duration": 0.034883720930224626,
          "durationTicks": 3,
          "midi": 59,
          "name": "B3",
          "ticks": 9330,
          "time": 108.48837209302326,
          "velocity": 0.16535433070866143
        },
        {
          "duration": 0.09302325581396076,
          "durationTicks": 8,
          "midi": 38,
          "name": "D2",
          "ticks": 9332,
          "time": 108.51162790697674,
          "velocity": 0.09448818897637795
        },
        {
          "duration": 0.04651162790696617,
          "durationTicks": 4,
          "midi": 76,
          "name": "E5",
          "ticks": 9335,
          "time": 108.54651162790698,
          "velocity": 0.11023622047244094
        },
        {
          "duration": 0.05813953488372192,
          "durationTicks": 5,
          "midi": 91,
          "name": "G6",
          "ticks": 9340,
          "time": 108.6046511627907,
          "velocity": 0.07874015748031496
        },
        {
          "duration": 0.09302325581396076,
          "durationTicks": 8,
          "midi": 38,
          "name": "D2",
          "ticks": 9342,
          "time": 108.62790697674419,
          "velocity": 0.14173228346456693
        },
        {
          "duration": 0.06976744186046346,
          "durationTicks": 6,
          "midi": 76,
          "name": "E5",
          "ticks": 9342,
          "time": 108.62790697674419,
          "velocity": 0.09448818897637795
        },
        {
          "duration": 0.25581395348837077,
          "durationTicks": 22,
          "midi": 69,
          "name": "A4",
          "ticks": 9351,
          "time": 108.73255813953489,
          "velocity": 0.33070866141732286
        },
        {
          "duration": 0.081395348837205,
          "durationTicks": 7,
          "midi": 88,
          "name": "E6",
          "ticks": 9351,
          "time": 108.73255813953489,
          "velocity": 0.18110236220472442
        },
        {
          "duration": 0.16279069767442422,
          "durationTicks": 14,
          "midi": 76,
          "name": "E5",
          "ticks": 9352,
          "time": 108.74418604651163,
          "velocity": 0.2204724409448819
        },
        {
          "duration": 0.08139534883721922,
          "durationTicks": 7,
          "midi": 38,
          "name": "D2",
          "ticks": 9354,
          "time": 108.76744186046511,
          "velocity": 0.11023622047244094
        },
        {
          "duration": 0.06976744186046346,
          "durationTicks": 6,
          "midi": 57,
          "name": "A3",
          "ticks": 9356,
          "time": 108.79069767441861,
          "velocity": 0.16535433070866143
        },
        {
          "duration": 0.34883720930233153,
          "durationTicks": 30,
          "midi": 88,
          "name": "E6",
          "ticks": 9360,
          "time": 108.83720930232558,
          "velocity": 0.29133858267716534
        },
        {
          "duration": 0.10465116279068809,
          "durationTicks": 9,
          "midi": 57,
          "name": "A3",
          "ticks": 9366,
          "time": 108.90697674418605,
          "velocity": 0.2283464566929134
        },
        {
          "duration": 0.09302325581394655,
          "durationTicks": 8,
          "midi": 38,
          "name": "D2",
          "ticks": 9367,
          "time": 108.9186046511628,
          "velocity": 0.08661417322834646
        },
        {
          "duration": 0.17441860465116577,
          "durationTicks": 15,
          "midi": 69,
          "name": "A4",
          "ticks": 9374,
          "time": 109,
          "velocity": 0.33070866141732286
        },
        {
          "duration": 0.3720930232558146,
          "durationTicks": 32,
          "midi": 76,
          "name": "E5",
          "ticks": 9376,
          "time": 109.02325581395348,
          "velocity": 0.2440944881889764
        },
        {
          "duration": 0.05813953488372192,
          "durationTicks": 5,
          "midi": 57,
          "name": "A3",
          "ticks": 9379,
          "time": 109.05813953488372,
          "velocity": 0.18110236220472442
        },
        {
          "duration": 0.06976744186046346,
          "durationTicks": 6,
          "midi": 74,
          "name": "D5",
          "ticks": 9379,
          "time": 109.05813953488372,
          "velocity": 0.18110236220472442
        },
        {
          "duration": 0.15116279069766847,
          "durationTicks": 13,
          "midi": 73,
          "name": "C#5",
          "ticks": 9384,
          "time": 109.11627906976744,
          "velocity": 0.2440944881889764
        },
        {
          "duration": 0.1046511627907023,
          "durationTicks": 9,
          "midi": 57,
          "name": "A3",
          "ticks": 9385,
          "time": 109.12790697674419,
          "velocity": 0.2047244094488189
        },
        {
          "duration": 0.04651162790698038,
          "durationTicks": 4,
          "midi": 95,
          "name": "B6",
          "ticks": 9386,
          "time": 109.13953488372093,
          "velocity": 0.11811023622047244
        },
        {
          "duration": 0.27906976744185386,
          "durationTicks": 24,
          "midi": 85,
          "name": "C#6",
          "ticks": 9388,
          "time": 109.16279069767442,
          "velocity": 0.25984251968503935
        },
        {
          "duration": 0.9069767441860392,
          "durationTicks": 78,
          "midi": 69,
          "name": "A4",
          "ticks": 9390,
          "time": 109.18604651162791,
          "velocity": 0.31496062992125984
        },
        {
          "duration": 0.17441860465116577,
          "durationTicks": 15,
          "midi": 57,
          "name": "A3",
          "ticks": 9395,
          "time": 109.24418604651163,
          "velocity": 0.2047244094488189
        },
        {
          "duration": 0.11627906976744384,
          "durationTicks": 10,
          "midi": 72,
          "name": "C5",
          "ticks": 9396,
          "time": 109.25581395348837,
          "velocity": 0.14173228346456693
        },
        {
          "duration": 0.081395348837205,
          "durationTicks": 7,
          "midi": 73,
          "name": "C#5",
          "ticks": 9405,
          "time": 109.36046511627907,
          "velocity": 0.2283464566929134
        },
        {
          "duration": 0.12790697674418539,
          "durationTicks": 11,
          "midi": 38,
          "name": "D2",
          "ticks": 9409,
          "time": 109.40697674418605,
          "velocity": 0.11023622047244094
        },
        {
          "duration": 0.1046511627907023,
          "durationTicks": 9,
          "midi": 57,
          "name": "A3",
          "ticks": 9411,
          "time": 109.43023255813954,
          "velocity": 0.15748031496062992
        },
        {
          "duration": 0.16279069767441,
          "durationTicks": 14,
          "midi": 88,
          "name": "E6",
          "ticks": 9411,
          "time": 109.43023255813954,
          "velocity": 0.2204724409448819
        },
        {
          "duration": 0.09302325581396076,
          "durationTicks": 8,
          "midi": 72,
          "name": "C5",
          "ticks": 9412,
          "time": 109.44186046511628,
          "velocity": 0.11023622047244094
        },
        {
          "duration": 0.15116279069766847,
          "durationTicks": 13,
          "midi": 76,
          "name": "E5",
          "ticks": 9412,
          "time": 109.44186046511628,
          "velocity": 0.2125984251968504
        },
        {
          "duration": 0.03488372093023884,
          "durationTicks": 3,
          "midi": 82,
          "name": "A#5",
          "ticks": 9413,
          "time": 109.45348837209302,
          "velocity": 0.08661417322834646
        },
        {
          "duration": 0.1860465116279073,
          "durationTicks": 16,
          "midi": 85,
          "name": "C#6",
          "ticks": 9414,
          "time": 109.46511627906976,
          "velocity": 0.2047244094488189
        },
        {
          "duration": 0.04651162790698038,
          "durationTicks": 4,
          "midi": 95,
          "name": "B6",
          "ticks": 9416,
          "time": 109.48837209302326,
          "velocity": 0.13385826771653545
        },
        {
          "duration": 0.6279069767441854,
          "durationTicks": 54,
          "midi": 81,
          "name": "A5",
          "ticks": 9420,
          "time": 109.53488372093024,
          "velocity": 0.31496062992125984
        },
        {
          "duration": 0.8720930232558146,
          "durationTicks": 75,
          "midi": 72,
          "name": "C5",
          "ticks": 9423,
          "time": 109.56976744186046,
          "velocity": 0.25196850393700787
        },
        {
          "duration": 0.5581395348837219,
          "durationTicks": 48,
          "midi": 88,
          "name": "E6",
          "ticks": 9428,
          "time": 109.62790697674419,
          "velocity": 0.25984251968503935
        },
        {
          "duration": 0.05813953488372192,
          "durationTicks": 5,
          "midi": 38,
          "name": "D2",
          "ticks": 9431,
          "time": 109.66279069767442,
          "velocity": 0.07086614173228346
        },
        {
          "duration": 0.13953488372092693,
          "durationTicks": 12,
          "midi": 76,
          "name": "E5",
          "ticks": 9431,
          "time": 109.66279069767442,
          "velocity": 0.18110236220472442
        },
        {
          "duration": 0.06976744186046346,
          "durationTicks": 6,
          "midi": 85,
          "name": "C#6",
          "ticks": 9433,
          "time": 109.68604651162791,
          "velocity": 0.1889763779527559
        },
        {
          "duration": 0.09302325581396076,
          "durationTicks": 8,
          "midi": 91,
          "name": "G6",
          "ticks": 9434,
          "time": 109.69767441860465,
          "velocity": 0.12598425196850394
        },
        {
          "duration": 0.034883720930224626,
          "durationTicks": 3,
          "midi": 82,
          "name": "A#5",
          "ticks": 9436,
          "time": 109.72093023255815,
          "velocity": 0.07086614173228346
        },
        {
          "duration": 1.6279069767441854,
          "durationTicks": 140,
          "midi": 85,
          "name": "C#6",
          "ticks": 9442,
          "time": 109.79069767441861,
          "velocity": 0.29133858267716534
        },
        {
          "duration": 0.034883720930224626,
          "durationTicks": 3,
          "midi": 65,
          "name": "F4",
          "ticks": 9443,
          "time": 109.80232558139535,
          "velocity": 0.14173228346456693
        },
        {
          "duration": 0.2674418604651123,
          "durationTicks": 23,
          "midi": 38,
          "name": "D2",
          "ticks": 9445,
          "time": 109.82558139534883,
          "velocity": 0.10236220472440945
        },
        {
          "duration": 0.2674418604651123,
          "durationTicks": 23,
          "midi": 91,
          "name": "G6",
          "ticks": 9445,
          "time": 109.82558139534883,
          "velocity": 0.11811023622047244
        },
        {
          "duration": 0.7906976744186096,
          "durationTicks": 68,
          "midi": 66,
          "name": "F#4",
          "ticks": 9446,
          "time": 109.83720930232558,
          "velocity": 0.33070866141732286
        },
        {
          "duration": 0.16279069767442422,
          "durationTicks": 14,
          "midi": 76,
          "name": "E5",
          "ticks": 9449,
          "time": 109.87209302325581,
          "velocity": 0.25984251968503935
        },
        {
          "duration": 0.16279069767442422,
          "durationTicks": 14,
          "midi": 57,
          "name": "A3",
          "ticks": 9451,
          "time": 109.8953488372093,
          "velocity": 0.13385826771653545
        },
        {
          "duration": 0.03488372093023884,
          "durationTicks": 3,
          "midi": 57,
          "name": "A3",
          "ticks": 9467,
          "time": 110.0813953488372,
          "velocity": 0.11811023622047244
        },
        {
          "duration": 0.15116279069768268,
          "durationTicks": 13,
          "midi": 76,
          "name": "E5",
          "ticks": 9468,
          "time": 110.09302325581395,
          "velocity": 0.14173228346456693
        },
        {
          "duration": 0.06976744186046346,
          "durationTicks": 6,
          "midi": 57,
          "name": "A3",
          "ticks": 9471,
          "time": 110.12790697674419,
          "velocity": 0.14960629921259844
        },
        {
          "duration": 0.06976744186046346,
          "durationTicks": 6,
          "midi": 38,
          "name": "D2",
          "ticks": 9472,
          "time": 110.13953488372093,
          "velocity": 0.07874015748031496
        },
        {
          "duration": 0.04651162790696617,
          "durationTicks": 4,
          "midi": 91,
          "name": "G6",
          "ticks": 9474,
          "time": 110.16279069767442,
          "velocity": 0.07086614173228346
        },
        {
          "duration": 0.8372093023255758,
          "durationTicks": 72,
          "midi": 69,
          "name": "A4",
          "ticks": 9476,
          "time": 110.18604651162791,
          "velocity": 0.3543307086614173
        },
        {
          "duration": 0.27906976744185386,
          "durationTicks": 24,
          "midi": 91,
          "name": "G6",
          "ticks": 9481,
          "time": 110.24418604651163,
          "velocity": 0.14960629921259844
        },
        {
          "duration": 0.09302325581396076,
          "durationTicks": 8,
          "midi": 38,
          "name": "D2",
          "ticks": 9483,
          "time": 110.26744186046511,
          "velocity": 0.10236220472440945
        },
        {
          "duration": 0.33720930232559,
          "durationTicks": 29,
          "midi": 88,
          "name": "E6",
          "ticks": 9483,
          "time": 110.26744186046511,
          "velocity": 0.28346456692913385
        },
        {
          "duration": 0.4302325581395223,
          "durationTicks": 37,
          "midi": 57,
          "name": "A3",
          "ticks": 9490,
          "time": 110.34883720930233,
          "velocity": 0.18110236220472442
        },
        {
          "duration": 0.38372093023255616,
          "durationTicks": 33,
          "midi": 76,
          "name": "E5",
          "ticks": 9491,
          "time": 110.36046511627907,
          "velocity": 0.2204724409448819
        },
        {
          "duration": 0.06976744186046346,
          "durationTicks": 6,
          "midi": 38,
          "name": "D2",
          "ticks": 9492,
          "time": 110.37209302325581,
          "velocity": 0.08661417322834646
        },
        {
          "duration": 0.034883720930224626,
          "durationTicks": 3,
          "midi": 73,
          "name": "C#5",
          "ticks": 9497,
          "time": 110.43023255813954,
          "velocity": 0.25196850393700787
        },
        {
          "duration": 0.27906976744186807,
          "durationTicks": 24,
          "midi": 72,
          "name": "C5",
          "ticks": 9499,
          "time": 110.45348837209302,
          "velocity": 0.2440944881889764
        },
        {
          "duration": 0.10465116279068809,
          "durationTicks": 9,
          "midi": 93,
          "name": "A6",
          "ticks": 9502,
          "time": 110.48837209302326,
          "velocity": 0.2125984251968504
        },
        {
          "duration": 0.081395348837205,
          "durationTicks": 7,
          "midi": 38,
          "name": "D2",
          "ticks": 9504,
          "time": 110.51162790697674,
          "velocity": 0.11811023622047244
        },
        {
          "duration": 0.1046511627907023,
          "durationTicks": 9,
          "midi": 91,
          "name": "G6",
          "ticks": 9510,
          "time": 110.5813953488372,
          "velocity": 0.14173228346456693
        },
        {
          "duration": 0.12790697674418539,
          "durationTicks": 11,
          "midi": 38,
          "name": "D2",
          "ticks": 9512,
          "time": 110.6046511627907,
          "velocity": 0.08661417322834646
        },
        {
          "duration": 0.09302325581396076,
          "durationTicks": 8,
          "midi": 88,
          "name": "E6",
          "ticks": 9514,
          "time": 110.62790697674419,
          "velocity": 0.2440944881889764
        },
        {
          "duration": 1.2093023255814046,
          "durationTicks": 104,
          "midi": 66,
          "name": "F#4",
          "ticks": 9516,
          "time": 110.65116279069767,
          "velocity": 0.4566929133858268
        },
        {
          "duration": 0.06976744186046346,
          "durationTicks": 6,
          "midi": 73,
          "name": "C#5",
          "ticks": 9522,
          "time": 110.72093023255815,
          "velocity": 0.28346456692913385
        },
        {
          "duration": 0.2325581395348877,
          "durationTicks": 20,
          "midi": 88,
          "name": "E6",
          "ticks": 9524,
          "time": 110.74418604651163,
          "velocity": 0.1732283464566929
        },
        {
          "duration": 0.32558139534883423,
          "durationTicks": 28,
          "midi": 91,
          "name": "G6",
          "ticks": 9524,
          "time": 110.74418604651163,
          "velocity": 0.1968503937007874
        },
        {
          "duration": 0.09302325581396076,
          "durationTicks": 8,
          "midi": 38,
          "name": "D2",
          "ticks": 9525,
          "time": 110.75581395348837,
          "velocity": 0.10236220472440945
        },
        {
          "duration": 0.13953488372094114,
          "durationTicks": 12,
          "midi": 72,
          "name": "C5",
          "ticks": 9527,
          "time": 110.77906976744185,
          "velocity": 0.25984251968503935
        },
        {
          "duration": 0.09302325581394655,
          "durationTicks": 8,
          "midi": 76,
          "name": "E5",
          "ticks": 9533,
          "time": 110.84883720930233,
          "velocity": 0.18110236220472442
        },
        {
          "duration": 0.05813953488372192,
          "durationTicks": 5,
          "midi": 38,
          "name": "D2",
          "ticks": 9536,
          "time": 110.88372093023256,
          "velocity": 0.07086614173228346
        },
        {
          "duration": 0.12790697674418539,
          "durationTicks": 11,
          "midi": 73,
          "name": "C#5",
          "ticks": 9538,
          "time": 110.90697674418605,
          "velocity": 0.2992125984251969
        },
        {
          "duration": 0.10465116279068809,
          "durationTicks": 9,
          "midi": 57,
          "name": "A3",
          "ticks": 9544,
          "time": 110.97674418604652,
          "velocity": 0.14173228346456693
        },
        {
          "duration": 0.04651162790698038,
          "durationTicks": 4,
          "midi": 82,
          "name": "A#5",
          "ticks": 9545,
          "time": 110.98837209302326,
          "velocity": 0.09448818897637795
        },
        {
          "duration": 0.13953488372092693,
          "durationTicks": 12,
          "midi": 76,
          "name": "E5",
          "ticks": 9546,
          "time": 111,
          "velocity": 0.11811023622047244
        },
        {
          "duration": 0.16279069767442422,
          "durationTicks": 14,
          "midi": 72,
          "name": "C5",
          "ticks": 9548,
          "time": 111.02325581395348,
          "velocity": 0.2440944881889764
        },
        {
          "duration": 0.08139534883721922,
          "durationTicks": 7,
          "midi": 88,
          "name": "E6",
          "ticks": 9548,
          "time": 111.02325581395348,
          "velocity": 0.18110236220472442
        },
        {
          "duration": 0.5930232558139465,
          "durationTicks": 51,
          "midi": 69,
          "name": "A4",
          "ticks": 9551,
          "time": 111.05813953488372,
          "velocity": 0.33070866141732286
        },
        {
          "duration": 0.4534883720930196,
          "durationTicks": 39,
          "midi": 57,
          "name": "A3",
          "ticks": 9560,
          "time": 111.16279069767442,
          "velocity": 0.2125984251968504
        },
        {
          "duration": 0.24418604651162923,
          "durationTicks": 21,
          "midi": 73,
          "name": "C#5",
          "ticks": 9561,
          "time": 111.17441860465117,
          "velocity": 0.2755905511811024
        },
        {
          "duration": 0.081395348837205,
          "durationTicks": 7,
          "midi": 88,
          "name": "E6",
          "ticks": 9565,
          "time": 111.22093023255815,
          "velocity": 0.1732283464566929
        },
        {
          "duration": 1.2441860465116292,
          "durationTicks": 107,
          "midi": 50,
          "name": "D3",
          "ticks": 9575,
          "time": 111.33720930232558,
          "velocity": 0.3700787401574803
        },
        {
          "duration": 0.081395348837205,
          "durationTicks": 7,
          "midi": 91,
          "name": "G6",
          "ticks": 9579,
          "time": 111.38372093023256,
          "velocity": 0.13385826771653545
        },
        {
          "duration": 0.19767441860464885,
          "durationTicks": 17,
          "midi": 72,
          "name": "C5",
          "ticks": 9581,
          "time": 111.40697674418605,
          "velocity": 0.1889763779527559
        },
        {
          "duration": 0.3372093023255758,
          "durationTicks": 29,
          "midi": 88,
          "name": "E6",
          "ticks": 9581,
          "time": 111.40697674418605,
          "velocity": 0.1889763779527559
        },
        {
          "duration": 0.04651162790698038,
          "durationTicks": 4,
          "midi": 85,
          "name": "C#6",
          "ticks": 9584,
          "time": 111.44186046511628,
          "velocity": 0.2047244094488189
        },
        {
          "duration": 0.13953488372092693,
          "durationTicks": 12,
          "midi": 85,
          "name": "C#6",
          "ticks": 9590,
          "time": 111.51162790697674,
          "velocity": 0.1889763779527559
        },
        {
          "duration": 0.16279069767441,
          "durationTicks": 14,
          "midi": 91,
          "name": "G6",
          "ticks": 9593,
          "time": 111.54651162790698,
          "velocity": 0.11023622047244094
        },
        {
          "duration": 0.03488372093023884,
          "durationTicks": 3,
          "midi": 73,
          "name": "C#5",
          "ticks": 9597,
          "time": 111.59302325581395,
          "velocity": 0.2755905511811024
        },
        {
          "duration": 0.034883720930224626,
          "durationTicks": 3,
          "midi": 72,
          "name": "C5",
          "ticks": 9599,
          "time": 111.61627906976744,
          "velocity": 0.1732283464566929
        },
        {
          "duration": 0.081395348837205,
          "durationTicks": 7,
          "midi": 95,
          "name": "B6",
          "ticks": 9600,
          "time": 111.62790697674419,
          "velocity": 0.14173228346456693
        },
        {
          "duration": 0.2093023255814046,
          "durationTicks": 18,
          "midi": 57,
          "name": "A3",
          "ticks": 9601,
          "time": 111.63953488372093,
          "velocity": 0.1732283464566929
        },
        {
          "duration": 0.6511627906976827,
          "durationTicks": 56,
          "midi": 73,
          "name": "C#5",
          "ticks": 9601,
          "time": 111.63953488372093,
          "velocity": 0.44881889763779526
        },
        {
          "duration": 0.06976744186046346,
          "durationTicks": 6,
          "midi": 82,
          "name": "A#5",
          "ticks": 9601,
          "time": 111.63953488372093,
          "velocity": 0.13385826771653545
        },
        {
          "duration": 0.16279069767442422,
          "durationTicks": 14,
          "midi": 76,
          "name": "E5",
          "ticks": 9606,
          "time": 111.69767441860465,
          "velocity": 0.11811023622047244
        },
        {
          "duration": 0.09302325581396076,
          "durationTicks": 8,
          "midi": 81,
          "name": "A5",
          "ticks": 9607,
          "time": 111.70930232558139,
          "velocity": 0.14173228346456693
        },
        {
          "duration": 1.6744186046511658,
          "durationTicks": 144,
          "midi": 95,
          "name": "B6",
          "ticks": 9609,
          "time": 111.73255813953489,
          "velocity": 0.4015748031496063
        },
        {
          "duration": 0.4651162790697754,
          "durationTicks": 40,
          "midi": 69,
          "name": "A4",
          "ticks": 9612,
          "time": 111.76744186046511,
          "velocity": 0.2992125984251969
        },
        {
          "duration": 0.09302325581394655,
          "durationTicks": 8,
          "midi": 91,
          "name": "G6",
          "ticks": 9615,
          "time": 111.80232558139535,
          "velocity": 0.09448818897637795
        },
        {
          "duration": 0.08139534883721922,
          "durationTicks": 7,
          "midi": 88,
          "name": "E6",
          "ticks": 9617,
          "time": 111.82558139534883,
          "velocity": 0.12598425196850394
        },
        {
          "duration": 1.220930232558132,
          "durationTicks": 105,
          "midi": 57,
          "name": "A3",
          "ticks": 9620,
          "time": 111.86046511627907,
          "velocity": 0.2204724409448819
        },
        {
          "duration": 0.6511627906976827,
          "durationTicks": 56,
          "midi": 66,
          "name": "F#4",
          "ticks": 9622,
          "time": 111.88372093023256,
          "velocity": 0.3700787401574803
        },
        {
          "duration": 0.04651162790696617,
          "durationTicks": 4,
          "midi": 76,
          "name": "E5",
          "ticks": 9624,
          "time": 111.90697674418605,
          "velocity": 0.07874015748031496
        },
        {
          "duration": 0.06976744186046346,
          "durationTicks": 6,
          "midi": 76,
          "name": "E5",
          "ticks": 9633,
          "time": 112.01162790697674,
          "velocity": 0.11023622047244094
        },
        {
          "duration": 0.03488372093023884,
          "durationTicks": 3,
          "midi": 71,
          "name": "B4",
          "ticks": 9649,
          "time": 112.19767441860465,
          "velocity": 0.2283464566929134
        },
        {
          "duration": 0.06976744186046346,
          "durationTicks": 6,
          "midi": 76,
          "name": "E5",
          "ticks": 9649,
          "time": 112.19767441860465,
          "velocity": 0.10236220472440945
        },
        {
          "duration": 0.04651162790696617,
          "durationTicks": 4,
          "midi": 81,
          "name": "A5",
          "ticks": 9652,
          "time": 112.23255813953489,
          "velocity": 0.10236220472440945
        },
        {
          "duration": 0.034883720930224626,
          "durationTicks": 3,
          "midi": 71,
          "name": "B4",
          "ticks": 9658,
          "time": 112.30232558139535,
          "velocity": 0.1968503937007874
        },
        {
          "duration": 0.023255813953497295,
          "durationTicks": 2,
          "midi": 72,
          "name": "C5",
          "ticks": 9661,
          "time": 112.33720930232558,
          "velocity": 0.2283464566929134
        },
        {
          "duration": 0.06976744186046346,
          "durationTicks": 6,
          "midi": 71,
          "name": "B4",
          "ticks": 9664,
          "time": 112.37209302325581,
          "velocity": 0.2283464566929134
        },
        {
          "duration": 0.06976744186046346,
          "durationTicks": 6,
          "midi": 85,
          "name": "C#6",
          "ticks": 9665,
          "time": 112.38372093023256,
          "velocity": 0.09448818897637795
        },
        {
          "duration": 0.10465116279068809,
          "durationTicks": 9,
          "midi": 73,
          "name": "C#5",
          "ticks": 9667,
          "time": 112.40697674418605,
          "velocity": 0.28346456692913385
        },
        {
          "duration": 2.6511627906976685,
          "durationTicks": 228,
          "midi": 71,
          "name": "B4",
          "ticks": 9674,
          "time": 112.48837209302326,
          "velocity": 0.3700787401574803
        },
        {
          "duration": 0.034883720930224626,
          "durationTicks": 3,
          "midi": 76,
          "name": "E5",
          "ticks": 9678,
          "time": 112.53488372093024,
          "velocity": 0.07086614173228346
        },
        {
          "duration": 1.2674418604651123,
          "durationTicks": 109,
          "midi": 66,
          "name": "F#4",
          "ticks": 9681,
          "time": 112.56976744186046,
          "velocity": 0.33858267716535434
        },
        {
          "duration": 0.03488372093023884,
          "durationTicks": 3,
          "midi": 88,
          "name": "E6",
          "ticks": 9683,
          "time": 112.59302325581395,
          "velocity": 0.07086614173228346
        },
        {
          "duration": 0.06976744186046346,
          "durationTicks": 6,
          "midi": 76,
          "name": "E5",
          "ticks": 9691,
          "time": 112.68604651162791,
          "velocity": 0.09448818897637795
        },
        {
          "duration": 0.13953488372092693,
          "durationTicks": 12,
          "midi": 50,
          "name": "D3",
          "ticks": 9697,
          "time": 112.75581395348837,
          "velocity": 0.10236220472440945
        },
        {
          "duration": 0.06976744186046346,
          "durationTicks": 6,
          "midi": 73,
          "name": "C#5",
          "ticks": 9701,
          "time": 112.80232558139535,
          "velocity": 0.15748031496062992
        },
        {
          "duration": 0.06976744186046346,
          "durationTicks": 6,
          "midi": 73,
          "name": "C#5",
          "ticks": 9713,
          "time": 112.94186046511628,
          "velocity": 0.11023622047244094
        },
        {
          "duration": 1.5348837209302246,
          "durationTicks": 132,
          "midi": 50,
          "name": "D3",
          "ticks": 9723,
          "time": 113.05813953488372,
          "velocity": 0.25196850393700787
        },
        {
          "duration": 0.09302325581394655,
          "durationTicks": 8,
          "midi": 90,
          "name": "F#6",
          "ticks": 9727,
          "time": 113.1046511627907,
          "velocity": 0.14173228346456693
        },
        {
          "duration": 0.27906976744186807,
          "durationTicks": 24,
          "midi": 57,
          "name": "A3",
          "ticks": 9746,
          "time": 113.32558139534883,
          "velocity": 0.11811023622047244
        },
        {
          "duration": 0.05813953488372192,
          "durationTicks": 5,
          "midi": 90,
          "name": "F#6",
          "ticks": 9748,
          "time": 113.34883720930233,
          "velocity": 0.10236220472440945
        },
        {
          "duration": 0.081395348837205,
          "durationTicks": 7,
          "midi": 95,
          "name": "B6",
          "ticks": 9760,
          "time": 113.48837209302326,
          "velocity": 0.13385826771653545
        },
        {
          "duration": 0.03488372093023884,
          "durationTicks": 3,
          "midi": 90,
          "name": "F#6",
          "ticks": 9769,
          "time": 113.59302325581395,
          "velocity": 0.07874015748031496
        },
        {
          "duration": 0.034883720930224626,
          "durationTicks": 3,
          "midi": 73,
          "name": "C#5",
          "ticks": 9776,
          "time": 113.67441860465117,
          "velocity": 0.07874015748031496
        },
        {
          "duration": 0.6744186046511658,
          "durationTicks": 58,
          "midi": 80,
          "name": "G#5",
          "ticks": 9781,
          "time": 113.73255813953489,
          "velocity": 0.36220472440944884
        },
        {
          "duration": 0.2906976744186096,
          "durationTicks": 25,
          "midi": 66,
          "name": "F#4",
          "ticks": 9795,
          "time": 113.8953488372093,
          "velocity": 0.1889763779527559
        },
        {
          "duration": 1.058139534883722,
          "durationTicks": 91,
          "midi": 66,
          "name": "F#4",
          "ticks": 9826,
          "time": 114.25581395348837,
          "velocity": 0.2283464566929134
        },
        {
          "duration": 0.6395348837209269,
          "durationTicks": 55,
          "midi": 50,
          "name": "D3",
          "ticks": 9867,
          "time": 114.73255813953489,
          "velocity": 0.2204724409448819
        },
        {
          "duration": 0.15116279069766847,
          "durationTicks": 13,
          "midi": 71,
          "name": "B4",
          "ticks": 9910,
          "time": 115.23255813953489,
          "velocity": 0.09448818897637795
        },
        {
          "duration": 0.11627906976744384,
          "durationTicks": 10,
          "midi": 66,
          "name": "F#4",
          "ticks": 9923,
          "time": 115.38372093023256,
          "velocity": 0.11811023622047244
        },
        {
          "duration": 0.22093023255813193,
          "durationTicks": 19,
          "midi": 74,
          "name": "D5",
          "ticks": 9969,
          "time": 115.9186046511628,
          "velocity": 0.4566929133858268
        },
        {
          "duration": 0.2093023255813904,
          "durationTicks": 18,
          "midi": 78,
          "name": "F#5",
          "ticks": 9970,
          "time": 115.93023255813954,
          "velocity": 0.2992125984251969
        },
        {
          "duration": 0.04651162790696617,
          "durationTicks": 4,
          "midi": 74,
          "name": "D5",
          "ticks": 9990,
          "time": 116.16279069767442,
          "velocity": 0.18110236220472442
        },
        {
          "duration": 0.05813953488372192,
          "durationTicks": 5,
          "midi": 78,
          "name": "F#5",
          "ticks": 9991,
          "time": 116.17441860465117,
          "velocity": 0.08661417322834646
        },
        {
          "duration": 0.38372093023255616,
          "durationTicks": 33,
          "midi": 74,
          "name": "D5",
          "ticks": 9998,
          "time": 116.25581395348837,
          "velocity": 0.2440944881889764
        },
        {
          "duration": 0.034883720930224626,
          "durationTicks": 3,
          "midi": 78,
          "name": "F#5",
          "ticks": 10006,
          "time": 116.34883720930233,
          "velocity": 0.08661417322834646
        },
        {
          "duration": 0.13953488372092693,
          "durationTicks": 12,
          "midi": 85,
          "name": "C#6",
          "ticks": 10154,
          "time": 118.06976744186046,
          "velocity": 0.14960629921259844
        },
        {
          "duration": 0.5,
          "durationTicks": 43,
          "midi": 73,
          "name": "C#5",
          "ticks": 10335,
          "time": 120.17441860465117,
          "velocity": 0.25984251968503935
        },
        {
          "duration": 0.7209302325581461,
          "durationTicks": 62,
          "midi": 83,
          "name": "B5",
          "ticks": 10338,
          "time": 120.20930232558139,
          "velocity": 0.4330708661417323
        },
        {
          "duration": 0.2093023255814046,
          "durationTicks": 18,
          "midi": 68,
          "name": "G#4",
          "ticks": 10343,
          "time": 120.26744186046511,
          "velocity": 0.2755905511811024
        },
        {
          "duration": 0.06976744186046346,
          "durationTicks": 6,
          "midi": 61,
          "name": "C#4",
          "ticks": 10346,
          "time": 120.30232558139535,
          "velocity": 0.11811023622047244
        },
        {
          "duration": 0.03488372093023884,
          "durationTicks": 3,
          "midi": 61,
          "name": "C#4",
          "ticks": 10354,
          "time": 120.3953488372093,
          "velocity": 0.12598425196850394
        },
        {
          "duration": 0.7906976744186096,
          "durationTicks": 68,
          "midi": 81,
          "name": "A5",
          "ticks": 10354,
          "time": 120.3953488372093,
          "velocity": 0.3700787401574803
        },
        {
          "duration": 0.9302325581395365,
          "durationTicks": 80,
          "midi": 49,
          "name": "C#3",
          "ticks": 10356,
          "time": 120.4186046511628,
          "velocity": 0.33070866141732286
        },
        {
          "duration": 1.1395348837209411,
          "durationTicks": 98,
          "midi": 69,
          "name": "A4",
          "ticks": 10360,
          "time": 120.46511627906976,
          "velocity": 0.4645669291338583
        },
        {
          "duration": 0.04651162790698038,
          "durationTicks": 4,
          "midi": 65,
          "name": "F4",
          "ticks": 10362,
          "time": 120.48837209302326,
          "velocity": 0.07086614173228346
        },
        {
          "duration": 0.3488372093023173,
          "durationTicks": 30,
          "midi": 72,
          "name": "C5",
          "ticks": 10382,
          "time": 120.72093023255815,
          "velocity": 0.14960629921259844
        },
        {
          "duration": 0.4767441860465169,
          "durationTicks": 41,
          "midi": 56,
          "name": "G#3",
          "ticks": 10384,
          "time": 120.74418604651163,
          "velocity": 0.13385826771653545
        },
        {
          "duration": 0.034883720930224626,
          "durationTicks": 3,
          "midi": 88,
          "name": "E6",
          "ticks": 10389,
          "time": 120.80232558139535,
          "velocity": 0.12598425196850394
        },
        {
          "duration": 0.38372093023255616,
          "durationTicks": 33,
          "midi": 65,
          "name": "F4",
          "ticks": 10390,
          "time": 120.81395348837209,
          "velocity": 0.25984251968503935
        },
        {
          "duration": 0.15116279069766847,
          "durationTicks": 13,
          "midi": 88,
          "name": "E6",
          "ticks": 10399,
          "time": 120.9186046511628,
          "velocity": 0.1889763779527559
        },
        {
          "duration": 0.081395348837205,
          "durationTicks": 7,
          "midi": 97,
          "name": "C#7",
          "ticks": 10411,
          "time": 121.05813953488372,
          "velocity": 0.07874015748031496
        },
        {
          "duration": 0.4418604651162781,
          "durationTicks": 38,
          "midi": 88,
          "name": "E6",
          "ticks": 10413,
          "time": 121.0813953488372,
          "velocity": 0.2283464566929134
        },
        {
          "duration": 0.09302325581396076,
          "durationTicks": 8,
          "midi": 72,
          "name": "C5",
          "ticks": 10419,
          "time": 121.15116279069767,
          "velocity": 0.14960629921259844
        },
        {
          "duration": 0.05813953488372192,
          "durationTicks": 5,
          "midi": 93,
          "name": "A6",
          "ticks": 10422,
          "time": 121.18604651162791,
          "velocity": 0.11023622047244094
        },
        {
          "duration": 0.09302325581394655,
          "durationTicks": 8,
          "midi": 56,
          "name": "G#3",
          "ticks": 10427,
          "time": 121.24418604651163,
          "velocity": 0.14173228346456693
        },
        {
          "duration": 0.1046511627907023,
          "durationTicks": 9,
          "midi": 97,
          "name": "C#7",
          "ticks": 10427,
          "time": 121.24418604651163,
          "velocity": 0.18110236220472442
        },
        {
          "duration": 0.03488372093023884,
          "durationTicks": 3,
          "midi": 57,
          "name": "A3",
          "ticks": 10435,
          "time": 121.33720930232558,
          "velocity": 0.4645669291338583
        },
        {
          "duration": 0.17441860465116577,
          "durationTicks": 15,
          "midi": 49,
          "name": "C#3",
          "ticks": 10437,
          "time": 121.36046511627907,
          "velocity": 0.2283464566929134
        },
        {
          "duration": 0.3488372093023173,
          "durationTicks": 30,
          "midi": 65,
          "name": "F4",
          "ticks": 10437,
          "time": 121.36046511627907,
          "velocity": 0.2440944881889764
        },
        {
          "duration": 0.12790697674418539,
          "durationTicks": 11,
          "midi": 72,
          "name": "C5",
          "ticks": 10437,
          "time": 121.36046511627907,
          "velocity": 0.11811023622047244
        },
        {
          "duration": 0.10465116279068809,
          "durationTicks": 9,
          "midi": 75,
          "name": "D#5",
          "ticks": 10437,
          "time": 121.36046511627907,
          "velocity": 0.07874015748031496
        },
        {
          "duration": 0.11627906976744384,
          "durationTicks": 10,
          "midi": 56,
          "name": "G#3",
          "ticks": 10438,
          "time": 121.37209302325581,
          "velocity": 0.47244094488188976
        },
        {
          "duration": 0.03488372093023884,
          "durationTicks": 3,
          "midi": 97,
          "name": "C#7",
          "ticks": 10445,
          "time": 121.45348837209302,
          "velocity": 0.08661417322834646
        },
        {
          "duration": 0.04651162790698038,
          "durationTicks": 4,
          "midi": 97,
          "name": "C#7",
          "ticks": 10451,
          "time": 121.52325581395348,
          "velocity": 0.14173228346456693
        },
        {
          "duration": 0.06976744186046346,
          "durationTicks": 6,
          "midi": 56,
          "name": "G#3",
          "ticks": 10452,
          "time": 121.53488372093024,
          "velocity": 0.33858267716535434
        },
        {
          "duration": 0.05813953488370771,
          "durationTicks": 5,
          "midi": 88,
          "name": "E6",
          "ticks": 10452,
          "time": 121.53488372093024,
          "velocity": 0.16535433070866143
        },
        {
          "duration": 0.15116279069768268,
          "durationTicks": 13,
          "midi": 72,
          "name": "C5",
          "ticks": 10455,
          "time": 121.56976744186046,
          "velocity": 0.18110236220472442
        },
        {
          "duration": 0.1046511627907023,
          "durationTicks": 9,
          "midi": 56,
          "name": "G#3",
          "ticks": 10459,
          "time": 121.61627906976744,
          "velocity": 0.2677165354330709
        },
        {
          "duration": 1.8139534883720927,
          "durationTicks": 156,
          "midi": 49,
          "name": "C#3",
          "ticks": 10460,
          "time": 121.62790697674419,
          "velocity": 0.3464566929133858
        },
        {
          "duration": 0.8604651162790731,
          "durationTicks": 74,
          "midi": 69,
          "name": "A4",
          "ticks": 10460,
          "time": 121.62790697674419,
          "velocity": 0.33858267716535434
        },
        {
          "duration": 0.16279069767442422,
          "durationTicks": 14,
          "midi": 88,
          "name": "E6",
          "ticks": 10460,
          "time": 121.62790697674419,
          "velocity": 0.1968503937007874
        },
        {
          "duration": 0.06976744186046346,
          "durationTicks": 6,
          "midi": 57,
          "name": "A3",
          "ticks": 10468,
          "time": 121.72093023255815,
          "velocity": 0.25984251968503935
        },
        {
          "duration": 0.6162790697674438,
          "durationTicks": 53,
          "midi": 72,
          "name": "C5",
          "ticks": 10473,
          "time": 121.77906976744185,
          "velocity": 0.25984251968503935
        },
        {
          "duration": 0.30232558139533694,
          "durationTicks": 26,
          "midi": 56,
          "name": "G#3",
          "ticks": 10474,
          "time": 121.79069767441861,
          "velocity": 0.2677165354330709
        },
        {
          "duration": 0.03488372093023884,
          "durationTicks": 3,
          "midi": 88,
          "name": "E6",
          "ticks": 10477,
          "time": 121.82558139534883,
          "velocity": 0.13385826771653545
        },
        {
          "duration": 0.03488372093023884,
          "durationTicks": 3,
          "midi": 88,
          "name": "E6",
          "ticks": 10481,
          "time": 121.87209302325581,
          "velocity": 0.08661417322834646
        },
        {
          "duration": 0.3139534883720927,
          "durationTicks": 27,
          "midi": 65,
          "name": "F4",
          "ticks": 10484,
          "time": 121.90697674418605,
          "velocity": 0.2440944881889764
        },
        {
          "duration": 0.034883720930224626,
          "durationTicks": 3,
          "midi": 85,
          "name": "C#6",
          "ticks": 10484,
          "time": 121.90697674418605,
          "velocity": 0.07086614173228346
        },
        {
          "duration": 0.10465116279068809,
          "durationTicks": 9,
          "midi": 88,
          "name": "E6",
          "ticks": 10485,
          "time": 121.9186046511628,
          "velocity": 0.16535433070866143
        },
        {
          "duration": 0.03488372093023884,
          "durationTicks": 3,
          "midi": 76,
          "name": "E5",
          "ticks": 10489,
          "time": 121.96511627906976,
          "velocity": 0.10236220472440945
        },
        {
          "duration": 0.12790697674418539,
          "durationTicks": 11,
          "midi": 88,
          "name": "E6",
          "ticks": 10498,
          "time": 122.06976744186046,
          "velocity": 0.16535433070866143
        },
        {
          "duration": 0.11627906976744384,
          "durationTicks": 10,
          "midi": 56,
          "name": "G#3",
          "ticks": 10502,
          "time": 122.11627906976744,
          "velocity": 0.28346456692913385
        },
        {
          "duration": 0.32558139534883423,
          "durationTicks": 28,
          "midi": 88,
          "name": "E6",
          "ticks": 10513,
          "time": 122.24418604651163,
          "velocity": 0.23622047244094488
        },
        {
          "duration": 2.139534883720941,
          "durationTicks": 184,
          "midi": 65,
          "name": "F4",
          "ticks": 10515,
          "time": 122.26744186046511,
          "velocity": 0.44881889763779526
        },
        {
          "duration": 0.05813953488372192,
          "durationTicks": 5,
          "midi": 56,
          "name": "G#3",
          "ticks": 10516,
          "time": 122.27906976744185,
          "velocity": 0.12598425196850394
        },
        {
          "duration": 0.023255813953483084,
          "durationTicks": 2,
          "midi": 60,
          "name": "C4",
          "ticks": 10523,
          "time": 122.36046511627907,
          "velocity": 0.5354330708661418
        },
        {
          "duration": 0.2906976744186096,
          "durationTicks": 25,
          "midi": 59,
          "name": "B3",
          "ticks": 10525,
          "time": 122.38372093023256,
          "velocity": 0.5748031496062992
        },
        {
          "duration": 0.09302325581396076,
          "durationTicks": 8,
          "midi": 73,
          "name": "C#5",
          "ticks": 10525,
          "time": 122.38372093023256,
          "velocity": 0.2283464566929134
        },
        {
          "duration": 0.27906976744186807,
          "durationTicks": 24,
          "midi": 80,
          "name": "G#5",
          "ticks": 10525,
          "time": 122.38372093023256,
          "velocity": 0.3464566929133858
        },
        {
          "duration": 0.05813953488372192,
          "durationTicks": 5,
          "midi": 91,
          "name": "G6",
          "ticks": 10528,
          "time": 122.4186046511628,
          "velocity": 0.07086614173228346
        },
        {
          "duration": 0.15116279069766847,
          "durationTicks": 13,
          "midi": 72,
          "name": "C5",
          "ticks": 10534,
          "time": 122.48837209302326,
          "velocity": 0.29133858267716534
        },
        {
          "duration": 0.081395348837205,
          "durationTicks": 7,
          "midi": 81,
          "name": "A5",
          "ticks": 10536,
          "time": 122.51162790697674,
          "velocity": 0.15748031496062992
        },
        {
          "duration": 0.2674418604651123,
          "durationTicks": 23,
          "midi": 69,
          "name": "A4",
          "ticks": 10541,
          "time": 122.56976744186046,
          "velocity": 0.18110236220472442
        },
        {
          "duration": 0.9302325581395365,
          "durationTicks": 80,
          "midi": 73,
          "name": "C#5",
          "ticks": 10545,
          "time": 122.61627906976744,
          "velocity": 0.5590551181102362
        },
        {
          "duration": 0.15116279069766847,
          "durationTicks": 13,
          "midi": 59,
          "name": "B3",
          "ticks": 10551,
          "time": 122.68604651162791,
          "velocity": 0.4251968503937008
        },
        {
          "duration": 0.22093023255813193,
          "durationTicks": 19,
          "midi": 88,
          "name": "E6",
          "ticks": 10555,
          "time": 122.73255813953489,
          "velocity": 0.13385826771653545
        },
        {
          "duration": 0.03488372093023884,
          "durationTicks": 3,
          "midi": 91,
          "name": "G6",
          "ticks": 10557,
          "time": 122.75581395348837,
          "velocity": 0.07086614173228346
        },
        {
          "duration": 1.2674418604651265,
          "durationTicks": 109,
          "midi": 91,
          "name": "G6",
          "ticks": 10564,
          "time": 122.83720930232558,
          "velocity": 0.23622047244094488
        },
        {
          "duration": 0.15116279069768268,
          "durationTicks": 13,
          "midi": 95,
          "name": "B6",
          "ticks": 10564,
          "time": 122.83720930232558,
          "velocity": 0.15748031496062992
        },
        {
          "duration": 0.023255813953483084,
          "durationTicks": 2,
          "midi": 59,
          "name": "B3",
          "ticks": 10565,
          "time": 122.84883720930233,
          "velocity": 0.3937007874015748
        },
        {
          "duration": 0.05813953488372192,
          "durationTicks": 5,
          "midi": 81,
          "name": "A5",
          "ticks": 10566,
          "time": 122.86046511627907,
          "velocity": 0.1732283464566929
        },
        {
          "duration": 0.03488372093023884,
          "durationTicks": 3,
          "midi": 59,
          "name": "B3",
          "ticks": 10568,
          "time": 122.88372093023256,
          "velocity": 0.3858267716535433
        },
        {
          "duration": 0.034883720930224626,
          "durationTicks": 3,
          "midi": 80,
          "name": "G#5",
          "ticks": 10571,
          "time": 122.9186046511628,
          "velocity": 0.12598425196850394
        },
        {
          "duration": 0.17441860465116577,
          "durationTicks": 15,
          "midi": 81,
          "name": "A5",
          "ticks": 10573,
          "time": 122.94186046511628,
          "velocity": 0.2125984251968504
        },
        {
          "duration": 0.33720930232559,
          "durationTicks": 29,
          "midi": 69,
          "name": "A4",
          "ticks": 10575,
          "time": 122.96511627906976,
          "velocity": 0.2677165354330709
        },
        {
          "duration": 0.023255813953483084,
          "durationTicks": 2,
          "midi": 59,
          "name": "B3",
          "ticks": 10576,
          "time": 122.97674418604652,
          "velocity": 0.3543307086614173
        },
        {
          "duration": 0.081395348837205,
          "durationTicks": 7,
          "midi": 80,
          "name": "G#5",
          "ticks": 10577,
          "time": 122.98837209302326,
          "velocity": 0.16535433070866143
        },
        {
          "duration": 0.25581395348837077,
          "durationTicks": 22,
          "midi": 61,
          "name": "C#4",
          "ticks": 10581,
          "time": 123.03488372093024,
          "velocity": 0.3464566929133858
        },
        {
          "duration": 0.06976744186046346,
          "durationTicks": 6,
          "midi": 88,
          "name": "E6",
          "ticks": 10583,
          "time": 123.05813953488372,
          "velocity": 0.12598425196850394
        },
        {
          "duration": 0.15116279069768268,
          "durationTicks": 13,
          "midi": 87,
          "name": "D#6",
          "ticks": 10584,
          "time": 123.06976744186046,
          "velocity": 0.11023622047244094
        },
        {
          "duration": 0.081395348837205,
          "durationTicks": 7,
          "midi": 95,
          "name": "B6",
          "ticks": 10584,
          "time": 123.06976744186046,
          "velocity": 0.11811023622047244
        },
        {
          "duration": 0.05813953488372192,
          "durationTicks": 5,
          "midi": 92,
          "name": "G#6",
          "ticks": 10592,
          "time": 123.16279069767442,
          "velocity": 0.07086614173228346
        },
        {
          "duration": 0.034883720930224626,
          "durationTicks": 3,
          "midi": 80,
          "name": "G#5",
          "ticks": 10593,
          "time": 123.17441860465117,
          "velocity": 0.1732283464566929
        },
        {
          "duration": 0.081395348837205,
          "durationTicks": 7,
          "midi": 88,
          "name": "E6",
          "ticks": 10598,
          "time": 123.23255813953489,
          "velocity": 0.11811023622047244
        },
        {
          "duration": 0.04651162790698038,
          "durationTicks": 4,
          "midi": 95,
          "name": "B6",
          "ticks": 10601,
          "time": 123.26744186046511,
          "velocity": 0.13385826771653545
        },
        {
          "duration": 0.5,
          "durationTicks": 43,
          "midi": 69,
          "name": "A4",
          "ticks": 10605,
          "time": 123.31395348837209,
          "velocity": 0.28346456692913385
        },
        {
          "duration": 0.04651162790698038,
          "durationTicks": 4,
          "midi": 92,
          "name": "G#6",
          "ticks": 10607,
          "time": 123.33720930232558,
          "velocity": 0.09448818897637795
        },
        {
          "duration": 0.16279069767442422,
          "durationTicks": 14,
          "midi": 88,
          "name": "E6",
          "ticks": 10610,
          "time": 123.37209302325581,
          "velocity": 0.2204724409448819
        },
        {
          "duration": 0.023255813953497295,
          "durationTicks": 2,
          "midi": 62,
          "name": "D4",
          "ticks": 10611,
          "time": 123.38372093023256,
          "velocity": 0.4645669291338583
        },
        {
          "duration": 0.09302325581396076,
          "durationTicks": 8,
          "midi": 95,
          "name": "B6",
          "ticks": 10612,
          "time": 123.3953488372093,
          "velocity": 0.12598425196850394
        },
        {
          "duration": 0.5116279069767415,
          "durationTicks": 44,
          "midi": 61,
          "name": "C#4",
          "ticks": 10613,
          "time": 123.40697674418605,
          "velocity": 0.5511811023622047
        },
        {
          "duration": 0.04651162790696617,
          "durationTicks": 4,
          "midi": 93,
          "name": "A6",
          "ticks": 10613,
          "time": 123.40697674418605,
          "velocity": 0.10236220472440945
        },
        {
          "duration": 0.03488372093023884,
          "durationTicks": 3,
          "midi": 56,
          "name": "G#3",
          "ticks": 10618,
          "time": 123.46511627906976,
          "velocity": 0.1968503937007874
        },
        {
          "duration": 0.03488372093023884,
          "durationTicks": 3,
          "midi": 92,
          "name": "G#6",
          "ticks": 10618,
          "time": 123.46511627906976,
          "velocity": 0.10236220472440945
        },
        {
          "duration": 0.03488372093023884,
          "durationTicks": 3,
          "midi": 95,
          "name": "B6",
          "ticks": 10622,
          "time": 123.51162790697674,
          "velocity": 0.08661417322834646
        },
        {
          "duration": 0.11627906976744384,
          "durationTicks": 10,
          "midi": 87,
          "name": "D#6",
          "ticks": 10627,
          "time": 123.56976744186046,
          "velocity": 0.12598425196850394
        },
        {
          "duration": 0.5581395348837219,
          "durationTicks": 48,
          "midi": 49,
          "name": "C#3",
          "ticks": 10628,
          "time": 123.5813953488372,
          "velocity": 0.4015748031496063
        },
        {
          "duration": 0.2674418604651265,
          "durationTicks": 23,
          "midi": 88,
          "name": "E6",
          "ticks": 10628,
          "time": 123.5813953488372,
          "velocity": 0.23622047244094488
        },
        {
          "duration": 0.09302325581394655,
          "durationTicks": 8,
          "midi": 95,
          "name": "B6",
          "ticks": 10630,
          "time": 123.6046511627907,
          "velocity": 0.1732283464566929
        },
        {
          "duration": 0.03488372093023884,
          "durationTicks": 3,
          "midi": 76,
          "name": "E5",
          "ticks": 10637,
          "time": 123.68604651162791,
          "velocity": 0.11811023622047244
        },
        {
          "duration": 0.04651162790696617,
          "durationTicks": 4,
          "midi": 92,
          "name": "G#6",
          "ticks": 10640,
          "time": 123.72093023255815,
          "velocity": 0.07874015748031496
        },
        {
          "duration": 0.04651162790698038,
          "durationTicks": 4,
          "midi": 87,
          "name": "D#6",
          "ticks": 10647,
          "time": 123.80232558139535,
          "velocity": 0.08661417322834646
        },
        {
          "duration": 0.09302325581394655,
          "durationTicks": 8,
          "midi": 95,
          "name": "B6",
          "ticks": 10647,
          "time": 123.80232558139535,
          "velocity": 0.14173228346456693
        },
        {
          "duration": 0.3953488372093119,
          "durationTicks": 34,
          "midi": 69,
          "name": "A4",
          "ticks": 10649,
          "time": 123.82558139534883,
          "velocity": 0.3464566929133858
        },
        {
          "duration": 0.15116279069766847,
          "durationTicks": 13,
          "midi": 88,
          "name": "E6",
          "ticks": 10657,
          "time": 123.9186046511628,
          "velocity": 0.23622047244094488
        },
        {
          "duration": 0.023255813953483084,
          "durationTicks": 2,
          "midi": 60,
          "name": "C4",
          "ticks": 10663,
          "time": 123.98837209302326,
          "velocity": 0.25196850393700787
        },
        {
          "duration": 0.023255813953483084,
          "durationTicks": 2,
          "midi": 59,
          "name": "B3",
          "ticks": 10667,
          "time": 124.03488372093024,
          "velocity": 0.25196850393700787
        },
        {
          "duration": 0.023255813953497295,
          "durationTicks": 2,
          "midi": 60,
          "name": "C4",
          "ticks": 10671,
          "time": 124.0813953488372,
          "velocity": 0.2992125984251969
        },
        {
          "duration": 0.1860465116279073,
          "durationTicks": 16,
          "midi": 88,
          "name": "E6",
          "ticks": 10672,
          "time": 124.09302325581395,
          "velocity": 0.18110236220472442
        },
        {
          "duration": 0.10465116279068809,
          "durationTicks": 9,
          "midi": 59,
          "name": "B3",
          "ticks": 10673,
          "time": 124.1046511627907,
          "velocity": 0.25984251968503935
        },
        {
          "duration": 0.034883720930224626,
          "durationTicks": 3,
          "midi": 76,
          "name": "E5",
          "ticks": 10674,
          "time": 124.11627906976744,
          "velocity": 0.11023622047244094
        },
        {
          "duration": 0.09302325581396076,
          "durationTicks": 8,
          "midi": 91,
          "name": "G6",
          "ticks": 10675,
          "time": 124.12790697674419,
          "velocity": 0.11811023622047244
        },
        {
          "duration": 0.023255813953497295,
          "durationTicks": 2,
          "midi": 58,
          "name": "A#3",
          "ticks": 10682,
          "time": 124.20930232558139,
          "velocity": 0.2755905511811024
        },
        {
          "duration": 0.034883720930224626,
          "durationTicks": 3,
          "midi": 72,
          "name": "C5",
          "ticks": 10684,
          "time": 124.23255813953489,
          "velocity": 0.33070866141732286
        },
        {
          "duration": 0.04651162790698038,
          "durationTicks": 4,
          "midi": 59,
          "name": "B3",
          "ticks": 10685,
          "time": 124.24418604651163,
          "velocity": 0.25196850393700787
        },
        {
          "duration": 0.04651162790698038,
          "durationTicks": 4,
          "midi": 69,
          "name": "A4",
          "ticks": 10685,
          "time": 124.24418604651163,
          "velocity": 0.25984251968503935
        },
        {
          "duration": 0.17441860465115155,
          "durationTicks": 15,
          "midi": 73,
          "name": "C#5",
          "ticks": 10689,
          "time": 124.29069767441861,
          "velocity": 0.48031496062992124
        },
        {
          "duration": 0.023255813953483084,
          "durationTicks": 2,
          "midi": 49,
          "name": "C#3",
          "ticks": 10690,
          "time": 124.30232558139535,
          "velocity": 0.29133858267716534
        },
        {
          "duration": 0.034883720930224626,
          "durationTicks": 3,
          "midi": 69,
          "name": "A4",
          "ticks": 10690,
          "time": 124.30232558139535,
          "velocity": 0.25196850393700787
        },
        {
          "duration": 0.48837209302325846,
          "durationTicks": 42,
          "midi": 88,
          "name": "E6",
          "ticks": 10690,
          "time": 124.30232558139535,
          "velocity": 0.18110236220472442
        },
        {
          "duration": 0.13953488372092693,
          "durationTicks": 12,
          "midi": 91,
          "name": "G6",
          "ticks": 10690,
          "time": 124.30232558139535,
          "velocity": 0.16535433070866143
        },
        {
          "duration": 0.04651162790698038,
          "durationTicks": 4,
          "midi": 59,
          "name": "B3",
          "ticks": 10691,
          "time": 124.31395348837209,
          "velocity": 0.25196850393700787
        },
        {
          "duration": 0.11627906976744384,
          "durationTicks": 10,
          "midi": 68,
          "name": "G#4",
          "ticks": 10692,
          "time": 124.32558139534883,
          "velocity": 0.2047244094488189
        },
        {
          "duration": 0.5930232558139608,
          "durationTicks": 51,
          "midi": 49,
          "name": "C#3",
          "ticks": 10693,
          "time": 124.33720930232558,
          "velocity": 0.3858267716535433
        },
        {
          "duration": 0.04651162790698038,
          "durationTicks": 4,
          "midi": 69,
          "name": "A4",
          "ticks": 10702,
          "time": 124.44186046511628,
          "velocity": 0.18110236220472442
        },
        {
          "duration": 1.7674418604651123,
          "durationTicks": 152,
          "midi": 81,
          "name": "A5",
          "ticks": 10702,
          "time": 124.44186046511628,
          "velocity": 0.4645669291338583
        },
        {
          "duration": 0.05813953488372192,
          "durationTicks": 5,
          "midi": 59,
          "name": "B3",
          "ticks": 10703,
          "time": 124.45348837209302,
          "velocity": 0.2755905511811024
        },
        {
          "duration": 0.03488372093023884,
          "durationTicks": 3,
          "midi": 72,
          "name": "C5",
          "ticks": 10703,
          "time": 124.45348837209302,
          "velocity": 0.2992125984251969
        },
        {
          "duration": 0.19767441860464885,
          "durationTicks": 17,
          "midi": 78,
          "name": "F#5",
          "ticks": 10703,
          "time": 124.45348837209302,
          "velocity": 0.29133858267716534
        },
        {
          "duration": 0.1046511627907023,
          "durationTicks": 9,
          "midi": 76,
          "name": "E5",
          "ticks": 10704,
          "time": 124.46511627906976,
          "velocity": 0.13385826771653545
        },
        {
          "duration": 0.06976744186047767,
          "durationTicks": 6,
          "midi": 85,
          "name": "C#6",
          "ticks": 10704,
          "time": 124.46511627906976,
          "velocity": 0.09448818897637795
        },
        {
          "duration": 0.6279069767441854,
          "durationTicks": 54,
          "midi": 68,
          "name": "G#4",
          "ticks": 10706,
          "time": 124.48837209302326,
          "velocity": 0.4881889763779528
        },
        {
          "duration": 0.22093023255813193,
          "durationTicks": 19,
          "midi": 91,
          "name": "G6",
          "ticks": 10706,
          "time": 124.48837209302326,
          "velocity": 0.14960629921259844
        },
        {
          "duration": 0.16279069767442422,
          "durationTicks": 14,
          "midi": 73,
          "name": "C#5",
          "ticks": 10709,
          "time": 124.52325581395348,
          "velocity": 0.2047244094488189
        },
        {
          "duration": 6.802325581395351,
          "durationTicks": 585,
          "midi": 65,
          "name": "F4",
          "ticks": 10710,
          "time": 124.53488372093024,
          "velocity": 0.4881889763779528
        },
        {
          "duration": 1.081395348837205,
          "durationTicks": 93,
          "midi": 72,
          "name": "C5",
          "ticks": 10723,
          "time": 124.68604651162791,
          "velocity": 0.2992125984251969
        },
        {
          "duration": 0.06976744186046346,
          "durationTicks": 6,
          "midi": 56,
          "name": "G#3",
          "ticks": 10725,
          "time": 124.70930232558139,
          "velocity": 0.2283464566929134
        },
        {
          "duration": 0.11627906976744384,
          "durationTicks": 10,
          "midi": 91,
          "name": "G6",
          "ticks": 10730,
          "time": 124.76744186046511,
          "velocity": 0.14960629921259844
        },
        {
          "duration": 0.081395348837205,
          "durationTicks": 7,
          "midi": 85,
          "name": "C#6",
          "ticks": 10733,
          "time": 124.80232558139535,
          "velocity": 0.14173228346456693
        },
        {
          "duration": 0.03488372093023884,
          "durationTicks": 3,
          "midi": 56,
          "name": "G#3",
          "ticks": 10736,
          "time": 124.83720930232558,
          "velocity": 0.2204724409448819
        },
        {
          "duration": 0.04651162790698038,
          "durationTicks": 4,
          "midi": 88,
          "name": "E6",
          "ticks": 10739,
          "time": 124.87209302325581,
          "velocity": 0.11811023622047244
        },
        {
          "duration": 0.24418604651162923,
          "durationTicks": 21,
          "midi": 56,
          "name": "G#3",
          "ticks": 10743,
          "time": 124.9186046511628,
          "velocity": 0.2047244094488189
        },
        {
          "duration": 0.09302325581394655,
          "durationTicks": 8,
          "midi": 87,
          "name": "D#6",
          "ticks": 10743,
          "time": 124.9186046511628,
          "velocity": 0.09448818897637795
        },
        {
          "duration": 0.05813953488372192,
          "durationTicks": 5,
          "midi": 61,
          "name": "C#4",
          "ticks": 10744,
          "time": 124.93023255813954,
          "velocity": 0.18110236220472442
        },
        {
          "duration": 0.03488372093023884,
          "durationTicks": 3,
          "midi": 97,
          "name": "C#7",
          "ticks": 10745,
          "time": 124.94186046511628,
          "velocity": 0.08661417322834646
        },
        {
          "duration": 0.19767441860464885,
          "durationTicks": 17,
          "midi": 88,
          "name": "E6",
          "ticks": 10748,
          "time": 124.97674418604652,
          "velocity": 0.1732283464566929
        },
        {
          "duration": 0.03488372093023884,
          "durationTicks": 3,
          "midi": 97,
          "name": "C#7",
          "ticks": 10752,
          "time": 125.02325581395348,
          "velocity": 0.07874015748031496
        },
        {
          "duration": 2.5697674418604635,
          "durationTicks": 221,
          "midi": 49,
          "name": "C#3",
          "ticks": 10760,
          "time": 125.11627906976744,
          "velocity": 0.3700787401574803
        },
        {
          "duration": 0.06976744186046346,
          "durationTicks": 6,
          "midi": 85,
          "name": "C#6",
          "ticks": 10762,
          "time": 125.13953488372093,
          "velocity": 0.11023622047244094
        },
        {
          "duration": 0.04651162790698038,
          "durationTicks": 4,
          "midi": 69,
          "name": "A4",
          "ticks": 10763,
          "time": 125.15116279069767,
          "velocity": 0.3543307086614173
        },
        {
          "duration": 0.04651162790696617,
          "durationTicks": 4,
          "midi": 97,
          "name": "C#7",
          "ticks": 10764,
          "time": 125.16279069767442,
          "velocity": 0.11811023622047244
        },
        {
          "duration": 0.1046511627907023,
          "durationTicks": 9,
          "midi": 88,
          "name": "E6",
          "ticks": 10766,
          "time": 125.18604651162791,
          "velocity": 0.2992125984251969
        },
        {
          "duration": 0.04651162790698038,
          "durationTicks": 4,
          "midi": 56,
          "name": "G#3",
          "ticks": 10767,
          "time": 125.19767441860465,
          "velocity": 0.2047244094488189
        },
        {
          "duration": 0.418604651162795,
          "durationTicks": 36,
          "midi": 69,
          "name": "A4",
          "ticks": 10768,
          "time": 125.20930232558139,
          "velocity": 0.4251968503937008
        },
        {
          "duration": 0.4651162790697754,
          "durationTicks": 40,
          "midi": 87,
          "name": "D#6",
          "ticks": 10768,
          "time": 125.20930232558139,
          "velocity": 0.14960629921259844
        },
        {
          "duration": 0.081395348837205,
          "durationTicks": 7,
          "midi": 88,
          "name": "E6",
          "ticks": 10776,
          "time": 125.30232558139535,
          "velocity": 0.1889763779527559
        },
        {
          "duration": 0.918604651162795,
          "durationTicks": 79,
          "midi": 88,
          "name": "E6",
          "ticks": 10784,
          "time": 125.3953488372093,
          "velocity": 0.29133858267716534
        },
        {
          "duration": 0.034883720930224626,
          "durationTicks": 3,
          "midi": 91,
          "name": "G6",
          "ticks": 10785,
          "time": 125.40697674418605,
          "velocity": 0.11023622047244094
        },
        {
          "duration": 0.04651162790698038,
          "durationTicks": 4,
          "midi": 97,
          "name": "C#7",
          "ticks": 10798,
          "time": 125.55813953488372,
          "velocity": 0.13385826771653545
        },
        {
          "duration": 0.06976744186046346,
          "durationTicks": 6,
          "midi": 97,
          "name": "C#7",
          "ticks": 10803,
          "time": 125.61627906976744,
          "velocity": 0.14173228346456693
        },
        {
          "duration": 0.24418604651162923,
          "durationTicks": 21,
          "midi": 69,
          "name": "A4",
          "ticks": 10805,
          "time": 125.63953488372093,
          "velocity": 0.4409448818897638
        },
        {
          "duration": 0.12790697674418539,
          "durationTicks": 11,
          "midi": 97,
          "name": "C#7",
          "ticks": 10810,
          "time": 125.69767441860465,
          "velocity": 0.2440944881889764
        },
        {
          "duration": 0.16279069767441,
          "durationTicks": 14,
          "midi": 87,
          "name": "D#6",
          "ticks": 10812,
          "time": 125.72093023255815,
          "velocity": 0.11811023622047244
        },
        {
          "duration": 1.2093023255813904,
          "durationTicks": 104,
          "midi": 72,
          "name": "C5",
          "ticks": 10819,
          "time": 125.80232558139535,
          "velocity": 0.29133858267716534
        },
        {
          "duration": 0.023255813953483084,
          "durationTicks": 2,
          "midi": 68,
          "name": "G#4",
          "ticks": 10823,
          "time": 125.84883720930233,
          "velocity": 0.23622047244094488
        },
        {
          "duration": 0.03488372093023884,
          "durationTicks": 3,
          "midi": 68,
          "name": "G#4",
          "ticks": 10826,
          "time": 125.88372093023256,
          "velocity": 0.2677165354330709
        },
        {
          "duration": 0.04651162790698038,
          "durationTicks": 4,
          "midi": 56,
          "name": "G#3",
          "ticks": 10827,
          "time": 125.8953488372093,
          "velocity": 0.12598425196850394
        },
        {
          "duration": 0.09302325581394655,
          "durationTicks": 8,
          "midi": 87,
          "name": "D#6",
          "ticks": 10829,
          "time": 125.9186046511628,
          "velocity": 0.11023622047244094
        },
        {
          "duration": 0.081395348837205,
          "durationTicks": 7,
          "midi": 97,
          "name": "C#7",
          "ticks": 10829,
          "time": 125.9186046511628,
          "velocity": 0.13385826771653545
        },
        {
          "duration": 0.09302325581394655,
          "durationTicks": 8,
          "midi": 69,
          "name": "A4",
          "ticks": 10830,
          "time": 125.93023255813954,
          "velocity": 0.3779527559055118
        },
        {
          "duration": 0.09302325581394655,
          "durationTicks": 8,
          "midi": 85,
          "name": "C#6",
          "ticks": 10834,
          "time": 125.97674418604652,
          "velocity": 0.07086614173228346
        },
        {
          "duration": 0.27906976744186807,
          "durationTicks": 24,
          "midi": 97,
          "name": "C#7",
          "ticks": 10837,
          "time": 126.01162790697674,
          "velocity": 0.12598425196850394
        },
        {
          "duration": 0.16279069767442422,
          "durationTicks": 14,
          "midi": 68,
          "name": "G#4",
          "ticks": 10838,
          "time": 126.02325581395348,
          "velocity": 0.31496062992125984
        },
        {
          "duration": 0.38372093023255616,
          "durationTicks": 33,
          "midi": 87,
          "name": "D#6",
          "ticks": 10848,
          "time": 126.13953488372093,
          "velocity": 0.18110236220472442
        },
        {
          "duration": 0.05813953488372192,
          "durationTicks": 5,
          "midi": 91,
          "name": "G6",
          "ticks": 10850,
          "time": 126.16279069767442,
          "velocity": 0.08661417322834646
        },
        {
          "duration": 0.05813953488372192,
          "durationTicks": 5,
          "midi": 69,
          "name": "A4",
          "ticks": 10853,
          "time": 126.19767441860465,
          "velocity": 0.36220472440944884
        },
        {
          "duration": 0.09302325581396076,
          "durationTicks": 8,
          "midi": 68,
          "name": "G#4",
          "ticks": 10858,
          "time": 126.25581395348837,
          "velocity": 0.2992125984251969
        },
        {
          "duration": 1.0116279069767558,
          "durationTicks": 87,
          "midi": 91,
          "name": "G6",
          "ticks": 10860,
          "time": 126.27906976744185,
          "velocity": 0.1968503937007874
        },
        {
          "duration": 0.3139534883720927,
          "durationTicks": 27,
          "midi": 88,
          "name": "E6",
          "ticks": 10865,
          "time": 126.33720930232558,
          "velocity": 0.18110236220472442
        },
        {
          "duration": 0.13953488372092693,
          "durationTicks": 12,
          "midi": 69,
          "name": "A4",
          "ticks": 10866,
          "time": 126.34883720930233,
          "velocity": 0.3543307086614173
        },
        {
          "duration": 0.04651162790698038,
          "durationTicks": 4,
          "midi": 97,
          "name": "C#7",
          "ticks": 10869,
          "time": 126.38372093023256,
          "velocity": 0.11811023622047244
        },
        {
          "duration": 0.034883720930224626,
          "durationTicks": 3,
          "midi": 56,
          "name": "G#3",
          "ticks": 10872,
          "time": 126.4186046511628,
          "velocity": 0.13385826771653545
        },
        {
          "duration": 0.03488372093023884,
          "durationTicks": 3,
          "midi": 97,
          "name": "C#7",
          "ticks": 10876,
          "time": 126.46511627906976,
          "velocity": 0.10236220472440945
        },
        {
          "duration": 0.034883720930224626,
          "durationTicks": 3,
          "midi": 85,
          "name": "C#6",
          "ticks": 10878,
          "time": 126.48837209302326,
          "velocity": 0.08661417322834646
        },
        {
          "duration": 0.04651162790698038,
          "durationTicks": 4,
          "midi": 56,
          "name": "G#3",
          "ticks": 10879,
          "time": 126.5,
          "velocity": 0.1732283464566929
        },
        {
          "duration": 0.3953488372092977,
          "durationTicks": 34,
          "midi": 69,
          "name": "A4",
          "ticks": 10879,
          "time": 126.5,
          "velocity": 0.3779527559055118
        },
        {
          "duration": 0.04651162790696617,
          "durationTicks": 4,
          "midi": 93,
          "name": "A6",
          "ticks": 10882,
          "time": 126.53488372093024,
          "velocity": 0.08661417322834646
        },
        {
          "duration": 0.081395348837205,
          "durationTicks": 7,
          "midi": 87,
          "name": "D#6",
          "ticks": 10884,
          "time": 126.55813953488372,
          "velocity": 0.12598425196850394
        },
        {
          "duration": 0.03488372093023884,
          "durationTicks": 3,
          "midi": 56,
          "name": "G#3",
          "ticks": 10886,
          "time": 126.5813953488372,
          "velocity": 0.2047244094488189
        },
        {
          "duration": 0.03488372093023884,
          "durationTicks": 3,
          "midi": 97,
          "name": "C#7",
          "ticks": 10887,
          "time": 126.59302325581395,
          "velocity": 0.07874015748031496
        },
        {
          "duration": 0.1046511627907023,
          "durationTicks": 9,
          "midi": 95,
          "name": "B6",
          "ticks": 10889,
          "time": 126.61627906976744,
          "velocity": 0.18110236220472442
        },
        {
          "duration": 0.34883720930233153,
          "durationTicks": 30,
          "midi": 83,
          "name": "B5",
          "ticks": 10890,
          "time": 126.62790697674419,
          "velocity": 0.28346456692913385
        },
        {
          "duration": 1.6860465116279073,
          "durationTicks": 145,
          "midi": 56,
          "name": "G#3",
          "ticks": 10893,
          "time": 126.66279069767442,
          "velocity": 0.29133858267716534
        },
        {
          "duration": 0.2093023255813904,
          "durationTicks": 18,
          "midi": 93,
          "name": "A6",
          "ticks": 10893,
          "time": 126.66279069767442,
          "velocity": 0.2440944881889764
        },
        {
          "duration": 0.4418604651162923,
          "durationTicks": 38,
          "midi": 87,
          "name": "D#6",
          "ticks": 10903,
          "time": 126.77906976744185,
          "velocity": 0.13385826771653545
        },
        {
          "duration": 0.081395348837205,
          "durationTicks": 7,
          "midi": 88,
          "name": "E6",
          "ticks": 10904,
          "time": 126.79069767441861,
          "velocity": 0.08661417322834646
        },
        {
          "duration": 0.10465116279068809,
          "durationTicks": 9,
          "midi": 69,
          "name": "A4",
          "ticks": 10914,
          "time": 126.90697674418605,
          "velocity": 0.4015748031496063
        },
        {
          "duration": 0.05813953488372192,
          "durationTicks": 5,
          "midi": 85,
          "name": "C#6",
          "ticks": 10915,
          "time": 126.9186046511628,
          "velocity": 0.14173228346456693
        },
        {
          "duration": 0.22093023255814614,
          "durationTicks": 19,
          "midi": 75,
          "name": "D#5",
          "ticks": 10918,
          "time": 126.95348837209302,
          "velocity": 0.14960629921259844
        },
        {
          "duration": 0.05813953488372192,
          "durationTicks": 5,
          "midi": 88,
          "name": "E6",
          "ticks": 10919,
          "time": 126.96511627906976,
          "velocity": 0.18110236220472442
        },
        {
          "duration": 0.11627906976744384,
          "durationTicks": 10,
          "midi": 85,
          "name": "C#6",
          "ticks": 10923,
          "time": 127.01162790697674,
          "velocity": 0.11811023622047244
        },
        {
          "duration": 0.06976744186046346,
          "durationTicks": 6,
          "midi": 69,
          "name": "A4",
          "ticks": 10924,
          "time": 127.02325581395348,
          "velocity": 0.3543307086614173
        },
        {
          "duration": 0.744186046511615,
          "durationTicks": 64,
          "midi": 72,
          "name": "C5",
          "ticks": 10925,
          "time": 127.03488372093024,
          "velocity": 0.30708661417322836
        },
        {
          "duration": 0.04651162790696617,
          "durationTicks": 4,
          "midi": 88,
          "name": "E6",
          "ticks": 10926,
          "time": 127.04651162790698,
          "velocity": 0.11023622047244094
        },
        {
          "duration": 0.10465116279068809,
          "durationTicks": 9,
          "midi": 69,
          "name": "A4",
          "ticks": 10931,
          "time": 127.1046511627907,
          "velocity": 0.3700787401574803
        },
        {
          "duration": 0.03488372093023884,
          "durationTicks": 3,
          "midi": 88,
          "name": "E6",
          "ticks": 10934,
          "time": 127.13953488372093,
          "velocity": 0.10236220472440945
        },
        {
          "duration": 0.034883720930224626,
          "durationTicks": 3,
          "midi": 76,
          "name": "E5",
          "ticks": 10937,
          "time": 127.17441860465117,
          "velocity": 0.1889763779527559
        },
        {
          "duration": 0.08139534883721922,
          "durationTicks": 7,
          "midi": 75,
          "name": "D#5",
          "ticks": 10940,
          "time": 127.20930232558139,
          "velocity": 0.16535433070866143
        },
        {
          "duration": 0.1046511627907023,
          "durationTicks": 9,
          "midi": 88,
          "name": "E6",
          "ticks": 10940,
          "time": 127.20930232558139,
          "velocity": 0.14960629921259844
        },
        {
          "duration": 0.023255813953483084,
          "durationTicks": 2,
          "midi": 69,
          "name": "A4",
          "ticks": 10941,
          "time": 127.22093023255815,
          "velocity": 0.23622047244094488
        },
        {
          "duration": 0.04651162790696617,
          "durationTicks": 4,
          "midi": 85,
          "name": "C#6",
          "ticks": 10941,
          "time": 127.22093023255815,
          "velocity": 0.09448818897637795
        },
        {
          "duration": 0.25581395348837077,
          "durationTicks": 22,
          "midi": 69,
          "name": "A4",
          "ticks": 10944,
          "time": 127.25581395348837,
          "velocity": 0.3464566929133858
        },
        {
          "duration": 0.25581395348837077,
          "durationTicks": 22,
          "midi": 91,
          "name": "G6",
          "ticks": 10949,
          "time": 127.31395348837209,
          "velocity": 0.14960629921259844
        },
        {
          "duration": 0.2674418604651123,
          "durationTicks": 23,
          "midi": 75,
          "name": "D#5",
          "ticks": 10950,
          "time": 127.32558139534883,
          "velocity": 0.12598425196850394
        },
        {
          "duration": 0.2325581395348877,
          "durationTicks": 20,
          "midi": 88,
          "name": "E6",
          "ticks": 10951,
          "time": 127.33720930232558,
          "velocity": 0.18110236220472442
        },
        {
          "duration": 0.023255813953497295,
          "durationTicks": 2,
          "midi": 68,
          "name": "G#4",
          "ticks": 10967,
          "time": 127.52325581395348,
          "velocity": 0.29133858267716534
        },
        {
          "duration": 0.10465116279068809,
          "durationTicks": 9,
          "midi": 69,
          "name": "A4",
          "ticks": 10969,
          "time": 127.54651162790698,
          "velocity": 0.31496062992125984
        },
        {
          "duration": 0.1279069767441996,
          "durationTicks": 11,
          "midi": 76,
          "name": "E5",
          "ticks": 10973,
          "time": 127.59302325581395,
          "velocity": 0.2047244094488189
        },
        {
          "duration": 0.3139534883720927,
          "durationTicks": 27,
          "midi": 91,
          "name": "G6",
          "ticks": 10979,
          "time": 127.66279069767442,
          "velocity": 0.1732283464566929
        },
        {
          "duration": 0.06976744186046346,
          "durationTicks": 6,
          "midi": 49,
          "name": "C#3",
          "ticks": 10982,
          "time": 127.69767441860465,
          "velocity": 0.18110236220472442
        },
        {
          "duration": 0.1860465116279073,
          "durationTicks": 16,
          "midi": 49,
          "name": "C#3",
          "ticks": 10989,
          "time": 127.77906976744185,
          "velocity": 0.2125984251968504
        },
        {
          "duration": 0.05813953488372192,
          "durationTicks": 5,
          "midi": 85,
          "name": "C#6",
          "ticks": 10989,
          "time": 127.77906976744185,
          "velocity": 0.08661417322834646
        },
        {
          "duration": 0.1860465116279073,
          "durationTicks": 16,
          "midi": 72,
          "name": "C5",
          "ticks": 10994,
          "time": 127.83720930232558,
          "velocity": 0.1968503937007874
        },
        {
          "duration": 0.06976744186046346,
          "durationTicks": 6,
          "midi": 75,
          "name": "D#5",
          "ticks": 10995,
          "time": 127.84883720930233,
          "velocity": 0.08661417322834646
        },
        {
          "duration": 0.2906976744186096,
          "durationTicks": 25,
          "midi": 69,
          "name": "A4",
          "ticks": 11001,
          "time": 127.9186046511628,
          "velocity": 0.3228346456692913
        },
        {
          "duration": 0.38372093023254195,
          "durationTicks": 33,
          "midi": 87,
          "name": "D#6",
          "ticks": 11001,
          "time": 127.9186046511628,
          "velocity": 0.14173228346456693
        },
        {
          "duration": 0.15116279069768268,
          "durationTicks": 13,
          "midi": 75,
          "name": "D#5",
          "ticks": 11005,
          "time": 127.96511627906976,
          "velocity": 0.13385826771653545
        },
        {
          "duration": 4.802325581395337,
          "durationTicks": 413,
          "midi": 49,
          "name": "C#3",
          "ticks": 11006,
          "time": 127.97674418604652,
          "velocity": 0.4566929133858268
        },
        {
          "duration": 0.1046511627907023,
          "durationTicks": 9,
          "midi": 85,
          "name": "C#6",
          "ticks": 11006,
          "time": 127.97674418604652,
          "velocity": 0.13385826771653545
        },
        {
          "duration": 0.5,
          "durationTicks": 43,
          "midi": 88,
          "name": "E6",
          "ticks": 11013,
          "time": 128.0581395348837,
          "velocity": 0.14173228346456693
        },
        {
          "duration": 0.13953488372092693,
          "durationTicks": 12,
          "midi": 72,
          "name": "C5",
          "ticks": 11018,
          "time": 128.11627906976744,
          "velocity": 0.14960629921259844
        },
        {
          "duration": 0.2906976744185954,
          "durationTicks": 25,
          "midi": 69,
          "name": "A4",
          "ticks": 11030,
          "time": 128.25581395348837,
          "velocity": 0.25984251968503935
        },
        {
          "duration": 0.16279069767441,
          "durationTicks": 14,
          "midi": 72,
          "name": "C5",
          "ticks": 11037,
          "time": 128.3372093023256,
          "velocity": 0.15748031496062992
        },
        {
          "duration": 0.04651162790696617,
          "durationTicks": 4,
          "midi": 56,
          "name": "G#3",
          "ticks": 11039,
          "time": 128.36046511627907,
          "velocity": 0.2440944881889764
        },
        {
          "duration": 0.06976744186047767,
          "durationTicks": 6,
          "midi": 56,
          "name": "G#3",
          "ticks": 11045,
          "time": 128.43023255813952,
          "velocity": 0.2283464566929134
        },
        {
          "duration": 0.2093023255814046,
          "durationTicks": 18,
          "midi": 87,
          "name": "D#6",
          "ticks": 11051,
          "time": 128.5,
          "velocity": 0.11811023622047244
        },
        {
          "duration": 0.06976744186047767,
          "durationTicks": 6,
          "midi": 56,
          "name": "G#3",
          "ticks": 11052,
          "time": 128.51162790697674,
          "velocity": 0.2047244094488189
        },
        {
          "duration": 0.04651162790696617,
          "durationTicks": 4,
          "midi": 76,
          "name": "E5",
          "ticks": 11052,
          "time": 128.51162790697674,
          "velocity": 0.07874015748031496
        },
        {
          "duration": 0.2906976744185954,
          "durationTicks": 25,
          "midi": 81,
          "name": "A5",
          "ticks": 11052,
          "time": 128.51162790697674,
          "velocity": 0.2677165354330709
        },
        {
          "duration": 0.2093023255814046,
          "durationTicks": 18,
          "midi": 72,
          "name": "C5",
          "ticks": 11053,
          "time": 128.52325581395348,
          "velocity": 0.25196850393700787
        },
        {
          "duration": 0.3488372093023031,
          "durationTicks": 30,
          "midi": 69,
          "name": "A4",
          "ticks": 11057,
          "time": 128.56976744186048,
          "velocity": 0.4330708661417323
        },
        {
          "duration": 0.06976744186044925,
          "durationTicks": 6,
          "midi": 88,
          "name": "E6",
          "ticks": 11059,
          "time": 128.59302325581396,
          "velocity": 0.07874015748031496
        },
        {
          "duration": 0.04651162790696617,
          "durationTicks": 4,
          "midi": 56,
          "name": "G#3",
          "ticks": 11060,
          "time": 128.6046511627907,
          "velocity": 0.18110236220472442
        },
        {
          "duration": 0.05813953488373613,
          "durationTicks": 5,
          "midi": 85,
          "name": "C#6",
          "ticks": 11063,
          "time": 128.63953488372093,
          "velocity": 0.07874015748031496
        },
        {
          "duration": 0.06976744186047767,
          "durationTicks": 6,
          "midi": 56,
          "name": "G#3",
          "ticks": 11065,
          "time": 128.6627906976744,
          "velocity": 0.2047244094488189
        },
        {
          "duration": 0.2325581395348877,
          "durationTicks": 20,
          "midi": 75,
          "name": "D#5",
          "ticks": 11067,
          "time": 128.6860465116279,
          "velocity": 0.14960629921259844
        },
        {
          "duration": 0.034883720930224626,
          "durationTicks": 3,
          "midi": 88,
          "name": "E6",
          "ticks": 11070,
          "time": 128.72093023255815,
          "velocity": 0.11023622047244094
        },
        {
          "duration": 0.034883720930224626,
          "durationTicks": 3,
          "midi": 72,
          "name": "C5",
          "ticks": 11073,
          "time": 128.75581395348837,
          "velocity": 0.28346456692913385
        },
        {
          "duration": 0.5,
          "durationTicks": 43,
          "midi": 73,
          "name": "C#5",
          "ticks": 11076,
          "time": 128.7906976744186,
          "velocity": 0.33858267716535434
        },
        {
          "duration": 0.9186046511628092,
          "durationTicks": 79,
          "midi": 80,
          "name": "G#5",
          "ticks": 11077,
          "time": 128.80232558139534,
          "velocity": 0.5118110236220472
        },
        {
          "duration": 0.034883720930224626,
          "durationTicks": 3,
          "midi": 56,
          "name": "G#3",
          "ticks": 11082,
          "time": 128.86046511627907,
          "velocity": 0.14173228346456693
        },
        {
          "duration": 1.16279069767441,
          "durationTicks": 100,
          "midi": 68,
          "name": "G#4",
          "ticks": 11089,
          "time": 128.9418604651163,
          "velocity": 0.4015748031496063
        },
        {
          "duration": 0.16279069767441,
          "durationTicks": 14,
          "midi": 75,
          "name": "D#5",
          "ticks": 11089,
          "time": 128.9418604651163,
          "velocity": 0.2283464566929134
        },
        {
          "duration": 0.04651162790699459,
          "durationTicks": 4,
          "midi": 75,
          "name": "D#5",
          "ticks": 11109,
          "time": 129.17441860465115,
          "velocity": 0.10236220472440945
        },
        {
          "duration": 0.12790697674418539,
          "durationTicks": 11,
          "midi": 72,
          "name": "C5",
          "ticks": 11119,
          "time": 129.2906976744186,
          "velocity": 0.1889763779527559
        },
        {
          "duration": 0.09302325581393234,
          "durationTicks": 8,
          "midi": 75,
          "name": "D#5",
          "ticks": 11121,
          "time": 129.3139534883721,
          "velocity": 0.11811023622047244
        },
        {
          "duration": 0.09302325581393234,
          "durationTicks": 8,
          "midi": 87,
          "name": "D#6",
          "ticks": 11123,
          "time": 129.3372093023256,
          "velocity": 0.12598425196850394
        },
        {
          "duration": 0.8372093023255616,
          "durationTicks": 72,
          "midi": 75,
          "name": "D#5",
          "ticks": 11133,
          "time": 129.45348837209303,
          "velocity": 0.29133858267716534
        },
        {
          "duration": 0.034883720930224626,
          "durationTicks": 3,
          "midi": 84,
          "name": "C6",
          "ticks": 11133,
          "time": 129.45348837209303,
          "velocity": 0.07874015748031496
        },
        {
          "duration": 0.09302325581393234,
          "durationTicks": 8,
          "midi": 73,
          "name": "C#5",
          "ticks": 11134,
          "time": 129.46511627906978,
          "velocity": 0.09448818897637795
        },
        {
          "duration": 0.034883720930224626,
          "durationTicks": 3,
          "midi": 56,
          "name": "G#3",
          "ticks": 11135,
          "time": 129.47674418604652,
          "velocity": 0.11023622047244094
        },
        {
          "duration": 0.04651162790699459,
          "durationTicks": 4,
          "midi": 84,
          "name": "C6",
          "ticks": 11141,
          "time": 129.54651162790697,
          "velocity": 0.08661417322834646
        },
        {
          "duration": 0.08139534883721922,
          "durationTicks": 7,
          "midi": 72,
          "name": "C5",
          "ticks": 11142,
          "time": 129.5581395348837,
          "velocity": 0.08661417322834646
        },
        {
          "duration": 0.06976744186047767,
          "durationTicks": 6,
          "midi": 72,
          "name": "C5",
          "ticks": 11161,
          "time": 129.77906976744185,
          "velocity": 0.09448818897637795
        },
        {
          "duration": 0.18604651162792152,
          "durationTicks": 16,
          "midi": 84,
          "name": "C6",
          "ticks": 11161,
          "time": 129.77906976744185,
          "velocity": 0.11023622047244094
        },
        {
          "duration": 0.04651162790699459,
          "durationTicks": 4,
          "midi": 56,
          "name": "G#3",
          "ticks": 11173,
          "time": 129.91860465116278,
          "velocity": 0.08661417322834646
        },
        {
          "duration": 0.40697674418606766,
          "durationTicks": 35,
          "midi": 81,
          "name": "A5",
          "ticks": 11173,
          "time": 129.91860465116278,
          "velocity": 0.2047244094488189
        },
        {
          "duration": 0.034883720930224626,
          "durationTicks": 3,
          "midi": 56,
          "name": "G#3",
          "ticks": 11178,
          "time": 129.97674418604652,
          "velocity": 0.08661417322834646
        },
        {
          "duration": 0.13953488372092693,
          "durationTicks": 12,
          "midi": 72,
          "name": "C5",
          "ticks": 11178,
          "time": 129.97674418604652,
          "velocity": 0.16535433070866143
        },
        {
          "duration": 1.2906976744185954,
          "durationTicks": 111,
          "midi": 68,
          "name": "G#4",
          "ticks": 11190,
          "time": 130.11627906976744,
          "velocity": 0.33070866141732286
        },
        {
          "duration": 0.034883720930224626,
          "durationTicks": 3,
          "midi": 96,
          "name": "C7",
          "ticks": 11190,
          "time": 130.11627906976744,
          "velocity": 0.08661417322834646
        },
        {
          "duration": 0.13953488372095535,
          "durationTicks": 12,
          "midi": 72,
          "name": "C5",
          "ticks": 11196,
          "time": 130.1860465116279,
          "velocity": 0.1732283464566929
        },
        {
          "duration": 0.4186046511627808,
          "durationTicks": 36,
          "midi": 75,
          "name": "D#5",
          "ticks": 11211,
          "time": 130.36046511627907,
          "velocity": 0.1968503937007874
        },
        {
          "duration": 0.05813953488373613,
          "durationTicks": 5,
          "midi": 56,
          "name": "G#3",
          "ticks": 11213,
          "time": 130.38372093023256,
          "velocity": 0.12598425196850394
        },
        {
          "duration": 0.11627906976744384,
          "durationTicks": 10,
          "midi": 72,
          "name": "C5",
          "ticks": 11217,
          "time": 130.43023255813952,
          "velocity": 0.15748031496062992
        },
        {
          "duration": 0.04651162790696617,
          "durationTicks": 4,
          "midi": 56,
          "name": "G#3",
          "ticks": 11222,
          "time": 130.48837209302326,
          "velocity": 0.11811023622047244
        },
        {
          "duration": 0.06976744186044925,
          "durationTicks": 6,
          "midi": 92,
          "name": "G#6",
          "ticks": 11222,
          "time": 130.48837209302326,
          "velocity": 0.1889763779527559
        },
        {
          "duration": 0.09302325581396076,
          "durationTicks": 8,
          "midi": 92,
          "name": "G#6",
          "ticks": 11235,
          "time": 130.63953488372093,
          "velocity": 0.09448818897637795
        },
        {
          "duration": 0.09302325581396076,
          "durationTicks": 8,
          "midi": 72,
          "name": "C5",
          "ticks": 11238,
          "time": 130.67441860465115,
          "velocity": 0.14173228346456693
        },
        {
          "duration": 0.1046511627907023,
          "durationTicks": 9,
          "midi": 92,
          "name": "G#6",
          "ticks": 11247,
          "time": 130.77906976744185,
          "velocity": 0.14173228346456693
        },
        {
          "duration": 0.17441860465115155,
          "durationTicks": 15,
          "midi": 75,
          "name": "D#5",
          "ticks": 11253,
          "time": 130.84883720930233,
          "velocity": 0.13385826771653545
        },
        {
          "duration": 0.11627906976744384,
          "durationTicks": 10,
          "midi": 72,
          "name": "C5",
          "ticks": 11256,
          "time": 130.88372093023256,
          "velocity": 0.13385826771653545
        },
        {
          "duration": 0.25581395348837077,
          "durationTicks": 22,
          "midi": 80,
          "name": "G#5",
          "ticks": 11256,
          "time": 130.88372093023256,
          "velocity": 0.33070866141732286
        },
        {
          "duration": 0.9302325581395223,
          "durationTicks": 80,
          "midi": 85,
          "name": "C#6",
          "ticks": 11264,
          "time": 130.97674418604652,
          "velocity": 0.3543307086614173
        },
        {
          "duration": 0.6162790697674438,
          "durationTicks": 53,
          "midi": 73,
          "name": "C#5",
          "ticks": 11266,
          "time": 131,
          "velocity": 0.2440944881889764
        },
        {
          "duration": 0.34883720930233153,
          "durationTicks": 30,
          "midi": 75,
          "name": "D#5",
          "ticks": 11281,
          "time": 131.17441860465115,
          "velocity": 0.15748031496062992
        },
        {
          "duration": 0.11627906976744384,
          "durationTicks": 10,
          "midi": 65,
          "name": "F4",
          "ticks": 11299,
          "time": 131.38372093023256,
          "velocity": 0.13385826771653545
        },
        {
          "duration": 0.8488372093023315,
          "durationTicks": 73,
          "midi": 65,
          "name": "F4",
          "ticks": 11312,
          "time": 131.53488372093022,
          "velocity": 0.25196850393700787
        },
        {
          "duration": 0.023255813953483084,
          "durationTicks": 2,
          "midi": 72,
          "name": "C5",
          "ticks": 11319,
          "time": 131.61627906976744,
          "velocity": 0.25196850393700787
        },
        {
          "duration": 0.3953488372092977,
          "durationTicks": 34,
          "midi": 68,
          "name": "G#4",
          "ticks": 11320,
          "time": 131.62790697674419,
          "velocity": 0.14960629921259844
        },
        {
          "duration": 3.3488372093023315,
          "durationTicks": 288,
          "midi": 73,
          "name": "C#5",
          "ticks": 11322,
          "time": 131.65116279069767,
          "velocity": 0.3858267716535433
        },
        {
          "duration": 0.08139534883721922,
          "durationTicks": 7,
          "midi": 81,
          "name": "A5",
          "ticks": 11323,
          "time": 131.6627906976744,
          "velocity": 0.11023622047244094
        },
        {
          "duration": 0.25581395348837077,
          "durationTicks": 22,
          "midi": 80,
          "name": "G#5",
          "ticks": 11364,
          "time": 132.13953488372093,
          "velocity": 0.11811023622047244
        },
        {
          "duration": 0.08139534883721922,
          "durationTicks": 7,
          "midi": 68,
          "name": "G#4",
          "ticks": 11367,
          "time": 132.17441860465115,
          "velocity": 0.07874015748031496
        },
        {
          "duration": 0.13953488372092693,
          "durationTicks": 12,
          "midi": 68,
          "name": "G#4",
          "ticks": 11384,
          "time": 132.37209302325581,
          "velocity": 0.11811023622047244
        },
        {
          "duration": 0.04651162790696617,
          "durationTicks": 4,
          "midi": 92,
          "name": "G#6",
          "ticks": 11393,
          "time": 132.47674418604652,
          "velocity": 0.09448818897637795
        },
        {
          "duration": 0.08139534883721922,
          "durationTicks": 7,
          "midi": 95,
          "name": "B6",
          "ticks": 11396,
          "time": 132.51162790697674,
          "velocity": 0.09448818897637795
        },
        {
          "duration": 0.48837209302325846,
          "durationTicks": 42,
          "midi": 65,
          "name": "F4",
          "ticks": 11398,
          "time": 132.53488372093022,
          "velocity": 0.1732283464566929
        },
        {
          "duration": 0.12790697674418539,
          "durationTicks": 11,
          "midi": 80,
          "name": "G#5",
          "ticks": 11402,
          "time": 132.58139534883722,
          "velocity": 0.1732283464566929
        },
        {
          "duration": 0.6046511627907023,
          "durationTicks": 52,
          "midi": 68,
          "name": "G#4",
          "ticks": 11406,
          "time": 132.62790697674419,
          "velocity": 0.15748031496062992
        },
        {
          "duration": 0.04651162790699459,
          "durationTicks": 4,
          "midi": 92,
          "name": "G#6",
          "ticks": 11430,
          "time": 132.90697674418604,
          "velocity": 0.10236220472440945
        },
        {
          "duration": 0.2906976744186238,
          "durationTicks": 25,
          "midi": 78,
          "name": "F#5",
          "ticks": 11443,
          "time": 133.0581395348837,
          "velocity": 0.2755905511811024
        },
        {
          "duration": 0.034883720930224626,
          "durationTicks": 3,
          "midi": 92,
          "name": "G#6",
          "ticks": 11465,
          "time": 133.3139534883721,
          "velocity": 0.08661417322834646
        },
        {
          "duration": 0.08139534883721922,
          "durationTicks": 7,
          "midi": 80,
          "name": "G#5",
          "ticks": 11475,
          "time": 133.43023255813952,
          "velocity": 0.09448818897637795
        },
        {
          "duration": 0.06976744186044925,
          "durationTicks": 6,
          "midi": 78,
          "name": "F#5",
          "ticks": 11477,
          "time": 133.45348837209303,
          "velocity": 0.08661417322834646
        },
        {
          "duration": 0.3604651162790731,
          "durationTicks": 31,
          "midi": 83,
          "name": "B5",
          "ticks": 11630,
          "time": 135.2325581395349,
          "velocity": 0.3228346456692913
        },
        {
          "duration": 0.034883720930224626,
          "durationTicks": 3,
          "midi": 51,
          "name": "D#3",
          "ticks": 11812,
          "time": 137.34883720930233,
          "velocity": 0.5275590551181102
        },
        {
          "duration": 0.15116279069766847,
          "durationTicks": 13,
          "midi": 59,
          "name": "B3",
          "ticks": 11814,
          "time": 137.37209302325581,
          "velocity": 0.2125984251968504
        },
        {
          "duration": 0.45348837209303383,
          "durationTicks": 39,
          "midi": 64,
          "name": "E4",
          "ticks": 11816,
          "time": 137.3953488372093,
          "velocity": 0.5748031496062992
        },
        {
          "duration": 0.023255813953483084,
          "durationTicks": 2,
          "midi": 50,
          "name": "D3",
          "ticks": 11817,
          "time": 137.40697674418604,
          "velocity": 0.41732283464566927
        },
        {
          "duration": 0.05813953488370771,
          "durationTicks": 5,
          "midi": 52,
          "name": "E3",
          "ticks": 11821,
          "time": 137.45348837209303,
          "velocity": 0.33070866141732286
        },
        {
          "duration": 0.023255813953483084,
          "durationTicks": 2,
          "midi": 51,
          "name": "D#3",
          "ticks": 11826,
          "time": 137.51162790697674,
          "velocity": 0.33858267716535434
        },
        {
          "duration": 0.034883720930224626,
          "durationTicks": 3,
          "midi": 37,
          "name": "C#2",
          "ticks": 11831,
          "time": 137.56976744186048,
          "velocity": 0.1968503937007874
        },
        {
          "duration": 1.3604651162790447,
          "durationTicks": 117,
          "midi": 52,
          "name": "E3",
          "ticks": 11831,
          "time": 137.56976744186048,
          "velocity": 0.4330708661417323
        },
        {
          "duration": 0.7093023255813762,
          "durationTicks": 61,
          "midi": 59,
          "name": "B3",
          "ticks": 11831,
          "time": 137.56976744186048,
          "velocity": 0.2125984251968504
        },
        {
          "duration": 1.4186046511627808,
          "durationTicks": 122,
          "midi": 67,
          "name": "G4",
          "ticks": 11837,
          "time": 137.63953488372093,
          "velocity": 0.4645669291338583
        },
        {
          "duration": 0.034883720930224626,
          "durationTicks": 3,
          "midi": 40,
          "name": "E2",
          "ticks": 11863,
          "time": 137.9418604651163,
          "velocity": 0.09448818897637795
        },
        {
          "duration": 7.604651162790702,
          "durationTicks": 654,
          "midi": 59,
          "name": "B3",
          "ticks": 11899,
          "time": 138.36046511627907,
          "velocity": 0.5118110236220472
        },
        {
          "duration": 0.3139534883720785,
          "durationTicks": 27,
          "midi": 40,
          "name": "E2",
          "ticks": 11919,
          "time": 138.59302325581396,
          "velocity": 0.12598425196850394
        },
        {
          "duration": 0.16279069767441,
          "durationTicks": 14,
          "midi": 86,
          "name": "D6",
          "ticks": 11919,
          "time": 138.59302325581396,
          "velocity": 0.10236220472440945
        },
        {
          "duration": 0.3139534883721069,
          "durationTicks": 27,
          "midi": 95,
          "name": "B6",
          "ticks": 11936,
          "time": 138.7906976744186,
          "velocity": 0.14960629921259844
        },
        {
          "duration": 0.06976744186047767,
          "durationTicks": 6,
          "midi": 86,
          "name": "D6",
          "ticks": 11945,
          "time": 138.8953488372093,
          "velocity": 0.09448818897637795
        },
        {
          "duration": 0.9883720930232585,
          "durationTicks": 85,
          "midi": 64,
          "name": "E4",
          "ticks": 11950,
          "time": 138.95348837209303,
          "velocity": 0.31496062992125984
        },
        {
          "duration": 0.15116279069766847,
          "durationTicks": 13,
          "midi": 52,
          "name": "E3",
          "ticks": 11954,
          "time": 139,
          "velocity": 0.14960629921259844
        },
        {
          "duration": 0.2674418604651123,
          "durationTicks": 23,
          "midi": 67,
          "name": "G4",
          "ticks": 11961,
          "time": 139.08139534883722,
          "velocity": 0.33070866141732286
        },
        {
          "duration": 0.17441860465117998,
          "durationTicks": 15,
          "midi": 95,
          "name": "B6",
          "ticks": 11968,
          "time": 139.1627906976744,
          "velocity": 0.1968503937007874
        },
        {
          "duration": 0.3139534883721069,
          "durationTicks": 27,
          "midi": 52,
          "name": "E3",
          "ticks": 11969,
          "time": 139.17441860465115,
          "velocity": 0.2677165354330709
        },
        {
          "duration": 0.05813953488373613,
          "durationTicks": 5,
          "midi": 78,
          "name": "F#5",
          "ticks": 11969,
          "time": 139.17441860465115,
          "velocity": 0.07086614173228346
        },
        {
          "duration": 0.1046511627907023,
          "durationTicks": 9,
          "midi": 86,
          "name": "D6",
          "ticks": 11970,
          "time": 139.1860465116279,
          "velocity": 0.14173228346456693
        },
        {
          "duration": 0.09302325581396076,
          "durationTicks": 8,
          "midi": 91,
          "name": "G6",
          "ticks": 11978,
          "time": 139.27906976744185,
          "velocity": 0.07086614173228346
        },
        {
          "duration": 0.19767441860463464,
          "durationTicks": 17,
          "midi": 78,
          "name": "F#5",
          "ticks": 11982,
          "time": 139.32558139534885,
          "velocity": 0.11811023622047244
        },
        {
          "duration": 0.11627906976744384,
          "durationTicks": 10,
          "midi": 95,
          "name": "B6",
          "ticks": 11984,
          "time": 139.34883720930233,
          "velocity": 0.2125984251968504
        },
        {
          "duration": 0.08139534883721922,
          "durationTicks": 7,
          "midi": 98,
          "name": "D7",
          "ticks": 11986,
          "time": 139.37209302325581,
          "velocity": 0.14960629921259844
        },
        {
          "duration": 0.034883720930224626,
          "durationTicks": 3,
          "midi": 67,
          "name": "G4",
          "ticks": 11987,
          "time": 139.38372093023256,
          "velocity": 0.07086614173228346
        },
        {
          "duration": 0.09302325581396076,
          "durationTicks": 8,
          "midi": 88,
          "name": "E6",
          "ticks": 11987,
          "time": 139.38372093023256,
          "velocity": 0.15748031496062992
        },
        {
          "duration": 0.03488372093025305,
          "durationTicks": 3,
          "midi": 86,
          "name": "D6",
          "ticks": 11989,
          "time": 139.40697674418604,
          "velocity": 0.11023622047244094
        },
        {
          "duration": 0.2093023255814046,
          "durationTicks": 18,
          "midi": 67,
          "name": "G4",
          "ticks": 11991,
          "time": 139.43023255813952,
          "velocity": 0.3779527559055118
        },
        {
          "duration": 0.034883720930224626,
          "durationTicks": 3,
          "midi": 91,
          "name": "G6",
          "ticks": 11992,
          "time": 139.4418604651163,
          "velocity": 0.11023622047244094
        },
        {
          "duration": 0.04651162790696617,
          "durationTicks": 4,
          "midi": 86,
          "name": "D6",
          "ticks": 11994,
          "time": 139.46511627906978,
          "velocity": 0.10236220472440945
        },
        {
          "duration": 0.22093023255814614,
          "durationTicks": 19,
          "midi": 52,
          "name": "E3",
          "ticks": 11997,
          "time": 139.5,
          "velocity": 0.1968503937007874
        },
        {
          "duration": 0.05813953488373613,
          "durationTicks": 5,
          "midi": 88,
          "name": "E6",
          "ticks": 11998,
          "time": 139.51162790697674,
          "velocity": 0.2047244094488189
        },
        {
          "duration": 0.06976744186047767,
          "durationTicks": 6,
          "midi": 91,
          "name": "G6",
          "ticks": 11999,
          "time": 139.52325581395348,
          "velocity": 0.1732283464566929
        },
        {
          "duration": 0.6279069767441854,
          "durationTicks": 54,
          "midi": 95,
          "name": "B6",
          "ticks": 12000,
          "time": 139.53488372093022,
          "velocity": 0.25196850393700787
        },
        {
          "duration": 0.034883720930224626,
          "durationTicks": 3,
          "midi": 40,
          "name": "E2",
          "ticks": 12003,
          "time": 139.56976744186048,
          "velocity": 0.07086614173228346
        },
        {
          "duration": 0.05813953488370771,
          "durationTicks": 5,
          "midi": 86,
          "name": "D6",
          "ticks": 12003,
          "time": 139.56976744186048,
          "velocity": 0.12598425196850394
        },
        {
          "duration": 0.30232558139533694,
          "durationTicks": 26,
          "midi": 98,
          "name": "D7",
          "ticks": 12003,
          "time": 139.56976744186048,
          "velocity": 0.1889763779527559
        },
        {
          "duration": 0.09302325581396076,
          "durationTicks": 8,
          "midi": 88,
          "name": "E6",
          "ticks": 12006,
          "time": 139.6046511627907,
          "velocity": 0.16535433070866143
        },
        {
          "duration": 0.06976744186047767,
          "durationTicks": 6,
          "midi": 86,
          "name": "D6",
          "ticks": 12010,
          "time": 139.65116279069767,
          "velocity": 0.16535433070866143
        },
        {
          "duration": 0.34883720930233153,
          "durationTicks": 30,
          "midi": 67,
          "name": "G4",
          "ticks": 12011,
          "time": 139.6627906976744,
          "velocity": 0.4094488188976378
        },
        {
          "duration": 0.18604651162792152,
          "durationTicks": 16,
          "midi": 78,
          "name": "F#5",
          "ticks": 12011,
          "time": 139.6627906976744,
          "velocity": 0.1732283464566929
        },
        {
          "duration": 0.034883720930224626,
          "durationTicks": 3,
          "midi": 91,
          "name": "G6",
          "ticks": 12017,
          "time": 139.7325581395349,
          "velocity": 0.11023622047244094
        },
        {
          "duration": 0.17441860465117998,
          "durationTicks": 15,
          "midi": 52,
          "name": "E3",
          "ticks": 12023,
          "time": 139.80232558139534,
          "velocity": 0.2755905511811024
        },
        {
          "duration": 0.06976744186044925,
          "durationTicks": 6,
          "midi": 40,
          "name": "E2",
          "ticks": 12026,
          "time": 139.8372093023256,
          "velocity": 0.16535433070866143
        },
        {
          "duration": 0.11627906976744384,
          "durationTicks": 10,
          "midi": 86,
          "name": "D6",
          "ticks": 12027,
          "time": 139.84883720930233,
          "velocity": 0.12598425196850394
        },
        {
          "duration": 0.5,
          "durationTicks": 43,
          "midi": 40,
          "name": "E2",
          "ticks": 12033,
          "time": 139.91860465116278,
          "velocity": 0.1968503937007874
        },
        {
          "duration": 0.4186046511628092,
          "durationTicks": 36,
          "midi": 88,
          "name": "E6",
          "ticks": 12034,
          "time": 139.93023255813952,
          "velocity": 0.2283464566929134
        },
        {
          "duration": 0.09302325581396076,
          "durationTicks": 8,
          "midi": 98,
          "name": "D7",
          "ticks": 12034,
          "time": 139.93023255813952,
          "velocity": 0.15748031496062992
        },
        {
          "duration": 0.1860465116278931,
          "durationTicks": 16,
          "midi": 86,
          "name": "D6",
          "ticks": 12038,
          "time": 139.97674418604652,
          "velocity": 0.18110236220472442
        },
        {
          "duration": 0.17441860465115155,
          "durationTicks": 15,
          "midi": 78,
          "name": "F#5",
          "ticks": 12039,
          "time": 139.98837209302326,
          "velocity": 0.1968503937007874
        },
        {
          "duration": 2.197674418604663,
          "durationTicks": 189,
          "midi": 52,
          "name": "E3",
          "ticks": 12040,
          "time": 140,
          "velocity": 0.49606299212598426
        },
        {
          "duration": 0.034883720930224626,
          "durationTicks": 3,
          "midi": 68,
          "name": "G#4",
          "ticks": 12041,
          "time": 140.01162790697674,
          "velocity": 0.25984251968503935
        },
        {
          "duration": 0.03488372093025305,
          "durationTicks": 3,
          "midi": 67,
          "name": "G4",
          "ticks": 12044,
          "time": 140.04651162790697,
          "velocity": 0.14173228346456693
        },
        {
          "duration": 0.13953488372092693,
          "durationTicks": 12,
          "midi": 98,
          "name": "D7",
          "ticks": 12046,
          "time": 140.06976744186048,
          "velocity": 0.1889763779527559
        },
        {
          "duration": 0.1046511627907023,
          "durationTicks": 9,
          "midi": 67,
          "name": "G4",
          "ticks": 12049,
          "time": 140.1046511627907,
          "velocity": 0.4094488188976378
        },
        {
          "duration": 0.04651162790696617,
          "durationTicks": 4,
          "midi": 92,
          "name": "G#6",
          "ticks": 12050,
          "time": 140.11627906976744,
          "velocity": 0.11023622047244094
        },
        {
          "duration": 0.12790697674418539,
          "durationTicks": 11,
          "midi": 91,
          "name": "G6",
          "ticks": 12052,
          "time": 140.13953488372093,
          "velocity": 0.14173228346456693
        },
        {
          "duration": 0.4767441860465169,
          "durationTicks": 41,
          "midi": 95,
          "name": "B6",
          "ticks": 12056,
          "time": 140.1860465116279,
          "velocity": 0.2992125984251969
        },
        {
          "duration": 0.023255813953483084,
          "durationTicks": 2,
          "midi": 68,
          "name": "G#4",
          "ticks": 12058,
          "time": 140.2093023255814,
          "velocity": 0.25984251968503935
        },
        {
          "duration": 0.1046511627907023,
          "durationTicks": 9,
          "midi": 86,
          "name": "D6",
          "ticks": 12059,
          "time": 140.22093023255815,
          "velocity": 0.14960629921259844
        },
        {
          "duration": 0.9651162790697754,
          "durationTicks": 83,
          "midi": 67,
          "name": "G4",
          "ticks": 12060,
          "time": 140.2325581395349,
          "velocity": 0.5433070866141733
        },
        {
          "duration": 0.9186046511627808,
          "durationTicks": 79,
          "midi": 98,
          "name": "D7",
          "ticks": 12061,
          "time": 140.24418604651163,
          "velocity": 0.2204724409448819
        },
        {
          "duration": 0.04651162790696617,
          "durationTicks": 4,
          "midi": 93,
          "name": "A6",
          "ticks": 12062,
          "time": 140.25581395348837,
          "velocity": 0.07874015748031496
        },
        {
          "duration": 0.12790697674418539,
          "durationTicks": 11,
          "midi": 78,
          "name": "F#5",
          "ticks": 12065,
          "time": 140.2906976744186,
          "velocity": 0.23622047244094488
        },
        {
          "duration": 0.04651162790699459,
          "durationTicks": 4,
          "midi": 91,
          "name": "G6",
          "ticks": 12066,
          "time": 140.30232558139534,
          "velocity": 0.11023622047244094
        },
        {
          "duration": 0.09302325581396076,
          "durationTicks": 8,
          "midi": 86,
          "name": "D6",
          "ticks": 12070,
          "time": 140.34883720930233,
          "velocity": 0.14173228346456693
        },
        {
          "duration": 0.03488372093025305,
          "durationTicks": 3,
          "midi": 87,
          "name": "D#6",
          "ticks": 12076,
          "time": 140.41860465116278,
          "velocity": 0.07086614173228346
        },
        {
          "duration": 0.38372093023255616,
          "durationTicks": 33,
          "midi": 78,
          "name": "F#5",
          "ticks": 12081,
          "time": 140.47674418604652,
          "velocity": 0.2677165354330709
        },
        {
          "duration": 0.08139534883721922,
          "durationTicks": 7,
          "midi": 86,
          "name": "D6",
          "ticks": 12084,
          "time": 140.51162790697674,
          "velocity": 0.1968503937007874
        },
        {
          "duration": 0.12790697674418539,
          "durationTicks": 11,
          "midi": 91,
          "name": "G6",
          "ticks": 12089,
          "time": 140.56976744186048,
          "velocity": 0.18110236220472442
        },
        {
          "duration": 0.0813953488371908,
          "durationTicks": 7,
          "midi": 86,
          "name": "D6",
          "ticks": 12092,
          "time": 140.6046511627907,
          "velocity": 0.23622047244094488
        },
        {
          "duration": 0.3720930232558146,
          "durationTicks": 32,
          "midi": 95,
          "name": "B6",
          "ticks": 12100,
          "time": 140.69767441860466,
          "velocity": 0.29133858267716534
        },
        {
          "duration": 0.034883720930224626,
          "durationTicks": 3,
          "midi": 101,
          "name": "F7",
          "ticks": 12101,
          "time": 140.7093023255814,
          "velocity": 0.07874015748031496
        },
        {
          "duration": 0.06976744186044925,
          "durationTicks": 6,
          "midi": 40,
          "name": "E2",
          "ticks": 12103,
          "time": 140.7325581395349,
          "velocity": 0.1889763779527559
        },
        {
          "duration": 0.04651162790699459,
          "durationTicks": 4,
          "midi": 87,
          "name": "D#6",
          "ticks": 12106,
          "time": 140.7674418604651,
          "velocity": 0.16535433070866143
        },
        {
          "duration": 0.04651162790699459,
          "durationTicks": 4,
          "midi": 93,
          "name": "A6",
          "ticks": 12106,
          "time": 140.7674418604651,
          "velocity": 0.11023622047244094
        },
        {
          "duration": 0.03488372093025305,
          "durationTicks": 3,
          "midi": 86,
          "name": "D6",
          "ticks": 12109,
          "time": 140.80232558139534,
          "velocity": 0.1968503937007874
        },
        {
          "duration": 0.08139534883721922,
          "durationTicks": 7,
          "midi": 91,
          "name": "G6",
          "ticks": 12109,
          "time": 140.80232558139534,
          "velocity": 0.16535433070866143
        },
        {
          "duration": 0.04651162790696617,
          "durationTicks": 4,
          "midi": 40,
          "name": "E2",
          "ticks": 12110,
          "time": 140.8139534883721,
          "velocity": 0.2047244094488189
        },
        {
          "duration": 0.034883720930224626,
          "durationTicks": 3,
          "midi": 87,
          "name": "D#6",
          "ticks": 12111,
          "time": 140.82558139534885,
          "velocity": 0.08661417322834646
        },
        {
          "duration": 0.034883720930224626,
          "durationTicks": 3,
          "midi": 101,
          "name": "F7",
          "ticks": 12111,
          "time": 140.82558139534885,
          "velocity": 0.08661417322834646
        },
        {
          "duration": 0.09302325581396076,
          "durationTicks": 8,
          "midi": 86,
          "name": "D6",
          "ticks": 12113,
          "time": 140.84883720930233,
          "velocity": 0.2047244094488189
        },
        {
          "duration": 0.5232558139534831,
          "durationTicks": 45,
          "midi": 40,
          "name": "E2",
          "ticks": 12115,
          "time": 140.87209302325581,
          "velocity": 0.2440944881889764
        },
        {
          "duration": 0.034883720930224626,
          "durationTicks": 3,
          "midi": 101,
          "name": "F7",
          "ticks": 12117,
          "time": 140.8953488372093,
          "velocity": 0.09448818897637795
        },
        {
          "duration": 0.2325581395348877,
          "durationTicks": 20,
          "midi": 78,
          "name": "F#5",
          "ticks": 12118,
          "time": 140.90697674418604,
          "velocity": 0.25196850393700787
        },
        {
          "duration": 0.2325581395348877,
          "durationTicks": 20,
          "midi": 93,
          "name": "A6",
          "ticks": 12118,
          "time": 140.90697674418604,
          "velocity": 0.16535433070866143
        },
        {
          "duration": 0.04651162790699459,
          "durationTicks": 4,
          "midi": 87,
          "name": "D#6",
          "ticks": 12119,
          "time": 140.91860465116278,
          "velocity": 0.14173228346456693
        },
        {
          "duration": 0.04651162790696617,
          "durationTicks": 4,
          "midi": 86,
          "name": "D6",
          "ticks": 12122,
          "time": 140.95348837209303,
          "velocity": 0.25196850393700787
        },
        {
          "duration": 0.3139534883720785,
          "durationTicks": 27,
          "midi": 88,
          "name": "E6",
          "ticks": 12123,
          "time": 140.96511627906978,
          "velocity": 0.2992125984251969
        },
        {
          "duration": 0.06976744186047767,
          "durationTicks": 6,
          "midi": 92,
          "name": "G#6",
          "ticks": 12127,
          "time": 141.01162790697674,
          "velocity": 0.13385826771653545
        },
        {
          "duration": 0.09302325581396076,
          "durationTicks": 8,
          "midi": 86,
          "name": "D6",
          "ticks": 12128,
          "time": 141.02325581395348,
          "velocity": 0.14960629921259844
        },
        {
          "duration": 0.05813953488373613,
          "durationTicks": 5,
          "midi": 101,
          "name": "F7",
          "ticks": 12129,
          "time": 141.03488372093022,
          "velocity": 0.07086614173228346
        },
        {
          "duration": 0.09302325581393234,
          "durationTicks": 8,
          "midi": 87,
          "name": "D#6",
          "ticks": 12134,
          "time": 141.09302325581396,
          "velocity": 0.15748031496062992
        },
        {
          "duration": 0.034883720930224626,
          "durationTicks": 3,
          "midi": 92,
          "name": "G#6",
          "ticks": 12134,
          "time": 141.09302325581396,
          "velocity": 0.14173228346456693
        },
        {
          "duration": 0.6046511627907023,
          "durationTicks": 52,
          "midi": 95,
          "name": "B6",
          "ticks": 12134,
          "time": 141.09302325581396,
          "velocity": 0.30708661417322836
        },
        {
          "duration": 0.08139534883721922,
          "durationTicks": 7,
          "midi": 78,
          "name": "F#5",
          "ticks": 12140,
          "time": 141.1627906976744,
          "velocity": 0.2440944881889764
        },
        {
          "duration": 0.09302325581396076,
          "durationTicks": 8,
          "midi": 93,
          "name": "A6",
          "ticks": 12141,
          "time": 141.17441860465115,
          "velocity": 0.1732283464566929
        },
        {
          "duration": 0.13953488372092693,
          "durationTicks": 12,
          "midi": 92,
          "name": "G#6",
          "ticks": 12143,
          "time": 141.19767441860466,
          "velocity": 0.14960629921259844
        },
        {
          "duration": 0.23255813953485927,
          "durationTicks": 20,
          "midi": 98,
          "name": "D7",
          "ticks": 12143,
          "time": 141.19767441860466,
          "velocity": 0.2125984251968504
        },
        {
          "duration": 0.04651162790696617,
          "durationTicks": 4,
          "midi": 67,
          "name": "G4",
          "ticks": 12144,
          "time": 141.2093023255814,
          "velocity": 0.29133858267716534
        },
        {
          "duration": 0.13953488372092693,
          "durationTicks": 12,
          "midi": 87,
          "name": "D#6",
          "ticks": 12144,
          "time": 141.2093023255814,
          "velocity": 0.1732283464566929
        },
        {
          "duration": 0.023255813953483084,
          "durationTicks": 2,
          "midi": 68,
          "name": "G#4",
          "ticks": 12148,
          "time": 141.25581395348837,
          "velocity": 0.2992125984251969
        },
        {
          "duration": 0.15116279069766847,
          "durationTicks": 13,
          "midi": 76,
          "name": "E5",
          "ticks": 12149,
          "time": 141.2674418604651,
          "velocity": 0.23622047244094488
        },
        {
          "duration": 0.9883720930232585,
          "durationTicks": 85,
          "midi": 78,
          "name": "F#5",
          "ticks": 12149,
          "time": 141.2674418604651,
          "velocity": 0.33858267716535434
        },
        {
          "duration": 0.45348837209303383,
          "durationTicks": 39,
          "midi": 64,
          "name": "E4",
          "ticks": 12150,
          "time": 141.27906976744185,
          "velocity": 0.49606299212598426
        },
        {
          "duration": 0.13953488372092693,
          "durationTicks": 12,
          "midi": 67,
          "name": "G4",
          "ticks": 12150,
          "time": 141.27906976744185,
          "velocity": 0.3937007874015748
        },
        {
          "duration": 0.7093023255814046,
          "durationTicks": 61,
          "midi": 88,
          "name": "E6",
          "ticks": 12151,
          "time": 141.2906976744186,
          "velocity": 0.2440944881889764
        },
        {
          "duration": 0.04651162790699459,
          "durationTicks": 4,
          "midi": 93,
          "name": "A6",
          "ticks": 12152,
          "time": 141.30232558139534,
          "velocity": 0.1732283464566929
        },
        {
          "duration": 0.10465116279067388,
          "durationTicks": 9,
          "midi": 86,
          "name": "D6",
          "ticks": 12154,
          "time": 141.32558139534885,
          "velocity": 0.2283464566929134
        },
        {
          "duration": 0.034883720930224626,
          "durationTicks": 3,
          "midi": 91,
          "name": "G6",
          "ticks": 12156,
          "time": 141.34883720930233,
          "velocity": 0.16535433070866143
        },
        {
          "duration": 0.03488372093025305,
          "durationTicks": 3,
          "midi": 91,
          "name": "G6",
          "ticks": 12161,
          "time": 141.40697674418604,
          "velocity": 0.13385826771653545
        },
        {
          "duration": 0.17441860465117998,
          "durationTicks": 15,
          "midi": 92,
          "name": "G#6",
          "ticks": 12161,
          "time": 141.40697674418604,
          "velocity": 0.1732283464566929
        },
        {
          "duration": 0.023255813953511506,
          "durationTicks": 2,
          "midi": 68,
          "name": "G#4",
          "ticks": 12162,
          "time": 141.41860465116278,
          "velocity": 0.25984251968503935
        },
        {
          "duration": 0.17441860465117998,
          "durationTicks": 15,
          "midi": 87,
          "name": "D#6",
          "ticks": 12162,
          "time": 141.41860465116278,
          "velocity": 0.1732283464566929
        },
        {
          "duration": 0.32558139534882,
          "durationTicks": 28,
          "midi": 67,
          "name": "G4",
          "ticks": 12164,
          "time": 141.4418604651163,
          "velocity": 0.4094488188976378
        },
        {
          "duration": 0.04651162790696617,
          "durationTicks": 4,
          "midi": 82,
          "name": "A#5",
          "ticks": 12164,
          "time": 141.4418604651163,
          "velocity": 0.07874015748031496
        },
        {
          "duration": 0.05813953488370771,
          "durationTicks": 5,
          "midi": 86,
          "name": "D6",
          "ticks": 12164,
          "time": 141.4418604651163,
          "velocity": 0.1732283464566929
        },
        {
          "duration": 0.12790697674418539,
          "durationTicks": 11,
          "midi": 40,
          "name": "E2",
          "ticks": 12166,
          "time": 141.46511627906978,
          "velocity": 0.23622047244094488
        },
        {
          "duration": 0.3139534883720785,
          "durationTicks": 27,
          "midi": 74,
          "name": "D5",
          "ticks": 12167,
          "time": 141.47674418604652,
          "velocity": 0.14960629921259844
        },
        {
          "duration": 0.18604651162792152,
          "durationTicks": 16,
          "midi": 91,
          "name": "G6",
          "ticks": 12170,
          "time": 141.51162790697674,
          "velocity": 0.14960629921259844
        },
        {
          "duration": 0.05813953488370771,
          "durationTicks": 5,
          "midi": 93,
          "name": "A6",
          "ticks": 12175,
          "time": 141.56976744186048,
          "velocity": 0.11811023622047244
        },
        {
          "duration": 0.33720930232559,
          "durationTicks": 29,
          "midi": 40,
          "name": "E2",
          "ticks": 12178,
          "time": 141.6046511627907,
          "velocity": 0.33070866141732286
        },
        {
          "duration": 0.2906976744185954,
          "durationTicks": 25,
          "midi": 87,
          "name": "D#6",
          "ticks": 12179,
          "time": 141.61627906976744,
          "velocity": 0.2047244094488189
        },
        {
          "duration": 0.18604651162792152,
          "durationTicks": 16,
          "midi": 93,
          "name": "A6",
          "ticks": 12183,
          "time": 141.6627906976744,
          "velocity": 0.1968503937007874
        },
        {
          "duration": 0.04651162790696617,
          "durationTicks": 4,
          "midi": 92,
          "name": "G#6",
          "ticks": 12186,
          "time": 141.69767441860466,
          "velocity": 0.14173228346456693
        },
        {
          "duration": 0.2906976744185954,
          "durationTicks": 25,
          "midi": 95,
          "name": "B6",
          "ticks": 12190,
          "time": 141.74418604651163,
          "velocity": 0.2755905511811024
        },
        {
          "duration": 0.023255813953483084,
          "durationTicks": 2,
          "midi": 68,
          "name": "G#4",
          "ticks": 12192,
          "time": 141.7674418604651,
          "velocity": 0.3543307086614173
        },
        {
          "duration": 0.09302325581396076,
          "durationTicks": 8,
          "midi": 67,
          "name": "G4",
          "ticks": 12194,
          "time": 141.7906976744186,
          "velocity": 0.3858267716535433
        },
        {
          "duration": 0.12790697674418539,
          "durationTicks": 11,
          "midi": 76,
          "name": "E5",
          "ticks": 12194,
          "time": 141.7906976744186,
          "velocity": 0.2125984251968504
        },
        {
          "duration": 0.05813953488373613,
          "durationTicks": 5,
          "midi": 92,
          "name": "G#6",
          "ticks": 12194,
          "time": 141.7906976744186,
          "velocity": 0.12598425196850394
        },
        {
          "duration": 0.08139534883721922,
          "durationTicks": 7,
          "midi": 68,
          "name": "G#4",
          "ticks": 12202,
          "time": 141.88372093023256,
          "velocity": 0.3779527559055118
        },
        {
          "duration": 0.04651162790696617,
          "durationTicks": 4,
          "midi": 79,
          "name": "G5",
          "ticks": 12202,
          "time": 141.88372093023256,
          "velocity": 0.12598425196850394
        },
        {
          "duration": 0.2906976744185954,
          "durationTicks": 25,
          "midi": 93,
          "name": "A6",
          "ticks": 12202,
          "time": 141.88372093023256,
          "velocity": 0.14960629921259844
        },
        {
          "duration": 0.05813953488373613,
          "durationTicks": 5,
          "midi": 86,
          "name": "D6",
          "ticks": 12204,
          "time": 141.90697674418604,
          "velocity": 0.12598425196850394
        },
        {
          "duration": 0.04651162790699459,
          "durationTicks": 4,
          "midi": 92,
          "name": "G#6",
          "ticks": 12205,
          "time": 141.91860465116278,
          "velocity": 0.11023622047244094
        },
        {
          "duration": 1.0348837209302246,
          "durationTicks": 89,
          "midi": 76,
          "name": "E5",
          "ticks": 12207,
          "time": 141.9418604651163,
          "velocity": 0.3464566929133858
        },
        {
          "duration": 0.04651162790696617,
          "durationTicks": 4,
          "midi": 40,
          "name": "E2",
          "ticks": 12208,
          "time": 141.95348837209303,
          "velocity": 0.2755905511811024
        },
        {
          "duration": 0.06976744186044925,
          "durationTicks": 6,
          "midi": 79,
          "name": "G5",
          "ticks": 12208,
          "time": 141.95348837209303,
          "velocity": 0.16535433070866143
        },
        {
          "duration": 0.034883720930224626,
          "durationTicks": 3,
          "midi": 81,
          "name": "A5",
          "ticks": 12208,
          "time": 141.95348837209303,
          "velocity": 0.11023622047244094
        },
        {
          "duration": 0.10465116279067388,
          "durationTicks": 9,
          "midi": 87,
          "name": "D#6",
          "ticks": 12208,
          "time": 141.95348837209303,
          "velocity": 0.15748031496062992
        },
        {
          "duration": 0.13953488372092693,
          "durationTicks": 12,
          "midi": 67,
          "name": "G4",
          "ticks": 12209,
          "time": 141.96511627906978,
          "velocity": 0.3937007874015748
        },
        {
          "duration": 0.05813953488370771,
          "durationTicks": 5,
          "midi": 73,
          "name": "C#5",
          "ticks": 12212,
          "time": 142,
          "velocity": 0.09448818897637795
        },
        {
          "duration": 0.25581395348837077,
          "durationTicks": 22,
          "midi": 40,
          "name": "E2",
          "ticks": 12213,
          "time": 142.01162790697674,
          "velocity": 0.2755905511811024
        },
        {
          "duration": 0.08139534883721922,
          "durationTicks": 7,
          "midi": 91,
          "name": "G6",
          "ticks": 12214,
          "time": 142.02325581395348,
          "velocity": 0.15748031496062992
        },
        {
          "duration": 0.13953488372095535,
          "durationTicks": 12,
          "midi": 74,
          "name": "D5",
          "ticks": 12217,
          "time": 142.0581395348837,
          "velocity": 0.2047244094488189
        },
        {
          "duration": 0.03488372093025305,
          "durationTicks": 3,
          "midi": 81,
          "name": "A5",
          "ticks": 12217,
          "time": 142.0581395348837,
          "velocity": 0.14960629921259844
        },
        {
          "duration": 0.05813953488370771,
          "durationTicks": 5,
          "midi": 95,
          "name": "B6",
          "ticks": 12218,
          "time": 142.06976744186048,
          "velocity": 0.2992125984251969
        },
        {
          "duration": 0.05813953488370771,
          "durationTicks": 5,
          "midi": 87,
          "name": "D#6",
          "ticks": 12219,
          "time": 142.08139534883722,
          "velocity": 0.13385826771653545
        },
        {
          "duration": 0.15116279069766847,
          "durationTicks": 13,
          "midi": 68,
          "name": "G#4",
          "ticks": 12221,
          "time": 142.1046511627907,
          "velocity": 0.4251968503937008
        },
        {
          "duration": 0.04651162790696617,
          "durationTicks": 4,
          "midi": 91,
          "name": "G6",
          "ticks": 12224,
          "time": 142.13953488372093,
          "velocity": 0.09448818897637795
        },
        {
          "duration": 0.7209302325581461,
          "durationTicks": 62,
          "midi": 95,
          "name": "B6",
          "ticks": 12225,
          "time": 142.15116279069767,
          "velocity": 0.3779527559055118
        },
        {
          "duration": 0.09302325581396076,
          "durationTicks": 8,
          "midi": 79,
          "name": "G5",
          "ticks": 12227,
          "time": 142.17441860465115,
          "velocity": 0.2283464566929134
        },
        {
          "duration": 0.03488372093025305,
          "durationTicks": 3,
          "midi": 81,
          "name": "A5",
          "ticks": 12227,
          "time": 142.17441860465115,
          "velocity": 0.11811023622047244
        },
        {
          "duration": 0.023255813953483084,
          "durationTicks": 2,
          "midi": 51,
          "name": "D#3",
          "ticks": 12229,
          "time": 142.19767441860466,
          "velocity": 0.29133858267716534
        },
        {
          "duration": 1.8139534883720785,
          "durationTicks": 156,
          "midi": 52,
          "name": "E3",
          "ticks": 12231,
          "time": 142.22093023255815,
          "velocity": 0.4645669291338583
        },
        {
          "duration": 0.13953488372092693,
          "durationTicks": 12,
          "midi": 98,
          "name": "D7",
          "ticks": 12233,
          "time": 142.24418604651163,
          "velocity": 0.1889763779527559
        },
        {
          "duration": 0.034883720930224626,
          "durationTicks": 3,
          "midi": 67,
          "name": "G4",
          "ticks": 12234,
          "time": 142.25581395348837,
          "velocity": 0.3228346456692913
        },
        {
          "duration": 0.034883720930224626,
          "durationTicks": 3,
          "midi": 87,
          "name": "D#6",
          "ticks": 12234,
          "time": 142.25581395348837,
          "velocity": 0.09448818897637795
        },
        {
          "duration": 0.15116279069766847,
          "durationTicks": 13,
          "midi": 93,
          "name": "A6",
          "ticks": 12235,
          "time": 142.2674418604651,
          "velocity": 0.18110236220472442
        },
        {
          "duration": 0.1046511627907023,
          "durationTicks": 9,
          "midi": 68,
          "name": "G#4",
          "ticks": 12237,
          "time": 142.2906976744186,
          "velocity": 0.25984251968503935
        },
        {
          "duration": 0.05813953488370771,
          "durationTicks": 5,
          "midi": 41,
          "name": "F2",
          "ticks": 12239,
          "time": 142.3139534883721,
          "velocity": 0.2283464566929134
        },
        {
          "duration": 0.12790697674418539,
          "durationTicks": 11,
          "midi": 74,
          "name": "D5",
          "ticks": 12240,
          "time": 142.32558139534885,
          "velocity": 0.2047244094488189
        },
        {
          "duration": 0.2906976744185954,
          "durationTicks": 25,
          "midi": 78,
          "name": "F#5",
          "ticks": 12240,
          "time": 142.32558139534885,
          "velocity": 0.30708661417322836
        },
        {
          "duration": 0.06976744186044925,
          "durationTicks": 6,
          "midi": 81,
          "name": "A5",
          "ticks": 12240,
          "time": 142.32558139534885,
          "velocity": 0.18110236220472442
        },
        {
          "duration": 0.8604651162790731,
          "durationTicks": 74,
          "midi": 40,
          "name": "E2",
          "ticks": 12244,
          "time": 142.37209302325581,
          "velocity": 0.36220472440944884
        },
        {
          "duration": 0.034883720930224626,
          "durationTicks": 3,
          "midi": 79,
          "name": "G5",
          "ticks": 12244,
          "time": 142.37209302325581,
          "velocity": 0.18110236220472442
        },
        {
          "duration": 0.023255813953483084,
          "durationTicks": 2,
          "midi": 67,
          "name": "G4",
          "ticks": 12246,
          "time": 142.3953488372093,
          "velocity": 0.25984251968503935
        },
        {
          "duration": 0.05813953488373613,
          "durationTicks": 5,
          "midi": 101,
          "name": "F7",
          "ticks": 12246,
          "time": 142.3953488372093,
          "velocity": 0.09448818897637795
        },
        {
          "duration": 0.03488372093025305,
          "durationTicks": 3,
          "midi": 68,
          "name": "G#4",
          "ticks": 12248,
          "time": 142.41860465116278,
          "velocity": 0.3228346456692913
        },
        {
          "duration": 0.04651162790696617,
          "durationTicks": 4,
          "midi": 93,
          "name": "A6",
          "ticks": 12250,
          "time": 142.4418604651163,
          "velocity": 0.14960629921259844
        },
        {
          "duration": 0.11627906976744384,
          "durationTicks": 10,
          "midi": 67,
          "name": "G4",
          "ticks": 12251,
          "time": 142.45348837209303,
          "velocity": 0.3779527559055118
        },
        {
          "duration": 0.06976744186044925,
          "durationTicks": 6,
          "midi": 73,
          "name": "C#5",
          "ticks": 12251,
          "time": 142.45348837209303,
          "velocity": 0.14173228346456693
        },
        {
          "duration": 0.13953488372092693,
          "durationTicks": 12,
          "midi": 98,
          "name": "D7",
          "ticks": 12252,
          "time": 142.46511627906978,
          "velocity": 0.2047244094488189
        },
        {
          "duration": 0.11627906976744384,
          "durationTicks": 10,
          "midi": 86,
          "name": "D6",
          "ticks": 12255,
          "time": 142.5,
          "velocity": 0.1732283464566929
        },
        {
          "duration": 0.05813953488373613,
          "durationTicks": 5,
          "midi": 87,
          "name": "D#6",
          "ticks": 12256,
          "time": 142.51162790697674,
          "velocity": 0.11023622047244094
        },
        {
          "duration": 0.17441860465117998,
          "durationTicks": 15,
          "midi": 74,
          "name": "D5",
          "ticks": 12257,
          "time": 142.52325581395348,
          "velocity": 0.1732283464566929
        },
        {
          "duration": 0.03488372093025305,
          "durationTicks": 3,
          "midi": 82,
          "name": "A#5",
          "ticks": 12259,
          "time": 142.54651162790697,
          "velocity": 0.13385826771653545
        },
        {
          "duration": 0.06976744186044925,
          "durationTicks": 6,
          "midi": 68,
          "name": "G#4",
          "ticks": 12261,
          "time": 142.56976744186048,
          "velocity": 0.44881889763779526
        },
        {
          "duration": 0.05813953488370771,
          "durationTicks": 5,
          "midi": 93,
          "name": "A6",
          "ticks": 12263,
          "time": 142.59302325581396,
          "velocity": 0.2204724409448819
        },
        {
          "duration": 0.11627906976744384,
          "durationTicks": 10,
          "midi": 101,
          "name": "F7",
          "ticks": 12263,
          "time": 142.59302325581396,
          "velocity": 0.08661417322834646
        },
        {
          "duration": 0.12790697674418539,
          "durationTicks": 11,
          "midi": 79,
          "name": "G5",
          "ticks": 12264,
          "time": 142.6046511627907,
          "velocity": 0.2047244094488189
        },
        {
          "duration": 0.04651162790696617,
          "durationTicks": 4,
          "midi": 92,
          "name": "G#6",
          "ticks": 12264,
          "time": 142.6046511627907,
          "velocity": 0.14173228346456693
        },
        {
          "duration": 0.034883720930224626,
          "durationTicks": 3,
          "midi": 87,
          "name": "D#6",
          "ticks": 12265,
          "time": 142.61627906976744,
          "velocity": 0.14960629921259844
        },
        {
          "duration": 0.18604651162792152,
          "durationTicks": 16,
          "midi": 67,
          "name": "G4",
          "ticks": 12267,
          "time": 142.63953488372093,
          "velocity": 0.4645669291338583
        },
        {
          "duration": 0.09302325581396076,
          "durationTicks": 8,
          "midi": 86,
          "name": "D6",
          "ticks": 12267,
          "time": 142.63953488372093,
          "velocity": 0.1889763779527559
        },
        {
          "duration": 0.03488372093025305,
          "durationTicks": 3,
          "midi": 78,
          "name": "F#5",
          "ticks": 12269,
          "time": 142.6627906976744,
          "velocity": 0.10236220472440945
        },
        {
          "duration": 0.1046511627907023,
          "durationTicks": 9,
          "midi": 87,
          "name": "D#6",
          "ticks": 12269,
          "time": 142.6627906976744,
          "velocity": 0.15748031496062992
        },
        {
          "duration": 0.05813953488373613,
          "durationTicks": 5,
          "midi": 93,
          "name": "A6",
          "ticks": 12270,
          "time": 142.67441860465115,
          "velocity": 0.1732283464566929
        },
        {
          "duration": 0.33720930232559,
          "durationTicks": 29,
          "midi": 98,
          "name": "D7",
          "ticks": 12271,
          "time": 142.6860465116279,
          "velocity": 0.2440944881889764
        },
        {
          "duration": 0.034883720930224626,
          "durationTicks": 3,
          "midi": 82,
          "name": "A#5",
          "ticks": 12272,
          "time": 142.69767441860466,
          "velocity": 0.09448818897637795
        },
        {
          "duration": 0.19767441860466306,
          "durationTicks": 17,
          "midi": 74,
          "name": "D5",
          "ticks": 12276,
          "time": 142.74418604651163,
          "velocity": 0.14960629921259844
        },
        {
          "duration": 0.05813953488373613,
          "durationTicks": 5,
          "midi": 86,
          "name": "D6",
          "ticks": 12277,
          "time": 142.75581395348837,
          "velocity": 0.2677165354330709
        },
        {
          "duration": 0.18604651162792152,
          "durationTicks": 16,
          "midi": 93,
          "name": "A6",
          "ticks": 12277,
          "time": 142.75581395348837,
          "velocity": 0.1889763779527559
        },
        {
          "duration": 0.1046511627907023,
          "durationTicks": 9,
          "midi": 101,
          "name": "F7",
          "ticks": 12277,
          "time": 142.75581395348837,
          "velocity": 0.11811023622047244
        },
        {
          "duration": 0.06976744186047767,
          "durationTicks": 6,
          "midi": 92,
          "name": "G#6",
          "ticks": 12279,
          "time": 142.77906976744185,
          "velocity": 0.13385826771653545
        },
        {
          "duration": 0.43023255813955075,
          "durationTicks": 37,
          "midi": 78,
          "name": "F#5",
          "ticks": 12281,
          "time": 142.80232558139534,
          "velocity": 0.33070866141732286
        },
        {
          "duration": 0.04651162790699459,
          "durationTicks": 4,
          "midi": 81,
          "name": "A5",
          "ticks": 12281,
          "time": 142.80232558139534,
          "velocity": 0.14173228346456693
        },
        {
          "duration": 0.05813953488373613,
          "durationTicks": 5,
          "midi": 87,
          "name": "D#6",
          "ticks": 12281,
          "time": 142.80232558139534,
          "velocity": 0.2047244094488189
        },
        {
          "duration": 0.04651162790696617,
          "durationTicks": 4,
          "midi": 68,
          "name": "G#4",
          "ticks": 12283,
          "time": 142.82558139534885,
          "velocity": 0.4015748031496063
        },
        {
          "duration": 0.09302325581393234,
          "durationTicks": 8,
          "midi": 86,
          "name": "D6",
          "ticks": 12284,
          "time": 142.8372093023256,
          "velocity": 0.25984251968503935
        },
        {
          "duration": 0.24418604651162923,
          "durationTicks": 21,
          "midi": 67,
          "name": "G4",
          "ticks": 12287,
          "time": 142.87209302325581,
          "velocity": 0.48031496062992124
        },
        {
          "duration": 0.09302325581396076,
          "durationTicks": 8,
          "midi": 87,
          "name": "D#6",
          "ticks": 12291,
          "time": 142.91860465116278,
          "velocity": 0.1968503937007874
        },
        {
          "duration": 0.13953488372092693,
          "durationTicks": 12,
          "midi": 92,
          "name": "G#6",
          "ticks": 12293,
          "time": 142.9418604651163,
          "velocity": 0.1889763779527559
        },
        {
          "duration": 0.3604651162790731,
          "durationTicks": 31,
          "midi": 93,
          "name": "A6",
          "ticks": 12294,
          "time": 142.95348837209303,
          "velocity": 0.25196850393700787
        },
        {
          "duration": 0.22093023255814614,
          "durationTicks": 19,
          "midi": 74,
          "name": "D5",
          "ticks": 12296,
          "time": 142.97674418604652,
          "velocity": 0.1732283464566929
        },
        {
          "duration": 0.04651162790696617,
          "durationTicks": 4,
          "midi": 82,
          "name": "A#5",
          "ticks": 12298,
          "time": 143,
          "velocity": 0.12598425196850394
        },
        {
          "duration": 0.18604651162792152,
          "durationTicks": 16,
          "midi": 98,
          "name": "D7",
          "ticks": 12303,
          "time": 143.0581395348837,
          "velocity": 0.2440944881889764
        },
        {
          "duration": 0.05813953488370771,
          "durationTicks": 5,
          "midi": 86,
          "name": "D6",
          "ticks": 12304,
          "time": 143.06976744186048,
          "velocity": 0.18110236220472442
        },
        {
          "duration": 0.5,
          "durationTicks": 43,
          "midi": 95,
          "name": "B6",
          "ticks": 12304,
          "time": 143.06976744186048,
          "velocity": 0.30708661417322836
        },
        {
          "duration": 0.034883720930224626,
          "durationTicks": 3,
          "midi": 92,
          "name": "G#6",
          "ticks": 12308,
          "time": 143.11627906976744,
          "velocity": 0.08661417322834646
        },
        {
          "duration": 0.04651162790696617,
          "durationTicks": 4,
          "midi": 67,
          "name": "G4",
          "ticks": 12309,
          "time": 143.12790697674419,
          "velocity": 0.33070866141732286
        },
        {
          "duration": 0.08139534883721922,
          "durationTicks": 7,
          "midi": 68,
          "name": "G#4",
          "ticks": 12313,
          "time": 143.17441860465115,
          "velocity": 0.41732283464566927
        },
        {
          "duration": 1.6046511627907023,
          "durationTicks": 138,
          "midi": 76,
          "name": "E5",
          "ticks": 12313,
          "time": 143.17441860465115,
          "velocity": 0.23622047244094488
        },
        {
          "duration": 0.24418604651162923,
          "durationTicks": 21,
          "midi": 86,
          "name": "D6",
          "ticks": 12313,
          "time": 143.17441860465115,
          "velocity": 0.1889763779527559
        },
        {
          "duration": 0.12790697674418539,
          "durationTicks": 11,
          "midi": 74,
          "name": "D5",
          "ticks": 12317,
          "time": 143.22093023255815,
          "velocity": 0.13385826771653545
        },
        {
          "duration": 0.05813953488370771,
          "durationTicks": 5,
          "midi": 87,
          "name": "D#6",
          "ticks": 12319,
          "time": 143.24418604651163,
          "velocity": 0.14173228346456693
        },
        {
          "duration": 0.2093023255814046,
          "durationTicks": 18,
          "midi": 40,
          "name": "E2",
          "ticks": 12320,
          "time": 143.25581395348837,
          "velocity": 0.2677165354330709
        },
        {
          "duration": 0.18604651162792152,
          "durationTicks": 16,
          "midi": 67,
          "name": "G4",
          "ticks": 12320,
          "time": 143.25581395348837,
          "velocity": 0.49606299212598426
        },
        {
          "duration": 0.08139534883721922,
          "durationTicks": 7,
          "midi": 78,
          "name": "F#5",
          "ticks": 12320,
          "time": 143.25581395348837,
          "velocity": 0.2125984251968504
        },
        {
          "duration": 0.034883720930224626,
          "durationTicks": 3,
          "midi": 92,
          "name": "G#6",
          "ticks": 12325,
          "time": 143.3139534883721,
          "velocity": 0.13385826771653545
        },
        {
          "duration": 0.19767441860463464,
          "durationTicks": 17,
          "midi": 93,
          "name": "A6",
          "ticks": 12328,
          "time": 143.34883720930233,
          "velocity": 0.25984251968503935
        },
        {
          "duration": 0.24418604651162923,
          "durationTicks": 21,
          "midi": 78,
          "name": "F#5",
          "ticks": 12330,
          "time": 143.37209302325581,
          "velocity": 0.2992125984251969
        },
        {
          "duration": 0.06976744186047767,
          "durationTicks": 6,
          "midi": 91,
          "name": "G6",
          "ticks": 12335,
          "time": 143.43023255813952,
          "velocity": 0.09448818897637795
        },
        {
          "duration": 0.11627906976744384,
          "durationTicks": 10,
          "midi": 74,
          "name": "D5",
          "ticks": 12337,
          "time": 143.45348837209303,
          "velocity": 0.11811023622047244
        },
        {
          "duration": 0.11627906976744384,
          "durationTicks": 10,
          "midi": 86,
          "name": "D6",
          "ticks": 12337,
          "time": 143.45348837209303,
          "velocity": 0.14173228346456693
        },
        {
          "duration": 0.22093023255811772,
          "durationTicks": 19,
          "midi": 67,
          "name": "G4",
          "ticks": 12338,
          "time": 143.46511627906978,
          "velocity": 0.4881889763779528
        },
        {
          "duration": 0.04651162790696617,
          "durationTicks": 4,
          "midi": 40,
          "name": "E2",
          "ticks": 12339,
          "time": 143.47674418604652,
          "velocity": 0.2440944881889764
        },
        {
          "duration": 0.2906976744186238,
          "durationTicks": 25,
          "midi": 98,
          "name": "D7",
          "ticks": 12344,
          "time": 143.53488372093022,
          "velocity": 0.14960629921259844
        },
        {
          "duration": 0.03488372093025305,
          "durationTicks": 3,
          "midi": 87,
          "name": "D#6",
          "ticks": 12346,
          "time": 143.5581395348837,
          "velocity": 0.11811023622047244
        },
        {
          "duration": 0.05813953488373613,
          "durationTicks": 5,
          "midi": 93,
          "name": "A6",
          "ticks": 12346,
          "time": 143.5581395348837,
          "velocity": 0.2204724409448819
        },
        {
          "duration": 0.10465116279067388,
          "durationTicks": 9,
          "midi": 40,
          "name": "E2",
          "ticks": 12347,
          "time": 143.56976744186048,
          "velocity": 0.2283464566929134
        },
        {
          "duration": 0.034883720930224626,
          "durationTicks": 3,
          "midi": 86,
          "name": "D6",
          "ticks": 12351,
          "time": 143.61627906976744,
          "velocity": 0.07086614173228346
        },
        {
          "duration": 0.22093023255814614,
          "durationTicks": 19,
          "midi": 78,
          "name": "F#5",
          "ticks": 12352,
          "time": 143.62790697674419,
          "velocity": 0.3228346456692913
        },
        {
          "duration": 0.06976744186047767,
          "durationTicks": 6,
          "midi": 87,
          "name": "D#6",
          "ticks": 12353,
          "time": 143.63953488372093,
          "velocity": 0.10236220472440945
        },
        {
          "duration": 0.06976744186047767,
          "durationTicks": 6,
          "midi": 93,
          "name": "A6",
          "ticks": 12353,
          "time": 143.63953488372093,
          "velocity": 0.1732283464566929
        },
        {
          "duration": 0.023255813953511506,
          "durationTicks": 2,
          "midi": 68,
          "name": "G#4",
          "ticks": 12357,
          "time": 143.6860465116279,
          "velocity": 0.33070866141732286
        },
        {
          "duration": 0.03488372093025305,
          "durationTicks": 3,
          "midi": 86,
          "name": "D6",
          "ticks": 12357,
          "time": 143.6860465116279,
          "velocity": 0.08661417322834646
        },
        {
          "duration": 0.04651162790696617,
          "durationTicks": 4,
          "midi": 40,
          "name": "E2",
          "ticks": 12358,
          "time": 143.69767441860466,
          "velocity": 0.13385826771653545
        },
        {
          "duration": 0.20930232558137618,
          "durationTicks": 18,
          "midi": 67,
          "name": "G4",
          "ticks": 12359,
          "time": 143.7093023255814,
          "velocity": 0.4251968503937008
        },
        {
          "duration": 0.06976744186044925,
          "durationTicks": 6,
          "midi": 92,
          "name": "G#6",
          "ticks": 12359,
          "time": 143.7093023255814,
          "velocity": 0.18110236220472442
        },
        {
          "duration": 0.08139534883721922,
          "durationTicks": 7,
          "midi": 87,
          "name": "D#6",
          "ticks": 12361,
          "time": 143.7325581395349,
          "velocity": 0.1732283464566929
        },
        {
          "duration": 0.09302325581396076,
          "durationTicks": 8,
          "midi": 40,
          "name": "E2",
          "ticks": 12363,
          "time": 143.75581395348837,
          "velocity": 0.14960629921259844
        },
        {
          "duration": 0.08139534883721922,
          "durationTicks": 7,
          "midi": 93,
          "name": "A6",
          "ticks": 12364,
          "time": 143.7674418604651,
          "velocity": 0.14173228346456693
        },
        {
          "duration": 0.04651162790696617,
          "durationTicks": 4,
          "midi": 93,
          "name": "A6",
          "ticks": 12372,
          "time": 143.86046511627907,
          "velocity": 0.13385826771653545
        },
        {
          "duration": 0.13953488372092693,
          "durationTicks": 12,
          "midi": 98,
          "name": "D7",
          "ticks": 12372,
          "time": 143.86046511627907,
          "velocity": 0.14173228346456693
        },
        {
          "duration": 0.38372093023255616,
          "durationTicks": 33,
          "midi": 78,
          "name": "F#5",
          "ticks": 12374,
          "time": 143.88372093023256,
          "velocity": 0.29133858267716534
        },
        {
          "duration": 0.06976744186047767,
          "durationTicks": 6,
          "midi": 67,
          "name": "G4",
          "ticks": 12378,
          "time": 143.93023255813952,
          "velocity": 0.33858267716535434
        },
        {
          "duration": 0.06976744186044925,
          "durationTicks": 6,
          "midi": 87,
          "name": "D#6",
          "ticks": 12379,
          "time": 143.9418604651163,
          "velocity": 0.14960629921259844
        },
        {
          "duration": 0.11627906976744384,
          "durationTicks": 10,
          "midi": 67,
          "name": "G4",
          "ticks": 12385,
          "time": 144.01162790697674,
          "velocity": 0.36220472440944884
        },
        {
          "duration": 0.08139534883721922,
          "durationTicks": 7,
          "midi": 86,
          "name": "D6",
          "ticks": 12385,
          "time": 144.01162790697674,
          "velocity": 0.08661417322834646
        },
        {
          "duration": 0.4418604651162923,
          "durationTicks": 38,
          "midi": 52,
          "name": "E3",
          "ticks": 12389,
          "time": 144.0581395348837,
          "velocity": 0.2755905511811024
        },
        {
          "duration": 0.13953488372092693,
          "durationTicks": 12,
          "midi": 98,
          "name": "D7",
          "ticks": 12391,
          "time": 144.08139534883722,
          "velocity": 0.12598425196850394
        },
        {
          "duration": 0.6511627906976685,
          "durationTicks": 56,
          "midi": 67,
          "name": "G4",
          "ticks": 12396,
          "time": 144.13953488372093,
          "velocity": 0.3228346456692913
        },
        {
          "duration": 1.1046511627907023,
          "durationTicks": 95,
          "midi": 64,
          "name": "E4",
          "ticks": 12399,
          "time": 144.17441860465115,
          "velocity": 0.2992125984251969
        },
        {
          "duration": 0.034883720930224626,
          "durationTicks": 3,
          "midi": 91,
          "name": "G6",
          "ticks": 12407,
          "time": 144.2674418604651,
          "velocity": 0.07874015748031496
        },
        {
          "duration": 0.04651162790699459,
          "durationTicks": 4,
          "midi": 78,
          "name": "F#5",
          "ticks": 12409,
          "time": 144.2906976744186,
          "velocity": 0.09448818897637795
        },
        {
          "duration": 0.034883720930224626,
          "durationTicks": 3,
          "midi": 95,
          "name": "B6",
          "ticks": 12417,
          "time": 144.38372093023256,
          "velocity": 0.07874015748031496
        },
        {
          "duration": 0.06976744186047767,
          "durationTicks": 6,
          "midi": 86,
          "name": "D6",
          "ticks": 12418,
          "time": 144.3953488372093,
          "velocity": 0.09448818897637795
        },
        {
          "duration": 0.034883720930224626,
          "durationTicks": 3,
          "midi": 40,
          "name": "E2",
          "ticks": 12422,
          "time": 144.4418604651163,
          "velocity": 0.14960629921259844
        },
        {
          "duration": 0.04651162790696617,
          "durationTicks": 4,
          "midi": 78,
          "name": "F#5",
          "ticks": 12422,
          "time": 144.4418604651163,
          "velocity": 0.12598425196850394
        },
        {
          "duration": 0.16279069767441,
          "durationTicks": 14,
          "midi": 40,
          "name": "E2",
          "ticks": 12426,
          "time": 144.48837209302326,
          "velocity": 0.16535433070866143
        },
        {
          "duration": 0.06976744186047767,
          "durationTicks": 6,
          "midi": 87,
          "name": "D#6",
          "ticks": 12431,
          "time": 144.54651162790697,
          "velocity": 0.11023622047244094
        },
        {
          "duration": 0.1511627906976969,
          "durationTicks": 13,
          "midi": 78,
          "name": "F#5",
          "ticks": 12432,
          "time": 144.5581395348837,
          "velocity": 0.14173228346456693
        },
        {
          "duration": 0.03488372093025305,
          "durationTicks": 3,
          "midi": 95,
          "name": "B6",
          "ticks": 12432,
          "time": 144.5581395348837,
          "velocity": 0.11811023622047244
        },
        {
          "duration": 0.3720930232558146,
          "durationTicks": 32,
          "midi": 52,
          "name": "E3",
          "ticks": 12436,
          "time": 144.6046511627907,
          "velocity": 0.23622047244094488
        },
        {
          "duration": 0.08139534883721922,
          "durationTicks": 7,
          "midi": 40,
          "name": "E2",
          "ticks": 12441,
          "time": 144.6627906976744,
          "velocity": 0.11811023622047244
        },
        {
          "duration": 0.16279069767441,
          "durationTicks": 14,
          "midi": 78,
          "name": "F#5",
          "ticks": 12448,
          "time": 144.74418604651163,
          "velocity": 0.1889763779527559
        },
        {
          "duration": 0.04651162790699459,
          "durationTicks": 4,
          "midi": 87,
          "name": "D#6",
          "ticks": 12450,
          "time": 144.7674418604651,
          "velocity": 0.08661417322834646
        },
        {
          "duration": 0.23255813953485927,
          "durationTicks": 20,
          "midi": 67,
          "name": "G4",
          "ticks": 12454,
          "time": 144.8139534883721,
          "velocity": 0.2677165354330709
        },
        {
          "duration": 0.09302325581396076,
          "durationTicks": 8,
          "midi": 83,
          "name": "B5",
          "ticks": 12460,
          "time": 144.88372093023256,
          "velocity": 0.11811023622047244
        },
        {
          "duration": 0.11627906976744384,
          "durationTicks": 10,
          "midi": 78,
          "name": "F#5",
          "ticks": 12466,
          "time": 144.95348837209303,
          "velocity": 0.14960629921259844
        },
        {
          "duration": 0.05813953488370771,
          "durationTicks": 5,
          "midi": 40,
          "name": "E2",
          "ticks": 12468,
          "time": 144.97674418604652,
          "velocity": 0.14960629921259844
        },
        {
          "duration": 0.8488372093023315,
          "durationTicks": 73,
          "midi": 52,
          "name": "E3",
          "ticks": 12474,
          "time": 145.04651162790697,
          "velocity": 0.1889763779527559
        },
        {
          "duration": 0.15116279069766847,
          "durationTicks": 13,
          "midi": 67,
          "name": "G4",
          "ticks": 12476,
          "time": 145.06976744186048,
          "velocity": 0.1968503937007874
        },
        {
          "duration": 0.2093023255814046,
          "durationTicks": 18,
          "midi": 67,
          "name": "G4",
          "ticks": 12492,
          "time": 145.25581395348837,
          "velocity": 0.1968503937007874
        },
        {
          "duration": 0.034883720930224626,
          "durationTicks": 3,
          "midi": 40,
          "name": "E2",
          "ticks": 12513,
          "time": 145.5,
          "velocity": 0.07874015748031496
        },
        {
          "duration": 0.04651162790696617,
          "durationTicks": 4,
          "midi": 40,
          "name": "E2",
          "ticks": 12525,
          "time": 145.63953488372093,
          "velocity": 0.07086614173228346
        },
        {
          "duration": 0.15116279069766847,
          "durationTicks": 13,
          "midi": 67,
          "name": "G4",
          "ticks": 12534,
          "time": 145.74418604651163,
          "velocity": 0.15748031496062992
        },
        {
          "duration": 0.023255813953483084,
          "durationTicks": 2,
          "midi": 51,
          "name": "D#3",
          "ticks": 12552,
          "time": 145.95348837209303,
          "velocity": 0.5511811023622047
        },
        {
          "duration": 0.12790697674418539,
          "durationTicks": 11,
          "midi": 59,
          "name": "B3",
          "ticks": 12554,
          "time": 145.97674418604652,
          "velocity": 0.2992125984251969
        },
        {
          "duration": 0.023255813953483084,
          "durationTicks": 2,
          "midi": 51,
          "name": "D#3",
          "ticks": 12555,
          "time": 145.98837209302326,
          "velocity": 0.36220472440944884
        },
        {
          "duration": 0.44186046511626387,
          "durationTicks": 38,
          "midi": 64,
          "name": "E4",
          "ticks": 12555,
          "time": 145.98837209302326,
          "velocity": 0.6062992125984252
        },
        {
          "duration": 0.023255813953483084,
          "durationTicks": 2,
          "midi": 50,
          "name": "D3",
          "ticks": 12557,
          "time": 146.01162790697674,
          "velocity": 0.4094488188976378
        },
        {
          "duration": 0.03488372093025305,
          "durationTicks": 3,
          "midi": 52,
          "name": "E3",
          "ticks": 12561,
          "time": 146.0581395348837,
          "velocity": 0.3228346456692913
        },
        {
          "duration": 2.4302325581395507,
          "durationTicks": 209,
          "midi": 69,
          "name": "A4",
          "ticks": 12561,
          "time": 146.0581395348837,
          "velocity": 0.5118110236220472
        },
        {
          "duration": 0.05813953488370771,
          "durationTicks": 5,
          "midi": 50,
          "name": "D3",
          "ticks": 12567,
          "time": 146.12790697674419,
          "velocity": 0.28346456692913385
        },
        {
          "duration": 0.11627906976744384,
          "durationTicks": 10,
          "midi": 59,
          "name": "B3",
          "ticks": 12567,
          "time": 146.12790697674419,
          "velocity": 0.2283464566929134
        },
        {
          "duration": 0.023255813953483084,
          "durationTicks": 2,
          "midi": 51,
          "name": "D#3",
          "ticks": 12573,
          "time": 146.19767441860466,
          "velocity": 0.36220472440944884
        },
        {
          "duration": 0.8372093023255616,
          "durationTicks": 72,
          "midi": 52,
          "name": "E3",
          "ticks": 12575,
          "time": 146.22093023255815,
          "velocity": 0.4566929133858268
        },
        {
          "duration": 0.09302325581396076,
          "durationTicks": 8,
          "midi": 59,
          "name": "B3",
          "ticks": 12579,
          "time": 146.2674418604651,
          "velocity": 0.1968503937007874
        },
        {
          "duration": 0.1860465116278931,
          "durationTicks": 16,
          "midi": 72,
          "name": "C5",
          "ticks": 12587,
          "time": 146.36046511627907,
          "velocity": 0.23622047244094488
        },
        {
          "duration": 0.22093023255814614,
          "durationTicks": 19,
          "midi": 59,
          "name": "B3",
          "ticks": 12588,
          "time": 146.37209302325581,
          "velocity": 0.1889763779527559
        },
        {
          "duration": 0.2325581395348877,
          "durationTicks": 20,
          "midi": 72,
          "name": "C5",
          "ticks": 12604,
          "time": 146.5581395348837,
          "velocity": 0.16535433070866143
        },
        {
          "duration": 0.034883720930224626,
          "durationTicks": 3,
          "midi": 59,
          "name": "B3",
          "ticks": 12608,
          "time": 146.6046511627907,
          "velocity": 0.10236220472440945
        },
        {
          "duration": 0.30232558139533694,
          "durationTicks": 26,
          "midi": 86,
          "name": "D6",
          "ticks": 12610,
          "time": 146.62790697674419,
          "velocity": 0.07874015748031496
        },
        {
          "duration": 0.11627906976744384,
          "durationTicks": 10,
          "midi": 59,
          "name": "B3",
          "ticks": 12615,
          "time": 146.6860465116279,
          "velocity": 0.1889763779527559
        },
        {
          "duration": 0.15116279069766847,
          "durationTicks": 13,
          "midi": 88,
          "name": "E6",
          "ticks": 12619,
          "time": 146.7325581395349,
          "velocity": 0.15748031496062992
        },
        {
          "duration": 0.05813953488370771,
          "durationTicks": 5,
          "midi": 62,
          "name": "D4",
          "ticks": 12626,
          "time": 146.8139534883721,
          "velocity": 0.1968503937007874
        },
        {
          "duration": 0.04651162790699459,
          "durationTicks": 4,
          "midi": 40,
          "name": "E2",
          "ticks": 12633,
          "time": 146.8953488372093,
          "velocity": 0.1968503937007874
        },
        {
          "duration": 0.03488372093025305,
          "durationTicks": 3,
          "midi": 62,
          "name": "D4",
          "ticks": 12635,
          "time": 146.91860465116278,
          "velocity": 0.2204724409448819
        },
        {
          "duration": 0.04651162790696617,
          "durationTicks": 4,
          "midi": 40,
          "name": "E2",
          "ticks": 12638,
          "time": 146.95348837209303,
          "velocity": 0.13385826771653545
        },
        {
          "duration": 0.05813953488370771,
          "durationTicks": 5,
          "midi": 59,
          "name": "B3",
          "ticks": 12639,
          "time": 146.96511627906978,
          "velocity": 0.15748031496062992
        },
        {
          "duration": 0.2325581395348877,
          "durationTicks": 20,
          "midi": 62,
          "name": "D4",
          "ticks": 12641,
          "time": 146.98837209302326,
          "velocity": 0.2283464566929134
        },
        {
          "duration": 0.034883720930224626,
          "durationTicks": 3,
          "midi": 88,
          "name": "E6",
          "ticks": 12644,
          "time": 147.02325581395348,
          "velocity": 0.09448818897637795
        },
        {
          "duration": 0.04651162790699459,
          "durationTicks": 4,
          "midi": 59,
          "name": "B3",
          "ticks": 12647,
          "time": 147.0581395348837,
          "velocity": 0.10236220472440945
        },
        {
          "duration": 0.11627906976741542,
          "durationTicks": 10,
          "midi": 52,
          "name": "E3",
          "ticks": 12648,
          "time": 147.06976744186048,
          "velocity": 0.15748031496062992
        },
        {
          "duration": 0.40697674418603924,
          "durationTicks": 35,
          "midi": 88,
          "name": "E6",
          "ticks": 12651,
          "time": 147.1046511627907,
          "velocity": 0.2677165354330709
        },
        {
          "duration": 0.12790697674418539,
          "durationTicks": 11,
          "midi": 86,
          "name": "D6",
          "ticks": 12653,
          "time": 147.12790697674419,
          "velocity": 0.12598425196850394
        },
        {
          "duration": 0.1046511627907023,
          "durationTicks": 9,
          "midi": 76,
          "name": "E5",
          "ticks": 12655,
          "time": 147.15116279069767,
          "velocity": 0.11023622047244094
        },
        {
          "duration": 0.06976744186047767,
          "durationTicks": 6,
          "midi": 90,
          "name": "F#6",
          "ticks": 12657,
          "time": 147.17441860465115,
          "velocity": 0.08661417322834646
        },
        {
          "duration": 0.11627906976744384,
          "durationTicks": 10,
          "midi": 64,
          "name": "E4",
          "ticks": 12660,
          "time": 147.2093023255814,
          "velocity": 0.28346456692913385
        },
        {
          "duration": 5.697674418604663,
          "durationTicks": 490,
          "midi": 52,
          "name": "E3",
          "ticks": 12665,
          "time": 147.2674418604651,
          "velocity": 0.6299212598425197
        },
        {
          "duration": 0.06976744186047767,
          "durationTicks": 6,
          "midi": 40,
          "name": "E2",
          "ticks": 12666,
          "time": 147.27906976744185,
          "velocity": 0.09448818897637795
        },
        {
          "duration": 0.09302325581393234,
          "durationTicks": 8,
          "midi": 62,
          "name": "D4",
          "ticks": 12671,
          "time": 147.3372093023256,
          "velocity": 0.2440944881889764
        },
        {
          "duration": 0.06976744186044925,
          "durationTicks": 6,
          "midi": 83,
          "name": "B5",
          "ticks": 12673,
          "time": 147.36046511627907,
          "velocity": 0.08661417322834646
        },
        {
          "duration": 0.33720930232559,
          "durationTicks": 29,
          "midi": 86,
          "name": "D6",
          "ticks": 12673,
          "time": 147.36046511627907,
          "velocity": 0.16535433070866143
        },
        {
          "duration": 0.1046511627907023,
          "durationTicks": 9,
          "midi": 90,
          "name": "F#6",
          "ticks": 12673,
          "time": 147.36046511627907,
          "velocity": 0.16535433070866143
        },
        {
          "duration": 0.18604651162792152,
          "durationTicks": 16,
          "midi": 76,
          "name": "E5",
          "ticks": 12676,
          "time": 147.3953488372093,
          "velocity": 0.13385826771653545
        },
        {
          "duration": 0.05813953488373613,
          "durationTicks": 5,
          "midi": 59,
          "name": "B3",
          "ticks": 12678,
          "time": 147.41860465116278,
          "velocity": 0.14960629921259844
        },
        {
          "duration": 0.3604651162790731,
          "durationTicks": 31,
          "midi": 59,
          "name": "B3",
          "ticks": 12684,
          "time": 147.48837209302326,
          "velocity": 0.2125984251968504
        },
        {
          "duration": 0.12790697674418539,
          "durationTicks": 11,
          "midi": 90,
          "name": "F#6",
          "ticks": 12689,
          "time": 147.54651162790697,
          "velocity": 0.1889763779527559
        },
        {
          "duration": 0.16279069767441,
          "durationTicks": 14,
          "midi": 88,
          "name": "E6",
          "ticks": 12692,
          "time": 147.58139534883722,
          "velocity": 0.14960629921259844
        },
        {
          "duration": 0.05813953488370771,
          "durationTicks": 5,
          "midi": 83,
          "name": "B5",
          "ticks": 12693,
          "time": 147.59302325581396,
          "velocity": 0.08661417322834646
        },
        {
          "duration": 0.1046511627907023,
          "durationTicks": 9,
          "midi": 100,
          "name": "E7",
          "ticks": 12701,
          "time": 147.6860465116279,
          "velocity": 0.16535433070866143
        },
        {
          "duration": 0.33720930232559,
          "durationTicks": 29,
          "midi": 40,
          "name": "E2",
          "ticks": 12705,
          "time": 147.7325581395349,
          "velocity": 0.25196850393700787
        },
        {
          "duration": 0.17441860465115155,
          "durationTicks": 15,
          "midi": 86,
          "name": "D6",
          "ticks": 12707,
          "time": 147.75581395348837,
          "velocity": 0.1732283464566929
        },
        {
          "duration": 0.1046511627907023,
          "durationTicks": 9,
          "midi": 90,
          "name": "F#6",
          "ticks": 12708,
          "time": 147.7674418604651,
          "velocity": 0.2283464566929134
        },
        {
          "duration": 0.13953488372092693,
          "durationTicks": 12,
          "midi": 88,
          "name": "E6",
          "ticks": 12709,
          "time": 147.77906976744185,
          "velocity": 0.2755905511811024
        },
        {
          "duration": 0.0813953488371908,
          "durationTicks": 7,
          "midi": 97,
          "name": "C#7",
          "ticks": 12715,
          "time": 147.84883720930233,
          "velocity": 0.2125984251968504
        },
        {
          "duration": 0.2906976744185954,
          "durationTicks": 25,
          "midi": 62,
          "name": "D4",
          "ticks": 12717,
          "time": 147.87209302325581,
          "velocity": 0.3779527559055118
        },
        {
          "duration": 0.17441860465117998,
          "durationTicks": 15,
          "midi": 90,
          "name": "F#6",
          "ticks": 12722,
          "time": 147.93023255813952,
          "velocity": 0.2204724409448819
        },
        {
          "duration": 0.8604651162790447,
          "durationTicks": 74,
          "midi": 88,
          "name": "E6",
          "ticks": 12723,
          "time": 147.9418604651163,
          "velocity": 0.3228346456692913
        },
        {
          "duration": 0.09302325581396076,
          "durationTicks": 8,
          "midi": 96,
          "name": "C7",
          "ticks": 12733,
          "time": 148.0581395348837,
          "velocity": 0.09448818897637795
        },
        {
          "duration": 0.1046511627907023,
          "durationTicks": 9,
          "midi": 97,
          "name": "C#7",
          "ticks": 12733,
          "time": 148.0581395348837,
          "velocity": 0.14173228346456693
        },
        {
          "duration": 0.04651162790696617,
          "durationTicks": 4,
          "midi": 40,
          "name": "E2",
          "ticks": 12735,
          "time": 148.08139534883722,
          "velocity": 0.2125984251968504
        },
        {
          "duration": 0.15116279069766847,
          "durationTicks": 13,
          "midi": 40,
          "name": "E2",
          "ticks": 12740,
          "time": 148.13953488372093,
          "velocity": 0.2125984251968504
        },
        {
          "duration": 0.16279069767443843,
          "durationTicks": 14,
          "midi": 86,
          "name": "D6",
          "ticks": 12742,
          "time": 148.1627906976744,
          "velocity": 0.2204724409448819
        },
        {
          "duration": 0.04651162790699459,
          "durationTicks": 4,
          "midi": 103,
          "name": "G7",
          "ticks": 12742,
          "time": 148.1627906976744,
          "velocity": 0.08661417322834646
        },
        {
          "duration": 0.1511627906976969,
          "durationTicks": 13,
          "midi": 90,
          "name": "F#6",
          "ticks": 12743,
          "time": 148.17441860465115,
          "velocity": 0.25196850393700787
        },
        {
          "duration": 0.06976744186047767,
          "durationTicks": 6,
          "midi": 96,
          "name": "C7",
          "ticks": 12744,
          "time": 148.1860465116279,
          "velocity": 0.07874015748031496
        },
        {
          "duration": 0.13953488372092693,
          "durationTicks": 12,
          "midi": 97,
          "name": "C#7",
          "ticks": 12746,
          "time": 148.2093023255814,
          "velocity": 0.14173228346456693
        },
        {
          "duration": 0.08139534883721922,
          "durationTicks": 7,
          "midi": 83,
          "name": "B5",
          "ticks": 12750,
          "time": 148.25581395348837,
          "velocity": 0.10236220472440945
        },
        {
          "duration": 0.66279069767441,
          "durationTicks": 57,
          "midi": 74,
          "name": "D5",
          "ticks": 12756,
          "time": 148.32558139534885,
          "velocity": 0.2677165354330709
        },
        {
          "duration": 0.19767441860463464,
          "durationTicks": 17,
          "midi": 90,
          "name": "F#6",
          "ticks": 12759,
          "time": 148.36046511627907,
          "velocity": 0.2440944881889764
        },
        {
          "duration": 0.16279069767441,
          "durationTicks": 14,
          "midi": 97,
          "name": "C#7",
          "ticks": 12761,
          "time": 148.38372093023256,
          "velocity": 0.12598425196850394
        },
        {
          "duration": 0.12790697674418539,
          "durationTicks": 11,
          "midi": 83,
          "name": "B5",
          "ticks": 12766,
          "time": 148.4418604651163,
          "velocity": 0.10236220472440945
        },
        {
          "duration": 0.0813953488371908,
          "durationTicks": 7,
          "midi": 96,
          "name": "C7",
          "ticks": 12766,
          "time": 148.4418604651163,
          "velocity": 0.08661417322834646
        },
        {
          "duration": 0.06976744186044925,
          "durationTicks": 6,
          "midi": 68,
          "name": "G#4",
          "ticks": 12769,
          "time": 148.47674418604652,
          "velocity": 0.1889763779527559
        },
        {
          "duration": 0.04651162790696617,
          "durationTicks": 4,
          "midi": 71,
          "name": "B4",
          "ticks": 12769,
          "time": 148.47674418604652,
          "velocity": 0.11811023622047244
        },
        {
          "duration": 0.034883720930224626,
          "durationTicks": 3,
          "midi": 98,
          "name": "D7",
          "ticks": 12770,
          "time": 148.48837209302326,
          "velocity": 0.13385826771653545
        },
        {
          "duration": 0.04651162790696617,
          "durationTicks": 4,
          "midi": 92,
          "name": "G#6",
          "ticks": 12771,
          "time": 148.5,
          "velocity": 0.07874015748031496
        },
        {
          "duration": 0.1046511627907023,
          "durationTicks": 9,
          "midi": 103,
          "name": "G7",
          "ticks": 12771,
          "time": 148.5,
          "velocity": 0.14173228346456693
        },
        {
          "duration": 0.3604651162790731,
          "durationTicks": 31,
          "midi": 59,
          "name": "B3",
          "ticks": 12772,
          "time": 148.51162790697674,
          "velocity": 0.29133858267716534
        },
        {
          "duration": 0.08139534883721922,
          "durationTicks": 7,
          "midi": 40,
          "name": "E2",
          "ticks": 12773,
          "time": 148.52325581395348,
          "velocity": 0.11811023622047244
        },
        {
          "duration": 0.9186046511628092,
          "durationTicks": 79,
          "midi": 69,
          "name": "A4",
          "ticks": 12774,
          "time": 148.53488372093022,
          "velocity": 0.5275590551181102
        },
        {
          "duration": 0.04651162790696617,
          "durationTicks": 4,
          "midi": 97,
          "name": "C#7",
          "ticks": 12777,
          "time": 148.56976744186048,
          "velocity": 0.11811023622047244
        },
        {
          "duration": 0.034883720930224626,
          "durationTicks": 3,
          "midi": 92,
          "name": "G#6",
          "ticks": 12778,
          "time": 148.58139534883722,
          "velocity": 0.08661417322834646
        },
        {
          "duration": 0.0813953488371908,
          "durationTicks": 7,
          "midi": 96,
          "name": "C7",
          "ticks": 12778,
          "time": 148.58139534883722,
          "velocity": 0.15748031496062992
        },
        {
          "duration": 0.15116279069766847,
          "durationTicks": 13,
          "midi": 90,
          "name": "F#6",
          "ticks": 12779,
          "time": 148.59302325581396,
          "velocity": 0.28346456692913385
        },
        {
          "duration": 0.0813953488371908,
          "durationTicks": 7,
          "midi": 98,
          "name": "D7",
          "ticks": 12779,
          "time": 148.59302325581396,
          "velocity": 0.14173228346456693
        },
        {
          "duration": 0.13953488372092693,
          "durationTicks": 12,
          "midi": 97,
          "name": "C#7",
          "ticks": 12782,
          "time": 148.62790697674419,
          "velocity": 0.14960629921259844
        },
        {
          "duration": 0.11627906976744384,
          "durationTicks": 10,
          "midi": 96,
          "name": "C7",
          "ticks": 12786,
          "time": 148.67441860465115,
          "velocity": 0.18110236220472442
        },
        {
          "duration": 0.06976744186044925,
          "durationTicks": 6,
          "midi": 83,
          "name": "B5",
          "ticks": 12788,
          "time": 148.69767441860466,
          "velocity": 0.11811023622047244
        },
        {
          "duration": 0.6162790697674438,
          "durationTicks": 53,
          "midi": 40,
          "name": "E2",
          "ticks": 12792,
          "time": 148.74418604651163,
          "velocity": 0.2755905511811024
        },
        {
          "duration": 0.034883720930224626,
          "durationTicks": 3,
          "midi": 90,
          "name": "F#6",
          "ticks": 12794,
          "time": 148.7674418604651,
          "velocity": 0.07086614173228346
        },
        {
          "duration": 0.05813953488373613,
          "durationTicks": 5,
          "midi": 97,
          "name": "C#7",
          "ticks": 12796,
          "time": 148.7906976744186,
          "velocity": 0.07874015748031496
        },
        {
          "duration": 1.1046511627906739,
          "durationTicks": 95,
          "midi": 88,
          "name": "E6",
          "ticks": 12798,
          "time": 148.8139534883721,
          "velocity": 0.3700787401574803
        },
        {
          "duration": 0.05813953488370771,
          "durationTicks": 5,
          "midi": 90,
          "name": "F#6",
          "ticks": 12799,
          "time": 148.82558139534885,
          "velocity": 0.2047244094488189
        },
        {
          "duration": 0.034883720930224626,
          "durationTicks": 3,
          "midi": 96,
          "name": "C7",
          "ticks": 12801,
          "time": 148.84883720930233,
          "velocity": 0.09448818897637795
        },
        {
          "duration": 0.11627906976744384,
          "durationTicks": 10,
          "midi": 92,
          "name": "G#6",
          "ticks": 12804,
          "time": 148.88372093023256,
          "velocity": 0.1889763779527559
        },
        {
          "duration": 0.24418604651162923,
          "durationTicks": 21,
          "midi": 90,
          "name": "F#6",
          "ticks": 12805,
          "time": 148.8953488372093,
          "velocity": 0.18110236220472442
        },
        {
          "duration": 0.11627906976744384,
          "durationTicks": 10,
          "midi": 95,
          "name": "B6",
          "ticks": 12805,
          "time": 148.8953488372093,
          "velocity": 0.1732283464566929
        },
        {
          "duration": 0.03488372093025305,
          "durationTicks": 3,
          "midi": 97,
          "name": "C#7",
          "ticks": 12806,
          "time": 148.90697674418604,
          "velocity": 0.08661417322834646
        },
        {
          "duration": 0.03488372093025305,
          "durationTicks": 3,
          "midi": 103,
          "name": "G7",
          "ticks": 12806,
          "time": 148.90697674418604,
          "velocity": 0.13385826771653545
        },
        {
          "duration": 0.17441860465117998,
          "durationTicks": 15,
          "midi": 83,
          "name": "B5",
          "ticks": 12807,
          "time": 148.91860465116278,
          "velocity": 0.2677165354330709
        },
        {
          "duration": 0.06976744186044925,
          "durationTicks": 6,
          "midi": 96,
          "name": "C7",
          "ticks": 12811,
          "time": 148.96511627906978,
          "velocity": 0.12598425196850394
        },
        {
          "duration": 0.0813953488371908,
          "durationTicks": 7,
          "midi": 97,
          "name": "C#7",
          "ticks": 12812,
          "time": 148.97674418604652,
          "velocity": 0.2125984251968504
        },
        {
          "duration": 0.034883720930224626,
          "durationTicks": 3,
          "midi": 71,
          "name": "B4",
          "ticks": 12813,
          "time": 148.98837209302326,
          "velocity": 0.14960629921259844
        },
        {
          "duration": 0.2325581395348877,
          "durationTicks": 20,
          "midi": 98,
          "name": "D7",
          "ticks": 12813,
          "time": 148.98837209302326,
          "velocity": 0.1968503937007874
        },
        {
          "duration": 0.034883720930224626,
          "durationTicks": 3,
          "midi": 86,
          "name": "D6",
          "ticks": 12815,
          "time": 149.01162790697674,
          "velocity": 0.12598425196850394
        },
        {
          "duration": 0.11627906976744384,
          "durationTicks": 10,
          "midi": 74,
          "name": "D5",
          "ticks": 12818,
          "time": 149.04651162790697,
          "velocity": 0.30708661417322836
        },
        {
          "duration": 0.5116279069767415,
          "durationTicks": 44,
          "midi": 59,
          "name": "B3",
          "ticks": 12821,
          "time": 149.08139534883722,
          "velocity": 0.3700787401574803
        },
        {
          "duration": 0.19767441860466306,
          "durationTicks": 17,
          "midi": 83,
          "name": "B5",
          "ticks": 12824,
          "time": 149.11627906976744,
          "velocity": 0.1968503937007874
        },
        {
          "duration": 0.1046511627907023,
          "durationTicks": 9,
          "midi": 92,
          "name": "G#6",
          "ticks": 12824,
          "time": 149.11627906976744,
          "velocity": 0.14960629921259844
        },
        {
          "duration": 0.4302325581395223,
          "durationTicks": 37,
          "midi": 95,
          "name": "B6",
          "ticks": 12824,
          "time": 149.11627906976744,
          "velocity": 0.1968503937007874
        },
        {
          "duration": 0.16279069767441,
          "durationTicks": 14,
          "midi": 97,
          "name": "C#7",
          "ticks": 12824,
          "time": 149.11627906976744,
          "velocity": 0.2047244094488189
        },
        {
          "duration": 0.034883720930224626,
          "durationTicks": 3,
          "midi": 96,
          "name": "C7",
          "ticks": 12825,
          "time": 149.12790697674419,
          "velocity": 0.1889763779527559
        },
        {
          "duration": 0.09302325581396076,
          "durationTicks": 8,
          "midi": 74,
          "name": "D5",
          "ticks": 12829,
          "time": 149.17441860465115,
          "velocity": 0.28346456692913385
        },
        {
          "duration": 0.03488372093025305,
          "durationTicks": 3,
          "midi": 90,
          "name": "F#6",
          "ticks": 12829,
          "time": 149.17441860465115,
          "velocity": 0.13385826771653545
        },
        {
          "duration": 0.05813953488370771,
          "durationTicks": 5,
          "midi": 90,
          "name": "F#6",
          "ticks": 12834,
          "time": 149.2325581395349,
          "velocity": 0.15748031496062992
        },
        {
          "duration": 0.1046511627907023,
          "durationTicks": 9,
          "midi": 92,
          "name": "G#6",
          "ticks": 12835,
          "time": 149.24418604651163,
          "velocity": 0.1968503937007874
        },
        {
          "duration": 0.06976744186047767,
          "durationTicks": 6,
          "midi": 96,
          "name": "C7",
          "ticks": 12836,
          "time": 149.25581395348837,
          "velocity": 0.10236220472440945
        },
        {
          "duration": 0.09302325581396076,
          "durationTicks": 8,
          "midi": 103,
          "name": "G7",
          "ticks": 12836,
          "time": 149.25581395348837,
          "velocity": 0.07086614173228346
        },
        {
          "duration": 0.4418604651162923,
          "durationTicks": 38,
          "midi": 86,
          "name": "D6",
          "ticks": 12837,
          "time": 149.2674418604651,
          "velocity": 0.1889763779527559
        },
        {
          "duration": 0.1046511627907023,
          "durationTicks": 9,
          "midi": 74,
          "name": "D5",
          "ticks": 12839,
          "time": 149.2906976744186,
          "velocity": 0.2440944881889764
        },
        {
          "duration": 0.16279069767441,
          "durationTicks": 14,
          "midi": 97,
          "name": "C#7",
          "ticks": 12841,
          "time": 149.3139534883721,
          "velocity": 0.2047244094488189
        },
        {
          "duration": 0.04651162790696617,
          "durationTicks": 4,
          "midi": 62,
          "name": "D4",
          "ticks": 12844,
          "time": 149.34883720930233,
          "velocity": 0.29133858267716534
        },
        {
          "duration": 0.05813953488370771,
          "durationTicks": 5,
          "midi": 90,
          "name": "F#6",
          "ticks": 12845,
          "time": 149.36046511627907,
          "velocity": 0.11811023622047244
        },
        {
          "duration": 0.05813953488370771,
          "durationTicks": 5,
          "midi": 96,
          "name": "C7",
          "ticks": 12845,
          "time": 149.36046511627907,
          "velocity": 0.11023622047244094
        },
        {
          "duration": 0.2906976744185954,
          "durationTicks": 25,
          "midi": 83,
          "name": "B5",
          "ticks": 12846,
          "time": 149.37209302325581,
          "velocity": 0.25984251968503935
        },
        {
          "duration": 1.4069767441860392,
          "durationTicks": 121,
          "midi": 40,
          "name": "E2",
          "ticks": 12847,
          "time": 149.38372093023256,
          "velocity": 0.3937007874015748
        },
        {
          "duration": 1.5348837209302246,
          "durationTicks": 132,
          "midi": 76,
          "name": "E5",
          "ticks": 12848,
          "time": 149.3953488372093,
          "velocity": 0.3779527559055118
        },
        {
          "duration": 0.05813953488373613,
          "durationTicks": 5,
          "midi": 92,
          "name": "G#6",
          "ticks": 12848,
          "time": 149.3953488372093,
          "velocity": 0.07086614173228346
        },
        {
          "duration": 0.2906976744186238,
          "durationTicks": 25,
          "midi": 74,
          "name": "D5",
          "ticks": 12849,
          "time": 149.40697674418604,
          "velocity": 0.2755905511811024
        },
        {
          "duration": 0.023255813953483084,
          "durationTicks": 2,
          "midi": 68,
          "name": "G#4",
          "ticks": 12852,
          "time": 149.4418604651163,
          "velocity": 0.33858267716535434
        },
        {
          "duration": 0.16279069767441,
          "durationTicks": 14,
          "midi": 90,
          "name": "F#6",
          "ticks": 12852,
          "time": 149.4418604651163,
          "velocity": 0.15748031496062992
        },
        {
          "duration": 0.09302325581393234,
          "durationTicks": 8,
          "midi": 69,
          "name": "A4",
          "ticks": 12854,
          "time": 149.46511627906978,
          "velocity": 0.4566929133858268
        },
        {
          "duration": 0.17441860465115155,
          "durationTicks": 15,
          "midi": 92,
          "name": "G#6",
          "ticks": 12855,
          "time": 149.47674418604652,
          "velocity": 0.18110236220472442
        },
        {
          "duration": 0.13953488372092693,
          "durationTicks": 12,
          "midi": 97,
          "name": "C#7",
          "ticks": 12857,
          "time": 149.5,
          "velocity": 0.2440944881889764
        },
        {
          "duration": 0.06976744186047767,
          "durationTicks": 6,
          "midi": 96,
          "name": "C7",
          "ticks": 12858,
          "time": 149.51162790697674,
          "velocity": 0.11023622047244094
        },
        {
          "duration": 0.034883720930224626,
          "durationTicks": 3,
          "midi": 103,
          "name": "G7",
          "ticks": 12859,
          "time": 149.52325581395348,
          "velocity": 0.07874015748031496
        },
        {
          "duration": 0.08139534883721922,
          "durationTicks": 7,
          "midi": 62,
          "name": "D4",
          "ticks": 12862,
          "time": 149.5581395348837,
          "velocity": 0.3228346456692913
        },
        {
          "duration": 0.023255813953511506,
          "durationTicks": 2,
          "midi": 68,
          "name": "G#4",
          "ticks": 12862,
          "time": 149.5581395348837,
          "velocity": 0.3700787401574803
        },
        {
          "duration": 0.1860465116278931,
          "durationTicks": 16,
          "midi": 69,
          "name": "A4",
          "ticks": 12864,
          "time": 149.58139534883722,
          "velocity": 0.47244094488188976
        },
        {
          "duration": 0.9302325581395223,
          "durationTicks": 80,
          "midi": 59,
          "name": "B3",
          "ticks": 12866,
          "time": 149.6046511627907,
          "velocity": 0.3779527559055118
        },
        {
          "duration": 0.034883720930224626,
          "durationTicks": 3,
          "midi": 96,
          "name": "C7",
          "ticks": 12866,
          "time": 149.6046511627907,
          "velocity": 0.07874015748031496
        },
        {
          "duration": 0.18604651162792152,
          "durationTicks": 16,
          "midi": 90,
          "name": "F#6",
          "ticks": 12868,
          "time": 149.62790697674419,
          "velocity": 0.14173228346456693
        },
        {
          "duration": 0.03488372093025305,
          "durationTicks": 3,
          "midi": 92,
          "name": "G#6",
          "ticks": 12872,
          "time": 149.67441860465115,
          "velocity": 0.11811023622047244
        },
        {
          "duration": 0.30232558139536536,
          "durationTicks": 26,
          "midi": 97,
          "name": "C#7",
          "ticks": 12872,
          "time": 149.67441860465115,
          "velocity": 0.2125984251968504
        },
        {
          "duration": 1.0116279069767415,
          "durationTicks": 87,
          "midi": 83,
          "name": "B5",
          "ticks": 12874,
          "time": 149.69767441860466,
          "velocity": 0.2677165354330709
        },
        {
          "duration": 0.17441860465115155,
          "durationTicks": 15,
          "midi": 74,
          "name": "D5",
          "ticks": 12875,
          "time": 149.7093023255814,
          "velocity": 0.30708661417322836
        },
        {
          "duration": 0.06976744186044925,
          "durationTicks": 6,
          "midi": 96,
          "name": "C7",
          "ticks": 12877,
          "time": 149.7325581395349,
          "velocity": 0.15748031496062992
        },
        {
          "duration": 0.2325581395348877,
          "durationTicks": 20,
          "midi": 92,
          "name": "G#6",
          "ticks": 12878,
          "time": 149.74418604651163,
          "velocity": 0.2283464566929134
        },
        {
          "duration": 0.023255813953483084,
          "durationTicks": 2,
          "midi": 62,
          "name": "D4",
          "ticks": 12880,
          "time": 149.7674418604651,
          "velocity": 0.2992125984251969
        },
        {
          "duration": 0.2325581395348877,
          "durationTicks": 20,
          "midi": 69,
          "name": "A4",
          "ticks": 12881,
          "time": 149.77906976744185,
          "velocity": 0.47244094488188976
        },
        {
          "duration": 0.04651162790699459,
          "durationTicks": 4,
          "midi": 62,
          "name": "D4",
          "ticks": 12883,
          "time": 149.80232558139534,
          "velocity": 0.2992125984251969
        },
        {
          "duration": 0.08139534883721922,
          "durationTicks": 7,
          "midi": 74,
          "name": "D5",
          "ticks": 12892,
          "time": 149.90697674418604,
          "velocity": 0.2992125984251969
        },
        {
          "duration": 0.1046511627907023,
          "durationTicks": 9,
          "midi": 96,
          "name": "C7",
          "ticks": 12892,
          "time": 149.90697674418604,
          "velocity": 0.13385826771653545
        },
        {
          "duration": 0.11627906976744384,
          "durationTicks": 10,
          "midi": 103,
          "name": "G7",
          "ticks": 12897,
          "time": 149.96511627906978,
          "velocity": 0.13385826771653545
        },
        {
          "duration": 0.34883720930233153,
          "durationTicks": 30,
          "midi": 74,
          "name": "D5",
          "ticks": 12900,
          "time": 150,
          "velocity": 0.33070866141732286
        },
        {
          "duration": 0.034883720930224626,
          "durationTicks": 3,
          "midi": 92,
          "name": "G#6",
          "ticks": 12900,
          "time": 150,
          "velocity": 0.09448818897637795
        },
        {
          "duration": 0.3720930232558146,
          "durationTicks": 32,
          "midi": 97,
          "name": "C#7",
          "ticks": 12900,
          "time": 150,
          "velocity": 0.2440944881889764
        },
        {
          "duration": 0.13953488372092693,
          "durationTicks": 12,
          "midi": 69,
          "name": "A4",
          "ticks": 12902,
          "time": 150.02325581395348,
          "velocity": 0.44881889763779526
        },
        {
          "duration": 0.06976744186044925,
          "durationTicks": 6,
          "midi": 92,
          "name": "G#6",
          "ticks": 12909,
          "time": 150.1046511627907,
          "velocity": 0.16535433070866143
        },
        {
          "duration": 0.06976744186047767,
          "durationTicks": 6,
          "midi": 103,
          "name": "G7",
          "ticks": 12913,
          "time": 150.15116279069767,
          "velocity": 0.11023622047244094
        },
        {
          "duration": 0.12790697674418539,
          "durationTicks": 11,
          "midi": 68,
          "name": "G#4",
          "ticks": 12914,
          "time": 150.1627906976744,
          "velocity": 0.3937007874015748
        },
        {
          "duration": 0.034883720930224626,
          "durationTicks": 3,
          "midi": 90,
          "name": "F#6",
          "ticks": 12920,
          "time": 150.2325581395349,
          "velocity": 0.07874015748031496
        },
        {
          "duration": 0.34883720930233153,
          "durationTicks": 30,
          "midi": 69,
          "name": "A4",
          "ticks": 12924,
          "time": 150.27906976744185,
          "velocity": 0.5275590551181102
        },
        {
          "duration": 0.06976744186047767,
          "durationTicks": 6,
          "midi": 96,
          "name": "C7",
          "ticks": 12924,
          "time": 150.27906976744185,
          "velocity": 0.11023622047244094
        },
        {
          "duration": 0.04651162790699459,
          "durationTicks": 4,
          "midi": 62,
          "name": "D4",
          "ticks": 12925,
          "time": 150.2906976744186,
          "velocity": 0.28346456692913385
        },
        {
          "duration": 0.05813953488370771,
          "durationTicks": 5,
          "midi": 103,
          "name": "G7",
          "ticks": 12928,
          "time": 150.32558139534885,
          "velocity": 0.13385826771653545
        },
        {
          "duration": 0.0813953488371908,
          "durationTicks": 7,
          "midi": 92,
          "name": "G#6",
          "ticks": 12929,
          "time": 150.3372093023256,
          "velocity": 0.13385826771653545
        },
        {
          "duration": 0.09302325581396076,
          "durationTicks": 8,
          "midi": 74,
          "name": "D5",
          "ticks": 12931,
          "time": 150.36046511627907,
          "velocity": 0.2677165354330709
        },
        {
          "duration": 0.09302325581396076,
          "durationTicks": 8,
          "midi": 80,
          "name": "G#5",
          "ticks": 12933,
          "time": 150.38372093023256,
          "velocity": 0.12598425196850394
        },
        {
          "duration": 0.38372093023255616,
          "durationTicks": 33,
          "midi": 97,
          "name": "C#7",
          "ticks": 12934,
          "time": 150.3953488372093,
          "velocity": 0.33858267716535434
        },
        {
          "duration": 0.06976744186044925,
          "durationTicks": 6,
          "midi": 74,
          "name": "D5",
          "ticks": 12940,
          "time": 150.46511627906978,
          "velocity": 0.15748031496062992
        },
        {
          "duration": 0.09302325581396076,
          "durationTicks": 8,
          "midi": 96,
          "name": "C7",
          "ticks": 12941,
          "time": 150.47674418604652,
          "velocity": 0.10236220472440945
        },
        {
          "duration": 0.034883720930224626,
          "durationTicks": 3,
          "midi": 103,
          "name": "G7",
          "ticks": 12943,
          "time": 150.5,
          "velocity": 0.08661417322834646
        },
        {
          "duration": 0.12790697674418539,
          "durationTicks": 11,
          "midi": 100,
          "name": "E7",
          "ticks": 12946,
          "time": 150.53488372093022,
          "velocity": 0.25984251968503935
        },
        {
          "duration": 0.7441860465116292,
          "durationTicks": 64,
          "midi": 59,
          "name": "B3",
          "ticks": 12947,
          "time": 150.54651162790697,
          "velocity": 0.3779527559055118
        },
        {
          "duration": 0.34883720930233153,
          "durationTicks": 30,
          "midi": 74,
          "name": "D5",
          "ticks": 12947,
          "time": 150.54651162790697,
          "velocity": 0.2283464566929134
        },
        {
          "duration": 0.05813953488373613,
          "durationTicks": 5,
          "midi": 103,
          "name": "G7",
          "ticks": 12947,
          "time": 150.54651162790697,
          "velocity": 0.14173228346456693
        },
        {
          "duration": 1.3837209302325562,
          "durationTicks": 119,
          "midi": 69,
          "name": "A4",
          "ticks": 12955,
          "time": 150.63953488372093,
          "velocity": 0.5669291338582677
        },
        {
          "duration": 0.12790697674418539,
          "durationTicks": 11,
          "midi": 96,
          "name": "C7",
          "ticks": 12958,
          "time": 150.67441860465115,
          "velocity": 0.08661417322834646
        },
        {
          "duration": 0.06976744186047767,
          "durationTicks": 6,
          "midi": 90,
          "name": "F#6",
          "ticks": 12964,
          "time": 150.74418604651163,
          "velocity": 0.10236220472440945
        },
        {
          "duration": 0.12790697674418539,
          "durationTicks": 11,
          "midi": 103,
          "name": "G7",
          "ticks": 12964,
          "time": 150.74418604651163,
          "velocity": 0.14960629921259844
        },
        {
          "duration": 0.1046511627907023,
          "durationTicks": 9,
          "midi": 83,
          "name": "B5",
          "ticks": 12968,
          "time": 150.7906976744186,
          "velocity": 0.16535433070866143
        },
        {
          "duration": 0.03488372093025305,
          "durationTicks": 3,
          "midi": 98,
          "name": "D7",
          "ticks": 12969,
          "time": 150.80232558139534,
          "velocity": 0.07874015748031496
        },
        {
          "duration": 0.04651162790696617,
          "durationTicks": 4,
          "midi": 40,
          "name": "E2",
          "ticks": 12970,
          "time": 150.8139534883721,
          "velocity": 0.2677165354330709
        },
        {
          "duration": 0.05813953488370771,
          "durationTicks": 5,
          "midi": 96,
          "name": "C7",
          "ticks": 12971,
          "time": 150.82558139534885,
          "velocity": 0.11023622047244094
        },
        {
          "duration": 0.5930232558139323,
          "durationTicks": 51,
          "midi": 97,
          "name": "C#7",
          "ticks": 12972,
          "time": 150.8372093023256,
          "velocity": 0.28346456692913385
        },
        {
          "duration": 0.05813953488370771,
          "durationTicks": 5,
          "midi": 92,
          "name": "G#6",
          "ticks": 12973,
          "time": 150.84883720930233,
          "velocity": 0.13385826771653545
        },
        {
          "duration": 1.0348837209302246,
          "durationTicks": 89,
          "midi": 40,
          "name": "E2",
          "ticks": 12975,
          "time": 150.87209302325581,
          "velocity": 0.3700787401574803
        },
        {
          "duration": 0.034883720930224626,
          "durationTicks": 3,
          "midi": 78,
          "name": "F#5",
          "ticks": 12975,
          "time": 150.87209302325581,
          "velocity": 0.07874015748031496
        },
        {
          "duration": 0.12790697674418539,
          "durationTicks": 11,
          "midi": 74,
          "name": "D5",
          "ticks": 12978,
          "time": 150.90697674418604,
          "velocity": 0.28346456692913385
        },
        {
          "duration": 0.08139534883721922,
          "durationTicks": 7,
          "midi": 83,
          "name": "B5",
          "ticks": 12979,
          "time": 150.91860465116278,
          "velocity": 0.11811023622047244
        },
        {
          "duration": 0.7674418604651407,
          "durationTicks": 66,
          "midi": 88,
          "name": "E6",
          "ticks": 12980,
          "time": 150.93023255813952,
          "velocity": 0.25984251968503935
        },
        {
          "duration": 0.2093023255814046,
          "durationTicks": 18,
          "midi": 95,
          "name": "B6",
          "ticks": 12980,
          "time": 150.93023255813952,
          "velocity": 0.2125984251968504
        },
        {
          "duration": 0.24418604651162923,
          "durationTicks": 21,
          "midi": 96,
          "name": "C7",
          "ticks": 12980,
          "time": 150.93023255813952,
          "velocity": 0.1732283464566929
        },
        {
          "duration": 0.023255813953483084,
          "durationTicks": 2,
          "midi": 62,
          "name": "D4",
          "ticks": 12981,
          "time": 150.9418604651163,
          "velocity": 0.2440944881889764
        },
        {
          "duration": 0.06976744186044925,
          "durationTicks": 6,
          "midi": 90,
          "name": "F#6",
          "ticks": 12984,
          "time": 150.97674418604652,
          "velocity": 0.1968503937007874
        },
        {
          "duration": 0.04651162790696617,
          "durationTicks": 4,
          "midi": 98,
          "name": "D7",
          "ticks": 12984,
          "time": 150.97674418604652,
          "velocity": 0.11811023622047244
        },
        {
          "duration": 0.09302325581396076,
          "durationTicks": 8,
          "midi": 103,
          "name": "G7",
          "ticks": 12986,
          "time": 151,
          "velocity": 0.11023622047244094
        },
        {
          "duration": 0.2093023255814046,
          "durationTicks": 18,
          "midi": 74,
          "name": "D5",
          "ticks": 12990,
          "time": 151.04651162790697,
          "velocity": 0.25984251968503935
        },
        {
          "duration": 0.17441860465115155,
          "durationTicks": 15,
          "midi": 90,
          "name": "F#6",
          "ticks": 12994,
          "time": 151.09302325581396,
          "velocity": 0.14173228346456693
        },
        {
          "duration": 0.034883720930224626,
          "durationTicks": 3,
          "midi": 103,
          "name": "G7",
          "ticks": 12996,
          "time": 151.11627906976744,
          "velocity": 0.16535433070866143
        },
        {
          "duration": 0.09302325581393234,
          "durationTicks": 8,
          "midi": 103,
          "name": "G7",
          "ticks": 13003,
          "time": 151.19767441860466,
          "velocity": 0.10236220472440945
        },
        {
          "duration": 0.04651162790696617,
          "durationTicks": 4,
          "midi": 95,
          "name": "B6",
          "ticks": 13007,
          "time": 151.24418604651163,
          "velocity": 0.11023622047244094
        },
        {
          "duration": 0.05813953488370771,
          "durationTicks": 5,
          "midi": 96,
          "name": "C7",
          "ticks": 13007,
          "time": 151.24418604651163,
          "velocity": 0.14960629921259844
        },
        {
          "duration": 0.17441860465117998,
          "durationTicks": 15,
          "midi": 74,
          "name": "D5",
          "ticks": 13010,
          "time": 151.27906976744185,
          "velocity": 0.2677165354330709
        },
        {
          "duration": 0.13953488372092693,
          "durationTicks": 12,
          "midi": 62,
          "name": "D4",
          "ticks": 13011,
          "time": 151.2906976744186,
          "velocity": 0.3228346456692913
        },
        {
          "duration": 0.05813953488373613,
          "durationTicks": 5,
          "midi": 92,
          "name": "G#6",
          "ticks": 13011,
          "time": 151.2906976744186,
          "velocity": 0.15748031496062992
        },
        {
          "duration": 0.0813953488371908,
          "durationTicks": 7,
          "midi": 90,
          "name": "F#6",
          "ticks": 13013,
          "time": 151.3139534883721,
          "velocity": 0.13385826771653545
        },
        {
          "duration": 0.05813953488370771,
          "durationTicks": 5,
          "midi": 95,
          "name": "B6",
          "ticks": 13014,
          "time": 151.32558139534885,
          "velocity": 0.11811023622047244
        },
        {
          "duration": 0.04651162790696617,
          "durationTicks": 4,
          "midi": 59,
          "name": "B3",
          "ticks": 13016,
          "time": 151.34883720930233,
          "velocity": 0.15748031496062992
        },
        {
          "duration": 0.11627906976744384,
          "durationTicks": 10,
          "midi": 83,
          "name": "B5",
          "ticks": 13023,
          "time": 151.43023255813952,
          "velocity": 0.1889763779527559
        },
        {
          "duration": 0.09302325581393234,
          "durationTicks": 8,
          "midi": 97,
          "name": "C#7",
          "ticks": 13024,
          "time": 151.4418604651163,
          "velocity": 0.2047244094488189
        },
        {
          "duration": 0.15116279069766847,
          "durationTicks": 13,
          "midi": 93,
          "name": "A6",
          "ticks": 13025,
          "time": 151.45348837209303,
          "velocity": 0.3228346456692913
        },
        {
          "duration": 0.1046511627907023,
          "durationTicks": 9,
          "midi": 74,
          "name": "D5",
          "ticks": 13027,
          "time": 151.47674418604652,
          "velocity": 0.29133858267716534
        },
        {
          "duration": 0.09302325581396076,
          "durationTicks": 8,
          "midi": 92,
          "name": "G#6",
          "ticks": 13028,
          "time": 151.48837209302326,
          "velocity": 0.12598425196850394
        },
        {
          "duration": 0.05813953488370771,
          "durationTicks": 5,
          "midi": 71,
          "name": "B4",
          "ticks": 13029,
          "time": 151.5,
          "velocity": 0.14960629921259844
        },
        {
          "duration": 0.1046511627907023,
          "durationTicks": 9,
          "midi": 90,
          "name": "F#6",
          "ticks": 13031,
          "time": 151.52325581395348,
          "velocity": 0.2047244094488189
        },
        {
          "duration": 0.18604651162792152,
          "durationTicks": 16,
          "midi": 95,
          "name": "B6",
          "ticks": 13033,
          "time": 151.54651162790697,
          "velocity": 0.2047244094488189
        },
        {
          "duration": 0.12790697674418539,
          "durationTicks": 11,
          "midi": 83,
          "name": "B5",
          "ticks": 13035,
          "time": 151.56976744186048,
          "velocity": 0.18110236220472442
        },
        {
          "duration": 0.33720930232556157,
          "durationTicks": 29,
          "midi": 97,
          "name": "C#7",
          "ticks": 13035,
          "time": 151.56976744186048,
          "velocity": 0.18110236220472442
        },
        {
          "duration": 0.3720930232558146,
          "durationTicks": 32,
          "midi": 74,
          "name": "D5",
          "ticks": 13039,
          "time": 151.61627906976744,
          "velocity": 0.28346456692913385
        },
        {
          "duration": 0.24418604651162923,
          "durationTicks": 21,
          "midi": 59,
          "name": "B3",
          "ticks": 13044,
          "time": 151.67441860465115,
          "velocity": 0.3228346456692913
        },
        {
          "duration": 0.11627906976744384,
          "durationTicks": 10,
          "midi": 92,
          "name": "G#6",
          "ticks": 13045,
          "time": 151.6860465116279,
          "velocity": 0.11023622047244094
        },
        {
          "duration": 0.034883720930224626,
          "durationTicks": 3,
          "midi": 90,
          "name": "F#6",
          "ticks": 13049,
          "time": 151.7325581395349,
          "velocity": 0.10236220472440945
        },
        {
          "duration": 0.32558139534884845,
          "durationTicks": 28,
          "midi": 83,
          "name": "B5",
          "ticks": 13050,
          "time": 151.74418604651163,
          "velocity": 0.15748031496062992
        },
        {
          "duration": 0.05813953488370771,
          "durationTicks": 5,
          "midi": 90,
          "name": "F#6",
          "ticks": 13056,
          "time": 151.8139534883721,
          "velocity": 0.1732283464566929
        },
        {
          "duration": 0.05813953488370771,
          "durationTicks": 5,
          "midi": 100,
          "name": "E7",
          "ticks": 13067,
          "time": 151.9418604651163,
          "velocity": 0.08661417322834646
        },
        {
          "duration": 0.05813953488370771,
          "durationTicks": 5,
          "midi": 40,
          "name": "E2",
          "ticks": 13068,
          "time": 151.95348837209303,
          "velocity": 0.15748031496062992
        },
        {
          "duration": 0.04651162790696617,
          "durationTicks": 4,
          "midi": 59,
          "name": "B3",
          "ticks": 13068,
          "time": 151.95348837209303,
          "velocity": 0.13385826771653545
        },
        {
          "duration": 0.034883720930224626,
          "durationTicks": 3,
          "midi": 96,
          "name": "C7",
          "ticks": 13069,
          "time": 151.96511627906978,
          "velocity": 0.07086614173228346
        },
        {
          "duration": 0.034883720930224626,
          "durationTicks": 3,
          "midi": 90,
          "name": "F#6",
          "ticks": 13071,
          "time": 151.98837209302326,
          "velocity": 0.07086614173228346
        },
        {
          "duration": 0.06976744186047767,
          "durationTicks": 6,
          "midi": 71,
          "name": "B4",
          "ticks": 13072,
          "time": 152,
          "velocity": 0.10236220472440945
        },
        {
          "duration": 0.06976744186047767,
          "durationTicks": 6,
          "midi": 40,
          "name": "E2",
          "ticks": 13074,
          "time": 152.02325581395348,
          "velocity": 0.1732283464566929
        },
        {
          "duration": 0.5465116279069946,
          "durationTicks": 47,
          "midi": 74,
          "name": "D5",
          "ticks": 13074,
          "time": 152.02325581395348,
          "velocity": 0.2283464566929134
        },
        {
          "duration": 0.023255813953483084,
          "durationTicks": 2,
          "midi": 69,
          "name": "A4",
          "ticks": 13075,
          "time": 152.03488372093022,
          "velocity": 0.2677165354330709
        },
        {
          "duration": 0.11627906976744384,
          "durationTicks": 10,
          "midi": 90,
          "name": "F#6",
          "ticks": 13076,
          "time": 152.04651162790697,
          "velocity": 0.13385826771653545
        },
        {
          "duration": 0.22093023255811772,
          "durationTicks": 19,
          "midi": 69,
          "name": "A4",
          "ticks": 13078,
          "time": 152.06976744186048,
          "velocity": 0.3858267716535433
        },
        {
          "duration": 0.0813953488371908,
          "durationTicks": 7,
          "midi": 59,
          "name": "B3",
          "ticks": 13081,
          "time": 152.1046511627907,
          "velocity": 0.18110236220472442
        },
        {
          "duration": 0.05813953488370771,
          "durationTicks": 5,
          "midi": 83,
          "name": "B5",
          "ticks": 13082,
          "time": 152.11627906976744,
          "velocity": 0.11811023622047244
        },
        {
          "duration": 0.08139534883721922,
          "durationTicks": 7,
          "midi": 40,
          "name": "E2",
          "ticks": 13086,
          "time": 152.1627906976744,
          "velocity": 0.13385826771653545
        },
        {
          "duration": 0.034883720930224626,
          "durationTicks": 3,
          "midi": 92,
          "name": "G#6",
          "ticks": 13091,
          "time": 152.22093023255815,
          "velocity": 0.07086614173228346
        },
        {
          "duration": 0.06976744186047767,
          "durationTicks": 6,
          "midi": 90,
          "name": "F#6",
          "ticks": 13093,
          "time": 152.24418604651163,
          "velocity": 0.14173228346456693
        },
        {
          "duration": 0.2906976744185954,
          "durationTicks": 25,
          "midi": 59,
          "name": "B3",
          "ticks": 13095,
          "time": 152.2674418604651,
          "velocity": 0.2677165354330709
        },
        {
          "duration": 0.04651162790699459,
          "durationTicks": 4,
          "midi": 68,
          "name": "G#4",
          "ticks": 13095,
          "time": 152.2674418604651,
          "velocity": 0.23622047244094488
        },
        {
          "duration": 0.03488372093025305,
          "durationTicks": 3,
          "midi": 97,
          "name": "C#7",
          "ticks": 13097,
          "time": 152.2906976744186,
          "velocity": 0.09448818897637795
        },
        {
          "duration": 0.06976744186044925,
          "durationTicks": 6,
          "midi": 69,
          "name": "A4",
          "ticks": 13099,
          "time": 152.3139534883721,
          "velocity": 0.3543307086614173
        },
        {
          "duration": 0.534883720930253,
          "durationTicks": 46,
          "midi": 69,
          "name": "A4",
          "ticks": 13107,
          "time": 152.40697674418604,
          "velocity": 0.4094488188976378
        },
        {
          "duration": 0.1046511627907023,
          "durationTicks": 9,
          "midi": 83,
          "name": "B5",
          "ticks": 13107,
          "time": 152.40697674418604,
          "velocity": 0.15748031496062992
        },
        {
          "duration": 0.12790697674418539,
          "durationTicks": 11,
          "midi": 40,
          "name": "E2",
          "ticks": 13110,
          "time": 152.4418604651163,
          "velocity": 0.14960629921259844
        },
        {
          "duration": 0.034883720930224626,
          "durationTicks": 3,
          "midi": 90,
          "name": "F#6",
          "ticks": 13110,
          "time": 152.4418604651163,
          "velocity": 0.11811023622047244
        },
        {
          "duration": 0.04651162790696617,
          "durationTicks": 4,
          "midi": 40,
          "name": "E2",
          "ticks": 13122,
          "time": 152.58139534883722,
          "velocity": 0.12598425196850394
        },
        {
          "duration": 0.12790697674418539,
          "durationTicks": 11,
          "midi": 83,
          "name": "B5",
          "ticks": 13126,
          "time": 152.62790697674419,
          "velocity": 0.12598425196850394
        },
        {
          "duration": 0.08139534883721922,
          "durationTicks": 7,
          "midi": 71,
          "name": "B4",
          "ticks": 13130,
          "time": 152.67441860465115,
          "velocity": 0.07086614173228346
        },
        {
          "duration": 0.05813953488370771,
          "durationTicks": 5,
          "midi": 74,
          "name": "D5",
          "ticks": 13132,
          "time": 152.69767441860466,
          "velocity": 0.10236220472440945
        },
        {
          "duration": 0.19767441860466306,
          "durationTicks": 17,
          "midi": 74,
          "name": "D5",
          "ticks": 13139,
          "time": 152.77906976744185,
          "velocity": 0.13385826771653545
        },
        {
          "duration": 0.1046511627907023,
          "durationTicks": 9,
          "midi": 88,
          "name": "E6",
          "ticks": 13140,
          "time": 152.7906976744186,
          "velocity": 0.11023622047244094
        },
        {
          "duration": 0.034883720930224626,
          "durationTicks": 3,
          "midi": 40,
          "name": "E2",
          "ticks": 13145,
          "time": 152.84883720930233,
          "velocity": 0.12598425196850394
        },
        {
          "duration": 0.40697674418603924,
          "durationTicks": 35,
          "midi": 59,
          "name": "B3",
          "ticks": 13148,
          "time": 152.88372093023256,
          "velocity": 0.18110236220472442
        },
        {
          "duration": 0.05813953488370771,
          "durationTicks": 5,
          "midi": 40,
          "name": "E2",
          "ticks": 13153,
          "time": 152.9418604651163,
          "velocity": 0.1968503937007874
        },
        {
          "duration": 0.034883720930224626,
          "durationTicks": 3,
          "midi": 68,
          "name": "G#4",
          "ticks": 13153,
          "time": 152.9418604651163,
          "velocity": 0.14960629921259844
        },
        {
          "duration": 0.24418604651162923,
          "durationTicks": 21,
          "midi": 69,
          "name": "A4",
          "ticks": 13155,
          "time": 152.96511627906978,
          "velocity": 0.25984251968503935
        },
        {
          "duration": 0.13953488372092693,
          "durationTicks": 12,
          "midi": 40,
          "name": "E2",
          "ticks": 13160,
          "time": 153.02325581395348,
          "velocity": 0.1889763779527559
        },
        {
          "duration": 0.09302325581396076,
          "durationTicks": 8,
          "midi": 74,
          "name": "D5",
          "ticks": 13161,
          "time": 153.03488372093022,
          "velocity": 0.14960629921259844
        },
        {
          "duration": 0.8139534883721069,
          "durationTicks": 70,
          "midi": 52,
          "name": "E3",
          "ticks": 13163,
          "time": 153.0581395348837,
          "velocity": 0.30708661417322836
        },
        {
          "duration": 0.06976744186047767,
          "durationTicks": 6,
          "midi": 88,
          "name": "E6",
          "ticks": 13163,
          "time": 153.0581395348837,
          "velocity": 0.13385826771653545
        },
        {
          "duration": 0.05813953488373613,
          "durationTicks": 5,
          "midi": 83,
          "name": "B5",
          "ticks": 13172,
          "time": 153.1627906976744,
          "velocity": 0.09448818897637795
        },
        {
          "duration": 0.08139534883721922,
          "durationTicks": 7,
          "midi": 88,
          "name": "E6",
          "ticks": 13173,
          "time": 153.17441860465115,
          "velocity": 0.14960629921259844
        },
        {
          "duration": 0.04651162790699459,
          "durationTicks": 4,
          "midi": 40,
          "name": "E2",
          "ticks": 13174,
          "time": 153.1860465116279,
          "velocity": 0.11811023622047244
        },
        {
          "duration": 0.034883720930224626,
          "durationTicks": 3,
          "midi": 68,
          "name": "G#4",
          "ticks": 13176,
          "time": 153.2093023255814,
          "velocity": 0.07874015748031496
        },
        {
          "duration": 0.06976744186047767,
          "durationTicks": 6,
          "midi": 40,
          "name": "E2",
          "ticks": 13180,
          "time": 153.25581395348837,
          "velocity": 0.12598425196850394
        },
        {
          "duration": 0.6046511627907023,
          "durationTicks": 52,
          "midi": 69,
          "name": "A4",
          "ticks": 13181,
          "time": 153.2674418604651,
          "velocity": 0.33070866141732286
        },
        {
          "duration": 0.06976744186047767,
          "durationTicks": 6,
          "midi": 74,
          "name": "D5",
          "ticks": 13183,
          "time": 153.2906976744186,
          "velocity": 0.07874015748031496
        },
        {
          "duration": 0.1860465116278931,
          "durationTicks": 16,
          "midi": 40,
          "name": "E2",
          "ticks": 13187,
          "time": 153.3372093023256,
          "velocity": 0.1889763779527559
        },
        {
          "duration": 0.18604651162792152,
          "durationTicks": 16,
          "midi": 83,
          "name": "B5",
          "ticks": 13192,
          "time": 153.3953488372093,
          "velocity": 0.08661417322834646
        },
        {
          "duration": 0.2325581395348877,
          "durationTicks": 20,
          "midi": 40,
          "name": "E2",
          "ticks": 13204,
          "time": 153.53488372093022,
          "velocity": 0.1732283464566929
        },
        {
          "duration": 0.33720930232559,
          "durationTicks": 29,
          "midi": 40,
          "name": "E2",
          "ticks": 13225,
          "time": 153.77906976744185,
          "velocity": 0.18110236220472442
        },
        {
          "duration": 0.7325581395348877,
          "durationTicks": 63,
          "midi": 64,
          "name": "E4",
          "ticks": 13233,
          "time": 153.87209302325581,
          "velocity": 0.29133858267716534
        },
        {
          "duration": 0.5697674418604777,
          "durationTicks": 49,
          "midi": 69,
          "name": "A4",
          "ticks": 13235,
          "time": 153.8953488372093,
          "velocity": 0.2992125984251969
        },
        {
          "duration": 0.38372093023255616,
          "durationTicks": 33,
          "midi": 52,
          "name": "E3",
          "ticks": 13250,
          "time": 154.06976744186048,
          "velocity": 0.33070866141732286
        },
        {
          "duration": 0.13953488372095535,
          "durationTicks": 12,
          "midi": 59,
          "name": "B3",
          "ticks": 13270,
          "time": 154.30232558139534,
          "velocity": 0.08661417322834646
        },
        {
          "duration": 0.034883720930224626,
          "durationTicks": 3,
          "midi": 40,
          "name": "E2",
          "ticks": 13278,
          "time": 154.3953488372093,
          "velocity": 0.14960629921259844
        },
        {
          "duration": 0.011627906976741542,
          "durationTicks": 1,
          "midi": 49,
          "name": "C#3",
          "ticks": 13284,
          "time": 154.46511627906978,
          "velocity": 0.5275590551181102
        },
        {
          "duration": 0.034883720930224626,
          "durationTicks": 3,
          "midi": 68,
          "name": "G#4",
          "ticks": 13284,
          "time": 154.46511627906978,
          "velocity": 0.25984251968503935
        },
        {
          "duration": 0.011627906976741542,
          "durationTicks": 1,
          "midi": 50,
          "name": "D3",
          "ticks": 13285,
          "time": 154.47674418604652,
          "velocity": 0.6614173228346457
        },
        {
          "duration": 0.023255813953483084,
          "durationTicks": 2,
          "midi": 60,
          "name": "C4",
          "ticks": 13285,
          "time": 154.47674418604652,
          "velocity": 0.3779527559055118
        },
        {
          "duration": 0.023255813953483084,
          "durationTicks": 2,
          "midi": 49,
          "name": "C#3",
          "ticks": 13286,
          "time": 154.48837209302326,
          "velocity": 0.6377952755905512
        },
        {
          "duration": 0.17441860465115155,
          "durationTicks": 15,
          "midi": 69,
          "name": "A4",
          "ticks": 13286,
          "time": 154.48837209302326,
          "velocity": 0.2440944881889764
        },
        {
          "duration": 0.04651162790696617,
          "durationTicks": 4,
          "midi": 48,
          "name": "C3",
          "ticks": 13288,
          "time": 154.51162790697674,
          "velocity": 0.48031496062992124
        },
        {
          "duration": 0.06976744186047767,
          "durationTicks": 6,
          "midi": 58,
          "name": "A#3",
          "ticks": 13288,
          "time": 154.51162790697674,
          "velocity": 0.28346456692913385
        },
        {
          "duration": 0.05813953488370771,
          "durationTicks": 5,
          "midi": 51,
          "name": "D#3",
          "ticks": 13294,
          "time": 154.58139534883722,
          "velocity": 0.48031496062992124
        },
        {
          "duration": 0.06976744186044925,
          "durationTicks": 6,
          "midi": 67,
          "name": "G4",
          "ticks": 13294,
          "time": 154.58139534883722,
          "velocity": 0.16535433070866143
        },
        {
          "duration": 0.034883720930224626,
          "durationTicks": 3,
          "midi": 58,
          "name": "A#3",
          "ticks": 13296,
          "time": 154.6046511627907,
          "velocity": 0.1732283464566929
        },
        {
          "duration": 0.7674418604651123,
          "durationTicks": 66,
          "midi": 63,
          "name": "D#4",
          "ticks": 13296,
          "time": 154.6046511627907,
          "velocity": 0.5354330708661418
        },
        {
          "duration": 0.04651162790696617,
          "durationTicks": 4,
          "midi": 72,
          "name": "C5",
          "ticks": 13296,
          "time": 154.6046511627907,
          "velocity": 0.07086614173228346
        },
        {
          "duration": 0.023255813953483084,
          "durationTicks": 2,
          "midi": 52,
          "name": "E3",
          "ticks": 13299,
          "time": 154.63953488372093,
          "velocity": 0.3543307086614173
        },
        {
          "duration": 0.023255813953511506,
          "durationTicks": 2,
          "midi": 50,
          "name": "D3",
          "ticks": 13302,
          "time": 154.67441860465115,
          "velocity": 0.48031496062992124
        },
        {
          "duration": 0.04651162790699459,
          "durationTicks": 4,
          "midi": 67,
          "name": "G4",
          "ticks": 13303,
          "time": 154.6860465116279,
          "velocity": 0.11023622047244094
        },
        {
          "duration": 0.05813953488370771,
          "durationTicks": 5,
          "midi": 69,
          "name": "A4",
          "ticks": 13304,
          "time": 154.69767441860466,
          "velocity": 0.12598425196850394
        },
        {
          "duration": 0.034883720930224626,
          "durationTicks": 3,
          "midi": 37,
          "name": "C#2",
          "ticks": 13306,
          "time": 154.72093023255815,
          "velocity": 0.14960629921259844
        },
        {
          "duration": 0.1046511627907023,
          "durationTicks": 9,
          "midi": 51,
          "name": "D#3",
          "ticks": 13306,
          "time": 154.72093023255815,
          "velocity": 0.4566929133858268
        },
        {
          "duration": 0.04651162790699459,
          "durationTicks": 4,
          "midi": 40,
          "name": "E2",
          "ticks": 13310,
          "time": 154.7674418604651,
          "velocity": 0.14960629921259844
        },
        {
          "duration": 0.06976744186047767,
          "durationTicks": 6,
          "midi": 69,
          "name": "A4",
          "ticks": 13311,
          "time": 154.77906976744185,
          "velocity": 0.1732283464566929
        },
        {
          "duration": 0.023255813953483084,
          "durationTicks": 2,
          "midi": 39,
          "name": "D#2",
          "ticks": 13316,
          "time": 154.8372093023256,
          "velocity": 0.2677165354330709
        },
        {
          "duration": 0.034883720930224626,
          "durationTicks": 3,
          "midi": 51,
          "name": "D#3",
          "ticks": 13316,
          "time": 154.8372093023256,
          "velocity": 0.4330708661417323
        },
        {
          "duration": 0.5581395348837077,
          "durationTicks": 48,
          "midi": 66,
          "name": "F#4",
          "ticks": 13317,
          "time": 154.84883720930233,
          "velocity": 0.44881889763779526
        },
        {
          "duration": 0.06976744186044925,
          "durationTicks": 6,
          "midi": 40,
          "name": "E2",
          "ticks": 13318,
          "time": 154.86046511627907,
          "velocity": 0.25196850393700787
        },
        {
          "duration": 0.16279069767441,
          "durationTicks": 14,
          "midi": 51,
          "name": "D#3",
          "ticks": 13320,
          "time": 154.88372093023256,
          "velocity": 0.47244094488188976
        },
        {
          "duration": 1.7325581395348593,
          "durationTicks": 149,
          "midi": 69,
          "name": "A4",
          "ticks": 13325,
          "time": 154.9418604651163,
          "velocity": 0.4330708661417323
        },
        {
          "duration": 0.04651162790696617,
          "durationTicks": 4,
          "midi": 58,
          "name": "A#3",
          "ticks": 13326,
          "time": 154.95348837209303,
          "velocity": 0.2440944881889764
        },
        {
          "duration": 0.09302325581396076,
          "durationTicks": 8,
          "midi": 58,
          "name": "A#3",
          "ticks": 13331,
          "time": 155.01162790697674,
          "velocity": 0.29133858267716534
        },
        {
          "duration": 0.023255813953511506,
          "durationTicks": 2,
          "midi": 39,
          "name": "D#2",
          "ticks": 13335,
          "time": 155.0581395348837,
          "velocity": 0.2440944881889764
        },
        {
          "duration": 8.023255813953512,
          "durationTicks": 690,
          "midi": 51,
          "name": "D#3",
          "ticks": 13335,
          "time": 155.0581395348837,
          "velocity": 0.5354330708661418
        },
        {
          "duration": 0.034883720930224626,
          "durationTicks": 3,
          "midi": 40,
          "name": "E2",
          "ticks": 13337,
          "time": 155.08139534883722,
          "velocity": 0.28346456692913385
        },
        {
          "duration": 0.023255813953483084,
          "durationTicks": 2,
          "midi": 39,
          "name": "D#2",
          "ticks": 13340,
          "time": 155.11627906976744,
          "velocity": 0.28346456692913385
        },
        {
          "duration": 0.04651162790696617,
          "durationTicks": 4,
          "midi": 59,
          "name": "B3",
          "ticks": 13341,
          "time": 155.12790697674419,
          "velocity": 0.31496062992125984
        },
        {
          "duration": 0.04651162790699459,
          "durationTicks": 4,
          "midi": 39,
          "name": "D#2",
          "ticks": 13343,
          "time": 155.15116279069767,
          "velocity": 0.2677165354330709
        },
        {
          "duration": 0.4186046511628092,
          "durationTicks": 36,
          "midi": 72,
          "name": "C5",
          "ticks": 13343,
          "time": 155.15116279069767,
          "velocity": 0.4094488188976378
        },
        {
          "duration": 0.03488372093025305,
          "durationTicks": 3,
          "midi": 59,
          "name": "B3",
          "ticks": 13346,
          "time": 155.1860465116279,
          "velocity": 0.33070866141732286
        },
        {
          "duration": 0.06976744186044925,
          "durationTicks": 6,
          "midi": 59,
          "name": "B3",
          "ticks": 13350,
          "time": 155.2325581395349,
          "velocity": 0.23622047244094488
        },
        {
          "duration": 0.023255813953483084,
          "durationTicks": 2,
          "midi": 40,
          "name": "E2",
          "ticks": 13357,
          "time": 155.3139534883721,
          "velocity": 0.28346456692913385
        },
        {
          "duration": 3.6162790697674154,
          "durationTicks": 311,
          "midi": 59,
          "name": "B3",
          "ticks": 13357,
          "time": 155.3139534883721,
          "velocity": 0.48031496062992124
        },
        {
          "duration": 0.09302325581393234,
          "durationTicks": 8,
          "midi": 39,
          "name": "D#2",
          "ticks": 13359,
          "time": 155.3372093023256,
          "velocity": 0.2755905511811024
        },
        {
          "duration": 0.023255813953483084,
          "durationTicks": 2,
          "midi": 67,
          "name": "G4",
          "ticks": 13365,
          "time": 155.40697674418604,
          "velocity": 0.23622047244094488
        },
        {
          "duration": 0.034883720930224626,
          "durationTicks": 3,
          "midi": 39,
          "name": "D#2",
          "ticks": 13368,
          "time": 155.4418604651163,
          "velocity": 0.1968503937007874
        },
        {
          "duration": 0.12790697674418539,
          "durationTicks": 11,
          "midi": 39,
          "name": "D#2",
          "ticks": 13372,
          "time": 155.48837209302326,
          "velocity": 0.25984251968503935
        },
        {
          "duration": 0.023255813953483084,
          "durationTicks": 2,
          "midi": 67,
          "name": "G4",
          "ticks": 13375,
          "time": 155.52325581395348,
          "velocity": 0.23622047244094488
        },
        {
          "duration": 0.8139534883721069,
          "durationTicks": 70,
          "midi": 78,
          "name": "F#5",
          "ticks": 13377,
          "time": 155.54651162790697,
          "velocity": 0.2755905511811024
        },
        {
          "duration": 0.04651162790699459,
          "durationTicks": 4,
          "midi": 67,
          "name": "G4",
          "ticks": 13378,
          "time": 155.5581395348837,
          "velocity": 0.2204724409448819
        },
        {
          "duration": 0.13953488372092693,
          "durationTicks": 12,
          "midi": 67,
          "name": "G4",
          "ticks": 13383,
          "time": 155.61627906976744,
          "velocity": 0.2755905511811024
        },
        {
          "duration": 0.4651162790697754,
          "durationTicks": 40,
          "midi": 39,
          "name": "D#2",
          "ticks": 13384,
          "time": 155.62790697674419,
          "velocity": 0.30708661417322836
        },
        {
          "duration": 0.03488372093025305,
          "durationTicks": 3,
          "midi": 72,
          "name": "C5",
          "ticks": 13387,
          "time": 155.6627906976744,
          "velocity": 0.1889763779527559
        },
        {
          "duration": 0.023255813953483084,
          "durationTicks": 2,
          "midi": 67,
          "name": "G4",
          "ticks": 13397,
          "time": 155.77906976744185,
          "velocity": 0.2755905511811024
        },
        {
          "duration": 0.11627906976744384,
          "durationTicks": 10,
          "midi": 66,
          "name": "F#4",
          "ticks": 13399,
          "time": 155.80232558139534,
          "velocity": 0.29133858267716534
        },
        {
          "duration": 0.04651162790699459,
          "durationTicks": 4,
          "midi": 72,
          "name": "C5",
          "ticks": 13399,
          "time": 155.80232558139534,
          "velocity": 0.2125984251968504
        },
        {
          "duration": 0.05813953488370771,
          "durationTicks": 5,
          "midi": 97,
          "name": "C#7",
          "ticks": 13404,
          "time": 155.86046511627907,
          "velocity": 0.08661417322834646
        },
        {
          "duration": 0.15116279069766847,
          "durationTicks": 13,
          "midi": 85,
          "name": "C#6",
          "ticks": 13408,
          "time": 155.90697674418604,
          "velocity": 0.13385826771653545
        },
        {
          "duration": 0.08139534883721922,
          "durationTicks": 7,
          "midi": 94,
          "name": "A#6",
          "ticks": 13408,
          "time": 155.90697674418604,
          "velocity": 0.07874015748031496
        },
        {
          "duration": 0.15116279069766847,
          "durationTicks": 13,
          "midi": 66,
          "name": "F#4",
          "ticks": 13413,
          "time": 155.96511627906978,
          "velocity": 0.2204724409448819
        },
        {
          "duration": 0.43023255813955075,
          "durationTicks": 37,
          "midi": 94,
          "name": "A#6",
          "ticks": 13418,
          "time": 156.02325581395348,
          "velocity": 0.1889763779527559
        },
        {
          "duration": 0.04651162790696617,
          "durationTicks": 4,
          "midi": 97,
          "name": "C#7",
          "ticks": 13423,
          "time": 156.08139534883722,
          "velocity": 0.08661417322834646
        },
        {
          "duration": 0.05813953488370771,
          "durationTicks": 5,
          "midi": 85,
          "name": "C#6",
          "ticks": 13424,
          "time": 156.09302325581396,
          "velocity": 0.14960629921259844
        },
        {
          "duration": 1.4069767441860392,
          "durationTicks": 121,
          "midi": 39,
          "name": "D#2",
          "ticks": 13425,
          "time": 156.1046511627907,
          "velocity": 0.3779527559055118
        },
        {
          "duration": 0.08139534883721922,
          "durationTicks": 7,
          "midi": 67,
          "name": "G4",
          "ticks": 13429,
          "time": 156.15116279069767,
          "velocity": 0.28346456692913385
        },
        {
          "duration": 0.034883720930224626,
          "durationTicks": 3,
          "midi": 88,
          "name": "E6",
          "ticks": 13437,
          "time": 156.24418604651163,
          "velocity": 0.07874015748031496
        },
        {
          "duration": 0.04651162790699459,
          "durationTicks": 4,
          "midi": 66,
          "name": "F#4",
          "ticks": 13439,
          "time": 156.2674418604651,
          "velocity": 0.2677165354330709
        },
        {
          "duration": 0.03488372093025305,
          "durationTicks": 3,
          "midi": 85,
          "name": "C#6",
          "ticks": 13440,
          "time": 156.27906976744185,
          "velocity": 0.08661417322834646
        },
        {
          "duration": 0.034883720930224626,
          "durationTicks": 3,
          "midi": 66,
          "name": "F#4",
          "ticks": 13444,
          "time": 156.32558139534885,
          "velocity": 0.2125984251968504
        },
        {
          "duration": 0.0813953488371908,
          "durationTicks": 7,
          "midi": 85,
          "name": "C#6",
          "ticks": 13444,
          "time": 156.32558139534885,
          "velocity": 0.12598425196850394
        },
        {
          "duration": 0.04651162790696617,
          "durationTicks": 4,
          "midi": 66,
          "name": "F#4",
          "ticks": 13448,
          "time": 156.37209302325581,
          "velocity": 0.3228346456692913
        },
        {
          "duration": 0.08139534883721922,
          "durationTicks": 7,
          "midi": 88,
          "name": "E6",
          "ticks": 13452,
          "time": 156.41860465116278,
          "velocity": 0.11811023622047244
        },
        {
          "duration": 0.08139534883721922,
          "durationTicks": 7,
          "midi": 83,
          "name": "B5",
          "ticks": 13453,
          "time": 156.43023255813952,
          "velocity": 0.14960629921259844
        },
        {
          "duration": 0.17441860465115155,
          "durationTicks": 15,
          "midi": 85,
          "name": "C#6",
          "ticks": 13455,
          "time": 156.45348837209303,
          "velocity": 0.14173228346456693
        },
        {
          "duration": 0.19767441860463464,
          "durationTicks": 17,
          "midi": 78,
          "name": "F#5",
          "ticks": 13457,
          "time": 156.47674418604652,
          "velocity": 0.2440944881889764
        },
        {
          "duration": 0.034883720930224626,
          "durationTicks": 3,
          "midi": 87,
          "name": "D#6",
          "ticks": 13459,
          "time": 156.5,
          "velocity": 0.09448818897637795
        },
        {
          "duration": 0.22093023255814614,
          "durationTicks": 19,
          "midi": 94,
          "name": "A#6",
          "ticks": 13459,
          "time": 156.5,
          "velocity": 0.2125984251968504
        },
        {
          "duration": 0.03488372093025305,
          "durationTicks": 3,
          "midi": 67,
          "name": "G4",
          "ticks": 13462,
          "time": 156.53488372093022,
          "velocity": 0.3464566929133858
        },
        {
          "duration": 0.09302325581393234,
          "durationTicks": 8,
          "midi": 66,
          "name": "F#4",
          "ticks": 13465,
          "time": 156.56976744186048,
          "velocity": 0.3779527559055118
        },
        {
          "duration": 0.09302325581393234,
          "durationTicks": 8,
          "midi": 87,
          "name": "D#6",
          "ticks": 13465,
          "time": 156.56976744186048,
          "velocity": 0.11811023622047244
        },
        {
          "duration": 0.13953488372092693,
          "durationTicks": 12,
          "midi": 67,
          "name": "G4",
          "ticks": 13473,
          "time": 156.6627906976744,
          "velocity": 0.31496062992125984
        },
        {
          "duration": 0.08139534883721922,
          "durationTicks": 7,
          "midi": 85,
          "name": "C#6",
          "ticks": 13473,
          "time": 156.6627906976744,
          "velocity": 0.2125984251968504
        },
        {
          "duration": 0.05813953488373613,
          "durationTicks": 5,
          "midi": 77,
          "name": "F5",
          "ticks": 13474,
          "time": 156.67441860465115,
          "velocity": 0.10236220472440945
        },
        {
          "duration": 1.4069767441860677,
          "durationTicks": 121,
          "midi": 81,
          "name": "A5",
          "ticks": 13474,
          "time": 156.67441860465115,
          "velocity": 0.36220472440944884
        },
        {
          "duration": 0.4767441860465169,
          "durationTicks": 41,
          "midi": 90,
          "name": "F#6",
          "ticks": 13474,
          "time": 156.67441860465115,
          "velocity": 0.25196850393700787
        },
        {
          "duration": 0.023255813953483084,
          "durationTicks": 2,
          "midi": 69,
          "name": "A4",
          "ticks": 13479,
          "time": 156.7325581395349,
          "velocity": 0.30708661417322836
        },
        {
          "duration": 0.2674418604651123,
          "durationTicks": 23,
          "midi": 78,
          "name": "F#5",
          "ticks": 13479,
          "time": 156.7325581395349,
          "velocity": 0.2677165354330709
        },
        {
          "duration": 0.06976744186047767,
          "durationTicks": 6,
          "midi": 94,
          "name": "A#6",
          "ticks": 13480,
          "time": 156.74418604651163,
          "velocity": 0.1889763779527559
        },
        {
          "duration": 0.09302325581396076,
          "durationTicks": 8,
          "midi": 87,
          "name": "D#6",
          "ticks": 13481,
          "time": 156.75581395348837,
          "velocity": 0.14173228346456693
        },
        {
          "duration": 0.15116279069766847,
          "durationTicks": 13,
          "midi": 69,
          "name": "A4",
          "ticks": 13482,
          "time": 156.7674418604651,
          "velocity": 0.36220472440944884
        },
        {
          "duration": 0.034883720930224626,
          "durationTicks": 3,
          "midi": 83,
          "name": "B5",
          "ticks": 13482,
          "time": 156.7674418604651,
          "velocity": 0.10236220472440945
        },
        {
          "duration": 0.04651162790696617,
          "durationTicks": 4,
          "midi": 67,
          "name": "G4",
          "ticks": 13486,
          "time": 156.8139534883721,
          "velocity": 0.3858267716535433
        },
        {
          "duration": 0.04651162790696617,
          "durationTicks": 4,
          "midi": 83,
          "name": "B5",
          "ticks": 13487,
          "time": 156.82558139534885,
          "velocity": 0.07086614173228346
        },
        {
          "duration": 0.22093023255814614,
          "durationTicks": 19,
          "midi": 85,
          "name": "C#6",
          "ticks": 13489,
          "time": 156.84883720930233,
          "velocity": 0.1889763779527559
        },
        {
          "duration": 0.3139534883720785,
          "durationTicks": 27,
          "midi": 94,
          "name": "A#6",
          "ticks": 13489,
          "time": 156.84883720930233,
          "velocity": 0.2047244094488189
        },
        {
          "duration": 0.19767441860466306,
          "durationTicks": 17,
          "midi": 67,
          "name": "G4",
          "ticks": 13491,
          "time": 156.87209302325581,
          "velocity": 0.33858267716535434
        },
        {
          "duration": 0.11627906976744384,
          "durationTicks": 10,
          "midi": 88,
          "name": "E6",
          "ticks": 13493,
          "time": 156.8953488372093,
          "velocity": 0.1889763779527559
        },
        {
          "duration": 0.0813953488371908,
          "durationTicks": 7,
          "midi": 87,
          "name": "D#6",
          "ticks": 13498,
          "time": 156.95348837209303,
          "velocity": 0.16535433070866143
        },
        {
          "duration": 0.15116279069766847,
          "durationTicks": 13,
          "midi": 69,
          "name": "A4",
          "ticks": 13501,
          "time": 156.98837209302326,
          "velocity": 0.3858267716535433
        },
        {
          "duration": 0.06976744186044925,
          "durationTicks": 6,
          "midi": 77,
          "name": "F5",
          "ticks": 13501,
          "time": 156.98837209302326,
          "velocity": 0.1732283464566929
        },
        {
          "duration": 0.05813953488373613,
          "durationTicks": 5,
          "midi": 83,
          "name": "B5",
          "ticks": 13504,
          "time": 157.02325581395348,
          "velocity": 0.07086614173228346
        },
        {
          "duration": 1.151162790697697,
          "durationTicks": 99,
          "midi": 95,
          "name": "B6",
          "ticks": 13506,
          "time": 157.04651162790697,
          "velocity": 0.2283464566929134
        },
        {
          "duration": 0.08139534883721922,
          "durationTicks": 7,
          "midi": 78,
          "name": "F#5",
          "ticks": 13507,
          "time": 157.0581395348837,
          "velocity": 0.2047244094488189
        },
        {
          "duration": 0.12790697674418539,
          "durationTicks": 11,
          "midi": 100,
          "name": "E7",
          "ticks": 13510,
          "time": 157.09302325581396,
          "velocity": 0.18110236220472442
        },
        {
          "duration": 0.17441860465115155,
          "durationTicks": 15,
          "midi": 79,
          "name": "G5",
          "ticks": 13511,
          "time": 157.1046511627907,
          "velocity": 0.14960629921259844
        },
        {
          "duration": 0.05813953488370771,
          "durationTicks": 5,
          "midi": 87,
          "name": "D#6",
          "ticks": 13511,
          "time": 157.1046511627907,
          "velocity": 0.14173228346456693
        },
        {
          "duration": 0.17441860465115155,
          "durationTicks": 15,
          "midi": 88,
          "name": "E6",
          "ticks": 13511,
          "time": 157.1046511627907,
          "velocity": 0.1889763779527559
        },
        {
          "duration": 0.04651162790696617,
          "durationTicks": 4,
          "midi": 103,
          "name": "G7",
          "ticks": 13512,
          "time": 157.11627906976744,
          "velocity": 0.07874015748031496
        },
        {
          "duration": 0.05813953488370771,
          "durationTicks": 5,
          "midi": 67,
          "name": "G4",
          "ticks": 13513,
          "time": 157.12790697674419,
          "velocity": 0.33858267716535434
        },
        {
          "duration": 0.6511627906976685,
          "durationTicks": 56,
          "midi": 69,
          "name": "A4",
          "ticks": 13515,
          "time": 157.15116279069767,
          "velocity": 0.5118110236220472
        },
        {
          "duration": 0.06976744186047767,
          "durationTicks": 6,
          "midi": 78,
          "name": "F#5",
          "ticks": 13515,
          "time": 157.15116279069767,
          "velocity": 0.12598425196850394
        },
        {
          "duration": 0.16279069767443843,
          "durationTicks": 14,
          "midi": 85,
          "name": "C#6",
          "ticks": 13515,
          "time": 157.15116279069767,
          "velocity": 0.1889763779527559
        },
        {
          "duration": 0.11627906976744384,
          "durationTicks": 10,
          "midi": 87,
          "name": "D#6",
          "ticks": 13518,
          "time": 157.1860465116279,
          "velocity": 0.1732283464566929
        },
        {
          "duration": 0.1046511627907023,
          "durationTicks": 9,
          "midi": 90,
          "name": "F#6",
          "ticks": 13518,
          "time": 157.1860465116279,
          "velocity": 0.2204724409448819
        },
        {
          "duration": 0.17441860465117998,
          "durationTicks": 15,
          "midi": 97,
          "name": "C#7",
          "ticks": 13518,
          "time": 157.1860465116279,
          "velocity": 0.23622047244094488
        },
        {
          "duration": 0.034883720930224626,
          "durationTicks": 3,
          "midi": 67,
          "name": "G4",
          "ticks": 13519,
          "time": 157.19767441860466,
          "velocity": 0.30708661417322836
        },
        {
          "duration": 0.5232558139534831,
          "durationTicks": 45,
          "midi": 94,
          "name": "A#6",
          "ticks": 13519,
          "time": 157.19767441860466,
          "velocity": 0.2283464566929134
        },
        {
          "duration": 0.20930232558137618,
          "durationTicks": 18,
          "midi": 83,
          "name": "B5",
          "ticks": 13520,
          "time": 157.2093023255814,
          "velocity": 0.1889763779527559
        },
        {
          "duration": 0.023255813953483084,
          "durationTicks": 2,
          "midi": 66,
          "name": "F#4",
          "ticks": 13522,
          "time": 157.2325581395349,
          "velocity": 0.2283464566929134
        },
        {
          "duration": 0.034883720930224626,
          "durationTicks": 3,
          "midi": 67,
          "name": "G4",
          "ticks": 13524,
          "time": 157.25581395348837,
          "velocity": 0.36220472440944884
        },
        {
          "duration": 0.03488372093025305,
          "durationTicks": 3,
          "midi": 78,
          "name": "F#5",
          "ticks": 13526,
          "time": 157.27906976744185,
          "velocity": 0.1968503937007874
        },
        {
          "duration": 0.12790697674418539,
          "durationTicks": 11,
          "midi": 66,
          "name": "F#4",
          "ticks": 13527,
          "time": 157.2906976744186,
          "velocity": 0.4251968503937008
        },
        {
          "duration": 0.2093023255814046,
          "durationTicks": 18,
          "midi": 90,
          "name": "F#6",
          "ticks": 13528,
          "time": 157.30232558139534,
          "velocity": 0.23622047244094488
        },
        {
          "duration": 0.034883720930224626,
          "durationTicks": 3,
          "midi": 77,
          "name": "F5",
          "ticks": 13529,
          "time": 157.3139534883721,
          "velocity": 0.13385826771653545
        },
        {
          "duration": 0.034883720930224626,
          "durationTicks": 3,
          "midi": 87,
          "name": "D#6",
          "ticks": 13530,
          "time": 157.32558139534885,
          "velocity": 0.11023622047244094
        },
        {
          "duration": 0.16279069767441,
          "durationTicks": 14,
          "midi": 88,
          "name": "E6",
          "ticks": 13531,
          "time": 157.3372093023256,
          "velocity": 0.1732283464566929
        },
        {
          "duration": 0.12790697674418539,
          "durationTicks": 11,
          "midi": 100,
          "name": "E7",
          "ticks": 13531,
          "time": 157.3372093023256,
          "velocity": 0.2755905511811024
        },
        {
          "duration": 0.1046511627907023,
          "durationTicks": 9,
          "midi": 92,
          "name": "G#6",
          "ticks": 13532,
          "time": 157.34883720930233,
          "velocity": 0.11811023622047244
        },
        {
          "duration": 0.0813953488371908,
          "durationTicks": 7,
          "midi": 103,
          "name": "G7",
          "ticks": 13532,
          "time": 157.34883720930233,
          "velocity": 0.14960629921259844
        },
        {
          "duration": 0.09302325581396076,
          "durationTicks": 8,
          "midi": 85,
          "name": "C#6",
          "ticks": 13533,
          "time": 157.36046511627907,
          "velocity": 0.18110236220472442
        },
        {
          "duration": 0.9186046511627808,
          "durationTicks": 79,
          "midi": 97,
          "name": "C#7",
          "ticks": 13534,
          "time": 157.37209302325581,
          "velocity": 0.25984251968503935
        },
        {
          "duration": 0.04651162790696617,
          "durationTicks": 4,
          "midi": 87,
          "name": "D#6",
          "ticks": 13535,
          "time": 157.38372093023256,
          "velocity": 0.2047244094488189
        },
        {
          "duration": 0.04651162790699459,
          "durationTicks": 4,
          "midi": 67,
          "name": "G4",
          "ticks": 13538,
          "time": 157.41860465116278,
          "velocity": 0.36220472440944884
        },
        {
          "duration": 0.0813953488371908,
          "durationTicks": 7,
          "midi": 83,
          "name": "B5",
          "ticks": 13540,
          "time": 157.4418604651163,
          "velocity": 0.18110236220472442
        },
        {
          "duration": 0.19767441860463464,
          "durationTicks": 17,
          "midi": 75,
          "name": "D#5",
          "ticks": 13542,
          "time": 157.46511627906978,
          "velocity": 0.11811023622047244
        },
        {
          "duration": 0.22093023255811772,
          "durationTicks": 19,
          "midi": 85,
          "name": "C#6",
          "ticks": 13542,
          "time": 157.46511627906978,
          "velocity": 0.2204724409448819
        },
        {
          "duration": 0.32558139534882,
          "durationTicks": 28,
          "midi": 87,
          "name": "D#6",
          "ticks": 13542,
          "time": 157.46511627906978,
          "velocity": 0.1968503937007874
        },
        {
          "duration": 0.034883720930224626,
          "durationTicks": 3,
          "midi": 77,
          "name": "F5",
          "ticks": 13543,
          "time": 157.47674418604652,
          "velocity": 0.14960629921259844
        },
        {
          "duration": 0.034883720930224626,
          "durationTicks": 3,
          "midi": 67,
          "name": "G4",
          "ticks": 13544,
          "time": 157.48837209302326,
          "velocity": 0.33858267716535434
        },
        {
          "duration": 0.12790697674418539,
          "durationTicks": 11,
          "midi": 78,
          "name": "F#5",
          "ticks": 13545,
          "time": 157.5,
          "velocity": 0.31496062992125984
        },
        {
          "duration": 0.22093023255814614,
          "durationTicks": 19,
          "midi": 39,
          "name": "D#2",
          "ticks": 13547,
          "time": 157.52325581395348,
          "velocity": 0.25196850393700787
        },
        {
          "duration": 0.1046511627907023,
          "durationTicks": 9,
          "midi": 100,
          "name": "E7",
          "ticks": 13549,
          "time": 157.54651162790697,
          "velocity": 0.25196850393700787
        },
        {
          "duration": 0.05813953488373613,
          "durationTicks": 5,
          "midi": 103,
          "name": "G7",
          "ticks": 13550,
          "time": 157.5581395348837,
          "velocity": 0.16535433070866143
        },
        {
          "duration": 0.0813953488371908,
          "durationTicks": 7,
          "midi": 66,
          "name": "F#4",
          "ticks": 13551,
          "time": 157.56976744186048,
          "velocity": 0.33858267716535434
        },
        {
          "duration": 0.034883720930224626,
          "durationTicks": 3,
          "midi": 79,
          "name": "G5",
          "ticks": 13551,
          "time": 157.56976744186048,
          "velocity": 0.1968503937007874
        },
        {
          "duration": 0.16279069767441,
          "durationTicks": 14,
          "midi": 88,
          "name": "E6",
          "ticks": 13551,
          "time": 157.56976744186048,
          "velocity": 0.2047244094488189
        },
        {
          "duration": 0.05813953488370771,
          "durationTicks": 5,
          "midi": 92,
          "name": "G#6",
          "ticks": 13551,
          "time": 157.56976744186048,
          "velocity": 0.16535433070866143
        },
        {
          "duration": 0.1046511627907023,
          "durationTicks": 9,
          "midi": 73,
          "name": "C#5",
          "ticks": 13555,
          "time": 157.61627906976744,
          "velocity": 0.16535433070866143
        },
        {
          "duration": 0.034883720930224626,
          "durationTicks": 3,
          "midi": 77,
          "name": "F5",
          "ticks": 13556,
          "time": 157.62790697674419,
          "velocity": 0.16535433070866143
        },
        {
          "duration": 0.12790697674418539,
          "durationTicks": 11,
          "midi": 83,
          "name": "B5",
          "ticks": 13556,
          "time": 157.62790697674419,
          "velocity": 0.1732283464566929
        },
        {
          "duration": 0.18604651162792152,
          "durationTicks": 16,
          "midi": 78,
          "name": "F#5",
          "ticks": 13558,
          "time": 157.65116279069767,
          "velocity": 0.2755905511811024
        },
        {
          "duration": 0.25581395348837077,
          "durationTicks": 22,
          "midi": 67,
          "name": "G4",
          "ticks": 13562,
          "time": 157.69767441860466,
          "velocity": 0.4251968503937008
        },
        {
          "duration": 0.6744186046511516,
          "durationTicks": 58,
          "midi": 85,
          "name": "C#6",
          "ticks": 13563,
          "time": 157.7093023255814,
          "velocity": 0.2047244094488189
        },
        {
          "duration": 0.06976744186047767,
          "durationTicks": 6,
          "midi": 94,
          "name": "A#6",
          "ticks": 13566,
          "time": 157.74418604651163,
          "velocity": 0.1732283464566929
        },
        {
          "duration": 2.279069767441854,
          "durationTicks": 196,
          "midi": 39,
          "name": "D#2",
          "ticks": 13567,
          "time": 157.75581395348837,
          "velocity": 0.4330708661417323
        },
        {
          "duration": 0.5581395348837361,
          "durationTicks": 48,
          "midi": 88,
          "name": "E6",
          "ticks": 13569,
          "time": 157.77906976744185,
          "velocity": 0.2125984251968504
        },
        {
          "duration": 0.08139534883721922,
          "durationTicks": 7,
          "midi": 92,
          "name": "G#6",
          "ticks": 13569,
          "time": 157.77906976744185,
          "velocity": 0.2047244094488189
        },
        {
          "duration": 0.2674418604651123,
          "durationTicks": 23,
          "midi": 87,
          "name": "D#6",
          "ticks": 13572,
          "time": 157.8139534883721,
          "velocity": 0.1732283464566929
        },
        {
          "duration": 0.034883720930224626,
          "durationTicks": 3,
          "midi": 103,
          "name": "G7",
          "ticks": 13572,
          "time": 157.8139534883721,
          "velocity": 0.09448818897637795
        },
        {
          "duration": 0.15116279069766847,
          "durationTicks": 13,
          "midi": 69,
          "name": "A4",
          "ticks": 13576,
          "time": 157.86046511627907,
          "velocity": 0.41732283464566927
        },
        {
          "duration": 0.05813953488370771,
          "durationTicks": 5,
          "midi": 73,
          "name": "C#5",
          "ticks": 13577,
          "time": 157.87209302325581,
          "velocity": 0.16535433070866143
        },
        {
          "duration": 0.5,
          "durationTicks": 43,
          "midi": 78,
          "name": "F#5",
          "ticks": 13577,
          "time": 157.87209302325581,
          "velocity": 0.33070866141732286
        },
        {
          "duration": 0.11627906976744384,
          "durationTicks": 10,
          "midi": 94,
          "name": "A#6",
          "ticks": 13578,
          "time": 157.88372093023256,
          "velocity": 0.14960629921259844
        },
        {
          "duration": 0.04651162790696617,
          "durationTicks": 4,
          "midi": 67,
          "name": "G4",
          "ticks": 13585,
          "time": 157.96511627906978,
          "velocity": 0.31496062992125984
        },
        {
          "duration": 0.19767441860463464,
          "durationTicks": 17,
          "midi": 100,
          "name": "E7",
          "ticks": 13585,
          "time": 157.96511627906978,
          "velocity": 0.25984251968503935
        },
        {
          "duration": 0.1046511627907023,
          "durationTicks": 9,
          "midi": 67,
          "name": "G4",
          "ticks": 13590,
          "time": 158.02325581395348,
          "velocity": 0.31496062992125984
        },
        {
          "duration": 0.034883720930224626,
          "durationTicks": 3,
          "midi": 92,
          "name": "G#6",
          "ticks": 13590,
          "time": 158.02325581395348,
          "velocity": 0.18110236220472442
        },
        {
          "duration": 0.08139534883721922,
          "durationTicks": 7,
          "midi": 94,
          "name": "A#6",
          "ticks": 13590,
          "time": 158.02325581395348,
          "velocity": 0.12598425196850394
        },
        {
          "duration": 0.09302325581396076,
          "durationTicks": 8,
          "midi": 103,
          "name": "G7",
          "ticks": 13591,
          "time": 158.03488372093022,
          "velocity": 0.13385826771653545
        },
        {
          "duration": 0.12790697674418539,
          "durationTicks": 11,
          "midi": 69,
          "name": "A4",
          "ticks": 13596,
          "time": 158.09302325581396,
          "velocity": 0.3779527559055118
        },
        {
          "duration": 0.1046511627907023,
          "durationTicks": 9,
          "midi": 87,
          "name": "D#6",
          "ticks": 13597,
          "time": 158.1046511627907,
          "velocity": 0.1732283464566929
        },
        {
          "duration": 0.11627906976744384,
          "durationTicks": 10,
          "midi": 66,
          "name": "F#4",
          "ticks": 13599,
          "time": 158.12790697674419,
          "velocity": 0.4094488188976378
        },
        {
          "duration": 0.03488372093025305,
          "durationTicks": 3,
          "midi": 79,
          "name": "G5",
          "ticks": 13603,
          "time": 158.17441860465115,
          "velocity": 0.2125984251968504
        },
        {
          "duration": 0.16279069767441,
          "durationTicks": 14,
          "midi": 95,
          "name": "B6",
          "ticks": 13608,
          "time": 158.2325581395349,
          "velocity": 0.2440944881889764
        },
        {
          "duration": 0.11627906976744384,
          "durationTicks": 10,
          "midi": 100,
          "name": "E7",
          "ticks": 13609,
          "time": 158.24418604651163,
          "velocity": 0.2204724409448819
        },
        {
          "duration": 0.16279069767441,
          "durationTicks": 14,
          "midi": 87,
          "name": "D#6",
          "ticks": 13610,
          "time": 158.25581395348837,
          "velocity": 0.14173228346456693
        },
        {
          "duration": 0.1046511627907023,
          "durationTicks": 9,
          "midi": 66,
          "name": "F#4",
          "ticks": 13611,
          "time": 158.2674418604651,
          "velocity": 0.2283464566929134
        },
        {
          "duration": 0.15116279069766847,
          "durationTicks": 13,
          "midi": 75,
          "name": "D#5",
          "ticks": 13611,
          "time": 158.2674418604651,
          "velocity": 0.13385826771653545
        },
        {
          "duration": 0.08139534883721922,
          "durationTicks": 7,
          "midi": 103,
          "name": "G7",
          "ticks": 13611,
          "time": 158.2674418604651,
          "velocity": 0.10236220472440945
        },
        {
          "duration": 0.534883720930253,
          "durationTicks": 46,
          "midi": 69,
          "name": "A4",
          "ticks": 13612,
          "time": 158.27906976744185,
          "velocity": 0.49606299212598426
        },
        {
          "duration": 0.04651162790699459,
          "durationTicks": 4,
          "midi": 82,
          "name": "A#5",
          "ticks": 13613,
          "time": 158.2906976744186,
          "velocity": 0.14173228346456693
        },
        {
          "duration": 0.2674418604651123,
          "durationTicks": 23,
          "midi": 97,
          "name": "C#7",
          "ticks": 13617,
          "time": 158.3372093023256,
          "velocity": 0.25196850393700787
        },
        {
          "duration": 0.034883720930224626,
          "durationTicks": 3,
          "midi": 67,
          "name": "G4",
          "ticks": 13620,
          "time": 158.37209302325581,
          "velocity": 0.2755905511811024
        },
        {
          "duration": 0.034883720930224626,
          "durationTicks": 3,
          "midi": 88,
          "name": "E6",
          "ticks": 13621,
          "time": 158.38372093023256,
          "velocity": 0.09448818897637795
        },
        {
          "duration": 0.08139534883721922,
          "durationTicks": 7,
          "midi": 78,
          "name": "F#5",
          "ticks": 13622,
          "time": 158.3953488372093,
          "velocity": 0.23622047244094488
        },
        {
          "duration": 0.08139534883721922,
          "durationTicks": 7,
          "midi": 103,
          "name": "G7",
          "ticks": 13623,
          "time": 158.40697674418604,
          "velocity": 0.08661417322834646
        },
        {
          "duration": 0.18604651162792152,
          "durationTicks": 16,
          "midi": 100,
          "name": "E7",
          "ticks": 13624,
          "time": 158.41860465116278,
          "velocity": 0.2125984251968504
        },
        {
          "duration": 0.09302325581396076,
          "durationTicks": 8,
          "midi": 87,
          "name": "D#6",
          "ticks": 13625,
          "time": 158.43023255813952,
          "velocity": 0.16535433070866143
        },
        {
          "duration": 0.06976744186044925,
          "durationTicks": 6,
          "midi": 94,
          "name": "A#6",
          "ticks": 13627,
          "time": 158.45348837209303,
          "velocity": 0.13385826771653545
        },
        {
          "duration": 0.06976744186044925,
          "durationTicks": 6,
          "midi": 79,
          "name": "G5",
          "ticks": 13629,
          "time": 158.47674418604652,
          "velocity": 0.1732283464566929
        },
        {
          "duration": 0.16279069767441,
          "durationTicks": 14,
          "midi": 90,
          "name": "F#6",
          "ticks": 13630,
          "time": 158.48837209302326,
          "velocity": 0.1968503937007874
        },
        {
          "duration": 0.05813953488370771,
          "durationTicks": 5,
          "midi": 85,
          "name": "C#6",
          "ticks": 13631,
          "time": 158.5,
          "velocity": 0.1732283464566929
        },
        {
          "duration": 0.04651162790699459,
          "durationTicks": 4,
          "midi": 67,
          "name": "G4",
          "ticks": 13634,
          "time": 158.53488372093022,
          "velocity": 0.2992125984251969
        },
        {
          "duration": 0.1046511627907023,
          "durationTicks": 9,
          "midi": 78,
          "name": "F#5",
          "ticks": 13634,
          "time": 158.53488372093022,
          "velocity": 0.2755905511811024
        },
        {
          "duration": 0.3953488372092977,
          "durationTicks": 34,
          "midi": 88,
          "name": "E6",
          "ticks": 13634,
          "time": 158.53488372093022,
          "velocity": 0.23622047244094488
        },
        {
          "duration": 0.1046511627907023,
          "durationTicks": 9,
          "midi": 73,
          "name": "C#5",
          "ticks": 13635,
          "time": 158.54651162790697,
          "velocity": 0.18110236220472442
        },
        {
          "duration": 0.03488372093025305,
          "durationTicks": 3,
          "midi": 87,
          "name": "D#6",
          "ticks": 13635,
          "time": 158.54651162790697,
          "velocity": 0.07086614173228346
        },
        {
          "duration": 0.03488372093025305,
          "durationTicks": 3,
          "midi": 94,
          "name": "A#6",
          "ticks": 13636,
          "time": 158.5581395348837,
          "velocity": 0.09448818897637795
        },
        {
          "duration": 0.4534883720930054,
          "durationTicks": 39,
          "midi": 67,
          "name": "G4",
          "ticks": 13639,
          "time": 158.59302325581396,
          "velocity": 0.4015748031496063
        },
        {
          "duration": 0.034883720930224626,
          "durationTicks": 3,
          "midi": 87,
          "name": "D#6",
          "ticks": 13640,
          "time": 158.6046511627907,
          "velocity": 0.14173228346456693
        },
        {
          "duration": 0.034883720930224626,
          "durationTicks": 3,
          "midi": 92,
          "name": "G#6",
          "ticks": 13642,
          "time": 158.62790697674419,
          "velocity": 0.15748031496062992
        },
        {
          "duration": 0.08139534883721922,
          "durationTicks": 7,
          "midi": 87,
          "name": "D#6",
          "ticks": 13644,
          "time": 158.65116279069767,
          "velocity": 0.1889763779527559
        },
        {
          "duration": 0.09302325581396076,
          "durationTicks": 8,
          "midi": 73,
          "name": "C#5",
          "ticks": 13645,
          "time": 158.6627906976744,
          "velocity": 0.15748031496062992
        },
        {
          "duration": 0.12790697674418539,
          "durationTicks": 11,
          "midi": 78,
          "name": "F#5",
          "ticks": 13645,
          "time": 158.6627906976744,
          "velocity": 0.30708661417322836
        },
        {
          "duration": 0.03488372093025305,
          "durationTicks": 3,
          "midi": 94,
          "name": "A#6",
          "ticks": 13647,
          "time": 158.6860465116279,
          "velocity": 0.11811023622047244
        },
        {
          "duration": 0.03488372093025305,
          "durationTicks": 3,
          "midi": 103,
          "name": "G7",
          "ticks": 13647,
          "time": 158.6860465116279,
          "velocity": 0.08661417322834646
        },
        {
          "duration": 0.13953488372092693,
          "durationTicks": 12,
          "midi": 97,
          "name": "C#7",
          "ticks": 13650,
          "time": 158.72093023255815,
          "velocity": 0.2204724409448819
        },
        {
          "duration": 0.17441860465117998,
          "durationTicks": 15,
          "midi": 78,
          "name": "F#5",
          "ticks": 13657,
          "time": 158.80232558139534,
          "velocity": 0.29133858267716534
        },
        {
          "duration": 0.08139534883721922,
          "durationTicks": 7,
          "midi": 85,
          "name": "C#6",
          "ticks": 13657,
          "time": 158.80232558139534,
          "velocity": 0.2283464566929134
        },
        {
          "duration": 0.20930232558137618,
          "durationTicks": 18,
          "midi": 69,
          "name": "A4",
          "ticks": 13659,
          "time": 158.82558139534885,
          "velocity": 0.3858267716535433
        },
        {
          "duration": 0.04651162790696617,
          "durationTicks": 4,
          "midi": 86,
          "name": "D6",
          "ticks": 13662,
          "time": 158.86046511627907,
          "velocity": 0.07086614173228346
        },
        {
          "duration": 0.17441860465115155,
          "durationTicks": 15,
          "midi": 87,
          "name": "D#6",
          "ticks": 13662,
          "time": 158.86046511627907,
          "velocity": 0.16535433070866143
        },
        {
          "duration": 0.03488372093025305,
          "durationTicks": 3,
          "midi": 58,
          "name": "A#3",
          "ticks": 13668,
          "time": 158.93023255813952,
          "velocity": 0.29133858267716534
        },
        {
          "duration": 0.06976744186044925,
          "durationTicks": 6,
          "midi": 97,
          "name": "C#7",
          "ticks": 13669,
          "time": 158.9418604651163,
          "velocity": 0.1889763779527559
        },
        {
          "duration": 0.034883720930224626,
          "durationTicks": 3,
          "midi": 71,
          "name": "B4",
          "ticks": 13670,
          "time": 158.95348837209303,
          "velocity": 0.29133858267716534
        },
        {
          "duration": 0.6976744186046346,
          "durationTicks": 60,
          "midi": 88,
          "name": "E6",
          "ticks": 13670,
          "time": 158.95348837209303,
          "velocity": 0.2204724409448819
        },
        {
          "duration": 0.0813953488371908,
          "durationTicks": 7,
          "midi": 58,
          "name": "A#3",
          "ticks": 13672,
          "time": 158.97674418604652,
          "velocity": 0.1889763779527559
        },
        {
          "duration": 0.04651162790696617,
          "durationTicks": 4,
          "midi": 77,
          "name": "F5",
          "ticks": 13672,
          "time": 158.97674418604652,
          "velocity": 0.14173228346456693
        },
        {
          "duration": 0.06976744186044925,
          "durationTicks": 6,
          "midi": 85,
          "name": "C#6",
          "ticks": 13672,
          "time": 158.97674418604652,
          "velocity": 0.14173228346456693
        },
        {
          "duration": 0.034883720930224626,
          "durationTicks": 3,
          "midi": 71,
          "name": "B4",
          "ticks": 13674,
          "time": 159,
          "velocity": 0.31496062992125984
        },
        {
          "duration": 0.13953488372092693,
          "durationTicks": 12,
          "midi": 78,
          "name": "F#5",
          "ticks": 13675,
          "time": 159.01162790697674,
          "velocity": 0.29133858267716534
        },
        {
          "duration": 0.023255813953483084,
          "durationTicks": 2,
          "midi": 70,
          "name": "A#4",
          "ticks": 13677,
          "time": 159.03488372093022,
          "velocity": 0.31496062992125984
        },
        {
          "duration": 0.05813953488373613,
          "durationTicks": 5,
          "midi": 66,
          "name": "F#4",
          "ticks": 13678,
          "time": 159.04651162790697,
          "velocity": 0.3700787401574803
        },
        {
          "duration": 0.12790697674418539,
          "durationTicks": 11,
          "midi": 71,
          "name": "B4",
          "ticks": 13678,
          "time": 159.04651162790697,
          "velocity": 0.3228346456692913
        },
        {
          "duration": 0.34883720930233153,
          "durationTicks": 30,
          "midi": 69,
          "name": "A4",
          "ticks": 13679,
          "time": 159.0581395348837,
          "velocity": 0.4566929133858268
        },
        {
          "duration": 0.04651162790699459,
          "durationTicks": 4,
          "midi": 87,
          "name": "D#6",
          "ticks": 13679,
          "time": 159.0581395348837,
          "velocity": 0.16535433070866143
        },
        {
          "duration": 0.19767441860466306,
          "durationTicks": 17,
          "midi": 97,
          "name": "C#7",
          "ticks": 13679,
          "time": 159.0581395348837,
          "velocity": 0.2283464566929134
        },
        {
          "duration": 0.06976744186044925,
          "durationTicks": 6,
          "midi": 58,
          "name": "A#3",
          "ticks": 13681,
          "time": 159.08139534883722,
          "velocity": 0.2992125984251969
        },
        {
          "duration": 0.4302325581395223,
          "durationTicks": 37,
          "midi": 67,
          "name": "G4",
          "ticks": 13683,
          "time": 159.1046511627907,
          "velocity": 0.4409448818897638
        },
        {
          "duration": 0.1046511627907023,
          "durationTicks": 9,
          "midi": 85,
          "name": "C#6",
          "ticks": 13684,
          "time": 159.11627906976744,
          "velocity": 0.14173228346456693
        },
        {
          "duration": 0.08139534883721922,
          "durationTicks": 7,
          "midi": 58,
          "name": "A#3",
          "ticks": 13688,
          "time": 159.1627906976744,
          "velocity": 0.3464566929133858
        },
        {
          "duration": 0.03488372093025305,
          "durationTicks": 3,
          "midi": 94,
          "name": "A#6",
          "ticks": 13689,
          "time": 159.17441860465115,
          "velocity": 0.08661417322834646
        },
        {
          "duration": 0.06976744186044925,
          "durationTicks": 6,
          "midi": 77,
          "name": "F5",
          "ticks": 13691,
          "time": 159.19767441860466,
          "velocity": 0.08661417322834646
        },
        {
          "duration": 0.09302325581396076,
          "durationTicks": 8,
          "midi": 83,
          "name": "B5",
          "ticks": 13695,
          "time": 159.24418604651163,
          "velocity": 0.10236220472440945
        },
        {
          "duration": 0.06976744186047767,
          "durationTicks": 6,
          "midi": 85,
          "name": "C#6",
          "ticks": 13695,
          "time": 159.24418604651163,
          "velocity": 0.16535433070866143
        },
        {
          "duration": 0.15116279069766847,
          "durationTicks": 13,
          "midi": 58,
          "name": "A#3",
          "ticks": 13696,
          "time": 159.25581395348837,
          "velocity": 0.3228346456692913
        },
        {
          "duration": 0.1046511627907023,
          "durationTicks": 9,
          "midi": 90,
          "name": "F#6",
          "ticks": 13696,
          "time": 159.25581395348837,
          "velocity": 0.07874015748031496
        },
        {
          "duration": 0.18604651162792152,
          "durationTicks": 16,
          "midi": 78,
          "name": "F#5",
          "ticks": 13698,
          "time": 159.27906976744185,
          "velocity": 0.2677165354330709
        },
        {
          "duration": 0.12790697674418539,
          "durationTicks": 11,
          "midi": 97,
          "name": "C#7",
          "ticks": 13698,
          "time": 159.27906976744185,
          "velocity": 0.1732283464566929
        },
        {
          "duration": 0.023255813953511506,
          "durationTicks": 2,
          "midi": 71,
          "name": "B4",
          "ticks": 13699,
          "time": 159.2906976744186,
          "velocity": 0.2755905511811024
        },
        {
          "duration": 0.0813953488371908,
          "durationTicks": 7,
          "midi": 94,
          "name": "A#6",
          "ticks": 13701,
          "time": 159.3139534883721,
          "velocity": 0.10236220472440945
        },
        {
          "duration": 0.034883720930224626,
          "durationTicks": 3,
          "midi": 71,
          "name": "B4",
          "ticks": 13702,
          "time": 159.32558139534885,
          "velocity": 0.2755905511811024
        },
        {
          "duration": 0.06976744186047767,
          "durationTicks": 6,
          "midi": 59,
          "name": "B3",
          "ticks": 13709,
          "time": 159.40697674418604,
          "velocity": 0.25984251968503935
        },
        {
          "duration": 0.06976744186047767,
          "durationTicks": 6,
          "midi": 97,
          "name": "C#7",
          "ticks": 13710,
          "time": 159.41860465116278,
          "velocity": 0.14960629921259844
        },
        {
          "duration": 0.45348837209303383,
          "durationTicks": 39,
          "midi": 69,
          "name": "A4",
          "ticks": 13711,
          "time": 159.43023255813952,
          "velocity": 0.47244094488188976
        },
        {
          "duration": 0.16279069767441,
          "durationTicks": 14,
          "midi": 94,
          "name": "A#6",
          "ticks": 13712,
          "time": 159.4418604651163,
          "velocity": 0.12598425196850394
        },
        {
          "duration": 0.034883720930224626,
          "durationTicks": 3,
          "midi": 71,
          "name": "B4",
          "ticks": 13713,
          "time": 159.45348837209303,
          "velocity": 0.30708661417322836
        },
        {
          "duration": 0.27906976744185386,
          "durationTicks": 24,
          "midi": 85,
          "name": "C#6",
          "ticks": 13714,
          "time": 159.46511627906978,
          "velocity": 0.16535433070866143
        },
        {
          "duration": 0.5116279069767415,
          "durationTicks": 44,
          "midi": 78,
          "name": "F#5",
          "ticks": 13715,
          "time": 159.47674418604652,
          "velocity": 0.2677165354330709
        },
        {
          "duration": 0.06976744186044925,
          "durationTicks": 6,
          "midi": 58,
          "name": "A#3",
          "ticks": 13716,
          "time": 159.48837209302326,
          "velocity": 0.3228346456692913
        },
        {
          "duration": 0.034883720930224626,
          "durationTicks": 3,
          "midi": 71,
          "name": "B4",
          "ticks": 13717,
          "time": 159.5,
          "velocity": 0.33070866141732286
        },
        {
          "duration": 0.03488372093025305,
          "durationTicks": 3,
          "midi": 87,
          "name": "D#6",
          "ticks": 13720,
          "time": 159.53488372093022,
          "velocity": 0.09448818897637795
        },
        {
          "duration": 0.04651162790699459,
          "durationTicks": 4,
          "midi": 67,
          "name": "G4",
          "ticks": 13721,
          "time": 159.54651162790697,
          "velocity": 0.4015748031496063
        },
        {
          "duration": 0.023255813953511506,
          "durationTicks": 2,
          "midi": 71,
          "name": "B4",
          "ticks": 13721,
          "time": 159.54651162790697,
          "velocity": 0.31496062992125984
        },
        {
          "duration": 0.09302325581393234,
          "durationTicks": 8,
          "midi": 58,
          "name": "A#3",
          "ticks": 13723,
          "time": 159.56976744186048,
          "velocity": 0.31496062992125984
        },
        {
          "duration": 0.04651162790696617,
          "durationTicks": 4,
          "midi": 71,
          "name": "B4",
          "ticks": 13724,
          "time": 159.58139534883722,
          "velocity": 0.2992125984251969
        },
        {
          "duration": 0.034883720930224626,
          "durationTicks": 3,
          "midi": 79,
          "name": "G5",
          "ticks": 13725,
          "time": 159.59302325581396,
          "velocity": 0.14960629921259844
        },
        {
          "duration": 0.13953488372092693,
          "durationTicks": 12,
          "midi": 67,
          "name": "G4",
          "ticks": 13726,
          "time": 159.6046511627907,
          "velocity": 0.3937007874015748
        },
        {
          "duration": 0.09302325581396076,
          "durationTicks": 8,
          "midi": 94,
          "name": "A#6",
          "ticks": 13727,
          "time": 159.61627906976744,
          "velocity": 0.10236220472440945
        },
        {
          "duration": 0.034883720930224626,
          "durationTicks": 3,
          "midi": 103,
          "name": "G7",
          "ticks": 13730,
          "time": 159.65116279069767,
          "velocity": 0.08661417322834646
        },
        {
          "duration": 0.12790697674418539,
          "durationTicks": 11,
          "midi": 71,
          "name": "B4",
          "ticks": 13731,
          "time": 159.6627906976744,
          "velocity": 0.3228346456692913
        },
        {
          "duration": 0.06976744186047767,
          "durationTicks": 6,
          "midi": 87,
          "name": "D#6",
          "ticks": 13731,
          "time": 159.6627906976744,
          "velocity": 0.09448818897637795
        },
        {
          "duration": 0.06976744186047767,
          "durationTicks": 6,
          "midi": 88,
          "name": "E6",
          "ticks": 13731,
          "time": 159.6627906976744,
          "velocity": 0.14960629921259844
        },
        {
          "duration": 0.023255813953511506,
          "durationTicks": 2,
          "midi": 58,
          "name": "A#3",
          "ticks": 13732,
          "time": 159.67441860465115,
          "velocity": 0.28346456692913385
        },
        {
          "duration": 0.8023255813953369,
          "durationTicks": 69,
          "midi": 59,
          "name": "B3",
          "ticks": 13734,
          "time": 159.69767441860466,
          "velocity": 0.3858267716535433
        },
        {
          "duration": 0.06976744186047767,
          "durationTicks": 6,
          "midi": 88,
          "name": "E6",
          "ticks": 13738,
          "time": 159.74418604651163,
          "velocity": 0.13385826771653545
        },
        {
          "duration": 0.04651162790696617,
          "durationTicks": 4,
          "midi": 67,
          "name": "G4",
          "ticks": 13739,
          "time": 159.75581395348837,
          "velocity": 0.33858267716535434
        },
        {
          "duration": 0.16279069767441,
          "durationTicks": 14,
          "midi": 85,
          "name": "C#6",
          "ticks": 13740,
          "time": 159.7674418604651,
          "velocity": 0.18110236220472442
        },
        {
          "duration": 0.2906976744185954,
          "durationTicks": 25,
          "midi": 87,
          "name": "D#6",
          "ticks": 13740,
          "time": 159.7674418604651,
          "velocity": 0.18110236220472442
        },
        {
          "duration": 0.13953488372092693,
          "durationTicks": 12,
          "midi": 67,
          "name": "G4",
          "ticks": 13744,
          "time": 159.8139534883721,
          "velocity": 0.36220472440944884
        },
        {
          "duration": 0.20930232558137618,
          "durationTicks": 18,
          "midi": 75,
          "name": "D#5",
          "ticks": 13745,
          "time": 159.82558139534885,
          "velocity": 0.10236220472440945
        },
        {
          "duration": 0.19767441860463464,
          "durationTicks": 17,
          "midi": 88,
          "name": "E6",
          "ticks": 13746,
          "time": 159.8372093023256,
          "velocity": 0.1889763779527559
        },
        {
          "duration": 1.023255813953483,
          "durationTicks": 88,
          "midi": 69,
          "name": "A4",
          "ticks": 13751,
          "time": 159.8953488372093,
          "velocity": 0.4645669291338583
        },
        {
          "duration": 0.06976744186047767,
          "durationTicks": 6,
          "midi": 94,
          "name": "A#6",
          "ticks": 13751,
          "time": 159.8953488372093,
          "velocity": 0.12598425196850394
        },
        {
          "duration": 0.10465116279067388,
          "durationTicks": 9,
          "midi": 85,
          "name": "C#6",
          "ticks": 13755,
          "time": 159.9418604651163,
          "velocity": 0.12598425196850394
        },
        {
          "duration": 0.034883720930224626,
          "durationTicks": 3,
          "midi": 67,
          "name": "G4",
          "ticks": 13757,
          "time": 159.96511627906978,
          "velocity": 0.33858267716535434
        },
        {
          "duration": 0.023255813953483084,
          "durationTicks": 2,
          "midi": 67,
          "name": "G4",
          "ticks": 13763,
          "time": 160.03488372093022,
          "velocity": 0.2755905511811024
        },
        {
          "duration": 0.09302325581396076,
          "durationTicks": 8,
          "midi": 90,
          "name": "F#6",
          "ticks": 13763,
          "time": 160.03488372093022,
          "velocity": 0.16535433070866143
        },
        {
          "duration": 0.08139534883721922,
          "durationTicks": 7,
          "midi": 78,
          "name": "F#5",
          "ticks": 13764,
          "time": 160.04651162790697,
          "velocity": 0.1732283464566929
        },
        {
          "duration": 0.05813953488373613,
          "durationTicks": 5,
          "midi": 39,
          "name": "D#2",
          "ticks": 13765,
          "time": 160.0581395348837,
          "velocity": 0.12598425196850394
        },
        {
          "duration": 0.03488372093025305,
          "durationTicks": 3,
          "midi": 66,
          "name": "F#4",
          "ticks": 13765,
          "time": 160.0581395348837,
          "velocity": 0.15748031496062992
        },
        {
          "duration": 0.0813953488371908,
          "durationTicks": 7,
          "midi": 88,
          "name": "E6",
          "ticks": 13766,
          "time": 160.06976744186048,
          "velocity": 0.14173228346456693
        },
        {
          "duration": 0.04651162790696617,
          "durationTicks": 4,
          "midi": 97,
          "name": "C#7",
          "ticks": 13766,
          "time": 160.06976744186048,
          "velocity": 0.13385826771653545
        },
        {
          "duration": 0.5581395348837077,
          "durationTicks": 48,
          "midi": 87,
          "name": "D#6",
          "ticks": 13767,
          "time": 160.08139534883722,
          "velocity": 0.14960629921259844
        },
        {
          "duration": 0.8953488372092977,
          "durationTicks": 77,
          "midi": 39,
          "name": "D#2",
          "ticks": 13772,
          "time": 160.13953488372093,
          "velocity": 0.25196850393700787
        },
        {
          "duration": 0.023255813953483084,
          "durationTicks": 2,
          "midi": 67,
          "name": "G4",
          "ticks": 13772,
          "time": 160.13953488372093,
          "velocity": 0.2440944881889764
        },
        {
          "duration": 0.08139534883721922,
          "durationTicks": 7,
          "midi": 78,
          "name": "F#5",
          "ticks": 13772,
          "time": 160.13953488372093,
          "velocity": 0.23622047244094488
        },
        {
          "duration": 0.03488372093025305,
          "durationTicks": 3,
          "midi": 66,
          "name": "F#4",
          "ticks": 13774,
          "time": 160.1627906976744,
          "velocity": 0.2440944881889764
        },
        {
          "duration": 0.09302325581396076,
          "durationTicks": 8,
          "midi": 97,
          "name": "C#7",
          "ticks": 13774,
          "time": 160.1627906976744,
          "velocity": 0.12598425196850394
        },
        {
          "duration": 0.09302325581396076,
          "durationTicks": 8,
          "midi": 73,
          "name": "C#5",
          "ticks": 13775,
          "time": 160.17441860465115,
          "velocity": 0.08661417322834646
        },
        {
          "duration": 0.034883720930224626,
          "durationTicks": 3,
          "midi": 67,
          "name": "G4",
          "ticks": 13777,
          "time": 160.19767441860466,
          "velocity": 0.29133858267716534
        },
        {
          "duration": 0.0813953488371908,
          "durationTicks": 7,
          "midi": 88,
          "name": "E6",
          "ticks": 13777,
          "time": 160.19767441860466,
          "velocity": 0.14173228346456693
        },
        {
          "duration": 0.05813953488370771,
          "durationTicks": 5,
          "midi": 79,
          "name": "G5",
          "ticks": 13780,
          "time": 160.2325581395349,
          "velocity": 0.08661417322834646
        },
        {
          "duration": 0.034883720930224626,
          "durationTicks": 3,
          "midi": 90,
          "name": "F#6",
          "ticks": 13780,
          "time": 160.2325581395349,
          "velocity": 0.12598425196850394
        },
        {
          "duration": 0.04651162790696617,
          "durationTicks": 4,
          "midi": 67,
          "name": "G4",
          "ticks": 13781,
          "time": 160.24418604651163,
          "velocity": 0.30708661417322836
        },
        {
          "duration": 0.19767441860466306,
          "durationTicks": 17,
          "midi": 97,
          "name": "C#7",
          "ticks": 13783,
          "time": 160.2674418604651,
          "velocity": 0.1732283464566929
        },
        {
          "duration": 0.03488372093025305,
          "durationTicks": 3,
          "midi": 90,
          "name": "F#6",
          "ticks": 13786,
          "time": 160.30232558139534,
          "velocity": 0.07874015748031496
        },
        {
          "duration": 0.15116279069766847,
          "durationTicks": 13,
          "midi": 78,
          "name": "F#5",
          "ticks": 13787,
          "time": 160.3139534883721,
          "velocity": 0.23622047244094488
        },
        {
          "duration": 0.06976744186044925,
          "durationTicks": 6,
          "midi": 88,
          "name": "E6",
          "ticks": 13787,
          "time": 160.3139534883721,
          "velocity": 0.2125984251968504
        },
        {
          "duration": 0.034883720930224626,
          "durationTicks": 3,
          "midi": 85,
          "name": "C#6",
          "ticks": 13789,
          "time": 160.3372093023256,
          "velocity": 0.07086614173228346
        },
        {
          "duration": 0.04651162790696617,
          "durationTicks": 4,
          "midi": 67,
          "name": "G4",
          "ticks": 13790,
          "time": 160.34883720930233,
          "velocity": 0.2992125984251969
        },
        {
          "duration": 0.03488372093025305,
          "durationTicks": 3,
          "midi": 67,
          "name": "G4",
          "ticks": 13795,
          "time": 160.40697674418604,
          "velocity": 0.28346456692913385
        },
        {
          "duration": 0.034883720930224626,
          "durationTicks": 3,
          "midi": 66,
          "name": "F#4",
          "ticks": 13798,
          "time": 160.4418604651163,
          "velocity": 0.15748031496062992
        },
        {
          "duration": 0.034883720930224626,
          "durationTicks": 3,
          "midi": 58,
          "name": "A#3",
          "ticks": 13803,
          "time": 160.5,
          "velocity": 0.28346456692913385
        },
        {
          "duration": 0.034883720930224626,
          "durationTicks": 3,
          "midi": 90,
          "name": "F#6",
          "ticks": 13803,
          "time": 160.5,
          "velocity": 0.08661417322834646
        },
        {
          "duration": 0.04651162790699459,
          "durationTicks": 4,
          "midi": 78,
          "name": "F#5",
          "ticks": 13805,
          "time": 160.52325581395348,
          "velocity": 0.09448818897637795
        },
        {
          "duration": 0.04651162790699459,
          "durationTicks": 4,
          "midi": 88,
          "name": "E6",
          "ticks": 13805,
          "time": 160.52325581395348,
          "velocity": 0.11023622047244094
        },
        {
          "duration": 0.04651162790699459,
          "durationTicks": 4,
          "midi": 93,
          "name": "A6",
          "ticks": 13805,
          "time": 160.52325581395348,
          "velocity": 0.15748031496062992
        },
        {
          "duration": 2.313953488372107,
          "durationTicks": 199,
          "midi": 59,
          "name": "B3",
          "ticks": 13806,
          "time": 160.53488372093022,
          "velocity": 0.3543307086614173
        },
        {
          "duration": 0.44186046511626387,
          "durationTicks": 38,
          "midi": 78,
          "name": "F#5",
          "ticks": 13812,
          "time": 160.6046511627907,
          "velocity": 0.23622047244094488
        },
        {
          "duration": 0.023255813953483084,
          "durationTicks": 2,
          "midi": 67,
          "name": "G4",
          "ticks": 13814,
          "time": 160.62790697674419,
          "velocity": 0.25984251968503935
        },
        {
          "duration": 0.034883720930224626,
          "durationTicks": 3,
          "midi": 66,
          "name": "F#4",
          "ticks": 13816,
          "time": 160.65116279069767,
          "velocity": 0.2125984251968504
        },
        {
          "duration": 0.04651162790696617,
          "durationTicks": 4,
          "midi": 66,
          "name": "F#4",
          "ticks": 13820,
          "time": 160.69767441860466,
          "velocity": 0.28346456692913385
        },
        {
          "duration": 0.06976744186044925,
          "durationTicks": 6,
          "midi": 100,
          "name": "E7",
          "ticks": 13823,
          "time": 160.7325581395349,
          "velocity": 0.11811023622047244
        },
        {
          "duration": 0.034883720930224626,
          "durationTicks": 3,
          "midi": 67,
          "name": "G4",
          "ticks": 13824,
          "time": 160.74418604651163,
          "velocity": 0.25196850393700787
        },
        {
          "duration": 0.1046511627907023,
          "durationTicks": 9,
          "midi": 87,
          "name": "D#6",
          "ticks": 13824,
          "time": 160.74418604651163,
          "velocity": 0.07874015748031496
        },
        {
          "duration": 0.03488372093025305,
          "durationTicks": 3,
          "midi": 67,
          "name": "G4",
          "ticks": 13828,
          "time": 160.7906976744186,
          "velocity": 0.18110236220472442
        },
        {
          "duration": 0.06976744186044925,
          "durationTicks": 6,
          "midi": 66,
          "name": "F#4",
          "ticks": 13833,
          "time": 160.84883720930233,
          "velocity": 0.2204724409448819
        },
        {
          "duration": 0.09302325581396076,
          "durationTicks": 8,
          "midi": 87,
          "name": "D#6",
          "ticks": 13837,
          "time": 160.8953488372093,
          "velocity": 0.11023622047244094
        },
        {
          "duration": 0.04651162790696617,
          "durationTicks": 4,
          "midi": 81,
          "name": "A5",
          "ticks": 13843,
          "time": 160.96511627906978,
          "velocity": 0.12598425196850394
        },
        {
          "duration": 0.034883720930224626,
          "durationTicks": 3,
          "midi": 97,
          "name": "C#7",
          "ticks": 13844,
          "time": 160.97674418604652,
          "velocity": 0.09448818897637795
        },
        {
          "duration": 0.09302325581396076,
          "durationTicks": 8,
          "midi": 69,
          "name": "A4",
          "ticks": 13845,
          "time": 160.98837209302326,
          "velocity": 0.25984251968503935
        },
        {
          "duration": 0.19767441860466306,
          "durationTicks": 17,
          "midi": 67,
          "name": "G4",
          "ticks": 13847,
          "time": 161.01162790697674,
          "velocity": 0.2125984251968504
        },
        {
          "duration": 0.03488372093025305,
          "durationTicks": 3,
          "midi": 39,
          "name": "D#2",
          "ticks": 13850,
          "time": 161.04651162790697,
          "velocity": 0.16535433070866143
        },
        {
          "duration": 0.15116279069766847,
          "durationTicks": 13,
          "midi": 78,
          "name": "F#5",
          "ticks": 13852,
          "time": 161.06976744186048,
          "velocity": 0.13385826771653545
        },
        {
          "duration": 0.0813953488371908,
          "durationTicks": 7,
          "midi": 39,
          "name": "D#2",
          "ticks": 13854,
          "time": 161.09302325581396,
          "velocity": 0.15748031496062992
        },
        {
          "duration": 0.04651162790696617,
          "durationTicks": 4,
          "midi": 69,
          "name": "A4",
          "ticks": 13858,
          "time": 161.13953488372093,
          "velocity": 0.1732283464566929
        },
        {
          "duration": 0.04651162790699459,
          "durationTicks": 4,
          "midi": 87,
          "name": "D#6",
          "ticks": 13860,
          "time": 161.1627906976744,
          "velocity": 0.07874015748031496
        },
        {
          "duration": 0.03488372093025305,
          "durationTicks": 3,
          "midi": 39,
          "name": "D#2",
          "ticks": 13862,
          "time": 161.1860465116279,
          "velocity": 0.11811023622047244
        },
        {
          "duration": 0.034883720930224626,
          "durationTicks": 3,
          "midi": 69,
          "name": "A4",
          "ticks": 13863,
          "time": 161.19767441860466,
          "velocity": 0.1968503937007874
        },
        {
          "duration": 0.04651162790696617,
          "durationTicks": 4,
          "midi": 67,
          "name": "G4",
          "ticks": 13865,
          "time": 161.22093023255815,
          "velocity": 0.2283464566929134
        },
        {
          "duration": 0.08139534883721922,
          "durationTicks": 7,
          "midi": 39,
          "name": "D#2",
          "ticks": 13866,
          "time": 161.2325581395349,
          "velocity": 0.11811023622047244
        },
        {
          "duration": 0.18604651162792152,
          "durationTicks": 16,
          "midi": 78,
          "name": "F#5",
          "ticks": 13868,
          "time": 161.25581395348837,
          "velocity": 0.1889763779527559
        },
        {
          "duration": 0.1046511627907023,
          "durationTicks": 9,
          "midi": 69,
          "name": "A4",
          "ticks": 13870,
          "time": 161.27906976744185,
          "velocity": 0.15748031496062992
        },
        {
          "duration": 0.09302325581396076,
          "durationTicks": 8,
          "midi": 66,
          "name": "F#4",
          "ticks": 13872,
          "time": 161.30232558139534,
          "velocity": 0.1732283464566929
        },
        {
          "duration": 0.1046511627907023,
          "durationTicks": 9,
          "midi": 81,
          "name": "A5",
          "ticks": 13876,
          "time": 161.34883720930233,
          "velocity": 0.1968503937007874
        },
        {
          "duration": 0.13953488372092693,
          "durationTicks": 12,
          "midi": 39,
          "name": "D#2",
          "ticks": 13880,
          "time": 161.3953488372093,
          "velocity": 0.14960629921259844
        },
        {
          "duration": 0.034883720930224626,
          "durationTicks": 3,
          "midi": 67,
          "name": "G4",
          "ticks": 13880,
          "time": 161.3953488372093,
          "velocity": 0.2204724409448819
        },
        {
          "duration": 0.22093023255814614,
          "durationTicks": 19,
          "midi": 69,
          "name": "A4",
          "ticks": 13882,
          "time": 161.41860465116278,
          "velocity": 0.3464566929133858
        },
        {
          "duration": 0.034883720930224626,
          "durationTicks": 3,
          "midi": 67,
          "name": "G4",
          "ticks": 13885,
          "time": 161.45348837209303,
          "velocity": 0.2125984251968504
        },
        {
          "duration": 0.25581395348837077,
          "durationTicks": 22,
          "midi": 78,
          "name": "F#5",
          "ticks": 13888,
          "time": 161.48837209302326,
          "velocity": 0.14173228346456693
        },
        {
          "duration": 0.04651162790699459,
          "durationTicks": 4,
          "midi": 67,
          "name": "G4",
          "ticks": 13892,
          "time": 161.53488372093022,
          "velocity": 0.2204724409448819
        },
        {
          "duration": 0.5232558139535115,
          "durationTicks": 45,
          "midi": 39,
          "name": "D#2",
          "ticks": 13893,
          "time": 161.54651162790697,
          "velocity": 0.2204724409448819
        },
        {
          "duration": 0.04651162790696617,
          "durationTicks": 4,
          "midi": 67,
          "name": "G4",
          "ticks": 13897,
          "time": 161.59302325581396,
          "velocity": 0.16535433070866143
        },
        {
          "duration": 0.1046511627907023,
          "durationTicks": 9,
          "midi": 81,
          "name": "A5",
          "ticks": 13901,
          "time": 161.63953488372093,
          "velocity": 0.14960629921259844
        },
        {
          "duration": 0.19767441860466306,
          "durationTicks": 17,
          "midi": 69,
          "name": "A4",
          "ticks": 13902,
          "time": 161.65116279069767,
          "velocity": 0.33070866141732286
        },
        {
          "duration": 0.04651162790696617,
          "durationTicks": 4,
          "midi": 67,
          "name": "G4",
          "ticks": 13910,
          "time": 161.74418604651163,
          "velocity": 0.1889763779527559
        },
        {
          "duration": 0.04651162790699459,
          "durationTicks": 4,
          "midi": 67,
          "name": "G4",
          "ticks": 13915,
          "time": 161.80232558139534,
          "velocity": 0.2047244094488189
        },
        {
          "duration": 0.04651162790696617,
          "durationTicks": 4,
          "midi": 67,
          "name": "G4",
          "ticks": 13920,
          "time": 161.86046511627907,
          "velocity": 0.12598425196850394
        },
        {
          "duration": 0.12790697674418539,
          "durationTicks": 11,
          "midi": 69,
          "name": "A4",
          "ticks": 13927,
          "time": 161.9418604651163,
          "velocity": 0.1968503937007874
        },
        {
          "duration": 0.1046511627907023,
          "durationTicks": 9,
          "midi": 39,
          "name": "D#2",
          "ticks": 13940,
          "time": 162.09302325581396,
          "velocity": 0.15748031496062992
        },
        {
          "duration": 0.06976744186047767,
          "durationTicks": 6,
          "midi": 67,
          "name": "G4",
          "ticks": 13943,
          "time": 162.12790697674419,
          "velocity": 0.14960629921259844
        },
        {
          "duration": 0.6860465116278931,
          "durationTicks": 59,
          "midi": 66,
          "name": "F#4",
          "ticks": 13949,
          "time": 162.19767441860466,
          "velocity": 0.23622047244094488
        },
        {
          "duration": 0.06976744186044925,
          "durationTicks": 6,
          "midi": 39,
          "name": "D#2",
          "ticks": 13950,
          "time": 162.2093023255814,
          "velocity": 0.09448818897637795
        },
        {
          "duration": 0.04651162790696617,
          "durationTicks": 4,
          "midi": 69,
          "name": "A4",
          "ticks": 13951,
          "time": 162.22093023255815,
          "velocity": 0.09448818897637795
        },
        {
          "duration": 0.06976744186047767,
          "durationTicks": 6,
          "midi": 69,
          "name": "A4",
          "ticks": 13969,
          "time": 162.43023255813952,
          "velocity": 0.08661417322834646
        },
        {
          "duration": 0.1511627906976969,
          "durationTicks": 13,
          "midi": 69,
          "name": "A4",
          "ticks": 13991,
          "time": 162.6860465116279,
          "velocity": 0.14960629921259844
        },
        {
          "duration": 0.17441860465117998,
          "durationTicks": 15,
          "midi": 59,
          "name": "B3",
          "ticks": 14011,
          "time": 162.91860465116278,
          "velocity": 0.16535433070866143
        },
        {
          "duration": 0.2790697674418823,
          "durationTicks": 24,
          "midi": 66,
          "name": "F#4",
          "ticks": 14012,
          "time": 162.93023255813952,
          "velocity": 0.14960629921259844
        },
        {
          "duration": 0.12790697674418539,
          "durationTicks": 11,
          "midi": 69,
          "name": "A4",
          "ticks": 14023,
          "time": 163.0581395348837,
          "velocity": 0.1968503937007874
        },
        {
          "duration": 0.023255813953483084,
          "durationTicks": 2,
          "midi": 50,
          "name": "D3",
          "ticks": 14025,
          "time": 163.08139534883722,
          "velocity": 0.4251968503937008
        },
        {
          "duration": 0.023255813953483084,
          "durationTicks": 2,
          "midi": 60,
          "name": "C4",
          "ticks": 14026,
          "time": 163.09302325581396,
          "velocity": 0.23622047244094488
        },
        {
          "duration": 0.1860465116278931,
          "durationTicks": 16,
          "midi": 59,
          "name": "B3",
          "ticks": 14028,
          "time": 163.11627906976744,
          "velocity": 0.2204724409448819
        },
        {
          "duration": 0.023255813953483084,
          "durationTicks": 2,
          "midi": 51,
          "name": "D#3",
          "ticks": 14030,
          "time": 163.13953488372093,
          "velocity": 0.4409448818897638
        },
        {
          "duration": 0.13953488372092693,
          "durationTicks": 12,
          "midi": 52,
          "name": "E3",
          "ticks": 14032,
          "time": 163.1627906976744,
          "velocity": 0.4409448818897638
        },
        {
          "duration": 0.15116279069766847,
          "durationTicks": 13,
          "midi": 52,
          "name": "E3",
          "ticks": 14045,
          "time": 163.3139534883721,
          "velocity": 0.4251968503937008
        },
        {
          "duration": 0.33720930232556157,
          "durationTicks": 29,
          "midi": 64,
          "name": "E4",
          "ticks": 14045,
          "time": 163.3139534883721,
          "velocity": 0.49606299212598426
        },
        {
          "duration": 1.1511627906976685,
          "durationTicks": 99,
          "midi": 67,
          "name": "G4",
          "ticks": 14052,
          "time": 163.3953488372093,
          "velocity": 0.33858267716535434
        },
        {
          "duration": 0.023255813953483084,
          "durationTicks": 2,
          "midi": 51,
          "name": "D#3",
          "ticks": 14058,
          "time": 163.46511627906978,
          "velocity": 0.28346456692913385
        },
        {
          "duration": 2.8488372093023315,
          "durationTicks": 245,
          "midi": 59,
          "name": "B3",
          "ticks": 14061,
          "time": 163.5,
          "velocity": 0.3228346456692913
        },
        {
          "duration": 0.034883720930224626,
          "durationTicks": 3,
          "midi": 51,
          "name": "D#3",
          "ticks": 14062,
          "time": 163.51162790697674,
          "velocity": 0.25196850393700787
        },
        {
          "duration": 0.023255813953483084,
          "durationTicks": 2,
          "midi": 51,
          "name": "D#3",
          "ticks": 14067,
          "time": 163.56976744186048,
          "velocity": 0.2283464566929134
        },
        {
          "duration": 0.034883720930224626,
          "durationTicks": 3,
          "midi": 52,
          "name": "E3",
          "ticks": 14073,
          "time": 163.63953488372093,
          "velocity": 0.2047244094488189
        },
        {
          "duration": 1.023255813953483,
          "durationTicks": 88,
          "midi": 64,
          "name": "E4",
          "ticks": 14075,
          "time": 163.6627906976744,
          "velocity": 0.29133858267716534
        },
        {
          "duration": 0.023255813953511506,
          "durationTicks": 2,
          "midi": 51,
          "name": "D#3",
          "ticks": 14076,
          "time": 163.67441860465115,
          "velocity": 0.2677165354330709
        },
        {
          "duration": 0.44186046511626387,
          "durationTicks": 38,
          "midi": 52,
          "name": "E3",
          "ticks": 14078,
          "time": 163.69767441860466,
          "velocity": 0.3464566929133858
        },
        {
          "duration": 0.13953488372092693,
          "durationTicks": 12,
          "midi": 95,
          "name": "B6",
          "ticks": 14129,
          "time": 164.2906976744186,
          "velocity": 0.10236220472440945
        },
        {
          "duration": 0.9069767441860392,
          "durationTicks": 78,
          "midi": 52,
          "name": "E3",
          "ticks": 14138,
          "time": 164.3953488372093,
          "velocity": 0.2047244094488189
        },
        {
          "duration": 0.09302325581396076,
          "durationTicks": 8,
          "midi": 95,
          "name": "B6",
          "ticks": 14147,
          "time": 164.5,
          "velocity": 0.12598425196850394
        },
        {
          "duration": 0.034883720930224626,
          "durationTicks": 3,
          "midi": 67,
          "name": "G4",
          "ticks": 14153,
          "time": 164.56976744186048,
          "velocity": 0.11811023622047244
        },
        {
          "duration": 0.11627906976744384,
          "durationTicks": 10,
          "midi": 67,
          "name": "G4",
          "ticks": 14159,
          "time": 164.63953488372093,
          "velocity": 0.2440944881889764
        },
        {
          "duration": 0.034883720930224626,
          "durationTicks": 3,
          "midi": 95,
          "name": "B6",
          "ticks": 14165,
          "time": 164.7093023255814,
          "velocity": 0.09448818897637795
        },
        {
          "duration": 0.25581395348837077,
          "durationTicks": 22,
          "midi": 67,
          "name": "G4",
          "ticks": 14171,
          "time": 164.77906976744185,
          "velocity": 0.25196850393700787
        },
        {
          "duration": 0.2674418604651123,
          "durationTicks": 23,
          "midi": 95,
          "name": "B6",
          "ticks": 14181,
          "time": 164.8953488372093,
          "velocity": 0.1889763779527559
        },
        {
          "duration": 0.15116279069766847,
          "durationTicks": 13,
          "midi": 67,
          "name": "G4",
          "ticks": 14199,
          "time": 165.1046511627907,
          "velocity": 0.28346456692913385
        },
        {
          "duration": 0.19767441860466306,
          "durationTicks": 17,
          "midi": 78,
          "name": "F#5",
          "ticks": 14204,
          "time": 165.1627906976744,
          "velocity": 0.14960629921259844
        },
        {
          "duration": 0.03488372093025305,
          "durationTicks": 3,
          "midi": 67,
          "name": "G4",
          "ticks": 14214,
          "time": 165.27906976744185,
          "velocity": 0.14960629921259844
        },
        {
          "duration": 0.04651162790696617,
          "durationTicks": 4,
          "midi": 98,
          "name": "D7",
          "ticks": 14217,
          "time": 165.3139534883721,
          "velocity": 0.07874015748031496
        },
        {
          "duration": 0.04651162790696617,
          "durationTicks": 4,
          "midi": 95,
          "name": "B6",
          "ticks": 14218,
          "time": 165.32558139534885,
          "velocity": 0.10236220472440945
        },
        {
          "duration": 0.12790697674418539,
          "durationTicks": 11,
          "midi": 64,
          "name": "E4",
          "ticks": 14219,
          "time": 165.3372093023256,
          "velocity": 0.08661417322834646
        },
        {
          "duration": 0.0813953488371908,
          "durationTicks": 7,
          "midi": 67,
          "name": "G4",
          "ticks": 14219,
          "time": 165.3372093023256,
          "velocity": 0.18110236220472442
        },
        {
          "duration": 0.27906976744185386,
          "durationTicks": 24,
          "midi": 67,
          "name": "G4",
          "ticks": 14229,
          "time": 165.45348837209303,
          "velocity": 0.2755905511811024
        },
        {
          "duration": 0.1046511627907023,
          "durationTicks": 9,
          "midi": 95,
          "name": "B6",
          "ticks": 14233,
          "time": 165.5,
          "velocity": 0.14173228346456693
        },
        {
          "duration": 0.06976744186047767,
          "durationTicks": 6,
          "midi": 98,
          "name": "D7",
          "ticks": 14235,
          "time": 165.52325581395348,
          "velocity": 0.07086614173228346
        },
        {
          "duration": 0.03488372093025305,
          "durationTicks": 3,
          "midi": 78,
          "name": "F#5",
          "ticks": 14238,
          "time": 165.5581395348837,
          "velocity": 0.07086614173228346
        },
        {
          "duration": 0.05813953488370771,
          "durationTicks": 5,
          "midi": 64,
          "name": "E4",
          "ticks": 14241,
          "time": 165.59302325581396,
          "velocity": 0.13385826771653545
        },
        {
          "duration": 1.6860465116279215,
          "durationTicks": 145,
          "midi": 52,
          "name": "E3",
          "ticks": 14244,
          "time": 165.62790697674419,
          "velocity": 0.2755905511811024
        },
        {
          "duration": 0.1046511627907023,
          "durationTicks": 9,
          "midi": 95,
          "name": "B6",
          "ticks": 14248,
          "time": 165.67441860465115,
          "velocity": 0.18110236220472442
        },
        {
          "duration": 0.09302325581396076,
          "durationTicks": 8,
          "midi": 67,
          "name": "G4",
          "ticks": 14254,
          "time": 165.74418604651163,
          "velocity": 0.2283464566929134
        },
        {
          "duration": 0.16279069767443843,
          "durationTicks": 14,
          "midi": 78,
          "name": "F#5",
          "ticks": 14258,
          "time": 165.7906976744186,
          "velocity": 0.08661417322834646
        },
        {
          "duration": 0.034883720930224626,
          "durationTicks": 3,
          "midi": 79,
          "name": "G5",
          "ticks": 14262,
          "time": 165.8372093023256,
          "velocity": 0.08661417322834646
        },
        {
          "duration": 0.034883720930224626,
          "durationTicks": 3,
          "midi": 90,
          "name": "F#6",
          "ticks": 14262,
          "time": 165.8372093023256,
          "velocity": 0.08661417322834646
        },
        {
          "duration": 0.034883720930224626,
          "durationTicks": 3,
          "midi": 95,
          "name": "B6",
          "ticks": 14263,
          "time": 165.84883720930233,
          "velocity": 0.07874015748031496
        },
        {
          "duration": 0.05813953488373613,
          "durationTicks": 5,
          "midi": 67,
          "name": "G4",
          "ticks": 14266,
          "time": 165.88372093023256,
          "velocity": 0.2283464566929134
        },
        {
          "duration": 0.05813953488373613,
          "durationTicks": 5,
          "midi": 95,
          "name": "B6",
          "ticks": 14269,
          "time": 165.91860465116278,
          "velocity": 0.07874015748031496
        },
        {
          "duration": 0.03488372093025305,
          "durationTicks": 3,
          "midi": 78,
          "name": "F#5",
          "ticks": 14279,
          "time": 166.03488372093022,
          "velocity": 0.07874015748031496
        },
        {
          "duration": 0.18604651162792152,
          "durationTicks": 16,
          "midi": 67,
          "name": "G4",
          "ticks": 14280,
          "time": 166.04651162790697,
          "velocity": 0.29133858267716534
        },
        {
          "duration": 0.05813953488373613,
          "durationTicks": 5,
          "midi": 95,
          "name": "B6",
          "ticks": 14280,
          "time": 166.04651162790697,
          "velocity": 0.11023622047244094
        },
        {
          "duration": 0.08139534883721922,
          "durationTicks": 7,
          "midi": 95,
          "name": "B6",
          "ticks": 14288,
          "time": 166.13953488372093,
          "velocity": 0.14960629921259844
        },
        {
          "duration": 1.2558139534883708,
          "durationTicks": 108,
          "midi": 40,
          "name": "E2",
          "ticks": 14290,
          "time": 166.1627906976744,
          "velocity": 0.13385826771653545
        },
        {
          "duration": 0.16279069767441,
          "durationTicks": 14,
          "midi": 67,
          "name": "G4",
          "ticks": 14298,
          "time": 166.25581395348837,
          "velocity": 0.2755905511811024
        },
        {
          "duration": 0.8604651162790731,
          "durationTicks": 74,
          "midi": 78,
          "name": "F#5",
          "ticks": 14299,
          "time": 166.2674418604651,
          "velocity": 0.14173228346456693
        },
        {
          "duration": 1.2209302325581461,
          "durationTicks": 105,
          "midi": 59,
          "name": "B3",
          "ticks": 14307,
          "time": 166.36046511627907,
          "velocity": 0.28346456692913385
        },
        {
          "duration": 0.08139534883721922,
          "durationTicks": 7,
          "midi": 95,
          "name": "B6",
          "ticks": 14309,
          "time": 166.38372093023256,
          "velocity": 0.12598425196850394
        },
        {
          "duration": 0.06976744186047767,
          "durationTicks": 6,
          "midi": 66,
          "name": "F#4",
          "ticks": 14312,
          "time": 166.41860465116278,
          "velocity": 0.14173228346456693
        },
        {
          "duration": 0.034883720930224626,
          "durationTicks": 3,
          "midi": 95,
          "name": "B6",
          "ticks": 14319,
          "time": 166.5,
          "velocity": 0.09448818897637795
        },
        {
          "duration": 0.05813953488373613,
          "durationTicks": 5,
          "midi": 67,
          "name": "G4",
          "ticks": 14320,
          "time": 166.51162790697674,
          "velocity": 0.2125984251968504
        },
        {
          "duration": 0.05813953488370771,
          "durationTicks": 5,
          "midi": 66,
          "name": "F#4",
          "ticks": 14327,
          "time": 166.59302325581396,
          "velocity": 0.14960629921259844
        },
        {
          "duration": 0.04651162790699459,
          "durationTicks": 4,
          "midi": 95,
          "name": "B6",
          "ticks": 14332,
          "time": 166.65116279069767,
          "velocity": 0.18110236220472442
        },
        {
          "duration": 0.12790697674418539,
          "durationTicks": 11,
          "midi": 67,
          "name": "G4",
          "ticks": 14336,
          "time": 166.69767441860466,
          "velocity": 0.18110236220472442
        },
        {
          "duration": 0.09302325581396076,
          "durationTicks": 8,
          "midi": 67,
          "name": "G4",
          "ticks": 14350,
          "time": 166.86046511627907,
          "velocity": 0.1889763779527559
        },
        {
          "duration": 0.04651162790696617,
          "durationTicks": 4,
          "midi": 67,
          "name": "G4",
          "ticks": 14368,
          "time": 167.06976744186048,
          "velocity": 0.14960629921259844
        },
        {
          "duration": 0.034883720930224626,
          "durationTicks": 3,
          "midi": 66,
          "name": "F#4",
          "ticks": 14382,
          "time": 167.2325581395349,
          "velocity": 0.11811023622047244
        },
        {
          "duration": 0.04651162790699459,
          "durationTicks": 4,
          "midi": 67,
          "name": "G4",
          "ticks": 14385,
          "time": 167.2674418604651,
          "velocity": 0.14173228346456693
        },
        {
          "duration": 0.05813953488370771,
          "durationTicks": 5,
          "midi": 67,
          "name": "G4",
          "ticks": 14391,
          "time": 167.3372093023256,
          "velocity": 0.11023622047244094
        },
        {
          "duration": 1.4186046511627808,
          "durationTicks": 122,
          "midi": 52,
          "name": "E3",
          "ticks": 14402,
          "time": 167.46511627906978,
          "velocity": 0.2283464566929134
        },
        {
          "duration": 0.06976744186047767,
          "durationTicks": 6,
          "midi": 66,
          "name": "F#4",
          "ticks": 14409,
          "time": 167.54651162790697,
          "velocity": 0.08661417322834646
        },
        {
          "duration": 0.1046511627907023,
          "durationTicks": 9,
          "midi": 59,
          "name": "B3",
          "ticks": 14448,
          "time": 168,
          "velocity": 0.10236220472440945
        },
        {
          "duration": 0.16279069767443843,
          "durationTicks": 14,
          "midi": 71,
          "name": "B4",
          "ticks": 14474,
          "time": 168.30232558139534,
          "velocity": 0.10236220472440945
        },
        {
          "duration": 1.1046511627907023,
          "durationTicks": 95,
          "midi": 59,
          "name": "B3",
          "ticks": 14477,
          "time": 168.3372093023256,
          "velocity": 0.15748031496062992
        }
      ],
      "endOfTrackTicks": 14572
    }
  ]
}
