{
  "header": {
    "keySignatures": [],
    "meta": [],
    "name": "",
    "ppq": 384,
    "tempos": [
      {
        "bpm": 110.00011000011,
        "ticks": 0
      }
    ],
    "timeSignatures": [
      {
        "ticks": 0,
        "timeSignature": [
          1,
          4
        ],
        "measures": 0
      }
    ]
  },
  "tracks": [
    {
      "channel": 0,
      "controlChanges": {},
      "pitchBends": [],
      "instrument": {
        "family": "chromatic percussion",
        "number": 13,
        "name": "xylophone"
      },
      "name": "Xylophone",
      "notes": [
        {
          "duration": 0.1363635,
          "durationTicks": 96,
          "midi": 73,
          "name": "C#5",
          "ticks": 0,
          "time": 0,
          "velocity": 0.3937007874015748
        },
        {
          "duration": 0.1363635,
          "durationTicks": 96,
          "midi": 83,
          "name": "B5",
          "ticks": 0,
          "time": 0,
          "velocity": 0.3937007874015748
        },
        {
          "duration": 0.13636350000000003,
          "durationTicks": 96,
          "midi": 76,
          "name": "E5",
          "ticks": 192,
          "time": 0.272727,
          "velocity": 0.3937007874015748
        },
        {
          "duration": 0.13636350000000003,
          "durationTicks": 96,
          "midi": 73,
          "name": "C#5",
          "ticks": 192,
          "time": 0.272727,
          "velocity": 0.3937007874015748
        },
        {
          "duration": 0.13636349999999997,
          "durationTicks": 96,
          "midi": 85,
          "name": "C#6",
          "ticks": 384,
          "time": 0.545454,
          "velocity": 0.3937007874015748
        },
        {
          "duration": 0.13636349999999997,
          "durationTicks": 96,
          "midi": 76,
          "name": "E5",
          "ticks": 384,
          "time": 0.545454,
          "velocity": 0.3937007874015748
        },
        {
          "duration": 0.13636349999999997,
          "durationTicks": 96,
          "midi": 83,
          "name": "B5",
          "ticks": 576,
          "time": 0.818181,
          "velocity": 0.3937007874015748
        },
        {
          "duration": 0.13636349999999997,
          "durationTicks": 96,
          "midi": 73,
          "name": "C#5",
          "ticks": 576,
          "time": 0.818181,
          "velocity": 0.3937007874015748
        },
        {
          "duration": 0.13636350000000008,
          "durationTicks": 96,
          "midi": 80,
          "name": "G#5",
          "ticks": 768,
          "time": 1.090908,
          "velocity": 0.3937007874015748
        },
        {
          "duration": 0.13636350000000008,
          "durationTicks": 96,
          "midi": 75,
          "name": "D#5",
          "ticks": 768,
          "time": 1.090908,
          "velocity": 0.3937007874015748
        },
        {
          "duration": 0.13636350000000008,
          "durationTicks": 96,
          "midi": 72,
          "name": "C5",
          "ticks": 960,
          "time": 1.363635,
          "velocity": 0.3937007874015748
        },
        {
          "duration": 0.13636350000000008,
          "durationTicks": 96,
          "midi": 75,
          "name": "D#5",
          "ticks": 960,
          "time": 1.363635,
          "velocity": 0.3937007874015748
        },
        {
          "duration": 0.13636349999999986,
          "durationTicks": 96,
          "midi": 80,
          "name": "G#5",
          "ticks": 1152,
          "time": 1.636362,
          "velocity": 0.3937007874015748
        },
        {
          "duration": 0.13636349999999986,
          "durationTicks": 96,
          "midi": 66,
          "name": "F#4",
          "ticks": 1152,
          "time": 1.636362,
          "velocity": 0.3937007874015748
        },
        {
          "duration": 0.13636350000000008,
          "durationTicks": 96,
          "midi": 66,
          "name": "F#4",
          "ticks": 1344,
          "time": 1.909089,
          "velocity": 0.3937007874015748
        },
        {
          "duration": 0.13636349999999986,
          "durationTicks": 96,
          "midi": 80,
          "name": "G#5",
          "ticks": 1536,
          "time": 2.181816,
          "velocity": 0.3937007874015748
        },
        {
          "duration": 0.13636349999999986,
          "durationTicks": 96,
          "midi": 73,
          "name": "C#5",
          "ticks": 1536,
          "time": 2.181816,
          "velocity": 0.3937007874015748
        },
        {
          "duration": 0.13636349999999986,
          "durationTicks": 96,
          "midi": 76,
          "name": "E5",
          "ticks": 1728,
          "time": 2.454543,
          "velocity": 0.3937007874015748
        },
        {
          "duration": 0.13636349999999986,
          "durationTicks": 96,
          "midi": 78,
          "name": "F#5",
          "ticks": 1728,
          "time": 2.454543,
          "velocity": 0.3937007874015748
        },
        {
          "duration": 0.13636349999999986,
          "durationTicks": 96,
          "midi": 73,
          "name": "C#5",
          "ticks": 1728,
          "time": 2.454543,
          "velocity": 0.3937007874015748
        },
        {
          "duration": 0.1363635000000003,
          "durationTicks": 96,
          "midi": 76,
          "name": "E5",
          "ticks": 1920,
          "time": 2.72727,
          "velocity": 0.3937007874015748
        },
        {
          "duration": 0.1363635000000003,
          "durationTicks": 96,
          "midi": 80,
          "name": "G#5",
          "ticks": 1920,
          "time": 2.72727,
          "velocity": 0.3937007874015748
        },
        {
          "duration": 0.13636349999999986,
          "durationTicks": 96,
          "midi": 81,
          "name": "A5",
          "ticks": 2112,
          "time": 2.999997,
          "velocity": 0.3937007874015748
        },
        {
          "duration": 0.13636349999999986,
          "durationTicks": 96,
          "midi": 76,
          "name": "E5",
          "ticks": 2112,
          "time": 2.999997,
          "velocity": 0.3937007874015748
        },
        {
          "duration": 0.13636349999999986,
          "durationTicks": 96,
          "midi": 73,
          "name": "C#5",
          "ticks": 2112,
          "time": 2.999997,
          "velocity": 0.3937007874015748
        },
        {
          "duration": 0.13636349999999986,
          "durationTicks": 96,
          "midi": 75,
          "name": "D#5",
          "ticks": 2304,
          "time": 3.272724,
          "velocity": 0.3937007874015748
        },
        {
          "duration": 0.13636349999999986,
          "durationTicks": 96,
          "midi": 80,
          "name": "G#5",
          "ticks": 2304,
          "time": 3.272724,
          "velocity": 0.3937007874015748
        },
        {
          "duration": 0.13636349999999986,
          "durationTicks": 96,
          "midi": 75,
          "name": "D#5",
          "ticks": 2496,
          "time": 3.545451,
          "velocity": 0.3937007874015748
        },
        {
          "duration": 0.13636349999999986,
          "durationTicks": 96,
          "midi": 72,
          "name": "C5",
          "ticks": 2496,
          "time": 3.545451,
          "velocity": 0.3937007874015748
        },
        {
          "duration": 0.13636349999999986,
          "durationTicks": 96,
          "midi": 66,
          "name": "F#4",
          "ticks": 2688,
          "time": 3.818178,
          "velocity": 0.3937007874015748
        },
        {
          "duration": 0.13636349999999986,
          "durationTicks": 96,
          "midi": 66,
          "name": "F#4",
          "ticks": 2880,
          "time": 4.090905,
          "velocity": 0.3937007874015748
        },
        {
          "duration": 0.13636349999999986,
          "durationTicks": 96,
          "midi": 75,
          "name": "D#5",
          "ticks": 2880,
          "time": 4.090905,
          "velocity": 0.3937007874015748
        },
        {
          "duration": 0.13636349999999986,
          "durationTicks": 96,
          "midi": 81,
          "name": "A5",
          "ticks": 3072,
          "time": 4.363632,
          "velocity": 0.3937007874015748
        },
        {
          "duration": 0.13636349999999986,
          "durationTicks": 96,
          "midi": 73,
          "name": "C#5",
          "ticks": 3072,
          "time": 4.363632,
          "velocity": 0.3937007874015748
        },
        {
          "duration": 0.13636349999999986,
          "durationTicks": 96,
          "midi": 76,
          "name": "E5",
          "ticks": 3264,
          "time": 4.636359,
          "velocity": 0.3937007874015748
        },
        {
          "duration": 0.13636349999999986,
          "durationTicks": 96,
          "midi": 73,
          "name": "C#5",
          "ticks": 3264,
          "time": 4.636359,
          "velocity": 0.3937007874015748
        },
        {
          "duration": 0.13636349999999986,
          "durationTicks": 96,
          "midi": 76,
          "name": "E5",
          "ticks": 3456,
          "time": 4.909086,
          "velocity": 0.3937007874015748
        },
        {
          "duration": 0.13636349999999986,
          "durationTicks": 96,
          "midi": 78,
          "name": "F#5",
          "ticks": 3456,
          "time": 4.909086,
          "velocity": 0.3937007874015748
        },
        {
          "duration": 0.13636349999999986,
          "durationTicks": 96,
          "midi": 73,
          "name": "C#5",
          "ticks": 3648,
          "time": 5.181813,
          "velocity": 0.3937007874015748
        },
        {
          "duration": 0.13636349999999986,
          "durationTicks": 96,
          "midi": 76,
          "name": "E5",
          "ticks": 3648,
          "time": 5.181813,
          "velocity": 0.3937007874015748
        },
        {
          "duration": 0.13636349999999986,
          "durationTicks": 96,
          "midi": 83,
          "name": "B5",
          "ticks": 3648,
          "time": 5.181813,
          "velocity": 0.3937007874015748
        },
        {
          "duration": 0.13636349999999986,
          "durationTicks": 96,
          "midi": 75,
          "name": "D#5",
          "ticks": 3840,
          "time": 5.45454,
          "velocity": 0.3937007874015748
        },
        {
          "duration": 0.13636349999999986,
          "durationTicks": 96,
          "midi": 80,
          "name": "G#5",
          "ticks": 3840,
          "time": 5.45454,
          "velocity": 0.3937007874015748
        },
        {
          "duration": 0.13636349999999986,
          "durationTicks": 96,
          "midi": 75,
          "name": "D#5",
          "ticks": 4032,
          "time": 5.727267,
          "velocity": 0.3937007874015748
        },
        {
          "duration": 0.13636349999999986,
          "durationTicks": 96,
          "midi": 72,
          "name": "C5",
          "ticks": 4032,
          "time": 5.727267,
          "velocity": 0.3937007874015748
        },
        {
          "duration": 0.13636349999999986,
          "durationTicks": 96,
          "midi": 66,
          "name": "F#4",
          "ticks": 4224,
          "time": 5.999994,
          "velocity": 0.3937007874015748
        },
        {
          "duration": 0.13636349999999986,
          "durationTicks": 96,
          "midi": 66,
          "name": "F#4",
          "ticks": 4416,
          "time": 6.272721,
          "velocity": 0.3937007874015748
        },
        {
          "duration": 0.13636349999999986,
          "durationTicks": 96,
          "midi": 75,
          "name": "D#5",
          "ticks": 4416,
          "time": 6.272721,
          "velocity": 0.3937007874015748
        },
        {
          "duration": 0.13636349999999986,
          "durationTicks": 96,
          "midi": 76,
          "name": "E5",
          "ticks": 4608,
          "time": 6.545448,
          "velocity": 0.3937007874015748
        },
        {
          "duration": 0.13636349999999986,
          "durationTicks": 96,
          "midi": 73,
          "name": "C#5",
          "ticks": 4608,
          "time": 6.545448,
          "velocity": 0.3937007874015748
        },
        {
          "duration": 0.13636349999999986,
          "durationTicks": 96,
          "midi": 73,
          "name": "C#5",
          "ticks": 4800,
          "time": 6.818175,
          "velocity": 0.3937007874015748
        },
        {
          "duration": 0.13636349999999986,
          "durationTicks": 96,
          "midi": 76,
          "name": "E5",
          "ticks": 4800,
          "time": 6.818175,
          "velocity": 0.3937007874015748
        },
        {
          "duration": 0.13636349999999986,
          "durationTicks": 96,
          "midi": 76,
          "name": "E5",
          "ticks": 4992,
          "time": 7.090902,
          "velocity": 0.3937007874015748
        },
        {
          "duration": 0.13636349999999986,
          "durationTicks": 96,
          "midi": 73,
          "name": "C#5",
          "ticks": 4992,
          "time": 7.090902,
          "velocity": 0.3937007874015748
        },
        {
          "duration": 0.13636350000000075,
          "durationTicks": 96,
          "midi": 73,
          "name": "C#5",
          "ticks": 5184,
          "time": 7.3636289999999995,
          "velocity": 0.3937007874015748
        },
        {
          "duration": 0.13636350000000075,
          "durationTicks": 96,
          "midi": 76,
          "name": "E5",
          "ticks": 5184,
          "time": 7.3636289999999995,
          "velocity": 0.3937007874015748
        },
        {
          "duration": 0.13636350000000075,
          "durationTicks": 96,
          "midi": 78,
          "name": "F#5",
          "ticks": 5184,
          "time": 7.3636289999999995,
          "velocity": 0.3937007874015748
        },
        {
          "duration": 0.13636349999999986,
          "durationTicks": 96,
          "midi": 75,
          "name": "D#5",
          "ticks": 5376,
          "time": 7.636356,
          "velocity": 0.3937007874015748
        },
        {
          "duration": 0.13636349999999986,
          "durationTicks": 96,
          "midi": 72,
          "name": "C5",
          "ticks": 5376,
          "time": 7.636356,
          "velocity": 0.3937007874015748
        },
        {
          "duration": 0.13636350000000075,
          "durationTicks": 96,
          "midi": 75,
          "name": "D#5",
          "ticks": 5568,
          "time": 7.909083,
          "velocity": 0.3937007874015748
        },
        {
          "duration": 0.13636350000000075,
          "durationTicks": 96,
          "midi": 72,
          "name": "C5",
          "ticks": 5568,
          "time": 7.909083,
          "velocity": 0.3937007874015748
        },
        {
          "duration": 0.13636349999999986,
          "durationTicks": 96,
          "midi": 75,
          "name": "D#5",
          "ticks": 5760,
          "time": 8.18181,
          "velocity": 0.3937007874015748
        },
        {
          "duration": 0.13636349999999986,
          "durationTicks": 96,
          "midi": 68,
          "name": "G#4",
          "ticks": 5760,
          "time": 8.18181,
          "velocity": 0.3937007874015748
        },
        {
          "duration": 0.13636349999999986,
          "durationTicks": 96,
          "midi": 68,
          "name": "G#4",
          "ticks": 5952,
          "time": 8.454537,
          "velocity": 0.3937007874015748
        },
        {
          "duration": 0.13636349999999986,
          "durationTicks": 96,
          "midi": 73,
          "name": "C#5",
          "ticks": 6144,
          "time": 8.727264,
          "velocity": 0.3937007874015748
        },
        {
          "duration": 0.13636349999999986,
          "durationTicks": 96,
          "midi": 88,
          "name": "E6",
          "ticks": 6336,
          "time": 8.999991,
          "velocity": 0.3937007874015748
        },
        {
          "duration": 0.13636349999999986,
          "durationTicks": 96,
          "midi": 73,
          "name": "C#5",
          "ticks": 6336,
          "time": 8.999991,
          "velocity": 0.3937007874015748
        },
        {
          "duration": 0.13636349999999986,
          "durationTicks": 96,
          "midi": 73,
          "name": "C#5",
          "ticks": 6528,
          "time": 9.272718,
          "velocity": 0.3937007874015748
        },
        {
          "duration": 0.13636349999999986,
          "durationTicks": 96,
          "midi": 87,
          "name": "D#6",
          "ticks": 6528,
          "time": 9.272718,
          "velocity": 0.3937007874015748
        },
        {
          "duration": 0.13636350000000164,
          "durationTicks": 96,
          "midi": 73,
          "name": "C#5",
          "ticks": 6720,
          "time": 9.545444999999999,
          "velocity": 0.3937007874015748
        },
        {
          "duration": 0.13636350000000164,
          "durationTicks": 96,
          "midi": 85,
          "name": "C#6",
          "ticks": 6720,
          "time": 9.545444999999999,
          "velocity": 0.3937007874015748
        },
        {
          "duration": 0.13636349999999986,
          "durationTicks": 96,
          "midi": 83,
          "name": "B5",
          "ticks": 6912,
          "time": 9.818172,
          "velocity": 0.3937007874015748
        },
        {
          "duration": 0.13636349999999986,
          "durationTicks": 96,
          "midi": 76,
          "name": "E5",
          "ticks": 6912,
          "time": 9.818172,
          "velocity": 0.3937007874015748
        },
        {
          "duration": 0.13636349999999986,
          "durationTicks": 96,
          "midi": 88,
          "name": "E6",
          "ticks": 7104,
          "time": 10.090899,
          "velocity": 0.3937007874015748
        },
        {
          "duration": 0.13636349999999986,
          "durationTicks": 96,
          "midi": 76,
          "name": "E5",
          "ticks": 7104,
          "time": 10.090899,
          "velocity": 0.3937007874015748
        },
        {
          "duration": 0.13636349999999986,
          "durationTicks": 96,
          "midi": 68,
          "name": "G#4",
          "ticks": 7296,
          "time": 10.363626,
          "velocity": 0.3937007874015748
        },
        {
          "duration": 0.13636349999999986,
          "durationTicks": 96,
          "midi": 80,
          "name": "G#5",
          "ticks": 7296,
          "time": 10.363626,
          "velocity": 0.3937007874015748
        },
        {
          "duration": 0.13636349999999986,
          "durationTicks": 96,
          "midi": 68,
          "name": "G#4",
          "ticks": 7488,
          "time": 10.636353,
          "velocity": 0.3937007874015748
        },
        {
          "duration": 0.13636349999999986,
          "durationTicks": 96,
          "midi": 83,
          "name": "B5",
          "ticks": 7488,
          "time": 10.636353,
          "velocity": 0.3937007874015748
        },
        {
          "duration": 0.13636349999999986,
          "durationTicks": 96,
          "midi": 85,
          "name": "C#6",
          "ticks": 7584,
          "time": 10.7727165,
          "velocity": 0.3937007874015748
        },
        {
          "duration": 0.13636349999999986,
          "durationTicks": 96,
          "midi": 83,
          "name": "B5",
          "ticks": 7680,
          "time": 10.90908,
          "velocity": 0.3937007874015748
        },
        {
          "duration": 0.13636349999999986,
          "durationTicks": 96,
          "midi": 66,
          "name": "F#4",
          "ticks": 7680,
          "time": 10.90908,
          "velocity": 0.3937007874015748
        },
        {
          "duration": 0.13636349999999986,
          "durationTicks": 96,
          "midi": 81,
          "name": "A5",
          "ticks": 7872,
          "time": 11.181807,
          "velocity": 0.3937007874015748
        },
        {
          "duration": 0.13636349999999986,
          "durationTicks": 96,
          "midi": 66,
          "name": "F#4",
          "ticks": 7872,
          "time": 11.181807,
          "velocity": 0.3937007874015748
        },
        {
          "duration": 0.13636349999999986,
          "durationTicks": 96,
          "midi": 68,
          "name": "G#4",
          "ticks": 8064,
          "time": 11.454534,
          "velocity": 0.3937007874015748
        },
        {
          "duration": 0.13636349999999986,
          "durationTicks": 96,
          "midi": 80,
          "name": "G#5",
          "ticks": 8064,
          "time": 11.454534,
          "velocity": 0.3937007874015748
        },
        {
          "duration": 0.13636349999999986,
          "durationTicks": 96,
          "midi": 78,
          "name": "F#5",
          "ticks": 8256,
          "time": 11.727261,
          "velocity": 0.3937007874015748
        },
        {
          "duration": 0.13636349999999986,
          "durationTicks": 96,
          "midi": 68,
          "name": "G#4",
          "ticks": 8256,
          "time": 11.727261,
          "velocity": 0.3937007874015748
        },
        {
          "duration": 0.13636349999999986,
          "durationTicks": 96,
          "midi": 73,
          "name": "C#5",
          "ticks": 8448,
          "time": 11.999988,
          "velocity": 0.3937007874015748
        },
        {
          "duration": 0.13636349999999986,
          "durationTicks": 96,
          "midi": 80,
          "name": "G#5",
          "ticks": 8448,
          "time": 11.999988,
          "velocity": 0.3937007874015748
        },
        {
          "duration": 0.13636349999999986,
          "durationTicks": 96,
          "midi": 73,
          "name": "C#5",
          "ticks": 8640,
          "time": 12.272715,
          "velocity": 0.3937007874015748
        },
        {
          "duration": 0.13636349999999986,
          "durationTicks": 96,
          "midi": 76,
          "name": "E5",
          "ticks": 8832,
          "time": 12.545442,
          "velocity": 0.3937007874015748
        },
        {
          "duration": 0.13636349999999986,
          "durationTicks": 96,
          "midi": 73,
          "name": "C#5",
          "ticks": 9024,
          "time": 12.818169,
          "velocity": 0.3937007874015748
        },
        {
          "duration": 0.13636349999999986,
          "durationTicks": 96,
          "midi": 78,
          "name": "F#5",
          "ticks": 9216,
          "time": 13.090896,
          "velocity": 0.3937007874015748
        },
        {
          "duration": 0.13636349999999986,
          "durationTicks": 96,
          "midi": 66,
          "name": "F#4",
          "ticks": 9216,
          "time": 13.090896,
          "velocity": 0.3937007874015748
        },
        {
          "duration": 0.13636349999999986,
          "durationTicks": 96,
          "midi": 81,
          "name": "A5",
          "ticks": 9408,
          "time": 13.363623,
          "velocity": 0.3937007874015748
        },
        {
          "duration": 0.13636349999999986,
          "durationTicks": 96,
          "midi": 66,
          "name": "F#4",
          "ticks": 9408,
          "time": 13.363623,
          "velocity": 0.3937007874015748
        },
        {
          "duration": 0.13636349999999986,
          "durationTicks": 96,
          "midi": 69,
          "name": "A4",
          "ticks": 9600,
          "time": 13.63635,
          "velocity": 0.3937007874015748
        },
        {
          "duration": 0.13636349999999986,
          "durationTicks": 96,
          "midi": 80,
          "name": "G#5",
          "ticks": 9600,
          "time": 13.63635,
          "velocity": 0.3937007874015748
        },
        {
          "duration": 0.13636349999999986,
          "durationTicks": 96,
          "midi": 69,
          "name": "A4",
          "ticks": 9792,
          "time": 13.909077,
          "velocity": 0.3937007874015748
        },
        {
          "duration": 0.13636349999999986,
          "durationTicks": 96,
          "midi": 78,
          "name": "F#5",
          "ticks": 9792,
          "time": 13.909077,
          "velocity": 0.3937007874015748
        },
        {
          "duration": 0.13636349999999986,
          "durationTicks": 96,
          "midi": 80,
          "name": "G#5",
          "ticks": 9984,
          "time": 14.181804,
          "velocity": 0.3937007874015748
        },
        {
          "duration": 0.13636349999999986,
          "durationTicks": 96,
          "midi": 73,
          "name": "C#5",
          "ticks": 9984,
          "time": 14.181804,
          "velocity": 0.3937007874015748
        },
        {
          "duration": 0.13636349999999986,
          "durationTicks": 96,
          "midi": 73,
          "name": "C#5",
          "ticks": 10176,
          "time": 14.454531,
          "velocity": 0.3937007874015748
        },
        {
          "duration": 0.13636350000000164,
          "durationTicks": 96,
          "midi": 76,
          "name": "E5",
          "ticks": 10368,
          "time": 14.727257999999999,
          "velocity": 0.3937007874015748
        },
        {
          "duration": 0.13636349999999986,
          "durationTicks": 96,
          "midi": 76,
          "name": "E5",
          "ticks": 10560,
          "time": 14.999985,
          "velocity": 0.3937007874015748
        },
        {
          "duration": 0.13636349999999986,
          "durationTicks": 96,
          "midi": 66,
          "name": "F#4",
          "ticks": 10752,
          "time": 15.272712,
          "velocity": 0.3937007874015748
        },
        {
          "duration": 0.13636349999999986,
          "durationTicks": 96,
          "midi": 78,
          "name": "F#5",
          "ticks": 10752,
          "time": 15.272712,
          "velocity": 0.3937007874015748
        },
        {
          "duration": 0.13636349999999986,
          "durationTicks": 96,
          "midi": 81,
          "name": "A5",
          "ticks": 10944,
          "time": 15.545439,
          "velocity": 0.3937007874015748
        },
        {
          "duration": 0.13636349999999986,
          "durationTicks": 96,
          "midi": 66,
          "name": "F#4",
          "ticks": 10944,
          "time": 15.545439,
          "velocity": 0.3937007874015748
        },
        {
          "duration": 0.13636349999999986,
          "durationTicks": 96,
          "midi": 80,
          "name": "G#5",
          "ticks": 11136,
          "time": 15.818166,
          "velocity": 0.3937007874015748
        },
        {
          "duration": 0.13636349999999986,
          "durationTicks": 96,
          "midi": 69,
          "name": "A4",
          "ticks": 11136,
          "time": 15.818166,
          "velocity": 0.3937007874015748
        },
        {
          "duration": 0.13636349999999808,
          "durationTicks": 96,
          "midi": 78,
          "name": "F#5",
          "ticks": 11328,
          "time": 16.090893,
          "velocity": 0.3937007874015748
        },
        {
          "duration": 0.13636349999999808,
          "durationTicks": 96,
          "midi": 69,
          "name": "A4",
          "ticks": 11328,
          "time": 16.090893,
          "velocity": 0.3937007874015748
        },
        {
          "duration": 0.13636349999999808,
          "durationTicks": 96,
          "midi": 68,
          "name": "G#4",
          "ticks": 11520,
          "time": 16.36362,
          "velocity": 0.3937007874015748
        },
        {
          "duration": 0.13636349999999808,
          "durationTicks": 96,
          "midi": 76,
          "name": "E5",
          "ticks": 11520,
          "time": 16.36362,
          "velocity": 0.3937007874015748
        },
        {
          "duration": 0.13636349999999808,
          "durationTicks": 96,
          "midi": 68,
          "name": "G#4",
          "ticks": 11712,
          "time": 16.636347,
          "velocity": 0.3937007874015748
        },
        {
          "duration": 0.13636349999999808,
          "durationTicks": 96,
          "midi": 75,
          "name": "D#5",
          "ticks": 11712,
          "time": 16.636347,
          "velocity": 0.3937007874015748
        },
        {
          "duration": 0.13636349999999808,
          "durationTicks": 96,
          "midi": 73,
          "name": "C#5",
          "ticks": 11904,
          "time": 16.909074,
          "velocity": 0.3937007874015748
        },
        {
          "duration": 0.13636349999999808,
          "durationTicks": 96,
          "midi": 68,
          "name": "G#4",
          "ticks": 11904,
          "time": 16.909074,
          "velocity": 0.3937007874015748
        },
        {
          "duration": 0.13636349999999808,
          "durationTicks": 96,
          "midi": 75,
          "name": "D#5",
          "ticks": 12096,
          "time": 17.181801,
          "velocity": 0.3937007874015748
        },
        {
          "duration": 0.13636349999999808,
          "durationTicks": 96,
          "midi": 68,
          "name": "G#4",
          "ticks": 12096,
          "time": 17.181801,
          "velocity": 0.3937007874015748
        },
        {
          "duration": 0.13636350000000164,
          "durationTicks": 96,
          "midi": 73,
          "name": "C#5",
          "ticks": 12288,
          "time": 17.454528,
          "velocity": 0.3937007874015748
        },
        {
          "duration": 0.13636350000000164,
          "durationTicks": 96,
          "midi": 73,
          "name": "C#5",
          "ticks": 12480,
          "time": 17.727255,
          "velocity": 0.3937007874015748
        },
        {
          "duration": 0.13636350000000164,
          "durationTicks": 96,
          "midi": 88,
          "name": "E6",
          "ticks": 12480,
          "time": 17.727255,
          "velocity": 0.3937007874015748
        },
        {
          "duration": 0.13636350000000164,
          "durationTicks": 96,
          "midi": 73,
          "name": "C#5",
          "ticks": 12672,
          "time": 17.999982,
          "velocity": 0.3937007874015748
        },
        {
          "duration": 0.13636350000000164,
          "durationTicks": 96,
          "midi": 87,
          "name": "D#6",
          "ticks": 12672,
          "time": 17.999982,
          "velocity": 0.3937007874015748
        },
        {
          "duration": 0.13636350000000164,
          "durationTicks": 96,
          "midi": 85,
          "name": "C#6",
          "ticks": 12864,
          "time": 18.272709,
          "velocity": 0.3937007874015748
        },
        {
          "duration": 0.13636350000000164,
          "durationTicks": 96,
          "midi": 73,
          "name": "C#5",
          "ticks": 12864,
          "time": 18.272709,
          "velocity": 0.3937007874015748
        },
        {
          "duration": 0.13636350000000164,
          "durationTicks": 96,
          "midi": 76,
          "name": "E5",
          "ticks": 13056,
          "time": 18.545436,
          "velocity": 0.3937007874015748
        },
        {
          "duration": 0.13636350000000164,
          "durationTicks": 96,
          "midi": 83,
          "name": "B5",
          "ticks": 13056,
          "time": 18.545436,
          "velocity": 0.3937007874015748
        },
        {
          "duration": 0.13636350000000164,
          "durationTicks": 96,
          "midi": 76,
          "name": "E5",
          "ticks": 13248,
          "time": 18.818163,
          "velocity": 0.3937007874015748
        },
        {
          "duration": 0.13636350000000164,
          "durationTicks": 96,
          "midi": 88,
          "name": "E6",
          "ticks": 13248,
          "time": 18.818163,
          "velocity": 0.3937007874015748
        },
        {
          "duration": 0.13636350000000164,
          "durationTicks": 96,
          "midi": 68,
          "name": "G#4",
          "ticks": 13440,
          "time": 19.090889999999998,
          "velocity": 0.3937007874015748
        },
        {
          "duration": 0.13636350000000164,
          "durationTicks": 96,
          "midi": 80,
          "name": "G#5",
          "ticks": 13440,
          "time": 19.090889999999998,
          "velocity": 0.3937007874015748
        },
        {
          "duration": 0.13636349999999808,
          "durationTicks": 96,
          "midi": 68,
          "name": "G#4",
          "ticks": 13632,
          "time": 19.363617,
          "velocity": 0.3937007874015748
        },
        {
          "duration": 0.13636349999999808,
          "durationTicks": 96,
          "midi": 83,
          "name": "B5",
          "ticks": 13632,
          "time": 19.363617,
          "velocity": 0.3937007874015748
        },
        {
          "duration": 0.13636350000000164,
          "durationTicks": 96,
          "midi": 85,
          "name": "C#6",
          "ticks": 13728,
          "time": 19.4999805,
          "velocity": 0.3937007874015748
        },
        {
          "duration": 0.13636349999999808,
          "durationTicks": 96,
          "midi": 66,
          "name": "F#4",
          "ticks": 13824,
          "time": 19.636344,
          "velocity": 0.3937007874015748
        },
        {
          "duration": 0.13636349999999808,
          "durationTicks": 96,
          "midi": 83,
          "name": "B5",
          "ticks": 13824,
          "time": 19.636344,
          "velocity": 0.3937007874015748
        },
        {
          "duration": 0.13636349999999808,
          "durationTicks": 96,
          "midi": 81,
          "name": "A5",
          "ticks": 14016,
          "time": 19.909071,
          "velocity": 0.3937007874015748
        },
        {
          "duration": 0.13636349999999808,
          "durationTicks": 96,
          "midi": 66,
          "name": "F#4",
          "ticks": 14016,
          "time": 19.909071,
          "velocity": 0.3937007874015748
        },
        {
          "duration": 0.13636349999999808,
          "durationTicks": 96,
          "midi": 80,
          "name": "G#5",
          "ticks": 14208,
          "time": 20.181798,
          "velocity": 0.3937007874015748
        },
        {
          "duration": 0.13636349999999808,
          "durationTicks": 96,
          "midi": 68,
          "name": "G#4",
          "ticks": 14208,
          "time": 20.181798,
          "velocity": 0.3937007874015748
        },
        {
          "duration": 0.13636349999999808,
          "durationTicks": 96,
          "midi": 78,
          "name": "F#5",
          "ticks": 14400,
          "time": 20.454525,
          "velocity": 0.3937007874015748
        },
        {
          "duration": 0.13636349999999808,
          "durationTicks": 96,
          "midi": 68,
          "name": "G#4",
          "ticks": 14400,
          "time": 20.454525,
          "velocity": 0.3937007874015748
        },
        {
          "duration": 0.13636349999999808,
          "durationTicks": 96,
          "midi": 73,
          "name": "C#5",
          "ticks": 14592,
          "time": 20.727252,
          "velocity": 0.3937007874015748
        },
        {
          "duration": 0.13636349999999808,
          "durationTicks": 96,
          "midi": 80,
          "name": "G#5",
          "ticks": 14592,
          "time": 20.727252,
          "velocity": 0.3937007874015748
        },
        {
          "duration": 0.13636350000000164,
          "durationTicks": 96,
          "midi": 73,
          "name": "C#5",
          "ticks": 14784,
          "time": 20.999979,
          "velocity": 0.3937007874015748
        },
        {
          "duration": 0.13636350000000164,
          "durationTicks": 96,
          "midi": 76,
          "name": "E5",
          "ticks": 14976,
          "time": 21.272706,
          "velocity": 0.3937007874015748
        },
        {
          "duration": 0.13636350000000164,
          "durationTicks": 96,
          "midi": 73,
          "name": "C#5",
          "ticks": 15168,
          "time": 21.545433,
          "velocity": 0.3937007874015748
        },
        {
          "duration": 0.13636350000000164,
          "durationTicks": 96,
          "midi": 66,
          "name": "F#4",
          "ticks": 15360,
          "time": 21.81816,
          "velocity": 0.3937007874015748
        },
        {
          "duration": 0.13636350000000164,
          "durationTicks": 96,
          "midi": 78,
          "name": "F#5",
          "ticks": 15360,
          "time": 21.81816,
          "velocity": 0.3937007874015748
        },
        {
          "duration": 0.13636350000000164,
          "durationTicks": 96,
          "midi": 81,
          "name": "A5",
          "ticks": 15552,
          "time": 22.090887,
          "velocity": 0.3937007874015748
        },
        {
          "duration": 0.13636350000000164,
          "durationTicks": 96,
          "midi": 66,
          "name": "F#4",
          "ticks": 15552,
          "time": 22.090887,
          "velocity": 0.3937007874015748
        },
        {
          "duration": 0.13636350000000164,
          "durationTicks": 96,
          "midi": 80,
          "name": "G#5",
          "ticks": 15744,
          "time": 22.363614,
          "velocity": 0.3937007874015748
        },
        {
          "duration": 0.13636350000000164,
          "durationTicks": 96,
          "midi": 69,
          "name": "A4",
          "ticks": 15744,
          "time": 22.363614,
          "velocity": 0.3937007874015748
        },
        {
          "duration": 0.13636350000000164,
          "durationTicks": 96,
          "midi": 78,
          "name": "F#5",
          "ticks": 15936,
          "time": 22.636340999999998,
          "velocity": 0.3937007874015748
        },
        {
          "duration": 0.13636350000000164,
          "durationTicks": 96,
          "midi": 69,
          "name": "A4",
          "ticks": 15936,
          "time": 22.636340999999998,
          "velocity": 0.3937007874015748
        },
        {
          "duration": 0.13636349999999808,
          "durationTicks": 96,
          "midi": 73,
          "name": "C#5",
          "ticks": 16128,
          "time": 22.909068,
          "velocity": 0.3937007874015748
        },
        {
          "duration": 0.13636349999999808,
          "durationTicks": 96,
          "midi": 80,
          "name": "G#5",
          "ticks": 16128,
          "time": 22.909068,
          "velocity": 0.3937007874015748
        },
        {
          "duration": 0.13636349999999808,
          "durationTicks": 96,
          "midi": 73,
          "name": "C#5",
          "ticks": 16320,
          "time": 23.181795,
          "velocity": 0.3937007874015748
        },
        {
          "duration": 0.13636349999999808,
          "durationTicks": 96,
          "midi": 76,
          "name": "E5",
          "ticks": 16512,
          "time": 23.454522,
          "velocity": 0.3937007874015748
        },
        {
          "duration": 0.13636349999999808,
          "durationTicks": 96,
          "midi": 76,
          "name": "E5",
          "ticks": 16704,
          "time": 23.727249,
          "velocity": 0.3937007874015748
        },
        {
          "duration": 0.13636349999999808,
          "durationTicks": 96,
          "midi": 78,
          "name": "F#5",
          "ticks": 16896,
          "time": 23.999976,
          "velocity": 0.3937007874015748
        },
        {
          "duration": 0.13636349999999808,
          "durationTicks": 96,
          "midi": 66,
          "name": "F#4",
          "ticks": 16896,
          "time": 23.999976,
          "velocity": 0.3937007874015748
        },
        {
          "duration": 0.13636349999999808,
          "durationTicks": 96,
          "midi": 66,
          "name": "F#4",
          "ticks": 17088,
          "time": 24.272703,
          "velocity": 0.3937007874015748
        },
        {
          "duration": 0.13636349999999808,
          "durationTicks": 96,
          "midi": 81,
          "name": "A5",
          "ticks": 17088,
          "time": 24.272703,
          "velocity": 0.3937007874015748
        },
        {
          "duration": 0.13636350000000164,
          "durationTicks": 96,
          "midi": 69,
          "name": "A4",
          "ticks": 17280,
          "time": 24.54543,
          "velocity": 0.3937007874015748
        },
        {
          "duration": 0.13636350000000164,
          "durationTicks": 96,
          "midi": 80,
          "name": "G#5",
          "ticks": 17280,
          "time": 24.54543,
          "velocity": 0.3937007874015748
        },
        {
          "duration": 0.13636350000000164,
          "durationTicks": 96,
          "midi": 78,
          "name": "F#5",
          "ticks": 17472,
          "time": 24.818157,
          "velocity": 0.3937007874015748
        },
        {
          "duration": 0.13636350000000164,
          "durationTicks": 96,
          "midi": 69,
          "name": "A4",
          "ticks": 17472,
          "time": 24.818157,
          "velocity": 0.3937007874015748
        },
        {
          "duration": 0.13636350000000164,
          "durationTicks": 96,
          "midi": 80,
          "name": "G#5",
          "ticks": 17664,
          "time": 25.090884,
          "velocity": 0.3937007874015748
        },
        {
          "duration": 0.13636350000000164,
          "durationTicks": 96,
          "midi": 68,
          "name": "G#4",
          "ticks": 17664,
          "time": 25.090884,
          "velocity": 0.3937007874015748
        },
        {
          "duration": 0.13636350000000164,
          "durationTicks": 96,
          "midi": 83,
          "name": "B5",
          "ticks": 17856,
          "time": 25.363611,
          "velocity": 0.3937007874015748
        },
        {
          "duration": 0.13636350000000164,
          "durationTicks": 96,
          "midi": 71,
          "name": "B4",
          "ticks": 17856,
          "time": 25.363611,
          "velocity": 0.3937007874015748
        },
        {
          "duration": 0.13636350000000164,
          "durationTicks": 96,
          "midi": 84,
          "name": "C6",
          "ticks": 18048,
          "time": 25.636338,
          "velocity": 0.3937007874015748
        },
        {
          "duration": 0.13636350000000164,
          "durationTicks": 96,
          "midi": 72,
          "name": "C5",
          "ticks": 18048,
          "time": 25.636338,
          "velocity": 0.3937007874015748
        },
        {
          "duration": 0.13636349999999808,
          "durationTicks": 96,
          "midi": 73,
          "name": "C#5",
          "ticks": 18432,
          "time": 26.181792,
          "velocity": 0.3937007874015748
        },
        {
          "duration": 0.13636349999999808,
          "durationTicks": 96,
          "midi": 80,
          "name": "G#5",
          "ticks": 18624,
          "time": 26.454519,
          "velocity": 0.3937007874015748
        },
        {
          "duration": 0.13636350000000164,
          "durationTicks": 96,
          "midi": 73,
          "name": "C#5",
          "ticks": 18720,
          "time": 26.5908825,
          "velocity": 0.3937007874015748
        },
        {
          "duration": 0.13636349999999808,
          "durationTicks": 96,
          "midi": 80,
          "name": "G#5",
          "ticks": 18816,
          "time": 26.727246,
          "velocity": 0.3937007874015748
        },
        {
          "duration": 0.13636350000000164,
          "durationTicks": 96,
          "midi": 90,
          "name": "F#6",
          "ticks": 18912,
          "time": 26.8636095,
          "velocity": 0.3937007874015748
        },
        {
          "duration": 0.13636349999999808,
          "durationTicks": 96,
          "midi": 88,
          "name": "E6",
          "ticks": 19008,
          "time": 26.999973,
          "velocity": 0.3937007874015748
        },
        {
          "duration": 0.13636349999999808,
          "durationTicks": 96,
          "midi": 73,
          "name": "C#5",
          "ticks": 19008,
          "time": 26.999973,
          "velocity": 0.3937007874015748
        },
        {
          "duration": 0.13636350000000164,
          "durationTicks": 96,
          "midi": 90,
          "name": "F#6",
          "ticks": 19104,
          "time": 27.1363365,
          "velocity": 0.3937007874015748
        },
        {
          "duration": 0.13636349999999808,
          "durationTicks": 96,
          "midi": 88,
          "name": "E6",
          "ticks": 19200,
          "time": 27.2727,
          "velocity": 0.3937007874015748
        },
        {
          "duration": 0.13636349999999808,
          "durationTicks": 96,
          "midi": 76,
          "name": "E5",
          "ticks": 19200,
          "time": 27.2727,
          "velocity": 0.3937007874015748
        },
        {
          "duration": 0.13636349999999808,
          "durationTicks": 96,
          "midi": 80,
          "name": "G#5",
          "ticks": 19392,
          "time": 27.545427,
          "velocity": 0.3937007874015748
        },
        {
          "duration": 0.13636350000000164,
          "durationTicks": 96,
          "midi": 76,
          "name": "E5",
          "ticks": 19488,
          "time": 27.681790499999998,
          "velocity": 0.3937007874015748
        },
        {
          "duration": 0.13636350000000164,
          "durationTicks": 96,
          "midi": 80,
          "name": "G#5",
          "ticks": 19584,
          "time": 27.818154,
          "velocity": 0.3937007874015748
        },
        {
          "duration": 0.13636349999999808,
          "durationTicks": 96,
          "midi": 90,
          "name": "F#6",
          "ticks": 19680,
          "time": 27.9545175,
          "velocity": 0.3937007874015748
        },
        {
          "duration": 0.13636350000000164,
          "durationTicks": 96,
          "midi": 76,
          "name": "E5",
          "ticks": 19776,
          "time": 28.090881,
          "velocity": 0.3937007874015748
        },
        {
          "duration": 0.13636350000000164,
          "durationTicks": 96,
          "midi": 88,
          "name": "E6",
          "ticks": 19776,
          "time": 28.090881,
          "velocity": 0.3937007874015748
        },
        {
          "duration": 0.13636349999999808,
          "durationTicks": 96,
          "midi": 90,
          "name": "F#6",
          "ticks": 19872,
          "time": 28.2272445,
          "velocity": 0.3937007874015748
        },
        {
          "duration": 0.13636350000000164,
          "durationTicks": 96,
          "midi": 88,
          "name": "E6",
          "ticks": 19968,
          "time": 28.363608,
          "velocity": 0.3937007874015748
        },
        {
          "duration": 0.13636350000000164,
          "durationTicks": 96,
          "midi": 69,
          "name": "A4",
          "ticks": 19968,
          "time": 28.363608,
          "velocity": 0.3937007874015748
        },
        {
          "duration": 0.13636350000000164,
          "durationTicks": 96,
          "midi": 80,
          "name": "G#5",
          "ticks": 20160,
          "time": 28.636335,
          "velocity": 0.3937007874015748
        },
        {
          "duration": 0.13636349999999808,
          "durationTicks": 96,
          "midi": 69,
          "name": "A4",
          "ticks": 20256,
          "time": 28.7726985,
          "velocity": 0.3937007874015748
        },
        {
          "duration": 0.13636350000000164,
          "durationTicks": 96,
          "midi": 80,
          "name": "G#5",
          "ticks": 20352,
          "time": 28.909062,
          "velocity": 0.3937007874015748
        },
        {
          "duration": 0.13636349999999808,
          "durationTicks": 96,
          "midi": 90,
          "name": "F#6",
          "ticks": 20448,
          "time": 29.0454255,
          "velocity": 0.3937007874015748
        },
        {
          "duration": 0.13636350000000164,
          "durationTicks": 96,
          "midi": 69,
          "name": "A4",
          "ticks": 20544,
          "time": 29.181789,
          "velocity": 0.3937007874015748
        },
        {
          "duration": 0.13636350000000164,
          "durationTicks": 96,
          "midi": 88,
          "name": "E6",
          "ticks": 20544,
          "time": 29.181789,
          "velocity": 0.3937007874015748
        },
        {
          "duration": 0.13636349999999808,
          "durationTicks": 96,
          "midi": 90,
          "name": "F#6",
          "ticks": 20640,
          "time": 29.3181525,
          "velocity": 0.3937007874015748
        },
        {
          "duration": 0.13636350000000164,
          "durationTicks": 96,
          "midi": 80,
          "name": "G#5",
          "ticks": 20736,
          "time": 29.454515999999998,
          "velocity": 0.3937007874015748
        },
        {
          "duration": 0.13636350000000164,
          "durationTicks": 96,
          "midi": 68,
          "name": "G#4",
          "ticks": 20736,
          "time": 29.454515999999998,
          "velocity": 0.3937007874015748
        },
        {
          "duration": 0.13636350000000164,
          "durationTicks": 96,
          "midi": 81,
          "name": "A5",
          "ticks": 20832,
          "time": 29.5908795,
          "velocity": 0.3937007874015748
        },
        {
          "duration": 0.13636349999999808,
          "durationTicks": 96,
          "midi": 80,
          "name": "G#5",
          "ticks": 20928,
          "time": 29.727243,
          "velocity": 0.3937007874015748
        },
        {
          "duration": 0.13636349999999808,
          "durationTicks": 96,
          "midi": 68,
          "name": "G#4",
          "ticks": 20928,
          "time": 29.727243,
          "velocity": 0.3937007874015748
        },
        {
          "duration": 0.13636350000000164,
          "durationTicks": 96,
          "midi": 88,
          "name": "E6",
          "ticks": 21024,
          "time": 29.8636065,
          "velocity": 0.3937007874015748
        },
        {
          "duration": 0.13636349999999808,
          "durationTicks": 96,
          "midi": 73,
          "name": "C#5",
          "ticks": 21120,
          "time": 29.99997,
          "velocity": 0.3937007874015748
        },
        {
          "duration": 0.13636349999999808,
          "durationTicks": 96,
          "midi": 73,
          "name": "C#5",
          "ticks": 21312,
          "time": 30.272697,
          "velocity": 0.3937007874015748
        },
        {
          "duration": 0.13636349999999808,
          "durationTicks": 96,
          "midi": 66,
          "name": "F#4",
          "ticks": 21504,
          "time": 30.545424,
          "velocity": 0.3937007874015748
        },
        {
          "duration": 0.13636349999999808,
          "durationTicks": 96,
          "midi": 88,
          "name": "E6",
          "ticks": 21696,
          "time": 30.818151,
          "velocity": 0.3937007874015748
        },
        {
          "duration": 0.13636350000000164,
          "durationTicks": 96,
          "midi": 66,
          "name": "F#4",
          "ticks": 21792,
          "time": 30.9545145,
          "velocity": 0.3937007874015748
        },
        {
          "duration": 0.13636349999999808,
          "durationTicks": 96,
          "midi": 88,
          "name": "E6",
          "ticks": 21888,
          "time": 31.090878,
          "velocity": 0.3937007874015748
        },
        {
          "duration": 0.13636350000000164,
          "durationTicks": 96,
          "midi": 88,
          "name": "E6",
          "ticks": 21984,
          "time": 31.227241499999998,
          "velocity": 0.3937007874015748
        },
        {
          "duration": 0.13636350000000164,
          "durationTicks": 96,
          "midi": 66,
          "name": "F#4",
          "ticks": 22080,
          "time": 31.363605,
          "velocity": 0.3937007874015748
        },
        {
          "duration": 0.13636350000000164,
          "durationTicks": 96,
          "midi": 85,
          "name": "C#6",
          "ticks": 22080,
          "time": 31.363605,
          "velocity": 0.3937007874015748
        },
        {
          "duration": 0.13636349999999808,
          "durationTicks": 96,
          "midi": 85,
          "name": "C#6",
          "ticks": 22176,
          "time": 31.4999685,
          "velocity": 0.3937007874015748
        },
        {
          "duration": 0.13636350000000164,
          "durationTicks": 96,
          "midi": 67,
          "name": "G4",
          "ticks": 22272,
          "time": 31.636332,
          "velocity": 0.3937007874015748
        },
        {
          "duration": 0.13636349999999808,
          "durationTicks": 96,
          "midi": 88,
          "name": "E6",
          "ticks": 22368,
          "time": 31.7726955,
          "velocity": 0.3937007874015748
        },
        {
          "duration": 0.13636350000000164,
          "durationTicks": 96,
          "midi": 88,
          "name": "E6",
          "ticks": 22464,
          "time": 31.909059,
          "velocity": 0.3937007874015748
        },
        {
          "duration": 0.13636350000000164,
          "durationTicks": 96,
          "midi": 67,
          "name": "G4",
          "ticks": 22560,
          "time": 32.0454225,
          "velocity": 0.3937007874015748
        },
        {
          "duration": 0.13636350000000164,
          "durationTicks": 96,
          "midi": 88,
          "name": "E6",
          "ticks": 22560,
          "time": 32.0454225,
          "velocity": 0.3937007874015748
        },
        {
          "duration": 0.13636349999999453,
          "durationTicks": 96,
          "midi": 88,
          "name": "E6",
          "ticks": 22656,
          "time": 32.181786,
          "velocity": 0.3937007874015748
        },
        {
          "duration": 0.13636350000000164,
          "durationTicks": 96,
          "midi": 88,
          "name": "E6",
          "ticks": 22752,
          "time": 32.3181495,
          "velocity": 0.3937007874015748
        },
        {
          "duration": 0.13636350000000164,
          "durationTicks": 96,
          "midi": 85,
          "name": "C#6",
          "ticks": 22848,
          "time": 32.454513,
          "velocity": 0.3937007874015748
        },
        {
          "duration": 0.13636350000000164,
          "durationTicks": 96,
          "midi": 67,
          "name": "G4",
          "ticks": 22848,
          "time": 32.454513,
          "velocity": 0.3937007874015748
        },
        {
          "duration": 0.13636350000000164,
          "durationTicks": 96,
          "midi": 85,
          "name": "C#6",
          "ticks": 22944,
          "time": 32.5908765,
          "velocity": 0.3937007874015748
        },
        {
          "duration": 0.13636349999999453,
          "durationTicks": 96,
          "midi": 68,
          "name": "G#4",
          "ticks": 23040,
          "time": 32.72724,
          "velocity": 0.3937007874015748
        },
        {
          "duration": 0.13636350000000164,
          "durationTicks": 96,
          "midi": 88,
          "name": "E6",
          "ticks": 23232,
          "time": 32.999967,
          "velocity": 0.3937007874015748
        },
        {
          "duration": 0.13636350000000164,
          "durationTicks": 96,
          "midi": 68,
          "name": "G#4",
          "ticks": 23328,
          "time": 33.1363305,
          "velocity": 0.3937007874015748
        },
        {
          "duration": 0.13636350000000164,
          "durationTicks": 96,
          "midi": 88,
          "name": "E6",
          "ticks": 23328,
          "time": 33.1363305,
          "velocity": 0.3937007874015748
        },
        {
          "duration": 0.13636350000000164,
          "durationTicks": 96,
          "midi": 88,
          "name": "E6",
          "ticks": 23424,
          "time": 33.272694,
          "velocity": 0.3937007874015748
        },
        {
          "duration": 0.13636349999999453,
          "durationTicks": 96,
          "midi": 85,
          "name": "C#6",
          "ticks": 23520,
          "time": 33.4090575,
          "velocity": 0.3937007874015748
        },
        {
          "duration": 0.13636350000000164,
          "durationTicks": 96,
          "midi": 88,
          "name": "E6",
          "ticks": 23616,
          "time": 33.545421,
          "velocity": 0.3937007874015748
        },
        {
          "duration": 0.13636350000000164,
          "durationTicks": 96,
          "midi": 68,
          "name": "G#4",
          "ticks": 23616,
          "time": 33.545421,
          "velocity": 0.3937007874015748
        },
        {
          "duration": 0.13636350000000164,
          "durationTicks": 96,
          "midi": 90,
          "name": "F#6",
          "ticks": 23712,
          "time": 33.6817845,
          "velocity": 0.3937007874015748
        },
        {
          "duration": 0.13636350000000164,
          "durationTicks": 96,
          "midi": 87,
          "name": "D#6",
          "ticks": 23808,
          "time": 33.818148,
          "velocity": 0.3937007874015748
        },
        {
          "duration": 0.13636350000000164,
          "durationTicks": 96,
          "midi": 72,
          "name": "C5",
          "ticks": 23808,
          "time": 33.818148,
          "velocity": 0.3937007874015748
        },
        {
          "duration": 0.13636350000000164,
          "durationTicks": 96,
          "midi": 72,
          "name": "C5",
          "ticks": 24000,
          "time": 34.090875,
          "velocity": 0.3937007874015748
        },
        {
          "duration": 0.13636350000000164,
          "durationTicks": 96,
          "midi": 85,
          "name": "C#6",
          "ticks": 24000,
          "time": 34.090875,
          "velocity": 0.3937007874015748
        },
        {
          "duration": 0.13636350000000164,
          "durationTicks": 96,
          "midi": 75,
          "name": "D#5",
          "ticks": 24192,
          "time": 34.363602,
          "velocity": 0.3937007874015748
        },
        {
          "duration": 0.13636350000000164,
          "durationTicks": 96,
          "midi": 88,
          "name": "E6",
          "ticks": 24192,
          "time": 34.363602,
          "velocity": 0.3937007874015748
        },
        {
          "duration": 0.13636349999999453,
          "durationTicks": 96,
          "midi": 87,
          "name": "D#6",
          "ticks": 24288,
          "time": 34.4999655,
          "velocity": 0.3937007874015748
        },
        {
          "duration": 0.13636350000000164,
          "durationTicks": 96,
          "midi": 68,
          "name": "G#4",
          "ticks": 24384,
          "time": 34.636328999999996,
          "velocity": 0.3937007874015748
        },
        {
          "duration": 0.13636350000000164,
          "durationTicks": 96,
          "midi": 73,
          "name": "C#5",
          "ticks": 24576,
          "time": 34.909056,
          "velocity": 0.3937007874015748
        },
        {
          "duration": 0.13636349999999453,
          "durationTicks": 96,
          "midi": 80,
          "name": "G#5",
          "ticks": 24768,
          "time": 35.181783,
          "velocity": 0.3937007874015748
        },
        {
          "duration": 0.13636350000000164,
          "durationTicks": 96,
          "midi": 73,
          "name": "C#5",
          "ticks": 24864,
          "time": 35.3181465,
          "velocity": 0.3937007874015748
        },
        {
          "duration": 0.13636350000000164,
          "durationTicks": 96,
          "midi": 80,
          "name": "G#5",
          "ticks": 24960,
          "time": 35.45451,
          "velocity": 0.3937007874015748
        },
        {
          "duration": 0.13636350000000164,
          "durationTicks": 96,
          "midi": 90,
          "name": "F#6",
          "ticks": 25056,
          "time": 35.5908735,
          "velocity": 0.3937007874015748
        },
        {
          "duration": 0.13636349999999453,
          "durationTicks": 96,
          "midi": 73,
          "name": "C#5",
          "ticks": 25152,
          "time": 35.727237,
          "velocity": 0.3937007874015748
        },
        {
          "duration": 0.13636349999999453,
          "durationTicks": 96,
          "midi": 88,
          "name": "E6",
          "ticks": 25152,
          "time": 35.727237,
          "velocity": 0.3937007874015748
        },
        {
          "duration": 0.13636350000000164,
          "durationTicks": 96,
          "midi": 90,
          "name": "F#6",
          "ticks": 25248,
          "time": 35.8636005,
          "velocity": 0.3937007874015748
        },
        {
          "duration": 0.13636350000000164,
          "durationTicks": 96,
          "midi": 76,
          "name": "E5",
          "ticks": 25344,
          "time": 35.999964,
          "velocity": 0.3937007874015748
        },
        {
          "duration": 0.13636350000000164,
          "durationTicks": 96,
          "midi": 88,
          "name": "E6",
          "ticks": 25344,
          "time": 35.999964,
          "velocity": 0.3937007874015748
        },
        {
          "duration": 0.13636349999999453,
          "durationTicks": 96,
          "midi": 80,
          "name": "G#5",
          "ticks": 25536,
          "time": 36.272691,
          "velocity": 0.3937007874015748
        },
        {
          "duration": 0.13636350000000164,
          "durationTicks": 96,
          "midi": 76,
          "name": "E5",
          "ticks": 25632,
          "time": 36.409054499999996,
          "velocity": 0.3937007874015748
        },
        {
          "duration": 0.13636350000000164,
          "durationTicks": 96,
          "midi": 80,
          "name": "G#5",
          "ticks": 25632,
          "time": 36.409054499999996,
          "velocity": 0.3937007874015748
        },
        {
          "duration": 0.13636350000000164,
          "durationTicks": 96,
          "midi": 80,
          "name": "G#5",
          "ticks": 25728,
          "time": 36.545418,
          "velocity": 0.3937007874015748
        },
        {
          "duration": 0.13636350000000164,
          "durationTicks": 96,
          "midi": 90,
          "name": "F#6",
          "ticks": 25824,
          "time": 36.6817815,
          "velocity": 0.3937007874015748
        },
        {
          "duration": 0.13636350000000164,
          "durationTicks": 96,
          "midi": 88,
          "name": "E6",
          "ticks": 25920,
          "time": 36.818145,
          "velocity": 0.3937007874015748
        },
        {
          "duration": 0.13636350000000164,
          "durationTicks": 96,
          "midi": 76,
          "name": "E5",
          "ticks": 25920,
          "time": 36.818145,
          "velocity": 0.3937007874015748
        },
        {
          "duration": 0.13636349999999453,
          "durationTicks": 96,
          "midi": 90,
          "name": "F#6",
          "ticks": 26016,
          "time": 36.9545085,
          "velocity": 0.3937007874015748
        },
        {
          "duration": 0.13636350000000164,
          "durationTicks": 96,
          "midi": 69,
          "name": "A4",
          "ticks": 26112,
          "time": 37.090872,
          "velocity": 0.3937007874015748
        },
        {
          "duration": 0.13636350000000164,
          "durationTicks": 96,
          "midi": 88,
          "name": "E6",
          "ticks": 26112,
          "time": 37.090872,
          "velocity": 0.3937007874015748
        },
        {
          "duration": 0.13636350000000164,
          "durationTicks": 96,
          "midi": 80,
          "name": "G#5",
          "ticks": 26304,
          "time": 37.363599,
          "velocity": 0.3937007874015748
        },
        {
          "duration": 0.13636349999999453,
          "durationTicks": 96,
          "midi": 69,
          "name": "A4",
          "ticks": 26400,
          "time": 37.4999625,
          "velocity": 0.3937007874015748
        },
        {
          "duration": 0.13636350000000164,
          "durationTicks": 96,
          "midi": 80,
          "name": "G#5",
          "ticks": 26496,
          "time": 37.636326,
          "velocity": 0.3937007874015748
        },
        {
          "duration": 0.13636350000000164,
          "durationTicks": 96,
          "midi": 90,
          "name": "F#6",
          "ticks": 26592,
          "time": 37.7726895,
          "velocity": 0.3937007874015748
        },
        {
          "duration": 0.13636350000000164,
          "durationTicks": 96,
          "midi": 69,
          "name": "A4",
          "ticks": 26688,
          "time": 37.909053,
          "velocity": 0.3937007874015748
        },
        {
          "duration": 0.13636350000000164,
          "durationTicks": 96,
          "midi": 88,
          "name": "E6",
          "ticks": 26688,
          "time": 37.909053,
          "velocity": 0.3937007874015748
        },
        {
          "duration": 0.13636349999999453,
          "durationTicks": 96,
          "midi": 90,
          "name": "F#6",
          "ticks": 26784,
          "time": 38.0454165,
          "velocity": 0.3937007874015748
        },
        {
          "duration": 0.13636350000000164,
          "durationTicks": 96,
          "midi": 68,
          "name": "G#4",
          "ticks": 26880,
          "time": 38.181779999999996,
          "velocity": 0.3937007874015748
        },
        {
          "duration": 0.13636350000000164,
          "durationTicks": 96,
          "midi": 80,
          "name": "G#5",
          "ticks": 26880,
          "time": 38.181779999999996,
          "velocity": 0.3937007874015748
        },
        {
          "duration": 0.13636350000000164,
          "durationTicks": 96,
          "midi": 81,
          "name": "A5",
          "ticks": 26976,
          "time": 38.3181435,
          "velocity": 0.3937007874015748
        },
        {
          "duration": 0.13636350000000164,
          "durationTicks": 96,
          "midi": 80,
          "name": "G#5",
          "ticks": 27072,
          "time": 38.454507,
          "velocity": 0.3937007874015748
        },
        {
          "duration": 0.13636350000000164,
          "durationTicks": 96,
          "midi": 68,
          "name": "G#4",
          "ticks": 27072,
          "time": 38.454507,
          "velocity": 0.3937007874015748
        },
        {
          "duration": 0.13636350000000164,
          "durationTicks": 96,
          "midi": 88,
          "name": "E6",
          "ticks": 27168,
          "time": 38.5908705,
          "velocity": 0.3937007874015748
        },
        {
          "duration": 0.13636349999999453,
          "durationTicks": 96,
          "midi": 76,
          "name": "E5",
          "ticks": 27264,
          "time": 38.727234,
          "velocity": 0.3937007874015748
        },
        {
          "duration": 0.13636350000000164,
          "durationTicks": 96,
          "midi": 76,
          "name": "E5",
          "ticks": 27456,
          "time": 38.999961,
          "velocity": 0.3937007874015748
        },
        {
          "duration": 0.13636349999999453,
          "durationTicks": 96,
          "midi": 66,
          "name": "F#4",
          "ticks": 27648,
          "time": 39.272688,
          "velocity": 0.3937007874015748
        },
        {
          "duration": 0.13636350000000164,
          "durationTicks": 96,
          "midi": 88,
          "name": "E6",
          "ticks": 27840,
          "time": 39.545415,
          "velocity": 0.3937007874015748
        },
        {
          "duration": 0.13636350000000164,
          "durationTicks": 96,
          "midi": 66,
          "name": "F#4",
          "ticks": 27936,
          "time": 39.6817785,
          "velocity": 0.3937007874015748
        },
        {
          "duration": 0.13636349999999453,
          "durationTicks": 96,
          "midi": 88,
          "name": "E6",
          "ticks": 28032,
          "time": 39.818142,
          "velocity": 0.3937007874015748
        },
        {
          "duration": 0.13636350000000164,
          "durationTicks": 96,
          "midi": 88,
          "name": "E6",
          "ticks": 28128,
          "time": 39.954505499999996,
          "velocity": 0.3937007874015748
        },
        {
          "duration": 0.13636350000000164,
          "durationTicks": 96,
          "midi": 66,
          "name": "F#4",
          "ticks": 28224,
          "time": 40.090869,
          "velocity": 0.3937007874015748
        },
        {
          "duration": 0.13636350000000164,
          "durationTicks": 96,
          "midi": 85,
          "name": "C#6",
          "ticks": 28224,
          "time": 40.090869,
          "velocity": 0.3937007874015748
        },
        {
          "duration": 0.13636350000000164,
          "durationTicks": 96,
          "midi": 85,
          "name": "C#6",
          "ticks": 28320,
          "time": 40.2272325,
          "velocity": 0.3937007874015748
        },
        {
          "duration": 0.13636350000000164,
          "durationTicks": 96,
          "midi": 67,
          "name": "G4",
          "ticks": 28416,
          "time": 40.363596,
          "velocity": 0.3937007874015748
        },
        {
          "duration": 0.13636349999999453,
          "durationTicks": 96,
          "midi": 88,
          "name": "E6",
          "ticks": 28512,
          "time": 40.4999595,
          "velocity": 0.3937007874015748
        },
        {
          "duration": 0.13636350000000164,
          "durationTicks": 96,
          "midi": 88,
          "name": "E6",
          "ticks": 28608,
          "time": 40.636323,
          "velocity": 0.3937007874015748
        },
        {
          "duration": 0.13636350000000164,
          "durationTicks": 96,
          "midi": 88,
          "name": "E6",
          "ticks": 28704,
          "time": 40.7726865,
          "velocity": 0.3937007874015748
        },
        {
          "duration": 0.13636350000000164,
          "durationTicks": 96,
          "midi": 67,
          "name": "G4",
          "ticks": 28704,
          "time": 40.7726865,
          "velocity": 0.3937007874015748
        },
        {
          "duration": 0.13636350000000164,
          "durationTicks": 96,
          "midi": 88,
          "name": "E6",
          "ticks": 28800,
          "time": 40.90905,
          "velocity": 0.3937007874015748
        },
        {
          "duration": 0.13636349999999453,
          "durationTicks": 96,
          "midi": 88,
          "name": "E6",
          "ticks": 28896,
          "time": 41.0454135,
          "velocity": 0.3937007874015748
        },
        {
          "duration": 0.13636350000000164,
          "durationTicks": 96,
          "midi": 67,
          "name": "G4",
          "ticks": 28992,
          "time": 41.181777,
          "velocity": 0.3937007874015748
        },
        {
          "duration": 0.13636350000000164,
          "durationTicks": 96,
          "midi": 85,
          "name": "C#6",
          "ticks": 28992,
          "time": 41.181777,
          "velocity": 0.3937007874015748
        },
        {
          "duration": 0.13636350000000164,
          "durationTicks": 96,
          "midi": 85,
          "name": "C#6",
          "ticks": 29088,
          "time": 41.3181405,
          "velocity": 0.3937007874015748
        },
        {
          "duration": 0.13636350000000164,
          "durationTicks": 96,
          "midi": 68,
          "name": "G#4",
          "ticks": 29184,
          "time": 41.454504,
          "velocity": 0.3937007874015748
        },
        {
          "duration": 0.13636350000000164,
          "durationTicks": 96,
          "midi": 88,
          "name": "E6",
          "ticks": 29376,
          "time": 41.727230999999996,
          "velocity": 0.3937007874015748
        },
        {
          "duration": 0.13636350000000164,
          "durationTicks": 96,
          "midi": 88,
          "name": "E6",
          "ticks": 29472,
          "time": 41.8635945,
          "velocity": 0.3937007874015748
        },
        {
          "duration": 0.13636350000000164,
          "durationTicks": 96,
          "midi": 68,
          "name": "G#4",
          "ticks": 29472,
          "time": 41.8635945,
          "velocity": 0.3937007874015748
        },
        {
          "duration": 0.13636350000000164,
          "durationTicks": 96,
          "midi": 88,
          "name": "E6",
          "ticks": 29568,
          "time": 41.999958,
          "velocity": 0.3937007874015748
        },
        {
          "duration": 0.13636350000000164,
          "durationTicks": 96,
          "midi": 85,
          "name": "C#6",
          "ticks": 29664,
          "time": 42.1363215,
          "velocity": 0.3937007874015748
        },
        {
          "duration": 0.13636349999999453,
          "durationTicks": 96,
          "midi": 68,
          "name": "G#4",
          "ticks": 29760,
          "time": 42.272685,
          "velocity": 0.3937007874015748
        },
        {
          "duration": 0.13636349999999453,
          "durationTicks": 96,
          "midi": 88,
          "name": "E6",
          "ticks": 29760,
          "time": 42.272685,
          "velocity": 0.3937007874015748
        },
        {
          "duration": 0.13636350000000164,
          "durationTicks": 96,
          "midi": 90,
          "name": "F#6",
          "ticks": 29856,
          "time": 42.4090485,
          "velocity": 0.3937007874015748
        },
        {
          "duration": 0.13636350000000164,
          "durationTicks": 96,
          "midi": 87,
          "name": "D#6",
          "ticks": 29952,
          "time": 42.545412,
          "velocity": 0.3937007874015748
        },
        {
          "duration": 0.13636350000000164,
          "durationTicks": 96,
          "midi": 68,
          "name": "G#4",
          "ticks": 29952,
          "time": 42.545412,
          "velocity": 0.3937007874015748
        },
        {
          "duration": 0.13636349999999453,
          "durationTicks": 96,
          "midi": 80,
          "name": "G#5",
          "ticks": 30144,
          "time": 42.818139,
          "velocity": 0.3937007874015748
        },
        {
          "duration": 0.13636350000000164,
          "durationTicks": 96,
          "midi": 80,
          "name": "G#5",
          "ticks": 30336,
          "time": 43.090866,
          "velocity": 0.3937007874015748
        },
        {
          "duration": 0.13636349999999453,
          "durationTicks": 96,
          "midi": 81,
          "name": "A5",
          "ticks": 30528,
          "time": 43.363593,
          "velocity": 0.3937007874015748
        },
        {
          "duration": 0.13636350000000164,
          "durationTicks": 96,
          "midi": 90,
          "name": "F#6",
          "ticks": 30720,
          "time": 43.63632,
          "velocity": 0.3937007874015748
        },
        {
          "duration": 0.13636350000000164,
          "durationTicks": 96,
          "midi": 78,
          "name": "F#5",
          "ticks": 30720,
          "time": 43.63632,
          "velocity": 0.3937007874015748
        },
        {
          "duration": 0.13636350000000164,
          "durationTicks": 96,
          "midi": 73,
          "name": "C#5",
          "ticks": 30720,
          "time": 43.63632,
          "velocity": 0.3937007874015748
        },
        {
          "duration": 0.13636350000000164,
          "durationTicks": 96,
          "midi": 73,
          "name": "C#5",
          "ticks": 30912,
          "time": 43.909047,
          "velocity": 0.3937007874015748
        },
        {
          "duration": 0.13636350000000164,
          "durationTicks": 96,
          "midi": 76,
          "name": "E5",
          "ticks": 30912,
          "time": 43.909047,
          "velocity": 0.3937007874015748
        },
        {
          "duration": 0.13636350000000164,
          "durationTicks": 96,
          "midi": 88,
          "name": "E6",
          "ticks": 31104,
          "time": 44.181774,
          "velocity": 0.3937007874015748
        },
        {
          "duration": 0.13636350000000164,
          "durationTicks": 96,
          "midi": 76,
          "name": "E5",
          "ticks": 31104,
          "time": 44.181774,
          "velocity": 0.3937007874015748
        },
        {
          "duration": 0.13636350000000164,
          "durationTicks": 96,
          "midi": 73,
          "name": "C#5",
          "ticks": 31104,
          "time": 44.181774,
          "velocity": 0.3937007874015748
        },
        {
          "duration": 0.13636350000000164,
          "durationTicks": 96,
          "midi": 73,
          "name": "C#5",
          "ticks": 31296,
          "time": 44.454501,
          "velocity": 0.3937007874015748
        },
        {
          "duration": 0.13636350000000164,
          "durationTicks": 96,
          "midi": 76,
          "name": "E5",
          "ticks": 31296,
          "time": 44.454501,
          "velocity": 0.3937007874015748
        },
        {
          "duration": 0.13636350000000164,
          "durationTicks": 96,
          "midi": 76,
          "name": "E5",
          "ticks": 31488,
          "time": 44.727228,
          "velocity": 0.3937007874015748
        },
        {
          "duration": 0.13636350000000164,
          "durationTicks": 96,
          "midi": 68,
          "name": "G#4",
          "ticks": 31680,
          "time": 44.999955,
          "velocity": 0.3937007874015748
        },
        {
          "duration": 0.13636350000000164,
          "durationTicks": 96,
          "midi": 76,
          "name": "E5",
          "ticks": 31680,
          "time": 44.999955,
          "velocity": 0.3937007874015748
        },
        {
          "duration": 0.13636350000000164,
          "durationTicks": 96,
          "midi": 76,
          "name": "E5",
          "ticks": 31872,
          "time": 45.272681999999996,
          "velocity": 0.3937007874015748
        },
        {
          "duration": 0.13636350000000164,
          "durationTicks": 96,
          "midi": 68,
          "name": "G#4",
          "ticks": 32064,
          "time": 45.545409,
          "velocity": 0.3937007874015748
        },
        {
          "duration": 0.13636350000000164,
          "durationTicks": 96,
          "midi": 76,
          "name": "E5",
          "ticks": 32064,
          "time": 45.545409,
          "velocity": 0.3937007874015748
        },
        {
          "duration": 0.13636350000000164,
          "durationTicks": 96,
          "midi": 88,
          "name": "E6",
          "ticks": 32160,
          "time": 45.6817725,
          "velocity": 0.3937007874015748
        },
        {
          "duration": 0.13636349999999453,
          "durationTicks": 96,
          "midi": 88,
          "name": "E6",
          "ticks": 32256,
          "time": 45.818136,
          "velocity": 0.3937007874015748
        },
        {
          "duration": 0.13636349999999453,
          "durationTicks": 96,
          "midi": 69,
          "name": "A4",
          "ticks": 32256,
          "time": 45.818136,
          "velocity": 0.3937007874015748
        },
        {
          "duration": 0.13636350000000164,
          "durationTicks": 96,
          "midi": 69,
          "name": "A4",
          "ticks": 32448,
          "time": 46.090863,
          "velocity": 0.3937007874015748
        },
        {
          "duration": 0.13636350000000164,
          "durationTicks": 96,
          "midi": 73,
          "name": "C#5",
          "ticks": 32448,
          "time": 46.090863,
          "velocity": 0.3937007874015748
        },
        {
          "duration": 0.13636350000000164,
          "durationTicks": 96,
          "midi": 88,
          "name": "E6",
          "ticks": 32448,
          "time": 46.090863,
          "velocity": 0.3937007874015748
        },
        {
          "duration": 0.13636350000000164,
          "durationTicks": 96,
          "midi": 88,
          "name": "E6",
          "ticks": 32544,
          "time": 46.2272265,
          "velocity": 0.3937007874015748
        },
        {
          "duration": 0.13636349999999453,
          "durationTicks": 96,
          "midi": 88,
          "name": "E6",
          "ticks": 32640,
          "time": 46.36359,
          "velocity": 0.3937007874015748
        },
        {
          "duration": 0.13636350000000164,
          "durationTicks": 96,
          "midi": 90,
          "name": "F#6",
          "ticks": 32736,
          "time": 46.4999535,
          "velocity": 0.3937007874015748
        },
        {
          "duration": 0.13636350000000164,
          "durationTicks": 96,
          "midi": 73,
          "name": "C#5",
          "ticks": 32832,
          "time": 46.636317,
          "velocity": 0.3937007874015748
        },
        {
          "duration": 0.13636350000000164,
          "durationTicks": 96,
          "midi": 69,
          "name": "A4",
          "ticks": 32832,
          "time": 46.636317,
          "velocity": 0.3937007874015748
        },
        {
          "duration": 0.13636350000000164,
          "durationTicks": 96,
          "midi": 80,
          "name": "G#5",
          "ticks": 32928,
          "time": 46.7726805,
          "velocity": 0.3937007874015748
        },
        {
          "duration": 0.13636349999999453,
          "durationTicks": 96,
          "midi": 68,
          "name": "G#4",
          "ticks": 33024,
          "time": 46.909044,
          "velocity": 0.3937007874015748
        },
        {
          "duration": 0.13636350000000164,
          "durationTicks": 96,
          "midi": 68,
          "name": "G#4",
          "ticks": 33216,
          "time": 47.181771,
          "velocity": 0.3937007874015748
        },
        {
          "duration": 0.13636350000000164,
          "durationTicks": 96,
          "midi": 75,
          "name": "D#5",
          "ticks": 33216,
          "time": 47.181771,
          "velocity": 0.3937007874015748
        },
        {
          "duration": 0.13636350000000164,
          "durationTicks": 96,
          "midi": 80,
          "name": "G#5",
          "ticks": 33216,
          "time": 47.181771,
          "velocity": 0.3937007874015748
        },
        {
          "duration": 0.13636350000000164,
          "durationTicks": 96,
          "midi": 80,
          "name": "G#5",
          "ticks": 33408,
          "time": 47.454498,
          "velocity": 0.3937007874015748
        },
        {
          "duration": 0.13636350000000164,
          "durationTicks": 96,
          "midi": 76,
          "name": "E5",
          "ticks": 33408,
          "time": 47.454498,
          "velocity": 0.3937007874015748
        },
        {
          "duration": 0.13636350000000164,
          "durationTicks": 96,
          "midi": 81,
          "name": "A5",
          "ticks": 33600,
          "time": 47.727225,
          "velocity": 0.3937007874015748
        },
        {
          "duration": 0.13636350000000164,
          "durationTicks": 96,
          "midi": 76,
          "name": "E5",
          "ticks": 33600,
          "time": 47.727225,
          "velocity": 0.3937007874015748
        },
        {
          "duration": 0.13636350000000164,
          "durationTicks": 96,
          "midi": 68,
          "name": "G#4",
          "ticks": 33600,
          "time": 47.727225,
          "velocity": 0.3937007874015748
        },
        {
          "duration": 0.13636350000000164,
          "durationTicks": 96,
          "midi": 78,
          "name": "F#5",
          "ticks": 33792,
          "time": 47.999952,
          "velocity": 0.3937007874015748
        },
        {
          "duration": 0.13636350000000164,
          "durationTicks": 96,
          "midi": 90,
          "name": "F#6",
          "ticks": 33792,
          "time": 47.999952,
          "velocity": 0.3937007874015748
        },
        {
          "duration": 0.13636350000000164,
          "durationTicks": 96,
          "midi": 69,
          "name": "A4",
          "ticks": 33792,
          "time": 47.999952,
          "velocity": 0.3937007874015748
        },
        {
          "duration": 0.13636350000000164,
          "durationTicks": 96,
          "midi": 69,
          "name": "A4",
          "ticks": 33984,
          "time": 48.272679,
          "velocity": 0.3937007874015748
        },
        {
          "duration": 0.13636350000000164,
          "durationTicks": 96,
          "midi": 66,
          "name": "F#4",
          "ticks": 33984,
          "time": 48.272679,
          "velocity": 0.3937007874015748
        },
        {
          "duration": 0.13636350000000164,
          "durationTicks": 96,
          "midi": 69,
          "name": "A4",
          "ticks": 34176,
          "time": 48.545406,
          "velocity": 0.3937007874015748
        },
        {
          "duration": 0.13636350000000164,
          "durationTicks": 96,
          "midi": 76,
          "name": "E5",
          "ticks": 34176,
          "time": 48.545406,
          "velocity": 0.3937007874015748
        },
        {
          "duration": 0.13636350000000164,
          "durationTicks": 96,
          "midi": 88,
          "name": "E6",
          "ticks": 34176,
          "time": 48.545406,
          "velocity": 0.3937007874015748
        },
        {
          "duration": 0.13636350000000164,
          "durationTicks": 96,
          "midi": 69,
          "name": "A4",
          "ticks": 34368,
          "time": 48.818132999999996,
          "velocity": 0.3937007874015748
        },
        {
          "duration": 0.13636350000000164,
          "durationTicks": 96,
          "midi": 66,
          "name": "F#4",
          "ticks": 34368,
          "time": 48.818132999999996,
          "velocity": 0.3937007874015748
        },
        {
          "duration": 0.13636350000000164,
          "durationTicks": 96,
          "midi": 67,
          "name": "G4",
          "ticks": 34560,
          "time": 49.09086,
          "velocity": 0.3937007874015748
        },
        {
          "duration": 0.13636349999999453,
          "durationTicks": 96,
          "midi": 74,
          "name": "D5",
          "ticks": 34752,
          "time": 49.363587,
          "velocity": 0.3937007874015748
        },
        {
          "duration": 0.13636349999999453,
          "durationTicks": 96,
          "midi": 67,
          "name": "G4",
          "ticks": 34752,
          "time": 49.363587,
          "velocity": 0.3937007874015748
        },
        {
          "duration": 0.13636350000000164,
          "durationTicks": 96,
          "midi": 67,
          "name": "G4",
          "ticks": 34944,
          "time": 49.636314,
          "velocity": 0.3937007874015748
        },
        {
          "duration": 0.13636349999999453,
          "durationTicks": 96,
          "midi": 74,
          "name": "D5",
          "ticks": 35136,
          "time": 49.909041,
          "velocity": 0.3937007874015748
        },
        {
          "duration": 0.13636349999999453,
          "durationTicks": 96,
          "midi": 67,
          "name": "G4",
          "ticks": 35136,
          "time": 49.909041,
          "velocity": 0.3937007874015748
        },
        {
          "duration": 0.13636350000000164,
          "durationTicks": 96,
          "midi": 88,
          "name": "E6",
          "ticks": 35328,
          "time": 50.181768,
          "velocity": 0.3937007874015748
        },
        {
          "duration": 0.13636350000000164,
          "durationTicks": 96,
          "midi": 68,
          "name": "G#4",
          "ticks": 35328,
          "time": 50.181768,
          "velocity": 0.3937007874015748
        },
        {
          "duration": 0.13636349999999453,
          "durationTicks": 96,
          "midi": 75,
          "name": "D#5",
          "ticks": 35520,
          "time": 50.454495,
          "velocity": 0.3937007874015748
        },
        {
          "duration": 0.13636349999999453,
          "durationTicks": 96,
          "midi": 88,
          "name": "E6",
          "ticks": 35520,
          "time": 50.454495,
          "velocity": 0.3937007874015748
        },
        {
          "duration": 0.13636349999999453,
          "durationTicks": 96,
          "midi": 68,
          "name": "G#4",
          "ticks": 35520,
          "time": 50.454495,
          "velocity": 0.3937007874015748
        },
        {
          "duration": 0.13636350000000164,
          "durationTicks": 96,
          "midi": 88,
          "name": "E6",
          "ticks": 35616,
          "time": 50.590858499999996,
          "velocity": 0.3937007874015748
        },
        {
          "duration": 0.13636350000000164,
          "durationTicks": 96,
          "midi": 88,
          "name": "E6",
          "ticks": 35712,
          "time": 50.727222,
          "velocity": 0.3937007874015748
        },
        {
          "duration": 0.13636350000000164,
          "durationTicks": 96,
          "midi": 90,
          "name": "F#6",
          "ticks": 35808,
          "time": 50.8635855,
          "velocity": 0.3937007874015748
        },
        {
          "duration": 0.13636350000000164,
          "durationTicks": 96,
          "midi": 68,
          "name": "G#4",
          "ticks": 35904,
          "time": 50.999949,
          "velocity": 0.3937007874015748
        },
        {
          "duration": 0.13636350000000164,
          "durationTicks": 96,
          "midi": 75,
          "name": "D#5",
          "ticks": 35904,
          "time": 50.999949,
          "velocity": 0.3937007874015748
        },
        {
          "duration": 0.13636349999999453,
          "durationTicks": 96,
          "midi": 87,
          "name": "D#6",
          "ticks": 36000,
          "time": 51.1363125,
          "velocity": 0.3937007874015748
        },
        {
          "duration": 0.13636350000000164,
          "durationTicks": 96,
          "midi": 72,
          "name": "C5",
          "ticks": 36096,
          "time": 51.272676,
          "velocity": 0.3937007874015748
        },
        {
          "duration": 0.13636350000000164,
          "durationTicks": 96,
          "midi": 80,
          "name": "G#5",
          "ticks": 36192,
          "time": 51.4090395,
          "velocity": 0.3937007874015748
        },
        {
          "duration": 0.13636350000000164,
          "durationTicks": 96,
          "midi": 72,
          "name": "C5",
          "ticks": 36288,
          "time": 51.545403,
          "velocity": 0.3937007874015748
        },
        {
          "duration": 0.13636349999999453,
          "durationTicks": 96,
          "midi": 80,
          "name": "G#5",
          "ticks": 36384,
          "time": 51.6817665,
          "velocity": 0.3937007874015748
        },
        {
          "duration": 0.13636350000000164,
          "durationTicks": 96,
          "midi": 68,
          "name": "G#4",
          "ticks": 36480,
          "time": 51.81813,
          "velocity": 0.3937007874015748
        },
        {
          "duration": 0.13636350000000164,
          "durationTicks": 96,
          "midi": 80,
          "name": "G#5",
          "ticks": 36576,
          "time": 51.9544935,
          "velocity": 0.3937007874015748
        },
        {
          "duration": 0.13636350000000164,
          "durationTicks": 96,
          "midi": 81,
          "name": "A5",
          "ticks": 36672,
          "time": 52.090857,
          "velocity": 0.3937007874015748
        },
        {
          "duration": 0.13636350000000164,
          "durationTicks": 96,
          "midi": 68,
          "name": "G#4",
          "ticks": 36672,
          "time": 52.090857,
          "velocity": 0.3937007874015748
        },
        {
          "duration": 0.13636349999999453,
          "durationTicks": 96,
          "midi": 73,
          "name": "C#5",
          "ticks": 36864,
          "time": 52.363584,
          "velocity": 0.3937007874015748
        },
        {
          "duration": 0.13636349999999453,
          "durationTicks": 96,
          "midi": 78,
          "name": "F#5",
          "ticks": 36864,
          "time": 52.363584,
          "velocity": 0.3937007874015748
        },
        {
          "duration": 0.13636349999999453,
          "durationTicks": 96,
          "midi": 90,
          "name": "F#6",
          "ticks": 36864,
          "time": 52.363584,
          "velocity": 0.3937007874015748
        },
        {
          "duration": 0.13636350000000164,
          "durationTicks": 96,
          "midi": 73,
          "name": "C#5",
          "ticks": 37056,
          "time": 52.636311,
          "velocity": 0.3937007874015748
        },
        {
          "duration": 0.13636350000000164,
          "durationTicks": 96,
          "midi": 76,
          "name": "E5",
          "ticks": 37056,
          "time": 52.636311,
          "velocity": 0.3937007874015748
        },
        {
          "duration": 0.13636349999999453,
          "durationTicks": 96,
          "midi": 73,
          "name": "C#5",
          "ticks": 37248,
          "time": 52.909038,
          "velocity": 0.3937007874015748
        },
        {
          "duration": 0.13636349999999453,
          "durationTicks": 96,
          "midi": 88,
          "name": "E6",
          "ticks": 37248,
          "time": 52.909038,
          "velocity": 0.3937007874015748
        },
        {
          "duration": 0.13636349999999453,
          "durationTicks": 96,
          "midi": 76,
          "name": "E5",
          "ticks": 37248,
          "time": 52.909038,
          "velocity": 0.3937007874015748
        },
        {
          "duration": 0.13636350000000164,
          "durationTicks": 96,
          "midi": 76,
          "name": "E5",
          "ticks": 37440,
          "time": 53.181765,
          "velocity": 0.3937007874015748
        },
        {
          "duration": 0.13636350000000164,
          "durationTicks": 96,
          "midi": 73,
          "name": "C#5",
          "ticks": 37440,
          "time": 53.181765,
          "velocity": 0.3937007874015748
        },
        {
          "duration": 0.13636349999999453,
          "durationTicks": 96,
          "midi": 75,
          "name": "D#5",
          "ticks": 37632,
          "time": 53.454492,
          "velocity": 0.3937007874015748
        },
        {
          "duration": 0.13636350000000164,
          "durationTicks": 96,
          "midi": 75,
          "name": "D#5",
          "ticks": 37824,
          "time": 53.727219,
          "velocity": 0.3937007874015748
        },
        {
          "duration": 0.13636350000000164,
          "durationTicks": 96,
          "midi": 66,
          "name": "F#4",
          "ticks": 37824,
          "time": 53.727219,
          "velocity": 0.3937007874015748
        },
        {
          "duration": 0.13636350000000164,
          "durationTicks": 96,
          "midi": 75,
          "name": "D#5",
          "ticks": 38016,
          "time": 53.999946,
          "velocity": 0.3937007874015748
        },
        {
          "duration": 0.13636350000000164,
          "durationTicks": 96,
          "midi": 75,
          "name": "D#5",
          "ticks": 38208,
          "time": 54.272673,
          "velocity": 0.3937007874015748
        },
        {
          "duration": 0.13636350000000164,
          "durationTicks": 96,
          "midi": 66,
          "name": "F#4",
          "ticks": 38208,
          "time": 54.272673,
          "velocity": 0.3937007874015748
        },
        {
          "duration": 0.13636350000000164,
          "durationTicks": 96,
          "midi": 88,
          "name": "E6",
          "ticks": 38304,
          "time": 54.4090365,
          "velocity": 0.3937007874015748
        },
        {
          "duration": 0.13636350000000164,
          "durationTicks": 96,
          "midi": 88,
          "name": "E6",
          "ticks": 38400,
          "time": 54.5454,
          "velocity": 0.3937007874015748
        },
        {
          "duration": 0.13636350000000164,
          "durationTicks": 96,
          "midi": 76,
          "name": "E5",
          "ticks": 38400,
          "time": 54.5454,
          "velocity": 0.3937007874015748
        },
        {
          "duration": 0.13636350000000164,
          "durationTicks": 96,
          "midi": 76,
          "name": "E5",
          "ticks": 38592,
          "time": 54.818127,
          "velocity": 0.3937007874015748
        },
        {
          "duration": 0.13636350000000164,
          "durationTicks": 96,
          "midi": 68,
          "name": "G#4",
          "ticks": 38592,
          "time": 54.818127,
          "velocity": 0.3937007874015748
        },
        {
          "duration": 0.13636350000000164,
          "durationTicks": 96,
          "midi": 88,
          "name": "E6",
          "ticks": 38592,
          "time": 54.818127,
          "velocity": 0.3937007874015748
        },
        {
          "duration": 0.13636350000000164,
          "durationTicks": 96,
          "midi": 88,
          "name": "E6",
          "ticks": 38688,
          "time": 54.9544905,
          "velocity": 0.3937007874015748
        },
        {
          "duration": 0.13636350000000164,
          "durationTicks": 96,
          "midi": 76,
          "name": "E5",
          "ticks": 38784,
          "time": 55.090854,
          "velocity": 0.3937007874015748
        },
        {
          "duration": 0.13636350000000164,
          "durationTicks": 96,
          "midi": 88,
          "name": "E6",
          "ticks": 38784,
          "time": 55.090854,
          "velocity": 0.3937007874015748
        },
        {
          "duration": 0.13636349999999453,
          "durationTicks": 96,
          "midi": 90,
          "name": "F#6",
          "ticks": 38880,
          "time": 55.2272175,
          "velocity": 0.3937007874015748
        },
        {
          "duration": 0.13636350000000164,
          "durationTicks": 96,
          "midi": 76,
          "name": "E5",
          "ticks": 38976,
          "time": 55.363580999999996,
          "velocity": 0.3937007874015748
        },
        {
          "duration": 0.13636350000000164,
          "durationTicks": 96,
          "midi": 68,
          "name": "G#4",
          "ticks": 38976,
          "time": 55.363580999999996,
          "velocity": 0.3937007874015748
        },
        {
          "duration": 0.13636350000000164,
          "durationTicks": 96,
          "midi": 80,
          "name": "G#5",
          "ticks": 39072,
          "time": 55.4999445,
          "velocity": 0.3937007874015748
        },
        {
          "duration": 0.13636350000000164,
          "durationTicks": 96,
          "midi": 76,
          "name": "E5",
          "ticks": 39168,
          "time": 55.636308,
          "velocity": 0.3937007874015748
        },
        {
          "duration": 0.13636349999999453,
          "durationTicks": 96,
          "midi": 80,
          "name": "G#5",
          "ticks": 39360,
          "time": 55.909035,
          "velocity": 0.3937007874015748
        },
        {
          "duration": 0.13636349999999453,
          "durationTicks": 96,
          "midi": 76,
          "name": "E5",
          "ticks": 39360,
          "time": 55.909035,
          "velocity": 0.3937007874015748
        },
        {
          "duration": 0.13636349999999453,
          "durationTicks": 96,
          "midi": 68,
          "name": "G#4",
          "ticks": 39360,
          "time": 55.909035,
          "velocity": 0.3937007874015748
        },
        {
          "duration": 0.13636350000000164,
          "durationTicks": 96,
          "midi": 80,
          "name": "G#5",
          "ticks": 39456,
          "time": 56.0453985,
          "velocity": 0.3937007874015748
        },
        {
          "duration": 0.13636350000000164,
          "durationTicks": 96,
          "midi": 68,
          "name": "G#4",
          "ticks": 39552,
          "time": 56.181762,
          "velocity": 0.3937007874015748
        },
        {
          "duration": 0.13636350000000164,
          "durationTicks": 96,
          "midi": 80,
          "name": "G#5",
          "ticks": 39648,
          "time": 56.3181255,
          "velocity": 0.3937007874015748
        },
        {
          "duration": 0.13636349999999453,
          "durationTicks": 96,
          "midi": 68,
          "name": "G#4",
          "ticks": 39744,
          "time": 56.454489,
          "velocity": 0.3937007874015748
        },
        {
          "duration": 0.13636349999999453,
          "durationTicks": 96,
          "midi": 81,
          "name": "A5",
          "ticks": 39744,
          "time": 56.454489,
          "velocity": 0.3937007874015748
        },
        {
          "duration": 0.13636349999999453,
          "durationTicks": 96,
          "midi": 76,
          "name": "E5",
          "ticks": 39744,
          "time": 56.454489,
          "velocity": 0.3937007874015748
        },
        {
          "duration": 0.13636350000000164,
          "durationTicks": 96,
          "midi": 90,
          "name": "F#6",
          "ticks": 39936,
          "time": 56.727216,
          "velocity": 0.3937007874015748
        },
        {
          "duration": 0.13636350000000164,
          "durationTicks": 96,
          "midi": 69,
          "name": "A4",
          "ticks": 39936,
          "time": 56.727216,
          "velocity": 0.3937007874015748
        },
        {
          "duration": 0.13636349999999453,
          "durationTicks": 96,
          "midi": 73,
          "name": "C#5",
          "ticks": 40128,
          "time": 56.999943,
          "velocity": 0.3937007874015748
        },
        {
          "duration": 0.13636349999999453,
          "durationTicks": 96,
          "midi": 69,
          "name": "A4",
          "ticks": 40128,
          "time": 56.999943,
          "velocity": 0.3937007874015748
        },
        {
          "duration": 0.13636350000000164,
          "durationTicks": 96,
          "midi": 76,
          "name": "E5",
          "ticks": 40320,
          "time": 57.27267,
          "velocity": 0.3937007874015748
        },
        {
          "duration": 0.13636350000000164,
          "durationTicks": 96,
          "midi": 88,
          "name": "E6",
          "ticks": 40320,
          "time": 57.27267,
          "velocity": 0.3937007874015748
        },
        {
          "duration": 0.13636350000000164,
          "durationTicks": 96,
          "midi": 69,
          "name": "A4",
          "ticks": 40320,
          "time": 57.27267,
          "velocity": 0.3937007874015748
        },
        {
          "duration": 0.13636350000000164,
          "durationTicks": 96,
          "midi": 73,
          "name": "C#5",
          "ticks": 40512,
          "time": 57.545397,
          "velocity": 0.3937007874015748
        },
        {
          "duration": 0.13636350000000164,
          "durationTicks": 96,
          "midi": 69,
          "name": "A4",
          "ticks": 40512,
          "time": 57.545397,
          "velocity": 0.3937007874015748
        },
        {
          "duration": 0.13636350000000164,
          "durationTicks": 96,
          "midi": 71,
          "name": "B4",
          "ticks": 40704,
          "time": 57.818124,
          "velocity": 0.3937007874015748
        },
        {
          "duration": 0.13636350000000164,
          "durationTicks": 96,
          "midi": 71,
          "name": "B4",
          "ticks": 40896,
          "time": 58.090851,
          "velocity": 0.3937007874015748
        },
        {
          "duration": 0.13636350000000164,
          "durationTicks": 96,
          "midi": 75,
          "name": "D#5",
          "ticks": 40896,
          "time": 58.090851,
          "velocity": 0.3937007874015748
        },
        {
          "duration": 0.13636350000000164,
          "durationTicks": 96,
          "midi": 71,
          "name": "B4",
          "ticks": 41088,
          "time": 58.363578,
          "velocity": 0.3937007874015748
        },
        {
          "duration": 0.13636350000000164,
          "durationTicks": 96,
          "midi": 71,
          "name": "B4",
          "ticks": 41280,
          "time": 58.636305,
          "velocity": 0.3937007874015748
        },
        {
          "duration": 0.13636350000000164,
          "durationTicks": 96,
          "midi": 75,
          "name": "D#5",
          "ticks": 41280,
          "time": 58.636305,
          "velocity": 0.3937007874015748
        },
        {
          "duration": 0.13636350000000164,
          "durationTicks": 96,
          "midi": 76,
          "name": "E5",
          "ticks": 41472,
          "time": 58.909031999999996,
          "velocity": 0.3937007874015748
        },
        {
          "duration": 0.13636350000000164,
          "durationTicks": 96,
          "midi": 88,
          "name": "E6",
          "ticks": 41472,
          "time": 58.909031999999996,
          "velocity": 0.3937007874015748
        },
        {
          "duration": 0.13636350000000164,
          "durationTicks": 96,
          "midi": 76,
          "name": "E5",
          "ticks": 41664,
          "time": 59.181759,
          "velocity": 0.3937007874015748
        },
        {
          "duration": 0.13636350000000164,
          "durationTicks": 96,
          "midi": 71,
          "name": "B4",
          "ticks": 41664,
          "time": 59.181759,
          "velocity": 0.3937007874015748
        },
        {
          "duration": 0.13636350000000164,
          "durationTicks": 96,
          "midi": 88,
          "name": "E6",
          "ticks": 41664,
          "time": 59.181759,
          "velocity": 0.3937007874015748
        },
        {
          "duration": 0.13636350000000164,
          "durationTicks": 96,
          "midi": 88,
          "name": "E6",
          "ticks": 41760,
          "time": 59.3181225,
          "velocity": 0.3937007874015748
        },
        {
          "duration": 0.13636349999999453,
          "durationTicks": 96,
          "midi": 88,
          "name": "E6",
          "ticks": 41856,
          "time": 59.454486,
          "velocity": 0.3937007874015748
        },
        {
          "duration": 0.13636349999999453,
          "durationTicks": 96,
          "midi": 76,
          "name": "E5",
          "ticks": 41856,
          "time": 59.454486,
          "velocity": 0.3937007874015748
        },
        {
          "duration": 0.13636350000000164,
          "durationTicks": 96,
          "midi": 90,
          "name": "F#6",
          "ticks": 41952,
          "time": 59.5908495,
          "velocity": 0.3937007874015748
        },
        {
          "duration": 0.13636350000000164,
          "durationTicks": 96,
          "midi": 76,
          "name": "E5",
          "ticks": 42048,
          "time": 59.727213,
          "velocity": 0.3937007874015748
        },
        {
          "duration": 0.13636350000000164,
          "durationTicks": 96,
          "midi": 71,
          "name": "B4",
          "ticks": 42048,
          "time": 59.727213,
          "velocity": 0.3937007874015748
        },
        {
          "duration": 0.13636350000000164,
          "durationTicks": 96,
          "midi": 87,
          "name": "D#6",
          "ticks": 42144,
          "time": 59.8635765,
          "velocity": 0.3937007874015748
        },
        {
          "duration": 0.13636349999999453,
          "durationTicks": 96,
          "midi": 68,
          "name": "G#4",
          "ticks": 42240,
          "time": 59.99994,
          "velocity": 0.3937007874015748
        },
        {
          "duration": 0.13636350000000164,
          "durationTicks": 96,
          "midi": 80,
          "name": "G#5",
          "ticks": 42336,
          "time": 60.1363035,
          "velocity": 0.3937007874015748
        },
        {
          "duration": 0.13636350000000164,
          "durationTicks": 96,
          "midi": 80,
          "name": "G#5",
          "ticks": 42528,
          "time": 60.4090305,
          "velocity": 0.3937007874015748
        },
        {
          "duration": 0.13636350000000164,
          "durationTicks": 96,
          "midi": 68,
          "name": "G#4",
          "ticks": 42528,
          "time": 60.4090305,
          "velocity": 0.3937007874015748
        },
        {
          "duration": 0.13636350000000164,
          "durationTicks": 96,
          "midi": 81,
          "name": "A5",
          "ticks": 42720,
          "time": 60.681757499999996,
          "velocity": 0.3937007874015748
        },
        {
          "duration": 0.13636350000000164,
          "durationTicks": 96,
          "midi": 78,
          "name": "F#5",
          "ticks": 42912,
          "time": 60.9544845,
          "velocity": 0.3937007874015748
        },
        {
          "duration": 0.13636350000000164,
          "durationTicks": 96,
          "midi": 90,
          "name": "F#6",
          "ticks": 42912,
          "time": 60.9544845,
          "velocity": 0.3937007874015748
        },
        {
          "duration": 0.13636350000000164,
          "durationTicks": 96,
          "midi": 73,
          "name": "C#5",
          "ticks": 42912,
          "time": 60.9544845,
          "velocity": 0.3937007874015748
        },
        {
          "duration": 0.13636350000000164,
          "durationTicks": 96,
          "midi": 73,
          "name": "C#5",
          "ticks": 43008,
          "time": 61.090848,
          "velocity": 0.3937007874015748
        },
        {
          "duration": 0.13636349999999453,
          "durationTicks": 96,
          "midi": 73,
          "name": "C#5",
          "ticks": 43104,
          "time": 61.2272115,
          "velocity": 0.3937007874015748
        },
        {
          "duration": 0.13636350000000164,
          "durationTicks": 96,
          "midi": 73,
          "name": "C#5",
          "ticks": 43296,
          "time": 61.4999385,
          "velocity": 0.3937007874015748
        },
        {
          "duration": 0.13636350000000164,
          "durationTicks": 96,
          "midi": 88,
          "name": "E6",
          "ticks": 43296,
          "time": 61.4999385,
          "velocity": 0.3937007874015748
        },
        {
          "duration": 0.13636350000000164,
          "durationTicks": 96,
          "midi": 73,
          "name": "C#5",
          "ticks": 43392,
          "time": 61.636302,
          "velocity": 0.3937007874015748
        },
        {
          "duration": 0.13636349999999453,
          "durationTicks": 96,
          "midi": 73,
          "name": "C#5",
          "ticks": 43488,
          "time": 61.7726655,
          "velocity": 0.3937007874015748
        },
        {
          "duration": 0.13636350000000164,
          "durationTicks": 96,
          "midi": 73,
          "name": "C#5",
          "ticks": 43680,
          "time": 62.0453925,
          "velocity": 0.3937007874015748
        },
        {
          "duration": 0.13636350000000164,
          "durationTicks": 96,
          "midi": 87,
          "name": "D#6",
          "ticks": 43680,
          "time": 62.0453925,
          "velocity": 0.3937007874015748
        },
        {
          "duration": 0.13636350000000164,
          "durationTicks": 96,
          "midi": 76,
          "name": "E5",
          "ticks": 43776,
          "time": 62.181756,
          "velocity": 0.3937007874015748
        },
        {
          "duration": 0.13636349999999453,
          "durationTicks": 96,
          "midi": 76,
          "name": "E5",
          "ticks": 43872,
          "time": 62.3181195,
          "velocity": 0.3937007874015748
        },
        {
          "duration": 0.13636350000000164,
          "durationTicks": 96,
          "midi": 68,
          "name": "G#4",
          "ticks": 44064,
          "time": 62.5908465,
          "velocity": 0.3937007874015748
        },
        {
          "duration": 0.13636350000000164,
          "durationTicks": 96,
          "midi": 85,
          "name": "C#6",
          "ticks": 44064,
          "time": 62.5908465,
          "velocity": 0.3937007874015748
        },
        {
          "duration": 0.13636350000000164,
          "durationTicks": 96,
          "midi": 71,
          "name": "B4",
          "ticks": 44256,
          "time": 62.8635735,
          "velocity": 0.3937007874015748
        },
        {
          "duration": 0.13636350000000164,
          "durationTicks": 96,
          "midi": 69,
          "name": "A4",
          "ticks": 44448,
          "time": 63.1363005,
          "velocity": 0.3937007874015748
        },
        {
          "duration": 0.13636350000000164,
          "durationTicks": 96,
          "midi": 88,
          "name": "E6",
          "ticks": 44448,
          "time": 63.1363005,
          "velocity": 0.3937007874015748
        },
        {
          "duration": 0.13636350000000164,
          "durationTicks": 96,
          "midi": 69,
          "name": "A4",
          "ticks": 44544,
          "time": 63.272664,
          "velocity": 0.3937007874015748
        },
        {
          "duration": 0.13636350000000164,
          "durationTicks": 96,
          "midi": 69,
          "name": "A4",
          "ticks": 44640,
          "time": 63.4090275,
          "velocity": 0.3937007874015748
        },
        {
          "duration": 0.13636350000000164,
          "durationTicks": 96,
          "midi": 69,
          "name": "A4",
          "ticks": 44832,
          "time": 63.6817545,
          "velocity": 0.3937007874015748
        },
        {
          "duration": 0.13636350000000164,
          "durationTicks": 96,
          "midi": 69,
          "name": "A4",
          "ticks": 44928,
          "time": 63.818118,
          "velocity": 0.3937007874015748
        },
        {
          "duration": 0.13636350000000164,
          "durationTicks": 96,
          "midi": 69,
          "name": "A4",
          "ticks": 45024,
          "time": 63.9544815,
          "velocity": 0.3937007874015748
        },
        {
          "duration": 0.13636350000000164,
          "durationTicks": 96,
          "midi": 86,
          "name": "D6",
          "ticks": 45216,
          "time": 64.2272085,
          "velocity": 0.3937007874015748
        },
        {
          "duration": 0.13636350000000164,
          "durationTicks": 96,
          "midi": 69,
          "name": "A4",
          "ticks": 45216,
          "time": 64.2272085,
          "velocity": 0.3937007874015748
        },
        {
          "duration": 0.13636349999998743,
          "durationTicks": 96,
          "midi": 72,
          "name": "C5",
          "ticks": 45312,
          "time": 64.363572,
          "velocity": 0.3937007874015748
        },
        {
          "duration": 0.13636350000000164,
          "durationTicks": 96,
          "midi": 72,
          "name": "C5",
          "ticks": 45408,
          "time": 64.49993549999999,
          "velocity": 0.3937007874015748
        },
        {
          "duration": 0.13636350000000164,
          "durationTicks": 96,
          "midi": 76,
          "name": "E5",
          "ticks": 45600,
          "time": 64.7726625,
          "velocity": 0.3937007874015748
        },
        {
          "duration": 0.13636350000000164,
          "durationTicks": 96,
          "midi": 84,
          "name": "C6",
          "ticks": 45600,
          "time": 64.7726625,
          "velocity": 0.3937007874015748
        },
        {
          "duration": 0.13636350000000164,
          "durationTicks": 96,
          "midi": 66,
          "name": "F#4",
          "ticks": 45792,
          "time": 65.0453895,
          "velocity": 0.3937007874015748
        },
        {
          "duration": 0.13636350000000164,
          "durationTicks": 96,
          "midi": 88,
          "name": "E6",
          "ticks": 45984,
          "time": 65.3181165,
          "velocity": 0.3937007874015748
        },
        {
          "duration": 0.13636350000000164,
          "durationTicks": 96,
          "midi": 76,
          "name": "E5",
          "ticks": 45984,
          "time": 65.3181165,
          "velocity": 0.3937007874015748
        },
        {
          "duration": 0.13636350000000164,
          "durationTicks": 96,
          "midi": 76,
          "name": "E5",
          "ticks": 46080,
          "time": 65.45448,
          "velocity": 0.3937007874015748
        },
        {
          "duration": 0.13636349999998743,
          "durationTicks": 96,
          "midi": 76,
          "name": "E5",
          "ticks": 46176,
          "time": 65.5908435,
          "velocity": 0.3937007874015748
        },
        {
          "duration": 0.13636350000000164,
          "durationTicks": 96,
          "midi": 76,
          "name": "E5",
          "ticks": 46368,
          "time": 65.8635705,
          "velocity": 0.3937007874015748
        },
        {
          "duration": 0.13636350000000164,
          "durationTicks": 96,
          "midi": 76,
          "name": "E5",
          "ticks": 46464,
          "time": 65.999934,
          "velocity": 0.3937007874015748
        },
        {
          "duration": 0.13636350000000164,
          "durationTicks": 96,
          "midi": 76,
          "name": "E5",
          "ticks": 46560,
          "time": 66.1362975,
          "velocity": 0.3937007874015748
        },
        {
          "duration": 0.13636350000000164,
          "durationTicks": 96,
          "midi": 76,
          "name": "E5",
          "ticks": 46752,
          "time": 66.4090245,
          "velocity": 0.3937007874015748
        },
        {
          "duration": 0.13636350000000164,
          "durationTicks": 96,
          "midi": 87,
          "name": "D#6",
          "ticks": 46752,
          "time": 66.4090245,
          "velocity": 0.3937007874015748
        },
        {
          "duration": 0.13636350000000164,
          "durationTicks": 96,
          "midi": 68,
          "name": "G#4",
          "ticks": 46848,
          "time": 66.545388,
          "velocity": 0.3937007874015748
        },
        {
          "duration": 0.13636350000000164,
          "durationTicks": 96,
          "midi": 68,
          "name": "G#4",
          "ticks": 46944,
          "time": 66.6817515,
          "velocity": 0.3937007874015748
        },
        {
          "duration": 0.13636350000000164,
          "durationTicks": 96,
          "midi": 73,
          "name": "C#5",
          "ticks": 47136,
          "time": 66.9544785,
          "velocity": 0.3937007874015748
        },
        {
          "duration": 0.13636350000000164,
          "durationTicks": 96,
          "midi": 83,
          "name": "B5",
          "ticks": 47136,
          "time": 66.9544785,
          "velocity": 0.3937007874015748
        },
        {
          "duration": 0.13636350000000164,
          "durationTicks": 96,
          "midi": 68,
          "name": "G#4",
          "ticks": 47328,
          "time": 67.2272055,
          "velocity": 0.3937007874015748
        },
        {
          "duration": 0.13636350000000164,
          "durationTicks": 96,
          "midi": 66,
          "name": "F#4",
          "ticks": 47520,
          "time": 67.4999325,
          "velocity": 0.3937007874015748
        },
        {
          "duration": 0.13636350000000164,
          "durationTicks": 96,
          "midi": 83,
          "name": "B5",
          "ticks": 47520,
          "time": 67.4999325,
          "velocity": 0.3937007874015748
        },
        {
          "duration": 0.13636350000000164,
          "durationTicks": 96,
          "midi": 85,
          "name": "C#6",
          "ticks": 47616,
          "time": 67.636296,
          "velocity": 0.3937007874015748
        },
        {
          "duration": 0.13636350000000164,
          "durationTicks": 96,
          "midi": 66,
          "name": "F#4",
          "ticks": 47616,
          "time": 67.636296,
          "velocity": 0.3937007874015748
        },
        {
          "duration": 0.13636350000000164,
          "durationTicks": 96,
          "midi": 66,
          "name": "F#4",
          "ticks": 47712,
          "time": 67.7726595,
          "velocity": 0.3937007874015748
        },
        {
          "duration": 0.13636350000000164,
          "durationTicks": 96,
          "midi": 66,
          "name": "F#4",
          "ticks": 47904,
          "time": 68.04538649999999,
          "velocity": 0.3937007874015748
        },
        {
          "duration": 0.13636350000000164,
          "durationTicks": 96,
          "midi": 66,
          "name": "F#4",
          "ticks": 48000,
          "time": 68.18175,
          "velocity": 0.3937007874015748
        },
        {
          "duration": 0.13636350000000164,
          "durationTicks": 96,
          "midi": 66,
          "name": "F#4",
          "ticks": 48096,
          "time": 68.3181135,
          "velocity": 0.3937007874015748
        },
        {
          "duration": 0.13636350000000164,
          "durationTicks": 96,
          "midi": 88,
          "name": "E6",
          "ticks": 48288,
          "time": 68.5908405,
          "velocity": 0.3937007874015748
        },
        {
          "duration": 0.13636350000000164,
          "durationTicks": 96,
          "midi": 66,
          "name": "F#4",
          "ticks": 48288,
          "time": 68.5908405,
          "velocity": 0.3937007874015748
        },
        {
          "duration": 0.13636350000000164,
          "durationTicks": 96,
          "midi": 90,
          "name": "F#6",
          "ticks": 48384,
          "time": 68.727204,
          "velocity": 0.3937007874015748
        },
        {
          "duration": 0.13636350000000164,
          "durationTicks": 96,
          "midi": 69,
          "name": "A4",
          "ticks": 48384,
          "time": 68.727204,
          "velocity": 0.3937007874015748
        },
        {
          "duration": 0.13636350000000164,
          "durationTicks": 96,
          "midi": 69,
          "name": "A4",
          "ticks": 48480,
          "time": 68.8635675,
          "velocity": 0.3937007874015748
        },
        {
          "duration": 0.13636349999998743,
          "durationTicks": 96,
          "midi": 72,
          "name": "C5",
          "ticks": 48672,
          "time": 69.1362945,
          "velocity": 0.3937007874015748
        },
        {
          "duration": 0.13636350000000164,
          "durationTicks": 96,
          "midi": 75,
          "name": "D#5",
          "ticks": 48864,
          "time": 69.4090215,
          "velocity": 0.3937007874015748
        },
        {
          "duration": 0.13636350000000164,
          "durationTicks": 96,
          "midi": 73,
          "name": "C#5",
          "ticks": 49056,
          "time": 69.6817485,
          "velocity": 0.3937007874015748
        },
        {
          "duration": 0.13636350000000164,
          "durationTicks": 96,
          "midi": 88,
          "name": "E6",
          "ticks": 49056,
          "time": 69.6817485,
          "velocity": 0.3937007874015748
        },
        {
          "duration": 0.13636350000000164,
          "durationTicks": 96,
          "midi": 73,
          "name": "C#5",
          "ticks": 49152,
          "time": 69.818112,
          "velocity": 0.3937007874015748
        },
        {
          "duration": 0.13636350000000164,
          "durationTicks": 96,
          "midi": 73,
          "name": "C#5",
          "ticks": 49248,
          "time": 69.9544755,
          "velocity": 0.3937007874015748
        },
        {
          "duration": 0.13636350000000164,
          "durationTicks": 96,
          "midi": 73,
          "name": "C#5",
          "ticks": 49440,
          "time": 70.2272025,
          "velocity": 0.3937007874015748
        },
        {
          "duration": 0.13636349999998743,
          "durationTicks": 96,
          "midi": 73,
          "name": "C#5",
          "ticks": 49536,
          "time": 70.363566,
          "velocity": 0.3937007874015748
        },
        {
          "duration": 0.13636350000000164,
          "durationTicks": 96,
          "midi": 73,
          "name": "C#5",
          "ticks": 49632,
          "time": 70.4999295,
          "velocity": 0.3937007874015748
        },
        {
          "duration": 0.13636350000000164,
          "durationTicks": 96,
          "midi": 87,
          "name": "D#6",
          "ticks": 49824,
          "time": 70.7726565,
          "velocity": 0.3937007874015748
        },
        {
          "duration": 0.13636350000000164,
          "durationTicks": 96,
          "midi": 73,
          "name": "C#5",
          "ticks": 49824,
          "time": 70.7726565,
          "velocity": 0.3937007874015748
        },
        {
          "duration": 0.13636350000000164,
          "durationTicks": 96,
          "midi": 76,
          "name": "E5",
          "ticks": 49920,
          "time": 70.90902,
          "velocity": 0.3937007874015748
        },
        {
          "duration": 0.13636350000000164,
          "durationTicks": 96,
          "midi": 76,
          "name": "E5",
          "ticks": 50016,
          "time": 71.0453835,
          "velocity": 0.3937007874015748
        },
        {
          "duration": 0.13636350000000164,
          "durationTicks": 96,
          "midi": 68,
          "name": "G#4",
          "ticks": 50208,
          "time": 71.3181105,
          "velocity": 0.3937007874015748
        },
        {
          "duration": 0.13636350000000164,
          "durationTicks": 96,
          "midi": 85,
          "name": "C#6",
          "ticks": 50208,
          "time": 71.3181105,
          "velocity": 0.3937007874015748
        },
        {
          "duration": 0.13636349999998743,
          "durationTicks": 96,
          "midi": 71,
          "name": "B4",
          "ticks": 50400,
          "time": 71.5908375,
          "velocity": 0.3937007874015748
        },
        {
          "duration": 0.13636350000000164,
          "durationTicks": 96,
          "midi": 69,
          "name": "A4",
          "ticks": 50592,
          "time": 71.8635645,
          "velocity": 0.3937007874015748
        },
        {
          "duration": 0.13636350000000164,
          "durationTicks": 96,
          "midi": 88,
          "name": "E6",
          "ticks": 50592,
          "time": 71.8635645,
          "velocity": 0.3937007874015748
        },
        {
          "duration": 0.13636350000000164,
          "durationTicks": 96,
          "midi": 69,
          "name": "A4",
          "ticks": 50688,
          "time": 71.999928,
          "velocity": 0.3937007874015748
        },
        {
          "duration": 0.13636350000000164,
          "durationTicks": 96,
          "midi": 69,
          "name": "A4",
          "ticks": 50784,
          "time": 72.1362915,
          "velocity": 0.3937007874015748
        },
        {
          "duration": 0.13636350000000164,
          "durationTicks": 96,
          "midi": 69,
          "name": "A4",
          "ticks": 50976,
          "time": 72.4090185,
          "velocity": 0.3937007874015748
        },
        {
          "duration": 0.13636350000000164,
          "durationTicks": 96,
          "midi": 69,
          "name": "A4",
          "ticks": 51072,
          "time": 72.545382,
          "velocity": 0.3937007874015748
        },
        {
          "duration": 0.13636349999998743,
          "durationTicks": 96,
          "midi": 69,
          "name": "A4",
          "ticks": 51168,
          "time": 72.6817455,
          "velocity": 0.3937007874015748
        },
        {
          "duration": 0.13636350000000164,
          "durationTicks": 96,
          "midi": 69,
          "name": "A4",
          "ticks": 51360,
          "time": 72.9544725,
          "velocity": 0.3937007874015748
        },
        {
          "duration": 0.13636350000000164,
          "durationTicks": 96,
          "midi": 86,
          "name": "D6",
          "ticks": 51360,
          "time": 72.9544725,
          "velocity": 0.3937007874015748
        },
        {
          "duration": 0.13636350000000164,
          "durationTicks": 96,
          "midi": 72,
          "name": "C5",
          "ticks": 51456,
          "time": 73.090836,
          "velocity": 0.3937007874015748
        },
        {
          "duration": 0.13636350000000164,
          "durationTicks": 96,
          "midi": 72,
          "name": "C5",
          "ticks": 51552,
          "time": 73.2271995,
          "velocity": 0.3937007874015748
        },
        {
          "duration": 0.13636350000000164,
          "durationTicks": 96,
          "midi": 84,
          "name": "C6",
          "ticks": 51744,
          "time": 73.4999265,
          "velocity": 0.3937007874015748
        },
        {
          "duration": 0.13636350000000164,
          "durationTicks": 96,
          "midi": 76,
          "name": "E5",
          "ticks": 51744,
          "time": 73.4999265,
          "velocity": 0.3937007874015748
        },
        {
          "duration": 0.13636350000000164,
          "durationTicks": 96,
          "midi": 66,
          "name": "F#4",
          "ticks": 51936,
          "time": 73.7726535,
          "velocity": 0.3937007874015748
        },
        {
          "duration": 0.13636350000000164,
          "durationTicks": 96,
          "midi": 88,
          "name": "E6",
          "ticks": 52128,
          "time": 74.0453805,
          "velocity": 0.3937007874015748
        },
        {
          "duration": 0.13636350000000164,
          "durationTicks": 96,
          "midi": 76,
          "name": "E5",
          "ticks": 52128,
          "time": 74.0453805,
          "velocity": 0.3937007874015748
        },
        {
          "duration": 0.13636350000000164,
          "durationTicks": 96,
          "midi": 76,
          "name": "E5",
          "ticks": 52224,
          "time": 74.181744,
          "velocity": 0.3937007874015748
        },
        {
          "duration": 0.13636350000000164,
          "durationTicks": 96,
          "midi": 76,
          "name": "E5",
          "ticks": 52320,
          "time": 74.3181075,
          "velocity": 0.3937007874015748
        },
        {
          "duration": 0.13636350000000164,
          "durationTicks": 96,
          "midi": 76,
          "name": "E5",
          "ticks": 52512,
          "time": 74.5908345,
          "velocity": 0.3937007874015748
        },
        {
          "duration": 0.13636350000000164,
          "durationTicks": 96,
          "midi": 76,
          "name": "E5",
          "ticks": 52608,
          "time": 74.727198,
          "velocity": 0.3937007874015748
        },
        {
          "duration": 0.13636350000000164,
          "durationTicks": 96,
          "midi": 76,
          "name": "E5",
          "ticks": 52704,
          "time": 74.8635615,
          "velocity": 0.3937007874015748
        },
        {
          "duration": 0.13636349999998743,
          "durationTicks": 96,
          "midi": 87,
          "name": "D#6",
          "ticks": 52896,
          "time": 75.1362885,
          "velocity": 0.3937007874015748
        },
        {
          "duration": 0.13636349999998743,
          "durationTicks": 96,
          "midi": 76,
          "name": "E5",
          "ticks": 52896,
          "time": 75.1362885,
          "velocity": 0.3937007874015748
        },
        {
          "duration": 0.13636350000000164,
          "durationTicks": 96,
          "midi": 68,
          "name": "G#4",
          "ticks": 52992,
          "time": 75.272652,
          "velocity": 0.3937007874015748
        },
        {
          "duration": 0.13636350000000164,
          "durationTicks": 96,
          "midi": 68,
          "name": "G#4",
          "ticks": 53088,
          "time": 75.4090155,
          "velocity": 0.3937007874015748
        },
        {
          "duration": 0.13636350000000164,
          "durationTicks": 96,
          "midi": 73,
          "name": "C#5",
          "ticks": 53280,
          "time": 75.6817425,
          "velocity": 0.3937007874015748
        },
        {
          "duration": 0.13636350000000164,
          "durationTicks": 96,
          "midi": 83,
          "name": "B5",
          "ticks": 53280,
          "time": 75.6817425,
          "velocity": 0.3937007874015748
        },
        {
          "duration": 0.13636350000000164,
          "durationTicks": 96,
          "midi": 68,
          "name": "G#4",
          "ticks": 53472,
          "time": 75.9544695,
          "velocity": 0.3937007874015748
        },
        {
          "duration": 0.13636349999998743,
          "durationTicks": 96,
          "midi": 66,
          "name": "F#4",
          "ticks": 53664,
          "time": 76.2271965,
          "velocity": 0.3937007874015748
        },
        {
          "duration": 0.13636349999998743,
          "durationTicks": 96,
          "midi": 83,
          "name": "B5",
          "ticks": 53664,
          "time": 76.2271965,
          "velocity": 0.3937007874015748
        },
        {
          "duration": 0.13636350000000164,
          "durationTicks": 96,
          "midi": 85,
          "name": "C#6",
          "ticks": 53760,
          "time": 76.36355999999999,
          "velocity": 0.3937007874015748
        },
        {
          "duration": 0.13636350000000164,
          "durationTicks": 96,
          "midi": 66,
          "name": "F#4",
          "ticks": 53760,
          "time": 76.36355999999999,
          "velocity": 0.3937007874015748
        },
        {
          "duration": 0.13636350000000164,
          "durationTicks": 96,
          "midi": 66,
          "name": "F#4",
          "ticks": 53856,
          "time": 76.4999235,
          "velocity": 0.3937007874015748
        },
        {
          "duration": 0.13636350000000164,
          "durationTicks": 96,
          "midi": 66,
          "name": "F#4",
          "ticks": 54048,
          "time": 76.7726505,
          "velocity": 0.3937007874015748
        },
        {
          "duration": 0.13636350000000164,
          "durationTicks": 96,
          "midi": 66,
          "name": "F#4",
          "ticks": 54144,
          "time": 76.909014,
          "velocity": 0.3937007874015748
        },
        {
          "duration": 0.13636350000000164,
          "durationTicks": 96,
          "midi": 66,
          "name": "F#4",
          "ticks": 54240,
          "time": 77.0453775,
          "velocity": 0.3937007874015748
        },
        {
          "duration": 0.13636350000000164,
          "durationTicks": 96,
          "midi": 88,
          "name": "E6",
          "ticks": 54432,
          "time": 77.3181045,
          "velocity": 0.3937007874015748
        },
        {
          "duration": 0.13636350000000164,
          "durationTicks": 96,
          "midi": 66,
          "name": "F#4",
          "ticks": 54432,
          "time": 77.3181045,
          "velocity": 0.3937007874015748
        },
        {
          "duration": 0.13636349999998743,
          "durationTicks": 96,
          "midi": 90,
          "name": "F#6",
          "ticks": 54528,
          "time": 77.454468,
          "velocity": 0.3937007874015748
        },
        {
          "duration": 0.13636349999998743,
          "durationTicks": 96,
          "midi": 69,
          "name": "A4",
          "ticks": 54528,
          "time": 77.454468,
          "velocity": 0.3937007874015748
        },
        {
          "duration": 0.13636350000000164,
          "durationTicks": 96,
          "midi": 69,
          "name": "A4",
          "ticks": 54624,
          "time": 77.5908315,
          "velocity": 0.3937007874015748
        },
        {
          "duration": 0.13636350000000164,
          "durationTicks": 96,
          "midi": 68,
          "name": "G#4",
          "ticks": 54816,
          "time": 77.8635585,
          "velocity": 0.3937007874015748
        },
        {
          "duration": 0.13636350000000164,
          "durationTicks": 96,
          "midi": 80,
          "name": "G#5",
          "ticks": 54816,
          "time": 77.8635585,
          "velocity": 0.3937007874015748
        },
        {
          "duration": 0.13636350000000164,
          "durationTicks": 96,
          "midi": 73,
          "name": "C#5",
          "ticks": 55200,
          "time": 78.4090125,
          "velocity": 0.3937007874015748
        },
        {
          "duration": 0.13636349999998743,
          "durationTicks": 96,
          "midi": 88,
          "name": "E6",
          "ticks": 55392,
          "time": 78.6817395,
          "velocity": 0.3937007874015748
        },
        {
          "duration": 0.13636349999998743,
          "durationTicks": 96,
          "midi": 73,
          "name": "C#5",
          "ticks": 55392,
          "time": 78.6817395,
          "velocity": 0.3937007874015748
        },
        {
          "duration": 0.13636350000000164,
          "durationTicks": 96,
          "midi": 87,
          "name": "D#6",
          "ticks": 55584,
          "time": 78.9544665,
          "velocity": 0.3937007874015748
        },
        {
          "duration": 0.13636350000000164,
          "durationTicks": 96,
          "midi": 73,
          "name": "C#5",
          "ticks": 55584,
          "time": 78.9544665,
          "velocity": 0.3937007874015748
        },
        {
          "duration": 0.13636350000000164,
          "durationTicks": 96,
          "midi": 73,
          "name": "C#5",
          "ticks": 55776,
          "time": 79.2271935,
          "velocity": 0.3937007874015748
        },
        {
          "duration": 0.13636350000000164,
          "durationTicks": 96,
          "midi": 85,
          "name": "C#6",
          "ticks": 55776,
          "time": 79.2271935,
          "velocity": 0.3937007874015748
        },
        {
          "duration": 0.13636350000000164,
          "durationTicks": 96,
          "midi": 76,
          "name": "E5",
          "ticks": 55968,
          "time": 79.4999205,
          "velocity": 0.3937007874015748
        },
        {
          "duration": 0.13636350000000164,
          "durationTicks": 96,
          "midi": 83,
          "name": "B5",
          "ticks": 55968,
          "time": 79.4999205,
          "velocity": 0.3937007874015748
        },
        {
          "duration": 0.13636349999998743,
          "durationTicks": 96,
          "midi": 88,
          "name": "E6",
          "ticks": 56160,
          "time": 79.7726475,
          "velocity": 0.3937007874015748
        },
        {
          "duration": 0.13636349999998743,
          "durationTicks": 96,
          "midi": 76,
          "name": "E5",
          "ticks": 56160,
          "time": 79.7726475,
          "velocity": 0.3937007874015748
        },
        {
          "duration": 0.13636350000000164,
          "durationTicks": 96,
          "midi": 68,
          "name": "G#4",
          "ticks": 56352,
          "time": 80.0453745,
          "velocity": 0.3937007874015748
        },
        {
          "duration": 0.13636350000000164,
          "durationTicks": 96,
          "midi": 80,
          "name": "G#5",
          "ticks": 56352,
          "time": 80.0453745,
          "velocity": 0.3937007874015748
        },
        {
          "duration": 0.13636350000000164,
          "durationTicks": 96,
          "midi": 83,
          "name": "B5",
          "ticks": 56544,
          "time": 80.3181015,
          "velocity": 0.3937007874015748
        },
        {
          "duration": 0.13636350000000164,
          "durationTicks": 96,
          "midi": 68,
          "name": "G#4",
          "ticks": 56544,
          "time": 80.3181015,
          "velocity": 0.3937007874015748
        },
        {
          "duration": 0.13636350000000164,
          "durationTicks": 96,
          "midi": 85,
          "name": "C#6",
          "ticks": 56640,
          "time": 80.454465,
          "velocity": 0.3937007874015748
        },
        {
          "duration": 0.13636350000000164,
          "durationTicks": 96,
          "midi": 66,
          "name": "F#4",
          "ticks": 56736,
          "time": 80.5908285,
          "velocity": 0.3937007874015748
        },
        {
          "duration": 0.13636350000000164,
          "durationTicks": 96,
          "midi": 83,
          "name": "B5",
          "ticks": 56736,
          "time": 80.5908285,
          "velocity": 0.3937007874015748
        },
        {
          "duration": 0.13636350000000164,
          "durationTicks": 96,
          "midi": 66,
          "name": "F#4",
          "ticks": 56928,
          "time": 80.8635555,
          "velocity": 0.3937007874015748
        },
        {
          "duration": 0.13636350000000164,
          "durationTicks": 96,
          "midi": 81,
          "name": "A5",
          "ticks": 56928,
          "time": 80.8635555,
          "velocity": 0.3937007874015748
        },
        {
          "duration": 0.13636350000000164,
          "durationTicks": 96,
          "midi": 68,
          "name": "G#4",
          "ticks": 57120,
          "time": 81.1362825,
          "velocity": 0.3937007874015748
        },
        {
          "duration": 0.13636350000000164,
          "durationTicks": 96,
          "midi": 80,
          "name": "G#5",
          "ticks": 57120,
          "time": 81.1362825,
          "velocity": 0.3937007874015748
        },
        {
          "duration": 0.13636350000000164,
          "durationTicks": 96,
          "midi": 68,
          "name": "G#4",
          "ticks": 57312,
          "time": 81.4090095,
          "velocity": 0.3937007874015748
        },
        {
          "duration": 0.13636350000000164,
          "durationTicks": 96,
          "midi": 78,
          "name": "F#5",
          "ticks": 57312,
          "time": 81.4090095,
          "velocity": 0.3937007874015748
        },
        {
          "duration": 0.13636350000000164,
          "durationTicks": 96,
          "midi": 80,
          "name": "G#5",
          "ticks": 57504,
          "time": 81.6817365,
          "velocity": 0.3937007874015748
        },
        {
          "duration": 0.13636350000000164,
          "durationTicks": 96,
          "midi": 73,
          "name": "C#5",
          "ticks": 57504,
          "time": 81.6817365,
          "velocity": 0.3937007874015748
        },
        {
          "duration": 0.13636350000000164,
          "durationTicks": 96,
          "midi": 73,
          "name": "C#5",
          "ticks": 57696,
          "time": 81.9544635,
          "velocity": 0.3937007874015748
        },
        {
          "duration": 0.13636349999998743,
          "durationTicks": 96,
          "midi": 76,
          "name": "E5",
          "ticks": 57888,
          "time": 82.2271905,
          "velocity": 0.3937007874015748
        },
        {
          "duration": 0.13636350000000164,
          "durationTicks": 96,
          "midi": 73,
          "name": "C#5",
          "ticks": 58080,
          "time": 82.4999175,
          "velocity": 0.3937007874015748
        },
        {
          "duration": 0.13636350000000164,
          "durationTicks": 96,
          "midi": 76,
          "name": "E5",
          "ticks": 58080,
          "time": 82.4999175,
          "velocity": 0.3937007874015748
        },
        {
          "duration": 0.13636350000000164,
          "durationTicks": 96,
          "midi": 66,
          "name": "F#4",
          "ticks": 58272,
          "time": 82.7726445,
          "velocity": 0.3937007874015748
        },
        {
          "duration": 0.13636350000000164,
          "durationTicks": 96,
          "midi": 78,
          "name": "F#5",
          "ticks": 58272,
          "time": 82.7726445,
          "velocity": 0.3937007874015748
        },
        {
          "duration": 0.13636350000000164,
          "durationTicks": 96,
          "midi": 81,
          "name": "A5",
          "ticks": 58464,
          "time": 83.0453715,
          "velocity": 0.3937007874015748
        },
        {
          "duration": 0.13636350000000164,
          "durationTicks": 96,
          "midi": 66,
          "name": "F#4",
          "ticks": 58464,
          "time": 83.0453715,
          "velocity": 0.3937007874015748
        },
        {
          "duration": 0.13636349999998743,
          "durationTicks": 96,
          "midi": 80,
          "name": "G#5",
          "ticks": 58656,
          "time": 83.3180985,
          "velocity": 0.3937007874015748
        },
        {
          "duration": 0.13636349999998743,
          "durationTicks": 96,
          "midi": 69,
          "name": "A4",
          "ticks": 58656,
          "time": 83.3180985,
          "velocity": 0.3937007874015748
        },
        {
          "duration": 0.13636350000000164,
          "durationTicks": 96,
          "midi": 69,
          "name": "A4",
          "ticks": 58848,
          "time": 83.5908255,
          "velocity": 0.3937007874015748
        },
        {
          "duration": 0.13636350000000164,
          "durationTicks": 96,
          "midi": 78,
          "name": "F#5",
          "ticks": 58848,
          "time": 83.5908255,
          "velocity": 0.3937007874015748
        },
        {
          "duration": 0.13636350000000164,
          "durationTicks": 96,
          "midi": 73,
          "name": "C#5",
          "ticks": 59040,
          "time": 83.8635525,
          "velocity": 0.3937007874015748
        },
        {
          "duration": 0.13636350000000164,
          "durationTicks": 96,
          "midi": 80,
          "name": "G#5",
          "ticks": 59040,
          "time": 83.8635525,
          "velocity": 0.3937007874015748
        },
        {
          "duration": 0.13636350000000164,
          "durationTicks": 96,
          "midi": 73,
          "name": "C#5",
          "ticks": 59232,
          "time": 84.1362795,
          "velocity": 0.3937007874015748
        },
        {
          "duration": 0.13636350000000164,
          "durationTicks": 96,
          "midi": 76,
          "name": "E5",
          "ticks": 59424,
          "time": 84.4090065,
          "velocity": 0.3937007874015748
        },
        {
          "duration": 0.13636350000000164,
          "durationTicks": 96,
          "midi": 73,
          "name": "C#5",
          "ticks": 59616,
          "time": 84.68173349999999,
          "velocity": 0.3937007874015748
        },
        {
          "duration": 0.13636350000000164,
          "durationTicks": 96,
          "midi": 76,
          "name": "E5",
          "ticks": 59616,
          "time": 84.68173349999999,
          "velocity": 0.3937007874015748
        },
        {
          "duration": 0.13636350000000164,
          "durationTicks": 96,
          "midi": 78,
          "name": "F#5",
          "ticks": 59808,
          "time": 84.9544605,
          "velocity": 0.3937007874015748
        },
        {
          "duration": 0.13636350000000164,
          "durationTicks": 96,
          "midi": 66,
          "name": "F#4",
          "ticks": 59808,
          "time": 84.9544605,
          "velocity": 0.3937007874015748
        },
        {
          "duration": 0.13636350000000164,
          "durationTicks": 96,
          "midi": 81,
          "name": "A5",
          "ticks": 60000,
          "time": 85.2271875,
          "velocity": 0.3937007874015748
        },
        {
          "duration": 0.13636350000000164,
          "durationTicks": 96,
          "midi": 66,
          "name": "F#4",
          "ticks": 60000,
          "time": 85.2271875,
          "velocity": 0.3937007874015748
        },
        {
          "duration": 0.13636350000000164,
          "durationTicks": 96,
          "midi": 69,
          "name": "A4",
          "ticks": 60192,
          "time": 85.4999145,
          "velocity": 0.3937007874015748
        },
        {
          "duration": 0.13636350000000164,
          "durationTicks": 96,
          "midi": 80,
          "name": "G#5",
          "ticks": 60192,
          "time": 85.4999145,
          "velocity": 0.3937007874015748
        },
        {
          "duration": 0.13636349999998743,
          "durationTicks": 96,
          "midi": 69,
          "name": "A4",
          "ticks": 60384,
          "time": 85.7726415,
          "velocity": 0.3937007874015748
        },
        {
          "duration": 0.13636349999998743,
          "durationTicks": 96,
          "midi": 78,
          "name": "F#5",
          "ticks": 60384,
          "time": 85.7726415,
          "velocity": 0.3937007874015748
        },
        {
          "duration": 0.13636350000000164,
          "durationTicks": 96,
          "midi": 68,
          "name": "G#4",
          "ticks": 60576,
          "time": 86.0453685,
          "velocity": 0.3937007874015748
        },
        {
          "duration": 0.13636350000000164,
          "durationTicks": 96,
          "midi": 76,
          "name": "E5",
          "ticks": 60576,
          "time": 86.0453685,
          "velocity": 0.3937007874015748
        },
        {
          "duration": 0.13636350000000164,
          "durationTicks": 96,
          "midi": 75,
          "name": "D#5",
          "ticks": 60768,
          "time": 86.3180955,
          "velocity": 0.3937007874015748
        },
        {
          "duration": 0.13636350000000164,
          "durationTicks": 96,
          "midi": 68,
          "name": "G#4",
          "ticks": 60768,
          "time": 86.3180955,
          "velocity": 0.3937007874015748
        },
        {
          "duration": 0.13636350000000164,
          "durationTicks": 96,
          "midi": 68,
          "name": "G#4",
          "ticks": 60960,
          "time": 86.5908225,
          "velocity": 0.3937007874015748
        },
        {
          "duration": 0.13636350000000164,
          "durationTicks": 96,
          "midi": 73,
          "name": "C#5",
          "ticks": 60960,
          "time": 86.5908225,
          "velocity": 0.3937007874015748
        },
        {
          "duration": 0.13636349999998743,
          "durationTicks": 96,
          "midi": 75,
          "name": "D#5",
          "ticks": 61152,
          "time": 86.8635495,
          "velocity": 0.3937007874015748
        },
        {
          "duration": 0.13636349999998743,
          "durationTicks": 96,
          "midi": 68,
          "name": "G#4",
          "ticks": 61152,
          "time": 86.8635495,
          "velocity": 0.3937007874015748
        },
        {
          "duration": 0.13636350000000164,
          "durationTicks": 96,
          "midi": 73,
          "name": "C#5",
          "ticks": 61344,
          "time": 87.1362765,
          "velocity": 0.3937007874015748
        },
        {
          "duration": 0.13636350000000164,
          "durationTicks": 96,
          "midi": 85,
          "name": "C#6",
          "ticks": 61536,
          "time": 87.4090035,
          "velocity": 0.3937007874015748
        },
        {
          "duration": 0.13636350000000164,
          "durationTicks": 96,
          "midi": 88,
          "name": "E6",
          "ticks": 61536,
          "time": 87.4090035,
          "velocity": 0.3937007874015748
        },
        {
          "duration": 0.13636350000000164,
          "durationTicks": 96,
          "midi": 73,
          "name": "C#5",
          "ticks": 61536,
          "time": 87.4090035,
          "velocity": 0.3937007874015748
        },
        {
          "duration": 0.13636350000000164,
          "durationTicks": 96,
          "midi": 80,
          "name": "G#5",
          "ticks": 61728,
          "time": 87.6817305,
          "velocity": 0.3937007874015748
        },
        {
          "duration": 0.13636350000000164,
          "durationTicks": 96,
          "midi": 87,
          "name": "D#6",
          "ticks": 61728,
          "time": 87.6817305,
          "velocity": 0.3937007874015748
        },
        {
          "duration": 0.13636350000000164,
          "durationTicks": 96,
          "midi": 73,
          "name": "C#5",
          "ticks": 61728,
          "time": 87.6817305,
          "velocity": 0.3937007874015748
        },
        {
          "duration": 0.13636350000000164,
          "durationTicks": 96,
          "midi": 80,
          "name": "G#5",
          "ticks": 61920,
          "time": 87.9544575,
          "velocity": 0.3937007874015748
        },
        {
          "duration": 0.13636350000000164,
          "durationTicks": 96,
          "midi": 85,
          "name": "C#6",
          "ticks": 61920,
          "time": 87.9544575,
          "velocity": 0.3937007874015748
        },
        {
          "duration": 0.13636350000000164,
          "durationTicks": 96,
          "midi": 73,
          "name": "C#5",
          "ticks": 61920,
          "time": 87.9544575,
          "velocity": 0.3937007874015748
        },
        {
          "duration": 0.13636350000000164,
          "durationTicks": 96,
          "midi": 76,
          "name": "E5",
          "ticks": 62112,
          "time": 88.22718449999999,
          "velocity": 0.3937007874015748
        },
        {
          "duration": 0.13636350000000164,
          "durationTicks": 96,
          "midi": 83,
          "name": "B5",
          "ticks": 62112,
          "time": 88.22718449999999,
          "velocity": 0.3937007874015748
        },
        {
          "duration": 0.13636350000000164,
          "durationTicks": 96,
          "midi": 80,
          "name": "G#5",
          "ticks": 62112,
          "time": 88.22718449999999,
          "velocity": 0.3937007874015748
        },
        {
          "duration": 0.13636350000000164,
          "durationTicks": 96,
          "midi": 88,
          "name": "E6",
          "ticks": 62304,
          "time": 88.4999115,
          "velocity": 0.3937007874015748
        },
        {
          "duration": 0.13636350000000164,
          "durationTicks": 96,
          "midi": 76,
          "name": "E5",
          "ticks": 62304,
          "time": 88.4999115,
          "velocity": 0.3937007874015748
        },
        {
          "duration": 0.13636350000000164,
          "durationTicks": 96,
          "midi": 68,
          "name": "G#4",
          "ticks": 62496,
          "time": 88.7726385,
          "velocity": 0.3937007874015748
        },
        {
          "duration": 0.13636350000000164,
          "durationTicks": 96,
          "midi": 80,
          "name": "G#5",
          "ticks": 62496,
          "time": 88.7726385,
          "velocity": 0.3937007874015748
        },
        {
          "duration": 0.13636350000000164,
          "durationTicks": 96,
          "midi": 68,
          "name": "G#4",
          "ticks": 62688,
          "time": 89.0453655,
          "velocity": 0.3937007874015748
        },
        {
          "duration": 0.13636350000000164,
          "durationTicks": 96,
          "midi": 83,
          "name": "B5",
          "ticks": 62688,
          "time": 89.0453655,
          "velocity": 0.3937007874015748
        },
        {
          "duration": 0.13636350000000164,
          "durationTicks": 96,
          "midi": 85,
          "name": "C#6",
          "ticks": 62784,
          "time": 89.181729,
          "velocity": 0.3937007874015748
        },
        {
          "duration": 0.13636349999998743,
          "durationTicks": 96,
          "midi": 78,
          "name": "F#5",
          "ticks": 62880,
          "time": 89.3180925,
          "velocity": 0.3937007874015748
        },
        {
          "duration": 0.13636349999998743,
          "durationTicks": 96,
          "midi": 66,
          "name": "F#4",
          "ticks": 62880,
          "time": 89.3180925,
          "velocity": 0.3937007874015748
        },
        {
          "duration": 0.13636349999998743,
          "durationTicks": 96,
          "midi": 83,
          "name": "B5",
          "ticks": 62880,
          "time": 89.3180925,
          "velocity": 0.3937007874015748
        },
        {
          "duration": 0.13636350000000164,
          "durationTicks": 96,
          "midi": 76,
          "name": "E5",
          "ticks": 63072,
          "time": 89.5908195,
          "velocity": 0.3937007874015748
        },
        {
          "duration": 0.13636350000000164,
          "durationTicks": 96,
          "midi": 81,
          "name": "A5",
          "ticks": 63072,
          "time": 89.5908195,
          "velocity": 0.3937007874015748
        },
        {
          "duration": 0.13636350000000164,
          "durationTicks": 96,
          "midi": 66,
          "name": "F#4",
          "ticks": 63072,
          "time": 89.5908195,
          "velocity": 0.3937007874015748
        },
        {
          "duration": 0.13636350000000164,
          "durationTicks": 96,
          "midi": 68,
          "name": "G#4",
          "ticks": 63264,
          "time": 89.8635465,
          "velocity": 0.3937007874015748
        },
        {
          "duration": 0.13636350000000164,
          "durationTicks": 96,
          "midi": 75,
          "name": "D#5",
          "ticks": 63264,
          "time": 89.8635465,
          "velocity": 0.3937007874015748
        },
        {
          "duration": 0.13636350000000164,
          "durationTicks": 96,
          "midi": 80,
          "name": "G#5",
          "ticks": 63264,
          "time": 89.8635465,
          "velocity": 0.3937007874015748
        },
        {
          "duration": 0.13636350000000164,
          "durationTicks": 96,
          "midi": 76,
          "name": "E5",
          "ticks": 63456,
          "time": 90.1362735,
          "velocity": 0.3937007874015748
        },
        {
          "duration": 0.13636350000000164,
          "durationTicks": 96,
          "midi": 68,
          "name": "G#4",
          "ticks": 63456,
          "time": 90.1362735,
          "velocity": 0.3937007874015748
        },
        {
          "duration": 0.13636350000000164,
          "durationTicks": 96,
          "midi": 78,
          "name": "F#5",
          "ticks": 63456,
          "time": 90.1362735,
          "velocity": 0.3937007874015748
        },
        {
          "duration": 0.13636349999998743,
          "durationTicks": 96,
          "midi": 76,
          "name": "E5",
          "ticks": 63648,
          "time": 90.4090005,
          "velocity": 0.3937007874015748
        },
        {
          "duration": 0.13636349999998743,
          "durationTicks": 96,
          "midi": 80,
          "name": "G#5",
          "ticks": 63648,
          "time": 90.4090005,
          "velocity": 0.3937007874015748
        },
        {
          "duration": 0.13636349999998743,
          "durationTicks": 96,
          "midi": 73,
          "name": "C#5",
          "ticks": 63648,
          "time": 90.4090005,
          "velocity": 0.3937007874015748
        },
        {
          "duration": 0.13636350000000164,
          "durationTicks": 96,
          "midi": 68,
          "name": "G#4",
          "ticks": 63840,
          "time": 90.6817275,
          "velocity": 0.3937007874015748
        },
        {
          "duration": 0.13636350000000164,
          "durationTicks": 96,
          "midi": 73,
          "name": "C#5",
          "ticks": 63840,
          "time": 90.6817275,
          "velocity": 0.3937007874015748
        },
        {
          "duration": 0.13636350000000164,
          "durationTicks": 96,
          "midi": 73,
          "name": "C#5",
          "ticks": 64032,
          "time": 90.9544545,
          "velocity": 0.3937007874015748
        },
        {
          "duration": 0.13636350000000164,
          "durationTicks": 96,
          "midi": 76,
          "name": "E5",
          "ticks": 64032,
          "time": 90.9544545,
          "velocity": 0.3937007874015748
        },
        {
          "duration": 0.13636350000000164,
          "durationTicks": 96,
          "midi": 73,
          "name": "C#5",
          "ticks": 64224,
          "time": 91.2271815,
          "velocity": 0.3937007874015748
        },
        {
          "duration": 0.13636350000000164,
          "durationTicks": 96,
          "midi": 66,
          "name": "F#4",
          "ticks": 64416,
          "time": 91.4999085,
          "velocity": 0.3937007874015748
        },
        {
          "duration": 0.13636350000000164,
          "durationTicks": 96,
          "midi": 73,
          "name": "C#5",
          "ticks": 64416,
          "time": 91.4999085,
          "velocity": 0.3937007874015748
        },
        {
          "duration": 0.13636350000000164,
          "durationTicks": 96,
          "midi": 78,
          "name": "F#5",
          "ticks": 64416,
          "time": 91.4999085,
          "velocity": 0.3937007874015748
        },
        {
          "duration": 0.13636350000000164,
          "durationTicks": 96,
          "midi": 76,
          "name": "E5",
          "ticks": 64608,
          "time": 91.77263549999999,
          "velocity": 0.3937007874015748
        },
        {
          "duration": 0.13636350000000164,
          "durationTicks": 96,
          "midi": 81,
          "name": "A5",
          "ticks": 64608,
          "time": 91.77263549999999,
          "velocity": 0.3937007874015748
        },
        {
          "duration": 0.13636350000000164,
          "durationTicks": 96,
          "midi": 66,
          "name": "F#4",
          "ticks": 64608,
          "time": 91.77263549999999,
          "velocity": 0.3937007874015748
        },
        {
          "duration": 0.13636350000000164,
          "durationTicks": 96,
          "midi": 75,
          "name": "D#5",
          "ticks": 64800,
          "time": 92.0453625,
          "velocity": 0.3937007874015748
        },
        {
          "duration": 0.13636350000000164,
          "durationTicks": 96,
          "midi": 80,
          "name": "G#5",
          "ticks": 64800,
          "time": 92.0453625,
          "velocity": 0.3937007874015748
        },
        {
          "duration": 0.13636350000000164,
          "durationTicks": 96,
          "midi": 69,
          "name": "A4",
          "ticks": 64800,
          "time": 92.0453625,
          "velocity": 0.3937007874015748
        },
        {
          "duration": 0.13636350000000164,
          "durationTicks": 96,
          "midi": 69,
          "name": "A4",
          "ticks": 64992,
          "time": 92.3180895,
          "velocity": 0.3937007874015748
        },
        {
          "duration": 0.13636350000000164,
          "durationTicks": 96,
          "midi": 76,
          "name": "E5",
          "ticks": 64992,
          "time": 92.3180895,
          "velocity": 0.3937007874015748
        },
        {
          "duration": 0.13636350000000164,
          "durationTicks": 96,
          "midi": 78,
          "name": "F#5",
          "ticks": 64992,
          "time": 92.3180895,
          "velocity": 0.3937007874015748
        },
        {
          "duration": 0.13636350000000164,
          "durationTicks": 96,
          "midi": 80,
          "name": "G#5",
          "ticks": 65184,
          "time": 92.5908165,
          "velocity": 0.3937007874015748
        },
        {
          "duration": 0.13636350000000164,
          "durationTicks": 96,
          "midi": 76,
          "name": "E5",
          "ticks": 65184,
          "time": 92.5908165,
          "velocity": 0.3937007874015748
        },
        {
          "duration": 0.13636350000000164,
          "durationTicks": 96,
          "midi": 73,
          "name": "C#5",
          "ticks": 65184,
          "time": 92.5908165,
          "velocity": 0.3937007874015748
        },
        {
          "duration": 0.13636349999998743,
          "durationTicks": 96,
          "midi": 68,
          "name": "G#4",
          "ticks": 65376,
          "time": 92.8635435,
          "velocity": 0.3937007874015748
        },
        {
          "duration": 0.13636349999998743,
          "durationTicks": 96,
          "midi": 73,
          "name": "C#5",
          "ticks": 65376,
          "time": 92.8635435,
          "velocity": 0.3937007874015748
        },
        {
          "duration": 0.13636350000000164,
          "durationTicks": 96,
          "midi": 76,
          "name": "E5",
          "ticks": 65568,
          "time": 93.1362705,
          "velocity": 0.3937007874015748
        },
        {
          "duration": 0.13636350000000164,
          "durationTicks": 96,
          "midi": 73,
          "name": "C#5",
          "ticks": 65568,
          "time": 93.1362705,
          "velocity": 0.3937007874015748
        },
        {
          "duration": 0.13636350000000164,
          "durationTicks": 96,
          "midi": 76,
          "name": "E5",
          "ticks": 65760,
          "time": 93.4089975,
          "velocity": 0.3937007874015748
        },
        {
          "duration": 0.13636350000000164,
          "durationTicks": 96,
          "midi": 73,
          "name": "C#5",
          "ticks": 65760,
          "time": 93.4089975,
          "velocity": 0.3937007874015748
        },
        {
          "duration": 0.13636350000000164,
          "durationTicks": 96,
          "midi": 78,
          "name": "F#5",
          "ticks": 65952,
          "time": 93.6817245,
          "velocity": 0.3937007874015748
        },
        {
          "duration": 0.13636350000000164,
          "durationTicks": 96,
          "midi": 66,
          "name": "F#4",
          "ticks": 65952,
          "time": 93.6817245,
          "velocity": 0.3937007874015748
        },
        {
          "duration": 0.13636350000000164,
          "durationTicks": 96,
          "midi": 73,
          "name": "C#5",
          "ticks": 65952,
          "time": 93.6817245,
          "velocity": 0.3937007874015748
        },
        {
          "duration": 0.13636349999998743,
          "durationTicks": 96,
          "midi": 76,
          "name": "E5",
          "ticks": 66144,
          "time": 93.9544515,
          "velocity": 0.3937007874015748
        },
        {
          "duration": 0.13636349999998743,
          "durationTicks": 96,
          "midi": 81,
          "name": "A5",
          "ticks": 66144,
          "time": 93.9544515,
          "velocity": 0.3937007874015748
        },
        {
          "duration": 0.13636349999998743,
          "durationTicks": 96,
          "midi": 66,
          "name": "F#4",
          "ticks": 66144,
          "time": 93.9544515,
          "velocity": 0.3937007874015748
        },
        {
          "duration": 0.13636350000000164,
          "durationTicks": 96,
          "midi": 73,
          "name": "C#5",
          "ticks": 66336,
          "time": 94.2271785,
          "velocity": 0.3937007874015748
        },
        {
          "duration": 0.13636350000000164,
          "durationTicks": 96,
          "midi": 69,
          "name": "A4",
          "ticks": 66336,
          "time": 94.2271785,
          "velocity": 0.3937007874015748
        },
        {
          "duration": 0.13636350000000164,
          "durationTicks": 96,
          "midi": 80,
          "name": "G#5",
          "ticks": 66336,
          "time": 94.2271785,
          "velocity": 0.3937007874015748
        },
        {
          "duration": 0.13636350000000164,
          "durationTicks": 96,
          "midi": 69,
          "name": "A4",
          "ticks": 66528,
          "time": 94.4999055,
          "velocity": 0.3937007874015748
        },
        {
          "duration": 0.13636350000000164,
          "durationTicks": 96,
          "midi": 78,
          "name": "F#5",
          "ticks": 66528,
          "time": 94.4999055,
          "velocity": 0.3937007874015748
        },
        {
          "duration": 0.13636350000000164,
          "durationTicks": 96,
          "midi": 73,
          "name": "C#5",
          "ticks": 66528,
          "time": 94.4999055,
          "velocity": 0.3937007874015748
        },
        {
          "duration": 0.13636350000000164,
          "durationTicks": 96,
          "midi": 80,
          "name": "G#5",
          "ticks": 66720,
          "time": 94.7726325,
          "velocity": 0.3937007874015748
        },
        {
          "duration": 0.13636350000000164,
          "durationTicks": 96,
          "midi": 68,
          "name": "G#4",
          "ticks": 66720,
          "time": 94.7726325,
          "velocity": 0.3937007874015748
        },
        {
          "duration": 0.13636350000000164,
          "durationTicks": 96,
          "midi": 83,
          "name": "B5",
          "ticks": 66912,
          "time": 95.0453595,
          "velocity": 0.3937007874015748
        },
        {
          "duration": 0.13636350000000164,
          "durationTicks": 96,
          "midi": 68,
          "name": "G#4",
          "ticks": 66912,
          "time": 95.0453595,
          "velocity": 0.3937007874015748
        },
        {
          "duration": 0.13636350000000164,
          "durationTicks": 96,
          "midi": 84,
          "name": "C6",
          "ticks": 67104,
          "time": 95.31808649999999,
          "velocity": 0.3937007874015748
        },
        {
          "duration": 0.13636350000000164,
          "durationTicks": 96,
          "midi": 73,
          "name": "C#5",
          "ticks": 67488,
          "time": 95.8635405,
          "velocity": 0.3937007874015748
        },
        {
          "duration": 0.13636350000000164,
          "durationTicks": 96,
          "midi": 80,
          "name": "G#5",
          "ticks": 67680,
          "time": 96.1362675,
          "velocity": 0.3937007874015748
        },
        {
          "duration": 0.13636350000000164,
          "durationTicks": 96,
          "midi": 73,
          "name": "C#5",
          "ticks": 67776,
          "time": 96.272631,
          "velocity": 0.3937007874015748
        },
        {
          "duration": 0.13636349999998743,
          "durationTicks": 96,
          "midi": 80,
          "name": "G#5",
          "ticks": 67872,
          "time": 96.4089945,
          "velocity": 0.3937007874015748
        },
        {
          "duration": 0.13636350000000164,
          "durationTicks": 96,
          "midi": 90,
          "name": "F#6",
          "ticks": 67968,
          "time": 96.545358,
          "velocity": 0.3937007874015748
        },
        {
          "duration": 0.13636350000000164,
          "durationTicks": 96,
          "midi": 73,
          "name": "C#5",
          "ticks": 68064,
          "time": 96.6817215,
          "velocity": 0.3937007874015748
        },
        {
          "duration": 0.13636350000000164,
          "durationTicks": 96,
          "midi": 88,
          "name": "E6",
          "ticks": 68064,
          "time": 96.6817215,
          "velocity": 0.3937007874015748
        },
        {
          "duration": 0.13636350000000164,
          "durationTicks": 96,
          "midi": 90,
          "name": "F#6",
          "ticks": 68160,
          "time": 96.818085,
          "velocity": 0.3937007874015748
        },
        {
          "duration": 0.13636350000000164,
          "durationTicks": 96,
          "midi": 88,
          "name": "E6",
          "ticks": 68256,
          "time": 96.9544485,
          "velocity": 0.3937007874015748
        },
        {
          "duration": 0.13636350000000164,
          "durationTicks": 96,
          "midi": 76,
          "name": "E5",
          "ticks": 68256,
          "time": 96.9544485,
          "velocity": 0.3937007874015748
        },
        {
          "duration": 0.13636350000000164,
          "durationTicks": 96,
          "midi": 80,
          "name": "G#5",
          "ticks": 68448,
          "time": 97.2271755,
          "velocity": 0.3937007874015748
        },
        {
          "duration": 0.13636350000000164,
          "durationTicks": 96,
          "midi": 76,
          "name": "E5",
          "ticks": 68544,
          "time": 97.363539,
          "velocity": 0.3937007874015748
        },
        {
          "duration": 0.13636349999998743,
          "durationTicks": 96,
          "midi": 80,
          "name": "G#5",
          "ticks": 68640,
          "time": 97.4999025,
          "velocity": 0.3937007874015748
        },
        {
          "duration": 0.13636350000000164,
          "durationTicks": 96,
          "midi": 90,
          "name": "F#6",
          "ticks": 68736,
          "time": 97.63626599999999,
          "velocity": 0.3937007874015748
        },
        {
          "duration": 0.13636350000000164,
          "durationTicks": 96,
          "midi": 88,
          "name": "E6",
          "ticks": 68832,
          "time": 97.7726295,
          "velocity": 0.3937007874015748
        },
        {
          "duration": 0.13636350000000164,
          "durationTicks": 96,
          "midi": 76,
          "name": "E5",
          "ticks": 68832,
          "time": 97.7726295,
          "velocity": 0.3937007874015748
        },
        {
          "duration": 0.13636350000000164,
          "durationTicks": 96,
          "midi": 90,
          "name": "F#6",
          "ticks": 68928,
          "time": 97.908993,
          "velocity": 0.3937007874015748
        },
        {
          "duration": 0.13636350000000164,
          "durationTicks": 96,
          "midi": 88,
          "name": "E6",
          "ticks": 69024,
          "time": 98.0453565,
          "velocity": 0.3937007874015748
        },
        {
          "duration": 0.13636350000000164,
          "durationTicks": 96,
          "midi": 69,
          "name": "A4",
          "ticks": 69024,
          "time": 98.0453565,
          "velocity": 0.3937007874015748
        },
        {
          "duration": 0.13636350000000164,
          "durationTicks": 96,
          "midi": 80,
          "name": "G#5",
          "ticks": 69216,
          "time": 98.3180835,
          "velocity": 0.3937007874015748
        },
        {
          "duration": 0.13636350000000164,
          "durationTicks": 96,
          "midi": 69,
          "name": "A4",
          "ticks": 69312,
          "time": 98.454447,
          "velocity": 0.3937007874015748
        },
        {
          "duration": 0.13636350000000164,
          "durationTicks": 96,
          "midi": 80,
          "name": "G#5",
          "ticks": 69408,
          "time": 98.5908105,
          "velocity": 0.3937007874015748
        },
        {
          "duration": 0.13636349999998743,
          "durationTicks": 96,
          "midi": 90,
          "name": "F#6",
          "ticks": 69504,
          "time": 98.727174,
          "velocity": 0.3937007874015748
        },
        {
          "duration": 0.13636350000000164,
          "durationTicks": 96,
          "midi": 69,
          "name": "A4",
          "ticks": 69600,
          "time": 98.86353749999999,
          "velocity": 0.3937007874015748
        },
        {
          "duration": 0.13636350000000164,
          "durationTicks": 96,
          "midi": 88,
          "name": "E6",
          "ticks": 69600,
          "time": 98.86353749999999,
          "velocity": 0.3937007874015748
        },
        {
          "duration": 0.13636350000000164,
          "durationTicks": 96,
          "midi": 90,
          "name": "F#6",
          "ticks": 69696,
          "time": 98.999901,
          "velocity": 0.3937007874015748
        },
        {
          "duration": 0.13636350000000164,
          "durationTicks": 96,
          "midi": 68,
          "name": "G#4",
          "ticks": 69792,
          "time": 99.1362645,
          "velocity": 0.3937007874015748
        },
        {
          "duration": 0.13636350000000164,
          "durationTicks": 96,
          "midi": 80,
          "name": "G#5",
          "ticks": 69792,
          "time": 99.1362645,
          "velocity": 0.3937007874015748
        },
        {
          "duration": 0.13636350000000164,
          "durationTicks": 96,
          "midi": 81,
          "name": "A5",
          "ticks": 69888,
          "time": 99.272628,
          "velocity": 0.3937007874015748
        },
        {
          "duration": 0.13636350000000164,
          "durationTicks": 96,
          "midi": 68,
          "name": "G#4",
          "ticks": 69984,
          "time": 99.4089915,
          "velocity": 0.3937007874015748
        },
        {
          "duration": 0.13636350000000164,
          "durationTicks": 96,
          "midi": 80,
          "name": "G#5",
          "ticks": 69984,
          "time": 99.4089915,
          "velocity": 0.3937007874015748
        },
        {
          "duration": 0.13636350000000164,
          "durationTicks": 96,
          "midi": 88,
          "name": "E6",
          "ticks": 70080,
          "time": 99.545355,
          "velocity": 0.3937007874015748
        },
        {
          "duration": 0.13636350000000164,
          "durationTicks": 96,
          "midi": 73,
          "name": "C#5",
          "ticks": 70176,
          "time": 99.6817185,
          "velocity": 0.3937007874015748
        },
        {
          "duration": 0.13636349999998743,
          "durationTicks": 96,
          "midi": 73,
          "name": "C#5",
          "ticks": 70368,
          "time": 99.9544455,
          "velocity": 0.3937007874015748
        },
        {
          "duration": 0.13636350000000164,
          "durationTicks": 96,
          "midi": 66,
          "name": "F#4",
          "ticks": 70560,
          "time": 100.2271725,
          "velocity": 0.3937007874015748
        },
        {
          "duration": 0.13636350000000164,
          "durationTicks": 96,
          "midi": 88,
          "name": "E6",
          "ticks": 70752,
          "time": 100.4998995,
          "velocity": 0.3937007874015748
        },
        {
          "duration": 0.13636350000000164,
          "durationTicks": 96,
          "midi": 66,
          "name": "F#4",
          "ticks": 70848,
          "time": 100.636263,
          "velocity": 0.3937007874015748
        },
        {
          "duration": 0.13636350000000164,
          "durationTicks": 96,
          "midi": 88,
          "name": "E6",
          "ticks": 70944,
          "time": 100.7726265,
          "velocity": 0.3937007874015748
        },
        {
          "duration": 0.13636350000000164,
          "durationTicks": 96,
          "midi": 88,
          "name": "E6",
          "ticks": 71040,
          "time": 100.90899,
          "velocity": 0.3937007874015748
        },
        {
          "duration": 0.13636349999998743,
          "durationTicks": 96,
          "midi": 66,
          "name": "F#4",
          "ticks": 71136,
          "time": 101.0453535,
          "velocity": 0.3937007874015748
        },
        {
          "duration": 0.13636349999998743,
          "durationTicks": 96,
          "midi": 85,
          "name": "C#6",
          "ticks": 71136,
          "time": 101.0453535,
          "velocity": 0.3937007874015748
        },
        {
          "duration": 0.13636350000000164,
          "durationTicks": 96,
          "midi": 85,
          "name": "C#6",
          "ticks": 71232,
          "time": 101.18171699999999,
          "velocity": 0.3937007874015748
        },
        {
          "duration": 0.13636350000000164,
          "durationTicks": 96,
          "midi": 67,
          "name": "G4",
          "ticks": 71328,
          "time": 101.3180805,
          "velocity": 0.3937007874015748
        },
        {
          "duration": 0.13636350000000164,
          "durationTicks": 96,
          "midi": 88,
          "name": "E6",
          "ticks": 71424,
          "time": 101.454444,
          "velocity": 0.3937007874015748
        },
        {
          "duration": 0.13636350000000164,
          "durationTicks": 96,
          "midi": 88,
          "name": "E6",
          "ticks": 71520,
          "time": 101.5908075,
          "velocity": 0.3937007874015748
        },
        {
          "duration": 0.13636350000000164,
          "durationTicks": 96,
          "midi": 88,
          "name": "E6",
          "ticks": 71616,
          "time": 101.727171,
          "velocity": 0.3937007874015748
        },
        {
          "duration": 0.13636350000000164,
          "durationTicks": 96,
          "midi": 67,
          "name": "G4",
          "ticks": 71616,
          "time": 101.727171,
          "velocity": 0.3937007874015748
        },
        {
          "duration": 0.13636350000000164,
          "durationTicks": 96,
          "midi": 88,
          "name": "E6",
          "ticks": 71712,
          "time": 101.8635345,
          "velocity": 0.3937007874015748
        },
        {
          "duration": 0.13636350000000164,
          "durationTicks": 96,
          "midi": 88,
          "name": "E6",
          "ticks": 71808,
          "time": 101.999898,
          "velocity": 0.3937007874015748
        },
        {
          "duration": 0.13636350000000164,
          "durationTicks": 96,
          "midi": 67,
          "name": "G4",
          "ticks": 71904,
          "time": 102.1362615,
          "velocity": 0.3937007874015748
        },
        {
          "duration": 0.13636350000000164,
          "durationTicks": 96,
          "midi": 85,
          "name": "C#6",
          "ticks": 71904,
          "time": 102.1362615,
          "velocity": 0.3937007874015748
        },
        {
          "duration": 0.13636349999998743,
          "durationTicks": 96,
          "midi": 85,
          "name": "C#6",
          "ticks": 72000,
          "time": 102.272625,
          "velocity": 0.3937007874015748
        },
        {
          "duration": 0.13636350000000164,
          "durationTicks": 96,
          "midi": 68,
          "name": "G#4",
          "ticks": 72096,
          "time": 102.40898849999999,
          "velocity": 0.3937007874015748
        },
        {
          "duration": 0.13636350000000164,
          "durationTicks": 96,
          "midi": 88,
          "name": "E6",
          "ticks": 72288,
          "time": 102.6817155,
          "velocity": 0.3937007874015748
        },
        {
          "duration": 0.13636350000000164,
          "durationTicks": 96,
          "midi": 68,
          "name": "G#4",
          "ticks": 72384,
          "time": 102.818079,
          "velocity": 0.3937007874015748
        },
        {
          "duration": 0.13636350000000164,
          "durationTicks": 96,
          "midi": 88,
          "name": "E6",
          "ticks": 72384,
          "time": 102.818079,
          "velocity": 0.3937007874015748
        },
        {
          "duration": 0.13636350000000164,
          "durationTicks": 96,
          "midi": 88,
          "name": "E6",
          "ticks": 72480,
          "time": 102.9544425,
          "velocity": 0.3937007874015748
        },
        {
          "duration": 0.13636350000000164,
          "durationTicks": 96,
          "midi": 85,
          "name": "C#6",
          "ticks": 72576,
          "time": 103.090806,
          "velocity": 0.3937007874015748
        },
        {
          "duration": 0.13636350000000164,
          "durationTicks": 96,
          "midi": 68,
          "name": "G#4",
          "ticks": 72672,
          "time": 103.2271695,
          "velocity": 0.3937007874015748
        },
        {
          "duration": 0.13636350000000164,
          "durationTicks": 96,
          "midi": 88,
          "name": "E6",
          "ticks": 72672,
          "time": 103.2271695,
          "velocity": 0.3937007874015748
        },
        {
          "duration": 0.13636350000000164,
          "durationTicks": 96,
          "midi": 90,
          "name": "F#6",
          "ticks": 72768,
          "time": 103.363533,
          "velocity": 0.3937007874015748
        },
        {
          "duration": 0.13636349999998743,
          "durationTicks": 96,
          "midi": 72,
          "name": "C5",
          "ticks": 72864,
          "time": 103.4998965,
          "velocity": 0.3937007874015748
        },
        {
          "duration": 0.13636349999998743,
          "durationTicks": 96,
          "midi": 87,
          "name": "D#6",
          "ticks": 72864,
          "time": 103.4998965,
          "velocity": 0.3937007874015748
        },
        {
          "duration": 0.13636350000000164,
          "durationTicks": 96,
          "midi": 72,
          "name": "C5",
          "ticks": 73056,
          "time": 103.7726235,
          "velocity": 0.3937007874015748
        },
        {
          "duration": 0.13636350000000164,
          "durationTicks": 96,
          "midi": 85,
          "name": "C#6",
          "ticks": 73056,
          "time": 103.7726235,
          "velocity": 0.3937007874015748
        },
        {
          "duration": 0.13636350000000164,
          "durationTicks": 96,
          "midi": 88,
          "name": "E6",
          "ticks": 73248,
          "time": 104.0453505,
          "velocity": 0.3937007874015748
        },
        {
          "duration": 0.13636350000000164,
          "durationTicks": 96,
          "midi": 75,
          "name": "D#5",
          "ticks": 73248,
          "time": 104.0453505,
          "velocity": 0.3937007874015748
        },
        {
          "duration": 0.13636350000000164,
          "durationTicks": 96,
          "midi": 87,
          "name": "D#6",
          "ticks": 73344,
          "time": 104.181714,
          "velocity": 0.3937007874015748
        },
        {
          "duration": 0.13636350000000164,
          "durationTicks": 96,
          "midi": 68,
          "name": "G#4",
          "ticks": 73440,
          "time": 104.3180775,
          "velocity": 0.3937007874015748
        },
        {
          "duration": 0.13636350000000164,
          "durationTicks": 96,
          "midi": 73,
          "name": "C#5",
          "ticks": 73632,
          "time": 104.5908045,
          "velocity": 0.3937007874015748
        },
        {
          "duration": 0.13636350000000164,
          "durationTicks": 96,
          "midi": 80,
          "name": "G#5",
          "ticks": 73824,
          "time": 104.8635315,
          "velocity": 0.3937007874015748
        },
        {
          "duration": 0.13636350000000164,
          "durationTicks": 96,
          "midi": 73,
          "name": "C#5",
          "ticks": 73920,
          "time": 104.999895,
          "velocity": 0.3937007874015748
        },
        {
          "duration": 0.13636350000000164,
          "durationTicks": 96,
          "midi": 80,
          "name": "G#5",
          "ticks": 74016,
          "time": 105.1362585,
          "velocity": 0.3937007874015748
        },
        {
          "duration": 0.13636350000000164,
          "durationTicks": 96,
          "midi": 90,
          "name": "F#6",
          "ticks": 74112,
          "time": 105.272622,
          "velocity": 0.3937007874015748
        },
        {
          "duration": 0.13636350000000164,
          "durationTicks": 96,
          "midi": 88,
          "name": "E6",
          "ticks": 74208,
          "time": 105.4089855,
          "velocity": 0.3937007874015748
        },
        {
          "duration": 0.13636350000000164,
          "durationTicks": 96,
          "midi": 73,
          "name": "C#5",
          "ticks": 74208,
          "time": 105.4089855,
          "velocity": 0.3937007874015748
        },
        {
          "duration": 0.13636350000000164,
          "durationTicks": 96,
          "midi": 90,
          "name": "F#6",
          "ticks": 74304,
          "time": 105.545349,
          "velocity": 0.3937007874015748
        },
        {
          "duration": 0.13636350000000164,
          "durationTicks": 96,
          "midi": 88,
          "name": "E6",
          "ticks": 74400,
          "time": 105.6817125,
          "velocity": 0.3937007874015748
        },
        {
          "duration": 0.13636350000000164,
          "durationTicks": 96,
          "midi": 76,
          "name": "E5",
          "ticks": 74400,
          "time": 105.6817125,
          "velocity": 0.3937007874015748
        },
        {
          "duration": 0.13636350000000164,
          "durationTicks": 96,
          "midi": 80,
          "name": "G#5",
          "ticks": 74592,
          "time": 105.95443949999999,
          "velocity": 0.3937007874015748
        },
        {
          "duration": 0.13636350000000164,
          "durationTicks": 96,
          "midi": 76,
          "name": "E5",
          "ticks": 74688,
          "time": 106.090803,
          "velocity": 0.3937007874015748
        },
        {
          "duration": 0.13636350000000164,
          "durationTicks": 96,
          "midi": 80,
          "name": "G#5",
          "ticks": 74688,
          "time": 106.090803,
          "velocity": 0.3937007874015748
        },
        {
          "duration": 0.13636350000000164,
          "durationTicks": 96,
          "midi": 80,
          "name": "G#5",
          "ticks": 74784,
          "time": 106.2271665,
          "velocity": 0.3937007874015748
        },
        {
          "duration": 0.13636350000000164,
          "durationTicks": 96,
          "midi": 90,
          "name": "F#6",
          "ticks": 74880,
          "time": 106.36353,
          "velocity": 0.3937007874015748
        },
        {
          "duration": 0.13636350000000164,
          "durationTicks": 96,
          "midi": 76,
          "name": "E5",
          "ticks": 74976,
          "time": 106.4998935,
          "velocity": 0.3937007874015748
        },
        {
          "duration": 0.13636350000000164,
          "durationTicks": 96,
          "midi": 88,
          "name": "E6",
          "ticks": 74976,
          "time": 106.4998935,
          "velocity": 0.3937007874015748
        },
        {
          "duration": 0.13636350000000164,
          "durationTicks": 96,
          "midi": 90,
          "name": "F#6",
          "ticks": 75072,
          "time": 106.636257,
          "velocity": 0.3937007874015748
        },
        {
          "duration": 0.13636350000000164,
          "durationTicks": 96,
          "midi": 88,
          "name": "E6",
          "ticks": 75168,
          "time": 106.7726205,
          "velocity": 0.3937007874015748
        },
        {
          "duration": 0.13636350000000164,
          "durationTicks": 96,
          "midi": 69,
          "name": "A4",
          "ticks": 75168,
          "time": 106.7726205,
          "velocity": 0.3937007874015748
        },
        {
          "duration": 0.13636349999998743,
          "durationTicks": 96,
          "midi": 80,
          "name": "G#5",
          "ticks": 75360,
          "time": 107.0453475,
          "velocity": 0.3937007874015748
        },
        {
          "duration": 0.13636350000000164,
          "durationTicks": 96,
          "midi": 69,
          "name": "A4",
          "ticks": 75456,
          "time": 107.18171099999999,
          "velocity": 0.3937007874015748
        },
        {
          "duration": 0.13636350000000164,
          "durationTicks": 96,
          "midi": 80,
          "name": "G#5",
          "ticks": 75552,
          "time": 107.3180745,
          "velocity": 0.3937007874015748
        },
        {
          "duration": 0.13636350000000164,
          "durationTicks": 96,
          "midi": 90,
          "name": "F#6",
          "ticks": 75648,
          "time": 107.454438,
          "velocity": 0.3937007874015748
        },
        {
          "duration": 0.13636350000000164,
          "durationTicks": 96,
          "midi": 69,
          "name": "A4",
          "ticks": 75744,
          "time": 107.5908015,
          "velocity": 0.3937007874015748
        },
        {
          "duration": 0.13636350000000164,
          "durationTicks": 96,
          "midi": 88,
          "name": "E6",
          "ticks": 75744,
          "time": 107.5908015,
          "velocity": 0.3937007874015748
        },
        {
          "duration": 0.13636350000000164,
          "durationTicks": 96,
          "midi": 90,
          "name": "F#6",
          "ticks": 75840,
          "time": 107.727165,
          "velocity": 0.3937007874015748
        },
        {
          "duration": 0.13636350000000164,
          "durationTicks": 96,
          "midi": 68,
          "name": "G#4",
          "ticks": 75936,
          "time": 107.8635285,
          "velocity": 0.3937007874015748
        },
        {
          "duration": 0.13636350000000164,
          "durationTicks": 96,
          "midi": 80,
          "name": "G#5",
          "ticks": 75936,
          "time": 107.8635285,
          "velocity": 0.3937007874015748
        },
        {
          "duration": 0.13636350000000164,
          "durationTicks": 96,
          "midi": 81,
          "name": "A5",
          "ticks": 76032,
          "time": 107.999892,
          "velocity": 0.3937007874015748
        },
        {
          "duration": 0.13636350000000164,
          "durationTicks": 96,
          "midi": 68,
          "name": "G#4",
          "ticks": 76128,
          "time": 108.1362555,
          "velocity": 0.3937007874015748
        },
        {
          "duration": 0.13636350000000164,
          "durationTicks": 96,
          "midi": 80,
          "name": "G#5",
          "ticks": 76128,
          "time": 108.1362555,
          "velocity": 0.3937007874015748
        },
        {
          "duration": 0.13636349999998743,
          "durationTicks": 96,
          "midi": 88,
          "name": "E6",
          "ticks": 76224,
          "time": 108.272619,
          "velocity": 0.3937007874015748
        },
        {
          "duration": 0.13636350000000164,
          "durationTicks": 96,
          "midi": 76,
          "name": "E5",
          "ticks": 76320,
          "time": 108.4089825,
          "velocity": 0.3937007874015748
        },
        {
          "duration": 0.13636350000000164,
          "durationTicks": 96,
          "midi": 76,
          "name": "E5",
          "ticks": 76512,
          "time": 108.6817095,
          "velocity": 0.3937007874015748
        },
        {
          "duration": 0.13636350000000164,
          "durationTicks": 96,
          "midi": 66,
          "name": "F#4",
          "ticks": 76704,
          "time": 108.9544365,
          "velocity": 0.3937007874015748
        },
        {
          "duration": 0.13636350000000164,
          "durationTicks": 96,
          "midi": 88,
          "name": "E6",
          "ticks": 76896,
          "time": 109.2271635,
          "velocity": 0.3937007874015748
        },
        {
          "duration": 0.13636349999998743,
          "durationTicks": 96,
          "midi": 66,
          "name": "F#4",
          "ticks": 76992,
          "time": 109.363527,
          "velocity": 0.3937007874015748
        },
        {
          "duration": 0.13636350000000164,
          "durationTicks": 96,
          "midi": 88,
          "name": "E6",
          "ticks": 77088,
          "time": 109.49989049999999,
          "velocity": 0.3937007874015748
        },
        {
          "duration": 0.13636350000000164,
          "durationTicks": 96,
          "midi": 88,
          "name": "E6",
          "ticks": 77184,
          "time": 109.636254,
          "velocity": 0.3937007874015748
        },
        {
          "duration": 0.13636350000000164,
          "durationTicks": 96,
          "midi": 85,
          "name": "C#6",
          "ticks": 77280,
          "time": 109.7726175,
          "velocity": 0.3937007874015748
        },
        {
          "duration": 0.13636350000000164,
          "durationTicks": 96,
          "midi": 66,
          "name": "F#4",
          "ticks": 77280,
          "time": 109.7726175,
          "velocity": 0.3937007874015748
        },
        {
          "duration": 0.13636350000000164,
          "durationTicks": 96,
          "midi": 85,
          "name": "C#6",
          "ticks": 77376,
          "time": 109.908981,
          "velocity": 0.3937007874015748
        },
        {
          "duration": 0.13636350000000164,
          "durationTicks": 96,
          "midi": 67,
          "name": "G4",
          "ticks": 77472,
          "time": 110.0453445,
          "velocity": 0.3937007874015748
        },
        {
          "duration": 0.13636350000000164,
          "durationTicks": 96,
          "midi": 88,
          "name": "E6",
          "ticks": 77568,
          "time": 110.181708,
          "velocity": 0.3937007874015748
        },
        {
          "duration": 0.13636350000000164,
          "durationTicks": 96,
          "midi": 88,
          "name": "E6",
          "ticks": 77664,
          "time": 110.3180715,
          "velocity": 0.3937007874015748
        },
        {
          "duration": 0.13636350000000164,
          "durationTicks": 96,
          "midi": 67,
          "name": "G4",
          "ticks": 77760,
          "time": 110.454435,
          "velocity": 0.3937007874015748
        },
        {
          "duration": 0.13636350000000164,
          "durationTicks": 96,
          "midi": 88,
          "name": "E6",
          "ticks": 77760,
          "time": 110.454435,
          "velocity": 0.3937007874015748
        },
        {
          "duration": 0.13636349999998743,
          "durationTicks": 96,
          "midi": 88,
          "name": "E6",
          "ticks": 77856,
          "time": 110.5907985,
          "velocity": 0.3937007874015748
        },
        {
          "duration": 0.13636350000000164,
          "durationTicks": 96,
          "midi": 88,
          "name": "E6",
          "ticks": 77952,
          "time": 110.72716199999999,
          "velocity": 0.3937007874015748
        },
        {
          "duration": 0.13636350000000164,
          "durationTicks": 96,
          "midi": 85,
          "name": "C#6",
          "ticks": 78048,
          "time": 110.8635255,
          "velocity": 0.3937007874015748
        },
        {
          "duration": 0.13636350000000164,
          "durationTicks": 96,
          "midi": 67,
          "name": "G4",
          "ticks": 78048,
          "time": 110.8635255,
          "velocity": 0.3937007874015748
        },
        {
          "duration": 0.13636350000000164,
          "durationTicks": 96,
          "midi": 85,
          "name": "C#6",
          "ticks": 78144,
          "time": 110.999889,
          "velocity": 0.3937007874015748
        },
        {
          "duration": 0.13636350000000164,
          "durationTicks": 96,
          "midi": 68,
          "name": "G#4",
          "ticks": 78240,
          "time": 111.1362525,
          "velocity": 0.3937007874015748
        },
        {
          "duration": 0.13636350000000164,
          "durationTicks": 96,
          "midi": 88,
          "name": "E6",
          "ticks": 78432,
          "time": 111.4089795,
          "velocity": 0.3937007874015748
        },
        {
          "duration": 0.13636350000000164,
          "durationTicks": 96,
          "midi": 88,
          "name": "E6",
          "ticks": 78528,
          "time": 111.545343,
          "velocity": 0.3937007874015748
        },
        {
          "duration": 0.13636350000000164,
          "durationTicks": 96,
          "midi": 68,
          "name": "G#4",
          "ticks": 78528,
          "time": 111.545343,
          "velocity": 0.3937007874015748
        },
        {
          "duration": 0.13636350000000164,
          "durationTicks": 96,
          "midi": 88,
          "name": "E6",
          "ticks": 78624,
          "time": 111.6817065,
          "velocity": 0.3937007874015748
        },
        {
          "duration": 0.13636349999998743,
          "durationTicks": 96,
          "midi": 85,
          "name": "C#6",
          "ticks": 78720,
          "time": 111.81807,
          "velocity": 0.3937007874015748
        },
        {
          "duration": 0.13636350000000164,
          "durationTicks": 96,
          "midi": 68,
          "name": "G#4",
          "ticks": 78816,
          "time": 111.9544335,
          "velocity": 0.3937007874015748
        },
        {
          "duration": 0.13636350000000164,
          "durationTicks": 96,
          "midi": 88,
          "name": "E6",
          "ticks": 78816,
          "time": 111.9544335,
          "velocity": 0.3937007874015748
        },
        {
          "duration": 0.13636350000000164,
          "durationTicks": 96,
          "midi": 90,
          "name": "F#6",
          "ticks": 78912,
          "time": 112.090797,
          "velocity": 0.3937007874015748
        },
        {
          "duration": 0.13636350000000164,
          "durationTicks": 96,
          "midi": 87,
          "name": "D#6",
          "ticks": 79008,
          "time": 112.2271605,
          "velocity": 0.3937007874015748
        },
        {
          "duration": 0.13636350000000164,
          "durationTicks": 96,
          "midi": 68,
          "name": "G#4",
          "ticks": 79008,
          "time": 112.2271605,
          "velocity": 0.3937007874015748
        },
        {
          "duration": 0.13636350000000164,
          "durationTicks": 96,
          "midi": 80,
          "name": "G#5",
          "ticks": 79200,
          "time": 112.4998875,
          "velocity": 0.3937007874015748
        },
        {
          "duration": 0.13636350000000164,
          "durationTicks": 96,
          "midi": 80,
          "name": "G#5",
          "ticks": 79392,
          "time": 112.7726145,
          "velocity": 0.3937007874015748
        },
        {
          "duration": 0.13636350000000164,
          "durationTicks": 96,
          "midi": 81,
          "name": "A5",
          "ticks": 79584,
          "time": 113.04534149999999,
          "velocity": 0.3937007874015748
        },
        {
          "duration": 0.13636350000000164,
          "durationTicks": 96,
          "midi": 78,
          "name": "F#5",
          "ticks": 79776,
          "time": 113.3180685,
          "velocity": 0.3937007874015748
        },
        {
          "duration": 0.13636350000000164,
          "durationTicks": 96,
          "midi": 73,
          "name": "C#5",
          "ticks": 79776,
          "time": 113.3180685,
          "velocity": 0.3937007874015748
        },
        {
          "duration": 0.13636350000000164,
          "durationTicks": 96,
          "midi": 90,
          "name": "F#6",
          "ticks": 79776,
          "time": 113.3180685,
          "velocity": 0.3937007874015748
        },
        {
          "duration": 0.13636350000000164,
          "durationTicks": 96,
          "midi": 76,
          "name": "E5",
          "ticks": 79968,
          "time": 113.5907955,
          "velocity": 0.3937007874015748
        },
        {
          "duration": 0.13636350000000164,
          "durationTicks": 96,
          "midi": 73,
          "name": "C#5",
          "ticks": 79968,
          "time": 113.5907955,
          "velocity": 0.3937007874015748
        },
        {
          "duration": 0.13636350000000164,
          "durationTicks": 96,
          "midi": 73,
          "name": "C#5",
          "ticks": 80160,
          "time": 113.8635225,
          "velocity": 0.3937007874015748
        },
        {
          "duration": 0.13636350000000164,
          "durationTicks": 96,
          "midi": 76,
          "name": "E5",
          "ticks": 80160,
          "time": 113.8635225,
          "velocity": 0.3937007874015748
        },
        {
          "duration": 0.13636350000000164,
          "durationTicks": 96,
          "midi": 88,
          "name": "E6",
          "ticks": 80160,
          "time": 113.8635225,
          "velocity": 0.3937007874015748
        },
        {
          "duration": 0.13636349999998743,
          "durationTicks": 96,
          "midi": 73,
          "name": "C#5",
          "ticks": 80352,
          "time": 114.1362495,
          "velocity": 0.3937007874015748
        },
        {
          "duration": 0.13636349999998743,
          "durationTicks": 96,
          "midi": 76,
          "name": "E5",
          "ticks": 80352,
          "time": 114.1362495,
          "velocity": 0.3937007874015748
        },
        {
          "duration": 0.13636350000000164,
          "durationTicks": 96,
          "midi": 76,
          "name": "E5",
          "ticks": 80544,
          "time": 114.4089765,
          "velocity": 0.3937007874015748
        },
        {
          "duration": 0.13636350000000164,
          "durationTicks": 96,
          "midi": 76,
          "name": "E5",
          "ticks": 80736,
          "time": 114.6817035,
          "velocity": 0.3937007874015748
        },
        {
          "duration": 0.13636350000000164,
          "durationTicks": 96,
          "midi": 68,
          "name": "G#4",
          "ticks": 80736,
          "time": 114.6817035,
          "velocity": 0.3937007874015748
        },
        {
          "duration": 0.13636350000000164,
          "durationTicks": 96,
          "midi": 76,
          "name": "E5",
          "ticks": 80928,
          "time": 114.9544305,
          "velocity": 0.3937007874015748
        },
        {
          "duration": 0.13636350000000164,
          "durationTicks": 96,
          "midi": 76,
          "name": "E5",
          "ticks": 81120,
          "time": 115.2271575,
          "velocity": 0.3937007874015748
        },
        {
          "duration": 0.13636350000000164,
          "durationTicks": 96,
          "midi": 68,
          "name": "G#4",
          "ticks": 81120,
          "time": 115.2271575,
          "velocity": 0.3937007874015748
        },
        {
          "duration": 0.13636349999998743,
          "durationTicks": 96,
          "midi": 88,
          "name": "E6",
          "ticks": 81216,
          "time": 115.363521,
          "velocity": 0.3937007874015748
        },
        {
          "duration": 0.13636350000000164,
          "durationTicks": 96,
          "midi": 88,
          "name": "E6",
          "ticks": 81312,
          "time": 115.4998845,
          "velocity": 0.3937007874015748
        },
        {
          "duration": 0.13636350000000164,
          "durationTicks": 96,
          "midi": 69,
          "name": "A4",
          "ticks": 81312,
          "time": 115.4998845,
          "velocity": 0.3937007874015748
        },
        {
          "duration": 0.13636350000000164,
          "durationTicks": 96,
          "midi": 69,
          "name": "A4",
          "ticks": 81504,
          "time": 115.7726115,
          "velocity": 0.3937007874015748
        },
        {
          "duration": 0.13636350000000164,
          "durationTicks": 96,
          "midi": 88,
          "name": "E6",
          "ticks": 81504,
          "time": 115.7726115,
          "velocity": 0.3937007874015748
        },
        {
          "duration": 0.13636350000000164,
          "durationTicks": 96,
          "midi": 73,
          "name": "C#5",
          "ticks": 81504,
          "time": 115.7726115,
          "velocity": 0.3937007874015748
        },
        {
          "duration": 0.13636350000000164,
          "durationTicks": 96,
          "midi": 88,
          "name": "E6",
          "ticks": 81600,
          "time": 115.908975,
          "velocity": 0.3937007874015748
        },
        {
          "duration": 0.13636350000000164,
          "durationTicks": 96,
          "midi": 88,
          "name": "E6",
          "ticks": 81696,
          "time": 116.0453385,
          "velocity": 0.3937007874015748
        },
        {
          "duration": 0.13636350000000164,
          "durationTicks": 96,
          "midi": 90,
          "name": "F#6",
          "ticks": 81792,
          "time": 116.181702,
          "velocity": 0.3937007874015748
        },
        {
          "duration": 0.13636350000000164,
          "durationTicks": 96,
          "midi": 69,
          "name": "A4",
          "ticks": 81888,
          "time": 116.3180655,
          "velocity": 0.3937007874015748
        },
        {
          "duration": 0.13636350000000164,
          "durationTicks": 96,
          "midi": 73,
          "name": "C#5",
          "ticks": 81888,
          "time": 116.3180655,
          "velocity": 0.3937007874015748
        },
        {
          "duration": 0.13636349999998743,
          "durationTicks": 96,
          "midi": 80,
          "name": "G#5",
          "ticks": 81984,
          "time": 116.454429,
          "velocity": 0.3937007874015748
        },
        {
          "duration": 0.13636350000000164,
          "durationTicks": 96,
          "midi": 68,
          "name": "G#4",
          "ticks": 82080,
          "time": 116.59079249999999,
          "velocity": 0.3937007874015748
        },
        {
          "duration": 0.13636350000000164,
          "durationTicks": 96,
          "midi": 68,
          "name": "G#4",
          "ticks": 82272,
          "time": 116.8635195,
          "velocity": 0.3937007874015748
        },
        {
          "duration": 0.13636350000000164,
          "durationTicks": 96,
          "midi": 75,
          "name": "D#5",
          "ticks": 82272,
          "time": 116.8635195,
          "velocity": 0.3937007874015748
        },
        {
          "duration": 0.13636350000000164,
          "durationTicks": 96,
          "midi": 80,
          "name": "G#5",
          "ticks": 82272,
          "time": 116.8635195,
          "velocity": 0.3937007874015748
        },
        {
          "duration": 0.13636350000000164,
          "durationTicks": 96,
          "midi": 80,
          "name": "G#5",
          "ticks": 82464,
          "time": 117.1362465,
          "velocity": 0.3937007874015748
        },
        {
          "duration": 0.13636350000000164,
          "durationTicks": 96,
          "midi": 76,
          "name": "E5",
          "ticks": 82464,
          "time": 117.1362465,
          "velocity": 0.3937007874015748
        },
        {
          "duration": 0.13636350000000164,
          "durationTicks": 96,
          "midi": 76,
          "name": "E5",
          "ticks": 82656,
          "time": 117.4089735,
          "velocity": 0.3937007874015748
        },
        {
          "duration": 0.13636350000000164,
          "durationTicks": 96,
          "midi": 81,
          "name": "A5",
          "ticks": 82656,
          "time": 117.4089735,
          "velocity": 0.3937007874015748
        },
        {
          "duration": 0.13636350000000164,
          "durationTicks": 96,
          "midi": 68,
          "name": "G#4",
          "ticks": 82656,
          "time": 117.4089735,
          "velocity": 0.3937007874015748
        },
        {
          "duration": 0.13636349999998743,
          "durationTicks": 96,
          "midi": 90,
          "name": "F#6",
          "ticks": 82848,
          "time": 117.6817005,
          "velocity": 0.3937007874015748
        },
        {
          "duration": 0.13636349999998743,
          "durationTicks": 96,
          "midi": 78,
          "name": "F#5",
          "ticks": 82848,
          "time": 117.6817005,
          "velocity": 0.3937007874015748
        },
        {
          "duration": 0.13636349999998743,
          "durationTicks": 96,
          "midi": 69,
          "name": "A4",
          "ticks": 82848,
          "time": 117.6817005,
          "velocity": 0.3937007874015748
        },
        {
          "duration": 0.13636350000000164,
          "durationTicks": 96,
          "midi": 69,
          "name": "A4",
          "ticks": 83040,
          "time": 117.9544275,
          "velocity": 0.3937007874015748
        },
        {
          "duration": 0.13636350000000164,
          "durationTicks": 96,
          "midi": 66,
          "name": "F#4",
          "ticks": 83040,
          "time": 117.9544275,
          "velocity": 0.3937007874015748
        },
        {
          "duration": 0.13636350000000164,
          "durationTicks": 96,
          "midi": 76,
          "name": "E5",
          "ticks": 83232,
          "time": 118.2271545,
          "velocity": 0.3937007874015748
        },
        {
          "duration": 0.13636350000000164,
          "durationTicks": 96,
          "midi": 69,
          "name": "A4",
          "ticks": 83232,
          "time": 118.2271545,
          "velocity": 0.3937007874015748
        },
        {
          "duration": 0.13636350000000164,
          "durationTicks": 96,
          "midi": 88,
          "name": "E6",
          "ticks": 83232,
          "time": 118.2271545,
          "velocity": 0.3937007874015748
        },
        {
          "duration": 0.13636350000000164,
          "durationTicks": 96,
          "midi": 66,
          "name": "F#4",
          "ticks": 83424,
          "time": 118.4998815,
          "velocity": 0.3937007874015748
        },
        {
          "duration": 0.13636350000000164,
          "durationTicks": 96,
          "midi": 69,
          "name": "A4",
          "ticks": 83424,
          "time": 118.4998815,
          "velocity": 0.3937007874015748
        },
        {
          "duration": 0.13636350000000164,
          "durationTicks": 96,
          "midi": 67,
          "name": "G4",
          "ticks": 83616,
          "time": 118.7726085,
          "velocity": 0.3937007874015748
        },
        {
          "duration": 0.13636350000000164,
          "durationTicks": 96,
          "midi": 67,
          "name": "G4",
          "ticks": 83808,
          "time": 119.0453355,
          "velocity": 0.3937007874015748
        },
        {
          "duration": 0.13636350000000164,
          "durationTicks": 96,
          "midi": 74,
          "name": "D5",
          "ticks": 83808,
          "time": 119.0453355,
          "velocity": 0.3937007874015748
        },
        {
          "duration": 0.13636350000000164,
          "durationTicks": 96,
          "midi": 67,
          "name": "G4",
          "ticks": 84000,
          "time": 119.3180625,
          "velocity": 0.3937007874015748
        },
        {
          "duration": 0.13636350000000164,
          "durationTicks": 96,
          "midi": 74,
          "name": "D5",
          "ticks": 84192,
          "time": 119.5907895,
          "velocity": 0.3937007874015748
        },
        {
          "duration": 0.13636350000000164,
          "durationTicks": 96,
          "midi": 67,
          "name": "G4",
          "ticks": 84192,
          "time": 119.5907895,
          "velocity": 0.3937007874015748
        },
        {
          "duration": 0.13636350000000164,
          "durationTicks": 96,
          "midi": 68,
          "name": "G#4",
          "ticks": 84384,
          "time": 119.8635165,
          "velocity": 0.3937007874015748
        },
        {
          "duration": 0.13636350000000164,
          "durationTicks": 96,
          "midi": 88,
          "name": "E6",
          "ticks": 84384,
          "time": 119.8635165,
          "velocity": 0.3937007874015748
        },
        {
          "duration": 0.13636350000000164,
          "durationTicks": 96,
          "midi": 75,
          "name": "D#5",
          "ticks": 84576,
          "time": 120.13624349999999,
          "velocity": 0.3937007874015748
        },
        {
          "duration": 0.13636350000000164,
          "durationTicks": 96,
          "midi": 88,
          "name": "E6",
          "ticks": 84576,
          "time": 120.13624349999999,
          "velocity": 0.3937007874015748
        },
        {
          "duration": 0.13636350000000164,
          "durationTicks": 96,
          "midi": 68,
          "name": "G#4",
          "ticks": 84576,
          "time": 120.13624349999999,
          "velocity": 0.3937007874015748
        },
        {
          "duration": 0.13636350000000164,
          "durationTicks": 96,
          "midi": 88,
          "name": "E6",
          "ticks": 84672,
          "time": 120.272607,
          "velocity": 0.3937007874015748
        },
        {
          "duration": 0.13636350000000164,
          "durationTicks": 96,
          "midi": 88,
          "name": "E6",
          "ticks": 84768,
          "time": 120.4089705,
          "velocity": 0.3937007874015748
        },
        {
          "duration": 0.13636350000000164,
          "durationTicks": 96,
          "midi": 90,
          "name": "F#6",
          "ticks": 84864,
          "time": 120.545334,
          "velocity": 0.3937007874015748
        },
        {
          "duration": 0.13636350000000164,
          "durationTicks": 96,
          "midi": 75,
          "name": "D#5",
          "ticks": 84960,
          "time": 120.6816975,
          "velocity": 0.3937007874015748
        },
        {
          "duration": 0.13636350000000164,
          "durationTicks": 96,
          "midi": 68,
          "name": "G#4",
          "ticks": 84960,
          "time": 120.6816975,
          "velocity": 0.3937007874015748
        },
        {
          "duration": 0.13636350000000164,
          "durationTicks": 96,
          "midi": 87,
          "name": "D#6",
          "ticks": 85056,
          "time": 120.818061,
          "velocity": 0.3937007874015748
        },
        {
          "duration": 0.13636350000000164,
          "durationTicks": 96,
          "midi": 72,
          "name": "C5",
          "ticks": 85152,
          "time": 120.9544245,
          "velocity": 0.3937007874015748
        },
        {
          "duration": 0.13636350000000164,
          "durationTicks": 96,
          "midi": 80,
          "name": "G#5",
          "ticks": 85248,
          "time": 121.090788,
          "velocity": 0.3937007874015748
        },
        {
          "duration": 0.13636349999998743,
          "durationTicks": 96,
          "midi": 72,
          "name": "C5",
          "ticks": 85344,
          "time": 121.2271515,
          "velocity": 0.3937007874015748
        },
        {
          "duration": 0.13636350000000164,
          "durationTicks": 96,
          "midi": 80,
          "name": "G#5",
          "ticks": 85440,
          "time": 121.36351499999999,
          "velocity": 0.3937007874015748
        },
        {
          "duration": 0.13636350000000164,
          "durationTicks": 96,
          "midi": 68,
          "name": "G#4",
          "ticks": 85536,
          "time": 121.4998785,
          "velocity": 0.3937007874015748
        },
        {
          "duration": 0.13636350000000164,
          "durationTicks": 96,
          "midi": 80,
          "name": "G#5",
          "ticks": 85632,
          "time": 121.636242,
          "velocity": 0.3937007874015748
        },
        {
          "duration": 0.13636350000000164,
          "durationTicks": 96,
          "midi": 68,
          "name": "G#4",
          "ticks": 85728,
          "time": 121.7726055,
          "velocity": 0.3937007874015748
        },
        {
          "duration": 0.13636350000000164,
          "durationTicks": 96,
          "midi": 81,
          "name": "A5",
          "ticks": 85728,
          "time": 121.7726055,
          "velocity": 0.3937007874015748
        },
        {
          "duration": 0.13636350000000164,
          "durationTicks": 96,
          "midi": 90,
          "name": "F#6",
          "ticks": 85920,
          "time": 122.0453325,
          "velocity": 0.3937007874015748
        },
        {
          "duration": 0.13636350000000164,
          "durationTicks": 96,
          "midi": 73,
          "name": "C#5",
          "ticks": 85920,
          "time": 122.0453325,
          "velocity": 0.3937007874015748
        },
        {
          "duration": 0.13636350000000164,
          "durationTicks": 96,
          "midi": 78,
          "name": "F#5",
          "ticks": 85920,
          "time": 122.0453325,
          "velocity": 0.3937007874015748
        },
        {
          "duration": 0.13636350000000164,
          "durationTicks": 96,
          "midi": 73,
          "name": "C#5",
          "ticks": 86112,
          "time": 122.3180595,
          "velocity": 0.3937007874015748
        },
        {
          "duration": 0.13636350000000164,
          "durationTicks": 96,
          "midi": 76,
          "name": "E5",
          "ticks": 86112,
          "time": 122.3180595,
          "velocity": 0.3937007874015748
        },
        {
          "duration": 0.13636350000000164,
          "durationTicks": 96,
          "midi": 73,
          "name": "C#5",
          "ticks": 86304,
          "time": 122.5907865,
          "velocity": 0.3937007874015748
        },
        {
          "duration": 0.13636350000000164,
          "durationTicks": 96,
          "midi": 88,
          "name": "E6",
          "ticks": 86304,
          "time": 122.5907865,
          "velocity": 0.3937007874015748
        },
        {
          "duration": 0.13636350000000164,
          "durationTicks": 96,
          "midi": 76,
          "name": "E5",
          "ticks": 86304,
          "time": 122.5907865,
          "velocity": 0.3937007874015748
        },
        {
          "duration": 0.13636350000000164,
          "durationTicks": 96,
          "midi": 76,
          "name": "E5",
          "ticks": 86496,
          "time": 122.8635135,
          "velocity": 0.3937007874015748
        },
        {
          "duration": 0.13636350000000164,
          "durationTicks": 96,
          "midi": 73,
          "name": "C#5",
          "ticks": 86496,
          "time": 122.8635135,
          "velocity": 0.3937007874015748
        },
        {
          "duration": 0.13636350000000164,
          "durationTicks": 96,
          "midi": 75,
          "name": "D#5",
          "ticks": 86688,
          "time": 123.1362405,
          "velocity": 0.3937007874015748
        },
        {
          "duration": 0.13636350000000164,
          "durationTicks": 96,
          "midi": 75,
          "name": "D#5",
          "ticks": 86880,
          "time": 123.4089675,
          "velocity": 0.3937007874015748
        },
        {
          "duration": 0.13636350000000164,
          "durationTicks": 96,
          "midi": 66,
          "name": "F#4",
          "ticks": 86880,
          "time": 123.4089675,
          "velocity": 0.3937007874015748
        },
        {
          "duration": 0.13636350000000164,
          "durationTicks": 96,
          "midi": 75,
          "name": "D#5",
          "ticks": 87072,
          "time": 123.68169449999999,
          "velocity": 0.3937007874015748
        },
        {
          "duration": 0.13636350000000164,
          "durationTicks": 96,
          "midi": 75,
          "name": "D#5",
          "ticks": 87264,
          "time": 123.9544215,
          "velocity": 0.3937007874015748
        },
        {
          "duration": 0.13636350000000164,
          "durationTicks": 96,
          "midi": 66,
          "name": "F#4",
          "ticks": 87264,
          "time": 123.9544215,
          "velocity": 0.3937007874015748
        },
        {
          "duration": 0.13636350000000164,
          "durationTicks": 96,
          "midi": 88,
          "name": "E6",
          "ticks": 87360,
          "time": 124.090785,
          "velocity": 0.3937007874015748
        },
        {
          "duration": 0.13636350000000164,
          "durationTicks": 96,
          "midi": 88,
          "name": "E6",
          "ticks": 87456,
          "time": 124.2271485,
          "velocity": 0.3937007874015748
        },
        {
          "duration": 0.13636350000000164,
          "durationTicks": 96,
          "midi": 76,
          "name": "E5",
          "ticks": 87456,
          "time": 124.2271485,
          "velocity": 0.3937007874015748
        },
        {
          "duration": 0.13636350000000164,
          "durationTicks": 96,
          "midi": 76,
          "name": "E5",
          "ticks": 87648,
          "time": 124.4998755,
          "velocity": 0.3937007874015748
        },
        {
          "duration": 0.13636350000000164,
          "durationTicks": 96,
          "midi": 88,
          "name": "E6",
          "ticks": 87648,
          "time": 124.4998755,
          "velocity": 0.3937007874015748
        },
        {
          "duration": 0.13636350000000164,
          "durationTicks": 96,
          "midi": 68,
          "name": "G#4",
          "ticks": 87648,
          "time": 124.4998755,
          "velocity": 0.3937007874015748
        },
        {
          "duration": 0.13636350000000164,
          "durationTicks": 96,
          "midi": 88,
          "name": "E6",
          "ticks": 87744,
          "time": 124.636239,
          "velocity": 0.3937007874015748
        },
        {
          "duration": 0.13636349999998743,
          "durationTicks": 96,
          "midi": 76,
          "name": "E5",
          "ticks": 87840,
          "time": 124.7726025,
          "velocity": 0.3937007874015748
        },
        {
          "duration": 0.13636349999998743,
          "durationTicks": 96,
          "midi": 88,
          "name": "E6",
          "ticks": 87840,
          "time": 124.7726025,
          "velocity": 0.3937007874015748
        },
        {
          "duration": 0.13636350000000164,
          "durationTicks": 96,
          "midi": 90,
          "name": "F#6",
          "ticks": 87936,
          "time": 124.90896599999999,
          "velocity": 0.3937007874015748
        },
        {
          "duration": 0.13636350000000164,
          "durationTicks": 96,
          "midi": 68,
          "name": "G#4",
          "ticks": 88032,
          "time": 125.0453295,
          "velocity": 0.3937007874015748
        },
        {
          "duration": 0.13636350000000164,
          "durationTicks": 96,
          "midi": 76,
          "name": "E5",
          "ticks": 88032,
          "time": 125.0453295,
          "velocity": 0.3937007874015748
        },
        {
          "duration": 0.13636350000000164,
          "durationTicks": 96,
          "midi": 80,
          "name": "G#5",
          "ticks": 88128,
          "time": 125.181693,
          "velocity": 0.3937007874015748
        },
        {
          "duration": 0.13636350000000164,
          "durationTicks": 96,
          "midi": 76,
          "name": "E5",
          "ticks": 88224,
          "time": 125.3180565,
          "velocity": 0.3937007874015748
        },
        {
          "duration": 0.13636350000000164,
          "durationTicks": 96,
          "midi": 80,
          "name": "G#5",
          "ticks": 88416,
          "time": 125.5907835,
          "velocity": 0.3937007874015748
        },
        {
          "duration": 0.13636350000000164,
          "durationTicks": 96,
          "midi": 76,
          "name": "E5",
          "ticks": 88416,
          "time": 125.5907835,
          "velocity": 0.3937007874015748
        },
        {
          "duration": 0.13636350000000164,
          "durationTicks": 96,
          "midi": 68,
          "name": "G#4",
          "ticks": 88416,
          "time": 125.5907835,
          "velocity": 0.3937007874015748
        },
        {
          "duration": 0.13636350000000164,
          "durationTicks": 96,
          "midi": 80,
          "name": "G#5",
          "ticks": 88512,
          "time": 125.727147,
          "velocity": 0.3937007874015748
        },
        {
          "duration": 0.13636350000000164,
          "durationTicks": 96,
          "midi": 68,
          "name": "G#4",
          "ticks": 88608,
          "time": 125.8635105,
          "velocity": 0.3937007874015748
        },
        {
          "duration": 0.13636349999998743,
          "durationTicks": 96,
          "midi": 80,
          "name": "G#5",
          "ticks": 88704,
          "time": 125.999874,
          "velocity": 0.3937007874015748
        },
        {
          "duration": 0.13636350000000164,
          "durationTicks": 96,
          "midi": 76,
          "name": "E5",
          "ticks": 88800,
          "time": 126.1362375,
          "velocity": 0.3937007874015748
        },
        {
          "duration": 0.13636350000000164,
          "durationTicks": 96,
          "midi": 68,
          "name": "G#4",
          "ticks": 88800,
          "time": 126.1362375,
          "velocity": 0.3937007874015748
        },
        {
          "duration": 0.13636350000000164,
          "durationTicks": 96,
          "midi": 81,
          "name": "A5",
          "ticks": 88800,
          "time": 126.1362375,
          "velocity": 0.3937007874015748
        },
        {
          "duration": 0.13636350000000164,
          "durationTicks": 96,
          "midi": 90,
          "name": "F#6",
          "ticks": 88992,
          "time": 126.4089645,
          "velocity": 0.3937007874015748
        },
        {
          "duration": 0.13636350000000164,
          "durationTicks": 96,
          "midi": 69,
          "name": "A4",
          "ticks": 88992,
          "time": 126.4089645,
          "velocity": 0.3937007874015748
        },
        {
          "duration": 0.13636350000000164,
          "durationTicks": 96,
          "midi": 69,
          "name": "A4",
          "ticks": 89184,
          "time": 126.6816915,
          "velocity": 0.3937007874015748
        },
        {
          "duration": 0.13636350000000164,
          "durationTicks": 96,
          "midi": 73,
          "name": "C#5",
          "ticks": 89184,
          "time": 126.6816915,
          "velocity": 0.3937007874015748
        },
        {
          "duration": 0.13636350000000164,
          "durationTicks": 96,
          "midi": 76,
          "name": "E5",
          "ticks": 89376,
          "time": 126.9544185,
          "velocity": 0.3937007874015748
        },
        {
          "duration": 0.13636350000000164,
          "durationTicks": 96,
          "midi": 69,
          "name": "A4",
          "ticks": 89376,
          "time": 126.9544185,
          "velocity": 0.3937007874015748
        },
        {
          "duration": 0.13636350000000164,
          "durationTicks": 96,
          "midi": 88,
          "name": "E6",
          "ticks": 89376,
          "time": 126.9544185,
          "velocity": 0.3937007874015748
        },
        {
          "duration": 0.13636350000000164,
          "durationTicks": 96,
          "midi": 69,
          "name": "A4",
          "ticks": 89568,
          "time": 127.22714549999999,
          "velocity": 0.3937007874015748
        },
        {
          "duration": 0.13636350000000164,
          "durationTicks": 96,
          "midi": 73,
          "name": "C#5",
          "ticks": 89568,
          "time": 127.22714549999999,
          "velocity": 0.3937007874015748
        },
        {
          "duration": 0.13636350000000164,
          "durationTicks": 96,
          "midi": 71,
          "name": "B4",
          "ticks": 89760,
          "time": 127.4998725,
          "velocity": 0.3937007874015748
        },
        {
          "duration": 0.13636350000000164,
          "durationTicks": 96,
          "midi": 75,
          "name": "D#5",
          "ticks": 89952,
          "time": 127.7725995,
          "velocity": 0.3937007874015748
        },
        {
          "duration": 0.13636350000000164,
          "durationTicks": 96,
          "midi": 71,
          "name": "B4",
          "ticks": 89952,
          "time": 127.7725995,
          "velocity": 0.3937007874015748
        },
        {
          "duration": 0.13636350000001585,
          "durationTicks": 96,
          "midi": 71,
          "name": "B4",
          "ticks": 90144,
          "time": 128.0453265,
          "velocity": 0.3937007874015748
        },
        {
          "duration": 0.13636350000001585,
          "durationTicks": 96,
          "midi": 71,
          "name": "B4",
          "ticks": 90336,
          "time": 128.3180535,
          "velocity": 0.3937007874015748
        },
        {
          "duration": 0.13636350000001585,
          "durationTicks": 96,
          "midi": 75,
          "name": "D#5",
          "ticks": 90336,
          "time": 128.3180535,
          "velocity": 0.3937007874015748
        },
        {
          "duration": 0.13636350000001585,
          "durationTicks": 96,
          "midi": 88,
          "name": "E6",
          "ticks": 90528,
          "time": 128.5907805,
          "velocity": 0.3937007874015748
        },
        {
          "duration": 0.13636350000001585,
          "durationTicks": 96,
          "midi": 76,
          "name": "E5",
          "ticks": 90528,
          "time": 128.5907805,
          "velocity": 0.3937007874015748
        },
        {
          "duration": 0.13636349999998743,
          "durationTicks": 96,
          "midi": 88,
          "name": "E6",
          "ticks": 90720,
          "time": 128.8635075,
          "velocity": 0.3937007874015748
        },
        {
          "duration": 0.13636349999998743,
          "durationTicks": 96,
          "midi": 76,
          "name": "E5",
          "ticks": 90720,
          "time": 128.8635075,
          "velocity": 0.3937007874015748
        },
        {
          "duration": 0.13636349999998743,
          "durationTicks": 96,
          "midi": 71,
          "name": "B4",
          "ticks": 90720,
          "time": 128.8635075,
          "velocity": 0.3937007874015748
        },
        {
          "duration": 0.13636350000001585,
          "durationTicks": 96,
          "midi": 88,
          "name": "E6",
          "ticks": 90816,
          "time": 128.99987099999998,
          "velocity": 0.3937007874015748
        },
        {
          "duration": 0.13636349999998743,
          "durationTicks": 96,
          "midi": 76,
          "name": "E5",
          "ticks": 90912,
          "time": 129.1362345,
          "velocity": 0.3937007874015748
        },
        {
          "duration": 0.13636349999998743,
          "durationTicks": 96,
          "midi": 88,
          "name": "E6",
          "ticks": 90912,
          "time": 129.1362345,
          "velocity": 0.3937007874015748
        },
        {
          "duration": 0.13636350000001585,
          "durationTicks": 96,
          "midi": 90,
          "name": "F#6",
          "ticks": 91008,
          "time": 129.272598,
          "velocity": 0.3937007874015748
        },
        {
          "duration": 0.13636349999998743,
          "durationTicks": 96,
          "midi": 71,
          "name": "B4",
          "ticks": 91104,
          "time": 129.4089615,
          "velocity": 0.3937007874015748
        },
        {
          "duration": 0.13636349999998743,
          "durationTicks": 96,
          "midi": 76,
          "name": "E5",
          "ticks": 91104,
          "time": 129.4089615,
          "velocity": 0.3937007874015748
        },
        {
          "duration": 0.13636350000001585,
          "durationTicks": 96,
          "midi": 87,
          "name": "D#6",
          "ticks": 91200,
          "time": 129.545325,
          "velocity": 0.3937007874015748
        },
        {
          "duration": 0.13636349999998743,
          "durationTicks": 96,
          "midi": 68,
          "name": "G#4",
          "ticks": 91296,
          "time": 129.6816885,
          "velocity": 0.3937007874015748
        },
        {
          "duration": 0.13636350000001585,
          "durationTicks": 96,
          "midi": 80,
          "name": "G#5",
          "ticks": 91392,
          "time": 129.818052,
          "velocity": 0.3937007874015748
        },
        {
          "duration": 0.13636349999998743,
          "durationTicks": 96,
          "midi": 68,
          "name": "G#4",
          "ticks": 91584,
          "time": 130.090779,
          "velocity": 0.3937007874015748
        },
        {
          "duration": 0.13636349999998743,
          "durationTicks": 96,
          "midi": 80,
          "name": "G#5",
          "ticks": 91584,
          "time": 130.090779,
          "velocity": 0.3937007874015748
        },
        {
          "duration": 0.13636349999998743,
          "durationTicks": 96,
          "midi": 81,
          "name": "A5",
          "ticks": 91776,
          "time": 130.363506,
          "velocity": 0.3937007874015748
        },
        {
          "duration": 0.13636349999998743,
          "durationTicks": 96,
          "midi": 90,
          "name": "F#6",
          "ticks": 91968,
          "time": 130.636233,
          "velocity": 0.3937007874015748
        },
        {
          "duration": 0.13636349999998743,
          "durationTicks": 96,
          "midi": 73,
          "name": "C#5",
          "ticks": 91968,
          "time": 130.636233,
          "velocity": 0.3937007874015748
        },
        {
          "duration": 0.13636349999998743,
          "durationTicks": 96,
          "midi": 78,
          "name": "F#5",
          "ticks": 91968,
          "time": 130.636233,
          "velocity": 0.3937007874015748
        },
        {
          "duration": 0.13636350000001585,
          "durationTicks": 96,
          "midi": 73,
          "name": "C#5",
          "ticks": 92064,
          "time": 130.7725965,
          "velocity": 0.3937007874015748
        },
        {
          "duration": 0.13636349999998743,
          "durationTicks": 96,
          "midi": 73,
          "name": "C#5",
          "ticks": 92160,
          "time": 130.90896,
          "velocity": 0.3937007874015748
        },
        {
          "duration": 0.13636349999998743,
          "durationTicks": 96,
          "midi": 88,
          "name": "E6",
          "ticks": 92352,
          "time": 131.181687,
          "velocity": 0.3937007874015748
        },
        {
          "duration": 0.13636349999998743,
          "durationTicks": 96,
          "midi": 73,
          "name": "C#5",
          "ticks": 92352,
          "time": 131.181687,
          "velocity": 0.3937007874015748
        },
        {
          "duration": 0.13636349999998743,
          "durationTicks": 96,
          "midi": 73,
          "name": "C#5",
          "ticks": 92448,
          "time": 131.3180505,
          "velocity": 0.3937007874015748
        },
        {
          "duration": 0.13636350000001585,
          "durationTicks": 96,
          "midi": 73,
          "name": "C#5",
          "ticks": 92544,
          "time": 131.45441399999999,
          "velocity": 0.3937007874015748
        },
        {
          "duration": 0.13636350000001585,
          "durationTicks": 96,
          "midi": 87,
          "name": "D#6",
          "ticks": 92736,
          "time": 131.727141,
          "velocity": 0.3937007874015748
        },
        {
          "duration": 0.13636350000001585,
          "durationTicks": 96,
          "midi": 73,
          "name": "C#5",
          "ticks": 92736,
          "time": 131.727141,
          "velocity": 0.3937007874015748
        },
        {
          "duration": 0.13636349999998743,
          "durationTicks": 96,
          "midi": 76,
          "name": "E5",
          "ticks": 92832,
          "time": 131.8635045,
          "velocity": 0.3937007874015748
        },
        {
          "duration": 0.13636350000001585,
          "durationTicks": 96,
          "midi": 76,
          "name": "E5",
          "ticks": 92928,
          "time": 131.999868,
          "velocity": 0.3937007874015748
        },
        {
          "duration": 0.13636350000001585,
          "durationTicks": 96,
          "midi": 85,
          "name": "C#6",
          "ticks": 93120,
          "time": 132.272595,
          "velocity": 0.3937007874015748
        },
        {
          "duration": 0.13636350000001585,
          "durationTicks": 96,
          "midi": 68,
          "name": "G#4",
          "ticks": 93120,
          "time": 132.272595,
          "velocity": 0.3937007874015748
        },
        {
          "duration": 0.13636349999998743,
          "durationTicks": 96,
          "midi": 71,
          "name": "B4",
          "ticks": 93312,
          "time": 132.545322,
          "velocity": 0.3937007874015748
        },
        {
          "duration": 0.13636349999998743,
          "durationTicks": 96,
          "midi": 88,
          "name": "E6",
          "ticks": 93504,
          "time": 132.818049,
          "velocity": 0.3937007874015748
        },
        {
          "duration": 0.13636349999998743,
          "durationTicks": 96,
          "midi": 69,
          "name": "A4",
          "ticks": 93504,
          "time": 132.818049,
          "velocity": 0.3937007874015748
        },
        {
          "duration": 0.13636350000001585,
          "durationTicks": 96,
          "midi": 69,
          "name": "A4",
          "ticks": 93600,
          "time": 132.9544125,
          "velocity": 0.3937007874015748
        },
        {
          "duration": 0.13636349999998743,
          "durationTicks": 96,
          "midi": 69,
          "name": "A4",
          "ticks": 93696,
          "time": 133.090776,
          "velocity": 0.3937007874015748
        },
        {
          "duration": 0.13636349999998743,
          "durationTicks": 96,
          "midi": 69,
          "name": "A4",
          "ticks": 93888,
          "time": 133.363503,
          "velocity": 0.3937007874015748
        },
        {
          "duration": 0.13636350000001585,
          "durationTicks": 96,
          "midi": 69,
          "name": "A4",
          "ticks": 93984,
          "time": 133.4998665,
          "velocity": 0.3937007874015748
        },
        {
          "duration": 0.13636349999998743,
          "durationTicks": 96,
          "midi": 69,
          "name": "A4",
          "ticks": 94080,
          "time": 133.63623,
          "velocity": 0.3937007874015748
        },
        {
          "duration": 0.13636350000001585,
          "durationTicks": 96,
          "midi": 69,
          "name": "A4",
          "ticks": 94272,
          "time": 133.908957,
          "velocity": 0.3937007874015748
        },
        {
          "duration": 0.13636350000001585,
          "durationTicks": 96,
          "midi": 86,
          "name": "D6",
          "ticks": 94272,
          "time": 133.908957,
          "velocity": 0.3937007874015748
        },
        {
          "duration": 0.13636349999998743,
          "durationTicks": 96,
          "midi": 72,
          "name": "C5",
          "ticks": 94368,
          "time": 134.0453205,
          "velocity": 0.3937007874015748
        },
        {
          "duration": 0.13636350000001585,
          "durationTicks": 96,
          "midi": 72,
          "name": "C5",
          "ticks": 94464,
          "time": 134.181684,
          "velocity": 0.3937007874015748
        },
        {
          "duration": 0.13636350000001585,
          "durationTicks": 96,
          "midi": 76,
          "name": "E5",
          "ticks": 94656,
          "time": 134.454411,
          "velocity": 0.3937007874015748
        },
        {
          "duration": 0.13636350000001585,
          "durationTicks": 96,
          "midi": 84,
          "name": "C6",
          "ticks": 94656,
          "time": 134.454411,
          "velocity": 0.3937007874015748
        },
        {
          "duration": 0.13636350000001585,
          "durationTicks": 96,
          "midi": 66,
          "name": "F#4",
          "ticks": 94848,
          "time": 134.727138,
          "velocity": 0.3937007874015748
        },
        {
          "duration": 0.13636349999998743,
          "durationTicks": 96,
          "midi": 88,
          "name": "E6",
          "ticks": 95040,
          "time": 134.999865,
          "velocity": 0.3937007874015748
        },
        {
          "duration": 0.13636349999998743,
          "durationTicks": 96,
          "midi": 76,
          "name": "E5",
          "ticks": 95040,
          "time": 134.999865,
          "velocity": 0.3937007874015748
        },
        {
          "duration": 0.13636350000001585,
          "durationTicks": 96,
          "midi": 76,
          "name": "E5",
          "ticks": 95136,
          "time": 135.1362285,
          "velocity": 0.3937007874015748
        },
        {
          "duration": 0.13636349999998743,
          "durationTicks": 96,
          "midi": 76,
          "name": "E5",
          "ticks": 95232,
          "time": 135.272592,
          "velocity": 0.3937007874015748
        },
        {
          "duration": 0.13636349999998743,
          "durationTicks": 96,
          "midi": 76,
          "name": "E5",
          "ticks": 95424,
          "time": 135.545319,
          "velocity": 0.3937007874015748
        },
        {
          "duration": 0.13636350000001585,
          "durationTicks": 96,
          "midi": 76,
          "name": "E5",
          "ticks": 95520,
          "time": 135.6816825,
          "velocity": 0.3937007874015748
        },
        {
          "duration": 0.13636349999998743,
          "durationTicks": 96,
          "midi": 76,
          "name": "E5",
          "ticks": 95616,
          "time": 135.818046,
          "velocity": 0.3937007874015748
        },
        {
          "duration": 0.13636350000001585,
          "durationTicks": 96,
          "midi": 76,
          "name": "E5",
          "ticks": 95808,
          "time": 136.09077299999998,
          "velocity": 0.3937007874015748
        },
        {
          "duration": 0.13636350000001585,
          "durationTicks": 96,
          "midi": 87,
          "name": "D#6",
          "ticks": 95808,
          "time": 136.09077299999998,
          "velocity": 0.3937007874015748
        },
        {
          "duration": 0.13636349999998743,
          "durationTicks": 96,
          "midi": 68,
          "name": "G#4",
          "ticks": 95904,
          "time": 136.2271365,
          "velocity": 0.3937007874015748
        },
        {
          "duration": 0.13636350000001585,
          "durationTicks": 96,
          "midi": 68,
          "name": "G#4",
          "ticks": 96000,
          "time": 136.3635,
          "velocity": 0.3937007874015748
        },
        {
          "duration": 0.13636350000001585,
          "durationTicks": 96,
          "midi": 73,
          "name": "C#5",
          "ticks": 96192,
          "time": 136.636227,
          "velocity": 0.3937007874015748
        },
        {
          "duration": 0.13636350000001585,
          "durationTicks": 96,
          "midi": 83,
          "name": "B5",
          "ticks": 96192,
          "time": 136.636227,
          "velocity": 0.3937007874015748
        },
        {
          "duration": 0.13636350000001585,
          "durationTicks": 96,
          "midi": 68,
          "name": "G#4",
          "ticks": 96384,
          "time": 136.908954,
          "velocity": 0.3937007874015748
        },
        {
          "duration": 0.13636349999998743,
          "durationTicks": 96,
          "midi": 83,
          "name": "B5",
          "ticks": 96576,
          "time": 137.181681,
          "velocity": 0.3937007874015748
        },
        {
          "duration": 0.13636349999998743,
          "durationTicks": 96,
          "midi": 66,
          "name": "F#4",
          "ticks": 96576,
          "time": 137.181681,
          "velocity": 0.3937007874015748
        },
        {
          "duration": 0.13636350000001585,
          "durationTicks": 96,
          "midi": 85,
          "name": "C#6",
          "ticks": 96672,
          "time": 137.31804449999998,
          "velocity": 0.3937007874015748
        },
        {
          "duration": 0.13636350000001585,
          "durationTicks": 96,
          "midi": 66,
          "name": "F#4",
          "ticks": 96672,
          "time": 137.31804449999998,
          "velocity": 0.3937007874015748
        },
        {
          "duration": 0.13636349999998743,
          "durationTicks": 96,
          "midi": 66,
          "name": "F#4",
          "ticks": 96768,
          "time": 137.454408,
          "velocity": 0.3937007874015748
        },
        {
          "duration": 0.13636349999998743,
          "durationTicks": 96,
          "midi": 66,
          "name": "F#4",
          "ticks": 96960,
          "time": 137.727135,
          "velocity": 0.3937007874015748
        },
        {
          "duration": 0.13636350000001585,
          "durationTicks": 96,
          "midi": 66,
          "name": "F#4",
          "ticks": 97056,
          "time": 137.8634985,
          "velocity": 0.3937007874015748
        },
        {
          "duration": 0.13636349999998743,
          "durationTicks": 96,
          "midi": 66,
          "name": "F#4",
          "ticks": 97152,
          "time": 137.999862,
          "velocity": 0.3937007874015748
        },
        {
          "duration": 0.13636349999998743,
          "durationTicks": 96,
          "midi": 66,
          "name": "F#4",
          "ticks": 97344,
          "time": 138.272589,
          "velocity": 0.3937007874015748
        },
        {
          "duration": 0.13636349999998743,
          "durationTicks": 96,
          "midi": 88,
          "name": "E6",
          "ticks": 97344,
          "time": 138.272589,
          "velocity": 0.3937007874015748
        },
        {
          "duration": 0.13636349999998743,
          "durationTicks": 96,
          "midi": 69,
          "name": "A4",
          "ticks": 97440,
          "time": 138.4089525,
          "velocity": 0.3937007874015748
        },
        {
          "duration": 0.13636349999998743,
          "durationTicks": 96,
          "midi": 90,
          "name": "F#6",
          "ticks": 97440,
          "time": 138.4089525,
          "velocity": 0.3937007874015748
        },
        {
          "duration": 0.13636350000001585,
          "durationTicks": 96,
          "midi": 69,
          "name": "A4",
          "ticks": 97536,
          "time": 138.54531599999999,
          "velocity": 0.3937007874015748
        },
        {
          "duration": 0.13636350000001585,
          "durationTicks": 96,
          "midi": 72,
          "name": "C5",
          "ticks": 97728,
          "time": 138.818043,
          "velocity": 0.3937007874015748
        },
        {
          "duration": 0.13636350000001585,
          "durationTicks": 96,
          "midi": 75,
          "name": "D#5",
          "ticks": 97920,
          "time": 139.09077,
          "velocity": 0.3937007874015748
        },
        {
          "duration": 0.13636350000001585,
          "durationTicks": 96,
          "midi": 88,
          "name": "E6",
          "ticks": 98112,
          "time": 139.363497,
          "velocity": 0.3937007874015748
        },
        {
          "duration": 0.13636350000001585,
          "durationTicks": 96,
          "midi": 73,
          "name": "C#5",
          "ticks": 98112,
          "time": 139.363497,
          "velocity": 0.3937007874015748
        },
        {
          "duration": 0.13636349999998743,
          "durationTicks": 96,
          "midi": 73,
          "name": "C#5",
          "ticks": 98208,
          "time": 139.4998605,
          "velocity": 0.3937007874015748
        },
        {
          "duration": 0.13636349999998743,
          "durationTicks": 96,
          "midi": 73,
          "name": "C#5",
          "ticks": 98304,
          "time": 139.636224,
          "velocity": 0.3937007874015748
        },
        {
          "duration": 0.13636349999998743,
          "durationTicks": 96,
          "midi": 73,
          "name": "C#5",
          "ticks": 98496,
          "time": 139.908951,
          "velocity": 0.3937007874015748
        },
        {
          "duration": 0.13636350000001585,
          "durationTicks": 96,
          "midi": 73,
          "name": "C#5",
          "ticks": 98592,
          "time": 140.0453145,
          "velocity": 0.3937007874015748
        },
        {
          "duration": 0.13636349999998743,
          "durationTicks": 96,
          "midi": 73,
          "name": "C#5",
          "ticks": 98688,
          "time": 140.181678,
          "velocity": 0.3937007874015748
        },
        {
          "duration": 0.13636349999998743,
          "durationTicks": 96,
          "midi": 87,
          "name": "D#6",
          "ticks": 98880,
          "time": 140.454405,
          "velocity": 0.3937007874015748
        },
        {
          "duration": 0.13636349999998743,
          "durationTicks": 96,
          "midi": 73,
          "name": "C#5",
          "ticks": 98880,
          "time": 140.454405,
          "velocity": 0.3937007874015748
        },
        {
          "duration": 0.13636350000001585,
          "durationTicks": 96,
          "midi": 76,
          "name": "E5",
          "ticks": 98976,
          "time": 140.5907685,
          "velocity": 0.3937007874015748
        },
        {
          "duration": 0.13636349999998743,
          "durationTicks": 96,
          "midi": 76,
          "name": "E5",
          "ticks": 99072,
          "time": 140.727132,
          "velocity": 0.3937007874015748
        },
        {
          "duration": 0.13636350000001585,
          "durationTicks": 96,
          "midi": 68,
          "name": "G#4",
          "ticks": 99264,
          "time": 140.999859,
          "velocity": 0.3937007874015748
        },
        {
          "duration": 0.13636350000001585,
          "durationTicks": 96,
          "midi": 85,
          "name": "C#6",
          "ticks": 99264,
          "time": 140.999859,
          "velocity": 0.3937007874015748
        },
        {
          "duration": 0.13636350000001585,
          "durationTicks": 96,
          "midi": 71,
          "name": "B4",
          "ticks": 99456,
          "time": 141.272586,
          "velocity": 0.3937007874015748
        },
        {
          "duration": 0.13636350000001585,
          "durationTicks": 96,
          "midi": 69,
          "name": "A4",
          "ticks": 99648,
          "time": 141.545313,
          "velocity": 0.3937007874015748
        },
        {
          "duration": 0.13636350000001585,
          "durationTicks": 96,
          "midi": 88,
          "name": "E6",
          "ticks": 99648,
          "time": 141.545313,
          "velocity": 0.3937007874015748
        },
        {
          "duration": 0.13636349999998743,
          "durationTicks": 96,
          "midi": 69,
          "name": "A4",
          "ticks": 99744,
          "time": 141.6816765,
          "velocity": 0.3937007874015748
        },
        {
          "duration": 0.13636350000001585,
          "durationTicks": 96,
          "midi": 69,
          "name": "A4",
          "ticks": 99840,
          "time": 141.81804,
          "velocity": 0.3937007874015748
        },
        {
          "duration": 0.13636349999998743,
          "durationTicks": 96,
          "midi": 69,
          "name": "A4",
          "ticks": 100032,
          "time": 142.090767,
          "velocity": 0.3937007874015748
        },
        {
          "duration": 0.13636350000001585,
          "durationTicks": 96,
          "midi": 69,
          "name": "A4",
          "ticks": 100128,
          "time": 142.2271305,
          "velocity": 0.3937007874015748
        },
        {
          "duration": 0.13636349999998743,
          "durationTicks": 96,
          "midi": 69,
          "name": "A4",
          "ticks": 100224,
          "time": 142.363494,
          "velocity": 0.3937007874015748
        },
        {
          "duration": 0.13636349999998743,
          "durationTicks": 96,
          "midi": 86,
          "name": "D6",
          "ticks": 100416,
          "time": 142.636221,
          "velocity": 0.3937007874015748
        },
        {
          "duration": 0.13636349999998743,
          "durationTicks": 96,
          "midi": 69,
          "name": "A4",
          "ticks": 100416,
          "time": 142.636221,
          "velocity": 0.3937007874015748
        },
        {
          "duration": 0.13636350000001585,
          "durationTicks": 96,
          "midi": 72,
          "name": "C5",
          "ticks": 100512,
          "time": 142.7725845,
          "velocity": 0.3937007874015748
        },
        {
          "duration": 0.13636349999998743,
          "durationTicks": 96,
          "midi": 72,
          "name": "C5",
          "ticks": 100608,
          "time": 142.908948,
          "velocity": 0.3937007874015748
        },
        {
          "duration": 0.13636349999998743,
          "durationTicks": 96,
          "midi": 84,
          "name": "C6",
          "ticks": 100800,
          "time": 143.181675,
          "velocity": 0.3937007874015748
        },
        {
          "duration": 0.13636349999998743,
          "durationTicks": 96,
          "midi": 76,
          "name": "E5",
          "ticks": 100800,
          "time": 143.181675,
          "velocity": 0.3937007874015748
        },
        {
          "duration": 0.13636350000001585,
          "durationTicks": 96,
          "midi": 66,
          "name": "F#4",
          "ticks": 100992,
          "time": 143.454402,
          "velocity": 0.3937007874015748
        },
        {
          "duration": 0.13636350000001585,
          "durationTicks": 96,
          "midi": 88,
          "name": "E6",
          "ticks": 101184,
          "time": 143.727129,
          "velocity": 0.3937007874015748
        },
        {
          "duration": 0.13636350000001585,
          "durationTicks": 96,
          "midi": 76,
          "name": "E5",
          "ticks": 101184,
          "time": 143.727129,
          "velocity": 0.3937007874015748
        },
        {
          "duration": 0.13636349999998743,
          "durationTicks": 96,
          "midi": 76,
          "name": "E5",
          "ticks": 101280,
          "time": 143.8634925,
          "velocity": 0.3937007874015748
        },
        {
          "duration": 0.13636350000001585,
          "durationTicks": 96,
          "midi": 76,
          "name": "E5",
          "ticks": 101376,
          "time": 143.999856,
          "velocity": 0.3937007874015748
        },
        {
          "duration": 0.13636349999998743,
          "durationTicks": 96,
          "midi": 76,
          "name": "E5",
          "ticks": 101568,
          "time": 144.272583,
          "velocity": 0.3937007874015748
        },
        {
          "duration": 0.13636350000001585,
          "durationTicks": 96,
          "midi": 76,
          "name": "E5",
          "ticks": 101664,
          "time": 144.40894649999998,
          "velocity": 0.3937007874015748
        },
        {
          "duration": 0.13636349999998743,
          "durationTicks": 96,
          "midi": 76,
          "name": "E5",
          "ticks": 101760,
          "time": 144.54531,
          "velocity": 0.3937007874015748
        },
        {
          "duration": 0.13636349999998743,
          "durationTicks": 96,
          "midi": 87,
          "name": "D#6",
          "ticks": 101952,
          "time": 144.818037,
          "velocity": 0.3937007874015748
        },
        {
          "duration": 0.13636349999998743,
          "durationTicks": 96,
          "midi": 76,
          "name": "E5",
          "ticks": 101952,
          "time": 144.818037,
          "velocity": 0.3937007874015748
        },
        {
          "duration": 0.13636350000001585,
          "durationTicks": 96,
          "midi": 68,
          "name": "G#4",
          "ticks": 102048,
          "time": 144.9544005,
          "velocity": 0.3937007874015748
        },
        {
          "duration": 0.13636349999998743,
          "durationTicks": 96,
          "midi": 68,
          "name": "G#4",
          "ticks": 102144,
          "time": 145.090764,
          "velocity": 0.3937007874015748
        },
        {
          "duration": 0.13636349999998743,
          "durationTicks": 96,
          "midi": 73,
          "name": "C#5",
          "ticks": 102336,
          "time": 145.363491,
          "velocity": 0.3937007874015748
        },
        {
          "duration": 0.13636349999998743,
          "durationTicks": 96,
          "midi": 83,
          "name": "B5",
          "ticks": 102336,
          "time": 145.363491,
          "velocity": 0.3937007874015748
        },
        {
          "duration": 0.13636350000001585,
          "durationTicks": 96,
          "midi": 68,
          "name": "G#4",
          "ticks": 102528,
          "time": 145.63621799999999,
          "velocity": 0.3937007874015748
        },
        {
          "duration": 0.13636350000001585,
          "durationTicks": 96,
          "midi": 83,
          "name": "B5",
          "ticks": 102720,
          "time": 145.908945,
          "velocity": 0.3937007874015748
        },
        {
          "duration": 0.13636350000001585,
          "durationTicks": 96,
          "midi": 66,
          "name": "F#4",
          "ticks": 102720,
          "time": 145.908945,
          "velocity": 0.3937007874015748
        },
        {
          "duration": 0.13636349999998743,
          "durationTicks": 96,
          "midi": 66,
          "name": "F#4",
          "ticks": 102816,
          "time": 146.0453085,
          "velocity": 0.3937007874015748
        },
        {
          "duration": 0.13636349999998743,
          "durationTicks": 96,
          "midi": 85,
          "name": "C#6",
          "ticks": 102816,
          "time": 146.0453085,
          "velocity": 0.3937007874015748
        },
        {
          "duration": 0.13636350000001585,
          "durationTicks": 96,
          "midi": 66,
          "name": "F#4",
          "ticks": 102912,
          "time": 146.181672,
          "velocity": 0.3937007874015748
        },
        {
          "duration": 0.13636350000001585,
          "durationTicks": 96,
          "midi": 66,
          "name": "F#4",
          "ticks": 103104,
          "time": 146.454399,
          "velocity": 0.3937007874015748
        },
        {
          "duration": 0.13636349999998743,
          "durationTicks": 96,
          "midi": 66,
          "name": "F#4",
          "ticks": 103200,
          "time": 146.5907625,
          "velocity": 0.3937007874015748
        },
        {
          "duration": 0.13636349999998743,
          "durationTicks": 96,
          "midi": 66,
          "name": "F#4",
          "ticks": 103296,
          "time": 146.727126,
          "velocity": 0.3937007874015748
        },
        {
          "duration": 0.13636349999998743,
          "durationTicks": 96,
          "midi": 88,
          "name": "E6",
          "ticks": 103488,
          "time": 146.999853,
          "velocity": 0.3937007874015748
        },
        {
          "duration": 0.13636350000001585,
          "durationTicks": 96,
          "midi": 90,
          "name": "F#6",
          "ticks": 103584,
          "time": 147.1362165,
          "velocity": 0.3937007874015748
        }
      ],
      "endOfTrackTicks": 103680
    }
  ]
}
