{
    "header": {
      "keySignatures": [],
      "meta": [],
      "name": "",
      "ppq": 384,
      "tempos": [
        {
          "bpm": 110.00011000011,
          "ticks": 0
        }
      ],
      "timeSignatures": [
        {
          "ticks": 0,
          "timeSignature": [
            1,
            4
          ],
          "measures": 0
        }
      ]
    },
    "tracks": [
      {
        "channel": 0,
        "controlChanges": {},
        "pitchBends": [],
        "instrument": {
          "family": "chromatic percussion",
          "number": 11,
          "name": "vibraphone"
        },
        "name": "Vibraphone",
        "notes": [
          {
            "duration": 0.545454,
            "durationTicks": 384,
            "midi": 83,
            "name": "B5",
            "ticks": 0,
            "time": 0,
            "velocity": 0.4881889763779528
          },
          {
            "duration": 0.545454,
            "durationTicks": 384,
            "midi": 83,
            "name": "B5",
            "ticks": 0,
            "time": 0,
            "velocity": 0.4881889763779528
          },
          {
            "duration": 0.272727,
            "durationTicks": 192,
            "midi": 61,
            "name": "C#4",
            "ticks": 0,
            "time": 0,
            "velocity": 0.4881889763779528
          },
          {
            "duration": 0.545454,
            "durationTicks": 384,
            "midi": 83,
            "name": "B5",
            "ticks": 0,
            "time": 0,
            "velocity": 0.4881889763779528
          },
          {
            "duration": 0.272727,
            "durationTicks": 192,
            "midi": 61,
            "name": "C#4",
            "ticks": 0,
            "time": 0,
            "velocity": 0.4881889763779528
          },
          {
            "duration": 0.545454,
            "durationTicks": 384,
            "midi": 95,
            "name": "B6",
            "ticks": 0,
            "time": 0,
            "velocity": 0.4881889763779528
          },
          {
            "duration": 0.545454,
            "durationTicks": 384,
            "midi": 95,
            "name": "B6",
            "ticks": 0,
            "time": 0,
            "velocity": 0.4881889763779528
          },
          {
            "duration": 0.545454,
            "durationTicks": 384,
            "midi": 95,
            "name": "B6",
            "ticks": 0,
            "time": 0,
            "velocity": 0.4881889763779528
          },
          {
            "duration": 0.272727,
            "durationTicks": 192,
            "midi": 61,
            "name": "C#4",
            "ticks": 0,
            "time": 0,
            "velocity": 0.4881889763779528
          },
          {
            "duration": 0.545454,
            "durationTicks": 384,
            "midi": 95,
            "name": "B6",
            "ticks": 0,
            "time": 0,
            "velocity": 0.4881889763779528
          },
          {
            "duration": 0.545454,
            "durationTicks": 384,
            "midi": 95,
            "name": "B6",
            "ticks": 0,
            "time": 0,
            "velocity": 0.4881889763779528
          },
          {
            "duration": 0.272727,
            "durationTicks": 192,
            "midi": 61,
            "name": "C#4",
            "ticks": 0,
            "time": 0,
            "velocity": 0.4881889763779528
          },
          {
            "duration": 0.272727,
            "durationTicks": 192,
            "midi": 61,
            "name": "C#4",
            "ticks": 0,
            "time": 0,
            "velocity": 0.4881889763779528
          },
          {
            "duration": 0.272727,
            "durationTicks": 192,
            "midi": 61,
            "name": "C#4",
            "ticks": 0,
            "time": 0,
            "velocity": 0.4881889763779528
          },
          {
            "duration": 0.545454,
            "durationTicks": 384,
            "midi": 83,
            "name": "B5",
            "ticks": 0,
            "time": 0,
            "velocity": 0.4881889763779528
          },
          {
            "duration": 0.545454,
            "durationTicks": 384,
            "midi": 83,
            "name": "B5",
            "ticks": 0,
            "time": 0,
            "velocity": 0.4881889763779528
          },
          {
            "duration": 0.545454,
            "durationTicks": 384,
            "midi": 95,
            "name": "B6",
            "ticks": 0,
            "time": 0,
            "velocity": 0.4881889763779528
          },
          {
            "duration": 0.545454,
            "durationTicks": 384,
            "midi": 83,
            "name": "B5",
            "ticks": 0,
            "time": 0,
            "velocity": 0.4881889763779528
          },
          {
            "duration": 0.272727,
            "durationTicks": 192,
            "midi": 73,
            "name": "C#5",
            "ticks": 192,
            "time": 0.272727,
            "velocity": 0.4881889763779528
          },
          {
            "duration": 0.272727,
            "durationTicks": 192,
            "midi": 73,
            "name": "C#5",
            "ticks": 192,
            "time": 0.272727,
            "velocity": 0.4881889763779528
          },
          {
            "duration": 0.272727,
            "durationTicks": 192,
            "midi": 68,
            "name": "G#4",
            "ticks": 192,
            "time": 0.272727,
            "velocity": 0.4881889763779528
          },
          {
            "duration": 0.272727,
            "durationTicks": 192,
            "midi": 68,
            "name": "G#4",
            "ticks": 192,
            "time": 0.272727,
            "velocity": 0.4881889763779528
          },
          {
            "duration": 0.272727,
            "durationTicks": 192,
            "midi": 68,
            "name": "G#4",
            "ticks": 192,
            "time": 0.272727,
            "velocity": 0.4881889763779528
          },
          {
            "duration": 0.272727,
            "durationTicks": 192,
            "midi": 73,
            "name": "C#5",
            "ticks": 192,
            "time": 0.272727,
            "velocity": 0.4881889763779528
          },
          {
            "duration": 0.272727,
            "durationTicks": 192,
            "midi": 68,
            "name": "G#4",
            "ticks": 192,
            "time": 0.272727,
            "velocity": 0.4881889763779528
          },
          {
            "duration": 0.272727,
            "durationTicks": 192,
            "midi": 73,
            "name": "C#5",
            "ticks": 192,
            "time": 0.272727,
            "velocity": 0.4881889763779528
          },
          {
            "duration": 0.272727,
            "durationTicks": 192,
            "midi": 68,
            "name": "G#4",
            "ticks": 192,
            "time": 0.272727,
            "velocity": 0.4881889763779528
          },
          {
            "duration": 0.272727,
            "durationTicks": 192,
            "midi": 73,
            "name": "C#5",
            "ticks": 192,
            "time": 0.272727,
            "velocity": 0.4881889763779528
          },
          {
            "duration": 0.272727,
            "durationTicks": 192,
            "midi": 68,
            "name": "G#4",
            "ticks": 192,
            "time": 0.272727,
            "velocity": 0.4881889763779528
          },
          {
            "duration": 0.272727,
            "durationTicks": 192,
            "midi": 73,
            "name": "C#5",
            "ticks": 192,
            "time": 0.272727,
            "velocity": 0.4881889763779528
          },
          {
            "duration": 0.27272700000000005,
            "durationTicks": 192,
            "midi": 64,
            "name": "E4",
            "ticks": 384,
            "time": 0.545454,
            "velocity": 0.4881889763779528
          },
          {
            "duration": 0.4090905,
            "durationTicks": 288,
            "midi": 85,
            "name": "C#6",
            "ticks": 384,
            "time": 0.545454,
            "velocity": 0.4881889763779528
          },
          {
            "duration": 0.4090905,
            "durationTicks": 288,
            "midi": 97,
            "name": "C#7",
            "ticks": 384,
            "time": 0.545454,
            "velocity": 0.4881889763779528
          },
          {
            "duration": 0.4090905,
            "durationTicks": 288,
            "midi": 85,
            "name": "C#6",
            "ticks": 384,
            "time": 0.545454,
            "velocity": 0.4881889763779528
          },
          {
            "duration": 0.27272700000000005,
            "durationTicks": 192,
            "midi": 64,
            "name": "E4",
            "ticks": 384,
            "time": 0.545454,
            "velocity": 0.4881889763779528
          },
          {
            "duration": 0.27272700000000005,
            "durationTicks": 192,
            "midi": 64,
            "name": "E4",
            "ticks": 384,
            "time": 0.545454,
            "velocity": 0.4881889763779528
          },
          {
            "duration": 0.4090905,
            "durationTicks": 288,
            "midi": 97,
            "name": "C#7",
            "ticks": 384,
            "time": 0.545454,
            "velocity": 0.4881889763779528
          },
          {
            "duration": 0.27272700000000005,
            "durationTicks": 192,
            "midi": 64,
            "name": "E4",
            "ticks": 384,
            "time": 0.545454,
            "velocity": 0.4881889763779528
          },
          {
            "duration": 0.4090905,
            "durationTicks": 288,
            "midi": 85,
            "name": "C#6",
            "ticks": 384,
            "time": 0.545454,
            "velocity": 0.4881889763779528
          },
          {
            "duration": 0.4090905,
            "durationTicks": 288,
            "midi": 97,
            "name": "C#7",
            "ticks": 384,
            "time": 0.545454,
            "velocity": 0.4881889763779528
          },
          {
            "duration": 0.4090905,
            "durationTicks": 288,
            "midi": 85,
            "name": "C#6",
            "ticks": 384,
            "time": 0.545454,
            "velocity": 0.4881889763779528
          },
          {
            "duration": 0.4090905,
            "durationTicks": 288,
            "midi": 85,
            "name": "C#6",
            "ticks": 384,
            "time": 0.545454,
            "velocity": 0.4881889763779528
          },
          {
            "duration": 0.27272700000000005,
            "durationTicks": 192,
            "midi": 64,
            "name": "E4",
            "ticks": 384,
            "time": 0.545454,
            "velocity": 0.4881889763779528
          },
          {
            "duration": 0.4090905,
            "durationTicks": 288,
            "midi": 97,
            "name": "C#7",
            "ticks": 384,
            "time": 0.545454,
            "velocity": 0.4881889763779528
          },
          {
            "duration": 0.4090905,
            "durationTicks": 288,
            "midi": 97,
            "name": "C#7",
            "ticks": 384,
            "time": 0.545454,
            "velocity": 0.4881889763779528
          },
          {
            "duration": 0.4090905,
            "durationTicks": 288,
            "midi": 85,
            "name": "C#6",
            "ticks": 384,
            "time": 0.545454,
            "velocity": 0.4881889763779528
          },
          {
            "duration": 0.27272700000000005,
            "durationTicks": 192,
            "midi": 64,
            "name": "E4",
            "ticks": 384,
            "time": 0.545454,
            "velocity": 0.4881889763779528
          },
          {
            "duration": 0.4090905,
            "durationTicks": 288,
            "midi": 97,
            "name": "C#7",
            "ticks": 384,
            "time": 0.545454,
            "velocity": 0.4881889763779528
          },
          {
            "duration": 0.27272699999999994,
            "durationTicks": 192,
            "midi": 68,
            "name": "G#4",
            "ticks": 576,
            "time": 0.818181,
            "velocity": 0.4881889763779528
          },
          {
            "duration": 0.27272699999999994,
            "durationTicks": 192,
            "midi": 73,
            "name": "C#5",
            "ticks": 576,
            "time": 0.818181,
            "velocity": 0.4881889763779528
          },
          {
            "duration": 0.27272699999999994,
            "durationTicks": 192,
            "midi": 68,
            "name": "G#4",
            "ticks": 576,
            "time": 0.818181,
            "velocity": 0.4881889763779528
          },
          {
            "duration": 0.27272699999999994,
            "durationTicks": 192,
            "midi": 73,
            "name": "C#5",
            "ticks": 576,
            "time": 0.818181,
            "velocity": 0.4881889763779528
          },
          {
            "duration": 0.27272699999999994,
            "durationTicks": 192,
            "midi": 73,
            "name": "C#5",
            "ticks": 576,
            "time": 0.818181,
            "velocity": 0.4881889763779528
          },
          {
            "duration": 0.27272699999999994,
            "durationTicks": 192,
            "midi": 68,
            "name": "G#4",
            "ticks": 576,
            "time": 0.818181,
            "velocity": 0.4881889763779528
          },
          {
            "duration": 0.27272699999999994,
            "durationTicks": 192,
            "midi": 73,
            "name": "C#5",
            "ticks": 576,
            "time": 0.818181,
            "velocity": 0.4881889763779528
          },
          {
            "duration": 0.27272699999999994,
            "durationTicks": 192,
            "midi": 68,
            "name": "G#4",
            "ticks": 576,
            "time": 0.818181,
            "velocity": 0.4881889763779528
          },
          {
            "duration": 0.27272699999999994,
            "durationTicks": 192,
            "midi": 68,
            "name": "G#4",
            "ticks": 576,
            "time": 0.818181,
            "velocity": 0.4881889763779528
          },
          {
            "duration": 0.27272699999999994,
            "durationTicks": 192,
            "midi": 73,
            "name": "C#5",
            "ticks": 576,
            "time": 0.818181,
            "velocity": 0.4881889763779528
          },
          {
            "duration": 0.27272699999999994,
            "durationTicks": 192,
            "midi": 68,
            "name": "G#4",
            "ticks": 576,
            "time": 0.818181,
            "velocity": 0.4881889763779528
          },
          {
            "duration": 0.27272699999999994,
            "durationTicks": 192,
            "midi": 73,
            "name": "C#5",
            "ticks": 576,
            "time": 0.818181,
            "velocity": 0.4881889763779528
          },
          {
            "duration": 0.13636349999999997,
            "durationTicks": 96,
            "midi": 83,
            "name": "B5",
            "ticks": 672,
            "time": 0.9545445,
            "velocity": 0.4881889763779528
          },
          {
            "duration": 0.13636349999999997,
            "durationTicks": 96,
            "midi": 95,
            "name": "B6",
            "ticks": 672,
            "time": 0.9545445,
            "velocity": 0.4881889763779528
          },
          {
            "duration": 0.13636349999999997,
            "durationTicks": 96,
            "midi": 95,
            "name": "B6",
            "ticks": 672,
            "time": 0.9545445,
            "velocity": 0.4881889763779528
          },
          {
            "duration": 0.13636349999999997,
            "durationTicks": 96,
            "midi": 95,
            "name": "B6",
            "ticks": 672,
            "time": 0.9545445,
            "velocity": 0.4881889763779528
          },
          {
            "duration": 0.13636349999999997,
            "durationTicks": 96,
            "midi": 83,
            "name": "B5",
            "ticks": 672,
            "time": 0.9545445,
            "velocity": 0.4881889763779528
          },
          {
            "duration": 0.13636349999999997,
            "durationTicks": 96,
            "midi": 83,
            "name": "B5",
            "ticks": 672,
            "time": 0.9545445,
            "velocity": 0.4881889763779528
          },
          {
            "duration": 0.13636349999999997,
            "durationTicks": 96,
            "midi": 95,
            "name": "B6",
            "ticks": 672,
            "time": 0.9545445,
            "velocity": 0.4881889763779528
          },
          {
            "duration": 0.13636349999999997,
            "durationTicks": 96,
            "midi": 83,
            "name": "B5",
            "ticks": 672,
            "time": 0.9545445,
            "velocity": 0.4881889763779528
          },
          {
            "duration": 0.13636349999999997,
            "durationTicks": 96,
            "midi": 83,
            "name": "B5",
            "ticks": 672,
            "time": 0.9545445,
            "velocity": 0.4881889763779528
          },
          {
            "duration": 0.13636349999999997,
            "durationTicks": 96,
            "midi": 95,
            "name": "B6",
            "ticks": 672,
            "time": 0.9545445,
            "velocity": 0.4881889763779528
          },
          {
            "duration": 0.13636349999999997,
            "durationTicks": 96,
            "midi": 83,
            "name": "B5",
            "ticks": 672,
            "time": 0.9545445,
            "velocity": 0.4881889763779528
          },
          {
            "duration": 0.13636349999999997,
            "durationTicks": 96,
            "midi": 95,
            "name": "B6",
            "ticks": 672,
            "time": 0.9545445,
            "velocity": 0.4881889763779528
          },
          {
            "duration": 0.27272699999999994,
            "durationTicks": 192,
            "midi": 59,
            "name": "B3",
            "ticks": 768,
            "time": 1.090908,
            "velocity": 0.4881889763779528
          },
          {
            "duration": 0.5454540000000001,
            "durationTicks": 384,
            "midi": 80,
            "name": "G#5",
            "ticks": 768,
            "time": 1.090908,
            "velocity": 0.4881889763779528
          },
          {
            "duration": 0.5454540000000001,
            "durationTicks": 384,
            "midi": 80,
            "name": "G#5",
            "ticks": 768,
            "time": 1.090908,
            "velocity": 0.4881889763779528
          },
          {
            "duration": 0.5454540000000001,
            "durationTicks": 384,
            "midi": 92,
            "name": "G#6",
            "ticks": 768,
            "time": 1.090908,
            "velocity": 0.4881889763779528
          },
          {
            "duration": 0.5454540000000001,
            "durationTicks": 384,
            "midi": 92,
            "name": "G#6",
            "ticks": 768,
            "time": 1.090908,
            "velocity": 0.4881889763779528
          },
          {
            "duration": 0.5454540000000001,
            "durationTicks": 384,
            "midi": 80,
            "name": "G#5",
            "ticks": 768,
            "time": 1.090908,
            "velocity": 0.4881889763779528
          },
          {
            "duration": 0.5454540000000001,
            "durationTicks": 384,
            "midi": 80,
            "name": "G#5",
            "ticks": 768,
            "time": 1.090908,
            "velocity": 0.4881889763779528
          },
          {
            "duration": 0.27272699999999994,
            "durationTicks": 192,
            "midi": 59,
            "name": "B3",
            "ticks": 768,
            "time": 1.090908,
            "velocity": 0.4881889763779528
          },
          {
            "duration": 0.5454540000000001,
            "durationTicks": 384,
            "midi": 80,
            "name": "G#5",
            "ticks": 768,
            "time": 1.090908,
            "velocity": 0.4881889763779528
          },
          {
            "duration": 0.5454540000000001,
            "durationTicks": 384,
            "midi": 92,
            "name": "G#6",
            "ticks": 768,
            "time": 1.090908,
            "velocity": 0.4881889763779528
          },
          {
            "duration": 0.27272699999999994,
            "durationTicks": 192,
            "midi": 59,
            "name": "B3",
            "ticks": 768,
            "time": 1.090908,
            "velocity": 0.4881889763779528
          },
          {
            "duration": 0.27272699999999994,
            "durationTicks": 192,
            "midi": 59,
            "name": "B3",
            "ticks": 768,
            "time": 1.090908,
            "velocity": 0.4881889763779528
          },
          {
            "duration": 0.5454540000000001,
            "durationTicks": 384,
            "midi": 92,
            "name": "G#6",
            "ticks": 768,
            "time": 1.090908,
            "velocity": 0.4881889763779528
          },
          {
            "duration": 0.5454540000000001,
            "durationTicks": 384,
            "midi": 80,
            "name": "G#5",
            "ticks": 768,
            "time": 1.090908,
            "velocity": 0.4881889763779528
          },
          {
            "duration": 0.27272699999999994,
            "durationTicks": 192,
            "midi": 59,
            "name": "B3",
            "ticks": 768,
            "time": 1.090908,
            "velocity": 0.4881889763779528
          },
          {
            "duration": 0.5454540000000001,
            "durationTicks": 384,
            "midi": 92,
            "name": "G#6",
            "ticks": 768,
            "time": 1.090908,
            "velocity": 0.4881889763779528
          },
          {
            "duration": 0.27272699999999994,
            "durationTicks": 192,
            "midi": 59,
            "name": "B3",
            "ticks": 768,
            "time": 1.090908,
            "velocity": 0.4881889763779528
          },
          {
            "duration": 0.5454540000000001,
            "durationTicks": 384,
            "midi": 92,
            "name": "G#6",
            "ticks": 768,
            "time": 1.090908,
            "velocity": 0.4881889763779528
          },
          {
            "duration": 0.27272700000000016,
            "durationTicks": 192,
            "midi": 71,
            "name": "B4",
            "ticks": 960,
            "time": 1.363635,
            "velocity": 0.4881889763779528
          },
          {
            "duration": 0.27272700000000016,
            "durationTicks": 192,
            "midi": 71,
            "name": "B4",
            "ticks": 960,
            "time": 1.363635,
            "velocity": 0.4881889763779528
          },
          {
            "duration": 0.27272700000000016,
            "durationTicks": 192,
            "midi": 71,
            "name": "B4",
            "ticks": 960,
            "time": 1.363635,
            "velocity": 0.4881889763779528
          },
          {
            "duration": 0.27272700000000016,
            "durationTicks": 192,
            "midi": 68,
            "name": "G#4",
            "ticks": 960,
            "time": 1.363635,
            "velocity": 0.4881889763779528
          },
          {
            "duration": 0.27272700000000016,
            "durationTicks": 192,
            "midi": 71,
            "name": "B4",
            "ticks": 960,
            "time": 1.363635,
            "velocity": 0.4881889763779528
          },
          {
            "duration": 0.27272700000000016,
            "durationTicks": 192,
            "midi": 71,
            "name": "B4",
            "ticks": 960,
            "time": 1.363635,
            "velocity": 0.4881889763779528
          },
          {
            "duration": 0.27272700000000016,
            "durationTicks": 192,
            "midi": 68,
            "name": "G#4",
            "ticks": 960,
            "time": 1.363635,
            "velocity": 0.4881889763779528
          },
          {
            "duration": 0.27272700000000016,
            "durationTicks": 192,
            "midi": 68,
            "name": "G#4",
            "ticks": 960,
            "time": 1.363635,
            "velocity": 0.4881889763779528
          },
          {
            "duration": 0.27272700000000016,
            "durationTicks": 192,
            "midi": 68,
            "name": "G#4",
            "ticks": 960,
            "time": 1.363635,
            "velocity": 0.4881889763779528
          },
          {
            "duration": 0.27272700000000016,
            "durationTicks": 192,
            "midi": 68,
            "name": "G#4",
            "ticks": 960,
            "time": 1.363635,
            "velocity": 0.4881889763779528
          },
          {
            "duration": 0.27272700000000016,
            "durationTicks": 192,
            "midi": 71,
            "name": "B4",
            "ticks": 960,
            "time": 1.363635,
            "velocity": 0.4881889763779528
          },
          {
            "duration": 0.27272700000000016,
            "durationTicks": 192,
            "midi": 68,
            "name": "G#4",
            "ticks": 960,
            "time": 1.363635,
            "velocity": 0.4881889763779528
          },
          {
            "duration": 0.27272699999999994,
            "durationTicks": 192,
            "midi": 64,
            "name": "E4",
            "ticks": 1152,
            "time": 1.636362,
            "velocity": 0.4881889763779528
          },
          {
            "duration": 0.5454539999999999,
            "durationTicks": 384,
            "midi": 80,
            "name": "G#5",
            "ticks": 1152,
            "time": 1.636362,
            "velocity": 0.4881889763779528
          },
          {
            "duration": 0.5454539999999999,
            "durationTicks": 384,
            "midi": 80,
            "name": "G#5",
            "ticks": 1152,
            "time": 1.636362,
            "velocity": 0.4881889763779528
          },
          {
            "duration": 0.5454539999999999,
            "durationTicks": 384,
            "midi": 92,
            "name": "G#6",
            "ticks": 1152,
            "time": 1.636362,
            "velocity": 0.4881889763779528
          },
          {
            "duration": 0.5454539999999999,
            "durationTicks": 384,
            "midi": 80,
            "name": "G#5",
            "ticks": 1152,
            "time": 1.636362,
            "velocity": 0.4881889763779528
          },
          {
            "duration": 0.5454539999999999,
            "durationTicks": 384,
            "midi": 80,
            "name": "G#5",
            "ticks": 1152,
            "time": 1.636362,
            "velocity": 0.4881889763779528
          },
          {
            "duration": 0.27272699999999994,
            "durationTicks": 192,
            "midi": 64,
            "name": "E4",
            "ticks": 1152,
            "time": 1.636362,
            "velocity": 0.4881889763779528
          },
          {
            "duration": 0.5454539999999999,
            "durationTicks": 384,
            "midi": 92,
            "name": "G#6",
            "ticks": 1152,
            "time": 1.636362,
            "velocity": 0.4881889763779528
          },
          {
            "duration": 0.27272699999999994,
            "durationTicks": 192,
            "midi": 64,
            "name": "E4",
            "ticks": 1152,
            "time": 1.636362,
            "velocity": 0.4881889763779528
          },
          {
            "duration": 0.5454539999999999,
            "durationTicks": 384,
            "midi": 92,
            "name": "G#6",
            "ticks": 1152,
            "time": 1.636362,
            "velocity": 0.4881889763779528
          },
          {
            "duration": 0.27272699999999994,
            "durationTicks": 192,
            "midi": 64,
            "name": "E4",
            "ticks": 1152,
            "time": 1.636362,
            "velocity": 0.4881889763779528
          },
          {
            "duration": 0.5454539999999999,
            "durationTicks": 384,
            "midi": 80,
            "name": "G#5",
            "ticks": 1152,
            "time": 1.636362,
            "velocity": 0.4881889763779528
          },
          {
            "duration": 0.5454539999999999,
            "durationTicks": 384,
            "midi": 92,
            "name": "G#6",
            "ticks": 1152,
            "time": 1.636362,
            "velocity": 0.4881889763779528
          },
          {
            "duration": 0.5454539999999999,
            "durationTicks": 384,
            "midi": 92,
            "name": "G#6",
            "ticks": 1152,
            "time": 1.636362,
            "velocity": 0.4881889763779528
          },
          {
            "duration": 0.27272699999999994,
            "durationTicks": 192,
            "midi": 64,
            "name": "E4",
            "ticks": 1152,
            "time": 1.636362,
            "velocity": 0.4881889763779528
          },
          {
            "duration": 0.5454539999999999,
            "durationTicks": 384,
            "midi": 92,
            "name": "G#6",
            "ticks": 1152,
            "time": 1.636362,
            "velocity": 0.4881889763779528
          },
          {
            "duration": 0.5454539999999999,
            "durationTicks": 384,
            "midi": 80,
            "name": "G#5",
            "ticks": 1152,
            "time": 1.636362,
            "velocity": 0.4881889763779528
          },
          {
            "duration": 0.27272699999999994,
            "durationTicks": 192,
            "midi": 64,
            "name": "E4",
            "ticks": 1152,
            "time": 1.636362,
            "velocity": 0.4881889763779528
          },
          {
            "duration": 0.27272699999999994,
            "durationTicks": 192,
            "midi": 71,
            "name": "B4",
            "ticks": 1344,
            "time": 1.909089,
            "velocity": 0.4881889763779528
          },
          {
            "duration": 0.27272699999999994,
            "durationTicks": 192,
            "midi": 71,
            "name": "B4",
            "ticks": 1344,
            "time": 1.909089,
            "velocity": 0.4881889763779528
          },
          {
            "duration": 0.27272699999999994,
            "durationTicks": 192,
            "midi": 68,
            "name": "G#4",
            "ticks": 1344,
            "time": 1.909089,
            "velocity": 0.4881889763779528
          },
          {
            "duration": 0.27272699999999994,
            "durationTicks": 192,
            "midi": 71,
            "name": "B4",
            "ticks": 1344,
            "time": 1.909089,
            "velocity": 0.4881889763779528
          },
          {
            "duration": 0.27272699999999994,
            "durationTicks": 192,
            "midi": 71,
            "name": "B4",
            "ticks": 1344,
            "time": 1.909089,
            "velocity": 0.4881889763779528
          },
          {
            "duration": 0.27272699999999994,
            "durationTicks": 192,
            "midi": 68,
            "name": "G#4",
            "ticks": 1344,
            "time": 1.909089,
            "velocity": 0.4881889763779528
          },
          {
            "duration": 0.27272699999999994,
            "durationTicks": 192,
            "midi": 68,
            "name": "G#4",
            "ticks": 1344,
            "time": 1.909089,
            "velocity": 0.4881889763779528
          },
          {
            "duration": 0.27272699999999994,
            "durationTicks": 192,
            "midi": 71,
            "name": "B4",
            "ticks": 1344,
            "time": 1.909089,
            "velocity": 0.4881889763779528
          },
          {
            "duration": 0.27272699999999994,
            "durationTicks": 192,
            "midi": 68,
            "name": "G#4",
            "ticks": 1344,
            "time": 1.909089,
            "velocity": 0.4881889763779528
          },
          {
            "duration": 0.27272699999999994,
            "durationTicks": 192,
            "midi": 71,
            "name": "B4",
            "ticks": 1344,
            "time": 1.909089,
            "velocity": 0.4881889763779528
          },
          {
            "duration": 0.27272699999999994,
            "durationTicks": 192,
            "midi": 68,
            "name": "G#4",
            "ticks": 1344,
            "time": 1.909089,
            "velocity": 0.4881889763779528
          },
          {
            "duration": 0.27272699999999994,
            "durationTicks": 192,
            "midi": 68,
            "name": "G#4",
            "ticks": 1344,
            "time": 1.909089,
            "velocity": 0.4881889763779528
          },
          {
            "duration": 0.4090905,
            "durationTicks": 288,
            "midi": 92,
            "name": "G#6",
            "ticks": 1536,
            "time": 2.181816,
            "velocity": 0.4881889763779528
          },
          {
            "duration": 0.4090905,
            "durationTicks": 288,
            "midi": 92,
            "name": "G#6",
            "ticks": 1536,
            "time": 2.181816,
            "velocity": 0.4881889763779528
          },
          {
            "duration": 0.4090905,
            "durationTicks": 288,
            "midi": 80,
            "name": "G#5",
            "ticks": 1536,
            "time": 2.181816,
            "velocity": 0.4881889763779528
          },
          {
            "duration": 0.4090905,
            "durationTicks": 288,
            "midi": 92,
            "name": "G#6",
            "ticks": 1536,
            "time": 2.181816,
            "velocity": 0.4881889763779528
          },
          {
            "duration": 0.27272700000000016,
            "durationTicks": 192,
            "midi": 57,
            "name": "A3",
            "ticks": 1536,
            "time": 2.181816,
            "velocity": 0.4881889763779528
          },
          {
            "duration": 0.4090905,
            "durationTicks": 288,
            "midi": 80,
            "name": "G#5",
            "ticks": 1536,
            "time": 2.181816,
            "velocity": 0.4881889763779528
          },
          {
            "duration": 0.27272700000000016,
            "durationTicks": 192,
            "midi": 57,
            "name": "A3",
            "ticks": 1536,
            "time": 2.181816,
            "velocity": 0.4881889763779528
          },
          {
            "duration": 0.4090905,
            "durationTicks": 288,
            "midi": 92,
            "name": "G#6",
            "ticks": 1536,
            "time": 2.181816,
            "velocity": 0.4881889763779528
          },
          {
            "duration": 0.27272700000000016,
            "durationTicks": 192,
            "midi": 57,
            "name": "A3",
            "ticks": 1536,
            "time": 2.181816,
            "velocity": 0.4881889763779528
          },
          {
            "duration": 0.27272700000000016,
            "durationTicks": 192,
            "midi": 57,
            "name": "A3",
            "ticks": 1536,
            "time": 2.181816,
            "velocity": 0.4881889763779528
          },
          {
            "duration": 0.4090905,
            "durationTicks": 288,
            "midi": 92,
            "name": "G#6",
            "ticks": 1536,
            "time": 2.181816,
            "velocity": 0.4881889763779528
          },
          {
            "duration": 0.4090905,
            "durationTicks": 288,
            "midi": 80,
            "name": "G#5",
            "ticks": 1536,
            "time": 2.181816,
            "velocity": 0.4881889763779528
          },
          {
            "duration": 0.4090905,
            "durationTicks": 288,
            "midi": 80,
            "name": "G#5",
            "ticks": 1536,
            "time": 2.181816,
            "velocity": 0.4881889763779528
          },
          {
            "duration": 0.4090905,
            "durationTicks": 288,
            "midi": 80,
            "name": "G#5",
            "ticks": 1536,
            "time": 2.181816,
            "velocity": 0.4881889763779528
          },
          {
            "duration": 0.27272700000000016,
            "durationTicks": 192,
            "midi": 57,
            "name": "A3",
            "ticks": 1536,
            "time": 2.181816,
            "velocity": 0.4881889763779528
          },
          {
            "duration": 0.4090905,
            "durationTicks": 288,
            "midi": 92,
            "name": "G#6",
            "ticks": 1536,
            "time": 2.181816,
            "velocity": 0.4881889763779528
          },
          {
            "duration": 0.27272700000000016,
            "durationTicks": 192,
            "midi": 57,
            "name": "A3",
            "ticks": 1536,
            "time": 2.181816,
            "velocity": 0.4881889763779528
          },
          {
            "duration": 0.4090905,
            "durationTicks": 288,
            "midi": 80,
            "name": "G#5",
            "ticks": 1536,
            "time": 2.181816,
            "velocity": 0.4881889763779528
          },
          {
            "duration": 0.2727269999999997,
            "durationTicks": 192,
            "midi": 73,
            "name": "C#5",
            "ticks": 1728,
            "time": 2.454543,
            "velocity": 0.4881889763779528
          },
          {
            "duration": 0.2727269999999997,
            "durationTicks": 192,
            "midi": 69,
            "name": "A4",
            "ticks": 1728,
            "time": 2.454543,
            "velocity": 0.4881889763779528
          },
          {
            "duration": 0.2727269999999997,
            "durationTicks": 192,
            "midi": 69,
            "name": "A4",
            "ticks": 1728,
            "time": 2.454543,
            "velocity": 0.4881889763779528
          },
          {
            "duration": 0.2727269999999997,
            "durationTicks": 192,
            "midi": 73,
            "name": "C#5",
            "ticks": 1728,
            "time": 2.454543,
            "velocity": 0.4881889763779528
          },
          {
            "duration": 0.2727269999999997,
            "durationTicks": 192,
            "midi": 69,
            "name": "A4",
            "ticks": 1728,
            "time": 2.454543,
            "velocity": 0.4881889763779528
          },
          {
            "duration": 0.2727269999999997,
            "durationTicks": 192,
            "midi": 69,
            "name": "A4",
            "ticks": 1728,
            "time": 2.454543,
            "velocity": 0.4881889763779528
          },
          {
            "duration": 0.2727269999999997,
            "durationTicks": 192,
            "midi": 73,
            "name": "C#5",
            "ticks": 1728,
            "time": 2.454543,
            "velocity": 0.4881889763779528
          },
          {
            "duration": 0.2727269999999997,
            "durationTicks": 192,
            "midi": 73,
            "name": "C#5",
            "ticks": 1728,
            "time": 2.454543,
            "velocity": 0.4881889763779528
          },
          {
            "duration": 0.2727269999999997,
            "durationTicks": 192,
            "midi": 69,
            "name": "A4",
            "ticks": 1728,
            "time": 2.454543,
            "velocity": 0.4881889763779528
          },
          {
            "duration": 0.2727269999999997,
            "durationTicks": 192,
            "midi": 69,
            "name": "A4",
            "ticks": 1728,
            "time": 2.454543,
            "velocity": 0.4881889763779528
          },
          {
            "duration": 0.2727269999999997,
            "durationTicks": 192,
            "midi": 73,
            "name": "C#5",
            "ticks": 1728,
            "time": 2.454543,
            "velocity": 0.4881889763779528
          },
          {
            "duration": 0.2727269999999997,
            "durationTicks": 192,
            "midi": 73,
            "name": "C#5",
            "ticks": 1728,
            "time": 2.454543,
            "velocity": 0.4881889763779528
          },
          {
            "duration": 0.13636349999999986,
            "durationTicks": 96,
            "midi": 78,
            "name": "F#5",
            "ticks": 1824,
            "time": 2.5909065,
            "velocity": 0.4881889763779528
          },
          {
            "duration": 0.13636349999999986,
            "durationTicks": 96,
            "midi": 90,
            "name": "F#6",
            "ticks": 1824,
            "time": 2.5909065,
            "velocity": 0.4881889763779528
          },
          {
            "duration": 0.13636349999999986,
            "durationTicks": 96,
            "midi": 90,
            "name": "F#6",
            "ticks": 1824,
            "time": 2.5909065,
            "velocity": 0.4881889763779528
          },
          {
            "duration": 0.13636349999999986,
            "durationTicks": 96,
            "midi": 90,
            "name": "F#6",
            "ticks": 1824,
            "time": 2.5909065,
            "velocity": 0.4881889763779528
          },
          {
            "duration": 0.13636349999999986,
            "durationTicks": 96,
            "midi": 90,
            "name": "F#6",
            "ticks": 1824,
            "time": 2.5909065,
            "velocity": 0.4881889763779528
          },
          {
            "duration": 0.13636349999999986,
            "durationTicks": 96,
            "midi": 90,
            "name": "F#6",
            "ticks": 1824,
            "time": 2.5909065,
            "velocity": 0.4881889763779528
          },
          {
            "duration": 0.13636349999999986,
            "durationTicks": 96,
            "midi": 90,
            "name": "F#6",
            "ticks": 1824,
            "time": 2.5909065,
            "velocity": 0.4881889763779528
          },
          {
            "duration": 0.4090905,
            "durationTicks": 288,
            "midi": 92,
            "name": "G#6",
            "ticks": 1920,
            "time": 2.72727,
            "velocity": 0.4881889763779528
          },
          {
            "duration": 0.4090905,
            "durationTicks": 288,
            "midi": 92,
            "name": "G#6",
            "ticks": 1920,
            "time": 2.72727,
            "velocity": 0.4881889763779528
          },
          {
            "duration": 0.4090905,
            "durationTicks": 288,
            "midi": 92,
            "name": "G#6",
            "ticks": 1920,
            "time": 2.72727,
            "velocity": 0.4881889763779528
          },
          {
            "duration": 0.27272700000000016,
            "durationTicks": 192,
            "midi": 64,
            "name": "E4",
            "ticks": 1920,
            "time": 2.72727,
            "velocity": 0.4881889763779528
          },
          {
            "duration": 0.27272700000000016,
            "durationTicks": 192,
            "midi": 64,
            "name": "E4",
            "ticks": 1920,
            "time": 2.72727,
            "velocity": 0.4881889763779528
          },
          {
            "duration": 0.4090905,
            "durationTicks": 288,
            "midi": 80,
            "name": "G#5",
            "ticks": 1920,
            "time": 2.72727,
            "velocity": 0.4881889763779528
          },
          {
            "duration": 0.4090905,
            "durationTicks": 288,
            "midi": 80,
            "name": "G#5",
            "ticks": 1920,
            "time": 2.72727,
            "velocity": 0.4881889763779528
          },
          {
            "duration": 0.4090905,
            "durationTicks": 288,
            "midi": 92,
            "name": "G#6",
            "ticks": 1920,
            "time": 2.72727,
            "velocity": 0.4881889763779528
          },
          {
            "duration": 0.4090905,
            "durationTicks": 288,
            "midi": 80,
            "name": "G#5",
            "ticks": 1920,
            "time": 2.72727,
            "velocity": 0.4881889763779528
          },
          {
            "duration": 0.4090905,
            "durationTicks": 288,
            "midi": 80,
            "name": "G#5",
            "ticks": 1920,
            "time": 2.72727,
            "velocity": 0.4881889763779528
          },
          {
            "duration": 0.4090905,
            "durationTicks": 288,
            "midi": 92,
            "name": "G#6",
            "ticks": 1920,
            "time": 2.72727,
            "velocity": 0.4881889763779528
          },
          {
            "duration": 0.27272700000000016,
            "durationTicks": 192,
            "midi": 64,
            "name": "E4",
            "ticks": 1920,
            "time": 2.72727,
            "velocity": 0.4881889763779528
          },
          {
            "duration": 0.27272700000000016,
            "durationTicks": 192,
            "midi": 64,
            "name": "E4",
            "ticks": 1920,
            "time": 2.72727,
            "velocity": 0.4881889763779528
          },
          {
            "duration": 0.4090905,
            "durationTicks": 288,
            "midi": 92,
            "name": "G#6",
            "ticks": 1920,
            "time": 2.72727,
            "velocity": 0.4881889763779528
          },
          {
            "duration": 0.4090905,
            "durationTicks": 288,
            "midi": 80,
            "name": "G#5",
            "ticks": 1920,
            "time": 2.72727,
            "velocity": 0.4881889763779528
          },
          {
            "duration": 0.4090905,
            "durationTicks": 288,
            "midi": 80,
            "name": "G#5",
            "ticks": 1920,
            "time": 2.72727,
            "velocity": 0.4881889763779528
          },
          {
            "duration": 0.27272700000000016,
            "durationTicks": 192,
            "midi": 64,
            "name": "E4",
            "ticks": 1920,
            "time": 2.72727,
            "velocity": 0.4881889763779528
          },
          {
            "duration": 0.27272700000000016,
            "durationTicks": 192,
            "midi": 64,
            "name": "E4",
            "ticks": 1920,
            "time": 2.72727,
            "velocity": 0.4881889763779528
          },
          {
            "duration": 0.27272700000000016,
            "durationTicks": 192,
            "midi": 69,
            "name": "A4",
            "ticks": 2112,
            "time": 2.999997,
            "velocity": 0.4881889763779528
          },
          {
            "duration": 0.27272700000000016,
            "durationTicks": 192,
            "midi": 69,
            "name": "A4",
            "ticks": 2112,
            "time": 2.999997,
            "velocity": 0.4881889763779528
          },
          {
            "duration": 0.27272700000000016,
            "durationTicks": 192,
            "midi": 73,
            "name": "C#5",
            "ticks": 2112,
            "time": 2.999997,
            "velocity": 0.4881889763779528
          },
          {
            "duration": 0.27272700000000016,
            "durationTicks": 192,
            "midi": 73,
            "name": "C#5",
            "ticks": 2112,
            "time": 2.999997,
            "velocity": 0.4881889763779528
          },
          {
            "duration": 0.27272700000000016,
            "durationTicks": 192,
            "midi": 73,
            "name": "C#5",
            "ticks": 2112,
            "time": 2.999997,
            "velocity": 0.4881889763779528
          },
          {
            "duration": 0.27272700000000016,
            "durationTicks": 192,
            "midi": 69,
            "name": "A4",
            "ticks": 2112,
            "time": 2.999997,
            "velocity": 0.4881889763779528
          },
          {
            "duration": 0.27272700000000016,
            "durationTicks": 192,
            "midi": 69,
            "name": "A4",
            "ticks": 2112,
            "time": 2.999997,
            "velocity": 0.4881889763779528
          },
          {
            "duration": 0.27272700000000016,
            "durationTicks": 192,
            "midi": 69,
            "name": "A4",
            "ticks": 2112,
            "time": 2.999997,
            "velocity": 0.4881889763779528
          },
          {
            "duration": 0.27272700000000016,
            "durationTicks": 192,
            "midi": 73,
            "name": "C#5",
            "ticks": 2112,
            "time": 2.999997,
            "velocity": 0.4881889763779528
          },
          {
            "duration": 0.27272700000000016,
            "durationTicks": 192,
            "midi": 73,
            "name": "C#5",
            "ticks": 2112,
            "time": 2.999997,
            "velocity": 0.4881889763779528
          },
          {
            "duration": 0.27272700000000016,
            "durationTicks": 192,
            "midi": 69,
            "name": "A4",
            "ticks": 2112,
            "time": 2.999997,
            "velocity": 0.4881889763779528
          },
          {
            "duration": 0.27272700000000016,
            "durationTicks": 192,
            "midi": 73,
            "name": "C#5",
            "ticks": 2112,
            "time": 2.999997,
            "velocity": 0.4881889763779528
          },
          {
            "duration": 0.1363635000000003,
            "durationTicks": 96,
            "midi": 93,
            "name": "A6",
            "ticks": 2208,
            "time": 3.1363605,
            "velocity": 0.4881889763779528
          },
          {
            "duration": 0.1363635000000003,
            "durationTicks": 96,
            "midi": 81,
            "name": "A5",
            "ticks": 2208,
            "time": 3.1363605,
            "velocity": 0.4881889763779528
          },
          {
            "duration": 0.1363635000000003,
            "durationTicks": 96,
            "midi": 81,
            "name": "A5",
            "ticks": 2208,
            "time": 3.1363605,
            "velocity": 0.4881889763779528
          },
          {
            "duration": 0.1363635000000003,
            "durationTicks": 96,
            "midi": 81,
            "name": "A5",
            "ticks": 2208,
            "time": 3.1363605,
            "velocity": 0.4881889763779528
          },
          {
            "duration": 0.1363635000000003,
            "durationTicks": 96,
            "midi": 93,
            "name": "A6",
            "ticks": 2208,
            "time": 3.1363605,
            "velocity": 0.4881889763779528
          },
          {
            "duration": 0.1363635000000003,
            "durationTicks": 96,
            "midi": 81,
            "name": "A5",
            "ticks": 2208,
            "time": 3.1363605,
            "velocity": 0.4881889763779528
          },
          {
            "duration": 0.1363635000000003,
            "durationTicks": 96,
            "midi": 93,
            "name": "A6",
            "ticks": 2208,
            "time": 3.1363605,
            "velocity": 0.4881889763779528
          },
          {
            "duration": 0.1363635000000003,
            "durationTicks": 96,
            "midi": 81,
            "name": "A5",
            "ticks": 2208,
            "time": 3.1363605,
            "velocity": 0.4881889763779528
          },
          {
            "duration": 0.1363635000000003,
            "durationTicks": 96,
            "midi": 93,
            "name": "A6",
            "ticks": 2208,
            "time": 3.1363605,
            "velocity": 0.4881889763779528
          },
          {
            "duration": 0.1363635000000003,
            "durationTicks": 96,
            "midi": 81,
            "name": "A5",
            "ticks": 2208,
            "time": 3.1363605,
            "velocity": 0.4881889763779528
          },
          {
            "duration": 0.1363635000000003,
            "durationTicks": 96,
            "midi": 93,
            "name": "A6",
            "ticks": 2208,
            "time": 3.1363605,
            "velocity": 0.4881889763779528
          },
          {
            "duration": 0.1363635000000003,
            "durationTicks": 96,
            "midi": 93,
            "name": "A6",
            "ticks": 2208,
            "time": 3.1363605,
            "velocity": 0.4881889763779528
          },
          {
            "duration": 0.818181,
            "durationTicks": 576,
            "midi": 80,
            "name": "G#5",
            "ticks": 2304,
            "time": 3.272724,
            "velocity": 0.4881889763779528
          },
          {
            "duration": 0.818181,
            "durationTicks": 576,
            "midi": 92,
            "name": "G#6",
            "ticks": 2304,
            "time": 3.272724,
            "velocity": 0.4881889763779528
          },
          {
            "duration": 0.818181,
            "durationTicks": 576,
            "midi": 92,
            "name": "G#6",
            "ticks": 2304,
            "time": 3.272724,
            "velocity": 0.4881889763779528
          },
          {
            "duration": 0.2727269999999997,
            "durationTicks": 192,
            "midi": 56,
            "name": "G#3",
            "ticks": 2304,
            "time": 3.272724,
            "velocity": 0.4881889763779528
          },
          {
            "duration": 0.818181,
            "durationTicks": 576,
            "midi": 80,
            "name": "G#5",
            "ticks": 2304,
            "time": 3.272724,
            "velocity": 0.4881889763779528
          },
          {
            "duration": 0.818181,
            "durationTicks": 576,
            "midi": 80,
            "name": "G#5",
            "ticks": 2304,
            "time": 3.272724,
            "velocity": 0.4881889763779528
          },
          {
            "duration": 0.818181,
            "durationTicks": 576,
            "midi": 80,
            "name": "G#5",
            "ticks": 2304,
            "time": 3.272724,
            "velocity": 0.4881889763779528
          },
          {
            "duration": 0.2727269999999997,
            "durationTicks": 192,
            "midi": 56,
            "name": "G#3",
            "ticks": 2304,
            "time": 3.272724,
            "velocity": 0.4881889763779528
          },
          {
            "duration": 0.818181,
            "durationTicks": 576,
            "midi": 80,
            "name": "G#5",
            "ticks": 2304,
            "time": 3.272724,
            "velocity": 0.4881889763779528
          },
          {
            "duration": 0.818181,
            "durationTicks": 576,
            "midi": 92,
            "name": "G#6",
            "ticks": 2304,
            "time": 3.272724,
            "velocity": 0.4881889763779528
          },
          {
            "duration": 0.818181,
            "durationTicks": 576,
            "midi": 92,
            "name": "G#6",
            "ticks": 2304,
            "time": 3.272724,
            "velocity": 0.4881889763779528
          },
          {
            "duration": 0.818181,
            "durationTicks": 576,
            "midi": 92,
            "name": "G#6",
            "ticks": 2304,
            "time": 3.272724,
            "velocity": 0.4881889763779528
          },
          {
            "duration": 0.2727269999999997,
            "durationTicks": 192,
            "midi": 56,
            "name": "G#3",
            "ticks": 2304,
            "time": 3.272724,
            "velocity": 0.4881889763779528
          },
          {
            "duration": 0.2727269999999997,
            "durationTicks": 192,
            "midi": 56,
            "name": "G#3",
            "ticks": 2304,
            "time": 3.272724,
            "velocity": 0.4881889763779528
          },
          {
            "duration": 0.2727269999999997,
            "durationTicks": 192,
            "midi": 56,
            "name": "G#3",
            "ticks": 2304,
            "time": 3.272724,
            "velocity": 0.4881889763779528
          },
          {
            "duration": 0.818181,
            "durationTicks": 576,
            "midi": 80,
            "name": "G#5",
            "ticks": 2304,
            "time": 3.272724,
            "velocity": 0.4881889763779528
          },
          {
            "duration": 0.2727269999999997,
            "durationTicks": 192,
            "midi": 56,
            "name": "G#3",
            "ticks": 2304,
            "time": 3.272724,
            "velocity": 0.4881889763779528
          },
          {
            "duration": 0.818181,
            "durationTicks": 576,
            "midi": 92,
            "name": "G#6",
            "ticks": 2304,
            "time": 3.272724,
            "velocity": 0.4881889763779528
          },
          {
            "duration": 0.27272700000000016,
            "durationTicks": 192,
            "midi": 68,
            "name": "G#4",
            "ticks": 2496,
            "time": 3.545451,
            "velocity": 0.4881889763779528
          },
          {
            "duration": 0.27272700000000016,
            "durationTicks": 192,
            "midi": 71,
            "name": "B4",
            "ticks": 2496,
            "time": 3.545451,
            "velocity": 0.4881889763779528
          },
          {
            "duration": 0.27272700000000016,
            "durationTicks": 192,
            "midi": 68,
            "name": "G#4",
            "ticks": 2496,
            "time": 3.545451,
            "velocity": 0.4881889763779528
          },
          {
            "duration": 0.27272700000000016,
            "durationTicks": 192,
            "midi": 71,
            "name": "B4",
            "ticks": 2496,
            "time": 3.545451,
            "velocity": 0.4881889763779528
          },
          {
            "duration": 0.27272700000000016,
            "durationTicks": 192,
            "midi": 71,
            "name": "B4",
            "ticks": 2496,
            "time": 3.545451,
            "velocity": 0.4881889763779528
          },
          {
            "duration": 0.27272700000000016,
            "durationTicks": 192,
            "midi": 71,
            "name": "B4",
            "ticks": 2496,
            "time": 3.545451,
            "velocity": 0.4881889763779528
          },
          {
            "duration": 0.27272700000000016,
            "durationTicks": 192,
            "midi": 68,
            "name": "G#4",
            "ticks": 2496,
            "time": 3.545451,
            "velocity": 0.4881889763779528
          },
          {
            "duration": 0.27272700000000016,
            "durationTicks": 192,
            "midi": 71,
            "name": "B4",
            "ticks": 2496,
            "time": 3.545451,
            "velocity": 0.4881889763779528
          },
          {
            "duration": 0.27272700000000016,
            "durationTicks": 192,
            "midi": 68,
            "name": "G#4",
            "ticks": 2496,
            "time": 3.545451,
            "velocity": 0.4881889763779528
          },
          {
            "duration": 0.27272700000000016,
            "durationTicks": 192,
            "midi": 68,
            "name": "G#4",
            "ticks": 2496,
            "time": 3.545451,
            "velocity": 0.4881889763779528
          },
          {
            "duration": 0.27272700000000016,
            "durationTicks": 192,
            "midi": 68,
            "name": "G#4",
            "ticks": 2496,
            "time": 3.545451,
            "velocity": 0.4881889763779528
          },
          {
            "duration": 0.27272700000000016,
            "durationTicks": 192,
            "midi": 71,
            "name": "B4",
            "ticks": 2496,
            "time": 3.545451,
            "velocity": 0.4881889763779528
          },
          {
            "duration": 0.27272700000000016,
            "durationTicks": 192,
            "midi": 63,
            "name": "D#4",
            "ticks": 2688,
            "time": 3.818178,
            "velocity": 0.4881889763779528
          },
          {
            "duration": 0.27272700000000016,
            "durationTicks": 192,
            "midi": 63,
            "name": "D#4",
            "ticks": 2688,
            "time": 3.818178,
            "velocity": 0.4881889763779528
          },
          {
            "duration": 0.27272700000000016,
            "durationTicks": 192,
            "midi": 63,
            "name": "D#4",
            "ticks": 2688,
            "time": 3.818178,
            "velocity": 0.4881889763779528
          },
          {
            "duration": 0.27272700000000016,
            "durationTicks": 192,
            "midi": 63,
            "name": "D#4",
            "ticks": 2688,
            "time": 3.818178,
            "velocity": 0.4881889763779528
          },
          {
            "duration": 0.27272700000000016,
            "durationTicks": 192,
            "midi": 63,
            "name": "D#4",
            "ticks": 2688,
            "time": 3.818178,
            "velocity": 0.4881889763779528
          },
          {
            "duration": 0.27272700000000016,
            "durationTicks": 192,
            "midi": 63,
            "name": "D#4",
            "ticks": 2688,
            "time": 3.818178,
            "velocity": 0.4881889763779528
          },
          {
            "duration": 0.2727269999999997,
            "durationTicks": 192,
            "midi": 71,
            "name": "B4",
            "ticks": 2880,
            "time": 4.090905,
            "velocity": 0.4881889763779528
          },
          {
            "duration": 0.2727269999999997,
            "durationTicks": 192,
            "midi": 71,
            "name": "B4",
            "ticks": 2880,
            "time": 4.090905,
            "velocity": 0.4881889763779528
          },
          {
            "duration": 0.2727269999999997,
            "durationTicks": 192,
            "midi": 71,
            "name": "B4",
            "ticks": 2880,
            "time": 4.090905,
            "velocity": 0.4881889763779528
          },
          {
            "duration": 0.2727269999999997,
            "durationTicks": 192,
            "midi": 71,
            "name": "B4",
            "ticks": 2880,
            "time": 4.090905,
            "velocity": 0.4881889763779528
          },
          {
            "duration": 0.2727269999999997,
            "durationTicks": 192,
            "midi": 68,
            "name": "G#4",
            "ticks": 2880,
            "time": 4.090905,
            "velocity": 0.4881889763779528
          },
          {
            "duration": 0.2727269999999997,
            "durationTicks": 192,
            "midi": 68,
            "name": "G#4",
            "ticks": 2880,
            "time": 4.090905,
            "velocity": 0.4881889763779528
          },
          {
            "duration": 0.2727269999999997,
            "durationTicks": 192,
            "midi": 68,
            "name": "G#4",
            "ticks": 2880,
            "time": 4.090905,
            "velocity": 0.4881889763779528
          },
          {
            "duration": 0.2727269999999997,
            "durationTicks": 192,
            "midi": 68,
            "name": "G#4",
            "ticks": 2880,
            "time": 4.090905,
            "velocity": 0.4881889763779528
          },
          {
            "duration": 0.2727269999999997,
            "durationTicks": 192,
            "midi": 71,
            "name": "B4",
            "ticks": 2880,
            "time": 4.090905,
            "velocity": 0.4881889763779528
          },
          {
            "duration": 0.2727269999999997,
            "durationTicks": 192,
            "midi": 71,
            "name": "B4",
            "ticks": 2880,
            "time": 4.090905,
            "velocity": 0.4881889763779528
          },
          {
            "duration": 0.2727269999999997,
            "durationTicks": 192,
            "midi": 68,
            "name": "G#4",
            "ticks": 2880,
            "time": 4.090905,
            "velocity": 0.4881889763779528
          },
          {
            "duration": 0.2727269999999997,
            "durationTicks": 192,
            "midi": 68,
            "name": "G#4",
            "ticks": 2880,
            "time": 4.090905,
            "velocity": 0.4881889763779528
          },
          {
            "duration": 0.5454540000000003,
            "durationTicks": 384,
            "midi": 93,
            "name": "A6",
            "ticks": 3072,
            "time": 4.363632,
            "velocity": 0.4881889763779528
          },
          {
            "duration": 0.2727269999999997,
            "durationTicks": 192,
            "midi": 54,
            "name": "F#3",
            "ticks": 3072,
            "time": 4.363632,
            "velocity": 0.4881889763779528
          },
          {
            "duration": 0.2727269999999997,
            "durationTicks": 192,
            "midi": 54,
            "name": "F#3",
            "ticks": 3072,
            "time": 4.363632,
            "velocity": 0.4881889763779528
          },
          {
            "duration": 0.5454540000000003,
            "durationTicks": 384,
            "midi": 81,
            "name": "A5",
            "ticks": 3072,
            "time": 4.363632,
            "velocity": 0.4881889763779528
          },
          {
            "duration": 0.5454540000000003,
            "durationTicks": 384,
            "midi": 93,
            "name": "A6",
            "ticks": 3072,
            "time": 4.363632,
            "velocity": 0.4881889763779528
          },
          {
            "duration": 0.2727269999999997,
            "durationTicks": 192,
            "midi": 54,
            "name": "F#3",
            "ticks": 3072,
            "time": 4.363632,
            "velocity": 0.4881889763779528
          },
          {
            "duration": 0.5454540000000003,
            "durationTicks": 384,
            "midi": 93,
            "name": "A6",
            "ticks": 3072,
            "time": 4.363632,
            "velocity": 0.4881889763779528
          },
          {
            "duration": 0.5454540000000003,
            "durationTicks": 384,
            "midi": 93,
            "name": "A6",
            "ticks": 3072,
            "time": 4.363632,
            "velocity": 0.4881889763779528
          },
          {
            "duration": 0.5454540000000003,
            "durationTicks": 384,
            "midi": 93,
            "name": "A6",
            "ticks": 3072,
            "time": 4.363632,
            "velocity": 0.4881889763779528
          },
          {
            "duration": 0.5454540000000003,
            "durationTicks": 384,
            "midi": 81,
            "name": "A5",
            "ticks": 3072,
            "time": 4.363632,
            "velocity": 0.4881889763779528
          },
          {
            "duration": 0.2727269999999997,
            "durationTicks": 192,
            "midi": 54,
            "name": "F#3",
            "ticks": 3072,
            "time": 4.363632,
            "velocity": 0.4881889763779528
          },
          {
            "duration": 0.2727269999999997,
            "durationTicks": 192,
            "midi": 54,
            "name": "F#3",
            "ticks": 3072,
            "time": 4.363632,
            "velocity": 0.4881889763779528
          },
          {
            "duration": 0.5454540000000003,
            "durationTicks": 384,
            "midi": 81,
            "name": "A5",
            "ticks": 3072,
            "time": 4.363632,
            "velocity": 0.4881889763779528
          },
          {
            "duration": 0.5454540000000003,
            "durationTicks": 384,
            "midi": 81,
            "name": "A5",
            "ticks": 3072,
            "time": 4.363632,
            "velocity": 0.4881889763779528
          },
          {
            "duration": 0.5454540000000003,
            "durationTicks": 384,
            "midi": 81,
            "name": "A5",
            "ticks": 3072,
            "time": 4.363632,
            "velocity": 0.4881889763779528
          },
          {
            "duration": 0.5454540000000003,
            "durationTicks": 384,
            "midi": 93,
            "name": "A6",
            "ticks": 3072,
            "time": 4.363632,
            "velocity": 0.4881889763779528
          },
          {
            "duration": 0.2727269999999997,
            "durationTicks": 192,
            "midi": 54,
            "name": "F#3",
            "ticks": 3072,
            "time": 4.363632,
            "velocity": 0.4881889763779528
          },
          {
            "duration": 0.5454540000000003,
            "durationTicks": 384,
            "midi": 81,
            "name": "A5",
            "ticks": 3072,
            "time": 4.363632,
            "velocity": 0.4881889763779528
          },
          {
            "duration": 0.2727270000000006,
            "durationTicks": 192,
            "midi": 69,
            "name": "A4",
            "ticks": 3264,
            "time": 4.636359,
            "velocity": 0.4881889763779528
          },
          {
            "duration": 0.2727270000000006,
            "durationTicks": 192,
            "midi": 66,
            "name": "F#4",
            "ticks": 3264,
            "time": 4.636359,
            "velocity": 0.4881889763779528
          },
          {
            "duration": 0.2727270000000006,
            "durationTicks": 192,
            "midi": 66,
            "name": "F#4",
            "ticks": 3264,
            "time": 4.636359,
            "velocity": 0.4881889763779528
          },
          {
            "duration": 0.2727270000000006,
            "durationTicks": 192,
            "midi": 66,
            "name": "F#4",
            "ticks": 3264,
            "time": 4.636359,
            "velocity": 0.4881889763779528
          },
          {
            "duration": 0.2727270000000006,
            "durationTicks": 192,
            "midi": 66,
            "name": "F#4",
            "ticks": 3264,
            "time": 4.636359,
            "velocity": 0.4881889763779528
          },
          {
            "duration": 0.2727270000000006,
            "durationTicks": 192,
            "midi": 69,
            "name": "A4",
            "ticks": 3264,
            "time": 4.636359,
            "velocity": 0.4881889763779528
          },
          {
            "duration": 0.2727270000000006,
            "durationTicks": 192,
            "midi": 66,
            "name": "F#4",
            "ticks": 3264,
            "time": 4.636359,
            "velocity": 0.4881889763779528
          },
          {
            "duration": 0.2727270000000006,
            "durationTicks": 192,
            "midi": 66,
            "name": "F#4",
            "ticks": 3264,
            "time": 4.636359,
            "velocity": 0.4881889763779528
          },
          {
            "duration": 0.2727270000000006,
            "durationTicks": 192,
            "midi": 69,
            "name": "A4",
            "ticks": 3264,
            "time": 4.636359,
            "velocity": 0.4881889763779528
          },
          {
            "duration": 0.2727270000000006,
            "durationTicks": 192,
            "midi": 69,
            "name": "A4",
            "ticks": 3264,
            "time": 4.636359,
            "velocity": 0.4881889763779528
          },
          {
            "duration": 0.2727270000000006,
            "durationTicks": 192,
            "midi": 69,
            "name": "A4",
            "ticks": 3264,
            "time": 4.636359,
            "velocity": 0.4881889763779528
          },
          {
            "duration": 0.2727270000000006,
            "durationTicks": 192,
            "midi": 69,
            "name": "A4",
            "ticks": 3264,
            "time": 4.636359,
            "velocity": 0.4881889763779528
          },
          {
            "duration": 0.4090904999999996,
            "durationTicks": 288,
            "midi": 90,
            "name": "F#6",
            "ticks": 3456,
            "time": 4.909086,
            "velocity": 0.4881889763779528
          },
          {
            "duration": 0.4090904999999996,
            "durationTicks": 288,
            "midi": 78,
            "name": "F#5",
            "ticks": 3456,
            "time": 4.909086,
            "velocity": 0.4881889763779528
          },
          {
            "duration": 0.4090904999999996,
            "durationTicks": 288,
            "midi": 90,
            "name": "F#6",
            "ticks": 3456,
            "time": 4.909086,
            "velocity": 0.4881889763779528
          },
          {
            "duration": 0.4090904999999996,
            "durationTicks": 288,
            "midi": 78,
            "name": "F#5",
            "ticks": 3456,
            "time": 4.909086,
            "velocity": 0.4881889763779528
          },
          {
            "duration": 0.4090904999999996,
            "durationTicks": 288,
            "midi": 78,
            "name": "F#5",
            "ticks": 3456,
            "time": 4.909086,
            "velocity": 0.4881889763779528
          },
          {
            "duration": 0.2727269999999997,
            "durationTicks": 192,
            "midi": 61,
            "name": "C#4",
            "ticks": 3456,
            "time": 4.909086,
            "velocity": 0.4881889763779528
          },
          {
            "duration": 0.4090904999999996,
            "durationTicks": 288,
            "midi": 90,
            "name": "F#6",
            "ticks": 3456,
            "time": 4.909086,
            "velocity": 0.4881889763779528
          },
          {
            "duration": 0.2727269999999997,
            "durationTicks": 192,
            "midi": 61,
            "name": "C#4",
            "ticks": 3456,
            "time": 4.909086,
            "velocity": 0.4881889763779528
          },
          {
            "duration": 0.2727269999999997,
            "durationTicks": 192,
            "midi": 61,
            "name": "C#4",
            "ticks": 3456,
            "time": 4.909086,
            "velocity": 0.4881889763779528
          },
          {
            "duration": 0.4090904999999996,
            "durationTicks": 288,
            "midi": 78,
            "name": "F#5",
            "ticks": 3456,
            "time": 4.909086,
            "velocity": 0.4881889763779528
          },
          {
            "duration": 0.2727269999999997,
            "durationTicks": 192,
            "midi": 61,
            "name": "C#4",
            "ticks": 3456,
            "time": 4.909086,
            "velocity": 0.4881889763779528
          },
          {
            "duration": 0.4090904999999996,
            "durationTicks": 288,
            "midi": 90,
            "name": "F#6",
            "ticks": 3456,
            "time": 4.909086,
            "velocity": 0.4881889763779528
          },
          {
            "duration": 0.4090904999999996,
            "durationTicks": 288,
            "midi": 90,
            "name": "F#6",
            "ticks": 3456,
            "time": 4.909086,
            "velocity": 0.4881889763779528
          },
          {
            "duration": 0.4090904999999996,
            "durationTicks": 288,
            "midi": 90,
            "name": "F#6",
            "ticks": 3456,
            "time": 4.909086,
            "velocity": 0.4881889763779528
          },
          {
            "duration": 0.4090904999999996,
            "durationTicks": 288,
            "midi": 78,
            "name": "F#5",
            "ticks": 3456,
            "time": 4.909086,
            "velocity": 0.4881889763779528
          },
          {
            "duration": 0.2727269999999997,
            "durationTicks": 192,
            "midi": 61,
            "name": "C#4",
            "ticks": 3456,
            "time": 4.909086,
            "velocity": 0.4881889763779528
          },
          {
            "duration": 0.2727269999999997,
            "durationTicks": 192,
            "midi": 61,
            "name": "C#4",
            "ticks": 3456,
            "time": 4.909086,
            "velocity": 0.4881889763779528
          },
          {
            "duration": 0.4090904999999996,
            "durationTicks": 288,
            "midi": 78,
            "name": "F#5",
            "ticks": 3456,
            "time": 4.909086,
            "velocity": 0.4881889763779528
          },
          {
            "duration": 0.2727269999999997,
            "durationTicks": 192,
            "midi": 66,
            "name": "F#4",
            "ticks": 3648,
            "time": 5.181813,
            "velocity": 0.4881889763779528
          },
          {
            "duration": 0.2727269999999997,
            "durationTicks": 192,
            "midi": 69,
            "name": "A4",
            "ticks": 3648,
            "time": 5.181813,
            "velocity": 0.4881889763779528
          },
          {
            "duration": 0.2727269999999997,
            "durationTicks": 192,
            "midi": 69,
            "name": "A4",
            "ticks": 3648,
            "time": 5.181813,
            "velocity": 0.4881889763779528
          },
          {
            "duration": 0.2727269999999997,
            "durationTicks": 192,
            "midi": 69,
            "name": "A4",
            "ticks": 3648,
            "time": 5.181813,
            "velocity": 0.4881889763779528
          },
          {
            "duration": 0.2727269999999997,
            "durationTicks": 192,
            "midi": 69,
            "name": "A4",
            "ticks": 3648,
            "time": 5.181813,
            "velocity": 0.4881889763779528
          },
          {
            "duration": 0.2727269999999997,
            "durationTicks": 192,
            "midi": 66,
            "name": "F#4",
            "ticks": 3648,
            "time": 5.181813,
            "velocity": 0.4881889763779528
          },
          {
            "duration": 0.2727269999999997,
            "durationTicks": 192,
            "midi": 69,
            "name": "A4",
            "ticks": 3648,
            "time": 5.181813,
            "velocity": 0.4881889763779528
          },
          {
            "duration": 0.2727269999999997,
            "durationTicks": 192,
            "midi": 66,
            "name": "F#4",
            "ticks": 3648,
            "time": 5.181813,
            "velocity": 0.4881889763779528
          },
          {
            "duration": 0.2727269999999997,
            "durationTicks": 192,
            "midi": 66,
            "name": "F#4",
            "ticks": 3648,
            "time": 5.181813,
            "velocity": 0.4881889763779528
          },
          {
            "duration": 0.2727269999999997,
            "durationTicks": 192,
            "midi": 66,
            "name": "F#4",
            "ticks": 3648,
            "time": 5.181813,
            "velocity": 0.4881889763779528
          },
          {
            "duration": 0.2727269999999997,
            "durationTicks": 192,
            "midi": 69,
            "name": "A4",
            "ticks": 3648,
            "time": 5.181813,
            "velocity": 0.4881889763779528
          },
          {
            "duration": 0.2727269999999997,
            "durationTicks": 192,
            "midi": 66,
            "name": "F#4",
            "ticks": 3648,
            "time": 5.181813,
            "velocity": 0.4881889763779528
          },
          {
            "duration": 0.13636349999999986,
            "durationTicks": 96,
            "midi": 95,
            "name": "B6",
            "ticks": 3744,
            "time": 5.3181765,
            "velocity": 0.4881889763779528
          },
          {
            "duration": 0.13636349999999986,
            "durationTicks": 96,
            "midi": 83,
            "name": "B5",
            "ticks": 3744,
            "time": 5.3181765,
            "velocity": 0.4881889763779528
          },
          {
            "duration": 0.13636349999999986,
            "durationTicks": 96,
            "midi": 95,
            "name": "B6",
            "ticks": 3744,
            "time": 5.3181765,
            "velocity": 0.4881889763779528
          },
          {
            "duration": 0.13636349999999986,
            "durationTicks": 96,
            "midi": 83,
            "name": "B5",
            "ticks": 3744,
            "time": 5.3181765,
            "velocity": 0.4881889763779528
          },
          {
            "duration": 0.13636349999999986,
            "durationTicks": 96,
            "midi": 83,
            "name": "B5",
            "ticks": 3744,
            "time": 5.3181765,
            "velocity": 0.4881889763779528
          },
          {
            "duration": 0.13636349999999986,
            "durationTicks": 96,
            "midi": 95,
            "name": "B6",
            "ticks": 3744,
            "time": 5.3181765,
            "velocity": 0.4881889763779528
          },
          {
            "duration": 0.13636349999999986,
            "durationTicks": 96,
            "midi": 95,
            "name": "B6",
            "ticks": 3744,
            "time": 5.3181765,
            "velocity": 0.4881889763779528
          },
          {
            "duration": 0.13636349999999986,
            "durationTicks": 96,
            "midi": 83,
            "name": "B5",
            "ticks": 3744,
            "time": 5.3181765,
            "velocity": 0.4881889763779528
          },
          {
            "duration": 0.13636349999999986,
            "durationTicks": 96,
            "midi": 83,
            "name": "B5",
            "ticks": 3744,
            "time": 5.3181765,
            "velocity": 0.4881889763779528
          },
          {
            "duration": 0.13636349999999986,
            "durationTicks": 96,
            "midi": 95,
            "name": "B6",
            "ticks": 3744,
            "time": 5.3181765,
            "velocity": 0.4881889763779528
          },
          {
            "duration": 0.13636349999999986,
            "durationTicks": 96,
            "midi": 95,
            "name": "B6",
            "ticks": 3744,
            "time": 5.3181765,
            "velocity": 0.4881889763779528
          },
          {
            "duration": 0.13636349999999986,
            "durationTicks": 96,
            "midi": 83,
            "name": "B5",
            "ticks": 3744,
            "time": 5.3181765,
            "velocity": 0.4881889763779528
          },
          {
            "duration": 1.0909080000000007,
            "durationTicks": 768,
            "midi": 80,
            "name": "G#5",
            "ticks": 3840,
            "time": 5.45454,
            "velocity": 0.4881889763779528
          },
          {
            "duration": 1.0909080000000007,
            "durationTicks": 768,
            "midi": 92,
            "name": "G#6",
            "ticks": 3840,
            "time": 5.45454,
            "velocity": 0.4881889763779528
          },
          {
            "duration": 1.0909080000000007,
            "durationTicks": 768,
            "midi": 92,
            "name": "G#6",
            "ticks": 3840,
            "time": 5.45454,
            "velocity": 0.4881889763779528
          },
          {
            "duration": 1.0909080000000007,
            "durationTicks": 768,
            "midi": 80,
            "name": "G#5",
            "ticks": 3840,
            "time": 5.45454,
            "velocity": 0.4881889763779528
          },
          {
            "duration": 0.2727270000000006,
            "durationTicks": 192,
            "midi": 61,
            "name": "C#4",
            "ticks": 3840,
            "time": 5.45454,
            "velocity": 0.4881889763779528
          },
          {
            "duration": 1.0909080000000007,
            "durationTicks": 768,
            "midi": 80,
            "name": "G#5",
            "ticks": 3840,
            "time": 5.45454,
            "velocity": 0.4881889763779528
          },
          {
            "duration": 1.0909080000000007,
            "durationTicks": 768,
            "midi": 80,
            "name": "G#5",
            "ticks": 3840,
            "time": 5.45454,
            "velocity": 0.4881889763779528
          },
          {
            "duration": 1.0909080000000007,
            "durationTicks": 768,
            "midi": 80,
            "name": "G#5",
            "ticks": 3840,
            "time": 5.45454,
            "velocity": 0.4881889763779528
          },
          {
            "duration": 0.2727270000000006,
            "durationTicks": 192,
            "midi": 61,
            "name": "C#4",
            "ticks": 3840,
            "time": 5.45454,
            "velocity": 0.4881889763779528
          },
          {
            "duration": 0.2727270000000006,
            "durationTicks": 192,
            "midi": 61,
            "name": "C#4",
            "ticks": 3840,
            "time": 5.45454,
            "velocity": 0.4881889763779528
          },
          {
            "duration": 1.0909080000000007,
            "durationTicks": 768,
            "midi": 80,
            "name": "G#5",
            "ticks": 3840,
            "time": 5.45454,
            "velocity": 0.4881889763779528
          },
          {
            "duration": 1.0909080000000007,
            "durationTicks": 768,
            "midi": 92,
            "name": "G#6",
            "ticks": 3840,
            "time": 5.45454,
            "velocity": 0.4881889763779528
          },
          {
            "duration": 0.2727270000000006,
            "durationTicks": 192,
            "midi": 61,
            "name": "C#4",
            "ticks": 3840,
            "time": 5.45454,
            "velocity": 0.4881889763779528
          },
          {
            "duration": 1.0909080000000007,
            "durationTicks": 768,
            "midi": 92,
            "name": "G#6",
            "ticks": 3840,
            "time": 5.45454,
            "velocity": 0.4881889763779528
          },
          {
            "duration": 1.0909080000000007,
            "durationTicks": 768,
            "midi": 92,
            "name": "G#6",
            "ticks": 3840,
            "time": 5.45454,
            "velocity": 0.4881889763779528
          },
          {
            "duration": 0.2727270000000006,
            "durationTicks": 192,
            "midi": 61,
            "name": "C#4",
            "ticks": 3840,
            "time": 5.45454,
            "velocity": 0.4881889763779528
          },
          {
            "duration": 1.0909080000000007,
            "durationTicks": 768,
            "midi": 92,
            "name": "G#6",
            "ticks": 3840,
            "time": 5.45454,
            "velocity": 0.4881889763779528
          },
          {
            "duration": 0.2727270000000006,
            "durationTicks": 192,
            "midi": 61,
            "name": "C#4",
            "ticks": 3840,
            "time": 5.45454,
            "velocity": 0.4881889763779528
          },
          {
            "duration": 0.2727269999999997,
            "durationTicks": 192,
            "midi": 73,
            "name": "C#5",
            "ticks": 4032,
            "time": 5.727267,
            "velocity": 0.4881889763779528
          },
          {
            "duration": 0.2727269999999997,
            "durationTicks": 192,
            "midi": 68,
            "name": "G#4",
            "ticks": 4032,
            "time": 5.727267,
            "velocity": 0.4881889763779528
          },
          {
            "duration": 0.2727269999999997,
            "durationTicks": 192,
            "midi": 68,
            "name": "G#4",
            "ticks": 4032,
            "time": 5.727267,
            "velocity": 0.4881889763779528
          },
          {
            "duration": 0.2727269999999997,
            "durationTicks": 192,
            "midi": 73,
            "name": "C#5",
            "ticks": 4032,
            "time": 5.727267,
            "velocity": 0.4881889763779528
          },
          {
            "duration": 0.2727269999999997,
            "durationTicks": 192,
            "midi": 73,
            "name": "C#5",
            "ticks": 4032,
            "time": 5.727267,
            "velocity": 0.4881889763779528
          },
          {
            "duration": 0.2727269999999997,
            "durationTicks": 192,
            "midi": 73,
            "name": "C#5",
            "ticks": 4032,
            "time": 5.727267,
            "velocity": 0.4881889763779528
          },
          {
            "duration": 0.2727269999999997,
            "durationTicks": 192,
            "midi": 68,
            "name": "G#4",
            "ticks": 4032,
            "time": 5.727267,
            "velocity": 0.4881889763779528
          },
          {
            "duration": 0.2727269999999997,
            "durationTicks": 192,
            "midi": 68,
            "name": "G#4",
            "ticks": 4032,
            "time": 5.727267,
            "velocity": 0.4881889763779528
          },
          {
            "duration": 0.2727269999999997,
            "durationTicks": 192,
            "midi": 73,
            "name": "C#5",
            "ticks": 4032,
            "time": 5.727267,
            "velocity": 0.4881889763779528
          },
          {
            "duration": 0.2727269999999997,
            "durationTicks": 192,
            "midi": 68,
            "name": "G#4",
            "ticks": 4032,
            "time": 5.727267,
            "velocity": 0.4881889763779528
          },
          {
            "duration": 0.2727269999999997,
            "durationTicks": 192,
            "midi": 73,
            "name": "C#5",
            "ticks": 4032,
            "time": 5.727267,
            "velocity": 0.4881889763779528
          },
          {
            "duration": 0.2727269999999997,
            "durationTicks": 192,
            "midi": 68,
            "name": "G#4",
            "ticks": 4032,
            "time": 5.727267,
            "velocity": 0.4881889763779528
          },
          {
            "duration": 0.2727269999999997,
            "durationTicks": 192,
            "midi": 64,
            "name": "E4",
            "ticks": 4224,
            "time": 5.999994,
            "velocity": 0.4881889763779528
          },
          {
            "duration": 0.2727269999999997,
            "durationTicks": 192,
            "midi": 64,
            "name": "E4",
            "ticks": 4224,
            "time": 5.999994,
            "velocity": 0.4881889763779528
          },
          {
            "duration": 0.2727269999999997,
            "durationTicks": 192,
            "midi": 64,
            "name": "E4",
            "ticks": 4224,
            "time": 5.999994,
            "velocity": 0.4881889763779528
          },
          {
            "duration": 0.2727269999999997,
            "durationTicks": 192,
            "midi": 64,
            "name": "E4",
            "ticks": 4224,
            "time": 5.999994,
            "velocity": 0.4881889763779528
          },
          {
            "duration": 0.2727269999999997,
            "durationTicks": 192,
            "midi": 64,
            "name": "E4",
            "ticks": 4224,
            "time": 5.999994,
            "velocity": 0.4881889763779528
          },
          {
            "duration": 0.2727269999999997,
            "durationTicks": 192,
            "midi": 64,
            "name": "E4",
            "ticks": 4224,
            "time": 5.999994,
            "velocity": 0.4881889763779528
          },
          {
            "duration": 0.2727270000000006,
            "durationTicks": 192,
            "midi": 68,
            "name": "G#4",
            "ticks": 4416,
            "time": 6.272721,
            "velocity": 0.4881889763779528
          },
          {
            "duration": 0.2727270000000006,
            "durationTicks": 192,
            "midi": 68,
            "name": "G#4",
            "ticks": 4416,
            "time": 6.272721,
            "velocity": 0.4881889763779528
          },
          {
            "duration": 0.2727270000000006,
            "durationTicks": 192,
            "midi": 68,
            "name": "G#4",
            "ticks": 4416,
            "time": 6.272721,
            "velocity": 0.4881889763779528
          },
          {
            "duration": 0.2727270000000006,
            "durationTicks": 192,
            "midi": 73,
            "name": "C#5",
            "ticks": 4416,
            "time": 6.272721,
            "velocity": 0.4881889763779528
          },
          {
            "duration": 0.2727270000000006,
            "durationTicks": 192,
            "midi": 73,
            "name": "C#5",
            "ticks": 4416,
            "time": 6.272721,
            "velocity": 0.4881889763779528
          },
          {
            "duration": 0.2727270000000006,
            "durationTicks": 192,
            "midi": 68,
            "name": "G#4",
            "ticks": 4416,
            "time": 6.272721,
            "velocity": 0.4881889763779528
          },
          {
            "duration": 0.2727270000000006,
            "durationTicks": 192,
            "midi": 73,
            "name": "C#5",
            "ticks": 4416,
            "time": 6.272721,
            "velocity": 0.4881889763779528
          },
          {
            "duration": 0.2727270000000006,
            "durationTicks": 192,
            "midi": 73,
            "name": "C#5",
            "ticks": 4416,
            "time": 6.272721,
            "velocity": 0.4881889763779528
          },
          {
            "duration": 0.2727270000000006,
            "durationTicks": 192,
            "midi": 73,
            "name": "C#5",
            "ticks": 4416,
            "time": 6.272721,
            "velocity": 0.4881889763779528
          },
          {
            "duration": 0.2727270000000006,
            "durationTicks": 192,
            "midi": 68,
            "name": "G#4",
            "ticks": 4416,
            "time": 6.272721,
            "velocity": 0.4881889763779528
          },
          {
            "duration": 0.2727270000000006,
            "durationTicks": 192,
            "midi": 73,
            "name": "C#5",
            "ticks": 4416,
            "time": 6.272721,
            "velocity": 0.4881889763779528
          },
          {
            "duration": 0.2727270000000006,
            "durationTicks": 192,
            "midi": 68,
            "name": "G#4",
            "ticks": 4416,
            "time": 6.272721,
            "velocity": 0.4881889763779528
          },
          {
            "duration": 0.2727269999999997,
            "durationTicks": 192,
            "midi": 54,
            "name": "F#3",
            "ticks": 4608,
            "time": 6.545448,
            "velocity": 0.4881889763779528
          },
          {
            "duration": 0.5454539999999994,
            "durationTicks": 384,
            "midi": 88,
            "name": "E6",
            "ticks": 4608,
            "time": 6.545448,
            "velocity": 0.4881889763779528
          },
          {
            "duration": 0.2727269999999997,
            "durationTicks": 192,
            "midi": 54,
            "name": "F#3",
            "ticks": 4608,
            "time": 6.545448,
            "velocity": 0.4881889763779528
          },
          {
            "duration": 0.5454539999999994,
            "durationTicks": 384,
            "midi": 88,
            "name": "E6",
            "ticks": 4608,
            "time": 6.545448,
            "velocity": 0.4881889763779528
          },
          {
            "duration": 0.5454539999999994,
            "durationTicks": 384,
            "midi": 76,
            "name": "E5",
            "ticks": 4608,
            "time": 6.545448,
            "velocity": 0.4881889763779528
          },
          {
            "duration": 0.5454539999999994,
            "durationTicks": 384,
            "midi": 88,
            "name": "E6",
            "ticks": 4608,
            "time": 6.545448,
            "velocity": 0.4881889763779528
          },
          {
            "duration": 0.2727269999999997,
            "durationTicks": 192,
            "midi": 54,
            "name": "F#3",
            "ticks": 4608,
            "time": 6.545448,
            "velocity": 0.4881889763779528
          },
          {
            "duration": 0.5454539999999994,
            "durationTicks": 384,
            "midi": 88,
            "name": "E6",
            "ticks": 4608,
            "time": 6.545448,
            "velocity": 0.4881889763779528
          },
          {
            "duration": 0.5454539999999994,
            "durationTicks": 384,
            "midi": 76,
            "name": "E5",
            "ticks": 4608,
            "time": 6.545448,
            "velocity": 0.4881889763779528
          },
          {
            "duration": 0.5454539999999994,
            "durationTicks": 384,
            "midi": 88,
            "name": "E6",
            "ticks": 4608,
            "time": 6.545448,
            "velocity": 0.4881889763779528
          },
          {
            "duration": 0.2727269999999997,
            "durationTicks": 192,
            "midi": 54,
            "name": "F#3",
            "ticks": 4608,
            "time": 6.545448,
            "velocity": 0.4881889763779528
          },
          {
            "duration": 0.5454539999999994,
            "durationTicks": 384,
            "midi": 76,
            "name": "E5",
            "ticks": 4608,
            "time": 6.545448,
            "velocity": 0.4881889763779528
          },
          {
            "duration": 0.2727269999999997,
            "durationTicks": 192,
            "midi": 54,
            "name": "F#3",
            "ticks": 4608,
            "time": 6.545448,
            "velocity": 0.4881889763779528
          },
          {
            "duration": 0.5454539999999994,
            "durationTicks": 384,
            "midi": 88,
            "name": "E6",
            "ticks": 4608,
            "time": 6.545448,
            "velocity": 0.4881889763779528
          },
          {
            "duration": 0.5454539999999994,
            "durationTicks": 384,
            "midi": 76,
            "name": "E5",
            "ticks": 4608,
            "time": 6.545448,
            "velocity": 0.4881889763779528
          },
          {
            "duration": 0.5454539999999994,
            "durationTicks": 384,
            "midi": 76,
            "name": "E5",
            "ticks": 4608,
            "time": 6.545448,
            "velocity": 0.4881889763779528
          },
          {
            "duration": 0.2727269999999997,
            "durationTicks": 192,
            "midi": 54,
            "name": "F#3",
            "ticks": 4608,
            "time": 6.545448,
            "velocity": 0.4881889763779528
          },
          {
            "duration": 0.5454539999999994,
            "durationTicks": 384,
            "midi": 76,
            "name": "E5",
            "ticks": 4608,
            "time": 6.545448,
            "velocity": 0.4881889763779528
          },
          {
            "duration": 0.2727269999999997,
            "durationTicks": 192,
            "midi": 69,
            "name": "A4",
            "ticks": 4800,
            "time": 6.818175,
            "velocity": 0.4881889763779528
          },
          {
            "duration": 0.2727269999999997,
            "durationTicks": 192,
            "midi": 66,
            "name": "F#4",
            "ticks": 4800,
            "time": 6.818175,
            "velocity": 0.4881889763779528
          },
          {
            "duration": 0.2727269999999997,
            "durationTicks": 192,
            "midi": 69,
            "name": "A4",
            "ticks": 4800,
            "time": 6.818175,
            "velocity": 0.4881889763779528
          },
          {
            "duration": 0.2727269999999997,
            "durationTicks": 192,
            "midi": 69,
            "name": "A4",
            "ticks": 4800,
            "time": 6.818175,
            "velocity": 0.4881889763779528
          },
          {
            "duration": 0.2727269999999997,
            "durationTicks": 192,
            "midi": 66,
            "name": "F#4",
            "ticks": 4800,
            "time": 6.818175,
            "velocity": 0.4881889763779528
          },
          {
            "duration": 0.2727269999999997,
            "durationTicks": 192,
            "midi": 66,
            "name": "F#4",
            "ticks": 4800,
            "time": 6.818175,
            "velocity": 0.4881889763779528
          },
          {
            "duration": 0.2727269999999997,
            "durationTicks": 192,
            "midi": 66,
            "name": "F#4",
            "ticks": 4800,
            "time": 6.818175,
            "velocity": 0.4881889763779528
          },
          {
            "duration": 0.2727269999999997,
            "durationTicks": 192,
            "midi": 69,
            "name": "A4",
            "ticks": 4800,
            "time": 6.818175,
            "velocity": 0.4881889763779528
          },
          {
            "duration": 0.2727269999999997,
            "durationTicks": 192,
            "midi": 66,
            "name": "F#4",
            "ticks": 4800,
            "time": 6.818175,
            "velocity": 0.4881889763779528
          },
          {
            "duration": 0.2727269999999997,
            "durationTicks": 192,
            "midi": 69,
            "name": "A4",
            "ticks": 4800,
            "time": 6.818175,
            "velocity": 0.4881889763779528
          },
          {
            "duration": 0.2727269999999997,
            "durationTicks": 192,
            "midi": 66,
            "name": "F#4",
            "ticks": 4800,
            "time": 6.818175,
            "velocity": 0.4881889763779528
          },
          {
            "duration": 0.2727269999999997,
            "durationTicks": 192,
            "midi": 69,
            "name": "A4",
            "ticks": 4800,
            "time": 6.818175,
            "velocity": 0.4881889763779528
          },
          {
            "duration": 0.40909050000000047,
            "durationTicks": 288,
            "midi": 73,
            "name": "C#5",
            "ticks": 4992,
            "time": 7.090902,
            "velocity": 0.4881889763779528
          },
          {
            "duration": 0.40909050000000047,
            "durationTicks": 288,
            "midi": 85,
            "name": "C#6",
            "ticks": 4992,
            "time": 7.090902,
            "velocity": 0.4881889763779528
          },
          {
            "duration": 0.40909050000000047,
            "durationTicks": 288,
            "midi": 85,
            "name": "C#6",
            "ticks": 4992,
            "time": 7.090902,
            "velocity": 0.4881889763779528
          },
          {
            "duration": 0.40909050000000047,
            "durationTicks": 288,
            "midi": 73,
            "name": "C#5",
            "ticks": 4992,
            "time": 7.090902,
            "velocity": 0.4881889763779528
          },
          {
            "duration": 0.40909050000000047,
            "durationTicks": 288,
            "midi": 85,
            "name": "C#6",
            "ticks": 4992,
            "time": 7.090902,
            "velocity": 0.4881889763779528
          },
          {
            "duration": 0.2727269999999997,
            "durationTicks": 192,
            "midi": 61,
            "name": "C#4",
            "ticks": 4992,
            "time": 7.090902,
            "velocity": 0.4881889763779528
          },
          {
            "duration": 0.40909050000000047,
            "durationTicks": 288,
            "midi": 73,
            "name": "C#5",
            "ticks": 4992,
            "time": 7.090902,
            "velocity": 0.4881889763779528
          },
          {
            "duration": 0.40909050000000047,
            "durationTicks": 288,
            "midi": 85,
            "name": "C#6",
            "ticks": 4992,
            "time": 7.090902,
            "velocity": 0.4881889763779528
          },
          {
            "duration": 0.40909050000000047,
            "durationTicks": 288,
            "midi": 85,
            "name": "C#6",
            "ticks": 4992,
            "time": 7.090902,
            "velocity": 0.4881889763779528
          },
          {
            "duration": 0.40909050000000047,
            "durationTicks": 288,
            "midi": 85,
            "name": "C#6",
            "ticks": 4992,
            "time": 7.090902,
            "velocity": 0.4881889763779528
          },
          {
            "duration": 0.40909050000000047,
            "durationTicks": 288,
            "midi": 73,
            "name": "C#5",
            "ticks": 4992,
            "time": 7.090902,
            "velocity": 0.4881889763779528
          },
          {
            "duration": 0.40909050000000047,
            "durationTicks": 288,
            "midi": 73,
            "name": "C#5",
            "ticks": 4992,
            "time": 7.090902,
            "velocity": 0.4881889763779528
          },
          {
            "duration": 0.2727269999999997,
            "durationTicks": 192,
            "midi": 61,
            "name": "C#4",
            "ticks": 4992,
            "time": 7.090902,
            "velocity": 0.4881889763779528
          },
          {
            "duration": 0.40909050000000047,
            "durationTicks": 288,
            "midi": 73,
            "name": "C#5",
            "ticks": 4992,
            "time": 7.090902,
            "velocity": 0.4881889763779528
          },
          {
            "duration": 0.2727269999999997,
            "durationTicks": 192,
            "midi": 61,
            "name": "C#4",
            "ticks": 4992,
            "time": 7.090902,
            "velocity": 0.4881889763779528
          },
          {
            "duration": 0.2727269999999997,
            "durationTicks": 192,
            "midi": 61,
            "name": "C#4",
            "ticks": 4992,
            "time": 7.090902,
            "velocity": 0.4881889763779528
          },
          {
            "duration": 0.2727269999999997,
            "durationTicks": 192,
            "midi": 61,
            "name": "C#4",
            "ticks": 4992,
            "time": 7.090902,
            "velocity": 0.4881889763779528
          },
          {
            "duration": 0.2727269999999997,
            "durationTicks": 192,
            "midi": 61,
            "name": "C#4",
            "ticks": 4992,
            "time": 7.090902,
            "velocity": 0.4881889763779528
          },
          {
            "duration": 0.2727270000000006,
            "durationTicks": 192,
            "midi": 69,
            "name": "A4",
            "ticks": 5184,
            "time": 7.3636289999999995,
            "velocity": 0.4881889763779528
          },
          {
            "duration": 0.2727270000000006,
            "durationTicks": 192,
            "midi": 69,
            "name": "A4",
            "ticks": 5184,
            "time": 7.3636289999999995,
            "velocity": 0.4881889763779528
          },
          {
            "duration": 0.2727270000000006,
            "durationTicks": 192,
            "midi": 69,
            "name": "A4",
            "ticks": 5184,
            "time": 7.3636289999999995,
            "velocity": 0.4881889763779528
          },
          {
            "duration": 0.2727270000000006,
            "durationTicks": 192,
            "midi": 66,
            "name": "F#4",
            "ticks": 5184,
            "time": 7.3636289999999995,
            "velocity": 0.4881889763779528
          },
          {
            "duration": 0.2727270000000006,
            "durationTicks": 192,
            "midi": 66,
            "name": "F#4",
            "ticks": 5184,
            "time": 7.3636289999999995,
            "velocity": 0.4881889763779528
          },
          {
            "duration": 0.2727270000000006,
            "durationTicks": 192,
            "midi": 66,
            "name": "F#4",
            "ticks": 5184,
            "time": 7.3636289999999995,
            "velocity": 0.4881889763779528
          },
          {
            "duration": 0.2727270000000006,
            "durationTicks": 192,
            "midi": 66,
            "name": "F#4",
            "ticks": 5184,
            "time": 7.3636289999999995,
            "velocity": 0.4881889763779528
          },
          {
            "duration": 0.2727270000000006,
            "durationTicks": 192,
            "midi": 69,
            "name": "A4",
            "ticks": 5184,
            "time": 7.3636289999999995,
            "velocity": 0.4881889763779528
          },
          {
            "duration": 0.2727270000000006,
            "durationTicks": 192,
            "midi": 69,
            "name": "A4",
            "ticks": 5184,
            "time": 7.3636289999999995,
            "velocity": 0.4881889763779528
          },
          {
            "duration": 0.2727270000000006,
            "durationTicks": 192,
            "midi": 66,
            "name": "F#4",
            "ticks": 5184,
            "time": 7.3636289999999995,
            "velocity": 0.4881889763779528
          },
          {
            "duration": 0.2727270000000006,
            "durationTicks": 192,
            "midi": 66,
            "name": "F#4",
            "ticks": 5184,
            "time": 7.3636289999999995,
            "velocity": 0.4881889763779528
          },
          {
            "duration": 0.2727270000000006,
            "durationTicks": 192,
            "midi": 69,
            "name": "A4",
            "ticks": 5184,
            "time": 7.3636289999999995,
            "velocity": 0.4881889763779528
          },
          {
            "duration": 0.13636349999999986,
            "durationTicks": 96,
            "midi": 90,
            "name": "F#6",
            "ticks": 5280,
            "time": 7.4999925,
            "velocity": 0.4881889763779528
          },
          {
            "duration": 0.13636349999999986,
            "durationTicks": 96,
            "midi": 78,
            "name": "F#5",
            "ticks": 5280,
            "time": 7.4999925,
            "velocity": 0.4881889763779528
          },
          {
            "duration": 0.13636349999999986,
            "durationTicks": 96,
            "midi": 90,
            "name": "F#6",
            "ticks": 5280,
            "time": 7.4999925,
            "velocity": 0.4881889763779528
          },
          {
            "duration": 0.13636349999999986,
            "durationTicks": 96,
            "midi": 90,
            "name": "F#6",
            "ticks": 5280,
            "time": 7.4999925,
            "velocity": 0.4881889763779528
          },
          {
            "duration": 0.13636349999999986,
            "durationTicks": 96,
            "midi": 78,
            "name": "F#5",
            "ticks": 5280,
            "time": 7.4999925,
            "velocity": 0.4881889763779528
          },
          {
            "duration": 0.13636349999999986,
            "durationTicks": 96,
            "midi": 78,
            "name": "F#5",
            "ticks": 5280,
            "time": 7.4999925,
            "velocity": 0.4881889763779528
          },
          {
            "duration": 0.13636349999999986,
            "durationTicks": 96,
            "midi": 90,
            "name": "F#6",
            "ticks": 5280,
            "time": 7.4999925,
            "velocity": 0.4881889763779528
          },
          {
            "duration": 0.13636349999999986,
            "durationTicks": 96,
            "midi": 90,
            "name": "F#6",
            "ticks": 5280,
            "time": 7.4999925,
            "velocity": 0.4881889763779528
          },
          {
            "duration": 0.13636349999999986,
            "durationTicks": 96,
            "midi": 90,
            "name": "F#6",
            "ticks": 5280,
            "time": 7.4999925,
            "velocity": 0.4881889763779528
          },
          {
            "duration": 0.13636349999999986,
            "durationTicks": 96,
            "midi": 78,
            "name": "F#5",
            "ticks": 5280,
            "time": 7.4999925,
            "velocity": 0.4881889763779528
          },
          {
            "duration": 0.13636349999999986,
            "durationTicks": 96,
            "midi": 78,
            "name": "F#5",
            "ticks": 5280,
            "time": 7.4999925,
            "velocity": 0.4881889763779528
          },
          {
            "duration": 0.13636349999999986,
            "durationTicks": 96,
            "midi": 78,
            "name": "F#5",
            "ticks": 5280,
            "time": 7.4999925,
            "velocity": 0.4881889763779528
          },
          {
            "duration": 0.5454540000000003,
            "durationTicks": 384,
            "midi": 56,
            "name": "G#3",
            "ticks": 5376,
            "time": 7.636356,
            "velocity": 0.4881889763779528
          },
          {
            "duration": 1.0909079999999998,
            "durationTicks": 768,
            "midi": 73,
            "name": "C#5",
            "ticks": 5376,
            "time": 7.636356,
            "velocity": 0.4881889763779528
          },
          {
            "duration": 1.0909079999999998,
            "durationTicks": 768,
            "midi": 85,
            "name": "C#6",
            "ticks": 5376,
            "time": 7.636356,
            "velocity": 0.4881889763779528
          },
          {
            "duration": 1.0909079999999998,
            "durationTicks": 768,
            "midi": 73,
            "name": "C#5",
            "ticks": 5376,
            "time": 7.636356,
            "velocity": 0.4881889763779528
          },
          {
            "duration": 0.5454540000000003,
            "durationTicks": 384,
            "midi": 56,
            "name": "G#3",
            "ticks": 5376,
            "time": 7.636356,
            "velocity": 0.4881889763779528
          },
          {
            "duration": 1.0909079999999998,
            "durationTicks": 768,
            "midi": 85,
            "name": "C#6",
            "ticks": 5376,
            "time": 7.636356,
            "velocity": 0.4881889763779528
          },
          {
            "duration": 1.0909079999999998,
            "durationTicks": 768,
            "midi": 73,
            "name": "C#5",
            "ticks": 5376,
            "time": 7.636356,
            "velocity": 0.4881889763779528
          },
          {
            "duration": 0.5454540000000003,
            "durationTicks": 384,
            "midi": 56,
            "name": "G#3",
            "ticks": 5376,
            "time": 7.636356,
            "velocity": 0.4881889763779528
          },
          {
            "duration": 0.5454540000000003,
            "durationTicks": 384,
            "midi": 56,
            "name": "G#3",
            "ticks": 5376,
            "time": 7.636356,
            "velocity": 0.4881889763779528
          },
          {
            "duration": 1.0909079999999998,
            "durationTicks": 768,
            "midi": 73,
            "name": "C#5",
            "ticks": 5376,
            "time": 7.636356,
            "velocity": 0.4881889763779528
          },
          {
            "duration": 1.0909079999999998,
            "durationTicks": 768,
            "midi": 85,
            "name": "C#6",
            "ticks": 5376,
            "time": 7.636356,
            "velocity": 0.4881889763779528
          },
          {
            "duration": 1.0909079999999998,
            "durationTicks": 768,
            "midi": 85,
            "name": "C#6",
            "ticks": 5376,
            "time": 7.636356,
            "velocity": 0.4881889763779528
          },
          {
            "duration": 0.5454540000000003,
            "durationTicks": 384,
            "midi": 56,
            "name": "G#3",
            "ticks": 5376,
            "time": 7.636356,
            "velocity": 0.4881889763779528
          },
          {
            "duration": 0.5454540000000003,
            "durationTicks": 384,
            "midi": 56,
            "name": "G#3",
            "ticks": 5376,
            "time": 7.636356,
            "velocity": 0.4881889763779528
          },
          {
            "duration": 1.0909079999999998,
            "durationTicks": 768,
            "midi": 73,
            "name": "C#5",
            "ticks": 5376,
            "time": 7.636356,
            "velocity": 0.4881889763779528
          },
          {
            "duration": 1.0909079999999998,
            "durationTicks": 768,
            "midi": 73,
            "name": "C#5",
            "ticks": 5376,
            "time": 7.636356,
            "velocity": 0.4881889763779528
          },
          {
            "duration": 1.0909079999999998,
            "durationTicks": 768,
            "midi": 85,
            "name": "C#6",
            "ticks": 5376,
            "time": 7.636356,
            "velocity": 0.4881889763779528
          },
          {
            "duration": 1.0909079999999998,
            "durationTicks": 768,
            "midi": 85,
            "name": "C#6",
            "ticks": 5376,
            "time": 7.636356,
            "velocity": 0.4881889763779528
          },
          {
            "duration": 0.5454539999999994,
            "durationTicks": 384,
            "midi": 68,
            "name": "G#4",
            "ticks": 5760,
            "time": 8.18181,
            "velocity": 0.4881889763779528
          },
          {
            "duration": 0.5454539999999994,
            "durationTicks": 384,
            "midi": 63,
            "name": "D#4",
            "ticks": 5760,
            "time": 8.18181,
            "velocity": 0.4881889763779528
          },
          {
            "duration": 0.5454539999999994,
            "durationTicks": 384,
            "midi": 73,
            "name": "C#5",
            "ticks": 5760,
            "time": 8.18181,
            "velocity": 0.4881889763779528
          },
          {
            "duration": 0.5454539999999994,
            "durationTicks": 384,
            "midi": 63,
            "name": "D#4",
            "ticks": 5760,
            "time": 8.18181,
            "velocity": 0.4881889763779528
          },
          {
            "duration": 0.5454539999999994,
            "durationTicks": 384,
            "midi": 68,
            "name": "G#4",
            "ticks": 5760,
            "time": 8.18181,
            "velocity": 0.4881889763779528
          },
          {
            "duration": 0.5454539999999994,
            "durationTicks": 384,
            "midi": 73,
            "name": "C#5",
            "ticks": 5760,
            "time": 8.18181,
            "velocity": 0.4881889763779528
          },
          {
            "duration": 0.5454539999999994,
            "durationTicks": 384,
            "midi": 73,
            "name": "C#5",
            "ticks": 5760,
            "time": 8.18181,
            "velocity": 0.4881889763779528
          },
          {
            "duration": 0.5454539999999994,
            "durationTicks": 384,
            "midi": 73,
            "name": "C#5",
            "ticks": 5760,
            "time": 8.18181,
            "velocity": 0.4881889763779528
          },
          {
            "duration": 0.5454539999999994,
            "durationTicks": 384,
            "midi": 63,
            "name": "D#4",
            "ticks": 5760,
            "time": 8.18181,
            "velocity": 0.4881889763779528
          },
          {
            "duration": 0.5454539999999994,
            "durationTicks": 384,
            "midi": 63,
            "name": "D#4",
            "ticks": 5760,
            "time": 8.18181,
            "velocity": 0.4881889763779528
          },
          {
            "duration": 0.5454539999999994,
            "durationTicks": 384,
            "midi": 68,
            "name": "G#4",
            "ticks": 5760,
            "time": 8.18181,
            "velocity": 0.4881889763779528
          },
          {
            "duration": 0.5454539999999994,
            "durationTicks": 384,
            "midi": 68,
            "name": "G#4",
            "ticks": 5760,
            "time": 8.18181,
            "velocity": 0.4881889763779528
          },
          {
            "duration": 0.5454539999999994,
            "durationTicks": 384,
            "midi": 63,
            "name": "D#4",
            "ticks": 5760,
            "time": 8.18181,
            "velocity": 0.4881889763779528
          },
          {
            "duration": 0.5454539999999994,
            "durationTicks": 384,
            "midi": 73,
            "name": "C#5",
            "ticks": 5760,
            "time": 8.18181,
            "velocity": 0.4881889763779528
          },
          {
            "duration": 0.5454539999999994,
            "durationTicks": 384,
            "midi": 63,
            "name": "D#4",
            "ticks": 5760,
            "time": 8.18181,
            "velocity": 0.4881889763779528
          },
          {
            "duration": 0.5454539999999994,
            "durationTicks": 384,
            "midi": 68,
            "name": "G#4",
            "ticks": 5760,
            "time": 8.18181,
            "velocity": 0.4881889763779528
          },
          {
            "duration": 0.5454539999999994,
            "durationTicks": 384,
            "midi": 68,
            "name": "G#4",
            "ticks": 5760,
            "time": 8.18181,
            "velocity": 0.4881889763779528
          },
          {
            "duration": 0.5454539999999994,
            "durationTicks": 384,
            "midi": 73,
            "name": "C#5",
            "ticks": 5760,
            "time": 8.18181,
            "velocity": 0.4881889763779528
          },
          {
            "duration": 0.5454539999999994,
            "durationTicks": 384,
            "midi": 61,
            "name": "C#4",
            "ticks": 6144,
            "time": 8.727264,
            "velocity": 0.4881889763779528
          },
          {
            "duration": 0.5454539999999994,
            "durationTicks": 384,
            "midi": 61,
            "name": "C#4",
            "ticks": 6144,
            "time": 8.727264,
            "velocity": 0.4881889763779528
          },
          {
            "duration": 0.5454539999999994,
            "durationTicks": 384,
            "midi": 49,
            "name": "C#3",
            "ticks": 6144,
            "time": 8.727264,
            "velocity": 0.4881889763779528
          },
          {
            "duration": 0.5454539999999994,
            "durationTicks": 384,
            "midi": 49,
            "name": "C#3",
            "ticks": 6144,
            "time": 8.727264,
            "velocity": 0.4881889763779528
          },
          {
            "duration": 0.5454539999999994,
            "durationTicks": 384,
            "midi": 61,
            "name": "C#4",
            "ticks": 6144,
            "time": 8.727264,
            "velocity": 0.4881889763779528
          },
          {
            "duration": 0.5454539999999994,
            "durationTicks": 384,
            "midi": 49,
            "name": "C#3",
            "ticks": 6144,
            "time": 8.727264,
            "velocity": 0.4881889763779528
          },
          {
            "duration": 0.5454539999999994,
            "durationTicks": 384,
            "midi": 61,
            "name": "C#4",
            "ticks": 6144,
            "time": 8.727264,
            "velocity": 0.4881889763779528
          },
          {
            "duration": 0.5454539999999994,
            "durationTicks": 384,
            "midi": 49,
            "name": "C#3",
            "ticks": 6144,
            "time": 8.727264,
            "velocity": 0.4881889763779528
          },
          {
            "duration": 0.5454539999999994,
            "durationTicks": 384,
            "midi": 49,
            "name": "C#3",
            "ticks": 6144,
            "time": 8.727264,
            "velocity": 0.4881889763779528
          },
          {
            "duration": 0.5454539999999994,
            "durationTicks": 384,
            "midi": 61,
            "name": "C#4",
            "ticks": 6144,
            "time": 8.727264,
            "velocity": 0.4881889763779528
          },
          {
            "duration": 0.5454539999999994,
            "durationTicks": 384,
            "midi": 49,
            "name": "C#3",
            "ticks": 6144,
            "time": 8.727264,
            "velocity": 0.4881889763779528
          },
          {
            "duration": 0.5454539999999994,
            "durationTicks": 384,
            "midi": 61,
            "name": "C#4",
            "ticks": 6144,
            "time": 8.727264,
            "velocity": 0.4881889763779528
          },
          {
            "duration": 0.2727269999999997,
            "durationTicks": 192,
            "midi": 88,
            "name": "E6",
            "ticks": 6336,
            "time": 8.999991,
            "velocity": 0.4881889763779528
          },
          {
            "duration": 0.2727269999999997,
            "durationTicks": 192,
            "midi": 88,
            "name": "E6",
            "ticks": 6336,
            "time": 8.999991,
            "velocity": 0.4881889763779528
          },
          {
            "duration": 0.2727269999999997,
            "durationTicks": 192,
            "midi": 88,
            "name": "E6",
            "ticks": 6336,
            "time": 8.999991,
            "velocity": 0.4881889763779528
          },
          {
            "duration": 0.2727269999999997,
            "durationTicks": 192,
            "midi": 88,
            "name": "E6",
            "ticks": 6336,
            "time": 8.999991,
            "velocity": 0.4881889763779528
          },
          {
            "duration": 0.2727269999999997,
            "durationTicks": 192,
            "midi": 88,
            "name": "E6",
            "ticks": 6336,
            "time": 8.999991,
            "velocity": 0.4881889763779528
          },
          {
            "duration": 0.2727269999999997,
            "durationTicks": 192,
            "midi": 88,
            "name": "E6",
            "ticks": 6336,
            "time": 8.999991,
            "velocity": 0.4881889763779528
          },
          {
            "duration": 0.5454540000000012,
            "durationTicks": 384,
            "midi": 73,
            "name": "C#5",
            "ticks": 6528,
            "time": 9.272718,
            "velocity": 0.4881889763779528
          },
          {
            "duration": 0.5454540000000012,
            "durationTicks": 384,
            "midi": 68,
            "name": "G#4",
            "ticks": 6528,
            "time": 9.272718,
            "velocity": 0.4881889763779528
          },
          {
            "duration": 0.5454540000000012,
            "durationTicks": 384,
            "midi": 64,
            "name": "E4",
            "ticks": 6528,
            "time": 9.272718,
            "velocity": 0.4881889763779528
          },
          {
            "duration": 0.5454540000000012,
            "durationTicks": 384,
            "midi": 73,
            "name": "C#5",
            "ticks": 6528,
            "time": 9.272718,
            "velocity": 0.4881889763779528
          },
          {
            "duration": 0.5454540000000012,
            "durationTicks": 384,
            "midi": 68,
            "name": "G#4",
            "ticks": 6528,
            "time": 9.272718,
            "velocity": 0.4881889763779528
          },
          {
            "duration": 0.5454540000000012,
            "durationTicks": 384,
            "midi": 73,
            "name": "C#5",
            "ticks": 6528,
            "time": 9.272718,
            "velocity": 0.4881889763779528
          },
          {
            "duration": 0.5454540000000012,
            "durationTicks": 384,
            "midi": 64,
            "name": "E4",
            "ticks": 6528,
            "time": 9.272718,
            "velocity": 0.4881889763779528
          },
          {
            "duration": 0.2727269999999997,
            "durationTicks": 192,
            "midi": 87,
            "name": "D#6",
            "ticks": 6528,
            "time": 9.272718,
            "velocity": 0.4881889763779528
          },
          {
            "duration": 0.5454540000000012,
            "durationTicks": 384,
            "midi": 73,
            "name": "C#5",
            "ticks": 6528,
            "time": 9.272718,
            "velocity": 0.4881889763779528
          },
          {
            "duration": 0.2727269999999997,
            "durationTicks": 192,
            "midi": 87,
            "name": "D#6",
            "ticks": 6528,
            "time": 9.272718,
            "velocity": 0.4881889763779528
          },
          {
            "duration": 0.5454540000000012,
            "durationTicks": 384,
            "midi": 73,
            "name": "C#5",
            "ticks": 6528,
            "time": 9.272718,
            "velocity": 0.4881889763779528
          },
          {
            "duration": 0.5454540000000012,
            "durationTicks": 384,
            "midi": 68,
            "name": "G#4",
            "ticks": 6528,
            "time": 9.272718,
            "velocity": 0.4881889763779528
          },
          {
            "duration": 0.5454540000000012,
            "durationTicks": 384,
            "midi": 73,
            "name": "C#5",
            "ticks": 6528,
            "time": 9.272718,
            "velocity": 0.4881889763779528
          },
          {
            "duration": 0.2727269999999997,
            "durationTicks": 192,
            "midi": 87,
            "name": "D#6",
            "ticks": 6528,
            "time": 9.272718,
            "velocity": 0.4881889763779528
          },
          {
            "duration": 0.5454540000000012,
            "durationTicks": 384,
            "midi": 64,
            "name": "E4",
            "ticks": 6528,
            "time": 9.272718,
            "velocity": 0.4881889763779528
          },
          {
            "duration": 0.2727269999999997,
            "durationTicks": 192,
            "midi": 87,
            "name": "D#6",
            "ticks": 6528,
            "time": 9.272718,
            "velocity": 0.4881889763779528
          },
          {
            "duration": 0.5454540000000012,
            "durationTicks": 384,
            "midi": 68,
            "name": "G#4",
            "ticks": 6528,
            "time": 9.272718,
            "velocity": 0.4881889763779528
          },
          {
            "duration": 0.2727269999999997,
            "durationTicks": 192,
            "midi": 87,
            "name": "D#6",
            "ticks": 6528,
            "time": 9.272718,
            "velocity": 0.4881889763779528
          },
          {
            "duration": 0.5454540000000012,
            "durationTicks": 384,
            "midi": 68,
            "name": "G#4",
            "ticks": 6528,
            "time": 9.272718,
            "velocity": 0.4881889763779528
          },
          {
            "duration": 0.5454540000000012,
            "durationTicks": 384,
            "midi": 64,
            "name": "E4",
            "ticks": 6528,
            "time": 9.272718,
            "velocity": 0.4881889763779528
          },
          {
            "duration": 0.2727269999999997,
            "durationTicks": 192,
            "midi": 87,
            "name": "D#6",
            "ticks": 6528,
            "time": 9.272718,
            "velocity": 0.4881889763779528
          },
          {
            "duration": 0.5454540000000012,
            "durationTicks": 384,
            "midi": 64,
            "name": "E4",
            "ticks": 6528,
            "time": 9.272718,
            "velocity": 0.4881889763779528
          },
          {
            "duration": 0.5454540000000012,
            "durationTicks": 384,
            "midi": 68,
            "name": "G#4",
            "ticks": 6528,
            "time": 9.272718,
            "velocity": 0.4881889763779528
          },
          {
            "duration": 0.5454540000000012,
            "durationTicks": 384,
            "midi": 64,
            "name": "E4",
            "ticks": 6528,
            "time": 9.272718,
            "velocity": 0.4881889763779528
          },
          {
            "duration": 0.2727270000000015,
            "durationTicks": 192,
            "midi": 85,
            "name": "C#6",
            "ticks": 6720,
            "time": 9.545444999999999,
            "velocity": 0.4881889763779528
          },
          {
            "duration": 0.2727270000000015,
            "durationTicks": 192,
            "midi": 85,
            "name": "C#6",
            "ticks": 6720,
            "time": 9.545444999999999,
            "velocity": 0.4881889763779528
          },
          {
            "duration": 0.2727270000000015,
            "durationTicks": 192,
            "midi": 85,
            "name": "C#6",
            "ticks": 6720,
            "time": 9.545444999999999,
            "velocity": 0.4881889763779528
          },
          {
            "duration": 0.2727270000000015,
            "durationTicks": 192,
            "midi": 85,
            "name": "C#6",
            "ticks": 6720,
            "time": 9.545444999999999,
            "velocity": 0.4881889763779528
          },
          {
            "duration": 0.2727270000000015,
            "durationTicks": 192,
            "midi": 85,
            "name": "C#6",
            "ticks": 6720,
            "time": 9.545444999999999,
            "velocity": 0.4881889763779528
          },
          {
            "duration": 0.2727270000000015,
            "durationTicks": 192,
            "midi": 85,
            "name": "C#6",
            "ticks": 6720,
            "time": 9.545444999999999,
            "velocity": 0.4881889763779528
          },
          {
            "duration": 0.2727269999999997,
            "durationTicks": 192,
            "midi": 83,
            "name": "B5",
            "ticks": 6912,
            "time": 9.818172,
            "velocity": 0.4881889763779528
          },
          {
            "duration": 0.2727269999999997,
            "durationTicks": 192,
            "midi": 83,
            "name": "B5",
            "ticks": 6912,
            "time": 9.818172,
            "velocity": 0.4881889763779528
          },
          {
            "duration": 0.5454539999999994,
            "durationTicks": 384,
            "midi": 59,
            "name": "B3",
            "ticks": 6912,
            "time": 9.818172,
            "velocity": 0.4881889763779528
          },
          {
            "duration": 0.5454539999999994,
            "durationTicks": 384,
            "midi": 59,
            "name": "B3",
            "ticks": 6912,
            "time": 9.818172,
            "velocity": 0.4881889763779528
          },
          {
            "duration": 0.5454539999999994,
            "durationTicks": 384,
            "midi": 59,
            "name": "B3",
            "ticks": 6912,
            "time": 9.818172,
            "velocity": 0.4881889763779528
          },
          {
            "duration": 0.5454539999999994,
            "durationTicks": 384,
            "midi": 47,
            "name": "B2",
            "ticks": 6912,
            "time": 9.818172,
            "velocity": 0.4881889763779528
          },
          {
            "duration": 0.5454539999999994,
            "durationTicks": 384,
            "midi": 47,
            "name": "B2",
            "ticks": 6912,
            "time": 9.818172,
            "velocity": 0.4881889763779528
          },
          {
            "duration": 0.5454539999999994,
            "durationTicks": 384,
            "midi": 47,
            "name": "B2",
            "ticks": 6912,
            "time": 9.818172,
            "velocity": 0.4881889763779528
          },
          {
            "duration": 0.5454539999999994,
            "durationTicks": 384,
            "midi": 59,
            "name": "B3",
            "ticks": 6912,
            "time": 9.818172,
            "velocity": 0.4881889763779528
          },
          {
            "duration": 0.5454539999999994,
            "durationTicks": 384,
            "midi": 59,
            "name": "B3",
            "ticks": 6912,
            "time": 9.818172,
            "velocity": 0.4881889763779528
          },
          {
            "duration": 0.2727269999999997,
            "durationTicks": 192,
            "midi": 83,
            "name": "B5",
            "ticks": 6912,
            "time": 9.818172,
            "velocity": 0.4881889763779528
          },
          {
            "duration": 0.5454539999999994,
            "durationTicks": 384,
            "midi": 47,
            "name": "B2",
            "ticks": 6912,
            "time": 9.818172,
            "velocity": 0.4881889763779528
          },
          {
            "duration": 0.5454539999999994,
            "durationTicks": 384,
            "midi": 47,
            "name": "B2",
            "ticks": 6912,
            "time": 9.818172,
            "velocity": 0.4881889763779528
          },
          {
            "duration": 0.2727269999999997,
            "durationTicks": 192,
            "midi": 83,
            "name": "B5",
            "ticks": 6912,
            "time": 9.818172,
            "velocity": 0.4881889763779528
          },
          {
            "duration": 0.2727269999999997,
            "durationTicks": 192,
            "midi": 83,
            "name": "B5",
            "ticks": 6912,
            "time": 9.818172,
            "velocity": 0.4881889763779528
          },
          {
            "duration": 0.2727269999999997,
            "durationTicks": 192,
            "midi": 83,
            "name": "B5",
            "ticks": 6912,
            "time": 9.818172,
            "velocity": 0.4881889763779528
          },
          {
            "duration": 0.5454539999999994,
            "durationTicks": 384,
            "midi": 47,
            "name": "B2",
            "ticks": 6912,
            "time": 9.818172,
            "velocity": 0.4881889763779528
          },
          {
            "duration": 0.5454539999999994,
            "durationTicks": 384,
            "midi": 59,
            "name": "B3",
            "ticks": 6912,
            "time": 9.818172,
            "velocity": 0.4881889763779528
          },
          {
            "duration": 0.2727269999999997,
            "durationTicks": 192,
            "midi": 88,
            "name": "E6",
            "ticks": 7104,
            "time": 10.090899,
            "velocity": 0.4881889763779528
          },
          {
            "duration": 0.2727269999999997,
            "durationTicks": 192,
            "midi": 88,
            "name": "E6",
            "ticks": 7104,
            "time": 10.090899,
            "velocity": 0.4881889763779528
          },
          {
            "duration": 0.2727269999999997,
            "durationTicks": 192,
            "midi": 88,
            "name": "E6",
            "ticks": 7104,
            "time": 10.090899,
            "velocity": 0.4881889763779528
          },
          {
            "duration": 0.2727269999999997,
            "durationTicks": 192,
            "midi": 88,
            "name": "E6",
            "ticks": 7104,
            "time": 10.090899,
            "velocity": 0.4881889763779528
          },
          {
            "duration": 0.2727269999999997,
            "durationTicks": 192,
            "midi": 88,
            "name": "E6",
            "ticks": 7104,
            "time": 10.090899,
            "velocity": 0.4881889763779528
          },
          {
            "duration": 0.2727269999999997,
            "durationTicks": 192,
            "midi": 88,
            "name": "E6",
            "ticks": 7104,
            "time": 10.090899,
            "velocity": 0.4881889763779528
          },
          {
            "duration": 0.5454539999999994,
            "durationTicks": 384,
            "midi": 71,
            "name": "B4",
            "ticks": 7296,
            "time": 10.363626,
            "velocity": 0.4881889763779528
          },
          {
            "duration": 0.2727269999999997,
            "durationTicks": 192,
            "midi": 80,
            "name": "G#5",
            "ticks": 7296,
            "time": 10.363626,
            "velocity": 0.4881889763779528
          },
          {
            "duration": 0.2727269999999997,
            "durationTicks": 192,
            "midi": 80,
            "name": "G#5",
            "ticks": 7296,
            "time": 10.363626,
            "velocity": 0.4881889763779528
          },
          {
            "duration": 0.5454539999999994,
            "durationTicks": 384,
            "midi": 71,
            "name": "B4",
            "ticks": 7296,
            "time": 10.363626,
            "velocity": 0.4881889763779528
          },
          {
            "duration": 0.2727269999999997,
            "durationTicks": 192,
            "midi": 80,
            "name": "G#5",
            "ticks": 7296,
            "time": 10.363626,
            "velocity": 0.4881889763779528
          },
          {
            "duration": 0.5454539999999994,
            "durationTicks": 384,
            "midi": 68,
            "name": "G#4",
            "ticks": 7296,
            "time": 10.363626,
            "velocity": 0.4881889763779528
          },
          {
            "duration": 0.5454539999999994,
            "durationTicks": 384,
            "midi": 64,
            "name": "E4",
            "ticks": 7296,
            "time": 10.363626,
            "velocity": 0.4881889763779528
          },
          {
            "duration": 0.5454539999999994,
            "durationTicks": 384,
            "midi": 71,
            "name": "B4",
            "ticks": 7296,
            "time": 10.363626,
            "velocity": 0.4881889763779528
          },
          {
            "duration": 0.5454539999999994,
            "durationTicks": 384,
            "midi": 64,
            "name": "E4",
            "ticks": 7296,
            "time": 10.363626,
            "velocity": 0.4881889763779528
          },
          {
            "duration": 0.5454539999999994,
            "durationTicks": 384,
            "midi": 68,
            "name": "G#4",
            "ticks": 7296,
            "time": 10.363626,
            "velocity": 0.4881889763779528
          },
          {
            "duration": 0.5454539999999994,
            "durationTicks": 384,
            "midi": 68,
            "name": "G#4",
            "ticks": 7296,
            "time": 10.363626,
            "velocity": 0.4881889763779528
          },
          {
            "duration": 0.2727269999999997,
            "durationTicks": 192,
            "midi": 80,
            "name": "G#5",
            "ticks": 7296,
            "time": 10.363626,
            "velocity": 0.4881889763779528
          },
          {
            "duration": 0.5454539999999994,
            "durationTicks": 384,
            "midi": 68,
            "name": "G#4",
            "ticks": 7296,
            "time": 10.363626,
            "velocity": 0.4881889763779528
          },
          {
            "duration": 0.5454539999999994,
            "durationTicks": 384,
            "midi": 71,
            "name": "B4",
            "ticks": 7296,
            "time": 10.363626,
            "velocity": 0.4881889763779528
          },
          {
            "duration": 0.5454539999999994,
            "durationTicks": 384,
            "midi": 64,
            "name": "E4",
            "ticks": 7296,
            "time": 10.363626,
            "velocity": 0.4881889763779528
          },
          {
            "duration": 0.5454539999999994,
            "durationTicks": 384,
            "midi": 64,
            "name": "E4",
            "ticks": 7296,
            "time": 10.363626,
            "velocity": 0.4881889763779528
          },
          {
            "duration": 0.5454539999999994,
            "durationTicks": 384,
            "midi": 68,
            "name": "G#4",
            "ticks": 7296,
            "time": 10.363626,
            "velocity": 0.4881889763779528
          },
          {
            "duration": 0.2727269999999997,
            "durationTicks": 192,
            "midi": 80,
            "name": "G#5",
            "ticks": 7296,
            "time": 10.363626,
            "velocity": 0.4881889763779528
          },
          {
            "duration": 0.5454539999999994,
            "durationTicks": 384,
            "midi": 68,
            "name": "G#4",
            "ticks": 7296,
            "time": 10.363626,
            "velocity": 0.4881889763779528
          },
          {
            "duration": 0.5454539999999994,
            "durationTicks": 384,
            "midi": 71,
            "name": "B4",
            "ticks": 7296,
            "time": 10.363626,
            "velocity": 0.4881889763779528
          },
          {
            "duration": 0.5454539999999994,
            "durationTicks": 384,
            "midi": 71,
            "name": "B4",
            "ticks": 7296,
            "time": 10.363626,
            "velocity": 0.4881889763779528
          },
          {
            "duration": 0.2727269999999997,
            "durationTicks": 192,
            "midi": 80,
            "name": "G#5",
            "ticks": 7296,
            "time": 10.363626,
            "velocity": 0.4881889763779528
          },
          {
            "duration": 0.5454539999999994,
            "durationTicks": 384,
            "midi": 64,
            "name": "E4",
            "ticks": 7296,
            "time": 10.363626,
            "velocity": 0.4881889763779528
          },
          {
            "duration": 0.5454539999999994,
            "durationTicks": 384,
            "midi": 64,
            "name": "E4",
            "ticks": 7296,
            "time": 10.363626,
            "velocity": 0.4881889763779528
          },
          {
            "duration": 0.13636349999999986,
            "durationTicks": 96,
            "midi": 83,
            "name": "B5",
            "ticks": 7488,
            "time": 10.636353,
            "velocity": 0.4881889763779528
          },
          {
            "duration": 0.13636349999999986,
            "durationTicks": 96,
            "midi": 83,
            "name": "B5",
            "ticks": 7488,
            "time": 10.636353,
            "velocity": 0.4881889763779528
          },
          {
            "duration": 0.13636349999999986,
            "durationTicks": 96,
            "midi": 83,
            "name": "B5",
            "ticks": 7488,
            "time": 10.636353,
            "velocity": 0.4881889763779528
          },
          {
            "duration": 0.13636349999999986,
            "durationTicks": 96,
            "midi": 83,
            "name": "B5",
            "ticks": 7488,
            "time": 10.636353,
            "velocity": 0.4881889763779528
          },
          {
            "duration": 0.13636349999999986,
            "durationTicks": 96,
            "midi": 83,
            "name": "B5",
            "ticks": 7488,
            "time": 10.636353,
            "velocity": 0.4881889763779528
          },
          {
            "duration": 0.13636349999999986,
            "durationTicks": 96,
            "midi": 83,
            "name": "B5",
            "ticks": 7488,
            "time": 10.636353,
            "velocity": 0.4881889763779528
          },
          {
            "duration": 0.13636349999999986,
            "durationTicks": 96,
            "midi": 85,
            "name": "C#6",
            "ticks": 7584,
            "time": 10.7727165,
            "velocity": 0.4881889763779528
          },
          {
            "duration": 0.13636349999999986,
            "durationTicks": 96,
            "midi": 85,
            "name": "C#6",
            "ticks": 7584,
            "time": 10.7727165,
            "velocity": 0.4881889763779528
          },
          {
            "duration": 0.13636349999999986,
            "durationTicks": 96,
            "midi": 85,
            "name": "C#6",
            "ticks": 7584,
            "time": 10.7727165,
            "velocity": 0.4881889763779528
          },
          {
            "duration": 0.13636349999999986,
            "durationTicks": 96,
            "midi": 85,
            "name": "C#6",
            "ticks": 7584,
            "time": 10.7727165,
            "velocity": 0.4881889763779528
          },
          {
            "duration": 0.13636349999999986,
            "durationTicks": 96,
            "midi": 85,
            "name": "C#6",
            "ticks": 7584,
            "time": 10.7727165,
            "velocity": 0.4881889763779528
          },
          {
            "duration": 0.13636349999999986,
            "durationTicks": 96,
            "midi": 85,
            "name": "C#6",
            "ticks": 7584,
            "time": 10.7727165,
            "velocity": 0.4881889763779528
          },
          {
            "duration": 0.5454540000000012,
            "durationTicks": 384,
            "midi": 57,
            "name": "A3",
            "ticks": 7680,
            "time": 10.90908,
            "velocity": 0.4881889763779528
          },
          {
            "duration": 0.5454540000000012,
            "durationTicks": 384,
            "midi": 45,
            "name": "A2",
            "ticks": 7680,
            "time": 10.90908,
            "velocity": 0.4881889763779528
          },
          {
            "duration": 0.2727269999999997,
            "durationTicks": 192,
            "midi": 83,
            "name": "B5",
            "ticks": 7680,
            "time": 10.90908,
            "velocity": 0.4881889763779528
          },
          {
            "duration": 0.2727269999999997,
            "durationTicks": 192,
            "midi": 83,
            "name": "B5",
            "ticks": 7680,
            "time": 10.90908,
            "velocity": 0.4881889763779528
          },
          {
            "duration": 0.5454540000000012,
            "durationTicks": 384,
            "midi": 57,
            "name": "A3",
            "ticks": 7680,
            "time": 10.90908,
            "velocity": 0.4881889763779528
          },
          {
            "duration": 0.5454540000000012,
            "durationTicks": 384,
            "midi": 45,
            "name": "A2",
            "ticks": 7680,
            "time": 10.90908,
            "velocity": 0.4881889763779528
          },
          {
            "duration": 0.2727269999999997,
            "durationTicks": 192,
            "midi": 83,
            "name": "B5",
            "ticks": 7680,
            "time": 10.90908,
            "velocity": 0.4881889763779528
          },
          {
            "duration": 0.5454540000000012,
            "durationTicks": 384,
            "midi": 45,
            "name": "A2",
            "ticks": 7680,
            "time": 10.90908,
            "velocity": 0.4881889763779528
          },
          {
            "duration": 0.5454540000000012,
            "durationTicks": 384,
            "midi": 57,
            "name": "A3",
            "ticks": 7680,
            "time": 10.90908,
            "velocity": 0.4881889763779528
          },
          {
            "duration": 0.2727269999999997,
            "durationTicks": 192,
            "midi": 83,
            "name": "B5",
            "ticks": 7680,
            "time": 10.90908,
            "velocity": 0.4881889763779528
          },
          {
            "duration": 0.5454540000000012,
            "durationTicks": 384,
            "midi": 57,
            "name": "A3",
            "ticks": 7680,
            "time": 10.90908,
            "velocity": 0.4881889763779528
          },
          {
            "duration": 0.5454540000000012,
            "durationTicks": 384,
            "midi": 57,
            "name": "A3",
            "ticks": 7680,
            "time": 10.90908,
            "velocity": 0.4881889763779528
          },
          {
            "duration": 0.5454540000000012,
            "durationTicks": 384,
            "midi": 45,
            "name": "A2",
            "ticks": 7680,
            "time": 10.90908,
            "velocity": 0.4881889763779528
          },
          {
            "duration": 0.2727269999999997,
            "durationTicks": 192,
            "midi": 83,
            "name": "B5",
            "ticks": 7680,
            "time": 10.90908,
            "velocity": 0.4881889763779528
          },
          {
            "duration": 0.5454540000000012,
            "durationTicks": 384,
            "midi": 45,
            "name": "A2",
            "ticks": 7680,
            "time": 10.90908,
            "velocity": 0.4881889763779528
          },
          {
            "duration": 0.5454540000000012,
            "durationTicks": 384,
            "midi": 45,
            "name": "A2",
            "ticks": 7680,
            "time": 10.90908,
            "velocity": 0.4881889763779528
          },
          {
            "duration": 0.5454540000000012,
            "durationTicks": 384,
            "midi": 57,
            "name": "A3",
            "ticks": 7680,
            "time": 10.90908,
            "velocity": 0.4881889763779528
          },
          {
            "duration": 0.2727269999999997,
            "durationTicks": 192,
            "midi": 83,
            "name": "B5",
            "ticks": 7680,
            "time": 10.90908,
            "velocity": 0.4881889763779528
          },
          {
            "duration": 0.2727270000000015,
            "durationTicks": 192,
            "midi": 81,
            "name": "A5",
            "ticks": 7872,
            "time": 11.181807,
            "velocity": 0.4881889763779528
          },
          {
            "duration": 0.2727270000000015,
            "durationTicks": 192,
            "midi": 81,
            "name": "A5",
            "ticks": 7872,
            "time": 11.181807,
            "velocity": 0.4881889763779528
          },
          {
            "duration": 0.2727270000000015,
            "durationTicks": 192,
            "midi": 81,
            "name": "A5",
            "ticks": 7872,
            "time": 11.181807,
            "velocity": 0.4881889763779528
          },
          {
            "duration": 0.2727270000000015,
            "durationTicks": 192,
            "midi": 81,
            "name": "A5",
            "ticks": 7872,
            "time": 11.181807,
            "velocity": 0.4881889763779528
          },
          {
            "duration": 0.2727270000000015,
            "durationTicks": 192,
            "midi": 81,
            "name": "A5",
            "ticks": 7872,
            "time": 11.181807,
            "velocity": 0.4881889763779528
          },
          {
            "duration": 0.2727270000000015,
            "durationTicks": 192,
            "midi": 81,
            "name": "A5",
            "ticks": 7872,
            "time": 11.181807,
            "velocity": 0.4881889763779528
          },
          {
            "duration": 0.2727269999999997,
            "durationTicks": 192,
            "midi": 80,
            "name": "G#5",
            "ticks": 8064,
            "time": 11.454534,
            "velocity": 0.4881889763779528
          },
          {
            "duration": 0.5454539999999994,
            "durationTicks": 384,
            "midi": 69,
            "name": "A4",
            "ticks": 8064,
            "time": 11.454534,
            "velocity": 0.4881889763779528
          },
          {
            "duration": 0.2727269999999997,
            "durationTicks": 192,
            "midi": 80,
            "name": "G#5",
            "ticks": 8064,
            "time": 11.454534,
            "velocity": 0.4881889763779528
          },
          {
            "duration": 0.5454539999999994,
            "durationTicks": 384,
            "midi": 69,
            "name": "A4",
            "ticks": 8064,
            "time": 11.454534,
            "velocity": 0.4881889763779528
          },
          {
            "duration": 0.2727269999999997,
            "durationTicks": 192,
            "midi": 80,
            "name": "G#5",
            "ticks": 8064,
            "time": 11.454534,
            "velocity": 0.4881889763779528
          },
          {
            "duration": 0.5454539999999994,
            "durationTicks": 384,
            "midi": 64,
            "name": "E4",
            "ticks": 8064,
            "time": 11.454534,
            "velocity": 0.4881889763779528
          },
          {
            "duration": 0.2727269999999997,
            "durationTicks": 192,
            "midi": 80,
            "name": "G#5",
            "ticks": 8064,
            "time": 11.454534,
            "velocity": 0.4881889763779528
          },
          {
            "duration": 0.5454539999999994,
            "durationTicks": 384,
            "midi": 64,
            "name": "E4",
            "ticks": 8064,
            "time": 11.454534,
            "velocity": 0.4881889763779528
          },
          {
            "duration": 0.5454539999999994,
            "durationTicks": 384,
            "midi": 69,
            "name": "A4",
            "ticks": 8064,
            "time": 11.454534,
            "velocity": 0.4881889763779528
          },
          {
            "duration": 0.5454539999999994,
            "durationTicks": 384,
            "midi": 69,
            "name": "A4",
            "ticks": 8064,
            "time": 11.454534,
            "velocity": 0.4881889763779528
          },
          {
            "duration": 0.5454539999999994,
            "durationTicks": 384,
            "midi": 69,
            "name": "A4",
            "ticks": 8064,
            "time": 11.454534,
            "velocity": 0.4881889763779528
          },
          {
            "duration": 0.5454539999999994,
            "durationTicks": 384,
            "midi": 73,
            "name": "C#5",
            "ticks": 8064,
            "time": 11.454534,
            "velocity": 0.4881889763779528
          },
          {
            "duration": 0.5454539999999994,
            "durationTicks": 384,
            "midi": 64,
            "name": "E4",
            "ticks": 8064,
            "time": 11.454534,
            "velocity": 0.4881889763779528
          },
          {
            "duration": 0.5454539999999994,
            "durationTicks": 384,
            "midi": 73,
            "name": "C#5",
            "ticks": 8064,
            "time": 11.454534,
            "velocity": 0.4881889763779528
          },
          {
            "duration": 0.5454539999999994,
            "durationTicks": 384,
            "midi": 73,
            "name": "C#5",
            "ticks": 8064,
            "time": 11.454534,
            "velocity": 0.4881889763779528
          },
          {
            "duration": 0.2727269999999997,
            "durationTicks": 192,
            "midi": 80,
            "name": "G#5",
            "ticks": 8064,
            "time": 11.454534,
            "velocity": 0.4881889763779528
          },
          {
            "duration": 0.5454539999999994,
            "durationTicks": 384,
            "midi": 64,
            "name": "E4",
            "ticks": 8064,
            "time": 11.454534,
            "velocity": 0.4881889763779528
          },
          {
            "duration": 0.5454539999999994,
            "durationTicks": 384,
            "midi": 73,
            "name": "C#5",
            "ticks": 8064,
            "time": 11.454534,
            "velocity": 0.4881889763779528
          },
          {
            "duration": 0.5454539999999994,
            "durationTicks": 384,
            "midi": 73,
            "name": "C#5",
            "ticks": 8064,
            "time": 11.454534,
            "velocity": 0.4881889763779528
          },
          {
            "duration": 0.5454539999999994,
            "durationTicks": 384,
            "midi": 64,
            "name": "E4",
            "ticks": 8064,
            "time": 11.454534,
            "velocity": 0.4881889763779528
          },
          {
            "duration": 0.5454539999999994,
            "durationTicks": 384,
            "midi": 69,
            "name": "A4",
            "ticks": 8064,
            "time": 11.454534,
            "velocity": 0.4881889763779528
          },
          {
            "duration": 0.2727269999999997,
            "durationTicks": 192,
            "midi": 80,
            "name": "G#5",
            "ticks": 8064,
            "time": 11.454534,
            "velocity": 0.4881889763779528
          },
          {
            "duration": 0.5454539999999994,
            "durationTicks": 384,
            "midi": 64,
            "name": "E4",
            "ticks": 8064,
            "time": 11.454534,
            "velocity": 0.4881889763779528
          },
          {
            "duration": 0.5454539999999994,
            "durationTicks": 384,
            "midi": 73,
            "name": "C#5",
            "ticks": 8064,
            "time": 11.454534,
            "velocity": 0.4881889763779528
          },
          {
            "duration": 0.2727269999999997,
            "durationTicks": 192,
            "midi": 78,
            "name": "F#5",
            "ticks": 8256,
            "time": 11.727261,
            "velocity": 0.4881889763779528
          },
          {
            "duration": 0.2727269999999997,
            "durationTicks": 192,
            "midi": 78,
            "name": "F#5",
            "ticks": 8256,
            "time": 11.727261,
            "velocity": 0.4881889763779528
          },
          {
            "duration": 0.2727269999999997,
            "durationTicks": 192,
            "midi": 78,
            "name": "F#5",
            "ticks": 8256,
            "time": 11.727261,
            "velocity": 0.4881889763779528
          },
          {
            "duration": 0.2727269999999997,
            "durationTicks": 192,
            "midi": 78,
            "name": "F#5",
            "ticks": 8256,
            "time": 11.727261,
            "velocity": 0.4881889763779528
          },
          {
            "duration": 0.2727269999999997,
            "durationTicks": 192,
            "midi": 78,
            "name": "F#5",
            "ticks": 8256,
            "time": 11.727261,
            "velocity": 0.4881889763779528
          },
          {
            "duration": 0.2727269999999997,
            "durationTicks": 192,
            "midi": 78,
            "name": "F#5",
            "ticks": 8256,
            "time": 11.727261,
            "velocity": 0.4881889763779528
          },
          {
            "duration": 0.5454539999999994,
            "durationTicks": 384,
            "midi": 56,
            "name": "G#3",
            "ticks": 8448,
            "time": 11.999988,
            "velocity": 0.4881889763779528
          },
          {
            "duration": 0.5454539999999994,
            "durationTicks": 384,
            "midi": 44,
            "name": "G#2",
            "ticks": 8448,
            "time": 11.999988,
            "velocity": 0.4881889763779528
          },
          {
            "duration": 0.5454539999999994,
            "durationTicks": 384,
            "midi": 56,
            "name": "G#3",
            "ticks": 8448,
            "time": 11.999988,
            "velocity": 0.4881889763779528
          },
          {
            "duration": 0.5454539999999994,
            "durationTicks": 384,
            "midi": 44,
            "name": "G#2",
            "ticks": 8448,
            "time": 11.999988,
            "velocity": 0.4881889763779528
          },
          {
            "duration": 0.2727269999999997,
            "durationTicks": 192,
            "midi": 80,
            "name": "G#5",
            "ticks": 8448,
            "time": 11.999988,
            "velocity": 0.4881889763779528
          },
          {
            "duration": 0.2727269999999997,
            "durationTicks": 192,
            "midi": 80,
            "name": "G#5",
            "ticks": 8448,
            "time": 11.999988,
            "velocity": 0.4881889763779528
          },
          {
            "duration": 0.5454539999999994,
            "durationTicks": 384,
            "midi": 56,
            "name": "G#3",
            "ticks": 8448,
            "time": 11.999988,
            "velocity": 0.4881889763779528
          },
          {
            "duration": 0.2727269999999997,
            "durationTicks": 192,
            "midi": 80,
            "name": "G#5",
            "ticks": 8448,
            "time": 11.999988,
            "velocity": 0.4881889763779528
          },
          {
            "duration": 0.2727269999999997,
            "durationTicks": 192,
            "midi": 80,
            "name": "G#5",
            "ticks": 8448,
            "time": 11.999988,
            "velocity": 0.4881889763779528
          },
          {
            "duration": 0.5454539999999994,
            "durationTicks": 384,
            "midi": 44,
            "name": "G#2",
            "ticks": 8448,
            "time": 11.999988,
            "velocity": 0.4881889763779528
          },
          {
            "duration": 0.5454539999999994,
            "durationTicks": 384,
            "midi": 44,
            "name": "G#2",
            "ticks": 8448,
            "time": 11.999988,
            "velocity": 0.4881889763779528
          },
          {
            "duration": 0.5454539999999994,
            "durationTicks": 384,
            "midi": 44,
            "name": "G#2",
            "ticks": 8448,
            "time": 11.999988,
            "velocity": 0.4881889763779528
          },
          {
            "duration": 0.2727269999999997,
            "durationTicks": 192,
            "midi": 80,
            "name": "G#5",
            "ticks": 8448,
            "time": 11.999988,
            "velocity": 0.4881889763779528
          },
          {
            "duration": 0.2727269999999997,
            "durationTicks": 192,
            "midi": 80,
            "name": "G#5",
            "ticks": 8448,
            "time": 11.999988,
            "velocity": 0.4881889763779528
          },
          {
            "duration": 0.5454539999999994,
            "durationTicks": 384,
            "midi": 56,
            "name": "G#3",
            "ticks": 8448,
            "time": 11.999988,
            "velocity": 0.4881889763779528
          },
          {
            "duration": 0.5454539999999994,
            "durationTicks": 384,
            "midi": 44,
            "name": "G#2",
            "ticks": 8448,
            "time": 11.999988,
            "velocity": 0.4881889763779528
          },
          {
            "duration": 0.5454539999999994,
            "durationTicks": 384,
            "midi": 56,
            "name": "G#3",
            "ticks": 8448,
            "time": 11.999988,
            "velocity": 0.4881889763779528
          },
          {
            "duration": 0.5454539999999994,
            "durationTicks": 384,
            "midi": 56,
            "name": "G#3",
            "ticks": 8448,
            "time": 11.999988,
            "velocity": 0.4881889763779528
          },
          {
            "duration": 0.2727269999999997,
            "durationTicks": 192,
            "midi": 73,
            "name": "C#5",
            "ticks": 8640,
            "time": 12.272715,
            "velocity": 0.4881889763779528
          },
          {
            "duration": 0.2727269999999997,
            "durationTicks": 192,
            "midi": 73,
            "name": "C#5",
            "ticks": 8640,
            "time": 12.272715,
            "velocity": 0.4881889763779528
          },
          {
            "duration": 0.2727269999999997,
            "durationTicks": 192,
            "midi": 73,
            "name": "C#5",
            "ticks": 8640,
            "time": 12.272715,
            "velocity": 0.4881889763779528
          },
          {
            "duration": 0.2727269999999997,
            "durationTicks": 192,
            "midi": 73,
            "name": "C#5",
            "ticks": 8640,
            "time": 12.272715,
            "velocity": 0.4881889763779528
          },
          {
            "duration": 0.2727269999999997,
            "durationTicks": 192,
            "midi": 73,
            "name": "C#5",
            "ticks": 8640,
            "time": 12.272715,
            "velocity": 0.4881889763779528
          },
          {
            "duration": 0.2727269999999997,
            "durationTicks": 192,
            "midi": 73,
            "name": "C#5",
            "ticks": 8640,
            "time": 12.272715,
            "velocity": 0.4881889763779528
          },
          {
            "duration": 0.5454540000000012,
            "durationTicks": 384,
            "midi": 76,
            "name": "E5",
            "ticks": 8832,
            "time": 12.545442,
            "velocity": 0.4881889763779528
          },
          {
            "duration": 0.5454540000000012,
            "durationTicks": 384,
            "midi": 76,
            "name": "E5",
            "ticks": 8832,
            "time": 12.545442,
            "velocity": 0.4881889763779528
          },
          {
            "duration": 0.5454540000000012,
            "durationTicks": 384,
            "midi": 76,
            "name": "E5",
            "ticks": 8832,
            "time": 12.545442,
            "velocity": 0.4881889763779528
          },
          {
            "duration": 0.5454540000000012,
            "durationTicks": 384,
            "midi": 76,
            "name": "E5",
            "ticks": 8832,
            "time": 12.545442,
            "velocity": 0.4881889763779528
          },
          {
            "duration": 0.5454540000000012,
            "durationTicks": 384,
            "midi": 76,
            "name": "E5",
            "ticks": 8832,
            "time": 12.545442,
            "velocity": 0.4881889763779528
          },
          {
            "duration": 0.5454540000000012,
            "durationTicks": 384,
            "midi": 76,
            "name": "E5",
            "ticks": 8832,
            "time": 12.545442,
            "velocity": 0.4881889763779528
          },
          {
            "duration": 0.5454540000000012,
            "durationTicks": 384,
            "midi": 63,
            "name": "D#4",
            "ticks": 8832,
            "time": 12.545442,
            "velocity": 0.4881889763779528
          },
          {
            "duration": 0.5454540000000012,
            "durationTicks": 384,
            "midi": 63,
            "name": "D#4",
            "ticks": 8832,
            "time": 12.545442,
            "velocity": 0.4881889763779528
          },
          {
            "duration": 0.5454540000000012,
            "durationTicks": 384,
            "midi": 68,
            "name": "G#4",
            "ticks": 8832,
            "time": 12.545442,
            "velocity": 0.4881889763779528
          },
          {
            "duration": 0.5454540000000012,
            "durationTicks": 384,
            "midi": 68,
            "name": "G#4",
            "ticks": 8832,
            "time": 12.545442,
            "velocity": 0.4881889763779528
          },
          {
            "duration": 0.5454540000000012,
            "durationTicks": 384,
            "midi": 68,
            "name": "G#4",
            "ticks": 8832,
            "time": 12.545442,
            "velocity": 0.4881889763779528
          },
          {
            "duration": 0.5454540000000012,
            "durationTicks": 384,
            "midi": 71,
            "name": "B4",
            "ticks": 8832,
            "time": 12.545442,
            "velocity": 0.4881889763779528
          },
          {
            "duration": 0.5454540000000012,
            "durationTicks": 384,
            "midi": 63,
            "name": "D#4",
            "ticks": 8832,
            "time": 12.545442,
            "velocity": 0.4881889763779528
          },
          {
            "duration": 0.5454540000000012,
            "durationTicks": 384,
            "midi": 68,
            "name": "G#4",
            "ticks": 8832,
            "time": 12.545442,
            "velocity": 0.4881889763779528
          },
          {
            "duration": 0.5454540000000012,
            "durationTicks": 384,
            "midi": 63,
            "name": "D#4",
            "ticks": 8832,
            "time": 12.545442,
            "velocity": 0.4881889763779528
          },
          {
            "duration": 0.5454540000000012,
            "durationTicks": 384,
            "midi": 71,
            "name": "B4",
            "ticks": 8832,
            "time": 12.545442,
            "velocity": 0.4881889763779528
          },
          {
            "duration": 0.5454540000000012,
            "durationTicks": 384,
            "midi": 68,
            "name": "G#4",
            "ticks": 8832,
            "time": 12.545442,
            "velocity": 0.4881889763779528
          },
          {
            "duration": 0.5454540000000012,
            "durationTicks": 384,
            "midi": 71,
            "name": "B4",
            "ticks": 8832,
            "time": 12.545442,
            "velocity": 0.4881889763779528
          },
          {
            "duration": 0.5454540000000012,
            "durationTicks": 384,
            "midi": 71,
            "name": "B4",
            "ticks": 8832,
            "time": 12.545442,
            "velocity": 0.4881889763779528
          },
          {
            "duration": 0.5454540000000012,
            "durationTicks": 384,
            "midi": 63,
            "name": "D#4",
            "ticks": 8832,
            "time": 12.545442,
            "velocity": 0.4881889763779528
          },
          {
            "duration": 0.5454540000000012,
            "durationTicks": 384,
            "midi": 71,
            "name": "B4",
            "ticks": 8832,
            "time": 12.545442,
            "velocity": 0.4881889763779528
          },
          {
            "duration": 0.5454540000000012,
            "durationTicks": 384,
            "midi": 68,
            "name": "G#4",
            "ticks": 8832,
            "time": 12.545442,
            "velocity": 0.4881889763779528
          },
          {
            "duration": 0.5454540000000012,
            "durationTicks": 384,
            "midi": 63,
            "name": "D#4",
            "ticks": 8832,
            "time": 12.545442,
            "velocity": 0.4881889763779528
          },
          {
            "duration": 0.5454540000000012,
            "durationTicks": 384,
            "midi": 71,
            "name": "B4",
            "ticks": 8832,
            "time": 12.545442,
            "velocity": 0.4881889763779528
          },
          {
            "duration": 0.2727269999999997,
            "durationTicks": 192,
            "midi": 78,
            "name": "F#5",
            "ticks": 9216,
            "time": 13.090896,
            "velocity": 0.4881889763779528
          },
          {
            "duration": 0.5454539999999994,
            "durationTicks": 384,
            "midi": 54,
            "name": "F#3",
            "ticks": 9216,
            "time": 13.090896,
            "velocity": 0.4881889763779528
          },
          {
            "duration": 0.5454539999999994,
            "durationTicks": 384,
            "midi": 42,
            "name": "F#2",
            "ticks": 9216,
            "time": 13.090896,
            "velocity": 0.4881889763779528
          },
          {
            "duration": 0.5454539999999994,
            "durationTicks": 384,
            "midi": 54,
            "name": "F#3",
            "ticks": 9216,
            "time": 13.090896,
            "velocity": 0.4881889763779528
          },
          {
            "duration": 0.5454539999999994,
            "durationTicks": 384,
            "midi": 42,
            "name": "F#2",
            "ticks": 9216,
            "time": 13.090896,
            "velocity": 0.4881889763779528
          },
          {
            "duration": 0.5454539999999994,
            "durationTicks": 384,
            "midi": 54,
            "name": "F#3",
            "ticks": 9216,
            "time": 13.090896,
            "velocity": 0.4881889763779528
          },
          {
            "duration": 0.5454539999999994,
            "durationTicks": 384,
            "midi": 54,
            "name": "F#3",
            "ticks": 9216,
            "time": 13.090896,
            "velocity": 0.4881889763779528
          },
          {
            "duration": 0.2727269999999997,
            "durationTicks": 192,
            "midi": 78,
            "name": "F#5",
            "ticks": 9216,
            "time": 13.090896,
            "velocity": 0.4881889763779528
          },
          {
            "duration": 0.5454539999999994,
            "durationTicks": 384,
            "midi": 42,
            "name": "F#2",
            "ticks": 9216,
            "time": 13.090896,
            "velocity": 0.4881889763779528
          },
          {
            "duration": 0.5454539999999994,
            "durationTicks": 384,
            "midi": 54,
            "name": "F#3",
            "ticks": 9216,
            "time": 13.090896,
            "velocity": 0.4881889763779528
          },
          {
            "duration": 0.2727269999999997,
            "durationTicks": 192,
            "midi": 78,
            "name": "F#5",
            "ticks": 9216,
            "time": 13.090896,
            "velocity": 0.4881889763779528
          },
          {
            "duration": 0.2727269999999997,
            "durationTicks": 192,
            "midi": 78,
            "name": "F#5",
            "ticks": 9216,
            "time": 13.090896,
            "velocity": 0.4881889763779528
          },
          {
            "duration": 0.5454539999999994,
            "durationTicks": 384,
            "midi": 42,
            "name": "F#2",
            "ticks": 9216,
            "time": 13.090896,
            "velocity": 0.4881889763779528
          },
          {
            "duration": 0.5454539999999994,
            "durationTicks": 384,
            "midi": 42,
            "name": "F#2",
            "ticks": 9216,
            "time": 13.090896,
            "velocity": 0.4881889763779528
          },
          {
            "duration": 0.5454539999999994,
            "durationTicks": 384,
            "midi": 42,
            "name": "F#2",
            "ticks": 9216,
            "time": 13.090896,
            "velocity": 0.4881889763779528
          },
          {
            "duration": 0.5454539999999994,
            "durationTicks": 384,
            "midi": 54,
            "name": "F#3",
            "ticks": 9216,
            "time": 13.090896,
            "velocity": 0.4881889763779528
          },
          {
            "duration": 0.2727269999999997,
            "durationTicks": 192,
            "midi": 78,
            "name": "F#5",
            "ticks": 9216,
            "time": 13.090896,
            "velocity": 0.4881889763779528
          },
          {
            "duration": 0.2727269999999997,
            "durationTicks": 192,
            "midi": 78,
            "name": "F#5",
            "ticks": 9216,
            "time": 13.090896,
            "velocity": 0.4881889763779528
          },
          {
            "duration": 0.2727269999999997,
            "durationTicks": 192,
            "midi": 81,
            "name": "A5",
            "ticks": 9408,
            "time": 13.363623,
            "velocity": 0.4881889763779528
          },
          {
            "duration": 0.2727269999999997,
            "durationTicks": 192,
            "midi": 81,
            "name": "A5",
            "ticks": 9408,
            "time": 13.363623,
            "velocity": 0.4881889763779528
          },
          {
            "duration": 0.2727269999999997,
            "durationTicks": 192,
            "midi": 81,
            "name": "A5",
            "ticks": 9408,
            "time": 13.363623,
            "velocity": 0.4881889763779528
          },
          {
            "duration": 0.2727269999999997,
            "durationTicks": 192,
            "midi": 81,
            "name": "A5",
            "ticks": 9408,
            "time": 13.363623,
            "velocity": 0.4881889763779528
          },
          {
            "duration": 0.2727269999999997,
            "durationTicks": 192,
            "midi": 81,
            "name": "A5",
            "ticks": 9408,
            "time": 13.363623,
            "velocity": 0.4881889763779528
          },
          {
            "duration": 0.2727269999999997,
            "durationTicks": 192,
            "midi": 81,
            "name": "A5",
            "ticks": 9408,
            "time": 13.363623,
            "velocity": 0.4881889763779528
          },
          {
            "duration": 0.5454539999999994,
            "durationTicks": 384,
            "midi": 61,
            "name": "C#4",
            "ticks": 9600,
            "time": 13.63635,
            "velocity": 0.4881889763779528
          },
          {
            "duration": 0.5454539999999994,
            "durationTicks": 384,
            "midi": 61,
            "name": "C#4",
            "ticks": 9600,
            "time": 13.63635,
            "velocity": 0.4881889763779528
          },
          {
            "duration": 0.2727269999999997,
            "durationTicks": 192,
            "midi": 80,
            "name": "G#5",
            "ticks": 9600,
            "time": 13.63635,
            "velocity": 0.4881889763779528
          },
          {
            "duration": 0.5454539999999994,
            "durationTicks": 384,
            "midi": 66,
            "name": "F#4",
            "ticks": 9600,
            "time": 13.63635,
            "velocity": 0.4881889763779528
          },
          {
            "duration": 0.2727269999999997,
            "durationTicks": 192,
            "midi": 80,
            "name": "G#5",
            "ticks": 9600,
            "time": 13.63635,
            "velocity": 0.4881889763779528
          },
          {
            "duration": 0.5454539999999994,
            "durationTicks": 384,
            "midi": 69,
            "name": "A4",
            "ticks": 9600,
            "time": 13.63635,
            "velocity": 0.4881889763779528
          },
          {
            "duration": 0.2727269999999997,
            "durationTicks": 192,
            "midi": 80,
            "name": "G#5",
            "ticks": 9600,
            "time": 13.63635,
            "velocity": 0.4881889763779528
          },
          {
            "duration": 0.5454539999999994,
            "durationTicks": 384,
            "midi": 69,
            "name": "A4",
            "ticks": 9600,
            "time": 13.63635,
            "velocity": 0.4881889763779528
          },
          {
            "duration": 0.5454539999999994,
            "durationTicks": 384,
            "midi": 61,
            "name": "C#4",
            "ticks": 9600,
            "time": 13.63635,
            "velocity": 0.4881889763779528
          },
          {
            "duration": 0.5454539999999994,
            "durationTicks": 384,
            "midi": 66,
            "name": "F#4",
            "ticks": 9600,
            "time": 13.63635,
            "velocity": 0.4881889763779528
          },
          {
            "duration": 0.2727269999999997,
            "durationTicks": 192,
            "midi": 80,
            "name": "G#5",
            "ticks": 9600,
            "time": 13.63635,
            "velocity": 0.4881889763779528
          },
          {
            "duration": 0.5454539999999994,
            "durationTicks": 384,
            "midi": 69,
            "name": "A4",
            "ticks": 9600,
            "time": 13.63635,
            "velocity": 0.4881889763779528
          },
          {
            "duration": 0.5454539999999994,
            "durationTicks": 384,
            "midi": 69,
            "name": "A4",
            "ticks": 9600,
            "time": 13.63635,
            "velocity": 0.4881889763779528
          },
          {
            "duration": 0.5454539999999994,
            "durationTicks": 384,
            "midi": 66,
            "name": "F#4",
            "ticks": 9600,
            "time": 13.63635,
            "velocity": 0.4881889763779528
          },
          {
            "duration": 0.5454539999999994,
            "durationTicks": 384,
            "midi": 66,
            "name": "F#4",
            "ticks": 9600,
            "time": 13.63635,
            "velocity": 0.4881889763779528
          },
          {
            "duration": 0.5454539999999994,
            "durationTicks": 384,
            "midi": 61,
            "name": "C#4",
            "ticks": 9600,
            "time": 13.63635,
            "velocity": 0.4881889763779528
          },
          {
            "duration": 0.5454539999999994,
            "durationTicks": 384,
            "midi": 69,
            "name": "A4",
            "ticks": 9600,
            "time": 13.63635,
            "velocity": 0.4881889763779528
          },
          {
            "duration": 0.5454539999999994,
            "durationTicks": 384,
            "midi": 66,
            "name": "F#4",
            "ticks": 9600,
            "time": 13.63635,
            "velocity": 0.4881889763779528
          },
          {
            "duration": 0.5454539999999994,
            "durationTicks": 384,
            "midi": 61,
            "name": "C#4",
            "ticks": 9600,
            "time": 13.63635,
            "velocity": 0.4881889763779528
          },
          {
            "duration": 0.5454539999999994,
            "durationTicks": 384,
            "midi": 66,
            "name": "F#4",
            "ticks": 9600,
            "time": 13.63635,
            "velocity": 0.4881889763779528
          },
          {
            "duration": 0.5454539999999994,
            "durationTicks": 384,
            "midi": 69,
            "name": "A4",
            "ticks": 9600,
            "time": 13.63635,
            "velocity": 0.4881889763779528
          },
          {
            "duration": 0.2727269999999997,
            "durationTicks": 192,
            "midi": 80,
            "name": "G#5",
            "ticks": 9600,
            "time": 13.63635,
            "velocity": 0.4881889763779528
          },
          {
            "duration": 0.2727269999999997,
            "durationTicks": 192,
            "midi": 80,
            "name": "G#5",
            "ticks": 9600,
            "time": 13.63635,
            "velocity": 0.4881889763779528
          },
          {
            "duration": 0.5454539999999994,
            "durationTicks": 384,
            "midi": 61,
            "name": "C#4",
            "ticks": 9600,
            "time": 13.63635,
            "velocity": 0.4881889763779528
          },
          {
            "duration": 0.2727269999999997,
            "durationTicks": 192,
            "midi": 78,
            "name": "F#5",
            "ticks": 9792,
            "time": 13.909077,
            "velocity": 0.4881889763779528
          },
          {
            "duration": 0.2727269999999997,
            "durationTicks": 192,
            "midi": 78,
            "name": "F#5",
            "ticks": 9792,
            "time": 13.909077,
            "velocity": 0.4881889763779528
          },
          {
            "duration": 0.2727269999999997,
            "durationTicks": 192,
            "midi": 78,
            "name": "F#5",
            "ticks": 9792,
            "time": 13.909077,
            "velocity": 0.4881889763779528
          },
          {
            "duration": 0.2727269999999997,
            "durationTicks": 192,
            "midi": 78,
            "name": "F#5",
            "ticks": 9792,
            "time": 13.909077,
            "velocity": 0.4881889763779528
          },
          {
            "duration": 0.2727269999999997,
            "durationTicks": 192,
            "midi": 78,
            "name": "F#5",
            "ticks": 9792,
            "time": 13.909077,
            "velocity": 0.4881889763779528
          },
          {
            "duration": 0.2727269999999997,
            "durationTicks": 192,
            "midi": 78,
            "name": "F#5",
            "ticks": 9792,
            "time": 13.909077,
            "velocity": 0.4881889763779528
          },
          {
            "duration": 0.2727269999999997,
            "durationTicks": 192,
            "midi": 80,
            "name": "G#5",
            "ticks": 9984,
            "time": 14.181804,
            "velocity": 0.4881889763779528
          },
          {
            "duration": 0.5454539999999994,
            "durationTicks": 384,
            "midi": 37,
            "name": "C#2",
            "ticks": 9984,
            "time": 14.181804,
            "velocity": 0.4881889763779528
          },
          {
            "duration": 0.5454539999999994,
            "durationTicks": 384,
            "midi": 49,
            "name": "C#3",
            "ticks": 9984,
            "time": 14.181804,
            "velocity": 0.4881889763779528
          },
          {
            "duration": 0.2727269999999997,
            "durationTicks": 192,
            "midi": 80,
            "name": "G#5",
            "ticks": 9984,
            "time": 14.181804,
            "velocity": 0.4881889763779528
          },
          {
            "duration": 0.5454539999999994,
            "durationTicks": 384,
            "midi": 37,
            "name": "C#2",
            "ticks": 9984,
            "time": 14.181804,
            "velocity": 0.4881889763779528
          },
          {
            "duration": 0.5454539999999994,
            "durationTicks": 384,
            "midi": 49,
            "name": "C#3",
            "ticks": 9984,
            "time": 14.181804,
            "velocity": 0.4881889763779528
          },
          {
            "duration": 0.5454539999999994,
            "durationTicks": 384,
            "midi": 37,
            "name": "C#2",
            "ticks": 9984,
            "time": 14.181804,
            "velocity": 0.4881889763779528
          },
          {
            "duration": 0.5454539999999994,
            "durationTicks": 384,
            "midi": 49,
            "name": "C#3",
            "ticks": 9984,
            "time": 14.181804,
            "velocity": 0.4881889763779528
          },
          {
            "duration": 0.5454539999999994,
            "durationTicks": 384,
            "midi": 37,
            "name": "C#2",
            "ticks": 9984,
            "time": 14.181804,
            "velocity": 0.4881889763779528
          },
          {
            "duration": 0.5454539999999994,
            "durationTicks": 384,
            "midi": 37,
            "name": "C#2",
            "ticks": 9984,
            "time": 14.181804,
            "velocity": 0.4881889763779528
          },
          {
            "duration": 0.5454539999999994,
            "durationTicks": 384,
            "midi": 49,
            "name": "C#3",
            "ticks": 9984,
            "time": 14.181804,
            "velocity": 0.4881889763779528
          },
          {
            "duration": 0.5454539999999994,
            "durationTicks": 384,
            "midi": 49,
            "name": "C#3",
            "ticks": 9984,
            "time": 14.181804,
            "velocity": 0.4881889763779528
          },
          {
            "duration": 0.5454539999999994,
            "durationTicks": 384,
            "midi": 37,
            "name": "C#2",
            "ticks": 9984,
            "time": 14.181804,
            "velocity": 0.4881889763779528
          },
          {
            "duration": 0.2727269999999997,
            "durationTicks": 192,
            "midi": 80,
            "name": "G#5",
            "ticks": 9984,
            "time": 14.181804,
            "velocity": 0.4881889763779528
          },
          {
            "duration": 0.5454539999999994,
            "durationTicks": 384,
            "midi": 49,
            "name": "C#3",
            "ticks": 9984,
            "time": 14.181804,
            "velocity": 0.4881889763779528
          },
          {
            "duration": 0.2727269999999997,
            "durationTicks": 192,
            "midi": 80,
            "name": "G#5",
            "ticks": 9984,
            "time": 14.181804,
            "velocity": 0.4881889763779528
          },
          {
            "duration": 0.2727269999999997,
            "durationTicks": 192,
            "midi": 80,
            "name": "G#5",
            "ticks": 9984,
            "time": 14.181804,
            "velocity": 0.4881889763779528
          },
          {
            "duration": 0.2727269999999997,
            "durationTicks": 192,
            "midi": 80,
            "name": "G#5",
            "ticks": 9984,
            "time": 14.181804,
            "velocity": 0.4881889763779528
          },
          {
            "duration": 0.2727269999999997,
            "durationTicks": 192,
            "midi": 73,
            "name": "C#5",
            "ticks": 10176,
            "time": 14.454531,
            "velocity": 0.4881889763779528
          },
          {
            "duration": 0.2727269999999997,
            "durationTicks": 192,
            "midi": 73,
            "name": "C#5",
            "ticks": 10176,
            "time": 14.454531,
            "velocity": 0.4881889763779528
          },
          {
            "duration": 0.2727269999999997,
            "durationTicks": 192,
            "midi": 73,
            "name": "C#5",
            "ticks": 10176,
            "time": 14.454531,
            "velocity": 0.4881889763779528
          },
          {
            "duration": 0.2727269999999997,
            "durationTicks": 192,
            "midi": 73,
            "name": "C#5",
            "ticks": 10176,
            "time": 14.454531,
            "velocity": 0.4881889763779528
          },
          {
            "duration": 0.2727269999999997,
            "durationTicks": 192,
            "midi": 73,
            "name": "C#5",
            "ticks": 10176,
            "time": 14.454531,
            "velocity": 0.4881889763779528
          },
          {
            "duration": 0.2727269999999997,
            "durationTicks": 192,
            "midi": 73,
            "name": "C#5",
            "ticks": 10176,
            "time": 14.454531,
            "velocity": 0.4881889763779528
          },
          {
            "duration": 0.5454540000000012,
            "durationTicks": 384,
            "midi": 61,
            "name": "C#4",
            "ticks": 10368,
            "time": 14.727257999999999,
            "velocity": 0.4881889763779528
          },
          {
            "duration": 0.5454540000000012,
            "durationTicks": 384,
            "midi": 64,
            "name": "E4",
            "ticks": 10368,
            "time": 14.727257999999999,
            "velocity": 0.4881889763779528
          },
          {
            "duration": 0.5454540000000012,
            "durationTicks": 384,
            "midi": 61,
            "name": "C#4",
            "ticks": 10368,
            "time": 14.727257999999999,
            "velocity": 0.4881889763779528
          },
          {
            "duration": 0.40909050000000136,
            "durationTicks": 288,
            "midi": 76,
            "name": "E5",
            "ticks": 10368,
            "time": 14.727257999999999,
            "velocity": 0.4881889763779528
          },
          {
            "duration": 0.5454540000000012,
            "durationTicks": 384,
            "midi": 61,
            "name": "C#4",
            "ticks": 10368,
            "time": 14.727257999999999,
            "velocity": 0.4881889763779528
          },
          {
            "duration": 0.5454540000000012,
            "durationTicks": 384,
            "midi": 64,
            "name": "E4",
            "ticks": 10368,
            "time": 14.727257999999999,
            "velocity": 0.4881889763779528
          },
          {
            "duration": 0.5454540000000012,
            "durationTicks": 384,
            "midi": 64,
            "name": "E4",
            "ticks": 10368,
            "time": 14.727257999999999,
            "velocity": 0.4881889763779528
          },
          {
            "duration": 0.5454540000000012,
            "durationTicks": 384,
            "midi": 64,
            "name": "E4",
            "ticks": 10368,
            "time": 14.727257999999999,
            "velocity": 0.4881889763779528
          },
          {
            "duration": 0.5454540000000012,
            "durationTicks": 384,
            "midi": 68,
            "name": "G#4",
            "ticks": 10368,
            "time": 14.727257999999999,
            "velocity": 0.4881889763779528
          },
          {
            "duration": 0.5454540000000012,
            "durationTicks": 384,
            "midi": 64,
            "name": "E4",
            "ticks": 10368,
            "time": 14.727257999999999,
            "velocity": 0.4881889763779528
          },
          {
            "duration": 0.5454540000000012,
            "durationTicks": 384,
            "midi": 61,
            "name": "C#4",
            "ticks": 10368,
            "time": 14.727257999999999,
            "velocity": 0.4881889763779528
          },
          {
            "duration": 0.5454540000000012,
            "durationTicks": 384,
            "midi": 68,
            "name": "G#4",
            "ticks": 10368,
            "time": 14.727257999999999,
            "velocity": 0.4881889763779528
          },
          {
            "duration": 0.5454540000000012,
            "durationTicks": 384,
            "midi": 68,
            "name": "G#4",
            "ticks": 10368,
            "time": 14.727257999999999,
            "velocity": 0.4881889763779528
          },
          {
            "duration": 0.40909050000000136,
            "durationTicks": 288,
            "midi": 76,
            "name": "E5",
            "ticks": 10368,
            "time": 14.727257999999999,
            "velocity": 0.4881889763779528
          },
          {
            "duration": 0.5454540000000012,
            "durationTicks": 384,
            "midi": 61,
            "name": "C#4",
            "ticks": 10368,
            "time": 14.727257999999999,
            "velocity": 0.4881889763779528
          },
          {
            "duration": 0.5454540000000012,
            "durationTicks": 384,
            "midi": 68,
            "name": "G#4",
            "ticks": 10368,
            "time": 14.727257999999999,
            "velocity": 0.4881889763779528
          },
          {
            "duration": 0.40909050000000136,
            "durationTicks": 288,
            "midi": 76,
            "name": "E5",
            "ticks": 10368,
            "time": 14.727257999999999,
            "velocity": 0.4881889763779528
          },
          {
            "duration": 0.40909050000000136,
            "durationTicks": 288,
            "midi": 76,
            "name": "E5",
            "ticks": 10368,
            "time": 14.727257999999999,
            "velocity": 0.4881889763779528
          },
          {
            "duration": 0.5454540000000012,
            "durationTicks": 384,
            "midi": 68,
            "name": "G#4",
            "ticks": 10368,
            "time": 14.727257999999999,
            "velocity": 0.4881889763779528
          },
          {
            "duration": 0.5454540000000012,
            "durationTicks": 384,
            "midi": 64,
            "name": "E4",
            "ticks": 10368,
            "time": 14.727257999999999,
            "velocity": 0.4881889763779528
          },
          {
            "duration": 0.5454540000000012,
            "durationTicks": 384,
            "midi": 68,
            "name": "G#4",
            "ticks": 10368,
            "time": 14.727257999999999,
            "velocity": 0.4881889763779528
          },
          {
            "duration": 0.5454540000000012,
            "durationTicks": 384,
            "midi": 61,
            "name": "C#4",
            "ticks": 10368,
            "time": 14.727257999999999,
            "velocity": 0.4881889763779528
          },
          {
            "duration": 0.40909050000000136,
            "durationTicks": 288,
            "midi": 76,
            "name": "E5",
            "ticks": 10368,
            "time": 14.727257999999999,
            "velocity": 0.4881889763779528
          },
          {
            "duration": 0.40909050000000136,
            "durationTicks": 288,
            "midi": 76,
            "name": "E5",
            "ticks": 10368,
            "time": 14.727257999999999,
            "velocity": 0.4881889763779528
          },
          {
            "duration": 0.13636349999999986,
            "durationTicks": 96,
            "midi": 76,
            "name": "E5",
            "ticks": 10656,
            "time": 15.1363485,
            "velocity": 0.4881889763779528
          },
          {
            "duration": 0.13636349999999986,
            "durationTicks": 96,
            "midi": 76,
            "name": "E5",
            "ticks": 10656,
            "time": 15.1363485,
            "velocity": 0.4881889763779528
          },
          {
            "duration": 0.13636349999999986,
            "durationTicks": 96,
            "midi": 76,
            "name": "E5",
            "ticks": 10656,
            "time": 15.1363485,
            "velocity": 0.4881889763779528
          },
          {
            "duration": 0.13636349999999986,
            "durationTicks": 96,
            "midi": 76,
            "name": "E5",
            "ticks": 10656,
            "time": 15.1363485,
            "velocity": 0.4881889763779528
          },
          {
            "duration": 0.13636349999999986,
            "durationTicks": 96,
            "midi": 76,
            "name": "E5",
            "ticks": 10656,
            "time": 15.1363485,
            "velocity": 0.4881889763779528
          },
          {
            "duration": 0.13636349999999986,
            "durationTicks": 96,
            "midi": 76,
            "name": "E5",
            "ticks": 10656,
            "time": 15.1363485,
            "velocity": 0.4881889763779528
          },
          {
            "duration": 0.2727269999999997,
            "durationTicks": 192,
            "midi": 78,
            "name": "F#5",
            "ticks": 10752,
            "time": 15.272712,
            "velocity": 0.4881889763779528
          },
          {
            "duration": 0.5454539999999994,
            "durationTicks": 384,
            "midi": 54,
            "name": "F#3",
            "ticks": 10752,
            "time": 15.272712,
            "velocity": 0.4881889763779528
          },
          {
            "duration": 0.5454539999999994,
            "durationTicks": 384,
            "midi": 42,
            "name": "F#2",
            "ticks": 10752,
            "time": 15.272712,
            "velocity": 0.4881889763779528
          },
          {
            "duration": 0.5454539999999994,
            "durationTicks": 384,
            "midi": 42,
            "name": "F#2",
            "ticks": 10752,
            "time": 15.272712,
            "velocity": 0.4881889763779528
          },
          {
            "duration": 0.5454539999999994,
            "durationTicks": 384,
            "midi": 54,
            "name": "F#3",
            "ticks": 10752,
            "time": 15.272712,
            "velocity": 0.4881889763779528
          },
          {
            "duration": 0.2727269999999997,
            "durationTicks": 192,
            "midi": 78,
            "name": "F#5",
            "ticks": 10752,
            "time": 15.272712,
            "velocity": 0.4881889763779528
          },
          {
            "duration": 0.5454539999999994,
            "durationTicks": 384,
            "midi": 54,
            "name": "F#3",
            "ticks": 10752,
            "time": 15.272712,
            "velocity": 0.4881889763779528
          },
          {
            "duration": 0.2727269999999997,
            "durationTicks": 192,
            "midi": 78,
            "name": "F#5",
            "ticks": 10752,
            "time": 15.272712,
            "velocity": 0.4881889763779528
          },
          {
            "duration": 0.5454539999999994,
            "durationTicks": 384,
            "midi": 42,
            "name": "F#2",
            "ticks": 10752,
            "time": 15.272712,
            "velocity": 0.4881889763779528
          },
          {
            "duration": 0.2727269999999997,
            "durationTicks": 192,
            "midi": 78,
            "name": "F#5",
            "ticks": 10752,
            "time": 15.272712,
            "velocity": 0.4881889763779528
          },
          {
            "duration": 0.5454539999999994,
            "durationTicks": 384,
            "midi": 42,
            "name": "F#2",
            "ticks": 10752,
            "time": 15.272712,
            "velocity": 0.4881889763779528
          },
          {
            "duration": 0.5454539999999994,
            "durationTicks": 384,
            "midi": 54,
            "name": "F#3",
            "ticks": 10752,
            "time": 15.272712,
            "velocity": 0.4881889763779528
          },
          {
            "duration": 0.5454539999999994,
            "durationTicks": 384,
            "midi": 54,
            "name": "F#3",
            "ticks": 10752,
            "time": 15.272712,
            "velocity": 0.4881889763779528
          },
          {
            "duration": 0.2727269999999997,
            "durationTicks": 192,
            "midi": 78,
            "name": "F#5",
            "ticks": 10752,
            "time": 15.272712,
            "velocity": 0.4881889763779528
          },
          {
            "duration": 0.5454539999999994,
            "durationTicks": 384,
            "midi": 42,
            "name": "F#2",
            "ticks": 10752,
            "time": 15.272712,
            "velocity": 0.4881889763779528
          },
          {
            "duration": 0.5454539999999994,
            "durationTicks": 384,
            "midi": 54,
            "name": "F#3",
            "ticks": 10752,
            "time": 15.272712,
            "velocity": 0.4881889763779528
          },
          {
            "duration": 0.5454539999999994,
            "durationTicks": 384,
            "midi": 42,
            "name": "F#2",
            "ticks": 10752,
            "time": 15.272712,
            "velocity": 0.4881889763779528
          },
          {
            "duration": 0.2727269999999997,
            "durationTicks": 192,
            "midi": 78,
            "name": "F#5",
            "ticks": 10752,
            "time": 15.272712,
            "velocity": 0.4881889763779528
          },
          {
            "duration": 0.2727269999999997,
            "durationTicks": 192,
            "midi": 81,
            "name": "A5",
            "ticks": 10944,
            "time": 15.545439,
            "velocity": 0.4881889763779528
          },
          {
            "duration": 0.2727269999999997,
            "durationTicks": 192,
            "midi": 81,
            "name": "A5",
            "ticks": 10944,
            "time": 15.545439,
            "velocity": 0.4881889763779528
          },
          {
            "duration": 0.2727269999999997,
            "durationTicks": 192,
            "midi": 81,
            "name": "A5",
            "ticks": 10944,
            "time": 15.545439,
            "velocity": 0.4881889763779528
          },
          {
            "duration": 0.2727269999999997,
            "durationTicks": 192,
            "midi": 81,
            "name": "A5",
            "ticks": 10944,
            "time": 15.545439,
            "velocity": 0.4881889763779528
          },
          {
            "duration": 0.2727269999999997,
            "durationTicks": 192,
            "midi": 81,
            "name": "A5",
            "ticks": 10944,
            "time": 15.545439,
            "velocity": 0.4881889763779528
          },
          {
            "duration": 0.2727269999999997,
            "durationTicks": 192,
            "midi": 81,
            "name": "A5",
            "ticks": 10944,
            "time": 15.545439,
            "velocity": 0.4881889763779528
          },
          {
            "duration": 0.5454540000000012,
            "durationTicks": 384,
            "midi": 66,
            "name": "F#4",
            "ticks": 11136,
            "time": 15.818166,
            "velocity": 0.4881889763779528
          },
          {
            "duration": 0.5454540000000012,
            "durationTicks": 384,
            "midi": 69,
            "name": "A4",
            "ticks": 11136,
            "time": 15.818166,
            "velocity": 0.4881889763779528
          },
          {
            "duration": 0.5454540000000012,
            "durationTicks": 384,
            "midi": 69,
            "name": "A4",
            "ticks": 11136,
            "time": 15.818166,
            "velocity": 0.4881889763779528
          },
          {
            "duration": 0.5454540000000012,
            "durationTicks": 384,
            "midi": 61,
            "name": "C#4",
            "ticks": 11136,
            "time": 15.818166,
            "velocity": 0.4881889763779528
          },
          {
            "duration": 0.5454540000000012,
            "durationTicks": 384,
            "midi": 61,
            "name": "C#4",
            "ticks": 11136,
            "time": 15.818166,
            "velocity": 0.4881889763779528
          },
          {
            "duration": 0.5454540000000012,
            "durationTicks": 384,
            "midi": 61,
            "name": "C#4",
            "ticks": 11136,
            "time": 15.818166,
            "velocity": 0.4881889763779528
          },
          {
            "duration": 0.5454540000000012,
            "durationTicks": 384,
            "midi": 69,
            "name": "A4",
            "ticks": 11136,
            "time": 15.818166,
            "velocity": 0.4881889763779528
          },
          {
            "duration": 0.5454540000000012,
            "durationTicks": 384,
            "midi": 61,
            "name": "C#4",
            "ticks": 11136,
            "time": 15.818166,
            "velocity": 0.4881889763779528
          },
          {
            "duration": 0.5454540000000012,
            "durationTicks": 384,
            "midi": 66,
            "name": "F#4",
            "ticks": 11136,
            "time": 15.818166,
            "velocity": 0.4881889763779528
          },
          {
            "duration": 0.2727270000000015,
            "durationTicks": 192,
            "midi": 80,
            "name": "G#5",
            "ticks": 11136,
            "time": 15.818166,
            "velocity": 0.4881889763779528
          },
          {
            "duration": 0.2727270000000015,
            "durationTicks": 192,
            "midi": 80,
            "name": "G#5",
            "ticks": 11136,
            "time": 15.818166,
            "velocity": 0.4881889763779528
          },
          {
            "duration": 0.5454540000000012,
            "durationTicks": 384,
            "midi": 66,
            "name": "F#4",
            "ticks": 11136,
            "time": 15.818166,
            "velocity": 0.4881889763779528
          },
          {
            "duration": 0.2727270000000015,
            "durationTicks": 192,
            "midi": 80,
            "name": "G#5",
            "ticks": 11136,
            "time": 15.818166,
            "velocity": 0.4881889763779528
          },
          {
            "duration": 0.5454540000000012,
            "durationTicks": 384,
            "midi": 69,
            "name": "A4",
            "ticks": 11136,
            "time": 15.818166,
            "velocity": 0.4881889763779528
          },
          {
            "duration": 0.5454540000000012,
            "durationTicks": 384,
            "midi": 66,
            "name": "F#4",
            "ticks": 11136,
            "time": 15.818166,
            "velocity": 0.4881889763779528
          },
          {
            "duration": 0.2727270000000015,
            "durationTicks": 192,
            "midi": 80,
            "name": "G#5",
            "ticks": 11136,
            "time": 15.818166,
            "velocity": 0.4881889763779528
          },
          {
            "duration": 0.5454540000000012,
            "durationTicks": 384,
            "midi": 61,
            "name": "C#4",
            "ticks": 11136,
            "time": 15.818166,
            "velocity": 0.4881889763779528
          },
          {
            "duration": 0.2727270000000015,
            "durationTicks": 192,
            "midi": 80,
            "name": "G#5",
            "ticks": 11136,
            "time": 15.818166,
            "velocity": 0.4881889763779528
          },
          {
            "duration": 0.5454540000000012,
            "durationTicks": 384,
            "midi": 66,
            "name": "F#4",
            "ticks": 11136,
            "time": 15.818166,
            "velocity": 0.4881889763779528
          },
          {
            "duration": 0.5454540000000012,
            "durationTicks": 384,
            "midi": 66,
            "name": "F#4",
            "ticks": 11136,
            "time": 15.818166,
            "velocity": 0.4881889763779528
          },
          {
            "duration": 0.5454540000000012,
            "durationTicks": 384,
            "midi": 69,
            "name": "A4",
            "ticks": 11136,
            "time": 15.818166,
            "velocity": 0.4881889763779528
          },
          {
            "duration": 0.5454540000000012,
            "durationTicks": 384,
            "midi": 61,
            "name": "C#4",
            "ticks": 11136,
            "time": 15.818166,
            "velocity": 0.4881889763779528
          },
          {
            "duration": 0.5454540000000012,
            "durationTicks": 384,
            "midi": 69,
            "name": "A4",
            "ticks": 11136,
            "time": 15.818166,
            "velocity": 0.4881889763779528
          },
          {
            "duration": 0.2727270000000015,
            "durationTicks": 192,
            "midi": 80,
            "name": "G#5",
            "ticks": 11136,
            "time": 15.818166,
            "velocity": 0.4881889763779528
          },
          {
            "duration": 0.2727269999999997,
            "durationTicks": 192,
            "midi": 78,
            "name": "F#5",
            "ticks": 11328,
            "time": 16.090893,
            "velocity": 0.4881889763779528
          },
          {
            "duration": 0.2727269999999997,
            "durationTicks": 192,
            "midi": 78,
            "name": "F#5",
            "ticks": 11328,
            "time": 16.090893,
            "velocity": 0.4881889763779528
          },
          {
            "duration": 0.2727269999999997,
            "durationTicks": 192,
            "midi": 78,
            "name": "F#5",
            "ticks": 11328,
            "time": 16.090893,
            "velocity": 0.4881889763779528
          },
          {
            "duration": 0.2727269999999997,
            "durationTicks": 192,
            "midi": 78,
            "name": "F#5",
            "ticks": 11328,
            "time": 16.090893,
            "velocity": 0.4881889763779528
          },
          {
            "duration": 0.2727269999999997,
            "durationTicks": 192,
            "midi": 78,
            "name": "F#5",
            "ticks": 11328,
            "time": 16.090893,
            "velocity": 0.4881889763779528
          },
          {
            "duration": 0.2727269999999997,
            "durationTicks": 192,
            "midi": 78,
            "name": "F#5",
            "ticks": 11328,
            "time": 16.090893,
            "velocity": 0.4881889763779528
          },
          {
            "duration": 0.2727269999999997,
            "durationTicks": 192,
            "midi": 76,
            "name": "E5",
            "ticks": 11520,
            "time": 16.36362,
            "velocity": 0.4881889763779528
          },
          {
            "duration": 0.2727269999999997,
            "durationTicks": 192,
            "midi": 76,
            "name": "E5",
            "ticks": 11520,
            "time": 16.36362,
            "velocity": 0.4881889763779528
          },
          {
            "duration": 0.5454539999999994,
            "durationTicks": 384,
            "midi": 44,
            "name": "G#2",
            "ticks": 11520,
            "time": 16.36362,
            "velocity": 0.4881889763779528
          },
          {
            "duration": 0.5454539999999994,
            "durationTicks": 384,
            "midi": 56,
            "name": "G#3",
            "ticks": 11520,
            "time": 16.36362,
            "velocity": 0.4881889763779528
          },
          {
            "duration": 0.2727269999999997,
            "durationTicks": 192,
            "midi": 76,
            "name": "E5",
            "ticks": 11520,
            "time": 16.36362,
            "velocity": 0.4881889763779528
          },
          {
            "duration": 0.5454539999999994,
            "durationTicks": 384,
            "midi": 44,
            "name": "G#2",
            "ticks": 11520,
            "time": 16.36362,
            "velocity": 0.4881889763779528
          },
          {
            "duration": 0.5454539999999994,
            "durationTicks": 384,
            "midi": 56,
            "name": "G#3",
            "ticks": 11520,
            "time": 16.36362,
            "velocity": 0.4881889763779528
          },
          {
            "duration": 0.2727269999999997,
            "durationTicks": 192,
            "midi": 76,
            "name": "E5",
            "ticks": 11520,
            "time": 16.36362,
            "velocity": 0.4881889763779528
          },
          {
            "duration": 0.2727269999999997,
            "durationTicks": 192,
            "midi": 76,
            "name": "E5",
            "ticks": 11520,
            "time": 16.36362,
            "velocity": 0.4881889763779528
          },
          {
            "duration": 0.5454539999999994,
            "durationTicks": 384,
            "midi": 44,
            "name": "G#2",
            "ticks": 11520,
            "time": 16.36362,
            "velocity": 0.4881889763779528
          },
          {
            "duration": 0.5454539999999994,
            "durationTicks": 384,
            "midi": 56,
            "name": "G#3",
            "ticks": 11520,
            "time": 16.36362,
            "velocity": 0.4881889763779528
          },
          {
            "duration": 0.5454539999999994,
            "durationTicks": 384,
            "midi": 44,
            "name": "G#2",
            "ticks": 11520,
            "time": 16.36362,
            "velocity": 0.4881889763779528
          },
          {
            "duration": 0.5454539999999994,
            "durationTicks": 384,
            "midi": 56,
            "name": "G#3",
            "ticks": 11520,
            "time": 16.36362,
            "velocity": 0.4881889763779528
          },
          {
            "duration": 0.2727269999999997,
            "durationTicks": 192,
            "midi": 76,
            "name": "E5",
            "ticks": 11520,
            "time": 16.36362,
            "velocity": 0.4881889763779528
          },
          {
            "duration": 0.5454539999999994,
            "durationTicks": 384,
            "midi": 56,
            "name": "G#3",
            "ticks": 11520,
            "time": 16.36362,
            "velocity": 0.4881889763779528
          },
          {
            "duration": 0.5454539999999994,
            "durationTicks": 384,
            "midi": 44,
            "name": "G#2",
            "ticks": 11520,
            "time": 16.36362,
            "velocity": 0.4881889763779528
          },
          {
            "duration": 0.5454539999999994,
            "durationTicks": 384,
            "midi": 44,
            "name": "G#2",
            "ticks": 11520,
            "time": 16.36362,
            "velocity": 0.4881889763779528
          },
          {
            "duration": 0.5454539999999994,
            "durationTicks": 384,
            "midi": 56,
            "name": "G#3",
            "ticks": 11520,
            "time": 16.36362,
            "velocity": 0.4881889763779528
          },
          {
            "duration": 0.2727269999999997,
            "durationTicks": 192,
            "midi": 75,
            "name": "D#5",
            "ticks": 11712,
            "time": 16.636347,
            "velocity": 0.4881889763779528
          },
          {
            "duration": 0.2727269999999997,
            "durationTicks": 192,
            "midi": 75,
            "name": "D#5",
            "ticks": 11712,
            "time": 16.636347,
            "velocity": 0.4881889763779528
          },
          {
            "duration": 0.2727269999999997,
            "durationTicks": 192,
            "midi": 75,
            "name": "D#5",
            "ticks": 11712,
            "time": 16.636347,
            "velocity": 0.4881889763779528
          },
          {
            "duration": 0.2727269999999997,
            "durationTicks": 192,
            "midi": 75,
            "name": "D#5",
            "ticks": 11712,
            "time": 16.636347,
            "velocity": 0.4881889763779528
          },
          {
            "duration": 0.2727269999999997,
            "durationTicks": 192,
            "midi": 75,
            "name": "D#5",
            "ticks": 11712,
            "time": 16.636347,
            "velocity": 0.4881889763779528
          },
          {
            "duration": 0.2727269999999997,
            "durationTicks": 192,
            "midi": 75,
            "name": "D#5",
            "ticks": 11712,
            "time": 16.636347,
            "velocity": 0.4881889763779528
          },
          {
            "duration": 0.5454539999999994,
            "durationTicks": 384,
            "midi": 63,
            "name": "D#4",
            "ticks": 11904,
            "time": 16.909074,
            "velocity": 0.4881889763779528
          },
          {
            "duration": 0.5454539999999994,
            "durationTicks": 384,
            "midi": 68,
            "name": "G#4",
            "ticks": 11904,
            "time": 16.909074,
            "velocity": 0.4881889763779528
          },
          {
            "duration": 0.2727269999999997,
            "durationTicks": 192,
            "midi": 73,
            "name": "C#5",
            "ticks": 11904,
            "time": 16.909074,
            "velocity": 0.4881889763779528
          },
          {
            "duration": 0.5454539999999994,
            "durationTicks": 384,
            "midi": 63,
            "name": "D#4",
            "ticks": 11904,
            "time": 16.909074,
            "velocity": 0.4881889763779528
          },
          {
            "duration": 0.5454539999999994,
            "durationTicks": 384,
            "midi": 68,
            "name": "G#4",
            "ticks": 11904,
            "time": 16.909074,
            "velocity": 0.4881889763779528
          },
          {
            "duration": 0.2727269999999997,
            "durationTicks": 192,
            "midi": 73,
            "name": "C#5",
            "ticks": 11904,
            "time": 16.909074,
            "velocity": 0.4881889763779528
          },
          {
            "duration": 0.5454539999999994,
            "durationTicks": 384,
            "midi": 63,
            "name": "D#4",
            "ticks": 11904,
            "time": 16.909074,
            "velocity": 0.4881889763779528
          },
          {
            "duration": 0.2727269999999997,
            "durationTicks": 192,
            "midi": 73,
            "name": "C#5",
            "ticks": 11904,
            "time": 16.909074,
            "velocity": 0.4881889763779528
          },
          {
            "duration": 0.5454539999999994,
            "durationTicks": 384,
            "midi": 68,
            "name": "G#4",
            "ticks": 11904,
            "time": 16.909074,
            "velocity": 0.4881889763779528
          },
          {
            "duration": 0.5454539999999994,
            "durationTicks": 384,
            "midi": 68,
            "name": "G#4",
            "ticks": 11904,
            "time": 16.909074,
            "velocity": 0.4881889763779528
          },
          {
            "duration": 0.5454539999999994,
            "durationTicks": 384,
            "midi": 63,
            "name": "D#4",
            "ticks": 11904,
            "time": 16.909074,
            "velocity": 0.4881889763779528
          },
          {
            "duration": 0.5454539999999994,
            "durationTicks": 384,
            "midi": 63,
            "name": "D#4",
            "ticks": 11904,
            "time": 16.909074,
            "velocity": 0.4881889763779528
          },
          {
            "duration": 0.5454539999999994,
            "durationTicks": 384,
            "midi": 68,
            "name": "G#4",
            "ticks": 11904,
            "time": 16.909074,
            "velocity": 0.4881889763779528
          },
          {
            "duration": 0.2727269999999997,
            "durationTicks": 192,
            "midi": 73,
            "name": "C#5",
            "ticks": 11904,
            "time": 16.909074,
            "velocity": 0.4881889763779528
          },
          {
            "duration": 0.5454539999999994,
            "durationTicks": 384,
            "midi": 63,
            "name": "D#4",
            "ticks": 11904,
            "time": 16.909074,
            "velocity": 0.4881889763779528
          },
          {
            "duration": 0.2727269999999997,
            "durationTicks": 192,
            "midi": 73,
            "name": "C#5",
            "ticks": 11904,
            "time": 16.909074,
            "velocity": 0.4881889763779528
          },
          {
            "duration": 0.5454539999999994,
            "durationTicks": 384,
            "midi": 68,
            "name": "G#4",
            "ticks": 11904,
            "time": 16.909074,
            "velocity": 0.4881889763779528
          },
          {
            "duration": 0.2727269999999997,
            "durationTicks": 192,
            "midi": 73,
            "name": "C#5",
            "ticks": 11904,
            "time": 16.909074,
            "velocity": 0.4881889763779528
          },
          {
            "duration": 0.2727269999999997,
            "durationTicks": 192,
            "midi": 75,
            "name": "D#5",
            "ticks": 12096,
            "time": 17.181801,
            "velocity": 0.4881889763779528
          },
          {
            "duration": 0.2727269999999997,
            "durationTicks": 192,
            "midi": 75,
            "name": "D#5",
            "ticks": 12096,
            "time": 17.181801,
            "velocity": 0.4881889763779528
          },
          {
            "duration": 0.2727269999999997,
            "durationTicks": 192,
            "midi": 75,
            "name": "D#5",
            "ticks": 12096,
            "time": 17.181801,
            "velocity": 0.4881889763779528
          },
          {
            "duration": 0.2727269999999997,
            "durationTicks": 192,
            "midi": 75,
            "name": "D#5",
            "ticks": 12096,
            "time": 17.181801,
            "velocity": 0.4881889763779528
          },
          {
            "duration": 0.2727269999999997,
            "durationTicks": 192,
            "midi": 75,
            "name": "D#5",
            "ticks": 12096,
            "time": 17.181801,
            "velocity": 0.4881889763779528
          },
          {
            "duration": 0.2727269999999997,
            "durationTicks": 192,
            "midi": 75,
            "name": "D#5",
            "ticks": 12096,
            "time": 17.181801,
            "velocity": 0.4881889763779528
          },
          {
            "duration": 0.2727269999999997,
            "durationTicks": 192,
            "midi": 73,
            "name": "C#5",
            "ticks": 12288,
            "time": 17.454528,
            "velocity": 0.4881889763779528
          },
          {
            "duration": 0.5454539999999994,
            "durationTicks": 384,
            "midi": 49,
            "name": "C#3",
            "ticks": 12288,
            "time": 17.454528,
            "velocity": 0.4881889763779528
          },
          {
            "duration": 0.5454539999999994,
            "durationTicks": 384,
            "midi": 61,
            "name": "C#4",
            "ticks": 12288,
            "time": 17.454528,
            "velocity": 0.4881889763779528
          },
          {
            "duration": 0.2727269999999997,
            "durationTicks": 192,
            "midi": 73,
            "name": "C#5",
            "ticks": 12288,
            "time": 17.454528,
            "velocity": 0.4881889763779528
          },
          {
            "duration": 0.5454539999999994,
            "durationTicks": 384,
            "midi": 61,
            "name": "C#4",
            "ticks": 12288,
            "time": 17.454528,
            "velocity": 0.4881889763779528
          },
          {
            "duration": 0.2727269999999997,
            "durationTicks": 192,
            "midi": 73,
            "name": "C#5",
            "ticks": 12288,
            "time": 17.454528,
            "velocity": 0.4881889763779528
          },
          {
            "duration": 0.2727269999999997,
            "durationTicks": 192,
            "midi": 73,
            "name": "C#5",
            "ticks": 12288,
            "time": 17.454528,
            "velocity": 0.4881889763779528
          },
          {
            "duration": 0.5454539999999994,
            "durationTicks": 384,
            "midi": 49,
            "name": "C#3",
            "ticks": 12288,
            "time": 17.454528,
            "velocity": 0.4881889763779528
          },
          {
            "duration": 0.5454539999999994,
            "durationTicks": 384,
            "midi": 61,
            "name": "C#4",
            "ticks": 12288,
            "time": 17.454528,
            "velocity": 0.4881889763779528
          },
          {
            "duration": 0.5454539999999994,
            "durationTicks": 384,
            "midi": 49,
            "name": "C#3",
            "ticks": 12288,
            "time": 17.454528,
            "velocity": 0.4881889763779528
          },
          {
            "duration": 0.5454539999999994,
            "durationTicks": 384,
            "midi": 49,
            "name": "C#3",
            "ticks": 12288,
            "time": 17.454528,
            "velocity": 0.4881889763779528
          },
          {
            "duration": 0.5454539999999994,
            "durationTicks": 384,
            "midi": 49,
            "name": "C#3",
            "ticks": 12288,
            "time": 17.454528,
            "velocity": 0.4881889763779528
          },
          {
            "duration": 0.5454539999999994,
            "durationTicks": 384,
            "midi": 61,
            "name": "C#4",
            "ticks": 12288,
            "time": 17.454528,
            "velocity": 0.4881889763779528
          },
          {
            "duration": 0.5454539999999994,
            "durationTicks": 384,
            "midi": 61,
            "name": "C#4",
            "ticks": 12288,
            "time": 17.454528,
            "velocity": 0.4881889763779528
          },
          {
            "duration": 0.5454539999999994,
            "durationTicks": 384,
            "midi": 61,
            "name": "C#4",
            "ticks": 12288,
            "time": 17.454528,
            "velocity": 0.4881889763779528
          },
          {
            "duration": 0.2727269999999997,
            "durationTicks": 192,
            "midi": 73,
            "name": "C#5",
            "ticks": 12288,
            "time": 17.454528,
            "velocity": 0.4881889763779528
          },
          {
            "duration": 0.2727269999999997,
            "durationTicks": 192,
            "midi": 73,
            "name": "C#5",
            "ticks": 12288,
            "time": 17.454528,
            "velocity": 0.4881889763779528
          },
          {
            "duration": 0.5454539999999994,
            "durationTicks": 384,
            "midi": 49,
            "name": "C#3",
            "ticks": 12288,
            "time": 17.454528,
            "velocity": 0.4881889763779528
          },
          {
            "duration": 0.2727269999999997,
            "durationTicks": 192,
            "midi": 88,
            "name": "E6",
            "ticks": 12480,
            "time": 17.727255,
            "velocity": 0.4881889763779528
          },
          {
            "duration": 0.2727269999999997,
            "durationTicks": 192,
            "midi": 88,
            "name": "E6",
            "ticks": 12480,
            "time": 17.727255,
            "velocity": 0.4881889763779528
          },
          {
            "duration": 0.2727269999999997,
            "durationTicks": 192,
            "midi": 88,
            "name": "E6",
            "ticks": 12480,
            "time": 17.727255,
            "velocity": 0.4881889763779528
          },
          {
            "duration": 0.2727269999999997,
            "durationTicks": 192,
            "midi": 88,
            "name": "E6",
            "ticks": 12480,
            "time": 17.727255,
            "velocity": 0.4881889763779528
          },
          {
            "duration": 0.2727269999999997,
            "durationTicks": 192,
            "midi": 88,
            "name": "E6",
            "ticks": 12480,
            "time": 17.727255,
            "velocity": 0.4881889763779528
          },
          {
            "duration": 0.2727269999999997,
            "durationTicks": 192,
            "midi": 88,
            "name": "E6",
            "ticks": 12480,
            "time": 17.727255,
            "velocity": 0.4881889763779528
          },
          {
            "duration": 0.2727269999999997,
            "durationTicks": 192,
            "midi": 87,
            "name": "D#6",
            "ticks": 12672,
            "time": 17.999982,
            "velocity": 0.4881889763779528
          },
          {
            "duration": 0.5454539999999994,
            "durationTicks": 384,
            "midi": 68,
            "name": "G#4",
            "ticks": 12672,
            "time": 17.999982,
            "velocity": 0.4881889763779528
          },
          {
            "duration": 0.5454539999999994,
            "durationTicks": 384,
            "midi": 68,
            "name": "G#4",
            "ticks": 12672,
            "time": 17.999982,
            "velocity": 0.4881889763779528
          },
          {
            "duration": 0.5454539999999994,
            "durationTicks": 384,
            "midi": 73,
            "name": "C#5",
            "ticks": 12672,
            "time": 17.999982,
            "velocity": 0.4881889763779528
          },
          {
            "duration": 0.5454539999999994,
            "durationTicks": 384,
            "midi": 68,
            "name": "G#4",
            "ticks": 12672,
            "time": 17.999982,
            "velocity": 0.4881889763779528
          },
          {
            "duration": 0.5454539999999994,
            "durationTicks": 384,
            "midi": 73,
            "name": "C#5",
            "ticks": 12672,
            "time": 17.999982,
            "velocity": 0.4881889763779528
          },
          {
            "duration": 0.5454539999999994,
            "durationTicks": 384,
            "midi": 64,
            "name": "E4",
            "ticks": 12672,
            "time": 17.999982,
            "velocity": 0.4881889763779528
          },
          {
            "duration": 0.5454539999999994,
            "durationTicks": 384,
            "midi": 73,
            "name": "C#5",
            "ticks": 12672,
            "time": 17.999982,
            "velocity": 0.4881889763779528
          },
          {
            "duration": 0.5454539999999994,
            "durationTicks": 384,
            "midi": 68,
            "name": "G#4",
            "ticks": 12672,
            "time": 17.999982,
            "velocity": 0.4881889763779528
          },
          {
            "duration": 0.2727269999999997,
            "durationTicks": 192,
            "midi": 87,
            "name": "D#6",
            "ticks": 12672,
            "time": 17.999982,
            "velocity": 0.4881889763779528
          },
          {
            "duration": 0.5454539999999994,
            "durationTicks": 384,
            "midi": 64,
            "name": "E4",
            "ticks": 12672,
            "time": 17.999982,
            "velocity": 0.4881889763779528
          },
          {
            "duration": 0.5454539999999994,
            "durationTicks": 384,
            "midi": 64,
            "name": "E4",
            "ticks": 12672,
            "time": 17.999982,
            "velocity": 0.4881889763779528
          },
          {
            "duration": 0.2727269999999997,
            "durationTicks": 192,
            "midi": 87,
            "name": "D#6",
            "ticks": 12672,
            "time": 17.999982,
            "velocity": 0.4881889763779528
          },
          {
            "duration": 0.2727269999999997,
            "durationTicks": 192,
            "midi": 87,
            "name": "D#6",
            "ticks": 12672,
            "time": 17.999982,
            "velocity": 0.4881889763779528
          },
          {
            "duration": 0.5454539999999994,
            "durationTicks": 384,
            "midi": 68,
            "name": "G#4",
            "ticks": 12672,
            "time": 17.999982,
            "velocity": 0.4881889763779528
          },
          {
            "duration": 0.5454539999999994,
            "durationTicks": 384,
            "midi": 73,
            "name": "C#5",
            "ticks": 12672,
            "time": 17.999982,
            "velocity": 0.4881889763779528
          },
          {
            "duration": 0.5454539999999994,
            "durationTicks": 384,
            "midi": 64,
            "name": "E4",
            "ticks": 12672,
            "time": 17.999982,
            "velocity": 0.4881889763779528
          },
          {
            "duration": 0.5454539999999994,
            "durationTicks": 384,
            "midi": 73,
            "name": "C#5",
            "ticks": 12672,
            "time": 17.999982,
            "velocity": 0.4881889763779528
          },
          {
            "duration": 0.2727269999999997,
            "durationTicks": 192,
            "midi": 87,
            "name": "D#6",
            "ticks": 12672,
            "time": 17.999982,
            "velocity": 0.4881889763779528
          },
          {
            "duration": 0.5454539999999994,
            "durationTicks": 384,
            "midi": 64,
            "name": "E4",
            "ticks": 12672,
            "time": 17.999982,
            "velocity": 0.4881889763779528
          },
          {
            "duration": 0.5454539999999994,
            "durationTicks": 384,
            "midi": 73,
            "name": "C#5",
            "ticks": 12672,
            "time": 17.999982,
            "velocity": 0.4881889763779528
          },
          {
            "duration": 0.5454539999999994,
            "durationTicks": 384,
            "midi": 68,
            "name": "G#4",
            "ticks": 12672,
            "time": 17.999982,
            "velocity": 0.4881889763779528
          },
          {
            "duration": 0.5454539999999994,
            "durationTicks": 384,
            "midi": 64,
            "name": "E4",
            "ticks": 12672,
            "time": 17.999982,
            "velocity": 0.4881889763779528
          },
          {
            "duration": 0.2727269999999997,
            "durationTicks": 192,
            "midi": 87,
            "name": "D#6",
            "ticks": 12672,
            "time": 17.999982,
            "velocity": 0.4881889763779528
          },
          {
            "duration": 0.13636350000000164,
            "durationTicks": 96,
            "midi": 85,
            "name": "C#6",
            "ticks": 12864,
            "time": 18.272709,
            "velocity": 0.4881889763779528
          },
          {
            "duration": 0.13636350000000164,
            "durationTicks": 96,
            "midi": 85,
            "name": "C#6",
            "ticks": 12864,
            "time": 18.272709,
            "velocity": 0.4881889763779528
          },
          {
            "duration": 0.13636350000000164,
            "durationTicks": 96,
            "midi": 85,
            "name": "C#6",
            "ticks": 12864,
            "time": 18.272709,
            "velocity": 0.4881889763779528
          },
          {
            "duration": 0.13636350000000164,
            "durationTicks": 96,
            "midi": 85,
            "name": "C#6",
            "ticks": 12864,
            "time": 18.272709,
            "velocity": 0.4881889763779528
          },
          {
            "duration": 0.13636350000000164,
            "durationTicks": 96,
            "midi": 85,
            "name": "C#6",
            "ticks": 12864,
            "time": 18.272709,
            "velocity": 0.4881889763779528
          },
          {
            "duration": 0.13636350000000164,
            "durationTicks": 96,
            "midi": 85,
            "name": "C#6",
            "ticks": 12864,
            "time": 18.272709,
            "velocity": 0.4881889763779528
          },
          {
            "duration": 0.13636349999999808,
            "durationTicks": 96,
            "midi": 85,
            "name": "C#6",
            "ticks": 12960,
            "time": 18.4090725,
            "velocity": 0.4881889763779528
          },
          {
            "duration": 0.13636349999999808,
            "durationTicks": 96,
            "midi": 85,
            "name": "C#6",
            "ticks": 12960,
            "time": 18.4090725,
            "velocity": 0.4881889763779528
          },
          {
            "duration": 0.13636349999999808,
            "durationTicks": 96,
            "midi": 85,
            "name": "C#6",
            "ticks": 12960,
            "time": 18.4090725,
            "velocity": 0.4881889763779528
          },
          {
            "duration": 0.13636349999999808,
            "durationTicks": 96,
            "midi": 85,
            "name": "C#6",
            "ticks": 12960,
            "time": 18.4090725,
            "velocity": 0.4881889763779528
          },
          {
            "duration": 0.13636349999999808,
            "durationTicks": 96,
            "midi": 85,
            "name": "C#6",
            "ticks": 12960,
            "time": 18.4090725,
            "velocity": 0.4881889763779528
          },
          {
            "duration": 0.13636349999999808,
            "durationTicks": 96,
            "midi": 85,
            "name": "C#6",
            "ticks": 12960,
            "time": 18.4090725,
            "velocity": 0.4881889763779528
          },
          {
            "duration": 0.13636350000000164,
            "durationTicks": 96,
            "midi": 77,
            "name": "F5",
            "ticks": 13056,
            "time": 18.545436,
            "velocity": 0.4881889763779528
          },
          {
            "duration": 0.2727269999999997,
            "durationTicks": 192,
            "midi": 83,
            "name": "B5",
            "ticks": 13056,
            "time": 18.545436,
            "velocity": 0.4881889763779528
          },
          {
            "duration": 0.5454539999999994,
            "durationTicks": 384,
            "midi": 47,
            "name": "B2",
            "ticks": 13056,
            "time": 18.545436,
            "velocity": 0.4881889763779528
          },
          {
            "duration": 0.5454539999999994,
            "durationTicks": 384,
            "midi": 47,
            "name": "B2",
            "ticks": 13056,
            "time": 18.545436,
            "velocity": 0.4881889763779528
          },
          {
            "duration": 0.2727269999999997,
            "durationTicks": 192,
            "midi": 83,
            "name": "B5",
            "ticks": 13056,
            "time": 18.545436,
            "velocity": 0.4881889763779528
          },
          {
            "duration": 0.2727269999999997,
            "durationTicks": 192,
            "midi": 83,
            "name": "B5",
            "ticks": 13056,
            "time": 18.545436,
            "velocity": 0.4881889763779528
          },
          {
            "duration": 0.5454539999999994,
            "durationTicks": 384,
            "midi": 59,
            "name": "B3",
            "ticks": 13056,
            "time": 18.545436,
            "velocity": 0.4881889763779528
          },
          {
            "duration": 0.13636350000000164,
            "durationTicks": 96,
            "midi": 77,
            "name": "F5",
            "ticks": 13056,
            "time": 18.545436,
            "velocity": 0.4881889763779528
          },
          {
            "duration": 0.5454539999999994,
            "durationTicks": 384,
            "midi": 47,
            "name": "B2",
            "ticks": 13056,
            "time": 18.545436,
            "velocity": 0.4881889763779528
          },
          {
            "duration": 0.5454539999999994,
            "durationTicks": 384,
            "midi": 59,
            "name": "B3",
            "ticks": 13056,
            "time": 18.545436,
            "velocity": 0.4881889763779528
          },
          {
            "duration": 0.13636350000000164,
            "durationTicks": 96,
            "midi": 77,
            "name": "F5",
            "ticks": 13056,
            "time": 18.545436,
            "velocity": 0.4881889763779528
          },
          {
            "duration": 0.5454539999999994,
            "durationTicks": 384,
            "midi": 59,
            "name": "B3",
            "ticks": 13056,
            "time": 18.545436,
            "velocity": 0.4881889763779528
          },
          {
            "duration": 0.5454539999999994,
            "durationTicks": 384,
            "midi": 59,
            "name": "B3",
            "ticks": 13056,
            "time": 18.545436,
            "velocity": 0.4881889763779528
          },
          {
            "duration": 0.5454539999999994,
            "durationTicks": 384,
            "midi": 47,
            "name": "B2",
            "ticks": 13056,
            "time": 18.545436,
            "velocity": 0.4881889763779528
          },
          {
            "duration": 0.5454539999999994,
            "durationTicks": 384,
            "midi": 47,
            "name": "B2",
            "ticks": 13056,
            "time": 18.545436,
            "velocity": 0.4881889763779528
          },
          {
            "duration": 0.5454539999999994,
            "durationTicks": 384,
            "midi": 59,
            "name": "B3",
            "ticks": 13056,
            "time": 18.545436,
            "velocity": 0.4881889763779528
          },
          {
            "duration": 0.2727269999999997,
            "durationTicks": 192,
            "midi": 83,
            "name": "B5",
            "ticks": 13056,
            "time": 18.545436,
            "velocity": 0.4881889763779528
          },
          {
            "duration": 0.2727269999999997,
            "durationTicks": 192,
            "midi": 83,
            "name": "B5",
            "ticks": 13056,
            "time": 18.545436,
            "velocity": 0.4881889763779528
          },
          {
            "duration": 0.5454539999999994,
            "durationTicks": 384,
            "midi": 59,
            "name": "B3",
            "ticks": 13056,
            "time": 18.545436,
            "velocity": 0.4881889763779528
          },
          {
            "duration": 0.13636350000000164,
            "durationTicks": 96,
            "midi": 77,
            "name": "F5",
            "ticks": 13056,
            "time": 18.545436,
            "velocity": 0.4881889763779528
          },
          {
            "duration": 0.2727269999999997,
            "durationTicks": 192,
            "midi": 83,
            "name": "B5",
            "ticks": 13056,
            "time": 18.545436,
            "velocity": 0.4881889763779528
          },
          {
            "duration": 0.5454539999999994,
            "durationTicks": 384,
            "midi": 47,
            "name": "B2",
            "ticks": 13056,
            "time": 18.545436,
            "velocity": 0.4881889763779528
          },
          {
            "duration": 0.13636350000000164,
            "durationTicks": 96,
            "midi": 77,
            "name": "F5",
            "ticks": 13056,
            "time": 18.545436,
            "velocity": 0.4881889763779528
          },
          {
            "duration": 0.2727269999999997,
            "durationTicks": 192,
            "midi": 88,
            "name": "E6",
            "ticks": 13248,
            "time": 18.818163,
            "velocity": 0.4881889763779528
          },
          {
            "duration": 0.2727269999999997,
            "durationTicks": 192,
            "midi": 88,
            "name": "E6",
            "ticks": 13248,
            "time": 18.818163,
            "velocity": 0.4881889763779528
          },
          {
            "duration": 0.2727269999999997,
            "durationTicks": 192,
            "midi": 88,
            "name": "E6",
            "ticks": 13248,
            "time": 18.818163,
            "velocity": 0.4881889763779528
          },
          {
            "duration": 0.2727269999999997,
            "durationTicks": 192,
            "midi": 88,
            "name": "E6",
            "ticks": 13248,
            "time": 18.818163,
            "velocity": 0.4881889763779528
          },
          {
            "duration": 0.2727269999999997,
            "durationTicks": 192,
            "midi": 88,
            "name": "E6",
            "ticks": 13248,
            "time": 18.818163,
            "velocity": 0.4881889763779528
          },
          {
            "duration": 0.2727269999999997,
            "durationTicks": 192,
            "midi": 88,
            "name": "E6",
            "ticks": 13248,
            "time": 18.818163,
            "velocity": 0.4881889763779528
          },
          {
            "duration": 0.545454000000003,
            "durationTicks": 384,
            "midi": 71,
            "name": "B4",
            "ticks": 13440,
            "time": 19.090889999999998,
            "velocity": 0.4881889763779528
          },
          {
            "duration": 0.2727270000000033,
            "durationTicks": 192,
            "midi": 80,
            "name": "G#5",
            "ticks": 13440,
            "time": 19.090889999999998,
            "velocity": 0.4881889763779528
          },
          {
            "duration": 0.545454000000003,
            "durationTicks": 384,
            "midi": 68,
            "name": "G#4",
            "ticks": 13440,
            "time": 19.090889999999998,
            "velocity": 0.4881889763779528
          },
          {
            "duration": 0.545454000000003,
            "durationTicks": 384,
            "midi": 68,
            "name": "G#4",
            "ticks": 13440,
            "time": 19.090889999999998,
            "velocity": 0.4881889763779528
          },
          {
            "duration": 0.545454000000003,
            "durationTicks": 384,
            "midi": 71,
            "name": "B4",
            "ticks": 13440,
            "time": 19.090889999999998,
            "velocity": 0.4881889763779528
          },
          {
            "duration": 0.545454000000003,
            "durationTicks": 384,
            "midi": 71,
            "name": "B4",
            "ticks": 13440,
            "time": 19.090889999999998,
            "velocity": 0.4881889763779528
          },
          {
            "duration": 0.545454000000003,
            "durationTicks": 384,
            "midi": 71,
            "name": "B4",
            "ticks": 13440,
            "time": 19.090889999999998,
            "velocity": 0.4881889763779528
          },
          {
            "duration": 0.545454000000003,
            "durationTicks": 384,
            "midi": 68,
            "name": "G#4",
            "ticks": 13440,
            "time": 19.090889999999998,
            "velocity": 0.4881889763779528
          },
          {
            "duration": 0.545454000000003,
            "durationTicks": 384,
            "midi": 64,
            "name": "E4",
            "ticks": 13440,
            "time": 19.090889999999998,
            "velocity": 0.4881889763779528
          },
          {
            "duration": 0.545454000000003,
            "durationTicks": 384,
            "midi": 64,
            "name": "E4",
            "ticks": 13440,
            "time": 19.090889999999998,
            "velocity": 0.4881889763779528
          },
          {
            "duration": 0.2727270000000033,
            "durationTicks": 192,
            "midi": 80,
            "name": "G#5",
            "ticks": 13440,
            "time": 19.090889999999998,
            "velocity": 0.4881889763779528
          },
          {
            "duration": 0.2727270000000033,
            "durationTicks": 192,
            "midi": 80,
            "name": "G#5",
            "ticks": 13440,
            "time": 19.090889999999998,
            "velocity": 0.4881889763779528
          },
          {
            "duration": 0.545454000000003,
            "durationTicks": 384,
            "midi": 64,
            "name": "E4",
            "ticks": 13440,
            "time": 19.090889999999998,
            "velocity": 0.4881889763779528
          },
          {
            "duration": 0.545454000000003,
            "durationTicks": 384,
            "midi": 64,
            "name": "E4",
            "ticks": 13440,
            "time": 19.090889999999998,
            "velocity": 0.4881889763779528
          },
          {
            "duration": 0.545454000000003,
            "durationTicks": 384,
            "midi": 68,
            "name": "G#4",
            "ticks": 13440,
            "time": 19.090889999999998,
            "velocity": 0.4881889763779528
          },
          {
            "duration": 0.545454000000003,
            "durationTicks": 384,
            "midi": 71,
            "name": "B4",
            "ticks": 13440,
            "time": 19.090889999999998,
            "velocity": 0.4881889763779528
          },
          {
            "duration": 0.2727270000000033,
            "durationTicks": 192,
            "midi": 80,
            "name": "G#5",
            "ticks": 13440,
            "time": 19.090889999999998,
            "velocity": 0.4881889763779528
          },
          {
            "duration": 0.545454000000003,
            "durationTicks": 384,
            "midi": 64,
            "name": "E4",
            "ticks": 13440,
            "time": 19.090889999999998,
            "velocity": 0.4881889763779528
          },
          {
            "duration": 0.545454000000003,
            "durationTicks": 384,
            "midi": 68,
            "name": "G#4",
            "ticks": 13440,
            "time": 19.090889999999998,
            "velocity": 0.4881889763779528
          },
          {
            "duration": 0.2727270000000033,
            "durationTicks": 192,
            "midi": 80,
            "name": "G#5",
            "ticks": 13440,
            "time": 19.090889999999998,
            "velocity": 0.4881889763779528
          },
          {
            "duration": 0.545454000000003,
            "durationTicks": 384,
            "midi": 68,
            "name": "G#4",
            "ticks": 13440,
            "time": 19.090889999999998,
            "velocity": 0.4881889763779528
          },
          {
            "duration": 0.545454000000003,
            "durationTicks": 384,
            "midi": 71,
            "name": "B4",
            "ticks": 13440,
            "time": 19.090889999999998,
            "velocity": 0.4881889763779528
          },
          {
            "duration": 0.2727270000000033,
            "durationTicks": 192,
            "midi": 80,
            "name": "G#5",
            "ticks": 13440,
            "time": 19.090889999999998,
            "velocity": 0.4881889763779528
          },
          {
            "duration": 0.545454000000003,
            "durationTicks": 384,
            "midi": 64,
            "name": "E4",
            "ticks": 13440,
            "time": 19.090889999999998,
            "velocity": 0.4881889763779528
          },
          {
            "duration": 0.13636349999999808,
            "durationTicks": 96,
            "midi": 83,
            "name": "B5",
            "ticks": 13632,
            "time": 19.363617,
            "velocity": 0.4881889763779528
          },
          {
            "duration": 0.13636349999999808,
            "durationTicks": 96,
            "midi": 83,
            "name": "B5",
            "ticks": 13632,
            "time": 19.363617,
            "velocity": 0.4881889763779528
          },
          {
            "duration": 0.13636349999999808,
            "durationTicks": 96,
            "midi": 83,
            "name": "B5",
            "ticks": 13632,
            "time": 19.363617,
            "velocity": 0.4881889763779528
          },
          {
            "duration": 0.13636349999999808,
            "durationTicks": 96,
            "midi": 83,
            "name": "B5",
            "ticks": 13632,
            "time": 19.363617,
            "velocity": 0.4881889763779528
          },
          {
            "duration": 0.13636349999999808,
            "durationTicks": 96,
            "midi": 83,
            "name": "B5",
            "ticks": 13632,
            "time": 19.363617,
            "velocity": 0.4881889763779528
          },
          {
            "duration": 0.13636349999999808,
            "durationTicks": 96,
            "midi": 83,
            "name": "B5",
            "ticks": 13632,
            "time": 19.363617,
            "velocity": 0.4881889763779528
          },
          {
            "duration": 0.13636350000000164,
            "durationTicks": 96,
            "midi": 85,
            "name": "C#6",
            "ticks": 13728,
            "time": 19.4999805,
            "velocity": 0.4881889763779528
          },
          {
            "duration": 0.13636350000000164,
            "durationTicks": 96,
            "midi": 85,
            "name": "C#6",
            "ticks": 13728,
            "time": 19.4999805,
            "velocity": 0.4881889763779528
          },
          {
            "duration": 0.13636350000000164,
            "durationTicks": 96,
            "midi": 85,
            "name": "C#6",
            "ticks": 13728,
            "time": 19.4999805,
            "velocity": 0.4881889763779528
          },
          {
            "duration": 0.13636350000000164,
            "durationTicks": 96,
            "midi": 85,
            "name": "C#6",
            "ticks": 13728,
            "time": 19.4999805,
            "velocity": 0.4881889763779528
          },
          {
            "duration": 0.13636350000000164,
            "durationTicks": 96,
            "midi": 85,
            "name": "C#6",
            "ticks": 13728,
            "time": 19.4999805,
            "velocity": 0.4881889763779528
          },
          {
            "duration": 0.13636350000000164,
            "durationTicks": 96,
            "midi": 85,
            "name": "C#6",
            "ticks": 13728,
            "time": 19.4999805,
            "velocity": 0.4881889763779528
          },
          {
            "duration": 0.5454539999999994,
            "durationTicks": 384,
            "midi": 57,
            "name": "A3",
            "ticks": 13824,
            "time": 19.636344,
            "velocity": 0.4881889763779528
          },
          {
            "duration": 0.5454539999999994,
            "durationTicks": 384,
            "midi": 57,
            "name": "A3",
            "ticks": 13824,
            "time": 19.636344,
            "velocity": 0.4881889763779528
          },
          {
            "duration": 0.5454539999999994,
            "durationTicks": 384,
            "midi": 45,
            "name": "A2",
            "ticks": 13824,
            "time": 19.636344,
            "velocity": 0.4881889763779528
          },
          {
            "duration": 0.5454539999999994,
            "durationTicks": 384,
            "midi": 45,
            "name": "A2",
            "ticks": 13824,
            "time": 19.636344,
            "velocity": 0.4881889763779528
          },
          {
            "duration": 0.2727269999999997,
            "durationTicks": 192,
            "midi": 83,
            "name": "B5",
            "ticks": 13824,
            "time": 19.636344,
            "velocity": 0.4881889763779528
          },
          {
            "duration": 0.5454539999999994,
            "durationTicks": 384,
            "midi": 45,
            "name": "A2",
            "ticks": 13824,
            "time": 19.636344,
            "velocity": 0.4881889763779528
          },
          {
            "duration": 0.5454539999999994,
            "durationTicks": 384,
            "midi": 57,
            "name": "A3",
            "ticks": 13824,
            "time": 19.636344,
            "velocity": 0.4881889763779528
          },
          {
            "duration": 0.5454539999999994,
            "durationTicks": 384,
            "midi": 57,
            "name": "A3",
            "ticks": 13824,
            "time": 19.636344,
            "velocity": 0.4881889763779528
          },
          {
            "duration": 0.5454539999999994,
            "durationTicks": 384,
            "midi": 45,
            "name": "A2",
            "ticks": 13824,
            "time": 19.636344,
            "velocity": 0.4881889763779528
          },
          {
            "duration": 0.2727269999999997,
            "durationTicks": 192,
            "midi": 83,
            "name": "B5",
            "ticks": 13824,
            "time": 19.636344,
            "velocity": 0.4881889763779528
          },
          {
            "duration": 0.2727269999999997,
            "durationTicks": 192,
            "midi": 83,
            "name": "B5",
            "ticks": 13824,
            "time": 19.636344,
            "velocity": 0.4881889763779528
          },
          {
            "duration": 0.2727269999999997,
            "durationTicks": 192,
            "midi": 83,
            "name": "B5",
            "ticks": 13824,
            "time": 19.636344,
            "velocity": 0.4881889763779528
          },
          {
            "duration": 0.5454539999999994,
            "durationTicks": 384,
            "midi": 57,
            "name": "A3",
            "ticks": 13824,
            "time": 19.636344,
            "velocity": 0.4881889763779528
          },
          {
            "duration": 0.5454539999999994,
            "durationTicks": 384,
            "midi": 57,
            "name": "A3",
            "ticks": 13824,
            "time": 19.636344,
            "velocity": 0.4881889763779528
          },
          {
            "duration": 0.2727269999999997,
            "durationTicks": 192,
            "midi": 83,
            "name": "B5",
            "ticks": 13824,
            "time": 19.636344,
            "velocity": 0.4881889763779528
          },
          {
            "duration": 0.5454539999999994,
            "durationTicks": 384,
            "midi": 45,
            "name": "A2",
            "ticks": 13824,
            "time": 19.636344,
            "velocity": 0.4881889763779528
          },
          {
            "duration": 0.2727269999999997,
            "durationTicks": 192,
            "midi": 83,
            "name": "B5",
            "ticks": 13824,
            "time": 19.636344,
            "velocity": 0.4881889763779528
          },
          {
            "duration": 0.5454539999999994,
            "durationTicks": 384,
            "midi": 45,
            "name": "A2",
            "ticks": 13824,
            "time": 19.636344,
            "velocity": 0.4881889763779528
          },
          {
            "duration": 0.2727269999999997,
            "durationTicks": 192,
            "midi": 81,
            "name": "A5",
            "ticks": 14016,
            "time": 19.909071,
            "velocity": 0.4881889763779528
          },
          {
            "duration": 0.2727269999999997,
            "durationTicks": 192,
            "midi": 81,
            "name": "A5",
            "ticks": 14016,
            "time": 19.909071,
            "velocity": 0.4881889763779528
          },
          {
            "duration": 0.2727269999999997,
            "durationTicks": 192,
            "midi": 81,
            "name": "A5",
            "ticks": 14016,
            "time": 19.909071,
            "velocity": 0.4881889763779528
          },
          {
            "duration": 0.2727269999999997,
            "durationTicks": 192,
            "midi": 81,
            "name": "A5",
            "ticks": 14016,
            "time": 19.909071,
            "velocity": 0.4881889763779528
          },
          {
            "duration": 0.2727269999999997,
            "durationTicks": 192,
            "midi": 81,
            "name": "A5",
            "ticks": 14016,
            "time": 19.909071,
            "velocity": 0.4881889763779528
          },
          {
            "duration": 0.2727269999999997,
            "durationTicks": 192,
            "midi": 81,
            "name": "A5",
            "ticks": 14016,
            "time": 19.909071,
            "velocity": 0.4881889763779528
          },
          {
            "duration": 0.2727269999999997,
            "durationTicks": 192,
            "midi": 80,
            "name": "G#5",
            "ticks": 14208,
            "time": 20.181798,
            "velocity": 0.4881889763779528
          },
          {
            "duration": 0.5454539999999994,
            "durationTicks": 384,
            "midi": 73,
            "name": "C#5",
            "ticks": 14208,
            "time": 20.181798,
            "velocity": 0.4881889763779528
          },
          {
            "duration": 0.2727269999999997,
            "durationTicks": 192,
            "midi": 80,
            "name": "G#5",
            "ticks": 14208,
            "time": 20.181798,
            "velocity": 0.4881889763779528
          },
          {
            "duration": 0.5454539999999994,
            "durationTicks": 384,
            "midi": 64,
            "name": "E4",
            "ticks": 14208,
            "time": 20.181798,
            "velocity": 0.4881889763779528
          },
          {
            "duration": 0.5454539999999994,
            "durationTicks": 384,
            "midi": 73,
            "name": "C#5",
            "ticks": 14208,
            "time": 20.181798,
            "velocity": 0.4881889763779528
          },
          {
            "duration": 0.5454539999999994,
            "durationTicks": 384,
            "midi": 73,
            "name": "C#5",
            "ticks": 14208,
            "time": 20.181798,
            "velocity": 0.4881889763779528
          },
          {
            "duration": 0.5454539999999994,
            "durationTicks": 384,
            "midi": 64,
            "name": "E4",
            "ticks": 14208,
            "time": 20.181798,
            "velocity": 0.4881889763779528
          },
          {
            "duration": 0.5454539999999994,
            "durationTicks": 384,
            "midi": 64,
            "name": "E4",
            "ticks": 14208,
            "time": 20.181798,
            "velocity": 0.4881889763779528
          },
          {
            "duration": 0.5454539999999994,
            "durationTicks": 384,
            "midi": 73,
            "name": "C#5",
            "ticks": 14208,
            "time": 20.181798,
            "velocity": 0.4881889763779528
          },
          {
            "duration": 0.5454539999999994,
            "durationTicks": 384,
            "midi": 64,
            "name": "E4",
            "ticks": 14208,
            "time": 20.181798,
            "velocity": 0.4881889763779528
          },
          {
            "duration": 0.2727269999999997,
            "durationTicks": 192,
            "midi": 80,
            "name": "G#5",
            "ticks": 14208,
            "time": 20.181798,
            "velocity": 0.4881889763779528
          },
          {
            "duration": 0.5454539999999994,
            "durationTicks": 384,
            "midi": 69,
            "name": "A4",
            "ticks": 14208,
            "time": 20.181798,
            "velocity": 0.4881889763779528
          },
          {
            "duration": 0.2727269999999997,
            "durationTicks": 192,
            "midi": 80,
            "name": "G#5",
            "ticks": 14208,
            "time": 20.181798,
            "velocity": 0.4881889763779528
          },
          {
            "duration": 0.5454539999999994,
            "durationTicks": 384,
            "midi": 73,
            "name": "C#5",
            "ticks": 14208,
            "time": 20.181798,
            "velocity": 0.4881889763779528
          },
          {
            "duration": 0.5454539999999994,
            "durationTicks": 384,
            "midi": 64,
            "name": "E4",
            "ticks": 14208,
            "time": 20.181798,
            "velocity": 0.4881889763779528
          },
          {
            "duration": 0.5454539999999994,
            "durationTicks": 384,
            "midi": 69,
            "name": "A4",
            "ticks": 14208,
            "time": 20.181798,
            "velocity": 0.4881889763779528
          },
          {
            "duration": 0.5454539999999994,
            "durationTicks": 384,
            "midi": 73,
            "name": "C#5",
            "ticks": 14208,
            "time": 20.181798,
            "velocity": 0.4881889763779528
          },
          {
            "duration": 0.5454539999999994,
            "durationTicks": 384,
            "midi": 69,
            "name": "A4",
            "ticks": 14208,
            "time": 20.181798,
            "velocity": 0.4881889763779528
          },
          {
            "duration": 0.5454539999999994,
            "durationTicks": 384,
            "midi": 69,
            "name": "A4",
            "ticks": 14208,
            "time": 20.181798,
            "velocity": 0.4881889763779528
          },
          {
            "duration": 0.5454539999999994,
            "durationTicks": 384,
            "midi": 69,
            "name": "A4",
            "ticks": 14208,
            "time": 20.181798,
            "velocity": 0.4881889763779528
          },
          {
            "duration": 0.5454539999999994,
            "durationTicks": 384,
            "midi": 64,
            "name": "E4",
            "ticks": 14208,
            "time": 20.181798,
            "velocity": 0.4881889763779528
          },
          {
            "duration": 0.5454539999999994,
            "durationTicks": 384,
            "midi": 69,
            "name": "A4",
            "ticks": 14208,
            "time": 20.181798,
            "velocity": 0.4881889763779528
          },
          {
            "duration": 0.2727269999999997,
            "durationTicks": 192,
            "midi": 80,
            "name": "G#5",
            "ticks": 14208,
            "time": 20.181798,
            "velocity": 0.4881889763779528
          },
          {
            "duration": 0.2727269999999997,
            "durationTicks": 192,
            "midi": 80,
            "name": "G#5",
            "ticks": 14208,
            "time": 20.181798,
            "velocity": 0.4881889763779528
          },
          {
            "duration": 0.2727269999999997,
            "durationTicks": 192,
            "midi": 78,
            "name": "F#5",
            "ticks": 14400,
            "time": 20.454525,
            "velocity": 0.4881889763779528
          },
          {
            "duration": 0.2727269999999997,
            "durationTicks": 192,
            "midi": 78,
            "name": "F#5",
            "ticks": 14400,
            "time": 20.454525,
            "velocity": 0.4881889763779528
          },
          {
            "duration": 0.2727269999999997,
            "durationTicks": 192,
            "midi": 78,
            "name": "F#5",
            "ticks": 14400,
            "time": 20.454525,
            "velocity": 0.4881889763779528
          },
          {
            "duration": 0.2727269999999997,
            "durationTicks": 192,
            "midi": 78,
            "name": "F#5",
            "ticks": 14400,
            "time": 20.454525,
            "velocity": 0.4881889763779528
          },
          {
            "duration": 0.2727269999999997,
            "durationTicks": 192,
            "midi": 78,
            "name": "F#5",
            "ticks": 14400,
            "time": 20.454525,
            "velocity": 0.4881889763779528
          },
          {
            "duration": 0.2727269999999997,
            "durationTicks": 192,
            "midi": 78,
            "name": "F#5",
            "ticks": 14400,
            "time": 20.454525,
            "velocity": 0.4881889763779528
          },
          {
            "duration": 0.2727269999999997,
            "durationTicks": 192,
            "midi": 80,
            "name": "G#5",
            "ticks": 14592,
            "time": 20.727252,
            "velocity": 0.4881889763779528
          },
          {
            "duration": 0.2727269999999997,
            "durationTicks": 192,
            "midi": 80,
            "name": "G#5",
            "ticks": 14592,
            "time": 20.727252,
            "velocity": 0.4881889763779528
          },
          {
            "duration": 0.5454539999999994,
            "durationTicks": 384,
            "midi": 44,
            "name": "G#2",
            "ticks": 14592,
            "time": 20.727252,
            "velocity": 0.4881889763779528
          },
          {
            "duration": 0.5454539999999994,
            "durationTicks": 384,
            "midi": 56,
            "name": "G#3",
            "ticks": 14592,
            "time": 20.727252,
            "velocity": 0.4881889763779528
          },
          {
            "duration": 0.5454539999999994,
            "durationTicks": 384,
            "midi": 56,
            "name": "G#3",
            "ticks": 14592,
            "time": 20.727252,
            "velocity": 0.4881889763779528
          },
          {
            "duration": 0.5454539999999994,
            "durationTicks": 384,
            "midi": 44,
            "name": "G#2",
            "ticks": 14592,
            "time": 20.727252,
            "velocity": 0.4881889763779528
          },
          {
            "duration": 0.5454539999999994,
            "durationTicks": 384,
            "midi": 56,
            "name": "G#3",
            "ticks": 14592,
            "time": 20.727252,
            "velocity": 0.4881889763779528
          },
          {
            "duration": 0.2727269999999997,
            "durationTicks": 192,
            "midi": 80,
            "name": "G#5",
            "ticks": 14592,
            "time": 20.727252,
            "velocity": 0.4881889763779528
          },
          {
            "duration": 0.5454539999999994,
            "durationTicks": 384,
            "midi": 44,
            "name": "G#2",
            "ticks": 14592,
            "time": 20.727252,
            "velocity": 0.4881889763779528
          },
          {
            "duration": 0.5454539999999994,
            "durationTicks": 384,
            "midi": 56,
            "name": "G#3",
            "ticks": 14592,
            "time": 20.727252,
            "velocity": 0.4881889763779528
          },
          {
            "duration": 0.5454539999999994,
            "durationTicks": 384,
            "midi": 44,
            "name": "G#2",
            "ticks": 14592,
            "time": 20.727252,
            "velocity": 0.4881889763779528
          },
          {
            "duration": 0.5454539999999994,
            "durationTicks": 384,
            "midi": 44,
            "name": "G#2",
            "ticks": 14592,
            "time": 20.727252,
            "velocity": 0.4881889763779528
          },
          {
            "duration": 0.2727269999999997,
            "durationTicks": 192,
            "midi": 80,
            "name": "G#5",
            "ticks": 14592,
            "time": 20.727252,
            "velocity": 0.4881889763779528
          },
          {
            "duration": 0.2727269999999997,
            "durationTicks": 192,
            "midi": 80,
            "name": "G#5",
            "ticks": 14592,
            "time": 20.727252,
            "velocity": 0.4881889763779528
          },
          {
            "duration": 0.2727269999999997,
            "durationTicks": 192,
            "midi": 80,
            "name": "G#5",
            "ticks": 14592,
            "time": 20.727252,
            "velocity": 0.4881889763779528
          },
          {
            "duration": 0.5454539999999994,
            "durationTicks": 384,
            "midi": 44,
            "name": "G#2",
            "ticks": 14592,
            "time": 20.727252,
            "velocity": 0.4881889763779528
          },
          {
            "duration": 0.5454539999999994,
            "durationTicks": 384,
            "midi": 56,
            "name": "G#3",
            "ticks": 14592,
            "time": 20.727252,
            "velocity": 0.4881889763779528
          },
          {
            "duration": 0.5454539999999994,
            "durationTicks": 384,
            "midi": 56,
            "name": "G#3",
            "ticks": 14592,
            "time": 20.727252,
            "velocity": 0.4881889763779528
          },
          {
            "duration": 0.2727269999999997,
            "durationTicks": 192,
            "midi": 73,
            "name": "C#5",
            "ticks": 14784,
            "time": 20.999979,
            "velocity": 0.4881889763779528
          },
          {
            "duration": 0.2727269999999997,
            "durationTicks": 192,
            "midi": 73,
            "name": "C#5",
            "ticks": 14784,
            "time": 20.999979,
            "velocity": 0.4881889763779528
          },
          {
            "duration": 0.2727269999999997,
            "durationTicks": 192,
            "midi": 73,
            "name": "C#5",
            "ticks": 14784,
            "time": 20.999979,
            "velocity": 0.4881889763779528
          },
          {
            "duration": 0.2727269999999997,
            "durationTicks": 192,
            "midi": 73,
            "name": "C#5",
            "ticks": 14784,
            "time": 20.999979,
            "velocity": 0.4881889763779528
          },
          {
            "duration": 0.2727269999999997,
            "durationTicks": 192,
            "midi": 73,
            "name": "C#5",
            "ticks": 14784,
            "time": 20.999979,
            "velocity": 0.4881889763779528
          },
          {
            "duration": 0.2727269999999997,
            "durationTicks": 192,
            "midi": 73,
            "name": "C#5",
            "ticks": 14784,
            "time": 20.999979,
            "velocity": 0.4881889763779528
          },
          {
            "duration": 0.5454539999999994,
            "durationTicks": 384,
            "midi": 71,
            "name": "B4",
            "ticks": 14976,
            "time": 21.272706,
            "velocity": 0.4881889763779528
          },
          {
            "duration": 0.5454539999999994,
            "durationTicks": 384,
            "midi": 68,
            "name": "G#4",
            "ticks": 14976,
            "time": 21.272706,
            "velocity": 0.4881889763779528
          },
          {
            "duration": 0.5454539999999994,
            "durationTicks": 384,
            "midi": 68,
            "name": "G#4",
            "ticks": 14976,
            "time": 21.272706,
            "velocity": 0.4881889763779528
          },
          {
            "duration": 0.5454539999999994,
            "durationTicks": 384,
            "midi": 63,
            "name": "D#4",
            "ticks": 14976,
            "time": 21.272706,
            "velocity": 0.4881889763779528
          },
          {
            "duration": 0.5454539999999994,
            "durationTicks": 384,
            "midi": 71,
            "name": "B4",
            "ticks": 14976,
            "time": 21.272706,
            "velocity": 0.4881889763779528
          },
          {
            "duration": 0.5454539999999994,
            "durationTicks": 384,
            "midi": 63,
            "name": "D#4",
            "ticks": 14976,
            "time": 21.272706,
            "velocity": 0.4881889763779528
          },
          {
            "duration": 0.5454539999999994,
            "durationTicks": 384,
            "midi": 71,
            "name": "B4",
            "ticks": 14976,
            "time": 21.272706,
            "velocity": 0.4881889763779528
          },
          {
            "duration": 0.5454539999999994,
            "durationTicks": 384,
            "midi": 68,
            "name": "G#4",
            "ticks": 14976,
            "time": 21.272706,
            "velocity": 0.4881889763779528
          },
          {
            "duration": 0.5454539999999994,
            "durationTicks": 384,
            "midi": 63,
            "name": "D#4",
            "ticks": 14976,
            "time": 21.272706,
            "velocity": 0.4881889763779528
          },
          {
            "duration": 0.2727269999999997,
            "durationTicks": 192,
            "midi": 76,
            "name": "E5",
            "ticks": 14976,
            "time": 21.272706,
            "velocity": 0.4881889763779528
          },
          {
            "duration": 0.5454539999999994,
            "durationTicks": 384,
            "midi": 63,
            "name": "D#4",
            "ticks": 14976,
            "time": 21.272706,
            "velocity": 0.4881889763779528
          },
          {
            "duration": 0.5454539999999994,
            "durationTicks": 384,
            "midi": 71,
            "name": "B4",
            "ticks": 14976,
            "time": 21.272706,
            "velocity": 0.4881889763779528
          },
          {
            "duration": 0.5454539999999994,
            "durationTicks": 384,
            "midi": 68,
            "name": "G#4",
            "ticks": 14976,
            "time": 21.272706,
            "velocity": 0.4881889763779528
          },
          {
            "duration": 0.5454539999999994,
            "durationTicks": 384,
            "midi": 71,
            "name": "B4",
            "ticks": 14976,
            "time": 21.272706,
            "velocity": 0.4881889763779528
          },
          {
            "duration": 0.2727269999999997,
            "durationTicks": 192,
            "midi": 76,
            "name": "E5",
            "ticks": 14976,
            "time": 21.272706,
            "velocity": 0.4881889763779528
          },
          {
            "duration": 0.5454539999999994,
            "durationTicks": 384,
            "midi": 63,
            "name": "D#4",
            "ticks": 14976,
            "time": 21.272706,
            "velocity": 0.4881889763779528
          },
          {
            "duration": 0.2727269999999997,
            "durationTicks": 192,
            "midi": 76,
            "name": "E5",
            "ticks": 14976,
            "time": 21.272706,
            "velocity": 0.4881889763779528
          },
          {
            "duration": 0.5454539999999994,
            "durationTicks": 384,
            "midi": 68,
            "name": "G#4",
            "ticks": 14976,
            "time": 21.272706,
            "velocity": 0.4881889763779528
          },
          {
            "duration": 0.5454539999999994,
            "durationTicks": 384,
            "midi": 63,
            "name": "D#4",
            "ticks": 14976,
            "time": 21.272706,
            "velocity": 0.4881889763779528
          },
          {
            "duration": 0.5454539999999994,
            "durationTicks": 384,
            "midi": 68,
            "name": "G#4",
            "ticks": 14976,
            "time": 21.272706,
            "velocity": 0.4881889763779528
          },
          {
            "duration": 0.5454539999999994,
            "durationTicks": 384,
            "midi": 71,
            "name": "B4",
            "ticks": 14976,
            "time": 21.272706,
            "velocity": 0.4881889763779528
          },
          {
            "duration": 0.2727269999999997,
            "durationTicks": 192,
            "midi": 76,
            "name": "E5",
            "ticks": 14976,
            "time": 21.272706,
            "velocity": 0.4881889763779528
          },
          {
            "duration": 0.2727269999999997,
            "durationTicks": 192,
            "midi": 76,
            "name": "E5",
            "ticks": 14976,
            "time": 21.272706,
            "velocity": 0.4881889763779528
          },
          {
            "duration": 0.2727269999999997,
            "durationTicks": 192,
            "midi": 76,
            "name": "E5",
            "ticks": 14976,
            "time": 21.272706,
            "velocity": 0.4881889763779528
          },
          {
            "duration": 0.13636350000000164,
            "durationTicks": 96,
            "midi": 76,
            "name": "E5",
            "ticks": 15168,
            "time": 21.545433,
            "velocity": 0.4881889763779528
          },
          {
            "duration": 0.13636350000000164,
            "durationTicks": 96,
            "midi": 76,
            "name": "E5",
            "ticks": 15168,
            "time": 21.545433,
            "velocity": 0.4881889763779528
          },
          {
            "duration": 0.13636350000000164,
            "durationTicks": 96,
            "midi": 76,
            "name": "E5",
            "ticks": 15168,
            "time": 21.545433,
            "velocity": 0.4881889763779528
          },
          {
            "duration": 0.13636350000000164,
            "durationTicks": 96,
            "midi": 76,
            "name": "E5",
            "ticks": 15168,
            "time": 21.545433,
            "velocity": 0.4881889763779528
          },
          {
            "duration": 0.13636350000000164,
            "durationTicks": 96,
            "midi": 76,
            "name": "E5",
            "ticks": 15168,
            "time": 21.545433,
            "velocity": 0.4881889763779528
          },
          {
            "duration": 0.13636350000000164,
            "durationTicks": 96,
            "midi": 76,
            "name": "E5",
            "ticks": 15168,
            "time": 21.545433,
            "velocity": 0.4881889763779528
          },
          {
            "duration": 0.13636349999999808,
            "durationTicks": 96,
            "midi": 76,
            "name": "E5",
            "ticks": 15264,
            "time": 21.6817965,
            "velocity": 0.4881889763779528
          },
          {
            "duration": 0.13636349999999808,
            "durationTicks": 96,
            "midi": 76,
            "name": "E5",
            "ticks": 15264,
            "time": 21.6817965,
            "velocity": 0.4881889763779528
          },
          {
            "duration": 0.13636349999999808,
            "durationTicks": 96,
            "midi": 76,
            "name": "E5",
            "ticks": 15264,
            "time": 21.6817965,
            "velocity": 0.4881889763779528
          },
          {
            "duration": 0.13636349999999808,
            "durationTicks": 96,
            "midi": 76,
            "name": "E5",
            "ticks": 15264,
            "time": 21.6817965,
            "velocity": 0.4881889763779528
          },
          {
            "duration": 0.13636349999999808,
            "durationTicks": 96,
            "midi": 76,
            "name": "E5",
            "ticks": 15264,
            "time": 21.6817965,
            "velocity": 0.4881889763779528
          },
          {
            "duration": 0.13636349999999808,
            "durationTicks": 96,
            "midi": 76,
            "name": "E5",
            "ticks": 15264,
            "time": 21.6817965,
            "velocity": 0.4881889763779528
          },
          {
            "duration": 0.5454539999999994,
            "durationTicks": 384,
            "midi": 54,
            "name": "F#3",
            "ticks": 15360,
            "time": 21.81816,
            "velocity": 0.4881889763779528
          },
          {
            "duration": 0.5454539999999994,
            "durationTicks": 384,
            "midi": 42,
            "name": "F#2",
            "ticks": 15360,
            "time": 21.81816,
            "velocity": 0.4881889763779528
          },
          {
            "duration": 0.5454539999999994,
            "durationTicks": 384,
            "midi": 54,
            "name": "F#3",
            "ticks": 15360,
            "time": 21.81816,
            "velocity": 0.4881889763779528
          },
          {
            "duration": 0.2727269999999997,
            "durationTicks": 192,
            "midi": 78,
            "name": "F#5",
            "ticks": 15360,
            "time": 21.81816,
            "velocity": 0.4881889763779528
          },
          {
            "duration": 0.5454539999999994,
            "durationTicks": 384,
            "midi": 54,
            "name": "F#3",
            "ticks": 15360,
            "time": 21.81816,
            "velocity": 0.4881889763779528
          },
          {
            "duration": 0.5454539999999994,
            "durationTicks": 384,
            "midi": 42,
            "name": "F#2",
            "ticks": 15360,
            "time": 21.81816,
            "velocity": 0.4881889763779528
          },
          {
            "duration": 0.5454539999999994,
            "durationTicks": 384,
            "midi": 54,
            "name": "F#3",
            "ticks": 15360,
            "time": 21.81816,
            "velocity": 0.4881889763779528
          },
          {
            "duration": 0.2727269999999997,
            "durationTicks": 192,
            "midi": 78,
            "name": "F#5",
            "ticks": 15360,
            "time": 21.81816,
            "velocity": 0.4881889763779528
          },
          {
            "duration": 0.2727269999999997,
            "durationTicks": 192,
            "midi": 78,
            "name": "F#5",
            "ticks": 15360,
            "time": 21.81816,
            "velocity": 0.4881889763779528
          },
          {
            "duration": 0.2727269999999997,
            "durationTicks": 192,
            "midi": 78,
            "name": "F#5",
            "ticks": 15360,
            "time": 21.81816,
            "velocity": 0.4881889763779528
          },
          {
            "duration": 0.5454539999999994,
            "durationTicks": 384,
            "midi": 54,
            "name": "F#3",
            "ticks": 15360,
            "time": 21.81816,
            "velocity": 0.4881889763779528
          },
          {
            "duration": 0.5454539999999994,
            "durationTicks": 384,
            "midi": 42,
            "name": "F#2",
            "ticks": 15360,
            "time": 21.81816,
            "velocity": 0.4881889763779528
          },
          {
            "duration": 0.5454539999999994,
            "durationTicks": 384,
            "midi": 42,
            "name": "F#2",
            "ticks": 15360,
            "time": 21.81816,
            "velocity": 0.4881889763779528
          },
          {
            "duration": 0.5454539999999994,
            "durationTicks": 384,
            "midi": 42,
            "name": "F#2",
            "ticks": 15360,
            "time": 21.81816,
            "velocity": 0.4881889763779528
          },
          {
            "duration": 0.5454539999999994,
            "durationTicks": 384,
            "midi": 42,
            "name": "F#2",
            "ticks": 15360,
            "time": 21.81816,
            "velocity": 0.4881889763779528
          },
          {
            "duration": 0.5454539999999994,
            "durationTicks": 384,
            "midi": 54,
            "name": "F#3",
            "ticks": 15360,
            "time": 21.81816,
            "velocity": 0.4881889763779528
          },
          {
            "duration": 0.2727269999999997,
            "durationTicks": 192,
            "midi": 78,
            "name": "F#5",
            "ticks": 15360,
            "time": 21.81816,
            "velocity": 0.4881889763779528
          },
          {
            "duration": 0.2727269999999997,
            "durationTicks": 192,
            "midi": 78,
            "name": "F#5",
            "ticks": 15360,
            "time": 21.81816,
            "velocity": 0.4881889763779528
          },
          {
            "duration": 0.2727269999999997,
            "durationTicks": 192,
            "midi": 81,
            "name": "A5",
            "ticks": 15552,
            "time": 22.090887,
            "velocity": 0.4881889763779528
          },
          {
            "duration": 0.2727269999999997,
            "durationTicks": 192,
            "midi": 81,
            "name": "A5",
            "ticks": 15552,
            "time": 22.090887,
            "velocity": 0.4881889763779528
          },
          {
            "duration": 0.2727269999999997,
            "durationTicks": 192,
            "midi": 81,
            "name": "A5",
            "ticks": 15552,
            "time": 22.090887,
            "velocity": 0.4881889763779528
          },
          {
            "duration": 0.2727269999999997,
            "durationTicks": 192,
            "midi": 81,
            "name": "A5",
            "ticks": 15552,
            "time": 22.090887,
            "velocity": 0.4881889763779528
          },
          {
            "duration": 0.2727269999999997,
            "durationTicks": 192,
            "midi": 81,
            "name": "A5",
            "ticks": 15552,
            "time": 22.090887,
            "velocity": 0.4881889763779528
          },
          {
            "duration": 0.2727269999999997,
            "durationTicks": 192,
            "midi": 81,
            "name": "A5",
            "ticks": 15552,
            "time": 22.090887,
            "velocity": 0.4881889763779528
          },
          {
            "duration": 0.2727269999999997,
            "durationTicks": 192,
            "midi": 80,
            "name": "G#5",
            "ticks": 15744,
            "time": 22.363614,
            "velocity": 0.4881889763779528
          },
          {
            "duration": 0.545454000000003,
            "durationTicks": 384,
            "midi": 69,
            "name": "A4",
            "ticks": 15744,
            "time": 22.363614,
            "velocity": 0.4881889763779528
          },
          {
            "duration": 0.2727269999999997,
            "durationTicks": 192,
            "midi": 80,
            "name": "G#5",
            "ticks": 15744,
            "time": 22.363614,
            "velocity": 0.4881889763779528
          },
          {
            "duration": 0.545454000000003,
            "durationTicks": 384,
            "midi": 66,
            "name": "F#4",
            "ticks": 15744,
            "time": 22.363614,
            "velocity": 0.4881889763779528
          },
          {
            "duration": 0.545454000000003,
            "durationTicks": 384,
            "midi": 66,
            "name": "F#4",
            "ticks": 15744,
            "time": 22.363614,
            "velocity": 0.4881889763779528
          },
          {
            "duration": 0.545454000000003,
            "durationTicks": 384,
            "midi": 61,
            "name": "C#4",
            "ticks": 15744,
            "time": 22.363614,
            "velocity": 0.4881889763779528
          },
          {
            "duration": 0.545454000000003,
            "durationTicks": 384,
            "midi": 69,
            "name": "A4",
            "ticks": 15744,
            "time": 22.363614,
            "velocity": 0.4881889763779528
          },
          {
            "duration": 0.545454000000003,
            "durationTicks": 384,
            "midi": 66,
            "name": "F#4",
            "ticks": 15744,
            "time": 22.363614,
            "velocity": 0.4881889763779528
          },
          {
            "duration": 0.2727269999999997,
            "durationTicks": 192,
            "midi": 80,
            "name": "G#5",
            "ticks": 15744,
            "time": 22.363614,
            "velocity": 0.4881889763779528
          },
          {
            "duration": 0.545454000000003,
            "durationTicks": 384,
            "midi": 69,
            "name": "A4",
            "ticks": 15744,
            "time": 22.363614,
            "velocity": 0.4881889763779528
          },
          {
            "duration": 0.545454000000003,
            "durationTicks": 384,
            "midi": 61,
            "name": "C#4",
            "ticks": 15744,
            "time": 22.363614,
            "velocity": 0.4881889763779528
          },
          {
            "duration": 0.545454000000003,
            "durationTicks": 384,
            "midi": 69,
            "name": "A4",
            "ticks": 15744,
            "time": 22.363614,
            "velocity": 0.4881889763779528
          },
          {
            "duration": 0.2727269999999997,
            "durationTicks": 192,
            "midi": 80,
            "name": "G#5",
            "ticks": 15744,
            "time": 22.363614,
            "velocity": 0.4881889763779528
          },
          {
            "duration": 0.545454000000003,
            "durationTicks": 384,
            "midi": 69,
            "name": "A4",
            "ticks": 15744,
            "time": 22.363614,
            "velocity": 0.4881889763779528
          },
          {
            "duration": 0.545454000000003,
            "durationTicks": 384,
            "midi": 61,
            "name": "C#4",
            "ticks": 15744,
            "time": 22.363614,
            "velocity": 0.4881889763779528
          },
          {
            "duration": 0.545454000000003,
            "durationTicks": 384,
            "midi": 61,
            "name": "C#4",
            "ticks": 15744,
            "time": 22.363614,
            "velocity": 0.4881889763779528
          },
          {
            "duration": 0.545454000000003,
            "durationTicks": 384,
            "midi": 69,
            "name": "A4",
            "ticks": 15744,
            "time": 22.363614,
            "velocity": 0.4881889763779528
          },
          {
            "duration": 0.2727269999999997,
            "durationTicks": 192,
            "midi": 80,
            "name": "G#5",
            "ticks": 15744,
            "time": 22.363614,
            "velocity": 0.4881889763779528
          },
          {
            "duration": 0.545454000000003,
            "durationTicks": 384,
            "midi": 66,
            "name": "F#4",
            "ticks": 15744,
            "time": 22.363614,
            "velocity": 0.4881889763779528
          },
          {
            "duration": 0.545454000000003,
            "durationTicks": 384,
            "midi": 61,
            "name": "C#4",
            "ticks": 15744,
            "time": 22.363614,
            "velocity": 0.4881889763779528
          },
          {
            "duration": 0.545454000000003,
            "durationTicks": 384,
            "midi": 61,
            "name": "C#4",
            "ticks": 15744,
            "time": 22.363614,
            "velocity": 0.4881889763779528
          },
          {
            "duration": 0.2727269999999997,
            "durationTicks": 192,
            "midi": 80,
            "name": "G#5",
            "ticks": 15744,
            "time": 22.363614,
            "velocity": 0.4881889763779528
          },
          {
            "duration": 0.545454000000003,
            "durationTicks": 384,
            "midi": 66,
            "name": "F#4",
            "ticks": 15744,
            "time": 22.363614,
            "velocity": 0.4881889763779528
          },
          {
            "duration": 0.545454000000003,
            "durationTicks": 384,
            "midi": 66,
            "name": "F#4",
            "ticks": 15744,
            "time": 22.363614,
            "velocity": 0.4881889763779528
          },
          {
            "duration": 0.2727270000000033,
            "durationTicks": 192,
            "midi": 78,
            "name": "F#5",
            "ticks": 15936,
            "time": 22.636340999999998,
            "velocity": 0.4881889763779528
          },
          {
            "duration": 0.2727270000000033,
            "durationTicks": 192,
            "midi": 78,
            "name": "F#5",
            "ticks": 15936,
            "time": 22.636340999999998,
            "velocity": 0.4881889763779528
          },
          {
            "duration": 0.2727270000000033,
            "durationTicks": 192,
            "midi": 78,
            "name": "F#5",
            "ticks": 15936,
            "time": 22.636340999999998,
            "velocity": 0.4881889763779528
          },
          {
            "duration": 0.2727270000000033,
            "durationTicks": 192,
            "midi": 78,
            "name": "F#5",
            "ticks": 15936,
            "time": 22.636340999999998,
            "velocity": 0.4881889763779528
          },
          {
            "duration": 0.2727270000000033,
            "durationTicks": 192,
            "midi": 78,
            "name": "F#5",
            "ticks": 15936,
            "time": 22.636340999999998,
            "velocity": 0.4881889763779528
          },
          {
            "duration": 0.2727270000000033,
            "durationTicks": 192,
            "midi": 78,
            "name": "F#5",
            "ticks": 15936,
            "time": 22.636340999999998,
            "velocity": 0.4881889763779528
          },
          {
            "duration": 0.5454539999999994,
            "durationTicks": 384,
            "midi": 37,
            "name": "C#2",
            "ticks": 16128,
            "time": 22.909068,
            "velocity": 0.4881889763779528
          },
          {
            "duration": 0.5454539999999994,
            "durationTicks": 384,
            "midi": 49,
            "name": "C#3",
            "ticks": 16128,
            "time": 22.909068,
            "velocity": 0.4881889763779528
          },
          {
            "duration": 0.2727269999999997,
            "durationTicks": 192,
            "midi": 80,
            "name": "G#5",
            "ticks": 16128,
            "time": 22.909068,
            "velocity": 0.4881889763779528
          },
          {
            "duration": 0.5454539999999994,
            "durationTicks": 384,
            "midi": 37,
            "name": "C#2",
            "ticks": 16128,
            "time": 22.909068,
            "velocity": 0.4881889763779528
          },
          {
            "duration": 0.5454539999999994,
            "durationTicks": 384,
            "midi": 37,
            "name": "C#2",
            "ticks": 16128,
            "time": 22.909068,
            "velocity": 0.4881889763779528
          },
          {
            "duration": 0.2727269999999997,
            "durationTicks": 192,
            "midi": 80,
            "name": "G#5",
            "ticks": 16128,
            "time": 22.909068,
            "velocity": 0.4881889763779528
          },
          {
            "duration": 0.2727269999999997,
            "durationTicks": 192,
            "midi": 80,
            "name": "G#5",
            "ticks": 16128,
            "time": 22.909068,
            "velocity": 0.4881889763779528
          },
          {
            "duration": 0.2727269999999997,
            "durationTicks": 192,
            "midi": 80,
            "name": "G#5",
            "ticks": 16128,
            "time": 22.909068,
            "velocity": 0.4881889763779528
          },
          {
            "duration": 0.5454539999999994,
            "durationTicks": 384,
            "midi": 49,
            "name": "C#3",
            "ticks": 16128,
            "time": 22.909068,
            "velocity": 0.4881889763779528
          },
          {
            "duration": 0.2727269999999997,
            "durationTicks": 192,
            "midi": 80,
            "name": "G#5",
            "ticks": 16128,
            "time": 22.909068,
            "velocity": 0.4881889763779528
          },
          {
            "duration": 0.2727269999999997,
            "durationTicks": 192,
            "midi": 80,
            "name": "G#5",
            "ticks": 16128,
            "time": 22.909068,
            "velocity": 0.4881889763779528
          },
          {
            "duration": 0.5454539999999994,
            "durationTicks": 384,
            "midi": 37,
            "name": "C#2",
            "ticks": 16128,
            "time": 22.909068,
            "velocity": 0.4881889763779528
          },
          {
            "duration": 0.5454539999999994,
            "durationTicks": 384,
            "midi": 37,
            "name": "C#2",
            "ticks": 16128,
            "time": 22.909068,
            "velocity": 0.4881889763779528
          },
          {
            "duration": 0.5454539999999994,
            "durationTicks": 384,
            "midi": 37,
            "name": "C#2",
            "ticks": 16128,
            "time": 22.909068,
            "velocity": 0.4881889763779528
          },
          {
            "duration": 0.5454539999999994,
            "durationTicks": 384,
            "midi": 49,
            "name": "C#3",
            "ticks": 16128,
            "time": 22.909068,
            "velocity": 0.4881889763779528
          },
          {
            "duration": 0.5454539999999994,
            "durationTicks": 384,
            "midi": 49,
            "name": "C#3",
            "ticks": 16128,
            "time": 22.909068,
            "velocity": 0.4881889763779528
          },
          {
            "duration": 0.5454539999999994,
            "durationTicks": 384,
            "midi": 49,
            "name": "C#3",
            "ticks": 16128,
            "time": 22.909068,
            "velocity": 0.4881889763779528
          },
          {
            "duration": 0.5454539999999994,
            "durationTicks": 384,
            "midi": 49,
            "name": "C#3",
            "ticks": 16128,
            "time": 22.909068,
            "velocity": 0.4881889763779528
          },
          {
            "duration": 0.2727269999999997,
            "durationTicks": 192,
            "midi": 73,
            "name": "C#5",
            "ticks": 16320,
            "time": 23.181795,
            "velocity": 0.4881889763779528
          },
          {
            "duration": 0.2727269999999997,
            "durationTicks": 192,
            "midi": 73,
            "name": "C#5",
            "ticks": 16320,
            "time": 23.181795,
            "velocity": 0.4881889763779528
          },
          {
            "duration": 0.2727269999999997,
            "durationTicks": 192,
            "midi": 73,
            "name": "C#5",
            "ticks": 16320,
            "time": 23.181795,
            "velocity": 0.4881889763779528
          },
          {
            "duration": 0.2727269999999997,
            "durationTicks": 192,
            "midi": 73,
            "name": "C#5",
            "ticks": 16320,
            "time": 23.181795,
            "velocity": 0.4881889763779528
          },
          {
            "duration": 0.2727269999999997,
            "durationTicks": 192,
            "midi": 73,
            "name": "C#5",
            "ticks": 16320,
            "time": 23.181795,
            "velocity": 0.4881889763779528
          },
          {
            "duration": 0.2727269999999997,
            "durationTicks": 192,
            "midi": 73,
            "name": "C#5",
            "ticks": 16320,
            "time": 23.181795,
            "velocity": 0.4881889763779528
          },
          {
            "duration": 0.5454539999999994,
            "durationTicks": 384,
            "midi": 68,
            "name": "G#4",
            "ticks": 16512,
            "time": 23.454522,
            "velocity": 0.4881889763779528
          },
          {
            "duration": 0.5454539999999994,
            "durationTicks": 384,
            "midi": 68,
            "name": "G#4",
            "ticks": 16512,
            "time": 23.454522,
            "velocity": 0.4881889763779528
          },
          {
            "duration": 0.5454539999999994,
            "durationTicks": 384,
            "midi": 76,
            "name": "E5",
            "ticks": 16512,
            "time": 23.454522,
            "velocity": 0.4881889763779528
          },
          {
            "duration": 0.5454539999999994,
            "durationTicks": 384,
            "midi": 64,
            "name": "E4",
            "ticks": 16512,
            "time": 23.454522,
            "velocity": 0.4881889763779528
          },
          {
            "duration": 0.5454539999999994,
            "durationTicks": 384,
            "midi": 64,
            "name": "E4",
            "ticks": 16512,
            "time": 23.454522,
            "velocity": 0.4881889763779528
          },
          {
            "duration": 0.5454539999999994,
            "durationTicks": 384,
            "midi": 76,
            "name": "E5",
            "ticks": 16512,
            "time": 23.454522,
            "velocity": 0.4881889763779528
          },
          {
            "duration": 0.5454539999999994,
            "durationTicks": 384,
            "midi": 61,
            "name": "C#4",
            "ticks": 16512,
            "time": 23.454522,
            "velocity": 0.4881889763779528
          },
          {
            "duration": 0.5454539999999994,
            "durationTicks": 384,
            "midi": 68,
            "name": "G#4",
            "ticks": 16512,
            "time": 23.454522,
            "velocity": 0.4881889763779528
          },
          {
            "duration": 0.5454539999999994,
            "durationTicks": 384,
            "midi": 76,
            "name": "E5",
            "ticks": 16512,
            "time": 23.454522,
            "velocity": 0.4881889763779528
          },
          {
            "duration": 0.5454539999999994,
            "durationTicks": 384,
            "midi": 76,
            "name": "E5",
            "ticks": 16512,
            "time": 23.454522,
            "velocity": 0.4881889763779528
          },
          {
            "duration": 0.5454539999999994,
            "durationTicks": 384,
            "midi": 61,
            "name": "C#4",
            "ticks": 16512,
            "time": 23.454522,
            "velocity": 0.4881889763779528
          },
          {
            "duration": 0.5454539999999994,
            "durationTicks": 384,
            "midi": 64,
            "name": "E4",
            "ticks": 16512,
            "time": 23.454522,
            "velocity": 0.4881889763779528
          },
          {
            "duration": 0.5454539999999994,
            "durationTicks": 384,
            "midi": 64,
            "name": "E4",
            "ticks": 16512,
            "time": 23.454522,
            "velocity": 0.4881889763779528
          },
          {
            "duration": 0.5454539999999994,
            "durationTicks": 384,
            "midi": 61,
            "name": "C#4",
            "ticks": 16512,
            "time": 23.454522,
            "velocity": 0.4881889763779528
          },
          {
            "duration": 0.5454539999999994,
            "durationTicks": 384,
            "midi": 68,
            "name": "G#4",
            "ticks": 16512,
            "time": 23.454522,
            "velocity": 0.4881889763779528
          },
          {
            "duration": 0.5454539999999994,
            "durationTicks": 384,
            "midi": 61,
            "name": "C#4",
            "ticks": 16512,
            "time": 23.454522,
            "velocity": 0.4881889763779528
          },
          {
            "duration": 0.5454539999999994,
            "durationTicks": 384,
            "midi": 76,
            "name": "E5",
            "ticks": 16512,
            "time": 23.454522,
            "velocity": 0.4881889763779528
          },
          {
            "duration": 0.5454539999999994,
            "durationTicks": 384,
            "midi": 68,
            "name": "G#4",
            "ticks": 16512,
            "time": 23.454522,
            "velocity": 0.4881889763779528
          },
          {
            "duration": 0.5454539999999994,
            "durationTicks": 384,
            "midi": 68,
            "name": "G#4",
            "ticks": 16512,
            "time": 23.454522,
            "velocity": 0.4881889763779528
          },
          {
            "duration": 0.5454539999999994,
            "durationTicks": 384,
            "midi": 64,
            "name": "E4",
            "ticks": 16512,
            "time": 23.454522,
            "velocity": 0.4881889763779528
          },
          {
            "duration": 0.5454539999999994,
            "durationTicks": 384,
            "midi": 61,
            "name": "C#4",
            "ticks": 16512,
            "time": 23.454522,
            "velocity": 0.4881889763779528
          },
          {
            "duration": 0.5454539999999994,
            "durationTicks": 384,
            "midi": 64,
            "name": "E4",
            "ticks": 16512,
            "time": 23.454522,
            "velocity": 0.4881889763779528
          },
          {
            "duration": 0.5454539999999994,
            "durationTicks": 384,
            "midi": 76,
            "name": "E5",
            "ticks": 16512,
            "time": 23.454522,
            "velocity": 0.4881889763779528
          },
          {
            "duration": 0.5454539999999994,
            "durationTicks": 384,
            "midi": 61,
            "name": "C#4",
            "ticks": 16512,
            "time": 23.454522,
            "velocity": 0.4881889763779528
          },
          {
            "duration": 0.2727269999999997,
            "durationTicks": 192,
            "midi": 78,
            "name": "F#5",
            "ticks": 16896,
            "time": 23.999976,
            "velocity": 0.4881889763779528
          },
          {
            "duration": 0.2727269999999997,
            "durationTicks": 192,
            "midi": 78,
            "name": "F#5",
            "ticks": 16896,
            "time": 23.999976,
            "velocity": 0.4881889763779528
          },
          {
            "duration": 0.5454539999999994,
            "durationTicks": 384,
            "midi": 54,
            "name": "F#3",
            "ticks": 16896,
            "time": 23.999976,
            "velocity": 0.4881889763779528
          },
          {
            "duration": 0.5454539999999994,
            "durationTicks": 384,
            "midi": 42,
            "name": "F#2",
            "ticks": 16896,
            "time": 23.999976,
            "velocity": 0.4881889763779528
          },
          {
            "duration": 0.2727269999999997,
            "durationTicks": 192,
            "midi": 78,
            "name": "F#5",
            "ticks": 16896,
            "time": 23.999976,
            "velocity": 0.4881889763779528
          },
          {
            "duration": 0.5454539999999994,
            "durationTicks": 384,
            "midi": 42,
            "name": "F#2",
            "ticks": 16896,
            "time": 23.999976,
            "velocity": 0.4881889763779528
          },
          {
            "duration": 0.5454539999999994,
            "durationTicks": 384,
            "midi": 54,
            "name": "F#3",
            "ticks": 16896,
            "time": 23.999976,
            "velocity": 0.4881889763779528
          },
          {
            "duration": 0.5454539999999994,
            "durationTicks": 384,
            "midi": 42,
            "name": "F#2",
            "ticks": 16896,
            "time": 23.999976,
            "velocity": 0.4881889763779528
          },
          {
            "duration": 0.5454539999999994,
            "durationTicks": 384,
            "midi": 42,
            "name": "F#2",
            "ticks": 16896,
            "time": 23.999976,
            "velocity": 0.4881889763779528
          },
          {
            "duration": 0.5454539999999994,
            "durationTicks": 384,
            "midi": 42,
            "name": "F#2",
            "ticks": 16896,
            "time": 23.999976,
            "velocity": 0.4881889763779528
          },
          {
            "duration": 0.2727269999999997,
            "durationTicks": 192,
            "midi": 78,
            "name": "F#5",
            "ticks": 16896,
            "time": 23.999976,
            "velocity": 0.4881889763779528
          },
          {
            "duration": 0.5454539999999994,
            "durationTicks": 384,
            "midi": 54,
            "name": "F#3",
            "ticks": 16896,
            "time": 23.999976,
            "velocity": 0.4881889763779528
          },
          {
            "duration": 0.2727269999999997,
            "durationTicks": 192,
            "midi": 78,
            "name": "F#5",
            "ticks": 16896,
            "time": 23.999976,
            "velocity": 0.4881889763779528
          },
          {
            "duration": 0.2727269999999997,
            "durationTicks": 192,
            "midi": 78,
            "name": "F#5",
            "ticks": 16896,
            "time": 23.999976,
            "velocity": 0.4881889763779528
          },
          {
            "duration": 0.5454539999999994,
            "durationTicks": 384,
            "midi": 54,
            "name": "F#3",
            "ticks": 16896,
            "time": 23.999976,
            "velocity": 0.4881889763779528
          },
          {
            "duration": 0.5454539999999994,
            "durationTicks": 384,
            "midi": 42,
            "name": "F#2",
            "ticks": 16896,
            "time": 23.999976,
            "velocity": 0.4881889763779528
          },
          {
            "duration": 0.5454539999999994,
            "durationTicks": 384,
            "midi": 54,
            "name": "F#3",
            "ticks": 16896,
            "time": 23.999976,
            "velocity": 0.4881889763779528
          },
          {
            "duration": 0.5454539999999994,
            "durationTicks": 384,
            "midi": 54,
            "name": "F#3",
            "ticks": 16896,
            "time": 23.999976,
            "velocity": 0.4881889763779528
          },
          {
            "duration": 0.2727269999999997,
            "durationTicks": 192,
            "midi": 81,
            "name": "A5",
            "ticks": 17088,
            "time": 24.272703,
            "velocity": 0.4881889763779528
          },
          {
            "duration": 0.2727269999999997,
            "durationTicks": 192,
            "midi": 81,
            "name": "A5",
            "ticks": 17088,
            "time": 24.272703,
            "velocity": 0.4881889763779528
          },
          {
            "duration": 0.2727269999999997,
            "durationTicks": 192,
            "midi": 81,
            "name": "A5",
            "ticks": 17088,
            "time": 24.272703,
            "velocity": 0.4881889763779528
          },
          {
            "duration": 0.2727269999999997,
            "durationTicks": 192,
            "midi": 81,
            "name": "A5",
            "ticks": 17088,
            "time": 24.272703,
            "velocity": 0.4881889763779528
          },
          {
            "duration": 0.2727269999999997,
            "durationTicks": 192,
            "midi": 81,
            "name": "A5",
            "ticks": 17088,
            "time": 24.272703,
            "velocity": 0.4881889763779528
          },
          {
            "duration": 0.2727269999999997,
            "durationTicks": 192,
            "midi": 81,
            "name": "A5",
            "ticks": 17088,
            "time": 24.272703,
            "velocity": 0.4881889763779528
          },
          {
            "duration": 0.2727269999999997,
            "durationTicks": 192,
            "midi": 80,
            "name": "G#5",
            "ticks": 17280,
            "time": 24.54543,
            "velocity": 0.4881889763779528
          },
          {
            "duration": 0.5454539999999994,
            "durationTicks": 384,
            "midi": 69,
            "name": "A4",
            "ticks": 17280,
            "time": 24.54543,
            "velocity": 0.4881889763779528
          },
          {
            "duration": 0.5454539999999994,
            "durationTicks": 384,
            "midi": 61,
            "name": "C#4",
            "ticks": 17280,
            "time": 24.54543,
            "velocity": 0.4881889763779528
          },
          {
            "duration": 0.2727269999999997,
            "durationTicks": 192,
            "midi": 80,
            "name": "G#5",
            "ticks": 17280,
            "time": 24.54543,
            "velocity": 0.4881889763779528
          },
          {
            "duration": 0.5454539999999994,
            "durationTicks": 384,
            "midi": 66,
            "name": "F#4",
            "ticks": 17280,
            "time": 24.54543,
            "velocity": 0.4881889763779528
          },
          {
            "duration": 0.5454539999999994,
            "durationTicks": 384,
            "midi": 69,
            "name": "A4",
            "ticks": 17280,
            "time": 24.54543,
            "velocity": 0.4881889763779528
          },
          {
            "duration": 0.5454539999999994,
            "durationTicks": 384,
            "midi": 66,
            "name": "F#4",
            "ticks": 17280,
            "time": 24.54543,
            "velocity": 0.4881889763779528
          },
          {
            "duration": 0.5454539999999994,
            "durationTicks": 384,
            "midi": 69,
            "name": "A4",
            "ticks": 17280,
            "time": 24.54543,
            "velocity": 0.4881889763779528
          },
          {
            "duration": 0.5454539999999994,
            "durationTicks": 384,
            "midi": 69,
            "name": "A4",
            "ticks": 17280,
            "time": 24.54543,
            "velocity": 0.4881889763779528
          },
          {
            "duration": 0.5454539999999994,
            "durationTicks": 384,
            "midi": 66,
            "name": "F#4",
            "ticks": 17280,
            "time": 24.54543,
            "velocity": 0.4881889763779528
          },
          {
            "duration": 0.2727269999999997,
            "durationTicks": 192,
            "midi": 80,
            "name": "G#5",
            "ticks": 17280,
            "time": 24.54543,
            "velocity": 0.4881889763779528
          },
          {
            "duration": 0.2727269999999997,
            "durationTicks": 192,
            "midi": 80,
            "name": "G#5",
            "ticks": 17280,
            "time": 24.54543,
            "velocity": 0.4881889763779528
          },
          {
            "duration": 0.5454539999999994,
            "durationTicks": 384,
            "midi": 61,
            "name": "C#4",
            "ticks": 17280,
            "time": 24.54543,
            "velocity": 0.4881889763779528
          },
          {
            "duration": 0.5454539999999994,
            "durationTicks": 384,
            "midi": 66,
            "name": "F#4",
            "ticks": 17280,
            "time": 24.54543,
            "velocity": 0.4881889763779528
          },
          {
            "duration": 0.5454539999999994,
            "durationTicks": 384,
            "midi": 66,
            "name": "F#4",
            "ticks": 17280,
            "time": 24.54543,
            "velocity": 0.4881889763779528
          },
          {
            "duration": 0.5454539999999994,
            "durationTicks": 384,
            "midi": 61,
            "name": "C#4",
            "ticks": 17280,
            "time": 24.54543,
            "velocity": 0.4881889763779528
          },
          {
            "duration": 0.2727269999999997,
            "durationTicks": 192,
            "midi": 80,
            "name": "G#5",
            "ticks": 17280,
            "time": 24.54543,
            "velocity": 0.4881889763779528
          },
          {
            "duration": 0.5454539999999994,
            "durationTicks": 384,
            "midi": 61,
            "name": "C#4",
            "ticks": 17280,
            "time": 24.54543,
            "velocity": 0.4881889763779528
          },
          {
            "duration": 0.5454539999999994,
            "durationTicks": 384,
            "midi": 69,
            "name": "A4",
            "ticks": 17280,
            "time": 24.54543,
            "velocity": 0.4881889763779528
          },
          {
            "duration": 0.5454539999999994,
            "durationTicks": 384,
            "midi": 66,
            "name": "F#4",
            "ticks": 17280,
            "time": 24.54543,
            "velocity": 0.4881889763779528
          },
          {
            "duration": 0.5454539999999994,
            "durationTicks": 384,
            "midi": 61,
            "name": "C#4",
            "ticks": 17280,
            "time": 24.54543,
            "velocity": 0.4881889763779528
          },
          {
            "duration": 0.5454539999999994,
            "durationTicks": 384,
            "midi": 61,
            "name": "C#4",
            "ticks": 17280,
            "time": 24.54543,
            "velocity": 0.4881889763779528
          },
          {
            "duration": 0.2727269999999997,
            "durationTicks": 192,
            "midi": 80,
            "name": "G#5",
            "ticks": 17280,
            "time": 24.54543,
            "velocity": 0.4881889763779528
          },
          {
            "duration": 0.5454539999999994,
            "durationTicks": 384,
            "midi": 69,
            "name": "A4",
            "ticks": 17280,
            "time": 24.54543,
            "velocity": 0.4881889763779528
          },
          {
            "duration": 0.2727269999999997,
            "durationTicks": 192,
            "midi": 78,
            "name": "F#5",
            "ticks": 17472,
            "time": 24.818157,
            "velocity": 0.4881889763779528
          },
          {
            "duration": 0.2727269999999997,
            "durationTicks": 192,
            "midi": 78,
            "name": "F#5",
            "ticks": 17472,
            "time": 24.818157,
            "velocity": 0.4881889763779528
          },
          {
            "duration": 0.2727269999999997,
            "durationTicks": 192,
            "midi": 78,
            "name": "F#5",
            "ticks": 17472,
            "time": 24.818157,
            "velocity": 0.4881889763779528
          },
          {
            "duration": 0.2727269999999997,
            "durationTicks": 192,
            "midi": 78,
            "name": "F#5",
            "ticks": 17472,
            "time": 24.818157,
            "velocity": 0.4881889763779528
          },
          {
            "duration": 0.2727269999999997,
            "durationTicks": 192,
            "midi": 78,
            "name": "F#5",
            "ticks": 17472,
            "time": 24.818157,
            "velocity": 0.4881889763779528
          },
          {
            "duration": 0.2727269999999997,
            "durationTicks": 192,
            "midi": 78,
            "name": "F#5",
            "ticks": 17472,
            "time": 24.818157,
            "velocity": 0.4881889763779528
          },
          {
            "duration": 0.5454539999999994,
            "durationTicks": 384,
            "midi": 44,
            "name": "G#2",
            "ticks": 17664,
            "time": 25.090884,
            "velocity": 0.4881889763779528
          },
          {
            "duration": 0.5454539999999994,
            "durationTicks": 384,
            "midi": 56,
            "name": "G#3",
            "ticks": 17664,
            "time": 25.090884,
            "velocity": 0.4881889763779528
          },
          {
            "duration": 0.2727269999999997,
            "durationTicks": 192,
            "midi": 80,
            "name": "G#5",
            "ticks": 17664,
            "time": 25.090884,
            "velocity": 0.4881889763779528
          },
          {
            "duration": 0.5454539999999994,
            "durationTicks": 384,
            "midi": 56,
            "name": "G#3",
            "ticks": 17664,
            "time": 25.090884,
            "velocity": 0.4881889763779528
          },
          {
            "duration": 0.5454539999999994,
            "durationTicks": 384,
            "midi": 44,
            "name": "G#2",
            "ticks": 17664,
            "time": 25.090884,
            "velocity": 0.4881889763779528
          },
          {
            "duration": 0.2727269999999997,
            "durationTicks": 192,
            "midi": 80,
            "name": "G#5",
            "ticks": 17664,
            "time": 25.090884,
            "velocity": 0.4881889763779528
          },
          {
            "duration": 0.5454539999999994,
            "durationTicks": 384,
            "midi": 44,
            "name": "G#2",
            "ticks": 17664,
            "time": 25.090884,
            "velocity": 0.4881889763779528
          },
          {
            "duration": 0.5454539999999994,
            "durationTicks": 384,
            "midi": 56,
            "name": "G#3",
            "ticks": 17664,
            "time": 25.090884,
            "velocity": 0.4881889763779528
          },
          {
            "duration": 0.2727269999999997,
            "durationTicks": 192,
            "midi": 80,
            "name": "G#5",
            "ticks": 17664,
            "time": 25.090884,
            "velocity": 0.4881889763779528
          },
          {
            "duration": 0.2727269999999997,
            "durationTicks": 192,
            "midi": 80,
            "name": "G#5",
            "ticks": 17664,
            "time": 25.090884,
            "velocity": 0.4881889763779528
          },
          {
            "duration": 0.5454539999999994,
            "durationTicks": 384,
            "midi": 56,
            "name": "G#3",
            "ticks": 17664,
            "time": 25.090884,
            "velocity": 0.4881889763779528
          },
          {
            "duration": 0.5454539999999994,
            "durationTicks": 384,
            "midi": 44,
            "name": "G#2",
            "ticks": 17664,
            "time": 25.090884,
            "velocity": 0.4881889763779528
          },
          {
            "duration": 0.2727269999999997,
            "durationTicks": 192,
            "midi": 80,
            "name": "G#5",
            "ticks": 17664,
            "time": 25.090884,
            "velocity": 0.4881889763779528
          },
          {
            "duration": 0.5454539999999994,
            "durationTicks": 384,
            "midi": 44,
            "name": "G#2",
            "ticks": 17664,
            "time": 25.090884,
            "velocity": 0.4881889763779528
          },
          {
            "duration": 0.5454539999999994,
            "durationTicks": 384,
            "midi": 56,
            "name": "G#3",
            "ticks": 17664,
            "time": 25.090884,
            "velocity": 0.4881889763779528
          },
          {
            "duration": 0.2727269999999997,
            "durationTicks": 192,
            "midi": 80,
            "name": "G#5",
            "ticks": 17664,
            "time": 25.090884,
            "velocity": 0.4881889763779528
          },
          {
            "duration": 0.5454539999999994,
            "durationTicks": 384,
            "midi": 44,
            "name": "G#2",
            "ticks": 17664,
            "time": 25.090884,
            "velocity": 0.4881889763779528
          },
          {
            "duration": 0.5454539999999994,
            "durationTicks": 384,
            "midi": 56,
            "name": "G#3",
            "ticks": 17664,
            "time": 25.090884,
            "velocity": 0.4881889763779528
          },
          {
            "duration": 0.13636349999999808,
            "durationTicks": 96,
            "midi": 76,
            "name": "E5",
            "ticks": 17760,
            "time": 25.2272475,
            "velocity": 0.4881889763779528
          },
          {
            "duration": 0.13636349999999808,
            "durationTicks": 96,
            "midi": 76,
            "name": "E5",
            "ticks": 17760,
            "time": 25.2272475,
            "velocity": 0.4881889763779528
          },
          {
            "duration": 0.13636349999999808,
            "durationTicks": 96,
            "midi": 76,
            "name": "E5",
            "ticks": 17760,
            "time": 25.2272475,
            "velocity": 0.4881889763779528
          },
          {
            "duration": 0.13636349999999808,
            "durationTicks": 96,
            "midi": 76,
            "name": "E5",
            "ticks": 17760,
            "time": 25.2272475,
            "velocity": 0.4881889763779528
          },
          {
            "duration": 0.13636349999999808,
            "durationTicks": 96,
            "midi": 76,
            "name": "E5",
            "ticks": 17760,
            "time": 25.2272475,
            "velocity": 0.4881889763779528
          },
          {
            "duration": 0.13636349999999808,
            "durationTicks": 96,
            "midi": 76,
            "name": "E5",
            "ticks": 17760,
            "time": 25.2272475,
            "velocity": 0.4881889763779528
          },
          {
            "duration": 0.2727269999999997,
            "durationTicks": 192,
            "midi": 83,
            "name": "B5",
            "ticks": 17856,
            "time": 25.363611,
            "velocity": 0.4881889763779528
          },
          {
            "duration": 0.2727269999999997,
            "durationTicks": 192,
            "midi": 83,
            "name": "B5",
            "ticks": 17856,
            "time": 25.363611,
            "velocity": 0.4881889763779528
          },
          {
            "duration": 0.2727269999999997,
            "durationTicks": 192,
            "midi": 83,
            "name": "B5",
            "ticks": 17856,
            "time": 25.363611,
            "velocity": 0.4881889763779528
          },
          {
            "duration": 0.2727269999999997,
            "durationTicks": 192,
            "midi": 83,
            "name": "B5",
            "ticks": 17856,
            "time": 25.363611,
            "velocity": 0.4881889763779528
          },
          {
            "duration": 0.2727269999999997,
            "durationTicks": 192,
            "midi": 83,
            "name": "B5",
            "ticks": 17856,
            "time": 25.363611,
            "velocity": 0.4881889763779528
          },
          {
            "duration": 0.2727269999999997,
            "durationTicks": 192,
            "midi": 83,
            "name": "B5",
            "ticks": 17856,
            "time": 25.363611,
            "velocity": 0.4881889763779528
          },
          {
            "duration": 0.545454000000003,
            "durationTicks": 384,
            "midi": 68,
            "name": "G#4",
            "ticks": 18048,
            "time": 25.636338,
            "velocity": 0.4881889763779528
          },
          {
            "duration": 0.545454000000003,
            "durationTicks": 384,
            "midi": 85,
            "name": "C#6",
            "ticks": 18048,
            "time": 25.636338,
            "velocity": 0.4881889763779528
          },
          {
            "duration": 0.545454000000003,
            "durationTicks": 384,
            "midi": 63,
            "name": "D#4",
            "ticks": 18048,
            "time": 25.636338,
            "velocity": 0.4881889763779528
          },
          {
            "duration": 0.545454000000003,
            "durationTicks": 384,
            "midi": 68,
            "name": "G#4",
            "ticks": 18048,
            "time": 25.636338,
            "velocity": 0.4881889763779528
          },
          {
            "duration": 0.545454000000003,
            "durationTicks": 384,
            "midi": 63,
            "name": "D#4",
            "ticks": 18048,
            "time": 25.636338,
            "velocity": 0.4881889763779528
          },
          {
            "duration": 0.545454000000003,
            "durationTicks": 384,
            "midi": 73,
            "name": "C#5",
            "ticks": 18048,
            "time": 25.636338,
            "velocity": 0.4881889763779528
          },
          {
            "duration": 0.545454000000003,
            "durationTicks": 384,
            "midi": 85,
            "name": "C#6",
            "ticks": 18048,
            "time": 25.636338,
            "velocity": 0.4881889763779528
          },
          {
            "duration": 0.545454000000003,
            "durationTicks": 384,
            "midi": 63,
            "name": "D#4",
            "ticks": 18048,
            "time": 25.636338,
            "velocity": 0.4881889763779528
          },
          {
            "duration": 0.545454000000003,
            "durationTicks": 384,
            "midi": 85,
            "name": "C#6",
            "ticks": 18048,
            "time": 25.636338,
            "velocity": 0.4881889763779528
          },
          {
            "duration": 0.545454000000003,
            "durationTicks": 384,
            "midi": 68,
            "name": "G#4",
            "ticks": 18048,
            "time": 25.636338,
            "velocity": 0.4881889763779528
          },
          {
            "duration": 0.545454000000003,
            "durationTicks": 384,
            "midi": 68,
            "name": "G#4",
            "ticks": 18048,
            "time": 25.636338,
            "velocity": 0.4881889763779528
          },
          {
            "duration": 0.545454000000003,
            "durationTicks": 384,
            "midi": 73,
            "name": "C#5",
            "ticks": 18048,
            "time": 25.636338,
            "velocity": 0.4881889763779528
          },
          {
            "duration": 0.545454000000003,
            "durationTicks": 384,
            "midi": 68,
            "name": "G#4",
            "ticks": 18048,
            "time": 25.636338,
            "velocity": 0.4881889763779528
          },
          {
            "duration": 0.545454000000003,
            "durationTicks": 384,
            "midi": 73,
            "name": "C#5",
            "ticks": 18048,
            "time": 25.636338,
            "velocity": 0.4881889763779528
          },
          {
            "duration": 0.545454000000003,
            "durationTicks": 384,
            "midi": 63,
            "name": "D#4",
            "ticks": 18048,
            "time": 25.636338,
            "velocity": 0.4881889763779528
          },
          {
            "duration": 0.545454000000003,
            "durationTicks": 384,
            "midi": 85,
            "name": "C#6",
            "ticks": 18048,
            "time": 25.636338,
            "velocity": 0.4881889763779528
          },
          {
            "duration": 0.545454000000003,
            "durationTicks": 384,
            "midi": 85,
            "name": "C#6",
            "ticks": 18048,
            "time": 25.636338,
            "velocity": 0.4881889763779528
          },
          {
            "duration": 0.545454000000003,
            "durationTicks": 384,
            "midi": 63,
            "name": "D#4",
            "ticks": 18048,
            "time": 25.636338,
            "velocity": 0.4881889763779528
          },
          {
            "duration": 0.545454000000003,
            "durationTicks": 384,
            "midi": 68,
            "name": "G#4",
            "ticks": 18048,
            "time": 25.636338,
            "velocity": 0.4881889763779528
          },
          {
            "duration": 0.545454000000003,
            "durationTicks": 384,
            "midi": 85,
            "name": "C#6",
            "ticks": 18048,
            "time": 25.636338,
            "velocity": 0.4881889763779528
          },
          {
            "duration": 0.545454000000003,
            "durationTicks": 384,
            "midi": 73,
            "name": "C#5",
            "ticks": 18048,
            "time": 25.636338,
            "velocity": 0.4881889763779528
          },
          {
            "duration": 0.545454000000003,
            "durationTicks": 384,
            "midi": 63,
            "name": "D#4",
            "ticks": 18048,
            "time": 25.636338,
            "velocity": 0.4881889763779528
          },
          {
            "duration": 0.545454000000003,
            "durationTicks": 384,
            "midi": 73,
            "name": "C#5",
            "ticks": 18048,
            "time": 25.636338,
            "velocity": 0.4881889763779528
          },
          {
            "duration": 0.545454000000003,
            "durationTicks": 384,
            "midi": 73,
            "name": "C#5",
            "ticks": 18048,
            "time": 25.636338,
            "velocity": 0.4881889763779528
          },
          {
            "duration": 0.4090904999999978,
            "durationTicks": 288,
            "midi": 61,
            "name": "C#4",
            "ticks": 18432,
            "time": 26.181792,
            "velocity": 0.4881889763779528
          },
          {
            "duration": 0.4090904999999978,
            "durationTicks": 288,
            "midi": 61,
            "name": "C#4",
            "ticks": 18432,
            "time": 26.181792,
            "velocity": 0.4881889763779528
          },
          {
            "duration": 0.4090904999999978,
            "durationTicks": 288,
            "midi": 68,
            "name": "G#4",
            "ticks": 18432,
            "time": 26.181792,
            "velocity": 0.4881889763779528
          },
          {
            "duration": 0.4090904999999978,
            "durationTicks": 288,
            "midi": 68,
            "name": "G#4",
            "ticks": 18432,
            "time": 26.181792,
            "velocity": 0.4881889763779528
          },
          {
            "duration": 0.4090904999999978,
            "durationTicks": 288,
            "midi": 61,
            "name": "C#4",
            "ticks": 18432,
            "time": 26.181792,
            "velocity": 0.4881889763779528
          },
          {
            "duration": 0.4090904999999978,
            "durationTicks": 288,
            "midi": 68,
            "name": "G#4",
            "ticks": 18432,
            "time": 26.181792,
            "velocity": 0.4881889763779528
          },
          {
            "duration": 0.4090904999999978,
            "durationTicks": 288,
            "midi": 73,
            "name": "C#5",
            "ticks": 18432,
            "time": 26.181792,
            "velocity": 0.4881889763779528
          },
          {
            "duration": 0.4090904999999978,
            "durationTicks": 288,
            "midi": 61,
            "name": "C#4",
            "ticks": 18432,
            "time": 26.181792,
            "velocity": 0.4881889763779528
          },
          {
            "duration": 0.4090904999999978,
            "durationTicks": 288,
            "midi": 68,
            "name": "G#4",
            "ticks": 18432,
            "time": 26.181792,
            "velocity": 0.4881889763779528
          },
          {
            "duration": 0.4090904999999978,
            "durationTicks": 288,
            "midi": 61,
            "name": "C#4",
            "ticks": 18432,
            "time": 26.181792,
            "velocity": 0.4881889763779528
          },
          {
            "duration": 0.4090904999999978,
            "durationTicks": 288,
            "midi": 61,
            "name": "C#4",
            "ticks": 18432,
            "time": 26.181792,
            "velocity": 0.4881889763779528
          },
          {
            "duration": 0.4090904999999978,
            "durationTicks": 288,
            "midi": 73,
            "name": "C#5",
            "ticks": 18432,
            "time": 26.181792,
            "velocity": 0.4881889763779528
          },
          {
            "duration": 0.4090904999999978,
            "durationTicks": 288,
            "midi": 68,
            "name": "G#4",
            "ticks": 18432,
            "time": 26.181792,
            "velocity": 0.4881889763779528
          },
          {
            "duration": 0.4090904999999978,
            "durationTicks": 288,
            "midi": 73,
            "name": "C#5",
            "ticks": 18432,
            "time": 26.181792,
            "velocity": 0.4881889763779528
          },
          {
            "duration": 0.4090904999999978,
            "durationTicks": 288,
            "midi": 73,
            "name": "C#5",
            "ticks": 18432,
            "time": 26.181792,
            "velocity": 0.4881889763779528
          },
          {
            "duration": 0.4090904999999978,
            "durationTicks": 288,
            "midi": 68,
            "name": "G#4",
            "ticks": 18432,
            "time": 26.181792,
            "velocity": 0.4881889763779528
          },
          {
            "duration": 0.4090904999999978,
            "durationTicks": 288,
            "midi": 73,
            "name": "C#5",
            "ticks": 18432,
            "time": 26.181792,
            "velocity": 0.4881889763779528
          },
          {
            "duration": 0.4090904999999978,
            "durationTicks": 288,
            "midi": 73,
            "name": "C#5",
            "ticks": 18432,
            "time": 26.181792,
            "velocity": 0.4881889763779528
          },
          {
            "duration": 0.2727269999999997,
            "durationTicks": 192,
            "midi": 92,
            "name": "G#6",
            "ticks": 18624,
            "time": 26.454519,
            "velocity": 0.4881889763779528
          },
          {
            "duration": 0.2727269999999997,
            "durationTicks": 192,
            "midi": 92,
            "name": "G#6",
            "ticks": 18624,
            "time": 26.454519,
            "velocity": 0.4881889763779528
          },
          {
            "duration": 0.2727269999999997,
            "durationTicks": 192,
            "midi": 80,
            "name": "G#5",
            "ticks": 18624,
            "time": 26.454519,
            "velocity": 0.4881889763779528
          },
          {
            "duration": 0.2727269999999997,
            "durationTicks": 192,
            "midi": 92,
            "name": "G#6",
            "ticks": 18624,
            "time": 26.454519,
            "velocity": 0.4881889763779528
          },
          {
            "duration": 0.2727269999999997,
            "durationTicks": 192,
            "midi": 80,
            "name": "G#5",
            "ticks": 18624,
            "time": 26.454519,
            "velocity": 0.4881889763779528
          },
          {
            "duration": 0.2727269999999997,
            "durationTicks": 192,
            "midi": 80,
            "name": "G#5",
            "ticks": 18624,
            "time": 26.454519,
            "velocity": 0.4881889763779528
          },
          {
            "duration": 0.2727269999999997,
            "durationTicks": 192,
            "midi": 80,
            "name": "G#5",
            "ticks": 18624,
            "time": 26.454519,
            "velocity": 0.4881889763779528
          },
          {
            "duration": 0.2727269999999997,
            "durationTicks": 192,
            "midi": 80,
            "name": "G#5",
            "ticks": 18624,
            "time": 26.454519,
            "velocity": 0.4881889763779528
          },
          {
            "duration": 0.2727269999999997,
            "durationTicks": 192,
            "midi": 92,
            "name": "G#6",
            "ticks": 18624,
            "time": 26.454519,
            "velocity": 0.4881889763779528
          },
          {
            "duration": 0.2727269999999997,
            "durationTicks": 192,
            "midi": 80,
            "name": "G#5",
            "ticks": 18624,
            "time": 26.454519,
            "velocity": 0.4881889763779528
          },
          {
            "duration": 0.2727269999999997,
            "durationTicks": 192,
            "midi": 92,
            "name": "G#6",
            "ticks": 18624,
            "time": 26.454519,
            "velocity": 0.4881889763779528
          },
          {
            "duration": 0.2727269999999997,
            "durationTicks": 192,
            "midi": 92,
            "name": "G#6",
            "ticks": 18624,
            "time": 26.454519,
            "velocity": 0.4881889763779528
          },
          {
            "duration": 0.6818175000000011,
            "durationTicks": 480,
            "midi": 61,
            "name": "C#4",
            "ticks": 18720,
            "time": 26.5908825,
            "velocity": 0.4881889763779528
          },
          {
            "duration": 0.6818175000000011,
            "durationTicks": 480,
            "midi": 61,
            "name": "C#4",
            "ticks": 18720,
            "time": 26.5908825,
            "velocity": 0.4881889763779528
          },
          {
            "duration": 0.6818175000000011,
            "durationTicks": 480,
            "midi": 61,
            "name": "C#4",
            "ticks": 18720,
            "time": 26.5908825,
            "velocity": 0.4881889763779528
          },
          {
            "duration": 0.6818175000000011,
            "durationTicks": 480,
            "midi": 68,
            "name": "G#4",
            "ticks": 18720,
            "time": 26.5908825,
            "velocity": 0.4881889763779528
          },
          {
            "duration": 0.6818175000000011,
            "durationTicks": 480,
            "midi": 73,
            "name": "C#5",
            "ticks": 18720,
            "time": 26.5908825,
            "velocity": 0.4881889763779528
          },
          {
            "duration": 0.6818175000000011,
            "durationTicks": 480,
            "midi": 68,
            "name": "G#4",
            "ticks": 18720,
            "time": 26.5908825,
            "velocity": 0.4881889763779528
          },
          {
            "duration": 0.6818175000000011,
            "durationTicks": 480,
            "midi": 73,
            "name": "C#5",
            "ticks": 18720,
            "time": 26.5908825,
            "velocity": 0.4881889763779528
          },
          {
            "duration": 0.6818175000000011,
            "durationTicks": 480,
            "midi": 68,
            "name": "G#4",
            "ticks": 18720,
            "time": 26.5908825,
            "velocity": 0.4881889763779528
          },
          {
            "duration": 0.6818175000000011,
            "durationTicks": 480,
            "midi": 61,
            "name": "C#4",
            "ticks": 18720,
            "time": 26.5908825,
            "velocity": 0.4881889763779528
          },
          {
            "duration": 0.6818175000000011,
            "durationTicks": 480,
            "midi": 61,
            "name": "C#4",
            "ticks": 18720,
            "time": 26.5908825,
            "velocity": 0.4881889763779528
          },
          {
            "duration": 0.6818175000000011,
            "durationTicks": 480,
            "midi": 68,
            "name": "G#4",
            "ticks": 18720,
            "time": 26.5908825,
            "velocity": 0.4881889763779528
          },
          {
            "duration": 0.6818175000000011,
            "durationTicks": 480,
            "midi": 61,
            "name": "C#4",
            "ticks": 18720,
            "time": 26.5908825,
            "velocity": 0.4881889763779528
          },
          {
            "duration": 0.6818175000000011,
            "durationTicks": 480,
            "midi": 73,
            "name": "C#5",
            "ticks": 18720,
            "time": 26.5908825,
            "velocity": 0.4881889763779528
          },
          {
            "duration": 0.6818175000000011,
            "durationTicks": 480,
            "midi": 68,
            "name": "G#4",
            "ticks": 18720,
            "time": 26.5908825,
            "velocity": 0.4881889763779528
          },
          {
            "duration": 0.6818175000000011,
            "durationTicks": 480,
            "midi": 73,
            "name": "C#5",
            "ticks": 18720,
            "time": 26.5908825,
            "velocity": 0.4881889763779528
          },
          {
            "duration": 0.6818175000000011,
            "durationTicks": 480,
            "midi": 68,
            "name": "G#4",
            "ticks": 18720,
            "time": 26.5908825,
            "velocity": 0.4881889763779528
          },
          {
            "duration": 0.6818175000000011,
            "durationTicks": 480,
            "midi": 73,
            "name": "C#5",
            "ticks": 18720,
            "time": 26.5908825,
            "velocity": 0.4881889763779528
          },
          {
            "duration": 0.6818175000000011,
            "durationTicks": 480,
            "midi": 73,
            "name": "C#5",
            "ticks": 18720,
            "time": 26.5908825,
            "velocity": 0.4881889763779528
          },
          {
            "duration": 0.13636349999999808,
            "durationTicks": 96,
            "midi": 80,
            "name": "G#5",
            "ticks": 18816,
            "time": 26.727246,
            "velocity": 0.4881889763779528
          },
          {
            "duration": 0.13636349999999808,
            "durationTicks": 96,
            "midi": 80,
            "name": "G#5",
            "ticks": 18816,
            "time": 26.727246,
            "velocity": 0.4881889763779528
          },
          {
            "duration": 0.13636349999999808,
            "durationTicks": 96,
            "midi": 92,
            "name": "G#6",
            "ticks": 18816,
            "time": 26.727246,
            "velocity": 0.4881889763779528
          },
          {
            "duration": 0.13636349999999808,
            "durationTicks": 96,
            "midi": 92,
            "name": "G#6",
            "ticks": 18816,
            "time": 26.727246,
            "velocity": 0.4881889763779528
          },
          {
            "duration": 0.13636349999999808,
            "durationTicks": 96,
            "midi": 80,
            "name": "G#5",
            "ticks": 18816,
            "time": 26.727246,
            "velocity": 0.4881889763779528
          },
          {
            "duration": 0.13636349999999808,
            "durationTicks": 96,
            "midi": 80,
            "name": "G#5",
            "ticks": 18816,
            "time": 26.727246,
            "velocity": 0.4881889763779528
          },
          {
            "duration": 0.13636349999999808,
            "durationTicks": 96,
            "midi": 92,
            "name": "G#6",
            "ticks": 18816,
            "time": 26.727246,
            "velocity": 0.4881889763779528
          },
          {
            "duration": 0.13636349999999808,
            "durationTicks": 96,
            "midi": 92,
            "name": "G#6",
            "ticks": 18816,
            "time": 26.727246,
            "velocity": 0.4881889763779528
          },
          {
            "duration": 0.13636349999999808,
            "durationTicks": 96,
            "midi": 80,
            "name": "G#5",
            "ticks": 18816,
            "time": 26.727246,
            "velocity": 0.4881889763779528
          },
          {
            "duration": 0.13636349999999808,
            "durationTicks": 96,
            "midi": 92,
            "name": "G#6",
            "ticks": 18816,
            "time": 26.727246,
            "velocity": 0.4881889763779528
          },
          {
            "duration": 0.13636349999999808,
            "durationTicks": 96,
            "midi": 80,
            "name": "G#5",
            "ticks": 18816,
            "time": 26.727246,
            "velocity": 0.4881889763779528
          },
          {
            "duration": 0.13636349999999808,
            "durationTicks": 96,
            "midi": 92,
            "name": "G#6",
            "ticks": 18816,
            "time": 26.727246,
            "velocity": 0.4881889763779528
          },
          {
            "duration": 0.13636350000000164,
            "durationTicks": 96,
            "midi": 90,
            "name": "F#6",
            "ticks": 18912,
            "time": 26.8636095,
            "velocity": 0.4881889763779528
          },
          {
            "duration": 0.13636350000000164,
            "durationTicks": 96,
            "midi": 78,
            "name": "F#5",
            "ticks": 18912,
            "time": 26.8636095,
            "velocity": 0.4881889763779528
          },
          {
            "duration": 0.13636350000000164,
            "durationTicks": 96,
            "midi": 78,
            "name": "F#5",
            "ticks": 18912,
            "time": 26.8636095,
            "velocity": 0.4881889763779528
          },
          {
            "duration": 0.13636350000000164,
            "durationTicks": 96,
            "midi": 78,
            "name": "F#5",
            "ticks": 18912,
            "time": 26.8636095,
            "velocity": 0.4881889763779528
          },
          {
            "duration": 0.13636350000000164,
            "durationTicks": 96,
            "midi": 78,
            "name": "F#5",
            "ticks": 18912,
            "time": 26.8636095,
            "velocity": 0.4881889763779528
          },
          {
            "duration": 0.13636350000000164,
            "durationTicks": 96,
            "midi": 90,
            "name": "F#6",
            "ticks": 18912,
            "time": 26.8636095,
            "velocity": 0.4881889763779528
          },
          {
            "duration": 0.13636350000000164,
            "durationTicks": 96,
            "midi": 78,
            "name": "F#5",
            "ticks": 18912,
            "time": 26.8636095,
            "velocity": 0.4881889763779528
          },
          {
            "duration": 0.13636350000000164,
            "durationTicks": 96,
            "midi": 90,
            "name": "F#6",
            "ticks": 18912,
            "time": 26.8636095,
            "velocity": 0.4881889763779528
          },
          {
            "duration": 0.13636350000000164,
            "durationTicks": 96,
            "midi": 90,
            "name": "F#6",
            "ticks": 18912,
            "time": 26.8636095,
            "velocity": 0.4881889763779528
          },
          {
            "duration": 0.13636350000000164,
            "durationTicks": 96,
            "midi": 90,
            "name": "F#6",
            "ticks": 18912,
            "time": 26.8636095,
            "velocity": 0.4881889763779528
          },
          {
            "duration": 0.13636350000000164,
            "durationTicks": 96,
            "midi": 78,
            "name": "F#5",
            "ticks": 18912,
            "time": 26.8636095,
            "velocity": 0.4881889763779528
          },
          {
            "duration": 0.13636350000000164,
            "durationTicks": 96,
            "midi": 90,
            "name": "F#6",
            "ticks": 18912,
            "time": 26.8636095,
            "velocity": 0.4881889763779528
          },
          {
            "duration": 0.13636349999999808,
            "durationTicks": 96,
            "midi": 76,
            "name": "E5",
            "ticks": 19008,
            "time": 26.999973,
            "velocity": 0.4881889763779528
          },
          {
            "duration": 0.13636349999999808,
            "durationTicks": 96,
            "midi": 76,
            "name": "E5",
            "ticks": 19008,
            "time": 26.999973,
            "velocity": 0.4881889763779528
          },
          {
            "duration": 0.13636349999999808,
            "durationTicks": 96,
            "midi": 76,
            "name": "E5",
            "ticks": 19008,
            "time": 26.999973,
            "velocity": 0.4881889763779528
          },
          {
            "duration": 0.13636349999999808,
            "durationTicks": 96,
            "midi": 76,
            "name": "E5",
            "ticks": 19008,
            "time": 26.999973,
            "velocity": 0.4881889763779528
          },
          {
            "duration": 0.13636349999999808,
            "durationTicks": 96,
            "midi": 88,
            "name": "E6",
            "ticks": 19008,
            "time": 26.999973,
            "velocity": 0.4881889763779528
          },
          {
            "duration": 0.13636349999999808,
            "durationTicks": 96,
            "midi": 76,
            "name": "E5",
            "ticks": 19008,
            "time": 26.999973,
            "velocity": 0.4881889763779528
          },
          {
            "duration": 0.13636349999999808,
            "durationTicks": 96,
            "midi": 88,
            "name": "E6",
            "ticks": 19008,
            "time": 26.999973,
            "velocity": 0.4881889763779528
          },
          {
            "duration": 0.13636349999999808,
            "durationTicks": 96,
            "midi": 76,
            "name": "E5",
            "ticks": 19008,
            "time": 26.999973,
            "velocity": 0.4881889763779528
          },
          {
            "duration": 0.13636349999999808,
            "durationTicks": 96,
            "midi": 88,
            "name": "E6",
            "ticks": 19008,
            "time": 26.999973,
            "velocity": 0.4881889763779528
          },
          {
            "duration": 0.13636349999999808,
            "durationTicks": 96,
            "midi": 88,
            "name": "E6",
            "ticks": 19008,
            "time": 26.999973,
            "velocity": 0.4881889763779528
          },
          {
            "duration": 0.13636349999999808,
            "durationTicks": 96,
            "midi": 88,
            "name": "E6",
            "ticks": 19008,
            "time": 26.999973,
            "velocity": 0.4881889763779528
          },
          {
            "duration": 0.13636349999999808,
            "durationTicks": 96,
            "midi": 88,
            "name": "E6",
            "ticks": 19008,
            "time": 26.999973,
            "velocity": 0.4881889763779528
          },
          {
            "duration": 0.13636350000000164,
            "durationTicks": 96,
            "midi": 90,
            "name": "F#6",
            "ticks": 19104,
            "time": 27.1363365,
            "velocity": 0.4881889763779528
          },
          {
            "duration": 0.13636350000000164,
            "durationTicks": 96,
            "midi": 78,
            "name": "F#5",
            "ticks": 19104,
            "time": 27.1363365,
            "velocity": 0.4881889763779528
          },
          {
            "duration": 0.13636350000000164,
            "durationTicks": 96,
            "midi": 90,
            "name": "F#6",
            "ticks": 19104,
            "time": 27.1363365,
            "velocity": 0.4881889763779528
          },
          {
            "duration": 0.13636350000000164,
            "durationTicks": 96,
            "midi": 78,
            "name": "F#5",
            "ticks": 19104,
            "time": 27.1363365,
            "velocity": 0.4881889763779528
          },
          {
            "duration": 0.13636350000000164,
            "durationTicks": 96,
            "midi": 78,
            "name": "F#5",
            "ticks": 19104,
            "time": 27.1363365,
            "velocity": 0.4881889763779528
          },
          {
            "duration": 0.13636350000000164,
            "durationTicks": 96,
            "midi": 78,
            "name": "F#5",
            "ticks": 19104,
            "time": 27.1363365,
            "velocity": 0.4881889763779528
          },
          {
            "duration": 0.13636350000000164,
            "durationTicks": 96,
            "midi": 78,
            "name": "F#5",
            "ticks": 19104,
            "time": 27.1363365,
            "velocity": 0.4881889763779528
          },
          {
            "duration": 0.13636350000000164,
            "durationTicks": 96,
            "midi": 90,
            "name": "F#6",
            "ticks": 19104,
            "time": 27.1363365,
            "velocity": 0.4881889763779528
          },
          {
            "duration": 0.13636350000000164,
            "durationTicks": 96,
            "midi": 90,
            "name": "F#6",
            "ticks": 19104,
            "time": 27.1363365,
            "velocity": 0.4881889763779528
          },
          {
            "duration": 0.13636350000000164,
            "durationTicks": 96,
            "midi": 78,
            "name": "F#5",
            "ticks": 19104,
            "time": 27.1363365,
            "velocity": 0.4881889763779528
          },
          {
            "duration": 0.13636350000000164,
            "durationTicks": 96,
            "midi": 90,
            "name": "F#6",
            "ticks": 19104,
            "time": 27.1363365,
            "velocity": 0.4881889763779528
          },
          {
            "duration": 0.13636350000000164,
            "durationTicks": 96,
            "midi": 90,
            "name": "F#6",
            "ticks": 19104,
            "time": 27.1363365,
            "velocity": 0.4881889763779528
          },
          {
            "duration": 0.4090904999999978,
            "durationTicks": 288,
            "midi": 71,
            "name": "B4",
            "ticks": 19200,
            "time": 27.2727,
            "velocity": 0.4881889763779528
          },
          {
            "duration": 0.2727269999999997,
            "durationTicks": 192,
            "midi": 76,
            "name": "E5",
            "ticks": 19200,
            "time": 27.2727,
            "velocity": 0.4881889763779528
          },
          {
            "duration": 0.13636349999999808,
            "durationTicks": 96,
            "midi": 64,
            "name": "E4",
            "ticks": 19200,
            "time": 27.2727,
            "velocity": 0.4881889763779528
          },
          {
            "duration": 0.4090904999999978,
            "durationTicks": 288,
            "midi": 68,
            "name": "G#4",
            "ticks": 19200,
            "time": 27.2727,
            "velocity": 0.4881889763779528
          },
          {
            "duration": 0.2727269999999997,
            "durationTicks": 192,
            "midi": 88,
            "name": "E6",
            "ticks": 19200,
            "time": 27.2727,
            "velocity": 0.4881889763779528
          },
          {
            "duration": 0.4090904999999978,
            "durationTicks": 288,
            "midi": 59,
            "name": "B3",
            "ticks": 19200,
            "time": 27.2727,
            "velocity": 0.4881889763779528
          },
          {
            "duration": 0.2727269999999997,
            "durationTicks": 192,
            "midi": 88,
            "name": "E6",
            "ticks": 19200,
            "time": 27.2727,
            "velocity": 0.4881889763779528
          },
          {
            "duration": 0.4090904999999978,
            "durationTicks": 288,
            "midi": 71,
            "name": "B4",
            "ticks": 19200,
            "time": 27.2727,
            "velocity": 0.4881889763779528
          },
          {
            "duration": 0.13636349999999808,
            "durationTicks": 96,
            "midi": 64,
            "name": "E4",
            "ticks": 19200,
            "time": 27.2727,
            "velocity": 0.4881889763779528
          },
          {
            "duration": 0.4090904999999978,
            "durationTicks": 288,
            "midi": 71,
            "name": "B4",
            "ticks": 19200,
            "time": 27.2727,
            "velocity": 0.4881889763779528
          },
          {
            "duration": 0.4090904999999978,
            "durationTicks": 288,
            "midi": 59,
            "name": "B3",
            "ticks": 19200,
            "time": 27.2727,
            "velocity": 0.4881889763779528
          },
          {
            "duration": 0.4090904999999978,
            "durationTicks": 288,
            "midi": 68,
            "name": "G#4",
            "ticks": 19200,
            "time": 27.2727,
            "velocity": 0.4881889763779528
          },
          {
            "duration": 0.13636349999999808,
            "durationTicks": 96,
            "midi": 64,
            "name": "E4",
            "ticks": 19200,
            "time": 27.2727,
            "velocity": 0.4881889763779528
          },
          {
            "duration": 0.13636349999999808,
            "durationTicks": 96,
            "midi": 64,
            "name": "E4",
            "ticks": 19200,
            "time": 27.2727,
            "velocity": 0.4881889763779528
          },
          {
            "duration": 0.13636349999999808,
            "durationTicks": 96,
            "midi": 64,
            "name": "E4",
            "ticks": 19200,
            "time": 27.2727,
            "velocity": 0.4881889763779528
          },
          {
            "duration": 0.4090904999999978,
            "durationTicks": 288,
            "midi": 59,
            "name": "B3",
            "ticks": 19200,
            "time": 27.2727,
            "velocity": 0.4881889763779528
          },
          {
            "duration": 0.13636349999999808,
            "durationTicks": 96,
            "midi": 64,
            "name": "E4",
            "ticks": 19200,
            "time": 27.2727,
            "velocity": 0.4881889763779528
          },
          {
            "duration": 0.2727269999999997,
            "durationTicks": 192,
            "midi": 76,
            "name": "E5",
            "ticks": 19200,
            "time": 27.2727,
            "velocity": 0.4881889763779528
          },
          {
            "duration": 0.2727269999999997,
            "durationTicks": 192,
            "midi": 76,
            "name": "E5",
            "ticks": 19200,
            "time": 27.2727,
            "velocity": 0.4881889763779528
          },
          {
            "duration": 0.4090904999999978,
            "durationTicks": 288,
            "midi": 59,
            "name": "B3",
            "ticks": 19200,
            "time": 27.2727,
            "velocity": 0.4881889763779528
          },
          {
            "duration": 0.2727269999999997,
            "durationTicks": 192,
            "midi": 76,
            "name": "E5",
            "ticks": 19200,
            "time": 27.2727,
            "velocity": 0.4881889763779528
          },
          {
            "duration": 0.4090904999999978,
            "durationTicks": 288,
            "midi": 59,
            "name": "B3",
            "ticks": 19200,
            "time": 27.2727,
            "velocity": 0.4881889763779528
          },
          {
            "duration": 0.2727269999999997,
            "durationTicks": 192,
            "midi": 88,
            "name": "E6",
            "ticks": 19200,
            "time": 27.2727,
            "velocity": 0.4881889763779528
          },
          {
            "duration": 0.4090904999999978,
            "durationTicks": 288,
            "midi": 68,
            "name": "G#4",
            "ticks": 19200,
            "time": 27.2727,
            "velocity": 0.4881889763779528
          },
          {
            "duration": 0.2727269999999997,
            "durationTicks": 192,
            "midi": 88,
            "name": "E6",
            "ticks": 19200,
            "time": 27.2727,
            "velocity": 0.4881889763779528
          },
          {
            "duration": 0.4090904999999978,
            "durationTicks": 288,
            "midi": 68,
            "name": "G#4",
            "ticks": 19200,
            "time": 27.2727,
            "velocity": 0.4881889763779528
          },
          {
            "duration": 0.4090904999999978,
            "durationTicks": 288,
            "midi": 59,
            "name": "B3",
            "ticks": 19200,
            "time": 27.2727,
            "velocity": 0.4881889763779528
          },
          {
            "duration": 0.4090904999999978,
            "durationTicks": 288,
            "midi": 68,
            "name": "G#4",
            "ticks": 19200,
            "time": 27.2727,
            "velocity": 0.4881889763779528
          },
          {
            "duration": 0.2727269999999997,
            "durationTicks": 192,
            "midi": 88,
            "name": "E6",
            "ticks": 19200,
            "time": 27.2727,
            "velocity": 0.4881889763779528
          },
          {
            "duration": 0.2727269999999997,
            "durationTicks": 192,
            "midi": 76,
            "name": "E5",
            "ticks": 19200,
            "time": 27.2727,
            "velocity": 0.4881889763779528
          },
          {
            "duration": 0.2727269999999997,
            "durationTicks": 192,
            "midi": 76,
            "name": "E5",
            "ticks": 19200,
            "time": 27.2727,
            "velocity": 0.4881889763779528
          },
          {
            "duration": 0.4090904999999978,
            "durationTicks": 288,
            "midi": 71,
            "name": "B4",
            "ticks": 19200,
            "time": 27.2727,
            "velocity": 0.4881889763779528
          },
          {
            "duration": 0.2727269999999997,
            "durationTicks": 192,
            "midi": 88,
            "name": "E6",
            "ticks": 19200,
            "time": 27.2727,
            "velocity": 0.4881889763779528
          },
          {
            "duration": 0.4090904999999978,
            "durationTicks": 288,
            "midi": 68,
            "name": "G#4",
            "ticks": 19200,
            "time": 27.2727,
            "velocity": 0.4881889763779528
          },
          {
            "duration": 0.4090904999999978,
            "durationTicks": 288,
            "midi": 71,
            "name": "B4",
            "ticks": 19200,
            "time": 27.2727,
            "velocity": 0.4881889763779528
          },
          {
            "duration": 0.4090904999999978,
            "durationTicks": 288,
            "midi": 71,
            "name": "B4",
            "ticks": 19200,
            "time": 27.2727,
            "velocity": 0.4881889763779528
          },
          {
            "duration": 0.2727269999999997,
            "durationTicks": 192,
            "midi": 92,
            "name": "G#6",
            "ticks": 19392,
            "time": 27.545427,
            "velocity": 0.4881889763779528
          },
          {
            "duration": 0.2727269999999997,
            "durationTicks": 192,
            "midi": 80,
            "name": "G#5",
            "ticks": 19392,
            "time": 27.545427,
            "velocity": 0.4881889763779528
          },
          {
            "duration": 0.2727269999999997,
            "durationTicks": 192,
            "midi": 80,
            "name": "G#5",
            "ticks": 19392,
            "time": 27.545427,
            "velocity": 0.4881889763779528
          },
          {
            "duration": 0.2727269999999997,
            "durationTicks": 192,
            "midi": 80,
            "name": "G#5",
            "ticks": 19392,
            "time": 27.545427,
            "velocity": 0.4881889763779528
          },
          {
            "duration": 0.2727269999999997,
            "durationTicks": 192,
            "midi": 92,
            "name": "G#6",
            "ticks": 19392,
            "time": 27.545427,
            "velocity": 0.4881889763779528
          },
          {
            "duration": 0.2727269999999997,
            "durationTicks": 192,
            "midi": 92,
            "name": "G#6",
            "ticks": 19392,
            "time": 27.545427,
            "velocity": 0.4881889763779528
          },
          {
            "duration": 0.2727269999999997,
            "durationTicks": 192,
            "midi": 80,
            "name": "G#5",
            "ticks": 19392,
            "time": 27.545427,
            "velocity": 0.4881889763779528
          },
          {
            "duration": 0.2727269999999997,
            "durationTicks": 192,
            "midi": 92,
            "name": "G#6",
            "ticks": 19392,
            "time": 27.545427,
            "velocity": 0.4881889763779528
          },
          {
            "duration": 0.2727269999999997,
            "durationTicks": 192,
            "midi": 92,
            "name": "G#6",
            "ticks": 19392,
            "time": 27.545427,
            "velocity": 0.4881889763779528
          },
          {
            "duration": 0.2727269999999997,
            "durationTicks": 192,
            "midi": 92,
            "name": "G#6",
            "ticks": 19392,
            "time": 27.545427,
            "velocity": 0.4881889763779528
          },
          {
            "duration": 0.2727269999999997,
            "durationTicks": 192,
            "midi": 80,
            "name": "G#5",
            "ticks": 19392,
            "time": 27.545427,
            "velocity": 0.4881889763779528
          },
          {
            "duration": 0.2727269999999997,
            "durationTicks": 192,
            "midi": 80,
            "name": "G#5",
            "ticks": 19392,
            "time": 27.545427,
            "velocity": 0.4881889763779528
          },
          {
            "duration": 0.6818175000000011,
            "durationTicks": 480,
            "midi": 59,
            "name": "B3",
            "ticks": 19488,
            "time": 27.681790499999998,
            "velocity": 0.4881889763779528
          },
          {
            "duration": 0.6818175000000011,
            "durationTicks": 480,
            "midi": 59,
            "name": "B3",
            "ticks": 19488,
            "time": 27.681790499999998,
            "velocity": 0.4881889763779528
          },
          {
            "duration": 0.6818175000000011,
            "durationTicks": 480,
            "midi": 59,
            "name": "B3",
            "ticks": 19488,
            "time": 27.681790499999998,
            "velocity": 0.4881889763779528
          },
          {
            "duration": 0.6818175000000011,
            "durationTicks": 480,
            "midi": 59,
            "name": "B3",
            "ticks": 19488,
            "time": 27.681790499999998,
            "velocity": 0.4881889763779528
          },
          {
            "duration": 0.6818175000000011,
            "durationTicks": 480,
            "midi": 59,
            "name": "B3",
            "ticks": 19488,
            "time": 27.681790499999998,
            "velocity": 0.4881889763779528
          },
          {
            "duration": 0.6818175000000011,
            "durationTicks": 480,
            "midi": 71,
            "name": "B4",
            "ticks": 19488,
            "time": 27.681790499999998,
            "velocity": 0.4881889763779528
          },
          {
            "duration": 0.6818175000000011,
            "durationTicks": 480,
            "midi": 68,
            "name": "G#4",
            "ticks": 19488,
            "time": 27.681790499999998,
            "velocity": 0.4881889763779528
          },
          {
            "duration": 0.6818175000000011,
            "durationTicks": 480,
            "midi": 68,
            "name": "G#4",
            "ticks": 19488,
            "time": 27.681790499999998,
            "velocity": 0.4881889763779528
          },
          {
            "duration": 0.6818175000000011,
            "durationTicks": 480,
            "midi": 71,
            "name": "B4",
            "ticks": 19488,
            "time": 27.681790499999998,
            "velocity": 0.4881889763779528
          },
          {
            "duration": 0.6818175000000011,
            "durationTicks": 480,
            "midi": 71,
            "name": "B4",
            "ticks": 19488,
            "time": 27.681790499999998,
            "velocity": 0.4881889763779528
          },
          {
            "duration": 0.6818175000000011,
            "durationTicks": 480,
            "midi": 68,
            "name": "G#4",
            "ticks": 19488,
            "time": 27.681790499999998,
            "velocity": 0.4881889763779528
          },
          {
            "duration": 0.6818175000000011,
            "durationTicks": 480,
            "midi": 68,
            "name": "G#4",
            "ticks": 19488,
            "time": 27.681790499999998,
            "velocity": 0.4881889763779528
          },
          {
            "duration": 0.6818175000000011,
            "durationTicks": 480,
            "midi": 71,
            "name": "B4",
            "ticks": 19488,
            "time": 27.681790499999998,
            "velocity": 0.4881889763779528
          },
          {
            "duration": 0.6818175000000011,
            "durationTicks": 480,
            "midi": 68,
            "name": "G#4",
            "ticks": 19488,
            "time": 27.681790499999998,
            "velocity": 0.4881889763779528
          },
          {
            "duration": 0.6818175000000011,
            "durationTicks": 480,
            "midi": 68,
            "name": "G#4",
            "ticks": 19488,
            "time": 27.681790499999998,
            "velocity": 0.4881889763779528
          },
          {
            "duration": 0.6818175000000011,
            "durationTicks": 480,
            "midi": 59,
            "name": "B3",
            "ticks": 19488,
            "time": 27.681790499999998,
            "velocity": 0.4881889763779528
          },
          {
            "duration": 0.6818175000000011,
            "durationTicks": 480,
            "midi": 71,
            "name": "B4",
            "ticks": 19488,
            "time": 27.681790499999998,
            "velocity": 0.4881889763779528
          },
          {
            "duration": 0.6818175000000011,
            "durationTicks": 480,
            "midi": 71,
            "name": "B4",
            "ticks": 19488,
            "time": 27.681790499999998,
            "velocity": 0.4881889763779528
          },
          {
            "duration": 0.13636350000000164,
            "durationTicks": 96,
            "midi": 80,
            "name": "G#5",
            "ticks": 19584,
            "time": 27.818154,
            "velocity": 0.4881889763779528
          },
          {
            "duration": 0.13636350000000164,
            "durationTicks": 96,
            "midi": 92,
            "name": "G#6",
            "ticks": 19584,
            "time": 27.818154,
            "velocity": 0.4881889763779528
          },
          {
            "duration": 0.13636350000000164,
            "durationTicks": 96,
            "midi": 92,
            "name": "G#6",
            "ticks": 19584,
            "time": 27.818154,
            "velocity": 0.4881889763779528
          },
          {
            "duration": 0.13636350000000164,
            "durationTicks": 96,
            "midi": 80,
            "name": "G#5",
            "ticks": 19584,
            "time": 27.818154,
            "velocity": 0.4881889763779528
          },
          {
            "duration": 0.13636350000000164,
            "durationTicks": 96,
            "midi": 92,
            "name": "G#6",
            "ticks": 19584,
            "time": 27.818154,
            "velocity": 0.4881889763779528
          },
          {
            "duration": 0.13636350000000164,
            "durationTicks": 96,
            "midi": 92,
            "name": "G#6",
            "ticks": 19584,
            "time": 27.818154,
            "velocity": 0.4881889763779528
          },
          {
            "duration": 0.13636350000000164,
            "durationTicks": 96,
            "midi": 80,
            "name": "G#5",
            "ticks": 19584,
            "time": 27.818154,
            "velocity": 0.4881889763779528
          },
          {
            "duration": 0.13636350000000164,
            "durationTicks": 96,
            "midi": 80,
            "name": "G#5",
            "ticks": 19584,
            "time": 27.818154,
            "velocity": 0.4881889763779528
          },
          {
            "duration": 0.13636350000000164,
            "durationTicks": 96,
            "midi": 92,
            "name": "G#6",
            "ticks": 19584,
            "time": 27.818154,
            "velocity": 0.4881889763779528
          },
          {
            "duration": 0.13636350000000164,
            "durationTicks": 96,
            "midi": 80,
            "name": "G#5",
            "ticks": 19584,
            "time": 27.818154,
            "velocity": 0.4881889763779528
          },
          {
            "duration": 0.13636350000000164,
            "durationTicks": 96,
            "midi": 92,
            "name": "G#6",
            "ticks": 19584,
            "time": 27.818154,
            "velocity": 0.4881889763779528
          },
          {
            "duration": 0.13636350000000164,
            "durationTicks": 96,
            "midi": 80,
            "name": "G#5",
            "ticks": 19584,
            "time": 27.818154,
            "velocity": 0.4881889763779528
          },
          {
            "duration": 0.13636349999999808,
            "durationTicks": 96,
            "midi": 90,
            "name": "F#6",
            "ticks": 19680,
            "time": 27.9545175,
            "velocity": 0.4881889763779528
          },
          {
            "duration": 0.13636349999999808,
            "durationTicks": 96,
            "midi": 78,
            "name": "F#5",
            "ticks": 19680,
            "time": 27.9545175,
            "velocity": 0.4881889763779528
          },
          {
            "duration": 0.13636349999999808,
            "durationTicks": 96,
            "midi": 78,
            "name": "F#5",
            "ticks": 19680,
            "time": 27.9545175,
            "velocity": 0.4881889763779528
          },
          {
            "duration": 0.13636349999999808,
            "durationTicks": 96,
            "midi": 90,
            "name": "F#6",
            "ticks": 19680,
            "time": 27.9545175,
            "velocity": 0.4881889763779528
          },
          {
            "duration": 0.13636349999999808,
            "durationTicks": 96,
            "midi": 90,
            "name": "F#6",
            "ticks": 19680,
            "time": 27.9545175,
            "velocity": 0.4881889763779528
          },
          {
            "duration": 0.13636349999999808,
            "durationTicks": 96,
            "midi": 90,
            "name": "F#6",
            "ticks": 19680,
            "time": 27.9545175,
            "velocity": 0.4881889763779528
          },
          {
            "duration": 0.13636349999999808,
            "durationTicks": 96,
            "midi": 78,
            "name": "F#5",
            "ticks": 19680,
            "time": 27.9545175,
            "velocity": 0.4881889763779528
          },
          {
            "duration": 0.13636349999999808,
            "durationTicks": 96,
            "midi": 78,
            "name": "F#5",
            "ticks": 19680,
            "time": 27.9545175,
            "velocity": 0.4881889763779528
          },
          {
            "duration": 0.13636349999999808,
            "durationTicks": 96,
            "midi": 90,
            "name": "F#6",
            "ticks": 19680,
            "time": 27.9545175,
            "velocity": 0.4881889763779528
          },
          {
            "duration": 0.13636349999999808,
            "durationTicks": 96,
            "midi": 78,
            "name": "F#5",
            "ticks": 19680,
            "time": 27.9545175,
            "velocity": 0.4881889763779528
          },
          {
            "duration": 0.13636349999999808,
            "durationTicks": 96,
            "midi": 90,
            "name": "F#6",
            "ticks": 19680,
            "time": 27.9545175,
            "velocity": 0.4881889763779528
          },
          {
            "duration": 0.13636349999999808,
            "durationTicks": 96,
            "midi": 78,
            "name": "F#5",
            "ticks": 19680,
            "time": 27.9545175,
            "velocity": 0.4881889763779528
          },
          {
            "duration": 0.13636350000000164,
            "durationTicks": 96,
            "midi": 88,
            "name": "E6",
            "ticks": 19776,
            "time": 28.090881,
            "velocity": 0.4881889763779528
          },
          {
            "duration": 0.13636350000000164,
            "durationTicks": 96,
            "midi": 88,
            "name": "E6",
            "ticks": 19776,
            "time": 28.090881,
            "velocity": 0.4881889763779528
          },
          {
            "duration": 0.13636350000000164,
            "durationTicks": 96,
            "midi": 76,
            "name": "E5",
            "ticks": 19776,
            "time": 28.090881,
            "velocity": 0.4881889763779528
          },
          {
            "duration": 0.13636350000000164,
            "durationTicks": 96,
            "midi": 88,
            "name": "E6",
            "ticks": 19776,
            "time": 28.090881,
            "velocity": 0.4881889763779528
          },
          {
            "duration": 0.13636350000000164,
            "durationTicks": 96,
            "midi": 76,
            "name": "E5",
            "ticks": 19776,
            "time": 28.090881,
            "velocity": 0.4881889763779528
          },
          {
            "duration": 0.13636350000000164,
            "durationTicks": 96,
            "midi": 76,
            "name": "E5",
            "ticks": 19776,
            "time": 28.090881,
            "velocity": 0.4881889763779528
          },
          {
            "duration": 0.13636350000000164,
            "durationTicks": 96,
            "midi": 88,
            "name": "E6",
            "ticks": 19776,
            "time": 28.090881,
            "velocity": 0.4881889763779528
          },
          {
            "duration": 0.13636350000000164,
            "durationTicks": 96,
            "midi": 88,
            "name": "E6",
            "ticks": 19776,
            "time": 28.090881,
            "velocity": 0.4881889763779528
          },
          {
            "duration": 0.13636350000000164,
            "durationTicks": 96,
            "midi": 76,
            "name": "E5",
            "ticks": 19776,
            "time": 28.090881,
            "velocity": 0.4881889763779528
          },
          {
            "duration": 0.13636350000000164,
            "durationTicks": 96,
            "midi": 76,
            "name": "E5",
            "ticks": 19776,
            "time": 28.090881,
            "velocity": 0.4881889763779528
          },
          {
            "duration": 0.13636350000000164,
            "durationTicks": 96,
            "midi": 76,
            "name": "E5",
            "ticks": 19776,
            "time": 28.090881,
            "velocity": 0.4881889763779528
          },
          {
            "duration": 0.13636350000000164,
            "durationTicks": 96,
            "midi": 88,
            "name": "E6",
            "ticks": 19776,
            "time": 28.090881,
            "velocity": 0.4881889763779528
          },
          {
            "duration": 0.13636349999999808,
            "durationTicks": 96,
            "midi": 78,
            "name": "F#5",
            "ticks": 19872,
            "time": 28.2272445,
            "velocity": 0.4881889763779528
          },
          {
            "duration": 0.13636349999999808,
            "durationTicks": 96,
            "midi": 78,
            "name": "F#5",
            "ticks": 19872,
            "time": 28.2272445,
            "velocity": 0.4881889763779528
          },
          {
            "duration": 0.13636349999999808,
            "durationTicks": 96,
            "midi": 90,
            "name": "F#6",
            "ticks": 19872,
            "time": 28.2272445,
            "velocity": 0.4881889763779528
          },
          {
            "duration": 0.13636349999999808,
            "durationTicks": 96,
            "midi": 78,
            "name": "F#5",
            "ticks": 19872,
            "time": 28.2272445,
            "velocity": 0.4881889763779528
          },
          {
            "duration": 0.13636349999999808,
            "durationTicks": 96,
            "midi": 78,
            "name": "F#5",
            "ticks": 19872,
            "time": 28.2272445,
            "velocity": 0.4881889763779528
          },
          {
            "duration": 0.13636349999999808,
            "durationTicks": 96,
            "midi": 90,
            "name": "F#6",
            "ticks": 19872,
            "time": 28.2272445,
            "velocity": 0.4881889763779528
          },
          {
            "duration": 0.13636349999999808,
            "durationTicks": 96,
            "midi": 90,
            "name": "F#6",
            "ticks": 19872,
            "time": 28.2272445,
            "velocity": 0.4881889763779528
          },
          {
            "duration": 0.13636349999999808,
            "durationTicks": 96,
            "midi": 90,
            "name": "F#6",
            "ticks": 19872,
            "time": 28.2272445,
            "velocity": 0.4881889763779528
          },
          {
            "duration": 0.13636349999999808,
            "durationTicks": 96,
            "midi": 90,
            "name": "F#6",
            "ticks": 19872,
            "time": 28.2272445,
            "velocity": 0.4881889763779528
          },
          {
            "duration": 0.13636349999999808,
            "durationTicks": 96,
            "midi": 78,
            "name": "F#5",
            "ticks": 19872,
            "time": 28.2272445,
            "velocity": 0.4881889763779528
          },
          {
            "duration": 0.13636349999999808,
            "durationTicks": 96,
            "midi": 78,
            "name": "F#5",
            "ticks": 19872,
            "time": 28.2272445,
            "velocity": 0.4881889763779528
          },
          {
            "duration": 0.13636349999999808,
            "durationTicks": 96,
            "midi": 90,
            "name": "F#6",
            "ticks": 19872,
            "time": 28.2272445,
            "velocity": 0.4881889763779528
          },
          {
            "duration": 0.2727269999999997,
            "durationTicks": 192,
            "midi": 88,
            "name": "E6",
            "ticks": 19968,
            "time": 28.363608,
            "velocity": 0.4881889763779528
          },
          {
            "duration": 0.40909050000000136,
            "durationTicks": 288,
            "midi": 69,
            "name": "A4",
            "ticks": 19968,
            "time": 28.363608,
            "velocity": 0.4881889763779528
          },
          {
            "duration": 0.2727269999999997,
            "durationTicks": 192,
            "midi": 76,
            "name": "E5",
            "ticks": 19968,
            "time": 28.363608,
            "velocity": 0.4881889763779528
          },
          {
            "duration": 0.40909050000000136,
            "durationTicks": 288,
            "midi": 57,
            "name": "A3",
            "ticks": 19968,
            "time": 28.363608,
            "velocity": 0.4881889763779528
          },
          {
            "duration": 0.2727269999999997,
            "durationTicks": 192,
            "midi": 88,
            "name": "E6",
            "ticks": 19968,
            "time": 28.363608,
            "velocity": 0.4881889763779528
          },
          {
            "duration": 0.40909050000000136,
            "durationTicks": 288,
            "midi": 64,
            "name": "E4",
            "ticks": 19968,
            "time": 28.363608,
            "velocity": 0.4881889763779528
          },
          {
            "duration": 0.40909050000000136,
            "durationTicks": 288,
            "midi": 64,
            "name": "E4",
            "ticks": 19968,
            "time": 28.363608,
            "velocity": 0.4881889763779528
          },
          {
            "duration": 0.40909050000000136,
            "durationTicks": 288,
            "midi": 57,
            "name": "A3",
            "ticks": 19968,
            "time": 28.363608,
            "velocity": 0.4881889763779528
          },
          {
            "duration": 0.2727269999999997,
            "durationTicks": 192,
            "midi": 88,
            "name": "E6",
            "ticks": 19968,
            "time": 28.363608,
            "velocity": 0.4881889763779528
          },
          {
            "duration": 0.2727269999999997,
            "durationTicks": 192,
            "midi": 76,
            "name": "E5",
            "ticks": 19968,
            "time": 28.363608,
            "velocity": 0.4881889763779528
          },
          {
            "duration": 0.2727269999999997,
            "durationTicks": 192,
            "midi": 76,
            "name": "E5",
            "ticks": 19968,
            "time": 28.363608,
            "velocity": 0.4881889763779528
          },
          {
            "duration": 0.2727269999999997,
            "durationTicks": 192,
            "midi": 76,
            "name": "E5",
            "ticks": 19968,
            "time": 28.363608,
            "velocity": 0.4881889763779528
          },
          {
            "duration": 0.2727269999999997,
            "durationTicks": 192,
            "midi": 88,
            "name": "E6",
            "ticks": 19968,
            "time": 28.363608,
            "velocity": 0.4881889763779528
          },
          {
            "duration": 0.40909050000000136,
            "durationTicks": 288,
            "midi": 64,
            "name": "E4",
            "ticks": 19968,
            "time": 28.363608,
            "velocity": 0.4881889763779528
          },
          {
            "duration": 0.40909050000000136,
            "durationTicks": 288,
            "midi": 64,
            "name": "E4",
            "ticks": 19968,
            "time": 28.363608,
            "velocity": 0.4881889763779528
          },
          {
            "duration": 0.2727269999999997,
            "durationTicks": 192,
            "midi": 76,
            "name": "E5",
            "ticks": 19968,
            "time": 28.363608,
            "velocity": 0.4881889763779528
          },
          {
            "duration": 0.40909050000000136,
            "durationTicks": 288,
            "midi": 57,
            "name": "A3",
            "ticks": 19968,
            "time": 28.363608,
            "velocity": 0.4881889763779528
          },
          {
            "duration": 0.40909050000000136,
            "durationTicks": 288,
            "midi": 57,
            "name": "A3",
            "ticks": 19968,
            "time": 28.363608,
            "velocity": 0.4881889763779528
          },
          {
            "duration": 0.40909050000000136,
            "durationTicks": 288,
            "midi": 69,
            "name": "A4",
            "ticks": 19968,
            "time": 28.363608,
            "velocity": 0.4881889763779528
          },
          {
            "duration": 0.40909050000000136,
            "durationTicks": 288,
            "midi": 64,
            "name": "E4",
            "ticks": 19968,
            "time": 28.363608,
            "velocity": 0.4881889763779528
          },
          {
            "duration": 0.2727269999999997,
            "durationTicks": 192,
            "midi": 88,
            "name": "E6",
            "ticks": 19968,
            "time": 28.363608,
            "velocity": 0.4881889763779528
          },
          {
            "duration": 0.2727269999999997,
            "durationTicks": 192,
            "midi": 76,
            "name": "E5",
            "ticks": 19968,
            "time": 28.363608,
            "velocity": 0.4881889763779528
          },
          {
            "duration": 0.40909050000000136,
            "durationTicks": 288,
            "midi": 57,
            "name": "A3",
            "ticks": 19968,
            "time": 28.363608,
            "velocity": 0.4881889763779528
          },
          {
            "duration": 0.40909050000000136,
            "durationTicks": 288,
            "midi": 69,
            "name": "A4",
            "ticks": 19968,
            "time": 28.363608,
            "velocity": 0.4881889763779528
          },
          {
            "duration": 0.40909050000000136,
            "durationTicks": 288,
            "midi": 57,
            "name": "A3",
            "ticks": 19968,
            "time": 28.363608,
            "velocity": 0.4881889763779528
          },
          {
            "duration": 0.40909050000000136,
            "durationTicks": 288,
            "midi": 69,
            "name": "A4",
            "ticks": 19968,
            "time": 28.363608,
            "velocity": 0.4881889763779528
          },
          {
            "duration": 0.2727269999999997,
            "durationTicks": 192,
            "midi": 88,
            "name": "E6",
            "ticks": 19968,
            "time": 28.363608,
            "velocity": 0.4881889763779528
          },
          {
            "duration": 0.40909050000000136,
            "durationTicks": 288,
            "midi": 69,
            "name": "A4",
            "ticks": 19968,
            "time": 28.363608,
            "velocity": 0.4881889763779528
          },
          {
            "duration": 0.40909050000000136,
            "durationTicks": 288,
            "midi": 64,
            "name": "E4",
            "ticks": 19968,
            "time": 28.363608,
            "velocity": 0.4881889763779528
          },
          {
            "duration": 0.40909050000000136,
            "durationTicks": 288,
            "midi": 69,
            "name": "A4",
            "ticks": 19968,
            "time": 28.363608,
            "velocity": 0.4881889763779528
          },
          {
            "duration": 0.2727269999999997,
            "durationTicks": 192,
            "midi": 80,
            "name": "G#5",
            "ticks": 20160,
            "time": 28.636335,
            "velocity": 0.4881889763779528
          },
          {
            "duration": 0.2727269999999997,
            "durationTicks": 192,
            "midi": 92,
            "name": "G#6",
            "ticks": 20160,
            "time": 28.636335,
            "velocity": 0.4881889763779528
          },
          {
            "duration": 0.2727269999999997,
            "durationTicks": 192,
            "midi": 92,
            "name": "G#6",
            "ticks": 20160,
            "time": 28.636335,
            "velocity": 0.4881889763779528
          },
          {
            "duration": 0.2727269999999997,
            "durationTicks": 192,
            "midi": 92,
            "name": "G#6",
            "ticks": 20160,
            "time": 28.636335,
            "velocity": 0.4881889763779528
          },
          {
            "duration": 0.2727269999999997,
            "durationTicks": 192,
            "midi": 92,
            "name": "G#6",
            "ticks": 20160,
            "time": 28.636335,
            "velocity": 0.4881889763779528
          },
          {
            "duration": 0.2727269999999997,
            "durationTicks": 192,
            "midi": 80,
            "name": "G#5",
            "ticks": 20160,
            "time": 28.636335,
            "velocity": 0.4881889763779528
          },
          {
            "duration": 0.2727269999999997,
            "durationTicks": 192,
            "midi": 80,
            "name": "G#5",
            "ticks": 20160,
            "time": 28.636335,
            "velocity": 0.4881889763779528
          },
          {
            "duration": 0.2727269999999997,
            "durationTicks": 192,
            "midi": 92,
            "name": "G#6",
            "ticks": 20160,
            "time": 28.636335,
            "velocity": 0.4881889763779528
          },
          {
            "duration": 0.2727269999999997,
            "durationTicks": 192,
            "midi": 80,
            "name": "G#5",
            "ticks": 20160,
            "time": 28.636335,
            "velocity": 0.4881889763779528
          },
          {
            "duration": 0.2727269999999997,
            "durationTicks": 192,
            "midi": 92,
            "name": "G#6",
            "ticks": 20160,
            "time": 28.636335,
            "velocity": 0.4881889763779528
          },
          {
            "duration": 0.2727269999999997,
            "durationTicks": 192,
            "midi": 80,
            "name": "G#5",
            "ticks": 20160,
            "time": 28.636335,
            "velocity": 0.4881889763779528
          },
          {
            "duration": 0.2727269999999997,
            "durationTicks": 192,
            "midi": 80,
            "name": "G#5",
            "ticks": 20160,
            "time": 28.636335,
            "velocity": 0.4881889763779528
          },
          {
            "duration": 0.6818174999999975,
            "durationTicks": 480,
            "midi": 57,
            "name": "A3",
            "ticks": 20256,
            "time": 28.7726985,
            "velocity": 0.4881889763779528
          },
          {
            "duration": 0.6818174999999975,
            "durationTicks": 480,
            "midi": 69,
            "name": "A4",
            "ticks": 20256,
            "time": 28.7726985,
            "velocity": 0.4881889763779528
          },
          {
            "duration": 0.6818174999999975,
            "durationTicks": 480,
            "midi": 69,
            "name": "A4",
            "ticks": 20256,
            "time": 28.7726985,
            "velocity": 0.4881889763779528
          },
          {
            "duration": 0.6818174999999975,
            "durationTicks": 480,
            "midi": 57,
            "name": "A3",
            "ticks": 20256,
            "time": 28.7726985,
            "velocity": 0.4881889763779528
          },
          {
            "duration": 0.6818174999999975,
            "durationTicks": 480,
            "midi": 57,
            "name": "A3",
            "ticks": 20256,
            "time": 28.7726985,
            "velocity": 0.4881889763779528
          },
          {
            "duration": 0.6818174999999975,
            "durationTicks": 480,
            "midi": 69,
            "name": "A4",
            "ticks": 20256,
            "time": 28.7726985,
            "velocity": 0.4881889763779528
          },
          {
            "duration": 0.6818174999999975,
            "durationTicks": 480,
            "midi": 64,
            "name": "E4",
            "ticks": 20256,
            "time": 28.7726985,
            "velocity": 0.4881889763779528
          },
          {
            "duration": 0.6818174999999975,
            "durationTicks": 480,
            "midi": 69,
            "name": "A4",
            "ticks": 20256,
            "time": 28.7726985,
            "velocity": 0.4881889763779528
          },
          {
            "duration": 0.6818174999999975,
            "durationTicks": 480,
            "midi": 57,
            "name": "A3",
            "ticks": 20256,
            "time": 28.7726985,
            "velocity": 0.4881889763779528
          },
          {
            "duration": 0.6818174999999975,
            "durationTicks": 480,
            "midi": 69,
            "name": "A4",
            "ticks": 20256,
            "time": 28.7726985,
            "velocity": 0.4881889763779528
          },
          {
            "duration": 0.6818174999999975,
            "durationTicks": 480,
            "midi": 64,
            "name": "E4",
            "ticks": 20256,
            "time": 28.7726985,
            "velocity": 0.4881889763779528
          },
          {
            "duration": 0.6818174999999975,
            "durationTicks": 480,
            "midi": 57,
            "name": "A3",
            "ticks": 20256,
            "time": 28.7726985,
            "velocity": 0.4881889763779528
          },
          {
            "duration": 0.6818174999999975,
            "durationTicks": 480,
            "midi": 57,
            "name": "A3",
            "ticks": 20256,
            "time": 28.7726985,
            "velocity": 0.4881889763779528
          },
          {
            "duration": 0.6818174999999975,
            "durationTicks": 480,
            "midi": 64,
            "name": "E4",
            "ticks": 20256,
            "time": 28.7726985,
            "velocity": 0.4881889763779528
          },
          {
            "duration": 0.6818174999999975,
            "durationTicks": 480,
            "midi": 69,
            "name": "A4",
            "ticks": 20256,
            "time": 28.7726985,
            "velocity": 0.4881889763779528
          },
          {
            "duration": 0.6818174999999975,
            "durationTicks": 480,
            "midi": 64,
            "name": "E4",
            "ticks": 20256,
            "time": 28.7726985,
            "velocity": 0.4881889763779528
          },
          {
            "duration": 0.6818174999999975,
            "durationTicks": 480,
            "midi": 64,
            "name": "E4",
            "ticks": 20256,
            "time": 28.7726985,
            "velocity": 0.4881889763779528
          },
          {
            "duration": 0.6818174999999975,
            "durationTicks": 480,
            "midi": 64,
            "name": "E4",
            "ticks": 20256,
            "time": 28.7726985,
            "velocity": 0.4881889763779528
          },
          {
            "duration": 0.13636350000000164,
            "durationTicks": 96,
            "midi": 92,
            "name": "G#6",
            "ticks": 20352,
            "time": 28.909062,
            "velocity": 0.4881889763779528
          },
          {
            "duration": 0.13636350000000164,
            "durationTicks": 96,
            "midi": 80,
            "name": "G#5",
            "ticks": 20352,
            "time": 28.909062,
            "velocity": 0.4881889763779528
          },
          {
            "duration": 0.13636350000000164,
            "durationTicks": 96,
            "midi": 92,
            "name": "G#6",
            "ticks": 20352,
            "time": 28.909062,
            "velocity": 0.4881889763779528
          },
          {
            "duration": 0.13636350000000164,
            "durationTicks": 96,
            "midi": 80,
            "name": "G#5",
            "ticks": 20352,
            "time": 28.909062,
            "velocity": 0.4881889763779528
          },
          {
            "duration": 0.13636350000000164,
            "durationTicks": 96,
            "midi": 80,
            "name": "G#5",
            "ticks": 20352,
            "time": 28.909062,
            "velocity": 0.4881889763779528
          },
          {
            "duration": 0.13636350000000164,
            "durationTicks": 96,
            "midi": 92,
            "name": "G#6",
            "ticks": 20352,
            "time": 28.909062,
            "velocity": 0.4881889763779528
          },
          {
            "duration": 0.13636350000000164,
            "durationTicks": 96,
            "midi": 80,
            "name": "G#5",
            "ticks": 20352,
            "time": 28.909062,
            "velocity": 0.4881889763779528
          },
          {
            "duration": 0.13636350000000164,
            "durationTicks": 96,
            "midi": 92,
            "name": "G#6",
            "ticks": 20352,
            "time": 28.909062,
            "velocity": 0.4881889763779528
          },
          {
            "duration": 0.13636350000000164,
            "durationTicks": 96,
            "midi": 80,
            "name": "G#5",
            "ticks": 20352,
            "time": 28.909062,
            "velocity": 0.4881889763779528
          },
          {
            "duration": 0.13636350000000164,
            "durationTicks": 96,
            "midi": 80,
            "name": "G#5",
            "ticks": 20352,
            "time": 28.909062,
            "velocity": 0.4881889763779528
          },
          {
            "duration": 0.13636350000000164,
            "durationTicks": 96,
            "midi": 92,
            "name": "G#6",
            "ticks": 20352,
            "time": 28.909062,
            "velocity": 0.4881889763779528
          },
          {
            "duration": 0.13636350000000164,
            "durationTicks": 96,
            "midi": 92,
            "name": "G#6",
            "ticks": 20352,
            "time": 28.909062,
            "velocity": 0.4881889763779528
          },
          {
            "duration": 0.13636349999999808,
            "durationTicks": 96,
            "midi": 90,
            "name": "F#6",
            "ticks": 20448,
            "time": 29.0454255,
            "velocity": 0.4881889763779528
          },
          {
            "duration": 0.13636349999999808,
            "durationTicks": 96,
            "midi": 78,
            "name": "F#5",
            "ticks": 20448,
            "time": 29.0454255,
            "velocity": 0.4881889763779528
          },
          {
            "duration": 0.13636349999999808,
            "durationTicks": 96,
            "midi": 90,
            "name": "F#6",
            "ticks": 20448,
            "time": 29.0454255,
            "velocity": 0.4881889763779528
          },
          {
            "duration": 0.13636349999999808,
            "durationTicks": 96,
            "midi": 78,
            "name": "F#5",
            "ticks": 20448,
            "time": 29.0454255,
            "velocity": 0.4881889763779528
          },
          {
            "duration": 0.13636349999999808,
            "durationTicks": 96,
            "midi": 90,
            "name": "F#6",
            "ticks": 20448,
            "time": 29.0454255,
            "velocity": 0.4881889763779528
          },
          {
            "duration": 0.13636349999999808,
            "durationTicks": 96,
            "midi": 78,
            "name": "F#5",
            "ticks": 20448,
            "time": 29.0454255,
            "velocity": 0.4881889763779528
          },
          {
            "duration": 0.13636349999999808,
            "durationTicks": 96,
            "midi": 78,
            "name": "F#5",
            "ticks": 20448,
            "time": 29.0454255,
            "velocity": 0.4881889763779528
          },
          {
            "duration": 0.13636349999999808,
            "durationTicks": 96,
            "midi": 78,
            "name": "F#5",
            "ticks": 20448,
            "time": 29.0454255,
            "velocity": 0.4881889763779528
          },
          {
            "duration": 0.13636349999999808,
            "durationTicks": 96,
            "midi": 90,
            "name": "F#6",
            "ticks": 20448,
            "time": 29.0454255,
            "velocity": 0.4881889763779528
          },
          {
            "duration": 0.13636349999999808,
            "durationTicks": 96,
            "midi": 90,
            "name": "F#6",
            "ticks": 20448,
            "time": 29.0454255,
            "velocity": 0.4881889763779528
          },
          {
            "duration": 0.13636349999999808,
            "durationTicks": 96,
            "midi": 78,
            "name": "F#5",
            "ticks": 20448,
            "time": 29.0454255,
            "velocity": 0.4881889763779528
          },
          {
            "duration": 0.13636349999999808,
            "durationTicks": 96,
            "midi": 90,
            "name": "F#6",
            "ticks": 20448,
            "time": 29.0454255,
            "velocity": 0.4881889763779528
          },
          {
            "duration": 0.13636350000000164,
            "durationTicks": 96,
            "midi": 76,
            "name": "E5",
            "ticks": 20544,
            "time": 29.181789,
            "velocity": 0.4881889763779528
          },
          {
            "duration": 0.13636350000000164,
            "durationTicks": 96,
            "midi": 76,
            "name": "E5",
            "ticks": 20544,
            "time": 29.181789,
            "velocity": 0.4881889763779528
          },
          {
            "duration": 0.13636350000000164,
            "durationTicks": 96,
            "midi": 76,
            "name": "E5",
            "ticks": 20544,
            "time": 29.181789,
            "velocity": 0.4881889763779528
          },
          {
            "duration": 0.13636350000000164,
            "durationTicks": 96,
            "midi": 88,
            "name": "E6",
            "ticks": 20544,
            "time": 29.181789,
            "velocity": 0.4881889763779528
          },
          {
            "duration": 0.13636350000000164,
            "durationTicks": 96,
            "midi": 76,
            "name": "E5",
            "ticks": 20544,
            "time": 29.181789,
            "velocity": 0.4881889763779528
          },
          {
            "duration": 0.13636350000000164,
            "durationTicks": 96,
            "midi": 88,
            "name": "E6",
            "ticks": 20544,
            "time": 29.181789,
            "velocity": 0.4881889763779528
          },
          {
            "duration": 0.13636350000000164,
            "durationTicks": 96,
            "midi": 88,
            "name": "E6",
            "ticks": 20544,
            "time": 29.181789,
            "velocity": 0.4881889763779528
          },
          {
            "duration": 0.13636350000000164,
            "durationTicks": 96,
            "midi": 88,
            "name": "E6",
            "ticks": 20544,
            "time": 29.181789,
            "velocity": 0.4881889763779528
          },
          {
            "duration": 0.13636350000000164,
            "durationTicks": 96,
            "midi": 76,
            "name": "E5",
            "ticks": 20544,
            "time": 29.181789,
            "velocity": 0.4881889763779528
          },
          {
            "duration": 0.13636350000000164,
            "durationTicks": 96,
            "midi": 88,
            "name": "E6",
            "ticks": 20544,
            "time": 29.181789,
            "velocity": 0.4881889763779528
          },
          {
            "duration": 0.13636350000000164,
            "durationTicks": 96,
            "midi": 76,
            "name": "E5",
            "ticks": 20544,
            "time": 29.181789,
            "velocity": 0.4881889763779528
          },
          {
            "duration": 0.13636350000000164,
            "durationTicks": 96,
            "midi": 88,
            "name": "E6",
            "ticks": 20544,
            "time": 29.181789,
            "velocity": 0.4881889763779528
          },
          {
            "duration": 0.13636349999999808,
            "durationTicks": 96,
            "midi": 78,
            "name": "F#5",
            "ticks": 20640,
            "time": 29.3181525,
            "velocity": 0.4881889763779528
          },
          {
            "duration": 0.13636349999999808,
            "durationTicks": 96,
            "midi": 90,
            "name": "F#6",
            "ticks": 20640,
            "time": 29.3181525,
            "velocity": 0.4881889763779528
          },
          {
            "duration": 0.13636349999999808,
            "durationTicks": 96,
            "midi": 78,
            "name": "F#5",
            "ticks": 20640,
            "time": 29.3181525,
            "velocity": 0.4881889763779528
          },
          {
            "duration": 0.13636349999999808,
            "durationTicks": 96,
            "midi": 78,
            "name": "F#5",
            "ticks": 20640,
            "time": 29.3181525,
            "velocity": 0.4881889763779528
          },
          {
            "duration": 0.13636349999999808,
            "durationTicks": 96,
            "midi": 90,
            "name": "F#6",
            "ticks": 20640,
            "time": 29.3181525,
            "velocity": 0.4881889763779528
          },
          {
            "duration": 0.13636349999999808,
            "durationTicks": 96,
            "midi": 78,
            "name": "F#5",
            "ticks": 20640,
            "time": 29.3181525,
            "velocity": 0.4881889763779528
          },
          {
            "duration": 0.13636349999999808,
            "durationTicks": 96,
            "midi": 78,
            "name": "F#5",
            "ticks": 20640,
            "time": 29.3181525,
            "velocity": 0.4881889763779528
          },
          {
            "duration": 0.13636349999999808,
            "durationTicks": 96,
            "midi": 90,
            "name": "F#6",
            "ticks": 20640,
            "time": 29.3181525,
            "velocity": 0.4881889763779528
          },
          {
            "duration": 0.13636349999999808,
            "durationTicks": 96,
            "midi": 90,
            "name": "F#6",
            "ticks": 20640,
            "time": 29.3181525,
            "velocity": 0.4881889763779528
          },
          {
            "duration": 0.13636349999999808,
            "durationTicks": 96,
            "midi": 78,
            "name": "F#5",
            "ticks": 20640,
            "time": 29.3181525,
            "velocity": 0.4881889763779528
          },
          {
            "duration": 0.13636349999999808,
            "durationTicks": 96,
            "midi": 90,
            "name": "F#6",
            "ticks": 20640,
            "time": 29.3181525,
            "velocity": 0.4881889763779528
          },
          {
            "duration": 0.13636349999999808,
            "durationTicks": 96,
            "midi": 90,
            "name": "F#6",
            "ticks": 20640,
            "time": 29.3181525,
            "velocity": 0.4881889763779528
          },
          {
            "duration": 0.13636350000000164,
            "durationTicks": 96,
            "midi": 80,
            "name": "G#5",
            "ticks": 20736,
            "time": 29.454515999999998,
            "velocity": 0.4881889763779528
          },
          {
            "duration": 0.13636350000000164,
            "durationTicks": 96,
            "midi": 92,
            "name": "G#6",
            "ticks": 20736,
            "time": 29.454515999999998,
            "velocity": 0.4881889763779528
          },
          {
            "duration": 0.40909050000000136,
            "durationTicks": 288,
            "midi": 56,
            "name": "G#3",
            "ticks": 20736,
            "time": 29.454515999999998,
            "velocity": 0.4881889763779528
          },
          {
            "duration": 0.13636350000000164,
            "durationTicks": 96,
            "midi": 92,
            "name": "G#6",
            "ticks": 20736,
            "time": 29.454515999999998,
            "velocity": 0.4881889763779528
          },
          {
            "duration": 0.40909050000000136,
            "durationTicks": 288,
            "midi": 68,
            "name": "G#4",
            "ticks": 20736,
            "time": 29.454515999999998,
            "velocity": 0.4881889763779528
          },
          {
            "duration": 0.40909050000000136,
            "durationTicks": 288,
            "midi": 68,
            "name": "G#4",
            "ticks": 20736,
            "time": 29.454515999999998,
            "velocity": 0.4881889763779528
          },
          {
            "duration": 0.13636350000000164,
            "durationTicks": 96,
            "midi": 80,
            "name": "G#5",
            "ticks": 20736,
            "time": 29.454515999999998,
            "velocity": 0.4881889763779528
          },
          {
            "duration": 0.40909050000000136,
            "durationTicks": 288,
            "midi": 63,
            "name": "D#4",
            "ticks": 20736,
            "time": 29.454515999999998,
            "velocity": 0.4881889763779528
          },
          {
            "duration": 0.40909050000000136,
            "durationTicks": 288,
            "midi": 68,
            "name": "G#4",
            "ticks": 20736,
            "time": 29.454515999999998,
            "velocity": 0.4881889763779528
          },
          {
            "duration": 0.13636350000000164,
            "durationTicks": 96,
            "midi": 80,
            "name": "G#5",
            "ticks": 20736,
            "time": 29.454515999999998,
            "velocity": 0.4881889763779528
          },
          {
            "duration": 0.13636350000000164,
            "durationTicks": 96,
            "midi": 80,
            "name": "G#5",
            "ticks": 20736,
            "time": 29.454515999999998,
            "velocity": 0.4881889763779528
          },
          {
            "duration": 0.13636350000000164,
            "durationTicks": 96,
            "midi": 80,
            "name": "G#5",
            "ticks": 20736,
            "time": 29.454515999999998,
            "velocity": 0.4881889763779528
          },
          {
            "duration": 0.13636350000000164,
            "durationTicks": 96,
            "midi": 92,
            "name": "G#6",
            "ticks": 20736,
            "time": 29.454515999999998,
            "velocity": 0.4881889763779528
          },
          {
            "duration": 0.40909050000000136,
            "durationTicks": 288,
            "midi": 63,
            "name": "D#4",
            "ticks": 20736,
            "time": 29.454515999999998,
            "velocity": 0.4881889763779528
          },
          {
            "duration": 0.40909050000000136,
            "durationTicks": 288,
            "midi": 63,
            "name": "D#4",
            "ticks": 20736,
            "time": 29.454515999999998,
            "velocity": 0.4881889763779528
          },
          {
            "duration": 0.40909050000000136,
            "durationTicks": 288,
            "midi": 56,
            "name": "G#3",
            "ticks": 20736,
            "time": 29.454515999999998,
            "velocity": 0.4881889763779528
          },
          {
            "duration": 0.40909050000000136,
            "durationTicks": 288,
            "midi": 63,
            "name": "D#4",
            "ticks": 20736,
            "time": 29.454515999999998,
            "velocity": 0.4881889763779528
          },
          {
            "duration": 0.13636350000000164,
            "durationTicks": 96,
            "midi": 92,
            "name": "G#6",
            "ticks": 20736,
            "time": 29.454515999999998,
            "velocity": 0.4881889763779528
          },
          {
            "duration": 0.40909050000000136,
            "durationTicks": 288,
            "midi": 68,
            "name": "G#4",
            "ticks": 20736,
            "time": 29.454515999999998,
            "velocity": 0.4881889763779528
          },
          {
            "duration": 0.40909050000000136,
            "durationTicks": 288,
            "midi": 56,
            "name": "G#3",
            "ticks": 20736,
            "time": 29.454515999999998,
            "velocity": 0.4881889763779528
          },
          {
            "duration": 0.40909050000000136,
            "durationTicks": 288,
            "midi": 56,
            "name": "G#3",
            "ticks": 20736,
            "time": 29.454515999999998,
            "velocity": 0.4881889763779528
          },
          {
            "duration": 0.40909050000000136,
            "durationTicks": 288,
            "midi": 68,
            "name": "G#4",
            "ticks": 20736,
            "time": 29.454515999999998,
            "velocity": 0.4881889763779528
          },
          {
            "duration": 0.13636350000000164,
            "durationTicks": 96,
            "midi": 92,
            "name": "G#6",
            "ticks": 20736,
            "time": 29.454515999999998,
            "velocity": 0.4881889763779528
          },
          {
            "duration": 0.13636350000000164,
            "durationTicks": 96,
            "midi": 92,
            "name": "G#6",
            "ticks": 20736,
            "time": 29.454515999999998,
            "velocity": 0.4881889763779528
          },
          {
            "duration": 0.40909050000000136,
            "durationTicks": 288,
            "midi": 63,
            "name": "D#4",
            "ticks": 20736,
            "time": 29.454515999999998,
            "velocity": 0.4881889763779528
          },
          {
            "duration": 0.40909050000000136,
            "durationTicks": 288,
            "midi": 56,
            "name": "G#3",
            "ticks": 20736,
            "time": 29.454515999999998,
            "velocity": 0.4881889763779528
          },
          {
            "duration": 0.40909050000000136,
            "durationTicks": 288,
            "midi": 56,
            "name": "G#3",
            "ticks": 20736,
            "time": 29.454515999999998,
            "velocity": 0.4881889763779528
          },
          {
            "duration": 0.13636350000000164,
            "durationTicks": 96,
            "midi": 80,
            "name": "G#5",
            "ticks": 20736,
            "time": 29.454515999999998,
            "velocity": 0.4881889763779528
          },
          {
            "duration": 0.40909050000000136,
            "durationTicks": 288,
            "midi": 63,
            "name": "D#4",
            "ticks": 20736,
            "time": 29.454515999999998,
            "velocity": 0.4881889763779528
          },
          {
            "duration": 0.40909050000000136,
            "durationTicks": 288,
            "midi": 68,
            "name": "G#4",
            "ticks": 20736,
            "time": 29.454515999999998,
            "velocity": 0.4881889763779528
          },
          {
            "duration": 0.13636350000000164,
            "durationTicks": 96,
            "midi": 81,
            "name": "A5",
            "ticks": 20832,
            "time": 29.5908795,
            "velocity": 0.4881889763779528
          },
          {
            "duration": 0.13636350000000164,
            "durationTicks": 96,
            "midi": 93,
            "name": "A6",
            "ticks": 20832,
            "time": 29.5908795,
            "velocity": 0.4881889763779528
          },
          {
            "duration": 0.13636350000000164,
            "durationTicks": 96,
            "midi": 81,
            "name": "A5",
            "ticks": 20832,
            "time": 29.5908795,
            "velocity": 0.4881889763779528
          },
          {
            "duration": 0.13636350000000164,
            "durationTicks": 96,
            "midi": 93,
            "name": "A6",
            "ticks": 20832,
            "time": 29.5908795,
            "velocity": 0.4881889763779528
          },
          {
            "duration": 0.13636350000000164,
            "durationTicks": 96,
            "midi": 81,
            "name": "A5",
            "ticks": 20832,
            "time": 29.5908795,
            "velocity": 0.4881889763779528
          },
          {
            "duration": 0.13636350000000164,
            "durationTicks": 96,
            "midi": 81,
            "name": "A5",
            "ticks": 20832,
            "time": 29.5908795,
            "velocity": 0.4881889763779528
          },
          {
            "duration": 0.13636350000000164,
            "durationTicks": 96,
            "midi": 93,
            "name": "A6",
            "ticks": 20832,
            "time": 29.5908795,
            "velocity": 0.4881889763779528
          },
          {
            "duration": 0.13636350000000164,
            "durationTicks": 96,
            "midi": 93,
            "name": "A6",
            "ticks": 20832,
            "time": 29.5908795,
            "velocity": 0.4881889763779528
          },
          {
            "duration": 0.13636350000000164,
            "durationTicks": 96,
            "midi": 81,
            "name": "A5",
            "ticks": 20832,
            "time": 29.5908795,
            "velocity": 0.4881889763779528
          },
          {
            "duration": 0.13636350000000164,
            "durationTicks": 96,
            "midi": 81,
            "name": "A5",
            "ticks": 20832,
            "time": 29.5908795,
            "velocity": 0.4881889763779528
          },
          {
            "duration": 0.13636350000000164,
            "durationTicks": 96,
            "midi": 93,
            "name": "A6",
            "ticks": 20832,
            "time": 29.5908795,
            "velocity": 0.4881889763779528
          },
          {
            "duration": 0.13636350000000164,
            "durationTicks": 96,
            "midi": 93,
            "name": "A6",
            "ticks": 20832,
            "time": 29.5908795,
            "velocity": 0.4881889763779528
          },
          {
            "duration": 0.13636349999999808,
            "durationTicks": 96,
            "midi": 92,
            "name": "G#6",
            "ticks": 20928,
            "time": 29.727243,
            "velocity": 0.4881889763779528
          },
          {
            "duration": 0.13636349999999808,
            "durationTicks": 96,
            "midi": 92,
            "name": "G#6",
            "ticks": 20928,
            "time": 29.727243,
            "velocity": 0.4881889763779528
          },
          {
            "duration": 0.13636349999999808,
            "durationTicks": 96,
            "midi": 80,
            "name": "G#5",
            "ticks": 20928,
            "time": 29.727243,
            "velocity": 0.4881889763779528
          },
          {
            "duration": 0.13636349999999808,
            "durationTicks": 96,
            "midi": 80,
            "name": "G#5",
            "ticks": 20928,
            "time": 29.727243,
            "velocity": 0.4881889763779528
          },
          {
            "duration": 0.13636349999999808,
            "durationTicks": 96,
            "midi": 80,
            "name": "G#5",
            "ticks": 20928,
            "time": 29.727243,
            "velocity": 0.4881889763779528
          },
          {
            "duration": 0.13636349999999808,
            "durationTicks": 96,
            "midi": 80,
            "name": "G#5",
            "ticks": 20928,
            "time": 29.727243,
            "velocity": 0.4881889763779528
          },
          {
            "duration": 0.13636349999999808,
            "durationTicks": 96,
            "midi": 92,
            "name": "G#6",
            "ticks": 20928,
            "time": 29.727243,
            "velocity": 0.4881889763779528
          },
          {
            "duration": 0.13636349999999808,
            "durationTicks": 96,
            "midi": 80,
            "name": "G#5",
            "ticks": 20928,
            "time": 29.727243,
            "velocity": 0.4881889763779528
          },
          {
            "duration": 0.13636349999999808,
            "durationTicks": 96,
            "midi": 92,
            "name": "G#6",
            "ticks": 20928,
            "time": 29.727243,
            "velocity": 0.4881889763779528
          },
          {
            "duration": 0.13636349999999808,
            "durationTicks": 96,
            "midi": 92,
            "name": "G#6",
            "ticks": 20928,
            "time": 29.727243,
            "velocity": 0.4881889763779528
          },
          {
            "duration": 0.13636349999999808,
            "durationTicks": 96,
            "midi": 80,
            "name": "G#5",
            "ticks": 20928,
            "time": 29.727243,
            "velocity": 0.4881889763779528
          },
          {
            "duration": 0.13636349999999808,
            "durationTicks": 96,
            "midi": 92,
            "name": "G#6",
            "ticks": 20928,
            "time": 29.727243,
            "velocity": 0.4881889763779528
          },
          {
            "duration": 0.6818175000000011,
            "durationTicks": 480,
            "midi": 63,
            "name": "D#4",
            "ticks": 21024,
            "time": 29.8636065,
            "velocity": 0.4881889763779528
          },
          {
            "duration": 0.6818175000000011,
            "durationTicks": 480,
            "midi": 56,
            "name": "G#3",
            "ticks": 21024,
            "time": 29.8636065,
            "velocity": 0.4881889763779528
          },
          {
            "duration": 0.6818175000000011,
            "durationTicks": 480,
            "midi": 56,
            "name": "G#3",
            "ticks": 21024,
            "time": 29.8636065,
            "velocity": 0.4881889763779528
          },
          {
            "duration": 0.6818175000000011,
            "durationTicks": 480,
            "midi": 88,
            "name": "E6",
            "ticks": 21024,
            "time": 29.8636065,
            "velocity": 0.4881889763779528
          },
          {
            "duration": 0.6818175000000011,
            "durationTicks": 480,
            "midi": 88,
            "name": "E6",
            "ticks": 21024,
            "time": 29.8636065,
            "velocity": 0.4881889763779528
          },
          {
            "duration": 0.6818175000000011,
            "durationTicks": 480,
            "midi": 68,
            "name": "G#4",
            "ticks": 21024,
            "time": 29.8636065,
            "velocity": 0.4881889763779528
          },
          {
            "duration": 0.6818175000000011,
            "durationTicks": 480,
            "midi": 63,
            "name": "D#4",
            "ticks": 21024,
            "time": 29.8636065,
            "velocity": 0.4881889763779528
          },
          {
            "duration": 0.6818175000000011,
            "durationTicks": 480,
            "midi": 76,
            "name": "E5",
            "ticks": 21024,
            "time": 29.8636065,
            "velocity": 0.4881889763779528
          },
          {
            "duration": 0.6818175000000011,
            "durationTicks": 480,
            "midi": 76,
            "name": "E5",
            "ticks": 21024,
            "time": 29.8636065,
            "velocity": 0.4881889763779528
          },
          {
            "duration": 0.6818175000000011,
            "durationTicks": 480,
            "midi": 88,
            "name": "E6",
            "ticks": 21024,
            "time": 29.8636065,
            "velocity": 0.4881889763779528
          },
          {
            "duration": 0.6818175000000011,
            "durationTicks": 480,
            "midi": 76,
            "name": "E5",
            "ticks": 21024,
            "time": 29.8636065,
            "velocity": 0.4881889763779528
          },
          {
            "duration": 0.6818175000000011,
            "durationTicks": 480,
            "midi": 68,
            "name": "G#4",
            "ticks": 21024,
            "time": 29.8636065,
            "velocity": 0.4881889763779528
          },
          {
            "duration": 0.6818175000000011,
            "durationTicks": 480,
            "midi": 63,
            "name": "D#4",
            "ticks": 21024,
            "time": 29.8636065,
            "velocity": 0.4881889763779528
          },
          {
            "duration": 0.6818175000000011,
            "durationTicks": 480,
            "midi": 56,
            "name": "G#3",
            "ticks": 21024,
            "time": 29.8636065,
            "velocity": 0.4881889763779528
          },
          {
            "duration": 0.6818175000000011,
            "durationTicks": 480,
            "midi": 63,
            "name": "D#4",
            "ticks": 21024,
            "time": 29.8636065,
            "velocity": 0.4881889763779528
          },
          {
            "duration": 0.6818175000000011,
            "durationTicks": 480,
            "midi": 56,
            "name": "G#3",
            "ticks": 21024,
            "time": 29.8636065,
            "velocity": 0.4881889763779528
          },
          {
            "duration": 0.6818175000000011,
            "durationTicks": 480,
            "midi": 68,
            "name": "G#4",
            "ticks": 21024,
            "time": 29.8636065,
            "velocity": 0.4881889763779528
          },
          {
            "duration": 0.6818175000000011,
            "durationTicks": 480,
            "midi": 76,
            "name": "E5",
            "ticks": 21024,
            "time": 29.8636065,
            "velocity": 0.4881889763779528
          },
          {
            "duration": 0.6818175000000011,
            "durationTicks": 480,
            "midi": 88,
            "name": "E6",
            "ticks": 21024,
            "time": 29.8636065,
            "velocity": 0.4881889763779528
          },
          {
            "duration": 0.6818175000000011,
            "durationTicks": 480,
            "midi": 63,
            "name": "D#4",
            "ticks": 21024,
            "time": 29.8636065,
            "velocity": 0.4881889763779528
          },
          {
            "duration": 0.6818175000000011,
            "durationTicks": 480,
            "midi": 88,
            "name": "E6",
            "ticks": 21024,
            "time": 29.8636065,
            "velocity": 0.4881889763779528
          },
          {
            "duration": 0.6818175000000011,
            "durationTicks": 480,
            "midi": 76,
            "name": "E5",
            "ticks": 21024,
            "time": 29.8636065,
            "velocity": 0.4881889763779528
          },
          {
            "duration": 0.6818175000000011,
            "durationTicks": 480,
            "midi": 56,
            "name": "G#3",
            "ticks": 21024,
            "time": 29.8636065,
            "velocity": 0.4881889763779528
          },
          {
            "duration": 0.6818175000000011,
            "durationTicks": 480,
            "midi": 68,
            "name": "G#4",
            "ticks": 21024,
            "time": 29.8636065,
            "velocity": 0.4881889763779528
          },
          {
            "duration": 0.6818175000000011,
            "durationTicks": 480,
            "midi": 56,
            "name": "G#3",
            "ticks": 21024,
            "time": 29.8636065,
            "velocity": 0.4881889763779528
          },
          {
            "duration": 0.6818175000000011,
            "durationTicks": 480,
            "midi": 68,
            "name": "G#4",
            "ticks": 21024,
            "time": 29.8636065,
            "velocity": 0.4881889763779528
          },
          {
            "duration": 0.6818175000000011,
            "durationTicks": 480,
            "midi": 76,
            "name": "E5",
            "ticks": 21024,
            "time": 29.8636065,
            "velocity": 0.4881889763779528
          },
          {
            "duration": 0.6818175000000011,
            "durationTicks": 480,
            "midi": 68,
            "name": "G#4",
            "ticks": 21024,
            "time": 29.8636065,
            "velocity": 0.4881889763779528
          },
          {
            "duration": 0.6818175000000011,
            "durationTicks": 480,
            "midi": 88,
            "name": "E6",
            "ticks": 21024,
            "time": 29.8636065,
            "velocity": 0.4881889763779528
          },
          {
            "duration": 0.6818175000000011,
            "durationTicks": 480,
            "midi": 63,
            "name": "D#4",
            "ticks": 21024,
            "time": 29.8636065,
            "velocity": 0.4881889763779528
          },
          {
            "duration": 0.4090904999999978,
            "durationTicks": 288,
            "midi": 66,
            "name": "F#4",
            "ticks": 21504,
            "time": 30.545424,
            "velocity": 0.4881889763779528
          },
          {
            "duration": 0.4090904999999978,
            "durationTicks": 288,
            "midi": 61,
            "name": "C#4",
            "ticks": 21504,
            "time": 30.545424,
            "velocity": 0.4881889763779528
          },
          {
            "duration": 0.4090904999999978,
            "durationTicks": 288,
            "midi": 66,
            "name": "F#4",
            "ticks": 21504,
            "time": 30.545424,
            "velocity": 0.4881889763779528
          },
          {
            "duration": 0.4090904999999978,
            "durationTicks": 288,
            "midi": 61,
            "name": "C#4",
            "ticks": 21504,
            "time": 30.545424,
            "velocity": 0.4881889763779528
          },
          {
            "duration": 0.4090904999999978,
            "durationTicks": 288,
            "midi": 66,
            "name": "F#4",
            "ticks": 21504,
            "time": 30.545424,
            "velocity": 0.4881889763779528
          },
          {
            "duration": 0.4090904999999978,
            "durationTicks": 288,
            "midi": 61,
            "name": "C#4",
            "ticks": 21504,
            "time": 30.545424,
            "velocity": 0.4881889763779528
          },
          {
            "duration": 0.4090904999999978,
            "durationTicks": 288,
            "midi": 54,
            "name": "F#3",
            "ticks": 21504,
            "time": 30.545424,
            "velocity": 0.4881889763779528
          },
          {
            "duration": 0.4090904999999978,
            "durationTicks": 288,
            "midi": 61,
            "name": "C#4",
            "ticks": 21504,
            "time": 30.545424,
            "velocity": 0.4881889763779528
          },
          {
            "duration": 0.4090904999999978,
            "durationTicks": 288,
            "midi": 66,
            "name": "F#4",
            "ticks": 21504,
            "time": 30.545424,
            "velocity": 0.4881889763779528
          },
          {
            "duration": 0.4090904999999978,
            "durationTicks": 288,
            "midi": 61,
            "name": "C#4",
            "ticks": 21504,
            "time": 30.545424,
            "velocity": 0.4881889763779528
          },
          {
            "duration": 0.4090904999999978,
            "durationTicks": 288,
            "midi": 54,
            "name": "F#3",
            "ticks": 21504,
            "time": 30.545424,
            "velocity": 0.4881889763779528
          },
          {
            "duration": 0.4090904999999978,
            "durationTicks": 288,
            "midi": 54,
            "name": "F#3",
            "ticks": 21504,
            "time": 30.545424,
            "velocity": 0.4881889763779528
          },
          {
            "duration": 0.4090904999999978,
            "durationTicks": 288,
            "midi": 61,
            "name": "C#4",
            "ticks": 21504,
            "time": 30.545424,
            "velocity": 0.4881889763779528
          },
          {
            "duration": 0.4090904999999978,
            "durationTicks": 288,
            "midi": 54,
            "name": "F#3",
            "ticks": 21504,
            "time": 30.545424,
            "velocity": 0.4881889763779528
          },
          {
            "duration": 0.4090904999999978,
            "durationTicks": 288,
            "midi": 66,
            "name": "F#4",
            "ticks": 21504,
            "time": 30.545424,
            "velocity": 0.4881889763779528
          },
          {
            "duration": 0.4090904999999978,
            "durationTicks": 288,
            "midi": 54,
            "name": "F#3",
            "ticks": 21504,
            "time": 30.545424,
            "velocity": 0.4881889763779528
          },
          {
            "duration": 0.4090904999999978,
            "durationTicks": 288,
            "midi": 54,
            "name": "F#3",
            "ticks": 21504,
            "time": 30.545424,
            "velocity": 0.4881889763779528
          },
          {
            "duration": 0.4090904999999978,
            "durationTicks": 288,
            "midi": 66,
            "name": "F#4",
            "ticks": 21504,
            "time": 30.545424,
            "velocity": 0.4881889763779528
          },
          {
            "duration": 0.13636349999999808,
            "durationTicks": 96,
            "midi": 88,
            "name": "E6",
            "ticks": 21696,
            "time": 30.818151,
            "velocity": 0.4881889763779528
          },
          {
            "duration": 0.13636349999999808,
            "durationTicks": 96,
            "midi": 88,
            "name": "E6",
            "ticks": 21696,
            "time": 30.818151,
            "velocity": 0.4881889763779528
          },
          {
            "duration": 0.13636349999999808,
            "durationTicks": 96,
            "midi": 76,
            "name": "E5",
            "ticks": 21696,
            "time": 30.818151,
            "velocity": 0.4881889763779528
          },
          {
            "duration": 0.13636349999999808,
            "durationTicks": 96,
            "midi": 76,
            "name": "E5",
            "ticks": 21696,
            "time": 30.818151,
            "velocity": 0.4881889763779528
          },
          {
            "duration": 0.13636349999999808,
            "durationTicks": 96,
            "midi": 76,
            "name": "E5",
            "ticks": 21696,
            "time": 30.818151,
            "velocity": 0.4881889763779528
          },
          {
            "duration": 0.13636349999999808,
            "durationTicks": 96,
            "midi": 88,
            "name": "E6",
            "ticks": 21696,
            "time": 30.818151,
            "velocity": 0.4881889763779528
          },
          {
            "duration": 0.13636349999999808,
            "durationTicks": 96,
            "midi": 76,
            "name": "E5",
            "ticks": 21696,
            "time": 30.818151,
            "velocity": 0.4881889763779528
          },
          {
            "duration": 0.13636349999999808,
            "durationTicks": 96,
            "midi": 88,
            "name": "E6",
            "ticks": 21696,
            "time": 30.818151,
            "velocity": 0.4881889763779528
          },
          {
            "duration": 0.13636349999999808,
            "durationTicks": 96,
            "midi": 76,
            "name": "E5",
            "ticks": 21696,
            "time": 30.818151,
            "velocity": 0.4881889763779528
          },
          {
            "duration": 0.13636349999999808,
            "durationTicks": 96,
            "midi": 88,
            "name": "E6",
            "ticks": 21696,
            "time": 30.818151,
            "velocity": 0.4881889763779528
          },
          {
            "duration": 0.13636349999999808,
            "durationTicks": 96,
            "midi": 76,
            "name": "E5",
            "ticks": 21696,
            "time": 30.818151,
            "velocity": 0.4881889763779528
          },
          {
            "duration": 0.13636349999999808,
            "durationTicks": 96,
            "midi": 88,
            "name": "E6",
            "ticks": 21696,
            "time": 30.818151,
            "velocity": 0.4881889763779528
          },
          {
            "duration": 0.6818175000000011,
            "durationTicks": 480,
            "midi": 66,
            "name": "F#4",
            "ticks": 21792,
            "time": 30.9545145,
            "velocity": 0.4881889763779528
          },
          {
            "duration": 0.6818175000000011,
            "durationTicks": 480,
            "midi": 66,
            "name": "F#4",
            "ticks": 21792,
            "time": 30.9545145,
            "velocity": 0.4881889763779528
          },
          {
            "duration": 0.13636350000000164,
            "durationTicks": 96,
            "midi": 76,
            "name": "E5",
            "ticks": 21792,
            "time": 30.9545145,
            "velocity": 0.4881889763779528
          },
          {
            "duration": 0.13636350000000164,
            "durationTicks": 96,
            "midi": 88,
            "name": "E6",
            "ticks": 21792,
            "time": 30.9545145,
            "velocity": 0.4881889763779528
          },
          {
            "duration": 0.6818175000000011,
            "durationTicks": 480,
            "midi": 54,
            "name": "F#3",
            "ticks": 21792,
            "time": 30.9545145,
            "velocity": 0.4881889763779528
          },
          {
            "duration": 0.6818175000000011,
            "durationTicks": 480,
            "midi": 66,
            "name": "F#4",
            "ticks": 21792,
            "time": 30.9545145,
            "velocity": 0.4881889763779528
          },
          {
            "duration": 0.6818175000000011,
            "durationTicks": 480,
            "midi": 54,
            "name": "F#3",
            "ticks": 21792,
            "time": 30.9545145,
            "velocity": 0.4881889763779528
          },
          {
            "duration": 0.6818175000000011,
            "durationTicks": 480,
            "midi": 66,
            "name": "F#4",
            "ticks": 21792,
            "time": 30.9545145,
            "velocity": 0.4881889763779528
          },
          {
            "duration": 0.13636350000000164,
            "durationTicks": 96,
            "midi": 76,
            "name": "E5",
            "ticks": 21792,
            "time": 30.9545145,
            "velocity": 0.4881889763779528
          },
          {
            "duration": 0.13636350000000164,
            "durationTicks": 96,
            "midi": 76,
            "name": "E5",
            "ticks": 21792,
            "time": 30.9545145,
            "velocity": 0.4881889763779528
          },
          {
            "duration": 0.6818175000000011,
            "durationTicks": 480,
            "midi": 54,
            "name": "F#3",
            "ticks": 21792,
            "time": 30.9545145,
            "velocity": 0.4881889763779528
          },
          {
            "duration": 0.6818175000000011,
            "durationTicks": 480,
            "midi": 61,
            "name": "C#4",
            "ticks": 21792,
            "time": 30.9545145,
            "velocity": 0.4881889763779528
          },
          {
            "duration": 0.6818175000000011,
            "durationTicks": 480,
            "midi": 54,
            "name": "F#3",
            "ticks": 21792,
            "time": 30.9545145,
            "velocity": 0.4881889763779528
          },
          {
            "duration": 0.6818175000000011,
            "durationTicks": 480,
            "midi": 61,
            "name": "C#4",
            "ticks": 21792,
            "time": 30.9545145,
            "velocity": 0.4881889763779528
          },
          {
            "duration": 0.13636350000000164,
            "durationTicks": 96,
            "midi": 88,
            "name": "E6",
            "ticks": 21792,
            "time": 30.9545145,
            "velocity": 0.4881889763779528
          },
          {
            "duration": 0.6818175000000011,
            "durationTicks": 480,
            "midi": 66,
            "name": "F#4",
            "ticks": 21792,
            "time": 30.9545145,
            "velocity": 0.4881889763779528
          },
          {
            "duration": 0.6818175000000011,
            "durationTicks": 480,
            "midi": 66,
            "name": "F#4",
            "ticks": 21792,
            "time": 30.9545145,
            "velocity": 0.4881889763779528
          },
          {
            "duration": 0.13636350000000164,
            "durationTicks": 96,
            "midi": 88,
            "name": "E6",
            "ticks": 21792,
            "time": 30.9545145,
            "velocity": 0.4881889763779528
          },
          {
            "duration": 0.6818175000000011,
            "durationTicks": 480,
            "midi": 61,
            "name": "C#4",
            "ticks": 21792,
            "time": 30.9545145,
            "velocity": 0.4881889763779528
          },
          {
            "duration": 0.6818175000000011,
            "durationTicks": 480,
            "midi": 54,
            "name": "F#3",
            "ticks": 21792,
            "time": 30.9545145,
            "velocity": 0.4881889763779528
          },
          {
            "duration": 0.13636350000000164,
            "durationTicks": 96,
            "midi": 76,
            "name": "E5",
            "ticks": 21792,
            "time": 30.9545145,
            "velocity": 0.4881889763779528
          },
          {
            "duration": 0.6818175000000011,
            "durationTicks": 480,
            "midi": 61,
            "name": "C#4",
            "ticks": 21792,
            "time": 30.9545145,
            "velocity": 0.4881889763779528
          },
          {
            "duration": 0.13636350000000164,
            "durationTicks": 96,
            "midi": 88,
            "name": "E6",
            "ticks": 21792,
            "time": 30.9545145,
            "velocity": 0.4881889763779528
          },
          {
            "duration": 0.6818175000000011,
            "durationTicks": 480,
            "midi": 61,
            "name": "C#4",
            "ticks": 21792,
            "time": 30.9545145,
            "velocity": 0.4881889763779528
          },
          {
            "duration": 0.13636350000000164,
            "durationTicks": 96,
            "midi": 76,
            "name": "E5",
            "ticks": 21792,
            "time": 30.9545145,
            "velocity": 0.4881889763779528
          },
          {
            "duration": 0.6818175000000011,
            "durationTicks": 480,
            "midi": 61,
            "name": "C#4",
            "ticks": 21792,
            "time": 30.9545145,
            "velocity": 0.4881889763779528
          },
          {
            "duration": 0.13636350000000164,
            "durationTicks": 96,
            "midi": 88,
            "name": "E6",
            "ticks": 21792,
            "time": 30.9545145,
            "velocity": 0.4881889763779528
          },
          {
            "duration": 0.6818175000000011,
            "durationTicks": 480,
            "midi": 54,
            "name": "F#3",
            "ticks": 21792,
            "time": 30.9545145,
            "velocity": 0.4881889763779528
          },
          {
            "duration": 0.13636350000000164,
            "durationTicks": 96,
            "midi": 88,
            "name": "E6",
            "ticks": 21792,
            "time": 30.9545145,
            "velocity": 0.4881889763779528
          },
          {
            "duration": 0.13636350000000164,
            "durationTicks": 96,
            "midi": 76,
            "name": "E5",
            "ticks": 21792,
            "time": 30.9545145,
            "velocity": 0.4881889763779528
          },
          {
            "duration": 0.13636349999999808,
            "durationTicks": 96,
            "midi": 88,
            "name": "E6",
            "ticks": 21888,
            "time": 31.090878,
            "velocity": 0.4881889763779528
          },
          {
            "duration": 0.13636349999999808,
            "durationTicks": 96,
            "midi": 88,
            "name": "E6",
            "ticks": 21888,
            "time": 31.090878,
            "velocity": 0.4881889763779528
          },
          {
            "duration": 0.13636349999999808,
            "durationTicks": 96,
            "midi": 76,
            "name": "E5",
            "ticks": 21888,
            "time": 31.090878,
            "velocity": 0.4881889763779528
          },
          {
            "duration": 0.13636349999999808,
            "durationTicks": 96,
            "midi": 88,
            "name": "E6",
            "ticks": 21888,
            "time": 31.090878,
            "velocity": 0.4881889763779528
          },
          {
            "duration": 0.13636349999999808,
            "durationTicks": 96,
            "midi": 76,
            "name": "E5",
            "ticks": 21888,
            "time": 31.090878,
            "velocity": 0.4881889763779528
          },
          {
            "duration": 0.13636349999999808,
            "durationTicks": 96,
            "midi": 88,
            "name": "E6",
            "ticks": 21888,
            "time": 31.090878,
            "velocity": 0.4881889763779528
          },
          {
            "duration": 0.13636349999999808,
            "durationTicks": 96,
            "midi": 88,
            "name": "E6",
            "ticks": 21888,
            "time": 31.090878,
            "velocity": 0.4881889763779528
          },
          {
            "duration": 0.13636349999999808,
            "durationTicks": 96,
            "midi": 76,
            "name": "E5",
            "ticks": 21888,
            "time": 31.090878,
            "velocity": 0.4881889763779528
          },
          {
            "duration": 0.13636349999999808,
            "durationTicks": 96,
            "midi": 76,
            "name": "E5",
            "ticks": 21888,
            "time": 31.090878,
            "velocity": 0.4881889763779528
          },
          {
            "duration": 0.13636349999999808,
            "durationTicks": 96,
            "midi": 76,
            "name": "E5",
            "ticks": 21888,
            "time": 31.090878,
            "velocity": 0.4881889763779528
          },
          {
            "duration": 0.13636349999999808,
            "durationTicks": 96,
            "midi": 88,
            "name": "E6",
            "ticks": 21888,
            "time": 31.090878,
            "velocity": 0.4881889763779528
          },
          {
            "duration": 0.13636349999999808,
            "durationTicks": 96,
            "midi": 76,
            "name": "E5",
            "ticks": 21888,
            "time": 31.090878,
            "velocity": 0.4881889763779528
          },
          {
            "duration": 0.13636350000000164,
            "durationTicks": 96,
            "midi": 76,
            "name": "E5",
            "ticks": 21984,
            "time": 31.227241499999998,
            "velocity": 0.4881889763779528
          },
          {
            "duration": 0.13636350000000164,
            "durationTicks": 96,
            "midi": 88,
            "name": "E6",
            "ticks": 21984,
            "time": 31.227241499999998,
            "velocity": 0.4881889763779528
          },
          {
            "duration": 0.13636350000000164,
            "durationTicks": 96,
            "midi": 88,
            "name": "E6",
            "ticks": 21984,
            "time": 31.227241499999998,
            "velocity": 0.4881889763779528
          },
          {
            "duration": 0.13636350000000164,
            "durationTicks": 96,
            "midi": 76,
            "name": "E5",
            "ticks": 21984,
            "time": 31.227241499999998,
            "velocity": 0.4881889763779528
          },
          {
            "duration": 0.13636350000000164,
            "durationTicks": 96,
            "midi": 88,
            "name": "E6",
            "ticks": 21984,
            "time": 31.227241499999998,
            "velocity": 0.4881889763779528
          },
          {
            "duration": 0.13636350000000164,
            "durationTicks": 96,
            "midi": 76,
            "name": "E5",
            "ticks": 21984,
            "time": 31.227241499999998,
            "velocity": 0.4881889763779528
          },
          {
            "duration": 0.13636350000000164,
            "durationTicks": 96,
            "midi": 88,
            "name": "E6",
            "ticks": 21984,
            "time": 31.227241499999998,
            "velocity": 0.4881889763779528
          },
          {
            "duration": 0.13636350000000164,
            "durationTicks": 96,
            "midi": 88,
            "name": "E6",
            "ticks": 21984,
            "time": 31.227241499999998,
            "velocity": 0.4881889763779528
          },
          {
            "duration": 0.13636350000000164,
            "durationTicks": 96,
            "midi": 76,
            "name": "E5",
            "ticks": 21984,
            "time": 31.227241499999998,
            "velocity": 0.4881889763779528
          },
          {
            "duration": 0.13636350000000164,
            "durationTicks": 96,
            "midi": 76,
            "name": "E5",
            "ticks": 21984,
            "time": 31.227241499999998,
            "velocity": 0.4881889763779528
          },
          {
            "duration": 0.13636350000000164,
            "durationTicks": 96,
            "midi": 88,
            "name": "E6",
            "ticks": 21984,
            "time": 31.227241499999998,
            "velocity": 0.4881889763779528
          },
          {
            "duration": 0.13636350000000164,
            "durationTicks": 96,
            "midi": 76,
            "name": "E5",
            "ticks": 21984,
            "time": 31.227241499999998,
            "velocity": 0.4881889763779528
          },
          {
            "duration": 0.13636350000000164,
            "durationTicks": 96,
            "midi": 85,
            "name": "C#6",
            "ticks": 22080,
            "time": 31.363605,
            "velocity": 0.4881889763779528
          },
          {
            "duration": 0.13636350000000164,
            "durationTicks": 96,
            "midi": 73,
            "name": "C#5",
            "ticks": 22080,
            "time": 31.363605,
            "velocity": 0.4881889763779528
          },
          {
            "duration": 0.13636350000000164,
            "durationTicks": 96,
            "midi": 73,
            "name": "C#5",
            "ticks": 22080,
            "time": 31.363605,
            "velocity": 0.4881889763779528
          },
          {
            "duration": 0.13636350000000164,
            "durationTicks": 96,
            "midi": 73,
            "name": "C#5",
            "ticks": 22080,
            "time": 31.363605,
            "velocity": 0.4881889763779528
          },
          {
            "duration": 0.13636350000000164,
            "durationTicks": 96,
            "midi": 73,
            "name": "C#5",
            "ticks": 22080,
            "time": 31.363605,
            "velocity": 0.4881889763779528
          },
          {
            "duration": 0.13636350000000164,
            "durationTicks": 96,
            "midi": 85,
            "name": "C#6",
            "ticks": 22080,
            "time": 31.363605,
            "velocity": 0.4881889763779528
          },
          {
            "duration": 0.13636350000000164,
            "durationTicks": 96,
            "midi": 85,
            "name": "C#6",
            "ticks": 22080,
            "time": 31.363605,
            "velocity": 0.4881889763779528
          },
          {
            "duration": 0.13636350000000164,
            "durationTicks": 96,
            "midi": 85,
            "name": "C#6",
            "ticks": 22080,
            "time": 31.363605,
            "velocity": 0.4881889763779528
          },
          {
            "duration": 0.13636350000000164,
            "durationTicks": 96,
            "midi": 85,
            "name": "C#6",
            "ticks": 22080,
            "time": 31.363605,
            "velocity": 0.4881889763779528
          },
          {
            "duration": 0.13636350000000164,
            "durationTicks": 96,
            "midi": 85,
            "name": "C#6",
            "ticks": 22080,
            "time": 31.363605,
            "velocity": 0.4881889763779528
          },
          {
            "duration": 0.13636350000000164,
            "durationTicks": 96,
            "midi": 73,
            "name": "C#5",
            "ticks": 22080,
            "time": 31.363605,
            "velocity": 0.4881889763779528
          },
          {
            "duration": 0.13636350000000164,
            "durationTicks": 96,
            "midi": 73,
            "name": "C#5",
            "ticks": 22080,
            "time": 31.363605,
            "velocity": 0.4881889763779528
          },
          {
            "duration": 0.13636349999999808,
            "durationTicks": 96,
            "midi": 73,
            "name": "C#5",
            "ticks": 22176,
            "time": 31.4999685,
            "velocity": 0.4881889763779528
          },
          {
            "duration": 0.13636349999999808,
            "durationTicks": 96,
            "midi": 85,
            "name": "C#6",
            "ticks": 22176,
            "time": 31.4999685,
            "velocity": 0.4881889763779528
          },
          {
            "duration": 0.13636349999999808,
            "durationTicks": 96,
            "midi": 73,
            "name": "C#5",
            "ticks": 22176,
            "time": 31.4999685,
            "velocity": 0.4881889763779528
          },
          {
            "duration": 0.13636349999999808,
            "durationTicks": 96,
            "midi": 73,
            "name": "C#5",
            "ticks": 22176,
            "time": 31.4999685,
            "velocity": 0.4881889763779528
          },
          {
            "duration": 0.13636349999999808,
            "durationTicks": 96,
            "midi": 85,
            "name": "C#6",
            "ticks": 22176,
            "time": 31.4999685,
            "velocity": 0.4881889763779528
          },
          {
            "duration": 0.13636349999999808,
            "durationTicks": 96,
            "midi": 85,
            "name": "C#6",
            "ticks": 22176,
            "time": 31.4999685,
            "velocity": 0.4881889763779528
          },
          {
            "duration": 0.13636349999999808,
            "durationTicks": 96,
            "midi": 73,
            "name": "C#5",
            "ticks": 22176,
            "time": 31.4999685,
            "velocity": 0.4881889763779528
          },
          {
            "duration": 0.13636349999999808,
            "durationTicks": 96,
            "midi": 73,
            "name": "C#5",
            "ticks": 22176,
            "time": 31.4999685,
            "velocity": 0.4881889763779528
          },
          {
            "duration": 0.13636349999999808,
            "durationTicks": 96,
            "midi": 85,
            "name": "C#6",
            "ticks": 22176,
            "time": 31.4999685,
            "velocity": 0.4881889763779528
          },
          {
            "duration": 0.13636349999999808,
            "durationTicks": 96,
            "midi": 85,
            "name": "C#6",
            "ticks": 22176,
            "time": 31.4999685,
            "velocity": 0.4881889763779528
          },
          {
            "duration": 0.13636349999999808,
            "durationTicks": 96,
            "midi": 85,
            "name": "C#6",
            "ticks": 22176,
            "time": 31.4999685,
            "velocity": 0.4881889763779528
          },
          {
            "duration": 0.13636349999999808,
            "durationTicks": 96,
            "midi": 73,
            "name": "C#5",
            "ticks": 22176,
            "time": 31.4999685,
            "velocity": 0.4881889763779528
          },
          {
            "duration": 0.40909050000000136,
            "durationTicks": 288,
            "midi": 68,
            "name": "G#4",
            "ticks": 22272,
            "time": 31.636332,
            "velocity": 0.4881889763779528
          },
          {
            "duration": 0.40909050000000136,
            "durationTicks": 288,
            "midi": 56,
            "name": "G#3",
            "ticks": 22272,
            "time": 31.636332,
            "velocity": 0.4881889763779528
          },
          {
            "duration": 0.40909050000000136,
            "durationTicks": 288,
            "midi": 68,
            "name": "G#4",
            "ticks": 22272,
            "time": 31.636332,
            "velocity": 0.4881889763779528
          },
          {
            "duration": 0.40909050000000136,
            "durationTicks": 288,
            "midi": 68,
            "name": "G#4",
            "ticks": 22272,
            "time": 31.636332,
            "velocity": 0.4881889763779528
          },
          {
            "duration": 0.40909050000000136,
            "durationTicks": 288,
            "midi": 56,
            "name": "G#3",
            "ticks": 22272,
            "time": 31.636332,
            "velocity": 0.4881889763779528
          },
          {
            "duration": 0.40909050000000136,
            "durationTicks": 288,
            "midi": 61,
            "name": "C#4",
            "ticks": 22272,
            "time": 31.636332,
            "velocity": 0.4881889763779528
          },
          {
            "duration": 0.40909050000000136,
            "durationTicks": 288,
            "midi": 61,
            "name": "C#4",
            "ticks": 22272,
            "time": 31.636332,
            "velocity": 0.4881889763779528
          },
          {
            "duration": 0.40909050000000136,
            "durationTicks": 288,
            "midi": 56,
            "name": "G#3",
            "ticks": 22272,
            "time": 31.636332,
            "velocity": 0.4881889763779528
          },
          {
            "duration": 0.40909050000000136,
            "durationTicks": 288,
            "midi": 56,
            "name": "G#3",
            "ticks": 22272,
            "time": 31.636332,
            "velocity": 0.4881889763779528
          },
          {
            "duration": 0.40909050000000136,
            "durationTicks": 288,
            "midi": 56,
            "name": "G#3",
            "ticks": 22272,
            "time": 31.636332,
            "velocity": 0.4881889763779528
          },
          {
            "duration": 0.40909050000000136,
            "durationTicks": 288,
            "midi": 61,
            "name": "C#4",
            "ticks": 22272,
            "time": 31.636332,
            "velocity": 0.4881889763779528
          },
          {
            "duration": 0.40909050000000136,
            "durationTicks": 288,
            "midi": 56,
            "name": "G#3",
            "ticks": 22272,
            "time": 31.636332,
            "velocity": 0.4881889763779528
          },
          {
            "duration": 0.40909050000000136,
            "durationTicks": 288,
            "midi": 68,
            "name": "G#4",
            "ticks": 22272,
            "time": 31.636332,
            "velocity": 0.4881889763779528
          },
          {
            "duration": 0.40909050000000136,
            "durationTicks": 288,
            "midi": 68,
            "name": "G#4",
            "ticks": 22272,
            "time": 31.636332,
            "velocity": 0.4881889763779528
          },
          {
            "duration": 0.40909050000000136,
            "durationTicks": 288,
            "midi": 61,
            "name": "C#4",
            "ticks": 22272,
            "time": 31.636332,
            "velocity": 0.4881889763779528
          },
          {
            "duration": 0.40909050000000136,
            "durationTicks": 288,
            "midi": 61,
            "name": "C#4",
            "ticks": 22272,
            "time": 31.636332,
            "velocity": 0.4881889763779528
          },
          {
            "duration": 0.40909050000000136,
            "durationTicks": 288,
            "midi": 68,
            "name": "G#4",
            "ticks": 22272,
            "time": 31.636332,
            "velocity": 0.4881889763779528
          },
          {
            "duration": 0.40909050000000136,
            "durationTicks": 288,
            "midi": 61,
            "name": "C#4",
            "ticks": 22272,
            "time": 31.636332,
            "velocity": 0.4881889763779528
          },
          {
            "duration": 0.13636350000000164,
            "durationTicks": 96,
            "midi": 76,
            "name": "E5",
            "ticks": 22464,
            "time": 31.909059,
            "velocity": 0.4881889763779528
          },
          {
            "duration": 0.13636350000000164,
            "durationTicks": 96,
            "midi": 76,
            "name": "E5",
            "ticks": 22464,
            "time": 31.909059,
            "velocity": 0.4881889763779528
          },
          {
            "duration": 0.13636350000000164,
            "durationTicks": 96,
            "midi": 88,
            "name": "E6",
            "ticks": 22464,
            "time": 31.909059,
            "velocity": 0.4881889763779528
          },
          {
            "duration": 0.13636350000000164,
            "durationTicks": 96,
            "midi": 76,
            "name": "E5",
            "ticks": 22464,
            "time": 31.909059,
            "velocity": 0.4881889763779528
          },
          {
            "duration": 0.13636350000000164,
            "durationTicks": 96,
            "midi": 88,
            "name": "E6",
            "ticks": 22464,
            "time": 31.909059,
            "velocity": 0.4881889763779528
          },
          {
            "duration": 0.13636350000000164,
            "durationTicks": 96,
            "midi": 76,
            "name": "E5",
            "ticks": 22464,
            "time": 31.909059,
            "velocity": 0.4881889763779528
          },
          {
            "duration": 0.13636350000000164,
            "durationTicks": 96,
            "midi": 76,
            "name": "E5",
            "ticks": 22464,
            "time": 31.909059,
            "velocity": 0.4881889763779528
          },
          {
            "duration": 0.13636350000000164,
            "durationTicks": 96,
            "midi": 88,
            "name": "E6",
            "ticks": 22464,
            "time": 31.909059,
            "velocity": 0.4881889763779528
          },
          {
            "duration": 0.13636350000000164,
            "durationTicks": 96,
            "midi": 88,
            "name": "E6",
            "ticks": 22464,
            "time": 31.909059,
            "velocity": 0.4881889763779528
          },
          {
            "duration": 0.13636350000000164,
            "durationTicks": 96,
            "midi": 88,
            "name": "E6",
            "ticks": 22464,
            "time": 31.909059,
            "velocity": 0.4881889763779528
          },
          {
            "duration": 0.13636350000000164,
            "durationTicks": 96,
            "midi": 76,
            "name": "E5",
            "ticks": 22464,
            "time": 31.909059,
            "velocity": 0.4881889763779528
          },
          {
            "duration": 0.13636350000000164,
            "durationTicks": 96,
            "midi": 88,
            "name": "E6",
            "ticks": 22464,
            "time": 31.909059,
            "velocity": 0.4881889763779528
          },
          {
            "duration": 0.6818175000000011,
            "durationTicks": 480,
            "midi": 56,
            "name": "G#3",
            "ticks": 22560,
            "time": 32.0454225,
            "velocity": 0.4881889763779528
          },
          {
            "duration": 0.13636350000000164,
            "durationTicks": 96,
            "midi": 76,
            "name": "E5",
            "ticks": 22560,
            "time": 32.0454225,
            "velocity": 0.4881889763779528
          },
          {
            "duration": 0.13636350000000164,
            "durationTicks": 96,
            "midi": 76,
            "name": "E5",
            "ticks": 22560,
            "time": 32.0454225,
            "velocity": 0.4881889763779528
          },
          {
            "duration": 0.6818175000000011,
            "durationTicks": 480,
            "midi": 61,
            "name": "C#4",
            "ticks": 22560,
            "time": 32.0454225,
            "velocity": 0.4881889763779528
          },
          {
            "duration": 0.6818175000000011,
            "durationTicks": 480,
            "midi": 56,
            "name": "G#3",
            "ticks": 22560,
            "time": 32.0454225,
            "velocity": 0.4881889763779528
          },
          {
            "duration": 0.6818175000000011,
            "durationTicks": 480,
            "midi": 61,
            "name": "C#4",
            "ticks": 22560,
            "time": 32.0454225,
            "velocity": 0.4881889763779528
          },
          {
            "duration": 0.6818175000000011,
            "durationTicks": 480,
            "midi": 56,
            "name": "G#3",
            "ticks": 22560,
            "time": 32.0454225,
            "velocity": 0.4881889763779528
          },
          {
            "duration": 0.6818175000000011,
            "durationTicks": 480,
            "midi": 68,
            "name": "G#4",
            "ticks": 22560,
            "time": 32.0454225,
            "velocity": 0.4881889763779528
          },
          {
            "duration": 0.13636350000000164,
            "durationTicks": 96,
            "midi": 88,
            "name": "E6",
            "ticks": 22560,
            "time": 32.0454225,
            "velocity": 0.4881889763779528
          },
          {
            "duration": 0.6818175000000011,
            "durationTicks": 480,
            "midi": 56,
            "name": "G#3",
            "ticks": 22560,
            "time": 32.0454225,
            "velocity": 0.4881889763779528
          },
          {
            "duration": 0.6818175000000011,
            "durationTicks": 480,
            "midi": 68,
            "name": "G#4",
            "ticks": 22560,
            "time": 32.0454225,
            "velocity": 0.4881889763779528
          },
          {
            "duration": 0.6818175000000011,
            "durationTicks": 480,
            "midi": 56,
            "name": "G#3",
            "ticks": 22560,
            "time": 32.0454225,
            "velocity": 0.4881889763779528
          },
          {
            "duration": 0.13636350000000164,
            "durationTicks": 96,
            "midi": 76,
            "name": "E5",
            "ticks": 22560,
            "time": 32.0454225,
            "velocity": 0.4881889763779528
          },
          {
            "duration": 0.13636350000000164,
            "durationTicks": 96,
            "midi": 88,
            "name": "E6",
            "ticks": 22560,
            "time": 32.0454225,
            "velocity": 0.4881889763779528
          },
          {
            "duration": 0.6818175000000011,
            "durationTicks": 480,
            "midi": 68,
            "name": "G#4",
            "ticks": 22560,
            "time": 32.0454225,
            "velocity": 0.4881889763779528
          },
          {
            "duration": 0.6818175000000011,
            "durationTicks": 480,
            "midi": 61,
            "name": "C#4",
            "ticks": 22560,
            "time": 32.0454225,
            "velocity": 0.4881889763779528
          },
          {
            "duration": 0.6818175000000011,
            "durationTicks": 480,
            "midi": 61,
            "name": "C#4",
            "ticks": 22560,
            "time": 32.0454225,
            "velocity": 0.4881889763779528
          },
          {
            "duration": 0.6818175000000011,
            "durationTicks": 480,
            "midi": 68,
            "name": "G#4",
            "ticks": 22560,
            "time": 32.0454225,
            "velocity": 0.4881889763779528
          },
          {
            "duration": 0.13636350000000164,
            "durationTicks": 96,
            "midi": 76,
            "name": "E5",
            "ticks": 22560,
            "time": 32.0454225,
            "velocity": 0.4881889763779528
          },
          {
            "duration": 0.13636350000000164,
            "durationTicks": 96,
            "midi": 76,
            "name": "E5",
            "ticks": 22560,
            "time": 32.0454225,
            "velocity": 0.4881889763779528
          },
          {
            "duration": 0.6818175000000011,
            "durationTicks": 480,
            "midi": 68,
            "name": "G#4",
            "ticks": 22560,
            "time": 32.0454225,
            "velocity": 0.4881889763779528
          },
          {
            "duration": 0.13636350000000164,
            "durationTicks": 96,
            "midi": 88,
            "name": "E6",
            "ticks": 22560,
            "time": 32.0454225,
            "velocity": 0.4881889763779528
          },
          {
            "duration": 0.13636350000000164,
            "durationTicks": 96,
            "midi": 88,
            "name": "E6",
            "ticks": 22560,
            "time": 32.0454225,
            "velocity": 0.4881889763779528
          },
          {
            "duration": 0.13636350000000164,
            "durationTicks": 96,
            "midi": 76,
            "name": "E5",
            "ticks": 22560,
            "time": 32.0454225,
            "velocity": 0.4881889763779528
          },
          {
            "duration": 0.13636350000000164,
            "durationTicks": 96,
            "midi": 88,
            "name": "E6",
            "ticks": 22560,
            "time": 32.0454225,
            "velocity": 0.4881889763779528
          },
          {
            "duration": 0.6818175000000011,
            "durationTicks": 480,
            "midi": 61,
            "name": "C#4",
            "ticks": 22560,
            "time": 32.0454225,
            "velocity": 0.4881889763779528
          },
          {
            "duration": 0.6818175000000011,
            "durationTicks": 480,
            "midi": 68,
            "name": "G#4",
            "ticks": 22560,
            "time": 32.0454225,
            "velocity": 0.4881889763779528
          },
          {
            "duration": 0.6818175000000011,
            "durationTicks": 480,
            "midi": 56,
            "name": "G#3",
            "ticks": 22560,
            "time": 32.0454225,
            "velocity": 0.4881889763779528
          },
          {
            "duration": 0.6818175000000011,
            "durationTicks": 480,
            "midi": 61,
            "name": "C#4",
            "ticks": 22560,
            "time": 32.0454225,
            "velocity": 0.4881889763779528
          },
          {
            "duration": 0.13636350000000164,
            "durationTicks": 96,
            "midi": 88,
            "name": "E6",
            "ticks": 22560,
            "time": 32.0454225,
            "velocity": 0.4881889763779528
          },
          {
            "duration": 0.13636349999999453,
            "durationTicks": 96,
            "midi": 76,
            "name": "E5",
            "ticks": 22656,
            "time": 32.181786,
            "velocity": 0.4881889763779528
          },
          {
            "duration": 0.13636349999999453,
            "durationTicks": 96,
            "midi": 88,
            "name": "E6",
            "ticks": 22656,
            "time": 32.181786,
            "velocity": 0.4881889763779528
          },
          {
            "duration": 0.13636349999999453,
            "durationTicks": 96,
            "midi": 76,
            "name": "E5",
            "ticks": 22656,
            "time": 32.181786,
            "velocity": 0.4881889763779528
          },
          {
            "duration": 0.13636349999999453,
            "durationTicks": 96,
            "midi": 76,
            "name": "E5",
            "ticks": 22656,
            "time": 32.181786,
            "velocity": 0.4881889763779528
          },
          {
            "duration": 0.13636349999999453,
            "durationTicks": 96,
            "midi": 88,
            "name": "E6",
            "ticks": 22656,
            "time": 32.181786,
            "velocity": 0.4881889763779528
          },
          {
            "duration": 0.13636349999999453,
            "durationTicks": 96,
            "midi": 76,
            "name": "E5",
            "ticks": 22656,
            "time": 32.181786,
            "velocity": 0.4881889763779528
          },
          {
            "duration": 0.13636349999999453,
            "durationTicks": 96,
            "midi": 76,
            "name": "E5",
            "ticks": 22656,
            "time": 32.181786,
            "velocity": 0.4881889763779528
          },
          {
            "duration": 0.13636349999999453,
            "durationTicks": 96,
            "midi": 88,
            "name": "E6",
            "ticks": 22656,
            "time": 32.181786,
            "velocity": 0.4881889763779528
          },
          {
            "duration": 0.13636349999999453,
            "durationTicks": 96,
            "midi": 88,
            "name": "E6",
            "ticks": 22656,
            "time": 32.181786,
            "velocity": 0.4881889763779528
          },
          {
            "duration": 0.13636349999999453,
            "durationTicks": 96,
            "midi": 88,
            "name": "E6",
            "ticks": 22656,
            "time": 32.181786,
            "velocity": 0.4881889763779528
          },
          {
            "duration": 0.13636349999999453,
            "durationTicks": 96,
            "midi": 88,
            "name": "E6",
            "ticks": 22656,
            "time": 32.181786,
            "velocity": 0.4881889763779528
          },
          {
            "duration": 0.13636349999999453,
            "durationTicks": 96,
            "midi": 76,
            "name": "E5",
            "ticks": 22656,
            "time": 32.181786,
            "velocity": 0.4881889763779528
          },
          {
            "duration": 0.13636350000000164,
            "durationTicks": 96,
            "midi": 76,
            "name": "E5",
            "ticks": 22752,
            "time": 32.3181495,
            "velocity": 0.4881889763779528
          },
          {
            "duration": 0.13636350000000164,
            "durationTicks": 96,
            "midi": 76,
            "name": "E5",
            "ticks": 22752,
            "time": 32.3181495,
            "velocity": 0.4881889763779528
          },
          {
            "duration": 0.13636350000000164,
            "durationTicks": 96,
            "midi": 88,
            "name": "E6",
            "ticks": 22752,
            "time": 32.3181495,
            "velocity": 0.4881889763779528
          },
          {
            "duration": 0.13636350000000164,
            "durationTicks": 96,
            "midi": 76,
            "name": "E5",
            "ticks": 22752,
            "time": 32.3181495,
            "velocity": 0.4881889763779528
          },
          {
            "duration": 0.13636350000000164,
            "durationTicks": 96,
            "midi": 76,
            "name": "E5",
            "ticks": 22752,
            "time": 32.3181495,
            "velocity": 0.4881889763779528
          },
          {
            "duration": 0.13636350000000164,
            "durationTicks": 96,
            "midi": 88,
            "name": "E6",
            "ticks": 22752,
            "time": 32.3181495,
            "velocity": 0.4881889763779528
          },
          {
            "duration": 0.13636350000000164,
            "durationTicks": 96,
            "midi": 88,
            "name": "E6",
            "ticks": 22752,
            "time": 32.3181495,
            "velocity": 0.4881889763779528
          },
          {
            "duration": 0.13636350000000164,
            "durationTicks": 96,
            "midi": 88,
            "name": "E6",
            "ticks": 22752,
            "time": 32.3181495,
            "velocity": 0.4881889763779528
          },
          {
            "duration": 0.13636350000000164,
            "durationTicks": 96,
            "midi": 88,
            "name": "E6",
            "ticks": 22752,
            "time": 32.3181495,
            "velocity": 0.4881889763779528
          },
          {
            "duration": 0.13636350000000164,
            "durationTicks": 96,
            "midi": 76,
            "name": "E5",
            "ticks": 22752,
            "time": 32.3181495,
            "velocity": 0.4881889763779528
          },
          {
            "duration": 0.13636350000000164,
            "durationTicks": 96,
            "midi": 76,
            "name": "E5",
            "ticks": 22752,
            "time": 32.3181495,
            "velocity": 0.4881889763779528
          },
          {
            "duration": 0.13636350000000164,
            "durationTicks": 96,
            "midi": 88,
            "name": "E6",
            "ticks": 22752,
            "time": 32.3181495,
            "velocity": 0.4881889763779528
          },
          {
            "duration": 0.13636350000000164,
            "durationTicks": 96,
            "midi": 73,
            "name": "C#5",
            "ticks": 22848,
            "time": 32.454513,
            "velocity": 0.4881889763779528
          },
          {
            "duration": 0.13636350000000164,
            "durationTicks": 96,
            "midi": 85,
            "name": "C#6",
            "ticks": 22848,
            "time": 32.454513,
            "velocity": 0.4881889763779528
          },
          {
            "duration": 0.13636350000000164,
            "durationTicks": 96,
            "midi": 73,
            "name": "C#5",
            "ticks": 22848,
            "time": 32.454513,
            "velocity": 0.4881889763779528
          },
          {
            "duration": 0.13636350000000164,
            "durationTicks": 96,
            "midi": 73,
            "name": "C#5",
            "ticks": 22848,
            "time": 32.454513,
            "velocity": 0.4881889763779528
          },
          {
            "duration": 0.13636350000000164,
            "durationTicks": 96,
            "midi": 85,
            "name": "C#6",
            "ticks": 22848,
            "time": 32.454513,
            "velocity": 0.4881889763779528
          },
          {
            "duration": 0.13636350000000164,
            "durationTicks": 96,
            "midi": 73,
            "name": "C#5",
            "ticks": 22848,
            "time": 32.454513,
            "velocity": 0.4881889763779528
          },
          {
            "duration": 0.13636350000000164,
            "durationTicks": 96,
            "midi": 73,
            "name": "C#5",
            "ticks": 22848,
            "time": 32.454513,
            "velocity": 0.4881889763779528
          },
          {
            "duration": 0.13636350000000164,
            "durationTicks": 96,
            "midi": 85,
            "name": "C#6",
            "ticks": 22848,
            "time": 32.454513,
            "velocity": 0.4881889763779528
          },
          {
            "duration": 0.13636350000000164,
            "durationTicks": 96,
            "midi": 85,
            "name": "C#6",
            "ticks": 22848,
            "time": 32.454513,
            "velocity": 0.4881889763779528
          },
          {
            "duration": 0.13636350000000164,
            "durationTicks": 96,
            "midi": 85,
            "name": "C#6",
            "ticks": 22848,
            "time": 32.454513,
            "velocity": 0.4881889763779528
          },
          {
            "duration": 0.13636350000000164,
            "durationTicks": 96,
            "midi": 85,
            "name": "C#6",
            "ticks": 22848,
            "time": 32.454513,
            "velocity": 0.4881889763779528
          },
          {
            "duration": 0.13636350000000164,
            "durationTicks": 96,
            "midi": 73,
            "name": "C#5",
            "ticks": 22848,
            "time": 32.454513,
            "velocity": 0.4881889763779528
          },
          {
            "duration": 0.13636350000000164,
            "durationTicks": 96,
            "midi": 73,
            "name": "C#5",
            "ticks": 22944,
            "time": 32.5908765,
            "velocity": 0.4881889763779528
          },
          {
            "duration": 0.13636350000000164,
            "durationTicks": 96,
            "midi": 85,
            "name": "C#6",
            "ticks": 22944,
            "time": 32.5908765,
            "velocity": 0.4881889763779528
          },
          {
            "duration": 0.13636350000000164,
            "durationTicks": 96,
            "midi": 85,
            "name": "C#6",
            "ticks": 22944,
            "time": 32.5908765,
            "velocity": 0.4881889763779528
          },
          {
            "duration": 0.13636350000000164,
            "durationTicks": 96,
            "midi": 85,
            "name": "C#6",
            "ticks": 22944,
            "time": 32.5908765,
            "velocity": 0.4881889763779528
          },
          {
            "duration": 0.13636350000000164,
            "durationTicks": 96,
            "midi": 73,
            "name": "C#5",
            "ticks": 22944,
            "time": 32.5908765,
            "velocity": 0.4881889763779528
          },
          {
            "duration": 0.13636350000000164,
            "durationTicks": 96,
            "midi": 85,
            "name": "C#6",
            "ticks": 22944,
            "time": 32.5908765,
            "velocity": 0.4881889763779528
          },
          {
            "duration": 0.13636350000000164,
            "durationTicks": 96,
            "midi": 73,
            "name": "C#5",
            "ticks": 22944,
            "time": 32.5908765,
            "velocity": 0.4881889763779528
          },
          {
            "duration": 0.13636350000000164,
            "durationTicks": 96,
            "midi": 85,
            "name": "C#6",
            "ticks": 22944,
            "time": 32.5908765,
            "velocity": 0.4881889763779528
          },
          {
            "duration": 0.13636350000000164,
            "durationTicks": 96,
            "midi": 73,
            "name": "C#5",
            "ticks": 22944,
            "time": 32.5908765,
            "velocity": 0.4881889763779528
          },
          {
            "duration": 0.13636350000000164,
            "durationTicks": 96,
            "midi": 73,
            "name": "C#5",
            "ticks": 22944,
            "time": 32.5908765,
            "velocity": 0.4881889763779528
          },
          {
            "duration": 0.13636350000000164,
            "durationTicks": 96,
            "midi": 85,
            "name": "C#6",
            "ticks": 22944,
            "time": 32.5908765,
            "velocity": 0.4881889763779528
          },
          {
            "duration": 0.13636350000000164,
            "durationTicks": 96,
            "midi": 73,
            "name": "C#5",
            "ticks": 22944,
            "time": 32.5908765,
            "velocity": 0.4881889763779528
          },
          {
            "duration": 0.4090904999999978,
            "durationTicks": 288,
            "midi": 61,
            "name": "C#4",
            "ticks": 23040,
            "time": 32.72724,
            "velocity": 0.4881889763779528
          },
          {
            "duration": 0.4090904999999978,
            "durationTicks": 288,
            "midi": 68,
            "name": "G#4",
            "ticks": 23040,
            "time": 32.72724,
            "velocity": 0.4881889763779528
          },
          {
            "duration": 0.4090904999999978,
            "durationTicks": 288,
            "midi": 56,
            "name": "G#3",
            "ticks": 23040,
            "time": 32.72724,
            "velocity": 0.4881889763779528
          },
          {
            "duration": 0.4090904999999978,
            "durationTicks": 288,
            "midi": 56,
            "name": "G#3",
            "ticks": 23040,
            "time": 32.72724,
            "velocity": 0.4881889763779528
          },
          {
            "duration": 0.4090904999999978,
            "durationTicks": 288,
            "midi": 61,
            "name": "C#4",
            "ticks": 23040,
            "time": 32.72724,
            "velocity": 0.4881889763779528
          },
          {
            "duration": 0.4090904999999978,
            "durationTicks": 288,
            "midi": 56,
            "name": "G#3",
            "ticks": 23040,
            "time": 32.72724,
            "velocity": 0.4881889763779528
          },
          {
            "duration": 0.4090904999999978,
            "durationTicks": 288,
            "midi": 61,
            "name": "C#4",
            "ticks": 23040,
            "time": 32.72724,
            "velocity": 0.4881889763779528
          },
          {
            "duration": 0.4090904999999978,
            "durationTicks": 288,
            "midi": 61,
            "name": "C#4",
            "ticks": 23040,
            "time": 32.72724,
            "velocity": 0.4881889763779528
          },
          {
            "duration": 0.4090904999999978,
            "durationTicks": 288,
            "midi": 56,
            "name": "G#3",
            "ticks": 23040,
            "time": 32.72724,
            "velocity": 0.4881889763779528
          },
          {
            "duration": 0.4090904999999978,
            "durationTicks": 288,
            "midi": 61,
            "name": "C#4",
            "ticks": 23040,
            "time": 32.72724,
            "velocity": 0.4881889763779528
          },
          {
            "duration": 0.4090904999999978,
            "durationTicks": 288,
            "midi": 68,
            "name": "G#4",
            "ticks": 23040,
            "time": 32.72724,
            "velocity": 0.4881889763779528
          },
          {
            "duration": 0.4090904999999978,
            "durationTicks": 288,
            "midi": 68,
            "name": "G#4",
            "ticks": 23040,
            "time": 32.72724,
            "velocity": 0.4881889763779528
          },
          {
            "duration": 0.4090904999999978,
            "durationTicks": 288,
            "midi": 68,
            "name": "G#4",
            "ticks": 23040,
            "time": 32.72724,
            "velocity": 0.4881889763779528
          },
          {
            "duration": 0.4090904999999978,
            "durationTicks": 288,
            "midi": 56,
            "name": "G#3",
            "ticks": 23040,
            "time": 32.72724,
            "velocity": 0.4881889763779528
          },
          {
            "duration": 0.4090904999999978,
            "durationTicks": 288,
            "midi": 61,
            "name": "C#4",
            "ticks": 23040,
            "time": 32.72724,
            "velocity": 0.4881889763779528
          },
          {
            "duration": 0.4090904999999978,
            "durationTicks": 288,
            "midi": 56,
            "name": "G#3",
            "ticks": 23040,
            "time": 32.72724,
            "velocity": 0.4881889763779528
          },
          {
            "duration": 0.4090904999999978,
            "durationTicks": 288,
            "midi": 68,
            "name": "G#4",
            "ticks": 23040,
            "time": 32.72724,
            "velocity": 0.4881889763779528
          },
          {
            "duration": 0.4090904999999978,
            "durationTicks": 288,
            "midi": 68,
            "name": "G#4",
            "ticks": 23040,
            "time": 32.72724,
            "velocity": 0.4881889763779528
          },
          {
            "duration": 0.13636350000000164,
            "durationTicks": 96,
            "midi": 76,
            "name": "E5",
            "ticks": 23232,
            "time": 32.999967,
            "velocity": 0.4881889763779528
          },
          {
            "duration": 0.13636350000000164,
            "durationTicks": 96,
            "midi": 76,
            "name": "E5",
            "ticks": 23232,
            "time": 32.999967,
            "velocity": 0.4881889763779528
          },
          {
            "duration": 0.13636350000000164,
            "durationTicks": 96,
            "midi": 88,
            "name": "E6",
            "ticks": 23232,
            "time": 32.999967,
            "velocity": 0.4881889763779528
          },
          {
            "duration": 0.13636350000000164,
            "durationTicks": 96,
            "midi": 76,
            "name": "E5",
            "ticks": 23232,
            "time": 32.999967,
            "velocity": 0.4881889763779528
          },
          {
            "duration": 0.13636350000000164,
            "durationTicks": 96,
            "midi": 88,
            "name": "E6",
            "ticks": 23232,
            "time": 32.999967,
            "velocity": 0.4881889763779528
          },
          {
            "duration": 0.13636350000000164,
            "durationTicks": 96,
            "midi": 76,
            "name": "E5",
            "ticks": 23232,
            "time": 32.999967,
            "velocity": 0.4881889763779528
          },
          {
            "duration": 0.13636350000000164,
            "durationTicks": 96,
            "midi": 76,
            "name": "E5",
            "ticks": 23232,
            "time": 32.999967,
            "velocity": 0.4881889763779528
          },
          {
            "duration": 0.13636350000000164,
            "durationTicks": 96,
            "midi": 88,
            "name": "E6",
            "ticks": 23232,
            "time": 32.999967,
            "velocity": 0.4881889763779528
          },
          {
            "duration": 0.13636350000000164,
            "durationTicks": 96,
            "midi": 88,
            "name": "E6",
            "ticks": 23232,
            "time": 32.999967,
            "velocity": 0.4881889763779528
          },
          {
            "duration": 0.13636350000000164,
            "durationTicks": 96,
            "midi": 76,
            "name": "E5",
            "ticks": 23232,
            "time": 32.999967,
            "velocity": 0.4881889763779528
          },
          {
            "duration": 0.13636350000000164,
            "durationTicks": 96,
            "midi": 88,
            "name": "E6",
            "ticks": 23232,
            "time": 32.999967,
            "velocity": 0.4881889763779528
          },
          {
            "duration": 0.13636350000000164,
            "durationTicks": 96,
            "midi": 88,
            "name": "E6",
            "ticks": 23232,
            "time": 32.999967,
            "velocity": 0.4881889763779528
          },
          {
            "duration": 0.13636350000000164,
            "durationTicks": 96,
            "midi": 76,
            "name": "E5",
            "ticks": 23328,
            "time": 33.1363305,
            "velocity": 0.4881889763779528
          },
          {
            "duration": 0.6818175000000011,
            "durationTicks": 480,
            "midi": 68,
            "name": "G#4",
            "ticks": 23328,
            "time": 33.1363305,
            "velocity": 0.4881889763779528
          },
          {
            "duration": 0.6818175000000011,
            "durationTicks": 480,
            "midi": 61,
            "name": "C#4",
            "ticks": 23328,
            "time": 33.1363305,
            "velocity": 0.4881889763779528
          },
          {
            "duration": 0.6818175000000011,
            "durationTicks": 480,
            "midi": 61,
            "name": "C#4",
            "ticks": 23328,
            "time": 33.1363305,
            "velocity": 0.4881889763779528
          },
          {
            "duration": 0.6818175000000011,
            "durationTicks": 480,
            "midi": 68,
            "name": "G#4",
            "ticks": 23328,
            "time": 33.1363305,
            "velocity": 0.4881889763779528
          },
          {
            "duration": 0.13636350000000164,
            "durationTicks": 96,
            "midi": 88,
            "name": "E6",
            "ticks": 23328,
            "time": 33.1363305,
            "velocity": 0.4881889763779528
          },
          {
            "duration": 0.13636350000000164,
            "durationTicks": 96,
            "midi": 88,
            "name": "E6",
            "ticks": 23328,
            "time": 33.1363305,
            "velocity": 0.4881889763779528
          },
          {
            "duration": 0.6818175000000011,
            "durationTicks": 480,
            "midi": 68,
            "name": "G#4",
            "ticks": 23328,
            "time": 33.1363305,
            "velocity": 0.4881889763779528
          },
          {
            "duration": 0.13636350000000164,
            "durationTicks": 96,
            "midi": 88,
            "name": "E6",
            "ticks": 23328,
            "time": 33.1363305,
            "velocity": 0.4881889763779528
          },
          {
            "duration": 0.6818175000000011,
            "durationTicks": 480,
            "midi": 68,
            "name": "G#4",
            "ticks": 23328,
            "time": 33.1363305,
            "velocity": 0.4881889763779528
          },
          {
            "duration": 0.13636350000000164,
            "durationTicks": 96,
            "midi": 88,
            "name": "E6",
            "ticks": 23328,
            "time": 33.1363305,
            "velocity": 0.4881889763779528
          },
          {
            "duration": 0.6818175000000011,
            "durationTicks": 480,
            "midi": 56,
            "name": "G#3",
            "ticks": 23328,
            "time": 33.1363305,
            "velocity": 0.4881889763779528
          },
          {
            "duration": 0.13636350000000164,
            "durationTicks": 96,
            "midi": 76,
            "name": "E5",
            "ticks": 23328,
            "time": 33.1363305,
            "velocity": 0.4881889763779528
          },
          {
            "duration": 0.13636350000000164,
            "durationTicks": 96,
            "midi": 76,
            "name": "E5",
            "ticks": 23328,
            "time": 33.1363305,
            "velocity": 0.4881889763779528
          },
          {
            "duration": 0.13636350000000164,
            "durationTicks": 96,
            "midi": 76,
            "name": "E5",
            "ticks": 23328,
            "time": 33.1363305,
            "velocity": 0.4881889763779528
          },
          {
            "duration": 0.6818175000000011,
            "durationTicks": 480,
            "midi": 68,
            "name": "G#4",
            "ticks": 23328,
            "time": 33.1363305,
            "velocity": 0.4881889763779528
          },
          {
            "duration": 0.6818175000000011,
            "durationTicks": 480,
            "midi": 61,
            "name": "C#4",
            "ticks": 23328,
            "time": 33.1363305,
            "velocity": 0.4881889763779528
          },
          {
            "duration": 0.6818175000000011,
            "durationTicks": 480,
            "midi": 56,
            "name": "G#3",
            "ticks": 23328,
            "time": 33.1363305,
            "velocity": 0.4881889763779528
          },
          {
            "duration": 0.13636350000000164,
            "durationTicks": 96,
            "midi": 88,
            "name": "E6",
            "ticks": 23328,
            "time": 33.1363305,
            "velocity": 0.4881889763779528
          },
          {
            "duration": 0.6818175000000011,
            "durationTicks": 480,
            "midi": 61,
            "name": "C#4",
            "ticks": 23328,
            "time": 33.1363305,
            "velocity": 0.4881889763779528
          },
          {
            "duration": 0.6818175000000011,
            "durationTicks": 480,
            "midi": 56,
            "name": "G#3",
            "ticks": 23328,
            "time": 33.1363305,
            "velocity": 0.4881889763779528
          },
          {
            "duration": 0.6818175000000011,
            "durationTicks": 480,
            "midi": 61,
            "name": "C#4",
            "ticks": 23328,
            "time": 33.1363305,
            "velocity": 0.4881889763779528
          },
          {
            "duration": 0.6818175000000011,
            "durationTicks": 480,
            "midi": 68,
            "name": "G#4",
            "ticks": 23328,
            "time": 33.1363305,
            "velocity": 0.4881889763779528
          },
          {
            "duration": 0.6818175000000011,
            "durationTicks": 480,
            "midi": 56,
            "name": "G#3",
            "ticks": 23328,
            "time": 33.1363305,
            "velocity": 0.4881889763779528
          },
          {
            "duration": 0.6818175000000011,
            "durationTicks": 480,
            "midi": 61,
            "name": "C#4",
            "ticks": 23328,
            "time": 33.1363305,
            "velocity": 0.4881889763779528
          },
          {
            "duration": 0.13636350000000164,
            "durationTicks": 96,
            "midi": 76,
            "name": "E5",
            "ticks": 23328,
            "time": 33.1363305,
            "velocity": 0.4881889763779528
          },
          {
            "duration": 0.6818175000000011,
            "durationTicks": 480,
            "midi": 56,
            "name": "G#3",
            "ticks": 23328,
            "time": 33.1363305,
            "velocity": 0.4881889763779528
          },
          {
            "duration": 0.13636350000000164,
            "durationTicks": 96,
            "midi": 88,
            "name": "E6",
            "ticks": 23328,
            "time": 33.1363305,
            "velocity": 0.4881889763779528
          },
          {
            "duration": 0.13636350000000164,
            "durationTicks": 96,
            "midi": 76,
            "name": "E5",
            "ticks": 23328,
            "time": 33.1363305,
            "velocity": 0.4881889763779528
          },
          {
            "duration": 0.6818175000000011,
            "durationTicks": 480,
            "midi": 56,
            "name": "G#3",
            "ticks": 23328,
            "time": 33.1363305,
            "velocity": 0.4881889763779528
          },
          {
            "duration": 0.13636350000000164,
            "durationTicks": 96,
            "midi": 76,
            "name": "E5",
            "ticks": 23424,
            "time": 33.272694,
            "velocity": 0.4881889763779528
          },
          {
            "duration": 0.13636350000000164,
            "durationTicks": 96,
            "midi": 88,
            "name": "E6",
            "ticks": 23424,
            "time": 33.272694,
            "velocity": 0.4881889763779528
          },
          {
            "duration": 0.13636350000000164,
            "durationTicks": 96,
            "midi": 76,
            "name": "E5",
            "ticks": 23424,
            "time": 33.272694,
            "velocity": 0.4881889763779528
          },
          {
            "duration": 0.13636350000000164,
            "durationTicks": 96,
            "midi": 88,
            "name": "E6",
            "ticks": 23424,
            "time": 33.272694,
            "velocity": 0.4881889763779528
          },
          {
            "duration": 0.13636350000000164,
            "durationTicks": 96,
            "midi": 88,
            "name": "E6",
            "ticks": 23424,
            "time": 33.272694,
            "velocity": 0.4881889763779528
          },
          {
            "duration": 0.13636350000000164,
            "durationTicks": 96,
            "midi": 76,
            "name": "E5",
            "ticks": 23424,
            "time": 33.272694,
            "velocity": 0.4881889763779528
          },
          {
            "duration": 0.13636350000000164,
            "durationTicks": 96,
            "midi": 76,
            "name": "E5",
            "ticks": 23424,
            "time": 33.272694,
            "velocity": 0.4881889763779528
          },
          {
            "duration": 0.13636350000000164,
            "durationTicks": 96,
            "midi": 76,
            "name": "E5",
            "ticks": 23424,
            "time": 33.272694,
            "velocity": 0.4881889763779528
          },
          {
            "duration": 0.13636350000000164,
            "durationTicks": 96,
            "midi": 76,
            "name": "E5",
            "ticks": 23424,
            "time": 33.272694,
            "velocity": 0.4881889763779528
          },
          {
            "duration": 0.13636350000000164,
            "durationTicks": 96,
            "midi": 88,
            "name": "E6",
            "ticks": 23424,
            "time": 33.272694,
            "velocity": 0.4881889763779528
          },
          {
            "duration": 0.13636350000000164,
            "durationTicks": 96,
            "midi": 88,
            "name": "E6",
            "ticks": 23424,
            "time": 33.272694,
            "velocity": 0.4881889763779528
          },
          {
            "duration": 0.13636350000000164,
            "durationTicks": 96,
            "midi": 88,
            "name": "E6",
            "ticks": 23424,
            "time": 33.272694,
            "velocity": 0.4881889763779528
          },
          {
            "duration": 0.13636349999999453,
            "durationTicks": 96,
            "midi": 73,
            "name": "C#5",
            "ticks": 23520,
            "time": 33.4090575,
            "velocity": 0.4881889763779528
          },
          {
            "duration": 0.13636349999999453,
            "durationTicks": 96,
            "midi": 85,
            "name": "C#6",
            "ticks": 23520,
            "time": 33.4090575,
            "velocity": 0.4881889763779528
          },
          {
            "duration": 0.13636349999999453,
            "durationTicks": 96,
            "midi": 85,
            "name": "C#6",
            "ticks": 23520,
            "time": 33.4090575,
            "velocity": 0.4881889763779528
          },
          {
            "duration": 0.13636349999999453,
            "durationTicks": 96,
            "midi": 85,
            "name": "C#6",
            "ticks": 23520,
            "time": 33.4090575,
            "velocity": 0.4881889763779528
          },
          {
            "duration": 0.13636349999999453,
            "durationTicks": 96,
            "midi": 73,
            "name": "C#5",
            "ticks": 23520,
            "time": 33.4090575,
            "velocity": 0.4881889763779528
          },
          {
            "duration": 0.13636349999999453,
            "durationTicks": 96,
            "midi": 73,
            "name": "C#5",
            "ticks": 23520,
            "time": 33.4090575,
            "velocity": 0.4881889763779528
          },
          {
            "duration": 0.13636349999999453,
            "durationTicks": 96,
            "midi": 73,
            "name": "C#5",
            "ticks": 23520,
            "time": 33.4090575,
            "velocity": 0.4881889763779528
          },
          {
            "duration": 0.13636349999999453,
            "durationTicks": 96,
            "midi": 85,
            "name": "C#6",
            "ticks": 23520,
            "time": 33.4090575,
            "velocity": 0.4881889763779528
          },
          {
            "duration": 0.13636349999999453,
            "durationTicks": 96,
            "midi": 85,
            "name": "C#6",
            "ticks": 23520,
            "time": 33.4090575,
            "velocity": 0.4881889763779528
          },
          {
            "duration": 0.13636349999999453,
            "durationTicks": 96,
            "midi": 73,
            "name": "C#5",
            "ticks": 23520,
            "time": 33.4090575,
            "velocity": 0.4881889763779528
          },
          {
            "duration": 0.13636349999999453,
            "durationTicks": 96,
            "midi": 73,
            "name": "C#5",
            "ticks": 23520,
            "time": 33.4090575,
            "velocity": 0.4881889763779528
          },
          {
            "duration": 0.13636349999999453,
            "durationTicks": 96,
            "midi": 85,
            "name": "C#6",
            "ticks": 23520,
            "time": 33.4090575,
            "velocity": 0.4881889763779528
          },
          {
            "duration": 0.13636350000000164,
            "durationTicks": 96,
            "midi": 76,
            "name": "E5",
            "ticks": 23616,
            "time": 33.545421,
            "velocity": 0.4881889763779528
          },
          {
            "duration": 0.13636350000000164,
            "durationTicks": 96,
            "midi": 76,
            "name": "E5",
            "ticks": 23616,
            "time": 33.545421,
            "velocity": 0.4881889763779528
          },
          {
            "duration": 0.13636350000000164,
            "durationTicks": 96,
            "midi": 76,
            "name": "E5",
            "ticks": 23616,
            "time": 33.545421,
            "velocity": 0.4881889763779528
          },
          {
            "duration": 0.13636350000000164,
            "durationTicks": 96,
            "midi": 76,
            "name": "E5",
            "ticks": 23616,
            "time": 33.545421,
            "velocity": 0.4881889763779528
          },
          {
            "duration": 0.13636350000000164,
            "durationTicks": 96,
            "midi": 88,
            "name": "E6",
            "ticks": 23616,
            "time": 33.545421,
            "velocity": 0.4881889763779528
          },
          {
            "duration": 0.13636350000000164,
            "durationTicks": 96,
            "midi": 88,
            "name": "E6",
            "ticks": 23616,
            "time": 33.545421,
            "velocity": 0.4881889763779528
          },
          {
            "duration": 0.13636350000000164,
            "durationTicks": 96,
            "midi": 88,
            "name": "E6",
            "ticks": 23616,
            "time": 33.545421,
            "velocity": 0.4881889763779528
          },
          {
            "duration": 0.13636350000000164,
            "durationTicks": 96,
            "midi": 88,
            "name": "E6",
            "ticks": 23616,
            "time": 33.545421,
            "velocity": 0.4881889763779528
          },
          {
            "duration": 0.13636350000000164,
            "durationTicks": 96,
            "midi": 76,
            "name": "E5",
            "ticks": 23616,
            "time": 33.545421,
            "velocity": 0.4881889763779528
          },
          {
            "duration": 0.13636350000000164,
            "durationTicks": 96,
            "midi": 88,
            "name": "E6",
            "ticks": 23616,
            "time": 33.545421,
            "velocity": 0.4881889763779528
          },
          {
            "duration": 0.13636350000000164,
            "durationTicks": 96,
            "midi": 76,
            "name": "E5",
            "ticks": 23616,
            "time": 33.545421,
            "velocity": 0.4881889763779528
          },
          {
            "duration": 0.13636350000000164,
            "durationTicks": 96,
            "midi": 88,
            "name": "E6",
            "ticks": 23616,
            "time": 33.545421,
            "velocity": 0.4881889763779528
          },
          {
            "duration": 0.13636350000000164,
            "durationTicks": 96,
            "midi": 90,
            "name": "F#6",
            "ticks": 23712,
            "time": 33.6817845,
            "velocity": 0.4881889763779528
          },
          {
            "duration": 0.13636350000000164,
            "durationTicks": 96,
            "midi": 78,
            "name": "F#5",
            "ticks": 23712,
            "time": 33.6817845,
            "velocity": 0.4881889763779528
          },
          {
            "duration": 0.13636350000000164,
            "durationTicks": 96,
            "midi": 78,
            "name": "F#5",
            "ticks": 23712,
            "time": 33.6817845,
            "velocity": 0.4881889763779528
          },
          {
            "duration": 0.13636350000000164,
            "durationTicks": 96,
            "midi": 78,
            "name": "F#5",
            "ticks": 23712,
            "time": 33.6817845,
            "velocity": 0.4881889763779528
          },
          {
            "duration": 0.13636350000000164,
            "durationTicks": 96,
            "midi": 90,
            "name": "F#6",
            "ticks": 23712,
            "time": 33.6817845,
            "velocity": 0.4881889763779528
          },
          {
            "duration": 0.13636350000000164,
            "durationTicks": 96,
            "midi": 90,
            "name": "F#6",
            "ticks": 23712,
            "time": 33.6817845,
            "velocity": 0.4881889763779528
          },
          {
            "duration": 0.13636350000000164,
            "durationTicks": 96,
            "midi": 78,
            "name": "F#5",
            "ticks": 23712,
            "time": 33.6817845,
            "velocity": 0.4881889763779528
          },
          {
            "duration": 0.13636350000000164,
            "durationTicks": 96,
            "midi": 90,
            "name": "F#6",
            "ticks": 23712,
            "time": 33.6817845,
            "velocity": 0.4881889763779528
          },
          {
            "duration": 0.13636350000000164,
            "durationTicks": 96,
            "midi": 90,
            "name": "F#6",
            "ticks": 23712,
            "time": 33.6817845,
            "velocity": 0.4881889763779528
          },
          {
            "duration": 0.13636350000000164,
            "durationTicks": 96,
            "midi": 78,
            "name": "F#5",
            "ticks": 23712,
            "time": 33.6817845,
            "velocity": 0.4881889763779528
          },
          {
            "duration": 0.13636350000000164,
            "durationTicks": 96,
            "midi": 90,
            "name": "F#6",
            "ticks": 23712,
            "time": 33.6817845,
            "velocity": 0.4881889763779528
          },
          {
            "duration": 0.13636350000000164,
            "durationTicks": 96,
            "midi": 78,
            "name": "F#5",
            "ticks": 23712,
            "time": 33.6817845,
            "velocity": 0.4881889763779528
          },
          {
            "duration": 0.4090904999999978,
            "durationTicks": 288,
            "midi": 68,
            "name": "G#4",
            "ticks": 23808,
            "time": 33.818148,
            "velocity": 0.4881889763779528
          },
          {
            "duration": 0.13636350000000164,
            "durationTicks": 96,
            "midi": 87,
            "name": "D#6",
            "ticks": 23808,
            "time": 33.818148,
            "velocity": 0.4881889763779528
          },
          {
            "duration": 0.4090904999999978,
            "durationTicks": 288,
            "midi": 68,
            "name": "G#4",
            "ticks": 23808,
            "time": 33.818148,
            "velocity": 0.4881889763779528
          },
          {
            "duration": 0.4090904999999978,
            "durationTicks": 288,
            "midi": 56,
            "name": "G#3",
            "ticks": 23808,
            "time": 33.818148,
            "velocity": 0.4881889763779528
          },
          {
            "duration": 0.4090904999999978,
            "durationTicks": 288,
            "midi": 56,
            "name": "G#3",
            "ticks": 23808,
            "time": 33.818148,
            "velocity": 0.4881889763779528
          },
          {
            "duration": 0.13636350000000164,
            "durationTicks": 96,
            "midi": 75,
            "name": "D#5",
            "ticks": 23808,
            "time": 33.818148,
            "velocity": 0.4881889763779528
          },
          {
            "duration": 0.4090904999999978,
            "durationTicks": 288,
            "midi": 56,
            "name": "G#3",
            "ticks": 23808,
            "time": 33.818148,
            "velocity": 0.4881889763779528
          },
          {
            "duration": 0.4090904999999978,
            "durationTicks": 288,
            "midi": 63,
            "name": "D#4",
            "ticks": 23808,
            "time": 33.818148,
            "velocity": 0.4881889763779528
          },
          {
            "duration": 0.13636350000000164,
            "durationTicks": 96,
            "midi": 87,
            "name": "D#6",
            "ticks": 23808,
            "time": 33.818148,
            "velocity": 0.4881889763779528
          },
          {
            "duration": 0.4090904999999978,
            "durationTicks": 288,
            "midi": 68,
            "name": "G#4",
            "ticks": 23808,
            "time": 33.818148,
            "velocity": 0.4881889763779528
          },
          {
            "duration": 0.4090904999999978,
            "durationTicks": 288,
            "midi": 68,
            "name": "G#4",
            "ticks": 23808,
            "time": 33.818148,
            "velocity": 0.4881889763779528
          },
          {
            "duration": 0.13636350000000164,
            "durationTicks": 96,
            "midi": 87,
            "name": "D#6",
            "ticks": 23808,
            "time": 33.818148,
            "velocity": 0.4881889763779528
          },
          {
            "duration": 0.4090904999999978,
            "durationTicks": 288,
            "midi": 63,
            "name": "D#4",
            "ticks": 23808,
            "time": 33.818148,
            "velocity": 0.4881889763779528
          },
          {
            "duration": 0.13636350000000164,
            "durationTicks": 96,
            "midi": 75,
            "name": "D#5",
            "ticks": 23808,
            "time": 33.818148,
            "velocity": 0.4881889763779528
          },
          {
            "duration": 0.4090904999999978,
            "durationTicks": 288,
            "midi": 56,
            "name": "G#3",
            "ticks": 23808,
            "time": 33.818148,
            "velocity": 0.4881889763779528
          },
          {
            "duration": 0.4090904999999978,
            "durationTicks": 288,
            "midi": 68,
            "name": "G#4",
            "ticks": 23808,
            "time": 33.818148,
            "velocity": 0.4881889763779528
          },
          {
            "duration": 0.4090904999999978,
            "durationTicks": 288,
            "midi": 63,
            "name": "D#4",
            "ticks": 23808,
            "time": 33.818148,
            "velocity": 0.4881889763779528
          },
          {
            "duration": 0.4090904999999978,
            "durationTicks": 288,
            "midi": 63,
            "name": "D#4",
            "ticks": 23808,
            "time": 33.818148,
            "velocity": 0.4881889763779528
          },
          {
            "duration": 0.13636350000000164,
            "durationTicks": 96,
            "midi": 75,
            "name": "D#5",
            "ticks": 23808,
            "time": 33.818148,
            "velocity": 0.4881889763779528
          },
          {
            "duration": 0.4090904999999978,
            "durationTicks": 288,
            "midi": 68,
            "name": "G#4",
            "ticks": 23808,
            "time": 33.818148,
            "velocity": 0.4881889763779528
          },
          {
            "duration": 0.13636350000000164,
            "durationTicks": 96,
            "midi": 87,
            "name": "D#6",
            "ticks": 23808,
            "time": 33.818148,
            "velocity": 0.4881889763779528
          },
          {
            "duration": 0.13636350000000164,
            "durationTicks": 96,
            "midi": 87,
            "name": "D#6",
            "ticks": 23808,
            "time": 33.818148,
            "velocity": 0.4881889763779528
          },
          {
            "duration": 0.13636350000000164,
            "durationTicks": 96,
            "midi": 75,
            "name": "D#5",
            "ticks": 23808,
            "time": 33.818148,
            "velocity": 0.4881889763779528
          },
          {
            "duration": 0.13636350000000164,
            "durationTicks": 96,
            "midi": 87,
            "name": "D#6",
            "ticks": 23808,
            "time": 33.818148,
            "velocity": 0.4881889763779528
          },
          {
            "duration": 0.4090904999999978,
            "durationTicks": 288,
            "midi": 63,
            "name": "D#4",
            "ticks": 23808,
            "time": 33.818148,
            "velocity": 0.4881889763779528
          },
          {
            "duration": 0.4090904999999978,
            "durationTicks": 288,
            "midi": 56,
            "name": "G#3",
            "ticks": 23808,
            "time": 33.818148,
            "velocity": 0.4881889763779528
          },
          {
            "duration": 0.4090904999999978,
            "durationTicks": 288,
            "midi": 56,
            "name": "G#3",
            "ticks": 23808,
            "time": 33.818148,
            "velocity": 0.4881889763779528
          },
          {
            "duration": 0.13636350000000164,
            "durationTicks": 96,
            "midi": 75,
            "name": "D#5",
            "ticks": 23808,
            "time": 33.818148,
            "velocity": 0.4881889763779528
          },
          {
            "duration": 0.13636350000000164,
            "durationTicks": 96,
            "midi": 75,
            "name": "D#5",
            "ticks": 23808,
            "time": 33.818148,
            "velocity": 0.4881889763779528
          },
          {
            "duration": 0.4090904999999978,
            "durationTicks": 288,
            "midi": 63,
            "name": "D#4",
            "ticks": 23808,
            "time": 33.818148,
            "velocity": 0.4881889763779528
          },
          {
            "duration": 0.13636350000000164,
            "durationTicks": 96,
            "midi": 73,
            "name": "C#5",
            "ticks": 24000,
            "time": 34.090875,
            "velocity": 0.4881889763779528
          },
          {
            "duration": 0.13636350000000164,
            "durationTicks": 96,
            "midi": 73,
            "name": "C#5",
            "ticks": 24000,
            "time": 34.090875,
            "velocity": 0.4881889763779528
          },
          {
            "duration": 0.13636350000000164,
            "durationTicks": 96,
            "midi": 85,
            "name": "C#6",
            "ticks": 24000,
            "time": 34.090875,
            "velocity": 0.4881889763779528
          },
          {
            "duration": 0.13636350000000164,
            "durationTicks": 96,
            "midi": 73,
            "name": "C#5",
            "ticks": 24000,
            "time": 34.090875,
            "velocity": 0.4881889763779528
          },
          {
            "duration": 0.13636350000000164,
            "durationTicks": 96,
            "midi": 85,
            "name": "C#6",
            "ticks": 24000,
            "time": 34.090875,
            "velocity": 0.4881889763779528
          },
          {
            "duration": 0.13636350000000164,
            "durationTicks": 96,
            "midi": 73,
            "name": "C#5",
            "ticks": 24000,
            "time": 34.090875,
            "velocity": 0.4881889763779528
          },
          {
            "duration": 0.13636350000000164,
            "durationTicks": 96,
            "midi": 85,
            "name": "C#6",
            "ticks": 24000,
            "time": 34.090875,
            "velocity": 0.4881889763779528
          },
          {
            "duration": 0.13636350000000164,
            "durationTicks": 96,
            "midi": 85,
            "name": "C#6",
            "ticks": 24000,
            "time": 34.090875,
            "velocity": 0.4881889763779528
          },
          {
            "duration": 0.13636350000000164,
            "durationTicks": 96,
            "midi": 73,
            "name": "C#5",
            "ticks": 24000,
            "time": 34.090875,
            "velocity": 0.4881889763779528
          },
          {
            "duration": 0.13636350000000164,
            "durationTicks": 96,
            "midi": 73,
            "name": "C#5",
            "ticks": 24000,
            "time": 34.090875,
            "velocity": 0.4881889763779528
          },
          {
            "duration": 0.13636350000000164,
            "durationTicks": 96,
            "midi": 85,
            "name": "C#6",
            "ticks": 24000,
            "time": 34.090875,
            "velocity": 0.4881889763779528
          },
          {
            "duration": 0.13636350000000164,
            "durationTicks": 96,
            "midi": 85,
            "name": "C#6",
            "ticks": 24000,
            "time": 34.090875,
            "velocity": 0.4881889763779528
          },
          {
            "duration": 0.4090904999999978,
            "durationTicks": 288,
            "midi": 56,
            "name": "G#3",
            "ticks": 24096,
            "time": 34.2272385,
            "velocity": 0.4881889763779528
          },
          {
            "duration": 0.4090904999999978,
            "durationTicks": 288,
            "midi": 68,
            "name": "G#4",
            "ticks": 24096,
            "time": 34.2272385,
            "velocity": 0.4881889763779528
          },
          {
            "duration": 0.4090904999999978,
            "durationTicks": 288,
            "midi": 56,
            "name": "G#3",
            "ticks": 24096,
            "time": 34.2272385,
            "velocity": 0.4881889763779528
          },
          {
            "duration": 0.4090904999999978,
            "durationTicks": 288,
            "midi": 63,
            "name": "D#4",
            "ticks": 24096,
            "time": 34.2272385,
            "velocity": 0.4881889763779528
          },
          {
            "duration": 0.4090904999999978,
            "durationTicks": 288,
            "midi": 68,
            "name": "G#4",
            "ticks": 24096,
            "time": 34.2272385,
            "velocity": 0.4881889763779528
          },
          {
            "duration": 0.4090904999999978,
            "durationTicks": 288,
            "midi": 63,
            "name": "D#4",
            "ticks": 24096,
            "time": 34.2272385,
            "velocity": 0.4881889763779528
          },
          {
            "duration": 0.4090904999999978,
            "durationTicks": 288,
            "midi": 68,
            "name": "G#4",
            "ticks": 24096,
            "time": 34.2272385,
            "velocity": 0.4881889763779528
          },
          {
            "duration": 0.4090904999999978,
            "durationTicks": 288,
            "midi": 68,
            "name": "G#4",
            "ticks": 24096,
            "time": 34.2272385,
            "velocity": 0.4881889763779528
          },
          {
            "duration": 0.4090904999999978,
            "durationTicks": 288,
            "midi": 63,
            "name": "D#4",
            "ticks": 24096,
            "time": 34.2272385,
            "velocity": 0.4881889763779528
          },
          {
            "duration": 0.4090904999999978,
            "durationTicks": 288,
            "midi": 56,
            "name": "G#3",
            "ticks": 24096,
            "time": 34.2272385,
            "velocity": 0.4881889763779528
          },
          {
            "duration": 0.4090904999999978,
            "durationTicks": 288,
            "midi": 68,
            "name": "G#4",
            "ticks": 24096,
            "time": 34.2272385,
            "velocity": 0.4881889763779528
          },
          {
            "duration": 0.4090904999999978,
            "durationTicks": 288,
            "midi": 68,
            "name": "G#4",
            "ticks": 24096,
            "time": 34.2272385,
            "velocity": 0.4881889763779528
          },
          {
            "duration": 0.4090904999999978,
            "durationTicks": 288,
            "midi": 56,
            "name": "G#3",
            "ticks": 24096,
            "time": 34.2272385,
            "velocity": 0.4881889763779528
          },
          {
            "duration": 0.4090904999999978,
            "durationTicks": 288,
            "midi": 56,
            "name": "G#3",
            "ticks": 24096,
            "time": 34.2272385,
            "velocity": 0.4881889763779528
          },
          {
            "duration": 0.4090904999999978,
            "durationTicks": 288,
            "midi": 56,
            "name": "G#3",
            "ticks": 24096,
            "time": 34.2272385,
            "velocity": 0.4881889763779528
          },
          {
            "duration": 0.4090904999999978,
            "durationTicks": 288,
            "midi": 63,
            "name": "D#4",
            "ticks": 24096,
            "time": 34.2272385,
            "velocity": 0.4881889763779528
          },
          {
            "duration": 0.4090904999999978,
            "durationTicks": 288,
            "midi": 63,
            "name": "D#4",
            "ticks": 24096,
            "time": 34.2272385,
            "velocity": 0.4881889763779528
          },
          {
            "duration": 0.4090904999999978,
            "durationTicks": 288,
            "midi": 63,
            "name": "D#4",
            "ticks": 24096,
            "time": 34.2272385,
            "velocity": 0.4881889763779528
          },
          {
            "duration": 0.13636350000000164,
            "durationTicks": 96,
            "midi": 88,
            "name": "E6",
            "ticks": 24192,
            "time": 34.363602,
            "velocity": 0.4881889763779528
          },
          {
            "duration": 0.13636350000000164,
            "durationTicks": 96,
            "midi": 76,
            "name": "E5",
            "ticks": 24192,
            "time": 34.363602,
            "velocity": 0.4881889763779528
          },
          {
            "duration": 0.13636350000000164,
            "durationTicks": 96,
            "midi": 88,
            "name": "E6",
            "ticks": 24192,
            "time": 34.363602,
            "velocity": 0.4881889763779528
          },
          {
            "duration": 0.13636350000000164,
            "durationTicks": 96,
            "midi": 76,
            "name": "E5",
            "ticks": 24192,
            "time": 34.363602,
            "velocity": 0.4881889763779528
          },
          {
            "duration": 0.13636350000000164,
            "durationTicks": 96,
            "midi": 88,
            "name": "E6",
            "ticks": 24192,
            "time": 34.363602,
            "velocity": 0.4881889763779528
          },
          {
            "duration": 0.13636350000000164,
            "durationTicks": 96,
            "midi": 88,
            "name": "E6",
            "ticks": 24192,
            "time": 34.363602,
            "velocity": 0.4881889763779528
          },
          {
            "duration": 0.13636350000000164,
            "durationTicks": 96,
            "midi": 76,
            "name": "E5",
            "ticks": 24192,
            "time": 34.363602,
            "velocity": 0.4881889763779528
          },
          {
            "duration": 0.13636350000000164,
            "durationTicks": 96,
            "midi": 76,
            "name": "E5",
            "ticks": 24192,
            "time": 34.363602,
            "velocity": 0.4881889763779528
          },
          {
            "duration": 0.13636350000000164,
            "durationTicks": 96,
            "midi": 76,
            "name": "E5",
            "ticks": 24192,
            "time": 34.363602,
            "velocity": 0.4881889763779528
          },
          {
            "duration": 0.13636350000000164,
            "durationTicks": 96,
            "midi": 76,
            "name": "E5",
            "ticks": 24192,
            "time": 34.363602,
            "velocity": 0.4881889763779528
          },
          {
            "duration": 0.13636350000000164,
            "durationTicks": 96,
            "midi": 88,
            "name": "E6",
            "ticks": 24192,
            "time": 34.363602,
            "velocity": 0.4881889763779528
          },
          {
            "duration": 0.13636350000000164,
            "durationTicks": 96,
            "midi": 88,
            "name": "E6",
            "ticks": 24192,
            "time": 34.363602,
            "velocity": 0.4881889763779528
          },
          {
            "duration": 0.4090904999999978,
            "durationTicks": 288,
            "midi": 75,
            "name": "D#5",
            "ticks": 24288,
            "time": 34.4999655,
            "velocity": 0.4881889763779528
          },
          {
            "duration": 0.4090904999999978,
            "durationTicks": 288,
            "midi": 87,
            "name": "D#6",
            "ticks": 24288,
            "time": 34.4999655,
            "velocity": 0.4881889763779528
          },
          {
            "duration": 0.4090904999999978,
            "durationTicks": 288,
            "midi": 87,
            "name": "D#6",
            "ticks": 24288,
            "time": 34.4999655,
            "velocity": 0.4881889763779528
          },
          {
            "duration": 0.4090904999999978,
            "durationTicks": 288,
            "midi": 87,
            "name": "D#6",
            "ticks": 24288,
            "time": 34.4999655,
            "velocity": 0.4881889763779528
          },
          {
            "duration": 0.4090904999999978,
            "durationTicks": 288,
            "midi": 87,
            "name": "D#6",
            "ticks": 24288,
            "time": 34.4999655,
            "velocity": 0.4881889763779528
          },
          {
            "duration": 0.4090904999999978,
            "durationTicks": 288,
            "midi": 75,
            "name": "D#5",
            "ticks": 24288,
            "time": 34.4999655,
            "velocity": 0.4881889763779528
          },
          {
            "duration": 0.4090904999999978,
            "durationTicks": 288,
            "midi": 75,
            "name": "D#5",
            "ticks": 24288,
            "time": 34.4999655,
            "velocity": 0.4881889763779528
          },
          {
            "duration": 0.4090904999999978,
            "durationTicks": 288,
            "midi": 75,
            "name": "D#5",
            "ticks": 24288,
            "time": 34.4999655,
            "velocity": 0.4881889763779528
          },
          {
            "duration": 0.4090904999999978,
            "durationTicks": 288,
            "midi": 87,
            "name": "D#6",
            "ticks": 24288,
            "time": 34.4999655,
            "velocity": 0.4881889763779528
          },
          {
            "duration": 0.4090904999999978,
            "durationTicks": 288,
            "midi": 75,
            "name": "D#5",
            "ticks": 24288,
            "time": 34.4999655,
            "velocity": 0.4881889763779528
          },
          {
            "duration": 0.4090904999999978,
            "durationTicks": 288,
            "midi": 87,
            "name": "D#6",
            "ticks": 24288,
            "time": 34.4999655,
            "velocity": 0.4881889763779528
          },
          {
            "duration": 0.4090904999999978,
            "durationTicks": 288,
            "midi": 75,
            "name": "D#5",
            "ticks": 24288,
            "time": 34.4999655,
            "velocity": 0.4881889763779528
          },
          {
            "duration": 0.2727270000000033,
            "durationTicks": 192,
            "midi": 44,
            "name": "G#2",
            "ticks": 24384,
            "time": 34.636328999999996,
            "velocity": 0.4881889763779528
          },
          {
            "duration": 0.2727270000000033,
            "durationTicks": 192,
            "midi": 44,
            "name": "G#2",
            "ticks": 24384,
            "time": 34.636328999999996,
            "velocity": 0.4881889763779528
          },
          {
            "duration": 0.2727270000000033,
            "durationTicks": 192,
            "midi": 44,
            "name": "G#2",
            "ticks": 24384,
            "time": 34.636328999999996,
            "velocity": 0.4881889763779528
          },
          {
            "duration": 0.2727270000000033,
            "durationTicks": 192,
            "midi": 56,
            "name": "G#3",
            "ticks": 24384,
            "time": 34.636328999999996,
            "velocity": 0.4881889763779528
          },
          {
            "duration": 0.2727270000000033,
            "durationTicks": 192,
            "midi": 56,
            "name": "G#3",
            "ticks": 24384,
            "time": 34.636328999999996,
            "velocity": 0.4881889763779528
          },
          {
            "duration": 0.2727270000000033,
            "durationTicks": 192,
            "midi": 44,
            "name": "G#2",
            "ticks": 24384,
            "time": 34.636328999999996,
            "velocity": 0.4881889763779528
          },
          {
            "duration": 0.2727270000000033,
            "durationTicks": 192,
            "midi": 56,
            "name": "G#3",
            "ticks": 24384,
            "time": 34.636328999999996,
            "velocity": 0.4881889763779528
          },
          {
            "duration": 0.2727270000000033,
            "durationTicks": 192,
            "midi": 56,
            "name": "G#3",
            "ticks": 24384,
            "time": 34.636328999999996,
            "velocity": 0.4881889763779528
          },
          {
            "duration": 0.2727270000000033,
            "durationTicks": 192,
            "midi": 56,
            "name": "G#3",
            "ticks": 24384,
            "time": 34.636328999999996,
            "velocity": 0.4881889763779528
          },
          {
            "duration": 0.2727270000000033,
            "durationTicks": 192,
            "midi": 44,
            "name": "G#2",
            "ticks": 24384,
            "time": 34.636328999999996,
            "velocity": 0.4881889763779528
          },
          {
            "duration": 0.2727270000000033,
            "durationTicks": 192,
            "midi": 44,
            "name": "G#2",
            "ticks": 24384,
            "time": 34.636328999999996,
            "velocity": 0.4881889763779528
          },
          {
            "duration": 0.2727270000000033,
            "durationTicks": 192,
            "midi": 56,
            "name": "G#3",
            "ticks": 24384,
            "time": 34.636328999999996,
            "velocity": 0.4881889763779528
          },
          {
            "duration": 0.4090904999999978,
            "durationTicks": 288,
            "midi": 68,
            "name": "G#4",
            "ticks": 24576,
            "time": 34.909056,
            "velocity": 0.4881889763779528
          },
          {
            "duration": 0.4090904999999978,
            "durationTicks": 288,
            "midi": 61,
            "name": "C#4",
            "ticks": 24576,
            "time": 34.909056,
            "velocity": 0.4881889763779528
          },
          {
            "duration": 0.4090904999999978,
            "durationTicks": 288,
            "midi": 68,
            "name": "G#4",
            "ticks": 24576,
            "time": 34.909056,
            "velocity": 0.4881889763779528
          },
          {
            "duration": 0.4090904999999978,
            "durationTicks": 288,
            "midi": 73,
            "name": "C#5",
            "ticks": 24576,
            "time": 34.909056,
            "velocity": 0.4881889763779528
          },
          {
            "duration": 0.4090904999999978,
            "durationTicks": 288,
            "midi": 73,
            "name": "C#5",
            "ticks": 24576,
            "time": 34.909056,
            "velocity": 0.4881889763779528
          },
          {
            "duration": 0.4090904999999978,
            "durationTicks": 288,
            "midi": 61,
            "name": "C#4",
            "ticks": 24576,
            "time": 34.909056,
            "velocity": 0.4881889763779528
          },
          {
            "duration": 0.4090904999999978,
            "durationTicks": 288,
            "midi": 68,
            "name": "G#4",
            "ticks": 24576,
            "time": 34.909056,
            "velocity": 0.4881889763779528
          },
          {
            "duration": 0.4090904999999978,
            "durationTicks": 288,
            "midi": 73,
            "name": "C#5",
            "ticks": 24576,
            "time": 34.909056,
            "velocity": 0.4881889763779528
          },
          {
            "duration": 0.4090904999999978,
            "durationTicks": 288,
            "midi": 61,
            "name": "C#4",
            "ticks": 24576,
            "time": 34.909056,
            "velocity": 0.4881889763779528
          },
          {
            "duration": 0.4090904999999978,
            "durationTicks": 288,
            "midi": 73,
            "name": "C#5",
            "ticks": 24576,
            "time": 34.909056,
            "velocity": 0.4881889763779528
          },
          {
            "duration": 0.4090904999999978,
            "durationTicks": 288,
            "midi": 61,
            "name": "C#4",
            "ticks": 24576,
            "time": 34.909056,
            "velocity": 0.4881889763779528
          },
          {
            "duration": 0.4090904999999978,
            "durationTicks": 288,
            "midi": 68,
            "name": "G#4",
            "ticks": 24576,
            "time": 34.909056,
            "velocity": 0.4881889763779528
          },
          {
            "duration": 0.4090904999999978,
            "durationTicks": 288,
            "midi": 61,
            "name": "C#4",
            "ticks": 24576,
            "time": 34.909056,
            "velocity": 0.4881889763779528
          },
          {
            "duration": 0.4090904999999978,
            "durationTicks": 288,
            "midi": 73,
            "name": "C#5",
            "ticks": 24576,
            "time": 34.909056,
            "velocity": 0.4881889763779528
          },
          {
            "duration": 0.4090904999999978,
            "durationTicks": 288,
            "midi": 68,
            "name": "G#4",
            "ticks": 24576,
            "time": 34.909056,
            "velocity": 0.4881889763779528
          },
          {
            "duration": 0.4090904999999978,
            "durationTicks": 288,
            "midi": 68,
            "name": "G#4",
            "ticks": 24576,
            "time": 34.909056,
            "velocity": 0.4881889763779528
          },
          {
            "duration": 0.4090904999999978,
            "durationTicks": 288,
            "midi": 73,
            "name": "C#5",
            "ticks": 24576,
            "time": 34.909056,
            "velocity": 0.4881889763779528
          },
          {
            "duration": 0.4090904999999978,
            "durationTicks": 288,
            "midi": 61,
            "name": "C#4",
            "ticks": 24576,
            "time": 34.909056,
            "velocity": 0.4881889763779528
          },
          {
            "duration": 0.27272699999999617,
            "durationTicks": 192,
            "midi": 92,
            "name": "G#6",
            "ticks": 24768,
            "time": 35.181783,
            "velocity": 0.4881889763779528
          },
          {
            "duration": 0.27272699999999617,
            "durationTicks": 192,
            "midi": 80,
            "name": "G#5",
            "ticks": 24768,
            "time": 35.181783,
            "velocity": 0.4881889763779528
          },
          {
            "duration": 0.27272699999999617,
            "durationTicks": 192,
            "midi": 80,
            "name": "G#5",
            "ticks": 24768,
            "time": 35.181783,
            "velocity": 0.4881889763779528
          },
          {
            "duration": 0.27272699999999617,
            "durationTicks": 192,
            "midi": 92,
            "name": "G#6",
            "ticks": 24768,
            "time": 35.181783,
            "velocity": 0.4881889763779528
          },
          {
            "duration": 0.27272699999999617,
            "durationTicks": 192,
            "midi": 80,
            "name": "G#5",
            "ticks": 24768,
            "time": 35.181783,
            "velocity": 0.4881889763779528
          },
          {
            "duration": 0.27272699999999617,
            "durationTicks": 192,
            "midi": 80,
            "name": "G#5",
            "ticks": 24768,
            "time": 35.181783,
            "velocity": 0.4881889763779528
          },
          {
            "duration": 0.27272699999999617,
            "durationTicks": 192,
            "midi": 80,
            "name": "G#5",
            "ticks": 24768,
            "time": 35.181783,
            "velocity": 0.4881889763779528
          },
          {
            "duration": 0.27272699999999617,
            "durationTicks": 192,
            "midi": 80,
            "name": "G#5",
            "ticks": 24768,
            "time": 35.181783,
            "velocity": 0.4881889763779528
          },
          {
            "duration": 0.27272699999999617,
            "durationTicks": 192,
            "midi": 92,
            "name": "G#6",
            "ticks": 24768,
            "time": 35.181783,
            "velocity": 0.4881889763779528
          },
          {
            "duration": 0.27272699999999617,
            "durationTicks": 192,
            "midi": 92,
            "name": "G#6",
            "ticks": 24768,
            "time": 35.181783,
            "velocity": 0.4881889763779528
          },
          {
            "duration": 0.27272699999999617,
            "durationTicks": 192,
            "midi": 92,
            "name": "G#6",
            "ticks": 24768,
            "time": 35.181783,
            "velocity": 0.4881889763779528
          },
          {
            "duration": 0.27272699999999617,
            "durationTicks": 192,
            "midi": 92,
            "name": "G#6",
            "ticks": 24768,
            "time": 35.181783,
            "velocity": 0.4881889763779528
          },
          {
            "duration": 0.6818175000000011,
            "durationTicks": 480,
            "midi": 61,
            "name": "C#4",
            "ticks": 24864,
            "time": 35.3181465,
            "velocity": 0.4881889763779528
          },
          {
            "duration": 0.6818175000000011,
            "durationTicks": 480,
            "midi": 68,
            "name": "G#4",
            "ticks": 24864,
            "time": 35.3181465,
            "velocity": 0.4881889763779528
          },
          {
            "duration": 0.6818175000000011,
            "durationTicks": 480,
            "midi": 68,
            "name": "G#4",
            "ticks": 24864,
            "time": 35.3181465,
            "velocity": 0.4881889763779528
          },
          {
            "duration": 0.6818175000000011,
            "durationTicks": 480,
            "midi": 61,
            "name": "C#4",
            "ticks": 24864,
            "time": 35.3181465,
            "velocity": 0.4881889763779528
          },
          {
            "duration": 0.6818175000000011,
            "durationTicks": 480,
            "midi": 61,
            "name": "C#4",
            "ticks": 24864,
            "time": 35.3181465,
            "velocity": 0.4881889763779528
          },
          {
            "duration": 0.6818175000000011,
            "durationTicks": 480,
            "midi": 68,
            "name": "G#4",
            "ticks": 24864,
            "time": 35.3181465,
            "velocity": 0.4881889763779528
          },
          {
            "duration": 0.6818175000000011,
            "durationTicks": 480,
            "midi": 73,
            "name": "C#5",
            "ticks": 24864,
            "time": 35.3181465,
            "velocity": 0.4881889763779528
          },
          {
            "duration": 0.6818175000000011,
            "durationTicks": 480,
            "midi": 68,
            "name": "G#4",
            "ticks": 24864,
            "time": 35.3181465,
            "velocity": 0.4881889763779528
          },
          {
            "duration": 0.6818175000000011,
            "durationTicks": 480,
            "midi": 73,
            "name": "C#5",
            "ticks": 24864,
            "time": 35.3181465,
            "velocity": 0.4881889763779528
          },
          {
            "duration": 0.6818175000000011,
            "durationTicks": 480,
            "midi": 73,
            "name": "C#5",
            "ticks": 24864,
            "time": 35.3181465,
            "velocity": 0.4881889763779528
          },
          {
            "duration": 0.6818175000000011,
            "durationTicks": 480,
            "midi": 61,
            "name": "C#4",
            "ticks": 24864,
            "time": 35.3181465,
            "velocity": 0.4881889763779528
          },
          {
            "duration": 0.6818175000000011,
            "durationTicks": 480,
            "midi": 61,
            "name": "C#4",
            "ticks": 24864,
            "time": 35.3181465,
            "velocity": 0.4881889763779528
          },
          {
            "duration": 0.6818175000000011,
            "durationTicks": 480,
            "midi": 73,
            "name": "C#5",
            "ticks": 24864,
            "time": 35.3181465,
            "velocity": 0.4881889763779528
          },
          {
            "duration": 0.6818175000000011,
            "durationTicks": 480,
            "midi": 68,
            "name": "G#4",
            "ticks": 24864,
            "time": 35.3181465,
            "velocity": 0.4881889763779528
          },
          {
            "duration": 0.6818175000000011,
            "durationTicks": 480,
            "midi": 61,
            "name": "C#4",
            "ticks": 24864,
            "time": 35.3181465,
            "velocity": 0.4881889763779528
          },
          {
            "duration": 0.6818175000000011,
            "durationTicks": 480,
            "midi": 73,
            "name": "C#5",
            "ticks": 24864,
            "time": 35.3181465,
            "velocity": 0.4881889763779528
          },
          {
            "duration": 0.6818175000000011,
            "durationTicks": 480,
            "midi": 73,
            "name": "C#5",
            "ticks": 24864,
            "time": 35.3181465,
            "velocity": 0.4881889763779528
          },
          {
            "duration": 0.6818175000000011,
            "durationTicks": 480,
            "midi": 68,
            "name": "G#4",
            "ticks": 24864,
            "time": 35.3181465,
            "velocity": 0.4881889763779528
          },
          {
            "duration": 0.13636350000000164,
            "durationTicks": 96,
            "midi": 80,
            "name": "G#5",
            "ticks": 24960,
            "time": 35.45451,
            "velocity": 0.4881889763779528
          },
          {
            "duration": 0.13636350000000164,
            "durationTicks": 96,
            "midi": 92,
            "name": "G#6",
            "ticks": 24960,
            "time": 35.45451,
            "velocity": 0.4881889763779528
          },
          {
            "duration": 0.13636350000000164,
            "durationTicks": 96,
            "midi": 92,
            "name": "G#6",
            "ticks": 24960,
            "time": 35.45451,
            "velocity": 0.4881889763779528
          },
          {
            "duration": 0.13636350000000164,
            "durationTicks": 96,
            "midi": 80,
            "name": "G#5",
            "ticks": 24960,
            "time": 35.45451,
            "velocity": 0.4881889763779528
          },
          {
            "duration": 0.13636350000000164,
            "durationTicks": 96,
            "midi": 92,
            "name": "G#6",
            "ticks": 24960,
            "time": 35.45451,
            "velocity": 0.4881889763779528
          },
          {
            "duration": 0.13636350000000164,
            "durationTicks": 96,
            "midi": 80,
            "name": "G#5",
            "ticks": 24960,
            "time": 35.45451,
            "velocity": 0.4881889763779528
          },
          {
            "duration": 0.13636350000000164,
            "durationTicks": 96,
            "midi": 80,
            "name": "G#5",
            "ticks": 24960,
            "time": 35.45451,
            "velocity": 0.4881889763779528
          },
          {
            "duration": 0.13636350000000164,
            "durationTicks": 96,
            "midi": 80,
            "name": "G#5",
            "ticks": 24960,
            "time": 35.45451,
            "velocity": 0.4881889763779528
          },
          {
            "duration": 0.13636350000000164,
            "durationTicks": 96,
            "midi": 92,
            "name": "G#6",
            "ticks": 24960,
            "time": 35.45451,
            "velocity": 0.4881889763779528
          },
          {
            "duration": 0.13636350000000164,
            "durationTicks": 96,
            "midi": 92,
            "name": "G#6",
            "ticks": 24960,
            "time": 35.45451,
            "velocity": 0.4881889763779528
          },
          {
            "duration": 0.13636350000000164,
            "durationTicks": 96,
            "midi": 80,
            "name": "G#5",
            "ticks": 24960,
            "time": 35.45451,
            "velocity": 0.4881889763779528
          },
          {
            "duration": 0.13636350000000164,
            "durationTicks": 96,
            "midi": 92,
            "name": "G#6",
            "ticks": 24960,
            "time": 35.45451,
            "velocity": 0.4881889763779528
          },
          {
            "duration": 0.13636350000000164,
            "durationTicks": 96,
            "midi": 90,
            "name": "F#6",
            "ticks": 25056,
            "time": 35.5908735,
            "velocity": 0.4881889763779528
          },
          {
            "duration": 0.13636350000000164,
            "durationTicks": 96,
            "midi": 78,
            "name": "F#5",
            "ticks": 25056,
            "time": 35.5908735,
            "velocity": 0.4881889763779528
          },
          {
            "duration": 0.13636350000000164,
            "durationTicks": 96,
            "midi": 78,
            "name": "F#5",
            "ticks": 25056,
            "time": 35.5908735,
            "velocity": 0.4881889763779528
          },
          {
            "duration": 0.13636350000000164,
            "durationTicks": 96,
            "midi": 90,
            "name": "F#6",
            "ticks": 25056,
            "time": 35.5908735,
            "velocity": 0.4881889763779528
          },
          {
            "duration": 0.13636350000000164,
            "durationTicks": 96,
            "midi": 78,
            "name": "F#5",
            "ticks": 25056,
            "time": 35.5908735,
            "velocity": 0.4881889763779528
          },
          {
            "duration": 0.13636350000000164,
            "durationTicks": 96,
            "midi": 90,
            "name": "F#6",
            "ticks": 25056,
            "time": 35.5908735,
            "velocity": 0.4881889763779528
          },
          {
            "duration": 0.13636350000000164,
            "durationTicks": 96,
            "midi": 90,
            "name": "F#6",
            "ticks": 25056,
            "time": 35.5908735,
            "velocity": 0.4881889763779528
          },
          {
            "duration": 0.13636350000000164,
            "durationTicks": 96,
            "midi": 78,
            "name": "F#5",
            "ticks": 25056,
            "time": 35.5908735,
            "velocity": 0.4881889763779528
          },
          {
            "duration": 0.13636350000000164,
            "durationTicks": 96,
            "midi": 78,
            "name": "F#5",
            "ticks": 25056,
            "time": 35.5908735,
            "velocity": 0.4881889763779528
          },
          {
            "duration": 0.13636350000000164,
            "durationTicks": 96,
            "midi": 78,
            "name": "F#5",
            "ticks": 25056,
            "time": 35.5908735,
            "velocity": 0.4881889763779528
          },
          {
            "duration": 0.13636350000000164,
            "durationTicks": 96,
            "midi": 90,
            "name": "F#6",
            "ticks": 25056,
            "time": 35.5908735,
            "velocity": 0.4881889763779528
          },
          {
            "duration": 0.13636350000000164,
            "durationTicks": 96,
            "midi": 90,
            "name": "F#6",
            "ticks": 25056,
            "time": 35.5908735,
            "velocity": 0.4881889763779528
          },
          {
            "duration": 0.13636349999999453,
            "durationTicks": 96,
            "midi": 88,
            "name": "E6",
            "ticks": 25152,
            "time": 35.727237,
            "velocity": 0.4881889763779528
          },
          {
            "duration": 0.13636349999999453,
            "durationTicks": 96,
            "midi": 88,
            "name": "E6",
            "ticks": 25152,
            "time": 35.727237,
            "velocity": 0.4881889763779528
          },
          {
            "duration": 0.13636349999999453,
            "durationTicks": 96,
            "midi": 76,
            "name": "E5",
            "ticks": 25152,
            "time": 35.727237,
            "velocity": 0.4881889763779528
          },
          {
            "duration": 0.13636349999999453,
            "durationTicks": 96,
            "midi": 76,
            "name": "E5",
            "ticks": 25152,
            "time": 35.727237,
            "velocity": 0.4881889763779528
          },
          {
            "duration": 0.13636349999999453,
            "durationTicks": 96,
            "midi": 88,
            "name": "E6",
            "ticks": 25152,
            "time": 35.727237,
            "velocity": 0.4881889763779528
          },
          {
            "duration": 0.13636349999999453,
            "durationTicks": 96,
            "midi": 76,
            "name": "E5",
            "ticks": 25152,
            "time": 35.727237,
            "velocity": 0.4881889763779528
          },
          {
            "duration": 0.13636349999999453,
            "durationTicks": 96,
            "midi": 88,
            "name": "E6",
            "ticks": 25152,
            "time": 35.727237,
            "velocity": 0.4881889763779528
          },
          {
            "duration": 0.13636349999999453,
            "durationTicks": 96,
            "midi": 76,
            "name": "E5",
            "ticks": 25152,
            "time": 35.727237,
            "velocity": 0.4881889763779528
          },
          {
            "duration": 0.13636349999999453,
            "durationTicks": 96,
            "midi": 76,
            "name": "E5",
            "ticks": 25152,
            "time": 35.727237,
            "velocity": 0.4881889763779528
          },
          {
            "duration": 0.13636349999999453,
            "durationTicks": 96,
            "midi": 76,
            "name": "E5",
            "ticks": 25152,
            "time": 35.727237,
            "velocity": 0.4881889763779528
          },
          {
            "duration": 0.13636349999999453,
            "durationTicks": 96,
            "midi": 88,
            "name": "E6",
            "ticks": 25152,
            "time": 35.727237,
            "velocity": 0.4881889763779528
          },
          {
            "duration": 0.13636349999999453,
            "durationTicks": 96,
            "midi": 88,
            "name": "E6",
            "ticks": 25152,
            "time": 35.727237,
            "velocity": 0.4881889763779528
          },
          {
            "duration": 0.13636350000000164,
            "durationTicks": 96,
            "midi": 78,
            "name": "F#5",
            "ticks": 25248,
            "time": 35.8636005,
            "velocity": 0.4881889763779528
          },
          {
            "duration": 0.13636350000000164,
            "durationTicks": 96,
            "midi": 90,
            "name": "F#6",
            "ticks": 25248,
            "time": 35.8636005,
            "velocity": 0.4881889763779528
          },
          {
            "duration": 0.13636350000000164,
            "durationTicks": 96,
            "midi": 90,
            "name": "F#6",
            "ticks": 25248,
            "time": 35.8636005,
            "velocity": 0.4881889763779528
          },
          {
            "duration": 0.13636350000000164,
            "durationTicks": 96,
            "midi": 90,
            "name": "F#6",
            "ticks": 25248,
            "time": 35.8636005,
            "velocity": 0.4881889763779528
          },
          {
            "duration": 0.13636350000000164,
            "durationTicks": 96,
            "midi": 78,
            "name": "F#5",
            "ticks": 25248,
            "time": 35.8636005,
            "velocity": 0.4881889763779528
          },
          {
            "duration": 0.13636350000000164,
            "durationTicks": 96,
            "midi": 78,
            "name": "F#5",
            "ticks": 25248,
            "time": 35.8636005,
            "velocity": 0.4881889763779528
          },
          {
            "duration": 0.13636350000000164,
            "durationTicks": 96,
            "midi": 78,
            "name": "F#5",
            "ticks": 25248,
            "time": 35.8636005,
            "velocity": 0.4881889763779528
          },
          {
            "duration": 0.13636350000000164,
            "durationTicks": 96,
            "midi": 78,
            "name": "F#5",
            "ticks": 25248,
            "time": 35.8636005,
            "velocity": 0.4881889763779528
          },
          {
            "duration": 0.13636350000000164,
            "durationTicks": 96,
            "midi": 90,
            "name": "F#6",
            "ticks": 25248,
            "time": 35.8636005,
            "velocity": 0.4881889763779528
          },
          {
            "duration": 0.13636350000000164,
            "durationTicks": 96,
            "midi": 90,
            "name": "F#6",
            "ticks": 25248,
            "time": 35.8636005,
            "velocity": 0.4881889763779528
          },
          {
            "duration": 0.13636350000000164,
            "durationTicks": 96,
            "midi": 90,
            "name": "F#6",
            "ticks": 25248,
            "time": 35.8636005,
            "velocity": 0.4881889763779528
          },
          {
            "duration": 0.13636350000000164,
            "durationTicks": 96,
            "midi": 78,
            "name": "F#5",
            "ticks": 25248,
            "time": 35.8636005,
            "velocity": 0.4881889763779528
          },
          {
            "duration": 0.2727270000000033,
            "durationTicks": 192,
            "midi": 88,
            "name": "E6",
            "ticks": 25344,
            "time": 35.999964,
            "velocity": 0.4881889763779528
          },
          {
            "duration": 0.4090904999999978,
            "durationTicks": 288,
            "midi": 59,
            "name": "B3",
            "ticks": 25344,
            "time": 35.999964,
            "velocity": 0.4881889763779528
          },
          {
            "duration": 0.4090904999999978,
            "durationTicks": 288,
            "midi": 71,
            "name": "B4",
            "ticks": 25344,
            "time": 35.999964,
            "velocity": 0.4881889763779528
          },
          {
            "duration": 0.2727270000000033,
            "durationTicks": 192,
            "midi": 88,
            "name": "E6",
            "ticks": 25344,
            "time": 35.999964,
            "velocity": 0.4881889763779528
          },
          {
            "duration": 0.4090904999999978,
            "durationTicks": 288,
            "midi": 68,
            "name": "G#4",
            "ticks": 25344,
            "time": 35.999964,
            "velocity": 0.4881889763779528
          },
          {
            "duration": 0.2727270000000033,
            "durationTicks": 192,
            "midi": 88,
            "name": "E6",
            "ticks": 25344,
            "time": 35.999964,
            "velocity": 0.4881889763779528
          },
          {
            "duration": 0.2727270000000033,
            "durationTicks": 192,
            "midi": 88,
            "name": "E6",
            "ticks": 25344,
            "time": 35.999964,
            "velocity": 0.4881889763779528
          },
          {
            "duration": 0.2727270000000033,
            "durationTicks": 192,
            "midi": 76,
            "name": "E5",
            "ticks": 25344,
            "time": 35.999964,
            "velocity": 0.4881889763779528
          },
          {
            "duration": 0.2727270000000033,
            "durationTicks": 192,
            "midi": 76,
            "name": "E5",
            "ticks": 25344,
            "time": 35.999964,
            "velocity": 0.4881889763779528
          },
          {
            "duration": 0.4090904999999978,
            "durationTicks": 288,
            "midi": 59,
            "name": "B3",
            "ticks": 25344,
            "time": 35.999964,
            "velocity": 0.4881889763779528
          },
          {
            "duration": 0.2727270000000033,
            "durationTicks": 192,
            "midi": 76,
            "name": "E5",
            "ticks": 25344,
            "time": 35.999964,
            "velocity": 0.4881889763779528
          },
          {
            "duration": 0.2727270000000033,
            "durationTicks": 192,
            "midi": 76,
            "name": "E5",
            "ticks": 25344,
            "time": 35.999964,
            "velocity": 0.4881889763779528
          },
          {
            "duration": 0.4090904999999978,
            "durationTicks": 288,
            "midi": 59,
            "name": "B3",
            "ticks": 25344,
            "time": 35.999964,
            "velocity": 0.4881889763779528
          },
          {
            "duration": 0.2727270000000033,
            "durationTicks": 192,
            "midi": 88,
            "name": "E6",
            "ticks": 25344,
            "time": 35.999964,
            "velocity": 0.4881889763779528
          },
          {
            "duration": 0.2727270000000033,
            "durationTicks": 192,
            "midi": 76,
            "name": "E5",
            "ticks": 25344,
            "time": 35.999964,
            "velocity": 0.4881889763779528
          },
          {
            "duration": 0.4090904999999978,
            "durationTicks": 288,
            "midi": 68,
            "name": "G#4",
            "ticks": 25344,
            "time": 35.999964,
            "velocity": 0.4881889763779528
          },
          {
            "duration": 0.2727270000000033,
            "durationTicks": 192,
            "midi": 88,
            "name": "E6",
            "ticks": 25344,
            "time": 35.999964,
            "velocity": 0.4881889763779528
          },
          {
            "duration": 0.4090904999999978,
            "durationTicks": 288,
            "midi": 68,
            "name": "G#4",
            "ticks": 25344,
            "time": 35.999964,
            "velocity": 0.4881889763779528
          },
          {
            "duration": 0.4090904999999978,
            "durationTicks": 288,
            "midi": 59,
            "name": "B3",
            "ticks": 25344,
            "time": 35.999964,
            "velocity": 0.4881889763779528
          },
          {
            "duration": 0.4090904999999978,
            "durationTicks": 288,
            "midi": 68,
            "name": "G#4",
            "ticks": 25344,
            "time": 35.999964,
            "velocity": 0.4881889763779528
          },
          {
            "duration": 0.4090904999999978,
            "durationTicks": 288,
            "midi": 68,
            "name": "G#4",
            "ticks": 25344,
            "time": 35.999964,
            "velocity": 0.4881889763779528
          },
          {
            "duration": 0.2727270000000033,
            "durationTicks": 192,
            "midi": 76,
            "name": "E5",
            "ticks": 25344,
            "time": 35.999964,
            "velocity": 0.4881889763779528
          },
          {
            "duration": 0.4090904999999978,
            "durationTicks": 288,
            "midi": 71,
            "name": "B4",
            "ticks": 25344,
            "time": 35.999964,
            "velocity": 0.4881889763779528
          },
          {
            "duration": 0.4090904999999978,
            "durationTicks": 288,
            "midi": 59,
            "name": "B3",
            "ticks": 25344,
            "time": 35.999964,
            "velocity": 0.4881889763779528
          },
          {
            "duration": 0.4090904999999978,
            "durationTicks": 288,
            "midi": 71,
            "name": "B4",
            "ticks": 25344,
            "time": 35.999964,
            "velocity": 0.4881889763779528
          },
          {
            "duration": 0.4090904999999978,
            "durationTicks": 288,
            "midi": 71,
            "name": "B4",
            "ticks": 25344,
            "time": 35.999964,
            "velocity": 0.4881889763779528
          },
          {
            "duration": 0.4090904999999978,
            "durationTicks": 288,
            "midi": 71,
            "name": "B4",
            "ticks": 25344,
            "time": 35.999964,
            "velocity": 0.4881889763779528
          },
          {
            "duration": 0.4090904999999978,
            "durationTicks": 288,
            "midi": 68,
            "name": "G#4",
            "ticks": 25344,
            "time": 35.999964,
            "velocity": 0.4881889763779528
          },
          {
            "duration": 0.4090904999999978,
            "durationTicks": 288,
            "midi": 71,
            "name": "B4",
            "ticks": 25344,
            "time": 35.999964,
            "velocity": 0.4881889763779528
          },
          {
            "duration": 0.4090904999999978,
            "durationTicks": 288,
            "midi": 59,
            "name": "B3",
            "ticks": 25344,
            "time": 35.999964,
            "velocity": 0.4881889763779528
          },
          {
            "duration": 0.27272699999999617,
            "durationTicks": 192,
            "midi": 92,
            "name": "G#6",
            "ticks": 25536,
            "time": 36.272691,
            "velocity": 0.4881889763779528
          },
          {
            "duration": 0.27272699999999617,
            "durationTicks": 192,
            "midi": 92,
            "name": "G#6",
            "ticks": 25536,
            "time": 36.272691,
            "velocity": 0.4881889763779528
          },
          {
            "duration": 0.27272699999999617,
            "durationTicks": 192,
            "midi": 80,
            "name": "G#5",
            "ticks": 25536,
            "time": 36.272691,
            "velocity": 0.4881889763779528
          },
          {
            "duration": 0.27272699999999617,
            "durationTicks": 192,
            "midi": 80,
            "name": "G#5",
            "ticks": 25536,
            "time": 36.272691,
            "velocity": 0.4881889763779528
          },
          {
            "duration": 0.27272699999999617,
            "durationTicks": 192,
            "midi": 92,
            "name": "G#6",
            "ticks": 25536,
            "time": 36.272691,
            "velocity": 0.4881889763779528
          },
          {
            "duration": 0.27272699999999617,
            "durationTicks": 192,
            "midi": 80,
            "name": "G#5",
            "ticks": 25536,
            "time": 36.272691,
            "velocity": 0.4881889763779528
          },
          {
            "duration": 0.27272699999999617,
            "durationTicks": 192,
            "midi": 80,
            "name": "G#5",
            "ticks": 25536,
            "time": 36.272691,
            "velocity": 0.4881889763779528
          },
          {
            "duration": 0.27272699999999617,
            "durationTicks": 192,
            "midi": 92,
            "name": "G#6",
            "ticks": 25536,
            "time": 36.272691,
            "velocity": 0.4881889763779528
          },
          {
            "duration": 0.27272699999999617,
            "durationTicks": 192,
            "midi": 80,
            "name": "G#5",
            "ticks": 25536,
            "time": 36.272691,
            "velocity": 0.4881889763779528
          },
          {
            "duration": 0.27272699999999617,
            "durationTicks": 192,
            "midi": 92,
            "name": "G#6",
            "ticks": 25536,
            "time": 36.272691,
            "velocity": 0.4881889763779528
          },
          {
            "duration": 0.27272699999999617,
            "durationTicks": 192,
            "midi": 80,
            "name": "G#5",
            "ticks": 25536,
            "time": 36.272691,
            "velocity": 0.4881889763779528
          },
          {
            "duration": 0.27272699999999617,
            "durationTicks": 192,
            "midi": 92,
            "name": "G#6",
            "ticks": 25536,
            "time": 36.272691,
            "velocity": 0.4881889763779528
          },
          {
            "duration": 0.6818175000000011,
            "durationTicks": 480,
            "midi": 59,
            "name": "B3",
            "ticks": 25632,
            "time": 36.409054499999996,
            "velocity": 0.4881889763779528
          },
          {
            "duration": 0.6818175000000011,
            "durationTicks": 480,
            "midi": 71,
            "name": "B4",
            "ticks": 25632,
            "time": 36.409054499999996,
            "velocity": 0.4881889763779528
          },
          {
            "duration": 0.6818175000000011,
            "durationTicks": 480,
            "midi": 59,
            "name": "B3",
            "ticks": 25632,
            "time": 36.409054499999996,
            "velocity": 0.4881889763779528
          },
          {
            "duration": 0.6818175000000011,
            "durationTicks": 480,
            "midi": 68,
            "name": "G#4",
            "ticks": 25632,
            "time": 36.409054499999996,
            "velocity": 0.4881889763779528
          },
          {
            "duration": 0.6818175000000011,
            "durationTicks": 480,
            "midi": 71,
            "name": "B4",
            "ticks": 25632,
            "time": 36.409054499999996,
            "velocity": 0.4881889763779528
          },
          {
            "duration": 0.6818175000000011,
            "durationTicks": 480,
            "midi": 59,
            "name": "B3",
            "ticks": 25632,
            "time": 36.409054499999996,
            "velocity": 0.4881889763779528
          },
          {
            "duration": 0.6818175000000011,
            "durationTicks": 480,
            "midi": 68,
            "name": "G#4",
            "ticks": 25632,
            "time": 36.409054499999996,
            "velocity": 0.4881889763779528
          },
          {
            "duration": 0.6818175000000011,
            "durationTicks": 480,
            "midi": 59,
            "name": "B3",
            "ticks": 25632,
            "time": 36.409054499999996,
            "velocity": 0.4881889763779528
          },
          {
            "duration": 0.6818175000000011,
            "durationTicks": 480,
            "midi": 71,
            "name": "B4",
            "ticks": 25632,
            "time": 36.409054499999996,
            "velocity": 0.4881889763779528
          },
          {
            "duration": 0.6818175000000011,
            "durationTicks": 480,
            "midi": 68,
            "name": "G#4",
            "ticks": 25632,
            "time": 36.409054499999996,
            "velocity": 0.4881889763779528
          },
          {
            "duration": 0.6818175000000011,
            "durationTicks": 480,
            "midi": 71,
            "name": "B4",
            "ticks": 25632,
            "time": 36.409054499999996,
            "velocity": 0.4881889763779528
          },
          {
            "duration": 0.6818175000000011,
            "durationTicks": 480,
            "midi": 68,
            "name": "G#4",
            "ticks": 25632,
            "time": 36.409054499999996,
            "velocity": 0.4881889763779528
          },
          {
            "duration": 0.6818175000000011,
            "durationTicks": 480,
            "midi": 68,
            "name": "G#4",
            "ticks": 25632,
            "time": 36.409054499999996,
            "velocity": 0.4881889763779528
          },
          {
            "duration": 0.6818175000000011,
            "durationTicks": 480,
            "midi": 71,
            "name": "B4",
            "ticks": 25632,
            "time": 36.409054499999996,
            "velocity": 0.4881889763779528
          },
          {
            "duration": 0.6818175000000011,
            "durationTicks": 480,
            "midi": 68,
            "name": "G#4",
            "ticks": 25632,
            "time": 36.409054499999996,
            "velocity": 0.4881889763779528
          },
          {
            "duration": 0.6818175000000011,
            "durationTicks": 480,
            "midi": 71,
            "name": "B4",
            "ticks": 25632,
            "time": 36.409054499999996,
            "velocity": 0.4881889763779528
          },
          {
            "duration": 0.6818175000000011,
            "durationTicks": 480,
            "midi": 59,
            "name": "B3",
            "ticks": 25632,
            "time": 36.409054499999996,
            "velocity": 0.4881889763779528
          },
          {
            "duration": 0.6818175000000011,
            "durationTicks": 480,
            "midi": 59,
            "name": "B3",
            "ticks": 25632,
            "time": 36.409054499999996,
            "velocity": 0.4881889763779528
          },
          {
            "duration": 0.13636350000000164,
            "durationTicks": 96,
            "midi": 92,
            "name": "G#6",
            "ticks": 25728,
            "time": 36.545418,
            "velocity": 0.4881889763779528
          },
          {
            "duration": 0.13636350000000164,
            "durationTicks": 96,
            "midi": 92,
            "name": "G#6",
            "ticks": 25728,
            "time": 36.545418,
            "velocity": 0.4881889763779528
          },
          {
            "duration": 0.13636350000000164,
            "durationTicks": 96,
            "midi": 92,
            "name": "G#6",
            "ticks": 25728,
            "time": 36.545418,
            "velocity": 0.4881889763779528
          },
          {
            "duration": 0.13636350000000164,
            "durationTicks": 96,
            "midi": 80,
            "name": "G#5",
            "ticks": 25728,
            "time": 36.545418,
            "velocity": 0.4881889763779528
          },
          {
            "duration": 0.13636350000000164,
            "durationTicks": 96,
            "midi": 80,
            "name": "G#5",
            "ticks": 25728,
            "time": 36.545418,
            "velocity": 0.4881889763779528
          },
          {
            "duration": 0.13636350000000164,
            "durationTicks": 96,
            "midi": 92,
            "name": "G#6",
            "ticks": 25728,
            "time": 36.545418,
            "velocity": 0.4881889763779528
          },
          {
            "duration": 0.13636350000000164,
            "durationTicks": 96,
            "midi": 92,
            "name": "G#6",
            "ticks": 25728,
            "time": 36.545418,
            "velocity": 0.4881889763779528
          },
          {
            "duration": 0.13636350000000164,
            "durationTicks": 96,
            "midi": 80,
            "name": "G#5",
            "ticks": 25728,
            "time": 36.545418,
            "velocity": 0.4881889763779528
          },
          {
            "duration": 0.13636350000000164,
            "durationTicks": 96,
            "midi": 92,
            "name": "G#6",
            "ticks": 25728,
            "time": 36.545418,
            "velocity": 0.4881889763779528
          },
          {
            "duration": 0.13636350000000164,
            "durationTicks": 96,
            "midi": 80,
            "name": "G#5",
            "ticks": 25728,
            "time": 36.545418,
            "velocity": 0.4881889763779528
          },
          {
            "duration": 0.13636350000000164,
            "durationTicks": 96,
            "midi": 80,
            "name": "G#5",
            "ticks": 25728,
            "time": 36.545418,
            "velocity": 0.4881889763779528
          },
          {
            "duration": 0.13636350000000164,
            "durationTicks": 96,
            "midi": 80,
            "name": "G#5",
            "ticks": 25728,
            "time": 36.545418,
            "velocity": 0.4881889763779528
          },
          {
            "duration": 0.13636350000000164,
            "durationTicks": 96,
            "midi": 90,
            "name": "F#6",
            "ticks": 25824,
            "time": 36.6817815,
            "velocity": 0.4881889763779528
          },
          {
            "duration": 0.13636350000000164,
            "durationTicks": 96,
            "midi": 78,
            "name": "F#5",
            "ticks": 25824,
            "time": 36.6817815,
            "velocity": 0.4881889763779528
          },
          {
            "duration": 0.13636350000000164,
            "durationTicks": 96,
            "midi": 90,
            "name": "F#6",
            "ticks": 25824,
            "time": 36.6817815,
            "velocity": 0.4881889763779528
          },
          {
            "duration": 0.13636350000000164,
            "durationTicks": 96,
            "midi": 78,
            "name": "F#5",
            "ticks": 25824,
            "time": 36.6817815,
            "velocity": 0.4881889763779528
          },
          {
            "duration": 0.13636350000000164,
            "durationTicks": 96,
            "midi": 90,
            "name": "F#6",
            "ticks": 25824,
            "time": 36.6817815,
            "velocity": 0.4881889763779528
          },
          {
            "duration": 0.13636350000000164,
            "durationTicks": 96,
            "midi": 90,
            "name": "F#6",
            "ticks": 25824,
            "time": 36.6817815,
            "velocity": 0.4881889763779528
          },
          {
            "duration": 0.13636350000000164,
            "durationTicks": 96,
            "midi": 78,
            "name": "F#5",
            "ticks": 25824,
            "time": 36.6817815,
            "velocity": 0.4881889763779528
          },
          {
            "duration": 0.13636350000000164,
            "durationTicks": 96,
            "midi": 90,
            "name": "F#6",
            "ticks": 25824,
            "time": 36.6817815,
            "velocity": 0.4881889763779528
          },
          {
            "duration": 0.13636350000000164,
            "durationTicks": 96,
            "midi": 78,
            "name": "F#5",
            "ticks": 25824,
            "time": 36.6817815,
            "velocity": 0.4881889763779528
          },
          {
            "duration": 0.13636350000000164,
            "durationTicks": 96,
            "midi": 78,
            "name": "F#5",
            "ticks": 25824,
            "time": 36.6817815,
            "velocity": 0.4881889763779528
          },
          {
            "duration": 0.13636350000000164,
            "durationTicks": 96,
            "midi": 78,
            "name": "F#5",
            "ticks": 25824,
            "time": 36.6817815,
            "velocity": 0.4881889763779528
          },
          {
            "duration": 0.13636350000000164,
            "durationTicks": 96,
            "midi": 90,
            "name": "F#6",
            "ticks": 25824,
            "time": 36.6817815,
            "velocity": 0.4881889763779528
          },
          {
            "duration": 0.13636350000000164,
            "durationTicks": 96,
            "midi": 76,
            "name": "E5",
            "ticks": 25920,
            "time": 36.818145,
            "velocity": 0.4881889763779528
          },
          {
            "duration": 0.13636350000000164,
            "durationTicks": 96,
            "midi": 88,
            "name": "E6",
            "ticks": 25920,
            "time": 36.818145,
            "velocity": 0.4881889763779528
          },
          {
            "duration": 0.13636350000000164,
            "durationTicks": 96,
            "midi": 88,
            "name": "E6",
            "ticks": 25920,
            "time": 36.818145,
            "velocity": 0.4881889763779528
          },
          {
            "duration": 0.13636350000000164,
            "durationTicks": 96,
            "midi": 88,
            "name": "E6",
            "ticks": 25920,
            "time": 36.818145,
            "velocity": 0.4881889763779528
          },
          {
            "duration": 0.13636350000000164,
            "durationTicks": 96,
            "midi": 76,
            "name": "E5",
            "ticks": 25920,
            "time": 36.818145,
            "velocity": 0.4881889763779528
          },
          {
            "duration": 0.13636350000000164,
            "durationTicks": 96,
            "midi": 88,
            "name": "E6",
            "ticks": 25920,
            "time": 36.818145,
            "velocity": 0.4881889763779528
          },
          {
            "duration": 0.13636350000000164,
            "durationTicks": 96,
            "midi": 76,
            "name": "E5",
            "ticks": 25920,
            "time": 36.818145,
            "velocity": 0.4881889763779528
          },
          {
            "duration": 0.13636350000000164,
            "durationTicks": 96,
            "midi": 76,
            "name": "E5",
            "ticks": 25920,
            "time": 36.818145,
            "velocity": 0.4881889763779528
          },
          {
            "duration": 0.13636350000000164,
            "durationTicks": 96,
            "midi": 88,
            "name": "E6",
            "ticks": 25920,
            "time": 36.818145,
            "velocity": 0.4881889763779528
          },
          {
            "duration": 0.13636350000000164,
            "durationTicks": 96,
            "midi": 76,
            "name": "E5",
            "ticks": 25920,
            "time": 36.818145,
            "velocity": 0.4881889763779528
          },
          {
            "duration": 0.13636350000000164,
            "durationTicks": 96,
            "midi": 88,
            "name": "E6",
            "ticks": 25920,
            "time": 36.818145,
            "velocity": 0.4881889763779528
          },
          {
            "duration": 0.13636350000000164,
            "durationTicks": 96,
            "midi": 76,
            "name": "E5",
            "ticks": 25920,
            "time": 36.818145,
            "velocity": 0.4881889763779528
          },
          {
            "duration": 0.13636349999999453,
            "durationTicks": 96,
            "midi": 78,
            "name": "F#5",
            "ticks": 26016,
            "time": 36.9545085,
            "velocity": 0.4881889763779528
          },
          {
            "duration": 0.13636349999999453,
            "durationTicks": 96,
            "midi": 78,
            "name": "F#5",
            "ticks": 26016,
            "time": 36.9545085,
            "velocity": 0.4881889763779528
          },
          {
            "duration": 0.13636349999999453,
            "durationTicks": 96,
            "midi": 78,
            "name": "F#5",
            "ticks": 26016,
            "time": 36.9545085,
            "velocity": 0.4881889763779528
          },
          {
            "duration": 0.13636349999999453,
            "durationTicks": 96,
            "midi": 90,
            "name": "F#6",
            "ticks": 26016,
            "time": 36.9545085,
            "velocity": 0.4881889763779528
          },
          {
            "duration": 0.13636349999999453,
            "durationTicks": 96,
            "midi": 78,
            "name": "F#5",
            "ticks": 26016,
            "time": 36.9545085,
            "velocity": 0.4881889763779528
          },
          {
            "duration": 0.13636349999999453,
            "durationTicks": 96,
            "midi": 90,
            "name": "F#6",
            "ticks": 26016,
            "time": 36.9545085,
            "velocity": 0.4881889763779528
          },
          {
            "duration": 0.13636349999999453,
            "durationTicks": 96,
            "midi": 90,
            "name": "F#6",
            "ticks": 26016,
            "time": 36.9545085,
            "velocity": 0.4881889763779528
          },
          {
            "duration": 0.13636349999999453,
            "durationTicks": 96,
            "midi": 90,
            "name": "F#6",
            "ticks": 26016,
            "time": 36.9545085,
            "velocity": 0.4881889763779528
          },
          {
            "duration": 0.13636349999999453,
            "durationTicks": 96,
            "midi": 78,
            "name": "F#5",
            "ticks": 26016,
            "time": 36.9545085,
            "velocity": 0.4881889763779528
          },
          {
            "duration": 0.13636349999999453,
            "durationTicks": 96,
            "midi": 90,
            "name": "F#6",
            "ticks": 26016,
            "time": 36.9545085,
            "velocity": 0.4881889763779528
          },
          {
            "duration": 0.13636349999999453,
            "durationTicks": 96,
            "midi": 90,
            "name": "F#6",
            "ticks": 26016,
            "time": 36.9545085,
            "velocity": 0.4881889763779528
          },
          {
            "duration": 0.13636349999999453,
            "durationTicks": 96,
            "midi": 78,
            "name": "F#5",
            "ticks": 26016,
            "time": 36.9545085,
            "velocity": 0.4881889763779528
          },
          {
            "duration": 0.4090905000000049,
            "durationTicks": 288,
            "midi": 64,
            "name": "E4",
            "ticks": 26112,
            "time": 37.090872,
            "velocity": 0.4881889763779528
          },
          {
            "duration": 0.4090905000000049,
            "durationTicks": 288,
            "midi": 57,
            "name": "A3",
            "ticks": 26112,
            "time": 37.090872,
            "velocity": 0.4881889763779528
          },
          {
            "duration": 0.2727270000000033,
            "durationTicks": 192,
            "midi": 76,
            "name": "E5",
            "ticks": 26112,
            "time": 37.090872,
            "velocity": 0.4881889763779528
          },
          {
            "duration": 0.4090905000000049,
            "durationTicks": 288,
            "midi": 69,
            "name": "A4",
            "ticks": 26112,
            "time": 37.090872,
            "velocity": 0.4881889763779528
          },
          {
            "duration": 0.4090905000000049,
            "durationTicks": 288,
            "midi": 69,
            "name": "A4",
            "ticks": 26112,
            "time": 37.090872,
            "velocity": 0.4881889763779528
          },
          {
            "duration": 0.2727270000000033,
            "durationTicks": 192,
            "midi": 88,
            "name": "E6",
            "ticks": 26112,
            "time": 37.090872,
            "velocity": 0.4881889763779528
          },
          {
            "duration": 0.4090905000000049,
            "durationTicks": 288,
            "midi": 57,
            "name": "A3",
            "ticks": 26112,
            "time": 37.090872,
            "velocity": 0.4881889763779528
          },
          {
            "duration": 0.4090905000000049,
            "durationTicks": 288,
            "midi": 64,
            "name": "E4",
            "ticks": 26112,
            "time": 37.090872,
            "velocity": 0.4881889763779528
          },
          {
            "duration": 0.2727270000000033,
            "durationTicks": 192,
            "midi": 76,
            "name": "E5",
            "ticks": 26112,
            "time": 37.090872,
            "velocity": 0.4881889763779528
          },
          {
            "duration": 0.2727270000000033,
            "durationTicks": 192,
            "midi": 88,
            "name": "E6",
            "ticks": 26112,
            "time": 37.090872,
            "velocity": 0.4881889763779528
          },
          {
            "duration": 0.2727270000000033,
            "durationTicks": 192,
            "midi": 76,
            "name": "E5",
            "ticks": 26112,
            "time": 37.090872,
            "velocity": 0.4881889763779528
          },
          {
            "duration": 0.2727270000000033,
            "durationTicks": 192,
            "midi": 76,
            "name": "E5",
            "ticks": 26112,
            "time": 37.090872,
            "velocity": 0.4881889763779528
          },
          {
            "duration": 0.4090905000000049,
            "durationTicks": 288,
            "midi": 64,
            "name": "E4",
            "ticks": 26112,
            "time": 37.090872,
            "velocity": 0.4881889763779528
          },
          {
            "duration": 0.4090905000000049,
            "durationTicks": 288,
            "midi": 64,
            "name": "E4",
            "ticks": 26112,
            "time": 37.090872,
            "velocity": 0.4881889763779528
          },
          {
            "duration": 0.4090905000000049,
            "durationTicks": 288,
            "midi": 69,
            "name": "A4",
            "ticks": 26112,
            "time": 37.090872,
            "velocity": 0.4881889763779528
          },
          {
            "duration": 0.2727270000000033,
            "durationTicks": 192,
            "midi": 88,
            "name": "E6",
            "ticks": 26112,
            "time": 37.090872,
            "velocity": 0.4881889763779528
          },
          {
            "duration": 0.2727270000000033,
            "durationTicks": 192,
            "midi": 88,
            "name": "E6",
            "ticks": 26112,
            "time": 37.090872,
            "velocity": 0.4881889763779528
          },
          {
            "duration": 0.4090905000000049,
            "durationTicks": 288,
            "midi": 69,
            "name": "A4",
            "ticks": 26112,
            "time": 37.090872,
            "velocity": 0.4881889763779528
          },
          {
            "duration": 0.2727270000000033,
            "durationTicks": 192,
            "midi": 88,
            "name": "E6",
            "ticks": 26112,
            "time": 37.090872,
            "velocity": 0.4881889763779528
          },
          {
            "duration": 0.4090905000000049,
            "durationTicks": 288,
            "midi": 64,
            "name": "E4",
            "ticks": 26112,
            "time": 37.090872,
            "velocity": 0.4881889763779528
          },
          {
            "duration": 0.4090905000000049,
            "durationTicks": 288,
            "midi": 64,
            "name": "E4",
            "ticks": 26112,
            "time": 37.090872,
            "velocity": 0.4881889763779528
          },
          {
            "duration": 0.4090905000000049,
            "durationTicks": 288,
            "midi": 69,
            "name": "A4",
            "ticks": 26112,
            "time": 37.090872,
            "velocity": 0.4881889763779528
          },
          {
            "duration": 0.2727270000000033,
            "durationTicks": 192,
            "midi": 76,
            "name": "E5",
            "ticks": 26112,
            "time": 37.090872,
            "velocity": 0.4881889763779528
          },
          {
            "duration": 0.4090905000000049,
            "durationTicks": 288,
            "midi": 57,
            "name": "A3",
            "ticks": 26112,
            "time": 37.090872,
            "velocity": 0.4881889763779528
          },
          {
            "duration": 0.4090905000000049,
            "durationTicks": 288,
            "midi": 69,
            "name": "A4",
            "ticks": 26112,
            "time": 37.090872,
            "velocity": 0.4881889763779528
          },
          {
            "duration": 0.2727270000000033,
            "durationTicks": 192,
            "midi": 76,
            "name": "E5",
            "ticks": 26112,
            "time": 37.090872,
            "velocity": 0.4881889763779528
          },
          {
            "duration": 0.2727270000000033,
            "durationTicks": 192,
            "midi": 88,
            "name": "E6",
            "ticks": 26112,
            "time": 37.090872,
            "velocity": 0.4881889763779528
          },
          {
            "duration": 0.4090905000000049,
            "durationTicks": 288,
            "midi": 57,
            "name": "A3",
            "ticks": 26112,
            "time": 37.090872,
            "velocity": 0.4881889763779528
          },
          {
            "duration": 0.4090905000000049,
            "durationTicks": 288,
            "midi": 57,
            "name": "A3",
            "ticks": 26112,
            "time": 37.090872,
            "velocity": 0.4881889763779528
          },
          {
            "duration": 0.4090905000000049,
            "durationTicks": 288,
            "midi": 57,
            "name": "A3",
            "ticks": 26112,
            "time": 37.090872,
            "velocity": 0.4881889763779528
          },
          {
            "duration": 0.27272699999999617,
            "durationTicks": 192,
            "midi": 92,
            "name": "G#6",
            "ticks": 26304,
            "time": 37.363599,
            "velocity": 0.4881889763779528
          },
          {
            "duration": 0.27272699999999617,
            "durationTicks": 192,
            "midi": 80,
            "name": "G#5",
            "ticks": 26304,
            "time": 37.363599,
            "velocity": 0.4881889763779528
          },
          {
            "duration": 0.27272699999999617,
            "durationTicks": 192,
            "midi": 80,
            "name": "G#5",
            "ticks": 26304,
            "time": 37.363599,
            "velocity": 0.4881889763779528
          },
          {
            "duration": 0.27272699999999617,
            "durationTicks": 192,
            "midi": 80,
            "name": "G#5",
            "ticks": 26304,
            "time": 37.363599,
            "velocity": 0.4881889763779528
          },
          {
            "duration": 0.27272699999999617,
            "durationTicks": 192,
            "midi": 80,
            "name": "G#5",
            "ticks": 26304,
            "time": 37.363599,
            "velocity": 0.4881889763779528
          },
          {
            "duration": 0.27272699999999617,
            "durationTicks": 192,
            "midi": 92,
            "name": "G#6",
            "ticks": 26304,
            "time": 37.363599,
            "velocity": 0.4881889763779528
          },
          {
            "duration": 0.27272699999999617,
            "durationTicks": 192,
            "midi": 92,
            "name": "G#6",
            "ticks": 26304,
            "time": 37.363599,
            "velocity": 0.4881889763779528
          },
          {
            "duration": 0.27272699999999617,
            "durationTicks": 192,
            "midi": 80,
            "name": "G#5",
            "ticks": 26304,
            "time": 37.363599,
            "velocity": 0.4881889763779528
          },
          {
            "duration": 0.27272699999999617,
            "durationTicks": 192,
            "midi": 92,
            "name": "G#6",
            "ticks": 26304,
            "time": 37.363599,
            "velocity": 0.4881889763779528
          },
          {
            "duration": 0.27272699999999617,
            "durationTicks": 192,
            "midi": 92,
            "name": "G#6",
            "ticks": 26304,
            "time": 37.363599,
            "velocity": 0.4881889763779528
          },
          {
            "duration": 0.27272699999999617,
            "durationTicks": 192,
            "midi": 92,
            "name": "G#6",
            "ticks": 26304,
            "time": 37.363599,
            "velocity": 0.4881889763779528
          },
          {
            "duration": 0.27272699999999617,
            "durationTicks": 192,
            "midi": 80,
            "name": "G#5",
            "ticks": 26304,
            "time": 37.363599,
            "velocity": 0.4881889763779528
          },
          {
            "duration": 0.681817499999994,
            "durationTicks": 480,
            "midi": 69,
            "name": "A4",
            "ticks": 26400,
            "time": 37.4999625,
            "velocity": 0.4881889763779528
          },
          {
            "duration": 0.681817499999994,
            "durationTicks": 480,
            "midi": 69,
            "name": "A4",
            "ticks": 26400,
            "time": 37.4999625,
            "velocity": 0.4881889763779528
          },
          {
            "duration": 0.681817499999994,
            "durationTicks": 480,
            "midi": 57,
            "name": "A3",
            "ticks": 26400,
            "time": 37.4999625,
            "velocity": 0.4881889763779528
          },
          {
            "duration": 0.681817499999994,
            "durationTicks": 480,
            "midi": 64,
            "name": "E4",
            "ticks": 26400,
            "time": 37.4999625,
            "velocity": 0.4881889763779528
          },
          {
            "duration": 0.681817499999994,
            "durationTicks": 480,
            "midi": 69,
            "name": "A4",
            "ticks": 26400,
            "time": 37.4999625,
            "velocity": 0.4881889763779528
          },
          {
            "duration": 0.681817499999994,
            "durationTicks": 480,
            "midi": 64,
            "name": "E4",
            "ticks": 26400,
            "time": 37.4999625,
            "velocity": 0.4881889763779528
          },
          {
            "duration": 0.681817499999994,
            "durationTicks": 480,
            "midi": 69,
            "name": "A4",
            "ticks": 26400,
            "time": 37.4999625,
            "velocity": 0.4881889763779528
          },
          {
            "duration": 0.681817499999994,
            "durationTicks": 480,
            "midi": 57,
            "name": "A3",
            "ticks": 26400,
            "time": 37.4999625,
            "velocity": 0.4881889763779528
          },
          {
            "duration": 0.681817499999994,
            "durationTicks": 480,
            "midi": 64,
            "name": "E4",
            "ticks": 26400,
            "time": 37.4999625,
            "velocity": 0.4881889763779528
          },
          {
            "duration": 0.681817499999994,
            "durationTicks": 480,
            "midi": 57,
            "name": "A3",
            "ticks": 26400,
            "time": 37.4999625,
            "velocity": 0.4881889763779528
          },
          {
            "duration": 0.681817499999994,
            "durationTicks": 480,
            "midi": 57,
            "name": "A3",
            "ticks": 26400,
            "time": 37.4999625,
            "velocity": 0.4881889763779528
          },
          {
            "duration": 0.681817499999994,
            "durationTicks": 480,
            "midi": 64,
            "name": "E4",
            "ticks": 26400,
            "time": 37.4999625,
            "velocity": 0.4881889763779528
          },
          {
            "duration": 0.681817499999994,
            "durationTicks": 480,
            "midi": 69,
            "name": "A4",
            "ticks": 26400,
            "time": 37.4999625,
            "velocity": 0.4881889763779528
          },
          {
            "duration": 0.681817499999994,
            "durationTicks": 480,
            "midi": 57,
            "name": "A3",
            "ticks": 26400,
            "time": 37.4999625,
            "velocity": 0.4881889763779528
          },
          {
            "duration": 0.681817499999994,
            "durationTicks": 480,
            "midi": 57,
            "name": "A3",
            "ticks": 26400,
            "time": 37.4999625,
            "velocity": 0.4881889763779528
          },
          {
            "duration": 0.681817499999994,
            "durationTicks": 480,
            "midi": 64,
            "name": "E4",
            "ticks": 26400,
            "time": 37.4999625,
            "velocity": 0.4881889763779528
          },
          {
            "duration": 0.681817499999994,
            "durationTicks": 480,
            "midi": 69,
            "name": "A4",
            "ticks": 26400,
            "time": 37.4999625,
            "velocity": 0.4881889763779528
          },
          {
            "duration": 0.681817499999994,
            "durationTicks": 480,
            "midi": 64,
            "name": "E4",
            "ticks": 26400,
            "time": 37.4999625,
            "velocity": 0.4881889763779528
          },
          {
            "duration": 0.13636350000000164,
            "durationTicks": 96,
            "midi": 80,
            "name": "G#5",
            "ticks": 26496,
            "time": 37.636326,
            "velocity": 0.4881889763779528
          },
          {
            "duration": 0.13636350000000164,
            "durationTicks": 96,
            "midi": 80,
            "name": "G#5",
            "ticks": 26496,
            "time": 37.636326,
            "velocity": 0.4881889763779528
          },
          {
            "duration": 0.13636350000000164,
            "durationTicks": 96,
            "midi": 92,
            "name": "G#6",
            "ticks": 26496,
            "time": 37.636326,
            "velocity": 0.4881889763779528
          },
          {
            "duration": 0.13636350000000164,
            "durationTicks": 96,
            "midi": 80,
            "name": "G#5",
            "ticks": 26496,
            "time": 37.636326,
            "velocity": 0.4881889763779528
          },
          {
            "duration": 0.13636350000000164,
            "durationTicks": 96,
            "midi": 92,
            "name": "G#6",
            "ticks": 26496,
            "time": 37.636326,
            "velocity": 0.4881889763779528
          },
          {
            "duration": 0.13636350000000164,
            "durationTicks": 96,
            "midi": 92,
            "name": "G#6",
            "ticks": 26496,
            "time": 37.636326,
            "velocity": 0.4881889763779528
          },
          {
            "duration": 0.13636350000000164,
            "durationTicks": 96,
            "midi": 92,
            "name": "G#6",
            "ticks": 26496,
            "time": 37.636326,
            "velocity": 0.4881889763779528
          },
          {
            "duration": 0.13636350000000164,
            "durationTicks": 96,
            "midi": 80,
            "name": "G#5",
            "ticks": 26496,
            "time": 37.636326,
            "velocity": 0.4881889763779528
          },
          {
            "duration": 0.13636350000000164,
            "durationTicks": 96,
            "midi": 92,
            "name": "G#6",
            "ticks": 26496,
            "time": 37.636326,
            "velocity": 0.4881889763779528
          },
          {
            "duration": 0.13636350000000164,
            "durationTicks": 96,
            "midi": 92,
            "name": "G#6",
            "ticks": 26496,
            "time": 37.636326,
            "velocity": 0.4881889763779528
          },
          {
            "duration": 0.13636350000000164,
            "durationTicks": 96,
            "midi": 80,
            "name": "G#5",
            "ticks": 26496,
            "time": 37.636326,
            "velocity": 0.4881889763779528
          },
          {
            "duration": 0.13636350000000164,
            "durationTicks": 96,
            "midi": 80,
            "name": "G#5",
            "ticks": 26496,
            "time": 37.636326,
            "velocity": 0.4881889763779528
          },
          {
            "duration": 0.13636350000000164,
            "durationTicks": 96,
            "midi": 78,
            "name": "F#5",
            "ticks": 26592,
            "time": 37.7726895,
            "velocity": 0.4881889763779528
          },
          {
            "duration": 0.13636350000000164,
            "durationTicks": 96,
            "midi": 90,
            "name": "F#6",
            "ticks": 26592,
            "time": 37.7726895,
            "velocity": 0.4881889763779528
          },
          {
            "duration": 0.13636350000000164,
            "durationTicks": 96,
            "midi": 90,
            "name": "F#6",
            "ticks": 26592,
            "time": 37.7726895,
            "velocity": 0.4881889763779528
          },
          {
            "duration": 0.13636350000000164,
            "durationTicks": 96,
            "midi": 90,
            "name": "F#6",
            "ticks": 26592,
            "time": 37.7726895,
            "velocity": 0.4881889763779528
          },
          {
            "duration": 0.13636350000000164,
            "durationTicks": 96,
            "midi": 90,
            "name": "F#6",
            "ticks": 26592,
            "time": 37.7726895,
            "velocity": 0.4881889763779528
          },
          {
            "duration": 0.13636350000000164,
            "durationTicks": 96,
            "midi": 78,
            "name": "F#5",
            "ticks": 26592,
            "time": 37.7726895,
            "velocity": 0.4881889763779528
          },
          {
            "duration": 0.13636350000000164,
            "durationTicks": 96,
            "midi": 78,
            "name": "F#5",
            "ticks": 26592,
            "time": 37.7726895,
            "velocity": 0.4881889763779528
          },
          {
            "duration": 0.13636350000000164,
            "durationTicks": 96,
            "midi": 78,
            "name": "F#5",
            "ticks": 26592,
            "time": 37.7726895,
            "velocity": 0.4881889763779528
          },
          {
            "duration": 0.13636350000000164,
            "durationTicks": 96,
            "midi": 90,
            "name": "F#6",
            "ticks": 26592,
            "time": 37.7726895,
            "velocity": 0.4881889763779528
          },
          {
            "duration": 0.13636350000000164,
            "durationTicks": 96,
            "midi": 78,
            "name": "F#5",
            "ticks": 26592,
            "time": 37.7726895,
            "velocity": 0.4881889763779528
          },
          {
            "duration": 0.13636350000000164,
            "durationTicks": 96,
            "midi": 78,
            "name": "F#5",
            "ticks": 26592,
            "time": 37.7726895,
            "velocity": 0.4881889763779528
          },
          {
            "duration": 0.13636350000000164,
            "durationTicks": 96,
            "midi": 90,
            "name": "F#6",
            "ticks": 26592,
            "time": 37.7726895,
            "velocity": 0.4881889763779528
          },
          {
            "duration": 0.13636350000000164,
            "durationTicks": 96,
            "midi": 76,
            "name": "E5",
            "ticks": 26688,
            "time": 37.909053,
            "velocity": 0.4881889763779528
          },
          {
            "duration": 0.13636350000000164,
            "durationTicks": 96,
            "midi": 88,
            "name": "E6",
            "ticks": 26688,
            "time": 37.909053,
            "velocity": 0.4881889763779528
          },
          {
            "duration": 0.13636350000000164,
            "durationTicks": 96,
            "midi": 76,
            "name": "E5",
            "ticks": 26688,
            "time": 37.909053,
            "velocity": 0.4881889763779528
          },
          {
            "duration": 0.13636350000000164,
            "durationTicks": 96,
            "midi": 76,
            "name": "E5",
            "ticks": 26688,
            "time": 37.909053,
            "velocity": 0.4881889763779528
          },
          {
            "duration": 0.13636350000000164,
            "durationTicks": 96,
            "midi": 88,
            "name": "E6",
            "ticks": 26688,
            "time": 37.909053,
            "velocity": 0.4881889763779528
          },
          {
            "duration": 0.13636350000000164,
            "durationTicks": 96,
            "midi": 76,
            "name": "E5",
            "ticks": 26688,
            "time": 37.909053,
            "velocity": 0.4881889763779528
          },
          {
            "duration": 0.13636350000000164,
            "durationTicks": 96,
            "midi": 88,
            "name": "E6",
            "ticks": 26688,
            "time": 37.909053,
            "velocity": 0.4881889763779528
          },
          {
            "duration": 0.13636350000000164,
            "durationTicks": 96,
            "midi": 76,
            "name": "E5",
            "ticks": 26688,
            "time": 37.909053,
            "velocity": 0.4881889763779528
          },
          {
            "duration": 0.13636350000000164,
            "durationTicks": 96,
            "midi": 88,
            "name": "E6",
            "ticks": 26688,
            "time": 37.909053,
            "velocity": 0.4881889763779528
          },
          {
            "duration": 0.13636350000000164,
            "durationTicks": 96,
            "midi": 76,
            "name": "E5",
            "ticks": 26688,
            "time": 37.909053,
            "velocity": 0.4881889763779528
          },
          {
            "duration": 0.13636350000000164,
            "durationTicks": 96,
            "midi": 88,
            "name": "E6",
            "ticks": 26688,
            "time": 37.909053,
            "velocity": 0.4881889763779528
          },
          {
            "duration": 0.13636350000000164,
            "durationTicks": 96,
            "midi": 88,
            "name": "E6",
            "ticks": 26688,
            "time": 37.909053,
            "velocity": 0.4881889763779528
          },
          {
            "duration": 0.13636349999999453,
            "durationTicks": 96,
            "midi": 90,
            "name": "F#6",
            "ticks": 26784,
            "time": 38.0454165,
            "velocity": 0.4881889763779528
          },
          {
            "duration": 0.13636349999999453,
            "durationTicks": 96,
            "midi": 78,
            "name": "F#5",
            "ticks": 26784,
            "time": 38.0454165,
            "velocity": 0.4881889763779528
          },
          {
            "duration": 0.13636349999999453,
            "durationTicks": 96,
            "midi": 78,
            "name": "F#5",
            "ticks": 26784,
            "time": 38.0454165,
            "velocity": 0.4881889763779528
          },
          {
            "duration": 0.13636349999999453,
            "durationTicks": 96,
            "midi": 78,
            "name": "F#5",
            "ticks": 26784,
            "time": 38.0454165,
            "velocity": 0.4881889763779528
          },
          {
            "duration": 0.13636349999999453,
            "durationTicks": 96,
            "midi": 90,
            "name": "F#6",
            "ticks": 26784,
            "time": 38.0454165,
            "velocity": 0.4881889763779528
          },
          {
            "duration": 0.13636349999999453,
            "durationTicks": 96,
            "midi": 90,
            "name": "F#6",
            "ticks": 26784,
            "time": 38.0454165,
            "velocity": 0.4881889763779528
          },
          {
            "duration": 0.13636349999999453,
            "durationTicks": 96,
            "midi": 90,
            "name": "F#6",
            "ticks": 26784,
            "time": 38.0454165,
            "velocity": 0.4881889763779528
          },
          {
            "duration": 0.13636349999999453,
            "durationTicks": 96,
            "midi": 78,
            "name": "F#5",
            "ticks": 26784,
            "time": 38.0454165,
            "velocity": 0.4881889763779528
          },
          {
            "duration": 0.13636349999999453,
            "durationTicks": 96,
            "midi": 90,
            "name": "F#6",
            "ticks": 26784,
            "time": 38.0454165,
            "velocity": 0.4881889763779528
          },
          {
            "duration": 0.13636349999999453,
            "durationTicks": 96,
            "midi": 90,
            "name": "F#6",
            "ticks": 26784,
            "time": 38.0454165,
            "velocity": 0.4881889763779528
          },
          {
            "duration": 0.13636349999999453,
            "durationTicks": 96,
            "midi": 78,
            "name": "F#5",
            "ticks": 26784,
            "time": 38.0454165,
            "velocity": 0.4881889763779528
          },
          {
            "duration": 0.13636349999999453,
            "durationTicks": 96,
            "midi": 78,
            "name": "F#5",
            "ticks": 26784,
            "time": 38.0454165,
            "velocity": 0.4881889763779528
          },
          {
            "duration": 0.13636350000000164,
            "durationTicks": 96,
            "midi": 80,
            "name": "G#5",
            "ticks": 26880,
            "time": 38.181779999999996,
            "velocity": 0.4881889763779528
          },
          {
            "duration": 0.13636350000000164,
            "durationTicks": 96,
            "midi": 92,
            "name": "G#6",
            "ticks": 26880,
            "time": 38.181779999999996,
            "velocity": 0.4881889763779528
          },
          {
            "duration": 0.4090905000000049,
            "durationTicks": 288,
            "midi": 56,
            "name": "G#3",
            "ticks": 26880,
            "time": 38.181779999999996,
            "velocity": 0.4881889763779528
          },
          {
            "duration": 0.13636350000000164,
            "durationTicks": 96,
            "midi": 92,
            "name": "G#6",
            "ticks": 26880,
            "time": 38.181779999999996,
            "velocity": 0.4881889763779528
          },
          {
            "duration": 0.13636350000000164,
            "durationTicks": 96,
            "midi": 80,
            "name": "G#5",
            "ticks": 26880,
            "time": 38.181779999999996,
            "velocity": 0.4881889763779528
          },
          {
            "duration": 0.4090905000000049,
            "durationTicks": 288,
            "midi": 63,
            "name": "D#4",
            "ticks": 26880,
            "time": 38.181779999999996,
            "velocity": 0.4881889763779528
          },
          {
            "duration": 0.13636350000000164,
            "durationTicks": 96,
            "midi": 92,
            "name": "G#6",
            "ticks": 26880,
            "time": 38.181779999999996,
            "velocity": 0.4881889763779528
          },
          {
            "duration": 0.4090905000000049,
            "durationTicks": 288,
            "midi": 63,
            "name": "D#4",
            "ticks": 26880,
            "time": 38.181779999999996,
            "velocity": 0.4881889763779528
          },
          {
            "duration": 0.13636350000000164,
            "durationTicks": 96,
            "midi": 80,
            "name": "G#5",
            "ticks": 26880,
            "time": 38.181779999999996,
            "velocity": 0.4881889763779528
          },
          {
            "duration": 0.13636350000000164,
            "durationTicks": 96,
            "midi": 80,
            "name": "G#5",
            "ticks": 26880,
            "time": 38.181779999999996,
            "velocity": 0.4881889763779528
          },
          {
            "duration": 0.4090905000000049,
            "durationTicks": 288,
            "midi": 63,
            "name": "D#4",
            "ticks": 26880,
            "time": 38.181779999999996,
            "velocity": 0.4881889763779528
          },
          {
            "duration": 0.4090905000000049,
            "durationTicks": 288,
            "midi": 56,
            "name": "G#3",
            "ticks": 26880,
            "time": 38.181779999999996,
            "velocity": 0.4881889763779528
          },
          {
            "duration": 0.4090905000000049,
            "durationTicks": 288,
            "midi": 68,
            "name": "G#4",
            "ticks": 26880,
            "time": 38.181779999999996,
            "velocity": 0.4881889763779528
          },
          {
            "duration": 0.4090905000000049,
            "durationTicks": 288,
            "midi": 56,
            "name": "G#3",
            "ticks": 26880,
            "time": 38.181779999999996,
            "velocity": 0.4881889763779528
          },
          {
            "duration": 0.13636350000000164,
            "durationTicks": 96,
            "midi": 92,
            "name": "G#6",
            "ticks": 26880,
            "time": 38.181779999999996,
            "velocity": 0.4881889763779528
          },
          {
            "duration": 0.4090905000000049,
            "durationTicks": 288,
            "midi": 56,
            "name": "G#3",
            "ticks": 26880,
            "time": 38.181779999999996,
            "velocity": 0.4881889763779528
          },
          {
            "duration": 0.13636350000000164,
            "durationTicks": 96,
            "midi": 92,
            "name": "G#6",
            "ticks": 26880,
            "time": 38.181779999999996,
            "velocity": 0.4881889763779528
          },
          {
            "duration": 0.13636350000000164,
            "durationTicks": 96,
            "midi": 92,
            "name": "G#6",
            "ticks": 26880,
            "time": 38.181779999999996,
            "velocity": 0.4881889763779528
          },
          {
            "duration": 0.4090905000000049,
            "durationTicks": 288,
            "midi": 63,
            "name": "D#4",
            "ticks": 26880,
            "time": 38.181779999999996,
            "velocity": 0.4881889763779528
          },
          {
            "duration": 0.4090905000000049,
            "durationTicks": 288,
            "midi": 68,
            "name": "G#4",
            "ticks": 26880,
            "time": 38.181779999999996,
            "velocity": 0.4881889763779528
          },
          {
            "duration": 0.13636350000000164,
            "durationTicks": 96,
            "midi": 80,
            "name": "G#5",
            "ticks": 26880,
            "time": 38.181779999999996,
            "velocity": 0.4881889763779528
          },
          {
            "duration": 0.13636350000000164,
            "durationTicks": 96,
            "midi": 80,
            "name": "G#5",
            "ticks": 26880,
            "time": 38.181779999999996,
            "velocity": 0.4881889763779528
          },
          {
            "duration": 0.4090905000000049,
            "durationTicks": 288,
            "midi": 63,
            "name": "D#4",
            "ticks": 26880,
            "time": 38.181779999999996,
            "velocity": 0.4881889763779528
          },
          {
            "duration": 0.4090905000000049,
            "durationTicks": 288,
            "midi": 56,
            "name": "G#3",
            "ticks": 26880,
            "time": 38.181779999999996,
            "velocity": 0.4881889763779528
          },
          {
            "duration": 0.4090905000000049,
            "durationTicks": 288,
            "midi": 68,
            "name": "G#4",
            "ticks": 26880,
            "time": 38.181779999999996,
            "velocity": 0.4881889763779528
          },
          {
            "duration": 0.4090905000000049,
            "durationTicks": 288,
            "midi": 68,
            "name": "G#4",
            "ticks": 26880,
            "time": 38.181779999999996,
            "velocity": 0.4881889763779528
          },
          {
            "duration": 0.4090905000000049,
            "durationTicks": 288,
            "midi": 68,
            "name": "G#4",
            "ticks": 26880,
            "time": 38.181779999999996,
            "velocity": 0.4881889763779528
          },
          {
            "duration": 0.4090905000000049,
            "durationTicks": 288,
            "midi": 68,
            "name": "G#4",
            "ticks": 26880,
            "time": 38.181779999999996,
            "velocity": 0.4881889763779528
          },
          {
            "duration": 0.4090905000000049,
            "durationTicks": 288,
            "midi": 56,
            "name": "G#3",
            "ticks": 26880,
            "time": 38.181779999999996,
            "velocity": 0.4881889763779528
          },
          {
            "duration": 0.4090905000000049,
            "durationTicks": 288,
            "midi": 63,
            "name": "D#4",
            "ticks": 26880,
            "time": 38.181779999999996,
            "velocity": 0.4881889763779528
          },
          {
            "duration": 0.13636350000000164,
            "durationTicks": 96,
            "midi": 93,
            "name": "A6",
            "ticks": 26976,
            "time": 38.3181435,
            "velocity": 0.4881889763779528
          },
          {
            "duration": 0.13636350000000164,
            "durationTicks": 96,
            "midi": 93,
            "name": "A6",
            "ticks": 26976,
            "time": 38.3181435,
            "velocity": 0.4881889763779528
          },
          {
            "duration": 0.13636350000000164,
            "durationTicks": 96,
            "midi": 81,
            "name": "A5",
            "ticks": 26976,
            "time": 38.3181435,
            "velocity": 0.4881889763779528
          },
          {
            "duration": 0.13636350000000164,
            "durationTicks": 96,
            "midi": 93,
            "name": "A6",
            "ticks": 26976,
            "time": 38.3181435,
            "velocity": 0.4881889763779528
          },
          {
            "duration": 0.13636350000000164,
            "durationTicks": 96,
            "midi": 81,
            "name": "A5",
            "ticks": 26976,
            "time": 38.3181435,
            "velocity": 0.4881889763779528
          },
          {
            "duration": 0.13636350000000164,
            "durationTicks": 96,
            "midi": 93,
            "name": "A6",
            "ticks": 26976,
            "time": 38.3181435,
            "velocity": 0.4881889763779528
          },
          {
            "duration": 0.13636350000000164,
            "durationTicks": 96,
            "midi": 81,
            "name": "A5",
            "ticks": 26976,
            "time": 38.3181435,
            "velocity": 0.4881889763779528
          },
          {
            "duration": 0.13636350000000164,
            "durationTicks": 96,
            "midi": 93,
            "name": "A6",
            "ticks": 26976,
            "time": 38.3181435,
            "velocity": 0.4881889763779528
          },
          {
            "duration": 0.13636350000000164,
            "durationTicks": 96,
            "midi": 93,
            "name": "A6",
            "ticks": 26976,
            "time": 38.3181435,
            "velocity": 0.4881889763779528
          },
          {
            "duration": 0.13636350000000164,
            "durationTicks": 96,
            "midi": 81,
            "name": "A5",
            "ticks": 26976,
            "time": 38.3181435,
            "velocity": 0.4881889763779528
          },
          {
            "duration": 0.13636350000000164,
            "durationTicks": 96,
            "midi": 81,
            "name": "A5",
            "ticks": 26976,
            "time": 38.3181435,
            "velocity": 0.4881889763779528
          },
          {
            "duration": 0.13636350000000164,
            "durationTicks": 96,
            "midi": 81,
            "name": "A5",
            "ticks": 26976,
            "time": 38.3181435,
            "velocity": 0.4881889763779528
          },
          {
            "duration": 0.13636350000000164,
            "durationTicks": 96,
            "midi": 92,
            "name": "G#6",
            "ticks": 27072,
            "time": 38.454507,
            "velocity": 0.4881889763779528
          },
          {
            "duration": 0.13636350000000164,
            "durationTicks": 96,
            "midi": 92,
            "name": "G#6",
            "ticks": 27072,
            "time": 38.454507,
            "velocity": 0.4881889763779528
          },
          {
            "duration": 0.13636350000000164,
            "durationTicks": 96,
            "midi": 80,
            "name": "G#5",
            "ticks": 27072,
            "time": 38.454507,
            "velocity": 0.4881889763779528
          },
          {
            "duration": 0.13636350000000164,
            "durationTicks": 96,
            "midi": 80,
            "name": "G#5",
            "ticks": 27072,
            "time": 38.454507,
            "velocity": 0.4881889763779528
          },
          {
            "duration": 0.13636350000000164,
            "durationTicks": 96,
            "midi": 80,
            "name": "G#5",
            "ticks": 27072,
            "time": 38.454507,
            "velocity": 0.4881889763779528
          },
          {
            "duration": 0.13636350000000164,
            "durationTicks": 96,
            "midi": 80,
            "name": "G#5",
            "ticks": 27072,
            "time": 38.454507,
            "velocity": 0.4881889763779528
          },
          {
            "duration": 0.13636350000000164,
            "durationTicks": 96,
            "midi": 92,
            "name": "G#6",
            "ticks": 27072,
            "time": 38.454507,
            "velocity": 0.4881889763779528
          },
          {
            "duration": 0.13636350000000164,
            "durationTicks": 96,
            "midi": 92,
            "name": "G#6",
            "ticks": 27072,
            "time": 38.454507,
            "velocity": 0.4881889763779528
          },
          {
            "duration": 0.13636350000000164,
            "durationTicks": 96,
            "midi": 80,
            "name": "G#5",
            "ticks": 27072,
            "time": 38.454507,
            "velocity": 0.4881889763779528
          },
          {
            "duration": 0.13636350000000164,
            "durationTicks": 96,
            "midi": 92,
            "name": "G#6",
            "ticks": 27072,
            "time": 38.454507,
            "velocity": 0.4881889763779528
          },
          {
            "duration": 0.13636350000000164,
            "durationTicks": 96,
            "midi": 92,
            "name": "G#6",
            "ticks": 27072,
            "time": 38.454507,
            "velocity": 0.4881889763779528
          },
          {
            "duration": 0.13636350000000164,
            "durationTicks": 96,
            "midi": 80,
            "name": "G#5",
            "ticks": 27072,
            "time": 38.454507,
            "velocity": 0.4881889763779528
          },
          {
            "duration": 0.6818175000000011,
            "durationTicks": 480,
            "midi": 68,
            "name": "G#4",
            "ticks": 27168,
            "time": 38.5908705,
            "velocity": 0.4881889763779528
          },
          {
            "duration": 0.6818175000000011,
            "durationTicks": 480,
            "midi": 56,
            "name": "G#3",
            "ticks": 27168,
            "time": 38.5908705,
            "velocity": 0.4881889763779528
          },
          {
            "duration": 0.6818175000000011,
            "durationTicks": 480,
            "midi": 56,
            "name": "G#3",
            "ticks": 27168,
            "time": 38.5908705,
            "velocity": 0.4881889763779528
          },
          {
            "duration": 0.6818175000000011,
            "durationTicks": 480,
            "midi": 63,
            "name": "D#4",
            "ticks": 27168,
            "time": 38.5908705,
            "velocity": 0.4881889763779528
          },
          {
            "duration": 0.6818175000000011,
            "durationTicks": 480,
            "midi": 56,
            "name": "G#3",
            "ticks": 27168,
            "time": 38.5908705,
            "velocity": 0.4881889763779528
          },
          {
            "duration": 0.6818175000000011,
            "durationTicks": 480,
            "midi": 76,
            "name": "E5",
            "ticks": 27168,
            "time": 38.5908705,
            "velocity": 0.4881889763779528
          },
          {
            "duration": 0.6818175000000011,
            "durationTicks": 480,
            "midi": 88,
            "name": "E6",
            "ticks": 27168,
            "time": 38.5908705,
            "velocity": 0.4881889763779528
          },
          {
            "duration": 0.6818175000000011,
            "durationTicks": 480,
            "midi": 88,
            "name": "E6",
            "ticks": 27168,
            "time": 38.5908705,
            "velocity": 0.4881889763779528
          },
          {
            "duration": 0.6818175000000011,
            "durationTicks": 480,
            "midi": 63,
            "name": "D#4",
            "ticks": 27168,
            "time": 38.5908705,
            "velocity": 0.4881889763779528
          },
          {
            "duration": 0.6818175000000011,
            "durationTicks": 480,
            "midi": 88,
            "name": "E6",
            "ticks": 27168,
            "time": 38.5908705,
            "velocity": 0.4881889763779528
          },
          {
            "duration": 0.6818175000000011,
            "durationTicks": 480,
            "midi": 56,
            "name": "G#3",
            "ticks": 27168,
            "time": 38.5908705,
            "velocity": 0.4881889763779528
          },
          {
            "duration": 0.6818175000000011,
            "durationTicks": 480,
            "midi": 88,
            "name": "E6",
            "ticks": 27168,
            "time": 38.5908705,
            "velocity": 0.4881889763779528
          },
          {
            "duration": 0.6818175000000011,
            "durationTicks": 480,
            "midi": 76,
            "name": "E5",
            "ticks": 27168,
            "time": 38.5908705,
            "velocity": 0.4881889763779528
          },
          {
            "duration": 0.6818175000000011,
            "durationTicks": 480,
            "midi": 68,
            "name": "G#4",
            "ticks": 27168,
            "time": 38.5908705,
            "velocity": 0.4881889763779528
          },
          {
            "duration": 0.6818175000000011,
            "durationTicks": 480,
            "midi": 63,
            "name": "D#4",
            "ticks": 27168,
            "time": 38.5908705,
            "velocity": 0.4881889763779528
          },
          {
            "duration": 0.6818175000000011,
            "durationTicks": 480,
            "midi": 63,
            "name": "D#4",
            "ticks": 27168,
            "time": 38.5908705,
            "velocity": 0.4881889763779528
          },
          {
            "duration": 0.6818175000000011,
            "durationTicks": 480,
            "midi": 76,
            "name": "E5",
            "ticks": 27168,
            "time": 38.5908705,
            "velocity": 0.4881889763779528
          },
          {
            "duration": 0.6818175000000011,
            "durationTicks": 480,
            "midi": 68,
            "name": "G#4",
            "ticks": 27168,
            "time": 38.5908705,
            "velocity": 0.4881889763779528
          },
          {
            "duration": 0.6818175000000011,
            "durationTicks": 480,
            "midi": 76,
            "name": "E5",
            "ticks": 27168,
            "time": 38.5908705,
            "velocity": 0.4881889763779528
          },
          {
            "duration": 0.6818175000000011,
            "durationTicks": 480,
            "midi": 76,
            "name": "E5",
            "ticks": 27168,
            "time": 38.5908705,
            "velocity": 0.4881889763779528
          },
          {
            "duration": 0.6818175000000011,
            "durationTicks": 480,
            "midi": 63,
            "name": "D#4",
            "ticks": 27168,
            "time": 38.5908705,
            "velocity": 0.4881889763779528
          },
          {
            "duration": 0.6818175000000011,
            "durationTicks": 480,
            "midi": 56,
            "name": "G#3",
            "ticks": 27168,
            "time": 38.5908705,
            "velocity": 0.4881889763779528
          },
          {
            "duration": 0.6818175000000011,
            "durationTicks": 480,
            "midi": 63,
            "name": "D#4",
            "ticks": 27168,
            "time": 38.5908705,
            "velocity": 0.4881889763779528
          },
          {
            "duration": 0.6818175000000011,
            "durationTicks": 480,
            "midi": 88,
            "name": "E6",
            "ticks": 27168,
            "time": 38.5908705,
            "velocity": 0.4881889763779528
          },
          {
            "duration": 0.6818175000000011,
            "durationTicks": 480,
            "midi": 56,
            "name": "G#3",
            "ticks": 27168,
            "time": 38.5908705,
            "velocity": 0.4881889763779528
          },
          {
            "duration": 0.6818175000000011,
            "durationTicks": 480,
            "midi": 68,
            "name": "G#4",
            "ticks": 27168,
            "time": 38.5908705,
            "velocity": 0.4881889763779528
          },
          {
            "duration": 0.6818175000000011,
            "durationTicks": 480,
            "midi": 88,
            "name": "E6",
            "ticks": 27168,
            "time": 38.5908705,
            "velocity": 0.4881889763779528
          },
          {
            "duration": 0.6818175000000011,
            "durationTicks": 480,
            "midi": 76,
            "name": "E5",
            "ticks": 27168,
            "time": 38.5908705,
            "velocity": 0.4881889763779528
          },
          {
            "duration": 0.6818175000000011,
            "durationTicks": 480,
            "midi": 68,
            "name": "G#4",
            "ticks": 27168,
            "time": 38.5908705,
            "velocity": 0.4881889763779528
          },
          {
            "duration": 0.6818175000000011,
            "durationTicks": 480,
            "midi": 68,
            "name": "G#4",
            "ticks": 27168,
            "time": 38.5908705,
            "velocity": 0.4881889763779528
          },
          {
            "duration": 0.4090904999999978,
            "durationTicks": 288,
            "midi": 61,
            "name": "C#4",
            "ticks": 27648,
            "time": 39.272688,
            "velocity": 0.4881889763779528
          },
          {
            "duration": 0.4090904999999978,
            "durationTicks": 288,
            "midi": 61,
            "name": "C#4",
            "ticks": 27648,
            "time": 39.272688,
            "velocity": 0.4881889763779528
          },
          {
            "duration": 0.4090904999999978,
            "durationTicks": 288,
            "midi": 54,
            "name": "F#3",
            "ticks": 27648,
            "time": 39.272688,
            "velocity": 0.4881889763779528
          },
          {
            "duration": 0.4090904999999978,
            "durationTicks": 288,
            "midi": 61,
            "name": "C#4",
            "ticks": 27648,
            "time": 39.272688,
            "velocity": 0.4881889763779528
          },
          {
            "duration": 0.4090904999999978,
            "durationTicks": 288,
            "midi": 66,
            "name": "F#4",
            "ticks": 27648,
            "time": 39.272688,
            "velocity": 0.4881889763779528
          },
          {
            "duration": 0.4090904999999978,
            "durationTicks": 288,
            "midi": 61,
            "name": "C#4",
            "ticks": 27648,
            "time": 39.272688,
            "velocity": 0.4881889763779528
          },
          {
            "duration": 0.4090904999999978,
            "durationTicks": 288,
            "midi": 66,
            "name": "F#4",
            "ticks": 27648,
            "time": 39.272688,
            "velocity": 0.4881889763779528
          },
          {
            "duration": 0.4090904999999978,
            "durationTicks": 288,
            "midi": 54,
            "name": "F#3",
            "ticks": 27648,
            "time": 39.272688,
            "velocity": 0.4881889763779528
          },
          {
            "duration": 0.4090904999999978,
            "durationTicks": 288,
            "midi": 54,
            "name": "F#3",
            "ticks": 27648,
            "time": 39.272688,
            "velocity": 0.4881889763779528
          },
          {
            "duration": 0.4090904999999978,
            "durationTicks": 288,
            "midi": 54,
            "name": "F#3",
            "ticks": 27648,
            "time": 39.272688,
            "velocity": 0.4881889763779528
          },
          {
            "duration": 0.4090904999999978,
            "durationTicks": 288,
            "midi": 66,
            "name": "F#4",
            "ticks": 27648,
            "time": 39.272688,
            "velocity": 0.4881889763779528
          },
          {
            "duration": 0.4090904999999978,
            "durationTicks": 288,
            "midi": 61,
            "name": "C#4",
            "ticks": 27648,
            "time": 39.272688,
            "velocity": 0.4881889763779528
          },
          {
            "duration": 0.4090904999999978,
            "durationTicks": 288,
            "midi": 66,
            "name": "F#4",
            "ticks": 27648,
            "time": 39.272688,
            "velocity": 0.4881889763779528
          },
          {
            "duration": 0.4090904999999978,
            "durationTicks": 288,
            "midi": 66,
            "name": "F#4",
            "ticks": 27648,
            "time": 39.272688,
            "velocity": 0.4881889763779528
          },
          {
            "duration": 0.4090904999999978,
            "durationTicks": 288,
            "midi": 66,
            "name": "F#4",
            "ticks": 27648,
            "time": 39.272688,
            "velocity": 0.4881889763779528
          },
          {
            "duration": 0.4090904999999978,
            "durationTicks": 288,
            "midi": 54,
            "name": "F#3",
            "ticks": 27648,
            "time": 39.272688,
            "velocity": 0.4881889763779528
          },
          {
            "duration": 0.4090904999999978,
            "durationTicks": 288,
            "midi": 61,
            "name": "C#4",
            "ticks": 27648,
            "time": 39.272688,
            "velocity": 0.4881889763779528
          },
          {
            "duration": 0.4090904999999978,
            "durationTicks": 288,
            "midi": 54,
            "name": "F#3",
            "ticks": 27648,
            "time": 39.272688,
            "velocity": 0.4881889763779528
          },
          {
            "duration": 0.13636350000000164,
            "durationTicks": 96,
            "midi": 76,
            "name": "E5",
            "ticks": 27840,
            "time": 39.545415,
            "velocity": 0.4881889763779528
          },
          {
            "duration": 0.13636350000000164,
            "durationTicks": 96,
            "midi": 88,
            "name": "E6",
            "ticks": 27840,
            "time": 39.545415,
            "velocity": 0.4881889763779528
          },
          {
            "duration": 0.13636350000000164,
            "durationTicks": 96,
            "midi": 76,
            "name": "E5",
            "ticks": 27840,
            "time": 39.545415,
            "velocity": 0.4881889763779528
          },
          {
            "duration": 0.13636350000000164,
            "durationTicks": 96,
            "midi": 88,
            "name": "E6",
            "ticks": 27840,
            "time": 39.545415,
            "velocity": 0.4881889763779528
          },
          {
            "duration": 0.13636350000000164,
            "durationTicks": 96,
            "midi": 88,
            "name": "E6",
            "ticks": 27840,
            "time": 39.545415,
            "velocity": 0.4881889763779528
          },
          {
            "duration": 0.13636350000000164,
            "durationTicks": 96,
            "midi": 76,
            "name": "E5",
            "ticks": 27840,
            "time": 39.545415,
            "velocity": 0.4881889763779528
          },
          {
            "duration": 0.13636350000000164,
            "durationTicks": 96,
            "midi": 76,
            "name": "E5",
            "ticks": 27840,
            "time": 39.545415,
            "velocity": 0.4881889763779528
          },
          {
            "duration": 0.13636350000000164,
            "durationTicks": 96,
            "midi": 88,
            "name": "E6",
            "ticks": 27840,
            "time": 39.545415,
            "velocity": 0.4881889763779528
          },
          {
            "duration": 0.13636350000000164,
            "durationTicks": 96,
            "midi": 76,
            "name": "E5",
            "ticks": 27840,
            "time": 39.545415,
            "velocity": 0.4881889763779528
          },
          {
            "duration": 0.13636350000000164,
            "durationTicks": 96,
            "midi": 88,
            "name": "E6",
            "ticks": 27840,
            "time": 39.545415,
            "velocity": 0.4881889763779528
          },
          {
            "duration": 0.13636350000000164,
            "durationTicks": 96,
            "midi": 76,
            "name": "E5",
            "ticks": 27840,
            "time": 39.545415,
            "velocity": 0.4881889763779528
          },
          {
            "duration": 0.13636350000000164,
            "durationTicks": 96,
            "midi": 88,
            "name": "E6",
            "ticks": 27840,
            "time": 39.545415,
            "velocity": 0.4881889763779528
          },
          {
            "duration": 0.13636350000000164,
            "durationTicks": 96,
            "midi": 76,
            "name": "E5",
            "ticks": 27936,
            "time": 39.6817785,
            "velocity": 0.4881889763779528
          },
          {
            "duration": 0.13636350000000164,
            "durationTicks": 96,
            "midi": 88,
            "name": "E6",
            "ticks": 27936,
            "time": 39.6817785,
            "velocity": 0.4881889763779528
          },
          {
            "duration": 0.13636350000000164,
            "durationTicks": 96,
            "midi": 76,
            "name": "E5",
            "ticks": 27936,
            "time": 39.6817785,
            "velocity": 0.4881889763779528
          },
          {
            "duration": 0.6818175000000011,
            "durationTicks": 480,
            "midi": 61,
            "name": "C#4",
            "ticks": 27936,
            "time": 39.6817785,
            "velocity": 0.4881889763779528
          },
          {
            "duration": 0.13636350000000164,
            "durationTicks": 96,
            "midi": 76,
            "name": "E5",
            "ticks": 27936,
            "time": 39.6817785,
            "velocity": 0.4881889763779528
          },
          {
            "duration": 0.6818175000000011,
            "durationTicks": 480,
            "midi": 61,
            "name": "C#4",
            "ticks": 27936,
            "time": 39.6817785,
            "velocity": 0.4881889763779528
          },
          {
            "duration": 0.13636350000000164,
            "durationTicks": 96,
            "midi": 88,
            "name": "E6",
            "ticks": 27936,
            "time": 39.6817785,
            "velocity": 0.4881889763779528
          },
          {
            "duration": 0.6818175000000011,
            "durationTicks": 480,
            "midi": 54,
            "name": "F#3",
            "ticks": 27936,
            "time": 39.6817785,
            "velocity": 0.4881889763779528
          },
          {
            "duration": 0.6818175000000011,
            "durationTicks": 480,
            "midi": 61,
            "name": "C#4",
            "ticks": 27936,
            "time": 39.6817785,
            "velocity": 0.4881889763779528
          },
          {
            "duration": 0.6818175000000011,
            "durationTicks": 480,
            "midi": 54,
            "name": "F#3",
            "ticks": 27936,
            "time": 39.6817785,
            "velocity": 0.4881889763779528
          },
          {
            "duration": 0.6818175000000011,
            "durationTicks": 480,
            "midi": 54,
            "name": "F#3",
            "ticks": 27936,
            "time": 39.6817785,
            "velocity": 0.4881889763779528
          },
          {
            "duration": 0.6818175000000011,
            "durationTicks": 480,
            "midi": 54,
            "name": "F#3",
            "ticks": 27936,
            "time": 39.6817785,
            "velocity": 0.4881889763779528
          },
          {
            "duration": 0.6818175000000011,
            "durationTicks": 480,
            "midi": 66,
            "name": "F#4",
            "ticks": 27936,
            "time": 39.6817785,
            "velocity": 0.4881889763779528
          },
          {
            "duration": 0.13636350000000164,
            "durationTicks": 96,
            "midi": 88,
            "name": "E6",
            "ticks": 27936,
            "time": 39.6817785,
            "velocity": 0.4881889763779528
          },
          {
            "duration": 0.13636350000000164,
            "durationTicks": 96,
            "midi": 88,
            "name": "E6",
            "ticks": 27936,
            "time": 39.6817785,
            "velocity": 0.4881889763779528
          },
          {
            "duration": 0.6818175000000011,
            "durationTicks": 480,
            "midi": 61,
            "name": "C#4",
            "ticks": 27936,
            "time": 39.6817785,
            "velocity": 0.4881889763779528
          },
          {
            "duration": 0.6818175000000011,
            "durationTicks": 480,
            "midi": 61,
            "name": "C#4",
            "ticks": 27936,
            "time": 39.6817785,
            "velocity": 0.4881889763779528
          },
          {
            "duration": 0.6818175000000011,
            "durationTicks": 480,
            "midi": 61,
            "name": "C#4",
            "ticks": 27936,
            "time": 39.6817785,
            "velocity": 0.4881889763779528
          },
          {
            "duration": 0.6818175000000011,
            "durationTicks": 480,
            "midi": 66,
            "name": "F#4",
            "ticks": 27936,
            "time": 39.6817785,
            "velocity": 0.4881889763779528
          },
          {
            "duration": 0.6818175000000011,
            "durationTicks": 480,
            "midi": 66,
            "name": "F#4",
            "ticks": 27936,
            "time": 39.6817785,
            "velocity": 0.4881889763779528
          },
          {
            "duration": 0.13636350000000164,
            "durationTicks": 96,
            "midi": 88,
            "name": "E6",
            "ticks": 27936,
            "time": 39.6817785,
            "velocity": 0.4881889763779528
          },
          {
            "duration": 0.13636350000000164,
            "durationTicks": 96,
            "midi": 76,
            "name": "E5",
            "ticks": 27936,
            "time": 39.6817785,
            "velocity": 0.4881889763779528
          },
          {
            "duration": 0.13636350000000164,
            "durationTicks": 96,
            "midi": 88,
            "name": "E6",
            "ticks": 27936,
            "time": 39.6817785,
            "velocity": 0.4881889763779528
          },
          {
            "duration": 0.6818175000000011,
            "durationTicks": 480,
            "midi": 66,
            "name": "F#4",
            "ticks": 27936,
            "time": 39.6817785,
            "velocity": 0.4881889763779528
          },
          {
            "duration": 0.6818175000000011,
            "durationTicks": 480,
            "midi": 54,
            "name": "F#3",
            "ticks": 27936,
            "time": 39.6817785,
            "velocity": 0.4881889763779528
          },
          {
            "duration": 0.13636350000000164,
            "durationTicks": 96,
            "midi": 76,
            "name": "E5",
            "ticks": 27936,
            "time": 39.6817785,
            "velocity": 0.4881889763779528
          },
          {
            "duration": 0.6818175000000011,
            "durationTicks": 480,
            "midi": 66,
            "name": "F#4",
            "ticks": 27936,
            "time": 39.6817785,
            "velocity": 0.4881889763779528
          },
          {
            "duration": 0.6818175000000011,
            "durationTicks": 480,
            "midi": 54,
            "name": "F#3",
            "ticks": 27936,
            "time": 39.6817785,
            "velocity": 0.4881889763779528
          },
          {
            "duration": 0.13636350000000164,
            "durationTicks": 96,
            "midi": 76,
            "name": "E5",
            "ticks": 27936,
            "time": 39.6817785,
            "velocity": 0.4881889763779528
          },
          {
            "duration": 0.6818175000000011,
            "durationTicks": 480,
            "midi": 66,
            "name": "F#4",
            "ticks": 27936,
            "time": 39.6817785,
            "velocity": 0.4881889763779528
          },
          {
            "duration": 0.13636349999999453,
            "durationTicks": 96,
            "midi": 88,
            "name": "E6",
            "ticks": 28032,
            "time": 39.818142,
            "velocity": 0.4881889763779528
          },
          {
            "duration": 0.13636349999999453,
            "durationTicks": 96,
            "midi": 76,
            "name": "E5",
            "ticks": 28032,
            "time": 39.818142,
            "velocity": 0.4881889763779528
          },
          {
            "duration": 0.13636349999999453,
            "durationTicks": 96,
            "midi": 76,
            "name": "E5",
            "ticks": 28032,
            "time": 39.818142,
            "velocity": 0.4881889763779528
          },
          {
            "duration": 0.13636349999999453,
            "durationTicks": 96,
            "midi": 88,
            "name": "E6",
            "ticks": 28032,
            "time": 39.818142,
            "velocity": 0.4881889763779528
          },
          {
            "duration": 0.13636349999999453,
            "durationTicks": 96,
            "midi": 76,
            "name": "E5",
            "ticks": 28032,
            "time": 39.818142,
            "velocity": 0.4881889763779528
          },
          {
            "duration": 0.13636349999999453,
            "durationTicks": 96,
            "midi": 88,
            "name": "E6",
            "ticks": 28032,
            "time": 39.818142,
            "velocity": 0.4881889763779528
          },
          {
            "duration": 0.13636349999999453,
            "durationTicks": 96,
            "midi": 76,
            "name": "E5",
            "ticks": 28032,
            "time": 39.818142,
            "velocity": 0.4881889763779528
          },
          {
            "duration": 0.13636349999999453,
            "durationTicks": 96,
            "midi": 88,
            "name": "E6",
            "ticks": 28032,
            "time": 39.818142,
            "velocity": 0.4881889763779528
          },
          {
            "duration": 0.13636349999999453,
            "durationTicks": 96,
            "midi": 76,
            "name": "E5",
            "ticks": 28032,
            "time": 39.818142,
            "velocity": 0.4881889763779528
          },
          {
            "duration": 0.13636349999999453,
            "durationTicks": 96,
            "midi": 76,
            "name": "E5",
            "ticks": 28032,
            "time": 39.818142,
            "velocity": 0.4881889763779528
          },
          {
            "duration": 0.13636349999999453,
            "durationTicks": 96,
            "midi": 88,
            "name": "E6",
            "ticks": 28032,
            "time": 39.818142,
            "velocity": 0.4881889763779528
          },
          {
            "duration": 0.13636349999999453,
            "durationTicks": 96,
            "midi": 88,
            "name": "E6",
            "ticks": 28032,
            "time": 39.818142,
            "velocity": 0.4881889763779528
          },
          {
            "duration": 0.13636350000000164,
            "durationTicks": 96,
            "midi": 76,
            "name": "E5",
            "ticks": 28128,
            "time": 39.954505499999996,
            "velocity": 0.4881889763779528
          },
          {
            "duration": 0.13636350000000164,
            "durationTicks": 96,
            "midi": 88,
            "name": "E6",
            "ticks": 28128,
            "time": 39.954505499999996,
            "velocity": 0.4881889763779528
          },
          {
            "duration": 0.13636350000000164,
            "durationTicks": 96,
            "midi": 88,
            "name": "E6",
            "ticks": 28128,
            "time": 39.954505499999996,
            "velocity": 0.4881889763779528
          },
          {
            "duration": 0.13636350000000164,
            "durationTicks": 96,
            "midi": 76,
            "name": "E5",
            "ticks": 28128,
            "time": 39.954505499999996,
            "velocity": 0.4881889763779528
          },
          {
            "duration": 0.13636350000000164,
            "durationTicks": 96,
            "midi": 88,
            "name": "E6",
            "ticks": 28128,
            "time": 39.954505499999996,
            "velocity": 0.4881889763779528
          },
          {
            "duration": 0.13636350000000164,
            "durationTicks": 96,
            "midi": 88,
            "name": "E6",
            "ticks": 28128,
            "time": 39.954505499999996,
            "velocity": 0.4881889763779528
          },
          {
            "duration": 0.13636350000000164,
            "durationTicks": 96,
            "midi": 76,
            "name": "E5",
            "ticks": 28128,
            "time": 39.954505499999996,
            "velocity": 0.4881889763779528
          },
          {
            "duration": 0.13636350000000164,
            "durationTicks": 96,
            "midi": 88,
            "name": "E6",
            "ticks": 28128,
            "time": 39.954505499999996,
            "velocity": 0.4881889763779528
          },
          {
            "duration": 0.13636350000000164,
            "durationTicks": 96,
            "midi": 76,
            "name": "E5",
            "ticks": 28128,
            "time": 39.954505499999996,
            "velocity": 0.4881889763779528
          },
          {
            "duration": 0.13636350000000164,
            "durationTicks": 96,
            "midi": 76,
            "name": "E5",
            "ticks": 28128,
            "time": 39.954505499999996,
            "velocity": 0.4881889763779528
          },
          {
            "duration": 0.13636350000000164,
            "durationTicks": 96,
            "midi": 76,
            "name": "E5",
            "ticks": 28128,
            "time": 39.954505499999996,
            "velocity": 0.4881889763779528
          },
          {
            "duration": 0.13636350000000164,
            "durationTicks": 96,
            "midi": 88,
            "name": "E6",
            "ticks": 28128,
            "time": 39.954505499999996,
            "velocity": 0.4881889763779528
          },
          {
            "duration": 0.13636350000000164,
            "durationTicks": 96,
            "midi": 85,
            "name": "C#6",
            "ticks": 28224,
            "time": 40.090869,
            "velocity": 0.4881889763779528
          },
          {
            "duration": 0.13636350000000164,
            "durationTicks": 96,
            "midi": 85,
            "name": "C#6",
            "ticks": 28224,
            "time": 40.090869,
            "velocity": 0.4881889763779528
          },
          {
            "duration": 0.13636350000000164,
            "durationTicks": 96,
            "midi": 85,
            "name": "C#6",
            "ticks": 28224,
            "time": 40.090869,
            "velocity": 0.4881889763779528
          },
          {
            "duration": 0.13636350000000164,
            "durationTicks": 96,
            "midi": 85,
            "name": "C#6",
            "ticks": 28224,
            "time": 40.090869,
            "velocity": 0.4881889763779528
          },
          {
            "duration": 0.13636350000000164,
            "durationTicks": 96,
            "midi": 73,
            "name": "C#5",
            "ticks": 28224,
            "time": 40.090869,
            "velocity": 0.4881889763779528
          },
          {
            "duration": 0.13636350000000164,
            "durationTicks": 96,
            "midi": 85,
            "name": "C#6",
            "ticks": 28224,
            "time": 40.090869,
            "velocity": 0.4881889763779528
          },
          {
            "duration": 0.13636350000000164,
            "durationTicks": 96,
            "midi": 73,
            "name": "C#5",
            "ticks": 28224,
            "time": 40.090869,
            "velocity": 0.4881889763779528
          },
          {
            "duration": 0.13636350000000164,
            "durationTicks": 96,
            "midi": 73,
            "name": "C#5",
            "ticks": 28224,
            "time": 40.090869,
            "velocity": 0.4881889763779528
          },
          {
            "duration": 0.13636350000000164,
            "durationTicks": 96,
            "midi": 73,
            "name": "C#5",
            "ticks": 28224,
            "time": 40.090869,
            "velocity": 0.4881889763779528
          },
          {
            "duration": 0.13636350000000164,
            "durationTicks": 96,
            "midi": 85,
            "name": "C#6",
            "ticks": 28224,
            "time": 40.090869,
            "velocity": 0.4881889763779528
          },
          {
            "duration": 0.13636350000000164,
            "durationTicks": 96,
            "midi": 73,
            "name": "C#5",
            "ticks": 28224,
            "time": 40.090869,
            "velocity": 0.4881889763779528
          },
          {
            "duration": 0.13636350000000164,
            "durationTicks": 96,
            "midi": 73,
            "name": "C#5",
            "ticks": 28224,
            "time": 40.090869,
            "velocity": 0.4881889763779528
          },
          {
            "duration": 0.13636350000000164,
            "durationTicks": 96,
            "midi": 73,
            "name": "C#5",
            "ticks": 28320,
            "time": 40.2272325,
            "velocity": 0.4881889763779528
          },
          {
            "duration": 0.13636350000000164,
            "durationTicks": 96,
            "midi": 73,
            "name": "C#5",
            "ticks": 28320,
            "time": 40.2272325,
            "velocity": 0.4881889763779528
          },
          {
            "duration": 0.13636350000000164,
            "durationTicks": 96,
            "midi": 85,
            "name": "C#6",
            "ticks": 28320,
            "time": 40.2272325,
            "velocity": 0.4881889763779528
          },
          {
            "duration": 0.13636350000000164,
            "durationTicks": 96,
            "midi": 85,
            "name": "C#6",
            "ticks": 28320,
            "time": 40.2272325,
            "velocity": 0.4881889763779528
          },
          {
            "duration": 0.13636350000000164,
            "durationTicks": 96,
            "midi": 73,
            "name": "C#5",
            "ticks": 28320,
            "time": 40.2272325,
            "velocity": 0.4881889763779528
          },
          {
            "duration": 0.13636350000000164,
            "durationTicks": 96,
            "midi": 85,
            "name": "C#6",
            "ticks": 28320,
            "time": 40.2272325,
            "velocity": 0.4881889763779528
          },
          {
            "duration": 0.13636350000000164,
            "durationTicks": 96,
            "midi": 73,
            "name": "C#5",
            "ticks": 28320,
            "time": 40.2272325,
            "velocity": 0.4881889763779528
          },
          {
            "duration": 0.13636350000000164,
            "durationTicks": 96,
            "midi": 73,
            "name": "C#5",
            "ticks": 28320,
            "time": 40.2272325,
            "velocity": 0.4881889763779528
          },
          {
            "duration": 0.13636350000000164,
            "durationTicks": 96,
            "midi": 85,
            "name": "C#6",
            "ticks": 28320,
            "time": 40.2272325,
            "velocity": 0.4881889763779528
          },
          {
            "duration": 0.13636350000000164,
            "durationTicks": 96,
            "midi": 85,
            "name": "C#6",
            "ticks": 28320,
            "time": 40.2272325,
            "velocity": 0.4881889763779528
          },
          {
            "duration": 0.13636350000000164,
            "durationTicks": 96,
            "midi": 85,
            "name": "C#6",
            "ticks": 28320,
            "time": 40.2272325,
            "velocity": 0.4881889763779528
          },
          {
            "duration": 0.13636350000000164,
            "durationTicks": 96,
            "midi": 73,
            "name": "C#5",
            "ticks": 28320,
            "time": 40.2272325,
            "velocity": 0.4881889763779528
          },
          {
            "duration": 0.4090904999999978,
            "durationTicks": 288,
            "midi": 68,
            "name": "G#4",
            "ticks": 28416,
            "time": 40.363596,
            "velocity": 0.4881889763779528
          },
          {
            "duration": 0.4090904999999978,
            "durationTicks": 288,
            "midi": 61,
            "name": "C#4",
            "ticks": 28416,
            "time": 40.363596,
            "velocity": 0.4881889763779528
          },
          {
            "duration": 0.4090904999999978,
            "durationTicks": 288,
            "midi": 56,
            "name": "G#3",
            "ticks": 28416,
            "time": 40.363596,
            "velocity": 0.4881889763779528
          },
          {
            "duration": 0.4090904999999978,
            "durationTicks": 288,
            "midi": 56,
            "name": "G#3",
            "ticks": 28416,
            "time": 40.363596,
            "velocity": 0.4881889763779528
          },
          {
            "duration": 0.4090904999999978,
            "durationTicks": 288,
            "midi": 56,
            "name": "G#3",
            "ticks": 28416,
            "time": 40.363596,
            "velocity": 0.4881889763779528
          },
          {
            "duration": 0.4090904999999978,
            "durationTicks": 288,
            "midi": 61,
            "name": "C#4",
            "ticks": 28416,
            "time": 40.363596,
            "velocity": 0.4881889763779528
          },
          {
            "duration": 0.4090904999999978,
            "durationTicks": 288,
            "midi": 68,
            "name": "G#4",
            "ticks": 28416,
            "time": 40.363596,
            "velocity": 0.4881889763779528
          },
          {
            "duration": 0.4090904999999978,
            "durationTicks": 288,
            "midi": 56,
            "name": "G#3",
            "ticks": 28416,
            "time": 40.363596,
            "velocity": 0.4881889763779528
          },
          {
            "duration": 0.4090904999999978,
            "durationTicks": 288,
            "midi": 61,
            "name": "C#4",
            "ticks": 28416,
            "time": 40.363596,
            "velocity": 0.4881889763779528
          },
          {
            "duration": 0.4090904999999978,
            "durationTicks": 288,
            "midi": 61,
            "name": "C#4",
            "ticks": 28416,
            "time": 40.363596,
            "velocity": 0.4881889763779528
          },
          {
            "duration": 0.4090904999999978,
            "durationTicks": 288,
            "midi": 68,
            "name": "G#4",
            "ticks": 28416,
            "time": 40.363596,
            "velocity": 0.4881889763779528
          },
          {
            "duration": 0.4090904999999978,
            "durationTicks": 288,
            "midi": 68,
            "name": "G#4",
            "ticks": 28416,
            "time": 40.363596,
            "velocity": 0.4881889763779528
          },
          {
            "duration": 0.4090904999999978,
            "durationTicks": 288,
            "midi": 61,
            "name": "C#4",
            "ticks": 28416,
            "time": 40.363596,
            "velocity": 0.4881889763779528
          },
          {
            "duration": 0.4090904999999978,
            "durationTicks": 288,
            "midi": 61,
            "name": "C#4",
            "ticks": 28416,
            "time": 40.363596,
            "velocity": 0.4881889763779528
          },
          {
            "duration": 0.4090904999999978,
            "durationTicks": 288,
            "midi": 68,
            "name": "G#4",
            "ticks": 28416,
            "time": 40.363596,
            "velocity": 0.4881889763779528
          },
          {
            "duration": 0.4090904999999978,
            "durationTicks": 288,
            "midi": 56,
            "name": "G#3",
            "ticks": 28416,
            "time": 40.363596,
            "velocity": 0.4881889763779528
          },
          {
            "duration": 0.4090904999999978,
            "durationTicks": 288,
            "midi": 68,
            "name": "G#4",
            "ticks": 28416,
            "time": 40.363596,
            "velocity": 0.4881889763779528
          },
          {
            "duration": 0.4090904999999978,
            "durationTicks": 288,
            "midi": 56,
            "name": "G#3",
            "ticks": 28416,
            "time": 40.363596,
            "velocity": 0.4881889763779528
          },
          {
            "duration": 0.13636350000000164,
            "durationTicks": 96,
            "midi": 76,
            "name": "E5",
            "ticks": 28608,
            "time": 40.636323,
            "velocity": 0.4881889763779528
          },
          {
            "duration": 0.13636350000000164,
            "durationTicks": 96,
            "midi": 88,
            "name": "E6",
            "ticks": 28608,
            "time": 40.636323,
            "velocity": 0.4881889763779528
          },
          {
            "duration": 0.13636350000000164,
            "durationTicks": 96,
            "midi": 88,
            "name": "E6",
            "ticks": 28608,
            "time": 40.636323,
            "velocity": 0.4881889763779528
          },
          {
            "duration": 0.13636350000000164,
            "durationTicks": 96,
            "midi": 88,
            "name": "E6",
            "ticks": 28608,
            "time": 40.636323,
            "velocity": 0.4881889763779528
          },
          {
            "duration": 0.13636350000000164,
            "durationTicks": 96,
            "midi": 76,
            "name": "E5",
            "ticks": 28608,
            "time": 40.636323,
            "velocity": 0.4881889763779528
          },
          {
            "duration": 0.13636350000000164,
            "durationTicks": 96,
            "midi": 76,
            "name": "E5",
            "ticks": 28608,
            "time": 40.636323,
            "velocity": 0.4881889763779528
          },
          {
            "duration": 0.13636350000000164,
            "durationTicks": 96,
            "midi": 88,
            "name": "E6",
            "ticks": 28608,
            "time": 40.636323,
            "velocity": 0.4881889763779528
          },
          {
            "duration": 0.13636350000000164,
            "durationTicks": 96,
            "midi": 76,
            "name": "E5",
            "ticks": 28608,
            "time": 40.636323,
            "velocity": 0.4881889763779528
          },
          {
            "duration": 0.13636350000000164,
            "durationTicks": 96,
            "midi": 76,
            "name": "E5",
            "ticks": 28608,
            "time": 40.636323,
            "velocity": 0.4881889763779528
          },
          {
            "duration": 0.13636350000000164,
            "durationTicks": 96,
            "midi": 88,
            "name": "E6",
            "ticks": 28608,
            "time": 40.636323,
            "velocity": 0.4881889763779528
          },
          {
            "duration": 0.13636350000000164,
            "durationTicks": 96,
            "midi": 88,
            "name": "E6",
            "ticks": 28608,
            "time": 40.636323,
            "velocity": 0.4881889763779528
          },
          {
            "duration": 0.13636350000000164,
            "durationTicks": 96,
            "midi": 76,
            "name": "E5",
            "ticks": 28608,
            "time": 40.636323,
            "velocity": 0.4881889763779528
          },
          {
            "duration": 0.6818175000000011,
            "durationTicks": 480,
            "midi": 68,
            "name": "G#4",
            "ticks": 28704,
            "time": 40.7726865,
            "velocity": 0.4881889763779528
          },
          {
            "duration": 0.6818175000000011,
            "durationTicks": 480,
            "midi": 56,
            "name": "G#3",
            "ticks": 28704,
            "time": 40.7726865,
            "velocity": 0.4881889763779528
          },
          {
            "duration": 0.13636350000000164,
            "durationTicks": 96,
            "midi": 88,
            "name": "E6",
            "ticks": 28704,
            "time": 40.7726865,
            "velocity": 0.4881889763779528
          },
          {
            "duration": 0.13636350000000164,
            "durationTicks": 96,
            "midi": 76,
            "name": "E5",
            "ticks": 28704,
            "time": 40.7726865,
            "velocity": 0.4881889763779528
          },
          {
            "duration": 0.6818175000000011,
            "durationTicks": 480,
            "midi": 61,
            "name": "C#4",
            "ticks": 28704,
            "time": 40.7726865,
            "velocity": 0.4881889763779528
          },
          {
            "duration": 0.6818175000000011,
            "durationTicks": 480,
            "midi": 56,
            "name": "G#3",
            "ticks": 28704,
            "time": 40.7726865,
            "velocity": 0.4881889763779528
          },
          {
            "duration": 0.6818175000000011,
            "durationTicks": 480,
            "midi": 56,
            "name": "G#3",
            "ticks": 28704,
            "time": 40.7726865,
            "velocity": 0.4881889763779528
          },
          {
            "duration": 0.13636350000000164,
            "durationTicks": 96,
            "midi": 88,
            "name": "E6",
            "ticks": 28704,
            "time": 40.7726865,
            "velocity": 0.4881889763779528
          },
          {
            "duration": 0.13636350000000164,
            "durationTicks": 96,
            "midi": 76,
            "name": "E5",
            "ticks": 28704,
            "time": 40.7726865,
            "velocity": 0.4881889763779528
          },
          {
            "duration": 0.6818175000000011,
            "durationTicks": 480,
            "midi": 68,
            "name": "G#4",
            "ticks": 28704,
            "time": 40.7726865,
            "velocity": 0.4881889763779528
          },
          {
            "duration": 0.6818175000000011,
            "durationTicks": 480,
            "midi": 68,
            "name": "G#4",
            "ticks": 28704,
            "time": 40.7726865,
            "velocity": 0.4881889763779528
          },
          {
            "duration": 0.6818175000000011,
            "durationTicks": 480,
            "midi": 56,
            "name": "G#3",
            "ticks": 28704,
            "time": 40.7726865,
            "velocity": 0.4881889763779528
          },
          {
            "duration": 0.13636350000000164,
            "durationTicks": 96,
            "midi": 88,
            "name": "E6",
            "ticks": 28704,
            "time": 40.7726865,
            "velocity": 0.4881889763779528
          },
          {
            "duration": 0.6818175000000011,
            "durationTicks": 480,
            "midi": 61,
            "name": "C#4",
            "ticks": 28704,
            "time": 40.7726865,
            "velocity": 0.4881889763779528
          },
          {
            "duration": 0.6818175000000011,
            "durationTicks": 480,
            "midi": 61,
            "name": "C#4",
            "ticks": 28704,
            "time": 40.7726865,
            "velocity": 0.4881889763779528
          },
          {
            "duration": 0.6818175000000011,
            "durationTicks": 480,
            "midi": 68,
            "name": "G#4",
            "ticks": 28704,
            "time": 40.7726865,
            "velocity": 0.4881889763779528
          },
          {
            "duration": 0.6818175000000011,
            "durationTicks": 480,
            "midi": 68,
            "name": "G#4",
            "ticks": 28704,
            "time": 40.7726865,
            "velocity": 0.4881889763779528
          },
          {
            "duration": 0.13636350000000164,
            "durationTicks": 96,
            "midi": 76,
            "name": "E5",
            "ticks": 28704,
            "time": 40.7726865,
            "velocity": 0.4881889763779528
          },
          {
            "duration": 0.6818175000000011,
            "durationTicks": 480,
            "midi": 61,
            "name": "C#4",
            "ticks": 28704,
            "time": 40.7726865,
            "velocity": 0.4881889763779528
          },
          {
            "duration": 0.13636350000000164,
            "durationTicks": 96,
            "midi": 76,
            "name": "E5",
            "ticks": 28704,
            "time": 40.7726865,
            "velocity": 0.4881889763779528
          },
          {
            "duration": 0.13636350000000164,
            "durationTicks": 96,
            "midi": 88,
            "name": "E6",
            "ticks": 28704,
            "time": 40.7726865,
            "velocity": 0.4881889763779528
          },
          {
            "duration": 0.13636350000000164,
            "durationTicks": 96,
            "midi": 76,
            "name": "E5",
            "ticks": 28704,
            "time": 40.7726865,
            "velocity": 0.4881889763779528
          },
          {
            "duration": 0.6818175000000011,
            "durationTicks": 480,
            "midi": 68,
            "name": "G#4",
            "ticks": 28704,
            "time": 40.7726865,
            "velocity": 0.4881889763779528
          },
          {
            "duration": 0.6818175000000011,
            "durationTicks": 480,
            "midi": 56,
            "name": "G#3",
            "ticks": 28704,
            "time": 40.7726865,
            "velocity": 0.4881889763779528
          },
          {
            "duration": 0.13636350000000164,
            "durationTicks": 96,
            "midi": 76,
            "name": "E5",
            "ticks": 28704,
            "time": 40.7726865,
            "velocity": 0.4881889763779528
          },
          {
            "duration": 0.13636350000000164,
            "durationTicks": 96,
            "midi": 88,
            "name": "E6",
            "ticks": 28704,
            "time": 40.7726865,
            "velocity": 0.4881889763779528
          },
          {
            "duration": 0.6818175000000011,
            "durationTicks": 480,
            "midi": 61,
            "name": "C#4",
            "ticks": 28704,
            "time": 40.7726865,
            "velocity": 0.4881889763779528
          },
          {
            "duration": 0.6818175000000011,
            "durationTicks": 480,
            "midi": 56,
            "name": "G#3",
            "ticks": 28704,
            "time": 40.7726865,
            "velocity": 0.4881889763779528
          },
          {
            "duration": 0.6818175000000011,
            "durationTicks": 480,
            "midi": 61,
            "name": "C#4",
            "ticks": 28704,
            "time": 40.7726865,
            "velocity": 0.4881889763779528
          },
          {
            "duration": 0.13636350000000164,
            "durationTicks": 96,
            "midi": 88,
            "name": "E6",
            "ticks": 28704,
            "time": 40.7726865,
            "velocity": 0.4881889763779528
          },
          {
            "duration": 0.13636350000000164,
            "durationTicks": 96,
            "midi": 76,
            "name": "E5",
            "ticks": 28800,
            "time": 40.90905,
            "velocity": 0.4881889763779528
          },
          {
            "duration": 0.13636350000000164,
            "durationTicks": 96,
            "midi": 76,
            "name": "E5",
            "ticks": 28800,
            "time": 40.90905,
            "velocity": 0.4881889763779528
          },
          {
            "duration": 0.13636350000000164,
            "durationTicks": 96,
            "midi": 88,
            "name": "E6",
            "ticks": 28800,
            "time": 40.90905,
            "velocity": 0.4881889763779528
          },
          {
            "duration": 0.13636350000000164,
            "durationTicks": 96,
            "midi": 88,
            "name": "E6",
            "ticks": 28800,
            "time": 40.90905,
            "velocity": 0.4881889763779528
          },
          {
            "duration": 0.13636350000000164,
            "durationTicks": 96,
            "midi": 88,
            "name": "E6",
            "ticks": 28800,
            "time": 40.90905,
            "velocity": 0.4881889763779528
          },
          {
            "duration": 0.13636350000000164,
            "durationTicks": 96,
            "midi": 88,
            "name": "E6",
            "ticks": 28800,
            "time": 40.90905,
            "velocity": 0.4881889763779528
          },
          {
            "duration": 0.13636350000000164,
            "durationTicks": 96,
            "midi": 76,
            "name": "E5",
            "ticks": 28800,
            "time": 40.90905,
            "velocity": 0.4881889763779528
          },
          {
            "duration": 0.13636350000000164,
            "durationTicks": 96,
            "midi": 76,
            "name": "E5",
            "ticks": 28800,
            "time": 40.90905,
            "velocity": 0.4881889763779528
          },
          {
            "duration": 0.13636350000000164,
            "durationTicks": 96,
            "midi": 76,
            "name": "E5",
            "ticks": 28800,
            "time": 40.90905,
            "velocity": 0.4881889763779528
          },
          {
            "duration": 0.13636350000000164,
            "durationTicks": 96,
            "midi": 88,
            "name": "E6",
            "ticks": 28800,
            "time": 40.90905,
            "velocity": 0.4881889763779528
          },
          {
            "duration": 0.13636350000000164,
            "durationTicks": 96,
            "midi": 76,
            "name": "E5",
            "ticks": 28800,
            "time": 40.90905,
            "velocity": 0.4881889763779528
          },
          {
            "duration": 0.13636350000000164,
            "durationTicks": 96,
            "midi": 88,
            "name": "E6",
            "ticks": 28800,
            "time": 40.90905,
            "velocity": 0.4881889763779528
          },
          {
            "duration": 0.13636349999999453,
            "durationTicks": 96,
            "midi": 76,
            "name": "E5",
            "ticks": 28896,
            "time": 41.0454135,
            "velocity": 0.4881889763779528
          },
          {
            "duration": 0.13636349999999453,
            "durationTicks": 96,
            "midi": 88,
            "name": "E6",
            "ticks": 28896,
            "time": 41.0454135,
            "velocity": 0.4881889763779528
          },
          {
            "duration": 0.13636349999999453,
            "durationTicks": 96,
            "midi": 88,
            "name": "E6",
            "ticks": 28896,
            "time": 41.0454135,
            "velocity": 0.4881889763779528
          },
          {
            "duration": 0.13636349999999453,
            "durationTicks": 96,
            "midi": 88,
            "name": "E6",
            "ticks": 28896,
            "time": 41.0454135,
            "velocity": 0.4881889763779528
          },
          {
            "duration": 0.13636349999999453,
            "durationTicks": 96,
            "midi": 76,
            "name": "E5",
            "ticks": 28896,
            "time": 41.0454135,
            "velocity": 0.4881889763779528
          },
          {
            "duration": 0.13636349999999453,
            "durationTicks": 96,
            "midi": 88,
            "name": "E6",
            "ticks": 28896,
            "time": 41.0454135,
            "velocity": 0.4881889763779528
          },
          {
            "duration": 0.13636349999999453,
            "durationTicks": 96,
            "midi": 76,
            "name": "E5",
            "ticks": 28896,
            "time": 41.0454135,
            "velocity": 0.4881889763779528
          },
          {
            "duration": 0.13636349999999453,
            "durationTicks": 96,
            "midi": 76,
            "name": "E5",
            "ticks": 28896,
            "time": 41.0454135,
            "velocity": 0.4881889763779528
          },
          {
            "duration": 0.13636349999999453,
            "durationTicks": 96,
            "midi": 76,
            "name": "E5",
            "ticks": 28896,
            "time": 41.0454135,
            "velocity": 0.4881889763779528
          },
          {
            "duration": 0.13636349999999453,
            "durationTicks": 96,
            "midi": 88,
            "name": "E6",
            "ticks": 28896,
            "time": 41.0454135,
            "velocity": 0.4881889763779528
          },
          {
            "duration": 0.13636349999999453,
            "durationTicks": 96,
            "midi": 88,
            "name": "E6",
            "ticks": 28896,
            "time": 41.0454135,
            "velocity": 0.4881889763779528
          },
          {
            "duration": 0.13636349999999453,
            "durationTicks": 96,
            "midi": 76,
            "name": "E5",
            "ticks": 28896,
            "time": 41.0454135,
            "velocity": 0.4881889763779528
          },
          {
            "duration": 0.13636350000000164,
            "durationTicks": 96,
            "midi": 85,
            "name": "C#6",
            "ticks": 28992,
            "time": 41.181777,
            "velocity": 0.4881889763779528
          },
          {
            "duration": 0.13636350000000164,
            "durationTicks": 96,
            "midi": 85,
            "name": "C#6",
            "ticks": 28992,
            "time": 41.181777,
            "velocity": 0.4881889763779528
          },
          {
            "duration": 0.13636350000000164,
            "durationTicks": 96,
            "midi": 73,
            "name": "C#5",
            "ticks": 28992,
            "time": 41.181777,
            "velocity": 0.4881889763779528
          },
          {
            "duration": 0.13636350000000164,
            "durationTicks": 96,
            "midi": 85,
            "name": "C#6",
            "ticks": 28992,
            "time": 41.181777,
            "velocity": 0.4881889763779528
          },
          {
            "duration": 0.13636350000000164,
            "durationTicks": 96,
            "midi": 85,
            "name": "C#6",
            "ticks": 28992,
            "time": 41.181777,
            "velocity": 0.4881889763779528
          },
          {
            "duration": 0.13636350000000164,
            "durationTicks": 96,
            "midi": 73,
            "name": "C#5",
            "ticks": 28992,
            "time": 41.181777,
            "velocity": 0.4881889763779528
          },
          {
            "duration": 0.13636350000000164,
            "durationTicks": 96,
            "midi": 73,
            "name": "C#5",
            "ticks": 28992,
            "time": 41.181777,
            "velocity": 0.4881889763779528
          },
          {
            "duration": 0.13636350000000164,
            "durationTicks": 96,
            "midi": 85,
            "name": "C#6",
            "ticks": 28992,
            "time": 41.181777,
            "velocity": 0.4881889763779528
          },
          {
            "duration": 0.13636350000000164,
            "durationTicks": 96,
            "midi": 73,
            "name": "C#5",
            "ticks": 28992,
            "time": 41.181777,
            "velocity": 0.4881889763779528
          },
          {
            "duration": 0.13636350000000164,
            "durationTicks": 96,
            "midi": 73,
            "name": "C#5",
            "ticks": 28992,
            "time": 41.181777,
            "velocity": 0.4881889763779528
          },
          {
            "duration": 0.13636350000000164,
            "durationTicks": 96,
            "midi": 85,
            "name": "C#6",
            "ticks": 28992,
            "time": 41.181777,
            "velocity": 0.4881889763779528
          },
          {
            "duration": 0.13636350000000164,
            "durationTicks": 96,
            "midi": 73,
            "name": "C#5",
            "ticks": 28992,
            "time": 41.181777,
            "velocity": 0.4881889763779528
          },
          {
            "duration": 0.13636350000000164,
            "durationTicks": 96,
            "midi": 85,
            "name": "C#6",
            "ticks": 29088,
            "time": 41.3181405,
            "velocity": 0.4881889763779528
          },
          {
            "duration": 0.13636350000000164,
            "durationTicks": 96,
            "midi": 73,
            "name": "C#5",
            "ticks": 29088,
            "time": 41.3181405,
            "velocity": 0.4881889763779528
          },
          {
            "duration": 0.13636350000000164,
            "durationTicks": 96,
            "midi": 85,
            "name": "C#6",
            "ticks": 29088,
            "time": 41.3181405,
            "velocity": 0.4881889763779528
          },
          {
            "duration": 0.13636350000000164,
            "durationTicks": 96,
            "midi": 73,
            "name": "C#5",
            "ticks": 29088,
            "time": 41.3181405,
            "velocity": 0.4881889763779528
          },
          {
            "duration": 0.13636350000000164,
            "durationTicks": 96,
            "midi": 85,
            "name": "C#6",
            "ticks": 29088,
            "time": 41.3181405,
            "velocity": 0.4881889763779528
          },
          {
            "duration": 0.13636350000000164,
            "durationTicks": 96,
            "midi": 73,
            "name": "C#5",
            "ticks": 29088,
            "time": 41.3181405,
            "velocity": 0.4881889763779528
          },
          {
            "duration": 0.13636350000000164,
            "durationTicks": 96,
            "midi": 85,
            "name": "C#6",
            "ticks": 29088,
            "time": 41.3181405,
            "velocity": 0.4881889763779528
          },
          {
            "duration": 0.13636350000000164,
            "durationTicks": 96,
            "midi": 85,
            "name": "C#6",
            "ticks": 29088,
            "time": 41.3181405,
            "velocity": 0.4881889763779528
          },
          {
            "duration": 0.13636350000000164,
            "durationTicks": 96,
            "midi": 85,
            "name": "C#6",
            "ticks": 29088,
            "time": 41.3181405,
            "velocity": 0.4881889763779528
          },
          {
            "duration": 0.13636350000000164,
            "durationTicks": 96,
            "midi": 73,
            "name": "C#5",
            "ticks": 29088,
            "time": 41.3181405,
            "velocity": 0.4881889763779528
          },
          {
            "duration": 0.13636350000000164,
            "durationTicks": 96,
            "midi": 73,
            "name": "C#5",
            "ticks": 29088,
            "time": 41.3181405,
            "velocity": 0.4881889763779528
          },
          {
            "duration": 0.13636350000000164,
            "durationTicks": 96,
            "midi": 73,
            "name": "C#5",
            "ticks": 29088,
            "time": 41.3181405,
            "velocity": 0.4881889763779528
          },
          {
            "duration": 0.4090904999999978,
            "durationTicks": 288,
            "midi": 61,
            "name": "C#4",
            "ticks": 29184,
            "time": 41.454504,
            "velocity": 0.4881889763779528
          },
          {
            "duration": 0.4090904999999978,
            "durationTicks": 288,
            "midi": 68,
            "name": "G#4",
            "ticks": 29184,
            "time": 41.454504,
            "velocity": 0.4881889763779528
          },
          {
            "duration": 0.4090904999999978,
            "durationTicks": 288,
            "midi": 56,
            "name": "G#3",
            "ticks": 29184,
            "time": 41.454504,
            "velocity": 0.4881889763779528
          },
          {
            "duration": 0.4090904999999978,
            "durationTicks": 288,
            "midi": 68,
            "name": "G#4",
            "ticks": 29184,
            "time": 41.454504,
            "velocity": 0.4881889763779528
          },
          {
            "duration": 0.4090904999999978,
            "durationTicks": 288,
            "midi": 61,
            "name": "C#4",
            "ticks": 29184,
            "time": 41.454504,
            "velocity": 0.4881889763779528
          },
          {
            "duration": 0.4090904999999978,
            "durationTicks": 288,
            "midi": 68,
            "name": "G#4",
            "ticks": 29184,
            "time": 41.454504,
            "velocity": 0.4881889763779528
          },
          {
            "duration": 0.4090904999999978,
            "durationTicks": 288,
            "midi": 56,
            "name": "G#3",
            "ticks": 29184,
            "time": 41.454504,
            "velocity": 0.4881889763779528
          },
          {
            "duration": 0.4090904999999978,
            "durationTicks": 288,
            "midi": 61,
            "name": "C#4",
            "ticks": 29184,
            "time": 41.454504,
            "velocity": 0.4881889763779528
          },
          {
            "duration": 0.4090904999999978,
            "durationTicks": 288,
            "midi": 61,
            "name": "C#4",
            "ticks": 29184,
            "time": 41.454504,
            "velocity": 0.4881889763779528
          },
          {
            "duration": 0.4090904999999978,
            "durationTicks": 288,
            "midi": 56,
            "name": "G#3",
            "ticks": 29184,
            "time": 41.454504,
            "velocity": 0.4881889763779528
          },
          {
            "duration": 0.4090904999999978,
            "durationTicks": 288,
            "midi": 56,
            "name": "G#3",
            "ticks": 29184,
            "time": 41.454504,
            "velocity": 0.4881889763779528
          },
          {
            "duration": 0.4090904999999978,
            "durationTicks": 288,
            "midi": 61,
            "name": "C#4",
            "ticks": 29184,
            "time": 41.454504,
            "velocity": 0.4881889763779528
          },
          {
            "duration": 0.4090904999999978,
            "durationTicks": 288,
            "midi": 56,
            "name": "G#3",
            "ticks": 29184,
            "time": 41.454504,
            "velocity": 0.4881889763779528
          },
          {
            "duration": 0.4090904999999978,
            "durationTicks": 288,
            "midi": 68,
            "name": "G#4",
            "ticks": 29184,
            "time": 41.454504,
            "velocity": 0.4881889763779528
          },
          {
            "duration": 0.4090904999999978,
            "durationTicks": 288,
            "midi": 56,
            "name": "G#3",
            "ticks": 29184,
            "time": 41.454504,
            "velocity": 0.4881889763779528
          },
          {
            "duration": 0.4090904999999978,
            "durationTicks": 288,
            "midi": 68,
            "name": "G#4",
            "ticks": 29184,
            "time": 41.454504,
            "velocity": 0.4881889763779528
          },
          {
            "duration": 0.4090904999999978,
            "durationTicks": 288,
            "midi": 68,
            "name": "G#4",
            "ticks": 29184,
            "time": 41.454504,
            "velocity": 0.4881889763779528
          },
          {
            "duration": 0.4090904999999978,
            "durationTicks": 288,
            "midi": 61,
            "name": "C#4",
            "ticks": 29184,
            "time": 41.454504,
            "velocity": 0.4881889763779528
          },
          {
            "duration": 0.13636350000000164,
            "durationTicks": 96,
            "midi": 88,
            "name": "E6",
            "ticks": 29376,
            "time": 41.727230999999996,
            "velocity": 0.4881889763779528
          },
          {
            "duration": 0.13636350000000164,
            "durationTicks": 96,
            "midi": 88,
            "name": "E6",
            "ticks": 29376,
            "time": 41.727230999999996,
            "velocity": 0.4881889763779528
          },
          {
            "duration": 0.13636350000000164,
            "durationTicks": 96,
            "midi": 76,
            "name": "E5",
            "ticks": 29376,
            "time": 41.727230999999996,
            "velocity": 0.4881889763779528
          },
          {
            "duration": 0.13636350000000164,
            "durationTicks": 96,
            "midi": 76,
            "name": "E5",
            "ticks": 29376,
            "time": 41.727230999999996,
            "velocity": 0.4881889763779528
          },
          {
            "duration": 0.13636350000000164,
            "durationTicks": 96,
            "midi": 88,
            "name": "E6",
            "ticks": 29376,
            "time": 41.727230999999996,
            "velocity": 0.4881889763779528
          },
          {
            "duration": 0.13636350000000164,
            "durationTicks": 96,
            "midi": 88,
            "name": "E6",
            "ticks": 29376,
            "time": 41.727230999999996,
            "velocity": 0.4881889763779528
          },
          {
            "duration": 0.13636350000000164,
            "durationTicks": 96,
            "midi": 76,
            "name": "E5",
            "ticks": 29376,
            "time": 41.727230999999996,
            "velocity": 0.4881889763779528
          },
          {
            "duration": 0.13636350000000164,
            "durationTicks": 96,
            "midi": 88,
            "name": "E6",
            "ticks": 29376,
            "time": 41.727230999999996,
            "velocity": 0.4881889763779528
          },
          {
            "duration": 0.13636350000000164,
            "durationTicks": 96,
            "midi": 76,
            "name": "E5",
            "ticks": 29376,
            "time": 41.727230999999996,
            "velocity": 0.4881889763779528
          },
          {
            "duration": 0.13636350000000164,
            "durationTicks": 96,
            "midi": 76,
            "name": "E5",
            "ticks": 29376,
            "time": 41.727230999999996,
            "velocity": 0.4881889763779528
          },
          {
            "duration": 0.13636350000000164,
            "durationTicks": 96,
            "midi": 76,
            "name": "E5",
            "ticks": 29376,
            "time": 41.727230999999996,
            "velocity": 0.4881889763779528
          },
          {
            "duration": 0.13636350000000164,
            "durationTicks": 96,
            "midi": 88,
            "name": "E6",
            "ticks": 29376,
            "time": 41.727230999999996,
            "velocity": 0.4881889763779528
          },
          {
            "duration": 0.13636350000000164,
            "durationTicks": 96,
            "midi": 88,
            "name": "E6",
            "ticks": 29472,
            "time": 41.8635945,
            "velocity": 0.4881889763779528
          },
          {
            "duration": 0.13636350000000164,
            "durationTicks": 96,
            "midi": 76,
            "name": "E5",
            "ticks": 29472,
            "time": 41.8635945,
            "velocity": 0.4881889763779528
          },
          {
            "duration": 0.6818175000000011,
            "durationTicks": 480,
            "midi": 61,
            "name": "C#4",
            "ticks": 29472,
            "time": 41.8635945,
            "velocity": 0.4881889763779528
          },
          {
            "duration": 0.6818175000000011,
            "durationTicks": 480,
            "midi": 61,
            "name": "C#4",
            "ticks": 29472,
            "time": 41.8635945,
            "velocity": 0.4881889763779528
          },
          {
            "duration": 0.6818175000000011,
            "durationTicks": 480,
            "midi": 61,
            "name": "C#4",
            "ticks": 29472,
            "time": 41.8635945,
            "velocity": 0.4881889763779528
          },
          {
            "duration": 0.13636350000000164,
            "durationTicks": 96,
            "midi": 76,
            "name": "E5",
            "ticks": 29472,
            "time": 41.8635945,
            "velocity": 0.4881889763779528
          },
          {
            "duration": 0.6818175000000011,
            "durationTicks": 480,
            "midi": 68,
            "name": "G#4",
            "ticks": 29472,
            "time": 41.8635945,
            "velocity": 0.4881889763779528
          },
          {
            "duration": 0.6818175000000011,
            "durationTicks": 480,
            "midi": 68,
            "name": "G#4",
            "ticks": 29472,
            "time": 41.8635945,
            "velocity": 0.4881889763779528
          },
          {
            "duration": 0.6818175000000011,
            "durationTicks": 480,
            "midi": 56,
            "name": "G#3",
            "ticks": 29472,
            "time": 41.8635945,
            "velocity": 0.4881889763779528
          },
          {
            "duration": 0.6818175000000011,
            "durationTicks": 480,
            "midi": 56,
            "name": "G#3",
            "ticks": 29472,
            "time": 41.8635945,
            "velocity": 0.4881889763779528
          },
          {
            "duration": 0.6818175000000011,
            "durationTicks": 480,
            "midi": 56,
            "name": "G#3",
            "ticks": 29472,
            "time": 41.8635945,
            "velocity": 0.4881889763779528
          },
          {
            "duration": 0.13636350000000164,
            "durationTicks": 96,
            "midi": 88,
            "name": "E6",
            "ticks": 29472,
            "time": 41.8635945,
            "velocity": 0.4881889763779528
          },
          {
            "duration": 0.6818175000000011,
            "durationTicks": 480,
            "midi": 56,
            "name": "G#3",
            "ticks": 29472,
            "time": 41.8635945,
            "velocity": 0.4881889763779528
          },
          {
            "duration": 0.6818175000000011,
            "durationTicks": 480,
            "midi": 68,
            "name": "G#4",
            "ticks": 29472,
            "time": 41.8635945,
            "velocity": 0.4881889763779528
          },
          {
            "duration": 0.6818175000000011,
            "durationTicks": 480,
            "midi": 61,
            "name": "C#4",
            "ticks": 29472,
            "time": 41.8635945,
            "velocity": 0.4881889763779528
          },
          {
            "duration": 0.13636350000000164,
            "durationTicks": 96,
            "midi": 76,
            "name": "E5",
            "ticks": 29472,
            "time": 41.8635945,
            "velocity": 0.4881889763779528
          },
          {
            "duration": 0.6818175000000011,
            "durationTicks": 480,
            "midi": 61,
            "name": "C#4",
            "ticks": 29472,
            "time": 41.8635945,
            "velocity": 0.4881889763779528
          },
          {
            "duration": 0.6818175000000011,
            "durationTicks": 480,
            "midi": 68,
            "name": "G#4",
            "ticks": 29472,
            "time": 41.8635945,
            "velocity": 0.4881889763779528
          },
          {
            "duration": 0.13636350000000164,
            "durationTicks": 96,
            "midi": 88,
            "name": "E6",
            "ticks": 29472,
            "time": 41.8635945,
            "velocity": 0.4881889763779528
          },
          {
            "duration": 0.6818175000000011,
            "durationTicks": 480,
            "midi": 56,
            "name": "G#3",
            "ticks": 29472,
            "time": 41.8635945,
            "velocity": 0.4881889763779528
          },
          {
            "duration": 0.6818175000000011,
            "durationTicks": 480,
            "midi": 68,
            "name": "G#4",
            "ticks": 29472,
            "time": 41.8635945,
            "velocity": 0.4881889763779528
          },
          {
            "duration": 0.13636350000000164,
            "durationTicks": 96,
            "midi": 88,
            "name": "E6",
            "ticks": 29472,
            "time": 41.8635945,
            "velocity": 0.4881889763779528
          },
          {
            "duration": 0.13636350000000164,
            "durationTicks": 96,
            "midi": 88,
            "name": "E6",
            "ticks": 29472,
            "time": 41.8635945,
            "velocity": 0.4881889763779528
          },
          {
            "duration": 0.13636350000000164,
            "durationTicks": 96,
            "midi": 76,
            "name": "E5",
            "ticks": 29472,
            "time": 41.8635945,
            "velocity": 0.4881889763779528
          },
          {
            "duration": 0.6818175000000011,
            "durationTicks": 480,
            "midi": 61,
            "name": "C#4",
            "ticks": 29472,
            "time": 41.8635945,
            "velocity": 0.4881889763779528
          },
          {
            "duration": 0.13636350000000164,
            "durationTicks": 96,
            "midi": 76,
            "name": "E5",
            "ticks": 29472,
            "time": 41.8635945,
            "velocity": 0.4881889763779528
          },
          {
            "duration": 0.13636350000000164,
            "durationTicks": 96,
            "midi": 76,
            "name": "E5",
            "ticks": 29472,
            "time": 41.8635945,
            "velocity": 0.4881889763779528
          },
          {
            "duration": 0.13636350000000164,
            "durationTicks": 96,
            "midi": 88,
            "name": "E6",
            "ticks": 29472,
            "time": 41.8635945,
            "velocity": 0.4881889763779528
          },
          {
            "duration": 0.6818175000000011,
            "durationTicks": 480,
            "midi": 68,
            "name": "G#4",
            "ticks": 29472,
            "time": 41.8635945,
            "velocity": 0.4881889763779528
          },
          {
            "duration": 0.6818175000000011,
            "durationTicks": 480,
            "midi": 56,
            "name": "G#3",
            "ticks": 29472,
            "time": 41.8635945,
            "velocity": 0.4881889763779528
          },
          {
            "duration": 0.13636350000000164,
            "durationTicks": 96,
            "midi": 76,
            "name": "E5",
            "ticks": 29568,
            "time": 41.999958,
            "velocity": 0.4881889763779528
          },
          {
            "duration": 0.13636350000000164,
            "durationTicks": 96,
            "midi": 88,
            "name": "E6",
            "ticks": 29568,
            "time": 41.999958,
            "velocity": 0.4881889763779528
          },
          {
            "duration": 0.13636350000000164,
            "durationTicks": 96,
            "midi": 88,
            "name": "E6",
            "ticks": 29568,
            "time": 41.999958,
            "velocity": 0.4881889763779528
          },
          {
            "duration": 0.13636350000000164,
            "durationTicks": 96,
            "midi": 76,
            "name": "E5",
            "ticks": 29568,
            "time": 41.999958,
            "velocity": 0.4881889763779528
          },
          {
            "duration": 0.13636350000000164,
            "durationTicks": 96,
            "midi": 76,
            "name": "E5",
            "ticks": 29568,
            "time": 41.999958,
            "velocity": 0.4881889763779528
          },
          {
            "duration": 0.13636350000000164,
            "durationTicks": 96,
            "midi": 76,
            "name": "E5",
            "ticks": 29568,
            "time": 41.999958,
            "velocity": 0.4881889763779528
          },
          {
            "duration": 0.13636350000000164,
            "durationTicks": 96,
            "midi": 88,
            "name": "E6",
            "ticks": 29568,
            "time": 41.999958,
            "velocity": 0.4881889763779528
          },
          {
            "duration": 0.13636350000000164,
            "durationTicks": 96,
            "midi": 88,
            "name": "E6",
            "ticks": 29568,
            "time": 41.999958,
            "velocity": 0.4881889763779528
          },
          {
            "duration": 0.13636350000000164,
            "durationTicks": 96,
            "midi": 76,
            "name": "E5",
            "ticks": 29568,
            "time": 41.999958,
            "velocity": 0.4881889763779528
          },
          {
            "duration": 0.13636350000000164,
            "durationTicks": 96,
            "midi": 88,
            "name": "E6",
            "ticks": 29568,
            "time": 41.999958,
            "velocity": 0.4881889763779528
          },
          {
            "duration": 0.13636350000000164,
            "durationTicks": 96,
            "midi": 88,
            "name": "E6",
            "ticks": 29568,
            "time": 41.999958,
            "velocity": 0.4881889763779528
          },
          {
            "duration": 0.13636350000000164,
            "durationTicks": 96,
            "midi": 76,
            "name": "E5",
            "ticks": 29568,
            "time": 41.999958,
            "velocity": 0.4881889763779528
          },
          {
            "duration": 0.13636350000000164,
            "durationTicks": 96,
            "midi": 73,
            "name": "C#5",
            "ticks": 29664,
            "time": 42.1363215,
            "velocity": 0.4881889763779528
          },
          {
            "duration": 0.13636350000000164,
            "durationTicks": 96,
            "midi": 85,
            "name": "C#6",
            "ticks": 29664,
            "time": 42.1363215,
            "velocity": 0.4881889763779528
          },
          {
            "duration": 0.13636350000000164,
            "durationTicks": 96,
            "midi": 73,
            "name": "C#5",
            "ticks": 29664,
            "time": 42.1363215,
            "velocity": 0.4881889763779528
          },
          {
            "duration": 0.13636350000000164,
            "durationTicks": 96,
            "midi": 85,
            "name": "C#6",
            "ticks": 29664,
            "time": 42.1363215,
            "velocity": 0.4881889763779528
          },
          {
            "duration": 0.13636350000000164,
            "durationTicks": 96,
            "midi": 85,
            "name": "C#6",
            "ticks": 29664,
            "time": 42.1363215,
            "velocity": 0.4881889763779528
          },
          {
            "duration": 0.13636350000000164,
            "durationTicks": 96,
            "midi": 73,
            "name": "C#5",
            "ticks": 29664,
            "time": 42.1363215,
            "velocity": 0.4881889763779528
          },
          {
            "duration": 0.13636350000000164,
            "durationTicks": 96,
            "midi": 73,
            "name": "C#5",
            "ticks": 29664,
            "time": 42.1363215,
            "velocity": 0.4881889763779528
          },
          {
            "duration": 0.13636350000000164,
            "durationTicks": 96,
            "midi": 85,
            "name": "C#6",
            "ticks": 29664,
            "time": 42.1363215,
            "velocity": 0.4881889763779528
          },
          {
            "duration": 0.13636350000000164,
            "durationTicks": 96,
            "midi": 73,
            "name": "C#5",
            "ticks": 29664,
            "time": 42.1363215,
            "velocity": 0.4881889763779528
          },
          {
            "duration": 0.13636350000000164,
            "durationTicks": 96,
            "midi": 85,
            "name": "C#6",
            "ticks": 29664,
            "time": 42.1363215,
            "velocity": 0.4881889763779528
          },
          {
            "duration": 0.13636350000000164,
            "durationTicks": 96,
            "midi": 85,
            "name": "C#6",
            "ticks": 29664,
            "time": 42.1363215,
            "velocity": 0.4881889763779528
          },
          {
            "duration": 0.13636350000000164,
            "durationTicks": 96,
            "midi": 73,
            "name": "C#5",
            "ticks": 29664,
            "time": 42.1363215,
            "velocity": 0.4881889763779528
          },
          {
            "duration": 0.13636349999999453,
            "durationTicks": 96,
            "midi": 76,
            "name": "E5",
            "ticks": 29760,
            "time": 42.272685,
            "velocity": 0.4881889763779528
          },
          {
            "duration": 0.13636349999999453,
            "durationTicks": 96,
            "midi": 76,
            "name": "E5",
            "ticks": 29760,
            "time": 42.272685,
            "velocity": 0.4881889763779528
          },
          {
            "duration": 0.13636349999999453,
            "durationTicks": 96,
            "midi": 76,
            "name": "E5",
            "ticks": 29760,
            "time": 42.272685,
            "velocity": 0.4881889763779528
          },
          {
            "duration": 0.13636349999999453,
            "durationTicks": 96,
            "midi": 76,
            "name": "E5",
            "ticks": 29760,
            "time": 42.272685,
            "velocity": 0.4881889763779528
          },
          {
            "duration": 0.13636349999999453,
            "durationTicks": 96,
            "midi": 76,
            "name": "E5",
            "ticks": 29760,
            "time": 42.272685,
            "velocity": 0.4881889763779528
          },
          {
            "duration": 0.13636349999999453,
            "durationTicks": 96,
            "midi": 88,
            "name": "E6",
            "ticks": 29760,
            "time": 42.272685,
            "velocity": 0.4881889763779528
          },
          {
            "duration": 0.13636349999999453,
            "durationTicks": 96,
            "midi": 88,
            "name": "E6",
            "ticks": 29760,
            "time": 42.272685,
            "velocity": 0.4881889763779528
          },
          {
            "duration": 0.13636349999999453,
            "durationTicks": 96,
            "midi": 88,
            "name": "E6",
            "ticks": 29760,
            "time": 42.272685,
            "velocity": 0.4881889763779528
          },
          {
            "duration": 0.13636349999999453,
            "durationTicks": 96,
            "midi": 88,
            "name": "E6",
            "ticks": 29760,
            "time": 42.272685,
            "velocity": 0.4881889763779528
          },
          {
            "duration": 0.13636349999999453,
            "durationTicks": 96,
            "midi": 88,
            "name": "E6",
            "ticks": 29760,
            "time": 42.272685,
            "velocity": 0.4881889763779528
          },
          {
            "duration": 0.13636349999999453,
            "durationTicks": 96,
            "midi": 88,
            "name": "E6",
            "ticks": 29760,
            "time": 42.272685,
            "velocity": 0.4881889763779528
          },
          {
            "duration": 0.13636349999999453,
            "durationTicks": 96,
            "midi": 76,
            "name": "E5",
            "ticks": 29760,
            "time": 42.272685,
            "velocity": 0.4881889763779528
          },
          {
            "duration": 0.13636350000000164,
            "durationTicks": 96,
            "midi": 78,
            "name": "F#5",
            "ticks": 29856,
            "time": 42.4090485,
            "velocity": 0.4881889763779528
          },
          {
            "duration": 0.13636350000000164,
            "durationTicks": 96,
            "midi": 78,
            "name": "F#5",
            "ticks": 29856,
            "time": 42.4090485,
            "velocity": 0.4881889763779528
          },
          {
            "duration": 0.13636350000000164,
            "durationTicks": 96,
            "midi": 90,
            "name": "F#6",
            "ticks": 29856,
            "time": 42.4090485,
            "velocity": 0.4881889763779528
          },
          {
            "duration": 0.13636350000000164,
            "durationTicks": 96,
            "midi": 78,
            "name": "F#5",
            "ticks": 29856,
            "time": 42.4090485,
            "velocity": 0.4881889763779528
          },
          {
            "duration": 0.13636350000000164,
            "durationTicks": 96,
            "midi": 90,
            "name": "F#6",
            "ticks": 29856,
            "time": 42.4090485,
            "velocity": 0.4881889763779528
          },
          {
            "duration": 0.13636350000000164,
            "durationTicks": 96,
            "midi": 90,
            "name": "F#6",
            "ticks": 29856,
            "time": 42.4090485,
            "velocity": 0.4881889763779528
          },
          {
            "duration": 0.13636350000000164,
            "durationTicks": 96,
            "midi": 90,
            "name": "F#6",
            "ticks": 29856,
            "time": 42.4090485,
            "velocity": 0.4881889763779528
          },
          {
            "duration": 0.13636350000000164,
            "durationTicks": 96,
            "midi": 90,
            "name": "F#6",
            "ticks": 29856,
            "time": 42.4090485,
            "velocity": 0.4881889763779528
          },
          {
            "duration": 0.13636350000000164,
            "durationTicks": 96,
            "midi": 90,
            "name": "F#6",
            "ticks": 29856,
            "time": 42.4090485,
            "velocity": 0.4881889763779528
          },
          {
            "duration": 0.13636350000000164,
            "durationTicks": 96,
            "midi": 78,
            "name": "F#5",
            "ticks": 29856,
            "time": 42.4090485,
            "velocity": 0.4881889763779528
          },
          {
            "duration": 0.13636350000000164,
            "durationTicks": 96,
            "midi": 78,
            "name": "F#5",
            "ticks": 29856,
            "time": 42.4090485,
            "velocity": 0.4881889763779528
          },
          {
            "duration": 0.13636350000000164,
            "durationTicks": 96,
            "midi": 78,
            "name": "F#5",
            "ticks": 29856,
            "time": 42.4090485,
            "velocity": 0.4881889763779528
          },
          {
            "duration": 0.2727270000000033,
            "durationTicks": 192,
            "midi": 44,
            "name": "G#2",
            "ticks": 29952,
            "time": 42.545412,
            "velocity": 0.4881889763779528
          },
          {
            "duration": 0.2727270000000033,
            "durationTicks": 192,
            "midi": 56,
            "name": "G#3",
            "ticks": 29952,
            "time": 42.545412,
            "velocity": 0.4881889763779528
          },
          {
            "duration": 0.13636350000000164,
            "durationTicks": 96,
            "midi": 87,
            "name": "D#6",
            "ticks": 29952,
            "time": 42.545412,
            "velocity": 0.4881889763779528
          },
          {
            "duration": 0.2727270000000033,
            "durationTicks": 192,
            "midi": 56,
            "name": "G#3",
            "ticks": 29952,
            "time": 42.545412,
            "velocity": 0.4881889763779528
          },
          {
            "duration": 0.2727270000000033,
            "durationTicks": 192,
            "midi": 56,
            "name": "G#3",
            "ticks": 29952,
            "time": 42.545412,
            "velocity": 0.4881889763779528
          },
          {
            "duration": 0.2727270000000033,
            "durationTicks": 192,
            "midi": 51,
            "name": "D#3",
            "ticks": 29952,
            "time": 42.545412,
            "velocity": 0.4881889763779528
          },
          {
            "duration": 0.13636350000000164,
            "durationTicks": 96,
            "midi": 75,
            "name": "D#5",
            "ticks": 29952,
            "time": 42.545412,
            "velocity": 0.4881889763779528
          },
          {
            "duration": 0.2727270000000033,
            "durationTicks": 192,
            "midi": 44,
            "name": "G#2",
            "ticks": 29952,
            "time": 42.545412,
            "velocity": 0.4881889763779528
          },
          {
            "duration": 0.13636350000000164,
            "durationTicks": 96,
            "midi": 87,
            "name": "D#6",
            "ticks": 29952,
            "time": 42.545412,
            "velocity": 0.4881889763779528
          },
          {
            "duration": 0.2727270000000033,
            "durationTicks": 192,
            "midi": 51,
            "name": "D#3",
            "ticks": 29952,
            "time": 42.545412,
            "velocity": 0.4881889763779528
          },
          {
            "duration": 0.13636350000000164,
            "durationTicks": 96,
            "midi": 87,
            "name": "D#6",
            "ticks": 29952,
            "time": 42.545412,
            "velocity": 0.4881889763779528
          },
          {
            "duration": 0.2727270000000033,
            "durationTicks": 192,
            "midi": 44,
            "name": "G#2",
            "ticks": 29952,
            "time": 42.545412,
            "velocity": 0.4881889763779528
          },
          {
            "duration": 0.2727270000000033,
            "durationTicks": 192,
            "midi": 51,
            "name": "D#3",
            "ticks": 29952,
            "time": 42.545412,
            "velocity": 0.4881889763779528
          },
          {
            "duration": 0.2727270000000033,
            "durationTicks": 192,
            "midi": 56,
            "name": "G#3",
            "ticks": 29952,
            "time": 42.545412,
            "velocity": 0.4881889763779528
          },
          {
            "duration": 0.13636350000000164,
            "durationTicks": 96,
            "midi": 87,
            "name": "D#6",
            "ticks": 29952,
            "time": 42.545412,
            "velocity": 0.4881889763779528
          },
          {
            "duration": 0.13636350000000164,
            "durationTicks": 96,
            "midi": 75,
            "name": "D#5",
            "ticks": 29952,
            "time": 42.545412,
            "velocity": 0.4881889763779528
          },
          {
            "duration": 0.2727270000000033,
            "durationTicks": 192,
            "midi": 56,
            "name": "G#3",
            "ticks": 29952,
            "time": 42.545412,
            "velocity": 0.4881889763779528
          },
          {
            "duration": 0.2727270000000033,
            "durationTicks": 192,
            "midi": 56,
            "name": "G#3",
            "ticks": 29952,
            "time": 42.545412,
            "velocity": 0.4881889763779528
          },
          {
            "duration": 0.13636350000000164,
            "durationTicks": 96,
            "midi": 75,
            "name": "D#5",
            "ticks": 29952,
            "time": 42.545412,
            "velocity": 0.4881889763779528
          },
          {
            "duration": 0.2727270000000033,
            "durationTicks": 192,
            "midi": 51,
            "name": "D#3",
            "ticks": 29952,
            "time": 42.545412,
            "velocity": 0.4881889763779528
          },
          {
            "duration": 0.13636350000000164,
            "durationTicks": 96,
            "midi": 75,
            "name": "D#5",
            "ticks": 29952,
            "time": 42.545412,
            "velocity": 0.4881889763779528
          },
          {
            "duration": 0.2727270000000033,
            "durationTicks": 192,
            "midi": 44,
            "name": "G#2",
            "ticks": 29952,
            "time": 42.545412,
            "velocity": 0.4881889763779528
          },
          {
            "duration": 0.2727270000000033,
            "durationTicks": 192,
            "midi": 51,
            "name": "D#3",
            "ticks": 29952,
            "time": 42.545412,
            "velocity": 0.4881889763779528
          },
          {
            "duration": 0.13636350000000164,
            "durationTicks": 96,
            "midi": 75,
            "name": "D#5",
            "ticks": 29952,
            "time": 42.545412,
            "velocity": 0.4881889763779528
          },
          {
            "duration": 0.13636350000000164,
            "durationTicks": 96,
            "midi": 87,
            "name": "D#6",
            "ticks": 29952,
            "time": 42.545412,
            "velocity": 0.4881889763779528
          },
          {
            "duration": 0.2727270000000033,
            "durationTicks": 192,
            "midi": 51,
            "name": "D#3",
            "ticks": 29952,
            "time": 42.545412,
            "velocity": 0.4881889763779528
          },
          {
            "duration": 0.2727270000000033,
            "durationTicks": 192,
            "midi": 44,
            "name": "G#2",
            "ticks": 29952,
            "time": 42.545412,
            "velocity": 0.4881889763779528
          },
          {
            "duration": 0.2727270000000033,
            "durationTicks": 192,
            "midi": 44,
            "name": "G#2",
            "ticks": 29952,
            "time": 42.545412,
            "velocity": 0.4881889763779528
          },
          {
            "duration": 0.13636350000000164,
            "durationTicks": 96,
            "midi": 87,
            "name": "D#6",
            "ticks": 29952,
            "time": 42.545412,
            "velocity": 0.4881889763779528
          },
          {
            "duration": 0.13636350000000164,
            "durationTicks": 96,
            "midi": 75,
            "name": "D#5",
            "ticks": 29952,
            "time": 42.545412,
            "velocity": 0.4881889763779528
          },
          {
            "duration": 0.13636349999999453,
            "durationTicks": 96,
            "midi": 80,
            "name": "G#5",
            "ticks": 30144,
            "time": 42.818139,
            "velocity": 0.4881889763779528
          },
          {
            "duration": 0.13636349999999453,
            "durationTicks": 96,
            "midi": 80,
            "name": "G#5",
            "ticks": 30144,
            "time": 42.818139,
            "velocity": 0.4881889763779528
          },
          {
            "duration": 0.13636349999999453,
            "durationTicks": 96,
            "midi": 92,
            "name": "G#6",
            "ticks": 30144,
            "time": 42.818139,
            "velocity": 0.4881889763779528
          },
          {
            "duration": 0.13636349999999453,
            "durationTicks": 96,
            "midi": 92,
            "name": "G#6",
            "ticks": 30144,
            "time": 42.818139,
            "velocity": 0.4881889763779528
          },
          {
            "duration": 0.13636349999999453,
            "durationTicks": 96,
            "midi": 80,
            "name": "G#5",
            "ticks": 30144,
            "time": 42.818139,
            "velocity": 0.4881889763779528
          },
          {
            "duration": 0.13636349999999453,
            "durationTicks": 96,
            "midi": 80,
            "name": "G#5",
            "ticks": 30144,
            "time": 42.818139,
            "velocity": 0.4881889763779528
          },
          {
            "duration": 0.13636349999999453,
            "durationTicks": 96,
            "midi": 92,
            "name": "G#6",
            "ticks": 30144,
            "time": 42.818139,
            "velocity": 0.4881889763779528
          },
          {
            "duration": 0.13636349999999453,
            "durationTicks": 96,
            "midi": 92,
            "name": "G#6",
            "ticks": 30144,
            "time": 42.818139,
            "velocity": 0.4881889763779528
          },
          {
            "duration": 0.13636349999999453,
            "durationTicks": 96,
            "midi": 80,
            "name": "G#5",
            "ticks": 30144,
            "time": 42.818139,
            "velocity": 0.4881889763779528
          },
          {
            "duration": 0.13636349999999453,
            "durationTicks": 96,
            "midi": 92,
            "name": "G#6",
            "ticks": 30144,
            "time": 42.818139,
            "velocity": 0.4881889763779528
          },
          {
            "duration": 0.13636349999999453,
            "durationTicks": 96,
            "midi": 92,
            "name": "G#6",
            "ticks": 30144,
            "time": 42.818139,
            "velocity": 0.4881889763779528
          },
          {
            "duration": 0.13636349999999453,
            "durationTicks": 96,
            "midi": 80,
            "name": "G#5",
            "ticks": 30144,
            "time": 42.818139,
            "velocity": 0.4881889763779528
          },
          {
            "duration": 0.13636350000000164,
            "durationTicks": 96,
            "midi": 80,
            "name": "G#5",
            "ticks": 30240,
            "time": 42.9545025,
            "velocity": 0.4881889763779528
          },
          {
            "duration": 0.13636350000000164,
            "durationTicks": 96,
            "midi": 92,
            "name": "G#6",
            "ticks": 30240,
            "time": 42.9545025,
            "velocity": 0.4881889763779528
          },
          {
            "duration": 0.13636350000000164,
            "durationTicks": 96,
            "midi": 92,
            "name": "G#6",
            "ticks": 30240,
            "time": 42.9545025,
            "velocity": 0.4881889763779528
          },
          {
            "duration": 0.13636350000000164,
            "durationTicks": 96,
            "midi": 92,
            "name": "G#6",
            "ticks": 30240,
            "time": 42.9545025,
            "velocity": 0.4881889763779528
          },
          {
            "duration": 0.13636350000000164,
            "durationTicks": 96,
            "midi": 80,
            "name": "G#5",
            "ticks": 30240,
            "time": 42.9545025,
            "velocity": 0.4881889763779528
          },
          {
            "duration": 0.13636350000000164,
            "durationTicks": 96,
            "midi": 80,
            "name": "G#5",
            "ticks": 30240,
            "time": 42.9545025,
            "velocity": 0.4881889763779528
          },
          {
            "duration": 0.13636350000000164,
            "durationTicks": 96,
            "midi": 92,
            "name": "G#6",
            "ticks": 30240,
            "time": 42.9545025,
            "velocity": 0.4881889763779528
          },
          {
            "duration": 0.13636350000000164,
            "durationTicks": 96,
            "midi": 92,
            "name": "G#6",
            "ticks": 30240,
            "time": 42.9545025,
            "velocity": 0.4881889763779528
          },
          {
            "duration": 0.13636350000000164,
            "durationTicks": 96,
            "midi": 80,
            "name": "G#5",
            "ticks": 30240,
            "time": 42.9545025,
            "velocity": 0.4881889763779528
          },
          {
            "duration": 0.13636350000000164,
            "durationTicks": 96,
            "midi": 92,
            "name": "G#6",
            "ticks": 30240,
            "time": 42.9545025,
            "velocity": 0.4881889763779528
          },
          {
            "duration": 0.13636350000000164,
            "durationTicks": 96,
            "midi": 80,
            "name": "G#5",
            "ticks": 30240,
            "time": 42.9545025,
            "velocity": 0.4881889763779528
          },
          {
            "duration": 0.13636350000000164,
            "durationTicks": 96,
            "midi": 80,
            "name": "G#5",
            "ticks": 30240,
            "time": 42.9545025,
            "velocity": 0.4881889763779528
          },
          {
            "duration": 0.13636350000000164,
            "durationTicks": 96,
            "midi": 80,
            "name": "G#5",
            "ticks": 30432,
            "time": 43.2272295,
            "velocity": 0.4881889763779528
          },
          {
            "duration": 0.13636350000000164,
            "durationTicks": 96,
            "midi": 92,
            "name": "G#6",
            "ticks": 30432,
            "time": 43.2272295,
            "velocity": 0.4881889763779528
          },
          {
            "duration": 0.13636350000000164,
            "durationTicks": 96,
            "midi": 92,
            "name": "G#6",
            "ticks": 30432,
            "time": 43.2272295,
            "velocity": 0.4881889763779528
          },
          {
            "duration": 0.13636350000000164,
            "durationTicks": 96,
            "midi": 92,
            "name": "G#6",
            "ticks": 30432,
            "time": 43.2272295,
            "velocity": 0.4881889763779528
          },
          {
            "duration": 0.13636350000000164,
            "durationTicks": 96,
            "midi": 80,
            "name": "G#5",
            "ticks": 30432,
            "time": 43.2272295,
            "velocity": 0.4881889763779528
          },
          {
            "duration": 0.13636350000000164,
            "durationTicks": 96,
            "midi": 80,
            "name": "G#5",
            "ticks": 30432,
            "time": 43.2272295,
            "velocity": 0.4881889763779528
          },
          {
            "duration": 0.13636350000000164,
            "durationTicks": 96,
            "midi": 80,
            "name": "G#5",
            "ticks": 30432,
            "time": 43.2272295,
            "velocity": 0.4881889763779528
          },
          {
            "duration": 0.13636350000000164,
            "durationTicks": 96,
            "midi": 92,
            "name": "G#6",
            "ticks": 30432,
            "time": 43.2272295,
            "velocity": 0.4881889763779528
          },
          {
            "duration": 0.13636350000000164,
            "durationTicks": 96,
            "midi": 80,
            "name": "G#5",
            "ticks": 30432,
            "time": 43.2272295,
            "velocity": 0.4881889763779528
          },
          {
            "duration": 0.13636350000000164,
            "durationTicks": 96,
            "midi": 92,
            "name": "G#6",
            "ticks": 30432,
            "time": 43.2272295,
            "velocity": 0.4881889763779528
          },
          {
            "duration": 0.13636350000000164,
            "durationTicks": 96,
            "midi": 92,
            "name": "G#6",
            "ticks": 30432,
            "time": 43.2272295,
            "velocity": 0.4881889763779528
          },
          {
            "duration": 0.13636350000000164,
            "durationTicks": 96,
            "midi": 80,
            "name": "G#5",
            "ticks": 30432,
            "time": 43.2272295,
            "velocity": 0.4881889763779528
          },
          {
            "duration": 0.27272699999999617,
            "durationTicks": 192,
            "midi": 81,
            "name": "A5",
            "ticks": 30528,
            "time": 43.363593,
            "velocity": 0.4881889763779528
          },
          {
            "duration": 0.27272699999999617,
            "durationTicks": 192,
            "midi": 93,
            "name": "A6",
            "ticks": 30528,
            "time": 43.363593,
            "velocity": 0.4881889763779528
          },
          {
            "duration": 0.27272699999999617,
            "durationTicks": 192,
            "midi": 81,
            "name": "A5",
            "ticks": 30528,
            "time": 43.363593,
            "velocity": 0.4881889763779528
          },
          {
            "duration": 0.27272699999999617,
            "durationTicks": 192,
            "midi": 93,
            "name": "A6",
            "ticks": 30528,
            "time": 43.363593,
            "velocity": 0.4881889763779528
          },
          {
            "duration": 0.27272699999999617,
            "durationTicks": 192,
            "midi": 81,
            "name": "A5",
            "ticks": 30528,
            "time": 43.363593,
            "velocity": 0.4881889763779528
          },
          {
            "duration": 0.27272699999999617,
            "durationTicks": 192,
            "midi": 93,
            "name": "A6",
            "ticks": 30528,
            "time": 43.363593,
            "velocity": 0.4881889763779528
          },
          {
            "duration": 0.27272699999999617,
            "durationTicks": 192,
            "midi": 93,
            "name": "A6",
            "ticks": 30528,
            "time": 43.363593,
            "velocity": 0.4881889763779528
          },
          {
            "duration": 0.27272699999999617,
            "durationTicks": 192,
            "midi": 93,
            "name": "A6",
            "ticks": 30528,
            "time": 43.363593,
            "velocity": 0.4881889763779528
          },
          {
            "duration": 0.27272699999999617,
            "durationTicks": 192,
            "midi": 81,
            "name": "A5",
            "ticks": 30528,
            "time": 43.363593,
            "velocity": 0.4881889763779528
          },
          {
            "duration": 0.27272699999999617,
            "durationTicks": 192,
            "midi": 93,
            "name": "A6",
            "ticks": 30528,
            "time": 43.363593,
            "velocity": 0.4881889763779528
          },
          {
            "duration": 0.27272699999999617,
            "durationTicks": 192,
            "midi": 81,
            "name": "A5",
            "ticks": 30528,
            "time": 43.363593,
            "velocity": 0.4881889763779528
          },
          {
            "duration": 0.27272699999999617,
            "durationTicks": 192,
            "midi": 81,
            "name": "A5",
            "ticks": 30528,
            "time": 43.363593,
            "velocity": 0.4881889763779528
          },
          {
            "duration": 0.5454539999999994,
            "durationTicks": 384,
            "midi": 78,
            "name": "F#5",
            "ticks": 30720,
            "time": 43.63632,
            "velocity": 0.4881889763779528
          },
          {
            "duration": 0.2727270000000033,
            "durationTicks": 192,
            "midi": 49,
            "name": "C#3",
            "ticks": 30720,
            "time": 43.63632,
            "velocity": 0.4881889763779528
          },
          {
            "duration": 0.5454539999999994,
            "durationTicks": 384,
            "midi": 90,
            "name": "F#6",
            "ticks": 30720,
            "time": 43.63632,
            "velocity": 0.4881889763779528
          },
          {
            "duration": 0.5454539999999994,
            "durationTicks": 384,
            "midi": 78,
            "name": "F#5",
            "ticks": 30720,
            "time": 43.63632,
            "velocity": 0.4881889763779528
          },
          {
            "duration": 0.5454539999999994,
            "durationTicks": 384,
            "midi": 78,
            "name": "F#5",
            "ticks": 30720,
            "time": 43.63632,
            "velocity": 0.4881889763779528
          },
          {
            "duration": 0.5454539999999994,
            "durationTicks": 384,
            "midi": 90,
            "name": "F#6",
            "ticks": 30720,
            "time": 43.63632,
            "velocity": 0.4881889763779528
          },
          {
            "duration": 0.2727270000000033,
            "durationTicks": 192,
            "midi": 49,
            "name": "C#3",
            "ticks": 30720,
            "time": 43.63632,
            "velocity": 0.4881889763779528
          },
          {
            "duration": 0.5454539999999994,
            "durationTicks": 384,
            "midi": 78,
            "name": "F#5",
            "ticks": 30720,
            "time": 43.63632,
            "velocity": 0.4881889763779528
          },
          {
            "duration": 0.5454539999999994,
            "durationTicks": 384,
            "midi": 78,
            "name": "F#5",
            "ticks": 30720,
            "time": 43.63632,
            "velocity": 0.4881889763779528
          },
          {
            "duration": 0.5454539999999994,
            "durationTicks": 384,
            "midi": 90,
            "name": "F#6",
            "ticks": 30720,
            "time": 43.63632,
            "velocity": 0.4881889763779528
          },
          {
            "duration": 0.5454539999999994,
            "durationTicks": 384,
            "midi": 90,
            "name": "F#6",
            "ticks": 30720,
            "time": 43.63632,
            "velocity": 0.4881889763779528
          },
          {
            "duration": 0.5454539999999994,
            "durationTicks": 384,
            "midi": 90,
            "name": "F#6",
            "ticks": 30720,
            "time": 43.63632,
            "velocity": 0.4881889763779528
          },
          {
            "duration": 0.5454539999999994,
            "durationTicks": 384,
            "midi": 90,
            "name": "F#6",
            "ticks": 30720,
            "time": 43.63632,
            "velocity": 0.4881889763779528
          },
          {
            "duration": 0.2727270000000033,
            "durationTicks": 192,
            "midi": 49,
            "name": "C#3",
            "ticks": 30720,
            "time": 43.63632,
            "velocity": 0.4881889763779528
          },
          {
            "duration": 0.2727270000000033,
            "durationTicks": 192,
            "midi": 49,
            "name": "C#3",
            "ticks": 30720,
            "time": 43.63632,
            "velocity": 0.4881889763779528
          },
          {
            "duration": 0.5454539999999994,
            "durationTicks": 384,
            "midi": 78,
            "name": "F#5",
            "ticks": 30720,
            "time": 43.63632,
            "velocity": 0.4881889763779528
          },
          {
            "duration": 0.2727270000000033,
            "durationTicks": 192,
            "midi": 49,
            "name": "C#3",
            "ticks": 30720,
            "time": 43.63632,
            "velocity": 0.4881889763779528
          },
          {
            "duration": 0.2727270000000033,
            "durationTicks": 192,
            "midi": 49,
            "name": "C#3",
            "ticks": 30720,
            "time": 43.63632,
            "velocity": 0.4881889763779528
          },
          {
            "duration": 0.27272699999999617,
            "durationTicks": 192,
            "midi": 61,
            "name": "C#4",
            "ticks": 30912,
            "time": 43.909047,
            "velocity": 0.4881889763779528
          },
          {
            "duration": 0.27272699999999617,
            "durationTicks": 192,
            "midi": 61,
            "name": "C#4",
            "ticks": 30912,
            "time": 43.909047,
            "velocity": 0.4881889763779528
          },
          {
            "duration": 0.27272699999999617,
            "durationTicks": 192,
            "midi": 61,
            "name": "C#4",
            "ticks": 30912,
            "time": 43.909047,
            "velocity": 0.4881889763779528
          },
          {
            "duration": 0.27272699999999617,
            "durationTicks": 192,
            "midi": 61,
            "name": "C#4",
            "ticks": 30912,
            "time": 43.909047,
            "velocity": 0.4881889763779528
          },
          {
            "duration": 0.27272699999999617,
            "durationTicks": 192,
            "midi": 61,
            "name": "C#4",
            "ticks": 30912,
            "time": 43.909047,
            "velocity": 0.4881889763779528
          },
          {
            "duration": 0.27272699999999617,
            "durationTicks": 192,
            "midi": 61,
            "name": "C#4",
            "ticks": 30912,
            "time": 43.909047,
            "velocity": 0.4881889763779528
          },
          {
            "duration": 0.2727270000000033,
            "durationTicks": 192,
            "midi": 49,
            "name": "C#3",
            "ticks": 31104,
            "time": 44.181774,
            "velocity": 0.4881889763779528
          },
          {
            "duration": 0.5454539999999994,
            "durationTicks": 384,
            "midi": 88,
            "name": "E6",
            "ticks": 31104,
            "time": 44.181774,
            "velocity": 0.4881889763779528
          },
          {
            "duration": 0.5454539999999994,
            "durationTicks": 384,
            "midi": 76,
            "name": "E5",
            "ticks": 31104,
            "time": 44.181774,
            "velocity": 0.4881889763779528
          },
          {
            "duration": 0.5454539999999994,
            "durationTicks": 384,
            "midi": 76,
            "name": "E5",
            "ticks": 31104,
            "time": 44.181774,
            "velocity": 0.4881889763779528
          },
          {
            "duration": 0.5454539999999994,
            "durationTicks": 384,
            "midi": 76,
            "name": "E5",
            "ticks": 31104,
            "time": 44.181774,
            "velocity": 0.4881889763779528
          },
          {
            "duration": 0.5454539999999994,
            "durationTicks": 384,
            "midi": 76,
            "name": "E5",
            "ticks": 31104,
            "time": 44.181774,
            "velocity": 0.4881889763779528
          },
          {
            "duration": 0.5454539999999994,
            "durationTicks": 384,
            "midi": 88,
            "name": "E6",
            "ticks": 31104,
            "time": 44.181774,
            "velocity": 0.4881889763779528
          },
          {
            "duration": 0.5454539999999994,
            "durationTicks": 384,
            "midi": 76,
            "name": "E5",
            "ticks": 31104,
            "time": 44.181774,
            "velocity": 0.4881889763779528
          },
          {
            "duration": 0.5454539999999994,
            "durationTicks": 384,
            "midi": 88,
            "name": "E6",
            "ticks": 31104,
            "time": 44.181774,
            "velocity": 0.4881889763779528
          },
          {
            "duration": 0.5454539999999994,
            "durationTicks": 384,
            "midi": 88,
            "name": "E6",
            "ticks": 31104,
            "time": 44.181774,
            "velocity": 0.4881889763779528
          },
          {
            "duration": 0.5454539999999994,
            "durationTicks": 384,
            "midi": 88,
            "name": "E6",
            "ticks": 31104,
            "time": 44.181774,
            "velocity": 0.4881889763779528
          },
          {
            "duration": 0.5454539999999994,
            "durationTicks": 384,
            "midi": 88,
            "name": "E6",
            "ticks": 31104,
            "time": 44.181774,
            "velocity": 0.4881889763779528
          },
          {
            "duration": 0.2727270000000033,
            "durationTicks": 192,
            "midi": 49,
            "name": "C#3",
            "ticks": 31104,
            "time": 44.181774,
            "velocity": 0.4881889763779528
          },
          {
            "duration": 0.2727270000000033,
            "durationTicks": 192,
            "midi": 49,
            "name": "C#3",
            "ticks": 31104,
            "time": 44.181774,
            "velocity": 0.4881889763779528
          },
          {
            "duration": 0.2727270000000033,
            "durationTicks": 192,
            "midi": 49,
            "name": "C#3",
            "ticks": 31104,
            "time": 44.181774,
            "velocity": 0.4881889763779528
          },
          {
            "duration": 0.2727270000000033,
            "durationTicks": 192,
            "midi": 49,
            "name": "C#3",
            "ticks": 31104,
            "time": 44.181774,
            "velocity": 0.4881889763779528
          },
          {
            "duration": 0.2727270000000033,
            "durationTicks": 192,
            "midi": 49,
            "name": "C#3",
            "ticks": 31104,
            "time": 44.181774,
            "velocity": 0.4881889763779528
          },
          {
            "duration": 0.5454539999999994,
            "durationTicks": 384,
            "midi": 76,
            "name": "E5",
            "ticks": 31104,
            "time": 44.181774,
            "velocity": 0.4881889763779528
          },
          {
            "duration": 0.27272699999999617,
            "durationTicks": 192,
            "midi": 61,
            "name": "C#4",
            "ticks": 31296,
            "time": 44.454501,
            "velocity": 0.4881889763779528
          },
          {
            "duration": 0.27272699999999617,
            "durationTicks": 192,
            "midi": 61,
            "name": "C#4",
            "ticks": 31296,
            "time": 44.454501,
            "velocity": 0.4881889763779528
          },
          {
            "duration": 0.27272699999999617,
            "durationTicks": 192,
            "midi": 61,
            "name": "C#4",
            "ticks": 31296,
            "time": 44.454501,
            "velocity": 0.4881889763779528
          },
          {
            "duration": 0.27272699999999617,
            "durationTicks": 192,
            "midi": 61,
            "name": "C#4",
            "ticks": 31296,
            "time": 44.454501,
            "velocity": 0.4881889763779528
          },
          {
            "duration": 0.27272699999999617,
            "durationTicks": 192,
            "midi": 61,
            "name": "C#4",
            "ticks": 31296,
            "time": 44.454501,
            "velocity": 0.4881889763779528
          },
          {
            "duration": 0.27272699999999617,
            "durationTicks": 192,
            "midi": 61,
            "name": "C#4",
            "ticks": 31296,
            "time": 44.454501,
            "velocity": 0.4881889763779528
          },
          {
            "duration": 0.2727270000000033,
            "durationTicks": 192,
            "midi": 52,
            "name": "E3",
            "ticks": 31488,
            "time": 44.727228,
            "velocity": 0.4881889763779528
          },
          {
            "duration": 0.2727270000000033,
            "durationTicks": 192,
            "midi": 52,
            "name": "E3",
            "ticks": 31488,
            "time": 44.727228,
            "velocity": 0.4881889763779528
          },
          {
            "duration": 0.2727270000000033,
            "durationTicks": 192,
            "midi": 52,
            "name": "E3",
            "ticks": 31488,
            "time": 44.727228,
            "velocity": 0.4881889763779528
          },
          {
            "duration": 0.2727270000000033,
            "durationTicks": 192,
            "midi": 52,
            "name": "E3",
            "ticks": 31488,
            "time": 44.727228,
            "velocity": 0.4881889763779528
          },
          {
            "duration": 0.2727270000000033,
            "durationTicks": 192,
            "midi": 52,
            "name": "E3",
            "ticks": 31488,
            "time": 44.727228,
            "velocity": 0.4881889763779528
          },
          {
            "duration": 0.2727270000000033,
            "durationTicks": 192,
            "midi": 52,
            "name": "E3",
            "ticks": 31488,
            "time": 44.727228,
            "velocity": 0.4881889763779528
          },
          {
            "duration": 0.27272699999999617,
            "durationTicks": 192,
            "midi": 64,
            "name": "E4",
            "ticks": 31680,
            "time": 44.999955,
            "velocity": 0.4881889763779528
          },
          {
            "duration": 0.27272699999999617,
            "durationTicks": 192,
            "midi": 64,
            "name": "E4",
            "ticks": 31680,
            "time": 44.999955,
            "velocity": 0.4881889763779528
          },
          {
            "duration": 0.27272699999999617,
            "durationTicks": 192,
            "midi": 64,
            "name": "E4",
            "ticks": 31680,
            "time": 44.999955,
            "velocity": 0.4881889763779528
          },
          {
            "duration": 0.27272699999999617,
            "durationTicks": 192,
            "midi": 64,
            "name": "E4",
            "ticks": 31680,
            "time": 44.999955,
            "velocity": 0.4881889763779528
          },
          {
            "duration": 0.27272699999999617,
            "durationTicks": 192,
            "midi": 64,
            "name": "E4",
            "ticks": 31680,
            "time": 44.999955,
            "velocity": 0.4881889763779528
          },
          {
            "duration": 0.27272699999999617,
            "durationTicks": 192,
            "midi": 64,
            "name": "E4",
            "ticks": 31680,
            "time": 44.999955,
            "velocity": 0.4881889763779528
          },
          {
            "duration": 0.2727270000000033,
            "durationTicks": 192,
            "midi": 52,
            "name": "E3",
            "ticks": 31872,
            "time": 45.272681999999996,
            "velocity": 0.4881889763779528
          },
          {
            "duration": 0.2727270000000033,
            "durationTicks": 192,
            "midi": 52,
            "name": "E3",
            "ticks": 31872,
            "time": 45.272681999999996,
            "velocity": 0.4881889763779528
          },
          {
            "duration": 0.2727270000000033,
            "durationTicks": 192,
            "midi": 52,
            "name": "E3",
            "ticks": 31872,
            "time": 45.272681999999996,
            "velocity": 0.4881889763779528
          },
          {
            "duration": 0.2727270000000033,
            "durationTicks": 192,
            "midi": 52,
            "name": "E3",
            "ticks": 31872,
            "time": 45.272681999999996,
            "velocity": 0.4881889763779528
          },
          {
            "duration": 0.2727270000000033,
            "durationTicks": 192,
            "midi": 52,
            "name": "E3",
            "ticks": 31872,
            "time": 45.272681999999996,
            "velocity": 0.4881889763779528
          },
          {
            "duration": 0.2727270000000033,
            "durationTicks": 192,
            "midi": 52,
            "name": "E3",
            "ticks": 31872,
            "time": 45.272681999999996,
            "velocity": 0.4881889763779528
          },
          {
            "duration": 0.2727270000000033,
            "durationTicks": 192,
            "midi": 64,
            "name": "E4",
            "ticks": 32064,
            "time": 45.545409,
            "velocity": 0.4881889763779528
          },
          {
            "duration": 0.2727270000000033,
            "durationTicks": 192,
            "midi": 64,
            "name": "E4",
            "ticks": 32064,
            "time": 45.545409,
            "velocity": 0.4881889763779528
          },
          {
            "duration": 0.2727270000000033,
            "durationTicks": 192,
            "midi": 64,
            "name": "E4",
            "ticks": 32064,
            "time": 45.545409,
            "velocity": 0.4881889763779528
          },
          {
            "duration": 0.2727270000000033,
            "durationTicks": 192,
            "midi": 64,
            "name": "E4",
            "ticks": 32064,
            "time": 45.545409,
            "velocity": 0.4881889763779528
          },
          {
            "duration": 0.2727270000000033,
            "durationTicks": 192,
            "midi": 64,
            "name": "E4",
            "ticks": 32064,
            "time": 45.545409,
            "velocity": 0.4881889763779528
          },
          {
            "duration": 0.2727270000000033,
            "durationTicks": 192,
            "midi": 64,
            "name": "E4",
            "ticks": 32064,
            "time": 45.545409,
            "velocity": 0.4881889763779528
          },
          {
            "duration": 0.13636350000000164,
            "durationTicks": 96,
            "midi": 88,
            "name": "E6",
            "ticks": 32160,
            "time": 45.6817725,
            "velocity": 0.4881889763779528
          },
          {
            "duration": 0.13636350000000164,
            "durationTicks": 96,
            "midi": 88,
            "name": "E6",
            "ticks": 32160,
            "time": 45.6817725,
            "velocity": 0.4881889763779528
          },
          {
            "duration": 0.13636350000000164,
            "durationTicks": 96,
            "midi": 88,
            "name": "E6",
            "ticks": 32160,
            "time": 45.6817725,
            "velocity": 0.4881889763779528
          },
          {
            "duration": 0.13636350000000164,
            "durationTicks": 96,
            "midi": 88,
            "name": "E6",
            "ticks": 32160,
            "time": 45.6817725,
            "velocity": 0.4881889763779528
          },
          {
            "duration": 0.13636350000000164,
            "durationTicks": 96,
            "midi": 88,
            "name": "E6",
            "ticks": 32160,
            "time": 45.6817725,
            "velocity": 0.4881889763779528
          },
          {
            "duration": 0.13636350000000164,
            "durationTicks": 96,
            "midi": 88,
            "name": "E6",
            "ticks": 32160,
            "time": 45.6817725,
            "velocity": 0.4881889763779528
          },
          {
            "duration": 0.13636349999999453,
            "durationTicks": 96,
            "midi": 88,
            "name": "E6",
            "ticks": 32256,
            "time": 45.818136,
            "velocity": 0.4881889763779528
          },
          {
            "duration": 0.13636349999999453,
            "durationTicks": 96,
            "midi": 88,
            "name": "E6",
            "ticks": 32256,
            "time": 45.818136,
            "velocity": 0.4881889763779528
          },
          {
            "duration": 0.27272699999999617,
            "durationTicks": 192,
            "midi": 45,
            "name": "A2",
            "ticks": 32256,
            "time": 45.818136,
            "velocity": 0.4881889763779528
          },
          {
            "duration": 0.27272699999999617,
            "durationTicks": 192,
            "midi": 45,
            "name": "A2",
            "ticks": 32256,
            "time": 45.818136,
            "velocity": 0.4881889763779528
          },
          {
            "duration": 0.27272699999999617,
            "durationTicks": 192,
            "midi": 45,
            "name": "A2",
            "ticks": 32256,
            "time": 45.818136,
            "velocity": 0.4881889763779528
          },
          {
            "duration": 0.13636349999999453,
            "durationTicks": 96,
            "midi": 88,
            "name": "E6",
            "ticks": 32256,
            "time": 45.818136,
            "velocity": 0.4881889763779528
          },
          {
            "duration": 0.27272699999999617,
            "durationTicks": 192,
            "midi": 45,
            "name": "A2",
            "ticks": 32256,
            "time": 45.818136,
            "velocity": 0.4881889763779528
          },
          {
            "duration": 0.27272699999999617,
            "durationTicks": 192,
            "midi": 45,
            "name": "A2",
            "ticks": 32256,
            "time": 45.818136,
            "velocity": 0.4881889763779528
          },
          {
            "duration": 0.13636349999999453,
            "durationTicks": 96,
            "midi": 88,
            "name": "E6",
            "ticks": 32256,
            "time": 45.818136,
            "velocity": 0.4881889763779528
          },
          {
            "duration": 0.13636349999999453,
            "durationTicks": 96,
            "midi": 88,
            "name": "E6",
            "ticks": 32256,
            "time": 45.818136,
            "velocity": 0.4881889763779528
          },
          {
            "duration": 0.13636349999999453,
            "durationTicks": 96,
            "midi": 88,
            "name": "E6",
            "ticks": 32256,
            "time": 45.818136,
            "velocity": 0.4881889763779528
          },
          {
            "duration": 0.27272699999999617,
            "durationTicks": 192,
            "midi": 45,
            "name": "A2",
            "ticks": 32256,
            "time": 45.818136,
            "velocity": 0.4881889763779528
          },
          {
            "duration": 0.2727270000000033,
            "durationTicks": 192,
            "midi": 57,
            "name": "A3",
            "ticks": 32448,
            "time": 46.090863,
            "velocity": 0.4881889763779528
          },
          {
            "duration": 0.13636350000000164,
            "durationTicks": 96,
            "midi": 88,
            "name": "E6",
            "ticks": 32448,
            "time": 46.090863,
            "velocity": 0.4881889763779528
          },
          {
            "duration": 0.13636350000000164,
            "durationTicks": 96,
            "midi": 88,
            "name": "E6",
            "ticks": 32448,
            "time": 46.090863,
            "velocity": 0.4881889763779528
          },
          {
            "duration": 0.2727270000000033,
            "durationTicks": 192,
            "midi": 57,
            "name": "A3",
            "ticks": 32448,
            "time": 46.090863,
            "velocity": 0.4881889763779528
          },
          {
            "duration": 0.2727270000000033,
            "durationTicks": 192,
            "midi": 57,
            "name": "A3",
            "ticks": 32448,
            "time": 46.090863,
            "velocity": 0.4881889763779528
          },
          {
            "duration": 0.13636350000000164,
            "durationTicks": 96,
            "midi": 88,
            "name": "E6",
            "ticks": 32448,
            "time": 46.090863,
            "velocity": 0.4881889763779528
          },
          {
            "duration": 0.13636350000000164,
            "durationTicks": 96,
            "midi": 88,
            "name": "E6",
            "ticks": 32448,
            "time": 46.090863,
            "velocity": 0.4881889763779528
          },
          {
            "duration": 0.13636350000000164,
            "durationTicks": 96,
            "midi": 88,
            "name": "E6",
            "ticks": 32448,
            "time": 46.090863,
            "velocity": 0.4881889763779528
          },
          {
            "duration": 0.13636350000000164,
            "durationTicks": 96,
            "midi": 88,
            "name": "E6",
            "ticks": 32448,
            "time": 46.090863,
            "velocity": 0.4881889763779528
          },
          {
            "duration": 0.2727270000000033,
            "durationTicks": 192,
            "midi": 57,
            "name": "A3",
            "ticks": 32448,
            "time": 46.090863,
            "velocity": 0.4881889763779528
          },
          {
            "duration": 0.2727270000000033,
            "durationTicks": 192,
            "midi": 57,
            "name": "A3",
            "ticks": 32448,
            "time": 46.090863,
            "velocity": 0.4881889763779528
          },
          {
            "duration": 0.2727270000000033,
            "durationTicks": 192,
            "midi": 57,
            "name": "A3",
            "ticks": 32448,
            "time": 46.090863,
            "velocity": 0.4881889763779528
          },
          {
            "duration": 0.13636350000000164,
            "durationTicks": 96,
            "midi": 85,
            "name": "C#6",
            "ticks": 32544,
            "time": 46.2272265,
            "velocity": 0.4881889763779528
          },
          {
            "duration": 0.13636350000000164,
            "durationTicks": 96,
            "midi": 85,
            "name": "C#6",
            "ticks": 32544,
            "time": 46.2272265,
            "velocity": 0.4881889763779528
          },
          {
            "duration": 0.13636350000000164,
            "durationTicks": 96,
            "midi": 85,
            "name": "C#6",
            "ticks": 32544,
            "time": 46.2272265,
            "velocity": 0.4881889763779528
          },
          {
            "duration": 0.13636350000000164,
            "durationTicks": 96,
            "midi": 85,
            "name": "C#6",
            "ticks": 32544,
            "time": 46.2272265,
            "velocity": 0.4881889763779528
          },
          {
            "duration": 0.13636350000000164,
            "durationTicks": 96,
            "midi": 85,
            "name": "C#6",
            "ticks": 32544,
            "time": 46.2272265,
            "velocity": 0.4881889763779528
          },
          {
            "duration": 0.13636350000000164,
            "durationTicks": 96,
            "midi": 85,
            "name": "C#6",
            "ticks": 32544,
            "time": 46.2272265,
            "velocity": 0.4881889763779528
          },
          {
            "duration": 0.27272699999999617,
            "durationTicks": 192,
            "midi": 45,
            "name": "A2",
            "ticks": 32640,
            "time": 46.36359,
            "velocity": 0.4881889763779528
          },
          {
            "duration": 0.27272699999999617,
            "durationTicks": 192,
            "midi": 45,
            "name": "A2",
            "ticks": 32640,
            "time": 46.36359,
            "velocity": 0.4881889763779528
          },
          {
            "duration": 0.13636349999999453,
            "durationTicks": 96,
            "midi": 88,
            "name": "E6",
            "ticks": 32640,
            "time": 46.36359,
            "velocity": 0.4881889763779528
          },
          {
            "duration": 0.13636349999999453,
            "durationTicks": 96,
            "midi": 88,
            "name": "E6",
            "ticks": 32640,
            "time": 46.36359,
            "velocity": 0.4881889763779528
          },
          {
            "duration": 0.13636349999999453,
            "durationTicks": 96,
            "midi": 88,
            "name": "E6",
            "ticks": 32640,
            "time": 46.36359,
            "velocity": 0.4881889763779528
          },
          {
            "duration": 0.13636349999999453,
            "durationTicks": 96,
            "midi": 88,
            "name": "E6",
            "ticks": 32640,
            "time": 46.36359,
            "velocity": 0.4881889763779528
          },
          {
            "duration": 0.27272699999999617,
            "durationTicks": 192,
            "midi": 45,
            "name": "A2",
            "ticks": 32640,
            "time": 46.36359,
            "velocity": 0.4881889763779528
          },
          {
            "duration": 0.27272699999999617,
            "durationTicks": 192,
            "midi": 45,
            "name": "A2",
            "ticks": 32640,
            "time": 46.36359,
            "velocity": 0.4881889763779528
          },
          {
            "duration": 0.13636349999999453,
            "durationTicks": 96,
            "midi": 88,
            "name": "E6",
            "ticks": 32640,
            "time": 46.36359,
            "velocity": 0.4881889763779528
          },
          {
            "duration": 0.13636349999999453,
            "durationTicks": 96,
            "midi": 88,
            "name": "E6",
            "ticks": 32640,
            "time": 46.36359,
            "velocity": 0.4881889763779528
          },
          {
            "duration": 0.27272699999999617,
            "durationTicks": 192,
            "midi": 45,
            "name": "A2",
            "ticks": 32640,
            "time": 46.36359,
            "velocity": 0.4881889763779528
          },
          {
            "duration": 0.27272699999999617,
            "durationTicks": 192,
            "midi": 45,
            "name": "A2",
            "ticks": 32640,
            "time": 46.36359,
            "velocity": 0.4881889763779528
          },
          {
            "duration": 0.13636350000000164,
            "durationTicks": 96,
            "midi": 90,
            "name": "F#6",
            "ticks": 32736,
            "time": 46.4999535,
            "velocity": 0.4881889763779528
          },
          {
            "duration": 0.13636350000000164,
            "durationTicks": 96,
            "midi": 90,
            "name": "F#6",
            "ticks": 32736,
            "time": 46.4999535,
            "velocity": 0.4881889763779528
          },
          {
            "duration": 0.13636350000000164,
            "durationTicks": 96,
            "midi": 90,
            "name": "F#6",
            "ticks": 32736,
            "time": 46.4999535,
            "velocity": 0.4881889763779528
          },
          {
            "duration": 0.13636350000000164,
            "durationTicks": 96,
            "midi": 90,
            "name": "F#6",
            "ticks": 32736,
            "time": 46.4999535,
            "velocity": 0.4881889763779528
          },
          {
            "duration": 0.13636350000000164,
            "durationTicks": 96,
            "midi": 90,
            "name": "F#6",
            "ticks": 32736,
            "time": 46.4999535,
            "velocity": 0.4881889763779528
          },
          {
            "duration": 0.13636350000000164,
            "durationTicks": 96,
            "midi": 90,
            "name": "F#6",
            "ticks": 32736,
            "time": 46.4999535,
            "velocity": 0.4881889763779528
          },
          {
            "duration": 0.2727270000000033,
            "durationTicks": 192,
            "midi": 57,
            "name": "A3",
            "ticks": 32832,
            "time": 46.636317,
            "velocity": 0.4881889763779528
          },
          {
            "duration": 0.2727270000000033,
            "durationTicks": 192,
            "midi": 57,
            "name": "A3",
            "ticks": 32832,
            "time": 46.636317,
            "velocity": 0.4881889763779528
          },
          {
            "duration": 0.2727270000000033,
            "durationTicks": 192,
            "midi": 57,
            "name": "A3",
            "ticks": 32832,
            "time": 46.636317,
            "velocity": 0.4881889763779528
          },
          {
            "duration": 0.2727270000000033,
            "durationTicks": 192,
            "midi": 57,
            "name": "A3",
            "ticks": 32832,
            "time": 46.636317,
            "velocity": 0.4881889763779528
          },
          {
            "duration": 0.2727270000000033,
            "durationTicks": 192,
            "midi": 57,
            "name": "A3",
            "ticks": 32832,
            "time": 46.636317,
            "velocity": 0.4881889763779528
          },
          {
            "duration": 0.2727270000000033,
            "durationTicks": 192,
            "midi": 57,
            "name": "A3",
            "ticks": 32832,
            "time": 46.636317,
            "velocity": 0.4881889763779528
          },
          {
            "duration": 0.13636350000000164,
            "durationTicks": 96,
            "midi": 92,
            "name": "G#6",
            "ticks": 32928,
            "time": 46.7726805,
            "velocity": 0.4881889763779528
          },
          {
            "duration": 0.13636350000000164,
            "durationTicks": 96,
            "midi": 92,
            "name": "G#6",
            "ticks": 32928,
            "time": 46.7726805,
            "velocity": 0.4881889763779528
          },
          {
            "duration": 0.13636350000000164,
            "durationTicks": 96,
            "midi": 92,
            "name": "G#6",
            "ticks": 32928,
            "time": 46.7726805,
            "velocity": 0.4881889763779528
          },
          {
            "duration": 0.13636350000000164,
            "durationTicks": 96,
            "midi": 92,
            "name": "G#6",
            "ticks": 32928,
            "time": 46.7726805,
            "velocity": 0.4881889763779528
          },
          {
            "duration": 0.13636350000000164,
            "durationTicks": 96,
            "midi": 92,
            "name": "G#6",
            "ticks": 32928,
            "time": 46.7726805,
            "velocity": 0.4881889763779528
          },
          {
            "duration": 0.13636350000000164,
            "durationTicks": 96,
            "midi": 92,
            "name": "G#6",
            "ticks": 32928,
            "time": 46.7726805,
            "velocity": 0.4881889763779528
          },
          {
            "duration": 0.27272699999999617,
            "durationTicks": 192,
            "midi": 44,
            "name": "G#2",
            "ticks": 33024,
            "time": 46.909044,
            "velocity": 0.4881889763779528
          },
          {
            "duration": 0.27272699999999617,
            "durationTicks": 192,
            "midi": 44,
            "name": "G#2",
            "ticks": 33024,
            "time": 46.909044,
            "velocity": 0.4881889763779528
          },
          {
            "duration": 0.27272699999999617,
            "durationTicks": 192,
            "midi": 44,
            "name": "G#2",
            "ticks": 33024,
            "time": 46.909044,
            "velocity": 0.4881889763779528
          },
          {
            "duration": 0.27272699999999617,
            "durationTicks": 192,
            "midi": 44,
            "name": "G#2",
            "ticks": 33024,
            "time": 46.909044,
            "velocity": 0.4881889763779528
          },
          {
            "duration": 0.27272699999999617,
            "durationTicks": 192,
            "midi": 44,
            "name": "G#2",
            "ticks": 33024,
            "time": 46.909044,
            "velocity": 0.4881889763779528
          },
          {
            "duration": 0.27272699999999617,
            "durationTicks": 192,
            "midi": 44,
            "name": "G#2",
            "ticks": 33024,
            "time": 46.909044,
            "velocity": 0.4881889763779528
          },
          {
            "duration": 0.13636350000000164,
            "durationTicks": 96,
            "midi": 92,
            "name": "G#6",
            "ticks": 33120,
            "time": 47.045407499999996,
            "velocity": 0.4881889763779528
          },
          {
            "duration": 0.13636350000000164,
            "durationTicks": 96,
            "midi": 80,
            "name": "G#5",
            "ticks": 33120,
            "time": 47.045407499999996,
            "velocity": 0.4881889763779528
          },
          {
            "duration": 0.13636350000000164,
            "durationTicks": 96,
            "midi": 80,
            "name": "G#5",
            "ticks": 33120,
            "time": 47.045407499999996,
            "velocity": 0.4881889763779528
          },
          {
            "duration": 0.13636350000000164,
            "durationTicks": 96,
            "midi": 80,
            "name": "G#5",
            "ticks": 33120,
            "time": 47.045407499999996,
            "velocity": 0.4881889763779528
          },
          {
            "duration": 0.13636350000000164,
            "durationTicks": 96,
            "midi": 80,
            "name": "G#5",
            "ticks": 33120,
            "time": 47.045407499999996,
            "velocity": 0.4881889763779528
          },
          {
            "duration": 0.13636350000000164,
            "durationTicks": 96,
            "midi": 80,
            "name": "G#5",
            "ticks": 33120,
            "time": 47.045407499999996,
            "velocity": 0.4881889763779528
          },
          {
            "duration": 0.13636350000000164,
            "durationTicks": 96,
            "midi": 80,
            "name": "G#5",
            "ticks": 33120,
            "time": 47.045407499999996,
            "velocity": 0.4881889763779528
          },
          {
            "duration": 0.13636350000000164,
            "durationTicks": 96,
            "midi": 92,
            "name": "G#6",
            "ticks": 33120,
            "time": 47.045407499999996,
            "velocity": 0.4881889763779528
          },
          {
            "duration": 0.13636350000000164,
            "durationTicks": 96,
            "midi": 92,
            "name": "G#6",
            "ticks": 33120,
            "time": 47.045407499999996,
            "velocity": 0.4881889763779528
          },
          {
            "duration": 0.13636350000000164,
            "durationTicks": 96,
            "midi": 92,
            "name": "G#6",
            "ticks": 33120,
            "time": 47.045407499999996,
            "velocity": 0.4881889763779528
          },
          {
            "duration": 0.13636350000000164,
            "durationTicks": 96,
            "midi": 92,
            "name": "G#6",
            "ticks": 33120,
            "time": 47.045407499999996,
            "velocity": 0.4881889763779528
          },
          {
            "duration": 0.13636350000000164,
            "durationTicks": 96,
            "midi": 92,
            "name": "G#6",
            "ticks": 33120,
            "time": 47.045407499999996,
            "velocity": 0.4881889763779528
          },
          {
            "duration": 0.2727270000000033,
            "durationTicks": 192,
            "midi": 56,
            "name": "G#3",
            "ticks": 33216,
            "time": 47.181771,
            "velocity": 0.4881889763779528
          },
          {
            "duration": 0.2727270000000033,
            "durationTicks": 192,
            "midi": 56,
            "name": "G#3",
            "ticks": 33216,
            "time": 47.181771,
            "velocity": 0.4881889763779528
          },
          {
            "duration": 0.2727270000000033,
            "durationTicks": 192,
            "midi": 56,
            "name": "G#3",
            "ticks": 33216,
            "time": 47.181771,
            "velocity": 0.4881889763779528
          },
          {
            "duration": 0.2727270000000033,
            "durationTicks": 192,
            "midi": 56,
            "name": "G#3",
            "ticks": 33216,
            "time": 47.181771,
            "velocity": 0.4881889763779528
          },
          {
            "duration": 0.2727270000000033,
            "durationTicks": 192,
            "midi": 56,
            "name": "G#3",
            "ticks": 33216,
            "time": 47.181771,
            "velocity": 0.4881889763779528
          },
          {
            "duration": 0.2727270000000033,
            "durationTicks": 192,
            "midi": 56,
            "name": "G#3",
            "ticks": 33216,
            "time": 47.181771,
            "velocity": 0.4881889763779528
          },
          {
            "duration": 0.13636350000000164,
            "durationTicks": 96,
            "midi": 80,
            "name": "G#5",
            "ticks": 33312,
            "time": 47.3181345,
            "velocity": 0.4881889763779528
          },
          {
            "duration": 0.13636350000000164,
            "durationTicks": 96,
            "midi": 80,
            "name": "G#5",
            "ticks": 33312,
            "time": 47.3181345,
            "velocity": 0.4881889763779528
          },
          {
            "duration": 0.13636350000000164,
            "durationTicks": 96,
            "midi": 92,
            "name": "G#6",
            "ticks": 33312,
            "time": 47.3181345,
            "velocity": 0.4881889763779528
          },
          {
            "duration": 0.13636350000000164,
            "durationTicks": 96,
            "midi": 80,
            "name": "G#5",
            "ticks": 33312,
            "time": 47.3181345,
            "velocity": 0.4881889763779528
          },
          {
            "duration": 0.13636350000000164,
            "durationTicks": 96,
            "midi": 80,
            "name": "G#5",
            "ticks": 33312,
            "time": 47.3181345,
            "velocity": 0.4881889763779528
          },
          {
            "duration": 0.13636350000000164,
            "durationTicks": 96,
            "midi": 80,
            "name": "G#5",
            "ticks": 33312,
            "time": 47.3181345,
            "velocity": 0.4881889763779528
          },
          {
            "duration": 0.13636350000000164,
            "durationTicks": 96,
            "midi": 92,
            "name": "G#6",
            "ticks": 33312,
            "time": 47.3181345,
            "velocity": 0.4881889763779528
          },
          {
            "duration": 0.13636350000000164,
            "durationTicks": 96,
            "midi": 80,
            "name": "G#5",
            "ticks": 33312,
            "time": 47.3181345,
            "velocity": 0.4881889763779528
          },
          {
            "duration": 0.13636350000000164,
            "durationTicks": 96,
            "midi": 92,
            "name": "G#6",
            "ticks": 33312,
            "time": 47.3181345,
            "velocity": 0.4881889763779528
          },
          {
            "duration": 0.13636350000000164,
            "durationTicks": 96,
            "midi": 92,
            "name": "G#6",
            "ticks": 33312,
            "time": 47.3181345,
            "velocity": 0.4881889763779528
          },
          {
            "duration": 0.13636350000000164,
            "durationTicks": 96,
            "midi": 92,
            "name": "G#6",
            "ticks": 33312,
            "time": 47.3181345,
            "velocity": 0.4881889763779528
          },
          {
            "duration": 0.13636350000000164,
            "durationTicks": 96,
            "midi": 92,
            "name": "G#6",
            "ticks": 33312,
            "time": 47.3181345,
            "velocity": 0.4881889763779528
          },
          {
            "duration": 0.27272699999999617,
            "durationTicks": 192,
            "midi": 44,
            "name": "G#2",
            "ticks": 33408,
            "time": 47.454498,
            "velocity": 0.4881889763779528
          },
          {
            "duration": 0.27272699999999617,
            "durationTicks": 192,
            "midi": 44,
            "name": "G#2",
            "ticks": 33408,
            "time": 47.454498,
            "velocity": 0.4881889763779528
          },
          {
            "duration": 0.27272699999999617,
            "durationTicks": 192,
            "midi": 44,
            "name": "G#2",
            "ticks": 33408,
            "time": 47.454498,
            "velocity": 0.4881889763779528
          },
          {
            "duration": 0.27272699999999617,
            "durationTicks": 192,
            "midi": 44,
            "name": "G#2",
            "ticks": 33408,
            "time": 47.454498,
            "velocity": 0.4881889763779528
          },
          {
            "duration": 0.27272699999999617,
            "durationTicks": 192,
            "midi": 44,
            "name": "G#2",
            "ticks": 33408,
            "time": 47.454498,
            "velocity": 0.4881889763779528
          },
          {
            "duration": 0.27272699999999617,
            "durationTicks": 192,
            "midi": 44,
            "name": "G#2",
            "ticks": 33408,
            "time": 47.454498,
            "velocity": 0.4881889763779528
          },
          {
            "duration": 0.13636349999999453,
            "durationTicks": 96,
            "midi": 80,
            "name": "G#5",
            "ticks": 33504,
            "time": 47.5908615,
            "velocity": 0.4881889763779528
          },
          {
            "duration": 0.13636349999999453,
            "durationTicks": 96,
            "midi": 80,
            "name": "G#5",
            "ticks": 33504,
            "time": 47.5908615,
            "velocity": 0.4881889763779528
          },
          {
            "duration": 0.13636349999999453,
            "durationTicks": 96,
            "midi": 80,
            "name": "G#5",
            "ticks": 33504,
            "time": 47.5908615,
            "velocity": 0.4881889763779528
          },
          {
            "duration": 0.13636349999999453,
            "durationTicks": 96,
            "midi": 92,
            "name": "G#6",
            "ticks": 33504,
            "time": 47.5908615,
            "velocity": 0.4881889763779528
          },
          {
            "duration": 0.13636349999999453,
            "durationTicks": 96,
            "midi": 92,
            "name": "G#6",
            "ticks": 33504,
            "time": 47.5908615,
            "velocity": 0.4881889763779528
          },
          {
            "duration": 0.13636349999999453,
            "durationTicks": 96,
            "midi": 92,
            "name": "G#6",
            "ticks": 33504,
            "time": 47.5908615,
            "velocity": 0.4881889763779528
          },
          {
            "duration": 0.13636349999999453,
            "durationTicks": 96,
            "midi": 80,
            "name": "G#5",
            "ticks": 33504,
            "time": 47.5908615,
            "velocity": 0.4881889763779528
          },
          {
            "duration": 0.13636349999999453,
            "durationTicks": 96,
            "midi": 80,
            "name": "G#5",
            "ticks": 33504,
            "time": 47.5908615,
            "velocity": 0.4881889763779528
          },
          {
            "duration": 0.13636349999999453,
            "durationTicks": 96,
            "midi": 92,
            "name": "G#6",
            "ticks": 33504,
            "time": 47.5908615,
            "velocity": 0.4881889763779528
          },
          {
            "duration": 0.13636349999999453,
            "durationTicks": 96,
            "midi": 92,
            "name": "G#6",
            "ticks": 33504,
            "time": 47.5908615,
            "velocity": 0.4881889763779528
          },
          {
            "duration": 0.13636349999999453,
            "durationTicks": 96,
            "midi": 80,
            "name": "G#5",
            "ticks": 33504,
            "time": 47.5908615,
            "velocity": 0.4881889763779528
          },
          {
            "duration": 0.13636349999999453,
            "durationTicks": 96,
            "midi": 92,
            "name": "G#6",
            "ticks": 33504,
            "time": 47.5908615,
            "velocity": 0.4881889763779528
          },
          {
            "duration": 0.2727270000000033,
            "durationTicks": 192,
            "midi": 56,
            "name": "G#3",
            "ticks": 33600,
            "time": 47.727225,
            "velocity": 0.4881889763779528
          },
          {
            "duration": 0.2727270000000033,
            "durationTicks": 192,
            "midi": 56,
            "name": "G#3",
            "ticks": 33600,
            "time": 47.727225,
            "velocity": 0.4881889763779528
          },
          {
            "duration": 0.2727270000000033,
            "durationTicks": 192,
            "midi": 93,
            "name": "A6",
            "ticks": 33600,
            "time": 47.727225,
            "velocity": 0.4881889763779528
          },
          {
            "duration": 0.2727270000000033,
            "durationTicks": 192,
            "midi": 81,
            "name": "A5",
            "ticks": 33600,
            "time": 47.727225,
            "velocity": 0.4881889763779528
          },
          {
            "duration": 0.2727270000000033,
            "durationTicks": 192,
            "midi": 93,
            "name": "A6",
            "ticks": 33600,
            "time": 47.727225,
            "velocity": 0.4881889763779528
          },
          {
            "duration": 0.2727270000000033,
            "durationTicks": 192,
            "midi": 81,
            "name": "A5",
            "ticks": 33600,
            "time": 47.727225,
            "velocity": 0.4881889763779528
          },
          {
            "duration": 0.2727270000000033,
            "durationTicks": 192,
            "midi": 93,
            "name": "A6",
            "ticks": 33600,
            "time": 47.727225,
            "velocity": 0.4881889763779528
          },
          {
            "duration": 0.2727270000000033,
            "durationTicks": 192,
            "midi": 93,
            "name": "A6",
            "ticks": 33600,
            "time": 47.727225,
            "velocity": 0.4881889763779528
          },
          {
            "duration": 0.2727270000000033,
            "durationTicks": 192,
            "midi": 56,
            "name": "G#3",
            "ticks": 33600,
            "time": 47.727225,
            "velocity": 0.4881889763779528
          },
          {
            "duration": 0.2727270000000033,
            "durationTicks": 192,
            "midi": 56,
            "name": "G#3",
            "ticks": 33600,
            "time": 47.727225,
            "velocity": 0.4881889763779528
          },
          {
            "duration": 0.2727270000000033,
            "durationTicks": 192,
            "midi": 81,
            "name": "A5",
            "ticks": 33600,
            "time": 47.727225,
            "velocity": 0.4881889763779528
          },
          {
            "duration": 0.2727270000000033,
            "durationTicks": 192,
            "midi": 93,
            "name": "A6",
            "ticks": 33600,
            "time": 47.727225,
            "velocity": 0.4881889763779528
          },
          {
            "duration": 0.2727270000000033,
            "durationTicks": 192,
            "midi": 81,
            "name": "A5",
            "ticks": 33600,
            "time": 47.727225,
            "velocity": 0.4881889763779528
          },
          {
            "duration": 0.2727270000000033,
            "durationTicks": 192,
            "midi": 81,
            "name": "A5",
            "ticks": 33600,
            "time": 47.727225,
            "velocity": 0.4881889763779528
          },
          {
            "duration": 0.2727270000000033,
            "durationTicks": 192,
            "midi": 81,
            "name": "A5",
            "ticks": 33600,
            "time": 47.727225,
            "velocity": 0.4881889763779528
          },
          {
            "duration": 0.2727270000000033,
            "durationTicks": 192,
            "midi": 56,
            "name": "G#3",
            "ticks": 33600,
            "time": 47.727225,
            "velocity": 0.4881889763779528
          },
          {
            "duration": 0.2727270000000033,
            "durationTicks": 192,
            "midi": 56,
            "name": "G#3",
            "ticks": 33600,
            "time": 47.727225,
            "velocity": 0.4881889763779528
          },
          {
            "duration": 0.2727270000000033,
            "durationTicks": 192,
            "midi": 93,
            "name": "A6",
            "ticks": 33600,
            "time": 47.727225,
            "velocity": 0.4881889763779528
          },
          {
            "duration": 0.5454539999999994,
            "durationTicks": 384,
            "midi": 90,
            "name": "F#6",
            "ticks": 33792,
            "time": 47.999952,
            "velocity": 0.4881889763779528
          },
          {
            "duration": 0.27272699999999617,
            "durationTicks": 192,
            "midi": 42,
            "name": "F#2",
            "ticks": 33792,
            "time": 47.999952,
            "velocity": 0.4881889763779528
          },
          {
            "duration": 0.27272699999999617,
            "durationTicks": 192,
            "midi": 42,
            "name": "F#2",
            "ticks": 33792,
            "time": 47.999952,
            "velocity": 0.4881889763779528
          },
          {
            "duration": 0.27272699999999617,
            "durationTicks": 192,
            "midi": 42,
            "name": "F#2",
            "ticks": 33792,
            "time": 47.999952,
            "velocity": 0.4881889763779528
          },
          {
            "duration": 0.5454539999999994,
            "durationTicks": 384,
            "midi": 90,
            "name": "F#6",
            "ticks": 33792,
            "time": 47.999952,
            "velocity": 0.4881889763779528
          },
          {
            "duration": 0.5454539999999994,
            "durationTicks": 384,
            "midi": 78,
            "name": "F#5",
            "ticks": 33792,
            "time": 47.999952,
            "velocity": 0.4881889763779528
          },
          {
            "duration": 0.5454539999999994,
            "durationTicks": 384,
            "midi": 78,
            "name": "F#5",
            "ticks": 33792,
            "time": 47.999952,
            "velocity": 0.4881889763779528
          },
          {
            "duration": 0.5454539999999994,
            "durationTicks": 384,
            "midi": 90,
            "name": "F#6",
            "ticks": 33792,
            "time": 47.999952,
            "velocity": 0.4881889763779528
          },
          {
            "duration": 0.5454539999999994,
            "durationTicks": 384,
            "midi": 90,
            "name": "F#6",
            "ticks": 33792,
            "time": 47.999952,
            "velocity": 0.4881889763779528
          },
          {
            "duration": 0.27272699999999617,
            "durationTicks": 192,
            "midi": 42,
            "name": "F#2",
            "ticks": 33792,
            "time": 47.999952,
            "velocity": 0.4881889763779528
          },
          {
            "duration": 0.5454539999999994,
            "durationTicks": 384,
            "midi": 90,
            "name": "F#6",
            "ticks": 33792,
            "time": 47.999952,
            "velocity": 0.4881889763779528
          },
          {
            "duration": 0.5454539999999994,
            "durationTicks": 384,
            "midi": 78,
            "name": "F#5",
            "ticks": 33792,
            "time": 47.999952,
            "velocity": 0.4881889763779528
          },
          {
            "duration": 0.5454539999999994,
            "durationTicks": 384,
            "midi": 78,
            "name": "F#5",
            "ticks": 33792,
            "time": 47.999952,
            "velocity": 0.4881889763779528
          },
          {
            "duration": 0.5454539999999994,
            "durationTicks": 384,
            "midi": 78,
            "name": "F#5",
            "ticks": 33792,
            "time": 47.999952,
            "velocity": 0.4881889763779528
          },
          {
            "duration": 0.5454539999999994,
            "durationTicks": 384,
            "midi": 78,
            "name": "F#5",
            "ticks": 33792,
            "time": 47.999952,
            "velocity": 0.4881889763779528
          },
          {
            "duration": 0.27272699999999617,
            "durationTicks": 192,
            "midi": 42,
            "name": "F#2",
            "ticks": 33792,
            "time": 47.999952,
            "velocity": 0.4881889763779528
          },
          {
            "duration": 0.5454539999999994,
            "durationTicks": 384,
            "midi": 90,
            "name": "F#6",
            "ticks": 33792,
            "time": 47.999952,
            "velocity": 0.4881889763779528
          },
          {
            "duration": 0.27272699999999617,
            "durationTicks": 192,
            "midi": 42,
            "name": "F#2",
            "ticks": 33792,
            "time": 47.999952,
            "velocity": 0.4881889763779528
          },
          {
            "duration": 0.2727270000000033,
            "durationTicks": 192,
            "midi": 54,
            "name": "F#3",
            "ticks": 33984,
            "time": 48.272679,
            "velocity": 0.4881889763779528
          },
          {
            "duration": 0.2727270000000033,
            "durationTicks": 192,
            "midi": 54,
            "name": "F#3",
            "ticks": 33984,
            "time": 48.272679,
            "velocity": 0.4881889763779528
          },
          {
            "duration": 0.2727270000000033,
            "durationTicks": 192,
            "midi": 54,
            "name": "F#3",
            "ticks": 33984,
            "time": 48.272679,
            "velocity": 0.4881889763779528
          },
          {
            "duration": 0.2727270000000033,
            "durationTicks": 192,
            "midi": 54,
            "name": "F#3",
            "ticks": 33984,
            "time": 48.272679,
            "velocity": 0.4881889763779528
          },
          {
            "duration": 0.2727270000000033,
            "durationTicks": 192,
            "midi": 54,
            "name": "F#3",
            "ticks": 33984,
            "time": 48.272679,
            "velocity": 0.4881889763779528
          },
          {
            "duration": 0.2727270000000033,
            "durationTicks": 192,
            "midi": 54,
            "name": "F#3",
            "ticks": 33984,
            "time": 48.272679,
            "velocity": 0.4881889763779528
          },
          {
            "duration": 0.27272699999999617,
            "durationTicks": 192,
            "midi": 42,
            "name": "F#2",
            "ticks": 34176,
            "time": 48.545406,
            "velocity": 0.4881889763779528
          },
          {
            "duration": 0.5454539999999994,
            "durationTicks": 384,
            "midi": 76,
            "name": "E5",
            "ticks": 34176,
            "time": 48.545406,
            "velocity": 0.4881889763779528
          },
          {
            "duration": 0.5454539999999994,
            "durationTicks": 384,
            "midi": 76,
            "name": "E5",
            "ticks": 34176,
            "time": 48.545406,
            "velocity": 0.4881889763779528
          },
          {
            "duration": 0.5454539999999994,
            "durationTicks": 384,
            "midi": 88,
            "name": "E6",
            "ticks": 34176,
            "time": 48.545406,
            "velocity": 0.4881889763779528
          },
          {
            "duration": 0.5454539999999994,
            "durationTicks": 384,
            "midi": 76,
            "name": "E5",
            "ticks": 34176,
            "time": 48.545406,
            "velocity": 0.4881889763779528
          },
          {
            "duration": 0.27272699999999617,
            "durationTicks": 192,
            "midi": 42,
            "name": "F#2",
            "ticks": 34176,
            "time": 48.545406,
            "velocity": 0.4881889763779528
          },
          {
            "duration": 0.5454539999999994,
            "durationTicks": 384,
            "midi": 76,
            "name": "E5",
            "ticks": 34176,
            "time": 48.545406,
            "velocity": 0.4881889763779528
          },
          {
            "duration": 0.5454539999999994,
            "durationTicks": 384,
            "midi": 88,
            "name": "E6",
            "ticks": 34176,
            "time": 48.545406,
            "velocity": 0.4881889763779528
          },
          {
            "duration": 0.5454539999999994,
            "durationTicks": 384,
            "midi": 88,
            "name": "E6",
            "ticks": 34176,
            "time": 48.545406,
            "velocity": 0.4881889763779528
          },
          {
            "duration": 0.27272699999999617,
            "durationTicks": 192,
            "midi": 42,
            "name": "F#2",
            "ticks": 34176,
            "time": 48.545406,
            "velocity": 0.4881889763779528
          },
          {
            "duration": 0.27272699999999617,
            "durationTicks": 192,
            "midi": 42,
            "name": "F#2",
            "ticks": 34176,
            "time": 48.545406,
            "velocity": 0.4881889763779528
          },
          {
            "duration": 0.5454539999999994,
            "durationTicks": 384,
            "midi": 88,
            "name": "E6",
            "ticks": 34176,
            "time": 48.545406,
            "velocity": 0.4881889763779528
          },
          {
            "duration": 0.5454539999999994,
            "durationTicks": 384,
            "midi": 88,
            "name": "E6",
            "ticks": 34176,
            "time": 48.545406,
            "velocity": 0.4881889763779528
          },
          {
            "duration": 0.27272699999999617,
            "durationTicks": 192,
            "midi": 42,
            "name": "F#2",
            "ticks": 34176,
            "time": 48.545406,
            "velocity": 0.4881889763779528
          },
          {
            "duration": 0.5454539999999994,
            "durationTicks": 384,
            "midi": 76,
            "name": "E5",
            "ticks": 34176,
            "time": 48.545406,
            "velocity": 0.4881889763779528
          },
          {
            "duration": 0.5454539999999994,
            "durationTicks": 384,
            "midi": 88,
            "name": "E6",
            "ticks": 34176,
            "time": 48.545406,
            "velocity": 0.4881889763779528
          },
          {
            "duration": 0.5454539999999994,
            "durationTicks": 384,
            "midi": 76,
            "name": "E5",
            "ticks": 34176,
            "time": 48.545406,
            "velocity": 0.4881889763779528
          },
          {
            "duration": 0.27272699999999617,
            "durationTicks": 192,
            "midi": 42,
            "name": "F#2",
            "ticks": 34176,
            "time": 48.545406,
            "velocity": 0.4881889763779528
          },
          {
            "duration": 0.2727270000000033,
            "durationTicks": 192,
            "midi": 54,
            "name": "F#3",
            "ticks": 34368,
            "time": 48.818132999999996,
            "velocity": 0.4881889763779528
          },
          {
            "duration": 0.2727270000000033,
            "durationTicks": 192,
            "midi": 54,
            "name": "F#3",
            "ticks": 34368,
            "time": 48.818132999999996,
            "velocity": 0.4881889763779528
          },
          {
            "duration": 0.2727270000000033,
            "durationTicks": 192,
            "midi": 54,
            "name": "F#3",
            "ticks": 34368,
            "time": 48.818132999999996,
            "velocity": 0.4881889763779528
          },
          {
            "duration": 0.2727270000000033,
            "durationTicks": 192,
            "midi": 54,
            "name": "F#3",
            "ticks": 34368,
            "time": 48.818132999999996,
            "velocity": 0.4881889763779528
          },
          {
            "duration": 0.2727270000000033,
            "durationTicks": 192,
            "midi": 54,
            "name": "F#3",
            "ticks": 34368,
            "time": 48.818132999999996,
            "velocity": 0.4881889763779528
          },
          {
            "duration": 0.2727270000000033,
            "durationTicks": 192,
            "midi": 54,
            "name": "F#3",
            "ticks": 34368,
            "time": 48.818132999999996,
            "velocity": 0.4881889763779528
          },
          {
            "duration": 0.2727270000000033,
            "durationTicks": 192,
            "midi": 44,
            "name": "G#2",
            "ticks": 34560,
            "time": 49.09086,
            "velocity": 0.4881889763779528
          },
          {
            "duration": 0.2727270000000033,
            "durationTicks": 192,
            "midi": 44,
            "name": "G#2",
            "ticks": 34560,
            "time": 49.09086,
            "velocity": 0.4881889763779528
          },
          {
            "duration": 0.2727270000000033,
            "durationTicks": 192,
            "midi": 44,
            "name": "G#2",
            "ticks": 34560,
            "time": 49.09086,
            "velocity": 0.4881889763779528
          },
          {
            "duration": 0.2727270000000033,
            "durationTicks": 192,
            "midi": 44,
            "name": "G#2",
            "ticks": 34560,
            "time": 49.09086,
            "velocity": 0.4881889763779528
          },
          {
            "duration": 0.2727270000000033,
            "durationTicks": 192,
            "midi": 44,
            "name": "G#2",
            "ticks": 34560,
            "time": 49.09086,
            "velocity": 0.4881889763779528
          },
          {
            "duration": 0.2727270000000033,
            "durationTicks": 192,
            "midi": 44,
            "name": "G#2",
            "ticks": 34560,
            "time": 49.09086,
            "velocity": 0.4881889763779528
          },
          {
            "duration": 0.27272699999999617,
            "durationTicks": 192,
            "midi": 56,
            "name": "G#3",
            "ticks": 34752,
            "time": 49.363587,
            "velocity": 0.4881889763779528
          },
          {
            "duration": 0.27272699999999617,
            "durationTicks": 192,
            "midi": 56,
            "name": "G#3",
            "ticks": 34752,
            "time": 49.363587,
            "velocity": 0.4881889763779528
          },
          {
            "duration": 0.27272699999999617,
            "durationTicks": 192,
            "midi": 56,
            "name": "G#3",
            "ticks": 34752,
            "time": 49.363587,
            "velocity": 0.4881889763779528
          },
          {
            "duration": 0.27272699999999617,
            "durationTicks": 192,
            "midi": 56,
            "name": "G#3",
            "ticks": 34752,
            "time": 49.363587,
            "velocity": 0.4881889763779528
          },
          {
            "duration": 0.27272699999999617,
            "durationTicks": 192,
            "midi": 56,
            "name": "G#3",
            "ticks": 34752,
            "time": 49.363587,
            "velocity": 0.4881889763779528
          },
          {
            "duration": 0.27272699999999617,
            "durationTicks": 192,
            "midi": 56,
            "name": "G#3",
            "ticks": 34752,
            "time": 49.363587,
            "velocity": 0.4881889763779528
          },
          {
            "duration": 0.2727270000000033,
            "durationTicks": 192,
            "midi": 44,
            "name": "G#2",
            "ticks": 34944,
            "time": 49.636314,
            "velocity": 0.4881889763779528
          },
          {
            "duration": 0.2727270000000033,
            "durationTicks": 192,
            "midi": 44,
            "name": "G#2",
            "ticks": 34944,
            "time": 49.636314,
            "velocity": 0.4881889763779528
          },
          {
            "duration": 0.2727270000000033,
            "durationTicks": 192,
            "midi": 44,
            "name": "G#2",
            "ticks": 34944,
            "time": 49.636314,
            "velocity": 0.4881889763779528
          },
          {
            "duration": 0.2727270000000033,
            "durationTicks": 192,
            "midi": 44,
            "name": "G#2",
            "ticks": 34944,
            "time": 49.636314,
            "velocity": 0.4881889763779528
          },
          {
            "duration": 0.2727270000000033,
            "durationTicks": 192,
            "midi": 44,
            "name": "G#2",
            "ticks": 34944,
            "time": 49.636314,
            "velocity": 0.4881889763779528
          },
          {
            "duration": 0.2727270000000033,
            "durationTicks": 192,
            "midi": 44,
            "name": "G#2",
            "ticks": 34944,
            "time": 49.636314,
            "velocity": 0.4881889763779528
          },
          {
            "duration": 0.27272699999999617,
            "durationTicks": 192,
            "midi": 56,
            "name": "G#3",
            "ticks": 35136,
            "time": 49.909041,
            "velocity": 0.4881889763779528
          },
          {
            "duration": 0.27272699999999617,
            "durationTicks": 192,
            "midi": 56,
            "name": "G#3",
            "ticks": 35136,
            "time": 49.909041,
            "velocity": 0.4881889763779528
          },
          {
            "duration": 0.27272699999999617,
            "durationTicks": 192,
            "midi": 56,
            "name": "G#3",
            "ticks": 35136,
            "time": 49.909041,
            "velocity": 0.4881889763779528
          },
          {
            "duration": 0.27272699999999617,
            "durationTicks": 192,
            "midi": 56,
            "name": "G#3",
            "ticks": 35136,
            "time": 49.909041,
            "velocity": 0.4881889763779528
          },
          {
            "duration": 0.27272699999999617,
            "durationTicks": 192,
            "midi": 56,
            "name": "G#3",
            "ticks": 35136,
            "time": 49.909041,
            "velocity": 0.4881889763779528
          },
          {
            "duration": 0.27272699999999617,
            "durationTicks": 192,
            "midi": 56,
            "name": "G#3",
            "ticks": 35136,
            "time": 49.909041,
            "velocity": 0.4881889763779528
          },
          {
            "duration": 0.13636350000000164,
            "durationTicks": 96,
            "midi": 88,
            "name": "E6",
            "ticks": 35232,
            "time": 50.0454045,
            "velocity": 0.4881889763779528
          },
          {
            "duration": 0.13636350000000164,
            "durationTicks": 96,
            "midi": 88,
            "name": "E6",
            "ticks": 35232,
            "time": 50.0454045,
            "velocity": 0.4881889763779528
          },
          {
            "duration": 0.13636350000000164,
            "durationTicks": 96,
            "midi": 88,
            "name": "E6",
            "ticks": 35232,
            "time": 50.0454045,
            "velocity": 0.4881889763779528
          },
          {
            "duration": 0.13636350000000164,
            "durationTicks": 96,
            "midi": 88,
            "name": "E6",
            "ticks": 35232,
            "time": 50.0454045,
            "velocity": 0.4881889763779528
          },
          {
            "duration": 0.13636350000000164,
            "durationTicks": 96,
            "midi": 88,
            "name": "E6",
            "ticks": 35232,
            "time": 50.0454045,
            "velocity": 0.4881889763779528
          },
          {
            "duration": 0.13636350000000164,
            "durationTicks": 96,
            "midi": 88,
            "name": "E6",
            "ticks": 35232,
            "time": 50.0454045,
            "velocity": 0.4881889763779528
          },
          {
            "duration": 0.2727270000000033,
            "durationTicks": 192,
            "midi": 44,
            "name": "G#2",
            "ticks": 35328,
            "time": 50.181768,
            "velocity": 0.4881889763779528
          },
          {
            "duration": 0.2727270000000033,
            "durationTicks": 192,
            "midi": 44,
            "name": "G#2",
            "ticks": 35328,
            "time": 50.181768,
            "velocity": 0.4881889763779528
          },
          {
            "duration": 0.2727270000000033,
            "durationTicks": 192,
            "midi": 44,
            "name": "G#2",
            "ticks": 35328,
            "time": 50.181768,
            "velocity": 0.4881889763779528
          },
          {
            "duration": 0.2727270000000033,
            "durationTicks": 192,
            "midi": 44,
            "name": "G#2",
            "ticks": 35328,
            "time": 50.181768,
            "velocity": 0.4881889763779528
          },
          {
            "duration": 0.13636350000000164,
            "durationTicks": 96,
            "midi": 88,
            "name": "E6",
            "ticks": 35328,
            "time": 50.181768,
            "velocity": 0.4881889763779528
          },
          {
            "duration": 0.13636350000000164,
            "durationTicks": 96,
            "midi": 88,
            "name": "E6",
            "ticks": 35328,
            "time": 50.181768,
            "velocity": 0.4881889763779528
          },
          {
            "duration": 0.13636350000000164,
            "durationTicks": 96,
            "midi": 88,
            "name": "E6",
            "ticks": 35328,
            "time": 50.181768,
            "velocity": 0.4881889763779528
          },
          {
            "duration": 0.13636350000000164,
            "durationTicks": 96,
            "midi": 88,
            "name": "E6",
            "ticks": 35328,
            "time": 50.181768,
            "velocity": 0.4881889763779528
          },
          {
            "duration": 0.13636350000000164,
            "durationTicks": 96,
            "midi": 88,
            "name": "E6",
            "ticks": 35328,
            "time": 50.181768,
            "velocity": 0.4881889763779528
          },
          {
            "duration": 0.2727270000000033,
            "durationTicks": 192,
            "midi": 44,
            "name": "G#2",
            "ticks": 35328,
            "time": 50.181768,
            "velocity": 0.4881889763779528
          },
          {
            "duration": 0.13636350000000164,
            "durationTicks": 96,
            "midi": 88,
            "name": "E6",
            "ticks": 35328,
            "time": 50.181768,
            "velocity": 0.4881889763779528
          },
          {
            "duration": 0.2727270000000033,
            "durationTicks": 192,
            "midi": 44,
            "name": "G#2",
            "ticks": 35328,
            "time": 50.181768,
            "velocity": 0.4881889763779528
          },
          {
            "duration": 0.13636349999999453,
            "durationTicks": 96,
            "midi": 88,
            "name": "E6",
            "ticks": 35520,
            "time": 50.454495,
            "velocity": 0.4881889763779528
          },
          {
            "duration": 0.27272699999999617,
            "durationTicks": 192,
            "midi": 56,
            "name": "G#3",
            "ticks": 35520,
            "time": 50.454495,
            "velocity": 0.4881889763779528
          },
          {
            "duration": 0.13636349999999453,
            "durationTicks": 96,
            "midi": 88,
            "name": "E6",
            "ticks": 35520,
            "time": 50.454495,
            "velocity": 0.4881889763779528
          },
          {
            "duration": 0.27272699999999617,
            "durationTicks": 192,
            "midi": 56,
            "name": "G#3",
            "ticks": 35520,
            "time": 50.454495,
            "velocity": 0.4881889763779528
          },
          {
            "duration": 0.13636349999999453,
            "durationTicks": 96,
            "midi": 88,
            "name": "E6",
            "ticks": 35520,
            "time": 50.454495,
            "velocity": 0.4881889763779528
          },
          {
            "duration": 0.13636349999999453,
            "durationTicks": 96,
            "midi": 88,
            "name": "E6",
            "ticks": 35520,
            "time": 50.454495,
            "velocity": 0.4881889763779528
          },
          {
            "duration": 0.13636349999999453,
            "durationTicks": 96,
            "midi": 88,
            "name": "E6",
            "ticks": 35520,
            "time": 50.454495,
            "velocity": 0.4881889763779528
          },
          {
            "duration": 0.13636349999999453,
            "durationTicks": 96,
            "midi": 88,
            "name": "E6",
            "ticks": 35520,
            "time": 50.454495,
            "velocity": 0.4881889763779528
          },
          {
            "duration": 0.27272699999999617,
            "durationTicks": 192,
            "midi": 56,
            "name": "G#3",
            "ticks": 35520,
            "time": 50.454495,
            "velocity": 0.4881889763779528
          },
          {
            "duration": 0.27272699999999617,
            "durationTicks": 192,
            "midi": 56,
            "name": "G#3",
            "ticks": 35520,
            "time": 50.454495,
            "velocity": 0.4881889763779528
          },
          {
            "duration": 0.27272699999999617,
            "durationTicks": 192,
            "midi": 56,
            "name": "G#3",
            "ticks": 35520,
            "time": 50.454495,
            "velocity": 0.4881889763779528
          },
          {
            "duration": 0.27272699999999617,
            "durationTicks": 192,
            "midi": 56,
            "name": "G#3",
            "ticks": 35520,
            "time": 50.454495,
            "velocity": 0.4881889763779528
          },
          {
            "duration": 0.13636350000000164,
            "durationTicks": 96,
            "midi": 85,
            "name": "C#6",
            "ticks": 35616,
            "time": 50.590858499999996,
            "velocity": 0.4881889763779528
          },
          {
            "duration": 0.13636350000000164,
            "durationTicks": 96,
            "midi": 85,
            "name": "C#6",
            "ticks": 35616,
            "time": 50.590858499999996,
            "velocity": 0.4881889763779528
          },
          {
            "duration": 0.13636350000000164,
            "durationTicks": 96,
            "midi": 85,
            "name": "C#6",
            "ticks": 35616,
            "time": 50.590858499999996,
            "velocity": 0.4881889763779528
          },
          {
            "duration": 0.13636350000000164,
            "durationTicks": 96,
            "midi": 85,
            "name": "C#6",
            "ticks": 35616,
            "time": 50.590858499999996,
            "velocity": 0.4881889763779528
          },
          {
            "duration": 0.13636350000000164,
            "durationTicks": 96,
            "midi": 85,
            "name": "C#6",
            "ticks": 35616,
            "time": 50.590858499999996,
            "velocity": 0.4881889763779528
          },
          {
            "duration": 0.13636350000000164,
            "durationTicks": 96,
            "midi": 85,
            "name": "C#6",
            "ticks": 35616,
            "time": 50.590858499999996,
            "velocity": 0.4881889763779528
          },
          {
            "duration": 0.2727270000000033,
            "durationTicks": 192,
            "midi": 44,
            "name": "G#2",
            "ticks": 35712,
            "time": 50.727222,
            "velocity": 0.4881889763779528
          },
          {
            "duration": 0.2727270000000033,
            "durationTicks": 192,
            "midi": 44,
            "name": "G#2",
            "ticks": 35712,
            "time": 50.727222,
            "velocity": 0.4881889763779528
          },
          {
            "duration": 0.13636350000000164,
            "durationTicks": 96,
            "midi": 88,
            "name": "E6",
            "ticks": 35712,
            "time": 50.727222,
            "velocity": 0.4881889763779528
          },
          {
            "duration": 0.13636350000000164,
            "durationTicks": 96,
            "midi": 88,
            "name": "E6",
            "ticks": 35712,
            "time": 50.727222,
            "velocity": 0.4881889763779528
          },
          {
            "duration": 0.2727270000000033,
            "durationTicks": 192,
            "midi": 44,
            "name": "G#2",
            "ticks": 35712,
            "time": 50.727222,
            "velocity": 0.4881889763779528
          },
          {
            "duration": 0.13636350000000164,
            "durationTicks": 96,
            "midi": 88,
            "name": "E6",
            "ticks": 35712,
            "time": 50.727222,
            "velocity": 0.4881889763779528
          },
          {
            "duration": 0.2727270000000033,
            "durationTicks": 192,
            "midi": 44,
            "name": "G#2",
            "ticks": 35712,
            "time": 50.727222,
            "velocity": 0.4881889763779528
          },
          {
            "duration": 0.2727270000000033,
            "durationTicks": 192,
            "midi": 44,
            "name": "G#2",
            "ticks": 35712,
            "time": 50.727222,
            "velocity": 0.4881889763779528
          },
          {
            "duration": 0.2727270000000033,
            "durationTicks": 192,
            "midi": 44,
            "name": "G#2",
            "ticks": 35712,
            "time": 50.727222,
            "velocity": 0.4881889763779528
          },
          {
            "duration": 0.13636350000000164,
            "durationTicks": 96,
            "midi": 88,
            "name": "E6",
            "ticks": 35712,
            "time": 50.727222,
            "velocity": 0.4881889763779528
          },
          {
            "duration": 0.13636350000000164,
            "durationTicks": 96,
            "midi": 88,
            "name": "E6",
            "ticks": 35712,
            "time": 50.727222,
            "velocity": 0.4881889763779528
          },
          {
            "duration": 0.13636350000000164,
            "durationTicks": 96,
            "midi": 88,
            "name": "E6",
            "ticks": 35712,
            "time": 50.727222,
            "velocity": 0.4881889763779528
          },
          {
            "duration": 0.13636350000000164,
            "durationTicks": 96,
            "midi": 90,
            "name": "F#6",
            "ticks": 35808,
            "time": 50.8635855,
            "velocity": 0.4881889763779528
          },
          {
            "duration": 0.13636350000000164,
            "durationTicks": 96,
            "midi": 90,
            "name": "F#6",
            "ticks": 35808,
            "time": 50.8635855,
            "velocity": 0.4881889763779528
          },
          {
            "duration": 0.13636350000000164,
            "durationTicks": 96,
            "midi": 90,
            "name": "F#6",
            "ticks": 35808,
            "time": 50.8635855,
            "velocity": 0.4881889763779528
          },
          {
            "duration": 0.13636350000000164,
            "durationTicks": 96,
            "midi": 90,
            "name": "F#6",
            "ticks": 35808,
            "time": 50.8635855,
            "velocity": 0.4881889763779528
          },
          {
            "duration": 0.13636350000000164,
            "durationTicks": 96,
            "midi": 90,
            "name": "F#6",
            "ticks": 35808,
            "time": 50.8635855,
            "velocity": 0.4881889763779528
          },
          {
            "duration": 0.13636350000000164,
            "durationTicks": 96,
            "midi": 90,
            "name": "F#6",
            "ticks": 35808,
            "time": 50.8635855,
            "velocity": 0.4881889763779528
          },
          {
            "duration": 0.27272699999999617,
            "durationTicks": 192,
            "midi": 56,
            "name": "G#3",
            "ticks": 35904,
            "time": 50.999949,
            "velocity": 0.4881889763779528
          },
          {
            "duration": 0.27272699999999617,
            "durationTicks": 192,
            "midi": 56,
            "name": "G#3",
            "ticks": 35904,
            "time": 50.999949,
            "velocity": 0.4881889763779528
          },
          {
            "duration": 0.27272699999999617,
            "durationTicks": 192,
            "midi": 56,
            "name": "G#3",
            "ticks": 35904,
            "time": 50.999949,
            "velocity": 0.4881889763779528
          },
          {
            "duration": 0.27272699999999617,
            "durationTicks": 192,
            "midi": 56,
            "name": "G#3",
            "ticks": 35904,
            "time": 50.999949,
            "velocity": 0.4881889763779528
          },
          {
            "duration": 0.27272699999999617,
            "durationTicks": 192,
            "midi": 56,
            "name": "G#3",
            "ticks": 35904,
            "time": 50.999949,
            "velocity": 0.4881889763779528
          },
          {
            "duration": 0.27272699999999617,
            "durationTicks": 192,
            "midi": 56,
            "name": "G#3",
            "ticks": 35904,
            "time": 50.999949,
            "velocity": 0.4881889763779528
          },
          {
            "duration": 0.13636349999999453,
            "durationTicks": 96,
            "midi": 87,
            "name": "D#6",
            "ticks": 36000,
            "time": 51.1363125,
            "velocity": 0.4881889763779528
          },
          {
            "duration": 0.13636349999999453,
            "durationTicks": 96,
            "midi": 87,
            "name": "D#6",
            "ticks": 36000,
            "time": 51.1363125,
            "velocity": 0.4881889763779528
          },
          {
            "duration": 0.13636349999999453,
            "durationTicks": 96,
            "midi": 87,
            "name": "D#6",
            "ticks": 36000,
            "time": 51.1363125,
            "velocity": 0.4881889763779528
          },
          {
            "duration": 0.13636349999999453,
            "durationTicks": 96,
            "midi": 87,
            "name": "D#6",
            "ticks": 36000,
            "time": 51.1363125,
            "velocity": 0.4881889763779528
          },
          {
            "duration": 0.13636349999999453,
            "durationTicks": 96,
            "midi": 87,
            "name": "D#6",
            "ticks": 36000,
            "time": 51.1363125,
            "velocity": 0.4881889763779528
          },
          {
            "duration": 0.13636349999999453,
            "durationTicks": 96,
            "midi": 87,
            "name": "D#6",
            "ticks": 36000,
            "time": 51.1363125,
            "velocity": 0.4881889763779528
          },
          {
            "duration": 0.2727270000000033,
            "durationTicks": 192,
            "midi": 49,
            "name": "C#3",
            "ticks": 36096,
            "time": 51.272676,
            "velocity": 0.4881889763779528
          },
          {
            "duration": 0.2727270000000033,
            "durationTicks": 192,
            "midi": 49,
            "name": "C#3",
            "ticks": 36096,
            "time": 51.272676,
            "velocity": 0.4881889763779528
          },
          {
            "duration": 0.2727270000000033,
            "durationTicks": 192,
            "midi": 49,
            "name": "C#3",
            "ticks": 36096,
            "time": 51.272676,
            "velocity": 0.4881889763779528
          },
          {
            "duration": 0.2727270000000033,
            "durationTicks": 192,
            "midi": 49,
            "name": "C#3",
            "ticks": 36096,
            "time": 51.272676,
            "velocity": 0.4881889763779528
          },
          {
            "duration": 0.2727270000000033,
            "durationTicks": 192,
            "midi": 49,
            "name": "C#3",
            "ticks": 36096,
            "time": 51.272676,
            "velocity": 0.4881889763779528
          },
          {
            "duration": 0.2727270000000033,
            "durationTicks": 192,
            "midi": 49,
            "name": "C#3",
            "ticks": 36096,
            "time": 51.272676,
            "velocity": 0.4881889763779528
          },
          {
            "duration": 0.13636350000000164,
            "durationTicks": 96,
            "midi": 80,
            "name": "G#5",
            "ticks": 36192,
            "time": 51.4090395,
            "velocity": 0.4881889763779528
          },
          {
            "duration": 0.13636350000000164,
            "durationTicks": 96,
            "midi": 80,
            "name": "G#5",
            "ticks": 36192,
            "time": 51.4090395,
            "velocity": 0.4881889763779528
          },
          {
            "duration": 0.13636350000000164,
            "durationTicks": 96,
            "midi": 80,
            "name": "G#5",
            "ticks": 36192,
            "time": 51.4090395,
            "velocity": 0.4881889763779528
          },
          {
            "duration": 0.13636350000000164,
            "durationTicks": 96,
            "midi": 92,
            "name": "G#6",
            "ticks": 36192,
            "time": 51.4090395,
            "velocity": 0.4881889763779528
          },
          {
            "duration": 0.13636350000000164,
            "durationTicks": 96,
            "midi": 80,
            "name": "G#5",
            "ticks": 36192,
            "time": 51.4090395,
            "velocity": 0.4881889763779528
          },
          {
            "duration": 0.13636350000000164,
            "durationTicks": 96,
            "midi": 92,
            "name": "G#6",
            "ticks": 36192,
            "time": 51.4090395,
            "velocity": 0.4881889763779528
          },
          {
            "duration": 0.13636350000000164,
            "durationTicks": 96,
            "midi": 92,
            "name": "G#6",
            "ticks": 36192,
            "time": 51.4090395,
            "velocity": 0.4881889763779528
          },
          {
            "duration": 0.13636350000000164,
            "durationTicks": 96,
            "midi": 92,
            "name": "G#6",
            "ticks": 36192,
            "time": 51.4090395,
            "velocity": 0.4881889763779528
          },
          {
            "duration": 0.13636350000000164,
            "durationTicks": 96,
            "midi": 80,
            "name": "G#5",
            "ticks": 36192,
            "time": 51.4090395,
            "velocity": 0.4881889763779528
          },
          {
            "duration": 0.13636350000000164,
            "durationTicks": 96,
            "midi": 80,
            "name": "G#5",
            "ticks": 36192,
            "time": 51.4090395,
            "velocity": 0.4881889763779528
          },
          {
            "duration": 0.13636350000000164,
            "durationTicks": 96,
            "midi": 92,
            "name": "G#6",
            "ticks": 36192,
            "time": 51.4090395,
            "velocity": 0.4881889763779528
          },
          {
            "duration": 0.13636350000000164,
            "durationTicks": 96,
            "midi": 92,
            "name": "G#6",
            "ticks": 36192,
            "time": 51.4090395,
            "velocity": 0.4881889763779528
          },
          {
            "duration": 0.27272699999999617,
            "durationTicks": 192,
            "midi": 61,
            "name": "C#4",
            "ticks": 36288,
            "time": 51.545403,
            "velocity": 0.4881889763779528
          },
          {
            "duration": 0.27272699999999617,
            "durationTicks": 192,
            "midi": 61,
            "name": "C#4",
            "ticks": 36288,
            "time": 51.545403,
            "velocity": 0.4881889763779528
          },
          {
            "duration": 0.27272699999999617,
            "durationTicks": 192,
            "midi": 61,
            "name": "C#4",
            "ticks": 36288,
            "time": 51.545403,
            "velocity": 0.4881889763779528
          },
          {
            "duration": 0.27272699999999617,
            "durationTicks": 192,
            "midi": 61,
            "name": "C#4",
            "ticks": 36288,
            "time": 51.545403,
            "velocity": 0.4881889763779528
          },
          {
            "duration": 0.27272699999999617,
            "durationTicks": 192,
            "midi": 61,
            "name": "C#4",
            "ticks": 36288,
            "time": 51.545403,
            "velocity": 0.4881889763779528
          },
          {
            "duration": 0.27272699999999617,
            "durationTicks": 192,
            "midi": 61,
            "name": "C#4",
            "ticks": 36288,
            "time": 51.545403,
            "velocity": 0.4881889763779528
          },
          {
            "duration": 0.13636349999999453,
            "durationTicks": 96,
            "midi": 80,
            "name": "G#5",
            "ticks": 36384,
            "time": 51.6817665,
            "velocity": 0.4881889763779528
          },
          {
            "duration": 0.13636349999999453,
            "durationTicks": 96,
            "midi": 92,
            "name": "G#6",
            "ticks": 36384,
            "time": 51.6817665,
            "velocity": 0.4881889763779528
          },
          {
            "duration": 0.13636349999999453,
            "durationTicks": 96,
            "midi": 92,
            "name": "G#6",
            "ticks": 36384,
            "time": 51.6817665,
            "velocity": 0.4881889763779528
          },
          {
            "duration": 0.13636349999999453,
            "durationTicks": 96,
            "midi": 92,
            "name": "G#6",
            "ticks": 36384,
            "time": 51.6817665,
            "velocity": 0.4881889763779528
          },
          {
            "duration": 0.13636349999999453,
            "durationTicks": 96,
            "midi": 92,
            "name": "G#6",
            "ticks": 36384,
            "time": 51.6817665,
            "velocity": 0.4881889763779528
          },
          {
            "duration": 0.13636349999999453,
            "durationTicks": 96,
            "midi": 80,
            "name": "G#5",
            "ticks": 36384,
            "time": 51.6817665,
            "velocity": 0.4881889763779528
          },
          {
            "duration": 0.13636349999999453,
            "durationTicks": 96,
            "midi": 92,
            "name": "G#6",
            "ticks": 36384,
            "time": 51.6817665,
            "velocity": 0.4881889763779528
          },
          {
            "duration": 0.13636349999999453,
            "durationTicks": 96,
            "midi": 80,
            "name": "G#5",
            "ticks": 36384,
            "time": 51.6817665,
            "velocity": 0.4881889763779528
          },
          {
            "duration": 0.13636349999999453,
            "durationTicks": 96,
            "midi": 80,
            "name": "G#5",
            "ticks": 36384,
            "time": 51.6817665,
            "velocity": 0.4881889763779528
          },
          {
            "duration": 0.13636349999999453,
            "durationTicks": 96,
            "midi": 80,
            "name": "G#5",
            "ticks": 36384,
            "time": 51.6817665,
            "velocity": 0.4881889763779528
          },
          {
            "duration": 0.13636349999999453,
            "durationTicks": 96,
            "midi": 80,
            "name": "G#5",
            "ticks": 36384,
            "time": 51.6817665,
            "velocity": 0.4881889763779528
          },
          {
            "duration": 0.13636349999999453,
            "durationTicks": 96,
            "midi": 92,
            "name": "G#6",
            "ticks": 36384,
            "time": 51.6817665,
            "velocity": 0.4881889763779528
          },
          {
            "duration": 0.2727270000000033,
            "durationTicks": 192,
            "midi": 63,
            "name": "D#4",
            "ticks": 36480,
            "time": 51.81813,
            "velocity": 0.4881889763779528
          },
          {
            "duration": 0.2727270000000033,
            "durationTicks": 192,
            "midi": 63,
            "name": "D#4",
            "ticks": 36480,
            "time": 51.81813,
            "velocity": 0.4881889763779528
          },
          {
            "duration": 0.2727270000000033,
            "durationTicks": 192,
            "midi": 63,
            "name": "D#4",
            "ticks": 36480,
            "time": 51.81813,
            "velocity": 0.4881889763779528
          },
          {
            "duration": 0.2727270000000033,
            "durationTicks": 192,
            "midi": 63,
            "name": "D#4",
            "ticks": 36480,
            "time": 51.81813,
            "velocity": 0.4881889763779528
          },
          {
            "duration": 0.2727270000000033,
            "durationTicks": 192,
            "midi": 63,
            "name": "D#4",
            "ticks": 36480,
            "time": 51.81813,
            "velocity": 0.4881889763779528
          },
          {
            "duration": 0.13636350000000164,
            "durationTicks": 96,
            "midi": 92,
            "name": "G#6",
            "ticks": 36576,
            "time": 51.9544935,
            "velocity": 0.4881889763779528
          },
          {
            "duration": 0.13636350000000164,
            "durationTicks": 96,
            "midi": 80,
            "name": "G#5",
            "ticks": 36576,
            "time": 51.9544935,
            "velocity": 0.4881889763779528
          },
          {
            "duration": 0.13636350000000164,
            "durationTicks": 96,
            "midi": 80,
            "name": "G#5",
            "ticks": 36576,
            "time": 51.9544935,
            "velocity": 0.4881889763779528
          },
          {
            "duration": 0.13636350000000164,
            "durationTicks": 96,
            "midi": 92,
            "name": "G#6",
            "ticks": 36576,
            "time": 51.9544935,
            "velocity": 0.4881889763779528
          },
          {
            "duration": 0.13636350000000164,
            "durationTicks": 96,
            "midi": 92,
            "name": "G#6",
            "ticks": 36576,
            "time": 51.9544935,
            "velocity": 0.4881889763779528
          },
          {
            "duration": 0.13636350000000164,
            "durationTicks": 96,
            "midi": 80,
            "name": "G#5",
            "ticks": 36576,
            "time": 51.9544935,
            "velocity": 0.4881889763779528
          },
          {
            "duration": 0.13636350000000164,
            "durationTicks": 96,
            "midi": 92,
            "name": "G#6",
            "ticks": 36576,
            "time": 51.9544935,
            "velocity": 0.4881889763779528
          },
          {
            "duration": 0.13636350000000164,
            "durationTicks": 96,
            "midi": 80,
            "name": "G#5",
            "ticks": 36576,
            "time": 51.9544935,
            "velocity": 0.4881889763779528
          },
          {
            "duration": 0.13636350000000164,
            "durationTicks": 96,
            "midi": 92,
            "name": "G#6",
            "ticks": 36576,
            "time": 51.9544935,
            "velocity": 0.4881889763779528
          },
          {
            "duration": 0.13636350000000164,
            "durationTicks": 96,
            "midi": 80,
            "name": "G#5",
            "ticks": 36576,
            "time": 51.9544935,
            "velocity": 0.4881889763779528
          },
          {
            "duration": 0.13636350000000164,
            "durationTicks": 96,
            "midi": 80,
            "name": "G#5",
            "ticks": 36576,
            "time": 51.9544935,
            "velocity": 0.4881889763779528
          },
          {
            "duration": 0.13636350000000164,
            "durationTicks": 96,
            "midi": 92,
            "name": "G#6",
            "ticks": 36576,
            "time": 51.9544935,
            "velocity": 0.4881889763779528
          },
          {
            "duration": 0.2727270000000033,
            "durationTicks": 192,
            "midi": 44,
            "name": "G#2",
            "ticks": 36672,
            "time": 52.090857,
            "velocity": 0.4881889763779528
          },
          {
            "duration": 0.2727270000000033,
            "durationTicks": 192,
            "midi": 81,
            "name": "A5",
            "ticks": 36672,
            "time": 52.090857,
            "velocity": 0.4881889763779528
          },
          {
            "duration": 0.2727270000000033,
            "durationTicks": 192,
            "midi": 93,
            "name": "A6",
            "ticks": 36672,
            "time": 52.090857,
            "velocity": 0.4881889763779528
          },
          {
            "duration": 0.2727270000000033,
            "durationTicks": 192,
            "midi": 44,
            "name": "G#2",
            "ticks": 36672,
            "time": 52.090857,
            "velocity": 0.4881889763779528
          },
          {
            "duration": 0.2727270000000033,
            "durationTicks": 192,
            "midi": 93,
            "name": "A6",
            "ticks": 36672,
            "time": 52.090857,
            "velocity": 0.4881889763779528
          },
          {
            "duration": 0.2727270000000033,
            "durationTicks": 192,
            "midi": 81,
            "name": "A5",
            "ticks": 36672,
            "time": 52.090857,
            "velocity": 0.4881889763779528
          },
          {
            "duration": 0.2727270000000033,
            "durationTicks": 192,
            "midi": 81,
            "name": "A5",
            "ticks": 36672,
            "time": 52.090857,
            "velocity": 0.4881889763779528
          },
          {
            "duration": 0.2727270000000033,
            "durationTicks": 192,
            "midi": 93,
            "name": "A6",
            "ticks": 36672,
            "time": 52.090857,
            "velocity": 0.4881889763779528
          },
          {
            "duration": 0.2727270000000033,
            "durationTicks": 192,
            "midi": 44,
            "name": "G#2",
            "ticks": 36672,
            "time": 52.090857,
            "velocity": 0.4881889763779528
          },
          {
            "duration": 0.2727270000000033,
            "durationTicks": 192,
            "midi": 93,
            "name": "A6",
            "ticks": 36672,
            "time": 52.090857,
            "velocity": 0.4881889763779528
          },
          {
            "duration": 0.2727270000000033,
            "durationTicks": 192,
            "midi": 44,
            "name": "G#2",
            "ticks": 36672,
            "time": 52.090857,
            "velocity": 0.4881889763779528
          },
          {
            "duration": 0.2727270000000033,
            "durationTicks": 192,
            "midi": 81,
            "name": "A5",
            "ticks": 36672,
            "time": 52.090857,
            "velocity": 0.4881889763779528
          },
          {
            "duration": 0.2727270000000033,
            "durationTicks": 192,
            "midi": 81,
            "name": "A5",
            "ticks": 36672,
            "time": 52.090857,
            "velocity": 0.4881889763779528
          },
          {
            "duration": 0.2727270000000033,
            "durationTicks": 192,
            "midi": 93,
            "name": "A6",
            "ticks": 36672,
            "time": 52.090857,
            "velocity": 0.4881889763779528
          },
          {
            "duration": 0.2727270000000033,
            "durationTicks": 192,
            "midi": 44,
            "name": "G#2",
            "ticks": 36672,
            "time": 52.090857,
            "velocity": 0.4881889763779528
          },
          {
            "duration": 0.2727270000000033,
            "durationTicks": 192,
            "midi": 81,
            "name": "A5",
            "ticks": 36672,
            "time": 52.090857,
            "velocity": 0.4881889763779528
          },
          {
            "duration": 0.2727270000000033,
            "durationTicks": 192,
            "midi": 93,
            "name": "A6",
            "ticks": 36672,
            "time": 52.090857,
            "velocity": 0.4881889763779528
          },
          {
            "duration": 0.2727270000000033,
            "durationTicks": 192,
            "midi": 44,
            "name": "G#2",
            "ticks": 36672,
            "time": 52.090857,
            "velocity": 0.4881889763779528
          },
          {
            "duration": 0.5454539999999994,
            "durationTicks": 384,
            "midi": 90,
            "name": "F#6",
            "ticks": 36864,
            "time": 52.363584,
            "velocity": 0.4881889763779528
          },
          {
            "duration": 0.27272699999999617,
            "durationTicks": 192,
            "midi": 49,
            "name": "C#3",
            "ticks": 36864,
            "time": 52.363584,
            "velocity": 0.4881889763779528
          },
          {
            "duration": 0.5454539999999994,
            "durationTicks": 384,
            "midi": 78,
            "name": "F#5",
            "ticks": 36864,
            "time": 52.363584,
            "velocity": 0.4881889763779528
          },
          {
            "duration": 0.5454539999999994,
            "durationTicks": 384,
            "midi": 90,
            "name": "F#6",
            "ticks": 36864,
            "time": 52.363584,
            "velocity": 0.4881889763779528
          },
          {
            "duration": 0.5454539999999994,
            "durationTicks": 384,
            "midi": 90,
            "name": "F#6",
            "ticks": 36864,
            "time": 52.363584,
            "velocity": 0.4881889763779528
          },
          {
            "duration": 0.27272699999999617,
            "durationTicks": 192,
            "midi": 49,
            "name": "C#3",
            "ticks": 36864,
            "time": 52.363584,
            "velocity": 0.4881889763779528
          },
          {
            "duration": 0.5454539999999994,
            "durationTicks": 384,
            "midi": 90,
            "name": "F#6",
            "ticks": 36864,
            "time": 52.363584,
            "velocity": 0.4881889763779528
          },
          {
            "duration": 0.27272699999999617,
            "durationTicks": 192,
            "midi": 49,
            "name": "C#3",
            "ticks": 36864,
            "time": 52.363584,
            "velocity": 0.4881889763779528
          },
          {
            "duration": 0.5454539999999994,
            "durationTicks": 384,
            "midi": 78,
            "name": "F#5",
            "ticks": 36864,
            "time": 52.363584,
            "velocity": 0.4881889763779528
          },
          {
            "duration": 0.27272699999999617,
            "durationTicks": 192,
            "midi": 49,
            "name": "C#3",
            "ticks": 36864,
            "time": 52.363584,
            "velocity": 0.4881889763779528
          },
          {
            "duration": 0.5454539999999994,
            "durationTicks": 384,
            "midi": 78,
            "name": "F#5",
            "ticks": 36864,
            "time": 52.363584,
            "velocity": 0.4881889763779528
          },
          {
            "duration": 0.5454539999999994,
            "durationTicks": 384,
            "midi": 90,
            "name": "F#6",
            "ticks": 36864,
            "time": 52.363584,
            "velocity": 0.4881889763779528
          },
          {
            "duration": 0.27272699999999617,
            "durationTicks": 192,
            "midi": 49,
            "name": "C#3",
            "ticks": 36864,
            "time": 52.363584,
            "velocity": 0.4881889763779528
          },
          {
            "duration": 0.5454539999999994,
            "durationTicks": 384,
            "midi": 78,
            "name": "F#5",
            "ticks": 36864,
            "time": 52.363584,
            "velocity": 0.4881889763779528
          },
          {
            "duration": 0.5454539999999994,
            "durationTicks": 384,
            "midi": 78,
            "name": "F#5",
            "ticks": 36864,
            "time": 52.363584,
            "velocity": 0.4881889763779528
          },
          {
            "duration": 0.5454539999999994,
            "durationTicks": 384,
            "midi": 90,
            "name": "F#6",
            "ticks": 36864,
            "time": 52.363584,
            "velocity": 0.4881889763779528
          },
          {
            "duration": 0.5454539999999994,
            "durationTicks": 384,
            "midi": 78,
            "name": "F#5",
            "ticks": 36864,
            "time": 52.363584,
            "velocity": 0.4881889763779528
          },
          {
            "duration": 0.27272699999999617,
            "durationTicks": 192,
            "midi": 49,
            "name": "C#3",
            "ticks": 36864,
            "time": 52.363584,
            "velocity": 0.4881889763779528
          },
          {
            "duration": 0.2727270000000033,
            "durationTicks": 192,
            "midi": 61,
            "name": "C#4",
            "ticks": 37056,
            "time": 52.636311,
            "velocity": 0.4881889763779528
          },
          {
            "duration": 0.2727270000000033,
            "durationTicks": 192,
            "midi": 61,
            "name": "C#4",
            "ticks": 37056,
            "time": 52.636311,
            "velocity": 0.4881889763779528
          },
          {
            "duration": 0.2727270000000033,
            "durationTicks": 192,
            "midi": 61,
            "name": "C#4",
            "ticks": 37056,
            "time": 52.636311,
            "velocity": 0.4881889763779528
          },
          {
            "duration": 0.2727270000000033,
            "durationTicks": 192,
            "midi": 61,
            "name": "C#4",
            "ticks": 37056,
            "time": 52.636311,
            "velocity": 0.4881889763779528
          },
          {
            "duration": 0.2727270000000033,
            "durationTicks": 192,
            "midi": 61,
            "name": "C#4",
            "ticks": 37056,
            "time": 52.636311,
            "velocity": 0.4881889763779528
          },
          {
            "duration": 0.2727270000000033,
            "durationTicks": 192,
            "midi": 61,
            "name": "C#4",
            "ticks": 37056,
            "time": 52.636311,
            "velocity": 0.4881889763779528
          },
          {
            "duration": 0.5454539999999994,
            "durationTicks": 384,
            "midi": 88,
            "name": "E6",
            "ticks": 37248,
            "time": 52.909038,
            "velocity": 0.4881889763779528
          },
          {
            "duration": 0.27272699999999617,
            "durationTicks": 192,
            "midi": 49,
            "name": "C#3",
            "ticks": 37248,
            "time": 52.909038,
            "velocity": 0.4881889763779528
          },
          {
            "duration": 0.5454539999999994,
            "durationTicks": 384,
            "midi": 76,
            "name": "E5",
            "ticks": 37248,
            "time": 52.909038,
            "velocity": 0.4881889763779528
          },
          {
            "duration": 0.5454539999999994,
            "durationTicks": 384,
            "midi": 88,
            "name": "E6",
            "ticks": 37248,
            "time": 52.909038,
            "velocity": 0.4881889763779528
          },
          {
            "duration": 0.5454539999999994,
            "durationTicks": 384,
            "midi": 76,
            "name": "E5",
            "ticks": 37248,
            "time": 52.909038,
            "velocity": 0.4881889763779528
          },
          {
            "duration": 0.27272699999999617,
            "durationTicks": 192,
            "midi": 49,
            "name": "C#3",
            "ticks": 37248,
            "time": 52.909038,
            "velocity": 0.4881889763779528
          },
          {
            "duration": 0.27272699999999617,
            "durationTicks": 192,
            "midi": 49,
            "name": "C#3",
            "ticks": 37248,
            "time": 52.909038,
            "velocity": 0.4881889763779528
          },
          {
            "duration": 0.5454539999999994,
            "durationTicks": 384,
            "midi": 88,
            "name": "E6",
            "ticks": 37248,
            "time": 52.909038,
            "velocity": 0.4881889763779528
          },
          {
            "duration": 0.5454539999999994,
            "durationTicks": 384,
            "midi": 76,
            "name": "E5",
            "ticks": 37248,
            "time": 52.909038,
            "velocity": 0.4881889763779528
          },
          {
            "duration": 0.27272699999999617,
            "durationTicks": 192,
            "midi": 49,
            "name": "C#3",
            "ticks": 37248,
            "time": 52.909038,
            "velocity": 0.4881889763779528
          },
          {
            "duration": 0.5454539999999994,
            "durationTicks": 384,
            "midi": 88,
            "name": "E6",
            "ticks": 37248,
            "time": 52.909038,
            "velocity": 0.4881889763779528
          },
          {
            "duration": 0.5454539999999994,
            "durationTicks": 384,
            "midi": 76,
            "name": "E5",
            "ticks": 37248,
            "time": 52.909038,
            "velocity": 0.4881889763779528
          },
          {
            "duration": 0.5454539999999994,
            "durationTicks": 384,
            "midi": 76,
            "name": "E5",
            "ticks": 37248,
            "time": 52.909038,
            "velocity": 0.4881889763779528
          },
          {
            "duration": 0.5454539999999994,
            "durationTicks": 384,
            "midi": 88,
            "name": "E6",
            "ticks": 37248,
            "time": 52.909038,
            "velocity": 0.4881889763779528
          },
          {
            "duration": 0.5454539999999994,
            "durationTicks": 384,
            "midi": 88,
            "name": "E6",
            "ticks": 37248,
            "time": 52.909038,
            "velocity": 0.4881889763779528
          },
          {
            "duration": 0.27272699999999617,
            "durationTicks": 192,
            "midi": 49,
            "name": "C#3",
            "ticks": 37248,
            "time": 52.909038,
            "velocity": 0.4881889763779528
          },
          {
            "duration": 0.5454539999999994,
            "durationTicks": 384,
            "midi": 76,
            "name": "E5",
            "ticks": 37248,
            "time": 52.909038,
            "velocity": 0.4881889763779528
          },
          {
            "duration": 0.27272699999999617,
            "durationTicks": 192,
            "midi": 49,
            "name": "C#3",
            "ticks": 37248,
            "time": 52.909038,
            "velocity": 0.4881889763779528
          },
          {
            "duration": 0.2727270000000033,
            "durationTicks": 192,
            "midi": 61,
            "name": "C#4",
            "ticks": 37440,
            "time": 53.181765,
            "velocity": 0.4881889763779528
          },
          {
            "duration": 0.2727270000000033,
            "durationTicks": 192,
            "midi": 61,
            "name": "C#4",
            "ticks": 37440,
            "time": 53.181765,
            "velocity": 0.4881889763779528
          },
          {
            "duration": 0.2727270000000033,
            "durationTicks": 192,
            "midi": 61,
            "name": "C#4",
            "ticks": 37440,
            "time": 53.181765,
            "velocity": 0.4881889763779528
          },
          {
            "duration": 0.2727270000000033,
            "durationTicks": 192,
            "midi": 61,
            "name": "C#4",
            "ticks": 37440,
            "time": 53.181765,
            "velocity": 0.4881889763779528
          },
          {
            "duration": 0.2727270000000033,
            "durationTicks": 192,
            "midi": 61,
            "name": "C#4",
            "ticks": 37440,
            "time": 53.181765,
            "velocity": 0.4881889763779528
          },
          {
            "duration": 0.2727270000000033,
            "durationTicks": 192,
            "midi": 61,
            "name": "C#4",
            "ticks": 37440,
            "time": 53.181765,
            "velocity": 0.4881889763779528
          },
          {
            "duration": 0.27272699999999617,
            "durationTicks": 192,
            "midi": 51,
            "name": "D#3",
            "ticks": 37632,
            "time": 53.454492,
            "velocity": 0.4881889763779528
          },
          {
            "duration": 0.27272699999999617,
            "durationTicks": 192,
            "midi": 51,
            "name": "D#3",
            "ticks": 37632,
            "time": 53.454492,
            "velocity": 0.4881889763779528
          },
          {
            "duration": 0.27272699999999617,
            "durationTicks": 192,
            "midi": 51,
            "name": "D#3",
            "ticks": 37632,
            "time": 53.454492,
            "velocity": 0.4881889763779528
          },
          {
            "duration": 0.27272699999999617,
            "durationTicks": 192,
            "midi": 51,
            "name": "D#3",
            "ticks": 37632,
            "time": 53.454492,
            "velocity": 0.4881889763779528
          },
          {
            "duration": 0.27272699999999617,
            "durationTicks": 192,
            "midi": 51,
            "name": "D#3",
            "ticks": 37632,
            "time": 53.454492,
            "velocity": 0.4881889763779528
          },
          {
            "duration": 0.27272699999999617,
            "durationTicks": 192,
            "midi": 51,
            "name": "D#3",
            "ticks": 37632,
            "time": 53.454492,
            "velocity": 0.4881889763779528
          },
          {
            "duration": 0.2727270000000033,
            "durationTicks": 192,
            "midi": 63,
            "name": "D#4",
            "ticks": 37824,
            "time": 53.727219,
            "velocity": 0.4881889763779528
          },
          {
            "duration": 0.2727270000000033,
            "durationTicks": 192,
            "midi": 63,
            "name": "D#4",
            "ticks": 37824,
            "time": 53.727219,
            "velocity": 0.4881889763779528
          },
          {
            "duration": 0.2727270000000033,
            "durationTicks": 192,
            "midi": 63,
            "name": "D#4",
            "ticks": 37824,
            "time": 53.727219,
            "velocity": 0.4881889763779528
          },
          {
            "duration": 0.2727270000000033,
            "durationTicks": 192,
            "midi": 63,
            "name": "D#4",
            "ticks": 37824,
            "time": 53.727219,
            "velocity": 0.4881889763779528
          },
          {
            "duration": 0.2727270000000033,
            "durationTicks": 192,
            "midi": 63,
            "name": "D#4",
            "ticks": 37824,
            "time": 53.727219,
            "velocity": 0.4881889763779528
          },
          {
            "duration": 0.2727270000000033,
            "durationTicks": 192,
            "midi": 63,
            "name": "D#4",
            "ticks": 37824,
            "time": 53.727219,
            "velocity": 0.4881889763779528
          },
          {
            "duration": 0.27272699999999617,
            "durationTicks": 192,
            "midi": 51,
            "name": "D#3",
            "ticks": 38016,
            "time": 53.999946,
            "velocity": 0.4881889763779528
          },
          {
            "duration": 0.27272699999999617,
            "durationTicks": 192,
            "midi": 51,
            "name": "D#3",
            "ticks": 38016,
            "time": 53.999946,
            "velocity": 0.4881889763779528
          },
          {
            "duration": 0.27272699999999617,
            "durationTicks": 192,
            "midi": 51,
            "name": "D#3",
            "ticks": 38016,
            "time": 53.999946,
            "velocity": 0.4881889763779528
          },
          {
            "duration": 0.27272699999999617,
            "durationTicks": 192,
            "midi": 51,
            "name": "D#3",
            "ticks": 38016,
            "time": 53.999946,
            "velocity": 0.4881889763779528
          },
          {
            "duration": 0.27272699999999617,
            "durationTicks": 192,
            "midi": 51,
            "name": "D#3",
            "ticks": 38016,
            "time": 53.999946,
            "velocity": 0.4881889763779528
          },
          {
            "duration": 0.27272699999999617,
            "durationTicks": 192,
            "midi": 51,
            "name": "D#3",
            "ticks": 38016,
            "time": 53.999946,
            "velocity": 0.4881889763779528
          },
          {
            "duration": 0.2727270000000033,
            "durationTicks": 192,
            "midi": 63,
            "name": "D#4",
            "ticks": 38208,
            "time": 54.272673,
            "velocity": 0.4881889763779528
          },
          {
            "duration": 0.2727270000000033,
            "durationTicks": 192,
            "midi": 63,
            "name": "D#4",
            "ticks": 38208,
            "time": 54.272673,
            "velocity": 0.4881889763779528
          },
          {
            "duration": 0.2727270000000033,
            "durationTicks": 192,
            "midi": 63,
            "name": "D#4",
            "ticks": 38208,
            "time": 54.272673,
            "velocity": 0.4881889763779528
          },
          {
            "duration": 0.2727270000000033,
            "durationTicks": 192,
            "midi": 63,
            "name": "D#4",
            "ticks": 38208,
            "time": 54.272673,
            "velocity": 0.4881889763779528
          },
          {
            "duration": 0.2727270000000033,
            "durationTicks": 192,
            "midi": 63,
            "name": "D#4",
            "ticks": 38208,
            "time": 54.272673,
            "velocity": 0.4881889763779528
          },
          {
            "duration": 0.2727270000000033,
            "durationTicks": 192,
            "midi": 63,
            "name": "D#4",
            "ticks": 38208,
            "time": 54.272673,
            "velocity": 0.4881889763779528
          },
          {
            "duration": 0.13636350000000164,
            "durationTicks": 96,
            "midi": 88,
            "name": "E6",
            "ticks": 38304,
            "time": 54.4090365,
            "velocity": 0.4881889763779528
          },
          {
            "duration": 0.13636350000000164,
            "durationTicks": 96,
            "midi": 88,
            "name": "E6",
            "ticks": 38304,
            "time": 54.4090365,
            "velocity": 0.4881889763779528
          },
          {
            "duration": 0.13636350000000164,
            "durationTicks": 96,
            "midi": 88,
            "name": "E6",
            "ticks": 38304,
            "time": 54.4090365,
            "velocity": 0.4881889763779528
          },
          {
            "duration": 0.13636350000000164,
            "durationTicks": 96,
            "midi": 88,
            "name": "E6",
            "ticks": 38304,
            "time": 54.4090365,
            "velocity": 0.4881889763779528
          },
          {
            "duration": 0.13636350000000164,
            "durationTicks": 96,
            "midi": 88,
            "name": "E6",
            "ticks": 38304,
            "time": 54.4090365,
            "velocity": 0.4881889763779528
          },
          {
            "duration": 0.13636350000000164,
            "durationTicks": 96,
            "midi": 88,
            "name": "E6",
            "ticks": 38304,
            "time": 54.4090365,
            "velocity": 0.4881889763779528
          },
          {
            "duration": 0.27272699999999617,
            "durationTicks": 192,
            "midi": 52,
            "name": "E3",
            "ticks": 38400,
            "time": 54.5454,
            "velocity": 0.4881889763779528
          },
          {
            "duration": 0.13636350000000164,
            "durationTicks": 96,
            "midi": 88,
            "name": "E6",
            "ticks": 38400,
            "time": 54.5454,
            "velocity": 0.4881889763779528
          },
          {
            "duration": 0.27272699999999617,
            "durationTicks": 192,
            "midi": 52,
            "name": "E3",
            "ticks": 38400,
            "time": 54.5454,
            "velocity": 0.4881889763779528
          },
          {
            "duration": 0.13636350000000164,
            "durationTicks": 96,
            "midi": 88,
            "name": "E6",
            "ticks": 38400,
            "time": 54.5454,
            "velocity": 0.4881889763779528
          },
          {
            "duration": 0.27272699999999617,
            "durationTicks": 192,
            "midi": 52,
            "name": "E3",
            "ticks": 38400,
            "time": 54.5454,
            "velocity": 0.4881889763779528
          },
          {
            "duration": 0.27272699999999617,
            "durationTicks": 192,
            "midi": 52,
            "name": "E3",
            "ticks": 38400,
            "time": 54.5454,
            "velocity": 0.4881889763779528
          },
          {
            "duration": 0.13636350000000164,
            "durationTicks": 96,
            "midi": 88,
            "name": "E6",
            "ticks": 38400,
            "time": 54.5454,
            "velocity": 0.4881889763779528
          },
          {
            "duration": 0.13636350000000164,
            "durationTicks": 96,
            "midi": 88,
            "name": "E6",
            "ticks": 38400,
            "time": 54.5454,
            "velocity": 0.4881889763779528
          },
          {
            "duration": 0.27272699999999617,
            "durationTicks": 192,
            "midi": 52,
            "name": "E3",
            "ticks": 38400,
            "time": 54.5454,
            "velocity": 0.4881889763779528
          },
          {
            "duration": 0.13636350000000164,
            "durationTicks": 96,
            "midi": 88,
            "name": "E6",
            "ticks": 38400,
            "time": 54.5454,
            "velocity": 0.4881889763779528
          },
          {
            "duration": 0.27272699999999617,
            "durationTicks": 192,
            "midi": 52,
            "name": "E3",
            "ticks": 38400,
            "time": 54.5454,
            "velocity": 0.4881889763779528
          },
          {
            "duration": 0.13636350000000164,
            "durationTicks": 96,
            "midi": 88,
            "name": "E6",
            "ticks": 38400,
            "time": 54.5454,
            "velocity": 0.4881889763779528
          },
          {
            "duration": 0.13636350000000164,
            "durationTicks": 96,
            "midi": 88,
            "name": "E6",
            "ticks": 38592,
            "time": 54.818127,
            "velocity": 0.4881889763779528
          },
          {
            "duration": 0.13636350000000164,
            "durationTicks": 96,
            "midi": 88,
            "name": "E6",
            "ticks": 38592,
            "time": 54.818127,
            "velocity": 0.4881889763779528
          },
          {
            "duration": 0.13636350000000164,
            "durationTicks": 96,
            "midi": 88,
            "name": "E6",
            "ticks": 38592,
            "time": 54.818127,
            "velocity": 0.4881889763779528
          },
          {
            "duration": 0.13636350000000164,
            "durationTicks": 96,
            "midi": 88,
            "name": "E6",
            "ticks": 38592,
            "time": 54.818127,
            "velocity": 0.4881889763779528
          },
          {
            "duration": 0.2727270000000033,
            "durationTicks": 192,
            "midi": 64,
            "name": "E4",
            "ticks": 38592,
            "time": 54.818127,
            "velocity": 0.4881889763779528
          },
          {
            "duration": 0.2727270000000033,
            "durationTicks": 192,
            "midi": 64,
            "name": "E4",
            "ticks": 38592,
            "time": 54.818127,
            "velocity": 0.4881889763779528
          },
          {
            "duration": 0.2727270000000033,
            "durationTicks": 192,
            "midi": 64,
            "name": "E4",
            "ticks": 38592,
            "time": 54.818127,
            "velocity": 0.4881889763779528
          },
          {
            "duration": 0.13636350000000164,
            "durationTicks": 96,
            "midi": 88,
            "name": "E6",
            "ticks": 38592,
            "time": 54.818127,
            "velocity": 0.4881889763779528
          },
          {
            "duration": 0.13636350000000164,
            "durationTicks": 96,
            "midi": 88,
            "name": "E6",
            "ticks": 38592,
            "time": 54.818127,
            "velocity": 0.4881889763779528
          },
          {
            "duration": 0.2727270000000033,
            "durationTicks": 192,
            "midi": 64,
            "name": "E4",
            "ticks": 38592,
            "time": 54.818127,
            "velocity": 0.4881889763779528
          },
          {
            "duration": 0.2727270000000033,
            "durationTicks": 192,
            "midi": 64,
            "name": "E4",
            "ticks": 38592,
            "time": 54.818127,
            "velocity": 0.4881889763779528
          },
          {
            "duration": 0.2727270000000033,
            "durationTicks": 192,
            "midi": 64,
            "name": "E4",
            "ticks": 38592,
            "time": 54.818127,
            "velocity": 0.4881889763779528
          },
          {
            "duration": 0.13636350000000164,
            "durationTicks": 96,
            "midi": 85,
            "name": "C#6",
            "ticks": 38688,
            "time": 54.9544905,
            "velocity": 0.4881889763779528
          },
          {
            "duration": 0.13636350000000164,
            "durationTicks": 96,
            "midi": 85,
            "name": "C#6",
            "ticks": 38688,
            "time": 54.9544905,
            "velocity": 0.4881889763779528
          },
          {
            "duration": 0.13636350000000164,
            "durationTicks": 96,
            "midi": 85,
            "name": "C#6",
            "ticks": 38688,
            "time": 54.9544905,
            "velocity": 0.4881889763779528
          },
          {
            "duration": 0.13636350000000164,
            "durationTicks": 96,
            "midi": 85,
            "name": "C#6",
            "ticks": 38688,
            "time": 54.9544905,
            "velocity": 0.4881889763779528
          },
          {
            "duration": 0.13636350000000164,
            "durationTicks": 96,
            "midi": 85,
            "name": "C#6",
            "ticks": 38688,
            "time": 54.9544905,
            "velocity": 0.4881889763779528
          },
          {
            "duration": 0.13636350000000164,
            "durationTicks": 96,
            "midi": 85,
            "name": "C#6",
            "ticks": 38688,
            "time": 54.9544905,
            "velocity": 0.4881889763779528
          },
          {
            "duration": 0.13636350000000164,
            "durationTicks": 96,
            "midi": 88,
            "name": "E6",
            "ticks": 38784,
            "time": 55.090854,
            "velocity": 0.4881889763779528
          },
          {
            "duration": 0.27272699999999617,
            "durationTicks": 192,
            "midi": 52,
            "name": "E3",
            "ticks": 38784,
            "time": 55.090854,
            "velocity": 0.4881889763779528
          },
          {
            "duration": 0.13636350000000164,
            "durationTicks": 96,
            "midi": 88,
            "name": "E6",
            "ticks": 38784,
            "time": 55.090854,
            "velocity": 0.4881889763779528
          },
          {
            "duration": 0.13636350000000164,
            "durationTicks": 96,
            "midi": 88,
            "name": "E6",
            "ticks": 38784,
            "time": 55.090854,
            "velocity": 0.4881889763779528
          },
          {
            "duration": 0.27272699999999617,
            "durationTicks": 192,
            "midi": 52,
            "name": "E3",
            "ticks": 38784,
            "time": 55.090854,
            "velocity": 0.4881889763779528
          },
          {
            "duration": 0.13636350000000164,
            "durationTicks": 96,
            "midi": 88,
            "name": "E6",
            "ticks": 38784,
            "time": 55.090854,
            "velocity": 0.4881889763779528
          },
          {
            "duration": 0.27272699999999617,
            "durationTicks": 192,
            "midi": 52,
            "name": "E3",
            "ticks": 38784,
            "time": 55.090854,
            "velocity": 0.4881889763779528
          },
          {
            "duration": 0.27272699999999617,
            "durationTicks": 192,
            "midi": 52,
            "name": "E3",
            "ticks": 38784,
            "time": 55.090854,
            "velocity": 0.4881889763779528
          },
          {
            "duration": 0.27272699999999617,
            "durationTicks": 192,
            "midi": 52,
            "name": "E3",
            "ticks": 38784,
            "time": 55.090854,
            "velocity": 0.4881889763779528
          },
          {
            "duration": 0.13636350000000164,
            "durationTicks": 96,
            "midi": 88,
            "name": "E6",
            "ticks": 38784,
            "time": 55.090854,
            "velocity": 0.4881889763779528
          },
          {
            "duration": 0.27272699999999617,
            "durationTicks": 192,
            "midi": 52,
            "name": "E3",
            "ticks": 38784,
            "time": 55.090854,
            "velocity": 0.4881889763779528
          },
          {
            "duration": 0.13636350000000164,
            "durationTicks": 96,
            "midi": 88,
            "name": "E6",
            "ticks": 38784,
            "time": 55.090854,
            "velocity": 0.4881889763779528
          },
          {
            "duration": 0.13636349999999453,
            "durationTicks": 96,
            "midi": 90,
            "name": "F#6",
            "ticks": 38880,
            "time": 55.2272175,
            "velocity": 0.4881889763779528
          },
          {
            "duration": 0.13636349999999453,
            "durationTicks": 96,
            "midi": 90,
            "name": "F#6",
            "ticks": 38880,
            "time": 55.2272175,
            "velocity": 0.4881889763779528
          },
          {
            "duration": 0.13636349999999453,
            "durationTicks": 96,
            "midi": 90,
            "name": "F#6",
            "ticks": 38880,
            "time": 55.2272175,
            "velocity": 0.4881889763779528
          },
          {
            "duration": 0.13636349999999453,
            "durationTicks": 96,
            "midi": 90,
            "name": "F#6",
            "ticks": 38880,
            "time": 55.2272175,
            "velocity": 0.4881889763779528
          },
          {
            "duration": 0.13636349999999453,
            "durationTicks": 96,
            "midi": 90,
            "name": "F#6",
            "ticks": 38880,
            "time": 55.2272175,
            "velocity": 0.4881889763779528
          },
          {
            "duration": 0.13636349999999453,
            "durationTicks": 96,
            "midi": 90,
            "name": "F#6",
            "ticks": 38880,
            "time": 55.2272175,
            "velocity": 0.4881889763779528
          },
          {
            "duration": 0.2727270000000033,
            "durationTicks": 192,
            "midi": 64,
            "name": "E4",
            "ticks": 38976,
            "time": 55.363580999999996,
            "velocity": 0.4881889763779528
          },
          {
            "duration": 0.2727270000000033,
            "durationTicks": 192,
            "midi": 64,
            "name": "E4",
            "ticks": 38976,
            "time": 55.363580999999996,
            "velocity": 0.4881889763779528
          },
          {
            "duration": 0.2727270000000033,
            "durationTicks": 192,
            "midi": 64,
            "name": "E4",
            "ticks": 38976,
            "time": 55.363580999999996,
            "velocity": 0.4881889763779528
          },
          {
            "duration": 0.2727270000000033,
            "durationTicks": 192,
            "midi": 64,
            "name": "E4",
            "ticks": 38976,
            "time": 55.363580999999996,
            "velocity": 0.4881889763779528
          },
          {
            "duration": 0.2727270000000033,
            "durationTicks": 192,
            "midi": 64,
            "name": "E4",
            "ticks": 38976,
            "time": 55.363580999999996,
            "velocity": 0.4881889763779528
          },
          {
            "duration": 0.2727270000000033,
            "durationTicks": 192,
            "midi": 64,
            "name": "E4",
            "ticks": 38976,
            "time": 55.363580999999996,
            "velocity": 0.4881889763779528
          },
          {
            "duration": 0.13636350000000164,
            "durationTicks": 96,
            "midi": 92,
            "name": "G#6",
            "ticks": 39072,
            "time": 55.4999445,
            "velocity": 0.4881889763779528
          },
          {
            "duration": 0.13636350000000164,
            "durationTicks": 96,
            "midi": 92,
            "name": "G#6",
            "ticks": 39072,
            "time": 55.4999445,
            "velocity": 0.4881889763779528
          },
          {
            "duration": 0.13636350000000164,
            "durationTicks": 96,
            "midi": 92,
            "name": "G#6",
            "ticks": 39072,
            "time": 55.4999445,
            "velocity": 0.4881889763779528
          },
          {
            "duration": 0.13636350000000164,
            "durationTicks": 96,
            "midi": 92,
            "name": "G#6",
            "ticks": 39072,
            "time": 55.4999445,
            "velocity": 0.4881889763779528
          },
          {
            "duration": 0.13636350000000164,
            "durationTicks": 96,
            "midi": 92,
            "name": "G#6",
            "ticks": 39072,
            "time": 55.4999445,
            "velocity": 0.4881889763779528
          },
          {
            "duration": 0.13636350000000164,
            "durationTicks": 96,
            "midi": 92,
            "name": "G#6",
            "ticks": 39072,
            "time": 55.4999445,
            "velocity": 0.4881889763779528
          },
          {
            "duration": 0.2727270000000033,
            "durationTicks": 192,
            "midi": 40,
            "name": "E2",
            "ticks": 39168,
            "time": 55.636308,
            "velocity": 0.4881889763779528
          },
          {
            "duration": 0.2727270000000033,
            "durationTicks": 192,
            "midi": 40,
            "name": "E2",
            "ticks": 39168,
            "time": 55.636308,
            "velocity": 0.4881889763779528
          },
          {
            "duration": 0.2727270000000033,
            "durationTicks": 192,
            "midi": 40,
            "name": "E2",
            "ticks": 39168,
            "time": 55.636308,
            "velocity": 0.4881889763779528
          },
          {
            "duration": 0.2727270000000033,
            "durationTicks": 192,
            "midi": 40,
            "name": "E2",
            "ticks": 39168,
            "time": 55.636308,
            "velocity": 0.4881889763779528
          },
          {
            "duration": 0.2727270000000033,
            "durationTicks": 192,
            "midi": 40,
            "name": "E2",
            "ticks": 39168,
            "time": 55.636308,
            "velocity": 0.4881889763779528
          },
          {
            "duration": 0.2727270000000033,
            "durationTicks": 192,
            "midi": 40,
            "name": "E2",
            "ticks": 39168,
            "time": 55.636308,
            "velocity": 0.4881889763779528
          },
          {
            "duration": 0.13636350000000164,
            "durationTicks": 96,
            "midi": 92,
            "name": "G#6",
            "ticks": 39264,
            "time": 55.7726715,
            "velocity": 0.4881889763779528
          },
          {
            "duration": 0.13636350000000164,
            "durationTicks": 96,
            "midi": 80,
            "name": "G#5",
            "ticks": 39264,
            "time": 55.7726715,
            "velocity": 0.4881889763779528
          },
          {
            "duration": 0.13636350000000164,
            "durationTicks": 96,
            "midi": 80,
            "name": "G#5",
            "ticks": 39264,
            "time": 55.7726715,
            "velocity": 0.4881889763779528
          },
          {
            "duration": 0.13636350000000164,
            "durationTicks": 96,
            "midi": 80,
            "name": "G#5",
            "ticks": 39264,
            "time": 55.7726715,
            "velocity": 0.4881889763779528
          },
          {
            "duration": 0.13636350000000164,
            "durationTicks": 96,
            "midi": 80,
            "name": "G#5",
            "ticks": 39264,
            "time": 55.7726715,
            "velocity": 0.4881889763779528
          },
          {
            "duration": 0.13636350000000164,
            "durationTicks": 96,
            "midi": 80,
            "name": "G#5",
            "ticks": 39264,
            "time": 55.7726715,
            "velocity": 0.4881889763779528
          },
          {
            "duration": 0.13636350000000164,
            "durationTicks": 96,
            "midi": 92,
            "name": "G#6",
            "ticks": 39264,
            "time": 55.7726715,
            "velocity": 0.4881889763779528
          },
          {
            "duration": 0.13636350000000164,
            "durationTicks": 96,
            "midi": 92,
            "name": "G#6",
            "ticks": 39264,
            "time": 55.7726715,
            "velocity": 0.4881889763779528
          },
          {
            "duration": 0.13636350000000164,
            "durationTicks": 96,
            "midi": 92,
            "name": "G#6",
            "ticks": 39264,
            "time": 55.7726715,
            "velocity": 0.4881889763779528
          },
          {
            "duration": 0.13636350000000164,
            "durationTicks": 96,
            "midi": 80,
            "name": "G#5",
            "ticks": 39264,
            "time": 55.7726715,
            "velocity": 0.4881889763779528
          },
          {
            "duration": 0.13636350000000164,
            "durationTicks": 96,
            "midi": 92,
            "name": "G#6",
            "ticks": 39264,
            "time": 55.7726715,
            "velocity": 0.4881889763779528
          },
          {
            "duration": 0.13636350000000164,
            "durationTicks": 96,
            "midi": 92,
            "name": "G#6",
            "ticks": 39264,
            "time": 55.7726715,
            "velocity": 0.4881889763779528
          },
          {
            "duration": 0.27272699999999617,
            "durationTicks": 192,
            "midi": 52,
            "name": "E3",
            "ticks": 39360,
            "time": 55.909035,
            "velocity": 0.4881889763779528
          },
          {
            "duration": 0.27272699999999617,
            "durationTicks": 192,
            "midi": 52,
            "name": "E3",
            "ticks": 39360,
            "time": 55.909035,
            "velocity": 0.4881889763779528
          },
          {
            "duration": 0.27272699999999617,
            "durationTicks": 192,
            "midi": 52,
            "name": "E3",
            "ticks": 39360,
            "time": 55.909035,
            "velocity": 0.4881889763779528
          },
          {
            "duration": 0.27272699999999617,
            "durationTicks": 192,
            "midi": 52,
            "name": "E3",
            "ticks": 39360,
            "time": 55.909035,
            "velocity": 0.4881889763779528
          },
          {
            "duration": 0.27272699999999617,
            "durationTicks": 192,
            "midi": 52,
            "name": "E3",
            "ticks": 39360,
            "time": 55.909035,
            "velocity": 0.4881889763779528
          },
          {
            "duration": 0.27272699999999617,
            "durationTicks": 192,
            "midi": 52,
            "name": "E3",
            "ticks": 39360,
            "time": 55.909035,
            "velocity": 0.4881889763779528
          },
          {
            "duration": 0.13636350000000164,
            "durationTicks": 96,
            "midi": 80,
            "name": "G#5",
            "ticks": 39456,
            "time": 56.0453985,
            "velocity": 0.4881889763779528
          },
          {
            "duration": 0.13636350000000164,
            "durationTicks": 96,
            "midi": 92,
            "name": "G#6",
            "ticks": 39456,
            "time": 56.0453985,
            "velocity": 0.4881889763779528
          },
          {
            "duration": 0.13636350000000164,
            "durationTicks": 96,
            "midi": 92,
            "name": "G#6",
            "ticks": 39456,
            "time": 56.0453985,
            "velocity": 0.4881889763779528
          },
          {
            "duration": 0.13636350000000164,
            "durationTicks": 96,
            "midi": 92,
            "name": "G#6",
            "ticks": 39456,
            "time": 56.0453985,
            "velocity": 0.4881889763779528
          },
          {
            "duration": 0.13636350000000164,
            "durationTicks": 96,
            "midi": 80,
            "name": "G#5",
            "ticks": 39456,
            "time": 56.0453985,
            "velocity": 0.4881889763779528
          },
          {
            "duration": 0.13636350000000164,
            "durationTicks": 96,
            "midi": 92,
            "name": "G#6",
            "ticks": 39456,
            "time": 56.0453985,
            "velocity": 0.4881889763779528
          },
          {
            "duration": 0.13636350000000164,
            "durationTicks": 96,
            "midi": 92,
            "name": "G#6",
            "ticks": 39456,
            "time": 56.0453985,
            "velocity": 0.4881889763779528
          },
          {
            "duration": 0.13636350000000164,
            "durationTicks": 96,
            "midi": 80,
            "name": "G#5",
            "ticks": 39456,
            "time": 56.0453985,
            "velocity": 0.4881889763779528
          },
          {
            "duration": 0.13636350000000164,
            "durationTicks": 96,
            "midi": 92,
            "name": "G#6",
            "ticks": 39456,
            "time": 56.0453985,
            "velocity": 0.4881889763779528
          },
          {
            "duration": 0.13636350000000164,
            "durationTicks": 96,
            "midi": 80,
            "name": "G#5",
            "ticks": 39456,
            "time": 56.0453985,
            "velocity": 0.4881889763779528
          },
          {
            "duration": 0.13636350000000164,
            "durationTicks": 96,
            "midi": 80,
            "name": "G#5",
            "ticks": 39456,
            "time": 56.0453985,
            "velocity": 0.4881889763779528
          },
          {
            "duration": 0.13636350000000164,
            "durationTicks": 96,
            "midi": 80,
            "name": "G#5",
            "ticks": 39456,
            "time": 56.0453985,
            "velocity": 0.4881889763779528
          },
          {
            "duration": 0.2727270000000033,
            "durationTicks": 192,
            "midi": 44,
            "name": "G#2",
            "ticks": 39552,
            "time": 56.181762,
            "velocity": 0.4881889763779528
          },
          {
            "duration": 0.2727270000000033,
            "durationTicks": 192,
            "midi": 44,
            "name": "G#2",
            "ticks": 39552,
            "time": 56.181762,
            "velocity": 0.4881889763779528
          },
          {
            "duration": 0.2727270000000033,
            "durationTicks": 192,
            "midi": 44,
            "name": "G#2",
            "ticks": 39552,
            "time": 56.181762,
            "velocity": 0.4881889763779528
          },
          {
            "duration": 0.2727270000000033,
            "durationTicks": 192,
            "midi": 44,
            "name": "G#2",
            "ticks": 39552,
            "time": 56.181762,
            "velocity": 0.4881889763779528
          },
          {
            "duration": 0.2727270000000033,
            "durationTicks": 192,
            "midi": 44,
            "name": "G#2",
            "ticks": 39552,
            "time": 56.181762,
            "velocity": 0.4881889763779528
          },
          {
            "duration": 0.2727270000000033,
            "durationTicks": 192,
            "midi": 44,
            "name": "G#2",
            "ticks": 39552,
            "time": 56.181762,
            "velocity": 0.4881889763779528
          },
          {
            "duration": 0.13636350000000164,
            "durationTicks": 96,
            "midi": 92,
            "name": "G#6",
            "ticks": 39648,
            "time": 56.3181255,
            "velocity": 0.4881889763779528
          },
          {
            "duration": 0.13636350000000164,
            "durationTicks": 96,
            "midi": 80,
            "name": "G#5",
            "ticks": 39648,
            "time": 56.3181255,
            "velocity": 0.4881889763779528
          },
          {
            "duration": 0.13636350000000164,
            "durationTicks": 96,
            "midi": 80,
            "name": "G#5",
            "ticks": 39648,
            "time": 56.3181255,
            "velocity": 0.4881889763779528
          },
          {
            "duration": 0.13636350000000164,
            "durationTicks": 96,
            "midi": 92,
            "name": "G#6",
            "ticks": 39648,
            "time": 56.3181255,
            "velocity": 0.4881889763779528
          },
          {
            "duration": 0.13636350000000164,
            "durationTicks": 96,
            "midi": 80,
            "name": "G#5",
            "ticks": 39648,
            "time": 56.3181255,
            "velocity": 0.4881889763779528
          },
          {
            "duration": 0.13636350000000164,
            "durationTicks": 96,
            "midi": 80,
            "name": "G#5",
            "ticks": 39648,
            "time": 56.3181255,
            "velocity": 0.4881889763779528
          },
          {
            "duration": 0.13636350000000164,
            "durationTicks": 96,
            "midi": 80,
            "name": "G#5",
            "ticks": 39648,
            "time": 56.3181255,
            "velocity": 0.4881889763779528
          },
          {
            "duration": 0.13636350000000164,
            "durationTicks": 96,
            "midi": 92,
            "name": "G#6",
            "ticks": 39648,
            "time": 56.3181255,
            "velocity": 0.4881889763779528
          },
          {
            "duration": 0.13636350000000164,
            "durationTicks": 96,
            "midi": 92,
            "name": "G#6",
            "ticks": 39648,
            "time": 56.3181255,
            "velocity": 0.4881889763779528
          },
          {
            "duration": 0.13636350000000164,
            "durationTicks": 96,
            "midi": 80,
            "name": "G#5",
            "ticks": 39648,
            "time": 56.3181255,
            "velocity": 0.4881889763779528
          },
          {
            "duration": 0.13636350000000164,
            "durationTicks": 96,
            "midi": 92,
            "name": "G#6",
            "ticks": 39648,
            "time": 56.3181255,
            "velocity": 0.4881889763779528
          },
          {
            "duration": 0.13636350000000164,
            "durationTicks": 96,
            "midi": 92,
            "name": "G#6",
            "ticks": 39648,
            "time": 56.3181255,
            "velocity": 0.4881889763779528
          },
          {
            "duration": 0.27272699999999617,
            "durationTicks": 192,
            "midi": 56,
            "name": "G#3",
            "ticks": 39744,
            "time": 56.454489,
            "velocity": 0.4881889763779528
          },
          {
            "duration": 0.27272699999999617,
            "durationTicks": 192,
            "midi": 93,
            "name": "A6",
            "ticks": 39744,
            "time": 56.454489,
            "velocity": 0.4881889763779528
          },
          {
            "duration": 0.27272699999999617,
            "durationTicks": 192,
            "midi": 56,
            "name": "G#3",
            "ticks": 39744,
            "time": 56.454489,
            "velocity": 0.4881889763779528
          },
          {
            "duration": 0.27272699999999617,
            "durationTicks": 192,
            "midi": 93,
            "name": "A6",
            "ticks": 39744,
            "time": 56.454489,
            "velocity": 0.4881889763779528
          },
          {
            "duration": 0.27272699999999617,
            "durationTicks": 192,
            "midi": 56,
            "name": "G#3",
            "ticks": 39744,
            "time": 56.454489,
            "velocity": 0.4881889763779528
          },
          {
            "duration": 0.27272699999999617,
            "durationTicks": 192,
            "midi": 81,
            "name": "A5",
            "ticks": 39744,
            "time": 56.454489,
            "velocity": 0.4881889763779528
          },
          {
            "duration": 0.27272699999999617,
            "durationTicks": 192,
            "midi": 56,
            "name": "G#3",
            "ticks": 39744,
            "time": 56.454489,
            "velocity": 0.4881889763779528
          },
          {
            "duration": 0.27272699999999617,
            "durationTicks": 192,
            "midi": 56,
            "name": "G#3",
            "ticks": 39744,
            "time": 56.454489,
            "velocity": 0.4881889763779528
          },
          {
            "duration": 0.27272699999999617,
            "durationTicks": 192,
            "midi": 81,
            "name": "A5",
            "ticks": 39744,
            "time": 56.454489,
            "velocity": 0.4881889763779528
          },
          {
            "duration": 0.27272699999999617,
            "durationTicks": 192,
            "midi": 56,
            "name": "G#3",
            "ticks": 39744,
            "time": 56.454489,
            "velocity": 0.4881889763779528
          },
          {
            "duration": 0.27272699999999617,
            "durationTicks": 192,
            "midi": 81,
            "name": "A5",
            "ticks": 39744,
            "time": 56.454489,
            "velocity": 0.4881889763779528
          },
          {
            "duration": 0.27272699999999617,
            "durationTicks": 192,
            "midi": 81,
            "name": "A5",
            "ticks": 39744,
            "time": 56.454489,
            "velocity": 0.4881889763779528
          },
          {
            "duration": 0.27272699999999617,
            "durationTicks": 192,
            "midi": 93,
            "name": "A6",
            "ticks": 39744,
            "time": 56.454489,
            "velocity": 0.4881889763779528
          },
          {
            "duration": 0.27272699999999617,
            "durationTicks": 192,
            "midi": 81,
            "name": "A5",
            "ticks": 39744,
            "time": 56.454489,
            "velocity": 0.4881889763779528
          },
          {
            "duration": 0.27272699999999617,
            "durationTicks": 192,
            "midi": 93,
            "name": "A6",
            "ticks": 39744,
            "time": 56.454489,
            "velocity": 0.4881889763779528
          },
          {
            "duration": 0.27272699999999617,
            "durationTicks": 192,
            "midi": 93,
            "name": "A6",
            "ticks": 39744,
            "time": 56.454489,
            "velocity": 0.4881889763779528
          },
          {
            "duration": 0.27272699999999617,
            "durationTicks": 192,
            "midi": 93,
            "name": "A6",
            "ticks": 39744,
            "time": 56.454489,
            "velocity": 0.4881889763779528
          },
          {
            "duration": 0.27272699999999617,
            "durationTicks": 192,
            "midi": 81,
            "name": "A5",
            "ticks": 39744,
            "time": 56.454489,
            "velocity": 0.4881889763779528
          },
          {
            "duration": 0.2727270000000033,
            "durationTicks": 192,
            "midi": 45,
            "name": "A2",
            "ticks": 39936,
            "time": 56.727216,
            "velocity": 0.4881889763779528
          },
          {
            "duration": 0.5454539999999994,
            "durationTicks": 384,
            "midi": 90,
            "name": "F#6",
            "ticks": 39936,
            "time": 56.727216,
            "velocity": 0.4881889763779528
          },
          {
            "duration": 0.5454539999999994,
            "durationTicks": 384,
            "midi": 78,
            "name": "F#5",
            "ticks": 39936,
            "time": 56.727216,
            "velocity": 0.4881889763779528
          },
          {
            "duration": 0.5454539999999994,
            "durationTicks": 384,
            "midi": 90,
            "name": "F#6",
            "ticks": 39936,
            "time": 56.727216,
            "velocity": 0.4881889763779528
          },
          {
            "duration": 0.5454539999999994,
            "durationTicks": 384,
            "midi": 78,
            "name": "F#5",
            "ticks": 39936,
            "time": 56.727216,
            "velocity": 0.4881889763779528
          },
          {
            "duration": 0.5454539999999994,
            "durationTicks": 384,
            "midi": 90,
            "name": "F#6",
            "ticks": 39936,
            "time": 56.727216,
            "velocity": 0.4881889763779528
          },
          {
            "duration": 0.5454539999999994,
            "durationTicks": 384,
            "midi": 90,
            "name": "F#6",
            "ticks": 39936,
            "time": 56.727216,
            "velocity": 0.4881889763779528
          },
          {
            "duration": 0.2727270000000033,
            "durationTicks": 192,
            "midi": 45,
            "name": "A2",
            "ticks": 39936,
            "time": 56.727216,
            "velocity": 0.4881889763779528
          },
          {
            "duration": 0.5454539999999994,
            "durationTicks": 384,
            "midi": 78,
            "name": "F#5",
            "ticks": 39936,
            "time": 56.727216,
            "velocity": 0.4881889763779528
          },
          {
            "duration": 0.2727270000000033,
            "durationTicks": 192,
            "midi": 45,
            "name": "A2",
            "ticks": 39936,
            "time": 56.727216,
            "velocity": 0.4881889763779528
          },
          {
            "duration": 0.5454539999999994,
            "durationTicks": 384,
            "midi": 78,
            "name": "F#5",
            "ticks": 39936,
            "time": 56.727216,
            "velocity": 0.4881889763779528
          },
          {
            "duration": 0.5454539999999994,
            "durationTicks": 384,
            "midi": 90,
            "name": "F#6",
            "ticks": 39936,
            "time": 56.727216,
            "velocity": 0.4881889763779528
          },
          {
            "duration": 0.5454539999999994,
            "durationTicks": 384,
            "midi": 90,
            "name": "F#6",
            "ticks": 39936,
            "time": 56.727216,
            "velocity": 0.4881889763779528
          },
          {
            "duration": 0.2727270000000033,
            "durationTicks": 192,
            "midi": 45,
            "name": "A2",
            "ticks": 39936,
            "time": 56.727216,
            "velocity": 0.4881889763779528
          },
          {
            "duration": 0.2727270000000033,
            "durationTicks": 192,
            "midi": 45,
            "name": "A2",
            "ticks": 39936,
            "time": 56.727216,
            "velocity": 0.4881889763779528
          },
          {
            "duration": 0.5454539999999994,
            "durationTicks": 384,
            "midi": 78,
            "name": "F#5",
            "ticks": 39936,
            "time": 56.727216,
            "velocity": 0.4881889763779528
          },
          {
            "duration": 0.2727270000000033,
            "durationTicks": 192,
            "midi": 45,
            "name": "A2",
            "ticks": 39936,
            "time": 56.727216,
            "velocity": 0.4881889763779528
          },
          {
            "duration": 0.5454539999999994,
            "durationTicks": 384,
            "midi": 78,
            "name": "F#5",
            "ticks": 39936,
            "time": 56.727216,
            "velocity": 0.4881889763779528
          },
          {
            "duration": 0.27272699999999617,
            "durationTicks": 192,
            "midi": 57,
            "name": "A3",
            "ticks": 40128,
            "time": 56.999943,
            "velocity": 0.4881889763779528
          },
          {
            "duration": 0.27272699999999617,
            "durationTicks": 192,
            "midi": 57,
            "name": "A3",
            "ticks": 40128,
            "time": 56.999943,
            "velocity": 0.4881889763779528
          },
          {
            "duration": 0.27272699999999617,
            "durationTicks": 192,
            "midi": 57,
            "name": "A3",
            "ticks": 40128,
            "time": 56.999943,
            "velocity": 0.4881889763779528
          },
          {
            "duration": 0.27272699999999617,
            "durationTicks": 192,
            "midi": 57,
            "name": "A3",
            "ticks": 40128,
            "time": 56.999943,
            "velocity": 0.4881889763779528
          },
          {
            "duration": 0.27272699999999617,
            "durationTicks": 192,
            "midi": 57,
            "name": "A3",
            "ticks": 40128,
            "time": 56.999943,
            "velocity": 0.4881889763779528
          },
          {
            "duration": 0.27272699999999617,
            "durationTicks": 192,
            "midi": 57,
            "name": "A3",
            "ticks": 40128,
            "time": 56.999943,
            "velocity": 0.4881889763779528
          },
          {
            "duration": 0.2727270000000033,
            "durationTicks": 192,
            "midi": 45,
            "name": "A2",
            "ticks": 40320,
            "time": 57.27267,
            "velocity": 0.4881889763779528
          },
          {
            "duration": 0.2727270000000033,
            "durationTicks": 192,
            "midi": 45,
            "name": "A2",
            "ticks": 40320,
            "time": 57.27267,
            "velocity": 0.4881889763779528
          },
          {
            "duration": 0.2727270000000033,
            "durationTicks": 192,
            "midi": 45,
            "name": "A2",
            "ticks": 40320,
            "time": 57.27267,
            "velocity": 0.4881889763779528
          },
          {
            "duration": 0.5454539999999994,
            "durationTicks": 384,
            "midi": 76,
            "name": "E5",
            "ticks": 40320,
            "time": 57.27267,
            "velocity": 0.4881889763779528
          },
          {
            "duration": 0.5454539999999994,
            "durationTicks": 384,
            "midi": 76,
            "name": "E5",
            "ticks": 40320,
            "time": 57.27267,
            "velocity": 0.4881889763779528
          },
          {
            "duration": 0.5454539999999994,
            "durationTicks": 384,
            "midi": 88,
            "name": "E6",
            "ticks": 40320,
            "time": 57.27267,
            "velocity": 0.4881889763779528
          },
          {
            "duration": 0.5454539999999994,
            "durationTicks": 384,
            "midi": 88,
            "name": "E6",
            "ticks": 40320,
            "time": 57.27267,
            "velocity": 0.4881889763779528
          },
          {
            "duration": 0.5454539999999994,
            "durationTicks": 384,
            "midi": 88,
            "name": "E6",
            "ticks": 40320,
            "time": 57.27267,
            "velocity": 0.4881889763779528
          },
          {
            "duration": 0.5454539999999994,
            "durationTicks": 384,
            "midi": 88,
            "name": "E6",
            "ticks": 40320,
            "time": 57.27267,
            "velocity": 0.4881889763779528
          },
          {
            "duration": 0.5454539999999994,
            "durationTicks": 384,
            "midi": 76,
            "name": "E5",
            "ticks": 40320,
            "time": 57.27267,
            "velocity": 0.4881889763779528
          },
          {
            "duration": 0.5454539999999994,
            "durationTicks": 384,
            "midi": 76,
            "name": "E5",
            "ticks": 40320,
            "time": 57.27267,
            "velocity": 0.4881889763779528
          },
          {
            "duration": 0.5454539999999994,
            "durationTicks": 384,
            "midi": 88,
            "name": "E6",
            "ticks": 40320,
            "time": 57.27267,
            "velocity": 0.4881889763779528
          },
          {
            "duration": 0.2727270000000033,
            "durationTicks": 192,
            "midi": 45,
            "name": "A2",
            "ticks": 40320,
            "time": 57.27267,
            "velocity": 0.4881889763779528
          },
          {
            "duration": 0.5454539999999994,
            "durationTicks": 384,
            "midi": 76,
            "name": "E5",
            "ticks": 40320,
            "time": 57.27267,
            "velocity": 0.4881889763779528
          },
          {
            "duration": 0.2727270000000033,
            "durationTicks": 192,
            "midi": 45,
            "name": "A2",
            "ticks": 40320,
            "time": 57.27267,
            "velocity": 0.4881889763779528
          },
          {
            "duration": 0.5454539999999994,
            "durationTicks": 384,
            "midi": 88,
            "name": "E6",
            "ticks": 40320,
            "time": 57.27267,
            "velocity": 0.4881889763779528
          },
          {
            "duration": 0.2727270000000033,
            "durationTicks": 192,
            "midi": 45,
            "name": "A2",
            "ticks": 40320,
            "time": 57.27267,
            "velocity": 0.4881889763779528
          },
          {
            "duration": 0.5454539999999994,
            "durationTicks": 384,
            "midi": 76,
            "name": "E5",
            "ticks": 40320,
            "time": 57.27267,
            "velocity": 0.4881889763779528
          },
          {
            "duration": 0.27272699999999617,
            "durationTicks": 192,
            "midi": 57,
            "name": "A3",
            "ticks": 40512,
            "time": 57.545397,
            "velocity": 0.4881889763779528
          },
          {
            "duration": 0.27272699999999617,
            "durationTicks": 192,
            "midi": 57,
            "name": "A3",
            "ticks": 40512,
            "time": 57.545397,
            "velocity": 0.4881889763779528
          },
          {
            "duration": 0.27272699999999617,
            "durationTicks": 192,
            "midi": 57,
            "name": "A3",
            "ticks": 40512,
            "time": 57.545397,
            "velocity": 0.4881889763779528
          },
          {
            "duration": 0.27272699999999617,
            "durationTicks": 192,
            "midi": 57,
            "name": "A3",
            "ticks": 40512,
            "time": 57.545397,
            "velocity": 0.4881889763779528
          },
          {
            "duration": 0.27272699999999617,
            "durationTicks": 192,
            "midi": 57,
            "name": "A3",
            "ticks": 40512,
            "time": 57.545397,
            "velocity": 0.4881889763779528
          },
          {
            "duration": 0.27272699999999617,
            "durationTicks": 192,
            "midi": 57,
            "name": "A3",
            "ticks": 40512,
            "time": 57.545397,
            "velocity": 0.4881889763779528
          },
          {
            "duration": 0.2727270000000033,
            "durationTicks": 192,
            "midi": 47,
            "name": "B2",
            "ticks": 40704,
            "time": 57.818124,
            "velocity": 0.4881889763779528
          },
          {
            "duration": 0.2727270000000033,
            "durationTicks": 192,
            "midi": 47,
            "name": "B2",
            "ticks": 40704,
            "time": 57.818124,
            "velocity": 0.4881889763779528
          },
          {
            "duration": 0.2727270000000033,
            "durationTicks": 192,
            "midi": 47,
            "name": "B2",
            "ticks": 40704,
            "time": 57.818124,
            "velocity": 0.4881889763779528
          },
          {
            "duration": 0.2727270000000033,
            "durationTicks": 192,
            "midi": 47,
            "name": "B2",
            "ticks": 40704,
            "time": 57.818124,
            "velocity": 0.4881889763779528
          },
          {
            "duration": 0.2727270000000033,
            "durationTicks": 192,
            "midi": 47,
            "name": "B2",
            "ticks": 40704,
            "time": 57.818124,
            "velocity": 0.4881889763779528
          },
          {
            "duration": 0.2727270000000033,
            "durationTicks": 192,
            "midi": 47,
            "name": "B2",
            "ticks": 40704,
            "time": 57.818124,
            "velocity": 0.4881889763779528
          },
          {
            "duration": 0.27272699999999617,
            "durationTicks": 192,
            "midi": 59,
            "name": "B3",
            "ticks": 40896,
            "time": 58.090851,
            "velocity": 0.4881889763779528
          },
          {
            "duration": 0.27272699999999617,
            "durationTicks": 192,
            "midi": 59,
            "name": "B3",
            "ticks": 40896,
            "time": 58.090851,
            "velocity": 0.4881889763779528
          },
          {
            "duration": 0.27272699999999617,
            "durationTicks": 192,
            "midi": 59,
            "name": "B3",
            "ticks": 40896,
            "time": 58.090851,
            "velocity": 0.4881889763779528
          },
          {
            "duration": 0.27272699999999617,
            "durationTicks": 192,
            "midi": 59,
            "name": "B3",
            "ticks": 40896,
            "time": 58.090851,
            "velocity": 0.4881889763779528
          },
          {
            "duration": 0.27272699999999617,
            "durationTicks": 192,
            "midi": 59,
            "name": "B3",
            "ticks": 40896,
            "time": 58.090851,
            "velocity": 0.4881889763779528
          },
          {
            "duration": 0.27272699999999617,
            "durationTicks": 192,
            "midi": 59,
            "name": "B3",
            "ticks": 40896,
            "time": 58.090851,
            "velocity": 0.4881889763779528
          },
          {
            "duration": 0.2727270000000033,
            "durationTicks": 192,
            "midi": 47,
            "name": "B2",
            "ticks": 41088,
            "time": 58.363578,
            "velocity": 0.4881889763779528
          },
          {
            "duration": 0.2727270000000033,
            "durationTicks": 192,
            "midi": 47,
            "name": "B2",
            "ticks": 41088,
            "time": 58.363578,
            "velocity": 0.4881889763779528
          },
          {
            "duration": 0.2727270000000033,
            "durationTicks": 192,
            "midi": 47,
            "name": "B2",
            "ticks": 41088,
            "time": 58.363578,
            "velocity": 0.4881889763779528
          },
          {
            "duration": 0.2727270000000033,
            "durationTicks": 192,
            "midi": 47,
            "name": "B2",
            "ticks": 41088,
            "time": 58.363578,
            "velocity": 0.4881889763779528
          },
          {
            "duration": 0.2727270000000033,
            "durationTicks": 192,
            "midi": 47,
            "name": "B2",
            "ticks": 41088,
            "time": 58.363578,
            "velocity": 0.4881889763779528
          },
          {
            "duration": 0.2727270000000033,
            "durationTicks": 192,
            "midi": 47,
            "name": "B2",
            "ticks": 41088,
            "time": 58.363578,
            "velocity": 0.4881889763779528
          },
          {
            "duration": 0.27272699999999617,
            "durationTicks": 192,
            "midi": 59,
            "name": "B3",
            "ticks": 41280,
            "time": 58.636305,
            "velocity": 0.4881889763779528
          },
          {
            "duration": 0.27272699999999617,
            "durationTicks": 192,
            "midi": 59,
            "name": "B3",
            "ticks": 41280,
            "time": 58.636305,
            "velocity": 0.4881889763779528
          },
          {
            "duration": 0.27272699999999617,
            "durationTicks": 192,
            "midi": 59,
            "name": "B3",
            "ticks": 41280,
            "time": 58.636305,
            "velocity": 0.4881889763779528
          },
          {
            "duration": 0.27272699999999617,
            "durationTicks": 192,
            "midi": 59,
            "name": "B3",
            "ticks": 41280,
            "time": 58.636305,
            "velocity": 0.4881889763779528
          },
          {
            "duration": 0.27272699999999617,
            "durationTicks": 192,
            "midi": 59,
            "name": "B3",
            "ticks": 41280,
            "time": 58.636305,
            "velocity": 0.4881889763779528
          },
          {
            "duration": 0.27272699999999617,
            "durationTicks": 192,
            "midi": 59,
            "name": "B3",
            "ticks": 41280,
            "time": 58.636305,
            "velocity": 0.4881889763779528
          },
          {
            "duration": 0.13636349999999453,
            "durationTicks": 96,
            "midi": 88,
            "name": "E6",
            "ticks": 41376,
            "time": 58.7726685,
            "velocity": 0.4881889763779528
          },
          {
            "duration": 0.13636349999999453,
            "durationTicks": 96,
            "midi": 88,
            "name": "E6",
            "ticks": 41376,
            "time": 58.7726685,
            "velocity": 0.4881889763779528
          },
          {
            "duration": 0.13636349999999453,
            "durationTicks": 96,
            "midi": 88,
            "name": "E6",
            "ticks": 41376,
            "time": 58.7726685,
            "velocity": 0.4881889763779528
          },
          {
            "duration": 0.13636349999999453,
            "durationTicks": 96,
            "midi": 88,
            "name": "E6",
            "ticks": 41376,
            "time": 58.7726685,
            "velocity": 0.4881889763779528
          },
          {
            "duration": 0.13636349999999453,
            "durationTicks": 96,
            "midi": 88,
            "name": "E6",
            "ticks": 41376,
            "time": 58.7726685,
            "velocity": 0.4881889763779528
          },
          {
            "duration": 0.13636349999999453,
            "durationTicks": 96,
            "midi": 88,
            "name": "E6",
            "ticks": 41376,
            "time": 58.7726685,
            "velocity": 0.4881889763779528
          },
          {
            "duration": 0.2727270000000033,
            "durationTicks": 192,
            "midi": 40,
            "name": "E2",
            "ticks": 41472,
            "time": 58.909031999999996,
            "velocity": 0.4881889763779528
          },
          {
            "duration": 0.2727270000000033,
            "durationTicks": 192,
            "midi": 40,
            "name": "E2",
            "ticks": 41472,
            "time": 58.909031999999996,
            "velocity": 0.4881889763779528
          },
          {
            "duration": 0.2727270000000033,
            "durationTicks": 192,
            "midi": 40,
            "name": "E2",
            "ticks": 41472,
            "time": 58.909031999999996,
            "velocity": 0.4881889763779528
          },
          {
            "duration": 0.2727270000000033,
            "durationTicks": 192,
            "midi": 40,
            "name": "E2",
            "ticks": 41472,
            "time": 58.909031999999996,
            "velocity": 0.4881889763779528
          },
          {
            "duration": 0.13636350000000164,
            "durationTicks": 96,
            "midi": 88,
            "name": "E6",
            "ticks": 41472,
            "time": 58.909031999999996,
            "velocity": 0.4881889763779528
          },
          {
            "duration": 0.13636350000000164,
            "durationTicks": 96,
            "midi": 88,
            "name": "E6",
            "ticks": 41472,
            "time": 58.909031999999996,
            "velocity": 0.4881889763779528
          },
          {
            "duration": 0.13636350000000164,
            "durationTicks": 96,
            "midi": 88,
            "name": "E6",
            "ticks": 41472,
            "time": 58.909031999999996,
            "velocity": 0.4881889763779528
          },
          {
            "duration": 0.13636350000000164,
            "durationTicks": 96,
            "midi": 88,
            "name": "E6",
            "ticks": 41472,
            "time": 58.909031999999996,
            "velocity": 0.4881889763779528
          },
          {
            "duration": 0.2727270000000033,
            "durationTicks": 192,
            "midi": 40,
            "name": "E2",
            "ticks": 41472,
            "time": 58.909031999999996,
            "velocity": 0.4881889763779528
          },
          {
            "duration": 0.2727270000000033,
            "durationTicks": 192,
            "midi": 40,
            "name": "E2",
            "ticks": 41472,
            "time": 58.909031999999996,
            "velocity": 0.4881889763779528
          },
          {
            "duration": 0.13636350000000164,
            "durationTicks": 96,
            "midi": 88,
            "name": "E6",
            "ticks": 41472,
            "time": 58.909031999999996,
            "velocity": 0.4881889763779528
          },
          {
            "duration": 0.13636350000000164,
            "durationTicks": 96,
            "midi": 88,
            "name": "E6",
            "ticks": 41472,
            "time": 58.909031999999996,
            "velocity": 0.4881889763779528
          },
          {
            "duration": 0.13636350000000164,
            "durationTicks": 96,
            "midi": 88,
            "name": "E6",
            "ticks": 41664,
            "time": 59.181759,
            "velocity": 0.4881889763779528
          },
          {
            "duration": 0.13636350000000164,
            "durationTicks": 96,
            "midi": 88,
            "name": "E6",
            "ticks": 41664,
            "time": 59.181759,
            "velocity": 0.4881889763779528
          },
          {
            "duration": 0.13636350000000164,
            "durationTicks": 96,
            "midi": 88,
            "name": "E6",
            "ticks": 41664,
            "time": 59.181759,
            "velocity": 0.4881889763779528
          },
          {
            "duration": 0.2727270000000033,
            "durationTicks": 192,
            "midi": 52,
            "name": "E3",
            "ticks": 41664,
            "time": 59.181759,
            "velocity": 0.4881889763779528
          },
          {
            "duration": 0.2727270000000033,
            "durationTicks": 192,
            "midi": 52,
            "name": "E3",
            "ticks": 41664,
            "time": 59.181759,
            "velocity": 0.4881889763779528
          },
          {
            "duration": 0.2727270000000033,
            "durationTicks": 192,
            "midi": 52,
            "name": "E3",
            "ticks": 41664,
            "time": 59.181759,
            "velocity": 0.4881889763779528
          },
          {
            "duration": 0.13636350000000164,
            "durationTicks": 96,
            "midi": 88,
            "name": "E6",
            "ticks": 41664,
            "time": 59.181759,
            "velocity": 0.4881889763779528
          },
          {
            "duration": 0.2727270000000033,
            "durationTicks": 192,
            "midi": 52,
            "name": "E3",
            "ticks": 41664,
            "time": 59.181759,
            "velocity": 0.4881889763779528
          },
          {
            "duration": 0.2727270000000033,
            "durationTicks": 192,
            "midi": 52,
            "name": "E3",
            "ticks": 41664,
            "time": 59.181759,
            "velocity": 0.4881889763779528
          },
          {
            "duration": 0.13636350000000164,
            "durationTicks": 96,
            "midi": 88,
            "name": "E6",
            "ticks": 41664,
            "time": 59.181759,
            "velocity": 0.4881889763779528
          },
          {
            "duration": 0.2727270000000033,
            "durationTicks": 192,
            "midi": 52,
            "name": "E3",
            "ticks": 41664,
            "time": 59.181759,
            "velocity": 0.4881889763779528
          },
          {
            "duration": 0.13636350000000164,
            "durationTicks": 96,
            "midi": 88,
            "name": "E6",
            "ticks": 41664,
            "time": 59.181759,
            "velocity": 0.4881889763779528
          },
          {
            "duration": 0.13636350000000164,
            "durationTicks": 96,
            "midi": 85,
            "name": "C#6",
            "ticks": 41760,
            "time": 59.3181225,
            "velocity": 0.4881889763779528
          },
          {
            "duration": 0.13636350000000164,
            "durationTicks": 96,
            "midi": 85,
            "name": "C#6",
            "ticks": 41760,
            "time": 59.3181225,
            "velocity": 0.4881889763779528
          },
          {
            "duration": 0.13636350000000164,
            "durationTicks": 96,
            "midi": 85,
            "name": "C#6",
            "ticks": 41760,
            "time": 59.3181225,
            "velocity": 0.4881889763779528
          },
          {
            "duration": 0.13636350000000164,
            "durationTicks": 96,
            "midi": 85,
            "name": "C#6",
            "ticks": 41760,
            "time": 59.3181225,
            "velocity": 0.4881889763779528
          },
          {
            "duration": 0.13636350000000164,
            "durationTicks": 96,
            "midi": 85,
            "name": "C#6",
            "ticks": 41760,
            "time": 59.3181225,
            "velocity": 0.4881889763779528
          },
          {
            "duration": 0.13636350000000164,
            "durationTicks": 96,
            "midi": 85,
            "name": "C#6",
            "ticks": 41760,
            "time": 59.3181225,
            "velocity": 0.4881889763779528
          },
          {
            "duration": 0.13636349999999453,
            "durationTicks": 96,
            "midi": 88,
            "name": "E6",
            "ticks": 41856,
            "time": 59.454486,
            "velocity": 0.4881889763779528
          },
          {
            "duration": 0.27272699999999617,
            "durationTicks": 192,
            "midi": 40,
            "name": "E2",
            "ticks": 41856,
            "time": 59.454486,
            "velocity": 0.4881889763779528
          },
          {
            "duration": 0.27272699999999617,
            "durationTicks": 192,
            "midi": 40,
            "name": "E2",
            "ticks": 41856,
            "time": 59.454486,
            "velocity": 0.4881889763779528
          },
          {
            "duration": 0.13636349999999453,
            "durationTicks": 96,
            "midi": 88,
            "name": "E6",
            "ticks": 41856,
            "time": 59.454486,
            "velocity": 0.4881889763779528
          },
          {
            "duration": 0.27272699999999617,
            "durationTicks": 192,
            "midi": 40,
            "name": "E2",
            "ticks": 41856,
            "time": 59.454486,
            "velocity": 0.4881889763779528
          },
          {
            "duration": 0.13636349999999453,
            "durationTicks": 96,
            "midi": 88,
            "name": "E6",
            "ticks": 41856,
            "time": 59.454486,
            "velocity": 0.4881889763779528
          },
          {
            "duration": 0.13636349999999453,
            "durationTicks": 96,
            "midi": 88,
            "name": "E6",
            "ticks": 41856,
            "time": 59.454486,
            "velocity": 0.4881889763779528
          },
          {
            "duration": 0.13636349999999453,
            "durationTicks": 96,
            "midi": 88,
            "name": "E6",
            "ticks": 41856,
            "time": 59.454486,
            "velocity": 0.4881889763779528
          },
          {
            "duration": 0.27272699999999617,
            "durationTicks": 192,
            "midi": 40,
            "name": "E2",
            "ticks": 41856,
            "time": 59.454486,
            "velocity": 0.4881889763779528
          },
          {
            "duration": 0.27272699999999617,
            "durationTicks": 192,
            "midi": 40,
            "name": "E2",
            "ticks": 41856,
            "time": 59.454486,
            "velocity": 0.4881889763779528
          },
          {
            "duration": 0.27272699999999617,
            "durationTicks": 192,
            "midi": 40,
            "name": "E2",
            "ticks": 41856,
            "time": 59.454486,
            "velocity": 0.4881889763779528
          },
          {
            "duration": 0.13636349999999453,
            "durationTicks": 96,
            "midi": 88,
            "name": "E6",
            "ticks": 41856,
            "time": 59.454486,
            "velocity": 0.4881889763779528
          },
          {
            "duration": 0.13636350000000164,
            "durationTicks": 96,
            "midi": 90,
            "name": "F#6",
            "ticks": 41952,
            "time": 59.5908495,
            "velocity": 0.4881889763779528
          },
          {
            "duration": 0.13636350000000164,
            "durationTicks": 96,
            "midi": 90,
            "name": "F#6",
            "ticks": 41952,
            "time": 59.5908495,
            "velocity": 0.4881889763779528
          },
          {
            "duration": 0.13636350000000164,
            "durationTicks": 96,
            "midi": 90,
            "name": "F#6",
            "ticks": 41952,
            "time": 59.5908495,
            "velocity": 0.4881889763779528
          },
          {
            "duration": 0.13636350000000164,
            "durationTicks": 96,
            "midi": 90,
            "name": "F#6",
            "ticks": 41952,
            "time": 59.5908495,
            "velocity": 0.4881889763779528
          },
          {
            "duration": 0.13636350000000164,
            "durationTicks": 96,
            "midi": 90,
            "name": "F#6",
            "ticks": 41952,
            "time": 59.5908495,
            "velocity": 0.4881889763779528
          },
          {
            "duration": 0.13636350000000164,
            "durationTicks": 96,
            "midi": 90,
            "name": "F#6",
            "ticks": 41952,
            "time": 59.5908495,
            "velocity": 0.4881889763779528
          },
          {
            "duration": 0.2727270000000033,
            "durationTicks": 192,
            "midi": 52,
            "name": "E3",
            "ticks": 42048,
            "time": 59.727213,
            "velocity": 0.4881889763779528
          },
          {
            "duration": 0.2727270000000033,
            "durationTicks": 192,
            "midi": 52,
            "name": "E3",
            "ticks": 42048,
            "time": 59.727213,
            "velocity": 0.4881889763779528
          },
          {
            "duration": 0.2727270000000033,
            "durationTicks": 192,
            "midi": 52,
            "name": "E3",
            "ticks": 42048,
            "time": 59.727213,
            "velocity": 0.4881889763779528
          },
          {
            "duration": 0.2727270000000033,
            "durationTicks": 192,
            "midi": 52,
            "name": "E3",
            "ticks": 42048,
            "time": 59.727213,
            "velocity": 0.4881889763779528
          },
          {
            "duration": 0.2727270000000033,
            "durationTicks": 192,
            "midi": 52,
            "name": "E3",
            "ticks": 42048,
            "time": 59.727213,
            "velocity": 0.4881889763779528
          },
          {
            "duration": 0.2727270000000033,
            "durationTicks": 192,
            "midi": 52,
            "name": "E3",
            "ticks": 42048,
            "time": 59.727213,
            "velocity": 0.4881889763779528
          },
          {
            "duration": 0.13636350000000164,
            "durationTicks": 96,
            "midi": 87,
            "name": "D#6",
            "ticks": 42144,
            "time": 59.8635765,
            "velocity": 0.4881889763779528
          },
          {
            "duration": 0.13636350000000164,
            "durationTicks": 96,
            "midi": 87,
            "name": "D#6",
            "ticks": 42144,
            "time": 59.8635765,
            "velocity": 0.4881889763779528
          },
          {
            "duration": 0.13636350000000164,
            "durationTicks": 96,
            "midi": 87,
            "name": "D#6",
            "ticks": 42144,
            "time": 59.8635765,
            "velocity": 0.4881889763779528
          },
          {
            "duration": 0.13636350000000164,
            "durationTicks": 96,
            "midi": 87,
            "name": "D#6",
            "ticks": 42144,
            "time": 59.8635765,
            "velocity": 0.4881889763779528
          },
          {
            "duration": 0.13636350000000164,
            "durationTicks": 96,
            "midi": 87,
            "name": "D#6",
            "ticks": 42144,
            "time": 59.8635765,
            "velocity": 0.4881889763779528
          },
          {
            "duration": 0.13636350000000164,
            "durationTicks": 96,
            "midi": 87,
            "name": "D#6",
            "ticks": 42144,
            "time": 59.8635765,
            "velocity": 0.4881889763779528
          },
          {
            "duration": 0.27272699999999617,
            "durationTicks": 192,
            "midi": 56,
            "name": "G#3",
            "ticks": 42240,
            "time": 59.99994,
            "velocity": 0.4881889763779528
          },
          {
            "duration": 0.27272699999999617,
            "durationTicks": 192,
            "midi": 44,
            "name": "G#2",
            "ticks": 42240,
            "time": 59.99994,
            "velocity": 0.4881889763779528
          },
          {
            "duration": 0.27272699999999617,
            "durationTicks": 192,
            "midi": 44,
            "name": "G#2",
            "ticks": 42240,
            "time": 59.99994,
            "velocity": 0.4881889763779528
          },
          {
            "duration": 0.27272699999999617,
            "durationTicks": 192,
            "midi": 56,
            "name": "G#3",
            "ticks": 42240,
            "time": 59.99994,
            "velocity": 0.4881889763779528
          },
          {
            "duration": 0.27272699999999617,
            "durationTicks": 192,
            "midi": 44,
            "name": "G#2",
            "ticks": 42240,
            "time": 59.99994,
            "velocity": 0.4881889763779528
          },
          {
            "duration": 0.27272699999999617,
            "durationTicks": 192,
            "midi": 44,
            "name": "G#2",
            "ticks": 42240,
            "time": 59.99994,
            "velocity": 0.4881889763779528
          },
          {
            "duration": 0.27272699999999617,
            "durationTicks": 192,
            "midi": 56,
            "name": "G#3",
            "ticks": 42240,
            "time": 59.99994,
            "velocity": 0.4881889763779528
          },
          {
            "duration": 0.27272699999999617,
            "durationTicks": 192,
            "midi": 44,
            "name": "G#2",
            "ticks": 42240,
            "time": 59.99994,
            "velocity": 0.4881889763779528
          },
          {
            "duration": 0.27272699999999617,
            "durationTicks": 192,
            "midi": 56,
            "name": "G#3",
            "ticks": 42240,
            "time": 59.99994,
            "velocity": 0.4881889763779528
          },
          {
            "duration": 0.27272699999999617,
            "durationTicks": 192,
            "midi": 56,
            "name": "G#3",
            "ticks": 42240,
            "time": 59.99994,
            "velocity": 0.4881889763779528
          },
          {
            "duration": 0.27272699999999617,
            "durationTicks": 192,
            "midi": 44,
            "name": "G#2",
            "ticks": 42240,
            "time": 59.99994,
            "velocity": 0.4881889763779528
          },
          {
            "duration": 0.27272699999999617,
            "durationTicks": 192,
            "midi": 56,
            "name": "G#3",
            "ticks": 42240,
            "time": 59.99994,
            "velocity": 0.4881889763779528
          },
          {
            "duration": 0.13636350000000164,
            "durationTicks": 96,
            "midi": 80,
            "name": "G#5",
            "ticks": 42336,
            "time": 60.1363035,
            "velocity": 0.4881889763779528
          },
          {
            "duration": 0.13636350000000164,
            "durationTicks": 96,
            "midi": 92,
            "name": "G#6",
            "ticks": 42336,
            "time": 60.1363035,
            "velocity": 0.4881889763779528
          },
          {
            "duration": 0.13636350000000164,
            "durationTicks": 96,
            "midi": 80,
            "name": "G#5",
            "ticks": 42336,
            "time": 60.1363035,
            "velocity": 0.4881889763779528
          },
          {
            "duration": 0.13636350000000164,
            "durationTicks": 96,
            "midi": 92,
            "name": "G#6",
            "ticks": 42336,
            "time": 60.1363035,
            "velocity": 0.4881889763779528
          },
          {
            "duration": 0.13636350000000164,
            "durationTicks": 96,
            "midi": 80,
            "name": "G#5",
            "ticks": 42336,
            "time": 60.1363035,
            "velocity": 0.4881889763779528
          },
          {
            "duration": 0.13636350000000164,
            "durationTicks": 96,
            "midi": 80,
            "name": "G#5",
            "ticks": 42336,
            "time": 60.1363035,
            "velocity": 0.4881889763779528
          },
          {
            "duration": 0.13636350000000164,
            "durationTicks": 96,
            "midi": 92,
            "name": "G#6",
            "ticks": 42336,
            "time": 60.1363035,
            "velocity": 0.4881889763779528
          },
          {
            "duration": 0.13636350000000164,
            "durationTicks": 96,
            "midi": 92,
            "name": "G#6",
            "ticks": 42336,
            "time": 60.1363035,
            "velocity": 0.4881889763779528
          },
          {
            "duration": 0.13636350000000164,
            "durationTicks": 96,
            "midi": 80,
            "name": "G#5",
            "ticks": 42336,
            "time": 60.1363035,
            "velocity": 0.4881889763779528
          },
          {
            "duration": 0.13636350000000164,
            "durationTicks": 96,
            "midi": 92,
            "name": "G#6",
            "ticks": 42336,
            "time": 60.1363035,
            "velocity": 0.4881889763779528
          },
          {
            "duration": 0.13636350000000164,
            "durationTicks": 96,
            "midi": 80,
            "name": "G#5",
            "ticks": 42336,
            "time": 60.1363035,
            "velocity": 0.4881889763779528
          },
          {
            "duration": 0.13636350000000164,
            "durationTicks": 96,
            "midi": 92,
            "name": "G#6",
            "ticks": 42336,
            "time": 60.1363035,
            "velocity": 0.4881889763779528
          },
          {
            "duration": 0.13636350000000164,
            "durationTicks": 96,
            "midi": 80,
            "name": "G#5",
            "ticks": 42528,
            "time": 60.4090305,
            "velocity": 0.4881889763779528
          },
          {
            "duration": 0.13636350000000164,
            "durationTicks": 96,
            "midi": 80,
            "name": "G#5",
            "ticks": 42528,
            "time": 60.4090305,
            "velocity": 0.4881889763779528
          },
          {
            "duration": 0.13636350000000164,
            "durationTicks": 96,
            "midi": 80,
            "name": "G#5",
            "ticks": 42528,
            "time": 60.4090305,
            "velocity": 0.4881889763779528
          },
          {
            "duration": 0.13636350000000164,
            "durationTicks": 96,
            "midi": 92,
            "name": "G#6",
            "ticks": 42528,
            "time": 60.4090305,
            "velocity": 0.4881889763779528
          },
          {
            "duration": 0.13636350000000164,
            "durationTicks": 96,
            "midi": 92,
            "name": "G#6",
            "ticks": 42528,
            "time": 60.4090305,
            "velocity": 0.4881889763779528
          },
          {
            "duration": 0.13636350000000164,
            "durationTicks": 96,
            "midi": 92,
            "name": "G#6",
            "ticks": 42528,
            "time": 60.4090305,
            "velocity": 0.4881889763779528
          },
          {
            "duration": 0.13636350000000164,
            "durationTicks": 96,
            "midi": 80,
            "name": "G#5",
            "ticks": 42528,
            "time": 60.4090305,
            "velocity": 0.4881889763779528
          },
          {
            "duration": 0.13636350000000164,
            "durationTicks": 96,
            "midi": 92,
            "name": "G#6",
            "ticks": 42528,
            "time": 60.4090305,
            "velocity": 0.4881889763779528
          },
          {
            "duration": 0.13636350000000164,
            "durationTicks": 96,
            "midi": 92,
            "name": "G#6",
            "ticks": 42528,
            "time": 60.4090305,
            "velocity": 0.4881889763779528
          },
          {
            "duration": 0.13636350000000164,
            "durationTicks": 96,
            "midi": 92,
            "name": "G#6",
            "ticks": 42528,
            "time": 60.4090305,
            "velocity": 0.4881889763779528
          },
          {
            "duration": 0.13636350000000164,
            "durationTicks": 96,
            "midi": 80,
            "name": "G#5",
            "ticks": 42528,
            "time": 60.4090305,
            "velocity": 0.4881889763779528
          },
          {
            "duration": 0.13636350000000164,
            "durationTicks": 96,
            "midi": 80,
            "name": "G#5",
            "ticks": 42528,
            "time": 60.4090305,
            "velocity": 0.4881889763779528
          },
          {
            "duration": 0.13636350000000164,
            "durationTicks": 96,
            "midi": 92,
            "name": "G#6",
            "ticks": 42720,
            "time": 60.681757499999996,
            "velocity": 0.4881889763779528
          },
          {
            "duration": 0.13636350000000164,
            "durationTicks": 96,
            "midi": 80,
            "name": "G#5",
            "ticks": 42720,
            "time": 60.681757499999996,
            "velocity": 0.4881889763779528
          },
          {
            "duration": 0.13636350000000164,
            "durationTicks": 96,
            "midi": 92,
            "name": "G#6",
            "ticks": 42720,
            "time": 60.681757499999996,
            "velocity": 0.4881889763779528
          },
          {
            "duration": 0.13636350000000164,
            "durationTicks": 96,
            "midi": 92,
            "name": "G#6",
            "ticks": 42720,
            "time": 60.681757499999996,
            "velocity": 0.4881889763779528
          },
          {
            "duration": 0.13636350000000164,
            "durationTicks": 96,
            "midi": 80,
            "name": "G#5",
            "ticks": 42720,
            "time": 60.681757499999996,
            "velocity": 0.4881889763779528
          },
          {
            "duration": 0.13636350000000164,
            "durationTicks": 96,
            "midi": 80,
            "name": "G#5",
            "ticks": 42720,
            "time": 60.681757499999996,
            "velocity": 0.4881889763779528
          },
          {
            "duration": 0.13636350000000164,
            "durationTicks": 96,
            "midi": 92,
            "name": "G#6",
            "ticks": 42720,
            "time": 60.681757499999996,
            "velocity": 0.4881889763779528
          },
          {
            "duration": 0.13636350000000164,
            "durationTicks": 96,
            "midi": 92,
            "name": "G#6",
            "ticks": 42720,
            "time": 60.681757499999996,
            "velocity": 0.4881889763779528
          },
          {
            "duration": 0.13636350000000164,
            "durationTicks": 96,
            "midi": 80,
            "name": "G#5",
            "ticks": 42720,
            "time": 60.681757499999996,
            "velocity": 0.4881889763779528
          },
          {
            "duration": 0.13636350000000164,
            "durationTicks": 96,
            "midi": 92,
            "name": "G#6",
            "ticks": 42720,
            "time": 60.681757499999996,
            "velocity": 0.4881889763779528
          },
          {
            "duration": 0.13636350000000164,
            "durationTicks": 96,
            "midi": 80,
            "name": "G#5",
            "ticks": 42720,
            "time": 60.681757499999996,
            "velocity": 0.4881889763779528
          },
          {
            "duration": 0.13636350000000164,
            "durationTicks": 96,
            "midi": 80,
            "name": "G#5",
            "ticks": 42720,
            "time": 60.681757499999996,
            "velocity": 0.4881889763779528
          },
          {
            "duration": 0.2727270000000033,
            "durationTicks": 192,
            "midi": 81,
            "name": "A5",
            "ticks": 42816,
            "time": 60.818121,
            "velocity": 0.4881889763779528
          },
          {
            "duration": 0.2727270000000033,
            "durationTicks": 192,
            "midi": 93,
            "name": "A6",
            "ticks": 42816,
            "time": 60.818121,
            "velocity": 0.4881889763779528
          },
          {
            "duration": 0.2727270000000033,
            "durationTicks": 192,
            "midi": 81,
            "name": "A5",
            "ticks": 42816,
            "time": 60.818121,
            "velocity": 0.4881889763779528
          },
          {
            "duration": 0.2727270000000033,
            "durationTicks": 192,
            "midi": 93,
            "name": "A6",
            "ticks": 42816,
            "time": 60.818121,
            "velocity": 0.4881889763779528
          },
          {
            "duration": 0.2727270000000033,
            "durationTicks": 192,
            "midi": 93,
            "name": "A6",
            "ticks": 42816,
            "time": 60.818121,
            "velocity": 0.4881889763779528
          },
          {
            "duration": 0.2727270000000033,
            "durationTicks": 192,
            "midi": 81,
            "name": "A5",
            "ticks": 42816,
            "time": 60.818121,
            "velocity": 0.4881889763779528
          },
          {
            "duration": 0.2727270000000033,
            "durationTicks": 192,
            "midi": 93,
            "name": "A6",
            "ticks": 42816,
            "time": 60.818121,
            "velocity": 0.4881889763779528
          },
          {
            "duration": 0.2727270000000033,
            "durationTicks": 192,
            "midi": 81,
            "name": "A5",
            "ticks": 42816,
            "time": 60.818121,
            "velocity": 0.4881889763779528
          },
          {
            "duration": 0.2727270000000033,
            "durationTicks": 192,
            "midi": 81,
            "name": "A5",
            "ticks": 42816,
            "time": 60.818121,
            "velocity": 0.4881889763779528
          },
          {
            "duration": 0.2727270000000033,
            "durationTicks": 192,
            "midi": 93,
            "name": "A6",
            "ticks": 42816,
            "time": 60.818121,
            "velocity": 0.4881889763779528
          },
          {
            "duration": 0.2727270000000033,
            "durationTicks": 192,
            "midi": 93,
            "name": "A6",
            "ticks": 42816,
            "time": 60.818121,
            "velocity": 0.4881889763779528
          },
          {
            "duration": 0.2727270000000033,
            "durationTicks": 192,
            "midi": 81,
            "name": "A5",
            "ticks": 42816,
            "time": 60.818121,
            "velocity": 0.4881889763779528
          },
          {
            "duration": 0.5454539999999994,
            "durationTicks": 384,
            "midi": 90,
            "name": "F#6",
            "ticks": 43008,
            "time": 61.090848,
            "velocity": 0.4881889763779528
          },
          {
            "duration": 0.13636350000000164,
            "durationTicks": 96,
            "midi": 49,
            "name": "C#3",
            "ticks": 43008,
            "time": 61.090848,
            "velocity": 0.4881889763779528
          },
          {
            "duration": 0.13636350000000164,
            "durationTicks": 96,
            "midi": 61,
            "name": "C#4",
            "ticks": 43008,
            "time": 61.090848,
            "velocity": 0.4881889763779528
          },
          {
            "duration": 1.0909079999999989,
            "durationTicks": 768,
            "midi": 100,
            "name": "E7",
            "ticks": 43008,
            "time": 61.090848,
            "velocity": 0.4881889763779528
          },
          {
            "duration": 0.13636350000000164,
            "durationTicks": 96,
            "midi": 49,
            "name": "C#3",
            "ticks": 43008,
            "time": 61.090848,
            "velocity": 0.4881889763779528
          },
          {
            "duration": 0.13636350000000164,
            "durationTicks": 96,
            "midi": 49,
            "name": "C#3",
            "ticks": 43008,
            "time": 61.090848,
            "velocity": 0.4881889763779528
          },
          {
            "duration": 1.0909079999999989,
            "durationTicks": 768,
            "midi": 92,
            "name": "G#6",
            "ticks": 43008,
            "time": 61.090848,
            "velocity": 0.4881889763779528
          },
          {
            "duration": 1.0909079999999989,
            "durationTicks": 768,
            "midi": 92,
            "name": "G#6",
            "ticks": 43008,
            "time": 61.090848,
            "velocity": 0.4881889763779528
          },
          {
            "duration": 1.0909079999999989,
            "durationTicks": 768,
            "midi": 92,
            "name": "G#6",
            "ticks": 43008,
            "time": 61.090848,
            "velocity": 0.4881889763779528
          },
          {
            "duration": 1.0909079999999989,
            "durationTicks": 768,
            "midi": 95,
            "name": "B6",
            "ticks": 43008,
            "time": 61.090848,
            "velocity": 0.4881889763779528
          },
          {
            "duration": 1.0909079999999989,
            "durationTicks": 768,
            "midi": 92,
            "name": "G#6",
            "ticks": 43008,
            "time": 61.090848,
            "velocity": 0.4881889763779528
          },
          {
            "duration": 0.5454539999999994,
            "durationTicks": 384,
            "midi": 78,
            "name": "F#5",
            "ticks": 43008,
            "time": 61.090848,
            "velocity": 0.4881889763779528
          },
          {
            "duration": 1.0909079999999989,
            "durationTicks": 768,
            "midi": 95,
            "name": "B6",
            "ticks": 43008,
            "time": 61.090848,
            "velocity": 0.4881889763779528
          },
          {
            "duration": 1.0909079999999989,
            "durationTicks": 768,
            "midi": 92,
            "name": "G#6",
            "ticks": 43008,
            "time": 61.090848,
            "velocity": 0.4881889763779528
          },
          {
            "duration": 0.13636350000000164,
            "durationTicks": 96,
            "midi": 49,
            "name": "C#3",
            "ticks": 43008,
            "time": 61.090848,
            "velocity": 0.4881889763779528
          },
          {
            "duration": 0.13636350000000164,
            "durationTicks": 96,
            "midi": 49,
            "name": "C#3",
            "ticks": 43008,
            "time": 61.090848,
            "velocity": 0.4881889763779528
          },
          {
            "duration": 1.0909079999999989,
            "durationTicks": 768,
            "midi": 100,
            "name": "E7",
            "ticks": 43008,
            "time": 61.090848,
            "velocity": 0.4881889763779528
          },
          {
            "duration": 0.13636350000000164,
            "durationTicks": 96,
            "midi": 61,
            "name": "C#4",
            "ticks": 43008,
            "time": 61.090848,
            "velocity": 0.4881889763779528
          },
          {
            "duration": 1.0909079999999989,
            "durationTicks": 768,
            "midi": 100,
            "name": "E7",
            "ticks": 43008,
            "time": 61.090848,
            "velocity": 0.4881889763779528
          },
          {
            "duration": 0.5454539999999994,
            "durationTicks": 384,
            "midi": 90,
            "name": "F#6",
            "ticks": 43008,
            "time": 61.090848,
            "velocity": 0.4881889763779528
          },
          {
            "duration": 1.0909079999999989,
            "durationTicks": 768,
            "midi": 100,
            "name": "E7",
            "ticks": 43008,
            "time": 61.090848,
            "velocity": 0.4881889763779528
          },
          {
            "duration": 0.5454539999999994,
            "durationTicks": 384,
            "midi": 78,
            "name": "F#5",
            "ticks": 43008,
            "time": 61.090848,
            "velocity": 0.4881889763779528
          },
          {
            "duration": 1.0909079999999989,
            "durationTicks": 768,
            "midi": 95,
            "name": "B6",
            "ticks": 43008,
            "time": 61.090848,
            "velocity": 0.4881889763779528
          },
          {
            "duration": 0.5454539999999994,
            "durationTicks": 384,
            "midi": 78,
            "name": "F#5",
            "ticks": 43008,
            "time": 61.090848,
            "velocity": 0.4881889763779528
          },
          {
            "duration": 0.5454539999999994,
            "durationTicks": 384,
            "midi": 78,
            "name": "F#5",
            "ticks": 43008,
            "time": 61.090848,
            "velocity": 0.4881889763779528
          },
          {
            "duration": 0.13636350000000164,
            "durationTicks": 96,
            "midi": 61,
            "name": "C#4",
            "ticks": 43008,
            "time": 61.090848,
            "velocity": 0.4881889763779528
          },
          {
            "duration": 1.0909079999999989,
            "durationTicks": 768,
            "midi": 92,
            "name": "G#6",
            "ticks": 43008,
            "time": 61.090848,
            "velocity": 0.4881889763779528
          },
          {
            "duration": 0.13636350000000164,
            "durationTicks": 96,
            "midi": 49,
            "name": "C#3",
            "ticks": 43008,
            "time": 61.090848,
            "velocity": 0.4881889763779528
          },
          {
            "duration": 0.13636350000000164,
            "durationTicks": 96,
            "midi": 61,
            "name": "C#4",
            "ticks": 43008,
            "time": 61.090848,
            "velocity": 0.4881889763779528
          },
          {
            "duration": 0.5454539999999994,
            "durationTicks": 384,
            "midi": 90,
            "name": "F#6",
            "ticks": 43008,
            "time": 61.090848,
            "velocity": 0.4881889763779528
          },
          {
            "duration": 0.5454539999999994,
            "durationTicks": 384,
            "midi": 78,
            "name": "F#5",
            "ticks": 43008,
            "time": 61.090848,
            "velocity": 0.4881889763779528
          },
          {
            "duration": 1.0909079999999989,
            "durationTicks": 768,
            "midi": 95,
            "name": "B6",
            "ticks": 43008,
            "time": 61.090848,
            "velocity": 0.4881889763779528
          },
          {
            "duration": 1.0909079999999989,
            "durationTicks": 768,
            "midi": 95,
            "name": "B6",
            "ticks": 43008,
            "time": 61.090848,
            "velocity": 0.4881889763779528
          },
          {
            "duration": 0.13636350000000164,
            "durationTicks": 96,
            "midi": 61,
            "name": "C#4",
            "ticks": 43008,
            "time": 61.090848,
            "velocity": 0.4881889763779528
          },
          {
            "duration": 1.0909079999999989,
            "durationTicks": 768,
            "midi": 95,
            "name": "B6",
            "ticks": 43008,
            "time": 61.090848,
            "velocity": 0.4881889763779528
          },
          {
            "duration": 1.0909079999999989,
            "durationTicks": 768,
            "midi": 100,
            "name": "E7",
            "ticks": 43008,
            "time": 61.090848,
            "velocity": 0.4881889763779528
          },
          {
            "duration": 0.5454539999999994,
            "durationTicks": 384,
            "midi": 90,
            "name": "F#6",
            "ticks": 43008,
            "time": 61.090848,
            "velocity": 0.4881889763779528
          },
          {
            "duration": 0.13636350000000164,
            "durationTicks": 96,
            "midi": 61,
            "name": "C#4",
            "ticks": 43008,
            "time": 61.090848,
            "velocity": 0.4881889763779528
          },
          {
            "duration": 0.5454539999999994,
            "durationTicks": 384,
            "midi": 78,
            "name": "F#5",
            "ticks": 43008,
            "time": 61.090848,
            "velocity": 0.4881889763779528
          },
          {
            "duration": 0.5454539999999994,
            "durationTicks": 384,
            "midi": 90,
            "name": "F#6",
            "ticks": 43008,
            "time": 61.090848,
            "velocity": 0.4881889763779528
          },
          {
            "duration": 1.0909079999999989,
            "durationTicks": 768,
            "midi": 100,
            "name": "E7",
            "ticks": 43008,
            "time": 61.090848,
            "velocity": 0.4881889763779528
          },
          {
            "duration": 0.5454539999999994,
            "durationTicks": 384,
            "midi": 90,
            "name": "F#6",
            "ticks": 43008,
            "time": 61.090848,
            "velocity": 0.4881889763779528
          },
          {
            "duration": 0.13636349999999453,
            "durationTicks": 96,
            "midi": 49,
            "name": "C#3",
            "ticks": 43104,
            "time": 61.2272115,
            "velocity": 0.4881889763779528
          },
          {
            "duration": 0.13636349999999453,
            "durationTicks": 96,
            "midi": 49,
            "name": "C#3",
            "ticks": 43104,
            "time": 61.2272115,
            "velocity": 0.4881889763779528
          },
          {
            "duration": 0.13636349999999453,
            "durationTicks": 96,
            "midi": 61,
            "name": "C#4",
            "ticks": 43104,
            "time": 61.2272115,
            "velocity": 0.4881889763779528
          },
          {
            "duration": 0.13636349999999453,
            "durationTicks": 96,
            "midi": 61,
            "name": "C#4",
            "ticks": 43104,
            "time": 61.2272115,
            "velocity": 0.4881889763779528
          },
          {
            "duration": 0.13636349999999453,
            "durationTicks": 96,
            "midi": 49,
            "name": "C#3",
            "ticks": 43104,
            "time": 61.2272115,
            "velocity": 0.4881889763779528
          },
          {
            "duration": 0.13636349999999453,
            "durationTicks": 96,
            "midi": 61,
            "name": "C#4",
            "ticks": 43104,
            "time": 61.2272115,
            "velocity": 0.4881889763779528
          },
          {
            "duration": 0.13636349999999453,
            "durationTicks": 96,
            "midi": 61,
            "name": "C#4",
            "ticks": 43104,
            "time": 61.2272115,
            "velocity": 0.4881889763779528
          },
          {
            "duration": 0.13636349999999453,
            "durationTicks": 96,
            "midi": 61,
            "name": "C#4",
            "ticks": 43104,
            "time": 61.2272115,
            "velocity": 0.4881889763779528
          },
          {
            "duration": 0.13636349999999453,
            "durationTicks": 96,
            "midi": 61,
            "name": "C#4",
            "ticks": 43104,
            "time": 61.2272115,
            "velocity": 0.4881889763779528
          },
          {
            "duration": 0.13636349999999453,
            "durationTicks": 96,
            "midi": 49,
            "name": "C#3",
            "ticks": 43104,
            "time": 61.2272115,
            "velocity": 0.4881889763779528
          },
          {
            "duration": 0.13636349999999453,
            "durationTicks": 96,
            "midi": 49,
            "name": "C#3",
            "ticks": 43104,
            "time": 61.2272115,
            "velocity": 0.4881889763779528
          },
          {
            "duration": 0.13636349999999453,
            "durationTicks": 96,
            "midi": 49,
            "name": "C#3",
            "ticks": 43104,
            "time": 61.2272115,
            "velocity": 0.4881889763779528
          },
          {
            "duration": 0.2727270000000033,
            "durationTicks": 192,
            "midi": 49,
            "name": "C#3",
            "ticks": 43200,
            "time": 61.363575,
            "velocity": 0.4881889763779528
          },
          {
            "duration": 0.2727270000000033,
            "durationTicks": 192,
            "midi": 61,
            "name": "C#4",
            "ticks": 43200,
            "time": 61.363575,
            "velocity": 0.4881889763779528
          },
          {
            "duration": 0.2727270000000033,
            "durationTicks": 192,
            "midi": 61,
            "name": "C#4",
            "ticks": 43200,
            "time": 61.363575,
            "velocity": 0.4881889763779528
          },
          {
            "duration": 0.2727270000000033,
            "durationTicks": 192,
            "midi": 49,
            "name": "C#3",
            "ticks": 43200,
            "time": 61.363575,
            "velocity": 0.4881889763779528
          },
          {
            "duration": 0.2727270000000033,
            "durationTicks": 192,
            "midi": 49,
            "name": "C#3",
            "ticks": 43200,
            "time": 61.363575,
            "velocity": 0.4881889763779528
          },
          {
            "duration": 0.2727270000000033,
            "durationTicks": 192,
            "midi": 61,
            "name": "C#4",
            "ticks": 43200,
            "time": 61.363575,
            "velocity": 0.4881889763779528
          },
          {
            "duration": 0.2727270000000033,
            "durationTicks": 192,
            "midi": 61,
            "name": "C#4",
            "ticks": 43200,
            "time": 61.363575,
            "velocity": 0.4881889763779528
          },
          {
            "duration": 0.2727270000000033,
            "durationTicks": 192,
            "midi": 61,
            "name": "C#4",
            "ticks": 43200,
            "time": 61.363575,
            "velocity": 0.4881889763779528
          },
          {
            "duration": 0.2727270000000033,
            "durationTicks": 192,
            "midi": 61,
            "name": "C#4",
            "ticks": 43200,
            "time": 61.363575,
            "velocity": 0.4881889763779528
          },
          {
            "duration": 0.2727270000000033,
            "durationTicks": 192,
            "midi": 49,
            "name": "C#3",
            "ticks": 43200,
            "time": 61.363575,
            "velocity": 0.4881889763779528
          },
          {
            "duration": 0.2727270000000033,
            "durationTicks": 192,
            "midi": 49,
            "name": "C#3",
            "ticks": 43200,
            "time": 61.363575,
            "velocity": 0.4881889763779528
          },
          {
            "duration": 0.2727270000000033,
            "durationTicks": 192,
            "midi": 49,
            "name": "C#3",
            "ticks": 43200,
            "time": 61.363575,
            "velocity": 0.4881889763779528
          },
          {
            "duration": 0.13636350000000164,
            "durationTicks": 96,
            "midi": 49,
            "name": "C#3",
            "ticks": 43392,
            "time": 61.636302,
            "velocity": 0.4881889763779528
          },
          {
            "duration": 0.13636350000000164,
            "durationTicks": 96,
            "midi": 49,
            "name": "C#3",
            "ticks": 43392,
            "time": 61.636302,
            "velocity": 0.4881889763779528
          },
          {
            "duration": 3.4090874999999983,
            "durationTicks": 2400,
            "midi": 76,
            "name": "E5",
            "ticks": 43392,
            "time": 61.636302,
            "velocity": 0.4881889763779528
          },
          {
            "duration": 0.13636350000000164,
            "durationTicks": 96,
            "midi": 61,
            "name": "C#4",
            "ticks": 43392,
            "time": 61.636302,
            "velocity": 0.4881889763779528
          },
          {
            "duration": 0.13636350000000164,
            "durationTicks": 96,
            "midi": 61,
            "name": "C#4",
            "ticks": 43392,
            "time": 61.636302,
            "velocity": 0.4881889763779528
          },
          {
            "duration": 0.13636350000000164,
            "durationTicks": 96,
            "midi": 61,
            "name": "C#4",
            "ticks": 43392,
            "time": 61.636302,
            "velocity": 0.4881889763779528
          },
          {
            "duration": 0.5454539999999994,
            "durationTicks": 384,
            "midi": 88,
            "name": "E6",
            "ticks": 43392,
            "time": 61.636302,
            "velocity": 0.4881889763779528
          },
          {
            "duration": 0.5454539999999994,
            "durationTicks": 384,
            "midi": 88,
            "name": "E6",
            "ticks": 43392,
            "time": 61.636302,
            "velocity": 0.4881889763779528
          },
          {
            "duration": 3.4090874999999983,
            "durationTicks": 2400,
            "midi": 76,
            "name": "E5",
            "ticks": 43392,
            "time": 61.636302,
            "velocity": 0.4881889763779528
          },
          {
            "duration": 0.13636350000000164,
            "durationTicks": 96,
            "midi": 61,
            "name": "C#4",
            "ticks": 43392,
            "time": 61.636302,
            "velocity": 0.4881889763779528
          },
          {
            "duration": 3.4090874999999983,
            "durationTicks": 2400,
            "midi": 76,
            "name": "E5",
            "ticks": 43392,
            "time": 61.636302,
            "velocity": 0.4881889763779528
          },
          {
            "duration": 0.13636350000000164,
            "durationTicks": 96,
            "midi": 49,
            "name": "C#3",
            "ticks": 43392,
            "time": 61.636302,
            "velocity": 0.4881889763779528
          },
          {
            "duration": 3.4090874999999983,
            "durationTicks": 2400,
            "midi": 76,
            "name": "E5",
            "ticks": 43392,
            "time": 61.636302,
            "velocity": 0.4881889763779528
          },
          {
            "duration": 0.5454539999999994,
            "durationTicks": 384,
            "midi": 88,
            "name": "E6",
            "ticks": 43392,
            "time": 61.636302,
            "velocity": 0.4881889763779528
          },
          {
            "duration": 0.5454539999999994,
            "durationTicks": 384,
            "midi": 88,
            "name": "E6",
            "ticks": 43392,
            "time": 61.636302,
            "velocity": 0.4881889763779528
          },
          {
            "duration": 0.13636350000000164,
            "durationTicks": 96,
            "midi": 61,
            "name": "C#4",
            "ticks": 43392,
            "time": 61.636302,
            "velocity": 0.4881889763779528
          },
          {
            "duration": 3.4090874999999983,
            "durationTicks": 2400,
            "midi": 76,
            "name": "E5",
            "ticks": 43392,
            "time": 61.636302,
            "velocity": 0.4881889763779528
          },
          {
            "duration": 0.13636350000000164,
            "durationTicks": 96,
            "midi": 49,
            "name": "C#3",
            "ticks": 43392,
            "time": 61.636302,
            "velocity": 0.4881889763779528
          },
          {
            "duration": 3.4090874999999983,
            "durationTicks": 2400,
            "midi": 76,
            "name": "E5",
            "ticks": 43392,
            "time": 61.636302,
            "velocity": 0.4881889763779528
          },
          {
            "duration": 0.13636350000000164,
            "durationTicks": 96,
            "midi": 49,
            "name": "C#3",
            "ticks": 43392,
            "time": 61.636302,
            "velocity": 0.4881889763779528
          },
          {
            "duration": 0.5454539999999994,
            "durationTicks": 384,
            "midi": 88,
            "name": "E6",
            "ticks": 43392,
            "time": 61.636302,
            "velocity": 0.4881889763779528
          },
          {
            "duration": 0.13636350000000164,
            "durationTicks": 96,
            "midi": 61,
            "name": "C#4",
            "ticks": 43392,
            "time": 61.636302,
            "velocity": 0.4881889763779528
          },
          {
            "duration": 0.5454539999999994,
            "durationTicks": 384,
            "midi": 88,
            "name": "E6",
            "ticks": 43392,
            "time": 61.636302,
            "velocity": 0.4881889763779528
          },
          {
            "duration": 0.13636350000000164,
            "durationTicks": 96,
            "midi": 49,
            "name": "C#3",
            "ticks": 43392,
            "time": 61.636302,
            "velocity": 0.4881889763779528
          },
          {
            "duration": 0.13636349999999453,
            "durationTicks": 96,
            "midi": 61,
            "name": "C#4",
            "ticks": 43488,
            "time": 61.7726655,
            "velocity": 0.4881889763779528
          },
          {
            "duration": 0.13636349999999453,
            "durationTicks": 96,
            "midi": 61,
            "name": "C#4",
            "ticks": 43488,
            "time": 61.7726655,
            "velocity": 0.4881889763779528
          },
          {
            "duration": 0.13636349999999453,
            "durationTicks": 96,
            "midi": 49,
            "name": "C#3",
            "ticks": 43488,
            "time": 61.7726655,
            "velocity": 0.4881889763779528
          },
          {
            "duration": 0.13636349999999453,
            "durationTicks": 96,
            "midi": 61,
            "name": "C#4",
            "ticks": 43488,
            "time": 61.7726655,
            "velocity": 0.4881889763779528
          },
          {
            "duration": 0.13636349999999453,
            "durationTicks": 96,
            "midi": 49,
            "name": "C#3",
            "ticks": 43488,
            "time": 61.7726655,
            "velocity": 0.4881889763779528
          },
          {
            "duration": 0.13636349999999453,
            "durationTicks": 96,
            "midi": 61,
            "name": "C#4",
            "ticks": 43488,
            "time": 61.7726655,
            "velocity": 0.4881889763779528
          },
          {
            "duration": 0.13636349999999453,
            "durationTicks": 96,
            "midi": 61,
            "name": "C#4",
            "ticks": 43488,
            "time": 61.7726655,
            "velocity": 0.4881889763779528
          },
          {
            "duration": 0.13636349999999453,
            "durationTicks": 96,
            "midi": 49,
            "name": "C#3",
            "ticks": 43488,
            "time": 61.7726655,
            "velocity": 0.4881889763779528
          },
          {
            "duration": 0.13636349999999453,
            "durationTicks": 96,
            "midi": 49,
            "name": "C#3",
            "ticks": 43488,
            "time": 61.7726655,
            "velocity": 0.4881889763779528
          },
          {
            "duration": 0.13636349999999453,
            "durationTicks": 96,
            "midi": 49,
            "name": "C#3",
            "ticks": 43488,
            "time": 61.7726655,
            "velocity": 0.4881889763779528
          },
          {
            "duration": 0.13636349999999453,
            "durationTicks": 96,
            "midi": 49,
            "name": "C#3",
            "ticks": 43488,
            "time": 61.7726655,
            "velocity": 0.4881889763779528
          },
          {
            "duration": 0.13636349999999453,
            "durationTicks": 96,
            "midi": 61,
            "name": "C#4",
            "ticks": 43488,
            "time": 61.7726655,
            "velocity": 0.4881889763779528
          },
          {
            "duration": 0.2727270000000033,
            "durationTicks": 192,
            "midi": 49,
            "name": "C#3",
            "ticks": 43584,
            "time": 61.909029,
            "velocity": 0.4881889763779528
          },
          {
            "duration": 0.2727270000000033,
            "durationTicks": 192,
            "midi": 61,
            "name": "C#4",
            "ticks": 43584,
            "time": 61.909029,
            "velocity": 0.4881889763779528
          },
          {
            "duration": 0.2727270000000033,
            "durationTicks": 192,
            "midi": 49,
            "name": "C#3",
            "ticks": 43584,
            "time": 61.909029,
            "velocity": 0.4881889763779528
          },
          {
            "duration": 0.2727270000000033,
            "durationTicks": 192,
            "midi": 61,
            "name": "C#4",
            "ticks": 43584,
            "time": 61.909029,
            "velocity": 0.4881889763779528
          },
          {
            "duration": 0.2727270000000033,
            "durationTicks": 192,
            "midi": 49,
            "name": "C#3",
            "ticks": 43584,
            "time": 61.909029,
            "velocity": 0.4881889763779528
          },
          {
            "duration": 0.2727270000000033,
            "durationTicks": 192,
            "midi": 61,
            "name": "C#4",
            "ticks": 43584,
            "time": 61.909029,
            "velocity": 0.4881889763779528
          },
          {
            "duration": 0.2727270000000033,
            "durationTicks": 192,
            "midi": 61,
            "name": "C#4",
            "ticks": 43584,
            "time": 61.909029,
            "velocity": 0.4881889763779528
          },
          {
            "duration": 0.2727270000000033,
            "durationTicks": 192,
            "midi": 49,
            "name": "C#3",
            "ticks": 43584,
            "time": 61.909029,
            "velocity": 0.4881889763779528
          },
          {
            "duration": 0.2727270000000033,
            "durationTicks": 192,
            "midi": 61,
            "name": "C#4",
            "ticks": 43584,
            "time": 61.909029,
            "velocity": 0.4881889763779528
          },
          {
            "duration": 0.2727270000000033,
            "durationTicks": 192,
            "midi": 61,
            "name": "C#4",
            "ticks": 43584,
            "time": 61.909029,
            "velocity": 0.4881889763779528
          },
          {
            "duration": 0.2727270000000033,
            "durationTicks": 192,
            "midi": 49,
            "name": "C#3",
            "ticks": 43584,
            "time": 61.909029,
            "velocity": 0.4881889763779528
          },
          {
            "duration": 0.2727270000000033,
            "durationTicks": 192,
            "midi": 49,
            "name": "C#3",
            "ticks": 43584,
            "time": 61.909029,
            "velocity": 0.4881889763779528
          },
          {
            "duration": 0.5454539999999994,
            "durationTicks": 384,
            "midi": 87,
            "name": "D#6",
            "ticks": 43776,
            "time": 62.181756,
            "velocity": 0.4881889763779528
          },
          {
            "duration": 0.5454539999999994,
            "durationTicks": 384,
            "midi": 87,
            "name": "D#6",
            "ticks": 43776,
            "time": 62.181756,
            "velocity": 0.4881889763779528
          },
          {
            "duration": 0.13636350000000164,
            "durationTicks": 96,
            "midi": 49,
            "name": "C#3",
            "ticks": 43776,
            "time": 62.181756,
            "velocity": 0.4881889763779528
          },
          {
            "duration": 0.5454539999999994,
            "durationTicks": 384,
            "midi": 87,
            "name": "D#6",
            "ticks": 43776,
            "time": 62.181756,
            "velocity": 0.4881889763779528
          },
          {
            "duration": 0.13636350000000164,
            "durationTicks": 96,
            "midi": 61,
            "name": "C#4",
            "ticks": 43776,
            "time": 62.181756,
            "velocity": 0.4881889763779528
          },
          {
            "duration": 0.13636350000000164,
            "durationTicks": 96,
            "midi": 61,
            "name": "C#4",
            "ticks": 43776,
            "time": 62.181756,
            "velocity": 0.4881889763779528
          },
          {
            "duration": 0.5454539999999994,
            "durationTicks": 384,
            "midi": 99,
            "name": "D#7",
            "ticks": 43776,
            "time": 62.181756,
            "velocity": 0.4881889763779528
          },
          {
            "duration": 0.13636350000000164,
            "durationTicks": 96,
            "midi": 49,
            "name": "C#3",
            "ticks": 43776,
            "time": 62.181756,
            "velocity": 0.4881889763779528
          },
          {
            "duration": 0.5454539999999994,
            "durationTicks": 384,
            "midi": 87,
            "name": "D#6",
            "ticks": 43776,
            "time": 62.181756,
            "velocity": 0.4881889763779528
          },
          {
            "duration": 0.5454539999999994,
            "durationTicks": 384,
            "midi": 87,
            "name": "D#6",
            "ticks": 43776,
            "time": 62.181756,
            "velocity": 0.4881889763779528
          },
          {
            "duration": 0.5454539999999994,
            "durationTicks": 384,
            "midi": 99,
            "name": "D#7",
            "ticks": 43776,
            "time": 62.181756,
            "velocity": 0.4881889763779528
          },
          {
            "duration": 0.5454539999999994,
            "durationTicks": 384,
            "midi": 99,
            "name": "D#7",
            "ticks": 43776,
            "time": 62.181756,
            "velocity": 0.4881889763779528
          },
          {
            "duration": 0.13636350000000164,
            "durationTicks": 96,
            "midi": 49,
            "name": "C#3",
            "ticks": 43776,
            "time": 62.181756,
            "velocity": 0.4881889763779528
          },
          {
            "duration": 0.13636350000000164,
            "durationTicks": 96,
            "midi": 61,
            "name": "C#4",
            "ticks": 43776,
            "time": 62.181756,
            "velocity": 0.4881889763779528
          },
          {
            "duration": 0.5454539999999994,
            "durationTicks": 384,
            "midi": 99,
            "name": "D#7",
            "ticks": 43776,
            "time": 62.181756,
            "velocity": 0.4881889763779528
          },
          {
            "duration": 0.5454539999999994,
            "durationTicks": 384,
            "midi": 99,
            "name": "D#7",
            "ticks": 43776,
            "time": 62.181756,
            "velocity": 0.4881889763779528
          },
          {
            "duration": 0.5454539999999994,
            "durationTicks": 384,
            "midi": 99,
            "name": "D#7",
            "ticks": 43776,
            "time": 62.181756,
            "velocity": 0.4881889763779528
          },
          {
            "duration": 0.13636350000000164,
            "durationTicks": 96,
            "midi": 49,
            "name": "C#3",
            "ticks": 43776,
            "time": 62.181756,
            "velocity": 0.4881889763779528
          },
          {
            "duration": 0.13636350000000164,
            "durationTicks": 96,
            "midi": 61,
            "name": "C#4",
            "ticks": 43776,
            "time": 62.181756,
            "velocity": 0.4881889763779528
          },
          {
            "duration": 0.13636350000000164,
            "durationTicks": 96,
            "midi": 61,
            "name": "C#4",
            "ticks": 43776,
            "time": 62.181756,
            "velocity": 0.4881889763779528
          },
          {
            "duration": 0.13636350000000164,
            "durationTicks": 96,
            "midi": 49,
            "name": "C#3",
            "ticks": 43776,
            "time": 62.181756,
            "velocity": 0.4881889763779528
          },
          {
            "duration": 0.13636350000000164,
            "durationTicks": 96,
            "midi": 49,
            "name": "C#3",
            "ticks": 43776,
            "time": 62.181756,
            "velocity": 0.4881889763779528
          },
          {
            "duration": 0.13636350000000164,
            "durationTicks": 96,
            "midi": 61,
            "name": "C#4",
            "ticks": 43776,
            "time": 62.181756,
            "velocity": 0.4881889763779528
          },
          {
            "duration": 0.5454539999999994,
            "durationTicks": 384,
            "midi": 87,
            "name": "D#6",
            "ticks": 43776,
            "time": 62.181756,
            "velocity": 0.4881889763779528
          },
          {
            "duration": 0.13636349999999453,
            "durationTicks": 96,
            "midi": 52,
            "name": "E3",
            "ticks": 43872,
            "time": 62.3181195,
            "velocity": 0.4881889763779528
          },
          {
            "duration": 0.13636349999999453,
            "durationTicks": 96,
            "midi": 64,
            "name": "E4",
            "ticks": 43872,
            "time": 62.3181195,
            "velocity": 0.4881889763779528
          },
          {
            "duration": 0.13636349999999453,
            "durationTicks": 96,
            "midi": 64,
            "name": "E4",
            "ticks": 43872,
            "time": 62.3181195,
            "velocity": 0.4881889763779528
          },
          {
            "duration": 0.13636349999999453,
            "durationTicks": 96,
            "midi": 64,
            "name": "E4",
            "ticks": 43872,
            "time": 62.3181195,
            "velocity": 0.4881889763779528
          },
          {
            "duration": 0.13636349999999453,
            "durationTicks": 96,
            "midi": 52,
            "name": "E3",
            "ticks": 43872,
            "time": 62.3181195,
            "velocity": 0.4881889763779528
          },
          {
            "duration": 0.13636349999999453,
            "durationTicks": 96,
            "midi": 64,
            "name": "E4",
            "ticks": 43872,
            "time": 62.3181195,
            "velocity": 0.4881889763779528
          },
          {
            "duration": 0.13636349999999453,
            "durationTicks": 96,
            "midi": 64,
            "name": "E4",
            "ticks": 43872,
            "time": 62.3181195,
            "velocity": 0.4881889763779528
          },
          {
            "duration": 0.13636349999999453,
            "durationTicks": 96,
            "midi": 52,
            "name": "E3",
            "ticks": 43872,
            "time": 62.3181195,
            "velocity": 0.4881889763779528
          },
          {
            "duration": 0.13636349999999453,
            "durationTicks": 96,
            "midi": 52,
            "name": "E3",
            "ticks": 43872,
            "time": 62.3181195,
            "velocity": 0.4881889763779528
          },
          {
            "duration": 0.13636349999999453,
            "durationTicks": 96,
            "midi": 64,
            "name": "E4",
            "ticks": 43872,
            "time": 62.3181195,
            "velocity": 0.4881889763779528
          },
          {
            "duration": 0.13636349999999453,
            "durationTicks": 96,
            "midi": 52,
            "name": "E3",
            "ticks": 43872,
            "time": 62.3181195,
            "velocity": 0.4881889763779528
          },
          {
            "duration": 0.13636349999999453,
            "durationTicks": 96,
            "midi": 52,
            "name": "E3",
            "ticks": 43872,
            "time": 62.3181195,
            "velocity": 0.4881889763779528
          },
          {
            "duration": 0.2727270000000033,
            "durationTicks": 192,
            "midi": 52,
            "name": "E3",
            "ticks": 43968,
            "time": 62.454482999999996,
            "velocity": 0.4881889763779528
          },
          {
            "duration": 0.2727270000000033,
            "durationTicks": 192,
            "midi": 52,
            "name": "E3",
            "ticks": 43968,
            "time": 62.454482999999996,
            "velocity": 0.4881889763779528
          },
          {
            "duration": 0.2727270000000033,
            "durationTicks": 192,
            "midi": 64,
            "name": "E4",
            "ticks": 43968,
            "time": 62.454482999999996,
            "velocity": 0.4881889763779528
          },
          {
            "duration": 0.2727270000000033,
            "durationTicks": 192,
            "midi": 64,
            "name": "E4",
            "ticks": 43968,
            "time": 62.454482999999996,
            "velocity": 0.4881889763779528
          },
          {
            "duration": 0.2727270000000033,
            "durationTicks": 192,
            "midi": 52,
            "name": "E3",
            "ticks": 43968,
            "time": 62.454482999999996,
            "velocity": 0.4881889763779528
          },
          {
            "duration": 0.2727270000000033,
            "durationTicks": 192,
            "midi": 52,
            "name": "E3",
            "ticks": 43968,
            "time": 62.454482999999996,
            "velocity": 0.4881889763779528
          },
          {
            "duration": 0.2727270000000033,
            "durationTicks": 192,
            "midi": 52,
            "name": "E3",
            "ticks": 43968,
            "time": 62.454482999999996,
            "velocity": 0.4881889763779528
          },
          {
            "duration": 0.2727270000000033,
            "durationTicks": 192,
            "midi": 64,
            "name": "E4",
            "ticks": 43968,
            "time": 62.454482999999996,
            "velocity": 0.4881889763779528
          },
          {
            "duration": 0.2727270000000033,
            "durationTicks": 192,
            "midi": 64,
            "name": "E4",
            "ticks": 43968,
            "time": 62.454482999999996,
            "velocity": 0.4881889763779528
          },
          {
            "duration": 0.2727270000000033,
            "durationTicks": 192,
            "midi": 52,
            "name": "E3",
            "ticks": 43968,
            "time": 62.454482999999996,
            "velocity": 0.4881889763779528
          },
          {
            "duration": 0.2727270000000033,
            "durationTicks": 192,
            "midi": 64,
            "name": "E4",
            "ticks": 43968,
            "time": 62.454482999999996,
            "velocity": 0.4881889763779528
          },
          {
            "duration": 0.2727270000000033,
            "durationTicks": 192,
            "midi": 64,
            "name": "E4",
            "ticks": 43968,
            "time": 62.454482999999996,
            "velocity": 0.4881889763779528
          },
          {
            "duration": 0.5454539999999994,
            "durationTicks": 384,
            "midi": 97,
            "name": "C#7",
            "ticks": 44160,
            "time": 62.72721,
            "velocity": 0.4881889763779528
          },
          {
            "duration": 0.5454539999999994,
            "durationTicks": 384,
            "midi": 97,
            "name": "C#7",
            "ticks": 44160,
            "time": 62.72721,
            "velocity": 0.4881889763779528
          },
          {
            "duration": 0.2727270000000033,
            "durationTicks": 192,
            "midi": 56,
            "name": "G#3",
            "ticks": 44160,
            "time": 62.72721,
            "velocity": 0.4881889763779528
          },
          {
            "duration": 0.5454539999999994,
            "durationTicks": 384,
            "midi": 85,
            "name": "C#6",
            "ticks": 44160,
            "time": 62.72721,
            "velocity": 0.4881889763779528
          },
          {
            "duration": 0.5454539999999994,
            "durationTicks": 384,
            "midi": 85,
            "name": "C#6",
            "ticks": 44160,
            "time": 62.72721,
            "velocity": 0.4881889763779528
          },
          {
            "duration": 0.2727270000000033,
            "durationTicks": 192,
            "midi": 56,
            "name": "G#3",
            "ticks": 44160,
            "time": 62.72721,
            "velocity": 0.4881889763779528
          },
          {
            "duration": 0.2727270000000033,
            "durationTicks": 192,
            "midi": 68,
            "name": "G#4",
            "ticks": 44160,
            "time": 62.72721,
            "velocity": 0.4881889763779528
          },
          {
            "duration": 0.2727270000000033,
            "durationTicks": 192,
            "midi": 68,
            "name": "G#4",
            "ticks": 44160,
            "time": 62.72721,
            "velocity": 0.4881889763779528
          },
          {
            "duration": 0.5454539999999994,
            "durationTicks": 384,
            "midi": 97,
            "name": "C#7",
            "ticks": 44160,
            "time": 62.72721,
            "velocity": 0.4881889763779528
          },
          {
            "duration": 0.2727270000000033,
            "durationTicks": 192,
            "midi": 56,
            "name": "G#3",
            "ticks": 44160,
            "time": 62.72721,
            "velocity": 0.4881889763779528
          },
          {
            "duration": 0.2727270000000033,
            "durationTicks": 192,
            "midi": 56,
            "name": "G#3",
            "ticks": 44160,
            "time": 62.72721,
            "velocity": 0.4881889763779528
          },
          {
            "duration": 0.5454539999999994,
            "durationTicks": 384,
            "midi": 85,
            "name": "C#6",
            "ticks": 44160,
            "time": 62.72721,
            "velocity": 0.4881889763779528
          },
          {
            "duration": 0.2727270000000033,
            "durationTicks": 192,
            "midi": 68,
            "name": "G#4",
            "ticks": 44160,
            "time": 62.72721,
            "velocity": 0.4881889763779528
          },
          {
            "duration": 0.5454539999999994,
            "durationTicks": 384,
            "midi": 97,
            "name": "C#7",
            "ticks": 44160,
            "time": 62.72721,
            "velocity": 0.4881889763779528
          },
          {
            "duration": 0.2727270000000033,
            "durationTicks": 192,
            "midi": 68,
            "name": "G#4",
            "ticks": 44160,
            "time": 62.72721,
            "velocity": 0.4881889763779528
          },
          {
            "duration": 0.5454539999999994,
            "durationTicks": 384,
            "midi": 85,
            "name": "C#6",
            "ticks": 44160,
            "time": 62.72721,
            "velocity": 0.4881889763779528
          },
          {
            "duration": 0.2727270000000033,
            "durationTicks": 192,
            "midi": 56,
            "name": "G#3",
            "ticks": 44160,
            "time": 62.72721,
            "velocity": 0.4881889763779528
          },
          {
            "duration": 0.2727270000000033,
            "durationTicks": 192,
            "midi": 68,
            "name": "G#4",
            "ticks": 44160,
            "time": 62.72721,
            "velocity": 0.4881889763779528
          },
          {
            "duration": 0.5454539999999994,
            "durationTicks": 384,
            "midi": 97,
            "name": "C#7",
            "ticks": 44160,
            "time": 62.72721,
            "velocity": 0.4881889763779528
          },
          {
            "duration": 0.5454539999999994,
            "durationTicks": 384,
            "midi": 97,
            "name": "C#7",
            "ticks": 44160,
            "time": 62.72721,
            "velocity": 0.4881889763779528
          },
          {
            "duration": 0.2727270000000033,
            "durationTicks": 192,
            "midi": 68,
            "name": "G#4",
            "ticks": 44160,
            "time": 62.72721,
            "velocity": 0.4881889763779528
          },
          {
            "duration": 0.5454539999999994,
            "durationTicks": 384,
            "midi": 85,
            "name": "C#6",
            "ticks": 44160,
            "time": 62.72721,
            "velocity": 0.4881889763779528
          },
          {
            "duration": 0.5454539999999994,
            "durationTicks": 384,
            "midi": 85,
            "name": "C#6",
            "ticks": 44160,
            "time": 62.72721,
            "velocity": 0.4881889763779528
          },
          {
            "duration": 0.27272699999999617,
            "durationTicks": 192,
            "midi": 47,
            "name": "B2",
            "ticks": 44352,
            "time": 62.999937,
            "velocity": 0.4881889763779528
          },
          {
            "duration": 0.27272699999999617,
            "durationTicks": 192,
            "midi": 59,
            "name": "B3",
            "ticks": 44352,
            "time": 62.999937,
            "velocity": 0.4881889763779528
          },
          {
            "duration": 0.27272699999999617,
            "durationTicks": 192,
            "midi": 47,
            "name": "B2",
            "ticks": 44352,
            "time": 62.999937,
            "velocity": 0.4881889763779528
          },
          {
            "duration": 0.27272699999999617,
            "durationTicks": 192,
            "midi": 47,
            "name": "B2",
            "ticks": 44352,
            "time": 62.999937,
            "velocity": 0.4881889763779528
          },
          {
            "duration": 0.27272699999999617,
            "durationTicks": 192,
            "midi": 47,
            "name": "B2",
            "ticks": 44352,
            "time": 62.999937,
            "velocity": 0.4881889763779528
          },
          {
            "duration": 0.27272699999999617,
            "durationTicks": 192,
            "midi": 47,
            "name": "B2",
            "ticks": 44352,
            "time": 62.999937,
            "velocity": 0.4881889763779528
          },
          {
            "duration": 0.27272699999999617,
            "durationTicks": 192,
            "midi": 59,
            "name": "B3",
            "ticks": 44352,
            "time": 62.999937,
            "velocity": 0.4881889763779528
          },
          {
            "duration": 0.27272699999999617,
            "durationTicks": 192,
            "midi": 59,
            "name": "B3",
            "ticks": 44352,
            "time": 62.999937,
            "velocity": 0.4881889763779528
          },
          {
            "duration": 0.27272699999999617,
            "durationTicks": 192,
            "midi": 59,
            "name": "B3",
            "ticks": 44352,
            "time": 62.999937,
            "velocity": 0.4881889763779528
          },
          {
            "duration": 0.27272699999999617,
            "durationTicks": 192,
            "midi": 59,
            "name": "B3",
            "ticks": 44352,
            "time": 62.999937,
            "velocity": 0.4881889763779528
          },
          {
            "duration": 0.27272699999999617,
            "durationTicks": 192,
            "midi": 59,
            "name": "B3",
            "ticks": 44352,
            "time": 62.999937,
            "velocity": 0.4881889763779528
          },
          {
            "duration": 0.27272699999999617,
            "durationTicks": 192,
            "midi": 47,
            "name": "B2",
            "ticks": 44352,
            "time": 62.999937,
            "velocity": 0.4881889763779528
          },
          {
            "duration": 1.090908000000006,
            "durationTicks": 768,
            "midi": 88,
            "name": "E6",
            "ticks": 44544,
            "time": 63.272664,
            "velocity": 0.4881889763779528
          },
          {
            "duration": 1.090908000000006,
            "durationTicks": 768,
            "midi": 97,
            "name": "C#7",
            "ticks": 44544,
            "time": 63.272664,
            "velocity": 0.4881889763779528
          },
          {
            "duration": 0.13636350000000164,
            "durationTicks": 96,
            "midi": 45,
            "name": "A2",
            "ticks": 44544,
            "time": 63.272664,
            "velocity": 0.4881889763779528
          },
          {
            "duration": 0.13636350000000164,
            "durationTicks": 96,
            "midi": 45,
            "name": "A2",
            "ticks": 44544,
            "time": 63.272664,
            "velocity": 0.4881889763779528
          },
          {
            "duration": 1.090908000000006,
            "durationTicks": 768,
            "midi": 88,
            "name": "E6",
            "ticks": 44544,
            "time": 63.272664,
            "velocity": 0.4881889763779528
          },
          {
            "duration": 1.090908000000006,
            "durationTicks": 768,
            "midi": 93,
            "name": "A6",
            "ticks": 44544,
            "time": 63.272664,
            "velocity": 0.4881889763779528
          },
          {
            "duration": 0.13636350000000164,
            "durationTicks": 96,
            "midi": 57,
            "name": "A3",
            "ticks": 44544,
            "time": 63.272664,
            "velocity": 0.4881889763779528
          },
          {
            "duration": 1.090908000000006,
            "durationTicks": 768,
            "midi": 88,
            "name": "E6",
            "ticks": 44544,
            "time": 63.272664,
            "velocity": 0.4881889763779528
          },
          {
            "duration": 1.090908000000006,
            "durationTicks": 768,
            "midi": 88,
            "name": "E6",
            "ticks": 44544,
            "time": 63.272664,
            "velocity": 0.4881889763779528
          },
          {
            "duration": 1.090908000000006,
            "durationTicks": 768,
            "midi": 93,
            "name": "A6",
            "ticks": 44544,
            "time": 63.272664,
            "velocity": 0.4881889763779528
          },
          {
            "duration": 1.090908000000006,
            "durationTicks": 768,
            "midi": 100,
            "name": "E7",
            "ticks": 44544,
            "time": 63.272664,
            "velocity": 0.4881889763779528
          },
          {
            "duration": 1.090908000000006,
            "durationTicks": 768,
            "midi": 97,
            "name": "C#7",
            "ticks": 44544,
            "time": 63.272664,
            "velocity": 0.4881889763779528
          },
          {
            "duration": 1.090908000000006,
            "durationTicks": 768,
            "midi": 88,
            "name": "E6",
            "ticks": 44544,
            "time": 63.272664,
            "velocity": 0.4881889763779528
          },
          {
            "duration": 1.090908000000006,
            "durationTicks": 768,
            "midi": 88,
            "name": "E6",
            "ticks": 44544,
            "time": 63.272664,
            "velocity": 0.4881889763779528
          },
          {
            "duration": 0.13636350000000164,
            "durationTicks": 96,
            "midi": 57,
            "name": "A3",
            "ticks": 44544,
            "time": 63.272664,
            "velocity": 0.4881889763779528
          },
          {
            "duration": 1.7727255,
            "durationTicks": 1248,
            "midi": 88,
            "name": "E6",
            "ticks": 44544,
            "time": 63.272664,
            "velocity": 0.4881889763779528
          },
          {
            "duration": 0.13636350000000164,
            "durationTicks": 96,
            "midi": 57,
            "name": "A3",
            "ticks": 44544,
            "time": 63.272664,
            "velocity": 0.4881889763779528
          },
          {
            "duration": 1.090908000000006,
            "durationTicks": 768,
            "midi": 93,
            "name": "A6",
            "ticks": 44544,
            "time": 63.272664,
            "velocity": 0.4881889763779528
          },
          {
            "duration": 1.7727255,
            "durationTicks": 1248,
            "midi": 88,
            "name": "E6",
            "ticks": 44544,
            "time": 63.272664,
            "velocity": 0.4881889763779528
          },
          {
            "duration": 1.090908000000006,
            "durationTicks": 768,
            "midi": 100,
            "name": "E7",
            "ticks": 44544,
            "time": 63.272664,
            "velocity": 0.4881889763779528
          },
          {
            "duration": 0.13636350000000164,
            "durationTicks": 96,
            "midi": 45,
            "name": "A2",
            "ticks": 44544,
            "time": 63.272664,
            "velocity": 0.4881889763779528
          },
          {
            "duration": 1.7727255,
            "durationTicks": 1248,
            "midi": 88,
            "name": "E6",
            "ticks": 44544,
            "time": 63.272664,
            "velocity": 0.4881889763779528
          },
          {
            "duration": 1.090908000000006,
            "durationTicks": 768,
            "midi": 97,
            "name": "C#7",
            "ticks": 44544,
            "time": 63.272664,
            "velocity": 0.4881889763779528
          },
          {
            "duration": 1.090908000000006,
            "durationTicks": 768,
            "midi": 100,
            "name": "E7",
            "ticks": 44544,
            "time": 63.272664,
            "velocity": 0.4881889763779528
          },
          {
            "duration": 1.090908000000006,
            "durationTicks": 768,
            "midi": 97,
            "name": "C#7",
            "ticks": 44544,
            "time": 63.272664,
            "velocity": 0.4881889763779528
          },
          {
            "duration": 0.13636350000000164,
            "durationTicks": 96,
            "midi": 45,
            "name": "A2",
            "ticks": 44544,
            "time": 63.272664,
            "velocity": 0.4881889763779528
          },
          {
            "duration": 0.13636350000000164,
            "durationTicks": 96,
            "midi": 45,
            "name": "A2",
            "ticks": 44544,
            "time": 63.272664,
            "velocity": 0.4881889763779528
          },
          {
            "duration": 1.090908000000006,
            "durationTicks": 768,
            "midi": 100,
            "name": "E7",
            "ticks": 44544,
            "time": 63.272664,
            "velocity": 0.4881889763779528
          },
          {
            "duration": 1.090908000000006,
            "durationTicks": 768,
            "midi": 93,
            "name": "A6",
            "ticks": 44544,
            "time": 63.272664,
            "velocity": 0.4881889763779528
          },
          {
            "duration": 0.13636350000000164,
            "durationTicks": 96,
            "midi": 57,
            "name": "A3",
            "ticks": 44544,
            "time": 63.272664,
            "velocity": 0.4881889763779528
          },
          {
            "duration": 1.7727255,
            "durationTicks": 1248,
            "midi": 88,
            "name": "E6",
            "ticks": 44544,
            "time": 63.272664,
            "velocity": 0.4881889763779528
          },
          {
            "duration": 1.7727255,
            "durationTicks": 1248,
            "midi": 88,
            "name": "E6",
            "ticks": 44544,
            "time": 63.272664,
            "velocity": 0.4881889763779528
          },
          {
            "duration": 1.090908000000006,
            "durationTicks": 768,
            "midi": 100,
            "name": "E7",
            "ticks": 44544,
            "time": 63.272664,
            "velocity": 0.4881889763779528
          },
          {
            "duration": 0.13636350000000164,
            "durationTicks": 96,
            "midi": 57,
            "name": "A3",
            "ticks": 44544,
            "time": 63.272664,
            "velocity": 0.4881889763779528
          },
          {
            "duration": 0.13636350000000164,
            "durationTicks": 96,
            "midi": 57,
            "name": "A3",
            "ticks": 44544,
            "time": 63.272664,
            "velocity": 0.4881889763779528
          },
          {
            "duration": 1.090908000000006,
            "durationTicks": 768,
            "midi": 97,
            "name": "C#7",
            "ticks": 44544,
            "time": 63.272664,
            "velocity": 0.4881889763779528
          },
          {
            "duration": 1.090908000000006,
            "durationTicks": 768,
            "midi": 97,
            "name": "C#7",
            "ticks": 44544,
            "time": 63.272664,
            "velocity": 0.4881889763779528
          },
          {
            "duration": 1.090908000000006,
            "durationTicks": 768,
            "midi": 93,
            "name": "A6",
            "ticks": 44544,
            "time": 63.272664,
            "velocity": 0.4881889763779528
          },
          {
            "duration": 0.13636350000000164,
            "durationTicks": 96,
            "midi": 45,
            "name": "A2",
            "ticks": 44544,
            "time": 63.272664,
            "velocity": 0.4881889763779528
          },
          {
            "duration": 1.090908000000006,
            "durationTicks": 768,
            "midi": 100,
            "name": "E7",
            "ticks": 44544,
            "time": 63.272664,
            "velocity": 0.4881889763779528
          },
          {
            "duration": 1.7727255,
            "durationTicks": 1248,
            "midi": 88,
            "name": "E6",
            "ticks": 44544,
            "time": 63.272664,
            "velocity": 0.4881889763779528
          },
          {
            "duration": 1.090908000000006,
            "durationTicks": 768,
            "midi": 93,
            "name": "A6",
            "ticks": 44544,
            "time": 63.272664,
            "velocity": 0.4881889763779528
          },
          {
            "duration": 0.13636350000000164,
            "durationTicks": 96,
            "midi": 57,
            "name": "A3",
            "ticks": 44640,
            "time": 63.4090275,
            "velocity": 0.4881889763779528
          },
          {
            "duration": 0.13636350000000164,
            "durationTicks": 96,
            "midi": 45,
            "name": "A2",
            "ticks": 44640,
            "time": 63.4090275,
            "velocity": 0.4881889763779528
          },
          {
            "duration": 0.13636350000000164,
            "durationTicks": 96,
            "midi": 57,
            "name": "A3",
            "ticks": 44640,
            "time": 63.4090275,
            "velocity": 0.4881889763779528
          },
          {
            "duration": 0.13636350000000164,
            "durationTicks": 96,
            "midi": 45,
            "name": "A2",
            "ticks": 44640,
            "time": 63.4090275,
            "velocity": 0.4881889763779528
          },
          {
            "duration": 0.13636350000000164,
            "durationTicks": 96,
            "midi": 45,
            "name": "A2",
            "ticks": 44640,
            "time": 63.4090275,
            "velocity": 0.4881889763779528
          },
          {
            "duration": 0.13636350000000164,
            "durationTicks": 96,
            "midi": 57,
            "name": "A3",
            "ticks": 44640,
            "time": 63.4090275,
            "velocity": 0.4881889763779528
          },
          {
            "duration": 0.13636350000000164,
            "durationTicks": 96,
            "midi": 57,
            "name": "A3",
            "ticks": 44640,
            "time": 63.4090275,
            "velocity": 0.4881889763779528
          },
          {
            "duration": 0.13636350000000164,
            "durationTicks": 96,
            "midi": 45,
            "name": "A2",
            "ticks": 44640,
            "time": 63.4090275,
            "velocity": 0.4881889763779528
          },
          {
            "duration": 0.13636350000000164,
            "durationTicks": 96,
            "midi": 57,
            "name": "A3",
            "ticks": 44640,
            "time": 63.4090275,
            "velocity": 0.4881889763779528
          },
          {
            "duration": 0.13636350000000164,
            "durationTicks": 96,
            "midi": 57,
            "name": "A3",
            "ticks": 44640,
            "time": 63.4090275,
            "velocity": 0.4881889763779528
          },
          {
            "duration": 0.13636350000000164,
            "durationTicks": 96,
            "midi": 45,
            "name": "A2",
            "ticks": 44640,
            "time": 63.4090275,
            "velocity": 0.4881889763779528
          },
          {
            "duration": 0.13636350000000164,
            "durationTicks": 96,
            "midi": 45,
            "name": "A2",
            "ticks": 44640,
            "time": 63.4090275,
            "velocity": 0.4881889763779528
          },
          {
            "duration": 0.27272699999999617,
            "durationTicks": 192,
            "midi": 45,
            "name": "A2",
            "ticks": 44736,
            "time": 63.545391,
            "velocity": 0.4881889763779528
          },
          {
            "duration": 0.27272699999999617,
            "durationTicks": 192,
            "midi": 57,
            "name": "A3",
            "ticks": 44736,
            "time": 63.545391,
            "velocity": 0.4881889763779528
          },
          {
            "duration": 0.27272699999999617,
            "durationTicks": 192,
            "midi": 57,
            "name": "A3",
            "ticks": 44736,
            "time": 63.545391,
            "velocity": 0.4881889763779528
          },
          {
            "duration": 0.27272699999999617,
            "durationTicks": 192,
            "midi": 45,
            "name": "A2",
            "ticks": 44736,
            "time": 63.545391,
            "velocity": 0.4881889763779528
          },
          {
            "duration": 0.27272699999999617,
            "durationTicks": 192,
            "midi": 45,
            "name": "A2",
            "ticks": 44736,
            "time": 63.545391,
            "velocity": 0.4881889763779528
          },
          {
            "duration": 0.27272699999999617,
            "durationTicks": 192,
            "midi": 45,
            "name": "A2",
            "ticks": 44736,
            "time": 63.545391,
            "velocity": 0.4881889763779528
          },
          {
            "duration": 0.27272699999999617,
            "durationTicks": 192,
            "midi": 57,
            "name": "A3",
            "ticks": 44736,
            "time": 63.545391,
            "velocity": 0.4881889763779528
          },
          {
            "duration": 0.27272699999999617,
            "durationTicks": 192,
            "midi": 57,
            "name": "A3",
            "ticks": 44736,
            "time": 63.545391,
            "velocity": 0.4881889763779528
          },
          {
            "duration": 0.27272699999999617,
            "durationTicks": 192,
            "midi": 57,
            "name": "A3",
            "ticks": 44736,
            "time": 63.545391,
            "velocity": 0.4881889763779528
          },
          {
            "duration": 0.27272699999999617,
            "durationTicks": 192,
            "midi": 45,
            "name": "A2",
            "ticks": 44736,
            "time": 63.545391,
            "velocity": 0.4881889763779528
          },
          {
            "duration": 0.27272699999999617,
            "durationTicks": 192,
            "midi": 45,
            "name": "A2",
            "ticks": 44736,
            "time": 63.545391,
            "velocity": 0.4881889763779528
          },
          {
            "duration": 0.27272699999999617,
            "durationTicks": 192,
            "midi": 57,
            "name": "A3",
            "ticks": 44736,
            "time": 63.545391,
            "velocity": 0.4881889763779528
          },
          {
            "duration": 0.13636350000000164,
            "durationTicks": 96,
            "midi": 45,
            "name": "A2",
            "ticks": 44928,
            "time": 63.818118,
            "velocity": 0.4881889763779528
          },
          {
            "duration": 0.13636350000000164,
            "durationTicks": 96,
            "midi": 57,
            "name": "A3",
            "ticks": 44928,
            "time": 63.818118,
            "velocity": 0.4881889763779528
          },
          {
            "duration": 0.13636350000000164,
            "durationTicks": 96,
            "midi": 57,
            "name": "A3",
            "ticks": 44928,
            "time": 63.818118,
            "velocity": 0.4881889763779528
          },
          {
            "duration": 0.13636350000000164,
            "durationTicks": 96,
            "midi": 45,
            "name": "A2",
            "ticks": 44928,
            "time": 63.818118,
            "velocity": 0.4881889763779528
          },
          {
            "duration": 0.13636350000000164,
            "durationTicks": 96,
            "midi": 45,
            "name": "A2",
            "ticks": 44928,
            "time": 63.818118,
            "velocity": 0.4881889763779528
          },
          {
            "duration": 0.13636350000000164,
            "durationTicks": 96,
            "midi": 57,
            "name": "A3",
            "ticks": 44928,
            "time": 63.818118,
            "velocity": 0.4881889763779528
          },
          {
            "duration": 0.13636350000000164,
            "durationTicks": 96,
            "midi": 57,
            "name": "A3",
            "ticks": 44928,
            "time": 63.818118,
            "velocity": 0.4881889763779528
          },
          {
            "duration": 0.13636350000000164,
            "durationTicks": 96,
            "midi": 45,
            "name": "A2",
            "ticks": 44928,
            "time": 63.818118,
            "velocity": 0.4881889763779528
          },
          {
            "duration": 0.13636350000000164,
            "durationTicks": 96,
            "midi": 45,
            "name": "A2",
            "ticks": 44928,
            "time": 63.818118,
            "velocity": 0.4881889763779528
          },
          {
            "duration": 0.13636350000000164,
            "durationTicks": 96,
            "midi": 57,
            "name": "A3",
            "ticks": 44928,
            "time": 63.818118,
            "velocity": 0.4881889763779528
          },
          {
            "duration": 0.13636350000000164,
            "durationTicks": 96,
            "midi": 57,
            "name": "A3",
            "ticks": 44928,
            "time": 63.818118,
            "velocity": 0.4881889763779528
          },
          {
            "duration": 0.13636350000000164,
            "durationTicks": 96,
            "midi": 45,
            "name": "A2",
            "ticks": 44928,
            "time": 63.818118,
            "velocity": 0.4881889763779528
          },
          {
            "duration": 0.13636350000000164,
            "durationTicks": 96,
            "midi": 57,
            "name": "A3",
            "ticks": 45024,
            "time": 63.9544815,
            "velocity": 0.4881889763779528
          },
          {
            "duration": 0.13636350000000164,
            "durationTicks": 96,
            "midi": 57,
            "name": "A3",
            "ticks": 45024,
            "time": 63.9544815,
            "velocity": 0.4881889763779528
          },
          {
            "duration": 0.13636350000000164,
            "durationTicks": 96,
            "midi": 57,
            "name": "A3",
            "ticks": 45024,
            "time": 63.9544815,
            "velocity": 0.4881889763779528
          },
          {
            "duration": 0.13636350000000164,
            "durationTicks": 96,
            "midi": 57,
            "name": "A3",
            "ticks": 45024,
            "time": 63.9544815,
            "velocity": 0.4881889763779528
          },
          {
            "duration": 0.13636350000000164,
            "durationTicks": 96,
            "midi": 57,
            "name": "A3",
            "ticks": 45024,
            "time": 63.9544815,
            "velocity": 0.4881889763779528
          },
          {
            "duration": 0.13636350000000164,
            "durationTicks": 96,
            "midi": 57,
            "name": "A3",
            "ticks": 45024,
            "time": 63.9544815,
            "velocity": 0.4881889763779528
          },
          {
            "duration": 0.13636350000000164,
            "durationTicks": 96,
            "midi": 45,
            "name": "A2",
            "ticks": 45024,
            "time": 63.9544815,
            "velocity": 0.4881889763779528
          },
          {
            "duration": 0.13636350000000164,
            "durationTicks": 96,
            "midi": 45,
            "name": "A2",
            "ticks": 45024,
            "time": 63.9544815,
            "velocity": 0.4881889763779528
          },
          {
            "duration": 0.13636350000000164,
            "durationTicks": 96,
            "midi": 45,
            "name": "A2",
            "ticks": 45024,
            "time": 63.9544815,
            "velocity": 0.4881889763779528
          },
          {
            "duration": 0.13636350000000164,
            "durationTicks": 96,
            "midi": 45,
            "name": "A2",
            "ticks": 45024,
            "time": 63.9544815,
            "velocity": 0.4881889763779528
          },
          {
            "duration": 0.13636350000000164,
            "durationTicks": 96,
            "midi": 45,
            "name": "A2",
            "ticks": 45024,
            "time": 63.9544815,
            "velocity": 0.4881889763779528
          },
          {
            "duration": 0.13636350000000164,
            "durationTicks": 96,
            "midi": 45,
            "name": "A2",
            "ticks": 45024,
            "time": 63.9544815,
            "velocity": 0.4881889763779528
          },
          {
            "duration": 0.2727270000000033,
            "durationTicks": 192,
            "midi": 57,
            "name": "A3",
            "ticks": 45120,
            "time": 64.090845,
            "velocity": 0.4881889763779528
          },
          {
            "duration": 0.2727270000000033,
            "durationTicks": 192,
            "midi": 57,
            "name": "A3",
            "ticks": 45120,
            "time": 64.090845,
            "velocity": 0.4881889763779528
          },
          {
            "duration": 0.2727270000000033,
            "durationTicks": 192,
            "midi": 57,
            "name": "A3",
            "ticks": 45120,
            "time": 64.090845,
            "velocity": 0.4881889763779528
          },
          {
            "duration": 0.2727270000000033,
            "durationTicks": 192,
            "midi": 45,
            "name": "A2",
            "ticks": 45120,
            "time": 64.090845,
            "velocity": 0.4881889763779528
          },
          {
            "duration": 0.2727270000000033,
            "durationTicks": 192,
            "midi": 57,
            "name": "A3",
            "ticks": 45120,
            "time": 64.090845,
            "velocity": 0.4881889763779528
          },
          {
            "duration": 0.2727270000000033,
            "durationTicks": 192,
            "midi": 45,
            "name": "A2",
            "ticks": 45120,
            "time": 64.090845,
            "velocity": 0.4881889763779528
          },
          {
            "duration": 0.2727270000000033,
            "durationTicks": 192,
            "midi": 45,
            "name": "A2",
            "ticks": 45120,
            "time": 64.090845,
            "velocity": 0.4881889763779528
          },
          {
            "duration": 0.2727270000000033,
            "durationTicks": 192,
            "midi": 57,
            "name": "A3",
            "ticks": 45120,
            "time": 64.090845,
            "velocity": 0.4881889763779528
          },
          {
            "duration": 0.2727270000000033,
            "durationTicks": 192,
            "midi": 57,
            "name": "A3",
            "ticks": 45120,
            "time": 64.090845,
            "velocity": 0.4881889763779528
          },
          {
            "duration": 0.2727270000000033,
            "durationTicks": 192,
            "midi": 45,
            "name": "A2",
            "ticks": 45120,
            "time": 64.090845,
            "velocity": 0.4881889763779528
          },
          {
            "duration": 0.2727270000000033,
            "durationTicks": 192,
            "midi": 45,
            "name": "A2",
            "ticks": 45120,
            "time": 64.090845,
            "velocity": 0.4881889763779528
          },
          {
            "duration": 0.2727270000000033,
            "durationTicks": 192,
            "midi": 45,
            "name": "A2",
            "ticks": 45120,
            "time": 64.090845,
            "velocity": 0.4881889763779528
          },
          {
            "duration": 0.13636349999998743,
            "durationTicks": 96,
            "midi": 45,
            "name": "A2",
            "ticks": 45312,
            "time": 64.363572,
            "velocity": 0.4881889763779528
          },
          {
            "duration": 0.13636349999998743,
            "durationTicks": 96,
            "midi": 45,
            "name": "A2",
            "ticks": 45312,
            "time": 64.363572,
            "velocity": 0.4881889763779528
          },
          {
            "duration": 0.5454539999999923,
            "durationTicks": 384,
            "midi": 87,
            "name": "D#6",
            "ticks": 45312,
            "time": 64.363572,
            "velocity": 0.4881889763779528
          },
          {
            "duration": 0.13636349999998743,
            "durationTicks": 96,
            "midi": 45,
            "name": "A2",
            "ticks": 45312,
            "time": 64.363572,
            "velocity": 0.4881889763779528
          },
          {
            "duration": 0.5454539999999923,
            "durationTicks": 384,
            "midi": 87,
            "name": "D#6",
            "ticks": 45312,
            "time": 64.363572,
            "velocity": 0.4881889763779528
          },
          {
            "duration": 0.13636349999998743,
            "durationTicks": 96,
            "midi": 57,
            "name": "A3",
            "ticks": 45312,
            "time": 64.363572,
            "velocity": 0.4881889763779528
          },
          {
            "duration": 0.13636349999998743,
            "durationTicks": 96,
            "midi": 45,
            "name": "A2",
            "ticks": 45312,
            "time": 64.363572,
            "velocity": 0.4881889763779528
          },
          {
            "duration": 0.13636349999998743,
            "durationTicks": 96,
            "midi": 57,
            "name": "A3",
            "ticks": 45312,
            "time": 64.363572,
            "velocity": 0.4881889763779528
          },
          {
            "duration": 0.13636349999998743,
            "durationTicks": 96,
            "midi": 57,
            "name": "A3",
            "ticks": 45312,
            "time": 64.363572,
            "velocity": 0.4881889763779528
          },
          {
            "duration": 0.5454539999999923,
            "durationTicks": 384,
            "midi": 99,
            "name": "D#7",
            "ticks": 45312,
            "time": 64.363572,
            "velocity": 0.4881889763779528
          },
          {
            "duration": 0.5454539999999923,
            "durationTicks": 384,
            "midi": 99,
            "name": "D#7",
            "ticks": 45312,
            "time": 64.363572,
            "velocity": 0.4881889763779528
          },
          {
            "duration": 0.13636349999998743,
            "durationTicks": 96,
            "midi": 45,
            "name": "A2",
            "ticks": 45312,
            "time": 64.363572,
            "velocity": 0.4881889763779528
          },
          {
            "duration": 0.5454539999999923,
            "durationTicks": 384,
            "midi": 87,
            "name": "D#6",
            "ticks": 45312,
            "time": 64.363572,
            "velocity": 0.4881889763779528
          },
          {
            "duration": 0.5454539999999923,
            "durationTicks": 384,
            "midi": 87,
            "name": "D#6",
            "ticks": 45312,
            "time": 64.363572,
            "velocity": 0.4881889763779528
          },
          {
            "duration": 0.13636349999998743,
            "durationTicks": 96,
            "midi": 57,
            "name": "A3",
            "ticks": 45312,
            "time": 64.363572,
            "velocity": 0.4881889763779528
          },
          {
            "duration": 0.13636349999998743,
            "durationTicks": 96,
            "midi": 45,
            "name": "A2",
            "ticks": 45312,
            "time": 64.363572,
            "velocity": 0.4881889763779528
          },
          {
            "duration": 0.5454539999999923,
            "durationTicks": 384,
            "midi": 99,
            "name": "D#7",
            "ticks": 45312,
            "time": 64.363572,
            "velocity": 0.4881889763779528
          },
          {
            "duration": 0.5454539999999923,
            "durationTicks": 384,
            "midi": 87,
            "name": "D#6",
            "ticks": 45312,
            "time": 64.363572,
            "velocity": 0.4881889763779528
          },
          {
            "duration": 0.5454539999999923,
            "durationTicks": 384,
            "midi": 99,
            "name": "D#7",
            "ticks": 45312,
            "time": 64.363572,
            "velocity": 0.4881889763779528
          },
          {
            "duration": 0.5454539999999923,
            "durationTicks": 384,
            "midi": 99,
            "name": "D#7",
            "ticks": 45312,
            "time": 64.363572,
            "velocity": 0.4881889763779528
          },
          {
            "duration": 0.5454539999999923,
            "durationTicks": 384,
            "midi": 87,
            "name": "D#6",
            "ticks": 45312,
            "time": 64.363572,
            "velocity": 0.4881889763779528
          },
          {
            "duration": 0.13636349999998743,
            "durationTicks": 96,
            "midi": 57,
            "name": "A3",
            "ticks": 45312,
            "time": 64.363572,
            "velocity": 0.4881889763779528
          },
          {
            "duration": 0.13636349999998743,
            "durationTicks": 96,
            "midi": 57,
            "name": "A3",
            "ticks": 45312,
            "time": 64.363572,
            "velocity": 0.4881889763779528
          },
          {
            "duration": 0.5454539999999923,
            "durationTicks": 384,
            "midi": 99,
            "name": "D#7",
            "ticks": 45312,
            "time": 64.363572,
            "velocity": 0.4881889763779528
          },
          {
            "duration": 0.13636350000000164,
            "durationTicks": 96,
            "midi": 49,
            "name": "C#3",
            "ticks": 45408,
            "time": 64.49993549999999,
            "velocity": 0.4881889763779528
          },
          {
            "duration": 0.13636350000000164,
            "durationTicks": 96,
            "midi": 61,
            "name": "C#4",
            "ticks": 45408,
            "time": 64.49993549999999,
            "velocity": 0.4881889763779528
          },
          {
            "duration": 0.13636350000000164,
            "durationTicks": 96,
            "midi": 49,
            "name": "C#3",
            "ticks": 45408,
            "time": 64.49993549999999,
            "velocity": 0.4881889763779528
          },
          {
            "duration": 0.13636350000000164,
            "durationTicks": 96,
            "midi": 49,
            "name": "C#3",
            "ticks": 45408,
            "time": 64.49993549999999,
            "velocity": 0.4881889763779528
          },
          {
            "duration": 0.13636350000000164,
            "durationTicks": 96,
            "midi": 49,
            "name": "C#3",
            "ticks": 45408,
            "time": 64.49993549999999,
            "velocity": 0.4881889763779528
          },
          {
            "duration": 0.13636350000000164,
            "durationTicks": 96,
            "midi": 61,
            "name": "C#4",
            "ticks": 45408,
            "time": 64.49993549999999,
            "velocity": 0.4881889763779528
          },
          {
            "duration": 0.13636350000000164,
            "durationTicks": 96,
            "midi": 61,
            "name": "C#4",
            "ticks": 45408,
            "time": 64.49993549999999,
            "velocity": 0.4881889763779528
          },
          {
            "duration": 0.13636350000000164,
            "durationTicks": 96,
            "midi": 61,
            "name": "C#4",
            "ticks": 45408,
            "time": 64.49993549999999,
            "velocity": 0.4881889763779528
          },
          {
            "duration": 0.13636350000000164,
            "durationTicks": 96,
            "midi": 49,
            "name": "C#3",
            "ticks": 45408,
            "time": 64.49993549999999,
            "velocity": 0.4881889763779528
          },
          {
            "duration": 0.13636350000000164,
            "durationTicks": 96,
            "midi": 61,
            "name": "C#4",
            "ticks": 45408,
            "time": 64.49993549999999,
            "velocity": 0.4881889763779528
          },
          {
            "duration": 0.13636350000000164,
            "durationTicks": 96,
            "midi": 61,
            "name": "C#4",
            "ticks": 45408,
            "time": 64.49993549999999,
            "velocity": 0.4881889763779528
          },
          {
            "duration": 0.13636350000000164,
            "durationTicks": 96,
            "midi": 49,
            "name": "C#3",
            "ticks": 45408,
            "time": 64.49993549999999,
            "velocity": 0.4881889763779528
          },
          {
            "duration": 0.2727270000000033,
            "durationTicks": 192,
            "midi": 49,
            "name": "C#3",
            "ticks": 45504,
            "time": 64.636299,
            "velocity": 0.4881889763779528
          },
          {
            "duration": 0.2727270000000033,
            "durationTicks": 192,
            "midi": 61,
            "name": "C#4",
            "ticks": 45504,
            "time": 64.636299,
            "velocity": 0.4881889763779528
          },
          {
            "duration": 0.2727270000000033,
            "durationTicks": 192,
            "midi": 49,
            "name": "C#3",
            "ticks": 45504,
            "time": 64.636299,
            "velocity": 0.4881889763779528
          },
          {
            "duration": 0.2727270000000033,
            "durationTicks": 192,
            "midi": 49,
            "name": "C#3",
            "ticks": 45504,
            "time": 64.636299,
            "velocity": 0.4881889763779528
          },
          {
            "duration": 0.2727270000000033,
            "durationTicks": 192,
            "midi": 49,
            "name": "C#3",
            "ticks": 45504,
            "time": 64.636299,
            "velocity": 0.4881889763779528
          },
          {
            "duration": 0.2727270000000033,
            "durationTicks": 192,
            "midi": 61,
            "name": "C#4",
            "ticks": 45504,
            "time": 64.636299,
            "velocity": 0.4881889763779528
          },
          {
            "duration": 0.2727270000000033,
            "durationTicks": 192,
            "midi": 61,
            "name": "C#4",
            "ticks": 45504,
            "time": 64.636299,
            "velocity": 0.4881889763779528
          },
          {
            "duration": 0.2727270000000033,
            "durationTicks": 192,
            "midi": 61,
            "name": "C#4",
            "ticks": 45504,
            "time": 64.636299,
            "velocity": 0.4881889763779528
          },
          {
            "duration": 0.2727270000000033,
            "durationTicks": 192,
            "midi": 49,
            "name": "C#3",
            "ticks": 45504,
            "time": 64.636299,
            "velocity": 0.4881889763779528
          },
          {
            "duration": 0.2727270000000033,
            "durationTicks": 192,
            "midi": 61,
            "name": "C#4",
            "ticks": 45504,
            "time": 64.636299,
            "velocity": 0.4881889763779528
          },
          {
            "duration": 0.2727270000000033,
            "durationTicks": 192,
            "midi": 49,
            "name": "C#3",
            "ticks": 45504,
            "time": 64.636299,
            "velocity": 0.4881889763779528
          },
          {
            "duration": 0.2727270000000033,
            "durationTicks": 192,
            "midi": 61,
            "name": "C#4",
            "ticks": 45504,
            "time": 64.636299,
            "velocity": 0.4881889763779528
          },
          {
            "duration": 0.5454540000000065,
            "durationTicks": 384,
            "midi": 97,
            "name": "C#7",
            "ticks": 45696,
            "time": 64.909026,
            "velocity": 0.4881889763779528
          },
          {
            "duration": 0.2727270000000033,
            "durationTicks": 192,
            "midi": 64,
            "name": "E4",
            "ticks": 45696,
            "time": 64.909026,
            "velocity": 0.4881889763779528
          },
          {
            "duration": 0.2727270000000033,
            "durationTicks": 192,
            "midi": 52,
            "name": "E3",
            "ticks": 45696,
            "time": 64.909026,
            "velocity": 0.4881889763779528
          },
          {
            "duration": 0.2727270000000033,
            "durationTicks": 192,
            "midi": 52,
            "name": "E3",
            "ticks": 45696,
            "time": 64.909026,
            "velocity": 0.4881889763779528
          },
          {
            "duration": 0.2727270000000033,
            "durationTicks": 192,
            "midi": 52,
            "name": "E3",
            "ticks": 45696,
            "time": 64.909026,
            "velocity": 0.4881889763779528
          },
          {
            "duration": 0.2727270000000033,
            "durationTicks": 192,
            "midi": 64,
            "name": "E4",
            "ticks": 45696,
            "time": 64.909026,
            "velocity": 0.4881889763779528
          },
          {
            "duration": 0.2727270000000033,
            "durationTicks": 192,
            "midi": 52,
            "name": "E3",
            "ticks": 45696,
            "time": 64.909026,
            "velocity": 0.4881889763779528
          },
          {
            "duration": 0.2727270000000033,
            "durationTicks": 192,
            "midi": 64,
            "name": "E4",
            "ticks": 45696,
            "time": 64.909026,
            "velocity": 0.4881889763779528
          },
          {
            "duration": 0.2727270000000033,
            "durationTicks": 192,
            "midi": 64,
            "name": "E4",
            "ticks": 45696,
            "time": 64.909026,
            "velocity": 0.4881889763779528
          },
          {
            "duration": 0.5454540000000065,
            "durationTicks": 384,
            "midi": 85,
            "name": "C#6",
            "ticks": 45696,
            "time": 64.909026,
            "velocity": 0.4881889763779528
          },
          {
            "duration": 0.5454540000000065,
            "durationTicks": 384,
            "midi": 85,
            "name": "C#6",
            "ticks": 45696,
            "time": 64.909026,
            "velocity": 0.4881889763779528
          },
          {
            "duration": 0.5454540000000065,
            "durationTicks": 384,
            "midi": 97,
            "name": "C#7",
            "ticks": 45696,
            "time": 64.909026,
            "velocity": 0.4881889763779528
          },
          {
            "duration": 0.5454540000000065,
            "durationTicks": 384,
            "midi": 97,
            "name": "C#7",
            "ticks": 45696,
            "time": 64.909026,
            "velocity": 0.4881889763779528
          },
          {
            "duration": 0.5454540000000065,
            "durationTicks": 384,
            "midi": 97,
            "name": "C#7",
            "ticks": 45696,
            "time": 64.909026,
            "velocity": 0.4881889763779528
          },
          {
            "duration": 0.2727270000000033,
            "durationTicks": 192,
            "midi": 64,
            "name": "E4",
            "ticks": 45696,
            "time": 64.909026,
            "velocity": 0.4881889763779528
          },
          {
            "duration": 0.2727270000000033,
            "durationTicks": 192,
            "midi": 52,
            "name": "E3",
            "ticks": 45696,
            "time": 64.909026,
            "velocity": 0.4881889763779528
          },
          {
            "duration": 0.5454540000000065,
            "durationTicks": 384,
            "midi": 85,
            "name": "C#6",
            "ticks": 45696,
            "time": 64.909026,
            "velocity": 0.4881889763779528
          },
          {
            "duration": 0.5454540000000065,
            "durationTicks": 384,
            "midi": 85,
            "name": "C#6",
            "ticks": 45696,
            "time": 64.909026,
            "velocity": 0.4881889763779528
          },
          {
            "duration": 0.5454540000000065,
            "durationTicks": 384,
            "midi": 97,
            "name": "C#7",
            "ticks": 45696,
            "time": 64.909026,
            "velocity": 0.4881889763779528
          },
          {
            "duration": 0.2727270000000033,
            "durationTicks": 192,
            "midi": 52,
            "name": "E3",
            "ticks": 45696,
            "time": 64.909026,
            "velocity": 0.4881889763779528
          },
          {
            "duration": 0.5454540000000065,
            "durationTicks": 384,
            "midi": 85,
            "name": "C#6",
            "ticks": 45696,
            "time": 64.909026,
            "velocity": 0.4881889763779528
          },
          {
            "duration": 0.2727270000000033,
            "durationTicks": 192,
            "midi": 64,
            "name": "E4",
            "ticks": 45696,
            "time": 64.909026,
            "velocity": 0.4881889763779528
          },
          {
            "duration": 0.5454540000000065,
            "durationTicks": 384,
            "midi": 85,
            "name": "C#6",
            "ticks": 45696,
            "time": 64.909026,
            "velocity": 0.4881889763779528
          },
          {
            "duration": 0.5454540000000065,
            "durationTicks": 384,
            "midi": 97,
            "name": "C#7",
            "ticks": 45696,
            "time": 64.909026,
            "velocity": 0.4881889763779528
          },
          {
            "duration": 0.2727270000000033,
            "durationTicks": 192,
            "midi": 73,
            "name": "C#5",
            "ticks": 45888,
            "time": 65.181753,
            "velocity": 0.4881889763779528
          },
          {
            "duration": 0.2727270000000033,
            "durationTicks": 192,
            "midi": 54,
            "name": "F#3",
            "ticks": 45888,
            "time": 65.181753,
            "velocity": 0.4881889763779528
          },
          {
            "duration": 0.2727270000000033,
            "durationTicks": 192,
            "midi": 42,
            "name": "F#2",
            "ticks": 45888,
            "time": 65.181753,
            "velocity": 0.4881889763779528
          },
          {
            "duration": 0.2727270000000033,
            "durationTicks": 192,
            "midi": 54,
            "name": "F#3",
            "ticks": 45888,
            "time": 65.181753,
            "velocity": 0.4881889763779528
          },
          {
            "duration": 0.2727270000000033,
            "durationTicks": 192,
            "midi": 73,
            "name": "C#5",
            "ticks": 45888,
            "time": 65.181753,
            "velocity": 0.4881889763779528
          },
          {
            "duration": 0.2727270000000033,
            "durationTicks": 192,
            "midi": 54,
            "name": "F#3",
            "ticks": 45888,
            "time": 65.181753,
            "velocity": 0.4881889763779528
          },
          {
            "duration": 0.2727270000000033,
            "durationTicks": 192,
            "midi": 73,
            "name": "C#5",
            "ticks": 45888,
            "time": 65.181753,
            "velocity": 0.4881889763779528
          },
          {
            "duration": 0.2727270000000033,
            "durationTicks": 192,
            "midi": 85,
            "name": "C#6",
            "ticks": 45888,
            "time": 65.181753,
            "velocity": 0.4881889763779528
          },
          {
            "duration": 0.2727270000000033,
            "durationTicks": 192,
            "midi": 54,
            "name": "F#3",
            "ticks": 45888,
            "time": 65.181753,
            "velocity": 0.4881889763779528
          },
          {
            "duration": 0.2727270000000033,
            "durationTicks": 192,
            "midi": 54,
            "name": "F#3",
            "ticks": 45888,
            "time": 65.181753,
            "velocity": 0.4881889763779528
          },
          {
            "duration": 0.2727270000000033,
            "durationTicks": 192,
            "midi": 85,
            "name": "C#6",
            "ticks": 45888,
            "time": 65.181753,
            "velocity": 0.4881889763779528
          },
          {
            "duration": 0.2727270000000033,
            "durationTicks": 192,
            "midi": 42,
            "name": "F#2",
            "ticks": 45888,
            "time": 65.181753,
            "velocity": 0.4881889763779528
          },
          {
            "duration": 0.2727270000000033,
            "durationTicks": 192,
            "midi": 54,
            "name": "F#3",
            "ticks": 45888,
            "time": 65.181753,
            "velocity": 0.4881889763779528
          },
          {
            "duration": 0.2727270000000033,
            "durationTicks": 192,
            "midi": 42,
            "name": "F#2",
            "ticks": 45888,
            "time": 65.181753,
            "velocity": 0.4881889763779528
          },
          {
            "duration": 0.2727270000000033,
            "durationTicks": 192,
            "midi": 73,
            "name": "C#5",
            "ticks": 45888,
            "time": 65.181753,
            "velocity": 0.4881889763779528
          },
          {
            "duration": 0.2727270000000033,
            "durationTicks": 192,
            "midi": 85,
            "name": "C#6",
            "ticks": 45888,
            "time": 65.181753,
            "velocity": 0.4881889763779528
          },
          {
            "duration": 0.2727270000000033,
            "durationTicks": 192,
            "midi": 42,
            "name": "F#2",
            "ticks": 45888,
            "time": 65.181753,
            "velocity": 0.4881889763779528
          },
          {
            "duration": 0.2727270000000033,
            "durationTicks": 192,
            "midi": 85,
            "name": "C#6",
            "ticks": 45888,
            "time": 65.181753,
            "velocity": 0.4881889763779528
          },
          {
            "duration": 0.2727270000000033,
            "durationTicks": 192,
            "midi": 42,
            "name": "F#2",
            "ticks": 45888,
            "time": 65.181753,
            "velocity": 0.4881889763779528
          },
          {
            "duration": 0.2727270000000033,
            "durationTicks": 192,
            "midi": 85,
            "name": "C#6",
            "ticks": 45888,
            "time": 65.181753,
            "velocity": 0.4881889763779528
          },
          {
            "duration": 0.2727270000000033,
            "durationTicks": 192,
            "midi": 42,
            "name": "F#2",
            "ticks": 45888,
            "time": 65.181753,
            "velocity": 0.4881889763779528
          },
          {
            "duration": 0.2727270000000033,
            "durationTicks": 192,
            "midi": 85,
            "name": "C#6",
            "ticks": 45888,
            "time": 65.181753,
            "velocity": 0.4881889763779528
          },
          {
            "duration": 0.2727270000000033,
            "durationTicks": 192,
            "midi": 73,
            "name": "C#5",
            "ticks": 45888,
            "time": 65.181753,
            "velocity": 0.4881889763779528
          },
          {
            "duration": 0.2727270000000033,
            "durationTicks": 192,
            "midi": 73,
            "name": "C#5",
            "ticks": 45888,
            "time": 65.181753,
            "velocity": 0.4881889763779528
          },
          {
            "duration": 1.0909079999999989,
            "durationTicks": 768,
            "midi": 88,
            "name": "E6",
            "ticks": 46080,
            "time": 65.45448,
            "velocity": 0.4881889763779528
          },
          {
            "duration": 1.0909079999999989,
            "durationTicks": 768,
            "midi": 88,
            "name": "E6",
            "ticks": 46080,
            "time": 65.45448,
            "velocity": 0.4881889763779528
          },
          {
            "duration": 0.13636350000000164,
            "durationTicks": 96,
            "midi": 40,
            "name": "E2",
            "ticks": 46080,
            "time": 65.45448,
            "velocity": 0.4881889763779528
          },
          {
            "duration": 1.0909079999999989,
            "durationTicks": 768,
            "midi": 100,
            "name": "E7",
            "ticks": 46080,
            "time": 65.45448,
            "velocity": 0.4881889763779528
          },
          {
            "duration": 1.0909079999999989,
            "durationTicks": 768,
            "midi": 100,
            "name": "E7",
            "ticks": 46080,
            "time": 65.45448,
            "velocity": 0.4881889763779528
          },
          {
            "duration": 1.0909079999999989,
            "durationTicks": 768,
            "midi": 92,
            "name": "G#6",
            "ticks": 46080,
            "time": 65.45448,
            "velocity": 0.4881889763779528
          },
          {
            "duration": 1.0909079999999989,
            "durationTicks": 768,
            "midi": 95,
            "name": "B6",
            "ticks": 46080,
            "time": 65.45448,
            "velocity": 0.4881889763779528
          },
          {
            "duration": 1.0909079999999989,
            "durationTicks": 768,
            "midi": 88,
            "name": "E6",
            "ticks": 46080,
            "time": 65.45448,
            "velocity": 0.4881889763779528
          },
          {
            "duration": 1.0909079999999989,
            "durationTicks": 768,
            "midi": 92,
            "name": "G#6",
            "ticks": 46080,
            "time": 65.45448,
            "velocity": 0.4881889763779528
          },
          {
            "duration": 1.0909079999999989,
            "durationTicks": 768,
            "midi": 92,
            "name": "G#6",
            "ticks": 46080,
            "time": 65.45448,
            "velocity": 0.4881889763779528
          },
          {
            "duration": 1.0909079999999989,
            "durationTicks": 768,
            "midi": 88,
            "name": "E6",
            "ticks": 46080,
            "time": 65.45448,
            "velocity": 0.4881889763779528
          },
          {
            "duration": 1.0909079999999989,
            "durationTicks": 768,
            "midi": 100,
            "name": "E7",
            "ticks": 46080,
            "time": 65.45448,
            "velocity": 0.4881889763779528
          },
          {
            "duration": 0.13636350000000164,
            "durationTicks": 96,
            "midi": 52,
            "name": "E3",
            "ticks": 46080,
            "time": 65.45448,
            "velocity": 0.4881889763779528
          },
          {
            "duration": 0.13636350000000164,
            "durationTicks": 96,
            "midi": 40,
            "name": "E2",
            "ticks": 46080,
            "time": 65.45448,
            "velocity": 0.4881889763779528
          },
          {
            "duration": 1.0909079999999989,
            "durationTicks": 768,
            "midi": 95,
            "name": "B6",
            "ticks": 46080,
            "time": 65.45448,
            "velocity": 0.4881889763779528
          },
          {
            "duration": 1.0909079999999989,
            "durationTicks": 768,
            "midi": 100,
            "name": "E7",
            "ticks": 46080,
            "time": 65.45448,
            "velocity": 0.4881889763779528
          },
          {
            "duration": 0.13636350000000164,
            "durationTicks": 96,
            "midi": 40,
            "name": "E2",
            "ticks": 46080,
            "time": 65.45448,
            "velocity": 0.4881889763779528
          },
          {
            "duration": 0.13636350000000164,
            "durationTicks": 96,
            "midi": 52,
            "name": "E3",
            "ticks": 46080,
            "time": 65.45448,
            "velocity": 0.4881889763779528
          },
          {
            "duration": 1.0909079999999989,
            "durationTicks": 768,
            "midi": 88,
            "name": "E6",
            "ticks": 46080,
            "time": 65.45448,
            "velocity": 0.4881889763779528
          },
          {
            "duration": 1.0909079999999989,
            "durationTicks": 768,
            "midi": 92,
            "name": "G#6",
            "ticks": 46080,
            "time": 65.45448,
            "velocity": 0.4881889763779528
          },
          {
            "duration": 0.13636350000000164,
            "durationTicks": 96,
            "midi": 40,
            "name": "E2",
            "ticks": 46080,
            "time": 65.45448,
            "velocity": 0.4881889763779528
          },
          {
            "duration": 1.0909079999999989,
            "durationTicks": 768,
            "midi": 95,
            "name": "B6",
            "ticks": 46080,
            "time": 65.45448,
            "velocity": 0.4881889763779528
          },
          {
            "duration": 1.0909079999999989,
            "durationTicks": 768,
            "midi": 92,
            "name": "G#6",
            "ticks": 46080,
            "time": 65.45448,
            "velocity": 0.4881889763779528
          },
          {
            "duration": 1.0909079999999989,
            "durationTicks": 768,
            "midi": 95,
            "name": "B6",
            "ticks": 46080,
            "time": 65.45448,
            "velocity": 0.4881889763779528
          },
          {
            "duration": 0.13636350000000164,
            "durationTicks": 96,
            "midi": 40,
            "name": "E2",
            "ticks": 46080,
            "time": 65.45448,
            "velocity": 0.4881889763779528
          },
          {
            "duration": 1.0909079999999989,
            "durationTicks": 768,
            "midi": 100,
            "name": "E7",
            "ticks": 46080,
            "time": 65.45448,
            "velocity": 0.4881889763779528
          },
          {
            "duration": 1.0909079999999989,
            "durationTicks": 768,
            "midi": 100,
            "name": "E7",
            "ticks": 46080,
            "time": 65.45448,
            "velocity": 0.4881889763779528
          },
          {
            "duration": 0.13636350000000164,
            "durationTicks": 96,
            "midi": 52,
            "name": "E3",
            "ticks": 46080,
            "time": 65.45448,
            "velocity": 0.4881889763779528
          },
          {
            "duration": 0.13636350000000164,
            "durationTicks": 96,
            "midi": 52,
            "name": "E3",
            "ticks": 46080,
            "time": 65.45448,
            "velocity": 0.4881889763779528
          },
          {
            "duration": 1.0909079999999989,
            "durationTicks": 768,
            "midi": 92,
            "name": "G#6",
            "ticks": 46080,
            "time": 65.45448,
            "velocity": 0.4881889763779528
          },
          {
            "duration": 1.0909079999999989,
            "durationTicks": 768,
            "midi": 95,
            "name": "B6",
            "ticks": 46080,
            "time": 65.45448,
            "velocity": 0.4881889763779528
          },
          {
            "duration": 1.0909079999999989,
            "durationTicks": 768,
            "midi": 88,
            "name": "E6",
            "ticks": 46080,
            "time": 65.45448,
            "velocity": 0.4881889763779528
          },
          {
            "duration": 1.0909079999999989,
            "durationTicks": 768,
            "midi": 95,
            "name": "B6",
            "ticks": 46080,
            "time": 65.45448,
            "velocity": 0.4881889763779528
          },
          {
            "duration": 0.13636350000000164,
            "durationTicks": 96,
            "midi": 52,
            "name": "E3",
            "ticks": 46080,
            "time": 65.45448,
            "velocity": 0.4881889763779528
          },
          {
            "duration": 0.13636350000000164,
            "durationTicks": 96,
            "midi": 40,
            "name": "E2",
            "ticks": 46080,
            "time": 65.45448,
            "velocity": 0.4881889763779528
          },
          {
            "duration": 0.13636350000000164,
            "durationTicks": 96,
            "midi": 52,
            "name": "E3",
            "ticks": 46080,
            "time": 65.45448,
            "velocity": 0.4881889763779528
          },
          {
            "duration": 0.13636349999998743,
            "durationTicks": 96,
            "midi": 52,
            "name": "E3",
            "ticks": 46176,
            "time": 65.5908435,
            "velocity": 0.4881889763779528
          },
          {
            "duration": 0.13636349999998743,
            "durationTicks": 96,
            "midi": 52,
            "name": "E3",
            "ticks": 46176,
            "time": 65.5908435,
            "velocity": 0.4881889763779528
          },
          {
            "duration": 0.13636349999998743,
            "durationTicks": 96,
            "midi": 40,
            "name": "E2",
            "ticks": 46176,
            "time": 65.5908435,
            "velocity": 0.4881889763779528
          },
          {
            "duration": 0.13636349999998743,
            "durationTicks": 96,
            "midi": 52,
            "name": "E3",
            "ticks": 46176,
            "time": 65.5908435,
            "velocity": 0.4881889763779528
          },
          {
            "duration": 0.13636349999998743,
            "durationTicks": 96,
            "midi": 52,
            "name": "E3",
            "ticks": 46176,
            "time": 65.5908435,
            "velocity": 0.4881889763779528
          },
          {
            "duration": 0.13636349999998743,
            "durationTicks": 96,
            "midi": 40,
            "name": "E2",
            "ticks": 46176,
            "time": 65.5908435,
            "velocity": 0.4881889763779528
          },
          {
            "duration": 0.13636349999998743,
            "durationTicks": 96,
            "midi": 52,
            "name": "E3",
            "ticks": 46176,
            "time": 65.5908435,
            "velocity": 0.4881889763779528
          },
          {
            "duration": 0.13636349999998743,
            "durationTicks": 96,
            "midi": 40,
            "name": "E2",
            "ticks": 46176,
            "time": 65.5908435,
            "velocity": 0.4881889763779528
          },
          {
            "duration": 0.13636349999998743,
            "durationTicks": 96,
            "midi": 40,
            "name": "E2",
            "ticks": 46176,
            "time": 65.5908435,
            "velocity": 0.4881889763779528
          },
          {
            "duration": 0.13636349999998743,
            "durationTicks": 96,
            "midi": 40,
            "name": "E2",
            "ticks": 46176,
            "time": 65.5908435,
            "velocity": 0.4881889763779528
          },
          {
            "duration": 0.13636349999998743,
            "durationTicks": 96,
            "midi": 40,
            "name": "E2",
            "ticks": 46176,
            "time": 65.5908435,
            "velocity": 0.4881889763779528
          },
          {
            "duration": 0.13636349999998743,
            "durationTicks": 96,
            "midi": 52,
            "name": "E3",
            "ticks": 46176,
            "time": 65.5908435,
            "velocity": 0.4881889763779528
          },
          {
            "duration": 0.2727270000000033,
            "durationTicks": 192,
            "midi": 40,
            "name": "E2",
            "ticks": 46272,
            "time": 65.72720699999999,
            "velocity": 0.4881889763779528
          },
          {
            "duration": 0.2727270000000033,
            "durationTicks": 192,
            "midi": 40,
            "name": "E2",
            "ticks": 46272,
            "time": 65.72720699999999,
            "velocity": 0.4881889763779528
          },
          {
            "duration": 0.2727270000000033,
            "durationTicks": 192,
            "midi": 52,
            "name": "E3",
            "ticks": 46272,
            "time": 65.72720699999999,
            "velocity": 0.4881889763779528
          },
          {
            "duration": 0.2727270000000033,
            "durationTicks": 192,
            "midi": 40,
            "name": "E2",
            "ticks": 46272,
            "time": 65.72720699999999,
            "velocity": 0.4881889763779528
          },
          {
            "duration": 0.2727270000000033,
            "durationTicks": 192,
            "midi": 52,
            "name": "E3",
            "ticks": 46272,
            "time": 65.72720699999999,
            "velocity": 0.4881889763779528
          },
          {
            "duration": 0.2727270000000033,
            "durationTicks": 192,
            "midi": 52,
            "name": "E3",
            "ticks": 46272,
            "time": 65.72720699999999,
            "velocity": 0.4881889763779528
          },
          {
            "duration": 0.2727270000000033,
            "durationTicks": 192,
            "midi": 52,
            "name": "E3",
            "ticks": 46272,
            "time": 65.72720699999999,
            "velocity": 0.4881889763779528
          },
          {
            "duration": 0.2727270000000033,
            "durationTicks": 192,
            "midi": 52,
            "name": "E3",
            "ticks": 46272,
            "time": 65.72720699999999,
            "velocity": 0.4881889763779528
          },
          {
            "duration": 0.2727270000000033,
            "durationTicks": 192,
            "midi": 40,
            "name": "E2",
            "ticks": 46272,
            "time": 65.72720699999999,
            "velocity": 0.4881889763779528
          },
          {
            "duration": 0.2727270000000033,
            "durationTicks": 192,
            "midi": 40,
            "name": "E2",
            "ticks": 46272,
            "time": 65.72720699999999,
            "velocity": 0.4881889763779528
          },
          {
            "duration": 0.2727270000000033,
            "durationTicks": 192,
            "midi": 52,
            "name": "E3",
            "ticks": 46272,
            "time": 65.72720699999999,
            "velocity": 0.4881889763779528
          },
          {
            "duration": 0.2727270000000033,
            "durationTicks": 192,
            "midi": 40,
            "name": "E2",
            "ticks": 46272,
            "time": 65.72720699999999,
            "velocity": 0.4881889763779528
          },
          {
            "duration": 0.13636350000000164,
            "durationTicks": 96,
            "midi": 52,
            "name": "E3",
            "ticks": 46464,
            "time": 65.999934,
            "velocity": 0.4881889763779528
          },
          {
            "duration": 0.13636350000000164,
            "durationTicks": 96,
            "midi": 40,
            "name": "E2",
            "ticks": 46464,
            "time": 65.999934,
            "velocity": 0.4881889763779528
          },
          {
            "duration": 0.13636350000000164,
            "durationTicks": 96,
            "midi": 52,
            "name": "E3",
            "ticks": 46464,
            "time": 65.999934,
            "velocity": 0.4881889763779528
          },
          {
            "duration": 0.13636350000000164,
            "durationTicks": 96,
            "midi": 40,
            "name": "E2",
            "ticks": 46464,
            "time": 65.999934,
            "velocity": 0.4881889763779528
          },
          {
            "duration": 0.13636350000000164,
            "durationTicks": 96,
            "midi": 40,
            "name": "E2",
            "ticks": 46464,
            "time": 65.999934,
            "velocity": 0.4881889763779528
          },
          {
            "duration": 0.13636350000000164,
            "durationTicks": 96,
            "midi": 40,
            "name": "E2",
            "ticks": 46464,
            "time": 65.999934,
            "velocity": 0.4881889763779528
          },
          {
            "duration": 0.13636350000000164,
            "durationTicks": 96,
            "midi": 52,
            "name": "E3",
            "ticks": 46464,
            "time": 65.999934,
            "velocity": 0.4881889763779528
          },
          {
            "duration": 0.13636350000000164,
            "durationTicks": 96,
            "midi": 52,
            "name": "E3",
            "ticks": 46464,
            "time": 65.999934,
            "velocity": 0.4881889763779528
          },
          {
            "duration": 0.13636350000000164,
            "durationTicks": 96,
            "midi": 52,
            "name": "E3",
            "ticks": 46464,
            "time": 65.999934,
            "velocity": 0.4881889763779528
          },
          {
            "duration": 0.13636350000000164,
            "durationTicks": 96,
            "midi": 40,
            "name": "E2",
            "ticks": 46464,
            "time": 65.999934,
            "velocity": 0.4881889763779528
          },
          {
            "duration": 0.13636350000000164,
            "durationTicks": 96,
            "midi": 40,
            "name": "E2",
            "ticks": 46464,
            "time": 65.999934,
            "velocity": 0.4881889763779528
          },
          {
            "duration": 0.13636350000000164,
            "durationTicks": 96,
            "midi": 52,
            "name": "E3",
            "ticks": 46464,
            "time": 65.999934,
            "velocity": 0.4881889763779528
          },
          {
            "duration": 0.13636350000000164,
            "durationTicks": 96,
            "midi": 40,
            "name": "E2",
            "ticks": 46560,
            "time": 66.1362975,
            "velocity": 0.4881889763779528
          },
          {
            "duration": 0.13636350000000164,
            "durationTicks": 96,
            "midi": 52,
            "name": "E3",
            "ticks": 46560,
            "time": 66.1362975,
            "velocity": 0.4881889763779528
          },
          {
            "duration": 0.13636350000000164,
            "durationTicks": 96,
            "midi": 52,
            "name": "E3",
            "ticks": 46560,
            "time": 66.1362975,
            "velocity": 0.4881889763779528
          },
          {
            "duration": 0.13636350000000164,
            "durationTicks": 96,
            "midi": 52,
            "name": "E3",
            "ticks": 46560,
            "time": 66.1362975,
            "velocity": 0.4881889763779528
          },
          {
            "duration": 0.13636350000000164,
            "durationTicks": 96,
            "midi": 52,
            "name": "E3",
            "ticks": 46560,
            "time": 66.1362975,
            "velocity": 0.4881889763779528
          },
          {
            "duration": 0.13636350000000164,
            "durationTicks": 96,
            "midi": 52,
            "name": "E3",
            "ticks": 46560,
            "time": 66.1362975,
            "velocity": 0.4881889763779528
          },
          {
            "duration": 0.13636350000000164,
            "durationTicks": 96,
            "midi": 40,
            "name": "E2",
            "ticks": 46560,
            "time": 66.1362975,
            "velocity": 0.4881889763779528
          },
          {
            "duration": 0.13636350000000164,
            "durationTicks": 96,
            "midi": 40,
            "name": "E2",
            "ticks": 46560,
            "time": 66.1362975,
            "velocity": 0.4881889763779528
          },
          {
            "duration": 0.13636350000000164,
            "durationTicks": 96,
            "midi": 40,
            "name": "E2",
            "ticks": 46560,
            "time": 66.1362975,
            "velocity": 0.4881889763779528
          },
          {
            "duration": 0.13636350000000164,
            "durationTicks": 96,
            "midi": 40,
            "name": "E2",
            "ticks": 46560,
            "time": 66.1362975,
            "velocity": 0.4881889763779528
          },
          {
            "duration": 0.13636350000000164,
            "durationTicks": 96,
            "midi": 40,
            "name": "E2",
            "ticks": 46560,
            "time": 66.1362975,
            "velocity": 0.4881889763779528
          },
          {
            "duration": 0.13636350000000164,
            "durationTicks": 96,
            "midi": 52,
            "name": "E3",
            "ticks": 46560,
            "time": 66.1362975,
            "velocity": 0.4881889763779528
          },
          {
            "duration": 0.2727270000000033,
            "durationTicks": 192,
            "midi": 52,
            "name": "E3",
            "ticks": 46656,
            "time": 66.272661,
            "velocity": 0.4881889763779528
          },
          {
            "duration": 0.2727270000000033,
            "durationTicks": 192,
            "midi": 52,
            "name": "E3",
            "ticks": 46656,
            "time": 66.272661,
            "velocity": 0.4881889763779528
          },
          {
            "duration": 0.2727270000000033,
            "durationTicks": 192,
            "midi": 40,
            "name": "E2",
            "ticks": 46656,
            "time": 66.272661,
            "velocity": 0.4881889763779528
          },
          {
            "duration": 0.2727270000000033,
            "durationTicks": 192,
            "midi": 52,
            "name": "E3",
            "ticks": 46656,
            "time": 66.272661,
            "velocity": 0.4881889763779528
          },
          {
            "duration": 0.2727270000000033,
            "durationTicks": 192,
            "midi": 40,
            "name": "E2",
            "ticks": 46656,
            "time": 66.272661,
            "velocity": 0.4881889763779528
          },
          {
            "duration": 0.2727270000000033,
            "durationTicks": 192,
            "midi": 52,
            "name": "E3",
            "ticks": 46656,
            "time": 66.272661,
            "velocity": 0.4881889763779528
          },
          {
            "duration": 0.2727270000000033,
            "durationTicks": 192,
            "midi": 40,
            "name": "E2",
            "ticks": 46656,
            "time": 66.272661,
            "velocity": 0.4881889763779528
          },
          {
            "duration": 0.2727270000000033,
            "durationTicks": 192,
            "midi": 52,
            "name": "E3",
            "ticks": 46656,
            "time": 66.272661,
            "velocity": 0.4881889763779528
          },
          {
            "duration": 0.2727270000000033,
            "durationTicks": 192,
            "midi": 52,
            "name": "E3",
            "ticks": 46656,
            "time": 66.272661,
            "velocity": 0.4881889763779528
          },
          {
            "duration": 0.2727270000000033,
            "durationTicks": 192,
            "midi": 40,
            "name": "E2",
            "ticks": 46656,
            "time": 66.272661,
            "velocity": 0.4881889763779528
          },
          {
            "duration": 0.2727270000000033,
            "durationTicks": 192,
            "midi": 40,
            "name": "E2",
            "ticks": 46656,
            "time": 66.272661,
            "velocity": 0.4881889763779528
          },
          {
            "duration": 0.2727270000000033,
            "durationTicks": 192,
            "midi": 40,
            "name": "E2",
            "ticks": 46656,
            "time": 66.272661,
            "velocity": 0.4881889763779528
          },
          {
            "duration": 0.5454539999999923,
            "durationTicks": 384,
            "midi": 87,
            "name": "D#6",
            "ticks": 46848,
            "time": 66.545388,
            "velocity": 0.4881889763779528
          },
          {
            "duration": 0.5454539999999923,
            "durationTicks": 384,
            "midi": 99,
            "name": "D#7",
            "ticks": 46848,
            "time": 66.545388,
            "velocity": 0.4881889763779528
          },
          {
            "duration": 0.13636350000000164,
            "durationTicks": 96,
            "midi": 40,
            "name": "E2",
            "ticks": 46848,
            "time": 66.545388,
            "velocity": 0.4881889763779528
          },
          {
            "duration": 0.13636350000000164,
            "durationTicks": 96,
            "midi": 40,
            "name": "E2",
            "ticks": 46848,
            "time": 66.545388,
            "velocity": 0.4881889763779528
          },
          {
            "duration": 0.13636350000000164,
            "durationTicks": 96,
            "midi": 52,
            "name": "E3",
            "ticks": 46848,
            "time": 66.545388,
            "velocity": 0.4881889763779528
          },
          {
            "duration": 0.13636350000000164,
            "durationTicks": 96,
            "midi": 40,
            "name": "E2",
            "ticks": 46848,
            "time": 66.545388,
            "velocity": 0.4881889763779528
          },
          {
            "duration": 0.13636350000000164,
            "durationTicks": 96,
            "midi": 40,
            "name": "E2",
            "ticks": 46848,
            "time": 66.545388,
            "velocity": 0.4881889763779528
          },
          {
            "duration": 0.5454539999999923,
            "durationTicks": 384,
            "midi": 87,
            "name": "D#6",
            "ticks": 46848,
            "time": 66.545388,
            "velocity": 0.4881889763779528
          },
          {
            "duration": 0.5454539999999923,
            "durationTicks": 384,
            "midi": 99,
            "name": "D#7",
            "ticks": 46848,
            "time": 66.545388,
            "velocity": 0.4881889763779528
          },
          {
            "duration": 0.5454539999999923,
            "durationTicks": 384,
            "midi": 87,
            "name": "D#6",
            "ticks": 46848,
            "time": 66.545388,
            "velocity": 0.4881889763779528
          },
          {
            "duration": 0.5454539999999923,
            "durationTicks": 384,
            "midi": 87,
            "name": "D#6",
            "ticks": 46848,
            "time": 66.545388,
            "velocity": 0.4881889763779528
          },
          {
            "duration": 0.5454539999999923,
            "durationTicks": 384,
            "midi": 99,
            "name": "D#7",
            "ticks": 46848,
            "time": 66.545388,
            "velocity": 0.4881889763779528
          },
          {
            "duration": 0.5454539999999923,
            "durationTicks": 384,
            "midi": 87,
            "name": "D#6",
            "ticks": 46848,
            "time": 66.545388,
            "velocity": 0.4881889763779528
          },
          {
            "duration": 0.13636350000000164,
            "durationTicks": 96,
            "midi": 52,
            "name": "E3",
            "ticks": 46848,
            "time": 66.545388,
            "velocity": 0.4881889763779528
          },
          {
            "duration": 0.13636350000000164,
            "durationTicks": 96,
            "midi": 52,
            "name": "E3",
            "ticks": 46848,
            "time": 66.545388,
            "velocity": 0.4881889763779528
          },
          {
            "duration": 0.5454539999999923,
            "durationTicks": 384,
            "midi": 87,
            "name": "D#6",
            "ticks": 46848,
            "time": 66.545388,
            "velocity": 0.4881889763779528
          },
          {
            "duration": 0.13636350000000164,
            "durationTicks": 96,
            "midi": 40,
            "name": "E2",
            "ticks": 46848,
            "time": 66.545388,
            "velocity": 0.4881889763779528
          },
          {
            "duration": 0.5454539999999923,
            "durationTicks": 384,
            "midi": 99,
            "name": "D#7",
            "ticks": 46848,
            "time": 66.545388,
            "velocity": 0.4881889763779528
          },
          {
            "duration": 0.13636350000000164,
            "durationTicks": 96,
            "midi": 52,
            "name": "E3",
            "ticks": 46848,
            "time": 66.545388,
            "velocity": 0.4881889763779528
          },
          {
            "duration": 0.5454539999999923,
            "durationTicks": 384,
            "midi": 99,
            "name": "D#7",
            "ticks": 46848,
            "time": 66.545388,
            "velocity": 0.4881889763779528
          },
          {
            "duration": 0.5454539999999923,
            "durationTicks": 384,
            "midi": 99,
            "name": "D#7",
            "ticks": 46848,
            "time": 66.545388,
            "velocity": 0.4881889763779528
          },
          {
            "duration": 0.13636350000000164,
            "durationTicks": 96,
            "midi": 52,
            "name": "E3",
            "ticks": 46848,
            "time": 66.545388,
            "velocity": 0.4881889763779528
          },
          {
            "duration": 0.13636350000000164,
            "durationTicks": 96,
            "midi": 40,
            "name": "E2",
            "ticks": 46848,
            "time": 66.545388,
            "velocity": 0.4881889763779528
          },
          {
            "duration": 0.13636350000000164,
            "durationTicks": 96,
            "midi": 52,
            "name": "E3",
            "ticks": 46848,
            "time": 66.545388,
            "velocity": 0.4881889763779528
          },
          {
            "duration": 0.13636350000000164,
            "durationTicks": 96,
            "midi": 44,
            "name": "G#2",
            "ticks": 46944,
            "time": 66.6817515,
            "velocity": 0.4881889763779528
          },
          {
            "duration": 0.13636350000000164,
            "durationTicks": 96,
            "midi": 56,
            "name": "G#3",
            "ticks": 46944,
            "time": 66.6817515,
            "velocity": 0.4881889763779528
          },
          {
            "duration": 0.13636350000000164,
            "durationTicks": 96,
            "midi": 44,
            "name": "G#2",
            "ticks": 46944,
            "time": 66.6817515,
            "velocity": 0.4881889763779528
          },
          {
            "duration": 0.13636350000000164,
            "durationTicks": 96,
            "midi": 56,
            "name": "G#3",
            "ticks": 46944,
            "time": 66.6817515,
            "velocity": 0.4881889763779528
          },
          {
            "duration": 0.13636350000000164,
            "durationTicks": 96,
            "midi": 44,
            "name": "G#2",
            "ticks": 46944,
            "time": 66.6817515,
            "velocity": 0.4881889763779528
          },
          {
            "duration": 0.13636350000000164,
            "durationTicks": 96,
            "midi": 44,
            "name": "G#2",
            "ticks": 46944,
            "time": 66.6817515,
            "velocity": 0.4881889763779528
          },
          {
            "duration": 0.13636350000000164,
            "durationTicks": 96,
            "midi": 56,
            "name": "G#3",
            "ticks": 46944,
            "time": 66.6817515,
            "velocity": 0.4881889763779528
          },
          {
            "duration": 0.13636350000000164,
            "durationTicks": 96,
            "midi": 56,
            "name": "G#3",
            "ticks": 46944,
            "time": 66.6817515,
            "velocity": 0.4881889763779528
          },
          {
            "duration": 0.13636350000000164,
            "durationTicks": 96,
            "midi": 44,
            "name": "G#2",
            "ticks": 46944,
            "time": 66.6817515,
            "velocity": 0.4881889763779528
          },
          {
            "duration": 0.13636350000000164,
            "durationTicks": 96,
            "midi": 44,
            "name": "G#2",
            "ticks": 46944,
            "time": 66.6817515,
            "velocity": 0.4881889763779528
          },
          {
            "duration": 0.13636350000000164,
            "durationTicks": 96,
            "midi": 56,
            "name": "G#3",
            "ticks": 46944,
            "time": 66.6817515,
            "velocity": 0.4881889763779528
          },
          {
            "duration": 0.13636350000000164,
            "durationTicks": 96,
            "midi": 56,
            "name": "G#3",
            "ticks": 46944,
            "time": 66.6817515,
            "velocity": 0.4881889763779528
          },
          {
            "duration": 0.27272699999998906,
            "durationTicks": 192,
            "midi": 44,
            "name": "G#2",
            "ticks": 47040,
            "time": 66.818115,
            "velocity": 0.4881889763779528
          },
          {
            "duration": 0.27272699999998906,
            "durationTicks": 192,
            "midi": 44,
            "name": "G#2",
            "ticks": 47040,
            "time": 66.818115,
            "velocity": 0.4881889763779528
          },
          {
            "duration": 0.27272699999998906,
            "durationTicks": 192,
            "midi": 56,
            "name": "G#3",
            "ticks": 47040,
            "time": 66.818115,
            "velocity": 0.4881889763779528
          },
          {
            "duration": 0.27272699999998906,
            "durationTicks": 192,
            "midi": 44,
            "name": "G#2",
            "ticks": 47040,
            "time": 66.818115,
            "velocity": 0.4881889763779528
          },
          {
            "duration": 0.27272699999998906,
            "durationTicks": 192,
            "midi": 56,
            "name": "G#3",
            "ticks": 47040,
            "time": 66.818115,
            "velocity": 0.4881889763779528
          },
          {
            "duration": 0.27272699999998906,
            "durationTicks": 192,
            "midi": 44,
            "name": "G#2",
            "ticks": 47040,
            "time": 66.818115,
            "velocity": 0.4881889763779528
          },
          {
            "duration": 0.27272699999998906,
            "durationTicks": 192,
            "midi": 56,
            "name": "G#3",
            "ticks": 47040,
            "time": 66.818115,
            "velocity": 0.4881889763779528
          },
          {
            "duration": 0.27272699999998906,
            "durationTicks": 192,
            "midi": 56,
            "name": "G#3",
            "ticks": 47040,
            "time": 66.818115,
            "velocity": 0.4881889763779528
          },
          {
            "duration": 0.27272699999998906,
            "durationTicks": 192,
            "midi": 56,
            "name": "G#3",
            "ticks": 47040,
            "time": 66.818115,
            "velocity": 0.4881889763779528
          },
          {
            "duration": 0.27272699999998906,
            "durationTicks": 192,
            "midi": 56,
            "name": "G#3",
            "ticks": 47040,
            "time": 66.818115,
            "velocity": 0.4881889763779528
          },
          {
            "duration": 0.27272699999998906,
            "durationTicks": 192,
            "midi": 44,
            "name": "G#2",
            "ticks": 47040,
            "time": 66.818115,
            "velocity": 0.4881889763779528
          },
          {
            "duration": 0.27272699999998906,
            "durationTicks": 192,
            "midi": 44,
            "name": "G#2",
            "ticks": 47040,
            "time": 66.818115,
            "velocity": 0.4881889763779528
          },
          {
            "duration": 0.2727270000000033,
            "durationTicks": 192,
            "midi": 61,
            "name": "C#4",
            "ticks": 47232,
            "time": 67.090842,
            "velocity": 0.4881889763779528
          },
          {
            "duration": 0.2727270000000033,
            "durationTicks": 192,
            "midi": 49,
            "name": "C#3",
            "ticks": 47232,
            "time": 67.090842,
            "velocity": 0.4881889763779528
          },
          {
            "duration": 0.5454540000000065,
            "durationTicks": 384,
            "midi": 95,
            "name": "B6",
            "ticks": 47232,
            "time": 67.090842,
            "velocity": 0.4881889763779528
          },
          {
            "duration": 0.5454540000000065,
            "durationTicks": 384,
            "midi": 95,
            "name": "B6",
            "ticks": 47232,
            "time": 67.090842,
            "velocity": 0.4881889763779528
          },
          {
            "duration": 0.5454540000000065,
            "durationTicks": 384,
            "midi": 95,
            "name": "B6",
            "ticks": 47232,
            "time": 67.090842,
            "velocity": 0.4881889763779528
          },
          {
            "duration": 0.2727270000000033,
            "durationTicks": 192,
            "midi": 49,
            "name": "C#3",
            "ticks": 47232,
            "time": 67.090842,
            "velocity": 0.4881889763779528
          },
          {
            "duration": 0.5454540000000065,
            "durationTicks": 384,
            "midi": 83,
            "name": "B5",
            "ticks": 47232,
            "time": 67.090842,
            "velocity": 0.4881889763779528
          },
          {
            "duration": 0.5454540000000065,
            "durationTicks": 384,
            "midi": 83,
            "name": "B5",
            "ticks": 47232,
            "time": 67.090842,
            "velocity": 0.4881889763779528
          },
          {
            "duration": 0.2727270000000033,
            "durationTicks": 192,
            "midi": 61,
            "name": "C#4",
            "ticks": 47232,
            "time": 67.090842,
            "velocity": 0.4881889763779528
          },
          {
            "duration": 0.2727270000000033,
            "durationTicks": 192,
            "midi": 49,
            "name": "C#3",
            "ticks": 47232,
            "time": 67.090842,
            "velocity": 0.4881889763779528
          },
          {
            "duration": 0.5454540000000065,
            "durationTicks": 384,
            "midi": 95,
            "name": "B6",
            "ticks": 47232,
            "time": 67.090842,
            "velocity": 0.4881889763779528
          },
          {
            "duration": 0.2727270000000033,
            "durationTicks": 192,
            "midi": 61,
            "name": "C#4",
            "ticks": 47232,
            "time": 67.090842,
            "velocity": 0.4881889763779528
          },
          {
            "duration": 0.2727270000000033,
            "durationTicks": 192,
            "midi": 49,
            "name": "C#3",
            "ticks": 47232,
            "time": 67.090842,
            "velocity": 0.4881889763779528
          },
          {
            "duration": 0.2727270000000033,
            "durationTicks": 192,
            "midi": 61,
            "name": "C#4",
            "ticks": 47232,
            "time": 67.090842,
            "velocity": 0.4881889763779528
          },
          {
            "duration": 0.2727270000000033,
            "durationTicks": 192,
            "midi": 49,
            "name": "C#3",
            "ticks": 47232,
            "time": 67.090842,
            "velocity": 0.4881889763779528
          },
          {
            "duration": 0.2727270000000033,
            "durationTicks": 192,
            "midi": 61,
            "name": "C#4",
            "ticks": 47232,
            "time": 67.090842,
            "velocity": 0.4881889763779528
          },
          {
            "duration": 0.5454540000000065,
            "durationTicks": 384,
            "midi": 83,
            "name": "B5",
            "ticks": 47232,
            "time": 67.090842,
            "velocity": 0.4881889763779528
          },
          {
            "duration": 0.5454540000000065,
            "durationTicks": 384,
            "midi": 83,
            "name": "B5",
            "ticks": 47232,
            "time": 67.090842,
            "velocity": 0.4881889763779528
          },
          {
            "duration": 0.2727270000000033,
            "durationTicks": 192,
            "midi": 49,
            "name": "C#3",
            "ticks": 47232,
            "time": 67.090842,
            "velocity": 0.4881889763779528
          },
          {
            "duration": 0.5454540000000065,
            "durationTicks": 384,
            "midi": 83,
            "name": "B5",
            "ticks": 47232,
            "time": 67.090842,
            "velocity": 0.4881889763779528
          },
          {
            "duration": 0.2727270000000033,
            "durationTicks": 192,
            "midi": 61,
            "name": "C#4",
            "ticks": 47232,
            "time": 67.090842,
            "velocity": 0.4881889763779528
          },
          {
            "duration": 0.5454540000000065,
            "durationTicks": 384,
            "midi": 83,
            "name": "B5",
            "ticks": 47232,
            "time": 67.090842,
            "velocity": 0.4881889763779528
          },
          {
            "duration": 0.5454540000000065,
            "durationTicks": 384,
            "midi": 95,
            "name": "B6",
            "ticks": 47232,
            "time": 67.090842,
            "velocity": 0.4881889763779528
          },
          {
            "duration": 0.5454540000000065,
            "durationTicks": 384,
            "midi": 95,
            "name": "B6",
            "ticks": 47232,
            "time": 67.090842,
            "velocity": 0.4881889763779528
          },
          {
            "duration": 0.2727270000000033,
            "durationTicks": 192,
            "midi": 56,
            "name": "G#3",
            "ticks": 47424,
            "time": 67.363569,
            "velocity": 0.4881889763779528
          },
          {
            "duration": 0.2727270000000033,
            "durationTicks": 192,
            "midi": 56,
            "name": "G#3",
            "ticks": 47424,
            "time": 67.363569,
            "velocity": 0.4881889763779528
          },
          {
            "duration": 0.2727270000000033,
            "durationTicks": 192,
            "midi": 44,
            "name": "G#2",
            "ticks": 47424,
            "time": 67.363569,
            "velocity": 0.4881889763779528
          },
          {
            "duration": 0.2727270000000033,
            "durationTicks": 192,
            "midi": 56,
            "name": "G#3",
            "ticks": 47424,
            "time": 67.363569,
            "velocity": 0.4881889763779528
          },
          {
            "duration": 0.2727270000000033,
            "durationTicks": 192,
            "midi": 44,
            "name": "G#2",
            "ticks": 47424,
            "time": 67.363569,
            "velocity": 0.4881889763779528
          },
          {
            "duration": 0.2727270000000033,
            "durationTicks": 192,
            "midi": 56,
            "name": "G#3",
            "ticks": 47424,
            "time": 67.363569,
            "velocity": 0.4881889763779528
          },
          {
            "duration": 0.2727270000000033,
            "durationTicks": 192,
            "midi": 44,
            "name": "G#2",
            "ticks": 47424,
            "time": 67.363569,
            "velocity": 0.4881889763779528
          },
          {
            "duration": 0.2727270000000033,
            "durationTicks": 192,
            "midi": 44,
            "name": "G#2",
            "ticks": 47424,
            "time": 67.363569,
            "velocity": 0.4881889763779528
          },
          {
            "duration": 0.2727270000000033,
            "durationTicks": 192,
            "midi": 56,
            "name": "G#3",
            "ticks": 47424,
            "time": 67.363569,
            "velocity": 0.4881889763779528
          },
          {
            "duration": 0.2727270000000033,
            "durationTicks": 192,
            "midi": 44,
            "name": "G#2",
            "ticks": 47424,
            "time": 67.363569,
            "velocity": 0.4881889763779528
          },
          {
            "duration": 0.2727270000000033,
            "durationTicks": 192,
            "midi": 56,
            "name": "G#3",
            "ticks": 47424,
            "time": 67.363569,
            "velocity": 0.4881889763779528
          },
          {
            "duration": 0.2727270000000033,
            "durationTicks": 192,
            "midi": 44,
            "name": "G#2",
            "ticks": 47424,
            "time": 67.363569,
            "velocity": 0.4881889763779528
          },
          {
            "duration": 1.0909079999999989,
            "durationTicks": 768,
            "midi": 97,
            "name": "C#7",
            "ticks": 47616,
            "time": 67.636296,
            "velocity": 0.4881889763779528
          },
          {
            "duration": 1.0909079999999989,
            "durationTicks": 768,
            "midi": 97,
            "name": "C#7",
            "ticks": 47616,
            "time": 67.636296,
            "velocity": 0.4881889763779528
          },
          {
            "duration": 0.13636350000000164,
            "durationTicks": 96,
            "midi": 54,
            "name": "F#3",
            "ticks": 47616,
            "time": 67.636296,
            "velocity": 0.4881889763779528
          },
          {
            "duration": 1.0909079999999989,
            "durationTicks": 768,
            "midi": 97,
            "name": "C#7",
            "ticks": 47616,
            "time": 67.636296,
            "velocity": 0.4881889763779528
          },
          {
            "duration": 1.0909079999999989,
            "durationTicks": 768,
            "midi": 85,
            "name": "C#6",
            "ticks": 47616,
            "time": 67.636296,
            "velocity": 0.4881889763779528
          },
          {
            "duration": 1.0909079999999989,
            "durationTicks": 768,
            "midi": 97,
            "name": "C#7",
            "ticks": 47616,
            "time": 67.636296,
            "velocity": 0.4881889763779528
          },
          {
            "duration": 0.13636350000000164,
            "durationTicks": 96,
            "midi": 42,
            "name": "F#2",
            "ticks": 47616,
            "time": 67.636296,
            "velocity": 0.4881889763779528
          },
          {
            "duration": 0.13636350000000164,
            "durationTicks": 96,
            "midi": 54,
            "name": "F#3",
            "ticks": 47616,
            "time": 67.636296,
            "velocity": 0.4881889763779528
          },
          {
            "duration": 1.0909079999999989,
            "durationTicks": 768,
            "midi": 85,
            "name": "C#6",
            "ticks": 47616,
            "time": 67.636296,
            "velocity": 0.4881889763779528
          },
          {
            "duration": 0.13636350000000164,
            "durationTicks": 96,
            "midi": 42,
            "name": "F#2",
            "ticks": 47616,
            "time": 67.636296,
            "velocity": 0.4881889763779528
          },
          {
            "duration": 1.0909079999999989,
            "durationTicks": 768,
            "midi": 97,
            "name": "C#7",
            "ticks": 47616,
            "time": 67.636296,
            "velocity": 0.4881889763779528
          },
          {
            "duration": 1.0909079999999989,
            "durationTicks": 768,
            "midi": 85,
            "name": "C#6",
            "ticks": 47616,
            "time": 67.636296,
            "velocity": 0.4881889763779528
          },
          {
            "duration": 1.0909079999999989,
            "durationTicks": 768,
            "midi": 97,
            "name": "C#7",
            "ticks": 47616,
            "time": 67.636296,
            "velocity": 0.4881889763779528
          },
          {
            "duration": 0.13636350000000164,
            "durationTicks": 96,
            "midi": 54,
            "name": "F#3",
            "ticks": 47616,
            "time": 67.636296,
            "velocity": 0.4881889763779528
          },
          {
            "duration": 0.13636350000000164,
            "durationTicks": 96,
            "midi": 54,
            "name": "F#3",
            "ticks": 47616,
            "time": 67.636296,
            "velocity": 0.4881889763779528
          },
          {
            "duration": 0.13636350000000164,
            "durationTicks": 96,
            "midi": 42,
            "name": "F#2",
            "ticks": 47616,
            "time": 67.636296,
            "velocity": 0.4881889763779528
          },
          {
            "duration": 0.13636350000000164,
            "durationTicks": 96,
            "midi": 42,
            "name": "F#2",
            "ticks": 47616,
            "time": 67.636296,
            "velocity": 0.4881889763779528
          },
          {
            "duration": 0.13636350000000164,
            "durationTicks": 96,
            "midi": 42,
            "name": "F#2",
            "ticks": 47616,
            "time": 67.636296,
            "velocity": 0.4881889763779528
          },
          {
            "duration": 1.0909079999999989,
            "durationTicks": 768,
            "midi": 85,
            "name": "C#6",
            "ticks": 47616,
            "time": 67.636296,
            "velocity": 0.4881889763779528
          },
          {
            "duration": 0.13636350000000164,
            "durationTicks": 96,
            "midi": 54,
            "name": "F#3",
            "ticks": 47616,
            "time": 67.636296,
            "velocity": 0.4881889763779528
          },
          {
            "duration": 0.13636350000000164,
            "durationTicks": 96,
            "midi": 42,
            "name": "F#2",
            "ticks": 47616,
            "time": 67.636296,
            "velocity": 0.4881889763779528
          },
          {
            "duration": 0.13636350000000164,
            "durationTicks": 96,
            "midi": 54,
            "name": "F#3",
            "ticks": 47616,
            "time": 67.636296,
            "velocity": 0.4881889763779528
          },
          {
            "duration": 1.0909079999999989,
            "durationTicks": 768,
            "midi": 85,
            "name": "C#6",
            "ticks": 47616,
            "time": 67.636296,
            "velocity": 0.4881889763779528
          },
          {
            "duration": 1.0909079999999989,
            "durationTicks": 768,
            "midi": 85,
            "name": "C#6",
            "ticks": 47616,
            "time": 67.636296,
            "velocity": 0.4881889763779528
          },
          {
            "duration": 0.13636350000000164,
            "durationTicks": 96,
            "midi": 54,
            "name": "F#3",
            "ticks": 47712,
            "time": 67.7726595,
            "velocity": 0.4881889763779528
          },
          {
            "duration": 0.13636350000000164,
            "durationTicks": 96,
            "midi": 54,
            "name": "F#3",
            "ticks": 47712,
            "time": 67.7726595,
            "velocity": 0.4881889763779528
          },
          {
            "duration": 0.13636350000000164,
            "durationTicks": 96,
            "midi": 42,
            "name": "F#2",
            "ticks": 47712,
            "time": 67.7726595,
            "velocity": 0.4881889763779528
          },
          {
            "duration": 0.13636350000000164,
            "durationTicks": 96,
            "midi": 54,
            "name": "F#3",
            "ticks": 47712,
            "time": 67.7726595,
            "velocity": 0.4881889763779528
          },
          {
            "duration": 0.13636350000000164,
            "durationTicks": 96,
            "midi": 42,
            "name": "F#2",
            "ticks": 47712,
            "time": 67.7726595,
            "velocity": 0.4881889763779528
          },
          {
            "duration": 0.13636350000000164,
            "durationTicks": 96,
            "midi": 42,
            "name": "F#2",
            "ticks": 47712,
            "time": 67.7726595,
            "velocity": 0.4881889763779528
          },
          {
            "duration": 0.13636350000000164,
            "durationTicks": 96,
            "midi": 54,
            "name": "F#3",
            "ticks": 47712,
            "time": 67.7726595,
            "velocity": 0.4881889763779528
          },
          {
            "duration": 0.13636350000000164,
            "durationTicks": 96,
            "midi": 54,
            "name": "F#3",
            "ticks": 47712,
            "time": 67.7726595,
            "velocity": 0.4881889763779528
          },
          {
            "duration": 0.13636350000000164,
            "durationTicks": 96,
            "midi": 54,
            "name": "F#3",
            "ticks": 47712,
            "time": 67.7726595,
            "velocity": 0.4881889763779528
          },
          {
            "duration": 0.13636350000000164,
            "durationTicks": 96,
            "midi": 42,
            "name": "F#2",
            "ticks": 47712,
            "time": 67.7726595,
            "velocity": 0.4881889763779528
          },
          {
            "duration": 0.13636350000000164,
            "durationTicks": 96,
            "midi": 42,
            "name": "F#2",
            "ticks": 47712,
            "time": 67.7726595,
            "velocity": 0.4881889763779528
          },
          {
            "duration": 0.13636350000000164,
            "durationTicks": 96,
            "midi": 42,
            "name": "F#2",
            "ticks": 47712,
            "time": 67.7726595,
            "velocity": 0.4881889763779528
          },
          {
            "duration": 0.27272699999998906,
            "durationTicks": 192,
            "midi": 54,
            "name": "F#3",
            "ticks": 47808,
            "time": 67.909023,
            "velocity": 0.4881889763779528
          },
          {
            "duration": 0.27272699999998906,
            "durationTicks": 192,
            "midi": 54,
            "name": "F#3",
            "ticks": 47808,
            "time": 67.909023,
            "velocity": 0.4881889763779528
          },
          {
            "duration": 0.27272699999998906,
            "durationTicks": 192,
            "midi": 54,
            "name": "F#3",
            "ticks": 47808,
            "time": 67.909023,
            "velocity": 0.4881889763779528
          },
          {
            "duration": 0.27272699999998906,
            "durationTicks": 192,
            "midi": 54,
            "name": "F#3",
            "ticks": 47808,
            "time": 67.909023,
            "velocity": 0.4881889763779528
          },
          {
            "duration": 0.27272699999998906,
            "durationTicks": 192,
            "midi": 54,
            "name": "F#3",
            "ticks": 47808,
            "time": 67.909023,
            "velocity": 0.4881889763779528
          },
          {
            "duration": 0.27272699999998906,
            "durationTicks": 192,
            "midi": 42,
            "name": "F#2",
            "ticks": 47808,
            "time": 67.909023,
            "velocity": 0.4881889763779528
          },
          {
            "duration": 0.27272699999998906,
            "durationTicks": 192,
            "midi": 42,
            "name": "F#2",
            "ticks": 47808,
            "time": 67.909023,
            "velocity": 0.4881889763779528
          },
          {
            "duration": 0.27272699999998906,
            "durationTicks": 192,
            "midi": 42,
            "name": "F#2",
            "ticks": 47808,
            "time": 67.909023,
            "velocity": 0.4881889763779528
          },
          {
            "duration": 0.27272699999998906,
            "durationTicks": 192,
            "midi": 42,
            "name": "F#2",
            "ticks": 47808,
            "time": 67.909023,
            "velocity": 0.4881889763779528
          },
          {
            "duration": 0.27272699999998906,
            "durationTicks": 192,
            "midi": 42,
            "name": "F#2",
            "ticks": 47808,
            "time": 67.909023,
            "velocity": 0.4881889763779528
          },
          {
            "duration": 0.27272699999998906,
            "durationTicks": 192,
            "midi": 54,
            "name": "F#3",
            "ticks": 47808,
            "time": 67.909023,
            "velocity": 0.4881889763779528
          },
          {
            "duration": 0.27272699999998906,
            "durationTicks": 192,
            "midi": 42,
            "name": "F#2",
            "ticks": 47808,
            "time": 67.909023,
            "velocity": 0.4881889763779528
          },
          {
            "duration": 0.13636350000000164,
            "durationTicks": 96,
            "midi": 42,
            "name": "F#2",
            "ticks": 48000,
            "time": 68.18175,
            "velocity": 0.4881889763779528
          },
          {
            "duration": 0.13636350000000164,
            "durationTicks": 96,
            "midi": 54,
            "name": "F#3",
            "ticks": 48000,
            "time": 68.18175,
            "velocity": 0.4881889763779528
          },
          {
            "duration": 0.13636350000000164,
            "durationTicks": 96,
            "midi": 42,
            "name": "F#2",
            "ticks": 48000,
            "time": 68.18175,
            "velocity": 0.4881889763779528
          },
          {
            "duration": 0.13636350000000164,
            "durationTicks": 96,
            "midi": 42,
            "name": "F#2",
            "ticks": 48000,
            "time": 68.18175,
            "velocity": 0.4881889763779528
          },
          {
            "duration": 0.13636350000000164,
            "durationTicks": 96,
            "midi": 42,
            "name": "F#2",
            "ticks": 48000,
            "time": 68.18175,
            "velocity": 0.4881889763779528
          },
          {
            "duration": 0.13636350000000164,
            "durationTicks": 96,
            "midi": 54,
            "name": "F#3",
            "ticks": 48000,
            "time": 68.18175,
            "velocity": 0.4881889763779528
          },
          {
            "duration": 0.13636350000000164,
            "durationTicks": 96,
            "midi": 54,
            "name": "F#3",
            "ticks": 48000,
            "time": 68.18175,
            "velocity": 0.4881889763779528
          },
          {
            "duration": 0.13636350000000164,
            "durationTicks": 96,
            "midi": 42,
            "name": "F#2",
            "ticks": 48000,
            "time": 68.18175,
            "velocity": 0.4881889763779528
          },
          {
            "duration": 0.13636350000000164,
            "durationTicks": 96,
            "midi": 54,
            "name": "F#3",
            "ticks": 48000,
            "time": 68.18175,
            "velocity": 0.4881889763779528
          },
          {
            "duration": 0.13636350000000164,
            "durationTicks": 96,
            "midi": 42,
            "name": "F#2",
            "ticks": 48000,
            "time": 68.18175,
            "velocity": 0.4881889763779528
          },
          {
            "duration": 0.13636350000000164,
            "durationTicks": 96,
            "midi": 54,
            "name": "F#3",
            "ticks": 48000,
            "time": 68.18175,
            "velocity": 0.4881889763779528
          },
          {
            "duration": 0.13636350000000164,
            "durationTicks": 96,
            "midi": 54,
            "name": "F#3",
            "ticks": 48000,
            "time": 68.18175,
            "velocity": 0.4881889763779528
          },
          {
            "duration": 0.13636350000000164,
            "durationTicks": 96,
            "midi": 54,
            "name": "F#3",
            "ticks": 48096,
            "time": 68.3181135,
            "velocity": 0.4881889763779528
          },
          {
            "duration": 0.13636350000000164,
            "durationTicks": 96,
            "midi": 54,
            "name": "F#3",
            "ticks": 48096,
            "time": 68.3181135,
            "velocity": 0.4881889763779528
          },
          {
            "duration": 0.13636350000000164,
            "durationTicks": 96,
            "midi": 42,
            "name": "F#2",
            "ticks": 48096,
            "time": 68.3181135,
            "velocity": 0.4881889763779528
          },
          {
            "duration": 0.13636350000000164,
            "durationTicks": 96,
            "midi": 54,
            "name": "F#3",
            "ticks": 48096,
            "time": 68.3181135,
            "velocity": 0.4881889763779528
          },
          {
            "duration": 0.13636350000000164,
            "durationTicks": 96,
            "midi": 42,
            "name": "F#2",
            "ticks": 48096,
            "time": 68.3181135,
            "velocity": 0.4881889763779528
          },
          {
            "duration": 0.13636350000000164,
            "durationTicks": 96,
            "midi": 42,
            "name": "F#2",
            "ticks": 48096,
            "time": 68.3181135,
            "velocity": 0.4881889763779528
          },
          {
            "duration": 0.13636350000000164,
            "durationTicks": 96,
            "midi": 54,
            "name": "F#3",
            "ticks": 48096,
            "time": 68.3181135,
            "velocity": 0.4881889763779528
          },
          {
            "duration": 0.13636350000000164,
            "durationTicks": 96,
            "midi": 54,
            "name": "F#3",
            "ticks": 48096,
            "time": 68.3181135,
            "velocity": 0.4881889763779528
          },
          {
            "duration": 0.13636350000000164,
            "durationTicks": 96,
            "midi": 42,
            "name": "F#2",
            "ticks": 48096,
            "time": 68.3181135,
            "velocity": 0.4881889763779528
          },
          {
            "duration": 0.13636350000000164,
            "durationTicks": 96,
            "midi": 42,
            "name": "F#2",
            "ticks": 48096,
            "time": 68.3181135,
            "velocity": 0.4881889763779528
          },
          {
            "duration": 0.13636350000000164,
            "durationTicks": 96,
            "midi": 42,
            "name": "F#2",
            "ticks": 48096,
            "time": 68.3181135,
            "velocity": 0.4881889763779528
          },
          {
            "duration": 0.13636350000000164,
            "durationTicks": 96,
            "midi": 54,
            "name": "F#3",
            "ticks": 48096,
            "time": 68.3181135,
            "velocity": 0.4881889763779528
          },
          {
            "duration": 0.2727270000000033,
            "durationTicks": 192,
            "midi": 42,
            "name": "F#2",
            "ticks": 48192,
            "time": 68.454477,
            "velocity": 0.4881889763779528
          },
          {
            "duration": 0.2727270000000033,
            "durationTicks": 192,
            "midi": 54,
            "name": "F#3",
            "ticks": 48192,
            "time": 68.454477,
            "velocity": 0.4881889763779528
          },
          {
            "duration": 0.2727270000000033,
            "durationTicks": 192,
            "midi": 42,
            "name": "F#2",
            "ticks": 48192,
            "time": 68.454477,
            "velocity": 0.4881889763779528
          },
          {
            "duration": 0.2727270000000033,
            "durationTicks": 192,
            "midi": 54,
            "name": "F#3",
            "ticks": 48192,
            "time": 68.454477,
            "velocity": 0.4881889763779528
          },
          {
            "duration": 0.2727270000000033,
            "durationTicks": 192,
            "midi": 54,
            "name": "F#3",
            "ticks": 48192,
            "time": 68.454477,
            "velocity": 0.4881889763779528
          },
          {
            "duration": 0.2727270000000033,
            "durationTicks": 192,
            "midi": 54,
            "name": "F#3",
            "ticks": 48192,
            "time": 68.454477,
            "velocity": 0.4881889763779528
          },
          {
            "duration": 0.2727270000000033,
            "durationTicks": 192,
            "midi": 42,
            "name": "F#2",
            "ticks": 48192,
            "time": 68.454477,
            "velocity": 0.4881889763779528
          },
          {
            "duration": 0.2727270000000033,
            "durationTicks": 192,
            "midi": 42,
            "name": "F#2",
            "ticks": 48192,
            "time": 68.454477,
            "velocity": 0.4881889763779528
          },
          {
            "duration": 0.2727270000000033,
            "durationTicks": 192,
            "midi": 54,
            "name": "F#3",
            "ticks": 48192,
            "time": 68.454477,
            "velocity": 0.4881889763779528
          },
          {
            "duration": 0.2727270000000033,
            "durationTicks": 192,
            "midi": 54,
            "name": "F#3",
            "ticks": 48192,
            "time": 68.454477,
            "velocity": 0.4881889763779528
          },
          {
            "duration": 0.2727270000000033,
            "durationTicks": 192,
            "midi": 42,
            "name": "F#2",
            "ticks": 48192,
            "time": 68.454477,
            "velocity": 0.4881889763779528
          },
          {
            "duration": 0.2727270000000033,
            "durationTicks": 192,
            "midi": 42,
            "name": "F#2",
            "ticks": 48192,
            "time": 68.454477,
            "velocity": 0.4881889763779528
          },
          {
            "duration": 1.0909079999999989,
            "durationTicks": 768,
            "midi": 102,
            "name": "F#7",
            "ticks": 48384,
            "time": 68.727204,
            "velocity": 0.4881889763779528
          },
          {
            "duration": 0.13636350000000164,
            "durationTicks": 96,
            "midi": 42,
            "name": "F#2",
            "ticks": 48384,
            "time": 68.727204,
            "velocity": 0.4881889763779528
          },
          {
            "duration": 0.13636350000000164,
            "durationTicks": 96,
            "midi": 54,
            "name": "F#3",
            "ticks": 48384,
            "time": 68.727204,
            "velocity": 0.4881889763779528
          },
          {
            "duration": 0.13636350000000164,
            "durationTicks": 96,
            "midi": 42,
            "name": "F#2",
            "ticks": 48384,
            "time": 68.727204,
            "velocity": 0.4881889763779528
          },
          {
            "duration": 1.0909079999999989,
            "durationTicks": 768,
            "midi": 90,
            "name": "F#6",
            "ticks": 48384,
            "time": 68.727204,
            "velocity": 0.4881889763779528
          },
          {
            "duration": 1.0909079999999989,
            "durationTicks": 768,
            "midi": 102,
            "name": "F#7",
            "ticks": 48384,
            "time": 68.727204,
            "velocity": 0.4881889763779528
          },
          {
            "duration": 1.0909079999999989,
            "durationTicks": 768,
            "midi": 102,
            "name": "F#7",
            "ticks": 48384,
            "time": 68.727204,
            "velocity": 0.4881889763779528
          },
          {
            "duration": 1.0909079999999989,
            "durationTicks": 768,
            "midi": 90,
            "name": "F#6",
            "ticks": 48384,
            "time": 68.727204,
            "velocity": 0.4881889763779528
          },
          {
            "duration": 0.13636350000000164,
            "durationTicks": 96,
            "midi": 54,
            "name": "F#3",
            "ticks": 48384,
            "time": 68.727204,
            "velocity": 0.4881889763779528
          },
          {
            "duration": 1.0909079999999989,
            "durationTicks": 768,
            "midi": 102,
            "name": "F#7",
            "ticks": 48384,
            "time": 68.727204,
            "velocity": 0.4881889763779528
          },
          {
            "duration": 0.13636350000000164,
            "durationTicks": 96,
            "midi": 54,
            "name": "F#3",
            "ticks": 48384,
            "time": 68.727204,
            "velocity": 0.4881889763779528
          },
          {
            "duration": 0.13636350000000164,
            "durationTicks": 96,
            "midi": 54,
            "name": "F#3",
            "ticks": 48384,
            "time": 68.727204,
            "velocity": 0.4881889763779528
          },
          {
            "duration": 1.0909079999999989,
            "durationTicks": 768,
            "midi": 90,
            "name": "F#6",
            "ticks": 48384,
            "time": 68.727204,
            "velocity": 0.4881889763779528
          },
          {
            "duration": 0.13636350000000164,
            "durationTicks": 96,
            "midi": 42,
            "name": "F#2",
            "ticks": 48384,
            "time": 68.727204,
            "velocity": 0.4881889763779528
          },
          {
            "duration": 0.13636350000000164,
            "durationTicks": 96,
            "midi": 54,
            "name": "F#3",
            "ticks": 48384,
            "time": 68.727204,
            "velocity": 0.4881889763779528
          },
          {
            "duration": 0.13636350000000164,
            "durationTicks": 96,
            "midi": 54,
            "name": "F#3",
            "ticks": 48384,
            "time": 68.727204,
            "velocity": 0.4881889763779528
          },
          {
            "duration": 1.0909079999999989,
            "durationTicks": 768,
            "midi": 102,
            "name": "F#7",
            "ticks": 48384,
            "time": 68.727204,
            "velocity": 0.4881889763779528
          },
          {
            "duration": 1.0909079999999989,
            "durationTicks": 768,
            "midi": 102,
            "name": "F#7",
            "ticks": 48384,
            "time": 68.727204,
            "velocity": 0.4881889763779528
          },
          {
            "duration": 0.13636350000000164,
            "durationTicks": 96,
            "midi": 42,
            "name": "F#2",
            "ticks": 48384,
            "time": 68.727204,
            "velocity": 0.4881889763779528
          },
          {
            "duration": 1.0909079999999989,
            "durationTicks": 768,
            "midi": 90,
            "name": "F#6",
            "ticks": 48384,
            "time": 68.727204,
            "velocity": 0.4881889763779528
          },
          {
            "duration": 1.0909079999999989,
            "durationTicks": 768,
            "midi": 90,
            "name": "F#6",
            "ticks": 48384,
            "time": 68.727204,
            "velocity": 0.4881889763779528
          },
          {
            "duration": 0.13636350000000164,
            "durationTicks": 96,
            "midi": 42,
            "name": "F#2",
            "ticks": 48384,
            "time": 68.727204,
            "velocity": 0.4881889763779528
          },
          {
            "duration": 0.13636350000000164,
            "durationTicks": 96,
            "midi": 42,
            "name": "F#2",
            "ticks": 48384,
            "time": 68.727204,
            "velocity": 0.4881889763779528
          },
          {
            "duration": 1.0909079999999989,
            "durationTicks": 768,
            "midi": 90,
            "name": "F#6",
            "ticks": 48384,
            "time": 68.727204,
            "velocity": 0.4881889763779528
          },
          {
            "duration": 0.13636350000000164,
            "durationTicks": 96,
            "midi": 45,
            "name": "A2",
            "ticks": 48480,
            "time": 68.8635675,
            "velocity": 0.4881889763779528
          },
          {
            "duration": 0.13636350000000164,
            "durationTicks": 96,
            "midi": 57,
            "name": "A3",
            "ticks": 48480,
            "time": 68.8635675,
            "velocity": 0.4881889763779528
          },
          {
            "duration": 0.13636350000000164,
            "durationTicks": 96,
            "midi": 57,
            "name": "A3",
            "ticks": 48480,
            "time": 68.8635675,
            "velocity": 0.4881889763779528
          },
          {
            "duration": 0.13636350000000164,
            "durationTicks": 96,
            "midi": 45,
            "name": "A2",
            "ticks": 48480,
            "time": 68.8635675,
            "velocity": 0.4881889763779528
          },
          {
            "duration": 0.13636350000000164,
            "durationTicks": 96,
            "midi": 45,
            "name": "A2",
            "ticks": 48480,
            "time": 68.8635675,
            "velocity": 0.4881889763779528
          },
          {
            "duration": 0.13636350000000164,
            "durationTicks": 96,
            "midi": 57,
            "name": "A3",
            "ticks": 48480,
            "time": 68.8635675,
            "velocity": 0.4881889763779528
          },
          {
            "duration": 0.13636350000000164,
            "durationTicks": 96,
            "midi": 45,
            "name": "A2",
            "ticks": 48480,
            "time": 68.8635675,
            "velocity": 0.4881889763779528
          },
          {
            "duration": 0.13636350000000164,
            "durationTicks": 96,
            "midi": 45,
            "name": "A2",
            "ticks": 48480,
            "time": 68.8635675,
            "velocity": 0.4881889763779528
          },
          {
            "duration": 0.13636350000000164,
            "durationTicks": 96,
            "midi": 45,
            "name": "A2",
            "ticks": 48480,
            "time": 68.8635675,
            "velocity": 0.4881889763779528
          },
          {
            "duration": 0.13636350000000164,
            "durationTicks": 96,
            "midi": 57,
            "name": "A3",
            "ticks": 48480,
            "time": 68.8635675,
            "velocity": 0.4881889763779528
          },
          {
            "duration": 0.13636350000000164,
            "durationTicks": 96,
            "midi": 57,
            "name": "A3",
            "ticks": 48480,
            "time": 68.8635675,
            "velocity": 0.4881889763779528
          },
          {
            "duration": 0.13636350000000164,
            "durationTicks": 96,
            "midi": 57,
            "name": "A3",
            "ticks": 48480,
            "time": 68.8635675,
            "velocity": 0.4881889763779528
          },
          {
            "duration": 0.27272699999998906,
            "durationTicks": 192,
            "midi": 57,
            "name": "A3",
            "ticks": 48576,
            "time": 68.999931,
            "velocity": 0.4881889763779528
          },
          {
            "duration": 0.27272699999998906,
            "durationTicks": 192,
            "midi": 57,
            "name": "A3",
            "ticks": 48576,
            "time": 68.999931,
            "velocity": 0.4881889763779528
          },
          {
            "duration": 0.27272699999998906,
            "durationTicks": 192,
            "midi": 57,
            "name": "A3",
            "ticks": 48576,
            "time": 68.999931,
            "velocity": 0.4881889763779528
          },
          {
            "duration": 0.27272699999998906,
            "durationTicks": 192,
            "midi": 45,
            "name": "A2",
            "ticks": 48576,
            "time": 68.999931,
            "velocity": 0.4881889763779528
          },
          {
            "duration": 0.27272699999998906,
            "durationTicks": 192,
            "midi": 57,
            "name": "A3",
            "ticks": 48576,
            "time": 68.999931,
            "velocity": 0.4881889763779528
          },
          {
            "duration": 0.27272699999998906,
            "durationTicks": 192,
            "midi": 45,
            "name": "A2",
            "ticks": 48576,
            "time": 68.999931,
            "velocity": 0.4881889763779528
          },
          {
            "duration": 0.27272699999998906,
            "durationTicks": 192,
            "midi": 45,
            "name": "A2",
            "ticks": 48576,
            "time": 68.999931,
            "velocity": 0.4881889763779528
          },
          {
            "duration": 0.27272699999998906,
            "durationTicks": 192,
            "midi": 57,
            "name": "A3",
            "ticks": 48576,
            "time": 68.999931,
            "velocity": 0.4881889763779528
          },
          {
            "duration": 0.27272699999998906,
            "durationTicks": 192,
            "midi": 45,
            "name": "A2",
            "ticks": 48576,
            "time": 68.999931,
            "velocity": 0.4881889763779528
          },
          {
            "duration": 0.27272699999998906,
            "durationTicks": 192,
            "midi": 57,
            "name": "A3",
            "ticks": 48576,
            "time": 68.999931,
            "velocity": 0.4881889763779528
          },
          {
            "duration": 0.27272699999998906,
            "durationTicks": 192,
            "midi": 45,
            "name": "A2",
            "ticks": 48576,
            "time": 68.999931,
            "velocity": 0.4881889763779528
          },
          {
            "duration": 0.27272699999998906,
            "durationTicks": 192,
            "midi": 45,
            "name": "A2",
            "ticks": 48576,
            "time": 68.999931,
            "velocity": 0.4881889763779528
          },
          {
            "duration": 0.2727270000000033,
            "durationTicks": 192,
            "midi": 49,
            "name": "C#3",
            "ticks": 48768,
            "time": 69.27265799999999,
            "velocity": 0.4881889763779528
          },
          {
            "duration": 0.2727270000000033,
            "durationTicks": 192,
            "midi": 61,
            "name": "C#4",
            "ticks": 48768,
            "time": 69.27265799999999,
            "velocity": 0.4881889763779528
          },
          {
            "duration": 0.2727270000000033,
            "durationTicks": 192,
            "midi": 49,
            "name": "C#3",
            "ticks": 48768,
            "time": 69.27265799999999,
            "velocity": 0.4881889763779528
          },
          {
            "duration": 0.2727270000000033,
            "durationTicks": 192,
            "midi": 61,
            "name": "C#4",
            "ticks": 48768,
            "time": 69.27265799999999,
            "velocity": 0.4881889763779528
          },
          {
            "duration": 0.2727270000000033,
            "durationTicks": 192,
            "midi": 49,
            "name": "C#3",
            "ticks": 48768,
            "time": 69.27265799999999,
            "velocity": 0.4881889763779528
          },
          {
            "duration": 0.2727270000000033,
            "durationTicks": 192,
            "midi": 61,
            "name": "C#4",
            "ticks": 48768,
            "time": 69.27265799999999,
            "velocity": 0.4881889763779528
          },
          {
            "duration": 0.2727270000000033,
            "durationTicks": 192,
            "midi": 61,
            "name": "C#4",
            "ticks": 48768,
            "time": 69.27265799999999,
            "velocity": 0.4881889763779528
          },
          {
            "duration": 0.2727270000000033,
            "durationTicks": 192,
            "midi": 49,
            "name": "C#3",
            "ticks": 48768,
            "time": 69.27265799999999,
            "velocity": 0.4881889763779528
          },
          {
            "duration": 0.2727270000000033,
            "durationTicks": 192,
            "midi": 49,
            "name": "C#3",
            "ticks": 48768,
            "time": 69.27265799999999,
            "velocity": 0.4881889763779528
          },
          {
            "duration": 0.2727270000000033,
            "durationTicks": 192,
            "midi": 61,
            "name": "C#4",
            "ticks": 48768,
            "time": 69.27265799999999,
            "velocity": 0.4881889763779528
          },
          {
            "duration": 0.2727270000000033,
            "durationTicks": 192,
            "midi": 61,
            "name": "C#4",
            "ticks": 48768,
            "time": 69.27265799999999,
            "velocity": 0.4881889763779528
          },
          {
            "duration": 0.2727270000000033,
            "durationTicks": 192,
            "midi": 49,
            "name": "C#3",
            "ticks": 48768,
            "time": 69.27265799999999,
            "velocity": 0.4881889763779528
          },
          {
            "duration": 0.2727270000000033,
            "durationTicks": 192,
            "midi": 63,
            "name": "D#4",
            "ticks": 48960,
            "time": 69.545385,
            "velocity": 0.4881889763779528
          },
          {
            "duration": 0.2727270000000033,
            "durationTicks": 192,
            "midi": 51,
            "name": "D#3",
            "ticks": 48960,
            "time": 69.545385,
            "velocity": 0.4881889763779528
          },
          {
            "duration": 0.2727270000000033,
            "durationTicks": 192,
            "midi": 51,
            "name": "D#3",
            "ticks": 48960,
            "time": 69.545385,
            "velocity": 0.4881889763779528
          },
          {
            "duration": 0.2727270000000033,
            "durationTicks": 192,
            "midi": 51,
            "name": "D#3",
            "ticks": 48960,
            "time": 69.545385,
            "velocity": 0.4881889763779528
          },
          {
            "duration": 0.2727270000000033,
            "durationTicks": 192,
            "midi": 51,
            "name": "D#3",
            "ticks": 48960,
            "time": 69.545385,
            "velocity": 0.4881889763779528
          },
          {
            "duration": 0.2727270000000033,
            "durationTicks": 192,
            "midi": 63,
            "name": "D#4",
            "ticks": 48960,
            "time": 69.545385,
            "velocity": 0.4881889763779528
          },
          {
            "duration": 0.2727270000000033,
            "durationTicks": 192,
            "midi": 63,
            "name": "D#4",
            "ticks": 48960,
            "time": 69.545385,
            "velocity": 0.4881889763779528
          },
          {
            "duration": 0.2727270000000033,
            "durationTicks": 192,
            "midi": 51,
            "name": "D#3",
            "ticks": 48960,
            "time": 69.545385,
            "velocity": 0.4881889763779528
          },
          {
            "duration": 0.2727270000000033,
            "durationTicks": 192,
            "midi": 51,
            "name": "D#3",
            "ticks": 48960,
            "time": 69.545385,
            "velocity": 0.4881889763779528
          },
          {
            "duration": 0.2727270000000033,
            "durationTicks": 192,
            "midi": 63,
            "name": "D#4",
            "ticks": 48960,
            "time": 69.545385,
            "velocity": 0.4881889763779528
          },
          {
            "duration": 0.2727270000000033,
            "durationTicks": 192,
            "midi": 63,
            "name": "D#4",
            "ticks": 48960,
            "time": 69.545385,
            "velocity": 0.4881889763779528
          },
          {
            "duration": 0.2727270000000033,
            "durationTicks": 192,
            "midi": 63,
            "name": "D#4",
            "ticks": 48960,
            "time": 69.545385,
            "velocity": 0.4881889763779528
          },
          {
            "duration": 0.13636350000000164,
            "durationTicks": 96,
            "midi": 49,
            "name": "C#3",
            "ticks": 49152,
            "time": 69.818112,
            "velocity": 0.4881889763779528
          },
          {
            "duration": 1.0909079999999989,
            "durationTicks": 768,
            "midi": 92,
            "name": "G#6",
            "ticks": 49152,
            "time": 69.818112,
            "velocity": 0.4881889763779528
          },
          {
            "duration": 0.13636350000000164,
            "durationTicks": 96,
            "midi": 49,
            "name": "C#3",
            "ticks": 49152,
            "time": 69.818112,
            "velocity": 0.4881889763779528
          },
          {
            "duration": 1.0909079999999989,
            "durationTicks": 768,
            "midi": 88,
            "name": "E6",
            "ticks": 49152,
            "time": 69.818112,
            "velocity": 0.4881889763779528
          },
          {
            "duration": 0.13636350000000164,
            "durationTicks": 96,
            "midi": 49,
            "name": "C#3",
            "ticks": 49152,
            "time": 69.818112,
            "velocity": 0.4881889763779528
          },
          {
            "duration": 1.0909079999999989,
            "durationTicks": 768,
            "midi": 88,
            "name": "E6",
            "ticks": 49152,
            "time": 69.818112,
            "velocity": 0.4881889763779528
          },
          {
            "duration": 1.0909079999999989,
            "durationTicks": 768,
            "midi": 92,
            "name": "G#6",
            "ticks": 49152,
            "time": 69.818112,
            "velocity": 0.4881889763779528
          },
          {
            "duration": 1.0909079999999989,
            "durationTicks": 768,
            "midi": 95,
            "name": "B6",
            "ticks": 49152,
            "time": 69.818112,
            "velocity": 0.4881889763779528
          },
          {
            "duration": 0.13636350000000164,
            "durationTicks": 96,
            "midi": 61,
            "name": "C#4",
            "ticks": 49152,
            "time": 69.818112,
            "velocity": 0.4881889763779528
          },
          {
            "duration": 0.13636350000000164,
            "durationTicks": 96,
            "midi": 61,
            "name": "C#4",
            "ticks": 49152,
            "time": 69.818112,
            "velocity": 0.4881889763779528
          },
          {
            "duration": 1.0909079999999989,
            "durationTicks": 768,
            "midi": 92,
            "name": "G#6",
            "ticks": 49152,
            "time": 69.818112,
            "velocity": 0.4881889763779528
          },
          {
            "duration": 1.0909079999999989,
            "durationTicks": 768,
            "midi": 95,
            "name": "B6",
            "ticks": 49152,
            "time": 69.818112,
            "velocity": 0.4881889763779528
          },
          {
            "duration": 1.0909079999999989,
            "durationTicks": 768,
            "midi": 88,
            "name": "E6",
            "ticks": 49152,
            "time": 69.818112,
            "velocity": 0.4881889763779528
          },
          {
            "duration": 1.0909079999999989,
            "durationTicks": 768,
            "midi": 95,
            "name": "B6",
            "ticks": 49152,
            "time": 69.818112,
            "velocity": 0.4881889763779528
          },
          {
            "duration": 0.13636350000000164,
            "durationTicks": 96,
            "midi": 49,
            "name": "C#3",
            "ticks": 49152,
            "time": 69.818112,
            "velocity": 0.4881889763779528
          },
          {
            "duration": 1.0909079999999989,
            "durationTicks": 768,
            "midi": 88,
            "name": "E6",
            "ticks": 49152,
            "time": 69.818112,
            "velocity": 0.4881889763779528
          },
          {
            "duration": 1.0909079999999989,
            "durationTicks": 768,
            "midi": 92,
            "name": "G#6",
            "ticks": 49152,
            "time": 69.818112,
            "velocity": 0.4881889763779528
          },
          {
            "duration": 0.13636350000000164,
            "durationTicks": 96,
            "midi": 49,
            "name": "C#3",
            "ticks": 49152,
            "time": 69.818112,
            "velocity": 0.4881889763779528
          },
          {
            "duration": 1.0909079999999989,
            "durationTicks": 768,
            "midi": 100,
            "name": "E7",
            "ticks": 49152,
            "time": 69.818112,
            "velocity": 0.4881889763779528
          },
          {
            "duration": 1.0909079999999989,
            "durationTicks": 768,
            "midi": 95,
            "name": "B6",
            "ticks": 49152,
            "time": 69.818112,
            "velocity": 0.4881889763779528
          },
          {
            "duration": 1.0909079999999989,
            "durationTicks": 768,
            "midi": 100,
            "name": "E7",
            "ticks": 49152,
            "time": 69.818112,
            "velocity": 0.4881889763779528
          },
          {
            "duration": 1.0909079999999989,
            "durationTicks": 768,
            "midi": 88,
            "name": "E6",
            "ticks": 49152,
            "time": 69.818112,
            "velocity": 0.4881889763779528
          },
          {
            "duration": 1.0909079999999989,
            "durationTicks": 768,
            "midi": 100,
            "name": "E7",
            "ticks": 49152,
            "time": 69.818112,
            "velocity": 0.4881889763779528
          },
          {
            "duration": 0.13636350000000164,
            "durationTicks": 96,
            "midi": 49,
            "name": "C#3",
            "ticks": 49152,
            "time": 69.818112,
            "velocity": 0.4881889763779528
          },
          {
            "duration": 1.0909079999999989,
            "durationTicks": 768,
            "midi": 100,
            "name": "E7",
            "ticks": 49152,
            "time": 69.818112,
            "velocity": 0.4881889763779528
          },
          {
            "duration": 1.0909079999999989,
            "durationTicks": 768,
            "midi": 100,
            "name": "E7",
            "ticks": 49152,
            "time": 69.818112,
            "velocity": 0.4881889763779528
          },
          {
            "duration": 1.0909079999999989,
            "durationTicks": 768,
            "midi": 95,
            "name": "B6",
            "ticks": 49152,
            "time": 69.818112,
            "velocity": 0.4881889763779528
          },
          {
            "duration": 1.0909079999999989,
            "durationTicks": 768,
            "midi": 92,
            "name": "G#6",
            "ticks": 49152,
            "time": 69.818112,
            "velocity": 0.4881889763779528
          },
          {
            "duration": 1.0909079999999989,
            "durationTicks": 768,
            "midi": 95,
            "name": "B6",
            "ticks": 49152,
            "time": 69.818112,
            "velocity": 0.4881889763779528
          },
          {
            "duration": 0.13636350000000164,
            "durationTicks": 96,
            "midi": 61,
            "name": "C#4",
            "ticks": 49152,
            "time": 69.818112,
            "velocity": 0.4881889763779528
          },
          {
            "duration": 0.13636350000000164,
            "durationTicks": 96,
            "midi": 61,
            "name": "C#4",
            "ticks": 49152,
            "time": 69.818112,
            "velocity": 0.4881889763779528
          },
          {
            "duration": 1.0909079999999989,
            "durationTicks": 768,
            "midi": 92,
            "name": "G#6",
            "ticks": 49152,
            "time": 69.818112,
            "velocity": 0.4881889763779528
          },
          {
            "duration": 0.13636350000000164,
            "durationTicks": 96,
            "midi": 61,
            "name": "C#4",
            "ticks": 49152,
            "time": 69.818112,
            "velocity": 0.4881889763779528
          },
          {
            "duration": 1.0909079999999989,
            "durationTicks": 768,
            "midi": 88,
            "name": "E6",
            "ticks": 49152,
            "time": 69.818112,
            "velocity": 0.4881889763779528
          },
          {
            "duration": 1.0909079999999989,
            "durationTicks": 768,
            "midi": 100,
            "name": "E7",
            "ticks": 49152,
            "time": 69.818112,
            "velocity": 0.4881889763779528
          },
          {
            "duration": 0.13636350000000164,
            "durationTicks": 96,
            "midi": 61,
            "name": "C#4",
            "ticks": 49152,
            "time": 69.818112,
            "velocity": 0.4881889763779528
          },
          {
            "duration": 0.13636350000000164,
            "durationTicks": 96,
            "midi": 61,
            "name": "C#4",
            "ticks": 49248,
            "time": 69.9544755,
            "velocity": 0.4881889763779528
          },
          {
            "duration": 0.13636350000000164,
            "durationTicks": 96,
            "midi": 61,
            "name": "C#4",
            "ticks": 49248,
            "time": 69.9544755,
            "velocity": 0.4881889763779528
          },
          {
            "duration": 0.13636350000000164,
            "durationTicks": 96,
            "midi": 61,
            "name": "C#4",
            "ticks": 49248,
            "time": 69.9544755,
            "velocity": 0.4881889763779528
          },
          {
            "duration": 0.13636350000000164,
            "durationTicks": 96,
            "midi": 61,
            "name": "C#4",
            "ticks": 49248,
            "time": 69.9544755,
            "velocity": 0.4881889763779528
          },
          {
            "duration": 0.13636350000000164,
            "durationTicks": 96,
            "midi": 49,
            "name": "C#3",
            "ticks": 49248,
            "time": 69.9544755,
            "velocity": 0.4881889763779528
          },
          {
            "duration": 0.13636350000000164,
            "durationTicks": 96,
            "midi": 49,
            "name": "C#3",
            "ticks": 49248,
            "time": 69.9544755,
            "velocity": 0.4881889763779528
          },
          {
            "duration": 0.13636350000000164,
            "durationTicks": 96,
            "midi": 61,
            "name": "C#4",
            "ticks": 49248,
            "time": 69.9544755,
            "velocity": 0.4881889763779528
          },
          {
            "duration": 0.13636350000000164,
            "durationTicks": 96,
            "midi": 49,
            "name": "C#3",
            "ticks": 49248,
            "time": 69.9544755,
            "velocity": 0.4881889763779528
          },
          {
            "duration": 0.13636350000000164,
            "durationTicks": 96,
            "midi": 49,
            "name": "C#3",
            "ticks": 49248,
            "time": 69.9544755,
            "velocity": 0.4881889763779528
          },
          {
            "duration": 0.13636350000000164,
            "durationTicks": 96,
            "midi": 61,
            "name": "C#4",
            "ticks": 49248,
            "time": 69.9544755,
            "velocity": 0.4881889763779528
          },
          {
            "duration": 0.13636350000000164,
            "durationTicks": 96,
            "midi": 49,
            "name": "C#3",
            "ticks": 49248,
            "time": 69.9544755,
            "velocity": 0.4881889763779528
          },
          {
            "duration": 0.13636350000000164,
            "durationTicks": 96,
            "midi": 49,
            "name": "C#3",
            "ticks": 49248,
            "time": 69.9544755,
            "velocity": 0.4881889763779528
          },
          {
            "duration": 0.2727270000000033,
            "durationTicks": 192,
            "midi": 61,
            "name": "C#4",
            "ticks": 49344,
            "time": 70.090839,
            "velocity": 0.4881889763779528
          },
          {
            "duration": 0.2727270000000033,
            "durationTicks": 192,
            "midi": 49,
            "name": "C#3",
            "ticks": 49344,
            "time": 70.090839,
            "velocity": 0.4881889763779528
          },
          {
            "duration": 0.2727270000000033,
            "durationTicks": 192,
            "midi": 61,
            "name": "C#4",
            "ticks": 49344,
            "time": 70.090839,
            "velocity": 0.4881889763779528
          },
          {
            "duration": 0.2727270000000033,
            "durationTicks": 192,
            "midi": 49,
            "name": "C#3",
            "ticks": 49344,
            "time": 70.090839,
            "velocity": 0.4881889763779528
          },
          {
            "duration": 0.2727270000000033,
            "durationTicks": 192,
            "midi": 49,
            "name": "C#3",
            "ticks": 49344,
            "time": 70.090839,
            "velocity": 0.4881889763779528
          },
          {
            "duration": 0.2727270000000033,
            "durationTicks": 192,
            "midi": 49,
            "name": "C#3",
            "ticks": 49344,
            "time": 70.090839,
            "velocity": 0.4881889763779528
          },
          {
            "duration": 0.2727270000000033,
            "durationTicks": 192,
            "midi": 49,
            "name": "C#3",
            "ticks": 49344,
            "time": 70.090839,
            "velocity": 0.4881889763779528
          },
          {
            "duration": 0.2727270000000033,
            "durationTicks": 192,
            "midi": 61,
            "name": "C#4",
            "ticks": 49344,
            "time": 70.090839,
            "velocity": 0.4881889763779528
          },
          {
            "duration": 0.2727270000000033,
            "durationTicks": 192,
            "midi": 61,
            "name": "C#4",
            "ticks": 49344,
            "time": 70.090839,
            "velocity": 0.4881889763779528
          },
          {
            "duration": 0.2727270000000033,
            "durationTicks": 192,
            "midi": 49,
            "name": "C#3",
            "ticks": 49344,
            "time": 70.090839,
            "velocity": 0.4881889763779528
          },
          {
            "duration": 0.2727270000000033,
            "durationTicks": 192,
            "midi": 61,
            "name": "C#4",
            "ticks": 49344,
            "time": 70.090839,
            "velocity": 0.4881889763779528
          },
          {
            "duration": 0.2727270000000033,
            "durationTicks": 192,
            "midi": 61,
            "name": "C#4",
            "ticks": 49344,
            "time": 70.090839,
            "velocity": 0.4881889763779528
          },
          {
            "duration": 0.13636349999998743,
            "durationTicks": 96,
            "midi": 49,
            "name": "C#3",
            "ticks": 49536,
            "time": 70.363566,
            "velocity": 0.4881889763779528
          },
          {
            "duration": 0.13636349999998743,
            "durationTicks": 96,
            "midi": 61,
            "name": "C#4",
            "ticks": 49536,
            "time": 70.363566,
            "velocity": 0.4881889763779528
          },
          {
            "duration": 0.13636349999998743,
            "durationTicks": 96,
            "midi": 49,
            "name": "C#3",
            "ticks": 49536,
            "time": 70.363566,
            "velocity": 0.4881889763779528
          },
          {
            "duration": 0.13636349999998743,
            "durationTicks": 96,
            "midi": 61,
            "name": "C#4",
            "ticks": 49536,
            "time": 70.363566,
            "velocity": 0.4881889763779528
          },
          {
            "duration": 0.13636349999998743,
            "durationTicks": 96,
            "midi": 49,
            "name": "C#3",
            "ticks": 49536,
            "time": 70.363566,
            "velocity": 0.4881889763779528
          },
          {
            "duration": 0.13636349999998743,
            "durationTicks": 96,
            "midi": 49,
            "name": "C#3",
            "ticks": 49536,
            "time": 70.363566,
            "velocity": 0.4881889763779528
          },
          {
            "duration": 0.13636349999998743,
            "durationTicks": 96,
            "midi": 61,
            "name": "C#4",
            "ticks": 49536,
            "time": 70.363566,
            "velocity": 0.4881889763779528
          },
          {
            "duration": 0.13636349999998743,
            "durationTicks": 96,
            "midi": 49,
            "name": "C#3",
            "ticks": 49536,
            "time": 70.363566,
            "velocity": 0.4881889763779528
          },
          {
            "duration": 0.13636349999998743,
            "durationTicks": 96,
            "midi": 61,
            "name": "C#4",
            "ticks": 49536,
            "time": 70.363566,
            "velocity": 0.4881889763779528
          },
          {
            "duration": 0.13636349999998743,
            "durationTicks": 96,
            "midi": 49,
            "name": "C#3",
            "ticks": 49536,
            "time": 70.363566,
            "velocity": 0.4881889763779528
          },
          {
            "duration": 0.13636349999998743,
            "durationTicks": 96,
            "midi": 61,
            "name": "C#4",
            "ticks": 49536,
            "time": 70.363566,
            "velocity": 0.4881889763779528
          },
          {
            "duration": 0.13636349999998743,
            "durationTicks": 96,
            "midi": 61,
            "name": "C#4",
            "ticks": 49536,
            "time": 70.363566,
            "velocity": 0.4881889763779528
          },
          {
            "duration": 0.13636350000000164,
            "durationTicks": 96,
            "midi": 61,
            "name": "C#4",
            "ticks": 49632,
            "time": 70.4999295,
            "velocity": 0.4881889763779528
          },
          {
            "duration": 0.13636350000000164,
            "durationTicks": 96,
            "midi": 61,
            "name": "C#4",
            "ticks": 49632,
            "time": 70.4999295,
            "velocity": 0.4881889763779528
          },
          {
            "duration": 0.13636350000000164,
            "durationTicks": 96,
            "midi": 49,
            "name": "C#3",
            "ticks": 49632,
            "time": 70.4999295,
            "velocity": 0.4881889763779528
          },
          {
            "duration": 0.13636350000000164,
            "durationTicks": 96,
            "midi": 61,
            "name": "C#4",
            "ticks": 49632,
            "time": 70.4999295,
            "velocity": 0.4881889763779528
          },
          {
            "duration": 0.13636350000000164,
            "durationTicks": 96,
            "midi": 49,
            "name": "C#3",
            "ticks": 49632,
            "time": 70.4999295,
            "velocity": 0.4881889763779528
          },
          {
            "duration": 0.13636350000000164,
            "durationTicks": 96,
            "midi": 49,
            "name": "C#3",
            "ticks": 49632,
            "time": 70.4999295,
            "velocity": 0.4881889763779528
          },
          {
            "duration": 0.13636350000000164,
            "durationTicks": 96,
            "midi": 49,
            "name": "C#3",
            "ticks": 49632,
            "time": 70.4999295,
            "velocity": 0.4881889763779528
          },
          {
            "duration": 0.13636350000000164,
            "durationTicks": 96,
            "midi": 61,
            "name": "C#4",
            "ticks": 49632,
            "time": 70.4999295,
            "velocity": 0.4881889763779528
          },
          {
            "duration": 0.13636350000000164,
            "durationTicks": 96,
            "midi": 61,
            "name": "C#4",
            "ticks": 49632,
            "time": 70.4999295,
            "velocity": 0.4881889763779528
          },
          {
            "duration": 0.13636350000000164,
            "durationTicks": 96,
            "midi": 49,
            "name": "C#3",
            "ticks": 49632,
            "time": 70.4999295,
            "velocity": 0.4881889763779528
          },
          {
            "duration": 0.13636350000000164,
            "durationTicks": 96,
            "midi": 61,
            "name": "C#4",
            "ticks": 49632,
            "time": 70.4999295,
            "velocity": 0.4881889763779528
          },
          {
            "duration": 0.13636350000000164,
            "durationTicks": 96,
            "midi": 49,
            "name": "C#3",
            "ticks": 49632,
            "time": 70.4999295,
            "velocity": 0.4881889763779528
          },
          {
            "duration": 0.2727270000000033,
            "durationTicks": 192,
            "midi": 61,
            "name": "C#4",
            "ticks": 49728,
            "time": 70.636293,
            "velocity": 0.4881889763779528
          },
          {
            "duration": 0.2727270000000033,
            "durationTicks": 192,
            "midi": 49,
            "name": "C#3",
            "ticks": 49728,
            "time": 70.636293,
            "velocity": 0.4881889763779528
          },
          {
            "duration": 0.2727270000000033,
            "durationTicks": 192,
            "midi": 49,
            "name": "C#3",
            "ticks": 49728,
            "time": 70.636293,
            "velocity": 0.4881889763779528
          },
          {
            "duration": 0.2727270000000033,
            "durationTicks": 192,
            "midi": 61,
            "name": "C#4",
            "ticks": 49728,
            "time": 70.636293,
            "velocity": 0.4881889763779528
          },
          {
            "duration": 0.2727270000000033,
            "durationTicks": 192,
            "midi": 61,
            "name": "C#4",
            "ticks": 49728,
            "time": 70.636293,
            "velocity": 0.4881889763779528
          },
          {
            "duration": 0.2727270000000033,
            "durationTicks": 192,
            "midi": 61,
            "name": "C#4",
            "ticks": 49728,
            "time": 70.636293,
            "velocity": 0.4881889763779528
          },
          {
            "duration": 0.2727270000000033,
            "durationTicks": 192,
            "midi": 61,
            "name": "C#4",
            "ticks": 49728,
            "time": 70.636293,
            "velocity": 0.4881889763779528
          },
          {
            "duration": 0.2727270000000033,
            "durationTicks": 192,
            "midi": 49,
            "name": "C#3",
            "ticks": 49728,
            "time": 70.636293,
            "velocity": 0.4881889763779528
          },
          {
            "duration": 0.2727270000000033,
            "durationTicks": 192,
            "midi": 49,
            "name": "C#3",
            "ticks": 49728,
            "time": 70.636293,
            "velocity": 0.4881889763779528
          },
          {
            "duration": 0.2727270000000033,
            "durationTicks": 192,
            "midi": 61,
            "name": "C#4",
            "ticks": 49728,
            "time": 70.636293,
            "velocity": 0.4881889763779528
          },
          {
            "duration": 0.2727270000000033,
            "durationTicks": 192,
            "midi": 49,
            "name": "C#3",
            "ticks": 49728,
            "time": 70.636293,
            "velocity": 0.4881889763779528
          },
          {
            "duration": 0.2727270000000033,
            "durationTicks": 192,
            "midi": 49,
            "name": "C#3",
            "ticks": 49728,
            "time": 70.636293,
            "velocity": 0.4881889763779528
          },
          {
            "duration": 0.5454540000000065,
            "durationTicks": 384,
            "midi": 87,
            "name": "D#6",
            "ticks": 49920,
            "time": 70.90902,
            "velocity": 0.4881889763779528
          },
          {
            "duration": 0.13636350000000164,
            "durationTicks": 96,
            "midi": 61,
            "name": "C#4",
            "ticks": 49920,
            "time": 70.90902,
            "velocity": 0.4881889763779528
          },
          {
            "duration": 0.13636350000000164,
            "durationTicks": 96,
            "midi": 61,
            "name": "C#4",
            "ticks": 49920,
            "time": 70.90902,
            "velocity": 0.4881889763779528
          },
          {
            "duration": 0.13636350000000164,
            "durationTicks": 96,
            "midi": 49,
            "name": "C#3",
            "ticks": 49920,
            "time": 70.90902,
            "velocity": 0.4881889763779528
          },
          {
            "duration": 0.5454540000000065,
            "durationTicks": 384,
            "midi": 99,
            "name": "D#7",
            "ticks": 49920,
            "time": 70.90902,
            "velocity": 0.4881889763779528
          },
          {
            "duration": 0.5454540000000065,
            "durationTicks": 384,
            "midi": 99,
            "name": "D#7",
            "ticks": 49920,
            "time": 70.90902,
            "velocity": 0.4881889763779528
          },
          {
            "duration": 0.13636350000000164,
            "durationTicks": 96,
            "midi": 49,
            "name": "C#3",
            "ticks": 49920,
            "time": 70.90902,
            "velocity": 0.4881889763779528
          },
          {
            "duration": 0.5454540000000065,
            "durationTicks": 384,
            "midi": 99,
            "name": "D#7",
            "ticks": 49920,
            "time": 70.90902,
            "velocity": 0.4881889763779528
          },
          {
            "duration": 0.5454540000000065,
            "durationTicks": 384,
            "midi": 87,
            "name": "D#6",
            "ticks": 49920,
            "time": 70.90902,
            "velocity": 0.4881889763779528
          },
          {
            "duration": 0.13636350000000164,
            "durationTicks": 96,
            "midi": 49,
            "name": "C#3",
            "ticks": 49920,
            "time": 70.90902,
            "velocity": 0.4881889763779528
          },
          {
            "duration": 0.5454540000000065,
            "durationTicks": 384,
            "midi": 99,
            "name": "D#7",
            "ticks": 49920,
            "time": 70.90902,
            "velocity": 0.4881889763779528
          },
          {
            "duration": 0.13636350000000164,
            "durationTicks": 96,
            "midi": 61,
            "name": "C#4",
            "ticks": 49920,
            "time": 70.90902,
            "velocity": 0.4881889763779528
          },
          {
            "duration": 0.5454540000000065,
            "durationTicks": 384,
            "midi": 87,
            "name": "D#6",
            "ticks": 49920,
            "time": 70.90902,
            "velocity": 0.4881889763779528
          },
          {
            "duration": 0.13636350000000164,
            "durationTicks": 96,
            "midi": 49,
            "name": "C#3",
            "ticks": 49920,
            "time": 70.90902,
            "velocity": 0.4881889763779528
          },
          {
            "duration": 0.5454540000000065,
            "durationTicks": 384,
            "midi": 87,
            "name": "D#6",
            "ticks": 49920,
            "time": 70.90902,
            "velocity": 0.4881889763779528
          },
          {
            "duration": 0.13636350000000164,
            "durationTicks": 96,
            "midi": 61,
            "name": "C#4",
            "ticks": 49920,
            "time": 70.90902,
            "velocity": 0.4881889763779528
          },
          {
            "duration": 0.13636350000000164,
            "durationTicks": 96,
            "midi": 61,
            "name": "C#4",
            "ticks": 49920,
            "time": 70.90902,
            "velocity": 0.4881889763779528
          },
          {
            "duration": 0.13636350000000164,
            "durationTicks": 96,
            "midi": 49,
            "name": "C#3",
            "ticks": 49920,
            "time": 70.90902,
            "velocity": 0.4881889763779528
          },
          {
            "duration": 0.5454540000000065,
            "durationTicks": 384,
            "midi": 99,
            "name": "D#7",
            "ticks": 49920,
            "time": 70.90902,
            "velocity": 0.4881889763779528
          },
          {
            "duration": 0.5454540000000065,
            "durationTicks": 384,
            "midi": 99,
            "name": "D#7",
            "ticks": 49920,
            "time": 70.90902,
            "velocity": 0.4881889763779528
          },
          {
            "duration": 0.13636350000000164,
            "durationTicks": 96,
            "midi": 49,
            "name": "C#3",
            "ticks": 49920,
            "time": 70.90902,
            "velocity": 0.4881889763779528
          },
          {
            "duration": 0.5454540000000065,
            "durationTicks": 384,
            "midi": 87,
            "name": "D#6",
            "ticks": 49920,
            "time": 70.90902,
            "velocity": 0.4881889763779528
          },
          {
            "duration": 0.13636350000000164,
            "durationTicks": 96,
            "midi": 61,
            "name": "C#4",
            "ticks": 49920,
            "time": 70.90902,
            "velocity": 0.4881889763779528
          },
          {
            "duration": 0.5454540000000065,
            "durationTicks": 384,
            "midi": 87,
            "name": "D#6",
            "ticks": 49920,
            "time": 70.90902,
            "velocity": 0.4881889763779528
          },
          {
            "duration": 0.13636350000000164,
            "durationTicks": 96,
            "midi": 52,
            "name": "E3",
            "ticks": 50016,
            "time": 71.0453835,
            "velocity": 0.4881889763779528
          },
          {
            "duration": 0.13636350000000164,
            "durationTicks": 96,
            "midi": 52,
            "name": "E3",
            "ticks": 50016,
            "time": 71.0453835,
            "velocity": 0.4881889763779528
          },
          {
            "duration": 0.13636350000000164,
            "durationTicks": 96,
            "midi": 64,
            "name": "E4",
            "ticks": 50016,
            "time": 71.0453835,
            "velocity": 0.4881889763779528
          },
          {
            "duration": 0.13636350000000164,
            "durationTicks": 96,
            "midi": 64,
            "name": "E4",
            "ticks": 50016,
            "time": 71.0453835,
            "velocity": 0.4881889763779528
          },
          {
            "duration": 0.13636350000000164,
            "durationTicks": 96,
            "midi": 64,
            "name": "E4",
            "ticks": 50016,
            "time": 71.0453835,
            "velocity": 0.4881889763779528
          },
          {
            "duration": 0.13636350000000164,
            "durationTicks": 96,
            "midi": 52,
            "name": "E3",
            "ticks": 50016,
            "time": 71.0453835,
            "velocity": 0.4881889763779528
          },
          {
            "duration": 0.13636350000000164,
            "durationTicks": 96,
            "midi": 64,
            "name": "E4",
            "ticks": 50016,
            "time": 71.0453835,
            "velocity": 0.4881889763779528
          },
          {
            "duration": 0.13636350000000164,
            "durationTicks": 96,
            "midi": 52,
            "name": "E3",
            "ticks": 50016,
            "time": 71.0453835,
            "velocity": 0.4881889763779528
          },
          {
            "duration": 0.13636350000000164,
            "durationTicks": 96,
            "midi": 52,
            "name": "E3",
            "ticks": 50016,
            "time": 71.0453835,
            "velocity": 0.4881889763779528
          },
          {
            "duration": 0.13636350000000164,
            "durationTicks": 96,
            "midi": 52,
            "name": "E3",
            "ticks": 50016,
            "time": 71.0453835,
            "velocity": 0.4881889763779528
          },
          {
            "duration": 0.13636350000000164,
            "durationTicks": 96,
            "midi": 64,
            "name": "E4",
            "ticks": 50016,
            "time": 71.0453835,
            "velocity": 0.4881889763779528
          },
          {
            "duration": 0.13636350000000164,
            "durationTicks": 96,
            "midi": 64,
            "name": "E4",
            "ticks": 50016,
            "time": 71.0453835,
            "velocity": 0.4881889763779528
          },
          {
            "duration": 0.2727270000000033,
            "durationTicks": 192,
            "midi": 52,
            "name": "E3",
            "ticks": 50112,
            "time": 71.181747,
            "velocity": 0.4881889763779528
          },
          {
            "duration": 0.2727270000000033,
            "durationTicks": 192,
            "midi": 64,
            "name": "E4",
            "ticks": 50112,
            "time": 71.181747,
            "velocity": 0.4881889763779528
          },
          {
            "duration": 0.2727270000000033,
            "durationTicks": 192,
            "midi": 64,
            "name": "E4",
            "ticks": 50112,
            "time": 71.181747,
            "velocity": 0.4881889763779528
          },
          {
            "duration": 0.2727270000000033,
            "durationTicks": 192,
            "midi": 64,
            "name": "E4",
            "ticks": 50112,
            "time": 71.181747,
            "velocity": 0.4881889763779528
          },
          {
            "duration": 0.2727270000000033,
            "durationTicks": 192,
            "midi": 52,
            "name": "E3",
            "ticks": 50112,
            "time": 71.181747,
            "velocity": 0.4881889763779528
          },
          {
            "duration": 0.2727270000000033,
            "durationTicks": 192,
            "midi": 52,
            "name": "E3",
            "ticks": 50112,
            "time": 71.181747,
            "velocity": 0.4881889763779528
          },
          {
            "duration": 0.2727270000000033,
            "durationTicks": 192,
            "midi": 52,
            "name": "E3",
            "ticks": 50112,
            "time": 71.181747,
            "velocity": 0.4881889763779528
          },
          {
            "duration": 0.2727270000000033,
            "durationTicks": 192,
            "midi": 64,
            "name": "E4",
            "ticks": 50112,
            "time": 71.181747,
            "velocity": 0.4881889763779528
          },
          {
            "duration": 0.2727270000000033,
            "durationTicks": 192,
            "midi": 52,
            "name": "E3",
            "ticks": 50112,
            "time": 71.181747,
            "velocity": 0.4881889763779528
          },
          {
            "duration": 0.2727270000000033,
            "durationTicks": 192,
            "midi": 64,
            "name": "E4",
            "ticks": 50112,
            "time": 71.181747,
            "velocity": 0.4881889763779528
          },
          {
            "duration": 0.2727270000000033,
            "durationTicks": 192,
            "midi": 52,
            "name": "E3",
            "ticks": 50112,
            "time": 71.181747,
            "velocity": 0.4881889763779528
          },
          {
            "duration": 0.2727270000000033,
            "durationTicks": 192,
            "midi": 64,
            "name": "E4",
            "ticks": 50112,
            "time": 71.181747,
            "velocity": 0.4881889763779528
          },
          {
            "duration": 0.27272699999998906,
            "durationTicks": 192,
            "midi": 56,
            "name": "G#3",
            "ticks": 50304,
            "time": 71.454474,
            "velocity": 0.4881889763779528
          },
          {
            "duration": 0.27272699999998906,
            "durationTicks": 192,
            "midi": 68,
            "name": "G#4",
            "ticks": 50304,
            "time": 71.454474,
            "velocity": 0.4881889763779528
          },
          {
            "duration": 0.5454539999999923,
            "durationTicks": 384,
            "midi": 85,
            "name": "C#6",
            "ticks": 50304,
            "time": 71.454474,
            "velocity": 0.4881889763779528
          },
          {
            "duration": 0.5454539999999923,
            "durationTicks": 384,
            "midi": 97,
            "name": "C#7",
            "ticks": 50304,
            "time": 71.454474,
            "velocity": 0.4881889763779528
          },
          {
            "duration": 0.5454539999999923,
            "durationTicks": 384,
            "midi": 97,
            "name": "C#7",
            "ticks": 50304,
            "time": 71.454474,
            "velocity": 0.4881889763779528
          },
          {
            "duration": 0.5454539999999923,
            "durationTicks": 384,
            "midi": 85,
            "name": "C#6",
            "ticks": 50304,
            "time": 71.454474,
            "velocity": 0.4881889763779528
          },
          {
            "duration": 0.27272699999998906,
            "durationTicks": 192,
            "midi": 68,
            "name": "G#4",
            "ticks": 50304,
            "time": 71.454474,
            "velocity": 0.4881889763779528
          },
          {
            "duration": 0.5454539999999923,
            "durationTicks": 384,
            "midi": 97,
            "name": "C#7",
            "ticks": 50304,
            "time": 71.454474,
            "velocity": 0.4881889763779528
          },
          {
            "duration": 0.27272699999998906,
            "durationTicks": 192,
            "midi": 56,
            "name": "G#3",
            "ticks": 50304,
            "time": 71.454474,
            "velocity": 0.4881889763779528
          },
          {
            "duration": 0.5454539999999923,
            "durationTicks": 384,
            "midi": 85,
            "name": "C#6",
            "ticks": 50304,
            "time": 71.454474,
            "velocity": 0.4881889763779528
          },
          {
            "duration": 0.5454539999999923,
            "durationTicks": 384,
            "midi": 85,
            "name": "C#6",
            "ticks": 50304,
            "time": 71.454474,
            "velocity": 0.4881889763779528
          },
          {
            "duration": 0.5454539999999923,
            "durationTicks": 384,
            "midi": 97,
            "name": "C#7",
            "ticks": 50304,
            "time": 71.454474,
            "velocity": 0.4881889763779528
          },
          {
            "duration": 0.27272699999998906,
            "durationTicks": 192,
            "midi": 56,
            "name": "G#3",
            "ticks": 50304,
            "time": 71.454474,
            "velocity": 0.4881889763779528
          },
          {
            "duration": 0.27272699999998906,
            "durationTicks": 192,
            "midi": 68,
            "name": "G#4",
            "ticks": 50304,
            "time": 71.454474,
            "velocity": 0.4881889763779528
          },
          {
            "duration": 0.27272699999998906,
            "durationTicks": 192,
            "midi": 56,
            "name": "G#3",
            "ticks": 50304,
            "time": 71.454474,
            "velocity": 0.4881889763779528
          },
          {
            "duration": 0.27272699999998906,
            "durationTicks": 192,
            "midi": 56,
            "name": "G#3",
            "ticks": 50304,
            "time": 71.454474,
            "velocity": 0.4881889763779528
          },
          {
            "duration": 0.5454539999999923,
            "durationTicks": 384,
            "midi": 85,
            "name": "C#6",
            "ticks": 50304,
            "time": 71.454474,
            "velocity": 0.4881889763779528
          },
          {
            "duration": 0.27272699999998906,
            "durationTicks": 192,
            "midi": 56,
            "name": "G#3",
            "ticks": 50304,
            "time": 71.454474,
            "velocity": 0.4881889763779528
          },
          {
            "duration": 0.5454539999999923,
            "durationTicks": 384,
            "midi": 97,
            "name": "C#7",
            "ticks": 50304,
            "time": 71.454474,
            "velocity": 0.4881889763779528
          },
          {
            "duration": 0.27272699999998906,
            "durationTicks": 192,
            "midi": 68,
            "name": "G#4",
            "ticks": 50304,
            "time": 71.454474,
            "velocity": 0.4881889763779528
          },
          {
            "duration": 0.5454539999999923,
            "durationTicks": 384,
            "midi": 85,
            "name": "C#6",
            "ticks": 50304,
            "time": 71.454474,
            "velocity": 0.4881889763779528
          },
          {
            "duration": 0.27272699999998906,
            "durationTicks": 192,
            "midi": 68,
            "name": "G#4",
            "ticks": 50304,
            "time": 71.454474,
            "velocity": 0.4881889763779528
          },
          {
            "duration": 0.5454539999999923,
            "durationTicks": 384,
            "midi": 97,
            "name": "C#7",
            "ticks": 50304,
            "time": 71.454474,
            "velocity": 0.4881889763779528
          },
          {
            "duration": 0.27272699999998906,
            "durationTicks": 192,
            "midi": 68,
            "name": "G#4",
            "ticks": 50304,
            "time": 71.454474,
            "velocity": 0.4881889763779528
          },
          {
            "duration": 0.2727270000000033,
            "durationTicks": 192,
            "midi": 59,
            "name": "B3",
            "ticks": 50496,
            "time": 71.727201,
            "velocity": 0.4881889763779528
          },
          {
            "duration": 0.2727270000000033,
            "durationTicks": 192,
            "midi": 59,
            "name": "B3",
            "ticks": 50496,
            "time": 71.727201,
            "velocity": 0.4881889763779528
          },
          {
            "duration": 0.2727270000000033,
            "durationTicks": 192,
            "midi": 59,
            "name": "B3",
            "ticks": 50496,
            "time": 71.727201,
            "velocity": 0.4881889763779528
          },
          {
            "duration": 0.2727270000000033,
            "durationTicks": 192,
            "midi": 59,
            "name": "B3",
            "ticks": 50496,
            "time": 71.727201,
            "velocity": 0.4881889763779528
          },
          {
            "duration": 0.2727270000000033,
            "durationTicks": 192,
            "midi": 59,
            "name": "B3",
            "ticks": 50496,
            "time": 71.727201,
            "velocity": 0.4881889763779528
          },
          {
            "duration": 0.2727270000000033,
            "durationTicks": 192,
            "midi": 47,
            "name": "B2",
            "ticks": 50496,
            "time": 71.727201,
            "velocity": 0.4881889763779528
          },
          {
            "duration": 0.2727270000000033,
            "durationTicks": 192,
            "midi": 47,
            "name": "B2",
            "ticks": 50496,
            "time": 71.727201,
            "velocity": 0.4881889763779528
          },
          {
            "duration": 0.2727270000000033,
            "durationTicks": 192,
            "midi": 47,
            "name": "B2",
            "ticks": 50496,
            "time": 71.727201,
            "velocity": 0.4881889763779528
          },
          {
            "duration": 0.2727270000000033,
            "durationTicks": 192,
            "midi": 47,
            "name": "B2",
            "ticks": 50496,
            "time": 71.727201,
            "velocity": 0.4881889763779528
          },
          {
            "duration": 0.2727270000000033,
            "durationTicks": 192,
            "midi": 47,
            "name": "B2",
            "ticks": 50496,
            "time": 71.727201,
            "velocity": 0.4881889763779528
          },
          {
            "duration": 0.2727270000000033,
            "durationTicks": 192,
            "midi": 47,
            "name": "B2",
            "ticks": 50496,
            "time": 71.727201,
            "velocity": 0.4881889763779528
          },
          {
            "duration": 0.2727270000000033,
            "durationTicks": 192,
            "midi": 59,
            "name": "B3",
            "ticks": 50496,
            "time": 71.727201,
            "velocity": 0.4881889763779528
          },
          {
            "duration": 1.0909079999999989,
            "durationTicks": 768,
            "midi": 97,
            "name": "C#7",
            "ticks": 50688,
            "time": 71.999928,
            "velocity": 0.4881889763779528
          },
          {
            "duration": 1.0909079999999989,
            "durationTicks": 768,
            "midi": 100,
            "name": "E7",
            "ticks": 50688,
            "time": 71.999928,
            "velocity": 0.4881889763779528
          },
          {
            "duration": 0.13636350000000164,
            "durationTicks": 96,
            "midi": 45,
            "name": "A2",
            "ticks": 50688,
            "time": 71.999928,
            "velocity": 0.4881889763779528
          },
          {
            "duration": 1.0909079999999989,
            "durationTicks": 768,
            "midi": 100,
            "name": "E7",
            "ticks": 50688,
            "time": 71.999928,
            "velocity": 0.4881889763779528
          },
          {
            "duration": 1.0909079999999989,
            "durationTicks": 768,
            "midi": 93,
            "name": "A6",
            "ticks": 50688,
            "time": 71.999928,
            "velocity": 0.4881889763779528
          },
          {
            "duration": 1.0909079999999989,
            "durationTicks": 768,
            "midi": 93,
            "name": "A6",
            "ticks": 50688,
            "time": 71.999928,
            "velocity": 0.4881889763779528
          },
          {
            "duration": 1.0909079999999989,
            "durationTicks": 768,
            "midi": 100,
            "name": "E7",
            "ticks": 50688,
            "time": 71.999928,
            "velocity": 0.4881889763779528
          },
          {
            "duration": 1.0909079999999989,
            "durationTicks": 768,
            "midi": 93,
            "name": "A6",
            "ticks": 50688,
            "time": 71.999928,
            "velocity": 0.4881889763779528
          },
          {
            "duration": 1.0909079999999989,
            "durationTicks": 768,
            "midi": 100,
            "name": "E7",
            "ticks": 50688,
            "time": 71.999928,
            "velocity": 0.4881889763779528
          },
          {
            "duration": 0.13636350000000164,
            "durationTicks": 96,
            "midi": 57,
            "name": "A3",
            "ticks": 50688,
            "time": 71.999928,
            "velocity": 0.4881889763779528
          },
          {
            "duration": 1.0909079999999989,
            "durationTicks": 768,
            "midi": 88,
            "name": "E6",
            "ticks": 50688,
            "time": 71.999928,
            "velocity": 0.4881889763779528
          },
          {
            "duration": 1.0909079999999989,
            "durationTicks": 768,
            "midi": 88,
            "name": "E6",
            "ticks": 50688,
            "time": 71.999928,
            "velocity": 0.4881889763779528
          },
          {
            "duration": 0.13636350000000164,
            "durationTicks": 96,
            "midi": 57,
            "name": "A3",
            "ticks": 50688,
            "time": 71.999928,
            "velocity": 0.4881889763779528
          },
          {
            "duration": 1.0909079999999989,
            "durationTicks": 768,
            "midi": 93,
            "name": "A6",
            "ticks": 50688,
            "time": 71.999928,
            "velocity": 0.4881889763779528
          },
          {
            "duration": 0.13636350000000164,
            "durationTicks": 96,
            "midi": 45,
            "name": "A2",
            "ticks": 50688,
            "time": 71.999928,
            "velocity": 0.4881889763779528
          },
          {
            "duration": 1.0909079999999989,
            "durationTicks": 768,
            "midi": 97,
            "name": "C#7",
            "ticks": 50688,
            "time": 71.999928,
            "velocity": 0.4881889763779528
          },
          {
            "duration": 0.13636350000000164,
            "durationTicks": 96,
            "midi": 45,
            "name": "A2",
            "ticks": 50688,
            "time": 71.999928,
            "velocity": 0.4881889763779528
          },
          {
            "duration": 1.0909079999999989,
            "durationTicks": 768,
            "midi": 88,
            "name": "E6",
            "ticks": 50688,
            "time": 71.999928,
            "velocity": 0.4881889763779528
          },
          {
            "duration": 1.0909079999999989,
            "durationTicks": 768,
            "midi": 97,
            "name": "C#7",
            "ticks": 50688,
            "time": 71.999928,
            "velocity": 0.4881889763779528
          },
          {
            "duration": 1.0909079999999989,
            "durationTicks": 768,
            "midi": 88,
            "name": "E6",
            "ticks": 50688,
            "time": 71.999928,
            "velocity": 0.4881889763779528
          },
          {
            "duration": 1.0909079999999989,
            "durationTicks": 768,
            "midi": 88,
            "name": "E6",
            "ticks": 50688,
            "time": 71.999928,
            "velocity": 0.4881889763779528
          },
          {
            "duration": 1.0909079999999989,
            "durationTicks": 768,
            "midi": 97,
            "name": "C#7",
            "ticks": 50688,
            "time": 71.999928,
            "velocity": 0.4881889763779528
          },
          {
            "duration": 0.13636350000000164,
            "durationTicks": 96,
            "midi": 45,
            "name": "A2",
            "ticks": 50688,
            "time": 71.999928,
            "velocity": 0.4881889763779528
          },
          {
            "duration": 0.13636350000000164,
            "durationTicks": 96,
            "midi": 57,
            "name": "A3",
            "ticks": 50688,
            "time": 71.999928,
            "velocity": 0.4881889763779528
          },
          {
            "duration": 1.0909079999999989,
            "durationTicks": 768,
            "midi": 100,
            "name": "E7",
            "ticks": 50688,
            "time": 71.999928,
            "velocity": 0.4881889763779528
          },
          {
            "duration": 1.0909079999999989,
            "durationTicks": 768,
            "midi": 93,
            "name": "A6",
            "ticks": 50688,
            "time": 71.999928,
            "velocity": 0.4881889763779528
          },
          {
            "duration": 1.0909079999999989,
            "durationTicks": 768,
            "midi": 97,
            "name": "C#7",
            "ticks": 50688,
            "time": 71.999928,
            "velocity": 0.4881889763779528
          },
          {
            "duration": 1.0909079999999989,
            "durationTicks": 768,
            "midi": 93,
            "name": "A6",
            "ticks": 50688,
            "time": 71.999928,
            "velocity": 0.4881889763779528
          },
          {
            "duration": 0.13636350000000164,
            "durationTicks": 96,
            "midi": 45,
            "name": "A2",
            "ticks": 50688,
            "time": 71.999928,
            "velocity": 0.4881889763779528
          },
          {
            "duration": 0.13636350000000164,
            "durationTicks": 96,
            "midi": 57,
            "name": "A3",
            "ticks": 50688,
            "time": 71.999928,
            "velocity": 0.4881889763779528
          },
          {
            "duration": 1.0909079999999989,
            "durationTicks": 768,
            "midi": 100,
            "name": "E7",
            "ticks": 50688,
            "time": 71.999928,
            "velocity": 0.4881889763779528
          },
          {
            "duration": 0.13636350000000164,
            "durationTicks": 96,
            "midi": 45,
            "name": "A2",
            "ticks": 50688,
            "time": 71.999928,
            "velocity": 0.4881889763779528
          },
          {
            "duration": 0.13636350000000164,
            "durationTicks": 96,
            "midi": 57,
            "name": "A3",
            "ticks": 50688,
            "time": 71.999928,
            "velocity": 0.4881889763779528
          },
          {
            "duration": 1.0909079999999989,
            "durationTicks": 768,
            "midi": 97,
            "name": "C#7",
            "ticks": 50688,
            "time": 71.999928,
            "velocity": 0.4881889763779528
          },
          {
            "duration": 0.13636350000000164,
            "durationTicks": 96,
            "midi": 57,
            "name": "A3",
            "ticks": 50688,
            "time": 71.999928,
            "velocity": 0.4881889763779528
          },
          {
            "duration": 1.0909079999999989,
            "durationTicks": 768,
            "midi": 88,
            "name": "E6",
            "ticks": 50688,
            "time": 71.999928,
            "velocity": 0.4881889763779528
          },
          {
            "duration": 0.13636350000000164,
            "durationTicks": 96,
            "midi": 45,
            "name": "A2",
            "ticks": 50784,
            "time": 72.1362915,
            "velocity": 0.4881889763779528
          },
          {
            "duration": 0.13636350000000164,
            "durationTicks": 96,
            "midi": 57,
            "name": "A3",
            "ticks": 50784,
            "time": 72.1362915,
            "velocity": 0.4881889763779528
          },
          {
            "duration": 0.13636350000000164,
            "durationTicks": 96,
            "midi": 57,
            "name": "A3",
            "ticks": 50784,
            "time": 72.1362915,
            "velocity": 0.4881889763779528
          },
          {
            "duration": 0.13636350000000164,
            "durationTicks": 96,
            "midi": 57,
            "name": "A3",
            "ticks": 50784,
            "time": 72.1362915,
            "velocity": 0.4881889763779528
          },
          {
            "duration": 0.13636350000000164,
            "durationTicks": 96,
            "midi": 45,
            "name": "A2",
            "ticks": 50784,
            "time": 72.1362915,
            "velocity": 0.4881889763779528
          },
          {
            "duration": 0.13636350000000164,
            "durationTicks": 96,
            "midi": 57,
            "name": "A3",
            "ticks": 50784,
            "time": 72.1362915,
            "velocity": 0.4881889763779528
          },
          {
            "duration": 0.13636350000000164,
            "durationTicks": 96,
            "midi": 57,
            "name": "A3",
            "ticks": 50784,
            "time": 72.1362915,
            "velocity": 0.4881889763779528
          },
          {
            "duration": 0.13636350000000164,
            "durationTicks": 96,
            "midi": 45,
            "name": "A2",
            "ticks": 50784,
            "time": 72.1362915,
            "velocity": 0.4881889763779528
          },
          {
            "duration": 0.13636350000000164,
            "durationTicks": 96,
            "midi": 45,
            "name": "A2",
            "ticks": 50784,
            "time": 72.1362915,
            "velocity": 0.4881889763779528
          },
          {
            "duration": 0.13636350000000164,
            "durationTicks": 96,
            "midi": 57,
            "name": "A3",
            "ticks": 50784,
            "time": 72.1362915,
            "velocity": 0.4881889763779528
          },
          {
            "duration": 0.13636350000000164,
            "durationTicks": 96,
            "midi": 45,
            "name": "A2",
            "ticks": 50784,
            "time": 72.1362915,
            "velocity": 0.4881889763779528
          },
          {
            "duration": 0.13636350000000164,
            "durationTicks": 96,
            "midi": 45,
            "name": "A2",
            "ticks": 50784,
            "time": 72.1362915,
            "velocity": 0.4881889763779528
          },
          {
            "duration": 0.2727270000000033,
            "durationTicks": 192,
            "midi": 57,
            "name": "A3",
            "ticks": 50880,
            "time": 72.272655,
            "velocity": 0.4881889763779528
          },
          {
            "duration": 0.2727270000000033,
            "durationTicks": 192,
            "midi": 57,
            "name": "A3",
            "ticks": 50880,
            "time": 72.272655,
            "velocity": 0.4881889763779528
          },
          {
            "duration": 0.2727270000000033,
            "durationTicks": 192,
            "midi": 45,
            "name": "A2",
            "ticks": 50880,
            "time": 72.272655,
            "velocity": 0.4881889763779528
          },
          {
            "duration": 0.2727270000000033,
            "durationTicks": 192,
            "midi": 57,
            "name": "A3",
            "ticks": 50880,
            "time": 72.272655,
            "velocity": 0.4881889763779528
          },
          {
            "duration": 0.2727270000000033,
            "durationTicks": 192,
            "midi": 57,
            "name": "A3",
            "ticks": 50880,
            "time": 72.272655,
            "velocity": 0.4881889763779528
          },
          {
            "duration": 0.2727270000000033,
            "durationTicks": 192,
            "midi": 57,
            "name": "A3",
            "ticks": 50880,
            "time": 72.272655,
            "velocity": 0.4881889763779528
          },
          {
            "duration": 0.2727270000000033,
            "durationTicks": 192,
            "midi": 45,
            "name": "A2",
            "ticks": 50880,
            "time": 72.272655,
            "velocity": 0.4881889763779528
          },
          {
            "duration": 0.2727270000000033,
            "durationTicks": 192,
            "midi": 45,
            "name": "A2",
            "ticks": 50880,
            "time": 72.272655,
            "velocity": 0.4881889763779528
          },
          {
            "duration": 0.2727270000000033,
            "durationTicks": 192,
            "midi": 57,
            "name": "A3",
            "ticks": 50880,
            "time": 72.272655,
            "velocity": 0.4881889763779528
          },
          {
            "duration": 0.2727270000000033,
            "durationTicks": 192,
            "midi": 45,
            "name": "A2",
            "ticks": 50880,
            "time": 72.272655,
            "velocity": 0.4881889763779528
          },
          {
            "duration": 0.2727270000000033,
            "durationTicks": 192,
            "midi": 45,
            "name": "A2",
            "ticks": 50880,
            "time": 72.272655,
            "velocity": 0.4881889763779528
          },
          {
            "duration": 0.2727270000000033,
            "durationTicks": 192,
            "midi": 45,
            "name": "A2",
            "ticks": 50880,
            "time": 72.272655,
            "velocity": 0.4881889763779528
          },
          {
            "duration": 0.13636350000000164,
            "durationTicks": 96,
            "midi": 57,
            "name": "A3",
            "ticks": 51072,
            "time": 72.545382,
            "velocity": 0.4881889763779528
          },
          {
            "duration": 0.13636350000000164,
            "durationTicks": 96,
            "midi": 45,
            "name": "A2",
            "ticks": 51072,
            "time": 72.545382,
            "velocity": 0.4881889763779528
          },
          {
            "duration": 0.13636350000000164,
            "durationTicks": 96,
            "midi": 45,
            "name": "A2",
            "ticks": 51072,
            "time": 72.545382,
            "velocity": 0.4881889763779528
          },
          {
            "duration": 0.13636350000000164,
            "durationTicks": 96,
            "midi": 57,
            "name": "A3",
            "ticks": 51072,
            "time": 72.545382,
            "velocity": 0.4881889763779528
          },
          {
            "duration": 0.13636350000000164,
            "durationTicks": 96,
            "midi": 57,
            "name": "A3",
            "ticks": 51072,
            "time": 72.545382,
            "velocity": 0.4881889763779528
          },
          {
            "duration": 0.13636350000000164,
            "durationTicks": 96,
            "midi": 45,
            "name": "A2",
            "ticks": 51072,
            "time": 72.545382,
            "velocity": 0.4881889763779528
          },
          {
            "duration": 0.13636350000000164,
            "durationTicks": 96,
            "midi": 57,
            "name": "A3",
            "ticks": 51072,
            "time": 72.545382,
            "velocity": 0.4881889763779528
          },
          {
            "duration": 0.13636350000000164,
            "durationTicks": 96,
            "midi": 45,
            "name": "A2",
            "ticks": 51072,
            "time": 72.545382,
            "velocity": 0.4881889763779528
          },
          {
            "duration": 0.13636350000000164,
            "durationTicks": 96,
            "midi": 57,
            "name": "A3",
            "ticks": 51072,
            "time": 72.545382,
            "velocity": 0.4881889763779528
          },
          {
            "duration": 0.13636350000000164,
            "durationTicks": 96,
            "midi": 57,
            "name": "A3",
            "ticks": 51072,
            "time": 72.545382,
            "velocity": 0.4881889763779528
          },
          {
            "duration": 0.13636350000000164,
            "durationTicks": 96,
            "midi": 45,
            "name": "A2",
            "ticks": 51072,
            "time": 72.545382,
            "velocity": 0.4881889763779528
          },
          {
            "duration": 0.13636350000000164,
            "durationTicks": 96,
            "midi": 45,
            "name": "A2",
            "ticks": 51072,
            "time": 72.545382,
            "velocity": 0.4881889763779528
          },
          {
            "duration": 0.13636349999998743,
            "durationTicks": 96,
            "midi": 57,
            "name": "A3",
            "ticks": 51168,
            "time": 72.6817455,
            "velocity": 0.4881889763779528
          },
          {
            "duration": 0.13636349999998743,
            "durationTicks": 96,
            "midi": 57,
            "name": "A3",
            "ticks": 51168,
            "time": 72.6817455,
            "velocity": 0.4881889763779528
          },
          {
            "duration": 0.13636349999998743,
            "durationTicks": 96,
            "midi": 45,
            "name": "A2",
            "ticks": 51168,
            "time": 72.6817455,
            "velocity": 0.4881889763779528
          },
          {
            "duration": 0.13636349999998743,
            "durationTicks": 96,
            "midi": 45,
            "name": "A2",
            "ticks": 51168,
            "time": 72.6817455,
            "velocity": 0.4881889763779528
          },
          {
            "duration": 0.13636349999998743,
            "durationTicks": 96,
            "midi": 57,
            "name": "A3",
            "ticks": 51168,
            "time": 72.6817455,
            "velocity": 0.4881889763779528
          },
          {
            "duration": 0.13636349999998743,
            "durationTicks": 96,
            "midi": 45,
            "name": "A2",
            "ticks": 51168,
            "time": 72.6817455,
            "velocity": 0.4881889763779528
          },
          {
            "duration": 0.13636349999998743,
            "durationTicks": 96,
            "midi": 57,
            "name": "A3",
            "ticks": 51168,
            "time": 72.6817455,
            "velocity": 0.4881889763779528
          },
          {
            "duration": 0.13636349999998743,
            "durationTicks": 96,
            "midi": 45,
            "name": "A2",
            "ticks": 51168,
            "time": 72.6817455,
            "velocity": 0.4881889763779528
          },
          {
            "duration": 0.13636349999998743,
            "durationTicks": 96,
            "midi": 57,
            "name": "A3",
            "ticks": 51168,
            "time": 72.6817455,
            "velocity": 0.4881889763779528
          },
          {
            "duration": 0.13636349999998743,
            "durationTicks": 96,
            "midi": 45,
            "name": "A2",
            "ticks": 51168,
            "time": 72.6817455,
            "velocity": 0.4881889763779528
          },
          {
            "duration": 0.13636349999998743,
            "durationTicks": 96,
            "midi": 57,
            "name": "A3",
            "ticks": 51168,
            "time": 72.6817455,
            "velocity": 0.4881889763779528
          },
          {
            "duration": 0.13636349999998743,
            "durationTicks": 96,
            "midi": 45,
            "name": "A2",
            "ticks": 51168,
            "time": 72.6817455,
            "velocity": 0.4881889763779528
          },
          {
            "duration": 0.2727270000000033,
            "durationTicks": 192,
            "midi": 45,
            "name": "A2",
            "ticks": 51264,
            "time": 72.81810899999999,
            "velocity": 0.4881889763779528
          },
          {
            "duration": 0.2727270000000033,
            "durationTicks": 192,
            "midi": 57,
            "name": "A3",
            "ticks": 51264,
            "time": 72.81810899999999,
            "velocity": 0.4881889763779528
          },
          {
            "duration": 0.2727270000000033,
            "durationTicks": 192,
            "midi": 57,
            "name": "A3",
            "ticks": 51264,
            "time": 72.81810899999999,
            "velocity": 0.4881889763779528
          },
          {
            "duration": 0.2727270000000033,
            "durationTicks": 192,
            "midi": 45,
            "name": "A2",
            "ticks": 51264,
            "time": 72.81810899999999,
            "velocity": 0.4881889763779528
          },
          {
            "duration": 0.2727270000000033,
            "durationTicks": 192,
            "midi": 45,
            "name": "A2",
            "ticks": 51264,
            "time": 72.81810899999999,
            "velocity": 0.4881889763779528
          },
          {
            "duration": 0.2727270000000033,
            "durationTicks": 192,
            "midi": 57,
            "name": "A3",
            "ticks": 51264,
            "time": 72.81810899999999,
            "velocity": 0.4881889763779528
          },
          {
            "duration": 0.2727270000000033,
            "durationTicks": 192,
            "midi": 57,
            "name": "A3",
            "ticks": 51264,
            "time": 72.81810899999999,
            "velocity": 0.4881889763779528
          },
          {
            "duration": 0.2727270000000033,
            "durationTicks": 192,
            "midi": 57,
            "name": "A3",
            "ticks": 51264,
            "time": 72.81810899999999,
            "velocity": 0.4881889763779528
          },
          {
            "duration": 0.2727270000000033,
            "durationTicks": 192,
            "midi": 57,
            "name": "A3",
            "ticks": 51264,
            "time": 72.81810899999999,
            "velocity": 0.4881889763779528
          },
          {
            "duration": 0.2727270000000033,
            "durationTicks": 192,
            "midi": 45,
            "name": "A2",
            "ticks": 51264,
            "time": 72.81810899999999,
            "velocity": 0.4881889763779528
          },
          {
            "duration": 0.2727270000000033,
            "durationTicks": 192,
            "midi": 45,
            "name": "A2",
            "ticks": 51264,
            "time": 72.81810899999999,
            "velocity": 0.4881889763779528
          },
          {
            "duration": 0.2727270000000033,
            "durationTicks": 192,
            "midi": 45,
            "name": "A2",
            "ticks": 51264,
            "time": 72.81810899999999,
            "velocity": 0.4881889763779528
          },
          {
            "duration": 0.13636350000000164,
            "durationTicks": 96,
            "midi": 45,
            "name": "A2",
            "ticks": 51456,
            "time": 73.090836,
            "velocity": 0.4881889763779528
          },
          {
            "duration": 0.5454540000000065,
            "durationTicks": 384,
            "midi": 87,
            "name": "D#6",
            "ticks": 51456,
            "time": 73.090836,
            "velocity": 0.4881889763779528
          },
          {
            "duration": 0.13636350000000164,
            "durationTicks": 96,
            "midi": 57,
            "name": "A3",
            "ticks": 51456,
            "time": 73.090836,
            "velocity": 0.4881889763779528
          },
          {
            "duration": 0.5454540000000065,
            "durationTicks": 384,
            "midi": 87,
            "name": "D#6",
            "ticks": 51456,
            "time": 73.090836,
            "velocity": 0.4881889763779528
          },
          {
            "duration": 0.13636350000000164,
            "durationTicks": 96,
            "midi": 57,
            "name": "A3",
            "ticks": 51456,
            "time": 73.090836,
            "velocity": 0.4881889763779528
          },
          {
            "duration": 0.13636350000000164,
            "durationTicks": 96,
            "midi": 57,
            "name": "A3",
            "ticks": 51456,
            "time": 73.090836,
            "velocity": 0.4881889763779528
          },
          {
            "duration": 0.13636350000000164,
            "durationTicks": 96,
            "midi": 45,
            "name": "A2",
            "ticks": 51456,
            "time": 73.090836,
            "velocity": 0.4881889763779528
          },
          {
            "duration": 0.13636350000000164,
            "durationTicks": 96,
            "midi": 57,
            "name": "A3",
            "ticks": 51456,
            "time": 73.090836,
            "velocity": 0.4881889763779528
          },
          {
            "duration": 0.5454540000000065,
            "durationTicks": 384,
            "midi": 99,
            "name": "D#7",
            "ticks": 51456,
            "time": 73.090836,
            "velocity": 0.4881889763779528
          },
          {
            "duration": 0.5454540000000065,
            "durationTicks": 384,
            "midi": 99,
            "name": "D#7",
            "ticks": 51456,
            "time": 73.090836,
            "velocity": 0.4881889763779528
          },
          {
            "duration": 0.13636350000000164,
            "durationTicks": 96,
            "midi": 45,
            "name": "A2",
            "ticks": 51456,
            "time": 73.090836,
            "velocity": 0.4881889763779528
          },
          {
            "duration": 0.5454540000000065,
            "durationTicks": 384,
            "midi": 87,
            "name": "D#6",
            "ticks": 51456,
            "time": 73.090836,
            "velocity": 0.4881889763779528
          },
          {
            "duration": 0.5454540000000065,
            "durationTicks": 384,
            "midi": 87,
            "name": "D#6",
            "ticks": 51456,
            "time": 73.090836,
            "velocity": 0.4881889763779528
          },
          {
            "duration": 0.13636350000000164,
            "durationTicks": 96,
            "midi": 45,
            "name": "A2",
            "ticks": 51456,
            "time": 73.090836,
            "velocity": 0.4881889763779528
          },
          {
            "duration": 0.5454540000000065,
            "durationTicks": 384,
            "midi": 99,
            "name": "D#7",
            "ticks": 51456,
            "time": 73.090836,
            "velocity": 0.4881889763779528
          },
          {
            "duration": 0.5454540000000065,
            "durationTicks": 384,
            "midi": 99,
            "name": "D#7",
            "ticks": 51456,
            "time": 73.090836,
            "velocity": 0.4881889763779528
          },
          {
            "duration": 0.5454540000000065,
            "durationTicks": 384,
            "midi": 87,
            "name": "D#6",
            "ticks": 51456,
            "time": 73.090836,
            "velocity": 0.4881889763779528
          },
          {
            "duration": 0.13636350000000164,
            "durationTicks": 96,
            "midi": 45,
            "name": "A2",
            "ticks": 51456,
            "time": 73.090836,
            "velocity": 0.4881889763779528
          },
          {
            "duration": 0.5454540000000065,
            "durationTicks": 384,
            "midi": 99,
            "name": "D#7",
            "ticks": 51456,
            "time": 73.090836,
            "velocity": 0.4881889763779528
          },
          {
            "duration": 0.13636350000000164,
            "durationTicks": 96,
            "midi": 57,
            "name": "A3",
            "ticks": 51456,
            "time": 73.090836,
            "velocity": 0.4881889763779528
          },
          {
            "duration": 0.5454540000000065,
            "durationTicks": 384,
            "midi": 87,
            "name": "D#6",
            "ticks": 51456,
            "time": 73.090836,
            "velocity": 0.4881889763779528
          },
          {
            "duration": 0.13636350000000164,
            "durationTicks": 96,
            "midi": 45,
            "name": "A2",
            "ticks": 51456,
            "time": 73.090836,
            "velocity": 0.4881889763779528
          },
          {
            "duration": 0.13636350000000164,
            "durationTicks": 96,
            "midi": 57,
            "name": "A3",
            "ticks": 51456,
            "time": 73.090836,
            "velocity": 0.4881889763779528
          },
          {
            "duration": 0.5454540000000065,
            "durationTicks": 384,
            "midi": 99,
            "name": "D#7",
            "ticks": 51456,
            "time": 73.090836,
            "velocity": 0.4881889763779528
          },
          {
            "duration": 0.13636350000000164,
            "durationTicks": 96,
            "midi": 49,
            "name": "C#3",
            "ticks": 51552,
            "time": 73.2271995,
            "velocity": 0.4881889763779528
          },
          {
            "duration": 0.13636350000000164,
            "durationTicks": 96,
            "midi": 61,
            "name": "C#4",
            "ticks": 51552,
            "time": 73.2271995,
            "velocity": 0.4881889763779528
          },
          {
            "duration": 0.13636350000000164,
            "durationTicks": 96,
            "midi": 49,
            "name": "C#3",
            "ticks": 51552,
            "time": 73.2271995,
            "velocity": 0.4881889763779528
          },
          {
            "duration": 0.13636350000000164,
            "durationTicks": 96,
            "midi": 61,
            "name": "C#4",
            "ticks": 51552,
            "time": 73.2271995,
            "velocity": 0.4881889763779528
          },
          {
            "duration": 0.13636350000000164,
            "durationTicks": 96,
            "midi": 61,
            "name": "C#4",
            "ticks": 51552,
            "time": 73.2271995,
            "velocity": 0.4881889763779528
          },
          {
            "duration": 0.13636350000000164,
            "durationTicks": 96,
            "midi": 61,
            "name": "C#4",
            "ticks": 51552,
            "time": 73.2271995,
            "velocity": 0.4881889763779528
          },
          {
            "duration": 0.13636350000000164,
            "durationTicks": 96,
            "midi": 49,
            "name": "C#3",
            "ticks": 51552,
            "time": 73.2271995,
            "velocity": 0.4881889763779528
          },
          {
            "duration": 0.13636350000000164,
            "durationTicks": 96,
            "midi": 61,
            "name": "C#4",
            "ticks": 51552,
            "time": 73.2271995,
            "velocity": 0.4881889763779528
          },
          {
            "duration": 0.13636350000000164,
            "durationTicks": 96,
            "midi": 49,
            "name": "C#3",
            "ticks": 51552,
            "time": 73.2271995,
            "velocity": 0.4881889763779528
          },
          {
            "duration": 0.13636350000000164,
            "durationTicks": 96,
            "midi": 49,
            "name": "C#3",
            "ticks": 51552,
            "time": 73.2271995,
            "velocity": 0.4881889763779528
          },
          {
            "duration": 0.13636350000000164,
            "durationTicks": 96,
            "midi": 49,
            "name": "C#3",
            "ticks": 51552,
            "time": 73.2271995,
            "velocity": 0.4881889763779528
          },
          {
            "duration": 0.13636350000000164,
            "durationTicks": 96,
            "midi": 61,
            "name": "C#4",
            "ticks": 51552,
            "time": 73.2271995,
            "velocity": 0.4881889763779528
          },
          {
            "duration": 0.2727270000000033,
            "durationTicks": 192,
            "midi": 61,
            "name": "C#4",
            "ticks": 51648,
            "time": 73.363563,
            "velocity": 0.4881889763779528
          },
          {
            "duration": 0.2727270000000033,
            "durationTicks": 192,
            "midi": 61,
            "name": "C#4",
            "ticks": 51648,
            "time": 73.363563,
            "velocity": 0.4881889763779528
          },
          {
            "duration": 0.2727270000000033,
            "durationTicks": 192,
            "midi": 49,
            "name": "C#3",
            "ticks": 51648,
            "time": 73.363563,
            "velocity": 0.4881889763779528
          },
          {
            "duration": 0.2727270000000033,
            "durationTicks": 192,
            "midi": 61,
            "name": "C#4",
            "ticks": 51648,
            "time": 73.363563,
            "velocity": 0.4881889763779528
          },
          {
            "duration": 0.2727270000000033,
            "durationTicks": 192,
            "midi": 49,
            "name": "C#3",
            "ticks": 51648,
            "time": 73.363563,
            "velocity": 0.4881889763779528
          },
          {
            "duration": 0.2727270000000033,
            "durationTicks": 192,
            "midi": 61,
            "name": "C#4",
            "ticks": 51648,
            "time": 73.363563,
            "velocity": 0.4881889763779528
          },
          {
            "duration": 0.2727270000000033,
            "durationTicks": 192,
            "midi": 49,
            "name": "C#3",
            "ticks": 51648,
            "time": 73.363563,
            "velocity": 0.4881889763779528
          },
          {
            "duration": 0.2727270000000033,
            "durationTicks": 192,
            "midi": 49,
            "name": "C#3",
            "ticks": 51648,
            "time": 73.363563,
            "velocity": 0.4881889763779528
          },
          {
            "duration": 0.2727270000000033,
            "durationTicks": 192,
            "midi": 61,
            "name": "C#4",
            "ticks": 51648,
            "time": 73.363563,
            "velocity": 0.4881889763779528
          },
          {
            "duration": 0.2727270000000033,
            "durationTicks": 192,
            "midi": 49,
            "name": "C#3",
            "ticks": 51648,
            "time": 73.363563,
            "velocity": 0.4881889763779528
          },
          {
            "duration": 0.2727270000000033,
            "durationTicks": 192,
            "midi": 61,
            "name": "C#4",
            "ticks": 51648,
            "time": 73.363563,
            "velocity": 0.4881889763779528
          },
          {
            "duration": 0.2727270000000033,
            "durationTicks": 192,
            "midi": 49,
            "name": "C#3",
            "ticks": 51648,
            "time": 73.363563,
            "velocity": 0.4881889763779528
          },
          {
            "duration": 0.2727270000000033,
            "durationTicks": 192,
            "midi": 52,
            "name": "E3",
            "ticks": 51840,
            "time": 73.63629,
            "velocity": 0.4881889763779528
          },
          {
            "duration": 0.2727270000000033,
            "durationTicks": 192,
            "midi": 64,
            "name": "E4",
            "ticks": 51840,
            "time": 73.63629,
            "velocity": 0.4881889763779528
          },
          {
            "duration": 0.5454539999999923,
            "durationTicks": 384,
            "midi": 85,
            "name": "C#6",
            "ticks": 51840,
            "time": 73.63629,
            "velocity": 0.4881889763779528
          },
          {
            "duration": 0.2727270000000033,
            "durationTicks": 192,
            "midi": 52,
            "name": "E3",
            "ticks": 51840,
            "time": 73.63629,
            "velocity": 0.4881889763779528
          },
          {
            "duration": 0.2727270000000033,
            "durationTicks": 192,
            "midi": 52,
            "name": "E3",
            "ticks": 51840,
            "time": 73.63629,
            "velocity": 0.4881889763779528
          },
          {
            "duration": 0.2727270000000033,
            "durationTicks": 192,
            "midi": 64,
            "name": "E4",
            "ticks": 51840,
            "time": 73.63629,
            "velocity": 0.4881889763779528
          },
          {
            "duration": 0.5454539999999923,
            "durationTicks": 384,
            "midi": 85,
            "name": "C#6",
            "ticks": 51840,
            "time": 73.63629,
            "velocity": 0.4881889763779528
          },
          {
            "duration": 0.5454539999999923,
            "durationTicks": 384,
            "midi": 85,
            "name": "C#6",
            "ticks": 51840,
            "time": 73.63629,
            "velocity": 0.4881889763779528
          },
          {
            "duration": 0.5454539999999923,
            "durationTicks": 384,
            "midi": 97,
            "name": "C#7",
            "ticks": 51840,
            "time": 73.63629,
            "velocity": 0.4881889763779528
          },
          {
            "duration": 0.5454539999999923,
            "durationTicks": 384,
            "midi": 97,
            "name": "C#7",
            "ticks": 51840,
            "time": 73.63629,
            "velocity": 0.4881889763779528
          },
          {
            "duration": 0.5454539999999923,
            "durationTicks": 384,
            "midi": 97,
            "name": "C#7",
            "ticks": 51840,
            "time": 73.63629,
            "velocity": 0.4881889763779528
          },
          {
            "duration": 0.5454539999999923,
            "durationTicks": 384,
            "midi": 85,
            "name": "C#6",
            "ticks": 51840,
            "time": 73.63629,
            "velocity": 0.4881889763779528
          },
          {
            "duration": 0.5454539999999923,
            "durationTicks": 384,
            "midi": 97,
            "name": "C#7",
            "ticks": 51840,
            "time": 73.63629,
            "velocity": 0.4881889763779528
          },
          {
            "duration": 0.2727270000000033,
            "durationTicks": 192,
            "midi": 52,
            "name": "E3",
            "ticks": 51840,
            "time": 73.63629,
            "velocity": 0.4881889763779528
          },
          {
            "duration": 0.5454539999999923,
            "durationTicks": 384,
            "midi": 97,
            "name": "C#7",
            "ticks": 51840,
            "time": 73.63629,
            "velocity": 0.4881889763779528
          },
          {
            "duration": 0.5454539999999923,
            "durationTicks": 384,
            "midi": 85,
            "name": "C#6",
            "ticks": 51840,
            "time": 73.63629,
            "velocity": 0.4881889763779528
          },
          {
            "duration": 0.5454539999999923,
            "durationTicks": 384,
            "midi": 97,
            "name": "C#7",
            "ticks": 51840,
            "time": 73.63629,
            "velocity": 0.4881889763779528
          },
          {
            "duration": 0.2727270000000033,
            "durationTicks": 192,
            "midi": 64,
            "name": "E4",
            "ticks": 51840,
            "time": 73.63629,
            "velocity": 0.4881889763779528
          },
          {
            "duration": 0.2727270000000033,
            "durationTicks": 192,
            "midi": 52,
            "name": "E3",
            "ticks": 51840,
            "time": 73.63629,
            "velocity": 0.4881889763779528
          },
          {
            "duration": 0.2727270000000033,
            "durationTicks": 192,
            "midi": 52,
            "name": "E3",
            "ticks": 51840,
            "time": 73.63629,
            "velocity": 0.4881889763779528
          },
          {
            "duration": 0.5454539999999923,
            "durationTicks": 384,
            "midi": 85,
            "name": "C#6",
            "ticks": 51840,
            "time": 73.63629,
            "velocity": 0.4881889763779528
          },
          {
            "duration": 0.2727270000000033,
            "durationTicks": 192,
            "midi": 64,
            "name": "E4",
            "ticks": 51840,
            "time": 73.63629,
            "velocity": 0.4881889763779528
          },
          {
            "duration": 0.2727270000000033,
            "durationTicks": 192,
            "midi": 64,
            "name": "E4",
            "ticks": 51840,
            "time": 73.63629,
            "velocity": 0.4881889763779528
          },
          {
            "duration": 0.2727270000000033,
            "durationTicks": 192,
            "midi": 64,
            "name": "E4",
            "ticks": 51840,
            "time": 73.63629,
            "velocity": 0.4881889763779528
          },
          {
            "duration": 0.27272699999998906,
            "durationTicks": 192,
            "midi": 42,
            "name": "F#2",
            "ticks": 52032,
            "time": 73.909017,
            "velocity": 0.4881889763779528
          },
          {
            "duration": 0.27272699999998906,
            "durationTicks": 192,
            "midi": 54,
            "name": "F#3",
            "ticks": 52032,
            "time": 73.909017,
            "velocity": 0.4881889763779528
          },
          {
            "duration": 0.27272699999998906,
            "durationTicks": 192,
            "midi": 54,
            "name": "F#3",
            "ticks": 52032,
            "time": 73.909017,
            "velocity": 0.4881889763779528
          },
          {
            "duration": 0.27272699999998906,
            "durationTicks": 192,
            "midi": 42,
            "name": "F#2",
            "ticks": 52032,
            "time": 73.909017,
            "velocity": 0.4881889763779528
          },
          {
            "duration": 0.27272699999998906,
            "durationTicks": 192,
            "midi": 42,
            "name": "F#2",
            "ticks": 52032,
            "time": 73.909017,
            "velocity": 0.4881889763779528
          },
          {
            "duration": 0.27272699999998906,
            "durationTicks": 192,
            "midi": 42,
            "name": "F#2",
            "ticks": 52032,
            "time": 73.909017,
            "velocity": 0.4881889763779528
          },
          {
            "duration": 0.27272699999998906,
            "durationTicks": 192,
            "midi": 54,
            "name": "F#3",
            "ticks": 52032,
            "time": 73.909017,
            "velocity": 0.4881889763779528
          },
          {
            "duration": 0.27272699999998906,
            "durationTicks": 192,
            "midi": 42,
            "name": "F#2",
            "ticks": 52032,
            "time": 73.909017,
            "velocity": 0.4881889763779528
          },
          {
            "duration": 0.27272699999998906,
            "durationTicks": 192,
            "midi": 54,
            "name": "F#3",
            "ticks": 52032,
            "time": 73.909017,
            "velocity": 0.4881889763779528
          },
          {
            "duration": 0.27272699999998906,
            "durationTicks": 192,
            "midi": 42,
            "name": "F#2",
            "ticks": 52032,
            "time": 73.909017,
            "velocity": 0.4881889763779528
          },
          {
            "duration": 0.27272699999998906,
            "durationTicks": 192,
            "midi": 54,
            "name": "F#3",
            "ticks": 52032,
            "time": 73.909017,
            "velocity": 0.4881889763779528
          },
          {
            "duration": 0.27272699999998906,
            "durationTicks": 192,
            "midi": 54,
            "name": "F#3",
            "ticks": 52032,
            "time": 73.909017,
            "velocity": 0.4881889763779528
          },
          {
            "duration": 0.13636350000000164,
            "durationTicks": 96,
            "midi": 52,
            "name": "E3",
            "ticks": 52224,
            "time": 74.181744,
            "velocity": 0.4881889763779528
          },
          {
            "duration": 0.13636350000000164,
            "durationTicks": 96,
            "midi": 52,
            "name": "E3",
            "ticks": 52224,
            "time": 74.181744,
            "velocity": 0.4881889763779528
          },
          {
            "duration": 1.0909079999999989,
            "durationTicks": 768,
            "midi": 95,
            "name": "B6",
            "ticks": 52224,
            "time": 74.181744,
            "velocity": 0.4881889763779528
          },
          {
            "duration": 0.13636350000000164,
            "durationTicks": 96,
            "midi": 52,
            "name": "E3",
            "ticks": 52224,
            "time": 74.181744,
            "velocity": 0.4881889763779528
          },
          {
            "duration": 1.0909079999999989,
            "durationTicks": 768,
            "midi": 95,
            "name": "B6",
            "ticks": 52224,
            "time": 74.181744,
            "velocity": 0.4881889763779528
          },
          {
            "duration": 1.0909079999999989,
            "durationTicks": 768,
            "midi": 88,
            "name": "E6",
            "ticks": 52224,
            "time": 74.181744,
            "velocity": 0.4881889763779528
          },
          {
            "duration": 1.0909079999999989,
            "durationTicks": 768,
            "midi": 92,
            "name": "G#6",
            "ticks": 52224,
            "time": 74.181744,
            "velocity": 0.4881889763779528
          },
          {
            "duration": 1.0909079999999989,
            "durationTicks": 768,
            "midi": 100,
            "name": "E7",
            "ticks": 52224,
            "time": 74.181744,
            "velocity": 0.4881889763779528
          },
          {
            "duration": 1.0909079999999989,
            "durationTicks": 768,
            "midi": 95,
            "name": "B6",
            "ticks": 52224,
            "time": 74.181744,
            "velocity": 0.4881889763779528
          },
          {
            "duration": 1.0909079999999989,
            "durationTicks": 768,
            "midi": 92,
            "name": "G#6",
            "ticks": 52224,
            "time": 74.181744,
            "velocity": 0.4881889763779528
          },
          {
            "duration": 1.0909079999999989,
            "durationTicks": 768,
            "midi": 100,
            "name": "E7",
            "ticks": 52224,
            "time": 74.181744,
            "velocity": 0.4881889763779528
          },
          {
            "duration": 1.0909079999999989,
            "durationTicks": 768,
            "midi": 88,
            "name": "E6",
            "ticks": 52224,
            "time": 74.181744,
            "velocity": 0.4881889763779528
          },
          {
            "duration": 1.0909079999999989,
            "durationTicks": 768,
            "midi": 100,
            "name": "E7",
            "ticks": 52224,
            "time": 74.181744,
            "velocity": 0.4881889763779528
          },
          {
            "duration": 0.13636350000000164,
            "durationTicks": 96,
            "midi": 52,
            "name": "E3",
            "ticks": 52224,
            "time": 74.181744,
            "velocity": 0.4881889763779528
          },
          {
            "duration": 1.0909079999999989,
            "durationTicks": 768,
            "midi": 88,
            "name": "E6",
            "ticks": 52224,
            "time": 74.181744,
            "velocity": 0.4881889763779528
          },
          {
            "duration": 1.0909079999999989,
            "durationTicks": 768,
            "midi": 95,
            "name": "B6",
            "ticks": 52224,
            "time": 74.181744,
            "velocity": 0.4881889763779528
          },
          {
            "duration": 1.0909079999999989,
            "durationTicks": 768,
            "midi": 88,
            "name": "E6",
            "ticks": 52224,
            "time": 74.181744,
            "velocity": 0.4881889763779528
          },
          {
            "duration": 1.0909079999999989,
            "durationTicks": 768,
            "midi": 88,
            "name": "E6",
            "ticks": 52224,
            "time": 74.181744,
            "velocity": 0.4881889763779528
          },
          {
            "duration": 1.0909079999999989,
            "durationTicks": 768,
            "midi": 92,
            "name": "G#6",
            "ticks": 52224,
            "time": 74.181744,
            "velocity": 0.4881889763779528
          },
          {
            "duration": 0.13636350000000164,
            "durationTicks": 96,
            "midi": 40,
            "name": "E2",
            "ticks": 52224,
            "time": 74.181744,
            "velocity": 0.4881889763779528
          },
          {
            "duration": 1.0909079999999989,
            "durationTicks": 768,
            "midi": 92,
            "name": "G#6",
            "ticks": 52224,
            "time": 74.181744,
            "velocity": 0.4881889763779528
          },
          {
            "duration": 1.0909079999999989,
            "durationTicks": 768,
            "midi": 92,
            "name": "G#6",
            "ticks": 52224,
            "time": 74.181744,
            "velocity": 0.4881889763779528
          },
          {
            "duration": 0.13636350000000164,
            "durationTicks": 96,
            "midi": 40,
            "name": "E2",
            "ticks": 52224,
            "time": 74.181744,
            "velocity": 0.4881889763779528
          },
          {
            "duration": 1.0909079999999989,
            "durationTicks": 768,
            "midi": 88,
            "name": "E6",
            "ticks": 52224,
            "time": 74.181744,
            "velocity": 0.4881889763779528
          },
          {
            "duration": 1.0909079999999989,
            "durationTicks": 768,
            "midi": 100,
            "name": "E7",
            "ticks": 52224,
            "time": 74.181744,
            "velocity": 0.4881889763779528
          },
          {
            "duration": 0.13636350000000164,
            "durationTicks": 96,
            "midi": 40,
            "name": "E2",
            "ticks": 52224,
            "time": 74.181744,
            "velocity": 0.4881889763779528
          },
          {
            "duration": 1.0909079999999989,
            "durationTicks": 768,
            "midi": 95,
            "name": "B6",
            "ticks": 52224,
            "time": 74.181744,
            "velocity": 0.4881889763779528
          },
          {
            "duration": 0.13636350000000164,
            "durationTicks": 96,
            "midi": 40,
            "name": "E2",
            "ticks": 52224,
            "time": 74.181744,
            "velocity": 0.4881889763779528
          },
          {
            "duration": 0.13636350000000164,
            "durationTicks": 96,
            "midi": 40,
            "name": "E2",
            "ticks": 52224,
            "time": 74.181744,
            "velocity": 0.4881889763779528
          },
          {
            "duration": 1.0909079999999989,
            "durationTicks": 768,
            "midi": 100,
            "name": "E7",
            "ticks": 52224,
            "time": 74.181744,
            "velocity": 0.4881889763779528
          },
          {
            "duration": 1.0909079999999989,
            "durationTicks": 768,
            "midi": 95,
            "name": "B6",
            "ticks": 52224,
            "time": 74.181744,
            "velocity": 0.4881889763779528
          },
          {
            "duration": 0.13636350000000164,
            "durationTicks": 96,
            "midi": 52,
            "name": "E3",
            "ticks": 52224,
            "time": 74.181744,
            "velocity": 0.4881889763779528
          },
          {
            "duration": 0.13636350000000164,
            "durationTicks": 96,
            "midi": 40,
            "name": "E2",
            "ticks": 52224,
            "time": 74.181744,
            "velocity": 0.4881889763779528
          },
          {
            "duration": 1.0909079999999989,
            "durationTicks": 768,
            "midi": 92,
            "name": "G#6",
            "ticks": 52224,
            "time": 74.181744,
            "velocity": 0.4881889763779528
          },
          {
            "duration": 0.13636350000000164,
            "durationTicks": 96,
            "midi": 52,
            "name": "E3",
            "ticks": 52224,
            "time": 74.181744,
            "velocity": 0.4881889763779528
          },
          {
            "duration": 1.0909079999999989,
            "durationTicks": 768,
            "midi": 100,
            "name": "E7",
            "ticks": 52224,
            "time": 74.181744,
            "velocity": 0.4881889763779528
          },
          {
            "duration": 0.13636350000000164,
            "durationTicks": 96,
            "midi": 52,
            "name": "E3",
            "ticks": 52320,
            "time": 74.3181075,
            "velocity": 0.4881889763779528
          },
          {
            "duration": 0.13636350000000164,
            "durationTicks": 96,
            "midi": 40,
            "name": "E2",
            "ticks": 52320,
            "time": 74.3181075,
            "velocity": 0.4881889763779528
          },
          {
            "duration": 0.13636350000000164,
            "durationTicks": 96,
            "midi": 40,
            "name": "E2",
            "ticks": 52320,
            "time": 74.3181075,
            "velocity": 0.4881889763779528
          },
          {
            "duration": 0.13636350000000164,
            "durationTicks": 96,
            "midi": 52,
            "name": "E3",
            "ticks": 52320,
            "time": 74.3181075,
            "velocity": 0.4881889763779528
          },
          {
            "duration": 0.13636350000000164,
            "durationTicks": 96,
            "midi": 40,
            "name": "E2",
            "ticks": 52320,
            "time": 74.3181075,
            "velocity": 0.4881889763779528
          },
          {
            "duration": 0.13636350000000164,
            "durationTicks": 96,
            "midi": 52,
            "name": "E3",
            "ticks": 52320,
            "time": 74.3181075,
            "velocity": 0.4881889763779528
          },
          {
            "duration": 0.13636350000000164,
            "durationTicks": 96,
            "midi": 52,
            "name": "E3",
            "ticks": 52320,
            "time": 74.3181075,
            "velocity": 0.4881889763779528
          },
          {
            "duration": 0.13636350000000164,
            "durationTicks": 96,
            "midi": 40,
            "name": "E2",
            "ticks": 52320,
            "time": 74.3181075,
            "velocity": 0.4881889763779528
          },
          {
            "duration": 0.13636350000000164,
            "durationTicks": 96,
            "midi": 52,
            "name": "E3",
            "ticks": 52320,
            "time": 74.3181075,
            "velocity": 0.4881889763779528
          },
          {
            "duration": 0.13636350000000164,
            "durationTicks": 96,
            "midi": 40,
            "name": "E2",
            "ticks": 52320,
            "time": 74.3181075,
            "velocity": 0.4881889763779528
          },
          {
            "duration": 0.13636350000000164,
            "durationTicks": 96,
            "midi": 40,
            "name": "E2",
            "ticks": 52320,
            "time": 74.3181075,
            "velocity": 0.4881889763779528
          },
          {
            "duration": 0.13636350000000164,
            "durationTicks": 96,
            "midi": 52,
            "name": "E3",
            "ticks": 52320,
            "time": 74.3181075,
            "velocity": 0.4881889763779528
          },
          {
            "duration": 0.2727270000000033,
            "durationTicks": 192,
            "midi": 52,
            "name": "E3",
            "ticks": 52416,
            "time": 74.454471,
            "velocity": 0.4881889763779528
          },
          {
            "duration": 0.2727270000000033,
            "durationTicks": 192,
            "midi": 40,
            "name": "E2",
            "ticks": 52416,
            "time": 74.454471,
            "velocity": 0.4881889763779528
          },
          {
            "duration": 0.2727270000000033,
            "durationTicks": 192,
            "midi": 52,
            "name": "E3",
            "ticks": 52416,
            "time": 74.454471,
            "velocity": 0.4881889763779528
          },
          {
            "duration": 0.2727270000000033,
            "durationTicks": 192,
            "midi": 52,
            "name": "E3",
            "ticks": 52416,
            "time": 74.454471,
            "velocity": 0.4881889763779528
          },
          {
            "duration": 0.2727270000000033,
            "durationTicks": 192,
            "midi": 52,
            "name": "E3",
            "ticks": 52416,
            "time": 74.454471,
            "velocity": 0.4881889763779528
          },
          {
            "duration": 0.2727270000000033,
            "durationTicks": 192,
            "midi": 40,
            "name": "E2",
            "ticks": 52416,
            "time": 74.454471,
            "velocity": 0.4881889763779528
          },
          {
            "duration": 0.2727270000000033,
            "durationTicks": 192,
            "midi": 40,
            "name": "E2",
            "ticks": 52416,
            "time": 74.454471,
            "velocity": 0.4881889763779528
          },
          {
            "duration": 0.2727270000000033,
            "durationTicks": 192,
            "midi": 40,
            "name": "E2",
            "ticks": 52416,
            "time": 74.454471,
            "velocity": 0.4881889763779528
          },
          {
            "duration": 0.2727270000000033,
            "durationTicks": 192,
            "midi": 52,
            "name": "E3",
            "ticks": 52416,
            "time": 74.454471,
            "velocity": 0.4881889763779528
          },
          {
            "duration": 0.2727270000000033,
            "durationTicks": 192,
            "midi": 40,
            "name": "E2",
            "ticks": 52416,
            "time": 74.454471,
            "velocity": 0.4881889763779528
          },
          {
            "duration": 0.2727270000000033,
            "durationTicks": 192,
            "midi": 40,
            "name": "E2",
            "ticks": 52416,
            "time": 74.454471,
            "velocity": 0.4881889763779528
          },
          {
            "duration": 0.2727270000000033,
            "durationTicks": 192,
            "midi": 52,
            "name": "E3",
            "ticks": 52416,
            "time": 74.454471,
            "velocity": 0.4881889763779528
          },
          {
            "duration": 0.13636350000000164,
            "durationTicks": 96,
            "midi": 52,
            "name": "E3",
            "ticks": 52608,
            "time": 74.727198,
            "velocity": 0.4881889763779528
          },
          {
            "duration": 0.13636350000000164,
            "durationTicks": 96,
            "midi": 40,
            "name": "E2",
            "ticks": 52608,
            "time": 74.727198,
            "velocity": 0.4881889763779528
          },
          {
            "duration": 0.13636350000000164,
            "durationTicks": 96,
            "midi": 52,
            "name": "E3",
            "ticks": 52608,
            "time": 74.727198,
            "velocity": 0.4881889763779528
          },
          {
            "duration": 0.13636350000000164,
            "durationTicks": 96,
            "midi": 40,
            "name": "E2",
            "ticks": 52608,
            "time": 74.727198,
            "velocity": 0.4881889763779528
          },
          {
            "duration": 0.13636350000000164,
            "durationTicks": 96,
            "midi": 52,
            "name": "E3",
            "ticks": 52608,
            "time": 74.727198,
            "velocity": 0.4881889763779528
          },
          {
            "duration": 0.13636350000000164,
            "durationTicks": 96,
            "midi": 40,
            "name": "E2",
            "ticks": 52608,
            "time": 74.727198,
            "velocity": 0.4881889763779528
          },
          {
            "duration": 0.13636350000000164,
            "durationTicks": 96,
            "midi": 52,
            "name": "E3",
            "ticks": 52608,
            "time": 74.727198,
            "velocity": 0.4881889763779528
          },
          {
            "duration": 0.13636350000000164,
            "durationTicks": 96,
            "midi": 40,
            "name": "E2",
            "ticks": 52608,
            "time": 74.727198,
            "velocity": 0.4881889763779528
          },
          {
            "duration": 0.13636350000000164,
            "durationTicks": 96,
            "midi": 40,
            "name": "E2",
            "ticks": 52608,
            "time": 74.727198,
            "velocity": 0.4881889763779528
          },
          {
            "duration": 0.13636350000000164,
            "durationTicks": 96,
            "midi": 40,
            "name": "E2",
            "ticks": 52608,
            "time": 74.727198,
            "velocity": 0.4881889763779528
          },
          {
            "duration": 0.13636350000000164,
            "durationTicks": 96,
            "midi": 52,
            "name": "E3",
            "ticks": 52608,
            "time": 74.727198,
            "velocity": 0.4881889763779528
          },
          {
            "duration": 0.13636350000000164,
            "durationTicks": 96,
            "midi": 52,
            "name": "E3",
            "ticks": 52608,
            "time": 74.727198,
            "velocity": 0.4881889763779528
          },
          {
            "duration": 0.13636350000000164,
            "durationTicks": 96,
            "midi": 40,
            "name": "E2",
            "ticks": 52704,
            "time": 74.8635615,
            "velocity": 0.4881889763779528
          },
          {
            "duration": 0.13636350000000164,
            "durationTicks": 96,
            "midi": 40,
            "name": "E2",
            "ticks": 52704,
            "time": 74.8635615,
            "velocity": 0.4881889763779528
          },
          {
            "duration": 0.13636350000000164,
            "durationTicks": 96,
            "midi": 52,
            "name": "E3",
            "ticks": 52704,
            "time": 74.8635615,
            "velocity": 0.4881889763779528
          },
          {
            "duration": 0.13636350000000164,
            "durationTicks": 96,
            "midi": 40,
            "name": "E2",
            "ticks": 52704,
            "time": 74.8635615,
            "velocity": 0.4881889763779528
          },
          {
            "duration": 0.13636350000000164,
            "durationTicks": 96,
            "midi": 40,
            "name": "E2",
            "ticks": 52704,
            "time": 74.8635615,
            "velocity": 0.4881889763779528
          },
          {
            "duration": 0.13636350000000164,
            "durationTicks": 96,
            "midi": 52,
            "name": "E3",
            "ticks": 52704,
            "time": 74.8635615,
            "velocity": 0.4881889763779528
          },
          {
            "duration": 0.13636350000000164,
            "durationTicks": 96,
            "midi": 52,
            "name": "E3",
            "ticks": 52704,
            "time": 74.8635615,
            "velocity": 0.4881889763779528
          },
          {
            "duration": 0.13636350000000164,
            "durationTicks": 96,
            "midi": 52,
            "name": "E3",
            "ticks": 52704,
            "time": 74.8635615,
            "velocity": 0.4881889763779528
          },
          {
            "duration": 0.13636350000000164,
            "durationTicks": 96,
            "midi": 52,
            "name": "E3",
            "ticks": 52704,
            "time": 74.8635615,
            "velocity": 0.4881889763779528
          },
          {
            "duration": 0.13636350000000164,
            "durationTicks": 96,
            "midi": 40,
            "name": "E2",
            "ticks": 52704,
            "time": 74.8635615,
            "velocity": 0.4881889763779528
          },
          {
            "duration": 0.13636350000000164,
            "durationTicks": 96,
            "midi": 40,
            "name": "E2",
            "ticks": 52704,
            "time": 74.8635615,
            "velocity": 0.4881889763779528
          },
          {
            "duration": 0.13636350000000164,
            "durationTicks": 96,
            "midi": 52,
            "name": "E3",
            "ticks": 52704,
            "time": 74.8635615,
            "velocity": 0.4881889763779528
          },
          {
            "duration": 0.27272699999998906,
            "durationTicks": 192,
            "midi": 52,
            "name": "E3",
            "ticks": 52800,
            "time": 74.999925,
            "velocity": 0.4881889763779528
          },
          {
            "duration": 0.27272699999998906,
            "durationTicks": 192,
            "midi": 52,
            "name": "E3",
            "ticks": 52800,
            "time": 74.999925,
            "velocity": 0.4881889763779528
          },
          {
            "duration": 0.27272699999998906,
            "durationTicks": 192,
            "midi": 40,
            "name": "E2",
            "ticks": 52800,
            "time": 74.999925,
            "velocity": 0.4881889763779528
          },
          {
            "duration": 0.27272699999998906,
            "durationTicks": 192,
            "midi": 40,
            "name": "E2",
            "ticks": 52800,
            "time": 74.999925,
            "velocity": 0.4881889763779528
          },
          {
            "duration": 0.27272699999998906,
            "durationTicks": 192,
            "midi": 52,
            "name": "E3",
            "ticks": 52800,
            "time": 74.999925,
            "velocity": 0.4881889763779528
          },
          {
            "duration": 0.27272699999998906,
            "durationTicks": 192,
            "midi": 40,
            "name": "E2",
            "ticks": 52800,
            "time": 74.999925,
            "velocity": 0.4881889763779528
          },
          {
            "duration": 0.27272699999998906,
            "durationTicks": 192,
            "midi": 40,
            "name": "E2",
            "ticks": 52800,
            "time": 74.999925,
            "velocity": 0.4881889763779528
          },
          {
            "duration": 0.27272699999998906,
            "durationTicks": 192,
            "midi": 40,
            "name": "E2",
            "ticks": 52800,
            "time": 74.999925,
            "velocity": 0.4881889763779528
          },
          {
            "duration": 0.27272699999998906,
            "durationTicks": 192,
            "midi": 52,
            "name": "E3",
            "ticks": 52800,
            "time": 74.999925,
            "velocity": 0.4881889763779528
          },
          {
            "duration": 0.27272699999998906,
            "durationTicks": 192,
            "midi": 52,
            "name": "E3",
            "ticks": 52800,
            "time": 74.999925,
            "velocity": 0.4881889763779528
          },
          {
            "duration": 0.27272699999998906,
            "durationTicks": 192,
            "midi": 40,
            "name": "E2",
            "ticks": 52800,
            "time": 74.999925,
            "velocity": 0.4881889763779528
          },
          {
            "duration": 0.27272699999998906,
            "durationTicks": 192,
            "midi": 52,
            "name": "E3",
            "ticks": 52800,
            "time": 74.999925,
            "velocity": 0.4881889763779528
          },
          {
            "duration": 0.13636350000000164,
            "durationTicks": 96,
            "midi": 52,
            "name": "E3",
            "ticks": 52992,
            "time": 75.272652,
            "velocity": 0.4881889763779528
          },
          {
            "duration": 0.13636350000000164,
            "durationTicks": 96,
            "midi": 40,
            "name": "E2",
            "ticks": 52992,
            "time": 75.272652,
            "velocity": 0.4881889763779528
          },
          {
            "duration": 0.5454540000000065,
            "durationTicks": 384,
            "midi": 99,
            "name": "D#7",
            "ticks": 52992,
            "time": 75.272652,
            "velocity": 0.4881889763779528
          },
          {
            "duration": 0.13636350000000164,
            "durationTicks": 96,
            "midi": 40,
            "name": "E2",
            "ticks": 52992,
            "time": 75.272652,
            "velocity": 0.4881889763779528
          },
          {
            "duration": 0.5454540000000065,
            "durationTicks": 384,
            "midi": 87,
            "name": "D#6",
            "ticks": 52992,
            "time": 75.272652,
            "velocity": 0.4881889763779528
          },
          {
            "duration": 0.5454540000000065,
            "durationTicks": 384,
            "midi": 99,
            "name": "D#7",
            "ticks": 52992,
            "time": 75.272652,
            "velocity": 0.4881889763779528
          },
          {
            "duration": 0.13636350000000164,
            "durationTicks": 96,
            "midi": 40,
            "name": "E2",
            "ticks": 52992,
            "time": 75.272652,
            "velocity": 0.4881889763779528
          },
          {
            "duration": 0.13636350000000164,
            "durationTicks": 96,
            "midi": 52,
            "name": "E3",
            "ticks": 52992,
            "time": 75.272652,
            "velocity": 0.4881889763779528
          },
          {
            "duration": 0.13636350000000164,
            "durationTicks": 96,
            "midi": 52,
            "name": "E3",
            "ticks": 52992,
            "time": 75.272652,
            "velocity": 0.4881889763779528
          },
          {
            "duration": 0.5454540000000065,
            "durationTicks": 384,
            "midi": 87,
            "name": "D#6",
            "ticks": 52992,
            "time": 75.272652,
            "velocity": 0.4881889763779528
          },
          {
            "duration": 0.5454540000000065,
            "durationTicks": 384,
            "midi": 87,
            "name": "D#6",
            "ticks": 52992,
            "time": 75.272652,
            "velocity": 0.4881889763779528
          },
          {
            "duration": 0.5454540000000065,
            "durationTicks": 384,
            "midi": 87,
            "name": "D#6",
            "ticks": 52992,
            "time": 75.272652,
            "velocity": 0.4881889763779528
          },
          {
            "duration": 0.5454540000000065,
            "durationTicks": 384,
            "midi": 99,
            "name": "D#7",
            "ticks": 52992,
            "time": 75.272652,
            "velocity": 0.4881889763779528
          },
          {
            "duration": 0.13636350000000164,
            "durationTicks": 96,
            "midi": 40,
            "name": "E2",
            "ticks": 52992,
            "time": 75.272652,
            "velocity": 0.4881889763779528
          },
          {
            "duration": 0.13636350000000164,
            "durationTicks": 96,
            "midi": 52,
            "name": "E3",
            "ticks": 52992,
            "time": 75.272652,
            "velocity": 0.4881889763779528
          },
          {
            "duration": 0.13636350000000164,
            "durationTicks": 96,
            "midi": 52,
            "name": "E3",
            "ticks": 52992,
            "time": 75.272652,
            "velocity": 0.4881889763779528
          },
          {
            "duration": 0.13636350000000164,
            "durationTicks": 96,
            "midi": 40,
            "name": "E2",
            "ticks": 52992,
            "time": 75.272652,
            "velocity": 0.4881889763779528
          },
          {
            "duration": 0.5454540000000065,
            "durationTicks": 384,
            "midi": 99,
            "name": "D#7",
            "ticks": 52992,
            "time": 75.272652,
            "velocity": 0.4881889763779528
          },
          {
            "duration": 0.5454540000000065,
            "durationTicks": 384,
            "midi": 87,
            "name": "D#6",
            "ticks": 52992,
            "time": 75.272652,
            "velocity": 0.4881889763779528
          },
          {
            "duration": 0.5454540000000065,
            "durationTicks": 384,
            "midi": 87,
            "name": "D#6",
            "ticks": 52992,
            "time": 75.272652,
            "velocity": 0.4881889763779528
          },
          {
            "duration": 0.5454540000000065,
            "durationTicks": 384,
            "midi": 99,
            "name": "D#7",
            "ticks": 52992,
            "time": 75.272652,
            "velocity": 0.4881889763779528
          },
          {
            "duration": 0.5454540000000065,
            "durationTicks": 384,
            "midi": 99,
            "name": "D#7",
            "ticks": 52992,
            "time": 75.272652,
            "velocity": 0.4881889763779528
          },
          {
            "duration": 0.13636350000000164,
            "durationTicks": 96,
            "midi": 52,
            "name": "E3",
            "ticks": 52992,
            "time": 75.272652,
            "velocity": 0.4881889763779528
          },
          {
            "duration": 0.13636350000000164,
            "durationTicks": 96,
            "midi": 40,
            "name": "E2",
            "ticks": 52992,
            "time": 75.272652,
            "velocity": 0.4881889763779528
          },
          {
            "duration": 0.13636350000000164,
            "durationTicks": 96,
            "midi": 44,
            "name": "G#2",
            "ticks": 53088,
            "time": 75.4090155,
            "velocity": 0.4881889763779528
          },
          {
            "duration": 0.13636350000000164,
            "durationTicks": 96,
            "midi": 56,
            "name": "G#3",
            "ticks": 53088,
            "time": 75.4090155,
            "velocity": 0.4881889763779528
          },
          {
            "duration": 0.13636350000000164,
            "durationTicks": 96,
            "midi": 56,
            "name": "G#3",
            "ticks": 53088,
            "time": 75.4090155,
            "velocity": 0.4881889763779528
          },
          {
            "duration": 0.13636350000000164,
            "durationTicks": 96,
            "midi": 44,
            "name": "G#2",
            "ticks": 53088,
            "time": 75.4090155,
            "velocity": 0.4881889763779528
          },
          {
            "duration": 0.13636350000000164,
            "durationTicks": 96,
            "midi": 56,
            "name": "G#3",
            "ticks": 53088,
            "time": 75.4090155,
            "velocity": 0.4881889763779528
          },
          {
            "duration": 0.13636350000000164,
            "durationTicks": 96,
            "midi": 56,
            "name": "G#3",
            "ticks": 53088,
            "time": 75.4090155,
            "velocity": 0.4881889763779528
          },
          {
            "duration": 0.13636350000000164,
            "durationTicks": 96,
            "midi": 44,
            "name": "G#2",
            "ticks": 53088,
            "time": 75.4090155,
            "velocity": 0.4881889763779528
          },
          {
            "duration": 0.13636350000000164,
            "durationTicks": 96,
            "midi": 56,
            "name": "G#3",
            "ticks": 53088,
            "time": 75.4090155,
            "velocity": 0.4881889763779528
          },
          {
            "duration": 0.13636350000000164,
            "durationTicks": 96,
            "midi": 56,
            "name": "G#3",
            "ticks": 53088,
            "time": 75.4090155,
            "velocity": 0.4881889763779528
          },
          {
            "duration": 0.13636350000000164,
            "durationTicks": 96,
            "midi": 44,
            "name": "G#2",
            "ticks": 53088,
            "time": 75.4090155,
            "velocity": 0.4881889763779528
          },
          {
            "duration": 0.13636350000000164,
            "durationTicks": 96,
            "midi": 44,
            "name": "G#2",
            "ticks": 53088,
            "time": 75.4090155,
            "velocity": 0.4881889763779528
          },
          {
            "duration": 0.13636350000000164,
            "durationTicks": 96,
            "midi": 44,
            "name": "G#2",
            "ticks": 53088,
            "time": 75.4090155,
            "velocity": 0.4881889763779528
          },
          {
            "duration": 0.2727270000000033,
            "durationTicks": 192,
            "midi": 44,
            "name": "G#2",
            "ticks": 53184,
            "time": 75.545379,
            "velocity": 0.4881889763779528
          },
          {
            "duration": 0.2727270000000033,
            "durationTicks": 192,
            "midi": 56,
            "name": "G#3",
            "ticks": 53184,
            "time": 75.545379,
            "velocity": 0.4881889763779528
          },
          {
            "duration": 0.2727270000000033,
            "durationTicks": 192,
            "midi": 44,
            "name": "G#2",
            "ticks": 53184,
            "time": 75.545379,
            "velocity": 0.4881889763779528
          },
          {
            "duration": 0.2727270000000033,
            "durationTicks": 192,
            "midi": 44,
            "name": "G#2",
            "ticks": 53184,
            "time": 75.545379,
            "velocity": 0.4881889763779528
          },
          {
            "duration": 0.2727270000000033,
            "durationTicks": 192,
            "midi": 56,
            "name": "G#3",
            "ticks": 53184,
            "time": 75.545379,
            "velocity": 0.4881889763779528
          },
          {
            "duration": 0.2727270000000033,
            "durationTicks": 192,
            "midi": 44,
            "name": "G#2",
            "ticks": 53184,
            "time": 75.545379,
            "velocity": 0.4881889763779528
          },
          {
            "duration": 0.2727270000000033,
            "durationTicks": 192,
            "midi": 56,
            "name": "G#3",
            "ticks": 53184,
            "time": 75.545379,
            "velocity": 0.4881889763779528
          },
          {
            "duration": 0.2727270000000033,
            "durationTicks": 192,
            "midi": 44,
            "name": "G#2",
            "ticks": 53184,
            "time": 75.545379,
            "velocity": 0.4881889763779528
          },
          {
            "duration": 0.2727270000000033,
            "durationTicks": 192,
            "midi": 44,
            "name": "G#2",
            "ticks": 53184,
            "time": 75.545379,
            "velocity": 0.4881889763779528
          },
          {
            "duration": 0.2727270000000033,
            "durationTicks": 192,
            "midi": 56,
            "name": "G#3",
            "ticks": 53184,
            "time": 75.545379,
            "velocity": 0.4881889763779528
          },
          {
            "duration": 0.2727270000000033,
            "durationTicks": 192,
            "midi": 56,
            "name": "G#3",
            "ticks": 53184,
            "time": 75.545379,
            "velocity": 0.4881889763779528
          },
          {
            "duration": 0.2727270000000033,
            "durationTicks": 192,
            "midi": 56,
            "name": "G#3",
            "ticks": 53184,
            "time": 75.545379,
            "velocity": 0.4881889763779528
          },
          {
            "duration": 0.2727270000000033,
            "durationTicks": 192,
            "midi": 61,
            "name": "C#4",
            "ticks": 53376,
            "time": 75.818106,
            "velocity": 0.4881889763779528
          },
          {
            "duration": 0.2727270000000033,
            "durationTicks": 192,
            "midi": 49,
            "name": "C#3",
            "ticks": 53376,
            "time": 75.818106,
            "velocity": 0.4881889763779528
          },
          {
            "duration": 0.2727270000000033,
            "durationTicks": 192,
            "midi": 49,
            "name": "C#3",
            "ticks": 53376,
            "time": 75.818106,
            "velocity": 0.4881889763779528
          },
          {
            "duration": 0.2727270000000033,
            "durationTicks": 192,
            "midi": 61,
            "name": "C#4",
            "ticks": 53376,
            "time": 75.818106,
            "velocity": 0.4881889763779528
          },
          {
            "duration": 0.5454539999999923,
            "durationTicks": 384,
            "midi": 95,
            "name": "B6",
            "ticks": 53376,
            "time": 75.818106,
            "velocity": 0.4881889763779528
          },
          {
            "duration": 0.5454539999999923,
            "durationTicks": 384,
            "midi": 83,
            "name": "B5",
            "ticks": 53376,
            "time": 75.818106,
            "velocity": 0.4881889763779528
          },
          {
            "duration": 0.5454539999999923,
            "durationTicks": 384,
            "midi": 83,
            "name": "B5",
            "ticks": 53376,
            "time": 75.818106,
            "velocity": 0.4881889763779528
          },
          {
            "duration": 0.5454539999999923,
            "durationTicks": 384,
            "midi": 95,
            "name": "B6",
            "ticks": 53376,
            "time": 75.818106,
            "velocity": 0.4881889763779528
          },
          {
            "duration": 0.5454539999999923,
            "durationTicks": 384,
            "midi": 95,
            "name": "B6",
            "ticks": 53376,
            "time": 75.818106,
            "velocity": 0.4881889763779528
          },
          {
            "duration": 0.5454539999999923,
            "durationTicks": 384,
            "midi": 95,
            "name": "B6",
            "ticks": 53376,
            "time": 75.818106,
            "velocity": 0.4881889763779528
          },
          {
            "duration": 0.5454539999999923,
            "durationTicks": 384,
            "midi": 83,
            "name": "B5",
            "ticks": 53376,
            "time": 75.818106,
            "velocity": 0.4881889763779528
          },
          {
            "duration": 0.5454539999999923,
            "durationTicks": 384,
            "midi": 83,
            "name": "B5",
            "ticks": 53376,
            "time": 75.818106,
            "velocity": 0.4881889763779528
          },
          {
            "duration": 0.5454539999999923,
            "durationTicks": 384,
            "midi": 95,
            "name": "B6",
            "ticks": 53376,
            "time": 75.818106,
            "velocity": 0.4881889763779528
          },
          {
            "duration": 0.5454539999999923,
            "durationTicks": 384,
            "midi": 83,
            "name": "B5",
            "ticks": 53376,
            "time": 75.818106,
            "velocity": 0.4881889763779528
          },
          {
            "duration": 0.2727270000000033,
            "durationTicks": 192,
            "midi": 61,
            "name": "C#4",
            "ticks": 53376,
            "time": 75.818106,
            "velocity": 0.4881889763779528
          },
          {
            "duration": 0.2727270000000033,
            "durationTicks": 192,
            "midi": 61,
            "name": "C#4",
            "ticks": 53376,
            "time": 75.818106,
            "velocity": 0.4881889763779528
          },
          {
            "duration": 0.2727270000000033,
            "durationTicks": 192,
            "midi": 49,
            "name": "C#3",
            "ticks": 53376,
            "time": 75.818106,
            "velocity": 0.4881889763779528
          },
          {
            "duration": 0.2727270000000033,
            "durationTicks": 192,
            "midi": 61,
            "name": "C#4",
            "ticks": 53376,
            "time": 75.818106,
            "velocity": 0.4881889763779528
          },
          {
            "duration": 0.2727270000000033,
            "durationTicks": 192,
            "midi": 49,
            "name": "C#3",
            "ticks": 53376,
            "time": 75.818106,
            "velocity": 0.4881889763779528
          },
          {
            "duration": 0.2727270000000033,
            "durationTicks": 192,
            "midi": 49,
            "name": "C#3",
            "ticks": 53376,
            "time": 75.818106,
            "velocity": 0.4881889763779528
          },
          {
            "duration": 0.5454539999999923,
            "durationTicks": 384,
            "midi": 83,
            "name": "B5",
            "ticks": 53376,
            "time": 75.818106,
            "velocity": 0.4881889763779528
          },
          {
            "duration": 0.2727270000000033,
            "durationTicks": 192,
            "midi": 61,
            "name": "C#4",
            "ticks": 53376,
            "time": 75.818106,
            "velocity": 0.4881889763779528
          },
          {
            "duration": 0.2727270000000033,
            "durationTicks": 192,
            "midi": 49,
            "name": "C#3",
            "ticks": 53376,
            "time": 75.818106,
            "velocity": 0.4881889763779528
          },
          {
            "duration": 0.5454539999999923,
            "durationTicks": 384,
            "midi": 95,
            "name": "B6",
            "ticks": 53376,
            "time": 75.818106,
            "velocity": 0.4881889763779528
          },
          {
            "duration": 0.27272699999998906,
            "durationTicks": 192,
            "midi": 56,
            "name": "G#3",
            "ticks": 53568,
            "time": 76.090833,
            "velocity": 0.4881889763779528
          },
          {
            "duration": 0.27272699999998906,
            "durationTicks": 192,
            "midi": 56,
            "name": "G#3",
            "ticks": 53568,
            "time": 76.090833,
            "velocity": 0.4881889763779528
          },
          {
            "duration": 0.27272699999998906,
            "durationTicks": 192,
            "midi": 44,
            "name": "G#2",
            "ticks": 53568,
            "time": 76.090833,
            "velocity": 0.4881889763779528
          },
          {
            "duration": 0.27272699999998906,
            "durationTicks": 192,
            "midi": 56,
            "name": "G#3",
            "ticks": 53568,
            "time": 76.090833,
            "velocity": 0.4881889763779528
          },
          {
            "duration": 0.27272699999998906,
            "durationTicks": 192,
            "midi": 44,
            "name": "G#2",
            "ticks": 53568,
            "time": 76.090833,
            "velocity": 0.4881889763779528
          },
          {
            "duration": 0.27272699999998906,
            "durationTicks": 192,
            "midi": 44,
            "name": "G#2",
            "ticks": 53568,
            "time": 76.090833,
            "velocity": 0.4881889763779528
          },
          {
            "duration": 0.27272699999998906,
            "durationTicks": 192,
            "midi": 44,
            "name": "G#2",
            "ticks": 53568,
            "time": 76.090833,
            "velocity": 0.4881889763779528
          },
          {
            "duration": 0.27272699999998906,
            "durationTicks": 192,
            "midi": 56,
            "name": "G#3",
            "ticks": 53568,
            "time": 76.090833,
            "velocity": 0.4881889763779528
          },
          {
            "duration": 0.27272699999998906,
            "durationTicks": 192,
            "midi": 56,
            "name": "G#3",
            "ticks": 53568,
            "time": 76.090833,
            "velocity": 0.4881889763779528
          },
          {
            "duration": 0.27272699999998906,
            "durationTicks": 192,
            "midi": 44,
            "name": "G#2",
            "ticks": 53568,
            "time": 76.090833,
            "velocity": 0.4881889763779528
          },
          {
            "duration": 0.27272699999998906,
            "durationTicks": 192,
            "midi": 56,
            "name": "G#3",
            "ticks": 53568,
            "time": 76.090833,
            "velocity": 0.4881889763779528
          },
          {
            "duration": 0.27272699999998906,
            "durationTicks": 192,
            "midi": 44,
            "name": "G#2",
            "ticks": 53568,
            "time": 76.090833,
            "velocity": 0.4881889763779528
          },
          {
            "duration": 0.13636350000000164,
            "durationTicks": 96,
            "midi": 42,
            "name": "F#2",
            "ticks": 53760,
            "time": 76.36355999999999,
            "velocity": 0.4881889763779528
          },
          {
            "duration": 0.13636350000000164,
            "durationTicks": 96,
            "midi": 42,
            "name": "F#2",
            "ticks": 53760,
            "time": 76.36355999999999,
            "velocity": 0.4881889763779528
          },
          {
            "duration": 0.13636350000000164,
            "durationTicks": 96,
            "midi": 54,
            "name": "F#3",
            "ticks": 53760,
            "time": 76.36355999999999,
            "velocity": 0.4881889763779528
          },
          {
            "duration": 1.090908000000013,
            "durationTicks": 768,
            "midi": 85,
            "name": "C#6",
            "ticks": 53760,
            "time": 76.36355999999999,
            "velocity": 0.4881889763779528
          },
          {
            "duration": 0.13636350000000164,
            "durationTicks": 96,
            "midi": 54,
            "name": "F#3",
            "ticks": 53760,
            "time": 76.36355999999999,
            "velocity": 0.4881889763779528
          },
          {
            "duration": 0.13636350000000164,
            "durationTicks": 96,
            "midi": 54,
            "name": "F#3",
            "ticks": 53760,
            "time": 76.36355999999999,
            "velocity": 0.4881889763779528
          },
          {
            "duration": 1.090908000000013,
            "durationTicks": 768,
            "midi": 97,
            "name": "C#7",
            "ticks": 53760,
            "time": 76.36355999999999,
            "velocity": 0.4881889763779528
          },
          {
            "duration": 1.090908000000013,
            "durationTicks": 768,
            "midi": 97,
            "name": "C#7",
            "ticks": 53760,
            "time": 76.36355999999999,
            "velocity": 0.4881889763779528
          },
          {
            "duration": 1.090908000000013,
            "durationTicks": 768,
            "midi": 85,
            "name": "C#6",
            "ticks": 53760,
            "time": 76.36355999999999,
            "velocity": 0.4881889763779528
          },
          {
            "duration": 1.090908000000013,
            "durationTicks": 768,
            "midi": 97,
            "name": "C#7",
            "ticks": 53760,
            "time": 76.36355999999999,
            "velocity": 0.4881889763779528
          },
          {
            "duration": 0.13636350000000164,
            "durationTicks": 96,
            "midi": 42,
            "name": "F#2",
            "ticks": 53760,
            "time": 76.36355999999999,
            "velocity": 0.4881889763779528
          },
          {
            "duration": 0.13636350000000164,
            "durationTicks": 96,
            "midi": 42,
            "name": "F#2",
            "ticks": 53760,
            "time": 76.36355999999999,
            "velocity": 0.4881889763779528
          },
          {
            "duration": 1.090908000000013,
            "durationTicks": 768,
            "midi": 85,
            "name": "C#6",
            "ticks": 53760,
            "time": 76.36355999999999,
            "velocity": 0.4881889763779528
          },
          {
            "duration": 1.090908000000013,
            "durationTicks": 768,
            "midi": 97,
            "name": "C#7",
            "ticks": 53760,
            "time": 76.36355999999999,
            "velocity": 0.4881889763779528
          },
          {
            "duration": 1.090908000000013,
            "durationTicks": 768,
            "midi": 85,
            "name": "C#6",
            "ticks": 53760,
            "time": 76.36355999999999,
            "velocity": 0.4881889763779528
          },
          {
            "duration": 0.13636350000000164,
            "durationTicks": 96,
            "midi": 42,
            "name": "F#2",
            "ticks": 53760,
            "time": 76.36355999999999,
            "velocity": 0.4881889763779528
          },
          {
            "duration": 1.090908000000013,
            "durationTicks": 768,
            "midi": 85,
            "name": "C#6",
            "ticks": 53760,
            "time": 76.36355999999999,
            "velocity": 0.4881889763779528
          },
          {
            "duration": 0.13636350000000164,
            "durationTicks": 96,
            "midi": 54,
            "name": "F#3",
            "ticks": 53760,
            "time": 76.36355999999999,
            "velocity": 0.4881889763779528
          },
          {
            "duration": 1.090908000000013,
            "durationTicks": 768,
            "midi": 97,
            "name": "C#7",
            "ticks": 53760,
            "time": 76.36355999999999,
            "velocity": 0.4881889763779528
          },
          {
            "duration": 0.13636350000000164,
            "durationTicks": 96,
            "midi": 54,
            "name": "F#3",
            "ticks": 53760,
            "time": 76.36355999999999,
            "velocity": 0.4881889763779528
          },
          {
            "duration": 1.090908000000013,
            "durationTicks": 768,
            "midi": 97,
            "name": "C#7",
            "ticks": 53760,
            "time": 76.36355999999999,
            "velocity": 0.4881889763779528
          },
          {
            "duration": 1.090908000000013,
            "durationTicks": 768,
            "midi": 85,
            "name": "C#6",
            "ticks": 53760,
            "time": 76.36355999999999,
            "velocity": 0.4881889763779528
          },
          {
            "duration": 0.13636350000000164,
            "durationTicks": 96,
            "midi": 42,
            "name": "F#2",
            "ticks": 53760,
            "time": 76.36355999999999,
            "velocity": 0.4881889763779528
          },
          {
            "duration": 0.13636350000000164,
            "durationTicks": 96,
            "midi": 54,
            "name": "F#3",
            "ticks": 53760,
            "time": 76.36355999999999,
            "velocity": 0.4881889763779528
          },
          {
            "duration": 0.13636350000000164,
            "durationTicks": 96,
            "midi": 54,
            "name": "F#3",
            "ticks": 53856,
            "time": 76.4999235,
            "velocity": 0.4881889763779528
          },
          {
            "duration": 0.13636350000000164,
            "durationTicks": 96,
            "midi": 42,
            "name": "F#2",
            "ticks": 53856,
            "time": 76.4999235,
            "velocity": 0.4881889763779528
          },
          {
            "duration": 0.13636350000000164,
            "durationTicks": 96,
            "midi": 42,
            "name": "F#2",
            "ticks": 53856,
            "time": 76.4999235,
            "velocity": 0.4881889763779528
          },
          {
            "duration": 0.13636350000000164,
            "durationTicks": 96,
            "midi": 42,
            "name": "F#2",
            "ticks": 53856,
            "time": 76.4999235,
            "velocity": 0.4881889763779528
          },
          {
            "duration": 0.13636350000000164,
            "durationTicks": 96,
            "midi": 42,
            "name": "F#2",
            "ticks": 53856,
            "time": 76.4999235,
            "velocity": 0.4881889763779528
          },
          {
            "duration": 0.13636350000000164,
            "durationTicks": 96,
            "midi": 42,
            "name": "F#2",
            "ticks": 53856,
            "time": 76.4999235,
            "velocity": 0.4881889763779528
          },
          {
            "duration": 0.13636350000000164,
            "durationTicks": 96,
            "midi": 54,
            "name": "F#3",
            "ticks": 53856,
            "time": 76.4999235,
            "velocity": 0.4881889763779528
          },
          {
            "duration": 0.13636350000000164,
            "durationTicks": 96,
            "midi": 54,
            "name": "F#3",
            "ticks": 53856,
            "time": 76.4999235,
            "velocity": 0.4881889763779528
          },
          {
            "duration": 0.13636350000000164,
            "durationTicks": 96,
            "midi": 42,
            "name": "F#2",
            "ticks": 53856,
            "time": 76.4999235,
            "velocity": 0.4881889763779528
          },
          {
            "duration": 0.13636350000000164,
            "durationTicks": 96,
            "midi": 54,
            "name": "F#3",
            "ticks": 53856,
            "time": 76.4999235,
            "velocity": 0.4881889763779528
          },
          {
            "duration": 0.13636350000000164,
            "durationTicks": 96,
            "midi": 54,
            "name": "F#3",
            "ticks": 53856,
            "time": 76.4999235,
            "velocity": 0.4881889763779528
          },
          {
            "duration": 0.13636350000000164,
            "durationTicks": 96,
            "midi": 54,
            "name": "F#3",
            "ticks": 53856,
            "time": 76.4999235,
            "velocity": 0.4881889763779528
          },
          {
            "duration": 0.2727270000000033,
            "durationTicks": 192,
            "midi": 42,
            "name": "F#2",
            "ticks": 53952,
            "time": 76.636287,
            "velocity": 0.4881889763779528
          },
          {
            "duration": 0.2727270000000033,
            "durationTicks": 192,
            "midi": 54,
            "name": "F#3",
            "ticks": 53952,
            "time": 76.636287,
            "velocity": 0.4881889763779528
          },
          {
            "duration": 0.2727270000000033,
            "durationTicks": 192,
            "midi": 42,
            "name": "F#2",
            "ticks": 53952,
            "time": 76.636287,
            "velocity": 0.4881889763779528
          },
          {
            "duration": 0.2727270000000033,
            "durationTicks": 192,
            "midi": 54,
            "name": "F#3",
            "ticks": 53952,
            "time": 76.636287,
            "velocity": 0.4881889763779528
          },
          {
            "duration": 0.2727270000000033,
            "durationTicks": 192,
            "midi": 54,
            "name": "F#3",
            "ticks": 53952,
            "time": 76.636287,
            "velocity": 0.4881889763779528
          },
          {
            "duration": 0.2727270000000033,
            "durationTicks": 192,
            "midi": 42,
            "name": "F#2",
            "ticks": 53952,
            "time": 76.636287,
            "velocity": 0.4881889763779528
          },
          {
            "duration": 0.2727270000000033,
            "durationTicks": 192,
            "midi": 54,
            "name": "F#3",
            "ticks": 53952,
            "time": 76.636287,
            "velocity": 0.4881889763779528
          },
          {
            "duration": 0.2727270000000033,
            "durationTicks": 192,
            "midi": 42,
            "name": "F#2",
            "ticks": 53952,
            "time": 76.636287,
            "velocity": 0.4881889763779528
          },
          {
            "duration": 0.2727270000000033,
            "durationTicks": 192,
            "midi": 54,
            "name": "F#3",
            "ticks": 53952,
            "time": 76.636287,
            "velocity": 0.4881889763779528
          },
          {
            "duration": 0.2727270000000033,
            "durationTicks": 192,
            "midi": 42,
            "name": "F#2",
            "ticks": 53952,
            "time": 76.636287,
            "velocity": 0.4881889763779528
          },
          {
            "duration": 0.2727270000000033,
            "durationTicks": 192,
            "midi": 54,
            "name": "F#3",
            "ticks": 53952,
            "time": 76.636287,
            "velocity": 0.4881889763779528
          },
          {
            "duration": 0.2727270000000033,
            "durationTicks": 192,
            "midi": 42,
            "name": "F#2",
            "ticks": 53952,
            "time": 76.636287,
            "velocity": 0.4881889763779528
          },
          {
            "duration": 0.13636350000000164,
            "durationTicks": 96,
            "midi": 54,
            "name": "F#3",
            "ticks": 54144,
            "time": 76.909014,
            "velocity": 0.4881889763779528
          },
          {
            "duration": 0.13636350000000164,
            "durationTicks": 96,
            "midi": 54,
            "name": "F#3",
            "ticks": 54144,
            "time": 76.909014,
            "velocity": 0.4881889763779528
          },
          {
            "duration": 0.13636350000000164,
            "durationTicks": 96,
            "midi": 54,
            "name": "F#3",
            "ticks": 54144,
            "time": 76.909014,
            "velocity": 0.4881889763779528
          },
          {
            "duration": 0.13636350000000164,
            "durationTicks": 96,
            "midi": 54,
            "name": "F#3",
            "ticks": 54144,
            "time": 76.909014,
            "velocity": 0.4881889763779528
          },
          {
            "duration": 0.13636350000000164,
            "durationTicks": 96,
            "midi": 54,
            "name": "F#3",
            "ticks": 54144,
            "time": 76.909014,
            "velocity": 0.4881889763779528
          },
          {
            "duration": 0.13636350000000164,
            "durationTicks": 96,
            "midi": 42,
            "name": "F#2",
            "ticks": 54144,
            "time": 76.909014,
            "velocity": 0.4881889763779528
          },
          {
            "duration": 0.13636350000000164,
            "durationTicks": 96,
            "midi": 42,
            "name": "F#2",
            "ticks": 54144,
            "time": 76.909014,
            "velocity": 0.4881889763779528
          },
          {
            "duration": 0.13636350000000164,
            "durationTicks": 96,
            "midi": 42,
            "name": "F#2",
            "ticks": 54144,
            "time": 76.909014,
            "velocity": 0.4881889763779528
          },
          {
            "duration": 0.13636350000000164,
            "durationTicks": 96,
            "midi": 54,
            "name": "F#3",
            "ticks": 54144,
            "time": 76.909014,
            "velocity": 0.4881889763779528
          },
          {
            "duration": 0.13636350000000164,
            "durationTicks": 96,
            "midi": 42,
            "name": "F#2",
            "ticks": 54144,
            "time": 76.909014,
            "velocity": 0.4881889763779528
          },
          {
            "duration": 0.13636350000000164,
            "durationTicks": 96,
            "midi": 42,
            "name": "F#2",
            "ticks": 54144,
            "time": 76.909014,
            "velocity": 0.4881889763779528
          },
          {
            "duration": 0.13636350000000164,
            "durationTicks": 96,
            "midi": 42,
            "name": "F#2",
            "ticks": 54144,
            "time": 76.909014,
            "velocity": 0.4881889763779528
          },
          {
            "duration": 0.13636350000000164,
            "durationTicks": 96,
            "midi": 42,
            "name": "F#2",
            "ticks": 54240,
            "time": 77.0453775,
            "velocity": 0.4881889763779528
          },
          {
            "duration": 0.13636350000000164,
            "durationTicks": 96,
            "midi": 42,
            "name": "F#2",
            "ticks": 54240,
            "time": 77.0453775,
            "velocity": 0.4881889763779528
          },
          {
            "duration": 0.13636350000000164,
            "durationTicks": 96,
            "midi": 42,
            "name": "F#2",
            "ticks": 54240,
            "time": 77.0453775,
            "velocity": 0.4881889763779528
          },
          {
            "duration": 0.13636350000000164,
            "durationTicks": 96,
            "midi": 42,
            "name": "F#2",
            "ticks": 54240,
            "time": 77.0453775,
            "velocity": 0.4881889763779528
          },
          {
            "duration": 0.13636350000000164,
            "durationTicks": 96,
            "midi": 54,
            "name": "F#3",
            "ticks": 54240,
            "time": 77.0453775,
            "velocity": 0.4881889763779528
          },
          {
            "duration": 0.13636350000000164,
            "durationTicks": 96,
            "midi": 54,
            "name": "F#3",
            "ticks": 54240,
            "time": 77.0453775,
            "velocity": 0.4881889763779528
          },
          {
            "duration": 0.13636350000000164,
            "durationTicks": 96,
            "midi": 54,
            "name": "F#3",
            "ticks": 54240,
            "time": 77.0453775,
            "velocity": 0.4881889763779528
          },
          {
            "duration": 0.13636350000000164,
            "durationTicks": 96,
            "midi": 54,
            "name": "F#3",
            "ticks": 54240,
            "time": 77.0453775,
            "velocity": 0.4881889763779528
          },
          {
            "duration": 0.13636350000000164,
            "durationTicks": 96,
            "midi": 42,
            "name": "F#2",
            "ticks": 54240,
            "time": 77.0453775,
            "velocity": 0.4881889763779528
          },
          {
            "duration": 0.13636350000000164,
            "durationTicks": 96,
            "midi": 42,
            "name": "F#2",
            "ticks": 54240,
            "time": 77.0453775,
            "velocity": 0.4881889763779528
          },
          {
            "duration": 0.13636350000000164,
            "durationTicks": 96,
            "midi": 54,
            "name": "F#3",
            "ticks": 54240,
            "time": 77.0453775,
            "velocity": 0.4881889763779528
          },
          {
            "duration": 0.13636350000000164,
            "durationTicks": 96,
            "midi": 54,
            "name": "F#3",
            "ticks": 54240,
            "time": 77.0453775,
            "velocity": 0.4881889763779528
          },
          {
            "duration": 0.2727270000000033,
            "durationTicks": 192,
            "midi": 54,
            "name": "F#3",
            "ticks": 54336,
            "time": 77.181741,
            "velocity": 0.4881889763779528
          },
          {
            "duration": 0.2727270000000033,
            "durationTicks": 192,
            "midi": 54,
            "name": "F#3",
            "ticks": 54336,
            "time": 77.181741,
            "velocity": 0.4881889763779528
          },
          {
            "duration": 0.2727270000000033,
            "durationTicks": 192,
            "midi": 42,
            "name": "F#2",
            "ticks": 54336,
            "time": 77.181741,
            "velocity": 0.4881889763779528
          },
          {
            "duration": 0.2727270000000033,
            "durationTicks": 192,
            "midi": 54,
            "name": "F#3",
            "ticks": 54336,
            "time": 77.181741,
            "velocity": 0.4881889763779528
          },
          {
            "duration": 0.2727270000000033,
            "durationTicks": 192,
            "midi": 42,
            "name": "F#2",
            "ticks": 54336,
            "time": 77.181741,
            "velocity": 0.4881889763779528
          },
          {
            "duration": 0.2727270000000033,
            "durationTicks": 192,
            "midi": 42,
            "name": "F#2",
            "ticks": 54336,
            "time": 77.181741,
            "velocity": 0.4881889763779528
          },
          {
            "duration": 0.2727270000000033,
            "durationTicks": 192,
            "midi": 42,
            "name": "F#2",
            "ticks": 54336,
            "time": 77.181741,
            "velocity": 0.4881889763779528
          },
          {
            "duration": 0.2727270000000033,
            "durationTicks": 192,
            "midi": 42,
            "name": "F#2",
            "ticks": 54336,
            "time": 77.181741,
            "velocity": 0.4881889763779528
          },
          {
            "duration": 0.2727270000000033,
            "durationTicks": 192,
            "midi": 42,
            "name": "F#2",
            "ticks": 54336,
            "time": 77.181741,
            "velocity": 0.4881889763779528
          },
          {
            "duration": 0.2727270000000033,
            "durationTicks": 192,
            "midi": 54,
            "name": "F#3",
            "ticks": 54336,
            "time": 77.181741,
            "velocity": 0.4881889763779528
          },
          {
            "duration": 0.2727270000000033,
            "durationTicks": 192,
            "midi": 54,
            "name": "F#3",
            "ticks": 54336,
            "time": 77.181741,
            "velocity": 0.4881889763779528
          },
          {
            "duration": 0.2727270000000033,
            "durationTicks": 192,
            "midi": 54,
            "name": "F#3",
            "ticks": 54336,
            "time": 77.181741,
            "velocity": 0.4881889763779528
          },
          {
            "duration": 1.0909079999999989,
            "durationTicks": 768,
            "midi": 90,
            "name": "F#6",
            "ticks": 54528,
            "time": 77.454468,
            "velocity": 0.4881889763779528
          },
          {
            "duration": 0.13636349999998743,
            "durationTicks": 96,
            "midi": 42,
            "name": "F#2",
            "ticks": 54528,
            "time": 77.454468,
            "velocity": 0.4881889763779528
          },
          {
            "duration": 1.0909079999999989,
            "durationTicks": 768,
            "midi": 90,
            "name": "F#6",
            "ticks": 54528,
            "time": 77.454468,
            "velocity": 0.4881889763779528
          },
          {
            "duration": 0.13636349999998743,
            "durationTicks": 96,
            "midi": 54,
            "name": "F#3",
            "ticks": 54528,
            "time": 77.454468,
            "velocity": 0.4881889763779528
          },
          {
            "duration": 1.0909079999999989,
            "durationTicks": 768,
            "midi": 102,
            "name": "F#7",
            "ticks": 54528,
            "time": 77.454468,
            "velocity": 0.4881889763779528
          },
          {
            "duration": 1.0909079999999989,
            "durationTicks": 768,
            "midi": 90,
            "name": "F#6",
            "ticks": 54528,
            "time": 77.454468,
            "velocity": 0.4881889763779528
          },
          {
            "duration": 0.13636349999998743,
            "durationTicks": 96,
            "midi": 54,
            "name": "F#3",
            "ticks": 54528,
            "time": 77.454468,
            "velocity": 0.4881889763779528
          },
          {
            "duration": 0.13636349999998743,
            "durationTicks": 96,
            "midi": 54,
            "name": "F#3",
            "ticks": 54528,
            "time": 77.454468,
            "velocity": 0.4881889763779528
          },
          {
            "duration": 0.13636349999998743,
            "durationTicks": 96,
            "midi": 42,
            "name": "F#2",
            "ticks": 54528,
            "time": 77.454468,
            "velocity": 0.4881889763779528
          },
          {
            "duration": 0.13636349999998743,
            "durationTicks": 96,
            "midi": 42,
            "name": "F#2",
            "ticks": 54528,
            "time": 77.454468,
            "velocity": 0.4881889763779528
          },
          {
            "duration": 1.0909079999999989,
            "durationTicks": 768,
            "midi": 102,
            "name": "F#7",
            "ticks": 54528,
            "time": 77.454468,
            "velocity": 0.4881889763779528
          },
          {
            "duration": 1.0909079999999989,
            "durationTicks": 768,
            "midi": 90,
            "name": "F#6",
            "ticks": 54528,
            "time": 77.454468,
            "velocity": 0.4881889763779528
          },
          {
            "duration": 0.13636349999998743,
            "durationTicks": 96,
            "midi": 42,
            "name": "F#2",
            "ticks": 54528,
            "time": 77.454468,
            "velocity": 0.4881889763779528
          },
          {
            "duration": 0.13636349999998743,
            "durationTicks": 96,
            "midi": 42,
            "name": "F#2",
            "ticks": 54528,
            "time": 77.454468,
            "velocity": 0.4881889763779528
          },
          {
            "duration": 1.0909079999999989,
            "durationTicks": 768,
            "midi": 102,
            "name": "F#7",
            "ticks": 54528,
            "time": 77.454468,
            "velocity": 0.4881889763779528
          },
          {
            "duration": 0.13636349999998743,
            "durationTicks": 96,
            "midi": 54,
            "name": "F#3",
            "ticks": 54528,
            "time": 77.454468,
            "velocity": 0.4881889763779528
          },
          {
            "duration": 1.0909079999999989,
            "durationTicks": 768,
            "midi": 102,
            "name": "F#7",
            "ticks": 54528,
            "time": 77.454468,
            "velocity": 0.4881889763779528
          },
          {
            "duration": 0.13636349999998743,
            "durationTicks": 96,
            "midi": 54,
            "name": "F#3",
            "ticks": 54528,
            "time": 77.454468,
            "velocity": 0.4881889763779528
          },
          {
            "duration": 1.0909079999999989,
            "durationTicks": 768,
            "midi": 102,
            "name": "F#7",
            "ticks": 54528,
            "time": 77.454468,
            "velocity": 0.4881889763779528
          },
          {
            "duration": 0.13636349999998743,
            "durationTicks": 96,
            "midi": 54,
            "name": "F#3",
            "ticks": 54528,
            "time": 77.454468,
            "velocity": 0.4881889763779528
          },
          {
            "duration": 1.0909079999999989,
            "durationTicks": 768,
            "midi": 90,
            "name": "F#6",
            "ticks": 54528,
            "time": 77.454468,
            "velocity": 0.4881889763779528
          },
          {
            "duration": 1.0909079999999989,
            "durationTicks": 768,
            "midi": 102,
            "name": "F#7",
            "ticks": 54528,
            "time": 77.454468,
            "velocity": 0.4881889763779528
          },
          {
            "duration": 0.13636349999998743,
            "durationTicks": 96,
            "midi": 42,
            "name": "F#2",
            "ticks": 54528,
            "time": 77.454468,
            "velocity": 0.4881889763779528
          },
          {
            "duration": 1.0909079999999989,
            "durationTicks": 768,
            "midi": 90,
            "name": "F#6",
            "ticks": 54528,
            "time": 77.454468,
            "velocity": 0.4881889763779528
          },
          {
            "duration": 0.13636350000000164,
            "durationTicks": 96,
            "midi": 57,
            "name": "A3",
            "ticks": 54624,
            "time": 77.5908315,
            "velocity": 0.4881889763779528
          },
          {
            "duration": 0.13636350000000164,
            "durationTicks": 96,
            "midi": 45,
            "name": "A2",
            "ticks": 54624,
            "time": 77.5908315,
            "velocity": 0.4881889763779528
          },
          {
            "duration": 0.13636350000000164,
            "durationTicks": 96,
            "midi": 57,
            "name": "A3",
            "ticks": 54624,
            "time": 77.5908315,
            "velocity": 0.4881889763779528
          },
          {
            "duration": 0.13636350000000164,
            "durationTicks": 96,
            "midi": 45,
            "name": "A2",
            "ticks": 54624,
            "time": 77.5908315,
            "velocity": 0.4881889763779528
          },
          {
            "duration": 0.13636350000000164,
            "durationTicks": 96,
            "midi": 57,
            "name": "A3",
            "ticks": 54624,
            "time": 77.5908315,
            "velocity": 0.4881889763779528
          },
          {
            "duration": 0.13636350000000164,
            "durationTicks": 96,
            "midi": 45,
            "name": "A2",
            "ticks": 54624,
            "time": 77.5908315,
            "velocity": 0.4881889763779528
          },
          {
            "duration": 0.13636350000000164,
            "durationTicks": 96,
            "midi": 45,
            "name": "A2",
            "ticks": 54624,
            "time": 77.5908315,
            "velocity": 0.4881889763779528
          },
          {
            "duration": 0.13636350000000164,
            "durationTicks": 96,
            "midi": 45,
            "name": "A2",
            "ticks": 54624,
            "time": 77.5908315,
            "velocity": 0.4881889763779528
          },
          {
            "duration": 0.13636350000000164,
            "durationTicks": 96,
            "midi": 57,
            "name": "A3",
            "ticks": 54624,
            "time": 77.5908315,
            "velocity": 0.4881889763779528
          },
          {
            "duration": 0.13636350000000164,
            "durationTicks": 96,
            "midi": 57,
            "name": "A3",
            "ticks": 54624,
            "time": 77.5908315,
            "velocity": 0.4881889763779528
          },
          {
            "duration": 0.13636350000000164,
            "durationTicks": 96,
            "midi": 57,
            "name": "A3",
            "ticks": 54624,
            "time": 77.5908315,
            "velocity": 0.4881889763779528
          },
          {
            "duration": 0.13636350000000164,
            "durationTicks": 96,
            "midi": 45,
            "name": "A2",
            "ticks": 54624,
            "time": 77.5908315,
            "velocity": 0.4881889763779528
          },
          {
            "duration": 0.2727270000000033,
            "durationTicks": 192,
            "midi": 57,
            "name": "A3",
            "ticks": 54720,
            "time": 77.727195,
            "velocity": 0.4881889763779528
          },
          {
            "duration": 0.2727270000000033,
            "durationTicks": 192,
            "midi": 57,
            "name": "A3",
            "ticks": 54720,
            "time": 77.727195,
            "velocity": 0.4881889763779528
          },
          {
            "duration": 0.2727270000000033,
            "durationTicks": 192,
            "midi": 45,
            "name": "A2",
            "ticks": 54720,
            "time": 77.727195,
            "velocity": 0.4881889763779528
          },
          {
            "duration": 0.2727270000000033,
            "durationTicks": 192,
            "midi": 57,
            "name": "A3",
            "ticks": 54720,
            "time": 77.727195,
            "velocity": 0.4881889763779528
          },
          {
            "duration": 0.2727270000000033,
            "durationTicks": 192,
            "midi": 57,
            "name": "A3",
            "ticks": 54720,
            "time": 77.727195,
            "velocity": 0.4881889763779528
          },
          {
            "duration": 0.2727270000000033,
            "durationTicks": 192,
            "midi": 57,
            "name": "A3",
            "ticks": 54720,
            "time": 77.727195,
            "velocity": 0.4881889763779528
          },
          {
            "duration": 0.2727270000000033,
            "durationTicks": 192,
            "midi": 57,
            "name": "A3",
            "ticks": 54720,
            "time": 77.727195,
            "velocity": 0.4881889763779528
          },
          {
            "duration": 0.2727270000000033,
            "durationTicks": 192,
            "midi": 45,
            "name": "A2",
            "ticks": 54720,
            "time": 77.727195,
            "velocity": 0.4881889763779528
          },
          {
            "duration": 0.2727270000000033,
            "durationTicks": 192,
            "midi": 45,
            "name": "A2",
            "ticks": 54720,
            "time": 77.727195,
            "velocity": 0.4881889763779528
          },
          {
            "duration": 0.2727270000000033,
            "durationTicks": 192,
            "midi": 45,
            "name": "A2",
            "ticks": 54720,
            "time": 77.727195,
            "velocity": 0.4881889763779528
          },
          {
            "duration": 0.2727270000000033,
            "durationTicks": 192,
            "midi": 45,
            "name": "A2",
            "ticks": 54720,
            "time": 77.727195,
            "velocity": 0.4881889763779528
          },
          {
            "duration": 0.2727270000000033,
            "durationTicks": 192,
            "midi": 45,
            "name": "A2",
            "ticks": 54720,
            "time": 77.727195,
            "velocity": 0.4881889763779528
          },
          {
            "duration": 0.5454540000000065,
            "durationTicks": 384,
            "midi": 56,
            "name": "G#3",
            "ticks": 54912,
            "time": 77.999922,
            "velocity": 0.4881889763779528
          },
          {
            "duration": 0.5454540000000065,
            "durationTicks": 384,
            "midi": 44,
            "name": "G#2",
            "ticks": 54912,
            "time": 77.999922,
            "velocity": 0.4881889763779528
          },
          {
            "duration": 0.5454540000000065,
            "durationTicks": 384,
            "midi": 44,
            "name": "G#2",
            "ticks": 54912,
            "time": 77.999922,
            "velocity": 0.4881889763779528
          },
          {
            "duration": 0.5454540000000065,
            "durationTicks": 384,
            "midi": 56,
            "name": "G#3",
            "ticks": 54912,
            "time": 77.999922,
            "velocity": 0.4881889763779528
          },
          {
            "duration": 0.5454540000000065,
            "durationTicks": 384,
            "midi": 44,
            "name": "G#2",
            "ticks": 54912,
            "time": 77.999922,
            "velocity": 0.4881889763779528
          },
          {
            "duration": 0.5454540000000065,
            "durationTicks": 384,
            "midi": 44,
            "name": "G#2",
            "ticks": 54912,
            "time": 77.999922,
            "velocity": 0.4881889763779528
          },
          {
            "duration": 0.5454540000000065,
            "durationTicks": 384,
            "midi": 56,
            "name": "G#3",
            "ticks": 54912,
            "time": 77.999922,
            "velocity": 0.4881889763779528
          },
          {
            "duration": 0.5454540000000065,
            "durationTicks": 384,
            "midi": 44,
            "name": "G#2",
            "ticks": 54912,
            "time": 77.999922,
            "velocity": 0.4881889763779528
          },
          {
            "duration": 0.5454540000000065,
            "durationTicks": 384,
            "midi": 44,
            "name": "G#2",
            "ticks": 54912,
            "time": 77.999922,
            "velocity": 0.4881889763779528
          },
          {
            "duration": 0.5454540000000065,
            "durationTicks": 384,
            "midi": 56,
            "name": "G#3",
            "ticks": 54912,
            "time": 77.999922,
            "velocity": 0.4881889763779528
          },
          {
            "duration": 0.5454540000000065,
            "durationTicks": 384,
            "midi": 56,
            "name": "G#3",
            "ticks": 54912,
            "time": 77.999922,
            "velocity": 0.4881889763779528
          },
          {
            "duration": 0.5454540000000065,
            "durationTicks": 384,
            "midi": 56,
            "name": "G#3",
            "ticks": 54912,
            "time": 77.999922,
            "velocity": 0.4881889763779528
          },
          {
            "duration": 0.5454539999999923,
            "durationTicks": 384,
            "midi": 49,
            "name": "C#3",
            "ticks": 55296,
            "time": 78.545376,
            "velocity": 0.4881889763779528
          },
          {
            "duration": 0.5454539999999923,
            "durationTicks": 384,
            "midi": 61,
            "name": "C#4",
            "ticks": 55296,
            "time": 78.545376,
            "velocity": 0.4881889763779528
          },
          {
            "duration": 0.5454539999999923,
            "durationTicks": 384,
            "midi": 61,
            "name": "C#4",
            "ticks": 55296,
            "time": 78.545376,
            "velocity": 0.4881889763779528
          },
          {
            "duration": 0.5454539999999923,
            "durationTicks": 384,
            "midi": 49,
            "name": "C#3",
            "ticks": 55296,
            "time": 78.545376,
            "velocity": 0.4881889763779528
          },
          {
            "duration": 0.5454539999999923,
            "durationTicks": 384,
            "midi": 49,
            "name": "C#3",
            "ticks": 55296,
            "time": 78.545376,
            "velocity": 0.4881889763779528
          },
          {
            "duration": 0.5454539999999923,
            "durationTicks": 384,
            "midi": 61,
            "name": "C#4",
            "ticks": 55296,
            "time": 78.545376,
            "velocity": 0.4881889763779528
          },
          {
            "duration": 0.5454539999999923,
            "durationTicks": 384,
            "midi": 49,
            "name": "C#3",
            "ticks": 55296,
            "time": 78.545376,
            "velocity": 0.4881889763779528
          },
          {
            "duration": 0.5454539999999923,
            "durationTicks": 384,
            "midi": 61,
            "name": "C#4",
            "ticks": 55296,
            "time": 78.545376,
            "velocity": 0.4881889763779528
          },
          {
            "duration": 0.5454539999999923,
            "durationTicks": 384,
            "midi": 49,
            "name": "C#3",
            "ticks": 55296,
            "time": 78.545376,
            "velocity": 0.4881889763779528
          },
          {
            "duration": 0.5454539999999923,
            "durationTicks": 384,
            "midi": 61,
            "name": "C#4",
            "ticks": 55296,
            "time": 78.545376,
            "velocity": 0.4881889763779528
          },
          {
            "duration": 0.5454539999999923,
            "durationTicks": 384,
            "midi": 49,
            "name": "C#3",
            "ticks": 55296,
            "time": 78.545376,
            "velocity": 0.4881889763779528
          },
          {
            "duration": 0.5454539999999923,
            "durationTicks": 384,
            "midi": 61,
            "name": "C#4",
            "ticks": 55296,
            "time": 78.545376,
            "velocity": 0.4881889763779528
          },
          {
            "duration": 0.2727270000000033,
            "durationTicks": 192,
            "midi": 88,
            "name": "E6",
            "ticks": 55488,
            "time": 78.818103,
            "velocity": 0.4881889763779528
          },
          {
            "duration": 0.2727270000000033,
            "durationTicks": 192,
            "midi": 88,
            "name": "E6",
            "ticks": 55488,
            "time": 78.818103,
            "velocity": 0.4881889763779528
          },
          {
            "duration": 0.2727270000000033,
            "durationTicks": 192,
            "midi": 88,
            "name": "E6",
            "ticks": 55488,
            "time": 78.818103,
            "velocity": 0.4881889763779528
          },
          {
            "duration": 0.2727270000000033,
            "durationTicks": 192,
            "midi": 88,
            "name": "E6",
            "ticks": 55488,
            "time": 78.818103,
            "velocity": 0.4881889763779528
          },
          {
            "duration": 0.2727270000000033,
            "durationTicks": 192,
            "midi": 88,
            "name": "E6",
            "ticks": 55488,
            "time": 78.818103,
            "velocity": 0.4881889763779528
          },
          {
            "duration": 0.2727270000000033,
            "durationTicks": 192,
            "midi": 88,
            "name": "E6",
            "ticks": 55488,
            "time": 78.818103,
            "velocity": 0.4881889763779528
          },
          {
            "duration": 0.2727270000000033,
            "durationTicks": 192,
            "midi": 87,
            "name": "D#6",
            "ticks": 55680,
            "time": 79.09083,
            "velocity": 0.4881889763779528
          },
          {
            "duration": 0.5454540000000065,
            "durationTicks": 384,
            "midi": 64,
            "name": "E4",
            "ticks": 55680,
            "time": 79.09083,
            "velocity": 0.4881889763779528
          },
          {
            "duration": 0.5454540000000065,
            "durationTicks": 384,
            "midi": 64,
            "name": "E4",
            "ticks": 55680,
            "time": 79.09083,
            "velocity": 0.4881889763779528
          },
          {
            "duration": 0.2727270000000033,
            "durationTicks": 192,
            "midi": 87,
            "name": "D#6",
            "ticks": 55680,
            "time": 79.09083,
            "velocity": 0.4881889763779528
          },
          {
            "duration": 0.5454540000000065,
            "durationTicks": 384,
            "midi": 68,
            "name": "G#4",
            "ticks": 55680,
            "time": 79.09083,
            "velocity": 0.4881889763779528
          },
          {
            "duration": 0.5454540000000065,
            "durationTicks": 384,
            "midi": 68,
            "name": "G#4",
            "ticks": 55680,
            "time": 79.09083,
            "velocity": 0.4881889763779528
          },
          {
            "duration": 0.5454540000000065,
            "durationTicks": 384,
            "midi": 73,
            "name": "C#5",
            "ticks": 55680,
            "time": 79.09083,
            "velocity": 0.4881889763779528
          },
          {
            "duration": 0.5454540000000065,
            "durationTicks": 384,
            "midi": 73,
            "name": "C#5",
            "ticks": 55680,
            "time": 79.09083,
            "velocity": 0.4881889763779528
          },
          {
            "duration": 0.2727270000000033,
            "durationTicks": 192,
            "midi": 87,
            "name": "D#6",
            "ticks": 55680,
            "time": 79.09083,
            "velocity": 0.4881889763779528
          },
          {
            "duration": 0.5454540000000065,
            "durationTicks": 384,
            "midi": 68,
            "name": "G#4",
            "ticks": 55680,
            "time": 79.09083,
            "velocity": 0.4881889763779528
          },
          {
            "duration": 0.5454540000000065,
            "durationTicks": 384,
            "midi": 64,
            "name": "E4",
            "ticks": 55680,
            "time": 79.09083,
            "velocity": 0.4881889763779528
          },
          {
            "duration": 0.5454540000000065,
            "durationTicks": 384,
            "midi": 73,
            "name": "C#5",
            "ticks": 55680,
            "time": 79.09083,
            "velocity": 0.4881889763779528
          },
          {
            "duration": 0.2727270000000033,
            "durationTicks": 192,
            "midi": 87,
            "name": "D#6",
            "ticks": 55680,
            "time": 79.09083,
            "velocity": 0.4881889763779528
          },
          {
            "duration": 0.5454540000000065,
            "durationTicks": 384,
            "midi": 64,
            "name": "E4",
            "ticks": 55680,
            "time": 79.09083,
            "velocity": 0.4881889763779528
          },
          {
            "duration": 0.2727270000000033,
            "durationTicks": 192,
            "midi": 87,
            "name": "D#6",
            "ticks": 55680,
            "time": 79.09083,
            "velocity": 0.4881889763779528
          },
          {
            "duration": 0.5454540000000065,
            "durationTicks": 384,
            "midi": 64,
            "name": "E4",
            "ticks": 55680,
            "time": 79.09083,
            "velocity": 0.4881889763779528
          },
          {
            "duration": 0.5454540000000065,
            "durationTicks": 384,
            "midi": 73,
            "name": "C#5",
            "ticks": 55680,
            "time": 79.09083,
            "velocity": 0.4881889763779528
          },
          {
            "duration": 0.5454540000000065,
            "durationTicks": 384,
            "midi": 64,
            "name": "E4",
            "ticks": 55680,
            "time": 79.09083,
            "velocity": 0.4881889763779528
          },
          {
            "duration": 0.5454540000000065,
            "durationTicks": 384,
            "midi": 68,
            "name": "G#4",
            "ticks": 55680,
            "time": 79.09083,
            "velocity": 0.4881889763779528
          },
          {
            "duration": 0.5454540000000065,
            "durationTicks": 384,
            "midi": 68,
            "name": "G#4",
            "ticks": 55680,
            "time": 79.09083,
            "velocity": 0.4881889763779528
          },
          {
            "duration": 0.5454540000000065,
            "durationTicks": 384,
            "midi": 73,
            "name": "C#5",
            "ticks": 55680,
            "time": 79.09083,
            "velocity": 0.4881889763779528
          },
          {
            "duration": 0.2727270000000033,
            "durationTicks": 192,
            "midi": 87,
            "name": "D#6",
            "ticks": 55680,
            "time": 79.09083,
            "velocity": 0.4881889763779528
          },
          {
            "duration": 0.5454540000000065,
            "durationTicks": 384,
            "midi": 68,
            "name": "G#4",
            "ticks": 55680,
            "time": 79.09083,
            "velocity": 0.4881889763779528
          },
          {
            "duration": 0.5454540000000065,
            "durationTicks": 384,
            "midi": 73,
            "name": "C#5",
            "ticks": 55680,
            "time": 79.09083,
            "velocity": 0.4881889763779528
          },
          {
            "duration": 0.2727270000000033,
            "durationTicks": 192,
            "midi": 85,
            "name": "C#6",
            "ticks": 55872,
            "time": 79.363557,
            "velocity": 0.4881889763779528
          },
          {
            "duration": 0.2727270000000033,
            "durationTicks": 192,
            "midi": 85,
            "name": "C#6",
            "ticks": 55872,
            "time": 79.363557,
            "velocity": 0.4881889763779528
          },
          {
            "duration": 0.2727270000000033,
            "durationTicks": 192,
            "midi": 85,
            "name": "C#6",
            "ticks": 55872,
            "time": 79.363557,
            "velocity": 0.4881889763779528
          },
          {
            "duration": 0.2727270000000033,
            "durationTicks": 192,
            "midi": 85,
            "name": "C#6",
            "ticks": 55872,
            "time": 79.363557,
            "velocity": 0.4881889763779528
          },
          {
            "duration": 0.2727270000000033,
            "durationTicks": 192,
            "midi": 85,
            "name": "C#6",
            "ticks": 55872,
            "time": 79.363557,
            "velocity": 0.4881889763779528
          },
          {
            "duration": 0.2727270000000033,
            "durationTicks": 192,
            "midi": 85,
            "name": "C#6",
            "ticks": 55872,
            "time": 79.363557,
            "velocity": 0.4881889763779528
          },
          {
            "duration": 0.5454539999999923,
            "durationTicks": 384,
            "midi": 59,
            "name": "B3",
            "ticks": 56064,
            "time": 79.636284,
            "velocity": 0.4881889763779528
          },
          {
            "duration": 0.5454539999999923,
            "durationTicks": 384,
            "midi": 59,
            "name": "B3",
            "ticks": 56064,
            "time": 79.636284,
            "velocity": 0.4881889763779528
          },
          {
            "duration": 0.5454539999999923,
            "durationTicks": 384,
            "midi": 47,
            "name": "B2",
            "ticks": 56064,
            "time": 79.636284,
            "velocity": 0.4881889763779528
          },
          {
            "duration": 0.5454539999999923,
            "durationTicks": 384,
            "midi": 47,
            "name": "B2",
            "ticks": 56064,
            "time": 79.636284,
            "velocity": 0.4881889763779528
          },
          {
            "duration": 0.5454539999999923,
            "durationTicks": 384,
            "midi": 47,
            "name": "B2",
            "ticks": 56064,
            "time": 79.636284,
            "velocity": 0.4881889763779528
          },
          {
            "duration": 0.5454539999999923,
            "durationTicks": 384,
            "midi": 47,
            "name": "B2",
            "ticks": 56064,
            "time": 79.636284,
            "velocity": 0.4881889763779528
          },
          {
            "duration": 0.27272699999998906,
            "durationTicks": 192,
            "midi": 83,
            "name": "B5",
            "ticks": 56064,
            "time": 79.636284,
            "velocity": 0.4881889763779528
          },
          {
            "duration": 0.5454539999999923,
            "durationTicks": 384,
            "midi": 59,
            "name": "B3",
            "ticks": 56064,
            "time": 79.636284,
            "velocity": 0.4881889763779528
          },
          {
            "duration": 0.5454539999999923,
            "durationTicks": 384,
            "midi": 59,
            "name": "B3",
            "ticks": 56064,
            "time": 79.636284,
            "velocity": 0.4881889763779528
          },
          {
            "duration": 0.27272699999998906,
            "durationTicks": 192,
            "midi": 83,
            "name": "B5",
            "ticks": 56064,
            "time": 79.636284,
            "velocity": 0.4881889763779528
          },
          {
            "duration": 0.5454539999999923,
            "durationTicks": 384,
            "midi": 47,
            "name": "B2",
            "ticks": 56064,
            "time": 79.636284,
            "velocity": 0.4881889763779528
          },
          {
            "duration": 0.5454539999999923,
            "durationTicks": 384,
            "midi": 47,
            "name": "B2",
            "ticks": 56064,
            "time": 79.636284,
            "velocity": 0.4881889763779528
          },
          {
            "duration": 0.27272699999998906,
            "durationTicks": 192,
            "midi": 83,
            "name": "B5",
            "ticks": 56064,
            "time": 79.636284,
            "velocity": 0.4881889763779528
          },
          {
            "duration": 0.5454539999999923,
            "durationTicks": 384,
            "midi": 59,
            "name": "B3",
            "ticks": 56064,
            "time": 79.636284,
            "velocity": 0.4881889763779528
          },
          {
            "duration": 0.5454539999999923,
            "durationTicks": 384,
            "midi": 59,
            "name": "B3",
            "ticks": 56064,
            "time": 79.636284,
            "velocity": 0.4881889763779528
          },
          {
            "duration": 0.27272699999998906,
            "durationTicks": 192,
            "midi": 83,
            "name": "B5",
            "ticks": 56064,
            "time": 79.636284,
            "velocity": 0.4881889763779528
          },
          {
            "duration": 0.27272699999998906,
            "durationTicks": 192,
            "midi": 83,
            "name": "B5",
            "ticks": 56064,
            "time": 79.636284,
            "velocity": 0.4881889763779528
          },
          {
            "duration": 0.27272699999998906,
            "durationTicks": 192,
            "midi": 83,
            "name": "B5",
            "ticks": 56064,
            "time": 79.636284,
            "velocity": 0.4881889763779528
          },
          {
            "duration": 0.2727270000000033,
            "durationTicks": 192,
            "midi": 88,
            "name": "E6",
            "ticks": 56256,
            "time": 79.90901099999999,
            "velocity": 0.4881889763779528
          },
          {
            "duration": 0.2727270000000033,
            "durationTicks": 192,
            "midi": 88,
            "name": "E6",
            "ticks": 56256,
            "time": 79.90901099999999,
            "velocity": 0.4881889763779528
          },
          {
            "duration": 0.2727270000000033,
            "durationTicks": 192,
            "midi": 88,
            "name": "E6",
            "ticks": 56256,
            "time": 79.90901099999999,
            "velocity": 0.4881889763779528
          },
          {
            "duration": 0.2727270000000033,
            "durationTicks": 192,
            "midi": 88,
            "name": "E6",
            "ticks": 56256,
            "time": 79.90901099999999,
            "velocity": 0.4881889763779528
          },
          {
            "duration": 0.2727270000000033,
            "durationTicks": 192,
            "midi": 88,
            "name": "E6",
            "ticks": 56256,
            "time": 79.90901099999999,
            "velocity": 0.4881889763779528
          },
          {
            "duration": 0.2727270000000033,
            "durationTicks": 192,
            "midi": 88,
            "name": "E6",
            "ticks": 56256,
            "time": 79.90901099999999,
            "velocity": 0.4881889763779528
          },
          {
            "duration": 0.5454540000000065,
            "durationTicks": 384,
            "midi": 68,
            "name": "G#4",
            "ticks": 56448,
            "time": 80.181738,
            "velocity": 0.4881889763779528
          },
          {
            "duration": 0.5454540000000065,
            "durationTicks": 384,
            "midi": 71,
            "name": "B4",
            "ticks": 56448,
            "time": 80.181738,
            "velocity": 0.4881889763779528
          },
          {
            "duration": 0.5454540000000065,
            "durationTicks": 384,
            "midi": 64,
            "name": "E4",
            "ticks": 56448,
            "time": 80.181738,
            "velocity": 0.4881889763779528
          },
          {
            "duration": 0.2727270000000033,
            "durationTicks": 192,
            "midi": 80,
            "name": "G#5",
            "ticks": 56448,
            "time": 80.181738,
            "velocity": 0.4881889763779528
          },
          {
            "duration": 0.2727270000000033,
            "durationTicks": 192,
            "midi": 80,
            "name": "G#5",
            "ticks": 56448,
            "time": 80.181738,
            "velocity": 0.4881889763779528
          },
          {
            "duration": 0.2727270000000033,
            "durationTicks": 192,
            "midi": 80,
            "name": "G#5",
            "ticks": 56448,
            "time": 80.181738,
            "velocity": 0.4881889763779528
          },
          {
            "duration": 0.5454540000000065,
            "durationTicks": 384,
            "midi": 64,
            "name": "E4",
            "ticks": 56448,
            "time": 80.181738,
            "velocity": 0.4881889763779528
          },
          {
            "duration": 0.5454540000000065,
            "durationTicks": 384,
            "midi": 71,
            "name": "B4",
            "ticks": 56448,
            "time": 80.181738,
            "velocity": 0.4881889763779528
          },
          {
            "duration": 0.5454540000000065,
            "durationTicks": 384,
            "midi": 71,
            "name": "B4",
            "ticks": 56448,
            "time": 80.181738,
            "velocity": 0.4881889763779528
          },
          {
            "duration": 0.2727270000000033,
            "durationTicks": 192,
            "midi": 80,
            "name": "G#5",
            "ticks": 56448,
            "time": 80.181738,
            "velocity": 0.4881889763779528
          },
          {
            "duration": 0.5454540000000065,
            "durationTicks": 384,
            "midi": 71,
            "name": "B4",
            "ticks": 56448,
            "time": 80.181738,
            "velocity": 0.4881889763779528
          },
          {
            "duration": 0.5454540000000065,
            "durationTicks": 384,
            "midi": 64,
            "name": "E4",
            "ticks": 56448,
            "time": 80.181738,
            "velocity": 0.4881889763779528
          },
          {
            "duration": 0.2727270000000033,
            "durationTicks": 192,
            "midi": 80,
            "name": "G#5",
            "ticks": 56448,
            "time": 80.181738,
            "velocity": 0.4881889763779528
          },
          {
            "duration": 0.5454540000000065,
            "durationTicks": 384,
            "midi": 68,
            "name": "G#4",
            "ticks": 56448,
            "time": 80.181738,
            "velocity": 0.4881889763779528
          },
          {
            "duration": 0.5454540000000065,
            "durationTicks": 384,
            "midi": 68,
            "name": "G#4",
            "ticks": 56448,
            "time": 80.181738,
            "velocity": 0.4881889763779528
          },
          {
            "duration": 0.5454540000000065,
            "durationTicks": 384,
            "midi": 64,
            "name": "E4",
            "ticks": 56448,
            "time": 80.181738,
            "velocity": 0.4881889763779528
          },
          {
            "duration": 0.2727270000000033,
            "durationTicks": 192,
            "midi": 80,
            "name": "G#5",
            "ticks": 56448,
            "time": 80.181738,
            "velocity": 0.4881889763779528
          },
          {
            "duration": 0.5454540000000065,
            "durationTicks": 384,
            "midi": 68,
            "name": "G#4",
            "ticks": 56448,
            "time": 80.181738,
            "velocity": 0.4881889763779528
          },
          {
            "duration": 0.5454540000000065,
            "durationTicks": 384,
            "midi": 64,
            "name": "E4",
            "ticks": 56448,
            "time": 80.181738,
            "velocity": 0.4881889763779528
          },
          {
            "duration": 0.5454540000000065,
            "durationTicks": 384,
            "midi": 68,
            "name": "G#4",
            "ticks": 56448,
            "time": 80.181738,
            "velocity": 0.4881889763779528
          },
          {
            "duration": 0.5454540000000065,
            "durationTicks": 384,
            "midi": 64,
            "name": "E4",
            "ticks": 56448,
            "time": 80.181738,
            "velocity": 0.4881889763779528
          },
          {
            "duration": 0.5454540000000065,
            "durationTicks": 384,
            "midi": 71,
            "name": "B4",
            "ticks": 56448,
            "time": 80.181738,
            "velocity": 0.4881889763779528
          },
          {
            "duration": 0.5454540000000065,
            "durationTicks": 384,
            "midi": 71,
            "name": "B4",
            "ticks": 56448,
            "time": 80.181738,
            "velocity": 0.4881889763779528
          },
          {
            "duration": 0.5454540000000065,
            "durationTicks": 384,
            "midi": 68,
            "name": "G#4",
            "ticks": 56448,
            "time": 80.181738,
            "velocity": 0.4881889763779528
          },
          {
            "duration": 0.13636350000000164,
            "durationTicks": 96,
            "midi": 83,
            "name": "B5",
            "ticks": 56640,
            "time": 80.454465,
            "velocity": 0.4881889763779528
          },
          {
            "duration": 0.13636350000000164,
            "durationTicks": 96,
            "midi": 83,
            "name": "B5",
            "ticks": 56640,
            "time": 80.454465,
            "velocity": 0.4881889763779528
          },
          {
            "duration": 0.13636350000000164,
            "durationTicks": 96,
            "midi": 83,
            "name": "B5",
            "ticks": 56640,
            "time": 80.454465,
            "velocity": 0.4881889763779528
          },
          {
            "duration": 0.13636350000000164,
            "durationTicks": 96,
            "midi": 83,
            "name": "B5",
            "ticks": 56640,
            "time": 80.454465,
            "velocity": 0.4881889763779528
          },
          {
            "duration": 0.13636350000000164,
            "durationTicks": 96,
            "midi": 83,
            "name": "B5",
            "ticks": 56640,
            "time": 80.454465,
            "velocity": 0.4881889763779528
          },
          {
            "duration": 0.13636350000000164,
            "durationTicks": 96,
            "midi": 83,
            "name": "B5",
            "ticks": 56640,
            "time": 80.454465,
            "velocity": 0.4881889763779528
          },
          {
            "duration": 0.13636350000000164,
            "durationTicks": 96,
            "midi": 85,
            "name": "C#6",
            "ticks": 56736,
            "time": 80.5908285,
            "velocity": 0.4881889763779528
          },
          {
            "duration": 0.13636350000000164,
            "durationTicks": 96,
            "midi": 85,
            "name": "C#6",
            "ticks": 56736,
            "time": 80.5908285,
            "velocity": 0.4881889763779528
          },
          {
            "duration": 0.13636350000000164,
            "durationTicks": 96,
            "midi": 85,
            "name": "C#6",
            "ticks": 56736,
            "time": 80.5908285,
            "velocity": 0.4881889763779528
          },
          {
            "duration": 0.13636350000000164,
            "durationTicks": 96,
            "midi": 85,
            "name": "C#6",
            "ticks": 56736,
            "time": 80.5908285,
            "velocity": 0.4881889763779528
          },
          {
            "duration": 0.13636350000000164,
            "durationTicks": 96,
            "midi": 85,
            "name": "C#6",
            "ticks": 56736,
            "time": 80.5908285,
            "velocity": 0.4881889763779528
          },
          {
            "duration": 0.13636350000000164,
            "durationTicks": 96,
            "midi": 85,
            "name": "C#6",
            "ticks": 56736,
            "time": 80.5908285,
            "velocity": 0.4881889763779528
          },
          {
            "duration": 0.5454539999999923,
            "durationTicks": 384,
            "midi": 57,
            "name": "A3",
            "ticks": 56832,
            "time": 80.727192,
            "velocity": 0.4881889763779528
          },
          {
            "duration": 0.2727270000000033,
            "durationTicks": 192,
            "midi": 83,
            "name": "B5",
            "ticks": 56832,
            "time": 80.727192,
            "velocity": 0.4881889763779528
          },
          {
            "duration": 0.2727270000000033,
            "durationTicks": 192,
            "midi": 83,
            "name": "B5",
            "ticks": 56832,
            "time": 80.727192,
            "velocity": 0.4881889763779528
          },
          {
            "duration": 0.5454539999999923,
            "durationTicks": 384,
            "midi": 57,
            "name": "A3",
            "ticks": 56832,
            "time": 80.727192,
            "velocity": 0.4881889763779528
          },
          {
            "duration": 0.5454539999999923,
            "durationTicks": 384,
            "midi": 45,
            "name": "A2",
            "ticks": 56832,
            "time": 80.727192,
            "velocity": 0.4881889763779528
          },
          {
            "duration": 0.5454539999999923,
            "durationTicks": 384,
            "midi": 45,
            "name": "A2",
            "ticks": 56832,
            "time": 80.727192,
            "velocity": 0.4881889763779528
          },
          {
            "duration": 0.2727270000000033,
            "durationTicks": 192,
            "midi": 83,
            "name": "B5",
            "ticks": 56832,
            "time": 80.727192,
            "velocity": 0.4881889763779528
          },
          {
            "duration": 0.5454539999999923,
            "durationTicks": 384,
            "midi": 45,
            "name": "A2",
            "ticks": 56832,
            "time": 80.727192,
            "velocity": 0.4881889763779528
          },
          {
            "duration": 0.5454539999999923,
            "durationTicks": 384,
            "midi": 57,
            "name": "A3",
            "ticks": 56832,
            "time": 80.727192,
            "velocity": 0.4881889763779528
          },
          {
            "duration": 0.2727270000000033,
            "durationTicks": 192,
            "midi": 83,
            "name": "B5",
            "ticks": 56832,
            "time": 80.727192,
            "velocity": 0.4881889763779528
          },
          {
            "duration": 0.5454539999999923,
            "durationTicks": 384,
            "midi": 45,
            "name": "A2",
            "ticks": 56832,
            "time": 80.727192,
            "velocity": 0.4881889763779528
          },
          {
            "duration": 0.2727270000000033,
            "durationTicks": 192,
            "midi": 83,
            "name": "B5",
            "ticks": 56832,
            "time": 80.727192,
            "velocity": 0.4881889763779528
          },
          {
            "duration": 0.5454539999999923,
            "durationTicks": 384,
            "midi": 57,
            "name": "A3",
            "ticks": 56832,
            "time": 80.727192,
            "velocity": 0.4881889763779528
          },
          {
            "duration": 0.2727270000000033,
            "durationTicks": 192,
            "midi": 83,
            "name": "B5",
            "ticks": 56832,
            "time": 80.727192,
            "velocity": 0.4881889763779528
          },
          {
            "duration": 0.5454539999999923,
            "durationTicks": 384,
            "midi": 57,
            "name": "A3",
            "ticks": 56832,
            "time": 80.727192,
            "velocity": 0.4881889763779528
          },
          {
            "duration": 0.5454539999999923,
            "durationTicks": 384,
            "midi": 45,
            "name": "A2",
            "ticks": 56832,
            "time": 80.727192,
            "velocity": 0.4881889763779528
          },
          {
            "duration": 0.5454539999999923,
            "durationTicks": 384,
            "midi": 45,
            "name": "A2",
            "ticks": 56832,
            "time": 80.727192,
            "velocity": 0.4881889763779528
          },
          {
            "duration": 0.5454539999999923,
            "durationTicks": 384,
            "midi": 57,
            "name": "A3",
            "ticks": 56832,
            "time": 80.727192,
            "velocity": 0.4881889763779528
          },
          {
            "duration": 0.27272699999998906,
            "durationTicks": 192,
            "midi": 81,
            "name": "A5",
            "ticks": 57024,
            "time": 80.999919,
            "velocity": 0.4881889763779528
          },
          {
            "duration": 0.27272699999998906,
            "durationTicks": 192,
            "midi": 81,
            "name": "A5",
            "ticks": 57024,
            "time": 80.999919,
            "velocity": 0.4881889763779528
          },
          {
            "duration": 0.27272699999998906,
            "durationTicks": 192,
            "midi": 81,
            "name": "A5",
            "ticks": 57024,
            "time": 80.999919,
            "velocity": 0.4881889763779528
          },
          {
            "duration": 0.27272699999998906,
            "durationTicks": 192,
            "midi": 81,
            "name": "A5",
            "ticks": 57024,
            "time": 80.999919,
            "velocity": 0.4881889763779528
          },
          {
            "duration": 0.27272699999998906,
            "durationTicks": 192,
            "midi": 81,
            "name": "A5",
            "ticks": 57024,
            "time": 80.999919,
            "velocity": 0.4881889763779528
          },
          {
            "duration": 0.27272699999998906,
            "durationTicks": 192,
            "midi": 81,
            "name": "A5",
            "ticks": 57024,
            "time": 80.999919,
            "velocity": 0.4881889763779528
          },
          {
            "duration": 0.2727270000000033,
            "durationTicks": 192,
            "midi": 80,
            "name": "G#5",
            "ticks": 57216,
            "time": 81.272646,
            "velocity": 0.4881889763779528
          },
          {
            "duration": 0.2727270000000033,
            "durationTicks": 192,
            "midi": 80,
            "name": "G#5",
            "ticks": 57216,
            "time": 81.272646,
            "velocity": 0.4881889763779528
          },
          {
            "duration": 0.5454540000000065,
            "durationTicks": 384,
            "midi": 73,
            "name": "C#5",
            "ticks": 57216,
            "time": 81.272646,
            "velocity": 0.4881889763779528
          },
          {
            "duration": 0.5454540000000065,
            "durationTicks": 384,
            "midi": 69,
            "name": "A4",
            "ticks": 57216,
            "time": 81.272646,
            "velocity": 0.4881889763779528
          },
          {
            "duration": 0.5454540000000065,
            "durationTicks": 384,
            "midi": 64,
            "name": "E4",
            "ticks": 57216,
            "time": 81.272646,
            "velocity": 0.4881889763779528
          },
          {
            "duration": 0.2727270000000033,
            "durationTicks": 192,
            "midi": 80,
            "name": "G#5",
            "ticks": 57216,
            "time": 81.272646,
            "velocity": 0.4881889763779528
          },
          {
            "duration": 0.5454540000000065,
            "durationTicks": 384,
            "midi": 64,
            "name": "E4",
            "ticks": 57216,
            "time": 81.272646,
            "velocity": 0.4881889763779528
          },
          {
            "duration": 0.5454540000000065,
            "durationTicks": 384,
            "midi": 73,
            "name": "C#5",
            "ticks": 57216,
            "time": 81.272646,
            "velocity": 0.4881889763779528
          },
          {
            "duration": 0.5454540000000065,
            "durationTicks": 384,
            "midi": 73,
            "name": "C#5",
            "ticks": 57216,
            "time": 81.272646,
            "velocity": 0.4881889763779528
          },
          {
            "duration": 0.5454540000000065,
            "durationTicks": 384,
            "midi": 73,
            "name": "C#5",
            "ticks": 57216,
            "time": 81.272646,
            "velocity": 0.4881889763779528
          },
          {
            "duration": 0.5454540000000065,
            "durationTicks": 384,
            "midi": 69,
            "name": "A4",
            "ticks": 57216,
            "time": 81.272646,
            "velocity": 0.4881889763779528
          },
          {
            "duration": 0.2727270000000033,
            "durationTicks": 192,
            "midi": 80,
            "name": "G#5",
            "ticks": 57216,
            "time": 81.272646,
            "velocity": 0.4881889763779528
          },
          {
            "duration": 0.5454540000000065,
            "durationTicks": 384,
            "midi": 69,
            "name": "A4",
            "ticks": 57216,
            "time": 81.272646,
            "velocity": 0.4881889763779528
          },
          {
            "duration": 0.5454540000000065,
            "durationTicks": 384,
            "midi": 64,
            "name": "E4",
            "ticks": 57216,
            "time": 81.272646,
            "velocity": 0.4881889763779528
          },
          {
            "duration": 0.5454540000000065,
            "durationTicks": 384,
            "midi": 69,
            "name": "A4",
            "ticks": 57216,
            "time": 81.272646,
            "velocity": 0.4881889763779528
          },
          {
            "duration": 0.5454540000000065,
            "durationTicks": 384,
            "midi": 64,
            "name": "E4",
            "ticks": 57216,
            "time": 81.272646,
            "velocity": 0.4881889763779528
          },
          {
            "duration": 0.5454540000000065,
            "durationTicks": 384,
            "midi": 73,
            "name": "C#5",
            "ticks": 57216,
            "time": 81.272646,
            "velocity": 0.4881889763779528
          },
          {
            "duration": 0.2727270000000033,
            "durationTicks": 192,
            "midi": 80,
            "name": "G#5",
            "ticks": 57216,
            "time": 81.272646,
            "velocity": 0.4881889763779528
          },
          {
            "duration": 0.5454540000000065,
            "durationTicks": 384,
            "midi": 64,
            "name": "E4",
            "ticks": 57216,
            "time": 81.272646,
            "velocity": 0.4881889763779528
          },
          {
            "duration": 0.2727270000000033,
            "durationTicks": 192,
            "midi": 80,
            "name": "G#5",
            "ticks": 57216,
            "time": 81.272646,
            "velocity": 0.4881889763779528
          },
          {
            "duration": 0.5454540000000065,
            "durationTicks": 384,
            "midi": 69,
            "name": "A4",
            "ticks": 57216,
            "time": 81.272646,
            "velocity": 0.4881889763779528
          },
          {
            "duration": 0.5454540000000065,
            "durationTicks": 384,
            "midi": 69,
            "name": "A4",
            "ticks": 57216,
            "time": 81.272646,
            "velocity": 0.4881889763779528
          },
          {
            "duration": 0.5454540000000065,
            "durationTicks": 384,
            "midi": 64,
            "name": "E4",
            "ticks": 57216,
            "time": 81.272646,
            "velocity": 0.4881889763779528
          },
          {
            "duration": 0.5454540000000065,
            "durationTicks": 384,
            "midi": 73,
            "name": "C#5",
            "ticks": 57216,
            "time": 81.272646,
            "velocity": 0.4881889763779528
          },
          {
            "duration": 0.2727270000000033,
            "durationTicks": 192,
            "midi": 78,
            "name": "F#5",
            "ticks": 57408,
            "time": 81.545373,
            "velocity": 0.4881889763779528
          },
          {
            "duration": 0.2727270000000033,
            "durationTicks": 192,
            "midi": 78,
            "name": "F#5",
            "ticks": 57408,
            "time": 81.545373,
            "velocity": 0.4881889763779528
          },
          {
            "duration": 0.2727270000000033,
            "durationTicks": 192,
            "midi": 78,
            "name": "F#5",
            "ticks": 57408,
            "time": 81.545373,
            "velocity": 0.4881889763779528
          },
          {
            "duration": 0.2727270000000033,
            "durationTicks": 192,
            "midi": 78,
            "name": "F#5",
            "ticks": 57408,
            "time": 81.545373,
            "velocity": 0.4881889763779528
          },
          {
            "duration": 0.2727270000000033,
            "durationTicks": 192,
            "midi": 78,
            "name": "F#5",
            "ticks": 57408,
            "time": 81.545373,
            "velocity": 0.4881889763779528
          },
          {
            "duration": 0.2727270000000033,
            "durationTicks": 192,
            "midi": 78,
            "name": "F#5",
            "ticks": 57408,
            "time": 81.545373,
            "velocity": 0.4881889763779528
          },
          {
            "duration": 0.5454539999999923,
            "durationTicks": 384,
            "midi": 44,
            "name": "G#2",
            "ticks": 57600,
            "time": 81.8181,
            "velocity": 0.4881889763779528
          },
          {
            "duration": 0.5454539999999923,
            "durationTicks": 384,
            "midi": 56,
            "name": "G#3",
            "ticks": 57600,
            "time": 81.8181,
            "velocity": 0.4881889763779528
          },
          {
            "duration": 0.5454539999999923,
            "durationTicks": 384,
            "midi": 56,
            "name": "G#3",
            "ticks": 57600,
            "time": 81.8181,
            "velocity": 0.4881889763779528
          },
          {
            "duration": 0.5454539999999923,
            "durationTicks": 384,
            "midi": 56,
            "name": "G#3",
            "ticks": 57600,
            "time": 81.8181,
            "velocity": 0.4881889763779528
          },
          {
            "duration": 0.5454539999999923,
            "durationTicks": 384,
            "midi": 44,
            "name": "G#2",
            "ticks": 57600,
            "time": 81.8181,
            "velocity": 0.4881889763779528
          },
          {
            "duration": 0.5454539999999923,
            "durationTicks": 384,
            "midi": 44,
            "name": "G#2",
            "ticks": 57600,
            "time": 81.8181,
            "velocity": 0.4881889763779528
          },
          {
            "duration": 0.2727270000000033,
            "durationTicks": 192,
            "midi": 80,
            "name": "G#5",
            "ticks": 57600,
            "time": 81.8181,
            "velocity": 0.4881889763779528
          },
          {
            "duration": 0.5454539999999923,
            "durationTicks": 384,
            "midi": 44,
            "name": "G#2",
            "ticks": 57600,
            "time": 81.8181,
            "velocity": 0.4881889763779528
          },
          {
            "duration": 0.2727270000000033,
            "durationTicks": 192,
            "midi": 80,
            "name": "G#5",
            "ticks": 57600,
            "time": 81.8181,
            "velocity": 0.4881889763779528
          },
          {
            "duration": 0.5454539999999923,
            "durationTicks": 384,
            "midi": 56,
            "name": "G#3",
            "ticks": 57600,
            "time": 81.8181,
            "velocity": 0.4881889763779528
          },
          {
            "duration": 0.2727270000000033,
            "durationTicks": 192,
            "midi": 80,
            "name": "G#5",
            "ticks": 57600,
            "time": 81.8181,
            "velocity": 0.4881889763779528
          },
          {
            "duration": 0.2727270000000033,
            "durationTicks": 192,
            "midi": 80,
            "name": "G#5",
            "ticks": 57600,
            "time": 81.8181,
            "velocity": 0.4881889763779528
          },
          {
            "duration": 0.2727270000000033,
            "durationTicks": 192,
            "midi": 80,
            "name": "G#5",
            "ticks": 57600,
            "time": 81.8181,
            "velocity": 0.4881889763779528
          },
          {
            "duration": 0.5454539999999923,
            "durationTicks": 384,
            "midi": 56,
            "name": "G#3",
            "ticks": 57600,
            "time": 81.8181,
            "velocity": 0.4881889763779528
          },
          {
            "duration": 0.5454539999999923,
            "durationTicks": 384,
            "midi": 44,
            "name": "G#2",
            "ticks": 57600,
            "time": 81.8181,
            "velocity": 0.4881889763779528
          },
          {
            "duration": 0.5454539999999923,
            "durationTicks": 384,
            "midi": 44,
            "name": "G#2",
            "ticks": 57600,
            "time": 81.8181,
            "velocity": 0.4881889763779528
          },
          {
            "duration": 0.2727270000000033,
            "durationTicks": 192,
            "midi": 80,
            "name": "G#5",
            "ticks": 57600,
            "time": 81.8181,
            "velocity": 0.4881889763779528
          },
          {
            "duration": 0.5454539999999923,
            "durationTicks": 384,
            "midi": 56,
            "name": "G#3",
            "ticks": 57600,
            "time": 81.8181,
            "velocity": 0.4881889763779528
          },
          {
            "duration": 0.27272699999998906,
            "durationTicks": 192,
            "midi": 73,
            "name": "C#5",
            "ticks": 57792,
            "time": 82.090827,
            "velocity": 0.4881889763779528
          },
          {
            "duration": 0.27272699999998906,
            "durationTicks": 192,
            "midi": 73,
            "name": "C#5",
            "ticks": 57792,
            "time": 82.090827,
            "velocity": 0.4881889763779528
          },
          {
            "duration": 0.27272699999998906,
            "durationTicks": 192,
            "midi": 73,
            "name": "C#5",
            "ticks": 57792,
            "time": 82.090827,
            "velocity": 0.4881889763779528
          },
          {
            "duration": 0.27272699999998906,
            "durationTicks": 192,
            "midi": 73,
            "name": "C#5",
            "ticks": 57792,
            "time": 82.090827,
            "velocity": 0.4881889763779528
          },
          {
            "duration": 0.27272699999998906,
            "durationTicks": 192,
            "midi": 73,
            "name": "C#5",
            "ticks": 57792,
            "time": 82.090827,
            "velocity": 0.4881889763779528
          },
          {
            "duration": 0.27272699999998906,
            "durationTicks": 192,
            "midi": 73,
            "name": "C#5",
            "ticks": 57792,
            "time": 82.090827,
            "velocity": 0.4881889763779528
          },
          {
            "duration": 0.5454540000000065,
            "durationTicks": 384,
            "midi": 76,
            "name": "E5",
            "ticks": 57984,
            "time": 82.363554,
            "velocity": 0.4881889763779528
          },
          {
            "duration": 0.5454540000000065,
            "durationTicks": 384,
            "midi": 71,
            "name": "B4",
            "ticks": 57984,
            "time": 82.363554,
            "velocity": 0.4881889763779528
          },
          {
            "duration": 0.5454540000000065,
            "durationTicks": 384,
            "midi": 63,
            "name": "D#4",
            "ticks": 57984,
            "time": 82.363554,
            "velocity": 0.4881889763779528
          },
          {
            "duration": 0.5454540000000065,
            "durationTicks": 384,
            "midi": 68,
            "name": "G#4",
            "ticks": 57984,
            "time": 82.363554,
            "velocity": 0.4881889763779528
          },
          {
            "duration": 0.5454540000000065,
            "durationTicks": 384,
            "midi": 68,
            "name": "G#4",
            "ticks": 57984,
            "time": 82.363554,
            "velocity": 0.4881889763779528
          },
          {
            "duration": 0.5454540000000065,
            "durationTicks": 384,
            "midi": 68,
            "name": "G#4",
            "ticks": 57984,
            "time": 82.363554,
            "velocity": 0.4881889763779528
          },
          {
            "duration": 0.5454540000000065,
            "durationTicks": 384,
            "midi": 63,
            "name": "D#4",
            "ticks": 57984,
            "time": 82.363554,
            "velocity": 0.4881889763779528
          },
          {
            "duration": 0.5454540000000065,
            "durationTicks": 384,
            "midi": 63,
            "name": "D#4",
            "ticks": 57984,
            "time": 82.363554,
            "velocity": 0.4881889763779528
          },
          {
            "duration": 0.5454540000000065,
            "durationTicks": 384,
            "midi": 63,
            "name": "D#4",
            "ticks": 57984,
            "time": 82.363554,
            "velocity": 0.4881889763779528
          },
          {
            "duration": 0.5454540000000065,
            "durationTicks": 384,
            "midi": 76,
            "name": "E5",
            "ticks": 57984,
            "time": 82.363554,
            "velocity": 0.4881889763779528
          },
          {
            "duration": 0.5454540000000065,
            "durationTicks": 384,
            "midi": 71,
            "name": "B4",
            "ticks": 57984,
            "time": 82.363554,
            "velocity": 0.4881889763779528
          },
          {
            "duration": 0.5454540000000065,
            "durationTicks": 384,
            "midi": 63,
            "name": "D#4",
            "ticks": 57984,
            "time": 82.363554,
            "velocity": 0.4881889763779528
          },
          {
            "duration": 0.5454540000000065,
            "durationTicks": 384,
            "midi": 68,
            "name": "G#4",
            "ticks": 57984,
            "time": 82.363554,
            "velocity": 0.4881889763779528
          },
          {
            "duration": 0.5454540000000065,
            "durationTicks": 384,
            "midi": 76,
            "name": "E5",
            "ticks": 57984,
            "time": 82.363554,
            "velocity": 0.4881889763779528
          },
          {
            "duration": 0.5454540000000065,
            "durationTicks": 384,
            "midi": 76,
            "name": "E5",
            "ticks": 57984,
            "time": 82.363554,
            "velocity": 0.4881889763779528
          },
          {
            "duration": 0.5454540000000065,
            "durationTicks": 384,
            "midi": 68,
            "name": "G#4",
            "ticks": 57984,
            "time": 82.363554,
            "velocity": 0.4881889763779528
          },
          {
            "duration": 0.5454540000000065,
            "durationTicks": 384,
            "midi": 68,
            "name": "G#4",
            "ticks": 57984,
            "time": 82.363554,
            "velocity": 0.4881889763779528
          },
          {
            "duration": 0.5454540000000065,
            "durationTicks": 384,
            "midi": 76,
            "name": "E5",
            "ticks": 57984,
            "time": 82.363554,
            "velocity": 0.4881889763779528
          },
          {
            "duration": 0.5454540000000065,
            "durationTicks": 384,
            "midi": 71,
            "name": "B4",
            "ticks": 57984,
            "time": 82.363554,
            "velocity": 0.4881889763779528
          },
          {
            "duration": 0.5454540000000065,
            "durationTicks": 384,
            "midi": 71,
            "name": "B4",
            "ticks": 57984,
            "time": 82.363554,
            "velocity": 0.4881889763779528
          },
          {
            "duration": 0.5454540000000065,
            "durationTicks": 384,
            "midi": 71,
            "name": "B4",
            "ticks": 57984,
            "time": 82.363554,
            "velocity": 0.4881889763779528
          },
          {
            "duration": 0.5454540000000065,
            "durationTicks": 384,
            "midi": 71,
            "name": "B4",
            "ticks": 57984,
            "time": 82.363554,
            "velocity": 0.4881889763779528
          },
          {
            "duration": 0.5454540000000065,
            "durationTicks": 384,
            "midi": 76,
            "name": "E5",
            "ticks": 57984,
            "time": 82.363554,
            "velocity": 0.4881889763779528
          },
          {
            "duration": 0.5454540000000065,
            "durationTicks": 384,
            "midi": 63,
            "name": "D#4",
            "ticks": 57984,
            "time": 82.363554,
            "velocity": 0.4881889763779528
          },
          {
            "duration": 0.2727270000000033,
            "durationTicks": 192,
            "midi": 78,
            "name": "F#5",
            "ticks": 58368,
            "time": 82.909008,
            "velocity": 0.4881889763779528
          },
          {
            "duration": 0.5454539999999923,
            "durationTicks": 384,
            "midi": 42,
            "name": "F#2",
            "ticks": 58368,
            "time": 82.909008,
            "velocity": 0.4881889763779528
          },
          {
            "duration": 0.5454539999999923,
            "durationTicks": 384,
            "midi": 42,
            "name": "F#2",
            "ticks": 58368,
            "time": 82.909008,
            "velocity": 0.4881889763779528
          },
          {
            "duration": 0.5454539999999923,
            "durationTicks": 384,
            "midi": 42,
            "name": "F#2",
            "ticks": 58368,
            "time": 82.909008,
            "velocity": 0.4881889763779528
          },
          {
            "duration": 0.5454539999999923,
            "durationTicks": 384,
            "midi": 54,
            "name": "F#3",
            "ticks": 58368,
            "time": 82.909008,
            "velocity": 0.4881889763779528
          },
          {
            "duration": 0.5454539999999923,
            "durationTicks": 384,
            "midi": 54,
            "name": "F#3",
            "ticks": 58368,
            "time": 82.909008,
            "velocity": 0.4881889763779528
          },
          {
            "duration": 0.5454539999999923,
            "durationTicks": 384,
            "midi": 54,
            "name": "F#3",
            "ticks": 58368,
            "time": 82.909008,
            "velocity": 0.4881889763779528
          },
          {
            "duration": 0.5454539999999923,
            "durationTicks": 384,
            "midi": 42,
            "name": "F#2",
            "ticks": 58368,
            "time": 82.909008,
            "velocity": 0.4881889763779528
          },
          {
            "duration": 0.2727270000000033,
            "durationTicks": 192,
            "midi": 78,
            "name": "F#5",
            "ticks": 58368,
            "time": 82.909008,
            "velocity": 0.4881889763779528
          },
          {
            "duration": 0.5454539999999923,
            "durationTicks": 384,
            "midi": 54,
            "name": "F#3",
            "ticks": 58368,
            "time": 82.909008,
            "velocity": 0.4881889763779528
          },
          {
            "duration": 0.5454539999999923,
            "durationTicks": 384,
            "midi": 54,
            "name": "F#3",
            "ticks": 58368,
            "time": 82.909008,
            "velocity": 0.4881889763779528
          },
          {
            "duration": 0.5454539999999923,
            "durationTicks": 384,
            "midi": 42,
            "name": "F#2",
            "ticks": 58368,
            "time": 82.909008,
            "velocity": 0.4881889763779528
          },
          {
            "duration": 0.2727270000000033,
            "durationTicks": 192,
            "midi": 78,
            "name": "F#5",
            "ticks": 58368,
            "time": 82.909008,
            "velocity": 0.4881889763779528
          },
          {
            "duration": 0.5454539999999923,
            "durationTicks": 384,
            "midi": 54,
            "name": "F#3",
            "ticks": 58368,
            "time": 82.909008,
            "velocity": 0.4881889763779528
          },
          {
            "duration": 0.2727270000000033,
            "durationTicks": 192,
            "midi": 78,
            "name": "F#5",
            "ticks": 58368,
            "time": 82.909008,
            "velocity": 0.4881889763779528
          },
          {
            "duration": 0.2727270000000033,
            "durationTicks": 192,
            "midi": 78,
            "name": "F#5",
            "ticks": 58368,
            "time": 82.909008,
            "velocity": 0.4881889763779528
          },
          {
            "duration": 0.5454539999999923,
            "durationTicks": 384,
            "midi": 42,
            "name": "F#2",
            "ticks": 58368,
            "time": 82.909008,
            "velocity": 0.4881889763779528
          },
          {
            "duration": 0.2727270000000033,
            "durationTicks": 192,
            "midi": 78,
            "name": "F#5",
            "ticks": 58368,
            "time": 82.909008,
            "velocity": 0.4881889763779528
          },
          {
            "duration": 0.27272699999998906,
            "durationTicks": 192,
            "midi": 81,
            "name": "A5",
            "ticks": 58560,
            "time": 83.181735,
            "velocity": 0.4881889763779528
          },
          {
            "duration": 0.27272699999998906,
            "durationTicks": 192,
            "midi": 81,
            "name": "A5",
            "ticks": 58560,
            "time": 83.181735,
            "velocity": 0.4881889763779528
          },
          {
            "duration": 0.27272699999998906,
            "durationTicks": 192,
            "midi": 81,
            "name": "A5",
            "ticks": 58560,
            "time": 83.181735,
            "velocity": 0.4881889763779528
          },
          {
            "duration": 0.27272699999998906,
            "durationTicks": 192,
            "midi": 81,
            "name": "A5",
            "ticks": 58560,
            "time": 83.181735,
            "velocity": 0.4881889763779528
          },
          {
            "duration": 0.27272699999998906,
            "durationTicks": 192,
            "midi": 81,
            "name": "A5",
            "ticks": 58560,
            "time": 83.181735,
            "velocity": 0.4881889763779528
          },
          {
            "duration": 0.27272699999998906,
            "durationTicks": 192,
            "midi": 81,
            "name": "A5",
            "ticks": 58560,
            "time": 83.181735,
            "velocity": 0.4881889763779528
          },
          {
            "duration": 0.2727270000000033,
            "durationTicks": 192,
            "midi": 80,
            "name": "G#5",
            "ticks": 58752,
            "time": 83.45446199999999,
            "velocity": 0.4881889763779528
          },
          {
            "duration": 0.5454540000000065,
            "durationTicks": 384,
            "midi": 69,
            "name": "A4",
            "ticks": 58752,
            "time": 83.45446199999999,
            "velocity": 0.4881889763779528
          },
          {
            "duration": 0.5454540000000065,
            "durationTicks": 384,
            "midi": 61,
            "name": "C#4",
            "ticks": 58752,
            "time": 83.45446199999999,
            "velocity": 0.4881889763779528
          },
          {
            "duration": 0.2727270000000033,
            "durationTicks": 192,
            "midi": 80,
            "name": "G#5",
            "ticks": 58752,
            "time": 83.45446199999999,
            "velocity": 0.4881889763779528
          },
          {
            "duration": 0.5454540000000065,
            "durationTicks": 384,
            "midi": 69,
            "name": "A4",
            "ticks": 58752,
            "time": 83.45446199999999,
            "velocity": 0.4881889763779528
          },
          {
            "duration": 0.5454540000000065,
            "durationTicks": 384,
            "midi": 69,
            "name": "A4",
            "ticks": 58752,
            "time": 83.45446199999999,
            "velocity": 0.4881889763779528
          },
          {
            "duration": 0.2727270000000033,
            "durationTicks": 192,
            "midi": 80,
            "name": "G#5",
            "ticks": 58752,
            "time": 83.45446199999999,
            "velocity": 0.4881889763779528
          },
          {
            "duration": 0.5454540000000065,
            "durationTicks": 384,
            "midi": 69,
            "name": "A4",
            "ticks": 58752,
            "time": 83.45446199999999,
            "velocity": 0.4881889763779528
          },
          {
            "duration": 0.5454540000000065,
            "durationTicks": 384,
            "midi": 66,
            "name": "F#4",
            "ticks": 58752,
            "time": 83.45446199999999,
            "velocity": 0.4881889763779528
          },
          {
            "duration": 0.5454540000000065,
            "durationTicks": 384,
            "midi": 66,
            "name": "F#4",
            "ticks": 58752,
            "time": 83.45446199999999,
            "velocity": 0.4881889763779528
          },
          {
            "duration": 0.2727270000000033,
            "durationTicks": 192,
            "midi": 80,
            "name": "G#5",
            "ticks": 58752,
            "time": 83.45446199999999,
            "velocity": 0.4881889763779528
          },
          {
            "duration": 0.5454540000000065,
            "durationTicks": 384,
            "midi": 66,
            "name": "F#4",
            "ticks": 58752,
            "time": 83.45446199999999,
            "velocity": 0.4881889763779528
          },
          {
            "duration": 0.2727270000000033,
            "durationTicks": 192,
            "midi": 80,
            "name": "G#5",
            "ticks": 58752,
            "time": 83.45446199999999,
            "velocity": 0.4881889763779528
          },
          {
            "duration": 0.5454540000000065,
            "durationTicks": 384,
            "midi": 61,
            "name": "C#4",
            "ticks": 58752,
            "time": 83.45446199999999,
            "velocity": 0.4881889763779528
          },
          {
            "duration": 0.5454540000000065,
            "durationTicks": 384,
            "midi": 69,
            "name": "A4",
            "ticks": 58752,
            "time": 83.45446199999999,
            "velocity": 0.4881889763779528
          },
          {
            "duration": 0.5454540000000065,
            "durationTicks": 384,
            "midi": 61,
            "name": "C#4",
            "ticks": 58752,
            "time": 83.45446199999999,
            "velocity": 0.4881889763779528
          },
          {
            "duration": 0.5454540000000065,
            "durationTicks": 384,
            "midi": 69,
            "name": "A4",
            "ticks": 58752,
            "time": 83.45446199999999,
            "velocity": 0.4881889763779528
          },
          {
            "duration": 0.5454540000000065,
            "durationTicks": 384,
            "midi": 66,
            "name": "F#4",
            "ticks": 58752,
            "time": 83.45446199999999,
            "velocity": 0.4881889763779528
          },
          {
            "duration": 0.5454540000000065,
            "durationTicks": 384,
            "midi": 61,
            "name": "C#4",
            "ticks": 58752,
            "time": 83.45446199999999,
            "velocity": 0.4881889763779528
          },
          {
            "duration": 0.2727270000000033,
            "durationTicks": 192,
            "midi": 80,
            "name": "G#5",
            "ticks": 58752,
            "time": 83.45446199999999,
            "velocity": 0.4881889763779528
          },
          {
            "duration": 0.5454540000000065,
            "durationTicks": 384,
            "midi": 61,
            "name": "C#4",
            "ticks": 58752,
            "time": 83.45446199999999,
            "velocity": 0.4881889763779528
          },
          {
            "duration": 0.5454540000000065,
            "durationTicks": 384,
            "midi": 66,
            "name": "F#4",
            "ticks": 58752,
            "time": 83.45446199999999,
            "velocity": 0.4881889763779528
          },
          {
            "duration": 0.5454540000000065,
            "durationTicks": 384,
            "midi": 66,
            "name": "F#4",
            "ticks": 58752,
            "time": 83.45446199999999,
            "velocity": 0.4881889763779528
          },
          {
            "duration": 0.5454540000000065,
            "durationTicks": 384,
            "midi": 61,
            "name": "C#4",
            "ticks": 58752,
            "time": 83.45446199999999,
            "velocity": 0.4881889763779528
          },
          {
            "duration": 0.2727270000000033,
            "durationTicks": 192,
            "midi": 78,
            "name": "F#5",
            "ticks": 58944,
            "time": 83.727189,
            "velocity": 0.4881889763779528
          },
          {
            "duration": 0.2727270000000033,
            "durationTicks": 192,
            "midi": 78,
            "name": "F#5",
            "ticks": 58944,
            "time": 83.727189,
            "velocity": 0.4881889763779528
          },
          {
            "duration": 0.2727270000000033,
            "durationTicks": 192,
            "midi": 78,
            "name": "F#5",
            "ticks": 58944,
            "time": 83.727189,
            "velocity": 0.4881889763779528
          },
          {
            "duration": 0.2727270000000033,
            "durationTicks": 192,
            "midi": 78,
            "name": "F#5",
            "ticks": 58944,
            "time": 83.727189,
            "velocity": 0.4881889763779528
          },
          {
            "duration": 0.2727270000000033,
            "durationTicks": 192,
            "midi": 78,
            "name": "F#5",
            "ticks": 58944,
            "time": 83.727189,
            "velocity": 0.4881889763779528
          },
          {
            "duration": 0.2727270000000033,
            "durationTicks": 192,
            "midi": 78,
            "name": "F#5",
            "ticks": 58944,
            "time": 83.727189,
            "velocity": 0.4881889763779528
          },
          {
            "duration": 0.2727270000000033,
            "durationTicks": 192,
            "midi": 80,
            "name": "G#5",
            "ticks": 59136,
            "time": 83.999916,
            "velocity": 0.4881889763779528
          },
          {
            "duration": 0.2727270000000033,
            "durationTicks": 192,
            "midi": 80,
            "name": "G#5",
            "ticks": 59136,
            "time": 83.999916,
            "velocity": 0.4881889763779528
          },
          {
            "duration": 0.5454540000000065,
            "durationTicks": 384,
            "midi": 49,
            "name": "C#3",
            "ticks": 59136,
            "time": 83.999916,
            "velocity": 0.4881889763779528
          },
          {
            "duration": 0.5454540000000065,
            "durationTicks": 384,
            "midi": 37,
            "name": "C#2",
            "ticks": 59136,
            "time": 83.999916,
            "velocity": 0.4881889763779528
          },
          {
            "duration": 0.5454540000000065,
            "durationTicks": 384,
            "midi": 49,
            "name": "C#3",
            "ticks": 59136,
            "time": 83.999916,
            "velocity": 0.4881889763779528
          },
          {
            "duration": 0.5454540000000065,
            "durationTicks": 384,
            "midi": 49,
            "name": "C#3",
            "ticks": 59136,
            "time": 83.999916,
            "velocity": 0.4881889763779528
          },
          {
            "duration": 0.2727270000000033,
            "durationTicks": 192,
            "midi": 80,
            "name": "G#5",
            "ticks": 59136,
            "time": 83.999916,
            "velocity": 0.4881889763779528
          },
          {
            "duration": 0.5454540000000065,
            "durationTicks": 384,
            "midi": 49,
            "name": "C#3",
            "ticks": 59136,
            "time": 83.999916,
            "velocity": 0.4881889763779528
          },
          {
            "duration": 0.5454540000000065,
            "durationTicks": 384,
            "midi": 49,
            "name": "C#3",
            "ticks": 59136,
            "time": 83.999916,
            "velocity": 0.4881889763779528
          },
          {
            "duration": 0.2727270000000033,
            "durationTicks": 192,
            "midi": 80,
            "name": "G#5",
            "ticks": 59136,
            "time": 83.999916,
            "velocity": 0.4881889763779528
          },
          {
            "duration": 0.5454540000000065,
            "durationTicks": 384,
            "midi": 37,
            "name": "C#2",
            "ticks": 59136,
            "time": 83.999916,
            "velocity": 0.4881889763779528
          },
          {
            "duration": 0.5454540000000065,
            "durationTicks": 384,
            "midi": 37,
            "name": "C#2",
            "ticks": 59136,
            "time": 83.999916,
            "velocity": 0.4881889763779528
          },
          {
            "duration": 0.5454540000000065,
            "durationTicks": 384,
            "midi": 37,
            "name": "C#2",
            "ticks": 59136,
            "time": 83.999916,
            "velocity": 0.4881889763779528
          },
          {
            "duration": 0.5454540000000065,
            "durationTicks": 384,
            "midi": 37,
            "name": "C#2",
            "ticks": 59136,
            "time": 83.999916,
            "velocity": 0.4881889763779528
          },
          {
            "duration": 0.5454540000000065,
            "durationTicks": 384,
            "midi": 49,
            "name": "C#3",
            "ticks": 59136,
            "time": 83.999916,
            "velocity": 0.4881889763779528
          },
          {
            "duration": 0.2727270000000033,
            "durationTicks": 192,
            "midi": 80,
            "name": "G#5",
            "ticks": 59136,
            "time": 83.999916,
            "velocity": 0.4881889763779528
          },
          {
            "duration": 0.5454540000000065,
            "durationTicks": 384,
            "midi": 37,
            "name": "C#2",
            "ticks": 59136,
            "time": 83.999916,
            "velocity": 0.4881889763779528
          },
          {
            "duration": 0.2727270000000033,
            "durationTicks": 192,
            "midi": 80,
            "name": "G#5",
            "ticks": 59136,
            "time": 83.999916,
            "velocity": 0.4881889763779528
          },
          {
            "duration": 0.2727270000000033,
            "durationTicks": 192,
            "midi": 73,
            "name": "C#5",
            "ticks": 59328,
            "time": 84.272643,
            "velocity": 0.4881889763779528
          },
          {
            "duration": 0.2727270000000033,
            "durationTicks": 192,
            "midi": 73,
            "name": "C#5",
            "ticks": 59328,
            "time": 84.272643,
            "velocity": 0.4881889763779528
          },
          {
            "duration": 0.2727270000000033,
            "durationTicks": 192,
            "midi": 73,
            "name": "C#5",
            "ticks": 59328,
            "time": 84.272643,
            "velocity": 0.4881889763779528
          },
          {
            "duration": 0.2727270000000033,
            "durationTicks": 192,
            "midi": 73,
            "name": "C#5",
            "ticks": 59328,
            "time": 84.272643,
            "velocity": 0.4881889763779528
          },
          {
            "duration": 0.2727270000000033,
            "durationTicks": 192,
            "midi": 73,
            "name": "C#5",
            "ticks": 59328,
            "time": 84.272643,
            "velocity": 0.4881889763779528
          },
          {
            "duration": 0.2727270000000033,
            "durationTicks": 192,
            "midi": 73,
            "name": "C#5",
            "ticks": 59328,
            "time": 84.272643,
            "velocity": 0.4881889763779528
          },
          {
            "duration": 0.5454539999999923,
            "durationTicks": 384,
            "midi": 68,
            "name": "G#4",
            "ticks": 59520,
            "time": 84.54537,
            "velocity": 0.4881889763779528
          },
          {
            "duration": 0.5454539999999923,
            "durationTicks": 384,
            "midi": 68,
            "name": "G#4",
            "ticks": 59520,
            "time": 84.54537,
            "velocity": 0.4881889763779528
          },
          {
            "duration": 0.5454539999999923,
            "durationTicks": 384,
            "midi": 61,
            "name": "C#4",
            "ticks": 59520,
            "time": 84.54537,
            "velocity": 0.4881889763779528
          },
          {
            "duration": 0.5454539999999923,
            "durationTicks": 384,
            "midi": 64,
            "name": "E4",
            "ticks": 59520,
            "time": 84.54537,
            "velocity": 0.4881889763779528
          },
          {
            "duration": 0.4090904999999907,
            "durationTicks": 288,
            "midi": 76,
            "name": "E5",
            "ticks": 59520,
            "time": 84.54537,
            "velocity": 0.4881889763779528
          },
          {
            "duration": 0.5454539999999923,
            "durationTicks": 384,
            "midi": 64,
            "name": "E4",
            "ticks": 59520,
            "time": 84.54537,
            "velocity": 0.4881889763779528
          },
          {
            "duration": 0.5454539999999923,
            "durationTicks": 384,
            "midi": 61,
            "name": "C#4",
            "ticks": 59520,
            "time": 84.54537,
            "velocity": 0.4881889763779528
          },
          {
            "duration": 0.5454539999999923,
            "durationTicks": 384,
            "midi": 64,
            "name": "E4",
            "ticks": 59520,
            "time": 84.54537,
            "velocity": 0.4881889763779528
          },
          {
            "duration": 0.5454539999999923,
            "durationTicks": 384,
            "midi": 61,
            "name": "C#4",
            "ticks": 59520,
            "time": 84.54537,
            "velocity": 0.4881889763779528
          },
          {
            "duration": 0.4090904999999907,
            "durationTicks": 288,
            "midi": 76,
            "name": "E5",
            "ticks": 59520,
            "time": 84.54537,
            "velocity": 0.4881889763779528
          },
          {
            "duration": 0.4090904999999907,
            "durationTicks": 288,
            "midi": 76,
            "name": "E5",
            "ticks": 59520,
            "time": 84.54537,
            "velocity": 0.4881889763779528
          },
          {
            "duration": 0.5454539999999923,
            "durationTicks": 384,
            "midi": 68,
            "name": "G#4",
            "ticks": 59520,
            "time": 84.54537,
            "velocity": 0.4881889763779528
          },
          {
            "duration": 0.5454539999999923,
            "durationTicks": 384,
            "midi": 64,
            "name": "E4",
            "ticks": 59520,
            "time": 84.54537,
            "velocity": 0.4881889763779528
          },
          {
            "duration": 0.4090904999999907,
            "durationTicks": 288,
            "midi": 76,
            "name": "E5",
            "ticks": 59520,
            "time": 84.54537,
            "velocity": 0.4881889763779528
          },
          {
            "duration": 0.4090904999999907,
            "durationTicks": 288,
            "midi": 76,
            "name": "E5",
            "ticks": 59520,
            "time": 84.54537,
            "velocity": 0.4881889763779528
          },
          {
            "duration": 0.5454539999999923,
            "durationTicks": 384,
            "midi": 61,
            "name": "C#4",
            "ticks": 59520,
            "time": 84.54537,
            "velocity": 0.4881889763779528
          },
          {
            "duration": 0.5454539999999923,
            "durationTicks": 384,
            "midi": 61,
            "name": "C#4",
            "ticks": 59520,
            "time": 84.54537,
            "velocity": 0.4881889763779528
          },
          {
            "duration": 0.5454539999999923,
            "durationTicks": 384,
            "midi": 64,
            "name": "E4",
            "ticks": 59520,
            "time": 84.54537,
            "velocity": 0.4881889763779528
          },
          {
            "duration": 0.5454539999999923,
            "durationTicks": 384,
            "midi": 68,
            "name": "G#4",
            "ticks": 59520,
            "time": 84.54537,
            "velocity": 0.4881889763779528
          },
          {
            "duration": 0.5454539999999923,
            "durationTicks": 384,
            "midi": 64,
            "name": "E4",
            "ticks": 59520,
            "time": 84.54537,
            "velocity": 0.4881889763779528
          },
          {
            "duration": 0.5454539999999923,
            "durationTicks": 384,
            "midi": 68,
            "name": "G#4",
            "ticks": 59520,
            "time": 84.54537,
            "velocity": 0.4881889763779528
          },
          {
            "duration": 0.5454539999999923,
            "durationTicks": 384,
            "midi": 61,
            "name": "C#4",
            "ticks": 59520,
            "time": 84.54537,
            "velocity": 0.4881889763779528
          },
          {
            "duration": 0.4090904999999907,
            "durationTicks": 288,
            "midi": 76,
            "name": "E5",
            "ticks": 59520,
            "time": 84.54537,
            "velocity": 0.4881889763779528
          },
          {
            "duration": 0.5454539999999923,
            "durationTicks": 384,
            "midi": 68,
            "name": "G#4",
            "ticks": 59520,
            "time": 84.54537,
            "velocity": 0.4881889763779528
          },
          {
            "duration": 0.13636350000000164,
            "durationTicks": 96,
            "midi": 76,
            "name": "E5",
            "ticks": 59808,
            "time": 84.9544605,
            "velocity": 0.4881889763779528
          },
          {
            "duration": 0.13636350000000164,
            "durationTicks": 96,
            "midi": 76,
            "name": "E5",
            "ticks": 59808,
            "time": 84.9544605,
            "velocity": 0.4881889763779528
          },
          {
            "duration": 0.13636350000000164,
            "durationTicks": 96,
            "midi": 76,
            "name": "E5",
            "ticks": 59808,
            "time": 84.9544605,
            "velocity": 0.4881889763779528
          },
          {
            "duration": 0.13636350000000164,
            "durationTicks": 96,
            "midi": 76,
            "name": "E5",
            "ticks": 59808,
            "time": 84.9544605,
            "velocity": 0.4881889763779528
          },
          {
            "duration": 0.13636350000000164,
            "durationTicks": 96,
            "midi": 76,
            "name": "E5",
            "ticks": 59808,
            "time": 84.9544605,
            "velocity": 0.4881889763779528
          },
          {
            "duration": 0.13636350000000164,
            "durationTicks": 96,
            "midi": 76,
            "name": "E5",
            "ticks": 59808,
            "time": 84.9544605,
            "velocity": 0.4881889763779528
          },
          {
            "duration": 0.5454540000000065,
            "durationTicks": 384,
            "midi": 54,
            "name": "F#3",
            "ticks": 59904,
            "time": 85.090824,
            "velocity": 0.4881889763779528
          },
          {
            "duration": 0.2727270000000033,
            "durationTicks": 192,
            "midi": 78,
            "name": "F#5",
            "ticks": 59904,
            "time": 85.090824,
            "velocity": 0.4881889763779528
          },
          {
            "duration": 0.2727270000000033,
            "durationTicks": 192,
            "midi": 78,
            "name": "F#5",
            "ticks": 59904,
            "time": 85.090824,
            "velocity": 0.4881889763779528
          },
          {
            "duration": 0.5454540000000065,
            "durationTicks": 384,
            "midi": 54,
            "name": "F#3",
            "ticks": 59904,
            "time": 85.090824,
            "velocity": 0.4881889763779528
          },
          {
            "duration": 0.2727270000000033,
            "durationTicks": 192,
            "midi": 78,
            "name": "F#5",
            "ticks": 59904,
            "time": 85.090824,
            "velocity": 0.4881889763779528
          },
          {
            "duration": 0.5454540000000065,
            "durationTicks": 384,
            "midi": 42,
            "name": "F#2",
            "ticks": 59904,
            "time": 85.090824,
            "velocity": 0.4881889763779528
          },
          {
            "duration": 0.5454540000000065,
            "durationTicks": 384,
            "midi": 54,
            "name": "F#3",
            "ticks": 59904,
            "time": 85.090824,
            "velocity": 0.4881889763779528
          },
          {
            "duration": 0.5454540000000065,
            "durationTicks": 384,
            "midi": 54,
            "name": "F#3",
            "ticks": 59904,
            "time": 85.090824,
            "velocity": 0.4881889763779528
          },
          {
            "duration": 0.5454540000000065,
            "durationTicks": 384,
            "midi": 54,
            "name": "F#3",
            "ticks": 59904,
            "time": 85.090824,
            "velocity": 0.4881889763779528
          },
          {
            "duration": 0.5454540000000065,
            "durationTicks": 384,
            "midi": 42,
            "name": "F#2",
            "ticks": 59904,
            "time": 85.090824,
            "velocity": 0.4881889763779528
          },
          {
            "duration": 0.2727270000000033,
            "durationTicks": 192,
            "midi": 78,
            "name": "F#5",
            "ticks": 59904,
            "time": 85.090824,
            "velocity": 0.4881889763779528
          },
          {
            "duration": 0.5454540000000065,
            "durationTicks": 384,
            "midi": 42,
            "name": "F#2",
            "ticks": 59904,
            "time": 85.090824,
            "velocity": 0.4881889763779528
          },
          {
            "duration": 0.2727270000000033,
            "durationTicks": 192,
            "midi": 78,
            "name": "F#5",
            "ticks": 59904,
            "time": 85.090824,
            "velocity": 0.4881889763779528
          },
          {
            "duration": 0.5454540000000065,
            "durationTicks": 384,
            "midi": 42,
            "name": "F#2",
            "ticks": 59904,
            "time": 85.090824,
            "velocity": 0.4881889763779528
          },
          {
            "duration": 0.5454540000000065,
            "durationTicks": 384,
            "midi": 42,
            "name": "F#2",
            "ticks": 59904,
            "time": 85.090824,
            "velocity": 0.4881889763779528
          },
          {
            "duration": 0.5454540000000065,
            "durationTicks": 384,
            "midi": 54,
            "name": "F#3",
            "ticks": 59904,
            "time": 85.090824,
            "velocity": 0.4881889763779528
          },
          {
            "duration": 0.2727270000000033,
            "durationTicks": 192,
            "midi": 78,
            "name": "F#5",
            "ticks": 59904,
            "time": 85.090824,
            "velocity": 0.4881889763779528
          },
          {
            "duration": 0.5454540000000065,
            "durationTicks": 384,
            "midi": 42,
            "name": "F#2",
            "ticks": 59904,
            "time": 85.090824,
            "velocity": 0.4881889763779528
          },
          {
            "duration": 0.2727270000000033,
            "durationTicks": 192,
            "midi": 81,
            "name": "A5",
            "ticks": 60096,
            "time": 85.363551,
            "velocity": 0.4881889763779528
          },
          {
            "duration": 0.2727270000000033,
            "durationTicks": 192,
            "midi": 81,
            "name": "A5",
            "ticks": 60096,
            "time": 85.363551,
            "velocity": 0.4881889763779528
          },
          {
            "duration": 0.2727270000000033,
            "durationTicks": 192,
            "midi": 81,
            "name": "A5",
            "ticks": 60096,
            "time": 85.363551,
            "velocity": 0.4881889763779528
          },
          {
            "duration": 0.2727270000000033,
            "durationTicks": 192,
            "midi": 81,
            "name": "A5",
            "ticks": 60096,
            "time": 85.363551,
            "velocity": 0.4881889763779528
          },
          {
            "duration": 0.2727270000000033,
            "durationTicks": 192,
            "midi": 81,
            "name": "A5",
            "ticks": 60096,
            "time": 85.363551,
            "velocity": 0.4881889763779528
          },
          {
            "duration": 0.2727270000000033,
            "durationTicks": 192,
            "midi": 81,
            "name": "A5",
            "ticks": 60096,
            "time": 85.363551,
            "velocity": 0.4881889763779528
          },
          {
            "duration": 0.5454539999999923,
            "durationTicks": 384,
            "midi": 66,
            "name": "F#4",
            "ticks": 60288,
            "time": 85.636278,
            "velocity": 0.4881889763779528
          },
          {
            "duration": 0.5454539999999923,
            "durationTicks": 384,
            "midi": 61,
            "name": "C#4",
            "ticks": 60288,
            "time": 85.636278,
            "velocity": 0.4881889763779528
          },
          {
            "duration": 0.5454539999999923,
            "durationTicks": 384,
            "midi": 61,
            "name": "C#4",
            "ticks": 60288,
            "time": 85.636278,
            "velocity": 0.4881889763779528
          },
          {
            "duration": 0.27272699999998906,
            "durationTicks": 192,
            "midi": 80,
            "name": "G#5",
            "ticks": 60288,
            "time": 85.636278,
            "velocity": 0.4881889763779528
          },
          {
            "duration": 0.5454539999999923,
            "durationTicks": 384,
            "midi": 61,
            "name": "C#4",
            "ticks": 60288,
            "time": 85.636278,
            "velocity": 0.4881889763779528
          },
          {
            "duration": 0.5454539999999923,
            "durationTicks": 384,
            "midi": 69,
            "name": "A4",
            "ticks": 60288,
            "time": 85.636278,
            "velocity": 0.4881889763779528
          },
          {
            "duration": 0.5454539999999923,
            "durationTicks": 384,
            "midi": 66,
            "name": "F#4",
            "ticks": 60288,
            "time": 85.636278,
            "velocity": 0.4881889763779528
          },
          {
            "duration": 0.5454539999999923,
            "durationTicks": 384,
            "midi": 69,
            "name": "A4",
            "ticks": 60288,
            "time": 85.636278,
            "velocity": 0.4881889763779528
          },
          {
            "duration": 0.5454539999999923,
            "durationTicks": 384,
            "midi": 66,
            "name": "F#4",
            "ticks": 60288,
            "time": 85.636278,
            "velocity": 0.4881889763779528
          },
          {
            "duration": 0.27272699999998906,
            "durationTicks": 192,
            "midi": 80,
            "name": "G#5",
            "ticks": 60288,
            "time": 85.636278,
            "velocity": 0.4881889763779528
          },
          {
            "duration": 0.5454539999999923,
            "durationTicks": 384,
            "midi": 69,
            "name": "A4",
            "ticks": 60288,
            "time": 85.636278,
            "velocity": 0.4881889763779528
          },
          {
            "duration": 0.27272699999998906,
            "durationTicks": 192,
            "midi": 80,
            "name": "G#5",
            "ticks": 60288,
            "time": 85.636278,
            "velocity": 0.4881889763779528
          },
          {
            "duration": 0.5454539999999923,
            "durationTicks": 384,
            "midi": 69,
            "name": "A4",
            "ticks": 60288,
            "time": 85.636278,
            "velocity": 0.4881889763779528
          },
          {
            "duration": 0.5454539999999923,
            "durationTicks": 384,
            "midi": 66,
            "name": "F#4",
            "ticks": 60288,
            "time": 85.636278,
            "velocity": 0.4881889763779528
          },
          {
            "duration": 0.5454539999999923,
            "durationTicks": 384,
            "midi": 61,
            "name": "C#4",
            "ticks": 60288,
            "time": 85.636278,
            "velocity": 0.4881889763779528
          },
          {
            "duration": 0.5454539999999923,
            "durationTicks": 384,
            "midi": 69,
            "name": "A4",
            "ticks": 60288,
            "time": 85.636278,
            "velocity": 0.4881889763779528
          },
          {
            "duration": 0.5454539999999923,
            "durationTicks": 384,
            "midi": 61,
            "name": "C#4",
            "ticks": 60288,
            "time": 85.636278,
            "velocity": 0.4881889763779528
          },
          {
            "duration": 0.5454539999999923,
            "durationTicks": 384,
            "midi": 61,
            "name": "C#4",
            "ticks": 60288,
            "time": 85.636278,
            "velocity": 0.4881889763779528
          },
          {
            "duration": 0.27272699999998906,
            "durationTicks": 192,
            "midi": 80,
            "name": "G#5",
            "ticks": 60288,
            "time": 85.636278,
            "velocity": 0.4881889763779528
          },
          {
            "duration": 0.27272699999998906,
            "durationTicks": 192,
            "midi": 80,
            "name": "G#5",
            "ticks": 60288,
            "time": 85.636278,
            "velocity": 0.4881889763779528
          },
          {
            "duration": 0.5454539999999923,
            "durationTicks": 384,
            "midi": 69,
            "name": "A4",
            "ticks": 60288,
            "time": 85.636278,
            "velocity": 0.4881889763779528
          },
          {
            "duration": 0.5454539999999923,
            "durationTicks": 384,
            "midi": 66,
            "name": "F#4",
            "ticks": 60288,
            "time": 85.636278,
            "velocity": 0.4881889763779528
          },
          {
            "duration": 0.5454539999999923,
            "durationTicks": 384,
            "midi": 66,
            "name": "F#4",
            "ticks": 60288,
            "time": 85.636278,
            "velocity": 0.4881889763779528
          },
          {
            "duration": 0.27272699999998906,
            "durationTicks": 192,
            "midi": 80,
            "name": "G#5",
            "ticks": 60288,
            "time": 85.636278,
            "velocity": 0.4881889763779528
          },
          {
            "duration": 0.2727270000000033,
            "durationTicks": 192,
            "midi": 78,
            "name": "F#5",
            "ticks": 60480,
            "time": 85.909005,
            "velocity": 0.4881889763779528
          },
          {
            "duration": 0.2727270000000033,
            "durationTicks": 192,
            "midi": 78,
            "name": "F#5",
            "ticks": 60480,
            "time": 85.909005,
            "velocity": 0.4881889763779528
          },
          {
            "duration": 0.2727270000000033,
            "durationTicks": 192,
            "midi": 78,
            "name": "F#5",
            "ticks": 60480,
            "time": 85.909005,
            "velocity": 0.4881889763779528
          },
          {
            "duration": 0.2727270000000033,
            "durationTicks": 192,
            "midi": 78,
            "name": "F#5",
            "ticks": 60480,
            "time": 85.909005,
            "velocity": 0.4881889763779528
          },
          {
            "duration": 0.2727270000000033,
            "durationTicks": 192,
            "midi": 78,
            "name": "F#5",
            "ticks": 60480,
            "time": 85.909005,
            "velocity": 0.4881889763779528
          },
          {
            "duration": 0.2727270000000033,
            "durationTicks": 192,
            "midi": 78,
            "name": "F#5",
            "ticks": 60480,
            "time": 85.909005,
            "velocity": 0.4881889763779528
          },
          {
            "duration": 0.5454540000000065,
            "durationTicks": 384,
            "midi": 56,
            "name": "G#3",
            "ticks": 60672,
            "time": 86.181732,
            "velocity": 0.4881889763779528
          },
          {
            "duration": 0.2727270000000033,
            "durationTicks": 192,
            "midi": 68,
            "name": "G#4",
            "ticks": 60672,
            "time": 86.181732,
            "velocity": 0.4881889763779528
          },
          {
            "duration": 0.2727270000000033,
            "durationTicks": 192,
            "midi": 76,
            "name": "E5",
            "ticks": 60672,
            "time": 86.181732,
            "velocity": 0.4881889763779528
          },
          {
            "duration": 0.5454540000000065,
            "durationTicks": 384,
            "midi": 56,
            "name": "G#3",
            "ticks": 60672,
            "time": 86.181732,
            "velocity": 0.4881889763779528
          },
          {
            "duration": 0.2727270000000033,
            "durationTicks": 192,
            "midi": 68,
            "name": "G#4",
            "ticks": 60672,
            "time": 86.181732,
            "velocity": 0.4881889763779528
          },
          {
            "duration": 0.2727270000000033,
            "durationTicks": 192,
            "midi": 68,
            "name": "G#4",
            "ticks": 60672,
            "time": 86.181732,
            "velocity": 0.4881889763779528
          },
          {
            "duration": 0.2727270000000033,
            "durationTicks": 192,
            "midi": 68,
            "name": "G#4",
            "ticks": 60672,
            "time": 86.181732,
            "velocity": 0.4881889763779528
          },
          {
            "duration": 0.2727270000000033,
            "durationTicks": 192,
            "midi": 76,
            "name": "E5",
            "ticks": 60672,
            "time": 86.181732,
            "velocity": 0.4881889763779528
          },
          {
            "duration": 0.2727270000000033,
            "durationTicks": 192,
            "midi": 76,
            "name": "E5",
            "ticks": 60672,
            "time": 86.181732,
            "velocity": 0.4881889763779528
          },
          {
            "duration": 0.2727270000000033,
            "durationTicks": 192,
            "midi": 76,
            "name": "E5",
            "ticks": 60672,
            "time": 86.181732,
            "velocity": 0.4881889763779528
          },
          {
            "duration": 0.5454540000000065,
            "durationTicks": 384,
            "midi": 44,
            "name": "G#2",
            "ticks": 60672,
            "time": 86.181732,
            "velocity": 0.4881889763779528
          },
          {
            "duration": 0.2727270000000033,
            "durationTicks": 192,
            "midi": 68,
            "name": "G#4",
            "ticks": 60672,
            "time": 86.181732,
            "velocity": 0.4881889763779528
          },
          {
            "duration": 0.5454540000000065,
            "durationTicks": 384,
            "midi": 56,
            "name": "G#3",
            "ticks": 60672,
            "time": 86.181732,
            "velocity": 0.4881889763779528
          },
          {
            "duration": 0.5454540000000065,
            "durationTicks": 384,
            "midi": 56,
            "name": "G#3",
            "ticks": 60672,
            "time": 86.181732,
            "velocity": 0.4881889763779528
          },
          {
            "duration": 0.5454540000000065,
            "durationTicks": 384,
            "midi": 44,
            "name": "G#2",
            "ticks": 60672,
            "time": 86.181732,
            "velocity": 0.4881889763779528
          },
          {
            "duration": 0.5454540000000065,
            "durationTicks": 384,
            "midi": 44,
            "name": "G#2",
            "ticks": 60672,
            "time": 86.181732,
            "velocity": 0.4881889763779528
          },
          {
            "duration": 0.2727270000000033,
            "durationTicks": 192,
            "midi": 68,
            "name": "G#4",
            "ticks": 60672,
            "time": 86.181732,
            "velocity": 0.4881889763779528
          },
          {
            "duration": 0.5454540000000065,
            "durationTicks": 384,
            "midi": 44,
            "name": "G#2",
            "ticks": 60672,
            "time": 86.181732,
            "velocity": 0.4881889763779528
          },
          {
            "duration": 0.2727270000000033,
            "durationTicks": 192,
            "midi": 76,
            "name": "E5",
            "ticks": 60672,
            "time": 86.181732,
            "velocity": 0.4881889763779528
          },
          {
            "duration": 0.2727270000000033,
            "durationTicks": 192,
            "midi": 76,
            "name": "E5",
            "ticks": 60672,
            "time": 86.181732,
            "velocity": 0.4881889763779528
          },
          {
            "duration": 0.5454540000000065,
            "durationTicks": 384,
            "midi": 56,
            "name": "G#3",
            "ticks": 60672,
            "time": 86.181732,
            "velocity": 0.4881889763779528
          },
          {
            "duration": 0.5454540000000065,
            "durationTicks": 384,
            "midi": 56,
            "name": "G#3",
            "ticks": 60672,
            "time": 86.181732,
            "velocity": 0.4881889763779528
          },
          {
            "duration": 0.5454540000000065,
            "durationTicks": 384,
            "midi": 44,
            "name": "G#2",
            "ticks": 60672,
            "time": 86.181732,
            "velocity": 0.4881889763779528
          },
          {
            "duration": 0.5454540000000065,
            "durationTicks": 384,
            "midi": 44,
            "name": "G#2",
            "ticks": 60672,
            "time": 86.181732,
            "velocity": 0.4881889763779528
          },
          {
            "duration": 0.2727270000000033,
            "durationTicks": 192,
            "midi": 75,
            "name": "D#5",
            "ticks": 60864,
            "time": 86.454459,
            "velocity": 0.4881889763779528
          },
          {
            "duration": 0.2727270000000033,
            "durationTicks": 192,
            "midi": 75,
            "name": "D#5",
            "ticks": 60864,
            "time": 86.454459,
            "velocity": 0.4881889763779528
          },
          {
            "duration": 0.2727270000000033,
            "durationTicks": 192,
            "midi": 75,
            "name": "D#5",
            "ticks": 60864,
            "time": 86.454459,
            "velocity": 0.4881889763779528
          },
          {
            "duration": 0.2727270000000033,
            "durationTicks": 192,
            "midi": 66,
            "name": "F#4",
            "ticks": 60864,
            "time": 86.454459,
            "velocity": 0.4881889763779528
          },
          {
            "duration": 0.2727270000000033,
            "durationTicks": 192,
            "midi": 66,
            "name": "F#4",
            "ticks": 60864,
            "time": 86.454459,
            "velocity": 0.4881889763779528
          },
          {
            "duration": 0.2727270000000033,
            "durationTicks": 192,
            "midi": 75,
            "name": "D#5",
            "ticks": 60864,
            "time": 86.454459,
            "velocity": 0.4881889763779528
          },
          {
            "duration": 0.2727270000000033,
            "durationTicks": 192,
            "midi": 66,
            "name": "F#4",
            "ticks": 60864,
            "time": 86.454459,
            "velocity": 0.4881889763779528
          },
          {
            "duration": 0.2727270000000033,
            "durationTicks": 192,
            "midi": 66,
            "name": "F#4",
            "ticks": 60864,
            "time": 86.454459,
            "velocity": 0.4881889763779528
          },
          {
            "duration": 0.2727270000000033,
            "durationTicks": 192,
            "midi": 75,
            "name": "D#5",
            "ticks": 60864,
            "time": 86.454459,
            "velocity": 0.4881889763779528
          },
          {
            "duration": 0.2727270000000033,
            "durationTicks": 192,
            "midi": 66,
            "name": "F#4",
            "ticks": 60864,
            "time": 86.454459,
            "velocity": 0.4881889763779528
          },
          {
            "duration": 0.2727270000000033,
            "durationTicks": 192,
            "midi": 66,
            "name": "F#4",
            "ticks": 60864,
            "time": 86.454459,
            "velocity": 0.4881889763779528
          },
          {
            "duration": 0.2727270000000033,
            "durationTicks": 192,
            "midi": 75,
            "name": "D#5",
            "ticks": 60864,
            "time": 86.454459,
            "velocity": 0.4881889763779528
          },
          {
            "duration": 0.27272699999998906,
            "durationTicks": 192,
            "midi": 73,
            "name": "C#5",
            "ticks": 61056,
            "time": 86.727186,
            "velocity": 0.4881889763779528
          },
          {
            "duration": 0.27272699999998906,
            "durationTicks": 192,
            "midi": 73,
            "name": "C#5",
            "ticks": 61056,
            "time": 86.727186,
            "velocity": 0.4881889763779528
          },
          {
            "duration": 0.5454539999999923,
            "durationTicks": 384,
            "midi": 63,
            "name": "D#4",
            "ticks": 61056,
            "time": 86.727186,
            "velocity": 0.4881889763779528
          },
          {
            "duration": 0.27272699999998906,
            "durationTicks": 192,
            "midi": 68,
            "name": "G#4",
            "ticks": 61056,
            "time": 86.727186,
            "velocity": 0.4881889763779528
          },
          {
            "duration": 0.5454539999999923,
            "durationTicks": 384,
            "midi": 63,
            "name": "D#4",
            "ticks": 61056,
            "time": 86.727186,
            "velocity": 0.4881889763779528
          },
          {
            "duration": 0.27272699999998906,
            "durationTicks": 192,
            "midi": 68,
            "name": "G#4",
            "ticks": 61056,
            "time": 86.727186,
            "velocity": 0.4881889763779528
          },
          {
            "duration": 0.27272699999998906,
            "durationTicks": 192,
            "midi": 68,
            "name": "G#4",
            "ticks": 61056,
            "time": 86.727186,
            "velocity": 0.4881889763779528
          },
          {
            "duration": 0.27272699999998906,
            "durationTicks": 192,
            "midi": 73,
            "name": "C#5",
            "ticks": 61056,
            "time": 86.727186,
            "velocity": 0.4881889763779528
          },
          {
            "duration": 0.27272699999998906,
            "durationTicks": 192,
            "midi": 73,
            "name": "C#5",
            "ticks": 61056,
            "time": 86.727186,
            "velocity": 0.4881889763779528
          },
          {
            "duration": 0.27272699999998906,
            "durationTicks": 192,
            "midi": 68,
            "name": "G#4",
            "ticks": 61056,
            "time": 86.727186,
            "velocity": 0.4881889763779528
          },
          {
            "duration": 0.5454539999999923,
            "durationTicks": 384,
            "midi": 63,
            "name": "D#4",
            "ticks": 61056,
            "time": 86.727186,
            "velocity": 0.4881889763779528
          },
          {
            "duration": 0.27272699999998906,
            "durationTicks": 192,
            "midi": 68,
            "name": "G#4",
            "ticks": 61056,
            "time": 86.727186,
            "velocity": 0.4881889763779528
          },
          {
            "duration": 0.27272699999998906,
            "durationTicks": 192,
            "midi": 68,
            "name": "G#4",
            "ticks": 61056,
            "time": 86.727186,
            "velocity": 0.4881889763779528
          },
          {
            "duration": 0.27272699999998906,
            "durationTicks": 192,
            "midi": 73,
            "name": "C#5",
            "ticks": 61056,
            "time": 86.727186,
            "velocity": 0.4881889763779528
          },
          {
            "duration": 0.5454539999999923,
            "durationTicks": 384,
            "midi": 68,
            "name": "G#4",
            "ticks": 61056,
            "time": 86.727186,
            "velocity": 0.4881889763779528
          },
          {
            "duration": 0.5454539999999923,
            "durationTicks": 384,
            "midi": 68,
            "name": "G#4",
            "ticks": 61056,
            "time": 86.727186,
            "velocity": 0.4881889763779528
          },
          {
            "duration": 0.5454539999999923,
            "durationTicks": 384,
            "midi": 68,
            "name": "G#4",
            "ticks": 61056,
            "time": 86.727186,
            "velocity": 0.4881889763779528
          },
          {
            "duration": 0.5454539999999923,
            "durationTicks": 384,
            "midi": 63,
            "name": "D#4",
            "ticks": 61056,
            "time": 86.727186,
            "velocity": 0.4881889763779528
          },
          {
            "duration": 0.5454539999999923,
            "durationTicks": 384,
            "midi": 63,
            "name": "D#4",
            "ticks": 61056,
            "time": 86.727186,
            "velocity": 0.4881889763779528
          },
          {
            "duration": 0.27272699999998906,
            "durationTicks": 192,
            "midi": 73,
            "name": "C#5",
            "ticks": 61056,
            "time": 86.727186,
            "velocity": 0.4881889763779528
          },
          {
            "duration": 0.5454539999999923,
            "durationTicks": 384,
            "midi": 68,
            "name": "G#4",
            "ticks": 61056,
            "time": 86.727186,
            "velocity": 0.4881889763779528
          },
          {
            "duration": 0.5454539999999923,
            "durationTicks": 384,
            "midi": 68,
            "name": "G#4",
            "ticks": 61056,
            "time": 86.727186,
            "velocity": 0.4881889763779528
          },
          {
            "duration": 0.5454539999999923,
            "durationTicks": 384,
            "midi": 63,
            "name": "D#4",
            "ticks": 61056,
            "time": 86.727186,
            "velocity": 0.4881889763779528
          },
          {
            "duration": 0.5454539999999923,
            "durationTicks": 384,
            "midi": 68,
            "name": "G#4",
            "ticks": 61056,
            "time": 86.727186,
            "velocity": 0.4881889763779528
          },
          {
            "duration": 0.2727270000000033,
            "durationTicks": 192,
            "midi": 66,
            "name": "F#4",
            "ticks": 61248,
            "time": 86.99991299999999,
            "velocity": 0.4881889763779528
          },
          {
            "duration": 0.2727270000000033,
            "durationTicks": 192,
            "midi": 75,
            "name": "D#5",
            "ticks": 61248,
            "time": 86.99991299999999,
            "velocity": 0.4881889763779528
          },
          {
            "duration": 0.2727270000000033,
            "durationTicks": 192,
            "midi": 75,
            "name": "D#5",
            "ticks": 61248,
            "time": 86.99991299999999,
            "velocity": 0.4881889763779528
          },
          {
            "duration": 0.2727270000000033,
            "durationTicks": 192,
            "midi": 75,
            "name": "D#5",
            "ticks": 61248,
            "time": 86.99991299999999,
            "velocity": 0.4881889763779528
          },
          {
            "duration": 0.2727270000000033,
            "durationTicks": 192,
            "midi": 66,
            "name": "F#4",
            "ticks": 61248,
            "time": 86.99991299999999,
            "velocity": 0.4881889763779528
          },
          {
            "duration": 0.2727270000000033,
            "durationTicks": 192,
            "midi": 66,
            "name": "F#4",
            "ticks": 61248,
            "time": 86.99991299999999,
            "velocity": 0.4881889763779528
          },
          {
            "duration": 0.2727270000000033,
            "durationTicks": 192,
            "midi": 66,
            "name": "F#4",
            "ticks": 61248,
            "time": 86.99991299999999,
            "velocity": 0.4881889763779528
          },
          {
            "duration": 0.2727270000000033,
            "durationTicks": 192,
            "midi": 66,
            "name": "F#4",
            "ticks": 61248,
            "time": 86.99991299999999,
            "velocity": 0.4881889763779528
          },
          {
            "duration": 0.2727270000000033,
            "durationTicks": 192,
            "midi": 75,
            "name": "D#5",
            "ticks": 61248,
            "time": 86.99991299999999,
            "velocity": 0.4881889763779528
          },
          {
            "duration": 0.2727270000000033,
            "durationTicks": 192,
            "midi": 75,
            "name": "D#5",
            "ticks": 61248,
            "time": 86.99991299999999,
            "velocity": 0.4881889763779528
          },
          {
            "duration": 0.2727270000000033,
            "durationTicks": 192,
            "midi": 75,
            "name": "D#5",
            "ticks": 61248,
            "time": 86.99991299999999,
            "velocity": 0.4881889763779528
          },
          {
            "duration": 0.2727270000000033,
            "durationTicks": 192,
            "midi": 66,
            "name": "F#4",
            "ticks": 61248,
            "time": 86.99991299999999,
            "velocity": 0.4881889763779528
          },
          {
            "duration": 0.5454540000000065,
            "durationTicks": 384,
            "midi": 49,
            "name": "C#3",
            "ticks": 61440,
            "time": 87.27264,
            "velocity": 0.4881889763779528
          },
          {
            "duration": 0.2727270000000033,
            "durationTicks": 192,
            "midi": 68,
            "name": "G#4",
            "ticks": 61440,
            "time": 87.27264,
            "velocity": 0.4881889763779528
          },
          {
            "duration": 0.5454540000000065,
            "durationTicks": 384,
            "midi": 49,
            "name": "C#3",
            "ticks": 61440,
            "time": 87.27264,
            "velocity": 0.4881889763779528
          },
          {
            "duration": 0.5454540000000065,
            "durationTicks": 384,
            "midi": 61,
            "name": "C#4",
            "ticks": 61440,
            "time": 87.27264,
            "velocity": 0.4881889763779528
          },
          {
            "duration": 0.2727270000000033,
            "durationTicks": 192,
            "midi": 73,
            "name": "C#5",
            "ticks": 61440,
            "time": 87.27264,
            "velocity": 0.4881889763779528
          },
          {
            "duration": 0.5454540000000065,
            "durationTicks": 384,
            "midi": 61,
            "name": "C#4",
            "ticks": 61440,
            "time": 87.27264,
            "velocity": 0.4881889763779528
          },
          {
            "duration": 0.5454540000000065,
            "durationTicks": 384,
            "midi": 49,
            "name": "C#3",
            "ticks": 61440,
            "time": 87.27264,
            "velocity": 0.4881889763779528
          },
          {
            "duration": 0.2727270000000033,
            "durationTicks": 192,
            "midi": 68,
            "name": "G#4",
            "ticks": 61440,
            "time": 87.27264,
            "velocity": 0.4881889763779528
          },
          {
            "duration": 0.2727270000000033,
            "durationTicks": 192,
            "midi": 73,
            "name": "C#5",
            "ticks": 61440,
            "time": 87.27264,
            "velocity": 0.4881889763779528
          },
          {
            "duration": 0.5454540000000065,
            "durationTicks": 384,
            "midi": 61,
            "name": "C#4",
            "ticks": 61440,
            "time": 87.27264,
            "velocity": 0.4881889763779528
          },
          {
            "duration": 0.2727270000000033,
            "durationTicks": 192,
            "midi": 73,
            "name": "C#5",
            "ticks": 61440,
            "time": 87.27264,
            "velocity": 0.4881889763779528
          },
          {
            "duration": 0.5454540000000065,
            "durationTicks": 384,
            "midi": 61,
            "name": "C#4",
            "ticks": 61440,
            "time": 87.27264,
            "velocity": 0.4881889763779528
          },
          {
            "duration": 0.2727270000000033,
            "durationTicks": 192,
            "midi": 73,
            "name": "C#5",
            "ticks": 61440,
            "time": 87.27264,
            "velocity": 0.4881889763779528
          },
          {
            "duration": 0.5454540000000065,
            "durationTicks": 384,
            "midi": 61,
            "name": "C#4",
            "ticks": 61440,
            "time": 87.27264,
            "velocity": 0.4881889763779528
          },
          {
            "duration": 0.5454540000000065,
            "durationTicks": 384,
            "midi": 61,
            "name": "C#4",
            "ticks": 61440,
            "time": 87.27264,
            "velocity": 0.4881889763779528
          },
          {
            "duration": 0.2727270000000033,
            "durationTicks": 192,
            "midi": 68,
            "name": "G#4",
            "ticks": 61440,
            "time": 87.27264,
            "velocity": 0.4881889763779528
          },
          {
            "duration": 0.2727270000000033,
            "durationTicks": 192,
            "midi": 68,
            "name": "G#4",
            "ticks": 61440,
            "time": 87.27264,
            "velocity": 0.4881889763779528
          },
          {
            "duration": 0.2727270000000033,
            "durationTicks": 192,
            "midi": 68,
            "name": "G#4",
            "ticks": 61440,
            "time": 87.27264,
            "velocity": 0.4881889763779528
          },
          {
            "duration": 0.5454540000000065,
            "durationTicks": 384,
            "midi": 49,
            "name": "C#3",
            "ticks": 61440,
            "time": 87.27264,
            "velocity": 0.4881889763779528
          },
          {
            "duration": 0.2727270000000033,
            "durationTicks": 192,
            "midi": 73,
            "name": "C#5",
            "ticks": 61440,
            "time": 87.27264,
            "velocity": 0.4881889763779528
          },
          {
            "duration": 0.2727270000000033,
            "durationTicks": 192,
            "midi": 73,
            "name": "C#5",
            "ticks": 61440,
            "time": 87.27264,
            "velocity": 0.4881889763779528
          },
          {
            "duration": 0.2727270000000033,
            "durationTicks": 192,
            "midi": 68,
            "name": "G#4",
            "ticks": 61440,
            "time": 87.27264,
            "velocity": 0.4881889763779528
          },
          {
            "duration": 0.5454540000000065,
            "durationTicks": 384,
            "midi": 49,
            "name": "C#3",
            "ticks": 61440,
            "time": 87.27264,
            "velocity": 0.4881889763779528
          },
          {
            "duration": 0.5454540000000065,
            "durationTicks": 384,
            "midi": 49,
            "name": "C#3",
            "ticks": 61440,
            "time": 87.27264,
            "velocity": 0.4881889763779528
          },
          {
            "duration": 0.2727270000000033,
            "durationTicks": 192,
            "midi": 88,
            "name": "E6",
            "ticks": 61632,
            "time": 87.545367,
            "velocity": 0.4881889763779528
          },
          {
            "duration": 0.2727270000000033,
            "durationTicks": 192,
            "midi": 80,
            "name": "G#5",
            "ticks": 61632,
            "time": 87.545367,
            "velocity": 0.4881889763779528
          },
          {
            "duration": 0.2727270000000033,
            "durationTicks": 192,
            "midi": 80,
            "name": "G#5",
            "ticks": 61632,
            "time": 87.545367,
            "velocity": 0.4881889763779528
          },
          {
            "duration": 0.2727270000000033,
            "durationTicks": 192,
            "midi": 80,
            "name": "G#5",
            "ticks": 61632,
            "time": 87.545367,
            "velocity": 0.4881889763779528
          },
          {
            "duration": 0.2727270000000033,
            "durationTicks": 192,
            "midi": 88,
            "name": "E6",
            "ticks": 61632,
            "time": 87.545367,
            "velocity": 0.4881889763779528
          },
          {
            "duration": 0.2727270000000033,
            "durationTicks": 192,
            "midi": 88,
            "name": "E6",
            "ticks": 61632,
            "time": 87.545367,
            "velocity": 0.4881889763779528
          },
          {
            "duration": 0.2727270000000033,
            "durationTicks": 192,
            "midi": 88,
            "name": "E6",
            "ticks": 61632,
            "time": 87.545367,
            "velocity": 0.4881889763779528
          },
          {
            "duration": 0.2727270000000033,
            "durationTicks": 192,
            "midi": 80,
            "name": "G#5",
            "ticks": 61632,
            "time": 87.545367,
            "velocity": 0.4881889763779528
          },
          {
            "duration": 0.2727270000000033,
            "durationTicks": 192,
            "midi": 88,
            "name": "E6",
            "ticks": 61632,
            "time": 87.545367,
            "velocity": 0.4881889763779528
          },
          {
            "duration": 0.2727270000000033,
            "durationTicks": 192,
            "midi": 80,
            "name": "G#5",
            "ticks": 61632,
            "time": 87.545367,
            "velocity": 0.4881889763779528
          },
          {
            "duration": 0.2727270000000033,
            "durationTicks": 192,
            "midi": 80,
            "name": "G#5",
            "ticks": 61632,
            "time": 87.545367,
            "velocity": 0.4881889763779528
          },
          {
            "duration": 0.2727270000000033,
            "durationTicks": 192,
            "midi": 88,
            "name": "E6",
            "ticks": 61632,
            "time": 87.545367,
            "velocity": 0.4881889763779528
          },
          {
            "duration": 0.2727270000000033,
            "durationTicks": 192,
            "midi": 87,
            "name": "D#6",
            "ticks": 61824,
            "time": 87.818094,
            "velocity": 0.4881889763779528
          },
          {
            "duration": 0.2727270000000033,
            "durationTicks": 192,
            "midi": 78,
            "name": "F#5",
            "ticks": 61824,
            "time": 87.818094,
            "velocity": 0.4881889763779528
          },
          {
            "duration": 0.5454539999999923,
            "durationTicks": 384,
            "midi": 64,
            "name": "E4",
            "ticks": 61824,
            "time": 87.818094,
            "velocity": 0.4881889763779528
          },
          {
            "duration": 0.2727270000000033,
            "durationTicks": 192,
            "midi": 78,
            "name": "F#5",
            "ticks": 61824,
            "time": 87.818094,
            "velocity": 0.4881889763779528
          },
          {
            "duration": 0.5454539999999923,
            "durationTicks": 384,
            "midi": 64,
            "name": "E4",
            "ticks": 61824,
            "time": 87.818094,
            "velocity": 0.4881889763779528
          },
          {
            "duration": 0.2727270000000033,
            "durationTicks": 192,
            "midi": 87,
            "name": "D#6",
            "ticks": 61824,
            "time": 87.818094,
            "velocity": 0.4881889763779528
          },
          {
            "duration": 0.5454539999999923,
            "durationTicks": 384,
            "midi": 73,
            "name": "C#5",
            "ticks": 61824,
            "time": 87.818094,
            "velocity": 0.4881889763779528
          },
          {
            "duration": 0.5454539999999923,
            "durationTicks": 384,
            "midi": 68,
            "name": "G#4",
            "ticks": 61824,
            "time": 87.818094,
            "velocity": 0.4881889763779528
          },
          {
            "duration": 0.2727270000000033,
            "durationTicks": 192,
            "midi": 87,
            "name": "D#6",
            "ticks": 61824,
            "time": 87.818094,
            "velocity": 0.4881889763779528
          },
          {
            "duration": 0.2727270000000033,
            "durationTicks": 192,
            "midi": 87,
            "name": "D#6",
            "ticks": 61824,
            "time": 87.818094,
            "velocity": 0.4881889763779528
          },
          {
            "duration": 0.2727270000000033,
            "durationTicks": 192,
            "midi": 78,
            "name": "F#5",
            "ticks": 61824,
            "time": 87.818094,
            "velocity": 0.4881889763779528
          },
          {
            "duration": 0.2727270000000033,
            "durationTicks": 192,
            "midi": 78,
            "name": "F#5",
            "ticks": 61824,
            "time": 87.818094,
            "velocity": 0.4881889763779528
          },
          {
            "duration": 0.5454539999999923,
            "durationTicks": 384,
            "midi": 73,
            "name": "C#5",
            "ticks": 61824,
            "time": 87.818094,
            "velocity": 0.4881889763779528
          },
          {
            "duration": 0.5454539999999923,
            "durationTicks": 384,
            "midi": 73,
            "name": "C#5",
            "ticks": 61824,
            "time": 87.818094,
            "velocity": 0.4881889763779528
          },
          {
            "duration": 0.5454539999999923,
            "durationTicks": 384,
            "midi": 64,
            "name": "E4",
            "ticks": 61824,
            "time": 87.818094,
            "velocity": 0.4881889763779528
          },
          {
            "duration": 0.5454539999999923,
            "durationTicks": 384,
            "midi": 64,
            "name": "E4",
            "ticks": 61824,
            "time": 87.818094,
            "velocity": 0.4881889763779528
          },
          {
            "duration": 0.5454539999999923,
            "durationTicks": 384,
            "midi": 73,
            "name": "C#5",
            "ticks": 61824,
            "time": 87.818094,
            "velocity": 0.4881889763779528
          },
          {
            "duration": 0.2727270000000033,
            "durationTicks": 192,
            "midi": 87,
            "name": "D#6",
            "ticks": 61824,
            "time": 87.818094,
            "velocity": 0.4881889763779528
          },
          {
            "duration": 0.5454539999999923,
            "durationTicks": 384,
            "midi": 68,
            "name": "G#4",
            "ticks": 61824,
            "time": 87.818094,
            "velocity": 0.4881889763779528
          },
          {
            "duration": 0.5454539999999923,
            "durationTicks": 384,
            "midi": 64,
            "name": "E4",
            "ticks": 61824,
            "time": 87.818094,
            "velocity": 0.4881889763779528
          },
          {
            "duration": 0.5454539999999923,
            "durationTicks": 384,
            "midi": 64,
            "name": "E4",
            "ticks": 61824,
            "time": 87.818094,
            "velocity": 0.4881889763779528
          },
          {
            "duration": 0.5454539999999923,
            "durationTicks": 384,
            "midi": 73,
            "name": "C#5",
            "ticks": 61824,
            "time": 87.818094,
            "velocity": 0.4881889763779528
          },
          {
            "duration": 0.2727270000000033,
            "durationTicks": 192,
            "midi": 78,
            "name": "F#5",
            "ticks": 61824,
            "time": 87.818094,
            "velocity": 0.4881889763779528
          },
          {
            "duration": 0.5454539999999923,
            "durationTicks": 384,
            "midi": 68,
            "name": "G#4",
            "ticks": 61824,
            "time": 87.818094,
            "velocity": 0.4881889763779528
          },
          {
            "duration": 0.5454539999999923,
            "durationTicks": 384,
            "midi": 68,
            "name": "G#4",
            "ticks": 61824,
            "time": 87.818094,
            "velocity": 0.4881889763779528
          },
          {
            "duration": 0.2727270000000033,
            "durationTicks": 192,
            "midi": 87,
            "name": "D#6",
            "ticks": 61824,
            "time": 87.818094,
            "velocity": 0.4881889763779528
          },
          {
            "duration": 0.2727270000000033,
            "durationTicks": 192,
            "midi": 78,
            "name": "F#5",
            "ticks": 61824,
            "time": 87.818094,
            "velocity": 0.4881889763779528
          },
          {
            "duration": 0.5454539999999923,
            "durationTicks": 384,
            "midi": 68,
            "name": "G#4",
            "ticks": 61824,
            "time": 87.818094,
            "velocity": 0.4881889763779528
          },
          {
            "duration": 0.5454539999999923,
            "durationTicks": 384,
            "midi": 73,
            "name": "C#5",
            "ticks": 61824,
            "time": 87.818094,
            "velocity": 0.4881889763779528
          },
          {
            "duration": 0.5454539999999923,
            "durationTicks": 384,
            "midi": 68,
            "name": "G#4",
            "ticks": 61824,
            "time": 87.818094,
            "velocity": 0.4881889763779528
          },
          {
            "duration": 0.13636349999998743,
            "durationTicks": 96,
            "midi": 85,
            "name": "C#6",
            "ticks": 62016,
            "time": 88.090821,
            "velocity": 0.4881889763779528
          },
          {
            "duration": 0.13636349999998743,
            "durationTicks": 96,
            "midi": 85,
            "name": "C#6",
            "ticks": 62016,
            "time": 88.090821,
            "velocity": 0.4881889763779528
          },
          {
            "duration": 0.13636349999998743,
            "durationTicks": 96,
            "midi": 85,
            "name": "C#6",
            "ticks": 62016,
            "time": 88.090821,
            "velocity": 0.4881889763779528
          },
          {
            "duration": 0.13636349999998743,
            "durationTicks": 96,
            "midi": 80,
            "name": "G#5",
            "ticks": 62016,
            "time": 88.090821,
            "velocity": 0.4881889763779528
          },
          {
            "duration": 0.13636349999998743,
            "durationTicks": 96,
            "midi": 85,
            "name": "C#6",
            "ticks": 62016,
            "time": 88.090821,
            "velocity": 0.4881889763779528
          },
          {
            "duration": 0.13636349999998743,
            "durationTicks": 96,
            "midi": 85,
            "name": "C#6",
            "ticks": 62016,
            "time": 88.090821,
            "velocity": 0.4881889763779528
          },
          {
            "duration": 0.13636349999998743,
            "durationTicks": 96,
            "midi": 85,
            "name": "C#6",
            "ticks": 62016,
            "time": 88.090821,
            "velocity": 0.4881889763779528
          },
          {
            "duration": 0.13636349999998743,
            "durationTicks": 96,
            "midi": 80,
            "name": "G#5",
            "ticks": 62016,
            "time": 88.090821,
            "velocity": 0.4881889763779528
          },
          {
            "duration": 0.13636349999998743,
            "durationTicks": 96,
            "midi": 80,
            "name": "G#5",
            "ticks": 62016,
            "time": 88.090821,
            "velocity": 0.4881889763779528
          },
          {
            "duration": 0.13636349999998743,
            "durationTicks": 96,
            "midi": 80,
            "name": "G#5",
            "ticks": 62016,
            "time": 88.090821,
            "velocity": 0.4881889763779528
          },
          {
            "duration": 0.13636349999998743,
            "durationTicks": 96,
            "midi": 80,
            "name": "G#5",
            "ticks": 62016,
            "time": 88.090821,
            "velocity": 0.4881889763779528
          },
          {
            "duration": 0.13636349999998743,
            "durationTicks": 96,
            "midi": 80,
            "name": "G#5",
            "ticks": 62016,
            "time": 88.090821,
            "velocity": 0.4881889763779528
          },
          {
            "duration": 0.13636350000000164,
            "durationTicks": 96,
            "midi": 80,
            "name": "G#5",
            "ticks": 62112,
            "time": 88.22718449999999,
            "velocity": 0.4881889763779528
          },
          {
            "duration": 0.13636350000000164,
            "durationTicks": 96,
            "midi": 85,
            "name": "C#6",
            "ticks": 62112,
            "time": 88.22718449999999,
            "velocity": 0.4881889763779528
          },
          {
            "duration": 0.13636350000000164,
            "durationTicks": 96,
            "midi": 80,
            "name": "G#5",
            "ticks": 62112,
            "time": 88.22718449999999,
            "velocity": 0.4881889763779528
          },
          {
            "duration": 0.13636350000000164,
            "durationTicks": 96,
            "midi": 85,
            "name": "C#6",
            "ticks": 62112,
            "time": 88.22718449999999,
            "velocity": 0.4881889763779528
          },
          {
            "duration": 0.13636350000000164,
            "durationTicks": 96,
            "midi": 85,
            "name": "C#6",
            "ticks": 62112,
            "time": 88.22718449999999,
            "velocity": 0.4881889763779528
          },
          {
            "duration": 0.13636350000000164,
            "durationTicks": 96,
            "midi": 80,
            "name": "G#5",
            "ticks": 62112,
            "time": 88.22718449999999,
            "velocity": 0.4881889763779528
          },
          {
            "duration": 0.13636350000000164,
            "durationTicks": 96,
            "midi": 85,
            "name": "C#6",
            "ticks": 62112,
            "time": 88.22718449999999,
            "velocity": 0.4881889763779528
          },
          {
            "duration": 0.13636350000000164,
            "durationTicks": 96,
            "midi": 85,
            "name": "C#6",
            "ticks": 62112,
            "time": 88.22718449999999,
            "velocity": 0.4881889763779528
          },
          {
            "duration": 0.13636350000000164,
            "durationTicks": 96,
            "midi": 85,
            "name": "C#6",
            "ticks": 62112,
            "time": 88.22718449999999,
            "velocity": 0.4881889763779528
          },
          {
            "duration": 0.13636350000000164,
            "durationTicks": 96,
            "midi": 80,
            "name": "G#5",
            "ticks": 62112,
            "time": 88.22718449999999,
            "velocity": 0.4881889763779528
          },
          {
            "duration": 0.13636350000000164,
            "durationTicks": 96,
            "midi": 80,
            "name": "G#5",
            "ticks": 62112,
            "time": 88.22718449999999,
            "velocity": 0.4881889763779528
          },
          {
            "duration": 0.13636350000000164,
            "durationTicks": 96,
            "midi": 80,
            "name": "G#5",
            "ticks": 62112,
            "time": 88.22718449999999,
            "velocity": 0.4881889763779528
          },
          {
            "duration": 0.2727270000000033,
            "durationTicks": 192,
            "midi": 78,
            "name": "F#5",
            "ticks": 62208,
            "time": 88.363548,
            "velocity": 0.4881889763779528
          },
          {
            "duration": 0.5454540000000065,
            "durationTicks": 384,
            "midi": 47,
            "name": "B2",
            "ticks": 62208,
            "time": 88.363548,
            "velocity": 0.4881889763779528
          },
          {
            "duration": 0.5454540000000065,
            "durationTicks": 384,
            "midi": 47,
            "name": "B2",
            "ticks": 62208,
            "time": 88.363548,
            "velocity": 0.4881889763779528
          },
          {
            "duration": 0.5454540000000065,
            "durationTicks": 384,
            "midi": 47,
            "name": "B2",
            "ticks": 62208,
            "time": 88.363548,
            "velocity": 0.4881889763779528
          },
          {
            "duration": 0.5454540000000065,
            "durationTicks": 384,
            "midi": 59,
            "name": "B3",
            "ticks": 62208,
            "time": 88.363548,
            "velocity": 0.4881889763779528
          },
          {
            "duration": 0.2727270000000033,
            "durationTicks": 192,
            "midi": 78,
            "name": "F#5",
            "ticks": 62208,
            "time": 88.363548,
            "velocity": 0.4881889763779528
          },
          {
            "duration": 0.2727270000000033,
            "durationTicks": 192,
            "midi": 83,
            "name": "B5",
            "ticks": 62208,
            "time": 88.363548,
            "velocity": 0.4881889763779528
          },
          {
            "duration": 0.2727270000000033,
            "durationTicks": 192,
            "midi": 83,
            "name": "B5",
            "ticks": 62208,
            "time": 88.363548,
            "velocity": 0.4881889763779528
          },
          {
            "duration": 0.5454540000000065,
            "durationTicks": 384,
            "midi": 59,
            "name": "B3",
            "ticks": 62208,
            "time": 88.363548,
            "velocity": 0.4881889763779528
          },
          {
            "duration": 0.5454540000000065,
            "durationTicks": 384,
            "midi": 59,
            "name": "B3",
            "ticks": 62208,
            "time": 88.363548,
            "velocity": 0.4881889763779528
          },
          {
            "duration": 0.5454540000000065,
            "durationTicks": 384,
            "midi": 47,
            "name": "B2",
            "ticks": 62208,
            "time": 88.363548,
            "velocity": 0.4881889763779528
          },
          {
            "duration": 0.2727270000000033,
            "durationTicks": 192,
            "midi": 78,
            "name": "F#5",
            "ticks": 62208,
            "time": 88.363548,
            "velocity": 0.4881889763779528
          },
          {
            "duration": 0.5454540000000065,
            "durationTicks": 384,
            "midi": 47,
            "name": "B2",
            "ticks": 62208,
            "time": 88.363548,
            "velocity": 0.4881889763779528
          },
          {
            "duration": 0.2727270000000033,
            "durationTicks": 192,
            "midi": 83,
            "name": "B5",
            "ticks": 62208,
            "time": 88.363548,
            "velocity": 0.4881889763779528
          },
          {
            "duration": 0.5454540000000065,
            "durationTicks": 384,
            "midi": 59,
            "name": "B3",
            "ticks": 62208,
            "time": 88.363548,
            "velocity": 0.4881889763779528
          },
          {
            "duration": 0.2727270000000033,
            "durationTicks": 192,
            "midi": 78,
            "name": "F#5",
            "ticks": 62208,
            "time": 88.363548,
            "velocity": 0.4881889763779528
          },
          {
            "duration": 0.2727270000000033,
            "durationTicks": 192,
            "midi": 83,
            "name": "B5",
            "ticks": 62208,
            "time": 88.363548,
            "velocity": 0.4881889763779528
          },
          {
            "duration": 0.2727270000000033,
            "durationTicks": 192,
            "midi": 78,
            "name": "F#5",
            "ticks": 62208,
            "time": 88.363548,
            "velocity": 0.4881889763779528
          },
          {
            "duration": 0.5454540000000065,
            "durationTicks": 384,
            "midi": 47,
            "name": "B2",
            "ticks": 62208,
            "time": 88.363548,
            "velocity": 0.4881889763779528
          },
          {
            "duration": 0.2727270000000033,
            "durationTicks": 192,
            "midi": 83,
            "name": "B5",
            "ticks": 62208,
            "time": 88.363548,
            "velocity": 0.4881889763779528
          },
          {
            "duration": 0.2727270000000033,
            "durationTicks": 192,
            "midi": 83,
            "name": "B5",
            "ticks": 62208,
            "time": 88.363548,
            "velocity": 0.4881889763779528
          },
          {
            "duration": 0.5454540000000065,
            "durationTicks": 384,
            "midi": 59,
            "name": "B3",
            "ticks": 62208,
            "time": 88.363548,
            "velocity": 0.4881889763779528
          },
          {
            "duration": 0.2727270000000033,
            "durationTicks": 192,
            "midi": 78,
            "name": "F#5",
            "ticks": 62208,
            "time": 88.363548,
            "velocity": 0.4881889763779528
          },
          {
            "duration": 0.5454540000000065,
            "durationTicks": 384,
            "midi": 59,
            "name": "B3",
            "ticks": 62208,
            "time": 88.363548,
            "velocity": 0.4881889763779528
          },
          {
            "duration": 0.2727270000000033,
            "durationTicks": 192,
            "midi": 88,
            "name": "E6",
            "ticks": 62400,
            "time": 88.636275,
            "velocity": 0.4881889763779528
          },
          {
            "duration": 0.2727270000000033,
            "durationTicks": 192,
            "midi": 88,
            "name": "E6",
            "ticks": 62400,
            "time": 88.636275,
            "velocity": 0.4881889763779528
          },
          {
            "duration": 0.2727270000000033,
            "durationTicks": 192,
            "midi": 83,
            "name": "B5",
            "ticks": 62400,
            "time": 88.636275,
            "velocity": 0.4881889763779528
          },
          {
            "duration": 0.2727270000000033,
            "durationTicks": 192,
            "midi": 88,
            "name": "E6",
            "ticks": 62400,
            "time": 88.636275,
            "velocity": 0.4881889763779528
          },
          {
            "duration": 0.2727270000000033,
            "durationTicks": 192,
            "midi": 88,
            "name": "E6",
            "ticks": 62400,
            "time": 88.636275,
            "velocity": 0.4881889763779528
          },
          {
            "duration": 0.2727270000000033,
            "durationTicks": 192,
            "midi": 88,
            "name": "E6",
            "ticks": 62400,
            "time": 88.636275,
            "velocity": 0.4881889763779528
          },
          {
            "duration": 0.2727270000000033,
            "durationTicks": 192,
            "midi": 83,
            "name": "B5",
            "ticks": 62400,
            "time": 88.636275,
            "velocity": 0.4881889763779528
          },
          {
            "duration": 0.2727270000000033,
            "durationTicks": 192,
            "midi": 88,
            "name": "E6",
            "ticks": 62400,
            "time": 88.636275,
            "velocity": 0.4881889763779528
          },
          {
            "duration": 0.2727270000000033,
            "durationTicks": 192,
            "midi": 83,
            "name": "B5",
            "ticks": 62400,
            "time": 88.636275,
            "velocity": 0.4881889763779528
          },
          {
            "duration": 0.2727270000000033,
            "durationTicks": 192,
            "midi": 83,
            "name": "B5",
            "ticks": 62400,
            "time": 88.636275,
            "velocity": 0.4881889763779528
          },
          {
            "duration": 0.2727270000000033,
            "durationTicks": 192,
            "midi": 83,
            "name": "B5",
            "ticks": 62400,
            "time": 88.636275,
            "velocity": 0.4881889763779528
          },
          {
            "duration": 0.2727270000000033,
            "durationTicks": 192,
            "midi": 83,
            "name": "B5",
            "ticks": 62400,
            "time": 88.636275,
            "velocity": 0.4881889763779528
          },
          {
            "duration": 0.2727270000000033,
            "durationTicks": 192,
            "midi": 80,
            "name": "G#5",
            "ticks": 62592,
            "time": 88.909002,
            "velocity": 0.4881889763779528
          },
          {
            "duration": 0.2727270000000033,
            "durationTicks": 192,
            "midi": 76,
            "name": "E5",
            "ticks": 62592,
            "time": 88.909002,
            "velocity": 0.4881889763779528
          },
          {
            "duration": 0.5454539999999923,
            "durationTicks": 384,
            "midi": 68,
            "name": "G#4",
            "ticks": 62592,
            "time": 88.909002,
            "velocity": 0.4881889763779528
          },
          {
            "duration": 0.2727270000000033,
            "durationTicks": 192,
            "midi": 76,
            "name": "E5",
            "ticks": 62592,
            "time": 88.909002,
            "velocity": 0.4881889763779528
          },
          {
            "duration": 0.2727270000000033,
            "durationTicks": 192,
            "midi": 76,
            "name": "E5",
            "ticks": 62592,
            "time": 88.909002,
            "velocity": 0.4881889763779528
          },
          {
            "duration": 0.5454539999999923,
            "durationTicks": 384,
            "midi": 64,
            "name": "E4",
            "ticks": 62592,
            "time": 88.909002,
            "velocity": 0.4881889763779528
          },
          {
            "duration": 0.5454539999999923,
            "durationTicks": 384,
            "midi": 71,
            "name": "B4",
            "ticks": 62592,
            "time": 88.909002,
            "velocity": 0.4881889763779528
          },
          {
            "duration": 0.5454539999999923,
            "durationTicks": 384,
            "midi": 71,
            "name": "B4",
            "ticks": 62592,
            "time": 88.909002,
            "velocity": 0.4881889763779528
          },
          {
            "duration": 0.5454539999999923,
            "durationTicks": 384,
            "midi": 68,
            "name": "G#4",
            "ticks": 62592,
            "time": 88.909002,
            "velocity": 0.4881889763779528
          },
          {
            "duration": 0.5454539999999923,
            "durationTicks": 384,
            "midi": 68,
            "name": "G#4",
            "ticks": 62592,
            "time": 88.909002,
            "velocity": 0.4881889763779528
          },
          {
            "duration": 0.5454539999999923,
            "durationTicks": 384,
            "midi": 71,
            "name": "B4",
            "ticks": 62592,
            "time": 88.909002,
            "velocity": 0.4881889763779528
          },
          {
            "duration": 0.5454539999999923,
            "durationTicks": 384,
            "midi": 71,
            "name": "B4",
            "ticks": 62592,
            "time": 88.909002,
            "velocity": 0.4881889763779528
          },
          {
            "duration": 0.2727270000000033,
            "durationTicks": 192,
            "midi": 80,
            "name": "G#5",
            "ticks": 62592,
            "time": 88.909002,
            "velocity": 0.4881889763779528
          },
          {
            "duration": 0.5454539999999923,
            "durationTicks": 384,
            "midi": 64,
            "name": "E4",
            "ticks": 62592,
            "time": 88.909002,
            "velocity": 0.4881889763779528
          },
          {
            "duration": 0.5454539999999923,
            "durationTicks": 384,
            "midi": 64,
            "name": "E4",
            "ticks": 62592,
            "time": 88.909002,
            "velocity": 0.4881889763779528
          },
          {
            "duration": 0.5454539999999923,
            "durationTicks": 384,
            "midi": 68,
            "name": "G#4",
            "ticks": 62592,
            "time": 88.909002,
            "velocity": 0.4881889763779528
          },
          {
            "duration": 0.5454539999999923,
            "durationTicks": 384,
            "midi": 64,
            "name": "E4",
            "ticks": 62592,
            "time": 88.909002,
            "velocity": 0.4881889763779528
          },
          {
            "duration": 0.2727270000000033,
            "durationTicks": 192,
            "midi": 80,
            "name": "G#5",
            "ticks": 62592,
            "time": 88.909002,
            "velocity": 0.4881889763779528
          },
          {
            "duration": 0.2727270000000033,
            "durationTicks": 192,
            "midi": 80,
            "name": "G#5",
            "ticks": 62592,
            "time": 88.909002,
            "velocity": 0.4881889763779528
          },
          {
            "duration": 0.2727270000000033,
            "durationTicks": 192,
            "midi": 76,
            "name": "E5",
            "ticks": 62592,
            "time": 88.909002,
            "velocity": 0.4881889763779528
          },
          {
            "duration": 0.2727270000000033,
            "durationTicks": 192,
            "midi": 76,
            "name": "E5",
            "ticks": 62592,
            "time": 88.909002,
            "velocity": 0.4881889763779528
          },
          {
            "duration": 0.5454539999999923,
            "durationTicks": 384,
            "midi": 71,
            "name": "B4",
            "ticks": 62592,
            "time": 88.909002,
            "velocity": 0.4881889763779528
          },
          {
            "duration": 0.5454539999999923,
            "durationTicks": 384,
            "midi": 71,
            "name": "B4",
            "ticks": 62592,
            "time": 88.909002,
            "velocity": 0.4881889763779528
          },
          {
            "duration": 0.2727270000000033,
            "durationTicks": 192,
            "midi": 80,
            "name": "G#5",
            "ticks": 62592,
            "time": 88.909002,
            "velocity": 0.4881889763779528
          },
          {
            "duration": 0.5454539999999923,
            "durationTicks": 384,
            "midi": 64,
            "name": "E4",
            "ticks": 62592,
            "time": 88.909002,
            "velocity": 0.4881889763779528
          },
          {
            "duration": 0.2727270000000033,
            "durationTicks": 192,
            "midi": 80,
            "name": "G#5",
            "ticks": 62592,
            "time": 88.909002,
            "velocity": 0.4881889763779528
          },
          {
            "duration": 0.5454539999999923,
            "durationTicks": 384,
            "midi": 68,
            "name": "G#4",
            "ticks": 62592,
            "time": 88.909002,
            "velocity": 0.4881889763779528
          },
          {
            "duration": 0.2727270000000033,
            "durationTicks": 192,
            "midi": 76,
            "name": "E5",
            "ticks": 62592,
            "time": 88.909002,
            "velocity": 0.4881889763779528
          },
          {
            "duration": 0.5454539999999923,
            "durationTicks": 384,
            "midi": 68,
            "name": "G#4",
            "ticks": 62592,
            "time": 88.909002,
            "velocity": 0.4881889763779528
          },
          {
            "duration": 0.5454539999999923,
            "durationTicks": 384,
            "midi": 64,
            "name": "E4",
            "ticks": 62592,
            "time": 88.909002,
            "velocity": 0.4881889763779528
          },
          {
            "duration": 0.13636350000000164,
            "durationTicks": 96,
            "midi": 83,
            "name": "B5",
            "ticks": 62784,
            "time": 89.181729,
            "velocity": 0.4881889763779528
          },
          {
            "duration": 0.13636350000000164,
            "durationTicks": 96,
            "midi": 83,
            "name": "B5",
            "ticks": 62784,
            "time": 89.181729,
            "velocity": 0.4881889763779528
          },
          {
            "duration": 0.13636350000000164,
            "durationTicks": 96,
            "midi": 83,
            "name": "B5",
            "ticks": 62784,
            "time": 89.181729,
            "velocity": 0.4881889763779528
          },
          {
            "duration": 0.13636350000000164,
            "durationTicks": 96,
            "midi": 80,
            "name": "G#5",
            "ticks": 62784,
            "time": 89.181729,
            "velocity": 0.4881889763779528
          },
          {
            "duration": 0.13636350000000164,
            "durationTicks": 96,
            "midi": 83,
            "name": "B5",
            "ticks": 62784,
            "time": 89.181729,
            "velocity": 0.4881889763779528
          },
          {
            "duration": 0.13636350000000164,
            "durationTicks": 96,
            "midi": 83,
            "name": "B5",
            "ticks": 62784,
            "time": 89.181729,
            "velocity": 0.4881889763779528
          },
          {
            "duration": 0.13636350000000164,
            "durationTicks": 96,
            "midi": 80,
            "name": "G#5",
            "ticks": 62784,
            "time": 89.181729,
            "velocity": 0.4881889763779528
          },
          {
            "duration": 0.13636350000000164,
            "durationTicks": 96,
            "midi": 80,
            "name": "G#5",
            "ticks": 62784,
            "time": 89.181729,
            "velocity": 0.4881889763779528
          },
          {
            "duration": 0.13636350000000164,
            "durationTicks": 96,
            "midi": 83,
            "name": "B5",
            "ticks": 62784,
            "time": 89.181729,
            "velocity": 0.4881889763779528
          },
          {
            "duration": 0.13636350000000164,
            "durationTicks": 96,
            "midi": 80,
            "name": "G#5",
            "ticks": 62784,
            "time": 89.181729,
            "velocity": 0.4881889763779528
          },
          {
            "duration": 0.13636350000000164,
            "durationTicks": 96,
            "midi": 80,
            "name": "G#5",
            "ticks": 62784,
            "time": 89.181729,
            "velocity": 0.4881889763779528
          },
          {
            "duration": 0.13636350000000164,
            "durationTicks": 96,
            "midi": 80,
            "name": "G#5",
            "ticks": 62784,
            "time": 89.181729,
            "velocity": 0.4881889763779528
          },
          {
            "duration": 0.13636349999998743,
            "durationTicks": 96,
            "midi": 85,
            "name": "C#6",
            "ticks": 62880,
            "time": 89.3180925,
            "velocity": 0.4881889763779528
          },
          {
            "duration": 0.13636349999998743,
            "durationTicks": 96,
            "midi": 81,
            "name": "A5",
            "ticks": 62880,
            "time": 89.3180925,
            "velocity": 0.4881889763779528
          },
          {
            "duration": 0.13636349999998743,
            "durationTicks": 96,
            "midi": 85,
            "name": "C#6",
            "ticks": 62880,
            "time": 89.3180925,
            "velocity": 0.4881889763779528
          },
          {
            "duration": 0.13636349999998743,
            "durationTicks": 96,
            "midi": 81,
            "name": "A5",
            "ticks": 62880,
            "time": 89.3180925,
            "velocity": 0.4881889763779528
          },
          {
            "duration": 0.13636349999998743,
            "durationTicks": 96,
            "midi": 85,
            "name": "C#6",
            "ticks": 62880,
            "time": 89.3180925,
            "velocity": 0.4881889763779528
          },
          {
            "duration": 0.13636349999998743,
            "durationTicks": 96,
            "midi": 81,
            "name": "A5",
            "ticks": 62880,
            "time": 89.3180925,
            "velocity": 0.4881889763779528
          },
          {
            "duration": 0.13636349999998743,
            "durationTicks": 96,
            "midi": 85,
            "name": "C#6",
            "ticks": 62880,
            "time": 89.3180925,
            "velocity": 0.4881889763779528
          },
          {
            "duration": 0.13636349999998743,
            "durationTicks": 96,
            "midi": 81,
            "name": "A5",
            "ticks": 62880,
            "time": 89.3180925,
            "velocity": 0.4881889763779528
          },
          {
            "duration": 0.13636349999998743,
            "durationTicks": 96,
            "midi": 85,
            "name": "C#6",
            "ticks": 62880,
            "time": 89.3180925,
            "velocity": 0.4881889763779528
          },
          {
            "duration": 0.13636349999998743,
            "durationTicks": 96,
            "midi": 81,
            "name": "A5",
            "ticks": 62880,
            "time": 89.3180925,
            "velocity": 0.4881889763779528
          },
          {
            "duration": 0.13636349999998743,
            "durationTicks": 96,
            "midi": 85,
            "name": "C#6",
            "ticks": 62880,
            "time": 89.3180925,
            "velocity": 0.4881889763779528
          },
          {
            "duration": 0.13636349999998743,
            "durationTicks": 96,
            "midi": 81,
            "name": "A5",
            "ticks": 62880,
            "time": 89.3180925,
            "velocity": 0.4881889763779528
          },
          {
            "duration": 0.2727270000000033,
            "durationTicks": 192,
            "midi": 80,
            "name": "G#5",
            "ticks": 62976,
            "time": 89.454456,
            "velocity": 0.4881889763779528
          },
          {
            "duration": 0.2727270000000033,
            "durationTicks": 192,
            "midi": 83,
            "name": "B5",
            "ticks": 62976,
            "time": 89.454456,
            "velocity": 0.4881889763779528
          },
          {
            "duration": 0.5454540000000065,
            "durationTicks": 384,
            "midi": 57,
            "name": "A3",
            "ticks": 62976,
            "time": 89.454456,
            "velocity": 0.4881889763779528
          },
          {
            "duration": 0.2727270000000033,
            "durationTicks": 192,
            "midi": 83,
            "name": "B5",
            "ticks": 62976,
            "time": 89.454456,
            "velocity": 0.4881889763779528
          },
          {
            "duration": 0.2727270000000033,
            "durationTicks": 192,
            "midi": 80,
            "name": "G#5",
            "ticks": 62976,
            "time": 89.454456,
            "velocity": 0.4881889763779528
          },
          {
            "duration": 0.5454540000000065,
            "durationTicks": 384,
            "midi": 57,
            "name": "A3",
            "ticks": 62976,
            "time": 89.454456,
            "velocity": 0.4881889763779528
          },
          {
            "duration": 0.2727270000000033,
            "durationTicks": 192,
            "midi": 80,
            "name": "G#5",
            "ticks": 62976,
            "time": 89.454456,
            "velocity": 0.4881889763779528
          },
          {
            "duration": 0.5454540000000065,
            "durationTicks": 384,
            "midi": 45,
            "name": "A2",
            "ticks": 62976,
            "time": 89.454456,
            "velocity": 0.4881889763779528
          },
          {
            "duration": 0.2727270000000033,
            "durationTicks": 192,
            "midi": 83,
            "name": "B5",
            "ticks": 62976,
            "time": 89.454456,
            "velocity": 0.4881889763779528
          },
          {
            "duration": 0.5454540000000065,
            "durationTicks": 384,
            "midi": 57,
            "name": "A3",
            "ticks": 62976,
            "time": 89.454456,
            "velocity": 0.4881889763779528
          },
          {
            "duration": 0.5454540000000065,
            "durationTicks": 384,
            "midi": 45,
            "name": "A2",
            "ticks": 62976,
            "time": 89.454456,
            "velocity": 0.4881889763779528
          },
          {
            "duration": 0.5454540000000065,
            "durationTicks": 384,
            "midi": 45,
            "name": "A2",
            "ticks": 62976,
            "time": 89.454456,
            "velocity": 0.4881889763779528
          },
          {
            "duration": 0.5454540000000065,
            "durationTicks": 384,
            "midi": 57,
            "name": "A3",
            "ticks": 62976,
            "time": 89.454456,
            "velocity": 0.4881889763779528
          },
          {
            "duration": 0.5454540000000065,
            "durationTicks": 384,
            "midi": 45,
            "name": "A2",
            "ticks": 62976,
            "time": 89.454456,
            "velocity": 0.4881889763779528
          },
          {
            "duration": 0.5454540000000065,
            "durationTicks": 384,
            "midi": 45,
            "name": "A2",
            "ticks": 62976,
            "time": 89.454456,
            "velocity": 0.4881889763779528
          },
          {
            "duration": 0.2727270000000033,
            "durationTicks": 192,
            "midi": 80,
            "name": "G#5",
            "ticks": 62976,
            "time": 89.454456,
            "velocity": 0.4881889763779528
          },
          {
            "duration": 0.2727270000000033,
            "durationTicks": 192,
            "midi": 80,
            "name": "G#5",
            "ticks": 62976,
            "time": 89.454456,
            "velocity": 0.4881889763779528
          },
          {
            "duration": 0.2727270000000033,
            "durationTicks": 192,
            "midi": 80,
            "name": "G#5",
            "ticks": 62976,
            "time": 89.454456,
            "velocity": 0.4881889763779528
          },
          {
            "duration": 0.2727270000000033,
            "durationTicks": 192,
            "midi": 83,
            "name": "B5",
            "ticks": 62976,
            "time": 89.454456,
            "velocity": 0.4881889763779528
          },
          {
            "duration": 0.5454540000000065,
            "durationTicks": 384,
            "midi": 45,
            "name": "A2",
            "ticks": 62976,
            "time": 89.454456,
            "velocity": 0.4881889763779528
          },
          {
            "duration": 0.2727270000000033,
            "durationTicks": 192,
            "midi": 83,
            "name": "B5",
            "ticks": 62976,
            "time": 89.454456,
            "velocity": 0.4881889763779528
          },
          {
            "duration": 0.5454540000000065,
            "durationTicks": 384,
            "midi": 57,
            "name": "A3",
            "ticks": 62976,
            "time": 89.454456,
            "velocity": 0.4881889763779528
          },
          {
            "duration": 0.2727270000000033,
            "durationTicks": 192,
            "midi": 83,
            "name": "B5",
            "ticks": 62976,
            "time": 89.454456,
            "velocity": 0.4881889763779528
          },
          {
            "duration": 0.5454540000000065,
            "durationTicks": 384,
            "midi": 57,
            "name": "A3",
            "ticks": 62976,
            "time": 89.454456,
            "velocity": 0.4881889763779528
          },
          {
            "duration": 0.2727270000000033,
            "durationTicks": 192,
            "midi": 81,
            "name": "A5",
            "ticks": 63168,
            "time": 89.727183,
            "velocity": 0.4881889763779528
          },
          {
            "duration": 0.2727270000000033,
            "durationTicks": 192,
            "midi": 73,
            "name": "C#5",
            "ticks": 63168,
            "time": 89.727183,
            "velocity": 0.4881889763779528
          },
          {
            "duration": 0.2727270000000033,
            "durationTicks": 192,
            "midi": 81,
            "name": "A5",
            "ticks": 63168,
            "time": 89.727183,
            "velocity": 0.4881889763779528
          },
          {
            "duration": 0.2727270000000033,
            "durationTicks": 192,
            "midi": 81,
            "name": "A5",
            "ticks": 63168,
            "time": 89.727183,
            "velocity": 0.4881889763779528
          },
          {
            "duration": 0.2727270000000033,
            "durationTicks": 192,
            "midi": 73,
            "name": "C#5",
            "ticks": 63168,
            "time": 89.727183,
            "velocity": 0.4881889763779528
          },
          {
            "duration": 0.2727270000000033,
            "durationTicks": 192,
            "midi": 81,
            "name": "A5",
            "ticks": 63168,
            "time": 89.727183,
            "velocity": 0.4881889763779528
          },
          {
            "duration": 0.2727270000000033,
            "durationTicks": 192,
            "midi": 73,
            "name": "C#5",
            "ticks": 63168,
            "time": 89.727183,
            "velocity": 0.4881889763779528
          },
          {
            "duration": 0.2727270000000033,
            "durationTicks": 192,
            "midi": 73,
            "name": "C#5",
            "ticks": 63168,
            "time": 89.727183,
            "velocity": 0.4881889763779528
          },
          {
            "duration": 0.2727270000000033,
            "durationTicks": 192,
            "midi": 73,
            "name": "C#5",
            "ticks": 63168,
            "time": 89.727183,
            "velocity": 0.4881889763779528
          },
          {
            "duration": 0.2727270000000033,
            "durationTicks": 192,
            "midi": 81,
            "name": "A5",
            "ticks": 63168,
            "time": 89.727183,
            "velocity": 0.4881889763779528
          },
          {
            "duration": 0.2727270000000033,
            "durationTicks": 192,
            "midi": 81,
            "name": "A5",
            "ticks": 63168,
            "time": 89.727183,
            "velocity": 0.4881889763779528
          },
          {
            "duration": 0.2727270000000033,
            "durationTicks": 192,
            "midi": 73,
            "name": "C#5",
            "ticks": 63168,
            "time": 89.727183,
            "velocity": 0.4881889763779528
          },
          {
            "duration": 0.2727270000000033,
            "durationTicks": 192,
            "midi": 80,
            "name": "G#5",
            "ticks": 63360,
            "time": 89.99991,
            "velocity": 0.4881889763779528
          },
          {
            "duration": 0.5454539999999923,
            "durationTicks": 384,
            "midi": 69,
            "name": "A4",
            "ticks": 63360,
            "time": 89.99991,
            "velocity": 0.4881889763779528
          },
          {
            "duration": 0.2727270000000033,
            "durationTicks": 192,
            "midi": 71,
            "name": "B4",
            "ticks": 63360,
            "time": 89.99991,
            "velocity": 0.4881889763779528
          },
          {
            "duration": 0.5454539999999923,
            "durationTicks": 384,
            "midi": 64,
            "name": "E4",
            "ticks": 63360,
            "time": 89.99991,
            "velocity": 0.4881889763779528
          },
          {
            "duration": 0.2727270000000033,
            "durationTicks": 192,
            "midi": 71,
            "name": "B4",
            "ticks": 63360,
            "time": 89.99991,
            "velocity": 0.4881889763779528
          },
          {
            "duration": 0.2727270000000033,
            "durationTicks": 192,
            "midi": 71,
            "name": "B4",
            "ticks": 63360,
            "time": 89.99991,
            "velocity": 0.4881889763779528
          },
          {
            "duration": 0.5454539999999923,
            "durationTicks": 384,
            "midi": 61,
            "name": "C#4",
            "ticks": 63360,
            "time": 89.99991,
            "velocity": 0.4881889763779528
          },
          {
            "duration": 0.2727270000000033,
            "durationTicks": 192,
            "midi": 71,
            "name": "B4",
            "ticks": 63360,
            "time": 89.99991,
            "velocity": 0.4881889763779528
          },
          {
            "duration": 0.5454539999999923,
            "durationTicks": 384,
            "midi": 69,
            "name": "A4",
            "ticks": 63360,
            "time": 89.99991,
            "velocity": 0.4881889763779528
          },
          {
            "duration": 0.5454539999999923,
            "durationTicks": 384,
            "midi": 61,
            "name": "C#4",
            "ticks": 63360,
            "time": 89.99991,
            "velocity": 0.4881889763779528
          },
          {
            "duration": 0.5454539999999923,
            "durationTicks": 384,
            "midi": 61,
            "name": "C#4",
            "ticks": 63360,
            "time": 89.99991,
            "velocity": 0.4881889763779528
          },
          {
            "duration": 0.5454539999999923,
            "durationTicks": 384,
            "midi": 64,
            "name": "E4",
            "ticks": 63360,
            "time": 89.99991,
            "velocity": 0.4881889763779528
          },
          {
            "duration": 0.5454539999999923,
            "durationTicks": 384,
            "midi": 64,
            "name": "E4",
            "ticks": 63360,
            "time": 89.99991,
            "velocity": 0.4881889763779528
          },
          {
            "duration": 0.5454539999999923,
            "durationTicks": 384,
            "midi": 64,
            "name": "E4",
            "ticks": 63360,
            "time": 89.99991,
            "velocity": 0.4881889763779528
          },
          {
            "duration": 0.2727270000000033,
            "durationTicks": 192,
            "midi": 80,
            "name": "G#5",
            "ticks": 63360,
            "time": 89.99991,
            "velocity": 0.4881889763779528
          },
          {
            "duration": 0.5454539999999923,
            "durationTicks": 384,
            "midi": 69,
            "name": "A4",
            "ticks": 63360,
            "time": 89.99991,
            "velocity": 0.4881889763779528
          },
          {
            "duration": 0.5454539999999923,
            "durationTicks": 384,
            "midi": 61,
            "name": "C#4",
            "ticks": 63360,
            "time": 89.99991,
            "velocity": 0.4881889763779528
          },
          {
            "duration": 0.5454539999999923,
            "durationTicks": 384,
            "midi": 61,
            "name": "C#4",
            "ticks": 63360,
            "time": 89.99991,
            "velocity": 0.4881889763779528
          },
          {
            "duration": 0.5454539999999923,
            "durationTicks": 384,
            "midi": 64,
            "name": "E4",
            "ticks": 63360,
            "time": 89.99991,
            "velocity": 0.4881889763779528
          },
          {
            "duration": 0.2727270000000033,
            "durationTicks": 192,
            "midi": 80,
            "name": "G#5",
            "ticks": 63360,
            "time": 89.99991,
            "velocity": 0.4881889763779528
          },
          {
            "duration": 0.5454539999999923,
            "durationTicks": 384,
            "midi": 69,
            "name": "A4",
            "ticks": 63360,
            "time": 89.99991,
            "velocity": 0.4881889763779528
          },
          {
            "duration": 0.2727270000000033,
            "durationTicks": 192,
            "midi": 71,
            "name": "B4",
            "ticks": 63360,
            "time": 89.99991,
            "velocity": 0.4881889763779528
          },
          {
            "duration": 0.2727270000000033,
            "durationTicks": 192,
            "midi": 80,
            "name": "G#5",
            "ticks": 63360,
            "time": 89.99991,
            "velocity": 0.4881889763779528
          },
          {
            "duration": 0.5454539999999923,
            "durationTicks": 384,
            "midi": 69,
            "name": "A4",
            "ticks": 63360,
            "time": 89.99991,
            "velocity": 0.4881889763779528
          },
          {
            "duration": 0.2727270000000033,
            "durationTicks": 192,
            "midi": 80,
            "name": "G#5",
            "ticks": 63360,
            "time": 89.99991,
            "velocity": 0.4881889763779528
          },
          {
            "duration": 0.5454539999999923,
            "durationTicks": 384,
            "midi": 64,
            "name": "E4",
            "ticks": 63360,
            "time": 89.99991,
            "velocity": 0.4881889763779528
          },
          {
            "duration": 0.2727270000000033,
            "durationTicks": 192,
            "midi": 80,
            "name": "G#5",
            "ticks": 63360,
            "time": 89.99991,
            "velocity": 0.4881889763779528
          },
          {
            "duration": 0.5454539999999923,
            "durationTicks": 384,
            "midi": 61,
            "name": "C#4",
            "ticks": 63360,
            "time": 89.99991,
            "velocity": 0.4881889763779528
          },
          {
            "duration": 0.5454539999999923,
            "durationTicks": 384,
            "midi": 69,
            "name": "A4",
            "ticks": 63360,
            "time": 89.99991,
            "velocity": 0.4881889763779528
          },
          {
            "duration": 0.2727270000000033,
            "durationTicks": 192,
            "midi": 71,
            "name": "B4",
            "ticks": 63360,
            "time": 89.99991,
            "velocity": 0.4881889763779528
          },
          {
            "duration": 0.27272699999998906,
            "durationTicks": 192,
            "midi": 78,
            "name": "F#5",
            "ticks": 63552,
            "time": 90.272637,
            "velocity": 0.4881889763779528
          },
          {
            "duration": 0.27272699999998906,
            "durationTicks": 192,
            "midi": 69,
            "name": "A4",
            "ticks": 63552,
            "time": 90.272637,
            "velocity": 0.4881889763779528
          },
          {
            "duration": 0.27272699999998906,
            "durationTicks": 192,
            "midi": 78,
            "name": "F#5",
            "ticks": 63552,
            "time": 90.272637,
            "velocity": 0.4881889763779528
          },
          {
            "duration": 0.27272699999998906,
            "durationTicks": 192,
            "midi": 69,
            "name": "A4",
            "ticks": 63552,
            "time": 90.272637,
            "velocity": 0.4881889763779528
          },
          {
            "duration": 0.27272699999998906,
            "durationTicks": 192,
            "midi": 78,
            "name": "F#5",
            "ticks": 63552,
            "time": 90.272637,
            "velocity": 0.4881889763779528
          },
          {
            "duration": 0.27272699999998906,
            "durationTicks": 192,
            "midi": 69,
            "name": "A4",
            "ticks": 63552,
            "time": 90.272637,
            "velocity": 0.4881889763779528
          },
          {
            "duration": 0.27272699999998906,
            "durationTicks": 192,
            "midi": 69,
            "name": "A4",
            "ticks": 63552,
            "time": 90.272637,
            "velocity": 0.4881889763779528
          },
          {
            "duration": 0.27272699999998906,
            "durationTicks": 192,
            "midi": 69,
            "name": "A4",
            "ticks": 63552,
            "time": 90.272637,
            "velocity": 0.4881889763779528
          },
          {
            "duration": 0.27272699999998906,
            "durationTicks": 192,
            "midi": 69,
            "name": "A4",
            "ticks": 63552,
            "time": 90.272637,
            "velocity": 0.4881889763779528
          },
          {
            "duration": 0.27272699999998906,
            "durationTicks": 192,
            "midi": 78,
            "name": "F#5",
            "ticks": 63552,
            "time": 90.272637,
            "velocity": 0.4881889763779528
          },
          {
            "duration": 0.27272699999998906,
            "durationTicks": 192,
            "midi": 78,
            "name": "F#5",
            "ticks": 63552,
            "time": 90.272637,
            "velocity": 0.4881889763779528
          },
          {
            "duration": 0.27272699999998906,
            "durationTicks": 192,
            "midi": 78,
            "name": "F#5",
            "ticks": 63552,
            "time": 90.272637,
            "velocity": 0.4881889763779528
          },
          {
            "duration": 0.2727270000000033,
            "durationTicks": 192,
            "midi": 71,
            "name": "B4",
            "ticks": 63744,
            "time": 90.54536399999999,
            "velocity": 0.4881889763779528
          },
          {
            "duration": 0.2727270000000033,
            "durationTicks": 192,
            "midi": 71,
            "name": "B4",
            "ticks": 63744,
            "time": 90.54536399999999,
            "velocity": 0.4881889763779528
          },
          {
            "duration": 0.2727270000000033,
            "durationTicks": 192,
            "midi": 71,
            "name": "B4",
            "ticks": 63744,
            "time": 90.54536399999999,
            "velocity": 0.4881889763779528
          },
          {
            "duration": 0.5454540000000065,
            "durationTicks": 384,
            "midi": 56,
            "name": "G#3",
            "ticks": 63744,
            "time": 90.54536399999999,
            "velocity": 0.4881889763779528
          },
          {
            "duration": 0.5454540000000065,
            "durationTicks": 384,
            "midi": 44,
            "name": "G#2",
            "ticks": 63744,
            "time": 90.54536399999999,
            "velocity": 0.4881889763779528
          },
          {
            "duration": 0.2727270000000033,
            "durationTicks": 192,
            "midi": 71,
            "name": "B4",
            "ticks": 63744,
            "time": 90.54536399999999,
            "velocity": 0.4881889763779528
          },
          {
            "duration": 0.5454540000000065,
            "durationTicks": 384,
            "midi": 56,
            "name": "G#3",
            "ticks": 63744,
            "time": 90.54536399999999,
            "velocity": 0.4881889763779528
          },
          {
            "duration": 0.5454540000000065,
            "durationTicks": 384,
            "midi": 44,
            "name": "G#2",
            "ticks": 63744,
            "time": 90.54536399999999,
            "velocity": 0.4881889763779528
          },
          {
            "duration": 0.5454540000000065,
            "durationTicks": 384,
            "midi": 56,
            "name": "G#3",
            "ticks": 63744,
            "time": 90.54536399999999,
            "velocity": 0.4881889763779528
          },
          {
            "duration": 0.5454540000000065,
            "durationTicks": 384,
            "midi": 44,
            "name": "G#2",
            "ticks": 63744,
            "time": 90.54536399999999,
            "velocity": 0.4881889763779528
          },
          {
            "duration": 0.2727270000000033,
            "durationTicks": 192,
            "midi": 80,
            "name": "G#5",
            "ticks": 63744,
            "time": 90.54536399999999,
            "velocity": 0.4881889763779528
          },
          {
            "duration": 0.5454540000000065,
            "durationTicks": 384,
            "midi": 56,
            "name": "G#3",
            "ticks": 63744,
            "time": 90.54536399999999,
            "velocity": 0.4881889763779528
          },
          {
            "duration": 0.5454540000000065,
            "durationTicks": 384,
            "midi": 44,
            "name": "G#2",
            "ticks": 63744,
            "time": 90.54536399999999,
            "velocity": 0.4881889763779528
          },
          {
            "duration": 0.2727270000000033,
            "durationTicks": 192,
            "midi": 71,
            "name": "B4",
            "ticks": 63744,
            "time": 90.54536399999999,
            "velocity": 0.4881889763779528
          },
          {
            "duration": 0.5454540000000065,
            "durationTicks": 384,
            "midi": 44,
            "name": "G#2",
            "ticks": 63744,
            "time": 90.54536399999999,
            "velocity": 0.4881889763779528
          },
          {
            "duration": 0.5454540000000065,
            "durationTicks": 384,
            "midi": 56,
            "name": "G#3",
            "ticks": 63744,
            "time": 90.54536399999999,
            "velocity": 0.4881889763779528
          },
          {
            "duration": 0.2727270000000033,
            "durationTicks": 192,
            "midi": 80,
            "name": "G#5",
            "ticks": 63744,
            "time": 90.54536399999999,
            "velocity": 0.4881889763779528
          },
          {
            "duration": 0.2727270000000033,
            "durationTicks": 192,
            "midi": 80,
            "name": "G#5",
            "ticks": 63744,
            "time": 90.54536399999999,
            "velocity": 0.4881889763779528
          },
          {
            "duration": 0.2727270000000033,
            "durationTicks": 192,
            "midi": 80,
            "name": "G#5",
            "ticks": 63744,
            "time": 90.54536399999999,
            "velocity": 0.4881889763779528
          },
          {
            "duration": 0.2727270000000033,
            "durationTicks": 192,
            "midi": 80,
            "name": "G#5",
            "ticks": 63744,
            "time": 90.54536399999999,
            "velocity": 0.4881889763779528
          },
          {
            "duration": 0.5454540000000065,
            "durationTicks": 384,
            "midi": 56,
            "name": "G#3",
            "ticks": 63744,
            "time": 90.54536399999999,
            "velocity": 0.4881889763779528
          },
          {
            "duration": 0.2727270000000033,
            "durationTicks": 192,
            "midi": 80,
            "name": "G#5",
            "ticks": 63744,
            "time": 90.54536399999999,
            "velocity": 0.4881889763779528
          },
          {
            "duration": 0.2727270000000033,
            "durationTicks": 192,
            "midi": 71,
            "name": "B4",
            "ticks": 63744,
            "time": 90.54536399999999,
            "velocity": 0.4881889763779528
          },
          {
            "duration": 0.5454540000000065,
            "durationTicks": 384,
            "midi": 44,
            "name": "G#2",
            "ticks": 63744,
            "time": 90.54536399999999,
            "velocity": 0.4881889763779528
          },
          {
            "duration": 0.2727270000000033,
            "durationTicks": 192,
            "midi": 73,
            "name": "C#5",
            "ticks": 63936,
            "time": 90.818091,
            "velocity": 0.4881889763779528
          },
          {
            "duration": 0.2727270000000033,
            "durationTicks": 192,
            "midi": 68,
            "name": "G#4",
            "ticks": 63936,
            "time": 90.818091,
            "velocity": 0.4881889763779528
          },
          {
            "duration": 0.2727270000000033,
            "durationTicks": 192,
            "midi": 73,
            "name": "C#5",
            "ticks": 63936,
            "time": 90.818091,
            "velocity": 0.4881889763779528
          },
          {
            "duration": 0.2727270000000033,
            "durationTicks": 192,
            "midi": 68,
            "name": "G#4",
            "ticks": 63936,
            "time": 90.818091,
            "velocity": 0.4881889763779528
          },
          {
            "duration": 0.2727270000000033,
            "durationTicks": 192,
            "midi": 73,
            "name": "C#5",
            "ticks": 63936,
            "time": 90.818091,
            "velocity": 0.4881889763779528
          },
          {
            "duration": 0.2727270000000033,
            "durationTicks": 192,
            "midi": 68,
            "name": "G#4",
            "ticks": 63936,
            "time": 90.818091,
            "velocity": 0.4881889763779528
          },
          {
            "duration": 0.2727270000000033,
            "durationTicks": 192,
            "midi": 68,
            "name": "G#4",
            "ticks": 63936,
            "time": 90.818091,
            "velocity": 0.4881889763779528
          },
          {
            "duration": 0.2727270000000033,
            "durationTicks": 192,
            "midi": 73,
            "name": "C#5",
            "ticks": 63936,
            "time": 90.818091,
            "velocity": 0.4881889763779528
          },
          {
            "duration": 0.2727270000000033,
            "durationTicks": 192,
            "midi": 68,
            "name": "G#4",
            "ticks": 63936,
            "time": 90.818091,
            "velocity": 0.4881889763779528
          },
          {
            "duration": 0.2727270000000033,
            "durationTicks": 192,
            "midi": 68,
            "name": "G#4",
            "ticks": 63936,
            "time": 90.818091,
            "velocity": 0.4881889763779528
          },
          {
            "duration": 0.2727270000000033,
            "durationTicks": 192,
            "midi": 73,
            "name": "C#5",
            "ticks": 63936,
            "time": 90.818091,
            "velocity": 0.4881889763779528
          },
          {
            "duration": 0.2727270000000033,
            "durationTicks": 192,
            "midi": 73,
            "name": "C#5",
            "ticks": 63936,
            "time": 90.818091,
            "velocity": 0.4881889763779528
          },
          {
            "duration": 0.2727270000000033,
            "durationTicks": 192,
            "midi": 76,
            "name": "E5",
            "ticks": 64128,
            "time": 91.090818,
            "velocity": 0.4881889763779528
          },
          {
            "duration": 0.2727270000000033,
            "durationTicks": 192,
            "midi": 71,
            "name": "B4",
            "ticks": 64128,
            "time": 91.090818,
            "velocity": 0.4881889763779528
          },
          {
            "duration": 0.5454540000000065,
            "durationTicks": 384,
            "midi": 63,
            "name": "D#4",
            "ticks": 64128,
            "time": 91.090818,
            "velocity": 0.4881889763779528
          },
          {
            "duration": 0.2727270000000033,
            "durationTicks": 192,
            "midi": 71,
            "name": "B4",
            "ticks": 64128,
            "time": 91.090818,
            "velocity": 0.4881889763779528
          },
          {
            "duration": 0.5454540000000065,
            "durationTicks": 384,
            "midi": 68,
            "name": "G#4",
            "ticks": 64128,
            "time": 91.090818,
            "velocity": 0.4881889763779528
          },
          {
            "duration": 0.2727270000000033,
            "durationTicks": 192,
            "midi": 71,
            "name": "B4",
            "ticks": 64128,
            "time": 91.090818,
            "velocity": 0.4881889763779528
          },
          {
            "duration": 0.5454540000000065,
            "durationTicks": 384,
            "midi": 63,
            "name": "D#4",
            "ticks": 64128,
            "time": 91.090818,
            "velocity": 0.4881889763779528
          },
          {
            "duration": 0.2727270000000033,
            "durationTicks": 192,
            "midi": 71,
            "name": "B4",
            "ticks": 64128,
            "time": 91.090818,
            "velocity": 0.4881889763779528
          },
          {
            "duration": 0.2727270000000033,
            "durationTicks": 192,
            "midi": 76,
            "name": "E5",
            "ticks": 64128,
            "time": 91.090818,
            "velocity": 0.4881889763779528
          },
          {
            "duration": 0.2727270000000033,
            "durationTicks": 192,
            "midi": 71,
            "name": "B4",
            "ticks": 64128,
            "time": 91.090818,
            "velocity": 0.4881889763779528
          },
          {
            "duration": 0.2727270000000033,
            "durationTicks": 192,
            "midi": 76,
            "name": "E5",
            "ticks": 64128,
            "time": 91.090818,
            "velocity": 0.4881889763779528
          },
          {
            "duration": 0.5454540000000065,
            "durationTicks": 384,
            "midi": 63,
            "name": "D#4",
            "ticks": 64128,
            "time": 91.090818,
            "velocity": 0.4881889763779528
          },
          {
            "duration": 0.5454540000000065,
            "durationTicks": 384,
            "midi": 68,
            "name": "G#4",
            "ticks": 64128,
            "time": 91.090818,
            "velocity": 0.4881889763779528
          },
          {
            "duration": 0.5454540000000065,
            "durationTicks": 384,
            "midi": 63,
            "name": "D#4",
            "ticks": 64128,
            "time": 91.090818,
            "velocity": 0.4881889763779528
          },
          {
            "duration": 0.2727270000000033,
            "durationTicks": 192,
            "midi": 71,
            "name": "B4",
            "ticks": 64128,
            "time": 91.090818,
            "velocity": 0.4881889763779528
          },
          {
            "duration": 0.5454540000000065,
            "durationTicks": 384,
            "midi": 68,
            "name": "G#4",
            "ticks": 64128,
            "time": 91.090818,
            "velocity": 0.4881889763779528
          },
          {
            "duration": 0.5454540000000065,
            "durationTicks": 384,
            "midi": 71,
            "name": "B4",
            "ticks": 64128,
            "time": 91.090818,
            "velocity": 0.4881889763779528
          },
          {
            "duration": 0.2727270000000033,
            "durationTicks": 192,
            "midi": 76,
            "name": "E5",
            "ticks": 64128,
            "time": 91.090818,
            "velocity": 0.4881889763779528
          },
          {
            "duration": 0.5454540000000065,
            "durationTicks": 384,
            "midi": 71,
            "name": "B4",
            "ticks": 64128,
            "time": 91.090818,
            "velocity": 0.4881889763779528
          },
          {
            "duration": 0.5454540000000065,
            "durationTicks": 384,
            "midi": 68,
            "name": "G#4",
            "ticks": 64128,
            "time": 91.090818,
            "velocity": 0.4881889763779528
          },
          {
            "duration": 0.5454540000000065,
            "durationTicks": 384,
            "midi": 71,
            "name": "B4",
            "ticks": 64128,
            "time": 91.090818,
            "velocity": 0.4881889763779528
          },
          {
            "duration": 0.5454540000000065,
            "durationTicks": 384,
            "midi": 71,
            "name": "B4",
            "ticks": 64128,
            "time": 91.090818,
            "velocity": 0.4881889763779528
          },
          {
            "duration": 0.5454540000000065,
            "durationTicks": 384,
            "midi": 68,
            "name": "G#4",
            "ticks": 64128,
            "time": 91.090818,
            "velocity": 0.4881889763779528
          },
          {
            "duration": 0.5454540000000065,
            "durationTicks": 384,
            "midi": 63,
            "name": "D#4",
            "ticks": 64128,
            "time": 91.090818,
            "velocity": 0.4881889763779528
          },
          {
            "duration": 0.5454540000000065,
            "durationTicks": 384,
            "midi": 63,
            "name": "D#4",
            "ticks": 64128,
            "time": 91.090818,
            "velocity": 0.4881889763779528
          },
          {
            "duration": 0.2727270000000033,
            "durationTicks": 192,
            "midi": 76,
            "name": "E5",
            "ticks": 64128,
            "time": 91.090818,
            "velocity": 0.4881889763779528
          },
          {
            "duration": 0.5454540000000065,
            "durationTicks": 384,
            "midi": 71,
            "name": "B4",
            "ticks": 64128,
            "time": 91.090818,
            "velocity": 0.4881889763779528
          },
          {
            "duration": 0.5454540000000065,
            "durationTicks": 384,
            "midi": 68,
            "name": "G#4",
            "ticks": 64128,
            "time": 91.090818,
            "velocity": 0.4881889763779528
          },
          {
            "duration": 0.2727270000000033,
            "durationTicks": 192,
            "midi": 76,
            "name": "E5",
            "ticks": 64128,
            "time": 91.090818,
            "velocity": 0.4881889763779528
          },
          {
            "duration": 0.5454540000000065,
            "durationTicks": 384,
            "midi": 71,
            "name": "B4",
            "ticks": 64128,
            "time": 91.090818,
            "velocity": 0.4881889763779528
          },
          {
            "duration": 0.13636350000000164,
            "durationTicks": 96,
            "midi": 76,
            "name": "E5",
            "ticks": 64320,
            "time": 91.363545,
            "velocity": 0.4881889763779528
          },
          {
            "duration": 0.13636350000000164,
            "durationTicks": 96,
            "midi": 76,
            "name": "E5",
            "ticks": 64320,
            "time": 91.363545,
            "velocity": 0.4881889763779528
          },
          {
            "duration": 0.13636350000000164,
            "durationTicks": 96,
            "midi": 76,
            "name": "E5",
            "ticks": 64320,
            "time": 91.363545,
            "velocity": 0.4881889763779528
          },
          {
            "duration": 0.13636350000000164,
            "durationTicks": 96,
            "midi": 76,
            "name": "E5",
            "ticks": 64320,
            "time": 91.363545,
            "velocity": 0.4881889763779528
          },
          {
            "duration": 0.13636350000000164,
            "durationTicks": 96,
            "midi": 76,
            "name": "E5",
            "ticks": 64320,
            "time": 91.363545,
            "velocity": 0.4881889763779528
          },
          {
            "duration": 0.13636350000000164,
            "durationTicks": 96,
            "midi": 76,
            "name": "E5",
            "ticks": 64320,
            "time": 91.363545,
            "velocity": 0.4881889763779528
          },
          {
            "duration": 0.13636350000000164,
            "durationTicks": 96,
            "midi": 76,
            "name": "E5",
            "ticks": 64416,
            "time": 91.4999085,
            "velocity": 0.4881889763779528
          },
          {
            "duration": 0.13636350000000164,
            "durationTicks": 96,
            "midi": 76,
            "name": "E5",
            "ticks": 64416,
            "time": 91.4999085,
            "velocity": 0.4881889763779528
          },
          {
            "duration": 0.13636350000000164,
            "durationTicks": 96,
            "midi": 76,
            "name": "E5",
            "ticks": 64416,
            "time": 91.4999085,
            "velocity": 0.4881889763779528
          },
          {
            "duration": 0.13636350000000164,
            "durationTicks": 96,
            "midi": 76,
            "name": "E5",
            "ticks": 64416,
            "time": 91.4999085,
            "velocity": 0.4881889763779528
          },
          {
            "duration": 0.13636350000000164,
            "durationTicks": 96,
            "midi": 76,
            "name": "E5",
            "ticks": 64416,
            "time": 91.4999085,
            "velocity": 0.4881889763779528
          },
          {
            "duration": 0.13636350000000164,
            "durationTicks": 96,
            "midi": 76,
            "name": "E5",
            "ticks": 64416,
            "time": 91.4999085,
            "velocity": 0.4881889763779528
          },
          {
            "duration": 0.27272699999998906,
            "durationTicks": 192,
            "midi": 78,
            "name": "F#5",
            "ticks": 64512,
            "time": 91.636272,
            "velocity": 0.4881889763779528
          },
          {
            "duration": 0.27272699999998906,
            "durationTicks": 192,
            "midi": 69,
            "name": "A4",
            "ticks": 64512,
            "time": 91.636272,
            "velocity": 0.4881889763779528
          },
          {
            "duration": 0.27272699999998906,
            "durationTicks": 192,
            "midi": 69,
            "name": "A4",
            "ticks": 64512,
            "time": 91.636272,
            "velocity": 0.4881889763779528
          },
          {
            "duration": 0.27272699999998906,
            "durationTicks": 192,
            "midi": 69,
            "name": "A4",
            "ticks": 64512,
            "time": 91.636272,
            "velocity": 0.4881889763779528
          },
          {
            "duration": 0.27272699999998906,
            "durationTicks": 192,
            "midi": 78,
            "name": "F#5",
            "ticks": 64512,
            "time": 91.636272,
            "velocity": 0.4881889763779528
          },
          {
            "duration": 0.5454539999999923,
            "durationTicks": 384,
            "midi": 42,
            "name": "F#2",
            "ticks": 64512,
            "time": 91.636272,
            "velocity": 0.4881889763779528
          },
          {
            "duration": 0.5454539999999923,
            "durationTicks": 384,
            "midi": 54,
            "name": "F#3",
            "ticks": 64512,
            "time": 91.636272,
            "velocity": 0.4881889763779528
          },
          {
            "duration": 0.5454539999999923,
            "durationTicks": 384,
            "midi": 54,
            "name": "F#3",
            "ticks": 64512,
            "time": 91.636272,
            "velocity": 0.4881889763779528
          },
          {
            "duration": 0.5454539999999923,
            "durationTicks": 384,
            "midi": 42,
            "name": "F#2",
            "ticks": 64512,
            "time": 91.636272,
            "velocity": 0.4881889763779528
          },
          {
            "duration": 0.5454539999999923,
            "durationTicks": 384,
            "midi": 42,
            "name": "F#2",
            "ticks": 64512,
            "time": 91.636272,
            "velocity": 0.4881889763779528
          },
          {
            "duration": 0.5454539999999923,
            "durationTicks": 384,
            "midi": 54,
            "name": "F#3",
            "ticks": 64512,
            "time": 91.636272,
            "velocity": 0.4881889763779528
          },
          {
            "duration": 0.5454539999999923,
            "durationTicks": 384,
            "midi": 42,
            "name": "F#2",
            "ticks": 64512,
            "time": 91.636272,
            "velocity": 0.4881889763779528
          },
          {
            "duration": 0.5454539999999923,
            "durationTicks": 384,
            "midi": 54,
            "name": "F#3",
            "ticks": 64512,
            "time": 91.636272,
            "velocity": 0.4881889763779528
          },
          {
            "duration": 0.5454539999999923,
            "durationTicks": 384,
            "midi": 54,
            "name": "F#3",
            "ticks": 64512,
            "time": 91.636272,
            "velocity": 0.4881889763779528
          },
          {
            "duration": 0.27272699999998906,
            "durationTicks": 192,
            "midi": 78,
            "name": "F#5",
            "ticks": 64512,
            "time": 91.636272,
            "velocity": 0.4881889763779528
          },
          {
            "duration": 0.27272699999998906,
            "durationTicks": 192,
            "midi": 69,
            "name": "A4",
            "ticks": 64512,
            "time": 91.636272,
            "velocity": 0.4881889763779528
          },
          {
            "duration": 0.5454539999999923,
            "durationTicks": 384,
            "midi": 42,
            "name": "F#2",
            "ticks": 64512,
            "time": 91.636272,
            "velocity": 0.4881889763779528
          },
          {
            "duration": 0.27272699999998906,
            "durationTicks": 192,
            "midi": 69,
            "name": "A4",
            "ticks": 64512,
            "time": 91.636272,
            "velocity": 0.4881889763779528
          },
          {
            "duration": 0.5454539999999923,
            "durationTicks": 384,
            "midi": 54,
            "name": "F#3",
            "ticks": 64512,
            "time": 91.636272,
            "velocity": 0.4881889763779528
          },
          {
            "duration": 0.27272699999998906,
            "durationTicks": 192,
            "midi": 78,
            "name": "F#5",
            "ticks": 64512,
            "time": 91.636272,
            "velocity": 0.4881889763779528
          },
          {
            "duration": 0.27272699999998906,
            "durationTicks": 192,
            "midi": 78,
            "name": "F#5",
            "ticks": 64512,
            "time": 91.636272,
            "velocity": 0.4881889763779528
          },
          {
            "duration": 0.27272699999998906,
            "durationTicks": 192,
            "midi": 78,
            "name": "F#5",
            "ticks": 64512,
            "time": 91.636272,
            "velocity": 0.4881889763779528
          },
          {
            "duration": 0.5454539999999923,
            "durationTicks": 384,
            "midi": 42,
            "name": "F#2",
            "ticks": 64512,
            "time": 91.636272,
            "velocity": 0.4881889763779528
          },
          {
            "duration": 0.27272699999998906,
            "durationTicks": 192,
            "midi": 69,
            "name": "A4",
            "ticks": 64512,
            "time": 91.636272,
            "velocity": 0.4881889763779528
          },
          {
            "duration": 0.2727270000000033,
            "durationTicks": 192,
            "midi": 81,
            "name": "A5",
            "ticks": 64704,
            "time": 91.908999,
            "velocity": 0.4881889763779528
          },
          {
            "duration": 0.2727270000000033,
            "durationTicks": 192,
            "midi": 73,
            "name": "C#5",
            "ticks": 64704,
            "time": 91.908999,
            "velocity": 0.4881889763779528
          },
          {
            "duration": 0.2727270000000033,
            "durationTicks": 192,
            "midi": 81,
            "name": "A5",
            "ticks": 64704,
            "time": 91.908999,
            "velocity": 0.4881889763779528
          },
          {
            "duration": 0.2727270000000033,
            "durationTicks": 192,
            "midi": 73,
            "name": "C#5",
            "ticks": 64704,
            "time": 91.908999,
            "velocity": 0.4881889763779528
          },
          {
            "duration": 0.2727270000000033,
            "durationTicks": 192,
            "midi": 73,
            "name": "C#5",
            "ticks": 64704,
            "time": 91.908999,
            "velocity": 0.4881889763779528
          },
          {
            "duration": 0.2727270000000033,
            "durationTicks": 192,
            "midi": 73,
            "name": "C#5",
            "ticks": 64704,
            "time": 91.908999,
            "velocity": 0.4881889763779528
          },
          {
            "duration": 0.2727270000000033,
            "durationTicks": 192,
            "midi": 81,
            "name": "A5",
            "ticks": 64704,
            "time": 91.908999,
            "velocity": 0.4881889763779528
          },
          {
            "duration": 0.2727270000000033,
            "durationTicks": 192,
            "midi": 81,
            "name": "A5",
            "ticks": 64704,
            "time": 91.908999,
            "velocity": 0.4881889763779528
          },
          {
            "duration": 0.2727270000000033,
            "durationTicks": 192,
            "midi": 73,
            "name": "C#5",
            "ticks": 64704,
            "time": 91.908999,
            "velocity": 0.4881889763779528
          },
          {
            "duration": 0.2727270000000033,
            "durationTicks": 192,
            "midi": 73,
            "name": "C#5",
            "ticks": 64704,
            "time": 91.908999,
            "velocity": 0.4881889763779528
          },
          {
            "duration": 0.2727270000000033,
            "durationTicks": 192,
            "midi": 81,
            "name": "A5",
            "ticks": 64704,
            "time": 91.908999,
            "velocity": 0.4881889763779528
          },
          {
            "duration": 0.2727270000000033,
            "durationTicks": 192,
            "midi": 81,
            "name": "A5",
            "ticks": 64704,
            "time": 91.908999,
            "velocity": 0.4881889763779528
          },
          {
            "duration": 0.5454540000000065,
            "durationTicks": 384,
            "midi": 69,
            "name": "A4",
            "ticks": 64896,
            "time": 92.181726,
            "velocity": 0.4881889763779528
          },
          {
            "duration": 0.2727270000000033,
            "durationTicks": 192,
            "midi": 80,
            "name": "G#5",
            "ticks": 64896,
            "time": 92.181726,
            "velocity": 0.4881889763779528
          },
          {
            "duration": 0.2727270000000033,
            "durationTicks": 192,
            "midi": 71,
            "name": "B4",
            "ticks": 64896,
            "time": 92.181726,
            "velocity": 0.4881889763779528
          },
          {
            "duration": 0.5454540000000065,
            "durationTicks": 384,
            "midi": 66,
            "name": "F#4",
            "ticks": 64896,
            "time": 92.181726,
            "velocity": 0.4881889763779528
          },
          {
            "duration": 0.5454540000000065,
            "durationTicks": 384,
            "midi": 66,
            "name": "F#4",
            "ticks": 64896,
            "time": 92.181726,
            "velocity": 0.4881889763779528
          },
          {
            "duration": 0.5454540000000065,
            "durationTicks": 384,
            "midi": 61,
            "name": "C#4",
            "ticks": 64896,
            "time": 92.181726,
            "velocity": 0.4881889763779528
          },
          {
            "duration": 0.2727270000000033,
            "durationTicks": 192,
            "midi": 80,
            "name": "G#5",
            "ticks": 64896,
            "time": 92.181726,
            "velocity": 0.4881889763779528
          },
          {
            "duration": 0.5454540000000065,
            "durationTicks": 384,
            "midi": 61,
            "name": "C#4",
            "ticks": 64896,
            "time": 92.181726,
            "velocity": 0.4881889763779528
          },
          {
            "duration": 0.5454540000000065,
            "durationTicks": 384,
            "midi": 66,
            "name": "F#4",
            "ticks": 64896,
            "time": 92.181726,
            "velocity": 0.4881889763779528
          },
          {
            "duration": 0.5454540000000065,
            "durationTicks": 384,
            "midi": 66,
            "name": "F#4",
            "ticks": 64896,
            "time": 92.181726,
            "velocity": 0.4881889763779528
          },
          {
            "duration": 0.5454540000000065,
            "durationTicks": 384,
            "midi": 69,
            "name": "A4",
            "ticks": 64896,
            "time": 92.181726,
            "velocity": 0.4881889763779528
          },
          {
            "duration": 0.5454540000000065,
            "durationTicks": 384,
            "midi": 69,
            "name": "A4",
            "ticks": 64896,
            "time": 92.181726,
            "velocity": 0.4881889763779528
          },
          {
            "duration": 0.5454540000000065,
            "durationTicks": 384,
            "midi": 61,
            "name": "C#4",
            "ticks": 64896,
            "time": 92.181726,
            "velocity": 0.4881889763779528
          },
          {
            "duration": 0.2727270000000033,
            "durationTicks": 192,
            "midi": 71,
            "name": "B4",
            "ticks": 64896,
            "time": 92.181726,
            "velocity": 0.4881889763779528
          },
          {
            "duration": 0.5454540000000065,
            "durationTicks": 384,
            "midi": 69,
            "name": "A4",
            "ticks": 64896,
            "time": 92.181726,
            "velocity": 0.4881889763779528
          },
          {
            "duration": 0.5454540000000065,
            "durationTicks": 384,
            "midi": 66,
            "name": "F#4",
            "ticks": 64896,
            "time": 92.181726,
            "velocity": 0.4881889763779528
          },
          {
            "duration": 0.2727270000000033,
            "durationTicks": 192,
            "midi": 80,
            "name": "G#5",
            "ticks": 64896,
            "time": 92.181726,
            "velocity": 0.4881889763779528
          },
          {
            "duration": 0.2727270000000033,
            "durationTicks": 192,
            "midi": 80,
            "name": "G#5",
            "ticks": 64896,
            "time": 92.181726,
            "velocity": 0.4881889763779528
          },
          {
            "duration": 0.5454540000000065,
            "durationTicks": 384,
            "midi": 66,
            "name": "F#4",
            "ticks": 64896,
            "time": 92.181726,
            "velocity": 0.4881889763779528
          },
          {
            "duration": 0.2727270000000033,
            "durationTicks": 192,
            "midi": 80,
            "name": "G#5",
            "ticks": 64896,
            "time": 92.181726,
            "velocity": 0.4881889763779528
          },
          {
            "duration": 0.5454540000000065,
            "durationTicks": 384,
            "midi": 61,
            "name": "C#4",
            "ticks": 64896,
            "time": 92.181726,
            "velocity": 0.4881889763779528
          },
          {
            "duration": 0.2727270000000033,
            "durationTicks": 192,
            "midi": 71,
            "name": "B4",
            "ticks": 64896,
            "time": 92.181726,
            "velocity": 0.4881889763779528
          },
          {
            "duration": 0.2727270000000033,
            "durationTicks": 192,
            "midi": 71,
            "name": "B4",
            "ticks": 64896,
            "time": 92.181726,
            "velocity": 0.4881889763779528
          },
          {
            "duration": 0.5454540000000065,
            "durationTicks": 384,
            "midi": 69,
            "name": "A4",
            "ticks": 64896,
            "time": 92.181726,
            "velocity": 0.4881889763779528
          },
          {
            "duration": 0.2727270000000033,
            "durationTicks": 192,
            "midi": 71,
            "name": "B4",
            "ticks": 64896,
            "time": 92.181726,
            "velocity": 0.4881889763779528
          },
          {
            "duration": 0.2727270000000033,
            "durationTicks": 192,
            "midi": 71,
            "name": "B4",
            "ticks": 64896,
            "time": 92.181726,
            "velocity": 0.4881889763779528
          },
          {
            "duration": 0.5454540000000065,
            "durationTicks": 384,
            "midi": 61,
            "name": "C#4",
            "ticks": 64896,
            "time": 92.181726,
            "velocity": 0.4881889763779528
          },
          {
            "duration": 0.5454540000000065,
            "durationTicks": 384,
            "midi": 69,
            "name": "A4",
            "ticks": 64896,
            "time": 92.181726,
            "velocity": 0.4881889763779528
          },
          {
            "duration": 0.2727270000000033,
            "durationTicks": 192,
            "midi": 80,
            "name": "G#5",
            "ticks": 64896,
            "time": 92.181726,
            "velocity": 0.4881889763779528
          },
          {
            "duration": 0.5454540000000065,
            "durationTicks": 384,
            "midi": 61,
            "name": "C#4",
            "ticks": 64896,
            "time": 92.181726,
            "velocity": 0.4881889763779528
          },
          {
            "duration": 0.2727270000000033,
            "durationTicks": 192,
            "midi": 78,
            "name": "F#5",
            "ticks": 65088,
            "time": 92.454453,
            "velocity": 0.4881889763779528
          },
          {
            "duration": 0.2727270000000033,
            "durationTicks": 192,
            "midi": 78,
            "name": "F#5",
            "ticks": 65088,
            "time": 92.454453,
            "velocity": 0.4881889763779528
          },
          {
            "duration": 0.2727270000000033,
            "durationTicks": 192,
            "midi": 69,
            "name": "A4",
            "ticks": 65088,
            "time": 92.454453,
            "velocity": 0.4881889763779528
          },
          {
            "duration": 0.2727270000000033,
            "durationTicks": 192,
            "midi": 69,
            "name": "A4",
            "ticks": 65088,
            "time": 92.454453,
            "velocity": 0.4881889763779528
          },
          {
            "duration": 0.2727270000000033,
            "durationTicks": 192,
            "midi": 78,
            "name": "F#5",
            "ticks": 65088,
            "time": 92.454453,
            "velocity": 0.4881889763779528
          },
          {
            "duration": 0.2727270000000033,
            "durationTicks": 192,
            "midi": 69,
            "name": "A4",
            "ticks": 65088,
            "time": 92.454453,
            "velocity": 0.4881889763779528
          },
          {
            "duration": 0.2727270000000033,
            "durationTicks": 192,
            "midi": 78,
            "name": "F#5",
            "ticks": 65088,
            "time": 92.454453,
            "velocity": 0.4881889763779528
          },
          {
            "duration": 0.2727270000000033,
            "durationTicks": 192,
            "midi": 78,
            "name": "F#5",
            "ticks": 65088,
            "time": 92.454453,
            "velocity": 0.4881889763779528
          },
          {
            "duration": 0.2727270000000033,
            "durationTicks": 192,
            "midi": 78,
            "name": "F#5",
            "ticks": 65088,
            "time": 92.454453,
            "velocity": 0.4881889763779528
          },
          {
            "duration": 0.2727270000000033,
            "durationTicks": 192,
            "midi": 69,
            "name": "A4",
            "ticks": 65088,
            "time": 92.454453,
            "velocity": 0.4881889763779528
          },
          {
            "duration": 0.2727270000000033,
            "durationTicks": 192,
            "midi": 69,
            "name": "A4",
            "ticks": 65088,
            "time": 92.454453,
            "velocity": 0.4881889763779528
          },
          {
            "duration": 0.2727270000000033,
            "durationTicks": 192,
            "midi": 69,
            "name": "A4",
            "ticks": 65088,
            "time": 92.454453,
            "velocity": 0.4881889763779528
          },
          {
            "duration": 0.5454539999999923,
            "durationTicks": 384,
            "midi": 37,
            "name": "C#2",
            "ticks": 65280,
            "time": 92.72718,
            "velocity": 0.4881889763779528
          },
          {
            "duration": 0.5454539999999923,
            "durationTicks": 384,
            "midi": 49,
            "name": "C#3",
            "ticks": 65280,
            "time": 92.72718,
            "velocity": 0.4881889763779528
          },
          {
            "duration": 0.5454539999999923,
            "durationTicks": 384,
            "midi": 37,
            "name": "C#2",
            "ticks": 65280,
            "time": 92.72718,
            "velocity": 0.4881889763779528
          },
          {
            "duration": 0.27272699999998906,
            "durationTicks": 192,
            "midi": 71,
            "name": "B4",
            "ticks": 65280,
            "time": 92.72718,
            "velocity": 0.4881889763779528
          },
          {
            "duration": 0.27272699999998906,
            "durationTicks": 192,
            "midi": 80,
            "name": "G#5",
            "ticks": 65280,
            "time": 92.72718,
            "velocity": 0.4881889763779528
          },
          {
            "duration": 0.27272699999998906,
            "durationTicks": 192,
            "midi": 71,
            "name": "B4",
            "ticks": 65280,
            "time": 92.72718,
            "velocity": 0.4881889763779528
          },
          {
            "duration": 0.27272699999998906,
            "durationTicks": 192,
            "midi": 80,
            "name": "G#5",
            "ticks": 65280,
            "time": 92.72718,
            "velocity": 0.4881889763779528
          },
          {
            "duration": 0.27272699999998906,
            "durationTicks": 192,
            "midi": 80,
            "name": "G#5",
            "ticks": 65280,
            "time": 92.72718,
            "velocity": 0.4881889763779528
          },
          {
            "duration": 0.27272699999998906,
            "durationTicks": 192,
            "midi": 71,
            "name": "B4",
            "ticks": 65280,
            "time": 92.72718,
            "velocity": 0.4881889763779528
          },
          {
            "duration": 0.27272699999998906,
            "durationTicks": 192,
            "midi": 71,
            "name": "B4",
            "ticks": 65280,
            "time": 92.72718,
            "velocity": 0.4881889763779528
          },
          {
            "duration": 0.27272699999998906,
            "durationTicks": 192,
            "midi": 80,
            "name": "G#5",
            "ticks": 65280,
            "time": 92.72718,
            "velocity": 0.4881889763779528
          },
          {
            "duration": 0.5454539999999923,
            "durationTicks": 384,
            "midi": 49,
            "name": "C#3",
            "ticks": 65280,
            "time": 92.72718,
            "velocity": 0.4881889763779528
          },
          {
            "duration": 0.27272699999998906,
            "durationTicks": 192,
            "midi": 71,
            "name": "B4",
            "ticks": 65280,
            "time": 92.72718,
            "velocity": 0.4881889763779528
          },
          {
            "duration": 0.27272699999998906,
            "durationTicks": 192,
            "midi": 71,
            "name": "B4",
            "ticks": 65280,
            "time": 92.72718,
            "velocity": 0.4881889763779528
          },
          {
            "duration": 0.5454539999999923,
            "durationTicks": 384,
            "midi": 37,
            "name": "C#2",
            "ticks": 65280,
            "time": 92.72718,
            "velocity": 0.4881889763779528
          },
          {
            "duration": 0.27272699999998906,
            "durationTicks": 192,
            "midi": 80,
            "name": "G#5",
            "ticks": 65280,
            "time": 92.72718,
            "velocity": 0.4881889763779528
          },
          {
            "duration": 0.5454539999999923,
            "durationTicks": 384,
            "midi": 49,
            "name": "C#3",
            "ticks": 65280,
            "time": 92.72718,
            "velocity": 0.4881889763779528
          },
          {
            "duration": 0.5454539999999923,
            "durationTicks": 384,
            "midi": 37,
            "name": "C#2",
            "ticks": 65280,
            "time": 92.72718,
            "velocity": 0.4881889763779528
          },
          {
            "duration": 0.5454539999999923,
            "durationTicks": 384,
            "midi": 49,
            "name": "C#3",
            "ticks": 65280,
            "time": 92.72718,
            "velocity": 0.4881889763779528
          },
          {
            "duration": 0.27272699999998906,
            "durationTicks": 192,
            "midi": 80,
            "name": "G#5",
            "ticks": 65280,
            "time": 92.72718,
            "velocity": 0.4881889763779528
          },
          {
            "duration": 0.5454539999999923,
            "durationTicks": 384,
            "midi": 37,
            "name": "C#2",
            "ticks": 65280,
            "time": 92.72718,
            "velocity": 0.4881889763779528
          },
          {
            "duration": 0.5454539999999923,
            "durationTicks": 384,
            "midi": 49,
            "name": "C#3",
            "ticks": 65280,
            "time": 92.72718,
            "velocity": 0.4881889763779528
          },
          {
            "duration": 0.5454539999999923,
            "durationTicks": 384,
            "midi": 49,
            "name": "C#3",
            "ticks": 65280,
            "time": 92.72718,
            "velocity": 0.4881889763779528
          },
          {
            "duration": 0.5454539999999923,
            "durationTicks": 384,
            "midi": 37,
            "name": "C#2",
            "ticks": 65280,
            "time": 92.72718,
            "velocity": 0.4881889763779528
          },
          {
            "duration": 0.2727270000000033,
            "durationTicks": 192,
            "midi": 73,
            "name": "C#5",
            "ticks": 65472,
            "time": 92.999907,
            "velocity": 0.4881889763779528
          },
          {
            "duration": 0.2727270000000033,
            "durationTicks": 192,
            "midi": 73,
            "name": "C#5",
            "ticks": 65472,
            "time": 92.999907,
            "velocity": 0.4881889763779528
          },
          {
            "duration": 0.2727270000000033,
            "durationTicks": 192,
            "midi": 73,
            "name": "C#5",
            "ticks": 65472,
            "time": 92.999907,
            "velocity": 0.4881889763779528
          },
          {
            "duration": 0.2727270000000033,
            "durationTicks": 192,
            "midi": 73,
            "name": "C#5",
            "ticks": 65472,
            "time": 92.999907,
            "velocity": 0.4881889763779528
          },
          {
            "duration": 0.2727270000000033,
            "durationTicks": 192,
            "midi": 73,
            "name": "C#5",
            "ticks": 65472,
            "time": 92.999907,
            "velocity": 0.4881889763779528
          },
          {
            "duration": 0.2727270000000033,
            "durationTicks": 192,
            "midi": 73,
            "name": "C#5",
            "ticks": 65472,
            "time": 92.999907,
            "velocity": 0.4881889763779528
          },
          {
            "duration": 0.5454540000000065,
            "durationTicks": 384,
            "midi": 61,
            "name": "C#4",
            "ticks": 65664,
            "time": 93.272634,
            "velocity": 0.4881889763779528
          },
          {
            "duration": 0.5454540000000065,
            "durationTicks": 384,
            "midi": 64,
            "name": "E4",
            "ticks": 65664,
            "time": 93.272634,
            "velocity": 0.4881889763779528
          },
          {
            "duration": 0.5454540000000065,
            "durationTicks": 384,
            "midi": 76,
            "name": "E5",
            "ticks": 65664,
            "time": 93.272634,
            "velocity": 0.4881889763779528
          },
          {
            "duration": 0.5454540000000065,
            "durationTicks": 384,
            "midi": 64,
            "name": "E4",
            "ticks": 65664,
            "time": 93.272634,
            "velocity": 0.4881889763779528
          },
          {
            "duration": 0.5454540000000065,
            "durationTicks": 384,
            "midi": 76,
            "name": "E5",
            "ticks": 65664,
            "time": 93.272634,
            "velocity": 0.4881889763779528
          },
          {
            "duration": 0.5454540000000065,
            "durationTicks": 384,
            "midi": 68,
            "name": "G#4",
            "ticks": 65664,
            "time": 93.272634,
            "velocity": 0.4881889763779528
          },
          {
            "duration": 0.5454540000000065,
            "durationTicks": 384,
            "midi": 61,
            "name": "C#4",
            "ticks": 65664,
            "time": 93.272634,
            "velocity": 0.4881889763779528
          },
          {
            "duration": 0.5454540000000065,
            "durationTicks": 384,
            "midi": 68,
            "name": "G#4",
            "ticks": 65664,
            "time": 93.272634,
            "velocity": 0.4881889763779528
          },
          {
            "duration": 0.5454540000000065,
            "durationTicks": 384,
            "midi": 61,
            "name": "C#4",
            "ticks": 65664,
            "time": 93.272634,
            "velocity": 0.4881889763779528
          },
          {
            "duration": 0.5454540000000065,
            "durationTicks": 384,
            "midi": 76,
            "name": "E5",
            "ticks": 65664,
            "time": 93.272634,
            "velocity": 0.4881889763779528
          },
          {
            "duration": 0.5454540000000065,
            "durationTicks": 384,
            "midi": 68,
            "name": "G#4",
            "ticks": 65664,
            "time": 93.272634,
            "velocity": 0.4881889763779528
          },
          {
            "duration": 0.5454540000000065,
            "durationTicks": 384,
            "midi": 64,
            "name": "E4",
            "ticks": 65664,
            "time": 93.272634,
            "velocity": 0.4881889763779528
          },
          {
            "duration": 0.5454540000000065,
            "durationTicks": 384,
            "midi": 76,
            "name": "E5",
            "ticks": 65664,
            "time": 93.272634,
            "velocity": 0.4881889763779528
          },
          {
            "duration": 0.5454540000000065,
            "durationTicks": 384,
            "midi": 76,
            "name": "E5",
            "ticks": 65664,
            "time": 93.272634,
            "velocity": 0.4881889763779528
          },
          {
            "duration": 0.5454540000000065,
            "durationTicks": 384,
            "midi": 61,
            "name": "C#4",
            "ticks": 65664,
            "time": 93.272634,
            "velocity": 0.4881889763779528
          },
          {
            "duration": 0.5454540000000065,
            "durationTicks": 384,
            "midi": 68,
            "name": "G#4",
            "ticks": 65664,
            "time": 93.272634,
            "velocity": 0.4881889763779528
          },
          {
            "duration": 0.5454540000000065,
            "durationTicks": 384,
            "midi": 68,
            "name": "G#4",
            "ticks": 65664,
            "time": 93.272634,
            "velocity": 0.4881889763779528
          },
          {
            "duration": 0.5454540000000065,
            "durationTicks": 384,
            "midi": 68,
            "name": "G#4",
            "ticks": 65664,
            "time": 93.272634,
            "velocity": 0.4881889763779528
          },
          {
            "duration": 0.5454540000000065,
            "durationTicks": 384,
            "midi": 64,
            "name": "E4",
            "ticks": 65664,
            "time": 93.272634,
            "velocity": 0.4881889763779528
          },
          {
            "duration": 0.5454540000000065,
            "durationTicks": 384,
            "midi": 76,
            "name": "E5",
            "ticks": 65664,
            "time": 93.272634,
            "velocity": 0.4881889763779528
          },
          {
            "duration": 0.5454540000000065,
            "durationTicks": 384,
            "midi": 68,
            "name": "G#4",
            "ticks": 65664,
            "time": 93.272634,
            "velocity": 0.4881889763779528
          },
          {
            "duration": 0.5454540000000065,
            "durationTicks": 384,
            "midi": 68,
            "name": "G#4",
            "ticks": 65664,
            "time": 93.272634,
            "velocity": 0.4881889763779528
          },
          {
            "duration": 0.5454540000000065,
            "durationTicks": 384,
            "midi": 61,
            "name": "C#4",
            "ticks": 65664,
            "time": 93.272634,
            "velocity": 0.4881889763779528
          },
          {
            "duration": 0.5454540000000065,
            "durationTicks": 384,
            "midi": 68,
            "name": "G#4",
            "ticks": 65664,
            "time": 93.272634,
            "velocity": 0.4881889763779528
          },
          {
            "duration": 0.5454540000000065,
            "durationTicks": 384,
            "midi": 68,
            "name": "G#4",
            "ticks": 65664,
            "time": 93.272634,
            "velocity": 0.4881889763779528
          },
          {
            "duration": 0.5454540000000065,
            "durationTicks": 384,
            "midi": 64,
            "name": "E4",
            "ticks": 65664,
            "time": 93.272634,
            "velocity": 0.4881889763779528
          },
          {
            "duration": 0.5454540000000065,
            "durationTicks": 384,
            "midi": 68,
            "name": "G#4",
            "ticks": 65664,
            "time": 93.272634,
            "velocity": 0.4881889763779528
          },
          {
            "duration": 0.5454540000000065,
            "durationTicks": 384,
            "midi": 64,
            "name": "E4",
            "ticks": 65664,
            "time": 93.272634,
            "velocity": 0.4881889763779528
          },
          {
            "duration": 0.5454540000000065,
            "durationTicks": 384,
            "midi": 61,
            "name": "C#4",
            "ticks": 65664,
            "time": 93.272634,
            "velocity": 0.4881889763779528
          },
          {
            "duration": 0.5454540000000065,
            "durationTicks": 384,
            "midi": 68,
            "name": "G#4",
            "ticks": 65664,
            "time": 93.272634,
            "velocity": 0.4881889763779528
          },
          {
            "duration": 0.5454539999999923,
            "durationTicks": 384,
            "midi": 54,
            "name": "F#3",
            "ticks": 66048,
            "time": 93.818088,
            "velocity": 0.4881889763779528
          },
          {
            "duration": 0.27272699999998906,
            "durationTicks": 192,
            "midi": 78,
            "name": "F#5",
            "ticks": 66048,
            "time": 93.818088,
            "velocity": 0.4881889763779528
          },
          {
            "duration": 0.27272699999998906,
            "durationTicks": 192,
            "midi": 78,
            "name": "F#5",
            "ticks": 66048,
            "time": 93.818088,
            "velocity": 0.4881889763779528
          },
          {
            "duration": 0.5454539999999923,
            "durationTicks": 384,
            "midi": 42,
            "name": "F#2",
            "ticks": 66048,
            "time": 93.818088,
            "velocity": 0.4881889763779528
          },
          {
            "duration": 0.5454539999999923,
            "durationTicks": 384,
            "midi": 42,
            "name": "F#2",
            "ticks": 66048,
            "time": 93.818088,
            "velocity": 0.4881889763779528
          },
          {
            "duration": 0.27272699999998906,
            "durationTicks": 192,
            "midi": 78,
            "name": "F#5",
            "ticks": 66048,
            "time": 93.818088,
            "velocity": 0.4881889763779528
          },
          {
            "duration": 0.27272699999998906,
            "durationTicks": 192,
            "midi": 69,
            "name": "A4",
            "ticks": 66048,
            "time": 93.818088,
            "velocity": 0.4881889763779528
          },
          {
            "duration": 0.27272699999998906,
            "durationTicks": 192,
            "midi": 69,
            "name": "A4",
            "ticks": 66048,
            "time": 93.818088,
            "velocity": 0.4881889763779528
          },
          {
            "duration": 0.5454539999999923,
            "durationTicks": 384,
            "midi": 54,
            "name": "F#3",
            "ticks": 66048,
            "time": 93.818088,
            "velocity": 0.4881889763779528
          },
          {
            "duration": 0.5454539999999923,
            "durationTicks": 384,
            "midi": 54,
            "name": "F#3",
            "ticks": 66048,
            "time": 93.818088,
            "velocity": 0.4881889763779528
          },
          {
            "duration": 0.27272699999998906,
            "durationTicks": 192,
            "midi": 78,
            "name": "F#5",
            "ticks": 66048,
            "time": 93.818088,
            "velocity": 0.4881889763779528
          },
          {
            "duration": 0.5454539999999923,
            "durationTicks": 384,
            "midi": 54,
            "name": "F#3",
            "ticks": 66048,
            "time": 93.818088,
            "velocity": 0.4881889763779528
          },
          {
            "duration": 0.27272699999998906,
            "durationTicks": 192,
            "midi": 78,
            "name": "F#5",
            "ticks": 66048,
            "time": 93.818088,
            "velocity": 0.4881889763779528
          },
          {
            "duration": 0.5454539999999923,
            "durationTicks": 384,
            "midi": 42,
            "name": "F#2",
            "ticks": 66048,
            "time": 93.818088,
            "velocity": 0.4881889763779528
          },
          {
            "duration": 0.5454539999999923,
            "durationTicks": 384,
            "midi": 42,
            "name": "F#2",
            "ticks": 66048,
            "time": 93.818088,
            "velocity": 0.4881889763779528
          },
          {
            "duration": 0.5454539999999923,
            "durationTicks": 384,
            "midi": 42,
            "name": "F#2",
            "ticks": 66048,
            "time": 93.818088,
            "velocity": 0.4881889763779528
          },
          {
            "duration": 0.5454539999999923,
            "durationTicks": 384,
            "midi": 54,
            "name": "F#3",
            "ticks": 66048,
            "time": 93.818088,
            "velocity": 0.4881889763779528
          },
          {
            "duration": 0.5454539999999923,
            "durationTicks": 384,
            "midi": 42,
            "name": "F#2",
            "ticks": 66048,
            "time": 93.818088,
            "velocity": 0.4881889763779528
          },
          {
            "duration": 0.27272699999998906,
            "durationTicks": 192,
            "midi": 69,
            "name": "A4",
            "ticks": 66048,
            "time": 93.818088,
            "velocity": 0.4881889763779528
          },
          {
            "duration": 0.27272699999998906,
            "durationTicks": 192,
            "midi": 69,
            "name": "A4",
            "ticks": 66048,
            "time": 93.818088,
            "velocity": 0.4881889763779528
          },
          {
            "duration": 0.27272699999998906,
            "durationTicks": 192,
            "midi": 69,
            "name": "A4",
            "ticks": 66048,
            "time": 93.818088,
            "velocity": 0.4881889763779528
          },
          {
            "duration": 0.27272699999998906,
            "durationTicks": 192,
            "midi": 78,
            "name": "F#5",
            "ticks": 66048,
            "time": 93.818088,
            "velocity": 0.4881889763779528
          },
          {
            "duration": 0.27272699999998906,
            "durationTicks": 192,
            "midi": 69,
            "name": "A4",
            "ticks": 66048,
            "time": 93.818088,
            "velocity": 0.4881889763779528
          },
          {
            "duration": 0.5454539999999923,
            "durationTicks": 384,
            "midi": 54,
            "name": "F#3",
            "ticks": 66048,
            "time": 93.818088,
            "velocity": 0.4881889763779528
          },
          {
            "duration": 0.2727270000000033,
            "durationTicks": 192,
            "midi": 73,
            "name": "C#5",
            "ticks": 66240,
            "time": 94.09081499999999,
            "velocity": 0.4881889763779528
          },
          {
            "duration": 0.2727270000000033,
            "durationTicks": 192,
            "midi": 81,
            "name": "A5",
            "ticks": 66240,
            "time": 94.09081499999999,
            "velocity": 0.4881889763779528
          },
          {
            "duration": 0.2727270000000033,
            "durationTicks": 192,
            "midi": 81,
            "name": "A5",
            "ticks": 66240,
            "time": 94.09081499999999,
            "velocity": 0.4881889763779528
          },
          {
            "duration": 0.2727270000000033,
            "durationTicks": 192,
            "midi": 81,
            "name": "A5",
            "ticks": 66240,
            "time": 94.09081499999999,
            "velocity": 0.4881889763779528
          },
          {
            "duration": 0.2727270000000033,
            "durationTicks": 192,
            "midi": 81,
            "name": "A5",
            "ticks": 66240,
            "time": 94.09081499999999,
            "velocity": 0.4881889763779528
          },
          {
            "duration": 0.2727270000000033,
            "durationTicks": 192,
            "midi": 73,
            "name": "C#5",
            "ticks": 66240,
            "time": 94.09081499999999,
            "velocity": 0.4881889763779528
          },
          {
            "duration": 0.2727270000000033,
            "durationTicks": 192,
            "midi": 73,
            "name": "C#5",
            "ticks": 66240,
            "time": 94.09081499999999,
            "velocity": 0.4881889763779528
          },
          {
            "duration": 0.2727270000000033,
            "durationTicks": 192,
            "midi": 81,
            "name": "A5",
            "ticks": 66240,
            "time": 94.09081499999999,
            "velocity": 0.4881889763779528
          },
          {
            "duration": 0.2727270000000033,
            "durationTicks": 192,
            "midi": 73,
            "name": "C#5",
            "ticks": 66240,
            "time": 94.09081499999999,
            "velocity": 0.4881889763779528
          },
          {
            "duration": 0.2727270000000033,
            "durationTicks": 192,
            "midi": 73,
            "name": "C#5",
            "ticks": 66240,
            "time": 94.09081499999999,
            "velocity": 0.4881889763779528
          },
          {
            "duration": 0.2727270000000033,
            "durationTicks": 192,
            "midi": 73,
            "name": "C#5",
            "ticks": 66240,
            "time": 94.09081499999999,
            "velocity": 0.4881889763779528
          },
          {
            "duration": 0.2727270000000033,
            "durationTicks": 192,
            "midi": 81,
            "name": "A5",
            "ticks": 66240,
            "time": 94.09081499999999,
            "velocity": 0.4881889763779528
          },
          {
            "duration": 0.5454540000000065,
            "durationTicks": 384,
            "midi": 69,
            "name": "A4",
            "ticks": 66432,
            "time": 94.363542,
            "velocity": 0.4881889763779528
          },
          {
            "duration": 0.5454540000000065,
            "durationTicks": 384,
            "midi": 66,
            "name": "F#4",
            "ticks": 66432,
            "time": 94.363542,
            "velocity": 0.4881889763779528
          },
          {
            "duration": 0.2727270000000033,
            "durationTicks": 192,
            "midi": 80,
            "name": "G#5",
            "ticks": 66432,
            "time": 94.363542,
            "velocity": 0.4881889763779528
          },
          {
            "duration": 0.5454540000000065,
            "durationTicks": 384,
            "midi": 61,
            "name": "C#4",
            "ticks": 66432,
            "time": 94.363542,
            "velocity": 0.4881889763779528
          },
          {
            "duration": 0.2727270000000033,
            "durationTicks": 192,
            "midi": 71,
            "name": "B4",
            "ticks": 66432,
            "time": 94.363542,
            "velocity": 0.4881889763779528
          },
          {
            "duration": 0.5454540000000065,
            "durationTicks": 384,
            "midi": 61,
            "name": "C#4",
            "ticks": 66432,
            "time": 94.363542,
            "velocity": 0.4881889763779528
          },
          {
            "duration": 0.5454540000000065,
            "durationTicks": 384,
            "midi": 66,
            "name": "F#4",
            "ticks": 66432,
            "time": 94.363542,
            "velocity": 0.4881889763779528
          },
          {
            "duration": 0.2727270000000033,
            "durationTicks": 192,
            "midi": 80,
            "name": "G#5",
            "ticks": 66432,
            "time": 94.363542,
            "velocity": 0.4881889763779528
          },
          {
            "duration": 0.5454540000000065,
            "durationTicks": 384,
            "midi": 66,
            "name": "F#4",
            "ticks": 66432,
            "time": 94.363542,
            "velocity": 0.4881889763779528
          },
          {
            "duration": 0.2727270000000033,
            "durationTicks": 192,
            "midi": 80,
            "name": "G#5",
            "ticks": 66432,
            "time": 94.363542,
            "velocity": 0.4881889763779528
          },
          {
            "duration": 0.5454540000000065,
            "durationTicks": 384,
            "midi": 61,
            "name": "C#4",
            "ticks": 66432,
            "time": 94.363542,
            "velocity": 0.4881889763779528
          },
          {
            "duration": 0.2727270000000033,
            "durationTicks": 192,
            "midi": 71,
            "name": "B4",
            "ticks": 66432,
            "time": 94.363542,
            "velocity": 0.4881889763779528
          },
          {
            "duration": 0.5454540000000065,
            "durationTicks": 384,
            "midi": 69,
            "name": "A4",
            "ticks": 66432,
            "time": 94.363542,
            "velocity": 0.4881889763779528
          },
          {
            "duration": 0.5454540000000065,
            "durationTicks": 384,
            "midi": 66,
            "name": "F#4",
            "ticks": 66432,
            "time": 94.363542,
            "velocity": 0.4881889763779528
          },
          {
            "duration": 0.2727270000000033,
            "durationTicks": 192,
            "midi": 71,
            "name": "B4",
            "ticks": 66432,
            "time": 94.363542,
            "velocity": 0.4881889763779528
          },
          {
            "duration": 0.5454540000000065,
            "durationTicks": 384,
            "midi": 61,
            "name": "C#4",
            "ticks": 66432,
            "time": 94.363542,
            "velocity": 0.4881889763779528
          },
          {
            "duration": 0.2727270000000033,
            "durationTicks": 192,
            "midi": 80,
            "name": "G#5",
            "ticks": 66432,
            "time": 94.363542,
            "velocity": 0.4881889763779528
          },
          {
            "duration": 0.5454540000000065,
            "durationTicks": 384,
            "midi": 66,
            "name": "F#4",
            "ticks": 66432,
            "time": 94.363542,
            "velocity": 0.4881889763779528
          },
          {
            "duration": 0.5454540000000065,
            "durationTicks": 384,
            "midi": 69,
            "name": "A4",
            "ticks": 66432,
            "time": 94.363542,
            "velocity": 0.4881889763779528
          },
          {
            "duration": 0.5454540000000065,
            "durationTicks": 384,
            "midi": 69,
            "name": "A4",
            "ticks": 66432,
            "time": 94.363542,
            "velocity": 0.4881889763779528
          },
          {
            "duration": 0.2727270000000033,
            "durationTicks": 192,
            "midi": 80,
            "name": "G#5",
            "ticks": 66432,
            "time": 94.363542,
            "velocity": 0.4881889763779528
          },
          {
            "duration": 0.5454540000000065,
            "durationTicks": 384,
            "midi": 61,
            "name": "C#4",
            "ticks": 66432,
            "time": 94.363542,
            "velocity": 0.4881889763779528
          },
          {
            "duration": 0.5454540000000065,
            "durationTicks": 384,
            "midi": 69,
            "name": "A4",
            "ticks": 66432,
            "time": 94.363542,
            "velocity": 0.4881889763779528
          },
          {
            "duration": 0.2727270000000033,
            "durationTicks": 192,
            "midi": 71,
            "name": "B4",
            "ticks": 66432,
            "time": 94.363542,
            "velocity": 0.4881889763779528
          },
          {
            "duration": 0.5454540000000065,
            "durationTicks": 384,
            "midi": 66,
            "name": "F#4",
            "ticks": 66432,
            "time": 94.363542,
            "velocity": 0.4881889763779528
          },
          {
            "duration": 0.2727270000000033,
            "durationTicks": 192,
            "midi": 71,
            "name": "B4",
            "ticks": 66432,
            "time": 94.363542,
            "velocity": 0.4881889763779528
          },
          {
            "duration": 0.2727270000000033,
            "durationTicks": 192,
            "midi": 71,
            "name": "B4",
            "ticks": 66432,
            "time": 94.363542,
            "velocity": 0.4881889763779528
          },
          {
            "duration": 0.5454540000000065,
            "durationTicks": 384,
            "midi": 61,
            "name": "C#4",
            "ticks": 66432,
            "time": 94.363542,
            "velocity": 0.4881889763779528
          },
          {
            "duration": 0.2727270000000033,
            "durationTicks": 192,
            "midi": 80,
            "name": "G#5",
            "ticks": 66432,
            "time": 94.363542,
            "velocity": 0.4881889763779528
          },
          {
            "duration": 0.5454540000000065,
            "durationTicks": 384,
            "midi": 69,
            "name": "A4",
            "ticks": 66432,
            "time": 94.363542,
            "velocity": 0.4881889763779528
          },
          {
            "duration": 0.2727270000000033,
            "durationTicks": 192,
            "midi": 69,
            "name": "A4",
            "ticks": 66624,
            "time": 94.636269,
            "velocity": 0.4881889763779528
          },
          {
            "duration": 0.2727270000000033,
            "durationTicks": 192,
            "midi": 78,
            "name": "F#5",
            "ticks": 66624,
            "time": 94.636269,
            "velocity": 0.4881889763779528
          },
          {
            "duration": 0.2727270000000033,
            "durationTicks": 192,
            "midi": 78,
            "name": "F#5",
            "ticks": 66624,
            "time": 94.636269,
            "velocity": 0.4881889763779528
          },
          {
            "duration": 0.2727270000000033,
            "durationTicks": 192,
            "midi": 78,
            "name": "F#5",
            "ticks": 66624,
            "time": 94.636269,
            "velocity": 0.4881889763779528
          },
          {
            "duration": 0.2727270000000033,
            "durationTicks": 192,
            "midi": 69,
            "name": "A4",
            "ticks": 66624,
            "time": 94.636269,
            "velocity": 0.4881889763779528
          },
          {
            "duration": 0.2727270000000033,
            "durationTicks": 192,
            "midi": 78,
            "name": "F#5",
            "ticks": 66624,
            "time": 94.636269,
            "velocity": 0.4881889763779528
          },
          {
            "duration": 0.2727270000000033,
            "durationTicks": 192,
            "midi": 78,
            "name": "F#5",
            "ticks": 66624,
            "time": 94.636269,
            "velocity": 0.4881889763779528
          },
          {
            "duration": 0.2727270000000033,
            "durationTicks": 192,
            "midi": 69,
            "name": "A4",
            "ticks": 66624,
            "time": 94.636269,
            "velocity": 0.4881889763779528
          },
          {
            "duration": 0.2727270000000033,
            "durationTicks": 192,
            "midi": 78,
            "name": "F#5",
            "ticks": 66624,
            "time": 94.636269,
            "velocity": 0.4881889763779528
          },
          {
            "duration": 0.2727270000000033,
            "durationTicks": 192,
            "midi": 69,
            "name": "A4",
            "ticks": 66624,
            "time": 94.636269,
            "velocity": 0.4881889763779528
          },
          {
            "duration": 0.2727270000000033,
            "durationTicks": 192,
            "midi": 69,
            "name": "A4",
            "ticks": 66624,
            "time": 94.636269,
            "velocity": 0.4881889763779528
          },
          {
            "duration": 0.2727270000000033,
            "durationTicks": 192,
            "midi": 69,
            "name": "A4",
            "ticks": 66624,
            "time": 94.636269,
            "velocity": 0.4881889763779528
          },
          {
            "duration": 0.2727270000000033,
            "durationTicks": 192,
            "midi": 73,
            "name": "C#5",
            "ticks": 66816,
            "time": 94.908996,
            "velocity": 0.4881889763779528
          },
          {
            "duration": 0.2727270000000033,
            "durationTicks": 192,
            "midi": 73,
            "name": "C#5",
            "ticks": 66816,
            "time": 94.908996,
            "velocity": 0.4881889763779528
          },
          {
            "duration": 0.2727270000000033,
            "durationTicks": 192,
            "midi": 80,
            "name": "G#5",
            "ticks": 66816,
            "time": 94.908996,
            "velocity": 0.4881889763779528
          },
          {
            "duration": 0.2727270000000033,
            "durationTicks": 192,
            "midi": 73,
            "name": "C#5",
            "ticks": 66816,
            "time": 94.908996,
            "velocity": 0.4881889763779528
          },
          {
            "duration": 0.2727270000000033,
            "durationTicks": 192,
            "midi": 80,
            "name": "G#5",
            "ticks": 66816,
            "time": 94.908996,
            "velocity": 0.4881889763779528
          },
          {
            "duration": 1.0909079999999989,
            "durationTicks": 768,
            "midi": 56,
            "name": "G#3",
            "ticks": 66816,
            "time": 94.908996,
            "velocity": 0.4881889763779528
          },
          {
            "duration": 0.2727270000000033,
            "durationTicks": 192,
            "midi": 73,
            "name": "C#5",
            "ticks": 66816,
            "time": 94.908996,
            "velocity": 0.4881889763779528
          },
          {
            "duration": 0.2727270000000033,
            "durationTicks": 192,
            "midi": 73,
            "name": "C#5",
            "ticks": 66816,
            "time": 94.908996,
            "velocity": 0.4881889763779528
          },
          {
            "duration": 1.0909079999999989,
            "durationTicks": 768,
            "midi": 56,
            "name": "G#3",
            "ticks": 66816,
            "time": 94.908996,
            "velocity": 0.4881889763779528
          },
          {
            "duration": 1.0909079999999989,
            "durationTicks": 768,
            "midi": 44,
            "name": "G#2",
            "ticks": 66816,
            "time": 94.908996,
            "velocity": 0.4881889763779528
          },
          {
            "duration": 1.0909079999999989,
            "durationTicks": 768,
            "midi": 44,
            "name": "G#2",
            "ticks": 66816,
            "time": 94.908996,
            "velocity": 0.4881889763779528
          },
          {
            "duration": 1.0909079999999989,
            "durationTicks": 768,
            "midi": 44,
            "name": "G#2",
            "ticks": 66816,
            "time": 94.908996,
            "velocity": 0.4881889763779528
          },
          {
            "duration": 0.2727270000000033,
            "durationTicks": 192,
            "midi": 80,
            "name": "G#5",
            "ticks": 66816,
            "time": 94.908996,
            "velocity": 0.4881889763779528
          },
          {
            "duration": 1.0909079999999989,
            "durationTicks": 768,
            "midi": 56,
            "name": "G#3",
            "ticks": 66816,
            "time": 94.908996,
            "velocity": 0.4881889763779528
          },
          {
            "duration": 0.2727270000000033,
            "durationTicks": 192,
            "midi": 73,
            "name": "C#5",
            "ticks": 66816,
            "time": 94.908996,
            "velocity": 0.4881889763779528
          },
          {
            "duration": 1.0909079999999989,
            "durationTicks": 768,
            "midi": 44,
            "name": "G#2",
            "ticks": 66816,
            "time": 94.908996,
            "velocity": 0.4881889763779528
          },
          {
            "duration": 1.0909079999999989,
            "durationTicks": 768,
            "midi": 56,
            "name": "G#3",
            "ticks": 66816,
            "time": 94.908996,
            "velocity": 0.4881889763779528
          },
          {
            "duration": 1.0909079999999989,
            "durationTicks": 768,
            "midi": 44,
            "name": "G#2",
            "ticks": 66816,
            "time": 94.908996,
            "velocity": 0.4881889763779528
          },
          {
            "duration": 0.2727270000000033,
            "durationTicks": 192,
            "midi": 80,
            "name": "G#5",
            "ticks": 66816,
            "time": 94.908996,
            "velocity": 0.4881889763779528
          },
          {
            "duration": 0.2727270000000033,
            "durationTicks": 192,
            "midi": 80,
            "name": "G#5",
            "ticks": 66816,
            "time": 94.908996,
            "velocity": 0.4881889763779528
          },
          {
            "duration": 1.0909079999999989,
            "durationTicks": 768,
            "midi": 44,
            "name": "G#2",
            "ticks": 66816,
            "time": 94.908996,
            "velocity": 0.4881889763779528
          },
          {
            "duration": 0.2727270000000033,
            "durationTicks": 192,
            "midi": 80,
            "name": "G#5",
            "ticks": 66816,
            "time": 94.908996,
            "velocity": 0.4881889763779528
          },
          {
            "duration": 1.0909079999999989,
            "durationTicks": 768,
            "midi": 56,
            "name": "G#3",
            "ticks": 66816,
            "time": 94.908996,
            "velocity": 0.4881889763779528
          },
          {
            "duration": 1.0909079999999989,
            "durationTicks": 768,
            "midi": 56,
            "name": "G#3",
            "ticks": 66816,
            "time": 94.908996,
            "velocity": 0.4881889763779528
          },
          {
            "duration": 0.27272699999998906,
            "durationTicks": 192,
            "midi": 80,
            "name": "G#5",
            "ticks": 67008,
            "time": 95.181723,
            "velocity": 0.4881889763779528
          },
          {
            "duration": 0.27272699999998906,
            "durationTicks": 192,
            "midi": 80,
            "name": "G#5",
            "ticks": 67008,
            "time": 95.181723,
            "velocity": 0.4881889763779528
          },
          {
            "duration": 0.27272699999998906,
            "durationTicks": 192,
            "midi": 80,
            "name": "G#5",
            "ticks": 67008,
            "time": 95.181723,
            "velocity": 0.4881889763779528
          },
          {
            "duration": 0.27272699999998906,
            "durationTicks": 192,
            "midi": 83,
            "name": "B5",
            "ticks": 67008,
            "time": 95.181723,
            "velocity": 0.4881889763779528
          },
          {
            "duration": 0.27272699999998906,
            "durationTicks": 192,
            "midi": 83,
            "name": "B5",
            "ticks": 67008,
            "time": 95.181723,
            "velocity": 0.4881889763779528
          },
          {
            "duration": 0.27272699999998906,
            "durationTicks": 192,
            "midi": 80,
            "name": "G#5",
            "ticks": 67008,
            "time": 95.181723,
            "velocity": 0.4881889763779528
          },
          {
            "duration": 0.27272699999998906,
            "durationTicks": 192,
            "midi": 83,
            "name": "B5",
            "ticks": 67008,
            "time": 95.181723,
            "velocity": 0.4881889763779528
          },
          {
            "duration": 0.27272699999998906,
            "durationTicks": 192,
            "midi": 83,
            "name": "B5",
            "ticks": 67008,
            "time": 95.181723,
            "velocity": 0.4881889763779528
          },
          {
            "duration": 0.27272699999998906,
            "durationTicks": 192,
            "midi": 83,
            "name": "B5",
            "ticks": 67008,
            "time": 95.181723,
            "velocity": 0.4881889763779528
          },
          {
            "duration": 0.27272699999998906,
            "durationTicks": 192,
            "midi": 80,
            "name": "G#5",
            "ticks": 67008,
            "time": 95.181723,
            "velocity": 0.4881889763779528
          },
          {
            "duration": 0.27272699999998906,
            "durationTicks": 192,
            "midi": 80,
            "name": "G#5",
            "ticks": 67008,
            "time": 95.181723,
            "velocity": 0.4881889763779528
          },
          {
            "duration": 0.27272699999998906,
            "durationTicks": 192,
            "midi": 83,
            "name": "B5",
            "ticks": 67008,
            "time": 95.181723,
            "velocity": 0.4881889763779528
          },
          {
            "duration": 0.5454540000000065,
            "durationTicks": 384,
            "midi": 85,
            "name": "C#6",
            "ticks": 67200,
            "time": 95.45445,
            "velocity": 0.4881889763779528
          },
          {
            "duration": 0.5454540000000065,
            "durationTicks": 384,
            "midi": 85,
            "name": "C#6",
            "ticks": 67200,
            "time": 95.45445,
            "velocity": 0.4881889763779528
          },
          {
            "duration": 0.5454540000000065,
            "durationTicks": 384,
            "midi": 80,
            "name": "G#5",
            "ticks": 67200,
            "time": 95.45445,
            "velocity": 0.4881889763779528
          },
          {
            "duration": 0.5454540000000065,
            "durationTicks": 384,
            "midi": 80,
            "name": "G#5",
            "ticks": 67200,
            "time": 95.45445,
            "velocity": 0.4881889763779528
          },
          {
            "duration": 0.5454540000000065,
            "durationTicks": 384,
            "midi": 85,
            "name": "C#6",
            "ticks": 67200,
            "time": 95.45445,
            "velocity": 0.4881889763779528
          },
          {
            "duration": 0.5454540000000065,
            "durationTicks": 384,
            "midi": 85,
            "name": "C#6",
            "ticks": 67200,
            "time": 95.45445,
            "velocity": 0.4881889763779528
          },
          {
            "duration": 0.5454540000000065,
            "durationTicks": 384,
            "midi": 80,
            "name": "G#5",
            "ticks": 67200,
            "time": 95.45445,
            "velocity": 0.4881889763779528
          },
          {
            "duration": 0.5454540000000065,
            "durationTicks": 384,
            "midi": 80,
            "name": "G#5",
            "ticks": 67200,
            "time": 95.45445,
            "velocity": 0.4881889763779528
          },
          {
            "duration": 0.5454540000000065,
            "durationTicks": 384,
            "midi": 80,
            "name": "G#5",
            "ticks": 67200,
            "time": 95.45445,
            "velocity": 0.4881889763779528
          },
          {
            "duration": 0.5454540000000065,
            "durationTicks": 384,
            "midi": 85,
            "name": "C#6",
            "ticks": 67200,
            "time": 95.45445,
            "velocity": 0.4881889763779528
          },
          {
            "duration": 0.5454540000000065,
            "durationTicks": 384,
            "midi": 80,
            "name": "G#5",
            "ticks": 67200,
            "time": 95.45445,
            "velocity": 0.4881889763779528
          },
          {
            "duration": 0.5454540000000065,
            "durationTicks": 384,
            "midi": 85,
            "name": "C#6",
            "ticks": 67200,
            "time": 95.45445,
            "velocity": 0.4881889763779528
          },
          {
            "duration": 0.4090905000000049,
            "durationTicks": 288,
            "midi": 68,
            "name": "G#4",
            "ticks": 67584,
            "time": 95.999904,
            "velocity": 0.4881889763779528
          },
          {
            "duration": 0.4090905000000049,
            "durationTicks": 288,
            "midi": 61,
            "name": "C#4",
            "ticks": 67584,
            "time": 95.999904,
            "velocity": 0.4881889763779528
          },
          {
            "duration": 0.4090905000000049,
            "durationTicks": 288,
            "midi": 73,
            "name": "C#5",
            "ticks": 67584,
            "time": 95.999904,
            "velocity": 0.4881889763779528
          },
          {
            "duration": 0.4090905000000049,
            "durationTicks": 288,
            "midi": 68,
            "name": "G#4",
            "ticks": 67584,
            "time": 95.999904,
            "velocity": 0.4881889763779528
          },
          {
            "duration": 0.4090905000000049,
            "durationTicks": 288,
            "midi": 61,
            "name": "C#4",
            "ticks": 67584,
            "time": 95.999904,
            "velocity": 0.4881889763779528
          },
          {
            "duration": 0.4090905000000049,
            "durationTicks": 288,
            "midi": 73,
            "name": "C#5",
            "ticks": 67584,
            "time": 95.999904,
            "velocity": 0.4881889763779528
          },
          {
            "duration": 0.4090905000000049,
            "durationTicks": 288,
            "midi": 61,
            "name": "C#4",
            "ticks": 67584,
            "time": 95.999904,
            "velocity": 0.4881889763779528
          },
          {
            "duration": 0.4090905000000049,
            "durationTicks": 288,
            "midi": 68,
            "name": "G#4",
            "ticks": 67584,
            "time": 95.999904,
            "velocity": 0.4881889763779528
          },
          {
            "duration": 0.4090905000000049,
            "durationTicks": 288,
            "midi": 73,
            "name": "C#5",
            "ticks": 67584,
            "time": 95.999904,
            "velocity": 0.4881889763779528
          },
          {
            "duration": 0.4090905000000049,
            "durationTicks": 288,
            "midi": 68,
            "name": "G#4",
            "ticks": 67584,
            "time": 95.999904,
            "velocity": 0.4881889763779528
          },
          {
            "duration": 0.4090905000000049,
            "durationTicks": 288,
            "midi": 61,
            "name": "C#4",
            "ticks": 67584,
            "time": 95.999904,
            "velocity": 0.4881889763779528
          },
          {
            "duration": 0.4090905000000049,
            "durationTicks": 288,
            "midi": 73,
            "name": "C#5",
            "ticks": 67584,
            "time": 95.999904,
            "velocity": 0.4881889763779528
          },
          {
            "duration": 0.4090905000000049,
            "durationTicks": 288,
            "midi": 73,
            "name": "C#5",
            "ticks": 67584,
            "time": 95.999904,
            "velocity": 0.4881889763779528
          },
          {
            "duration": 0.4090905000000049,
            "durationTicks": 288,
            "midi": 61,
            "name": "C#4",
            "ticks": 67584,
            "time": 95.999904,
            "velocity": 0.4881889763779528
          },
          {
            "duration": 0.4090905000000049,
            "durationTicks": 288,
            "midi": 73,
            "name": "C#5",
            "ticks": 67584,
            "time": 95.999904,
            "velocity": 0.4881889763779528
          },
          {
            "duration": 0.4090905000000049,
            "durationTicks": 288,
            "midi": 61,
            "name": "C#4",
            "ticks": 67584,
            "time": 95.999904,
            "velocity": 0.4881889763779528
          },
          {
            "duration": 0.4090905000000049,
            "durationTicks": 288,
            "midi": 68,
            "name": "G#4",
            "ticks": 67584,
            "time": 95.999904,
            "velocity": 0.4881889763779528
          },
          {
            "duration": 0.4090905000000049,
            "durationTicks": 288,
            "midi": 68,
            "name": "G#4",
            "ticks": 67584,
            "time": 95.999904,
            "velocity": 0.4881889763779528
          },
          {
            "duration": 0.27272699999998906,
            "durationTicks": 192,
            "midi": 80,
            "name": "G#5",
            "ticks": 67776,
            "time": 96.272631,
            "velocity": 0.4881889763779528
          },
          {
            "duration": 0.27272699999998906,
            "durationTicks": 192,
            "midi": 80,
            "name": "G#5",
            "ticks": 67776,
            "time": 96.272631,
            "velocity": 0.4881889763779528
          },
          {
            "duration": 0.27272699999998906,
            "durationTicks": 192,
            "midi": 92,
            "name": "G#6",
            "ticks": 67776,
            "time": 96.272631,
            "velocity": 0.4881889763779528
          },
          {
            "duration": 0.27272699999998906,
            "durationTicks": 192,
            "midi": 92,
            "name": "G#6",
            "ticks": 67776,
            "time": 96.272631,
            "velocity": 0.4881889763779528
          },
          {
            "duration": 0.27272699999998906,
            "durationTicks": 192,
            "midi": 92,
            "name": "G#6",
            "ticks": 67776,
            "time": 96.272631,
            "velocity": 0.4881889763779528
          },
          {
            "duration": 0.27272699999998906,
            "durationTicks": 192,
            "midi": 80,
            "name": "G#5",
            "ticks": 67776,
            "time": 96.272631,
            "velocity": 0.4881889763779528
          },
          {
            "duration": 0.27272699999998906,
            "durationTicks": 192,
            "midi": 92,
            "name": "G#6",
            "ticks": 67776,
            "time": 96.272631,
            "velocity": 0.4881889763779528
          },
          {
            "duration": 0.27272699999998906,
            "durationTicks": 192,
            "midi": 80,
            "name": "G#5",
            "ticks": 67776,
            "time": 96.272631,
            "velocity": 0.4881889763779528
          },
          {
            "duration": 0.27272699999998906,
            "durationTicks": 192,
            "midi": 80,
            "name": "G#5",
            "ticks": 67776,
            "time": 96.272631,
            "velocity": 0.4881889763779528
          },
          {
            "duration": 0.27272699999998906,
            "durationTicks": 192,
            "midi": 80,
            "name": "G#5",
            "ticks": 67776,
            "time": 96.272631,
            "velocity": 0.4881889763779528
          },
          {
            "duration": 0.27272699999998906,
            "durationTicks": 192,
            "midi": 92,
            "name": "G#6",
            "ticks": 67776,
            "time": 96.272631,
            "velocity": 0.4881889763779528
          },
          {
            "duration": 0.27272699999998906,
            "durationTicks": 192,
            "midi": 92,
            "name": "G#6",
            "ticks": 67776,
            "time": 96.272631,
            "velocity": 0.4881889763779528
          },
          {
            "duration": 0.681817499999994,
            "durationTicks": 480,
            "midi": 61,
            "name": "C#4",
            "ticks": 67872,
            "time": 96.4089945,
            "velocity": 0.4881889763779528
          },
          {
            "duration": 0.681817499999994,
            "durationTicks": 480,
            "midi": 68,
            "name": "G#4",
            "ticks": 67872,
            "time": 96.4089945,
            "velocity": 0.4881889763779528
          },
          {
            "duration": 0.681817499999994,
            "durationTicks": 480,
            "midi": 61,
            "name": "C#4",
            "ticks": 67872,
            "time": 96.4089945,
            "velocity": 0.4881889763779528
          },
          {
            "duration": 0.681817499999994,
            "durationTicks": 480,
            "midi": 68,
            "name": "G#4",
            "ticks": 67872,
            "time": 96.4089945,
            "velocity": 0.4881889763779528
          },
          {
            "duration": 0.681817499999994,
            "durationTicks": 480,
            "midi": 73,
            "name": "C#5",
            "ticks": 67872,
            "time": 96.4089945,
            "velocity": 0.4881889763779528
          },
          {
            "duration": 0.681817499999994,
            "durationTicks": 480,
            "midi": 61,
            "name": "C#4",
            "ticks": 67872,
            "time": 96.4089945,
            "velocity": 0.4881889763779528
          },
          {
            "duration": 0.681817499999994,
            "durationTicks": 480,
            "midi": 73,
            "name": "C#5",
            "ticks": 67872,
            "time": 96.4089945,
            "velocity": 0.4881889763779528
          },
          {
            "duration": 0.681817499999994,
            "durationTicks": 480,
            "midi": 68,
            "name": "G#4",
            "ticks": 67872,
            "time": 96.4089945,
            "velocity": 0.4881889763779528
          },
          {
            "duration": 0.681817499999994,
            "durationTicks": 480,
            "midi": 68,
            "name": "G#4",
            "ticks": 67872,
            "time": 96.4089945,
            "velocity": 0.4881889763779528
          },
          {
            "duration": 0.681817499999994,
            "durationTicks": 480,
            "midi": 68,
            "name": "G#4",
            "ticks": 67872,
            "time": 96.4089945,
            "velocity": 0.4881889763779528
          },
          {
            "duration": 0.681817499999994,
            "durationTicks": 480,
            "midi": 73,
            "name": "C#5",
            "ticks": 67872,
            "time": 96.4089945,
            "velocity": 0.4881889763779528
          },
          {
            "duration": 0.681817499999994,
            "durationTicks": 480,
            "midi": 68,
            "name": "G#4",
            "ticks": 67872,
            "time": 96.4089945,
            "velocity": 0.4881889763779528
          },
          {
            "duration": 0.681817499999994,
            "durationTicks": 480,
            "midi": 73,
            "name": "C#5",
            "ticks": 67872,
            "time": 96.4089945,
            "velocity": 0.4881889763779528
          },
          {
            "duration": 0.681817499999994,
            "durationTicks": 480,
            "midi": 73,
            "name": "C#5",
            "ticks": 67872,
            "time": 96.4089945,
            "velocity": 0.4881889763779528
          },
          {
            "duration": 0.681817499999994,
            "durationTicks": 480,
            "midi": 73,
            "name": "C#5",
            "ticks": 67872,
            "time": 96.4089945,
            "velocity": 0.4881889763779528
          },
          {
            "duration": 0.681817499999994,
            "durationTicks": 480,
            "midi": 61,
            "name": "C#4",
            "ticks": 67872,
            "time": 96.4089945,
            "velocity": 0.4881889763779528
          },
          {
            "duration": 0.681817499999994,
            "durationTicks": 480,
            "midi": 61,
            "name": "C#4",
            "ticks": 67872,
            "time": 96.4089945,
            "velocity": 0.4881889763779528
          },
          {
            "duration": 0.681817499999994,
            "durationTicks": 480,
            "midi": 61,
            "name": "C#4",
            "ticks": 67872,
            "time": 96.4089945,
            "velocity": 0.4881889763779528
          },
          {
            "duration": 0.13636350000000164,
            "durationTicks": 96,
            "midi": 92,
            "name": "G#6",
            "ticks": 67968,
            "time": 96.545358,
            "velocity": 0.4881889763779528
          },
          {
            "duration": 0.13636350000000164,
            "durationTicks": 96,
            "midi": 80,
            "name": "G#5",
            "ticks": 67968,
            "time": 96.545358,
            "velocity": 0.4881889763779528
          },
          {
            "duration": 0.13636350000000164,
            "durationTicks": 96,
            "midi": 80,
            "name": "G#5",
            "ticks": 67968,
            "time": 96.545358,
            "velocity": 0.4881889763779528
          },
          {
            "duration": 0.13636350000000164,
            "durationTicks": 96,
            "midi": 92,
            "name": "G#6",
            "ticks": 67968,
            "time": 96.545358,
            "velocity": 0.4881889763779528
          },
          {
            "duration": 0.13636350000000164,
            "durationTicks": 96,
            "midi": 80,
            "name": "G#5",
            "ticks": 67968,
            "time": 96.545358,
            "velocity": 0.4881889763779528
          },
          {
            "duration": 0.13636350000000164,
            "durationTicks": 96,
            "midi": 80,
            "name": "G#5",
            "ticks": 67968,
            "time": 96.545358,
            "velocity": 0.4881889763779528
          },
          {
            "duration": 0.13636350000000164,
            "durationTicks": 96,
            "midi": 92,
            "name": "G#6",
            "ticks": 67968,
            "time": 96.545358,
            "velocity": 0.4881889763779528
          },
          {
            "duration": 0.13636350000000164,
            "durationTicks": 96,
            "midi": 80,
            "name": "G#5",
            "ticks": 67968,
            "time": 96.545358,
            "velocity": 0.4881889763779528
          },
          {
            "duration": 0.13636350000000164,
            "durationTicks": 96,
            "midi": 80,
            "name": "G#5",
            "ticks": 67968,
            "time": 96.545358,
            "velocity": 0.4881889763779528
          },
          {
            "duration": 0.13636350000000164,
            "durationTicks": 96,
            "midi": 92,
            "name": "G#6",
            "ticks": 67968,
            "time": 96.545358,
            "velocity": 0.4881889763779528
          },
          {
            "duration": 0.13636350000000164,
            "durationTicks": 96,
            "midi": 92,
            "name": "G#6",
            "ticks": 67968,
            "time": 96.545358,
            "velocity": 0.4881889763779528
          },
          {
            "duration": 0.13636350000000164,
            "durationTicks": 96,
            "midi": 92,
            "name": "G#6",
            "ticks": 67968,
            "time": 96.545358,
            "velocity": 0.4881889763779528
          },
          {
            "duration": 0.13636350000000164,
            "durationTicks": 96,
            "midi": 78,
            "name": "F#5",
            "ticks": 68064,
            "time": 96.6817215,
            "velocity": 0.4881889763779528
          },
          {
            "duration": 0.13636350000000164,
            "durationTicks": 96,
            "midi": 90,
            "name": "F#6",
            "ticks": 68064,
            "time": 96.6817215,
            "velocity": 0.4881889763779528
          },
          {
            "duration": 0.13636350000000164,
            "durationTicks": 96,
            "midi": 90,
            "name": "F#6",
            "ticks": 68064,
            "time": 96.6817215,
            "velocity": 0.4881889763779528
          },
          {
            "duration": 0.13636350000000164,
            "durationTicks": 96,
            "midi": 90,
            "name": "F#6",
            "ticks": 68064,
            "time": 96.6817215,
            "velocity": 0.4881889763779528
          },
          {
            "duration": 0.13636350000000164,
            "durationTicks": 96,
            "midi": 78,
            "name": "F#5",
            "ticks": 68064,
            "time": 96.6817215,
            "velocity": 0.4881889763779528
          },
          {
            "duration": 0.13636350000000164,
            "durationTicks": 96,
            "midi": 78,
            "name": "F#5",
            "ticks": 68064,
            "time": 96.6817215,
            "velocity": 0.4881889763779528
          },
          {
            "duration": 0.13636350000000164,
            "durationTicks": 96,
            "midi": 90,
            "name": "F#6",
            "ticks": 68064,
            "time": 96.6817215,
            "velocity": 0.4881889763779528
          },
          {
            "duration": 0.13636350000000164,
            "durationTicks": 96,
            "midi": 78,
            "name": "F#5",
            "ticks": 68064,
            "time": 96.6817215,
            "velocity": 0.4881889763779528
          },
          {
            "duration": 0.13636350000000164,
            "durationTicks": 96,
            "midi": 90,
            "name": "F#6",
            "ticks": 68064,
            "time": 96.6817215,
            "velocity": 0.4881889763779528
          },
          {
            "duration": 0.13636350000000164,
            "durationTicks": 96,
            "midi": 78,
            "name": "F#5",
            "ticks": 68064,
            "time": 96.6817215,
            "velocity": 0.4881889763779528
          },
          {
            "duration": 0.13636350000000164,
            "durationTicks": 96,
            "midi": 78,
            "name": "F#5",
            "ticks": 68064,
            "time": 96.6817215,
            "velocity": 0.4881889763779528
          },
          {
            "duration": 0.13636350000000164,
            "durationTicks": 96,
            "midi": 90,
            "name": "F#6",
            "ticks": 68064,
            "time": 96.6817215,
            "velocity": 0.4881889763779528
          },
          {
            "duration": 0.13636350000000164,
            "durationTicks": 96,
            "midi": 76,
            "name": "E5",
            "ticks": 68160,
            "time": 96.818085,
            "velocity": 0.4881889763779528
          },
          {
            "duration": 0.13636350000000164,
            "durationTicks": 96,
            "midi": 76,
            "name": "E5",
            "ticks": 68160,
            "time": 96.818085,
            "velocity": 0.4881889763779528
          },
          {
            "duration": 0.13636350000000164,
            "durationTicks": 96,
            "midi": 88,
            "name": "E6",
            "ticks": 68160,
            "time": 96.818085,
            "velocity": 0.4881889763779528
          },
          {
            "duration": 0.13636350000000164,
            "durationTicks": 96,
            "midi": 76,
            "name": "E5",
            "ticks": 68160,
            "time": 96.818085,
            "velocity": 0.4881889763779528
          },
          {
            "duration": 0.13636350000000164,
            "durationTicks": 96,
            "midi": 88,
            "name": "E6",
            "ticks": 68160,
            "time": 96.818085,
            "velocity": 0.4881889763779528
          },
          {
            "duration": 0.13636350000000164,
            "durationTicks": 96,
            "midi": 88,
            "name": "E6",
            "ticks": 68160,
            "time": 96.818085,
            "velocity": 0.4881889763779528
          },
          {
            "duration": 0.13636350000000164,
            "durationTicks": 96,
            "midi": 88,
            "name": "E6",
            "ticks": 68160,
            "time": 96.818085,
            "velocity": 0.4881889763779528
          },
          {
            "duration": 0.13636350000000164,
            "durationTicks": 96,
            "midi": 76,
            "name": "E5",
            "ticks": 68160,
            "time": 96.818085,
            "velocity": 0.4881889763779528
          },
          {
            "duration": 0.13636350000000164,
            "durationTicks": 96,
            "midi": 76,
            "name": "E5",
            "ticks": 68160,
            "time": 96.818085,
            "velocity": 0.4881889763779528
          },
          {
            "duration": 0.13636350000000164,
            "durationTicks": 96,
            "midi": 88,
            "name": "E6",
            "ticks": 68160,
            "time": 96.818085,
            "velocity": 0.4881889763779528
          },
          {
            "duration": 0.13636350000000164,
            "durationTicks": 96,
            "midi": 76,
            "name": "E5",
            "ticks": 68160,
            "time": 96.818085,
            "velocity": 0.4881889763779528
          },
          {
            "duration": 0.13636350000000164,
            "durationTicks": 96,
            "midi": 88,
            "name": "E6",
            "ticks": 68160,
            "time": 96.818085,
            "velocity": 0.4881889763779528
          },
          {
            "duration": 0.13636350000000164,
            "durationTicks": 96,
            "midi": 78,
            "name": "F#5",
            "ticks": 68256,
            "time": 96.9544485,
            "velocity": 0.4881889763779528
          },
          {
            "duration": 0.13636350000000164,
            "durationTicks": 96,
            "midi": 78,
            "name": "F#5",
            "ticks": 68256,
            "time": 96.9544485,
            "velocity": 0.4881889763779528
          },
          {
            "duration": 0.13636350000000164,
            "durationTicks": 96,
            "midi": 78,
            "name": "F#5",
            "ticks": 68256,
            "time": 96.9544485,
            "velocity": 0.4881889763779528
          },
          {
            "duration": 0.13636350000000164,
            "durationTicks": 96,
            "midi": 90,
            "name": "F#6",
            "ticks": 68256,
            "time": 96.9544485,
            "velocity": 0.4881889763779528
          },
          {
            "duration": 0.13636350000000164,
            "durationTicks": 96,
            "midi": 78,
            "name": "F#5",
            "ticks": 68256,
            "time": 96.9544485,
            "velocity": 0.4881889763779528
          },
          {
            "duration": 0.13636350000000164,
            "durationTicks": 96,
            "midi": 90,
            "name": "F#6",
            "ticks": 68256,
            "time": 96.9544485,
            "velocity": 0.4881889763779528
          },
          {
            "duration": 0.13636350000000164,
            "durationTicks": 96,
            "midi": 90,
            "name": "F#6",
            "ticks": 68256,
            "time": 96.9544485,
            "velocity": 0.4881889763779528
          },
          {
            "duration": 0.13636350000000164,
            "durationTicks": 96,
            "midi": 90,
            "name": "F#6",
            "ticks": 68256,
            "time": 96.9544485,
            "velocity": 0.4881889763779528
          },
          {
            "duration": 0.13636350000000164,
            "durationTicks": 96,
            "midi": 78,
            "name": "F#5",
            "ticks": 68256,
            "time": 96.9544485,
            "velocity": 0.4881889763779528
          },
          {
            "duration": 0.13636350000000164,
            "durationTicks": 96,
            "midi": 90,
            "name": "F#6",
            "ticks": 68256,
            "time": 96.9544485,
            "velocity": 0.4881889763779528
          },
          {
            "duration": 0.13636350000000164,
            "durationTicks": 96,
            "midi": 90,
            "name": "F#6",
            "ticks": 68256,
            "time": 96.9544485,
            "velocity": 0.4881889763779528
          },
          {
            "duration": 0.13636350000000164,
            "durationTicks": 96,
            "midi": 78,
            "name": "F#5",
            "ticks": 68256,
            "time": 96.9544485,
            "velocity": 0.4881889763779528
          },
          {
            "duration": 0.4090905000000049,
            "durationTicks": 288,
            "midi": 59,
            "name": "B3",
            "ticks": 68352,
            "time": 97.090812,
            "velocity": 0.4881889763779528
          },
          {
            "duration": 0.4090905000000049,
            "durationTicks": 288,
            "midi": 68,
            "name": "G#4",
            "ticks": 68352,
            "time": 97.090812,
            "velocity": 0.4881889763779528
          },
          {
            "duration": 0.4090905000000049,
            "durationTicks": 288,
            "midi": 68,
            "name": "G#4",
            "ticks": 68352,
            "time": 97.090812,
            "velocity": 0.4881889763779528
          },
          {
            "duration": 0.2727270000000033,
            "durationTicks": 192,
            "midi": 88,
            "name": "E6",
            "ticks": 68352,
            "time": 97.090812,
            "velocity": 0.4881889763779528
          },
          {
            "duration": 0.4090905000000049,
            "durationTicks": 288,
            "midi": 71,
            "name": "B4",
            "ticks": 68352,
            "time": 97.090812,
            "velocity": 0.4881889763779528
          },
          {
            "duration": 0.4090905000000049,
            "durationTicks": 288,
            "midi": 68,
            "name": "G#4",
            "ticks": 68352,
            "time": 97.090812,
            "velocity": 0.4881889763779528
          },
          {
            "duration": 0.2727270000000033,
            "durationTicks": 192,
            "midi": 76,
            "name": "E5",
            "ticks": 68352,
            "time": 97.090812,
            "velocity": 0.4881889763779528
          },
          {
            "duration": 0.2727270000000033,
            "durationTicks": 192,
            "midi": 88,
            "name": "E6",
            "ticks": 68352,
            "time": 97.090812,
            "velocity": 0.4881889763779528
          },
          {
            "duration": 0.4090905000000049,
            "durationTicks": 288,
            "midi": 71,
            "name": "B4",
            "ticks": 68352,
            "time": 97.090812,
            "velocity": 0.4881889763779528
          },
          {
            "duration": 0.2727270000000033,
            "durationTicks": 192,
            "midi": 88,
            "name": "E6",
            "ticks": 68352,
            "time": 97.090812,
            "velocity": 0.4881889763779528
          },
          {
            "duration": 0.4090905000000049,
            "durationTicks": 288,
            "midi": 71,
            "name": "B4",
            "ticks": 68352,
            "time": 97.090812,
            "velocity": 0.4881889763779528
          },
          {
            "duration": 0.2727270000000033,
            "durationTicks": 192,
            "midi": 76,
            "name": "E5",
            "ticks": 68352,
            "time": 97.090812,
            "velocity": 0.4881889763779528
          },
          {
            "duration": 0.4090905000000049,
            "durationTicks": 288,
            "midi": 59,
            "name": "B3",
            "ticks": 68352,
            "time": 97.090812,
            "velocity": 0.4881889763779528
          },
          {
            "duration": 0.2727270000000033,
            "durationTicks": 192,
            "midi": 88,
            "name": "E6",
            "ticks": 68352,
            "time": 97.090812,
            "velocity": 0.4881889763779528
          },
          {
            "duration": 0.4090905000000049,
            "durationTicks": 288,
            "midi": 71,
            "name": "B4",
            "ticks": 68352,
            "time": 97.090812,
            "velocity": 0.4881889763779528
          },
          {
            "duration": 0.4090905000000049,
            "durationTicks": 288,
            "midi": 71,
            "name": "B4",
            "ticks": 68352,
            "time": 97.090812,
            "velocity": 0.4881889763779528
          },
          {
            "duration": 0.4090905000000049,
            "durationTicks": 288,
            "midi": 59,
            "name": "B3",
            "ticks": 68352,
            "time": 97.090812,
            "velocity": 0.4881889763779528
          },
          {
            "duration": 0.2727270000000033,
            "durationTicks": 192,
            "midi": 76,
            "name": "E5",
            "ticks": 68352,
            "time": 97.090812,
            "velocity": 0.4881889763779528
          },
          {
            "duration": 0.4090905000000049,
            "durationTicks": 288,
            "midi": 71,
            "name": "B4",
            "ticks": 68352,
            "time": 97.090812,
            "velocity": 0.4881889763779528
          },
          {
            "duration": 0.4090905000000049,
            "durationTicks": 288,
            "midi": 68,
            "name": "G#4",
            "ticks": 68352,
            "time": 97.090812,
            "velocity": 0.4881889763779528
          },
          {
            "duration": 0.4090905000000049,
            "durationTicks": 288,
            "midi": 59,
            "name": "B3",
            "ticks": 68352,
            "time": 97.090812,
            "velocity": 0.4881889763779528
          },
          {
            "duration": 0.4090905000000049,
            "durationTicks": 288,
            "midi": 68,
            "name": "G#4",
            "ticks": 68352,
            "time": 97.090812,
            "velocity": 0.4881889763779528
          },
          {
            "duration": 0.4090905000000049,
            "durationTicks": 288,
            "midi": 68,
            "name": "G#4",
            "ticks": 68352,
            "time": 97.090812,
            "velocity": 0.4881889763779528
          },
          {
            "duration": 0.4090905000000049,
            "durationTicks": 288,
            "midi": 59,
            "name": "B3",
            "ticks": 68352,
            "time": 97.090812,
            "velocity": 0.4881889763779528
          },
          {
            "duration": 0.4090905000000049,
            "durationTicks": 288,
            "midi": 59,
            "name": "B3",
            "ticks": 68352,
            "time": 97.090812,
            "velocity": 0.4881889763779528
          },
          {
            "duration": 0.2727270000000033,
            "durationTicks": 192,
            "midi": 88,
            "name": "E6",
            "ticks": 68352,
            "time": 97.090812,
            "velocity": 0.4881889763779528
          },
          {
            "duration": 0.2727270000000033,
            "durationTicks": 192,
            "midi": 76,
            "name": "E5",
            "ticks": 68352,
            "time": 97.090812,
            "velocity": 0.4881889763779528
          },
          {
            "duration": 0.2727270000000033,
            "durationTicks": 192,
            "midi": 76,
            "name": "E5",
            "ticks": 68352,
            "time": 97.090812,
            "velocity": 0.4881889763779528
          },
          {
            "duration": 0.2727270000000033,
            "durationTicks": 192,
            "midi": 88,
            "name": "E6",
            "ticks": 68352,
            "time": 97.090812,
            "velocity": 0.4881889763779528
          },
          {
            "duration": 0.2727270000000033,
            "durationTicks": 192,
            "midi": 76,
            "name": "E5",
            "ticks": 68352,
            "time": 97.090812,
            "velocity": 0.4881889763779528
          },
          {
            "duration": 0.27272699999998906,
            "durationTicks": 192,
            "midi": 92,
            "name": "G#6",
            "ticks": 68544,
            "time": 97.363539,
            "velocity": 0.4881889763779528
          },
          {
            "duration": 0.27272699999998906,
            "durationTicks": 192,
            "midi": 80,
            "name": "G#5",
            "ticks": 68544,
            "time": 97.363539,
            "velocity": 0.4881889763779528
          },
          {
            "duration": 0.27272699999998906,
            "durationTicks": 192,
            "midi": 92,
            "name": "G#6",
            "ticks": 68544,
            "time": 97.363539,
            "velocity": 0.4881889763779528
          },
          {
            "duration": 0.27272699999998906,
            "durationTicks": 192,
            "midi": 80,
            "name": "G#5",
            "ticks": 68544,
            "time": 97.363539,
            "velocity": 0.4881889763779528
          },
          {
            "duration": 0.27272699999998906,
            "durationTicks": 192,
            "midi": 92,
            "name": "G#6",
            "ticks": 68544,
            "time": 97.363539,
            "velocity": 0.4881889763779528
          },
          {
            "duration": 0.27272699999998906,
            "durationTicks": 192,
            "midi": 80,
            "name": "G#5",
            "ticks": 68544,
            "time": 97.363539,
            "velocity": 0.4881889763779528
          },
          {
            "duration": 0.27272699999998906,
            "durationTicks": 192,
            "midi": 80,
            "name": "G#5",
            "ticks": 68544,
            "time": 97.363539,
            "velocity": 0.4881889763779528
          },
          {
            "duration": 0.27272699999998906,
            "durationTicks": 192,
            "midi": 80,
            "name": "G#5",
            "ticks": 68544,
            "time": 97.363539,
            "velocity": 0.4881889763779528
          },
          {
            "duration": 0.27272699999998906,
            "durationTicks": 192,
            "midi": 92,
            "name": "G#6",
            "ticks": 68544,
            "time": 97.363539,
            "velocity": 0.4881889763779528
          },
          {
            "duration": 0.27272699999998906,
            "durationTicks": 192,
            "midi": 80,
            "name": "G#5",
            "ticks": 68544,
            "time": 97.363539,
            "velocity": 0.4881889763779528
          },
          {
            "duration": 0.27272699999998906,
            "durationTicks": 192,
            "midi": 92,
            "name": "G#6",
            "ticks": 68544,
            "time": 97.363539,
            "velocity": 0.4881889763779528
          },
          {
            "duration": 0.27272699999998906,
            "durationTicks": 192,
            "midi": 92,
            "name": "G#6",
            "ticks": 68544,
            "time": 97.363539,
            "velocity": 0.4881889763779528
          },
          {
            "duration": 0.681817499999994,
            "durationTicks": 480,
            "midi": 68,
            "name": "G#4",
            "ticks": 68640,
            "time": 97.4999025,
            "velocity": 0.4881889763779528
          },
          {
            "duration": 0.681817499999994,
            "durationTicks": 480,
            "midi": 59,
            "name": "B3",
            "ticks": 68640,
            "time": 97.4999025,
            "velocity": 0.4881889763779528
          },
          {
            "duration": 0.681817499999994,
            "durationTicks": 480,
            "midi": 68,
            "name": "G#4",
            "ticks": 68640,
            "time": 97.4999025,
            "velocity": 0.4881889763779528
          },
          {
            "duration": 0.681817499999994,
            "durationTicks": 480,
            "midi": 71,
            "name": "B4",
            "ticks": 68640,
            "time": 97.4999025,
            "velocity": 0.4881889763779528
          },
          {
            "duration": 0.681817499999994,
            "durationTicks": 480,
            "midi": 59,
            "name": "B3",
            "ticks": 68640,
            "time": 97.4999025,
            "velocity": 0.4881889763779528
          },
          {
            "duration": 0.681817499999994,
            "durationTicks": 480,
            "midi": 71,
            "name": "B4",
            "ticks": 68640,
            "time": 97.4999025,
            "velocity": 0.4881889763779528
          },
          {
            "duration": 0.681817499999994,
            "durationTicks": 480,
            "midi": 68,
            "name": "G#4",
            "ticks": 68640,
            "time": 97.4999025,
            "velocity": 0.4881889763779528
          },
          {
            "duration": 0.681817499999994,
            "durationTicks": 480,
            "midi": 59,
            "name": "B3",
            "ticks": 68640,
            "time": 97.4999025,
            "velocity": 0.4881889763779528
          },
          {
            "duration": 0.681817499999994,
            "durationTicks": 480,
            "midi": 68,
            "name": "G#4",
            "ticks": 68640,
            "time": 97.4999025,
            "velocity": 0.4881889763779528
          },
          {
            "duration": 0.681817499999994,
            "durationTicks": 480,
            "midi": 71,
            "name": "B4",
            "ticks": 68640,
            "time": 97.4999025,
            "velocity": 0.4881889763779528
          },
          {
            "duration": 0.681817499999994,
            "durationTicks": 480,
            "midi": 68,
            "name": "G#4",
            "ticks": 68640,
            "time": 97.4999025,
            "velocity": 0.4881889763779528
          },
          {
            "duration": 0.681817499999994,
            "durationTicks": 480,
            "midi": 59,
            "name": "B3",
            "ticks": 68640,
            "time": 97.4999025,
            "velocity": 0.4881889763779528
          },
          {
            "duration": 0.681817499999994,
            "durationTicks": 480,
            "midi": 71,
            "name": "B4",
            "ticks": 68640,
            "time": 97.4999025,
            "velocity": 0.4881889763779528
          },
          {
            "duration": 0.681817499999994,
            "durationTicks": 480,
            "midi": 59,
            "name": "B3",
            "ticks": 68640,
            "time": 97.4999025,
            "velocity": 0.4881889763779528
          },
          {
            "duration": 0.681817499999994,
            "durationTicks": 480,
            "midi": 68,
            "name": "G#4",
            "ticks": 68640,
            "time": 97.4999025,
            "velocity": 0.4881889763779528
          },
          {
            "duration": 0.681817499999994,
            "durationTicks": 480,
            "midi": 59,
            "name": "B3",
            "ticks": 68640,
            "time": 97.4999025,
            "velocity": 0.4881889763779528
          },
          {
            "duration": 0.681817499999994,
            "durationTicks": 480,
            "midi": 71,
            "name": "B4",
            "ticks": 68640,
            "time": 97.4999025,
            "velocity": 0.4881889763779528
          },
          {
            "duration": 0.681817499999994,
            "durationTicks": 480,
            "midi": 71,
            "name": "B4",
            "ticks": 68640,
            "time": 97.4999025,
            "velocity": 0.4881889763779528
          },
          {
            "duration": 0.13636350000000164,
            "durationTicks": 96,
            "midi": 92,
            "name": "G#6",
            "ticks": 68736,
            "time": 97.63626599999999,
            "velocity": 0.4881889763779528
          },
          {
            "duration": 0.13636350000000164,
            "durationTicks": 96,
            "midi": 80,
            "name": "G#5",
            "ticks": 68736,
            "time": 97.63626599999999,
            "velocity": 0.4881889763779528
          },
          {
            "duration": 0.13636350000000164,
            "durationTicks": 96,
            "midi": 80,
            "name": "G#5",
            "ticks": 68736,
            "time": 97.63626599999999,
            "velocity": 0.4881889763779528
          },
          {
            "duration": 0.13636350000000164,
            "durationTicks": 96,
            "midi": 80,
            "name": "G#5",
            "ticks": 68736,
            "time": 97.63626599999999,
            "velocity": 0.4881889763779528
          },
          {
            "duration": 0.13636350000000164,
            "durationTicks": 96,
            "midi": 92,
            "name": "G#6",
            "ticks": 68736,
            "time": 97.63626599999999,
            "velocity": 0.4881889763779528
          },
          {
            "duration": 0.13636350000000164,
            "durationTicks": 96,
            "midi": 92,
            "name": "G#6",
            "ticks": 68736,
            "time": 97.63626599999999,
            "velocity": 0.4881889763779528
          },
          {
            "duration": 0.13636350000000164,
            "durationTicks": 96,
            "midi": 92,
            "name": "G#6",
            "ticks": 68736,
            "time": 97.63626599999999,
            "velocity": 0.4881889763779528
          },
          {
            "duration": 0.13636350000000164,
            "durationTicks": 96,
            "midi": 92,
            "name": "G#6",
            "ticks": 68736,
            "time": 97.63626599999999,
            "velocity": 0.4881889763779528
          },
          {
            "duration": 0.13636350000000164,
            "durationTicks": 96,
            "midi": 80,
            "name": "G#5",
            "ticks": 68736,
            "time": 97.63626599999999,
            "velocity": 0.4881889763779528
          },
          {
            "duration": 0.13636350000000164,
            "durationTicks": 96,
            "midi": 80,
            "name": "G#5",
            "ticks": 68736,
            "time": 97.63626599999999,
            "velocity": 0.4881889763779528
          },
          {
            "duration": 0.13636350000000164,
            "durationTicks": 96,
            "midi": 80,
            "name": "G#5",
            "ticks": 68736,
            "time": 97.63626599999999,
            "velocity": 0.4881889763779528
          },
          {
            "duration": 0.13636350000000164,
            "durationTicks": 96,
            "midi": 92,
            "name": "G#6",
            "ticks": 68736,
            "time": 97.63626599999999,
            "velocity": 0.4881889763779528
          },
          {
            "duration": 0.13636350000000164,
            "durationTicks": 96,
            "midi": 78,
            "name": "F#5",
            "ticks": 68832,
            "time": 97.7726295,
            "velocity": 0.4881889763779528
          },
          {
            "duration": 0.13636350000000164,
            "durationTicks": 96,
            "midi": 90,
            "name": "F#6",
            "ticks": 68832,
            "time": 97.7726295,
            "velocity": 0.4881889763779528
          },
          {
            "duration": 0.13636350000000164,
            "durationTicks": 96,
            "midi": 90,
            "name": "F#6",
            "ticks": 68832,
            "time": 97.7726295,
            "velocity": 0.4881889763779528
          },
          {
            "duration": 0.13636350000000164,
            "durationTicks": 96,
            "midi": 78,
            "name": "F#5",
            "ticks": 68832,
            "time": 97.7726295,
            "velocity": 0.4881889763779528
          },
          {
            "duration": 0.13636350000000164,
            "durationTicks": 96,
            "midi": 90,
            "name": "F#6",
            "ticks": 68832,
            "time": 97.7726295,
            "velocity": 0.4881889763779528
          },
          {
            "duration": 0.13636350000000164,
            "durationTicks": 96,
            "midi": 90,
            "name": "F#6",
            "ticks": 68832,
            "time": 97.7726295,
            "velocity": 0.4881889763779528
          },
          {
            "duration": 0.13636350000000164,
            "durationTicks": 96,
            "midi": 78,
            "name": "F#5",
            "ticks": 68832,
            "time": 97.7726295,
            "velocity": 0.4881889763779528
          },
          {
            "duration": 0.13636350000000164,
            "durationTicks": 96,
            "midi": 78,
            "name": "F#5",
            "ticks": 68832,
            "time": 97.7726295,
            "velocity": 0.4881889763779528
          },
          {
            "duration": 0.13636350000000164,
            "durationTicks": 96,
            "midi": 78,
            "name": "F#5",
            "ticks": 68832,
            "time": 97.7726295,
            "velocity": 0.4881889763779528
          },
          {
            "duration": 0.13636350000000164,
            "durationTicks": 96,
            "midi": 90,
            "name": "F#6",
            "ticks": 68832,
            "time": 97.7726295,
            "velocity": 0.4881889763779528
          },
          {
            "duration": 0.13636350000000164,
            "durationTicks": 96,
            "midi": 90,
            "name": "F#6",
            "ticks": 68832,
            "time": 97.7726295,
            "velocity": 0.4881889763779528
          },
          {
            "duration": 0.13636350000000164,
            "durationTicks": 96,
            "midi": 78,
            "name": "F#5",
            "ticks": 68832,
            "time": 97.7726295,
            "velocity": 0.4881889763779528
          },
          {
            "duration": 0.13636350000000164,
            "durationTicks": 96,
            "midi": 88,
            "name": "E6",
            "ticks": 68928,
            "time": 97.908993,
            "velocity": 0.4881889763779528
          },
          {
            "duration": 0.13636350000000164,
            "durationTicks": 96,
            "midi": 88,
            "name": "E6",
            "ticks": 68928,
            "time": 97.908993,
            "velocity": 0.4881889763779528
          },
          {
            "duration": 0.13636350000000164,
            "durationTicks": 96,
            "midi": 88,
            "name": "E6",
            "ticks": 68928,
            "time": 97.908993,
            "velocity": 0.4881889763779528
          },
          {
            "duration": 0.13636350000000164,
            "durationTicks": 96,
            "midi": 76,
            "name": "E5",
            "ticks": 68928,
            "time": 97.908993,
            "velocity": 0.4881889763779528
          },
          {
            "duration": 0.13636350000000164,
            "durationTicks": 96,
            "midi": 88,
            "name": "E6",
            "ticks": 68928,
            "time": 97.908993,
            "velocity": 0.4881889763779528
          },
          {
            "duration": 0.13636350000000164,
            "durationTicks": 96,
            "midi": 76,
            "name": "E5",
            "ticks": 68928,
            "time": 97.908993,
            "velocity": 0.4881889763779528
          },
          {
            "duration": 0.13636350000000164,
            "durationTicks": 96,
            "midi": 76,
            "name": "E5",
            "ticks": 68928,
            "time": 97.908993,
            "velocity": 0.4881889763779528
          },
          {
            "duration": 0.13636350000000164,
            "durationTicks": 96,
            "midi": 88,
            "name": "E6",
            "ticks": 68928,
            "time": 97.908993,
            "velocity": 0.4881889763779528
          },
          {
            "duration": 0.13636350000000164,
            "durationTicks": 96,
            "midi": 88,
            "name": "E6",
            "ticks": 68928,
            "time": 97.908993,
            "velocity": 0.4881889763779528
          },
          {
            "duration": 0.13636350000000164,
            "durationTicks": 96,
            "midi": 76,
            "name": "E5",
            "ticks": 68928,
            "time": 97.908993,
            "velocity": 0.4881889763779528
          },
          {
            "duration": 0.13636350000000164,
            "durationTicks": 96,
            "midi": 76,
            "name": "E5",
            "ticks": 68928,
            "time": 97.908993,
            "velocity": 0.4881889763779528
          },
          {
            "duration": 0.13636350000000164,
            "durationTicks": 96,
            "midi": 76,
            "name": "E5",
            "ticks": 68928,
            "time": 97.908993,
            "velocity": 0.4881889763779528
          },
          {
            "duration": 0.13636350000000164,
            "durationTicks": 96,
            "midi": 78,
            "name": "F#5",
            "ticks": 69024,
            "time": 98.0453565,
            "velocity": 0.4881889763779528
          },
          {
            "duration": 0.13636350000000164,
            "durationTicks": 96,
            "midi": 90,
            "name": "F#6",
            "ticks": 69024,
            "time": 98.0453565,
            "velocity": 0.4881889763779528
          },
          {
            "duration": 0.13636350000000164,
            "durationTicks": 96,
            "midi": 90,
            "name": "F#6",
            "ticks": 69024,
            "time": 98.0453565,
            "velocity": 0.4881889763779528
          },
          {
            "duration": 0.13636350000000164,
            "durationTicks": 96,
            "midi": 78,
            "name": "F#5",
            "ticks": 69024,
            "time": 98.0453565,
            "velocity": 0.4881889763779528
          },
          {
            "duration": 0.13636350000000164,
            "durationTicks": 96,
            "midi": 78,
            "name": "F#5",
            "ticks": 69024,
            "time": 98.0453565,
            "velocity": 0.4881889763779528
          },
          {
            "duration": 0.13636350000000164,
            "durationTicks": 96,
            "midi": 78,
            "name": "F#5",
            "ticks": 69024,
            "time": 98.0453565,
            "velocity": 0.4881889763779528
          },
          {
            "duration": 0.13636350000000164,
            "durationTicks": 96,
            "midi": 78,
            "name": "F#5",
            "ticks": 69024,
            "time": 98.0453565,
            "velocity": 0.4881889763779528
          },
          {
            "duration": 0.13636350000000164,
            "durationTicks": 96,
            "midi": 90,
            "name": "F#6",
            "ticks": 69024,
            "time": 98.0453565,
            "velocity": 0.4881889763779528
          },
          {
            "duration": 0.13636350000000164,
            "durationTicks": 96,
            "midi": 90,
            "name": "F#6",
            "ticks": 69024,
            "time": 98.0453565,
            "velocity": 0.4881889763779528
          },
          {
            "duration": 0.13636350000000164,
            "durationTicks": 96,
            "midi": 90,
            "name": "F#6",
            "ticks": 69024,
            "time": 98.0453565,
            "velocity": 0.4881889763779528
          },
          {
            "duration": 0.13636350000000164,
            "durationTicks": 96,
            "midi": 90,
            "name": "F#6",
            "ticks": 69024,
            "time": 98.0453565,
            "velocity": 0.4881889763779528
          },
          {
            "duration": 0.13636350000000164,
            "durationTicks": 96,
            "midi": 78,
            "name": "F#5",
            "ticks": 69024,
            "time": 98.0453565,
            "velocity": 0.4881889763779528
          },
          {
            "duration": 0.4090905000000049,
            "durationTicks": 288,
            "midi": 64,
            "name": "E4",
            "ticks": 69120,
            "time": 98.18172,
            "velocity": 0.4881889763779528
          },
          {
            "duration": 0.2727270000000033,
            "durationTicks": 192,
            "midi": 76,
            "name": "E5",
            "ticks": 69120,
            "time": 98.18172,
            "velocity": 0.4881889763779528
          },
          {
            "duration": 0.2727270000000033,
            "durationTicks": 192,
            "midi": 76,
            "name": "E5",
            "ticks": 69120,
            "time": 98.18172,
            "velocity": 0.4881889763779528
          },
          {
            "duration": 0.4090905000000049,
            "durationTicks": 288,
            "midi": 57,
            "name": "A3",
            "ticks": 69120,
            "time": 98.18172,
            "velocity": 0.4881889763779528
          },
          {
            "duration": 0.2727270000000033,
            "durationTicks": 192,
            "midi": 88,
            "name": "E6",
            "ticks": 69120,
            "time": 98.18172,
            "velocity": 0.4881889763779528
          },
          {
            "duration": 0.4090905000000049,
            "durationTicks": 288,
            "midi": 57,
            "name": "A3",
            "ticks": 69120,
            "time": 98.18172,
            "velocity": 0.4881889763779528
          },
          {
            "duration": 0.2727270000000033,
            "durationTicks": 192,
            "midi": 76,
            "name": "E5",
            "ticks": 69120,
            "time": 98.18172,
            "velocity": 0.4881889763779528
          },
          {
            "duration": 0.4090905000000049,
            "durationTicks": 288,
            "midi": 69,
            "name": "A4",
            "ticks": 69120,
            "time": 98.18172,
            "velocity": 0.4881889763779528
          },
          {
            "duration": 0.4090905000000049,
            "durationTicks": 288,
            "midi": 57,
            "name": "A3",
            "ticks": 69120,
            "time": 98.18172,
            "velocity": 0.4881889763779528
          },
          {
            "duration": 0.4090905000000049,
            "durationTicks": 288,
            "midi": 69,
            "name": "A4",
            "ticks": 69120,
            "time": 98.18172,
            "velocity": 0.4881889763779528
          },
          {
            "duration": 0.4090905000000049,
            "durationTicks": 288,
            "midi": 57,
            "name": "A3",
            "ticks": 69120,
            "time": 98.18172,
            "velocity": 0.4881889763779528
          },
          {
            "duration": 0.4090905000000049,
            "durationTicks": 288,
            "midi": 64,
            "name": "E4",
            "ticks": 69120,
            "time": 98.18172,
            "velocity": 0.4881889763779528
          },
          {
            "duration": 0.4090905000000049,
            "durationTicks": 288,
            "midi": 64,
            "name": "E4",
            "ticks": 69120,
            "time": 98.18172,
            "velocity": 0.4881889763779528
          },
          {
            "duration": 0.2727270000000033,
            "durationTicks": 192,
            "midi": 88,
            "name": "E6",
            "ticks": 69120,
            "time": 98.18172,
            "velocity": 0.4881889763779528
          },
          {
            "duration": 0.2727270000000033,
            "durationTicks": 192,
            "midi": 88,
            "name": "E6",
            "ticks": 69120,
            "time": 98.18172,
            "velocity": 0.4881889763779528
          },
          {
            "duration": 0.4090905000000049,
            "durationTicks": 288,
            "midi": 69,
            "name": "A4",
            "ticks": 69120,
            "time": 98.18172,
            "velocity": 0.4881889763779528
          },
          {
            "duration": 0.4090905000000049,
            "durationTicks": 288,
            "midi": 64,
            "name": "E4",
            "ticks": 69120,
            "time": 98.18172,
            "velocity": 0.4881889763779528
          },
          {
            "duration": 0.2727270000000033,
            "durationTicks": 192,
            "midi": 88,
            "name": "E6",
            "ticks": 69120,
            "time": 98.18172,
            "velocity": 0.4881889763779528
          },
          {
            "duration": 0.4090905000000049,
            "durationTicks": 288,
            "midi": 64,
            "name": "E4",
            "ticks": 69120,
            "time": 98.18172,
            "velocity": 0.4881889763779528
          },
          {
            "duration": 0.2727270000000033,
            "durationTicks": 192,
            "midi": 76,
            "name": "E5",
            "ticks": 69120,
            "time": 98.18172,
            "velocity": 0.4881889763779528
          },
          {
            "duration": 0.4090905000000049,
            "durationTicks": 288,
            "midi": 69,
            "name": "A4",
            "ticks": 69120,
            "time": 98.18172,
            "velocity": 0.4881889763779528
          },
          {
            "duration": 0.2727270000000033,
            "durationTicks": 192,
            "midi": 88,
            "name": "E6",
            "ticks": 69120,
            "time": 98.18172,
            "velocity": 0.4881889763779528
          },
          {
            "duration": 0.4090905000000049,
            "durationTicks": 288,
            "midi": 69,
            "name": "A4",
            "ticks": 69120,
            "time": 98.18172,
            "velocity": 0.4881889763779528
          },
          {
            "duration": 0.4090905000000049,
            "durationTicks": 288,
            "midi": 57,
            "name": "A3",
            "ticks": 69120,
            "time": 98.18172,
            "velocity": 0.4881889763779528
          },
          {
            "duration": 0.2727270000000033,
            "durationTicks": 192,
            "midi": 88,
            "name": "E6",
            "ticks": 69120,
            "time": 98.18172,
            "velocity": 0.4881889763779528
          },
          {
            "duration": 0.2727270000000033,
            "durationTicks": 192,
            "midi": 76,
            "name": "E5",
            "ticks": 69120,
            "time": 98.18172,
            "velocity": 0.4881889763779528
          },
          {
            "duration": 0.4090905000000049,
            "durationTicks": 288,
            "midi": 57,
            "name": "A3",
            "ticks": 69120,
            "time": 98.18172,
            "velocity": 0.4881889763779528
          },
          {
            "duration": 0.2727270000000033,
            "durationTicks": 192,
            "midi": 76,
            "name": "E5",
            "ticks": 69120,
            "time": 98.18172,
            "velocity": 0.4881889763779528
          },
          {
            "duration": 0.4090905000000049,
            "durationTicks": 288,
            "midi": 69,
            "name": "A4",
            "ticks": 69120,
            "time": 98.18172,
            "velocity": 0.4881889763779528
          },
          {
            "duration": 0.4090905000000049,
            "durationTicks": 288,
            "midi": 64,
            "name": "E4",
            "ticks": 69120,
            "time": 98.18172,
            "velocity": 0.4881889763779528
          },
          {
            "duration": 0.2727270000000033,
            "durationTicks": 192,
            "midi": 80,
            "name": "G#5",
            "ticks": 69312,
            "time": 98.454447,
            "velocity": 0.4881889763779528
          },
          {
            "duration": 0.2727270000000033,
            "durationTicks": 192,
            "midi": 92,
            "name": "G#6",
            "ticks": 69312,
            "time": 98.454447,
            "velocity": 0.4881889763779528
          },
          {
            "duration": 0.2727270000000033,
            "durationTicks": 192,
            "midi": 80,
            "name": "G#5",
            "ticks": 69312,
            "time": 98.454447,
            "velocity": 0.4881889763779528
          },
          {
            "duration": 0.2727270000000033,
            "durationTicks": 192,
            "midi": 92,
            "name": "G#6",
            "ticks": 69312,
            "time": 98.454447,
            "velocity": 0.4881889763779528
          },
          {
            "duration": 0.2727270000000033,
            "durationTicks": 192,
            "midi": 80,
            "name": "G#5",
            "ticks": 69312,
            "time": 98.454447,
            "velocity": 0.4881889763779528
          },
          {
            "duration": 0.2727270000000033,
            "durationTicks": 192,
            "midi": 92,
            "name": "G#6",
            "ticks": 69312,
            "time": 98.454447,
            "velocity": 0.4881889763779528
          },
          {
            "duration": 0.2727270000000033,
            "durationTicks": 192,
            "midi": 80,
            "name": "G#5",
            "ticks": 69312,
            "time": 98.454447,
            "velocity": 0.4881889763779528
          },
          {
            "duration": 0.2727270000000033,
            "durationTicks": 192,
            "midi": 92,
            "name": "G#6",
            "ticks": 69312,
            "time": 98.454447,
            "velocity": 0.4881889763779528
          },
          {
            "duration": 0.2727270000000033,
            "durationTicks": 192,
            "midi": 80,
            "name": "G#5",
            "ticks": 69312,
            "time": 98.454447,
            "velocity": 0.4881889763779528
          },
          {
            "duration": 0.2727270000000033,
            "durationTicks": 192,
            "midi": 92,
            "name": "G#6",
            "ticks": 69312,
            "time": 98.454447,
            "velocity": 0.4881889763779528
          },
          {
            "duration": 0.2727270000000033,
            "durationTicks": 192,
            "midi": 92,
            "name": "G#6",
            "ticks": 69312,
            "time": 98.454447,
            "velocity": 0.4881889763779528
          },
          {
            "duration": 0.2727270000000033,
            "durationTicks": 192,
            "midi": 80,
            "name": "G#5",
            "ticks": 69312,
            "time": 98.454447,
            "velocity": 0.4881889763779528
          },
          {
            "duration": 0.681817499999994,
            "durationTicks": 480,
            "midi": 69,
            "name": "A4",
            "ticks": 69408,
            "time": 98.5908105,
            "velocity": 0.4881889763779528
          },
          {
            "duration": 0.681817499999994,
            "durationTicks": 480,
            "midi": 57,
            "name": "A3",
            "ticks": 69408,
            "time": 98.5908105,
            "velocity": 0.4881889763779528
          },
          {
            "duration": 0.681817499999994,
            "durationTicks": 480,
            "midi": 69,
            "name": "A4",
            "ticks": 69408,
            "time": 98.5908105,
            "velocity": 0.4881889763779528
          },
          {
            "duration": 0.681817499999994,
            "durationTicks": 480,
            "midi": 69,
            "name": "A4",
            "ticks": 69408,
            "time": 98.5908105,
            "velocity": 0.4881889763779528
          },
          {
            "duration": 0.681817499999994,
            "durationTicks": 480,
            "midi": 64,
            "name": "E4",
            "ticks": 69408,
            "time": 98.5908105,
            "velocity": 0.4881889763779528
          },
          {
            "duration": 0.681817499999994,
            "durationTicks": 480,
            "midi": 57,
            "name": "A3",
            "ticks": 69408,
            "time": 98.5908105,
            "velocity": 0.4881889763779528
          },
          {
            "duration": 0.681817499999994,
            "durationTicks": 480,
            "midi": 64,
            "name": "E4",
            "ticks": 69408,
            "time": 98.5908105,
            "velocity": 0.4881889763779528
          },
          {
            "duration": 0.681817499999994,
            "durationTicks": 480,
            "midi": 57,
            "name": "A3",
            "ticks": 69408,
            "time": 98.5908105,
            "velocity": 0.4881889763779528
          },
          {
            "duration": 0.681817499999994,
            "durationTicks": 480,
            "midi": 64,
            "name": "E4",
            "ticks": 69408,
            "time": 98.5908105,
            "velocity": 0.4881889763779528
          },
          {
            "duration": 0.681817499999994,
            "durationTicks": 480,
            "midi": 69,
            "name": "A4",
            "ticks": 69408,
            "time": 98.5908105,
            "velocity": 0.4881889763779528
          },
          {
            "duration": 0.681817499999994,
            "durationTicks": 480,
            "midi": 64,
            "name": "E4",
            "ticks": 69408,
            "time": 98.5908105,
            "velocity": 0.4881889763779528
          },
          {
            "duration": 0.681817499999994,
            "durationTicks": 480,
            "midi": 57,
            "name": "A3",
            "ticks": 69408,
            "time": 98.5908105,
            "velocity": 0.4881889763779528
          },
          {
            "duration": 0.681817499999994,
            "durationTicks": 480,
            "midi": 64,
            "name": "E4",
            "ticks": 69408,
            "time": 98.5908105,
            "velocity": 0.4881889763779528
          },
          {
            "duration": 0.681817499999994,
            "durationTicks": 480,
            "midi": 69,
            "name": "A4",
            "ticks": 69408,
            "time": 98.5908105,
            "velocity": 0.4881889763779528
          },
          {
            "duration": 0.681817499999994,
            "durationTicks": 480,
            "midi": 69,
            "name": "A4",
            "ticks": 69408,
            "time": 98.5908105,
            "velocity": 0.4881889763779528
          },
          {
            "duration": 0.681817499999994,
            "durationTicks": 480,
            "midi": 57,
            "name": "A3",
            "ticks": 69408,
            "time": 98.5908105,
            "velocity": 0.4881889763779528
          },
          {
            "duration": 0.681817499999994,
            "durationTicks": 480,
            "midi": 57,
            "name": "A3",
            "ticks": 69408,
            "time": 98.5908105,
            "velocity": 0.4881889763779528
          },
          {
            "duration": 0.681817499999994,
            "durationTicks": 480,
            "midi": 64,
            "name": "E4",
            "ticks": 69408,
            "time": 98.5908105,
            "velocity": 0.4881889763779528
          },
          {
            "duration": 0.13636349999998743,
            "durationTicks": 96,
            "midi": 80,
            "name": "G#5",
            "ticks": 69504,
            "time": 98.727174,
            "velocity": 0.4881889763779528
          },
          {
            "duration": 0.13636349999998743,
            "durationTicks": 96,
            "midi": 80,
            "name": "G#5",
            "ticks": 69504,
            "time": 98.727174,
            "velocity": 0.4881889763779528
          },
          {
            "duration": 0.13636349999998743,
            "durationTicks": 96,
            "midi": 92,
            "name": "G#6",
            "ticks": 69504,
            "time": 98.727174,
            "velocity": 0.4881889763779528
          },
          {
            "duration": 0.13636349999998743,
            "durationTicks": 96,
            "midi": 92,
            "name": "G#6",
            "ticks": 69504,
            "time": 98.727174,
            "velocity": 0.4881889763779528
          },
          {
            "duration": 0.13636349999998743,
            "durationTicks": 96,
            "midi": 80,
            "name": "G#5",
            "ticks": 69504,
            "time": 98.727174,
            "velocity": 0.4881889763779528
          },
          {
            "duration": 0.13636349999998743,
            "durationTicks": 96,
            "midi": 80,
            "name": "G#5",
            "ticks": 69504,
            "time": 98.727174,
            "velocity": 0.4881889763779528
          },
          {
            "duration": 0.13636349999998743,
            "durationTicks": 96,
            "midi": 80,
            "name": "G#5",
            "ticks": 69504,
            "time": 98.727174,
            "velocity": 0.4881889763779528
          },
          {
            "duration": 0.13636349999998743,
            "durationTicks": 96,
            "midi": 80,
            "name": "G#5",
            "ticks": 69504,
            "time": 98.727174,
            "velocity": 0.4881889763779528
          },
          {
            "duration": 0.13636349999998743,
            "durationTicks": 96,
            "midi": 92,
            "name": "G#6",
            "ticks": 69504,
            "time": 98.727174,
            "velocity": 0.4881889763779528
          },
          {
            "duration": 0.13636349999998743,
            "durationTicks": 96,
            "midi": 92,
            "name": "G#6",
            "ticks": 69504,
            "time": 98.727174,
            "velocity": 0.4881889763779528
          },
          {
            "duration": 0.13636349999998743,
            "durationTicks": 96,
            "midi": 92,
            "name": "G#6",
            "ticks": 69504,
            "time": 98.727174,
            "velocity": 0.4881889763779528
          },
          {
            "duration": 0.13636349999998743,
            "durationTicks": 96,
            "midi": 92,
            "name": "G#6",
            "ticks": 69504,
            "time": 98.727174,
            "velocity": 0.4881889763779528
          },
          {
            "duration": 0.13636350000000164,
            "durationTicks": 96,
            "midi": 90,
            "name": "F#6",
            "ticks": 69600,
            "time": 98.86353749999999,
            "velocity": 0.4881889763779528
          },
          {
            "duration": 0.13636350000000164,
            "durationTicks": 96,
            "midi": 78,
            "name": "F#5",
            "ticks": 69600,
            "time": 98.86353749999999,
            "velocity": 0.4881889763779528
          },
          {
            "duration": 0.13636350000000164,
            "durationTicks": 96,
            "midi": 90,
            "name": "F#6",
            "ticks": 69600,
            "time": 98.86353749999999,
            "velocity": 0.4881889763779528
          },
          {
            "duration": 0.13636350000000164,
            "durationTicks": 96,
            "midi": 90,
            "name": "F#6",
            "ticks": 69600,
            "time": 98.86353749999999,
            "velocity": 0.4881889763779528
          },
          {
            "duration": 0.13636350000000164,
            "durationTicks": 96,
            "midi": 78,
            "name": "F#5",
            "ticks": 69600,
            "time": 98.86353749999999,
            "velocity": 0.4881889763779528
          },
          {
            "duration": 0.13636350000000164,
            "durationTicks": 96,
            "midi": 78,
            "name": "F#5",
            "ticks": 69600,
            "time": 98.86353749999999,
            "velocity": 0.4881889763779528
          },
          {
            "duration": 0.13636350000000164,
            "durationTicks": 96,
            "midi": 90,
            "name": "F#6",
            "ticks": 69600,
            "time": 98.86353749999999,
            "velocity": 0.4881889763779528
          },
          {
            "duration": 0.13636350000000164,
            "durationTicks": 96,
            "midi": 90,
            "name": "F#6",
            "ticks": 69600,
            "time": 98.86353749999999,
            "velocity": 0.4881889763779528
          },
          {
            "duration": 0.13636350000000164,
            "durationTicks": 96,
            "midi": 78,
            "name": "F#5",
            "ticks": 69600,
            "time": 98.86353749999999,
            "velocity": 0.4881889763779528
          },
          {
            "duration": 0.13636350000000164,
            "durationTicks": 96,
            "midi": 90,
            "name": "F#6",
            "ticks": 69600,
            "time": 98.86353749999999,
            "velocity": 0.4881889763779528
          },
          {
            "duration": 0.13636350000000164,
            "durationTicks": 96,
            "midi": 78,
            "name": "F#5",
            "ticks": 69600,
            "time": 98.86353749999999,
            "velocity": 0.4881889763779528
          },
          {
            "duration": 0.13636350000000164,
            "durationTicks": 96,
            "midi": 78,
            "name": "F#5",
            "ticks": 69600,
            "time": 98.86353749999999,
            "velocity": 0.4881889763779528
          },
          {
            "duration": 0.13636350000000164,
            "durationTicks": 96,
            "midi": 88,
            "name": "E6",
            "ticks": 69696,
            "time": 98.999901,
            "velocity": 0.4881889763779528
          },
          {
            "duration": 0.13636350000000164,
            "durationTicks": 96,
            "midi": 76,
            "name": "E5",
            "ticks": 69696,
            "time": 98.999901,
            "velocity": 0.4881889763779528
          },
          {
            "duration": 0.13636350000000164,
            "durationTicks": 96,
            "midi": 76,
            "name": "E5",
            "ticks": 69696,
            "time": 98.999901,
            "velocity": 0.4881889763779528
          },
          {
            "duration": 0.13636350000000164,
            "durationTicks": 96,
            "midi": 88,
            "name": "E6",
            "ticks": 69696,
            "time": 98.999901,
            "velocity": 0.4881889763779528
          },
          {
            "duration": 0.13636350000000164,
            "durationTicks": 96,
            "midi": 88,
            "name": "E6",
            "ticks": 69696,
            "time": 98.999901,
            "velocity": 0.4881889763779528
          },
          {
            "duration": 0.13636350000000164,
            "durationTicks": 96,
            "midi": 88,
            "name": "E6",
            "ticks": 69696,
            "time": 98.999901,
            "velocity": 0.4881889763779528
          },
          {
            "duration": 0.13636350000000164,
            "durationTicks": 96,
            "midi": 76,
            "name": "E5",
            "ticks": 69696,
            "time": 98.999901,
            "velocity": 0.4881889763779528
          },
          {
            "duration": 0.13636350000000164,
            "durationTicks": 96,
            "midi": 76,
            "name": "E5",
            "ticks": 69696,
            "time": 98.999901,
            "velocity": 0.4881889763779528
          },
          {
            "duration": 0.13636350000000164,
            "durationTicks": 96,
            "midi": 76,
            "name": "E5",
            "ticks": 69696,
            "time": 98.999901,
            "velocity": 0.4881889763779528
          },
          {
            "duration": 0.13636350000000164,
            "durationTicks": 96,
            "midi": 88,
            "name": "E6",
            "ticks": 69696,
            "time": 98.999901,
            "velocity": 0.4881889763779528
          },
          {
            "duration": 0.13636350000000164,
            "durationTicks": 96,
            "midi": 76,
            "name": "E5",
            "ticks": 69696,
            "time": 98.999901,
            "velocity": 0.4881889763779528
          },
          {
            "duration": 0.13636350000000164,
            "durationTicks": 96,
            "midi": 88,
            "name": "E6",
            "ticks": 69696,
            "time": 98.999901,
            "velocity": 0.4881889763779528
          },
          {
            "duration": 0.13636350000000164,
            "durationTicks": 96,
            "midi": 90,
            "name": "F#6",
            "ticks": 69792,
            "time": 99.1362645,
            "velocity": 0.4881889763779528
          },
          {
            "duration": 0.13636350000000164,
            "durationTicks": 96,
            "midi": 78,
            "name": "F#5",
            "ticks": 69792,
            "time": 99.1362645,
            "velocity": 0.4881889763779528
          },
          {
            "duration": 0.13636350000000164,
            "durationTicks": 96,
            "midi": 78,
            "name": "F#5",
            "ticks": 69792,
            "time": 99.1362645,
            "velocity": 0.4881889763779528
          },
          {
            "duration": 0.13636350000000164,
            "durationTicks": 96,
            "midi": 90,
            "name": "F#6",
            "ticks": 69792,
            "time": 99.1362645,
            "velocity": 0.4881889763779528
          },
          {
            "duration": 0.13636350000000164,
            "durationTicks": 96,
            "midi": 78,
            "name": "F#5",
            "ticks": 69792,
            "time": 99.1362645,
            "velocity": 0.4881889763779528
          },
          {
            "duration": 0.13636350000000164,
            "durationTicks": 96,
            "midi": 78,
            "name": "F#5",
            "ticks": 69792,
            "time": 99.1362645,
            "velocity": 0.4881889763779528
          },
          {
            "duration": 0.13636350000000164,
            "durationTicks": 96,
            "midi": 78,
            "name": "F#5",
            "ticks": 69792,
            "time": 99.1362645,
            "velocity": 0.4881889763779528
          },
          {
            "duration": 0.13636350000000164,
            "durationTicks": 96,
            "midi": 90,
            "name": "F#6",
            "ticks": 69792,
            "time": 99.1362645,
            "velocity": 0.4881889763779528
          },
          {
            "duration": 0.13636350000000164,
            "durationTicks": 96,
            "midi": 78,
            "name": "F#5",
            "ticks": 69792,
            "time": 99.1362645,
            "velocity": 0.4881889763779528
          },
          {
            "duration": 0.13636350000000164,
            "durationTicks": 96,
            "midi": 90,
            "name": "F#6",
            "ticks": 69792,
            "time": 99.1362645,
            "velocity": 0.4881889763779528
          },
          {
            "duration": 0.13636350000000164,
            "durationTicks": 96,
            "midi": 90,
            "name": "F#6",
            "ticks": 69792,
            "time": 99.1362645,
            "velocity": 0.4881889763779528
          },
          {
            "duration": 0.13636350000000164,
            "durationTicks": 96,
            "midi": 90,
            "name": "F#6",
            "ticks": 69792,
            "time": 99.1362645,
            "velocity": 0.4881889763779528
          },
          {
            "duration": 0.4090905000000049,
            "durationTicks": 288,
            "midi": 63,
            "name": "D#4",
            "ticks": 69888,
            "time": 99.272628,
            "velocity": 0.4881889763779528
          },
          {
            "duration": 0.4090905000000049,
            "durationTicks": 288,
            "midi": 56,
            "name": "G#3",
            "ticks": 69888,
            "time": 99.272628,
            "velocity": 0.4881889763779528
          },
          {
            "duration": 0.4090905000000049,
            "durationTicks": 288,
            "midi": 68,
            "name": "G#4",
            "ticks": 69888,
            "time": 99.272628,
            "velocity": 0.4881889763779528
          },
          {
            "duration": 0.4090905000000049,
            "durationTicks": 288,
            "midi": 56,
            "name": "G#3",
            "ticks": 69888,
            "time": 99.272628,
            "velocity": 0.4881889763779528
          },
          {
            "duration": 0.4090905000000049,
            "durationTicks": 288,
            "midi": 63,
            "name": "D#4",
            "ticks": 69888,
            "time": 99.272628,
            "velocity": 0.4881889763779528
          },
          {
            "duration": 0.4090905000000049,
            "durationTicks": 288,
            "midi": 63,
            "name": "D#4",
            "ticks": 69888,
            "time": 99.272628,
            "velocity": 0.4881889763779528
          },
          {
            "duration": 0.13636350000000164,
            "durationTicks": 96,
            "midi": 92,
            "name": "G#6",
            "ticks": 69888,
            "time": 99.272628,
            "velocity": 0.4881889763779528
          },
          {
            "duration": 0.13636350000000164,
            "durationTicks": 96,
            "midi": 80,
            "name": "G#5",
            "ticks": 69888,
            "time": 99.272628,
            "velocity": 0.4881889763779528
          },
          {
            "duration": 0.4090905000000049,
            "durationTicks": 288,
            "midi": 68,
            "name": "G#4",
            "ticks": 69888,
            "time": 99.272628,
            "velocity": 0.4881889763779528
          },
          {
            "duration": 0.4090905000000049,
            "durationTicks": 288,
            "midi": 63,
            "name": "D#4",
            "ticks": 69888,
            "time": 99.272628,
            "velocity": 0.4881889763779528
          },
          {
            "duration": 0.4090905000000049,
            "durationTicks": 288,
            "midi": 68,
            "name": "G#4",
            "ticks": 69888,
            "time": 99.272628,
            "velocity": 0.4881889763779528
          },
          {
            "duration": 0.13636350000000164,
            "durationTicks": 96,
            "midi": 92,
            "name": "G#6",
            "ticks": 69888,
            "time": 99.272628,
            "velocity": 0.4881889763779528
          },
          {
            "duration": 0.13636350000000164,
            "durationTicks": 96,
            "midi": 80,
            "name": "G#5",
            "ticks": 69888,
            "time": 99.272628,
            "velocity": 0.4881889763779528
          },
          {
            "duration": 0.4090905000000049,
            "durationTicks": 288,
            "midi": 56,
            "name": "G#3",
            "ticks": 69888,
            "time": 99.272628,
            "velocity": 0.4881889763779528
          },
          {
            "duration": 0.4090905000000049,
            "durationTicks": 288,
            "midi": 68,
            "name": "G#4",
            "ticks": 69888,
            "time": 99.272628,
            "velocity": 0.4881889763779528
          },
          {
            "duration": 0.13636350000000164,
            "durationTicks": 96,
            "midi": 92,
            "name": "G#6",
            "ticks": 69888,
            "time": 99.272628,
            "velocity": 0.4881889763779528
          },
          {
            "duration": 0.13636350000000164,
            "durationTicks": 96,
            "midi": 80,
            "name": "G#5",
            "ticks": 69888,
            "time": 99.272628,
            "velocity": 0.4881889763779528
          },
          {
            "duration": 0.4090905000000049,
            "durationTicks": 288,
            "midi": 63,
            "name": "D#4",
            "ticks": 69888,
            "time": 99.272628,
            "velocity": 0.4881889763779528
          },
          {
            "duration": 0.13636350000000164,
            "durationTicks": 96,
            "midi": 92,
            "name": "G#6",
            "ticks": 69888,
            "time": 99.272628,
            "velocity": 0.4881889763779528
          },
          {
            "duration": 0.4090905000000049,
            "durationTicks": 288,
            "midi": 68,
            "name": "G#4",
            "ticks": 69888,
            "time": 99.272628,
            "velocity": 0.4881889763779528
          },
          {
            "duration": 0.4090905000000049,
            "durationTicks": 288,
            "midi": 56,
            "name": "G#3",
            "ticks": 69888,
            "time": 99.272628,
            "velocity": 0.4881889763779528
          },
          {
            "duration": 0.4090905000000049,
            "durationTicks": 288,
            "midi": 63,
            "name": "D#4",
            "ticks": 69888,
            "time": 99.272628,
            "velocity": 0.4881889763779528
          },
          {
            "duration": 0.13636350000000164,
            "durationTicks": 96,
            "midi": 80,
            "name": "G#5",
            "ticks": 69888,
            "time": 99.272628,
            "velocity": 0.4881889763779528
          },
          {
            "duration": 0.13636350000000164,
            "durationTicks": 96,
            "midi": 80,
            "name": "G#5",
            "ticks": 69888,
            "time": 99.272628,
            "velocity": 0.4881889763779528
          },
          {
            "duration": 0.4090905000000049,
            "durationTicks": 288,
            "midi": 56,
            "name": "G#3",
            "ticks": 69888,
            "time": 99.272628,
            "velocity": 0.4881889763779528
          },
          {
            "duration": 0.13636350000000164,
            "durationTicks": 96,
            "midi": 92,
            "name": "G#6",
            "ticks": 69888,
            "time": 99.272628,
            "velocity": 0.4881889763779528
          },
          {
            "duration": 0.13636350000000164,
            "durationTicks": 96,
            "midi": 80,
            "name": "G#5",
            "ticks": 69888,
            "time": 99.272628,
            "velocity": 0.4881889763779528
          },
          {
            "duration": 0.4090905000000049,
            "durationTicks": 288,
            "midi": 68,
            "name": "G#4",
            "ticks": 69888,
            "time": 99.272628,
            "velocity": 0.4881889763779528
          },
          {
            "duration": 0.13636350000000164,
            "durationTicks": 96,
            "midi": 92,
            "name": "G#6",
            "ticks": 69888,
            "time": 99.272628,
            "velocity": 0.4881889763779528
          },
          {
            "duration": 0.4090905000000049,
            "durationTicks": 288,
            "midi": 56,
            "name": "G#3",
            "ticks": 69888,
            "time": 99.272628,
            "velocity": 0.4881889763779528
          },
          {
            "duration": 0.13636350000000164,
            "durationTicks": 96,
            "midi": 81,
            "name": "A5",
            "ticks": 69984,
            "time": 99.4089915,
            "velocity": 0.4881889763779528
          },
          {
            "duration": 0.13636350000000164,
            "durationTicks": 96,
            "midi": 93,
            "name": "A6",
            "ticks": 69984,
            "time": 99.4089915,
            "velocity": 0.4881889763779528
          },
          {
            "duration": 0.13636350000000164,
            "durationTicks": 96,
            "midi": 81,
            "name": "A5",
            "ticks": 69984,
            "time": 99.4089915,
            "velocity": 0.4881889763779528
          },
          {
            "duration": 0.13636350000000164,
            "durationTicks": 96,
            "midi": 93,
            "name": "A6",
            "ticks": 69984,
            "time": 99.4089915,
            "velocity": 0.4881889763779528
          },
          {
            "duration": 0.13636350000000164,
            "durationTicks": 96,
            "midi": 81,
            "name": "A5",
            "ticks": 69984,
            "time": 99.4089915,
            "velocity": 0.4881889763779528
          },
          {
            "duration": 0.13636350000000164,
            "durationTicks": 96,
            "midi": 81,
            "name": "A5",
            "ticks": 69984,
            "time": 99.4089915,
            "velocity": 0.4881889763779528
          },
          {
            "duration": 0.13636350000000164,
            "durationTicks": 96,
            "midi": 81,
            "name": "A5",
            "ticks": 69984,
            "time": 99.4089915,
            "velocity": 0.4881889763779528
          },
          {
            "duration": 0.13636350000000164,
            "durationTicks": 96,
            "midi": 93,
            "name": "A6",
            "ticks": 69984,
            "time": 99.4089915,
            "velocity": 0.4881889763779528
          },
          {
            "duration": 0.13636350000000164,
            "durationTicks": 96,
            "midi": 93,
            "name": "A6",
            "ticks": 69984,
            "time": 99.4089915,
            "velocity": 0.4881889763779528
          },
          {
            "duration": 0.13636350000000164,
            "durationTicks": 96,
            "midi": 93,
            "name": "A6",
            "ticks": 69984,
            "time": 99.4089915,
            "velocity": 0.4881889763779528
          },
          {
            "duration": 0.13636350000000164,
            "durationTicks": 96,
            "midi": 81,
            "name": "A5",
            "ticks": 69984,
            "time": 99.4089915,
            "velocity": 0.4881889763779528
          },
          {
            "duration": 0.13636350000000164,
            "durationTicks": 96,
            "midi": 93,
            "name": "A6",
            "ticks": 69984,
            "time": 99.4089915,
            "velocity": 0.4881889763779528
          },
          {
            "duration": 0.13636350000000164,
            "durationTicks": 96,
            "midi": 80,
            "name": "G#5",
            "ticks": 70080,
            "time": 99.545355,
            "velocity": 0.4881889763779528
          },
          {
            "duration": 0.13636350000000164,
            "durationTicks": 96,
            "midi": 80,
            "name": "G#5",
            "ticks": 70080,
            "time": 99.545355,
            "velocity": 0.4881889763779528
          },
          {
            "duration": 0.13636350000000164,
            "durationTicks": 96,
            "midi": 92,
            "name": "G#6",
            "ticks": 70080,
            "time": 99.545355,
            "velocity": 0.4881889763779528
          },
          {
            "duration": 0.13636350000000164,
            "durationTicks": 96,
            "midi": 92,
            "name": "G#6",
            "ticks": 70080,
            "time": 99.545355,
            "velocity": 0.4881889763779528
          },
          {
            "duration": 0.13636350000000164,
            "durationTicks": 96,
            "midi": 80,
            "name": "G#5",
            "ticks": 70080,
            "time": 99.545355,
            "velocity": 0.4881889763779528
          },
          {
            "duration": 0.13636350000000164,
            "durationTicks": 96,
            "midi": 92,
            "name": "G#6",
            "ticks": 70080,
            "time": 99.545355,
            "velocity": 0.4881889763779528
          },
          {
            "duration": 0.13636350000000164,
            "durationTicks": 96,
            "midi": 80,
            "name": "G#5",
            "ticks": 70080,
            "time": 99.545355,
            "velocity": 0.4881889763779528
          },
          {
            "duration": 0.13636350000000164,
            "durationTicks": 96,
            "midi": 92,
            "name": "G#6",
            "ticks": 70080,
            "time": 99.545355,
            "velocity": 0.4881889763779528
          },
          {
            "duration": 0.13636350000000164,
            "durationTicks": 96,
            "midi": 92,
            "name": "G#6",
            "ticks": 70080,
            "time": 99.545355,
            "velocity": 0.4881889763779528
          },
          {
            "duration": 0.13636350000000164,
            "durationTicks": 96,
            "midi": 80,
            "name": "G#5",
            "ticks": 70080,
            "time": 99.545355,
            "velocity": 0.4881889763779528
          },
          {
            "duration": 0.13636350000000164,
            "durationTicks": 96,
            "midi": 80,
            "name": "G#5",
            "ticks": 70080,
            "time": 99.545355,
            "velocity": 0.4881889763779528
          },
          {
            "duration": 0.13636350000000164,
            "durationTicks": 96,
            "midi": 92,
            "name": "G#6",
            "ticks": 70080,
            "time": 99.545355,
            "velocity": 0.4881889763779528
          },
          {
            "duration": 0.681817499999994,
            "durationTicks": 480,
            "midi": 88,
            "name": "E6",
            "ticks": 70176,
            "time": 99.6817185,
            "velocity": 0.4881889763779528
          },
          {
            "duration": 0.681817499999994,
            "durationTicks": 480,
            "midi": 56,
            "name": "G#3",
            "ticks": 70176,
            "time": 99.6817185,
            "velocity": 0.4881889763779528
          },
          {
            "duration": 0.681817499999994,
            "durationTicks": 480,
            "midi": 63,
            "name": "D#4",
            "ticks": 70176,
            "time": 99.6817185,
            "velocity": 0.4881889763779528
          },
          {
            "duration": 0.681817499999994,
            "durationTicks": 480,
            "midi": 68,
            "name": "G#4",
            "ticks": 70176,
            "time": 99.6817185,
            "velocity": 0.4881889763779528
          },
          {
            "duration": 0.681817499999994,
            "durationTicks": 480,
            "midi": 88,
            "name": "E6",
            "ticks": 70176,
            "time": 99.6817185,
            "velocity": 0.4881889763779528
          },
          {
            "duration": 0.681817499999994,
            "durationTicks": 480,
            "midi": 88,
            "name": "E6",
            "ticks": 70176,
            "time": 99.6817185,
            "velocity": 0.4881889763779528
          },
          {
            "duration": 0.681817499999994,
            "durationTicks": 480,
            "midi": 56,
            "name": "G#3",
            "ticks": 70176,
            "time": 99.6817185,
            "velocity": 0.4881889763779528
          },
          {
            "duration": 0.681817499999994,
            "durationTicks": 480,
            "midi": 76,
            "name": "E5",
            "ticks": 70176,
            "time": 99.6817185,
            "velocity": 0.4881889763779528
          },
          {
            "duration": 0.681817499999994,
            "durationTicks": 480,
            "midi": 56,
            "name": "G#3",
            "ticks": 70176,
            "time": 99.6817185,
            "velocity": 0.4881889763779528
          },
          {
            "duration": 0.681817499999994,
            "durationTicks": 480,
            "midi": 68,
            "name": "G#4",
            "ticks": 70176,
            "time": 99.6817185,
            "velocity": 0.4881889763779528
          },
          {
            "duration": 0.681817499999994,
            "durationTicks": 480,
            "midi": 68,
            "name": "G#4",
            "ticks": 70176,
            "time": 99.6817185,
            "velocity": 0.4881889763779528
          },
          {
            "duration": 0.681817499999994,
            "durationTicks": 480,
            "midi": 56,
            "name": "G#3",
            "ticks": 70176,
            "time": 99.6817185,
            "velocity": 0.4881889763779528
          },
          {
            "duration": 0.681817499999994,
            "durationTicks": 480,
            "midi": 63,
            "name": "D#4",
            "ticks": 70176,
            "time": 99.6817185,
            "velocity": 0.4881889763779528
          },
          {
            "duration": 0.681817499999994,
            "durationTicks": 480,
            "midi": 76,
            "name": "E5",
            "ticks": 70176,
            "time": 99.6817185,
            "velocity": 0.4881889763779528
          },
          {
            "duration": 0.681817499999994,
            "durationTicks": 480,
            "midi": 68,
            "name": "G#4",
            "ticks": 70176,
            "time": 99.6817185,
            "velocity": 0.4881889763779528
          },
          {
            "duration": 0.681817499999994,
            "durationTicks": 480,
            "midi": 56,
            "name": "G#3",
            "ticks": 70176,
            "time": 99.6817185,
            "velocity": 0.4881889763779528
          },
          {
            "duration": 0.681817499999994,
            "durationTicks": 480,
            "midi": 56,
            "name": "G#3",
            "ticks": 70176,
            "time": 99.6817185,
            "velocity": 0.4881889763779528
          },
          {
            "duration": 0.681817499999994,
            "durationTicks": 480,
            "midi": 68,
            "name": "G#4",
            "ticks": 70176,
            "time": 99.6817185,
            "velocity": 0.4881889763779528
          },
          {
            "duration": 0.681817499999994,
            "durationTicks": 480,
            "midi": 63,
            "name": "D#4",
            "ticks": 70176,
            "time": 99.6817185,
            "velocity": 0.4881889763779528
          },
          {
            "duration": 0.681817499999994,
            "durationTicks": 480,
            "midi": 68,
            "name": "G#4",
            "ticks": 70176,
            "time": 99.6817185,
            "velocity": 0.4881889763779528
          },
          {
            "duration": 0.681817499999994,
            "durationTicks": 480,
            "midi": 63,
            "name": "D#4",
            "ticks": 70176,
            "time": 99.6817185,
            "velocity": 0.4881889763779528
          },
          {
            "duration": 0.681817499999994,
            "durationTicks": 480,
            "midi": 88,
            "name": "E6",
            "ticks": 70176,
            "time": 99.6817185,
            "velocity": 0.4881889763779528
          },
          {
            "duration": 0.681817499999994,
            "durationTicks": 480,
            "midi": 63,
            "name": "D#4",
            "ticks": 70176,
            "time": 99.6817185,
            "velocity": 0.4881889763779528
          },
          {
            "duration": 0.681817499999994,
            "durationTicks": 480,
            "midi": 63,
            "name": "D#4",
            "ticks": 70176,
            "time": 99.6817185,
            "velocity": 0.4881889763779528
          },
          {
            "duration": 0.681817499999994,
            "durationTicks": 480,
            "midi": 76,
            "name": "E5",
            "ticks": 70176,
            "time": 99.6817185,
            "velocity": 0.4881889763779528
          },
          {
            "duration": 0.681817499999994,
            "durationTicks": 480,
            "midi": 76,
            "name": "E5",
            "ticks": 70176,
            "time": 99.6817185,
            "velocity": 0.4881889763779528
          },
          {
            "duration": 0.681817499999994,
            "durationTicks": 480,
            "midi": 88,
            "name": "E6",
            "ticks": 70176,
            "time": 99.6817185,
            "velocity": 0.4881889763779528
          },
          {
            "duration": 0.681817499999994,
            "durationTicks": 480,
            "midi": 76,
            "name": "E5",
            "ticks": 70176,
            "time": 99.6817185,
            "velocity": 0.4881889763779528
          },
          {
            "duration": 0.681817499999994,
            "durationTicks": 480,
            "midi": 88,
            "name": "E6",
            "ticks": 70176,
            "time": 99.6817185,
            "velocity": 0.4881889763779528
          },
          {
            "duration": 0.681817499999994,
            "durationTicks": 480,
            "midi": 76,
            "name": "E5",
            "ticks": 70176,
            "time": 99.6817185,
            "velocity": 0.4881889763779528
          },
          {
            "duration": 0.4090905000000049,
            "durationTicks": 288,
            "midi": 66,
            "name": "F#4",
            "ticks": 70656,
            "time": 100.363536,
            "velocity": 0.4881889763779528
          },
          {
            "duration": 0.4090905000000049,
            "durationTicks": 288,
            "midi": 54,
            "name": "F#3",
            "ticks": 70656,
            "time": 100.363536,
            "velocity": 0.4881889763779528
          },
          {
            "duration": 0.4090905000000049,
            "durationTicks": 288,
            "midi": 61,
            "name": "C#4",
            "ticks": 70656,
            "time": 100.363536,
            "velocity": 0.4881889763779528
          },
          {
            "duration": 0.4090905000000049,
            "durationTicks": 288,
            "midi": 66,
            "name": "F#4",
            "ticks": 70656,
            "time": 100.363536,
            "velocity": 0.4881889763779528
          },
          {
            "duration": 0.4090905000000049,
            "durationTicks": 288,
            "midi": 61,
            "name": "C#4",
            "ticks": 70656,
            "time": 100.363536,
            "velocity": 0.4881889763779528
          },
          {
            "duration": 0.4090905000000049,
            "durationTicks": 288,
            "midi": 54,
            "name": "F#3",
            "ticks": 70656,
            "time": 100.363536,
            "velocity": 0.4881889763779528
          },
          {
            "duration": 0.4090905000000049,
            "durationTicks": 288,
            "midi": 54,
            "name": "F#3",
            "ticks": 70656,
            "time": 100.363536,
            "velocity": 0.4881889763779528
          },
          {
            "duration": 0.4090905000000049,
            "durationTicks": 288,
            "midi": 61,
            "name": "C#4",
            "ticks": 70656,
            "time": 100.363536,
            "velocity": 0.4881889763779528
          },
          {
            "duration": 0.4090905000000049,
            "durationTicks": 288,
            "midi": 66,
            "name": "F#4",
            "ticks": 70656,
            "time": 100.363536,
            "velocity": 0.4881889763779528
          },
          {
            "duration": 0.4090905000000049,
            "durationTicks": 288,
            "midi": 66,
            "name": "F#4",
            "ticks": 70656,
            "time": 100.363536,
            "velocity": 0.4881889763779528
          },
          {
            "duration": 0.4090905000000049,
            "durationTicks": 288,
            "midi": 54,
            "name": "F#3",
            "ticks": 70656,
            "time": 100.363536,
            "velocity": 0.4881889763779528
          },
          {
            "duration": 0.4090905000000049,
            "durationTicks": 288,
            "midi": 54,
            "name": "F#3",
            "ticks": 70656,
            "time": 100.363536,
            "velocity": 0.4881889763779528
          },
          {
            "duration": 0.4090905000000049,
            "durationTicks": 288,
            "midi": 61,
            "name": "C#4",
            "ticks": 70656,
            "time": 100.363536,
            "velocity": 0.4881889763779528
          },
          {
            "duration": 0.4090905000000049,
            "durationTicks": 288,
            "midi": 61,
            "name": "C#4",
            "ticks": 70656,
            "time": 100.363536,
            "velocity": 0.4881889763779528
          },
          {
            "duration": 0.4090905000000049,
            "durationTicks": 288,
            "midi": 66,
            "name": "F#4",
            "ticks": 70656,
            "time": 100.363536,
            "velocity": 0.4881889763779528
          },
          {
            "duration": 0.4090905000000049,
            "durationTicks": 288,
            "midi": 54,
            "name": "F#3",
            "ticks": 70656,
            "time": 100.363536,
            "velocity": 0.4881889763779528
          },
          {
            "duration": 0.4090905000000049,
            "durationTicks": 288,
            "midi": 66,
            "name": "F#4",
            "ticks": 70656,
            "time": 100.363536,
            "velocity": 0.4881889763779528
          },
          {
            "duration": 0.4090905000000049,
            "durationTicks": 288,
            "midi": 61,
            "name": "C#4",
            "ticks": 70656,
            "time": 100.363536,
            "velocity": 0.4881889763779528
          },
          {
            "duration": 0.13636350000000164,
            "durationTicks": 96,
            "midi": 88,
            "name": "E6",
            "ticks": 70848,
            "time": 100.636263,
            "velocity": 0.4881889763779528
          },
          {
            "duration": 0.13636350000000164,
            "durationTicks": 96,
            "midi": 88,
            "name": "E6",
            "ticks": 70848,
            "time": 100.636263,
            "velocity": 0.4881889763779528
          },
          {
            "duration": 0.13636350000000164,
            "durationTicks": 96,
            "midi": 76,
            "name": "E5",
            "ticks": 70848,
            "time": 100.636263,
            "velocity": 0.4881889763779528
          },
          {
            "duration": 0.13636350000000164,
            "durationTicks": 96,
            "midi": 76,
            "name": "E5",
            "ticks": 70848,
            "time": 100.636263,
            "velocity": 0.4881889763779528
          },
          {
            "duration": 0.13636350000000164,
            "durationTicks": 96,
            "midi": 76,
            "name": "E5",
            "ticks": 70848,
            "time": 100.636263,
            "velocity": 0.4881889763779528
          },
          {
            "duration": 0.13636350000000164,
            "durationTicks": 96,
            "midi": 76,
            "name": "E5",
            "ticks": 70848,
            "time": 100.636263,
            "velocity": 0.4881889763779528
          },
          {
            "duration": 0.13636350000000164,
            "durationTicks": 96,
            "midi": 76,
            "name": "E5",
            "ticks": 70848,
            "time": 100.636263,
            "velocity": 0.4881889763779528
          },
          {
            "duration": 0.13636350000000164,
            "durationTicks": 96,
            "midi": 88,
            "name": "E6",
            "ticks": 70848,
            "time": 100.636263,
            "velocity": 0.4881889763779528
          },
          {
            "duration": 0.13636350000000164,
            "durationTicks": 96,
            "midi": 76,
            "name": "E5",
            "ticks": 70848,
            "time": 100.636263,
            "velocity": 0.4881889763779528
          },
          {
            "duration": 0.13636350000000164,
            "durationTicks": 96,
            "midi": 88,
            "name": "E6",
            "ticks": 70848,
            "time": 100.636263,
            "velocity": 0.4881889763779528
          },
          {
            "duration": 0.13636350000000164,
            "durationTicks": 96,
            "midi": 88,
            "name": "E6",
            "ticks": 70848,
            "time": 100.636263,
            "velocity": 0.4881889763779528
          },
          {
            "duration": 0.13636350000000164,
            "durationTicks": 96,
            "midi": 88,
            "name": "E6",
            "ticks": 70848,
            "time": 100.636263,
            "velocity": 0.4881889763779528
          },
          {
            "duration": 0.13636350000000164,
            "durationTicks": 96,
            "midi": 88,
            "name": "E6",
            "ticks": 70944,
            "time": 100.7726265,
            "velocity": 0.4881889763779528
          },
          {
            "duration": 0.681817499999994,
            "durationTicks": 480,
            "midi": 66,
            "name": "F#4",
            "ticks": 70944,
            "time": 100.7726265,
            "velocity": 0.4881889763779528
          },
          {
            "duration": 0.13636350000000164,
            "durationTicks": 96,
            "midi": 76,
            "name": "E5",
            "ticks": 70944,
            "time": 100.7726265,
            "velocity": 0.4881889763779528
          },
          {
            "duration": 0.681817499999994,
            "durationTicks": 480,
            "midi": 54,
            "name": "F#3",
            "ticks": 70944,
            "time": 100.7726265,
            "velocity": 0.4881889763779528
          },
          {
            "duration": 0.681817499999994,
            "durationTicks": 480,
            "midi": 66,
            "name": "F#4",
            "ticks": 70944,
            "time": 100.7726265,
            "velocity": 0.4881889763779528
          },
          {
            "duration": 0.13636350000000164,
            "durationTicks": 96,
            "midi": 76,
            "name": "E5",
            "ticks": 70944,
            "time": 100.7726265,
            "velocity": 0.4881889763779528
          },
          {
            "duration": 0.681817499999994,
            "durationTicks": 480,
            "midi": 61,
            "name": "C#4",
            "ticks": 70944,
            "time": 100.7726265,
            "velocity": 0.4881889763779528
          },
          {
            "duration": 0.13636350000000164,
            "durationTicks": 96,
            "midi": 88,
            "name": "E6",
            "ticks": 70944,
            "time": 100.7726265,
            "velocity": 0.4881889763779528
          },
          {
            "duration": 0.13636350000000164,
            "durationTicks": 96,
            "midi": 76,
            "name": "E5",
            "ticks": 70944,
            "time": 100.7726265,
            "velocity": 0.4881889763779528
          },
          {
            "duration": 0.681817499999994,
            "durationTicks": 480,
            "midi": 54,
            "name": "F#3",
            "ticks": 70944,
            "time": 100.7726265,
            "velocity": 0.4881889763779528
          },
          {
            "duration": 0.13636350000000164,
            "durationTicks": 96,
            "midi": 76,
            "name": "E5",
            "ticks": 70944,
            "time": 100.7726265,
            "velocity": 0.4881889763779528
          },
          {
            "duration": 0.681817499999994,
            "durationTicks": 480,
            "midi": 66,
            "name": "F#4",
            "ticks": 70944,
            "time": 100.7726265,
            "velocity": 0.4881889763779528
          },
          {
            "duration": 0.681817499999994,
            "durationTicks": 480,
            "midi": 61,
            "name": "C#4",
            "ticks": 70944,
            "time": 100.7726265,
            "velocity": 0.4881889763779528
          },
          {
            "duration": 0.681817499999994,
            "durationTicks": 480,
            "midi": 61,
            "name": "C#4",
            "ticks": 70944,
            "time": 100.7726265,
            "velocity": 0.4881889763779528
          },
          {
            "duration": 0.681817499999994,
            "durationTicks": 480,
            "midi": 66,
            "name": "F#4",
            "ticks": 70944,
            "time": 100.7726265,
            "velocity": 0.4881889763779528
          },
          {
            "duration": 0.681817499999994,
            "durationTicks": 480,
            "midi": 61,
            "name": "C#4",
            "ticks": 70944,
            "time": 100.7726265,
            "velocity": 0.4881889763779528
          },
          {
            "duration": 0.681817499999994,
            "durationTicks": 480,
            "midi": 61,
            "name": "C#4",
            "ticks": 70944,
            "time": 100.7726265,
            "velocity": 0.4881889763779528
          },
          {
            "duration": 0.13636350000000164,
            "durationTicks": 96,
            "midi": 88,
            "name": "E6",
            "ticks": 70944,
            "time": 100.7726265,
            "velocity": 0.4881889763779528
          },
          {
            "duration": 0.681817499999994,
            "durationTicks": 480,
            "midi": 54,
            "name": "F#3",
            "ticks": 70944,
            "time": 100.7726265,
            "velocity": 0.4881889763779528
          },
          {
            "duration": 0.681817499999994,
            "durationTicks": 480,
            "midi": 54,
            "name": "F#3",
            "ticks": 70944,
            "time": 100.7726265,
            "velocity": 0.4881889763779528
          },
          {
            "duration": 0.681817499999994,
            "durationTicks": 480,
            "midi": 66,
            "name": "F#4",
            "ticks": 70944,
            "time": 100.7726265,
            "velocity": 0.4881889763779528
          },
          {
            "duration": 0.681817499999994,
            "durationTicks": 480,
            "midi": 54,
            "name": "F#3",
            "ticks": 70944,
            "time": 100.7726265,
            "velocity": 0.4881889763779528
          },
          {
            "duration": 0.681817499999994,
            "durationTicks": 480,
            "midi": 61,
            "name": "C#4",
            "ticks": 70944,
            "time": 100.7726265,
            "velocity": 0.4881889763779528
          },
          {
            "duration": 0.13636350000000164,
            "durationTicks": 96,
            "midi": 88,
            "name": "E6",
            "ticks": 70944,
            "time": 100.7726265,
            "velocity": 0.4881889763779528
          },
          {
            "duration": 0.13636350000000164,
            "durationTicks": 96,
            "midi": 88,
            "name": "E6",
            "ticks": 70944,
            "time": 100.7726265,
            "velocity": 0.4881889763779528
          },
          {
            "duration": 0.13636350000000164,
            "durationTicks": 96,
            "midi": 76,
            "name": "E5",
            "ticks": 70944,
            "time": 100.7726265,
            "velocity": 0.4881889763779528
          },
          {
            "duration": 0.681817499999994,
            "durationTicks": 480,
            "midi": 66,
            "name": "F#4",
            "ticks": 70944,
            "time": 100.7726265,
            "velocity": 0.4881889763779528
          },
          {
            "duration": 0.13636350000000164,
            "durationTicks": 96,
            "midi": 88,
            "name": "E6",
            "ticks": 70944,
            "time": 100.7726265,
            "velocity": 0.4881889763779528
          },
          {
            "duration": 0.13636350000000164,
            "durationTicks": 96,
            "midi": 76,
            "name": "E5",
            "ticks": 70944,
            "time": 100.7726265,
            "velocity": 0.4881889763779528
          },
          {
            "duration": 0.681817499999994,
            "durationTicks": 480,
            "midi": 54,
            "name": "F#3",
            "ticks": 70944,
            "time": 100.7726265,
            "velocity": 0.4881889763779528
          },
          {
            "duration": 0.13636350000000164,
            "durationTicks": 96,
            "midi": 76,
            "name": "E5",
            "ticks": 71040,
            "time": 100.90899,
            "velocity": 0.4881889763779528
          },
          {
            "duration": 0.13636350000000164,
            "durationTicks": 96,
            "midi": 88,
            "name": "E6",
            "ticks": 71040,
            "time": 100.90899,
            "velocity": 0.4881889763779528
          },
          {
            "duration": 0.13636350000000164,
            "durationTicks": 96,
            "midi": 76,
            "name": "E5",
            "ticks": 71040,
            "time": 100.90899,
            "velocity": 0.4881889763779528
          },
          {
            "duration": 0.13636350000000164,
            "durationTicks": 96,
            "midi": 76,
            "name": "E5",
            "ticks": 71040,
            "time": 100.90899,
            "velocity": 0.4881889763779528
          },
          {
            "duration": 0.13636350000000164,
            "durationTicks": 96,
            "midi": 76,
            "name": "E5",
            "ticks": 71040,
            "time": 100.90899,
            "velocity": 0.4881889763779528
          },
          {
            "duration": 0.13636350000000164,
            "durationTicks": 96,
            "midi": 88,
            "name": "E6",
            "ticks": 71040,
            "time": 100.90899,
            "velocity": 0.4881889763779528
          },
          {
            "duration": 0.13636350000000164,
            "durationTicks": 96,
            "midi": 76,
            "name": "E5",
            "ticks": 71040,
            "time": 100.90899,
            "velocity": 0.4881889763779528
          },
          {
            "duration": 0.13636350000000164,
            "durationTicks": 96,
            "midi": 88,
            "name": "E6",
            "ticks": 71040,
            "time": 100.90899,
            "velocity": 0.4881889763779528
          },
          {
            "duration": 0.13636350000000164,
            "durationTicks": 96,
            "midi": 88,
            "name": "E6",
            "ticks": 71040,
            "time": 100.90899,
            "velocity": 0.4881889763779528
          },
          {
            "duration": 0.13636350000000164,
            "durationTicks": 96,
            "midi": 76,
            "name": "E5",
            "ticks": 71040,
            "time": 100.90899,
            "velocity": 0.4881889763779528
          },
          {
            "duration": 0.13636350000000164,
            "durationTicks": 96,
            "midi": 88,
            "name": "E6",
            "ticks": 71040,
            "time": 100.90899,
            "velocity": 0.4881889763779528
          },
          {
            "duration": 0.13636350000000164,
            "durationTicks": 96,
            "midi": 88,
            "name": "E6",
            "ticks": 71040,
            "time": 100.90899,
            "velocity": 0.4881889763779528
          },
          {
            "duration": 0.13636349999998743,
            "durationTicks": 96,
            "midi": 76,
            "name": "E5",
            "ticks": 71136,
            "time": 101.0453535,
            "velocity": 0.4881889763779528
          },
          {
            "duration": 0.13636349999998743,
            "durationTicks": 96,
            "midi": 88,
            "name": "E6",
            "ticks": 71136,
            "time": 101.0453535,
            "velocity": 0.4881889763779528
          },
          {
            "duration": 0.13636349999998743,
            "durationTicks": 96,
            "midi": 88,
            "name": "E6",
            "ticks": 71136,
            "time": 101.0453535,
            "velocity": 0.4881889763779528
          },
          {
            "duration": 0.13636349999998743,
            "durationTicks": 96,
            "midi": 88,
            "name": "E6",
            "ticks": 71136,
            "time": 101.0453535,
            "velocity": 0.4881889763779528
          },
          {
            "duration": 0.13636349999998743,
            "durationTicks": 96,
            "midi": 76,
            "name": "E5",
            "ticks": 71136,
            "time": 101.0453535,
            "velocity": 0.4881889763779528
          },
          {
            "duration": 0.13636349999998743,
            "durationTicks": 96,
            "midi": 76,
            "name": "E5",
            "ticks": 71136,
            "time": 101.0453535,
            "velocity": 0.4881889763779528
          },
          {
            "duration": 0.13636349999998743,
            "durationTicks": 96,
            "midi": 88,
            "name": "E6",
            "ticks": 71136,
            "time": 101.0453535,
            "velocity": 0.4881889763779528
          },
          {
            "duration": 0.13636349999998743,
            "durationTicks": 96,
            "midi": 76,
            "name": "E5",
            "ticks": 71136,
            "time": 101.0453535,
            "velocity": 0.4881889763779528
          },
          {
            "duration": 0.13636349999998743,
            "durationTicks": 96,
            "midi": 76,
            "name": "E5",
            "ticks": 71136,
            "time": 101.0453535,
            "velocity": 0.4881889763779528
          },
          {
            "duration": 0.13636349999998743,
            "durationTicks": 96,
            "midi": 76,
            "name": "E5",
            "ticks": 71136,
            "time": 101.0453535,
            "velocity": 0.4881889763779528
          },
          {
            "duration": 0.13636349999998743,
            "durationTicks": 96,
            "midi": 88,
            "name": "E6",
            "ticks": 71136,
            "time": 101.0453535,
            "velocity": 0.4881889763779528
          },
          {
            "duration": 0.13636349999998743,
            "durationTicks": 96,
            "midi": 88,
            "name": "E6",
            "ticks": 71136,
            "time": 101.0453535,
            "velocity": 0.4881889763779528
          },
          {
            "duration": 0.13636350000000164,
            "durationTicks": 96,
            "midi": 73,
            "name": "C#5",
            "ticks": 71232,
            "time": 101.18171699999999,
            "velocity": 0.4881889763779528
          },
          {
            "duration": 0.13636350000000164,
            "durationTicks": 96,
            "midi": 73,
            "name": "C#5",
            "ticks": 71232,
            "time": 101.18171699999999,
            "velocity": 0.4881889763779528
          },
          {
            "duration": 0.13636350000000164,
            "durationTicks": 96,
            "midi": 73,
            "name": "C#5",
            "ticks": 71232,
            "time": 101.18171699999999,
            "velocity": 0.4881889763779528
          },
          {
            "duration": 0.13636350000000164,
            "durationTicks": 96,
            "midi": 85,
            "name": "C#6",
            "ticks": 71232,
            "time": 101.18171699999999,
            "velocity": 0.4881889763779528
          },
          {
            "duration": 0.13636350000000164,
            "durationTicks": 96,
            "midi": 85,
            "name": "C#6",
            "ticks": 71232,
            "time": 101.18171699999999,
            "velocity": 0.4881889763779528
          },
          {
            "duration": 0.13636350000000164,
            "durationTicks": 96,
            "midi": 73,
            "name": "C#5",
            "ticks": 71232,
            "time": 101.18171699999999,
            "velocity": 0.4881889763779528
          },
          {
            "duration": 0.13636350000000164,
            "durationTicks": 96,
            "midi": 85,
            "name": "C#6",
            "ticks": 71232,
            "time": 101.18171699999999,
            "velocity": 0.4881889763779528
          },
          {
            "duration": 0.13636350000000164,
            "durationTicks": 96,
            "midi": 85,
            "name": "C#6",
            "ticks": 71232,
            "time": 101.18171699999999,
            "velocity": 0.4881889763779528
          },
          {
            "duration": 0.13636350000000164,
            "durationTicks": 96,
            "midi": 73,
            "name": "C#5",
            "ticks": 71232,
            "time": 101.18171699999999,
            "velocity": 0.4881889763779528
          },
          {
            "duration": 0.13636350000000164,
            "durationTicks": 96,
            "midi": 85,
            "name": "C#6",
            "ticks": 71232,
            "time": 101.18171699999999,
            "velocity": 0.4881889763779528
          },
          {
            "duration": 0.13636350000000164,
            "durationTicks": 96,
            "midi": 85,
            "name": "C#6",
            "ticks": 71232,
            "time": 101.18171699999999,
            "velocity": 0.4881889763779528
          },
          {
            "duration": 0.13636350000000164,
            "durationTicks": 96,
            "midi": 73,
            "name": "C#5",
            "ticks": 71232,
            "time": 101.18171699999999,
            "velocity": 0.4881889763779528
          },
          {
            "duration": 0.13636350000000164,
            "durationTicks": 96,
            "midi": 73,
            "name": "C#5",
            "ticks": 71328,
            "time": 101.3180805,
            "velocity": 0.4881889763779528
          },
          {
            "duration": 0.13636350000000164,
            "durationTicks": 96,
            "midi": 73,
            "name": "C#5",
            "ticks": 71328,
            "time": 101.3180805,
            "velocity": 0.4881889763779528
          },
          {
            "duration": 0.13636350000000164,
            "durationTicks": 96,
            "midi": 85,
            "name": "C#6",
            "ticks": 71328,
            "time": 101.3180805,
            "velocity": 0.4881889763779528
          },
          {
            "duration": 0.13636350000000164,
            "durationTicks": 96,
            "midi": 85,
            "name": "C#6",
            "ticks": 71328,
            "time": 101.3180805,
            "velocity": 0.4881889763779528
          },
          {
            "duration": 0.13636350000000164,
            "durationTicks": 96,
            "midi": 85,
            "name": "C#6",
            "ticks": 71328,
            "time": 101.3180805,
            "velocity": 0.4881889763779528
          },
          {
            "duration": 0.13636350000000164,
            "durationTicks": 96,
            "midi": 73,
            "name": "C#5",
            "ticks": 71328,
            "time": 101.3180805,
            "velocity": 0.4881889763779528
          },
          {
            "duration": 0.13636350000000164,
            "durationTicks": 96,
            "midi": 85,
            "name": "C#6",
            "ticks": 71328,
            "time": 101.3180805,
            "velocity": 0.4881889763779528
          },
          {
            "duration": 0.13636350000000164,
            "durationTicks": 96,
            "midi": 73,
            "name": "C#5",
            "ticks": 71328,
            "time": 101.3180805,
            "velocity": 0.4881889763779528
          },
          {
            "duration": 0.13636350000000164,
            "durationTicks": 96,
            "midi": 85,
            "name": "C#6",
            "ticks": 71328,
            "time": 101.3180805,
            "velocity": 0.4881889763779528
          },
          {
            "duration": 0.13636350000000164,
            "durationTicks": 96,
            "midi": 85,
            "name": "C#6",
            "ticks": 71328,
            "time": 101.3180805,
            "velocity": 0.4881889763779528
          },
          {
            "duration": 0.13636350000000164,
            "durationTicks": 96,
            "midi": 73,
            "name": "C#5",
            "ticks": 71328,
            "time": 101.3180805,
            "velocity": 0.4881889763779528
          },
          {
            "duration": 0.13636350000000164,
            "durationTicks": 96,
            "midi": 73,
            "name": "C#5",
            "ticks": 71328,
            "time": 101.3180805,
            "velocity": 0.4881889763779528
          },
          {
            "duration": 0.4090905000000049,
            "durationTicks": 288,
            "midi": 61,
            "name": "C#4",
            "ticks": 71424,
            "time": 101.454444,
            "velocity": 0.4881889763779528
          },
          {
            "duration": 0.4090905000000049,
            "durationTicks": 288,
            "midi": 56,
            "name": "G#3",
            "ticks": 71424,
            "time": 101.454444,
            "velocity": 0.4881889763779528
          },
          {
            "duration": 0.4090905000000049,
            "durationTicks": 288,
            "midi": 56,
            "name": "G#3",
            "ticks": 71424,
            "time": 101.454444,
            "velocity": 0.4881889763779528
          },
          {
            "duration": 0.4090905000000049,
            "durationTicks": 288,
            "midi": 68,
            "name": "G#4",
            "ticks": 71424,
            "time": 101.454444,
            "velocity": 0.4881889763779528
          },
          {
            "duration": 0.4090905000000049,
            "durationTicks": 288,
            "midi": 61,
            "name": "C#4",
            "ticks": 71424,
            "time": 101.454444,
            "velocity": 0.4881889763779528
          },
          {
            "duration": 0.4090905000000049,
            "durationTicks": 288,
            "midi": 61,
            "name": "C#4",
            "ticks": 71424,
            "time": 101.454444,
            "velocity": 0.4881889763779528
          },
          {
            "duration": 0.4090905000000049,
            "durationTicks": 288,
            "midi": 68,
            "name": "G#4",
            "ticks": 71424,
            "time": 101.454444,
            "velocity": 0.4881889763779528
          },
          {
            "duration": 0.4090905000000049,
            "durationTicks": 288,
            "midi": 56,
            "name": "G#3",
            "ticks": 71424,
            "time": 101.454444,
            "velocity": 0.4881889763779528
          },
          {
            "duration": 0.4090905000000049,
            "durationTicks": 288,
            "midi": 68,
            "name": "G#4",
            "ticks": 71424,
            "time": 101.454444,
            "velocity": 0.4881889763779528
          },
          {
            "duration": 0.4090905000000049,
            "durationTicks": 288,
            "midi": 61,
            "name": "C#4",
            "ticks": 71424,
            "time": 101.454444,
            "velocity": 0.4881889763779528
          },
          {
            "duration": 0.4090905000000049,
            "durationTicks": 288,
            "midi": 68,
            "name": "G#4",
            "ticks": 71424,
            "time": 101.454444,
            "velocity": 0.4881889763779528
          },
          {
            "duration": 0.4090905000000049,
            "durationTicks": 288,
            "midi": 61,
            "name": "C#4",
            "ticks": 71424,
            "time": 101.454444,
            "velocity": 0.4881889763779528
          },
          {
            "duration": 0.4090905000000049,
            "durationTicks": 288,
            "midi": 61,
            "name": "C#4",
            "ticks": 71424,
            "time": 101.454444,
            "velocity": 0.4881889763779528
          },
          {
            "duration": 0.4090905000000049,
            "durationTicks": 288,
            "midi": 68,
            "name": "G#4",
            "ticks": 71424,
            "time": 101.454444,
            "velocity": 0.4881889763779528
          },
          {
            "duration": 0.4090905000000049,
            "durationTicks": 288,
            "midi": 68,
            "name": "G#4",
            "ticks": 71424,
            "time": 101.454444,
            "velocity": 0.4881889763779528
          },
          {
            "duration": 0.4090905000000049,
            "durationTicks": 288,
            "midi": 56,
            "name": "G#3",
            "ticks": 71424,
            "time": 101.454444,
            "velocity": 0.4881889763779528
          },
          {
            "duration": 0.4090905000000049,
            "durationTicks": 288,
            "midi": 56,
            "name": "G#3",
            "ticks": 71424,
            "time": 101.454444,
            "velocity": 0.4881889763779528
          },
          {
            "duration": 0.4090905000000049,
            "durationTicks": 288,
            "midi": 56,
            "name": "G#3",
            "ticks": 71424,
            "time": 101.454444,
            "velocity": 0.4881889763779528
          },
          {
            "duration": 0.13636350000000164,
            "durationTicks": 96,
            "midi": 76,
            "name": "E5",
            "ticks": 71616,
            "time": 101.727171,
            "velocity": 0.4881889763779528
          },
          {
            "duration": 0.13636350000000164,
            "durationTicks": 96,
            "midi": 88,
            "name": "E6",
            "ticks": 71616,
            "time": 101.727171,
            "velocity": 0.4881889763779528
          },
          {
            "duration": 0.13636350000000164,
            "durationTicks": 96,
            "midi": 76,
            "name": "E5",
            "ticks": 71616,
            "time": 101.727171,
            "velocity": 0.4881889763779528
          },
          {
            "duration": 0.13636350000000164,
            "durationTicks": 96,
            "midi": 88,
            "name": "E6",
            "ticks": 71616,
            "time": 101.727171,
            "velocity": 0.4881889763779528
          },
          {
            "duration": 0.13636350000000164,
            "durationTicks": 96,
            "midi": 88,
            "name": "E6",
            "ticks": 71616,
            "time": 101.727171,
            "velocity": 0.4881889763779528
          },
          {
            "duration": 0.13636350000000164,
            "durationTicks": 96,
            "midi": 76,
            "name": "E5",
            "ticks": 71616,
            "time": 101.727171,
            "velocity": 0.4881889763779528
          },
          {
            "duration": 0.13636350000000164,
            "durationTicks": 96,
            "midi": 88,
            "name": "E6",
            "ticks": 71616,
            "time": 101.727171,
            "velocity": 0.4881889763779528
          },
          {
            "duration": 0.13636350000000164,
            "durationTicks": 96,
            "midi": 76,
            "name": "E5",
            "ticks": 71616,
            "time": 101.727171,
            "velocity": 0.4881889763779528
          },
          {
            "duration": 0.13636350000000164,
            "durationTicks": 96,
            "midi": 76,
            "name": "E5",
            "ticks": 71616,
            "time": 101.727171,
            "velocity": 0.4881889763779528
          },
          {
            "duration": 0.13636350000000164,
            "durationTicks": 96,
            "midi": 88,
            "name": "E6",
            "ticks": 71616,
            "time": 101.727171,
            "velocity": 0.4881889763779528
          },
          {
            "duration": 0.13636350000000164,
            "durationTicks": 96,
            "midi": 88,
            "name": "E6",
            "ticks": 71616,
            "time": 101.727171,
            "velocity": 0.4881889763779528
          },
          {
            "duration": 0.13636350000000164,
            "durationTicks": 96,
            "midi": 76,
            "name": "E5",
            "ticks": 71616,
            "time": 101.727171,
            "velocity": 0.4881889763779528
          },
          {
            "duration": 0.681817499999994,
            "durationTicks": 480,
            "midi": 68,
            "name": "G#4",
            "ticks": 71712,
            "time": 101.8635345,
            "velocity": 0.4881889763779528
          },
          {
            "duration": 0.681817499999994,
            "durationTicks": 480,
            "midi": 61,
            "name": "C#4",
            "ticks": 71712,
            "time": 101.8635345,
            "velocity": 0.4881889763779528
          },
          {
            "duration": 0.681817499999994,
            "durationTicks": 480,
            "midi": 61,
            "name": "C#4",
            "ticks": 71712,
            "time": 101.8635345,
            "velocity": 0.4881889763779528
          },
          {
            "duration": 0.681817499999994,
            "durationTicks": 480,
            "midi": 56,
            "name": "G#3",
            "ticks": 71712,
            "time": 101.8635345,
            "velocity": 0.4881889763779528
          },
          {
            "duration": 0.13636350000000164,
            "durationTicks": 96,
            "midi": 88,
            "name": "E6",
            "ticks": 71712,
            "time": 101.8635345,
            "velocity": 0.4881889763779528
          },
          {
            "duration": 0.13636350000000164,
            "durationTicks": 96,
            "midi": 88,
            "name": "E6",
            "ticks": 71712,
            "time": 101.8635345,
            "velocity": 0.4881889763779528
          },
          {
            "duration": 0.13636350000000164,
            "durationTicks": 96,
            "midi": 76,
            "name": "E5",
            "ticks": 71712,
            "time": 101.8635345,
            "velocity": 0.4881889763779528
          },
          {
            "duration": 0.681817499999994,
            "durationTicks": 480,
            "midi": 56,
            "name": "G#3",
            "ticks": 71712,
            "time": 101.8635345,
            "velocity": 0.4881889763779528
          },
          {
            "duration": 0.681817499999994,
            "durationTicks": 480,
            "midi": 68,
            "name": "G#4",
            "ticks": 71712,
            "time": 101.8635345,
            "velocity": 0.4881889763779528
          },
          {
            "duration": 0.681817499999994,
            "durationTicks": 480,
            "midi": 61,
            "name": "C#4",
            "ticks": 71712,
            "time": 101.8635345,
            "velocity": 0.4881889763779528
          },
          {
            "duration": 0.13636350000000164,
            "durationTicks": 96,
            "midi": 88,
            "name": "E6",
            "ticks": 71712,
            "time": 101.8635345,
            "velocity": 0.4881889763779528
          },
          {
            "duration": 0.681817499999994,
            "durationTicks": 480,
            "midi": 56,
            "name": "G#3",
            "ticks": 71712,
            "time": 101.8635345,
            "velocity": 0.4881889763779528
          },
          {
            "duration": 0.13636350000000164,
            "durationTicks": 96,
            "midi": 88,
            "name": "E6",
            "ticks": 71712,
            "time": 101.8635345,
            "velocity": 0.4881889763779528
          },
          {
            "duration": 0.13636350000000164,
            "durationTicks": 96,
            "midi": 76,
            "name": "E5",
            "ticks": 71712,
            "time": 101.8635345,
            "velocity": 0.4881889763779528
          },
          {
            "duration": 0.13636350000000164,
            "durationTicks": 96,
            "midi": 76,
            "name": "E5",
            "ticks": 71712,
            "time": 101.8635345,
            "velocity": 0.4881889763779528
          },
          {
            "duration": 0.13636350000000164,
            "durationTicks": 96,
            "midi": 88,
            "name": "E6",
            "ticks": 71712,
            "time": 101.8635345,
            "velocity": 0.4881889763779528
          },
          {
            "duration": 0.681817499999994,
            "durationTicks": 480,
            "midi": 61,
            "name": "C#4",
            "ticks": 71712,
            "time": 101.8635345,
            "velocity": 0.4881889763779528
          },
          {
            "duration": 0.681817499999994,
            "durationTicks": 480,
            "midi": 56,
            "name": "G#3",
            "ticks": 71712,
            "time": 101.8635345,
            "velocity": 0.4881889763779528
          },
          {
            "duration": 0.681817499999994,
            "durationTicks": 480,
            "midi": 68,
            "name": "G#4",
            "ticks": 71712,
            "time": 101.8635345,
            "velocity": 0.4881889763779528
          },
          {
            "duration": 0.681817499999994,
            "durationTicks": 480,
            "midi": 56,
            "name": "G#3",
            "ticks": 71712,
            "time": 101.8635345,
            "velocity": 0.4881889763779528
          },
          {
            "duration": 0.13636350000000164,
            "durationTicks": 96,
            "midi": 88,
            "name": "E6",
            "ticks": 71712,
            "time": 101.8635345,
            "velocity": 0.4881889763779528
          },
          {
            "duration": 0.681817499999994,
            "durationTicks": 480,
            "midi": 56,
            "name": "G#3",
            "ticks": 71712,
            "time": 101.8635345,
            "velocity": 0.4881889763779528
          },
          {
            "duration": 0.681817499999994,
            "durationTicks": 480,
            "midi": 68,
            "name": "G#4",
            "ticks": 71712,
            "time": 101.8635345,
            "velocity": 0.4881889763779528
          },
          {
            "duration": 0.681817499999994,
            "durationTicks": 480,
            "midi": 61,
            "name": "C#4",
            "ticks": 71712,
            "time": 101.8635345,
            "velocity": 0.4881889763779528
          },
          {
            "duration": 0.13636350000000164,
            "durationTicks": 96,
            "midi": 76,
            "name": "E5",
            "ticks": 71712,
            "time": 101.8635345,
            "velocity": 0.4881889763779528
          },
          {
            "duration": 0.13636350000000164,
            "durationTicks": 96,
            "midi": 76,
            "name": "E5",
            "ticks": 71712,
            "time": 101.8635345,
            "velocity": 0.4881889763779528
          },
          {
            "duration": 0.681817499999994,
            "durationTicks": 480,
            "midi": 61,
            "name": "C#4",
            "ticks": 71712,
            "time": 101.8635345,
            "velocity": 0.4881889763779528
          },
          {
            "duration": 0.681817499999994,
            "durationTicks": 480,
            "midi": 68,
            "name": "G#4",
            "ticks": 71712,
            "time": 101.8635345,
            "velocity": 0.4881889763779528
          },
          {
            "duration": 0.13636350000000164,
            "durationTicks": 96,
            "midi": 76,
            "name": "E5",
            "ticks": 71712,
            "time": 101.8635345,
            "velocity": 0.4881889763779528
          },
          {
            "duration": 0.681817499999994,
            "durationTicks": 480,
            "midi": 68,
            "name": "G#4",
            "ticks": 71712,
            "time": 101.8635345,
            "velocity": 0.4881889763779528
          },
          {
            "duration": 0.13636350000000164,
            "durationTicks": 96,
            "midi": 88,
            "name": "E6",
            "ticks": 71808,
            "time": 101.999898,
            "velocity": 0.4881889763779528
          },
          {
            "duration": 0.13636350000000164,
            "durationTicks": 96,
            "midi": 76,
            "name": "E5",
            "ticks": 71808,
            "time": 101.999898,
            "velocity": 0.4881889763779528
          },
          {
            "duration": 0.13636350000000164,
            "durationTicks": 96,
            "midi": 76,
            "name": "E5",
            "ticks": 71808,
            "time": 101.999898,
            "velocity": 0.4881889763779528
          },
          {
            "duration": 0.13636350000000164,
            "durationTicks": 96,
            "midi": 88,
            "name": "E6",
            "ticks": 71808,
            "time": 101.999898,
            "velocity": 0.4881889763779528
          },
          {
            "duration": 0.13636350000000164,
            "durationTicks": 96,
            "midi": 88,
            "name": "E6",
            "ticks": 71808,
            "time": 101.999898,
            "velocity": 0.4881889763779528
          },
          {
            "duration": 0.13636350000000164,
            "durationTicks": 96,
            "midi": 88,
            "name": "E6",
            "ticks": 71808,
            "time": 101.999898,
            "velocity": 0.4881889763779528
          },
          {
            "duration": 0.13636350000000164,
            "durationTicks": 96,
            "midi": 76,
            "name": "E5",
            "ticks": 71808,
            "time": 101.999898,
            "velocity": 0.4881889763779528
          },
          {
            "duration": 0.13636350000000164,
            "durationTicks": 96,
            "midi": 76,
            "name": "E5",
            "ticks": 71808,
            "time": 101.999898,
            "velocity": 0.4881889763779528
          },
          {
            "duration": 0.13636350000000164,
            "durationTicks": 96,
            "midi": 88,
            "name": "E6",
            "ticks": 71808,
            "time": 101.999898,
            "velocity": 0.4881889763779528
          },
          {
            "duration": 0.13636350000000164,
            "durationTicks": 96,
            "midi": 76,
            "name": "E5",
            "ticks": 71808,
            "time": 101.999898,
            "velocity": 0.4881889763779528
          },
          {
            "duration": 0.13636350000000164,
            "durationTicks": 96,
            "midi": 76,
            "name": "E5",
            "ticks": 71808,
            "time": 101.999898,
            "velocity": 0.4881889763779528
          },
          {
            "duration": 0.13636350000000164,
            "durationTicks": 96,
            "midi": 88,
            "name": "E6",
            "ticks": 71808,
            "time": 101.999898,
            "velocity": 0.4881889763779528
          },
          {
            "duration": 0.13636350000000164,
            "durationTicks": 96,
            "midi": 76,
            "name": "E5",
            "ticks": 71904,
            "time": 102.1362615,
            "velocity": 0.4881889763779528
          },
          {
            "duration": 0.13636350000000164,
            "durationTicks": 96,
            "midi": 76,
            "name": "E5",
            "ticks": 71904,
            "time": 102.1362615,
            "velocity": 0.4881889763779528
          },
          {
            "duration": 0.13636350000000164,
            "durationTicks": 96,
            "midi": 76,
            "name": "E5",
            "ticks": 71904,
            "time": 102.1362615,
            "velocity": 0.4881889763779528
          },
          {
            "duration": 0.13636350000000164,
            "durationTicks": 96,
            "midi": 88,
            "name": "E6",
            "ticks": 71904,
            "time": 102.1362615,
            "velocity": 0.4881889763779528
          },
          {
            "duration": 0.13636350000000164,
            "durationTicks": 96,
            "midi": 88,
            "name": "E6",
            "ticks": 71904,
            "time": 102.1362615,
            "velocity": 0.4881889763779528
          },
          {
            "duration": 0.13636350000000164,
            "durationTicks": 96,
            "midi": 76,
            "name": "E5",
            "ticks": 71904,
            "time": 102.1362615,
            "velocity": 0.4881889763779528
          },
          {
            "duration": 0.13636350000000164,
            "durationTicks": 96,
            "midi": 88,
            "name": "E6",
            "ticks": 71904,
            "time": 102.1362615,
            "velocity": 0.4881889763779528
          },
          {
            "duration": 0.13636350000000164,
            "durationTicks": 96,
            "midi": 88,
            "name": "E6",
            "ticks": 71904,
            "time": 102.1362615,
            "velocity": 0.4881889763779528
          },
          {
            "duration": 0.13636350000000164,
            "durationTicks": 96,
            "midi": 76,
            "name": "E5",
            "ticks": 71904,
            "time": 102.1362615,
            "velocity": 0.4881889763779528
          },
          {
            "duration": 0.13636350000000164,
            "durationTicks": 96,
            "midi": 88,
            "name": "E6",
            "ticks": 71904,
            "time": 102.1362615,
            "velocity": 0.4881889763779528
          },
          {
            "duration": 0.13636350000000164,
            "durationTicks": 96,
            "midi": 88,
            "name": "E6",
            "ticks": 71904,
            "time": 102.1362615,
            "velocity": 0.4881889763779528
          },
          {
            "duration": 0.13636350000000164,
            "durationTicks": 96,
            "midi": 76,
            "name": "E5",
            "ticks": 71904,
            "time": 102.1362615,
            "velocity": 0.4881889763779528
          },
          {
            "duration": 0.13636349999998743,
            "durationTicks": 96,
            "midi": 73,
            "name": "C#5",
            "ticks": 72000,
            "time": 102.272625,
            "velocity": 0.4881889763779528
          },
          {
            "duration": 0.13636349999998743,
            "durationTicks": 96,
            "midi": 85,
            "name": "C#6",
            "ticks": 72000,
            "time": 102.272625,
            "velocity": 0.4881889763779528
          },
          {
            "duration": 0.13636349999998743,
            "durationTicks": 96,
            "midi": 85,
            "name": "C#6",
            "ticks": 72000,
            "time": 102.272625,
            "velocity": 0.4881889763779528
          },
          {
            "duration": 0.13636349999998743,
            "durationTicks": 96,
            "midi": 73,
            "name": "C#5",
            "ticks": 72000,
            "time": 102.272625,
            "velocity": 0.4881889763779528
          },
          {
            "duration": 0.13636349999998743,
            "durationTicks": 96,
            "midi": 73,
            "name": "C#5",
            "ticks": 72000,
            "time": 102.272625,
            "velocity": 0.4881889763779528
          },
          {
            "duration": 0.13636349999998743,
            "durationTicks": 96,
            "midi": 85,
            "name": "C#6",
            "ticks": 72000,
            "time": 102.272625,
            "velocity": 0.4881889763779528
          },
          {
            "duration": 0.13636349999998743,
            "durationTicks": 96,
            "midi": 85,
            "name": "C#6",
            "ticks": 72000,
            "time": 102.272625,
            "velocity": 0.4881889763779528
          },
          {
            "duration": 0.13636349999998743,
            "durationTicks": 96,
            "midi": 85,
            "name": "C#6",
            "ticks": 72000,
            "time": 102.272625,
            "velocity": 0.4881889763779528
          },
          {
            "duration": 0.13636349999998743,
            "durationTicks": 96,
            "midi": 73,
            "name": "C#5",
            "ticks": 72000,
            "time": 102.272625,
            "velocity": 0.4881889763779528
          },
          {
            "duration": 0.13636349999998743,
            "durationTicks": 96,
            "midi": 85,
            "name": "C#6",
            "ticks": 72000,
            "time": 102.272625,
            "velocity": 0.4881889763779528
          },
          {
            "duration": 0.13636349999998743,
            "durationTicks": 96,
            "midi": 73,
            "name": "C#5",
            "ticks": 72000,
            "time": 102.272625,
            "velocity": 0.4881889763779528
          },
          {
            "duration": 0.13636349999998743,
            "durationTicks": 96,
            "midi": 73,
            "name": "C#5",
            "ticks": 72000,
            "time": 102.272625,
            "velocity": 0.4881889763779528
          },
          {
            "duration": 0.13636350000000164,
            "durationTicks": 96,
            "midi": 73,
            "name": "C#5",
            "ticks": 72096,
            "time": 102.40898849999999,
            "velocity": 0.4881889763779528
          },
          {
            "duration": 0.13636350000000164,
            "durationTicks": 96,
            "midi": 73,
            "name": "C#5",
            "ticks": 72096,
            "time": 102.40898849999999,
            "velocity": 0.4881889763779528
          },
          {
            "duration": 0.13636350000000164,
            "durationTicks": 96,
            "midi": 85,
            "name": "C#6",
            "ticks": 72096,
            "time": 102.40898849999999,
            "velocity": 0.4881889763779528
          },
          {
            "duration": 0.13636350000000164,
            "durationTicks": 96,
            "midi": 85,
            "name": "C#6",
            "ticks": 72096,
            "time": 102.40898849999999,
            "velocity": 0.4881889763779528
          },
          {
            "duration": 0.13636350000000164,
            "durationTicks": 96,
            "midi": 73,
            "name": "C#5",
            "ticks": 72096,
            "time": 102.40898849999999,
            "velocity": 0.4881889763779528
          },
          {
            "duration": 0.13636350000000164,
            "durationTicks": 96,
            "midi": 73,
            "name": "C#5",
            "ticks": 72096,
            "time": 102.40898849999999,
            "velocity": 0.4881889763779528
          },
          {
            "duration": 0.13636350000000164,
            "durationTicks": 96,
            "midi": 85,
            "name": "C#6",
            "ticks": 72096,
            "time": 102.40898849999999,
            "velocity": 0.4881889763779528
          },
          {
            "duration": 0.13636350000000164,
            "durationTicks": 96,
            "midi": 85,
            "name": "C#6",
            "ticks": 72096,
            "time": 102.40898849999999,
            "velocity": 0.4881889763779528
          },
          {
            "duration": 0.13636350000000164,
            "durationTicks": 96,
            "midi": 73,
            "name": "C#5",
            "ticks": 72096,
            "time": 102.40898849999999,
            "velocity": 0.4881889763779528
          },
          {
            "duration": 0.13636350000000164,
            "durationTicks": 96,
            "midi": 85,
            "name": "C#6",
            "ticks": 72096,
            "time": 102.40898849999999,
            "velocity": 0.4881889763779528
          },
          {
            "duration": 0.13636350000000164,
            "durationTicks": 96,
            "midi": 85,
            "name": "C#6",
            "ticks": 72096,
            "time": 102.40898849999999,
            "velocity": 0.4881889763779528
          },
          {
            "duration": 0.13636350000000164,
            "durationTicks": 96,
            "midi": 73,
            "name": "C#5",
            "ticks": 72096,
            "time": 102.40898849999999,
            "velocity": 0.4881889763779528
          },
          {
            "duration": 0.4090905000000049,
            "durationTicks": 288,
            "midi": 68,
            "name": "G#4",
            "ticks": 72192,
            "time": 102.545352,
            "velocity": 0.4881889763779528
          },
          {
            "duration": 0.4090905000000049,
            "durationTicks": 288,
            "midi": 68,
            "name": "G#4",
            "ticks": 72192,
            "time": 102.545352,
            "velocity": 0.4881889763779528
          },
          {
            "duration": 0.4090905000000049,
            "durationTicks": 288,
            "midi": 56,
            "name": "G#3",
            "ticks": 72192,
            "time": 102.545352,
            "velocity": 0.4881889763779528
          },
          {
            "duration": 0.4090905000000049,
            "durationTicks": 288,
            "midi": 61,
            "name": "C#4",
            "ticks": 72192,
            "time": 102.545352,
            "velocity": 0.4881889763779528
          },
          {
            "duration": 0.4090905000000049,
            "durationTicks": 288,
            "midi": 68,
            "name": "G#4",
            "ticks": 72192,
            "time": 102.545352,
            "velocity": 0.4881889763779528
          },
          {
            "duration": 0.4090905000000049,
            "durationTicks": 288,
            "midi": 56,
            "name": "G#3",
            "ticks": 72192,
            "time": 102.545352,
            "velocity": 0.4881889763779528
          },
          {
            "duration": 0.4090905000000049,
            "durationTicks": 288,
            "midi": 61,
            "name": "C#4",
            "ticks": 72192,
            "time": 102.545352,
            "velocity": 0.4881889763779528
          },
          {
            "duration": 0.4090905000000049,
            "durationTicks": 288,
            "midi": 68,
            "name": "G#4",
            "ticks": 72192,
            "time": 102.545352,
            "velocity": 0.4881889763779528
          },
          {
            "duration": 0.4090905000000049,
            "durationTicks": 288,
            "midi": 61,
            "name": "C#4",
            "ticks": 72192,
            "time": 102.545352,
            "velocity": 0.4881889763779528
          },
          {
            "duration": 0.4090905000000049,
            "durationTicks": 288,
            "midi": 68,
            "name": "G#4",
            "ticks": 72192,
            "time": 102.545352,
            "velocity": 0.4881889763779528
          },
          {
            "duration": 0.4090905000000049,
            "durationTicks": 288,
            "midi": 56,
            "name": "G#3",
            "ticks": 72192,
            "time": 102.545352,
            "velocity": 0.4881889763779528
          },
          {
            "duration": 0.4090905000000049,
            "durationTicks": 288,
            "midi": 61,
            "name": "C#4",
            "ticks": 72192,
            "time": 102.545352,
            "velocity": 0.4881889763779528
          },
          {
            "duration": 0.4090905000000049,
            "durationTicks": 288,
            "midi": 61,
            "name": "C#4",
            "ticks": 72192,
            "time": 102.545352,
            "velocity": 0.4881889763779528
          },
          {
            "duration": 0.4090905000000049,
            "durationTicks": 288,
            "midi": 56,
            "name": "G#3",
            "ticks": 72192,
            "time": 102.545352,
            "velocity": 0.4881889763779528
          },
          {
            "duration": 0.4090905000000049,
            "durationTicks": 288,
            "midi": 68,
            "name": "G#4",
            "ticks": 72192,
            "time": 102.545352,
            "velocity": 0.4881889763779528
          },
          {
            "duration": 0.4090905000000049,
            "durationTicks": 288,
            "midi": 56,
            "name": "G#3",
            "ticks": 72192,
            "time": 102.545352,
            "velocity": 0.4881889763779528
          },
          {
            "duration": 0.4090905000000049,
            "durationTicks": 288,
            "midi": 56,
            "name": "G#3",
            "ticks": 72192,
            "time": 102.545352,
            "velocity": 0.4881889763779528
          },
          {
            "duration": 0.4090905000000049,
            "durationTicks": 288,
            "midi": 61,
            "name": "C#4",
            "ticks": 72192,
            "time": 102.545352,
            "velocity": 0.4881889763779528
          },
          {
            "duration": 0.13636350000000164,
            "durationTicks": 96,
            "midi": 88,
            "name": "E6",
            "ticks": 72384,
            "time": 102.818079,
            "velocity": 0.4881889763779528
          },
          {
            "duration": 0.13636350000000164,
            "durationTicks": 96,
            "midi": 76,
            "name": "E5",
            "ticks": 72384,
            "time": 102.818079,
            "velocity": 0.4881889763779528
          },
          {
            "duration": 0.13636350000000164,
            "durationTicks": 96,
            "midi": 76,
            "name": "E5",
            "ticks": 72384,
            "time": 102.818079,
            "velocity": 0.4881889763779528
          },
          {
            "duration": 0.13636350000000164,
            "durationTicks": 96,
            "midi": 88,
            "name": "E6",
            "ticks": 72384,
            "time": 102.818079,
            "velocity": 0.4881889763779528
          },
          {
            "duration": 0.13636350000000164,
            "durationTicks": 96,
            "midi": 88,
            "name": "E6",
            "ticks": 72384,
            "time": 102.818079,
            "velocity": 0.4881889763779528
          },
          {
            "duration": 0.13636350000000164,
            "durationTicks": 96,
            "midi": 76,
            "name": "E5",
            "ticks": 72384,
            "time": 102.818079,
            "velocity": 0.4881889763779528
          },
          {
            "duration": 0.13636350000000164,
            "durationTicks": 96,
            "midi": 88,
            "name": "E6",
            "ticks": 72384,
            "time": 102.818079,
            "velocity": 0.4881889763779528
          },
          {
            "duration": 0.13636350000000164,
            "durationTicks": 96,
            "midi": 76,
            "name": "E5",
            "ticks": 72384,
            "time": 102.818079,
            "velocity": 0.4881889763779528
          },
          {
            "duration": 0.13636350000000164,
            "durationTicks": 96,
            "midi": 76,
            "name": "E5",
            "ticks": 72384,
            "time": 102.818079,
            "velocity": 0.4881889763779528
          },
          {
            "duration": 0.13636350000000164,
            "durationTicks": 96,
            "midi": 88,
            "name": "E6",
            "ticks": 72384,
            "time": 102.818079,
            "velocity": 0.4881889763779528
          },
          {
            "duration": 0.13636350000000164,
            "durationTicks": 96,
            "midi": 88,
            "name": "E6",
            "ticks": 72384,
            "time": 102.818079,
            "velocity": 0.4881889763779528
          },
          {
            "duration": 0.13636350000000164,
            "durationTicks": 96,
            "midi": 76,
            "name": "E5",
            "ticks": 72384,
            "time": 102.818079,
            "velocity": 0.4881889763779528
          },
          {
            "duration": 0.681817499999994,
            "durationTicks": 480,
            "midi": 61,
            "name": "C#4",
            "ticks": 72480,
            "time": 102.9544425,
            "velocity": 0.4881889763779528
          },
          {
            "duration": 0.681817499999994,
            "durationTicks": 480,
            "midi": 68,
            "name": "G#4",
            "ticks": 72480,
            "time": 102.9544425,
            "velocity": 0.4881889763779528
          },
          {
            "duration": 0.681817499999994,
            "durationTicks": 480,
            "midi": 56,
            "name": "G#3",
            "ticks": 72480,
            "time": 102.9544425,
            "velocity": 0.4881889763779528
          },
          {
            "duration": 0.681817499999994,
            "durationTicks": 480,
            "midi": 68,
            "name": "G#4",
            "ticks": 72480,
            "time": 102.9544425,
            "velocity": 0.4881889763779528
          },
          {
            "duration": 0.13636350000000164,
            "durationTicks": 96,
            "midi": 88,
            "name": "E6",
            "ticks": 72480,
            "time": 102.9544425,
            "velocity": 0.4881889763779528
          },
          {
            "duration": 0.681817499999994,
            "durationTicks": 480,
            "midi": 61,
            "name": "C#4",
            "ticks": 72480,
            "time": 102.9544425,
            "velocity": 0.4881889763779528
          },
          {
            "duration": 0.681817499999994,
            "durationTicks": 480,
            "midi": 61,
            "name": "C#4",
            "ticks": 72480,
            "time": 102.9544425,
            "velocity": 0.4881889763779528
          },
          {
            "duration": 0.13636350000000164,
            "durationTicks": 96,
            "midi": 76,
            "name": "E5",
            "ticks": 72480,
            "time": 102.9544425,
            "velocity": 0.4881889763779528
          },
          {
            "duration": 0.681817499999994,
            "durationTicks": 480,
            "midi": 56,
            "name": "G#3",
            "ticks": 72480,
            "time": 102.9544425,
            "velocity": 0.4881889763779528
          },
          {
            "duration": 0.681817499999994,
            "durationTicks": 480,
            "midi": 68,
            "name": "G#4",
            "ticks": 72480,
            "time": 102.9544425,
            "velocity": 0.4881889763779528
          },
          {
            "duration": 0.681817499999994,
            "durationTicks": 480,
            "midi": 68,
            "name": "G#4",
            "ticks": 72480,
            "time": 102.9544425,
            "velocity": 0.4881889763779528
          },
          {
            "duration": 0.681817499999994,
            "durationTicks": 480,
            "midi": 56,
            "name": "G#3",
            "ticks": 72480,
            "time": 102.9544425,
            "velocity": 0.4881889763779528
          },
          {
            "duration": 0.13636350000000164,
            "durationTicks": 96,
            "midi": 76,
            "name": "E5",
            "ticks": 72480,
            "time": 102.9544425,
            "velocity": 0.4881889763779528
          },
          {
            "duration": 0.681817499999994,
            "durationTicks": 480,
            "midi": 61,
            "name": "C#4",
            "ticks": 72480,
            "time": 102.9544425,
            "velocity": 0.4881889763779528
          },
          {
            "duration": 0.681817499999994,
            "durationTicks": 480,
            "midi": 61,
            "name": "C#4",
            "ticks": 72480,
            "time": 102.9544425,
            "velocity": 0.4881889763779528
          },
          {
            "duration": 0.681817499999994,
            "durationTicks": 480,
            "midi": 68,
            "name": "G#4",
            "ticks": 72480,
            "time": 102.9544425,
            "velocity": 0.4881889763779528
          },
          {
            "duration": 0.681817499999994,
            "durationTicks": 480,
            "midi": 68,
            "name": "G#4",
            "ticks": 72480,
            "time": 102.9544425,
            "velocity": 0.4881889763779528
          },
          {
            "duration": 0.13636350000000164,
            "durationTicks": 96,
            "midi": 88,
            "name": "E6",
            "ticks": 72480,
            "time": 102.9544425,
            "velocity": 0.4881889763779528
          },
          {
            "duration": 0.13636350000000164,
            "durationTicks": 96,
            "midi": 76,
            "name": "E5",
            "ticks": 72480,
            "time": 102.9544425,
            "velocity": 0.4881889763779528
          },
          {
            "duration": 0.681817499999994,
            "durationTicks": 480,
            "midi": 56,
            "name": "G#3",
            "ticks": 72480,
            "time": 102.9544425,
            "velocity": 0.4881889763779528
          },
          {
            "duration": 0.13636350000000164,
            "durationTicks": 96,
            "midi": 76,
            "name": "E5",
            "ticks": 72480,
            "time": 102.9544425,
            "velocity": 0.4881889763779528
          },
          {
            "duration": 0.13636350000000164,
            "durationTicks": 96,
            "midi": 88,
            "name": "E6",
            "ticks": 72480,
            "time": 102.9544425,
            "velocity": 0.4881889763779528
          },
          {
            "duration": 0.13636350000000164,
            "durationTicks": 96,
            "midi": 88,
            "name": "E6",
            "ticks": 72480,
            "time": 102.9544425,
            "velocity": 0.4881889763779528
          },
          {
            "duration": 0.13636350000000164,
            "durationTicks": 96,
            "midi": 76,
            "name": "E5",
            "ticks": 72480,
            "time": 102.9544425,
            "velocity": 0.4881889763779528
          },
          {
            "duration": 0.681817499999994,
            "durationTicks": 480,
            "midi": 56,
            "name": "G#3",
            "ticks": 72480,
            "time": 102.9544425,
            "velocity": 0.4881889763779528
          },
          {
            "duration": 0.13636350000000164,
            "durationTicks": 96,
            "midi": 76,
            "name": "E5",
            "ticks": 72480,
            "time": 102.9544425,
            "velocity": 0.4881889763779528
          },
          {
            "duration": 0.13636350000000164,
            "durationTicks": 96,
            "midi": 88,
            "name": "E6",
            "ticks": 72480,
            "time": 102.9544425,
            "velocity": 0.4881889763779528
          },
          {
            "duration": 0.681817499999994,
            "durationTicks": 480,
            "midi": 56,
            "name": "G#3",
            "ticks": 72480,
            "time": 102.9544425,
            "velocity": 0.4881889763779528
          },
          {
            "duration": 0.13636350000000164,
            "durationTicks": 96,
            "midi": 88,
            "name": "E6",
            "ticks": 72480,
            "time": 102.9544425,
            "velocity": 0.4881889763779528
          },
          {
            "duration": 0.681817499999994,
            "durationTicks": 480,
            "midi": 61,
            "name": "C#4",
            "ticks": 72480,
            "time": 102.9544425,
            "velocity": 0.4881889763779528
          },
          {
            "duration": 0.13636350000000164,
            "durationTicks": 96,
            "midi": 88,
            "name": "E6",
            "ticks": 72576,
            "time": 103.090806,
            "velocity": 0.4881889763779528
          },
          {
            "duration": 0.13636350000000164,
            "durationTicks": 96,
            "midi": 76,
            "name": "E5",
            "ticks": 72576,
            "time": 103.090806,
            "velocity": 0.4881889763779528
          },
          {
            "duration": 0.13636350000000164,
            "durationTicks": 96,
            "midi": 76,
            "name": "E5",
            "ticks": 72576,
            "time": 103.090806,
            "velocity": 0.4881889763779528
          },
          {
            "duration": 0.13636350000000164,
            "durationTicks": 96,
            "midi": 88,
            "name": "E6",
            "ticks": 72576,
            "time": 103.090806,
            "velocity": 0.4881889763779528
          },
          {
            "duration": 0.13636350000000164,
            "durationTicks": 96,
            "midi": 76,
            "name": "E5",
            "ticks": 72576,
            "time": 103.090806,
            "velocity": 0.4881889763779528
          },
          {
            "duration": 0.13636350000000164,
            "durationTicks": 96,
            "midi": 88,
            "name": "E6",
            "ticks": 72576,
            "time": 103.090806,
            "velocity": 0.4881889763779528
          },
          {
            "duration": 0.13636350000000164,
            "durationTicks": 96,
            "midi": 76,
            "name": "E5",
            "ticks": 72576,
            "time": 103.090806,
            "velocity": 0.4881889763779528
          },
          {
            "duration": 0.13636350000000164,
            "durationTicks": 96,
            "midi": 88,
            "name": "E6",
            "ticks": 72576,
            "time": 103.090806,
            "velocity": 0.4881889763779528
          },
          {
            "duration": 0.13636350000000164,
            "durationTicks": 96,
            "midi": 76,
            "name": "E5",
            "ticks": 72576,
            "time": 103.090806,
            "velocity": 0.4881889763779528
          },
          {
            "duration": 0.13636350000000164,
            "durationTicks": 96,
            "midi": 88,
            "name": "E6",
            "ticks": 72576,
            "time": 103.090806,
            "velocity": 0.4881889763779528
          },
          {
            "duration": 0.13636350000000164,
            "durationTicks": 96,
            "midi": 88,
            "name": "E6",
            "ticks": 72576,
            "time": 103.090806,
            "velocity": 0.4881889763779528
          },
          {
            "duration": 0.13636350000000164,
            "durationTicks": 96,
            "midi": 76,
            "name": "E5",
            "ticks": 72576,
            "time": 103.090806,
            "velocity": 0.4881889763779528
          },
          {
            "duration": 0.13636350000000164,
            "durationTicks": 96,
            "midi": 73,
            "name": "C#5",
            "ticks": 72672,
            "time": 103.2271695,
            "velocity": 0.4881889763779528
          },
          {
            "duration": 0.13636350000000164,
            "durationTicks": 96,
            "midi": 73,
            "name": "C#5",
            "ticks": 72672,
            "time": 103.2271695,
            "velocity": 0.4881889763779528
          },
          {
            "duration": 0.13636350000000164,
            "durationTicks": 96,
            "midi": 85,
            "name": "C#6",
            "ticks": 72672,
            "time": 103.2271695,
            "velocity": 0.4881889763779528
          },
          {
            "duration": 0.13636350000000164,
            "durationTicks": 96,
            "midi": 73,
            "name": "C#5",
            "ticks": 72672,
            "time": 103.2271695,
            "velocity": 0.4881889763779528
          },
          {
            "duration": 0.13636350000000164,
            "durationTicks": 96,
            "midi": 85,
            "name": "C#6",
            "ticks": 72672,
            "time": 103.2271695,
            "velocity": 0.4881889763779528
          },
          {
            "duration": 0.13636350000000164,
            "durationTicks": 96,
            "midi": 73,
            "name": "C#5",
            "ticks": 72672,
            "time": 103.2271695,
            "velocity": 0.4881889763779528
          },
          {
            "duration": 0.13636350000000164,
            "durationTicks": 96,
            "midi": 85,
            "name": "C#6",
            "ticks": 72672,
            "time": 103.2271695,
            "velocity": 0.4881889763779528
          },
          {
            "duration": 0.13636350000000164,
            "durationTicks": 96,
            "midi": 73,
            "name": "C#5",
            "ticks": 72672,
            "time": 103.2271695,
            "velocity": 0.4881889763779528
          },
          {
            "duration": 0.13636350000000164,
            "durationTicks": 96,
            "midi": 85,
            "name": "C#6",
            "ticks": 72672,
            "time": 103.2271695,
            "velocity": 0.4881889763779528
          },
          {
            "duration": 0.13636350000000164,
            "durationTicks": 96,
            "midi": 85,
            "name": "C#6",
            "ticks": 72672,
            "time": 103.2271695,
            "velocity": 0.4881889763779528
          },
          {
            "duration": 0.13636350000000164,
            "durationTicks": 96,
            "midi": 85,
            "name": "C#6",
            "ticks": 72672,
            "time": 103.2271695,
            "velocity": 0.4881889763779528
          },
          {
            "duration": 0.13636350000000164,
            "durationTicks": 96,
            "midi": 73,
            "name": "C#5",
            "ticks": 72672,
            "time": 103.2271695,
            "velocity": 0.4881889763779528
          },
          {
            "duration": 0.13636350000000164,
            "durationTicks": 96,
            "midi": 76,
            "name": "E5",
            "ticks": 72768,
            "time": 103.363533,
            "velocity": 0.4881889763779528
          },
          {
            "duration": 0.13636350000000164,
            "durationTicks": 96,
            "midi": 88,
            "name": "E6",
            "ticks": 72768,
            "time": 103.363533,
            "velocity": 0.4881889763779528
          },
          {
            "duration": 0.13636350000000164,
            "durationTicks": 96,
            "midi": 76,
            "name": "E5",
            "ticks": 72768,
            "time": 103.363533,
            "velocity": 0.4881889763779528
          },
          {
            "duration": 0.13636350000000164,
            "durationTicks": 96,
            "midi": 76,
            "name": "E5",
            "ticks": 72768,
            "time": 103.363533,
            "velocity": 0.4881889763779528
          },
          {
            "duration": 0.13636350000000164,
            "durationTicks": 96,
            "midi": 76,
            "name": "E5",
            "ticks": 72768,
            "time": 103.363533,
            "velocity": 0.4881889763779528
          },
          {
            "duration": 0.13636350000000164,
            "durationTicks": 96,
            "midi": 88,
            "name": "E6",
            "ticks": 72768,
            "time": 103.363533,
            "velocity": 0.4881889763779528
          },
          {
            "duration": 0.13636350000000164,
            "durationTicks": 96,
            "midi": 88,
            "name": "E6",
            "ticks": 72768,
            "time": 103.363533,
            "velocity": 0.4881889763779528
          },
          {
            "duration": 0.13636350000000164,
            "durationTicks": 96,
            "midi": 76,
            "name": "E5",
            "ticks": 72768,
            "time": 103.363533,
            "velocity": 0.4881889763779528
          },
          {
            "duration": 0.13636350000000164,
            "durationTicks": 96,
            "midi": 76,
            "name": "E5",
            "ticks": 72768,
            "time": 103.363533,
            "velocity": 0.4881889763779528
          },
          {
            "duration": 0.13636350000000164,
            "durationTicks": 96,
            "midi": 88,
            "name": "E6",
            "ticks": 72768,
            "time": 103.363533,
            "velocity": 0.4881889763779528
          },
          {
            "duration": 0.13636350000000164,
            "durationTicks": 96,
            "midi": 88,
            "name": "E6",
            "ticks": 72768,
            "time": 103.363533,
            "velocity": 0.4881889763779528
          },
          {
            "duration": 0.13636350000000164,
            "durationTicks": 96,
            "midi": 88,
            "name": "E6",
            "ticks": 72768,
            "time": 103.363533,
            "velocity": 0.4881889763779528
          },
          {
            "duration": 0.13636349999998743,
            "durationTicks": 96,
            "midi": 90,
            "name": "F#6",
            "ticks": 72864,
            "time": 103.4998965,
            "velocity": 0.4881889763779528
          },
          {
            "duration": 0.13636349999998743,
            "durationTicks": 96,
            "midi": 90,
            "name": "F#6",
            "ticks": 72864,
            "time": 103.4998965,
            "velocity": 0.4881889763779528
          },
          {
            "duration": 0.13636349999998743,
            "durationTicks": 96,
            "midi": 78,
            "name": "F#5",
            "ticks": 72864,
            "time": 103.4998965,
            "velocity": 0.4881889763779528
          },
          {
            "duration": 0.13636349999998743,
            "durationTicks": 96,
            "midi": 78,
            "name": "F#5",
            "ticks": 72864,
            "time": 103.4998965,
            "velocity": 0.4881889763779528
          },
          {
            "duration": 0.13636349999998743,
            "durationTicks": 96,
            "midi": 90,
            "name": "F#6",
            "ticks": 72864,
            "time": 103.4998965,
            "velocity": 0.4881889763779528
          },
          {
            "duration": 0.13636349999998743,
            "durationTicks": 96,
            "midi": 78,
            "name": "F#5",
            "ticks": 72864,
            "time": 103.4998965,
            "velocity": 0.4881889763779528
          },
          {
            "duration": 0.13636349999998743,
            "durationTicks": 96,
            "midi": 78,
            "name": "F#5",
            "ticks": 72864,
            "time": 103.4998965,
            "velocity": 0.4881889763779528
          },
          {
            "duration": 0.13636349999998743,
            "durationTicks": 96,
            "midi": 78,
            "name": "F#5",
            "ticks": 72864,
            "time": 103.4998965,
            "velocity": 0.4881889763779528
          },
          {
            "duration": 0.13636349999998743,
            "durationTicks": 96,
            "midi": 90,
            "name": "F#6",
            "ticks": 72864,
            "time": 103.4998965,
            "velocity": 0.4881889763779528
          },
          {
            "duration": 0.13636349999998743,
            "durationTicks": 96,
            "midi": 78,
            "name": "F#5",
            "ticks": 72864,
            "time": 103.4998965,
            "velocity": 0.4881889763779528
          },
          {
            "duration": 0.13636349999998743,
            "durationTicks": 96,
            "midi": 90,
            "name": "F#6",
            "ticks": 72864,
            "time": 103.4998965,
            "velocity": 0.4881889763779528
          },
          {
            "duration": 0.13636349999998743,
            "durationTicks": 96,
            "midi": 90,
            "name": "F#6",
            "ticks": 72864,
            "time": 103.4998965,
            "velocity": 0.4881889763779528
          },
          {
            "duration": 0.4090905000000049,
            "durationTicks": 288,
            "midi": 68,
            "name": "G#4",
            "ticks": 72960,
            "time": 103.63626,
            "velocity": 0.4881889763779528
          },
          {
            "duration": 0.4090905000000049,
            "durationTicks": 288,
            "midi": 63,
            "name": "D#4",
            "ticks": 72960,
            "time": 103.63626,
            "velocity": 0.4881889763779528
          },
          {
            "duration": 0.4090905000000049,
            "durationTicks": 288,
            "midi": 63,
            "name": "D#4",
            "ticks": 72960,
            "time": 103.63626,
            "velocity": 0.4881889763779528
          },
          {
            "duration": 0.4090905000000049,
            "durationTicks": 288,
            "midi": 56,
            "name": "G#3",
            "ticks": 72960,
            "time": 103.63626,
            "velocity": 0.4881889763779528
          },
          {
            "duration": 0.4090905000000049,
            "durationTicks": 288,
            "midi": 68,
            "name": "G#4",
            "ticks": 72960,
            "time": 103.63626,
            "velocity": 0.4881889763779528
          },
          {
            "duration": 0.13636350000000164,
            "durationTicks": 96,
            "midi": 87,
            "name": "D#6",
            "ticks": 72960,
            "time": 103.63626,
            "velocity": 0.4881889763779528
          },
          {
            "duration": 0.4090905000000049,
            "durationTicks": 288,
            "midi": 56,
            "name": "G#3",
            "ticks": 72960,
            "time": 103.63626,
            "velocity": 0.4881889763779528
          },
          {
            "duration": 0.4090905000000049,
            "durationTicks": 288,
            "midi": 63,
            "name": "D#4",
            "ticks": 72960,
            "time": 103.63626,
            "velocity": 0.4881889763779528
          },
          {
            "duration": 0.4090905000000049,
            "durationTicks": 288,
            "midi": 63,
            "name": "D#4",
            "ticks": 72960,
            "time": 103.63626,
            "velocity": 0.4881889763779528
          },
          {
            "duration": 0.13636350000000164,
            "durationTicks": 96,
            "midi": 87,
            "name": "D#6",
            "ticks": 72960,
            "time": 103.63626,
            "velocity": 0.4881889763779528
          },
          {
            "duration": 0.13636350000000164,
            "durationTicks": 96,
            "midi": 75,
            "name": "D#5",
            "ticks": 72960,
            "time": 103.63626,
            "velocity": 0.4881889763779528
          },
          {
            "duration": 0.4090905000000049,
            "durationTicks": 288,
            "midi": 68,
            "name": "G#4",
            "ticks": 72960,
            "time": 103.63626,
            "velocity": 0.4881889763779528
          },
          {
            "duration": 0.4090905000000049,
            "durationTicks": 288,
            "midi": 56,
            "name": "G#3",
            "ticks": 72960,
            "time": 103.63626,
            "velocity": 0.4881889763779528
          },
          {
            "duration": 0.13636350000000164,
            "durationTicks": 96,
            "midi": 75,
            "name": "D#5",
            "ticks": 72960,
            "time": 103.63626,
            "velocity": 0.4881889763779528
          },
          {
            "duration": 0.13636350000000164,
            "durationTicks": 96,
            "midi": 75,
            "name": "D#5",
            "ticks": 72960,
            "time": 103.63626,
            "velocity": 0.4881889763779528
          },
          {
            "duration": 0.13636350000000164,
            "durationTicks": 96,
            "midi": 87,
            "name": "D#6",
            "ticks": 72960,
            "time": 103.63626,
            "velocity": 0.4881889763779528
          },
          {
            "duration": 0.13636350000000164,
            "durationTicks": 96,
            "midi": 87,
            "name": "D#6",
            "ticks": 72960,
            "time": 103.63626,
            "velocity": 0.4881889763779528
          },
          {
            "duration": 0.4090905000000049,
            "durationTicks": 288,
            "midi": 56,
            "name": "G#3",
            "ticks": 72960,
            "time": 103.63626,
            "velocity": 0.4881889763779528
          },
          {
            "duration": 0.4090905000000049,
            "durationTicks": 288,
            "midi": 56,
            "name": "G#3",
            "ticks": 72960,
            "time": 103.63626,
            "velocity": 0.4881889763779528
          },
          {
            "duration": 0.4090905000000049,
            "durationTicks": 288,
            "midi": 68,
            "name": "G#4",
            "ticks": 72960,
            "time": 103.63626,
            "velocity": 0.4881889763779528
          },
          {
            "duration": 0.13636350000000164,
            "durationTicks": 96,
            "midi": 87,
            "name": "D#6",
            "ticks": 72960,
            "time": 103.63626,
            "velocity": 0.4881889763779528
          },
          {
            "duration": 0.4090905000000049,
            "durationTicks": 288,
            "midi": 68,
            "name": "G#4",
            "ticks": 72960,
            "time": 103.63626,
            "velocity": 0.4881889763779528
          },
          {
            "duration": 0.4090905000000049,
            "durationTicks": 288,
            "midi": 56,
            "name": "G#3",
            "ticks": 72960,
            "time": 103.63626,
            "velocity": 0.4881889763779528
          },
          {
            "duration": 0.4090905000000049,
            "durationTicks": 288,
            "midi": 63,
            "name": "D#4",
            "ticks": 72960,
            "time": 103.63626,
            "velocity": 0.4881889763779528
          },
          {
            "duration": 0.13636350000000164,
            "durationTicks": 96,
            "midi": 75,
            "name": "D#5",
            "ticks": 72960,
            "time": 103.63626,
            "velocity": 0.4881889763779528
          },
          {
            "duration": 0.13636350000000164,
            "durationTicks": 96,
            "midi": 87,
            "name": "D#6",
            "ticks": 72960,
            "time": 103.63626,
            "velocity": 0.4881889763779528
          },
          {
            "duration": 0.4090905000000049,
            "durationTicks": 288,
            "midi": 63,
            "name": "D#4",
            "ticks": 72960,
            "time": 103.63626,
            "velocity": 0.4881889763779528
          },
          {
            "duration": 0.13636350000000164,
            "durationTicks": 96,
            "midi": 75,
            "name": "D#5",
            "ticks": 72960,
            "time": 103.63626,
            "velocity": 0.4881889763779528
          },
          {
            "duration": 0.4090905000000049,
            "durationTicks": 288,
            "midi": 68,
            "name": "G#4",
            "ticks": 72960,
            "time": 103.63626,
            "velocity": 0.4881889763779528
          },
          {
            "duration": 0.13636350000000164,
            "durationTicks": 96,
            "midi": 75,
            "name": "D#5",
            "ticks": 72960,
            "time": 103.63626,
            "velocity": 0.4881889763779528
          },
          {
            "duration": 0.13636350000000164,
            "durationTicks": 96,
            "midi": 85,
            "name": "C#6",
            "ticks": 73152,
            "time": 103.908987,
            "velocity": 0.4881889763779528
          },
          {
            "duration": 0.13636350000000164,
            "durationTicks": 96,
            "midi": 73,
            "name": "C#5",
            "ticks": 73152,
            "time": 103.908987,
            "velocity": 0.4881889763779528
          },
          {
            "duration": 0.13636350000000164,
            "durationTicks": 96,
            "midi": 73,
            "name": "C#5",
            "ticks": 73152,
            "time": 103.908987,
            "velocity": 0.4881889763779528
          },
          {
            "duration": 0.13636350000000164,
            "durationTicks": 96,
            "midi": 73,
            "name": "C#5",
            "ticks": 73152,
            "time": 103.908987,
            "velocity": 0.4881889763779528
          },
          {
            "duration": 0.13636350000000164,
            "durationTicks": 96,
            "midi": 73,
            "name": "C#5",
            "ticks": 73152,
            "time": 103.908987,
            "velocity": 0.4881889763779528
          },
          {
            "duration": 0.13636350000000164,
            "durationTicks": 96,
            "midi": 85,
            "name": "C#6",
            "ticks": 73152,
            "time": 103.908987,
            "velocity": 0.4881889763779528
          },
          {
            "duration": 0.13636350000000164,
            "durationTicks": 96,
            "midi": 85,
            "name": "C#6",
            "ticks": 73152,
            "time": 103.908987,
            "velocity": 0.4881889763779528
          },
          {
            "duration": 0.13636350000000164,
            "durationTicks": 96,
            "midi": 73,
            "name": "C#5",
            "ticks": 73152,
            "time": 103.908987,
            "velocity": 0.4881889763779528
          },
          {
            "duration": 0.13636350000000164,
            "durationTicks": 96,
            "midi": 85,
            "name": "C#6",
            "ticks": 73152,
            "time": 103.908987,
            "velocity": 0.4881889763779528
          },
          {
            "duration": 0.13636350000000164,
            "durationTicks": 96,
            "midi": 73,
            "name": "C#5",
            "ticks": 73152,
            "time": 103.908987,
            "velocity": 0.4881889763779528
          },
          {
            "duration": 0.13636350000000164,
            "durationTicks": 96,
            "midi": 85,
            "name": "C#6",
            "ticks": 73152,
            "time": 103.908987,
            "velocity": 0.4881889763779528
          },
          {
            "duration": 0.13636350000000164,
            "durationTicks": 96,
            "midi": 85,
            "name": "C#6",
            "ticks": 73152,
            "time": 103.908987,
            "velocity": 0.4881889763779528
          },
          {
            "duration": 0.4090905000000049,
            "durationTicks": 288,
            "midi": 56,
            "name": "G#3",
            "ticks": 73248,
            "time": 104.0453505,
            "velocity": 0.4881889763779528
          },
          {
            "duration": 0.4090905000000049,
            "durationTicks": 288,
            "midi": 68,
            "name": "G#4",
            "ticks": 73248,
            "time": 104.0453505,
            "velocity": 0.4881889763779528
          },
          {
            "duration": 0.4090905000000049,
            "durationTicks": 288,
            "midi": 68,
            "name": "G#4",
            "ticks": 73248,
            "time": 104.0453505,
            "velocity": 0.4881889763779528
          },
          {
            "duration": 0.4090905000000049,
            "durationTicks": 288,
            "midi": 56,
            "name": "G#3",
            "ticks": 73248,
            "time": 104.0453505,
            "velocity": 0.4881889763779528
          },
          {
            "duration": 0.4090905000000049,
            "durationTicks": 288,
            "midi": 63,
            "name": "D#4",
            "ticks": 73248,
            "time": 104.0453505,
            "velocity": 0.4881889763779528
          },
          {
            "duration": 0.4090905000000049,
            "durationTicks": 288,
            "midi": 63,
            "name": "D#4",
            "ticks": 73248,
            "time": 104.0453505,
            "velocity": 0.4881889763779528
          },
          {
            "duration": 0.4090905000000049,
            "durationTicks": 288,
            "midi": 56,
            "name": "G#3",
            "ticks": 73248,
            "time": 104.0453505,
            "velocity": 0.4881889763779528
          },
          {
            "duration": 0.4090905000000049,
            "durationTicks": 288,
            "midi": 63,
            "name": "D#4",
            "ticks": 73248,
            "time": 104.0453505,
            "velocity": 0.4881889763779528
          },
          {
            "duration": 0.4090905000000049,
            "durationTicks": 288,
            "midi": 56,
            "name": "G#3",
            "ticks": 73248,
            "time": 104.0453505,
            "velocity": 0.4881889763779528
          },
          {
            "duration": 0.4090905000000049,
            "durationTicks": 288,
            "midi": 68,
            "name": "G#4",
            "ticks": 73248,
            "time": 104.0453505,
            "velocity": 0.4881889763779528
          },
          {
            "duration": 0.4090905000000049,
            "durationTicks": 288,
            "midi": 63,
            "name": "D#4",
            "ticks": 73248,
            "time": 104.0453505,
            "velocity": 0.4881889763779528
          },
          {
            "duration": 0.4090905000000049,
            "durationTicks": 288,
            "midi": 68,
            "name": "G#4",
            "ticks": 73248,
            "time": 104.0453505,
            "velocity": 0.4881889763779528
          },
          {
            "duration": 0.4090905000000049,
            "durationTicks": 288,
            "midi": 56,
            "name": "G#3",
            "ticks": 73248,
            "time": 104.0453505,
            "velocity": 0.4881889763779528
          },
          {
            "duration": 0.4090905000000049,
            "durationTicks": 288,
            "midi": 56,
            "name": "G#3",
            "ticks": 73248,
            "time": 104.0453505,
            "velocity": 0.4881889763779528
          },
          {
            "duration": 0.4090905000000049,
            "durationTicks": 288,
            "midi": 68,
            "name": "G#4",
            "ticks": 73248,
            "time": 104.0453505,
            "velocity": 0.4881889763779528
          },
          {
            "duration": 0.4090905000000049,
            "durationTicks": 288,
            "midi": 63,
            "name": "D#4",
            "ticks": 73248,
            "time": 104.0453505,
            "velocity": 0.4881889763779528
          },
          {
            "duration": 0.4090905000000049,
            "durationTicks": 288,
            "midi": 63,
            "name": "D#4",
            "ticks": 73248,
            "time": 104.0453505,
            "velocity": 0.4881889763779528
          },
          {
            "duration": 0.4090905000000049,
            "durationTicks": 288,
            "midi": 68,
            "name": "G#4",
            "ticks": 73248,
            "time": 104.0453505,
            "velocity": 0.4881889763779528
          },
          {
            "duration": 0.13636350000000164,
            "durationTicks": 96,
            "midi": 88,
            "name": "E6",
            "ticks": 73344,
            "time": 104.181714,
            "velocity": 0.4881889763779528
          },
          {
            "duration": 0.13636350000000164,
            "durationTicks": 96,
            "midi": 76,
            "name": "E5",
            "ticks": 73344,
            "time": 104.181714,
            "velocity": 0.4881889763779528
          },
          {
            "duration": 0.13636350000000164,
            "durationTicks": 96,
            "midi": 76,
            "name": "E5",
            "ticks": 73344,
            "time": 104.181714,
            "velocity": 0.4881889763779528
          },
          {
            "duration": 0.13636350000000164,
            "durationTicks": 96,
            "midi": 88,
            "name": "E6",
            "ticks": 73344,
            "time": 104.181714,
            "velocity": 0.4881889763779528
          },
          {
            "duration": 0.13636350000000164,
            "durationTicks": 96,
            "midi": 76,
            "name": "E5",
            "ticks": 73344,
            "time": 104.181714,
            "velocity": 0.4881889763779528
          },
          {
            "duration": 0.13636350000000164,
            "durationTicks": 96,
            "midi": 76,
            "name": "E5",
            "ticks": 73344,
            "time": 104.181714,
            "velocity": 0.4881889763779528
          },
          {
            "duration": 0.13636350000000164,
            "durationTicks": 96,
            "midi": 88,
            "name": "E6",
            "ticks": 73344,
            "time": 104.181714,
            "velocity": 0.4881889763779528
          },
          {
            "duration": 0.13636350000000164,
            "durationTicks": 96,
            "midi": 88,
            "name": "E6",
            "ticks": 73344,
            "time": 104.181714,
            "velocity": 0.4881889763779528
          },
          {
            "duration": 0.13636350000000164,
            "durationTicks": 96,
            "midi": 88,
            "name": "E6",
            "ticks": 73344,
            "time": 104.181714,
            "velocity": 0.4881889763779528
          },
          {
            "duration": 0.13636350000000164,
            "durationTicks": 96,
            "midi": 76,
            "name": "E5",
            "ticks": 73344,
            "time": 104.181714,
            "velocity": 0.4881889763779528
          },
          {
            "duration": 0.13636350000000164,
            "durationTicks": 96,
            "midi": 76,
            "name": "E5",
            "ticks": 73344,
            "time": 104.181714,
            "velocity": 0.4881889763779528
          },
          {
            "duration": 0.13636350000000164,
            "durationTicks": 96,
            "midi": 88,
            "name": "E6",
            "ticks": 73344,
            "time": 104.181714,
            "velocity": 0.4881889763779528
          },
          {
            "duration": 0.4090905000000049,
            "durationTicks": 288,
            "midi": 87,
            "name": "D#6",
            "ticks": 73440,
            "time": 104.3180775,
            "velocity": 0.4881889763779528
          },
          {
            "duration": 0.4090905000000049,
            "durationTicks": 288,
            "midi": 87,
            "name": "D#6",
            "ticks": 73440,
            "time": 104.3180775,
            "velocity": 0.4881889763779528
          },
          {
            "duration": 0.4090905000000049,
            "durationTicks": 288,
            "midi": 75,
            "name": "D#5",
            "ticks": 73440,
            "time": 104.3180775,
            "velocity": 0.4881889763779528
          },
          {
            "duration": 0.4090905000000049,
            "durationTicks": 288,
            "midi": 75,
            "name": "D#5",
            "ticks": 73440,
            "time": 104.3180775,
            "velocity": 0.4881889763779528
          },
          {
            "duration": 0.4090905000000049,
            "durationTicks": 288,
            "midi": 75,
            "name": "D#5",
            "ticks": 73440,
            "time": 104.3180775,
            "velocity": 0.4881889763779528
          },
          {
            "duration": 0.4090905000000049,
            "durationTicks": 288,
            "midi": 87,
            "name": "D#6",
            "ticks": 73440,
            "time": 104.3180775,
            "velocity": 0.4881889763779528
          },
          {
            "duration": 0.4090905000000049,
            "durationTicks": 288,
            "midi": 75,
            "name": "D#5",
            "ticks": 73440,
            "time": 104.3180775,
            "velocity": 0.4881889763779528
          },
          {
            "duration": 0.4090905000000049,
            "durationTicks": 288,
            "midi": 75,
            "name": "D#5",
            "ticks": 73440,
            "time": 104.3180775,
            "velocity": 0.4881889763779528
          },
          {
            "duration": 0.4090905000000049,
            "durationTicks": 288,
            "midi": 87,
            "name": "D#6",
            "ticks": 73440,
            "time": 104.3180775,
            "velocity": 0.4881889763779528
          },
          {
            "duration": 0.4090905000000049,
            "durationTicks": 288,
            "midi": 75,
            "name": "D#5",
            "ticks": 73440,
            "time": 104.3180775,
            "velocity": 0.4881889763779528
          },
          {
            "duration": 0.4090905000000049,
            "durationTicks": 288,
            "midi": 87,
            "name": "D#6",
            "ticks": 73440,
            "time": 104.3180775,
            "velocity": 0.4881889763779528
          },
          {
            "duration": 0.4090905000000049,
            "durationTicks": 288,
            "midi": 87,
            "name": "D#6",
            "ticks": 73440,
            "time": 104.3180775,
            "velocity": 0.4881889763779528
          },
          {
            "duration": 0.2727270000000033,
            "durationTicks": 192,
            "midi": 44,
            "name": "G#2",
            "ticks": 73536,
            "time": 104.454441,
            "velocity": 0.4881889763779528
          },
          {
            "duration": 0.2727270000000033,
            "durationTicks": 192,
            "midi": 44,
            "name": "G#2",
            "ticks": 73536,
            "time": 104.454441,
            "velocity": 0.4881889763779528
          },
          {
            "duration": 0.2727270000000033,
            "durationTicks": 192,
            "midi": 56,
            "name": "G#3",
            "ticks": 73536,
            "time": 104.454441,
            "velocity": 0.4881889763779528
          },
          {
            "duration": 0.2727270000000033,
            "durationTicks": 192,
            "midi": 56,
            "name": "G#3",
            "ticks": 73536,
            "time": 104.454441,
            "velocity": 0.4881889763779528
          },
          {
            "duration": 0.2727270000000033,
            "durationTicks": 192,
            "midi": 56,
            "name": "G#3",
            "ticks": 73536,
            "time": 104.454441,
            "velocity": 0.4881889763779528
          },
          {
            "duration": 0.2727270000000033,
            "durationTicks": 192,
            "midi": 56,
            "name": "G#3",
            "ticks": 73536,
            "time": 104.454441,
            "velocity": 0.4881889763779528
          },
          {
            "duration": 0.2727270000000033,
            "durationTicks": 192,
            "midi": 44,
            "name": "G#2",
            "ticks": 73536,
            "time": 104.454441,
            "velocity": 0.4881889763779528
          },
          {
            "duration": 0.2727270000000033,
            "durationTicks": 192,
            "midi": 44,
            "name": "G#2",
            "ticks": 73536,
            "time": 104.454441,
            "velocity": 0.4881889763779528
          },
          {
            "duration": 0.2727270000000033,
            "durationTicks": 192,
            "midi": 56,
            "name": "G#3",
            "ticks": 73536,
            "time": 104.454441,
            "velocity": 0.4881889763779528
          },
          {
            "duration": 0.2727270000000033,
            "durationTicks": 192,
            "midi": 44,
            "name": "G#2",
            "ticks": 73536,
            "time": 104.454441,
            "velocity": 0.4881889763779528
          },
          {
            "duration": 0.2727270000000033,
            "durationTicks": 192,
            "midi": 56,
            "name": "G#3",
            "ticks": 73536,
            "time": 104.454441,
            "velocity": 0.4881889763779528
          },
          {
            "duration": 0.2727270000000033,
            "durationTicks": 192,
            "midi": 44,
            "name": "G#2",
            "ticks": 73536,
            "time": 104.454441,
            "velocity": 0.4881889763779528
          },
          {
            "duration": 0.4090904999999907,
            "durationTicks": 288,
            "midi": 61,
            "name": "C#4",
            "ticks": 73728,
            "time": 104.727168,
            "velocity": 0.4881889763779528
          },
          {
            "duration": 0.4090904999999907,
            "durationTicks": 288,
            "midi": 56,
            "name": "G#3",
            "ticks": 73728,
            "time": 104.727168,
            "velocity": 0.4881889763779528
          },
          {
            "duration": 0.4090904999999907,
            "durationTicks": 288,
            "midi": 68,
            "name": "G#4",
            "ticks": 73728,
            "time": 104.727168,
            "velocity": 0.4881889763779528
          },
          {
            "duration": 0.4090904999999907,
            "durationTicks": 288,
            "midi": 61,
            "name": "C#4",
            "ticks": 73728,
            "time": 104.727168,
            "velocity": 0.4881889763779528
          },
          {
            "duration": 0.4090904999999907,
            "durationTicks": 288,
            "midi": 68,
            "name": "G#4",
            "ticks": 73728,
            "time": 104.727168,
            "velocity": 0.4881889763779528
          },
          {
            "duration": 0.4090904999999907,
            "durationTicks": 288,
            "midi": 56,
            "name": "G#3",
            "ticks": 73728,
            "time": 104.727168,
            "velocity": 0.4881889763779528
          },
          {
            "duration": 0.4090904999999907,
            "durationTicks": 288,
            "midi": 56,
            "name": "G#3",
            "ticks": 73728,
            "time": 104.727168,
            "velocity": 0.4881889763779528
          },
          {
            "duration": 0.4090904999999907,
            "durationTicks": 288,
            "midi": 61,
            "name": "C#4",
            "ticks": 73728,
            "time": 104.727168,
            "velocity": 0.4881889763779528
          },
          {
            "duration": 0.4090904999999907,
            "durationTicks": 288,
            "midi": 61,
            "name": "C#4",
            "ticks": 73728,
            "time": 104.727168,
            "velocity": 0.4881889763779528
          },
          {
            "duration": 0.4090904999999907,
            "durationTicks": 288,
            "midi": 56,
            "name": "G#3",
            "ticks": 73728,
            "time": 104.727168,
            "velocity": 0.4881889763779528
          },
          {
            "duration": 0.4090904999999907,
            "durationTicks": 288,
            "midi": 61,
            "name": "C#4",
            "ticks": 73728,
            "time": 104.727168,
            "velocity": 0.4881889763779528
          },
          {
            "duration": 0.4090904999999907,
            "durationTicks": 288,
            "midi": 56,
            "name": "G#3",
            "ticks": 73728,
            "time": 104.727168,
            "velocity": 0.4881889763779528
          },
          {
            "duration": 0.4090904999999907,
            "durationTicks": 288,
            "midi": 68,
            "name": "G#4",
            "ticks": 73728,
            "time": 104.727168,
            "velocity": 0.4881889763779528
          },
          {
            "duration": 0.4090904999999907,
            "durationTicks": 288,
            "midi": 68,
            "name": "G#4",
            "ticks": 73728,
            "time": 104.727168,
            "velocity": 0.4881889763779528
          },
          {
            "duration": 0.4090904999999907,
            "durationTicks": 288,
            "midi": 68,
            "name": "G#4",
            "ticks": 73728,
            "time": 104.727168,
            "velocity": 0.4881889763779528
          },
          {
            "duration": 0.4090904999999907,
            "durationTicks": 288,
            "midi": 68,
            "name": "G#4",
            "ticks": 73728,
            "time": 104.727168,
            "velocity": 0.4881889763779528
          },
          {
            "duration": 0.4090904999999907,
            "durationTicks": 288,
            "midi": 61,
            "name": "C#4",
            "ticks": 73728,
            "time": 104.727168,
            "velocity": 0.4881889763779528
          },
          {
            "duration": 0.4090904999999907,
            "durationTicks": 288,
            "midi": 56,
            "name": "G#3",
            "ticks": 73728,
            "time": 104.727168,
            "velocity": 0.4881889763779528
          },
          {
            "duration": 0.13636350000000164,
            "durationTicks": 96,
            "midi": 88,
            "name": "E6",
            "ticks": 73920,
            "time": 104.999895,
            "velocity": 0.4881889763779528
          },
          {
            "duration": 0.13636350000000164,
            "durationTicks": 96,
            "midi": 88,
            "name": "E6",
            "ticks": 73920,
            "time": 104.999895,
            "velocity": 0.4881889763779528
          },
          {
            "duration": 0.13636350000000164,
            "durationTicks": 96,
            "midi": 88,
            "name": "E6",
            "ticks": 73920,
            "time": 104.999895,
            "velocity": 0.4881889763779528
          },
          {
            "duration": 0.13636350000000164,
            "durationTicks": 96,
            "midi": 76,
            "name": "E5",
            "ticks": 73920,
            "time": 104.999895,
            "velocity": 0.4881889763779528
          },
          {
            "duration": 0.13636350000000164,
            "durationTicks": 96,
            "midi": 88,
            "name": "E6",
            "ticks": 73920,
            "time": 104.999895,
            "velocity": 0.4881889763779528
          },
          {
            "duration": 0.13636350000000164,
            "durationTicks": 96,
            "midi": 76,
            "name": "E5",
            "ticks": 73920,
            "time": 104.999895,
            "velocity": 0.4881889763779528
          },
          {
            "duration": 0.13636350000000164,
            "durationTicks": 96,
            "midi": 76,
            "name": "E5",
            "ticks": 73920,
            "time": 104.999895,
            "velocity": 0.4881889763779528
          },
          {
            "duration": 0.13636350000000164,
            "durationTicks": 96,
            "midi": 76,
            "name": "E5",
            "ticks": 73920,
            "time": 104.999895,
            "velocity": 0.4881889763779528
          },
          {
            "duration": 0.13636350000000164,
            "durationTicks": 96,
            "midi": 76,
            "name": "E5",
            "ticks": 73920,
            "time": 104.999895,
            "velocity": 0.4881889763779528
          },
          {
            "duration": 0.13636350000000164,
            "durationTicks": 96,
            "midi": 76,
            "name": "E5",
            "ticks": 73920,
            "time": 104.999895,
            "velocity": 0.4881889763779528
          },
          {
            "duration": 0.13636350000000164,
            "durationTicks": 96,
            "midi": 88,
            "name": "E6",
            "ticks": 73920,
            "time": 104.999895,
            "velocity": 0.4881889763779528
          },
          {
            "duration": 0.13636350000000164,
            "durationTicks": 96,
            "midi": 88,
            "name": "E6",
            "ticks": 73920,
            "time": 104.999895,
            "velocity": 0.4881889763779528
          },
          {
            "duration": 0.13636350000000164,
            "durationTicks": 96,
            "midi": 76,
            "name": "E5",
            "ticks": 74016,
            "time": 105.1362585,
            "velocity": 0.4881889763779528
          },
          {
            "duration": 0.6818175000000082,
            "durationTicks": 480,
            "midi": 56,
            "name": "G#3",
            "ticks": 74016,
            "time": 105.1362585,
            "velocity": 0.4881889763779528
          },
          {
            "duration": 0.13636350000000164,
            "durationTicks": 96,
            "midi": 88,
            "name": "E6",
            "ticks": 74016,
            "time": 105.1362585,
            "velocity": 0.4881889763779528
          },
          {
            "duration": 0.13636350000000164,
            "durationTicks": 96,
            "midi": 76,
            "name": "E5",
            "ticks": 74016,
            "time": 105.1362585,
            "velocity": 0.4881889763779528
          },
          {
            "duration": 0.13636350000000164,
            "durationTicks": 96,
            "midi": 76,
            "name": "E5",
            "ticks": 74016,
            "time": 105.1362585,
            "velocity": 0.4881889763779528
          },
          {
            "duration": 0.6818175000000082,
            "durationTicks": 480,
            "midi": 61,
            "name": "C#4",
            "ticks": 74016,
            "time": 105.1362585,
            "velocity": 0.4881889763779528
          },
          {
            "duration": 0.6818175000000082,
            "durationTicks": 480,
            "midi": 56,
            "name": "G#3",
            "ticks": 74016,
            "time": 105.1362585,
            "velocity": 0.4881889763779528
          },
          {
            "duration": 0.6818175000000082,
            "durationTicks": 480,
            "midi": 68,
            "name": "G#4",
            "ticks": 74016,
            "time": 105.1362585,
            "velocity": 0.4881889763779528
          },
          {
            "duration": 0.6818175000000082,
            "durationTicks": 480,
            "midi": 61,
            "name": "C#4",
            "ticks": 74016,
            "time": 105.1362585,
            "velocity": 0.4881889763779528
          },
          {
            "duration": 0.13636350000000164,
            "durationTicks": 96,
            "midi": 76,
            "name": "E5",
            "ticks": 74016,
            "time": 105.1362585,
            "velocity": 0.4881889763779528
          },
          {
            "duration": 0.13636350000000164,
            "durationTicks": 96,
            "midi": 76,
            "name": "E5",
            "ticks": 74016,
            "time": 105.1362585,
            "velocity": 0.4881889763779528
          },
          {
            "duration": 0.6818175000000082,
            "durationTicks": 480,
            "midi": 68,
            "name": "G#4",
            "ticks": 74016,
            "time": 105.1362585,
            "velocity": 0.4881889763779528
          },
          {
            "duration": 0.13636350000000164,
            "durationTicks": 96,
            "midi": 88,
            "name": "E6",
            "ticks": 74016,
            "time": 105.1362585,
            "velocity": 0.4881889763779528
          },
          {
            "duration": 0.13636350000000164,
            "durationTicks": 96,
            "midi": 88,
            "name": "E6",
            "ticks": 74016,
            "time": 105.1362585,
            "velocity": 0.4881889763779528
          },
          {
            "duration": 0.13636350000000164,
            "durationTicks": 96,
            "midi": 88,
            "name": "E6",
            "ticks": 74016,
            "time": 105.1362585,
            "velocity": 0.4881889763779528
          },
          {
            "duration": 0.6818175000000082,
            "durationTicks": 480,
            "midi": 56,
            "name": "G#3",
            "ticks": 74016,
            "time": 105.1362585,
            "velocity": 0.4881889763779528
          },
          {
            "duration": 0.6818175000000082,
            "durationTicks": 480,
            "midi": 56,
            "name": "G#3",
            "ticks": 74016,
            "time": 105.1362585,
            "velocity": 0.4881889763779528
          },
          {
            "duration": 0.6818175000000082,
            "durationTicks": 480,
            "midi": 61,
            "name": "C#4",
            "ticks": 74016,
            "time": 105.1362585,
            "velocity": 0.4881889763779528
          },
          {
            "duration": 0.6818175000000082,
            "durationTicks": 480,
            "midi": 68,
            "name": "G#4",
            "ticks": 74016,
            "time": 105.1362585,
            "velocity": 0.4881889763779528
          },
          {
            "duration": 0.6818175000000082,
            "durationTicks": 480,
            "midi": 56,
            "name": "G#3",
            "ticks": 74016,
            "time": 105.1362585,
            "velocity": 0.4881889763779528
          },
          {
            "duration": 0.6818175000000082,
            "durationTicks": 480,
            "midi": 61,
            "name": "C#4",
            "ticks": 74016,
            "time": 105.1362585,
            "velocity": 0.4881889763779528
          },
          {
            "duration": 0.6818175000000082,
            "durationTicks": 480,
            "midi": 61,
            "name": "C#4",
            "ticks": 74016,
            "time": 105.1362585,
            "velocity": 0.4881889763779528
          },
          {
            "duration": 0.6818175000000082,
            "durationTicks": 480,
            "midi": 61,
            "name": "C#4",
            "ticks": 74016,
            "time": 105.1362585,
            "velocity": 0.4881889763779528
          },
          {
            "duration": 0.6818175000000082,
            "durationTicks": 480,
            "midi": 68,
            "name": "G#4",
            "ticks": 74016,
            "time": 105.1362585,
            "velocity": 0.4881889763779528
          },
          {
            "duration": 0.6818175000000082,
            "durationTicks": 480,
            "midi": 68,
            "name": "G#4",
            "ticks": 74016,
            "time": 105.1362585,
            "velocity": 0.4881889763779528
          },
          {
            "duration": 0.13636350000000164,
            "durationTicks": 96,
            "midi": 88,
            "name": "E6",
            "ticks": 74016,
            "time": 105.1362585,
            "velocity": 0.4881889763779528
          },
          {
            "duration": 0.6818175000000082,
            "durationTicks": 480,
            "midi": 56,
            "name": "G#3",
            "ticks": 74016,
            "time": 105.1362585,
            "velocity": 0.4881889763779528
          },
          {
            "duration": 0.6818175000000082,
            "durationTicks": 480,
            "midi": 68,
            "name": "G#4",
            "ticks": 74016,
            "time": 105.1362585,
            "velocity": 0.4881889763779528
          },
          {
            "duration": 0.13636350000000164,
            "durationTicks": 96,
            "midi": 88,
            "name": "E6",
            "ticks": 74016,
            "time": 105.1362585,
            "velocity": 0.4881889763779528
          },
          {
            "duration": 0.13636350000000164,
            "durationTicks": 96,
            "midi": 76,
            "name": "E5",
            "ticks": 74016,
            "time": 105.1362585,
            "velocity": 0.4881889763779528
          },
          {
            "duration": 0.13636350000000164,
            "durationTicks": 96,
            "midi": 76,
            "name": "E5",
            "ticks": 74112,
            "time": 105.272622,
            "velocity": 0.4881889763779528
          },
          {
            "duration": 0.13636350000000164,
            "durationTicks": 96,
            "midi": 88,
            "name": "E6",
            "ticks": 74112,
            "time": 105.272622,
            "velocity": 0.4881889763779528
          },
          {
            "duration": 0.13636350000000164,
            "durationTicks": 96,
            "midi": 88,
            "name": "E6",
            "ticks": 74112,
            "time": 105.272622,
            "velocity": 0.4881889763779528
          },
          {
            "duration": 0.13636350000000164,
            "durationTicks": 96,
            "midi": 88,
            "name": "E6",
            "ticks": 74112,
            "time": 105.272622,
            "velocity": 0.4881889763779528
          },
          {
            "duration": 0.13636350000000164,
            "durationTicks": 96,
            "midi": 76,
            "name": "E5",
            "ticks": 74112,
            "time": 105.272622,
            "velocity": 0.4881889763779528
          },
          {
            "duration": 0.13636350000000164,
            "durationTicks": 96,
            "midi": 88,
            "name": "E6",
            "ticks": 74112,
            "time": 105.272622,
            "velocity": 0.4881889763779528
          },
          {
            "duration": 0.13636350000000164,
            "durationTicks": 96,
            "midi": 88,
            "name": "E6",
            "ticks": 74112,
            "time": 105.272622,
            "velocity": 0.4881889763779528
          },
          {
            "duration": 0.13636350000000164,
            "durationTicks": 96,
            "midi": 76,
            "name": "E5",
            "ticks": 74112,
            "time": 105.272622,
            "velocity": 0.4881889763779528
          },
          {
            "duration": 0.13636350000000164,
            "durationTicks": 96,
            "midi": 88,
            "name": "E6",
            "ticks": 74112,
            "time": 105.272622,
            "velocity": 0.4881889763779528
          },
          {
            "duration": 0.13636350000000164,
            "durationTicks": 96,
            "midi": 76,
            "name": "E5",
            "ticks": 74112,
            "time": 105.272622,
            "velocity": 0.4881889763779528
          },
          {
            "duration": 0.13636350000000164,
            "durationTicks": 96,
            "midi": 76,
            "name": "E5",
            "ticks": 74112,
            "time": 105.272622,
            "velocity": 0.4881889763779528
          },
          {
            "duration": 0.13636350000000164,
            "durationTicks": 96,
            "midi": 76,
            "name": "E5",
            "ticks": 74112,
            "time": 105.272622,
            "velocity": 0.4881889763779528
          },
          {
            "duration": 0.13636350000000164,
            "durationTicks": 96,
            "midi": 73,
            "name": "C#5",
            "ticks": 74208,
            "time": 105.4089855,
            "velocity": 0.4881889763779528
          },
          {
            "duration": 0.13636350000000164,
            "durationTicks": 96,
            "midi": 73,
            "name": "C#5",
            "ticks": 74208,
            "time": 105.4089855,
            "velocity": 0.4881889763779528
          },
          {
            "duration": 0.13636350000000164,
            "durationTicks": 96,
            "midi": 85,
            "name": "C#6",
            "ticks": 74208,
            "time": 105.4089855,
            "velocity": 0.4881889763779528
          },
          {
            "duration": 0.13636350000000164,
            "durationTicks": 96,
            "midi": 85,
            "name": "C#6",
            "ticks": 74208,
            "time": 105.4089855,
            "velocity": 0.4881889763779528
          },
          {
            "duration": 0.13636350000000164,
            "durationTicks": 96,
            "midi": 73,
            "name": "C#5",
            "ticks": 74208,
            "time": 105.4089855,
            "velocity": 0.4881889763779528
          },
          {
            "duration": 0.13636350000000164,
            "durationTicks": 96,
            "midi": 73,
            "name": "C#5",
            "ticks": 74208,
            "time": 105.4089855,
            "velocity": 0.4881889763779528
          },
          {
            "duration": 0.13636350000000164,
            "durationTicks": 96,
            "midi": 85,
            "name": "C#6",
            "ticks": 74208,
            "time": 105.4089855,
            "velocity": 0.4881889763779528
          },
          {
            "duration": 0.13636350000000164,
            "durationTicks": 96,
            "midi": 73,
            "name": "C#5",
            "ticks": 74208,
            "time": 105.4089855,
            "velocity": 0.4881889763779528
          },
          {
            "duration": 0.13636350000000164,
            "durationTicks": 96,
            "midi": 85,
            "name": "C#6",
            "ticks": 74208,
            "time": 105.4089855,
            "velocity": 0.4881889763779528
          },
          {
            "duration": 0.13636350000000164,
            "durationTicks": 96,
            "midi": 85,
            "name": "C#6",
            "ticks": 74208,
            "time": 105.4089855,
            "velocity": 0.4881889763779528
          },
          {
            "duration": 0.13636350000000164,
            "durationTicks": 96,
            "midi": 73,
            "name": "C#5",
            "ticks": 74208,
            "time": 105.4089855,
            "velocity": 0.4881889763779528
          },
          {
            "duration": 0.13636350000000164,
            "durationTicks": 96,
            "midi": 85,
            "name": "C#6",
            "ticks": 74208,
            "time": 105.4089855,
            "velocity": 0.4881889763779528
          },
          {
            "duration": 0.13636350000000164,
            "durationTicks": 96,
            "midi": 88,
            "name": "E6",
            "ticks": 74304,
            "time": 105.545349,
            "velocity": 0.4881889763779528
          },
          {
            "duration": 0.13636350000000164,
            "durationTicks": 96,
            "midi": 76,
            "name": "E5",
            "ticks": 74304,
            "time": 105.545349,
            "velocity": 0.4881889763779528
          },
          {
            "duration": 0.13636350000000164,
            "durationTicks": 96,
            "midi": 76,
            "name": "E5",
            "ticks": 74304,
            "time": 105.545349,
            "velocity": 0.4881889763779528
          },
          {
            "duration": 0.13636350000000164,
            "durationTicks": 96,
            "midi": 88,
            "name": "E6",
            "ticks": 74304,
            "time": 105.545349,
            "velocity": 0.4881889763779528
          },
          {
            "duration": 0.13636350000000164,
            "durationTicks": 96,
            "midi": 76,
            "name": "E5",
            "ticks": 74304,
            "time": 105.545349,
            "velocity": 0.4881889763779528
          },
          {
            "duration": 0.13636350000000164,
            "durationTicks": 96,
            "midi": 76,
            "name": "E5",
            "ticks": 74304,
            "time": 105.545349,
            "velocity": 0.4881889763779528
          },
          {
            "duration": 0.13636350000000164,
            "durationTicks": 96,
            "midi": 88,
            "name": "E6",
            "ticks": 74304,
            "time": 105.545349,
            "velocity": 0.4881889763779528
          },
          {
            "duration": 0.13636350000000164,
            "durationTicks": 96,
            "midi": 88,
            "name": "E6",
            "ticks": 74304,
            "time": 105.545349,
            "velocity": 0.4881889763779528
          },
          {
            "duration": 0.13636350000000164,
            "durationTicks": 96,
            "midi": 76,
            "name": "E5",
            "ticks": 74304,
            "time": 105.545349,
            "velocity": 0.4881889763779528
          },
          {
            "duration": 0.13636350000000164,
            "durationTicks": 96,
            "midi": 88,
            "name": "E6",
            "ticks": 74304,
            "time": 105.545349,
            "velocity": 0.4881889763779528
          },
          {
            "duration": 0.13636350000000164,
            "durationTicks": 96,
            "midi": 76,
            "name": "E5",
            "ticks": 74304,
            "time": 105.545349,
            "velocity": 0.4881889763779528
          },
          {
            "duration": 0.13636350000000164,
            "durationTicks": 96,
            "midi": 88,
            "name": "E6",
            "ticks": 74304,
            "time": 105.545349,
            "velocity": 0.4881889763779528
          },
          {
            "duration": 0.13636350000000164,
            "durationTicks": 96,
            "midi": 90,
            "name": "F#6",
            "ticks": 74400,
            "time": 105.6817125,
            "velocity": 0.4881889763779528
          },
          {
            "duration": 0.13636350000000164,
            "durationTicks": 96,
            "midi": 78,
            "name": "F#5",
            "ticks": 74400,
            "time": 105.6817125,
            "velocity": 0.4881889763779528
          },
          {
            "duration": 0.13636350000000164,
            "durationTicks": 96,
            "midi": 90,
            "name": "F#6",
            "ticks": 74400,
            "time": 105.6817125,
            "velocity": 0.4881889763779528
          },
          {
            "duration": 0.13636350000000164,
            "durationTicks": 96,
            "midi": 90,
            "name": "F#6",
            "ticks": 74400,
            "time": 105.6817125,
            "velocity": 0.4881889763779528
          },
          {
            "duration": 0.13636350000000164,
            "durationTicks": 96,
            "midi": 90,
            "name": "F#6",
            "ticks": 74400,
            "time": 105.6817125,
            "velocity": 0.4881889763779528
          },
          {
            "duration": 0.13636350000000164,
            "durationTicks": 96,
            "midi": 78,
            "name": "F#5",
            "ticks": 74400,
            "time": 105.6817125,
            "velocity": 0.4881889763779528
          },
          {
            "duration": 0.13636350000000164,
            "durationTicks": 96,
            "midi": 78,
            "name": "F#5",
            "ticks": 74400,
            "time": 105.6817125,
            "velocity": 0.4881889763779528
          },
          {
            "duration": 0.13636350000000164,
            "durationTicks": 96,
            "midi": 90,
            "name": "F#6",
            "ticks": 74400,
            "time": 105.6817125,
            "velocity": 0.4881889763779528
          },
          {
            "duration": 0.13636350000000164,
            "durationTicks": 96,
            "midi": 78,
            "name": "F#5",
            "ticks": 74400,
            "time": 105.6817125,
            "velocity": 0.4881889763779528
          },
          {
            "duration": 0.13636350000000164,
            "durationTicks": 96,
            "midi": 90,
            "name": "F#6",
            "ticks": 74400,
            "time": 105.6817125,
            "velocity": 0.4881889763779528
          },
          {
            "duration": 0.13636350000000164,
            "durationTicks": 96,
            "midi": 78,
            "name": "F#5",
            "ticks": 74400,
            "time": 105.6817125,
            "velocity": 0.4881889763779528
          },
          {
            "duration": 0.13636350000000164,
            "durationTicks": 96,
            "midi": 78,
            "name": "F#5",
            "ticks": 74400,
            "time": 105.6817125,
            "velocity": 0.4881889763779528
          },
          {
            "duration": 0.27272699999998906,
            "durationTicks": 192,
            "midi": 51,
            "name": "D#3",
            "ticks": 74496,
            "time": 105.818076,
            "velocity": 0.4881889763779528
          },
          {
            "duration": 0.13636349999998743,
            "durationTicks": 96,
            "midi": 87,
            "name": "D#6",
            "ticks": 74496,
            "time": 105.818076,
            "velocity": 0.4881889763779528
          },
          {
            "duration": 0.13636349999998743,
            "durationTicks": 96,
            "midi": 75,
            "name": "D#5",
            "ticks": 74496,
            "time": 105.818076,
            "velocity": 0.4881889763779528
          },
          {
            "duration": 0.27272699999998906,
            "durationTicks": 192,
            "midi": 56,
            "name": "G#3",
            "ticks": 74496,
            "time": 105.818076,
            "velocity": 0.4881889763779528
          },
          {
            "duration": 0.27272699999998906,
            "durationTicks": 192,
            "midi": 44,
            "name": "G#2",
            "ticks": 74496,
            "time": 105.818076,
            "velocity": 0.4881889763779528
          },
          {
            "duration": 0.13636349999998743,
            "durationTicks": 96,
            "midi": 75,
            "name": "D#5",
            "ticks": 74496,
            "time": 105.818076,
            "velocity": 0.4881889763779528
          },
          {
            "duration": 0.13636349999998743,
            "durationTicks": 96,
            "midi": 75,
            "name": "D#5",
            "ticks": 74496,
            "time": 105.818076,
            "velocity": 0.4881889763779528
          },
          {
            "duration": 0.27272699999998906,
            "durationTicks": 192,
            "midi": 44,
            "name": "G#2",
            "ticks": 74496,
            "time": 105.818076,
            "velocity": 0.4881889763779528
          },
          {
            "duration": 0.27272699999998906,
            "durationTicks": 192,
            "midi": 44,
            "name": "G#2",
            "ticks": 74496,
            "time": 105.818076,
            "velocity": 0.4881889763779528
          },
          {
            "duration": 0.13636349999998743,
            "durationTicks": 96,
            "midi": 75,
            "name": "D#5",
            "ticks": 74496,
            "time": 105.818076,
            "velocity": 0.4881889763779528
          },
          {
            "duration": 0.13636349999998743,
            "durationTicks": 96,
            "midi": 87,
            "name": "D#6",
            "ticks": 74496,
            "time": 105.818076,
            "velocity": 0.4881889763779528
          },
          {
            "duration": 0.27272699999998906,
            "durationTicks": 192,
            "midi": 51,
            "name": "D#3",
            "ticks": 74496,
            "time": 105.818076,
            "velocity": 0.4881889763779528
          },
          {
            "duration": 0.27272699999998906,
            "durationTicks": 192,
            "midi": 56,
            "name": "G#3",
            "ticks": 74496,
            "time": 105.818076,
            "velocity": 0.4881889763779528
          },
          {
            "duration": 0.27272699999998906,
            "durationTicks": 192,
            "midi": 44,
            "name": "G#2",
            "ticks": 74496,
            "time": 105.818076,
            "velocity": 0.4881889763779528
          },
          {
            "duration": 0.27272699999998906,
            "durationTicks": 192,
            "midi": 56,
            "name": "G#3",
            "ticks": 74496,
            "time": 105.818076,
            "velocity": 0.4881889763779528
          },
          {
            "duration": 0.13636349999998743,
            "durationTicks": 96,
            "midi": 75,
            "name": "D#5",
            "ticks": 74496,
            "time": 105.818076,
            "velocity": 0.4881889763779528
          },
          {
            "duration": 0.27272699999998906,
            "durationTicks": 192,
            "midi": 44,
            "name": "G#2",
            "ticks": 74496,
            "time": 105.818076,
            "velocity": 0.4881889763779528
          },
          {
            "duration": 0.27272699999998906,
            "durationTicks": 192,
            "midi": 56,
            "name": "G#3",
            "ticks": 74496,
            "time": 105.818076,
            "velocity": 0.4881889763779528
          },
          {
            "duration": 0.27272699999998906,
            "durationTicks": 192,
            "midi": 44,
            "name": "G#2",
            "ticks": 74496,
            "time": 105.818076,
            "velocity": 0.4881889763779528
          },
          {
            "duration": 0.13636349999998743,
            "durationTicks": 96,
            "midi": 87,
            "name": "D#6",
            "ticks": 74496,
            "time": 105.818076,
            "velocity": 0.4881889763779528
          },
          {
            "duration": 0.13636349999998743,
            "durationTicks": 96,
            "midi": 87,
            "name": "D#6",
            "ticks": 74496,
            "time": 105.818076,
            "velocity": 0.4881889763779528
          },
          {
            "duration": 0.27272699999998906,
            "durationTicks": 192,
            "midi": 51,
            "name": "D#3",
            "ticks": 74496,
            "time": 105.818076,
            "velocity": 0.4881889763779528
          },
          {
            "duration": 0.13636349999998743,
            "durationTicks": 96,
            "midi": 87,
            "name": "D#6",
            "ticks": 74496,
            "time": 105.818076,
            "velocity": 0.4881889763779528
          },
          {
            "duration": 0.13636349999998743,
            "durationTicks": 96,
            "midi": 87,
            "name": "D#6",
            "ticks": 74496,
            "time": 105.818076,
            "velocity": 0.4881889763779528
          },
          {
            "duration": 0.27272699999998906,
            "durationTicks": 192,
            "midi": 56,
            "name": "G#3",
            "ticks": 74496,
            "time": 105.818076,
            "velocity": 0.4881889763779528
          },
          {
            "duration": 0.13636349999998743,
            "durationTicks": 96,
            "midi": 75,
            "name": "D#5",
            "ticks": 74496,
            "time": 105.818076,
            "velocity": 0.4881889763779528
          },
          {
            "duration": 0.27272699999998906,
            "durationTicks": 192,
            "midi": 51,
            "name": "D#3",
            "ticks": 74496,
            "time": 105.818076,
            "velocity": 0.4881889763779528
          },
          {
            "duration": 0.27272699999998906,
            "durationTicks": 192,
            "midi": 51,
            "name": "D#3",
            "ticks": 74496,
            "time": 105.818076,
            "velocity": 0.4881889763779528
          },
          {
            "duration": 0.27272699999998906,
            "durationTicks": 192,
            "midi": 56,
            "name": "G#3",
            "ticks": 74496,
            "time": 105.818076,
            "velocity": 0.4881889763779528
          },
          {
            "duration": 0.27272699999998906,
            "durationTicks": 192,
            "midi": 51,
            "name": "D#3",
            "ticks": 74496,
            "time": 105.818076,
            "velocity": 0.4881889763779528
          },
          {
            "duration": 0.13636350000000164,
            "durationTicks": 96,
            "midi": 80,
            "name": "G#5",
            "ticks": 74688,
            "time": 106.090803,
            "velocity": 0.4881889763779528
          },
          {
            "duration": 0.13636350000000164,
            "durationTicks": 96,
            "midi": 92,
            "name": "G#6",
            "ticks": 74688,
            "time": 106.090803,
            "velocity": 0.4881889763779528
          },
          {
            "duration": 0.13636350000000164,
            "durationTicks": 96,
            "midi": 92,
            "name": "G#6",
            "ticks": 74688,
            "time": 106.090803,
            "velocity": 0.4881889763779528
          },
          {
            "duration": 0.13636350000000164,
            "durationTicks": 96,
            "midi": 80,
            "name": "G#5",
            "ticks": 74688,
            "time": 106.090803,
            "velocity": 0.4881889763779528
          },
          {
            "duration": 0.13636350000000164,
            "durationTicks": 96,
            "midi": 92,
            "name": "G#6",
            "ticks": 74688,
            "time": 106.090803,
            "velocity": 0.4881889763779528
          },
          {
            "duration": 0.13636350000000164,
            "durationTicks": 96,
            "midi": 80,
            "name": "G#5",
            "ticks": 74688,
            "time": 106.090803,
            "velocity": 0.4881889763779528
          },
          {
            "duration": 0.13636350000000164,
            "durationTicks": 96,
            "midi": 92,
            "name": "G#6",
            "ticks": 74688,
            "time": 106.090803,
            "velocity": 0.4881889763779528
          },
          {
            "duration": 0.13636350000000164,
            "durationTicks": 96,
            "midi": 80,
            "name": "G#5",
            "ticks": 74688,
            "time": 106.090803,
            "velocity": 0.4881889763779528
          },
          {
            "duration": 0.13636350000000164,
            "durationTicks": 96,
            "midi": 80,
            "name": "G#5",
            "ticks": 74688,
            "time": 106.090803,
            "velocity": 0.4881889763779528
          },
          {
            "duration": 0.13636350000000164,
            "durationTicks": 96,
            "midi": 80,
            "name": "G#5",
            "ticks": 74688,
            "time": 106.090803,
            "velocity": 0.4881889763779528
          },
          {
            "duration": 0.13636350000000164,
            "durationTicks": 96,
            "midi": 92,
            "name": "G#6",
            "ticks": 74688,
            "time": 106.090803,
            "velocity": 0.4881889763779528
          },
          {
            "duration": 0.13636350000000164,
            "durationTicks": 96,
            "midi": 92,
            "name": "G#6",
            "ticks": 74688,
            "time": 106.090803,
            "velocity": 0.4881889763779528
          },
          {
            "duration": 0.13636350000000164,
            "durationTicks": 96,
            "midi": 92,
            "name": "G#6",
            "ticks": 74784,
            "time": 106.2271665,
            "velocity": 0.4881889763779528
          },
          {
            "duration": 0.13636350000000164,
            "durationTicks": 96,
            "midi": 80,
            "name": "G#5",
            "ticks": 74784,
            "time": 106.2271665,
            "velocity": 0.4881889763779528
          },
          {
            "duration": 0.13636350000000164,
            "durationTicks": 96,
            "midi": 92,
            "name": "G#6",
            "ticks": 74784,
            "time": 106.2271665,
            "velocity": 0.4881889763779528
          },
          {
            "duration": 0.13636350000000164,
            "durationTicks": 96,
            "midi": 80,
            "name": "G#5",
            "ticks": 74784,
            "time": 106.2271665,
            "velocity": 0.4881889763779528
          },
          {
            "duration": 0.13636350000000164,
            "durationTicks": 96,
            "midi": 92,
            "name": "G#6",
            "ticks": 74784,
            "time": 106.2271665,
            "velocity": 0.4881889763779528
          },
          {
            "duration": 0.13636350000000164,
            "durationTicks": 96,
            "midi": 80,
            "name": "G#5",
            "ticks": 74784,
            "time": 106.2271665,
            "velocity": 0.4881889763779528
          },
          {
            "duration": 0.13636350000000164,
            "durationTicks": 96,
            "midi": 80,
            "name": "G#5",
            "ticks": 74784,
            "time": 106.2271665,
            "velocity": 0.4881889763779528
          },
          {
            "duration": 0.13636350000000164,
            "durationTicks": 96,
            "midi": 80,
            "name": "G#5",
            "ticks": 74784,
            "time": 106.2271665,
            "velocity": 0.4881889763779528
          },
          {
            "duration": 0.13636350000000164,
            "durationTicks": 96,
            "midi": 92,
            "name": "G#6",
            "ticks": 74784,
            "time": 106.2271665,
            "velocity": 0.4881889763779528
          },
          {
            "duration": 0.13636350000000164,
            "durationTicks": 96,
            "midi": 92,
            "name": "G#6",
            "ticks": 74784,
            "time": 106.2271665,
            "velocity": 0.4881889763779528
          },
          {
            "duration": 0.13636350000000164,
            "durationTicks": 96,
            "midi": 92,
            "name": "G#6",
            "ticks": 74784,
            "time": 106.2271665,
            "velocity": 0.4881889763779528
          },
          {
            "duration": 0.13636350000000164,
            "durationTicks": 96,
            "midi": 80,
            "name": "G#5",
            "ticks": 74784,
            "time": 106.2271665,
            "velocity": 0.4881889763779528
          },
          {
            "duration": 0.13636350000000164,
            "durationTicks": 96,
            "midi": 80,
            "name": "G#5",
            "ticks": 74976,
            "time": 106.4998935,
            "velocity": 0.4881889763779528
          },
          {
            "duration": 0.13636350000000164,
            "durationTicks": 96,
            "midi": 92,
            "name": "G#6",
            "ticks": 74976,
            "time": 106.4998935,
            "velocity": 0.4881889763779528
          },
          {
            "duration": 0.13636350000000164,
            "durationTicks": 96,
            "midi": 92,
            "name": "G#6",
            "ticks": 74976,
            "time": 106.4998935,
            "velocity": 0.4881889763779528
          },
          {
            "duration": 0.13636350000000164,
            "durationTicks": 96,
            "midi": 92,
            "name": "G#6",
            "ticks": 74976,
            "time": 106.4998935,
            "velocity": 0.4881889763779528
          },
          {
            "duration": 0.13636350000000164,
            "durationTicks": 96,
            "midi": 80,
            "name": "G#5",
            "ticks": 74976,
            "time": 106.4998935,
            "velocity": 0.4881889763779528
          },
          {
            "duration": 0.13636350000000164,
            "durationTicks": 96,
            "midi": 80,
            "name": "G#5",
            "ticks": 74976,
            "time": 106.4998935,
            "velocity": 0.4881889763779528
          },
          {
            "duration": 0.13636350000000164,
            "durationTicks": 96,
            "midi": 92,
            "name": "G#6",
            "ticks": 74976,
            "time": 106.4998935,
            "velocity": 0.4881889763779528
          },
          {
            "duration": 0.13636350000000164,
            "durationTicks": 96,
            "midi": 80,
            "name": "G#5",
            "ticks": 74976,
            "time": 106.4998935,
            "velocity": 0.4881889763779528
          },
          {
            "duration": 0.13636350000000164,
            "durationTicks": 96,
            "midi": 80,
            "name": "G#5",
            "ticks": 74976,
            "time": 106.4998935,
            "velocity": 0.4881889763779528
          },
          {
            "duration": 0.13636350000000164,
            "durationTicks": 96,
            "midi": 80,
            "name": "G#5",
            "ticks": 74976,
            "time": 106.4998935,
            "velocity": 0.4881889763779528
          },
          {
            "duration": 0.13636350000000164,
            "durationTicks": 96,
            "midi": 92,
            "name": "G#6",
            "ticks": 74976,
            "time": 106.4998935,
            "velocity": 0.4881889763779528
          },
          {
            "duration": 0.13636350000000164,
            "durationTicks": 96,
            "midi": 92,
            "name": "G#6",
            "ticks": 74976,
            "time": 106.4998935,
            "velocity": 0.4881889763779528
          },
          {
            "duration": 0.2727270000000033,
            "durationTicks": 192,
            "midi": 93,
            "name": "A6",
            "ticks": 75072,
            "time": 106.636257,
            "velocity": 0.4881889763779528
          },
          {
            "duration": 0.2727270000000033,
            "durationTicks": 192,
            "midi": 81,
            "name": "A5",
            "ticks": 75072,
            "time": 106.636257,
            "velocity": 0.4881889763779528
          },
          {
            "duration": 0.2727270000000033,
            "durationTicks": 192,
            "midi": 93,
            "name": "A6",
            "ticks": 75072,
            "time": 106.636257,
            "velocity": 0.4881889763779528
          },
          {
            "duration": 0.2727270000000033,
            "durationTicks": 192,
            "midi": 93,
            "name": "A6",
            "ticks": 75072,
            "time": 106.636257,
            "velocity": 0.4881889763779528
          },
          {
            "duration": 0.2727270000000033,
            "durationTicks": 192,
            "midi": 81,
            "name": "A5",
            "ticks": 75072,
            "time": 106.636257,
            "velocity": 0.4881889763779528
          },
          {
            "duration": 0.2727270000000033,
            "durationTicks": 192,
            "midi": 81,
            "name": "A5",
            "ticks": 75072,
            "time": 106.636257,
            "velocity": 0.4881889763779528
          },
          {
            "duration": 0.2727270000000033,
            "durationTicks": 192,
            "midi": 81,
            "name": "A5",
            "ticks": 75072,
            "time": 106.636257,
            "velocity": 0.4881889763779528
          },
          {
            "duration": 0.2727270000000033,
            "durationTicks": 192,
            "midi": 81,
            "name": "A5",
            "ticks": 75072,
            "time": 106.636257,
            "velocity": 0.4881889763779528
          },
          {
            "duration": 0.2727270000000033,
            "durationTicks": 192,
            "midi": 93,
            "name": "A6",
            "ticks": 75072,
            "time": 106.636257,
            "velocity": 0.4881889763779528
          },
          {
            "duration": 0.2727270000000033,
            "durationTicks": 192,
            "midi": 93,
            "name": "A6",
            "ticks": 75072,
            "time": 106.636257,
            "velocity": 0.4881889763779528
          },
          {
            "duration": 0.2727270000000033,
            "durationTicks": 192,
            "midi": 93,
            "name": "A6",
            "ticks": 75072,
            "time": 106.636257,
            "velocity": 0.4881889763779528
          },
          {
            "duration": 0.2727270000000033,
            "durationTicks": 192,
            "midi": 81,
            "name": "A5",
            "ticks": 75072,
            "time": 106.636257,
            "velocity": 0.4881889763779528
          },
          {
            "duration": 1.0909079999999989,
            "durationTicks": 768,
            "midi": 100,
            "name": "E7",
            "ticks": 75264,
            "time": 106.908984,
            "velocity": 0.4881889763779528
          },
          {
            "duration": 0.5454539999999923,
            "durationTicks": 384,
            "midi": 90,
            "name": "F#6",
            "ticks": 75264,
            "time": 106.908984,
            "velocity": 0.4881889763779528
          },
          {
            "duration": 1.0909079999999989,
            "durationTicks": 768,
            "midi": 100,
            "name": "E7",
            "ticks": 75264,
            "time": 106.908984,
            "velocity": 0.4881889763779528
          },
          {
            "duration": 1.0909079999999989,
            "durationTicks": 768,
            "midi": 92,
            "name": "G#6",
            "ticks": 75264,
            "time": 106.908984,
            "velocity": 0.4881889763779528
          },
          {
            "duration": 0.13636350000000164,
            "durationTicks": 96,
            "midi": 61,
            "name": "C#4",
            "ticks": 75264,
            "time": 106.908984,
            "velocity": 0.4881889763779528
          },
          {
            "duration": 1.0909079999999989,
            "durationTicks": 768,
            "midi": 95,
            "name": "B6",
            "ticks": 75264,
            "time": 106.908984,
            "velocity": 0.4881889763779528
          },
          {
            "duration": 0.13636350000000164,
            "durationTicks": 96,
            "midi": 61,
            "name": "C#4",
            "ticks": 75264,
            "time": 106.908984,
            "velocity": 0.4881889763779528
          },
          {
            "duration": 0.5454539999999923,
            "durationTicks": 384,
            "midi": 78,
            "name": "F#5",
            "ticks": 75264,
            "time": 106.908984,
            "velocity": 0.4881889763779528
          },
          {
            "duration": 0.13636350000000164,
            "durationTicks": 96,
            "midi": 49,
            "name": "C#3",
            "ticks": 75264,
            "time": 106.908984,
            "velocity": 0.4881889763779528
          },
          {
            "duration": 1.0909079999999989,
            "durationTicks": 768,
            "midi": 95,
            "name": "B6",
            "ticks": 75264,
            "time": 106.908984,
            "velocity": 0.4881889763779528
          },
          {
            "duration": 1.0909079999999989,
            "durationTicks": 768,
            "midi": 100,
            "name": "E7",
            "ticks": 75264,
            "time": 106.908984,
            "velocity": 0.4881889763779528
          },
          {
            "duration": 0.5454539999999923,
            "durationTicks": 384,
            "midi": 90,
            "name": "F#6",
            "ticks": 75264,
            "time": 106.908984,
            "velocity": 0.4881889763779528
          },
          {
            "duration": 0.13636350000000164,
            "durationTicks": 96,
            "midi": 61,
            "name": "C#4",
            "ticks": 75264,
            "time": 106.908984,
            "velocity": 0.4881889763779528
          },
          {
            "duration": 1.0909079999999989,
            "durationTicks": 768,
            "midi": 95,
            "name": "B6",
            "ticks": 75264,
            "time": 106.908984,
            "velocity": 0.4881889763779528
          },
          {
            "duration": 0.5454539999999923,
            "durationTicks": 384,
            "midi": 78,
            "name": "F#5",
            "ticks": 75264,
            "time": 106.908984,
            "velocity": 0.4881889763779528
          },
          {
            "duration": 1.0909079999999989,
            "durationTicks": 768,
            "midi": 100,
            "name": "E7",
            "ticks": 75264,
            "time": 106.908984,
            "velocity": 0.4881889763779528
          },
          {
            "duration": 0.13636350000000164,
            "durationTicks": 96,
            "midi": 49,
            "name": "C#3",
            "ticks": 75264,
            "time": 106.908984,
            "velocity": 0.4881889763779528
          },
          {
            "duration": 0.5454539999999923,
            "durationTicks": 384,
            "midi": 78,
            "name": "F#5",
            "ticks": 75264,
            "time": 106.908984,
            "velocity": 0.4881889763779528
          },
          {
            "duration": 0.13636350000000164,
            "durationTicks": 96,
            "midi": 49,
            "name": "C#3",
            "ticks": 75264,
            "time": 106.908984,
            "velocity": 0.4881889763779528
          },
          {
            "duration": 0.13636350000000164,
            "durationTicks": 96,
            "midi": 49,
            "name": "C#3",
            "ticks": 75264,
            "time": 106.908984,
            "velocity": 0.4881889763779528
          },
          {
            "duration": 1.0909079999999989,
            "durationTicks": 768,
            "midi": 100,
            "name": "E7",
            "ticks": 75264,
            "time": 106.908984,
            "velocity": 0.4881889763779528
          },
          {
            "duration": 0.13636350000000164,
            "durationTicks": 96,
            "midi": 49,
            "name": "C#3",
            "ticks": 75264,
            "time": 106.908984,
            "velocity": 0.4881889763779528
          },
          {
            "duration": 0.5454539999999923,
            "durationTicks": 384,
            "midi": 90,
            "name": "F#6",
            "ticks": 75264,
            "time": 106.908984,
            "velocity": 0.4881889763779528
          },
          {
            "duration": 0.5454539999999923,
            "durationTicks": 384,
            "midi": 90,
            "name": "F#6",
            "ticks": 75264,
            "time": 106.908984,
            "velocity": 0.4881889763779528
          },
          {
            "duration": 1.0909079999999989,
            "durationTicks": 768,
            "midi": 95,
            "name": "B6",
            "ticks": 75264,
            "time": 106.908984,
            "velocity": 0.4881889763779528
          },
          {
            "duration": 0.13636350000000164,
            "durationTicks": 96,
            "midi": 61,
            "name": "C#4",
            "ticks": 75264,
            "time": 106.908984,
            "velocity": 0.4881889763779528
          },
          {
            "duration": 1.0909079999999989,
            "durationTicks": 768,
            "midi": 95,
            "name": "B6",
            "ticks": 75264,
            "time": 106.908984,
            "velocity": 0.4881889763779528
          },
          {
            "duration": 1.0909079999999989,
            "durationTicks": 768,
            "midi": 92,
            "name": "G#6",
            "ticks": 75264,
            "time": 106.908984,
            "velocity": 0.4881889763779528
          },
          {
            "duration": 1.0909079999999989,
            "durationTicks": 768,
            "midi": 95,
            "name": "B6",
            "ticks": 75264,
            "time": 106.908984,
            "velocity": 0.4881889763779528
          },
          {
            "duration": 0.5454539999999923,
            "durationTicks": 384,
            "midi": 78,
            "name": "F#5",
            "ticks": 75264,
            "time": 106.908984,
            "velocity": 0.4881889763779528
          },
          {
            "duration": 0.5454539999999923,
            "durationTicks": 384,
            "midi": 90,
            "name": "F#6",
            "ticks": 75264,
            "time": 106.908984,
            "velocity": 0.4881889763779528
          },
          {
            "duration": 0.13636350000000164,
            "durationTicks": 96,
            "midi": 61,
            "name": "C#4",
            "ticks": 75264,
            "time": 106.908984,
            "velocity": 0.4881889763779528
          },
          {
            "duration": 1.0909079999999989,
            "durationTicks": 768,
            "midi": 92,
            "name": "G#6",
            "ticks": 75264,
            "time": 106.908984,
            "velocity": 0.4881889763779528
          },
          {
            "duration": 1.0909079999999989,
            "durationTicks": 768,
            "midi": 92,
            "name": "G#6",
            "ticks": 75264,
            "time": 106.908984,
            "velocity": 0.4881889763779528
          },
          {
            "duration": 0.5454539999999923,
            "durationTicks": 384,
            "midi": 78,
            "name": "F#5",
            "ticks": 75264,
            "time": 106.908984,
            "velocity": 0.4881889763779528
          },
          {
            "duration": 0.13636350000000164,
            "durationTicks": 96,
            "midi": 49,
            "name": "C#3",
            "ticks": 75264,
            "time": 106.908984,
            "velocity": 0.4881889763779528
          },
          {
            "duration": 1.0909079999999989,
            "durationTicks": 768,
            "midi": 92,
            "name": "G#6",
            "ticks": 75264,
            "time": 106.908984,
            "velocity": 0.4881889763779528
          },
          {
            "duration": 0.13636350000000164,
            "durationTicks": 96,
            "midi": 61,
            "name": "C#4",
            "ticks": 75264,
            "time": 106.908984,
            "velocity": 0.4881889763779528
          },
          {
            "duration": 1.0909079999999989,
            "durationTicks": 768,
            "midi": 92,
            "name": "G#6",
            "ticks": 75264,
            "time": 106.908984,
            "velocity": 0.4881889763779528
          },
          {
            "duration": 0.5454539999999923,
            "durationTicks": 384,
            "midi": 78,
            "name": "F#5",
            "ticks": 75264,
            "time": 106.908984,
            "velocity": 0.4881889763779528
          },
          {
            "duration": 0.5454539999999923,
            "durationTicks": 384,
            "midi": 90,
            "name": "F#6",
            "ticks": 75264,
            "time": 106.908984,
            "velocity": 0.4881889763779528
          },
          {
            "duration": 1.0909079999999989,
            "durationTicks": 768,
            "midi": 100,
            "name": "E7",
            "ticks": 75264,
            "time": 106.908984,
            "velocity": 0.4881889763779528
          },
          {
            "duration": 0.13636349999998743,
            "durationTicks": 96,
            "midi": 49,
            "name": "C#3",
            "ticks": 75360,
            "time": 107.0453475,
            "velocity": 0.4881889763779528
          },
          {
            "duration": 0.13636349999998743,
            "durationTicks": 96,
            "midi": 49,
            "name": "C#3",
            "ticks": 75360,
            "time": 107.0453475,
            "velocity": 0.4881889763779528
          },
          {
            "duration": 0.13636349999998743,
            "durationTicks": 96,
            "midi": 49,
            "name": "C#3",
            "ticks": 75360,
            "time": 107.0453475,
            "velocity": 0.4881889763779528
          },
          {
            "duration": 0.13636349999998743,
            "durationTicks": 96,
            "midi": 49,
            "name": "C#3",
            "ticks": 75360,
            "time": 107.0453475,
            "velocity": 0.4881889763779528
          },
          {
            "duration": 0.13636349999998743,
            "durationTicks": 96,
            "midi": 61,
            "name": "C#4",
            "ticks": 75360,
            "time": 107.0453475,
            "velocity": 0.4881889763779528
          },
          {
            "duration": 0.13636349999998743,
            "durationTicks": 96,
            "midi": 61,
            "name": "C#4",
            "ticks": 75360,
            "time": 107.0453475,
            "velocity": 0.4881889763779528
          },
          {
            "duration": 0.13636349999998743,
            "durationTicks": 96,
            "midi": 49,
            "name": "C#3",
            "ticks": 75360,
            "time": 107.0453475,
            "velocity": 0.4881889763779528
          },
          {
            "duration": 0.13636349999998743,
            "durationTicks": 96,
            "midi": 61,
            "name": "C#4",
            "ticks": 75360,
            "time": 107.0453475,
            "velocity": 0.4881889763779528
          },
          {
            "duration": 0.13636349999998743,
            "durationTicks": 96,
            "midi": 61,
            "name": "C#4",
            "ticks": 75360,
            "time": 107.0453475,
            "velocity": 0.4881889763779528
          },
          {
            "duration": 0.13636349999998743,
            "durationTicks": 96,
            "midi": 49,
            "name": "C#3",
            "ticks": 75360,
            "time": 107.0453475,
            "velocity": 0.4881889763779528
          },
          {
            "duration": 0.13636349999998743,
            "durationTicks": 96,
            "midi": 61,
            "name": "C#4",
            "ticks": 75360,
            "time": 107.0453475,
            "velocity": 0.4881889763779528
          },
          {
            "duration": 0.13636349999998743,
            "durationTicks": 96,
            "midi": 61,
            "name": "C#4",
            "ticks": 75360,
            "time": 107.0453475,
            "velocity": 0.4881889763779528
          },
          {
            "duration": 0.2727270000000033,
            "durationTicks": 192,
            "midi": 61,
            "name": "C#4",
            "ticks": 75456,
            "time": 107.18171099999999,
            "velocity": 0.4881889763779528
          },
          {
            "duration": 0.2727270000000033,
            "durationTicks": 192,
            "midi": 49,
            "name": "C#3",
            "ticks": 75456,
            "time": 107.18171099999999,
            "velocity": 0.4881889763779528
          },
          {
            "duration": 0.2727270000000033,
            "durationTicks": 192,
            "midi": 61,
            "name": "C#4",
            "ticks": 75456,
            "time": 107.18171099999999,
            "velocity": 0.4881889763779528
          },
          {
            "duration": 0.2727270000000033,
            "durationTicks": 192,
            "midi": 49,
            "name": "C#3",
            "ticks": 75456,
            "time": 107.18171099999999,
            "velocity": 0.4881889763779528
          },
          {
            "duration": 0.2727270000000033,
            "durationTicks": 192,
            "midi": 49,
            "name": "C#3",
            "ticks": 75456,
            "time": 107.18171099999999,
            "velocity": 0.4881889763779528
          },
          {
            "duration": 0.2727270000000033,
            "durationTicks": 192,
            "midi": 61,
            "name": "C#4",
            "ticks": 75456,
            "time": 107.18171099999999,
            "velocity": 0.4881889763779528
          },
          {
            "duration": 0.2727270000000033,
            "durationTicks": 192,
            "midi": 49,
            "name": "C#3",
            "ticks": 75456,
            "time": 107.18171099999999,
            "velocity": 0.4881889763779528
          },
          {
            "duration": 0.2727270000000033,
            "durationTicks": 192,
            "midi": 61,
            "name": "C#4",
            "ticks": 75456,
            "time": 107.18171099999999,
            "velocity": 0.4881889763779528
          },
          {
            "duration": 0.2727270000000033,
            "durationTicks": 192,
            "midi": 49,
            "name": "C#3",
            "ticks": 75456,
            "time": 107.18171099999999,
            "velocity": 0.4881889763779528
          },
          {
            "duration": 0.2727270000000033,
            "durationTicks": 192,
            "midi": 61,
            "name": "C#4",
            "ticks": 75456,
            "time": 107.18171099999999,
            "velocity": 0.4881889763779528
          },
          {
            "duration": 0.2727270000000033,
            "durationTicks": 192,
            "midi": 61,
            "name": "C#4",
            "ticks": 75456,
            "time": 107.18171099999999,
            "velocity": 0.4881889763779528
          },
          {
            "duration": 0.2727270000000033,
            "durationTicks": 192,
            "midi": 49,
            "name": "C#3",
            "ticks": 75456,
            "time": 107.18171099999999,
            "velocity": 0.4881889763779528
          },
          {
            "duration": 0.13636350000000164,
            "durationTicks": 96,
            "midi": 61,
            "name": "C#4",
            "ticks": 75648,
            "time": 107.454438,
            "velocity": 0.4881889763779528
          },
          {
            "duration": 0.5454540000000065,
            "durationTicks": 384,
            "midi": 88,
            "name": "E6",
            "ticks": 75648,
            "time": 107.454438,
            "velocity": 0.4881889763779528
          },
          {
            "duration": 0.13636350000000164,
            "durationTicks": 96,
            "midi": 49,
            "name": "C#3",
            "ticks": 75648,
            "time": 107.454438,
            "velocity": 0.4881889763779528
          },
          {
            "duration": 0.5454540000000065,
            "durationTicks": 384,
            "midi": 88,
            "name": "E6",
            "ticks": 75648,
            "time": 107.454438,
            "velocity": 0.4881889763779528
          },
          {
            "duration": 0.5454540000000065,
            "durationTicks": 384,
            "midi": 88,
            "name": "E6",
            "ticks": 75648,
            "time": 107.454438,
            "velocity": 0.4881889763779528
          },
          {
            "duration": 0.13636350000000164,
            "durationTicks": 96,
            "midi": 61,
            "name": "C#4",
            "ticks": 75648,
            "time": 107.454438,
            "velocity": 0.4881889763779528
          },
          {
            "duration": 1.2272715000000005,
            "durationTicks": 864,
            "midi": 76,
            "name": "E5",
            "ticks": 75648,
            "time": 107.454438,
            "velocity": 0.4881889763779528
          },
          {
            "duration": 0.13636350000000164,
            "durationTicks": 96,
            "midi": 49,
            "name": "C#3",
            "ticks": 75648,
            "time": 107.454438,
            "velocity": 0.4881889763779528
          },
          {
            "duration": 0.5454540000000065,
            "durationTicks": 384,
            "midi": 88,
            "name": "E6",
            "ticks": 75648,
            "time": 107.454438,
            "velocity": 0.4881889763779528
          },
          {
            "duration": 0.5454540000000065,
            "durationTicks": 384,
            "midi": 88,
            "name": "E6",
            "ticks": 75648,
            "time": 107.454438,
            "velocity": 0.4881889763779528
          },
          {
            "duration": 1.2272715000000005,
            "durationTicks": 864,
            "midi": 76,
            "name": "E5",
            "ticks": 75648,
            "time": 107.454438,
            "velocity": 0.4881889763779528
          },
          {
            "duration": 0.5454540000000065,
            "durationTicks": 384,
            "midi": 88,
            "name": "E6",
            "ticks": 75648,
            "time": 107.454438,
            "velocity": 0.4881889763779528
          },
          {
            "duration": 0.13636350000000164,
            "durationTicks": 96,
            "midi": 61,
            "name": "C#4",
            "ticks": 75648,
            "time": 107.454438,
            "velocity": 0.4881889763779528
          },
          {
            "duration": 0.13636350000000164,
            "durationTicks": 96,
            "midi": 61,
            "name": "C#4",
            "ticks": 75648,
            "time": 107.454438,
            "velocity": 0.4881889763779528
          },
          {
            "duration": 0.13636350000000164,
            "durationTicks": 96,
            "midi": 49,
            "name": "C#3",
            "ticks": 75648,
            "time": 107.454438,
            "velocity": 0.4881889763779528
          },
          {
            "duration": 0.13636350000000164,
            "durationTicks": 96,
            "midi": 61,
            "name": "C#4",
            "ticks": 75648,
            "time": 107.454438,
            "velocity": 0.4881889763779528
          },
          {
            "duration": 1.2272715000000005,
            "durationTicks": 864,
            "midi": 88,
            "name": "E6",
            "ticks": 75648,
            "time": 107.454438,
            "velocity": 0.4881889763779528
          },
          {
            "duration": 1.2272715000000005,
            "durationTicks": 864,
            "midi": 88,
            "name": "E6",
            "ticks": 75648,
            "time": 107.454438,
            "velocity": 0.4881889763779528
          },
          {
            "duration": 0.13636350000000164,
            "durationTicks": 96,
            "midi": 61,
            "name": "C#4",
            "ticks": 75648,
            "time": 107.454438,
            "velocity": 0.4881889763779528
          },
          {
            "duration": 1.2272715000000005,
            "durationTicks": 864,
            "midi": 88,
            "name": "E6",
            "ticks": 75648,
            "time": 107.454438,
            "velocity": 0.4881889763779528
          },
          {
            "duration": 1.2272715000000005,
            "durationTicks": 864,
            "midi": 76,
            "name": "E5",
            "ticks": 75648,
            "time": 107.454438,
            "velocity": 0.4881889763779528
          },
          {
            "duration": 1.2272715000000005,
            "durationTicks": 864,
            "midi": 76,
            "name": "E5",
            "ticks": 75648,
            "time": 107.454438,
            "velocity": 0.4881889763779528
          },
          {
            "duration": 0.13636350000000164,
            "durationTicks": 96,
            "midi": 49,
            "name": "C#3",
            "ticks": 75648,
            "time": 107.454438,
            "velocity": 0.4881889763779528
          },
          {
            "duration": 0.13636350000000164,
            "durationTicks": 96,
            "midi": 49,
            "name": "C#3",
            "ticks": 75648,
            "time": 107.454438,
            "velocity": 0.4881889763779528
          },
          {
            "duration": 1.2272715000000005,
            "durationTicks": 864,
            "midi": 76,
            "name": "E5",
            "ticks": 75648,
            "time": 107.454438,
            "velocity": 0.4881889763779528
          },
          {
            "duration": 1.2272715000000005,
            "durationTicks": 864,
            "midi": 88,
            "name": "E6",
            "ticks": 75648,
            "time": 107.454438,
            "velocity": 0.4881889763779528
          },
          {
            "duration": 0.13636350000000164,
            "durationTicks": 96,
            "midi": 49,
            "name": "C#3",
            "ticks": 75648,
            "time": 107.454438,
            "velocity": 0.4881889763779528
          },
          {
            "duration": 1.2272715000000005,
            "durationTicks": 864,
            "midi": 88,
            "name": "E6",
            "ticks": 75648,
            "time": 107.454438,
            "velocity": 0.4881889763779528
          },
          {
            "duration": 1.2272715000000005,
            "durationTicks": 864,
            "midi": 76,
            "name": "E5",
            "ticks": 75648,
            "time": 107.454438,
            "velocity": 0.4881889763779528
          },
          {
            "duration": 1.2272715000000005,
            "durationTicks": 864,
            "midi": 88,
            "name": "E6",
            "ticks": 75648,
            "time": 107.454438,
            "velocity": 0.4881889763779528
          },
          {
            "duration": 0.13636350000000164,
            "durationTicks": 96,
            "midi": 61,
            "name": "C#4",
            "ticks": 75744,
            "time": 107.5908015,
            "velocity": 0.4881889763779528
          },
          {
            "duration": 0.13636350000000164,
            "durationTicks": 96,
            "midi": 61,
            "name": "C#4",
            "ticks": 75744,
            "time": 107.5908015,
            "velocity": 0.4881889763779528
          },
          {
            "duration": 0.13636350000000164,
            "durationTicks": 96,
            "midi": 61,
            "name": "C#4",
            "ticks": 75744,
            "time": 107.5908015,
            "velocity": 0.4881889763779528
          },
          {
            "duration": 0.13636350000000164,
            "durationTicks": 96,
            "midi": 49,
            "name": "C#3",
            "ticks": 75744,
            "time": 107.5908015,
            "velocity": 0.4881889763779528
          },
          {
            "duration": 0.13636350000000164,
            "durationTicks": 96,
            "midi": 49,
            "name": "C#3",
            "ticks": 75744,
            "time": 107.5908015,
            "velocity": 0.4881889763779528
          },
          {
            "duration": 0.13636350000000164,
            "durationTicks": 96,
            "midi": 61,
            "name": "C#4",
            "ticks": 75744,
            "time": 107.5908015,
            "velocity": 0.4881889763779528
          },
          {
            "duration": 0.13636350000000164,
            "durationTicks": 96,
            "midi": 49,
            "name": "C#3",
            "ticks": 75744,
            "time": 107.5908015,
            "velocity": 0.4881889763779528
          },
          {
            "duration": 0.13636350000000164,
            "durationTicks": 96,
            "midi": 49,
            "name": "C#3",
            "ticks": 75744,
            "time": 107.5908015,
            "velocity": 0.4881889763779528
          },
          {
            "duration": 0.13636350000000164,
            "durationTicks": 96,
            "midi": 61,
            "name": "C#4",
            "ticks": 75744,
            "time": 107.5908015,
            "velocity": 0.4881889763779528
          },
          {
            "duration": 0.13636350000000164,
            "durationTicks": 96,
            "midi": 49,
            "name": "C#3",
            "ticks": 75744,
            "time": 107.5908015,
            "velocity": 0.4881889763779528
          },
          {
            "duration": 0.13636350000000164,
            "durationTicks": 96,
            "midi": 61,
            "name": "C#4",
            "ticks": 75744,
            "time": 107.5908015,
            "velocity": 0.4881889763779528
          },
          {
            "duration": 0.13636350000000164,
            "durationTicks": 96,
            "midi": 49,
            "name": "C#3",
            "ticks": 75744,
            "time": 107.5908015,
            "velocity": 0.4881889763779528
          },
          {
            "duration": 0.2727270000000033,
            "durationTicks": 192,
            "midi": 61,
            "name": "C#4",
            "ticks": 75840,
            "time": 107.727165,
            "velocity": 0.4881889763779528
          },
          {
            "duration": 0.2727270000000033,
            "durationTicks": 192,
            "midi": 49,
            "name": "C#3",
            "ticks": 75840,
            "time": 107.727165,
            "velocity": 0.4881889763779528
          },
          {
            "duration": 0.2727270000000033,
            "durationTicks": 192,
            "midi": 49,
            "name": "C#3",
            "ticks": 75840,
            "time": 107.727165,
            "velocity": 0.4881889763779528
          },
          {
            "duration": 0.2727270000000033,
            "durationTicks": 192,
            "midi": 61,
            "name": "C#4",
            "ticks": 75840,
            "time": 107.727165,
            "velocity": 0.4881889763779528
          },
          {
            "duration": 0.2727270000000033,
            "durationTicks": 192,
            "midi": 49,
            "name": "C#3",
            "ticks": 75840,
            "time": 107.727165,
            "velocity": 0.4881889763779528
          },
          {
            "duration": 0.2727270000000033,
            "durationTicks": 192,
            "midi": 61,
            "name": "C#4",
            "ticks": 75840,
            "time": 107.727165,
            "velocity": 0.4881889763779528
          },
          {
            "duration": 0.2727270000000033,
            "durationTicks": 192,
            "midi": 61,
            "name": "C#4",
            "ticks": 75840,
            "time": 107.727165,
            "velocity": 0.4881889763779528
          },
          {
            "duration": 0.2727270000000033,
            "durationTicks": 192,
            "midi": 49,
            "name": "C#3",
            "ticks": 75840,
            "time": 107.727165,
            "velocity": 0.4881889763779528
          },
          {
            "duration": 0.2727270000000033,
            "durationTicks": 192,
            "midi": 61,
            "name": "C#4",
            "ticks": 75840,
            "time": 107.727165,
            "velocity": 0.4881889763779528
          },
          {
            "duration": 0.2727270000000033,
            "durationTicks": 192,
            "midi": 61,
            "name": "C#4",
            "ticks": 75840,
            "time": 107.727165,
            "velocity": 0.4881889763779528
          },
          {
            "duration": 0.2727270000000033,
            "durationTicks": 192,
            "midi": 49,
            "name": "C#3",
            "ticks": 75840,
            "time": 107.727165,
            "velocity": 0.4881889763779528
          },
          {
            "duration": 0.2727270000000033,
            "durationTicks": 192,
            "midi": 49,
            "name": "C#3",
            "ticks": 75840,
            "time": 107.727165,
            "velocity": 0.4881889763779528
          },
          {
            "duration": 0.5454539999999923,
            "durationTicks": 384,
            "midi": 99,
            "name": "D#7",
            "ticks": 76032,
            "time": 107.999892,
            "velocity": 0.4881889763779528
          },
          {
            "duration": 0.5454539999999923,
            "durationTicks": 384,
            "midi": 99,
            "name": "D#7",
            "ticks": 76032,
            "time": 107.999892,
            "velocity": 0.4881889763779528
          },
          {
            "duration": 0.13636350000000164,
            "durationTicks": 96,
            "midi": 61,
            "name": "C#4",
            "ticks": 76032,
            "time": 107.999892,
            "velocity": 0.4881889763779528
          },
          {
            "duration": 0.5454539999999923,
            "durationTicks": 384,
            "midi": 99,
            "name": "D#7",
            "ticks": 76032,
            "time": 107.999892,
            "velocity": 0.4881889763779528
          },
          {
            "duration": 0.13636350000000164,
            "durationTicks": 96,
            "midi": 49,
            "name": "C#3",
            "ticks": 76032,
            "time": 107.999892,
            "velocity": 0.4881889763779528
          },
          {
            "duration": 0.5454539999999923,
            "durationTicks": 384,
            "midi": 87,
            "name": "D#6",
            "ticks": 76032,
            "time": 107.999892,
            "velocity": 0.4881889763779528
          },
          {
            "duration": 0.13636350000000164,
            "durationTicks": 96,
            "midi": 61,
            "name": "C#4",
            "ticks": 76032,
            "time": 107.999892,
            "velocity": 0.4881889763779528
          },
          {
            "duration": 0.5454539999999923,
            "durationTicks": 384,
            "midi": 87,
            "name": "D#6",
            "ticks": 76032,
            "time": 107.999892,
            "velocity": 0.4881889763779528
          },
          {
            "duration": 0.13636350000000164,
            "durationTicks": 96,
            "midi": 49,
            "name": "C#3",
            "ticks": 76032,
            "time": 107.999892,
            "velocity": 0.4881889763779528
          },
          {
            "duration": 0.13636350000000164,
            "durationTicks": 96,
            "midi": 49,
            "name": "C#3",
            "ticks": 76032,
            "time": 107.999892,
            "velocity": 0.4881889763779528
          },
          {
            "duration": 0.13636350000000164,
            "durationTicks": 96,
            "midi": 61,
            "name": "C#4",
            "ticks": 76032,
            "time": 107.999892,
            "velocity": 0.4881889763779528
          },
          {
            "duration": 0.13636350000000164,
            "durationTicks": 96,
            "midi": 61,
            "name": "C#4",
            "ticks": 76032,
            "time": 107.999892,
            "velocity": 0.4881889763779528
          },
          {
            "duration": 0.13636350000000164,
            "durationTicks": 96,
            "midi": 61,
            "name": "C#4",
            "ticks": 76032,
            "time": 107.999892,
            "velocity": 0.4881889763779528
          },
          {
            "duration": 0.5454539999999923,
            "durationTicks": 384,
            "midi": 99,
            "name": "D#7",
            "ticks": 76032,
            "time": 107.999892,
            "velocity": 0.4881889763779528
          },
          {
            "duration": 0.13636350000000164,
            "durationTicks": 96,
            "midi": 49,
            "name": "C#3",
            "ticks": 76032,
            "time": 107.999892,
            "velocity": 0.4881889763779528
          },
          {
            "duration": 0.5454539999999923,
            "durationTicks": 384,
            "midi": 87,
            "name": "D#6",
            "ticks": 76032,
            "time": 107.999892,
            "velocity": 0.4881889763779528
          },
          {
            "duration": 0.5454539999999923,
            "durationTicks": 384,
            "midi": 87,
            "name": "D#6",
            "ticks": 76032,
            "time": 107.999892,
            "velocity": 0.4881889763779528
          },
          {
            "duration": 0.5454539999999923,
            "durationTicks": 384,
            "midi": 87,
            "name": "D#6",
            "ticks": 76032,
            "time": 107.999892,
            "velocity": 0.4881889763779528
          },
          {
            "duration": 0.5454539999999923,
            "durationTicks": 384,
            "midi": 87,
            "name": "D#6",
            "ticks": 76032,
            "time": 107.999892,
            "velocity": 0.4881889763779528
          },
          {
            "duration": 0.5454539999999923,
            "durationTicks": 384,
            "midi": 99,
            "name": "D#7",
            "ticks": 76032,
            "time": 107.999892,
            "velocity": 0.4881889763779528
          },
          {
            "duration": 0.5454539999999923,
            "durationTicks": 384,
            "midi": 99,
            "name": "D#7",
            "ticks": 76032,
            "time": 107.999892,
            "velocity": 0.4881889763779528
          },
          {
            "duration": 0.13636350000000164,
            "durationTicks": 96,
            "midi": 49,
            "name": "C#3",
            "ticks": 76032,
            "time": 107.999892,
            "velocity": 0.4881889763779528
          },
          {
            "duration": 0.13636350000000164,
            "durationTicks": 96,
            "midi": 49,
            "name": "C#3",
            "ticks": 76032,
            "time": 107.999892,
            "velocity": 0.4881889763779528
          },
          {
            "duration": 0.13636350000000164,
            "durationTicks": 96,
            "midi": 61,
            "name": "C#4",
            "ticks": 76032,
            "time": 107.999892,
            "velocity": 0.4881889763779528
          },
          {
            "duration": 0.13636350000000164,
            "durationTicks": 96,
            "midi": 64,
            "name": "E4",
            "ticks": 76128,
            "time": 108.1362555,
            "velocity": 0.4881889763779528
          },
          {
            "duration": 0.13636350000000164,
            "durationTicks": 96,
            "midi": 52,
            "name": "E3",
            "ticks": 76128,
            "time": 108.1362555,
            "velocity": 0.4881889763779528
          },
          {
            "duration": 0.13636350000000164,
            "durationTicks": 96,
            "midi": 64,
            "name": "E4",
            "ticks": 76128,
            "time": 108.1362555,
            "velocity": 0.4881889763779528
          },
          {
            "duration": 0.13636350000000164,
            "durationTicks": 96,
            "midi": 52,
            "name": "E3",
            "ticks": 76128,
            "time": 108.1362555,
            "velocity": 0.4881889763779528
          },
          {
            "duration": 0.13636350000000164,
            "durationTicks": 96,
            "midi": 52,
            "name": "E3",
            "ticks": 76128,
            "time": 108.1362555,
            "velocity": 0.4881889763779528
          },
          {
            "duration": 0.13636350000000164,
            "durationTicks": 96,
            "midi": 52,
            "name": "E3",
            "ticks": 76128,
            "time": 108.1362555,
            "velocity": 0.4881889763779528
          },
          {
            "duration": 0.13636350000000164,
            "durationTicks": 96,
            "midi": 64,
            "name": "E4",
            "ticks": 76128,
            "time": 108.1362555,
            "velocity": 0.4881889763779528
          },
          {
            "duration": 0.13636350000000164,
            "durationTicks": 96,
            "midi": 64,
            "name": "E4",
            "ticks": 76128,
            "time": 108.1362555,
            "velocity": 0.4881889763779528
          },
          {
            "duration": 0.13636350000000164,
            "durationTicks": 96,
            "midi": 52,
            "name": "E3",
            "ticks": 76128,
            "time": 108.1362555,
            "velocity": 0.4881889763779528
          },
          {
            "duration": 0.13636350000000164,
            "durationTicks": 96,
            "midi": 52,
            "name": "E3",
            "ticks": 76128,
            "time": 108.1362555,
            "velocity": 0.4881889763779528
          },
          {
            "duration": 0.13636350000000164,
            "durationTicks": 96,
            "midi": 64,
            "name": "E4",
            "ticks": 76128,
            "time": 108.1362555,
            "velocity": 0.4881889763779528
          },
          {
            "duration": 0.13636350000000164,
            "durationTicks": 96,
            "midi": 64,
            "name": "E4",
            "ticks": 76128,
            "time": 108.1362555,
            "velocity": 0.4881889763779528
          },
          {
            "duration": 0.27272699999998906,
            "durationTicks": 192,
            "midi": 64,
            "name": "E4",
            "ticks": 76224,
            "time": 108.272619,
            "velocity": 0.4881889763779528
          },
          {
            "duration": 0.27272699999998906,
            "durationTicks": 192,
            "midi": 64,
            "name": "E4",
            "ticks": 76224,
            "time": 108.272619,
            "velocity": 0.4881889763779528
          },
          {
            "duration": 0.27272699999998906,
            "durationTicks": 192,
            "midi": 52,
            "name": "E3",
            "ticks": 76224,
            "time": 108.272619,
            "velocity": 0.4881889763779528
          },
          {
            "duration": 0.27272699999998906,
            "durationTicks": 192,
            "midi": 52,
            "name": "E3",
            "ticks": 76224,
            "time": 108.272619,
            "velocity": 0.4881889763779528
          },
          {
            "duration": 0.27272699999998906,
            "durationTicks": 192,
            "midi": 64,
            "name": "E4",
            "ticks": 76224,
            "time": 108.272619,
            "velocity": 0.4881889763779528
          },
          {
            "duration": 0.27272699999998906,
            "durationTicks": 192,
            "midi": 64,
            "name": "E4",
            "ticks": 76224,
            "time": 108.272619,
            "velocity": 0.4881889763779528
          },
          {
            "duration": 0.27272699999998906,
            "durationTicks": 192,
            "midi": 52,
            "name": "E3",
            "ticks": 76224,
            "time": 108.272619,
            "velocity": 0.4881889763779528
          },
          {
            "duration": 0.27272699999998906,
            "durationTicks": 192,
            "midi": 52,
            "name": "E3",
            "ticks": 76224,
            "time": 108.272619,
            "velocity": 0.4881889763779528
          },
          {
            "duration": 0.27272699999998906,
            "durationTicks": 192,
            "midi": 64,
            "name": "E4",
            "ticks": 76224,
            "time": 108.272619,
            "velocity": 0.4881889763779528
          },
          {
            "duration": 0.27272699999998906,
            "durationTicks": 192,
            "midi": 52,
            "name": "E3",
            "ticks": 76224,
            "time": 108.272619,
            "velocity": 0.4881889763779528
          },
          {
            "duration": 0.27272699999998906,
            "durationTicks": 192,
            "midi": 52,
            "name": "E3",
            "ticks": 76224,
            "time": 108.272619,
            "velocity": 0.4881889763779528
          },
          {
            "duration": 0.27272699999998906,
            "durationTicks": 192,
            "midi": 64,
            "name": "E4",
            "ticks": 76224,
            "time": 108.272619,
            "velocity": 0.4881889763779528
          },
          {
            "duration": 0.2727270000000033,
            "durationTicks": 192,
            "midi": 56,
            "name": "G#3",
            "ticks": 76416,
            "time": 108.545346,
            "velocity": 0.4881889763779528
          },
          {
            "duration": 0.5454540000000065,
            "durationTicks": 384,
            "midi": 97,
            "name": "C#7",
            "ticks": 76416,
            "time": 108.545346,
            "velocity": 0.4881889763779528
          },
          {
            "duration": 0.5454540000000065,
            "durationTicks": 384,
            "midi": 97,
            "name": "C#7",
            "ticks": 76416,
            "time": 108.545346,
            "velocity": 0.4881889763779528
          },
          {
            "duration": 0.2727270000000033,
            "durationTicks": 192,
            "midi": 56,
            "name": "G#3",
            "ticks": 76416,
            "time": 108.545346,
            "velocity": 0.4881889763779528
          },
          {
            "duration": 0.5454540000000065,
            "durationTicks": 384,
            "midi": 97,
            "name": "C#7",
            "ticks": 76416,
            "time": 108.545346,
            "velocity": 0.4881889763779528
          },
          {
            "duration": 0.2727270000000033,
            "durationTicks": 192,
            "midi": 68,
            "name": "G#4",
            "ticks": 76416,
            "time": 108.545346,
            "velocity": 0.4881889763779528
          },
          {
            "duration": 0.5454540000000065,
            "durationTicks": 384,
            "midi": 97,
            "name": "C#7",
            "ticks": 76416,
            "time": 108.545346,
            "velocity": 0.4881889763779528
          },
          {
            "duration": 0.2727270000000033,
            "durationTicks": 192,
            "midi": 68,
            "name": "G#4",
            "ticks": 76416,
            "time": 108.545346,
            "velocity": 0.4881889763779528
          },
          {
            "duration": 0.5454540000000065,
            "durationTicks": 384,
            "midi": 97,
            "name": "C#7",
            "ticks": 76416,
            "time": 108.545346,
            "velocity": 0.4881889763779528
          },
          {
            "duration": 0.2727270000000033,
            "durationTicks": 192,
            "midi": 56,
            "name": "G#3",
            "ticks": 76416,
            "time": 108.545346,
            "velocity": 0.4881889763779528
          },
          {
            "duration": 0.2727270000000033,
            "durationTicks": 192,
            "midi": 56,
            "name": "G#3",
            "ticks": 76416,
            "time": 108.545346,
            "velocity": 0.4881889763779528
          },
          {
            "duration": 0.2727270000000033,
            "durationTicks": 192,
            "midi": 68,
            "name": "G#4",
            "ticks": 76416,
            "time": 108.545346,
            "velocity": 0.4881889763779528
          },
          {
            "duration": 0.2727270000000033,
            "durationTicks": 192,
            "midi": 56,
            "name": "G#3",
            "ticks": 76416,
            "time": 108.545346,
            "velocity": 0.4881889763779528
          },
          {
            "duration": 0.2727270000000033,
            "durationTicks": 192,
            "midi": 68,
            "name": "G#4",
            "ticks": 76416,
            "time": 108.545346,
            "velocity": 0.4881889763779528
          },
          {
            "duration": 0.2727270000000033,
            "durationTicks": 192,
            "midi": 68,
            "name": "G#4",
            "ticks": 76416,
            "time": 108.545346,
            "velocity": 0.4881889763779528
          },
          {
            "duration": 0.2727270000000033,
            "durationTicks": 192,
            "midi": 68,
            "name": "G#4",
            "ticks": 76416,
            "time": 108.545346,
            "velocity": 0.4881889763779528
          },
          {
            "duration": 0.2727270000000033,
            "durationTicks": 192,
            "midi": 56,
            "name": "G#3",
            "ticks": 76416,
            "time": 108.545346,
            "velocity": 0.4881889763779528
          },
          {
            "duration": 0.5454540000000065,
            "durationTicks": 384,
            "midi": 97,
            "name": "C#7",
            "ticks": 76416,
            "time": 108.545346,
            "velocity": 0.4881889763779528
          },
          {
            "duration": 0.2727270000000033,
            "durationTicks": 192,
            "midi": 85,
            "name": "C#6",
            "ticks": 76608,
            "time": 108.818073,
            "velocity": 0.4881889763779528
          },
          {
            "duration": 0.2727270000000033,
            "durationTicks": 192,
            "midi": 47,
            "name": "B2",
            "ticks": 76608,
            "time": 108.818073,
            "velocity": 0.4881889763779528
          },
          {
            "duration": 0.2727270000000033,
            "durationTicks": 192,
            "midi": 85,
            "name": "C#6",
            "ticks": 76608,
            "time": 108.818073,
            "velocity": 0.4881889763779528
          },
          {
            "duration": 0.2727270000000033,
            "durationTicks": 192,
            "midi": 85,
            "name": "C#6",
            "ticks": 76608,
            "time": 108.818073,
            "velocity": 0.4881889763779528
          },
          {
            "duration": 0.2727270000000033,
            "durationTicks": 192,
            "midi": 85,
            "name": "C#6",
            "ticks": 76608,
            "time": 108.818073,
            "velocity": 0.4881889763779528
          },
          {
            "duration": 0.2727270000000033,
            "durationTicks": 192,
            "midi": 59,
            "name": "B3",
            "ticks": 76608,
            "time": 108.818073,
            "velocity": 0.4881889763779528
          },
          {
            "duration": 0.2727270000000033,
            "durationTicks": 192,
            "midi": 85,
            "name": "C#6",
            "ticks": 76608,
            "time": 108.818073,
            "velocity": 0.4881889763779528
          },
          {
            "duration": 0.2727270000000033,
            "durationTicks": 192,
            "midi": 47,
            "name": "B2",
            "ticks": 76608,
            "time": 108.818073,
            "velocity": 0.4881889763779528
          },
          {
            "duration": 0.2727270000000033,
            "durationTicks": 192,
            "midi": 85,
            "name": "C#6",
            "ticks": 76608,
            "time": 108.818073,
            "velocity": 0.4881889763779528
          },
          {
            "duration": 0.2727270000000033,
            "durationTicks": 192,
            "midi": 47,
            "name": "B2",
            "ticks": 76608,
            "time": 108.818073,
            "velocity": 0.4881889763779528
          },
          {
            "duration": 0.2727270000000033,
            "durationTicks": 192,
            "midi": 73,
            "name": "C#5",
            "ticks": 76608,
            "time": 108.818073,
            "velocity": 0.4881889763779528
          },
          {
            "duration": 0.2727270000000033,
            "durationTicks": 192,
            "midi": 73,
            "name": "C#5",
            "ticks": 76608,
            "time": 108.818073,
            "velocity": 0.4881889763779528
          },
          {
            "duration": 0.2727270000000033,
            "durationTicks": 192,
            "midi": 73,
            "name": "C#5",
            "ticks": 76608,
            "time": 108.818073,
            "velocity": 0.4881889763779528
          },
          {
            "duration": 0.2727270000000033,
            "durationTicks": 192,
            "midi": 59,
            "name": "B3",
            "ticks": 76608,
            "time": 108.818073,
            "velocity": 0.4881889763779528
          },
          {
            "duration": 0.2727270000000033,
            "durationTicks": 192,
            "midi": 47,
            "name": "B2",
            "ticks": 76608,
            "time": 108.818073,
            "velocity": 0.4881889763779528
          },
          {
            "duration": 0.2727270000000033,
            "durationTicks": 192,
            "midi": 47,
            "name": "B2",
            "ticks": 76608,
            "time": 108.818073,
            "velocity": 0.4881889763779528
          },
          {
            "duration": 0.2727270000000033,
            "durationTicks": 192,
            "midi": 59,
            "name": "B3",
            "ticks": 76608,
            "time": 108.818073,
            "velocity": 0.4881889763779528
          },
          {
            "duration": 0.2727270000000033,
            "durationTicks": 192,
            "midi": 73,
            "name": "C#5",
            "ticks": 76608,
            "time": 108.818073,
            "velocity": 0.4881889763779528
          },
          {
            "duration": 0.2727270000000033,
            "durationTicks": 192,
            "midi": 85,
            "name": "C#6",
            "ticks": 76608,
            "time": 108.818073,
            "velocity": 0.4881889763779528
          },
          {
            "duration": 0.2727270000000033,
            "durationTicks": 192,
            "midi": 85,
            "name": "C#6",
            "ticks": 76608,
            "time": 108.818073,
            "velocity": 0.4881889763779528
          },
          {
            "duration": 0.2727270000000033,
            "durationTicks": 192,
            "midi": 85,
            "name": "C#6",
            "ticks": 76608,
            "time": 108.818073,
            "velocity": 0.4881889763779528
          },
          {
            "duration": 0.2727270000000033,
            "durationTicks": 192,
            "midi": 59,
            "name": "B3",
            "ticks": 76608,
            "time": 108.818073,
            "velocity": 0.4881889763779528
          },
          {
            "duration": 0.2727270000000033,
            "durationTicks": 192,
            "midi": 59,
            "name": "B3",
            "ticks": 76608,
            "time": 108.818073,
            "velocity": 0.4881889763779528
          },
          {
            "duration": 0.2727270000000033,
            "durationTicks": 192,
            "midi": 47,
            "name": "B2",
            "ticks": 76608,
            "time": 108.818073,
            "velocity": 0.4881889763779528
          },
          {
            "duration": 0.2727270000000033,
            "durationTicks": 192,
            "midi": 59,
            "name": "B3",
            "ticks": 76608,
            "time": 108.818073,
            "velocity": 0.4881889763779528
          },
          {
            "duration": 0.2727270000000033,
            "durationTicks": 192,
            "midi": 73,
            "name": "C#5",
            "ticks": 76608,
            "time": 108.818073,
            "velocity": 0.4881889763779528
          },
          {
            "duration": 0.2727270000000033,
            "durationTicks": 192,
            "midi": 85,
            "name": "C#6",
            "ticks": 76608,
            "time": 108.818073,
            "velocity": 0.4881889763779528
          },
          {
            "duration": 0.2727270000000033,
            "durationTicks": 192,
            "midi": 73,
            "name": "C#5",
            "ticks": 76608,
            "time": 108.818073,
            "velocity": 0.4881889763779528
          },
          {
            "duration": 0.2727270000000033,
            "durationTicks": 192,
            "midi": 85,
            "name": "C#6",
            "ticks": 76608,
            "time": 108.818073,
            "velocity": 0.4881889763779528
          },
          {
            "duration": 0.2727270000000033,
            "durationTicks": 192,
            "midi": 85,
            "name": "C#6",
            "ticks": 76608,
            "time": 108.818073,
            "velocity": 0.4881889763779528
          },
          {
            "duration": 1.0909079999999989,
            "durationTicks": 768,
            "midi": 100,
            "name": "E7",
            "ticks": 76800,
            "time": 109.0908,
            "velocity": 0.4881889763779528
          },
          {
            "duration": 0.13636350000000164,
            "durationTicks": 96,
            "midi": 45,
            "name": "A2",
            "ticks": 76800,
            "time": 109.0908,
            "velocity": 0.4881889763779528
          },
          {
            "duration": 0.13636350000000164,
            "durationTicks": 96,
            "midi": 57,
            "name": "A3",
            "ticks": 76800,
            "time": 109.0908,
            "velocity": 0.4881889763779528
          },
          {
            "duration": 0.13636350000000164,
            "durationTicks": 96,
            "midi": 57,
            "name": "A3",
            "ticks": 76800,
            "time": 109.0908,
            "velocity": 0.4881889763779528
          },
          {
            "duration": 1.0909079999999989,
            "durationTicks": 768,
            "midi": 93,
            "name": "A6",
            "ticks": 76800,
            "time": 109.0908,
            "velocity": 0.4881889763779528
          },
          {
            "duration": 1.0909079999999989,
            "durationTicks": 768,
            "midi": 97,
            "name": "C#7",
            "ticks": 76800,
            "time": 109.0908,
            "velocity": 0.4881889763779528
          },
          {
            "duration": 0.13636350000000164,
            "durationTicks": 96,
            "midi": 45,
            "name": "A2",
            "ticks": 76800,
            "time": 109.0908,
            "velocity": 0.4881889763779528
          },
          {
            "duration": 1.0909079999999989,
            "durationTicks": 768,
            "midi": 88,
            "name": "E6",
            "ticks": 76800,
            "time": 109.0908,
            "velocity": 0.4881889763779528
          },
          {
            "duration": 0.13636350000000164,
            "durationTicks": 96,
            "midi": 57,
            "name": "A3",
            "ticks": 76800,
            "time": 109.0908,
            "velocity": 0.4881889763779528
          },
          {
            "duration": 1.0909079999999989,
            "durationTicks": 768,
            "midi": 100,
            "name": "E7",
            "ticks": 76800,
            "time": 109.0908,
            "velocity": 0.4881889763779528
          },
          {
            "duration": 0.13636350000000164,
            "durationTicks": 96,
            "midi": 57,
            "name": "A3",
            "ticks": 76800,
            "time": 109.0908,
            "velocity": 0.4881889763779528
          },
          {
            "duration": 1.0909079999999989,
            "durationTicks": 768,
            "midi": 93,
            "name": "A6",
            "ticks": 76800,
            "time": 109.0908,
            "velocity": 0.4881889763779528
          },
          {
            "duration": 1.0909079999999989,
            "durationTicks": 768,
            "midi": 88,
            "name": "E6",
            "ticks": 76800,
            "time": 109.0908,
            "velocity": 0.4881889763779528
          },
          {
            "duration": 1.0909079999999989,
            "durationTicks": 768,
            "midi": 93,
            "name": "A6",
            "ticks": 76800,
            "time": 109.0908,
            "velocity": 0.4881889763779528
          },
          {
            "duration": 0.13636350000000164,
            "durationTicks": 96,
            "midi": 45,
            "name": "A2",
            "ticks": 76800,
            "time": 109.0908,
            "velocity": 0.4881889763779528
          },
          {
            "duration": 1.0909079999999989,
            "durationTicks": 768,
            "midi": 100,
            "name": "E7",
            "ticks": 76800,
            "time": 109.0908,
            "velocity": 0.4881889763779528
          },
          {
            "duration": 1.0909079999999989,
            "durationTicks": 768,
            "midi": 100,
            "name": "E7",
            "ticks": 76800,
            "time": 109.0908,
            "velocity": 0.4881889763779528
          },
          {
            "duration": 1.0909079999999989,
            "durationTicks": 768,
            "midi": 93,
            "name": "A6",
            "ticks": 76800,
            "time": 109.0908,
            "velocity": 0.4881889763779528
          },
          {
            "duration": 1.0909079999999989,
            "durationTicks": 768,
            "midi": 88,
            "name": "E6",
            "ticks": 76800,
            "time": 109.0908,
            "velocity": 0.4881889763779528
          },
          {
            "duration": 1.0909079999999989,
            "durationTicks": 768,
            "midi": 100,
            "name": "E7",
            "ticks": 76800,
            "time": 109.0908,
            "velocity": 0.4881889763779528
          },
          {
            "duration": 1.0909079999999989,
            "durationTicks": 768,
            "midi": 93,
            "name": "A6",
            "ticks": 76800,
            "time": 109.0908,
            "velocity": 0.4881889763779528
          },
          {
            "duration": 1.0909079999999989,
            "durationTicks": 768,
            "midi": 88,
            "name": "E6",
            "ticks": 76800,
            "time": 109.0908,
            "velocity": 0.4881889763779528
          },
          {
            "duration": 0.13636350000000164,
            "durationTicks": 96,
            "midi": 45,
            "name": "A2",
            "ticks": 76800,
            "time": 109.0908,
            "velocity": 0.4881889763779528
          },
          {
            "duration": 1.0909079999999989,
            "durationTicks": 768,
            "midi": 97,
            "name": "C#7",
            "ticks": 76800,
            "time": 109.0908,
            "velocity": 0.4881889763779528
          },
          {
            "duration": 1.0909079999999989,
            "durationTicks": 768,
            "midi": 93,
            "name": "A6",
            "ticks": 76800,
            "time": 109.0908,
            "velocity": 0.4881889763779528
          },
          {
            "duration": 0.13636350000000164,
            "durationTicks": 96,
            "midi": 57,
            "name": "A3",
            "ticks": 76800,
            "time": 109.0908,
            "velocity": 0.4881889763779528
          },
          {
            "duration": 1.0909079999999989,
            "durationTicks": 768,
            "midi": 97,
            "name": "C#7",
            "ticks": 76800,
            "time": 109.0908,
            "velocity": 0.4881889763779528
          },
          {
            "duration": 1.0909079999999989,
            "durationTicks": 768,
            "midi": 100,
            "name": "E7",
            "ticks": 76800,
            "time": 109.0908,
            "velocity": 0.4881889763779528
          },
          {
            "duration": 0.13636350000000164,
            "durationTicks": 96,
            "midi": 45,
            "name": "A2",
            "ticks": 76800,
            "time": 109.0908,
            "velocity": 0.4881889763779528
          },
          {
            "duration": 1.0909079999999989,
            "durationTicks": 768,
            "midi": 97,
            "name": "C#7",
            "ticks": 76800,
            "time": 109.0908,
            "velocity": 0.4881889763779528
          },
          {
            "duration": 1.0909079999999989,
            "durationTicks": 768,
            "midi": 97,
            "name": "C#7",
            "ticks": 76800,
            "time": 109.0908,
            "velocity": 0.4881889763779528
          },
          {
            "duration": 1.0909079999999989,
            "durationTicks": 768,
            "midi": 88,
            "name": "E6",
            "ticks": 76800,
            "time": 109.0908,
            "velocity": 0.4881889763779528
          },
          {
            "duration": 1.0909079999999989,
            "durationTicks": 768,
            "midi": 97,
            "name": "C#7",
            "ticks": 76800,
            "time": 109.0908,
            "velocity": 0.4881889763779528
          },
          {
            "duration": 0.13636350000000164,
            "durationTicks": 96,
            "midi": 45,
            "name": "A2",
            "ticks": 76800,
            "time": 109.0908,
            "velocity": 0.4881889763779528
          },
          {
            "duration": 0.13636350000000164,
            "durationTicks": 96,
            "midi": 57,
            "name": "A3",
            "ticks": 76800,
            "time": 109.0908,
            "velocity": 0.4881889763779528
          },
          {
            "duration": 1.0909079999999989,
            "durationTicks": 768,
            "midi": 88,
            "name": "E6",
            "ticks": 76800,
            "time": 109.0908,
            "velocity": 0.4881889763779528
          },
          {
            "duration": 0.13636350000000164,
            "durationTicks": 96,
            "midi": 45,
            "name": "A2",
            "ticks": 76896,
            "time": 109.2271635,
            "velocity": 0.4881889763779528
          },
          {
            "duration": 0.13636350000000164,
            "durationTicks": 96,
            "midi": 45,
            "name": "A2",
            "ticks": 76896,
            "time": 109.2271635,
            "velocity": 0.4881889763779528
          },
          {
            "duration": 0.13636350000000164,
            "durationTicks": 96,
            "midi": 45,
            "name": "A2",
            "ticks": 76896,
            "time": 109.2271635,
            "velocity": 0.4881889763779528
          },
          {
            "duration": 0.13636350000000164,
            "durationTicks": 96,
            "midi": 57,
            "name": "A3",
            "ticks": 76896,
            "time": 109.2271635,
            "velocity": 0.4881889763779528
          },
          {
            "duration": 0.13636350000000164,
            "durationTicks": 96,
            "midi": 57,
            "name": "A3",
            "ticks": 76896,
            "time": 109.2271635,
            "velocity": 0.4881889763779528
          },
          {
            "duration": 0.13636350000000164,
            "durationTicks": 96,
            "midi": 57,
            "name": "A3",
            "ticks": 76896,
            "time": 109.2271635,
            "velocity": 0.4881889763779528
          },
          {
            "duration": 0.13636350000000164,
            "durationTicks": 96,
            "midi": 57,
            "name": "A3",
            "ticks": 76896,
            "time": 109.2271635,
            "velocity": 0.4881889763779528
          },
          {
            "duration": 0.13636350000000164,
            "durationTicks": 96,
            "midi": 57,
            "name": "A3",
            "ticks": 76896,
            "time": 109.2271635,
            "velocity": 0.4881889763779528
          },
          {
            "duration": 0.13636350000000164,
            "durationTicks": 96,
            "midi": 57,
            "name": "A3",
            "ticks": 76896,
            "time": 109.2271635,
            "velocity": 0.4881889763779528
          },
          {
            "duration": 0.13636350000000164,
            "durationTicks": 96,
            "midi": 45,
            "name": "A2",
            "ticks": 76896,
            "time": 109.2271635,
            "velocity": 0.4881889763779528
          },
          {
            "duration": 0.13636350000000164,
            "durationTicks": 96,
            "midi": 45,
            "name": "A2",
            "ticks": 76896,
            "time": 109.2271635,
            "velocity": 0.4881889763779528
          },
          {
            "duration": 0.13636350000000164,
            "durationTicks": 96,
            "midi": 45,
            "name": "A2",
            "ticks": 76896,
            "time": 109.2271635,
            "velocity": 0.4881889763779528
          },
          {
            "duration": 0.27272699999998906,
            "durationTicks": 192,
            "midi": 45,
            "name": "A2",
            "ticks": 76992,
            "time": 109.363527,
            "velocity": 0.4881889763779528
          },
          {
            "duration": 0.27272699999998906,
            "durationTicks": 192,
            "midi": 45,
            "name": "A2",
            "ticks": 76992,
            "time": 109.363527,
            "velocity": 0.4881889763779528
          },
          {
            "duration": 0.27272699999998906,
            "durationTicks": 192,
            "midi": 57,
            "name": "A3",
            "ticks": 76992,
            "time": 109.363527,
            "velocity": 0.4881889763779528
          },
          {
            "duration": 0.27272699999998906,
            "durationTicks": 192,
            "midi": 45,
            "name": "A2",
            "ticks": 76992,
            "time": 109.363527,
            "velocity": 0.4881889763779528
          },
          {
            "duration": 0.27272699999998906,
            "durationTicks": 192,
            "midi": 45,
            "name": "A2",
            "ticks": 76992,
            "time": 109.363527,
            "velocity": 0.4881889763779528
          },
          {
            "duration": 0.27272699999998906,
            "durationTicks": 192,
            "midi": 57,
            "name": "A3",
            "ticks": 76992,
            "time": 109.363527,
            "velocity": 0.4881889763779528
          },
          {
            "duration": 0.27272699999998906,
            "durationTicks": 192,
            "midi": 57,
            "name": "A3",
            "ticks": 76992,
            "time": 109.363527,
            "velocity": 0.4881889763779528
          },
          {
            "duration": 0.27272699999998906,
            "durationTicks": 192,
            "midi": 57,
            "name": "A3",
            "ticks": 76992,
            "time": 109.363527,
            "velocity": 0.4881889763779528
          },
          {
            "duration": 0.27272699999998906,
            "durationTicks": 192,
            "midi": 57,
            "name": "A3",
            "ticks": 76992,
            "time": 109.363527,
            "velocity": 0.4881889763779528
          },
          {
            "duration": 0.27272699999998906,
            "durationTicks": 192,
            "midi": 45,
            "name": "A2",
            "ticks": 76992,
            "time": 109.363527,
            "velocity": 0.4881889763779528
          },
          {
            "duration": 0.27272699999998906,
            "durationTicks": 192,
            "midi": 57,
            "name": "A3",
            "ticks": 76992,
            "time": 109.363527,
            "velocity": 0.4881889763779528
          },
          {
            "duration": 0.27272699999998906,
            "durationTicks": 192,
            "midi": 45,
            "name": "A2",
            "ticks": 76992,
            "time": 109.363527,
            "velocity": 0.4881889763779528
          },
          {
            "duration": 0.13636350000000164,
            "durationTicks": 96,
            "midi": 57,
            "name": "A3",
            "ticks": 77184,
            "time": 109.636254,
            "velocity": 0.4881889763779528
          },
          {
            "duration": 0.13636350000000164,
            "durationTicks": 96,
            "midi": 45,
            "name": "A2",
            "ticks": 77184,
            "time": 109.636254,
            "velocity": 0.4881889763779528
          },
          {
            "duration": 0.13636350000000164,
            "durationTicks": 96,
            "midi": 45,
            "name": "A2",
            "ticks": 77184,
            "time": 109.636254,
            "velocity": 0.4881889763779528
          },
          {
            "duration": 0.13636350000000164,
            "durationTicks": 96,
            "midi": 57,
            "name": "A3",
            "ticks": 77184,
            "time": 109.636254,
            "velocity": 0.4881889763779528
          },
          {
            "duration": 0.13636350000000164,
            "durationTicks": 96,
            "midi": 57,
            "name": "A3",
            "ticks": 77184,
            "time": 109.636254,
            "velocity": 0.4881889763779528
          },
          {
            "duration": 0.13636350000000164,
            "durationTicks": 96,
            "midi": 45,
            "name": "A2",
            "ticks": 77184,
            "time": 109.636254,
            "velocity": 0.4881889763779528
          },
          {
            "duration": 0.13636350000000164,
            "durationTicks": 96,
            "midi": 57,
            "name": "A3",
            "ticks": 77184,
            "time": 109.636254,
            "velocity": 0.4881889763779528
          },
          {
            "duration": 0.13636350000000164,
            "durationTicks": 96,
            "midi": 45,
            "name": "A2",
            "ticks": 77184,
            "time": 109.636254,
            "velocity": 0.4881889763779528
          },
          {
            "duration": 0.13636350000000164,
            "durationTicks": 96,
            "midi": 45,
            "name": "A2",
            "ticks": 77184,
            "time": 109.636254,
            "velocity": 0.4881889763779528
          },
          {
            "duration": 0.13636350000000164,
            "durationTicks": 96,
            "midi": 57,
            "name": "A3",
            "ticks": 77184,
            "time": 109.636254,
            "velocity": 0.4881889763779528
          },
          {
            "duration": 0.13636350000000164,
            "durationTicks": 96,
            "midi": 57,
            "name": "A3",
            "ticks": 77184,
            "time": 109.636254,
            "velocity": 0.4881889763779528
          },
          {
            "duration": 0.13636350000000164,
            "durationTicks": 96,
            "midi": 45,
            "name": "A2",
            "ticks": 77184,
            "time": 109.636254,
            "velocity": 0.4881889763779528
          },
          {
            "duration": 0.13636350000000164,
            "durationTicks": 96,
            "midi": 57,
            "name": "A3",
            "ticks": 77280,
            "time": 109.7726175,
            "velocity": 0.4881889763779528
          },
          {
            "duration": 0.13636350000000164,
            "durationTicks": 96,
            "midi": 45,
            "name": "A2",
            "ticks": 77280,
            "time": 109.7726175,
            "velocity": 0.4881889763779528
          },
          {
            "duration": 0.13636350000000164,
            "durationTicks": 96,
            "midi": 57,
            "name": "A3",
            "ticks": 77280,
            "time": 109.7726175,
            "velocity": 0.4881889763779528
          },
          {
            "duration": 0.13636350000000164,
            "durationTicks": 96,
            "midi": 57,
            "name": "A3",
            "ticks": 77280,
            "time": 109.7726175,
            "velocity": 0.4881889763779528
          },
          {
            "duration": 0.13636350000000164,
            "durationTicks": 96,
            "midi": 57,
            "name": "A3",
            "ticks": 77280,
            "time": 109.7726175,
            "velocity": 0.4881889763779528
          },
          {
            "duration": 0.13636350000000164,
            "durationTicks": 96,
            "midi": 45,
            "name": "A2",
            "ticks": 77280,
            "time": 109.7726175,
            "velocity": 0.4881889763779528
          },
          {
            "duration": 0.13636350000000164,
            "durationTicks": 96,
            "midi": 45,
            "name": "A2",
            "ticks": 77280,
            "time": 109.7726175,
            "velocity": 0.4881889763779528
          },
          {
            "duration": 0.13636350000000164,
            "durationTicks": 96,
            "midi": 57,
            "name": "A3",
            "ticks": 77280,
            "time": 109.7726175,
            "velocity": 0.4881889763779528
          },
          {
            "duration": 0.13636350000000164,
            "durationTicks": 96,
            "midi": 45,
            "name": "A2",
            "ticks": 77280,
            "time": 109.7726175,
            "velocity": 0.4881889763779528
          },
          {
            "duration": 0.13636350000000164,
            "durationTicks": 96,
            "midi": 45,
            "name": "A2",
            "ticks": 77280,
            "time": 109.7726175,
            "velocity": 0.4881889763779528
          },
          {
            "duration": 0.13636350000000164,
            "durationTicks": 96,
            "midi": 57,
            "name": "A3",
            "ticks": 77280,
            "time": 109.7726175,
            "velocity": 0.4881889763779528
          },
          {
            "duration": 0.13636350000000164,
            "durationTicks": 96,
            "midi": 45,
            "name": "A2",
            "ticks": 77280,
            "time": 109.7726175,
            "velocity": 0.4881889763779528
          },
          {
            "duration": 0.2727270000000033,
            "durationTicks": 192,
            "midi": 45,
            "name": "A2",
            "ticks": 77376,
            "time": 109.908981,
            "velocity": 0.4881889763779528
          },
          {
            "duration": 0.2727270000000033,
            "durationTicks": 192,
            "midi": 57,
            "name": "A3",
            "ticks": 77376,
            "time": 109.908981,
            "velocity": 0.4881889763779528
          },
          {
            "duration": 0.2727270000000033,
            "durationTicks": 192,
            "midi": 57,
            "name": "A3",
            "ticks": 77376,
            "time": 109.908981,
            "velocity": 0.4881889763779528
          },
          {
            "duration": 0.2727270000000033,
            "durationTicks": 192,
            "midi": 45,
            "name": "A2",
            "ticks": 77376,
            "time": 109.908981,
            "velocity": 0.4881889763779528
          },
          {
            "duration": 0.2727270000000033,
            "durationTicks": 192,
            "midi": 57,
            "name": "A3",
            "ticks": 77376,
            "time": 109.908981,
            "velocity": 0.4881889763779528
          },
          {
            "duration": 0.2727270000000033,
            "durationTicks": 192,
            "midi": 57,
            "name": "A3",
            "ticks": 77376,
            "time": 109.908981,
            "velocity": 0.4881889763779528
          },
          {
            "duration": 0.2727270000000033,
            "durationTicks": 192,
            "midi": 45,
            "name": "A2",
            "ticks": 77376,
            "time": 109.908981,
            "velocity": 0.4881889763779528
          },
          {
            "duration": 0.2727270000000033,
            "durationTicks": 192,
            "midi": 57,
            "name": "A3",
            "ticks": 77376,
            "time": 109.908981,
            "velocity": 0.4881889763779528
          },
          {
            "duration": 0.2727270000000033,
            "durationTicks": 192,
            "midi": 57,
            "name": "A3",
            "ticks": 77376,
            "time": 109.908981,
            "velocity": 0.4881889763779528
          },
          {
            "duration": 0.2727270000000033,
            "durationTicks": 192,
            "midi": 45,
            "name": "A2",
            "ticks": 77376,
            "time": 109.908981,
            "velocity": 0.4881889763779528
          },
          {
            "duration": 0.2727270000000033,
            "durationTicks": 192,
            "midi": 45,
            "name": "A2",
            "ticks": 77376,
            "time": 109.908981,
            "velocity": 0.4881889763779528
          },
          {
            "duration": 0.2727270000000033,
            "durationTicks": 192,
            "midi": 45,
            "name": "A2",
            "ticks": 77376,
            "time": 109.908981,
            "velocity": 0.4881889763779528
          },
          {
            "duration": 0.13636350000000164,
            "durationTicks": 96,
            "midi": 57,
            "name": "A3",
            "ticks": 77568,
            "time": 110.181708,
            "velocity": 0.4881889763779528
          },
          {
            "duration": 0.5454539999999923,
            "durationTicks": 384,
            "midi": 99,
            "name": "D#7",
            "ticks": 77568,
            "time": 110.181708,
            "velocity": 0.4881889763779528
          },
          {
            "duration": 0.5454539999999923,
            "durationTicks": 384,
            "midi": 87,
            "name": "D#6",
            "ticks": 77568,
            "time": 110.181708,
            "velocity": 0.4881889763779528
          },
          {
            "duration": 0.13636350000000164,
            "durationTicks": 96,
            "midi": 45,
            "name": "A2",
            "ticks": 77568,
            "time": 110.181708,
            "velocity": 0.4881889763779528
          },
          {
            "duration": 0.5454539999999923,
            "durationTicks": 384,
            "midi": 87,
            "name": "D#6",
            "ticks": 77568,
            "time": 110.181708,
            "velocity": 0.4881889763779528
          },
          {
            "duration": 0.5454539999999923,
            "durationTicks": 384,
            "midi": 87,
            "name": "D#6",
            "ticks": 77568,
            "time": 110.181708,
            "velocity": 0.4881889763779528
          },
          {
            "duration": 0.13636350000000164,
            "durationTicks": 96,
            "midi": 57,
            "name": "A3",
            "ticks": 77568,
            "time": 110.181708,
            "velocity": 0.4881889763779528
          },
          {
            "duration": 0.5454539999999923,
            "durationTicks": 384,
            "midi": 99,
            "name": "D#7",
            "ticks": 77568,
            "time": 110.181708,
            "velocity": 0.4881889763779528
          },
          {
            "duration": 0.13636350000000164,
            "durationTicks": 96,
            "midi": 57,
            "name": "A3",
            "ticks": 77568,
            "time": 110.181708,
            "velocity": 0.4881889763779528
          },
          {
            "duration": 0.13636350000000164,
            "durationTicks": 96,
            "midi": 45,
            "name": "A2",
            "ticks": 77568,
            "time": 110.181708,
            "velocity": 0.4881889763779528
          },
          {
            "duration": 0.5454539999999923,
            "durationTicks": 384,
            "midi": 87,
            "name": "D#6",
            "ticks": 77568,
            "time": 110.181708,
            "velocity": 0.4881889763779528
          },
          {
            "duration": 0.13636350000000164,
            "durationTicks": 96,
            "midi": 45,
            "name": "A2",
            "ticks": 77568,
            "time": 110.181708,
            "velocity": 0.4881889763779528
          },
          {
            "duration": 0.5454539999999923,
            "durationTicks": 384,
            "midi": 87,
            "name": "D#6",
            "ticks": 77568,
            "time": 110.181708,
            "velocity": 0.4881889763779528
          },
          {
            "duration": 0.13636350000000164,
            "durationTicks": 96,
            "midi": 45,
            "name": "A2",
            "ticks": 77568,
            "time": 110.181708,
            "velocity": 0.4881889763779528
          },
          {
            "duration": 0.5454539999999923,
            "durationTicks": 384,
            "midi": 99,
            "name": "D#7",
            "ticks": 77568,
            "time": 110.181708,
            "velocity": 0.4881889763779528
          },
          {
            "duration": 0.5454539999999923,
            "durationTicks": 384,
            "midi": 99,
            "name": "D#7",
            "ticks": 77568,
            "time": 110.181708,
            "velocity": 0.4881889763779528
          },
          {
            "duration": 0.13636350000000164,
            "durationTicks": 96,
            "midi": 57,
            "name": "A3",
            "ticks": 77568,
            "time": 110.181708,
            "velocity": 0.4881889763779528
          },
          {
            "duration": 0.5454539999999923,
            "durationTicks": 384,
            "midi": 99,
            "name": "D#7",
            "ticks": 77568,
            "time": 110.181708,
            "velocity": 0.4881889763779528
          },
          {
            "duration": 0.13636350000000164,
            "durationTicks": 96,
            "midi": 57,
            "name": "A3",
            "ticks": 77568,
            "time": 110.181708,
            "velocity": 0.4881889763779528
          },
          {
            "duration": 0.13636350000000164,
            "durationTicks": 96,
            "midi": 45,
            "name": "A2",
            "ticks": 77568,
            "time": 110.181708,
            "velocity": 0.4881889763779528
          },
          {
            "duration": 0.5454539999999923,
            "durationTicks": 384,
            "midi": 87,
            "name": "D#6",
            "ticks": 77568,
            "time": 110.181708,
            "velocity": 0.4881889763779528
          },
          {
            "duration": 0.13636350000000164,
            "durationTicks": 96,
            "midi": 57,
            "name": "A3",
            "ticks": 77568,
            "time": 110.181708,
            "velocity": 0.4881889763779528
          },
          {
            "duration": 0.13636350000000164,
            "durationTicks": 96,
            "midi": 45,
            "name": "A2",
            "ticks": 77568,
            "time": 110.181708,
            "velocity": 0.4881889763779528
          },
          {
            "duration": 0.5454539999999923,
            "durationTicks": 384,
            "midi": 99,
            "name": "D#7",
            "ticks": 77568,
            "time": 110.181708,
            "velocity": 0.4881889763779528
          },
          {
            "duration": 0.13636350000000164,
            "durationTicks": 96,
            "midi": 61,
            "name": "C#4",
            "ticks": 77664,
            "time": 110.3180715,
            "velocity": 0.4881889763779528
          },
          {
            "duration": 0.13636350000000164,
            "durationTicks": 96,
            "midi": 49,
            "name": "C#3",
            "ticks": 77664,
            "time": 110.3180715,
            "velocity": 0.4881889763779528
          },
          {
            "duration": 0.13636350000000164,
            "durationTicks": 96,
            "midi": 61,
            "name": "C#4",
            "ticks": 77664,
            "time": 110.3180715,
            "velocity": 0.4881889763779528
          },
          {
            "duration": 0.13636350000000164,
            "durationTicks": 96,
            "midi": 49,
            "name": "C#3",
            "ticks": 77664,
            "time": 110.3180715,
            "velocity": 0.4881889763779528
          },
          {
            "duration": 0.13636350000000164,
            "durationTicks": 96,
            "midi": 61,
            "name": "C#4",
            "ticks": 77664,
            "time": 110.3180715,
            "velocity": 0.4881889763779528
          },
          {
            "duration": 0.13636350000000164,
            "durationTicks": 96,
            "midi": 61,
            "name": "C#4",
            "ticks": 77664,
            "time": 110.3180715,
            "velocity": 0.4881889763779528
          },
          {
            "duration": 0.13636350000000164,
            "durationTicks": 96,
            "midi": 61,
            "name": "C#4",
            "ticks": 77664,
            "time": 110.3180715,
            "velocity": 0.4881889763779528
          },
          {
            "duration": 0.13636350000000164,
            "durationTicks": 96,
            "midi": 61,
            "name": "C#4",
            "ticks": 77664,
            "time": 110.3180715,
            "velocity": 0.4881889763779528
          },
          {
            "duration": 0.13636350000000164,
            "durationTicks": 96,
            "midi": 49,
            "name": "C#3",
            "ticks": 77664,
            "time": 110.3180715,
            "velocity": 0.4881889763779528
          },
          {
            "duration": 0.13636350000000164,
            "durationTicks": 96,
            "midi": 49,
            "name": "C#3",
            "ticks": 77664,
            "time": 110.3180715,
            "velocity": 0.4881889763779528
          },
          {
            "duration": 0.13636350000000164,
            "durationTicks": 96,
            "midi": 49,
            "name": "C#3",
            "ticks": 77664,
            "time": 110.3180715,
            "velocity": 0.4881889763779528
          },
          {
            "duration": 0.13636350000000164,
            "durationTicks": 96,
            "midi": 49,
            "name": "C#3",
            "ticks": 77664,
            "time": 110.3180715,
            "velocity": 0.4881889763779528
          },
          {
            "duration": 0.27272699999998906,
            "durationTicks": 192,
            "midi": 49,
            "name": "C#3",
            "ticks": 77760,
            "time": 110.454435,
            "velocity": 0.4881889763779528
          },
          {
            "duration": 0.27272699999998906,
            "durationTicks": 192,
            "midi": 61,
            "name": "C#4",
            "ticks": 77760,
            "time": 110.454435,
            "velocity": 0.4881889763779528
          },
          {
            "duration": 0.27272699999998906,
            "durationTicks": 192,
            "midi": 49,
            "name": "C#3",
            "ticks": 77760,
            "time": 110.454435,
            "velocity": 0.4881889763779528
          },
          {
            "duration": 0.27272699999998906,
            "durationTicks": 192,
            "midi": 49,
            "name": "C#3",
            "ticks": 77760,
            "time": 110.454435,
            "velocity": 0.4881889763779528
          },
          {
            "duration": 0.27272699999998906,
            "durationTicks": 192,
            "midi": 61,
            "name": "C#4",
            "ticks": 77760,
            "time": 110.454435,
            "velocity": 0.4881889763779528
          },
          {
            "duration": 0.27272699999998906,
            "durationTicks": 192,
            "midi": 49,
            "name": "C#3",
            "ticks": 77760,
            "time": 110.454435,
            "velocity": 0.4881889763779528
          },
          {
            "duration": 0.27272699999998906,
            "durationTicks": 192,
            "midi": 61,
            "name": "C#4",
            "ticks": 77760,
            "time": 110.454435,
            "velocity": 0.4881889763779528
          },
          {
            "duration": 0.27272699999998906,
            "durationTicks": 192,
            "midi": 61,
            "name": "C#4",
            "ticks": 77760,
            "time": 110.454435,
            "velocity": 0.4881889763779528
          },
          {
            "duration": 0.27272699999998906,
            "durationTicks": 192,
            "midi": 61,
            "name": "C#4",
            "ticks": 77760,
            "time": 110.454435,
            "velocity": 0.4881889763779528
          },
          {
            "duration": 0.27272699999998906,
            "durationTicks": 192,
            "midi": 49,
            "name": "C#3",
            "ticks": 77760,
            "time": 110.454435,
            "velocity": 0.4881889763779528
          },
          {
            "duration": 0.27272699999998906,
            "durationTicks": 192,
            "midi": 61,
            "name": "C#4",
            "ticks": 77760,
            "time": 110.454435,
            "velocity": 0.4881889763779528
          },
          {
            "duration": 0.27272699999998906,
            "durationTicks": 192,
            "midi": 49,
            "name": "C#3",
            "ticks": 77760,
            "time": 110.454435,
            "velocity": 0.4881889763779528
          },
          {
            "duration": 0.5454540000000065,
            "durationTicks": 384,
            "midi": 97,
            "name": "C#7",
            "ticks": 77952,
            "time": 110.72716199999999,
            "velocity": 0.4881889763779528
          },
          {
            "duration": 0.2727270000000033,
            "durationTicks": 192,
            "midi": 52,
            "name": "E3",
            "ticks": 77952,
            "time": 110.72716199999999,
            "velocity": 0.4881889763779528
          },
          {
            "duration": 0.2727270000000033,
            "durationTicks": 192,
            "midi": 64,
            "name": "E4",
            "ticks": 77952,
            "time": 110.72716199999999,
            "velocity": 0.4881889763779528
          },
          {
            "duration": 0.2727270000000033,
            "durationTicks": 192,
            "midi": 64,
            "name": "E4",
            "ticks": 77952,
            "time": 110.72716199999999,
            "velocity": 0.4881889763779528
          },
          {
            "duration": 0.2727270000000033,
            "durationTicks": 192,
            "midi": 52,
            "name": "E3",
            "ticks": 77952,
            "time": 110.72716199999999,
            "velocity": 0.4881889763779528
          },
          {
            "duration": 0.2727270000000033,
            "durationTicks": 192,
            "midi": 64,
            "name": "E4",
            "ticks": 77952,
            "time": 110.72716199999999,
            "velocity": 0.4881889763779528
          },
          {
            "duration": 0.2727270000000033,
            "durationTicks": 192,
            "midi": 64,
            "name": "E4",
            "ticks": 77952,
            "time": 110.72716199999999,
            "velocity": 0.4881889763779528
          },
          {
            "duration": 0.5454540000000065,
            "durationTicks": 384,
            "midi": 97,
            "name": "C#7",
            "ticks": 77952,
            "time": 110.72716199999999,
            "velocity": 0.4881889763779528
          },
          {
            "duration": 0.5454540000000065,
            "durationTicks": 384,
            "midi": 85,
            "name": "C#6",
            "ticks": 77952,
            "time": 110.72716199999999,
            "velocity": 0.4881889763779528
          },
          {
            "duration": 0.5454540000000065,
            "durationTicks": 384,
            "midi": 85,
            "name": "C#6",
            "ticks": 77952,
            "time": 110.72716199999999,
            "velocity": 0.4881889763779528
          },
          {
            "duration": 0.2727270000000033,
            "durationTicks": 192,
            "midi": 64,
            "name": "E4",
            "ticks": 77952,
            "time": 110.72716199999999,
            "velocity": 0.4881889763779528
          },
          {
            "duration": 0.2727270000000033,
            "durationTicks": 192,
            "midi": 52,
            "name": "E3",
            "ticks": 77952,
            "time": 110.72716199999999,
            "velocity": 0.4881889763779528
          },
          {
            "duration": 0.2727270000000033,
            "durationTicks": 192,
            "midi": 52,
            "name": "E3",
            "ticks": 77952,
            "time": 110.72716199999999,
            "velocity": 0.4881889763779528
          },
          {
            "duration": 0.5454540000000065,
            "durationTicks": 384,
            "midi": 97,
            "name": "C#7",
            "ticks": 77952,
            "time": 110.72716199999999,
            "velocity": 0.4881889763779528
          },
          {
            "duration": 0.5454540000000065,
            "durationTicks": 384,
            "midi": 97,
            "name": "C#7",
            "ticks": 77952,
            "time": 110.72716199999999,
            "velocity": 0.4881889763779528
          },
          {
            "duration": 0.5454540000000065,
            "durationTicks": 384,
            "midi": 85,
            "name": "C#6",
            "ticks": 77952,
            "time": 110.72716199999999,
            "velocity": 0.4881889763779528
          },
          {
            "duration": 0.5454540000000065,
            "durationTicks": 384,
            "midi": 85,
            "name": "C#6",
            "ticks": 77952,
            "time": 110.72716199999999,
            "velocity": 0.4881889763779528
          },
          {
            "duration": 0.5454540000000065,
            "durationTicks": 384,
            "midi": 85,
            "name": "C#6",
            "ticks": 77952,
            "time": 110.72716199999999,
            "velocity": 0.4881889763779528
          },
          {
            "duration": 0.5454540000000065,
            "durationTicks": 384,
            "midi": 97,
            "name": "C#7",
            "ticks": 77952,
            "time": 110.72716199999999,
            "velocity": 0.4881889763779528
          },
          {
            "duration": 0.2727270000000033,
            "durationTicks": 192,
            "midi": 64,
            "name": "E4",
            "ticks": 77952,
            "time": 110.72716199999999,
            "velocity": 0.4881889763779528
          },
          {
            "duration": 0.5454540000000065,
            "durationTicks": 384,
            "midi": 85,
            "name": "C#6",
            "ticks": 77952,
            "time": 110.72716199999999,
            "velocity": 0.4881889763779528
          },
          {
            "duration": 0.2727270000000033,
            "durationTicks": 192,
            "midi": 52,
            "name": "E3",
            "ticks": 77952,
            "time": 110.72716199999999,
            "velocity": 0.4881889763779528
          },
          {
            "duration": 0.2727270000000033,
            "durationTicks": 192,
            "midi": 52,
            "name": "E3",
            "ticks": 77952,
            "time": 110.72716199999999,
            "velocity": 0.4881889763779528
          },
          {
            "duration": 0.5454540000000065,
            "durationTicks": 384,
            "midi": 97,
            "name": "C#7",
            "ticks": 77952,
            "time": 110.72716199999999,
            "velocity": 0.4881889763779528
          },
          {
            "duration": 0.2727270000000033,
            "durationTicks": 192,
            "midi": 54,
            "name": "F#3",
            "ticks": 78144,
            "time": 110.999889,
            "velocity": 0.4881889763779528
          },
          {
            "duration": 0.2727270000000033,
            "durationTicks": 192,
            "midi": 42,
            "name": "F#2",
            "ticks": 78144,
            "time": 110.999889,
            "velocity": 0.4881889763779528
          },
          {
            "duration": 0.2727270000000033,
            "durationTicks": 192,
            "midi": 42,
            "name": "F#2",
            "ticks": 78144,
            "time": 110.999889,
            "velocity": 0.4881889763779528
          },
          {
            "duration": 0.2727270000000033,
            "durationTicks": 192,
            "midi": 54,
            "name": "F#3",
            "ticks": 78144,
            "time": 110.999889,
            "velocity": 0.4881889763779528
          },
          {
            "duration": 0.2727270000000033,
            "durationTicks": 192,
            "midi": 42,
            "name": "F#2",
            "ticks": 78144,
            "time": 110.999889,
            "velocity": 0.4881889763779528
          },
          {
            "duration": 0.2727270000000033,
            "durationTicks": 192,
            "midi": 42,
            "name": "F#2",
            "ticks": 78144,
            "time": 110.999889,
            "velocity": 0.4881889763779528
          },
          {
            "duration": 0.2727270000000033,
            "durationTicks": 192,
            "midi": 54,
            "name": "F#3",
            "ticks": 78144,
            "time": 110.999889,
            "velocity": 0.4881889763779528
          },
          {
            "duration": 0.2727270000000033,
            "durationTicks": 192,
            "midi": 54,
            "name": "F#3",
            "ticks": 78144,
            "time": 110.999889,
            "velocity": 0.4881889763779528
          },
          {
            "duration": 0.2727270000000033,
            "durationTicks": 192,
            "midi": 54,
            "name": "F#3",
            "ticks": 78144,
            "time": 110.999889,
            "velocity": 0.4881889763779528
          },
          {
            "duration": 0.2727270000000033,
            "durationTicks": 192,
            "midi": 42,
            "name": "F#2",
            "ticks": 78144,
            "time": 110.999889,
            "velocity": 0.4881889763779528
          },
          {
            "duration": 0.2727270000000033,
            "durationTicks": 192,
            "midi": 42,
            "name": "F#2",
            "ticks": 78144,
            "time": 110.999889,
            "velocity": 0.4881889763779528
          },
          {
            "duration": 0.2727270000000033,
            "durationTicks": 192,
            "midi": 54,
            "name": "F#3",
            "ticks": 78144,
            "time": 110.999889,
            "velocity": 0.4881889763779528
          },
          {
            "duration": 1.0909079999999989,
            "durationTicks": 768,
            "midi": 100,
            "name": "E7",
            "ticks": 78336,
            "time": 111.272616,
            "velocity": 0.4881889763779528
          },
          {
            "duration": 0.13636350000000164,
            "durationTicks": 96,
            "midi": 40,
            "name": "E2",
            "ticks": 78336,
            "time": 111.272616,
            "velocity": 0.4881889763779528
          },
          {
            "duration": 0.13636350000000164,
            "durationTicks": 96,
            "midi": 52,
            "name": "E3",
            "ticks": 78336,
            "time": 111.272616,
            "velocity": 0.4881889763779528
          },
          {
            "duration": 1.0909079999999989,
            "durationTicks": 768,
            "midi": 92,
            "name": "G#6",
            "ticks": 78336,
            "time": 111.272616,
            "velocity": 0.4881889763779528
          },
          {
            "duration": 1.0909079999999989,
            "durationTicks": 768,
            "midi": 100,
            "name": "E7",
            "ticks": 78336,
            "time": 111.272616,
            "velocity": 0.4881889763779528
          },
          {
            "duration": 1.0909079999999989,
            "durationTicks": 768,
            "midi": 88,
            "name": "E6",
            "ticks": 78336,
            "time": 111.272616,
            "velocity": 0.4881889763779528
          },
          {
            "duration": 1.0909079999999989,
            "durationTicks": 768,
            "midi": 92,
            "name": "G#6",
            "ticks": 78336,
            "time": 111.272616,
            "velocity": 0.4881889763779528
          },
          {
            "duration": 1.0909079999999989,
            "durationTicks": 768,
            "midi": 92,
            "name": "G#6",
            "ticks": 78336,
            "time": 111.272616,
            "velocity": 0.4881889763779528
          },
          {
            "duration": 1.0909079999999989,
            "durationTicks": 768,
            "midi": 95,
            "name": "B6",
            "ticks": 78336,
            "time": 111.272616,
            "velocity": 0.4881889763779528
          },
          {
            "duration": 0.13636350000000164,
            "durationTicks": 96,
            "midi": 40,
            "name": "E2",
            "ticks": 78336,
            "time": 111.272616,
            "velocity": 0.4881889763779528
          },
          {
            "duration": 1.0909079999999989,
            "durationTicks": 768,
            "midi": 95,
            "name": "B6",
            "ticks": 78336,
            "time": 111.272616,
            "velocity": 0.4881889763779528
          },
          {
            "duration": 0.13636350000000164,
            "durationTicks": 96,
            "midi": 40,
            "name": "E2",
            "ticks": 78336,
            "time": 111.272616,
            "velocity": 0.4881889763779528
          },
          {
            "duration": 0.13636350000000164,
            "durationTicks": 96,
            "midi": 52,
            "name": "E3",
            "ticks": 78336,
            "time": 111.272616,
            "velocity": 0.4881889763779528
          },
          {
            "duration": 1.0909079999999989,
            "durationTicks": 768,
            "midi": 100,
            "name": "E7",
            "ticks": 78336,
            "time": 111.272616,
            "velocity": 0.4881889763779528
          },
          {
            "duration": 1.0909079999999989,
            "durationTicks": 768,
            "midi": 100,
            "name": "E7",
            "ticks": 78336,
            "time": 111.272616,
            "velocity": 0.4881889763779528
          },
          {
            "duration": 1.0909079999999989,
            "durationTicks": 768,
            "midi": 88,
            "name": "E6",
            "ticks": 78336,
            "time": 111.272616,
            "velocity": 0.4881889763779528
          },
          {
            "duration": 1.0909079999999989,
            "durationTicks": 768,
            "midi": 95,
            "name": "B6",
            "ticks": 78336,
            "time": 111.272616,
            "velocity": 0.4881889763779528
          },
          {
            "duration": 0.13636350000000164,
            "durationTicks": 96,
            "midi": 40,
            "name": "E2",
            "ticks": 78336,
            "time": 111.272616,
            "velocity": 0.4881889763779528
          },
          {
            "duration": 1.0909079999999989,
            "durationTicks": 768,
            "midi": 92,
            "name": "G#6",
            "ticks": 78336,
            "time": 111.272616,
            "velocity": 0.4881889763779528
          },
          {
            "duration": 0.13636350000000164,
            "durationTicks": 96,
            "midi": 52,
            "name": "E3",
            "ticks": 78336,
            "time": 111.272616,
            "velocity": 0.4881889763779528
          },
          {
            "duration": 1.0909079999999989,
            "durationTicks": 768,
            "midi": 88,
            "name": "E6",
            "ticks": 78336,
            "time": 111.272616,
            "velocity": 0.4881889763779528
          },
          {
            "duration": 0.13636350000000164,
            "durationTicks": 96,
            "midi": 40,
            "name": "E2",
            "ticks": 78336,
            "time": 111.272616,
            "velocity": 0.4881889763779528
          },
          {
            "duration": 1.0909079999999989,
            "durationTicks": 768,
            "midi": 95,
            "name": "B6",
            "ticks": 78336,
            "time": 111.272616,
            "velocity": 0.4881889763779528
          },
          {
            "duration": 1.0909079999999989,
            "durationTicks": 768,
            "midi": 88,
            "name": "E6",
            "ticks": 78336,
            "time": 111.272616,
            "velocity": 0.4881889763779528
          },
          {
            "duration": 0.13636350000000164,
            "durationTicks": 96,
            "midi": 40,
            "name": "E2",
            "ticks": 78336,
            "time": 111.272616,
            "velocity": 0.4881889763779528
          },
          {
            "duration": 1.0909079999999989,
            "durationTicks": 768,
            "midi": 95,
            "name": "B6",
            "ticks": 78336,
            "time": 111.272616,
            "velocity": 0.4881889763779528
          },
          {
            "duration": 1.0909079999999989,
            "durationTicks": 768,
            "midi": 92,
            "name": "G#6",
            "ticks": 78336,
            "time": 111.272616,
            "velocity": 0.4881889763779528
          },
          {
            "duration": 0.13636350000000164,
            "durationTicks": 96,
            "midi": 52,
            "name": "E3",
            "ticks": 78336,
            "time": 111.272616,
            "velocity": 0.4881889763779528
          },
          {
            "duration": 1.0909079999999989,
            "durationTicks": 768,
            "midi": 88,
            "name": "E6",
            "ticks": 78336,
            "time": 111.272616,
            "velocity": 0.4881889763779528
          },
          {
            "duration": 0.13636350000000164,
            "durationTicks": 96,
            "midi": 52,
            "name": "E3",
            "ticks": 78336,
            "time": 111.272616,
            "velocity": 0.4881889763779528
          },
          {
            "duration": 0.13636350000000164,
            "durationTicks": 96,
            "midi": 52,
            "name": "E3",
            "ticks": 78336,
            "time": 111.272616,
            "velocity": 0.4881889763779528
          },
          {
            "duration": 1.0909079999999989,
            "durationTicks": 768,
            "midi": 92,
            "name": "G#6",
            "ticks": 78336,
            "time": 111.272616,
            "velocity": 0.4881889763779528
          },
          {
            "duration": 1.0909079999999989,
            "durationTicks": 768,
            "midi": 100,
            "name": "E7",
            "ticks": 78336,
            "time": 111.272616,
            "velocity": 0.4881889763779528
          },
          {
            "duration": 1.0909079999999989,
            "durationTicks": 768,
            "midi": 88,
            "name": "E6",
            "ticks": 78336,
            "time": 111.272616,
            "velocity": 0.4881889763779528
          },
          {
            "duration": 1.0909079999999989,
            "durationTicks": 768,
            "midi": 100,
            "name": "E7",
            "ticks": 78336,
            "time": 111.272616,
            "velocity": 0.4881889763779528
          },
          {
            "duration": 1.0909079999999989,
            "durationTicks": 768,
            "midi": 95,
            "name": "B6",
            "ticks": 78336,
            "time": 111.272616,
            "velocity": 0.4881889763779528
          },
          {
            "duration": 0.13636350000000164,
            "durationTicks": 96,
            "midi": 40,
            "name": "E2",
            "ticks": 78432,
            "time": 111.4089795,
            "velocity": 0.4881889763779528
          },
          {
            "duration": 0.13636350000000164,
            "durationTicks": 96,
            "midi": 52,
            "name": "E3",
            "ticks": 78432,
            "time": 111.4089795,
            "velocity": 0.4881889763779528
          },
          {
            "duration": 0.13636350000000164,
            "durationTicks": 96,
            "midi": 40,
            "name": "E2",
            "ticks": 78432,
            "time": 111.4089795,
            "velocity": 0.4881889763779528
          },
          {
            "duration": 0.13636350000000164,
            "durationTicks": 96,
            "midi": 52,
            "name": "E3",
            "ticks": 78432,
            "time": 111.4089795,
            "velocity": 0.4881889763779528
          },
          {
            "duration": 0.13636350000000164,
            "durationTicks": 96,
            "midi": 40,
            "name": "E2",
            "ticks": 78432,
            "time": 111.4089795,
            "velocity": 0.4881889763779528
          },
          {
            "duration": 0.13636350000000164,
            "durationTicks": 96,
            "midi": 52,
            "name": "E3",
            "ticks": 78432,
            "time": 111.4089795,
            "velocity": 0.4881889763779528
          },
          {
            "duration": 0.13636350000000164,
            "durationTicks": 96,
            "midi": 52,
            "name": "E3",
            "ticks": 78432,
            "time": 111.4089795,
            "velocity": 0.4881889763779528
          },
          {
            "duration": 0.13636350000000164,
            "durationTicks": 96,
            "midi": 52,
            "name": "E3",
            "ticks": 78432,
            "time": 111.4089795,
            "velocity": 0.4881889763779528
          },
          {
            "duration": 0.13636350000000164,
            "durationTicks": 96,
            "midi": 52,
            "name": "E3",
            "ticks": 78432,
            "time": 111.4089795,
            "velocity": 0.4881889763779528
          },
          {
            "duration": 0.13636350000000164,
            "durationTicks": 96,
            "midi": 40,
            "name": "E2",
            "ticks": 78432,
            "time": 111.4089795,
            "velocity": 0.4881889763779528
          },
          {
            "duration": 0.13636350000000164,
            "durationTicks": 96,
            "midi": 40,
            "name": "E2",
            "ticks": 78432,
            "time": 111.4089795,
            "velocity": 0.4881889763779528
          },
          {
            "duration": 0.13636350000000164,
            "durationTicks": 96,
            "midi": 40,
            "name": "E2",
            "ticks": 78432,
            "time": 111.4089795,
            "velocity": 0.4881889763779528
          },
          {
            "duration": 0.2727270000000033,
            "durationTicks": 192,
            "midi": 52,
            "name": "E3",
            "ticks": 78528,
            "time": 111.545343,
            "velocity": 0.4881889763779528
          },
          {
            "duration": 0.2727270000000033,
            "durationTicks": 192,
            "midi": 52,
            "name": "E3",
            "ticks": 78528,
            "time": 111.545343,
            "velocity": 0.4881889763779528
          },
          {
            "duration": 0.2727270000000033,
            "durationTicks": 192,
            "midi": 52,
            "name": "E3",
            "ticks": 78528,
            "time": 111.545343,
            "velocity": 0.4881889763779528
          },
          {
            "duration": 0.2727270000000033,
            "durationTicks": 192,
            "midi": 40,
            "name": "E2",
            "ticks": 78528,
            "time": 111.545343,
            "velocity": 0.4881889763779528
          },
          {
            "duration": 0.2727270000000033,
            "durationTicks": 192,
            "midi": 40,
            "name": "E2",
            "ticks": 78528,
            "time": 111.545343,
            "velocity": 0.4881889763779528
          },
          {
            "duration": 0.2727270000000033,
            "durationTicks": 192,
            "midi": 40,
            "name": "E2",
            "ticks": 78528,
            "time": 111.545343,
            "velocity": 0.4881889763779528
          },
          {
            "duration": 0.2727270000000033,
            "durationTicks": 192,
            "midi": 52,
            "name": "E3",
            "ticks": 78528,
            "time": 111.545343,
            "velocity": 0.4881889763779528
          },
          {
            "duration": 0.2727270000000033,
            "durationTicks": 192,
            "midi": 52,
            "name": "E3",
            "ticks": 78528,
            "time": 111.545343,
            "velocity": 0.4881889763779528
          },
          {
            "duration": 0.2727270000000033,
            "durationTicks": 192,
            "midi": 40,
            "name": "E2",
            "ticks": 78528,
            "time": 111.545343,
            "velocity": 0.4881889763779528
          },
          {
            "duration": 0.2727270000000033,
            "durationTicks": 192,
            "midi": 52,
            "name": "E3",
            "ticks": 78528,
            "time": 111.545343,
            "velocity": 0.4881889763779528
          },
          {
            "duration": 0.2727270000000033,
            "durationTicks": 192,
            "midi": 40,
            "name": "E2",
            "ticks": 78528,
            "time": 111.545343,
            "velocity": 0.4881889763779528
          },
          {
            "duration": 0.2727270000000033,
            "durationTicks": 192,
            "midi": 40,
            "name": "E2",
            "ticks": 78528,
            "time": 111.545343,
            "velocity": 0.4881889763779528
          },
          {
            "duration": 0.13636349999998743,
            "durationTicks": 96,
            "midi": 40,
            "name": "E2",
            "ticks": 78720,
            "time": 111.81807,
            "velocity": 0.4881889763779528
          },
          {
            "duration": 0.13636349999998743,
            "durationTicks": 96,
            "midi": 52,
            "name": "E3",
            "ticks": 78720,
            "time": 111.81807,
            "velocity": 0.4881889763779528
          },
          {
            "duration": 0.13636349999998743,
            "durationTicks": 96,
            "midi": 40,
            "name": "E2",
            "ticks": 78720,
            "time": 111.81807,
            "velocity": 0.4881889763779528
          },
          {
            "duration": 0.13636349999998743,
            "durationTicks": 96,
            "midi": 40,
            "name": "E2",
            "ticks": 78720,
            "time": 111.81807,
            "velocity": 0.4881889763779528
          },
          {
            "duration": 0.13636349999998743,
            "durationTicks": 96,
            "midi": 40,
            "name": "E2",
            "ticks": 78720,
            "time": 111.81807,
            "velocity": 0.4881889763779528
          },
          {
            "duration": 0.13636349999998743,
            "durationTicks": 96,
            "midi": 52,
            "name": "E3",
            "ticks": 78720,
            "time": 111.81807,
            "velocity": 0.4881889763779528
          },
          {
            "duration": 0.13636349999998743,
            "durationTicks": 96,
            "midi": 40,
            "name": "E2",
            "ticks": 78720,
            "time": 111.81807,
            "velocity": 0.4881889763779528
          },
          {
            "duration": 0.13636349999998743,
            "durationTicks": 96,
            "midi": 52,
            "name": "E3",
            "ticks": 78720,
            "time": 111.81807,
            "velocity": 0.4881889763779528
          },
          {
            "duration": 0.13636349999998743,
            "durationTicks": 96,
            "midi": 40,
            "name": "E2",
            "ticks": 78720,
            "time": 111.81807,
            "velocity": 0.4881889763779528
          },
          {
            "duration": 0.13636349999998743,
            "durationTicks": 96,
            "midi": 52,
            "name": "E3",
            "ticks": 78720,
            "time": 111.81807,
            "velocity": 0.4881889763779528
          },
          {
            "duration": 0.13636349999998743,
            "durationTicks": 96,
            "midi": 52,
            "name": "E3",
            "ticks": 78720,
            "time": 111.81807,
            "velocity": 0.4881889763779528
          },
          {
            "duration": 0.13636349999998743,
            "durationTicks": 96,
            "midi": 52,
            "name": "E3",
            "ticks": 78720,
            "time": 111.81807,
            "velocity": 0.4881889763779528
          },
          {
            "duration": 0.13636350000000164,
            "durationTicks": 96,
            "midi": 40,
            "name": "E2",
            "ticks": 78816,
            "time": 111.9544335,
            "velocity": 0.4881889763779528
          },
          {
            "duration": 0.13636350000000164,
            "durationTicks": 96,
            "midi": 40,
            "name": "E2",
            "ticks": 78816,
            "time": 111.9544335,
            "velocity": 0.4881889763779528
          },
          {
            "duration": 0.13636350000000164,
            "durationTicks": 96,
            "midi": 40,
            "name": "E2",
            "ticks": 78816,
            "time": 111.9544335,
            "velocity": 0.4881889763779528
          },
          {
            "duration": 0.13636350000000164,
            "durationTicks": 96,
            "midi": 52,
            "name": "E3",
            "ticks": 78816,
            "time": 111.9544335,
            "velocity": 0.4881889763779528
          },
          {
            "duration": 0.13636350000000164,
            "durationTicks": 96,
            "midi": 40,
            "name": "E2",
            "ticks": 78816,
            "time": 111.9544335,
            "velocity": 0.4881889763779528
          },
          {
            "duration": 0.13636350000000164,
            "durationTicks": 96,
            "midi": 40,
            "name": "E2",
            "ticks": 78816,
            "time": 111.9544335,
            "velocity": 0.4881889763779528
          },
          {
            "duration": 0.13636350000000164,
            "durationTicks": 96,
            "midi": 52,
            "name": "E3",
            "ticks": 78816,
            "time": 111.9544335,
            "velocity": 0.4881889763779528
          },
          {
            "duration": 0.13636350000000164,
            "durationTicks": 96,
            "midi": 52,
            "name": "E3",
            "ticks": 78816,
            "time": 111.9544335,
            "velocity": 0.4881889763779528
          },
          {
            "duration": 0.13636350000000164,
            "durationTicks": 96,
            "midi": 40,
            "name": "E2",
            "ticks": 78816,
            "time": 111.9544335,
            "velocity": 0.4881889763779528
          },
          {
            "duration": 0.13636350000000164,
            "durationTicks": 96,
            "midi": 52,
            "name": "E3",
            "ticks": 78816,
            "time": 111.9544335,
            "velocity": 0.4881889763779528
          },
          {
            "duration": 0.13636350000000164,
            "durationTicks": 96,
            "midi": 52,
            "name": "E3",
            "ticks": 78816,
            "time": 111.9544335,
            "velocity": 0.4881889763779528
          },
          {
            "duration": 0.13636350000000164,
            "durationTicks": 96,
            "midi": 52,
            "name": "E3",
            "ticks": 78816,
            "time": 111.9544335,
            "velocity": 0.4881889763779528
          },
          {
            "duration": 0.2727270000000033,
            "durationTicks": 192,
            "midi": 40,
            "name": "E2",
            "ticks": 78912,
            "time": 112.090797,
            "velocity": 0.4881889763779528
          },
          {
            "duration": 0.2727270000000033,
            "durationTicks": 192,
            "midi": 40,
            "name": "E2",
            "ticks": 78912,
            "time": 112.090797,
            "velocity": 0.4881889763779528
          },
          {
            "duration": 0.2727270000000033,
            "durationTicks": 192,
            "midi": 40,
            "name": "E2",
            "ticks": 78912,
            "time": 112.090797,
            "velocity": 0.4881889763779528
          },
          {
            "duration": 0.2727270000000033,
            "durationTicks": 192,
            "midi": 52,
            "name": "E3",
            "ticks": 78912,
            "time": 112.090797,
            "velocity": 0.4881889763779528
          },
          {
            "duration": 0.2727270000000033,
            "durationTicks": 192,
            "midi": 40,
            "name": "E2",
            "ticks": 78912,
            "time": 112.090797,
            "velocity": 0.4881889763779528
          },
          {
            "duration": 0.2727270000000033,
            "durationTicks": 192,
            "midi": 52,
            "name": "E3",
            "ticks": 78912,
            "time": 112.090797,
            "velocity": 0.4881889763779528
          },
          {
            "duration": 0.2727270000000033,
            "durationTicks": 192,
            "midi": 52,
            "name": "E3",
            "ticks": 78912,
            "time": 112.090797,
            "velocity": 0.4881889763779528
          },
          {
            "duration": 0.2727270000000033,
            "durationTicks": 192,
            "midi": 40,
            "name": "E2",
            "ticks": 78912,
            "time": 112.090797,
            "velocity": 0.4881889763779528
          },
          {
            "duration": 0.2727270000000033,
            "durationTicks": 192,
            "midi": 52,
            "name": "E3",
            "ticks": 78912,
            "time": 112.090797,
            "velocity": 0.4881889763779528
          },
          {
            "duration": 0.2727270000000033,
            "durationTicks": 192,
            "midi": 52,
            "name": "E3",
            "ticks": 78912,
            "time": 112.090797,
            "velocity": 0.4881889763779528
          },
          {
            "duration": 0.2727270000000033,
            "durationTicks": 192,
            "midi": 40,
            "name": "E2",
            "ticks": 78912,
            "time": 112.090797,
            "velocity": 0.4881889763779528
          },
          {
            "duration": 0.2727270000000033,
            "durationTicks": 192,
            "midi": 52,
            "name": "E3",
            "ticks": 78912,
            "time": 112.090797,
            "velocity": 0.4881889763779528
          },
          {
            "duration": 0.5454540000000065,
            "durationTicks": 384,
            "midi": 87,
            "name": "D#6",
            "ticks": 79104,
            "time": 112.363524,
            "velocity": 0.4881889763779528
          },
          {
            "duration": 0.5454540000000065,
            "durationTicks": 384,
            "midi": 87,
            "name": "D#6",
            "ticks": 79104,
            "time": 112.363524,
            "velocity": 0.4881889763779528
          },
          {
            "duration": 0.5454540000000065,
            "durationTicks": 384,
            "midi": 87,
            "name": "D#6",
            "ticks": 79104,
            "time": 112.363524,
            "velocity": 0.4881889763779528
          },
          {
            "duration": 0.13636350000000164,
            "durationTicks": 96,
            "midi": 52,
            "name": "E3",
            "ticks": 79104,
            "time": 112.363524,
            "velocity": 0.4881889763779528
          },
          {
            "duration": 0.5454540000000065,
            "durationTicks": 384,
            "midi": 99,
            "name": "D#7",
            "ticks": 79104,
            "time": 112.363524,
            "velocity": 0.4881889763779528
          },
          {
            "duration": 0.13636350000000164,
            "durationTicks": 96,
            "midi": 40,
            "name": "E2",
            "ticks": 79104,
            "time": 112.363524,
            "velocity": 0.4881889763779528
          },
          {
            "duration": 0.5454540000000065,
            "durationTicks": 384,
            "midi": 87,
            "name": "D#6",
            "ticks": 79104,
            "time": 112.363524,
            "velocity": 0.4881889763779528
          },
          {
            "duration": 0.5454540000000065,
            "durationTicks": 384,
            "midi": 99,
            "name": "D#7",
            "ticks": 79104,
            "time": 112.363524,
            "velocity": 0.4881889763779528
          },
          {
            "duration": 0.13636350000000164,
            "durationTicks": 96,
            "midi": 40,
            "name": "E2",
            "ticks": 79104,
            "time": 112.363524,
            "velocity": 0.4881889763779528
          },
          {
            "duration": 0.13636350000000164,
            "durationTicks": 96,
            "midi": 52,
            "name": "E3",
            "ticks": 79104,
            "time": 112.363524,
            "velocity": 0.4881889763779528
          },
          {
            "duration": 0.13636350000000164,
            "durationTicks": 96,
            "midi": 40,
            "name": "E2",
            "ticks": 79104,
            "time": 112.363524,
            "velocity": 0.4881889763779528
          },
          {
            "duration": 0.13636350000000164,
            "durationTicks": 96,
            "midi": 52,
            "name": "E3",
            "ticks": 79104,
            "time": 112.363524,
            "velocity": 0.4881889763779528
          },
          {
            "duration": 0.5454540000000065,
            "durationTicks": 384,
            "midi": 99,
            "name": "D#7",
            "ticks": 79104,
            "time": 112.363524,
            "velocity": 0.4881889763779528
          },
          {
            "duration": 0.5454540000000065,
            "durationTicks": 384,
            "midi": 99,
            "name": "D#7",
            "ticks": 79104,
            "time": 112.363524,
            "velocity": 0.4881889763779528
          },
          {
            "duration": 0.13636350000000164,
            "durationTicks": 96,
            "midi": 52,
            "name": "E3",
            "ticks": 79104,
            "time": 112.363524,
            "velocity": 0.4881889763779528
          },
          {
            "duration": 0.13636350000000164,
            "durationTicks": 96,
            "midi": 40,
            "name": "E2",
            "ticks": 79104,
            "time": 112.363524,
            "velocity": 0.4881889763779528
          },
          {
            "duration": 0.13636350000000164,
            "durationTicks": 96,
            "midi": 40,
            "name": "E2",
            "ticks": 79104,
            "time": 112.363524,
            "velocity": 0.4881889763779528
          },
          {
            "duration": 0.5454540000000065,
            "durationTicks": 384,
            "midi": 99,
            "name": "D#7",
            "ticks": 79104,
            "time": 112.363524,
            "velocity": 0.4881889763779528
          },
          {
            "duration": 0.13636350000000164,
            "durationTicks": 96,
            "midi": 52,
            "name": "E3",
            "ticks": 79104,
            "time": 112.363524,
            "velocity": 0.4881889763779528
          },
          {
            "duration": 0.13636350000000164,
            "durationTicks": 96,
            "midi": 40,
            "name": "E2",
            "ticks": 79104,
            "time": 112.363524,
            "velocity": 0.4881889763779528
          },
          {
            "duration": 0.13636350000000164,
            "durationTicks": 96,
            "midi": 52,
            "name": "E3",
            "ticks": 79104,
            "time": 112.363524,
            "velocity": 0.4881889763779528
          },
          {
            "duration": 0.5454540000000065,
            "durationTicks": 384,
            "midi": 87,
            "name": "D#6",
            "ticks": 79104,
            "time": 112.363524,
            "velocity": 0.4881889763779528
          },
          {
            "duration": 0.5454540000000065,
            "durationTicks": 384,
            "midi": 99,
            "name": "D#7",
            "ticks": 79104,
            "time": 112.363524,
            "velocity": 0.4881889763779528
          },
          {
            "duration": 0.5454540000000065,
            "durationTicks": 384,
            "midi": 87,
            "name": "D#6",
            "ticks": 79104,
            "time": 112.363524,
            "velocity": 0.4881889763779528
          },
          {
            "duration": 0.13636350000000164,
            "durationTicks": 96,
            "midi": 56,
            "name": "G#3",
            "ticks": 79200,
            "time": 112.4998875,
            "velocity": 0.4881889763779528
          },
          {
            "duration": 0.13636350000000164,
            "durationTicks": 96,
            "midi": 56,
            "name": "G#3",
            "ticks": 79200,
            "time": 112.4998875,
            "velocity": 0.4881889763779528
          },
          {
            "duration": 0.13636350000000164,
            "durationTicks": 96,
            "midi": 56,
            "name": "G#3",
            "ticks": 79200,
            "time": 112.4998875,
            "velocity": 0.4881889763779528
          },
          {
            "duration": 0.13636350000000164,
            "durationTicks": 96,
            "midi": 44,
            "name": "G#2",
            "ticks": 79200,
            "time": 112.4998875,
            "velocity": 0.4881889763779528
          },
          {
            "duration": 0.13636350000000164,
            "durationTicks": 96,
            "midi": 44,
            "name": "G#2",
            "ticks": 79200,
            "time": 112.4998875,
            "velocity": 0.4881889763779528
          },
          {
            "duration": 0.13636350000000164,
            "durationTicks": 96,
            "midi": 44,
            "name": "G#2",
            "ticks": 79200,
            "time": 112.4998875,
            "velocity": 0.4881889763779528
          },
          {
            "duration": 0.13636350000000164,
            "durationTicks": 96,
            "midi": 56,
            "name": "G#3",
            "ticks": 79200,
            "time": 112.4998875,
            "velocity": 0.4881889763779528
          },
          {
            "duration": 0.13636350000000164,
            "durationTicks": 96,
            "midi": 44,
            "name": "G#2",
            "ticks": 79200,
            "time": 112.4998875,
            "velocity": 0.4881889763779528
          },
          {
            "duration": 0.13636350000000164,
            "durationTicks": 96,
            "midi": 56,
            "name": "G#3",
            "ticks": 79200,
            "time": 112.4998875,
            "velocity": 0.4881889763779528
          },
          {
            "duration": 0.13636350000000164,
            "durationTicks": 96,
            "midi": 44,
            "name": "G#2",
            "ticks": 79200,
            "time": 112.4998875,
            "velocity": 0.4881889763779528
          },
          {
            "duration": 0.13636350000000164,
            "durationTicks": 96,
            "midi": 44,
            "name": "G#2",
            "ticks": 79200,
            "time": 112.4998875,
            "velocity": 0.4881889763779528
          },
          {
            "duration": 0.13636350000000164,
            "durationTicks": 96,
            "midi": 56,
            "name": "G#3",
            "ticks": 79200,
            "time": 112.4998875,
            "velocity": 0.4881889763779528
          },
          {
            "duration": 0.2727270000000033,
            "durationTicks": 192,
            "midi": 44,
            "name": "G#2",
            "ticks": 79296,
            "time": 112.636251,
            "velocity": 0.4881889763779528
          },
          {
            "duration": 0.2727270000000033,
            "durationTicks": 192,
            "midi": 44,
            "name": "G#2",
            "ticks": 79296,
            "time": 112.636251,
            "velocity": 0.4881889763779528
          },
          {
            "duration": 0.2727270000000033,
            "durationTicks": 192,
            "midi": 56,
            "name": "G#3",
            "ticks": 79296,
            "time": 112.636251,
            "velocity": 0.4881889763779528
          },
          {
            "duration": 0.2727270000000033,
            "durationTicks": 192,
            "midi": 56,
            "name": "G#3",
            "ticks": 79296,
            "time": 112.636251,
            "velocity": 0.4881889763779528
          },
          {
            "duration": 0.2727270000000033,
            "durationTicks": 192,
            "midi": 44,
            "name": "G#2",
            "ticks": 79296,
            "time": 112.636251,
            "velocity": 0.4881889763779528
          },
          {
            "duration": 0.2727270000000033,
            "durationTicks": 192,
            "midi": 44,
            "name": "G#2",
            "ticks": 79296,
            "time": 112.636251,
            "velocity": 0.4881889763779528
          },
          {
            "duration": 0.2727270000000033,
            "durationTicks": 192,
            "midi": 56,
            "name": "G#3",
            "ticks": 79296,
            "time": 112.636251,
            "velocity": 0.4881889763779528
          },
          {
            "duration": 0.2727270000000033,
            "durationTicks": 192,
            "midi": 56,
            "name": "G#3",
            "ticks": 79296,
            "time": 112.636251,
            "velocity": 0.4881889763779528
          },
          {
            "duration": 0.2727270000000033,
            "durationTicks": 192,
            "midi": 44,
            "name": "G#2",
            "ticks": 79296,
            "time": 112.636251,
            "velocity": 0.4881889763779528
          },
          {
            "duration": 0.2727270000000033,
            "durationTicks": 192,
            "midi": 56,
            "name": "G#3",
            "ticks": 79296,
            "time": 112.636251,
            "velocity": 0.4881889763779528
          },
          {
            "duration": 0.2727270000000033,
            "durationTicks": 192,
            "midi": 56,
            "name": "G#3",
            "ticks": 79296,
            "time": 112.636251,
            "velocity": 0.4881889763779528
          },
          {
            "duration": 0.2727270000000033,
            "durationTicks": 192,
            "midi": 44,
            "name": "G#2",
            "ticks": 79296,
            "time": 112.636251,
            "velocity": 0.4881889763779528
          },
          {
            "duration": 0.27272699999998906,
            "durationTicks": 192,
            "midi": 49,
            "name": "C#3",
            "ticks": 79488,
            "time": 112.908978,
            "velocity": 0.4881889763779528
          },
          {
            "duration": 0.27272699999998906,
            "durationTicks": 192,
            "midi": 49,
            "name": "C#3",
            "ticks": 79488,
            "time": 112.908978,
            "velocity": 0.4881889763779528
          },
          {
            "duration": 0.27272699999998906,
            "durationTicks": 192,
            "midi": 61,
            "name": "C#4",
            "ticks": 79488,
            "time": 112.908978,
            "velocity": 0.4881889763779528
          },
          {
            "duration": 0.5454539999999923,
            "durationTicks": 384,
            "midi": 83,
            "name": "B5",
            "ticks": 79488,
            "time": 112.908978,
            "velocity": 0.4881889763779528
          },
          {
            "duration": 0.5454539999999923,
            "durationTicks": 384,
            "midi": 83,
            "name": "B5",
            "ticks": 79488,
            "time": 112.908978,
            "velocity": 0.4881889763779528
          },
          {
            "duration": 0.5454539999999923,
            "durationTicks": 384,
            "midi": 95,
            "name": "B6",
            "ticks": 79488,
            "time": 112.908978,
            "velocity": 0.4881889763779528
          },
          {
            "duration": 0.5454539999999923,
            "durationTicks": 384,
            "midi": 95,
            "name": "B6",
            "ticks": 79488,
            "time": 112.908978,
            "velocity": 0.4881889763779528
          },
          {
            "duration": 0.27272699999998906,
            "durationTicks": 192,
            "midi": 61,
            "name": "C#4",
            "ticks": 79488,
            "time": 112.908978,
            "velocity": 0.4881889763779528
          },
          {
            "duration": 0.5454539999999923,
            "durationTicks": 384,
            "midi": 95,
            "name": "B6",
            "ticks": 79488,
            "time": 112.908978,
            "velocity": 0.4881889763779528
          },
          {
            "duration": 0.5454539999999923,
            "durationTicks": 384,
            "midi": 83,
            "name": "B5",
            "ticks": 79488,
            "time": 112.908978,
            "velocity": 0.4881889763779528
          },
          {
            "duration": 0.5454539999999923,
            "durationTicks": 384,
            "midi": 83,
            "name": "B5",
            "ticks": 79488,
            "time": 112.908978,
            "velocity": 0.4881889763779528
          },
          {
            "duration": 0.27272699999998906,
            "durationTicks": 192,
            "midi": 49,
            "name": "C#3",
            "ticks": 79488,
            "time": 112.908978,
            "velocity": 0.4881889763779528
          },
          {
            "duration": 0.27272699999998906,
            "durationTicks": 192,
            "midi": 61,
            "name": "C#4",
            "ticks": 79488,
            "time": 112.908978,
            "velocity": 0.4881889763779528
          },
          {
            "duration": 0.5454539999999923,
            "durationTicks": 384,
            "midi": 83,
            "name": "B5",
            "ticks": 79488,
            "time": 112.908978,
            "velocity": 0.4881889763779528
          },
          {
            "duration": 0.27272699999998906,
            "durationTicks": 192,
            "midi": 49,
            "name": "C#3",
            "ticks": 79488,
            "time": 112.908978,
            "velocity": 0.4881889763779528
          },
          {
            "duration": 0.5454539999999923,
            "durationTicks": 384,
            "midi": 95,
            "name": "B6",
            "ticks": 79488,
            "time": 112.908978,
            "velocity": 0.4881889763779528
          },
          {
            "duration": 0.27272699999998906,
            "durationTicks": 192,
            "midi": 61,
            "name": "C#4",
            "ticks": 79488,
            "time": 112.908978,
            "velocity": 0.4881889763779528
          },
          {
            "duration": 0.5454539999999923,
            "durationTicks": 384,
            "midi": 83,
            "name": "B5",
            "ticks": 79488,
            "time": 112.908978,
            "velocity": 0.4881889763779528
          },
          {
            "duration": 0.27272699999998906,
            "durationTicks": 192,
            "midi": 49,
            "name": "C#3",
            "ticks": 79488,
            "time": 112.908978,
            "velocity": 0.4881889763779528
          },
          {
            "duration": 0.5454539999999923,
            "durationTicks": 384,
            "midi": 95,
            "name": "B6",
            "ticks": 79488,
            "time": 112.908978,
            "velocity": 0.4881889763779528
          },
          {
            "duration": 0.27272699999998906,
            "durationTicks": 192,
            "midi": 61,
            "name": "C#4",
            "ticks": 79488,
            "time": 112.908978,
            "velocity": 0.4881889763779528
          },
          {
            "duration": 0.5454539999999923,
            "durationTicks": 384,
            "midi": 95,
            "name": "B6",
            "ticks": 79488,
            "time": 112.908978,
            "velocity": 0.4881889763779528
          },
          {
            "duration": 0.27272699999998906,
            "durationTicks": 192,
            "midi": 61,
            "name": "C#4",
            "ticks": 79488,
            "time": 112.908978,
            "velocity": 0.4881889763779528
          },
          {
            "duration": 0.27272699999998906,
            "durationTicks": 192,
            "midi": 49,
            "name": "C#3",
            "ticks": 79488,
            "time": 112.908978,
            "velocity": 0.4881889763779528
          },
          {
            "duration": 0.2727270000000033,
            "durationTicks": 192,
            "midi": 44,
            "name": "G#2",
            "ticks": 79680,
            "time": 113.181705,
            "velocity": 0.4881889763779528
          },
          {
            "duration": 0.2727270000000033,
            "durationTicks": 192,
            "midi": 44,
            "name": "G#2",
            "ticks": 79680,
            "time": 113.181705,
            "velocity": 0.4881889763779528
          },
          {
            "duration": 0.2727270000000033,
            "durationTicks": 192,
            "midi": 56,
            "name": "G#3",
            "ticks": 79680,
            "time": 113.181705,
            "velocity": 0.4881889763779528
          },
          {
            "duration": 0.2727270000000033,
            "durationTicks": 192,
            "midi": 44,
            "name": "G#2",
            "ticks": 79680,
            "time": 113.181705,
            "velocity": 0.4881889763779528
          },
          {
            "duration": 0.2727270000000033,
            "durationTicks": 192,
            "midi": 56,
            "name": "G#3",
            "ticks": 79680,
            "time": 113.181705,
            "velocity": 0.4881889763779528
          },
          {
            "duration": 0.2727270000000033,
            "durationTicks": 192,
            "midi": 44,
            "name": "G#2",
            "ticks": 79680,
            "time": 113.181705,
            "velocity": 0.4881889763779528
          },
          {
            "duration": 0.2727270000000033,
            "durationTicks": 192,
            "midi": 56,
            "name": "G#3",
            "ticks": 79680,
            "time": 113.181705,
            "velocity": 0.4881889763779528
          },
          {
            "duration": 0.2727270000000033,
            "durationTicks": 192,
            "midi": 56,
            "name": "G#3",
            "ticks": 79680,
            "time": 113.181705,
            "velocity": 0.4881889763779528
          },
          {
            "duration": 0.2727270000000033,
            "durationTicks": 192,
            "midi": 44,
            "name": "G#2",
            "ticks": 79680,
            "time": 113.181705,
            "velocity": 0.4881889763779528
          },
          {
            "duration": 0.2727270000000033,
            "durationTicks": 192,
            "midi": 56,
            "name": "G#3",
            "ticks": 79680,
            "time": 113.181705,
            "velocity": 0.4881889763779528
          },
          {
            "duration": 0.2727270000000033,
            "durationTicks": 192,
            "midi": 44,
            "name": "G#2",
            "ticks": 79680,
            "time": 113.181705,
            "velocity": 0.4881889763779528
          },
          {
            "duration": 0.2727270000000033,
            "durationTicks": 192,
            "midi": 56,
            "name": "G#3",
            "ticks": 79680,
            "time": 113.181705,
            "velocity": 0.4881889763779528
          },
          {
            "duration": 1.0909079999999989,
            "durationTicks": 768,
            "midi": 85,
            "name": "C#6",
            "ticks": 79872,
            "time": 113.454432,
            "velocity": 0.4881889763779528
          },
          {
            "duration": 1.0909079999999989,
            "durationTicks": 768,
            "midi": 85,
            "name": "C#6",
            "ticks": 79872,
            "time": 113.454432,
            "velocity": 0.4881889763779528
          },
          {
            "duration": 0.13636350000000164,
            "durationTicks": 96,
            "midi": 54,
            "name": "F#3",
            "ticks": 79872,
            "time": 113.454432,
            "velocity": 0.4881889763779528
          },
          {
            "duration": 1.0909079999999989,
            "durationTicks": 768,
            "midi": 85,
            "name": "C#6",
            "ticks": 79872,
            "time": 113.454432,
            "velocity": 0.4881889763779528
          },
          {
            "duration": 0.13636350000000164,
            "durationTicks": 96,
            "midi": 54,
            "name": "F#3",
            "ticks": 79872,
            "time": 113.454432,
            "velocity": 0.4881889763779528
          },
          {
            "duration": 1.0909079999999989,
            "durationTicks": 768,
            "midi": 97,
            "name": "C#7",
            "ticks": 79872,
            "time": 113.454432,
            "velocity": 0.4881889763779528
          },
          {
            "duration": 1.0909079999999989,
            "durationTicks": 768,
            "midi": 97,
            "name": "C#7",
            "ticks": 79872,
            "time": 113.454432,
            "velocity": 0.4881889763779528
          },
          {
            "duration": 0.13636350000000164,
            "durationTicks": 96,
            "midi": 42,
            "name": "F#2",
            "ticks": 79872,
            "time": 113.454432,
            "velocity": 0.4881889763779528
          },
          {
            "duration": 0.13636350000000164,
            "durationTicks": 96,
            "midi": 54,
            "name": "F#3",
            "ticks": 79872,
            "time": 113.454432,
            "velocity": 0.4881889763779528
          },
          {
            "duration": 1.0909079999999989,
            "durationTicks": 768,
            "midi": 85,
            "name": "C#6",
            "ticks": 79872,
            "time": 113.454432,
            "velocity": 0.4881889763779528
          },
          {
            "duration": 1.0909079999999989,
            "durationTicks": 768,
            "midi": 97,
            "name": "C#7",
            "ticks": 79872,
            "time": 113.454432,
            "velocity": 0.4881889763779528
          },
          {
            "duration": 0.13636350000000164,
            "durationTicks": 96,
            "midi": 42,
            "name": "F#2",
            "ticks": 79872,
            "time": 113.454432,
            "velocity": 0.4881889763779528
          },
          {
            "duration": 0.13636350000000164,
            "durationTicks": 96,
            "midi": 54,
            "name": "F#3",
            "ticks": 79872,
            "time": 113.454432,
            "velocity": 0.4881889763779528
          },
          {
            "duration": 0.13636350000000164,
            "durationTicks": 96,
            "midi": 42,
            "name": "F#2",
            "ticks": 79872,
            "time": 113.454432,
            "velocity": 0.4881889763779528
          },
          {
            "duration": 1.0909079999999989,
            "durationTicks": 768,
            "midi": 85,
            "name": "C#6",
            "ticks": 79872,
            "time": 113.454432,
            "velocity": 0.4881889763779528
          },
          {
            "duration": 1.0909079999999989,
            "durationTicks": 768,
            "midi": 97,
            "name": "C#7",
            "ticks": 79872,
            "time": 113.454432,
            "velocity": 0.4881889763779528
          },
          {
            "duration": 0.13636350000000164,
            "durationTicks": 96,
            "midi": 54,
            "name": "F#3",
            "ticks": 79872,
            "time": 113.454432,
            "velocity": 0.4881889763779528
          },
          {
            "duration": 1.0909079999999989,
            "durationTicks": 768,
            "midi": 97,
            "name": "C#7",
            "ticks": 79872,
            "time": 113.454432,
            "velocity": 0.4881889763779528
          },
          {
            "duration": 1.0909079999999989,
            "durationTicks": 768,
            "midi": 97,
            "name": "C#7",
            "ticks": 79872,
            "time": 113.454432,
            "velocity": 0.4881889763779528
          },
          {
            "duration": 0.13636350000000164,
            "durationTicks": 96,
            "midi": 42,
            "name": "F#2",
            "ticks": 79872,
            "time": 113.454432,
            "velocity": 0.4881889763779528
          },
          {
            "duration": 0.13636350000000164,
            "durationTicks": 96,
            "midi": 54,
            "name": "F#3",
            "ticks": 79872,
            "time": 113.454432,
            "velocity": 0.4881889763779528
          },
          {
            "duration": 1.0909079999999989,
            "durationTicks": 768,
            "midi": 85,
            "name": "C#6",
            "ticks": 79872,
            "time": 113.454432,
            "velocity": 0.4881889763779528
          },
          {
            "duration": 0.13636350000000164,
            "durationTicks": 96,
            "midi": 42,
            "name": "F#2",
            "ticks": 79872,
            "time": 113.454432,
            "velocity": 0.4881889763779528
          },
          {
            "duration": 0.13636350000000164,
            "durationTicks": 96,
            "midi": 42,
            "name": "F#2",
            "ticks": 79872,
            "time": 113.454432,
            "velocity": 0.4881889763779528
          },
          {
            "duration": 0.13636350000000164,
            "durationTicks": 96,
            "midi": 42,
            "name": "F#2",
            "ticks": 79968,
            "time": 113.5907955,
            "velocity": 0.4881889763779528
          },
          {
            "duration": 0.13636350000000164,
            "durationTicks": 96,
            "midi": 54,
            "name": "F#3",
            "ticks": 79968,
            "time": 113.5907955,
            "velocity": 0.4881889763779528
          },
          {
            "duration": 0.13636350000000164,
            "durationTicks": 96,
            "midi": 42,
            "name": "F#2",
            "ticks": 79968,
            "time": 113.5907955,
            "velocity": 0.4881889763779528
          },
          {
            "duration": 0.13636350000000164,
            "durationTicks": 96,
            "midi": 54,
            "name": "F#3",
            "ticks": 79968,
            "time": 113.5907955,
            "velocity": 0.4881889763779528
          },
          {
            "duration": 0.13636350000000164,
            "durationTicks": 96,
            "midi": 42,
            "name": "F#2",
            "ticks": 79968,
            "time": 113.5907955,
            "velocity": 0.4881889763779528
          },
          {
            "duration": 0.13636350000000164,
            "durationTicks": 96,
            "midi": 42,
            "name": "F#2",
            "ticks": 79968,
            "time": 113.5907955,
            "velocity": 0.4881889763779528
          },
          {
            "duration": 0.13636350000000164,
            "durationTicks": 96,
            "midi": 54,
            "name": "F#3",
            "ticks": 79968,
            "time": 113.5907955,
            "velocity": 0.4881889763779528
          },
          {
            "duration": 0.13636350000000164,
            "durationTicks": 96,
            "midi": 42,
            "name": "F#2",
            "ticks": 79968,
            "time": 113.5907955,
            "velocity": 0.4881889763779528
          },
          {
            "duration": 0.13636350000000164,
            "durationTicks": 96,
            "midi": 54,
            "name": "F#3",
            "ticks": 79968,
            "time": 113.5907955,
            "velocity": 0.4881889763779528
          },
          {
            "duration": 0.13636350000000164,
            "durationTicks": 96,
            "midi": 42,
            "name": "F#2",
            "ticks": 79968,
            "time": 113.5907955,
            "velocity": 0.4881889763779528
          },
          {
            "duration": 0.13636350000000164,
            "durationTicks": 96,
            "midi": 54,
            "name": "F#3",
            "ticks": 79968,
            "time": 113.5907955,
            "velocity": 0.4881889763779528
          },
          {
            "duration": 0.13636350000000164,
            "durationTicks": 96,
            "midi": 54,
            "name": "F#3",
            "ticks": 79968,
            "time": 113.5907955,
            "velocity": 0.4881889763779528
          },
          {
            "duration": 0.2727270000000033,
            "durationTicks": 192,
            "midi": 42,
            "name": "F#2",
            "ticks": 80064,
            "time": 113.727159,
            "velocity": 0.4881889763779528
          },
          {
            "duration": 0.2727270000000033,
            "durationTicks": 192,
            "midi": 54,
            "name": "F#3",
            "ticks": 80064,
            "time": 113.727159,
            "velocity": 0.4881889763779528
          },
          {
            "duration": 0.2727270000000033,
            "durationTicks": 192,
            "midi": 54,
            "name": "F#3",
            "ticks": 80064,
            "time": 113.727159,
            "velocity": 0.4881889763779528
          },
          {
            "duration": 0.2727270000000033,
            "durationTicks": 192,
            "midi": 42,
            "name": "F#2",
            "ticks": 80064,
            "time": 113.727159,
            "velocity": 0.4881889763779528
          },
          {
            "duration": 0.2727270000000033,
            "durationTicks": 192,
            "midi": 54,
            "name": "F#3",
            "ticks": 80064,
            "time": 113.727159,
            "velocity": 0.4881889763779528
          },
          {
            "duration": 0.2727270000000033,
            "durationTicks": 192,
            "midi": 42,
            "name": "F#2",
            "ticks": 80064,
            "time": 113.727159,
            "velocity": 0.4881889763779528
          },
          {
            "duration": 0.2727270000000033,
            "durationTicks": 192,
            "midi": 42,
            "name": "F#2",
            "ticks": 80064,
            "time": 113.727159,
            "velocity": 0.4881889763779528
          },
          {
            "duration": 0.2727270000000033,
            "durationTicks": 192,
            "midi": 42,
            "name": "F#2",
            "ticks": 80064,
            "time": 113.727159,
            "velocity": 0.4881889763779528
          },
          {
            "duration": 0.2727270000000033,
            "durationTicks": 192,
            "midi": 42,
            "name": "F#2",
            "ticks": 80064,
            "time": 113.727159,
            "velocity": 0.4881889763779528
          },
          {
            "duration": 0.2727270000000033,
            "durationTicks": 192,
            "midi": 54,
            "name": "F#3",
            "ticks": 80064,
            "time": 113.727159,
            "velocity": 0.4881889763779528
          },
          {
            "duration": 0.2727270000000033,
            "durationTicks": 192,
            "midi": 54,
            "name": "F#3",
            "ticks": 80064,
            "time": 113.727159,
            "velocity": 0.4881889763779528
          },
          {
            "duration": 0.2727270000000033,
            "durationTicks": 192,
            "midi": 54,
            "name": "F#3",
            "ticks": 80064,
            "time": 113.727159,
            "velocity": 0.4881889763779528
          },
          {
            "duration": 0.13636350000000164,
            "durationTicks": 96,
            "midi": 54,
            "name": "F#3",
            "ticks": 80256,
            "time": 113.999886,
            "velocity": 0.4881889763779528
          },
          {
            "duration": 0.13636350000000164,
            "durationTicks": 96,
            "midi": 54,
            "name": "F#3",
            "ticks": 80256,
            "time": 113.999886,
            "velocity": 0.4881889763779528
          },
          {
            "duration": 0.13636350000000164,
            "durationTicks": 96,
            "midi": 42,
            "name": "F#2",
            "ticks": 80256,
            "time": 113.999886,
            "velocity": 0.4881889763779528
          },
          {
            "duration": 0.13636350000000164,
            "durationTicks": 96,
            "midi": 42,
            "name": "F#2",
            "ticks": 80256,
            "time": 113.999886,
            "velocity": 0.4881889763779528
          },
          {
            "duration": 0.13636350000000164,
            "durationTicks": 96,
            "midi": 54,
            "name": "F#3",
            "ticks": 80256,
            "time": 113.999886,
            "velocity": 0.4881889763779528
          },
          {
            "duration": 0.13636350000000164,
            "durationTicks": 96,
            "midi": 42,
            "name": "F#2",
            "ticks": 80256,
            "time": 113.999886,
            "velocity": 0.4881889763779528
          },
          {
            "duration": 0.13636350000000164,
            "durationTicks": 96,
            "midi": 42,
            "name": "F#2",
            "ticks": 80256,
            "time": 113.999886,
            "velocity": 0.4881889763779528
          },
          {
            "duration": 0.13636350000000164,
            "durationTicks": 96,
            "midi": 54,
            "name": "F#3",
            "ticks": 80256,
            "time": 113.999886,
            "velocity": 0.4881889763779528
          },
          {
            "duration": 0.13636350000000164,
            "durationTicks": 96,
            "midi": 42,
            "name": "F#2",
            "ticks": 80256,
            "time": 113.999886,
            "velocity": 0.4881889763779528
          },
          {
            "duration": 0.13636350000000164,
            "durationTicks": 96,
            "midi": 54,
            "name": "F#3",
            "ticks": 80256,
            "time": 113.999886,
            "velocity": 0.4881889763779528
          },
          {
            "duration": 0.13636350000000164,
            "durationTicks": 96,
            "midi": 54,
            "name": "F#3",
            "ticks": 80256,
            "time": 113.999886,
            "velocity": 0.4881889763779528
          },
          {
            "duration": 0.13636350000000164,
            "durationTicks": 96,
            "midi": 42,
            "name": "F#2",
            "ticks": 80256,
            "time": 113.999886,
            "velocity": 0.4881889763779528
          },
          {
            "duration": 0.13636349999998743,
            "durationTicks": 96,
            "midi": 42,
            "name": "F#2",
            "ticks": 80352,
            "time": 114.1362495,
            "velocity": 0.4881889763779528
          },
          {
            "duration": 0.13636349999998743,
            "durationTicks": 96,
            "midi": 54,
            "name": "F#3",
            "ticks": 80352,
            "time": 114.1362495,
            "velocity": 0.4881889763779528
          },
          {
            "duration": 0.13636349999998743,
            "durationTicks": 96,
            "midi": 54,
            "name": "F#3",
            "ticks": 80352,
            "time": 114.1362495,
            "velocity": 0.4881889763779528
          },
          {
            "duration": 0.13636349999998743,
            "durationTicks": 96,
            "midi": 42,
            "name": "F#2",
            "ticks": 80352,
            "time": 114.1362495,
            "velocity": 0.4881889763779528
          },
          {
            "duration": 0.13636349999998743,
            "durationTicks": 96,
            "midi": 42,
            "name": "F#2",
            "ticks": 80352,
            "time": 114.1362495,
            "velocity": 0.4881889763779528
          },
          {
            "duration": 0.13636349999998743,
            "durationTicks": 96,
            "midi": 54,
            "name": "F#3",
            "ticks": 80352,
            "time": 114.1362495,
            "velocity": 0.4881889763779528
          },
          {
            "duration": 0.13636349999998743,
            "durationTicks": 96,
            "midi": 54,
            "name": "F#3",
            "ticks": 80352,
            "time": 114.1362495,
            "velocity": 0.4881889763779528
          },
          {
            "duration": 0.13636349999998743,
            "durationTicks": 96,
            "midi": 54,
            "name": "F#3",
            "ticks": 80352,
            "time": 114.1362495,
            "velocity": 0.4881889763779528
          },
          {
            "duration": 0.13636349999998743,
            "durationTicks": 96,
            "midi": 42,
            "name": "F#2",
            "ticks": 80352,
            "time": 114.1362495,
            "velocity": 0.4881889763779528
          },
          {
            "duration": 0.13636349999998743,
            "durationTicks": 96,
            "midi": 42,
            "name": "F#2",
            "ticks": 80352,
            "time": 114.1362495,
            "velocity": 0.4881889763779528
          },
          {
            "duration": 0.13636349999998743,
            "durationTicks": 96,
            "midi": 42,
            "name": "F#2",
            "ticks": 80352,
            "time": 114.1362495,
            "velocity": 0.4881889763779528
          },
          {
            "duration": 0.13636349999998743,
            "durationTicks": 96,
            "midi": 54,
            "name": "F#3",
            "ticks": 80352,
            "time": 114.1362495,
            "velocity": 0.4881889763779528
          },
          {
            "duration": 0.2727270000000033,
            "durationTicks": 192,
            "midi": 42,
            "name": "F#2",
            "ticks": 80448,
            "time": 114.27261299999999,
            "velocity": 0.4881889763779528
          },
          {
            "duration": 0.2727270000000033,
            "durationTicks": 192,
            "midi": 54,
            "name": "F#3",
            "ticks": 80448,
            "time": 114.27261299999999,
            "velocity": 0.4881889763779528
          },
          {
            "duration": 0.2727270000000033,
            "durationTicks": 192,
            "midi": 42,
            "name": "F#2",
            "ticks": 80448,
            "time": 114.27261299999999,
            "velocity": 0.4881889763779528
          },
          {
            "duration": 0.2727270000000033,
            "durationTicks": 192,
            "midi": 54,
            "name": "F#3",
            "ticks": 80448,
            "time": 114.27261299999999,
            "velocity": 0.4881889763779528
          },
          {
            "duration": 0.2727270000000033,
            "durationTicks": 192,
            "midi": 54,
            "name": "F#3",
            "ticks": 80448,
            "time": 114.27261299999999,
            "velocity": 0.4881889763779528
          },
          {
            "duration": 0.2727270000000033,
            "durationTicks": 192,
            "midi": 42,
            "name": "F#2",
            "ticks": 80448,
            "time": 114.27261299999999,
            "velocity": 0.4881889763779528
          },
          {
            "duration": 0.2727270000000033,
            "durationTicks": 192,
            "midi": 42,
            "name": "F#2",
            "ticks": 80448,
            "time": 114.27261299999999,
            "velocity": 0.4881889763779528
          },
          {
            "duration": 0.2727270000000033,
            "durationTicks": 192,
            "midi": 42,
            "name": "F#2",
            "ticks": 80448,
            "time": 114.27261299999999,
            "velocity": 0.4881889763779528
          },
          {
            "duration": 0.2727270000000033,
            "durationTicks": 192,
            "midi": 54,
            "name": "F#3",
            "ticks": 80448,
            "time": 114.27261299999999,
            "velocity": 0.4881889763779528
          },
          {
            "duration": 0.2727270000000033,
            "durationTicks": 192,
            "midi": 54,
            "name": "F#3",
            "ticks": 80448,
            "time": 114.27261299999999,
            "velocity": 0.4881889763779528
          },
          {
            "duration": 0.2727270000000033,
            "durationTicks": 192,
            "midi": 54,
            "name": "F#3",
            "ticks": 80448,
            "time": 114.27261299999999,
            "velocity": 0.4881889763779528
          },
          {
            "duration": 0.2727270000000033,
            "durationTicks": 192,
            "midi": 42,
            "name": "F#2",
            "ticks": 80448,
            "time": 114.27261299999999,
            "velocity": 0.4881889763779528
          },
          {
            "duration": 1.0909079999999989,
            "durationTicks": 768,
            "midi": 90,
            "name": "F#6",
            "ticks": 80640,
            "time": 114.54534,
            "velocity": 0.4881889763779528
          },
          {
            "duration": 0.13636350000000164,
            "durationTicks": 96,
            "midi": 42,
            "name": "F#2",
            "ticks": 80640,
            "time": 114.54534,
            "velocity": 0.4881889763779528
          },
          {
            "duration": 1.0909079999999989,
            "durationTicks": 768,
            "midi": 102,
            "name": "F#7",
            "ticks": 80640,
            "time": 114.54534,
            "velocity": 0.4881889763779528
          },
          {
            "duration": 1.0909079999999989,
            "durationTicks": 768,
            "midi": 102,
            "name": "F#7",
            "ticks": 80640,
            "time": 114.54534,
            "velocity": 0.4881889763779528
          },
          {
            "duration": 0.13636350000000164,
            "durationTicks": 96,
            "midi": 42,
            "name": "F#2",
            "ticks": 80640,
            "time": 114.54534,
            "velocity": 0.4881889763779528
          },
          {
            "duration": 0.13636350000000164,
            "durationTicks": 96,
            "midi": 42,
            "name": "F#2",
            "ticks": 80640,
            "time": 114.54534,
            "velocity": 0.4881889763779528
          },
          {
            "duration": 0.13636350000000164,
            "durationTicks": 96,
            "midi": 42,
            "name": "F#2",
            "ticks": 80640,
            "time": 114.54534,
            "velocity": 0.4881889763779528
          },
          {
            "duration": 0.13636350000000164,
            "durationTicks": 96,
            "midi": 54,
            "name": "F#3",
            "ticks": 80640,
            "time": 114.54534,
            "velocity": 0.4881889763779528
          },
          {
            "duration": 0.13636350000000164,
            "durationTicks": 96,
            "midi": 54,
            "name": "F#3",
            "ticks": 80640,
            "time": 114.54534,
            "velocity": 0.4881889763779528
          },
          {
            "duration": 1.0909079999999989,
            "durationTicks": 768,
            "midi": 90,
            "name": "F#6",
            "ticks": 80640,
            "time": 114.54534,
            "velocity": 0.4881889763779528
          },
          {
            "duration": 0.13636350000000164,
            "durationTicks": 96,
            "midi": 54,
            "name": "F#3",
            "ticks": 80640,
            "time": 114.54534,
            "velocity": 0.4881889763779528
          },
          {
            "duration": 0.13636350000000164,
            "durationTicks": 96,
            "midi": 54,
            "name": "F#3",
            "ticks": 80640,
            "time": 114.54534,
            "velocity": 0.4881889763779528
          },
          {
            "duration": 1.0909079999999989,
            "durationTicks": 768,
            "midi": 102,
            "name": "F#7",
            "ticks": 80640,
            "time": 114.54534,
            "velocity": 0.4881889763779528
          },
          {
            "duration": 0.13636350000000164,
            "durationTicks": 96,
            "midi": 42,
            "name": "F#2",
            "ticks": 80640,
            "time": 114.54534,
            "velocity": 0.4881889763779528
          },
          {
            "duration": 0.13636350000000164,
            "durationTicks": 96,
            "midi": 54,
            "name": "F#3",
            "ticks": 80640,
            "time": 114.54534,
            "velocity": 0.4881889763779528
          },
          {
            "duration": 1.0909079999999989,
            "durationTicks": 768,
            "midi": 90,
            "name": "F#6",
            "ticks": 80640,
            "time": 114.54534,
            "velocity": 0.4881889763779528
          },
          {
            "duration": 1.0909079999999989,
            "durationTicks": 768,
            "midi": 90,
            "name": "F#6",
            "ticks": 80640,
            "time": 114.54534,
            "velocity": 0.4881889763779528
          },
          {
            "duration": 0.13636350000000164,
            "durationTicks": 96,
            "midi": 54,
            "name": "F#3",
            "ticks": 80640,
            "time": 114.54534,
            "velocity": 0.4881889763779528
          },
          {
            "duration": 1.0909079999999989,
            "durationTicks": 768,
            "midi": 102,
            "name": "F#7",
            "ticks": 80640,
            "time": 114.54534,
            "velocity": 0.4881889763779528
          },
          {
            "duration": 1.0909079999999989,
            "durationTicks": 768,
            "midi": 102,
            "name": "F#7",
            "ticks": 80640,
            "time": 114.54534,
            "velocity": 0.4881889763779528
          },
          {
            "duration": 1.0909079999999989,
            "durationTicks": 768,
            "midi": 102,
            "name": "F#7",
            "ticks": 80640,
            "time": 114.54534,
            "velocity": 0.4881889763779528
          },
          {
            "duration": 1.0909079999999989,
            "durationTicks": 768,
            "midi": 90,
            "name": "F#6",
            "ticks": 80640,
            "time": 114.54534,
            "velocity": 0.4881889763779528
          },
          {
            "duration": 0.13636350000000164,
            "durationTicks": 96,
            "midi": 42,
            "name": "F#2",
            "ticks": 80640,
            "time": 114.54534,
            "velocity": 0.4881889763779528
          },
          {
            "duration": 1.0909079999999989,
            "durationTicks": 768,
            "midi": 90,
            "name": "F#6",
            "ticks": 80640,
            "time": 114.54534,
            "velocity": 0.4881889763779528
          },
          {
            "duration": 0.13636350000000164,
            "durationTicks": 96,
            "midi": 45,
            "name": "A2",
            "ticks": 80736,
            "time": 114.6817035,
            "velocity": 0.4881889763779528
          },
          {
            "duration": 0.13636350000000164,
            "durationTicks": 96,
            "midi": 57,
            "name": "A3",
            "ticks": 80736,
            "time": 114.6817035,
            "velocity": 0.4881889763779528
          },
          {
            "duration": 0.13636350000000164,
            "durationTicks": 96,
            "midi": 57,
            "name": "A3",
            "ticks": 80736,
            "time": 114.6817035,
            "velocity": 0.4881889763779528
          },
          {
            "duration": 0.13636350000000164,
            "durationTicks": 96,
            "midi": 45,
            "name": "A2",
            "ticks": 80736,
            "time": 114.6817035,
            "velocity": 0.4881889763779528
          },
          {
            "duration": 0.13636350000000164,
            "durationTicks": 96,
            "midi": 45,
            "name": "A2",
            "ticks": 80736,
            "time": 114.6817035,
            "velocity": 0.4881889763779528
          },
          {
            "duration": 0.13636350000000164,
            "durationTicks": 96,
            "midi": 45,
            "name": "A2",
            "ticks": 80736,
            "time": 114.6817035,
            "velocity": 0.4881889763779528
          },
          {
            "duration": 0.13636350000000164,
            "durationTicks": 96,
            "midi": 57,
            "name": "A3",
            "ticks": 80736,
            "time": 114.6817035,
            "velocity": 0.4881889763779528
          },
          {
            "duration": 0.13636350000000164,
            "durationTicks": 96,
            "midi": 57,
            "name": "A3",
            "ticks": 80736,
            "time": 114.6817035,
            "velocity": 0.4881889763779528
          },
          {
            "duration": 0.13636350000000164,
            "durationTicks": 96,
            "midi": 57,
            "name": "A3",
            "ticks": 80736,
            "time": 114.6817035,
            "velocity": 0.4881889763779528
          },
          {
            "duration": 0.13636350000000164,
            "durationTicks": 96,
            "midi": 57,
            "name": "A3",
            "ticks": 80736,
            "time": 114.6817035,
            "velocity": 0.4881889763779528
          },
          {
            "duration": 0.13636350000000164,
            "durationTicks": 96,
            "midi": 45,
            "name": "A2",
            "ticks": 80736,
            "time": 114.6817035,
            "velocity": 0.4881889763779528
          },
          {
            "duration": 0.13636350000000164,
            "durationTicks": 96,
            "midi": 45,
            "name": "A2",
            "ticks": 80736,
            "time": 114.6817035,
            "velocity": 0.4881889763779528
          },
          {
            "duration": 0.2727270000000033,
            "durationTicks": 192,
            "midi": 45,
            "name": "A2",
            "ticks": 80832,
            "time": 114.818067,
            "velocity": 0.4881889763779528
          },
          {
            "duration": 0.2727270000000033,
            "durationTicks": 192,
            "midi": 57,
            "name": "A3",
            "ticks": 80832,
            "time": 114.818067,
            "velocity": 0.4881889763779528
          },
          {
            "duration": 0.2727270000000033,
            "durationTicks": 192,
            "midi": 57,
            "name": "A3",
            "ticks": 80832,
            "time": 114.818067,
            "velocity": 0.4881889763779528
          },
          {
            "duration": 0.2727270000000033,
            "durationTicks": 192,
            "midi": 45,
            "name": "A2",
            "ticks": 80832,
            "time": 114.818067,
            "velocity": 0.4881889763779528
          },
          {
            "duration": 0.2727270000000033,
            "durationTicks": 192,
            "midi": 57,
            "name": "A3",
            "ticks": 80832,
            "time": 114.818067,
            "velocity": 0.4881889763779528
          },
          {
            "duration": 0.2727270000000033,
            "durationTicks": 192,
            "midi": 45,
            "name": "A2",
            "ticks": 80832,
            "time": 114.818067,
            "velocity": 0.4881889763779528
          },
          {
            "duration": 0.2727270000000033,
            "durationTicks": 192,
            "midi": 45,
            "name": "A2",
            "ticks": 80832,
            "time": 114.818067,
            "velocity": 0.4881889763779528
          },
          {
            "duration": 0.2727270000000033,
            "durationTicks": 192,
            "midi": 57,
            "name": "A3",
            "ticks": 80832,
            "time": 114.818067,
            "velocity": 0.4881889763779528
          },
          {
            "duration": 0.2727270000000033,
            "durationTicks": 192,
            "midi": 57,
            "name": "A3",
            "ticks": 80832,
            "time": 114.818067,
            "velocity": 0.4881889763779528
          },
          {
            "duration": 0.2727270000000033,
            "durationTicks": 192,
            "midi": 57,
            "name": "A3",
            "ticks": 80832,
            "time": 114.818067,
            "velocity": 0.4881889763779528
          },
          {
            "duration": 0.2727270000000033,
            "durationTicks": 192,
            "midi": 45,
            "name": "A2",
            "ticks": 80832,
            "time": 114.818067,
            "velocity": 0.4881889763779528
          },
          {
            "duration": 0.2727270000000033,
            "durationTicks": 192,
            "midi": 45,
            "name": "A2",
            "ticks": 80832,
            "time": 114.818067,
            "velocity": 0.4881889763779528
          },
          {
            "duration": 0.2727270000000033,
            "durationTicks": 192,
            "midi": 61,
            "name": "C#4",
            "ticks": 81024,
            "time": 115.090794,
            "velocity": 0.4881889763779528
          },
          {
            "duration": 0.2727270000000033,
            "durationTicks": 192,
            "midi": 61,
            "name": "C#4",
            "ticks": 81024,
            "time": 115.090794,
            "velocity": 0.4881889763779528
          },
          {
            "duration": 0.2727270000000033,
            "durationTicks": 192,
            "midi": 49,
            "name": "C#3",
            "ticks": 81024,
            "time": 115.090794,
            "velocity": 0.4881889763779528
          },
          {
            "duration": 0.2727270000000033,
            "durationTicks": 192,
            "midi": 49,
            "name": "C#3",
            "ticks": 81024,
            "time": 115.090794,
            "velocity": 0.4881889763779528
          },
          {
            "duration": 0.2727270000000033,
            "durationTicks": 192,
            "midi": 49,
            "name": "C#3",
            "ticks": 81024,
            "time": 115.090794,
            "velocity": 0.4881889763779528
          },
          {
            "duration": 0.2727270000000033,
            "durationTicks": 192,
            "midi": 49,
            "name": "C#3",
            "ticks": 81024,
            "time": 115.090794,
            "velocity": 0.4881889763779528
          },
          {
            "duration": 0.2727270000000033,
            "durationTicks": 192,
            "midi": 61,
            "name": "C#4",
            "ticks": 81024,
            "time": 115.090794,
            "velocity": 0.4881889763779528
          },
          {
            "duration": 0.2727270000000033,
            "durationTicks": 192,
            "midi": 61,
            "name": "C#4",
            "ticks": 81024,
            "time": 115.090794,
            "velocity": 0.4881889763779528
          },
          {
            "duration": 0.2727270000000033,
            "durationTicks": 192,
            "midi": 49,
            "name": "C#3",
            "ticks": 81024,
            "time": 115.090794,
            "velocity": 0.4881889763779528
          },
          {
            "duration": 0.2727270000000033,
            "durationTicks": 192,
            "midi": 61,
            "name": "C#4",
            "ticks": 81024,
            "time": 115.090794,
            "velocity": 0.4881889763779528
          },
          {
            "duration": 0.2727270000000033,
            "durationTicks": 192,
            "midi": 49,
            "name": "C#3",
            "ticks": 81024,
            "time": 115.090794,
            "velocity": 0.4881889763779528
          },
          {
            "duration": 0.2727270000000033,
            "durationTicks": 192,
            "midi": 61,
            "name": "C#4",
            "ticks": 81024,
            "time": 115.090794,
            "velocity": 0.4881889763779528
          },
          {
            "duration": 0.27272699999998906,
            "durationTicks": 192,
            "midi": 63,
            "name": "D#4",
            "ticks": 81216,
            "time": 115.363521,
            "velocity": 0.4881889763779528
          },
          {
            "duration": 0.27272699999998906,
            "durationTicks": 192,
            "midi": 63,
            "name": "D#4",
            "ticks": 81216,
            "time": 115.363521,
            "velocity": 0.4881889763779528
          },
          {
            "duration": 0.27272699999998906,
            "durationTicks": 192,
            "midi": 63,
            "name": "D#4",
            "ticks": 81216,
            "time": 115.363521,
            "velocity": 0.4881889763779528
          },
          {
            "duration": 0.27272699999998906,
            "durationTicks": 192,
            "midi": 63,
            "name": "D#4",
            "ticks": 81216,
            "time": 115.363521,
            "velocity": 0.4881889763779528
          },
          {
            "duration": 0.27272699999998906,
            "durationTicks": 192,
            "midi": 63,
            "name": "D#4",
            "ticks": 81216,
            "time": 115.363521,
            "velocity": 0.4881889763779528
          },
          {
            "duration": 0.27272699999998906,
            "durationTicks": 192,
            "midi": 51,
            "name": "D#3",
            "ticks": 81216,
            "time": 115.363521,
            "velocity": 0.4881889763779528
          },
          {
            "duration": 0.27272699999998906,
            "durationTicks": 192,
            "midi": 63,
            "name": "D#4",
            "ticks": 81216,
            "time": 115.363521,
            "velocity": 0.4881889763779528
          },
          {
            "duration": 0.27272699999998906,
            "durationTicks": 192,
            "midi": 51,
            "name": "D#3",
            "ticks": 81216,
            "time": 115.363521,
            "velocity": 0.4881889763779528
          },
          {
            "duration": 0.27272699999998906,
            "durationTicks": 192,
            "midi": 51,
            "name": "D#3",
            "ticks": 81216,
            "time": 115.363521,
            "velocity": 0.4881889763779528
          },
          {
            "duration": 0.27272699999998906,
            "durationTicks": 192,
            "midi": 51,
            "name": "D#3",
            "ticks": 81216,
            "time": 115.363521,
            "velocity": 0.4881889763779528
          },
          {
            "duration": 0.27272699999998906,
            "durationTicks": 192,
            "midi": 51,
            "name": "D#3",
            "ticks": 81216,
            "time": 115.363521,
            "velocity": 0.4881889763779528
          },
          {
            "duration": 0.27272699999998906,
            "durationTicks": 192,
            "midi": 51,
            "name": "D#3",
            "ticks": 81216,
            "time": 115.363521,
            "velocity": 0.4881889763779528
          },
          {
            "duration": 0.13636350000000164,
            "durationTicks": 96,
            "midi": 61,
            "name": "C#4",
            "ticks": 81408,
            "time": 115.636248,
            "velocity": 0.4881889763779528
          },
          {
            "duration": 0.13636350000000164,
            "durationTicks": 96,
            "midi": 61,
            "name": "C#4",
            "ticks": 81408,
            "time": 115.636248,
            "velocity": 0.4881889763779528
          },
          {
            "duration": 0.13636350000000164,
            "durationTicks": 96,
            "midi": 61,
            "name": "C#4",
            "ticks": 81408,
            "time": 115.636248,
            "velocity": 0.4881889763779528
          },
          {
            "duration": 1.0909079999999989,
            "durationTicks": 768,
            "midi": 100,
            "name": "E7",
            "ticks": 81408,
            "time": 115.636248,
            "velocity": 0.4881889763779528
          },
          {
            "duration": 0.13636350000000164,
            "durationTicks": 96,
            "midi": 49,
            "name": "C#3",
            "ticks": 81408,
            "time": 115.636248,
            "velocity": 0.4881889763779528
          },
          {
            "duration": 1.0909079999999989,
            "durationTicks": 768,
            "midi": 95,
            "name": "B6",
            "ticks": 81408,
            "time": 115.636248,
            "velocity": 0.4881889763779528
          },
          {
            "duration": 0.13636350000000164,
            "durationTicks": 96,
            "midi": 61,
            "name": "C#4",
            "ticks": 81408,
            "time": 115.636248,
            "velocity": 0.4881889763779528
          },
          {
            "duration": 1.0909079999999989,
            "durationTicks": 768,
            "midi": 100,
            "name": "E7",
            "ticks": 81408,
            "time": 115.636248,
            "velocity": 0.4881889763779528
          },
          {
            "duration": 1.0909079999999989,
            "durationTicks": 768,
            "midi": 100,
            "name": "E7",
            "ticks": 81408,
            "time": 115.636248,
            "velocity": 0.4881889763779528
          },
          {
            "duration": 0.13636350000000164,
            "durationTicks": 96,
            "midi": 61,
            "name": "C#4",
            "ticks": 81408,
            "time": 115.636248,
            "velocity": 0.4881889763779528
          },
          {
            "duration": 1.0909079999999989,
            "durationTicks": 768,
            "midi": 92,
            "name": "G#6",
            "ticks": 81408,
            "time": 115.636248,
            "velocity": 0.4881889763779528
          },
          {
            "duration": 1.0909079999999989,
            "durationTicks": 768,
            "midi": 100,
            "name": "E7",
            "ticks": 81408,
            "time": 115.636248,
            "velocity": 0.4881889763779528
          },
          {
            "duration": 0.13636350000000164,
            "durationTicks": 96,
            "midi": 61,
            "name": "C#4",
            "ticks": 81408,
            "time": 115.636248,
            "velocity": 0.4881889763779528
          },
          {
            "duration": 1.0909079999999989,
            "durationTicks": 768,
            "midi": 92,
            "name": "G#6",
            "ticks": 81408,
            "time": 115.636248,
            "velocity": 0.4881889763779528
          },
          {
            "duration": 0.13636350000000164,
            "durationTicks": 96,
            "midi": 49,
            "name": "C#3",
            "ticks": 81408,
            "time": 115.636248,
            "velocity": 0.4881889763779528
          },
          {
            "duration": 1.0909079999999989,
            "durationTicks": 768,
            "midi": 95,
            "name": "B6",
            "ticks": 81408,
            "time": 115.636248,
            "velocity": 0.4881889763779528
          },
          {
            "duration": 1.0909079999999989,
            "durationTicks": 768,
            "midi": 100,
            "name": "E7",
            "ticks": 81408,
            "time": 115.636248,
            "velocity": 0.4881889763779528
          },
          {
            "duration": 1.0909079999999989,
            "durationTicks": 768,
            "midi": 92,
            "name": "G#6",
            "ticks": 81408,
            "time": 115.636248,
            "velocity": 0.4881889763779528
          },
          {
            "duration": 1.0909079999999989,
            "durationTicks": 768,
            "midi": 95,
            "name": "B6",
            "ticks": 81408,
            "time": 115.636248,
            "velocity": 0.4881889763779528
          },
          {
            "duration": 1.0909079999999989,
            "durationTicks": 768,
            "midi": 95,
            "name": "B6",
            "ticks": 81408,
            "time": 115.636248,
            "velocity": 0.4881889763779528
          },
          {
            "duration": 1.0909079999999989,
            "durationTicks": 768,
            "midi": 88,
            "name": "E6",
            "ticks": 81408,
            "time": 115.636248,
            "velocity": 0.4881889763779528
          },
          {
            "duration": 0.13636350000000164,
            "durationTicks": 96,
            "midi": 49,
            "name": "C#3",
            "ticks": 81408,
            "time": 115.636248,
            "velocity": 0.4881889763779528
          },
          {
            "duration": 0.13636350000000164,
            "durationTicks": 96,
            "midi": 49,
            "name": "C#3",
            "ticks": 81408,
            "time": 115.636248,
            "velocity": 0.4881889763779528
          },
          {
            "duration": 1.0909079999999989,
            "durationTicks": 768,
            "midi": 92,
            "name": "G#6",
            "ticks": 81408,
            "time": 115.636248,
            "velocity": 0.4881889763779528
          },
          {
            "duration": 1.0909079999999989,
            "durationTicks": 768,
            "midi": 88,
            "name": "E6",
            "ticks": 81408,
            "time": 115.636248,
            "velocity": 0.4881889763779528
          },
          {
            "duration": 1.0909079999999989,
            "durationTicks": 768,
            "midi": 95,
            "name": "B6",
            "ticks": 81408,
            "time": 115.636248,
            "velocity": 0.4881889763779528
          },
          {
            "duration": 1.0909079999999989,
            "durationTicks": 768,
            "midi": 88,
            "name": "E6",
            "ticks": 81408,
            "time": 115.636248,
            "velocity": 0.4881889763779528
          },
          {
            "duration": 1.0909079999999989,
            "durationTicks": 768,
            "midi": 88,
            "name": "E6",
            "ticks": 81408,
            "time": 115.636248,
            "velocity": 0.4881889763779528
          },
          {
            "duration": 1.0909079999999989,
            "durationTicks": 768,
            "midi": 92,
            "name": "G#6",
            "ticks": 81408,
            "time": 115.636248,
            "velocity": 0.4881889763779528
          },
          {
            "duration": 1.0909079999999989,
            "durationTicks": 768,
            "midi": 100,
            "name": "E7",
            "ticks": 81408,
            "time": 115.636248,
            "velocity": 0.4881889763779528
          },
          {
            "duration": 0.13636350000000164,
            "durationTicks": 96,
            "midi": 49,
            "name": "C#3",
            "ticks": 81408,
            "time": 115.636248,
            "velocity": 0.4881889763779528
          },
          {
            "duration": 1.0909079999999989,
            "durationTicks": 768,
            "midi": 88,
            "name": "E6",
            "ticks": 81408,
            "time": 115.636248,
            "velocity": 0.4881889763779528
          },
          {
            "duration": 0.13636350000000164,
            "durationTicks": 96,
            "midi": 49,
            "name": "C#3",
            "ticks": 81408,
            "time": 115.636248,
            "velocity": 0.4881889763779528
          },
          {
            "duration": 1.0909079999999989,
            "durationTicks": 768,
            "midi": 88,
            "name": "E6",
            "ticks": 81408,
            "time": 115.636248,
            "velocity": 0.4881889763779528
          },
          {
            "duration": 1.0909079999999989,
            "durationTicks": 768,
            "midi": 95,
            "name": "B6",
            "ticks": 81408,
            "time": 115.636248,
            "velocity": 0.4881889763779528
          },
          {
            "duration": 1.0909079999999989,
            "durationTicks": 768,
            "midi": 92,
            "name": "G#6",
            "ticks": 81408,
            "time": 115.636248,
            "velocity": 0.4881889763779528
          },
          {
            "duration": 0.13636350000000164,
            "durationTicks": 96,
            "midi": 61,
            "name": "C#4",
            "ticks": 81504,
            "time": 115.7726115,
            "velocity": 0.4881889763779528
          },
          {
            "duration": 0.13636350000000164,
            "durationTicks": 96,
            "midi": 61,
            "name": "C#4",
            "ticks": 81504,
            "time": 115.7726115,
            "velocity": 0.4881889763779528
          },
          {
            "duration": 0.13636350000000164,
            "durationTicks": 96,
            "midi": 49,
            "name": "C#3",
            "ticks": 81504,
            "time": 115.7726115,
            "velocity": 0.4881889763779528
          },
          {
            "duration": 0.13636350000000164,
            "durationTicks": 96,
            "midi": 61,
            "name": "C#4",
            "ticks": 81504,
            "time": 115.7726115,
            "velocity": 0.4881889763779528
          },
          {
            "duration": 0.13636350000000164,
            "durationTicks": 96,
            "midi": 49,
            "name": "C#3",
            "ticks": 81504,
            "time": 115.7726115,
            "velocity": 0.4881889763779528
          },
          {
            "duration": 0.13636350000000164,
            "durationTicks": 96,
            "midi": 61,
            "name": "C#4",
            "ticks": 81504,
            "time": 115.7726115,
            "velocity": 0.4881889763779528
          },
          {
            "duration": 0.13636350000000164,
            "durationTicks": 96,
            "midi": 49,
            "name": "C#3",
            "ticks": 81504,
            "time": 115.7726115,
            "velocity": 0.4881889763779528
          },
          {
            "duration": 0.13636350000000164,
            "durationTicks": 96,
            "midi": 49,
            "name": "C#3",
            "ticks": 81504,
            "time": 115.7726115,
            "velocity": 0.4881889763779528
          },
          {
            "duration": 0.13636350000000164,
            "durationTicks": 96,
            "midi": 61,
            "name": "C#4",
            "ticks": 81504,
            "time": 115.7726115,
            "velocity": 0.4881889763779528
          },
          {
            "duration": 0.13636350000000164,
            "durationTicks": 96,
            "midi": 49,
            "name": "C#3",
            "ticks": 81504,
            "time": 115.7726115,
            "velocity": 0.4881889763779528
          },
          {
            "duration": 0.13636350000000164,
            "durationTicks": 96,
            "midi": 49,
            "name": "C#3",
            "ticks": 81504,
            "time": 115.7726115,
            "velocity": 0.4881889763779528
          },
          {
            "duration": 0.13636350000000164,
            "durationTicks": 96,
            "midi": 61,
            "name": "C#4",
            "ticks": 81504,
            "time": 115.7726115,
            "velocity": 0.4881889763779528
          },
          {
            "duration": 0.2727270000000033,
            "durationTicks": 192,
            "midi": 61,
            "name": "C#4",
            "ticks": 81600,
            "time": 115.908975,
            "velocity": 0.4881889763779528
          },
          {
            "duration": 0.2727270000000033,
            "durationTicks": 192,
            "midi": 61,
            "name": "C#4",
            "ticks": 81600,
            "time": 115.908975,
            "velocity": 0.4881889763779528
          },
          {
            "duration": 0.2727270000000033,
            "durationTicks": 192,
            "midi": 61,
            "name": "C#4",
            "ticks": 81600,
            "time": 115.908975,
            "velocity": 0.4881889763779528
          },
          {
            "duration": 0.2727270000000033,
            "durationTicks": 192,
            "midi": 49,
            "name": "C#3",
            "ticks": 81600,
            "time": 115.908975,
            "velocity": 0.4881889763779528
          },
          {
            "duration": 0.2727270000000033,
            "durationTicks": 192,
            "midi": 49,
            "name": "C#3",
            "ticks": 81600,
            "time": 115.908975,
            "velocity": 0.4881889763779528
          },
          {
            "duration": 0.2727270000000033,
            "durationTicks": 192,
            "midi": 49,
            "name": "C#3",
            "ticks": 81600,
            "time": 115.908975,
            "velocity": 0.4881889763779528
          },
          {
            "duration": 0.2727270000000033,
            "durationTicks": 192,
            "midi": 61,
            "name": "C#4",
            "ticks": 81600,
            "time": 115.908975,
            "velocity": 0.4881889763779528
          },
          {
            "duration": 0.2727270000000033,
            "durationTicks": 192,
            "midi": 49,
            "name": "C#3",
            "ticks": 81600,
            "time": 115.908975,
            "velocity": 0.4881889763779528
          },
          {
            "duration": 0.2727270000000033,
            "durationTicks": 192,
            "midi": 61,
            "name": "C#4",
            "ticks": 81600,
            "time": 115.908975,
            "velocity": 0.4881889763779528
          },
          {
            "duration": 0.2727270000000033,
            "durationTicks": 192,
            "midi": 61,
            "name": "C#4",
            "ticks": 81600,
            "time": 115.908975,
            "velocity": 0.4881889763779528
          },
          {
            "duration": 0.2727270000000033,
            "durationTicks": 192,
            "midi": 49,
            "name": "C#3",
            "ticks": 81600,
            "time": 115.908975,
            "velocity": 0.4881889763779528
          },
          {
            "duration": 0.2727270000000033,
            "durationTicks": 192,
            "midi": 49,
            "name": "C#3",
            "ticks": 81600,
            "time": 115.908975,
            "velocity": 0.4881889763779528
          },
          {
            "duration": 0.13636350000000164,
            "durationTicks": 96,
            "midi": 49,
            "name": "C#3",
            "ticks": 81792,
            "time": 116.181702,
            "velocity": 0.4881889763779528
          },
          {
            "duration": 0.13636350000000164,
            "durationTicks": 96,
            "midi": 61,
            "name": "C#4",
            "ticks": 81792,
            "time": 116.181702,
            "velocity": 0.4881889763779528
          },
          {
            "duration": 0.13636350000000164,
            "durationTicks": 96,
            "midi": 49,
            "name": "C#3",
            "ticks": 81792,
            "time": 116.181702,
            "velocity": 0.4881889763779528
          },
          {
            "duration": 0.13636350000000164,
            "durationTicks": 96,
            "midi": 49,
            "name": "C#3",
            "ticks": 81792,
            "time": 116.181702,
            "velocity": 0.4881889763779528
          },
          {
            "duration": 0.13636350000000164,
            "durationTicks": 96,
            "midi": 61,
            "name": "C#4",
            "ticks": 81792,
            "time": 116.181702,
            "velocity": 0.4881889763779528
          },
          {
            "duration": 0.13636350000000164,
            "durationTicks": 96,
            "midi": 49,
            "name": "C#3",
            "ticks": 81792,
            "time": 116.181702,
            "velocity": 0.4881889763779528
          },
          {
            "duration": 0.13636350000000164,
            "durationTicks": 96,
            "midi": 61,
            "name": "C#4",
            "ticks": 81792,
            "time": 116.181702,
            "velocity": 0.4881889763779528
          },
          {
            "duration": 0.13636350000000164,
            "durationTicks": 96,
            "midi": 49,
            "name": "C#3",
            "ticks": 81792,
            "time": 116.181702,
            "velocity": 0.4881889763779528
          },
          {
            "duration": 0.13636350000000164,
            "durationTicks": 96,
            "midi": 49,
            "name": "C#3",
            "ticks": 81792,
            "time": 116.181702,
            "velocity": 0.4881889763779528
          },
          {
            "duration": 0.13636350000000164,
            "durationTicks": 96,
            "midi": 61,
            "name": "C#4",
            "ticks": 81792,
            "time": 116.181702,
            "velocity": 0.4881889763779528
          },
          {
            "duration": 0.13636350000000164,
            "durationTicks": 96,
            "midi": 61,
            "name": "C#4",
            "ticks": 81792,
            "time": 116.181702,
            "velocity": 0.4881889763779528
          },
          {
            "duration": 0.13636350000000164,
            "durationTicks": 96,
            "midi": 61,
            "name": "C#4",
            "ticks": 81792,
            "time": 116.181702,
            "velocity": 0.4881889763779528
          },
          {
            "duration": 0.13636350000000164,
            "durationTicks": 96,
            "midi": 61,
            "name": "C#4",
            "ticks": 81888,
            "time": 116.3180655,
            "velocity": 0.4881889763779528
          },
          {
            "duration": 0.13636350000000164,
            "durationTicks": 96,
            "midi": 49,
            "name": "C#3",
            "ticks": 81888,
            "time": 116.3180655,
            "velocity": 0.4881889763779528
          },
          {
            "duration": 0.13636350000000164,
            "durationTicks": 96,
            "midi": 49,
            "name": "C#3",
            "ticks": 81888,
            "time": 116.3180655,
            "velocity": 0.4881889763779528
          },
          {
            "duration": 0.13636350000000164,
            "durationTicks": 96,
            "midi": 61,
            "name": "C#4",
            "ticks": 81888,
            "time": 116.3180655,
            "velocity": 0.4881889763779528
          },
          {
            "duration": 0.13636350000000164,
            "durationTicks": 96,
            "midi": 49,
            "name": "C#3",
            "ticks": 81888,
            "time": 116.3180655,
            "velocity": 0.4881889763779528
          },
          {
            "duration": 0.13636350000000164,
            "durationTicks": 96,
            "midi": 49,
            "name": "C#3",
            "ticks": 81888,
            "time": 116.3180655,
            "velocity": 0.4881889763779528
          },
          {
            "duration": 0.13636350000000164,
            "durationTicks": 96,
            "midi": 61,
            "name": "C#4",
            "ticks": 81888,
            "time": 116.3180655,
            "velocity": 0.4881889763779528
          },
          {
            "duration": 0.13636350000000164,
            "durationTicks": 96,
            "midi": 61,
            "name": "C#4",
            "ticks": 81888,
            "time": 116.3180655,
            "velocity": 0.4881889763779528
          },
          {
            "duration": 0.13636350000000164,
            "durationTicks": 96,
            "midi": 49,
            "name": "C#3",
            "ticks": 81888,
            "time": 116.3180655,
            "velocity": 0.4881889763779528
          },
          {
            "duration": 0.13636350000000164,
            "durationTicks": 96,
            "midi": 61,
            "name": "C#4",
            "ticks": 81888,
            "time": 116.3180655,
            "velocity": 0.4881889763779528
          },
          {
            "duration": 0.13636350000000164,
            "durationTicks": 96,
            "midi": 61,
            "name": "C#4",
            "ticks": 81888,
            "time": 116.3180655,
            "velocity": 0.4881889763779528
          },
          {
            "duration": 0.13636350000000164,
            "durationTicks": 96,
            "midi": 49,
            "name": "C#3",
            "ticks": 81888,
            "time": 116.3180655,
            "velocity": 0.4881889763779528
          },
          {
            "duration": 0.27272699999998906,
            "durationTicks": 192,
            "midi": 49,
            "name": "C#3",
            "ticks": 81984,
            "time": 116.454429,
            "velocity": 0.4881889763779528
          },
          {
            "duration": 0.27272699999998906,
            "durationTicks": 192,
            "midi": 61,
            "name": "C#4",
            "ticks": 81984,
            "time": 116.454429,
            "velocity": 0.4881889763779528
          },
          {
            "duration": 0.27272699999998906,
            "durationTicks": 192,
            "midi": 61,
            "name": "C#4",
            "ticks": 81984,
            "time": 116.454429,
            "velocity": 0.4881889763779528
          },
          {
            "duration": 0.27272699999998906,
            "durationTicks": 192,
            "midi": 61,
            "name": "C#4",
            "ticks": 81984,
            "time": 116.454429,
            "velocity": 0.4881889763779528
          },
          {
            "duration": 0.27272699999998906,
            "durationTicks": 192,
            "midi": 49,
            "name": "C#3",
            "ticks": 81984,
            "time": 116.454429,
            "velocity": 0.4881889763779528
          },
          {
            "duration": 0.27272699999998906,
            "durationTicks": 192,
            "midi": 61,
            "name": "C#4",
            "ticks": 81984,
            "time": 116.454429,
            "velocity": 0.4881889763779528
          },
          {
            "duration": 0.27272699999998906,
            "durationTicks": 192,
            "midi": 49,
            "name": "C#3",
            "ticks": 81984,
            "time": 116.454429,
            "velocity": 0.4881889763779528
          },
          {
            "duration": 0.27272699999998906,
            "durationTicks": 192,
            "midi": 61,
            "name": "C#4",
            "ticks": 81984,
            "time": 116.454429,
            "velocity": 0.4881889763779528
          },
          {
            "duration": 0.27272699999998906,
            "durationTicks": 192,
            "midi": 61,
            "name": "C#4",
            "ticks": 81984,
            "time": 116.454429,
            "velocity": 0.4881889763779528
          },
          {
            "duration": 0.27272699999998906,
            "durationTicks": 192,
            "midi": 49,
            "name": "C#3",
            "ticks": 81984,
            "time": 116.454429,
            "velocity": 0.4881889763779528
          },
          {
            "duration": 0.27272699999998906,
            "durationTicks": 192,
            "midi": 49,
            "name": "C#3",
            "ticks": 81984,
            "time": 116.454429,
            "velocity": 0.4881889763779528
          },
          {
            "duration": 0.27272699999998906,
            "durationTicks": 192,
            "midi": 49,
            "name": "C#3",
            "ticks": 81984,
            "time": 116.454429,
            "velocity": 0.4881889763779528
          },
          {
            "duration": 0.5454540000000065,
            "durationTicks": 384,
            "midi": 87,
            "name": "D#6",
            "ticks": 82176,
            "time": 116.727156,
            "velocity": 0.4881889763779528
          },
          {
            "duration": 0.13636350000000164,
            "durationTicks": 96,
            "midi": 61,
            "name": "C#4",
            "ticks": 82176,
            "time": 116.727156,
            "velocity": 0.4881889763779528
          },
          {
            "duration": 0.5454540000000065,
            "durationTicks": 384,
            "midi": 99,
            "name": "D#7",
            "ticks": 82176,
            "time": 116.727156,
            "velocity": 0.4881889763779528
          },
          {
            "duration": 0.13636350000000164,
            "durationTicks": 96,
            "midi": 49,
            "name": "C#3",
            "ticks": 82176,
            "time": 116.727156,
            "velocity": 0.4881889763779528
          },
          {
            "duration": 0.5454540000000065,
            "durationTicks": 384,
            "midi": 99,
            "name": "D#7",
            "ticks": 82176,
            "time": 116.727156,
            "velocity": 0.4881889763779528
          },
          {
            "duration": 0.5454540000000065,
            "durationTicks": 384,
            "midi": 87,
            "name": "D#6",
            "ticks": 82176,
            "time": 116.727156,
            "velocity": 0.4881889763779528
          },
          {
            "duration": 0.5454540000000065,
            "durationTicks": 384,
            "midi": 99,
            "name": "D#7",
            "ticks": 82176,
            "time": 116.727156,
            "velocity": 0.4881889763779528
          },
          {
            "duration": 0.13636350000000164,
            "durationTicks": 96,
            "midi": 61,
            "name": "C#4",
            "ticks": 82176,
            "time": 116.727156,
            "velocity": 0.4881889763779528
          },
          {
            "duration": 0.5454540000000065,
            "durationTicks": 384,
            "midi": 87,
            "name": "D#6",
            "ticks": 82176,
            "time": 116.727156,
            "velocity": 0.4881889763779528
          },
          {
            "duration": 0.5454540000000065,
            "durationTicks": 384,
            "midi": 99,
            "name": "D#7",
            "ticks": 82176,
            "time": 116.727156,
            "velocity": 0.4881889763779528
          },
          {
            "duration": 0.13636350000000164,
            "durationTicks": 96,
            "midi": 61,
            "name": "C#4",
            "ticks": 82176,
            "time": 116.727156,
            "velocity": 0.4881889763779528
          },
          {
            "duration": 0.5454540000000065,
            "durationTicks": 384,
            "midi": 87,
            "name": "D#6",
            "ticks": 82176,
            "time": 116.727156,
            "velocity": 0.4881889763779528
          },
          {
            "duration": 0.13636350000000164,
            "durationTicks": 96,
            "midi": 49,
            "name": "C#3",
            "ticks": 82176,
            "time": 116.727156,
            "velocity": 0.4881889763779528
          },
          {
            "duration": 0.13636350000000164,
            "durationTicks": 96,
            "midi": 61,
            "name": "C#4",
            "ticks": 82176,
            "time": 116.727156,
            "velocity": 0.4881889763779528
          },
          {
            "duration": 0.13636350000000164,
            "durationTicks": 96,
            "midi": 49,
            "name": "C#3",
            "ticks": 82176,
            "time": 116.727156,
            "velocity": 0.4881889763779528
          },
          {
            "duration": 0.13636350000000164,
            "durationTicks": 96,
            "midi": 49,
            "name": "C#3",
            "ticks": 82176,
            "time": 116.727156,
            "velocity": 0.4881889763779528
          },
          {
            "duration": 0.13636350000000164,
            "durationTicks": 96,
            "midi": 61,
            "name": "C#4",
            "ticks": 82176,
            "time": 116.727156,
            "velocity": 0.4881889763779528
          },
          {
            "duration": 0.13636350000000164,
            "durationTicks": 96,
            "midi": 61,
            "name": "C#4",
            "ticks": 82176,
            "time": 116.727156,
            "velocity": 0.4881889763779528
          },
          {
            "duration": 0.5454540000000065,
            "durationTicks": 384,
            "midi": 99,
            "name": "D#7",
            "ticks": 82176,
            "time": 116.727156,
            "velocity": 0.4881889763779528
          },
          {
            "duration": 0.5454540000000065,
            "durationTicks": 384,
            "midi": 87,
            "name": "D#6",
            "ticks": 82176,
            "time": 116.727156,
            "velocity": 0.4881889763779528
          },
          {
            "duration": 0.5454540000000065,
            "durationTicks": 384,
            "midi": 87,
            "name": "D#6",
            "ticks": 82176,
            "time": 116.727156,
            "velocity": 0.4881889763779528
          },
          {
            "duration": 0.5454540000000065,
            "durationTicks": 384,
            "midi": 99,
            "name": "D#7",
            "ticks": 82176,
            "time": 116.727156,
            "velocity": 0.4881889763779528
          },
          {
            "duration": 0.13636350000000164,
            "durationTicks": 96,
            "midi": 49,
            "name": "C#3",
            "ticks": 82176,
            "time": 116.727156,
            "velocity": 0.4881889763779528
          },
          {
            "duration": 0.13636350000000164,
            "durationTicks": 96,
            "midi": 49,
            "name": "C#3",
            "ticks": 82176,
            "time": 116.727156,
            "velocity": 0.4881889763779528
          },
          {
            "duration": 0.13636350000000164,
            "durationTicks": 96,
            "midi": 52,
            "name": "E3",
            "ticks": 82272,
            "time": 116.8635195,
            "velocity": 0.4881889763779528
          },
          {
            "duration": 0.13636350000000164,
            "durationTicks": 96,
            "midi": 52,
            "name": "E3",
            "ticks": 82272,
            "time": 116.8635195,
            "velocity": 0.4881889763779528
          },
          {
            "duration": 0.13636350000000164,
            "durationTicks": 96,
            "midi": 64,
            "name": "E4",
            "ticks": 82272,
            "time": 116.8635195,
            "velocity": 0.4881889763779528
          },
          {
            "duration": 0.13636350000000164,
            "durationTicks": 96,
            "midi": 64,
            "name": "E4",
            "ticks": 82272,
            "time": 116.8635195,
            "velocity": 0.4881889763779528
          },
          {
            "duration": 0.13636350000000164,
            "durationTicks": 96,
            "midi": 64,
            "name": "E4",
            "ticks": 82272,
            "time": 116.8635195,
            "velocity": 0.4881889763779528
          },
          {
            "duration": 0.13636350000000164,
            "durationTicks": 96,
            "midi": 64,
            "name": "E4",
            "ticks": 82272,
            "time": 116.8635195,
            "velocity": 0.4881889763779528
          },
          {
            "duration": 0.13636350000000164,
            "durationTicks": 96,
            "midi": 52,
            "name": "E3",
            "ticks": 82272,
            "time": 116.8635195,
            "velocity": 0.4881889763779528
          },
          {
            "duration": 0.13636350000000164,
            "durationTicks": 96,
            "midi": 64,
            "name": "E4",
            "ticks": 82272,
            "time": 116.8635195,
            "velocity": 0.4881889763779528
          },
          {
            "duration": 0.13636350000000164,
            "durationTicks": 96,
            "midi": 52,
            "name": "E3",
            "ticks": 82272,
            "time": 116.8635195,
            "velocity": 0.4881889763779528
          },
          {
            "duration": 0.13636350000000164,
            "durationTicks": 96,
            "midi": 52,
            "name": "E3",
            "ticks": 82272,
            "time": 116.8635195,
            "velocity": 0.4881889763779528
          },
          {
            "duration": 0.13636350000000164,
            "durationTicks": 96,
            "midi": 64,
            "name": "E4",
            "ticks": 82272,
            "time": 116.8635195,
            "velocity": 0.4881889763779528
          },
          {
            "duration": 0.13636350000000164,
            "durationTicks": 96,
            "midi": 52,
            "name": "E3",
            "ticks": 82272,
            "time": 116.8635195,
            "velocity": 0.4881889763779528
          },
          {
            "duration": 0.2727270000000033,
            "durationTicks": 192,
            "midi": 64,
            "name": "E4",
            "ticks": 82368,
            "time": 116.999883,
            "velocity": 0.4881889763779528
          },
          {
            "duration": 0.2727270000000033,
            "durationTicks": 192,
            "midi": 52,
            "name": "E3",
            "ticks": 82368,
            "time": 116.999883,
            "velocity": 0.4881889763779528
          },
          {
            "duration": 0.2727270000000033,
            "durationTicks": 192,
            "midi": 52,
            "name": "E3",
            "ticks": 82368,
            "time": 116.999883,
            "velocity": 0.4881889763779528
          },
          {
            "duration": 0.2727270000000033,
            "durationTicks": 192,
            "midi": 52,
            "name": "E3",
            "ticks": 82368,
            "time": 116.999883,
            "velocity": 0.4881889763779528
          },
          {
            "duration": 0.2727270000000033,
            "durationTicks": 192,
            "midi": 64,
            "name": "E4",
            "ticks": 82368,
            "time": 116.999883,
            "velocity": 0.4881889763779528
          },
          {
            "duration": 0.2727270000000033,
            "durationTicks": 192,
            "midi": 64,
            "name": "E4",
            "ticks": 82368,
            "time": 116.999883,
            "velocity": 0.4881889763779528
          },
          {
            "duration": 0.2727270000000033,
            "durationTicks": 192,
            "midi": 64,
            "name": "E4",
            "ticks": 82368,
            "time": 116.999883,
            "velocity": 0.4881889763779528
          },
          {
            "duration": 0.2727270000000033,
            "durationTicks": 192,
            "midi": 52,
            "name": "E3",
            "ticks": 82368,
            "time": 116.999883,
            "velocity": 0.4881889763779528
          },
          {
            "duration": 0.2727270000000033,
            "durationTicks": 192,
            "midi": 52,
            "name": "E3",
            "ticks": 82368,
            "time": 116.999883,
            "velocity": 0.4881889763779528
          },
          {
            "duration": 0.2727270000000033,
            "durationTicks": 192,
            "midi": 64,
            "name": "E4",
            "ticks": 82368,
            "time": 116.999883,
            "velocity": 0.4881889763779528
          },
          {
            "duration": 0.2727270000000033,
            "durationTicks": 192,
            "midi": 52,
            "name": "E3",
            "ticks": 82368,
            "time": 116.999883,
            "velocity": 0.4881889763779528
          },
          {
            "duration": 0.2727270000000033,
            "durationTicks": 192,
            "midi": 64,
            "name": "E4",
            "ticks": 82368,
            "time": 116.999883,
            "velocity": 0.4881889763779528
          },
          {
            "duration": 0.5454539999999923,
            "durationTicks": 384,
            "midi": 97,
            "name": "C#7",
            "ticks": 82560,
            "time": 117.27261,
            "velocity": 0.4881889763779528
          },
          {
            "duration": 0.5454539999999923,
            "durationTicks": 384,
            "midi": 85,
            "name": "C#6",
            "ticks": 82560,
            "time": 117.27261,
            "velocity": 0.4881889763779528
          },
          {
            "duration": 0.2727270000000033,
            "durationTicks": 192,
            "midi": 56,
            "name": "G#3",
            "ticks": 82560,
            "time": 117.27261,
            "velocity": 0.4881889763779528
          },
          {
            "duration": 0.5454539999999923,
            "durationTicks": 384,
            "midi": 97,
            "name": "C#7",
            "ticks": 82560,
            "time": 117.27261,
            "velocity": 0.4881889763779528
          },
          {
            "duration": 0.2727270000000033,
            "durationTicks": 192,
            "midi": 68,
            "name": "G#4",
            "ticks": 82560,
            "time": 117.27261,
            "velocity": 0.4881889763779528
          },
          {
            "duration": 0.2727270000000033,
            "durationTicks": 192,
            "midi": 68,
            "name": "G#4",
            "ticks": 82560,
            "time": 117.27261,
            "velocity": 0.4881889763779528
          },
          {
            "duration": 0.2727270000000033,
            "durationTicks": 192,
            "midi": 56,
            "name": "G#3",
            "ticks": 82560,
            "time": 117.27261,
            "velocity": 0.4881889763779528
          },
          {
            "duration": 0.5454539999999923,
            "durationTicks": 384,
            "midi": 85,
            "name": "C#6",
            "ticks": 82560,
            "time": 117.27261,
            "velocity": 0.4881889763779528
          },
          {
            "duration": 0.2727270000000033,
            "durationTicks": 192,
            "midi": 56,
            "name": "G#3",
            "ticks": 82560,
            "time": 117.27261,
            "velocity": 0.4881889763779528
          },
          {
            "duration": 0.2727270000000033,
            "durationTicks": 192,
            "midi": 56,
            "name": "G#3",
            "ticks": 82560,
            "time": 117.27261,
            "velocity": 0.4881889763779528
          },
          {
            "duration": 0.5454539999999923,
            "durationTicks": 384,
            "midi": 97,
            "name": "C#7",
            "ticks": 82560,
            "time": 117.27261,
            "velocity": 0.4881889763779528
          },
          {
            "duration": 0.2727270000000033,
            "durationTicks": 192,
            "midi": 68,
            "name": "G#4",
            "ticks": 82560,
            "time": 117.27261,
            "velocity": 0.4881889763779528
          },
          {
            "duration": 0.2727270000000033,
            "durationTicks": 192,
            "midi": 56,
            "name": "G#3",
            "ticks": 82560,
            "time": 117.27261,
            "velocity": 0.4881889763779528
          },
          {
            "duration": 0.5454539999999923,
            "durationTicks": 384,
            "midi": 85,
            "name": "C#6",
            "ticks": 82560,
            "time": 117.27261,
            "velocity": 0.4881889763779528
          },
          {
            "duration": 0.2727270000000033,
            "durationTicks": 192,
            "midi": 68,
            "name": "G#4",
            "ticks": 82560,
            "time": 117.27261,
            "velocity": 0.4881889763779528
          },
          {
            "duration": 0.5454539999999923,
            "durationTicks": 384,
            "midi": 97,
            "name": "C#7",
            "ticks": 82560,
            "time": 117.27261,
            "velocity": 0.4881889763779528
          },
          {
            "duration": 0.2727270000000033,
            "durationTicks": 192,
            "midi": 56,
            "name": "G#3",
            "ticks": 82560,
            "time": 117.27261,
            "velocity": 0.4881889763779528
          },
          {
            "duration": 0.5454539999999923,
            "durationTicks": 384,
            "midi": 85,
            "name": "C#6",
            "ticks": 82560,
            "time": 117.27261,
            "velocity": 0.4881889763779528
          },
          {
            "duration": 0.5454539999999923,
            "durationTicks": 384,
            "midi": 97,
            "name": "C#7",
            "ticks": 82560,
            "time": 117.27261,
            "velocity": 0.4881889763779528
          },
          {
            "duration": 0.5454539999999923,
            "durationTicks": 384,
            "midi": 97,
            "name": "C#7",
            "ticks": 82560,
            "time": 117.27261,
            "velocity": 0.4881889763779528
          },
          {
            "duration": 0.5454539999999923,
            "durationTicks": 384,
            "midi": 85,
            "name": "C#6",
            "ticks": 82560,
            "time": 117.27261,
            "velocity": 0.4881889763779528
          },
          {
            "duration": 0.2727270000000033,
            "durationTicks": 192,
            "midi": 68,
            "name": "G#4",
            "ticks": 82560,
            "time": 117.27261,
            "velocity": 0.4881889763779528
          },
          {
            "duration": 0.5454539999999923,
            "durationTicks": 384,
            "midi": 85,
            "name": "C#6",
            "ticks": 82560,
            "time": 117.27261,
            "velocity": 0.4881889763779528
          },
          {
            "duration": 0.2727270000000033,
            "durationTicks": 192,
            "midi": 68,
            "name": "G#4",
            "ticks": 82560,
            "time": 117.27261,
            "velocity": 0.4881889763779528
          },
          {
            "duration": 0.27272699999998906,
            "durationTicks": 192,
            "midi": 47,
            "name": "B2",
            "ticks": 82752,
            "time": 117.545337,
            "velocity": 0.4881889763779528
          },
          {
            "duration": 0.27272699999998906,
            "durationTicks": 192,
            "midi": 47,
            "name": "B2",
            "ticks": 82752,
            "time": 117.545337,
            "velocity": 0.4881889763779528
          },
          {
            "duration": 0.27272699999998906,
            "durationTicks": 192,
            "midi": 59,
            "name": "B3",
            "ticks": 82752,
            "time": 117.545337,
            "velocity": 0.4881889763779528
          },
          {
            "duration": 0.27272699999998906,
            "durationTicks": 192,
            "midi": 59,
            "name": "B3",
            "ticks": 82752,
            "time": 117.545337,
            "velocity": 0.4881889763779528
          },
          {
            "duration": 0.27272699999998906,
            "durationTicks": 192,
            "midi": 59,
            "name": "B3",
            "ticks": 82752,
            "time": 117.545337,
            "velocity": 0.4881889763779528
          },
          {
            "duration": 0.27272699999998906,
            "durationTicks": 192,
            "midi": 59,
            "name": "B3",
            "ticks": 82752,
            "time": 117.545337,
            "velocity": 0.4881889763779528
          },
          {
            "duration": 0.27272699999998906,
            "durationTicks": 192,
            "midi": 47,
            "name": "B2",
            "ticks": 82752,
            "time": 117.545337,
            "velocity": 0.4881889763779528
          },
          {
            "duration": 0.27272699999998906,
            "durationTicks": 192,
            "midi": 47,
            "name": "B2",
            "ticks": 82752,
            "time": 117.545337,
            "velocity": 0.4881889763779528
          },
          {
            "duration": 0.27272699999998906,
            "durationTicks": 192,
            "midi": 59,
            "name": "B3",
            "ticks": 82752,
            "time": 117.545337,
            "velocity": 0.4881889763779528
          },
          {
            "duration": 0.27272699999998906,
            "durationTicks": 192,
            "midi": 59,
            "name": "B3",
            "ticks": 82752,
            "time": 117.545337,
            "velocity": 0.4881889763779528
          },
          {
            "duration": 0.27272699999998906,
            "durationTicks": 192,
            "midi": 47,
            "name": "B2",
            "ticks": 82752,
            "time": 117.545337,
            "velocity": 0.4881889763779528
          },
          {
            "duration": 0.27272699999998906,
            "durationTicks": 192,
            "midi": 47,
            "name": "B2",
            "ticks": 82752,
            "time": 117.545337,
            "velocity": 0.4881889763779528
          },
          {
            "duration": 0.13636350000000164,
            "durationTicks": 96,
            "midi": 45,
            "name": "A2",
            "ticks": 82944,
            "time": 117.81806399999999,
            "velocity": 0.4881889763779528
          },
          {
            "duration": 1.090908000000013,
            "durationTicks": 768,
            "midi": 88,
            "name": "E6",
            "ticks": 82944,
            "time": 117.81806399999999,
            "velocity": 0.4881889763779528
          },
          {
            "duration": 0.13636350000000164,
            "durationTicks": 96,
            "midi": 57,
            "name": "A3",
            "ticks": 82944,
            "time": 117.81806399999999,
            "velocity": 0.4881889763779528
          },
          {
            "duration": 1.090908000000013,
            "durationTicks": 768,
            "midi": 88,
            "name": "E6",
            "ticks": 82944,
            "time": 117.81806399999999,
            "velocity": 0.4881889763779528
          },
          {
            "duration": 1.090908000000013,
            "durationTicks": 768,
            "midi": 97,
            "name": "C#7",
            "ticks": 82944,
            "time": 117.81806399999999,
            "velocity": 0.4881889763779528
          },
          {
            "duration": 0.13636350000000164,
            "durationTicks": 96,
            "midi": 45,
            "name": "A2",
            "ticks": 82944,
            "time": 117.81806399999999,
            "velocity": 0.4881889763779528
          },
          {
            "duration": 1.090908000000013,
            "durationTicks": 768,
            "midi": 100,
            "name": "E7",
            "ticks": 82944,
            "time": 117.81806399999999,
            "velocity": 0.4881889763779528
          },
          {
            "duration": 1.090908000000013,
            "durationTicks": 768,
            "midi": 97,
            "name": "C#7",
            "ticks": 82944,
            "time": 117.81806399999999,
            "velocity": 0.4881889763779528
          },
          {
            "duration": 1.090908000000013,
            "durationTicks": 768,
            "midi": 93,
            "name": "A6",
            "ticks": 82944,
            "time": 117.81806399999999,
            "velocity": 0.4881889763779528
          },
          {
            "duration": 0.13636350000000164,
            "durationTicks": 96,
            "midi": 57,
            "name": "A3",
            "ticks": 82944,
            "time": 117.81806399999999,
            "velocity": 0.4881889763779528
          },
          {
            "duration": 1.090908000000013,
            "durationTicks": 768,
            "midi": 97,
            "name": "C#7",
            "ticks": 82944,
            "time": 117.81806399999999,
            "velocity": 0.4881889763779528
          },
          {
            "duration": 0.13636350000000164,
            "durationTicks": 96,
            "midi": 45,
            "name": "A2",
            "ticks": 82944,
            "time": 117.81806399999999,
            "velocity": 0.4881889763779528
          },
          {
            "duration": 0.13636350000000164,
            "durationTicks": 96,
            "midi": 57,
            "name": "A3",
            "ticks": 82944,
            "time": 117.81806399999999,
            "velocity": 0.4881889763779528
          },
          {
            "duration": 0.13636350000000164,
            "durationTicks": 96,
            "midi": 57,
            "name": "A3",
            "ticks": 82944,
            "time": 117.81806399999999,
            "velocity": 0.4881889763779528
          },
          {
            "duration": 1.090908000000013,
            "durationTicks": 768,
            "midi": 88,
            "name": "E6",
            "ticks": 82944,
            "time": 117.81806399999999,
            "velocity": 0.4881889763779528
          },
          {
            "duration": 1.090908000000013,
            "durationTicks": 768,
            "midi": 93,
            "name": "A6",
            "ticks": 82944,
            "time": 117.81806399999999,
            "velocity": 0.4881889763779528
          },
          {
            "duration": 1.090908000000013,
            "durationTicks": 768,
            "midi": 93,
            "name": "A6",
            "ticks": 82944,
            "time": 117.81806399999999,
            "velocity": 0.4881889763779528
          },
          {
            "duration": 1.090908000000013,
            "durationTicks": 768,
            "midi": 93,
            "name": "A6",
            "ticks": 82944,
            "time": 117.81806399999999,
            "velocity": 0.4881889763779528
          },
          {
            "duration": 0.13636350000000164,
            "durationTicks": 96,
            "midi": 45,
            "name": "A2",
            "ticks": 82944,
            "time": 117.81806399999999,
            "velocity": 0.4881889763779528
          },
          {
            "duration": 1.090908000000013,
            "durationTicks": 768,
            "midi": 88,
            "name": "E6",
            "ticks": 82944,
            "time": 117.81806399999999,
            "velocity": 0.4881889763779528
          },
          {
            "duration": 1.090908000000013,
            "durationTicks": 768,
            "midi": 93,
            "name": "A6",
            "ticks": 82944,
            "time": 117.81806399999999,
            "velocity": 0.4881889763779528
          },
          {
            "duration": 1.090908000000013,
            "durationTicks": 768,
            "midi": 100,
            "name": "E7",
            "ticks": 82944,
            "time": 117.81806399999999,
            "velocity": 0.4881889763779528
          },
          {
            "duration": 0.13636350000000164,
            "durationTicks": 96,
            "midi": 57,
            "name": "A3",
            "ticks": 82944,
            "time": 117.81806399999999,
            "velocity": 0.4881889763779528
          },
          {
            "duration": 1.090908000000013,
            "durationTicks": 768,
            "midi": 97,
            "name": "C#7",
            "ticks": 82944,
            "time": 117.81806399999999,
            "velocity": 0.4881889763779528
          },
          {
            "duration": 1.090908000000013,
            "durationTicks": 768,
            "midi": 93,
            "name": "A6",
            "ticks": 82944,
            "time": 117.81806399999999,
            "velocity": 0.4881889763779528
          },
          {
            "duration": 0.13636350000000164,
            "durationTicks": 96,
            "midi": 45,
            "name": "A2",
            "ticks": 82944,
            "time": 117.81806399999999,
            "velocity": 0.4881889763779528
          },
          {
            "duration": 1.090908000000013,
            "durationTicks": 768,
            "midi": 97,
            "name": "C#7",
            "ticks": 82944,
            "time": 117.81806399999999,
            "velocity": 0.4881889763779528
          },
          {
            "duration": 1.090908000000013,
            "durationTicks": 768,
            "midi": 97,
            "name": "C#7",
            "ticks": 82944,
            "time": 117.81806399999999,
            "velocity": 0.4881889763779528
          },
          {
            "duration": 1.090908000000013,
            "durationTicks": 768,
            "midi": 88,
            "name": "E6",
            "ticks": 82944,
            "time": 117.81806399999999,
            "velocity": 0.4881889763779528
          },
          {
            "duration": 0.13636350000000164,
            "durationTicks": 96,
            "midi": 45,
            "name": "A2",
            "ticks": 82944,
            "time": 117.81806399999999,
            "velocity": 0.4881889763779528
          },
          {
            "duration": 1.090908000000013,
            "durationTicks": 768,
            "midi": 88,
            "name": "E6",
            "ticks": 82944,
            "time": 117.81806399999999,
            "velocity": 0.4881889763779528
          },
          {
            "duration": 1.090908000000013,
            "durationTicks": 768,
            "midi": 100,
            "name": "E7",
            "ticks": 82944,
            "time": 117.81806399999999,
            "velocity": 0.4881889763779528
          },
          {
            "duration": 0.13636350000000164,
            "durationTicks": 96,
            "midi": 57,
            "name": "A3",
            "ticks": 82944,
            "time": 117.81806399999999,
            "velocity": 0.4881889763779528
          },
          {
            "duration": 1.090908000000013,
            "durationTicks": 768,
            "midi": 100,
            "name": "E7",
            "ticks": 82944,
            "time": 117.81806399999999,
            "velocity": 0.4881889763779528
          },
          {
            "duration": 1.090908000000013,
            "durationTicks": 768,
            "midi": 100,
            "name": "E7",
            "ticks": 82944,
            "time": 117.81806399999999,
            "velocity": 0.4881889763779528
          },
          {
            "duration": 1.090908000000013,
            "durationTicks": 768,
            "midi": 100,
            "name": "E7",
            "ticks": 82944,
            "time": 117.81806399999999,
            "velocity": 0.4881889763779528
          },
          {
            "duration": 0.13636350000000164,
            "durationTicks": 96,
            "midi": 57,
            "name": "A3",
            "ticks": 83040,
            "time": 117.9544275,
            "velocity": 0.4881889763779528
          },
          {
            "duration": 0.13636350000000164,
            "durationTicks": 96,
            "midi": 57,
            "name": "A3",
            "ticks": 83040,
            "time": 117.9544275,
            "velocity": 0.4881889763779528
          },
          {
            "duration": 0.13636350000000164,
            "durationTicks": 96,
            "midi": 45,
            "name": "A2",
            "ticks": 83040,
            "time": 117.9544275,
            "velocity": 0.4881889763779528
          },
          {
            "duration": 0.13636350000000164,
            "durationTicks": 96,
            "midi": 57,
            "name": "A3",
            "ticks": 83040,
            "time": 117.9544275,
            "velocity": 0.4881889763779528
          },
          {
            "duration": 0.13636350000000164,
            "durationTicks": 96,
            "midi": 45,
            "name": "A2",
            "ticks": 83040,
            "time": 117.9544275,
            "velocity": 0.4881889763779528
          },
          {
            "duration": 0.13636350000000164,
            "durationTicks": 96,
            "midi": 45,
            "name": "A2",
            "ticks": 83040,
            "time": 117.9544275,
            "velocity": 0.4881889763779528
          },
          {
            "duration": 0.13636350000000164,
            "durationTicks": 96,
            "midi": 45,
            "name": "A2",
            "ticks": 83040,
            "time": 117.9544275,
            "velocity": 0.4881889763779528
          },
          {
            "duration": 0.13636350000000164,
            "durationTicks": 96,
            "midi": 57,
            "name": "A3",
            "ticks": 83040,
            "time": 117.9544275,
            "velocity": 0.4881889763779528
          },
          {
            "duration": 0.13636350000000164,
            "durationTicks": 96,
            "midi": 45,
            "name": "A2",
            "ticks": 83040,
            "time": 117.9544275,
            "velocity": 0.4881889763779528
          },
          {
            "duration": 0.13636350000000164,
            "durationTicks": 96,
            "midi": 45,
            "name": "A2",
            "ticks": 83040,
            "time": 117.9544275,
            "velocity": 0.4881889763779528
          },
          {
            "duration": 0.13636350000000164,
            "durationTicks": 96,
            "midi": 57,
            "name": "A3",
            "ticks": 83040,
            "time": 117.9544275,
            "velocity": 0.4881889763779528
          },
          {
            "duration": 0.13636350000000164,
            "durationTicks": 96,
            "midi": 57,
            "name": "A3",
            "ticks": 83040,
            "time": 117.9544275,
            "velocity": 0.4881889763779528
          },
          {
            "duration": 0.2727270000000033,
            "durationTicks": 192,
            "midi": 57,
            "name": "A3",
            "ticks": 83136,
            "time": 118.090791,
            "velocity": 0.4881889763779528
          },
          {
            "duration": 0.2727270000000033,
            "durationTicks": 192,
            "midi": 45,
            "name": "A2",
            "ticks": 83136,
            "time": 118.090791,
            "velocity": 0.4881889763779528
          },
          {
            "duration": 0.2727270000000033,
            "durationTicks": 192,
            "midi": 57,
            "name": "A3",
            "ticks": 83136,
            "time": 118.090791,
            "velocity": 0.4881889763779528
          },
          {
            "duration": 0.2727270000000033,
            "durationTicks": 192,
            "midi": 57,
            "name": "A3",
            "ticks": 83136,
            "time": 118.090791,
            "velocity": 0.4881889763779528
          },
          {
            "duration": 0.2727270000000033,
            "durationTicks": 192,
            "midi": 45,
            "name": "A2",
            "ticks": 83136,
            "time": 118.090791,
            "velocity": 0.4881889763779528
          },
          {
            "duration": 0.2727270000000033,
            "durationTicks": 192,
            "midi": 45,
            "name": "A2",
            "ticks": 83136,
            "time": 118.090791,
            "velocity": 0.4881889763779528
          },
          {
            "duration": 0.2727270000000033,
            "durationTicks": 192,
            "midi": 45,
            "name": "A2",
            "ticks": 83136,
            "time": 118.090791,
            "velocity": 0.4881889763779528
          },
          {
            "duration": 0.2727270000000033,
            "durationTicks": 192,
            "midi": 57,
            "name": "A3",
            "ticks": 83136,
            "time": 118.090791,
            "velocity": 0.4881889763779528
          },
          {
            "duration": 0.2727270000000033,
            "durationTicks": 192,
            "midi": 57,
            "name": "A3",
            "ticks": 83136,
            "time": 118.090791,
            "velocity": 0.4881889763779528
          },
          {
            "duration": 0.2727270000000033,
            "durationTicks": 192,
            "midi": 45,
            "name": "A2",
            "ticks": 83136,
            "time": 118.090791,
            "velocity": 0.4881889763779528
          },
          {
            "duration": 0.2727270000000033,
            "durationTicks": 192,
            "midi": 57,
            "name": "A3",
            "ticks": 83136,
            "time": 118.090791,
            "velocity": 0.4881889763779528
          },
          {
            "duration": 0.2727270000000033,
            "durationTicks": 192,
            "midi": 45,
            "name": "A2",
            "ticks": 83136,
            "time": 118.090791,
            "velocity": 0.4881889763779528
          },
          {
            "duration": 0.13636350000000164,
            "durationTicks": 96,
            "midi": 45,
            "name": "A2",
            "ticks": 83328,
            "time": 118.363518,
            "velocity": 0.4881889763779528
          },
          {
            "duration": 0.13636350000000164,
            "durationTicks": 96,
            "midi": 45,
            "name": "A2",
            "ticks": 83328,
            "time": 118.363518,
            "velocity": 0.4881889763779528
          },
          {
            "duration": 0.13636350000000164,
            "durationTicks": 96,
            "midi": 57,
            "name": "A3",
            "ticks": 83328,
            "time": 118.363518,
            "velocity": 0.4881889763779528
          },
          {
            "duration": 0.13636350000000164,
            "durationTicks": 96,
            "midi": 45,
            "name": "A2",
            "ticks": 83328,
            "time": 118.363518,
            "velocity": 0.4881889763779528
          },
          {
            "duration": 0.13636350000000164,
            "durationTicks": 96,
            "midi": 45,
            "name": "A2",
            "ticks": 83328,
            "time": 118.363518,
            "velocity": 0.4881889763779528
          },
          {
            "duration": 0.13636350000000164,
            "durationTicks": 96,
            "midi": 57,
            "name": "A3",
            "ticks": 83328,
            "time": 118.363518,
            "velocity": 0.4881889763779528
          },
          {
            "duration": 0.13636350000000164,
            "durationTicks": 96,
            "midi": 45,
            "name": "A2",
            "ticks": 83328,
            "time": 118.363518,
            "velocity": 0.4881889763779528
          },
          {
            "duration": 0.13636350000000164,
            "durationTicks": 96,
            "midi": 57,
            "name": "A3",
            "ticks": 83328,
            "time": 118.363518,
            "velocity": 0.4881889763779528
          },
          {
            "duration": 0.13636350000000164,
            "durationTicks": 96,
            "midi": 57,
            "name": "A3",
            "ticks": 83328,
            "time": 118.363518,
            "velocity": 0.4881889763779528
          },
          {
            "duration": 0.13636350000000164,
            "durationTicks": 96,
            "midi": 57,
            "name": "A3",
            "ticks": 83328,
            "time": 118.363518,
            "velocity": 0.4881889763779528
          },
          {
            "duration": 0.13636350000000164,
            "durationTicks": 96,
            "midi": 45,
            "name": "A2",
            "ticks": 83328,
            "time": 118.363518,
            "velocity": 0.4881889763779528
          },
          {
            "duration": 0.13636350000000164,
            "durationTicks": 96,
            "midi": 57,
            "name": "A3",
            "ticks": 83328,
            "time": 118.363518,
            "velocity": 0.4881889763779528
          },
          {
            "duration": 0.13636350000000164,
            "durationTicks": 96,
            "midi": 57,
            "name": "A3",
            "ticks": 83424,
            "time": 118.4998815,
            "velocity": 0.4881889763779528
          },
          {
            "duration": 0.13636350000000164,
            "durationTicks": 96,
            "midi": 45,
            "name": "A2",
            "ticks": 83424,
            "time": 118.4998815,
            "velocity": 0.4881889763779528
          },
          {
            "duration": 0.13636350000000164,
            "durationTicks": 96,
            "midi": 57,
            "name": "A3",
            "ticks": 83424,
            "time": 118.4998815,
            "velocity": 0.4881889763779528
          },
          {
            "duration": 0.13636350000000164,
            "durationTicks": 96,
            "midi": 45,
            "name": "A2",
            "ticks": 83424,
            "time": 118.4998815,
            "velocity": 0.4881889763779528
          },
          {
            "duration": 0.13636350000000164,
            "durationTicks": 96,
            "midi": 45,
            "name": "A2",
            "ticks": 83424,
            "time": 118.4998815,
            "velocity": 0.4881889763779528
          },
          {
            "duration": 0.13636350000000164,
            "durationTicks": 96,
            "midi": 57,
            "name": "A3",
            "ticks": 83424,
            "time": 118.4998815,
            "velocity": 0.4881889763779528
          },
          {
            "duration": 0.13636350000000164,
            "durationTicks": 96,
            "midi": 57,
            "name": "A3",
            "ticks": 83424,
            "time": 118.4998815,
            "velocity": 0.4881889763779528
          },
          {
            "duration": 0.13636350000000164,
            "durationTicks": 96,
            "midi": 57,
            "name": "A3",
            "ticks": 83424,
            "time": 118.4998815,
            "velocity": 0.4881889763779528
          },
          {
            "duration": 0.13636350000000164,
            "durationTicks": 96,
            "midi": 45,
            "name": "A2",
            "ticks": 83424,
            "time": 118.4998815,
            "velocity": 0.4881889763779528
          },
          {
            "duration": 0.13636350000000164,
            "durationTicks": 96,
            "midi": 45,
            "name": "A2",
            "ticks": 83424,
            "time": 118.4998815,
            "velocity": 0.4881889763779528
          },
          {
            "duration": 0.13636350000000164,
            "durationTicks": 96,
            "midi": 57,
            "name": "A3",
            "ticks": 83424,
            "time": 118.4998815,
            "velocity": 0.4881889763779528
          },
          {
            "duration": 0.13636350000000164,
            "durationTicks": 96,
            "midi": 45,
            "name": "A2",
            "ticks": 83424,
            "time": 118.4998815,
            "velocity": 0.4881889763779528
          },
          {
            "duration": 0.2727270000000033,
            "durationTicks": 192,
            "midi": 57,
            "name": "A3",
            "ticks": 83520,
            "time": 118.636245,
            "velocity": 0.4881889763779528
          },
          {
            "duration": 0.2727270000000033,
            "durationTicks": 192,
            "midi": 57,
            "name": "A3",
            "ticks": 83520,
            "time": 118.636245,
            "velocity": 0.4881889763779528
          },
          {
            "duration": 0.2727270000000033,
            "durationTicks": 192,
            "midi": 45,
            "name": "A2",
            "ticks": 83520,
            "time": 118.636245,
            "velocity": 0.4881889763779528
          },
          {
            "duration": 0.2727270000000033,
            "durationTicks": 192,
            "midi": 45,
            "name": "A2",
            "ticks": 83520,
            "time": 118.636245,
            "velocity": 0.4881889763779528
          },
          {
            "duration": 0.2727270000000033,
            "durationTicks": 192,
            "midi": 57,
            "name": "A3",
            "ticks": 83520,
            "time": 118.636245,
            "velocity": 0.4881889763779528
          },
          {
            "duration": 0.2727270000000033,
            "durationTicks": 192,
            "midi": 45,
            "name": "A2",
            "ticks": 83520,
            "time": 118.636245,
            "velocity": 0.4881889763779528
          },
          {
            "duration": 0.2727270000000033,
            "durationTicks": 192,
            "midi": 57,
            "name": "A3",
            "ticks": 83520,
            "time": 118.636245,
            "velocity": 0.4881889763779528
          },
          {
            "duration": 0.2727270000000033,
            "durationTicks": 192,
            "midi": 45,
            "name": "A2",
            "ticks": 83520,
            "time": 118.636245,
            "velocity": 0.4881889763779528
          },
          {
            "duration": 0.2727270000000033,
            "durationTicks": 192,
            "midi": 45,
            "name": "A2",
            "ticks": 83520,
            "time": 118.636245,
            "velocity": 0.4881889763779528
          },
          {
            "duration": 0.2727270000000033,
            "durationTicks": 192,
            "midi": 45,
            "name": "A2",
            "ticks": 83520,
            "time": 118.636245,
            "velocity": 0.4881889763779528
          },
          {
            "duration": 0.2727270000000033,
            "durationTicks": 192,
            "midi": 57,
            "name": "A3",
            "ticks": 83520,
            "time": 118.636245,
            "velocity": 0.4881889763779528
          },
          {
            "duration": 0.2727270000000033,
            "durationTicks": 192,
            "midi": 57,
            "name": "A3",
            "ticks": 83520,
            "time": 118.636245,
            "velocity": 0.4881889763779528
          },
          {
            "duration": 0.5454539999999923,
            "durationTicks": 384,
            "midi": 87,
            "name": "D#6",
            "ticks": 83712,
            "time": 118.908972,
            "velocity": 0.4881889763779528
          },
          {
            "duration": 0.13636349999998743,
            "durationTicks": 96,
            "midi": 57,
            "name": "A3",
            "ticks": 83712,
            "time": 118.908972,
            "velocity": 0.4881889763779528
          },
          {
            "duration": 0.5454539999999923,
            "durationTicks": 384,
            "midi": 99,
            "name": "D#7",
            "ticks": 83712,
            "time": 118.908972,
            "velocity": 0.4881889763779528
          },
          {
            "duration": 0.13636349999998743,
            "durationTicks": 96,
            "midi": 57,
            "name": "A3",
            "ticks": 83712,
            "time": 118.908972,
            "velocity": 0.4881889763779528
          },
          {
            "duration": 0.13636349999998743,
            "durationTicks": 96,
            "midi": 57,
            "name": "A3",
            "ticks": 83712,
            "time": 118.908972,
            "velocity": 0.4881889763779528
          },
          {
            "duration": 0.5454539999999923,
            "durationTicks": 384,
            "midi": 87,
            "name": "D#6",
            "ticks": 83712,
            "time": 118.908972,
            "velocity": 0.4881889763779528
          },
          {
            "duration": 0.13636349999998743,
            "durationTicks": 96,
            "midi": 57,
            "name": "A3",
            "ticks": 83712,
            "time": 118.908972,
            "velocity": 0.4881889763779528
          },
          {
            "duration": 0.5454539999999923,
            "durationTicks": 384,
            "midi": 87,
            "name": "D#6",
            "ticks": 83712,
            "time": 118.908972,
            "velocity": 0.4881889763779528
          },
          {
            "duration": 0.13636349999998743,
            "durationTicks": 96,
            "midi": 45,
            "name": "A2",
            "ticks": 83712,
            "time": 118.908972,
            "velocity": 0.4881889763779528
          },
          {
            "duration": 0.13636349999998743,
            "durationTicks": 96,
            "midi": 45,
            "name": "A2",
            "ticks": 83712,
            "time": 118.908972,
            "velocity": 0.4881889763779528
          },
          {
            "duration": 0.5454539999999923,
            "durationTicks": 384,
            "midi": 87,
            "name": "D#6",
            "ticks": 83712,
            "time": 118.908972,
            "velocity": 0.4881889763779528
          },
          {
            "duration": 0.5454539999999923,
            "durationTicks": 384,
            "midi": 99,
            "name": "D#7",
            "ticks": 83712,
            "time": 118.908972,
            "velocity": 0.4881889763779528
          },
          {
            "duration": 0.5454539999999923,
            "durationTicks": 384,
            "midi": 87,
            "name": "D#6",
            "ticks": 83712,
            "time": 118.908972,
            "velocity": 0.4881889763779528
          },
          {
            "duration": 0.5454539999999923,
            "durationTicks": 384,
            "midi": 87,
            "name": "D#6",
            "ticks": 83712,
            "time": 118.908972,
            "velocity": 0.4881889763779528
          },
          {
            "duration": 0.13636349999998743,
            "durationTicks": 96,
            "midi": 45,
            "name": "A2",
            "ticks": 83712,
            "time": 118.908972,
            "velocity": 0.4881889763779528
          },
          {
            "duration": 0.13636349999998743,
            "durationTicks": 96,
            "midi": 45,
            "name": "A2",
            "ticks": 83712,
            "time": 118.908972,
            "velocity": 0.4881889763779528
          },
          {
            "duration": 0.13636349999998743,
            "durationTicks": 96,
            "midi": 57,
            "name": "A3",
            "ticks": 83712,
            "time": 118.908972,
            "velocity": 0.4881889763779528
          },
          {
            "duration": 0.5454539999999923,
            "durationTicks": 384,
            "midi": 99,
            "name": "D#7",
            "ticks": 83712,
            "time": 118.908972,
            "velocity": 0.4881889763779528
          },
          {
            "duration": 0.5454539999999923,
            "durationTicks": 384,
            "midi": 99,
            "name": "D#7",
            "ticks": 83712,
            "time": 118.908972,
            "velocity": 0.4881889763779528
          },
          {
            "duration": 0.5454539999999923,
            "durationTicks": 384,
            "midi": 99,
            "name": "D#7",
            "ticks": 83712,
            "time": 118.908972,
            "velocity": 0.4881889763779528
          },
          {
            "duration": 0.13636349999998743,
            "durationTicks": 96,
            "midi": 57,
            "name": "A3",
            "ticks": 83712,
            "time": 118.908972,
            "velocity": 0.4881889763779528
          },
          {
            "duration": 0.13636349999998743,
            "durationTicks": 96,
            "midi": 45,
            "name": "A2",
            "ticks": 83712,
            "time": 118.908972,
            "velocity": 0.4881889763779528
          },
          {
            "duration": 0.5454539999999923,
            "durationTicks": 384,
            "midi": 99,
            "name": "D#7",
            "ticks": 83712,
            "time": 118.908972,
            "velocity": 0.4881889763779528
          },
          {
            "duration": 0.13636349999998743,
            "durationTicks": 96,
            "midi": 45,
            "name": "A2",
            "ticks": 83712,
            "time": 118.908972,
            "velocity": 0.4881889763779528
          },
          {
            "duration": 0.13636350000000164,
            "durationTicks": 96,
            "midi": 61,
            "name": "C#4",
            "ticks": 83808,
            "time": 119.0453355,
            "velocity": 0.4881889763779528
          },
          {
            "duration": 0.13636350000000164,
            "durationTicks": 96,
            "midi": 49,
            "name": "C#3",
            "ticks": 83808,
            "time": 119.0453355,
            "velocity": 0.4881889763779528
          },
          {
            "duration": 0.13636350000000164,
            "durationTicks": 96,
            "midi": 49,
            "name": "C#3",
            "ticks": 83808,
            "time": 119.0453355,
            "velocity": 0.4881889763779528
          },
          {
            "duration": 0.13636350000000164,
            "durationTicks": 96,
            "midi": 61,
            "name": "C#4",
            "ticks": 83808,
            "time": 119.0453355,
            "velocity": 0.4881889763779528
          },
          {
            "duration": 0.13636350000000164,
            "durationTicks": 96,
            "midi": 49,
            "name": "C#3",
            "ticks": 83808,
            "time": 119.0453355,
            "velocity": 0.4881889763779528
          },
          {
            "duration": 0.13636350000000164,
            "durationTicks": 96,
            "midi": 61,
            "name": "C#4",
            "ticks": 83808,
            "time": 119.0453355,
            "velocity": 0.4881889763779528
          },
          {
            "duration": 0.13636350000000164,
            "durationTicks": 96,
            "midi": 61,
            "name": "C#4",
            "ticks": 83808,
            "time": 119.0453355,
            "velocity": 0.4881889763779528
          },
          {
            "duration": 0.13636350000000164,
            "durationTicks": 96,
            "midi": 49,
            "name": "C#3",
            "ticks": 83808,
            "time": 119.0453355,
            "velocity": 0.4881889763779528
          },
          {
            "duration": 0.13636350000000164,
            "durationTicks": 96,
            "midi": 61,
            "name": "C#4",
            "ticks": 83808,
            "time": 119.0453355,
            "velocity": 0.4881889763779528
          },
          {
            "duration": 0.13636350000000164,
            "durationTicks": 96,
            "midi": 61,
            "name": "C#4",
            "ticks": 83808,
            "time": 119.0453355,
            "velocity": 0.4881889763779528
          },
          {
            "duration": 0.13636350000000164,
            "durationTicks": 96,
            "midi": 49,
            "name": "C#3",
            "ticks": 83808,
            "time": 119.0453355,
            "velocity": 0.4881889763779528
          },
          {
            "duration": 0.13636350000000164,
            "durationTicks": 96,
            "midi": 49,
            "name": "C#3",
            "ticks": 83808,
            "time": 119.0453355,
            "velocity": 0.4881889763779528
          },
          {
            "duration": 0.2727270000000033,
            "durationTicks": 192,
            "midi": 49,
            "name": "C#3",
            "ticks": 83904,
            "time": 119.181699,
            "velocity": 0.4881889763779528
          },
          {
            "duration": 0.2727270000000033,
            "durationTicks": 192,
            "midi": 49,
            "name": "C#3",
            "ticks": 83904,
            "time": 119.181699,
            "velocity": 0.4881889763779528
          },
          {
            "duration": 0.2727270000000033,
            "durationTicks": 192,
            "midi": 49,
            "name": "C#3",
            "ticks": 83904,
            "time": 119.181699,
            "velocity": 0.4881889763779528
          },
          {
            "duration": 0.2727270000000033,
            "durationTicks": 192,
            "midi": 61,
            "name": "C#4",
            "ticks": 83904,
            "time": 119.181699,
            "velocity": 0.4881889763779528
          },
          {
            "duration": 0.2727270000000033,
            "durationTicks": 192,
            "midi": 61,
            "name": "C#4",
            "ticks": 83904,
            "time": 119.181699,
            "velocity": 0.4881889763779528
          },
          {
            "duration": 0.2727270000000033,
            "durationTicks": 192,
            "midi": 49,
            "name": "C#3",
            "ticks": 83904,
            "time": 119.181699,
            "velocity": 0.4881889763779528
          },
          {
            "duration": 0.2727270000000033,
            "durationTicks": 192,
            "midi": 61,
            "name": "C#4",
            "ticks": 83904,
            "time": 119.181699,
            "velocity": 0.4881889763779528
          },
          {
            "duration": 0.2727270000000033,
            "durationTicks": 192,
            "midi": 61,
            "name": "C#4",
            "ticks": 83904,
            "time": 119.181699,
            "velocity": 0.4881889763779528
          },
          {
            "duration": 0.2727270000000033,
            "durationTicks": 192,
            "midi": 49,
            "name": "C#3",
            "ticks": 83904,
            "time": 119.181699,
            "velocity": 0.4881889763779528
          },
          {
            "duration": 0.2727270000000033,
            "durationTicks": 192,
            "midi": 61,
            "name": "C#4",
            "ticks": 83904,
            "time": 119.181699,
            "velocity": 0.4881889763779528
          },
          {
            "duration": 0.2727270000000033,
            "durationTicks": 192,
            "midi": 61,
            "name": "C#4",
            "ticks": 83904,
            "time": 119.181699,
            "velocity": 0.4881889763779528
          },
          {
            "duration": 0.2727270000000033,
            "durationTicks": 192,
            "midi": 49,
            "name": "C#3",
            "ticks": 83904,
            "time": 119.181699,
            "velocity": 0.4881889763779528
          },
          {
            "duration": 0.5454540000000065,
            "durationTicks": 384,
            "midi": 85,
            "name": "C#6",
            "ticks": 84096,
            "time": 119.454426,
            "velocity": 0.4881889763779528
          },
          {
            "duration": 0.5454540000000065,
            "durationTicks": 384,
            "midi": 97,
            "name": "C#7",
            "ticks": 84096,
            "time": 119.454426,
            "velocity": 0.4881889763779528
          },
          {
            "duration": 0.5454540000000065,
            "durationTicks": 384,
            "midi": 97,
            "name": "C#7",
            "ticks": 84096,
            "time": 119.454426,
            "velocity": 0.4881889763779528
          },
          {
            "duration": 0.2727270000000033,
            "durationTicks": 192,
            "midi": 52,
            "name": "E3",
            "ticks": 84096,
            "time": 119.454426,
            "velocity": 0.4881889763779528
          },
          {
            "duration": 0.2727270000000033,
            "durationTicks": 192,
            "midi": 52,
            "name": "E3",
            "ticks": 84096,
            "time": 119.454426,
            "velocity": 0.4881889763779528
          },
          {
            "duration": 0.5454540000000065,
            "durationTicks": 384,
            "midi": 85,
            "name": "C#6",
            "ticks": 84096,
            "time": 119.454426,
            "velocity": 0.4881889763779528
          },
          {
            "duration": 0.2727270000000033,
            "durationTicks": 192,
            "midi": 64,
            "name": "E4",
            "ticks": 84096,
            "time": 119.454426,
            "velocity": 0.4881889763779528
          },
          {
            "duration": 0.2727270000000033,
            "durationTicks": 192,
            "midi": 64,
            "name": "E4",
            "ticks": 84096,
            "time": 119.454426,
            "velocity": 0.4881889763779528
          },
          {
            "duration": 0.2727270000000033,
            "durationTicks": 192,
            "midi": 64,
            "name": "E4",
            "ticks": 84096,
            "time": 119.454426,
            "velocity": 0.4881889763779528
          },
          {
            "duration": 0.5454540000000065,
            "durationTicks": 384,
            "midi": 85,
            "name": "C#6",
            "ticks": 84096,
            "time": 119.454426,
            "velocity": 0.4881889763779528
          },
          {
            "duration": 0.5454540000000065,
            "durationTicks": 384,
            "midi": 85,
            "name": "C#6",
            "ticks": 84096,
            "time": 119.454426,
            "velocity": 0.4881889763779528
          },
          {
            "duration": 0.5454540000000065,
            "durationTicks": 384,
            "midi": 97,
            "name": "C#7",
            "ticks": 84096,
            "time": 119.454426,
            "velocity": 0.4881889763779528
          },
          {
            "duration": 0.2727270000000033,
            "durationTicks": 192,
            "midi": 64,
            "name": "E4",
            "ticks": 84096,
            "time": 119.454426,
            "velocity": 0.4881889763779528
          },
          {
            "duration": 0.2727270000000033,
            "durationTicks": 192,
            "midi": 52,
            "name": "E3",
            "ticks": 84096,
            "time": 119.454426,
            "velocity": 0.4881889763779528
          },
          {
            "duration": 0.5454540000000065,
            "durationTicks": 384,
            "midi": 85,
            "name": "C#6",
            "ticks": 84096,
            "time": 119.454426,
            "velocity": 0.4881889763779528
          },
          {
            "duration": 0.2727270000000033,
            "durationTicks": 192,
            "midi": 64,
            "name": "E4",
            "ticks": 84096,
            "time": 119.454426,
            "velocity": 0.4881889763779528
          },
          {
            "duration": 0.2727270000000033,
            "durationTicks": 192,
            "midi": 52,
            "name": "E3",
            "ticks": 84096,
            "time": 119.454426,
            "velocity": 0.4881889763779528
          },
          {
            "duration": 0.5454540000000065,
            "durationTicks": 384,
            "midi": 97,
            "name": "C#7",
            "ticks": 84096,
            "time": 119.454426,
            "velocity": 0.4881889763779528
          },
          {
            "duration": 0.2727270000000033,
            "durationTicks": 192,
            "midi": 52,
            "name": "E3",
            "ticks": 84096,
            "time": 119.454426,
            "velocity": 0.4881889763779528
          },
          {
            "duration": 0.5454540000000065,
            "durationTicks": 384,
            "midi": 97,
            "name": "C#7",
            "ticks": 84096,
            "time": 119.454426,
            "velocity": 0.4881889763779528
          },
          {
            "duration": 0.2727270000000033,
            "durationTicks": 192,
            "midi": 64,
            "name": "E4",
            "ticks": 84096,
            "time": 119.454426,
            "velocity": 0.4881889763779528
          },
          {
            "duration": 0.2727270000000033,
            "durationTicks": 192,
            "midi": 52,
            "name": "E3",
            "ticks": 84096,
            "time": 119.454426,
            "velocity": 0.4881889763779528
          },
          {
            "duration": 0.5454540000000065,
            "durationTicks": 384,
            "midi": 85,
            "name": "C#6",
            "ticks": 84096,
            "time": 119.454426,
            "velocity": 0.4881889763779528
          },
          {
            "duration": 0.5454540000000065,
            "durationTicks": 384,
            "midi": 97,
            "name": "C#7",
            "ticks": 84096,
            "time": 119.454426,
            "velocity": 0.4881889763779528
          },
          {
            "duration": 0.2727270000000033,
            "durationTicks": 192,
            "midi": 54,
            "name": "F#3",
            "ticks": 84288,
            "time": 119.727153,
            "velocity": 0.4881889763779528
          },
          {
            "duration": 0.2727270000000033,
            "durationTicks": 192,
            "midi": 42,
            "name": "F#2",
            "ticks": 84288,
            "time": 119.727153,
            "velocity": 0.4881889763779528
          },
          {
            "duration": 0.2727270000000033,
            "durationTicks": 192,
            "midi": 42,
            "name": "F#2",
            "ticks": 84288,
            "time": 119.727153,
            "velocity": 0.4881889763779528
          },
          {
            "duration": 0.2727270000000033,
            "durationTicks": 192,
            "midi": 42,
            "name": "F#2",
            "ticks": 84288,
            "time": 119.727153,
            "velocity": 0.4881889763779528
          },
          {
            "duration": 0.2727270000000033,
            "durationTicks": 192,
            "midi": 54,
            "name": "F#3",
            "ticks": 84288,
            "time": 119.727153,
            "velocity": 0.4881889763779528
          },
          {
            "duration": 0.2727270000000033,
            "durationTicks": 192,
            "midi": 42,
            "name": "F#2",
            "ticks": 84288,
            "time": 119.727153,
            "velocity": 0.4881889763779528
          },
          {
            "duration": 0.2727270000000033,
            "durationTicks": 192,
            "midi": 54,
            "name": "F#3",
            "ticks": 84288,
            "time": 119.727153,
            "velocity": 0.4881889763779528
          },
          {
            "duration": 0.2727270000000033,
            "durationTicks": 192,
            "midi": 54,
            "name": "F#3",
            "ticks": 84288,
            "time": 119.727153,
            "velocity": 0.4881889763779528
          },
          {
            "duration": 0.2727270000000033,
            "durationTicks": 192,
            "midi": 54,
            "name": "F#3",
            "ticks": 84288,
            "time": 119.727153,
            "velocity": 0.4881889763779528
          },
          {
            "duration": 0.2727270000000033,
            "durationTicks": 192,
            "midi": 42,
            "name": "F#2",
            "ticks": 84288,
            "time": 119.727153,
            "velocity": 0.4881889763779528
          },
          {
            "duration": 0.2727270000000033,
            "durationTicks": 192,
            "midi": 42,
            "name": "F#2",
            "ticks": 84288,
            "time": 119.727153,
            "velocity": 0.4881889763779528
          },
          {
            "duration": 0.2727270000000033,
            "durationTicks": 192,
            "midi": 54,
            "name": "F#3",
            "ticks": 84288,
            "time": 119.727153,
            "velocity": 0.4881889763779528
          },
          {
            "duration": 1.0909079999999989,
            "durationTicks": 768,
            "midi": 88,
            "name": "E6",
            "ticks": 84480,
            "time": 119.99988,
            "velocity": 0.4881889763779528
          },
          {
            "duration": 0.13636349999998743,
            "durationTicks": 96,
            "midi": 40,
            "name": "E2",
            "ticks": 84480,
            "time": 119.99988,
            "velocity": 0.4881889763779528
          },
          {
            "duration": 1.0909079999999989,
            "durationTicks": 768,
            "midi": 95,
            "name": "B6",
            "ticks": 84480,
            "time": 119.99988,
            "velocity": 0.4881889763779528
          },
          {
            "duration": 0.13636349999998743,
            "durationTicks": 96,
            "midi": 52,
            "name": "E3",
            "ticks": 84480,
            "time": 119.99988,
            "velocity": 0.4881889763779528
          },
          {
            "duration": 1.0909079999999989,
            "durationTicks": 768,
            "midi": 100,
            "name": "E7",
            "ticks": 84480,
            "time": 119.99988,
            "velocity": 0.4881889763779528
          },
          {
            "duration": 0.13636349999998743,
            "durationTicks": 96,
            "midi": 52,
            "name": "E3",
            "ticks": 84480,
            "time": 119.99988,
            "velocity": 0.4881889763779528
          },
          {
            "duration": 1.0909079999999989,
            "durationTicks": 768,
            "midi": 95,
            "name": "B6",
            "ticks": 84480,
            "time": 119.99988,
            "velocity": 0.4881889763779528
          },
          {
            "duration": 1.0909079999999989,
            "durationTicks": 768,
            "midi": 95,
            "name": "B6",
            "ticks": 84480,
            "time": 119.99988,
            "velocity": 0.4881889763779528
          },
          {
            "duration": 1.0909079999999989,
            "durationTicks": 768,
            "midi": 88,
            "name": "E6",
            "ticks": 84480,
            "time": 119.99988,
            "velocity": 0.4881889763779528
          },
          {
            "duration": 1.0909079999999989,
            "durationTicks": 768,
            "midi": 100,
            "name": "E7",
            "ticks": 84480,
            "time": 119.99988,
            "velocity": 0.4881889763779528
          },
          {
            "duration": 1.0909079999999989,
            "durationTicks": 768,
            "midi": 100,
            "name": "E7",
            "ticks": 84480,
            "time": 119.99988,
            "velocity": 0.4881889763779528
          },
          {
            "duration": 0.13636349999998743,
            "durationTicks": 96,
            "midi": 52,
            "name": "E3",
            "ticks": 84480,
            "time": 119.99988,
            "velocity": 0.4881889763779528
          },
          {
            "duration": 1.0909079999999989,
            "durationTicks": 768,
            "midi": 92,
            "name": "G#6",
            "ticks": 84480,
            "time": 119.99988,
            "velocity": 0.4881889763779528
          },
          {
            "duration": 1.0909079999999989,
            "durationTicks": 768,
            "midi": 95,
            "name": "B6",
            "ticks": 84480,
            "time": 119.99988,
            "velocity": 0.4881889763779528
          },
          {
            "duration": 0.13636349999998743,
            "durationTicks": 96,
            "midi": 52,
            "name": "E3",
            "ticks": 84480,
            "time": 119.99988,
            "velocity": 0.4881889763779528
          },
          {
            "duration": 1.0909079999999989,
            "durationTicks": 768,
            "midi": 88,
            "name": "E6",
            "ticks": 84480,
            "time": 119.99988,
            "velocity": 0.4881889763779528
          },
          {
            "duration": 1.0909079999999989,
            "durationTicks": 768,
            "midi": 92,
            "name": "G#6",
            "ticks": 84480,
            "time": 119.99988,
            "velocity": 0.4881889763779528
          },
          {
            "duration": 1.0909079999999989,
            "durationTicks": 768,
            "midi": 92,
            "name": "G#6",
            "ticks": 84480,
            "time": 119.99988,
            "velocity": 0.4881889763779528
          },
          {
            "duration": 1.0909079999999989,
            "durationTicks": 768,
            "midi": 88,
            "name": "E6",
            "ticks": 84480,
            "time": 119.99988,
            "velocity": 0.4881889763779528
          },
          {
            "duration": 1.0909079999999989,
            "durationTicks": 768,
            "midi": 92,
            "name": "G#6",
            "ticks": 84480,
            "time": 119.99988,
            "velocity": 0.4881889763779528
          },
          {
            "duration": 1.0909079999999989,
            "durationTicks": 768,
            "midi": 100,
            "name": "E7",
            "ticks": 84480,
            "time": 119.99988,
            "velocity": 0.4881889763779528
          },
          {
            "duration": 1.0909079999999989,
            "durationTicks": 768,
            "midi": 92,
            "name": "G#6",
            "ticks": 84480,
            "time": 119.99988,
            "velocity": 0.4881889763779528
          },
          {
            "duration": 1.0909079999999989,
            "durationTicks": 768,
            "midi": 88,
            "name": "E6",
            "ticks": 84480,
            "time": 119.99988,
            "velocity": 0.4881889763779528
          },
          {
            "duration": 0.13636349999998743,
            "durationTicks": 96,
            "midi": 52,
            "name": "E3",
            "ticks": 84480,
            "time": 119.99988,
            "velocity": 0.4881889763779528
          },
          {
            "duration": 0.13636349999998743,
            "durationTicks": 96,
            "midi": 52,
            "name": "E3",
            "ticks": 84480,
            "time": 119.99988,
            "velocity": 0.4881889763779528
          },
          {
            "duration": 1.0909079999999989,
            "durationTicks": 768,
            "midi": 100,
            "name": "E7",
            "ticks": 84480,
            "time": 119.99988,
            "velocity": 0.4881889763779528
          },
          {
            "duration": 1.0909079999999989,
            "durationTicks": 768,
            "midi": 95,
            "name": "B6",
            "ticks": 84480,
            "time": 119.99988,
            "velocity": 0.4881889763779528
          },
          {
            "duration": 1.0909079999999989,
            "durationTicks": 768,
            "midi": 92,
            "name": "G#6",
            "ticks": 84480,
            "time": 119.99988,
            "velocity": 0.4881889763779528
          },
          {
            "duration": 1.0909079999999989,
            "durationTicks": 768,
            "midi": 100,
            "name": "E7",
            "ticks": 84480,
            "time": 119.99988,
            "velocity": 0.4881889763779528
          },
          {
            "duration": 0.13636349999998743,
            "durationTicks": 96,
            "midi": 40,
            "name": "E2",
            "ticks": 84480,
            "time": 119.99988,
            "velocity": 0.4881889763779528
          },
          {
            "duration": 1.0909079999999989,
            "durationTicks": 768,
            "midi": 88,
            "name": "E6",
            "ticks": 84480,
            "time": 119.99988,
            "velocity": 0.4881889763779528
          },
          {
            "duration": 1.0909079999999989,
            "durationTicks": 768,
            "midi": 95,
            "name": "B6",
            "ticks": 84480,
            "time": 119.99988,
            "velocity": 0.4881889763779528
          },
          {
            "duration": 0.13636349999998743,
            "durationTicks": 96,
            "midi": 40,
            "name": "E2",
            "ticks": 84480,
            "time": 119.99988,
            "velocity": 0.4881889763779528
          },
          {
            "duration": 0.13636349999998743,
            "durationTicks": 96,
            "midi": 40,
            "name": "E2",
            "ticks": 84480,
            "time": 119.99988,
            "velocity": 0.4881889763779528
          },
          {
            "duration": 0.13636349999998743,
            "durationTicks": 96,
            "midi": 40,
            "name": "E2",
            "ticks": 84480,
            "time": 119.99988,
            "velocity": 0.4881889763779528
          },
          {
            "duration": 0.13636349999998743,
            "durationTicks": 96,
            "midi": 40,
            "name": "E2",
            "ticks": 84480,
            "time": 119.99988,
            "velocity": 0.4881889763779528
          },
          {
            "duration": 0.13636350000000164,
            "durationTicks": 96,
            "midi": 52,
            "name": "E3",
            "ticks": 84576,
            "time": 120.13624349999999,
            "velocity": 0.4881889763779528
          },
          {
            "duration": 0.13636350000000164,
            "durationTicks": 96,
            "midi": 52,
            "name": "E3",
            "ticks": 84576,
            "time": 120.13624349999999,
            "velocity": 0.4881889763779528
          },
          {
            "duration": 0.13636350000000164,
            "durationTicks": 96,
            "midi": 52,
            "name": "E3",
            "ticks": 84576,
            "time": 120.13624349999999,
            "velocity": 0.4881889763779528
          },
          {
            "duration": 0.13636350000000164,
            "durationTicks": 96,
            "midi": 40,
            "name": "E2",
            "ticks": 84576,
            "time": 120.13624349999999,
            "velocity": 0.4881889763779528
          },
          {
            "duration": 0.13636350000000164,
            "durationTicks": 96,
            "midi": 52,
            "name": "E3",
            "ticks": 84576,
            "time": 120.13624349999999,
            "velocity": 0.4881889763779528
          },
          {
            "duration": 0.13636350000000164,
            "durationTicks": 96,
            "midi": 52,
            "name": "E3",
            "ticks": 84576,
            "time": 120.13624349999999,
            "velocity": 0.4881889763779528
          },
          {
            "duration": 0.13636350000000164,
            "durationTicks": 96,
            "midi": 40,
            "name": "E2",
            "ticks": 84576,
            "time": 120.13624349999999,
            "velocity": 0.4881889763779528
          },
          {
            "duration": 0.13636350000000164,
            "durationTicks": 96,
            "midi": 40,
            "name": "E2",
            "ticks": 84576,
            "time": 120.13624349999999,
            "velocity": 0.4881889763779528
          },
          {
            "duration": 0.13636350000000164,
            "durationTicks": 96,
            "midi": 52,
            "name": "E3",
            "ticks": 84576,
            "time": 120.13624349999999,
            "velocity": 0.4881889763779528
          },
          {
            "duration": 0.13636350000000164,
            "durationTicks": 96,
            "midi": 40,
            "name": "E2",
            "ticks": 84576,
            "time": 120.13624349999999,
            "velocity": 0.4881889763779528
          },
          {
            "duration": 0.13636350000000164,
            "durationTicks": 96,
            "midi": 40,
            "name": "E2",
            "ticks": 84576,
            "time": 120.13624349999999,
            "velocity": 0.4881889763779528
          },
          {
            "duration": 0.13636350000000164,
            "durationTicks": 96,
            "midi": 40,
            "name": "E2",
            "ticks": 84576,
            "time": 120.13624349999999,
            "velocity": 0.4881889763779528
          },
          {
            "duration": 0.2727270000000033,
            "durationTicks": 192,
            "midi": 40,
            "name": "E2",
            "ticks": 84672,
            "time": 120.272607,
            "velocity": 0.4881889763779528
          },
          {
            "duration": 0.2727270000000033,
            "durationTicks": 192,
            "midi": 52,
            "name": "E3",
            "ticks": 84672,
            "time": 120.272607,
            "velocity": 0.4881889763779528
          },
          {
            "duration": 0.2727270000000033,
            "durationTicks": 192,
            "midi": 52,
            "name": "E3",
            "ticks": 84672,
            "time": 120.272607,
            "velocity": 0.4881889763779528
          },
          {
            "duration": 0.2727270000000033,
            "durationTicks": 192,
            "midi": 40,
            "name": "E2",
            "ticks": 84672,
            "time": 120.272607,
            "velocity": 0.4881889763779528
          },
          {
            "duration": 0.2727270000000033,
            "durationTicks": 192,
            "midi": 52,
            "name": "E3",
            "ticks": 84672,
            "time": 120.272607,
            "velocity": 0.4881889763779528
          },
          {
            "duration": 0.2727270000000033,
            "durationTicks": 192,
            "midi": 52,
            "name": "E3",
            "ticks": 84672,
            "time": 120.272607,
            "velocity": 0.4881889763779528
          },
          {
            "duration": 0.2727270000000033,
            "durationTicks": 192,
            "midi": 40,
            "name": "E2",
            "ticks": 84672,
            "time": 120.272607,
            "velocity": 0.4881889763779528
          },
          {
            "duration": 0.2727270000000033,
            "durationTicks": 192,
            "midi": 40,
            "name": "E2",
            "ticks": 84672,
            "time": 120.272607,
            "velocity": 0.4881889763779528
          },
          {
            "duration": 0.2727270000000033,
            "durationTicks": 192,
            "midi": 52,
            "name": "E3",
            "ticks": 84672,
            "time": 120.272607,
            "velocity": 0.4881889763779528
          },
          {
            "duration": 0.2727270000000033,
            "durationTicks": 192,
            "midi": 40,
            "name": "E2",
            "ticks": 84672,
            "time": 120.272607,
            "velocity": 0.4881889763779528
          },
          {
            "duration": 0.2727270000000033,
            "durationTicks": 192,
            "midi": 40,
            "name": "E2",
            "ticks": 84672,
            "time": 120.272607,
            "velocity": 0.4881889763779528
          },
          {
            "duration": 0.2727270000000033,
            "durationTicks": 192,
            "midi": 52,
            "name": "E3",
            "ticks": 84672,
            "time": 120.272607,
            "velocity": 0.4881889763779528
          },
          {
            "duration": 0.13636350000000164,
            "durationTicks": 96,
            "midi": 52,
            "name": "E3",
            "ticks": 84864,
            "time": 120.545334,
            "velocity": 0.4881889763779528
          },
          {
            "duration": 0.13636350000000164,
            "durationTicks": 96,
            "midi": 40,
            "name": "E2",
            "ticks": 84864,
            "time": 120.545334,
            "velocity": 0.4881889763779528
          },
          {
            "duration": 0.13636350000000164,
            "durationTicks": 96,
            "midi": 40,
            "name": "E2",
            "ticks": 84864,
            "time": 120.545334,
            "velocity": 0.4881889763779528
          },
          {
            "duration": 0.13636350000000164,
            "durationTicks": 96,
            "midi": 52,
            "name": "E3",
            "ticks": 84864,
            "time": 120.545334,
            "velocity": 0.4881889763779528
          },
          {
            "duration": 0.13636350000000164,
            "durationTicks": 96,
            "midi": 52,
            "name": "E3",
            "ticks": 84864,
            "time": 120.545334,
            "velocity": 0.4881889763779528
          },
          {
            "duration": 0.13636350000000164,
            "durationTicks": 96,
            "midi": 40,
            "name": "E2",
            "ticks": 84864,
            "time": 120.545334,
            "velocity": 0.4881889763779528
          },
          {
            "duration": 0.13636350000000164,
            "durationTicks": 96,
            "midi": 52,
            "name": "E3",
            "ticks": 84864,
            "time": 120.545334,
            "velocity": 0.4881889763779528
          },
          {
            "duration": 0.13636350000000164,
            "durationTicks": 96,
            "midi": 40,
            "name": "E2",
            "ticks": 84864,
            "time": 120.545334,
            "velocity": 0.4881889763779528
          },
          {
            "duration": 0.13636350000000164,
            "durationTicks": 96,
            "midi": 52,
            "name": "E3",
            "ticks": 84864,
            "time": 120.545334,
            "velocity": 0.4881889763779528
          },
          {
            "duration": 0.13636350000000164,
            "durationTicks": 96,
            "midi": 52,
            "name": "E3",
            "ticks": 84864,
            "time": 120.545334,
            "velocity": 0.4881889763779528
          },
          {
            "duration": 0.13636350000000164,
            "durationTicks": 96,
            "midi": 40,
            "name": "E2",
            "ticks": 84864,
            "time": 120.545334,
            "velocity": 0.4881889763779528
          },
          {
            "duration": 0.13636350000000164,
            "durationTicks": 96,
            "midi": 40,
            "name": "E2",
            "ticks": 84864,
            "time": 120.545334,
            "velocity": 0.4881889763779528
          },
          {
            "duration": 0.13636350000000164,
            "durationTicks": 96,
            "midi": 52,
            "name": "E3",
            "ticks": 84960,
            "time": 120.6816975,
            "velocity": 0.4881889763779528
          },
          {
            "duration": 0.13636350000000164,
            "durationTicks": 96,
            "midi": 52,
            "name": "E3",
            "ticks": 84960,
            "time": 120.6816975,
            "velocity": 0.4881889763779528
          },
          {
            "duration": 0.13636350000000164,
            "durationTicks": 96,
            "midi": 52,
            "name": "E3",
            "ticks": 84960,
            "time": 120.6816975,
            "velocity": 0.4881889763779528
          },
          {
            "duration": 0.13636350000000164,
            "durationTicks": 96,
            "midi": 40,
            "name": "E2",
            "ticks": 84960,
            "time": 120.6816975,
            "velocity": 0.4881889763779528
          },
          {
            "duration": 0.13636350000000164,
            "durationTicks": 96,
            "midi": 40,
            "name": "E2",
            "ticks": 84960,
            "time": 120.6816975,
            "velocity": 0.4881889763779528
          },
          {
            "duration": 0.13636350000000164,
            "durationTicks": 96,
            "midi": 52,
            "name": "E3",
            "ticks": 84960,
            "time": 120.6816975,
            "velocity": 0.4881889763779528
          },
          {
            "duration": 0.13636350000000164,
            "durationTicks": 96,
            "midi": 40,
            "name": "E2",
            "ticks": 84960,
            "time": 120.6816975,
            "velocity": 0.4881889763779528
          },
          {
            "duration": 0.13636350000000164,
            "durationTicks": 96,
            "midi": 40,
            "name": "E2",
            "ticks": 84960,
            "time": 120.6816975,
            "velocity": 0.4881889763779528
          },
          {
            "duration": 0.13636350000000164,
            "durationTicks": 96,
            "midi": 52,
            "name": "E3",
            "ticks": 84960,
            "time": 120.6816975,
            "velocity": 0.4881889763779528
          },
          {
            "duration": 0.13636350000000164,
            "durationTicks": 96,
            "midi": 40,
            "name": "E2",
            "ticks": 84960,
            "time": 120.6816975,
            "velocity": 0.4881889763779528
          },
          {
            "duration": 0.13636350000000164,
            "durationTicks": 96,
            "midi": 52,
            "name": "E3",
            "ticks": 84960,
            "time": 120.6816975,
            "velocity": 0.4881889763779528
          },
          {
            "duration": 0.13636350000000164,
            "durationTicks": 96,
            "midi": 40,
            "name": "E2",
            "ticks": 84960,
            "time": 120.6816975,
            "velocity": 0.4881889763779528
          },
          {
            "duration": 0.2727270000000033,
            "durationTicks": 192,
            "midi": 52,
            "name": "E3",
            "ticks": 85056,
            "time": 120.818061,
            "velocity": 0.4881889763779528
          },
          {
            "duration": 0.2727270000000033,
            "durationTicks": 192,
            "midi": 52,
            "name": "E3",
            "ticks": 85056,
            "time": 120.818061,
            "velocity": 0.4881889763779528
          },
          {
            "duration": 0.2727270000000033,
            "durationTicks": 192,
            "midi": 52,
            "name": "E3",
            "ticks": 85056,
            "time": 120.818061,
            "velocity": 0.4881889763779528
          },
          {
            "duration": 0.2727270000000033,
            "durationTicks": 192,
            "midi": 40,
            "name": "E2",
            "ticks": 85056,
            "time": 120.818061,
            "velocity": 0.4881889763779528
          },
          {
            "duration": 0.2727270000000033,
            "durationTicks": 192,
            "midi": 52,
            "name": "E3",
            "ticks": 85056,
            "time": 120.818061,
            "velocity": 0.4881889763779528
          },
          {
            "duration": 0.2727270000000033,
            "durationTicks": 192,
            "midi": 40,
            "name": "E2",
            "ticks": 85056,
            "time": 120.818061,
            "velocity": 0.4881889763779528
          },
          {
            "duration": 0.2727270000000033,
            "durationTicks": 192,
            "midi": 40,
            "name": "E2",
            "ticks": 85056,
            "time": 120.818061,
            "velocity": 0.4881889763779528
          },
          {
            "duration": 0.2727270000000033,
            "durationTicks": 192,
            "midi": 40,
            "name": "E2",
            "ticks": 85056,
            "time": 120.818061,
            "velocity": 0.4881889763779528
          },
          {
            "duration": 0.2727270000000033,
            "durationTicks": 192,
            "midi": 40,
            "name": "E2",
            "ticks": 85056,
            "time": 120.818061,
            "velocity": 0.4881889763779528
          },
          {
            "duration": 0.2727270000000033,
            "durationTicks": 192,
            "midi": 52,
            "name": "E3",
            "ticks": 85056,
            "time": 120.818061,
            "velocity": 0.4881889763779528
          },
          {
            "duration": 0.2727270000000033,
            "durationTicks": 192,
            "midi": 40,
            "name": "E2",
            "ticks": 85056,
            "time": 120.818061,
            "velocity": 0.4881889763779528
          },
          {
            "duration": 0.2727270000000033,
            "durationTicks": 192,
            "midi": 52,
            "name": "E3",
            "ticks": 85056,
            "time": 120.818061,
            "velocity": 0.4881889763779528
          },
          {
            "duration": 0.13636350000000164,
            "durationTicks": 96,
            "midi": 40,
            "name": "E2",
            "ticks": 85248,
            "time": 121.090788,
            "velocity": 0.4881889763779528
          },
          {
            "duration": 0.13636350000000164,
            "durationTicks": 96,
            "midi": 52,
            "name": "E3",
            "ticks": 85248,
            "time": 121.090788,
            "velocity": 0.4881889763779528
          },
          {
            "duration": 0.13636350000000164,
            "durationTicks": 96,
            "midi": 40,
            "name": "E2",
            "ticks": 85248,
            "time": 121.090788,
            "velocity": 0.4881889763779528
          },
          {
            "duration": 0.13636350000000164,
            "durationTicks": 96,
            "midi": 40,
            "name": "E2",
            "ticks": 85248,
            "time": 121.090788,
            "velocity": 0.4881889763779528
          },
          {
            "duration": 0.13636350000000164,
            "durationTicks": 96,
            "midi": 52,
            "name": "E3",
            "ticks": 85248,
            "time": 121.090788,
            "velocity": 0.4881889763779528
          },
          {
            "duration": 0.5454539999999923,
            "durationTicks": 384,
            "midi": 87,
            "name": "D#6",
            "ticks": 85248,
            "time": 121.090788,
            "velocity": 0.4881889763779528
          },
          {
            "duration": 0.5454539999999923,
            "durationTicks": 384,
            "midi": 99,
            "name": "D#7",
            "ticks": 85248,
            "time": 121.090788,
            "velocity": 0.4881889763779528
          },
          {
            "duration": 0.13636350000000164,
            "durationTicks": 96,
            "midi": 52,
            "name": "E3",
            "ticks": 85248,
            "time": 121.090788,
            "velocity": 0.4881889763779528
          },
          {
            "duration": 0.13636350000000164,
            "durationTicks": 96,
            "midi": 40,
            "name": "E2",
            "ticks": 85248,
            "time": 121.090788,
            "velocity": 0.4881889763779528
          },
          {
            "duration": 0.5454539999999923,
            "durationTicks": 384,
            "midi": 99,
            "name": "D#7",
            "ticks": 85248,
            "time": 121.090788,
            "velocity": 0.4881889763779528
          },
          {
            "duration": 0.13636350000000164,
            "durationTicks": 96,
            "midi": 52,
            "name": "E3",
            "ticks": 85248,
            "time": 121.090788,
            "velocity": 0.4881889763779528
          },
          {
            "duration": 0.5454539999999923,
            "durationTicks": 384,
            "midi": 87,
            "name": "D#6",
            "ticks": 85248,
            "time": 121.090788,
            "velocity": 0.4881889763779528
          },
          {
            "duration": 0.13636350000000164,
            "durationTicks": 96,
            "midi": 52,
            "name": "E3",
            "ticks": 85248,
            "time": 121.090788,
            "velocity": 0.4881889763779528
          },
          {
            "duration": 0.5454539999999923,
            "durationTicks": 384,
            "midi": 99,
            "name": "D#7",
            "ticks": 85248,
            "time": 121.090788,
            "velocity": 0.4881889763779528
          },
          {
            "duration": 0.13636350000000164,
            "durationTicks": 96,
            "midi": 52,
            "name": "E3",
            "ticks": 85248,
            "time": 121.090788,
            "velocity": 0.4881889763779528
          },
          {
            "duration": 0.5454539999999923,
            "durationTicks": 384,
            "midi": 87,
            "name": "D#6",
            "ticks": 85248,
            "time": 121.090788,
            "velocity": 0.4881889763779528
          },
          {
            "duration": 0.5454539999999923,
            "durationTicks": 384,
            "midi": 87,
            "name": "D#6",
            "ticks": 85248,
            "time": 121.090788,
            "velocity": 0.4881889763779528
          },
          {
            "duration": 0.5454539999999923,
            "durationTicks": 384,
            "midi": 87,
            "name": "D#6",
            "ticks": 85248,
            "time": 121.090788,
            "velocity": 0.4881889763779528
          },
          {
            "duration": 0.5454539999999923,
            "durationTicks": 384,
            "midi": 99,
            "name": "D#7",
            "ticks": 85248,
            "time": 121.090788,
            "velocity": 0.4881889763779528
          },
          {
            "duration": 0.5454539999999923,
            "durationTicks": 384,
            "midi": 99,
            "name": "D#7",
            "ticks": 85248,
            "time": 121.090788,
            "velocity": 0.4881889763779528
          },
          {
            "duration": 0.5454539999999923,
            "durationTicks": 384,
            "midi": 87,
            "name": "D#6",
            "ticks": 85248,
            "time": 121.090788,
            "velocity": 0.4881889763779528
          },
          {
            "duration": 0.5454539999999923,
            "durationTicks": 384,
            "midi": 99,
            "name": "D#7",
            "ticks": 85248,
            "time": 121.090788,
            "velocity": 0.4881889763779528
          },
          {
            "duration": 0.13636350000000164,
            "durationTicks": 96,
            "midi": 40,
            "name": "E2",
            "ticks": 85248,
            "time": 121.090788,
            "velocity": 0.4881889763779528
          },
          {
            "duration": 0.13636350000000164,
            "durationTicks": 96,
            "midi": 40,
            "name": "E2",
            "ticks": 85248,
            "time": 121.090788,
            "velocity": 0.4881889763779528
          },
          {
            "duration": 0.13636349999998743,
            "durationTicks": 96,
            "midi": 44,
            "name": "G#2",
            "ticks": 85344,
            "time": 121.2271515,
            "velocity": 0.4881889763779528
          },
          {
            "duration": 0.13636349999998743,
            "durationTicks": 96,
            "midi": 56,
            "name": "G#3",
            "ticks": 85344,
            "time": 121.2271515,
            "velocity": 0.4881889763779528
          },
          {
            "duration": 0.13636349999998743,
            "durationTicks": 96,
            "midi": 56,
            "name": "G#3",
            "ticks": 85344,
            "time": 121.2271515,
            "velocity": 0.4881889763779528
          },
          {
            "duration": 0.13636349999998743,
            "durationTicks": 96,
            "midi": 56,
            "name": "G#3",
            "ticks": 85344,
            "time": 121.2271515,
            "velocity": 0.4881889763779528
          },
          {
            "duration": 0.13636349999998743,
            "durationTicks": 96,
            "midi": 56,
            "name": "G#3",
            "ticks": 85344,
            "time": 121.2271515,
            "velocity": 0.4881889763779528
          },
          {
            "duration": 0.13636349999998743,
            "durationTicks": 96,
            "midi": 44,
            "name": "G#2",
            "ticks": 85344,
            "time": 121.2271515,
            "velocity": 0.4881889763779528
          },
          {
            "duration": 0.13636349999998743,
            "durationTicks": 96,
            "midi": 44,
            "name": "G#2",
            "ticks": 85344,
            "time": 121.2271515,
            "velocity": 0.4881889763779528
          },
          {
            "duration": 0.13636349999998743,
            "durationTicks": 96,
            "midi": 44,
            "name": "G#2",
            "ticks": 85344,
            "time": 121.2271515,
            "velocity": 0.4881889763779528
          },
          {
            "duration": 0.13636349999998743,
            "durationTicks": 96,
            "midi": 56,
            "name": "G#3",
            "ticks": 85344,
            "time": 121.2271515,
            "velocity": 0.4881889763779528
          },
          {
            "duration": 0.13636349999998743,
            "durationTicks": 96,
            "midi": 56,
            "name": "G#3",
            "ticks": 85344,
            "time": 121.2271515,
            "velocity": 0.4881889763779528
          },
          {
            "duration": 0.13636349999998743,
            "durationTicks": 96,
            "midi": 44,
            "name": "G#2",
            "ticks": 85344,
            "time": 121.2271515,
            "velocity": 0.4881889763779528
          },
          {
            "duration": 0.13636349999998743,
            "durationTicks": 96,
            "midi": 44,
            "name": "G#2",
            "ticks": 85344,
            "time": 121.2271515,
            "velocity": 0.4881889763779528
          },
          {
            "duration": 0.2727270000000033,
            "durationTicks": 192,
            "midi": 44,
            "name": "G#2",
            "ticks": 85440,
            "time": 121.36351499999999,
            "velocity": 0.4881889763779528
          },
          {
            "duration": 0.2727270000000033,
            "durationTicks": 192,
            "midi": 44,
            "name": "G#2",
            "ticks": 85440,
            "time": 121.36351499999999,
            "velocity": 0.4881889763779528
          },
          {
            "duration": 0.2727270000000033,
            "durationTicks": 192,
            "midi": 44,
            "name": "G#2",
            "ticks": 85440,
            "time": 121.36351499999999,
            "velocity": 0.4881889763779528
          },
          {
            "duration": 0.2727270000000033,
            "durationTicks": 192,
            "midi": 56,
            "name": "G#3",
            "ticks": 85440,
            "time": 121.36351499999999,
            "velocity": 0.4881889763779528
          },
          {
            "duration": 0.2727270000000033,
            "durationTicks": 192,
            "midi": 44,
            "name": "G#2",
            "ticks": 85440,
            "time": 121.36351499999999,
            "velocity": 0.4881889763779528
          },
          {
            "duration": 0.2727270000000033,
            "durationTicks": 192,
            "midi": 56,
            "name": "G#3",
            "ticks": 85440,
            "time": 121.36351499999999,
            "velocity": 0.4881889763779528
          },
          {
            "duration": 0.2727270000000033,
            "durationTicks": 192,
            "midi": 56,
            "name": "G#3",
            "ticks": 85440,
            "time": 121.36351499999999,
            "velocity": 0.4881889763779528
          },
          {
            "duration": 0.2727270000000033,
            "durationTicks": 192,
            "midi": 56,
            "name": "G#3",
            "ticks": 85440,
            "time": 121.36351499999999,
            "velocity": 0.4881889763779528
          },
          {
            "duration": 0.2727270000000033,
            "durationTicks": 192,
            "midi": 44,
            "name": "G#2",
            "ticks": 85440,
            "time": 121.36351499999999,
            "velocity": 0.4881889763779528
          },
          {
            "duration": 0.2727270000000033,
            "durationTicks": 192,
            "midi": 56,
            "name": "G#3",
            "ticks": 85440,
            "time": 121.36351499999999,
            "velocity": 0.4881889763779528
          },
          {
            "duration": 0.2727270000000033,
            "durationTicks": 192,
            "midi": 56,
            "name": "G#3",
            "ticks": 85440,
            "time": 121.36351499999999,
            "velocity": 0.4881889763779528
          },
          {
            "duration": 0.2727270000000033,
            "durationTicks": 192,
            "midi": 44,
            "name": "G#2",
            "ticks": 85440,
            "time": 121.36351499999999,
            "velocity": 0.4881889763779528
          },
          {
            "duration": 0.2727270000000033,
            "durationTicks": 192,
            "midi": 61,
            "name": "C#4",
            "ticks": 85632,
            "time": 121.636242,
            "velocity": 0.4881889763779528
          },
          {
            "duration": 0.5454540000000065,
            "durationTicks": 384,
            "midi": 95,
            "name": "B6",
            "ticks": 85632,
            "time": 121.636242,
            "velocity": 0.4881889763779528
          },
          {
            "duration": 0.5454540000000065,
            "durationTicks": 384,
            "midi": 95,
            "name": "B6",
            "ticks": 85632,
            "time": 121.636242,
            "velocity": 0.4881889763779528
          },
          {
            "duration": 0.2727270000000033,
            "durationTicks": 192,
            "midi": 61,
            "name": "C#4",
            "ticks": 85632,
            "time": 121.636242,
            "velocity": 0.4881889763779528
          },
          {
            "duration": 0.5454540000000065,
            "durationTicks": 384,
            "midi": 83,
            "name": "B5",
            "ticks": 85632,
            "time": 121.636242,
            "velocity": 0.4881889763779528
          },
          {
            "duration": 0.5454540000000065,
            "durationTicks": 384,
            "midi": 83,
            "name": "B5",
            "ticks": 85632,
            "time": 121.636242,
            "velocity": 0.4881889763779528
          },
          {
            "duration": 0.2727270000000033,
            "durationTicks": 192,
            "midi": 49,
            "name": "C#3",
            "ticks": 85632,
            "time": 121.636242,
            "velocity": 0.4881889763779528
          },
          {
            "duration": 0.2727270000000033,
            "durationTicks": 192,
            "midi": 61,
            "name": "C#4",
            "ticks": 85632,
            "time": 121.636242,
            "velocity": 0.4881889763779528
          },
          {
            "duration": 0.2727270000000033,
            "durationTicks": 192,
            "midi": 61,
            "name": "C#4",
            "ticks": 85632,
            "time": 121.636242,
            "velocity": 0.4881889763779528
          },
          {
            "duration": 0.5454540000000065,
            "durationTicks": 384,
            "midi": 83,
            "name": "B5",
            "ticks": 85632,
            "time": 121.636242,
            "velocity": 0.4881889763779528
          },
          {
            "duration": 0.5454540000000065,
            "durationTicks": 384,
            "midi": 83,
            "name": "B5",
            "ticks": 85632,
            "time": 121.636242,
            "velocity": 0.4881889763779528
          },
          {
            "duration": 0.2727270000000033,
            "durationTicks": 192,
            "midi": 49,
            "name": "C#3",
            "ticks": 85632,
            "time": 121.636242,
            "velocity": 0.4881889763779528
          },
          {
            "duration": 0.2727270000000033,
            "durationTicks": 192,
            "midi": 61,
            "name": "C#4",
            "ticks": 85632,
            "time": 121.636242,
            "velocity": 0.4881889763779528
          },
          {
            "duration": 0.5454540000000065,
            "durationTicks": 384,
            "midi": 83,
            "name": "B5",
            "ticks": 85632,
            "time": 121.636242,
            "velocity": 0.4881889763779528
          },
          {
            "duration": 0.5454540000000065,
            "durationTicks": 384,
            "midi": 95,
            "name": "B6",
            "ticks": 85632,
            "time": 121.636242,
            "velocity": 0.4881889763779528
          },
          {
            "duration": 0.2727270000000033,
            "durationTicks": 192,
            "midi": 49,
            "name": "C#3",
            "ticks": 85632,
            "time": 121.636242,
            "velocity": 0.4881889763779528
          },
          {
            "duration": 0.5454540000000065,
            "durationTicks": 384,
            "midi": 95,
            "name": "B6",
            "ticks": 85632,
            "time": 121.636242,
            "velocity": 0.4881889763779528
          },
          {
            "duration": 0.5454540000000065,
            "durationTicks": 384,
            "midi": 83,
            "name": "B5",
            "ticks": 85632,
            "time": 121.636242,
            "velocity": 0.4881889763779528
          },
          {
            "duration": 0.5454540000000065,
            "durationTicks": 384,
            "midi": 95,
            "name": "B6",
            "ticks": 85632,
            "time": 121.636242,
            "velocity": 0.4881889763779528
          },
          {
            "duration": 0.2727270000000033,
            "durationTicks": 192,
            "midi": 61,
            "name": "C#4",
            "ticks": 85632,
            "time": 121.636242,
            "velocity": 0.4881889763779528
          },
          {
            "duration": 0.2727270000000033,
            "durationTicks": 192,
            "midi": 49,
            "name": "C#3",
            "ticks": 85632,
            "time": 121.636242,
            "velocity": 0.4881889763779528
          },
          {
            "duration": 0.2727270000000033,
            "durationTicks": 192,
            "midi": 49,
            "name": "C#3",
            "ticks": 85632,
            "time": 121.636242,
            "velocity": 0.4881889763779528
          },
          {
            "duration": 0.2727270000000033,
            "durationTicks": 192,
            "midi": 49,
            "name": "C#3",
            "ticks": 85632,
            "time": 121.636242,
            "velocity": 0.4881889763779528
          },
          {
            "duration": 0.5454540000000065,
            "durationTicks": 384,
            "midi": 95,
            "name": "B6",
            "ticks": 85632,
            "time": 121.636242,
            "velocity": 0.4881889763779528
          },
          {
            "duration": 0.2727270000000033,
            "durationTicks": 192,
            "midi": 44,
            "name": "G#2",
            "ticks": 85824,
            "time": 121.908969,
            "velocity": 0.4881889763779528
          },
          {
            "duration": 0.2727270000000033,
            "durationTicks": 192,
            "midi": 56,
            "name": "G#3",
            "ticks": 85824,
            "time": 121.908969,
            "velocity": 0.4881889763779528
          },
          {
            "duration": 0.2727270000000033,
            "durationTicks": 192,
            "midi": 44,
            "name": "G#2",
            "ticks": 85824,
            "time": 121.908969,
            "velocity": 0.4881889763779528
          },
          {
            "duration": 0.2727270000000033,
            "durationTicks": 192,
            "midi": 56,
            "name": "G#3",
            "ticks": 85824,
            "time": 121.908969,
            "velocity": 0.4881889763779528
          },
          {
            "duration": 0.2727270000000033,
            "durationTicks": 192,
            "midi": 44,
            "name": "G#2",
            "ticks": 85824,
            "time": 121.908969,
            "velocity": 0.4881889763779528
          },
          {
            "duration": 0.2727270000000033,
            "durationTicks": 192,
            "midi": 56,
            "name": "G#3",
            "ticks": 85824,
            "time": 121.908969,
            "velocity": 0.4881889763779528
          },
          {
            "duration": 0.2727270000000033,
            "durationTicks": 192,
            "midi": 56,
            "name": "G#3",
            "ticks": 85824,
            "time": 121.908969,
            "velocity": 0.4881889763779528
          },
          {
            "duration": 0.2727270000000033,
            "durationTicks": 192,
            "midi": 44,
            "name": "G#2",
            "ticks": 85824,
            "time": 121.908969,
            "velocity": 0.4881889763779528
          },
          {
            "duration": 0.2727270000000033,
            "durationTicks": 192,
            "midi": 56,
            "name": "G#3",
            "ticks": 85824,
            "time": 121.908969,
            "velocity": 0.4881889763779528
          },
          {
            "duration": 0.2727270000000033,
            "durationTicks": 192,
            "midi": 44,
            "name": "G#2",
            "ticks": 85824,
            "time": 121.908969,
            "velocity": 0.4881889763779528
          },
          {
            "duration": 0.2727270000000033,
            "durationTicks": 192,
            "midi": 44,
            "name": "G#2",
            "ticks": 85824,
            "time": 121.908969,
            "velocity": 0.4881889763779528
          },
          {
            "duration": 0.2727270000000033,
            "durationTicks": 192,
            "midi": 56,
            "name": "G#3",
            "ticks": 85824,
            "time": 121.908969,
            "velocity": 0.4881889763779528
          },
          {
            "duration": 0.13636350000000164,
            "durationTicks": 96,
            "midi": 54,
            "name": "F#3",
            "ticks": 86016,
            "time": 122.181696,
            "velocity": 0.4881889763779528
          },
          {
            "duration": 0.13636350000000164,
            "durationTicks": 96,
            "midi": 42,
            "name": "F#2",
            "ticks": 86016,
            "time": 122.181696,
            "velocity": 0.4881889763779528
          },
          {
            "duration": 0.13636350000000164,
            "durationTicks": 96,
            "midi": 54,
            "name": "F#3",
            "ticks": 86016,
            "time": 122.181696,
            "velocity": 0.4881889763779528
          },
          {
            "duration": 0.13636350000000164,
            "durationTicks": 96,
            "midi": 42,
            "name": "F#2",
            "ticks": 86016,
            "time": 122.181696,
            "velocity": 0.4881889763779528
          },
          {
            "duration": 1.0909079999999989,
            "durationTicks": 768,
            "midi": 85,
            "name": "C#6",
            "ticks": 86016,
            "time": 122.181696,
            "velocity": 0.4881889763779528
          },
          {
            "duration": 0.13636350000000164,
            "durationTicks": 96,
            "midi": 54,
            "name": "F#3",
            "ticks": 86016,
            "time": 122.181696,
            "velocity": 0.4881889763779528
          },
          {
            "duration": 0.13636350000000164,
            "durationTicks": 96,
            "midi": 54,
            "name": "F#3",
            "ticks": 86016,
            "time": 122.181696,
            "velocity": 0.4881889763779528
          },
          {
            "duration": 0.13636350000000164,
            "durationTicks": 96,
            "midi": 42,
            "name": "F#2",
            "ticks": 86016,
            "time": 122.181696,
            "velocity": 0.4881889763779528
          },
          {
            "duration": 1.0909079999999989,
            "durationTicks": 768,
            "midi": 97,
            "name": "C#7",
            "ticks": 86016,
            "time": 122.181696,
            "velocity": 0.4881889763779528
          },
          {
            "duration": 0.13636350000000164,
            "durationTicks": 96,
            "midi": 54,
            "name": "F#3",
            "ticks": 86016,
            "time": 122.181696,
            "velocity": 0.4881889763779528
          },
          {
            "duration": 1.0909079999999989,
            "durationTicks": 768,
            "midi": 85,
            "name": "C#6",
            "ticks": 86016,
            "time": 122.181696,
            "velocity": 0.4881889763779528
          },
          {
            "duration": 1.0909079999999989,
            "durationTicks": 768,
            "midi": 97,
            "name": "C#7",
            "ticks": 86016,
            "time": 122.181696,
            "velocity": 0.4881889763779528
          },
          {
            "duration": 0.13636350000000164,
            "durationTicks": 96,
            "midi": 42,
            "name": "F#2",
            "ticks": 86016,
            "time": 122.181696,
            "velocity": 0.4881889763779528
          },
          {
            "duration": 1.0909079999999989,
            "durationTicks": 768,
            "midi": 97,
            "name": "C#7",
            "ticks": 86016,
            "time": 122.181696,
            "velocity": 0.4881889763779528
          },
          {
            "duration": 1.0909079999999989,
            "durationTicks": 768,
            "midi": 85,
            "name": "C#6",
            "ticks": 86016,
            "time": 122.181696,
            "velocity": 0.4881889763779528
          },
          {
            "duration": 1.0909079999999989,
            "durationTicks": 768,
            "midi": 97,
            "name": "C#7",
            "ticks": 86016,
            "time": 122.181696,
            "velocity": 0.4881889763779528
          },
          {
            "duration": 0.13636350000000164,
            "durationTicks": 96,
            "midi": 42,
            "name": "F#2",
            "ticks": 86016,
            "time": 122.181696,
            "velocity": 0.4881889763779528
          },
          {
            "duration": 0.13636350000000164,
            "durationTicks": 96,
            "midi": 42,
            "name": "F#2",
            "ticks": 86016,
            "time": 122.181696,
            "velocity": 0.4881889763779528
          },
          {
            "duration": 1.0909079999999989,
            "durationTicks": 768,
            "midi": 85,
            "name": "C#6",
            "ticks": 86016,
            "time": 122.181696,
            "velocity": 0.4881889763779528
          },
          {
            "duration": 1.0909079999999989,
            "durationTicks": 768,
            "midi": 85,
            "name": "C#6",
            "ticks": 86016,
            "time": 122.181696,
            "velocity": 0.4881889763779528
          },
          {
            "duration": 1.0909079999999989,
            "durationTicks": 768,
            "midi": 97,
            "name": "C#7",
            "ticks": 86016,
            "time": 122.181696,
            "velocity": 0.4881889763779528
          },
          {
            "duration": 0.13636350000000164,
            "durationTicks": 96,
            "midi": 54,
            "name": "F#3",
            "ticks": 86016,
            "time": 122.181696,
            "velocity": 0.4881889763779528
          },
          {
            "duration": 1.0909079999999989,
            "durationTicks": 768,
            "midi": 97,
            "name": "C#7",
            "ticks": 86016,
            "time": 122.181696,
            "velocity": 0.4881889763779528
          },
          {
            "duration": 1.0909079999999989,
            "durationTicks": 768,
            "midi": 85,
            "name": "C#6",
            "ticks": 86016,
            "time": 122.181696,
            "velocity": 0.4881889763779528
          },
          {
            "duration": 0.13636350000000164,
            "durationTicks": 96,
            "midi": 54,
            "name": "F#3",
            "ticks": 86112,
            "time": 122.3180595,
            "velocity": 0.4881889763779528
          },
          {
            "duration": 0.13636350000000164,
            "durationTicks": 96,
            "midi": 54,
            "name": "F#3",
            "ticks": 86112,
            "time": 122.3180595,
            "velocity": 0.4881889763779528
          },
          {
            "duration": 0.13636350000000164,
            "durationTicks": 96,
            "midi": 42,
            "name": "F#2",
            "ticks": 86112,
            "time": 122.3180595,
            "velocity": 0.4881889763779528
          },
          {
            "duration": 0.13636350000000164,
            "durationTicks": 96,
            "midi": 42,
            "name": "F#2",
            "ticks": 86112,
            "time": 122.3180595,
            "velocity": 0.4881889763779528
          },
          {
            "duration": 0.13636350000000164,
            "durationTicks": 96,
            "midi": 42,
            "name": "F#2",
            "ticks": 86112,
            "time": 122.3180595,
            "velocity": 0.4881889763779528
          },
          {
            "duration": 0.13636350000000164,
            "durationTicks": 96,
            "midi": 42,
            "name": "F#2",
            "ticks": 86112,
            "time": 122.3180595,
            "velocity": 0.4881889763779528
          },
          {
            "duration": 0.13636350000000164,
            "durationTicks": 96,
            "midi": 54,
            "name": "F#3",
            "ticks": 86112,
            "time": 122.3180595,
            "velocity": 0.4881889763779528
          },
          {
            "duration": 0.13636350000000164,
            "durationTicks": 96,
            "midi": 42,
            "name": "F#2",
            "ticks": 86112,
            "time": 122.3180595,
            "velocity": 0.4881889763779528
          },
          {
            "duration": 0.13636350000000164,
            "durationTicks": 96,
            "midi": 54,
            "name": "F#3",
            "ticks": 86112,
            "time": 122.3180595,
            "velocity": 0.4881889763779528
          },
          {
            "duration": 0.13636350000000164,
            "durationTicks": 96,
            "midi": 54,
            "name": "F#3",
            "ticks": 86112,
            "time": 122.3180595,
            "velocity": 0.4881889763779528
          },
          {
            "duration": 0.13636350000000164,
            "durationTicks": 96,
            "midi": 54,
            "name": "F#3",
            "ticks": 86112,
            "time": 122.3180595,
            "velocity": 0.4881889763779528
          },
          {
            "duration": 0.13636350000000164,
            "durationTicks": 96,
            "midi": 42,
            "name": "F#2",
            "ticks": 86112,
            "time": 122.3180595,
            "velocity": 0.4881889763779528
          },
          {
            "duration": 0.27272699999998906,
            "durationTicks": 192,
            "midi": 54,
            "name": "F#3",
            "ticks": 86208,
            "time": 122.454423,
            "velocity": 0.4881889763779528
          },
          {
            "duration": 0.27272699999998906,
            "durationTicks": 192,
            "midi": 54,
            "name": "F#3",
            "ticks": 86208,
            "time": 122.454423,
            "velocity": 0.4881889763779528
          },
          {
            "duration": 0.27272699999998906,
            "durationTicks": 192,
            "midi": 54,
            "name": "F#3",
            "ticks": 86208,
            "time": 122.454423,
            "velocity": 0.4881889763779528
          },
          {
            "duration": 0.27272699999998906,
            "durationTicks": 192,
            "midi": 42,
            "name": "F#2",
            "ticks": 86208,
            "time": 122.454423,
            "velocity": 0.4881889763779528
          },
          {
            "duration": 0.27272699999998906,
            "durationTicks": 192,
            "midi": 42,
            "name": "F#2",
            "ticks": 86208,
            "time": 122.454423,
            "velocity": 0.4881889763779528
          },
          {
            "duration": 0.27272699999998906,
            "durationTicks": 192,
            "midi": 54,
            "name": "F#3",
            "ticks": 86208,
            "time": 122.454423,
            "velocity": 0.4881889763779528
          },
          {
            "duration": 0.27272699999998906,
            "durationTicks": 192,
            "midi": 42,
            "name": "F#2",
            "ticks": 86208,
            "time": 122.454423,
            "velocity": 0.4881889763779528
          },
          {
            "duration": 0.27272699999998906,
            "durationTicks": 192,
            "midi": 54,
            "name": "F#3",
            "ticks": 86208,
            "time": 122.454423,
            "velocity": 0.4881889763779528
          },
          {
            "duration": 0.27272699999998906,
            "durationTicks": 192,
            "midi": 42,
            "name": "F#2",
            "ticks": 86208,
            "time": 122.454423,
            "velocity": 0.4881889763779528
          },
          {
            "duration": 0.27272699999998906,
            "durationTicks": 192,
            "midi": 42,
            "name": "F#2",
            "ticks": 86208,
            "time": 122.454423,
            "velocity": 0.4881889763779528
          },
          {
            "duration": 0.27272699999998906,
            "durationTicks": 192,
            "midi": 54,
            "name": "F#3",
            "ticks": 86208,
            "time": 122.454423,
            "velocity": 0.4881889763779528
          },
          {
            "duration": 0.27272699999998906,
            "durationTicks": 192,
            "midi": 42,
            "name": "F#2",
            "ticks": 86208,
            "time": 122.454423,
            "velocity": 0.4881889763779528
          },
          {
            "duration": 0.13636350000000164,
            "durationTicks": 96,
            "midi": 42,
            "name": "F#2",
            "ticks": 86400,
            "time": 122.72715,
            "velocity": 0.4881889763779528
          },
          {
            "duration": 0.13636350000000164,
            "durationTicks": 96,
            "midi": 54,
            "name": "F#3",
            "ticks": 86400,
            "time": 122.72715,
            "velocity": 0.4881889763779528
          },
          {
            "duration": 0.13636350000000164,
            "durationTicks": 96,
            "midi": 54,
            "name": "F#3",
            "ticks": 86400,
            "time": 122.72715,
            "velocity": 0.4881889763779528
          },
          {
            "duration": 0.13636350000000164,
            "durationTicks": 96,
            "midi": 42,
            "name": "F#2",
            "ticks": 86400,
            "time": 122.72715,
            "velocity": 0.4881889763779528
          },
          {
            "duration": 0.13636350000000164,
            "durationTicks": 96,
            "midi": 42,
            "name": "F#2",
            "ticks": 86400,
            "time": 122.72715,
            "velocity": 0.4881889763779528
          },
          {
            "duration": 0.13636350000000164,
            "durationTicks": 96,
            "midi": 42,
            "name": "F#2",
            "ticks": 86400,
            "time": 122.72715,
            "velocity": 0.4881889763779528
          },
          {
            "duration": 0.13636350000000164,
            "durationTicks": 96,
            "midi": 42,
            "name": "F#2",
            "ticks": 86400,
            "time": 122.72715,
            "velocity": 0.4881889763779528
          },
          {
            "duration": 0.13636350000000164,
            "durationTicks": 96,
            "midi": 54,
            "name": "F#3",
            "ticks": 86400,
            "time": 122.72715,
            "velocity": 0.4881889763779528
          },
          {
            "duration": 0.13636350000000164,
            "durationTicks": 96,
            "midi": 54,
            "name": "F#3",
            "ticks": 86400,
            "time": 122.72715,
            "velocity": 0.4881889763779528
          },
          {
            "duration": 0.13636350000000164,
            "durationTicks": 96,
            "midi": 42,
            "name": "F#2",
            "ticks": 86400,
            "time": 122.72715,
            "velocity": 0.4881889763779528
          },
          {
            "duration": 0.13636350000000164,
            "durationTicks": 96,
            "midi": 54,
            "name": "F#3",
            "ticks": 86400,
            "time": 122.72715,
            "velocity": 0.4881889763779528
          },
          {
            "duration": 0.13636350000000164,
            "durationTicks": 96,
            "midi": 54,
            "name": "F#3",
            "ticks": 86400,
            "time": 122.72715,
            "velocity": 0.4881889763779528
          },
          {
            "duration": 0.13636350000000164,
            "durationTicks": 96,
            "midi": 54,
            "name": "F#3",
            "ticks": 86496,
            "time": 122.8635135,
            "velocity": 0.4881889763779528
          },
          {
            "duration": 0.13636350000000164,
            "durationTicks": 96,
            "midi": 54,
            "name": "F#3",
            "ticks": 86496,
            "time": 122.8635135,
            "velocity": 0.4881889763779528
          },
          {
            "duration": 0.13636350000000164,
            "durationTicks": 96,
            "midi": 42,
            "name": "F#2",
            "ticks": 86496,
            "time": 122.8635135,
            "velocity": 0.4881889763779528
          },
          {
            "duration": 0.13636350000000164,
            "durationTicks": 96,
            "midi": 42,
            "name": "F#2",
            "ticks": 86496,
            "time": 122.8635135,
            "velocity": 0.4881889763779528
          },
          {
            "duration": 0.13636350000000164,
            "durationTicks": 96,
            "midi": 42,
            "name": "F#2",
            "ticks": 86496,
            "time": 122.8635135,
            "velocity": 0.4881889763779528
          },
          {
            "duration": 0.13636350000000164,
            "durationTicks": 96,
            "midi": 54,
            "name": "F#3",
            "ticks": 86496,
            "time": 122.8635135,
            "velocity": 0.4881889763779528
          },
          {
            "duration": 0.13636350000000164,
            "durationTicks": 96,
            "midi": 54,
            "name": "F#3",
            "ticks": 86496,
            "time": 122.8635135,
            "velocity": 0.4881889763779528
          },
          {
            "duration": 0.13636350000000164,
            "durationTicks": 96,
            "midi": 42,
            "name": "F#2",
            "ticks": 86496,
            "time": 122.8635135,
            "velocity": 0.4881889763779528
          },
          {
            "duration": 0.13636350000000164,
            "durationTicks": 96,
            "midi": 42,
            "name": "F#2",
            "ticks": 86496,
            "time": 122.8635135,
            "velocity": 0.4881889763779528
          },
          {
            "duration": 0.13636350000000164,
            "durationTicks": 96,
            "midi": 54,
            "name": "F#3",
            "ticks": 86496,
            "time": 122.8635135,
            "velocity": 0.4881889763779528
          },
          {
            "duration": 0.13636350000000164,
            "durationTicks": 96,
            "midi": 54,
            "name": "F#3",
            "ticks": 86496,
            "time": 122.8635135,
            "velocity": 0.4881889763779528
          },
          {
            "duration": 0.13636350000000164,
            "durationTicks": 96,
            "midi": 42,
            "name": "F#2",
            "ticks": 86496,
            "time": 122.8635135,
            "velocity": 0.4881889763779528
          },
          {
            "duration": 0.2727270000000033,
            "durationTicks": 192,
            "midi": 42,
            "name": "F#2",
            "ticks": 86592,
            "time": 122.999877,
            "velocity": 0.4881889763779528
          },
          {
            "duration": 0.2727270000000033,
            "durationTicks": 192,
            "midi": 54,
            "name": "F#3",
            "ticks": 86592,
            "time": 122.999877,
            "velocity": 0.4881889763779528
          },
          {
            "duration": 0.2727270000000033,
            "durationTicks": 192,
            "midi": 54,
            "name": "F#3",
            "ticks": 86592,
            "time": 122.999877,
            "velocity": 0.4881889763779528
          },
          {
            "duration": 0.2727270000000033,
            "durationTicks": 192,
            "midi": 42,
            "name": "F#2",
            "ticks": 86592,
            "time": 122.999877,
            "velocity": 0.4881889763779528
          },
          {
            "duration": 0.2727270000000033,
            "durationTicks": 192,
            "midi": 42,
            "name": "F#2",
            "ticks": 86592,
            "time": 122.999877,
            "velocity": 0.4881889763779528
          },
          {
            "duration": 0.2727270000000033,
            "durationTicks": 192,
            "midi": 42,
            "name": "F#2",
            "ticks": 86592,
            "time": 122.999877,
            "velocity": 0.4881889763779528
          },
          {
            "duration": 0.2727270000000033,
            "durationTicks": 192,
            "midi": 54,
            "name": "F#3",
            "ticks": 86592,
            "time": 122.999877,
            "velocity": 0.4881889763779528
          },
          {
            "duration": 0.2727270000000033,
            "durationTicks": 192,
            "midi": 54,
            "name": "F#3",
            "ticks": 86592,
            "time": 122.999877,
            "velocity": 0.4881889763779528
          },
          {
            "duration": 0.2727270000000033,
            "durationTicks": 192,
            "midi": 54,
            "name": "F#3",
            "ticks": 86592,
            "time": 122.999877,
            "velocity": 0.4881889763779528
          },
          {
            "duration": 0.2727270000000033,
            "durationTicks": 192,
            "midi": 54,
            "name": "F#3",
            "ticks": 86592,
            "time": 122.999877,
            "velocity": 0.4881889763779528
          },
          {
            "duration": 0.2727270000000033,
            "durationTicks": 192,
            "midi": 42,
            "name": "F#2",
            "ticks": 86592,
            "time": 122.999877,
            "velocity": 0.4881889763779528
          },
          {
            "duration": 0.2727270000000033,
            "durationTicks": 192,
            "midi": 42,
            "name": "F#2",
            "ticks": 86592,
            "time": 122.999877,
            "velocity": 0.4881889763779528
          },
          {
            "duration": 1.0909079999999989,
            "durationTicks": 768,
            "midi": 102,
            "name": "F#7",
            "ticks": 86784,
            "time": 123.272604,
            "velocity": 0.4881889763779528
          },
          {
            "duration": 1.0909079999999989,
            "durationTicks": 768,
            "midi": 90,
            "name": "F#6",
            "ticks": 86784,
            "time": 123.272604,
            "velocity": 0.4881889763779528
          },
          {
            "duration": 1.0909079999999989,
            "durationTicks": 768,
            "midi": 102,
            "name": "F#7",
            "ticks": 86784,
            "time": 123.272604,
            "velocity": 0.4881889763779528
          },
          {
            "duration": 1.0909079999999989,
            "durationTicks": 768,
            "midi": 90,
            "name": "F#6",
            "ticks": 86784,
            "time": 123.272604,
            "velocity": 0.4881889763779528
          },
          {
            "duration": 1.0909079999999989,
            "durationTicks": 768,
            "midi": 102,
            "name": "F#7",
            "ticks": 86784,
            "time": 123.272604,
            "velocity": 0.4881889763779528
          },
          {
            "duration": 1.0909079999999989,
            "durationTicks": 768,
            "midi": 102,
            "name": "F#7",
            "ticks": 86784,
            "time": 123.272604,
            "velocity": 0.4881889763779528
          },
          {
            "duration": 1.0909079999999989,
            "durationTicks": 768,
            "midi": 90,
            "name": "F#6",
            "ticks": 86784,
            "time": 123.272604,
            "velocity": 0.4881889763779528
          },
          {
            "duration": 1.0909079999999989,
            "durationTicks": 768,
            "midi": 90,
            "name": "F#6",
            "ticks": 86784,
            "time": 123.272604,
            "velocity": 0.4881889763779528
          },
          {
            "duration": 1.0909079999999989,
            "durationTicks": 768,
            "midi": 102,
            "name": "F#7",
            "ticks": 86784,
            "time": 123.272604,
            "velocity": 0.4881889763779528
          },
          {
            "duration": 1.0909079999999989,
            "durationTicks": 768,
            "midi": 90,
            "name": "F#6",
            "ticks": 86784,
            "time": 123.272604,
            "velocity": 0.4881889763779528
          },
          {
            "duration": 1.0909079999999989,
            "durationTicks": 768,
            "midi": 90,
            "name": "F#6",
            "ticks": 86784,
            "time": 123.272604,
            "velocity": 0.4881889763779528
          },
          {
            "duration": 1.0909079999999989,
            "durationTicks": 768,
            "midi": 102,
            "name": "F#7",
            "ticks": 86784,
            "time": 123.272604,
            "velocity": 0.4881889763779528
          },
          {
            "duration": 1.0909079999999989,
            "durationTicks": 768,
            "midi": 100,
            "name": "E7",
            "ticks": 87552,
            "time": 124.363512,
            "velocity": 0.4881889763779528
          },
          {
            "duration": 1.0909079999999989,
            "durationTicks": 768,
            "midi": 95,
            "name": "B6",
            "ticks": 87552,
            "time": 124.363512,
            "velocity": 0.4881889763779528
          },
          {
            "duration": 1.0909079999999989,
            "durationTicks": 768,
            "midi": 100,
            "name": "E7",
            "ticks": 87552,
            "time": 124.363512,
            "velocity": 0.4881889763779528
          },
          {
            "duration": 1.0909079999999989,
            "durationTicks": 768,
            "midi": 100,
            "name": "E7",
            "ticks": 87552,
            "time": 124.363512,
            "velocity": 0.4881889763779528
          },
          {
            "duration": 1.0909079999999989,
            "durationTicks": 768,
            "midi": 92,
            "name": "G#6",
            "ticks": 87552,
            "time": 124.363512,
            "velocity": 0.4881889763779528
          },
          {
            "duration": 2.045452499999996,
            "durationTicks": 1440,
            "midi": 52,
            "name": "E3",
            "ticks": 87552,
            "time": 124.363512,
            "velocity": 0.4881889763779528
          },
          {
            "duration": 0.5454539999999923,
            "durationTicks": 384,
            "midi": 90,
            "name": "F#6",
            "ticks": 87552,
            "time": 124.363512,
            "velocity": 0.4881889763779528
          },
          {
            "duration": 2.045452499999996,
            "durationTicks": 1440,
            "midi": 52,
            "name": "E3",
            "ticks": 87552,
            "time": 124.363512,
            "velocity": 0.4881889763779528
          },
          {
            "duration": 2.045452499999996,
            "durationTicks": 1440,
            "midi": 52,
            "name": "E3",
            "ticks": 87552,
            "time": 124.363512,
            "velocity": 0.4881889763779528
          },
          {
            "duration": 2.045452499999996,
            "durationTicks": 1440,
            "midi": 64,
            "name": "E4",
            "ticks": 87552,
            "time": 124.363512,
            "velocity": 0.4881889763779528
          },
          {
            "duration": 0.5454539999999923,
            "durationTicks": 384,
            "midi": 90,
            "name": "F#6",
            "ticks": 87552,
            "time": 124.363512,
            "velocity": 0.4881889763779528
          },
          {
            "duration": 1.0909079999999989,
            "durationTicks": 768,
            "midi": 95,
            "name": "B6",
            "ticks": 87552,
            "time": 124.363512,
            "velocity": 0.4881889763779528
          },
          {
            "duration": 1.0909079999999989,
            "durationTicks": 768,
            "midi": 95,
            "name": "B6",
            "ticks": 87552,
            "time": 124.363512,
            "velocity": 0.4881889763779528
          },
          {
            "duration": 1.0909079999999989,
            "durationTicks": 768,
            "midi": 95,
            "name": "B6",
            "ticks": 87552,
            "time": 124.363512,
            "velocity": 0.4881889763779528
          },
          {
            "duration": 2.045452499999996,
            "durationTicks": 1440,
            "midi": 52,
            "name": "E3",
            "ticks": 87552,
            "time": 124.363512,
            "velocity": 0.4881889763779528
          },
          {
            "duration": 0.5454539999999923,
            "durationTicks": 384,
            "midi": 78,
            "name": "F#5",
            "ticks": 87552,
            "time": 124.363512,
            "velocity": 0.4881889763779528
          },
          {
            "duration": 0.5454539999999923,
            "durationTicks": 384,
            "midi": 78,
            "name": "F#5",
            "ticks": 87552,
            "time": 124.363512,
            "velocity": 0.4881889763779528
          },
          {
            "duration": 2.045452499999996,
            "durationTicks": 1440,
            "midi": 64,
            "name": "E4",
            "ticks": 87552,
            "time": 124.363512,
            "velocity": 0.4881889763779528
          },
          {
            "duration": 1.0909079999999989,
            "durationTicks": 768,
            "midi": 100,
            "name": "E7",
            "ticks": 87552,
            "time": 124.363512,
            "velocity": 0.4881889763779528
          },
          {
            "duration": 0.5454539999999923,
            "durationTicks": 384,
            "midi": 78,
            "name": "F#5",
            "ticks": 87552,
            "time": 124.363512,
            "velocity": 0.4881889763779528
          },
          {
            "duration": 2.045452499999996,
            "durationTicks": 1440,
            "midi": 52,
            "name": "E3",
            "ticks": 87552,
            "time": 124.363512,
            "velocity": 0.4881889763779528
          },
          {
            "duration": 2.045452499999996,
            "durationTicks": 1440,
            "midi": 64,
            "name": "E4",
            "ticks": 87552,
            "time": 124.363512,
            "velocity": 0.4881889763779528
          },
          {
            "duration": 2.045452499999996,
            "durationTicks": 1440,
            "midi": 52,
            "name": "E3",
            "ticks": 87552,
            "time": 124.363512,
            "velocity": 0.4881889763779528
          },
          {
            "duration": 1.0909079999999989,
            "durationTicks": 768,
            "midi": 100,
            "name": "E7",
            "ticks": 87552,
            "time": 124.363512,
            "velocity": 0.4881889763779528
          },
          {
            "duration": 1.0909079999999989,
            "durationTicks": 768,
            "midi": 100,
            "name": "E7",
            "ticks": 87552,
            "time": 124.363512,
            "velocity": 0.4881889763779528
          },
          {
            "duration": 1.0909079999999989,
            "durationTicks": 768,
            "midi": 92,
            "name": "G#6",
            "ticks": 87552,
            "time": 124.363512,
            "velocity": 0.4881889763779528
          },
          {
            "duration": 0.5454539999999923,
            "durationTicks": 384,
            "midi": 90,
            "name": "F#6",
            "ticks": 87552,
            "time": 124.363512,
            "velocity": 0.4881889763779528
          },
          {
            "duration": 1.0909079999999989,
            "durationTicks": 768,
            "midi": 95,
            "name": "B6",
            "ticks": 87552,
            "time": 124.363512,
            "velocity": 0.4881889763779528
          },
          {
            "duration": 0.5454539999999923,
            "durationTicks": 384,
            "midi": 90,
            "name": "F#6",
            "ticks": 87552,
            "time": 124.363512,
            "velocity": 0.4881889763779528
          },
          {
            "duration": 2.045452499999996,
            "durationTicks": 1440,
            "midi": 64,
            "name": "E4",
            "ticks": 87552,
            "time": 124.363512,
            "velocity": 0.4881889763779528
          },
          {
            "duration": 1.0909079999999989,
            "durationTicks": 768,
            "midi": 92,
            "name": "G#6",
            "ticks": 87552,
            "time": 124.363512,
            "velocity": 0.4881889763779528
          },
          {
            "duration": 2.045452499999996,
            "durationTicks": 1440,
            "midi": 64,
            "name": "E4",
            "ticks": 87552,
            "time": 124.363512,
            "velocity": 0.4881889763779528
          },
          {
            "duration": 1.0909079999999989,
            "durationTicks": 768,
            "midi": 92,
            "name": "G#6",
            "ticks": 87552,
            "time": 124.363512,
            "velocity": 0.4881889763779528
          },
          {
            "duration": 1.0909079999999989,
            "durationTicks": 768,
            "midi": 92,
            "name": "G#6",
            "ticks": 87552,
            "time": 124.363512,
            "velocity": 0.4881889763779528
          },
          {
            "duration": 0.5454539999999923,
            "durationTicks": 384,
            "midi": 78,
            "name": "F#5",
            "ticks": 87552,
            "time": 124.363512,
            "velocity": 0.4881889763779528
          },
          {
            "duration": 1.0909079999999989,
            "durationTicks": 768,
            "midi": 92,
            "name": "G#6",
            "ticks": 87552,
            "time": 124.363512,
            "velocity": 0.4881889763779528
          },
          {
            "duration": 2.045452499999996,
            "durationTicks": 1440,
            "midi": 64,
            "name": "E4",
            "ticks": 87552,
            "time": 124.363512,
            "velocity": 0.4881889763779528
          },
          {
            "duration": 0.5454539999999923,
            "durationTicks": 384,
            "midi": 78,
            "name": "F#5",
            "ticks": 87552,
            "time": 124.363512,
            "velocity": 0.4881889763779528
          },
          {
            "duration": 0.5454539999999923,
            "durationTicks": 384,
            "midi": 78,
            "name": "F#5",
            "ticks": 87552,
            "time": 124.363512,
            "velocity": 0.4881889763779528
          },
          {
            "duration": 0.5454539999999923,
            "durationTicks": 384,
            "midi": 90,
            "name": "F#6",
            "ticks": 87552,
            "time": 124.363512,
            "velocity": 0.4881889763779528
          },
          {
            "duration": 0.5454539999999923,
            "durationTicks": 384,
            "midi": 90,
            "name": "F#6",
            "ticks": 87552,
            "time": 124.363512,
            "velocity": 0.4881889763779528
          },
          {
            "duration": 1.0909079999999989,
            "durationTicks": 768,
            "midi": 95,
            "name": "B6",
            "ticks": 87552,
            "time": 124.363512,
            "velocity": 0.4881889763779528
          },
          {
            "duration": 0.5454540000000065,
            "durationTicks": 384,
            "midi": 88,
            "name": "E6",
            "ticks": 87936,
            "time": 124.90896599999999,
            "velocity": 0.4881889763779528
          },
          {
            "duration": 1.2272715000000005,
            "durationTicks": 864,
            "midi": 76,
            "name": "E5",
            "ticks": 87936,
            "time": 124.90896599999999,
            "velocity": 0.4881889763779528
          },
          {
            "duration": 0.5454540000000065,
            "durationTicks": 384,
            "midi": 88,
            "name": "E6",
            "ticks": 87936,
            "time": 124.90896599999999,
            "velocity": 0.4881889763779528
          },
          {
            "duration": 0.5454540000000065,
            "durationTicks": 384,
            "midi": 88,
            "name": "E6",
            "ticks": 87936,
            "time": 124.90896599999999,
            "velocity": 0.4881889763779528
          },
          {
            "duration": 0.5454540000000065,
            "durationTicks": 384,
            "midi": 88,
            "name": "E6",
            "ticks": 87936,
            "time": 124.90896599999999,
            "velocity": 0.4881889763779528
          },
          {
            "duration": 0.5454540000000065,
            "durationTicks": 384,
            "midi": 88,
            "name": "E6",
            "ticks": 87936,
            "time": 124.90896599999999,
            "velocity": 0.4881889763779528
          },
          {
            "duration": 0.5454540000000065,
            "durationTicks": 384,
            "midi": 88,
            "name": "E6",
            "ticks": 87936,
            "time": 124.90896599999999,
            "velocity": 0.4881889763779528
          },
          {
            "duration": 1.2272715000000005,
            "durationTicks": 864,
            "midi": 76,
            "name": "E5",
            "ticks": 87936,
            "time": 124.90896599999999,
            "velocity": 0.4881889763779528
          },
          {
            "duration": 1.2272715000000005,
            "durationTicks": 864,
            "midi": 88,
            "name": "E6",
            "ticks": 87936,
            "time": 124.90896599999999,
            "velocity": 0.4881889763779528
          },
          {
            "duration": 1.2272715000000005,
            "durationTicks": 864,
            "midi": 88,
            "name": "E6",
            "ticks": 87936,
            "time": 124.90896599999999,
            "velocity": 0.4881889763779528
          },
          {
            "duration": 1.2272715000000005,
            "durationTicks": 864,
            "midi": 76,
            "name": "E5",
            "ticks": 87936,
            "time": 124.90896599999999,
            "velocity": 0.4881889763779528
          },
          {
            "duration": 1.2272715000000005,
            "durationTicks": 864,
            "midi": 76,
            "name": "E5",
            "ticks": 87936,
            "time": 124.90896599999999,
            "velocity": 0.4881889763779528
          },
          {
            "duration": 1.2272715000000005,
            "durationTicks": 864,
            "midi": 88,
            "name": "E6",
            "ticks": 87936,
            "time": 124.90896599999999,
            "velocity": 0.4881889763779528
          },
          {
            "duration": 1.2272715000000005,
            "durationTicks": 864,
            "midi": 76,
            "name": "E5",
            "ticks": 87936,
            "time": 124.90896599999999,
            "velocity": 0.4881889763779528
          },
          {
            "duration": 1.2272715000000005,
            "durationTicks": 864,
            "midi": 88,
            "name": "E6",
            "ticks": 87936,
            "time": 124.90896599999999,
            "velocity": 0.4881889763779528
          },
          {
            "duration": 1.2272715000000005,
            "durationTicks": 864,
            "midi": 88,
            "name": "E6",
            "ticks": 87936,
            "time": 124.90896599999999,
            "velocity": 0.4881889763779528
          },
          {
            "duration": 1.2272715000000005,
            "durationTicks": 864,
            "midi": 88,
            "name": "E6",
            "ticks": 87936,
            "time": 124.90896599999999,
            "velocity": 0.4881889763779528
          },
          {
            "duration": 1.2272715000000005,
            "durationTicks": 864,
            "midi": 76,
            "name": "E5",
            "ticks": 87936,
            "time": 124.90896599999999,
            "velocity": 0.4881889763779528
          },
          {
            "duration": 0.5454540000000065,
            "durationTicks": 384,
            "midi": 87,
            "name": "D#6",
            "ticks": 88320,
            "time": 125.45442,
            "velocity": 0.4881889763779528
          },
          {
            "duration": 0.5454540000000065,
            "durationTicks": 384,
            "midi": 87,
            "name": "D#6",
            "ticks": 88320,
            "time": 125.45442,
            "velocity": 0.4881889763779528
          },
          {
            "duration": 0.5454540000000065,
            "durationTicks": 384,
            "midi": 99,
            "name": "D#7",
            "ticks": 88320,
            "time": 125.45442,
            "velocity": 0.4881889763779528
          },
          {
            "duration": 0.5454540000000065,
            "durationTicks": 384,
            "midi": 87,
            "name": "D#6",
            "ticks": 88320,
            "time": 125.45442,
            "velocity": 0.4881889763779528
          },
          {
            "duration": 0.5454540000000065,
            "durationTicks": 384,
            "midi": 99,
            "name": "D#7",
            "ticks": 88320,
            "time": 125.45442,
            "velocity": 0.4881889763779528
          },
          {
            "duration": 0.5454540000000065,
            "durationTicks": 384,
            "midi": 87,
            "name": "D#6",
            "ticks": 88320,
            "time": 125.45442,
            "velocity": 0.4881889763779528
          },
          {
            "duration": 0.5454540000000065,
            "durationTicks": 384,
            "midi": 87,
            "name": "D#6",
            "ticks": 88320,
            "time": 125.45442,
            "velocity": 0.4881889763779528
          },
          {
            "duration": 0.5454540000000065,
            "durationTicks": 384,
            "midi": 87,
            "name": "D#6",
            "ticks": 88320,
            "time": 125.45442,
            "velocity": 0.4881889763779528
          },
          {
            "duration": 0.5454540000000065,
            "durationTicks": 384,
            "midi": 99,
            "name": "D#7",
            "ticks": 88320,
            "time": 125.45442,
            "velocity": 0.4881889763779528
          },
          {
            "duration": 0.5454540000000065,
            "durationTicks": 384,
            "midi": 99,
            "name": "D#7",
            "ticks": 88320,
            "time": 125.45442,
            "velocity": 0.4881889763779528
          },
          {
            "duration": 0.5454540000000065,
            "durationTicks": 384,
            "midi": 99,
            "name": "D#7",
            "ticks": 88320,
            "time": 125.45442,
            "velocity": 0.4881889763779528
          },
          {
            "duration": 0.5454540000000065,
            "durationTicks": 384,
            "midi": 99,
            "name": "D#7",
            "ticks": 88320,
            "time": 125.45442,
            "velocity": 0.4881889763779528
          },
          {
            "duration": 0.5454539999999923,
            "durationTicks": 384,
            "midi": 97,
            "name": "C#7",
            "ticks": 88704,
            "time": 125.999874,
            "velocity": 0.4881889763779528
          },
          {
            "duration": 0.5454539999999923,
            "durationTicks": 384,
            "midi": 97,
            "name": "C#7",
            "ticks": 88704,
            "time": 125.999874,
            "velocity": 0.4881889763779528
          },
          {
            "duration": 0.5454539999999923,
            "durationTicks": 384,
            "midi": 97,
            "name": "C#7",
            "ticks": 88704,
            "time": 125.999874,
            "velocity": 0.4881889763779528
          },
          {
            "duration": 0.5454539999999923,
            "durationTicks": 384,
            "midi": 97,
            "name": "C#7",
            "ticks": 88704,
            "time": 125.999874,
            "velocity": 0.4881889763779528
          },
          {
            "duration": 0.5454539999999923,
            "durationTicks": 384,
            "midi": 97,
            "name": "C#7",
            "ticks": 88704,
            "time": 125.999874,
            "velocity": 0.4881889763779528
          },
          {
            "duration": 0.5454539999999923,
            "durationTicks": 384,
            "midi": 97,
            "name": "C#7",
            "ticks": 88704,
            "time": 125.999874,
            "velocity": 0.4881889763779528
          },
          {
            "duration": 0.2727270000000033,
            "durationTicks": 192,
            "midi": 85,
            "name": "C#6",
            "ticks": 88896,
            "time": 126.272601,
            "velocity": 0.4881889763779528
          },
          {
            "duration": 0.2727270000000033,
            "durationTicks": 192,
            "midi": 85,
            "name": "C#6",
            "ticks": 88896,
            "time": 126.272601,
            "velocity": 0.4881889763779528
          },
          {
            "duration": 0.2727270000000033,
            "durationTicks": 192,
            "midi": 85,
            "name": "C#6",
            "ticks": 88896,
            "time": 126.272601,
            "velocity": 0.4881889763779528
          },
          {
            "duration": 0.2727270000000033,
            "durationTicks": 192,
            "midi": 73,
            "name": "C#5",
            "ticks": 88896,
            "time": 126.272601,
            "velocity": 0.4881889763779528
          },
          {
            "duration": 0.2727270000000033,
            "durationTicks": 192,
            "midi": 73,
            "name": "C#5",
            "ticks": 88896,
            "time": 126.272601,
            "velocity": 0.4881889763779528
          },
          {
            "duration": 0.2727270000000033,
            "durationTicks": 192,
            "midi": 85,
            "name": "C#6",
            "ticks": 88896,
            "time": 126.272601,
            "velocity": 0.4881889763779528
          },
          {
            "duration": 0.2727270000000033,
            "durationTicks": 192,
            "midi": 73,
            "name": "C#5",
            "ticks": 88896,
            "time": 126.272601,
            "velocity": 0.4881889763779528
          },
          {
            "duration": 0.2727270000000033,
            "durationTicks": 192,
            "midi": 85,
            "name": "C#6",
            "ticks": 88896,
            "time": 126.272601,
            "velocity": 0.4881889763779528
          },
          {
            "duration": 0.2727270000000033,
            "durationTicks": 192,
            "midi": 73,
            "name": "C#5",
            "ticks": 88896,
            "time": 126.272601,
            "velocity": 0.4881889763779528
          },
          {
            "duration": 0.2727270000000033,
            "durationTicks": 192,
            "midi": 85,
            "name": "C#6",
            "ticks": 88896,
            "time": 126.272601,
            "velocity": 0.4881889763779528
          },
          {
            "duration": 0.2727270000000033,
            "durationTicks": 192,
            "midi": 85,
            "name": "C#6",
            "ticks": 88896,
            "time": 126.272601,
            "velocity": 0.4881889763779528
          },
          {
            "duration": 0.2727270000000033,
            "durationTicks": 192,
            "midi": 73,
            "name": "C#5",
            "ticks": 88896,
            "time": 126.272601,
            "velocity": 0.4881889763779528
          },
          {
            "duration": 0.2727270000000033,
            "durationTicks": 192,
            "midi": 85,
            "name": "C#6",
            "ticks": 88896,
            "time": 126.272601,
            "velocity": 0.4881889763779528
          },
          {
            "duration": 0.2727270000000033,
            "durationTicks": 192,
            "midi": 85,
            "name": "C#6",
            "ticks": 88896,
            "time": 126.272601,
            "velocity": 0.4881889763779528
          },
          {
            "duration": 0.2727270000000033,
            "durationTicks": 192,
            "midi": 73,
            "name": "C#5",
            "ticks": 88896,
            "time": 126.272601,
            "velocity": 0.4881889763779528
          },
          {
            "duration": 0.2727270000000033,
            "durationTicks": 192,
            "midi": 85,
            "name": "C#6",
            "ticks": 88896,
            "time": 126.272601,
            "velocity": 0.4881889763779528
          },
          {
            "duration": 0.2727270000000033,
            "durationTicks": 192,
            "midi": 85,
            "name": "C#6",
            "ticks": 88896,
            "time": 126.272601,
            "velocity": 0.4881889763779528
          },
          {
            "duration": 0.2727270000000033,
            "durationTicks": 192,
            "midi": 85,
            "name": "C#6",
            "ticks": 88896,
            "time": 126.272601,
            "velocity": 0.4881889763779528
          },
          {
            "duration": 2.045452499999996,
            "durationTicks": 1440,
            "midi": 45,
            "name": "A2",
            "ticks": 89088,
            "time": 126.545328,
            "velocity": 0.4881889763779528
          },
          {
            "duration": 2.045452499999996,
            "durationTicks": 1440,
            "midi": 57,
            "name": "A3",
            "ticks": 89088,
            "time": 126.545328,
            "velocity": 0.4881889763779528
          },
          {
            "duration": 1.0909079999999989,
            "durationTicks": 768,
            "midi": 88,
            "name": "E6",
            "ticks": 89088,
            "time": 126.545328,
            "velocity": 0.4881889763779528
          },
          {
            "duration": 1.0909079999999989,
            "durationTicks": 768,
            "midi": 93,
            "name": "A6",
            "ticks": 89088,
            "time": 126.545328,
            "velocity": 0.4881889763779528
          },
          {
            "duration": 1.0909079999999989,
            "durationTicks": 768,
            "midi": 100,
            "name": "E7",
            "ticks": 89088,
            "time": 126.545328,
            "velocity": 0.4881889763779528
          },
          {
            "duration": 1.0909079999999989,
            "durationTicks": 768,
            "midi": 93,
            "name": "A6",
            "ticks": 89088,
            "time": 126.545328,
            "velocity": 0.4881889763779528
          },
          {
            "duration": 2.045452499999996,
            "durationTicks": 1440,
            "midi": 57,
            "name": "A3",
            "ticks": 89088,
            "time": 126.545328,
            "velocity": 0.4881889763779528
          },
          {
            "duration": 1.0909079999999989,
            "durationTicks": 768,
            "midi": 88,
            "name": "E6",
            "ticks": 89088,
            "time": 126.545328,
            "velocity": 0.4881889763779528
          },
          {
            "duration": 1.0909079999999989,
            "durationTicks": 768,
            "midi": 88,
            "name": "E6",
            "ticks": 89088,
            "time": 126.545328,
            "velocity": 0.4881889763779528
          },
          {
            "duration": 1.0909079999999989,
            "durationTicks": 768,
            "midi": 88,
            "name": "E6",
            "ticks": 89088,
            "time": 126.545328,
            "velocity": 0.4881889763779528
          },
          {
            "duration": 1.0909079999999989,
            "durationTicks": 768,
            "midi": 97,
            "name": "C#7",
            "ticks": 89088,
            "time": 126.545328,
            "velocity": 0.4881889763779528
          },
          {
            "duration": 2.045452499999996,
            "durationTicks": 1440,
            "midi": 57,
            "name": "A3",
            "ticks": 89088,
            "time": 126.545328,
            "velocity": 0.4881889763779528
          },
          {
            "duration": 2.045452499999996,
            "durationTicks": 1440,
            "midi": 45,
            "name": "A2",
            "ticks": 89088,
            "time": 126.545328,
            "velocity": 0.4881889763779528
          },
          {
            "duration": 1.0909079999999989,
            "durationTicks": 768,
            "midi": 93,
            "name": "A6",
            "ticks": 89088,
            "time": 126.545328,
            "velocity": 0.4881889763779528
          },
          {
            "duration": 1.0909079999999989,
            "durationTicks": 768,
            "midi": 100,
            "name": "E7",
            "ticks": 89088,
            "time": 126.545328,
            "velocity": 0.4881889763779528
          },
          {
            "duration": 2.045452499999996,
            "durationTicks": 1440,
            "midi": 45,
            "name": "A2",
            "ticks": 89088,
            "time": 126.545328,
            "velocity": 0.4881889763779528
          },
          {
            "duration": 1.0909079999999989,
            "durationTicks": 768,
            "midi": 97,
            "name": "C#7",
            "ticks": 89088,
            "time": 126.545328,
            "velocity": 0.4881889763779528
          },
          {
            "duration": 2.045452499999996,
            "durationTicks": 1440,
            "midi": 45,
            "name": "A2",
            "ticks": 89088,
            "time": 126.545328,
            "velocity": 0.4881889763779528
          },
          {
            "duration": 2.045452499999996,
            "durationTicks": 1440,
            "midi": 45,
            "name": "A2",
            "ticks": 89088,
            "time": 126.545328,
            "velocity": 0.4881889763779528
          },
          {
            "duration": 2.045452499999996,
            "durationTicks": 1440,
            "midi": 57,
            "name": "A3",
            "ticks": 89088,
            "time": 126.545328,
            "velocity": 0.4881889763779528
          },
          {
            "duration": 1.0909079999999989,
            "durationTicks": 768,
            "midi": 97,
            "name": "C#7",
            "ticks": 89088,
            "time": 126.545328,
            "velocity": 0.4881889763779528
          },
          {
            "duration": 1.0909079999999989,
            "durationTicks": 768,
            "midi": 100,
            "name": "E7",
            "ticks": 89088,
            "time": 126.545328,
            "velocity": 0.4881889763779528
          },
          {
            "duration": 1.0909079999999989,
            "durationTicks": 768,
            "midi": 93,
            "name": "A6",
            "ticks": 89088,
            "time": 126.545328,
            "velocity": 0.4881889763779528
          },
          {
            "duration": 1.0909079999999989,
            "durationTicks": 768,
            "midi": 93,
            "name": "A6",
            "ticks": 89088,
            "time": 126.545328,
            "velocity": 0.4881889763779528
          },
          {
            "duration": 2.045452499999996,
            "durationTicks": 1440,
            "midi": 57,
            "name": "A3",
            "ticks": 89088,
            "time": 126.545328,
            "velocity": 0.4881889763779528
          },
          {
            "duration": 1.0909079999999989,
            "durationTicks": 768,
            "midi": 100,
            "name": "E7",
            "ticks": 89088,
            "time": 126.545328,
            "velocity": 0.4881889763779528
          },
          {
            "duration": 1.0909079999999989,
            "durationTicks": 768,
            "midi": 100,
            "name": "E7",
            "ticks": 89088,
            "time": 126.545328,
            "velocity": 0.4881889763779528
          },
          {
            "duration": 1.0909079999999989,
            "durationTicks": 768,
            "midi": 88,
            "name": "E6",
            "ticks": 89088,
            "time": 126.545328,
            "velocity": 0.4881889763779528
          },
          {
            "duration": 1.0909079999999989,
            "durationTicks": 768,
            "midi": 93,
            "name": "A6",
            "ticks": 89088,
            "time": 126.545328,
            "velocity": 0.4881889763779528
          },
          {
            "duration": 2.045452499999996,
            "durationTicks": 1440,
            "midi": 45,
            "name": "A2",
            "ticks": 89088,
            "time": 126.545328,
            "velocity": 0.4881889763779528
          },
          {
            "duration": 1.0909079999999989,
            "durationTicks": 768,
            "midi": 88,
            "name": "E6",
            "ticks": 89088,
            "time": 126.545328,
            "velocity": 0.4881889763779528
          },
          {
            "duration": 1.0909079999999989,
            "durationTicks": 768,
            "midi": 97,
            "name": "C#7",
            "ticks": 89088,
            "time": 126.545328,
            "velocity": 0.4881889763779528
          },
          {
            "duration": 1.0909079999999989,
            "durationTicks": 768,
            "midi": 97,
            "name": "C#7",
            "ticks": 89088,
            "time": 126.545328,
            "velocity": 0.4881889763779528
          },
          {
            "duration": 1.0909079999999989,
            "durationTicks": 768,
            "midi": 100,
            "name": "E7",
            "ticks": 89088,
            "time": 126.545328,
            "velocity": 0.4881889763779528
          },
          {
            "duration": 2.045452499999996,
            "durationTicks": 1440,
            "midi": 57,
            "name": "A3",
            "ticks": 89088,
            "time": 126.545328,
            "velocity": 0.4881889763779528
          },
          {
            "duration": 1.0909079999999989,
            "durationTicks": 768,
            "midi": 97,
            "name": "C#7",
            "ticks": 89088,
            "time": 126.545328,
            "velocity": 0.4881889763779528
          },
          {
            "duration": 0.5454540000000065,
            "durationTicks": 384,
            "midi": 99,
            "name": "D#7",
            "ticks": 89856,
            "time": 127.636236,
            "velocity": 0.4881889763779528
          },
          {
            "duration": 0.5454540000000065,
            "durationTicks": 384,
            "midi": 87,
            "name": "D#6",
            "ticks": 89856,
            "time": 127.636236,
            "velocity": 0.4881889763779528
          },
          {
            "duration": 0.5454540000000065,
            "durationTicks": 384,
            "midi": 99,
            "name": "D#7",
            "ticks": 89856,
            "time": 127.636236,
            "velocity": 0.4881889763779528
          },
          {
            "duration": 0.5454540000000065,
            "durationTicks": 384,
            "midi": 87,
            "name": "D#6",
            "ticks": 89856,
            "time": 127.636236,
            "velocity": 0.4881889763779528
          },
          {
            "duration": 0.5454540000000065,
            "durationTicks": 384,
            "midi": 99,
            "name": "D#7",
            "ticks": 89856,
            "time": 127.636236,
            "velocity": 0.4881889763779528
          },
          {
            "duration": 0.5454540000000065,
            "durationTicks": 384,
            "midi": 87,
            "name": "D#6",
            "ticks": 89856,
            "time": 127.636236,
            "velocity": 0.4881889763779528
          },
          {
            "duration": 0.5454540000000065,
            "durationTicks": 384,
            "midi": 87,
            "name": "D#6",
            "ticks": 89856,
            "time": 127.636236,
            "velocity": 0.4881889763779528
          },
          {
            "duration": 0.5454540000000065,
            "durationTicks": 384,
            "midi": 87,
            "name": "D#6",
            "ticks": 89856,
            "time": 127.636236,
            "velocity": 0.4881889763779528
          },
          {
            "duration": 0.5454540000000065,
            "durationTicks": 384,
            "midi": 99,
            "name": "D#7",
            "ticks": 89856,
            "time": 127.636236,
            "velocity": 0.4881889763779528
          },
          {
            "duration": 0.5454540000000065,
            "durationTicks": 384,
            "midi": 99,
            "name": "D#7",
            "ticks": 89856,
            "time": 127.636236,
            "velocity": 0.4881889763779528
          },
          {
            "duration": 0.5454540000000065,
            "durationTicks": 384,
            "midi": 87,
            "name": "D#6",
            "ticks": 89856,
            "time": 127.636236,
            "velocity": 0.4881889763779528
          },
          {
            "duration": 0.5454540000000065,
            "durationTicks": 384,
            "midi": 99,
            "name": "D#7",
            "ticks": 89856,
            "time": 127.636236,
            "velocity": 0.4881889763779528
          },
          {
            "duration": 0.5454540000000065,
            "durationTicks": 384,
            "midi": 85,
            "name": "C#6",
            "ticks": 90240,
            "time": 128.18169,
            "velocity": 0.4881889763779528
          },
          {
            "duration": 0.5454540000000065,
            "durationTicks": 384,
            "midi": 97,
            "name": "C#7",
            "ticks": 90240,
            "time": 128.18169,
            "velocity": 0.4881889763779528
          },
          {
            "duration": 0.5454540000000065,
            "durationTicks": 384,
            "midi": 85,
            "name": "C#6",
            "ticks": 90240,
            "time": 128.18169,
            "velocity": 0.4881889763779528
          },
          {
            "duration": 0.5454540000000065,
            "durationTicks": 384,
            "midi": 97,
            "name": "C#7",
            "ticks": 90240,
            "time": 128.18169,
            "velocity": 0.4881889763779528
          },
          {
            "duration": 0.5454540000000065,
            "durationTicks": 384,
            "midi": 85,
            "name": "C#6",
            "ticks": 90240,
            "time": 128.18169,
            "velocity": 0.4881889763779528
          },
          {
            "duration": 0.5454540000000065,
            "durationTicks": 384,
            "midi": 97,
            "name": "C#7",
            "ticks": 90240,
            "time": 128.18169,
            "velocity": 0.4881889763779528
          },
          {
            "duration": 0.5454540000000065,
            "durationTicks": 384,
            "midi": 85,
            "name": "C#6",
            "ticks": 90240,
            "time": 128.18169,
            "velocity": 0.4881889763779528
          },
          {
            "duration": 0.5454540000000065,
            "durationTicks": 384,
            "midi": 85,
            "name": "C#6",
            "ticks": 90240,
            "time": 128.18169,
            "velocity": 0.4881889763779528
          },
          {
            "duration": 0.5454540000000065,
            "durationTicks": 384,
            "midi": 97,
            "name": "C#7",
            "ticks": 90240,
            "time": 128.18169,
            "velocity": 0.4881889763779528
          },
          {
            "duration": 0.5454540000000065,
            "durationTicks": 384,
            "midi": 97,
            "name": "C#7",
            "ticks": 90240,
            "time": 128.18169,
            "velocity": 0.4881889763779528
          },
          {
            "duration": 0.5454540000000065,
            "durationTicks": 384,
            "midi": 85,
            "name": "C#6",
            "ticks": 90240,
            "time": 128.18169,
            "velocity": 0.4881889763779528
          },
          {
            "duration": 0.5454540000000065,
            "durationTicks": 384,
            "midi": 97,
            "name": "C#7",
            "ticks": 90240,
            "time": 128.18169,
            "velocity": 0.4881889763779528
          },
          {
            "duration": 2.045452499999982,
            "durationTicks": 1440,
            "midi": 40,
            "name": "E2",
            "ticks": 90624,
            "time": 128.727144,
            "velocity": 0.4881889763779528
          },
          {
            "duration": 1.0909079999999847,
            "durationTicks": 768,
            "midi": 95,
            "name": "B6",
            "ticks": 90624,
            "time": 128.727144,
            "velocity": 0.4881889763779528
          },
          {
            "duration": 1.0909079999999847,
            "durationTicks": 768,
            "midi": 95,
            "name": "B6",
            "ticks": 90624,
            "time": 128.727144,
            "velocity": 0.4881889763779528
          },
          {
            "duration": 1.0909079999999847,
            "durationTicks": 768,
            "midi": 100,
            "name": "E7",
            "ticks": 90624,
            "time": 128.727144,
            "velocity": 0.4881889763779528
          },
          {
            "duration": 2.045452499999982,
            "durationTicks": 1440,
            "midi": 52,
            "name": "E3",
            "ticks": 90624,
            "time": 128.727144,
            "velocity": 0.4881889763779528
          },
          {
            "duration": 1.0909079999999847,
            "durationTicks": 768,
            "midi": 92,
            "name": "G#6",
            "ticks": 90624,
            "time": 128.727144,
            "velocity": 0.4881889763779528
          },
          {
            "duration": 1.0909079999999847,
            "durationTicks": 768,
            "midi": 88,
            "name": "E6",
            "ticks": 90624,
            "time": 128.727144,
            "velocity": 0.4881889763779528
          },
          {
            "duration": 2.045452499999982,
            "durationTicks": 1440,
            "midi": 40,
            "name": "E2",
            "ticks": 90624,
            "time": 128.727144,
            "velocity": 0.4881889763779528
          },
          {
            "duration": 1.0909079999999847,
            "durationTicks": 768,
            "midi": 92,
            "name": "G#6",
            "ticks": 90624,
            "time": 128.727144,
            "velocity": 0.4881889763779528
          },
          {
            "duration": 1.0909079999999847,
            "durationTicks": 768,
            "midi": 100,
            "name": "E7",
            "ticks": 90624,
            "time": 128.727144,
            "velocity": 0.4881889763779528
          },
          {
            "duration": 1.0909079999999847,
            "durationTicks": 768,
            "midi": 95,
            "name": "B6",
            "ticks": 90624,
            "time": 128.727144,
            "velocity": 0.4881889763779528
          },
          {
            "duration": 1.0909079999999847,
            "durationTicks": 768,
            "midi": 88,
            "name": "E6",
            "ticks": 90624,
            "time": 128.727144,
            "velocity": 0.4881889763779528
          },
          {
            "duration": 1.0909079999999847,
            "durationTicks": 768,
            "midi": 88,
            "name": "E6",
            "ticks": 90624,
            "time": 128.727144,
            "velocity": 0.4881889763779528
          },
          {
            "duration": 1.0909079999999847,
            "durationTicks": 768,
            "midi": 100,
            "name": "E7",
            "ticks": 90624,
            "time": 128.727144,
            "velocity": 0.4881889763779528
          },
          {
            "duration": 2.045452499999982,
            "durationTicks": 1440,
            "midi": 52,
            "name": "E3",
            "ticks": 90624,
            "time": 128.727144,
            "velocity": 0.4881889763779528
          },
          {
            "duration": 2.045452499999982,
            "durationTicks": 1440,
            "midi": 40,
            "name": "E2",
            "ticks": 90624,
            "time": 128.727144,
            "velocity": 0.4881889763779528
          },
          {
            "duration": 2.045452499999982,
            "durationTicks": 1440,
            "midi": 40,
            "name": "E2",
            "ticks": 90624,
            "time": 128.727144,
            "velocity": 0.4881889763779528
          },
          {
            "duration": 2.045452499999982,
            "durationTicks": 1440,
            "midi": 40,
            "name": "E2",
            "ticks": 90624,
            "time": 128.727144,
            "velocity": 0.4881889763779528
          },
          {
            "duration": 2.045452499999982,
            "durationTicks": 1440,
            "midi": 52,
            "name": "E3",
            "ticks": 90624,
            "time": 128.727144,
            "velocity": 0.4881889763779528
          },
          {
            "duration": 1.0909079999999847,
            "durationTicks": 768,
            "midi": 95,
            "name": "B6",
            "ticks": 90624,
            "time": 128.727144,
            "velocity": 0.4881889763779528
          },
          {
            "duration": 1.0909079999999847,
            "durationTicks": 768,
            "midi": 92,
            "name": "G#6",
            "ticks": 90624,
            "time": 128.727144,
            "velocity": 0.4881889763779528
          },
          {
            "duration": 2.045452499999982,
            "durationTicks": 1440,
            "midi": 40,
            "name": "E2",
            "ticks": 90624,
            "time": 128.727144,
            "velocity": 0.4881889763779528
          },
          {
            "duration": 2.045452499999982,
            "durationTicks": 1440,
            "midi": 52,
            "name": "E3",
            "ticks": 90624,
            "time": 128.727144,
            "velocity": 0.4881889763779528
          },
          {
            "duration": 1.0909079999999847,
            "durationTicks": 768,
            "midi": 92,
            "name": "G#6",
            "ticks": 90624,
            "time": 128.727144,
            "velocity": 0.4881889763779528
          },
          {
            "duration": 1.0909079999999847,
            "durationTicks": 768,
            "midi": 92,
            "name": "G#6",
            "ticks": 90624,
            "time": 128.727144,
            "velocity": 0.4881889763779528
          },
          {
            "duration": 1.0909079999999847,
            "durationTicks": 768,
            "midi": 95,
            "name": "B6",
            "ticks": 90624,
            "time": 128.727144,
            "velocity": 0.4881889763779528
          },
          {
            "duration": 1.0909079999999847,
            "durationTicks": 768,
            "midi": 92,
            "name": "G#6",
            "ticks": 90624,
            "time": 128.727144,
            "velocity": 0.4881889763779528
          },
          {
            "duration": 1.0909079999999847,
            "durationTicks": 768,
            "midi": 88,
            "name": "E6",
            "ticks": 90624,
            "time": 128.727144,
            "velocity": 0.4881889763779528
          },
          {
            "duration": 1.0909079999999847,
            "durationTicks": 768,
            "midi": 88,
            "name": "E6",
            "ticks": 90624,
            "time": 128.727144,
            "velocity": 0.4881889763779528
          },
          {
            "duration": 1.0909079999999847,
            "durationTicks": 768,
            "midi": 100,
            "name": "E7",
            "ticks": 90624,
            "time": 128.727144,
            "velocity": 0.4881889763779528
          },
          {
            "duration": 2.045452499999982,
            "durationTicks": 1440,
            "midi": 52,
            "name": "E3",
            "ticks": 90624,
            "time": 128.727144,
            "velocity": 0.4881889763779528
          },
          {
            "duration": 1.0909079999999847,
            "durationTicks": 768,
            "midi": 100,
            "name": "E7",
            "ticks": 90624,
            "time": 128.727144,
            "velocity": 0.4881889763779528
          },
          {
            "duration": 2.045452499999982,
            "durationTicks": 1440,
            "midi": 52,
            "name": "E3",
            "ticks": 90624,
            "time": 128.727144,
            "velocity": 0.4881889763779528
          },
          {
            "duration": 1.0909079999999847,
            "durationTicks": 768,
            "midi": 95,
            "name": "B6",
            "ticks": 90624,
            "time": 128.727144,
            "velocity": 0.4881889763779528
          },
          {
            "duration": 1.0909079999999847,
            "durationTicks": 768,
            "midi": 100,
            "name": "E7",
            "ticks": 90624,
            "time": 128.727144,
            "velocity": 0.4881889763779528
          },
          {
            "duration": 1.0909079999999847,
            "durationTicks": 768,
            "midi": 88,
            "name": "E6",
            "ticks": 90624,
            "time": 128.727144,
            "velocity": 0.4881889763779528
          },
          {
            "duration": 0.5454540000000065,
            "durationTicks": 384,
            "midi": 87,
            "name": "D#6",
            "ticks": 91392,
            "time": 129.818052,
            "velocity": 0.4881889763779528
          },
          {
            "duration": 0.5454540000000065,
            "durationTicks": 384,
            "midi": 99,
            "name": "D#7",
            "ticks": 91392,
            "time": 129.818052,
            "velocity": 0.4881889763779528
          },
          {
            "duration": 0.5454540000000065,
            "durationTicks": 384,
            "midi": 87,
            "name": "D#6",
            "ticks": 91392,
            "time": 129.818052,
            "velocity": 0.4881889763779528
          },
          {
            "duration": 0.5454540000000065,
            "durationTicks": 384,
            "midi": 99,
            "name": "D#7",
            "ticks": 91392,
            "time": 129.818052,
            "velocity": 0.4881889763779528
          },
          {
            "duration": 0.5454540000000065,
            "durationTicks": 384,
            "midi": 99,
            "name": "D#7",
            "ticks": 91392,
            "time": 129.818052,
            "velocity": 0.4881889763779528
          },
          {
            "duration": 0.5454540000000065,
            "durationTicks": 384,
            "midi": 99,
            "name": "D#7",
            "ticks": 91392,
            "time": 129.818052,
            "velocity": 0.4881889763779528
          },
          {
            "duration": 0.5454540000000065,
            "durationTicks": 384,
            "midi": 87,
            "name": "D#6",
            "ticks": 91392,
            "time": 129.818052,
            "velocity": 0.4881889763779528
          },
          {
            "duration": 0.5454540000000065,
            "durationTicks": 384,
            "midi": 99,
            "name": "D#7",
            "ticks": 91392,
            "time": 129.818052,
            "velocity": 0.4881889763779528
          },
          {
            "duration": 0.5454540000000065,
            "durationTicks": 384,
            "midi": 87,
            "name": "D#6",
            "ticks": 91392,
            "time": 129.818052,
            "velocity": 0.4881889763779528
          },
          {
            "duration": 0.5454540000000065,
            "durationTicks": 384,
            "midi": 87,
            "name": "D#6",
            "ticks": 91392,
            "time": 129.818052,
            "velocity": 0.4881889763779528
          },
          {
            "duration": 0.5454540000000065,
            "durationTicks": 384,
            "midi": 87,
            "name": "D#6",
            "ticks": 91392,
            "time": 129.818052,
            "velocity": 0.4881889763779528
          },
          {
            "duration": 0.5454540000000065,
            "durationTicks": 384,
            "midi": 99,
            "name": "D#7",
            "ticks": 91392,
            "time": 129.818052,
            "velocity": 0.4881889763779528
          },
          {
            "duration": 0.5454540000000065,
            "durationTicks": 384,
            "midi": 95,
            "name": "B6",
            "ticks": 91776,
            "time": 130.363506,
            "velocity": 0.4881889763779528
          },
          {
            "duration": 0.5454540000000065,
            "durationTicks": 384,
            "midi": 95,
            "name": "B6",
            "ticks": 91776,
            "time": 130.363506,
            "velocity": 0.4881889763779528
          },
          {
            "duration": 0.5454540000000065,
            "durationTicks": 384,
            "midi": 95,
            "name": "B6",
            "ticks": 91776,
            "time": 130.363506,
            "velocity": 0.4881889763779528
          },
          {
            "duration": 0.5454540000000065,
            "durationTicks": 384,
            "midi": 95,
            "name": "B6",
            "ticks": 91776,
            "time": 130.363506,
            "velocity": 0.4881889763779528
          },
          {
            "duration": 0.5454540000000065,
            "durationTicks": 384,
            "midi": 83,
            "name": "B5",
            "ticks": 91776,
            "time": 130.363506,
            "velocity": 0.4881889763779528
          },
          {
            "duration": 0.5454540000000065,
            "durationTicks": 384,
            "midi": 83,
            "name": "B5",
            "ticks": 91776,
            "time": 130.363506,
            "velocity": 0.4881889763779528
          },
          {
            "duration": 0.5454540000000065,
            "durationTicks": 384,
            "midi": 95,
            "name": "B6",
            "ticks": 91776,
            "time": 130.363506,
            "velocity": 0.4881889763779528
          },
          {
            "duration": 0.5454540000000065,
            "durationTicks": 384,
            "midi": 83,
            "name": "B5",
            "ticks": 91776,
            "time": 130.363506,
            "velocity": 0.4881889763779528
          },
          {
            "duration": 0.5454540000000065,
            "durationTicks": 384,
            "midi": 83,
            "name": "B5",
            "ticks": 91776,
            "time": 130.363506,
            "velocity": 0.4881889763779528
          },
          {
            "duration": 0.5454540000000065,
            "durationTicks": 384,
            "midi": 83,
            "name": "B5",
            "ticks": 91776,
            "time": 130.363506,
            "velocity": 0.4881889763779528
          },
          {
            "duration": 0.5454540000000065,
            "durationTicks": 384,
            "midi": 83,
            "name": "B5",
            "ticks": 91776,
            "time": 130.363506,
            "velocity": 0.4881889763779528
          },
          {
            "duration": 0.5454540000000065,
            "durationTicks": 384,
            "midi": 95,
            "name": "B6",
            "ticks": 91776,
            "time": 130.363506,
            "velocity": 0.4881889763779528
          },
          {
            "duration": 2.045452499999982,
            "durationTicks": 1440,
            "midi": 56,
            "name": "G#3",
            "ticks": 92160,
            "time": 130.90896,
            "velocity": 0.4881889763779528
          },
          {
            "duration": 1.0909079999999847,
            "durationTicks": 768,
            "midi": 97,
            "name": "C#7",
            "ticks": 92160,
            "time": 130.90896,
            "velocity": 0.4881889763779528
          },
          {
            "duration": 2.045452499999982,
            "durationTicks": 1440,
            "midi": 44,
            "name": "G#2",
            "ticks": 92160,
            "time": 130.90896,
            "velocity": 0.4881889763779528
          },
          {
            "duration": 2.045452499999982,
            "durationTicks": 1440,
            "midi": 56,
            "name": "G#3",
            "ticks": 92160,
            "time": 130.90896,
            "velocity": 0.4881889763779528
          },
          {
            "duration": 2.045452499999982,
            "durationTicks": 1440,
            "midi": 56,
            "name": "G#3",
            "ticks": 92160,
            "time": 130.90896,
            "velocity": 0.4881889763779528
          },
          {
            "duration": 1.0909079999999847,
            "durationTicks": 768,
            "midi": 85,
            "name": "C#6",
            "ticks": 92160,
            "time": 130.90896,
            "velocity": 0.4881889763779528
          },
          {
            "duration": 2.045452499999982,
            "durationTicks": 1440,
            "midi": 44,
            "name": "G#2",
            "ticks": 92160,
            "time": 130.90896,
            "velocity": 0.4881889763779528
          },
          {
            "duration": 2.045452499999982,
            "durationTicks": 1440,
            "midi": 44,
            "name": "G#2",
            "ticks": 92160,
            "time": 130.90896,
            "velocity": 0.4881889763779528
          },
          {
            "duration": 1.0909079999999847,
            "durationTicks": 768,
            "midi": 85,
            "name": "C#6",
            "ticks": 92160,
            "time": 130.90896,
            "velocity": 0.4881889763779528
          },
          {
            "duration": 2.045452499999982,
            "durationTicks": 1440,
            "midi": 44,
            "name": "G#2",
            "ticks": 92160,
            "time": 130.90896,
            "velocity": 0.4881889763779528
          },
          {
            "duration": 1.0909079999999847,
            "durationTicks": 768,
            "midi": 85,
            "name": "C#6",
            "ticks": 92160,
            "time": 130.90896,
            "velocity": 0.4881889763779528
          },
          {
            "duration": 2.045452499999982,
            "durationTicks": 1440,
            "midi": 44,
            "name": "G#2",
            "ticks": 92160,
            "time": 130.90896,
            "velocity": 0.4881889763779528
          },
          {
            "duration": 1.0909079999999847,
            "durationTicks": 768,
            "midi": 85,
            "name": "C#6",
            "ticks": 92160,
            "time": 130.90896,
            "velocity": 0.4881889763779528
          },
          {
            "duration": 2.045452499999982,
            "durationTicks": 1440,
            "midi": 44,
            "name": "G#2",
            "ticks": 92160,
            "time": 130.90896,
            "velocity": 0.4881889763779528
          },
          {
            "duration": 1.0909079999999847,
            "durationTicks": 768,
            "midi": 97,
            "name": "C#7",
            "ticks": 92160,
            "time": 130.90896,
            "velocity": 0.4881889763779528
          },
          {
            "duration": 2.045452499999982,
            "durationTicks": 1440,
            "midi": 56,
            "name": "G#3",
            "ticks": 92160,
            "time": 130.90896,
            "velocity": 0.4881889763779528
          },
          {
            "duration": 2.045452499999982,
            "durationTicks": 1440,
            "midi": 56,
            "name": "G#3",
            "ticks": 92160,
            "time": 130.90896,
            "velocity": 0.4881889763779528
          },
          {
            "duration": 2.045452499999982,
            "durationTicks": 1440,
            "midi": 56,
            "name": "G#3",
            "ticks": 92160,
            "time": 130.90896,
            "velocity": 0.4881889763779528
          },
          {
            "duration": 1.0909079999999847,
            "durationTicks": 768,
            "midi": 85,
            "name": "C#6",
            "ticks": 92160,
            "time": 130.90896,
            "velocity": 0.4881889763779528
          },
          {
            "duration": 1.0909079999999847,
            "durationTicks": 768,
            "midi": 97,
            "name": "C#7",
            "ticks": 92160,
            "time": 130.90896,
            "velocity": 0.4881889763779528
          },
          {
            "duration": 1.0909079999999847,
            "durationTicks": 768,
            "midi": 97,
            "name": "C#7",
            "ticks": 92160,
            "time": 130.90896,
            "velocity": 0.4881889763779528
          },
          {
            "duration": 1.0909079999999847,
            "durationTicks": 768,
            "midi": 97,
            "name": "C#7",
            "ticks": 92160,
            "time": 130.90896,
            "velocity": 0.4881889763779528
          },
          {
            "duration": 1.0909079999999847,
            "durationTicks": 768,
            "midi": 97,
            "name": "C#7",
            "ticks": 92160,
            "time": 130.90896,
            "velocity": 0.4881889763779528
          },
          {
            "duration": 1.0909079999999847,
            "durationTicks": 768,
            "midi": 85,
            "name": "C#6",
            "ticks": 92160,
            "time": 130.90896,
            "velocity": 0.4881889763779528
          },
          {
            "duration": 1.090908000000013,
            "durationTicks": 768,
            "midi": 90,
            "name": "F#6",
            "ticks": 92928,
            "time": 131.999868,
            "velocity": 0.4881889763779528
          },
          {
            "duration": 1.090908000000013,
            "durationTicks": 768,
            "midi": 102,
            "name": "F#7",
            "ticks": 92928,
            "time": 131.999868,
            "velocity": 0.4881889763779528
          },
          {
            "duration": 1.090908000000013,
            "durationTicks": 768,
            "midi": 102,
            "name": "F#7",
            "ticks": 92928,
            "time": 131.999868,
            "velocity": 0.4881889763779528
          },
          {
            "duration": 1.090908000000013,
            "durationTicks": 768,
            "midi": 102,
            "name": "F#7",
            "ticks": 92928,
            "time": 131.999868,
            "velocity": 0.4881889763779528
          },
          {
            "duration": 1.090908000000013,
            "durationTicks": 768,
            "midi": 90,
            "name": "F#6",
            "ticks": 92928,
            "time": 131.999868,
            "velocity": 0.4881889763779528
          },
          {
            "duration": 1.090908000000013,
            "durationTicks": 768,
            "midi": 90,
            "name": "F#6",
            "ticks": 92928,
            "time": 131.999868,
            "velocity": 0.4881889763779528
          },
          {
            "duration": 1.090908000000013,
            "durationTicks": 768,
            "midi": 102,
            "name": "F#7",
            "ticks": 92928,
            "time": 131.999868,
            "velocity": 0.4881889763779528
          },
          {
            "duration": 1.090908000000013,
            "durationTicks": 768,
            "midi": 90,
            "name": "F#6",
            "ticks": 92928,
            "time": 131.999868,
            "velocity": 0.4881889763779528
          },
          {
            "duration": 1.090908000000013,
            "durationTicks": 768,
            "midi": 90,
            "name": "F#6",
            "ticks": 92928,
            "time": 131.999868,
            "velocity": 0.4881889763779528
          },
          {
            "duration": 1.090908000000013,
            "durationTicks": 768,
            "midi": 102,
            "name": "F#7",
            "ticks": 92928,
            "time": 131.999868,
            "velocity": 0.4881889763779528
          },
          {
            "duration": 1.090908000000013,
            "durationTicks": 768,
            "midi": 102,
            "name": "F#7",
            "ticks": 92928,
            "time": 131.999868,
            "velocity": 0.4881889763779528
          },
          {
            "duration": 1.090908000000013,
            "durationTicks": 768,
            "midi": 90,
            "name": "F#6",
            "ticks": 92928,
            "time": 131.999868,
            "velocity": 0.4881889763779528
          }
        ],
        "endOfTrackTicks": 93696
      }
    ]
  }
