{
  "header": {
    "keySignatures": [],
    "meta": [],
    "name": "",
    "ppq": 384,
    "tempos": [
      {
        "bpm": 171.00009405005173,
        "ticks": 0
      }
    ],
    "timeSignatures": [
      {
        "ticks": 0,
        "timeSignature": [
          1,
          4
        ],
        "measures": 0
      }
    ]
  },
  "tracks": [
    {
      "channel": 0,
      "controlChanges": {},
      "pitchBends": [],
      "instrument": {
        "family": "guitar",
        "number": 24,
        "name": "acoustic guitar (nylon)"
      },
      "name": "Acoustic Guitar",
      "notes": [
        {
          "duration": 0.08771924999999214,
          "durationTicks": 96,
          "midi": 34,
          "name": "A#1",
          "ticks": 98592,
          "time": 90.08766975,
          "velocity": 0.7007874015748031
        },
        {
          "duration": 0.08771924999999214,
          "durationTicks": 96,
          "midi": 50,
          "name": "D3",
          "ticks": 98976,
          "time": 90.43854675,
          "velocity": 0.7007874015748031
        },
        {
          "duration": 0.08771925000000635,
          "durationTicks": 96,
          "midi": 27,
          "name": "D#1",
          "ticks": 99360,
          "time": 90.78942375,
          "velocity": 0.7007874015748031
        },
        {
          "duration": 0.08771925000000635,
          "durationTicks": 96,
          "midi": 50,
          "name": "D3",
          "ticks": 99744,
          "time": 91.14030075,
          "velocity": 0.7007874015748031
        },
        {
          "duration": 0.08771924999999214,
          "durationTicks": 96,
          "midi": 34,
          "name": "A#1",
          "ticks": 100128,
          "time": 91.49117775,
          "velocity": 0.7007874015748031
        },
        {
          "duration": 0.08771924999999214,
          "durationTicks": 96,
          "midi": 50,
          "name": "D3",
          "ticks": 100512,
          "time": 91.84205475,
          "velocity": 0.7007874015748031
        },
        {
          "duration": 0.08771924999999214,
          "durationTicks": 96,
          "midi": 27,
          "name": "D#1",
          "ticks": 100896,
          "time": 92.19293175,
          "velocity": 0.7007874015748031
        },
        {
          "duration": 0.08771925000000635,
          "durationTicks": 96,
          "midi": 50,
          "name": "D3",
          "ticks": 101280,
          "time": 92.54380875,
          "velocity": 0.7007874015748031
        },
        {
          "duration": 0.08771925000000635,
          "durationTicks": 96,
          "midi": 41,
          "name": "F2",
          "ticks": 101664,
          "time": 92.89468575,
          "velocity": 0.7007874015748031
        },
        {
          "duration": 0.08771924999999214,
          "durationTicks": 96,
          "midi": 53,
          "name": "F3",
          "ticks": 102048,
          "time": 93.24556275,
          "velocity": 0.7007874015748031
        },
        {
          "duration": 0.08771924999999214,
          "durationTicks": 96,
          "midi": 34,
          "name": "A#1",
          "ticks": 102432,
          "time": 93.59643975,
          "velocity": 0.7007874015748031
        },
        {
          "duration": 0.08771925000000635,
          "durationTicks": 96,
          "midi": 53,
          "name": "F3",
          "ticks": 102816,
          "time": 93.94731675,
          "velocity": 0.7007874015748031
        },
        {
          "duration": 0.08771925000000635,
          "durationTicks": 96,
          "midi": 41,
          "name": "F2",
          "ticks": 103200,
          "time": 94.29819375,
          "velocity": 0.7007874015748031
        },
        {
          "duration": 0.08771925000000635,
          "durationTicks": 96,
          "midi": 53,
          "name": "F3",
          "ticks": 103584,
          "time": 94.64907074999999,
          "velocity": 0.7007874015748031
        },
        {
          "duration": 0.08771924999999214,
          "durationTicks": 96,
          "midi": 34,
          "name": "A#1",
          "ticks": 103968,
          "time": 94.99994775,
          "velocity": 0.7007874015748031
        },
        {
          "duration": 0.08771924999999214,
          "durationTicks": 96,
          "midi": 53,
          "name": "F3",
          "ticks": 104352,
          "time": 95.35082475,
          "velocity": 0.7007874015748031
        },
        {
          "duration": 0.08771925000000635,
          "durationTicks": 96,
          "midi": 34,
          "name": "A#1",
          "ticks": 104736,
          "time": 95.70170175,
          "velocity": 0.7007874015748031
        },
        {
          "duration": 0.08771925000000635,
          "durationTicks": 96,
          "midi": 50,
          "name": "D3",
          "ticks": 105120,
          "time": 96.05257875,
          "velocity": 0.7007874015748031
        },
        {
          "duration": 0.08771925000000635,
          "durationTicks": 96,
          "midi": 27,
          "name": "D#1",
          "ticks": 105504,
          "time": 96.40345574999999,
          "velocity": 0.7007874015748031
        },
        {
          "duration": 0.08771924999999214,
          "durationTicks": 96,
          "midi": 50,
          "name": "D3",
          "ticks": 105888,
          "time": 96.75433275,
          "velocity": 0.7007874015748031
        },
        {
          "duration": 0.08771924999999214,
          "durationTicks": 96,
          "midi": 34,
          "name": "A#1",
          "ticks": 106272,
          "time": 97.10520975,
          "velocity": 0.7007874015748031
        },
        {
          "duration": 0.08771925000000635,
          "durationTicks": 96,
          "midi": 50,
          "name": "D3",
          "ticks": 106656,
          "time": 97.45608675,
          "velocity": 0.7007874015748031
        },
        {
          "duration": 0.08771925000000635,
          "durationTicks": 96,
          "midi": 27,
          "name": "D#1",
          "ticks": 107040,
          "time": 97.80696375,
          "velocity": 0.7007874015748031
        },
        {
          "duration": 0.08771924999999214,
          "durationTicks": 96,
          "midi": 50,
          "name": "D3",
          "ticks": 107424,
          "time": 98.15784075,
          "velocity": 0.7007874015748031
        },
        {
          "duration": 0.08771924999999214,
          "durationTicks": 96,
          "midi": 41,
          "name": "F2",
          "ticks": 107808,
          "time": 98.50871775,
          "velocity": 0.7007874015748031
        },
        {
          "duration": 0.08771924999999214,
          "durationTicks": 96,
          "midi": 53,
          "name": "F3",
          "ticks": 108192,
          "time": 98.85959475,
          "velocity": 0.7007874015748031
        },
        {
          "duration": 0.08771925000000635,
          "durationTicks": 96,
          "midi": 34,
          "name": "A#1",
          "ticks": 108576,
          "time": 99.21047175,
          "velocity": 0.7007874015748031
        },
        {
          "duration": 0.08771925000000635,
          "durationTicks": 96,
          "midi": 53,
          "name": "F3",
          "ticks": 108960,
          "time": 99.56134875,
          "velocity": 0.7007874015748031
        },
        {
          "duration": 0.08771924999999214,
          "durationTicks": 96,
          "midi": 41,
          "name": "F2",
          "ticks": 109344,
          "time": 99.91222575,
          "velocity": 0.7007874015748031
        },
        {
          "duration": 0.08771924999999214,
          "durationTicks": 96,
          "midi": 53,
          "name": "F3",
          "ticks": 109728,
          "time": 100.26310275,
          "velocity": 0.7007874015748031
        },
        {
          "duration": 0.08771925000000635,
          "durationTicks": 96,
          "midi": 34,
          "name": "A#1",
          "ticks": 110112,
          "time": 100.61397975,
          "velocity": 0.7007874015748031
        },
        {
          "duration": 0.08771925000000635,
          "durationTicks": 96,
          "midi": 53,
          "name": "F3",
          "ticks": 110496,
          "time": 100.96485675,
          "velocity": 0.7007874015748031
        },
        {
          "duration": 0.08771925000000635,
          "durationTicks": 96,
          "midi": 34,
          "name": "A#1",
          "ticks": 110880,
          "time": 101.31573374999999,
          "velocity": 0.7007874015748031
        },
        {
          "duration": 0.08771924999999214,
          "durationTicks": 96,
          "midi": 50,
          "name": "D3",
          "ticks": 111264,
          "time": 101.66661075,
          "velocity": 0.7007874015748031
        },
        {
          "duration": 0.08771924999999214,
          "durationTicks": 96,
          "midi": 27,
          "name": "D#1",
          "ticks": 111648,
          "time": 102.01748775,
          "velocity": 0.7007874015748031
        },
        {
          "duration": 0.08771925000000635,
          "durationTicks": 96,
          "midi": 50,
          "name": "D3",
          "ticks": 112032,
          "time": 102.36836475,
          "velocity": 0.7007874015748031
        },
        {
          "duration": 0.08771925000000635,
          "durationTicks": 96,
          "midi": 34,
          "name": "A#1",
          "ticks": 112416,
          "time": 102.71924175,
          "velocity": 0.7007874015748031
        },
        {
          "duration": 0.08771925000000635,
          "durationTicks": 96,
          "midi": 50,
          "name": "D3",
          "ticks": 112800,
          "time": 103.07011874999999,
          "velocity": 0.7007874015748031
        },
        {
          "duration": 0.08771924999999214,
          "durationTicks": 96,
          "midi": 27,
          "name": "D#1",
          "ticks": 113184,
          "time": 103.42099575,
          "velocity": 0.7007874015748031
        },
        {
          "duration": 0.08771924999999214,
          "durationTicks": 96,
          "midi": 50,
          "name": "D3",
          "ticks": 113568,
          "time": 103.77187275,
          "velocity": 0.7007874015748031
        },
        {
          "duration": 0.08771925000000635,
          "durationTicks": 96,
          "midi": 41,
          "name": "F2",
          "ticks": 113952,
          "time": 104.12274975,
          "velocity": 0.7007874015748031
        },
        {
          "duration": 0.08771925000000635,
          "durationTicks": 96,
          "midi": 53,
          "name": "F3",
          "ticks": 114336,
          "time": 104.47362675,
          "velocity": 0.7007874015748031
        },
        {
          "duration": 0.08771924999999214,
          "durationTicks": 96,
          "midi": 34,
          "name": "A#1",
          "ticks": 114720,
          "time": 104.82450375,
          "velocity": 0.7007874015748031
        },
        {
          "duration": 0.08771924999999214,
          "durationTicks": 96,
          "midi": 53,
          "name": "F3",
          "ticks": 115104,
          "time": 105.17538075,
          "velocity": 0.7007874015748031
        },
        {
          "duration": 0.08771924999999214,
          "durationTicks": 96,
          "midi": 41,
          "name": "F2",
          "ticks": 115488,
          "time": 105.52625775,
          "velocity": 0.7007874015748031
        },
        {
          "duration": 0.08771925000000635,
          "durationTicks": 96,
          "midi": 53,
          "name": "F3",
          "ticks": 115872,
          "time": 105.87713475,
          "velocity": 0.7007874015748031
        },
        {
          "duration": 0.08771925000000635,
          "durationTicks": 96,
          "midi": 34,
          "name": "A#1",
          "ticks": 116256,
          "time": 106.22801175,
          "velocity": 0.7007874015748031
        },
        {
          "duration": 0.08771924999999214,
          "durationTicks": 96,
          "midi": 50,
          "name": "D3",
          "ticks": 116640,
          "time": 106.57888875,
          "velocity": 0.7007874015748031
        },
        {
          "duration": 0.08771924999999214,
          "durationTicks": 96,
          "midi": 34,
          "name": "A#1",
          "ticks": 117024,
          "time": 106.92976575,
          "velocity": 0.7007874015748031
        },
        {
          "duration": 0.08771925000000635,
          "durationTicks": 96,
          "midi": 50,
          "name": "D3",
          "ticks": 117408,
          "time": 107.28064275,
          "velocity": 0.7007874015748031
        },
        {
          "duration": 0.08771925000000635,
          "durationTicks": 96,
          "midi": 27,
          "name": "D#1",
          "ticks": 117792,
          "time": 107.63151975,
          "velocity": 0.7007874015748031
        },
        {
          "duration": 0.08771925000000635,
          "durationTicks": 96,
          "midi": 50,
          "name": "D3",
          "ticks": 118176,
          "time": 107.98239674999999,
          "velocity": 0.7007874015748031
        },
        {
          "duration": 0.08771924999999214,
          "durationTicks": 96,
          "midi": 34,
          "name": "A#1",
          "ticks": 118560,
          "time": 108.33327375,
          "velocity": 0.7007874015748031
        },
        {
          "duration": 0.08771924999999214,
          "durationTicks": 96,
          "midi": 50,
          "name": "D3",
          "ticks": 118944,
          "time": 108.68415075,
          "velocity": 0.7007874015748031
        },
        {
          "duration": 0.08771925000000635,
          "durationTicks": 96,
          "midi": 27,
          "name": "D#1",
          "ticks": 119328,
          "time": 109.03502775,
          "velocity": 0.7007874015748031
        },
        {
          "duration": 0.08771925000000635,
          "durationTicks": 96,
          "midi": 50,
          "name": "D3",
          "ticks": 119712,
          "time": 109.38590475,
          "velocity": 0.7007874015748031
        },
        {
          "duration": 0.08771925000000635,
          "durationTicks": 96,
          "midi": 41,
          "name": "F2",
          "ticks": 120096,
          "time": 109.73678174999999,
          "velocity": 0.7007874015748031
        },
        {
          "duration": 0.08771924999999214,
          "durationTicks": 96,
          "midi": 53,
          "name": "F3",
          "ticks": 120480,
          "time": 110.08765875,
          "velocity": 0.7007874015748031
        },
        {
          "duration": 0.08771924999999214,
          "durationTicks": 96,
          "midi": 34,
          "name": "A#1",
          "ticks": 120864,
          "time": 110.43853575,
          "velocity": 0.7007874015748031
        },
        {
          "duration": 0.08771925000000635,
          "durationTicks": 96,
          "midi": 53,
          "name": "F3",
          "ticks": 121248,
          "time": 110.78941275,
          "velocity": 0.7007874015748031
        },
        {
          "duration": 0.08771925000000635,
          "durationTicks": 96,
          "midi": 41,
          "name": "F2",
          "ticks": 121632,
          "time": 111.14028975,
          "velocity": 0.7007874015748031
        },
        {
          "duration": 0.08771924999999214,
          "durationTicks": 96,
          "midi": 53,
          "name": "F3",
          "ticks": 122016,
          "time": 111.49116675,
          "velocity": 0.7007874015748031
        },
        {
          "duration": 0.08771924999999214,
          "durationTicks": 96,
          "midi": 34,
          "name": "A#1",
          "ticks": 122400,
          "time": 111.84204375,
          "velocity": 0.7007874015748031
        },
        {
          "duration": 0.08771925000000635,
          "durationTicks": 96,
          "midi": 53,
          "name": "F3",
          "ticks": 122784,
          "time": 112.19292075,
          "velocity": 0.7007874015748031
        }
      ],
      "endOfTrackTicks": 122880
    },
    {
      "channel": 1,
      "controlChanges": {},
      "pitchBends": [],
      "instrument": {
        "family": "guitar",
        "number": 29,
        "name": "overdriven guitar"
      },
      "name": "Electric Guitar",
      "notes": [
        {
          "duration": 0.021929812499998036,
          "durationTicks": 24,
          "midi": 60,
          "name": "C4",
          "ticks": 23040,
          "time": 21.05262,
          "velocity": 0.6850393700787402
        },
        {
          "duration": 0.02192981250000159,
          "durationTicks": 24,
          "midi": 59,
          "name": "B3",
          "ticks": 23064,
          "time": 21.0745498125,
          "velocity": 0.6850393700787402
        },
        {
          "duration": 0.021929812499998036,
          "durationTicks": 24,
          "midi": 58,
          "name": "A#3",
          "ticks": 23088,
          "time": 21.096479625,
          "velocity": 0.6850393700787402
        },
        {
          "duration": 0.02192981250000159,
          "durationTicks": 24,
          "midi": 60,
          "name": "C4",
          "ticks": 23112,
          "time": 21.1184094375,
          "velocity": 0.6850393700787402
        },
        {
          "duration": 0.17543850000000205,
          "durationTicks": 192,
          "midi": 82,
          "name": "A#5",
          "ticks": 23424,
          "time": 21.403496999999998,
          "velocity": 0.6850393700787402
        },
        {
          "duration": 0.17543850000000205,
          "durationTicks": 192,
          "midi": 70,
          "name": "A#4",
          "ticks": 23424,
          "time": 21.403496999999998,
          "velocity": 0.6850393700787402
        },
        {
          "duration": 0.1754384999999985,
          "durationTicks": 192,
          "midi": 81,
          "name": "A5",
          "ticks": 23616,
          "time": 21.5789355,
          "velocity": 0.6850393700787402
        },
        {
          "duration": 0.1754384999999985,
          "durationTicks": 192,
          "midi": 69,
          "name": "A4",
          "ticks": 23616,
          "time": 21.5789355,
          "velocity": 0.6850393700787402
        },
        {
          "duration": 0.17543850000000205,
          "durationTicks": 192,
          "midi": 77,
          "name": "F5",
          "ticks": 23808,
          "time": 21.754374,
          "velocity": 0.6850393700787402
        },
        {
          "duration": 0.17543850000000205,
          "durationTicks": 192,
          "midi": 65,
          "name": "F4",
          "ticks": 23808,
          "time": 21.754374,
          "velocity": 0.6850393700787402
        },
        {
          "duration": 0.1754384999999985,
          "durationTicks": 192,
          "midi": 74,
          "name": "D5",
          "ticks": 24000,
          "time": 21.9298125,
          "velocity": 0.6850393700787402
        },
        {
          "duration": 0.1754384999999985,
          "durationTicks": 192,
          "midi": 62,
          "name": "D4",
          "ticks": 24000,
          "time": 21.9298125,
          "velocity": 0.6850393700787402
        },
        {
          "duration": 0.17543850000000205,
          "durationTicks": 192,
          "midi": 72,
          "name": "C5",
          "ticks": 24192,
          "time": 22.105251,
          "velocity": 0.6850393700787402
        },
        {
          "duration": 0.17543850000000205,
          "durationTicks": 192,
          "midi": 60,
          "name": "C4",
          "ticks": 24192,
          "time": 22.105251,
          "velocity": 0.6850393700787402
        },
        {
          "duration": 0.1754384999999985,
          "durationTicks": 192,
          "midi": 58,
          "name": "A#3",
          "ticks": 24384,
          "time": 22.2806895,
          "velocity": 0.6850393700787402
        },
        {
          "duration": 0.1754384999999985,
          "durationTicks": 192,
          "midi": 70,
          "name": "A#4",
          "ticks": 24384,
          "time": 22.2806895,
          "velocity": 0.6850393700787402
        },
        {
          "duration": 0.1754384999999985,
          "durationTicks": 192,
          "midi": 65,
          "name": "F4",
          "ticks": 24576,
          "time": 22.456128,
          "velocity": 0.6850393700787402
        },
        {
          "duration": 0.1754384999999985,
          "durationTicks": 192,
          "midi": 53,
          "name": "F3",
          "ticks": 24576,
          "time": 22.456128,
          "velocity": 0.6850393700787402
        },
        {
          "duration": 0.3508770000000041,
          "durationTicks": 384,
          "midi": 36,
          "name": "C2",
          "ticks": 49344,
          "time": 45.0876945,
          "velocity": 0.6850393700787402
        },
        {
          "duration": 0.3508770000000041,
          "durationTicks": 384,
          "midi": 48,
          "name": "C3",
          "ticks": 49344,
          "time": 45.0876945,
          "velocity": 0.6850393700787402
        },
        {
          "duration": 0.350876999999997,
          "durationTicks": 384,
          "midi": 48,
          "name": "C3",
          "ticks": 49728,
          "time": 45.4385715,
          "velocity": 0.6850393700787402
        },
        {
          "duration": 0.350876999999997,
          "durationTicks": 384,
          "midi": 36,
          "name": "C2",
          "ticks": 49728,
          "time": 45.4385715,
          "velocity": 0.6850393700787402
        },
        {
          "duration": 0.13157887500000243,
          "durationTicks": 144,
          "midi": 48,
          "name": "C3",
          "ticks": 50304,
          "time": 45.964887,
          "velocity": 0.6850393700787402
        },
        {
          "duration": 0.3508770000000041,
          "durationTicks": 384,
          "midi": 36,
          "name": "C2",
          "ticks": 50304,
          "time": 45.964887,
          "velocity": 0.6850393700787402
        },
        {
          "duration": 0.08771924999999925,
          "durationTicks": 96,
          "midi": 48,
          "name": "C3",
          "ticks": 50400,
          "time": 46.05260625,
          "velocity": 0.6850393700787402
        },
        {
          "duration": 0.3508770000000041,
          "durationTicks": 384,
          "midi": 48,
          "name": "C3",
          "ticks": 50496,
          "time": 46.140325499999996,
          "velocity": 0.6850393700787402
        },
        {
          "duration": 0.350876999999997,
          "durationTicks": 384,
          "midi": 36,
          "name": "C2",
          "ticks": 50880,
          "time": 46.4912025,
          "velocity": 0.6850393700787402
        },
        {
          "duration": 0.350876999999997,
          "durationTicks": 384,
          "midi": 48,
          "name": "C3",
          "ticks": 50880,
          "time": 46.4912025,
          "velocity": 0.6850393700787402
        },
        {
          "duration": 0.3508770000000041,
          "durationTicks": 384,
          "midi": 36,
          "name": "C2",
          "ticks": 51264,
          "time": 46.8420795,
          "velocity": 0.6850393700787402
        },
        {
          "duration": 0.3508770000000041,
          "durationTicks": 384,
          "midi": 48,
          "name": "C3",
          "ticks": 51264,
          "time": 46.8420795,
          "velocity": 0.6850393700787402
        },
        {
          "duration": 0.350876999999997,
          "durationTicks": 384,
          "midi": 36,
          "name": "C2",
          "ticks": 51840,
          "time": 47.368395,
          "velocity": 0.6850393700787402
        },
        {
          "duration": 0.1754384999999985,
          "durationTicks": 192,
          "midi": 48,
          "name": "C3",
          "ticks": 51840,
          "time": 47.368395,
          "velocity": 0.6850393700787402
        },
        {
          "duration": 0.3508770000000041,
          "durationTicks": 384,
          "midi": 48,
          "name": "C3",
          "ticks": 52032,
          "time": 47.5438335,
          "velocity": 0.6850393700787402
        },
        {
          "duration": 0.350876999999997,
          "durationTicks": 384,
          "midi": 50,
          "name": "D3",
          "ticks": 52416,
          "time": 47.8947105,
          "velocity": 0.6850393700787402
        },
        {
          "duration": 0.350876999999997,
          "durationTicks": 384,
          "midi": 38,
          "name": "D2",
          "ticks": 52416,
          "time": 47.8947105,
          "velocity": 0.6850393700787402
        },
        {
          "duration": 0.350876999999997,
          "durationTicks": 384,
          "midi": 38,
          "name": "D2",
          "ticks": 52800,
          "time": 48.2455875,
          "velocity": 0.6850393700787402
        },
        {
          "duration": 0.350876999999997,
          "durationTicks": 384,
          "midi": 50,
          "name": "D3",
          "ticks": 52800,
          "time": 48.2455875,
          "velocity": 0.6850393700787402
        },
        {
          "duration": 0.350876999999997,
          "durationTicks": 384,
          "midi": 38,
          "name": "D2",
          "ticks": 53376,
          "time": 48.771903,
          "velocity": 0.6850393700787402
        },
        {
          "duration": 0.1754384999999985,
          "durationTicks": 192,
          "midi": 50,
          "name": "D3",
          "ticks": 53376,
          "time": 48.771903,
          "velocity": 0.6850393700787402
        },
        {
          "duration": 0.350876999999997,
          "durationTicks": 384,
          "midi": 50,
          "name": "D3",
          "ticks": 53568,
          "time": 48.9473415,
          "velocity": 0.6850393700787402
        },
        {
          "duration": 0.3508770000000041,
          "durationTicks": 384,
          "midi": 50,
          "name": "D3",
          "ticks": 53952,
          "time": 49.2982185,
          "velocity": 0.6850393700787402
        },
        {
          "duration": 0.3508770000000041,
          "durationTicks": 384,
          "midi": 38,
          "name": "D2",
          "ticks": 53952,
          "time": 49.2982185,
          "velocity": 0.6850393700787402
        },
        {
          "duration": 0.350876999999997,
          "durationTicks": 384,
          "midi": 50,
          "name": "D3",
          "ticks": 54336,
          "time": 49.6490955,
          "velocity": 0.6850393700787402
        },
        {
          "duration": 0.350876999999997,
          "durationTicks": 384,
          "midi": 38,
          "name": "D2",
          "ticks": 54336,
          "time": 49.6490955,
          "velocity": 0.6850393700787402
        },
        {
          "duration": 0.1754385000000056,
          "durationTicks": 192,
          "midi": 50,
          "name": "D3",
          "ticks": 54912,
          "time": 50.175411,
          "velocity": 0.6850393700787402
        },
        {
          "duration": 0.3508770000000041,
          "durationTicks": 384,
          "midi": 38,
          "name": "D2",
          "ticks": 54912,
          "time": 50.175411,
          "velocity": 0.6850393700787402
        },
        {
          "duration": 0.350876999999997,
          "durationTicks": 384,
          "midi": 50,
          "name": "D3",
          "ticks": 55104,
          "time": 50.3508495,
          "velocity": 0.6850393700787402
        },
        {
          "duration": 0.350876999999997,
          "durationTicks": 384,
          "midi": 39,
          "name": "D#2",
          "ticks": 55488,
          "time": 50.7017265,
          "velocity": 0.6850393700787402
        },
        {
          "duration": 0.350876999999997,
          "durationTicks": 384,
          "midi": 51,
          "name": "D#3",
          "ticks": 55488,
          "time": 50.7017265,
          "velocity": 0.6850393700787402
        },
        {
          "duration": 0.3508770000000041,
          "durationTicks": 384,
          "midi": 39,
          "name": "D#2",
          "ticks": 55872,
          "time": 51.0526035,
          "velocity": 0.6850393700787402
        },
        {
          "duration": 0.3508770000000041,
          "durationTicks": 384,
          "midi": 51,
          "name": "D#3",
          "ticks": 55872,
          "time": 51.0526035,
          "velocity": 0.6850393700787402
        },
        {
          "duration": 0.350876999999997,
          "durationTicks": 384,
          "midi": 39,
          "name": "D#2",
          "ticks": 56448,
          "time": 51.578919,
          "velocity": 0.6850393700787402
        },
        {
          "duration": 0.1754384999999985,
          "durationTicks": 192,
          "midi": 51,
          "name": "D#3",
          "ticks": 56448,
          "time": 51.578919,
          "velocity": 0.6850393700787402
        },
        {
          "duration": 0.3508770000000041,
          "durationTicks": 384,
          "midi": 51,
          "name": "D#3",
          "ticks": 56640,
          "time": 51.7543575,
          "velocity": 0.6850393700787402
        },
        {
          "duration": 0.350876999999997,
          "durationTicks": 384,
          "midi": 51,
          "name": "D#3",
          "ticks": 57024,
          "time": 52.1052345,
          "velocity": 0.6850393700787402
        },
        {
          "duration": 0.350876999999997,
          "durationTicks": 384,
          "midi": 39,
          "name": "D#2",
          "ticks": 57024,
          "time": 52.1052345,
          "velocity": 0.6850393700787402
        },
        {
          "duration": 0.350876999999997,
          "durationTicks": 384,
          "midi": 39,
          "name": "D#2",
          "ticks": 57408,
          "time": 52.4561115,
          "velocity": 0.6850393700787402
        },
        {
          "duration": 0.350876999999997,
          "durationTicks": 384,
          "midi": 51,
          "name": "D#3",
          "ticks": 57408,
          "time": 52.4561115,
          "velocity": 0.6850393700787402
        },
        {
          "duration": 0.350876999999997,
          "durationTicks": 384,
          "midi": 39,
          "name": "D#2",
          "ticks": 57984,
          "time": 52.982427,
          "velocity": 0.6850393700787402
        },
        {
          "duration": 0.1754384999999985,
          "durationTicks": 192,
          "midi": 51,
          "name": "D#3",
          "ticks": 57984,
          "time": 52.982427,
          "velocity": 0.6850393700787402
        },
        {
          "duration": 0.350876999999997,
          "durationTicks": 384,
          "midi": 51,
          "name": "D#3",
          "ticks": 58176,
          "time": 53.1578655,
          "velocity": 0.6850393700787402
        },
        {
          "duration": 0.3508770000000041,
          "durationTicks": 384,
          "midi": 41,
          "name": "F2",
          "ticks": 58560,
          "time": 53.5087425,
          "velocity": 0.6850393700787402
        },
        {
          "duration": 0.3508770000000041,
          "durationTicks": 384,
          "midi": 53,
          "name": "F3",
          "ticks": 58560,
          "time": 53.5087425,
          "velocity": 0.6850393700787402
        },
        {
          "duration": 0.350876999999997,
          "durationTicks": 384,
          "midi": 41,
          "name": "F2",
          "ticks": 58944,
          "time": 53.8596195,
          "velocity": 0.6850393700787402
        },
        {
          "duration": 0.350876999999997,
          "durationTicks": 384,
          "midi": 53,
          "name": "F3",
          "ticks": 58944,
          "time": 53.8596195,
          "velocity": 0.6850393700787402
        },
        {
          "duration": 0.3508770000000041,
          "durationTicks": 384,
          "midi": 41,
          "name": "F2",
          "ticks": 59520,
          "time": 54.385934999999996,
          "velocity": 0.6850393700787402
        },
        {
          "duration": 0.1754385000000056,
          "durationTicks": 192,
          "midi": 53,
          "name": "F3",
          "ticks": 59520,
          "time": 54.385934999999996,
          "velocity": 0.6850393700787402
        },
        {
          "duration": 0.350876999999997,
          "durationTicks": 384,
          "midi": 53,
          "name": "F3",
          "ticks": 59712,
          "time": 54.5613735,
          "velocity": 0.6850393700787402
        },
        {
          "duration": 0.350876999999997,
          "durationTicks": 384,
          "midi": 41,
          "name": "F2",
          "ticks": 60096,
          "time": 54.9122505,
          "velocity": 0.6850393700787402
        },
        {
          "duration": 0.350876999999997,
          "durationTicks": 384,
          "midi": 53,
          "name": "F3",
          "ticks": 60096,
          "time": 54.9122505,
          "velocity": 0.6850393700787402
        },
        {
          "duration": 0.3508770000000041,
          "durationTicks": 384,
          "midi": 41,
          "name": "F2",
          "ticks": 60480,
          "time": 55.263127499999996,
          "velocity": 0.6850393700787402
        },
        {
          "duration": 0.3508770000000041,
          "durationTicks": 384,
          "midi": 53,
          "name": "F3",
          "ticks": 60480,
          "time": 55.263127499999996,
          "velocity": 0.6850393700787402
        },
        {
          "duration": 0.1754384999999985,
          "durationTicks": 192,
          "midi": 53,
          "name": "F3",
          "ticks": 61056,
          "time": 55.789443,
          "velocity": 0.6850393700787402
        },
        {
          "duration": 0.5482453125000006,
          "durationTicks": 600,
          "midi": 41,
          "name": "F2",
          "ticks": 61056,
          "time": 55.789443,
          "velocity": 0.6850393700787402
        },
        {
          "duration": 0.350876999999997,
          "durationTicks": 384,
          "midi": 36,
          "name": "C2",
          "ticks": 61632,
          "time": 56.3157585,
          "velocity": 0.6850393700787402
        },
        {
          "duration": 0.350876999999997,
          "durationTicks": 384,
          "midi": 48,
          "name": "C3",
          "ticks": 61632,
          "time": 56.3157585,
          "velocity": 0.6850393700787402
        },
        {
          "duration": 0.3508770000000041,
          "durationTicks": 384,
          "midi": 48,
          "name": "C3",
          "ticks": 62016,
          "time": 56.6666355,
          "velocity": 0.6850393700787402
        },
        {
          "duration": 0.3508770000000041,
          "durationTicks": 384,
          "midi": 36,
          "name": "C2",
          "ticks": 62016,
          "time": 56.6666355,
          "velocity": 0.6850393700787402
        },
        {
          "duration": 0.350876999999997,
          "durationTicks": 384,
          "midi": 36,
          "name": "C2",
          "ticks": 62592,
          "time": 57.192951,
          "velocity": 0.6850393700787402
        },
        {
          "duration": 0.13157887499999532,
          "durationTicks": 144,
          "midi": 48,
          "name": "C3",
          "ticks": 62592,
          "time": 57.192951,
          "velocity": 0.6850393700787402
        },
        {
          "duration": 0.08771924999999925,
          "durationTicks": 96,
          "midi": 48,
          "name": "C3",
          "ticks": 62688,
          "time": 57.28067025,
          "velocity": 0.6850393700787402
        },
        {
          "duration": 0.350876999999997,
          "durationTicks": 384,
          "midi": 48,
          "name": "C3",
          "ticks": 62784,
          "time": 57.3683895,
          "velocity": 0.6850393700787402
        },
        {
          "duration": 0.3508770000000041,
          "durationTicks": 384,
          "midi": 36,
          "name": "C2",
          "ticks": 63168,
          "time": 57.719266499999996,
          "velocity": 0.6850393700787402
        },
        {
          "duration": 0.3508770000000041,
          "durationTicks": 384,
          "midi": 48,
          "name": "C3",
          "ticks": 63168,
          "time": 57.719266499999996,
          "velocity": 0.6850393700787402
        },
        {
          "duration": 0.350876999999997,
          "durationTicks": 384,
          "midi": 36,
          "name": "C2",
          "ticks": 63552,
          "time": 58.0701435,
          "velocity": 0.6850393700787402
        },
        {
          "duration": 0.350876999999997,
          "durationTicks": 384,
          "midi": 48,
          "name": "C3",
          "ticks": 63552,
          "time": 58.0701435,
          "velocity": 0.6850393700787402
        },
        {
          "duration": 0.3508770000000041,
          "durationTicks": 384,
          "midi": 36,
          "name": "C2",
          "ticks": 64128,
          "time": 58.596458999999996,
          "velocity": 0.6850393700787402
        },
        {
          "duration": 0.1754385000000056,
          "durationTicks": 192,
          "midi": 48,
          "name": "C3",
          "ticks": 64128,
          "time": 58.596458999999996,
          "velocity": 0.6850393700787402
        },
        {
          "duration": 0.350876999999997,
          "durationTicks": 384,
          "midi": 48,
          "name": "C3",
          "ticks": 64320,
          "time": 58.7718975,
          "velocity": 0.6850393700787402
        },
        {
          "duration": 0.3508770000000041,
          "durationTicks": 384,
          "midi": 38,
          "name": "D2",
          "ticks": 64704,
          "time": 59.1227745,
          "velocity": 0.6850393700787402
        },
        {
          "duration": 0.3508770000000041,
          "durationTicks": 384,
          "midi": 50,
          "name": "D3",
          "ticks": 64704,
          "time": 59.1227745,
          "velocity": 0.6850393700787402
        },
        {
          "duration": 0.350876999999997,
          "durationTicks": 384,
          "midi": 38,
          "name": "D2",
          "ticks": 65088,
          "time": 59.4736515,
          "velocity": 0.6850393700787402
        },
        {
          "duration": 0.350876999999997,
          "durationTicks": 384,
          "midi": 50,
          "name": "D3",
          "ticks": 65088,
          "time": 59.4736515,
          "velocity": 0.6850393700787402
        },
        {
          "duration": 0.3508770000000041,
          "durationTicks": 384,
          "midi": 38,
          "name": "D2",
          "ticks": 65664,
          "time": 59.999967,
          "velocity": 0.6850393700787402
        },
        {
          "duration": 0.1754384999999985,
          "durationTicks": 192,
          "midi": 50,
          "name": "D3",
          "ticks": 65664,
          "time": 59.999967,
          "velocity": 0.6850393700787402
        },
        {
          "duration": 0.3508770000000041,
          "durationTicks": 384,
          "midi": 50,
          "name": "D3",
          "ticks": 65856,
          "time": 60.1754055,
          "velocity": 0.6850393700787402
        },
        {
          "duration": 0.350876999999997,
          "durationTicks": 384,
          "midi": 50,
          "name": "D3",
          "ticks": 66240,
          "time": 60.5262825,
          "velocity": 0.6850393700787402
        },
        {
          "duration": 0.350876999999997,
          "durationTicks": 384,
          "midi": 38,
          "name": "D2",
          "ticks": 66240,
          "time": 60.5262825,
          "velocity": 0.6850393700787402
        },
        {
          "duration": 0.3508770000000041,
          "durationTicks": 384,
          "midi": 38,
          "name": "D2",
          "ticks": 66624,
          "time": 60.8771595,
          "velocity": 0.6850393700787402
        },
        {
          "duration": 0.3508770000000041,
          "durationTicks": 384,
          "midi": 50,
          "name": "D3",
          "ticks": 66624,
          "time": 60.8771595,
          "velocity": 0.6850393700787402
        },
        {
          "duration": 0.350876999999997,
          "durationTicks": 384,
          "midi": 38,
          "name": "D2",
          "ticks": 67200,
          "time": 61.403475,
          "velocity": 0.6850393700787402
        },
        {
          "duration": 0.1754384999999985,
          "durationTicks": 192,
          "midi": 50,
          "name": "D3",
          "ticks": 67200,
          "time": 61.403475,
          "velocity": 0.6850393700787402
        },
        {
          "duration": 0.350876999999997,
          "durationTicks": 384,
          "midi": 50,
          "name": "D3",
          "ticks": 67392,
          "time": 61.5789135,
          "velocity": 0.6850393700787402
        },
        {
          "duration": 0.3508770000000041,
          "durationTicks": 384,
          "midi": 51,
          "name": "D#3",
          "ticks": 67776,
          "time": 61.929790499999996,
          "velocity": 0.6850393700787402
        },
        {
          "duration": 0.350876999999997,
          "durationTicks": 384,
          "midi": 51,
          "name": "D#3",
          "ticks": 68160,
          "time": 62.2806675,
          "velocity": 0.6850393700787402
        },
        {
          "duration": 0.1754384999999985,
          "durationTicks": 192,
          "midi": 51,
          "name": "D#3",
          "ticks": 68736,
          "time": 62.806983,
          "velocity": 0.6850393700787402
        },
        {
          "duration": 0.350876999999997,
          "durationTicks": 384,
          "midi": 51,
          "name": "D#3",
          "ticks": 68928,
          "time": 62.9824215,
          "velocity": 0.6850393700787402
        },
        {
          "duration": 0.3508770000000041,
          "durationTicks": 384,
          "midi": 51,
          "name": "D#3",
          "ticks": 69312,
          "time": 63.3332985,
          "velocity": 0.6850393700787402
        },
        {
          "duration": 0.3508769999999899,
          "durationTicks": 384,
          "midi": 51,
          "name": "D#3",
          "ticks": 69696,
          "time": 63.6841755,
          "velocity": 0.6850393700787402
        },
        {
          "duration": 0.1754384999999985,
          "durationTicks": 192,
          "midi": 51,
          "name": "D#3",
          "ticks": 70272,
          "time": 64.210491,
          "velocity": 0.6850393700787402
        },
        {
          "duration": 0.350876999999997,
          "durationTicks": 384,
          "midi": 51,
          "name": "D#3",
          "ticks": 70464,
          "time": 64.3859295,
          "velocity": 0.6850393700787402
        },
        {
          "duration": 0.350876999999997,
          "durationTicks": 384,
          "midi": 53,
          "name": "F3",
          "ticks": 70848,
          "time": 64.7368065,
          "velocity": 0.6850393700787402
        },
        {
          "duration": 0.350876999999997,
          "durationTicks": 384,
          "midi": 41,
          "name": "F2",
          "ticks": 70848,
          "time": 64.7368065,
          "velocity": 0.6850393700787402
        },
        {
          "duration": 0.350876999999997,
          "durationTicks": 384,
          "midi": 41,
          "name": "F2",
          "ticks": 71232,
          "time": 65.0876835,
          "velocity": 0.6850393700787402
        },
        {
          "duration": 0.350876999999997,
          "durationTicks": 384,
          "midi": 53,
          "name": "F3",
          "ticks": 71232,
          "time": 65.0876835,
          "velocity": 0.6850393700787402
        },
        {
          "duration": 0.1754384999999985,
          "durationTicks": 192,
          "midi": 53,
          "name": "F3",
          "ticks": 71712,
          "time": 65.52627975,
          "velocity": 0.6850393700787402
        },
        {
          "duration": 0.350876999999997,
          "durationTicks": 384,
          "midi": 41,
          "name": "F2",
          "ticks": 71712,
          "time": 65.52627975,
          "velocity": 0.6850393700787402
        },
        {
          "duration": 0.350876999999997,
          "durationTicks": 384,
          "midi": 53,
          "name": "F3",
          "ticks": 71904,
          "time": 65.70171825,
          "velocity": 0.6850393700787402
        },
        {
          "duration": 0.1754384999999985,
          "durationTicks": 192,
          "midi": 36,
          "name": "C2",
          "ticks": 74016,
          "time": 67.63154175,
          "velocity": 0.6850393700787402
        },
        {
          "duration": 0.26315775000000485,
          "durationTicks": 288,
          "midi": 77,
          "name": "F5",
          "ticks": 74016,
          "time": 67.63154175,
          "velocity": 0.6850393700787402
        },
        {
          "duration": 0.350876999999997,
          "durationTicks": 384,
          "midi": 36,
          "name": "C2",
          "ticks": 74208,
          "time": 67.80698025,
          "velocity": 0.6850393700787402
        },
        {
          "duration": 0.26315775000000485,
          "durationTicks": 288,
          "midi": 70,
          "name": "A#4",
          "ticks": 74400,
          "time": 67.98241875,
          "velocity": 0.6850393700787402
        },
        {
          "duration": 0.1754385000000127,
          "durationTicks": 192,
          "midi": 36,
          "name": "C2",
          "ticks": 74592,
          "time": 68.15785724999999,
          "velocity": 0.6850393700787402
        },
        {
          "duration": 0.350876999999997,
          "durationTicks": 384,
          "midi": 36,
          "name": "C2",
          "ticks": 74784,
          "time": 68.33329575,
          "velocity": 0.6850393700787402
        },
        {
          "duration": 0.26315774999999064,
          "durationTicks": 288,
          "midi": 72,
          "name": "C5",
          "ticks": 74784,
          "time": 68.33329575,
          "velocity": 0.6850393700787402
        },
        {
          "duration": 0.26315774999999064,
          "durationTicks": 288,
          "midi": 70,
          "name": "A#4",
          "ticks": 75168,
          "time": 68.68417275,
          "velocity": 0.6850393700787402
        },
        {
          "duration": 0.350876999999997,
          "durationTicks": 384,
          "midi": 36,
          "name": "C2",
          "ticks": 75168,
          "time": 68.68417275,
          "velocity": 0.6850393700787402
        },
        {
          "duration": 0.08771925000000635,
          "durationTicks": 96,
          "midi": 65,
          "name": "F4",
          "ticks": 75552,
          "time": 69.03504975,
          "velocity": 0.6850393700787402
        },
        {
          "duration": 0.350876999999997,
          "durationTicks": 384,
          "midi": 36,
          "name": "C2",
          "ticks": 75552,
          "time": 69.03504975,
          "velocity": 0.6850393700787402
        },
        {
          "duration": 0.26315775000000485,
          "durationTicks": 288,
          "midi": 70,
          "name": "A#4",
          "ticks": 75744,
          "time": 69.21048825,
          "velocity": 0.6850393700787402
        },
        {
          "duration": 0.1754384999999985,
          "durationTicks": 192,
          "midi": 26,
          "name": "D1",
          "ticks": 75936,
          "time": 69.38592675,
          "velocity": 0.6850393700787402
        },
        {
          "duration": 0.1754384999999985,
          "durationTicks": 192,
          "midi": 36,
          "name": "C2",
          "ticks": 75936,
          "time": 69.38592675,
          "velocity": 0.6850393700787402
        },
        {
          "duration": 0.1754384999999985,
          "durationTicks": 192,
          "midi": 36,
          "name": "C2",
          "ticks": 76128,
          "time": 69.56136525,
          "velocity": 0.6850393700787402
        },
        {
          "duration": 0.26315775000000485,
          "durationTicks": 288,
          "midi": 72,
          "name": "C5",
          "ticks": 76128,
          "time": 69.56136525,
          "velocity": 0.6850393700787402
        },
        {
          "duration": 0.1754384999999985,
          "durationTicks": 192,
          "midi": 29,
          "name": "F1",
          "ticks": 76128,
          "time": 69.56136525,
          "velocity": 0.6850393700787402
        },
        {
          "duration": 0.1754385000000127,
          "durationTicks": 192,
          "midi": 26,
          "name": "D1",
          "ticks": 76320,
          "time": 69.73680374999999,
          "velocity": 0.6850393700787402
        },
        {
          "duration": 0.1754385000000127,
          "durationTicks": 192,
          "midi": 36,
          "name": "C2",
          "ticks": 76320,
          "time": 69.73680374999999,
          "velocity": 0.6850393700787402
        },
        {
          "duration": 0.1754384999999985,
          "durationTicks": 192,
          "midi": 29,
          "name": "F1",
          "ticks": 76512,
          "time": 69.91224225,
          "velocity": 0.6850393700787402
        },
        {
          "duration": 0.1754384999999985,
          "durationTicks": 192,
          "midi": 36,
          "name": "C2",
          "ticks": 76512,
          "time": 69.91224225,
          "velocity": 0.6850393700787402
        },
        {
          "duration": 0.08771924999999214,
          "durationTicks": 96,
          "midi": 74,
          "name": "D5",
          "ticks": 76512,
          "time": 69.91224225,
          "velocity": 0.6850393700787402
        },
        {
          "duration": 0.08771925000000635,
          "durationTicks": 96,
          "midi": 72,
          "name": "C5",
          "ticks": 76608,
          "time": 69.9999615,
          "velocity": 0.6850393700787402
        },
        {
          "duration": 0.26315774999999064,
          "durationTicks": 288,
          "midi": 70,
          "name": "A#4",
          "ticks": 76704,
          "time": 70.08768075,
          "velocity": 0.6850393700787402
        },
        {
          "duration": 0.350876999999997,
          "durationTicks": 384,
          "midi": 36,
          "name": "C2",
          "ticks": 76704,
          "time": 70.08768075,
          "velocity": 0.6850393700787402
        },
        {
          "duration": 0.1754384999999985,
          "durationTicks": 192,
          "midi": 26,
          "name": "D1",
          "ticks": 76704,
          "time": 70.08768075,
          "velocity": 0.6850393700787402
        },
        {
          "duration": 0.1754384999999985,
          "durationTicks": 192,
          "midi": 38,
          "name": "D2",
          "ticks": 77088,
          "time": 70.43855775,
          "velocity": 0.6850393700787402
        },
        {
          "duration": 0.26315775000000485,
          "durationTicks": 288,
          "midi": 65,
          "name": "F4",
          "ticks": 77088,
          "time": 70.43855775,
          "velocity": 0.6850393700787402
        },
        {
          "duration": 0.350876999999997,
          "durationTicks": 384,
          "midi": 38,
          "name": "D2",
          "ticks": 77280,
          "time": 70.61399625,
          "velocity": 0.6850393700787402
        },
        {
          "duration": 0.26315775000000485,
          "durationTicks": 288,
          "midi": 70,
          "name": "A#4",
          "ticks": 77472,
          "time": 70.78943475,
          "velocity": 0.6850393700787402
        },
        {
          "duration": 0.1754384999999985,
          "durationTicks": 192,
          "midi": 38,
          "name": "D2",
          "ticks": 77664,
          "time": 70.96487325,
          "velocity": 0.6850393700787402
        },
        {
          "duration": 0.1754384999999985,
          "durationTicks": 192,
          "midi": 72,
          "name": "C5",
          "ticks": 77856,
          "time": 71.14031175,
          "velocity": 0.6850393700787402
        },
        {
          "duration": 0.350876999999997,
          "durationTicks": 384,
          "midi": 38,
          "name": "D2",
          "ticks": 77856,
          "time": 71.14031175,
          "velocity": 0.6850393700787402
        },
        {
          "duration": 0.26315775000000485,
          "durationTicks": 288,
          "midi": 75,
          "name": "D#5",
          "ticks": 78048,
          "time": 71.31575025,
          "velocity": 0.6850393700787402
        },
        {
          "duration": 0.1754385000000127,
          "durationTicks": 192,
          "midi": 38,
          "name": "D2",
          "ticks": 78240,
          "time": 71.49118874999999,
          "velocity": 0.6850393700787402
        },
        {
          "duration": 0.350876999999997,
          "durationTicks": 384,
          "midi": 74,
          "name": "D5",
          "ticks": 78432,
          "time": 71.66662725,
          "velocity": 0.6850393700787402
        },
        {
          "duration": 0.1754384999999985,
          "durationTicks": 192,
          "midi": 38,
          "name": "D2",
          "ticks": 78432,
          "time": 71.66662725,
          "velocity": 0.6850393700787402
        },
        {
          "duration": 0.1754384999999985,
          "durationTicks": 192,
          "midi": 38,
          "name": "D2",
          "ticks": 78624,
          "time": 71.84206575,
          "velocity": 0.6850393700787402
        },
        {
          "duration": 0.350876999999997,
          "durationTicks": 384,
          "midi": 38,
          "name": "D2",
          "ticks": 78816,
          "time": 72.01750425,
          "velocity": 0.6850393700787402
        },
        {
          "duration": 0.08771924999999214,
          "durationTicks": 96,
          "midi": 75,
          "name": "D#5",
          "ticks": 78816,
          "time": 72.01750425,
          "velocity": 0.6850393700787402
        },
        {
          "duration": 0.08771925000000635,
          "durationTicks": 96,
          "midi": 74,
          "name": "D5",
          "ticks": 78912,
          "time": 72.1052235,
          "velocity": 0.6850393700787402
        },
        {
          "duration": 0.1754384999999985,
          "durationTicks": 192,
          "midi": 26,
          "name": "D1",
          "ticks": 79008,
          "time": 72.19294275,
          "velocity": 0.6850393700787402
        },
        {
          "duration": 0.26315775000000485,
          "durationTicks": 288,
          "midi": 72,
          "name": "C5",
          "ticks": 79008,
          "time": 72.19294275,
          "velocity": 0.6850393700787402
        },
        {
          "duration": 0.1754384999999985,
          "durationTicks": 192,
          "midi": 29,
          "name": "F1",
          "ticks": 79200,
          "time": 72.36838125,
          "velocity": 0.6850393700787402
        },
        {
          "duration": 0.350876999999997,
          "durationTicks": 384,
          "midi": 38,
          "name": "D2",
          "ticks": 79200,
          "time": 72.36838125,
          "velocity": 0.6850393700787402
        },
        {
          "duration": 0.1754384999999985,
          "durationTicks": 192,
          "midi": 26,
          "name": "D1",
          "ticks": 79392,
          "time": 72.54381975,
          "velocity": 0.6850393700787402
        },
        {
          "duration": 0.26315775000000485,
          "durationTicks": 288,
          "midi": 70,
          "name": "A#4",
          "ticks": 79392,
          "time": 72.54381975,
          "velocity": 0.6850393700787402
        },
        {
          "duration": 0.1754384999999985,
          "durationTicks": 192,
          "midi": 29,
          "name": "F1",
          "ticks": 79584,
          "time": 72.71925825,
          "velocity": 0.6850393700787402
        },
        {
          "duration": 0.1754384999999985,
          "durationTicks": 192,
          "midi": 38,
          "name": "D2",
          "ticks": 79584,
          "time": 72.71925825,
          "velocity": 0.6850393700787402
        },
        {
          "duration": 0.26315775000000485,
          "durationTicks": 288,
          "midi": 65,
          "name": "F4",
          "ticks": 79776,
          "time": 72.89469675,
          "velocity": 0.6850393700787402
        },
        {
          "duration": 0.1754384999999985,
          "durationTicks": 192,
          "midi": 26,
          "name": "D1",
          "ticks": 79776,
          "time": 72.89469675,
          "velocity": 0.6850393700787402
        },
        {
          "duration": 0.3508770000000112,
          "durationTicks": 384,
          "midi": 38,
          "name": "D2",
          "ticks": 79776,
          "time": 72.89469675,
          "velocity": 0.6850393700787402
        },
        {
          "duration": 0.26315774999999064,
          "durationTicks": 288,
          "midi": 77,
          "name": "F5",
          "ticks": 80160,
          "time": 73.24557375,
          "velocity": 0.6850393700787402
        },
        {
          "duration": 0.1754384999999985,
          "durationTicks": 192,
          "midi": 39,
          "name": "D#2",
          "ticks": 80160,
          "time": 73.24557375,
          "velocity": 0.6850393700787402
        },
        {
          "duration": 0.350876999999997,
          "durationTicks": 384,
          "midi": 39,
          "name": "D#2",
          "ticks": 80352,
          "time": 73.42101225,
          "velocity": 0.6850393700787402
        },
        {
          "duration": 0.26315774999999064,
          "durationTicks": 288,
          "midi": 70,
          "name": "A#4",
          "ticks": 80544,
          "time": 73.59645075,
          "velocity": 0.6850393700787402
        },
        {
          "duration": 0.1754384999999985,
          "durationTicks": 192,
          "midi": 39,
          "name": "D#2",
          "ticks": 80736,
          "time": 73.77188925,
          "velocity": 0.6850393700787402
        },
        {
          "duration": 0.26315775000000485,
          "durationTicks": 288,
          "midi": 72,
          "name": "C5",
          "ticks": 80928,
          "time": 73.94732775,
          "velocity": 0.6850393700787402
        },
        {
          "duration": 0.350876999999997,
          "durationTicks": 384,
          "midi": 39,
          "name": "D#2",
          "ticks": 80928,
          "time": 73.94732775,
          "velocity": 0.6850393700787402
        },
        {
          "duration": 0.350876999999997,
          "durationTicks": 384,
          "midi": 39,
          "name": "D#2",
          "ticks": 81312,
          "time": 74.29820475,
          "velocity": 0.6850393700787402
        },
        {
          "duration": 0.26315775000000485,
          "durationTicks": 288,
          "midi": 70,
          "name": "A#4",
          "ticks": 81312,
          "time": 74.29820475,
          "velocity": 0.6850393700787402
        },
        {
          "duration": 0.08771925000000635,
          "durationTicks": 96,
          "midi": 65,
          "name": "F4",
          "ticks": 81696,
          "time": 74.64908175,
          "velocity": 0.6850393700787402
        },
        {
          "duration": 0.3508770000000112,
          "durationTicks": 384,
          "midi": 39,
          "name": "D#2",
          "ticks": 81696,
          "time": 74.64908175,
          "velocity": 0.6850393700787402
        },
        {
          "duration": 0.26315775000000485,
          "durationTicks": 288,
          "midi": 70,
          "name": "A#4",
          "ticks": 81888,
          "time": 74.82452024999999,
          "velocity": 0.6850393700787402
        },
        {
          "duration": 0.1754384999999985,
          "durationTicks": 192,
          "midi": 39,
          "name": "D#2",
          "ticks": 82080,
          "time": 74.99995875,
          "velocity": 0.6850393700787402
        },
        {
          "duration": 0.26315774999999064,
          "durationTicks": 288,
          "midi": 72,
          "name": "C5",
          "ticks": 82272,
          "time": 75.17539725,
          "velocity": 0.6850393700787402
        },
        {
          "duration": 0.1754384999999985,
          "durationTicks": 192,
          "midi": 39,
          "name": "D#2",
          "ticks": 82272,
          "time": 75.17539725,
          "velocity": 0.6850393700787402
        },
        {
          "duration": 0.1754384999999985,
          "durationTicks": 192,
          "midi": 29,
          "name": "F1",
          "ticks": 82272,
          "time": 75.17539725,
          "velocity": 0.6850393700787402
        },
        {
          "duration": 0.1754384999999985,
          "durationTicks": 192,
          "midi": 39,
          "name": "D#2",
          "ticks": 82464,
          "time": 75.35083575,
          "velocity": 0.6850393700787402
        },
        {
          "duration": 0.1754384999999985,
          "durationTicks": 192,
          "midi": 39,
          "name": "D#2",
          "ticks": 82656,
          "time": 75.52627425,
          "velocity": 0.6850393700787402
        },
        {
          "duration": 0.1754384999999985,
          "durationTicks": 192,
          "midi": 29,
          "name": "F1",
          "ticks": 82656,
          "time": 75.52627425,
          "velocity": 0.6850393700787402
        },
        {
          "duration": 0.08771924999999214,
          "durationTicks": 96,
          "midi": 74,
          "name": "D5",
          "ticks": 82656,
          "time": 75.52627425,
          "velocity": 0.6850393700787402
        },
        {
          "duration": 0.08771925000000635,
          "durationTicks": 96,
          "midi": 72,
          "name": "C5",
          "ticks": 82752,
          "time": 75.61399349999999,
          "velocity": 0.6850393700787402
        },
        {
          "duration": 0.350876999999997,
          "durationTicks": 384,
          "midi": 39,
          "name": "D#2",
          "ticks": 82848,
          "time": 75.70171275,
          "velocity": 0.6850393700787402
        },
        {
          "duration": 0.26315775000000485,
          "durationTicks": 288,
          "midi": 70,
          "name": "A#4",
          "ticks": 82848,
          "time": 75.70171275,
          "velocity": 0.6850393700787402
        },
        {
          "duration": 0.08771925000000635,
          "durationTicks": 96,
          "midi": 41,
          "name": "F2",
          "ticks": 83232,
          "time": 76.05258975,
          "velocity": 0.6850393700787402
        },
        {
          "duration": 0.26315775000000485,
          "durationTicks": 288,
          "midi": 65,
          "name": "F4",
          "ticks": 83232,
          "time": 76.05258975,
          "velocity": 0.6850393700787402
        },
        {
          "duration": 0.08771924999999214,
          "durationTicks": 96,
          "midi": 41,
          "name": "F2",
          "ticks": 83328,
          "time": 76.140309,
          "velocity": 0.6850393700787402
        },
        {
          "duration": 0.3508770000000112,
          "durationTicks": 384,
          "midi": 41,
          "name": "F2",
          "ticks": 83424,
          "time": 76.22802825,
          "velocity": 0.6850393700787402
        },
        {
          "duration": 0.26315775000000485,
          "durationTicks": 288,
          "midi": 70,
          "name": "A#4",
          "ticks": 83616,
          "time": 76.40346674999999,
          "velocity": 0.6850393700787402
        },
        {
          "duration": 0.1754384999999985,
          "durationTicks": 192,
          "midi": 41,
          "name": "F2",
          "ticks": 83808,
          "time": 76.57890525,
          "velocity": 0.6850393700787402
        },
        {
          "duration": 0.1754384999999985,
          "durationTicks": 192,
          "midi": 72,
          "name": "C5",
          "ticks": 84000,
          "time": 76.75434375,
          "velocity": 0.6850393700787402
        },
        {
          "duration": 0.1754384999999985,
          "durationTicks": 192,
          "midi": 41,
          "name": "F2",
          "ticks": 84000,
          "time": 76.75434375,
          "velocity": 0.6850393700787402
        },
        {
          "duration": 0.350876999999997,
          "durationTicks": 384,
          "midi": 41,
          "name": "F2",
          "ticks": 84192,
          "time": 76.92978225,
          "velocity": 0.6850393700787402
        },
        {
          "duration": 0.26315774999999064,
          "durationTicks": 288,
          "midi": 75,
          "name": "D#5",
          "ticks": 84192,
          "time": 76.92978225,
          "velocity": 0.6850393700787402
        },
        {
          "duration": 0.350876999999997,
          "durationTicks": 384,
          "midi": 74,
          "name": "D5",
          "ticks": 84576,
          "time": 77.28065925,
          "velocity": 0.6850393700787402
        },
        {
          "duration": 0.1754384999999985,
          "durationTicks": 192,
          "midi": 41,
          "name": "F2",
          "ticks": 84576,
          "time": 77.28065925,
          "velocity": 0.6850393700787402
        },
        {
          "duration": 0.08771925000000635,
          "durationTicks": 96,
          "midi": 43,
          "name": "G2",
          "ticks": 84768,
          "time": 77.45609775,
          "velocity": 0.6850393700787402
        },
        {
          "duration": 0.08771924999999214,
          "durationTicks": 96,
          "midi": 43,
          "name": "G2",
          "ticks": 84864,
          "time": 77.543817,
          "velocity": 0.6850393700787402
        },
        {
          "duration": 0.1754384999999985,
          "durationTicks": 192,
          "midi": 43,
          "name": "G2",
          "ticks": 84960,
          "time": 77.63153625,
          "velocity": 0.6850393700787402
        },
        {
          "duration": 0.08771925000000635,
          "durationTicks": 96,
          "midi": 75,
          "name": "D#5",
          "ticks": 84960,
          "time": 77.63153625,
          "velocity": 0.6850393700787402
        },
        {
          "duration": 0.08771924999999214,
          "durationTicks": 96,
          "midi": 74,
          "name": "D5",
          "ticks": 85056,
          "time": 77.7192555,
          "velocity": 0.6850393700787402
        },
        {
          "duration": 0.08771925000000635,
          "durationTicks": 96,
          "midi": 43,
          "name": "G2",
          "ticks": 85152,
          "time": 77.80697475,
          "velocity": 0.6850393700787402
        },
        {
          "duration": 0.26315775000000485,
          "durationTicks": 288,
          "midi": 72,
          "name": "C5",
          "ticks": 85152,
          "time": 77.80697475,
          "velocity": 0.6850393700787402
        },
        {
          "duration": 0.08771924999999214,
          "durationTicks": 96,
          "midi": 43,
          "name": "G2",
          "ticks": 85248,
          "time": 77.894694,
          "velocity": 0.6850393700787402
        },
        {
          "duration": 0.1754384999999985,
          "durationTicks": 192,
          "midi": 26,
          "name": "D1",
          "ticks": 85248,
          "time": 77.894694,
          "velocity": 0.6850393700787402
        },
        {
          "duration": 0.1754384999999985,
          "durationTicks": 192,
          "midi": 43,
          "name": "G2",
          "ticks": 85344,
          "time": 77.98241325,
          "velocity": 0.6850393700787402
        },
        {
          "duration": 0.1754384999999985,
          "durationTicks": 192,
          "midi": 31,
          "name": "G1",
          "ticks": 85440,
          "time": 78.0701325,
          "velocity": 0.6850393700787402
        },
        {
          "duration": 0.3508770000000112,
          "durationTicks": 384,
          "midi": 43,
          "name": "G2",
          "ticks": 85536,
          "time": 78.15785174999999,
          "velocity": 0.6850393700787402
        },
        {
          "duration": 0.26315775000000485,
          "durationTicks": 288,
          "midi": 70,
          "name": "A#4",
          "ticks": 85536,
          "time": 78.15785174999999,
          "velocity": 0.6850393700787402
        },
        {
          "duration": 0.1754384999999985,
          "durationTicks": 192,
          "midi": 26,
          "name": "D1",
          "ticks": 85632,
          "time": 78.245571,
          "velocity": 0.6850393700787402
        },
        {
          "duration": 0.1754384999999985,
          "durationTicks": 192,
          "midi": 31,
          "name": "G1",
          "ticks": 85824,
          "time": 78.4210095,
          "velocity": 0.6850393700787402
        },
        {
          "duration": 0.08771924999999214,
          "durationTicks": 96,
          "midi": 43,
          "name": "G2",
          "ticks": 85920,
          "time": 78.50872875,
          "velocity": 0.6850393700787402
        },
        {
          "duration": 0.26315774999999064,
          "durationTicks": 288,
          "midi": 65,
          "name": "F4",
          "ticks": 85920,
          "time": 78.50872875,
          "velocity": 0.6850393700787402
        },
        {
          "duration": 0.26315775000000485,
          "durationTicks": 288,
          "midi": 43,
          "name": "G2",
          "ticks": 86016,
          "time": 78.596448,
          "velocity": 0.6850393700787402
        },
        {
          "duration": 0.1754384999999985,
          "durationTicks": 192,
          "midi": 26,
          "name": "D1",
          "ticks": 86016,
          "time": 78.596448,
          "velocity": 0.6850393700787402
        },
        {
          "duration": 0.26315775000000485,
          "durationTicks": 288,
          "midi": 77,
          "name": "F5",
          "ticks": 86304,
          "time": 78.85960575,
          "velocity": 0.6850393700787402
        },
        {
          "duration": 0.1754384999999985,
          "durationTicks": 192,
          "midi": 36,
          "name": "C2",
          "ticks": 86304,
          "time": 78.85960575,
          "velocity": 0.6850393700787402
        },
        {
          "duration": 0.350876999999997,
          "durationTicks": 384,
          "midi": 36,
          "name": "C2",
          "ticks": 86496,
          "time": 79.03504425,
          "velocity": 0.6850393700787402
        },
        {
          "duration": 0.26315775000000485,
          "durationTicks": 288,
          "midi": 70,
          "name": "A#4",
          "ticks": 86688,
          "time": 79.21048275,
          "velocity": 0.6850393700787402
        },
        {
          "duration": 0.1754384999999985,
          "durationTicks": 192,
          "midi": 36,
          "name": "C2",
          "ticks": 86880,
          "time": 79.38592125,
          "velocity": 0.6850393700787402
        },
        {
          "duration": 0.3508770000000112,
          "durationTicks": 384,
          "midi": 36,
          "name": "C2",
          "ticks": 87072,
          "time": 79.56135975,
          "velocity": 0.6850393700787402
        },
        {
          "duration": 0.26315775000000485,
          "durationTicks": 288,
          "midi": 72,
          "name": "C5",
          "ticks": 87072,
          "time": 79.56135975,
          "velocity": 0.6850393700787402
        },
        {
          "duration": 0.350876999999997,
          "durationTicks": 384,
          "midi": 36,
          "name": "C2",
          "ticks": 87456,
          "time": 79.91223675,
          "velocity": 0.6850393700787402
        },
        {
          "duration": 0.26315774999999064,
          "durationTicks": 288,
          "midi": 70,
          "name": "A#4",
          "ticks": 87456,
          "time": 79.91223675,
          "velocity": 0.6850393700787402
        },
        {
          "duration": 0.08771924999999214,
          "durationTicks": 96,
          "midi": 65,
          "name": "F4",
          "ticks": 87840,
          "time": 80.26311375,
          "velocity": 0.6850393700787402
        },
        {
          "duration": 0.350876999999997,
          "durationTicks": 384,
          "midi": 36,
          "name": "C2",
          "ticks": 87840,
          "time": 80.26311375,
          "velocity": 0.6850393700787402
        },
        {
          "duration": 0.26315775000000485,
          "durationTicks": 288,
          "midi": 70,
          "name": "A#4",
          "ticks": 88032,
          "time": 80.43855225,
          "velocity": 0.6850393700787402
        },
        {
          "duration": 0.1754384999999985,
          "durationTicks": 192,
          "midi": 36,
          "name": "C2",
          "ticks": 88224,
          "time": 80.61399075,
          "velocity": 0.6850393700787402
        },
        {
          "duration": 0.1754384999999985,
          "durationTicks": 192,
          "midi": 26,
          "name": "D1",
          "ticks": 88224,
          "time": 80.61399075,
          "velocity": 0.6850393700787402
        },
        {
          "duration": 0.1754384999999985,
          "durationTicks": 192,
          "midi": 36,
          "name": "C2",
          "ticks": 88416,
          "time": 80.78942925,
          "velocity": 0.6850393700787402
        },
        {
          "duration": 0.1754384999999985,
          "durationTicks": 192,
          "midi": 29,
          "name": "F1",
          "ticks": 88416,
          "time": 80.78942925,
          "velocity": 0.6850393700787402
        },
        {
          "duration": 0.26315775000000485,
          "durationTicks": 288,
          "midi": 72,
          "name": "C5",
          "ticks": 88416,
          "time": 80.78942925,
          "velocity": 0.6850393700787402
        },
        {
          "duration": 0.1754384999999985,
          "durationTicks": 192,
          "midi": 36,
          "name": "C2",
          "ticks": 88608,
          "time": 80.96486775,
          "velocity": 0.6850393700787402
        },
        {
          "duration": 0.1754384999999985,
          "durationTicks": 192,
          "midi": 26,
          "name": "D1",
          "ticks": 88608,
          "time": 80.96486775,
          "velocity": 0.6850393700787402
        },
        {
          "duration": 0.08771925000000635,
          "durationTicks": 96,
          "midi": 74,
          "name": "D5",
          "ticks": 88800,
          "time": 81.14030625,
          "velocity": 0.6850393700787402
        },
        {
          "duration": 0.1754384999999985,
          "durationTicks": 192,
          "midi": 36,
          "name": "C2",
          "ticks": 88800,
          "time": 81.14030625,
          "velocity": 0.6850393700787402
        },
        {
          "duration": 0.1754384999999985,
          "durationTicks": 192,
          "midi": 29,
          "name": "F1",
          "ticks": 88800,
          "time": 81.14030625,
          "velocity": 0.6850393700787402
        },
        {
          "duration": 0.08771924999999214,
          "durationTicks": 96,
          "midi": 72,
          "name": "C5",
          "ticks": 88896,
          "time": 81.2280255,
          "velocity": 0.6850393700787402
        },
        {
          "duration": 0.3508770000000112,
          "durationTicks": 384,
          "midi": 36,
          "name": "C2",
          "ticks": 88992,
          "time": 81.31574475,
          "velocity": 0.6850393700787402
        },
        {
          "duration": 0.1754384999999985,
          "durationTicks": 192,
          "midi": 26,
          "name": "D1",
          "ticks": 88992,
          "time": 81.31574475,
          "velocity": 0.6850393700787402
        },
        {
          "duration": 0.26315775000000485,
          "durationTicks": 288,
          "midi": 70,
          "name": "A#4",
          "ticks": 88992,
          "time": 81.31574475,
          "velocity": 0.6850393700787402
        },
        {
          "duration": 0.1754384999999985,
          "durationTicks": 192,
          "midi": 38,
          "name": "D2",
          "ticks": 89376,
          "time": 81.66662175,
          "velocity": 0.6850393700787402
        },
        {
          "duration": 0.26315774999999064,
          "durationTicks": 288,
          "midi": 65,
          "name": "F4",
          "ticks": 89376,
          "time": 81.66662175,
          "velocity": 0.6850393700787402
        },
        {
          "duration": 0.350876999999997,
          "durationTicks": 384,
          "midi": 38,
          "name": "D2",
          "ticks": 89568,
          "time": 81.84206025,
          "velocity": 0.6850393700787402
        },
        {
          "duration": 0.26315774999999064,
          "durationTicks": 288,
          "midi": 70,
          "name": "A#4",
          "ticks": 89760,
          "time": 82.01749875,
          "velocity": 0.6850393700787402
        },
        {
          "duration": 0.1754384999999985,
          "durationTicks": 192,
          "midi": 38,
          "name": "D2",
          "ticks": 89952,
          "time": 82.19293725,
          "velocity": 0.6850393700787402
        },
        {
          "duration": 0.1754384999999985,
          "durationTicks": 192,
          "midi": 72,
          "name": "C5",
          "ticks": 90144,
          "time": 82.36837575,
          "velocity": 0.6850393700787402
        },
        {
          "duration": 0.350876999999997,
          "durationTicks": 384,
          "midi": 38,
          "name": "D2",
          "ticks": 90144,
          "time": 82.36837575,
          "velocity": 0.6850393700787402
        },
        {
          "duration": 0.26315775000000485,
          "durationTicks": 288,
          "midi": 75,
          "name": "D#5",
          "ticks": 90336,
          "time": 82.54381425,
          "velocity": 0.6850393700787402
        },
        {
          "duration": 0.1754384999999985,
          "durationTicks": 192,
          "midi": 38,
          "name": "D2",
          "ticks": 90528,
          "time": 82.71925275,
          "velocity": 0.6850393700787402
        },
        {
          "duration": 0.3508770000000112,
          "durationTicks": 384,
          "midi": 74,
          "name": "D5",
          "ticks": 90720,
          "time": 82.89469125,
          "velocity": 0.6850393700787402
        },
        {
          "duration": 0.1754384999999985,
          "durationTicks": 192,
          "midi": 38,
          "name": "D2",
          "ticks": 90720,
          "time": 82.89469125,
          "velocity": 0.6850393700787402
        },
        {
          "duration": 0.1754385000000127,
          "durationTicks": 192,
          "midi": 38,
          "name": "D2",
          "ticks": 90912,
          "time": 83.07012974999999,
          "velocity": 0.6850393700787402
        },
        {
          "duration": 0.350876999999997,
          "durationTicks": 384,
          "midi": 38,
          "name": "D2",
          "ticks": 91104,
          "time": 83.24556825,
          "velocity": 0.6850393700787402
        },
        {
          "duration": 0.08771924999999214,
          "durationTicks": 96,
          "midi": 75,
          "name": "D#5",
          "ticks": 91104,
          "time": 83.24556825,
          "velocity": 0.6850393700787402
        },
        {
          "duration": 0.08771925000000635,
          "durationTicks": 96,
          "midi": 74,
          "name": "D5",
          "ticks": 91200,
          "time": 83.3332875,
          "velocity": 0.6850393700787402
        },
        {
          "duration": 0.1754384999999985,
          "durationTicks": 192,
          "midi": 26,
          "name": "D1",
          "ticks": 91296,
          "time": 83.42100675,
          "velocity": 0.6850393700787402
        },
        {
          "duration": 0.26315774999999064,
          "durationTicks": 288,
          "midi": 72,
          "name": "C5",
          "ticks": 91296,
          "time": 83.42100675,
          "velocity": 0.6850393700787402
        },
        {
          "duration": 0.1754384999999985,
          "durationTicks": 192,
          "midi": 29,
          "name": "F1",
          "ticks": 91488,
          "time": 83.59644525,
          "velocity": 0.6850393700787402
        },
        {
          "duration": 0.350876999999997,
          "durationTicks": 384,
          "midi": 38,
          "name": "D2",
          "ticks": 91488,
          "time": 83.59644525,
          "velocity": 0.6850393700787402
        },
        {
          "duration": 0.1754384999999985,
          "durationTicks": 192,
          "midi": 26,
          "name": "D1",
          "ticks": 91680,
          "time": 83.77188375,
          "velocity": 0.6850393700787402
        },
        {
          "duration": 0.26315775000000485,
          "durationTicks": 288,
          "midi": 70,
          "name": "A#4",
          "ticks": 91680,
          "time": 83.77188375,
          "velocity": 0.6850393700787402
        },
        {
          "duration": 0.1754384999999985,
          "durationTicks": 192,
          "midi": 38,
          "name": "D2",
          "ticks": 91872,
          "time": 83.94732225,
          "velocity": 0.6850393700787402
        },
        {
          "duration": 0.1754384999999985,
          "durationTicks": 192,
          "midi": 29,
          "name": "F1",
          "ticks": 91872,
          "time": 83.94732225,
          "velocity": 0.6850393700787402
        },
        {
          "duration": 0.350876999999997,
          "durationTicks": 384,
          "midi": 38,
          "name": "D2",
          "ticks": 92064,
          "time": 84.12276075,
          "velocity": 0.6850393700787402
        },
        {
          "duration": 0.26315775000000485,
          "durationTicks": 288,
          "midi": 65,
          "name": "F4",
          "ticks": 92064,
          "time": 84.12276075,
          "velocity": 0.6850393700787402
        },
        {
          "duration": 0.1754384999999985,
          "durationTicks": 192,
          "midi": 26,
          "name": "D1",
          "ticks": 92064,
          "time": 84.12276075,
          "velocity": 0.6850393700787402
        },
        {
          "duration": 0.1754384999999985,
          "durationTicks": 192,
          "midi": 39,
          "name": "D#2",
          "ticks": 92448,
          "time": 84.47363775,
          "velocity": 0.6850393700787402
        },
        {
          "duration": 0.26315775000000485,
          "durationTicks": 288,
          "midi": 77,
          "name": "F5",
          "ticks": 92448,
          "time": 84.47363775,
          "velocity": 0.6850393700787402
        },
        {
          "duration": 0.3508770000000112,
          "durationTicks": 384,
          "midi": 39,
          "name": "D#2",
          "ticks": 92640,
          "time": 84.64907625,
          "velocity": 0.6850393700787402
        },
        {
          "duration": 0.26315775000000485,
          "durationTicks": 288,
          "midi": 70,
          "name": "A#4",
          "ticks": 92832,
          "time": 84.82451474999999,
          "velocity": 0.6850393700787402
        },
        {
          "duration": 0.1754384999999985,
          "durationTicks": 192,
          "midi": 39,
          "name": "D#2",
          "ticks": 93024,
          "time": 84.99995325,
          "velocity": 0.6850393700787402
        },
        {
          "duration": 0.26315774999999064,
          "durationTicks": 288,
          "midi": 72,
          "name": "C5",
          "ticks": 93216,
          "time": 85.17539175,
          "velocity": 0.6850393700787402
        },
        {
          "duration": 0.350876999999997,
          "durationTicks": 384,
          "midi": 39,
          "name": "D#2",
          "ticks": 93216,
          "time": 85.17539175,
          "velocity": 0.6850393700787402
        },
        {
          "duration": 0.26315775000000485,
          "durationTicks": 288,
          "midi": 70,
          "name": "A#4",
          "ticks": 93600,
          "time": 85.52626875,
          "velocity": 0.6850393700787402
        },
        {
          "duration": 0.350876999999997,
          "durationTicks": 384,
          "midi": 39,
          "name": "D#2",
          "ticks": 93600,
          "time": 85.52626875,
          "velocity": 0.6850393700787402
        },
        {
          "duration": 0.350876999999997,
          "durationTicks": 384,
          "midi": 39,
          "name": "D#2",
          "ticks": 93984,
          "time": 85.87714575,
          "velocity": 0.6850393700787402
        },
        {
          "duration": 0.08771925000000635,
          "durationTicks": 96,
          "midi": 65,
          "name": "F4",
          "ticks": 93984,
          "time": 85.87714575,
          "velocity": 0.6850393700787402
        },
        {
          "duration": 0.26315775000000485,
          "durationTicks": 288,
          "midi": 70,
          "name": "A#4",
          "ticks": 94176,
          "time": 86.05258425,
          "velocity": 0.6850393700787402
        },
        {
          "duration": 0.1754384999999985,
          "durationTicks": 192,
          "midi": 39,
          "name": "D#2",
          "ticks": 94368,
          "time": 86.22802275,
          "velocity": 0.6850393700787402
        },
        {
          "duration": 0.1754385000000127,
          "durationTicks": 192,
          "midi": 39,
          "name": "D#2",
          "ticks": 94560,
          "time": 86.40346124999999,
          "velocity": 0.6850393700787402
        },
        {
          "duration": 0.1754385000000127,
          "durationTicks": 192,
          "midi": 29,
          "name": "F1",
          "ticks": 94560,
          "time": 86.40346124999999,
          "velocity": 0.6850393700787402
        },
        {
          "duration": 0.26315775000000485,
          "durationTicks": 288,
          "midi": 72,
          "name": "C5",
          "ticks": 94560,
          "time": 86.40346124999999,
          "velocity": 0.6850393700787402
        },
        {
          "duration": 0.1754384999999985,
          "durationTicks": 192,
          "midi": 39,
          "name": "D#2",
          "ticks": 94752,
          "time": 86.57889975,
          "velocity": 0.6850393700787402
        },
        {
          "duration": 0.08771924999999214,
          "durationTicks": 96,
          "midi": 74,
          "name": "D5",
          "ticks": 94944,
          "time": 86.75433825,
          "velocity": 0.6850393700787402
        },
        {
          "duration": 0.1754384999999985,
          "durationTicks": 192,
          "midi": 29,
          "name": "F1",
          "ticks": 94944,
          "time": 86.75433825,
          "velocity": 0.6850393700787402
        },
        {
          "duration": 0.1754384999999985,
          "durationTicks": 192,
          "midi": 39,
          "name": "D#2",
          "ticks": 94944,
          "time": 86.75433825,
          "velocity": 0.6850393700787402
        },
        {
          "duration": 0.08771925000000635,
          "durationTicks": 96,
          "midi": 72,
          "name": "C5",
          "ticks": 95040,
          "time": 86.8420575,
          "velocity": 0.6850393700787402
        },
        {
          "duration": 0.26315774999999064,
          "durationTicks": 288,
          "midi": 70,
          "name": "A#4",
          "ticks": 95136,
          "time": 86.92977675,
          "velocity": 0.6850393700787402
        },
        {
          "duration": 0.350876999999997,
          "durationTicks": 384,
          "midi": 39,
          "name": "D#2",
          "ticks": 95136,
          "time": 86.92977675,
          "velocity": 0.6850393700787402
        },
        {
          "duration": 0.08771925000000635,
          "durationTicks": 96,
          "midi": 41,
          "name": "F2",
          "ticks": 95520,
          "time": 87.28065375,
          "velocity": 0.6850393700787402
        },
        {
          "duration": 0.26315775000000485,
          "durationTicks": 288,
          "midi": 65,
          "name": "F4",
          "ticks": 95520,
          "time": 87.28065375,
          "velocity": 0.6850393700787402
        },
        {
          "duration": 0.08771924999999214,
          "durationTicks": 96,
          "midi": 41,
          "name": "F2",
          "ticks": 95616,
          "time": 87.368373,
          "velocity": 0.6850393700787402
        },
        {
          "duration": 0.350876999999997,
          "durationTicks": 384,
          "midi": 41,
          "name": "F2",
          "ticks": 95712,
          "time": 87.45609225,
          "velocity": 0.6850393700787402
        },
        {
          "duration": 0.26315775000000485,
          "durationTicks": 288,
          "midi": 70,
          "name": "A#4",
          "ticks": 95904,
          "time": 87.63153075,
          "velocity": 0.6850393700787402
        },
        {
          "duration": 0.1754384999999985,
          "durationTicks": 192,
          "midi": 41,
          "name": "F2",
          "ticks": 96096,
          "time": 87.80696925,
          "velocity": 0.6850393700787402
        },
        {
          "duration": 0.1754384999999985,
          "durationTicks": 192,
          "midi": 72,
          "name": "C5",
          "ticks": 96288,
          "time": 87.98240775,
          "velocity": 0.6850393700787402
        },
        {
          "duration": 0.1754384999999985,
          "durationTicks": 192,
          "midi": 41,
          "name": "F2",
          "ticks": 96288,
          "time": 87.98240775,
          "velocity": 0.6850393700787402
        },
        {
          "duration": 0.3508770000000112,
          "durationTicks": 384,
          "midi": 41,
          "name": "F2",
          "ticks": 96480,
          "time": 88.15784624999999,
          "velocity": 0.6850393700787402
        },
        {
          "duration": 0.26315775000000485,
          "durationTicks": 288,
          "midi": 75,
          "name": "D#5",
          "ticks": 96480,
          "time": 88.15784624999999,
          "velocity": 0.6850393700787402
        },
        {
          "duration": 0.1754384999999985,
          "durationTicks": 192,
          "midi": 41,
          "name": "F2",
          "ticks": 96864,
          "time": 88.50872325,
          "velocity": 0.6850393700787402
        },
        {
          "duration": 0.350876999999997,
          "durationTicks": 384,
          "midi": 74,
          "name": "D5",
          "ticks": 96864,
          "time": 88.50872325,
          "velocity": 0.6850393700787402
        },
        {
          "duration": 0.08771924999999214,
          "durationTicks": 96,
          "midi": 43,
          "name": "G2",
          "ticks": 97056,
          "time": 88.68416175,
          "velocity": 0.6850393700787402
        },
        {
          "duration": 0.08771925000000635,
          "durationTicks": 96,
          "midi": 43,
          "name": "G2",
          "ticks": 97152,
          "time": 88.771881,
          "velocity": 0.6850393700787402
        },
        {
          "duration": 0.08771924999999214,
          "durationTicks": 96,
          "midi": 75,
          "name": "D#5",
          "ticks": 97248,
          "time": 88.85960025,
          "velocity": 0.6850393700787402
        },
        {
          "duration": 0.1754384999999985,
          "durationTicks": 192,
          "midi": 43,
          "name": "G2",
          "ticks": 97248,
          "time": 88.85960025,
          "velocity": 0.6850393700787402
        },
        {
          "duration": 0.08771925000000635,
          "durationTicks": 96,
          "midi": 74,
          "name": "D5",
          "ticks": 97344,
          "time": 88.94731949999999,
          "velocity": 0.6850393700787402
        },
        {
          "duration": 0.26315775000000485,
          "durationTicks": 288,
          "midi": 72,
          "name": "C5",
          "ticks": 97440,
          "time": 89.03503875,
          "velocity": 0.6850393700787402
        },
        {
          "duration": 0.08771925000000635,
          "durationTicks": 96,
          "midi": 43,
          "name": "G2",
          "ticks": 97440,
          "time": 89.03503875,
          "velocity": 0.6850393700787402
        },
        {
          "duration": 0.1754384999999985,
          "durationTicks": 192,
          "midi": 26,
          "name": "D1",
          "ticks": 97536,
          "time": 89.122758,
          "velocity": 0.6850393700787402
        },
        {
          "duration": 0.08771924999999214,
          "durationTicks": 96,
          "midi": 43,
          "name": "G2",
          "ticks": 97536,
          "time": 89.122758,
          "velocity": 0.6850393700787402
        },
        {
          "duration": 0.1754384999999985,
          "durationTicks": 192,
          "midi": 43,
          "name": "G2",
          "ticks": 97632,
          "time": 89.21047725,
          "velocity": 0.6850393700787402
        },
        {
          "duration": 0.1754384999999985,
          "durationTicks": 192,
          "midi": 31,
          "name": "G1",
          "ticks": 97728,
          "time": 89.2981965,
          "velocity": 0.6850393700787402
        },
        {
          "duration": 0.26315775000000485,
          "durationTicks": 288,
          "midi": 70,
          "name": "A#4",
          "ticks": 97824,
          "time": 89.38591575,
          "velocity": 0.6850393700787402
        },
        {
          "duration": 0.350876999999997,
          "durationTicks": 384,
          "midi": 43,
          "name": "G2",
          "ticks": 97824,
          "time": 89.38591575,
          "velocity": 0.6850393700787402
        },
        {
          "duration": 0.1754384999999985,
          "durationTicks": 192,
          "midi": 26,
          "name": "D1",
          "ticks": 97920,
          "time": 89.473635,
          "velocity": 0.6850393700787402
        },
        {
          "duration": 0.1754384999999985,
          "durationTicks": 192,
          "midi": 31,
          "name": "G1",
          "ticks": 98112,
          "time": 89.6490735,
          "velocity": 0.6850393700787402
        },
        {
          "duration": 0.26315775000000485,
          "durationTicks": 288,
          "midi": 65,
          "name": "F4",
          "ticks": 98208,
          "time": 89.73679274999999,
          "velocity": 0.6850393700787402
        },
        {
          "duration": 0.08771925000000635,
          "durationTicks": 96,
          "midi": 43,
          "name": "G2",
          "ticks": 98208,
          "time": 89.73679274999999,
          "velocity": 0.6850393700787402
        },
        {
          "duration": 0.1754384999999985,
          "durationTicks": 192,
          "midi": 26,
          "name": "D1",
          "ticks": 98304,
          "time": 89.824512,
          "velocity": 0.6850393700787402
        },
        {
          "duration": 0.26315775000000485,
          "durationTicks": 288,
          "midi": 43,
          "name": "G2",
          "ticks": 98304,
          "time": 89.824512,
          "velocity": 0.6850393700787402
        },
        {
          "duration": 0.1754384999999985,
          "durationTicks": 192,
          "midi": 36,
          "name": "C2",
          "ticks": 98592,
          "time": 90.08766975,
          "velocity": 0.6850393700787402
        },
        {
          "duration": 0.350876999999997,
          "durationTicks": 384,
          "midi": 36,
          "name": "C2",
          "ticks": 98784,
          "time": 90.26310825,
          "velocity": 0.6850393700787402
        },
        {
          "duration": 0.1754384999999985,
          "durationTicks": 192,
          "midi": 36,
          "name": "C2",
          "ticks": 99168,
          "time": 90.61398525,
          "velocity": 0.6850393700787402
        },
        {
          "duration": 0.350876999999997,
          "durationTicks": 384,
          "midi": 36,
          "name": "C2",
          "ticks": 99360,
          "time": 90.78942375,
          "velocity": 0.6850393700787402
        },
        {
          "duration": 0.3508770000000112,
          "durationTicks": 384,
          "midi": 36,
          "name": "C2",
          "ticks": 99744,
          "time": 91.14030075,
          "velocity": 0.6850393700787402
        },
        {
          "duration": 0.350876999999997,
          "durationTicks": 384,
          "midi": 36,
          "name": "C2",
          "ticks": 100128,
          "time": 91.49117775,
          "velocity": 0.6850393700787402
        },
        {
          "duration": 0.1754384999999985,
          "durationTicks": 192,
          "midi": 36,
          "name": "C2",
          "ticks": 100512,
          "time": 91.84205475,
          "velocity": 0.6850393700787402
        },
        {
          "duration": 0.1754384999999985,
          "durationTicks": 192,
          "midi": 26,
          "name": "D1",
          "ticks": 100512,
          "time": 91.84205475,
          "velocity": 0.6850393700787402
        },
        {
          "duration": 0.1754384999999985,
          "durationTicks": 192,
          "midi": 29,
          "name": "F1",
          "ticks": 100704,
          "time": 92.01749325,
          "velocity": 0.6850393700787402
        },
        {
          "duration": 0.1754384999999985,
          "durationTicks": 192,
          "midi": 36,
          "name": "C2",
          "ticks": 100704,
          "time": 92.01749325,
          "velocity": 0.6850393700787402
        },
        {
          "duration": 0.1754384999999985,
          "durationTicks": 192,
          "midi": 36,
          "name": "C2",
          "ticks": 100896,
          "time": 92.19293175,
          "velocity": 0.6850393700787402
        },
        {
          "duration": 0.1754384999999985,
          "durationTicks": 192,
          "midi": 26,
          "name": "D1",
          "ticks": 100896,
          "time": 92.19293175,
          "velocity": 0.6850393700787402
        },
        {
          "duration": 0.1754384999999985,
          "durationTicks": 192,
          "midi": 36,
          "name": "C2",
          "ticks": 101088,
          "time": 92.36837025,
          "velocity": 0.6850393700787402
        },
        {
          "duration": 0.1754384999999985,
          "durationTicks": 192,
          "midi": 29,
          "name": "F1",
          "ticks": 101088,
          "time": 92.36837025,
          "velocity": 0.6850393700787402
        },
        {
          "duration": 0.1754384999999985,
          "durationTicks": 192,
          "midi": 26,
          "name": "D1",
          "ticks": 101280,
          "time": 92.54380875,
          "velocity": 0.6850393700787402
        },
        {
          "duration": 0.350876999999997,
          "durationTicks": 384,
          "midi": 36,
          "name": "C2",
          "ticks": 101280,
          "time": 92.54380875,
          "velocity": 0.6850393700787402
        },
        {
          "duration": 0.1754384999999985,
          "durationTicks": 192,
          "midi": 38,
          "name": "D2",
          "ticks": 101664,
          "time": 92.89468575,
          "velocity": 0.6850393700787402
        },
        {
          "duration": 0.3508770000000112,
          "durationTicks": 384,
          "midi": 38,
          "name": "D2",
          "ticks": 101856,
          "time": 93.07012424999999,
          "velocity": 0.6850393700787402
        },
        {
          "duration": 0.1754384999999985,
          "durationTicks": 192,
          "midi": 38,
          "name": "D2",
          "ticks": 102240,
          "time": 93.42100125,
          "velocity": 0.6850393700787402
        },
        {
          "duration": 0.350876999999997,
          "durationTicks": 384,
          "midi": 38,
          "name": "D2",
          "ticks": 102432,
          "time": 93.59643975,
          "velocity": 0.6850393700787402
        },
        {
          "duration": 0.1754384999999985,
          "durationTicks": 192,
          "midi": 38,
          "name": "D2",
          "ticks": 102816,
          "time": 93.94731675,
          "velocity": 0.6850393700787402
        },
        {
          "duration": 0.1754384999999985,
          "durationTicks": 192,
          "midi": 38,
          "name": "D2",
          "ticks": 103008,
          "time": 94.12275525,
          "velocity": 0.6850393700787402
        },
        {
          "duration": 0.1754384999999985,
          "durationTicks": 192,
          "midi": 38,
          "name": "D2",
          "ticks": 103200,
          "time": 94.29819375,
          "velocity": 0.6850393700787402
        },
        {
          "duration": 0.3508770000000112,
          "durationTicks": 384,
          "midi": 38,
          "name": "D2",
          "ticks": 103392,
          "time": 94.47363225,
          "velocity": 0.6850393700787402
        },
        {
          "duration": 0.1754385000000127,
          "durationTicks": 192,
          "midi": 26,
          "name": "D1",
          "ticks": 103584,
          "time": 94.64907074999999,
          "velocity": 0.6850393700787402
        },
        {
          "duration": 0.350876999999997,
          "durationTicks": 384,
          "midi": 38,
          "name": "D2",
          "ticks": 103776,
          "time": 94.82450925,
          "velocity": 0.6850393700787402
        },
        {
          "duration": 0.1754384999999985,
          "durationTicks": 192,
          "midi": 29,
          "name": "F1",
          "ticks": 103776,
          "time": 94.82450925,
          "velocity": 0.6850393700787402
        },
        {
          "duration": 0.1754384999999985,
          "durationTicks": 192,
          "midi": 26,
          "name": "D1",
          "ticks": 103968,
          "time": 94.99994775,
          "velocity": 0.6850393700787402
        },
        {
          "duration": 0.1754384999999985,
          "durationTicks": 192,
          "midi": 29,
          "name": "F1",
          "ticks": 104160,
          "time": 95.17538625,
          "velocity": 0.6850393700787402
        },
        {
          "duration": 0.1754384999999985,
          "durationTicks": 192,
          "midi": 38,
          "name": "D2",
          "ticks": 104160,
          "time": 95.17538625,
          "velocity": 0.6850393700787402
        },
        {
          "duration": 0.350876999999997,
          "durationTicks": 384,
          "midi": 38,
          "name": "D2",
          "ticks": 104352,
          "time": 95.35082475,
          "velocity": 0.6850393700787402
        },
        {
          "duration": 0.1754384999999985,
          "durationTicks": 192,
          "midi": 26,
          "name": "D1",
          "ticks": 104352,
          "time": 95.35082475,
          "velocity": 0.6850393700787402
        },
        {
          "duration": 0.1754384999999985,
          "durationTicks": 192,
          "midi": 39,
          "name": "D#2",
          "ticks": 104736,
          "time": 95.70170175,
          "velocity": 0.6850393700787402
        },
        {
          "duration": 0.350876999999997,
          "durationTicks": 384,
          "midi": 39,
          "name": "D#2",
          "ticks": 104928,
          "time": 95.87714025,
          "velocity": 0.6850393700787402
        },
        {
          "duration": 0.1754384999999985,
          "durationTicks": 192,
          "midi": 39,
          "name": "D#2",
          "ticks": 105312,
          "time": 96.22801725,
          "velocity": 0.6850393700787402
        },
        {
          "duration": 0.3508770000000112,
          "durationTicks": 384,
          "midi": 39,
          "name": "D#2",
          "ticks": 105504,
          "time": 96.40345574999999,
          "velocity": 0.6850393700787402
        },
        {
          "duration": 0.350876999999997,
          "durationTicks": 384,
          "midi": 39,
          "name": "D#2",
          "ticks": 105888,
          "time": 96.75433275,
          "velocity": 0.6850393700787402
        },
        {
          "duration": 0.350876999999997,
          "durationTicks": 384,
          "midi": 39,
          "name": "D#2",
          "ticks": 106272,
          "time": 97.10520975,
          "velocity": 0.6850393700787402
        },
        {
          "duration": 0.1754384999999985,
          "durationTicks": 192,
          "midi": 39,
          "name": "D#2",
          "ticks": 106656,
          "time": 97.45608675,
          "velocity": 0.6850393700787402
        },
        {
          "duration": 0.1754384999999985,
          "durationTicks": 192,
          "midi": 29,
          "name": "F1",
          "ticks": 106848,
          "time": 97.63152525,
          "velocity": 0.6850393700787402
        },
        {
          "duration": 0.1754384999999985,
          "durationTicks": 192,
          "midi": 39,
          "name": "D#2",
          "ticks": 106848,
          "time": 97.63152525,
          "velocity": 0.6850393700787402
        },
        {
          "duration": 0.1754384999999985,
          "durationTicks": 192,
          "midi": 39,
          "name": "D#2",
          "ticks": 107040,
          "time": 97.80696375,
          "velocity": 0.6850393700787402
        },
        {
          "duration": 0.1754385000000127,
          "durationTicks": 192,
          "midi": 29,
          "name": "F1",
          "ticks": 107232,
          "time": 97.98240224999999,
          "velocity": 0.6850393700787402
        },
        {
          "duration": 0.1754385000000127,
          "durationTicks": 192,
          "midi": 39,
          "name": "D#2",
          "ticks": 107232,
          "time": 97.98240224999999,
          "velocity": 0.6850393700787402
        },
        {
          "duration": 0.350876999999997,
          "durationTicks": 384,
          "midi": 39,
          "name": "D#2",
          "ticks": 107424,
          "time": 98.15784075,
          "velocity": 0.6850393700787402
        },
        {
          "duration": 0.08771924999999214,
          "durationTicks": 96,
          "midi": 41,
          "name": "F2",
          "ticks": 107808,
          "time": 98.50871775,
          "velocity": 0.6850393700787402
        },
        {
          "duration": 0.08771925000000635,
          "durationTicks": 96,
          "midi": 41,
          "name": "F2",
          "ticks": 107904,
          "time": 98.596437,
          "velocity": 0.6850393700787402
        },
        {
          "duration": 0.350876999999997,
          "durationTicks": 384,
          "midi": 41,
          "name": "F2",
          "ticks": 108000,
          "time": 98.68415625,
          "velocity": 0.6850393700787402
        },
        {
          "duration": 0.1754384999999985,
          "durationTicks": 192,
          "midi": 41,
          "name": "F2",
          "ticks": 108384,
          "time": 99.03503325,
          "velocity": 0.6850393700787402
        },
        {
          "duration": 0.1754384999999985,
          "durationTicks": 192,
          "midi": 41,
          "name": "F2",
          "ticks": 108576,
          "time": 99.21047175,
          "velocity": 0.6850393700787402
        },
        {
          "duration": 0.350876999999997,
          "durationTicks": 384,
          "midi": 41,
          "name": "F2",
          "ticks": 108768,
          "time": 99.38591025,
          "velocity": 0.6850393700787402
        },
        {
          "duration": 0.1754385000000127,
          "durationTicks": 192,
          "midi": 41,
          "name": "F2",
          "ticks": 109152,
          "time": 99.73678724999999,
          "velocity": 0.6850393700787402
        },
        {
          "duration": 0.08771924999999214,
          "durationTicks": 96,
          "midi": 43,
          "name": "G2",
          "ticks": 109344,
          "time": 99.91222575,
          "velocity": 0.6850393700787402
        },
        {
          "duration": 0.08771925000000635,
          "durationTicks": 96,
          "midi": 43,
          "name": "G2",
          "ticks": 109440,
          "time": 99.999945,
          "velocity": 0.6850393700787402
        },
        {
          "duration": 0.1754384999999985,
          "durationTicks": 192,
          "midi": 43,
          "name": "G2",
          "ticks": 109536,
          "time": 100.08766425,
          "velocity": 0.6850393700787402
        },
        {
          "duration": 0.08771924999999214,
          "durationTicks": 96,
          "midi": 43,
          "name": "G2",
          "ticks": 109728,
          "time": 100.26310275,
          "velocity": 0.6850393700787402
        },
        {
          "duration": 0.08771925000000635,
          "durationTicks": 96,
          "midi": 43,
          "name": "G2",
          "ticks": 109824,
          "time": 100.350822,
          "velocity": 0.6850393700787402
        },
        {
          "duration": 0.1754384999999985,
          "durationTicks": 192,
          "midi": 26,
          "name": "D1",
          "ticks": 109824,
          "time": 100.350822,
          "velocity": 0.6850393700787402
        },
        {
          "duration": 0.1754384999999985,
          "durationTicks": 192,
          "midi": 43,
          "name": "G2",
          "ticks": 109920,
          "time": 100.43854125,
          "velocity": 0.6850393700787402
        },
        {
          "duration": 0.1754385000000127,
          "durationTicks": 192,
          "midi": 31,
          "name": "G1",
          "ticks": 110016,
          "time": 100.52626049999999,
          "velocity": 0.6850393700787402
        },
        {
          "duration": 0.350876999999997,
          "durationTicks": 384,
          "midi": 43,
          "name": "G2",
          "ticks": 110112,
          "time": 100.61397975,
          "velocity": 0.6850393700787402
        },
        {
          "duration": 0.1754384999999985,
          "durationTicks": 192,
          "midi": 26,
          "name": "D1",
          "ticks": 110208,
          "time": 100.701699,
          "velocity": 0.6850393700787402
        },
        {
          "duration": 0.1754384999999985,
          "durationTicks": 192,
          "midi": 31,
          "name": "G1",
          "ticks": 110400,
          "time": 100.8771375,
          "velocity": 0.6850393700787402
        },
        {
          "duration": 0.08771925000000635,
          "durationTicks": 96,
          "midi": 43,
          "name": "G2",
          "ticks": 110496,
          "time": 100.96485675,
          "velocity": 0.6850393700787402
        },
        {
          "duration": 0.1754384999999985,
          "durationTicks": 192,
          "midi": 26,
          "name": "D1",
          "ticks": 110592,
          "time": 101.052576,
          "velocity": 0.6850393700787402
        },
        {
          "duration": 0.26315774999999064,
          "durationTicks": 288,
          "midi": 43,
          "name": "G2",
          "ticks": 110592,
          "time": 101.052576,
          "velocity": 0.6850393700787402
        },
        {
          "duration": 0.1754385000000127,
          "durationTicks": 192,
          "midi": 36,
          "name": "C2",
          "ticks": 110880,
          "time": 101.31573374999999,
          "velocity": 0.6850393700787402
        },
        {
          "duration": 0.350876999999997,
          "durationTicks": 384,
          "midi": 36,
          "name": "C2",
          "ticks": 111072,
          "time": 101.49117225,
          "velocity": 0.6850393700787402
        },
        {
          "duration": 0.1754384999999985,
          "durationTicks": 192,
          "midi": 36,
          "name": "C2",
          "ticks": 111456,
          "time": 101.84204925,
          "velocity": 0.6850393700787402
        },
        {
          "duration": 0.350876999999997,
          "durationTicks": 384,
          "midi": 36,
          "name": "C2",
          "ticks": 111648,
          "time": 102.01748775,
          "velocity": 0.6850393700787402
        },
        {
          "duration": 0.350876999999997,
          "durationTicks": 384,
          "midi": 36,
          "name": "C2",
          "ticks": 112032,
          "time": 102.36836475,
          "velocity": 0.6850393700787402
        },
        {
          "duration": 0.350876999999997,
          "durationTicks": 384,
          "midi": 36,
          "name": "C2",
          "ticks": 112416,
          "time": 102.71924175,
          "velocity": 0.6850393700787402
        },
        {
          "duration": 0.1754385000000127,
          "durationTicks": 192,
          "midi": 26,
          "name": "D1",
          "ticks": 112800,
          "time": 103.07011874999999,
          "velocity": 0.6850393700787402
        },
        {
          "duration": 0.1754385000000127,
          "durationTicks": 192,
          "midi": 36,
          "name": "C2",
          "ticks": 112800,
          "time": 103.07011874999999,
          "velocity": 0.6850393700787402
        },
        {
          "duration": 0.1754384999999985,
          "durationTicks": 192,
          "midi": 29,
          "name": "F1",
          "ticks": 112992,
          "time": 103.24555725,
          "velocity": 0.6850393700787402
        },
        {
          "duration": 0.1754384999999985,
          "durationTicks": 192,
          "midi": 36,
          "name": "C2",
          "ticks": 112992,
          "time": 103.24555725,
          "velocity": 0.6850393700787402
        },
        {
          "duration": 0.1754384999999985,
          "durationTicks": 192,
          "midi": 36,
          "name": "C2",
          "ticks": 113184,
          "time": 103.42099575,
          "velocity": 0.6850393700787402
        },
        {
          "duration": 0.1754384999999985,
          "durationTicks": 192,
          "midi": 26,
          "name": "D1",
          "ticks": 113184,
          "time": 103.42099575,
          "velocity": 0.6850393700787402
        },
        {
          "duration": 0.1754384999999985,
          "durationTicks": 192,
          "midi": 29,
          "name": "F1",
          "ticks": 113376,
          "time": 103.59643425,
          "velocity": 0.6850393700787402
        },
        {
          "duration": 0.1754384999999985,
          "durationTicks": 192,
          "midi": 36,
          "name": "C2",
          "ticks": 113376,
          "time": 103.59643425,
          "velocity": 0.6850393700787402
        },
        {
          "duration": 0.1754384999999985,
          "durationTicks": 192,
          "midi": 26,
          "name": "D1",
          "ticks": 113568,
          "time": 103.77187275,
          "velocity": 0.6850393700787402
        },
        {
          "duration": 0.350876999999997,
          "durationTicks": 384,
          "midi": 36,
          "name": "C2",
          "ticks": 113568,
          "time": 103.77187275,
          "velocity": 0.6850393700787402
        },
        {
          "duration": 0.1754384999999985,
          "durationTicks": 192,
          "midi": 38,
          "name": "D2",
          "ticks": 113952,
          "time": 104.12274975,
          "velocity": 0.6850393700787402
        },
        {
          "duration": 0.350876999999997,
          "durationTicks": 384,
          "midi": 38,
          "name": "D2",
          "ticks": 114144,
          "time": 104.29818825,
          "velocity": 0.6850393700787402
        },
        {
          "duration": 0.1754385000000127,
          "durationTicks": 192,
          "midi": 38,
          "name": "D2",
          "ticks": 114528,
          "time": 104.64906524999999,
          "velocity": 0.6850393700787402
        },
        {
          "duration": 0.350876999999997,
          "durationTicks": 384,
          "midi": 38,
          "name": "D2",
          "ticks": 114720,
          "time": 104.82450375,
          "velocity": 0.6850393700787402
        },
        {
          "duration": 0.1754384999999985,
          "durationTicks": 192,
          "midi": 38,
          "name": "D2",
          "ticks": 115104,
          "time": 105.17538075,
          "velocity": 0.6850393700787402
        },
        {
          "duration": 0.1754384999999985,
          "durationTicks": 192,
          "midi": 38,
          "name": "D2",
          "ticks": 115296,
          "time": 105.35081925,
          "velocity": 0.6850393700787402
        },
        {
          "duration": 0.1754384999999985,
          "durationTicks": 192,
          "midi": 38,
          "name": "D2",
          "ticks": 115488,
          "time": 105.52625775,
          "velocity": 0.6850393700787402
        },
        {
          "duration": 0.350876999999997,
          "durationTicks": 384,
          "midi": 38,
          "name": "D2",
          "ticks": 115680,
          "time": 105.70169625,
          "velocity": 0.6850393700787402
        },
        {
          "duration": 0.1754384999999985,
          "durationTicks": 192,
          "midi": 26,
          "name": "D1",
          "ticks": 115872,
          "time": 105.87713475,
          "velocity": 0.6850393700787402
        },
        {
          "duration": 0.1754384999999985,
          "durationTicks": 192,
          "midi": 29,
          "name": "F1",
          "ticks": 116064,
          "time": 106.05257325,
          "velocity": 0.6850393700787402
        },
        {
          "duration": 0.350876999999997,
          "durationTicks": 384,
          "midi": 38,
          "name": "D2",
          "ticks": 116064,
          "time": 106.05257325,
          "velocity": 0.6850393700787402
        },
        {
          "duration": 0.1754384999999985,
          "durationTicks": 192,
          "midi": 26,
          "name": "D1",
          "ticks": 116256,
          "time": 106.22801175,
          "velocity": 0.6850393700787402
        },
        {
          "duration": 0.1754385000000127,
          "durationTicks": 192,
          "midi": 38,
          "name": "D2",
          "ticks": 116448,
          "time": 106.40345024999999,
          "velocity": 0.6850393700787402
        },
        {
          "duration": 0.1754385000000127,
          "durationTicks": 192,
          "midi": 29,
          "name": "F1",
          "ticks": 116448,
          "time": 106.40345024999999,
          "velocity": 0.6850393700787402
        },
        {
          "duration": 0.350876999999997,
          "durationTicks": 384,
          "midi": 38,
          "name": "D2",
          "ticks": 116640,
          "time": 106.57888875,
          "velocity": 0.6850393700787402
        },
        {
          "duration": 0.1754384999999985,
          "durationTicks": 192,
          "midi": 26,
          "name": "D1",
          "ticks": 116640,
          "time": 106.57888875,
          "velocity": 0.6850393700787402
        },
        {
          "duration": 0.1754384999999985,
          "durationTicks": 192,
          "midi": 39,
          "name": "D#2",
          "ticks": 117024,
          "time": 106.92976575,
          "velocity": 0.6850393700787402
        },
        {
          "duration": 0.350876999999997,
          "durationTicks": 384,
          "midi": 39,
          "name": "D#2",
          "ticks": 117216,
          "time": 107.10520425,
          "velocity": 0.6850393700787402
        },
        {
          "duration": 0.1754384999999985,
          "durationTicks": 192,
          "midi": 39,
          "name": "D#2",
          "ticks": 117600,
          "time": 107.45608125,
          "velocity": 0.6850393700787402
        },
        {
          "duration": 0.350876999999997,
          "durationTicks": 384,
          "midi": 39,
          "name": "D#2",
          "ticks": 117792,
          "time": 107.63151975,
          "velocity": 0.6850393700787402
        },
        {
          "duration": 0.3508770000000112,
          "durationTicks": 384,
          "midi": 39,
          "name": "D#2",
          "ticks": 118176,
          "time": 107.98239674999999,
          "velocity": 0.6850393700787402
        },
        {
          "duration": 0.350876999999997,
          "durationTicks": 384,
          "midi": 39,
          "name": "D#2",
          "ticks": 118560,
          "time": 108.33327375,
          "velocity": 0.6850393700787402
        },
        {
          "duration": 0.1754384999999985,
          "durationTicks": 192,
          "midi": 39,
          "name": "D#2",
          "ticks": 118944,
          "time": 108.68415075,
          "velocity": 0.6850393700787402
        },
        {
          "duration": 0.1754384999999985,
          "durationTicks": 192,
          "midi": 29,
          "name": "F1",
          "ticks": 119136,
          "time": 108.85958925,
          "velocity": 0.6850393700787402
        },
        {
          "duration": 0.1754384999999985,
          "durationTicks": 192,
          "midi": 39,
          "name": "D#2",
          "ticks": 119136,
          "time": 108.85958925,
          "velocity": 0.6850393700787402
        },
        {
          "duration": 0.1754384999999985,
          "durationTicks": 192,
          "midi": 39,
          "name": "D#2",
          "ticks": 119328,
          "time": 109.03502775,
          "velocity": 0.6850393700787402
        },
        {
          "duration": 0.1754384999999985,
          "durationTicks": 192,
          "midi": 29,
          "name": "F1",
          "ticks": 119520,
          "time": 109.21046625,
          "velocity": 0.6850393700787402
        },
        {
          "duration": 0.1754384999999985,
          "durationTicks": 192,
          "midi": 39,
          "name": "D#2",
          "ticks": 119520,
          "time": 109.21046625,
          "velocity": 0.6850393700787402
        },
        {
          "duration": 0.350876999999997,
          "durationTicks": 384,
          "midi": 39,
          "name": "D#2",
          "ticks": 119712,
          "time": 109.38590475,
          "velocity": 0.6850393700787402
        },
        {
          "duration": 0.08771925000000635,
          "durationTicks": 96,
          "midi": 41,
          "name": "F2",
          "ticks": 120096,
          "time": 109.73678174999999,
          "velocity": 0.6850393700787402
        },
        {
          "duration": 0.08771925000000635,
          "durationTicks": 96,
          "midi": 41,
          "name": "F2",
          "ticks": 120192,
          "time": 109.824501,
          "velocity": 0.6850393700787402
        },
        {
          "duration": 0.350876999999997,
          "durationTicks": 384,
          "midi": 41,
          "name": "F2",
          "ticks": 120288,
          "time": 109.91222025,
          "velocity": 0.6850393700787402
        },
        {
          "duration": 0.1754384999999985,
          "durationTicks": 192,
          "midi": 41,
          "name": "F2",
          "ticks": 120672,
          "time": 110.26309725,
          "velocity": 0.6850393700787402
        },
        {
          "duration": 0.1754384999999985,
          "durationTicks": 192,
          "midi": 41,
          "name": "F2",
          "ticks": 120864,
          "time": 110.43853575,
          "velocity": 0.6850393700787402
        },
        {
          "duration": 0.350876999999997,
          "durationTicks": 384,
          "midi": 41,
          "name": "F2",
          "ticks": 121056,
          "time": 110.61397425,
          "velocity": 0.6850393700787402
        },
        {
          "duration": 0.1754384999999985,
          "durationTicks": 192,
          "midi": 41,
          "name": "F2",
          "ticks": 121440,
          "time": 110.96485125,
          "velocity": 0.6850393700787402
        },
        {
          "duration": 0.08771925000000635,
          "durationTicks": 96,
          "midi": 43,
          "name": "G2",
          "ticks": 121632,
          "time": 111.14028975,
          "velocity": 0.6850393700787402
        },
        {
          "duration": 0.08771924999999214,
          "durationTicks": 96,
          "midi": 43,
          "name": "G2",
          "ticks": 121728,
          "time": 111.228009,
          "velocity": 0.6850393700787402
        },
        {
          "duration": 0.1754385000000127,
          "durationTicks": 192,
          "midi": 43,
          "name": "G2",
          "ticks": 121824,
          "time": 111.31572824999999,
          "velocity": 0.6850393700787402
        },
        {
          "duration": 0.08771924999999214,
          "durationTicks": 96,
          "midi": 43,
          "name": "G2",
          "ticks": 122016,
          "time": 111.49116675,
          "velocity": 0.6850393700787402
        },
        {
          "duration": 0.08771925000000635,
          "durationTicks": 96,
          "midi": 43,
          "name": "G2",
          "ticks": 122112,
          "time": 111.578886,
          "velocity": 0.6850393700787402
        },
        {
          "duration": 0.1754384999999985,
          "durationTicks": 192,
          "midi": 26,
          "name": "D1",
          "ticks": 122112,
          "time": 111.578886,
          "velocity": 0.6850393700787402
        },
        {
          "duration": 0.1754384999999985,
          "durationTicks": 192,
          "midi": 43,
          "name": "G2",
          "ticks": 122208,
          "time": 111.66660525,
          "velocity": 0.6850393700787402
        },
        {
          "duration": 0.1754384999999985,
          "durationTicks": 192,
          "midi": 31,
          "name": "G1",
          "ticks": 122304,
          "time": 111.7543245,
          "velocity": 0.6850393700787402
        },
        {
          "duration": 0.350876999999997,
          "durationTicks": 384,
          "midi": 43,
          "name": "G2",
          "ticks": 122400,
          "time": 111.84204375,
          "velocity": 0.6850393700787402
        },
        {
          "duration": 0.1754384999999985,
          "durationTicks": 192,
          "midi": 26,
          "name": "D1",
          "ticks": 122496,
          "time": 111.929763,
          "velocity": 0.6850393700787402
        },
        {
          "duration": 0.1754385000000127,
          "durationTicks": 192,
          "midi": 31,
          "name": "G1",
          "ticks": 122688,
          "time": 112.10520149999999,
          "velocity": 0.6850393700787402
        },
        {
          "duration": 0.08771925000000635,
          "durationTicks": 96,
          "midi": 43,
          "name": "G2",
          "ticks": 122784,
          "time": 112.19292075,
          "velocity": 0.6850393700787402
        },
        {
          "duration": 0.1754384999999985,
          "durationTicks": 192,
          "midi": 26,
          "name": "D1",
          "ticks": 122880,
          "time": 112.28064,
          "velocity": 0.6850393700787402
        },
        {
          "duration": 0.26315774999999064,
          "durationTicks": 288,
          "midi": 43,
          "name": "G2",
          "ticks": 122880,
          "time": 112.28064,
          "velocity": 0.6850393700787402
        },
        {
          "duration": 0.26315775000000485,
          "durationTicks": 288,
          "midi": 77,
          "name": "F5",
          "ticks": 123168,
          "time": 112.54379775,
          "velocity": 0.6850393700787402
        },
        {
          "duration": 0.1754384999999985,
          "durationTicks": 192,
          "midi": 36,
          "name": "C2",
          "ticks": 123168,
          "time": 112.54379775,
          "velocity": 0.6850393700787402
        },
        {
          "duration": 0.350876999999997,
          "durationTicks": 384,
          "midi": 36,
          "name": "C2",
          "ticks": 123360,
          "time": 112.71923625,
          "velocity": 0.6850393700787402
        },
        {
          "duration": 0.26315775000000485,
          "durationTicks": 288,
          "midi": 70,
          "name": "A#4",
          "ticks": 123552,
          "time": 112.89467475,
          "velocity": 0.6850393700787402
        },
        {
          "duration": 0.1754385000000127,
          "durationTicks": 192,
          "midi": 36,
          "name": "C2",
          "ticks": 123744,
          "time": 113.07011324999999,
          "velocity": 0.6850393700787402
        },
        {
          "duration": 0.26315774999999064,
          "durationTicks": 288,
          "midi": 72,
          "name": "C5",
          "ticks": 123936,
          "time": 113.24555175,
          "velocity": 0.6850393700787402
        },
        {
          "duration": 0.350876999999997,
          "durationTicks": 384,
          "midi": 36,
          "name": "C2",
          "ticks": 123936,
          "time": 113.24555175,
          "velocity": 0.6850393700787402
        },
        {
          "duration": 0.350876999999997,
          "durationTicks": 384,
          "midi": 36,
          "name": "C2",
          "ticks": 124320,
          "time": 113.59642875,
          "velocity": 0.6850393700787402
        },
        {
          "duration": 0.26315774999999064,
          "durationTicks": 288,
          "midi": 70,
          "name": "A#4",
          "ticks": 124320,
          "time": 113.59642875,
          "velocity": 0.6850393700787402
        },
        {
          "duration": 0.350876999999997,
          "durationTicks": 384,
          "midi": 36,
          "name": "C2",
          "ticks": 124704,
          "time": 113.94730575,
          "velocity": 0.6850393700787402
        },
        {
          "duration": 0.08771925000000635,
          "durationTicks": 96,
          "midi": 65,
          "name": "F4",
          "ticks": 124704,
          "time": 113.94730575,
          "velocity": 0.6850393700787402
        },
        {
          "duration": 0.1754384999999985,
          "durationTicks": 192,
          "midi": 26,
          "name": "D1",
          "ticks": 125088,
          "time": 114.29818275,
          "velocity": 0.6850393700787402
        },
        {
          "duration": 0.1754384999999985,
          "durationTicks": 192,
          "midi": 36,
          "name": "C2",
          "ticks": 125088,
          "time": 114.29818275,
          "velocity": 0.6850393700787402
        },
        {
          "duration": 0.1754384999999985,
          "durationTicks": 192,
          "midi": 36,
          "name": "C2",
          "ticks": 125280,
          "time": 114.47362125,
          "velocity": 0.6850393700787402
        },
        {
          "duration": 0.1754384999999985,
          "durationTicks": 192,
          "midi": 29,
          "name": "F1",
          "ticks": 125280,
          "time": 114.47362125,
          "velocity": 0.6850393700787402
        },
        {
          "duration": 0.26315775000000485,
          "durationTicks": 288,
          "midi": 72,
          "name": "C5",
          "ticks": 125280,
          "time": 114.47362125,
          "velocity": 0.6850393700787402
        },
        {
          "duration": 0.1754385000000127,
          "durationTicks": 192,
          "midi": 26,
          "name": "D1",
          "ticks": 125472,
          "time": 114.64905974999999,
          "velocity": 0.6850393700787402
        },
        {
          "duration": 0.1754385000000127,
          "durationTicks": 192,
          "midi": 36,
          "name": "C2",
          "ticks": 125472,
          "time": 114.64905974999999,
          "velocity": 0.6850393700787402
        },
        {
          "duration": 0.08771924999999214,
          "durationTicks": 96,
          "midi": 74,
          "name": "D5",
          "ticks": 125664,
          "time": 114.82449825,
          "velocity": 0.6850393700787402
        },
        {
          "duration": 0.1754384999999985,
          "durationTicks": 192,
          "midi": 29,
          "name": "F1",
          "ticks": 125664,
          "time": 114.82449825,
          "velocity": 0.6850393700787402
        },
        {
          "duration": 0.1754384999999985,
          "durationTicks": 192,
          "midi": 36,
          "name": "C2",
          "ticks": 125664,
          "time": 114.82449825,
          "velocity": 0.6850393700787402
        },
        {
          "duration": 0.08771925000000635,
          "durationTicks": 96,
          "midi": 72,
          "name": "C5",
          "ticks": 125760,
          "time": 114.9122175,
          "velocity": 0.6850393700787402
        },
        {
          "duration": 0.1754384999999985,
          "durationTicks": 192,
          "midi": 26,
          "name": "D1",
          "ticks": 125856,
          "time": 114.99993675,
          "velocity": 0.6850393700787402
        },
        {
          "duration": 0.26315774999999064,
          "durationTicks": 288,
          "midi": 70,
          "name": "A#4",
          "ticks": 125856,
          "time": 114.99993675,
          "velocity": 0.6850393700787402
        },
        {
          "duration": 0.350876999999997,
          "durationTicks": 384,
          "midi": 36,
          "name": "C2",
          "ticks": 125856,
          "time": 114.99993675,
          "velocity": 0.6850393700787402
        },
        {
          "duration": 0.1754384999999985,
          "durationTicks": 192,
          "midi": 38,
          "name": "D2",
          "ticks": 126240,
          "time": 115.35081375,
          "velocity": 0.6850393700787402
        },
        {
          "duration": 0.26315775000000485,
          "durationTicks": 288,
          "midi": 65,
          "name": "F4",
          "ticks": 126240,
          "time": 115.35081375,
          "velocity": 0.6850393700787402
        },
        {
          "duration": 0.350876999999997,
          "durationTicks": 384,
          "midi": 38,
          "name": "D2",
          "ticks": 126432,
          "time": 115.52625225,
          "velocity": 0.6850393700787402
        },
        {
          "duration": 0.26315775000000485,
          "durationTicks": 288,
          "midi": 70,
          "name": "A#4",
          "ticks": 126624,
          "time": 115.70169075,
          "velocity": 0.6850393700787402
        },
        {
          "duration": 0.1754384999999985,
          "durationTicks": 192,
          "midi": 38,
          "name": "D2",
          "ticks": 126816,
          "time": 115.87712925,
          "velocity": 0.6850393700787402
        },
        {
          "duration": 0.1754384999999985,
          "durationTicks": 192,
          "midi": 72,
          "name": "C5",
          "ticks": 127008,
          "time": 116.05256775,
          "velocity": 0.6850393700787402
        },
        {
          "duration": 0.350876999999997,
          "durationTicks": 384,
          "midi": 38,
          "name": "D2",
          "ticks": 127008,
          "time": 116.05256775,
          "velocity": 0.6850393700787402
        },
        {
          "duration": 0.26315775000000485,
          "durationTicks": 288,
          "midi": 75,
          "name": "D#5",
          "ticks": 127200,
          "time": 116.22800624999999,
          "velocity": 0.6850393700787402
        },
        {
          "duration": 0.1754385000000127,
          "durationTicks": 192,
          "midi": 38,
          "name": "D2",
          "ticks": 127392,
          "time": 116.40344474999999,
          "velocity": 0.6850393700787402
        },
        {
          "duration": 0.1754384999999985,
          "durationTicks": 192,
          "midi": 38,
          "name": "D2",
          "ticks": 127584,
          "time": 116.57888325,
          "velocity": 0.6850393700787402
        },
        {
          "duration": 0.350876999999997,
          "durationTicks": 384,
          "midi": 74,
          "name": "D5",
          "ticks": 127584,
          "time": 116.57888325,
          "velocity": 0.6850393700787402
        },
        {
          "duration": 0.1754384999999985,
          "durationTicks": 192,
          "midi": 38,
          "name": "D2",
          "ticks": 127776,
          "time": 116.75432175,
          "velocity": 0.6850393700787402
        },
        {
          "duration": 0.08771924999999214,
          "durationTicks": 96,
          "midi": 75,
          "name": "D#5",
          "ticks": 127968,
          "time": 116.92976025,
          "velocity": 0.6850393700787402
        },
        {
          "duration": 0.350876999999997,
          "durationTicks": 384,
          "midi": 38,
          "name": "D2",
          "ticks": 127968,
          "time": 116.92976025,
          "velocity": 0.6850393700787402
        },
        {
          "duration": 0.08771925000000635,
          "durationTicks": 96,
          "midi": 74,
          "name": "D5",
          "ticks": 128064,
          "time": 117.0174795,
          "velocity": 0.6850393700787402
        },
        {
          "duration": 0.1754384999999985,
          "durationTicks": 192,
          "midi": 26,
          "name": "D1",
          "ticks": 128160,
          "time": 117.10519875,
          "velocity": 0.6850393700787402
        },
        {
          "duration": 0.26315775000000485,
          "durationTicks": 288,
          "midi": 72,
          "name": "C5",
          "ticks": 128160,
          "time": 117.10519875,
          "velocity": 0.6850393700787402
        },
        {
          "duration": 0.1754384999999985,
          "durationTicks": 192,
          "midi": 29,
          "name": "F1",
          "ticks": 128352,
          "time": 117.28063725,
          "velocity": 0.6850393700787402
        },
        {
          "duration": 0.350876999999997,
          "durationTicks": 384,
          "midi": 38,
          "name": "D2",
          "ticks": 128352,
          "time": 117.28063725,
          "velocity": 0.6850393700787402
        },
        {
          "duration": 0.26315775000000485,
          "durationTicks": 288,
          "midi": 70,
          "name": "A#4",
          "ticks": 128544,
          "time": 117.45607575,
          "velocity": 0.6850393700787402
        },
        {
          "duration": 0.1754384999999985,
          "durationTicks": 192,
          "midi": 26,
          "name": "D1",
          "ticks": 128544,
          "time": 117.45607575,
          "velocity": 0.6850393700787402
        },
        {
          "duration": 0.1754384999999985,
          "durationTicks": 192,
          "midi": 38,
          "name": "D2",
          "ticks": 128736,
          "time": 117.63151425,
          "velocity": 0.6850393700787402
        },
        {
          "duration": 0.1754384999999985,
          "durationTicks": 192,
          "midi": 29,
          "name": "F1",
          "ticks": 128736,
          "time": 117.63151425,
          "velocity": 0.6850393700787402
        },
        {
          "duration": 0.3508770000000112,
          "durationTicks": 384,
          "midi": 38,
          "name": "D2",
          "ticks": 128928,
          "time": 117.80695275,
          "velocity": 0.6850393700787402
        },
        {
          "duration": 0.26315775000000485,
          "durationTicks": 288,
          "midi": 65,
          "name": "F4",
          "ticks": 128928,
          "time": 117.80695275,
          "velocity": 0.6850393700787402
        },
        {
          "duration": 0.1754384999999985,
          "durationTicks": 192,
          "midi": 26,
          "name": "D1",
          "ticks": 128928,
          "time": 117.80695275,
          "velocity": 0.6850393700787402
        },
        {
          "duration": 0.1754384999999985,
          "durationTicks": 192,
          "midi": 39,
          "name": "D#2",
          "ticks": 129312,
          "time": 118.15782975,
          "velocity": 0.6850393700787402
        },
        {
          "duration": 0.26315774999999064,
          "durationTicks": 288,
          "midi": 77,
          "name": "F5",
          "ticks": 129312,
          "time": 118.15782975,
          "velocity": 0.6850393700787402
        },
        {
          "duration": 0.350876999999997,
          "durationTicks": 384,
          "midi": 39,
          "name": "D#2",
          "ticks": 129504,
          "time": 118.33326825,
          "velocity": 0.6850393700787402
        },
        {
          "duration": 0.26315774999999064,
          "durationTicks": 288,
          "midi": 70,
          "name": "A#4",
          "ticks": 129696,
          "time": 118.50870675,
          "velocity": 0.6850393700787402
        },
        {
          "duration": 0.1754384999999985,
          "durationTicks": 192,
          "midi": 39,
          "name": "D#2",
          "ticks": 129888,
          "time": 118.68414525,
          "velocity": 0.6850393700787402
        },
        {
          "duration": 0.26315775000000485,
          "durationTicks": 288,
          "midi": 72,
          "name": "C5",
          "ticks": 130080,
          "time": 118.85958375,
          "velocity": 0.6850393700787402
        },
        {
          "duration": 0.350876999999997,
          "durationTicks": 384,
          "midi": 39,
          "name": "D#2",
          "ticks": 130080,
          "time": 118.85958375,
          "velocity": 0.6850393700787402
        },
        {
          "duration": 0.26315775000000485,
          "durationTicks": 288,
          "midi": 70,
          "name": "A#4",
          "ticks": 130464,
          "time": 119.21046075,
          "velocity": 0.6850393700787402
        },
        {
          "duration": 0.350876999999997,
          "durationTicks": 384,
          "midi": 39,
          "name": "D#2",
          "ticks": 130464,
          "time": 119.21046075,
          "velocity": 0.6850393700787402
        },
        {
          "duration": 0.08771925000000635,
          "durationTicks": 96,
          "midi": 65,
          "name": "F4",
          "ticks": 130848,
          "time": 119.56133774999999,
          "velocity": 0.6850393700787402
        },
        {
          "duration": 0.3508770000000112,
          "durationTicks": 384,
          "midi": 39,
          "name": "D#2",
          "ticks": 130848,
          "time": 119.56133774999999,
          "velocity": 0.6850393700787402
        },
        {
          "duration": 0.26315775000000485,
          "durationTicks": 288,
          "midi": 70,
          "name": "A#4",
          "ticks": 131040,
          "time": 119.73677624999999,
          "velocity": 0.6850393700787402
        },
        {
          "duration": 0.1754384999999985,
          "durationTicks": 192,
          "midi": 39,
          "name": "D#2",
          "ticks": 131232,
          "time": 119.91221475,
          "velocity": 0.6850393700787402
        },
        {
          "duration": 0.26315774999999064,
          "durationTicks": 288,
          "midi": 72,
          "name": "C5",
          "ticks": 131424,
          "time": 120.08765325,
          "velocity": 0.6850393700787402
        },
        {
          "duration": 0.1754384999999985,
          "durationTicks": 192,
          "midi": 39,
          "name": "D#2",
          "ticks": 131424,
          "time": 120.08765325,
          "velocity": 0.6850393700787402
        },
        {
          "duration": 0.1754384999999985,
          "durationTicks": 192,
          "midi": 29,
          "name": "F1",
          "ticks": 131424,
          "time": 120.08765325,
          "velocity": 0.6850393700787402
        },
        {
          "duration": 0.1754384999999985,
          "durationTicks": 192,
          "midi": 39,
          "name": "D#2",
          "ticks": 131616,
          "time": 120.26309175,
          "velocity": 0.6850393700787402
        },
        {
          "duration": 0.1754384999999985,
          "durationTicks": 192,
          "midi": 39,
          "name": "D#2",
          "ticks": 131808,
          "time": 120.43853025,
          "velocity": 0.6850393700787402
        },
        {
          "duration": 0.08771924999999214,
          "durationTicks": 96,
          "midi": 74,
          "name": "D5",
          "ticks": 131808,
          "time": 120.43853025,
          "velocity": 0.6850393700787402
        },
        {
          "duration": 0.1754384999999985,
          "durationTicks": 192,
          "midi": 29,
          "name": "F1",
          "ticks": 131808,
          "time": 120.43853025,
          "velocity": 0.6850393700787402
        },
        {
          "duration": 0.08771925000000635,
          "durationTicks": 96,
          "midi": 72,
          "name": "C5",
          "ticks": 131904,
          "time": 120.52624949999999,
          "velocity": 0.6850393700787402
        },
        {
          "duration": 0.26315775000000485,
          "durationTicks": 288,
          "midi": 70,
          "name": "A#4",
          "ticks": 132000,
          "time": 120.61396875,
          "velocity": 0.6850393700787402
        },
        {
          "duration": 0.350876999999997,
          "durationTicks": 384,
          "midi": 39,
          "name": "D#2",
          "ticks": 132000,
          "time": 120.61396875,
          "velocity": 0.6850393700787402
        },
        {
          "duration": 0.26315775000000485,
          "durationTicks": 288,
          "midi": 77,
          "name": "F5",
          "ticks": 132384,
          "time": 120.96484575,
          "velocity": 0.6850393700787402
        },
        {
          "duration": 0.08771925000000635,
          "durationTicks": 96,
          "midi": 41,
          "name": "F2",
          "ticks": 132384,
          "time": 120.96484575,
          "velocity": 0.6850393700787402
        },
        {
          "duration": 0.08771924999999214,
          "durationTicks": 96,
          "midi": 41,
          "name": "F2",
          "ticks": 132480,
          "time": 121.052565,
          "velocity": 0.6850393700787402
        },
        {
          "duration": 0.3508770000000112,
          "durationTicks": 384,
          "midi": 41,
          "name": "F2",
          "ticks": 132576,
          "time": 121.14028425,
          "velocity": 0.6850393700787402
        },
        {
          "duration": 0.26315775000000485,
          "durationTicks": 288,
          "midi": 70,
          "name": "A#4",
          "ticks": 132768,
          "time": 121.31572274999999,
          "velocity": 0.6850393700787402
        },
        {
          "duration": 0.1754384999999985,
          "durationTicks": 192,
          "midi": 41,
          "name": "F2",
          "ticks": 132960,
          "time": 121.49116125,
          "velocity": 0.6850393700787402
        },
        {
          "duration": 0.1754384999999985,
          "durationTicks": 192,
          "midi": 41,
          "name": "F2",
          "ticks": 133152,
          "time": 121.66659975,
          "velocity": 0.6850393700787402
        },
        {
          "duration": 0.1754384999999985,
          "durationTicks": 192,
          "midi": 82,
          "name": "A#5",
          "ticks": 133152,
          "time": 121.66659975,
          "velocity": 0.6850393700787402
        },
        {
          "duration": 0.350876999999997,
          "durationTicks": 384,
          "midi": 41,
          "name": "F2",
          "ticks": 133344,
          "time": 121.84203825,
          "velocity": 0.6850393700787402
        },
        {
          "duration": 0.26315774999999064,
          "durationTicks": 288,
          "midi": 81,
          "name": "A5",
          "ticks": 133344,
          "time": 121.84203825,
          "velocity": 0.6850393700787402
        },
        {
          "duration": 0.1754384999999985,
          "durationTicks": 192,
          "midi": 41,
          "name": "F2",
          "ticks": 133728,
          "time": 122.19291525,
          "velocity": 0.6850393700787402
        },
        {
          "duration": 0.350876999999997,
          "durationTicks": 384,
          "midi": 77,
          "name": "F5",
          "ticks": 133728,
          "time": 122.19291525,
          "velocity": 0.6850393700787402
        },
        {
          "duration": 0.08771925000000635,
          "durationTicks": 96,
          "midi": 43,
          "name": "G2",
          "ticks": 133920,
          "time": 122.36835375,
          "velocity": 0.6850393700787402
        },
        {
          "duration": 0.08771924999999214,
          "durationTicks": 96,
          "midi": 43,
          "name": "G2",
          "ticks": 134016,
          "time": 122.456073,
          "velocity": 0.6850393700787402
        },
        {
          "duration": 0.1754384999999985,
          "durationTicks": 192,
          "midi": 74,
          "name": "D5",
          "ticks": 134112,
          "time": 122.54379225,
          "velocity": 0.6850393700787402
        },
        {
          "duration": 0.1754384999999985,
          "durationTicks": 192,
          "midi": 43,
          "name": "G2",
          "ticks": 134112,
          "time": 122.54379225,
          "velocity": 0.6850393700787402
        },
        {
          "duration": 0.08771925000000635,
          "durationTicks": 96,
          "midi": 43,
          "name": "G2",
          "ticks": 134304,
          "time": 122.71923075,
          "velocity": 0.6850393700787402
        },
        {
          "duration": 0.1754384999999985,
          "durationTicks": 192,
          "midi": 72,
          "name": "C5",
          "ticks": 134304,
          "time": 122.71923075,
          "velocity": 0.6850393700787402
        },
        {
          "duration": 0.08771924999999214,
          "durationTicks": 96,
          "midi": 43,
          "name": "G2",
          "ticks": 134400,
          "time": 122.80695,
          "velocity": 0.6850393700787402
        },
        {
          "duration": 0.1754384999999985,
          "durationTicks": 192,
          "midi": 26,
          "name": "D1",
          "ticks": 134400,
          "time": 122.80695,
          "velocity": 0.6850393700787402
        },
        {
          "duration": 0.3508770000000112,
          "durationTicks": 384,
          "midi": 70,
          "name": "A#4",
          "ticks": 134496,
          "time": 122.89466924999999,
          "velocity": 0.6850393700787402
        },
        {
          "duration": 0.1754384999999985,
          "durationTicks": 192,
          "midi": 43,
          "name": "G2",
          "ticks": 134496,
          "time": 122.89466924999999,
          "velocity": 0.6850393700787402
        },
        {
          "duration": 0.1754384999999985,
          "durationTicks": 192,
          "midi": 31,
          "name": "G1",
          "ticks": 134592,
          "time": 122.9823885,
          "velocity": 0.6850393700787402
        },
        {
          "duration": 0.3508770000000112,
          "durationTicks": 384,
          "midi": 43,
          "name": "G2",
          "ticks": 134688,
          "time": 123.07010774999999,
          "velocity": 0.6850393700787402
        },
        {
          "duration": 0.1754384999999985,
          "durationTicks": 192,
          "midi": 26,
          "name": "D1",
          "ticks": 134784,
          "time": 123.157827,
          "velocity": 0.6850393700787402
        },
        {
          "duration": 0.1754384999999985,
          "durationTicks": 192,
          "midi": 72,
          "name": "C5",
          "ticks": 134880,
          "time": 123.24554625,
          "velocity": 0.6850393700787402
        },
        {
          "duration": 0.1754384999999985,
          "durationTicks": 192,
          "midi": 31,
          "name": "G1",
          "ticks": 134976,
          "time": 123.3332655,
          "velocity": 0.6850393700787402
        },
        {
          "duration": 0.1754384999999985,
          "durationTicks": 192,
          "midi": 70,
          "name": "A#4",
          "ticks": 135072,
          "time": 123.42098475,
          "velocity": 0.6850393700787402
        },
        {
          "duration": 0.08771924999999214,
          "durationTicks": 96,
          "midi": 43,
          "name": "G2",
          "ticks": 135072,
          "time": 123.42098475,
          "velocity": 0.6850393700787402
        },
        {
          "duration": 0.1754384999999985,
          "durationTicks": 192,
          "midi": 26,
          "name": "D1",
          "ticks": 135168,
          "time": 123.508704,
          "velocity": 0.6850393700787402
        },
        {
          "duration": 0.26315775000000485,
          "durationTicks": 288,
          "midi": 43,
          "name": "G2",
          "ticks": 135168,
          "time": 123.508704,
          "velocity": 0.6850393700787402
        },
        {
          "duration": 0.1754384999999985,
          "durationTicks": 192,
          "midi": 65,
          "name": "F4",
          "ticks": 135264,
          "time": 123.59642325,
          "velocity": 0.6850393700787402
        },
        {
          "duration": 0.26315775000000485,
          "durationTicks": 288,
          "midi": 77,
          "name": "F5",
          "ticks": 135456,
          "time": 123.77186175,
          "velocity": 0.6850393700787402
        },
        {
          "duration": 0.1754384999999985,
          "durationTicks": 192,
          "midi": 36,
          "name": "C2",
          "ticks": 135456,
          "time": 123.77186175,
          "velocity": 0.6850393700787402
        },
        {
          "duration": 0.350876999999997,
          "durationTicks": 384,
          "midi": 36,
          "name": "C2",
          "ticks": 135648,
          "time": 123.94730025,
          "velocity": 0.6850393700787402
        },
        {
          "duration": 0.26315775000000485,
          "durationTicks": 288,
          "midi": 70,
          "name": "A#4",
          "ticks": 135840,
          "time": 124.12273875,
          "velocity": 0.6850393700787402
        },
        {
          "duration": 0.1754384999999985,
          "durationTicks": 192,
          "midi": 36,
          "name": "C2",
          "ticks": 136032,
          "time": 124.29817725,
          "velocity": 0.6850393700787402
        },
        {
          "duration": 0.26315775000000485,
          "durationTicks": 288,
          "midi": 72,
          "name": "C5",
          "ticks": 136224,
          "time": 124.47361575,
          "velocity": 0.6850393700787402
        },
        {
          "duration": 0.3508770000000112,
          "durationTicks": 384,
          "midi": 36,
          "name": "C2",
          "ticks": 136224,
          "time": 124.47361575,
          "velocity": 0.6850393700787402
        },
        {
          "duration": 0.350876999999997,
          "durationTicks": 384,
          "midi": 36,
          "name": "C2",
          "ticks": 136608,
          "time": 124.82449275,
          "velocity": 0.6850393700787402
        },
        {
          "duration": 0.26315774999999064,
          "durationTicks": 288,
          "midi": 70,
          "name": "A#4",
          "ticks": 136608,
          "time": 124.82449275,
          "velocity": 0.6850393700787402
        },
        {
          "duration": 0.350876999999997,
          "durationTicks": 384,
          "midi": 36,
          "name": "C2",
          "ticks": 136992,
          "time": 125.17536975,
          "velocity": 0.6850393700787402
        },
        {
          "duration": 0.08771924999999214,
          "durationTicks": 96,
          "midi": 65,
          "name": "F4",
          "ticks": 136992,
          "time": 125.17536975,
          "velocity": 0.6850393700787402
        },
        {
          "duration": 0.26315775000000485,
          "durationTicks": 288,
          "midi": 70,
          "name": "A#4",
          "ticks": 137184,
          "time": 125.35080825,
          "velocity": 0.6850393700787402
        },
        {
          "duration": 0.1754384999999985,
          "durationTicks": 192,
          "midi": 36,
          "name": "C2",
          "ticks": 137376,
          "time": 125.52624675,
          "velocity": 0.6850393700787402
        },
        {
          "duration": 0.1754384999999985,
          "durationTicks": 192,
          "midi": 26,
          "name": "D1",
          "ticks": 137376,
          "time": 125.52624675,
          "velocity": 0.6850393700787402
        },
        {
          "duration": 0.26315775000000485,
          "durationTicks": 288,
          "midi": 72,
          "name": "C5",
          "ticks": 137568,
          "time": 125.70168525,
          "velocity": 0.6850393700787402
        },
        {
          "duration": 0.1754384999999985,
          "durationTicks": 192,
          "midi": 29,
          "name": "F1",
          "ticks": 137568,
          "time": 125.70168525,
          "velocity": 0.6850393700787402
        },
        {
          "duration": 0.1754384999999985,
          "durationTicks": 192,
          "midi": 36,
          "name": "C2",
          "ticks": 137568,
          "time": 125.70168525,
          "velocity": 0.6850393700787402
        },
        {
          "duration": 0.1754384999999985,
          "durationTicks": 192,
          "midi": 26,
          "name": "D1",
          "ticks": 137760,
          "time": 125.87712375,
          "velocity": 0.6850393700787402
        },
        {
          "duration": 0.1754384999999985,
          "durationTicks": 192,
          "midi": 36,
          "name": "C2",
          "ticks": 137760,
          "time": 125.87712375,
          "velocity": 0.6850393700787402
        },
        {
          "duration": 0.1754384999999985,
          "durationTicks": 192,
          "midi": 29,
          "name": "F1",
          "ticks": 137952,
          "time": 126.05256225,
          "velocity": 0.6850393700787402
        },
        {
          "duration": 0.08771925000000635,
          "durationTicks": 96,
          "midi": 74,
          "name": "D5",
          "ticks": 137952,
          "time": 126.05256225,
          "velocity": 0.6850393700787402
        },
        {
          "duration": 0.1754384999999985,
          "durationTicks": 192,
          "midi": 36,
          "name": "C2",
          "ticks": 137952,
          "time": 126.05256225,
          "velocity": 0.6850393700787402
        },
        {
          "duration": 0.08771924999999214,
          "durationTicks": 96,
          "midi": 72,
          "name": "C5",
          "ticks": 138048,
          "time": 126.1402815,
          "velocity": 0.6850393700787402
        },
        {
          "duration": 0.26315775000000485,
          "durationTicks": 288,
          "midi": 70,
          "name": "A#4",
          "ticks": 138144,
          "time": 126.22800074999999,
          "velocity": 0.6850393700787402
        },
        {
          "duration": 0.1754384999999985,
          "durationTicks": 192,
          "midi": 26,
          "name": "D1",
          "ticks": 138144,
          "time": 126.22800074999999,
          "velocity": 0.6850393700787402
        },
        {
          "duration": 0.3508770000000112,
          "durationTicks": 384,
          "midi": 36,
          "name": "C2",
          "ticks": 138144,
          "time": 126.22800074999999,
          "velocity": 0.6850393700787402
        },
        {
          "duration": 0.26315774999999064,
          "durationTicks": 288,
          "midi": 65,
          "name": "F4",
          "ticks": 138528,
          "time": 126.57887775,
          "velocity": 0.6850393700787402
        },
        {
          "duration": 0.1754384999999985,
          "durationTicks": 192,
          "midi": 38,
          "name": "D2",
          "ticks": 138528,
          "time": 126.57887775,
          "velocity": 0.6850393700787402
        },
        {
          "duration": 0.350876999999997,
          "durationTicks": 384,
          "midi": 38,
          "name": "D2",
          "ticks": 138720,
          "time": 126.75431625,
          "velocity": 0.6850393700787402
        },
        {
          "duration": 0.26315774999999064,
          "durationTicks": 288,
          "midi": 70,
          "name": "A#4",
          "ticks": 138912,
          "time": 126.92975475,
          "velocity": 0.6850393700787402
        },
        {
          "duration": 0.1754384999999985,
          "durationTicks": 192,
          "midi": 38,
          "name": "D2",
          "ticks": 139104,
          "time": 127.10519325,
          "velocity": 0.6850393700787402
        },
        {
          "duration": 0.1754384999999985,
          "durationTicks": 192,
          "midi": 72,
          "name": "C5",
          "ticks": 139296,
          "time": 127.28063175,
          "velocity": 0.6850393700787402
        },
        {
          "duration": 0.350876999999997,
          "durationTicks": 384,
          "midi": 38,
          "name": "D2",
          "ticks": 139296,
          "time": 127.28063175,
          "velocity": 0.6850393700787402
        },
        {
          "duration": 0.26315775000000485,
          "durationTicks": 288,
          "midi": 75,
          "name": "D#5",
          "ticks": 139488,
          "time": 127.45607025,
          "velocity": 0.6850393700787402
        },
        {
          "duration": 0.1754384999999985,
          "durationTicks": 192,
          "midi": 38,
          "name": "D2",
          "ticks": 139680,
          "time": 127.63150875,
          "velocity": 0.6850393700787402
        },
        {
          "duration": 0.3508770000000112,
          "durationTicks": 384,
          "midi": 74,
          "name": "D5",
          "ticks": 139872,
          "time": 127.80694725,
          "velocity": 0.6850393700787402
        },
        {
          "duration": 0.1754384999999985,
          "durationTicks": 192,
          "midi": 38,
          "name": "D2",
          "ticks": 139872,
          "time": 127.80694725,
          "velocity": 0.6850393700787402
        },
        {
          "duration": 0.1754385000000127,
          "durationTicks": 192,
          "midi": 38,
          "name": "D2",
          "ticks": 140064,
          "time": 127.98238574999999,
          "velocity": 0.6850393700787402
        },
        {
          "duration": 0.350876999999997,
          "durationTicks": 384,
          "midi": 38,
          "name": "D2",
          "ticks": 140256,
          "time": 128.15782425,
          "velocity": 0.6850393700787402
        },
        {
          "duration": 0.08771924999999214,
          "durationTicks": 96,
          "midi": 75,
          "name": "D#5",
          "ticks": 140256,
          "time": 128.15782425,
          "velocity": 0.6850393700787402
        },
        {
          "duration": 0.08771924999999214,
          "durationTicks": 96,
          "midi": 74,
          "name": "D5",
          "ticks": 140352,
          "time": 128.2455435,
          "velocity": 0.6850393700787402
        },
        {
          "duration": 0.26315775000000485,
          "durationTicks": 288,
          "midi": 72,
          "name": "C5",
          "ticks": 140448,
          "time": 128.33326275,
          "velocity": 0.6850393700787402
        },
        {
          "duration": 0.1754385000000127,
          "durationTicks": 192,
          "midi": 26,
          "name": "D1",
          "ticks": 140448,
          "time": 128.33326275,
          "velocity": 0.6850393700787402
        },
        {
          "duration": 0.1754384999999843,
          "durationTicks": 192,
          "midi": 29,
          "name": "F1",
          "ticks": 140640,
          "time": 128.50870125,
          "velocity": 0.6850393700787402
        },
        {
          "duration": 0.350876999999997,
          "durationTicks": 384,
          "midi": 38,
          "name": "D2",
          "ticks": 140640,
          "time": 128.50870125,
          "velocity": 0.6850393700787402
        },
        {
          "duration": 0.1754385000000127,
          "durationTicks": 192,
          "midi": 26,
          "name": "D1",
          "ticks": 140832,
          "time": 128.68413974999999,
          "velocity": 0.6850393700787402
        },
        {
          "duration": 0.26315775000000485,
          "durationTicks": 288,
          "midi": 70,
          "name": "A#4",
          "ticks": 140832,
          "time": 128.68413974999999,
          "velocity": 0.6850393700787402
        },
        {
          "duration": 0.1754385000000127,
          "durationTicks": 192,
          "midi": 29,
          "name": "F1",
          "ticks": 141024,
          "time": 128.85957825,
          "velocity": 0.6850393700787402
        },
        {
          "duration": 0.1754385000000127,
          "durationTicks": 192,
          "midi": 38,
          "name": "D2",
          "ticks": 141024,
          "time": 128.85957825,
          "velocity": 0.6850393700787402
        },
        {
          "duration": 0.350876999999997,
          "durationTicks": 384,
          "midi": 38,
          "name": "D2",
          "ticks": 141216,
          "time": 129.03501675,
          "velocity": 0.6850393700787402
        },
        {
          "duration": 0.1754384999999843,
          "durationTicks": 192,
          "midi": 26,
          "name": "D1",
          "ticks": 141216,
          "time": 129.03501675,
          "velocity": 0.6850393700787402
        },
        {
          "duration": 0.26315774999997643,
          "durationTicks": 288,
          "midi": 65,
          "name": "F4",
          "ticks": 141216,
          "time": 129.03501675,
          "velocity": 0.6850393700787402
        },
        {
          "duration": 0.1754384999999843,
          "durationTicks": 192,
          "midi": 39,
          "name": "D#2",
          "ticks": 141600,
          "time": 129.38589375,
          "velocity": 0.6850393700787402
        },
        {
          "duration": 0.26315774999997643,
          "durationTicks": 288,
          "midi": 77,
          "name": "F5",
          "ticks": 141600,
          "time": 129.38589375,
          "velocity": 0.6850393700787402
        },
        {
          "duration": 0.350876999999997,
          "durationTicks": 384,
          "midi": 39,
          "name": "D#2",
          "ticks": 141792,
          "time": 129.56133225,
          "velocity": 0.6850393700787402
        },
        {
          "duration": 0.26315775000000485,
          "durationTicks": 288,
          "midi": 70,
          "name": "A#4",
          "ticks": 141984,
          "time": 129.73677075,
          "velocity": 0.6850393700787402
        },
        {
          "duration": 0.1754385000000127,
          "durationTicks": 192,
          "midi": 39,
          "name": "D#2",
          "ticks": 142176,
          "time": 129.91220925,
          "velocity": 0.6850393700787402
        },
        {
          "duration": 0.26315775000000485,
          "durationTicks": 288,
          "midi": 72,
          "name": "C5",
          "ticks": 142368,
          "time": 130.08764775,
          "velocity": 0.6850393700787402
        },
        {
          "duration": 0.350876999999997,
          "durationTicks": 384,
          "midi": 39,
          "name": "D#2",
          "ticks": 142368,
          "time": 130.08764775,
          "velocity": 0.6850393700787402
        },
        {
          "duration": 0.26315775000000485,
          "durationTicks": 288,
          "midi": 70,
          "name": "A#4",
          "ticks": 142752,
          "time": 130.43852475,
          "velocity": 0.6850393700787402
        },
        {
          "duration": 0.350876999999997,
          "durationTicks": 384,
          "midi": 39,
          "name": "D#2",
          "ticks": 142752,
          "time": 130.43852475,
          "velocity": 0.6850393700787402
        },
        {
          "duration": 0.350876999999997,
          "durationTicks": 384,
          "midi": 39,
          "name": "D#2",
          "ticks": 143136,
          "time": 130.78940175,
          "velocity": 0.6850393700787402
        },
        {
          "duration": 0.08771924999999214,
          "durationTicks": 96,
          "midi": 65,
          "name": "F4",
          "ticks": 143136,
          "time": 130.78940175,
          "velocity": 0.6850393700787402
        },
        {
          "duration": 0.26315774999997643,
          "durationTicks": 288,
          "midi": 70,
          "name": "A#4",
          "ticks": 143328,
          "time": 130.96484025,
          "velocity": 0.6850393700787402
        },
        {
          "duration": 0.1754385000000127,
          "durationTicks": 192,
          "midi": 39,
          "name": "D#2",
          "ticks": 143520,
          "time": 131.14027875,
          "velocity": 0.6850393700787402
        },
        {
          "duration": 0.26315775000000485,
          "durationTicks": 288,
          "midi": 72,
          "name": "C5",
          "ticks": 143712,
          "time": 131.31571725,
          "velocity": 0.6850393700787402
        },
        {
          "duration": 0.1754384999999843,
          "durationTicks": 192,
          "midi": 29,
          "name": "F1",
          "ticks": 143712,
          "time": 131.31571725,
          "velocity": 0.6850393700787402
        },
        {
          "duration": 0.1754384999999843,
          "durationTicks": 192,
          "midi": 39,
          "name": "D#2",
          "ticks": 143712,
          "time": 131.31571725,
          "velocity": 0.6850393700787402
        },
        {
          "duration": 0.1754385000000127,
          "durationTicks": 192,
          "midi": 39,
          "name": "D#2",
          "ticks": 143904,
          "time": 131.49115575,
          "velocity": 0.6850393700787402
        },
        {
          "duration": 0.1754384999999843,
          "durationTicks": 192,
          "midi": 39,
          "name": "D#2",
          "ticks": 144096,
          "time": 131.66659425,
          "velocity": 0.6850393700787402
        },
        {
          "duration": 0.08771924999999214,
          "durationTicks": 96,
          "midi": 74,
          "name": "D5",
          "ticks": 144096,
          "time": 131.66659425,
          "velocity": 0.6850393700787402
        },
        {
          "duration": 0.1754384999999843,
          "durationTicks": 192,
          "midi": 29,
          "name": "F1",
          "ticks": 144096,
          "time": 131.66659425,
          "velocity": 0.6850393700787402
        },
        {
          "duration": 0.08771924999999214,
          "durationTicks": 96,
          "midi": 72,
          "name": "C5",
          "ticks": 144192,
          "time": 131.7543135,
          "velocity": 0.6850393700787402
        },
        {
          "duration": 0.350876999999997,
          "durationTicks": 384,
          "midi": 39,
          "name": "D#2",
          "ticks": 144288,
          "time": 131.84203275,
          "velocity": 0.6850393700787402
        },
        {
          "duration": 0.26315775000000485,
          "durationTicks": 288,
          "midi": 70,
          "name": "A#4",
          "ticks": 144288,
          "time": 131.84203275,
          "velocity": 0.6850393700787402
        },
        {
          "duration": 0.08771925000002057,
          "durationTicks": 96,
          "midi": 41,
          "name": "F2",
          "ticks": 144672,
          "time": 132.19290974999998,
          "velocity": 0.6850393700787402
        },
        {
          "duration": 0.26315775000000485,
          "durationTicks": 288,
          "midi": 77,
          "name": "F5",
          "ticks": 144672,
          "time": 132.19290974999998,
          "velocity": 0.6850393700787402
        },
        {
          "duration": 0.08771924999999214,
          "durationTicks": 96,
          "midi": 41,
          "name": "F2",
          "ticks": 144768,
          "time": 132.280629,
          "velocity": 0.6850393700787402
        },
        {
          "duration": 0.350876999999997,
          "durationTicks": 384,
          "midi": 41,
          "name": "F2",
          "ticks": 144864,
          "time": 132.36834825,
          "velocity": 0.6850393700787402
        },
        {
          "duration": 0.26315774999997643,
          "durationTicks": 288,
          "midi": 70,
          "name": "A#4",
          "ticks": 145056,
          "time": 132.54378675,
          "velocity": 0.6850393700787402
        },
        {
          "duration": 0.1754385000000127,
          "durationTicks": 192,
          "midi": 41,
          "name": "F2",
          "ticks": 145248,
          "time": 132.71922525,
          "velocity": 0.6850393700787402
        },
        {
          "duration": 0.1754384999999843,
          "durationTicks": 192,
          "midi": 41,
          "name": "F2",
          "ticks": 145440,
          "time": 132.89466375,
          "velocity": 0.6850393700787402
        },
        {
          "duration": 0.1754384999999843,
          "durationTicks": 192,
          "midi": 82,
          "name": "A#5",
          "ticks": 145440,
          "time": 132.89466375,
          "velocity": 0.6850393700787402
        },
        {
          "duration": 0.26315775000000485,
          "durationTicks": 288,
          "midi": 81,
          "name": "A5",
          "ticks": 145632,
          "time": 133.07010225,
          "velocity": 0.6850393700787402
        },
        {
          "duration": 0.350876999999997,
          "durationTicks": 384,
          "midi": 41,
          "name": "F2",
          "ticks": 145632,
          "time": 133.07010225,
          "velocity": 0.6850393700787402
        },
        {
          "duration": 0.350876999999997,
          "durationTicks": 384,
          "midi": 77,
          "name": "F5",
          "ticks": 146016,
          "time": 133.42097925,
          "velocity": 0.6850393700787402
        },
        {
          "duration": 0.1754385000000127,
          "durationTicks": 192,
          "midi": 41,
          "name": "F2",
          "ticks": 146016,
          "time": 133.42097925,
          "velocity": 0.6850393700787402
        },
        {
          "duration": 0.08771924999999214,
          "durationTicks": 96,
          "midi": 43,
          "name": "G2",
          "ticks": 146208,
          "time": 133.59641775,
          "velocity": 0.6850393700787402
        },
        {
          "duration": 0.08771924999999214,
          "durationTicks": 96,
          "midi": 43,
          "name": "G2",
          "ticks": 146304,
          "time": 133.684137,
          "velocity": 0.6850393700787402
        },
        {
          "duration": 0.1754385000000127,
          "durationTicks": 192,
          "midi": 74,
          "name": "D5",
          "ticks": 146400,
          "time": 133.77185624999998,
          "velocity": 0.6850393700787402
        },
        {
          "duration": 0.1754385000000127,
          "durationTicks": 192,
          "midi": 43,
          "name": "G2",
          "ticks": 146400,
          "time": 133.77185624999998,
          "velocity": 0.6850393700787402
        },
        {
          "duration": 0.08771924999999214,
          "durationTicks": 96,
          "midi": 43,
          "name": "G2",
          "ticks": 146592,
          "time": 133.94729475,
          "velocity": 0.6850393700787402
        },
        {
          "duration": 0.1754385000000127,
          "durationTicks": 192,
          "midi": 72,
          "name": "C5",
          "ticks": 146592,
          "time": 133.94729475,
          "velocity": 0.6850393700787402
        },
        {
          "duration": 0.08771925000002057,
          "durationTicks": 96,
          "midi": 43,
          "name": "G2",
          "ticks": 146688,
          "time": 134.035014,
          "velocity": 0.6850393700787402
        },
        {
          "duration": 0.1754385000000127,
          "durationTicks": 192,
          "midi": 26,
          "name": "D1",
          "ticks": 146688,
          "time": 134.035014,
          "velocity": 0.6850393700787402
        },
        {
          "duration": 0.350876999999997,
          "durationTicks": 384,
          "midi": 70,
          "name": "A#4",
          "ticks": 146784,
          "time": 134.12273325,
          "velocity": 0.6850393700787402
        },
        {
          "duration": 0.1754384999999843,
          "durationTicks": 192,
          "midi": 43,
          "name": "G2",
          "ticks": 146784,
          "time": 134.12273325,
          "velocity": 0.6850393700787402
        },
        {
          "duration": 0.1754384999999843,
          "durationTicks": 192,
          "midi": 31,
          "name": "G1",
          "ticks": 146880,
          "time": 134.2104525,
          "velocity": 0.6850393700787402
        },
        {
          "duration": 0.350876999999997,
          "durationTicks": 384,
          "midi": 43,
          "name": "G2",
          "ticks": 146976,
          "time": 134.29817175,
          "velocity": 0.6850393700787402
        },
        {
          "duration": 0.1754385000000127,
          "durationTicks": 192,
          "midi": 26,
          "name": "D1",
          "ticks": 147072,
          "time": 134.385891,
          "velocity": 0.6850393700787402
        },
        {
          "duration": 0.1754384999999843,
          "durationTicks": 192,
          "midi": 72,
          "name": "C5",
          "ticks": 147168,
          "time": 134.47361025,
          "velocity": 0.6850393700787402
        },
        {
          "duration": 0.1754384999999843,
          "durationTicks": 192,
          "midi": 31,
          "name": "G1",
          "ticks": 147264,
          "time": 134.5613295,
          "velocity": 0.6850393700787402
        },
        {
          "duration": 0.08771924999999214,
          "durationTicks": 96,
          "midi": 43,
          "name": "G2",
          "ticks": 147360,
          "time": 134.64904875,
          "velocity": 0.6850393700787402
        },
        {
          "duration": 0.1754385000000127,
          "durationTicks": 192,
          "midi": 70,
          "name": "A#4",
          "ticks": 147360,
          "time": 134.64904875,
          "velocity": 0.6850393700787402
        },
        {
          "duration": 0.26315775000000485,
          "durationTicks": 288,
          "midi": 43,
          "name": "G2",
          "ticks": 147456,
          "time": 134.73676799999998,
          "velocity": 0.6850393700787402
        },
        {
          "duration": 0.1754385000000127,
          "durationTicks": 192,
          "midi": 26,
          "name": "D1",
          "ticks": 147456,
          "time": 134.73676799999998,
          "velocity": 0.6850393700787402
        },
        {
          "duration": 0.1754384999999843,
          "durationTicks": 192,
          "midi": 65,
          "name": "F4",
          "ticks": 147552,
          "time": 134.82448725,
          "velocity": 0.6850393700787402
        },
        {
          "duration": 0.350876999999997,
          "durationTicks": 384,
          "midi": 72,
          "name": "C5",
          "ticks": 153216,
          "time": 139.999923,
          "velocity": 0.6850393700787402
        },
        {
          "duration": 0.350876999999997,
          "durationTicks": 384,
          "midi": 74,
          "name": "D5",
          "ticks": 153600,
          "time": 140.3508,
          "velocity": 0.6850393700787402
        },
        {
          "duration": 0.6140347500000018,
          "durationTicks": 672,
          "midi": 65,
          "name": "F4",
          "ticks": 153984,
          "time": 140.701677,
          "velocity": 0.6850393700787402
        },
        {
          "duration": 0.350876999999997,
          "durationTicks": 384,
          "midi": 62,
          "name": "D4",
          "ticks": 158880,
          "time": 145.17535875,
          "velocity": 0.6850393700787402
        },
        {
          "duration": 0.3508770000000254,
          "durationTicks": 384,
          "midi": 60,
          "name": "C4",
          "ticks": 159264,
          "time": 145.52623574999998,
          "velocity": 0.6850393700787402
        },
        {
          "duration": 0.350876999999997,
          "durationTicks": 384,
          "midi": 58,
          "name": "A#3",
          "ticks": 159648,
          "time": 145.87711275,
          "velocity": 0.6850393700787402
        },
        {
          "duration": 0.1754385000000127,
          "durationTicks": 192,
          "midi": 38,
          "name": "D2",
          "ticks": 160128,
          "time": 146.315709,
          "velocity": 0.6850393700787402
        },
        {
          "duration": 0.1754384999999843,
          "durationTicks": 192,
          "midi": 38,
          "name": "D2",
          "ticks": 160320,
          "time": 146.4911475,
          "velocity": 0.6850393700787402
        },
        {
          "duration": 0.1754385000000127,
          "durationTicks": 192,
          "midi": 38,
          "name": "D2",
          "ticks": 160512,
          "time": 146.666586,
          "velocity": 0.6850393700787402
        },
        {
          "duration": 0.1754384999999843,
          "durationTicks": 192,
          "midi": 38,
          "name": "D2",
          "ticks": 160704,
          "time": 146.8420245,
          "velocity": 0.6850393700787402
        },
        {
          "duration": 0.1754385000000127,
          "durationTicks": 192,
          "midi": 38,
          "name": "D2",
          "ticks": 160896,
          "time": 147.017463,
          "velocity": 0.6850393700787402
        },
        {
          "duration": 0.1754384999999843,
          "durationTicks": 192,
          "midi": 38,
          "name": "D2",
          "ticks": 161088,
          "time": 147.1929015,
          "velocity": 0.6850393700787402
        },
        {
          "duration": 0.1754385000000127,
          "durationTicks": 192,
          "midi": 38,
          "name": "D2",
          "ticks": 161280,
          "time": 147.36834,
          "velocity": 0.6850393700787402
        },
        {
          "duration": 0.1754384999999843,
          "durationTicks": 192,
          "midi": 38,
          "name": "D2",
          "ticks": 161472,
          "time": 147.5437785,
          "velocity": 0.6850393700787402
        },
        {
          "duration": 0.1754385000000127,
          "durationTicks": 192,
          "midi": 38,
          "name": "D2",
          "ticks": 161664,
          "time": 147.719217,
          "velocity": 0.6850393700787402
        },
        {
          "duration": 0.1754385000000127,
          "durationTicks": 192,
          "midi": 38,
          "name": "D2",
          "ticks": 161856,
          "time": 147.8946555,
          "velocity": 0.6850393700787402
        },
        {
          "duration": 0.1754384999999843,
          "durationTicks": 192,
          "midi": 38,
          "name": "D2",
          "ticks": 162048,
          "time": 148.070094,
          "velocity": 0.6850393700787402
        },
        {
          "duration": 0.1754385000000127,
          "durationTicks": 192,
          "midi": 38,
          "name": "D2",
          "ticks": 162240,
          "time": 148.2455325,
          "velocity": 0.6850393700787402
        },
        {
          "duration": 0.1754384999999843,
          "durationTicks": 192,
          "midi": 38,
          "name": "D2",
          "ticks": 162432,
          "time": 148.420971,
          "velocity": 0.6850393700787402
        },
        {
          "duration": 0.1754385000000127,
          "durationTicks": 192,
          "midi": 38,
          "name": "D2",
          "ticks": 162624,
          "time": 148.5964095,
          "velocity": 0.6850393700787402
        },
        {
          "duration": 0.1754384999999843,
          "durationTicks": 192,
          "midi": 38,
          "name": "D2",
          "ticks": 162816,
          "time": 148.771848,
          "velocity": 0.6850393700787402
        },
        {
          "duration": 0.1754385000000127,
          "durationTicks": 192,
          "midi": 38,
          "name": "D2",
          "ticks": 163008,
          "time": 148.9472865,
          "velocity": 0.6850393700787402
        },
        {
          "duration": 0.1754384999999843,
          "durationTicks": 192,
          "midi": 39,
          "name": "D#2",
          "ticks": 163200,
          "time": 149.122725,
          "velocity": 0.6850393700787402
        },
        {
          "duration": 0.1754385000000127,
          "durationTicks": 192,
          "midi": 39,
          "name": "D#2",
          "ticks": 163392,
          "time": 149.2981635,
          "velocity": 0.6850393700787402
        },
        {
          "duration": 0.1754384999999843,
          "durationTicks": 192,
          "midi": 39,
          "name": "D#2",
          "ticks": 163584,
          "time": 149.473602,
          "velocity": 0.6850393700787402
        },
        {
          "duration": 0.1754385000000127,
          "durationTicks": 192,
          "midi": 39,
          "name": "D#2",
          "ticks": 163776,
          "time": 149.64904049999998,
          "velocity": 0.6850393700787402
        },
        {
          "duration": 0.1754385000000127,
          "durationTicks": 192,
          "midi": 39,
          "name": "D#2",
          "ticks": 163968,
          "time": 149.824479,
          "velocity": 0.6850393700787402
        },
        {
          "duration": 0.1754384999999843,
          "durationTicks": 192,
          "midi": 39,
          "name": "D#2",
          "ticks": 164160,
          "time": 149.9999175,
          "velocity": 0.6850393700787402
        },
        {
          "duration": 0.1754385000000127,
          "durationTicks": 192,
          "midi": 39,
          "name": "D#2",
          "ticks": 164352,
          "time": 150.175356,
          "velocity": 0.6850393700787402
        },
        {
          "duration": 0.1754384999999843,
          "durationTicks": 192,
          "midi": 39,
          "name": "D#2",
          "ticks": 164544,
          "time": 150.3507945,
          "velocity": 0.6850393700787402
        },
        {
          "duration": 0.1754385000000127,
          "durationTicks": 192,
          "midi": 39,
          "name": "D#2",
          "ticks": 164736,
          "time": 150.526233,
          "velocity": 0.6850393700787402
        },
        {
          "duration": 0.1754384999999843,
          "durationTicks": 192,
          "midi": 39,
          "name": "D#2",
          "ticks": 164928,
          "time": 150.7016715,
          "velocity": 0.6850393700787402
        },
        {
          "duration": 0.1754385000000127,
          "durationTicks": 192,
          "midi": 39,
          "name": "D#2",
          "ticks": 165120,
          "time": 150.87711,
          "velocity": 0.6850393700787402
        },
        {
          "duration": 0.1754384999999843,
          "durationTicks": 192,
          "midi": 39,
          "name": "D#2",
          "ticks": 165312,
          "time": 151.0525485,
          "velocity": 0.6850393700787402
        },
        {
          "duration": 0.1754385000000127,
          "durationTicks": 192,
          "midi": 39,
          "name": "D#2",
          "ticks": 165504,
          "time": 151.22798699999998,
          "velocity": 0.6850393700787402
        },
        {
          "duration": 0.3508770000000254,
          "durationTicks": 384,
          "midi": 72,
          "name": "C5",
          "ticks": 165504,
          "time": 151.22798699999998,
          "velocity": 0.6850393700787402
        },
        {
          "duration": 0.1754385000000127,
          "durationTicks": 192,
          "midi": 39,
          "name": "D#2",
          "ticks": 165696,
          "time": 151.4034255,
          "velocity": 0.6850393700787402
        },
        {
          "duration": 0.350876999999997,
          "durationTicks": 384,
          "midi": 74,
          "name": "D5",
          "ticks": 165888,
          "time": 151.578864,
          "velocity": 0.6850393700787402
        },
        {
          "duration": 0.1754384999999843,
          "durationTicks": 192,
          "midi": 39,
          "name": "D#2",
          "ticks": 165888,
          "time": 151.578864,
          "velocity": 0.6850393700787402
        },
        {
          "duration": 0.1754385000000127,
          "durationTicks": 192,
          "midi": 39,
          "name": "D#2",
          "ticks": 166080,
          "time": 151.7543025,
          "velocity": 0.6850393700787402
        },
        {
          "duration": 0.1754384999999843,
          "durationTicks": 192,
          "midi": 38,
          "name": "D2",
          "ticks": 166272,
          "time": 151.929741,
          "velocity": 0.6850393700787402
        },
        {
          "duration": 0.6140347500000018,
          "durationTicks": 672,
          "midi": 65,
          "name": "F4",
          "ticks": 166272,
          "time": 151.929741,
          "velocity": 0.6850393700787402
        },
        {
          "duration": 0.1754385000000127,
          "durationTicks": 192,
          "midi": 38,
          "name": "D2",
          "ticks": 166464,
          "time": 152.1051795,
          "velocity": 0.6850393700787402
        },
        {
          "duration": 0.1754384999999843,
          "durationTicks": 192,
          "midi": 38,
          "name": "D2",
          "ticks": 166656,
          "time": 152.280618,
          "velocity": 0.6850393700787402
        },
        {
          "duration": 0.1754385000000127,
          "durationTicks": 192,
          "midi": 38,
          "name": "D2",
          "ticks": 166848,
          "time": 152.4560565,
          "velocity": 0.6850393700787402
        },
        {
          "duration": 0.1754384999999843,
          "durationTicks": 192,
          "midi": 38,
          "name": "D2",
          "ticks": 167040,
          "time": 152.631495,
          "velocity": 0.6850393700787402
        },
        {
          "duration": 0.1754385000000127,
          "durationTicks": 192,
          "midi": 38,
          "name": "D2",
          "ticks": 167232,
          "time": 152.80693349999999,
          "velocity": 0.6850393700787402
        },
        {
          "duration": 0.1754385000000127,
          "durationTicks": 192,
          "midi": 38,
          "name": "D2",
          "ticks": 167424,
          "time": 152.982372,
          "velocity": 0.6850393700787402
        },
        {
          "duration": 0.1754384999999843,
          "durationTicks": 192,
          "midi": 38,
          "name": "D2",
          "ticks": 167616,
          "time": 153.1578105,
          "velocity": 0.6850393700787402
        },
        {
          "duration": 0.1754385000000127,
          "durationTicks": 192,
          "midi": 38,
          "name": "D2",
          "ticks": 167808,
          "time": 153.333249,
          "velocity": 0.6850393700787402
        },
        {
          "duration": 0.1754384999999843,
          "durationTicks": 192,
          "midi": 38,
          "name": "D2",
          "ticks": 168000,
          "time": 153.5086875,
          "velocity": 0.6850393700787402
        },
        {
          "duration": 0.1754385000000127,
          "durationTicks": 192,
          "midi": 38,
          "name": "D2",
          "ticks": 168192,
          "time": 153.684126,
          "velocity": 0.6850393700787402
        },
        {
          "duration": 0.1754384999999843,
          "durationTicks": 192,
          "midi": 38,
          "name": "D2",
          "ticks": 168384,
          "time": 153.8595645,
          "velocity": 0.6850393700787402
        },
        {
          "duration": 0.1754385000000127,
          "durationTicks": 192,
          "midi": 38,
          "name": "D2",
          "ticks": 168576,
          "time": 154.035003,
          "velocity": 0.6850393700787402
        },
        {
          "duration": 0.1754384999999843,
          "durationTicks": 192,
          "midi": 38,
          "name": "D2",
          "ticks": 168768,
          "time": 154.2104415,
          "velocity": 0.6850393700787402
        },
        {
          "duration": 0.1754385000000127,
          "durationTicks": 192,
          "midi": 38,
          "name": "D2",
          "ticks": 168960,
          "time": 154.38588,
          "velocity": 0.6850393700787402
        },
        {
          "duration": 0.1754385000000127,
          "durationTicks": 192,
          "midi": 38,
          "name": "D2",
          "ticks": 169152,
          "time": 154.5613185,
          "velocity": 0.6850393700787402
        },
        {
          "duration": 0.1754384999999843,
          "durationTicks": 192,
          "midi": 39,
          "name": "D#2",
          "ticks": 169344,
          "time": 154.736757,
          "velocity": 0.6850393700787402
        },
        {
          "duration": 0.1754385000000127,
          "durationTicks": 192,
          "midi": 39,
          "name": "D#2",
          "ticks": 169536,
          "time": 154.9121955,
          "velocity": 0.6850393700787402
        },
        {
          "duration": 0.350876999999997,
          "durationTicks": 384,
          "midi": 74,
          "name": "D5",
          "ticks": 169728,
          "time": 155.087634,
          "velocity": 0.6850393700787402
        },
        {
          "duration": 0.1754384999999843,
          "durationTicks": 192,
          "midi": 39,
          "name": "D#2",
          "ticks": 169728,
          "time": 155.087634,
          "velocity": 0.6850393700787402
        },
        {
          "duration": 0.1754385000000127,
          "durationTicks": 192,
          "midi": 39,
          "name": "D#2",
          "ticks": 169920,
          "time": 155.2630725,
          "velocity": 0.6850393700787402
        },
        {
          "duration": 0.350876999999997,
          "durationTicks": 384,
          "midi": 72,
          "name": "C5",
          "ticks": 170112,
          "time": 155.438511,
          "velocity": 0.6850393700787402
        },
        {
          "duration": 0.1754384999999843,
          "durationTicks": 192,
          "midi": 39,
          "name": "D#2",
          "ticks": 170112,
          "time": 155.438511,
          "velocity": 0.6850393700787402
        },
        {
          "duration": 0.1754385000000127,
          "durationTicks": 192,
          "midi": 39,
          "name": "D#2",
          "ticks": 170304,
          "time": 155.6139495,
          "velocity": 0.6850393700787402
        },
        {
          "duration": 0.1754384999999843,
          "durationTicks": 192,
          "midi": 39,
          "name": "D#2",
          "ticks": 170496,
          "time": 155.789388,
          "velocity": 0.6850393700787402
        },
        {
          "duration": 0.701753999999994,
          "durationTicks": 768,
          "midi": 70,
          "name": "A#4",
          "ticks": 170496,
          "time": 155.789388,
          "velocity": 0.6850393700787402
        },
        {
          "duration": 0.1754385000000127,
          "durationTicks": 192,
          "midi": 39,
          "name": "D#2",
          "ticks": 170688,
          "time": 155.9648265,
          "velocity": 0.6850393700787402
        },
        {
          "duration": 0.1754384999999843,
          "durationTicks": 192,
          "midi": 39,
          "name": "D#2",
          "ticks": 170880,
          "time": 156.140265,
          "velocity": 0.6850393700787402
        },
        {
          "duration": 0.1754385000000127,
          "durationTicks": 192,
          "midi": 39,
          "name": "D#2",
          "ticks": 171072,
          "time": 156.31570349999998,
          "velocity": 0.6850393700787402
        },
        {
          "duration": 0.350876999999997,
          "durationTicks": 384,
          "midi": 62,
          "name": "D4",
          "ticks": 171264,
          "time": 156.491142,
          "velocity": 0.6850393700787402
        },
        {
          "duration": 0.1754385000000127,
          "durationTicks": 192,
          "midi": 39,
          "name": "D#2",
          "ticks": 171264,
          "time": 156.491142,
          "velocity": 0.6850393700787402
        },
        {
          "duration": 0.1754384999999843,
          "durationTicks": 192,
          "midi": 39,
          "name": "D#2",
          "ticks": 171456,
          "time": 156.6665805,
          "velocity": 0.6850393700787402
        },
        {
          "duration": 0.1754385000000127,
          "durationTicks": 192,
          "midi": 39,
          "name": "D#2",
          "ticks": 171648,
          "time": 156.842019,
          "velocity": 0.6850393700787402
        },
        {
          "duration": 0.350876999999997,
          "durationTicks": 384,
          "midi": 60,
          "name": "C4",
          "ticks": 171648,
          "time": 156.842019,
          "velocity": 0.6850393700787402
        },
        {
          "duration": 0.1754384999999843,
          "durationTicks": 192,
          "midi": 39,
          "name": "D#2",
          "ticks": 171840,
          "time": 157.0174575,
          "velocity": 0.6850393700787402
        },
        {
          "duration": 0.1754385000000127,
          "durationTicks": 192,
          "midi": 39,
          "name": "D#2",
          "ticks": 172032,
          "time": 157.192896,
          "velocity": 0.6850393700787402
        },
        {
          "duration": 0.350876999999997,
          "durationTicks": 384,
          "midi": 58,
          "name": "A#3",
          "ticks": 172032,
          "time": 157.192896,
          "velocity": 0.6850393700787402
        },
        {
          "duration": 0.1754384999999843,
          "durationTicks": 192,
          "midi": 39,
          "name": "D#2",
          "ticks": 172224,
          "time": 157.3683345,
          "velocity": 0.6850393700787402
        },
        {
          "duration": 0.1754385000000127,
          "durationTicks": 192,
          "midi": 38,
          "name": "D2",
          "ticks": 172416,
          "time": 157.543773,
          "velocity": 0.6850393700787402
        },
        {
          "duration": 0.1754384999999843,
          "durationTicks": 192,
          "midi": 38,
          "name": "D2",
          "ticks": 172608,
          "time": 157.7192115,
          "velocity": 0.6850393700787402
        },
        {
          "duration": 0.1754385000000127,
          "durationTicks": 192,
          "midi": 38,
          "name": "D2",
          "ticks": 172800,
          "time": 157.89464999999998,
          "velocity": 0.6850393700787402
        },
        {
          "duration": 0.1754385000000127,
          "durationTicks": 192,
          "midi": 38,
          "name": "D2",
          "ticks": 172992,
          "time": 158.0700885,
          "velocity": 0.6850393700787402
        },
        {
          "duration": 0.1754384999999843,
          "durationTicks": 192,
          "midi": 38,
          "name": "D2",
          "ticks": 173184,
          "time": 158.245527,
          "velocity": 0.6850393700787402
        },
        {
          "duration": 0.1754385000000127,
          "durationTicks": 192,
          "midi": 38,
          "name": "D2",
          "ticks": 173376,
          "time": 158.4209655,
          "velocity": 0.6850393700787402
        },
        {
          "duration": 0.1754384999999843,
          "durationTicks": 192,
          "midi": 38,
          "name": "D2",
          "ticks": 173568,
          "time": 158.596404,
          "velocity": 0.6850393700787402
        },
        {
          "duration": 0.1754385000000127,
          "durationTicks": 192,
          "midi": 38,
          "name": "D2",
          "ticks": 173760,
          "time": 158.7718425,
          "velocity": 0.6850393700787402
        },
        {
          "duration": 0.1754384999999843,
          "durationTicks": 192,
          "midi": 38,
          "name": "D2",
          "ticks": 173952,
          "time": 158.947281,
          "velocity": 0.6850393700787402
        },
        {
          "duration": 0.1754385000000127,
          "durationTicks": 192,
          "midi": 38,
          "name": "D2",
          "ticks": 174144,
          "time": 159.1227195,
          "velocity": 0.6850393700787402
        },
        {
          "duration": 0.1754384999999843,
          "durationTicks": 192,
          "midi": 38,
          "name": "D2",
          "ticks": 174336,
          "time": 159.298158,
          "velocity": 0.6850393700787402
        },
        {
          "duration": 0.1754385000000127,
          "durationTicks": 192,
          "midi": 38,
          "name": "D2",
          "ticks": 174528,
          "time": 159.47359649999999,
          "velocity": 0.6850393700787402
        },
        {
          "duration": 0.1754385000000127,
          "durationTicks": 192,
          "midi": 38,
          "name": "D2",
          "ticks": 174720,
          "time": 159.649035,
          "velocity": 0.6850393700787402
        },
        {
          "duration": 0.1754384999999843,
          "durationTicks": 192,
          "midi": 38,
          "name": "D2",
          "ticks": 174912,
          "time": 159.8244735,
          "velocity": 0.6850393700787402
        },
        {
          "duration": 0.1754385000000127,
          "durationTicks": 192,
          "midi": 38,
          "name": "D2",
          "ticks": 175104,
          "time": 159.999912,
          "velocity": 0.6850393700787402
        },
        {
          "duration": 0.1754384999999843,
          "durationTicks": 192,
          "midi": 38,
          "name": "D2",
          "ticks": 175296,
          "time": 160.1753505,
          "velocity": 0.6850393700787402
        },
        {
          "duration": 0.1754385000000127,
          "durationTicks": 192,
          "midi": 39,
          "name": "D#2",
          "ticks": 175488,
          "time": 160.350789,
          "velocity": 0.6850393700787402
        },
        {
          "duration": 0.1754384999999843,
          "durationTicks": 192,
          "midi": 39,
          "name": "D#2",
          "ticks": 175680,
          "time": 160.5262275,
          "velocity": 0.6850393700787402
        },
        {
          "duration": 0.1754385000000127,
          "durationTicks": 192,
          "midi": 39,
          "name": "D#2",
          "ticks": 175872,
          "time": 160.701666,
          "velocity": 0.6850393700787402
        },
        {
          "duration": 0.1754384999999843,
          "durationTicks": 192,
          "midi": 39,
          "name": "D#2",
          "ticks": 176064,
          "time": 160.8771045,
          "velocity": 0.6850393700787402
        },
        {
          "duration": 0.1754385000000127,
          "durationTicks": 192,
          "midi": 39,
          "name": "D#2",
          "ticks": 176256,
          "time": 161.052543,
          "velocity": 0.6850393700787402
        },
        {
          "duration": 0.1754385000000127,
          "durationTicks": 192,
          "midi": 39,
          "name": "D#2",
          "ticks": 176448,
          "time": 161.2279815,
          "velocity": 0.6850393700787402
        },
        {
          "duration": 0.1754384999999843,
          "durationTicks": 192,
          "midi": 39,
          "name": "D#2",
          "ticks": 176640,
          "time": 161.40342,
          "velocity": 0.6850393700787402
        },
        {
          "duration": 0.1754385000000127,
          "durationTicks": 192,
          "midi": 39,
          "name": "D#2",
          "ticks": 176832,
          "time": 161.5788585,
          "velocity": 0.6850393700787402
        },
        {
          "duration": 0.1754384999999843,
          "durationTicks": 192,
          "midi": 39,
          "name": "D#2",
          "ticks": 177024,
          "time": 161.754297,
          "velocity": 0.6850393700787402
        },
        {
          "duration": 0.1754385000000127,
          "durationTicks": 192,
          "midi": 39,
          "name": "D#2",
          "ticks": 177216,
          "time": 161.9297355,
          "velocity": 0.6850393700787402
        },
        {
          "duration": 0.1754384999999843,
          "durationTicks": 192,
          "midi": 39,
          "name": "D#2",
          "ticks": 177408,
          "time": 162.105174,
          "velocity": 0.6850393700787402
        },
        {
          "duration": 0.1754385000000127,
          "durationTicks": 192,
          "midi": 39,
          "name": "D#2",
          "ticks": 177600,
          "time": 162.2806125,
          "velocity": 0.6850393700787402
        },
        {
          "duration": 0.1754384999999843,
          "durationTicks": 192,
          "midi": 39,
          "name": "D#2",
          "ticks": 177792,
          "time": 162.456051,
          "velocity": 0.6850393700787402
        },
        {
          "duration": 0.350876999999997,
          "durationTicks": 384,
          "midi": 72,
          "name": "C5",
          "ticks": 177792,
          "time": 162.456051,
          "velocity": 0.6850393700787402
        },
        {
          "duration": 0.1754385000000127,
          "durationTicks": 192,
          "midi": 39,
          "name": "D#2",
          "ticks": 177984,
          "time": 162.6314895,
          "velocity": 0.6850393700787402
        },
        {
          "duration": 0.1754384999999843,
          "durationTicks": 192,
          "midi": 39,
          "name": "D#2",
          "ticks": 178176,
          "time": 162.806928,
          "velocity": 0.6850393700787402
        },
        {
          "duration": 0.350876999999997,
          "durationTicks": 384,
          "midi": 74,
          "name": "D5",
          "ticks": 178176,
          "time": 162.806928,
          "velocity": 0.6850393700787402
        },
        {
          "duration": 0.1754385000000127,
          "durationTicks": 192,
          "midi": 39,
          "name": "D#2",
          "ticks": 178368,
          "time": 162.98236649999998,
          "velocity": 0.6850393700787402
        },
        {
          "duration": 0.1754385000000127,
          "durationTicks": 192,
          "midi": 38,
          "name": "D2",
          "ticks": 178560,
          "time": 163.157805,
          "velocity": 0.6850393700787402
        },
        {
          "duration": 0.6140347500000018,
          "durationTicks": 672,
          "midi": 65,
          "name": "F4",
          "ticks": 178560,
          "time": 163.157805,
          "velocity": 0.6850393700787402
        },
        {
          "duration": 0.1754384999999843,
          "durationTicks": 192,
          "midi": 38,
          "name": "D2",
          "ticks": 178752,
          "time": 163.3332435,
          "velocity": 0.6850393700787402
        },
        {
          "duration": 0.1754385000000127,
          "durationTicks": 192,
          "midi": 38,
          "name": "D2",
          "ticks": 178944,
          "time": 163.508682,
          "velocity": 0.6850393700787402
        },
        {
          "duration": 0.1754384999999843,
          "durationTicks": 192,
          "midi": 38,
          "name": "D2",
          "ticks": 179136,
          "time": 163.6841205,
          "velocity": 0.6850393700787402
        },
        {
          "duration": 0.1754385000000127,
          "durationTicks": 192,
          "midi": 38,
          "name": "D2",
          "ticks": 179328,
          "time": 163.859559,
          "velocity": 0.6850393700787402
        },
        {
          "duration": 0.1754384999999843,
          "durationTicks": 192,
          "midi": 38,
          "name": "D2",
          "ticks": 179520,
          "time": 164.0349975,
          "velocity": 0.6850393700787402
        },
        {
          "duration": 0.1754385000000127,
          "durationTicks": 192,
          "midi": 38,
          "name": "D2",
          "ticks": 179712,
          "time": 164.210436,
          "velocity": 0.6850393700787402
        },
        {
          "duration": 0.1754384999999843,
          "durationTicks": 192,
          "midi": 38,
          "name": "D2",
          "ticks": 179904,
          "time": 164.3858745,
          "velocity": 0.6850393700787402
        },
        {
          "duration": 0.1754385000000127,
          "durationTicks": 192,
          "midi": 38,
          "name": "D2",
          "ticks": 180096,
          "time": 164.56131299999998,
          "velocity": 0.6850393700787402
        },
        {
          "duration": 0.1754385000000127,
          "durationTicks": 192,
          "midi": 38,
          "name": "D2",
          "ticks": 180288,
          "time": 164.7367515,
          "velocity": 0.6850393700787402
        },
        {
          "duration": 0.1754384999999843,
          "durationTicks": 192,
          "midi": 38,
          "name": "D2",
          "ticks": 180480,
          "time": 164.91219,
          "velocity": 0.6850393700787402
        },
        {
          "duration": 0.1754385000000127,
          "durationTicks": 192,
          "midi": 38,
          "name": "D2",
          "ticks": 180672,
          "time": 165.0876285,
          "velocity": 0.6850393700787402
        },
        {
          "duration": 0.1754384999999843,
          "durationTicks": 192,
          "midi": 38,
          "name": "D2",
          "ticks": 180864,
          "time": 165.263067,
          "velocity": 0.6850393700787402
        },
        {
          "duration": 0.1754385000000127,
          "durationTicks": 192,
          "midi": 38,
          "name": "D2",
          "ticks": 181056,
          "time": 165.4385055,
          "velocity": 0.6850393700787402
        },
        {
          "duration": 0.1754384999999843,
          "durationTicks": 192,
          "midi": 38,
          "name": "D2",
          "ticks": 181248,
          "time": 165.613944,
          "velocity": 0.6850393700787402
        },
        {
          "duration": 0.1754385000000127,
          "durationTicks": 192,
          "midi": 38,
          "name": "D2",
          "ticks": 181440,
          "time": 165.7893825,
          "velocity": 0.6850393700787402
        },
        {
          "duration": 0.1754384999999843,
          "durationTicks": 192,
          "midi": 39,
          "name": "D#2",
          "ticks": 181632,
          "time": 165.964821,
          "velocity": 0.6850393700787402
        },
        {
          "duration": 0.1754385000000127,
          "durationTicks": 192,
          "midi": 39,
          "name": "D#2",
          "ticks": 181824,
          "time": 166.14025949999998,
          "velocity": 0.6850393700787402
        },
        {
          "duration": 0.350876999999997,
          "durationTicks": 384,
          "midi": 74,
          "name": "D5",
          "ticks": 182016,
          "time": 166.315698,
          "velocity": 0.6850393700787402
        },
        {
          "duration": 0.1754385000000127,
          "durationTicks": 192,
          "midi": 39,
          "name": "D#2",
          "ticks": 182016,
          "time": 166.315698,
          "velocity": 0.6850393700787402
        },
        {
          "duration": 0.1754384999999843,
          "durationTicks": 192,
          "midi": 39,
          "name": "D#2",
          "ticks": 182208,
          "time": 166.4911365,
          "velocity": 0.6850393700787402
        },
        {
          "duration": 0.350876999999997,
          "durationTicks": 384,
          "midi": 72,
          "name": "C5",
          "ticks": 182400,
          "time": 166.666575,
          "velocity": 0.6850393700787402
        },
        {
          "duration": 0.1754385000000127,
          "durationTicks": 192,
          "midi": 39,
          "name": "D#2",
          "ticks": 182400,
          "time": 166.666575,
          "velocity": 0.6850393700787402
        },
        {
          "duration": 0.1754384999999843,
          "durationTicks": 192,
          "midi": 39,
          "name": "D#2",
          "ticks": 182592,
          "time": 166.8420135,
          "velocity": 0.6850393700787402
        },
        {
          "duration": 0.1754385000000127,
          "durationTicks": 192,
          "midi": 39,
          "name": "D#2",
          "ticks": 182784,
          "time": 167.017452,
          "velocity": 0.6850393700787402
        },
        {
          "duration": 0.701753999999994,
          "durationTicks": 768,
          "midi": 70,
          "name": "A#4",
          "ticks": 182784,
          "time": 167.017452,
          "velocity": 0.6850393700787402
        },
        {
          "duration": 0.1754384999999843,
          "durationTicks": 192,
          "midi": 39,
          "name": "D#2",
          "ticks": 182976,
          "time": 167.1928905,
          "velocity": 0.6850393700787402
        },
        {
          "duration": 0.1754385000000127,
          "durationTicks": 192,
          "midi": 39,
          "name": "D#2",
          "ticks": 183168,
          "time": 167.368329,
          "velocity": 0.6850393700787402
        },
        {
          "duration": 0.1754384999999843,
          "durationTicks": 192,
          "midi": 39,
          "name": "D#2",
          "ticks": 183360,
          "time": 167.5437675,
          "velocity": 0.6850393700787402
        },
        {
          "duration": 0.1754385000000127,
          "durationTicks": 192,
          "midi": 39,
          "name": "D#2",
          "ticks": 183552,
          "time": 167.71920599999999,
          "velocity": 0.6850393700787402
        },
        {
          "duration": 0.1754385000000127,
          "durationTicks": 192,
          "midi": 39,
          "name": "D#2",
          "ticks": 183744,
          "time": 167.8946445,
          "velocity": 0.6850393700787402
        },
        {
          "duration": 0.1754384999999843,
          "durationTicks": 192,
          "midi": 39,
          "name": "D#2",
          "ticks": 183936,
          "time": 168.070083,
          "velocity": 0.6850393700787402
        },
        {
          "duration": 0.1754385000000127,
          "durationTicks": 192,
          "midi": 39,
          "name": "D#2",
          "ticks": 184128,
          "time": 168.2455215,
          "velocity": 0.6850393700787402
        },
        {
          "duration": 0.1754384999999843,
          "durationTicks": 192,
          "midi": 39,
          "name": "D#2",
          "ticks": 184320,
          "time": 168.42096,
          "velocity": 0.6850393700787402
        },
        {
          "duration": 0.1754385000000127,
          "durationTicks": 192,
          "midi": 39,
          "name": "D#2",
          "ticks": 184512,
          "time": 168.5963985,
          "velocity": 0.6850393700787402
        }
      ],
      "endOfTrackTicks": 184704
    },
    {
      "channel": 2,
      "controlChanges": {},
      "pitchBends": [],
      "instrument": {
        "family": "synth effects",
        "number": 99,
        "name": "fx 4 (atmosphere)"
      },
      "name": "Scifi",
      "notes": [
        {
          "duration": 0.0877192500000028,
          "durationTicks": 96,
          "midi": 99,
          "name": "D#7",
          "ticks": 24768,
          "time": 22.631566499999998,
          "velocity": 0.25984251968503935
        },
        {
          "duration": 0.0877192500000028,
          "durationTicks": 96,
          "midi": 94,
          "name": "A#6",
          "ticks": 24768,
          "time": 22.631566499999998,
          "velocity": 0.25984251968503935
        },
        {
          "duration": 0.08771924999999925,
          "durationTicks": 96,
          "midi": 94,
          "name": "A#6",
          "ticks": 25344,
          "time": 23.157882,
          "velocity": 0.25984251968503935
        },
        {
          "duration": 0.08771924999999925,
          "durationTicks": 96,
          "midi": 99,
          "name": "D#7",
          "ticks": 25344,
          "time": 23.157882,
          "velocity": 0.25984251968503935
        },
        {
          "duration": 0.08771924999999925,
          "durationTicks": 96,
          "midi": 99,
          "name": "D#7",
          "ticks": 25920,
          "time": 23.6841975,
          "velocity": 0.25984251968503935
        },
        {
          "duration": 0.08771924999999925,
          "durationTicks": 96,
          "midi": 94,
          "name": "A#6",
          "ticks": 25920,
          "time": 23.6841975,
          "velocity": 0.25984251968503935
        },
        {
          "duration": 0.08771924999999925,
          "durationTicks": 96,
          "midi": 99,
          "name": "D#7",
          "ticks": 26496,
          "time": 24.210513,
          "velocity": 0.25984251968503935
        },
        {
          "duration": 0.08771924999999925,
          "durationTicks": 96,
          "midi": 94,
          "name": "A#6",
          "ticks": 26496,
          "time": 24.210513,
          "velocity": 0.25984251968503935
        },
        {
          "duration": 0.0877192500000028,
          "durationTicks": 96,
          "midi": 99,
          "name": "D#7",
          "ticks": 27072,
          "time": 24.736828499999998,
          "velocity": 0.25984251968503935
        },
        {
          "duration": 0.0877192500000028,
          "durationTicks": 96,
          "midi": 94,
          "name": "A#6",
          "ticks": 27072,
          "time": 24.736828499999998,
          "velocity": 0.25984251968503935
        },
        {
          "duration": 0.0877192500000028,
          "durationTicks": 96,
          "midi": 99,
          "name": "D#7",
          "ticks": 27456,
          "time": 25.0877055,
          "velocity": 0.25984251968503935
        },
        {
          "duration": 0.0877192500000028,
          "durationTicks": 96,
          "midi": 94,
          "name": "A#6",
          "ticks": 27456,
          "time": 25.0877055,
          "velocity": 0.25984251968503935
        },
        {
          "duration": 0.08771924999999925,
          "durationTicks": 96,
          "midi": 101,
          "name": "F7",
          "ticks": 27648,
          "time": 25.263144,
          "velocity": 0.25984251968503935
        },
        {
          "duration": 0.08771924999999925,
          "durationTicks": 96,
          "midi": 99,
          "name": "D#7",
          "ticks": 27648,
          "time": 25.263144,
          "velocity": 0.25984251968503935
        },
        {
          "duration": 0.08771924999999925,
          "durationTicks": 96,
          "midi": 94,
          "name": "A#6",
          "ticks": 27840,
          "time": 25.4385825,
          "velocity": 0.25984251968503935
        },
        {
          "duration": 0.08771924999999925,
          "durationTicks": 96,
          "midi": 99,
          "name": "D#7",
          "ticks": 27840,
          "time": 25.4385825,
          "velocity": 0.25984251968503935
        },
        {
          "duration": 0.0877192500000028,
          "durationTicks": 96,
          "midi": 99,
          "name": "D#7",
          "ticks": 28416,
          "time": 25.964897999999998,
          "velocity": 0.25984251968503935
        },
        {
          "duration": 0.0877192500000028,
          "durationTicks": 96,
          "midi": 94,
          "name": "A#6",
          "ticks": 28416,
          "time": 25.964897999999998,
          "velocity": 0.25984251968503935
        },
        {
          "duration": 0.08771924999999925,
          "durationTicks": 96,
          "midi": 94,
          "name": "A#6",
          "ticks": 28992,
          "time": 26.4912135,
          "velocity": 0.25984251968503935
        },
        {
          "duration": 0.08771924999999925,
          "durationTicks": 96,
          "midi": 99,
          "name": "D#7",
          "ticks": 28992,
          "time": 26.4912135,
          "velocity": 0.25984251968503935
        },
        {
          "duration": 0.08771924999999925,
          "durationTicks": 96,
          "midi": 99,
          "name": "D#7",
          "ticks": 29568,
          "time": 27.017529,
          "velocity": 0.25984251968503935
        },
        {
          "duration": 0.08771924999999925,
          "durationTicks": 96,
          "midi": 94,
          "name": "A#6",
          "ticks": 29568,
          "time": 27.017529,
          "velocity": 0.25984251968503935
        },
        {
          "duration": 0.08771924999999925,
          "durationTicks": 96,
          "midi": 99,
          "name": "D#7",
          "ticks": 30144,
          "time": 27.5438445,
          "velocity": 0.25984251968503935
        },
        {
          "duration": 0.08771924999999925,
          "durationTicks": 96,
          "midi": 94,
          "name": "A#6",
          "ticks": 30144,
          "time": 27.5438445,
          "velocity": 0.25984251968503935
        },
        {
          "duration": 0.08771924999999925,
          "durationTicks": 96,
          "midi": 94,
          "name": "A#6",
          "ticks": 30528,
          "time": 27.8947215,
          "velocity": 0.25984251968503935
        },
        {
          "duration": 0.08771924999999925,
          "durationTicks": 96,
          "midi": 99,
          "name": "D#7",
          "ticks": 30528,
          "time": 27.8947215,
          "velocity": 0.25984251968503935
        },
        {
          "duration": 0.08771924999999925,
          "durationTicks": 96,
          "midi": 99,
          "name": "D#7",
          "ticks": 30720,
          "time": 28.07016,
          "velocity": 0.25984251968503935
        },
        {
          "duration": 0.08771924999999925,
          "durationTicks": 96,
          "midi": 101,
          "name": "F7",
          "ticks": 30720,
          "time": 28.07016,
          "velocity": 0.25984251968503935
        },
        {
          "duration": 0.08771924999999925,
          "durationTicks": 96,
          "midi": 98,
          "name": "D7",
          "ticks": 30912,
          "time": 28.2455985,
          "velocity": 0.25984251968503935
        },
        {
          "duration": 0.08771924999999925,
          "durationTicks": 96,
          "midi": 93,
          "name": "A6",
          "ticks": 30912,
          "time": 28.2455985,
          "velocity": 0.25984251968503935
        },
        {
          "duration": 0.08771924999999925,
          "durationTicks": 96,
          "midi": 98,
          "name": "D7",
          "ticks": 31680,
          "time": 28.9473525,
          "velocity": 0.25984251968503935
        },
        {
          "duration": 0.08771924999999925,
          "durationTicks": 96,
          "midi": 93,
          "name": "A6",
          "ticks": 31680,
          "time": 28.9473525,
          "velocity": 0.25984251968503935
        },
        {
          "duration": 0.08771924999999925,
          "durationTicks": 96,
          "midi": 98,
          "name": "D7",
          "ticks": 32256,
          "time": 29.473668,
          "velocity": 0.25984251968503935
        },
        {
          "duration": 0.08771924999999925,
          "durationTicks": 96,
          "midi": 93,
          "name": "A6",
          "ticks": 32256,
          "time": 29.473668,
          "velocity": 0.25984251968503935
        },
        {
          "duration": 0.08771924999999925,
          "durationTicks": 96,
          "midi": 93,
          "name": "A6",
          "ticks": 32640,
          "time": 29.824545,
          "velocity": 0.25984251968503935
        },
        {
          "duration": 0.08771924999999925,
          "durationTicks": 96,
          "midi": 96,
          "name": "C7",
          "ticks": 32640,
          "time": 29.824545,
          "velocity": 0.25984251968503935
        },
        {
          "duration": 0.08771924999999925,
          "durationTicks": 96,
          "midi": 96,
          "name": "C7",
          "ticks": 33216,
          "time": 30.3508605,
          "velocity": 0.25984251968503935
        },
        {
          "duration": 0.08771924999999925,
          "durationTicks": 96,
          "midi": 93,
          "name": "A6",
          "ticks": 33216,
          "time": 30.3508605,
          "velocity": 0.25984251968503935
        },
        {
          "duration": 0.08771924999999925,
          "durationTicks": 96,
          "midi": 103,
          "name": "G7",
          "ticks": 33600,
          "time": 30.7017375,
          "velocity": 0.25984251968503935
        },
        {
          "duration": 0.08771924999999925,
          "durationTicks": 96,
          "midi": 106,
          "name": "A#7",
          "ticks": 33696,
          "time": 30.78945675,
          "velocity": 0.25984251968503935
        },
        {
          "duration": 0.1754384999999985,
          "durationTicks": 192,
          "midi": 94,
          "name": "A#6",
          "ticks": 37056,
          "time": 33.8596305,
          "velocity": 0.25984251968503935
        },
        {
          "duration": 0.08771924999999925,
          "durationTicks": 96,
          "midi": 99,
          "name": "D#7",
          "ticks": 37056,
          "time": 33.8596305,
          "velocity": 0.25984251968503935
        },
        {
          "duration": 0.08771924999999925,
          "durationTicks": 96,
          "midi": 99,
          "name": "D#7",
          "ticks": 37632,
          "time": 34.385946,
          "velocity": 0.25984251968503935
        },
        {
          "duration": 0.1754385000000056,
          "durationTicks": 192,
          "midi": 94,
          "name": "A#6",
          "ticks": 37632,
          "time": 34.385946,
          "velocity": 0.25984251968503935
        },
        {
          "duration": 0.08771924999999925,
          "durationTicks": 96,
          "midi": 99,
          "name": "D#7",
          "ticks": 38208,
          "time": 34.9122615,
          "velocity": 0.25984251968503935
        },
        {
          "duration": 0.08771924999999925,
          "durationTicks": 96,
          "midi": 94,
          "name": "A#6",
          "ticks": 38208,
          "time": 34.9122615,
          "velocity": 0.25984251968503935
        },
        {
          "duration": 0.08771924999999925,
          "durationTicks": 96,
          "midi": 99,
          "name": "D#7",
          "ticks": 38784,
          "time": 35.438577,
          "velocity": 0.25984251968503935
        },
        {
          "duration": 0.08771924999999925,
          "durationTicks": 96,
          "midi": 94,
          "name": "A#6",
          "ticks": 38784,
          "time": 35.438577,
          "velocity": 0.25984251968503935
        },
        {
          "duration": 0.08771924999999925,
          "durationTicks": 96,
          "midi": 94,
          "name": "A#6",
          "ticks": 39360,
          "time": 35.9648925,
          "velocity": 0.25984251968503935
        },
        {
          "duration": 0.08771924999999925,
          "durationTicks": 96,
          "midi": 99,
          "name": "D#7",
          "ticks": 39360,
          "time": 35.9648925,
          "velocity": 0.25984251968503935
        },
        {
          "duration": 0.08771924999999925,
          "durationTicks": 96,
          "midi": 94,
          "name": "A#6",
          "ticks": 39744,
          "time": 36.3157695,
          "velocity": 0.25984251968503935
        },
        {
          "duration": 0.08771924999999925,
          "durationTicks": 96,
          "midi": 99,
          "name": "D#7",
          "ticks": 39744,
          "time": 36.3157695,
          "velocity": 0.25984251968503935
        },
        {
          "duration": 0.08771924999999925,
          "durationTicks": 96,
          "midi": 99,
          "name": "D#7",
          "ticks": 39936,
          "time": 36.491208,
          "velocity": 0.25984251968503935
        },
        {
          "duration": 0.08771924999999925,
          "durationTicks": 96,
          "midi": 94,
          "name": "A#6",
          "ticks": 40128,
          "time": 36.6666465,
          "velocity": 0.25984251968503935
        },
        {
          "duration": 0.08771924999999925,
          "durationTicks": 96,
          "midi": 99,
          "name": "D#7",
          "ticks": 40128,
          "time": 36.6666465,
          "velocity": 0.25984251968503935
        },
        {
          "duration": 0.08771924999999925,
          "durationTicks": 96,
          "midi": 99,
          "name": "D#7",
          "ticks": 40704,
          "time": 37.192962,
          "velocity": 0.25984251968503935
        },
        {
          "duration": 0.08771924999999925,
          "durationTicks": 96,
          "midi": 94,
          "name": "A#6",
          "ticks": 40704,
          "time": 37.192962,
          "velocity": 0.25984251968503935
        },
        {
          "duration": 0.08771924999999925,
          "durationTicks": 96,
          "midi": 99,
          "name": "D#7",
          "ticks": 41280,
          "time": 37.7192775,
          "velocity": 0.25984251968503935
        },
        {
          "duration": 0.08771924999999925,
          "durationTicks": 96,
          "midi": 94,
          "name": "A#6",
          "ticks": 41280,
          "time": 37.7192775,
          "velocity": 0.25984251968503935
        },
        {
          "duration": 0.08771924999999925,
          "durationTicks": 96,
          "midi": 99,
          "name": "D#7",
          "ticks": 41856,
          "time": 38.245593,
          "velocity": 0.25984251968503935
        },
        {
          "duration": 0.08771924999999925,
          "durationTicks": 96,
          "midi": 94,
          "name": "A#6",
          "ticks": 41856,
          "time": 38.245593,
          "velocity": 0.25984251968503935
        },
        {
          "duration": 0.08771924999999925,
          "durationTicks": 96,
          "midi": 99,
          "name": "D#7",
          "ticks": 42432,
          "time": 38.7719085,
          "velocity": 0.25984251968503935
        },
        {
          "duration": 0.08771924999999925,
          "durationTicks": 96,
          "midi": 94,
          "name": "A#6",
          "ticks": 42432,
          "time": 38.7719085,
          "velocity": 0.25984251968503935
        },
        {
          "duration": 0.08771924999999925,
          "durationTicks": 96,
          "midi": 94,
          "name": "A#6",
          "ticks": 42816,
          "time": 39.1227855,
          "velocity": 0.25984251968503935
        },
        {
          "duration": 0.08771924999999925,
          "durationTicks": 96,
          "midi": 99,
          "name": "D#7",
          "ticks": 42816,
          "time": 39.1227855,
          "velocity": 0.25984251968503935
        },
        {
          "duration": 0.08771924999999925,
          "durationTicks": 96,
          "midi": 99,
          "name": "D#7",
          "ticks": 43008,
          "time": 39.298224,
          "velocity": 0.25984251968503935
        },
        {
          "duration": 0.08771925000000635,
          "durationTicks": 96,
          "midi": 93,
          "name": "A6",
          "ticks": 43200,
          "time": 39.473662499999996,
          "velocity": 0.25984251968503935
        },
        {
          "duration": 0.08771925000000635,
          "durationTicks": 96,
          "midi": 98,
          "name": "D7",
          "ticks": 43200,
          "time": 39.473662499999996,
          "velocity": 0.25984251968503935
        },
        {
          "duration": 0.08771924999999925,
          "durationTicks": 96,
          "midi": 98,
          "name": "D7",
          "ticks": 43968,
          "time": 40.1754165,
          "velocity": 0.25984251968503935
        },
        {
          "duration": 0.08771924999999925,
          "durationTicks": 96,
          "midi": 93,
          "name": "A6",
          "ticks": 43968,
          "time": 40.1754165,
          "velocity": 0.25984251968503935
        },
        {
          "duration": 0.08771924999999925,
          "durationTicks": 96,
          "midi": 98,
          "name": "D7",
          "ticks": 44544,
          "time": 40.701732,
          "velocity": 0.25984251968503935
        },
        {
          "duration": 0.08771924999999925,
          "durationTicks": 96,
          "midi": 93,
          "name": "A6",
          "ticks": 44544,
          "time": 40.701732,
          "velocity": 0.25984251968503935
        },
        {
          "duration": 0.08771924999999925,
          "durationTicks": 96,
          "midi": 93,
          "name": "A6",
          "ticks": 44928,
          "time": 41.052609,
          "velocity": 0.25984251968503935
        },
        {
          "duration": 0.08771924999999925,
          "durationTicks": 96,
          "midi": 96,
          "name": "C7",
          "ticks": 44928,
          "time": 41.052609,
          "velocity": 0.25984251968503935
        },
        {
          "duration": 0.08771924999999925,
          "durationTicks": 96,
          "midi": 93,
          "name": "A6",
          "ticks": 45504,
          "time": 41.5789245,
          "velocity": 0.25984251968503935
        },
        {
          "duration": 0.08771924999999925,
          "durationTicks": 96,
          "midi": 96,
          "name": "C7",
          "ticks": 45504,
          "time": 41.5789245,
          "velocity": 0.25984251968503935
        },
        {
          "duration": 0.08771925000000635,
          "durationTicks": 96,
          "midi": 103,
          "name": "G7",
          "ticks": 45888,
          "time": 41.929801499999996,
          "velocity": 0.25984251968503935
        },
        {
          "duration": 0.08771924999999925,
          "durationTicks": 96,
          "midi": 106,
          "name": "A#7",
          "ticks": 45984,
          "time": 42.01752075,
          "velocity": 0.25984251968503935
        }
      ],
      "endOfTrackTicks": 46080
    },
    {
      "channel": 3,
      "controlChanges": {},
      "pitchBends": [],
      "instrument": {
        "family": "brass",
        "number": 57,
        "name": "trombone"
      },
      "name": "Trombone",
      "notes": [
        {
          "duration": 0.08771924999999925,
          "durationTicks": 96,
          "midi": 45,
          "name": "A2",
          "ticks": 30912,
          "time": 28.2455985,
          "velocity": 0.11023622047244094
        },
        {
          "duration": 0.08771924999999925,
          "durationTicks": 96,
          "midi": 45,
          "name": "A2",
          "ticks": 30912,
          "time": 28.2455985,
          "velocity": 0.11023622047244094
        },
        {
          "duration": 0.08771924999999925,
          "durationTicks": 96,
          "midi": 33,
          "name": "A1",
          "ticks": 31008,
          "time": 28.33331775,
          "velocity": 0.11023622047244094
        },
        {
          "duration": 0.08771924999999925,
          "durationTicks": 96,
          "midi": 33,
          "name": "A1",
          "ticks": 31008,
          "time": 28.33331775,
          "velocity": 0.11023622047244094
        },
        {
          "duration": 0.0877192500000028,
          "durationTicks": 96,
          "midi": 45,
          "name": "A2",
          "ticks": 31104,
          "time": 28.421037,
          "velocity": 0.11023622047244094
        },
        {
          "duration": 0.0877192500000028,
          "durationTicks": 96,
          "midi": 45,
          "name": "A2",
          "ticks": 31104,
          "time": 28.421037,
          "velocity": 0.11023622047244094
        },
        {
          "duration": 0.0877192500000028,
          "durationTicks": 96,
          "midi": 45,
          "name": "A2",
          "ticks": 31104,
          "time": 28.421037,
          "velocity": 0.11023622047244094
        },
        {
          "duration": 0.08771924999999925,
          "durationTicks": 96,
          "midi": 33,
          "name": "A1",
          "ticks": 31200,
          "time": 28.50875625,
          "velocity": 0.11023622047244094
        },
        {
          "duration": 0.08771924999999925,
          "durationTicks": 96,
          "midi": 33,
          "name": "A1",
          "ticks": 31200,
          "time": 28.50875625,
          "velocity": 0.11023622047244094
        },
        {
          "duration": 0.08771924999999925,
          "durationTicks": 96,
          "midi": 45,
          "name": "A2",
          "ticks": 31296,
          "time": 28.5964755,
          "velocity": 0.11023622047244094
        },
        {
          "duration": 0.08771924999999925,
          "durationTicks": 96,
          "midi": 45,
          "name": "A2",
          "ticks": 31296,
          "time": 28.5964755,
          "velocity": 0.11023622047244094
        },
        {
          "duration": 0.08771924999999925,
          "durationTicks": 96,
          "midi": 33,
          "name": "A1",
          "ticks": 31392,
          "time": 28.68419475,
          "velocity": 0.11023622047244094
        },
        {
          "duration": 0.08771924999999925,
          "durationTicks": 96,
          "midi": 33,
          "name": "A1",
          "ticks": 31392,
          "time": 28.68419475,
          "velocity": 0.11023622047244094
        },
        {
          "duration": 0.08771924999999925,
          "durationTicks": 96,
          "midi": 45,
          "name": "A2",
          "ticks": 31488,
          "time": 28.771914,
          "velocity": 0.11023622047244094
        },
        {
          "duration": 0.08771924999999925,
          "durationTicks": 96,
          "midi": 45,
          "name": "A2",
          "ticks": 31488,
          "time": 28.771914,
          "velocity": 0.11023622047244094
        },
        {
          "duration": 0.08771924999999925,
          "durationTicks": 96,
          "midi": 45,
          "name": "A2",
          "ticks": 31488,
          "time": 28.771914,
          "velocity": 0.11023622047244094
        },
        {
          "duration": 0.0877192500000028,
          "durationTicks": 96,
          "midi": 33,
          "name": "A1",
          "ticks": 31584,
          "time": 28.859633249999998,
          "velocity": 0.11023622047244094
        },
        {
          "duration": 0.0877192500000028,
          "durationTicks": 96,
          "midi": 38,
          "name": "D2",
          "ticks": 31584,
          "time": 28.859633249999998,
          "velocity": 0.11023622047244094
        },
        {
          "duration": 0.0877192500000028,
          "durationTicks": 96,
          "midi": 38,
          "name": "D2",
          "ticks": 31584,
          "time": 28.859633249999998,
          "velocity": 0.11023622047244094
        },
        {
          "duration": 0.0877192500000028,
          "durationTicks": 96,
          "midi": 33,
          "name": "A1",
          "ticks": 31584,
          "time": 28.859633249999998,
          "velocity": 0.11023622047244094
        },
        {
          "duration": 0.08771924999999925,
          "durationTicks": 96,
          "midi": 38,
          "name": "D2",
          "ticks": 43872,
          "time": 40.08769725,
          "velocity": 0.11023622047244094
        },
        {
          "duration": 0.08771924999999925,
          "durationTicks": 96,
          "midi": 38,
          "name": "D2",
          "ticks": 43872,
          "time": 40.08769725,
          "velocity": 0.11023622047244094
        }
      ],
      "endOfTrackTicks": 43968
    },
    {
      "channel": 4,
      "controlChanges": {},
      "pitchBends": [],
      "instrument": {
        "family": "synth lead",
        "number": 80,
        "name": "lead 1 (square)"
      },
      "name": "8-Bit Square",
      "notes": [
        {
          "duration": 0.08771924999999214,
          "durationTicks": 96,
          "midi": 58,
          "name": "A#3",
          "ticks": 86304,
          "time": 78.85960575,
          "velocity": 0.3937007874015748
        },
        {
          "duration": 0.08771924999999214,
          "durationTicks": 96,
          "midi": 70,
          "name": "A#4",
          "ticks": 86304,
          "time": 78.85960575,
          "velocity": 0.3937007874015748
        },
        {
          "duration": 0.08771925000000635,
          "durationTicks": 96,
          "midi": 70,
          "name": "A#4",
          "ticks": 86688,
          "time": 79.21048275,
          "velocity": 0.3937007874015748
        },
        {
          "duration": 0.08771925000000635,
          "durationTicks": 96,
          "midi": 58,
          "name": "A#3",
          "ticks": 86688,
          "time": 79.21048275,
          "velocity": 0.3937007874015748
        },
        {
          "duration": 0.08771925000000635,
          "durationTicks": 96,
          "midi": 60,
          "name": "C4",
          "ticks": 86880,
          "time": 79.38592125,
          "velocity": 0.3937007874015748
        },
        {
          "duration": 0.08771925000000635,
          "durationTicks": 96,
          "midi": 72,
          "name": "C5",
          "ticks": 86880,
          "time": 79.38592125,
          "velocity": 0.3937007874015748
        },
        {
          "duration": 0.08771925000000635,
          "durationTicks": 96,
          "midi": 62,
          "name": "D4",
          "ticks": 87072,
          "time": 79.56135975,
          "velocity": 0.3937007874015748
        },
        {
          "duration": 0.08771925000000635,
          "durationTicks": 96,
          "midi": 74,
          "name": "D5",
          "ticks": 87072,
          "time": 79.56135975,
          "velocity": 0.3937007874015748
        },
        {
          "duration": 0.08771924999999214,
          "durationTicks": 96,
          "midi": 58,
          "name": "A#3",
          "ticks": 87456,
          "time": 79.91223675,
          "velocity": 0.3937007874015748
        },
        {
          "duration": 0.08771924999999214,
          "durationTicks": 96,
          "midi": 70,
          "name": "A#4",
          "ticks": 87456,
          "time": 79.91223675,
          "velocity": 0.3937007874015748
        },
        {
          "duration": 0.08771924999999214,
          "durationTicks": 96,
          "midi": 72,
          "name": "C5",
          "ticks": 87840,
          "time": 80.26311375,
          "velocity": 0.3937007874015748
        },
        {
          "duration": 0.08771924999999214,
          "durationTicks": 96,
          "midi": 60,
          "name": "C4",
          "ticks": 87840,
          "time": 80.26311375,
          "velocity": 0.3937007874015748
        },
        {
          "duration": 0.08771925000000635,
          "durationTicks": 96,
          "midi": 60,
          "name": "C4",
          "ticks": 88224,
          "time": 80.61399075,
          "velocity": 0.3937007874015748
        },
        {
          "duration": 0.08771925000000635,
          "durationTicks": 96,
          "midi": 72,
          "name": "C5",
          "ticks": 88224,
          "time": 80.61399075,
          "velocity": 0.3937007874015748
        },
        {
          "duration": 0.08771925000000635,
          "durationTicks": 96,
          "midi": 74,
          "name": "D5",
          "ticks": 88416,
          "time": 80.78942925,
          "velocity": 0.3937007874015748
        },
        {
          "duration": 0.08771925000000635,
          "durationTicks": 96,
          "midi": 62,
          "name": "D4",
          "ticks": 88416,
          "time": 80.78942925,
          "velocity": 0.3937007874015748
        },
        {
          "duration": 0.08771925000000635,
          "durationTicks": 96,
          "midi": 72,
          "name": "C5",
          "ticks": 88608,
          "time": 80.96486775,
          "velocity": 0.3937007874015748
        },
        {
          "duration": 0.08771925000000635,
          "durationTicks": 96,
          "midi": 60,
          "name": "C4",
          "ticks": 88608,
          "time": 80.96486775,
          "velocity": 0.3937007874015748
        },
        {
          "duration": 0.08771925000000635,
          "durationTicks": 96,
          "midi": 74,
          "name": "D5",
          "ticks": 88800,
          "time": 81.14030625,
          "velocity": 0.3937007874015748
        },
        {
          "duration": 0.08771925000000635,
          "durationTicks": 96,
          "midi": 62,
          "name": "D4",
          "ticks": 88800,
          "time": 81.14030625,
          "velocity": 0.3937007874015748
        },
        {
          "duration": 0.08771924999999214,
          "durationTicks": 96,
          "midi": 60,
          "name": "C4",
          "ticks": 88896,
          "time": 81.2280255,
          "velocity": 0.3937007874015748
        },
        {
          "duration": 0.08771924999999214,
          "durationTicks": 96,
          "midi": 72,
          "name": "C5",
          "ticks": 88896,
          "time": 81.2280255,
          "velocity": 0.3937007874015748
        },
        {
          "duration": 0.08771925000000635,
          "durationTicks": 96,
          "midi": 58,
          "name": "A#3",
          "ticks": 88992,
          "time": 81.31574475,
          "velocity": 0.3937007874015748
        },
        {
          "duration": 0.08771925000000635,
          "durationTicks": 96,
          "midi": 70,
          "name": "A#4",
          "ticks": 88992,
          "time": 81.31574475,
          "velocity": 0.3937007874015748
        },
        {
          "duration": 0.08771924999999214,
          "durationTicks": 96,
          "midi": 62,
          "name": "D4",
          "ticks": 89376,
          "time": 81.66662175,
          "velocity": 0.3937007874015748
        },
        {
          "duration": 0.08771924999999214,
          "durationTicks": 96,
          "midi": 74,
          "name": "D5",
          "ticks": 89376,
          "time": 81.66662175,
          "velocity": 0.3937007874015748
        },
        {
          "duration": 0.08771924999999214,
          "durationTicks": 96,
          "midi": 74,
          "name": "D5",
          "ticks": 89760,
          "time": 82.01749875,
          "velocity": 0.3937007874015748
        },
        {
          "duration": 0.08771924999999214,
          "durationTicks": 96,
          "midi": 62,
          "name": "D4",
          "ticks": 89760,
          "time": 82.01749875,
          "velocity": 0.3937007874015748
        },
        {
          "duration": 0.08771924999999214,
          "durationTicks": 96,
          "midi": 63,
          "name": "D#4",
          "ticks": 89952,
          "time": 82.19293725,
          "velocity": 0.3937007874015748
        },
        {
          "duration": 0.08771924999999214,
          "durationTicks": 96,
          "midi": 75,
          "name": "D#5",
          "ticks": 89952,
          "time": 82.19293725,
          "velocity": 0.3937007874015748
        },
        {
          "duration": 0.08771925000000635,
          "durationTicks": 96,
          "midi": 77,
          "name": "F5",
          "ticks": 90144,
          "time": 82.36837575,
          "velocity": 0.3937007874015748
        },
        {
          "duration": 0.08771925000000635,
          "durationTicks": 96,
          "midi": 65,
          "name": "F4",
          "ticks": 90144,
          "time": 82.36837575,
          "velocity": 0.3937007874015748
        },
        {
          "duration": 0.08771925000000635,
          "durationTicks": 96,
          "midi": 82,
          "name": "A#5",
          "ticks": 90528,
          "time": 82.71925275,
          "velocity": 0.3937007874015748
        },
        {
          "duration": 0.08771925000000635,
          "durationTicks": 96,
          "midi": 70,
          "name": "A#4",
          "ticks": 90528,
          "time": 82.71925275,
          "velocity": 0.3937007874015748
        },
        {
          "duration": 0.5263155000000097,
          "durationTicks": 576,
          "midi": 79,
          "name": "G5",
          "ticks": 90912,
          "time": 83.07012974999999,
          "velocity": 0.3937007874015748
        },
        {
          "duration": 0.5263155000000097,
          "durationTicks": 576,
          "midi": 67,
          "name": "G4",
          "ticks": 90912,
          "time": 83.07012974999999,
          "velocity": 0.3937007874015748
        },
        {
          "duration": 0.5263154999999955,
          "durationTicks": 576,
          "midi": 65,
          "name": "F4",
          "ticks": 91680,
          "time": 83.77188375,
          "velocity": 0.3937007874015748
        },
        {
          "duration": 0.5263154999999955,
          "durationTicks": 576,
          "midi": 77,
          "name": "F5",
          "ticks": 91680,
          "time": 83.77188375,
          "velocity": 0.3937007874015748
        },
        {
          "duration": 0.08771925000000635,
          "durationTicks": 96,
          "midi": 70,
          "name": "A#4",
          "ticks": 92448,
          "time": 84.47363775,
          "velocity": 0.3937007874015748
        },
        {
          "duration": 0.08771925000000635,
          "durationTicks": 96,
          "midi": 58,
          "name": "A#3",
          "ticks": 92448,
          "time": 84.47363775,
          "velocity": 0.3937007874015748
        },
        {
          "duration": 0.08771925000000635,
          "durationTicks": 96,
          "midi": 70,
          "name": "A#4",
          "ticks": 92832,
          "time": 84.82451474999999,
          "velocity": 0.3937007874015748
        },
        {
          "duration": 0.08771925000000635,
          "durationTicks": 96,
          "midi": 58,
          "name": "A#3",
          "ticks": 92832,
          "time": 84.82451474999999,
          "velocity": 0.3937007874015748
        },
        {
          "duration": 0.08771924999999214,
          "durationTicks": 96,
          "midi": 60,
          "name": "C4",
          "ticks": 93024,
          "time": 84.99995325,
          "velocity": 0.3937007874015748
        },
        {
          "duration": 0.08771924999999214,
          "durationTicks": 96,
          "midi": 72,
          "name": "C5",
          "ticks": 93024,
          "time": 84.99995325,
          "velocity": 0.3937007874015748
        },
        {
          "duration": 0.08771924999999214,
          "durationTicks": 96,
          "midi": 62,
          "name": "D4",
          "ticks": 93216,
          "time": 85.17539175,
          "velocity": 0.3937007874015748
        },
        {
          "duration": 0.08771924999999214,
          "durationTicks": 96,
          "midi": 74,
          "name": "D5",
          "ticks": 93216,
          "time": 85.17539175,
          "velocity": 0.3937007874015748
        },
        {
          "duration": 0.08771924999999214,
          "durationTicks": 96,
          "midi": 70,
          "name": "A#4",
          "ticks": 93600,
          "time": 85.52626875,
          "velocity": 0.3937007874015748
        },
        {
          "duration": 0.08771924999999214,
          "durationTicks": 96,
          "midi": 58,
          "name": "A#3",
          "ticks": 93600,
          "time": 85.52626875,
          "velocity": 0.3937007874015748
        },
        {
          "duration": 0.08771925000000635,
          "durationTicks": 96,
          "midi": 72,
          "name": "C5",
          "ticks": 93984,
          "time": 85.87714575,
          "velocity": 0.3937007874015748
        },
        {
          "duration": 0.08771925000000635,
          "durationTicks": 96,
          "midi": 60,
          "name": "C4",
          "ticks": 93984,
          "time": 85.87714575,
          "velocity": 0.3937007874015748
        },
        {
          "duration": 0.08771925000000635,
          "durationTicks": 96,
          "midi": 60,
          "name": "C4",
          "ticks": 94368,
          "time": 86.22802275,
          "velocity": 0.3937007874015748
        },
        {
          "duration": 0.08771925000000635,
          "durationTicks": 96,
          "midi": 72,
          "name": "C5",
          "ticks": 94368,
          "time": 86.22802275,
          "velocity": 0.3937007874015748
        },
        {
          "duration": 0.08771925000000635,
          "durationTicks": 96,
          "midi": 62,
          "name": "D4",
          "ticks": 94560,
          "time": 86.40346124999999,
          "velocity": 0.3937007874015748
        },
        {
          "duration": 0.08771925000000635,
          "durationTicks": 96,
          "midi": 74,
          "name": "D5",
          "ticks": 94560,
          "time": 86.40346124999999,
          "velocity": 0.3937007874015748
        },
        {
          "duration": 0.08771924999999214,
          "durationTicks": 96,
          "midi": 72,
          "name": "C5",
          "ticks": 94752,
          "time": 86.57889975,
          "velocity": 0.3937007874015748
        },
        {
          "duration": 0.08771924999999214,
          "durationTicks": 96,
          "midi": 60,
          "name": "C4",
          "ticks": 94752,
          "time": 86.57889975,
          "velocity": 0.3937007874015748
        },
        {
          "duration": 0.08771924999999214,
          "durationTicks": 96,
          "midi": 62,
          "name": "D4",
          "ticks": 94944,
          "time": 86.75433825,
          "velocity": 0.3937007874015748
        },
        {
          "duration": 0.08771924999999214,
          "durationTicks": 96,
          "midi": 74,
          "name": "D5",
          "ticks": 94944,
          "time": 86.75433825,
          "velocity": 0.3937007874015748
        },
        {
          "duration": 0.08771925000000635,
          "durationTicks": 96,
          "midi": 72,
          "name": "C5",
          "ticks": 95040,
          "time": 86.8420575,
          "velocity": 0.3937007874015748
        },
        {
          "duration": 0.08771925000000635,
          "durationTicks": 96,
          "midi": 60,
          "name": "C4",
          "ticks": 95040,
          "time": 86.8420575,
          "velocity": 0.3937007874015748
        },
        {
          "duration": 0.08771924999999214,
          "durationTicks": 96,
          "midi": 70,
          "name": "A#4",
          "ticks": 95136,
          "time": 86.92977675,
          "velocity": 0.3937007874015748
        },
        {
          "duration": 0.08771924999999214,
          "durationTicks": 96,
          "midi": 58,
          "name": "A#3",
          "ticks": 95136,
          "time": 86.92977675,
          "velocity": 0.3937007874015748
        },
        {
          "duration": 0.08771925000000635,
          "durationTicks": 96,
          "midi": 74,
          "name": "D5",
          "ticks": 95520,
          "time": 87.28065375,
          "velocity": 0.3937007874015748
        },
        {
          "duration": 0.08771925000000635,
          "durationTicks": 96,
          "midi": 62,
          "name": "D4",
          "ticks": 95520,
          "time": 87.28065375,
          "velocity": 0.3937007874015748
        },
        {
          "duration": 0.08771925000000635,
          "durationTicks": 96,
          "midi": 74,
          "name": "D5",
          "ticks": 95904,
          "time": 87.63153075,
          "velocity": 0.3937007874015748
        },
        {
          "duration": 0.08771925000000635,
          "durationTicks": 96,
          "midi": 62,
          "name": "D4",
          "ticks": 95904,
          "time": 87.63153075,
          "velocity": 0.3937007874015748
        },
        {
          "duration": 0.08771925000000635,
          "durationTicks": 96,
          "midi": 75,
          "name": "D#5",
          "ticks": 96096,
          "time": 87.80696925,
          "velocity": 0.3937007874015748
        },
        {
          "duration": 0.08771925000000635,
          "durationTicks": 96,
          "midi": 63,
          "name": "D#4",
          "ticks": 96096,
          "time": 87.80696925,
          "velocity": 0.3937007874015748
        },
        {
          "duration": 0.08771925000000635,
          "durationTicks": 96,
          "midi": 65,
          "name": "F4",
          "ticks": 96288,
          "time": 87.98240775,
          "velocity": 0.3937007874015748
        },
        {
          "duration": 0.08771925000000635,
          "durationTicks": 96,
          "midi": 77,
          "name": "F5",
          "ticks": 96288,
          "time": 87.98240775,
          "velocity": 0.3937007874015748
        },
        {
          "duration": 0.08771924999999214,
          "durationTicks": 96,
          "midi": 70,
          "name": "A#4",
          "ticks": 96672,
          "time": 88.33328475,
          "velocity": 0.3937007874015748
        },
        {
          "duration": 0.08771924999999214,
          "durationTicks": 96,
          "midi": 82,
          "name": "A#5",
          "ticks": 96672,
          "time": 88.33328475,
          "velocity": 0.3937007874015748
        },
        {
          "duration": 0.5263154999999955,
          "durationTicks": 576,
          "midi": 79,
          "name": "G5",
          "ticks": 97056,
          "time": 88.68416175,
          "velocity": 0.3937007874015748
        },
        {
          "duration": 0.5263154999999955,
          "durationTicks": 576,
          "midi": 67,
          "name": "G4",
          "ticks": 97056,
          "time": 88.68416175,
          "velocity": 0.3937007874015748
        },
        {
          "duration": 0.5263155000000097,
          "durationTicks": 576,
          "midi": 58,
          "name": "A#3",
          "ticks": 97824,
          "time": 89.38591575,
          "velocity": 0.3937007874015748
        },
        {
          "duration": 0.5263155000000097,
          "durationTicks": 576,
          "midi": 70,
          "name": "A#4",
          "ticks": 97824,
          "time": 89.38591575,
          "velocity": 0.3937007874015748
        },
        {
          "duration": 0.08771924999999214,
          "durationTicks": 96,
          "midi": 62,
          "name": "D4",
          "ticks": 98592,
          "time": 90.08766975,
          "velocity": 0.3937007874015748
        },
        {
          "duration": 0.08771924999999214,
          "durationTicks": 96,
          "midi": 70,
          "name": "A#4",
          "ticks": 98592,
          "time": 90.08766975,
          "velocity": 0.3937007874015748
        },
        {
          "duration": 0.08771924999999214,
          "durationTicks": 96,
          "midi": 62,
          "name": "D4",
          "ticks": 98976,
          "time": 90.43854675,
          "velocity": 0.3937007874015748
        },
        {
          "duration": 0.08771924999999214,
          "durationTicks": 96,
          "midi": 70,
          "name": "A#4",
          "ticks": 98976,
          "time": 90.43854675,
          "velocity": 0.3937007874015748
        },
        {
          "duration": 0.08771925000000635,
          "durationTicks": 96,
          "midi": 63,
          "name": "D#4",
          "ticks": 99168,
          "time": 90.61398525,
          "velocity": 0.3937007874015748
        },
        {
          "duration": 0.08771925000000635,
          "durationTicks": 96,
          "midi": 72,
          "name": "C5",
          "ticks": 99168,
          "time": 90.61398525,
          "velocity": 0.3937007874015748
        },
        {
          "duration": 0.08771925000000635,
          "durationTicks": 96,
          "midi": 65,
          "name": "F4",
          "ticks": 99360,
          "time": 90.78942375,
          "velocity": 0.3937007874015748
        },
        {
          "duration": 0.08771925000000635,
          "durationTicks": 96,
          "midi": 74,
          "name": "D5",
          "ticks": 99360,
          "time": 90.78942375,
          "velocity": 0.3937007874015748
        },
        {
          "duration": 0.08771925000000635,
          "durationTicks": 96,
          "midi": 62,
          "name": "D4",
          "ticks": 99744,
          "time": 91.14030075,
          "velocity": 0.3937007874015748
        },
        {
          "duration": 0.08771925000000635,
          "durationTicks": 96,
          "midi": 70,
          "name": "A#4",
          "ticks": 99744,
          "time": 91.14030075,
          "velocity": 0.3937007874015748
        },
        {
          "duration": 0.08771924999999214,
          "durationTicks": 96,
          "midi": 63,
          "name": "D#4",
          "ticks": 100128,
          "time": 91.49117775,
          "velocity": 0.3937007874015748
        },
        {
          "duration": 0.08771924999999214,
          "durationTicks": 96,
          "midi": 72,
          "name": "C5",
          "ticks": 100128,
          "time": 91.49117775,
          "velocity": 0.3937007874015748
        },
        {
          "duration": 0.08771924999999214,
          "durationTicks": 96,
          "midi": 63,
          "name": "D#4",
          "ticks": 100512,
          "time": 91.84205475,
          "velocity": 0.3937007874015748
        },
        {
          "duration": 0.08771924999999214,
          "durationTicks": 96,
          "midi": 72,
          "name": "C5",
          "ticks": 100512,
          "time": 91.84205475,
          "velocity": 0.3937007874015748
        },
        {
          "duration": 0.08771924999999214,
          "durationTicks": 96,
          "midi": 74,
          "name": "D5",
          "ticks": 100704,
          "time": 92.01749325,
          "velocity": 0.3937007874015748
        },
        {
          "duration": 0.08771924999999214,
          "durationTicks": 96,
          "midi": 65,
          "name": "F4",
          "ticks": 100704,
          "time": 92.01749325,
          "velocity": 0.3937007874015748
        },
        {
          "duration": 0.08771924999999214,
          "durationTicks": 96,
          "midi": 63,
          "name": "D#4",
          "ticks": 100896,
          "time": 92.19293175,
          "velocity": 0.3937007874015748
        },
        {
          "duration": 0.08771924999999214,
          "durationTicks": 96,
          "midi": 72,
          "name": "C5",
          "ticks": 100896,
          "time": 92.19293175,
          "velocity": 0.3937007874015748
        },
        {
          "duration": 0.08771925000000635,
          "durationTicks": 96,
          "midi": 70,
          "name": "A#4",
          "ticks": 101280,
          "time": 92.54380875,
          "velocity": 0.3937007874015748
        },
        {
          "duration": 0.08771925000000635,
          "durationTicks": 96,
          "midi": 62,
          "name": "D4",
          "ticks": 101280,
          "time": 92.54380875,
          "velocity": 0.3937007874015748
        },
        {
          "duration": 0.08771925000000635,
          "durationTicks": 96,
          "midi": 65,
          "name": "F4",
          "ticks": 101664,
          "time": 92.89468575,
          "velocity": 0.3937007874015748
        },
        {
          "duration": 0.08771925000000635,
          "durationTicks": 96,
          "midi": 74,
          "name": "D5",
          "ticks": 101664,
          "time": 92.89468575,
          "velocity": 0.3937007874015748
        },
        {
          "duration": 0.08771924999999214,
          "durationTicks": 96,
          "midi": 74,
          "name": "D5",
          "ticks": 102048,
          "time": 93.24556275,
          "velocity": 0.3937007874015748
        },
        {
          "duration": 0.08771924999999214,
          "durationTicks": 96,
          "midi": 65,
          "name": "F4",
          "ticks": 102048,
          "time": 93.24556275,
          "velocity": 0.3937007874015748
        },
        {
          "duration": 0.08771924999999214,
          "durationTicks": 96,
          "midi": 75,
          "name": "D#5",
          "ticks": 102240,
          "time": 93.42100125,
          "velocity": 0.3937007874015748
        },
        {
          "duration": 0.08771924999999214,
          "durationTicks": 96,
          "midi": 67,
          "name": "G4",
          "ticks": 102240,
          "time": 93.42100125,
          "velocity": 0.3937007874015748
        },
        {
          "duration": 0.08771924999999214,
          "durationTicks": 96,
          "midi": 77,
          "name": "F5",
          "ticks": 102432,
          "time": 93.59643975,
          "velocity": 0.3937007874015748
        },
        {
          "duration": 0.08771924999999214,
          "durationTicks": 96,
          "midi": 69,
          "name": "A4",
          "ticks": 102432,
          "time": 93.59643975,
          "velocity": 0.3937007874015748
        },
        {
          "duration": 0.08771925000000635,
          "durationTicks": 96,
          "midi": 82,
          "name": "A#5",
          "ticks": 102816,
          "time": 93.94731675,
          "velocity": 0.3937007874015748
        },
        {
          "duration": 0.08771925000000635,
          "durationTicks": 96,
          "midi": 74,
          "name": "D5",
          "ticks": 102816,
          "time": 93.94731675,
          "velocity": 0.3937007874015748
        },
        {
          "duration": 0.5263155000000097,
          "durationTicks": 576,
          "midi": 72,
          "name": "C5",
          "ticks": 103200,
          "time": 94.29819375,
          "velocity": 0.11811023622047244
        },
        {
          "duration": 0.5263155000000097,
          "durationTicks": 576,
          "midi": 79,
          "name": "G5",
          "ticks": 103200,
          "time": 94.29819375,
          "velocity": 0.3937007874015748
        },
        {
          "duration": 0.5263154999999955,
          "durationTicks": 576,
          "midi": 70,
          "name": "A#4",
          "ticks": 103968,
          "time": 94.99994775,
          "velocity": 0.07874015748031496
        },
        {
          "duration": 0.5263154999999955,
          "durationTicks": 576,
          "midi": 77,
          "name": "F5",
          "ticks": 103968,
          "time": 94.99994775,
          "velocity": 0.3937007874015748
        },
        {
          "duration": 0.08771925000000635,
          "durationTicks": 96,
          "midi": 70,
          "name": "A#4",
          "ticks": 104736,
          "time": 95.70170175,
          "velocity": 0.3937007874015748
        },
        {
          "duration": 0.08771925000000635,
          "durationTicks": 96,
          "midi": 62,
          "name": "D4",
          "ticks": 104736,
          "time": 95.70170175,
          "velocity": 0.3937007874015748
        },
        {
          "duration": 0.08771925000000635,
          "durationTicks": 96,
          "midi": 62,
          "name": "D4",
          "ticks": 104928,
          "time": 95.87714025,
          "velocity": 0.3937007874015748
        },
        {
          "duration": 0.08771925000000635,
          "durationTicks": 96,
          "midi": 70,
          "name": "A#4",
          "ticks": 104928,
          "time": 95.87714025,
          "velocity": 0.3937007874015748
        },
        {
          "duration": 0.08771925000000635,
          "durationTicks": 96,
          "midi": 70,
          "name": "A#4",
          "ticks": 105120,
          "time": 96.05257875,
          "velocity": 0.3937007874015748
        },
        {
          "duration": 0.08771925000000635,
          "durationTicks": 96,
          "midi": 62,
          "name": "D4",
          "ticks": 105120,
          "time": 96.05257875,
          "velocity": 0.3937007874015748
        },
        {
          "duration": 0.08771925000000635,
          "durationTicks": 96,
          "midi": 63,
          "name": "D#4",
          "ticks": 105312,
          "time": 96.22801725,
          "velocity": 0.3937007874015748
        },
        {
          "duration": 0.08771925000000635,
          "durationTicks": 96,
          "midi": 72,
          "name": "C5",
          "ticks": 105312,
          "time": 96.22801725,
          "velocity": 0.3937007874015748
        },
        {
          "duration": 0.08771925000000635,
          "durationTicks": 96,
          "midi": 74,
          "name": "D5",
          "ticks": 105504,
          "time": 96.40345574999999,
          "velocity": 0.3937007874015748
        },
        {
          "duration": 0.08771925000000635,
          "durationTicks": 96,
          "midi": 65,
          "name": "F4",
          "ticks": 105504,
          "time": 96.40345574999999,
          "velocity": 0.3937007874015748
        },
        {
          "duration": 0.08771924999999214,
          "durationTicks": 96,
          "midi": 62,
          "name": "D4",
          "ticks": 105888,
          "time": 96.75433275,
          "velocity": 0.3937007874015748
        },
        {
          "duration": 0.08771924999999214,
          "durationTicks": 96,
          "midi": 70,
          "name": "A#4",
          "ticks": 105888,
          "time": 96.75433275,
          "velocity": 0.3937007874015748
        },
        {
          "duration": 0.08771924999999214,
          "durationTicks": 96,
          "midi": 63,
          "name": "D#4",
          "ticks": 106272,
          "time": 97.10520975,
          "velocity": 0.3937007874015748
        },
        {
          "duration": 0.08771924999999214,
          "durationTicks": 96,
          "midi": 72,
          "name": "C5",
          "ticks": 106272,
          "time": 97.10520975,
          "velocity": 0.3937007874015748
        },
        {
          "duration": 0.08771925000000635,
          "durationTicks": 96,
          "midi": 72,
          "name": "C5",
          "ticks": 106464,
          "time": 97.28064825,
          "velocity": 0.3937007874015748
        },
        {
          "duration": 0.08771925000000635,
          "durationTicks": 96,
          "midi": 63,
          "name": "D#4",
          "ticks": 106464,
          "time": 97.28064825,
          "velocity": 0.3937007874015748
        },
        {
          "duration": 0.08771925000000635,
          "durationTicks": 96,
          "midi": 63,
          "name": "D#4",
          "ticks": 106656,
          "time": 97.45608675,
          "velocity": 0.3937007874015748
        },
        {
          "duration": 0.08771925000000635,
          "durationTicks": 96,
          "midi": 72,
          "name": "C5",
          "ticks": 106656,
          "time": 97.45608675,
          "velocity": 0.3937007874015748
        },
        {
          "duration": 0.08771925000000635,
          "durationTicks": 96,
          "midi": 74,
          "name": "D5",
          "ticks": 106848,
          "time": 97.63152525,
          "velocity": 0.3937007874015748
        },
        {
          "duration": 0.08771925000000635,
          "durationTicks": 96,
          "midi": 65,
          "name": "F4",
          "ticks": 106848,
          "time": 97.63152525,
          "velocity": 0.3937007874015748
        },
        {
          "duration": 0.08771925000000635,
          "durationTicks": 96,
          "midi": 72,
          "name": "C5",
          "ticks": 107040,
          "time": 97.80696375,
          "velocity": 0.3937007874015748
        },
        {
          "duration": 0.08771925000000635,
          "durationTicks": 96,
          "midi": 63,
          "name": "D#4",
          "ticks": 107040,
          "time": 97.80696375,
          "velocity": 0.3937007874015748
        },
        {
          "duration": 0.08771924999999214,
          "durationTicks": 96,
          "midi": 62,
          "name": "D4",
          "ticks": 107424,
          "time": 98.15784075,
          "velocity": 0.3937007874015748
        },
        {
          "duration": 0.08771924999999214,
          "durationTicks": 96,
          "midi": 70,
          "name": "A#4",
          "ticks": 107424,
          "time": 98.15784075,
          "velocity": 0.3937007874015748
        },
        {
          "duration": 0.08771924999999214,
          "durationTicks": 96,
          "midi": 74,
          "name": "D5",
          "ticks": 107808,
          "time": 98.50871775,
          "velocity": 0.3937007874015748
        },
        {
          "duration": 0.08771924999999214,
          "durationTicks": 96,
          "midi": 63,
          "name": "D#4",
          "ticks": 107808,
          "time": 98.50871775,
          "velocity": 0.3937007874015748
        },
        {
          "duration": 0.08771924999999214,
          "durationTicks": 96,
          "midi": 74,
          "name": "D5",
          "ticks": 108192,
          "time": 98.85959475,
          "velocity": 0.3937007874015748
        },
        {
          "duration": 0.08771924999999214,
          "durationTicks": 96,
          "midi": 63,
          "name": "D#4",
          "ticks": 108192,
          "time": 98.85959475,
          "velocity": 0.3937007874015748
        },
        {
          "duration": 0.08771925000000635,
          "durationTicks": 96,
          "midi": 89,
          "name": "F6",
          "ticks": 108384,
          "time": 99.03503325,
          "velocity": 0.3937007874015748
        },
        {
          "duration": 0.08771925000000635,
          "durationTicks": 96,
          "midi": 75,
          "name": "D#5",
          "ticks": 108384,
          "time": 99.03503325,
          "velocity": 0.3937007874015748
        },
        {
          "duration": 0.08771925000000635,
          "durationTicks": 96,
          "midi": 65,
          "name": "F4",
          "ticks": 108384,
          "time": 99.03503325,
          "velocity": 0.3937007874015748
        },
        {
          "duration": 0.08771925000000635,
          "durationTicks": 96,
          "midi": 67,
          "name": "G4",
          "ticks": 108576,
          "time": 99.21047175,
          "velocity": 0.3937007874015748
        },
        {
          "duration": 0.08771925000000635,
          "durationTicks": 96,
          "midi": 91,
          "name": "G6",
          "ticks": 108576,
          "time": 99.21047175,
          "velocity": 0.3937007874015748
        },
        {
          "duration": 0.08771925000000635,
          "durationTicks": 96,
          "midi": 77,
          "name": "F5",
          "ticks": 108576,
          "time": 99.21047175,
          "velocity": 0.3937007874015748
        },
        {
          "duration": 0.08771925000000635,
          "durationTicks": 96,
          "midi": 74,
          "name": "D5",
          "ticks": 108960,
          "time": 99.56134875,
          "velocity": 0.3937007874015748
        },
        {
          "duration": 0.08771925000000635,
          "durationTicks": 96,
          "midi": 82,
          "name": "A#5",
          "ticks": 108960,
          "time": 99.56134875,
          "velocity": 0.3937007874015748
        },
        {
          "duration": 0.5263154999999955,
          "durationTicks": 576,
          "midi": 72,
          "name": "C5",
          "ticks": 109344,
          "time": 99.91222575,
          "velocity": 0.07874015748031496
        },
        {
          "duration": 0.5263154999999955,
          "durationTicks": 576,
          "midi": 79,
          "name": "G5",
          "ticks": 109344,
          "time": 99.91222575,
          "velocity": 0.3937007874015748
        },
        {
          "duration": 0.5263154999999955,
          "durationTicks": 576,
          "midi": 77,
          "name": "F5",
          "ticks": 110112,
          "time": 100.61397975,
          "velocity": 0.3937007874015748
        },
        {
          "duration": 0.5263154999999955,
          "durationTicks": 576,
          "midi": 70,
          "name": "A#4",
          "ticks": 110112,
          "time": 100.61397975,
          "velocity": 0.11811023622047244
        },
        {
          "duration": 0.08771925000000635,
          "durationTicks": 96,
          "midi": 62,
          "name": "D4",
          "ticks": 110880,
          "time": 101.31573374999999,
          "velocity": 0.3937007874015748
        },
        {
          "duration": 0.08771925000000635,
          "durationTicks": 96,
          "midi": 70,
          "name": "A#4",
          "ticks": 110880,
          "time": 101.31573374999999,
          "velocity": 0.3937007874015748
        },
        {
          "duration": 0.08771924999999214,
          "durationTicks": 96,
          "midi": 62,
          "name": "D4",
          "ticks": 111264,
          "time": 101.66661075,
          "velocity": 0.3937007874015748
        },
        {
          "duration": 0.08771924999999214,
          "durationTicks": 96,
          "midi": 70,
          "name": "A#4",
          "ticks": 111264,
          "time": 101.66661075,
          "velocity": 0.3937007874015748
        },
        {
          "duration": 0.08771924999999214,
          "durationTicks": 96,
          "midi": 63,
          "name": "D#4",
          "ticks": 111456,
          "time": 101.84204925,
          "velocity": 0.3937007874015748
        },
        {
          "duration": 0.08771924999999214,
          "durationTicks": 96,
          "midi": 72,
          "name": "C5",
          "ticks": 111456,
          "time": 101.84204925,
          "velocity": 0.3937007874015748
        },
        {
          "duration": 0.08771924999999214,
          "durationTicks": 96,
          "midi": 65,
          "name": "F4",
          "ticks": 111648,
          "time": 102.01748775,
          "velocity": 0.3937007874015748
        },
        {
          "duration": 0.08771924999999214,
          "durationTicks": 96,
          "midi": 74,
          "name": "D5",
          "ticks": 111648,
          "time": 102.01748775,
          "velocity": 0.3937007874015748
        },
        {
          "duration": 0.08771925000000635,
          "durationTicks": 96,
          "midi": 62,
          "name": "D4",
          "ticks": 112032,
          "time": 102.36836475,
          "velocity": 0.3937007874015748
        },
        {
          "duration": 0.08771925000000635,
          "durationTicks": 96,
          "midi": 70,
          "name": "A#4",
          "ticks": 112032,
          "time": 102.36836475,
          "velocity": 0.3937007874015748
        },
        {
          "duration": 0.08771925000000635,
          "durationTicks": 96,
          "midi": 72,
          "name": "C5",
          "ticks": 112416,
          "time": 102.71924175,
          "velocity": 0.3937007874015748
        },
        {
          "duration": 0.08771925000000635,
          "durationTicks": 96,
          "midi": 63,
          "name": "D#4",
          "ticks": 112416,
          "time": 102.71924175,
          "velocity": 0.3937007874015748
        },
        {
          "duration": 0.08771925000000635,
          "durationTicks": 96,
          "midi": 72,
          "name": "C5",
          "ticks": 112800,
          "time": 103.07011874999999,
          "velocity": 0.3937007874015748
        },
        {
          "duration": 0.08771925000000635,
          "durationTicks": 96,
          "midi": 63,
          "name": "D#4",
          "ticks": 112800,
          "time": 103.07011874999999,
          "velocity": 0.3937007874015748
        },
        {
          "duration": 0.08771924999999214,
          "durationTicks": 96,
          "midi": 65,
          "name": "F4",
          "ticks": 112992,
          "time": 103.24555725,
          "velocity": 0.3937007874015748
        },
        {
          "duration": 0.08771924999999214,
          "durationTicks": 96,
          "midi": 74,
          "name": "D5",
          "ticks": 112992,
          "time": 103.24555725,
          "velocity": 0.3937007874015748
        },
        {
          "duration": 0.08771924999999214,
          "durationTicks": 96,
          "midi": 63,
          "name": "D#4",
          "ticks": 113184,
          "time": 103.42099575,
          "velocity": 0.3937007874015748
        },
        {
          "duration": 0.08771924999999214,
          "durationTicks": 96,
          "midi": 72,
          "name": "C5",
          "ticks": 113184,
          "time": 103.42099575,
          "velocity": 0.3937007874015748
        },
        {
          "duration": 0.08771924999999214,
          "durationTicks": 96,
          "midi": 70,
          "name": "A#4",
          "ticks": 113568,
          "time": 103.77187275,
          "velocity": 0.3937007874015748
        },
        {
          "duration": 0.08771924999999214,
          "durationTicks": 96,
          "midi": 62,
          "name": "D4",
          "ticks": 113568,
          "time": 103.77187275,
          "velocity": 0.3937007874015748
        },
        {
          "duration": 0.08771925000000635,
          "durationTicks": 96,
          "midi": 74,
          "name": "D5",
          "ticks": 113952,
          "time": 104.12274975,
          "velocity": 0.3937007874015748
        },
        {
          "duration": 0.08771925000000635,
          "durationTicks": 96,
          "midi": 65,
          "name": "F4",
          "ticks": 113952,
          "time": 104.12274975,
          "velocity": 0.3937007874015748
        },
        {
          "duration": 0.08771925000000635,
          "durationTicks": 96,
          "midi": 65,
          "name": "F4",
          "ticks": 114336,
          "time": 104.47362675,
          "velocity": 0.3937007874015748
        },
        {
          "duration": 0.08771925000000635,
          "durationTicks": 96,
          "midi": 74,
          "name": "D5",
          "ticks": 114336,
          "time": 104.47362675,
          "velocity": 0.3937007874015748
        },
        {
          "duration": 0.08771925000000635,
          "durationTicks": 96,
          "midi": 75,
          "name": "D#5",
          "ticks": 114528,
          "time": 104.64906524999999,
          "velocity": 0.3937007874015748
        },
        {
          "duration": 0.08771925000000635,
          "durationTicks": 96,
          "midi": 67,
          "name": "G4",
          "ticks": 114528,
          "time": 104.64906524999999,
          "velocity": 0.3937007874015748
        },
        {
          "duration": 0.08771924999999214,
          "durationTicks": 96,
          "midi": 69,
          "name": "A4",
          "ticks": 114720,
          "time": 104.82450375,
          "velocity": 0.3937007874015748
        },
        {
          "duration": 0.08771924999999214,
          "durationTicks": 96,
          "midi": 77,
          "name": "F5",
          "ticks": 114720,
          "time": 104.82450375,
          "velocity": 0.3937007874015748
        },
        {
          "duration": 0.08771924999999214,
          "durationTicks": 96,
          "midi": 74,
          "name": "D5",
          "ticks": 115104,
          "time": 105.17538075,
          "velocity": 0.3937007874015748
        },
        {
          "duration": 0.08771924999999214,
          "durationTicks": 96,
          "midi": 82,
          "name": "A#5",
          "ticks": 115104,
          "time": 105.17538075,
          "velocity": 0.3937007874015748
        },
        {
          "duration": 0.5263154999999955,
          "durationTicks": 576,
          "midi": 79,
          "name": "G5",
          "ticks": 115488,
          "time": 105.52625775,
          "velocity": 0.3937007874015748
        },
        {
          "duration": 0.5263154999999955,
          "durationTicks": 576,
          "midi": 72,
          "name": "C5",
          "ticks": 115488,
          "time": 105.52625775,
          "velocity": 0.11811023622047244
        },
        {
          "duration": 0.5263155000000097,
          "durationTicks": 576,
          "midi": 70,
          "name": "A#4",
          "ticks": 116256,
          "time": 106.22801175,
          "velocity": 0.07874015748031496
        },
        {
          "duration": 0.5263155000000097,
          "durationTicks": 576,
          "midi": 77,
          "name": "F5",
          "ticks": 116256,
          "time": 106.22801175,
          "velocity": 0.3937007874015748
        },
        {
          "duration": 0.08771924999999214,
          "durationTicks": 96,
          "midi": 62,
          "name": "D4",
          "ticks": 117024,
          "time": 106.92976575,
          "velocity": 0.3937007874015748
        },
        {
          "duration": 0.08771924999999214,
          "durationTicks": 96,
          "midi": 70,
          "name": "A#4",
          "ticks": 117024,
          "time": 106.92976575,
          "velocity": 0.3937007874015748
        },
        {
          "duration": 0.08771924999999214,
          "durationTicks": 96,
          "midi": 62,
          "name": "D4",
          "ticks": 117216,
          "time": 107.10520425,
          "velocity": 0.3937007874015748
        },
        {
          "duration": 0.08771924999999214,
          "durationTicks": 96,
          "midi": 70,
          "name": "A#4",
          "ticks": 117216,
          "time": 107.10520425,
          "velocity": 0.3937007874015748
        },
        {
          "duration": 0.08771925000000635,
          "durationTicks": 96,
          "midi": 62,
          "name": "D4",
          "ticks": 117408,
          "time": 107.28064275,
          "velocity": 0.3937007874015748
        },
        {
          "duration": 0.08771925000000635,
          "durationTicks": 96,
          "midi": 70,
          "name": "A#4",
          "ticks": 117408,
          "time": 107.28064275,
          "velocity": 0.3937007874015748
        },
        {
          "duration": 0.08771925000000635,
          "durationTicks": 96,
          "midi": 63,
          "name": "D#4",
          "ticks": 117600,
          "time": 107.45608125,
          "velocity": 0.3937007874015748
        },
        {
          "duration": 0.08771925000000635,
          "durationTicks": 96,
          "midi": 72,
          "name": "C5",
          "ticks": 117600,
          "time": 107.45608125,
          "velocity": 0.3937007874015748
        },
        {
          "duration": 0.08771925000000635,
          "durationTicks": 96,
          "midi": 74,
          "name": "D5",
          "ticks": 117792,
          "time": 107.63151975,
          "velocity": 0.3937007874015748
        },
        {
          "duration": 0.08771925000000635,
          "durationTicks": 96,
          "midi": 65,
          "name": "F4",
          "ticks": 117792,
          "time": 107.63151975,
          "velocity": 0.3937007874015748
        },
        {
          "duration": 0.08771925000000635,
          "durationTicks": 96,
          "midi": 70,
          "name": "A#4",
          "ticks": 118176,
          "time": 107.98239674999999,
          "velocity": 0.3937007874015748
        },
        {
          "duration": 0.08771925000000635,
          "durationTicks": 96,
          "midi": 62,
          "name": "D4",
          "ticks": 118176,
          "time": 107.98239674999999,
          "velocity": 0.3937007874015748
        },
        {
          "duration": 0.08771924999999214,
          "durationTicks": 96,
          "midi": 72,
          "name": "C5",
          "ticks": 118560,
          "time": 108.33327375,
          "velocity": 0.3937007874015748
        },
        {
          "duration": 0.08771924999999214,
          "durationTicks": 96,
          "midi": 63,
          "name": "D#4",
          "ticks": 118560,
          "time": 108.33327375,
          "velocity": 0.3937007874015748
        },
        {
          "duration": 0.08771924999999214,
          "durationTicks": 96,
          "midi": 72,
          "name": "C5",
          "ticks": 118752,
          "time": 108.50871225,
          "velocity": 0.3937007874015748
        },
        {
          "duration": 0.08771924999999214,
          "durationTicks": 96,
          "midi": 63,
          "name": "D#4",
          "ticks": 118752,
          "time": 108.50871225,
          "velocity": 0.3937007874015748
        },
        {
          "duration": 0.08771924999999214,
          "durationTicks": 96,
          "midi": 72,
          "name": "C5",
          "ticks": 118944,
          "time": 108.68415075,
          "velocity": 0.3937007874015748
        },
        {
          "duration": 0.08771924999999214,
          "durationTicks": 96,
          "midi": 63,
          "name": "D#4",
          "ticks": 118944,
          "time": 108.68415075,
          "velocity": 0.3937007874015748
        },
        {
          "duration": 0.08771924999999214,
          "durationTicks": 96,
          "midi": 74,
          "name": "D5",
          "ticks": 119136,
          "time": 108.85958925,
          "velocity": 0.3937007874015748
        },
        {
          "duration": 0.08771924999999214,
          "durationTicks": 96,
          "midi": 65,
          "name": "F4",
          "ticks": 119136,
          "time": 108.85958925,
          "velocity": 0.3937007874015748
        },
        {
          "duration": 0.08771925000000635,
          "durationTicks": 96,
          "midi": 72,
          "name": "C5",
          "ticks": 119328,
          "time": 109.03502775,
          "velocity": 0.3937007874015748
        },
        {
          "duration": 0.08771925000000635,
          "durationTicks": 96,
          "midi": 63,
          "name": "D#4",
          "ticks": 119328,
          "time": 109.03502775,
          "velocity": 0.3937007874015748
        },
        {
          "duration": 0.08771925000000635,
          "durationTicks": 96,
          "midi": 62,
          "name": "D4",
          "ticks": 119712,
          "time": 109.38590475,
          "velocity": 0.3937007874015748
        },
        {
          "duration": 0.08771925000000635,
          "durationTicks": 96,
          "midi": 70,
          "name": "A#4",
          "ticks": 119712,
          "time": 109.38590475,
          "velocity": 0.3937007874015748
        },
        {
          "duration": 0.08771925000000635,
          "durationTicks": 96,
          "midi": 74,
          "name": "D5",
          "ticks": 120096,
          "time": 109.73678174999999,
          "velocity": 0.3937007874015748
        },
        {
          "duration": 0.08771925000000635,
          "durationTicks": 96,
          "midi": 65,
          "name": "F4",
          "ticks": 120096,
          "time": 109.73678174999999,
          "velocity": 0.3937007874015748
        },
        {
          "duration": 0.08771924999999214,
          "durationTicks": 96,
          "midi": 65,
          "name": "F4",
          "ticks": 120480,
          "time": 110.08765875,
          "velocity": 0.3937007874015748
        },
        {
          "duration": 0.08771924999999214,
          "durationTicks": 96,
          "midi": 74,
          "name": "D5",
          "ticks": 120480,
          "time": 110.08765875,
          "velocity": 0.3937007874015748
        },
        {
          "duration": 0.08771924999999214,
          "durationTicks": 96,
          "midi": 67,
          "name": "G4",
          "ticks": 120672,
          "time": 110.26309725,
          "velocity": 0.3937007874015748
        },
        {
          "duration": 0.08771924999999214,
          "durationTicks": 96,
          "midi": 75,
          "name": "D#5",
          "ticks": 120672,
          "time": 110.26309725,
          "velocity": 0.3937007874015748
        },
        {
          "duration": 0.08771924999999214,
          "durationTicks": 96,
          "midi": 89,
          "name": "F6",
          "ticks": 120672,
          "time": 110.26309725,
          "velocity": 0.3937007874015748
        },
        {
          "duration": 0.08771924999999214,
          "durationTicks": 96,
          "midi": 77,
          "name": "F5",
          "ticks": 120864,
          "time": 110.43853575,
          "velocity": 0.3937007874015748
        },
        {
          "duration": 0.08771924999999214,
          "durationTicks": 96,
          "midi": 69,
          "name": "A4",
          "ticks": 120864,
          "time": 110.43853575,
          "velocity": 0.3937007874015748
        },
        {
          "duration": 0.08771924999999214,
          "durationTicks": 96,
          "midi": 91,
          "name": "G6",
          "ticks": 120864,
          "time": 110.43853575,
          "velocity": 0.3937007874015748
        },
        {
          "duration": 0.08771925000000635,
          "durationTicks": 96,
          "midi": 82,
          "name": "A#5",
          "ticks": 121248,
          "time": 110.78941275,
          "velocity": 0.3937007874015748
        },
        {
          "duration": 0.08771925000000635,
          "durationTicks": 96,
          "midi": 74,
          "name": "D5",
          "ticks": 121248,
          "time": 110.78941275,
          "velocity": 0.3937007874015748
        },
        {
          "duration": 0.5263155000000097,
          "durationTicks": 576,
          "midi": 72,
          "name": "C5",
          "ticks": 121632,
          "time": 111.14028975,
          "velocity": 0.15748031496062992
        },
        {
          "duration": 0.5263155000000097,
          "durationTicks": 576,
          "midi": 79,
          "name": "G5",
          "ticks": 121632,
          "time": 111.14028975,
          "velocity": 0.3937007874015748
        },
        {
          "duration": 0.5263154999999955,
          "durationTicks": 576,
          "midi": 70,
          "name": "A#4",
          "ticks": 122400,
          "time": 111.84204375,
          "velocity": 0.3937007874015748
        },
        {
          "duration": 0.26315775000000485,
          "durationTicks": 288,
          "midi": 66,
          "name": "F#4",
          "ticks": 148128,
          "time": 135.35080274999999,
          "velocity": 0.3937007874015748
        },
        {
          "duration": 0.08771924999999214,
          "durationTicks": 96,
          "midi": 66,
          "name": "F#4",
          "ticks": 148512,
          "time": 135.70167975,
          "velocity": 0.3937007874015748
        },
        {
          "duration": 0.08771924999999214,
          "durationTicks": 96,
          "midi": 66,
          "name": "F#4",
          "ticks": 148704,
          "time": 135.87711825,
          "velocity": 0.3937007874015748
        },
        {
          "duration": 0.26315775000000485,
          "durationTicks": 288,
          "midi": 66,
          "name": "F#4",
          "ticks": 149088,
          "time": 136.22799525,
          "velocity": 0.3937007874015748
        },
        {
          "duration": 0.08771925000002057,
          "durationTicks": 96,
          "midi": 66,
          "name": "F#4",
          "ticks": 149472,
          "time": 136.57887225,
          "velocity": 0.3937007874015748
        },
        {
          "duration": 0.26315775000000485,
          "durationTicks": 288,
          "midi": 64,
          "name": "E4",
          "ticks": 149664,
          "time": 136.75431075,
          "velocity": 0.3937007874015748
        },
        {
          "duration": 0.26315775000000485,
          "durationTicks": 288,
          "midi": 63,
          "name": "D#4",
          "ticks": 150048,
          "time": 137.10518775,
          "velocity": 0.3937007874015748
        },
        {
          "duration": 0.26315775000000485,
          "durationTicks": 288,
          "midi": 64,
          "name": "E4",
          "ticks": 150432,
          "time": 137.45606475,
          "velocity": 0.3937007874015748
        },
        {
          "duration": 0.6140347500000018,
          "durationTicks": 672,
          "midi": 66,
          "name": "F#4",
          "ticks": 150816,
          "time": 137.80694175,
          "velocity": 0.3937007874015748
        },
        {
          "duration": 0.6140347500000018,
          "durationTicks": 672,
          "midi": 71,
          "name": "B4",
          "ticks": 151584,
          "time": 138.50869575,
          "velocity": 0.3937007874015748
        },
        {
          "duration": 0.6140347500000018,
          "durationTicks": 672,
          "midi": 66,
          "name": "F#4",
          "ticks": 152352,
          "time": 139.21044975,
          "velocity": 0.3937007874015748
        },
        {
          "duration": 0.26315775000000485,
          "durationTicks": 288,
          "midi": 66,
          "name": "F#4",
          "ticks": 154368,
          "time": 141.052554,
          "velocity": 0.3937007874015748
        },
        {
          "duration": 0.08771924999999214,
          "durationTicks": 96,
          "midi": 66,
          "name": "F#4",
          "ticks": 154752,
          "time": 141.403431,
          "velocity": 0.3937007874015748
        },
        {
          "duration": 0.08771924999999214,
          "durationTicks": 96,
          "midi": 66,
          "name": "F#4",
          "ticks": 154944,
          "time": 141.5788695,
          "velocity": 0.3937007874015748
        },
        {
          "duration": 0.26315775000000485,
          "durationTicks": 288,
          "midi": 66,
          "name": "F#4",
          "ticks": 155328,
          "time": 141.9297465,
          "velocity": 0.3937007874015748
        },
        {
          "duration": 0.08771925000002057,
          "durationTicks": 96,
          "midi": 66,
          "name": "F#4",
          "ticks": 155712,
          "time": 142.2806235,
          "velocity": 0.3937007874015748
        },
        {
          "duration": 0.26315775000000485,
          "durationTicks": 288,
          "midi": 64,
          "name": "E4",
          "ticks": 155904,
          "time": 142.456062,
          "velocity": 0.3937007874015748
        },
        {
          "duration": 0.26315775000000485,
          "durationTicks": 288,
          "midi": 63,
          "name": "D#4",
          "ticks": 156288,
          "time": 142.806939,
          "velocity": 0.3937007874015748
        },
        {
          "duration": 0.350876999999997,
          "durationTicks": 384,
          "midi": 64,
          "name": "E4",
          "ticks": 156672,
          "time": 143.157816,
          "velocity": 0.3937007874015748
        },
        {
          "duration": 0.350876999999997,
          "durationTicks": 384,
          "midi": 66,
          "name": "F#4",
          "ticks": 157056,
          "time": 143.508693,
          "velocity": 0.3937007874015748
        },
        {
          "duration": 0.350876999999997,
          "durationTicks": 384,
          "midi": 61,
          "name": "C#4",
          "ticks": 157440,
          "time": 143.85957,
          "velocity": 0.3937007874015748
        },
        {
          "duration": 0.350876999999997,
          "durationTicks": 384,
          "midi": 58,
          "name": "A#3",
          "ticks": 157824,
          "time": 144.210447,
          "velocity": 0.3937007874015748
        },
        {
          "duration": 1.2280695000000037,
          "durationTicks": 1344,
          "midi": 59,
          "name": "B3",
          "ticks": 158208,
          "time": 144.56132399999998,
          "velocity": 0.3937007874015748
        },
        {
          "duration": 0.26315775000000485,
          "durationTicks": 288,
          "midi": 54,
          "name": "F#3",
          "ticks": 184800,
          "time": 168.85955625,
          "velocity": 0.3937007874015748
        },
        {
          "duration": 0.08771924999999214,
          "durationTicks": 96,
          "midi": 75,
          "name": "D#5",
          "ticks": 184800,
          "time": 168.85955625,
          "velocity": 0.2755905511811024
        },
        {
          "duration": 0.26315775000000485,
          "durationTicks": 288,
          "midi": 59,
          "name": "B3",
          "ticks": 184800,
          "time": 168.85955625,
          "velocity": 0.3937007874015748
        },
        {
          "duration": 0.26315775000000485,
          "durationTicks": 288,
          "midi": 63,
          "name": "D#4",
          "ticks": 184800,
          "time": 168.85955625,
          "velocity": 0.3937007874015748
        },
        {
          "duration": 0.08771924999999214,
          "durationTicks": 96,
          "midi": 80,
          "name": "G#5",
          "ticks": 184992,
          "time": 169.03499475,
          "velocity": 0.2755905511811024
        },
        {
          "duration": 0.26315775000000485,
          "durationTicks": 288,
          "midi": 59,
          "name": "B3",
          "ticks": 185184,
          "time": 169.21043325,
          "velocity": 0.3937007874015748
        },
        {
          "duration": 0.08771924999999214,
          "durationTicks": 96,
          "midi": 71,
          "name": "B4",
          "ticks": 185184,
          "time": 169.21043325,
          "velocity": 0.2755905511811024
        },
        {
          "duration": 0.26315775000000485,
          "durationTicks": 288,
          "midi": 54,
          "name": "F#3",
          "ticks": 185184,
          "time": 169.21043325,
          "velocity": 0.3937007874015748
        },
        {
          "duration": 0.26315775000000485,
          "durationTicks": 288,
          "midi": 63,
          "name": "D#4",
          "ticks": 185184,
          "time": 169.21043325,
          "velocity": 0.3937007874015748
        },
        {
          "duration": 0.08771924999999214,
          "durationTicks": 96,
          "midi": 80,
          "name": "G#5",
          "ticks": 185376,
          "time": 169.38587175,
          "velocity": 0.2755905511811024
        },
        {
          "duration": 0.08771924999999214,
          "durationTicks": 96,
          "midi": 63,
          "name": "D#4",
          "ticks": 185568,
          "time": 169.56131025,
          "velocity": 0.3937007874015748
        },
        {
          "duration": 0.08771924999999214,
          "durationTicks": 96,
          "midi": 54,
          "name": "F#3",
          "ticks": 185568,
          "time": 169.56131025,
          "velocity": 0.3937007874015748
        },
        {
          "duration": 0.08771924999999214,
          "durationTicks": 96,
          "midi": 59,
          "name": "B3",
          "ticks": 185568,
          "time": 169.56131025,
          "velocity": 0.3937007874015748
        },
        {
          "duration": 0.08771924999999214,
          "durationTicks": 96,
          "midi": 73,
          "name": "C#5",
          "ticks": 185568,
          "time": 169.56131025,
          "velocity": 0.2755905511811024
        },
        {
          "duration": 0.26315775000000485,
          "durationTicks": 288,
          "midi": 59,
          "name": "B3",
          "ticks": 185760,
          "time": 169.73674875,
          "velocity": 0.3937007874015748
        },
        {
          "duration": 0.26315775000000485,
          "durationTicks": 288,
          "midi": 63,
          "name": "D#4",
          "ticks": 185760,
          "time": 169.73674875,
          "velocity": 0.3937007874015748
        },
        {
          "duration": 0.08771924999999214,
          "durationTicks": 96,
          "midi": 80,
          "name": "G#5",
          "ticks": 185760,
          "time": 169.73674875,
          "velocity": 0.2755905511811024
        },
        {
          "duration": 0.26315775000000485,
          "durationTicks": 288,
          "midi": 54,
          "name": "F#3",
          "ticks": 185760,
          "time": 169.73674875,
          "velocity": 0.3937007874015748
        },
        {
          "duration": 0.08771925000002057,
          "durationTicks": 96,
          "midi": 71,
          "name": "B4",
          "ticks": 185952,
          "time": 169.91218725,
          "velocity": 0.2755905511811024
        },
        {
          "duration": 0.26315775000000485,
          "durationTicks": 288,
          "midi": 54,
          "name": "F#3",
          "ticks": 186144,
          "time": 170.08762575,
          "velocity": 0.3937007874015748
        },
        {
          "duration": 0.26315775000000485,
          "durationTicks": 288,
          "midi": 63,
          "name": "D#4",
          "ticks": 186144,
          "time": 170.08762575,
          "velocity": 0.3937007874015748
        },
        {
          "duration": 0.26315775000000485,
          "durationTicks": 288,
          "midi": 59,
          "name": "B3",
          "ticks": 186144,
          "time": 170.08762575,
          "velocity": 0.3937007874015748
        },
        {
          "duration": 0.08771924999999214,
          "durationTicks": 96,
          "midi": 80,
          "name": "G#5",
          "ticks": 186144,
          "time": 170.08762575,
          "velocity": 0.2755905511811024
        },
        {
          "duration": 0.08771925000002057,
          "durationTicks": 96,
          "midi": 75,
          "name": "D#5",
          "ticks": 186336,
          "time": 170.26306424999999,
          "velocity": 0.2755905511811024
        },
        {
          "duration": 0.08771924999999214,
          "durationTicks": 96,
          "midi": 80,
          "name": "G#5",
          "ticks": 186528,
          "time": 170.43850275,
          "velocity": 0.2755905511811024
        },
        {
          "duration": 0.08771924999999214,
          "durationTicks": 96,
          "midi": 63,
          "name": "D#4",
          "ticks": 186528,
          "time": 170.43850275,
          "velocity": 0.3937007874015748
        },
        {
          "duration": 0.08771924999999214,
          "durationTicks": 96,
          "midi": 59,
          "name": "B3",
          "ticks": 186528,
          "time": 170.43850275,
          "velocity": 0.3937007874015748
        },
        {
          "duration": 0.08771924999999214,
          "durationTicks": 96,
          "midi": 54,
          "name": "F#3",
          "ticks": 186528,
          "time": 170.43850275,
          "velocity": 0.3937007874015748
        },
        {
          "duration": 0.26315774999997643,
          "durationTicks": 288,
          "midi": 58,
          "name": "A#3",
          "ticks": 186720,
          "time": 170.61394125,
          "velocity": 0.3937007874015748
        },
        {
          "duration": 0.26315774999997643,
          "durationTicks": 288,
          "midi": 54,
          "name": "F#3",
          "ticks": 186720,
          "time": 170.61394125,
          "velocity": 0.3937007874015748
        },
        {
          "duration": 0.26315774999997643,
          "durationTicks": 288,
          "midi": 61,
          "name": "C#4",
          "ticks": 186720,
          "time": 170.61394125,
          "velocity": 0.3937007874015748
        },
        {
          "duration": 0.08771924999999214,
          "durationTicks": 96,
          "midi": 71,
          "name": "B4",
          "ticks": 186720,
          "time": 170.61394125,
          "velocity": 0.2755905511811024
        },
        {
          "duration": 0.08771924999999214,
          "durationTicks": 96,
          "midi": 80,
          "name": "G#5",
          "ticks": 186912,
          "time": 170.78937975,
          "velocity": 0.2755905511811024
        },
        {
          "duration": 0.1754385000000127,
          "durationTicks": 192,
          "midi": 49,
          "name": "C#3",
          "ticks": 186912,
          "time": 170.78937975,
          "velocity": 0.3937007874015748
        },
        {
          "duration": 0.26315774999997643,
          "durationTicks": 288,
          "midi": 59,
          "name": "B3",
          "ticks": 187104,
          "time": 170.96481825,
          "velocity": 0.3937007874015748
        },
        {
          "duration": 0.26315774999997643,
          "durationTicks": 288,
          "midi": 51,
          "name": "D#3",
          "ticks": 187104,
          "time": 170.96481825,
          "velocity": 0.3937007874015748
        },
        {
          "duration": 0.26315774999997643,
          "durationTicks": 288,
          "midi": 56,
          "name": "G#3",
          "ticks": 187104,
          "time": 170.96481825,
          "velocity": 0.3937007874015748
        },
        {
          "duration": 0.08771924999999214,
          "durationTicks": 96,
          "midi": 75,
          "name": "D#5",
          "ticks": 187104,
          "time": 170.96481825,
          "velocity": 0.2755905511811024
        },
        {
          "duration": 0.1754385000000127,
          "durationTicks": 192,
          "midi": 44,
          "name": "G#2",
          "ticks": 187296,
          "time": 171.14025675,
          "velocity": 0.3937007874015748
        },
        {
          "duration": 0.08771924999999214,
          "durationTicks": 96,
          "midi": 80,
          "name": "G#5",
          "ticks": 187296,
          "time": 171.14025675,
          "velocity": 0.2755905511811024
        },
        {
          "duration": 0.43859624999998914,
          "durationTicks": 480,
          "midi": 52,
          "name": "E3",
          "ticks": 187488,
          "time": 171.31569525,
          "velocity": 0.3937007874015748
        },
        {
          "duration": 0.43859624999998914,
          "durationTicks": 480,
          "midi": 47,
          "name": "B2",
          "ticks": 187488,
          "time": 171.31569525,
          "velocity": 0.3937007874015748
        },
        {
          "duration": 0.08771924999999214,
          "durationTicks": 96,
          "midi": 78,
          "name": "F#5",
          "ticks": 187488,
          "time": 171.31569525,
          "velocity": 0.2755905511811024
        },
        {
          "duration": 0.43859624999998914,
          "durationTicks": 480,
          "midi": 56,
          "name": "G#3",
          "ticks": 187488,
          "time": 171.31569525,
          "velocity": 0.3937007874015748
        },
        {
          "duration": 0.08771925000002057,
          "durationTicks": 96,
          "midi": 80,
          "name": "G#5",
          "ticks": 187680,
          "time": 171.49113375,
          "velocity": 0.2755905511811024
        },
        {
          "duration": 0.08771924999999214,
          "durationTicks": 96,
          "midi": 80,
          "name": "G#5",
          "ticks": 187872,
          "time": 171.66657225,
          "velocity": 0.2755905511811024
        },
        {
          "duration": 0.08771925000002057,
          "durationTicks": 96,
          "midi": 80,
          "name": "G#5",
          "ticks": 188064,
          "time": 171.84201075,
          "velocity": 0.2755905511811024
        },
        {
          "duration": 0.26315775000000485,
          "durationTicks": 288,
          "midi": 63,
          "name": "D#4",
          "ticks": 188256,
          "time": 172.01744925,
          "velocity": 0.3937007874015748
        },
        {
          "duration": 0.08771924999999214,
          "durationTicks": 96,
          "midi": 75,
          "name": "D#5",
          "ticks": 188256,
          "time": 172.01744925,
          "velocity": 0.2755905511811024
        },
        {
          "duration": 0.26315775000000485,
          "durationTicks": 288,
          "midi": 58,
          "name": "A#3",
          "ticks": 188256,
          "time": 172.01744925,
          "velocity": 0.3937007874015748
        },
        {
          "duration": 0.08771924999999214,
          "durationTicks": 96,
          "midi": 80,
          "name": "G#5",
          "ticks": 188448,
          "time": 172.19288775,
          "velocity": 0.2755905511811024
        },
        {
          "duration": 0.1754384999999843,
          "durationTicks": 192,
          "midi": 49,
          "name": "C#3",
          "ticks": 188544,
          "time": 172.280607,
          "velocity": 0.23622047244094488
        },
        {
          "duration": 0.08771924999999214,
          "durationTicks": 96,
          "midi": 63,
          "name": "D#4",
          "ticks": 188640,
          "time": 172.36832625,
          "velocity": 0.3937007874015748
        },
        {
          "duration": 0.08771924999999214,
          "durationTicks": 96,
          "midi": 58,
          "name": "A#3",
          "ticks": 188640,
          "time": 172.36832625,
          "velocity": 0.3937007874015748
        },
        {
          "duration": 0.08771924999999214,
          "durationTicks": 96,
          "midi": 78,
          "name": "F#5",
          "ticks": 188640,
          "time": 172.36832625,
          "velocity": 0.2755905511811024
        },
        {
          "duration": 0.1754385000000127,
          "durationTicks": 192,
          "midi": 51,
          "name": "D#3",
          "ticks": 188736,
          "time": 172.4560455,
          "velocity": 0.23622047244094488
        },
        {
          "duration": 0.08771924999999214,
          "durationTicks": 96,
          "midi": 80,
          "name": "G#5",
          "ticks": 188832,
          "time": 172.54376475,
          "velocity": 0.2755905511811024
        },
        {
          "duration": 0.1754384999999843,
          "durationTicks": 192,
          "midi": 58,
          "name": "A#3",
          "ticks": 188832,
          "time": 172.54376475,
          "velocity": 0.3937007874015748
        },
        {
          "duration": 0.1754384999999843,
          "durationTicks": 192,
          "midi": 63,
          "name": "D#4",
          "ticks": 188832,
          "time": 172.54376475,
          "velocity": 0.3937007874015748
        },
        {
          "duration": 0.1754384999999843,
          "durationTicks": 192,
          "midi": 54,
          "name": "F#3",
          "ticks": 188928,
          "time": 172.631484,
          "velocity": 0.23622047244094488
        },
        {
          "duration": 0.08771924999999214,
          "durationTicks": 96,
          "midi": 73,
          "name": "C#5",
          "ticks": 189024,
          "time": 172.71920325,
          "velocity": 0.2755905511811024
        },
        {
          "duration": 0.1754385000000127,
          "durationTicks": 192,
          "midi": 49,
          "name": "C#3",
          "ticks": 189120,
          "time": 172.80692249999998,
          "velocity": 0.23622047244094488
        },
        {
          "duration": 0.26315775000000485,
          "durationTicks": 288,
          "midi": 63,
          "name": "D#4",
          "ticks": 189216,
          "time": 172.89464175,
          "velocity": 0.3937007874015748
        },
        {
          "duration": 0.08771924999999214,
          "durationTicks": 96,
          "midi": 80,
          "name": "G#5",
          "ticks": 189216,
          "time": 172.89464175,
          "velocity": 0.2755905511811024
        },
        {
          "duration": 0.26315775000000485,
          "durationTicks": 288,
          "midi": 58,
          "name": "A#3",
          "ticks": 189216,
          "time": 172.89464175,
          "velocity": 0.3937007874015748
        },
        {
          "duration": 0.1754385000000127,
          "durationTicks": 192,
          "midi": 51,
          "name": "D#3",
          "ticks": 189312,
          "time": 172.982361,
          "velocity": 0.23622047244094488
        },
        {
          "duration": 0.08771925000002057,
          "durationTicks": 96,
          "midi": 75,
          "name": "D#5",
          "ticks": 189408,
          "time": 173.07008025,
          "velocity": 0.2755905511811024
        },
        {
          "duration": 0.1754384999999843,
          "durationTicks": 192,
          "midi": 54,
          "name": "F#3",
          "ticks": 189504,
          "time": 173.1577995,
          "velocity": 0.23622047244094488
        },
        {
          "duration": 0.08771924999999214,
          "durationTicks": 96,
          "midi": 80,
          "name": "G#5",
          "ticks": 189600,
          "time": 173.24551875,
          "velocity": 0.2755905511811024
        },
        {
          "duration": 0.1754384999999843,
          "durationTicks": 192,
          "midi": 58,
          "name": "A#3",
          "ticks": 189600,
          "time": 173.24551875,
          "velocity": 0.3937007874015748
        },
        {
          "duration": 0.1754384999999843,
          "durationTicks": 192,
          "midi": 63,
          "name": "D#4",
          "ticks": 189600,
          "time": 173.24551875,
          "velocity": 0.3937007874015748
        },
        {
          "duration": 0.1754385000000127,
          "durationTicks": 192,
          "midi": 49,
          "name": "C#3",
          "ticks": 189696,
          "time": 173.333238,
          "velocity": 0.23622047244094488
        },
        {
          "duration": 0.26315775000000485,
          "durationTicks": 288,
          "midi": 56,
          "name": "G#3",
          "ticks": 189792,
          "time": 173.42095725,
          "velocity": 0.3937007874015748
        },
        {
          "duration": 0.26315775000000485,
          "durationTicks": 288,
          "midi": 61,
          "name": "C#4",
          "ticks": 189792,
          "time": 173.42095725,
          "velocity": 0.3937007874015748
        },
        {
          "duration": 0.08771925000002057,
          "durationTicks": 96,
          "midi": 73,
          "name": "C#5",
          "ticks": 189792,
          "time": 173.42095725,
          "velocity": 0.2755905511811024
        },
        {
          "duration": 0.1754384999999843,
          "durationTicks": 192,
          "midi": 51,
          "name": "D#3",
          "ticks": 189888,
          "time": 173.5086765,
          "velocity": 0.23622047244094488
        },
        {
          "duration": 0.08771924999999214,
          "durationTicks": 96,
          "midi": 80,
          "name": "G#5",
          "ticks": 189984,
          "time": 173.59639575,
          "velocity": 0.2755905511811024
        },
        {
          "duration": 0.1754385000000127,
          "durationTicks": 192,
          "midi": 54,
          "name": "F#3",
          "ticks": 190080,
          "time": 173.684115,
          "velocity": 0.23622047244094488
        },
        {
          "duration": 0.08771925000002057,
          "durationTicks": 96,
          "midi": 78,
          "name": "F#5",
          "ticks": 190176,
          "time": 173.77183424999998,
          "velocity": 0.2755905511811024
        },
        {
          "duration": 0.26315775000000485,
          "durationTicks": 288,
          "midi": 63,
          "name": "D#4",
          "ticks": 190176,
          "time": 173.77183424999998,
          "velocity": 0.3937007874015748
        },
        {
          "duration": 0.26315775000000485,
          "durationTicks": 288,
          "midi": 58,
          "name": "A#3",
          "ticks": 190176,
          "time": 173.77183424999998,
          "velocity": 0.3937007874015748
        },
        {
          "duration": 0.08771924999999214,
          "durationTicks": 96,
          "midi": 80,
          "name": "G#5",
          "ticks": 190368,
          "time": 173.94727275,
          "velocity": 0.2755905511811024
        },
        {
          "duration": 0.26315774999997643,
          "durationTicks": 288,
          "midi": 61,
          "name": "C#4",
          "ticks": 190560,
          "time": 174.12271125,
          "velocity": 0.3937007874015748
        },
        {
          "duration": 0.26315774999997643,
          "durationTicks": 288,
          "midi": 66,
          "name": "F#4",
          "ticks": 190560,
          "time": 174.12271125,
          "velocity": 0.3937007874015748
        },
        {
          "duration": 0.08771924999999214,
          "durationTicks": 96,
          "midi": 80,
          "name": "G#5",
          "ticks": 190560,
          "time": 174.12271125,
          "velocity": 0.2755905511811024
        },
        {
          "duration": 0.08771924999999214,
          "durationTicks": 96,
          "midi": 78,
          "name": "F#5",
          "ticks": 190944,
          "time": 174.47358825,
          "velocity": 0.2755905511811024
        },
        {
          "duration": 2.8070160000000044,
          "durationTicks": 3072,
          "midi": 59,
          "name": "B3",
          "ticks": 190944,
          "time": 174.47358825,
          "velocity": 0.3937007874015748
        },
        {
          "duration": 2.8070160000000044,
          "durationTicks": 3072,
          "midi": 68,
          "name": "G#4",
          "ticks": 190944,
          "time": 174.47358825,
          "velocity": 0.3937007874015748
        },
        {
          "duration": 0.08771925000002057,
          "durationTicks": 96,
          "midi": 80,
          "name": "G#5",
          "ticks": 191136,
          "time": 174.64902675,
          "velocity": 0.2755905511811024
        },
        {
          "duration": 0.08771924999999214,
          "durationTicks": 96,
          "midi": 75,
          "name": "D#5",
          "ticks": 191328,
          "time": 174.82446525,
          "velocity": 0.2755905511811024
        },
        {
          "duration": 0.08771925000002057,
          "durationTicks": 96,
          "midi": 78,
          "name": "F#5",
          "ticks": 191520,
          "time": 174.99990375,
          "velocity": 0.2755905511811024
        },
        {
          "duration": 0.08771924999999214,
          "durationTicks": 96,
          "midi": 80,
          "name": "G#5",
          "ticks": 191712,
          "time": 175.17534225,
          "velocity": 0.2755905511811024
        },
        {
          "duration": 0.08771925000002057,
          "durationTicks": 96,
          "midi": 75,
          "name": "D#5",
          "ticks": 191904,
          "time": 175.35078074999998,
          "velocity": 0.2755905511811024
        },
        {
          "duration": 0.08771924999999214,
          "durationTicks": 96,
          "midi": 78,
          "name": "F#5",
          "ticks": 192096,
          "time": 175.52621925,
          "velocity": 0.2755905511811024
        },
        {
          "duration": 0.08771924999999214,
          "durationTicks": 96,
          "midi": 73,
          "name": "C#5",
          "ticks": 192288,
          "time": 175.70165775,
          "velocity": 0.2755905511811024
        },
        {
          "duration": 0.08771924999999214,
          "durationTicks": 96,
          "midi": 75,
          "name": "D#5",
          "ticks": 192480,
          "time": 175.87709625,
          "velocity": 0.2755905511811024
        },
        {
          "duration": 0.08771924999999214,
          "durationTicks": 96,
          "midi": 71,
          "name": "B4",
          "ticks": 192672,
          "time": 176.05253475,
          "velocity": 0.2755905511811024
        },
        {
          "duration": 0.08771924999999214,
          "durationTicks": 96,
          "midi": 73,
          "name": "C#5",
          "ticks": 192864,
          "time": 176.22797325,
          "velocity": 0.2755905511811024
        }
      ],
      "endOfTrackTicks": 194016
    },
    {
      "channel": 5,
      "controlChanges": {},
      "pitchBends": [],
      "instrument": {
        "family": "synth lead",
        "number": 87,
        "name": "lead 8 (bass + lead)"
      },
      "name": "8-Bit Triangle",
      "notes": [
        {
          "duration": 0.08771924999999925,
          "durationTicks": 96,
          "midi": 94,
          "name": "A#6",
          "ticks": 33120,
          "time": 30.26314125,
          "velocity": 0.6299212598425197
        },
        {
          "duration": 0.08771924999999925,
          "durationTicks": 96,
          "midi": 91,
          "name": "G6",
          "ticks": 33600,
          "time": 30.7017375,
          "velocity": 0.6299212598425197
        },
        {
          "duration": 0.08771924999999925,
          "durationTicks": 96,
          "midi": 94,
          "name": "A#6",
          "ticks": 33696,
          "time": 30.78945675,
          "velocity": 0.6299212598425197
        },
        {
          "duration": 0.08771924999999925,
          "durationTicks": 96,
          "midi": 89,
          "name": "F6",
          "ticks": 34176,
          "time": 31.228053,
          "velocity": 0.6299212598425197
        },
        {
          "duration": 0.08771924999999925,
          "durationTicks": 96,
          "midi": 84,
          "name": "C6",
          "ticks": 34368,
          "time": 31.4034915,
          "velocity": 0.6299212598425197
        },
        {
          "duration": 0.08771924999999925,
          "durationTicks": 96,
          "midi": 86,
          "name": "D6",
          "ticks": 34560,
          "time": 31.57893,
          "velocity": 0.6299212598425197
        },
        {
          "duration": 0.0877192499999957,
          "durationTicks": 96,
          "midi": 89,
          "name": "F6",
          "ticks": 34944,
          "time": 31.929807,
          "velocity": 0.6299212598425197
        },
        {
          "duration": 0.08771924999999925,
          "durationTicks": 96,
          "midi": 84,
          "name": "C6",
          "ticks": 35136,
          "time": 32.1052455,
          "velocity": 0.6299212598425197
        },
        {
          "duration": 0.08771924999999925,
          "durationTicks": 96,
          "midi": 86,
          "name": "D6",
          "ticks": 35328,
          "time": 32.280684,
          "velocity": 0.6299212598425197
        },
        {
          "duration": 0.08771924999999925,
          "durationTicks": 96,
          "midi": 89,
          "name": "F6",
          "ticks": 35520,
          "time": 32.4561225,
          "velocity": 0.6299212598425197
        },
        {
          "duration": 0.08771924999999925,
          "durationTicks": 96,
          "midi": 86,
          "name": "D6",
          "ticks": 35712,
          "time": 32.631561,
          "velocity": 0.6299212598425197
        },
        {
          "duration": 0.08771925000000635,
          "durationTicks": 96,
          "midi": 84,
          "name": "C6",
          "ticks": 35904,
          "time": 32.806999499999996,
          "velocity": 0.6299212598425197
        },
        {
          "duration": 0.08771924999999925,
          "durationTicks": 96,
          "midi": 86,
          "name": "D6",
          "ticks": 36096,
          "time": 32.982438,
          "velocity": 0.6299212598425197
        },
        {
          "duration": 0.08771924999999925,
          "durationTicks": 96,
          "midi": 84,
          "name": "C6",
          "ticks": 36288,
          "time": 33.1578765,
          "velocity": 0.6299212598425197
        },
        {
          "duration": 0.08771924999999925,
          "durationTicks": 96,
          "midi": 89,
          "name": "F6",
          "ticks": 36480,
          "time": 33.333315,
          "velocity": 0.6299212598425197
        },
        {
          "duration": 0.08771924999999925,
          "durationTicks": 96,
          "midi": 84,
          "name": "C6",
          "ticks": 36672,
          "time": 33.5087535,
          "velocity": 0.6299212598425197
        },
        {
          "duration": 0.08771925000000635,
          "durationTicks": 96,
          "midi": 86,
          "name": "D6",
          "ticks": 36864,
          "time": 33.684191999999996,
          "velocity": 0.6299212598425197
        },
        {
          "duration": 0.08771924999999925,
          "durationTicks": 96,
          "midi": 94,
          "name": "A#6",
          "ticks": 45408,
          "time": 41.49120525,
          "velocity": 0.6299212598425197
        },
        {
          "duration": 0.08771925000000635,
          "durationTicks": 96,
          "midi": 91,
          "name": "G6",
          "ticks": 45888,
          "time": 41.929801499999996,
          "velocity": 0.6299212598425197
        },
        {
          "duration": 0.08771924999999925,
          "durationTicks": 96,
          "midi": 94,
          "name": "A#6",
          "ticks": 45984,
          "time": 42.01752075,
          "velocity": 0.6299212598425197
        },
        {
          "duration": 0.08771924999999925,
          "durationTicks": 96,
          "midi": 89,
          "name": "F6",
          "ticks": 46464,
          "time": 42.456117,
          "velocity": 0.6299212598425197
        },
        {
          "duration": 0.08771924999999925,
          "durationTicks": 96,
          "midi": 84,
          "name": "C6",
          "ticks": 46656,
          "time": 42.6315555,
          "velocity": 0.6299212598425197
        },
        {
          "duration": 0.08771924999999925,
          "durationTicks": 96,
          "midi": 84,
          "name": "C6",
          "ticks": 46656,
          "time": 42.6315555,
          "velocity": 0.6299212598425197
        },
        {
          "duration": 0.08771925000000635,
          "durationTicks": 96,
          "midi": 86,
          "name": "D6",
          "ticks": 46848,
          "time": 42.806993999999996,
          "velocity": 0.6299212598425197
        },
        {
          "duration": 0.08771925000000635,
          "durationTicks": 96,
          "midi": 86,
          "name": "D6",
          "ticks": 46848,
          "time": 42.806993999999996,
          "velocity": 0.6299212598425197
        },
        {
          "duration": 0.08771924999999925,
          "durationTicks": 96,
          "midi": 89,
          "name": "F6",
          "ticks": 47232,
          "time": 43.157871,
          "velocity": 0.6299212598425197
        },
        {
          "duration": 0.08771924999999925,
          "durationTicks": 96,
          "midi": 84,
          "name": "C6",
          "ticks": 47424,
          "time": 43.3333095,
          "velocity": 0.6299212598425197
        },
        {
          "duration": 0.08771924999999925,
          "durationTicks": 96,
          "midi": 86,
          "name": "D6",
          "ticks": 47616,
          "time": 43.508748,
          "velocity": 0.6299212598425197
        },
        {
          "duration": 0.08771924999999925,
          "durationTicks": 96,
          "midi": 86,
          "name": "D6",
          "ticks": 48000,
          "time": 43.859625,
          "velocity": 0.6299212598425197
        },
        {
          "duration": 0.08771924999999925,
          "durationTicks": 96,
          "midi": 84,
          "name": "C6",
          "ticks": 48192,
          "time": 44.0350635,
          "velocity": 0.6299212598425197
        },
        {
          "duration": 0.08771924999999925,
          "durationTicks": 96,
          "midi": 86,
          "name": "D6",
          "ticks": 48384,
          "time": 44.210502,
          "velocity": 0.6299212598425197
        },
        {
          "duration": 0.08771924999999925,
          "durationTicks": 96,
          "midi": 84,
          "name": "C6",
          "ticks": 48576,
          "time": 44.3859405,
          "velocity": 0.6299212598425197
        },
        {
          "duration": 0.08771924999999925,
          "durationTicks": 96,
          "midi": 84,
          "name": "C6",
          "ticks": 48960,
          "time": 44.7368175,
          "velocity": 0.6299212598425197
        },
        {
          "duration": 0.08771924999999925,
          "durationTicks": 96,
          "midi": 86,
          "name": "D6",
          "ticks": 49152,
          "time": 44.912256,
          "velocity": 0.6299212598425197
        }
      ],
      "endOfTrackTicks": 49248
    },
    {
      "channel": 6,
      "controlChanges": {},
      "pitchBends": [],
      "instrument": {
        "family": "strings",
        "number": 45,
        "name": "pizzicato strings"
      },
      "name": "Pizzicato",
      "notes": [
        {
          "duration": 0.0877192500000028,
          "durationTicks": 96,
          "midi": 87,
          "name": "D#6",
          "ticks": 24768,
          "time": 22.631566499999998,
          "velocity": 0.29133858267716534
        },
        {
          "duration": 0.0877192500000028,
          "durationTicks": 96,
          "midi": 82,
          "name": "A#5",
          "ticks": 24768,
          "time": 22.631566499999998,
          "velocity": 0.29133858267716534
        },
        {
          "duration": 0.08771924999999925,
          "durationTicks": 96,
          "midi": 87,
          "name": "D#6",
          "ticks": 25344,
          "time": 23.157882,
          "velocity": 0.29133858267716534
        },
        {
          "duration": 0.08771924999999925,
          "durationTicks": 96,
          "midi": 82,
          "name": "A#5",
          "ticks": 25344,
          "time": 23.157882,
          "velocity": 0.29133858267716534
        },
        {
          "duration": 0.08771924999999925,
          "durationTicks": 96,
          "midi": 82,
          "name": "A#5",
          "ticks": 25920,
          "time": 23.6841975,
          "velocity": 0.29133858267716534
        },
        {
          "duration": 0.08771924999999925,
          "durationTicks": 96,
          "midi": 87,
          "name": "D#6",
          "ticks": 25920,
          "time": 23.6841975,
          "velocity": 0.29133858267716534
        },
        {
          "duration": 0.08771924999999925,
          "durationTicks": 96,
          "midi": 87,
          "name": "D#6",
          "ticks": 26496,
          "time": 24.210513,
          "velocity": 0.29133858267716534
        },
        {
          "duration": 0.08771924999999925,
          "durationTicks": 96,
          "midi": 82,
          "name": "A#5",
          "ticks": 26496,
          "time": 24.210513,
          "velocity": 0.29133858267716534
        },
        {
          "duration": 0.0877192500000028,
          "durationTicks": 96,
          "midi": 82,
          "name": "A#5",
          "ticks": 27072,
          "time": 24.736828499999998,
          "velocity": 0.29133858267716534
        },
        {
          "duration": 0.0877192500000028,
          "durationTicks": 96,
          "midi": 87,
          "name": "D#6",
          "ticks": 27072,
          "time": 24.736828499999998,
          "velocity": 0.29133858267716534
        },
        {
          "duration": 0.0877192500000028,
          "durationTicks": 96,
          "midi": 87,
          "name": "D#6",
          "ticks": 27456,
          "time": 25.0877055,
          "velocity": 0.29133858267716534
        },
        {
          "duration": 0.0877192500000028,
          "durationTicks": 96,
          "midi": 82,
          "name": "A#5",
          "ticks": 27456,
          "time": 25.0877055,
          "velocity": 0.29133858267716534
        },
        {
          "duration": 0.08771924999999925,
          "durationTicks": 96,
          "midi": 87,
          "name": "D#6",
          "ticks": 27648,
          "time": 25.263144,
          "velocity": 0.29133858267716534
        },
        {
          "duration": 0.08771924999999925,
          "durationTicks": 96,
          "midi": 89,
          "name": "F6",
          "ticks": 27648,
          "time": 25.263144,
          "velocity": 0.29133858267716534
        },
        {
          "duration": 0.08771924999999925,
          "durationTicks": 96,
          "midi": 87,
          "name": "D#6",
          "ticks": 27840,
          "time": 25.4385825,
          "velocity": 0.29133858267716534
        },
        {
          "duration": 0.08771924999999925,
          "durationTicks": 96,
          "midi": 82,
          "name": "A#5",
          "ticks": 27840,
          "time": 25.4385825,
          "velocity": 0.29133858267716534
        },
        {
          "duration": 0.0877192500000028,
          "durationTicks": 96,
          "midi": 87,
          "name": "D#6",
          "ticks": 28416,
          "time": 25.964897999999998,
          "velocity": 0.29133858267716534
        },
        {
          "duration": 0.0877192500000028,
          "durationTicks": 96,
          "midi": 82,
          "name": "A#5",
          "ticks": 28416,
          "time": 25.964897999999998,
          "velocity": 0.29133858267716534
        },
        {
          "duration": 0.08771924999999925,
          "durationTicks": 96,
          "midi": 82,
          "name": "A#5",
          "ticks": 28992,
          "time": 26.4912135,
          "velocity": 0.29133858267716534
        },
        {
          "duration": 0.08771924999999925,
          "durationTicks": 96,
          "midi": 87,
          "name": "D#6",
          "ticks": 28992,
          "time": 26.4912135,
          "velocity": 0.29133858267716534
        },
        {
          "duration": 0.08771924999999925,
          "durationTicks": 96,
          "midi": 87,
          "name": "D#6",
          "ticks": 29568,
          "time": 27.017529,
          "velocity": 0.29133858267716534
        },
        {
          "duration": 0.08771924999999925,
          "durationTicks": 96,
          "midi": 82,
          "name": "A#5",
          "ticks": 29568,
          "time": 27.017529,
          "velocity": 0.29133858267716534
        },
        {
          "duration": 0.08771924999999925,
          "durationTicks": 96,
          "midi": 87,
          "name": "D#6",
          "ticks": 30144,
          "time": 27.5438445,
          "velocity": 0.29133858267716534
        },
        {
          "duration": 0.08771924999999925,
          "durationTicks": 96,
          "midi": 82,
          "name": "A#5",
          "ticks": 30144,
          "time": 27.5438445,
          "velocity": 0.29133858267716534
        },
        {
          "duration": 0.08771924999999925,
          "durationTicks": 96,
          "midi": 87,
          "name": "D#6",
          "ticks": 30528,
          "time": 27.8947215,
          "velocity": 0.29133858267716534
        },
        {
          "duration": 0.08771924999999925,
          "durationTicks": 96,
          "midi": 82,
          "name": "A#5",
          "ticks": 30528,
          "time": 27.8947215,
          "velocity": 0.29133858267716534
        },
        {
          "duration": 0.08771924999999925,
          "durationTicks": 96,
          "midi": 89,
          "name": "F6",
          "ticks": 30720,
          "time": 28.07016,
          "velocity": 0.29133858267716534
        },
        {
          "duration": 0.08771924999999925,
          "durationTicks": 96,
          "midi": 87,
          "name": "D#6",
          "ticks": 30720,
          "time": 28.07016,
          "velocity": 0.29133858267716534
        },
        {
          "duration": 0.08771924999999925,
          "durationTicks": 96,
          "midi": 81,
          "name": "A5",
          "ticks": 30912,
          "time": 28.2455985,
          "velocity": 0.29133858267716534
        },
        {
          "duration": 0.08771924999999925,
          "durationTicks": 96,
          "midi": 86,
          "name": "D6",
          "ticks": 30912,
          "time": 28.2455985,
          "velocity": 0.29133858267716534
        },
        {
          "duration": 0.08771924999999925,
          "durationTicks": 96,
          "midi": 86,
          "name": "D6",
          "ticks": 31680,
          "time": 28.9473525,
          "velocity": 0.29133858267716534
        },
        {
          "duration": 0.08771924999999925,
          "durationTicks": 96,
          "midi": 81,
          "name": "A5",
          "ticks": 31680,
          "time": 28.9473525,
          "velocity": 0.29133858267716534
        },
        {
          "duration": 0.08771924999999925,
          "durationTicks": 96,
          "midi": 81,
          "name": "A5",
          "ticks": 32256,
          "time": 29.473668,
          "velocity": 0.29133858267716534
        },
        {
          "duration": 0.08771924999999925,
          "durationTicks": 96,
          "midi": 86,
          "name": "D6",
          "ticks": 32256,
          "time": 29.473668,
          "velocity": 0.29133858267716534
        },
        {
          "duration": 0.08771924999999925,
          "durationTicks": 96,
          "midi": 84,
          "name": "C6",
          "ticks": 32640,
          "time": 29.824545,
          "velocity": 0.29133858267716534
        },
        {
          "duration": 0.08771924999999925,
          "durationTicks": 96,
          "midi": 81,
          "name": "A5",
          "ticks": 32640,
          "time": 29.824545,
          "velocity": 0.29133858267716534
        },
        {
          "duration": 0.08771924999999925,
          "durationTicks": 96,
          "midi": 84,
          "name": "C6",
          "ticks": 33216,
          "time": 30.3508605,
          "velocity": 0.29133858267716534
        },
        {
          "duration": 0.08771924999999925,
          "durationTicks": 96,
          "midi": 81,
          "name": "A5",
          "ticks": 33216,
          "time": 30.3508605,
          "velocity": 0.29133858267716534
        },
        {
          "duration": 0.08771924999999925,
          "durationTicks": 96,
          "midi": 87,
          "name": "D#6",
          "ticks": 37056,
          "time": 33.8596305,
          "velocity": 0.29133858267716534
        },
        {
          "duration": 0.1754384999999985,
          "durationTicks": 192,
          "midi": 82,
          "name": "A#5",
          "ticks": 37056,
          "time": 33.8596305,
          "velocity": 0.29133858267716534
        },
        {
          "duration": 0.08771924999999925,
          "durationTicks": 96,
          "midi": 87,
          "name": "D#6",
          "ticks": 37632,
          "time": 34.385946,
          "velocity": 0.29133858267716534
        },
        {
          "duration": 0.1754385000000056,
          "durationTicks": 192,
          "midi": 82,
          "name": "A#5",
          "ticks": 37632,
          "time": 34.385946,
          "velocity": 0.29133858267716534
        },
        {
          "duration": 0.08771924999999925,
          "durationTicks": 96,
          "midi": 82,
          "name": "A#5",
          "ticks": 38208,
          "time": 34.9122615,
          "velocity": 0.29133858267716534
        },
        {
          "duration": 0.08771924999999925,
          "durationTicks": 96,
          "midi": 87,
          "name": "D#6",
          "ticks": 38208,
          "time": 34.9122615,
          "velocity": 0.29133858267716534
        },
        {
          "duration": 0.08771924999999925,
          "durationTicks": 96,
          "midi": 87,
          "name": "D#6",
          "ticks": 38784,
          "time": 35.438577,
          "velocity": 0.29133858267716534
        },
        {
          "duration": 0.08771924999999925,
          "durationTicks": 96,
          "midi": 82,
          "name": "A#5",
          "ticks": 38784,
          "time": 35.438577,
          "velocity": 0.29133858267716534
        },
        {
          "duration": 0.08771924999999925,
          "durationTicks": 96,
          "midi": 87,
          "name": "D#6",
          "ticks": 39360,
          "time": 35.9648925,
          "velocity": 0.29133858267716534
        },
        {
          "duration": 0.08771924999999925,
          "durationTicks": 96,
          "midi": 82,
          "name": "A#5",
          "ticks": 39360,
          "time": 35.9648925,
          "velocity": 0.29133858267716534
        },
        {
          "duration": 0.08771924999999925,
          "durationTicks": 96,
          "midi": 87,
          "name": "D#6",
          "ticks": 39744,
          "time": 36.3157695,
          "velocity": 0.29133858267716534
        },
        {
          "duration": 0.08771924999999925,
          "durationTicks": 96,
          "midi": 82,
          "name": "A#5",
          "ticks": 39744,
          "time": 36.3157695,
          "velocity": 0.29133858267716534
        },
        {
          "duration": 0.08771924999999925,
          "durationTicks": 96,
          "midi": 87,
          "name": "D#6",
          "ticks": 39936,
          "time": 36.491208,
          "velocity": 0.29133858267716534
        },
        {
          "duration": 0.08771924999999925,
          "durationTicks": 96,
          "midi": 82,
          "name": "A#5",
          "ticks": 40128,
          "time": 36.6666465,
          "velocity": 0.29133858267716534
        },
        {
          "duration": 0.08771924999999925,
          "durationTicks": 96,
          "midi": 87,
          "name": "D#6",
          "ticks": 40128,
          "time": 36.6666465,
          "velocity": 0.29133858267716534
        },
        {
          "duration": 0.08771924999999925,
          "durationTicks": 96,
          "midi": 87,
          "name": "D#6",
          "ticks": 40704,
          "time": 37.192962,
          "velocity": 0.29133858267716534
        },
        {
          "duration": 0.08771924999999925,
          "durationTicks": 96,
          "midi": 82,
          "name": "A#5",
          "ticks": 40704,
          "time": 37.192962,
          "velocity": 0.29133858267716534
        },
        {
          "duration": 0.08771924999999925,
          "durationTicks": 96,
          "midi": 82,
          "name": "A#5",
          "ticks": 41280,
          "time": 37.7192775,
          "velocity": 0.29133858267716534
        },
        {
          "duration": 0.08771924999999925,
          "durationTicks": 96,
          "midi": 87,
          "name": "D#6",
          "ticks": 41280,
          "time": 37.7192775,
          "velocity": 0.29133858267716534
        },
        {
          "duration": 0.08771924999999925,
          "durationTicks": 96,
          "midi": 82,
          "name": "A#5",
          "ticks": 41856,
          "time": 38.245593,
          "velocity": 0.29133858267716534
        },
        {
          "duration": 0.08771924999999925,
          "durationTicks": 96,
          "midi": 87,
          "name": "D#6",
          "ticks": 41856,
          "time": 38.245593,
          "velocity": 0.29133858267716534
        },
        {
          "duration": 0.08771924999999925,
          "durationTicks": 96,
          "midi": 87,
          "name": "D#6",
          "ticks": 42432,
          "time": 38.7719085,
          "velocity": 0.29133858267716534
        },
        {
          "duration": 0.08771924999999925,
          "durationTicks": 96,
          "midi": 82,
          "name": "A#5",
          "ticks": 42432,
          "time": 38.7719085,
          "velocity": 0.29133858267716534
        },
        {
          "duration": 0.08771924999999925,
          "durationTicks": 96,
          "midi": 87,
          "name": "D#6",
          "ticks": 42816,
          "time": 39.1227855,
          "velocity": 0.29133858267716534
        },
        {
          "duration": 0.08771924999999925,
          "durationTicks": 96,
          "midi": 82,
          "name": "A#5",
          "ticks": 42816,
          "time": 39.1227855,
          "velocity": 0.29133858267716534
        },
        {
          "duration": 0.08771924999999925,
          "durationTicks": 96,
          "midi": 87,
          "name": "D#6",
          "ticks": 43008,
          "time": 39.298224,
          "velocity": 0.29133858267716534
        },
        {
          "duration": 0.08771925000000635,
          "durationTicks": 96,
          "midi": 86,
          "name": "D6",
          "ticks": 43200,
          "time": 39.473662499999996,
          "velocity": 0.29133858267716534
        },
        {
          "duration": 0.08771925000000635,
          "durationTicks": 96,
          "midi": 81,
          "name": "A5",
          "ticks": 43200,
          "time": 39.473662499999996,
          "velocity": 0.29133858267716534
        },
        {
          "duration": 0.08771924999999925,
          "durationTicks": 96,
          "midi": 86,
          "name": "D6",
          "ticks": 43968,
          "time": 40.1754165,
          "velocity": 0.29133858267716534
        },
        {
          "duration": 0.08771924999999925,
          "durationTicks": 96,
          "midi": 81,
          "name": "A5",
          "ticks": 43968,
          "time": 40.1754165,
          "velocity": 0.29133858267716534
        },
        {
          "duration": 0.08771924999999925,
          "durationTicks": 96,
          "midi": 81,
          "name": "A5",
          "ticks": 44544,
          "time": 40.701732,
          "velocity": 0.29133858267716534
        },
        {
          "duration": 0.08771924999999925,
          "durationTicks": 96,
          "midi": 86,
          "name": "D6",
          "ticks": 44544,
          "time": 40.701732,
          "velocity": 0.29133858267716534
        },
        {
          "duration": 0.08771924999999925,
          "durationTicks": 96,
          "midi": 84,
          "name": "C6",
          "ticks": 44928,
          "time": 41.052609,
          "velocity": 0.29133858267716534
        },
        {
          "duration": 0.08771924999999925,
          "durationTicks": 96,
          "midi": 81,
          "name": "A5",
          "ticks": 44928,
          "time": 41.052609,
          "velocity": 0.29133858267716534
        },
        {
          "duration": 0.08771924999999925,
          "durationTicks": 96,
          "midi": 81,
          "name": "A5",
          "ticks": 45504,
          "time": 41.5789245,
          "velocity": 0.29133858267716534
        },
        {
          "duration": 0.08771924999999925,
          "durationTicks": 96,
          "midi": 84,
          "name": "C6",
          "ticks": 45504,
          "time": 41.5789245,
          "velocity": 0.29133858267716534
        }
      ],
      "endOfTrackTicks": 45600
    },
    {
      "channel": 7,
      "controlChanges": {},
      "pitchBends": [],
      "instrument": {
        "family": "percussive",
        "number": 114,
        "name": "steel drums"
      },
      "name": "Steel Drums",
      "notes": [
        {
          "duration": 0.08771924999999925,
          "durationTicks": 96,
          "midi": 36,
          "name": "C2",
          "ticks": 61536,
          "time": 56.22803925,
          "velocity": 0.2440944881889764
        },
        {
          "duration": 0.08771924999999925,
          "durationTicks": 96,
          "midi": 48,
          "name": "C3",
          "ticks": 61536,
          "time": 56.22803925,
          "velocity": 0.2440944881889764
        },
        {
          "duration": 0.08771924999999925,
          "durationTicks": 96,
          "midi": 43,
          "name": "G2",
          "ticks": 61536,
          "time": 56.22803925,
          "velocity": 0.2440944881889764
        },
        {
          "duration": 0.08771924999999925,
          "durationTicks": 96,
          "midi": 43,
          "name": "G2",
          "ticks": 61632,
          "time": 56.3157585,
          "velocity": 0.2440944881889764
        },
        {
          "duration": 0.08771924999999925,
          "durationTicks": 96,
          "midi": 48,
          "name": "C3",
          "ticks": 61632,
          "time": 56.3157585,
          "velocity": 0.2440944881889764
        },
        {
          "duration": 0.08771924999999925,
          "durationTicks": 96,
          "midi": 36,
          "name": "C2",
          "ticks": 61632,
          "time": 56.3157585,
          "velocity": 0.2440944881889764
        },
        {
          "duration": 0.08771924999999925,
          "durationTicks": 96,
          "midi": 36,
          "name": "C2",
          "ticks": 61728,
          "time": 56.40347775,
          "velocity": 0.2440944881889764
        },
        {
          "duration": 0.08771924999999925,
          "durationTicks": 96,
          "midi": 48,
          "name": "C3",
          "ticks": 61728,
          "time": 56.40347775,
          "velocity": 0.2440944881889764
        },
        {
          "duration": 0.08771924999999925,
          "durationTicks": 96,
          "midi": 43,
          "name": "G2",
          "ticks": 61728,
          "time": 56.40347775,
          "velocity": 0.2440944881889764
        },
        {
          "duration": 0.08771924999999925,
          "durationTicks": 96,
          "midi": 43,
          "name": "G2",
          "ticks": 61824,
          "time": 56.491197,
          "velocity": 0.2440944881889764
        },
        {
          "duration": 0.08771924999999925,
          "durationTicks": 96,
          "midi": 36,
          "name": "C2",
          "ticks": 61824,
          "time": 56.491197,
          "velocity": 0.2440944881889764
        },
        {
          "duration": 0.08771924999999925,
          "durationTicks": 96,
          "midi": 48,
          "name": "C3",
          "ticks": 61824,
          "time": 56.491197,
          "velocity": 0.2440944881889764
        },
        {
          "duration": 0.08771924999999925,
          "durationTicks": 96,
          "midi": 43,
          "name": "G2",
          "ticks": 61920,
          "time": 56.57891625,
          "velocity": 0.2440944881889764
        },
        {
          "duration": 0.08771924999999925,
          "durationTicks": 96,
          "midi": 36,
          "name": "C2",
          "ticks": 61920,
          "time": 56.57891625,
          "velocity": 0.2440944881889764
        },
        {
          "duration": 0.08771924999999925,
          "durationTicks": 96,
          "midi": 48,
          "name": "C3",
          "ticks": 61920,
          "time": 56.57891625,
          "velocity": 0.2440944881889764
        },
        {
          "duration": 0.08771924999999925,
          "durationTicks": 96,
          "midi": 43,
          "name": "G2",
          "ticks": 62016,
          "time": 56.6666355,
          "velocity": 0.2440944881889764
        },
        {
          "duration": 0.08771924999999925,
          "durationTicks": 96,
          "midi": 36,
          "name": "C2",
          "ticks": 62016,
          "time": 56.6666355,
          "velocity": 0.2440944881889764
        },
        {
          "duration": 0.08771924999999925,
          "durationTicks": 96,
          "midi": 48,
          "name": "C3",
          "ticks": 62016,
          "time": 56.6666355,
          "velocity": 0.2440944881889764
        },
        {
          "duration": 0.08771924999999925,
          "durationTicks": 96,
          "midi": 48,
          "name": "C3",
          "ticks": 62112,
          "time": 56.75435475,
          "velocity": 0.2440944881889764
        },
        {
          "duration": 0.08771924999999925,
          "durationTicks": 96,
          "midi": 36,
          "name": "C2",
          "ticks": 62112,
          "time": 56.75435475,
          "velocity": 0.2440944881889764
        },
        {
          "duration": 0.08771924999999925,
          "durationTicks": 96,
          "midi": 43,
          "name": "G2",
          "ticks": 62112,
          "time": 56.75435475,
          "velocity": 0.2440944881889764
        },
        {
          "duration": 0.08771924999999925,
          "durationTicks": 96,
          "midi": 36,
          "name": "C2",
          "ticks": 62208,
          "time": 56.842074,
          "velocity": 0.2440944881889764
        },
        {
          "duration": 0.08771924999999925,
          "durationTicks": 96,
          "midi": 43,
          "name": "G2",
          "ticks": 62208,
          "time": 56.842074,
          "velocity": 0.2440944881889764
        },
        {
          "duration": 0.08771924999999925,
          "durationTicks": 96,
          "midi": 48,
          "name": "C3",
          "ticks": 62208,
          "time": 56.842074,
          "velocity": 0.2440944881889764
        },
        {
          "duration": 0.08771925000000635,
          "durationTicks": 96,
          "midi": 43,
          "name": "G2",
          "ticks": 62304,
          "time": 56.929793249999996,
          "velocity": 0.2440944881889764
        },
        {
          "duration": 0.08771925000000635,
          "durationTicks": 96,
          "midi": 48,
          "name": "C3",
          "ticks": 62304,
          "time": 56.929793249999996,
          "velocity": 0.2440944881889764
        },
        {
          "duration": 0.08771925000000635,
          "durationTicks": 96,
          "midi": 36,
          "name": "C2",
          "ticks": 62304,
          "time": 56.929793249999996,
          "velocity": 0.2440944881889764
        },
        {
          "duration": 0.08771924999999925,
          "durationTicks": 96,
          "midi": 36,
          "name": "C2",
          "ticks": 62400,
          "time": 57.0175125,
          "velocity": 0.2440944881889764
        },
        {
          "duration": 0.08771924999999925,
          "durationTicks": 96,
          "midi": 48,
          "name": "C3",
          "ticks": 62400,
          "time": 57.0175125,
          "velocity": 0.2440944881889764
        },
        {
          "duration": 0.08771924999999925,
          "durationTicks": 96,
          "midi": 43,
          "name": "G2",
          "ticks": 62400,
          "time": 57.0175125,
          "velocity": 0.2440944881889764
        },
        {
          "duration": 0.08771924999999925,
          "durationTicks": 96,
          "midi": 36,
          "name": "C2",
          "ticks": 62496,
          "time": 57.10523175,
          "velocity": 0.2440944881889764
        },
        {
          "duration": 0.08771924999999925,
          "durationTicks": 96,
          "midi": 43,
          "name": "G2",
          "ticks": 62496,
          "time": 57.10523175,
          "velocity": 0.2440944881889764
        },
        {
          "duration": 0.08771924999999925,
          "durationTicks": 96,
          "midi": 48,
          "name": "C3",
          "ticks": 62496,
          "time": 57.10523175,
          "velocity": 0.2440944881889764
        },
        {
          "duration": 0.08771924999999925,
          "durationTicks": 96,
          "midi": 48,
          "name": "C3",
          "ticks": 62592,
          "time": 57.192951,
          "velocity": 0.2440944881889764
        },
        {
          "duration": 0.08771924999999925,
          "durationTicks": 96,
          "midi": 43,
          "name": "G2",
          "ticks": 62592,
          "time": 57.192951,
          "velocity": 0.2440944881889764
        },
        {
          "duration": 0.08771924999999925,
          "durationTicks": 96,
          "midi": 36,
          "name": "C2",
          "ticks": 62592,
          "time": 57.192951,
          "velocity": 0.2440944881889764
        },
        {
          "duration": 0.08771924999999925,
          "durationTicks": 96,
          "midi": 48,
          "name": "C3",
          "ticks": 62688,
          "time": 57.28067025,
          "velocity": 0.2440944881889764
        },
        {
          "duration": 0.08771924999999925,
          "durationTicks": 96,
          "midi": 36,
          "name": "C2",
          "ticks": 62688,
          "time": 57.28067025,
          "velocity": 0.2440944881889764
        },
        {
          "duration": 0.08771924999999925,
          "durationTicks": 96,
          "midi": 43,
          "name": "G2",
          "ticks": 62688,
          "time": 57.28067025,
          "velocity": 0.2440944881889764
        },
        {
          "duration": 0.08771924999999925,
          "durationTicks": 96,
          "midi": 43,
          "name": "G2",
          "ticks": 62784,
          "time": 57.3683895,
          "velocity": 0.2440944881889764
        },
        {
          "duration": 0.08771924999999925,
          "durationTicks": 96,
          "midi": 48,
          "name": "C3",
          "ticks": 62784,
          "time": 57.3683895,
          "velocity": 0.2440944881889764
        },
        {
          "duration": 0.08771924999999925,
          "durationTicks": 96,
          "midi": 36,
          "name": "C2",
          "ticks": 62784,
          "time": 57.3683895,
          "velocity": 0.2440944881889764
        },
        {
          "duration": 0.08771924999999925,
          "durationTicks": 96,
          "midi": 43,
          "name": "G2",
          "ticks": 62880,
          "time": 57.45610875,
          "velocity": 0.2440944881889764
        },
        {
          "duration": 0.08771924999999925,
          "durationTicks": 96,
          "midi": 36,
          "name": "C2",
          "ticks": 62880,
          "time": 57.45610875,
          "velocity": 0.2440944881889764
        },
        {
          "duration": 0.08771924999999925,
          "durationTicks": 96,
          "midi": 48,
          "name": "C3",
          "ticks": 62880,
          "time": 57.45610875,
          "velocity": 0.2440944881889764
        },
        {
          "duration": 0.08771924999999925,
          "durationTicks": 96,
          "midi": 36,
          "name": "C2",
          "ticks": 62976,
          "time": 57.543828,
          "velocity": 0.2440944881889764
        },
        {
          "duration": 0.08771924999999925,
          "durationTicks": 96,
          "midi": 48,
          "name": "C3",
          "ticks": 62976,
          "time": 57.543828,
          "velocity": 0.2440944881889764
        },
        {
          "duration": 0.08771924999999925,
          "durationTicks": 96,
          "midi": 43,
          "name": "G2",
          "ticks": 62976,
          "time": 57.543828,
          "velocity": 0.2440944881889764
        },
        {
          "duration": 0.08771924999999925,
          "durationTicks": 96,
          "midi": 48,
          "name": "C3",
          "ticks": 63072,
          "time": 57.63154725,
          "velocity": 0.2440944881889764
        },
        {
          "duration": 0.08771924999999925,
          "durationTicks": 96,
          "midi": 36,
          "name": "C2",
          "ticks": 63072,
          "time": 57.63154725,
          "velocity": 0.2440944881889764
        },
        {
          "duration": 0.08771924999999925,
          "durationTicks": 96,
          "midi": 43,
          "name": "G2",
          "ticks": 63072,
          "time": 57.63154725,
          "velocity": 0.2440944881889764
        },
        {
          "duration": 0.08771925000000635,
          "durationTicks": 96,
          "midi": 43,
          "name": "G2",
          "ticks": 63168,
          "time": 57.719266499999996,
          "velocity": 0.2440944881889764
        },
        {
          "duration": 0.08771925000000635,
          "durationTicks": 96,
          "midi": 36,
          "name": "C2",
          "ticks": 63168,
          "time": 57.719266499999996,
          "velocity": 0.2440944881889764
        },
        {
          "duration": 0.08771925000000635,
          "durationTicks": 96,
          "midi": 48,
          "name": "C3",
          "ticks": 63168,
          "time": 57.719266499999996,
          "velocity": 0.2440944881889764
        },
        {
          "duration": 0.08771924999999925,
          "durationTicks": 96,
          "midi": 36,
          "name": "C2",
          "ticks": 63264,
          "time": 57.80698575,
          "velocity": 0.2440944881889764
        },
        {
          "duration": 0.08771924999999925,
          "durationTicks": 96,
          "midi": 43,
          "name": "G2",
          "ticks": 63264,
          "time": 57.80698575,
          "velocity": 0.2440944881889764
        },
        {
          "duration": 0.08771924999999925,
          "durationTicks": 96,
          "midi": 48,
          "name": "C3",
          "ticks": 63264,
          "time": 57.80698575,
          "velocity": 0.2440944881889764
        },
        {
          "duration": 0.08771924999999925,
          "durationTicks": 96,
          "midi": 36,
          "name": "C2",
          "ticks": 63360,
          "time": 57.894705,
          "velocity": 0.2440944881889764
        },
        {
          "duration": 0.08771924999999925,
          "durationTicks": 96,
          "midi": 43,
          "name": "G2",
          "ticks": 63360,
          "time": 57.894705,
          "velocity": 0.2440944881889764
        },
        {
          "duration": 0.08771924999999925,
          "durationTicks": 96,
          "midi": 48,
          "name": "C3",
          "ticks": 63360,
          "time": 57.894705,
          "velocity": 0.2440944881889764
        },
        {
          "duration": 0.08771924999999925,
          "durationTicks": 96,
          "midi": 43,
          "name": "G2",
          "ticks": 63456,
          "time": 57.98242425,
          "velocity": 0.2440944881889764
        },
        {
          "duration": 0.08771924999999925,
          "durationTicks": 96,
          "midi": 36,
          "name": "C2",
          "ticks": 63456,
          "time": 57.98242425,
          "velocity": 0.2440944881889764
        },
        {
          "duration": 0.08771924999999925,
          "durationTicks": 96,
          "midi": 48,
          "name": "C3",
          "ticks": 63456,
          "time": 57.98242425,
          "velocity": 0.2440944881889764
        },
        {
          "duration": 0.08771924999999925,
          "durationTicks": 96,
          "midi": 43,
          "name": "G2",
          "ticks": 63552,
          "time": 58.0701435,
          "velocity": 0.2440944881889764
        },
        {
          "duration": 0.08771924999999925,
          "durationTicks": 96,
          "midi": 36,
          "name": "C2",
          "ticks": 63552,
          "time": 58.0701435,
          "velocity": 0.2440944881889764
        },
        {
          "duration": 0.08771924999999925,
          "durationTicks": 96,
          "midi": 48,
          "name": "C3",
          "ticks": 63552,
          "time": 58.0701435,
          "velocity": 0.2440944881889764
        },
        {
          "duration": 0.08771924999999925,
          "durationTicks": 96,
          "midi": 48,
          "name": "C3",
          "ticks": 63648,
          "time": 58.15786275,
          "velocity": 0.2440944881889764
        },
        {
          "duration": 0.08771924999999925,
          "durationTicks": 96,
          "midi": 43,
          "name": "G2",
          "ticks": 63648,
          "time": 58.15786275,
          "velocity": 0.2440944881889764
        },
        {
          "duration": 0.08771924999999925,
          "durationTicks": 96,
          "midi": 36,
          "name": "C2",
          "ticks": 63648,
          "time": 58.15786275,
          "velocity": 0.2440944881889764
        },
        {
          "duration": 0.08771924999999925,
          "durationTicks": 96,
          "midi": 36,
          "name": "C2",
          "ticks": 63744,
          "time": 58.245582,
          "velocity": 0.2440944881889764
        },
        {
          "duration": 0.08771924999999925,
          "durationTicks": 96,
          "midi": 43,
          "name": "G2",
          "ticks": 63744,
          "time": 58.245582,
          "velocity": 0.2440944881889764
        },
        {
          "duration": 0.08771924999999925,
          "durationTicks": 96,
          "midi": 48,
          "name": "C3",
          "ticks": 63744,
          "time": 58.245582,
          "velocity": 0.2440944881889764
        },
        {
          "duration": 0.08771924999999925,
          "durationTicks": 96,
          "midi": 48,
          "name": "C3",
          "ticks": 63840,
          "time": 58.33330125,
          "velocity": 0.2440944881889764
        },
        {
          "duration": 0.08771924999999925,
          "durationTicks": 96,
          "midi": 36,
          "name": "C2",
          "ticks": 63840,
          "time": 58.33330125,
          "velocity": 0.2440944881889764
        },
        {
          "duration": 0.08771924999999925,
          "durationTicks": 96,
          "midi": 43,
          "name": "G2",
          "ticks": 63840,
          "time": 58.33330125,
          "velocity": 0.2440944881889764
        },
        {
          "duration": 0.08771924999999925,
          "durationTicks": 96,
          "midi": 43,
          "name": "G2",
          "ticks": 63936,
          "time": 58.4210205,
          "velocity": 0.2440944881889764
        },
        {
          "duration": 0.08771924999999925,
          "durationTicks": 96,
          "midi": 36,
          "name": "C2",
          "ticks": 63936,
          "time": 58.4210205,
          "velocity": 0.2440944881889764
        },
        {
          "duration": 0.08771924999999925,
          "durationTicks": 96,
          "midi": 48,
          "name": "C3",
          "ticks": 63936,
          "time": 58.4210205,
          "velocity": 0.2440944881889764
        },
        {
          "duration": 0.08771924999999925,
          "durationTicks": 96,
          "midi": 43,
          "name": "G2",
          "ticks": 64032,
          "time": 58.50873975,
          "velocity": 0.2440944881889764
        },
        {
          "duration": 0.08771924999999925,
          "durationTicks": 96,
          "midi": 48,
          "name": "C3",
          "ticks": 64032,
          "time": 58.50873975,
          "velocity": 0.2440944881889764
        },
        {
          "duration": 0.08771924999999925,
          "durationTicks": 96,
          "midi": 36,
          "name": "C2",
          "ticks": 64032,
          "time": 58.50873975,
          "velocity": 0.2440944881889764
        },
        {
          "duration": 0.08771925000000635,
          "durationTicks": 96,
          "midi": 36,
          "name": "C2",
          "ticks": 64128,
          "time": 58.596458999999996,
          "velocity": 0.2440944881889764
        },
        {
          "duration": 0.08771925000000635,
          "durationTicks": 96,
          "midi": 43,
          "name": "G2",
          "ticks": 64128,
          "time": 58.596458999999996,
          "velocity": 0.2440944881889764
        },
        {
          "duration": 0.08771925000000635,
          "durationTicks": 96,
          "midi": 48,
          "name": "C3",
          "ticks": 64128,
          "time": 58.596458999999996,
          "velocity": 0.2440944881889764
        },
        {
          "duration": 0.08771924999999925,
          "durationTicks": 96,
          "midi": 43,
          "name": "G2",
          "ticks": 64224,
          "time": 58.68417825,
          "velocity": 0.2440944881889764
        },
        {
          "duration": 0.08771924999999925,
          "durationTicks": 96,
          "midi": 36,
          "name": "C2",
          "ticks": 64224,
          "time": 58.68417825,
          "velocity": 0.2440944881889764
        },
        {
          "duration": 0.08771924999999925,
          "durationTicks": 96,
          "midi": 48,
          "name": "C3",
          "ticks": 64224,
          "time": 58.68417825,
          "velocity": 0.2440944881889764
        },
        {
          "duration": 0.08771924999999925,
          "durationTicks": 96,
          "midi": 48,
          "name": "C3",
          "ticks": 64320,
          "time": 58.7718975,
          "velocity": 0.2440944881889764
        },
        {
          "duration": 0.08771924999999925,
          "durationTicks": 96,
          "midi": 36,
          "name": "C2",
          "ticks": 64320,
          "time": 58.7718975,
          "velocity": 0.2440944881889764
        },
        {
          "duration": 0.08771924999999925,
          "durationTicks": 96,
          "midi": 43,
          "name": "G2",
          "ticks": 64320,
          "time": 58.7718975,
          "velocity": 0.2440944881889764
        },
        {
          "duration": 0.08771924999999925,
          "durationTicks": 96,
          "midi": 48,
          "name": "C3",
          "ticks": 64416,
          "time": 58.85961675,
          "velocity": 0.2440944881889764
        },
        {
          "duration": 0.08771924999999925,
          "durationTicks": 96,
          "midi": 43,
          "name": "G2",
          "ticks": 64416,
          "time": 58.85961675,
          "velocity": 0.2440944881889764
        },
        {
          "duration": 0.08771924999999925,
          "durationTicks": 96,
          "midi": 36,
          "name": "C2",
          "ticks": 64416,
          "time": 58.85961675,
          "velocity": 0.2440944881889764
        },
        {
          "duration": 0.08771924999999925,
          "durationTicks": 96,
          "midi": 38,
          "name": "D2",
          "ticks": 64608,
          "time": 59.03505525,
          "velocity": 0.2440944881889764
        },
        {
          "duration": 0.08771924999999925,
          "durationTicks": 96,
          "midi": 45,
          "name": "A2",
          "ticks": 64608,
          "time": 59.03505525,
          "velocity": 0.2440944881889764
        },
        {
          "duration": 0.08771924999999925,
          "durationTicks": 96,
          "midi": 50,
          "name": "D3",
          "ticks": 64608,
          "time": 59.03505525,
          "velocity": 0.2440944881889764
        },
        {
          "duration": 0.08771924999999925,
          "durationTicks": 96,
          "midi": 38,
          "name": "D2",
          "ticks": 64704,
          "time": 59.1227745,
          "velocity": 0.2440944881889764
        },
        {
          "duration": 0.08771924999999925,
          "durationTicks": 96,
          "midi": 45,
          "name": "A2",
          "ticks": 64704,
          "time": 59.1227745,
          "velocity": 0.2440944881889764
        },
        {
          "duration": 0.08771924999999925,
          "durationTicks": 96,
          "midi": 50,
          "name": "D3",
          "ticks": 64704,
          "time": 59.1227745,
          "velocity": 0.2440944881889764
        },
        {
          "duration": 0.08771924999999925,
          "durationTicks": 96,
          "midi": 45,
          "name": "A2",
          "ticks": 64800,
          "time": 59.21049375,
          "velocity": 0.2440944881889764
        },
        {
          "duration": 0.08771924999999925,
          "durationTicks": 96,
          "midi": 38,
          "name": "D2",
          "ticks": 64800,
          "time": 59.21049375,
          "velocity": 0.2440944881889764
        },
        {
          "duration": 0.08771924999999925,
          "durationTicks": 96,
          "midi": 50,
          "name": "D3",
          "ticks": 64800,
          "time": 59.21049375,
          "velocity": 0.2440944881889764
        },
        {
          "duration": 0.08771924999999925,
          "durationTicks": 96,
          "midi": 50,
          "name": "D3",
          "ticks": 64896,
          "time": 59.298213,
          "velocity": 0.2440944881889764
        },
        {
          "duration": 0.08771924999999925,
          "durationTicks": 96,
          "midi": 38,
          "name": "D2",
          "ticks": 64896,
          "time": 59.298213,
          "velocity": 0.2440944881889764
        },
        {
          "duration": 0.08771924999999925,
          "durationTicks": 96,
          "midi": 45,
          "name": "A2",
          "ticks": 64896,
          "time": 59.298213,
          "velocity": 0.2440944881889764
        },
        {
          "duration": 0.08771925000000635,
          "durationTicks": 96,
          "midi": 45,
          "name": "A2",
          "ticks": 64992,
          "time": 59.385932249999996,
          "velocity": 0.2440944881889764
        },
        {
          "duration": 0.08771925000000635,
          "durationTicks": 96,
          "midi": 50,
          "name": "D3",
          "ticks": 64992,
          "time": 59.385932249999996,
          "velocity": 0.2440944881889764
        },
        {
          "duration": 0.08771925000000635,
          "durationTicks": 96,
          "midi": 38,
          "name": "D2",
          "ticks": 64992,
          "time": 59.385932249999996,
          "velocity": 0.2440944881889764
        },
        {
          "duration": 0.08771924999999925,
          "durationTicks": 96,
          "midi": 45,
          "name": "A2",
          "ticks": 65088,
          "time": 59.4736515,
          "velocity": 0.2440944881889764
        },
        {
          "duration": 0.08771924999999925,
          "durationTicks": 96,
          "midi": 50,
          "name": "D3",
          "ticks": 65088,
          "time": 59.4736515,
          "velocity": 0.2440944881889764
        },
        {
          "duration": 0.08771924999999925,
          "durationTicks": 96,
          "midi": 38,
          "name": "D2",
          "ticks": 65088,
          "time": 59.4736515,
          "velocity": 0.2440944881889764
        },
        {
          "duration": 0.08771924999999925,
          "durationTicks": 96,
          "midi": 50,
          "name": "D3",
          "ticks": 65184,
          "time": 59.56137075,
          "velocity": 0.2440944881889764
        },
        {
          "duration": 0.08771924999999925,
          "durationTicks": 96,
          "midi": 38,
          "name": "D2",
          "ticks": 65184,
          "time": 59.56137075,
          "velocity": 0.2440944881889764
        },
        {
          "duration": 0.08771924999999925,
          "durationTicks": 96,
          "midi": 45,
          "name": "A2",
          "ticks": 65184,
          "time": 59.56137075,
          "velocity": 0.2440944881889764
        },
        {
          "duration": 0.08771924999999925,
          "durationTicks": 96,
          "midi": 45,
          "name": "A2",
          "ticks": 65280,
          "time": 59.64909,
          "velocity": 0.2440944881889764
        },
        {
          "duration": 0.08771924999999925,
          "durationTicks": 96,
          "midi": 38,
          "name": "D2",
          "ticks": 65280,
          "time": 59.64909,
          "velocity": 0.2440944881889764
        },
        {
          "duration": 0.08771924999999925,
          "durationTicks": 96,
          "midi": 50,
          "name": "D3",
          "ticks": 65280,
          "time": 59.64909,
          "velocity": 0.2440944881889764
        },
        {
          "duration": 0.08771924999999925,
          "durationTicks": 96,
          "midi": 38,
          "name": "D2",
          "ticks": 65376,
          "time": 59.73680925,
          "velocity": 0.2440944881889764
        },
        {
          "duration": 0.08771924999999925,
          "durationTicks": 96,
          "midi": 45,
          "name": "A2",
          "ticks": 65376,
          "time": 59.73680925,
          "velocity": 0.2440944881889764
        },
        {
          "duration": 0.08771924999999925,
          "durationTicks": 96,
          "midi": 50,
          "name": "D3",
          "ticks": 65376,
          "time": 59.73680925,
          "velocity": 0.2440944881889764
        },
        {
          "duration": 0.08771924999999925,
          "durationTicks": 96,
          "midi": 50,
          "name": "D3",
          "ticks": 65472,
          "time": 59.8245285,
          "velocity": 0.2440944881889764
        },
        {
          "duration": 0.08771924999999925,
          "durationTicks": 96,
          "midi": 38,
          "name": "D2",
          "ticks": 65472,
          "time": 59.8245285,
          "velocity": 0.2440944881889764
        },
        {
          "duration": 0.08771924999999925,
          "durationTicks": 96,
          "midi": 45,
          "name": "A2",
          "ticks": 65472,
          "time": 59.8245285,
          "velocity": 0.2440944881889764
        },
        {
          "duration": 0.08771924999999925,
          "durationTicks": 96,
          "midi": 38,
          "name": "D2",
          "ticks": 65568,
          "time": 59.91224775,
          "velocity": 0.2440944881889764
        },
        {
          "duration": 0.08771924999999925,
          "durationTicks": 96,
          "midi": 45,
          "name": "A2",
          "ticks": 65568,
          "time": 59.91224775,
          "velocity": 0.2440944881889764
        },
        {
          "duration": 0.08771924999999925,
          "durationTicks": 96,
          "midi": 50,
          "name": "D3",
          "ticks": 65568,
          "time": 59.91224775,
          "velocity": 0.2440944881889764
        },
        {
          "duration": 0.08771924999999925,
          "durationTicks": 96,
          "midi": 38,
          "name": "D2",
          "ticks": 65664,
          "time": 59.999967,
          "velocity": 0.2440944881889764
        },
        {
          "duration": 0.08771924999999925,
          "durationTicks": 96,
          "midi": 50,
          "name": "D3",
          "ticks": 65664,
          "time": 59.999967,
          "velocity": 0.2440944881889764
        },
        {
          "duration": 0.08771924999999925,
          "durationTicks": 96,
          "midi": 45,
          "name": "A2",
          "ticks": 65664,
          "time": 59.999967,
          "velocity": 0.2440944881889764
        },
        {
          "duration": 0.08771924999999925,
          "durationTicks": 96,
          "midi": 45,
          "name": "A2",
          "ticks": 65760,
          "time": 60.08768625,
          "velocity": 0.2440944881889764
        },
        {
          "duration": 0.08771924999999925,
          "durationTicks": 96,
          "midi": 38,
          "name": "D2",
          "ticks": 65760,
          "time": 60.08768625,
          "velocity": 0.2440944881889764
        },
        {
          "duration": 0.08771924999999925,
          "durationTicks": 96,
          "midi": 50,
          "name": "D3",
          "ticks": 65760,
          "time": 60.08768625,
          "velocity": 0.2440944881889764
        },
        {
          "duration": 0.08771924999999925,
          "durationTicks": 96,
          "midi": 50,
          "name": "D3",
          "ticks": 65856,
          "time": 60.1754055,
          "velocity": 0.2440944881889764
        },
        {
          "duration": 0.08771924999999925,
          "durationTicks": 96,
          "midi": 38,
          "name": "D2",
          "ticks": 65856,
          "time": 60.1754055,
          "velocity": 0.2440944881889764
        },
        {
          "duration": 0.08771924999999925,
          "durationTicks": 96,
          "midi": 45,
          "name": "A2",
          "ticks": 65856,
          "time": 60.1754055,
          "velocity": 0.2440944881889764
        },
        {
          "duration": 0.08771925000000635,
          "durationTicks": 96,
          "midi": 38,
          "name": "D2",
          "ticks": 65952,
          "time": 60.263124749999996,
          "velocity": 0.2440944881889764
        },
        {
          "duration": 0.08771925000000635,
          "durationTicks": 96,
          "midi": 45,
          "name": "A2",
          "ticks": 65952,
          "time": 60.263124749999996,
          "velocity": 0.2440944881889764
        },
        {
          "duration": 0.08771925000000635,
          "durationTicks": 96,
          "midi": 50,
          "name": "D3",
          "ticks": 65952,
          "time": 60.263124749999996,
          "velocity": 0.2440944881889764
        },
        {
          "duration": 0.08771924999999925,
          "durationTicks": 96,
          "midi": 45,
          "name": "A2",
          "ticks": 66048,
          "time": 60.350844,
          "velocity": 0.2440944881889764
        },
        {
          "duration": 0.08771924999999925,
          "durationTicks": 96,
          "midi": 50,
          "name": "D3",
          "ticks": 66048,
          "time": 60.350844,
          "velocity": 0.2440944881889764
        },
        {
          "duration": 0.08771924999999925,
          "durationTicks": 96,
          "midi": 38,
          "name": "D2",
          "ticks": 66048,
          "time": 60.350844,
          "velocity": 0.2440944881889764
        },
        {
          "duration": 0.08771924999999925,
          "durationTicks": 96,
          "midi": 45,
          "name": "A2",
          "ticks": 66144,
          "time": 60.43856325,
          "velocity": 0.2440944881889764
        },
        {
          "duration": 0.08771924999999925,
          "durationTicks": 96,
          "midi": 50,
          "name": "D3",
          "ticks": 66144,
          "time": 60.43856325,
          "velocity": 0.2440944881889764
        },
        {
          "duration": 0.08771924999999925,
          "durationTicks": 96,
          "midi": 38,
          "name": "D2",
          "ticks": 66144,
          "time": 60.43856325,
          "velocity": 0.2440944881889764
        },
        {
          "duration": 0.08771924999999925,
          "durationTicks": 96,
          "midi": 45,
          "name": "A2",
          "ticks": 66240,
          "time": 60.5262825,
          "velocity": 0.2440944881889764
        },
        {
          "duration": 0.08771924999999925,
          "durationTicks": 96,
          "midi": 50,
          "name": "D3",
          "ticks": 66240,
          "time": 60.5262825,
          "velocity": 0.2440944881889764
        },
        {
          "duration": 0.08771924999999925,
          "durationTicks": 96,
          "midi": 38,
          "name": "D2",
          "ticks": 66240,
          "time": 60.5262825,
          "velocity": 0.2440944881889764
        },
        {
          "duration": 0.08771924999999925,
          "durationTicks": 96,
          "midi": 45,
          "name": "A2",
          "ticks": 66336,
          "time": 60.61400175,
          "velocity": 0.2440944881889764
        },
        {
          "duration": 0.08771924999999925,
          "durationTicks": 96,
          "midi": 50,
          "name": "D3",
          "ticks": 66336,
          "time": 60.61400175,
          "velocity": 0.2440944881889764
        },
        {
          "duration": 0.08771924999999925,
          "durationTicks": 96,
          "midi": 38,
          "name": "D2",
          "ticks": 66336,
          "time": 60.61400175,
          "velocity": 0.2440944881889764
        },
        {
          "duration": 0.08771924999999925,
          "durationTicks": 96,
          "midi": 50,
          "name": "D3",
          "ticks": 66432,
          "time": 60.701721,
          "velocity": 0.2440944881889764
        },
        {
          "duration": 0.08771924999999925,
          "durationTicks": 96,
          "midi": 45,
          "name": "A2",
          "ticks": 66432,
          "time": 60.701721,
          "velocity": 0.2440944881889764
        },
        {
          "duration": 0.08771924999999925,
          "durationTicks": 96,
          "midi": 38,
          "name": "D2",
          "ticks": 66432,
          "time": 60.701721,
          "velocity": 0.2440944881889764
        },
        {
          "duration": 0.08771924999999925,
          "durationTicks": 96,
          "midi": 45,
          "name": "A2",
          "ticks": 66528,
          "time": 60.78944025,
          "velocity": 0.2440944881889764
        },
        {
          "duration": 0.08771924999999925,
          "durationTicks": 96,
          "midi": 38,
          "name": "D2",
          "ticks": 66528,
          "time": 60.78944025,
          "velocity": 0.2440944881889764
        },
        {
          "duration": 0.08771924999999925,
          "durationTicks": 96,
          "midi": 50,
          "name": "D3",
          "ticks": 66528,
          "time": 60.78944025,
          "velocity": 0.2440944881889764
        },
        {
          "duration": 0.08771924999999925,
          "durationTicks": 96,
          "midi": 50,
          "name": "D3",
          "ticks": 66624,
          "time": 60.8771595,
          "velocity": 0.2440944881889764
        },
        {
          "duration": 0.08771924999999925,
          "durationTicks": 96,
          "midi": 45,
          "name": "A2",
          "ticks": 66624,
          "time": 60.8771595,
          "velocity": 0.2440944881889764
        },
        {
          "duration": 0.08771924999999925,
          "durationTicks": 96,
          "midi": 38,
          "name": "D2",
          "ticks": 66624,
          "time": 60.8771595,
          "velocity": 0.2440944881889764
        },
        {
          "duration": 0.08771924999999925,
          "durationTicks": 96,
          "midi": 38,
          "name": "D2",
          "ticks": 66720,
          "time": 60.96487875,
          "velocity": 0.2440944881889764
        },
        {
          "duration": 0.08771924999999925,
          "durationTicks": 96,
          "midi": 45,
          "name": "A2",
          "ticks": 66720,
          "time": 60.96487875,
          "velocity": 0.2440944881889764
        },
        {
          "duration": 0.08771924999999925,
          "durationTicks": 96,
          "midi": 50,
          "name": "D3",
          "ticks": 66720,
          "time": 60.96487875,
          "velocity": 0.2440944881889764
        },
        {
          "duration": 0.08771925000000635,
          "durationTicks": 96,
          "midi": 50,
          "name": "D3",
          "ticks": 66816,
          "time": 61.052597999999996,
          "velocity": 0.2440944881889764
        },
        {
          "duration": 0.08771925000000635,
          "durationTicks": 96,
          "midi": 38,
          "name": "D2",
          "ticks": 66816,
          "time": 61.052597999999996,
          "velocity": 0.2440944881889764
        },
        {
          "duration": 0.08771925000000635,
          "durationTicks": 96,
          "midi": 45,
          "name": "A2",
          "ticks": 66816,
          "time": 61.052597999999996,
          "velocity": 0.2440944881889764
        },
        {
          "duration": 0.08771924999999925,
          "durationTicks": 96,
          "midi": 38,
          "name": "D2",
          "ticks": 66912,
          "time": 61.14031725,
          "velocity": 0.2440944881889764
        },
        {
          "duration": 0.08771924999999925,
          "durationTicks": 96,
          "midi": 50,
          "name": "D3",
          "ticks": 66912,
          "time": 61.14031725,
          "velocity": 0.2440944881889764
        },
        {
          "duration": 0.08771924999999925,
          "durationTicks": 96,
          "midi": 45,
          "name": "A2",
          "ticks": 66912,
          "time": 61.14031725,
          "velocity": 0.2440944881889764
        },
        {
          "duration": 0.08771924999999925,
          "durationTicks": 96,
          "midi": 38,
          "name": "D2",
          "ticks": 67008,
          "time": 61.2280365,
          "velocity": 0.2440944881889764
        },
        {
          "duration": 0.08771924999999925,
          "durationTicks": 96,
          "midi": 50,
          "name": "D3",
          "ticks": 67008,
          "time": 61.2280365,
          "velocity": 0.2440944881889764
        },
        {
          "duration": 0.08771924999999925,
          "durationTicks": 96,
          "midi": 45,
          "name": "A2",
          "ticks": 67008,
          "time": 61.2280365,
          "velocity": 0.2440944881889764
        },
        {
          "duration": 0.08771924999999925,
          "durationTicks": 96,
          "midi": 38,
          "name": "D2",
          "ticks": 67104,
          "time": 61.31575575,
          "velocity": 0.2440944881889764
        },
        {
          "duration": 0.08771924999999925,
          "durationTicks": 96,
          "midi": 45,
          "name": "A2",
          "ticks": 67104,
          "time": 61.31575575,
          "velocity": 0.2440944881889764
        },
        {
          "duration": 0.08771924999999925,
          "durationTicks": 96,
          "midi": 50,
          "name": "D3",
          "ticks": 67104,
          "time": 61.31575575,
          "velocity": 0.2440944881889764
        },
        {
          "duration": 0.08771924999999925,
          "durationTicks": 96,
          "midi": 50,
          "name": "D3",
          "ticks": 67200,
          "time": 61.403475,
          "velocity": 0.2440944881889764
        },
        {
          "duration": 0.08771924999999925,
          "durationTicks": 96,
          "midi": 45,
          "name": "A2",
          "ticks": 67200,
          "time": 61.403475,
          "velocity": 0.2440944881889764
        },
        {
          "duration": 0.08771924999999925,
          "durationTicks": 96,
          "midi": 38,
          "name": "D2",
          "ticks": 67200,
          "time": 61.403475,
          "velocity": 0.2440944881889764
        },
        {
          "duration": 0.08771924999999925,
          "durationTicks": 96,
          "midi": 38,
          "name": "D2",
          "ticks": 67296,
          "time": 61.49119425,
          "velocity": 0.2440944881889764
        },
        {
          "duration": 0.08771924999999925,
          "durationTicks": 96,
          "midi": 45,
          "name": "A2",
          "ticks": 67296,
          "time": 61.49119425,
          "velocity": 0.2440944881889764
        },
        {
          "duration": 0.08771924999999925,
          "durationTicks": 96,
          "midi": 50,
          "name": "D3",
          "ticks": 67296,
          "time": 61.49119425,
          "velocity": 0.2440944881889764
        },
        {
          "duration": 0.08771924999999925,
          "durationTicks": 96,
          "midi": 50,
          "name": "D3",
          "ticks": 67392,
          "time": 61.5789135,
          "velocity": 0.2440944881889764
        },
        {
          "duration": 0.08771924999999925,
          "durationTicks": 96,
          "midi": 38,
          "name": "D2",
          "ticks": 67392,
          "time": 61.5789135,
          "velocity": 0.2440944881889764
        },
        {
          "duration": 0.08771924999999925,
          "durationTicks": 96,
          "midi": 45,
          "name": "A2",
          "ticks": 67392,
          "time": 61.5789135,
          "velocity": 0.2440944881889764
        },
        {
          "duration": 0.08771924999999925,
          "durationTicks": 96,
          "midi": 45,
          "name": "A2",
          "ticks": 67488,
          "time": 61.66663275,
          "velocity": 0.2440944881889764
        },
        {
          "duration": 0.08771924999999925,
          "durationTicks": 96,
          "midi": 38,
          "name": "D2",
          "ticks": 67488,
          "time": 61.66663275,
          "velocity": 0.2440944881889764
        },
        {
          "duration": 0.08771924999999925,
          "durationTicks": 96,
          "midi": 50,
          "name": "D3",
          "ticks": 67488,
          "time": 61.66663275,
          "velocity": 0.2440944881889764
        },
        {
          "duration": 0.08771924999999925,
          "durationTicks": 96,
          "midi": 51,
          "name": "D#3",
          "ticks": 67680,
          "time": 61.84207125,
          "velocity": 0.2440944881889764
        },
        {
          "duration": 0.08771924999999925,
          "durationTicks": 96,
          "midi": 39,
          "name": "D#2",
          "ticks": 67680,
          "time": 61.84207125,
          "velocity": 0.2440944881889764
        },
        {
          "duration": 0.08771924999999925,
          "durationTicks": 96,
          "midi": 46,
          "name": "A#2",
          "ticks": 67680,
          "time": 61.84207125,
          "velocity": 0.2440944881889764
        },
        {
          "duration": 0.08771925000000635,
          "durationTicks": 96,
          "midi": 51,
          "name": "D#3",
          "ticks": 67776,
          "time": 61.929790499999996,
          "velocity": 0.2440944881889764
        },
        {
          "duration": 0.1754385000000056,
          "durationTicks": 192,
          "midi": 51,
          "name": "D#3",
          "ticks": 67776,
          "time": 61.929790499999996,
          "velocity": 0.2440944881889764
        },
        {
          "duration": 0.08771925000000635,
          "durationTicks": 96,
          "midi": 39,
          "name": "D#2",
          "ticks": 67776,
          "time": 61.929790499999996,
          "velocity": 0.2440944881889764
        },
        {
          "duration": 0.1754385000000056,
          "durationTicks": 192,
          "midi": 39,
          "name": "D#2",
          "ticks": 67776,
          "time": 61.929790499999996,
          "velocity": 0.2440944881889764
        },
        {
          "duration": 0.08771925000000635,
          "durationTicks": 96,
          "midi": 46,
          "name": "A#2",
          "ticks": 67776,
          "time": 61.929790499999996,
          "velocity": 0.2440944881889764
        },
        {
          "duration": 0.1754385000000056,
          "durationTicks": 192,
          "midi": 46,
          "name": "A#2",
          "ticks": 67776,
          "time": 61.929790499999996,
          "velocity": 0.2440944881889764
        },
        {
          "duration": 0.1754384999999985,
          "durationTicks": 192,
          "midi": 51,
          "name": "D#3",
          "ticks": 67872,
          "time": 62.01750975,
          "velocity": 0.2440944881889764
        },
        {
          "duration": 0.1754384999999985,
          "durationTicks": 192,
          "midi": 39,
          "name": "D#2",
          "ticks": 67872,
          "time": 62.01750975,
          "velocity": 0.2440944881889764
        },
        {
          "duration": 0.1754384999999985,
          "durationTicks": 192,
          "midi": 46,
          "name": "A#2",
          "ticks": 67872,
          "time": 62.01750975,
          "velocity": 0.2440944881889764
        },
        {
          "duration": 0.1754384999999985,
          "durationTicks": 192,
          "midi": 46,
          "name": "A#2",
          "ticks": 67968,
          "time": 62.105229,
          "velocity": 0.2440944881889764
        },
        {
          "duration": 0.1754384999999985,
          "durationTicks": 192,
          "midi": 51,
          "name": "D#3",
          "ticks": 67968,
          "time": 62.105229,
          "velocity": 0.2440944881889764
        },
        {
          "duration": 0.1754384999999985,
          "durationTicks": 192,
          "midi": 39,
          "name": "D#2",
          "ticks": 67968,
          "time": 62.105229,
          "velocity": 0.2440944881889764
        },
        {
          "duration": 0.08771924999999925,
          "durationTicks": 96,
          "midi": 39,
          "name": "D#2",
          "ticks": 68064,
          "time": 62.19294825,
          "velocity": 0.2440944881889764
        },
        {
          "duration": 0.08771924999999925,
          "durationTicks": 96,
          "midi": 46,
          "name": "A#2",
          "ticks": 68064,
          "time": 62.19294825,
          "velocity": 0.2440944881889764
        },
        {
          "duration": 0.08771924999999925,
          "durationTicks": 96,
          "midi": 51,
          "name": "D#3",
          "ticks": 68064,
          "time": 62.19294825,
          "velocity": 0.2440944881889764
        },
        {
          "duration": 0.08771924999999925,
          "durationTicks": 96,
          "midi": 51,
          "name": "D#3",
          "ticks": 68160,
          "time": 62.2806675,
          "velocity": 0.2440944881889764
        },
        {
          "duration": 0.08771924999999925,
          "durationTicks": 96,
          "midi": 46,
          "name": "A#2",
          "ticks": 68160,
          "time": 62.2806675,
          "velocity": 0.2440944881889764
        },
        {
          "duration": 0.1754384999999985,
          "durationTicks": 192,
          "midi": 51,
          "name": "D#3",
          "ticks": 68160,
          "time": 62.2806675,
          "velocity": 0.2440944881889764
        },
        {
          "duration": 0.1754384999999985,
          "durationTicks": 192,
          "midi": 46,
          "name": "A#2",
          "ticks": 68160,
          "time": 62.2806675,
          "velocity": 0.2440944881889764
        },
        {
          "duration": 0.08771924999999925,
          "durationTicks": 96,
          "midi": 39,
          "name": "D#2",
          "ticks": 68160,
          "time": 62.2806675,
          "velocity": 0.2440944881889764
        },
        {
          "duration": 0.1754384999999985,
          "durationTicks": 192,
          "midi": 39,
          "name": "D#2",
          "ticks": 68160,
          "time": 62.2806675,
          "velocity": 0.2440944881889764
        },
        {
          "duration": 0.1754384999999985,
          "durationTicks": 192,
          "midi": 39,
          "name": "D#2",
          "ticks": 68256,
          "time": 62.36838675,
          "velocity": 0.2440944881889764
        },
        {
          "duration": 0.1754384999999985,
          "durationTicks": 192,
          "midi": 51,
          "name": "D#3",
          "ticks": 68256,
          "time": 62.36838675,
          "velocity": 0.2440944881889764
        },
        {
          "duration": 0.1754384999999985,
          "durationTicks": 192,
          "midi": 46,
          "name": "A#2",
          "ticks": 68256,
          "time": 62.36838675,
          "velocity": 0.2440944881889764
        },
        {
          "duration": 0.1754384999999985,
          "durationTicks": 192,
          "midi": 39,
          "name": "D#2",
          "ticks": 68352,
          "time": 62.456106,
          "velocity": 0.2440944881889764
        },
        {
          "duration": 0.1754384999999985,
          "durationTicks": 192,
          "midi": 46,
          "name": "A#2",
          "ticks": 68352,
          "time": 62.456106,
          "velocity": 0.2440944881889764
        },
        {
          "duration": 0.1754384999999985,
          "durationTicks": 192,
          "midi": 51,
          "name": "D#3",
          "ticks": 68352,
          "time": 62.456106,
          "velocity": 0.2440944881889764
        },
        {
          "duration": 0.08771924999999925,
          "durationTicks": 96,
          "midi": 51,
          "name": "D#3",
          "ticks": 68448,
          "time": 62.54382525,
          "velocity": 0.2440944881889764
        },
        {
          "duration": 0.08771924999999925,
          "durationTicks": 96,
          "midi": 46,
          "name": "A#2",
          "ticks": 68448,
          "time": 62.54382525,
          "velocity": 0.2440944881889764
        },
        {
          "duration": 0.08771924999999925,
          "durationTicks": 96,
          "midi": 39,
          "name": "D#2",
          "ticks": 68448,
          "time": 62.54382525,
          "velocity": 0.2440944881889764
        },
        {
          "duration": 0.08771924999999925,
          "durationTicks": 96,
          "midi": 39,
          "name": "D#2",
          "ticks": 68544,
          "time": 62.6315445,
          "velocity": 0.2440944881889764
        },
        {
          "duration": 0.08771924999999925,
          "durationTicks": 96,
          "midi": 46,
          "name": "A#2",
          "ticks": 68544,
          "time": 62.6315445,
          "velocity": 0.2440944881889764
        },
        {
          "duration": 0.08771924999999925,
          "durationTicks": 96,
          "midi": 51,
          "name": "D#3",
          "ticks": 68544,
          "time": 62.6315445,
          "velocity": 0.2440944881889764
        },
        {
          "duration": 0.08771925000000635,
          "durationTicks": 96,
          "midi": 46,
          "name": "A#2",
          "ticks": 68640,
          "time": 62.719263749999996,
          "velocity": 0.2440944881889764
        },
        {
          "duration": 0.08771925000000635,
          "durationTicks": 96,
          "midi": 51,
          "name": "D#3",
          "ticks": 68640,
          "time": 62.719263749999996,
          "velocity": 0.2440944881889764
        },
        {
          "duration": 0.08771925000000635,
          "durationTicks": 96,
          "midi": 39,
          "name": "D#2",
          "ticks": 68640,
          "time": 62.719263749999996,
          "velocity": 0.2440944881889764
        },
        {
          "duration": 0.08771924999999925,
          "durationTicks": 96,
          "midi": 46,
          "name": "A#2",
          "ticks": 68736,
          "time": 62.806983,
          "velocity": 0.2440944881889764
        },
        {
          "duration": 0.1754384999999985,
          "durationTicks": 192,
          "midi": 46,
          "name": "A#2",
          "ticks": 68736,
          "time": 62.806983,
          "velocity": 0.2440944881889764
        },
        {
          "duration": 0.08771924999999925,
          "durationTicks": 96,
          "midi": 39,
          "name": "D#2",
          "ticks": 68736,
          "time": 62.806983,
          "velocity": 0.2440944881889764
        },
        {
          "duration": 0.08771924999999925,
          "durationTicks": 96,
          "midi": 51,
          "name": "D#3",
          "ticks": 68736,
          "time": 62.806983,
          "velocity": 0.2440944881889764
        },
        {
          "duration": 0.1754384999999985,
          "durationTicks": 192,
          "midi": 51,
          "name": "D#3",
          "ticks": 68736,
          "time": 62.806983,
          "velocity": 0.2440944881889764
        },
        {
          "duration": 0.1754384999999985,
          "durationTicks": 192,
          "midi": 39,
          "name": "D#2",
          "ticks": 68736,
          "time": 62.806983,
          "velocity": 0.2440944881889764
        },
        {
          "duration": 0.1754384999999985,
          "durationTicks": 192,
          "midi": 46,
          "name": "A#2",
          "ticks": 68832,
          "time": 62.89470225,
          "velocity": 0.2440944881889764
        },
        {
          "duration": 0.1754384999999985,
          "durationTicks": 192,
          "midi": 39,
          "name": "D#2",
          "ticks": 68832,
          "time": 62.89470225,
          "velocity": 0.2440944881889764
        },
        {
          "duration": 0.1754384999999985,
          "durationTicks": 192,
          "midi": 51,
          "name": "D#3",
          "ticks": 68832,
          "time": 62.89470225,
          "velocity": 0.2440944881889764
        },
        {
          "duration": 0.1754384999999985,
          "durationTicks": 192,
          "midi": 39,
          "name": "D#2",
          "ticks": 68928,
          "time": 62.9824215,
          "velocity": 0.2440944881889764
        },
        {
          "duration": 0.1754384999999985,
          "durationTicks": 192,
          "midi": 46,
          "name": "A#2",
          "ticks": 68928,
          "time": 62.9824215,
          "velocity": 0.2440944881889764
        },
        {
          "duration": 0.1754384999999985,
          "durationTicks": 192,
          "midi": 51,
          "name": "D#3",
          "ticks": 68928,
          "time": 62.9824215,
          "velocity": 0.2440944881889764
        },
        {
          "duration": 0.08771924999999925,
          "durationTicks": 96,
          "midi": 46,
          "name": "A#2",
          "ticks": 69024,
          "time": 63.07014075,
          "velocity": 0.2440944881889764
        },
        {
          "duration": 0.08771924999999925,
          "durationTicks": 96,
          "midi": 39,
          "name": "D#2",
          "ticks": 69024,
          "time": 63.07014075,
          "velocity": 0.2440944881889764
        },
        {
          "duration": 0.08771924999999925,
          "durationTicks": 96,
          "midi": 51,
          "name": "D#3",
          "ticks": 69024,
          "time": 63.07014075,
          "velocity": 0.2440944881889764
        },
        {
          "duration": 0.08771924999999925,
          "durationTicks": 96,
          "midi": 51,
          "name": "D#3",
          "ticks": 69120,
          "time": 63.15786,
          "velocity": 0.2440944881889764
        },
        {
          "duration": 0.08771924999999925,
          "durationTicks": 96,
          "midi": 46,
          "name": "A#2",
          "ticks": 69120,
          "time": 63.15786,
          "velocity": 0.2440944881889764
        },
        {
          "duration": 0.08771924999999925,
          "durationTicks": 96,
          "midi": 39,
          "name": "D#2",
          "ticks": 69120,
          "time": 63.15786,
          "velocity": 0.2440944881889764
        },
        {
          "duration": 0.08771924999999925,
          "durationTicks": 96,
          "midi": 39,
          "name": "D#2",
          "ticks": 69216,
          "time": 63.24557925,
          "velocity": 0.2440944881889764
        },
        {
          "duration": 0.08771924999999925,
          "durationTicks": 96,
          "midi": 51,
          "name": "D#3",
          "ticks": 69216,
          "time": 63.24557925,
          "velocity": 0.2440944881889764
        },
        {
          "duration": 0.08771924999999925,
          "durationTicks": 96,
          "midi": 46,
          "name": "A#2",
          "ticks": 69216,
          "time": 63.24557925,
          "velocity": 0.2440944881889764
        },
        {
          "duration": 0.08771924999999925,
          "durationTicks": 96,
          "midi": 39,
          "name": "D#2",
          "ticks": 69312,
          "time": 63.3332985,
          "velocity": 0.2440944881889764
        },
        {
          "duration": 0.08771924999999925,
          "durationTicks": 96,
          "midi": 51,
          "name": "D#3",
          "ticks": 69312,
          "time": 63.3332985,
          "velocity": 0.2440944881889764
        },
        {
          "duration": 0.08771924999999925,
          "durationTicks": 96,
          "midi": 46,
          "name": "A#2",
          "ticks": 69312,
          "time": 63.3332985,
          "velocity": 0.2440944881889764
        },
        {
          "duration": 0.1754384999999985,
          "durationTicks": 192,
          "midi": 46,
          "name": "A#2",
          "ticks": 69312,
          "time": 63.3332985,
          "velocity": 0.2440944881889764
        },
        {
          "duration": 0.1754384999999985,
          "durationTicks": 192,
          "midi": 39,
          "name": "D#2",
          "ticks": 69312,
          "time": 63.3332985,
          "velocity": 0.2440944881889764
        },
        {
          "duration": 0.1754384999999985,
          "durationTicks": 192,
          "midi": 51,
          "name": "D#3",
          "ticks": 69312,
          "time": 63.3332985,
          "velocity": 0.2440944881889764
        },
        {
          "duration": 0.1754384999999985,
          "durationTicks": 192,
          "midi": 39,
          "name": "D#2",
          "ticks": 69408,
          "time": 63.42101775,
          "velocity": 0.2440944881889764
        },
        {
          "duration": 0.1754384999999985,
          "durationTicks": 192,
          "midi": 51,
          "name": "D#3",
          "ticks": 69408,
          "time": 63.42101775,
          "velocity": 0.2440944881889764
        },
        {
          "duration": 0.1754384999999985,
          "durationTicks": 192,
          "midi": 46,
          "name": "A#2",
          "ticks": 69408,
          "time": 63.42101775,
          "velocity": 0.2440944881889764
        },
        {
          "duration": 0.1754385000000056,
          "durationTicks": 192,
          "midi": 39,
          "name": "D#2",
          "ticks": 69504,
          "time": 63.508736999999996,
          "velocity": 0.2440944881889764
        },
        {
          "duration": 0.1754385000000056,
          "durationTicks": 192,
          "midi": 46,
          "name": "A#2",
          "ticks": 69504,
          "time": 63.508736999999996,
          "velocity": 0.2440944881889764
        },
        {
          "duration": 0.1754385000000056,
          "durationTicks": 192,
          "midi": 51,
          "name": "D#3",
          "ticks": 69504,
          "time": 63.508736999999996,
          "velocity": 0.2440944881889764
        },
        {
          "duration": 0.08771925000000635,
          "durationTicks": 96,
          "midi": 51,
          "name": "D#3",
          "ticks": 69600,
          "time": 63.596456249999996,
          "velocity": 0.2440944881889764
        },
        {
          "duration": 0.08771925000000635,
          "durationTicks": 96,
          "midi": 46,
          "name": "A#2",
          "ticks": 69600,
          "time": 63.596456249999996,
          "velocity": 0.2440944881889764
        },
        {
          "duration": 0.08771925000000635,
          "durationTicks": 96,
          "midi": 39,
          "name": "D#2",
          "ticks": 69600,
          "time": 63.596456249999996,
          "velocity": 0.2440944881889764
        },
        {
          "duration": 0.08771924999999925,
          "durationTicks": 96,
          "midi": 39,
          "name": "D#2",
          "ticks": 69696,
          "time": 63.6841755,
          "velocity": 0.2440944881889764
        },
        {
          "duration": 0.1754384999999985,
          "durationTicks": 192,
          "midi": 39,
          "name": "D#2",
          "ticks": 69696,
          "time": 63.6841755,
          "velocity": 0.2440944881889764
        },
        {
          "duration": 0.08771924999999925,
          "durationTicks": 96,
          "midi": 51,
          "name": "D#3",
          "ticks": 69696,
          "time": 63.6841755,
          "velocity": 0.2440944881889764
        },
        {
          "duration": 0.08771924999999925,
          "durationTicks": 96,
          "midi": 46,
          "name": "A#2",
          "ticks": 69696,
          "time": 63.6841755,
          "velocity": 0.2440944881889764
        },
        {
          "duration": 0.1754384999999985,
          "durationTicks": 192,
          "midi": 51,
          "name": "D#3",
          "ticks": 69696,
          "time": 63.6841755,
          "velocity": 0.2440944881889764
        },
        {
          "duration": 0.1754384999999985,
          "durationTicks": 192,
          "midi": 46,
          "name": "A#2",
          "ticks": 69696,
          "time": 63.6841755,
          "velocity": 0.2440944881889764
        },
        {
          "duration": 0.1754384999999985,
          "durationTicks": 192,
          "midi": 51,
          "name": "D#3",
          "ticks": 69792,
          "time": 63.77189475,
          "velocity": 0.2440944881889764
        },
        {
          "duration": 0.1754384999999985,
          "durationTicks": 192,
          "midi": 39,
          "name": "D#2",
          "ticks": 69792,
          "time": 63.77189475,
          "velocity": 0.2440944881889764
        },
        {
          "duration": 0.1754384999999985,
          "durationTicks": 192,
          "midi": 46,
          "name": "A#2",
          "ticks": 69792,
          "time": 63.77189475,
          "velocity": 0.2440944881889764
        },
        {
          "duration": 0.1754384999999914,
          "durationTicks": 192,
          "midi": 46,
          "name": "A#2",
          "ticks": 69888,
          "time": 63.859614,
          "velocity": 0.2440944881889764
        },
        {
          "duration": 0.1754384999999914,
          "durationTicks": 192,
          "midi": 51,
          "name": "D#3",
          "ticks": 69888,
          "time": 63.859614,
          "velocity": 0.2440944881889764
        },
        {
          "duration": 0.1754384999999914,
          "durationTicks": 192,
          "midi": 39,
          "name": "D#2",
          "ticks": 69888,
          "time": 63.859614,
          "velocity": 0.2440944881889764
        },
        {
          "duration": 0.08771924999999214,
          "durationTicks": 96,
          "midi": 51,
          "name": "D#3",
          "ticks": 69984,
          "time": 63.94733325,
          "velocity": 0.2440944881889764
        },
        {
          "duration": 0.08771924999999214,
          "durationTicks": 96,
          "midi": 39,
          "name": "D#2",
          "ticks": 69984,
          "time": 63.94733325,
          "velocity": 0.2440944881889764
        },
        {
          "duration": 0.08771924999999214,
          "durationTicks": 96,
          "midi": 46,
          "name": "A#2",
          "ticks": 69984,
          "time": 63.94733325,
          "velocity": 0.2440944881889764
        },
        {
          "duration": 0.08771925000000635,
          "durationTicks": 96,
          "midi": 46,
          "name": "A#2",
          "ticks": 70080,
          "time": 64.03505249999999,
          "velocity": 0.2440944881889764
        },
        {
          "duration": 0.08771925000000635,
          "durationTicks": 96,
          "midi": 51,
          "name": "D#3",
          "ticks": 70080,
          "time": 64.03505249999999,
          "velocity": 0.2440944881889764
        },
        {
          "duration": 0.08771925000000635,
          "durationTicks": 96,
          "midi": 39,
          "name": "D#2",
          "ticks": 70080,
          "time": 64.03505249999999,
          "velocity": 0.2440944881889764
        },
        {
          "duration": 0.08771925000000635,
          "durationTicks": 96,
          "midi": 46,
          "name": "A#2",
          "ticks": 70176,
          "time": 64.12277175,
          "velocity": 0.2440944881889764
        },
        {
          "duration": 0.08771925000000635,
          "durationTicks": 96,
          "midi": 51,
          "name": "D#3",
          "ticks": 70176,
          "time": 64.12277175,
          "velocity": 0.2440944881889764
        },
        {
          "duration": 0.08771925000000635,
          "durationTicks": 96,
          "midi": 39,
          "name": "D#2",
          "ticks": 70176,
          "time": 64.12277175,
          "velocity": 0.2440944881889764
        },
        {
          "duration": 0.08771924999999214,
          "durationTicks": 96,
          "midi": 39,
          "name": "D#2",
          "ticks": 70272,
          "time": 64.210491,
          "velocity": 0.2440944881889764
        },
        {
          "duration": 0.1754384999999985,
          "durationTicks": 192,
          "midi": 39,
          "name": "D#2",
          "ticks": 70272,
          "time": 64.210491,
          "velocity": 0.2440944881889764
        },
        {
          "duration": 0.08771924999999214,
          "durationTicks": 96,
          "midi": 46,
          "name": "A#2",
          "ticks": 70272,
          "time": 64.210491,
          "velocity": 0.2440944881889764
        },
        {
          "duration": 0.1754384999999985,
          "durationTicks": 192,
          "midi": 46,
          "name": "A#2",
          "ticks": 70272,
          "time": 64.210491,
          "velocity": 0.2440944881889764
        },
        {
          "duration": 0.08771924999999214,
          "durationTicks": 96,
          "midi": 51,
          "name": "D#3",
          "ticks": 70272,
          "time": 64.210491,
          "velocity": 0.2440944881889764
        },
        {
          "duration": 0.1754384999999985,
          "durationTicks": 192,
          "midi": 51,
          "name": "D#3",
          "ticks": 70272,
          "time": 64.210491,
          "velocity": 0.2440944881889764
        },
        {
          "duration": 0.1754384999999985,
          "durationTicks": 192,
          "midi": 51,
          "name": "D#3",
          "ticks": 70368,
          "time": 64.29821025,
          "velocity": 0.2440944881889764
        },
        {
          "duration": 0.1754384999999985,
          "durationTicks": 192,
          "midi": 46,
          "name": "A#2",
          "ticks": 70368,
          "time": 64.29821025,
          "velocity": 0.2440944881889764
        },
        {
          "duration": 0.1754384999999985,
          "durationTicks": 192,
          "midi": 39,
          "name": "D#2",
          "ticks": 70368,
          "time": 64.29821025,
          "velocity": 0.2440944881889764
        },
        {
          "duration": 0.1754384999999985,
          "durationTicks": 192,
          "midi": 51,
          "name": "D#3",
          "ticks": 70464,
          "time": 64.3859295,
          "velocity": 0.2440944881889764
        },
        {
          "duration": 0.1754384999999985,
          "durationTicks": 192,
          "midi": 39,
          "name": "D#2",
          "ticks": 70464,
          "time": 64.3859295,
          "velocity": 0.2440944881889764
        },
        {
          "duration": 0.1754384999999985,
          "durationTicks": 192,
          "midi": 46,
          "name": "A#2",
          "ticks": 70464,
          "time": 64.3859295,
          "velocity": 0.2440944881889764
        },
        {
          "duration": 0.08771925000000635,
          "durationTicks": 96,
          "midi": 46,
          "name": "A#2",
          "ticks": 70560,
          "time": 64.47364875,
          "velocity": 0.2440944881889764
        },
        {
          "duration": 0.08771925000000635,
          "durationTicks": 96,
          "midi": 39,
          "name": "D#2",
          "ticks": 70560,
          "time": 64.47364875,
          "velocity": 0.2440944881889764
        },
        {
          "duration": 0.08771925000000635,
          "durationTicks": 96,
          "midi": 51,
          "name": "D#3",
          "ticks": 70560,
          "time": 64.47364875,
          "velocity": 0.2440944881889764
        },
        {
          "duration": 0.08771925000000635,
          "durationTicks": 96,
          "midi": 41,
          "name": "F2",
          "ticks": 70752,
          "time": 64.64908725,
          "velocity": 0.2440944881889764
        },
        {
          "duration": 0.08771925000000635,
          "durationTicks": 96,
          "midi": 48,
          "name": "C3",
          "ticks": 70752,
          "time": 64.64908725,
          "velocity": 0.2440944881889764
        },
        {
          "duration": 0.08771925000000635,
          "durationTicks": 96,
          "midi": 53,
          "name": "F3",
          "ticks": 70752,
          "time": 64.64908725,
          "velocity": 0.2440944881889764
        },
        {
          "duration": 0.08771924999999214,
          "durationTicks": 96,
          "midi": 48,
          "name": "C3",
          "ticks": 70848,
          "time": 64.7368065,
          "velocity": 0.2440944881889764
        },
        {
          "duration": 0.08771924999999214,
          "durationTicks": 96,
          "midi": 41,
          "name": "F2",
          "ticks": 70848,
          "time": 64.7368065,
          "velocity": 0.2440944881889764
        },
        {
          "duration": 0.08771924999999214,
          "durationTicks": 96,
          "midi": 53,
          "name": "F3",
          "ticks": 70848,
          "time": 64.7368065,
          "velocity": 0.2440944881889764
        },
        {
          "duration": 0.08771925000000635,
          "durationTicks": 96,
          "midi": 53,
          "name": "F3",
          "ticks": 70944,
          "time": 64.82452574999999,
          "velocity": 0.2440944881889764
        },
        {
          "duration": 0.08771925000000635,
          "durationTicks": 96,
          "midi": 48,
          "name": "C3",
          "ticks": 70944,
          "time": 64.82452574999999,
          "velocity": 0.2440944881889764
        },
        {
          "duration": 0.08771925000000635,
          "durationTicks": 96,
          "midi": 41,
          "name": "F2",
          "ticks": 70944,
          "time": 64.82452574999999,
          "velocity": 0.2440944881889764
        },
        {
          "duration": 0.08771925000000635,
          "durationTicks": 96,
          "midi": 48,
          "name": "C3",
          "ticks": 71040,
          "time": 64.912245,
          "velocity": 0.2440944881889764
        },
        {
          "duration": 0.08771925000000635,
          "durationTicks": 96,
          "midi": 53,
          "name": "F3",
          "ticks": 71040,
          "time": 64.912245,
          "velocity": 0.2440944881889764
        },
        {
          "duration": 0.08771925000000635,
          "durationTicks": 96,
          "midi": 41,
          "name": "F2",
          "ticks": 71040,
          "time": 64.912245,
          "velocity": 0.2440944881889764
        },
        {
          "duration": 0.08771924999999214,
          "durationTicks": 96,
          "midi": 41,
          "name": "F2",
          "ticks": 71136,
          "time": 64.99996425,
          "velocity": 0.2440944881889764
        },
        {
          "duration": 0.08771924999999214,
          "durationTicks": 96,
          "midi": 48,
          "name": "C3",
          "ticks": 71136,
          "time": 64.99996425,
          "velocity": 0.2440944881889764
        },
        {
          "duration": 0.08771924999999214,
          "durationTicks": 96,
          "midi": 53,
          "name": "F3",
          "ticks": 71136,
          "time": 64.99996425,
          "velocity": 0.2440944881889764
        },
        {
          "duration": 0.08771925000000635,
          "durationTicks": 96,
          "midi": 53,
          "name": "F3",
          "ticks": 71232,
          "time": 65.0876835,
          "velocity": 0.2440944881889764
        },
        {
          "duration": 0.08771925000000635,
          "durationTicks": 96,
          "midi": 41,
          "name": "F2",
          "ticks": 71232,
          "time": 65.0876835,
          "velocity": 0.2440944881889764
        },
        {
          "duration": 0.08771925000000635,
          "durationTicks": 96,
          "midi": 48,
          "name": "C3",
          "ticks": 71232,
          "time": 65.0876835,
          "velocity": 0.2440944881889764
        },
        {
          "duration": 0.08771924999999214,
          "durationTicks": 96,
          "midi": 41,
          "name": "F2",
          "ticks": 71328,
          "time": 65.17540275,
          "velocity": 0.2440944881889764
        },
        {
          "duration": 0.08771924999999214,
          "durationTicks": 96,
          "midi": 48,
          "name": "C3",
          "ticks": 71328,
          "time": 65.17540275,
          "velocity": 0.2440944881889764
        },
        {
          "duration": 0.08771924999999214,
          "durationTicks": 96,
          "midi": 53,
          "name": "F3",
          "ticks": 71328,
          "time": 65.17540275,
          "velocity": 0.2440944881889764
        },
        {
          "duration": 0.08771925000000635,
          "durationTicks": 96,
          "midi": 53,
          "name": "F3",
          "ticks": 71424,
          "time": 65.263122,
          "velocity": 0.2440944881889764
        },
        {
          "duration": 0.08771925000000635,
          "durationTicks": 96,
          "midi": 48,
          "name": "C3",
          "ticks": 71424,
          "time": 65.263122,
          "velocity": 0.2440944881889764
        },
        {
          "duration": 0.08771925000000635,
          "durationTicks": 96,
          "midi": 41,
          "name": "F2",
          "ticks": 71424,
          "time": 65.263122,
          "velocity": 0.2440944881889764
        },
        {
          "duration": 0.08771924999999214,
          "durationTicks": 96,
          "midi": 41,
          "name": "F2",
          "ticks": 71520,
          "time": 65.35084125,
          "velocity": 0.2440944881889764
        },
        {
          "duration": 0.08771924999999214,
          "durationTicks": 96,
          "midi": 48,
          "name": "C3",
          "ticks": 71520,
          "time": 65.35084125,
          "velocity": 0.2440944881889764
        },
        {
          "duration": 0.08771924999999214,
          "durationTicks": 96,
          "midi": 53,
          "name": "F3",
          "ticks": 71520,
          "time": 65.35084125,
          "velocity": 0.2440944881889764
        },
        {
          "duration": 0.08771925000000635,
          "durationTicks": 96,
          "midi": 41,
          "name": "F2",
          "ticks": 71616,
          "time": 65.4385605,
          "velocity": 0.2440944881889764
        },
        {
          "duration": 0.08771925000000635,
          "durationTicks": 96,
          "midi": 48,
          "name": "C3",
          "ticks": 71616,
          "time": 65.4385605,
          "velocity": 0.2440944881889764
        },
        {
          "duration": 0.08771925000000635,
          "durationTicks": 96,
          "midi": 53,
          "name": "F3",
          "ticks": 71616,
          "time": 65.4385605,
          "velocity": 0.2440944881889764
        },
        {
          "duration": 0.08771924999999214,
          "durationTicks": 96,
          "midi": 53,
          "name": "F3",
          "ticks": 71712,
          "time": 65.52627975,
          "velocity": 0.2440944881889764
        },
        {
          "duration": 0.08771924999999214,
          "durationTicks": 96,
          "midi": 48,
          "name": "C3",
          "ticks": 71712,
          "time": 65.52627975,
          "velocity": 0.2440944881889764
        },
        {
          "duration": 0.08771924999999214,
          "durationTicks": 96,
          "midi": 41,
          "name": "F2",
          "ticks": 71712,
          "time": 65.52627975,
          "velocity": 0.2440944881889764
        },
        {
          "duration": 0.08771925000000635,
          "durationTicks": 96,
          "midi": 48,
          "name": "C3",
          "ticks": 71808,
          "time": 65.61399899999999,
          "velocity": 0.2440944881889764
        },
        {
          "duration": 0.08771925000000635,
          "durationTicks": 96,
          "midi": 53,
          "name": "F3",
          "ticks": 71808,
          "time": 65.61399899999999,
          "velocity": 0.2440944881889764
        },
        {
          "duration": 0.08771925000000635,
          "durationTicks": 96,
          "midi": 41,
          "name": "F2",
          "ticks": 71808,
          "time": 65.61399899999999,
          "velocity": 0.2440944881889764
        },
        {
          "duration": 0.08771925000000635,
          "durationTicks": 96,
          "midi": 41,
          "name": "F2",
          "ticks": 71904,
          "time": 65.70171825,
          "velocity": 0.2440944881889764
        },
        {
          "duration": 0.08771925000000635,
          "durationTicks": 96,
          "midi": 53,
          "name": "F3",
          "ticks": 71904,
          "time": 65.70171825,
          "velocity": 0.2440944881889764
        },
        {
          "duration": 0.08771925000000635,
          "durationTicks": 96,
          "midi": 48,
          "name": "C3",
          "ticks": 71904,
          "time": 65.70171825,
          "velocity": 0.2440944881889764
        },
        {
          "duration": 0.08771924999999214,
          "durationTicks": 96,
          "midi": 48,
          "name": "C3",
          "ticks": 72000,
          "time": 65.7894375,
          "velocity": 0.2440944881889764
        },
        {
          "duration": 0.08771924999999214,
          "durationTicks": 96,
          "midi": 41,
          "name": "F2",
          "ticks": 72000,
          "time": 65.7894375,
          "velocity": 0.2440944881889764
        },
        {
          "duration": 0.08771924999999214,
          "durationTicks": 96,
          "midi": 53,
          "name": "F3",
          "ticks": 72000,
          "time": 65.7894375,
          "velocity": 0.2440944881889764
        },
        {
          "duration": 0.08771925000000635,
          "durationTicks": 96,
          "midi": 48,
          "name": "C3",
          "ticks": 72096,
          "time": 65.87715675,
          "velocity": 0.2440944881889764
        },
        {
          "duration": 0.08771925000000635,
          "durationTicks": 96,
          "midi": 53,
          "name": "F3",
          "ticks": 72096,
          "time": 65.87715675,
          "velocity": 0.2440944881889764
        },
        {
          "duration": 0.08771925000000635,
          "durationTicks": 96,
          "midi": 41,
          "name": "F2",
          "ticks": 72096,
          "time": 65.87715675,
          "velocity": 0.2440944881889764
        },
        {
          "duration": 0.08771925000000635,
          "durationTicks": 96,
          "midi": 48,
          "name": "C3",
          "ticks": 110880,
          "time": 101.31573374999999,
          "velocity": 0.2440944881889764
        },
        {
          "duration": 0.08771925000000635,
          "durationTicks": 96,
          "midi": 36,
          "name": "C2",
          "ticks": 110880,
          "time": 101.31573374999999,
          "velocity": 0.2440944881889764
        },
        {
          "duration": 0.08771925000000635,
          "durationTicks": 96,
          "midi": 43,
          "name": "G2",
          "ticks": 110880,
          "time": 101.31573374999999,
          "velocity": 0.2440944881889764
        },
        {
          "duration": 0.08771925000000635,
          "durationTicks": 96,
          "midi": 43,
          "name": "G2",
          "ticks": 110976,
          "time": 101.403453,
          "velocity": 0.2440944881889764
        },
        {
          "duration": 0.08771925000000635,
          "durationTicks": 96,
          "midi": 48,
          "name": "C3",
          "ticks": 110976,
          "time": 101.403453,
          "velocity": 0.2440944881889764
        },
        {
          "duration": 0.08771925000000635,
          "durationTicks": 96,
          "midi": 36,
          "name": "C2",
          "ticks": 110976,
          "time": 101.403453,
          "velocity": 0.2440944881889764
        },
        {
          "duration": 0.08771924999999214,
          "durationTicks": 96,
          "midi": 48,
          "name": "C3",
          "ticks": 111072,
          "time": 101.49117225,
          "velocity": 0.2440944881889764
        },
        {
          "duration": 0.08771924999999214,
          "durationTicks": 96,
          "midi": 43,
          "name": "G2",
          "ticks": 111072,
          "time": 101.49117225,
          "velocity": 0.2440944881889764
        },
        {
          "duration": 0.08771924999999214,
          "durationTicks": 96,
          "midi": 36,
          "name": "C2",
          "ticks": 111072,
          "time": 101.49117225,
          "velocity": 0.2440944881889764
        },
        {
          "duration": 0.08771925000000635,
          "durationTicks": 96,
          "midi": 48,
          "name": "C3",
          "ticks": 111168,
          "time": 101.5788915,
          "velocity": 0.2440944881889764
        },
        {
          "duration": 0.08771925000000635,
          "durationTicks": 96,
          "midi": 36,
          "name": "C2",
          "ticks": 111168,
          "time": 101.5788915,
          "velocity": 0.2440944881889764
        },
        {
          "duration": 0.08771925000000635,
          "durationTicks": 96,
          "midi": 43,
          "name": "G2",
          "ticks": 111168,
          "time": 101.5788915,
          "velocity": 0.2440944881889764
        },
        {
          "duration": 0.08771924999999214,
          "durationTicks": 96,
          "midi": 36,
          "name": "C2",
          "ticks": 111264,
          "time": 101.66661075,
          "velocity": 0.2440944881889764
        },
        {
          "duration": 0.08771924999999214,
          "durationTicks": 96,
          "midi": 48,
          "name": "C3",
          "ticks": 111264,
          "time": 101.66661075,
          "velocity": 0.2440944881889764
        },
        {
          "duration": 0.08771924999999214,
          "durationTicks": 96,
          "midi": 43,
          "name": "G2",
          "ticks": 111264,
          "time": 101.66661075,
          "velocity": 0.2440944881889764
        },
        {
          "duration": 0.08771925000000635,
          "durationTicks": 96,
          "midi": 43,
          "name": "G2",
          "ticks": 111360,
          "time": 101.75433,
          "velocity": 0.2440944881889764
        },
        {
          "duration": 0.08771925000000635,
          "durationTicks": 96,
          "midi": 36,
          "name": "C2",
          "ticks": 111360,
          "time": 101.75433,
          "velocity": 0.2440944881889764
        },
        {
          "duration": 0.08771925000000635,
          "durationTicks": 96,
          "midi": 48,
          "name": "C3",
          "ticks": 111360,
          "time": 101.75433,
          "velocity": 0.2440944881889764
        },
        {
          "duration": 0.08771924999999214,
          "durationTicks": 96,
          "midi": 36,
          "name": "C2",
          "ticks": 111456,
          "time": 101.84204925,
          "velocity": 0.2440944881889764
        },
        {
          "duration": 0.08771924999999214,
          "durationTicks": 96,
          "midi": 48,
          "name": "C3",
          "ticks": 111456,
          "time": 101.84204925,
          "velocity": 0.2440944881889764
        },
        {
          "duration": 0.08771924999999214,
          "durationTicks": 96,
          "midi": 43,
          "name": "G2",
          "ticks": 111456,
          "time": 101.84204925,
          "velocity": 0.2440944881889764
        },
        {
          "duration": 0.08771925000000635,
          "durationTicks": 96,
          "midi": 36,
          "name": "C2",
          "ticks": 111552,
          "time": 101.9297685,
          "velocity": 0.2440944881889764
        },
        {
          "duration": 0.08771925000000635,
          "durationTicks": 96,
          "midi": 43,
          "name": "G2",
          "ticks": 111552,
          "time": 101.9297685,
          "velocity": 0.2440944881889764
        },
        {
          "duration": 0.08771925000000635,
          "durationTicks": 96,
          "midi": 48,
          "name": "C3",
          "ticks": 111552,
          "time": 101.9297685,
          "velocity": 0.2440944881889764
        },
        {
          "duration": 0.08771924999999214,
          "durationTicks": 96,
          "midi": 36,
          "name": "C2",
          "ticks": 111648,
          "time": 102.01748775,
          "velocity": 0.2440944881889764
        },
        {
          "duration": 0.08771924999999214,
          "durationTicks": 96,
          "midi": 48,
          "name": "C3",
          "ticks": 111648,
          "time": 102.01748775,
          "velocity": 0.2440944881889764
        },
        {
          "duration": 0.08771924999999214,
          "durationTicks": 96,
          "midi": 43,
          "name": "G2",
          "ticks": 111648,
          "time": 102.01748775,
          "velocity": 0.2440944881889764
        },
        {
          "duration": 0.08771925000000635,
          "durationTicks": 96,
          "midi": 48,
          "name": "C3",
          "ticks": 111744,
          "time": 102.105207,
          "velocity": 0.2440944881889764
        },
        {
          "duration": 0.08771925000000635,
          "durationTicks": 96,
          "midi": 36,
          "name": "C2",
          "ticks": 111744,
          "time": 102.105207,
          "velocity": 0.2440944881889764
        },
        {
          "duration": 0.08771925000000635,
          "durationTicks": 96,
          "midi": 43,
          "name": "G2",
          "ticks": 111744,
          "time": 102.105207,
          "velocity": 0.2440944881889764
        },
        {
          "duration": 0.08771924999999214,
          "durationTicks": 96,
          "midi": 36,
          "name": "C2",
          "ticks": 111840,
          "time": 102.19292625,
          "velocity": 0.2440944881889764
        },
        {
          "duration": 0.08771924999999214,
          "durationTicks": 96,
          "midi": 48,
          "name": "C3",
          "ticks": 111840,
          "time": 102.19292625,
          "velocity": 0.2440944881889764
        },
        {
          "duration": 0.08771924999999214,
          "durationTicks": 96,
          "midi": 43,
          "name": "G2",
          "ticks": 111840,
          "time": 102.19292625,
          "velocity": 0.2440944881889764
        },
        {
          "duration": 0.08771925000000635,
          "durationTicks": 96,
          "midi": 43,
          "name": "G2",
          "ticks": 111936,
          "time": 102.28064549999999,
          "velocity": 0.2440944881889764
        },
        {
          "duration": 0.08771925000000635,
          "durationTicks": 96,
          "midi": 48,
          "name": "C3",
          "ticks": 111936,
          "time": 102.28064549999999,
          "velocity": 0.2440944881889764
        },
        {
          "duration": 0.08771925000000635,
          "durationTicks": 96,
          "midi": 36,
          "name": "C2",
          "ticks": 111936,
          "time": 102.28064549999999,
          "velocity": 0.2440944881889764
        },
        {
          "duration": 0.08771925000000635,
          "durationTicks": 96,
          "midi": 36,
          "name": "C2",
          "ticks": 112032,
          "time": 102.36836475,
          "velocity": 0.2440944881889764
        },
        {
          "duration": 0.08771925000000635,
          "durationTicks": 96,
          "midi": 48,
          "name": "C3",
          "ticks": 112032,
          "time": 102.36836475,
          "velocity": 0.2440944881889764
        },
        {
          "duration": 0.08771925000000635,
          "durationTicks": 96,
          "midi": 43,
          "name": "G2",
          "ticks": 112032,
          "time": 102.36836475,
          "velocity": 0.2440944881889764
        },
        {
          "duration": 0.08771924999999214,
          "durationTicks": 96,
          "midi": 48,
          "name": "C3",
          "ticks": 112128,
          "time": 102.456084,
          "velocity": 0.2440944881889764
        },
        {
          "duration": 0.08771924999999214,
          "durationTicks": 96,
          "midi": 36,
          "name": "C2",
          "ticks": 112128,
          "time": 102.456084,
          "velocity": 0.2440944881889764
        },
        {
          "duration": 0.08771924999999214,
          "durationTicks": 96,
          "midi": 43,
          "name": "G2",
          "ticks": 112128,
          "time": 102.456084,
          "velocity": 0.2440944881889764
        },
        {
          "duration": 0.08771925000000635,
          "durationTicks": 96,
          "midi": 48,
          "name": "C3",
          "ticks": 112224,
          "time": 102.54380325,
          "velocity": 0.2440944881889764
        },
        {
          "duration": 0.08771925000000635,
          "durationTicks": 96,
          "midi": 36,
          "name": "C2",
          "ticks": 112224,
          "time": 102.54380325,
          "velocity": 0.2440944881889764
        },
        {
          "duration": 0.08771925000000635,
          "durationTicks": 96,
          "midi": 43,
          "name": "G2",
          "ticks": 112224,
          "time": 102.54380325,
          "velocity": 0.2440944881889764
        },
        {
          "duration": 0.08771924999999214,
          "durationTicks": 96,
          "midi": 43,
          "name": "G2",
          "ticks": 112320,
          "time": 102.6315225,
          "velocity": 0.2440944881889764
        },
        {
          "duration": 0.08771924999999214,
          "durationTicks": 96,
          "midi": 36,
          "name": "C2",
          "ticks": 112320,
          "time": 102.6315225,
          "velocity": 0.2440944881889764
        },
        {
          "duration": 0.08771924999999214,
          "durationTicks": 96,
          "midi": 48,
          "name": "C3",
          "ticks": 112320,
          "time": 102.6315225,
          "velocity": 0.2440944881889764
        },
        {
          "duration": 0.08771925000000635,
          "durationTicks": 96,
          "midi": 48,
          "name": "C3",
          "ticks": 112416,
          "time": 102.71924175,
          "velocity": 0.2440944881889764
        },
        {
          "duration": 0.08771925000000635,
          "durationTicks": 96,
          "midi": 36,
          "name": "C2",
          "ticks": 112416,
          "time": 102.71924175,
          "velocity": 0.2440944881889764
        },
        {
          "duration": 0.08771925000000635,
          "durationTicks": 96,
          "midi": 43,
          "name": "G2",
          "ticks": 112416,
          "time": 102.71924175,
          "velocity": 0.2440944881889764
        },
        {
          "duration": 0.08771924999999214,
          "durationTicks": 96,
          "midi": 48,
          "name": "C3",
          "ticks": 112512,
          "time": 102.806961,
          "velocity": 0.2440944881889764
        },
        {
          "duration": 0.08771924999999214,
          "durationTicks": 96,
          "midi": 43,
          "name": "G2",
          "ticks": 112512,
          "time": 102.806961,
          "velocity": 0.2440944881889764
        },
        {
          "duration": 0.08771924999999214,
          "durationTicks": 96,
          "midi": 36,
          "name": "C2",
          "ticks": 112512,
          "time": 102.806961,
          "velocity": 0.2440944881889764
        },
        {
          "duration": 0.08771925000000635,
          "durationTicks": 96,
          "midi": 48,
          "name": "C3",
          "ticks": 112608,
          "time": 102.89468025,
          "velocity": 0.2440944881889764
        },
        {
          "duration": 0.08771925000000635,
          "durationTicks": 96,
          "midi": 43,
          "name": "G2",
          "ticks": 112608,
          "time": 102.89468025,
          "velocity": 0.2440944881889764
        },
        {
          "duration": 0.08771925000000635,
          "durationTicks": 96,
          "midi": 36,
          "name": "C2",
          "ticks": 112608,
          "time": 102.89468025,
          "velocity": 0.2440944881889764
        },
        {
          "duration": 0.08771924999999214,
          "durationTicks": 96,
          "midi": 36,
          "name": "C2",
          "ticks": 112704,
          "time": 102.9823995,
          "velocity": 0.2440944881889764
        },
        {
          "duration": 0.08771924999999214,
          "durationTicks": 96,
          "midi": 48,
          "name": "C3",
          "ticks": 112704,
          "time": 102.9823995,
          "velocity": 0.2440944881889764
        },
        {
          "duration": 0.08771924999999214,
          "durationTicks": 96,
          "midi": 43,
          "name": "G2",
          "ticks": 112704,
          "time": 102.9823995,
          "velocity": 0.2440944881889764
        },
        {
          "duration": 0.08771925000000635,
          "durationTicks": 96,
          "midi": 43,
          "name": "G2",
          "ticks": 112800,
          "time": 103.07011874999999,
          "velocity": 0.2440944881889764
        },
        {
          "duration": 0.08771925000000635,
          "durationTicks": 96,
          "midi": 36,
          "name": "C2",
          "ticks": 112800,
          "time": 103.07011874999999,
          "velocity": 0.2440944881889764
        },
        {
          "duration": 0.08771925000000635,
          "durationTicks": 96,
          "midi": 48,
          "name": "C3",
          "ticks": 112800,
          "time": 103.07011874999999,
          "velocity": 0.2440944881889764
        },
        {
          "duration": 0.08771925000000635,
          "durationTicks": 96,
          "midi": 36,
          "name": "C2",
          "ticks": 112896,
          "time": 103.157838,
          "velocity": 0.2440944881889764
        },
        {
          "duration": 0.08771925000000635,
          "durationTicks": 96,
          "midi": 43,
          "name": "G2",
          "ticks": 112896,
          "time": 103.157838,
          "velocity": 0.2440944881889764
        },
        {
          "duration": 0.08771925000000635,
          "durationTicks": 96,
          "midi": 48,
          "name": "C3",
          "ticks": 112896,
          "time": 103.157838,
          "velocity": 0.2440944881889764
        },
        {
          "duration": 0.08771924999999214,
          "durationTicks": 96,
          "midi": 36,
          "name": "C2",
          "ticks": 112992,
          "time": 103.24555725,
          "velocity": 0.2440944881889764
        },
        {
          "duration": 0.08771924999999214,
          "durationTicks": 96,
          "midi": 43,
          "name": "G2",
          "ticks": 112992,
          "time": 103.24555725,
          "velocity": 0.2440944881889764
        },
        {
          "duration": 0.08771924999999214,
          "durationTicks": 96,
          "midi": 48,
          "name": "C3",
          "ticks": 112992,
          "time": 103.24555725,
          "velocity": 0.2440944881889764
        },
        {
          "duration": 0.08771925000000635,
          "durationTicks": 96,
          "midi": 36,
          "name": "C2",
          "ticks": 113088,
          "time": 103.3332765,
          "velocity": 0.2440944881889764
        },
        {
          "duration": 0.08771925000000635,
          "durationTicks": 96,
          "midi": 48,
          "name": "C3",
          "ticks": 113088,
          "time": 103.3332765,
          "velocity": 0.2440944881889764
        },
        {
          "duration": 0.08771925000000635,
          "durationTicks": 96,
          "midi": 43,
          "name": "G2",
          "ticks": 113088,
          "time": 103.3332765,
          "velocity": 0.2440944881889764
        },
        {
          "duration": 0.08771924999999214,
          "durationTicks": 96,
          "midi": 48,
          "name": "C3",
          "ticks": 113184,
          "time": 103.42099575,
          "velocity": 0.2440944881889764
        },
        {
          "duration": 0.08771924999999214,
          "durationTicks": 96,
          "midi": 36,
          "name": "C2",
          "ticks": 113184,
          "time": 103.42099575,
          "velocity": 0.2440944881889764
        },
        {
          "duration": 0.08771924999999214,
          "durationTicks": 96,
          "midi": 43,
          "name": "G2",
          "ticks": 113184,
          "time": 103.42099575,
          "velocity": 0.2440944881889764
        },
        {
          "duration": 0.08771925000000635,
          "durationTicks": 96,
          "midi": 43,
          "name": "G2",
          "ticks": 113280,
          "time": 103.508715,
          "velocity": 0.2440944881889764
        },
        {
          "duration": 0.08771925000000635,
          "durationTicks": 96,
          "midi": 48,
          "name": "C3",
          "ticks": 113280,
          "time": 103.508715,
          "velocity": 0.2440944881889764
        },
        {
          "duration": 0.08771925000000635,
          "durationTicks": 96,
          "midi": 36,
          "name": "C2",
          "ticks": 113280,
          "time": 103.508715,
          "velocity": 0.2440944881889764
        },
        {
          "duration": 0.08771924999999214,
          "durationTicks": 96,
          "midi": 43,
          "name": "G2",
          "ticks": 113376,
          "time": 103.59643425,
          "velocity": 0.2440944881889764
        },
        {
          "duration": 0.08771924999999214,
          "durationTicks": 96,
          "midi": 48,
          "name": "C3",
          "ticks": 113376,
          "time": 103.59643425,
          "velocity": 0.2440944881889764
        },
        {
          "duration": 0.08771924999999214,
          "durationTicks": 96,
          "midi": 36,
          "name": "C2",
          "ticks": 113376,
          "time": 103.59643425,
          "velocity": 0.2440944881889764
        },
        {
          "duration": 0.08771925000000635,
          "durationTicks": 96,
          "midi": 36,
          "name": "C2",
          "ticks": 113472,
          "time": 103.6841535,
          "velocity": 0.2440944881889764
        },
        {
          "duration": 0.08771925000000635,
          "durationTicks": 96,
          "midi": 43,
          "name": "G2",
          "ticks": 113472,
          "time": 103.6841535,
          "velocity": 0.2440944881889764
        },
        {
          "duration": 0.08771925000000635,
          "durationTicks": 96,
          "midi": 48,
          "name": "C3",
          "ticks": 113472,
          "time": 103.6841535,
          "velocity": 0.2440944881889764
        },
        {
          "duration": 0.08771924999999214,
          "durationTicks": 96,
          "midi": 43,
          "name": "G2",
          "ticks": 113568,
          "time": 103.77187275,
          "velocity": 0.2440944881889764
        },
        {
          "duration": 0.08771924999999214,
          "durationTicks": 96,
          "midi": 36,
          "name": "C2",
          "ticks": 113568,
          "time": 103.77187275,
          "velocity": 0.2440944881889764
        },
        {
          "duration": 0.08771924999999214,
          "durationTicks": 96,
          "midi": 48,
          "name": "C3",
          "ticks": 113568,
          "time": 103.77187275,
          "velocity": 0.2440944881889764
        },
        {
          "duration": 0.08771925000000635,
          "durationTicks": 96,
          "midi": 36,
          "name": "C2",
          "ticks": 113664,
          "time": 103.85959199999999,
          "velocity": 0.2440944881889764
        },
        {
          "duration": 0.08771925000000635,
          "durationTicks": 96,
          "midi": 48,
          "name": "C3",
          "ticks": 113664,
          "time": 103.85959199999999,
          "velocity": 0.2440944881889764
        },
        {
          "duration": 0.08771925000000635,
          "durationTicks": 96,
          "midi": 43,
          "name": "G2",
          "ticks": 113664,
          "time": 103.85959199999999,
          "velocity": 0.2440944881889764
        },
        {
          "duration": 0.08771925000000635,
          "durationTicks": 96,
          "midi": 48,
          "name": "C3",
          "ticks": 113760,
          "time": 103.94731125,
          "velocity": 0.2440944881889764
        },
        {
          "duration": 0.08771925000000635,
          "durationTicks": 96,
          "midi": 36,
          "name": "C2",
          "ticks": 113760,
          "time": 103.94731125,
          "velocity": 0.2440944881889764
        },
        {
          "duration": 0.08771925000000635,
          "durationTicks": 96,
          "midi": 43,
          "name": "G2",
          "ticks": 113760,
          "time": 103.94731125,
          "velocity": 0.2440944881889764
        },
        {
          "duration": 0.08771925000000635,
          "durationTicks": 96,
          "midi": 50,
          "name": "D3",
          "ticks": 113952,
          "time": 104.12274975,
          "velocity": 0.2440944881889764
        },
        {
          "duration": 0.08771925000000635,
          "durationTicks": 96,
          "midi": 45,
          "name": "A2",
          "ticks": 113952,
          "time": 104.12274975,
          "velocity": 0.2440944881889764
        },
        {
          "duration": 0.08771925000000635,
          "durationTicks": 96,
          "midi": 38,
          "name": "D2",
          "ticks": 113952,
          "time": 104.12274975,
          "velocity": 0.2440944881889764
        },
        {
          "duration": 0.08771924999999214,
          "durationTicks": 96,
          "midi": 38,
          "name": "D2",
          "ticks": 114048,
          "time": 104.210469,
          "velocity": 0.2440944881889764
        },
        {
          "duration": 0.08771924999999214,
          "durationTicks": 96,
          "midi": 45,
          "name": "A2",
          "ticks": 114048,
          "time": 104.210469,
          "velocity": 0.2440944881889764
        },
        {
          "duration": 0.08771924999999214,
          "durationTicks": 96,
          "midi": 50,
          "name": "D3",
          "ticks": 114048,
          "time": 104.210469,
          "velocity": 0.2440944881889764
        },
        {
          "duration": 0.08771925000000635,
          "durationTicks": 96,
          "midi": 45,
          "name": "A2",
          "ticks": 114144,
          "time": 104.29818825,
          "velocity": 0.2440944881889764
        },
        {
          "duration": 0.08771925000000635,
          "durationTicks": 96,
          "midi": 38,
          "name": "D2",
          "ticks": 114144,
          "time": 104.29818825,
          "velocity": 0.2440944881889764
        },
        {
          "duration": 0.08771925000000635,
          "durationTicks": 96,
          "midi": 50,
          "name": "D3",
          "ticks": 114144,
          "time": 104.29818825,
          "velocity": 0.2440944881889764
        },
        {
          "duration": 0.08771924999999214,
          "durationTicks": 96,
          "midi": 50,
          "name": "D3",
          "ticks": 114240,
          "time": 104.3859075,
          "velocity": 0.2440944881889764
        },
        {
          "duration": 0.08771924999999214,
          "durationTicks": 96,
          "midi": 38,
          "name": "D2",
          "ticks": 114240,
          "time": 104.3859075,
          "velocity": 0.2440944881889764
        },
        {
          "duration": 0.08771924999999214,
          "durationTicks": 96,
          "midi": 45,
          "name": "A2",
          "ticks": 114240,
          "time": 104.3859075,
          "velocity": 0.2440944881889764
        },
        {
          "duration": 0.08771925000000635,
          "durationTicks": 96,
          "midi": 45,
          "name": "A2",
          "ticks": 114336,
          "time": 104.47362675,
          "velocity": 0.2440944881889764
        },
        {
          "duration": 0.08771925000000635,
          "durationTicks": 96,
          "midi": 38,
          "name": "D2",
          "ticks": 114336,
          "time": 104.47362675,
          "velocity": 0.2440944881889764
        },
        {
          "duration": 0.08771925000000635,
          "durationTicks": 96,
          "midi": 50,
          "name": "D3",
          "ticks": 114336,
          "time": 104.47362675,
          "velocity": 0.2440944881889764
        },
        {
          "duration": 0.08771924999999214,
          "durationTicks": 96,
          "midi": 45,
          "name": "A2",
          "ticks": 114432,
          "time": 104.561346,
          "velocity": 0.2440944881889764
        },
        {
          "duration": 0.08771924999999214,
          "durationTicks": 96,
          "midi": 38,
          "name": "D2",
          "ticks": 114432,
          "time": 104.561346,
          "velocity": 0.2440944881889764
        },
        {
          "duration": 0.08771924999999214,
          "durationTicks": 96,
          "midi": 50,
          "name": "D3",
          "ticks": 114432,
          "time": 104.561346,
          "velocity": 0.2440944881889764
        },
        {
          "duration": 0.08771925000000635,
          "durationTicks": 96,
          "midi": 38,
          "name": "D2",
          "ticks": 114528,
          "time": 104.64906524999999,
          "velocity": 0.2440944881889764
        },
        {
          "duration": 0.08771925000000635,
          "durationTicks": 96,
          "midi": 50,
          "name": "D3",
          "ticks": 114528,
          "time": 104.64906524999999,
          "velocity": 0.2440944881889764
        },
        {
          "duration": 0.08771925000000635,
          "durationTicks": 96,
          "midi": 45,
          "name": "A2",
          "ticks": 114528,
          "time": 104.64906524999999,
          "velocity": 0.2440944881889764
        },
        {
          "duration": 0.08771925000000635,
          "durationTicks": 96,
          "midi": 38,
          "name": "D2",
          "ticks": 114624,
          "time": 104.7367845,
          "velocity": 0.2440944881889764
        },
        {
          "duration": 0.08771925000000635,
          "durationTicks": 96,
          "midi": 50,
          "name": "D3",
          "ticks": 114624,
          "time": 104.7367845,
          "velocity": 0.2440944881889764
        },
        {
          "duration": 0.08771925000000635,
          "durationTicks": 96,
          "midi": 45,
          "name": "A2",
          "ticks": 114624,
          "time": 104.7367845,
          "velocity": 0.2440944881889764
        },
        {
          "duration": 0.08771924999999214,
          "durationTicks": 96,
          "midi": 50,
          "name": "D3",
          "ticks": 114720,
          "time": 104.82450375,
          "velocity": 0.2440944881889764
        },
        {
          "duration": 0.08771924999999214,
          "durationTicks": 96,
          "midi": 45,
          "name": "A2",
          "ticks": 114720,
          "time": 104.82450375,
          "velocity": 0.2440944881889764
        },
        {
          "duration": 0.08771924999999214,
          "durationTicks": 96,
          "midi": 38,
          "name": "D2",
          "ticks": 114720,
          "time": 104.82450375,
          "velocity": 0.2440944881889764
        },
        {
          "duration": 0.08771925000000635,
          "durationTicks": 96,
          "midi": 38,
          "name": "D2",
          "ticks": 114816,
          "time": 104.912223,
          "velocity": 0.2440944881889764
        },
        {
          "duration": 0.08771925000000635,
          "durationTicks": 96,
          "midi": 50,
          "name": "D3",
          "ticks": 114816,
          "time": 104.912223,
          "velocity": 0.2440944881889764
        },
        {
          "duration": 0.08771925000000635,
          "durationTicks": 96,
          "midi": 45,
          "name": "A2",
          "ticks": 114816,
          "time": 104.912223,
          "velocity": 0.2440944881889764
        },
        {
          "duration": 0.08771924999999214,
          "durationTicks": 96,
          "midi": 38,
          "name": "D2",
          "ticks": 114912,
          "time": 104.99994225,
          "velocity": 0.2440944881889764
        },
        {
          "duration": 0.08771924999999214,
          "durationTicks": 96,
          "midi": 45,
          "name": "A2",
          "ticks": 114912,
          "time": 104.99994225,
          "velocity": 0.2440944881889764
        },
        {
          "duration": 0.08771924999999214,
          "durationTicks": 96,
          "midi": 50,
          "name": "D3",
          "ticks": 114912,
          "time": 104.99994225,
          "velocity": 0.2440944881889764
        },
        {
          "duration": 0.08771925000000635,
          "durationTicks": 96,
          "midi": 45,
          "name": "A2",
          "ticks": 115008,
          "time": 105.0876615,
          "velocity": 0.2440944881889764
        },
        {
          "duration": 0.08771925000000635,
          "durationTicks": 96,
          "midi": 38,
          "name": "D2",
          "ticks": 115008,
          "time": 105.0876615,
          "velocity": 0.2440944881889764
        },
        {
          "duration": 0.08771925000000635,
          "durationTicks": 96,
          "midi": 50,
          "name": "D3",
          "ticks": 115008,
          "time": 105.0876615,
          "velocity": 0.2440944881889764
        },
        {
          "duration": 0.08771924999999214,
          "durationTicks": 96,
          "midi": 38,
          "name": "D2",
          "ticks": 115104,
          "time": 105.17538075,
          "velocity": 0.2440944881889764
        },
        {
          "duration": 0.08771924999999214,
          "durationTicks": 96,
          "midi": 45,
          "name": "A2",
          "ticks": 115104,
          "time": 105.17538075,
          "velocity": 0.2440944881889764
        },
        {
          "duration": 0.08771924999999214,
          "durationTicks": 96,
          "midi": 50,
          "name": "D3",
          "ticks": 115104,
          "time": 105.17538075,
          "velocity": 0.2440944881889764
        },
        {
          "duration": 0.08771925000000635,
          "durationTicks": 96,
          "midi": 38,
          "name": "D2",
          "ticks": 115200,
          "time": 105.2631,
          "velocity": 0.2440944881889764
        },
        {
          "duration": 0.08771925000000635,
          "durationTicks": 96,
          "midi": 50,
          "name": "D3",
          "ticks": 115200,
          "time": 105.2631,
          "velocity": 0.2440944881889764
        },
        {
          "duration": 0.08771925000000635,
          "durationTicks": 96,
          "midi": 45,
          "name": "A2",
          "ticks": 115200,
          "time": 105.2631,
          "velocity": 0.2440944881889764
        },
        {
          "duration": 0.08771924999999214,
          "durationTicks": 96,
          "midi": 50,
          "name": "D3",
          "ticks": 115296,
          "time": 105.35081925,
          "velocity": 0.2440944881889764
        },
        {
          "duration": 0.08771924999999214,
          "durationTicks": 96,
          "midi": 45,
          "name": "A2",
          "ticks": 115296,
          "time": 105.35081925,
          "velocity": 0.2440944881889764
        },
        {
          "duration": 0.08771924999999214,
          "durationTicks": 96,
          "midi": 38,
          "name": "D2",
          "ticks": 115296,
          "time": 105.35081925,
          "velocity": 0.2440944881889764
        },
        {
          "duration": 0.08771925000000635,
          "durationTicks": 96,
          "midi": 38,
          "name": "D2",
          "ticks": 115392,
          "time": 105.43853849999999,
          "velocity": 0.2440944881889764
        },
        {
          "duration": 0.08771925000000635,
          "durationTicks": 96,
          "midi": 50,
          "name": "D3",
          "ticks": 115392,
          "time": 105.43853849999999,
          "velocity": 0.2440944881889764
        },
        {
          "duration": 0.08771925000000635,
          "durationTicks": 96,
          "midi": 45,
          "name": "A2",
          "ticks": 115392,
          "time": 105.43853849999999,
          "velocity": 0.2440944881889764
        },
        {
          "duration": 0.08771924999999214,
          "durationTicks": 96,
          "midi": 45,
          "name": "A2",
          "ticks": 115488,
          "time": 105.52625775,
          "velocity": 0.2440944881889764
        },
        {
          "duration": 0.08771924999999214,
          "durationTicks": 96,
          "midi": 38,
          "name": "D2",
          "ticks": 115488,
          "time": 105.52625775,
          "velocity": 0.2440944881889764
        },
        {
          "duration": 0.08771924999999214,
          "durationTicks": 96,
          "midi": 50,
          "name": "D3",
          "ticks": 115488,
          "time": 105.52625775,
          "velocity": 0.2440944881889764
        },
        {
          "duration": 0.08771925000000635,
          "durationTicks": 96,
          "midi": 45,
          "name": "A2",
          "ticks": 115584,
          "time": 105.61397699999999,
          "velocity": 0.2440944881889764
        },
        {
          "duration": 0.08771925000000635,
          "durationTicks": 96,
          "midi": 38,
          "name": "D2",
          "ticks": 115584,
          "time": 105.61397699999999,
          "velocity": 0.2440944881889764
        },
        {
          "duration": 0.08771925000000635,
          "durationTicks": 96,
          "midi": 50,
          "name": "D3",
          "ticks": 115584,
          "time": 105.61397699999999,
          "velocity": 0.2440944881889764
        },
        {
          "duration": 0.08771925000000635,
          "durationTicks": 96,
          "midi": 38,
          "name": "D2",
          "ticks": 115680,
          "time": 105.70169625,
          "velocity": 0.2440944881889764
        },
        {
          "duration": 0.08771925000000635,
          "durationTicks": 96,
          "midi": 45,
          "name": "A2",
          "ticks": 115680,
          "time": 105.70169625,
          "velocity": 0.2440944881889764
        },
        {
          "duration": 0.08771925000000635,
          "durationTicks": 96,
          "midi": 50,
          "name": "D3",
          "ticks": 115680,
          "time": 105.70169625,
          "velocity": 0.2440944881889764
        },
        {
          "duration": 0.08771924999999214,
          "durationTicks": 96,
          "midi": 38,
          "name": "D2",
          "ticks": 115776,
          "time": 105.7894155,
          "velocity": 0.2440944881889764
        },
        {
          "duration": 0.08771924999999214,
          "durationTicks": 96,
          "midi": 45,
          "name": "A2",
          "ticks": 115776,
          "time": 105.7894155,
          "velocity": 0.2440944881889764
        },
        {
          "duration": 0.08771924999999214,
          "durationTicks": 96,
          "midi": 50,
          "name": "D3",
          "ticks": 115776,
          "time": 105.7894155,
          "velocity": 0.2440944881889764
        },
        {
          "duration": 0.08771925000000635,
          "durationTicks": 96,
          "midi": 45,
          "name": "A2",
          "ticks": 115872,
          "time": 105.87713475,
          "velocity": 0.2440944881889764
        },
        {
          "duration": 0.08771925000000635,
          "durationTicks": 96,
          "midi": 38,
          "name": "D2",
          "ticks": 115872,
          "time": 105.87713475,
          "velocity": 0.2440944881889764
        },
        {
          "duration": 0.08771925000000635,
          "durationTicks": 96,
          "midi": 50,
          "name": "D3",
          "ticks": 115872,
          "time": 105.87713475,
          "velocity": 0.2440944881889764
        },
        {
          "duration": 0.08771924999999214,
          "durationTicks": 96,
          "midi": 50,
          "name": "D3",
          "ticks": 115968,
          "time": 105.964854,
          "velocity": 0.2440944881889764
        },
        {
          "duration": 0.08771924999999214,
          "durationTicks": 96,
          "midi": 45,
          "name": "A2",
          "ticks": 115968,
          "time": 105.964854,
          "velocity": 0.2440944881889764
        },
        {
          "duration": 0.08771924999999214,
          "durationTicks": 96,
          "midi": 38,
          "name": "D2",
          "ticks": 115968,
          "time": 105.964854,
          "velocity": 0.2440944881889764
        },
        {
          "duration": 0.08771925000000635,
          "durationTicks": 96,
          "midi": 38,
          "name": "D2",
          "ticks": 116064,
          "time": 106.05257325,
          "velocity": 0.2440944881889764
        },
        {
          "duration": 0.08771925000000635,
          "durationTicks": 96,
          "midi": 50,
          "name": "D3",
          "ticks": 116064,
          "time": 106.05257325,
          "velocity": 0.2440944881889764
        },
        {
          "duration": 0.08771925000000635,
          "durationTicks": 96,
          "midi": 45,
          "name": "A2",
          "ticks": 116064,
          "time": 106.05257325,
          "velocity": 0.2440944881889764
        },
        {
          "duration": 0.08771924999999214,
          "durationTicks": 96,
          "midi": 50,
          "name": "D3",
          "ticks": 116160,
          "time": 106.1402925,
          "velocity": 0.2440944881889764
        },
        {
          "duration": 0.08771924999999214,
          "durationTicks": 96,
          "midi": 45,
          "name": "A2",
          "ticks": 116160,
          "time": 106.1402925,
          "velocity": 0.2440944881889764
        },
        {
          "duration": 0.08771924999999214,
          "durationTicks": 96,
          "midi": 38,
          "name": "D2",
          "ticks": 116160,
          "time": 106.1402925,
          "velocity": 0.2440944881889764
        },
        {
          "duration": 0.08771925000000635,
          "durationTicks": 96,
          "midi": 38,
          "name": "D2",
          "ticks": 116256,
          "time": 106.22801175,
          "velocity": 0.2440944881889764
        },
        {
          "duration": 0.08771925000000635,
          "durationTicks": 96,
          "midi": 50,
          "name": "D3",
          "ticks": 116256,
          "time": 106.22801175,
          "velocity": 0.2440944881889764
        },
        {
          "duration": 0.08771925000000635,
          "durationTicks": 96,
          "midi": 45,
          "name": "A2",
          "ticks": 116256,
          "time": 106.22801175,
          "velocity": 0.2440944881889764
        },
        {
          "duration": 0.08771924999999214,
          "durationTicks": 96,
          "midi": 45,
          "name": "A2",
          "ticks": 116352,
          "time": 106.315731,
          "velocity": 0.2440944881889764
        },
        {
          "duration": 0.08771924999999214,
          "durationTicks": 96,
          "midi": 50,
          "name": "D3",
          "ticks": 116352,
          "time": 106.315731,
          "velocity": 0.2440944881889764
        },
        {
          "duration": 0.08771924999999214,
          "durationTicks": 96,
          "midi": 38,
          "name": "D2",
          "ticks": 116352,
          "time": 106.315731,
          "velocity": 0.2440944881889764
        },
        {
          "duration": 0.08771925000000635,
          "durationTicks": 96,
          "midi": 38,
          "name": "D2",
          "ticks": 116448,
          "time": 106.40345024999999,
          "velocity": 0.2440944881889764
        },
        {
          "duration": 0.08771925000000635,
          "durationTicks": 96,
          "midi": 45,
          "name": "A2",
          "ticks": 116448,
          "time": 106.40345024999999,
          "velocity": 0.2440944881889764
        },
        {
          "duration": 0.08771925000000635,
          "durationTicks": 96,
          "midi": 50,
          "name": "D3",
          "ticks": 116448,
          "time": 106.40345024999999,
          "velocity": 0.2440944881889764
        },
        {
          "duration": 0.08771925000000635,
          "durationTicks": 96,
          "midi": 50,
          "name": "D3",
          "ticks": 116544,
          "time": 106.4911695,
          "velocity": 0.2440944881889764
        },
        {
          "duration": 0.08771925000000635,
          "durationTicks": 96,
          "midi": 38,
          "name": "D2",
          "ticks": 116544,
          "time": 106.4911695,
          "velocity": 0.2440944881889764
        },
        {
          "duration": 0.08771925000000635,
          "durationTicks": 96,
          "midi": 45,
          "name": "A2",
          "ticks": 116544,
          "time": 106.4911695,
          "velocity": 0.2440944881889764
        },
        {
          "duration": 0.08771924999999214,
          "durationTicks": 96,
          "midi": 38,
          "name": "D2",
          "ticks": 116640,
          "time": 106.57888875,
          "velocity": 0.2440944881889764
        },
        {
          "duration": 0.08771924999999214,
          "durationTicks": 96,
          "midi": 45,
          "name": "A2",
          "ticks": 116640,
          "time": 106.57888875,
          "velocity": 0.2440944881889764
        },
        {
          "duration": 0.08771924999999214,
          "durationTicks": 96,
          "midi": 50,
          "name": "D3",
          "ticks": 116640,
          "time": 106.57888875,
          "velocity": 0.2440944881889764
        },
        {
          "duration": 0.08771925000000635,
          "durationTicks": 96,
          "midi": 45,
          "name": "A2",
          "ticks": 116736,
          "time": 106.666608,
          "velocity": 0.2440944881889764
        },
        {
          "duration": 0.08771925000000635,
          "durationTicks": 96,
          "midi": 50,
          "name": "D3",
          "ticks": 116736,
          "time": 106.666608,
          "velocity": 0.2440944881889764
        },
        {
          "duration": 0.08771925000000635,
          "durationTicks": 96,
          "midi": 38,
          "name": "D2",
          "ticks": 116736,
          "time": 106.666608,
          "velocity": 0.2440944881889764
        },
        {
          "duration": 0.08771924999999214,
          "durationTicks": 96,
          "midi": 50,
          "name": "D3",
          "ticks": 116832,
          "time": 106.75432725,
          "velocity": 0.2440944881889764
        },
        {
          "duration": 0.08771924999999214,
          "durationTicks": 96,
          "midi": 38,
          "name": "D2",
          "ticks": 116832,
          "time": 106.75432725,
          "velocity": 0.2440944881889764
        },
        {
          "duration": 0.08771924999999214,
          "durationTicks": 96,
          "midi": 45,
          "name": "A2",
          "ticks": 116832,
          "time": 106.75432725,
          "velocity": 0.2440944881889764
        },
        {
          "duration": 0.08771924999999214,
          "durationTicks": 96,
          "midi": 39,
          "name": "D#2",
          "ticks": 117024,
          "time": 106.92976575,
          "velocity": 0.2440944881889764
        },
        {
          "duration": 0.08771924999999214,
          "durationTicks": 96,
          "midi": 46,
          "name": "A#2",
          "ticks": 117024,
          "time": 106.92976575,
          "velocity": 0.2440944881889764
        },
        {
          "duration": 0.08771924999999214,
          "durationTicks": 96,
          "midi": 51,
          "name": "D#3",
          "ticks": 117024,
          "time": 106.92976575,
          "velocity": 0.2440944881889764
        },
        {
          "duration": 0.08771925000000635,
          "durationTicks": 96,
          "midi": 51,
          "name": "D#3",
          "ticks": 117120,
          "time": 107.017485,
          "velocity": 0.2440944881889764
        },
        {
          "duration": 0.08771925000000635,
          "durationTicks": 96,
          "midi": 46,
          "name": "A#2",
          "ticks": 117120,
          "time": 107.017485,
          "velocity": 0.2440944881889764
        },
        {
          "duration": 0.1754384999999985,
          "durationTicks": 192,
          "midi": 51,
          "name": "D#3",
          "ticks": 117120,
          "time": 107.017485,
          "velocity": 0.2440944881889764
        },
        {
          "duration": 0.08771925000000635,
          "durationTicks": 96,
          "midi": 39,
          "name": "D#2",
          "ticks": 117120,
          "time": 107.017485,
          "velocity": 0.2440944881889764
        },
        {
          "duration": 0.1754384999999985,
          "durationTicks": 192,
          "midi": 39,
          "name": "D#2",
          "ticks": 117120,
          "time": 107.017485,
          "velocity": 0.2440944881889764
        },
        {
          "duration": 0.1754384999999985,
          "durationTicks": 192,
          "midi": 46,
          "name": "A#2",
          "ticks": 117120,
          "time": 107.017485,
          "velocity": 0.2440944881889764
        },
        {
          "duration": 0.1754384999999985,
          "durationTicks": 192,
          "midi": 46,
          "name": "A#2",
          "ticks": 117216,
          "time": 107.10520425,
          "velocity": 0.2440944881889764
        },
        {
          "duration": 0.1754384999999985,
          "durationTicks": 192,
          "midi": 39,
          "name": "D#2",
          "ticks": 117216,
          "time": 107.10520425,
          "velocity": 0.2440944881889764
        },
        {
          "duration": 0.1754384999999985,
          "durationTicks": 192,
          "midi": 51,
          "name": "D#3",
          "ticks": 117216,
          "time": 107.10520425,
          "velocity": 0.2440944881889764
        },
        {
          "duration": 0.1754385000000127,
          "durationTicks": 192,
          "midi": 51,
          "name": "D#3",
          "ticks": 117312,
          "time": 107.19292349999999,
          "velocity": 0.2440944881889764
        },
        {
          "duration": 0.1754385000000127,
          "durationTicks": 192,
          "midi": 39,
          "name": "D#2",
          "ticks": 117312,
          "time": 107.19292349999999,
          "velocity": 0.2440944881889764
        },
        {
          "duration": 0.1754385000000127,
          "durationTicks": 192,
          "midi": 46,
          "name": "A#2",
          "ticks": 117312,
          "time": 107.19292349999999,
          "velocity": 0.2440944881889764
        },
        {
          "duration": 0.08771925000000635,
          "durationTicks": 96,
          "midi": 46,
          "name": "A#2",
          "ticks": 117408,
          "time": 107.28064275,
          "velocity": 0.2440944881889764
        },
        {
          "duration": 0.08771925000000635,
          "durationTicks": 96,
          "midi": 39,
          "name": "D#2",
          "ticks": 117408,
          "time": 107.28064275,
          "velocity": 0.2440944881889764
        },
        {
          "duration": 0.08771925000000635,
          "durationTicks": 96,
          "midi": 51,
          "name": "D#3",
          "ticks": 117408,
          "time": 107.28064275,
          "velocity": 0.2440944881889764
        },
        {
          "duration": 0.08771924999999214,
          "durationTicks": 96,
          "midi": 39,
          "name": "D#2",
          "ticks": 117504,
          "time": 107.368362,
          "velocity": 0.2440944881889764
        },
        {
          "duration": 0.08771924999999214,
          "durationTicks": 96,
          "midi": 46,
          "name": "A#2",
          "ticks": 117504,
          "time": 107.368362,
          "velocity": 0.2440944881889764
        },
        {
          "duration": 0.1754384999999985,
          "durationTicks": 192,
          "midi": 46,
          "name": "A#2",
          "ticks": 117504,
          "time": 107.368362,
          "velocity": 0.2440944881889764
        },
        {
          "duration": 0.08771924999999214,
          "durationTicks": 96,
          "midi": 51,
          "name": "D#3",
          "ticks": 117504,
          "time": 107.368362,
          "velocity": 0.2440944881889764
        },
        {
          "duration": 0.1754384999999985,
          "durationTicks": 192,
          "midi": 51,
          "name": "D#3",
          "ticks": 117504,
          "time": 107.368362,
          "velocity": 0.2440944881889764
        },
        {
          "duration": 0.1754384999999985,
          "durationTicks": 192,
          "midi": 39,
          "name": "D#2",
          "ticks": 117504,
          "time": 107.368362,
          "velocity": 0.2440944881889764
        },
        {
          "duration": 0.1754384999999985,
          "durationTicks": 192,
          "midi": 51,
          "name": "D#3",
          "ticks": 117600,
          "time": 107.45608125,
          "velocity": 0.2440944881889764
        },
        {
          "duration": 0.1754384999999985,
          "durationTicks": 192,
          "midi": 46,
          "name": "A#2",
          "ticks": 117600,
          "time": 107.45608125,
          "velocity": 0.2440944881889764
        },
        {
          "duration": 0.1754384999999985,
          "durationTicks": 192,
          "midi": 39,
          "name": "D#2",
          "ticks": 117600,
          "time": 107.45608125,
          "velocity": 0.2440944881889764
        },
        {
          "duration": 0.1754384999999985,
          "durationTicks": 192,
          "midi": 51,
          "name": "D#3",
          "ticks": 117696,
          "time": 107.5438005,
          "velocity": 0.2440944881889764
        },
        {
          "duration": 0.1754384999999985,
          "durationTicks": 192,
          "midi": 46,
          "name": "A#2",
          "ticks": 117696,
          "time": 107.5438005,
          "velocity": 0.2440944881889764
        },
        {
          "duration": 0.1754384999999985,
          "durationTicks": 192,
          "midi": 39,
          "name": "D#2",
          "ticks": 117696,
          "time": 107.5438005,
          "velocity": 0.2440944881889764
        },
        {
          "duration": 0.08771925000000635,
          "durationTicks": 96,
          "midi": 39,
          "name": "D#2",
          "ticks": 117792,
          "time": 107.63151975,
          "velocity": 0.2440944881889764
        },
        {
          "duration": 0.08771925000000635,
          "durationTicks": 96,
          "midi": 51,
          "name": "D#3",
          "ticks": 117792,
          "time": 107.63151975,
          "velocity": 0.2440944881889764
        },
        {
          "duration": 0.08771925000000635,
          "durationTicks": 96,
          "midi": 46,
          "name": "A#2",
          "ticks": 117792,
          "time": 107.63151975,
          "velocity": 0.2440944881889764
        },
        {
          "duration": 0.08771924999999214,
          "durationTicks": 96,
          "midi": 51,
          "name": "D#3",
          "ticks": 117888,
          "time": 107.719239,
          "velocity": 0.2440944881889764
        },
        {
          "duration": 0.08771924999999214,
          "durationTicks": 96,
          "midi": 39,
          "name": "D#2",
          "ticks": 117888,
          "time": 107.719239,
          "velocity": 0.2440944881889764
        },
        {
          "duration": 0.08771924999999214,
          "durationTicks": 96,
          "midi": 46,
          "name": "A#2",
          "ticks": 117888,
          "time": 107.719239,
          "velocity": 0.2440944881889764
        },
        {
          "duration": 0.08771925000000635,
          "durationTicks": 96,
          "midi": 46,
          "name": "A#2",
          "ticks": 117984,
          "time": 107.80695825,
          "velocity": 0.2440944881889764
        },
        {
          "duration": 0.08771925000000635,
          "durationTicks": 96,
          "midi": 39,
          "name": "D#2",
          "ticks": 117984,
          "time": 107.80695825,
          "velocity": 0.2440944881889764
        },
        {
          "duration": 0.08771925000000635,
          "durationTicks": 96,
          "midi": 51,
          "name": "D#3",
          "ticks": 117984,
          "time": 107.80695825,
          "velocity": 0.2440944881889764
        },
        {
          "duration": 0.08771924999999214,
          "durationTicks": 96,
          "midi": 39,
          "name": "D#2",
          "ticks": 118080,
          "time": 107.8946775,
          "velocity": 0.2440944881889764
        },
        {
          "duration": 0.08771924999999214,
          "durationTicks": 96,
          "midi": 46,
          "name": "A#2",
          "ticks": 118080,
          "time": 107.8946775,
          "velocity": 0.2440944881889764
        },
        {
          "duration": 0.1754384999999985,
          "durationTicks": 192,
          "midi": 39,
          "name": "D#2",
          "ticks": 118080,
          "time": 107.8946775,
          "velocity": 0.2440944881889764
        },
        {
          "duration": 0.1754384999999985,
          "durationTicks": 192,
          "midi": 46,
          "name": "A#2",
          "ticks": 118080,
          "time": 107.8946775,
          "velocity": 0.2440944881889764
        },
        {
          "duration": 0.08771924999999214,
          "durationTicks": 96,
          "midi": 51,
          "name": "D#3",
          "ticks": 118080,
          "time": 107.8946775,
          "velocity": 0.2440944881889764
        },
        {
          "duration": 0.1754384999999985,
          "durationTicks": 192,
          "midi": 51,
          "name": "D#3",
          "ticks": 118080,
          "time": 107.8946775,
          "velocity": 0.2440944881889764
        },
        {
          "duration": 0.1754385000000127,
          "durationTicks": 192,
          "midi": 51,
          "name": "D#3",
          "ticks": 118176,
          "time": 107.98239674999999,
          "velocity": 0.2440944881889764
        },
        {
          "duration": 0.1754385000000127,
          "durationTicks": 192,
          "midi": 46,
          "name": "A#2",
          "ticks": 118176,
          "time": 107.98239674999999,
          "velocity": 0.2440944881889764
        },
        {
          "duration": 0.1754385000000127,
          "durationTicks": 192,
          "midi": 39,
          "name": "D#2",
          "ticks": 118176,
          "time": 107.98239674999999,
          "velocity": 0.2440944881889764
        },
        {
          "duration": 0.1754384999999985,
          "durationTicks": 192,
          "midi": 51,
          "name": "D#3",
          "ticks": 118272,
          "time": 108.070116,
          "velocity": 0.2440944881889764
        },
        {
          "duration": 0.1754384999999985,
          "durationTicks": 192,
          "midi": 46,
          "name": "A#2",
          "ticks": 118272,
          "time": 108.070116,
          "velocity": 0.2440944881889764
        },
        {
          "duration": 0.1754384999999985,
          "durationTicks": 192,
          "midi": 39,
          "name": "D#2",
          "ticks": 118272,
          "time": 108.070116,
          "velocity": 0.2440944881889764
        },
        {
          "duration": 0.08771924999999214,
          "durationTicks": 96,
          "midi": 39,
          "name": "D#2",
          "ticks": 118368,
          "time": 108.15783525,
          "velocity": 0.2440944881889764
        },
        {
          "duration": 0.08771924999999214,
          "durationTicks": 96,
          "midi": 51,
          "name": "D#3",
          "ticks": 118368,
          "time": 108.15783525,
          "velocity": 0.2440944881889764
        },
        {
          "duration": 0.08771924999999214,
          "durationTicks": 96,
          "midi": 46,
          "name": "A#2",
          "ticks": 118368,
          "time": 108.15783525,
          "velocity": 0.2440944881889764
        },
        {
          "duration": 0.08771925000000635,
          "durationTicks": 96,
          "midi": 51,
          "name": "D#3",
          "ticks": 118464,
          "time": 108.2455545,
          "velocity": 0.2440944881889764
        },
        {
          "duration": 0.08771925000000635,
          "durationTicks": 96,
          "midi": 39,
          "name": "D#2",
          "ticks": 118464,
          "time": 108.2455545,
          "velocity": 0.2440944881889764
        },
        {
          "duration": 0.08771925000000635,
          "durationTicks": 96,
          "midi": 46,
          "name": "A#2",
          "ticks": 118464,
          "time": 108.2455545,
          "velocity": 0.2440944881889764
        },
        {
          "duration": 0.08771924999999214,
          "durationTicks": 96,
          "midi": 39,
          "name": "D#2",
          "ticks": 118560,
          "time": 108.33327375,
          "velocity": 0.2440944881889764
        },
        {
          "duration": 0.08771924999999214,
          "durationTicks": 96,
          "midi": 46,
          "name": "A#2",
          "ticks": 118560,
          "time": 108.33327375,
          "velocity": 0.2440944881889764
        },
        {
          "duration": 0.08771924999999214,
          "durationTicks": 96,
          "midi": 51,
          "name": "D#3",
          "ticks": 118560,
          "time": 108.33327375,
          "velocity": 0.2440944881889764
        },
        {
          "duration": 0.08771925000000635,
          "durationTicks": 96,
          "midi": 39,
          "name": "D#2",
          "ticks": 118656,
          "time": 108.420993,
          "velocity": 0.2440944881889764
        },
        {
          "duration": 0.1754384999999985,
          "durationTicks": 192,
          "midi": 39,
          "name": "D#2",
          "ticks": 118656,
          "time": 108.420993,
          "velocity": 0.2440944881889764
        },
        {
          "duration": 0.08771925000000635,
          "durationTicks": 96,
          "midi": 51,
          "name": "D#3",
          "ticks": 118656,
          "time": 108.420993,
          "velocity": 0.2440944881889764
        },
        {
          "duration": 0.1754384999999985,
          "durationTicks": 192,
          "midi": 51,
          "name": "D#3",
          "ticks": 118656,
          "time": 108.420993,
          "velocity": 0.2440944881889764
        },
        {
          "duration": 0.08771925000000635,
          "durationTicks": 96,
          "midi": 46,
          "name": "A#2",
          "ticks": 118656,
          "time": 108.420993,
          "velocity": 0.2440944881889764
        },
        {
          "duration": 0.1754384999999985,
          "durationTicks": 192,
          "midi": 46,
          "name": "A#2",
          "ticks": 118656,
          "time": 108.420993,
          "velocity": 0.2440944881889764
        },
        {
          "duration": 0.1754384999999985,
          "durationTicks": 192,
          "midi": 46,
          "name": "A#2",
          "ticks": 118752,
          "time": 108.50871225,
          "velocity": 0.2440944881889764
        },
        {
          "duration": 0.1754384999999985,
          "durationTicks": 192,
          "midi": 51,
          "name": "D#3",
          "ticks": 118752,
          "time": 108.50871225,
          "velocity": 0.2440944881889764
        },
        {
          "duration": 0.1754384999999985,
          "durationTicks": 192,
          "midi": 39,
          "name": "D#2",
          "ticks": 118752,
          "time": 108.50871225,
          "velocity": 0.2440944881889764
        },
        {
          "duration": 0.1754384999999985,
          "durationTicks": 192,
          "midi": 39,
          "name": "D#2",
          "ticks": 118848,
          "time": 108.5964315,
          "velocity": 0.2440944881889764
        },
        {
          "duration": 0.1754384999999985,
          "durationTicks": 192,
          "midi": 51,
          "name": "D#3",
          "ticks": 118848,
          "time": 108.5964315,
          "velocity": 0.2440944881889764
        },
        {
          "duration": 0.1754384999999985,
          "durationTicks": 192,
          "midi": 46,
          "name": "A#2",
          "ticks": 118848,
          "time": 108.5964315,
          "velocity": 0.2440944881889764
        },
        {
          "duration": 0.08771924999999214,
          "durationTicks": 96,
          "midi": 39,
          "name": "D#2",
          "ticks": 118944,
          "time": 108.68415075,
          "velocity": 0.2440944881889764
        },
        {
          "duration": 0.08771924999999214,
          "durationTicks": 96,
          "midi": 46,
          "name": "A#2",
          "ticks": 118944,
          "time": 108.68415075,
          "velocity": 0.2440944881889764
        },
        {
          "duration": 0.08771924999999214,
          "durationTicks": 96,
          "midi": 51,
          "name": "D#3",
          "ticks": 118944,
          "time": 108.68415075,
          "velocity": 0.2440944881889764
        },
        {
          "duration": 0.08771925000000635,
          "durationTicks": 96,
          "midi": 51,
          "name": "D#3",
          "ticks": 119040,
          "time": 108.77186999999999,
          "velocity": 0.2440944881889764
        },
        {
          "duration": 0.1754384999999985,
          "durationTicks": 192,
          "midi": 51,
          "name": "D#3",
          "ticks": 119040,
          "time": 108.77186999999999,
          "velocity": 0.2440944881889764
        },
        {
          "duration": 0.08771925000000635,
          "durationTicks": 96,
          "midi": 46,
          "name": "A#2",
          "ticks": 119040,
          "time": 108.77186999999999,
          "velocity": 0.2440944881889764
        },
        {
          "duration": 0.08771925000000635,
          "durationTicks": 96,
          "midi": 39,
          "name": "D#2",
          "ticks": 119040,
          "time": 108.77186999999999,
          "velocity": 0.2440944881889764
        },
        {
          "duration": 0.1754384999999985,
          "durationTicks": 192,
          "midi": 46,
          "name": "A#2",
          "ticks": 119040,
          "time": 108.77186999999999,
          "velocity": 0.2440944881889764
        },
        {
          "duration": 0.1754384999999985,
          "durationTicks": 192,
          "midi": 39,
          "name": "D#2",
          "ticks": 119040,
          "time": 108.77186999999999,
          "velocity": 0.2440944881889764
        },
        {
          "duration": 0.1754384999999985,
          "durationTicks": 192,
          "midi": 39,
          "name": "D#2",
          "ticks": 119136,
          "time": 108.85958925,
          "velocity": 0.2440944881889764
        },
        {
          "duration": 0.1754384999999985,
          "durationTicks": 192,
          "midi": 51,
          "name": "D#3",
          "ticks": 119136,
          "time": 108.85958925,
          "velocity": 0.2440944881889764
        },
        {
          "duration": 0.1754384999999985,
          "durationTicks": 192,
          "midi": 46,
          "name": "A#2",
          "ticks": 119136,
          "time": 108.85958925,
          "velocity": 0.2440944881889764
        },
        {
          "duration": 0.1754385000000127,
          "durationTicks": 192,
          "midi": 46,
          "name": "A#2",
          "ticks": 119232,
          "time": 108.94730849999999,
          "velocity": 0.2440944881889764
        },
        {
          "duration": 0.1754385000000127,
          "durationTicks": 192,
          "midi": 39,
          "name": "D#2",
          "ticks": 119232,
          "time": 108.94730849999999,
          "velocity": 0.2440944881889764
        },
        {
          "duration": 0.1754385000000127,
          "durationTicks": 192,
          "midi": 51,
          "name": "D#3",
          "ticks": 119232,
          "time": 108.94730849999999,
          "velocity": 0.2440944881889764
        },
        {
          "duration": 0.08771925000000635,
          "durationTicks": 96,
          "midi": 39,
          "name": "D#2",
          "ticks": 119328,
          "time": 109.03502775,
          "velocity": 0.2440944881889764
        },
        {
          "duration": 0.08771925000000635,
          "durationTicks": 96,
          "midi": 46,
          "name": "A#2",
          "ticks": 119328,
          "time": 109.03502775,
          "velocity": 0.2440944881889764
        },
        {
          "duration": 0.08771925000000635,
          "durationTicks": 96,
          "midi": 51,
          "name": "D#3",
          "ticks": 119328,
          "time": 109.03502775,
          "velocity": 0.2440944881889764
        },
        {
          "duration": 0.08771924999999214,
          "durationTicks": 96,
          "midi": 39,
          "name": "D#2",
          "ticks": 119424,
          "time": 109.122747,
          "velocity": 0.2440944881889764
        },
        {
          "duration": 0.08771924999999214,
          "durationTicks": 96,
          "midi": 46,
          "name": "A#2",
          "ticks": 119424,
          "time": 109.122747,
          "velocity": 0.2440944881889764
        },
        {
          "duration": 0.08771924999999214,
          "durationTicks": 96,
          "midi": 51,
          "name": "D#3",
          "ticks": 119424,
          "time": 109.122747,
          "velocity": 0.2440944881889764
        },
        {
          "duration": 0.08771925000000635,
          "durationTicks": 96,
          "midi": 39,
          "name": "D#2",
          "ticks": 119520,
          "time": 109.21046625,
          "velocity": 0.2440944881889764
        },
        {
          "duration": 0.08771925000000635,
          "durationTicks": 96,
          "midi": 51,
          "name": "D#3",
          "ticks": 119520,
          "time": 109.21046625,
          "velocity": 0.2440944881889764
        },
        {
          "duration": 0.08771925000000635,
          "durationTicks": 96,
          "midi": 46,
          "name": "A#2",
          "ticks": 119520,
          "time": 109.21046625,
          "velocity": 0.2440944881889764
        },
        {
          "duration": 0.08771924999999214,
          "durationTicks": 96,
          "midi": 46,
          "name": "A#2",
          "ticks": 119616,
          "time": 109.2981855,
          "velocity": 0.2440944881889764
        },
        {
          "duration": 0.08771924999999214,
          "durationTicks": 96,
          "midi": 39,
          "name": "D#2",
          "ticks": 119616,
          "time": 109.2981855,
          "velocity": 0.2440944881889764
        },
        {
          "duration": 0.1754384999999985,
          "durationTicks": 192,
          "midi": 46,
          "name": "A#2",
          "ticks": 119616,
          "time": 109.2981855,
          "velocity": 0.2440944881889764
        },
        {
          "duration": 0.1754384999999985,
          "durationTicks": 192,
          "midi": 39,
          "name": "D#2",
          "ticks": 119616,
          "time": 109.2981855,
          "velocity": 0.2440944881889764
        },
        {
          "duration": 0.08771924999999214,
          "durationTicks": 96,
          "midi": 51,
          "name": "D#3",
          "ticks": 119616,
          "time": 109.2981855,
          "velocity": 0.2440944881889764
        },
        {
          "duration": 0.1754384999999985,
          "durationTicks": 192,
          "midi": 51,
          "name": "D#3",
          "ticks": 119616,
          "time": 109.2981855,
          "velocity": 0.2440944881889764
        },
        {
          "duration": 0.1754384999999985,
          "durationTicks": 192,
          "midi": 39,
          "name": "D#2",
          "ticks": 119712,
          "time": 109.38590475,
          "velocity": 0.2440944881889764
        },
        {
          "duration": 0.1754384999999985,
          "durationTicks": 192,
          "midi": 46,
          "name": "A#2",
          "ticks": 119712,
          "time": 109.38590475,
          "velocity": 0.2440944881889764
        },
        {
          "duration": 0.1754384999999985,
          "durationTicks": 192,
          "midi": 51,
          "name": "D#3",
          "ticks": 119712,
          "time": 109.38590475,
          "velocity": 0.2440944881889764
        },
        {
          "duration": 0.1754384999999985,
          "durationTicks": 192,
          "midi": 39,
          "name": "D#2",
          "ticks": 119808,
          "time": 109.473624,
          "velocity": 0.2440944881889764
        },
        {
          "duration": 0.1754384999999985,
          "durationTicks": 192,
          "midi": 51,
          "name": "D#3",
          "ticks": 119808,
          "time": 109.473624,
          "velocity": 0.2440944881889764
        },
        {
          "duration": 0.1754384999999985,
          "durationTicks": 192,
          "midi": 46,
          "name": "A#2",
          "ticks": 119808,
          "time": 109.473624,
          "velocity": 0.2440944881889764
        },
        {
          "duration": 0.08771925000000635,
          "durationTicks": 96,
          "midi": 46,
          "name": "A#2",
          "ticks": 119904,
          "time": 109.56134325,
          "velocity": 0.2440944881889764
        },
        {
          "duration": 0.08771925000000635,
          "durationTicks": 96,
          "midi": 51,
          "name": "D#3",
          "ticks": 119904,
          "time": 109.56134325,
          "velocity": 0.2440944881889764
        },
        {
          "duration": 0.08771925000000635,
          "durationTicks": 96,
          "midi": 39,
          "name": "D#2",
          "ticks": 119904,
          "time": 109.56134325,
          "velocity": 0.2440944881889764
        },
        {
          "duration": 0.08771925000000635,
          "durationTicks": 96,
          "midi": 53,
          "name": "F3",
          "ticks": 120096,
          "time": 109.73678174999999,
          "velocity": 0.2440944881889764
        },
        {
          "duration": 0.08771925000000635,
          "durationTicks": 96,
          "midi": 41,
          "name": "F2",
          "ticks": 120096,
          "time": 109.73678174999999,
          "velocity": 0.2440944881889764
        },
        {
          "duration": 0.08771925000000635,
          "durationTicks": 96,
          "midi": 48,
          "name": "C3",
          "ticks": 120096,
          "time": 109.73678174999999,
          "velocity": 0.2440944881889764
        },
        {
          "duration": 0.08771925000000635,
          "durationTicks": 96,
          "midi": 41,
          "name": "F2",
          "ticks": 120192,
          "time": 109.824501,
          "velocity": 0.2440944881889764
        },
        {
          "duration": 0.08771925000000635,
          "durationTicks": 96,
          "midi": 53,
          "name": "F3",
          "ticks": 120192,
          "time": 109.824501,
          "velocity": 0.2440944881889764
        },
        {
          "duration": 0.08771925000000635,
          "durationTicks": 96,
          "midi": 48,
          "name": "C3",
          "ticks": 120192,
          "time": 109.824501,
          "velocity": 0.2440944881889764
        },
        {
          "duration": 0.08771924999999214,
          "durationTicks": 96,
          "midi": 41,
          "name": "F2",
          "ticks": 120288,
          "time": 109.91222025,
          "velocity": 0.2440944881889764
        },
        {
          "duration": 0.08771924999999214,
          "durationTicks": 96,
          "midi": 48,
          "name": "C3",
          "ticks": 120288,
          "time": 109.91222025,
          "velocity": 0.2440944881889764
        },
        {
          "duration": 0.08771924999999214,
          "durationTicks": 96,
          "midi": 53,
          "name": "F3",
          "ticks": 120288,
          "time": 109.91222025,
          "velocity": 0.2440944881889764
        },
        {
          "duration": 0.08771925000000635,
          "durationTicks": 96,
          "midi": 41,
          "name": "F2",
          "ticks": 120384,
          "time": 109.9999395,
          "velocity": 0.2440944881889764
        },
        {
          "duration": 0.08771925000000635,
          "durationTicks": 96,
          "midi": 53,
          "name": "F3",
          "ticks": 120384,
          "time": 109.9999395,
          "velocity": 0.2440944881889764
        },
        {
          "duration": 0.08771925000000635,
          "durationTicks": 96,
          "midi": 48,
          "name": "C3",
          "ticks": 120384,
          "time": 109.9999395,
          "velocity": 0.2440944881889764
        },
        {
          "duration": 0.08771924999999214,
          "durationTicks": 96,
          "midi": 53,
          "name": "F3",
          "ticks": 120480,
          "time": 110.08765875,
          "velocity": 0.2440944881889764
        },
        {
          "duration": 0.08771924999999214,
          "durationTicks": 96,
          "midi": 41,
          "name": "F2",
          "ticks": 120480,
          "time": 110.08765875,
          "velocity": 0.2440944881889764
        },
        {
          "duration": 0.08771924999999214,
          "durationTicks": 96,
          "midi": 48,
          "name": "C3",
          "ticks": 120480,
          "time": 110.08765875,
          "velocity": 0.2440944881889764
        },
        {
          "duration": 0.08771925000000635,
          "durationTicks": 96,
          "midi": 41,
          "name": "F2",
          "ticks": 120576,
          "time": 110.175378,
          "velocity": 0.2440944881889764
        },
        {
          "duration": 0.08771925000000635,
          "durationTicks": 96,
          "midi": 53,
          "name": "F3",
          "ticks": 120576,
          "time": 110.175378,
          "velocity": 0.2440944881889764
        },
        {
          "duration": 0.08771925000000635,
          "durationTicks": 96,
          "midi": 48,
          "name": "C3",
          "ticks": 120576,
          "time": 110.175378,
          "velocity": 0.2440944881889764
        },
        {
          "duration": 0.08771924999999214,
          "durationTicks": 96,
          "midi": 48,
          "name": "C3",
          "ticks": 120672,
          "time": 110.26309725,
          "velocity": 0.2440944881889764
        },
        {
          "duration": 0.08771924999999214,
          "durationTicks": 96,
          "midi": 53,
          "name": "F3",
          "ticks": 120672,
          "time": 110.26309725,
          "velocity": 0.2440944881889764
        },
        {
          "duration": 0.08771924999999214,
          "durationTicks": 96,
          "midi": 41,
          "name": "F2",
          "ticks": 120672,
          "time": 110.26309725,
          "velocity": 0.2440944881889764
        },
        {
          "duration": 0.08771925000000635,
          "durationTicks": 96,
          "midi": 41,
          "name": "F2",
          "ticks": 120768,
          "time": 110.3508165,
          "velocity": 0.2440944881889764
        },
        {
          "duration": 0.08771925000000635,
          "durationTicks": 96,
          "midi": 53,
          "name": "F3",
          "ticks": 120768,
          "time": 110.3508165,
          "velocity": 0.2440944881889764
        },
        {
          "duration": 0.08771925000000635,
          "durationTicks": 96,
          "midi": 48,
          "name": "C3",
          "ticks": 120768,
          "time": 110.3508165,
          "velocity": 0.2440944881889764
        },
        {
          "duration": 0.08771924999999214,
          "durationTicks": 96,
          "midi": 53,
          "name": "F3",
          "ticks": 120864,
          "time": 110.43853575,
          "velocity": 0.2440944881889764
        },
        {
          "duration": 0.08771924999999214,
          "durationTicks": 96,
          "midi": 48,
          "name": "C3",
          "ticks": 120864,
          "time": 110.43853575,
          "velocity": 0.2440944881889764
        },
        {
          "duration": 0.08771924999999214,
          "durationTicks": 96,
          "midi": 41,
          "name": "F2",
          "ticks": 120864,
          "time": 110.43853575,
          "velocity": 0.2440944881889764
        },
        {
          "duration": 0.08771925000000635,
          "durationTicks": 96,
          "midi": 48,
          "name": "C3",
          "ticks": 120960,
          "time": 110.52625499999999,
          "velocity": 0.2440944881889764
        },
        {
          "duration": 0.08771925000000635,
          "durationTicks": 96,
          "midi": 41,
          "name": "F2",
          "ticks": 120960,
          "time": 110.52625499999999,
          "velocity": 0.2440944881889764
        },
        {
          "duration": 0.08771925000000635,
          "durationTicks": 96,
          "midi": 53,
          "name": "F3",
          "ticks": 120960,
          "time": 110.52625499999999,
          "velocity": 0.2440944881889764
        },
        {
          "duration": 0.08771925000000635,
          "durationTicks": 96,
          "midi": 41,
          "name": "F2",
          "ticks": 121056,
          "time": 110.61397425,
          "velocity": 0.2440944881889764
        },
        {
          "duration": 0.08771925000000635,
          "durationTicks": 96,
          "midi": 53,
          "name": "F3",
          "ticks": 121056,
          "time": 110.61397425,
          "velocity": 0.2440944881889764
        },
        {
          "duration": 0.08771925000000635,
          "durationTicks": 96,
          "midi": 48,
          "name": "C3",
          "ticks": 121056,
          "time": 110.61397425,
          "velocity": 0.2440944881889764
        },
        {
          "duration": 0.08771924999999214,
          "durationTicks": 96,
          "midi": 41,
          "name": "F2",
          "ticks": 121152,
          "time": 110.7016935,
          "velocity": 0.2440944881889764
        },
        {
          "duration": 0.08771924999999214,
          "durationTicks": 96,
          "midi": 48,
          "name": "C3",
          "ticks": 121152,
          "time": 110.7016935,
          "velocity": 0.2440944881889764
        },
        {
          "duration": 0.08771924999999214,
          "durationTicks": 96,
          "midi": 53,
          "name": "F3",
          "ticks": 121152,
          "time": 110.7016935,
          "velocity": 0.2440944881889764
        },
        {
          "duration": 0.08771925000000635,
          "durationTicks": 96,
          "midi": 41,
          "name": "F2",
          "ticks": 121248,
          "time": 110.78941275,
          "velocity": 0.2440944881889764
        },
        {
          "duration": 0.08771925000000635,
          "durationTicks": 96,
          "midi": 48,
          "name": "C3",
          "ticks": 121248,
          "time": 110.78941275,
          "velocity": 0.2440944881889764
        },
        {
          "duration": 0.08771925000000635,
          "durationTicks": 96,
          "midi": 53,
          "name": "F3",
          "ticks": 121248,
          "time": 110.78941275,
          "velocity": 0.2440944881889764
        },
        {
          "duration": 0.08771924999999214,
          "durationTicks": 96,
          "midi": 41,
          "name": "F2",
          "ticks": 121344,
          "time": 110.877132,
          "velocity": 0.2440944881889764
        },
        {
          "duration": 0.08771924999999214,
          "durationTicks": 96,
          "midi": 53,
          "name": "F3",
          "ticks": 121344,
          "time": 110.877132,
          "velocity": 0.2440944881889764
        },
        {
          "duration": 0.08771924999999214,
          "durationTicks": 96,
          "midi": 48,
          "name": "C3",
          "ticks": 121344,
          "time": 110.877132,
          "velocity": 0.2440944881889764
        },
        {
          "duration": 0.08771925000000635,
          "durationTicks": 96,
          "midi": 48,
          "name": "C3",
          "ticks": 121440,
          "time": 110.96485125,
          "velocity": 0.2440944881889764
        },
        {
          "duration": 0.08771925000000635,
          "durationTicks": 96,
          "midi": 41,
          "name": "F2",
          "ticks": 121440,
          "time": 110.96485125,
          "velocity": 0.2440944881889764
        },
        {
          "duration": 0.08771925000000635,
          "durationTicks": 96,
          "midi": 53,
          "name": "F3",
          "ticks": 121440,
          "time": 110.96485125,
          "velocity": 0.2440944881889764
        }
      ],
      "endOfTrackTicks": 121536
    },
    {
      "channel": 8,
      "controlChanges": {},
      "pitchBends": [],
      "instrument": {
        "family": "pipe",
        "number": 73,
        "name": "flute"
      },
      "name": "Flute",
      "notes": [
        {
          "duration": 2.4561390000000074,
          "durationTicks": 2688,
          "midi": 37,
          "name": "C#2",
          "ticks": 184800,
          "time": 168.85955625,
          "velocity": 0.7874015748031497
        },
        {
          "duration": 2.4561390000000074,
          "durationTicks": 2688,
          "midi": 25,
          "name": "C#1",
          "ticks": 184800,
          "time": 168.85955625,
          "velocity": 0.7874015748031497
        },
        {
          "duration": 2.4561390000000074,
          "durationTicks": 2688,
          "midi": 39,
          "name": "D#2",
          "ticks": 187968,
          "time": 171.7542915,
          "velocity": 0.7874015748031497
        },
        {
          "duration": 2.4561390000000074,
          "durationTicks": 2688,
          "midi": 27,
          "name": "D#1",
          "ticks": 187968,
          "time": 171.7542915,
          "velocity": 0.7874015748031497
        }
      ],
      "endOfTrackTicks": 190656
    },
    {
      "channel": 10,
      "controlChanges": {},
      "pitchBends": [],
      "instrument": {
        "family": "reed",
        "number": 64,
        "name": "soprano sax"
      },
      "name": "Saxophone",
      "notes": [
        {
          "duration": 0.08771924999999925,
          "durationTicks": 96,
          "midi": 65,
          "name": "F4",
          "ticks": 49344,
          "time": 45.0876945,
          "velocity": 0.23622047244094488
        },
        {
          "duration": 0.08771924999999925,
          "durationTicks": 96,
          "midi": 58,
          "name": "A#3",
          "ticks": 49728,
          "time": 45.4385715,
          "velocity": 0.23622047244094488
        },
        {
          "duration": 0.08771924999999925,
          "durationTicks": 96,
          "midi": 60,
          "name": "C4",
          "ticks": 50112,
          "time": 45.7894485,
          "velocity": 0.23622047244094488
        },
        {
          "duration": 0.08771925000000635,
          "durationTicks": 96,
          "midi": 58,
          "name": "A#3",
          "ticks": 50496,
          "time": 46.140325499999996,
          "velocity": 0.23622047244094488
        },
        {
          "duration": 0.08771924999999925,
          "durationTicks": 96,
          "midi": 53,
          "name": "F3",
          "ticks": 50880,
          "time": 46.4912025,
          "velocity": 0.23622047244094488
        },
        {
          "duration": 0.08771924999999925,
          "durationTicks": 96,
          "midi": 58,
          "name": "A#3",
          "ticks": 51264,
          "time": 46.8420795,
          "velocity": 0.23622047244094488
        },
        {
          "duration": 0.08771924999999925,
          "durationTicks": 96,
          "midi": 60,
          "name": "C4",
          "ticks": 51648,
          "time": 47.1929565,
          "velocity": 0.23622047244094488
        },
        {
          "duration": 0.08771924999999925,
          "durationTicks": 96,
          "midi": 58,
          "name": "A#3",
          "ticks": 52032,
          "time": 47.5438335,
          "velocity": 0.23622047244094488
        },
        {
          "duration": 0.08771924999999925,
          "durationTicks": 96,
          "midi": 53,
          "name": "F3",
          "ticks": 52416,
          "time": 47.8947105,
          "velocity": 0.23622047244094488
        },
        {
          "duration": 0.08771924999999925,
          "durationTicks": 96,
          "midi": 53,
          "name": "F3",
          "ticks": 52800,
          "time": 48.2455875,
          "velocity": 0.23622047244094488
        },
        {
          "duration": 0.08771924999999925,
          "durationTicks": 96,
          "midi": 58,
          "name": "A#3",
          "ticks": 52992,
          "time": 48.421026,
          "velocity": 0.23622047244094488
        },
        {
          "duration": 0.08771925000000635,
          "durationTicks": 96,
          "midi": 60,
          "name": "C4",
          "ticks": 53184,
          "time": 48.596464499999996,
          "velocity": 0.23622047244094488
        },
        {
          "duration": 0.08771924999999925,
          "durationTicks": 96,
          "midi": 63,
          "name": "D#4",
          "ticks": 53568,
          "time": 48.9473415,
          "velocity": 0.23622047244094488
        },
        {
          "duration": 0.08771924999999925,
          "durationTicks": 96,
          "midi": 62,
          "name": "D4",
          "ticks": 53952,
          "time": 49.2982185,
          "velocity": 0.23622047244094488
        },
        {
          "duration": 0.08771924999999925,
          "durationTicks": 96,
          "midi": 63,
          "name": "D#4",
          "ticks": 54336,
          "time": 49.6490955,
          "velocity": 0.23622047244094488
        },
        {
          "duration": 0.08771924999999925,
          "durationTicks": 96,
          "midi": 62,
          "name": "D4",
          "ticks": 54720,
          "time": 49.9999725,
          "velocity": 0.23622047244094488
        },
        {
          "duration": 0.08771924999999925,
          "durationTicks": 96,
          "midi": 60,
          "name": "C4",
          "ticks": 54912,
          "time": 50.175411,
          "velocity": 0.23622047244094488
        },
        {
          "duration": 0.08771924999999925,
          "durationTicks": 96,
          "midi": 58,
          "name": "A#3",
          "ticks": 55104,
          "time": 50.3508495,
          "velocity": 0.23622047244094488
        },
        {
          "duration": 0.08771924999999925,
          "durationTicks": 96,
          "midi": 65,
          "name": "F4",
          "ticks": 55488,
          "time": 50.7017265,
          "velocity": 0.23622047244094488
        },
        {
          "duration": 0.08771924999999925,
          "durationTicks": 96,
          "midi": 58,
          "name": "A#3",
          "ticks": 55872,
          "time": 51.0526035,
          "velocity": 0.23622047244094488
        },
        {
          "duration": 0.08771924999999925,
          "durationTicks": 96,
          "midi": 60,
          "name": "C4",
          "ticks": 56256,
          "time": 51.4034805,
          "velocity": 0.23622047244094488
        },
        {
          "duration": 0.08771924999999925,
          "durationTicks": 96,
          "midi": 58,
          "name": "A#3",
          "ticks": 56640,
          "time": 51.7543575,
          "velocity": 0.23622047244094488
        },
        {
          "duration": 0.08771924999999925,
          "durationTicks": 96,
          "midi": 53,
          "name": "F3",
          "ticks": 57024,
          "time": 52.1052345,
          "velocity": 0.23622047244094488
        },
        {
          "duration": 0.08771924999999925,
          "durationTicks": 96,
          "midi": 58,
          "name": "A#3",
          "ticks": 57408,
          "time": 52.4561115,
          "velocity": 0.23622047244094488
        },
        {
          "duration": 0.08771925000000635,
          "durationTicks": 96,
          "midi": 60,
          "name": "C4",
          "ticks": 57792,
          "time": 52.806988499999996,
          "velocity": 0.23622047244094488
        },
        {
          "duration": 0.08771924999999925,
          "durationTicks": 96,
          "midi": 58,
          "name": "A#3",
          "ticks": 58176,
          "time": 53.1578655,
          "velocity": 0.23622047244094488
        },
        {
          "duration": 0.08771924999999925,
          "durationTicks": 96,
          "midi": 53,
          "name": "F3",
          "ticks": 58560,
          "time": 53.5087425,
          "velocity": 0.23622047244094488
        },
        {
          "duration": 0.08771924999999925,
          "durationTicks": 96,
          "midi": 53,
          "name": "F3",
          "ticks": 58944,
          "time": 53.8596195,
          "velocity": 0.23622047244094488
        },
        {
          "duration": 0.08771924999999925,
          "durationTicks": 96,
          "midi": 58,
          "name": "A#3",
          "ticks": 59136,
          "time": 54.035058,
          "velocity": 0.23622047244094488
        },
        {
          "duration": 0.08771924999999925,
          "durationTicks": 96,
          "midi": 60,
          "name": "C4",
          "ticks": 59328,
          "time": 54.2104965,
          "velocity": 0.23622047244094488
        },
        {
          "duration": 0.08771924999999925,
          "durationTicks": 96,
          "midi": 63,
          "name": "D#4",
          "ticks": 59712,
          "time": 54.5613735,
          "velocity": 0.23622047244094488
        },
        {
          "duration": 0.08771924999999925,
          "durationTicks": 96,
          "midi": 62,
          "name": "D4",
          "ticks": 60096,
          "time": 54.9122505,
          "velocity": 0.23622047244094488
        },
        {
          "duration": 0.08771925000000635,
          "durationTicks": 96,
          "midi": 63,
          "name": "D#4",
          "ticks": 60480,
          "time": 55.263127499999996,
          "velocity": 0.23622047244094488
        },
        {
          "duration": 0.08771924999999925,
          "durationTicks": 96,
          "midi": 62,
          "name": "D4",
          "ticks": 60864,
          "time": 55.6140045,
          "velocity": 0.23622047244094488
        },
        {
          "duration": 0.08771924999999925,
          "durationTicks": 96,
          "midi": 60,
          "name": "C4",
          "ticks": 61056,
          "time": 55.789443,
          "velocity": 0.23622047244094488
        },
        {
          "duration": 0.08771924999999925,
          "durationTicks": 96,
          "midi": 58,
          "name": "A#3",
          "ticks": 61248,
          "time": 55.9648815,
          "velocity": 0.23622047244094488
        },
        {
          "duration": 0.08771924999999925,
          "durationTicks": 96,
          "midi": 65,
          "name": "F4",
          "ticks": 61632,
          "time": 56.3157585,
          "velocity": 0.23622047244094488
        },
        {
          "duration": 0.08771924999999925,
          "durationTicks": 96,
          "midi": 58,
          "name": "A#3",
          "ticks": 62016,
          "time": 56.6666355,
          "velocity": 0.23622047244094488
        },
        {
          "duration": 0.08771924999999925,
          "durationTicks": 96,
          "midi": 60,
          "name": "C4",
          "ticks": 62400,
          "time": 57.0175125,
          "velocity": 0.23622047244094488
        },
        {
          "duration": 0.08771924999999925,
          "durationTicks": 96,
          "midi": 58,
          "name": "A#3",
          "ticks": 62784,
          "time": 57.3683895,
          "velocity": 0.23622047244094488
        },
        {
          "duration": 0.08771925000000635,
          "durationTicks": 96,
          "midi": 53,
          "name": "F3",
          "ticks": 63168,
          "time": 57.719266499999996,
          "velocity": 0.23622047244094488
        },
        {
          "duration": 0.08771924999999925,
          "durationTicks": 96,
          "midi": 58,
          "name": "A#3",
          "ticks": 63552,
          "time": 58.0701435,
          "velocity": 0.23622047244094488
        },
        {
          "duration": 0.08771924999999925,
          "durationTicks": 96,
          "midi": 60,
          "name": "C4",
          "ticks": 63936,
          "time": 58.4210205,
          "velocity": 0.23622047244094488
        },
        {
          "duration": 0.08771924999999925,
          "durationTicks": 96,
          "midi": 58,
          "name": "A#3",
          "ticks": 64320,
          "time": 58.7718975,
          "velocity": 0.23622047244094488
        },
        {
          "duration": 0.08771924999999925,
          "durationTicks": 96,
          "midi": 53,
          "name": "F3",
          "ticks": 64704,
          "time": 59.1227745,
          "velocity": 0.23622047244094488
        },
        {
          "duration": 0.08771924999999925,
          "durationTicks": 96,
          "midi": 53,
          "name": "F3",
          "ticks": 65088,
          "time": 59.4736515,
          "velocity": 0.23622047244094488
        },
        {
          "duration": 0.08771924999999925,
          "durationTicks": 96,
          "midi": 58,
          "name": "A#3",
          "ticks": 65280,
          "time": 59.64909,
          "velocity": 0.23622047244094488
        },
        {
          "duration": 0.08771924999999925,
          "durationTicks": 96,
          "midi": 60,
          "name": "C4",
          "ticks": 65472,
          "time": 59.8245285,
          "velocity": 0.23622047244094488
        },
        {
          "duration": 0.08771924999999925,
          "durationTicks": 96,
          "midi": 63,
          "name": "D#4",
          "ticks": 65856,
          "time": 60.1754055,
          "velocity": 0.23622047244094488
        },
        {
          "duration": 0.08771924999999925,
          "durationTicks": 96,
          "midi": 62,
          "name": "D4",
          "ticks": 66240,
          "time": 60.5262825,
          "velocity": 0.23622047244094488
        },
        {
          "duration": 0.08771924999999925,
          "durationTicks": 96,
          "midi": 63,
          "name": "D#4",
          "ticks": 66624,
          "time": 60.8771595,
          "velocity": 0.23622047244094488
        },
        {
          "duration": 0.08771924999999925,
          "durationTicks": 96,
          "midi": 62,
          "name": "D4",
          "ticks": 67008,
          "time": 61.2280365,
          "velocity": 0.23622047244094488
        },
        {
          "duration": 0.08771924999999925,
          "durationTicks": 96,
          "midi": 60,
          "name": "C4",
          "ticks": 67200,
          "time": 61.403475,
          "velocity": 0.23622047244094488
        },
        {
          "duration": 0.08771924999999925,
          "durationTicks": 96,
          "midi": 58,
          "name": "A#3",
          "ticks": 67392,
          "time": 61.5789135,
          "velocity": 0.23622047244094488
        },
        {
          "duration": 0.08771925000000635,
          "durationTicks": 96,
          "midi": 65,
          "name": "F4",
          "ticks": 67776,
          "time": 61.929790499999996,
          "velocity": 0.23622047244094488
        },
        {
          "duration": 0.08771924999999925,
          "durationTicks": 96,
          "midi": 58,
          "name": "A#3",
          "ticks": 68160,
          "time": 62.2806675,
          "velocity": 0.23622047244094488
        },
        {
          "duration": 0.08771924999999925,
          "durationTicks": 96,
          "midi": 60,
          "name": "C4",
          "ticks": 68544,
          "time": 62.6315445,
          "velocity": 0.23622047244094488
        },
        {
          "duration": 0.08771924999999925,
          "durationTicks": 96,
          "midi": 58,
          "name": "A#3",
          "ticks": 68928,
          "time": 62.9824215,
          "velocity": 0.23622047244094488
        },
        {
          "duration": 0.08771924999999925,
          "durationTicks": 96,
          "midi": 53,
          "name": "F3",
          "ticks": 69312,
          "time": 63.3332985,
          "velocity": 0.23622047244094488
        },
        {
          "duration": 0.08771924999999925,
          "durationTicks": 96,
          "midi": 58,
          "name": "A#3",
          "ticks": 69696,
          "time": 63.6841755,
          "velocity": 0.23622047244094488
        },
        {
          "duration": 0.08771925000000635,
          "durationTicks": 96,
          "midi": 60,
          "name": "C4",
          "ticks": 70080,
          "time": 64.03505249999999,
          "velocity": 0.23622047244094488
        },
        {
          "duration": 0.08771924999999214,
          "durationTicks": 96,
          "midi": 58,
          "name": "A#3",
          "ticks": 70464,
          "time": 64.3859295,
          "velocity": 0.23622047244094488
        },
        {
          "duration": 0.08771924999999214,
          "durationTicks": 96,
          "midi": 53,
          "name": "F3",
          "ticks": 70848,
          "time": 64.7368065,
          "velocity": 0.23622047244094488
        },
        {
          "duration": 0.08771925000000635,
          "durationTicks": 96,
          "midi": 53,
          "name": "F3",
          "ticks": 71232,
          "time": 65.0876835,
          "velocity": 0.23622047244094488
        },
        {
          "duration": 0.08771925000000635,
          "durationTicks": 96,
          "midi": 58,
          "name": "A#3",
          "ticks": 71424,
          "time": 65.263122,
          "velocity": 0.23622047244094488
        },
        {
          "duration": 0.08771925000000635,
          "durationTicks": 96,
          "midi": 60,
          "name": "C4",
          "ticks": 71616,
          "time": 65.4385605,
          "velocity": 0.23622047244094488
        },
        {
          "duration": 0.08771924999999214,
          "durationTicks": 96,
          "midi": 63,
          "name": "D#4",
          "ticks": 72000,
          "time": 65.7894375,
          "velocity": 0.23622047244094488
        },
        {
          "duration": 0.08771924999999214,
          "durationTicks": 96,
          "midi": 62,
          "name": "D4",
          "ticks": 72384,
          "time": 66.1403145,
          "velocity": 0.23622047244094488
        }
      ],
      "endOfTrackTicks": 72480
    },
    {
      "channel": 11,
      "controlChanges": {},
      "pitchBends": [],
      "instrument": {
        "family": "bass",
        "number": 38,
        "name": "synth bass 1"
      },
      "name": "Synth Bass",
      "notes": [
        {
          "duration": 0.0877192500000028,
          "durationTicks": 96,
          "midi": 65,
          "name": "F4",
          "ticks": 24768,
          "time": 22.631566499999998,
          "velocity": 0.41732283464566927
        },
        {
          "duration": 0.0877192500000028,
          "durationTicks": 96,
          "midi": 53,
          "name": "F3",
          "ticks": 24768,
          "time": 22.631566499999998,
          "velocity": 0.41732283464566927
        },
        {
          "duration": 0.08771924999999925,
          "durationTicks": 96,
          "midi": 53,
          "name": "F3",
          "ticks": 24864,
          "time": 22.71928575,
          "velocity": 0.41732283464566927
        },
        {
          "duration": 0.08771924999999925,
          "durationTicks": 96,
          "midi": 65,
          "name": "F4",
          "ticks": 24864,
          "time": 22.71928575,
          "velocity": 0.41732283464566927
        },
        {
          "duration": 0.08771924999999925,
          "durationTicks": 96,
          "midi": 53,
          "name": "F3",
          "ticks": 24960,
          "time": 22.807005,
          "velocity": 0.41732283464566927
        },
        {
          "duration": 0.08771924999999925,
          "durationTicks": 96,
          "midi": 65,
          "name": "F4",
          "ticks": 24960,
          "time": 22.807005,
          "velocity": 0.41732283464566927
        },
        {
          "duration": 0.08771924999999925,
          "durationTicks": 96,
          "midi": 53,
          "name": "F3",
          "ticks": 25056,
          "time": 22.89472425,
          "velocity": 0.41732283464566927
        },
        {
          "duration": 0.08771924999999925,
          "durationTicks": 96,
          "midi": 65,
          "name": "F4",
          "ticks": 25056,
          "time": 22.89472425,
          "velocity": 0.41732283464566927
        },
        {
          "duration": 0.08771924999999925,
          "durationTicks": 96,
          "midi": 65,
          "name": "F4",
          "ticks": 25152,
          "time": 22.9824435,
          "velocity": 0.41732283464566927
        },
        {
          "duration": 0.08771924999999925,
          "durationTicks": 96,
          "midi": 53,
          "name": "F3",
          "ticks": 25152,
          "time": 22.9824435,
          "velocity": 0.41732283464566927
        },
        {
          "duration": 0.0877192500000028,
          "durationTicks": 96,
          "midi": 65,
          "name": "F4",
          "ticks": 25248,
          "time": 23.070162749999998,
          "velocity": 0.41732283464566927
        },
        {
          "duration": 0.0877192500000028,
          "durationTicks": 96,
          "midi": 53,
          "name": "F3",
          "ticks": 25248,
          "time": 23.070162749999998,
          "velocity": 0.41732283464566927
        },
        {
          "duration": 0.08771924999999925,
          "durationTicks": 96,
          "midi": 65,
          "name": "F4",
          "ticks": 25344,
          "time": 23.157882,
          "velocity": 0.41732283464566927
        },
        {
          "duration": 0.08771924999999925,
          "durationTicks": 96,
          "midi": 53,
          "name": "F3",
          "ticks": 25344,
          "time": 23.157882,
          "velocity": 0.41732283464566927
        },
        {
          "duration": 0.08771924999999925,
          "durationTicks": 96,
          "midi": 53,
          "name": "F3",
          "ticks": 25440,
          "time": 23.24560125,
          "velocity": 0.41732283464566927
        },
        {
          "duration": 0.08771924999999925,
          "durationTicks": 96,
          "midi": 65,
          "name": "F4",
          "ticks": 25440,
          "time": 23.24560125,
          "velocity": 0.41732283464566927
        },
        {
          "duration": 0.08771924999999925,
          "durationTicks": 96,
          "midi": 65,
          "name": "F4",
          "ticks": 25536,
          "time": 23.3333205,
          "velocity": 0.41732283464566927
        },
        {
          "duration": 0.08771924999999925,
          "durationTicks": 96,
          "midi": 77,
          "name": "F5",
          "ticks": 25536,
          "time": 23.3333205,
          "velocity": 0.41732283464566927
        },
        {
          "duration": 0.0877192500000028,
          "durationTicks": 96,
          "midi": 77,
          "name": "F5",
          "ticks": 25632,
          "time": 23.42103975,
          "velocity": 0.41732283464566927
        },
        {
          "duration": 0.0877192500000028,
          "durationTicks": 96,
          "midi": 65,
          "name": "F4",
          "ticks": 25632,
          "time": 23.42103975,
          "velocity": 0.41732283464566927
        },
        {
          "duration": 0.08771924999999925,
          "durationTicks": 96,
          "midi": 65,
          "name": "F4",
          "ticks": 25728,
          "time": 23.508759,
          "velocity": 0.41732283464566927
        },
        {
          "duration": 0.08771924999999925,
          "durationTicks": 96,
          "midi": 77,
          "name": "F5",
          "ticks": 25728,
          "time": 23.508759,
          "velocity": 0.41732283464566927
        },
        {
          "duration": 0.08771924999999925,
          "durationTicks": 96,
          "midi": 65,
          "name": "F4",
          "ticks": 25824,
          "time": 23.59647825,
          "velocity": 0.41732283464566927
        },
        {
          "duration": 0.08771924999999925,
          "durationTicks": 96,
          "midi": 77,
          "name": "F5",
          "ticks": 25824,
          "time": 23.59647825,
          "velocity": 0.41732283464566927
        },
        {
          "duration": 0.08771924999999925,
          "durationTicks": 96,
          "midi": 77,
          "name": "F5",
          "ticks": 25920,
          "time": 23.6841975,
          "velocity": 0.41732283464566927
        },
        {
          "duration": 0.08771924999999925,
          "durationTicks": 96,
          "midi": 65,
          "name": "F4",
          "ticks": 25920,
          "time": 23.6841975,
          "velocity": 0.41732283464566927
        },
        {
          "duration": 0.08771924999999925,
          "durationTicks": 96,
          "midi": 77,
          "name": "F5",
          "ticks": 26016,
          "time": 23.77191675,
          "velocity": 0.41732283464566927
        },
        {
          "duration": 0.08771924999999925,
          "durationTicks": 96,
          "midi": 65,
          "name": "F4",
          "ticks": 26016,
          "time": 23.77191675,
          "velocity": 0.41732283464566927
        },
        {
          "duration": 0.0877192500000028,
          "durationTicks": 96,
          "midi": 77,
          "name": "F5",
          "ticks": 26112,
          "time": 23.859636,
          "velocity": 0.41732283464566927
        },
        {
          "duration": 0.0877192500000028,
          "durationTicks": 96,
          "midi": 65,
          "name": "F4",
          "ticks": 26112,
          "time": 23.859636,
          "velocity": 0.41732283464566927
        },
        {
          "duration": 0.08771924999999925,
          "durationTicks": 96,
          "midi": 77,
          "name": "F5",
          "ticks": 26208,
          "time": 23.94735525,
          "velocity": 0.41732283464566927
        },
        {
          "duration": 0.08771924999999925,
          "durationTicks": 96,
          "midi": 65,
          "name": "F4",
          "ticks": 26208,
          "time": 23.94735525,
          "velocity": 0.41732283464566927
        },
        {
          "duration": 0.08771924999999925,
          "durationTicks": 96,
          "midi": 60,
          "name": "C4",
          "ticks": 26304,
          "time": 24.0350745,
          "velocity": 0.41732283464566927
        },
        {
          "duration": 0.08771924999999925,
          "durationTicks": 96,
          "midi": 72,
          "name": "C5",
          "ticks": 26304,
          "time": 24.0350745,
          "velocity": 0.41732283464566927
        },
        {
          "duration": 0.08771924999999925,
          "durationTicks": 96,
          "midi": 72,
          "name": "C5",
          "ticks": 26400,
          "time": 24.12279375,
          "velocity": 0.41732283464566927
        },
        {
          "duration": 0.08771924999999925,
          "durationTicks": 96,
          "midi": 60,
          "name": "C4",
          "ticks": 26400,
          "time": 24.12279375,
          "velocity": 0.41732283464566927
        },
        {
          "duration": 0.08771924999999925,
          "durationTicks": 96,
          "midi": 72,
          "name": "C5",
          "ticks": 26496,
          "time": 24.210513,
          "velocity": 0.41732283464566927
        },
        {
          "duration": 0.08771924999999925,
          "durationTicks": 96,
          "midi": 60,
          "name": "C4",
          "ticks": 26496,
          "time": 24.210513,
          "velocity": 0.41732283464566927
        },
        {
          "duration": 0.0877192500000028,
          "durationTicks": 96,
          "midi": 60,
          "name": "C4",
          "ticks": 26592,
          "time": 24.298232249999998,
          "velocity": 0.41732283464566927
        },
        {
          "duration": 0.0877192500000028,
          "durationTicks": 96,
          "midi": 72,
          "name": "C5",
          "ticks": 26592,
          "time": 24.298232249999998,
          "velocity": 0.41732283464566927
        },
        {
          "duration": 0.08771924999999925,
          "durationTicks": 96,
          "midi": 72,
          "name": "C5",
          "ticks": 26688,
          "time": 24.3859515,
          "velocity": 0.41732283464566927
        },
        {
          "duration": 0.08771924999999925,
          "durationTicks": 96,
          "midi": 60,
          "name": "C4",
          "ticks": 26688,
          "time": 24.3859515,
          "velocity": 0.41732283464566927
        },
        {
          "duration": 0.08771924999999925,
          "durationTicks": 96,
          "midi": 72,
          "name": "C5",
          "ticks": 26784,
          "time": 24.47367075,
          "velocity": 0.41732283464566927
        },
        {
          "duration": 0.08771924999999925,
          "durationTicks": 96,
          "midi": 60,
          "name": "C4",
          "ticks": 26784,
          "time": 24.47367075,
          "velocity": 0.41732283464566927
        },
        {
          "duration": 0.08771924999999925,
          "durationTicks": 96,
          "midi": 60,
          "name": "C4",
          "ticks": 26880,
          "time": 24.56139,
          "velocity": 0.41732283464566927
        },
        {
          "duration": 0.08771924999999925,
          "durationTicks": 96,
          "midi": 72,
          "name": "C5",
          "ticks": 26880,
          "time": 24.56139,
          "velocity": 0.41732283464566927
        },
        {
          "duration": 0.08771924999999925,
          "durationTicks": 96,
          "midi": 60,
          "name": "C4",
          "ticks": 26976,
          "time": 24.64910925,
          "velocity": 0.41732283464566927
        },
        {
          "duration": 0.08771924999999925,
          "durationTicks": 96,
          "midi": 72,
          "name": "C5",
          "ticks": 26976,
          "time": 24.64910925,
          "velocity": 0.41732283464566927
        },
        {
          "duration": 0.0877192500000028,
          "durationTicks": 96,
          "midi": 60,
          "name": "C4",
          "ticks": 27072,
          "time": 24.736828499999998,
          "velocity": 0.41732283464566927
        },
        {
          "duration": 0.0877192500000028,
          "durationTicks": 96,
          "midi": 72,
          "name": "C5",
          "ticks": 27072,
          "time": 24.736828499999998,
          "velocity": 0.41732283464566927
        },
        {
          "duration": 0.08771924999999925,
          "durationTicks": 96,
          "midi": 72,
          "name": "C5",
          "ticks": 27168,
          "time": 24.82454775,
          "velocity": 0.41732283464566927
        },
        {
          "duration": 0.08771924999999925,
          "durationTicks": 96,
          "midi": 60,
          "name": "C4",
          "ticks": 27168,
          "time": 24.82454775,
          "velocity": 0.41732283464566927
        },
        {
          "duration": 0.08771924999999925,
          "durationTicks": 96,
          "midi": 60,
          "name": "C4",
          "ticks": 27264,
          "time": 24.912267,
          "velocity": 0.41732283464566927
        },
        {
          "duration": 0.08771924999999925,
          "durationTicks": 96,
          "midi": 72,
          "name": "C5",
          "ticks": 27264,
          "time": 24.912267,
          "velocity": 0.41732283464566927
        },
        {
          "duration": 0.08771924999999925,
          "durationTicks": 96,
          "midi": 70,
          "name": "A#4",
          "ticks": 27840,
          "time": 25.4385825,
          "velocity": 0.41732283464566927
        },
        {
          "duration": 0.08771924999999925,
          "durationTicks": 96,
          "midi": 58,
          "name": "A#3",
          "ticks": 27840,
          "time": 25.4385825,
          "velocity": 0.41732283464566927
        },
        {
          "duration": 0.0877192500000028,
          "durationTicks": 96,
          "midi": 70,
          "name": "A#4",
          "ticks": 27936,
          "time": 25.52630175,
          "velocity": 0.41732283464566927
        },
        {
          "duration": 0.0877192500000028,
          "durationTicks": 96,
          "midi": 58,
          "name": "A#3",
          "ticks": 27936,
          "time": 25.52630175,
          "velocity": 0.41732283464566927
        },
        {
          "duration": 0.08771924999999925,
          "durationTicks": 96,
          "midi": 70,
          "name": "A#4",
          "ticks": 28032,
          "time": 25.614021,
          "velocity": 0.41732283464566927
        },
        {
          "duration": 0.08771924999999925,
          "durationTicks": 96,
          "midi": 58,
          "name": "A#3",
          "ticks": 28032,
          "time": 25.614021,
          "velocity": 0.41732283464566927
        },
        {
          "duration": 0.08771924999999925,
          "durationTicks": 96,
          "midi": 70,
          "name": "A#4",
          "ticks": 28128,
          "time": 25.70174025,
          "velocity": 0.41732283464566927
        },
        {
          "duration": 0.08771924999999925,
          "durationTicks": 96,
          "midi": 58,
          "name": "A#3",
          "ticks": 28128,
          "time": 25.70174025,
          "velocity": 0.41732283464566927
        },
        {
          "duration": 0.08771924999999925,
          "durationTicks": 96,
          "midi": 70,
          "name": "A#4",
          "ticks": 28224,
          "time": 25.7894595,
          "velocity": 0.41732283464566927
        },
        {
          "duration": 0.08771924999999925,
          "durationTicks": 96,
          "midi": 58,
          "name": "A#3",
          "ticks": 28224,
          "time": 25.7894595,
          "velocity": 0.41732283464566927
        },
        {
          "duration": 0.08771924999999925,
          "durationTicks": 96,
          "midi": 58,
          "name": "A#3",
          "ticks": 28320,
          "time": 25.87717875,
          "velocity": 0.41732283464566927
        },
        {
          "duration": 0.08771924999999925,
          "durationTicks": 96,
          "midi": 70,
          "name": "A#4",
          "ticks": 28320,
          "time": 25.87717875,
          "velocity": 0.41732283464566927
        },
        {
          "duration": 0.0877192500000028,
          "durationTicks": 96,
          "midi": 58,
          "name": "A#3",
          "ticks": 28416,
          "time": 25.964897999999998,
          "velocity": 0.41732283464566927
        },
        {
          "duration": 0.0877192500000028,
          "durationTicks": 96,
          "midi": 70,
          "name": "A#4",
          "ticks": 28416,
          "time": 25.964897999999998,
          "velocity": 0.41732283464566927
        },
        {
          "duration": 0.08771924999999925,
          "durationTicks": 96,
          "midi": 58,
          "name": "A#3",
          "ticks": 28512,
          "time": 26.05261725,
          "velocity": 0.41732283464566927
        },
        {
          "duration": 0.08771924999999925,
          "durationTicks": 96,
          "midi": 70,
          "name": "A#4",
          "ticks": 28512,
          "time": 26.05261725,
          "velocity": 0.41732283464566927
        },
        {
          "duration": 0.08771924999999925,
          "durationTicks": 96,
          "midi": 77,
          "name": "F5",
          "ticks": 28608,
          "time": 26.1403365,
          "velocity": 0.41732283464566927
        },
        {
          "duration": 0.08771924999999925,
          "durationTicks": 96,
          "midi": 65,
          "name": "F4",
          "ticks": 28608,
          "time": 26.1403365,
          "velocity": 0.41732283464566927
        },
        {
          "duration": 0.08771924999999925,
          "durationTicks": 96,
          "midi": 65,
          "name": "F4",
          "ticks": 28704,
          "time": 26.22805575,
          "velocity": 0.41732283464566927
        },
        {
          "duration": 0.08771924999999925,
          "durationTicks": 96,
          "midi": 77,
          "name": "F5",
          "ticks": 28704,
          "time": 26.22805575,
          "velocity": 0.41732283464566927
        },
        {
          "duration": 0.08771924999999925,
          "durationTicks": 96,
          "midi": 77,
          "name": "F5",
          "ticks": 28800,
          "time": 26.315775,
          "velocity": 0.41732283464566927
        },
        {
          "duration": 0.08771924999999925,
          "durationTicks": 96,
          "midi": 65,
          "name": "F4",
          "ticks": 28800,
          "time": 26.315775,
          "velocity": 0.41732283464566927
        },
        {
          "duration": 0.0877192500000028,
          "durationTicks": 96,
          "midi": 65,
          "name": "F4",
          "ticks": 28896,
          "time": 26.403494249999998,
          "velocity": 0.41732283464566927
        },
        {
          "duration": 0.0877192500000028,
          "durationTicks": 96,
          "midi": 77,
          "name": "F5",
          "ticks": 28896,
          "time": 26.403494249999998,
          "velocity": 0.41732283464566927
        },
        {
          "duration": 0.08771924999999925,
          "durationTicks": 96,
          "midi": 65,
          "name": "F4",
          "ticks": 28992,
          "time": 26.4912135,
          "velocity": 0.41732283464566927
        },
        {
          "duration": 0.08771924999999925,
          "durationTicks": 96,
          "midi": 77,
          "name": "F5",
          "ticks": 28992,
          "time": 26.4912135,
          "velocity": 0.41732283464566927
        },
        {
          "duration": 0.08771924999999925,
          "durationTicks": 96,
          "midi": 77,
          "name": "F5",
          "ticks": 29088,
          "time": 26.57893275,
          "velocity": 0.41732283464566927
        },
        {
          "duration": 0.08771924999999925,
          "durationTicks": 96,
          "midi": 65,
          "name": "F4",
          "ticks": 29088,
          "time": 26.57893275,
          "velocity": 0.41732283464566927
        },
        {
          "duration": 0.08771924999999925,
          "durationTicks": 96,
          "midi": 65,
          "name": "F4",
          "ticks": 29184,
          "time": 26.666652,
          "velocity": 0.41732283464566927
        },
        {
          "duration": 0.08771924999999925,
          "durationTicks": 96,
          "midi": 77,
          "name": "F5",
          "ticks": 29184,
          "time": 26.666652,
          "velocity": 0.41732283464566927
        },
        {
          "duration": 0.0877192500000028,
          "durationTicks": 96,
          "midi": 77,
          "name": "F5",
          "ticks": 29280,
          "time": 26.75437125,
          "velocity": 0.41732283464566927
        },
        {
          "duration": 0.0877192500000028,
          "durationTicks": 96,
          "midi": 65,
          "name": "F4",
          "ticks": 29280,
          "time": 26.75437125,
          "velocity": 0.41732283464566927
        },
        {
          "duration": 0.08771924999999925,
          "durationTicks": 96,
          "midi": 65,
          "name": "F4",
          "ticks": 29376,
          "time": 26.8420905,
          "velocity": 0.41732283464566927
        },
        {
          "duration": 0.08771924999999925,
          "durationTicks": 96,
          "midi": 53,
          "name": "F3",
          "ticks": 29376,
          "time": 26.8420905,
          "velocity": 0.41732283464566927
        },
        {
          "duration": 0.08771924999999925,
          "durationTicks": 96,
          "midi": 65,
          "name": "F4",
          "ticks": 29472,
          "time": 26.92980975,
          "velocity": 0.41732283464566927
        },
        {
          "duration": 0.08771924999999925,
          "durationTicks": 96,
          "midi": 53,
          "name": "F3",
          "ticks": 29472,
          "time": 26.92980975,
          "velocity": 0.41732283464566927
        },
        {
          "duration": 0.08771924999999925,
          "durationTicks": 96,
          "midi": 53,
          "name": "F3",
          "ticks": 29568,
          "time": 27.017529,
          "velocity": 0.41732283464566927
        },
        {
          "duration": 0.08771924999999925,
          "durationTicks": 96,
          "midi": 65,
          "name": "F4",
          "ticks": 29568,
          "time": 27.017529,
          "velocity": 0.41732283464566927
        },
        {
          "duration": 0.08771924999999925,
          "durationTicks": 96,
          "midi": 65,
          "name": "F4",
          "ticks": 29664,
          "time": 27.10524825,
          "velocity": 0.41732283464566927
        },
        {
          "duration": 0.08771924999999925,
          "durationTicks": 96,
          "midi": 53,
          "name": "F3",
          "ticks": 29664,
          "time": 27.10524825,
          "velocity": 0.41732283464566927
        },
        {
          "duration": 0.0877192500000028,
          "durationTicks": 96,
          "midi": 65,
          "name": "F4",
          "ticks": 29760,
          "time": 27.192967499999998,
          "velocity": 0.41732283464566927
        },
        {
          "duration": 0.0877192500000028,
          "durationTicks": 96,
          "midi": 53,
          "name": "F3",
          "ticks": 29760,
          "time": 27.192967499999998,
          "velocity": 0.41732283464566927
        },
        {
          "duration": 0.08771924999999925,
          "durationTicks": 96,
          "midi": 65,
          "name": "F4",
          "ticks": 29856,
          "time": 27.28068675,
          "velocity": 0.41732283464566927
        },
        {
          "duration": 0.08771924999999925,
          "durationTicks": 96,
          "midi": 53,
          "name": "F3",
          "ticks": 29856,
          "time": 27.28068675,
          "velocity": 0.41732283464566927
        },
        {
          "duration": 0.08771924999999925,
          "durationTicks": 96,
          "midi": 53,
          "name": "F3",
          "ticks": 29952,
          "time": 27.368406,
          "velocity": 0.41732283464566927
        },
        {
          "duration": 0.08771924999999925,
          "durationTicks": 96,
          "midi": 65,
          "name": "F4",
          "ticks": 29952,
          "time": 27.368406,
          "velocity": 0.41732283464566927
        },
        {
          "duration": 0.08771924999999925,
          "durationTicks": 96,
          "midi": 65,
          "name": "F4",
          "ticks": 30048,
          "time": 27.45612525,
          "velocity": 0.41732283464566927
        },
        {
          "duration": 0.08771924999999925,
          "durationTicks": 96,
          "midi": 53,
          "name": "F3",
          "ticks": 30048,
          "time": 27.45612525,
          "velocity": 0.41732283464566927
        },
        {
          "duration": 0.08771924999999925,
          "durationTicks": 96,
          "midi": 65,
          "name": "F4",
          "ticks": 30144,
          "time": 27.5438445,
          "velocity": 0.41732283464566927
        },
        {
          "duration": 0.08771924999999925,
          "durationTicks": 96,
          "midi": 53,
          "name": "F3",
          "ticks": 30144,
          "time": 27.5438445,
          "velocity": 0.41732283464566927
        },
        {
          "duration": 0.0877192500000028,
          "durationTicks": 96,
          "midi": 65,
          "name": "F4",
          "ticks": 30240,
          "time": 27.631563749999998,
          "velocity": 0.41732283464566927
        },
        {
          "duration": 0.0877192500000028,
          "durationTicks": 96,
          "midi": 53,
          "name": "F3",
          "ticks": 30240,
          "time": 27.631563749999998,
          "velocity": 0.41732283464566927
        },
        {
          "duration": 0.08771924999999925,
          "durationTicks": 96,
          "midi": 53,
          "name": "F3",
          "ticks": 30336,
          "time": 27.719283,
          "velocity": 0.41732283464566927
        },
        {
          "duration": 0.08771924999999925,
          "durationTicks": 96,
          "midi": 65,
          "name": "F4",
          "ticks": 30336,
          "time": 27.719283,
          "velocity": 0.41732283464566927
        },
        {
          "duration": 0.08771924999999925,
          "durationTicks": 96,
          "midi": 57,
          "name": "A3",
          "ticks": 30912,
          "time": 28.2455985,
          "velocity": 0.41732283464566927
        },
        {
          "duration": 0.08771924999999925,
          "durationTicks": 96,
          "midi": 69,
          "name": "A4",
          "ticks": 30912,
          "time": 28.2455985,
          "velocity": 0.41732283464566927
        },
        {
          "duration": 0.08771924999999925,
          "durationTicks": 96,
          "midi": 69,
          "name": "A4",
          "ticks": 31008,
          "time": 28.33331775,
          "velocity": 0.41732283464566927
        },
        {
          "duration": 0.08771924999999925,
          "durationTicks": 96,
          "midi": 57,
          "name": "A3",
          "ticks": 31008,
          "time": 28.33331775,
          "velocity": 0.41732283464566927
        },
        {
          "duration": 0.0877192500000028,
          "durationTicks": 96,
          "midi": 69,
          "name": "A4",
          "ticks": 31104,
          "time": 28.421037,
          "velocity": 0.41732283464566927
        },
        {
          "duration": 0.0877192500000028,
          "durationTicks": 96,
          "midi": 57,
          "name": "A3",
          "ticks": 31104,
          "time": 28.421037,
          "velocity": 0.41732283464566927
        },
        {
          "duration": 0.08771924999999925,
          "durationTicks": 96,
          "midi": 69,
          "name": "A4",
          "ticks": 31200,
          "time": 28.50875625,
          "velocity": 0.41732283464566927
        },
        {
          "duration": 0.08771924999999925,
          "durationTicks": 96,
          "midi": 57,
          "name": "A3",
          "ticks": 31200,
          "time": 28.50875625,
          "velocity": 0.41732283464566927
        },
        {
          "duration": 0.08771924999999925,
          "durationTicks": 96,
          "midi": 57,
          "name": "A3",
          "ticks": 31296,
          "time": 28.5964755,
          "velocity": 0.41732283464566927
        },
        {
          "duration": 0.08771924999999925,
          "durationTicks": 96,
          "midi": 69,
          "name": "A4",
          "ticks": 31296,
          "time": 28.5964755,
          "velocity": 0.41732283464566927
        },
        {
          "duration": 0.08771924999999925,
          "durationTicks": 96,
          "midi": 69,
          "name": "A4",
          "ticks": 31392,
          "time": 28.68419475,
          "velocity": 0.41732283464566927
        },
        {
          "duration": 0.08771924999999925,
          "durationTicks": 96,
          "midi": 57,
          "name": "A3",
          "ticks": 31392,
          "time": 28.68419475,
          "velocity": 0.41732283464566927
        },
        {
          "duration": 0.08771924999999925,
          "durationTicks": 96,
          "midi": 69,
          "name": "A4",
          "ticks": 31488,
          "time": 28.771914,
          "velocity": 0.41732283464566927
        },
        {
          "duration": 0.08771924999999925,
          "durationTicks": 96,
          "midi": 57,
          "name": "A3",
          "ticks": 31488,
          "time": 28.771914,
          "velocity": 0.41732283464566927
        },
        {
          "duration": 0.0877192500000028,
          "durationTicks": 96,
          "midi": 62,
          "name": "D4",
          "ticks": 31584,
          "time": 28.859633249999998,
          "velocity": 0.41732283464566927
        },
        {
          "duration": 0.0877192500000028,
          "durationTicks": 96,
          "midi": 69,
          "name": "A4",
          "ticks": 31584,
          "time": 28.859633249999998,
          "velocity": 0.41732283464566927
        },
        {
          "duration": 0.0877192500000028,
          "durationTicks": 96,
          "midi": 57,
          "name": "A3",
          "ticks": 31584,
          "time": 28.859633249999998,
          "velocity": 0.41732283464566927
        },
        {
          "duration": 0.08771924999999925,
          "durationTicks": 96,
          "midi": 62,
          "name": "D4",
          "ticks": 31680,
          "time": 28.9473525,
          "velocity": 0.41732283464566927
        },
        {
          "duration": 0.08771924999999925,
          "durationTicks": 96,
          "midi": 69,
          "name": "A4",
          "ticks": 31680,
          "time": 28.9473525,
          "velocity": 0.41732283464566927
        },
        {
          "duration": 0.08771924999999925,
          "durationTicks": 96,
          "midi": 57,
          "name": "A3",
          "ticks": 31680,
          "time": 28.9473525,
          "velocity": 0.41732283464566927
        },
        {
          "duration": 0.08771924999999925,
          "durationTicks": 96,
          "midi": 62,
          "name": "D4",
          "ticks": 31776,
          "time": 29.03507175,
          "velocity": 0.41732283464566927
        },
        {
          "duration": 0.08771924999999925,
          "durationTicks": 96,
          "midi": 57,
          "name": "A3",
          "ticks": 31776,
          "time": 29.03507175,
          "velocity": 0.41732283464566927
        },
        {
          "duration": 0.08771924999999925,
          "durationTicks": 96,
          "midi": 69,
          "name": "A4",
          "ticks": 31776,
          "time": 29.03507175,
          "velocity": 0.41732283464566927
        },
        {
          "duration": 0.08771924999999925,
          "durationTicks": 96,
          "midi": 69,
          "name": "A4",
          "ticks": 31872,
          "time": 29.122791,
          "velocity": 0.41732283464566927
        },
        {
          "duration": 0.08771924999999925,
          "durationTicks": 96,
          "midi": 62,
          "name": "D4",
          "ticks": 31872,
          "time": 29.122791,
          "velocity": 0.41732283464566927
        },
        {
          "duration": 0.08771924999999925,
          "durationTicks": 96,
          "midi": 57,
          "name": "A3",
          "ticks": 31872,
          "time": 29.122791,
          "velocity": 0.41732283464566927
        },
        {
          "duration": 0.08771924999999925,
          "durationTicks": 96,
          "midi": 57,
          "name": "A3",
          "ticks": 31968,
          "time": 29.21051025,
          "velocity": 0.41732283464566927
        },
        {
          "duration": 0.08771924999999925,
          "durationTicks": 96,
          "midi": 62,
          "name": "D4",
          "ticks": 31968,
          "time": 29.21051025,
          "velocity": 0.41732283464566927
        },
        {
          "duration": 0.08771924999999925,
          "durationTicks": 96,
          "midi": 69,
          "name": "A4",
          "ticks": 31968,
          "time": 29.21051025,
          "velocity": 0.41732283464566927
        },
        {
          "duration": 0.0877192500000028,
          "durationTicks": 96,
          "midi": 62,
          "name": "D4",
          "ticks": 32064,
          "time": 29.298229499999998,
          "velocity": 0.41732283464566927
        },
        {
          "duration": 0.0877192500000028,
          "durationTicks": 96,
          "midi": 69,
          "name": "A4",
          "ticks": 32064,
          "time": 29.298229499999998,
          "velocity": 0.41732283464566927
        },
        {
          "duration": 0.0877192500000028,
          "durationTicks": 96,
          "midi": 57,
          "name": "A3",
          "ticks": 32064,
          "time": 29.298229499999998,
          "velocity": 0.41732283464566927
        },
        {
          "duration": 0.08771924999999925,
          "durationTicks": 96,
          "midi": 69,
          "name": "A4",
          "ticks": 32160,
          "time": 29.38594875,
          "velocity": 0.41732283464566927
        },
        {
          "duration": 0.08771924999999925,
          "durationTicks": 96,
          "midi": 57,
          "name": "A3",
          "ticks": 32160,
          "time": 29.38594875,
          "velocity": 0.41732283464566927
        },
        {
          "duration": 0.08771924999999925,
          "durationTicks": 96,
          "midi": 62,
          "name": "D4",
          "ticks": 32160,
          "time": 29.38594875,
          "velocity": 0.41732283464566927
        },
        {
          "duration": 0.08771924999999925,
          "durationTicks": 96,
          "midi": 69,
          "name": "A4",
          "ticks": 32256,
          "time": 29.473668,
          "velocity": 0.41732283464566927
        },
        {
          "duration": 0.08771924999999925,
          "durationTicks": 96,
          "midi": 62,
          "name": "D4",
          "ticks": 32256,
          "time": 29.473668,
          "velocity": 0.41732283464566927
        },
        {
          "duration": 0.08771924999999925,
          "durationTicks": 96,
          "midi": 57,
          "name": "A3",
          "ticks": 32256,
          "time": 29.473668,
          "velocity": 0.41732283464566927
        },
        {
          "duration": 0.08771924999999925,
          "durationTicks": 96,
          "midi": 57,
          "name": "A3",
          "ticks": 32352,
          "time": 29.56138725,
          "velocity": 0.41732283464566927
        },
        {
          "duration": 0.08771924999999925,
          "durationTicks": 96,
          "midi": 69,
          "name": "A4",
          "ticks": 32352,
          "time": 29.56138725,
          "velocity": 0.41732283464566927
        },
        {
          "duration": 0.0877192500000028,
          "durationTicks": 96,
          "midi": 65,
          "name": "F4",
          "ticks": 32448,
          "time": 29.6491065,
          "velocity": 0.41732283464566927
        },
        {
          "duration": 0.0877192500000028,
          "durationTicks": 96,
          "midi": 77,
          "name": "F5",
          "ticks": 32448,
          "time": 29.6491065,
          "velocity": 0.41732283464566927
        },
        {
          "duration": 0.08771924999999925,
          "durationTicks": 96,
          "midi": 65,
          "name": "F4",
          "ticks": 32544,
          "time": 29.73682575,
          "velocity": 0.41732283464566927
        },
        {
          "duration": 0.08771924999999925,
          "durationTicks": 96,
          "midi": 77,
          "name": "F5",
          "ticks": 32544,
          "time": 29.73682575,
          "velocity": 0.41732283464566927
        },
        {
          "duration": 0.08771924999999925,
          "durationTicks": 96,
          "midi": 65,
          "name": "F4",
          "ticks": 32640,
          "time": 29.824545,
          "velocity": 0.41732283464566927
        },
        {
          "duration": 0.08771924999999925,
          "durationTicks": 96,
          "midi": 77,
          "name": "F5",
          "ticks": 32640,
          "time": 29.824545,
          "velocity": 0.41732283464566927
        },
        {
          "duration": 0.08771924999999925,
          "durationTicks": 96,
          "midi": 77,
          "name": "F5",
          "ticks": 32736,
          "time": 29.91226425,
          "velocity": 0.41732283464566927
        },
        {
          "duration": 0.08771924999999925,
          "durationTicks": 96,
          "midi": 65,
          "name": "F4",
          "ticks": 32736,
          "time": 29.91226425,
          "velocity": 0.41732283464566927
        },
        {
          "duration": 0.08771924999999925,
          "durationTicks": 96,
          "midi": 77,
          "name": "F5",
          "ticks": 32832,
          "time": 29.9999835,
          "velocity": 0.41732283464566927
        },
        {
          "duration": 0.08771924999999925,
          "durationTicks": 96,
          "midi": 65,
          "name": "F4",
          "ticks": 32832,
          "time": 29.9999835,
          "velocity": 0.41732283464566927
        },
        {
          "duration": 0.0877192500000028,
          "durationTicks": 96,
          "midi": 77,
          "name": "F5",
          "ticks": 32928,
          "time": 30.08770275,
          "velocity": 0.41732283464566927
        },
        {
          "duration": 0.0877192500000028,
          "durationTicks": 96,
          "midi": 65,
          "name": "F4",
          "ticks": 32928,
          "time": 30.08770275,
          "velocity": 0.41732283464566927
        },
        {
          "duration": 0.08771924999999925,
          "durationTicks": 96,
          "midi": 65,
          "name": "F4",
          "ticks": 33024,
          "time": 30.175422,
          "velocity": 0.41732283464566927
        },
        {
          "duration": 0.08771924999999925,
          "durationTicks": 96,
          "midi": 77,
          "name": "F5",
          "ticks": 33024,
          "time": 30.175422,
          "velocity": 0.41732283464566927
        },
        {
          "duration": 0.08771924999999925,
          "durationTicks": 96,
          "midi": 77,
          "name": "F5",
          "ticks": 33120,
          "time": 30.26314125,
          "velocity": 0.41732283464566927
        },
        {
          "duration": 0.08771924999999925,
          "durationTicks": 96,
          "midi": 65,
          "name": "F4",
          "ticks": 33120,
          "time": 30.26314125,
          "velocity": 0.41732283464566927
        },
        {
          "duration": 0.08771924999999925,
          "durationTicks": 96,
          "midi": 77,
          "name": "F5",
          "ticks": 33216,
          "time": 30.3508605,
          "velocity": 0.41732283464566927
        },
        {
          "duration": 0.08771924999999925,
          "durationTicks": 96,
          "midi": 65,
          "name": "F4",
          "ticks": 33216,
          "time": 30.3508605,
          "velocity": 0.41732283464566927
        },
        {
          "duration": 0.08771924999999925,
          "durationTicks": 96,
          "midi": 65,
          "name": "F4",
          "ticks": 33312,
          "time": 30.43857975,
          "velocity": 0.41732283464566927
        },
        {
          "duration": 0.08771924999999925,
          "durationTicks": 96,
          "midi": 77,
          "name": "F5",
          "ticks": 33312,
          "time": 30.43857975,
          "velocity": 0.41732283464566927
        },
        {
          "duration": 0.0877192500000028,
          "durationTicks": 96,
          "midi": 77,
          "name": "F5",
          "ticks": 33408,
          "time": 30.526298999999998,
          "velocity": 0.41732283464566927
        },
        {
          "duration": 0.0877192500000028,
          "durationTicks": 96,
          "midi": 65,
          "name": "F4",
          "ticks": 33408,
          "time": 30.526298999999998,
          "velocity": 0.41732283464566927
        },
        {
          "duration": 0.08771924999999925,
          "durationTicks": 96,
          "midi": 79,
          "name": "G5",
          "ticks": 33600,
          "time": 30.7017375,
          "velocity": 0.41732283464566927
        },
        {
          "duration": 0.08771924999999925,
          "durationTicks": 96,
          "midi": 67,
          "name": "G4",
          "ticks": 33600,
          "time": 30.7017375,
          "velocity": 0.41732283464566927
        },
        {
          "duration": 0.08771924999999925,
          "durationTicks": 96,
          "midi": 79,
          "name": "G5",
          "ticks": 33696,
          "time": 30.78945675,
          "velocity": 0.41732283464566927
        },
        {
          "duration": 0.08771924999999925,
          "durationTicks": 96,
          "midi": 67,
          "name": "G4",
          "ticks": 33696,
          "time": 30.78945675,
          "velocity": 0.41732283464566927
        },
        {
          "duration": 0.08771924999999925,
          "durationTicks": 96,
          "midi": 79,
          "name": "G5",
          "ticks": 33792,
          "time": 30.877176,
          "velocity": 0.41732283464566927
        },
        {
          "duration": 0.08771924999999925,
          "durationTicks": 96,
          "midi": 67,
          "name": "G4",
          "ticks": 33792,
          "time": 30.877176,
          "velocity": 0.41732283464566927
        },
        {
          "duration": 0.0877192500000028,
          "durationTicks": 96,
          "midi": 79,
          "name": "G5",
          "ticks": 33888,
          "time": 30.964895249999998,
          "velocity": 0.41732283464566927
        },
        {
          "duration": 0.0877192500000028,
          "durationTicks": 96,
          "midi": 67,
          "name": "G4",
          "ticks": 33888,
          "time": 30.964895249999998,
          "velocity": 0.41732283464566927
        },
        {
          "duration": 0.08771924999999925,
          "durationTicks": 96,
          "midi": 50,
          "name": "D3",
          "ticks": 33984,
          "time": 31.0526145,
          "velocity": 0.41732283464566927
        },
        {
          "duration": 0.08771924999999925,
          "durationTicks": 96,
          "midi": 77,
          "name": "F5",
          "ticks": 33984,
          "time": 31.0526145,
          "velocity": 0.41732283464566927
        },
        {
          "duration": 0.08771924999999925,
          "durationTicks": 96,
          "midi": 65,
          "name": "F4",
          "ticks": 33984,
          "time": 31.0526145,
          "velocity": 0.41732283464566927
        },
        {
          "duration": 0.08771924999999925,
          "durationTicks": 96,
          "midi": 50,
          "name": "D3",
          "ticks": 34080,
          "time": 31.14033375,
          "velocity": 0.41732283464566927
        },
        {
          "duration": 0.08771924999999925,
          "durationTicks": 96,
          "midi": 65,
          "name": "F4",
          "ticks": 34080,
          "time": 31.14033375,
          "velocity": 0.41732283464566927
        },
        {
          "duration": 0.08771924999999925,
          "durationTicks": 96,
          "midi": 77,
          "name": "F5",
          "ticks": 34080,
          "time": 31.14033375,
          "velocity": 0.41732283464566927
        },
        {
          "duration": 0.08771924999999925,
          "durationTicks": 96,
          "midi": 50,
          "name": "D3",
          "ticks": 34176,
          "time": 31.228053,
          "velocity": 0.41732283464566927
        },
        {
          "duration": 0.08771924999999925,
          "durationTicks": 96,
          "midi": 77,
          "name": "F5",
          "ticks": 34176,
          "time": 31.228053,
          "velocity": 0.41732283464566927
        },
        {
          "duration": 0.08771924999999925,
          "durationTicks": 96,
          "midi": 65,
          "name": "F4",
          "ticks": 34176,
          "time": 31.228053,
          "velocity": 0.41732283464566927
        },
        {
          "duration": 0.0877192500000028,
          "durationTicks": 96,
          "midi": 77,
          "name": "F5",
          "ticks": 34272,
          "time": 31.31577225,
          "velocity": 0.41732283464566927
        },
        {
          "duration": 0.0877192500000028,
          "durationTicks": 96,
          "midi": 65,
          "name": "F4",
          "ticks": 34272,
          "time": 31.31577225,
          "velocity": 0.41732283464566927
        },
        {
          "duration": 0.0877192500000028,
          "durationTicks": 96,
          "midi": 50,
          "name": "D3",
          "ticks": 34272,
          "time": 31.31577225,
          "velocity": 0.41732283464566927
        },
        {
          "duration": 0.08771924999999925,
          "durationTicks": 96,
          "midi": 50,
          "name": "D3",
          "ticks": 34368,
          "time": 31.4034915,
          "velocity": 0.41732283464566927
        },
        {
          "duration": 0.08771924999999925,
          "durationTicks": 96,
          "midi": 77,
          "name": "F5",
          "ticks": 34368,
          "time": 31.4034915,
          "velocity": 0.41732283464566927
        },
        {
          "duration": 0.08771924999999925,
          "durationTicks": 96,
          "midi": 65,
          "name": "F4",
          "ticks": 34368,
          "time": 31.4034915,
          "velocity": 0.41732283464566927
        },
        {
          "duration": 0.08771924999999925,
          "durationTicks": 96,
          "midi": 50,
          "name": "D3",
          "ticks": 34464,
          "time": 31.49121075,
          "velocity": 0.41732283464566927
        },
        {
          "duration": 0.08771924999999925,
          "durationTicks": 96,
          "midi": 65,
          "name": "F4",
          "ticks": 34464,
          "time": 31.49121075,
          "velocity": 0.41732283464566927
        },
        {
          "duration": 0.08771924999999925,
          "durationTicks": 96,
          "midi": 77,
          "name": "F5",
          "ticks": 34464,
          "time": 31.49121075,
          "velocity": 0.41732283464566927
        },
        {
          "duration": 0.08771924999999925,
          "durationTicks": 96,
          "midi": 77,
          "name": "F5",
          "ticks": 34560,
          "time": 31.57893,
          "velocity": 0.41732283464566927
        },
        {
          "duration": 0.08771924999999925,
          "durationTicks": 96,
          "midi": 50,
          "name": "D3",
          "ticks": 34560,
          "time": 31.57893,
          "velocity": 0.41732283464566927
        },
        {
          "duration": 0.08771924999999925,
          "durationTicks": 96,
          "midi": 65,
          "name": "F4",
          "ticks": 34560,
          "time": 31.57893,
          "velocity": 0.41732283464566927
        },
        {
          "duration": 0.08771924999999925,
          "durationTicks": 96,
          "midi": 65,
          "name": "F4",
          "ticks": 34656,
          "time": 31.66664925,
          "velocity": 0.41732283464566927
        },
        {
          "duration": 0.08771924999999925,
          "durationTicks": 96,
          "midi": 50,
          "name": "D3",
          "ticks": 34656,
          "time": 31.66664925,
          "velocity": 0.41732283464566927
        },
        {
          "duration": 0.08771924999999925,
          "durationTicks": 96,
          "midi": 77,
          "name": "F5",
          "ticks": 34656,
          "time": 31.66664925,
          "velocity": 0.41732283464566927
        },
        {
          "duration": 0.0877192500000028,
          "durationTicks": 96,
          "midi": 53,
          "name": "F3",
          "ticks": 34752,
          "time": 31.754368499999998,
          "velocity": 0.41732283464566927
        },
        {
          "duration": 0.0877192500000028,
          "durationTicks": 96,
          "midi": 72,
          "name": "C5",
          "ticks": 34752,
          "time": 31.754368499999998,
          "velocity": 0.41732283464566927
        },
        {
          "duration": 0.0877192500000028,
          "durationTicks": 96,
          "midi": 60,
          "name": "C4",
          "ticks": 34752,
          "time": 31.754368499999998,
          "velocity": 0.41732283464566927
        },
        {
          "duration": 0.08771924999999925,
          "durationTicks": 96,
          "midi": 60,
          "name": "C4",
          "ticks": 34848,
          "time": 31.84208775,
          "velocity": 0.41732283464566927
        },
        {
          "duration": 0.08771924999999925,
          "durationTicks": 96,
          "midi": 53,
          "name": "F3",
          "ticks": 34848,
          "time": 31.84208775,
          "velocity": 0.41732283464566927
        },
        {
          "duration": 0.08771924999999925,
          "durationTicks": 96,
          "midi": 72,
          "name": "C5",
          "ticks": 34848,
          "time": 31.84208775,
          "velocity": 0.41732283464566927
        },
        {
          "duration": 0.0877192499999957,
          "durationTicks": 96,
          "midi": 60,
          "name": "C4",
          "ticks": 34944,
          "time": 31.929807,
          "velocity": 0.41732283464566927
        },
        {
          "duration": 0.0877192499999957,
          "durationTicks": 96,
          "midi": 72,
          "name": "C5",
          "ticks": 34944,
          "time": 31.929807,
          "velocity": 0.41732283464566927
        },
        {
          "duration": 0.0877192499999957,
          "durationTicks": 96,
          "midi": 53,
          "name": "F3",
          "ticks": 34944,
          "time": 31.929807,
          "velocity": 0.41732283464566927
        },
        {
          "duration": 0.08771925000000635,
          "durationTicks": 96,
          "midi": 60,
          "name": "C4",
          "ticks": 35040,
          "time": 32.017526249999996,
          "velocity": 0.41732283464566927
        },
        {
          "duration": 0.08771925000000635,
          "durationTicks": 96,
          "midi": 72,
          "name": "C5",
          "ticks": 35040,
          "time": 32.017526249999996,
          "velocity": 0.41732283464566927
        },
        {
          "duration": 0.08771925000000635,
          "durationTicks": 96,
          "midi": 53,
          "name": "F3",
          "ticks": 35040,
          "time": 32.017526249999996,
          "velocity": 0.41732283464566927
        },
        {
          "duration": 0.08771924999999925,
          "durationTicks": 96,
          "midi": 60,
          "name": "C4",
          "ticks": 35136,
          "time": 32.1052455,
          "velocity": 0.41732283464566927
        },
        {
          "duration": 0.08771924999999925,
          "durationTicks": 96,
          "midi": 72,
          "name": "C5",
          "ticks": 35136,
          "time": 32.1052455,
          "velocity": 0.41732283464566927
        },
        {
          "duration": 0.08771924999999925,
          "durationTicks": 96,
          "midi": 53,
          "name": "F3",
          "ticks": 35136,
          "time": 32.1052455,
          "velocity": 0.41732283464566927
        },
        {
          "duration": 0.08771924999999925,
          "durationTicks": 96,
          "midi": 60,
          "name": "C4",
          "ticks": 35232,
          "time": 32.19296475,
          "velocity": 0.41732283464566927
        },
        {
          "duration": 0.08771924999999925,
          "durationTicks": 96,
          "midi": 53,
          "name": "F3",
          "ticks": 35232,
          "time": 32.19296475,
          "velocity": 0.41732283464566927
        },
        {
          "duration": 0.08771924999999925,
          "durationTicks": 96,
          "midi": 72,
          "name": "C5",
          "ticks": 35232,
          "time": 32.19296475,
          "velocity": 0.41732283464566927
        },
        {
          "duration": 0.08771924999999925,
          "durationTicks": 96,
          "midi": 72,
          "name": "C5",
          "ticks": 35328,
          "time": 32.280684,
          "velocity": 0.41732283464566927
        },
        {
          "duration": 0.08771924999999925,
          "durationTicks": 96,
          "midi": 60,
          "name": "C4",
          "ticks": 35328,
          "time": 32.280684,
          "velocity": 0.41732283464566927
        },
        {
          "duration": 0.08771924999999925,
          "durationTicks": 96,
          "midi": 53,
          "name": "F3",
          "ticks": 35328,
          "time": 32.280684,
          "velocity": 0.41732283464566927
        },
        {
          "duration": 0.08771924999999925,
          "durationTicks": 96,
          "midi": 60,
          "name": "C4",
          "ticks": 35424,
          "time": 32.36840325,
          "velocity": 0.41732283464566927
        },
        {
          "duration": 0.08771924999999925,
          "durationTicks": 96,
          "midi": 53,
          "name": "F3",
          "ticks": 35424,
          "time": 32.36840325,
          "velocity": 0.41732283464566927
        },
        {
          "duration": 0.08771924999999925,
          "durationTicks": 96,
          "midi": 72,
          "name": "C5",
          "ticks": 35424,
          "time": 32.36840325,
          "velocity": 0.41732283464566927
        },
        {
          "duration": 0.08771924999999925,
          "durationTicks": 96,
          "midi": 70,
          "name": "A#4",
          "ticks": 35520,
          "time": 32.4561225,
          "velocity": 0.41732283464566927
        },
        {
          "duration": 0.08771924999999925,
          "durationTicks": 96,
          "midi": 55,
          "name": "G3",
          "ticks": 35520,
          "time": 32.4561225,
          "velocity": 0.41732283464566927
        },
        {
          "duration": 0.08771924999999925,
          "durationTicks": 96,
          "midi": 58,
          "name": "A#3",
          "ticks": 35520,
          "time": 32.4561225,
          "velocity": 0.41732283464566927
        },
        {
          "duration": 0.08771924999999925,
          "durationTicks": 96,
          "midi": 55,
          "name": "G3",
          "ticks": 35616,
          "time": 32.54384175,
          "velocity": 0.41732283464566927
        },
        {
          "duration": 0.1754384999999985,
          "durationTicks": 192,
          "midi": 70,
          "name": "A#4",
          "ticks": 35616,
          "time": 32.54384175,
          "velocity": 0.41732283464566927
        },
        {
          "duration": 0.08771924999999925,
          "durationTicks": 96,
          "midi": 58,
          "name": "A#3",
          "ticks": 35616,
          "time": 32.54384175,
          "velocity": 0.41732283464566927
        },
        {
          "duration": 0.08771924999999925,
          "durationTicks": 96,
          "midi": 55,
          "name": "G3",
          "ticks": 35712,
          "time": 32.631561,
          "velocity": 0.41732283464566927
        },
        {
          "duration": 0.08771924999999925,
          "durationTicks": 96,
          "midi": 58,
          "name": "A#3",
          "ticks": 35712,
          "time": 32.631561,
          "velocity": 0.41732283464566927
        },
        {
          "duration": 0.1754384999999985,
          "durationTicks": 192,
          "midi": 70,
          "name": "A#4",
          "ticks": 35712,
          "time": 32.631561,
          "velocity": 0.41732283464566927
        },
        {
          "duration": 0.08771924999999925,
          "durationTicks": 96,
          "midi": 58,
          "name": "A#3",
          "ticks": 35808,
          "time": 32.71928025,
          "velocity": 0.41732283464566927
        },
        {
          "duration": 0.1754385000000056,
          "durationTicks": 192,
          "midi": 70,
          "name": "A#4",
          "ticks": 35808,
          "time": 32.71928025,
          "velocity": 0.41732283464566927
        },
        {
          "duration": 0.08771924999999925,
          "durationTicks": 96,
          "midi": 55,
          "name": "G3",
          "ticks": 35808,
          "time": 32.71928025,
          "velocity": 0.41732283464566927
        },
        {
          "duration": 0.08771925000000635,
          "durationTicks": 96,
          "midi": 55,
          "name": "G3",
          "ticks": 35904,
          "time": 32.806999499999996,
          "velocity": 0.41732283464566927
        },
        {
          "duration": 0.08771925000000635,
          "durationTicks": 96,
          "midi": 58,
          "name": "A#3",
          "ticks": 35904,
          "time": 32.806999499999996,
          "velocity": 0.41732283464566927
        },
        {
          "duration": 0.1754384999999985,
          "durationTicks": 192,
          "midi": 70,
          "name": "A#4",
          "ticks": 36000,
          "time": 32.89471875,
          "velocity": 0.41732283464566927
        },
        {
          "duration": 0.08771924999999925,
          "durationTicks": 96,
          "midi": 55,
          "name": "G3",
          "ticks": 36000,
          "time": 32.89471875,
          "velocity": 0.41732283464566927
        },
        {
          "duration": 0.08771924999999925,
          "durationTicks": 96,
          "midi": 58,
          "name": "A#3",
          "ticks": 36000,
          "time": 32.89471875,
          "velocity": 0.41732283464566927
        },
        {
          "duration": 0.1754384999999985,
          "durationTicks": 192,
          "midi": 70,
          "name": "A#4",
          "ticks": 36096,
          "time": 32.982438,
          "velocity": 0.41732283464566927
        },
        {
          "duration": 0.08771924999999925,
          "durationTicks": 96,
          "midi": 58,
          "name": "A#3",
          "ticks": 36096,
          "time": 32.982438,
          "velocity": 0.41732283464566927
        },
        {
          "duration": 0.08771924999999925,
          "durationTicks": 96,
          "midi": 55,
          "name": "G3",
          "ticks": 36096,
          "time": 32.982438,
          "velocity": 0.41732283464566927
        },
        {
          "duration": 0.08771924999999925,
          "durationTicks": 96,
          "midi": 55,
          "name": "G3",
          "ticks": 36192,
          "time": 33.07015725,
          "velocity": 0.41732283464566927
        },
        {
          "duration": 0.08771924999999925,
          "durationTicks": 96,
          "midi": 58,
          "name": "A#3",
          "ticks": 36192,
          "time": 33.07015725,
          "velocity": 0.41732283464566927
        },
        {
          "duration": 0.1754384999999985,
          "durationTicks": 192,
          "midi": 70,
          "name": "A#4",
          "ticks": 36192,
          "time": 33.07015725,
          "velocity": 0.41732283464566927
        },
        {
          "duration": 0.08771924999999925,
          "durationTicks": 96,
          "midi": 53,
          "name": "F3",
          "ticks": 37056,
          "time": 33.8596305,
          "velocity": 0.41732283464566927
        },
        {
          "duration": 0.1754384999999985,
          "durationTicks": 192,
          "midi": 65,
          "name": "F4",
          "ticks": 37056,
          "time": 33.8596305,
          "velocity": 0.41732283464566927
        },
        {
          "duration": 0.08771924999999925,
          "durationTicks": 96,
          "midi": 53,
          "name": "F3",
          "ticks": 37152,
          "time": 33.94734975,
          "velocity": 0.41732283464566927
        },
        {
          "duration": 0.1754384999999985,
          "durationTicks": 192,
          "midi": 65,
          "name": "F4",
          "ticks": 37152,
          "time": 33.94734975,
          "velocity": 0.41732283464566927
        },
        {
          "duration": 0.1754384999999985,
          "durationTicks": 192,
          "midi": 65,
          "name": "F4",
          "ticks": 37248,
          "time": 34.035069,
          "velocity": 0.41732283464566927
        },
        {
          "duration": 0.08771924999999925,
          "durationTicks": 96,
          "midi": 53,
          "name": "F3",
          "ticks": 37248,
          "time": 34.035069,
          "velocity": 0.41732283464566927
        },
        {
          "duration": 0.1754384999999985,
          "durationTicks": 192,
          "midi": 65,
          "name": "F4",
          "ticks": 37344,
          "time": 34.12278825,
          "velocity": 0.41732283464566927
        },
        {
          "duration": 0.08771924999999925,
          "durationTicks": 96,
          "midi": 53,
          "name": "F3",
          "ticks": 37344,
          "time": 34.12278825,
          "velocity": 0.41732283464566927
        },
        {
          "duration": 0.1754384999999985,
          "durationTicks": 192,
          "midi": 65,
          "name": "F4",
          "ticks": 37440,
          "time": 34.2105075,
          "velocity": 0.41732283464566927
        },
        {
          "duration": 0.08771924999999925,
          "durationTicks": 96,
          "midi": 53,
          "name": "F3",
          "ticks": 37440,
          "time": 34.2105075,
          "velocity": 0.41732283464566927
        },
        {
          "duration": 0.08771924999999925,
          "durationTicks": 96,
          "midi": 53,
          "name": "F3",
          "ticks": 37536,
          "time": 34.29822675,
          "velocity": 0.41732283464566927
        },
        {
          "duration": 0.1754384999999985,
          "durationTicks": 192,
          "midi": 65,
          "name": "F4",
          "ticks": 37536,
          "time": 34.29822675,
          "velocity": 0.41732283464566927
        },
        {
          "duration": 0.08771924999999925,
          "durationTicks": 96,
          "midi": 53,
          "name": "F3",
          "ticks": 37632,
          "time": 34.385946,
          "velocity": 0.41732283464566927
        },
        {
          "duration": 0.1754385000000056,
          "durationTicks": 192,
          "midi": 65,
          "name": "F4",
          "ticks": 37632,
          "time": 34.385946,
          "velocity": 0.41732283464566927
        },
        {
          "duration": 0.08771925000000635,
          "durationTicks": 96,
          "midi": 65,
          "name": "F4",
          "ticks": 37728,
          "time": 34.473665249999996,
          "velocity": 0.41732283464566927
        },
        {
          "duration": 0.08771925000000635,
          "durationTicks": 96,
          "midi": 53,
          "name": "F3",
          "ticks": 37728,
          "time": 34.473665249999996,
          "velocity": 0.41732283464566927
        },
        {
          "duration": 0.08771924999999925,
          "durationTicks": 96,
          "midi": 77,
          "name": "F5",
          "ticks": 37824,
          "time": 34.5613845,
          "velocity": 0.41732283464566927
        },
        {
          "duration": 0.08771924999999925,
          "durationTicks": 96,
          "midi": 65,
          "name": "F4",
          "ticks": 37824,
          "time": 34.5613845,
          "velocity": 0.41732283464566927
        },
        {
          "duration": 0.08771924999999925,
          "durationTicks": 96,
          "midi": 65,
          "name": "F4",
          "ticks": 37920,
          "time": 34.64910375,
          "velocity": 0.41732283464566927
        },
        {
          "duration": 0.08771924999999925,
          "durationTicks": 96,
          "midi": 77,
          "name": "F5",
          "ticks": 37920,
          "time": 34.64910375,
          "velocity": 0.41732283464566927
        },
        {
          "duration": 0.08771924999999925,
          "durationTicks": 96,
          "midi": 77,
          "name": "F5",
          "ticks": 38016,
          "time": 34.736823,
          "velocity": 0.41732283464566927
        },
        {
          "duration": 0.08771924999999925,
          "durationTicks": 96,
          "midi": 65,
          "name": "F4",
          "ticks": 38016,
          "time": 34.736823,
          "velocity": 0.41732283464566927
        },
        {
          "duration": 0.08771924999999925,
          "durationTicks": 96,
          "midi": 65,
          "name": "F4",
          "ticks": 38112,
          "time": 34.82454225,
          "velocity": 0.41732283464566927
        },
        {
          "duration": 0.08771924999999925,
          "durationTicks": 96,
          "midi": 77,
          "name": "F5",
          "ticks": 38112,
          "time": 34.82454225,
          "velocity": 0.41732283464566927
        },
        {
          "duration": 0.08771924999999925,
          "durationTicks": 96,
          "midi": 65,
          "name": "F4",
          "ticks": 38208,
          "time": 34.9122615,
          "velocity": 0.41732283464566927
        },
        {
          "duration": 0.08771924999999925,
          "durationTicks": 96,
          "midi": 77,
          "name": "F5",
          "ticks": 38208,
          "time": 34.9122615,
          "velocity": 0.41732283464566927
        },
        {
          "duration": 0.08771924999999925,
          "durationTicks": 96,
          "midi": 77,
          "name": "F5",
          "ticks": 38304,
          "time": 34.99998075,
          "velocity": 0.41732283464566927
        },
        {
          "duration": 0.08771924999999925,
          "durationTicks": 96,
          "midi": 65,
          "name": "F4",
          "ticks": 38304,
          "time": 34.99998075,
          "velocity": 0.41732283464566927
        },
        {
          "duration": 0.08771924999999925,
          "durationTicks": 96,
          "midi": 77,
          "name": "F5",
          "ticks": 38400,
          "time": 35.0877,
          "velocity": 0.41732283464566927
        },
        {
          "duration": 0.08771924999999925,
          "durationTicks": 96,
          "midi": 65,
          "name": "F4",
          "ticks": 38400,
          "time": 35.0877,
          "velocity": 0.41732283464566927
        },
        {
          "duration": 0.08771924999999925,
          "durationTicks": 96,
          "midi": 77,
          "name": "F5",
          "ticks": 38496,
          "time": 35.17541925,
          "velocity": 0.41732283464566927
        },
        {
          "duration": 0.08771924999999925,
          "durationTicks": 96,
          "midi": 65,
          "name": "F4",
          "ticks": 38496,
          "time": 35.17541925,
          "velocity": 0.41732283464566927
        },
        {
          "duration": 0.08771925000000635,
          "durationTicks": 96,
          "midi": 72,
          "name": "C5",
          "ticks": 38592,
          "time": 35.2631385,
          "velocity": 0.41732283464566927
        },
        {
          "duration": 0.08771925000000635,
          "durationTicks": 96,
          "midi": 60,
          "name": "C4",
          "ticks": 38592,
          "time": 35.2631385,
          "velocity": 0.41732283464566927
        },
        {
          "duration": 0.08771924999999925,
          "durationTicks": 96,
          "midi": 60,
          "name": "C4",
          "ticks": 38688,
          "time": 35.35085775,
          "velocity": 0.41732283464566927
        },
        {
          "duration": 0.08771924999999925,
          "durationTicks": 96,
          "midi": 72,
          "name": "C5",
          "ticks": 38688,
          "time": 35.35085775,
          "velocity": 0.41732283464566927
        },
        {
          "duration": 0.08771924999999925,
          "durationTicks": 96,
          "midi": 72,
          "name": "C5",
          "ticks": 38784,
          "time": 35.438577,
          "velocity": 0.41732283464566927
        },
        {
          "duration": 0.08771924999999925,
          "durationTicks": 96,
          "midi": 60,
          "name": "C4",
          "ticks": 38784,
          "time": 35.438577,
          "velocity": 0.41732283464566927
        },
        {
          "duration": 0.08771924999999925,
          "durationTicks": 96,
          "midi": 60,
          "name": "C4",
          "ticks": 38880,
          "time": 35.52629625,
          "velocity": 0.41732283464566927
        },
        {
          "duration": 0.08771924999999925,
          "durationTicks": 96,
          "midi": 72,
          "name": "C5",
          "ticks": 38880,
          "time": 35.52629625,
          "velocity": 0.41732283464566927
        },
        {
          "duration": 0.08771924999999925,
          "durationTicks": 96,
          "midi": 72,
          "name": "C5",
          "ticks": 38976,
          "time": 35.6140155,
          "velocity": 0.41732283464566927
        },
        {
          "duration": 0.08771924999999925,
          "durationTicks": 96,
          "midi": 60,
          "name": "C4",
          "ticks": 38976,
          "time": 35.6140155,
          "velocity": 0.41732283464566927
        },
        {
          "duration": 0.08771924999999925,
          "durationTicks": 96,
          "midi": 72,
          "name": "C5",
          "ticks": 39072,
          "time": 35.70173475,
          "velocity": 0.41732283464566927
        },
        {
          "duration": 0.08771924999999925,
          "durationTicks": 96,
          "midi": 60,
          "name": "C4",
          "ticks": 39072,
          "time": 35.70173475,
          "velocity": 0.41732283464566927
        },
        {
          "duration": 0.08771924999999925,
          "durationTicks": 96,
          "midi": 60,
          "name": "C4",
          "ticks": 39168,
          "time": 35.789454,
          "velocity": 0.41732283464566927
        },
        {
          "duration": 0.08771924999999925,
          "durationTicks": 96,
          "midi": 72,
          "name": "C5",
          "ticks": 39168,
          "time": 35.789454,
          "velocity": 0.41732283464566927
        },
        {
          "duration": 0.08771924999999925,
          "durationTicks": 96,
          "midi": 60,
          "name": "C4",
          "ticks": 39264,
          "time": 35.87717325,
          "velocity": 0.41732283464566927
        },
        {
          "duration": 0.08771924999999925,
          "durationTicks": 96,
          "midi": 72,
          "name": "C5",
          "ticks": 39264,
          "time": 35.87717325,
          "velocity": 0.41732283464566927
        },
        {
          "duration": 0.08771924999999925,
          "durationTicks": 96,
          "midi": 60,
          "name": "C4",
          "ticks": 39360,
          "time": 35.9648925,
          "velocity": 0.41732283464566927
        },
        {
          "duration": 0.08771924999999925,
          "durationTicks": 96,
          "midi": 72,
          "name": "C5",
          "ticks": 39360,
          "time": 35.9648925,
          "velocity": 0.41732283464566927
        },
        {
          "duration": 0.08771924999999925,
          "durationTicks": 96,
          "midi": 60,
          "name": "C4",
          "ticks": 39456,
          "time": 36.05261175,
          "velocity": 0.41732283464566927
        },
        {
          "duration": 0.08771924999999925,
          "durationTicks": 96,
          "midi": 72,
          "name": "C5",
          "ticks": 39456,
          "time": 36.05261175,
          "velocity": 0.41732283464566927
        },
        {
          "duration": 0.08771925000000635,
          "durationTicks": 96,
          "midi": 72,
          "name": "C5",
          "ticks": 39552,
          "time": 36.140330999999996,
          "velocity": 0.41732283464566927
        },
        {
          "duration": 0.08771925000000635,
          "durationTicks": 96,
          "midi": 60,
          "name": "C4",
          "ticks": 39552,
          "time": 36.140330999999996,
          "velocity": 0.41732283464566927
        },
        {
          "duration": 0.08771924999999925,
          "durationTicks": 96,
          "midi": 70,
          "name": "A#4",
          "ticks": 40128,
          "time": 36.6666465,
          "velocity": 0.41732283464566927
        },
        {
          "duration": 0.08771924999999925,
          "durationTicks": 96,
          "midi": 58,
          "name": "A#3",
          "ticks": 40128,
          "time": 36.6666465,
          "velocity": 0.41732283464566927
        },
        {
          "duration": 0.08771924999999925,
          "durationTicks": 96,
          "midi": 58,
          "name": "A#3",
          "ticks": 40224,
          "time": 36.75436575,
          "velocity": 0.41732283464566927
        },
        {
          "duration": 0.08771924999999925,
          "durationTicks": 96,
          "midi": 70,
          "name": "A#4",
          "ticks": 40224,
          "time": 36.75436575,
          "velocity": 0.41732283464566927
        },
        {
          "duration": 0.08771924999999925,
          "durationTicks": 96,
          "midi": 70,
          "name": "A#4",
          "ticks": 40320,
          "time": 36.842085,
          "velocity": 0.41732283464566927
        },
        {
          "duration": 0.08771924999999925,
          "durationTicks": 96,
          "midi": 58,
          "name": "A#3",
          "ticks": 40320,
          "time": 36.842085,
          "velocity": 0.41732283464566927
        },
        {
          "duration": 0.08771925000000635,
          "durationTicks": 96,
          "midi": 58,
          "name": "A#3",
          "ticks": 40416,
          "time": 36.92980425,
          "velocity": 0.41732283464566927
        },
        {
          "duration": 0.08771925000000635,
          "durationTicks": 96,
          "midi": 70,
          "name": "A#4",
          "ticks": 40416,
          "time": 36.92980425,
          "velocity": 0.41732283464566927
        },
        {
          "duration": 0.08771924999999925,
          "durationTicks": 96,
          "midi": 58,
          "name": "A#3",
          "ticks": 40512,
          "time": 37.0175235,
          "velocity": 0.41732283464566927
        },
        {
          "duration": 0.08771924999999925,
          "durationTicks": 96,
          "midi": 70,
          "name": "A#4",
          "ticks": 40512,
          "time": 37.0175235,
          "velocity": 0.41732283464566927
        },
        {
          "duration": 0.08771924999999925,
          "durationTicks": 96,
          "midi": 70,
          "name": "A#4",
          "ticks": 40608,
          "time": 37.10524275,
          "velocity": 0.41732283464566927
        },
        {
          "duration": 0.08771924999999925,
          "durationTicks": 96,
          "midi": 58,
          "name": "A#3",
          "ticks": 40608,
          "time": 37.10524275,
          "velocity": 0.41732283464566927
        },
        {
          "duration": 0.08771924999999925,
          "durationTicks": 96,
          "midi": 70,
          "name": "A#4",
          "ticks": 40704,
          "time": 37.192962,
          "velocity": 0.41732283464566927
        },
        {
          "duration": 0.08771924999999925,
          "durationTicks": 96,
          "midi": 58,
          "name": "A#3",
          "ticks": 40704,
          "time": 37.192962,
          "velocity": 0.41732283464566927
        },
        {
          "duration": 0.08771924999999925,
          "durationTicks": 96,
          "midi": 70,
          "name": "A#4",
          "ticks": 40800,
          "time": 37.28068125,
          "velocity": 0.41732283464566927
        },
        {
          "duration": 0.08771924999999925,
          "durationTicks": 96,
          "midi": 58,
          "name": "A#3",
          "ticks": 40800,
          "time": 37.28068125,
          "velocity": 0.41732283464566927
        },
        {
          "duration": 0.08771924999999925,
          "durationTicks": 96,
          "midi": 65,
          "name": "F4",
          "ticks": 40896,
          "time": 37.3684005,
          "velocity": 0.41732283464566927
        },
        {
          "duration": 0.08771924999999925,
          "durationTicks": 96,
          "midi": 77,
          "name": "F5",
          "ticks": 40896,
          "time": 37.3684005,
          "velocity": 0.41732283464566927
        },
        {
          "duration": 0.08771924999999925,
          "durationTicks": 96,
          "midi": 77,
          "name": "F5",
          "ticks": 40992,
          "time": 37.45611975,
          "velocity": 0.41732283464566927
        },
        {
          "duration": 0.08771924999999925,
          "durationTicks": 96,
          "midi": 65,
          "name": "F4",
          "ticks": 40992,
          "time": 37.45611975,
          "velocity": 0.41732283464566927
        },
        {
          "duration": 0.08771924999999925,
          "durationTicks": 96,
          "midi": 65,
          "name": "F4",
          "ticks": 41088,
          "time": 37.543839,
          "velocity": 0.41732283464566927
        },
        {
          "duration": 0.08771924999999925,
          "durationTicks": 96,
          "midi": 77,
          "name": "F5",
          "ticks": 41088,
          "time": 37.543839,
          "velocity": 0.41732283464566927
        },
        {
          "duration": 0.08771924999999925,
          "durationTicks": 96,
          "midi": 77,
          "name": "F5",
          "ticks": 41184,
          "time": 37.63155825,
          "velocity": 0.41732283464566927
        },
        {
          "duration": 0.08771924999999925,
          "durationTicks": 96,
          "midi": 65,
          "name": "F4",
          "ticks": 41184,
          "time": 37.63155825,
          "velocity": 0.41732283464566927
        },
        {
          "duration": 0.08771924999999925,
          "durationTicks": 96,
          "midi": 77,
          "name": "F5",
          "ticks": 41280,
          "time": 37.7192775,
          "velocity": 0.41732283464566927
        },
        {
          "duration": 0.08771924999999925,
          "durationTicks": 96,
          "midi": 65,
          "name": "F4",
          "ticks": 41280,
          "time": 37.7192775,
          "velocity": 0.41732283464566927
        },
        {
          "duration": 0.08771925000000635,
          "durationTicks": 96,
          "midi": 77,
          "name": "F5",
          "ticks": 41376,
          "time": 37.806996749999996,
          "velocity": 0.41732283464566927
        },
        {
          "duration": 0.08771925000000635,
          "durationTicks": 96,
          "midi": 65,
          "name": "F4",
          "ticks": 41376,
          "time": 37.806996749999996,
          "velocity": 0.41732283464566927
        },
        {
          "duration": 0.08771924999999925,
          "durationTicks": 96,
          "midi": 77,
          "name": "F5",
          "ticks": 41472,
          "time": 37.894716,
          "velocity": 0.41732283464566927
        },
        {
          "duration": 0.08771924999999925,
          "durationTicks": 96,
          "midi": 65,
          "name": "F4",
          "ticks": 41472,
          "time": 37.894716,
          "velocity": 0.41732283464566927
        },
        {
          "duration": 0.08771924999999925,
          "durationTicks": 96,
          "midi": 65,
          "name": "F4",
          "ticks": 41568,
          "time": 37.98243525,
          "velocity": 0.41732283464566927
        },
        {
          "duration": 0.08771924999999925,
          "durationTicks": 96,
          "midi": 77,
          "name": "F5",
          "ticks": 41568,
          "time": 37.98243525,
          "velocity": 0.41732283464566927
        },
        {
          "duration": 0.08771924999999925,
          "durationTicks": 96,
          "midi": 53,
          "name": "F3",
          "ticks": 41664,
          "time": 38.0701545,
          "velocity": 0.41732283464566927
        },
        {
          "duration": 0.08771924999999925,
          "durationTicks": 96,
          "midi": 65,
          "name": "F4",
          "ticks": 41664,
          "time": 38.0701545,
          "velocity": 0.41732283464566927
        },
        {
          "duration": 0.08771924999999925,
          "durationTicks": 96,
          "midi": 53,
          "name": "F3",
          "ticks": 41760,
          "time": 38.15787375,
          "velocity": 0.41732283464566927
        },
        {
          "duration": 0.08771924999999925,
          "durationTicks": 96,
          "midi": 65,
          "name": "F4",
          "ticks": 41760,
          "time": 38.15787375,
          "velocity": 0.41732283464566927
        },
        {
          "duration": 0.08771924999999925,
          "durationTicks": 96,
          "midi": 65,
          "name": "F4",
          "ticks": 41856,
          "time": 38.245593,
          "velocity": 0.41732283464566927
        },
        {
          "duration": 0.08771924999999925,
          "durationTicks": 96,
          "midi": 53,
          "name": "F3",
          "ticks": 41856,
          "time": 38.245593,
          "velocity": 0.41732283464566927
        },
        {
          "duration": 0.08771924999999925,
          "durationTicks": 96,
          "midi": 65,
          "name": "F4",
          "ticks": 41952,
          "time": 38.33331225,
          "velocity": 0.41732283464566927
        },
        {
          "duration": 0.08771924999999925,
          "durationTicks": 96,
          "midi": 53,
          "name": "F3",
          "ticks": 41952,
          "time": 38.33331225,
          "velocity": 0.41732283464566927
        },
        {
          "duration": 0.08771924999999925,
          "durationTicks": 96,
          "midi": 65,
          "name": "F4",
          "ticks": 42048,
          "time": 38.4210315,
          "velocity": 0.41732283464566927
        },
        {
          "duration": 0.08771924999999925,
          "durationTicks": 96,
          "midi": 53,
          "name": "F3",
          "ticks": 42048,
          "time": 38.4210315,
          "velocity": 0.41732283464566927
        },
        {
          "duration": 0.08771924999999925,
          "durationTicks": 96,
          "midi": 53,
          "name": "F3",
          "ticks": 42144,
          "time": 38.50875075,
          "velocity": 0.41732283464566927
        },
        {
          "duration": 0.08771924999999925,
          "durationTicks": 96,
          "midi": 65,
          "name": "F4",
          "ticks": 42144,
          "time": 38.50875075,
          "velocity": 0.41732283464566927
        },
        {
          "duration": 0.08771925000000635,
          "durationTicks": 96,
          "midi": 53,
          "name": "F3",
          "ticks": 42240,
          "time": 38.59647,
          "velocity": 0.41732283464566927
        },
        {
          "duration": 0.08771925000000635,
          "durationTicks": 96,
          "midi": 65,
          "name": "F4",
          "ticks": 42240,
          "time": 38.59647,
          "velocity": 0.41732283464566927
        },
        {
          "duration": 0.08771924999999925,
          "durationTicks": 96,
          "midi": 65,
          "name": "F4",
          "ticks": 42336,
          "time": 38.68418925,
          "velocity": 0.41732283464566927
        },
        {
          "duration": 0.08771924999999925,
          "durationTicks": 96,
          "midi": 53,
          "name": "F3",
          "ticks": 42336,
          "time": 38.68418925,
          "velocity": 0.41732283464566927
        },
        {
          "duration": 0.08771924999999925,
          "durationTicks": 96,
          "midi": 53,
          "name": "F3",
          "ticks": 42432,
          "time": 38.7719085,
          "velocity": 0.41732283464566927
        },
        {
          "duration": 0.08771924999999925,
          "durationTicks": 96,
          "midi": 65,
          "name": "F4",
          "ticks": 42432,
          "time": 38.7719085,
          "velocity": 0.41732283464566927
        },
        {
          "duration": 0.08771924999999925,
          "durationTicks": 96,
          "midi": 53,
          "name": "F3",
          "ticks": 42528,
          "time": 38.85962775,
          "velocity": 0.41732283464566927
        },
        {
          "duration": 0.08771924999999925,
          "durationTicks": 96,
          "midi": 65,
          "name": "F4",
          "ticks": 42528,
          "time": 38.85962775,
          "velocity": 0.41732283464566927
        },
        {
          "duration": 0.08771924999999925,
          "durationTicks": 96,
          "midi": 53,
          "name": "F3",
          "ticks": 42624,
          "time": 38.947347,
          "velocity": 0.41732283464566927
        },
        {
          "duration": 0.08771924999999925,
          "durationTicks": 96,
          "midi": 65,
          "name": "F4",
          "ticks": 42624,
          "time": 38.947347,
          "velocity": 0.41732283464566927
        },
        {
          "duration": 0.08771925000000635,
          "durationTicks": 96,
          "midi": 57,
          "name": "A3",
          "ticks": 43200,
          "time": 39.473662499999996,
          "velocity": 0.41732283464566927
        },
        {
          "duration": 0.08771925000000635,
          "durationTicks": 96,
          "midi": 69,
          "name": "A4",
          "ticks": 43200,
          "time": 39.473662499999996,
          "velocity": 0.41732283464566927
        },
        {
          "duration": 0.08771924999999925,
          "durationTicks": 96,
          "midi": 69,
          "name": "A4",
          "ticks": 43296,
          "time": 39.56138175,
          "velocity": 0.41732283464566927
        },
        {
          "duration": 0.08771924999999925,
          "durationTicks": 96,
          "midi": 57,
          "name": "A3",
          "ticks": 43296,
          "time": 39.56138175,
          "velocity": 0.41732283464566927
        },
        {
          "duration": 0.08771924999999925,
          "durationTicks": 96,
          "midi": 57,
          "name": "A3",
          "ticks": 43392,
          "time": 39.649101,
          "velocity": 0.41732283464566927
        },
        {
          "duration": 0.08771924999999925,
          "durationTicks": 96,
          "midi": 69,
          "name": "A4",
          "ticks": 43392,
          "time": 39.649101,
          "velocity": 0.41732283464566927
        },
        {
          "duration": 0.08771924999999925,
          "durationTicks": 96,
          "midi": 57,
          "name": "A3",
          "ticks": 43488,
          "time": 39.73682025,
          "velocity": 0.41732283464566927
        },
        {
          "duration": 0.08771924999999925,
          "durationTicks": 96,
          "midi": 69,
          "name": "A4",
          "ticks": 43488,
          "time": 39.73682025,
          "velocity": 0.41732283464566927
        },
        {
          "duration": 0.08771924999999925,
          "durationTicks": 96,
          "midi": 57,
          "name": "A3",
          "ticks": 43584,
          "time": 39.8245395,
          "velocity": 0.41732283464566927
        },
        {
          "duration": 0.08771924999999925,
          "durationTicks": 96,
          "midi": 69,
          "name": "A4",
          "ticks": 43584,
          "time": 39.8245395,
          "velocity": 0.41732283464566927
        },
        {
          "duration": 0.08771924999999925,
          "durationTicks": 96,
          "midi": 69,
          "name": "A4",
          "ticks": 43680,
          "time": 39.91225875,
          "velocity": 0.41732283464566927
        },
        {
          "duration": 0.08771924999999925,
          "durationTicks": 96,
          "midi": 57,
          "name": "A3",
          "ticks": 43680,
          "time": 39.91225875,
          "velocity": 0.41732283464566927
        },
        {
          "duration": 0.08771924999999925,
          "durationTicks": 96,
          "midi": 69,
          "name": "A4",
          "ticks": 43776,
          "time": 39.999978,
          "velocity": 0.41732283464566927
        },
        {
          "duration": 0.08771924999999925,
          "durationTicks": 96,
          "midi": 57,
          "name": "A3",
          "ticks": 43776,
          "time": 39.999978,
          "velocity": 0.41732283464566927
        },
        {
          "duration": 0.08771924999999925,
          "durationTicks": 96,
          "midi": 57,
          "name": "A3",
          "ticks": 43872,
          "time": 40.08769725,
          "velocity": 0.41732283464566927
        },
        {
          "duration": 0.08771924999999925,
          "durationTicks": 96,
          "midi": 69,
          "name": "A4",
          "ticks": 43872,
          "time": 40.08769725,
          "velocity": 0.41732283464566927
        },
        {
          "duration": 0.08771924999999925,
          "durationTicks": 96,
          "midi": 62,
          "name": "D4",
          "ticks": 43872,
          "time": 40.08769725,
          "velocity": 0.41732283464566927
        },
        {
          "duration": 0.08771924999999925,
          "durationTicks": 96,
          "midi": 69,
          "name": "A4",
          "ticks": 43968,
          "time": 40.1754165,
          "velocity": 0.41732283464566927
        },
        {
          "duration": 0.08771924999999925,
          "durationTicks": 96,
          "midi": 57,
          "name": "A3",
          "ticks": 43968,
          "time": 40.1754165,
          "velocity": 0.41732283464566927
        },
        {
          "duration": 0.08771924999999925,
          "durationTicks": 96,
          "midi": 62,
          "name": "D4",
          "ticks": 43968,
          "time": 40.1754165,
          "velocity": 0.41732283464566927
        },
        {
          "duration": 0.08771925000000635,
          "durationTicks": 96,
          "midi": 69,
          "name": "A4",
          "ticks": 44064,
          "time": 40.26313575,
          "velocity": 0.41732283464566927
        },
        {
          "duration": 0.08771925000000635,
          "durationTicks": 96,
          "midi": 57,
          "name": "A3",
          "ticks": 44064,
          "time": 40.26313575,
          "velocity": 0.41732283464566927
        },
        {
          "duration": 0.08771925000000635,
          "durationTicks": 96,
          "midi": 62,
          "name": "D4",
          "ticks": 44064,
          "time": 40.26313575,
          "velocity": 0.41732283464566927
        },
        {
          "duration": 0.08771924999999925,
          "durationTicks": 96,
          "midi": 69,
          "name": "A4",
          "ticks": 44160,
          "time": 40.350855,
          "velocity": 0.41732283464566927
        },
        {
          "duration": 0.08771924999999925,
          "durationTicks": 96,
          "midi": 57,
          "name": "A3",
          "ticks": 44160,
          "time": 40.350855,
          "velocity": 0.41732283464566927
        },
        {
          "duration": 0.08771924999999925,
          "durationTicks": 96,
          "midi": 62,
          "name": "D4",
          "ticks": 44160,
          "time": 40.350855,
          "velocity": 0.41732283464566927
        },
        {
          "duration": 0.08771924999999925,
          "durationTicks": 96,
          "midi": 69,
          "name": "A4",
          "ticks": 44256,
          "time": 40.43857425,
          "velocity": 0.41732283464566927
        },
        {
          "duration": 0.08771924999999925,
          "durationTicks": 96,
          "midi": 57,
          "name": "A3",
          "ticks": 44256,
          "time": 40.43857425,
          "velocity": 0.41732283464566927
        },
        {
          "duration": 0.08771924999999925,
          "durationTicks": 96,
          "midi": 62,
          "name": "D4",
          "ticks": 44256,
          "time": 40.43857425,
          "velocity": 0.41732283464566927
        },
        {
          "duration": 0.08771924999999925,
          "durationTicks": 96,
          "midi": 57,
          "name": "A3",
          "ticks": 44352,
          "time": 40.5262935,
          "velocity": 0.41732283464566927
        },
        {
          "duration": 0.08771924999999925,
          "durationTicks": 96,
          "midi": 69,
          "name": "A4",
          "ticks": 44352,
          "time": 40.5262935,
          "velocity": 0.41732283464566927
        },
        {
          "duration": 0.08771924999999925,
          "durationTicks": 96,
          "midi": 62,
          "name": "D4",
          "ticks": 44352,
          "time": 40.5262935,
          "velocity": 0.41732283464566927
        },
        {
          "duration": 0.08771924999999925,
          "durationTicks": 96,
          "midi": 62,
          "name": "D4",
          "ticks": 44448,
          "time": 40.61401275,
          "velocity": 0.41732283464566927
        },
        {
          "duration": 0.08771924999999925,
          "durationTicks": 96,
          "midi": 69,
          "name": "A4",
          "ticks": 44448,
          "time": 40.61401275,
          "velocity": 0.41732283464566927
        },
        {
          "duration": 0.08771924999999925,
          "durationTicks": 96,
          "midi": 57,
          "name": "A3",
          "ticks": 44448,
          "time": 40.61401275,
          "velocity": 0.41732283464566927
        },
        {
          "duration": 0.08771924999999925,
          "durationTicks": 96,
          "midi": 57,
          "name": "A3",
          "ticks": 44544,
          "time": 40.701732,
          "velocity": 0.41732283464566927
        },
        {
          "duration": 0.08771924999999925,
          "durationTicks": 96,
          "midi": 62,
          "name": "D4",
          "ticks": 44544,
          "time": 40.701732,
          "velocity": 0.41732283464566927
        },
        {
          "duration": 0.08771924999999925,
          "durationTicks": 96,
          "midi": 69,
          "name": "A4",
          "ticks": 44544,
          "time": 40.701732,
          "velocity": 0.41732283464566927
        },
        {
          "duration": 0.08771924999999925,
          "durationTicks": 96,
          "midi": 69,
          "name": "A4",
          "ticks": 44640,
          "time": 40.78945125,
          "velocity": 0.41732283464566927
        },
        {
          "duration": 0.08771924999999925,
          "durationTicks": 96,
          "midi": 57,
          "name": "A3",
          "ticks": 44640,
          "time": 40.78945125,
          "velocity": 0.41732283464566927
        },
        {
          "duration": 0.08771924999999925,
          "durationTicks": 96,
          "midi": 65,
          "name": "F4",
          "ticks": 44736,
          "time": 40.8771705,
          "velocity": 0.41732283464566927
        },
        {
          "duration": 0.08771924999999925,
          "durationTicks": 96,
          "midi": 77,
          "name": "F5",
          "ticks": 44736,
          "time": 40.8771705,
          "velocity": 0.41732283464566927
        },
        {
          "duration": 0.08771924999999925,
          "durationTicks": 96,
          "midi": 65,
          "name": "F4",
          "ticks": 44832,
          "time": 40.96488975,
          "velocity": 0.41732283464566927
        },
        {
          "duration": 0.08771924999999925,
          "durationTicks": 96,
          "midi": 77,
          "name": "F5",
          "ticks": 44832,
          "time": 40.96488975,
          "velocity": 0.41732283464566927
        },
        {
          "duration": 0.08771924999999925,
          "durationTicks": 96,
          "midi": 65,
          "name": "F4",
          "ticks": 44928,
          "time": 41.052609,
          "velocity": 0.41732283464566927
        },
        {
          "duration": 0.08771924999999925,
          "durationTicks": 96,
          "midi": 77,
          "name": "F5",
          "ticks": 44928,
          "time": 41.052609,
          "velocity": 0.41732283464566927
        },
        {
          "duration": 0.08771925000000635,
          "durationTicks": 96,
          "midi": 77,
          "name": "F5",
          "ticks": 45024,
          "time": 41.140328249999996,
          "velocity": 0.41732283464566927
        },
        {
          "duration": 0.08771925000000635,
          "durationTicks": 96,
          "midi": 65,
          "name": "F4",
          "ticks": 45024,
          "time": 41.140328249999996,
          "velocity": 0.41732283464566927
        },
        {
          "duration": 0.08771924999999925,
          "durationTicks": 96,
          "midi": 65,
          "name": "F4",
          "ticks": 45120,
          "time": 41.2280475,
          "velocity": 0.41732283464566927
        },
        {
          "duration": 0.08771924999999925,
          "durationTicks": 96,
          "midi": 77,
          "name": "F5",
          "ticks": 45120,
          "time": 41.2280475,
          "velocity": 0.41732283464566927
        },
        {
          "duration": 0.08771924999999925,
          "durationTicks": 96,
          "midi": 65,
          "name": "F4",
          "ticks": 45216,
          "time": 41.31576675,
          "velocity": 0.41732283464566927
        },
        {
          "duration": 0.08771924999999925,
          "durationTicks": 96,
          "midi": 77,
          "name": "F5",
          "ticks": 45216,
          "time": 41.31576675,
          "velocity": 0.41732283464566927
        },
        {
          "duration": 0.08771924999999925,
          "durationTicks": 96,
          "midi": 65,
          "name": "F4",
          "ticks": 45312,
          "time": 41.403486,
          "velocity": 0.41732283464566927
        },
        {
          "duration": 0.08771924999999925,
          "durationTicks": 96,
          "midi": 77,
          "name": "F5",
          "ticks": 45312,
          "time": 41.403486,
          "velocity": 0.41732283464566927
        },
        {
          "duration": 0.08771924999999925,
          "durationTicks": 96,
          "midi": 77,
          "name": "F5",
          "ticks": 45408,
          "time": 41.49120525,
          "velocity": 0.41732283464566927
        },
        {
          "duration": 0.08771924999999925,
          "durationTicks": 96,
          "midi": 65,
          "name": "F4",
          "ticks": 45408,
          "time": 41.49120525,
          "velocity": 0.41732283464566927
        },
        {
          "duration": 0.08771924999999925,
          "durationTicks": 96,
          "midi": 77,
          "name": "F5",
          "ticks": 45504,
          "time": 41.5789245,
          "velocity": 0.41732283464566927
        },
        {
          "duration": 0.08771924999999925,
          "durationTicks": 96,
          "midi": 65,
          "name": "F4",
          "ticks": 45504,
          "time": 41.5789245,
          "velocity": 0.41732283464566927
        },
        {
          "duration": 0.08771924999999925,
          "durationTicks": 96,
          "midi": 77,
          "name": "F5",
          "ticks": 45600,
          "time": 41.66664375,
          "velocity": 0.41732283464566927
        },
        {
          "duration": 0.08771924999999925,
          "durationTicks": 96,
          "midi": 65,
          "name": "F4",
          "ticks": 45600,
          "time": 41.66664375,
          "velocity": 0.41732283464566927
        },
        {
          "duration": 0.08771924999999925,
          "durationTicks": 96,
          "midi": 65,
          "name": "F4",
          "ticks": 45696,
          "time": 41.754363,
          "velocity": 0.41732283464566927
        },
        {
          "duration": 0.08771924999999925,
          "durationTicks": 96,
          "midi": 77,
          "name": "F5",
          "ticks": 45696,
          "time": 41.754363,
          "velocity": 0.41732283464566927
        },
        {
          "duration": 0.08771925000000635,
          "durationTicks": 96,
          "midi": 67,
          "name": "G4",
          "ticks": 45888,
          "time": 41.929801499999996,
          "velocity": 0.41732283464566927
        },
        {
          "duration": 0.08771925000000635,
          "durationTicks": 96,
          "midi": 79,
          "name": "G5",
          "ticks": 45888,
          "time": 41.929801499999996,
          "velocity": 0.41732283464566927
        },
        {
          "duration": 0.08771924999999925,
          "durationTicks": 96,
          "midi": 79,
          "name": "G5",
          "ticks": 45984,
          "time": 42.01752075,
          "velocity": 0.41732283464566927
        },
        {
          "duration": 0.08771924999999925,
          "durationTicks": 96,
          "midi": 67,
          "name": "G4",
          "ticks": 45984,
          "time": 42.01752075,
          "velocity": 0.41732283464566927
        },
        {
          "duration": 0.08771924999999925,
          "durationTicks": 96,
          "midi": 79,
          "name": "G5",
          "ticks": 46080,
          "time": 42.10524,
          "velocity": 0.41732283464566927
        },
        {
          "duration": 0.08771924999999925,
          "durationTicks": 96,
          "midi": 67,
          "name": "G4",
          "ticks": 46080,
          "time": 42.10524,
          "velocity": 0.41732283464566927
        },
        {
          "duration": 0.08771924999999925,
          "durationTicks": 96,
          "midi": 67,
          "name": "G4",
          "ticks": 46176,
          "time": 42.19295925,
          "velocity": 0.41732283464566927
        },
        {
          "duration": 0.08771924999999925,
          "durationTicks": 96,
          "midi": 79,
          "name": "G5",
          "ticks": 46176,
          "time": 42.19295925,
          "velocity": 0.41732283464566927
        },
        {
          "duration": 0.08771924999999925,
          "durationTicks": 96,
          "midi": 50,
          "name": "D3",
          "ticks": 46272,
          "time": 42.2806785,
          "velocity": 0.41732283464566927
        },
        {
          "duration": 0.08771924999999925,
          "durationTicks": 96,
          "midi": 65,
          "name": "F4",
          "ticks": 46272,
          "time": 42.2806785,
          "velocity": 0.41732283464566927
        },
        {
          "duration": 0.08771924999999925,
          "durationTicks": 96,
          "midi": 77,
          "name": "F5",
          "ticks": 46272,
          "time": 42.2806785,
          "velocity": 0.41732283464566927
        },
        {
          "duration": 0.08771924999999925,
          "durationTicks": 96,
          "midi": 77,
          "name": "F5",
          "ticks": 46368,
          "time": 42.36839775,
          "velocity": 0.41732283464566927
        },
        {
          "duration": 0.08771924999999925,
          "durationTicks": 96,
          "midi": 65,
          "name": "F4",
          "ticks": 46368,
          "time": 42.36839775,
          "velocity": 0.41732283464566927
        },
        {
          "duration": 0.08771924999999925,
          "durationTicks": 96,
          "midi": 50,
          "name": "D3",
          "ticks": 46368,
          "time": 42.36839775,
          "velocity": 0.41732283464566927
        },
        {
          "duration": 0.08771924999999925,
          "durationTicks": 96,
          "midi": 77,
          "name": "F5",
          "ticks": 46464,
          "time": 42.456117,
          "velocity": 0.41732283464566927
        },
        {
          "duration": 0.08771924999999925,
          "durationTicks": 96,
          "midi": 65,
          "name": "F4",
          "ticks": 46464,
          "time": 42.456117,
          "velocity": 0.41732283464566927
        },
        {
          "duration": 0.08771924999999925,
          "durationTicks": 96,
          "midi": 50,
          "name": "D3",
          "ticks": 46464,
          "time": 42.456117,
          "velocity": 0.41732283464566927
        },
        {
          "duration": 0.08771924999999925,
          "durationTicks": 96,
          "midi": 77,
          "name": "F5",
          "ticks": 46560,
          "time": 42.54383625,
          "velocity": 0.41732283464566927
        },
        {
          "duration": 0.08771924999999925,
          "durationTicks": 96,
          "midi": 50,
          "name": "D3",
          "ticks": 46560,
          "time": 42.54383625,
          "velocity": 0.41732283464566927
        },
        {
          "duration": 0.08771924999999925,
          "durationTicks": 96,
          "midi": 65,
          "name": "F4",
          "ticks": 46560,
          "time": 42.54383625,
          "velocity": 0.41732283464566927
        },
        {
          "duration": 0.08771924999999925,
          "durationTicks": 96,
          "midi": 77,
          "name": "F5",
          "ticks": 46656,
          "time": 42.6315555,
          "velocity": 0.41732283464566927
        },
        {
          "duration": 0.08771924999999925,
          "durationTicks": 96,
          "midi": 65,
          "name": "F4",
          "ticks": 46656,
          "time": 42.6315555,
          "velocity": 0.41732283464566927
        },
        {
          "duration": 0.08771924999999925,
          "durationTicks": 96,
          "midi": 50,
          "name": "D3",
          "ticks": 46656,
          "time": 42.6315555,
          "velocity": 0.41732283464566927
        },
        {
          "duration": 0.08771924999999925,
          "durationTicks": 96,
          "midi": 77,
          "name": "F5",
          "ticks": 46752,
          "time": 42.71927475,
          "velocity": 0.41732283464566927
        },
        {
          "duration": 0.08771924999999925,
          "durationTicks": 96,
          "midi": 50,
          "name": "D3",
          "ticks": 46752,
          "time": 42.71927475,
          "velocity": 0.41732283464566927
        },
        {
          "duration": 0.08771924999999925,
          "durationTicks": 96,
          "midi": 65,
          "name": "F4",
          "ticks": 46752,
          "time": 42.71927475,
          "velocity": 0.41732283464566927
        },
        {
          "duration": 0.08771925000000635,
          "durationTicks": 96,
          "midi": 50,
          "name": "D3",
          "ticks": 46848,
          "time": 42.806993999999996,
          "velocity": 0.41732283464566927
        },
        {
          "duration": 0.08771925000000635,
          "durationTicks": 96,
          "midi": 77,
          "name": "F5",
          "ticks": 46848,
          "time": 42.806993999999996,
          "velocity": 0.41732283464566927
        },
        {
          "duration": 0.08771925000000635,
          "durationTicks": 96,
          "midi": 65,
          "name": "F4",
          "ticks": 46848,
          "time": 42.806993999999996,
          "velocity": 0.41732283464566927
        },
        {
          "duration": 0.08771924999999925,
          "durationTicks": 96,
          "midi": 50,
          "name": "D3",
          "ticks": 46944,
          "time": 42.89471325,
          "velocity": 0.41732283464566927
        },
        {
          "duration": 0.08771924999999925,
          "durationTicks": 96,
          "midi": 77,
          "name": "F5",
          "ticks": 46944,
          "time": 42.89471325,
          "velocity": 0.41732283464566927
        },
        {
          "duration": 0.08771924999999925,
          "durationTicks": 96,
          "midi": 65,
          "name": "F4",
          "ticks": 46944,
          "time": 42.89471325,
          "velocity": 0.41732283464566927
        },
        {
          "duration": 0.08771924999999925,
          "durationTicks": 96,
          "midi": 53,
          "name": "F3",
          "ticks": 47040,
          "time": 42.9824325,
          "velocity": 0.41732283464566927
        },
        {
          "duration": 0.08771924999999925,
          "durationTicks": 96,
          "midi": 60,
          "name": "C4",
          "ticks": 47040,
          "time": 42.9824325,
          "velocity": 0.41732283464566927
        },
        {
          "duration": 0.08771924999999925,
          "durationTicks": 96,
          "midi": 72,
          "name": "C5",
          "ticks": 47040,
          "time": 42.9824325,
          "velocity": 0.41732283464566927
        },
        {
          "duration": 0.08771924999999925,
          "durationTicks": 96,
          "midi": 53,
          "name": "F3",
          "ticks": 47136,
          "time": 43.07015175,
          "velocity": 0.41732283464566927
        },
        {
          "duration": 0.08771924999999925,
          "durationTicks": 96,
          "midi": 72,
          "name": "C5",
          "ticks": 47136,
          "time": 43.07015175,
          "velocity": 0.41732283464566927
        },
        {
          "duration": 0.08771924999999925,
          "durationTicks": 96,
          "midi": 60,
          "name": "C4",
          "ticks": 47136,
          "time": 43.07015175,
          "velocity": 0.41732283464566927
        },
        {
          "duration": 0.08771924999999925,
          "durationTicks": 96,
          "midi": 72,
          "name": "C5",
          "ticks": 47232,
          "time": 43.157871,
          "velocity": 0.41732283464566927
        },
        {
          "duration": 0.08771924999999925,
          "durationTicks": 96,
          "midi": 60,
          "name": "C4",
          "ticks": 47232,
          "time": 43.157871,
          "velocity": 0.41732283464566927
        },
        {
          "duration": 0.08771924999999925,
          "durationTicks": 96,
          "midi": 53,
          "name": "F3",
          "ticks": 47232,
          "time": 43.157871,
          "velocity": 0.41732283464566927
        },
        {
          "duration": 0.08771924999999925,
          "durationTicks": 96,
          "midi": 60,
          "name": "C4",
          "ticks": 47328,
          "time": 43.24559025,
          "velocity": 0.41732283464566927
        },
        {
          "duration": 0.08771924999999925,
          "durationTicks": 96,
          "midi": 53,
          "name": "F3",
          "ticks": 47328,
          "time": 43.24559025,
          "velocity": 0.41732283464566927
        },
        {
          "duration": 0.08771924999999925,
          "durationTicks": 96,
          "midi": 72,
          "name": "C5",
          "ticks": 47328,
          "time": 43.24559025,
          "velocity": 0.41732283464566927
        },
        {
          "duration": 0.08771924999999925,
          "durationTicks": 96,
          "midi": 53,
          "name": "F3",
          "ticks": 47424,
          "time": 43.3333095,
          "velocity": 0.41732283464566927
        },
        {
          "duration": 0.08771924999999925,
          "durationTicks": 96,
          "midi": 72,
          "name": "C5",
          "ticks": 47424,
          "time": 43.3333095,
          "velocity": 0.41732283464566927
        },
        {
          "duration": 0.08771924999999925,
          "durationTicks": 96,
          "midi": 60,
          "name": "C4",
          "ticks": 47424,
          "time": 43.3333095,
          "velocity": 0.41732283464566927
        },
        {
          "duration": 0.08771924999999925,
          "durationTicks": 96,
          "midi": 53,
          "name": "F3",
          "ticks": 47520,
          "time": 43.42102875,
          "velocity": 0.41732283464566927
        },
        {
          "duration": 0.08771924999999925,
          "durationTicks": 96,
          "midi": 60,
          "name": "C4",
          "ticks": 47520,
          "time": 43.42102875,
          "velocity": 0.41732283464566927
        },
        {
          "duration": 0.08771924999999925,
          "durationTicks": 96,
          "midi": 72,
          "name": "C5",
          "ticks": 47520,
          "time": 43.42102875,
          "velocity": 0.41732283464566927
        },
        {
          "duration": 0.08771924999999925,
          "durationTicks": 96,
          "midi": 53,
          "name": "F3",
          "ticks": 47616,
          "time": 43.508748,
          "velocity": 0.41732283464566927
        },
        {
          "duration": 0.08771924999999925,
          "durationTicks": 96,
          "midi": 72,
          "name": "C5",
          "ticks": 47616,
          "time": 43.508748,
          "velocity": 0.41732283464566927
        },
        {
          "duration": 0.08771924999999925,
          "durationTicks": 96,
          "midi": 60,
          "name": "C4",
          "ticks": 47616,
          "time": 43.508748,
          "velocity": 0.41732283464566927
        },
        {
          "duration": 0.08771925000000635,
          "durationTicks": 96,
          "midi": 72,
          "name": "C5",
          "ticks": 47712,
          "time": 43.596467249999996,
          "velocity": 0.41732283464566927
        },
        {
          "duration": 0.08771925000000635,
          "durationTicks": 96,
          "midi": 53,
          "name": "F3",
          "ticks": 47712,
          "time": 43.596467249999996,
          "velocity": 0.41732283464566927
        },
        {
          "duration": 0.08771925000000635,
          "durationTicks": 96,
          "midi": 60,
          "name": "C4",
          "ticks": 47712,
          "time": 43.596467249999996,
          "velocity": 0.41732283464566927
        },
        {
          "duration": 0.08771924999999925,
          "durationTicks": 96,
          "midi": 70,
          "name": "A#4",
          "ticks": 47808,
          "time": 43.6841865,
          "velocity": 0.41732283464566927
        },
        {
          "duration": 0.08771924999999925,
          "durationTicks": 96,
          "midi": 58,
          "name": "A#3",
          "ticks": 47808,
          "time": 43.6841865,
          "velocity": 0.41732283464566927
        },
        {
          "duration": 0.08771924999999925,
          "durationTicks": 96,
          "midi": 55,
          "name": "G3",
          "ticks": 47808,
          "time": 43.6841865,
          "velocity": 0.41732283464566927
        },
        {
          "duration": 0.08771924999999925,
          "durationTicks": 96,
          "midi": 55,
          "name": "G3",
          "ticks": 47904,
          "time": 43.77190575,
          "velocity": 0.41732283464566927
        },
        {
          "duration": 0.08771924999999925,
          "durationTicks": 96,
          "midi": 58,
          "name": "A#3",
          "ticks": 47904,
          "time": 43.77190575,
          "velocity": 0.41732283464566927
        },
        {
          "duration": 0.08771924999999925,
          "durationTicks": 96,
          "midi": 70,
          "name": "A#4",
          "ticks": 47904,
          "time": 43.77190575,
          "velocity": 0.41732283464566927
        },
        {
          "duration": 0.08771924999999925,
          "durationTicks": 96,
          "midi": 70,
          "name": "A#4",
          "ticks": 48000,
          "time": 43.859625,
          "velocity": 0.41732283464566927
        },
        {
          "duration": 0.08771924999999925,
          "durationTicks": 96,
          "midi": 58,
          "name": "A#3",
          "ticks": 48000,
          "time": 43.859625,
          "velocity": 0.41732283464566927
        },
        {
          "duration": 0.08771924999999925,
          "durationTicks": 96,
          "midi": 55,
          "name": "G3",
          "ticks": 48000,
          "time": 43.859625,
          "velocity": 0.41732283464566927
        },
        {
          "duration": 0.08771924999999925,
          "durationTicks": 96,
          "midi": 70,
          "name": "A#4",
          "ticks": 48096,
          "time": 43.94734425,
          "velocity": 0.41732283464566927
        },
        {
          "duration": 0.08771924999999925,
          "durationTicks": 96,
          "midi": 58,
          "name": "A#3",
          "ticks": 48096,
          "time": 43.94734425,
          "velocity": 0.41732283464566927
        },
        {
          "duration": 0.08771924999999925,
          "durationTicks": 96,
          "midi": 55,
          "name": "G3",
          "ticks": 48096,
          "time": 43.94734425,
          "velocity": 0.41732283464566927
        },
        {
          "duration": 0.08771924999999925,
          "durationTicks": 96,
          "midi": 58,
          "name": "A#3",
          "ticks": 48192,
          "time": 44.0350635,
          "velocity": 0.41732283464566927
        },
        {
          "duration": 0.08771924999999925,
          "durationTicks": 96,
          "midi": 55,
          "name": "G3",
          "ticks": 48192,
          "time": 44.0350635,
          "velocity": 0.41732283464566927
        },
        {
          "duration": 0.08771924999999925,
          "durationTicks": 96,
          "midi": 70,
          "name": "A#4",
          "ticks": 48192,
          "time": 44.0350635,
          "velocity": 0.41732283464566927
        },
        {
          "duration": 0.08771924999999925,
          "durationTicks": 96,
          "midi": 55,
          "name": "G3",
          "ticks": 48288,
          "time": 44.12278275,
          "velocity": 0.41732283464566927
        },
        {
          "duration": 0.08771924999999925,
          "durationTicks": 96,
          "midi": 70,
          "name": "A#4",
          "ticks": 48288,
          "time": 44.12278275,
          "velocity": 0.41732283464566927
        },
        {
          "duration": 0.08771924999999925,
          "durationTicks": 96,
          "midi": 58,
          "name": "A#3",
          "ticks": 48288,
          "time": 44.12278275,
          "velocity": 0.41732283464566927
        },
        {
          "duration": 0.08771924999999925,
          "durationTicks": 96,
          "midi": 55,
          "name": "G3",
          "ticks": 48384,
          "time": 44.210502,
          "velocity": 0.41732283464566927
        },
        {
          "duration": 0.08771924999999925,
          "durationTicks": 96,
          "midi": 70,
          "name": "A#4",
          "ticks": 48384,
          "time": 44.210502,
          "velocity": 0.41732283464566927
        },
        {
          "duration": 0.08771924999999925,
          "durationTicks": 96,
          "midi": 58,
          "name": "A#3",
          "ticks": 48384,
          "time": 44.210502,
          "velocity": 0.41732283464566927
        },
        {
          "duration": 0.08771924999999925,
          "durationTicks": 96,
          "midi": 55,
          "name": "G3",
          "ticks": 48480,
          "time": 44.29822125,
          "velocity": 0.41732283464566927
        },
        {
          "duration": 0.08771924999999925,
          "durationTicks": 96,
          "midi": 58,
          "name": "A#3",
          "ticks": 48480,
          "time": 44.29822125,
          "velocity": 0.41732283464566927
        },
        {
          "duration": 0.08771924999999925,
          "durationTicks": 96,
          "midi": 70,
          "name": "A#4",
          "ticks": 48480,
          "time": 44.29822125,
          "velocity": 0.41732283464566927
        },
        {
          "duration": 0.08771925000000635,
          "durationTicks": 96,
          "midi": 65,
          "name": "F4",
          "ticks": 74016,
          "time": 67.63154175,
          "velocity": 0.41732283464566927
        },
        {
          "duration": 0.08771925000000635,
          "durationTicks": 96,
          "midi": 58,
          "name": "A#3",
          "ticks": 74400,
          "time": 67.98241875,
          "velocity": 0.41732283464566927
        },
        {
          "duration": 0.08771924999999214,
          "durationTicks": 96,
          "midi": 60,
          "name": "C4",
          "ticks": 74784,
          "time": 68.33329575,
          "velocity": 0.41732283464566927
        },
        {
          "duration": 0.08771924999999214,
          "durationTicks": 96,
          "midi": 58,
          "name": "A#3",
          "ticks": 75168,
          "time": 68.68417275,
          "velocity": 0.41732283464566927
        },
        {
          "duration": 0.08771925000000635,
          "durationTicks": 96,
          "midi": 53,
          "name": "F3",
          "ticks": 75552,
          "time": 69.03504975,
          "velocity": 0.41732283464566927
        },
        {
          "duration": 0.08771925000000635,
          "durationTicks": 96,
          "midi": 58,
          "name": "A#3",
          "ticks": 75744,
          "time": 69.21048825,
          "velocity": 0.41732283464566927
        },
        {
          "duration": 0.08771925000000635,
          "durationTicks": 96,
          "midi": 60,
          "name": "C4",
          "ticks": 76128,
          "time": 69.56136525,
          "velocity": 0.41732283464566927
        },
        {
          "duration": 0.08771924999999214,
          "durationTicks": 96,
          "midi": 62,
          "name": "D4",
          "ticks": 76512,
          "time": 69.91224225,
          "velocity": 0.41732283464566927
        },
        {
          "duration": 0.08771925000000635,
          "durationTicks": 96,
          "midi": 60,
          "name": "C4",
          "ticks": 76608,
          "time": 69.9999615,
          "velocity": 0.41732283464566927
        },
        {
          "duration": 0.08771924999999214,
          "durationTicks": 96,
          "midi": 58,
          "name": "A#3",
          "ticks": 76704,
          "time": 70.08768075,
          "velocity": 0.41732283464566927
        },
        {
          "duration": 0.08771924999999214,
          "durationTicks": 96,
          "midi": 53,
          "name": "F3",
          "ticks": 77088,
          "time": 70.43855775,
          "velocity": 0.41732283464566927
        },
        {
          "duration": 0.08771925000000635,
          "durationTicks": 96,
          "midi": 58,
          "name": "A#3",
          "ticks": 77472,
          "time": 70.78943475,
          "velocity": 0.41732283464566927
        },
        {
          "duration": 0.08771925000000635,
          "durationTicks": 96,
          "midi": 60,
          "name": "C4",
          "ticks": 77856,
          "time": 71.14031175,
          "velocity": 0.41732283464566927
        },
        {
          "duration": 0.08771925000000635,
          "durationTicks": 96,
          "midi": 63,
          "name": "D#4",
          "ticks": 78048,
          "time": 71.31575025,
          "velocity": 0.41732283464566927
        },
        {
          "duration": 0.08771924999999214,
          "durationTicks": 96,
          "midi": 62,
          "name": "D4",
          "ticks": 78432,
          "time": 71.66662725,
          "velocity": 0.41732283464566927
        },
        {
          "duration": 0.08771924999999214,
          "durationTicks": 96,
          "midi": 63,
          "name": "D#4",
          "ticks": 78816,
          "time": 72.01750425,
          "velocity": 0.41732283464566927
        },
        {
          "duration": 0.08771925000000635,
          "durationTicks": 96,
          "midi": 62,
          "name": "D4",
          "ticks": 78912,
          "time": 72.1052235,
          "velocity": 0.41732283464566927
        },
        {
          "duration": 0.08771925000000635,
          "durationTicks": 96,
          "midi": 58,
          "name": "A#3",
          "ticks": 79392,
          "time": 72.54381975,
          "velocity": 0.41732283464566927
        },
        {
          "duration": 0.08771925000000635,
          "durationTicks": 96,
          "midi": 53,
          "name": "F3",
          "ticks": 79776,
          "time": 72.89469675,
          "velocity": 0.41732283464566927
        },
        {
          "duration": 0.08771924999999214,
          "durationTicks": 96,
          "midi": 65,
          "name": "F4",
          "ticks": 80160,
          "time": 73.24557375,
          "velocity": 0.41732283464566927
        },
        {
          "duration": 0.08771924999999214,
          "durationTicks": 96,
          "midi": 58,
          "name": "A#3",
          "ticks": 80544,
          "time": 73.59645075,
          "velocity": 0.41732283464566927
        },
        {
          "duration": 0.08771925000000635,
          "durationTicks": 96,
          "midi": 60,
          "name": "C4",
          "ticks": 80928,
          "time": 73.94732775,
          "velocity": 0.41732283464566927
        },
        {
          "duration": 0.08771925000000635,
          "durationTicks": 96,
          "midi": 58,
          "name": "A#3",
          "ticks": 81312,
          "time": 74.29820475,
          "velocity": 0.41732283464566927
        },
        {
          "duration": 0.08771925000000635,
          "durationTicks": 96,
          "midi": 53,
          "name": "F3",
          "ticks": 81696,
          "time": 74.64908175,
          "velocity": 0.41732283464566927
        },
        {
          "duration": 0.08771925000000635,
          "durationTicks": 96,
          "midi": 58,
          "name": "A#3",
          "ticks": 81888,
          "time": 74.82452024999999,
          "velocity": 0.41732283464566927
        },
        {
          "duration": 0.08771924999999214,
          "durationTicks": 96,
          "midi": 60,
          "name": "C4",
          "ticks": 82272,
          "time": 75.17539725,
          "velocity": 0.41732283464566927
        },
        {
          "duration": 0.08771924999999214,
          "durationTicks": 96,
          "midi": 62,
          "name": "D4",
          "ticks": 82656,
          "time": 75.52627425,
          "velocity": 0.41732283464566927
        },
        {
          "duration": 0.08771925000000635,
          "durationTicks": 96,
          "midi": 60,
          "name": "C4",
          "ticks": 82752,
          "time": 75.61399349999999,
          "velocity": 0.41732283464566927
        },
        {
          "duration": 0.08771925000000635,
          "durationTicks": 96,
          "midi": 58,
          "name": "A#3",
          "ticks": 82848,
          "time": 75.70171275,
          "velocity": 0.41732283464566927
        },
        {
          "duration": 0.08771925000000635,
          "durationTicks": 96,
          "midi": 53,
          "name": "F3",
          "ticks": 83232,
          "time": 76.05258975,
          "velocity": 0.41732283464566927
        },
        {
          "duration": 0.08771925000000635,
          "durationTicks": 96,
          "midi": 58,
          "name": "A#3",
          "ticks": 83616,
          "time": 76.40346674999999,
          "velocity": 0.41732283464566927
        },
        {
          "duration": 0.08771924999999214,
          "durationTicks": 96,
          "midi": 60,
          "name": "C4",
          "ticks": 84000,
          "time": 76.75434375,
          "velocity": 0.41732283464566927
        },
        {
          "duration": 0.08771924999999214,
          "durationTicks": 96,
          "midi": 63,
          "name": "D#4",
          "ticks": 84192,
          "time": 76.92978225,
          "velocity": 0.41732283464566927
        },
        {
          "duration": 0.08771925000000635,
          "durationTicks": 96,
          "midi": 62,
          "name": "D4",
          "ticks": 84576,
          "time": 77.28065925,
          "velocity": 0.41732283464566927
        },
        {
          "duration": 0.08771925000000635,
          "durationTicks": 96,
          "midi": 63,
          "name": "D#4",
          "ticks": 84960,
          "time": 77.63153625,
          "velocity": 0.41732283464566927
        },
        {
          "duration": 0.08771924999999214,
          "durationTicks": 96,
          "midi": 62,
          "name": "D4",
          "ticks": 85056,
          "time": 77.7192555,
          "velocity": 0.41732283464566927
        },
        {
          "duration": 0.08771925000000635,
          "durationTicks": 96,
          "midi": 58,
          "name": "A#3",
          "ticks": 85536,
          "time": 78.15785174999999,
          "velocity": 0.41732283464566927
        },
        {
          "duration": 0.08771924999999214,
          "durationTicks": 96,
          "midi": 53,
          "name": "F3",
          "ticks": 85920,
          "time": 78.50872875,
          "velocity": 0.41732283464566927
        },
        {
          "duration": 0.08771924999999214,
          "durationTicks": 96,
          "midi": 65,
          "name": "F4",
          "ticks": 86304,
          "time": 78.85960575,
          "velocity": 0.41732283464566927
        },
        {
          "duration": 0.08771925000000635,
          "durationTicks": 96,
          "midi": 58,
          "name": "A#3",
          "ticks": 86688,
          "time": 79.21048275,
          "velocity": 0.41732283464566927
        },
        {
          "duration": 0.08771925000000635,
          "durationTicks": 96,
          "midi": 60,
          "name": "C4",
          "ticks": 87072,
          "time": 79.56135975,
          "velocity": 0.41732283464566927
        },
        {
          "duration": 0.08771924999999214,
          "durationTicks": 96,
          "midi": 58,
          "name": "A#3",
          "ticks": 87456,
          "time": 79.91223675,
          "velocity": 0.41732283464566927
        },
        {
          "duration": 0.08771924999999214,
          "durationTicks": 96,
          "midi": 53,
          "name": "F3",
          "ticks": 87840,
          "time": 80.26311375,
          "velocity": 0.41732283464566927
        },
        {
          "duration": 0.08771924999999214,
          "durationTicks": 96,
          "midi": 58,
          "name": "A#3",
          "ticks": 88032,
          "time": 80.43855225,
          "velocity": 0.41732283464566927
        },
        {
          "duration": 0.08771925000000635,
          "durationTicks": 96,
          "midi": 60,
          "name": "C4",
          "ticks": 88416,
          "time": 80.78942925,
          "velocity": 0.41732283464566927
        },
        {
          "duration": 0.08771925000000635,
          "durationTicks": 96,
          "midi": 62,
          "name": "D4",
          "ticks": 88800,
          "time": 81.14030625,
          "velocity": 0.41732283464566927
        },
        {
          "duration": 0.08771924999999214,
          "durationTicks": 96,
          "midi": 60,
          "name": "C4",
          "ticks": 88896,
          "time": 81.2280255,
          "velocity": 0.41732283464566927
        },
        {
          "duration": 0.08771925000000635,
          "durationTicks": 96,
          "midi": 58,
          "name": "A#3",
          "ticks": 88992,
          "time": 81.31574475,
          "velocity": 0.41732283464566927
        },
        {
          "duration": 0.08771924999999214,
          "durationTicks": 96,
          "midi": 53,
          "name": "F3",
          "ticks": 89376,
          "time": 81.66662175,
          "velocity": 0.41732283464566927
        },
        {
          "duration": 0.08771924999999214,
          "durationTicks": 96,
          "midi": 58,
          "name": "A#3",
          "ticks": 89760,
          "time": 82.01749875,
          "velocity": 0.41732283464566927
        },
        {
          "duration": 0.08771925000000635,
          "durationTicks": 96,
          "midi": 60,
          "name": "C4",
          "ticks": 90144,
          "time": 82.36837575,
          "velocity": 0.41732283464566927
        },
        {
          "duration": 0.08771925000000635,
          "durationTicks": 96,
          "midi": 63,
          "name": "D#4",
          "ticks": 90336,
          "time": 82.54381425,
          "velocity": 0.41732283464566927
        },
        {
          "duration": 0.08771925000000635,
          "durationTicks": 96,
          "midi": 62,
          "name": "D4",
          "ticks": 90720,
          "time": 82.89469125,
          "velocity": 0.41732283464566927
        },
        {
          "duration": 0.08771924999999214,
          "durationTicks": 96,
          "midi": 63,
          "name": "D#4",
          "ticks": 91104,
          "time": 83.24556825,
          "velocity": 0.41732283464566927
        },
        {
          "duration": 0.08771925000000635,
          "durationTicks": 96,
          "midi": 62,
          "name": "D4",
          "ticks": 91200,
          "time": 83.3332875,
          "velocity": 0.41732283464566927
        },
        {
          "duration": 0.08771924999999214,
          "durationTicks": 96,
          "midi": 58,
          "name": "A#3",
          "ticks": 91680,
          "time": 83.77188375,
          "velocity": 0.41732283464566927
        },
        {
          "duration": 0.08771925000000635,
          "durationTicks": 96,
          "midi": 53,
          "name": "F3",
          "ticks": 92064,
          "time": 84.12276075,
          "velocity": 0.41732283464566927
        },
        {
          "duration": 0.08771925000000635,
          "durationTicks": 96,
          "midi": 65,
          "name": "F4",
          "ticks": 92448,
          "time": 84.47363775,
          "velocity": 0.41732283464566927
        },
        {
          "duration": 0.08771925000000635,
          "durationTicks": 96,
          "midi": 58,
          "name": "A#3",
          "ticks": 92832,
          "time": 84.82451474999999,
          "velocity": 0.41732283464566927
        },
        {
          "duration": 0.08771924999999214,
          "durationTicks": 96,
          "midi": 60,
          "name": "C4",
          "ticks": 93216,
          "time": 85.17539175,
          "velocity": 0.41732283464566927
        },
        {
          "duration": 0.08771924999999214,
          "durationTicks": 96,
          "midi": 58,
          "name": "A#3",
          "ticks": 93600,
          "time": 85.52626875,
          "velocity": 0.41732283464566927
        },
        {
          "duration": 0.08771925000000635,
          "durationTicks": 96,
          "midi": 53,
          "name": "F3",
          "ticks": 93984,
          "time": 85.87714575,
          "velocity": 0.41732283464566927
        },
        {
          "duration": 0.08771925000000635,
          "durationTicks": 96,
          "midi": 58,
          "name": "A#3",
          "ticks": 94176,
          "time": 86.05258425,
          "velocity": 0.41732283464566927
        },
        {
          "duration": 0.08771925000000635,
          "durationTicks": 96,
          "midi": 60,
          "name": "C4",
          "ticks": 94560,
          "time": 86.40346124999999,
          "velocity": 0.41732283464566927
        },
        {
          "duration": 0.08771924999999214,
          "durationTicks": 96,
          "midi": 62,
          "name": "D4",
          "ticks": 94944,
          "time": 86.75433825,
          "velocity": 0.41732283464566927
        },
        {
          "duration": 0.08771925000000635,
          "durationTicks": 96,
          "midi": 60,
          "name": "C4",
          "ticks": 95040,
          "time": 86.8420575,
          "velocity": 0.41732283464566927
        },
        {
          "duration": 0.08771924999999214,
          "durationTicks": 96,
          "midi": 58,
          "name": "A#3",
          "ticks": 95136,
          "time": 86.92977675,
          "velocity": 0.41732283464566927
        },
        {
          "duration": 0.08771925000000635,
          "durationTicks": 96,
          "midi": 53,
          "name": "F3",
          "ticks": 95520,
          "time": 87.28065375,
          "velocity": 0.41732283464566927
        },
        {
          "duration": 0.08771925000000635,
          "durationTicks": 96,
          "midi": 58,
          "name": "A#3",
          "ticks": 95904,
          "time": 87.63153075,
          "velocity": 0.41732283464566927
        },
        {
          "duration": 0.08771925000000635,
          "durationTicks": 96,
          "midi": 60,
          "name": "C4",
          "ticks": 96288,
          "time": 87.98240775,
          "velocity": 0.41732283464566927
        },
        {
          "duration": 0.08771925000000635,
          "durationTicks": 96,
          "midi": 63,
          "name": "D#4",
          "ticks": 96480,
          "time": 88.15784624999999,
          "velocity": 0.41732283464566927
        },
        {
          "duration": 0.08771924999999214,
          "durationTicks": 96,
          "midi": 62,
          "name": "D4",
          "ticks": 96864,
          "time": 88.50872325,
          "velocity": 0.41732283464566927
        },
        {
          "duration": 0.08771924999999214,
          "durationTicks": 96,
          "midi": 63,
          "name": "D#4",
          "ticks": 97248,
          "time": 88.85960025,
          "velocity": 0.41732283464566927
        },
        {
          "duration": 0.08771925000000635,
          "durationTicks": 96,
          "midi": 62,
          "name": "D4",
          "ticks": 97344,
          "time": 88.94731949999999,
          "velocity": 0.41732283464566927
        },
        {
          "duration": 0.08771925000000635,
          "durationTicks": 96,
          "midi": 58,
          "name": "A#3",
          "ticks": 97824,
          "time": 89.38591575,
          "velocity": 0.41732283464566927
        },
        {
          "duration": 0.08771925000000635,
          "durationTicks": 96,
          "midi": 53,
          "name": "F3",
          "ticks": 98208,
          "time": 89.73679274999999,
          "velocity": 0.41732283464566927
        },
        {
          "duration": 0.08771925000000635,
          "durationTicks": 96,
          "midi": 65,
          "name": "F4",
          "ticks": 123168,
          "time": 112.54379775,
          "velocity": 0.41732283464566927
        },
        {
          "duration": 0.08771925000000635,
          "durationTicks": 96,
          "midi": 58,
          "name": "A#3",
          "ticks": 123552,
          "time": 112.89467475,
          "velocity": 0.41732283464566927
        },
        {
          "duration": 0.08771924999999214,
          "durationTicks": 96,
          "midi": 60,
          "name": "C4",
          "ticks": 123936,
          "time": 113.24555175,
          "velocity": 0.41732283464566927
        },
        {
          "duration": 0.08771924999999214,
          "durationTicks": 96,
          "midi": 58,
          "name": "A#3",
          "ticks": 124320,
          "time": 113.59642875,
          "velocity": 0.41732283464566927
        },
        {
          "duration": 0.08771925000000635,
          "durationTicks": 96,
          "midi": 53,
          "name": "F3",
          "ticks": 124704,
          "time": 113.94730575,
          "velocity": 0.41732283464566927
        },
        {
          "duration": 0.08771925000000635,
          "durationTicks": 96,
          "midi": 58,
          "name": "A#3",
          "ticks": 124896,
          "time": 114.12274425,
          "velocity": 0.41732283464566927
        },
        {
          "duration": 0.08771925000000635,
          "durationTicks": 96,
          "midi": 60,
          "name": "C4",
          "ticks": 125280,
          "time": 114.47362125,
          "velocity": 0.41732283464566927
        },
        {
          "duration": 0.08771924999999214,
          "durationTicks": 96,
          "midi": 62,
          "name": "D4",
          "ticks": 125664,
          "time": 114.82449825,
          "velocity": 0.41732283464566927
        },
        {
          "duration": 0.08771925000000635,
          "durationTicks": 96,
          "midi": 60,
          "name": "C4",
          "ticks": 125760,
          "time": 114.9122175,
          "velocity": 0.41732283464566927
        },
        {
          "duration": 0.08771924999999214,
          "durationTicks": 96,
          "midi": 58,
          "name": "A#3",
          "ticks": 125856,
          "time": 114.99993675,
          "velocity": 0.41732283464566927
        },
        {
          "duration": 0.08771924999999214,
          "durationTicks": 96,
          "midi": 53,
          "name": "F3",
          "ticks": 126240,
          "time": 115.35081375,
          "velocity": 0.41732283464566927
        },
        {
          "duration": 0.08771925000000635,
          "durationTicks": 96,
          "midi": 58,
          "name": "A#3",
          "ticks": 126624,
          "time": 115.70169075,
          "velocity": 0.41732283464566927
        },
        {
          "duration": 0.08771925000000635,
          "durationTicks": 96,
          "midi": 60,
          "name": "C4",
          "ticks": 127008,
          "time": 116.05256775,
          "velocity": 0.41732283464566927
        },
        {
          "duration": 0.08771925000000635,
          "durationTicks": 96,
          "midi": 63,
          "name": "D#4",
          "ticks": 127200,
          "time": 116.22800624999999,
          "velocity": 0.41732283464566927
        },
        {
          "duration": 0.08771924999999214,
          "durationTicks": 96,
          "midi": 62,
          "name": "D4",
          "ticks": 127584,
          "time": 116.57888325,
          "velocity": 0.41732283464566927
        },
        {
          "duration": 0.08771924999999214,
          "durationTicks": 96,
          "midi": 63,
          "name": "D#4",
          "ticks": 127968,
          "time": 116.92976025,
          "velocity": 0.41732283464566927
        },
        {
          "duration": 0.08771925000000635,
          "durationTicks": 96,
          "midi": 62,
          "name": "D4",
          "ticks": 128064,
          "time": 117.0174795,
          "velocity": 0.41732283464566927
        },
        {
          "duration": 0.08771925000000635,
          "durationTicks": 96,
          "midi": 58,
          "name": "A#3",
          "ticks": 128544,
          "time": 117.45607575,
          "velocity": 0.41732283464566927
        },
        {
          "duration": 0.08771925000000635,
          "durationTicks": 96,
          "midi": 53,
          "name": "F3",
          "ticks": 128928,
          "time": 117.80695275,
          "velocity": 0.41732283464566927
        },
        {
          "duration": 0.08771924999999214,
          "durationTicks": 96,
          "midi": 65,
          "name": "F4",
          "ticks": 129312,
          "time": 118.15782975,
          "velocity": 0.41732283464566927
        },
        {
          "duration": 0.08771924999999214,
          "durationTicks": 96,
          "midi": 58,
          "name": "A#3",
          "ticks": 129696,
          "time": 118.50870675,
          "velocity": 0.41732283464566927
        },
        {
          "duration": 0.08771925000000635,
          "durationTicks": 96,
          "midi": 60,
          "name": "C4",
          "ticks": 130080,
          "time": 118.85958375,
          "velocity": 0.41732283464566927
        },
        {
          "duration": 0.08771925000000635,
          "durationTicks": 96,
          "midi": 58,
          "name": "A#3",
          "ticks": 130464,
          "time": 119.21046075,
          "velocity": 0.41732283464566927
        },
        {
          "duration": 0.08771925000000635,
          "durationTicks": 96,
          "midi": 53,
          "name": "F3",
          "ticks": 130848,
          "time": 119.56133774999999,
          "velocity": 0.41732283464566927
        },
        {
          "duration": 0.08771925000000635,
          "durationTicks": 96,
          "midi": 58,
          "name": "A#3",
          "ticks": 131040,
          "time": 119.73677624999999,
          "velocity": 0.41732283464566927
        },
        {
          "duration": 0.08771924999999214,
          "durationTicks": 96,
          "midi": 60,
          "name": "C4",
          "ticks": 131424,
          "time": 120.08765325,
          "velocity": 0.41732283464566927
        },
        {
          "duration": 0.08771924999999214,
          "durationTicks": 96,
          "midi": 62,
          "name": "D4",
          "ticks": 131808,
          "time": 120.43853025,
          "velocity": 0.41732283464566927
        },
        {
          "duration": 0.08771925000000635,
          "durationTicks": 96,
          "midi": 60,
          "name": "C4",
          "ticks": 131904,
          "time": 120.52624949999999,
          "velocity": 0.41732283464566927
        },
        {
          "duration": 0.08771925000000635,
          "durationTicks": 96,
          "midi": 58,
          "name": "A#3",
          "ticks": 132000,
          "time": 120.61396875,
          "velocity": 0.41732283464566927
        },
        {
          "duration": 0.08771925000000635,
          "durationTicks": 96,
          "midi": 65,
          "name": "F4",
          "ticks": 132384,
          "time": 120.96484575,
          "velocity": 0.41732283464566927
        },
        {
          "duration": 0.08771925000000635,
          "durationTicks": 96,
          "midi": 58,
          "name": "A#3",
          "ticks": 132768,
          "time": 121.31572274999999,
          "velocity": 0.41732283464566927
        },
        {
          "duration": 0.08771924999999214,
          "durationTicks": 96,
          "midi": 70,
          "name": "A#4",
          "ticks": 133152,
          "time": 121.66659975,
          "velocity": 0.41732283464566927
        },
        {
          "duration": 0.08771924999999214,
          "durationTicks": 96,
          "midi": 69,
          "name": "A4",
          "ticks": 133344,
          "time": 121.84203825,
          "velocity": 0.41732283464566927
        },
        {
          "duration": 0.08771925000000635,
          "durationTicks": 96,
          "midi": 65,
          "name": "F4",
          "ticks": 133728,
          "time": 122.19291525,
          "velocity": 0.41732283464566927
        },
        {
          "duration": 0.08771925000000635,
          "durationTicks": 96,
          "midi": 62,
          "name": "D4",
          "ticks": 134112,
          "time": 122.54379225,
          "velocity": 0.41732283464566927
        },
        {
          "duration": 0.08771925000000635,
          "durationTicks": 96,
          "midi": 60,
          "name": "C4",
          "ticks": 134304,
          "time": 122.71923075,
          "velocity": 0.41732283464566927
        },
        {
          "duration": 0.08771925000000635,
          "durationTicks": 96,
          "midi": 58,
          "name": "A#3",
          "ticks": 134496,
          "time": 122.89466924999999,
          "velocity": 0.41732283464566927
        },
        {
          "duration": 0.08771924999999214,
          "durationTicks": 96,
          "midi": 60,
          "name": "C4",
          "ticks": 134880,
          "time": 123.24554625,
          "velocity": 0.41732283464566927
        },
        {
          "duration": 0.08771924999999214,
          "durationTicks": 96,
          "midi": 58,
          "name": "A#3",
          "ticks": 135072,
          "time": 123.42098475,
          "velocity": 0.41732283464566927
        },
        {
          "duration": 0.08771924999999214,
          "durationTicks": 96,
          "midi": 53,
          "name": "F3",
          "ticks": 135264,
          "time": 123.59642325,
          "velocity": 0.41732283464566927
        },
        {
          "duration": 0.08771924999999214,
          "durationTicks": 96,
          "midi": 65,
          "name": "F4",
          "ticks": 135456,
          "time": 123.77186175,
          "velocity": 0.41732283464566927
        },
        {
          "duration": 0.08771925000000635,
          "durationTicks": 96,
          "midi": 58,
          "name": "A#3",
          "ticks": 135840,
          "time": 124.12273875,
          "velocity": 0.41732283464566927
        },
        {
          "duration": 0.08771925000000635,
          "durationTicks": 96,
          "midi": 60,
          "name": "C4",
          "ticks": 136224,
          "time": 124.47361575,
          "velocity": 0.41732283464566927
        },
        {
          "duration": 0.08771924999999214,
          "durationTicks": 96,
          "midi": 58,
          "name": "A#3",
          "ticks": 136608,
          "time": 124.82449275,
          "velocity": 0.41732283464566927
        },
        {
          "duration": 0.08771924999999214,
          "durationTicks": 96,
          "midi": 53,
          "name": "F3",
          "ticks": 136992,
          "time": 125.17536975,
          "velocity": 0.41732283464566927
        },
        {
          "duration": 0.08771924999999214,
          "durationTicks": 96,
          "midi": 58,
          "name": "A#3",
          "ticks": 137184,
          "time": 125.35080825,
          "velocity": 0.41732283464566927
        },
        {
          "duration": 0.08771925000000635,
          "durationTicks": 96,
          "midi": 60,
          "name": "C4",
          "ticks": 137568,
          "time": 125.70168525,
          "velocity": 0.41732283464566927
        },
        {
          "duration": 0.08771925000000635,
          "durationTicks": 96,
          "midi": 62,
          "name": "D4",
          "ticks": 137952,
          "time": 126.05256225,
          "velocity": 0.41732283464566927
        },
        {
          "duration": 0.08771924999999214,
          "durationTicks": 96,
          "midi": 60,
          "name": "C4",
          "ticks": 138048,
          "time": 126.1402815,
          "velocity": 0.41732283464566927
        },
        {
          "duration": 0.08771925000000635,
          "durationTicks": 96,
          "midi": 58,
          "name": "A#3",
          "ticks": 138144,
          "time": 126.22800074999999,
          "velocity": 0.41732283464566927
        },
        {
          "duration": 0.08771924999999214,
          "durationTicks": 96,
          "midi": 53,
          "name": "F3",
          "ticks": 138528,
          "time": 126.57887775,
          "velocity": 0.41732283464566927
        },
        {
          "duration": 0.08771924999999214,
          "durationTicks": 96,
          "midi": 58,
          "name": "A#3",
          "ticks": 138912,
          "time": 126.92975475,
          "velocity": 0.41732283464566927
        },
        {
          "duration": 0.08771925000000635,
          "durationTicks": 96,
          "midi": 60,
          "name": "C4",
          "ticks": 139296,
          "time": 127.28063175,
          "velocity": 0.41732283464566927
        },
        {
          "duration": 0.08771925000000635,
          "durationTicks": 96,
          "midi": 63,
          "name": "D#4",
          "ticks": 139488,
          "time": 127.45607025,
          "velocity": 0.41732283464566927
        },
        {
          "duration": 0.08771925000000635,
          "durationTicks": 96,
          "midi": 62,
          "name": "D4",
          "ticks": 139872,
          "time": 127.80694725,
          "velocity": 0.41732283464566927
        },
        {
          "duration": 0.08771924999999214,
          "durationTicks": 96,
          "midi": 63,
          "name": "D#4",
          "ticks": 140256,
          "time": 128.15782425,
          "velocity": 0.41732283464566927
        },
        {
          "duration": 0.08771924999999214,
          "durationTicks": 96,
          "midi": 62,
          "name": "D4",
          "ticks": 140352,
          "time": 128.2455435,
          "velocity": 0.41732283464566927
        },
        {
          "duration": 0.08771925000002057,
          "durationTicks": 96,
          "midi": 58,
          "name": "A#3",
          "ticks": 140832,
          "time": 128.68413974999999,
          "velocity": 0.41732283464566927
        },
        {
          "duration": 0.08771924999999214,
          "durationTicks": 96,
          "midi": 53,
          "name": "F3",
          "ticks": 141216,
          "time": 129.03501675,
          "velocity": 0.41732283464566927
        },
        {
          "duration": 0.08771924999999214,
          "durationTicks": 96,
          "midi": 65,
          "name": "F4",
          "ticks": 141600,
          "time": 129.38589375,
          "velocity": 0.41732283464566927
        },
        {
          "duration": 0.08771924999999214,
          "durationTicks": 96,
          "midi": 58,
          "name": "A#3",
          "ticks": 141984,
          "time": 129.73677075,
          "velocity": 0.41732283464566927
        },
        {
          "duration": 0.08771924999999214,
          "durationTicks": 96,
          "midi": 60,
          "name": "C4",
          "ticks": 142368,
          "time": 130.08764775,
          "velocity": 0.41732283464566927
        },
        {
          "duration": 0.08771924999999214,
          "durationTicks": 96,
          "midi": 58,
          "name": "A#3",
          "ticks": 142752,
          "time": 130.43852475,
          "velocity": 0.41732283464566927
        },
        {
          "duration": 0.08771924999999214,
          "durationTicks": 96,
          "midi": 53,
          "name": "F3",
          "ticks": 143136,
          "time": 130.78940175,
          "velocity": 0.41732283464566927
        },
        {
          "duration": 0.08771924999999214,
          "durationTicks": 96,
          "midi": 58,
          "name": "A#3",
          "ticks": 143328,
          "time": 130.96484025,
          "velocity": 0.41732283464566927
        },
        {
          "duration": 0.08771924999999214,
          "durationTicks": 96,
          "midi": 60,
          "name": "C4",
          "ticks": 143712,
          "time": 131.31571725,
          "velocity": 0.41732283464566927
        },
        {
          "duration": 0.08771924999999214,
          "durationTicks": 96,
          "midi": 62,
          "name": "D4",
          "ticks": 144096,
          "time": 131.66659425,
          "velocity": 0.41732283464566927
        },
        {
          "duration": 0.08771924999999214,
          "durationTicks": 96,
          "midi": 60,
          "name": "C4",
          "ticks": 144192,
          "time": 131.7543135,
          "velocity": 0.41732283464566927
        },
        {
          "duration": 0.08771925000002057,
          "durationTicks": 96,
          "midi": 58,
          "name": "A#3",
          "ticks": 144288,
          "time": 131.84203275,
          "velocity": 0.41732283464566927
        },
        {
          "duration": 0.08771925000002057,
          "durationTicks": 96,
          "midi": 65,
          "name": "F4",
          "ticks": 144672,
          "time": 132.19290974999998,
          "velocity": 0.41732283464566927
        },
        {
          "duration": 0.08771924999999214,
          "durationTicks": 96,
          "midi": 58,
          "name": "A#3",
          "ticks": 145056,
          "time": 132.54378675,
          "velocity": 0.41732283464566927
        },
        {
          "duration": 0.08771924999999214,
          "durationTicks": 96,
          "midi": 70,
          "name": "A#4",
          "ticks": 145440,
          "time": 132.89466375,
          "velocity": 0.41732283464566927
        },
        {
          "duration": 0.08771925000002057,
          "durationTicks": 96,
          "midi": 69,
          "name": "A4",
          "ticks": 145632,
          "time": 133.07010225,
          "velocity": 0.41732283464566927
        },
        {
          "duration": 0.08771925000002057,
          "durationTicks": 96,
          "midi": 65,
          "name": "F4",
          "ticks": 146016,
          "time": 133.42097925,
          "velocity": 0.41732283464566927
        },
        {
          "duration": 0.08771925000002057,
          "durationTicks": 96,
          "midi": 62,
          "name": "D4",
          "ticks": 146400,
          "time": 133.77185624999998,
          "velocity": 0.41732283464566927
        },
        {
          "duration": 0.08771924999999214,
          "durationTicks": 96,
          "midi": 60,
          "name": "C4",
          "ticks": 146592,
          "time": 133.94729475,
          "velocity": 0.41732283464566927
        },
        {
          "duration": 0.08771924999999214,
          "durationTicks": 96,
          "midi": 58,
          "name": "A#3",
          "ticks": 146784,
          "time": 134.12273325,
          "velocity": 0.41732283464566927
        },
        {
          "duration": 0.08771924999999214,
          "durationTicks": 96,
          "midi": 60,
          "name": "C4",
          "ticks": 147168,
          "time": 134.47361025,
          "velocity": 0.41732283464566927
        },
        {
          "duration": 0.08771924999999214,
          "durationTicks": 96,
          "midi": 58,
          "name": "A#3",
          "ticks": 147360,
          "time": 134.64904875,
          "velocity": 0.41732283464566927
        },
        {
          "duration": 0.08771924999999214,
          "durationTicks": 96,
          "midi": 53,
          "name": "F3",
          "ticks": 147552,
          "time": 134.82448725,
          "velocity": 0.41732283464566927
        },
        {
          "duration": 0.08771924999999214,
          "durationTicks": 96,
          "midi": 60,
          "name": "C4",
          "ticks": 153216,
          "time": 139.999923,
          "velocity": 0.41732283464566927
        },
        {
          "duration": 0.08771924999999214,
          "durationTicks": 96,
          "midi": 72,
          "name": "C5",
          "ticks": 153216,
          "time": 139.999923,
          "velocity": 0.41732283464566927
        },
        {
          "duration": 0.08771924999999214,
          "durationTicks": 96,
          "midi": 74,
          "name": "D5",
          "ticks": 153600,
          "time": 140.3508,
          "velocity": 0.41732283464566927
        },
        {
          "duration": 0.08771924999999214,
          "durationTicks": 96,
          "midi": 62,
          "name": "D4",
          "ticks": 153600,
          "time": 140.3508,
          "velocity": 0.41732283464566927
        },
        {
          "duration": 0.08771925000002057,
          "durationTicks": 96,
          "midi": 53,
          "name": "F3",
          "ticks": 153984,
          "time": 140.701677,
          "velocity": 0.41732283464566927
        },
        {
          "duration": 0.08771925000002057,
          "durationTicks": 96,
          "midi": 65,
          "name": "F4",
          "ticks": 153984,
          "time": 140.701677,
          "velocity": 0.41732283464566927
        },
        {
          "duration": 0.08771925000002057,
          "durationTicks": 96,
          "midi": 50,
          "name": "D3",
          "ticks": 158880,
          "time": 145.17535875,
          "velocity": 0.41732283464566927
        },
        {
          "duration": 0.08771925000002057,
          "durationTicks": 96,
          "midi": 48,
          "name": "C3",
          "ticks": 159264,
          "time": 145.52623574999998,
          "velocity": 0.41732283464566927
        },
        {
          "duration": 0.08771924999999214,
          "durationTicks": 96,
          "midi": 46,
          "name": "A#2",
          "ticks": 159648,
          "time": 145.87711275,
          "velocity": 0.41732283464566927
        },
        {
          "duration": 0.08771924999999214,
          "durationTicks": 96,
          "midi": 77,
          "name": "F5",
          "ticks": 160512,
          "time": 146.666586,
          "velocity": 0.41732283464566927
        },
        {
          "duration": 0.08771924999999214,
          "durationTicks": 96,
          "midi": 65,
          "name": "F4",
          "ticks": 160512,
          "time": 146.666586,
          "velocity": 0.41732283464566927
        },
        {
          "duration": 0.08771925000002057,
          "durationTicks": 96,
          "midi": 65,
          "name": "F4",
          "ticks": 160608,
          "time": 146.75430525,
          "velocity": 0.41732283464566927
        },
        {
          "duration": 0.08771925000002057,
          "durationTicks": 96,
          "midi": 77,
          "name": "F5",
          "ticks": 160608,
          "time": 146.75430525,
          "velocity": 0.41732283464566927
        },
        {
          "duration": 0.08771924999999214,
          "durationTicks": 96,
          "midi": 65,
          "name": "F4",
          "ticks": 160896,
          "time": 147.017463,
          "velocity": 0.41732283464566927
        },
        {
          "duration": 0.08771924999999214,
          "durationTicks": 96,
          "midi": 77,
          "name": "F5",
          "ticks": 160896,
          "time": 147.017463,
          "velocity": 0.41732283464566927
        },
        {
          "duration": 0.08771924999999214,
          "durationTicks": 96,
          "midi": 77,
          "name": "F5",
          "ticks": 161088,
          "time": 147.1929015,
          "velocity": 0.41732283464566927
        },
        {
          "duration": 0.08771924999999214,
          "durationTicks": 96,
          "midi": 65,
          "name": "F4",
          "ticks": 161088,
          "time": 147.1929015,
          "velocity": 0.41732283464566927
        },
        {
          "duration": 0.08771924999999214,
          "durationTicks": 96,
          "midi": 65,
          "name": "F4",
          "ticks": 161472,
          "time": 147.5437785,
          "velocity": 0.41732283464566927
        },
        {
          "duration": 0.08771924999999214,
          "durationTicks": 96,
          "midi": 77,
          "name": "F5",
          "ticks": 161472,
          "time": 147.5437785,
          "velocity": 0.41732283464566927
        },
        {
          "duration": 0.08771924999999214,
          "durationTicks": 96,
          "midi": 65,
          "name": "F4",
          "ticks": 161568,
          "time": 147.63149775,
          "velocity": 0.41732283464566927
        },
        {
          "duration": 0.08771924999999214,
          "durationTicks": 96,
          "midi": 77,
          "name": "F5",
          "ticks": 161568,
          "time": 147.63149775,
          "velocity": 0.41732283464566927
        },
        {
          "duration": 0.08771924999999214,
          "durationTicks": 96,
          "midi": 65,
          "name": "F4",
          "ticks": 161856,
          "time": 147.8946555,
          "velocity": 0.41732283464566927
        },
        {
          "duration": 0.08771924999999214,
          "durationTicks": 96,
          "midi": 77,
          "name": "F5",
          "ticks": 161856,
          "time": 147.8946555,
          "velocity": 0.41732283464566927
        },
        {
          "duration": 0.08771924999999214,
          "durationTicks": 96,
          "midi": 63,
          "name": "D#4",
          "ticks": 162048,
          "time": 148.070094,
          "velocity": 0.41732283464566927
        },
        {
          "duration": 0.08771924999999214,
          "durationTicks": 96,
          "midi": 75,
          "name": "D#5",
          "ticks": 162048,
          "time": 148.070094,
          "velocity": 0.41732283464566927
        },
        {
          "duration": 0.08771924999999214,
          "durationTicks": 96,
          "midi": 63,
          "name": "D#4",
          "ticks": 162144,
          "time": 148.15781325,
          "velocity": 0.41732283464566927
        },
        {
          "duration": 0.08771924999999214,
          "durationTicks": 96,
          "midi": 75,
          "name": "D#5",
          "ticks": 162144,
          "time": 148.15781325,
          "velocity": 0.41732283464566927
        },
        {
          "duration": 0.08771924999999214,
          "durationTicks": 96,
          "midi": 62,
          "name": "D4",
          "ticks": 162432,
          "time": 148.420971,
          "velocity": 0.41732283464566927
        },
        {
          "duration": 0.08771924999999214,
          "durationTicks": 96,
          "midi": 74,
          "name": "D5",
          "ticks": 162432,
          "time": 148.420971,
          "velocity": 0.41732283464566927
        },
        {
          "duration": 0.08771924999999214,
          "durationTicks": 96,
          "midi": 62,
          "name": "D4",
          "ticks": 162528,
          "time": 148.50869025,
          "velocity": 0.41732283464566927
        },
        {
          "duration": 0.08771924999999214,
          "durationTicks": 96,
          "midi": 74,
          "name": "D5",
          "ticks": 162528,
          "time": 148.50869025,
          "velocity": 0.41732283464566927
        },
        {
          "duration": 0.08771924999999214,
          "durationTicks": 96,
          "midi": 75,
          "name": "D#5",
          "ticks": 162816,
          "time": 148.771848,
          "velocity": 0.41732283464566927
        },
        {
          "duration": 0.08771924999999214,
          "durationTicks": 96,
          "midi": 63,
          "name": "D#4",
          "ticks": 162816,
          "time": 148.771848,
          "velocity": 0.41732283464566927
        },
        {
          "duration": 0.08771924999999214,
          "durationTicks": 96,
          "midi": 75,
          "name": "D#5",
          "ticks": 162912,
          "time": 148.85956725,
          "velocity": 0.41732283464566927
        },
        {
          "duration": 0.08771924999999214,
          "durationTicks": 96,
          "midi": 63,
          "name": "D#4",
          "ticks": 162912,
          "time": 148.85956725,
          "velocity": 0.41732283464566927
        },
        {
          "duration": 0.08771924999999214,
          "durationTicks": 96,
          "midi": 65,
          "name": "F4",
          "ticks": 163200,
          "time": 149.122725,
          "velocity": 0.41732283464566927
        },
        {
          "duration": 0.08771924999999214,
          "durationTicks": 96,
          "midi": 77,
          "name": "F5",
          "ticks": 163200,
          "time": 149.122725,
          "velocity": 0.41732283464566927
        },
        {
          "duration": 0.08771924999999214,
          "durationTicks": 96,
          "midi": 65,
          "name": "F4",
          "ticks": 163296,
          "time": 149.21044425,
          "velocity": 0.41732283464566927
        },
        {
          "duration": 0.08771924999999214,
          "durationTicks": 96,
          "midi": 77,
          "name": "F5",
          "ticks": 163296,
          "time": 149.21044425,
          "velocity": 0.41732283464566927
        },
        {
          "duration": 0.08771925000002057,
          "durationTicks": 96,
          "midi": 77,
          "name": "F5",
          "ticks": 163392,
          "time": 149.2981635,
          "velocity": 0.41732283464566927
        },
        {
          "duration": 0.08771925000002057,
          "durationTicks": 96,
          "midi": 65,
          "name": "F4",
          "ticks": 163392,
          "time": 149.2981635,
          "velocity": 0.41732283464566927
        },
        {
          "duration": 0.08771924999999214,
          "durationTicks": 96,
          "midi": 77,
          "name": "F5",
          "ticks": 163488,
          "time": 149.38588275,
          "velocity": 0.41732283464566927
        },
        {
          "duration": 0.08771924999999214,
          "durationTicks": 96,
          "midi": 65,
          "name": "F4",
          "ticks": 163488,
          "time": 149.38588275,
          "velocity": 0.41732283464566927
        },
        {
          "duration": 0.08771924999999214,
          "durationTicks": 96,
          "midi": 77,
          "name": "F5",
          "ticks": 163584,
          "time": 149.473602,
          "velocity": 0.41732283464566927
        },
        {
          "duration": 0.08771924999999214,
          "durationTicks": 96,
          "midi": 65,
          "name": "F4",
          "ticks": 163584,
          "time": 149.473602,
          "velocity": 0.41732283464566927
        },
        {
          "duration": 0.08771924999999214,
          "durationTicks": 96,
          "midi": 65,
          "name": "F4",
          "ticks": 163680,
          "time": 149.56132125,
          "velocity": 0.41732283464566927
        },
        {
          "duration": 0.08771924999999214,
          "durationTicks": 96,
          "midi": 77,
          "name": "F5",
          "ticks": 163680,
          "time": 149.56132125,
          "velocity": 0.41732283464566927
        },
        {
          "duration": 0.08771924999999214,
          "durationTicks": 96,
          "midi": 82,
          "name": "A#5",
          "ticks": 163968,
          "time": 149.824479,
          "velocity": 0.41732283464566927
        },
        {
          "duration": 0.08771924999999214,
          "durationTicks": 96,
          "midi": 70,
          "name": "A#4",
          "ticks": 163968,
          "time": 149.824479,
          "velocity": 0.41732283464566927
        },
        {
          "duration": 0.08771925000002057,
          "durationTicks": 96,
          "midi": 82,
          "name": "A#5",
          "ticks": 164064,
          "time": 149.91219825,
          "velocity": 0.41732283464566927
        },
        {
          "duration": 0.08771925000002057,
          "durationTicks": 96,
          "midi": 70,
          "name": "A#4",
          "ticks": 164064,
          "time": 149.91219825,
          "velocity": 0.41732283464566927
        },
        {
          "duration": 0.08771924999999214,
          "durationTicks": 96,
          "midi": 82,
          "name": "A#5",
          "ticks": 164160,
          "time": 149.9999175,
          "velocity": 0.41732283464566927
        },
        {
          "duration": 0.08771924999999214,
          "durationTicks": 96,
          "midi": 70,
          "name": "A#4",
          "ticks": 164160,
          "time": 149.9999175,
          "velocity": 0.41732283464566927
        },
        {
          "duration": 0.08771924999999214,
          "durationTicks": 96,
          "midi": 65,
          "name": "F4",
          "ticks": 164544,
          "time": 150.3507945,
          "velocity": 0.41732283464566927
        },
        {
          "duration": 0.08771924999999214,
          "durationTicks": 96,
          "midi": 77,
          "name": "F5",
          "ticks": 164544,
          "time": 150.3507945,
          "velocity": 0.41732283464566927
        },
        {
          "duration": 0.08771924999999214,
          "durationTicks": 96,
          "midi": 65,
          "name": "F4",
          "ticks": 164640,
          "time": 150.43851375,
          "velocity": 0.41732283464566927
        },
        {
          "duration": 0.08771924999999214,
          "durationTicks": 96,
          "midi": 77,
          "name": "F5",
          "ticks": 164640,
          "time": 150.43851375,
          "velocity": 0.41732283464566927
        },
        {
          "duration": 0.08771925000002057,
          "durationTicks": 96,
          "midi": 77,
          "name": "F5",
          "ticks": 164736,
          "time": 150.526233,
          "velocity": 0.41732283464566927
        },
        {
          "duration": 0.08771925000002057,
          "durationTicks": 96,
          "midi": 65,
          "name": "F4",
          "ticks": 164736,
          "time": 150.526233,
          "velocity": 0.41732283464566927
        },
        {
          "duration": 0.08771924999999214,
          "durationTicks": 96,
          "midi": 77,
          "name": "F5",
          "ticks": 164832,
          "time": 150.61395225,
          "velocity": 0.41732283464566927
        },
        {
          "duration": 0.08771924999999214,
          "durationTicks": 96,
          "midi": 65,
          "name": "F4",
          "ticks": 164832,
          "time": 150.61395225,
          "velocity": 0.41732283464566927
        },
        {
          "duration": 0.08771924999999214,
          "durationTicks": 96,
          "midi": 65,
          "name": "F4",
          "ticks": 164928,
          "time": 150.7016715,
          "velocity": 0.41732283464566927
        },
        {
          "duration": 0.08771924999999214,
          "durationTicks": 96,
          "midi": 77,
          "name": "F5",
          "ticks": 164928,
          "time": 150.7016715,
          "velocity": 0.41732283464566927
        },
        {
          "duration": 0.08771924999999214,
          "durationTicks": 96,
          "midi": 65,
          "name": "F4",
          "ticks": 165024,
          "time": 150.78939075,
          "velocity": 0.41732283464566927
        },
        {
          "duration": 0.08771924999999214,
          "durationTicks": 96,
          "midi": 77,
          "name": "F5",
          "ticks": 165024,
          "time": 150.78939075,
          "velocity": 0.41732283464566927
        },
        {
          "duration": 0.08771925000002057,
          "durationTicks": 96,
          "midi": 77,
          "name": "F5",
          "ticks": 165120,
          "time": 150.87711,
          "velocity": 0.41732283464566927
        },
        {
          "duration": 0.08771925000002057,
          "durationTicks": 96,
          "midi": 65,
          "name": "F4",
          "ticks": 165120,
          "time": 150.87711,
          "velocity": 0.41732283464566927
        },
        {
          "duration": 0.08771924999999214,
          "durationTicks": 96,
          "midi": 65,
          "name": "F4",
          "ticks": 165216,
          "time": 150.96482925,
          "velocity": 0.41732283464566927
        },
        {
          "duration": 0.08771924999999214,
          "durationTicks": 96,
          "midi": 77,
          "name": "F5",
          "ticks": 165216,
          "time": 150.96482925,
          "velocity": 0.41732283464566927
        },
        {
          "duration": 0.08771924999999214,
          "durationTicks": 96,
          "midi": 65,
          "name": "F4",
          "ticks": 165312,
          "time": 151.0525485,
          "velocity": 0.41732283464566927
        },
        {
          "duration": 0.08771924999999214,
          "durationTicks": 96,
          "midi": 77,
          "name": "F5",
          "ticks": 165312,
          "time": 151.0525485,
          "velocity": 0.41732283464566927
        },
        {
          "duration": 0.08771924999999214,
          "durationTicks": 96,
          "midi": 77,
          "name": "F5",
          "ticks": 165408,
          "time": 151.14026775,
          "velocity": 0.41732283464566927
        },
        {
          "duration": 0.08771924999999214,
          "durationTicks": 96,
          "midi": 65,
          "name": "F4",
          "ticks": 165408,
          "time": 151.14026775,
          "velocity": 0.41732283464566927
        },
        {
          "duration": 0.08771925000002057,
          "durationTicks": 96,
          "midi": 60,
          "name": "C4",
          "ticks": 165504,
          "time": 151.22798699999998,
          "velocity": 0.41732283464566927
        },
        {
          "duration": 0.08771925000002057,
          "durationTicks": 96,
          "midi": 72,
          "name": "C5",
          "ticks": 165504,
          "time": 151.22798699999998,
          "velocity": 0.41732283464566927
        },
        {
          "duration": 0.08771924999999214,
          "durationTicks": 96,
          "midi": 74,
          "name": "D5",
          "ticks": 165888,
          "time": 151.578864,
          "velocity": 0.41732283464566927
        },
        {
          "duration": 0.08771924999999214,
          "durationTicks": 96,
          "midi": 62,
          "name": "D4",
          "ticks": 165888,
          "time": 151.578864,
          "velocity": 0.41732283464566927
        },
        {
          "duration": 0.08771924999999214,
          "durationTicks": 96,
          "midi": 53,
          "name": "F3",
          "ticks": 166272,
          "time": 151.929741,
          "velocity": 0.41732283464566927
        },
        {
          "duration": 0.08771924999999214,
          "durationTicks": 96,
          "midi": 65,
          "name": "F4",
          "ticks": 166272,
          "time": 151.929741,
          "velocity": 0.41732283464566927
        },
        {
          "duration": 0.08771924999999214,
          "durationTicks": 96,
          "midi": 77,
          "name": "F5",
          "ticks": 166656,
          "time": 152.280618,
          "velocity": 0.41732283464566927
        },
        {
          "duration": 0.08771924999999214,
          "durationTicks": 96,
          "midi": 65,
          "name": "F4",
          "ticks": 166656,
          "time": 152.280618,
          "velocity": 0.41732283464566927
        },
        {
          "duration": 0.08771924999999214,
          "durationTicks": 96,
          "midi": 65,
          "name": "F4",
          "ticks": 166752,
          "time": 152.36833725,
          "velocity": 0.41732283464566927
        },
        {
          "duration": 0.08771924999999214,
          "durationTicks": 96,
          "midi": 77,
          "name": "F5",
          "ticks": 166752,
          "time": 152.36833725,
          "velocity": 0.41732283464566927
        },
        {
          "duration": 0.08771924999999214,
          "durationTicks": 96,
          "midi": 65,
          "name": "F4",
          "ticks": 167040,
          "time": 152.631495,
          "velocity": 0.41732283464566927
        },
        {
          "duration": 0.08771924999999214,
          "durationTicks": 96,
          "midi": 77,
          "name": "F5",
          "ticks": 167040,
          "time": 152.631495,
          "velocity": 0.41732283464566927
        },
        {
          "duration": 0.08771925000002057,
          "durationTicks": 96,
          "midi": 65,
          "name": "F4",
          "ticks": 167232,
          "time": 152.80693349999999,
          "velocity": 0.41732283464566927
        },
        {
          "duration": 0.08771925000002057,
          "durationTicks": 96,
          "midi": 77,
          "name": "F5",
          "ticks": 167232,
          "time": 152.80693349999999,
          "velocity": 0.41732283464566927
        },
        {
          "duration": 0.08771924999999214,
          "durationTicks": 96,
          "midi": 77,
          "name": "F5",
          "ticks": 167616,
          "time": 153.1578105,
          "velocity": 0.41732283464566927
        },
        {
          "duration": 0.08771924999999214,
          "durationTicks": 96,
          "midi": 65,
          "name": "F4",
          "ticks": 167616,
          "time": 153.1578105,
          "velocity": 0.41732283464566927
        },
        {
          "duration": 0.08771924999999214,
          "durationTicks": 96,
          "midi": 77,
          "name": "F5",
          "ticks": 167712,
          "time": 153.24552975,
          "velocity": 0.41732283464566927
        },
        {
          "duration": 0.08771924999999214,
          "durationTicks": 96,
          "midi": 65,
          "name": "F4",
          "ticks": 167712,
          "time": 153.24552975,
          "velocity": 0.41732283464566927
        },
        {
          "duration": 0.08771924999999214,
          "durationTicks": 96,
          "midi": 65,
          "name": "F4",
          "ticks": 168000,
          "time": 153.5086875,
          "velocity": 0.41732283464566927
        },
        {
          "duration": 0.08771924999999214,
          "durationTicks": 96,
          "midi": 77,
          "name": "F5",
          "ticks": 168000,
          "time": 153.5086875,
          "velocity": 0.41732283464566927
        },
        {
          "duration": 0.08771924999999214,
          "durationTicks": 96,
          "midi": 75,
          "name": "D#5",
          "ticks": 168192,
          "time": 153.684126,
          "velocity": 0.41732283464566927
        },
        {
          "duration": 0.08771924999999214,
          "durationTicks": 96,
          "midi": 63,
          "name": "D#4",
          "ticks": 168192,
          "time": 153.684126,
          "velocity": 0.41732283464566927
        },
        {
          "duration": 0.08771925000002057,
          "durationTicks": 96,
          "midi": 63,
          "name": "D#4",
          "ticks": 168288,
          "time": 153.77184524999998,
          "velocity": 0.41732283464566927
        },
        {
          "duration": 0.08771925000002057,
          "durationTicks": 96,
          "midi": 75,
          "name": "D#5",
          "ticks": 168288,
          "time": 153.77184524999998,
          "velocity": 0.41732283464566927
        },
        {
          "duration": 0.08771925000002057,
          "durationTicks": 96,
          "midi": 62,
          "name": "D4",
          "ticks": 168576,
          "time": 154.035003,
          "velocity": 0.41732283464566927
        },
        {
          "duration": 0.08771925000002057,
          "durationTicks": 96,
          "midi": 74,
          "name": "D5",
          "ticks": 168576,
          "time": 154.035003,
          "velocity": 0.41732283464566927
        },
        {
          "duration": 0.08771924999999214,
          "durationTicks": 96,
          "midi": 74,
          "name": "D5",
          "ticks": 168672,
          "time": 154.12272225,
          "velocity": 0.41732283464566927
        },
        {
          "duration": 0.08771924999999214,
          "durationTicks": 96,
          "midi": 62,
          "name": "D4",
          "ticks": 168672,
          "time": 154.12272225,
          "velocity": 0.41732283464566927
        },
        {
          "duration": 0.08771925000002057,
          "durationTicks": 96,
          "midi": 75,
          "name": "D#5",
          "ticks": 168960,
          "time": 154.38588,
          "velocity": 0.41732283464566927
        },
        {
          "duration": 0.08771925000002057,
          "durationTicks": 96,
          "midi": 63,
          "name": "D#4",
          "ticks": 168960,
          "time": 154.38588,
          "velocity": 0.41732283464566927
        },
        {
          "duration": 0.08771924999999214,
          "durationTicks": 96,
          "midi": 75,
          "name": "D#5",
          "ticks": 169056,
          "time": 154.47359925,
          "velocity": 0.41732283464566927
        },
        {
          "duration": 0.08771924999999214,
          "durationTicks": 96,
          "midi": 63,
          "name": "D#4",
          "ticks": 169056,
          "time": 154.47359925,
          "velocity": 0.41732283464566927
        },
        {
          "duration": 0.08771924999999214,
          "durationTicks": 96,
          "midi": 65,
          "name": "F4",
          "ticks": 169344,
          "time": 154.736757,
          "velocity": 0.41732283464566927
        },
        {
          "duration": 0.08771924999999214,
          "durationTicks": 96,
          "midi": 77,
          "name": "F5",
          "ticks": 169344,
          "time": 154.736757,
          "velocity": 0.41732283464566927
        },
        {
          "duration": 0.08771924999999214,
          "durationTicks": 96,
          "midi": 77,
          "name": "F5",
          "ticks": 169440,
          "time": 154.82447625,
          "velocity": 0.41732283464566927
        },
        {
          "duration": 0.08771924999999214,
          "durationTicks": 96,
          "midi": 65,
          "name": "F4",
          "ticks": 169440,
          "time": 154.82447625,
          "velocity": 0.41732283464566927
        },
        {
          "duration": 0.08771924999999214,
          "durationTicks": 96,
          "midi": 62,
          "name": "D4",
          "ticks": 169728,
          "time": 155.087634,
          "velocity": 0.41732283464566927
        },
        {
          "duration": 0.08771924999999214,
          "durationTicks": 96,
          "midi": 70,
          "name": "A#4",
          "ticks": 169728,
          "time": 155.087634,
          "velocity": 0.41732283464566927
        },
        {
          "duration": 0.08771924999999214,
          "durationTicks": 96,
          "midi": 82,
          "name": "A#5",
          "ticks": 169728,
          "time": 155.087634,
          "velocity": 0.41732283464566927
        },
        {
          "duration": 0.08771924999999214,
          "durationTicks": 96,
          "midi": 82,
          "name": "A#5",
          "ticks": 169824,
          "time": 155.17535325,
          "velocity": 0.41732283464566927
        },
        {
          "duration": 0.08771924999999214,
          "durationTicks": 96,
          "midi": 70,
          "name": "A#4",
          "ticks": 169824,
          "time": 155.17535325,
          "velocity": 0.41732283464566927
        },
        {
          "duration": 0.08771924999999214,
          "durationTicks": 96,
          "midi": 62,
          "name": "D4",
          "ticks": 169824,
          "time": 155.17535325,
          "velocity": 0.41732283464566927
        },
        {
          "duration": 0.08771924999999214,
          "durationTicks": 96,
          "midi": 60,
          "name": "C4",
          "ticks": 170112,
          "time": 155.438511,
          "velocity": 0.41732283464566927
        },
        {
          "duration": 0.08771924999999214,
          "durationTicks": 96,
          "midi": 81,
          "name": "A5",
          "ticks": 170112,
          "time": 155.438511,
          "velocity": 0.41732283464566927
        },
        {
          "duration": 0.08771924999999214,
          "durationTicks": 96,
          "midi": 69,
          "name": "A4",
          "ticks": 170112,
          "time": 155.438511,
          "velocity": 0.41732283464566927
        },
        {
          "duration": 0.08771924999999214,
          "durationTicks": 96,
          "midi": 69,
          "name": "A4",
          "ticks": 170208,
          "time": 155.52623025,
          "velocity": 0.41732283464566927
        },
        {
          "duration": 0.08771924999999214,
          "durationTicks": 96,
          "midi": 81,
          "name": "A5",
          "ticks": 170208,
          "time": 155.52623025,
          "velocity": 0.41732283464566927
        },
        {
          "duration": 0.08771924999999214,
          "durationTicks": 96,
          "midi": 60,
          "name": "C4",
          "ticks": 170208,
          "time": 155.52623025,
          "velocity": 0.41732283464566927
        },
        {
          "duration": 0.08771924999999214,
          "durationTicks": 96,
          "midi": 58,
          "name": "A#3",
          "ticks": 170496,
          "time": 155.789388,
          "velocity": 0.41732283464566927
        },
        {
          "duration": 0.08771924999999214,
          "durationTicks": 96,
          "midi": 82,
          "name": "A#5",
          "ticks": 170496,
          "time": 155.789388,
          "velocity": 0.41732283464566927
        },
        {
          "duration": 0.08771924999999214,
          "durationTicks": 96,
          "midi": 70,
          "name": "A#4",
          "ticks": 170496,
          "time": 155.789388,
          "velocity": 0.41732283464566927
        },
        {
          "duration": 0.08771924999999214,
          "durationTicks": 96,
          "midi": 70,
          "name": "A#4",
          "ticks": 170592,
          "time": 155.87710725,
          "velocity": 0.41732283464566927
        },
        {
          "duration": 0.08771924999999214,
          "durationTicks": 96,
          "midi": 58,
          "name": "A#3",
          "ticks": 170592,
          "time": 155.87710725,
          "velocity": 0.41732283464566927
        },
        {
          "duration": 0.08771924999999214,
          "durationTicks": 96,
          "midi": 82,
          "name": "A#5",
          "ticks": 170592,
          "time": 155.87710725,
          "velocity": 0.41732283464566927
        },
        {
          "duration": 0.08771925000002057,
          "durationTicks": 96,
          "midi": 70,
          "name": "A#4",
          "ticks": 170688,
          "time": 155.9648265,
          "velocity": 0.41732283464566927
        },
        {
          "duration": 0.08771925000002057,
          "durationTicks": 96,
          "midi": 82,
          "name": "A#5",
          "ticks": 170688,
          "time": 155.9648265,
          "velocity": 0.41732283464566927
        },
        {
          "duration": 0.08771925000002057,
          "durationTicks": 96,
          "midi": 58,
          "name": "A#3",
          "ticks": 170688,
          "time": 155.9648265,
          "velocity": 0.41732283464566927
        },
        {
          "duration": 0.08771924999999214,
          "durationTicks": 96,
          "midi": 82,
          "name": "A#5",
          "ticks": 170784,
          "time": 156.05254575,
          "velocity": 0.41732283464566927
        },
        {
          "duration": 0.08771924999999214,
          "durationTicks": 96,
          "midi": 58,
          "name": "A#3",
          "ticks": 170784,
          "time": 156.05254575,
          "velocity": 0.41732283464566927
        },
        {
          "duration": 0.08771924999999214,
          "durationTicks": 96,
          "midi": 70,
          "name": "A#4",
          "ticks": 170784,
          "time": 156.05254575,
          "velocity": 0.41732283464566927
        },
        {
          "duration": 0.08771924999999214,
          "durationTicks": 96,
          "midi": 58,
          "name": "A#3",
          "ticks": 170880,
          "time": 156.140265,
          "velocity": 0.41732283464566927
        },
        {
          "duration": 0.08771924999999214,
          "durationTicks": 96,
          "midi": 70,
          "name": "A#4",
          "ticks": 170880,
          "time": 156.140265,
          "velocity": 0.41732283464566927
        },
        {
          "duration": 0.08771924999999214,
          "durationTicks": 96,
          "midi": 82,
          "name": "A#5",
          "ticks": 170880,
          "time": 156.140265,
          "velocity": 0.41732283464566927
        },
        {
          "duration": 0.08771924999999214,
          "durationTicks": 96,
          "midi": 70,
          "name": "A#4",
          "ticks": 170976,
          "time": 156.22798425,
          "velocity": 0.41732283464566927
        },
        {
          "duration": 0.08771924999999214,
          "durationTicks": 96,
          "midi": 82,
          "name": "A#5",
          "ticks": 170976,
          "time": 156.22798425,
          "velocity": 0.41732283464566927
        },
        {
          "duration": 0.08771924999999214,
          "durationTicks": 96,
          "midi": 58,
          "name": "A#3",
          "ticks": 170976,
          "time": 156.22798425,
          "velocity": 0.41732283464566927
        },
        {
          "duration": 0.08771925000002057,
          "durationTicks": 96,
          "midi": 70,
          "name": "A#4",
          "ticks": 171072,
          "time": 156.31570349999998,
          "velocity": 0.41732283464566927
        },
        {
          "duration": 0.08771925000002057,
          "durationTicks": 96,
          "midi": 82,
          "name": "A#5",
          "ticks": 171072,
          "time": 156.31570349999998,
          "velocity": 0.41732283464566927
        },
        {
          "duration": 0.08771924999999214,
          "durationTicks": 96,
          "midi": 70,
          "name": "A#4",
          "ticks": 171168,
          "time": 156.40342275,
          "velocity": 0.41732283464566927
        },
        {
          "duration": 0.08771924999999214,
          "durationTicks": 96,
          "midi": 82,
          "name": "A#5",
          "ticks": 171168,
          "time": 156.40342275,
          "velocity": 0.41732283464566927
        },
        {
          "duration": 0.08771924999999214,
          "durationTicks": 96,
          "midi": 50,
          "name": "D3",
          "ticks": 171264,
          "time": 156.491142,
          "velocity": 0.41732283464566927
        },
        {
          "duration": 0.08771924999999214,
          "durationTicks": 96,
          "midi": 70,
          "name": "A#4",
          "ticks": 171264,
          "time": 156.491142,
          "velocity": 0.41732283464566927
        },
        {
          "duration": 0.08771924999999214,
          "durationTicks": 96,
          "midi": 82,
          "name": "A#5",
          "ticks": 171264,
          "time": 156.491142,
          "velocity": 0.41732283464566927
        },
        {
          "duration": 0.08771925000002057,
          "durationTicks": 96,
          "midi": 82,
          "name": "A#5",
          "ticks": 171360,
          "time": 156.57886125,
          "velocity": 0.41732283464566927
        },
        {
          "duration": 0.08771925000002057,
          "durationTicks": 96,
          "midi": 70,
          "name": "A#4",
          "ticks": 171360,
          "time": 156.57886125,
          "velocity": 0.41732283464566927
        },
        {
          "duration": 0.08771925000002057,
          "durationTicks": 96,
          "midi": 50,
          "name": "D3",
          "ticks": 171360,
          "time": 156.57886125,
          "velocity": 0.41732283464566927
        },
        {
          "duration": 0.08771924999999214,
          "durationTicks": 96,
          "midi": 48,
          "name": "C3",
          "ticks": 171648,
          "time": 156.842019,
          "velocity": 0.41732283464566927
        },
        {
          "duration": 0.08771925000002057,
          "durationTicks": 96,
          "midi": 48,
          "name": "C3",
          "ticks": 171744,
          "time": 156.92973824999999,
          "velocity": 0.41732283464566927
        },
        {
          "duration": 0.08771925000002057,
          "durationTicks": 96,
          "midi": 46,
          "name": "A#2",
          "ticks": 172032,
          "time": 157.192896,
          "velocity": 0.41732283464566927
        },
        {
          "duration": 0.08771924999999214,
          "durationTicks": 96,
          "midi": 46,
          "name": "A#2",
          "ticks": 172128,
          "time": 157.28061525,
          "velocity": 0.41732283464566927
        },
        {
          "duration": 0.08771925000002057,
          "durationTicks": 96,
          "midi": 77,
          "name": "F5",
          "ticks": 172800,
          "time": 157.89464999999998,
          "velocity": 0.41732283464566927
        },
        {
          "duration": 0.08771925000002057,
          "durationTicks": 96,
          "midi": 65,
          "name": "F4",
          "ticks": 172800,
          "time": 157.89464999999998,
          "velocity": 0.41732283464566927
        },
        {
          "duration": 0.08771924999999214,
          "durationTicks": 96,
          "midi": 65,
          "name": "F4",
          "ticks": 172896,
          "time": 157.98236925,
          "velocity": 0.41732283464566927
        },
        {
          "duration": 0.08771924999999214,
          "durationTicks": 96,
          "midi": 77,
          "name": "F5",
          "ticks": 172896,
          "time": 157.98236925,
          "velocity": 0.41732283464566927
        },
        {
          "duration": 0.08771924999999214,
          "durationTicks": 96,
          "midi": 65,
          "name": "F4",
          "ticks": 173184,
          "time": 158.245527,
          "velocity": 0.41732283464566927
        },
        {
          "duration": 0.08771924999999214,
          "durationTicks": 96,
          "midi": 77,
          "name": "F5",
          "ticks": 173184,
          "time": 158.245527,
          "velocity": 0.41732283464566927
        },
        {
          "duration": 0.08771924999999214,
          "durationTicks": 96,
          "midi": 77,
          "name": "F5",
          "ticks": 173376,
          "time": 158.4209655,
          "velocity": 0.41732283464566927
        },
        {
          "duration": 0.08771924999999214,
          "durationTicks": 96,
          "midi": 65,
          "name": "F4",
          "ticks": 173376,
          "time": 158.4209655,
          "velocity": 0.41732283464566927
        },
        {
          "duration": 0.08771925000002057,
          "durationTicks": 96,
          "midi": 65,
          "name": "F4",
          "ticks": 173760,
          "time": 158.7718425,
          "velocity": 0.41732283464566927
        },
        {
          "duration": 0.08771925000002057,
          "durationTicks": 96,
          "midi": 77,
          "name": "F5",
          "ticks": 173760,
          "time": 158.7718425,
          "velocity": 0.41732283464566927
        },
        {
          "duration": 0.08771924999999214,
          "durationTicks": 96,
          "midi": 77,
          "name": "F5",
          "ticks": 173856,
          "time": 158.85956175,
          "velocity": 0.41732283464566927
        },
        {
          "duration": 0.08771924999999214,
          "durationTicks": 96,
          "midi": 65,
          "name": "F4",
          "ticks": 173856,
          "time": 158.85956175,
          "velocity": 0.41732283464566927
        },
        {
          "duration": 0.08771925000002057,
          "durationTicks": 96,
          "midi": 77,
          "name": "F5",
          "ticks": 174144,
          "time": 159.1227195,
          "velocity": 0.41732283464566927
        },
        {
          "duration": 0.08771925000002057,
          "durationTicks": 96,
          "midi": 65,
          "name": "F4",
          "ticks": 174144,
          "time": 159.1227195,
          "velocity": 0.41732283464566927
        },
        {
          "duration": 0.08771924999999214,
          "durationTicks": 96,
          "midi": 63,
          "name": "D#4",
          "ticks": 174336,
          "time": 159.298158,
          "velocity": 0.41732283464566927
        },
        {
          "duration": 0.08771924999999214,
          "durationTicks": 96,
          "midi": 75,
          "name": "D#5",
          "ticks": 174336,
          "time": 159.298158,
          "velocity": 0.41732283464566927
        },
        {
          "duration": 0.08771924999999214,
          "durationTicks": 96,
          "midi": 63,
          "name": "D#4",
          "ticks": 174432,
          "time": 159.38587725,
          "velocity": 0.41732283464566927
        },
        {
          "duration": 0.08771924999999214,
          "durationTicks": 96,
          "midi": 75,
          "name": "D#5",
          "ticks": 174432,
          "time": 159.38587725,
          "velocity": 0.41732283464566927
        },
        {
          "duration": 0.08771924999999214,
          "durationTicks": 96,
          "midi": 62,
          "name": "D4",
          "ticks": 174720,
          "time": 159.649035,
          "velocity": 0.41732283464566927
        },
        {
          "duration": 0.08771924999999214,
          "durationTicks": 96,
          "midi": 74,
          "name": "D5",
          "ticks": 174720,
          "time": 159.649035,
          "velocity": 0.41732283464566927
        },
        {
          "duration": 0.08771925000002057,
          "durationTicks": 96,
          "midi": 62,
          "name": "D4",
          "ticks": 174816,
          "time": 159.73675425,
          "velocity": 0.41732283464566927
        },
        {
          "duration": 0.08771925000002057,
          "durationTicks": 96,
          "midi": 74,
          "name": "D5",
          "ticks": 174816,
          "time": 159.73675425,
          "velocity": 0.41732283464566927
        },
        {
          "duration": 0.08771924999999214,
          "durationTicks": 96,
          "midi": 75,
          "name": "D#5",
          "ticks": 175104,
          "time": 159.999912,
          "velocity": 0.41732283464566927
        },
        {
          "duration": 0.08771924999999214,
          "durationTicks": 96,
          "midi": 63,
          "name": "D#4",
          "ticks": 175104,
          "time": 159.999912,
          "velocity": 0.41732283464566927
        },
        {
          "duration": 0.08771925000002057,
          "durationTicks": 96,
          "midi": 75,
          "name": "D#5",
          "ticks": 175200,
          "time": 160.08763125,
          "velocity": 0.41732283464566927
        },
        {
          "duration": 0.08771925000002057,
          "durationTicks": 96,
          "midi": 63,
          "name": "D#4",
          "ticks": 175200,
          "time": 160.08763125,
          "velocity": 0.41732283464566927
        },
        {
          "duration": 0.08771924999999214,
          "durationTicks": 96,
          "midi": 65,
          "name": "F4",
          "ticks": 175488,
          "time": 160.350789,
          "velocity": 0.41732283464566927
        },
        {
          "duration": 0.08771924999999214,
          "durationTicks": 96,
          "midi": 77,
          "name": "F5",
          "ticks": 175488,
          "time": 160.350789,
          "velocity": 0.41732283464566927
        },
        {
          "duration": 0.08771925000002057,
          "durationTicks": 96,
          "midi": 77,
          "name": "F5",
          "ticks": 175584,
          "time": 160.43850824999998,
          "velocity": 0.41732283464566927
        },
        {
          "duration": 0.08771925000002057,
          "durationTicks": 96,
          "midi": 65,
          "name": "F4",
          "ticks": 175584,
          "time": 160.43850824999998,
          "velocity": 0.41732283464566927
        },
        {
          "duration": 0.08771924999999214,
          "durationTicks": 96,
          "midi": 77,
          "name": "F5",
          "ticks": 175680,
          "time": 160.5262275,
          "velocity": 0.41732283464566927
        },
        {
          "duration": 0.08771924999999214,
          "durationTicks": 96,
          "midi": 65,
          "name": "F4",
          "ticks": 175680,
          "time": 160.5262275,
          "velocity": 0.41732283464566927
        },
        {
          "duration": 0.08771924999999214,
          "durationTicks": 96,
          "midi": 77,
          "name": "F5",
          "ticks": 175776,
          "time": 160.61394675,
          "velocity": 0.41732283464566927
        },
        {
          "duration": 0.08771924999999214,
          "durationTicks": 96,
          "midi": 65,
          "name": "F4",
          "ticks": 175776,
          "time": 160.61394675,
          "velocity": 0.41732283464566927
        },
        {
          "duration": 0.08771925000002057,
          "durationTicks": 96,
          "midi": 77,
          "name": "F5",
          "ticks": 175872,
          "time": 160.701666,
          "velocity": 0.41732283464566927
        },
        {
          "duration": 0.08771925000002057,
          "durationTicks": 96,
          "midi": 65,
          "name": "F4",
          "ticks": 175872,
          "time": 160.701666,
          "velocity": 0.41732283464566927
        },
        {
          "duration": 0.08771924999999214,
          "durationTicks": 96,
          "midi": 65,
          "name": "F4",
          "ticks": 175968,
          "time": 160.78938525,
          "velocity": 0.41732283464566927
        },
        {
          "duration": 0.08771924999999214,
          "durationTicks": 96,
          "midi": 77,
          "name": "F5",
          "ticks": 175968,
          "time": 160.78938525,
          "velocity": 0.41732283464566927
        },
        {
          "duration": 0.08771925000002057,
          "durationTicks": 96,
          "midi": 70,
          "name": "A#4",
          "ticks": 176256,
          "time": 161.052543,
          "velocity": 0.41732283464566927
        },
        {
          "duration": 0.08771925000002057,
          "durationTicks": 96,
          "midi": 82,
          "name": "A#5",
          "ticks": 176256,
          "time": 161.052543,
          "velocity": 0.41732283464566927
        },
        {
          "duration": 0.08771924999999214,
          "durationTicks": 96,
          "midi": 82,
          "name": "A#5",
          "ticks": 176352,
          "time": 161.14026225,
          "velocity": 0.41732283464566927
        },
        {
          "duration": 0.08771924999999214,
          "durationTicks": 96,
          "midi": 70,
          "name": "A#4",
          "ticks": 176352,
          "time": 161.14026225,
          "velocity": 0.41732283464566927
        },
        {
          "duration": 0.08771924999999214,
          "durationTicks": 96,
          "midi": 70,
          "name": "A#4",
          "ticks": 176448,
          "time": 161.2279815,
          "velocity": 0.41732283464566927
        },
        {
          "duration": 0.08771924999999214,
          "durationTicks": 96,
          "midi": 82,
          "name": "A#5",
          "ticks": 176448,
          "time": 161.2279815,
          "velocity": 0.41732283464566927
        },
        {
          "duration": 0.08771924999999214,
          "durationTicks": 96,
          "midi": 65,
          "name": "F4",
          "ticks": 176832,
          "time": 161.5788585,
          "velocity": 0.41732283464566927
        },
        {
          "duration": 0.08771924999999214,
          "durationTicks": 96,
          "midi": 77,
          "name": "F5",
          "ticks": 176832,
          "time": 161.5788585,
          "velocity": 0.41732283464566927
        },
        {
          "duration": 0.08771925000002057,
          "durationTicks": 96,
          "midi": 77,
          "name": "F5",
          "ticks": 176928,
          "time": 161.66657775,
          "velocity": 0.41732283464566927
        },
        {
          "duration": 0.08771925000002057,
          "durationTicks": 96,
          "midi": 65,
          "name": "F4",
          "ticks": 176928,
          "time": 161.66657775,
          "velocity": 0.41732283464566927
        },
        {
          "duration": 0.08771924999999214,
          "durationTicks": 96,
          "midi": 65,
          "name": "F4",
          "ticks": 177024,
          "time": 161.754297,
          "velocity": 0.41732283464566927
        },
        {
          "duration": 0.08771924999999214,
          "durationTicks": 96,
          "midi": 77,
          "name": "F5",
          "ticks": 177024,
          "time": 161.754297,
          "velocity": 0.41732283464566927
        },
        {
          "duration": 0.08771924999999214,
          "durationTicks": 96,
          "midi": 77,
          "name": "F5",
          "ticks": 177120,
          "time": 161.84201625,
          "velocity": 0.41732283464566927
        },
        {
          "duration": 0.08771924999999214,
          "durationTicks": 96,
          "midi": 65,
          "name": "F4",
          "ticks": 177120,
          "time": 161.84201625,
          "velocity": 0.41732283464566927
        },
        {
          "duration": 0.08771924999999214,
          "durationTicks": 96,
          "midi": 65,
          "name": "F4",
          "ticks": 177216,
          "time": 161.9297355,
          "velocity": 0.41732283464566927
        },
        {
          "duration": 0.08771924999999214,
          "durationTicks": 96,
          "midi": 77,
          "name": "F5",
          "ticks": 177216,
          "time": 161.9297355,
          "velocity": 0.41732283464566927
        },
        {
          "duration": 0.08771925000002057,
          "durationTicks": 96,
          "midi": 65,
          "name": "F4",
          "ticks": 177312,
          "time": 162.01745474999998,
          "velocity": 0.41732283464566927
        },
        {
          "duration": 0.08771925000002057,
          "durationTicks": 96,
          "midi": 77,
          "name": "F5",
          "ticks": 177312,
          "time": 162.01745474999998,
          "velocity": 0.41732283464566927
        },
        {
          "duration": 0.08771924999999214,
          "durationTicks": 96,
          "midi": 65,
          "name": "F4",
          "ticks": 177408,
          "time": 162.105174,
          "velocity": 0.41732283464566927
        },
        {
          "duration": 0.08771924999999214,
          "durationTicks": 96,
          "midi": 77,
          "name": "F5",
          "ticks": 177408,
          "time": 162.105174,
          "velocity": 0.41732283464566927
        },
        {
          "duration": 0.08771924999999214,
          "durationTicks": 96,
          "midi": 65,
          "name": "F4",
          "ticks": 177504,
          "time": 162.19289325,
          "velocity": 0.41732283464566927
        },
        {
          "duration": 0.08771924999999214,
          "durationTicks": 96,
          "midi": 77,
          "name": "F5",
          "ticks": 177504,
          "time": 162.19289325,
          "velocity": 0.41732283464566927
        },
        {
          "duration": 0.08771925000002057,
          "durationTicks": 96,
          "midi": 77,
          "name": "F5",
          "ticks": 177600,
          "time": 162.2806125,
          "velocity": 0.41732283464566927
        },
        {
          "duration": 0.08771925000002057,
          "durationTicks": 96,
          "midi": 65,
          "name": "F4",
          "ticks": 177600,
          "time": 162.2806125,
          "velocity": 0.41732283464566927
        },
        {
          "duration": 0.08771924999999214,
          "durationTicks": 96,
          "midi": 77,
          "name": "F5",
          "ticks": 177696,
          "time": 162.36833175,
          "velocity": 0.41732283464566927
        },
        {
          "duration": 0.08771924999999214,
          "durationTicks": 96,
          "midi": 65,
          "name": "F4",
          "ticks": 177696,
          "time": 162.36833175,
          "velocity": 0.41732283464566927
        },
        {
          "duration": 0.08771924999999214,
          "durationTicks": 96,
          "midi": 60,
          "name": "C4",
          "ticks": 177792,
          "time": 162.456051,
          "velocity": 0.41732283464566927
        },
        {
          "duration": 0.08771924999999214,
          "durationTicks": 96,
          "midi": 72,
          "name": "C5",
          "ticks": 177792,
          "time": 162.456051,
          "velocity": 0.41732283464566927
        },
        {
          "duration": 0.08771924999999214,
          "durationTicks": 96,
          "midi": 62,
          "name": "D4",
          "ticks": 178176,
          "time": 162.806928,
          "velocity": 0.41732283464566927
        },
        {
          "duration": 0.08771924999999214,
          "durationTicks": 96,
          "midi": 74,
          "name": "D5",
          "ticks": 178176,
          "time": 162.806928,
          "velocity": 0.41732283464566927
        },
        {
          "duration": 0.08771924999999214,
          "durationTicks": 96,
          "midi": 53,
          "name": "F3",
          "ticks": 178560,
          "time": 163.157805,
          "velocity": 0.41732283464566927
        },
        {
          "duration": 0.08771924999999214,
          "durationTicks": 96,
          "midi": 65,
          "name": "F4",
          "ticks": 178560,
          "time": 163.157805,
          "velocity": 0.41732283464566927
        },
        {
          "duration": 0.08771924999999214,
          "durationTicks": 96,
          "midi": 65,
          "name": "F4",
          "ticks": 178944,
          "time": 163.508682,
          "velocity": 0.41732283464566927
        },
        {
          "duration": 0.08771924999999214,
          "durationTicks": 96,
          "midi": 77,
          "name": "F5",
          "ticks": 178944,
          "time": 163.508682,
          "velocity": 0.41732283464566927
        },
        {
          "duration": 0.08771925000002057,
          "durationTicks": 96,
          "midi": 77,
          "name": "F5",
          "ticks": 179040,
          "time": 163.59640124999999,
          "velocity": 0.41732283464566927
        },
        {
          "duration": 0.08771925000002057,
          "durationTicks": 96,
          "midi": 65,
          "name": "F4",
          "ticks": 179040,
          "time": 163.59640124999999,
          "velocity": 0.41732283464566927
        },
        {
          "duration": 0.08771925000002057,
          "durationTicks": 96,
          "midi": 77,
          "name": "F5",
          "ticks": 179328,
          "time": 163.859559,
          "velocity": 0.41732283464566927
        },
        {
          "duration": 0.08771925000002057,
          "durationTicks": 96,
          "midi": 65,
          "name": "F4",
          "ticks": 179328,
          "time": 163.859559,
          "velocity": 0.41732283464566927
        },
        {
          "duration": 0.08771924999999214,
          "durationTicks": 96,
          "midi": 65,
          "name": "F4",
          "ticks": 179520,
          "time": 164.0349975,
          "velocity": 0.41732283464566927
        },
        {
          "duration": 0.08771924999999214,
          "durationTicks": 96,
          "midi": 77,
          "name": "F5",
          "ticks": 179520,
          "time": 164.0349975,
          "velocity": 0.41732283464566927
        },
        {
          "duration": 0.08771924999999214,
          "durationTicks": 96,
          "midi": 65,
          "name": "F4",
          "ticks": 179904,
          "time": 164.3858745,
          "velocity": 0.41732283464566927
        },
        {
          "duration": 0.08771924999999214,
          "durationTicks": 96,
          "midi": 77,
          "name": "F5",
          "ticks": 179904,
          "time": 164.3858745,
          "velocity": 0.41732283464566927
        },
        {
          "duration": 0.08771924999999214,
          "durationTicks": 96,
          "midi": 77,
          "name": "F5",
          "ticks": 180000,
          "time": 164.47359375,
          "velocity": 0.41732283464566927
        },
        {
          "duration": 0.08771924999999214,
          "durationTicks": 96,
          "midi": 65,
          "name": "F4",
          "ticks": 180000,
          "time": 164.47359375,
          "velocity": 0.41732283464566927
        },
        {
          "duration": 0.08771924999999214,
          "durationTicks": 96,
          "midi": 65,
          "name": "F4",
          "ticks": 180288,
          "time": 164.7367515,
          "velocity": 0.41732283464566927
        },
        {
          "duration": 0.08771924999999214,
          "durationTicks": 96,
          "midi": 77,
          "name": "F5",
          "ticks": 180288,
          "time": 164.7367515,
          "velocity": 0.41732283464566927
        },
        {
          "duration": 0.08771924999999214,
          "durationTicks": 96,
          "midi": 75,
          "name": "D#5",
          "ticks": 180480,
          "time": 164.91219,
          "velocity": 0.41732283464566927
        },
        {
          "duration": 0.08771924999999214,
          "durationTicks": 96,
          "midi": 63,
          "name": "D#4",
          "ticks": 180480,
          "time": 164.91219,
          "velocity": 0.41732283464566927
        },
        {
          "duration": 0.08771924999999214,
          "durationTicks": 96,
          "midi": 75,
          "name": "D#5",
          "ticks": 180576,
          "time": 164.99990925,
          "velocity": 0.41732283464566927
        },
        {
          "duration": 0.08771924999999214,
          "durationTicks": 96,
          "midi": 63,
          "name": "D#4",
          "ticks": 180576,
          "time": 164.99990925,
          "velocity": 0.41732283464566927
        },
        {
          "duration": 0.08771924999999214,
          "durationTicks": 96,
          "midi": 74,
          "name": "D5",
          "ticks": 180864,
          "time": 165.263067,
          "velocity": 0.41732283464566927
        },
        {
          "duration": 0.08771924999999214,
          "durationTicks": 96,
          "midi": 62,
          "name": "D4",
          "ticks": 180864,
          "time": 165.263067,
          "velocity": 0.41732283464566927
        },
        {
          "duration": 0.08771924999999214,
          "durationTicks": 96,
          "midi": 62,
          "name": "D4",
          "ticks": 180960,
          "time": 165.35078625,
          "velocity": 0.41732283464566927
        },
        {
          "duration": 0.08771924999999214,
          "durationTicks": 96,
          "midi": 74,
          "name": "D5",
          "ticks": 180960,
          "time": 165.35078625,
          "velocity": 0.41732283464566927
        },
        {
          "duration": 0.08771924999999214,
          "durationTicks": 96,
          "midi": 75,
          "name": "D#5",
          "ticks": 181248,
          "time": 165.613944,
          "velocity": 0.41732283464566927
        },
        {
          "duration": 0.08771924999999214,
          "durationTicks": 96,
          "midi": 63,
          "name": "D#4",
          "ticks": 181248,
          "time": 165.613944,
          "velocity": 0.41732283464566927
        },
        {
          "duration": 0.08771924999999214,
          "durationTicks": 96,
          "midi": 63,
          "name": "D#4",
          "ticks": 181344,
          "time": 165.70166325,
          "velocity": 0.41732283464566927
        },
        {
          "duration": 0.08771924999999214,
          "durationTicks": 96,
          "midi": 75,
          "name": "D#5",
          "ticks": 181344,
          "time": 165.70166325,
          "velocity": 0.41732283464566927
        },
        {
          "duration": 0.08771924999999214,
          "durationTicks": 96,
          "midi": 65,
          "name": "F4",
          "ticks": 181632,
          "time": 165.964821,
          "velocity": 0.41732283464566927
        },
        {
          "duration": 0.08771924999999214,
          "durationTicks": 96,
          "midi": 77,
          "name": "F5",
          "ticks": 181632,
          "time": 165.964821,
          "velocity": 0.41732283464566927
        },
        {
          "duration": 0.08771924999999214,
          "durationTicks": 96,
          "midi": 77,
          "name": "F5",
          "ticks": 181728,
          "time": 166.05254025,
          "velocity": 0.41732283464566927
        },
        {
          "duration": 0.08771924999999214,
          "durationTicks": 96,
          "midi": 65,
          "name": "F4",
          "ticks": 181728,
          "time": 166.05254025,
          "velocity": 0.41732283464566927
        },
        {
          "duration": 0.08771924999999214,
          "durationTicks": 96,
          "midi": 62,
          "name": "D4",
          "ticks": 182016,
          "time": 166.315698,
          "velocity": 0.41732283464566927
        },
        {
          "duration": 0.08771924999999214,
          "durationTicks": 96,
          "midi": 82,
          "name": "A#5",
          "ticks": 182016,
          "time": 166.315698,
          "velocity": 0.41732283464566927
        },
        {
          "duration": 0.08771924999999214,
          "durationTicks": 96,
          "midi": 70,
          "name": "A#4",
          "ticks": 182016,
          "time": 166.315698,
          "velocity": 0.41732283464566927
        },
        {
          "duration": 0.08771925000002057,
          "durationTicks": 96,
          "midi": 82,
          "name": "A#5",
          "ticks": 182112,
          "time": 166.40341725,
          "velocity": 0.41732283464566927
        },
        {
          "duration": 0.08771925000002057,
          "durationTicks": 96,
          "midi": 62,
          "name": "D4",
          "ticks": 182112,
          "time": 166.40341725,
          "velocity": 0.41732283464566927
        },
        {
          "duration": 0.08771925000002057,
          "durationTicks": 96,
          "midi": 70,
          "name": "A#4",
          "ticks": 182112,
          "time": 166.40341725,
          "velocity": 0.41732283464566927
        },
        {
          "duration": 0.08771924999999214,
          "durationTicks": 96,
          "midi": 81,
          "name": "A5",
          "ticks": 182400,
          "time": 166.666575,
          "velocity": 0.41732283464566927
        },
        {
          "duration": 0.08771924999999214,
          "durationTicks": 96,
          "midi": 69,
          "name": "A4",
          "ticks": 182400,
          "time": 166.666575,
          "velocity": 0.41732283464566927
        },
        {
          "duration": 0.08771924999999214,
          "durationTicks": 96,
          "midi": 60,
          "name": "C4",
          "ticks": 182400,
          "time": 166.666575,
          "velocity": 0.41732283464566927
        },
        {
          "duration": 0.08771925000002057,
          "durationTicks": 96,
          "midi": 60,
          "name": "C4",
          "ticks": 182496,
          "time": 166.75429425,
          "velocity": 0.41732283464566927
        },
        {
          "duration": 0.08771925000002057,
          "durationTicks": 96,
          "midi": 81,
          "name": "A5",
          "ticks": 182496,
          "time": 166.75429425,
          "velocity": 0.41732283464566927
        },
        {
          "duration": 0.08771925000002057,
          "durationTicks": 96,
          "midi": 69,
          "name": "A4",
          "ticks": 182496,
          "time": 166.75429425,
          "velocity": 0.41732283464566927
        },
        {
          "duration": 0.08771924999999214,
          "durationTicks": 96,
          "midi": 58,
          "name": "A#3",
          "ticks": 182784,
          "time": 167.017452,
          "velocity": 0.41732283464566927
        },
        {
          "duration": 0.08771924999999214,
          "durationTicks": 96,
          "midi": 70,
          "name": "A#4",
          "ticks": 182784,
          "time": 167.017452,
          "velocity": 0.41732283464566927
        },
        {
          "duration": 0.08771924999999214,
          "durationTicks": 96,
          "midi": 82,
          "name": "A#5",
          "ticks": 182784,
          "time": 167.017452,
          "velocity": 0.41732283464566927
        },
        {
          "duration": 0.08771925000002057,
          "durationTicks": 96,
          "midi": 70,
          "name": "A#4",
          "ticks": 182880,
          "time": 167.10517124999998,
          "velocity": 0.41732283464566927
        },
        {
          "duration": 0.08771925000002057,
          "durationTicks": 96,
          "midi": 82,
          "name": "A#5",
          "ticks": 182880,
          "time": 167.10517124999998,
          "velocity": 0.41732283464566927
        },
        {
          "duration": 0.08771925000002057,
          "durationTicks": 96,
          "midi": 58,
          "name": "A#3",
          "ticks": 182880,
          "time": 167.10517124999998,
          "velocity": 0.41732283464566927
        },
        {
          "duration": 0.08771924999999214,
          "durationTicks": 96,
          "midi": 70,
          "name": "A#4",
          "ticks": 182976,
          "time": 167.1928905,
          "velocity": 0.41732283464566927
        },
        {
          "duration": 0.08771924999999214,
          "durationTicks": 96,
          "midi": 82,
          "name": "A#5",
          "ticks": 182976,
          "time": 167.1928905,
          "velocity": 0.41732283464566927
        },
        {
          "duration": 0.08771924999999214,
          "durationTicks": 96,
          "midi": 58,
          "name": "A#3",
          "ticks": 182976,
          "time": 167.1928905,
          "velocity": 0.41732283464566927
        },
        {
          "duration": 0.08771924999999214,
          "durationTicks": 96,
          "midi": 82,
          "name": "A#5",
          "ticks": 183072,
          "time": 167.28060975,
          "velocity": 0.41732283464566927
        },
        {
          "duration": 0.08771924999999214,
          "durationTicks": 96,
          "midi": 70,
          "name": "A#4",
          "ticks": 183072,
          "time": 167.28060975,
          "velocity": 0.41732283464566927
        },
        {
          "duration": 0.08771924999999214,
          "durationTicks": 96,
          "midi": 58,
          "name": "A#3",
          "ticks": 183072,
          "time": 167.28060975,
          "velocity": 0.41732283464566927
        },
        {
          "duration": 0.08771925000002057,
          "durationTicks": 96,
          "midi": 82,
          "name": "A#5",
          "ticks": 183168,
          "time": 167.368329,
          "velocity": 0.41732283464566927
        },
        {
          "duration": 0.08771925000002057,
          "durationTicks": 96,
          "midi": 58,
          "name": "A#3",
          "ticks": 183168,
          "time": 167.368329,
          "velocity": 0.41732283464566927
        },
        {
          "duration": 0.08771925000002057,
          "durationTicks": 96,
          "midi": 70,
          "name": "A#4",
          "ticks": 183168,
          "time": 167.368329,
          "velocity": 0.41732283464566927
        },
        {
          "duration": 0.08771924999999214,
          "durationTicks": 96,
          "midi": 70,
          "name": "A#4",
          "ticks": 183264,
          "time": 167.45604825,
          "velocity": 0.41732283464566927
        },
        {
          "duration": 0.08771924999999214,
          "durationTicks": 96,
          "midi": 58,
          "name": "A#3",
          "ticks": 183264,
          "time": 167.45604825,
          "velocity": 0.41732283464566927
        },
        {
          "duration": 0.08771924999999214,
          "durationTicks": 96,
          "midi": 82,
          "name": "A#5",
          "ticks": 183264,
          "time": 167.45604825,
          "velocity": 0.41732283464566927
        },
        {
          "duration": 0.08771924999999214,
          "durationTicks": 96,
          "midi": 70,
          "name": "A#4",
          "ticks": 183360,
          "time": 167.5437675,
          "velocity": 0.41732283464566927
        },
        {
          "duration": 0.08771924999999214,
          "durationTicks": 96,
          "midi": 58,
          "name": "A#3",
          "ticks": 183360,
          "time": 167.5437675,
          "velocity": 0.41732283464566927
        },
        {
          "duration": 0.08771924999999214,
          "durationTicks": 96,
          "midi": 82,
          "name": "A#5",
          "ticks": 183360,
          "time": 167.5437675,
          "velocity": 0.41732283464566927
        },
        {
          "duration": 0.08771924999999214,
          "durationTicks": 96,
          "midi": 58,
          "name": "A#3",
          "ticks": 183456,
          "time": 167.63148675,
          "velocity": 0.41732283464566927
        },
        {
          "duration": 0.08771924999999214,
          "durationTicks": 96,
          "midi": 70,
          "name": "A#4",
          "ticks": 183456,
          "time": 167.63148675,
          "velocity": 0.41732283464566927
        },
        {
          "duration": 0.08771924999999214,
          "durationTicks": 96,
          "midi": 82,
          "name": "A#5",
          "ticks": 183456,
          "time": 167.63148675,
          "velocity": 0.41732283464566927
        },
        {
          "duration": 0.08771925000002057,
          "durationTicks": 96,
          "midi": 82,
          "name": "A#5",
          "ticks": 183552,
          "time": 167.71920599999999,
          "velocity": 0.41732283464566927
        },
        {
          "duration": 0.08771925000002057,
          "durationTicks": 96,
          "midi": 58,
          "name": "A#3",
          "ticks": 183552,
          "time": 167.71920599999999,
          "velocity": 0.41732283464566927
        },
        {
          "duration": 0.08771925000002057,
          "durationTicks": 96,
          "midi": 70,
          "name": "A#4",
          "ticks": 183552,
          "time": 167.71920599999999,
          "velocity": 0.41732283464566927
        },
        {
          "duration": 0.08771924999999214,
          "durationTicks": 96,
          "midi": 58,
          "name": "A#3",
          "ticks": 183648,
          "time": 167.80692525,
          "velocity": 0.41732283464566927
        },
        {
          "duration": 0.08771924999999214,
          "durationTicks": 96,
          "midi": 82,
          "name": "A#5",
          "ticks": 183648,
          "time": 167.80692525,
          "velocity": 0.41732283464566927
        },
        {
          "duration": 0.08771924999999214,
          "durationTicks": 96,
          "midi": 70,
          "name": "A#4",
          "ticks": 183648,
          "time": 167.80692525,
          "velocity": 0.41732283464566927
        },
        {
          "duration": 0.08771924999999214,
          "durationTicks": 96,
          "midi": 70,
          "name": "A#4",
          "ticks": 183744,
          "time": 167.8946445,
          "velocity": 0.41732283464566927
        },
        {
          "duration": 0.08771924999999214,
          "durationTicks": 96,
          "midi": 58,
          "name": "A#3",
          "ticks": 183744,
          "time": 167.8946445,
          "velocity": 0.41732283464566927
        },
        {
          "duration": 0.08771925000002057,
          "durationTicks": 96,
          "midi": 70,
          "name": "A#4",
          "ticks": 183840,
          "time": 167.98236375,
          "velocity": 0.41732283464566927
        },
        {
          "duration": 0.08771925000002057,
          "durationTicks": 96,
          "midi": 58,
          "name": "A#3",
          "ticks": 183840,
          "time": 167.98236375,
          "velocity": 0.41732283464566927
        },
        {
          "duration": 0.08771924999999214,
          "durationTicks": 96,
          "midi": 58,
          "name": "A#3",
          "ticks": 183936,
          "time": 168.070083,
          "velocity": 0.41732283464566927
        },
        {
          "duration": 0.08771924999999214,
          "durationTicks": 96,
          "midi": 70,
          "name": "A#4",
          "ticks": 183936,
          "time": 168.070083,
          "velocity": 0.41732283464566927
        },
        {
          "duration": 0.08771924999999214,
          "durationTicks": 96,
          "midi": 70,
          "name": "A#4",
          "ticks": 184032,
          "time": 168.15780225,
          "velocity": 0.41732283464566927
        },
        {
          "duration": 0.08771924999999214,
          "durationTicks": 96,
          "midi": 58,
          "name": "A#3",
          "ticks": 184032,
          "time": 168.15780225,
          "velocity": 0.41732283464566927
        },
        {
          "duration": 0.08771924999999214,
          "durationTicks": 96,
          "midi": 58,
          "name": "A#3",
          "ticks": 184128,
          "time": 168.2455215,
          "velocity": 0.41732283464566927
        },
        {
          "duration": 0.08771924999999214,
          "durationTicks": 96,
          "midi": 70,
          "name": "A#4",
          "ticks": 184128,
          "time": 168.2455215,
          "velocity": 0.41732283464566927
        },
        {
          "duration": 0.08771925000002057,
          "durationTicks": 96,
          "midi": 58,
          "name": "A#3",
          "ticks": 184224,
          "time": 168.33324075,
          "velocity": 0.41732283464566927
        },
        {
          "duration": 0.08771925000002057,
          "durationTicks": 96,
          "midi": 70,
          "name": "A#4",
          "ticks": 184224,
          "time": 168.33324075,
          "velocity": 0.41732283464566927
        },
        {
          "duration": 0.08771924999999214,
          "durationTicks": 96,
          "midi": 49,
          "name": "C#3",
          "ticks": 184800,
          "time": 168.85955625,
          "velocity": 0.41732283464566927
        },
        {
          "duration": 0.08771924999999214,
          "durationTicks": 96,
          "midi": 51,
          "name": "D#3",
          "ticks": 187968,
          "time": 171.7542915,
          "velocity": 0.41732283464566927
        }
      ],
      "endOfTrackTicks": 188064
    },
    {
      "channel": 9,
      "controlChanges": {},
      "pitchBends": [],
      "instrument": {
        "family": "drums",
        "number": 0,
        "name": "standard kit"
      },
      "name": "Electric Drum Kit",
      "notes": [
        {
          "duration": 0.08771924999999925,
          "durationTicks": 96,
          "midi": 49,
          "name": "C#3",
          "ticks": 21792,
          "time": 19.91226975,
          "velocity": 0.6692913385826772
        },
        {
          "duration": 0.08771924999999925,
          "durationTicks": 96,
          "midi": 49,
          "name": "C#3",
          "ticks": 21888,
          "time": 19.999989,
          "velocity": 0.6692913385826772
        },
        {
          "duration": 0.0877192500000028,
          "durationTicks": 96,
          "midi": 49,
          "name": "C#3",
          "ticks": 21984,
          "time": 20.08770825,
          "velocity": 0.6692913385826772
        },
        {
          "duration": 0.08771924999999925,
          "durationTicks": 96,
          "midi": 49,
          "name": "C#3",
          "ticks": 22080,
          "time": 20.1754275,
          "velocity": 0.6692913385826772
        },
        {
          "duration": 0.08771924999999925,
          "durationTicks": 96,
          "midi": 49,
          "name": "C#3",
          "ticks": 22176,
          "time": 20.26314675,
          "velocity": 0.6692913385826772
        },
        {
          "duration": 0.08771924999999925,
          "durationTicks": 96,
          "midi": 49,
          "name": "C#3",
          "ticks": 22272,
          "time": 20.350866,
          "velocity": 0.6692913385826772
        },
        {
          "duration": 0.08771924999999925,
          "durationTicks": 96,
          "midi": 49,
          "name": "C#3",
          "ticks": 22368,
          "time": 20.43858525,
          "velocity": 0.6692913385826772
        },
        {
          "duration": 0.0877192500000028,
          "durationTicks": 96,
          "midi": 49,
          "name": "C#3",
          "ticks": 22464,
          "time": 20.5263045,
          "velocity": 0.6692913385826772
        },
        {
          "duration": 0.08771924999999925,
          "durationTicks": 96,
          "midi": 49,
          "name": "C#3",
          "ticks": 22560,
          "time": 20.61402375,
          "velocity": 0.6692913385826772
        },
        {
          "duration": 0.08771924999999925,
          "durationTicks": 96,
          "midi": 49,
          "name": "C#3",
          "ticks": 22656,
          "time": 20.701743,
          "velocity": 0.6692913385826772
        },
        {
          "duration": 0.08771924999999925,
          "durationTicks": 96,
          "midi": 49,
          "name": "C#3",
          "ticks": 22752,
          "time": 20.78946225,
          "velocity": 0.6692913385826772
        },
        {
          "duration": 0.08771924999999925,
          "durationTicks": 96,
          "midi": 49,
          "name": "C#3",
          "ticks": 22752,
          "time": 20.78946225,
          "velocity": 0.6692913385826772
        },
        {
          "duration": 0.08771924999999925,
          "durationTicks": 96,
          "midi": 49,
          "name": "C#3",
          "ticks": 22848,
          "time": 20.8771815,
          "velocity": 0.6692913385826772
        },
        {
          "duration": 0.08771924999999925,
          "durationTicks": 96,
          "midi": 49,
          "name": "C#3",
          "ticks": 22848,
          "time": 20.8771815,
          "velocity": 0.6692913385826772
        },
        {
          "duration": 0.0877192500000028,
          "durationTicks": 96,
          "midi": 49,
          "name": "C#3",
          "ticks": 22944,
          "time": 20.964900749999998,
          "velocity": 0.6692913385826772
        },
        {
          "duration": 0.08771924999999925,
          "durationTicks": 96,
          "midi": 48,
          "name": "C3",
          "ticks": 23136,
          "time": 21.14033925,
          "velocity": 0.6692913385826772
        },
        {
          "duration": 0.08771924999999925,
          "durationTicks": 96,
          "midi": 45,
          "name": "A2",
          "ticks": 23136,
          "time": 21.14033925,
          "velocity": 0.6692913385826772
        },
        {
          "duration": 0.08771924999999925,
          "durationTicks": 96,
          "midi": 35,
          "name": "B1",
          "ticks": 23136,
          "time": 21.14033925,
          "velocity": 0.6692913385826772
        },
        {
          "duration": 0.08771924999999925,
          "durationTicks": 96,
          "midi": 41,
          "name": "F2",
          "ticks": 23136,
          "time": 21.14033925,
          "velocity": 0.6692913385826772
        },
        {
          "duration": 0.043859624999999625,
          "durationTicks": 48,
          "midi": 36,
          "name": "C2",
          "ticks": 23136,
          "time": 21.14033925,
          "velocity": 0.6692913385826772
        },
        {
          "duration": 0.043859624999999625,
          "durationTicks": 48,
          "midi": 36,
          "name": "C2",
          "ticks": 23184,
          "time": 21.184198875,
          "velocity": 0.6692913385826772
        },
        {
          "duration": 0.08771924999999925,
          "durationTicks": 96,
          "midi": 48,
          "name": "C3",
          "ticks": 23232,
          "time": 21.2280585,
          "velocity": 0.6692913385826772
        },
        {
          "duration": 0.08771924999999925,
          "durationTicks": 96,
          "midi": 41,
          "name": "F2",
          "ticks": 23232,
          "time": 21.2280585,
          "velocity": 0.6692913385826772
        },
        {
          "duration": 0.08771924999999925,
          "durationTicks": 96,
          "midi": 35,
          "name": "B1",
          "ticks": 23232,
          "time": 21.2280585,
          "velocity": 0.6692913385826772
        },
        {
          "duration": 0.043859624999999625,
          "durationTicks": 48,
          "midi": 36,
          "name": "C2",
          "ticks": 23232,
          "time": 21.2280585,
          "velocity": 0.6692913385826772
        },
        {
          "duration": 0.08771924999999925,
          "durationTicks": 96,
          "midi": 45,
          "name": "A2",
          "ticks": 23232,
          "time": 21.2280585,
          "velocity": 0.6692913385826772
        },
        {
          "duration": 0.043859624999999625,
          "durationTicks": 48,
          "midi": 36,
          "name": "C2",
          "ticks": 23280,
          "time": 21.271918125,
          "velocity": 0.6692913385826772
        },
        {
          "duration": 0.0877192500000028,
          "durationTicks": 96,
          "midi": 35,
          "name": "B1",
          "ticks": 23424,
          "time": 21.403496999999998,
          "velocity": 0.6692913385826772
        },
        {
          "duration": 0.0877192500000028,
          "durationTicks": 96,
          "midi": 41,
          "name": "F2",
          "ticks": 23424,
          "time": 21.403496999999998,
          "velocity": 0.6692913385826772
        },
        {
          "duration": 0.0877192500000028,
          "durationTicks": 96,
          "midi": 45,
          "name": "A2",
          "ticks": 23424,
          "time": 21.403496999999998,
          "velocity": 0.6692913385826772
        },
        {
          "duration": 0.0877192500000028,
          "durationTicks": 96,
          "midi": 36,
          "name": "C2",
          "ticks": 23424,
          "time": 21.403496999999998,
          "velocity": 0.6692913385826772
        },
        {
          "duration": 0.08771924999999925,
          "durationTicks": 96,
          "midi": 35,
          "name": "B1",
          "ticks": 23616,
          "time": 21.5789355,
          "velocity": 0.6692913385826772
        },
        {
          "duration": 0.08771924999999925,
          "durationTicks": 96,
          "midi": 41,
          "name": "F2",
          "ticks": 23616,
          "time": 21.5789355,
          "velocity": 0.6692913385826772
        },
        {
          "duration": 0.08771924999999925,
          "durationTicks": 96,
          "midi": 45,
          "name": "A2",
          "ticks": 23616,
          "time": 21.5789355,
          "velocity": 0.6692913385826772
        },
        {
          "duration": 0.08771924999999925,
          "durationTicks": 96,
          "midi": 48,
          "name": "C3",
          "ticks": 23616,
          "time": 21.5789355,
          "velocity": 0.6692913385826772
        },
        {
          "duration": 0.08771924999999925,
          "durationTicks": 96,
          "midi": 36,
          "name": "C2",
          "ticks": 23616,
          "time": 21.5789355,
          "velocity": 0.6692913385826772
        },
        {
          "duration": 0.0877192500000028,
          "durationTicks": 96,
          "midi": 47,
          "name": "B2",
          "ticks": 23808,
          "time": 21.754374,
          "velocity": 0.6692913385826772
        },
        {
          "duration": 0.0877192500000028,
          "durationTicks": 96,
          "midi": 43,
          "name": "G2",
          "ticks": 23808,
          "time": 21.754374,
          "velocity": 0.6692913385826772
        },
        {
          "duration": 0.08771924999999925,
          "durationTicks": 96,
          "midi": 47,
          "name": "B2",
          "ticks": 24000,
          "time": 21.9298125,
          "velocity": 0.6692913385826772
        },
        {
          "duration": 0.08771924999999925,
          "durationTicks": 96,
          "midi": 43,
          "name": "G2",
          "ticks": 24000,
          "time": 21.9298125,
          "velocity": 0.6692913385826772
        },
        {
          "duration": 0.08771924999999925,
          "durationTicks": 96,
          "midi": 35,
          "name": "B1",
          "ticks": 24000,
          "time": 21.9298125,
          "velocity": 0.6692913385826772
        },
        {
          "duration": 0.08771924999999925,
          "durationTicks": 96,
          "midi": 43,
          "name": "G2",
          "ticks": 24192,
          "time": 22.105251,
          "velocity": 0.6692913385826772
        },
        {
          "duration": 0.08771924999999925,
          "durationTicks": 96,
          "midi": 41,
          "name": "F2",
          "ticks": 24192,
          "time": 22.105251,
          "velocity": 0.6692913385826772
        },
        {
          "duration": 0.08771924999999925,
          "durationTicks": 96,
          "midi": 43,
          "name": "G2",
          "ticks": 24384,
          "time": 22.2806895,
          "velocity": 0.6692913385826772
        },
        {
          "duration": 0.08771924999999925,
          "durationTicks": 96,
          "midi": 41,
          "name": "F2",
          "ticks": 24384,
          "time": 22.2806895,
          "velocity": 0.6692913385826772
        },
        {
          "duration": 0.08771924999999925,
          "durationTicks": 96,
          "midi": 35,
          "name": "B1",
          "ticks": 24384,
          "time": 22.2806895,
          "velocity": 0.6692913385826772
        },
        {
          "duration": 0.08771924999999925,
          "durationTicks": 96,
          "midi": 41,
          "name": "F2",
          "ticks": 24576,
          "time": 22.456128,
          "velocity": 0.6692913385826772
        },
        {
          "duration": 0.08771924999999925,
          "durationTicks": 96,
          "midi": 43,
          "name": "G2",
          "ticks": 24576,
          "time": 22.456128,
          "velocity": 0.6692913385826772
        },
        {
          "duration": 0.08771924999999925,
          "durationTicks": 96,
          "midi": 35,
          "name": "B1",
          "ticks": 24576,
          "time": 22.456128,
          "velocity": 0.6692913385826772
        },
        {
          "duration": 0.0877192500000028,
          "durationTicks": 96,
          "midi": 46,
          "name": "A#2",
          "ticks": 24768,
          "time": 22.631566499999998,
          "velocity": 0.6692913385826772
        },
        {
          "duration": 0.0877192500000028,
          "durationTicks": 96,
          "midi": 35,
          "name": "B1",
          "ticks": 24768,
          "time": 22.631566499999998,
          "velocity": 0.6692913385826772
        },
        {
          "duration": 0.08771924999999925,
          "durationTicks": 96,
          "midi": 35,
          "name": "B1",
          "ticks": 24960,
          "time": 22.807005,
          "velocity": 0.6692913385826772
        },
        {
          "duration": 0.08771924999999925,
          "durationTicks": 96,
          "midi": 38,
          "name": "D2",
          "ticks": 25152,
          "time": 22.9824435,
          "velocity": 0.6692913385826772
        },
        {
          "duration": 0.08771924999999925,
          "durationTicks": 96,
          "midi": 46,
          "name": "A#2",
          "ticks": 25152,
          "time": 22.9824435,
          "velocity": 0.6692913385826772
        },
        {
          "duration": 0.08771924999999925,
          "durationTicks": 96,
          "midi": 36,
          "name": "C2",
          "ticks": 25152,
          "time": 22.9824435,
          "velocity": 0.6692913385826772
        },
        {
          "duration": 0.08771924999999925,
          "durationTicks": 96,
          "midi": 35,
          "name": "B1",
          "ticks": 25152,
          "time": 22.9824435,
          "velocity": 0.6692913385826772
        },
        {
          "duration": 0.08771924999999925,
          "durationTicks": 96,
          "midi": 46,
          "name": "A#2",
          "ticks": 25536,
          "time": 23.3333205,
          "velocity": 0.6692913385826772
        },
        {
          "duration": 0.08771924999999925,
          "durationTicks": 96,
          "midi": 35,
          "name": "B1",
          "ticks": 25536,
          "time": 23.3333205,
          "velocity": 0.6692913385826772
        },
        {
          "duration": 0.08771924999999925,
          "durationTicks": 96,
          "midi": 35,
          "name": "B1",
          "ticks": 25728,
          "time": 23.508759,
          "velocity": 0.6692913385826772
        },
        {
          "duration": 0.08771924999999925,
          "durationTicks": 96,
          "midi": 46,
          "name": "A#2",
          "ticks": 25920,
          "time": 23.6841975,
          "velocity": 0.6692913385826772
        },
        {
          "duration": 0.08771924999999925,
          "durationTicks": 96,
          "midi": 38,
          "name": "D2",
          "ticks": 25920,
          "time": 23.6841975,
          "velocity": 0.6692913385826772
        },
        {
          "duration": 0.08771924999999925,
          "durationTicks": 96,
          "midi": 35,
          "name": "B1",
          "ticks": 25920,
          "time": 23.6841975,
          "velocity": 0.6692913385826772
        },
        {
          "duration": 0.08771924999999925,
          "durationTicks": 96,
          "midi": 36,
          "name": "C2",
          "ticks": 25920,
          "time": 23.6841975,
          "velocity": 0.6692913385826772
        },
        {
          "duration": 0.08771924999999925,
          "durationTicks": 96,
          "midi": 46,
          "name": "A#2",
          "ticks": 26304,
          "time": 24.0350745,
          "velocity": 0.6692913385826772
        },
        {
          "duration": 0.08771924999999925,
          "durationTicks": 96,
          "midi": 35,
          "name": "B1",
          "ticks": 26304,
          "time": 24.0350745,
          "velocity": 0.6692913385826772
        },
        {
          "duration": 0.08771924999999925,
          "durationTicks": 96,
          "midi": 35,
          "name": "B1",
          "ticks": 26496,
          "time": 24.210513,
          "velocity": 0.6692913385826772
        },
        {
          "duration": 0.08771924999999925,
          "durationTicks": 96,
          "midi": 46,
          "name": "A#2",
          "ticks": 26688,
          "time": 24.3859515,
          "velocity": 0.6692913385826772
        },
        {
          "duration": 0.08771924999999925,
          "durationTicks": 96,
          "midi": 38,
          "name": "D2",
          "ticks": 26688,
          "time": 24.3859515,
          "velocity": 0.6692913385826772
        },
        {
          "duration": 0.08771924999999925,
          "durationTicks": 96,
          "midi": 36,
          "name": "C2",
          "ticks": 26688,
          "time": 24.3859515,
          "velocity": 0.6692913385826772
        },
        {
          "duration": 0.08771924999999925,
          "durationTicks": 96,
          "midi": 35,
          "name": "B1",
          "ticks": 26688,
          "time": 24.3859515,
          "velocity": 0.6692913385826772
        },
        {
          "duration": 0.0877192500000028,
          "durationTicks": 96,
          "midi": 46,
          "name": "A#2",
          "ticks": 27072,
          "time": 24.736828499999998,
          "velocity": 0.6692913385826772
        },
        {
          "duration": 0.0877192500000028,
          "durationTicks": 96,
          "midi": 35,
          "name": "B1",
          "ticks": 27072,
          "time": 24.736828499999998,
          "velocity": 0.6692913385826772
        },
        {
          "duration": 0.08771924999999925,
          "durationTicks": 96,
          "midi": 35,
          "name": "B1",
          "ticks": 27264,
          "time": 24.912267,
          "velocity": 0.6692913385826772
        },
        {
          "duration": 0.0877192500000028,
          "durationTicks": 96,
          "midi": 46,
          "name": "A#2",
          "ticks": 27456,
          "time": 25.0877055,
          "velocity": 0.6692913385826772
        },
        {
          "duration": 0.0877192500000028,
          "durationTicks": 96,
          "midi": 38,
          "name": "D2",
          "ticks": 27456,
          "time": 25.0877055,
          "velocity": 0.6692913385826772
        },
        {
          "duration": 0.0877192500000028,
          "durationTicks": 96,
          "midi": 35,
          "name": "B1",
          "ticks": 27456,
          "time": 25.0877055,
          "velocity": 0.6692913385826772
        },
        {
          "duration": 0.0877192500000028,
          "durationTicks": 96,
          "midi": 36,
          "name": "C2",
          "ticks": 27456,
          "time": 25.0877055,
          "velocity": 0.6692913385826772
        },
        {
          "duration": 0.08771924999999925,
          "durationTicks": 96,
          "midi": 46,
          "name": "A#2",
          "ticks": 27840,
          "time": 25.4385825,
          "velocity": 0.6692913385826772
        },
        {
          "duration": 0.08771924999999925,
          "durationTicks": 96,
          "midi": 35,
          "name": "B1",
          "ticks": 27840,
          "time": 25.4385825,
          "velocity": 0.6692913385826772
        },
        {
          "duration": 0.08771924999999925,
          "durationTicks": 96,
          "midi": 35,
          "name": "B1",
          "ticks": 28032,
          "time": 25.614021,
          "velocity": 0.6692913385826772
        },
        {
          "duration": 0.08771924999999925,
          "durationTicks": 96,
          "midi": 35,
          "name": "B1",
          "ticks": 28224,
          "time": 25.7894595,
          "velocity": 0.6692913385826772
        },
        {
          "duration": 0.08771924999999925,
          "durationTicks": 96,
          "midi": 36,
          "name": "C2",
          "ticks": 28224,
          "time": 25.7894595,
          "velocity": 0.6692913385826772
        },
        {
          "duration": 0.08771924999999925,
          "durationTicks": 96,
          "midi": 46,
          "name": "A#2",
          "ticks": 28224,
          "time": 25.7894595,
          "velocity": 0.6692913385826772
        },
        {
          "duration": 0.08771924999999925,
          "durationTicks": 96,
          "midi": 38,
          "name": "D2",
          "ticks": 28224,
          "time": 25.7894595,
          "velocity": 0.6692913385826772
        },
        {
          "duration": 0.08771924999999925,
          "durationTicks": 96,
          "midi": 35,
          "name": "B1",
          "ticks": 28608,
          "time": 26.1403365,
          "velocity": 0.6692913385826772
        },
        {
          "duration": 0.08771924999999925,
          "durationTicks": 96,
          "midi": 46,
          "name": "A#2",
          "ticks": 28608,
          "time": 26.1403365,
          "velocity": 0.6692913385826772
        },
        {
          "duration": 0.08771924999999925,
          "durationTicks": 96,
          "midi": 35,
          "name": "B1",
          "ticks": 28800,
          "time": 26.315775,
          "velocity": 0.6692913385826772
        },
        {
          "duration": 0.08771924999999925,
          "durationTicks": 96,
          "midi": 46,
          "name": "A#2",
          "ticks": 28992,
          "time": 26.4912135,
          "velocity": 0.6692913385826772
        },
        {
          "duration": 0.08771924999999925,
          "durationTicks": 96,
          "midi": 36,
          "name": "C2",
          "ticks": 28992,
          "time": 26.4912135,
          "velocity": 0.6692913385826772
        },
        {
          "duration": 0.08771924999999925,
          "durationTicks": 96,
          "midi": 35,
          "name": "B1",
          "ticks": 28992,
          "time": 26.4912135,
          "velocity": 0.6692913385826772
        },
        {
          "duration": 0.08771924999999925,
          "durationTicks": 96,
          "midi": 38,
          "name": "D2",
          "ticks": 28992,
          "time": 26.4912135,
          "velocity": 0.6692913385826772
        },
        {
          "duration": 0.08771924999999925,
          "durationTicks": 96,
          "midi": 35,
          "name": "B1",
          "ticks": 29376,
          "time": 26.8420905,
          "velocity": 0.6692913385826772
        },
        {
          "duration": 0.08771924999999925,
          "durationTicks": 96,
          "midi": 46,
          "name": "A#2",
          "ticks": 29376,
          "time": 26.8420905,
          "velocity": 0.6692913385826772
        },
        {
          "duration": 0.08771924999999925,
          "durationTicks": 96,
          "midi": 35,
          "name": "B1",
          "ticks": 29568,
          "time": 27.017529,
          "velocity": 0.6692913385826772
        },
        {
          "duration": 0.0877192500000028,
          "durationTicks": 96,
          "midi": 38,
          "name": "D2",
          "ticks": 29760,
          "time": 27.192967499999998,
          "velocity": 0.6692913385826772
        },
        {
          "duration": 0.0877192500000028,
          "durationTicks": 96,
          "midi": 46,
          "name": "A#2",
          "ticks": 29760,
          "time": 27.192967499999998,
          "velocity": 0.6692913385826772
        },
        {
          "duration": 0.0877192500000028,
          "durationTicks": 96,
          "midi": 36,
          "name": "C2",
          "ticks": 29760,
          "time": 27.192967499999998,
          "velocity": 0.6692913385826772
        },
        {
          "duration": 0.0877192500000028,
          "durationTicks": 96,
          "midi": 35,
          "name": "B1",
          "ticks": 29760,
          "time": 27.192967499999998,
          "velocity": 0.6692913385826772
        },
        {
          "duration": 0.0877192500000028,
          "durationTicks": 96,
          "midi": 35,
          "name": "B1",
          "ticks": 29760,
          "time": 27.192967499999998,
          "velocity": 0.6692913385826772
        },
        {
          "duration": 0.08771924999999925,
          "durationTicks": 96,
          "midi": 46,
          "name": "A#2",
          "ticks": 30144,
          "time": 27.5438445,
          "velocity": 0.6692913385826772
        },
        {
          "duration": 0.08771924999999925,
          "durationTicks": 96,
          "midi": 35,
          "name": "B1",
          "ticks": 30144,
          "time": 27.5438445,
          "velocity": 0.6692913385826772
        },
        {
          "duration": 0.08771924999999925,
          "durationTicks": 96,
          "midi": 35,
          "name": "B1",
          "ticks": 30336,
          "time": 27.719283,
          "velocity": 0.6692913385826772
        },
        {
          "duration": 0.08771924999999925,
          "durationTicks": 96,
          "midi": 35,
          "name": "B1",
          "ticks": 30528,
          "time": 27.8947215,
          "velocity": 0.6692913385826772
        },
        {
          "duration": 0.08771924999999925,
          "durationTicks": 96,
          "midi": 46,
          "name": "A#2",
          "ticks": 30528,
          "time": 27.8947215,
          "velocity": 0.6692913385826772
        },
        {
          "duration": 0.08771924999999925,
          "durationTicks": 96,
          "midi": 36,
          "name": "C2",
          "ticks": 30528,
          "time": 27.8947215,
          "velocity": 0.6692913385826772
        },
        {
          "duration": 0.08771924999999925,
          "durationTicks": 96,
          "midi": 38,
          "name": "D2",
          "ticks": 30528,
          "time": 27.8947215,
          "velocity": 0.6692913385826772
        },
        {
          "duration": 0.08771924999999925,
          "durationTicks": 96,
          "midi": 35,
          "name": "B1",
          "ticks": 30912,
          "time": 28.2455985,
          "velocity": 0.6692913385826772
        },
        {
          "duration": 0.08771924999999925,
          "durationTicks": 96,
          "midi": 46,
          "name": "A#2",
          "ticks": 30912,
          "time": 28.2455985,
          "velocity": 0.6692913385826772
        },
        {
          "duration": 0.0877192500000028,
          "durationTicks": 96,
          "midi": 35,
          "name": "B1",
          "ticks": 31104,
          "time": 28.421037,
          "velocity": 0.6692913385826772
        },
        {
          "duration": 0.08771924999999925,
          "durationTicks": 96,
          "midi": 38,
          "name": "D2",
          "ticks": 31296,
          "time": 28.5964755,
          "velocity": 0.6692913385826772
        },
        {
          "duration": 0.08771924999999925,
          "durationTicks": 96,
          "midi": 36,
          "name": "C2",
          "ticks": 31296,
          "time": 28.5964755,
          "velocity": 0.6692913385826772
        },
        {
          "duration": 0.08771924999999925,
          "durationTicks": 96,
          "midi": 35,
          "name": "B1",
          "ticks": 31296,
          "time": 28.5964755,
          "velocity": 0.6692913385826772
        },
        {
          "duration": 0.08771924999999925,
          "durationTicks": 96,
          "midi": 46,
          "name": "A#2",
          "ticks": 31296,
          "time": 28.5964755,
          "velocity": 0.6692913385826772
        },
        {
          "duration": 0.08771924999999925,
          "durationTicks": 96,
          "midi": 46,
          "name": "A#2",
          "ticks": 31680,
          "time": 28.9473525,
          "velocity": 0.6692913385826772
        },
        {
          "duration": 0.08771924999999925,
          "durationTicks": 96,
          "midi": 35,
          "name": "B1",
          "ticks": 31680,
          "time": 28.9473525,
          "velocity": 0.6692913385826772
        },
        {
          "duration": 0.08771924999999925,
          "durationTicks": 96,
          "midi": 35,
          "name": "B1",
          "ticks": 31872,
          "time": 29.122791,
          "velocity": 0.6692913385826772
        },
        {
          "duration": 0.0877192500000028,
          "durationTicks": 96,
          "midi": 38,
          "name": "D2",
          "ticks": 32064,
          "time": 29.298229499999998,
          "velocity": 0.6692913385826772
        },
        {
          "duration": 0.0877192500000028,
          "durationTicks": 96,
          "midi": 46,
          "name": "A#2",
          "ticks": 32064,
          "time": 29.298229499999998,
          "velocity": 0.6692913385826772
        },
        {
          "duration": 0.0877192500000028,
          "durationTicks": 96,
          "midi": 36,
          "name": "C2",
          "ticks": 32064,
          "time": 29.298229499999998,
          "velocity": 0.6692913385826772
        },
        {
          "duration": 0.0877192500000028,
          "durationTicks": 96,
          "midi": 35,
          "name": "B1",
          "ticks": 32064,
          "time": 29.298229499999998,
          "velocity": 0.6692913385826772
        },
        {
          "duration": 0.0877192500000028,
          "durationTicks": 96,
          "midi": 46,
          "name": "A#2",
          "ticks": 32448,
          "time": 29.6491065,
          "velocity": 0.6692913385826772
        },
        {
          "duration": 0.0877192500000028,
          "durationTicks": 96,
          "midi": 35,
          "name": "B1",
          "ticks": 32448,
          "time": 29.6491065,
          "velocity": 0.6692913385826772
        },
        {
          "duration": 0.08771924999999925,
          "durationTicks": 96,
          "midi": 35,
          "name": "B1",
          "ticks": 32640,
          "time": 29.824545,
          "velocity": 0.6692913385826772
        },
        {
          "duration": 0.08771924999999925,
          "durationTicks": 96,
          "midi": 35,
          "name": "B1",
          "ticks": 32832,
          "time": 29.9999835,
          "velocity": 0.6692913385826772
        },
        {
          "duration": 0.08771924999999925,
          "durationTicks": 96,
          "midi": 46,
          "name": "A#2",
          "ticks": 32832,
          "time": 29.9999835,
          "velocity": 0.6692913385826772
        },
        {
          "duration": 0.08771924999999925,
          "durationTicks": 96,
          "midi": 36,
          "name": "C2",
          "ticks": 32832,
          "time": 29.9999835,
          "velocity": 0.6692913385826772
        },
        {
          "duration": 0.08771924999999925,
          "durationTicks": 96,
          "midi": 38,
          "name": "D2",
          "ticks": 32832,
          "time": 29.9999835,
          "velocity": 0.6692913385826772
        },
        {
          "duration": 0.08771924999999925,
          "durationTicks": 96,
          "midi": 46,
          "name": "A#2",
          "ticks": 33216,
          "time": 30.3508605,
          "velocity": 0.6692913385826772
        },
        {
          "duration": 0.08771924999999925,
          "durationTicks": 96,
          "midi": 35,
          "name": "B1",
          "ticks": 33216,
          "time": 30.3508605,
          "velocity": 0.6692913385826772
        },
        {
          "duration": 0.0877192500000028,
          "durationTicks": 96,
          "midi": 35,
          "name": "B1",
          "ticks": 33408,
          "time": 30.526298999999998,
          "velocity": 0.6692913385826772
        },
        {
          "duration": 0.08771924999999925,
          "durationTicks": 96,
          "midi": 36,
          "name": "C2",
          "ticks": 33600,
          "time": 30.7017375,
          "velocity": 0.6692913385826772
        },
        {
          "duration": 0.08771924999999925,
          "durationTicks": 96,
          "midi": 35,
          "name": "B1",
          "ticks": 33600,
          "time": 30.7017375,
          "velocity": 0.6692913385826772
        },
        {
          "duration": 0.08771924999999925,
          "durationTicks": 96,
          "midi": 46,
          "name": "A#2",
          "ticks": 33600,
          "time": 30.7017375,
          "velocity": 0.6692913385826772
        },
        {
          "duration": 0.08771924999999925,
          "durationTicks": 96,
          "midi": 38,
          "name": "D2",
          "ticks": 33600,
          "time": 30.7017375,
          "velocity": 0.6692913385826772
        },
        {
          "duration": 0.08771924999999925,
          "durationTicks": 96,
          "midi": 46,
          "name": "A#2",
          "ticks": 33984,
          "time": 31.0526145,
          "velocity": 0.6692913385826772
        },
        {
          "duration": 0.08771924999999925,
          "durationTicks": 96,
          "midi": 35,
          "name": "B1",
          "ticks": 33984,
          "time": 31.0526145,
          "velocity": 0.6692913385826772
        },
        {
          "duration": 0.08771924999999925,
          "durationTicks": 96,
          "midi": 35,
          "name": "B1",
          "ticks": 34176,
          "time": 31.228053,
          "velocity": 0.6692913385826772
        },
        {
          "duration": 0.08771924999999925,
          "durationTicks": 96,
          "midi": 38,
          "name": "D2",
          "ticks": 34368,
          "time": 31.4034915,
          "velocity": 0.6692913385826772
        },
        {
          "duration": 0.08771924999999925,
          "durationTicks": 96,
          "midi": 35,
          "name": "B1",
          "ticks": 34368,
          "time": 31.4034915,
          "velocity": 0.6692913385826772
        },
        {
          "duration": 0.08771924999999925,
          "durationTicks": 96,
          "midi": 36,
          "name": "C2",
          "ticks": 34368,
          "time": 31.4034915,
          "velocity": 0.6692913385826772
        },
        {
          "duration": 0.08771924999999925,
          "durationTicks": 96,
          "midi": 46,
          "name": "A#2",
          "ticks": 34368,
          "time": 31.4034915,
          "velocity": 0.6692913385826772
        },
        {
          "duration": 0.0877192500000028,
          "durationTicks": 96,
          "midi": 35,
          "name": "B1",
          "ticks": 34752,
          "time": 31.754368499999998,
          "velocity": 0.6692913385826772
        },
        {
          "duration": 0.0877192500000028,
          "durationTicks": 96,
          "midi": 46,
          "name": "A#2",
          "ticks": 34752,
          "time": 31.754368499999998,
          "velocity": 0.6692913385826772
        },
        {
          "duration": 0.0877192499999957,
          "durationTicks": 96,
          "midi": 35,
          "name": "B1",
          "ticks": 34944,
          "time": 31.929807,
          "velocity": 0.6692913385826772
        },
        {
          "duration": 0.08771924999999925,
          "durationTicks": 96,
          "midi": 46,
          "name": "A#2",
          "ticks": 35136,
          "time": 32.1052455,
          "velocity": 0.6692913385826772
        },
        {
          "duration": 0.08771924999999925,
          "durationTicks": 96,
          "midi": 35,
          "name": "B1",
          "ticks": 35136,
          "time": 32.1052455,
          "velocity": 0.6692913385826772
        },
        {
          "duration": 0.08771924999999925,
          "durationTicks": 96,
          "midi": 36,
          "name": "C2",
          "ticks": 35136,
          "time": 32.1052455,
          "velocity": 0.6692913385826772
        },
        {
          "duration": 0.08771924999999925,
          "durationTicks": 96,
          "midi": 38,
          "name": "D2",
          "ticks": 35136,
          "time": 32.1052455,
          "velocity": 0.6692913385826772
        },
        {
          "duration": 0.08771924999999925,
          "durationTicks": 96,
          "midi": 35,
          "name": "B1",
          "ticks": 35520,
          "time": 32.4561225,
          "velocity": 0.6692913385826772
        },
        {
          "duration": 0.08771924999999925,
          "durationTicks": 96,
          "midi": 46,
          "name": "A#2",
          "ticks": 35520,
          "time": 32.4561225,
          "velocity": 0.6692913385826772
        },
        {
          "duration": 0.08771924999999925,
          "durationTicks": 96,
          "midi": 35,
          "name": "B1",
          "ticks": 35712,
          "time": 32.631561,
          "velocity": 0.6692913385826772
        },
        {
          "duration": 0.08771925000000635,
          "durationTicks": 96,
          "midi": 36,
          "name": "C2",
          "ticks": 35904,
          "time": 32.806999499999996,
          "velocity": 0.6692913385826772
        },
        {
          "duration": 0.08771925000000635,
          "durationTicks": 96,
          "midi": 38,
          "name": "D2",
          "ticks": 35904,
          "time": 32.806999499999996,
          "velocity": 0.6692913385826772
        },
        {
          "duration": 0.08771925000000635,
          "durationTicks": 96,
          "midi": 46,
          "name": "A#2",
          "ticks": 35904,
          "time": 32.806999499999996,
          "velocity": 0.6692913385826772
        },
        {
          "duration": 0.08771925000000635,
          "durationTicks": 96,
          "midi": 35,
          "name": "B1",
          "ticks": 35904,
          "time": 32.806999499999996,
          "velocity": 0.6692913385826772
        },
        {
          "duration": 0.08771924999999925,
          "durationTicks": 96,
          "midi": 35,
          "name": "B1",
          "ticks": 36288,
          "time": 33.1578765,
          "velocity": 0.6692913385826772
        },
        {
          "duration": 0.08771924999999925,
          "durationTicks": 96,
          "midi": 46,
          "name": "A#2",
          "ticks": 36288,
          "time": 33.1578765,
          "velocity": 0.6692913385826772
        },
        {
          "duration": 0.08771924999999925,
          "durationTicks": 96,
          "midi": 35,
          "name": "B1",
          "ticks": 36480,
          "time": 33.333315,
          "velocity": 0.6692913385826772
        },
        {
          "duration": 0.08771924999999925,
          "durationTicks": 96,
          "midi": 38,
          "name": "D2",
          "ticks": 36672,
          "time": 33.5087535,
          "velocity": 0.6692913385826772
        },
        {
          "duration": 0.08771924999999925,
          "durationTicks": 96,
          "midi": 46,
          "name": "A#2",
          "ticks": 36672,
          "time": 33.5087535,
          "velocity": 0.6692913385826772
        },
        {
          "duration": 0.08771924999999925,
          "durationTicks": 96,
          "midi": 35,
          "name": "B1",
          "ticks": 36672,
          "time": 33.5087535,
          "velocity": 0.6692913385826772
        },
        {
          "duration": 0.08771924999999925,
          "durationTicks": 96,
          "midi": 36,
          "name": "C2",
          "ticks": 36672,
          "time": 33.5087535,
          "velocity": 0.6692913385826772
        },
        {
          "duration": 0.08771924999999925,
          "durationTicks": 96,
          "midi": 35,
          "name": "B1",
          "ticks": 37056,
          "time": 33.8596305,
          "velocity": 0.6692913385826772
        },
        {
          "duration": 0.08771924999999925,
          "durationTicks": 96,
          "midi": 46,
          "name": "A#2",
          "ticks": 37056,
          "time": 33.8596305,
          "velocity": 0.6692913385826772
        },
        {
          "duration": 0.08771924999999925,
          "durationTicks": 96,
          "midi": 35,
          "name": "B1",
          "ticks": 37248,
          "time": 34.035069,
          "velocity": 0.6692913385826772
        },
        {
          "duration": 0.08771924999999925,
          "durationTicks": 96,
          "midi": 35,
          "name": "B1",
          "ticks": 37440,
          "time": 34.2105075,
          "velocity": 0.6692913385826772
        },
        {
          "duration": 0.08771924999999925,
          "durationTicks": 96,
          "midi": 36,
          "name": "C2",
          "ticks": 37440,
          "time": 34.2105075,
          "velocity": 0.6692913385826772
        },
        {
          "duration": 0.08771924999999925,
          "durationTicks": 96,
          "midi": 46,
          "name": "A#2",
          "ticks": 37440,
          "time": 34.2105075,
          "velocity": 0.6692913385826772
        },
        {
          "duration": 0.08771924999999925,
          "durationTicks": 96,
          "midi": 38,
          "name": "D2",
          "ticks": 37440,
          "time": 34.2105075,
          "velocity": 0.6692913385826772
        },
        {
          "duration": 0.08771924999999925,
          "durationTicks": 96,
          "midi": 46,
          "name": "A#2",
          "ticks": 37824,
          "time": 34.5613845,
          "velocity": 0.6692913385826772
        },
        {
          "duration": 0.08771924999999925,
          "durationTicks": 96,
          "midi": 35,
          "name": "B1",
          "ticks": 37824,
          "time": 34.5613845,
          "velocity": 0.6692913385826772
        },
        {
          "duration": 0.08771924999999925,
          "durationTicks": 96,
          "midi": 35,
          "name": "B1",
          "ticks": 38016,
          "time": 34.736823,
          "velocity": 0.6692913385826772
        },
        {
          "duration": 0.08771924999999925,
          "durationTicks": 96,
          "midi": 38,
          "name": "D2",
          "ticks": 38208,
          "time": 34.9122615,
          "velocity": 0.6692913385826772
        },
        {
          "duration": 0.08771924999999925,
          "durationTicks": 96,
          "midi": 46,
          "name": "A#2",
          "ticks": 38208,
          "time": 34.9122615,
          "velocity": 0.6692913385826772
        },
        {
          "duration": 0.08771924999999925,
          "durationTicks": 96,
          "midi": 35,
          "name": "B1",
          "ticks": 38208,
          "time": 34.9122615,
          "velocity": 0.6692913385826772
        },
        {
          "duration": 0.08771924999999925,
          "durationTicks": 96,
          "midi": 36,
          "name": "C2",
          "ticks": 38208,
          "time": 34.9122615,
          "velocity": 0.6692913385826772
        },
        {
          "duration": 0.08771925000000635,
          "durationTicks": 96,
          "midi": 46,
          "name": "A#2",
          "ticks": 38592,
          "time": 35.2631385,
          "velocity": 0.6692913385826772
        },
        {
          "duration": 0.08771925000000635,
          "durationTicks": 96,
          "midi": 35,
          "name": "B1",
          "ticks": 38592,
          "time": 35.2631385,
          "velocity": 0.6692913385826772
        },
        {
          "duration": 0.08771924999999925,
          "durationTicks": 96,
          "midi": 35,
          "name": "B1",
          "ticks": 38784,
          "time": 35.438577,
          "velocity": 0.6692913385826772
        },
        {
          "duration": 0.08771924999999925,
          "durationTicks": 96,
          "midi": 35,
          "name": "B1",
          "ticks": 38976,
          "time": 35.6140155,
          "velocity": 0.6692913385826772
        },
        {
          "duration": 0.08771924999999925,
          "durationTicks": 96,
          "midi": 35,
          "name": "B1",
          "ticks": 38976,
          "time": 35.6140155,
          "velocity": 0.6692913385826772
        },
        {
          "duration": 0.08771924999999925,
          "durationTicks": 96,
          "midi": 38,
          "name": "D2",
          "ticks": 38976,
          "time": 35.6140155,
          "velocity": 0.6692913385826772
        },
        {
          "duration": 0.08771924999999925,
          "durationTicks": 96,
          "midi": 36,
          "name": "C2",
          "ticks": 38976,
          "time": 35.6140155,
          "velocity": 0.6692913385826772
        },
        {
          "duration": 0.08771924999999925,
          "durationTicks": 96,
          "midi": 46,
          "name": "A#2",
          "ticks": 38976,
          "time": 35.6140155,
          "velocity": 0.6692913385826772
        },
        {
          "duration": 0.08771924999999925,
          "durationTicks": 96,
          "midi": 35,
          "name": "B1",
          "ticks": 39360,
          "time": 35.9648925,
          "velocity": 0.6692913385826772
        },
        {
          "duration": 0.08771924999999925,
          "durationTicks": 96,
          "midi": 46,
          "name": "A#2",
          "ticks": 39360,
          "time": 35.9648925,
          "velocity": 0.6692913385826772
        },
        {
          "duration": 0.08771925000000635,
          "durationTicks": 96,
          "midi": 35,
          "name": "B1",
          "ticks": 39552,
          "time": 36.140330999999996,
          "velocity": 0.6692913385826772
        },
        {
          "duration": 0.08771924999999925,
          "durationTicks": 96,
          "midi": 46,
          "name": "A#2",
          "ticks": 39744,
          "time": 36.3157695,
          "velocity": 0.6692913385826772
        },
        {
          "duration": 0.08771924999999925,
          "durationTicks": 96,
          "midi": 35,
          "name": "B1",
          "ticks": 39744,
          "time": 36.3157695,
          "velocity": 0.6692913385826772
        },
        {
          "duration": 0.08771924999999925,
          "durationTicks": 96,
          "midi": 38,
          "name": "D2",
          "ticks": 39744,
          "time": 36.3157695,
          "velocity": 0.6692913385826772
        },
        {
          "duration": 0.08771924999999925,
          "durationTicks": 96,
          "midi": 36,
          "name": "C2",
          "ticks": 39744,
          "time": 36.3157695,
          "velocity": 0.6692913385826772
        },
        {
          "duration": 0.08771924999999925,
          "durationTicks": 96,
          "midi": 46,
          "name": "A#2",
          "ticks": 40128,
          "time": 36.6666465,
          "velocity": 0.6692913385826772
        },
        {
          "duration": 0.08771924999999925,
          "durationTicks": 96,
          "midi": 35,
          "name": "B1",
          "ticks": 40128,
          "time": 36.6666465,
          "velocity": 0.6692913385826772
        },
        {
          "duration": 0.08771924999999925,
          "durationTicks": 96,
          "midi": 35,
          "name": "B1",
          "ticks": 40320,
          "time": 36.842085,
          "velocity": 0.6692913385826772
        },
        {
          "duration": 0.08771924999999925,
          "durationTicks": 96,
          "midi": 38,
          "name": "D2",
          "ticks": 40512,
          "time": 37.0175235,
          "velocity": 0.6692913385826772
        },
        {
          "duration": 0.08771924999999925,
          "durationTicks": 96,
          "midi": 35,
          "name": "B1",
          "ticks": 40512,
          "time": 37.0175235,
          "velocity": 0.6692913385826772
        },
        {
          "duration": 0.08771924999999925,
          "durationTicks": 96,
          "midi": 46,
          "name": "A#2",
          "ticks": 40512,
          "time": 37.0175235,
          "velocity": 0.6692913385826772
        },
        {
          "duration": 0.08771924999999925,
          "durationTicks": 96,
          "midi": 36,
          "name": "C2",
          "ticks": 40512,
          "time": 37.0175235,
          "velocity": 0.6692913385826772
        },
        {
          "duration": 0.08771924999999925,
          "durationTicks": 96,
          "midi": 35,
          "name": "B1",
          "ticks": 40896,
          "time": 37.3684005,
          "velocity": 0.6692913385826772
        },
        {
          "duration": 0.08771924999999925,
          "durationTicks": 96,
          "midi": 46,
          "name": "A#2",
          "ticks": 40896,
          "time": 37.3684005,
          "velocity": 0.6692913385826772
        },
        {
          "duration": 0.08771924999999925,
          "durationTicks": 96,
          "midi": 35,
          "name": "B1",
          "ticks": 41088,
          "time": 37.543839,
          "velocity": 0.6692913385826772
        },
        {
          "duration": 0.08771924999999925,
          "durationTicks": 96,
          "midi": 36,
          "name": "C2",
          "ticks": 41280,
          "time": 37.7192775,
          "velocity": 0.6692913385826772
        },
        {
          "duration": 0.08771924999999925,
          "durationTicks": 96,
          "midi": 38,
          "name": "D2",
          "ticks": 41280,
          "time": 37.7192775,
          "velocity": 0.6692913385826772
        },
        {
          "duration": 0.08771924999999925,
          "durationTicks": 96,
          "midi": 46,
          "name": "A#2",
          "ticks": 41280,
          "time": 37.7192775,
          "velocity": 0.6692913385826772
        },
        {
          "duration": 0.08771924999999925,
          "durationTicks": 96,
          "midi": 35,
          "name": "B1",
          "ticks": 41280,
          "time": 37.7192775,
          "velocity": 0.6692913385826772
        },
        {
          "duration": 0.08771924999999925,
          "durationTicks": 96,
          "midi": 35,
          "name": "B1",
          "ticks": 41664,
          "time": 38.0701545,
          "velocity": 0.6692913385826772
        },
        {
          "duration": 0.08771924999999925,
          "durationTicks": 96,
          "midi": 46,
          "name": "A#2",
          "ticks": 41664,
          "time": 38.0701545,
          "velocity": 0.6692913385826772
        },
        {
          "duration": 0.08771924999999925,
          "durationTicks": 96,
          "midi": 35,
          "name": "B1",
          "ticks": 41856,
          "time": 38.245593,
          "velocity": 0.6692913385826772
        },
        {
          "duration": 0.08771924999999925,
          "durationTicks": 96,
          "midi": 46,
          "name": "A#2",
          "ticks": 42048,
          "time": 38.4210315,
          "velocity": 0.6692913385826772
        },
        {
          "duration": 0.08771924999999925,
          "durationTicks": 96,
          "midi": 36,
          "name": "C2",
          "ticks": 42048,
          "time": 38.4210315,
          "velocity": 0.6692913385826772
        },
        {
          "duration": 0.08771924999999925,
          "durationTicks": 96,
          "midi": 35,
          "name": "B1",
          "ticks": 42048,
          "time": 38.4210315,
          "velocity": 0.6692913385826772
        },
        {
          "duration": 0.08771924999999925,
          "durationTicks": 96,
          "midi": 38,
          "name": "D2",
          "ticks": 42048,
          "time": 38.4210315,
          "velocity": 0.6692913385826772
        },
        {
          "duration": 0.08771924999999925,
          "durationTicks": 96,
          "midi": 46,
          "name": "A#2",
          "ticks": 42432,
          "time": 38.7719085,
          "velocity": 0.6692913385826772
        },
        {
          "duration": 0.08771924999999925,
          "durationTicks": 96,
          "midi": 35,
          "name": "B1",
          "ticks": 42432,
          "time": 38.7719085,
          "velocity": 0.6692913385826772
        },
        {
          "duration": 0.08771924999999925,
          "durationTicks": 96,
          "midi": 35,
          "name": "B1",
          "ticks": 42624,
          "time": 38.947347,
          "velocity": 0.6692913385826772
        },
        {
          "duration": 0.08771924999999925,
          "durationTicks": 96,
          "midi": 36,
          "name": "C2",
          "ticks": 42816,
          "time": 39.1227855,
          "velocity": 0.6692913385826772
        },
        {
          "duration": 0.08771924999999925,
          "durationTicks": 96,
          "midi": 35,
          "name": "B1",
          "ticks": 42816,
          "time": 39.1227855,
          "velocity": 0.6692913385826772
        },
        {
          "duration": 0.08771924999999925,
          "durationTicks": 96,
          "midi": 46,
          "name": "A#2",
          "ticks": 42816,
          "time": 39.1227855,
          "velocity": 0.6692913385826772
        },
        {
          "duration": 0.08771924999999925,
          "durationTicks": 96,
          "midi": 38,
          "name": "D2",
          "ticks": 42816,
          "time": 39.1227855,
          "velocity": 0.6692913385826772
        },
        {
          "duration": 0.08771925000000635,
          "durationTicks": 96,
          "midi": 46,
          "name": "A#2",
          "ticks": 43200,
          "time": 39.473662499999996,
          "velocity": 0.6692913385826772
        },
        {
          "duration": 0.08771925000000635,
          "durationTicks": 96,
          "midi": 35,
          "name": "B1",
          "ticks": 43200,
          "time": 39.473662499999996,
          "velocity": 0.6692913385826772
        },
        {
          "duration": 0.08771924999999925,
          "durationTicks": 96,
          "midi": 35,
          "name": "B1",
          "ticks": 43392,
          "time": 39.649101,
          "velocity": 0.6692913385826772
        },
        {
          "duration": 0.08771924999999925,
          "durationTicks": 96,
          "midi": 35,
          "name": "B1",
          "ticks": 43584,
          "time": 39.8245395,
          "velocity": 0.6692913385826772
        },
        {
          "duration": 0.08771924999999925,
          "durationTicks": 96,
          "midi": 36,
          "name": "C2",
          "ticks": 43584,
          "time": 39.8245395,
          "velocity": 0.6692913385826772
        },
        {
          "duration": 0.08771924999999925,
          "durationTicks": 96,
          "midi": 38,
          "name": "D2",
          "ticks": 43584,
          "time": 39.8245395,
          "velocity": 0.6692913385826772
        },
        {
          "duration": 0.08771924999999925,
          "durationTicks": 96,
          "midi": 46,
          "name": "A#2",
          "ticks": 43584,
          "time": 39.8245395,
          "velocity": 0.6692913385826772
        },
        {
          "duration": 0.08771924999999925,
          "durationTicks": 96,
          "midi": 35,
          "name": "B1",
          "ticks": 43968,
          "time": 40.1754165,
          "velocity": 0.6692913385826772
        },
        {
          "duration": 0.08771924999999925,
          "durationTicks": 96,
          "midi": 46,
          "name": "A#2",
          "ticks": 43968,
          "time": 40.1754165,
          "velocity": 0.6692913385826772
        },
        {
          "duration": 0.08771924999999925,
          "durationTicks": 96,
          "midi": 35,
          "name": "B1",
          "ticks": 44160,
          "time": 40.350855,
          "velocity": 0.6692913385826772
        },
        {
          "duration": 0.08771924999999925,
          "durationTicks": 96,
          "midi": 36,
          "name": "C2",
          "ticks": 44352,
          "time": 40.5262935,
          "velocity": 0.6692913385826772
        },
        {
          "duration": 0.08771924999999925,
          "durationTicks": 96,
          "midi": 35,
          "name": "B1",
          "ticks": 44352,
          "time": 40.5262935,
          "velocity": 0.6692913385826772
        },
        {
          "duration": 0.08771924999999925,
          "durationTicks": 96,
          "midi": 38,
          "name": "D2",
          "ticks": 44352,
          "time": 40.5262935,
          "velocity": 0.6692913385826772
        },
        {
          "duration": 0.08771924999999925,
          "durationTicks": 96,
          "midi": 46,
          "name": "A#2",
          "ticks": 44352,
          "time": 40.5262935,
          "velocity": 0.6692913385826772
        },
        {
          "duration": 0.08771924999999925,
          "durationTicks": 96,
          "midi": 46,
          "name": "A#2",
          "ticks": 44736,
          "time": 40.8771705,
          "velocity": 0.6692913385826772
        },
        {
          "duration": 0.08771924999999925,
          "durationTicks": 96,
          "midi": 35,
          "name": "B1",
          "ticks": 44736,
          "time": 40.8771705,
          "velocity": 0.6692913385826772
        },
        {
          "duration": 0.08771924999999925,
          "durationTicks": 96,
          "midi": 35,
          "name": "B1",
          "ticks": 44928,
          "time": 41.052609,
          "velocity": 0.6692913385826772
        },
        {
          "duration": 0.08771924999999925,
          "durationTicks": 96,
          "midi": 46,
          "name": "A#2",
          "ticks": 45120,
          "time": 41.2280475,
          "velocity": 0.6692913385826772
        },
        {
          "duration": 0.08771924999999925,
          "durationTicks": 96,
          "midi": 35,
          "name": "B1",
          "ticks": 45120,
          "time": 41.2280475,
          "velocity": 0.6692913385826772
        },
        {
          "duration": 0.08771924999999925,
          "durationTicks": 96,
          "midi": 36,
          "name": "C2",
          "ticks": 45120,
          "time": 41.2280475,
          "velocity": 0.6692913385826772
        },
        {
          "duration": 0.08771924999999925,
          "durationTicks": 96,
          "midi": 38,
          "name": "D2",
          "ticks": 45120,
          "time": 41.2280475,
          "velocity": 0.6692913385826772
        },
        {
          "duration": 0.08771924999999925,
          "durationTicks": 96,
          "midi": 35,
          "name": "B1",
          "ticks": 45504,
          "time": 41.5789245,
          "velocity": 0.6692913385826772
        },
        {
          "duration": 0.08771924999999925,
          "durationTicks": 96,
          "midi": 46,
          "name": "A#2",
          "ticks": 45504,
          "time": 41.5789245,
          "velocity": 0.6692913385826772
        },
        {
          "duration": 0.08771924999999925,
          "durationTicks": 96,
          "midi": 35,
          "name": "B1",
          "ticks": 45696,
          "time": 41.754363,
          "velocity": 0.6692913385826772
        },
        {
          "duration": 0.08771925000000635,
          "durationTicks": 96,
          "midi": 36,
          "name": "C2",
          "ticks": 45888,
          "time": 41.929801499999996,
          "velocity": 0.6692913385826772
        },
        {
          "duration": 0.08771925000000635,
          "durationTicks": 96,
          "midi": 46,
          "name": "A#2",
          "ticks": 45888,
          "time": 41.929801499999996,
          "velocity": 0.6692913385826772
        },
        {
          "duration": 0.08771925000000635,
          "durationTicks": 96,
          "midi": 35,
          "name": "B1",
          "ticks": 45888,
          "time": 41.929801499999996,
          "velocity": 0.6692913385826772
        },
        {
          "duration": 0.08771925000000635,
          "durationTicks": 96,
          "midi": 38,
          "name": "D2",
          "ticks": 45888,
          "time": 41.929801499999996,
          "velocity": 0.6692913385826772
        },
        {
          "duration": 0.08771924999999925,
          "durationTicks": 96,
          "midi": 35,
          "name": "B1",
          "ticks": 46272,
          "time": 42.2806785,
          "velocity": 0.6692913385826772
        },
        {
          "duration": 0.08771924999999925,
          "durationTicks": 96,
          "midi": 46,
          "name": "A#2",
          "ticks": 46272,
          "time": 42.2806785,
          "velocity": 0.6692913385826772
        },
        {
          "duration": 0.08771924999999925,
          "durationTicks": 96,
          "midi": 35,
          "name": "B1",
          "ticks": 46464,
          "time": 42.456117,
          "velocity": 0.6692913385826772
        },
        {
          "duration": 0.08771924999999925,
          "durationTicks": 96,
          "midi": 38,
          "name": "D2",
          "ticks": 46656,
          "time": 42.6315555,
          "velocity": 0.6692913385826772
        },
        {
          "duration": 0.08771924999999925,
          "durationTicks": 96,
          "midi": 36,
          "name": "C2",
          "ticks": 46656,
          "time": 42.6315555,
          "velocity": 0.6692913385826772
        },
        {
          "duration": 0.08771924999999925,
          "durationTicks": 96,
          "midi": 35,
          "name": "B1",
          "ticks": 46656,
          "time": 42.6315555,
          "velocity": 0.6692913385826772
        },
        {
          "duration": 0.08771924999999925,
          "durationTicks": 96,
          "midi": 46,
          "name": "A#2",
          "ticks": 46656,
          "time": 42.6315555,
          "velocity": 0.6692913385826772
        },
        {
          "duration": 0.08771924999999925,
          "durationTicks": 96,
          "midi": 46,
          "name": "A#2",
          "ticks": 47040,
          "time": 42.9824325,
          "velocity": 0.6692913385826772
        },
        {
          "duration": 0.08771924999999925,
          "durationTicks": 96,
          "midi": 35,
          "name": "B1",
          "ticks": 47040,
          "time": 42.9824325,
          "velocity": 0.6692913385826772
        },
        {
          "duration": 0.08771924999999925,
          "durationTicks": 96,
          "midi": 35,
          "name": "B1",
          "ticks": 47232,
          "time": 43.157871,
          "velocity": 0.6692913385826772
        },
        {
          "duration": 0.08771924999999925,
          "durationTicks": 96,
          "midi": 38,
          "name": "D2",
          "ticks": 47424,
          "time": 43.3333095,
          "velocity": 0.6692913385826772
        },
        {
          "duration": 0.08771924999999925,
          "durationTicks": 96,
          "midi": 35,
          "name": "B1",
          "ticks": 47424,
          "time": 43.3333095,
          "velocity": 0.6692913385826772
        },
        {
          "duration": 0.08771924999999925,
          "durationTicks": 96,
          "midi": 36,
          "name": "C2",
          "ticks": 47424,
          "time": 43.3333095,
          "velocity": 0.6692913385826772
        },
        {
          "duration": 0.08771924999999925,
          "durationTicks": 96,
          "midi": 46,
          "name": "A#2",
          "ticks": 47424,
          "time": 43.3333095,
          "velocity": 0.6692913385826772
        },
        {
          "duration": 0.08771924999999925,
          "durationTicks": 96,
          "midi": 35,
          "name": "B1",
          "ticks": 47808,
          "time": 43.6841865,
          "velocity": 0.6692913385826772
        },
        {
          "duration": 0.08771924999999925,
          "durationTicks": 96,
          "midi": 46,
          "name": "A#2",
          "ticks": 47808,
          "time": 43.6841865,
          "velocity": 0.6692913385826772
        },
        {
          "duration": 0.08771924999999925,
          "durationTicks": 96,
          "midi": 35,
          "name": "B1",
          "ticks": 48000,
          "time": 43.859625,
          "velocity": 0.6692913385826772
        },
        {
          "duration": 0.08771924999999925,
          "durationTicks": 96,
          "midi": 36,
          "name": "C2",
          "ticks": 48192,
          "time": 44.0350635,
          "velocity": 0.6692913385826772
        },
        {
          "duration": 0.08771924999999925,
          "durationTicks": 96,
          "midi": 35,
          "name": "B1",
          "ticks": 48192,
          "time": 44.0350635,
          "velocity": 0.6692913385826772
        },
        {
          "duration": 0.08771924999999925,
          "durationTicks": 96,
          "midi": 38,
          "name": "D2",
          "ticks": 48192,
          "time": 44.0350635,
          "velocity": 0.6692913385826772
        },
        {
          "duration": 0.08771924999999925,
          "durationTicks": 96,
          "midi": 35,
          "name": "B1",
          "ticks": 48192,
          "time": 44.0350635,
          "velocity": 0.6692913385826772
        },
        {
          "duration": 0.08771924999999925,
          "durationTicks": 96,
          "midi": 46,
          "name": "A#2",
          "ticks": 48192,
          "time": 44.0350635,
          "velocity": 0.6692913385826772
        },
        {
          "duration": 0.08771924999999925,
          "durationTicks": 96,
          "midi": 46,
          "name": "A#2",
          "ticks": 48384,
          "time": 44.210502,
          "velocity": 0.6692913385826772
        },
        {
          "duration": 0.08771924999999925,
          "durationTicks": 96,
          "midi": 35,
          "name": "B1",
          "ticks": 48576,
          "time": 44.3859405,
          "velocity": 0.6692913385826772
        },
        {
          "duration": 0.08771924999999925,
          "durationTicks": 96,
          "midi": 35,
          "name": "B1",
          "ticks": 48768,
          "time": 44.561379,
          "velocity": 0.6692913385826772
        },
        {
          "duration": 0.08771924999999925,
          "durationTicks": 96,
          "midi": 35,
          "name": "B1",
          "ticks": 48960,
          "time": 44.7368175,
          "velocity": 0.6692913385826772
        },
        {
          "duration": 0.08771924999999925,
          "durationTicks": 96,
          "midi": 38,
          "name": "D2",
          "ticks": 48960,
          "time": 44.7368175,
          "velocity": 0.6692913385826772
        },
        {
          "duration": 0.08771924999999925,
          "durationTicks": 96,
          "midi": 46,
          "name": "A#2",
          "ticks": 48960,
          "time": 44.7368175,
          "velocity": 0.6692913385826772
        },
        {
          "duration": 0.08771924999999925,
          "durationTicks": 96,
          "midi": 36,
          "name": "C2",
          "ticks": 48960,
          "time": 44.7368175,
          "velocity": 0.6692913385826772
        },
        {
          "duration": 0.08771924999999925,
          "durationTicks": 96,
          "midi": 35,
          "name": "B1",
          "ticks": 49344,
          "time": 45.0876945,
          "velocity": 0.6692913385826772
        },
        {
          "duration": 0.08771924999999925,
          "durationTicks": 96,
          "midi": 46,
          "name": "A#2",
          "ticks": 49728,
          "time": 45.4385715,
          "velocity": 0.6692913385826772
        },
        {
          "duration": 0.08771924999999925,
          "durationTicks": 96,
          "midi": 35,
          "name": "B1",
          "ticks": 50112,
          "time": 45.7894485,
          "velocity": 0.6692913385826772
        },
        {
          "duration": 0.08771924999999925,
          "durationTicks": 96,
          "midi": 40,
          "name": "E2",
          "ticks": 50112,
          "time": 45.7894485,
          "velocity": 0.6692913385826772
        },
        {
          "duration": 0.08771924999999925,
          "durationTicks": 96,
          "midi": 38,
          "name": "D2",
          "ticks": 50112,
          "time": 45.7894485,
          "velocity": 0.6692913385826772
        },
        {
          "duration": 0.08771924999999925,
          "durationTicks": 96,
          "midi": 35,
          "name": "B1",
          "ticks": 50880,
          "time": 46.4912025,
          "velocity": 0.6692913385826772
        },
        {
          "duration": 0.08771924999999925,
          "durationTicks": 96,
          "midi": 46,
          "name": "A#2",
          "ticks": 51264,
          "time": 46.8420795,
          "velocity": 0.6692913385826772
        },
        {
          "duration": 0.08771924999999925,
          "durationTicks": 96,
          "midi": 35,
          "name": "B1",
          "ticks": 51648,
          "time": 47.1929565,
          "velocity": 0.6692913385826772
        },
        {
          "duration": 0.08771924999999925,
          "durationTicks": 96,
          "midi": 38,
          "name": "D2",
          "ticks": 51648,
          "time": 47.1929565,
          "velocity": 0.6692913385826772
        },
        {
          "duration": 0.08771924999999925,
          "durationTicks": 96,
          "midi": 40,
          "name": "E2",
          "ticks": 51648,
          "time": 47.1929565,
          "velocity": 0.6692913385826772
        },
        {
          "duration": 0.08771924999999925,
          "durationTicks": 96,
          "midi": 35,
          "name": "B1",
          "ticks": 52416,
          "time": 47.8947105,
          "velocity": 0.6692913385826772
        },
        {
          "duration": 0.08771924999999925,
          "durationTicks": 96,
          "midi": 46,
          "name": "A#2",
          "ticks": 52800,
          "time": 48.2455875,
          "velocity": 0.6692913385826772
        },
        {
          "duration": 0.08771925000000635,
          "durationTicks": 96,
          "midi": 35,
          "name": "B1",
          "ticks": 53184,
          "time": 48.596464499999996,
          "velocity": 0.6692913385826772
        },
        {
          "duration": 0.08771925000000635,
          "durationTicks": 96,
          "midi": 38,
          "name": "D2",
          "ticks": 53184,
          "time": 48.596464499999996,
          "velocity": 0.6692913385826772
        },
        {
          "duration": 0.08771925000000635,
          "durationTicks": 96,
          "midi": 40,
          "name": "E2",
          "ticks": 53184,
          "time": 48.596464499999996,
          "velocity": 0.6692913385826772
        },
        {
          "duration": 0.08771924999999925,
          "durationTicks": 96,
          "midi": 35,
          "name": "B1",
          "ticks": 53952,
          "time": 49.2982185,
          "velocity": 0.6692913385826772
        },
        {
          "duration": 0.08771924999999925,
          "durationTicks": 96,
          "midi": 46,
          "name": "A#2",
          "ticks": 54336,
          "time": 49.6490955,
          "velocity": 0.6692913385826772
        },
        {
          "duration": 0.08771924999999925,
          "durationTicks": 96,
          "midi": 38,
          "name": "D2",
          "ticks": 54720,
          "time": 49.9999725,
          "velocity": 0.6692913385826772
        },
        {
          "duration": 0.08771924999999925,
          "durationTicks": 96,
          "midi": 40,
          "name": "E2",
          "ticks": 54720,
          "time": 49.9999725,
          "velocity": 0.6692913385826772
        },
        {
          "duration": 0.08771924999999925,
          "durationTicks": 96,
          "midi": 35,
          "name": "B1",
          "ticks": 54720,
          "time": 49.9999725,
          "velocity": 0.6692913385826772
        },
        {
          "duration": 0.08771924999999925,
          "durationTicks": 96,
          "midi": 35,
          "name": "B1",
          "ticks": 55488,
          "time": 50.7017265,
          "velocity": 0.6692913385826772
        },
        {
          "duration": 0.08771924999999925,
          "durationTicks": 96,
          "midi": 46,
          "name": "A#2",
          "ticks": 55872,
          "time": 51.0526035,
          "velocity": 0.6692913385826772
        },
        {
          "duration": 0.08771924999999925,
          "durationTicks": 96,
          "midi": 38,
          "name": "D2",
          "ticks": 56256,
          "time": 51.4034805,
          "velocity": 0.6692913385826772
        },
        {
          "duration": 0.08771924999999925,
          "durationTicks": 96,
          "midi": 35,
          "name": "B1",
          "ticks": 56256,
          "time": 51.4034805,
          "velocity": 0.6692913385826772
        },
        {
          "duration": 0.08771924999999925,
          "durationTicks": 96,
          "midi": 40,
          "name": "E2",
          "ticks": 56256,
          "time": 51.4034805,
          "velocity": 0.6692913385826772
        },
        {
          "duration": 0.08771924999999925,
          "durationTicks": 96,
          "midi": 35,
          "name": "B1",
          "ticks": 57024,
          "time": 52.1052345,
          "velocity": 0.6692913385826772
        },
        {
          "duration": 0.08771924999999925,
          "durationTicks": 96,
          "midi": 46,
          "name": "A#2",
          "ticks": 57408,
          "time": 52.4561115,
          "velocity": 0.6692913385826772
        },
        {
          "duration": 0.08771925000000635,
          "durationTicks": 96,
          "midi": 35,
          "name": "B1",
          "ticks": 57792,
          "time": 52.806988499999996,
          "velocity": 0.6692913385826772
        },
        {
          "duration": 0.08771925000000635,
          "durationTicks": 96,
          "midi": 38,
          "name": "D2",
          "ticks": 57792,
          "time": 52.806988499999996,
          "velocity": 0.6692913385826772
        },
        {
          "duration": 0.08771925000000635,
          "durationTicks": 96,
          "midi": 40,
          "name": "E2",
          "ticks": 57792,
          "time": 52.806988499999996,
          "velocity": 0.6692913385826772
        },
        {
          "duration": 0.08771924999999925,
          "durationTicks": 96,
          "midi": 35,
          "name": "B1",
          "ticks": 58560,
          "time": 53.5087425,
          "velocity": 0.6692913385826772
        },
        {
          "duration": 0.08771924999999925,
          "durationTicks": 96,
          "midi": 46,
          "name": "A#2",
          "ticks": 58944,
          "time": 53.8596195,
          "velocity": 0.6692913385826772
        },
        {
          "duration": 0.08771924999999925,
          "durationTicks": 96,
          "midi": 40,
          "name": "E2",
          "ticks": 59328,
          "time": 54.2104965,
          "velocity": 0.6692913385826772
        },
        {
          "duration": 0.08771924999999925,
          "durationTicks": 96,
          "midi": 38,
          "name": "D2",
          "ticks": 59328,
          "time": 54.2104965,
          "velocity": 0.6692913385826772
        },
        {
          "duration": 0.08771924999999925,
          "durationTicks": 96,
          "midi": 35,
          "name": "B1",
          "ticks": 59328,
          "time": 54.2104965,
          "velocity": 0.6692913385826772
        },
        {
          "duration": 0.08771924999999925,
          "durationTicks": 96,
          "midi": 35,
          "name": "B1",
          "ticks": 60096,
          "time": 54.9122505,
          "velocity": 0.6692913385826772
        },
        {
          "duration": 0.08771925000000635,
          "durationTicks": 96,
          "midi": 46,
          "name": "A#2",
          "ticks": 60480,
          "time": 55.263127499999996,
          "velocity": 0.6692913385826772
        },
        {
          "duration": 0.08771924999999925,
          "durationTicks": 96,
          "midi": 35,
          "name": "B1",
          "ticks": 60864,
          "time": 55.6140045,
          "velocity": 0.6692913385826772
        },
        {
          "duration": 0.08771924999999925,
          "durationTicks": 96,
          "midi": 40,
          "name": "E2",
          "ticks": 60864,
          "time": 55.6140045,
          "velocity": 0.6692913385826772
        },
        {
          "duration": 0.08771924999999925,
          "durationTicks": 96,
          "midi": 38,
          "name": "D2",
          "ticks": 60864,
          "time": 55.6140045,
          "velocity": 0.6692913385826772
        },
        {
          "duration": 0.08771924999999925,
          "durationTicks": 96,
          "midi": 35,
          "name": "B1",
          "ticks": 61632,
          "time": 56.3157585,
          "velocity": 0.6692913385826772
        },
        {
          "duration": 0.08771924999999925,
          "durationTicks": 96,
          "midi": 46,
          "name": "A#2",
          "ticks": 62016,
          "time": 56.6666355,
          "velocity": 0.6692913385826772
        },
        {
          "duration": 0.08771924999999925,
          "durationTicks": 96,
          "midi": 35,
          "name": "B1",
          "ticks": 62400,
          "time": 57.0175125,
          "velocity": 0.6692913385826772
        },
        {
          "duration": 0.08771924999999925,
          "durationTicks": 96,
          "midi": 38,
          "name": "D2",
          "ticks": 62400,
          "time": 57.0175125,
          "velocity": 0.6692913385826772
        },
        {
          "duration": 0.08771924999999925,
          "durationTicks": 96,
          "midi": 40,
          "name": "E2",
          "ticks": 62400,
          "time": 57.0175125,
          "velocity": 0.6692913385826772
        },
        {
          "duration": 0.08771925000000635,
          "durationTicks": 96,
          "midi": 35,
          "name": "B1",
          "ticks": 63168,
          "time": 57.719266499999996,
          "velocity": 0.6692913385826772
        },
        {
          "duration": 0.08771924999999925,
          "durationTicks": 96,
          "midi": 46,
          "name": "A#2",
          "ticks": 63552,
          "time": 58.0701435,
          "velocity": 0.6692913385826772
        },
        {
          "duration": 0.08771924999999925,
          "durationTicks": 96,
          "midi": 38,
          "name": "D2",
          "ticks": 63936,
          "time": 58.4210205,
          "velocity": 0.6692913385826772
        },
        {
          "duration": 0.08771924999999925,
          "durationTicks": 96,
          "midi": 40,
          "name": "E2",
          "ticks": 63936,
          "time": 58.4210205,
          "velocity": 0.6692913385826772
        },
        {
          "duration": 0.08771924999999925,
          "durationTicks": 96,
          "midi": 35,
          "name": "B1",
          "ticks": 63936,
          "time": 58.4210205,
          "velocity": 0.6692913385826772
        },
        {
          "duration": 0.08771924999999925,
          "durationTicks": 96,
          "midi": 35,
          "name": "B1",
          "ticks": 64704,
          "time": 59.1227745,
          "velocity": 0.6692913385826772
        },
        {
          "duration": 0.08771924999999925,
          "durationTicks": 96,
          "midi": 46,
          "name": "A#2",
          "ticks": 65088,
          "time": 59.4736515,
          "velocity": 0.6692913385826772
        },
        {
          "duration": 0.08771924999999925,
          "durationTicks": 96,
          "midi": 38,
          "name": "D2",
          "ticks": 65472,
          "time": 59.8245285,
          "velocity": 0.6692913385826772
        },
        {
          "duration": 0.08771924999999925,
          "durationTicks": 96,
          "midi": 35,
          "name": "B1",
          "ticks": 65472,
          "time": 59.8245285,
          "velocity": 0.6692913385826772
        },
        {
          "duration": 0.08771924999999925,
          "durationTicks": 96,
          "midi": 40,
          "name": "E2",
          "ticks": 65472,
          "time": 59.8245285,
          "velocity": 0.6692913385826772
        },
        {
          "duration": 0.08771924999999925,
          "durationTicks": 96,
          "midi": 35,
          "name": "B1",
          "ticks": 66240,
          "time": 60.5262825,
          "velocity": 0.6692913385826772
        },
        {
          "duration": 0.08771924999999925,
          "durationTicks": 96,
          "midi": 46,
          "name": "A#2",
          "ticks": 66624,
          "time": 60.8771595,
          "velocity": 0.6692913385826772
        },
        {
          "duration": 0.08771924999999925,
          "durationTicks": 96,
          "midi": 35,
          "name": "B1",
          "ticks": 67008,
          "time": 61.2280365,
          "velocity": 0.6692913385826772
        },
        {
          "duration": 0.08771924999999925,
          "durationTicks": 96,
          "midi": 40,
          "name": "E2",
          "ticks": 67008,
          "time": 61.2280365,
          "velocity": 0.6692913385826772
        },
        {
          "duration": 0.08771924999999925,
          "durationTicks": 96,
          "midi": 38,
          "name": "D2",
          "ticks": 67008,
          "time": 61.2280365,
          "velocity": 0.6692913385826772
        },
        {
          "duration": 0.08771925000000635,
          "durationTicks": 96,
          "midi": 35,
          "name": "B1",
          "ticks": 67776,
          "time": 61.929790499999996,
          "velocity": 0.6692913385826772
        },
        {
          "duration": 0.08771924999999925,
          "durationTicks": 96,
          "midi": 46,
          "name": "A#2",
          "ticks": 68160,
          "time": 62.2806675,
          "velocity": 0.6692913385826772
        },
        {
          "duration": 0.08771924999999925,
          "durationTicks": 96,
          "midi": 38,
          "name": "D2",
          "ticks": 68544,
          "time": 62.6315445,
          "velocity": 0.6692913385826772
        },
        {
          "duration": 0.08771924999999925,
          "durationTicks": 96,
          "midi": 35,
          "name": "B1",
          "ticks": 68544,
          "time": 62.6315445,
          "velocity": 0.6692913385826772
        },
        {
          "duration": 0.08771924999999925,
          "durationTicks": 96,
          "midi": 40,
          "name": "E2",
          "ticks": 68544,
          "time": 62.6315445,
          "velocity": 0.6692913385826772
        },
        {
          "duration": 0.08771924999999925,
          "durationTicks": 96,
          "midi": 35,
          "name": "B1",
          "ticks": 69312,
          "time": 63.3332985,
          "velocity": 0.6692913385826772
        },
        {
          "duration": 0.08771924999999925,
          "durationTicks": 96,
          "midi": 46,
          "name": "A#2",
          "ticks": 69696,
          "time": 63.6841755,
          "velocity": 0.6692913385826772
        },
        {
          "duration": 0.08771925000000635,
          "durationTicks": 96,
          "midi": 35,
          "name": "B1",
          "ticks": 70080,
          "time": 64.03505249999999,
          "velocity": 0.6692913385826772
        },
        {
          "duration": 0.08771925000000635,
          "durationTicks": 96,
          "midi": 38,
          "name": "D2",
          "ticks": 70080,
          "time": 64.03505249999999,
          "velocity": 0.6692913385826772
        },
        {
          "duration": 0.08771925000000635,
          "durationTicks": 96,
          "midi": 40,
          "name": "E2",
          "ticks": 70080,
          "time": 64.03505249999999,
          "velocity": 0.6692913385826772
        },
        {
          "duration": 0.08771924999999214,
          "durationTicks": 96,
          "midi": 35,
          "name": "B1",
          "ticks": 70848,
          "time": 64.7368065,
          "velocity": 0.6692913385826772
        },
        {
          "duration": 0.08771925000000635,
          "durationTicks": 96,
          "midi": 46,
          "name": "A#2",
          "ticks": 71232,
          "time": 65.0876835,
          "velocity": 0.6692913385826772
        },
        {
          "duration": 0.08771925000000635,
          "durationTicks": 96,
          "midi": 40,
          "name": "E2",
          "ticks": 71616,
          "time": 65.4385605,
          "velocity": 0.6692913385826772
        },
        {
          "duration": 0.08771925000000635,
          "durationTicks": 96,
          "midi": 35,
          "name": "B1",
          "ticks": 71616,
          "time": 65.4385605,
          "velocity": 0.6692913385826772
        },
        {
          "duration": 0.08771925000000635,
          "durationTicks": 96,
          "midi": 38,
          "name": "D2",
          "ticks": 71616,
          "time": 65.4385605,
          "velocity": 0.6692913385826772
        },
        {
          "duration": 0.08771925000000635,
          "durationTicks": 96,
          "midi": 46,
          "name": "A#2",
          "ticks": 74016,
          "time": 67.63154175,
          "velocity": 0.6692913385826772
        },
        {
          "duration": 0.08771925000000635,
          "durationTicks": 96,
          "midi": 35,
          "name": "B1",
          "ticks": 74016,
          "time": 67.63154175,
          "velocity": 0.6692913385826772
        },
        {
          "duration": 0.08771925000000635,
          "durationTicks": 96,
          "midi": 35,
          "name": "B1",
          "ticks": 74208,
          "time": 67.80698025,
          "velocity": 0.6692913385826772
        },
        {
          "duration": 0.08771925000000635,
          "durationTicks": 96,
          "midi": 35,
          "name": "B1",
          "ticks": 74400,
          "time": 67.98241875,
          "velocity": 0.6692913385826772
        },
        {
          "duration": 0.08771925000000635,
          "durationTicks": 96,
          "midi": 38,
          "name": "D2",
          "ticks": 74400,
          "time": 67.98241875,
          "velocity": 0.6692913385826772
        },
        {
          "duration": 0.08771925000000635,
          "durationTicks": 96,
          "midi": 46,
          "name": "A#2",
          "ticks": 74400,
          "time": 67.98241875,
          "velocity": 0.6692913385826772
        },
        {
          "duration": 0.08771925000000635,
          "durationTicks": 96,
          "midi": 36,
          "name": "C2",
          "ticks": 74400,
          "time": 67.98241875,
          "velocity": 0.6692913385826772
        },
        {
          "duration": 0.08771924999999214,
          "durationTicks": 96,
          "midi": 46,
          "name": "A#2",
          "ticks": 74784,
          "time": 68.33329575,
          "velocity": 0.6692913385826772
        },
        {
          "duration": 0.08771924999999214,
          "durationTicks": 96,
          "midi": 35,
          "name": "B1",
          "ticks": 74784,
          "time": 68.33329575,
          "velocity": 0.6692913385826772
        },
        {
          "duration": 0.08771924999999214,
          "durationTicks": 96,
          "midi": 35,
          "name": "B1",
          "ticks": 74976,
          "time": 68.50873425,
          "velocity": 0.6692913385826772
        },
        {
          "duration": 0.08771924999999214,
          "durationTicks": 96,
          "midi": 46,
          "name": "A#2",
          "ticks": 75168,
          "time": 68.68417275,
          "velocity": 0.6692913385826772
        },
        {
          "duration": 0.08771924999999214,
          "durationTicks": 96,
          "midi": 36,
          "name": "C2",
          "ticks": 75168,
          "time": 68.68417275,
          "velocity": 0.6692913385826772
        },
        {
          "duration": 0.08771924999999214,
          "durationTicks": 96,
          "midi": 35,
          "name": "B1",
          "ticks": 75168,
          "time": 68.68417275,
          "velocity": 0.6692913385826772
        },
        {
          "duration": 0.08771924999999214,
          "durationTicks": 96,
          "midi": 38,
          "name": "D2",
          "ticks": 75168,
          "time": 68.68417275,
          "velocity": 0.6692913385826772
        },
        {
          "duration": 0.08771925000000635,
          "durationTicks": 96,
          "midi": 35,
          "name": "B1",
          "ticks": 75552,
          "time": 69.03504975,
          "velocity": 0.6692913385826772
        },
        {
          "duration": 0.08771925000000635,
          "durationTicks": 96,
          "midi": 46,
          "name": "A#2",
          "ticks": 75552,
          "time": 69.03504975,
          "velocity": 0.6692913385826772
        },
        {
          "duration": 0.08771925000000635,
          "durationTicks": 96,
          "midi": 35,
          "name": "B1",
          "ticks": 75744,
          "time": 69.21048825,
          "velocity": 0.6692913385826772
        },
        {
          "duration": 0.08771925000000635,
          "durationTicks": 96,
          "midi": 36,
          "name": "C2",
          "ticks": 75936,
          "time": 69.38592675,
          "velocity": 0.6692913385826772
        },
        {
          "duration": 0.08771925000000635,
          "durationTicks": 96,
          "midi": 35,
          "name": "B1",
          "ticks": 75936,
          "time": 69.38592675,
          "velocity": 0.6692913385826772
        },
        {
          "duration": 0.08771925000000635,
          "durationTicks": 96,
          "midi": 38,
          "name": "D2",
          "ticks": 75936,
          "time": 69.38592675,
          "velocity": 0.6692913385826772
        },
        {
          "duration": 0.08771925000000635,
          "durationTicks": 96,
          "midi": 46,
          "name": "A#2",
          "ticks": 75936,
          "time": 69.38592675,
          "velocity": 0.6692913385826772
        },
        {
          "duration": 0.08771925000000635,
          "durationTicks": 96,
          "midi": 46,
          "name": "A#2",
          "ticks": 76320,
          "time": 69.73680374999999,
          "velocity": 0.6692913385826772
        },
        {
          "duration": 0.08771925000000635,
          "durationTicks": 96,
          "midi": 35,
          "name": "B1",
          "ticks": 76320,
          "time": 69.73680374999999,
          "velocity": 0.6692913385826772
        },
        {
          "duration": 0.08771924999999214,
          "durationTicks": 96,
          "midi": 35,
          "name": "B1",
          "ticks": 76512,
          "time": 69.91224225,
          "velocity": 0.6692913385826772
        },
        {
          "duration": 0.08771924999999214,
          "durationTicks": 96,
          "midi": 38,
          "name": "D2",
          "ticks": 76704,
          "time": 70.08768075,
          "velocity": 0.6692913385826772
        },
        {
          "duration": 0.08771924999999214,
          "durationTicks": 96,
          "midi": 35,
          "name": "B1",
          "ticks": 76704,
          "time": 70.08768075,
          "velocity": 0.6692913385826772
        },
        {
          "duration": 0.08771924999999214,
          "durationTicks": 96,
          "midi": 36,
          "name": "C2",
          "ticks": 76704,
          "time": 70.08768075,
          "velocity": 0.6692913385826772
        },
        {
          "duration": 0.08771924999999214,
          "durationTicks": 96,
          "midi": 46,
          "name": "A#2",
          "ticks": 76704,
          "time": 70.08768075,
          "velocity": 0.6692913385826772
        },
        {
          "duration": 0.08771924999999214,
          "durationTicks": 96,
          "midi": 35,
          "name": "B1",
          "ticks": 77088,
          "time": 70.43855775,
          "velocity": 0.6692913385826772
        },
        {
          "duration": 0.08771924999999214,
          "durationTicks": 96,
          "midi": 46,
          "name": "A#2",
          "ticks": 77088,
          "time": 70.43855775,
          "velocity": 0.6692913385826772
        },
        {
          "duration": 0.08771925000000635,
          "durationTicks": 96,
          "midi": 35,
          "name": "B1",
          "ticks": 77280,
          "time": 70.61399625,
          "velocity": 0.6692913385826772
        },
        {
          "duration": 0.08771925000000635,
          "durationTicks": 96,
          "midi": 46,
          "name": "A#2",
          "ticks": 77472,
          "time": 70.78943475,
          "velocity": 0.6692913385826772
        },
        {
          "duration": 0.08771925000000635,
          "durationTicks": 96,
          "midi": 38,
          "name": "D2",
          "ticks": 77472,
          "time": 70.78943475,
          "velocity": 0.6692913385826772
        },
        {
          "duration": 0.08771925000000635,
          "durationTicks": 96,
          "midi": 35,
          "name": "B1",
          "ticks": 77472,
          "time": 70.78943475,
          "velocity": 0.6692913385826772
        },
        {
          "duration": 0.08771925000000635,
          "durationTicks": 96,
          "midi": 36,
          "name": "C2",
          "ticks": 77472,
          "time": 70.78943475,
          "velocity": 0.6692913385826772
        },
        {
          "duration": 0.08771925000000635,
          "durationTicks": 96,
          "midi": 35,
          "name": "B1",
          "ticks": 77856,
          "time": 71.14031175,
          "velocity": 0.6692913385826772
        },
        {
          "duration": 0.08771925000000635,
          "durationTicks": 96,
          "midi": 46,
          "name": "A#2",
          "ticks": 77856,
          "time": 71.14031175,
          "velocity": 0.6692913385826772
        },
        {
          "duration": 0.08771925000000635,
          "durationTicks": 96,
          "midi": 35,
          "name": "B1",
          "ticks": 78048,
          "time": 71.31575025,
          "velocity": 0.6692913385826772
        },
        {
          "duration": 0.08771925000000635,
          "durationTicks": 96,
          "midi": 46,
          "name": "A#2",
          "ticks": 78240,
          "time": 71.49118874999999,
          "velocity": 0.6692913385826772
        },
        {
          "duration": 0.08771925000000635,
          "durationTicks": 96,
          "midi": 35,
          "name": "B1",
          "ticks": 78240,
          "time": 71.49118874999999,
          "velocity": 0.6692913385826772
        },
        {
          "duration": 0.08771925000000635,
          "durationTicks": 96,
          "midi": 36,
          "name": "C2",
          "ticks": 78240,
          "time": 71.49118874999999,
          "velocity": 0.6692913385826772
        },
        {
          "duration": 0.08771925000000635,
          "durationTicks": 96,
          "midi": 38,
          "name": "D2",
          "ticks": 78240,
          "time": 71.49118874999999,
          "velocity": 0.6692913385826772
        },
        {
          "duration": 0.08771924999999214,
          "durationTicks": 96,
          "midi": 35,
          "name": "B1",
          "ticks": 78624,
          "time": 71.84206575,
          "velocity": 0.6692913385826772
        },
        {
          "duration": 0.08771924999999214,
          "durationTicks": 96,
          "midi": 46,
          "name": "A#2",
          "ticks": 78624,
          "time": 71.84206575,
          "velocity": 0.6692913385826772
        },
        {
          "duration": 0.08771924999999214,
          "durationTicks": 96,
          "midi": 35,
          "name": "B1",
          "ticks": 78816,
          "time": 72.01750425,
          "velocity": 0.6692913385826772
        },
        {
          "duration": 0.08771924999999214,
          "durationTicks": 96,
          "midi": 46,
          "name": "A#2",
          "ticks": 79008,
          "time": 72.19294275,
          "velocity": 0.6692913385826772
        },
        {
          "duration": 0.08771924999999214,
          "durationTicks": 96,
          "midi": 38,
          "name": "D2",
          "ticks": 79008,
          "time": 72.19294275,
          "velocity": 0.6692913385826772
        },
        {
          "duration": 0.08771924999999214,
          "durationTicks": 96,
          "midi": 35,
          "name": "B1",
          "ticks": 79008,
          "time": 72.19294275,
          "velocity": 0.6692913385826772
        },
        {
          "duration": 0.08771924999999214,
          "durationTicks": 96,
          "midi": 36,
          "name": "C2",
          "ticks": 79008,
          "time": 72.19294275,
          "velocity": 0.6692913385826772
        },
        {
          "duration": 0.08771925000000635,
          "durationTicks": 96,
          "midi": 46,
          "name": "A#2",
          "ticks": 79392,
          "time": 72.54381975,
          "velocity": 0.6692913385826772
        },
        {
          "duration": 0.08771925000000635,
          "durationTicks": 96,
          "midi": 35,
          "name": "B1",
          "ticks": 79392,
          "time": 72.54381975,
          "velocity": 0.6692913385826772
        },
        {
          "duration": 0.08771925000000635,
          "durationTicks": 96,
          "midi": 35,
          "name": "B1",
          "ticks": 79584,
          "time": 72.71925825,
          "velocity": 0.6692913385826772
        },
        {
          "duration": 0.08771925000000635,
          "durationTicks": 96,
          "midi": 35,
          "name": "B1",
          "ticks": 79776,
          "time": 72.89469675,
          "velocity": 0.6692913385826772
        },
        {
          "duration": 0.08771925000000635,
          "durationTicks": 96,
          "midi": 36,
          "name": "C2",
          "ticks": 79776,
          "time": 72.89469675,
          "velocity": 0.6692913385826772
        },
        {
          "duration": 0.08771925000000635,
          "durationTicks": 96,
          "midi": 38,
          "name": "D2",
          "ticks": 79776,
          "time": 72.89469675,
          "velocity": 0.6692913385826772
        },
        {
          "duration": 0.08771925000000635,
          "durationTicks": 96,
          "midi": 46,
          "name": "A#2",
          "ticks": 79776,
          "time": 72.89469675,
          "velocity": 0.6692913385826772
        },
        {
          "duration": 0.08771924999999214,
          "durationTicks": 96,
          "midi": 46,
          "name": "A#2",
          "ticks": 80160,
          "time": 73.24557375,
          "velocity": 0.6692913385826772
        },
        {
          "duration": 0.08771924999999214,
          "durationTicks": 96,
          "midi": 35,
          "name": "B1",
          "ticks": 80160,
          "time": 73.24557375,
          "velocity": 0.6692913385826772
        },
        {
          "duration": 0.08771924999999214,
          "durationTicks": 96,
          "midi": 35,
          "name": "B1",
          "ticks": 80352,
          "time": 73.42101225,
          "velocity": 0.6692913385826772
        },
        {
          "duration": 0.08771924999999214,
          "durationTicks": 96,
          "midi": 46,
          "name": "A#2",
          "ticks": 80544,
          "time": 73.59645075,
          "velocity": 0.6692913385826772
        },
        {
          "duration": 0.08771924999999214,
          "durationTicks": 96,
          "midi": 36,
          "name": "C2",
          "ticks": 80544,
          "time": 73.59645075,
          "velocity": 0.6692913385826772
        },
        {
          "duration": 0.08771924999999214,
          "durationTicks": 96,
          "midi": 35,
          "name": "B1",
          "ticks": 80544,
          "time": 73.59645075,
          "velocity": 0.6692913385826772
        },
        {
          "duration": 0.08771924999999214,
          "durationTicks": 96,
          "midi": 38,
          "name": "D2",
          "ticks": 80544,
          "time": 73.59645075,
          "velocity": 0.6692913385826772
        },
        {
          "duration": 0.08771925000000635,
          "durationTicks": 96,
          "midi": 46,
          "name": "A#2",
          "ticks": 80928,
          "time": 73.94732775,
          "velocity": 0.6692913385826772
        },
        {
          "duration": 0.08771925000000635,
          "durationTicks": 96,
          "midi": 35,
          "name": "B1",
          "ticks": 80928,
          "time": 73.94732775,
          "velocity": 0.6692913385826772
        },
        {
          "duration": 0.08771925000000635,
          "durationTicks": 96,
          "midi": 35,
          "name": "B1",
          "ticks": 81120,
          "time": 74.12276625,
          "velocity": 0.6692913385826772
        },
        {
          "duration": 0.08771925000000635,
          "durationTicks": 96,
          "midi": 46,
          "name": "A#2",
          "ticks": 81312,
          "time": 74.29820475,
          "velocity": 0.6692913385826772
        },
        {
          "duration": 0.08771925000000635,
          "durationTicks": 96,
          "midi": 35,
          "name": "B1",
          "ticks": 81312,
          "time": 74.29820475,
          "velocity": 0.6692913385826772
        },
        {
          "duration": 0.08771925000000635,
          "durationTicks": 96,
          "midi": 38,
          "name": "D2",
          "ticks": 81312,
          "time": 74.29820475,
          "velocity": 0.6692913385826772
        },
        {
          "duration": 0.08771925000000635,
          "durationTicks": 96,
          "midi": 36,
          "name": "C2",
          "ticks": 81312,
          "time": 74.29820475,
          "velocity": 0.6692913385826772
        },
        {
          "duration": 0.08771925000000635,
          "durationTicks": 96,
          "midi": 46,
          "name": "A#2",
          "ticks": 81696,
          "time": 74.64908175,
          "velocity": 0.6692913385826772
        },
        {
          "duration": 0.08771925000000635,
          "durationTicks": 96,
          "midi": 35,
          "name": "B1",
          "ticks": 81696,
          "time": 74.64908175,
          "velocity": 0.6692913385826772
        },
        {
          "duration": 0.08771925000000635,
          "durationTicks": 96,
          "midi": 35,
          "name": "B1",
          "ticks": 81888,
          "time": 74.82452024999999,
          "velocity": 0.6692913385826772
        },
        {
          "duration": 0.08771924999999214,
          "durationTicks": 96,
          "midi": 46,
          "name": "A#2",
          "ticks": 82080,
          "time": 74.99995875,
          "velocity": 0.6692913385826772
        },
        {
          "duration": 0.08771924999999214,
          "durationTicks": 96,
          "midi": 36,
          "name": "C2",
          "ticks": 82080,
          "time": 74.99995875,
          "velocity": 0.6692913385826772
        },
        {
          "duration": 0.08771924999999214,
          "durationTicks": 96,
          "midi": 35,
          "name": "B1",
          "ticks": 82080,
          "time": 74.99995875,
          "velocity": 0.6692913385826772
        },
        {
          "duration": 0.08771924999999214,
          "durationTicks": 96,
          "midi": 38,
          "name": "D2",
          "ticks": 82080,
          "time": 74.99995875,
          "velocity": 0.6692913385826772
        },
        {
          "duration": 0.08771924999999214,
          "durationTicks": 96,
          "midi": 35,
          "name": "B1",
          "ticks": 82464,
          "time": 75.35083575,
          "velocity": 0.6692913385826772
        },
        {
          "duration": 0.08771924999999214,
          "durationTicks": 96,
          "midi": 46,
          "name": "A#2",
          "ticks": 82464,
          "time": 75.35083575,
          "velocity": 0.6692913385826772
        },
        {
          "duration": 0.08771924999999214,
          "durationTicks": 96,
          "midi": 35,
          "name": "B1",
          "ticks": 82656,
          "time": 75.52627425,
          "velocity": 0.6692913385826772
        },
        {
          "duration": 0.08771925000000635,
          "durationTicks": 96,
          "midi": 38,
          "name": "D2",
          "ticks": 82848,
          "time": 75.70171275,
          "velocity": 0.6692913385826772
        },
        {
          "duration": 0.08771925000000635,
          "durationTicks": 96,
          "midi": 35,
          "name": "B1",
          "ticks": 82848,
          "time": 75.70171275,
          "velocity": 0.6692913385826772
        },
        {
          "duration": 0.08771925000000635,
          "durationTicks": 96,
          "midi": 36,
          "name": "C2",
          "ticks": 82848,
          "time": 75.70171275,
          "velocity": 0.6692913385826772
        },
        {
          "duration": 0.08771925000000635,
          "durationTicks": 96,
          "midi": 46,
          "name": "A#2",
          "ticks": 82848,
          "time": 75.70171275,
          "velocity": 0.6692913385826772
        },
        {
          "duration": 0.08771925000000635,
          "durationTicks": 96,
          "midi": 35,
          "name": "B1",
          "ticks": 83232,
          "time": 76.05258975,
          "velocity": 0.6692913385826772
        },
        {
          "duration": 0.08771925000000635,
          "durationTicks": 96,
          "midi": 46,
          "name": "A#2",
          "ticks": 83232,
          "time": 76.05258975,
          "velocity": 0.6692913385826772
        },
        {
          "duration": 0.08771925000000635,
          "durationTicks": 96,
          "midi": 35,
          "name": "B1",
          "ticks": 83424,
          "time": 76.22802825,
          "velocity": 0.6692913385826772
        },
        {
          "duration": 0.08771925000000635,
          "durationTicks": 96,
          "midi": 46,
          "name": "A#2",
          "ticks": 83616,
          "time": 76.40346674999999,
          "velocity": 0.6692913385826772
        },
        {
          "duration": 0.08771925000000635,
          "durationTicks": 96,
          "midi": 38,
          "name": "D2",
          "ticks": 83616,
          "time": 76.40346674999999,
          "velocity": 0.6692913385826772
        },
        {
          "duration": 0.08771925000000635,
          "durationTicks": 96,
          "midi": 35,
          "name": "B1",
          "ticks": 83616,
          "time": 76.40346674999999,
          "velocity": 0.6692913385826772
        },
        {
          "duration": 0.08771925000000635,
          "durationTicks": 96,
          "midi": 36,
          "name": "C2",
          "ticks": 83616,
          "time": 76.40346674999999,
          "velocity": 0.6692913385826772
        },
        {
          "duration": 0.08771924999999214,
          "durationTicks": 96,
          "midi": 35,
          "name": "B1",
          "ticks": 84000,
          "time": 76.75434375,
          "velocity": 0.6692913385826772
        },
        {
          "duration": 0.08771924999999214,
          "durationTicks": 96,
          "midi": 46,
          "name": "A#2",
          "ticks": 84000,
          "time": 76.75434375,
          "velocity": 0.6692913385826772
        },
        {
          "duration": 0.08771924999999214,
          "durationTicks": 96,
          "midi": 35,
          "name": "B1",
          "ticks": 84192,
          "time": 76.92978225,
          "velocity": 0.6692913385826772
        },
        {
          "duration": 0.08771924999999214,
          "durationTicks": 96,
          "midi": 35,
          "name": "B1",
          "ticks": 84384,
          "time": 77.10522075,
          "velocity": 0.6692913385826772
        },
        {
          "duration": 0.08771924999999214,
          "durationTicks": 96,
          "midi": 36,
          "name": "C2",
          "ticks": 84384,
          "time": 77.10522075,
          "velocity": 0.6692913385826772
        },
        {
          "duration": 0.08771924999999214,
          "durationTicks": 96,
          "midi": 38,
          "name": "D2",
          "ticks": 84384,
          "time": 77.10522075,
          "velocity": 0.6692913385826772
        },
        {
          "duration": 0.08771924999999214,
          "durationTicks": 96,
          "midi": 46,
          "name": "A#2",
          "ticks": 84384,
          "time": 77.10522075,
          "velocity": 0.6692913385826772
        },
        {
          "duration": 0.08771925000000635,
          "durationTicks": 96,
          "midi": 35,
          "name": "B1",
          "ticks": 84768,
          "time": 77.45609775,
          "velocity": 0.6692913385826772
        },
        {
          "duration": 0.08771925000000635,
          "durationTicks": 96,
          "midi": 46,
          "name": "A#2",
          "ticks": 84768,
          "time": 77.45609775,
          "velocity": 0.6692913385826772
        },
        {
          "duration": 0.08771925000000635,
          "durationTicks": 96,
          "midi": 35,
          "name": "B1",
          "ticks": 84960,
          "time": 77.63153625,
          "velocity": 0.6692913385826772
        },
        {
          "duration": 0.08771925000000635,
          "durationTicks": 96,
          "midi": 36,
          "name": "C2",
          "ticks": 85152,
          "time": 77.80697475,
          "velocity": 0.6692913385826772
        },
        {
          "duration": 0.08771925000000635,
          "durationTicks": 96,
          "midi": 35,
          "name": "B1",
          "ticks": 85152,
          "time": 77.80697475,
          "velocity": 0.6692913385826772
        },
        {
          "duration": 0.08771925000000635,
          "durationTicks": 96,
          "midi": 38,
          "name": "D2",
          "ticks": 85152,
          "time": 77.80697475,
          "velocity": 0.6692913385826772
        },
        {
          "duration": 0.08771925000000635,
          "durationTicks": 96,
          "midi": 46,
          "name": "A#2",
          "ticks": 85152,
          "time": 77.80697475,
          "velocity": 0.6692913385826772
        },
        {
          "duration": 0.08771925000000635,
          "durationTicks": 96,
          "midi": 35,
          "name": "B1",
          "ticks": 85536,
          "time": 78.15785174999999,
          "velocity": 0.6692913385826772
        },
        {
          "duration": 0.08771925000000635,
          "durationTicks": 96,
          "midi": 46,
          "name": "A#2",
          "ticks": 85536,
          "time": 78.15785174999999,
          "velocity": 0.6692913385826772
        },
        {
          "duration": 0.08771924999999214,
          "durationTicks": 96,
          "midi": 35,
          "name": "B1",
          "ticks": 85728,
          "time": 78.33329025,
          "velocity": 0.6692913385826772
        },
        {
          "duration": 0.08771924999999214,
          "durationTicks": 96,
          "midi": 46,
          "name": "A#2",
          "ticks": 85920,
          "time": 78.50872875,
          "velocity": 0.6692913385826772
        },
        {
          "duration": 0.08771924999999214,
          "durationTicks": 96,
          "midi": 36,
          "name": "C2",
          "ticks": 85920,
          "time": 78.50872875,
          "velocity": 0.6692913385826772
        },
        {
          "duration": 0.08771924999999214,
          "durationTicks": 96,
          "midi": 35,
          "name": "B1",
          "ticks": 85920,
          "time": 78.50872875,
          "velocity": 0.6692913385826772
        },
        {
          "duration": 0.08771924999999214,
          "durationTicks": 96,
          "midi": 38,
          "name": "D2",
          "ticks": 85920,
          "time": 78.50872875,
          "velocity": 0.6692913385826772
        },
        {
          "duration": 0.08771924999999214,
          "durationTicks": 96,
          "midi": 46,
          "name": "A#2",
          "ticks": 86304,
          "time": 78.85960575,
          "velocity": 0.6692913385826772
        },
        {
          "duration": 0.08771924999999214,
          "durationTicks": 96,
          "midi": 35,
          "name": "B1",
          "ticks": 86304,
          "time": 78.85960575,
          "velocity": 0.6692913385826772
        },
        {
          "duration": 0.08771925000000635,
          "durationTicks": 96,
          "midi": 35,
          "name": "B1",
          "ticks": 86496,
          "time": 79.03504425,
          "velocity": 0.6692913385826772
        },
        {
          "duration": 0.08771925000000635,
          "durationTicks": 96,
          "midi": 36,
          "name": "C2",
          "ticks": 86688,
          "time": 79.21048275,
          "velocity": 0.6692913385826772
        },
        {
          "duration": 0.08771925000000635,
          "durationTicks": 96,
          "midi": 46,
          "name": "A#2",
          "ticks": 86688,
          "time": 79.21048275,
          "velocity": 0.6692913385826772
        },
        {
          "duration": 0.08771925000000635,
          "durationTicks": 96,
          "midi": 81,
          "name": "A5",
          "ticks": 86688,
          "time": 79.21048275,
          "velocity": 0.6692913385826772
        },
        {
          "duration": 0.08771925000000635,
          "durationTicks": 96,
          "midi": 35,
          "name": "B1",
          "ticks": 86688,
          "time": 79.21048275,
          "velocity": 0.6692913385826772
        },
        {
          "duration": 0.08771925000000635,
          "durationTicks": 96,
          "midi": 38,
          "name": "D2",
          "ticks": 86688,
          "time": 79.21048275,
          "velocity": 0.6692913385826772
        },
        {
          "duration": 0.08771925000000635,
          "durationTicks": 96,
          "midi": 46,
          "name": "A#2",
          "ticks": 87072,
          "time": 79.56135975,
          "velocity": 0.6692913385826772
        },
        {
          "duration": 0.08771925000000635,
          "durationTicks": 96,
          "midi": 35,
          "name": "B1",
          "ticks": 87072,
          "time": 79.56135975,
          "velocity": 0.6692913385826772
        },
        {
          "duration": 0.08771925000000635,
          "durationTicks": 96,
          "midi": 35,
          "name": "B1",
          "ticks": 87264,
          "time": 79.73679824999999,
          "velocity": 0.6692913385826772
        },
        {
          "duration": 0.08771924999999214,
          "durationTicks": 96,
          "midi": 36,
          "name": "C2",
          "ticks": 87456,
          "time": 79.91223675,
          "velocity": 0.6692913385826772
        },
        {
          "duration": 0.08771924999999214,
          "durationTicks": 96,
          "midi": 46,
          "name": "A#2",
          "ticks": 87456,
          "time": 79.91223675,
          "velocity": 0.6692913385826772
        },
        {
          "duration": 0.08771924999999214,
          "durationTicks": 96,
          "midi": 38,
          "name": "D2",
          "ticks": 87456,
          "time": 79.91223675,
          "velocity": 0.6692913385826772
        },
        {
          "duration": 0.08771924999999214,
          "durationTicks": 96,
          "midi": 35,
          "name": "B1",
          "ticks": 87456,
          "time": 79.91223675,
          "velocity": 0.6692913385826772
        },
        {
          "duration": 0.08771924999999214,
          "durationTicks": 96,
          "midi": 81,
          "name": "A5",
          "ticks": 87456,
          "time": 79.91223675,
          "velocity": 0.6692913385826772
        },
        {
          "duration": 0.08771924999999214,
          "durationTicks": 96,
          "midi": 46,
          "name": "A#2",
          "ticks": 87840,
          "time": 80.26311375,
          "velocity": 0.6692913385826772
        },
        {
          "duration": 0.08771924999999214,
          "durationTicks": 96,
          "midi": 35,
          "name": "B1",
          "ticks": 87840,
          "time": 80.26311375,
          "velocity": 0.6692913385826772
        },
        {
          "duration": 0.08771924999999214,
          "durationTicks": 96,
          "midi": 35,
          "name": "B1",
          "ticks": 88032,
          "time": 80.43855225,
          "velocity": 0.6692913385826772
        },
        {
          "duration": 0.08771925000000635,
          "durationTicks": 96,
          "midi": 35,
          "name": "B1",
          "ticks": 88224,
          "time": 80.61399075,
          "velocity": 0.6692913385826772
        },
        {
          "duration": 0.08771925000000635,
          "durationTicks": 96,
          "midi": 46,
          "name": "A#2",
          "ticks": 88224,
          "time": 80.61399075,
          "velocity": 0.6692913385826772
        },
        {
          "duration": 0.08771925000000635,
          "durationTicks": 96,
          "midi": 38,
          "name": "D2",
          "ticks": 88224,
          "time": 80.61399075,
          "velocity": 0.6692913385826772
        },
        {
          "duration": 0.08771925000000635,
          "durationTicks": 96,
          "midi": 36,
          "name": "C2",
          "ticks": 88224,
          "time": 80.61399075,
          "velocity": 0.6692913385826772
        },
        {
          "duration": 0.08771925000000635,
          "durationTicks": 96,
          "midi": 81,
          "name": "A5",
          "ticks": 88224,
          "time": 80.61399075,
          "velocity": 0.6692913385826772
        },
        {
          "duration": 0.08771925000000635,
          "durationTicks": 96,
          "midi": 35,
          "name": "B1",
          "ticks": 88608,
          "time": 80.96486775,
          "velocity": 0.6692913385826772
        },
        {
          "duration": 0.08771925000000635,
          "durationTicks": 96,
          "midi": 80,
          "name": "G#5",
          "ticks": 88608,
          "time": 80.96486775,
          "velocity": 0.6692913385826772
        },
        {
          "duration": 0.08771925000000635,
          "durationTicks": 96,
          "midi": 46,
          "name": "A#2",
          "ticks": 88608,
          "time": 80.96486775,
          "velocity": 0.6692913385826772
        },
        {
          "duration": 0.08771925000000635,
          "durationTicks": 96,
          "midi": 35,
          "name": "B1",
          "ticks": 88800,
          "time": 81.14030625,
          "velocity": 0.6692913385826772
        },
        {
          "duration": 0.08771925000000635,
          "durationTicks": 96,
          "midi": 81,
          "name": "A5",
          "ticks": 88992,
          "time": 81.31574475,
          "velocity": 0.6692913385826772
        },
        {
          "duration": 0.08771925000000635,
          "durationTicks": 96,
          "midi": 36,
          "name": "C2",
          "ticks": 88992,
          "time": 81.31574475,
          "velocity": 0.6692913385826772
        },
        {
          "duration": 0.08771925000000635,
          "durationTicks": 96,
          "midi": 38,
          "name": "D2",
          "ticks": 88992,
          "time": 81.31574475,
          "velocity": 0.6692913385826772
        },
        {
          "duration": 0.08771925000000635,
          "durationTicks": 96,
          "midi": 46,
          "name": "A#2",
          "ticks": 88992,
          "time": 81.31574475,
          "velocity": 0.6692913385826772
        },
        {
          "duration": 0.08771925000000635,
          "durationTicks": 96,
          "midi": 35,
          "name": "B1",
          "ticks": 88992,
          "time": 81.31574475,
          "velocity": 0.6692913385826772
        },
        {
          "duration": 0.08771924999999214,
          "durationTicks": 96,
          "midi": 46,
          "name": "A#2",
          "ticks": 89376,
          "time": 81.66662175,
          "velocity": 0.6692913385826772
        },
        {
          "duration": 0.08771924999999214,
          "durationTicks": 96,
          "midi": 35,
          "name": "B1",
          "ticks": 89376,
          "time": 81.66662175,
          "velocity": 0.6692913385826772
        },
        {
          "duration": 0.08771924999999214,
          "durationTicks": 96,
          "midi": 35,
          "name": "B1",
          "ticks": 89568,
          "time": 81.84206025,
          "velocity": 0.6692913385826772
        },
        {
          "duration": 0.08771924999999214,
          "durationTicks": 96,
          "midi": 46,
          "name": "A#2",
          "ticks": 89760,
          "time": 82.01749875,
          "velocity": 0.6692913385826772
        },
        {
          "duration": 0.08771924999999214,
          "durationTicks": 96,
          "midi": 35,
          "name": "B1",
          "ticks": 89760,
          "time": 82.01749875,
          "velocity": 0.6692913385826772
        },
        {
          "duration": 0.08771924999999214,
          "durationTicks": 96,
          "midi": 81,
          "name": "A5",
          "ticks": 89760,
          "time": 82.01749875,
          "velocity": 0.6692913385826772
        },
        {
          "duration": 0.08771924999999214,
          "durationTicks": 96,
          "midi": 36,
          "name": "C2",
          "ticks": 89760,
          "time": 82.01749875,
          "velocity": 0.6692913385826772
        },
        {
          "duration": 0.08771924999999214,
          "durationTicks": 96,
          "midi": 38,
          "name": "D2",
          "ticks": 89760,
          "time": 82.01749875,
          "velocity": 0.6692913385826772
        },
        {
          "duration": 0.08771925000000635,
          "durationTicks": 96,
          "midi": 46,
          "name": "A#2",
          "ticks": 90144,
          "time": 82.36837575,
          "velocity": 0.6692913385826772
        },
        {
          "duration": 0.08771925000000635,
          "durationTicks": 96,
          "midi": 35,
          "name": "B1",
          "ticks": 90144,
          "time": 82.36837575,
          "velocity": 0.6692913385826772
        },
        {
          "duration": 0.08771925000000635,
          "durationTicks": 96,
          "midi": 35,
          "name": "B1",
          "ticks": 90336,
          "time": 82.54381425,
          "velocity": 0.6692913385826772
        },
        {
          "duration": 0.08771925000000635,
          "durationTicks": 96,
          "midi": 36,
          "name": "C2",
          "ticks": 90528,
          "time": 82.71925275,
          "velocity": 0.6692913385826772
        },
        {
          "duration": 0.08771925000000635,
          "durationTicks": 96,
          "midi": 81,
          "name": "A5",
          "ticks": 90528,
          "time": 82.71925275,
          "velocity": 0.6692913385826772
        },
        {
          "duration": 0.08771925000000635,
          "durationTicks": 96,
          "midi": 38,
          "name": "D2",
          "ticks": 90528,
          "time": 82.71925275,
          "velocity": 0.6692913385826772
        },
        {
          "duration": 0.08771925000000635,
          "durationTicks": 96,
          "midi": 46,
          "name": "A#2",
          "ticks": 90528,
          "time": 82.71925275,
          "velocity": 0.6692913385826772
        },
        {
          "duration": 0.08771925000000635,
          "durationTicks": 96,
          "midi": 35,
          "name": "B1",
          "ticks": 90528,
          "time": 82.71925275,
          "velocity": 0.6692913385826772
        },
        {
          "duration": 0.08771925000000635,
          "durationTicks": 96,
          "midi": 46,
          "name": "A#2",
          "ticks": 90912,
          "time": 83.07012974999999,
          "velocity": 0.6692913385826772
        },
        {
          "duration": 0.08771925000000635,
          "durationTicks": 96,
          "midi": 35,
          "name": "B1",
          "ticks": 90912,
          "time": 83.07012974999999,
          "velocity": 0.6692913385826772
        },
        {
          "duration": 0.08771924999999214,
          "durationTicks": 96,
          "midi": 35,
          "name": "B1",
          "ticks": 91104,
          "time": 83.24556825,
          "velocity": 0.6692913385826772
        },
        {
          "duration": 0.08771924999999214,
          "durationTicks": 96,
          "midi": 81,
          "name": "A5",
          "ticks": 91296,
          "time": 83.42100675,
          "velocity": 0.6692913385826772
        },
        {
          "duration": 0.08771924999999214,
          "durationTicks": 96,
          "midi": 36,
          "name": "C2",
          "ticks": 91296,
          "time": 83.42100675,
          "velocity": 0.6692913385826772
        },
        {
          "duration": 0.08771924999999214,
          "durationTicks": 96,
          "midi": 38,
          "name": "D2",
          "ticks": 91296,
          "time": 83.42100675,
          "velocity": 0.6692913385826772
        },
        {
          "duration": 0.08771924999999214,
          "durationTicks": 96,
          "midi": 35,
          "name": "B1",
          "ticks": 91296,
          "time": 83.42100675,
          "velocity": 0.6692913385826772
        },
        {
          "duration": 0.08771924999999214,
          "durationTicks": 96,
          "midi": 46,
          "name": "A#2",
          "ticks": 91296,
          "time": 83.42100675,
          "velocity": 0.6692913385826772
        },
        {
          "duration": 0.08771924999999214,
          "durationTicks": 96,
          "midi": 80,
          "name": "G#5",
          "ticks": 91680,
          "time": 83.77188375,
          "velocity": 0.6692913385826772
        },
        {
          "duration": 0.08771924999999214,
          "durationTicks": 96,
          "midi": 35,
          "name": "B1",
          "ticks": 91680,
          "time": 83.77188375,
          "velocity": 0.6692913385826772
        },
        {
          "duration": 0.08771924999999214,
          "durationTicks": 96,
          "midi": 46,
          "name": "A#2",
          "ticks": 91680,
          "time": 83.77188375,
          "velocity": 0.6692913385826772
        },
        {
          "duration": 0.08771925000000635,
          "durationTicks": 96,
          "midi": 35,
          "name": "B1",
          "ticks": 91872,
          "time": 83.94732225,
          "velocity": 0.6692913385826772
        },
        {
          "duration": 0.08771925000000635,
          "durationTicks": 96,
          "midi": 36,
          "name": "C2",
          "ticks": 92064,
          "time": 84.12276075,
          "velocity": 0.6692913385826772
        },
        {
          "duration": 0.08771925000000635,
          "durationTicks": 96,
          "midi": 35,
          "name": "B1",
          "ticks": 92064,
          "time": 84.12276075,
          "velocity": 0.6692913385826772
        },
        {
          "duration": 0.08771925000000635,
          "durationTicks": 96,
          "midi": 46,
          "name": "A#2",
          "ticks": 92064,
          "time": 84.12276075,
          "velocity": 0.6692913385826772
        },
        {
          "duration": 0.08771925000000635,
          "durationTicks": 96,
          "midi": 38,
          "name": "D2",
          "ticks": 92064,
          "time": 84.12276075,
          "velocity": 0.6692913385826772
        },
        {
          "duration": 0.08771925000000635,
          "durationTicks": 96,
          "midi": 81,
          "name": "A5",
          "ticks": 92064,
          "time": 84.12276075,
          "velocity": 0.6692913385826772
        },
        {
          "duration": 0.08771925000000635,
          "durationTicks": 96,
          "midi": 35,
          "name": "B1",
          "ticks": 92448,
          "time": 84.47363775,
          "velocity": 0.6692913385826772
        },
        {
          "duration": 0.08771925000000635,
          "durationTicks": 96,
          "midi": 46,
          "name": "A#2",
          "ticks": 92448,
          "time": 84.47363775,
          "velocity": 0.6692913385826772
        },
        {
          "duration": 0.08771925000000635,
          "durationTicks": 96,
          "midi": 35,
          "name": "B1",
          "ticks": 92640,
          "time": 84.64907625,
          "velocity": 0.6692913385826772
        },
        {
          "duration": 0.08771925000000635,
          "durationTicks": 96,
          "midi": 35,
          "name": "B1",
          "ticks": 92832,
          "time": 84.82451474999999,
          "velocity": 0.6692913385826772
        },
        {
          "duration": 0.08771925000000635,
          "durationTicks": 96,
          "midi": 38,
          "name": "D2",
          "ticks": 92832,
          "time": 84.82451474999999,
          "velocity": 0.6692913385826772
        },
        {
          "duration": 0.08771925000000635,
          "durationTicks": 96,
          "midi": 36,
          "name": "C2",
          "ticks": 92832,
          "time": 84.82451474999999,
          "velocity": 0.6692913385826772
        },
        {
          "duration": 0.08771925000000635,
          "durationTicks": 96,
          "midi": 81,
          "name": "A5",
          "ticks": 92832,
          "time": 84.82451474999999,
          "velocity": 0.6692913385826772
        },
        {
          "duration": 0.08771925000000635,
          "durationTicks": 96,
          "midi": 46,
          "name": "A#2",
          "ticks": 92832,
          "time": 84.82451474999999,
          "velocity": 0.6692913385826772
        },
        {
          "duration": 0.08771924999999214,
          "durationTicks": 96,
          "midi": 46,
          "name": "A#2",
          "ticks": 93216,
          "time": 85.17539175,
          "velocity": 0.6692913385826772
        },
        {
          "duration": 0.08771924999999214,
          "durationTicks": 96,
          "midi": 35,
          "name": "B1",
          "ticks": 93216,
          "time": 85.17539175,
          "velocity": 0.6692913385826772
        },
        {
          "duration": 0.08771924999999214,
          "durationTicks": 96,
          "midi": 35,
          "name": "B1",
          "ticks": 93408,
          "time": 85.35083025,
          "velocity": 0.6692913385826772
        },
        {
          "duration": 0.08771924999999214,
          "durationTicks": 96,
          "midi": 38,
          "name": "D2",
          "ticks": 93600,
          "time": 85.52626875,
          "velocity": 0.6692913385826772
        },
        {
          "duration": 0.08771924999999214,
          "durationTicks": 96,
          "midi": 81,
          "name": "A5",
          "ticks": 93600,
          "time": 85.52626875,
          "velocity": 0.6692913385826772
        },
        {
          "duration": 0.08771924999999214,
          "durationTicks": 96,
          "midi": 36,
          "name": "C2",
          "ticks": 93600,
          "time": 85.52626875,
          "velocity": 0.6692913385826772
        },
        {
          "duration": 0.08771924999999214,
          "durationTicks": 96,
          "midi": 35,
          "name": "B1",
          "ticks": 93600,
          "time": 85.52626875,
          "velocity": 0.6692913385826772
        },
        {
          "duration": 0.08771924999999214,
          "durationTicks": 96,
          "midi": 46,
          "name": "A#2",
          "ticks": 93600,
          "time": 85.52626875,
          "velocity": 0.6692913385826772
        },
        {
          "duration": 0.08771925000000635,
          "durationTicks": 96,
          "midi": 46,
          "name": "A#2",
          "ticks": 93984,
          "time": 85.87714575,
          "velocity": 0.6692913385826772
        },
        {
          "duration": 0.08771925000000635,
          "durationTicks": 96,
          "midi": 35,
          "name": "B1",
          "ticks": 93984,
          "time": 85.87714575,
          "velocity": 0.6692913385826772
        },
        {
          "duration": 0.08771925000000635,
          "durationTicks": 96,
          "midi": 35,
          "name": "B1",
          "ticks": 94176,
          "time": 86.05258425,
          "velocity": 0.6692913385826772
        },
        {
          "duration": 0.08771925000000635,
          "durationTicks": 96,
          "midi": 38,
          "name": "D2",
          "ticks": 94368,
          "time": 86.22802275,
          "velocity": 0.6692913385826772
        },
        {
          "duration": 0.08771925000000635,
          "durationTicks": 96,
          "midi": 35,
          "name": "B1",
          "ticks": 94368,
          "time": 86.22802275,
          "velocity": 0.6692913385826772
        },
        {
          "duration": 0.08771925000000635,
          "durationTicks": 96,
          "midi": 36,
          "name": "C2",
          "ticks": 94368,
          "time": 86.22802275,
          "velocity": 0.6692913385826772
        },
        {
          "duration": 0.08771925000000635,
          "durationTicks": 96,
          "midi": 46,
          "name": "A#2",
          "ticks": 94368,
          "time": 86.22802275,
          "velocity": 0.6692913385826772
        },
        {
          "duration": 0.08771925000000635,
          "durationTicks": 96,
          "midi": 81,
          "name": "A5",
          "ticks": 94368,
          "time": 86.22802275,
          "velocity": 0.6692913385826772
        },
        {
          "duration": 0.08771924999999214,
          "durationTicks": 96,
          "midi": 80,
          "name": "G#5",
          "ticks": 94752,
          "time": 86.57889975,
          "velocity": 0.6692913385826772
        },
        {
          "duration": 0.08771924999999214,
          "durationTicks": 96,
          "midi": 35,
          "name": "B1",
          "ticks": 94752,
          "time": 86.57889975,
          "velocity": 0.6692913385826772
        },
        {
          "duration": 0.08771924999999214,
          "durationTicks": 96,
          "midi": 46,
          "name": "A#2",
          "ticks": 94752,
          "time": 86.57889975,
          "velocity": 0.6692913385826772
        },
        {
          "duration": 0.08771924999999214,
          "durationTicks": 96,
          "midi": 35,
          "name": "B1",
          "ticks": 94944,
          "time": 86.75433825,
          "velocity": 0.6692913385826772
        },
        {
          "duration": 0.08771924999999214,
          "durationTicks": 96,
          "midi": 38,
          "name": "D2",
          "ticks": 95136,
          "time": 86.92977675,
          "velocity": 0.6692913385826772
        },
        {
          "duration": 0.08771924999999214,
          "durationTicks": 96,
          "midi": 46,
          "name": "A#2",
          "ticks": 95136,
          "time": 86.92977675,
          "velocity": 0.6692913385826772
        },
        {
          "duration": 0.08771924999999214,
          "durationTicks": 96,
          "midi": 35,
          "name": "B1",
          "ticks": 95136,
          "time": 86.92977675,
          "velocity": 0.6692913385826772
        },
        {
          "duration": 0.08771924999999214,
          "durationTicks": 96,
          "midi": 81,
          "name": "A5",
          "ticks": 95136,
          "time": 86.92977675,
          "velocity": 0.6692913385826772
        },
        {
          "duration": 0.08771924999999214,
          "durationTicks": 96,
          "midi": 36,
          "name": "C2",
          "ticks": 95136,
          "time": 86.92977675,
          "velocity": 0.6692913385826772
        },
        {
          "duration": 0.08771925000000635,
          "durationTicks": 96,
          "midi": 46,
          "name": "A#2",
          "ticks": 95520,
          "time": 87.28065375,
          "velocity": 0.6692913385826772
        },
        {
          "duration": 0.08771925000000635,
          "durationTicks": 96,
          "midi": 35,
          "name": "B1",
          "ticks": 95520,
          "time": 87.28065375,
          "velocity": 0.6692913385826772
        },
        {
          "duration": 0.08771925000000635,
          "durationTicks": 96,
          "midi": 35,
          "name": "B1",
          "ticks": 95712,
          "time": 87.45609225,
          "velocity": 0.6692913385826772
        },
        {
          "duration": 0.08771925000000635,
          "durationTicks": 96,
          "midi": 81,
          "name": "A5",
          "ticks": 95904,
          "time": 87.63153075,
          "velocity": 0.6692913385826772
        },
        {
          "duration": 0.08771925000000635,
          "durationTicks": 96,
          "midi": 36,
          "name": "C2",
          "ticks": 95904,
          "time": 87.63153075,
          "velocity": 0.6692913385826772
        },
        {
          "duration": 0.08771925000000635,
          "durationTicks": 96,
          "midi": 35,
          "name": "B1",
          "ticks": 95904,
          "time": 87.63153075,
          "velocity": 0.6692913385826772
        },
        {
          "duration": 0.08771925000000635,
          "durationTicks": 96,
          "midi": 38,
          "name": "D2",
          "ticks": 95904,
          "time": 87.63153075,
          "velocity": 0.6692913385826772
        },
        {
          "duration": 0.08771925000000635,
          "durationTicks": 96,
          "midi": 46,
          "name": "A#2",
          "ticks": 95904,
          "time": 87.63153075,
          "velocity": 0.6692913385826772
        },
        {
          "duration": 0.08771925000000635,
          "durationTicks": 96,
          "midi": 35,
          "name": "B1",
          "ticks": 96288,
          "time": 87.98240775,
          "velocity": 0.6692913385826772
        },
        {
          "duration": 0.08771925000000635,
          "durationTicks": 96,
          "midi": 46,
          "name": "A#2",
          "ticks": 96288,
          "time": 87.98240775,
          "velocity": 0.6692913385826772
        },
        {
          "duration": 0.08771925000000635,
          "durationTicks": 96,
          "midi": 35,
          "name": "B1",
          "ticks": 96480,
          "time": 88.15784624999999,
          "velocity": 0.6692913385826772
        },
        {
          "duration": 0.08771924999999214,
          "durationTicks": 96,
          "midi": 38,
          "name": "D2",
          "ticks": 96672,
          "time": 88.33328475,
          "velocity": 0.6692913385826772
        },
        {
          "duration": 0.08771924999999214,
          "durationTicks": 96,
          "midi": 36,
          "name": "C2",
          "ticks": 96672,
          "time": 88.33328475,
          "velocity": 0.6692913385826772
        },
        {
          "duration": 0.08771924999999214,
          "durationTicks": 96,
          "midi": 35,
          "name": "B1",
          "ticks": 96672,
          "time": 88.33328475,
          "velocity": 0.6692913385826772
        },
        {
          "duration": 0.08771924999999214,
          "durationTicks": 96,
          "midi": 46,
          "name": "A#2",
          "ticks": 96672,
          "time": 88.33328475,
          "velocity": 0.6692913385826772
        },
        {
          "duration": 0.08771924999999214,
          "durationTicks": 96,
          "midi": 81,
          "name": "A5",
          "ticks": 96672,
          "time": 88.33328475,
          "velocity": 0.6692913385826772
        },
        {
          "duration": 0.08771924999999214,
          "durationTicks": 96,
          "midi": 46,
          "name": "A#2",
          "ticks": 97056,
          "time": 88.68416175,
          "velocity": 0.6692913385826772
        },
        {
          "duration": 0.08771924999999214,
          "durationTicks": 96,
          "midi": 35,
          "name": "B1",
          "ticks": 97056,
          "time": 88.68416175,
          "velocity": 0.6692913385826772
        },
        {
          "duration": 0.08771924999999214,
          "durationTicks": 96,
          "midi": 35,
          "name": "B1",
          "ticks": 97248,
          "time": 88.85960025,
          "velocity": 0.6692913385826772
        },
        {
          "duration": 0.08771925000000635,
          "durationTicks": 96,
          "midi": 35,
          "name": "B1",
          "ticks": 97440,
          "time": 89.03503875,
          "velocity": 0.6692913385826772
        },
        {
          "duration": 0.08771925000000635,
          "durationTicks": 96,
          "midi": 36,
          "name": "C2",
          "ticks": 97440,
          "time": 89.03503875,
          "velocity": 0.6692913385826772
        },
        {
          "duration": 0.08771925000000635,
          "durationTicks": 96,
          "midi": 38,
          "name": "D2",
          "ticks": 97440,
          "time": 89.03503875,
          "velocity": 0.6692913385826772
        },
        {
          "duration": 0.08771925000000635,
          "durationTicks": 96,
          "midi": 81,
          "name": "A5",
          "ticks": 97440,
          "time": 89.03503875,
          "velocity": 0.6692913385826772
        },
        {
          "duration": 0.08771925000000635,
          "durationTicks": 96,
          "midi": 46,
          "name": "A#2",
          "ticks": 97440,
          "time": 89.03503875,
          "velocity": 0.6692913385826772
        },
        {
          "duration": 0.08771925000000635,
          "durationTicks": 96,
          "midi": 46,
          "name": "A#2",
          "ticks": 97824,
          "time": 89.38591575,
          "velocity": 0.6692913385826772
        },
        {
          "duration": 0.08771925000000635,
          "durationTicks": 96,
          "midi": 35,
          "name": "B1",
          "ticks": 97824,
          "time": 89.38591575,
          "velocity": 0.6692913385826772
        },
        {
          "duration": 0.08771925000000635,
          "durationTicks": 96,
          "midi": 80,
          "name": "G#5",
          "ticks": 97824,
          "time": 89.38591575,
          "velocity": 0.6692913385826772
        },
        {
          "duration": 0.08771925000000635,
          "durationTicks": 96,
          "midi": 35,
          "name": "B1",
          "ticks": 98016,
          "time": 89.56135425,
          "velocity": 0.6692913385826772
        },
        {
          "duration": 0.08771925000000635,
          "durationTicks": 96,
          "midi": 46,
          "name": "A#2",
          "ticks": 98208,
          "time": 89.73679274999999,
          "velocity": 0.6692913385826772
        },
        {
          "duration": 0.08771925000000635,
          "durationTicks": 96,
          "midi": 38,
          "name": "D2",
          "ticks": 98208,
          "time": 89.73679274999999,
          "velocity": 0.6692913385826772
        },
        {
          "duration": 0.08771925000000635,
          "durationTicks": 96,
          "midi": 36,
          "name": "C2",
          "ticks": 98208,
          "time": 89.73679274999999,
          "velocity": 0.6692913385826772
        },
        {
          "duration": 0.08771925000000635,
          "durationTicks": 96,
          "midi": 81,
          "name": "A5",
          "ticks": 98208,
          "time": 89.73679274999999,
          "velocity": 0.6692913385826772
        },
        {
          "duration": 0.08771925000000635,
          "durationTicks": 96,
          "midi": 35,
          "name": "B1",
          "ticks": 98208,
          "time": 89.73679274999999,
          "velocity": 0.6692913385826772
        },
        {
          "duration": 0.08771924999999214,
          "durationTicks": 96,
          "midi": 35,
          "name": "B1",
          "ticks": 98592,
          "time": 90.08766975,
          "velocity": 0.6692913385826772
        },
        {
          "duration": 0.08771924999999214,
          "durationTicks": 96,
          "midi": 46,
          "name": "A#2",
          "ticks": 98592,
          "time": 90.08766975,
          "velocity": 0.6692913385826772
        },
        {
          "duration": 0.08771924999999214,
          "durationTicks": 96,
          "midi": 35,
          "name": "B1",
          "ticks": 98784,
          "time": 90.26310825,
          "velocity": 0.6692913385826772
        },
        {
          "duration": 0.08771924999999214,
          "durationTicks": 96,
          "midi": 46,
          "name": "A#2",
          "ticks": 98976,
          "time": 90.43854675,
          "velocity": 0.6692913385826772
        },
        {
          "duration": 0.08771924999999214,
          "durationTicks": 96,
          "midi": 35,
          "name": "B1",
          "ticks": 98976,
          "time": 90.43854675,
          "velocity": 0.6692913385826772
        },
        {
          "duration": 0.08771924999999214,
          "durationTicks": 96,
          "midi": 36,
          "name": "C2",
          "ticks": 98976,
          "time": 90.43854675,
          "velocity": 0.6692913385826772
        },
        {
          "duration": 0.08771924999999214,
          "durationTicks": 96,
          "midi": 38,
          "name": "D2",
          "ticks": 98976,
          "time": 90.43854675,
          "velocity": 0.6692913385826772
        },
        {
          "duration": 0.08771925000000635,
          "durationTicks": 96,
          "midi": 35,
          "name": "B1",
          "ticks": 99360,
          "time": 90.78942375,
          "velocity": 0.6692913385826772
        },
        {
          "duration": 0.08771925000000635,
          "durationTicks": 96,
          "midi": 46,
          "name": "A#2",
          "ticks": 99360,
          "time": 90.78942375,
          "velocity": 0.6692913385826772
        },
        {
          "duration": 0.08771925000000635,
          "durationTicks": 96,
          "midi": 35,
          "name": "B1",
          "ticks": 99552,
          "time": 90.96486225,
          "velocity": 0.6692913385826772
        },
        {
          "duration": 0.08771925000000635,
          "durationTicks": 96,
          "midi": 35,
          "name": "B1",
          "ticks": 99744,
          "time": 91.14030075,
          "velocity": 0.6692913385826772
        },
        {
          "duration": 0.08771925000000635,
          "durationTicks": 96,
          "midi": 36,
          "name": "C2",
          "ticks": 99744,
          "time": 91.14030075,
          "velocity": 0.6692913385826772
        },
        {
          "duration": 0.08771925000000635,
          "durationTicks": 96,
          "midi": 38,
          "name": "D2",
          "ticks": 99744,
          "time": 91.14030075,
          "velocity": 0.6692913385826772
        },
        {
          "duration": 0.08771925000000635,
          "durationTicks": 96,
          "midi": 46,
          "name": "A#2",
          "ticks": 99744,
          "time": 91.14030075,
          "velocity": 0.6692913385826772
        },
        {
          "duration": 0.08771924999999214,
          "durationTicks": 96,
          "midi": 46,
          "name": "A#2",
          "ticks": 100128,
          "time": 91.49117775,
          "velocity": 0.6692913385826772
        },
        {
          "duration": 0.08771924999999214,
          "durationTicks": 96,
          "midi": 35,
          "name": "B1",
          "ticks": 100128,
          "time": 91.49117775,
          "velocity": 0.6692913385826772
        },
        {
          "duration": 0.08771924999999214,
          "durationTicks": 96,
          "midi": 35,
          "name": "B1",
          "ticks": 100320,
          "time": 91.66661625,
          "velocity": 0.6692913385826772
        },
        {
          "duration": 0.08771924999999214,
          "durationTicks": 96,
          "midi": 46,
          "name": "A#2",
          "ticks": 100512,
          "time": 91.84205475,
          "velocity": 0.6692913385826772
        },
        {
          "duration": 0.08771924999999214,
          "durationTicks": 96,
          "midi": 35,
          "name": "B1",
          "ticks": 100512,
          "time": 91.84205475,
          "velocity": 0.6692913385826772
        },
        {
          "duration": 0.08771924999999214,
          "durationTicks": 96,
          "midi": 38,
          "name": "D2",
          "ticks": 100512,
          "time": 91.84205475,
          "velocity": 0.6692913385826772
        },
        {
          "duration": 0.08771924999999214,
          "durationTicks": 96,
          "midi": 36,
          "name": "C2",
          "ticks": 100512,
          "time": 91.84205475,
          "velocity": 0.6692913385826772
        },
        {
          "duration": 0.08771924999999214,
          "durationTicks": 96,
          "midi": 35,
          "name": "B1",
          "ticks": 100896,
          "time": 92.19293175,
          "velocity": 0.6692913385826772
        },
        {
          "duration": 0.08771924999999214,
          "durationTicks": 96,
          "midi": 46,
          "name": "A#2",
          "ticks": 100896,
          "time": 92.19293175,
          "velocity": 0.6692913385826772
        },
        {
          "duration": 0.08771925000000635,
          "durationTicks": 96,
          "midi": 35,
          "name": "B1",
          "ticks": 101088,
          "time": 92.36837025,
          "velocity": 0.6692913385826772
        },
        {
          "duration": 0.08771925000000635,
          "durationTicks": 96,
          "midi": 46,
          "name": "A#2",
          "ticks": 101280,
          "time": 92.54380875,
          "velocity": 0.6692913385826772
        },
        {
          "duration": 0.08771925000000635,
          "durationTicks": 96,
          "midi": 38,
          "name": "D2",
          "ticks": 101280,
          "time": 92.54380875,
          "velocity": 0.6692913385826772
        },
        {
          "duration": 0.08771925000000635,
          "durationTicks": 96,
          "midi": 35,
          "name": "B1",
          "ticks": 101280,
          "time": 92.54380875,
          "velocity": 0.6692913385826772
        },
        {
          "duration": 0.08771925000000635,
          "durationTicks": 96,
          "midi": 36,
          "name": "C2",
          "ticks": 101280,
          "time": 92.54380875,
          "velocity": 0.6692913385826772
        },
        {
          "duration": 0.08771925000000635,
          "durationTicks": 96,
          "midi": 35,
          "name": "B1",
          "ticks": 101664,
          "time": 92.89468575,
          "velocity": 0.6692913385826772
        },
        {
          "duration": 0.08771925000000635,
          "durationTicks": 96,
          "midi": 46,
          "name": "A#2",
          "ticks": 101664,
          "time": 92.89468575,
          "velocity": 0.6692913385826772
        },
        {
          "duration": 0.08771925000000635,
          "durationTicks": 96,
          "midi": 35,
          "name": "B1",
          "ticks": 101856,
          "time": 93.07012424999999,
          "velocity": 0.6692913385826772
        },
        {
          "duration": 0.08771924999999214,
          "durationTicks": 96,
          "midi": 38,
          "name": "D2",
          "ticks": 102048,
          "time": 93.24556275,
          "velocity": 0.6692913385826772
        },
        {
          "duration": 0.08771924999999214,
          "durationTicks": 96,
          "midi": 35,
          "name": "B1",
          "ticks": 102048,
          "time": 93.24556275,
          "velocity": 0.6692913385826772
        },
        {
          "duration": 0.08771924999999214,
          "durationTicks": 96,
          "midi": 46,
          "name": "A#2",
          "ticks": 102048,
          "time": 93.24556275,
          "velocity": 0.6692913385826772
        },
        {
          "duration": 0.08771924999999214,
          "durationTicks": 96,
          "midi": 36,
          "name": "C2",
          "ticks": 102048,
          "time": 93.24556275,
          "velocity": 0.6692913385826772
        },
        {
          "duration": 0.08771924999999214,
          "durationTicks": 96,
          "midi": 35,
          "name": "B1",
          "ticks": 102432,
          "time": 93.59643975,
          "velocity": 0.6692913385826772
        },
        {
          "duration": 0.08771924999999214,
          "durationTicks": 96,
          "midi": 46,
          "name": "A#2",
          "ticks": 102432,
          "time": 93.59643975,
          "velocity": 0.6692913385826772
        },
        {
          "duration": 0.08771924999999214,
          "durationTicks": 96,
          "midi": 35,
          "name": "B1",
          "ticks": 102624,
          "time": 93.77187825,
          "velocity": 0.6692913385826772
        },
        {
          "duration": 0.08771925000000635,
          "durationTicks": 96,
          "midi": 38,
          "name": "D2",
          "ticks": 102816,
          "time": 93.94731675,
          "velocity": 0.6692913385826772
        },
        {
          "duration": 0.08771925000000635,
          "durationTicks": 96,
          "midi": 35,
          "name": "B1",
          "ticks": 102816,
          "time": 93.94731675,
          "velocity": 0.6692913385826772
        },
        {
          "duration": 0.08771925000000635,
          "durationTicks": 96,
          "midi": 46,
          "name": "A#2",
          "ticks": 102816,
          "time": 93.94731675,
          "velocity": 0.6692913385826772
        },
        {
          "duration": 0.08771925000000635,
          "durationTicks": 96,
          "midi": 36,
          "name": "C2",
          "ticks": 102816,
          "time": 93.94731675,
          "velocity": 0.6692913385826772
        },
        {
          "duration": 0.08771925000000635,
          "durationTicks": 96,
          "midi": 46,
          "name": "A#2",
          "ticks": 103200,
          "time": 94.29819375,
          "velocity": 0.6692913385826772
        },
        {
          "duration": 0.08771925000000635,
          "durationTicks": 96,
          "midi": 35,
          "name": "B1",
          "ticks": 103200,
          "time": 94.29819375,
          "velocity": 0.6692913385826772
        },
        {
          "duration": 0.08771925000000635,
          "durationTicks": 96,
          "midi": 35,
          "name": "B1",
          "ticks": 103392,
          "time": 94.47363225,
          "velocity": 0.6692913385826772
        },
        {
          "duration": 0.08771925000000635,
          "durationTicks": 96,
          "midi": 36,
          "name": "C2",
          "ticks": 103584,
          "time": 94.64907074999999,
          "velocity": 0.6692913385826772
        },
        {
          "duration": 0.08771925000000635,
          "durationTicks": 96,
          "midi": 46,
          "name": "A#2",
          "ticks": 103584,
          "time": 94.64907074999999,
          "velocity": 0.6692913385826772
        },
        {
          "duration": 0.08771925000000635,
          "durationTicks": 96,
          "midi": 38,
          "name": "D2",
          "ticks": 103584,
          "time": 94.64907074999999,
          "velocity": 0.6692913385826772
        },
        {
          "duration": 0.08771925000000635,
          "durationTicks": 96,
          "midi": 35,
          "name": "B1",
          "ticks": 103584,
          "time": 94.64907074999999,
          "velocity": 0.6692913385826772
        },
        {
          "duration": 0.08771924999999214,
          "durationTicks": 96,
          "midi": 46,
          "name": "A#2",
          "ticks": 103968,
          "time": 94.99994775,
          "velocity": 0.6692913385826772
        },
        {
          "duration": 0.08771924999999214,
          "durationTicks": 96,
          "midi": 35,
          "name": "B1",
          "ticks": 103968,
          "time": 94.99994775,
          "velocity": 0.6692913385826772
        },
        {
          "duration": 0.08771924999999214,
          "durationTicks": 96,
          "midi": 35,
          "name": "B1",
          "ticks": 104160,
          "time": 95.17538625,
          "velocity": 0.6692913385826772
        },
        {
          "duration": 0.08771924999999214,
          "durationTicks": 96,
          "midi": 35,
          "name": "B1",
          "ticks": 104352,
          "time": 95.35082475,
          "velocity": 0.6692913385826772
        },
        {
          "duration": 0.08771924999999214,
          "durationTicks": 96,
          "midi": 38,
          "name": "D2",
          "ticks": 104352,
          "time": 95.35082475,
          "velocity": 0.6692913385826772
        },
        {
          "duration": 0.08771924999999214,
          "durationTicks": 96,
          "midi": 36,
          "name": "C2",
          "ticks": 104352,
          "time": 95.35082475,
          "velocity": 0.6692913385826772
        },
        {
          "duration": 0.08771924999999214,
          "durationTicks": 96,
          "midi": 46,
          "name": "A#2",
          "ticks": 104352,
          "time": 95.35082475,
          "velocity": 0.6692913385826772
        },
        {
          "duration": 0.08771925000000635,
          "durationTicks": 96,
          "midi": 35,
          "name": "B1",
          "ticks": 104736,
          "time": 95.70170175,
          "velocity": 0.6692913385826772
        },
        {
          "duration": 0.08771925000000635,
          "durationTicks": 96,
          "midi": 46,
          "name": "A#2",
          "ticks": 104736,
          "time": 95.70170175,
          "velocity": 0.6692913385826772
        },
        {
          "duration": 0.08771925000000635,
          "durationTicks": 96,
          "midi": 35,
          "name": "B1",
          "ticks": 104928,
          "time": 95.87714025,
          "velocity": 0.6692913385826772
        },
        {
          "duration": 0.08771925000000635,
          "durationTicks": 96,
          "midi": 36,
          "name": "C2",
          "ticks": 105120,
          "time": 96.05257875,
          "velocity": 0.6692913385826772
        },
        {
          "duration": 0.08771925000000635,
          "durationTicks": 96,
          "midi": 38,
          "name": "D2",
          "ticks": 105120,
          "time": 96.05257875,
          "velocity": 0.6692913385826772
        },
        {
          "duration": 0.08771925000000635,
          "durationTicks": 96,
          "midi": 46,
          "name": "A#2",
          "ticks": 105120,
          "time": 96.05257875,
          "velocity": 0.6692913385826772
        },
        {
          "duration": 0.08771925000000635,
          "durationTicks": 96,
          "midi": 35,
          "name": "B1",
          "ticks": 105120,
          "time": 96.05257875,
          "velocity": 0.6692913385826772
        },
        {
          "duration": 0.08771925000000635,
          "durationTicks": 96,
          "midi": 46,
          "name": "A#2",
          "ticks": 105504,
          "time": 96.40345574999999,
          "velocity": 0.6692913385826772
        },
        {
          "duration": 0.08771925000000635,
          "durationTicks": 96,
          "midi": 35,
          "name": "B1",
          "ticks": 105504,
          "time": 96.40345574999999,
          "velocity": 0.6692913385826772
        },
        {
          "duration": 0.08771924999999214,
          "durationTicks": 96,
          "midi": 35,
          "name": "B1",
          "ticks": 105696,
          "time": 96.57889425,
          "velocity": 0.6692913385826772
        },
        {
          "duration": 0.08771924999999214,
          "durationTicks": 96,
          "midi": 46,
          "name": "A#2",
          "ticks": 105888,
          "time": 96.75433275,
          "velocity": 0.6692913385826772
        },
        {
          "duration": 0.08771924999999214,
          "durationTicks": 96,
          "midi": 36,
          "name": "C2",
          "ticks": 105888,
          "time": 96.75433275,
          "velocity": 0.6692913385826772
        },
        {
          "duration": 0.08771924999999214,
          "durationTicks": 96,
          "midi": 35,
          "name": "B1",
          "ticks": 105888,
          "time": 96.75433275,
          "velocity": 0.6692913385826772
        },
        {
          "duration": 0.08771924999999214,
          "durationTicks": 96,
          "midi": 38,
          "name": "D2",
          "ticks": 105888,
          "time": 96.75433275,
          "velocity": 0.6692913385826772
        },
        {
          "duration": 0.08771924999999214,
          "durationTicks": 96,
          "midi": 35,
          "name": "B1",
          "ticks": 106272,
          "time": 97.10520975,
          "velocity": 0.6692913385826772
        },
        {
          "duration": 0.08771924999999214,
          "durationTicks": 96,
          "midi": 46,
          "name": "A#2",
          "ticks": 106272,
          "time": 97.10520975,
          "velocity": 0.6692913385826772
        },
        {
          "duration": 0.08771925000000635,
          "durationTicks": 96,
          "midi": 35,
          "name": "B1",
          "ticks": 106464,
          "time": 97.28064825,
          "velocity": 0.6692913385826772
        },
        {
          "duration": 0.08771925000000635,
          "durationTicks": 96,
          "midi": 46,
          "name": "A#2",
          "ticks": 106656,
          "time": 97.45608675,
          "velocity": 0.6692913385826772
        },
        {
          "duration": 0.08771925000000635,
          "durationTicks": 96,
          "midi": 35,
          "name": "B1",
          "ticks": 106656,
          "time": 97.45608675,
          "velocity": 0.6692913385826772
        },
        {
          "duration": 0.08771925000000635,
          "durationTicks": 96,
          "midi": 36,
          "name": "C2",
          "ticks": 106656,
          "time": 97.45608675,
          "velocity": 0.6692913385826772
        },
        {
          "duration": 0.08771925000000635,
          "durationTicks": 96,
          "midi": 38,
          "name": "D2",
          "ticks": 106656,
          "time": 97.45608675,
          "velocity": 0.6692913385826772
        },
        {
          "duration": 0.08771925000000635,
          "durationTicks": 96,
          "midi": 35,
          "name": "B1",
          "ticks": 107040,
          "time": 97.80696375,
          "velocity": 0.6692913385826772
        },
        {
          "duration": 0.08771925000000635,
          "durationTicks": 96,
          "midi": 46,
          "name": "A#2",
          "ticks": 107040,
          "time": 97.80696375,
          "velocity": 0.6692913385826772
        },
        {
          "duration": 0.08771925000000635,
          "durationTicks": 96,
          "midi": 35,
          "name": "B1",
          "ticks": 107232,
          "time": 97.98240224999999,
          "velocity": 0.6692913385826772
        },
        {
          "duration": 0.08771924999999214,
          "durationTicks": 96,
          "midi": 36,
          "name": "C2",
          "ticks": 107424,
          "time": 98.15784075,
          "velocity": 0.6692913385826772
        },
        {
          "duration": 0.08771924999999214,
          "durationTicks": 96,
          "midi": 46,
          "name": "A#2",
          "ticks": 107424,
          "time": 98.15784075,
          "velocity": 0.6692913385826772
        },
        {
          "duration": 0.08771924999999214,
          "durationTicks": 96,
          "midi": 35,
          "name": "B1",
          "ticks": 107424,
          "time": 98.15784075,
          "velocity": 0.6692913385826772
        },
        {
          "duration": 0.08771924999999214,
          "durationTicks": 96,
          "midi": 38,
          "name": "D2",
          "ticks": 107424,
          "time": 98.15784075,
          "velocity": 0.6692913385826772
        },
        {
          "duration": 0.08771924999999214,
          "durationTicks": 96,
          "midi": 35,
          "name": "B1",
          "ticks": 107808,
          "time": 98.50871775,
          "velocity": 0.6692913385826772
        },
        {
          "duration": 0.08771924999999214,
          "durationTicks": 96,
          "midi": 46,
          "name": "A#2",
          "ticks": 107808,
          "time": 98.50871775,
          "velocity": 0.6692913385826772
        },
        {
          "duration": 0.08771924999999214,
          "durationTicks": 96,
          "midi": 35,
          "name": "B1",
          "ticks": 108000,
          "time": 98.68415625,
          "velocity": 0.6692913385826772
        },
        {
          "duration": 0.08771924999999214,
          "durationTicks": 96,
          "midi": 38,
          "name": "D2",
          "ticks": 108192,
          "time": 98.85959475,
          "velocity": 0.6692913385826772
        },
        {
          "duration": 0.08771924999999214,
          "durationTicks": 96,
          "midi": 46,
          "name": "A#2",
          "ticks": 108192,
          "time": 98.85959475,
          "velocity": 0.6692913385826772
        },
        {
          "duration": 0.08771924999999214,
          "durationTicks": 96,
          "midi": 35,
          "name": "B1",
          "ticks": 108192,
          "time": 98.85959475,
          "velocity": 0.6692913385826772
        },
        {
          "duration": 0.08771924999999214,
          "durationTicks": 96,
          "midi": 36,
          "name": "C2",
          "ticks": 108192,
          "time": 98.85959475,
          "velocity": 0.6692913385826772
        },
        {
          "duration": 0.08771925000000635,
          "durationTicks": 96,
          "midi": 35,
          "name": "B1",
          "ticks": 108576,
          "time": 99.21047175,
          "velocity": 0.6692913385826772
        },
        {
          "duration": 0.08771925000000635,
          "durationTicks": 96,
          "midi": 46,
          "name": "A#2",
          "ticks": 108576,
          "time": 99.21047175,
          "velocity": 0.6692913385826772
        },
        {
          "duration": 0.08771925000000635,
          "durationTicks": 96,
          "midi": 35,
          "name": "B1",
          "ticks": 108768,
          "time": 99.38591025,
          "velocity": 0.6692913385826772
        },
        {
          "duration": 0.08771925000000635,
          "durationTicks": 96,
          "midi": 35,
          "name": "B1",
          "ticks": 108960,
          "time": 99.56134875,
          "velocity": 0.6692913385826772
        },
        {
          "duration": 0.08771925000000635,
          "durationTicks": 96,
          "midi": 38,
          "name": "D2",
          "ticks": 108960,
          "time": 99.56134875,
          "velocity": 0.6692913385826772
        },
        {
          "duration": 0.08771925000000635,
          "durationTicks": 96,
          "midi": 36,
          "name": "C2",
          "ticks": 108960,
          "time": 99.56134875,
          "velocity": 0.6692913385826772
        },
        {
          "duration": 0.08771925000000635,
          "durationTicks": 96,
          "midi": 46,
          "name": "A#2",
          "ticks": 108960,
          "time": 99.56134875,
          "velocity": 0.6692913385826772
        },
        {
          "duration": 0.08771924999999214,
          "durationTicks": 96,
          "midi": 35,
          "name": "B1",
          "ticks": 109344,
          "time": 99.91222575,
          "velocity": 0.6692913385826772
        },
        {
          "duration": 0.08771924999999214,
          "durationTicks": 96,
          "midi": 46,
          "name": "A#2",
          "ticks": 109344,
          "time": 99.91222575,
          "velocity": 0.6692913385826772
        },
        {
          "duration": 0.08771924999999214,
          "durationTicks": 96,
          "midi": 35,
          "name": "B1",
          "ticks": 109536,
          "time": 100.08766425,
          "velocity": 0.6692913385826772
        },
        {
          "duration": 0.08771924999999214,
          "durationTicks": 96,
          "midi": 46,
          "name": "A#2",
          "ticks": 109728,
          "time": 100.26310275,
          "velocity": 0.6692913385826772
        },
        {
          "duration": 0.08771924999999214,
          "durationTicks": 96,
          "midi": 36,
          "name": "C2",
          "ticks": 109728,
          "time": 100.26310275,
          "velocity": 0.6692913385826772
        },
        {
          "duration": 0.08771924999999214,
          "durationTicks": 96,
          "midi": 35,
          "name": "B1",
          "ticks": 109728,
          "time": 100.26310275,
          "velocity": 0.6692913385826772
        },
        {
          "duration": 0.08771924999999214,
          "durationTicks": 96,
          "midi": 38,
          "name": "D2",
          "ticks": 109728,
          "time": 100.26310275,
          "velocity": 0.6692913385826772
        },
        {
          "duration": 0.08771925000000635,
          "durationTicks": 96,
          "midi": 46,
          "name": "A#2",
          "ticks": 110112,
          "time": 100.61397975,
          "velocity": 0.6692913385826772
        },
        {
          "duration": 0.08771925000000635,
          "durationTicks": 96,
          "midi": 35,
          "name": "B1",
          "ticks": 110112,
          "time": 100.61397975,
          "velocity": 0.6692913385826772
        },
        {
          "duration": 0.08771925000000635,
          "durationTicks": 96,
          "midi": 35,
          "name": "B1",
          "ticks": 110304,
          "time": 100.78941825,
          "velocity": 0.6692913385826772
        },
        {
          "duration": 0.08771925000000635,
          "durationTicks": 96,
          "midi": 46,
          "name": "A#2",
          "ticks": 110496,
          "time": 100.96485675,
          "velocity": 0.6692913385826772
        },
        {
          "duration": 0.08771925000000635,
          "durationTicks": 96,
          "midi": 35,
          "name": "B1",
          "ticks": 110496,
          "time": 100.96485675,
          "velocity": 0.6692913385826772
        },
        {
          "duration": 0.08771925000000635,
          "durationTicks": 96,
          "midi": 36,
          "name": "C2",
          "ticks": 110496,
          "time": 100.96485675,
          "velocity": 0.6692913385826772
        },
        {
          "duration": 0.08771925000000635,
          "durationTicks": 96,
          "midi": 38,
          "name": "D2",
          "ticks": 110496,
          "time": 100.96485675,
          "velocity": 0.6692913385826772
        },
        {
          "duration": 0.08771925000000635,
          "durationTicks": 96,
          "midi": 46,
          "name": "A#2",
          "ticks": 110880,
          "time": 101.31573374999999,
          "velocity": 0.6692913385826772
        },
        {
          "duration": 0.08771925000000635,
          "durationTicks": 96,
          "midi": 35,
          "name": "B1",
          "ticks": 110880,
          "time": 101.31573374999999,
          "velocity": 0.6692913385826772
        },
        {
          "duration": 0.08771924999999214,
          "durationTicks": 96,
          "midi": 35,
          "name": "B1",
          "ticks": 111072,
          "time": 101.49117225,
          "velocity": 0.6692913385826772
        },
        {
          "duration": 0.08771924999999214,
          "durationTicks": 96,
          "midi": 38,
          "name": "D2",
          "ticks": 111264,
          "time": 101.66661075,
          "velocity": 0.6692913385826772
        },
        {
          "duration": 0.08771924999999214,
          "durationTicks": 96,
          "midi": 35,
          "name": "B1",
          "ticks": 111264,
          "time": 101.66661075,
          "velocity": 0.6692913385826772
        },
        {
          "duration": 0.08771924999999214,
          "durationTicks": 96,
          "midi": 46,
          "name": "A#2",
          "ticks": 111264,
          "time": 101.66661075,
          "velocity": 0.6692913385826772
        },
        {
          "duration": 0.08771924999999214,
          "durationTicks": 96,
          "midi": 36,
          "name": "C2",
          "ticks": 111264,
          "time": 101.66661075,
          "velocity": 0.6692913385826772
        },
        {
          "duration": 0.08771924999999214,
          "durationTicks": 96,
          "midi": 35,
          "name": "B1",
          "ticks": 111648,
          "time": 102.01748775,
          "velocity": 0.6692913385826772
        },
        {
          "duration": 0.08771924999999214,
          "durationTicks": 96,
          "midi": 46,
          "name": "A#2",
          "ticks": 111648,
          "time": 102.01748775,
          "velocity": 0.6692913385826772
        },
        {
          "duration": 0.08771924999999214,
          "durationTicks": 96,
          "midi": 35,
          "name": "B1",
          "ticks": 111840,
          "time": 102.19292625,
          "velocity": 0.6692913385826772
        },
        {
          "duration": 0.08771925000000635,
          "durationTicks": 96,
          "midi": 46,
          "name": "A#2",
          "ticks": 112032,
          "time": 102.36836475,
          "velocity": 0.6692913385826772
        },
        {
          "duration": 0.08771925000000635,
          "durationTicks": 96,
          "midi": 38,
          "name": "D2",
          "ticks": 112032,
          "time": 102.36836475,
          "velocity": 0.6692913385826772
        },
        {
          "duration": 0.08771925000000635,
          "durationTicks": 96,
          "midi": 36,
          "name": "C2",
          "ticks": 112032,
          "time": 102.36836475,
          "velocity": 0.6692913385826772
        },
        {
          "duration": 0.08771925000000635,
          "durationTicks": 96,
          "midi": 35,
          "name": "B1",
          "ticks": 112032,
          "time": 102.36836475,
          "velocity": 0.6692913385826772
        },
        {
          "duration": 0.08771925000000635,
          "durationTicks": 96,
          "midi": 35,
          "name": "B1",
          "ticks": 112416,
          "time": 102.71924175,
          "velocity": 0.6692913385826772
        },
        {
          "duration": 0.08771925000000635,
          "durationTicks": 96,
          "midi": 46,
          "name": "A#2",
          "ticks": 112416,
          "time": 102.71924175,
          "velocity": 0.6692913385826772
        },
        {
          "duration": 0.08771925000000635,
          "durationTicks": 96,
          "midi": 35,
          "name": "B1",
          "ticks": 112608,
          "time": 102.89468025,
          "velocity": 0.6692913385826772
        },
        {
          "duration": 0.08771925000000635,
          "durationTicks": 96,
          "midi": 38,
          "name": "D2",
          "ticks": 112800,
          "time": 103.07011874999999,
          "velocity": 0.6692913385826772
        },
        {
          "duration": 0.08771925000000635,
          "durationTicks": 96,
          "midi": 35,
          "name": "B1",
          "ticks": 112800,
          "time": 103.07011874999999,
          "velocity": 0.6692913385826772
        },
        {
          "duration": 0.08771925000000635,
          "durationTicks": 96,
          "midi": 46,
          "name": "A#2",
          "ticks": 112800,
          "time": 103.07011874999999,
          "velocity": 0.6692913385826772
        },
        {
          "duration": 0.08771925000000635,
          "durationTicks": 96,
          "midi": 36,
          "name": "C2",
          "ticks": 112800,
          "time": 103.07011874999999,
          "velocity": 0.6692913385826772
        },
        {
          "duration": 0.08771924999999214,
          "durationTicks": 96,
          "midi": 35,
          "name": "B1",
          "ticks": 113184,
          "time": 103.42099575,
          "velocity": 0.6692913385826772
        },
        {
          "duration": 0.08771924999999214,
          "durationTicks": 96,
          "midi": 46,
          "name": "A#2",
          "ticks": 113184,
          "time": 103.42099575,
          "velocity": 0.6692913385826772
        },
        {
          "duration": 0.08771924999999214,
          "durationTicks": 96,
          "midi": 35,
          "name": "B1",
          "ticks": 113376,
          "time": 103.59643425,
          "velocity": 0.6692913385826772
        },
        {
          "duration": 0.08771924999999214,
          "durationTicks": 96,
          "midi": 38,
          "name": "D2",
          "ticks": 113568,
          "time": 103.77187275,
          "velocity": 0.6692913385826772
        },
        {
          "duration": 0.08771924999999214,
          "durationTicks": 96,
          "midi": 46,
          "name": "A#2",
          "ticks": 113568,
          "time": 103.77187275,
          "velocity": 0.6692913385826772
        },
        {
          "duration": 0.08771924999999214,
          "durationTicks": 96,
          "midi": 36,
          "name": "C2",
          "ticks": 113568,
          "time": 103.77187275,
          "velocity": 0.6692913385826772
        },
        {
          "duration": 0.08771924999999214,
          "durationTicks": 96,
          "midi": 35,
          "name": "B1",
          "ticks": 113568,
          "time": 103.77187275,
          "velocity": 0.6692913385826772
        },
        {
          "duration": 0.08771925000000635,
          "durationTicks": 96,
          "midi": 35,
          "name": "B1",
          "ticks": 113952,
          "time": 104.12274975,
          "velocity": 0.6692913385826772
        },
        {
          "duration": 0.08771925000000635,
          "durationTicks": 96,
          "midi": 46,
          "name": "A#2",
          "ticks": 113952,
          "time": 104.12274975,
          "velocity": 0.6692913385826772
        },
        {
          "duration": 0.08771925000000635,
          "durationTicks": 96,
          "midi": 35,
          "name": "B1",
          "ticks": 114144,
          "time": 104.29818825,
          "velocity": 0.6692913385826772
        },
        {
          "duration": 0.08771925000000635,
          "durationTicks": 96,
          "midi": 38,
          "name": "D2",
          "ticks": 114336,
          "time": 104.47362675,
          "velocity": 0.6692913385826772
        },
        {
          "duration": 0.08771925000000635,
          "durationTicks": 96,
          "midi": 46,
          "name": "A#2",
          "ticks": 114336,
          "time": 104.47362675,
          "velocity": 0.6692913385826772
        },
        {
          "duration": 0.08771925000000635,
          "durationTicks": 96,
          "midi": 36,
          "name": "C2",
          "ticks": 114336,
          "time": 104.47362675,
          "velocity": 0.6692913385826772
        },
        {
          "duration": 0.08771925000000635,
          "durationTicks": 96,
          "midi": 35,
          "name": "B1",
          "ticks": 114336,
          "time": 104.47362675,
          "velocity": 0.6692913385826772
        },
        {
          "duration": 0.08771924999999214,
          "durationTicks": 96,
          "midi": 46,
          "name": "A#2",
          "ticks": 114720,
          "time": 104.82450375,
          "velocity": 0.6692913385826772
        },
        {
          "duration": 0.08771924999999214,
          "durationTicks": 96,
          "midi": 35,
          "name": "B1",
          "ticks": 114720,
          "time": 104.82450375,
          "velocity": 0.6692913385826772
        },
        {
          "duration": 0.08771924999999214,
          "durationTicks": 96,
          "midi": 35,
          "name": "B1",
          "ticks": 114912,
          "time": 104.99994225,
          "velocity": 0.6692913385826772
        },
        {
          "duration": 0.08771924999999214,
          "durationTicks": 96,
          "midi": 36,
          "name": "C2",
          "ticks": 115104,
          "time": 105.17538075,
          "velocity": 0.6692913385826772
        },
        {
          "duration": 0.08771924999999214,
          "durationTicks": 96,
          "midi": 35,
          "name": "B1",
          "ticks": 115104,
          "time": 105.17538075,
          "velocity": 0.6692913385826772
        },
        {
          "duration": 0.08771924999999214,
          "durationTicks": 96,
          "midi": 46,
          "name": "A#2",
          "ticks": 115104,
          "time": 105.17538075,
          "velocity": 0.6692913385826772
        },
        {
          "duration": 0.08771924999999214,
          "durationTicks": 96,
          "midi": 38,
          "name": "D2",
          "ticks": 115104,
          "time": 105.17538075,
          "velocity": 0.6692913385826772
        },
        {
          "duration": 0.08771924999999214,
          "durationTicks": 96,
          "midi": 35,
          "name": "B1",
          "ticks": 115488,
          "time": 105.52625775,
          "velocity": 0.6692913385826772
        },
        {
          "duration": 0.08771924999999214,
          "durationTicks": 96,
          "midi": 46,
          "name": "A#2",
          "ticks": 115488,
          "time": 105.52625775,
          "velocity": 0.6692913385826772
        },
        {
          "duration": 0.08771925000000635,
          "durationTicks": 96,
          "midi": 35,
          "name": "B1",
          "ticks": 115680,
          "time": 105.70169625,
          "velocity": 0.6692913385826772
        },
        {
          "duration": 0.08771925000000635,
          "durationTicks": 96,
          "midi": 46,
          "name": "A#2",
          "ticks": 115872,
          "time": 105.87713475,
          "velocity": 0.6692913385826772
        },
        {
          "duration": 0.08771925000000635,
          "durationTicks": 96,
          "midi": 35,
          "name": "B1",
          "ticks": 115872,
          "time": 105.87713475,
          "velocity": 0.6692913385826772
        },
        {
          "duration": 0.08771925000000635,
          "durationTicks": 96,
          "midi": 36,
          "name": "C2",
          "ticks": 115872,
          "time": 105.87713475,
          "velocity": 0.6692913385826772
        },
        {
          "duration": 0.08771925000000635,
          "durationTicks": 96,
          "midi": 38,
          "name": "D2",
          "ticks": 115872,
          "time": 105.87713475,
          "velocity": 0.6692913385826772
        },
        {
          "duration": 0.08771925000000635,
          "durationTicks": 96,
          "midi": 46,
          "name": "A#2",
          "ticks": 116256,
          "time": 106.22801175,
          "velocity": 0.6692913385826772
        },
        {
          "duration": 0.08771925000000635,
          "durationTicks": 96,
          "midi": 35,
          "name": "B1",
          "ticks": 116256,
          "time": 106.22801175,
          "velocity": 0.6692913385826772
        },
        {
          "duration": 0.08771925000000635,
          "durationTicks": 96,
          "midi": 35,
          "name": "B1",
          "ticks": 116448,
          "time": 106.40345024999999,
          "velocity": 0.6692913385826772
        },
        {
          "duration": 0.08771924999999214,
          "durationTicks": 96,
          "midi": 38,
          "name": "D2",
          "ticks": 116640,
          "time": 106.57888875,
          "velocity": 0.6692913385826772
        },
        {
          "duration": 0.08771924999999214,
          "durationTicks": 96,
          "midi": 36,
          "name": "C2",
          "ticks": 116640,
          "time": 106.57888875,
          "velocity": 0.6692913385826772
        },
        {
          "duration": 0.08771924999999214,
          "durationTicks": 96,
          "midi": 35,
          "name": "B1",
          "ticks": 116640,
          "time": 106.57888875,
          "velocity": 0.6692913385826772
        },
        {
          "duration": 0.08771924999999214,
          "durationTicks": 96,
          "midi": 46,
          "name": "A#2",
          "ticks": 116640,
          "time": 106.57888875,
          "velocity": 0.6692913385826772
        },
        {
          "duration": 0.08771924999999214,
          "durationTicks": 96,
          "midi": 46,
          "name": "A#2",
          "ticks": 117024,
          "time": 106.92976575,
          "velocity": 0.6692913385826772
        },
        {
          "duration": 0.08771924999999214,
          "durationTicks": 96,
          "midi": 35,
          "name": "B1",
          "ticks": 117024,
          "time": 106.92976575,
          "velocity": 0.6692913385826772
        },
        {
          "duration": 0.08771924999999214,
          "durationTicks": 96,
          "midi": 35,
          "name": "B1",
          "ticks": 117216,
          "time": 107.10520425,
          "velocity": 0.6692913385826772
        },
        {
          "duration": 0.08771925000000635,
          "durationTicks": 96,
          "midi": 38,
          "name": "D2",
          "ticks": 117408,
          "time": 107.28064275,
          "velocity": 0.6692913385826772
        },
        {
          "duration": 0.08771925000000635,
          "durationTicks": 96,
          "midi": 35,
          "name": "B1",
          "ticks": 117408,
          "time": 107.28064275,
          "velocity": 0.6692913385826772
        },
        {
          "duration": 0.08771925000000635,
          "durationTicks": 96,
          "midi": 36,
          "name": "C2",
          "ticks": 117408,
          "time": 107.28064275,
          "velocity": 0.6692913385826772
        },
        {
          "duration": 0.08771925000000635,
          "durationTicks": 96,
          "midi": 46,
          "name": "A#2",
          "ticks": 117408,
          "time": 107.28064275,
          "velocity": 0.6692913385826772
        },
        {
          "duration": 0.08771925000000635,
          "durationTicks": 96,
          "midi": 35,
          "name": "B1",
          "ticks": 117792,
          "time": 107.63151975,
          "velocity": 0.6692913385826772
        },
        {
          "duration": 0.08771925000000635,
          "durationTicks": 96,
          "midi": 46,
          "name": "A#2",
          "ticks": 117792,
          "time": 107.63151975,
          "velocity": 0.6692913385826772
        },
        {
          "duration": 0.08771925000000635,
          "durationTicks": 96,
          "midi": 35,
          "name": "B1",
          "ticks": 117984,
          "time": 107.80695825,
          "velocity": 0.6692913385826772
        },
        {
          "duration": 0.08771925000000635,
          "durationTicks": 96,
          "midi": 35,
          "name": "B1",
          "ticks": 118176,
          "time": 107.98239674999999,
          "velocity": 0.6692913385826772
        },
        {
          "duration": 0.08771925000000635,
          "durationTicks": 96,
          "midi": 46,
          "name": "A#2",
          "ticks": 118176,
          "time": 107.98239674999999,
          "velocity": 0.6692913385826772
        },
        {
          "duration": 0.08771925000000635,
          "durationTicks": 96,
          "midi": 38,
          "name": "D2",
          "ticks": 118176,
          "time": 107.98239674999999,
          "velocity": 0.6692913385826772
        },
        {
          "duration": 0.08771925000000635,
          "durationTicks": 96,
          "midi": 36,
          "name": "C2",
          "ticks": 118176,
          "time": 107.98239674999999,
          "velocity": 0.6692913385826772
        },
        {
          "duration": 0.08771924999999214,
          "durationTicks": 96,
          "midi": 46,
          "name": "A#2",
          "ticks": 118560,
          "time": 108.33327375,
          "velocity": 0.6692913385826772
        },
        {
          "duration": 0.08771924999999214,
          "durationTicks": 96,
          "midi": 35,
          "name": "B1",
          "ticks": 118560,
          "time": 108.33327375,
          "velocity": 0.6692913385826772
        },
        {
          "duration": 0.08771924999999214,
          "durationTicks": 96,
          "midi": 35,
          "name": "B1",
          "ticks": 118752,
          "time": 108.50871225,
          "velocity": 0.6692913385826772
        },
        {
          "duration": 0.08771924999999214,
          "durationTicks": 96,
          "midi": 35,
          "name": "B1",
          "ticks": 118944,
          "time": 108.68415075,
          "velocity": 0.6692913385826772
        },
        {
          "duration": 0.08771924999999214,
          "durationTicks": 96,
          "midi": 36,
          "name": "C2",
          "ticks": 118944,
          "time": 108.68415075,
          "velocity": 0.6692913385826772
        },
        {
          "duration": 0.08771924999999214,
          "durationTicks": 96,
          "midi": 46,
          "name": "A#2",
          "ticks": 118944,
          "time": 108.68415075,
          "velocity": 0.6692913385826772
        },
        {
          "duration": 0.08771924999999214,
          "durationTicks": 96,
          "midi": 38,
          "name": "D2",
          "ticks": 118944,
          "time": 108.68415075,
          "velocity": 0.6692913385826772
        },
        {
          "duration": 0.08771925000000635,
          "durationTicks": 96,
          "midi": 35,
          "name": "B1",
          "ticks": 119328,
          "time": 109.03502775,
          "velocity": 0.6692913385826772
        },
        {
          "duration": 0.08771925000000635,
          "durationTicks": 96,
          "midi": 46,
          "name": "A#2",
          "ticks": 119328,
          "time": 109.03502775,
          "velocity": 0.6692913385826772
        },
        {
          "duration": 0.08771925000000635,
          "durationTicks": 96,
          "midi": 35,
          "name": "B1",
          "ticks": 119520,
          "time": 109.21046625,
          "velocity": 0.6692913385826772
        },
        {
          "duration": 0.08771925000000635,
          "durationTicks": 96,
          "midi": 35,
          "name": "B1",
          "ticks": 119712,
          "time": 109.38590475,
          "velocity": 0.6692913385826772
        },
        {
          "duration": 0.08771925000000635,
          "durationTicks": 96,
          "midi": 38,
          "name": "D2",
          "ticks": 119712,
          "time": 109.38590475,
          "velocity": 0.6692913385826772
        },
        {
          "duration": 0.08771925000000635,
          "durationTicks": 96,
          "midi": 36,
          "name": "C2",
          "ticks": 119712,
          "time": 109.38590475,
          "velocity": 0.6692913385826772
        },
        {
          "duration": 0.08771925000000635,
          "durationTicks": 96,
          "midi": 46,
          "name": "A#2",
          "ticks": 119712,
          "time": 109.38590475,
          "velocity": 0.6692913385826772
        },
        {
          "duration": 0.08771925000000635,
          "durationTicks": 96,
          "midi": 35,
          "name": "B1",
          "ticks": 120096,
          "time": 109.73678174999999,
          "velocity": 0.6692913385826772
        },
        {
          "duration": 0.08771925000000635,
          "durationTicks": 96,
          "midi": 46,
          "name": "A#2",
          "ticks": 120096,
          "time": 109.73678174999999,
          "velocity": 0.6692913385826772
        },
        {
          "duration": 0.08771924999999214,
          "durationTicks": 96,
          "midi": 35,
          "name": "B1",
          "ticks": 120288,
          "time": 109.91222025,
          "velocity": 0.6692913385826772
        },
        {
          "duration": 0.08771924999999214,
          "durationTicks": 96,
          "midi": 46,
          "name": "A#2",
          "ticks": 120480,
          "time": 110.08765875,
          "velocity": 0.6692913385826772
        },
        {
          "duration": 0.08771924999999214,
          "durationTicks": 96,
          "midi": 38,
          "name": "D2",
          "ticks": 120480,
          "time": 110.08765875,
          "velocity": 0.6692913385826772
        },
        {
          "duration": 0.08771924999999214,
          "durationTicks": 96,
          "midi": 35,
          "name": "B1",
          "ticks": 120480,
          "time": 110.08765875,
          "velocity": 0.6692913385826772
        },
        {
          "duration": 0.08771924999999214,
          "durationTicks": 96,
          "midi": 36,
          "name": "C2",
          "ticks": 120480,
          "time": 110.08765875,
          "velocity": 0.6692913385826772
        },
        {
          "duration": 0.08771924999999214,
          "durationTicks": 96,
          "midi": 46,
          "name": "A#2",
          "ticks": 120864,
          "time": 110.43853575,
          "velocity": 0.6692913385826772
        },
        {
          "duration": 0.08771924999999214,
          "durationTicks": 96,
          "midi": 35,
          "name": "B1",
          "ticks": 120864,
          "time": 110.43853575,
          "velocity": 0.6692913385826772
        },
        {
          "duration": 0.08771925000000635,
          "durationTicks": 96,
          "midi": 35,
          "name": "B1",
          "ticks": 121056,
          "time": 110.61397425,
          "velocity": 0.6692913385826772
        },
        {
          "duration": 0.08771925000000635,
          "durationTicks": 96,
          "midi": 38,
          "name": "D2",
          "ticks": 121248,
          "time": 110.78941275,
          "velocity": 0.6692913385826772
        },
        {
          "duration": 0.08771925000000635,
          "durationTicks": 96,
          "midi": 46,
          "name": "A#2",
          "ticks": 121248,
          "time": 110.78941275,
          "velocity": 0.6692913385826772
        },
        {
          "duration": 0.08771925000000635,
          "durationTicks": 96,
          "midi": 35,
          "name": "B1",
          "ticks": 121248,
          "time": 110.78941275,
          "velocity": 0.6692913385826772
        },
        {
          "duration": 0.08771925000000635,
          "durationTicks": 96,
          "midi": 36,
          "name": "C2",
          "ticks": 121248,
          "time": 110.78941275,
          "velocity": 0.6692913385826772
        },
        {
          "duration": 0.08771925000000635,
          "durationTicks": 96,
          "midi": 35,
          "name": "B1",
          "ticks": 121632,
          "time": 111.14028975,
          "velocity": 0.6692913385826772
        },
        {
          "duration": 0.08771925000000635,
          "durationTicks": 96,
          "midi": 46,
          "name": "A#2",
          "ticks": 121632,
          "time": 111.14028975,
          "velocity": 0.6692913385826772
        },
        {
          "duration": 0.08771925000000635,
          "durationTicks": 96,
          "midi": 35,
          "name": "B1",
          "ticks": 121824,
          "time": 111.31572824999999,
          "velocity": 0.6692913385826772
        },
        {
          "duration": 0.08771924999999214,
          "durationTicks": 96,
          "midi": 46,
          "name": "A#2",
          "ticks": 122016,
          "time": 111.49116675,
          "velocity": 0.6692913385826772
        },
        {
          "duration": 0.08771924999999214,
          "durationTicks": 96,
          "midi": 35,
          "name": "B1",
          "ticks": 122016,
          "time": 111.49116675,
          "velocity": 0.6692913385826772
        },
        {
          "duration": 0.08771924999999214,
          "durationTicks": 96,
          "midi": 36,
          "name": "C2",
          "ticks": 122016,
          "time": 111.49116675,
          "velocity": 0.6692913385826772
        },
        {
          "duration": 0.08771924999999214,
          "durationTicks": 96,
          "midi": 38,
          "name": "D2",
          "ticks": 122016,
          "time": 111.49116675,
          "velocity": 0.6692913385826772
        },
        {
          "duration": 0.08771924999999214,
          "durationTicks": 96,
          "midi": 35,
          "name": "B1",
          "ticks": 122400,
          "time": 111.84204375,
          "velocity": 0.6692913385826772
        },
        {
          "duration": 0.08771924999999214,
          "durationTicks": 96,
          "midi": 46,
          "name": "A#2",
          "ticks": 122400,
          "time": 111.84204375,
          "velocity": 0.6692913385826772
        },
        {
          "duration": 0.08771924999999214,
          "durationTicks": 96,
          "midi": 35,
          "name": "B1",
          "ticks": 122592,
          "time": 112.01748225,
          "velocity": 0.6692913385826772
        },
        {
          "duration": 0.08771925000000635,
          "durationTicks": 96,
          "midi": 35,
          "name": "B1",
          "ticks": 122784,
          "time": 112.19292075,
          "velocity": 0.6692913385826772
        },
        {
          "duration": 0.08771925000000635,
          "durationTicks": 96,
          "midi": 36,
          "name": "C2",
          "ticks": 122784,
          "time": 112.19292075,
          "velocity": 0.6692913385826772
        },
        {
          "duration": 0.08771925000000635,
          "durationTicks": 96,
          "midi": 38,
          "name": "D2",
          "ticks": 122784,
          "time": 112.19292075,
          "velocity": 0.6692913385826772
        },
        {
          "duration": 0.08771925000000635,
          "durationTicks": 96,
          "midi": 46,
          "name": "A#2",
          "ticks": 122784,
          "time": 112.19292075,
          "velocity": 0.6692913385826772
        },
        {
          "duration": 0.08771925000000635,
          "durationTicks": 96,
          "midi": 46,
          "name": "A#2",
          "ticks": 123168,
          "time": 112.54379775,
          "velocity": 0.6692913385826772
        },
        {
          "duration": 0.08771925000000635,
          "durationTicks": 96,
          "midi": 35,
          "name": "B1",
          "ticks": 123168,
          "time": 112.54379775,
          "velocity": 0.6692913385826772
        },
        {
          "duration": 0.08771925000000635,
          "durationTicks": 96,
          "midi": 35,
          "name": "B1",
          "ticks": 123360,
          "time": 112.71923625,
          "velocity": 0.6692913385826772
        },
        {
          "duration": 0.08771925000000635,
          "durationTicks": 96,
          "midi": 81,
          "name": "A5",
          "ticks": 123552,
          "time": 112.89467475,
          "velocity": 0.6692913385826772
        },
        {
          "duration": 0.08771925000000635,
          "durationTicks": 96,
          "midi": 46,
          "name": "A#2",
          "ticks": 123552,
          "time": 112.89467475,
          "velocity": 0.6692913385826772
        },
        {
          "duration": 0.08771925000000635,
          "durationTicks": 96,
          "midi": 38,
          "name": "D2",
          "ticks": 123552,
          "time": 112.89467475,
          "velocity": 0.6692913385826772
        },
        {
          "duration": 0.08771925000000635,
          "durationTicks": 96,
          "midi": 36,
          "name": "C2",
          "ticks": 123552,
          "time": 112.89467475,
          "velocity": 0.6692913385826772
        },
        {
          "duration": 0.08771925000000635,
          "durationTicks": 96,
          "midi": 35,
          "name": "B1",
          "ticks": 123552,
          "time": 112.89467475,
          "velocity": 0.6692913385826772
        },
        {
          "duration": 0.08771924999999214,
          "durationTicks": 96,
          "midi": 35,
          "name": "B1",
          "ticks": 123936,
          "time": 113.24555175,
          "velocity": 0.6692913385826772
        },
        {
          "duration": 0.08771924999999214,
          "durationTicks": 96,
          "midi": 46,
          "name": "A#2",
          "ticks": 123936,
          "time": 113.24555175,
          "velocity": 0.6692913385826772
        },
        {
          "duration": 0.08771924999999214,
          "durationTicks": 96,
          "midi": 35,
          "name": "B1",
          "ticks": 124128,
          "time": 113.42099025,
          "velocity": 0.6692913385826772
        },
        {
          "duration": 0.08771924999999214,
          "durationTicks": 96,
          "midi": 81,
          "name": "A5",
          "ticks": 124320,
          "time": 113.59642875,
          "velocity": 0.6692913385826772
        },
        {
          "duration": 0.08771924999999214,
          "durationTicks": 96,
          "midi": 35,
          "name": "B1",
          "ticks": 124320,
          "time": 113.59642875,
          "velocity": 0.6692913385826772
        },
        {
          "duration": 0.08771924999999214,
          "durationTicks": 96,
          "midi": 46,
          "name": "A#2",
          "ticks": 124320,
          "time": 113.59642875,
          "velocity": 0.6692913385826772
        },
        {
          "duration": 0.08771924999999214,
          "durationTicks": 96,
          "midi": 36,
          "name": "C2",
          "ticks": 124320,
          "time": 113.59642875,
          "velocity": 0.6692913385826772
        },
        {
          "duration": 0.08771924999999214,
          "durationTicks": 96,
          "midi": 38,
          "name": "D2",
          "ticks": 124320,
          "time": 113.59642875,
          "velocity": 0.6692913385826772
        },
        {
          "duration": 0.08771925000000635,
          "durationTicks": 96,
          "midi": 46,
          "name": "A#2",
          "ticks": 124704,
          "time": 113.94730575,
          "velocity": 0.6692913385826772
        },
        {
          "duration": 0.08771925000000635,
          "durationTicks": 96,
          "midi": 35,
          "name": "B1",
          "ticks": 124704,
          "time": 113.94730575,
          "velocity": 0.6692913385826772
        },
        {
          "duration": 0.08771925000000635,
          "durationTicks": 96,
          "midi": 35,
          "name": "B1",
          "ticks": 124896,
          "time": 114.12274425,
          "velocity": 0.6692913385826772
        },
        {
          "duration": 0.08771925000000635,
          "durationTicks": 96,
          "midi": 38,
          "name": "D2",
          "ticks": 125088,
          "time": 114.29818275,
          "velocity": 0.6692913385826772
        },
        {
          "duration": 0.08771925000000635,
          "durationTicks": 96,
          "midi": 46,
          "name": "A#2",
          "ticks": 125088,
          "time": 114.29818275,
          "velocity": 0.6692913385826772
        },
        {
          "duration": 0.08771925000000635,
          "durationTicks": 96,
          "midi": 36,
          "name": "C2",
          "ticks": 125088,
          "time": 114.29818275,
          "velocity": 0.6692913385826772
        },
        {
          "duration": 0.08771925000000635,
          "durationTicks": 96,
          "midi": 81,
          "name": "A5",
          "ticks": 125088,
          "time": 114.29818275,
          "velocity": 0.6692913385826772
        },
        {
          "duration": 0.08771925000000635,
          "durationTicks": 96,
          "midi": 35,
          "name": "B1",
          "ticks": 125088,
          "time": 114.29818275,
          "velocity": 0.6692913385826772
        },
        {
          "duration": 0.08771925000000635,
          "durationTicks": 96,
          "midi": 35,
          "name": "B1",
          "ticks": 125472,
          "time": 114.64905974999999,
          "velocity": 0.6692913385826772
        },
        {
          "duration": 0.08771925000000635,
          "durationTicks": 96,
          "midi": 46,
          "name": "A#2",
          "ticks": 125472,
          "time": 114.64905974999999,
          "velocity": 0.6692913385826772
        },
        {
          "duration": 0.08771924999999214,
          "durationTicks": 96,
          "midi": 35,
          "name": "B1",
          "ticks": 125664,
          "time": 114.82449825,
          "velocity": 0.6692913385826772
        },
        {
          "duration": 0.08771924999999214,
          "durationTicks": 96,
          "midi": 46,
          "name": "A#2",
          "ticks": 125856,
          "time": 114.99993675,
          "velocity": 0.6692913385826772
        },
        {
          "duration": 0.08771924999999214,
          "durationTicks": 96,
          "midi": 36,
          "name": "C2",
          "ticks": 125856,
          "time": 114.99993675,
          "velocity": 0.6692913385826772
        },
        {
          "duration": 0.08771924999999214,
          "durationTicks": 96,
          "midi": 38,
          "name": "D2",
          "ticks": 125856,
          "time": 114.99993675,
          "velocity": 0.6692913385826772
        },
        {
          "duration": 0.08771924999999214,
          "durationTicks": 96,
          "midi": 35,
          "name": "B1",
          "ticks": 125856,
          "time": 114.99993675,
          "velocity": 0.6692913385826772
        },
        {
          "duration": 0.08771924999999214,
          "durationTicks": 96,
          "midi": 81,
          "name": "A5",
          "ticks": 125856,
          "time": 114.99993675,
          "velocity": 0.6692913385826772
        },
        {
          "duration": 0.08771924999999214,
          "durationTicks": 96,
          "midi": 35,
          "name": "B1",
          "ticks": 126240,
          "time": 115.35081375,
          "velocity": 0.6692913385826772
        },
        {
          "duration": 0.08771924999999214,
          "durationTicks": 96,
          "midi": 46,
          "name": "A#2",
          "ticks": 126240,
          "time": 115.35081375,
          "velocity": 0.6692913385826772
        },
        {
          "duration": 0.08771925000000635,
          "durationTicks": 96,
          "midi": 35,
          "name": "B1",
          "ticks": 126432,
          "time": 115.52625225,
          "velocity": 0.6692913385826772
        },
        {
          "duration": 0.08771925000000635,
          "durationTicks": 96,
          "midi": 81,
          "name": "A5",
          "ticks": 126624,
          "time": 115.70169075,
          "velocity": 0.6692913385826772
        },
        {
          "duration": 0.08771925000000635,
          "durationTicks": 96,
          "midi": 38,
          "name": "D2",
          "ticks": 126624,
          "time": 115.70169075,
          "velocity": 0.6692913385826772
        },
        {
          "duration": 0.08771925000000635,
          "durationTicks": 96,
          "midi": 36,
          "name": "C2",
          "ticks": 126624,
          "time": 115.70169075,
          "velocity": 0.6692913385826772
        },
        {
          "duration": 0.08771925000000635,
          "durationTicks": 96,
          "midi": 46,
          "name": "A#2",
          "ticks": 126624,
          "time": 115.70169075,
          "velocity": 0.6692913385826772
        },
        {
          "duration": 0.08771925000000635,
          "durationTicks": 96,
          "midi": 35,
          "name": "B1",
          "ticks": 126624,
          "time": 115.70169075,
          "velocity": 0.6692913385826772
        },
        {
          "duration": 0.08771925000000635,
          "durationTicks": 96,
          "midi": 35,
          "name": "B1",
          "ticks": 127008,
          "time": 116.05256775,
          "velocity": 0.6692913385826772
        },
        {
          "duration": 0.08771925000000635,
          "durationTicks": 96,
          "midi": 46,
          "name": "A#2",
          "ticks": 127008,
          "time": 116.05256775,
          "velocity": 0.6692913385826772
        },
        {
          "duration": 0.08771925000000635,
          "durationTicks": 96,
          "midi": 35,
          "name": "B1",
          "ticks": 127200,
          "time": 116.22800624999999,
          "velocity": 0.6692913385826772
        },
        {
          "duration": 0.08771925000000635,
          "durationTicks": 96,
          "midi": 35,
          "name": "B1",
          "ticks": 127392,
          "time": 116.40344474999999,
          "velocity": 0.6692913385826772
        },
        {
          "duration": 0.08771925000000635,
          "durationTicks": 96,
          "midi": 81,
          "name": "A5",
          "ticks": 127392,
          "time": 116.40344474999999,
          "velocity": 0.6692913385826772
        },
        {
          "duration": 0.08771925000000635,
          "durationTicks": 96,
          "midi": 36,
          "name": "C2",
          "ticks": 127392,
          "time": 116.40344474999999,
          "velocity": 0.6692913385826772
        },
        {
          "duration": 0.08771925000000635,
          "durationTicks": 96,
          "midi": 46,
          "name": "A#2",
          "ticks": 127392,
          "time": 116.40344474999999,
          "velocity": 0.6692913385826772
        },
        {
          "duration": 0.08771925000000635,
          "durationTicks": 96,
          "midi": 38,
          "name": "D2",
          "ticks": 127392,
          "time": 116.40344474999999,
          "velocity": 0.6692913385826772
        },
        {
          "duration": 0.08771924999999214,
          "durationTicks": 96,
          "midi": 46,
          "name": "A#2",
          "ticks": 127776,
          "time": 116.75432175,
          "velocity": 0.6692913385826772
        },
        {
          "duration": 0.08771924999999214,
          "durationTicks": 96,
          "midi": 35,
          "name": "B1",
          "ticks": 127776,
          "time": 116.75432175,
          "velocity": 0.6692913385826772
        },
        {
          "duration": 0.08771924999999214,
          "durationTicks": 96,
          "midi": 35,
          "name": "B1",
          "ticks": 127968,
          "time": 116.92976025,
          "velocity": 0.6692913385826772
        },
        {
          "duration": 0.08771924999999214,
          "durationTicks": 96,
          "midi": 81,
          "name": "A5",
          "ticks": 128160,
          "time": 117.10519875,
          "velocity": 0.6692913385826772
        },
        {
          "duration": 0.08771924999999214,
          "durationTicks": 96,
          "midi": 46,
          "name": "A#2",
          "ticks": 128160,
          "time": 117.10519875,
          "velocity": 0.6692913385826772
        },
        {
          "duration": 0.08771924999999214,
          "durationTicks": 96,
          "midi": 38,
          "name": "D2",
          "ticks": 128160,
          "time": 117.10519875,
          "velocity": 0.6692913385826772
        },
        {
          "duration": 0.08771924999999214,
          "durationTicks": 96,
          "midi": 35,
          "name": "B1",
          "ticks": 128160,
          "time": 117.10519875,
          "velocity": 0.6692913385826772
        },
        {
          "duration": 0.08771924999999214,
          "durationTicks": 96,
          "midi": 36,
          "name": "C2",
          "ticks": 128160,
          "time": 117.10519875,
          "velocity": 0.6692913385826772
        },
        {
          "duration": 0.08771925000000635,
          "durationTicks": 96,
          "midi": 46,
          "name": "A#2",
          "ticks": 128544,
          "time": 117.45607575,
          "velocity": 0.6692913385826772
        },
        {
          "duration": 0.08771925000000635,
          "durationTicks": 96,
          "midi": 35,
          "name": "B1",
          "ticks": 128544,
          "time": 117.45607575,
          "velocity": 0.6692913385826772
        },
        {
          "duration": 0.08771925000000635,
          "durationTicks": 96,
          "midi": 35,
          "name": "B1",
          "ticks": 128736,
          "time": 117.63151425,
          "velocity": 0.6692913385826772
        },
        {
          "duration": 0.08771925000000635,
          "durationTicks": 96,
          "midi": 46,
          "name": "A#2",
          "ticks": 128928,
          "time": 117.80695275,
          "velocity": 0.6692913385826772
        },
        {
          "duration": 0.08771925000000635,
          "durationTicks": 96,
          "midi": 36,
          "name": "C2",
          "ticks": 128928,
          "time": 117.80695275,
          "velocity": 0.6692913385826772
        },
        {
          "duration": 0.08771925000000635,
          "durationTicks": 96,
          "midi": 38,
          "name": "D2",
          "ticks": 128928,
          "time": 117.80695275,
          "velocity": 0.6692913385826772
        },
        {
          "duration": 0.08771925000000635,
          "durationTicks": 96,
          "midi": 81,
          "name": "A5",
          "ticks": 128928,
          "time": 117.80695275,
          "velocity": 0.6692913385826772
        },
        {
          "duration": 0.08771925000000635,
          "durationTicks": 96,
          "midi": 35,
          "name": "B1",
          "ticks": 128928,
          "time": 117.80695275,
          "velocity": 0.6692913385826772
        },
        {
          "duration": 0.08771924999999214,
          "durationTicks": 96,
          "midi": 46,
          "name": "A#2",
          "ticks": 129312,
          "time": 118.15782975,
          "velocity": 0.6692913385826772
        },
        {
          "duration": 0.08771924999999214,
          "durationTicks": 96,
          "midi": 35,
          "name": "B1",
          "ticks": 129312,
          "time": 118.15782975,
          "velocity": 0.6692913385826772
        },
        {
          "duration": 0.08771924999999214,
          "durationTicks": 96,
          "midi": 35,
          "name": "B1",
          "ticks": 129504,
          "time": 118.33326825,
          "velocity": 0.6692913385826772
        },
        {
          "duration": 0.08771924999999214,
          "durationTicks": 96,
          "midi": 38,
          "name": "D2",
          "ticks": 129696,
          "time": 118.50870675,
          "velocity": 0.6692913385826772
        },
        {
          "duration": 0.08771924999999214,
          "durationTicks": 96,
          "midi": 81,
          "name": "A5",
          "ticks": 129696,
          "time": 118.50870675,
          "velocity": 0.6692913385826772
        },
        {
          "duration": 0.08771924999999214,
          "durationTicks": 96,
          "midi": 35,
          "name": "B1",
          "ticks": 129696,
          "time": 118.50870675,
          "velocity": 0.6692913385826772
        },
        {
          "duration": 0.08771924999999214,
          "durationTicks": 96,
          "midi": 36,
          "name": "C2",
          "ticks": 129696,
          "time": 118.50870675,
          "velocity": 0.6692913385826772
        },
        {
          "duration": 0.08771924999999214,
          "durationTicks": 96,
          "midi": 46,
          "name": "A#2",
          "ticks": 129696,
          "time": 118.50870675,
          "velocity": 0.6692913385826772
        },
        {
          "duration": 0.08771925000000635,
          "durationTicks": 96,
          "midi": 35,
          "name": "B1",
          "ticks": 130080,
          "time": 118.85958375,
          "velocity": 0.6692913385826772
        },
        {
          "duration": 0.08771925000000635,
          "durationTicks": 96,
          "midi": 46,
          "name": "A#2",
          "ticks": 130080,
          "time": 118.85958375,
          "velocity": 0.6692913385826772
        },
        {
          "duration": 0.08771925000000635,
          "durationTicks": 96,
          "midi": 35,
          "name": "B1",
          "ticks": 130272,
          "time": 119.03502225,
          "velocity": 0.6692913385826772
        },
        {
          "duration": 0.08771925000000635,
          "durationTicks": 96,
          "midi": 46,
          "name": "A#2",
          "ticks": 130464,
          "time": 119.21046075,
          "velocity": 0.6692913385826772
        },
        {
          "duration": 0.08771925000000635,
          "durationTicks": 96,
          "midi": 36,
          "name": "C2",
          "ticks": 130464,
          "time": 119.21046075,
          "velocity": 0.6692913385826772
        },
        {
          "duration": 0.08771925000000635,
          "durationTicks": 96,
          "midi": 38,
          "name": "D2",
          "ticks": 130464,
          "time": 119.21046075,
          "velocity": 0.6692913385826772
        },
        {
          "duration": 0.08771925000000635,
          "durationTicks": 96,
          "midi": 81,
          "name": "A5",
          "ticks": 130464,
          "time": 119.21046075,
          "velocity": 0.6692913385826772
        },
        {
          "duration": 0.08771925000000635,
          "durationTicks": 96,
          "midi": 35,
          "name": "B1",
          "ticks": 130464,
          "time": 119.21046075,
          "velocity": 0.6692913385826772
        },
        {
          "duration": 0.08771925000000635,
          "durationTicks": 96,
          "midi": 35,
          "name": "B1",
          "ticks": 130848,
          "time": 119.56133774999999,
          "velocity": 0.6692913385826772
        },
        {
          "duration": 0.08771925000000635,
          "durationTicks": 96,
          "midi": 46,
          "name": "A#2",
          "ticks": 130848,
          "time": 119.56133774999999,
          "velocity": 0.6692913385826772
        },
        {
          "duration": 0.08771925000000635,
          "durationTicks": 96,
          "midi": 35,
          "name": "B1",
          "ticks": 131040,
          "time": 119.73677624999999,
          "velocity": 0.6692913385826772
        },
        {
          "duration": 0.08771924999999214,
          "durationTicks": 96,
          "midi": 81,
          "name": "A5",
          "ticks": 131232,
          "time": 119.91221475,
          "velocity": 0.6692913385826772
        },
        {
          "duration": 0.08771924999999214,
          "durationTicks": 96,
          "midi": 35,
          "name": "B1",
          "ticks": 131232,
          "time": 119.91221475,
          "velocity": 0.6692913385826772
        },
        {
          "duration": 0.08771924999999214,
          "durationTicks": 96,
          "midi": 46,
          "name": "A#2",
          "ticks": 131232,
          "time": 119.91221475,
          "velocity": 0.6692913385826772
        },
        {
          "duration": 0.08771924999999214,
          "durationTicks": 96,
          "midi": 38,
          "name": "D2",
          "ticks": 131232,
          "time": 119.91221475,
          "velocity": 0.6692913385826772
        },
        {
          "duration": 0.08771924999999214,
          "durationTicks": 96,
          "midi": 36,
          "name": "C2",
          "ticks": 131232,
          "time": 119.91221475,
          "velocity": 0.6692913385826772
        },
        {
          "duration": 0.08771924999999214,
          "durationTicks": 96,
          "midi": 46,
          "name": "A#2",
          "ticks": 131616,
          "time": 120.26309175,
          "velocity": 0.6692913385826772
        },
        {
          "duration": 0.08771924999999214,
          "durationTicks": 96,
          "midi": 35,
          "name": "B1",
          "ticks": 131616,
          "time": 120.26309175,
          "velocity": 0.6692913385826772
        },
        {
          "duration": 0.08771924999999214,
          "durationTicks": 96,
          "midi": 35,
          "name": "B1",
          "ticks": 131808,
          "time": 120.43853025,
          "velocity": 0.6692913385826772
        },
        {
          "duration": 0.08771925000000635,
          "durationTicks": 96,
          "midi": 81,
          "name": "A5",
          "ticks": 132000,
          "time": 120.61396875,
          "velocity": 0.6692913385826772
        },
        {
          "duration": 0.08771925000000635,
          "durationTicks": 96,
          "midi": 35,
          "name": "B1",
          "ticks": 132000,
          "time": 120.61396875,
          "velocity": 0.6692913385826772
        },
        {
          "duration": 0.08771925000000635,
          "durationTicks": 96,
          "midi": 38,
          "name": "D2",
          "ticks": 132000,
          "time": 120.61396875,
          "velocity": 0.6692913385826772
        },
        {
          "duration": 0.08771925000000635,
          "durationTicks": 96,
          "midi": 46,
          "name": "A#2",
          "ticks": 132000,
          "time": 120.61396875,
          "velocity": 0.6692913385826772
        },
        {
          "duration": 0.08771925000000635,
          "durationTicks": 96,
          "midi": 36,
          "name": "C2",
          "ticks": 132000,
          "time": 120.61396875,
          "velocity": 0.6692913385826772
        },
        {
          "duration": 0.08771925000000635,
          "durationTicks": 96,
          "midi": 46,
          "name": "A#2",
          "ticks": 132384,
          "time": 120.96484575,
          "velocity": 0.6692913385826772
        },
        {
          "duration": 0.08771925000000635,
          "durationTicks": 96,
          "midi": 35,
          "name": "B1",
          "ticks": 132384,
          "time": 120.96484575,
          "velocity": 0.6692913385826772
        },
        {
          "duration": 0.08771925000000635,
          "durationTicks": 96,
          "midi": 35,
          "name": "B1",
          "ticks": 132576,
          "time": 121.14028425,
          "velocity": 0.6692913385826772
        },
        {
          "duration": 0.08771925000000635,
          "durationTicks": 96,
          "midi": 46,
          "name": "A#2",
          "ticks": 132768,
          "time": 121.31572274999999,
          "velocity": 0.6692913385826772
        },
        {
          "duration": 0.08771925000000635,
          "durationTicks": 96,
          "midi": 81,
          "name": "A5",
          "ticks": 132768,
          "time": 121.31572274999999,
          "velocity": 0.6692913385826772
        },
        {
          "duration": 0.08771925000000635,
          "durationTicks": 96,
          "midi": 38,
          "name": "D2",
          "ticks": 132768,
          "time": 121.31572274999999,
          "velocity": 0.6692913385826772
        },
        {
          "duration": 0.08771925000000635,
          "durationTicks": 96,
          "midi": 35,
          "name": "B1",
          "ticks": 132768,
          "time": 121.31572274999999,
          "velocity": 0.6692913385826772
        },
        {
          "duration": 0.08771925000000635,
          "durationTicks": 96,
          "midi": 36,
          "name": "C2",
          "ticks": 132768,
          "time": 121.31572274999999,
          "velocity": 0.6692913385826772
        },
        {
          "duration": 0.08771924999999214,
          "durationTicks": 96,
          "midi": 35,
          "name": "B1",
          "ticks": 133152,
          "time": 121.66659975,
          "velocity": 0.6692913385826772
        },
        {
          "duration": 0.08771924999999214,
          "durationTicks": 96,
          "midi": 46,
          "name": "A#2",
          "ticks": 133152,
          "time": 121.66659975,
          "velocity": 0.6692913385826772
        },
        {
          "duration": 0.08771924999999214,
          "durationTicks": 96,
          "midi": 35,
          "name": "B1",
          "ticks": 133344,
          "time": 121.84203825,
          "velocity": 0.6692913385826772
        },
        {
          "duration": 0.08771924999999214,
          "durationTicks": 96,
          "midi": 81,
          "name": "A5",
          "ticks": 133536,
          "time": 122.01747675,
          "velocity": 0.6692913385826772
        },
        {
          "duration": 0.08771924999999214,
          "durationTicks": 96,
          "midi": 38,
          "name": "D2",
          "ticks": 133536,
          "time": 122.01747675,
          "velocity": 0.6692913385826772
        },
        {
          "duration": 0.08771924999999214,
          "durationTicks": 96,
          "midi": 35,
          "name": "B1",
          "ticks": 133536,
          "time": 122.01747675,
          "velocity": 0.6692913385826772
        },
        {
          "duration": 0.08771924999999214,
          "durationTicks": 96,
          "midi": 36,
          "name": "C2",
          "ticks": 133536,
          "time": 122.01747675,
          "velocity": 0.6692913385826772
        },
        {
          "duration": 0.08771924999999214,
          "durationTicks": 96,
          "midi": 46,
          "name": "A#2",
          "ticks": 133536,
          "time": 122.01747675,
          "velocity": 0.6692913385826772
        },
        {
          "duration": 0.08771925000000635,
          "durationTicks": 96,
          "midi": 46,
          "name": "A#2",
          "ticks": 133920,
          "time": 122.36835375,
          "velocity": 0.6692913385826772
        },
        {
          "duration": 0.08771925000000635,
          "durationTicks": 96,
          "midi": 35,
          "name": "B1",
          "ticks": 133920,
          "time": 122.36835375,
          "velocity": 0.6692913385826772
        },
        {
          "duration": 0.08771925000000635,
          "durationTicks": 96,
          "midi": 35,
          "name": "B1",
          "ticks": 134112,
          "time": 122.54379225,
          "velocity": 0.6692913385826772
        },
        {
          "duration": 0.08771925000000635,
          "durationTicks": 96,
          "midi": 46,
          "name": "A#2",
          "ticks": 134304,
          "time": 122.71923075,
          "velocity": 0.6692913385826772
        },
        {
          "duration": 0.08771925000000635,
          "durationTicks": 96,
          "midi": 35,
          "name": "B1",
          "ticks": 134304,
          "time": 122.71923075,
          "velocity": 0.6692913385826772
        },
        {
          "duration": 0.08771925000000635,
          "durationTicks": 96,
          "midi": 81,
          "name": "A5",
          "ticks": 134304,
          "time": 122.71923075,
          "velocity": 0.6692913385826772
        },
        {
          "duration": 0.08771925000000635,
          "durationTicks": 96,
          "midi": 36,
          "name": "C2",
          "ticks": 134304,
          "time": 122.71923075,
          "velocity": 0.6692913385826772
        },
        {
          "duration": 0.08771925000000635,
          "durationTicks": 96,
          "midi": 38,
          "name": "D2",
          "ticks": 134304,
          "time": 122.71923075,
          "velocity": 0.6692913385826772
        },
        {
          "duration": 0.08771925000000635,
          "durationTicks": 96,
          "midi": 46,
          "name": "A#2",
          "ticks": 134688,
          "time": 123.07010774999999,
          "velocity": 0.6692913385826772
        },
        {
          "duration": 0.08771925000000635,
          "durationTicks": 96,
          "midi": 35,
          "name": "B1",
          "ticks": 134688,
          "time": 123.07010774999999,
          "velocity": 0.6692913385826772
        },
        {
          "duration": 0.08771924999999214,
          "durationTicks": 96,
          "midi": 35,
          "name": "B1",
          "ticks": 134880,
          "time": 123.24554625,
          "velocity": 0.6692913385826772
        },
        {
          "duration": 0.08771924999999214,
          "durationTicks": 96,
          "midi": 46,
          "name": "A#2",
          "ticks": 135072,
          "time": 123.42098475,
          "velocity": 0.6692913385826772
        },
        {
          "duration": 0.08771924999999214,
          "durationTicks": 96,
          "midi": 36,
          "name": "C2",
          "ticks": 135072,
          "time": 123.42098475,
          "velocity": 0.6692913385826772
        },
        {
          "duration": 0.08771924999999214,
          "durationTicks": 96,
          "midi": 81,
          "name": "A5",
          "ticks": 135072,
          "time": 123.42098475,
          "velocity": 0.6692913385826772
        },
        {
          "duration": 0.08771924999999214,
          "durationTicks": 96,
          "midi": 35,
          "name": "B1",
          "ticks": 135072,
          "time": 123.42098475,
          "velocity": 0.6692913385826772
        },
        {
          "duration": 0.08771924999999214,
          "durationTicks": 96,
          "midi": 38,
          "name": "D2",
          "ticks": 135072,
          "time": 123.42098475,
          "velocity": 0.6692913385826772
        },
        {
          "duration": 0.08771924999999214,
          "durationTicks": 96,
          "midi": 46,
          "name": "A#2",
          "ticks": 135456,
          "time": 123.77186175,
          "velocity": 0.6692913385826772
        },
        {
          "duration": 0.08771924999999214,
          "durationTicks": 96,
          "midi": 35,
          "name": "B1",
          "ticks": 135456,
          "time": 123.77186175,
          "velocity": 0.6692913385826772
        },
        {
          "duration": 0.08771925000000635,
          "durationTicks": 96,
          "midi": 35,
          "name": "B1",
          "ticks": 135648,
          "time": 123.94730025,
          "velocity": 0.6692913385826772
        },
        {
          "duration": 0.08771925000000635,
          "durationTicks": 96,
          "midi": 46,
          "name": "A#2",
          "ticks": 135840,
          "time": 124.12273875,
          "velocity": 0.6692913385826772
        },
        {
          "duration": 0.08771925000000635,
          "durationTicks": 96,
          "midi": 81,
          "name": "A5",
          "ticks": 135840,
          "time": 124.12273875,
          "velocity": 0.6692913385826772
        },
        {
          "duration": 0.08771925000000635,
          "durationTicks": 96,
          "midi": 35,
          "name": "B1",
          "ticks": 135840,
          "time": 124.12273875,
          "velocity": 0.6692913385826772
        },
        {
          "duration": 0.08771925000000635,
          "durationTicks": 96,
          "midi": 38,
          "name": "D2",
          "ticks": 135840,
          "time": 124.12273875,
          "velocity": 0.6692913385826772
        },
        {
          "duration": 0.08771925000000635,
          "durationTicks": 96,
          "midi": 36,
          "name": "C2",
          "ticks": 135840,
          "time": 124.12273875,
          "velocity": 0.6692913385826772
        },
        {
          "duration": 0.08771925000000635,
          "durationTicks": 96,
          "midi": 46,
          "name": "A#2",
          "ticks": 136224,
          "time": 124.47361575,
          "velocity": 0.6692913385826772
        },
        {
          "duration": 0.08771925000000635,
          "durationTicks": 96,
          "midi": 35,
          "name": "B1",
          "ticks": 136224,
          "time": 124.47361575,
          "velocity": 0.6692913385826772
        },
        {
          "duration": 0.08771925000000635,
          "durationTicks": 96,
          "midi": 35,
          "name": "B1",
          "ticks": 136416,
          "time": 124.64905424999999,
          "velocity": 0.6692913385826772
        },
        {
          "duration": 0.08771924999999214,
          "durationTicks": 96,
          "midi": 36,
          "name": "C2",
          "ticks": 136608,
          "time": 124.82449275,
          "velocity": 0.6692913385826772
        },
        {
          "duration": 0.08771924999999214,
          "durationTicks": 96,
          "midi": 46,
          "name": "A#2",
          "ticks": 136608,
          "time": 124.82449275,
          "velocity": 0.6692913385826772
        },
        {
          "duration": 0.08771924999999214,
          "durationTicks": 96,
          "midi": 35,
          "name": "B1",
          "ticks": 136608,
          "time": 124.82449275,
          "velocity": 0.6692913385826772
        },
        {
          "duration": 0.08771924999999214,
          "durationTicks": 96,
          "midi": 38,
          "name": "D2",
          "ticks": 136608,
          "time": 124.82449275,
          "velocity": 0.6692913385826772
        },
        {
          "duration": 0.08771924999999214,
          "durationTicks": 96,
          "midi": 81,
          "name": "A5",
          "ticks": 136608,
          "time": 124.82449275,
          "velocity": 0.6692913385826772
        },
        {
          "duration": 0.08771924999999214,
          "durationTicks": 96,
          "midi": 46,
          "name": "A#2",
          "ticks": 136992,
          "time": 125.17536975,
          "velocity": 0.6692913385826772
        },
        {
          "duration": 0.08771924999999214,
          "durationTicks": 96,
          "midi": 35,
          "name": "B1",
          "ticks": 136992,
          "time": 125.17536975,
          "velocity": 0.6692913385826772
        },
        {
          "duration": 0.08771924999999214,
          "durationTicks": 96,
          "midi": 35,
          "name": "B1",
          "ticks": 137184,
          "time": 125.35080825,
          "velocity": 0.6692913385826772
        },
        {
          "duration": 0.08771925000000635,
          "durationTicks": 96,
          "midi": 36,
          "name": "C2",
          "ticks": 137376,
          "time": 125.52624675,
          "velocity": 0.6692913385826772
        },
        {
          "duration": 0.08771925000000635,
          "durationTicks": 96,
          "midi": 81,
          "name": "A5",
          "ticks": 137376,
          "time": 125.52624675,
          "velocity": 0.6692913385826772
        },
        {
          "duration": 0.08771925000000635,
          "durationTicks": 96,
          "midi": 35,
          "name": "B1",
          "ticks": 137376,
          "time": 125.52624675,
          "velocity": 0.6692913385826772
        },
        {
          "duration": 0.08771925000000635,
          "durationTicks": 96,
          "midi": 38,
          "name": "D2",
          "ticks": 137376,
          "time": 125.52624675,
          "velocity": 0.6692913385826772
        },
        {
          "duration": 0.08771925000000635,
          "durationTicks": 96,
          "midi": 46,
          "name": "A#2",
          "ticks": 137376,
          "time": 125.52624675,
          "velocity": 0.6692913385826772
        },
        {
          "duration": 0.08771925000000635,
          "durationTicks": 96,
          "midi": 46,
          "name": "A#2",
          "ticks": 137760,
          "time": 125.87712375,
          "velocity": 0.6692913385826772
        },
        {
          "duration": 0.08771925000000635,
          "durationTicks": 96,
          "midi": 35,
          "name": "B1",
          "ticks": 137760,
          "time": 125.87712375,
          "velocity": 0.6692913385826772
        },
        {
          "duration": 0.08771925000000635,
          "durationTicks": 96,
          "midi": 35,
          "name": "B1",
          "ticks": 137952,
          "time": 126.05256225,
          "velocity": 0.6692913385826772
        },
        {
          "duration": 0.08771925000000635,
          "durationTicks": 96,
          "midi": 81,
          "name": "A5",
          "ticks": 138144,
          "time": 126.22800074999999,
          "velocity": 0.6692913385826772
        },
        {
          "duration": 0.08771925000000635,
          "durationTicks": 96,
          "midi": 38,
          "name": "D2",
          "ticks": 138144,
          "time": 126.22800074999999,
          "velocity": 0.6692913385826772
        },
        {
          "duration": 0.08771925000000635,
          "durationTicks": 96,
          "midi": 35,
          "name": "B1",
          "ticks": 138144,
          "time": 126.22800074999999,
          "velocity": 0.6692913385826772
        },
        {
          "duration": 0.08771925000000635,
          "durationTicks": 96,
          "midi": 46,
          "name": "A#2",
          "ticks": 138144,
          "time": 126.22800074999999,
          "velocity": 0.6692913385826772
        },
        {
          "duration": 0.08771925000000635,
          "durationTicks": 96,
          "midi": 36,
          "name": "C2",
          "ticks": 138144,
          "time": 126.22800074999999,
          "velocity": 0.6692913385826772
        },
        {
          "duration": 0.08771924999999214,
          "durationTicks": 96,
          "midi": 35,
          "name": "B1",
          "ticks": 138528,
          "time": 126.57887775,
          "velocity": 0.6692913385826772
        },
        {
          "duration": 0.08771924999999214,
          "durationTicks": 96,
          "midi": 46,
          "name": "A#2",
          "ticks": 138528,
          "time": 126.57887775,
          "velocity": 0.6692913385826772
        },
        {
          "duration": 0.08771924999999214,
          "durationTicks": 96,
          "midi": 35,
          "name": "B1",
          "ticks": 138720,
          "time": 126.75431625,
          "velocity": 0.6692913385826772
        },
        {
          "duration": 0.08771924999999214,
          "durationTicks": 96,
          "midi": 46,
          "name": "A#2",
          "ticks": 138912,
          "time": 126.92975475,
          "velocity": 0.6692913385826772
        },
        {
          "duration": 0.08771924999999214,
          "durationTicks": 96,
          "midi": 81,
          "name": "A5",
          "ticks": 138912,
          "time": 126.92975475,
          "velocity": 0.6692913385826772
        },
        {
          "duration": 0.08771924999999214,
          "durationTicks": 96,
          "midi": 36,
          "name": "C2",
          "ticks": 138912,
          "time": 126.92975475,
          "velocity": 0.6692913385826772
        },
        {
          "duration": 0.08771924999999214,
          "durationTicks": 96,
          "midi": 35,
          "name": "B1",
          "ticks": 138912,
          "time": 126.92975475,
          "velocity": 0.6692913385826772
        },
        {
          "duration": 0.08771924999999214,
          "durationTicks": 96,
          "midi": 38,
          "name": "D2",
          "ticks": 138912,
          "time": 126.92975475,
          "velocity": 0.6692913385826772
        },
        {
          "duration": 0.08771925000000635,
          "durationTicks": 96,
          "midi": 46,
          "name": "A#2",
          "ticks": 139296,
          "time": 127.28063175,
          "velocity": 0.6692913385826772
        },
        {
          "duration": 0.08771925000000635,
          "durationTicks": 96,
          "midi": 35,
          "name": "B1",
          "ticks": 139296,
          "time": 127.28063175,
          "velocity": 0.6692913385826772
        },
        {
          "duration": 0.08771925000000635,
          "durationTicks": 96,
          "midi": 35,
          "name": "B1",
          "ticks": 139488,
          "time": 127.45607025,
          "velocity": 0.6692913385826772
        },
        {
          "duration": 0.08771925000000635,
          "durationTicks": 96,
          "midi": 35,
          "name": "B1",
          "ticks": 139680,
          "time": 127.63150875,
          "velocity": 0.6692913385826772
        },
        {
          "duration": 0.08771925000000635,
          "durationTicks": 96,
          "midi": 36,
          "name": "C2",
          "ticks": 139680,
          "time": 127.63150875,
          "velocity": 0.6692913385826772
        },
        {
          "duration": 0.08771925000000635,
          "durationTicks": 96,
          "midi": 46,
          "name": "A#2",
          "ticks": 139680,
          "time": 127.63150875,
          "velocity": 0.6692913385826772
        },
        {
          "duration": 0.08771925000000635,
          "durationTicks": 96,
          "midi": 81,
          "name": "A5",
          "ticks": 139680,
          "time": 127.63150875,
          "velocity": 0.6692913385826772
        },
        {
          "duration": 0.08771925000000635,
          "durationTicks": 96,
          "midi": 38,
          "name": "D2",
          "ticks": 139680,
          "time": 127.63150875,
          "velocity": 0.6692913385826772
        },
        {
          "duration": 0.08771924999999214,
          "durationTicks": 96,
          "midi": 35,
          "name": "B1",
          "ticks": 140064,
          "time": 127.98238574999999,
          "velocity": 0.6692913385826772
        },
        {
          "duration": 0.08771924999999214,
          "durationTicks": 96,
          "midi": 46,
          "name": "A#2",
          "ticks": 140064,
          "time": 127.98238574999999,
          "velocity": 0.6692913385826772
        },
        {
          "duration": 0.08771924999999214,
          "durationTicks": 96,
          "midi": 35,
          "name": "B1",
          "ticks": 140256,
          "time": 128.15782425,
          "velocity": 0.6692913385826772
        },
        {
          "duration": 0.08771925000002057,
          "durationTicks": 96,
          "midi": 81,
          "name": "A5",
          "ticks": 140448,
          "time": 128.33326275,
          "velocity": 0.6692913385826772
        },
        {
          "duration": 0.08771925000002057,
          "durationTicks": 96,
          "midi": 36,
          "name": "C2",
          "ticks": 140448,
          "time": 128.33326275,
          "velocity": 0.6692913385826772
        },
        {
          "duration": 0.08771925000002057,
          "durationTicks": 96,
          "midi": 46,
          "name": "A#2",
          "ticks": 140448,
          "time": 128.33326275,
          "velocity": 0.6692913385826772
        },
        {
          "duration": 0.08771925000002057,
          "durationTicks": 96,
          "midi": 35,
          "name": "B1",
          "ticks": 140448,
          "time": 128.33326275,
          "velocity": 0.6692913385826772
        },
        {
          "duration": 0.08771925000002057,
          "durationTicks": 96,
          "midi": 38,
          "name": "D2",
          "ticks": 140448,
          "time": 128.33326275,
          "velocity": 0.6692913385826772
        },
        {
          "duration": 0.08771925000002057,
          "durationTicks": 96,
          "midi": 46,
          "name": "A#2",
          "ticks": 140832,
          "time": 128.68413974999999,
          "velocity": 0.6692913385826772
        },
        {
          "duration": 0.08771925000002057,
          "durationTicks": 96,
          "midi": 35,
          "name": "B1",
          "ticks": 140832,
          "time": 128.68413974999999,
          "velocity": 0.6692913385826772
        },
        {
          "duration": 0.08771924999999214,
          "durationTicks": 96,
          "midi": 35,
          "name": "B1",
          "ticks": 141024,
          "time": 128.85957825,
          "velocity": 0.6692913385826772
        },
        {
          "duration": 0.08771924999999214,
          "durationTicks": 96,
          "midi": 36,
          "name": "C2",
          "ticks": 141216,
          "time": 129.03501675,
          "velocity": 0.6692913385826772
        },
        {
          "duration": 0.08771924999999214,
          "durationTicks": 96,
          "midi": 81,
          "name": "A5",
          "ticks": 141216,
          "time": 129.03501675,
          "velocity": 0.6692913385826772
        },
        {
          "duration": 0.08771924999999214,
          "durationTicks": 96,
          "midi": 46,
          "name": "A#2",
          "ticks": 141216,
          "time": 129.03501675,
          "velocity": 0.6692913385826772
        },
        {
          "duration": 0.08771924999999214,
          "durationTicks": 96,
          "midi": 35,
          "name": "B1",
          "ticks": 141216,
          "time": 129.03501675,
          "velocity": 0.6692913385826772
        },
        {
          "duration": 0.08771924999999214,
          "durationTicks": 96,
          "midi": 38,
          "name": "D2",
          "ticks": 141216,
          "time": 129.03501675,
          "velocity": 0.6692913385826772
        },
        {
          "duration": 0.08771924999999214,
          "durationTicks": 96,
          "midi": 35,
          "name": "B1",
          "ticks": 141600,
          "time": 129.38589375,
          "velocity": 0.6692913385826772
        },
        {
          "duration": 0.08771924999999214,
          "durationTicks": 96,
          "midi": 46,
          "name": "A#2",
          "ticks": 141600,
          "time": 129.38589375,
          "velocity": 0.6692913385826772
        },
        {
          "duration": 0.08771924999999214,
          "durationTicks": 96,
          "midi": 35,
          "name": "B1",
          "ticks": 141792,
          "time": 129.56133225,
          "velocity": 0.6692913385826772
        },
        {
          "duration": 0.08771924999999214,
          "durationTicks": 96,
          "midi": 38,
          "name": "D2",
          "ticks": 141984,
          "time": 129.73677075,
          "velocity": 0.6692913385826772
        },
        {
          "duration": 0.08771924999999214,
          "durationTicks": 96,
          "midi": 35,
          "name": "B1",
          "ticks": 141984,
          "time": 129.73677075,
          "velocity": 0.6692913385826772
        },
        {
          "duration": 0.08771924999999214,
          "durationTicks": 96,
          "midi": 46,
          "name": "A#2",
          "ticks": 141984,
          "time": 129.73677075,
          "velocity": 0.6692913385826772
        },
        {
          "duration": 0.08771924999999214,
          "durationTicks": 96,
          "midi": 81,
          "name": "A5",
          "ticks": 141984,
          "time": 129.73677075,
          "velocity": 0.6692913385826772
        },
        {
          "duration": 0.08771924999999214,
          "durationTicks": 96,
          "midi": 36,
          "name": "C2",
          "ticks": 141984,
          "time": 129.73677075,
          "velocity": 0.6692913385826772
        },
        {
          "duration": 0.08771924999999214,
          "durationTicks": 96,
          "midi": 46,
          "name": "A#2",
          "ticks": 142368,
          "time": 130.08764775,
          "velocity": 0.6692913385826772
        },
        {
          "duration": 0.08771924999999214,
          "durationTicks": 96,
          "midi": 35,
          "name": "B1",
          "ticks": 142368,
          "time": 130.08764775,
          "velocity": 0.6692913385826772
        },
        {
          "duration": 0.08771925000002057,
          "durationTicks": 96,
          "midi": 35,
          "name": "B1",
          "ticks": 142560,
          "time": 130.26308625,
          "velocity": 0.6692913385826772
        },
        {
          "duration": 0.08771924999999214,
          "durationTicks": 96,
          "midi": 81,
          "name": "A5",
          "ticks": 142752,
          "time": 130.43852475,
          "velocity": 0.6692913385826772
        },
        {
          "duration": 0.08771924999999214,
          "durationTicks": 96,
          "midi": 35,
          "name": "B1",
          "ticks": 142752,
          "time": 130.43852475,
          "velocity": 0.6692913385826772
        },
        {
          "duration": 0.08771924999999214,
          "durationTicks": 96,
          "midi": 38,
          "name": "D2",
          "ticks": 142752,
          "time": 130.43852475,
          "velocity": 0.6692913385826772
        },
        {
          "duration": 0.08771924999999214,
          "durationTicks": 96,
          "midi": 46,
          "name": "A#2",
          "ticks": 142752,
          "time": 130.43852475,
          "velocity": 0.6692913385826772
        },
        {
          "duration": 0.08771924999999214,
          "durationTicks": 96,
          "midi": 36,
          "name": "C2",
          "ticks": 142752,
          "time": 130.43852475,
          "velocity": 0.6692913385826772
        },
        {
          "duration": 0.08771924999999214,
          "durationTicks": 96,
          "midi": 46,
          "name": "A#2",
          "ticks": 143136,
          "time": 130.78940175,
          "velocity": 0.6692913385826772
        },
        {
          "duration": 0.08771924999999214,
          "durationTicks": 96,
          "midi": 35,
          "name": "B1",
          "ticks": 143136,
          "time": 130.78940175,
          "velocity": 0.6692913385826772
        },
        {
          "duration": 0.08771924999999214,
          "durationTicks": 96,
          "midi": 35,
          "name": "B1",
          "ticks": 143328,
          "time": 130.96484025,
          "velocity": 0.6692913385826772
        },
        {
          "duration": 0.08771924999999214,
          "durationTicks": 96,
          "midi": 35,
          "name": "B1",
          "ticks": 143520,
          "time": 131.14027875,
          "velocity": 0.6692913385826772
        },
        {
          "duration": 0.08771924999999214,
          "durationTicks": 96,
          "midi": 81,
          "name": "A5",
          "ticks": 143520,
          "time": 131.14027875,
          "velocity": 0.6692913385826772
        },
        {
          "duration": 0.08771924999999214,
          "durationTicks": 96,
          "midi": 46,
          "name": "A#2",
          "ticks": 143520,
          "time": 131.14027875,
          "velocity": 0.6692913385826772
        },
        {
          "duration": 0.08771924999999214,
          "durationTicks": 96,
          "midi": 36,
          "name": "C2",
          "ticks": 143520,
          "time": 131.14027875,
          "velocity": 0.6692913385826772
        },
        {
          "duration": 0.08771924999999214,
          "durationTicks": 96,
          "midi": 38,
          "name": "D2",
          "ticks": 143520,
          "time": 131.14027875,
          "velocity": 0.6692913385826772
        },
        {
          "duration": 0.08771925000002057,
          "durationTicks": 96,
          "midi": 46,
          "name": "A#2",
          "ticks": 143904,
          "time": 131.49115575,
          "velocity": 0.6692913385826772
        },
        {
          "duration": 0.08771925000002057,
          "durationTicks": 96,
          "midi": 35,
          "name": "B1",
          "ticks": 143904,
          "time": 131.49115575,
          "velocity": 0.6692913385826772
        },
        {
          "duration": 0.08771924999999214,
          "durationTicks": 96,
          "midi": 35,
          "name": "B1",
          "ticks": 144096,
          "time": 131.66659425,
          "velocity": 0.6692913385826772
        },
        {
          "duration": 0.08771925000002057,
          "durationTicks": 96,
          "midi": 35,
          "name": "B1",
          "ticks": 144288,
          "time": 131.84203275,
          "velocity": 0.6692913385826772
        },
        {
          "duration": 0.08771925000002057,
          "durationTicks": 96,
          "midi": 81,
          "name": "A5",
          "ticks": 144288,
          "time": 131.84203275,
          "velocity": 0.6692913385826772
        },
        {
          "duration": 0.08771925000002057,
          "durationTicks": 96,
          "midi": 46,
          "name": "A#2",
          "ticks": 144288,
          "time": 131.84203275,
          "velocity": 0.6692913385826772
        },
        {
          "duration": 0.08771925000002057,
          "durationTicks": 96,
          "midi": 38,
          "name": "D2",
          "ticks": 144288,
          "time": 131.84203275,
          "velocity": 0.6692913385826772
        },
        {
          "duration": 0.08771925000002057,
          "durationTicks": 96,
          "midi": 36,
          "name": "C2",
          "ticks": 144288,
          "time": 131.84203275,
          "velocity": 0.6692913385826772
        },
        {
          "duration": 0.08771925000002057,
          "durationTicks": 96,
          "midi": 46,
          "name": "A#2",
          "ticks": 144672,
          "time": 132.19290974999998,
          "velocity": 0.6692913385826772
        },
        {
          "duration": 0.08771925000002057,
          "durationTicks": 96,
          "midi": 35,
          "name": "B1",
          "ticks": 144672,
          "time": 132.19290974999998,
          "velocity": 0.6692913385826772
        },
        {
          "duration": 0.08771924999999214,
          "durationTicks": 96,
          "midi": 35,
          "name": "B1",
          "ticks": 144864,
          "time": 132.36834825,
          "velocity": 0.6692913385826772
        },
        {
          "duration": 0.08771924999999214,
          "durationTicks": 96,
          "midi": 46,
          "name": "A#2",
          "ticks": 145056,
          "time": 132.54378675,
          "velocity": 0.6692913385826772
        },
        {
          "duration": 0.08771924999999214,
          "durationTicks": 96,
          "midi": 38,
          "name": "D2",
          "ticks": 145056,
          "time": 132.54378675,
          "velocity": 0.6692913385826772
        },
        {
          "duration": 0.08771924999999214,
          "durationTicks": 96,
          "midi": 35,
          "name": "B1",
          "ticks": 145056,
          "time": 132.54378675,
          "velocity": 0.6692913385826772
        },
        {
          "duration": 0.08771924999999214,
          "durationTicks": 96,
          "midi": 81,
          "name": "A5",
          "ticks": 145056,
          "time": 132.54378675,
          "velocity": 0.6692913385826772
        },
        {
          "duration": 0.08771924999999214,
          "durationTicks": 96,
          "midi": 36,
          "name": "C2",
          "ticks": 145056,
          "time": 132.54378675,
          "velocity": 0.6692913385826772
        },
        {
          "duration": 0.08771924999999214,
          "durationTicks": 96,
          "midi": 46,
          "name": "A#2",
          "ticks": 145440,
          "time": 132.89466375,
          "velocity": 0.6692913385826772
        },
        {
          "duration": 0.08771924999999214,
          "durationTicks": 96,
          "midi": 35,
          "name": "B1",
          "ticks": 145440,
          "time": 132.89466375,
          "velocity": 0.6692913385826772
        },
        {
          "duration": 0.08771925000002057,
          "durationTicks": 96,
          "midi": 35,
          "name": "B1",
          "ticks": 145632,
          "time": 133.07010225,
          "velocity": 0.6692913385826772
        },
        {
          "duration": 0.08771924999999214,
          "durationTicks": 96,
          "midi": 38,
          "name": "D2",
          "ticks": 145824,
          "time": 133.24554075,
          "velocity": 0.6692913385826772
        },
        {
          "duration": 0.08771924999999214,
          "durationTicks": 96,
          "midi": 81,
          "name": "A5",
          "ticks": 145824,
          "time": 133.24554075,
          "velocity": 0.6692913385826772
        },
        {
          "duration": 0.08771924999999214,
          "durationTicks": 96,
          "midi": 46,
          "name": "A#2",
          "ticks": 145824,
          "time": 133.24554075,
          "velocity": 0.6692913385826772
        },
        {
          "duration": 0.08771924999999214,
          "durationTicks": 96,
          "midi": 35,
          "name": "B1",
          "ticks": 145824,
          "time": 133.24554075,
          "velocity": 0.6692913385826772
        },
        {
          "duration": 0.08771924999999214,
          "durationTicks": 96,
          "midi": 36,
          "name": "C2",
          "ticks": 145824,
          "time": 133.24554075,
          "velocity": 0.6692913385826772
        },
        {
          "duration": 0.08771924999999214,
          "durationTicks": 96,
          "midi": 46,
          "name": "A#2",
          "ticks": 146208,
          "time": 133.59641775,
          "velocity": 0.6692913385826772
        },
        {
          "duration": 0.08771924999999214,
          "durationTicks": 96,
          "midi": 35,
          "name": "B1",
          "ticks": 146208,
          "time": 133.59641775,
          "velocity": 0.6692913385826772
        },
        {
          "duration": 0.08771925000002057,
          "durationTicks": 96,
          "midi": 35,
          "name": "B1",
          "ticks": 146400,
          "time": 133.77185624999998,
          "velocity": 0.6692913385826772
        },
        {
          "duration": 0.08771924999999214,
          "durationTicks": 96,
          "midi": 81,
          "name": "A5",
          "ticks": 146592,
          "time": 133.94729475,
          "velocity": 0.6692913385826772
        },
        {
          "duration": 0.08771924999999214,
          "durationTicks": 96,
          "midi": 38,
          "name": "D2",
          "ticks": 146592,
          "time": 133.94729475,
          "velocity": 0.6692913385826772
        },
        {
          "duration": 0.08771924999999214,
          "durationTicks": 96,
          "midi": 35,
          "name": "B1",
          "ticks": 146592,
          "time": 133.94729475,
          "velocity": 0.6692913385826772
        },
        {
          "duration": 0.08771924999999214,
          "durationTicks": 96,
          "midi": 46,
          "name": "A#2",
          "ticks": 146592,
          "time": 133.94729475,
          "velocity": 0.6692913385826772
        },
        {
          "duration": 0.08771924999999214,
          "durationTicks": 96,
          "midi": 36,
          "name": "C2",
          "ticks": 146592,
          "time": 133.94729475,
          "velocity": 0.6692913385826772
        },
        {
          "duration": 0.08771924999999214,
          "durationTicks": 96,
          "midi": 35,
          "name": "B1",
          "ticks": 146976,
          "time": 134.29817175,
          "velocity": 0.6692913385826772
        },
        {
          "duration": 0.08771924999999214,
          "durationTicks": 96,
          "midi": 46,
          "name": "A#2",
          "ticks": 146976,
          "time": 134.29817175,
          "velocity": 0.6692913385826772
        },
        {
          "duration": 0.08771924999999214,
          "durationTicks": 96,
          "midi": 35,
          "name": "B1",
          "ticks": 147168,
          "time": 134.47361025,
          "velocity": 0.6692913385826772
        },
        {
          "duration": 0.08771924999999214,
          "durationTicks": 96,
          "midi": 46,
          "name": "A#2",
          "ticks": 147360,
          "time": 134.64904875,
          "velocity": 0.6692913385826772
        },
        {
          "duration": 0.08771924999999214,
          "durationTicks": 96,
          "midi": 35,
          "name": "B1",
          "ticks": 147360,
          "time": 134.64904875,
          "velocity": 0.6692913385826772
        },
        {
          "duration": 0.08771924999999214,
          "durationTicks": 96,
          "midi": 81,
          "name": "A5",
          "ticks": 147360,
          "time": 134.64904875,
          "velocity": 0.6692913385826772
        },
        {
          "duration": 0.08771924999999214,
          "durationTicks": 96,
          "midi": 36,
          "name": "C2",
          "ticks": 147360,
          "time": 134.64904875,
          "velocity": 0.6692913385826772
        },
        {
          "duration": 0.08771924999999214,
          "durationTicks": 96,
          "midi": 38,
          "name": "D2",
          "ticks": 147360,
          "time": 134.64904875,
          "velocity": 0.6692913385826772
        },
        {
          "duration": 0.08771924999999214,
          "durationTicks": 96,
          "midi": 35,
          "name": "B1",
          "ticks": 160128,
          "time": 146.315709,
          "velocity": 0.6692913385826772
        },
        {
          "duration": 0.08771924999999214,
          "durationTicks": 96,
          "midi": 46,
          "name": "A#2",
          "ticks": 160128,
          "time": 146.315709,
          "velocity": 0.6692913385826772
        },
        {
          "duration": 0.08771924999999214,
          "durationTicks": 96,
          "midi": 35,
          "name": "B1",
          "ticks": 160320,
          "time": 146.4911475,
          "velocity": 0.6692913385826772
        },
        {
          "duration": 0.08771924999999214,
          "durationTicks": 96,
          "midi": 36,
          "name": "C2",
          "ticks": 160512,
          "time": 146.666586,
          "velocity": 0.6692913385826772
        },
        {
          "duration": 0.08771924999999214,
          "durationTicks": 96,
          "midi": 46,
          "name": "A#2",
          "ticks": 160512,
          "time": 146.666586,
          "velocity": 0.6692913385826772
        },
        {
          "duration": 0.08771924999999214,
          "durationTicks": 96,
          "midi": 38,
          "name": "D2",
          "ticks": 160512,
          "time": 146.666586,
          "velocity": 0.6692913385826772
        },
        {
          "duration": 0.08771924999999214,
          "durationTicks": 96,
          "midi": 35,
          "name": "B1",
          "ticks": 160512,
          "time": 146.666586,
          "velocity": 0.6692913385826772
        },
        {
          "duration": 0.08771924999999214,
          "durationTicks": 96,
          "midi": 35,
          "name": "B1",
          "ticks": 160896,
          "time": 147.017463,
          "velocity": 0.6692913385826772
        },
        {
          "duration": 0.08771924999999214,
          "durationTicks": 96,
          "midi": 46,
          "name": "A#2",
          "ticks": 160896,
          "time": 147.017463,
          "velocity": 0.6692913385826772
        },
        {
          "duration": 0.08771924999999214,
          "durationTicks": 96,
          "midi": 35,
          "name": "B1",
          "ticks": 161088,
          "time": 147.1929015,
          "velocity": 0.6692913385826772
        },
        {
          "duration": 0.08771925000002057,
          "durationTicks": 96,
          "midi": 36,
          "name": "C2",
          "ticks": 161280,
          "time": 147.36834,
          "velocity": 0.6692913385826772
        },
        {
          "duration": 0.08771925000002057,
          "durationTicks": 96,
          "midi": 35,
          "name": "B1",
          "ticks": 161280,
          "time": 147.36834,
          "velocity": 0.6692913385826772
        },
        {
          "duration": 0.08771925000002057,
          "durationTicks": 96,
          "midi": 46,
          "name": "A#2",
          "ticks": 161280,
          "time": 147.36834,
          "velocity": 0.6692913385826772
        },
        {
          "duration": 0.08771925000002057,
          "durationTicks": 96,
          "midi": 38,
          "name": "D2",
          "ticks": 161280,
          "time": 147.36834,
          "velocity": 0.6692913385826772
        },
        {
          "duration": 0.08771925000002057,
          "durationTicks": 96,
          "midi": 46,
          "name": "A#2",
          "ticks": 161664,
          "time": 147.719217,
          "velocity": 0.6692913385826772
        },
        {
          "duration": 0.08771925000002057,
          "durationTicks": 96,
          "midi": 35,
          "name": "B1",
          "ticks": 161664,
          "time": 147.719217,
          "velocity": 0.6692913385826772
        },
        {
          "duration": 0.08771924999999214,
          "durationTicks": 96,
          "midi": 35,
          "name": "B1",
          "ticks": 161856,
          "time": 147.8946555,
          "velocity": 0.6692913385826772
        },
        {
          "duration": 0.08771924999999214,
          "durationTicks": 96,
          "midi": 46,
          "name": "A#2",
          "ticks": 162048,
          "time": 148.070094,
          "velocity": 0.6692913385826772
        },
        {
          "duration": 0.08771924999999214,
          "durationTicks": 96,
          "midi": 36,
          "name": "C2",
          "ticks": 162048,
          "time": 148.070094,
          "velocity": 0.6692913385826772
        },
        {
          "duration": 0.08771924999999214,
          "durationTicks": 96,
          "midi": 35,
          "name": "B1",
          "ticks": 162048,
          "time": 148.070094,
          "velocity": 0.6692913385826772
        },
        {
          "duration": 0.08771924999999214,
          "durationTicks": 96,
          "midi": 38,
          "name": "D2",
          "ticks": 162048,
          "time": 148.070094,
          "velocity": 0.6692913385826772
        },
        {
          "duration": 0.08771924999999214,
          "durationTicks": 96,
          "midi": 35,
          "name": "B1",
          "ticks": 162432,
          "time": 148.420971,
          "velocity": 0.6692913385826772
        },
        {
          "duration": 0.08771924999999214,
          "durationTicks": 96,
          "midi": 46,
          "name": "A#2",
          "ticks": 162432,
          "time": 148.420971,
          "velocity": 0.6692913385826772
        },
        {
          "duration": 0.08771924999999214,
          "durationTicks": 96,
          "midi": 35,
          "name": "B1",
          "ticks": 162624,
          "time": 148.5964095,
          "velocity": 0.6692913385826772
        },
        {
          "duration": 0.08771924999999214,
          "durationTicks": 96,
          "midi": 38,
          "name": "D2",
          "ticks": 162816,
          "time": 148.771848,
          "velocity": 0.6692913385826772
        },
        {
          "duration": 0.08771924999999214,
          "durationTicks": 96,
          "midi": 36,
          "name": "C2",
          "ticks": 162816,
          "time": 148.771848,
          "velocity": 0.6692913385826772
        },
        {
          "duration": 0.08771924999999214,
          "durationTicks": 96,
          "midi": 35,
          "name": "B1",
          "ticks": 162816,
          "time": 148.771848,
          "velocity": 0.6692913385826772
        },
        {
          "duration": 0.08771924999999214,
          "durationTicks": 96,
          "midi": 46,
          "name": "A#2",
          "ticks": 162816,
          "time": 148.771848,
          "velocity": 0.6692913385826772
        },
        {
          "duration": 0.08771924999999214,
          "durationTicks": 96,
          "midi": 46,
          "name": "A#2",
          "ticks": 163200,
          "time": 149.122725,
          "velocity": 0.6692913385826772
        },
        {
          "duration": 0.08771924999999214,
          "durationTicks": 96,
          "midi": 35,
          "name": "B1",
          "ticks": 163200,
          "time": 149.122725,
          "velocity": 0.6692913385826772
        },
        {
          "duration": 0.08771925000002057,
          "durationTicks": 96,
          "midi": 35,
          "name": "B1",
          "ticks": 163392,
          "time": 149.2981635,
          "velocity": 0.6692913385826772
        },
        {
          "duration": 0.08771924999999214,
          "durationTicks": 96,
          "midi": 46,
          "name": "A#2",
          "ticks": 163584,
          "time": 149.473602,
          "velocity": 0.6692913385826772
        },
        {
          "duration": 0.08771924999999214,
          "durationTicks": 96,
          "midi": 38,
          "name": "D2",
          "ticks": 163584,
          "time": 149.473602,
          "velocity": 0.6692913385826772
        },
        {
          "duration": 0.08771924999999214,
          "durationTicks": 96,
          "midi": 35,
          "name": "B1",
          "ticks": 163584,
          "time": 149.473602,
          "velocity": 0.6692913385826772
        },
        {
          "duration": 0.08771924999999214,
          "durationTicks": 96,
          "midi": 36,
          "name": "C2",
          "ticks": 163584,
          "time": 149.473602,
          "velocity": 0.6692913385826772
        },
        {
          "duration": 0.08771924999999214,
          "durationTicks": 96,
          "midi": 35,
          "name": "B1",
          "ticks": 163968,
          "time": 149.824479,
          "velocity": 0.6692913385826772
        },
        {
          "duration": 0.08771924999999214,
          "durationTicks": 96,
          "midi": 46,
          "name": "A#2",
          "ticks": 163968,
          "time": 149.824479,
          "velocity": 0.6692913385826772
        },
        {
          "duration": 0.08771924999999214,
          "durationTicks": 96,
          "midi": 35,
          "name": "B1",
          "ticks": 164160,
          "time": 149.9999175,
          "velocity": 0.6692913385826772
        },
        {
          "duration": 0.08771924999999214,
          "durationTicks": 96,
          "midi": 38,
          "name": "D2",
          "ticks": 164352,
          "time": 150.175356,
          "velocity": 0.6692913385826772
        },
        {
          "duration": 0.08771924999999214,
          "durationTicks": 96,
          "midi": 36,
          "name": "C2",
          "ticks": 164352,
          "time": 150.175356,
          "velocity": 0.6692913385826772
        },
        {
          "duration": 0.08771924999999214,
          "durationTicks": 96,
          "midi": 35,
          "name": "B1",
          "ticks": 164352,
          "time": 150.175356,
          "velocity": 0.6692913385826772
        },
        {
          "duration": 0.08771924999999214,
          "durationTicks": 96,
          "midi": 46,
          "name": "A#2",
          "ticks": 164352,
          "time": 150.175356,
          "velocity": 0.6692913385826772
        },
        {
          "duration": 0.08771925000002057,
          "durationTicks": 96,
          "midi": 46,
          "name": "A#2",
          "ticks": 164736,
          "time": 150.526233,
          "velocity": 0.6692913385826772
        },
        {
          "duration": 0.08771925000002057,
          "durationTicks": 96,
          "midi": 35,
          "name": "B1",
          "ticks": 164736,
          "time": 150.526233,
          "velocity": 0.6692913385826772
        },
        {
          "duration": 0.08771924999999214,
          "durationTicks": 96,
          "midi": 35,
          "name": "B1",
          "ticks": 164928,
          "time": 150.7016715,
          "velocity": 0.6692913385826772
        },
        {
          "duration": 0.08771925000002057,
          "durationTicks": 96,
          "midi": 46,
          "name": "A#2",
          "ticks": 165120,
          "time": 150.87711,
          "velocity": 0.6692913385826772
        },
        {
          "duration": 0.08771925000002057,
          "durationTicks": 96,
          "midi": 38,
          "name": "D2",
          "ticks": 165120,
          "time": 150.87711,
          "velocity": 0.6692913385826772
        },
        {
          "duration": 0.08771925000002057,
          "durationTicks": 96,
          "midi": 35,
          "name": "B1",
          "ticks": 165120,
          "time": 150.87711,
          "velocity": 0.6692913385826772
        },
        {
          "duration": 0.08771925000002057,
          "durationTicks": 96,
          "midi": 36,
          "name": "C2",
          "ticks": 165120,
          "time": 150.87711,
          "velocity": 0.6692913385826772
        },
        {
          "duration": 0.08771925000002057,
          "durationTicks": 96,
          "midi": 35,
          "name": "B1",
          "ticks": 165504,
          "time": 151.22798699999998,
          "velocity": 0.6692913385826772
        },
        {
          "duration": 0.08771925000002057,
          "durationTicks": 96,
          "midi": 46,
          "name": "A#2",
          "ticks": 165504,
          "time": 151.22798699999998,
          "velocity": 0.6692913385826772
        },
        {
          "duration": 0.08771924999999214,
          "durationTicks": 96,
          "midi": 35,
          "name": "B1",
          "ticks": 165696,
          "time": 151.4034255,
          "velocity": 0.6692913385826772
        },
        {
          "duration": 0.08771924999999214,
          "durationTicks": 96,
          "midi": 35,
          "name": "B1",
          "ticks": 165888,
          "time": 151.578864,
          "velocity": 0.6692913385826772
        },
        {
          "duration": 0.08771924999999214,
          "durationTicks": 96,
          "midi": 36,
          "name": "C2",
          "ticks": 165888,
          "time": 151.578864,
          "velocity": 0.6692913385826772
        },
        {
          "duration": 0.08771924999999214,
          "durationTicks": 96,
          "midi": 46,
          "name": "A#2",
          "ticks": 165888,
          "time": 151.578864,
          "velocity": 0.6692913385826772
        },
        {
          "duration": 0.08771924999999214,
          "durationTicks": 96,
          "midi": 38,
          "name": "D2",
          "ticks": 165888,
          "time": 151.578864,
          "velocity": 0.6692913385826772
        },
        {
          "duration": 0.08771924999999214,
          "durationTicks": 96,
          "midi": 46,
          "name": "A#2",
          "ticks": 166272,
          "time": 151.929741,
          "velocity": 0.6692913385826772
        },
        {
          "duration": 0.08771924999999214,
          "durationTicks": 96,
          "midi": 35,
          "name": "B1",
          "ticks": 166272,
          "time": 151.929741,
          "velocity": 0.6692913385826772
        },
        {
          "duration": 0.08771924999999214,
          "durationTicks": 96,
          "midi": 35,
          "name": "B1",
          "ticks": 166464,
          "time": 152.1051795,
          "velocity": 0.6692913385826772
        },
        {
          "duration": 0.08771924999999214,
          "durationTicks": 96,
          "midi": 46,
          "name": "A#2",
          "ticks": 166656,
          "time": 152.280618,
          "velocity": 0.6692913385826772
        },
        {
          "duration": 0.08771924999999214,
          "durationTicks": 96,
          "midi": 38,
          "name": "D2",
          "ticks": 166656,
          "time": 152.280618,
          "velocity": 0.6692913385826772
        },
        {
          "duration": 0.08771924999999214,
          "durationTicks": 96,
          "midi": 36,
          "name": "C2",
          "ticks": 166656,
          "time": 152.280618,
          "velocity": 0.6692913385826772
        },
        {
          "duration": 0.08771924999999214,
          "durationTicks": 96,
          "midi": 35,
          "name": "B1",
          "ticks": 166656,
          "time": 152.280618,
          "velocity": 0.6692913385826772
        },
        {
          "duration": 0.08771924999999214,
          "durationTicks": 96,
          "midi": 35,
          "name": "B1",
          "ticks": 167040,
          "time": 152.631495,
          "velocity": 0.6692913385826772
        },
        {
          "duration": 0.08771924999999214,
          "durationTicks": 96,
          "midi": 46,
          "name": "A#2",
          "ticks": 167040,
          "time": 152.631495,
          "velocity": 0.6692913385826772
        },
        {
          "duration": 0.08771925000002057,
          "durationTicks": 96,
          "midi": 35,
          "name": "B1",
          "ticks": 167232,
          "time": 152.80693349999999,
          "velocity": 0.6692913385826772
        },
        {
          "duration": 0.08771924999999214,
          "durationTicks": 96,
          "midi": 46,
          "name": "A#2",
          "ticks": 167424,
          "time": 152.982372,
          "velocity": 0.6692913385826772
        },
        {
          "duration": 0.08771924999999214,
          "durationTicks": 96,
          "midi": 38,
          "name": "D2",
          "ticks": 167424,
          "time": 152.982372,
          "velocity": 0.6692913385826772
        },
        {
          "duration": 0.08771924999999214,
          "durationTicks": 96,
          "midi": 36,
          "name": "C2",
          "ticks": 167424,
          "time": 152.982372,
          "velocity": 0.6692913385826772
        },
        {
          "duration": 0.08771924999999214,
          "durationTicks": 96,
          "midi": 35,
          "name": "B1",
          "ticks": 167424,
          "time": 152.982372,
          "velocity": 0.6692913385826772
        },
        {
          "duration": 0.08771924999999214,
          "durationTicks": 96,
          "midi": 46,
          "name": "A#2",
          "ticks": 167808,
          "time": 153.333249,
          "velocity": 0.6692913385826772
        },
        {
          "duration": 0.08771924999999214,
          "durationTicks": 96,
          "midi": 35,
          "name": "B1",
          "ticks": 167808,
          "time": 153.333249,
          "velocity": 0.6692913385826772
        },
        {
          "duration": 0.08771924999999214,
          "durationTicks": 96,
          "midi": 35,
          "name": "B1",
          "ticks": 168000,
          "time": 153.5086875,
          "velocity": 0.6692913385826772
        },
        {
          "duration": 0.08771924999999214,
          "durationTicks": 96,
          "midi": 46,
          "name": "A#2",
          "ticks": 168192,
          "time": 153.684126,
          "velocity": 0.6692913385826772
        },
        {
          "duration": 0.08771924999999214,
          "durationTicks": 96,
          "midi": 36,
          "name": "C2",
          "ticks": 168192,
          "time": 153.684126,
          "velocity": 0.6692913385826772
        },
        {
          "duration": 0.08771924999999214,
          "durationTicks": 96,
          "midi": 38,
          "name": "D2",
          "ticks": 168192,
          "time": 153.684126,
          "velocity": 0.6692913385826772
        },
        {
          "duration": 0.08771924999999214,
          "durationTicks": 96,
          "midi": 35,
          "name": "B1",
          "ticks": 168192,
          "time": 153.684126,
          "velocity": 0.6692913385826772
        },
        {
          "duration": 0.08771925000002057,
          "durationTicks": 96,
          "midi": 35,
          "name": "B1",
          "ticks": 168576,
          "time": 154.035003,
          "velocity": 0.6692913385826772
        },
        {
          "duration": 0.08771925000002057,
          "durationTicks": 96,
          "midi": 46,
          "name": "A#2",
          "ticks": 168576,
          "time": 154.035003,
          "velocity": 0.6692913385826772
        },
        {
          "duration": 0.08771924999999214,
          "durationTicks": 96,
          "midi": 35,
          "name": "B1",
          "ticks": 168768,
          "time": 154.2104415,
          "velocity": 0.6692913385826772
        },
        {
          "duration": 0.08771925000002057,
          "durationTicks": 96,
          "midi": 46,
          "name": "A#2",
          "ticks": 168960,
          "time": 154.38588,
          "velocity": 0.6692913385826772
        },
        {
          "duration": 0.08771925000002057,
          "durationTicks": 96,
          "midi": 35,
          "name": "B1",
          "ticks": 168960,
          "time": 154.38588,
          "velocity": 0.6692913385826772
        },
        {
          "duration": 0.08771925000002057,
          "durationTicks": 96,
          "midi": 36,
          "name": "C2",
          "ticks": 168960,
          "time": 154.38588,
          "velocity": 0.6692913385826772
        },
        {
          "duration": 0.08771925000002057,
          "durationTicks": 96,
          "midi": 38,
          "name": "D2",
          "ticks": 168960,
          "time": 154.38588,
          "velocity": 0.6692913385826772
        },
        {
          "duration": 0.08771924999999214,
          "durationTicks": 96,
          "midi": 46,
          "name": "A#2",
          "ticks": 169344,
          "time": 154.736757,
          "velocity": 0.6692913385826772
        },
        {
          "duration": 0.08771924999999214,
          "durationTicks": 96,
          "midi": 35,
          "name": "B1",
          "ticks": 169344,
          "time": 154.736757,
          "velocity": 0.6692913385826772
        },
        {
          "duration": 0.08771924999999214,
          "durationTicks": 96,
          "midi": 35,
          "name": "B1",
          "ticks": 169536,
          "time": 154.9121955,
          "velocity": 0.6692913385826772
        },
        {
          "duration": 0.08771924999999214,
          "durationTicks": 96,
          "midi": 38,
          "name": "D2",
          "ticks": 169728,
          "time": 155.087634,
          "velocity": 0.6692913385826772
        },
        {
          "duration": 0.08771924999999214,
          "durationTicks": 96,
          "midi": 35,
          "name": "B1",
          "ticks": 169728,
          "time": 155.087634,
          "velocity": 0.6692913385826772
        },
        {
          "duration": 0.08771924999999214,
          "durationTicks": 96,
          "midi": 36,
          "name": "C2",
          "ticks": 169728,
          "time": 155.087634,
          "velocity": 0.6692913385826772
        },
        {
          "duration": 0.08771924999999214,
          "durationTicks": 96,
          "midi": 46,
          "name": "A#2",
          "ticks": 169728,
          "time": 155.087634,
          "velocity": 0.6692913385826772
        },
        {
          "duration": 0.08771924999999214,
          "durationTicks": 96,
          "midi": 35,
          "name": "B1",
          "ticks": 170112,
          "time": 155.438511,
          "velocity": 0.6692913385826772
        },
        {
          "duration": 0.08771924999999214,
          "durationTicks": 96,
          "midi": 46,
          "name": "A#2",
          "ticks": 170112,
          "time": 155.438511,
          "velocity": 0.6692913385826772
        },
        {
          "duration": 0.08771925000002057,
          "durationTicks": 96,
          "midi": 35,
          "name": "B1",
          "ticks": 170304,
          "time": 155.6139495,
          "velocity": 0.6692913385826772
        },
        {
          "duration": 0.08771924999999214,
          "durationTicks": 96,
          "midi": 46,
          "name": "A#2",
          "ticks": 170496,
          "time": 155.789388,
          "velocity": 0.6692913385826772
        },
        {
          "duration": 0.08771924999999214,
          "durationTicks": 96,
          "midi": 35,
          "name": "B1",
          "ticks": 170496,
          "time": 155.789388,
          "velocity": 0.6692913385826772
        },
        {
          "duration": 0.08771924999999214,
          "durationTicks": 96,
          "midi": 38,
          "name": "D2",
          "ticks": 170496,
          "time": 155.789388,
          "velocity": 0.6692913385826772
        },
        {
          "duration": 0.08771924999999214,
          "durationTicks": 96,
          "midi": 36,
          "name": "C2",
          "ticks": 170496,
          "time": 155.789388,
          "velocity": 0.6692913385826772
        },
        {
          "duration": 0.08771924999999214,
          "durationTicks": 96,
          "midi": 46,
          "name": "A#2",
          "ticks": 170880,
          "time": 156.140265,
          "velocity": 0.6692913385826772
        },
        {
          "duration": 0.08771924999999214,
          "durationTicks": 96,
          "midi": 35,
          "name": "B1",
          "ticks": 170880,
          "time": 156.140265,
          "velocity": 0.6692913385826772
        },
        {
          "duration": 0.08771925000002057,
          "durationTicks": 96,
          "midi": 35,
          "name": "B1",
          "ticks": 171072,
          "time": 156.31570349999998,
          "velocity": 0.6692913385826772
        },
        {
          "duration": 0.08771924999999214,
          "durationTicks": 96,
          "midi": 38,
          "name": "D2",
          "ticks": 171264,
          "time": 156.491142,
          "velocity": 0.6692913385826772
        },
        {
          "duration": 0.08771924999999214,
          "durationTicks": 96,
          "midi": 46,
          "name": "A#2",
          "ticks": 171264,
          "time": 156.491142,
          "velocity": 0.6692913385826772
        },
        {
          "duration": 0.08771924999999214,
          "durationTicks": 96,
          "midi": 35,
          "name": "B1",
          "ticks": 171264,
          "time": 156.491142,
          "velocity": 0.6692913385826772
        },
        {
          "duration": 0.08771924999999214,
          "durationTicks": 96,
          "midi": 36,
          "name": "C2",
          "ticks": 171264,
          "time": 156.491142,
          "velocity": 0.6692913385826772
        },
        {
          "duration": 0.08771924999999214,
          "durationTicks": 96,
          "midi": 46,
          "name": "A#2",
          "ticks": 171648,
          "time": 156.842019,
          "velocity": 0.6692913385826772
        },
        {
          "duration": 0.08771924999999214,
          "durationTicks": 96,
          "midi": 35,
          "name": "B1",
          "ticks": 171648,
          "time": 156.842019,
          "velocity": 0.6692913385826772
        },
        {
          "duration": 0.08771924999999214,
          "durationTicks": 96,
          "midi": 35,
          "name": "B1",
          "ticks": 171840,
          "time": 157.0174575,
          "velocity": 0.6692913385826772
        },
        {
          "duration": 0.08771925000002057,
          "durationTicks": 96,
          "midi": 38,
          "name": "D2",
          "ticks": 172032,
          "time": 157.192896,
          "velocity": 0.6692913385826772
        },
        {
          "duration": 0.08771925000002057,
          "durationTicks": 96,
          "midi": 35,
          "name": "B1",
          "ticks": 172032,
          "time": 157.192896,
          "velocity": 0.6692913385826772
        },
        {
          "duration": 0.08771925000002057,
          "durationTicks": 96,
          "midi": 46,
          "name": "A#2",
          "ticks": 172032,
          "time": 157.192896,
          "velocity": 0.6692913385826772
        },
        {
          "duration": 0.08771925000002057,
          "durationTicks": 96,
          "midi": 36,
          "name": "C2",
          "ticks": 172032,
          "time": 157.192896,
          "velocity": 0.6692913385826772
        },
        {
          "duration": 0.08771925000002057,
          "durationTicks": 96,
          "midi": 46,
          "name": "A#2",
          "ticks": 172416,
          "time": 157.543773,
          "velocity": 0.6692913385826772
        },
        {
          "duration": 0.08771925000002057,
          "durationTicks": 96,
          "midi": 35,
          "name": "B1",
          "ticks": 172416,
          "time": 157.543773,
          "velocity": 0.6692913385826772
        },
        {
          "duration": 0.08771924999999214,
          "durationTicks": 96,
          "midi": 35,
          "name": "B1",
          "ticks": 172608,
          "time": 157.7192115,
          "velocity": 0.6692913385826772
        },
        {
          "duration": 0.08771925000002057,
          "durationTicks": 96,
          "midi": 38,
          "name": "D2",
          "ticks": 172800,
          "time": 157.89464999999998,
          "velocity": 0.6692913385826772
        },
        {
          "duration": 0.08771925000002057,
          "durationTicks": 96,
          "midi": 35,
          "name": "B1",
          "ticks": 172800,
          "time": 157.89464999999998,
          "velocity": 0.6692913385826772
        },
        {
          "duration": 0.08771925000002057,
          "durationTicks": 96,
          "midi": 36,
          "name": "C2",
          "ticks": 172800,
          "time": 157.89464999999998,
          "velocity": 0.6692913385826772
        },
        {
          "duration": 0.08771925000002057,
          "durationTicks": 96,
          "midi": 46,
          "name": "A#2",
          "ticks": 172800,
          "time": 157.89464999999998,
          "velocity": 0.6692913385826772
        },
        {
          "duration": 0.08771924999999214,
          "durationTicks": 96,
          "midi": 35,
          "name": "B1",
          "ticks": 173184,
          "time": 158.245527,
          "velocity": 0.6692913385826772
        },
        {
          "duration": 0.08771924999999214,
          "durationTicks": 96,
          "midi": 46,
          "name": "A#2",
          "ticks": 173184,
          "time": 158.245527,
          "velocity": 0.6692913385826772
        },
        {
          "duration": 0.08771924999999214,
          "durationTicks": 96,
          "midi": 35,
          "name": "B1",
          "ticks": 173376,
          "time": 158.4209655,
          "velocity": 0.6692913385826772
        },
        {
          "duration": 0.08771924999999214,
          "durationTicks": 96,
          "midi": 35,
          "name": "B1",
          "ticks": 173568,
          "time": 158.596404,
          "velocity": 0.6692913385826772
        },
        {
          "duration": 0.08771924999999214,
          "durationTicks": 96,
          "midi": 38,
          "name": "D2",
          "ticks": 173568,
          "time": 158.596404,
          "velocity": 0.6692913385826772
        },
        {
          "duration": 0.08771924999999214,
          "durationTicks": 96,
          "midi": 36,
          "name": "C2",
          "ticks": 173568,
          "time": 158.596404,
          "velocity": 0.6692913385826772
        },
        {
          "duration": 0.08771924999999214,
          "durationTicks": 96,
          "midi": 46,
          "name": "A#2",
          "ticks": 173568,
          "time": 158.596404,
          "velocity": 0.6692913385826772
        },
        {
          "duration": 0.08771924999999214,
          "durationTicks": 96,
          "midi": 35,
          "name": "B1",
          "ticks": 173952,
          "time": 158.947281,
          "velocity": 0.6692913385826772
        },
        {
          "duration": 0.08771924999999214,
          "durationTicks": 96,
          "midi": 46,
          "name": "A#2",
          "ticks": 173952,
          "time": 158.947281,
          "velocity": 0.6692913385826772
        },
        {
          "duration": 0.08771925000002057,
          "durationTicks": 96,
          "midi": 35,
          "name": "B1",
          "ticks": 174144,
          "time": 159.1227195,
          "velocity": 0.6692913385826772
        },
        {
          "duration": 0.08771924999999214,
          "durationTicks": 96,
          "midi": 46,
          "name": "A#2",
          "ticks": 174336,
          "time": 159.298158,
          "velocity": 0.6692913385826772
        },
        {
          "duration": 0.08771924999999214,
          "durationTicks": 96,
          "midi": 36,
          "name": "C2",
          "ticks": 174336,
          "time": 159.298158,
          "velocity": 0.6692913385826772
        },
        {
          "duration": 0.08771924999999214,
          "durationTicks": 96,
          "midi": 35,
          "name": "B1",
          "ticks": 174336,
          "time": 159.298158,
          "velocity": 0.6692913385826772
        },
        {
          "duration": 0.08771924999999214,
          "durationTicks": 96,
          "midi": 38,
          "name": "D2",
          "ticks": 174336,
          "time": 159.298158,
          "velocity": 0.6692913385826772
        },
        {
          "duration": 0.08771924999999214,
          "durationTicks": 96,
          "midi": 35,
          "name": "B1",
          "ticks": 174720,
          "time": 159.649035,
          "velocity": 0.6692913385826772
        },
        {
          "duration": 0.08771924999999214,
          "durationTicks": 96,
          "midi": 46,
          "name": "A#2",
          "ticks": 174720,
          "time": 159.649035,
          "velocity": 0.6692913385826772
        },
        {
          "duration": 0.08771924999999214,
          "durationTicks": 96,
          "midi": 35,
          "name": "B1",
          "ticks": 174912,
          "time": 159.8244735,
          "velocity": 0.6692913385826772
        },
        {
          "duration": 0.08771924999999214,
          "durationTicks": 96,
          "midi": 35,
          "name": "B1",
          "ticks": 175104,
          "time": 159.999912,
          "velocity": 0.6692913385826772
        },
        {
          "duration": 0.08771924999999214,
          "durationTicks": 96,
          "midi": 46,
          "name": "A#2",
          "ticks": 175104,
          "time": 159.999912,
          "velocity": 0.6692913385826772
        },
        {
          "duration": 0.08771924999999214,
          "durationTicks": 96,
          "midi": 36,
          "name": "C2",
          "ticks": 175104,
          "time": 159.999912,
          "velocity": 0.6692913385826772
        },
        {
          "duration": 0.08771924999999214,
          "durationTicks": 96,
          "midi": 38,
          "name": "D2",
          "ticks": 175104,
          "time": 159.999912,
          "velocity": 0.6692913385826772
        },
        {
          "duration": 0.08771924999999214,
          "durationTicks": 96,
          "midi": 35,
          "name": "B1",
          "ticks": 175488,
          "time": 160.350789,
          "velocity": 0.6692913385826772
        },
        {
          "duration": 0.08771924999999214,
          "durationTicks": 96,
          "midi": 46,
          "name": "A#2",
          "ticks": 175488,
          "time": 160.350789,
          "velocity": 0.6692913385826772
        },
        {
          "duration": 0.08771924999999214,
          "durationTicks": 96,
          "midi": 35,
          "name": "B1",
          "ticks": 175680,
          "time": 160.5262275,
          "velocity": 0.6692913385826772
        },
        {
          "duration": 0.08771925000002057,
          "durationTicks": 96,
          "midi": 46,
          "name": "A#2",
          "ticks": 175872,
          "time": 160.701666,
          "velocity": 0.6692913385826772
        },
        {
          "duration": 0.08771925000002057,
          "durationTicks": 96,
          "midi": 36,
          "name": "C2",
          "ticks": 175872,
          "time": 160.701666,
          "velocity": 0.6692913385826772
        },
        {
          "duration": 0.08771925000002057,
          "durationTicks": 96,
          "midi": 38,
          "name": "D2",
          "ticks": 175872,
          "time": 160.701666,
          "velocity": 0.6692913385826772
        },
        {
          "duration": 0.08771925000002057,
          "durationTicks": 96,
          "midi": 35,
          "name": "B1",
          "ticks": 175872,
          "time": 160.701666,
          "velocity": 0.6692913385826772
        },
        {
          "duration": 0.08771925000002057,
          "durationTicks": 96,
          "midi": 35,
          "name": "B1",
          "ticks": 176256,
          "time": 161.052543,
          "velocity": 0.6692913385826772
        },
        {
          "duration": 0.08771925000002057,
          "durationTicks": 96,
          "midi": 46,
          "name": "A#2",
          "ticks": 176256,
          "time": 161.052543,
          "velocity": 0.6692913385826772
        },
        {
          "duration": 0.08771924999999214,
          "durationTicks": 96,
          "midi": 35,
          "name": "B1",
          "ticks": 176448,
          "time": 161.2279815,
          "velocity": 0.6692913385826772
        },
        {
          "duration": 0.08771924999999214,
          "durationTicks": 96,
          "midi": 46,
          "name": "A#2",
          "ticks": 176640,
          "time": 161.40342,
          "velocity": 0.6692913385826772
        },
        {
          "duration": 0.08771924999999214,
          "durationTicks": 96,
          "midi": 36,
          "name": "C2",
          "ticks": 176640,
          "time": 161.40342,
          "velocity": 0.6692913385826772
        },
        {
          "duration": 0.08771924999999214,
          "durationTicks": 96,
          "midi": 35,
          "name": "B1",
          "ticks": 176640,
          "time": 161.40342,
          "velocity": 0.6692913385826772
        },
        {
          "duration": 0.08771924999999214,
          "durationTicks": 96,
          "midi": 38,
          "name": "D2",
          "ticks": 176640,
          "time": 161.40342,
          "velocity": 0.6692913385826772
        },
        {
          "duration": 0.08771924999999214,
          "durationTicks": 96,
          "midi": 46,
          "name": "A#2",
          "ticks": 177024,
          "time": 161.754297,
          "velocity": 0.6692913385826772
        },
        {
          "duration": 0.08771924999999214,
          "durationTicks": 96,
          "midi": 35,
          "name": "B1",
          "ticks": 177024,
          "time": 161.754297,
          "velocity": 0.6692913385826772
        },
        {
          "duration": 0.08771924999999214,
          "durationTicks": 96,
          "midi": 35,
          "name": "B1",
          "ticks": 177216,
          "time": 161.9297355,
          "velocity": 0.6692913385826772
        },
        {
          "duration": 0.08771924999999214,
          "durationTicks": 96,
          "midi": 35,
          "name": "B1",
          "ticks": 177408,
          "time": 162.105174,
          "velocity": 0.6692913385826772
        },
        {
          "duration": 0.08771924999999214,
          "durationTicks": 96,
          "midi": 46,
          "name": "A#2",
          "ticks": 177408,
          "time": 162.105174,
          "velocity": 0.6692913385826772
        },
        {
          "duration": 0.08771924999999214,
          "durationTicks": 96,
          "midi": 36,
          "name": "C2",
          "ticks": 177408,
          "time": 162.105174,
          "velocity": 0.6692913385826772
        },
        {
          "duration": 0.08771924999999214,
          "durationTicks": 96,
          "midi": 38,
          "name": "D2",
          "ticks": 177408,
          "time": 162.105174,
          "velocity": 0.6692913385826772
        },
        {
          "duration": 0.08771924999999214,
          "durationTicks": 96,
          "midi": 35,
          "name": "B1",
          "ticks": 177792,
          "time": 162.456051,
          "velocity": 0.6692913385826772
        },
        {
          "duration": 0.08771924999999214,
          "durationTicks": 96,
          "midi": 46,
          "name": "A#2",
          "ticks": 177792,
          "time": 162.456051,
          "velocity": 0.6692913385826772
        },
        {
          "duration": 0.08771925000002057,
          "durationTicks": 96,
          "midi": 35,
          "name": "B1",
          "ticks": 177984,
          "time": 162.6314895,
          "velocity": 0.6692913385826772
        },
        {
          "duration": 0.08771924999999214,
          "durationTicks": 96,
          "midi": 46,
          "name": "A#2",
          "ticks": 178176,
          "time": 162.806928,
          "velocity": 0.6692913385826772
        },
        {
          "duration": 0.08771924999999214,
          "durationTicks": 96,
          "midi": 35,
          "name": "B1",
          "ticks": 178176,
          "time": 162.806928,
          "velocity": 0.6692913385826772
        },
        {
          "duration": 0.08771924999999214,
          "durationTicks": 96,
          "midi": 36,
          "name": "C2",
          "ticks": 178176,
          "time": 162.806928,
          "velocity": 0.6692913385826772
        },
        {
          "duration": 0.08771924999999214,
          "durationTicks": 96,
          "midi": 38,
          "name": "D2",
          "ticks": 178176,
          "time": 162.806928,
          "velocity": 0.6692913385826772
        },
        {
          "duration": 0.08771924999999214,
          "durationTicks": 96,
          "midi": 35,
          "name": "B1",
          "ticks": 178560,
          "time": 163.157805,
          "velocity": 0.6692913385826772
        },
        {
          "duration": 0.08771924999999214,
          "durationTicks": 96,
          "midi": 46,
          "name": "A#2",
          "ticks": 178560,
          "time": 163.157805,
          "velocity": 0.6692913385826772
        },
        {
          "duration": 0.08771924999999214,
          "durationTicks": 96,
          "midi": 35,
          "name": "B1",
          "ticks": 178752,
          "time": 163.3332435,
          "velocity": 0.6692913385826772
        },
        {
          "duration": 0.08771924999999214,
          "durationTicks": 96,
          "midi": 46,
          "name": "A#2",
          "ticks": 178944,
          "time": 163.508682,
          "velocity": 0.6692913385826772
        },
        {
          "duration": 0.08771924999999214,
          "durationTicks": 96,
          "midi": 38,
          "name": "D2",
          "ticks": 178944,
          "time": 163.508682,
          "velocity": 0.6692913385826772
        },
        {
          "duration": 0.08771924999999214,
          "durationTicks": 96,
          "midi": 35,
          "name": "B1",
          "ticks": 178944,
          "time": 163.508682,
          "velocity": 0.6692913385826772
        },
        {
          "duration": 0.08771924999999214,
          "durationTicks": 96,
          "midi": 36,
          "name": "C2",
          "ticks": 178944,
          "time": 163.508682,
          "velocity": 0.6692913385826772
        },
        {
          "duration": 0.08771925000002057,
          "durationTicks": 96,
          "midi": 35,
          "name": "B1",
          "ticks": 179328,
          "time": 163.859559,
          "velocity": 0.6692913385826772
        },
        {
          "duration": 0.08771925000002057,
          "durationTicks": 96,
          "midi": 46,
          "name": "A#2",
          "ticks": 179328,
          "time": 163.859559,
          "velocity": 0.6692913385826772
        },
        {
          "duration": 0.08771924999999214,
          "durationTicks": 96,
          "midi": 35,
          "name": "B1",
          "ticks": 179520,
          "time": 164.0349975,
          "velocity": 0.6692913385826772
        },
        {
          "duration": 0.08771925000002057,
          "durationTicks": 96,
          "midi": 38,
          "name": "D2",
          "ticks": 179712,
          "time": 164.210436,
          "velocity": 0.6692913385826772
        },
        {
          "duration": 0.08771925000002057,
          "durationTicks": 96,
          "midi": 35,
          "name": "B1",
          "ticks": 179712,
          "time": 164.210436,
          "velocity": 0.6692913385826772
        },
        {
          "duration": 0.08771925000002057,
          "durationTicks": 96,
          "midi": 36,
          "name": "C2",
          "ticks": 179712,
          "time": 164.210436,
          "velocity": 0.6692913385826772
        },
        {
          "duration": 0.08771925000002057,
          "durationTicks": 96,
          "midi": 46,
          "name": "A#2",
          "ticks": 179712,
          "time": 164.210436,
          "velocity": 0.6692913385826772
        },
        {
          "duration": 0.08771925000002057,
          "durationTicks": 96,
          "midi": 35,
          "name": "B1",
          "ticks": 180096,
          "time": 164.56131299999998,
          "velocity": 0.6692913385826772
        },
        {
          "duration": 0.08771925000002057,
          "durationTicks": 96,
          "midi": 46,
          "name": "A#2",
          "ticks": 180096,
          "time": 164.56131299999998,
          "velocity": 0.6692913385826772
        },
        {
          "duration": 0.08771924999999214,
          "durationTicks": 96,
          "midi": 35,
          "name": "B1",
          "ticks": 180288,
          "time": 164.7367515,
          "velocity": 0.6692913385826772
        },
        {
          "duration": 0.08771924999999214,
          "durationTicks": 96,
          "midi": 35,
          "name": "B1",
          "ticks": 180480,
          "time": 164.91219,
          "velocity": 0.6692913385826772
        },
        {
          "duration": 0.08771924999999214,
          "durationTicks": 96,
          "midi": 38,
          "name": "D2",
          "ticks": 180480,
          "time": 164.91219,
          "velocity": 0.6692913385826772
        },
        {
          "duration": 0.08771924999999214,
          "durationTicks": 96,
          "midi": 46,
          "name": "A#2",
          "ticks": 180480,
          "time": 164.91219,
          "velocity": 0.6692913385826772
        },
        {
          "duration": 0.08771924999999214,
          "durationTicks": 96,
          "midi": 36,
          "name": "C2",
          "ticks": 180480,
          "time": 164.91219,
          "velocity": 0.6692913385826772
        },
        {
          "duration": 0.08771924999999214,
          "durationTicks": 96,
          "midi": 46,
          "name": "A#2",
          "ticks": 180864,
          "time": 165.263067,
          "velocity": 0.6692913385826772
        },
        {
          "duration": 0.08771924999999214,
          "durationTicks": 96,
          "midi": 35,
          "name": "B1",
          "ticks": 180864,
          "time": 165.263067,
          "velocity": 0.6692913385826772
        },
        {
          "duration": 0.08771925000002057,
          "durationTicks": 96,
          "midi": 35,
          "name": "B1",
          "ticks": 181056,
          "time": 165.4385055,
          "velocity": 0.6692913385826772
        },
        {
          "duration": 0.08771924999999214,
          "durationTicks": 96,
          "midi": 36,
          "name": "C2",
          "ticks": 181248,
          "time": 165.613944,
          "velocity": 0.6692913385826772
        },
        {
          "duration": 0.08771924999999214,
          "durationTicks": 96,
          "midi": 35,
          "name": "B1",
          "ticks": 181248,
          "time": 165.613944,
          "velocity": 0.6692913385826772
        },
        {
          "duration": 0.08771924999999214,
          "durationTicks": 96,
          "midi": 46,
          "name": "A#2",
          "ticks": 181248,
          "time": 165.613944,
          "velocity": 0.6692913385826772
        },
        {
          "duration": 0.08771924999999214,
          "durationTicks": 96,
          "midi": 38,
          "name": "D2",
          "ticks": 181248,
          "time": 165.613944,
          "velocity": 0.6692913385826772
        },
        {
          "duration": 0.08771924999999214,
          "durationTicks": 96,
          "midi": 35,
          "name": "B1",
          "ticks": 181632,
          "time": 165.964821,
          "velocity": 0.6692913385826772
        },
        {
          "duration": 0.08771924999999214,
          "durationTicks": 96,
          "midi": 46,
          "name": "A#2",
          "ticks": 181632,
          "time": 165.964821,
          "velocity": 0.6692913385826772
        },
        {
          "duration": 0.08771925000002057,
          "durationTicks": 96,
          "midi": 35,
          "name": "B1",
          "ticks": 181824,
          "time": 166.14025949999998,
          "velocity": 0.6692913385826772
        },
        {
          "duration": 0.08771924999999214,
          "durationTicks": 96,
          "midi": 35,
          "name": "B1",
          "ticks": 182016,
          "time": 166.315698,
          "velocity": 0.6692913385826772
        },
        {
          "duration": 0.08771924999999214,
          "durationTicks": 96,
          "midi": 46,
          "name": "A#2",
          "ticks": 182016,
          "time": 166.315698,
          "velocity": 0.6692913385826772
        },
        {
          "duration": 0.08771924999999214,
          "durationTicks": 96,
          "midi": 36,
          "name": "C2",
          "ticks": 182016,
          "time": 166.315698,
          "velocity": 0.6692913385826772
        },
        {
          "duration": 0.08771924999999214,
          "durationTicks": 96,
          "midi": 38,
          "name": "D2",
          "ticks": 182016,
          "time": 166.315698,
          "velocity": 0.6692913385826772
        },
        {
          "duration": 0.08771924999999214,
          "durationTicks": 96,
          "midi": 46,
          "name": "A#2",
          "ticks": 182400,
          "time": 166.666575,
          "velocity": 0.6692913385826772
        },
        {
          "duration": 0.08771924999999214,
          "durationTicks": 96,
          "midi": 35,
          "name": "B1",
          "ticks": 182400,
          "time": 166.666575,
          "velocity": 0.6692913385826772
        },
        {
          "duration": 0.08771924999999214,
          "durationTicks": 96,
          "midi": 35,
          "name": "B1",
          "ticks": 182592,
          "time": 166.8420135,
          "velocity": 0.6692913385826772
        },
        {
          "duration": 0.08771924999999214,
          "durationTicks": 96,
          "midi": 35,
          "name": "B1",
          "ticks": 182784,
          "time": 167.017452,
          "velocity": 0.6692913385826772
        },
        {
          "duration": 0.08771924999999214,
          "durationTicks": 96,
          "midi": 38,
          "name": "D2",
          "ticks": 182784,
          "time": 167.017452,
          "velocity": 0.6692913385826772
        },
        {
          "duration": 0.08771924999999214,
          "durationTicks": 96,
          "midi": 36,
          "name": "C2",
          "ticks": 182784,
          "time": 167.017452,
          "velocity": 0.6692913385826772
        },
        {
          "duration": 0.08771924999999214,
          "durationTicks": 96,
          "midi": 46,
          "name": "A#2",
          "ticks": 182784,
          "time": 167.017452,
          "velocity": 0.6692913385826772
        },
        {
          "duration": 0.08771925000002057,
          "durationTicks": 96,
          "midi": 35,
          "name": "B1",
          "ticks": 183168,
          "time": 167.368329,
          "velocity": 0.6692913385826772
        },
        {
          "duration": 0.08771925000002057,
          "durationTicks": 96,
          "midi": 46,
          "name": "A#2",
          "ticks": 183168,
          "time": 167.368329,
          "velocity": 0.6692913385826772
        },
        {
          "duration": 0.08771924999999214,
          "durationTicks": 96,
          "midi": 35,
          "name": "B1",
          "ticks": 183360,
          "time": 167.5437675,
          "velocity": 0.6692913385826772
        },
        {
          "duration": 0.08771925000002057,
          "durationTicks": 96,
          "midi": 35,
          "name": "B1",
          "ticks": 183552,
          "time": 167.71920599999999,
          "velocity": 0.6692913385826772
        },
        {
          "duration": 0.08771925000002057,
          "durationTicks": 96,
          "midi": 36,
          "name": "C2",
          "ticks": 183552,
          "time": 167.71920599999999,
          "velocity": 0.6692913385826772
        },
        {
          "duration": 0.08771925000002057,
          "durationTicks": 96,
          "midi": 46,
          "name": "A#2",
          "ticks": 183552,
          "time": 167.71920599999999,
          "velocity": 0.6692913385826772
        },
        {
          "duration": 0.08771925000002057,
          "durationTicks": 96,
          "midi": 38,
          "name": "D2",
          "ticks": 183552,
          "time": 167.71920599999999,
          "velocity": 0.6692913385826772
        },
        {
          "duration": 0.08771924999999214,
          "durationTicks": 96,
          "midi": 46,
          "name": "A#2",
          "ticks": 183936,
          "time": 168.070083,
          "velocity": 0.6692913385826772
        },
        {
          "duration": 0.08771924999999214,
          "durationTicks": 96,
          "midi": 35,
          "name": "B1",
          "ticks": 183936,
          "time": 168.070083,
          "velocity": 0.6692913385826772
        },
        {
          "duration": 0.08771924999999214,
          "durationTicks": 96,
          "midi": 35,
          "name": "B1",
          "ticks": 184128,
          "time": 168.2455215,
          "velocity": 0.6692913385826772
        },
        {
          "duration": 0.08771924999999214,
          "durationTicks": 96,
          "midi": 35,
          "name": "B1",
          "ticks": 184320,
          "time": 168.42096,
          "velocity": 0.6692913385826772
        },
        {
          "duration": 0.08771924999999214,
          "durationTicks": 96,
          "midi": 46,
          "name": "A#2",
          "ticks": 184320,
          "time": 168.42096,
          "velocity": 0.6692913385826772
        },
        {
          "duration": 0.08771924999999214,
          "durationTicks": 96,
          "midi": 38,
          "name": "D2",
          "ticks": 184320,
          "time": 168.42096,
          "velocity": 0.6692913385826772
        },
        {
          "duration": 0.08771924999999214,
          "durationTicks": 96,
          "midi": 36,
          "name": "C2",
          "ticks": 184320,
          "time": 168.42096,
          "velocity": 0.6692913385826772
        },
        {
          "duration": 0.08771924999999214,
          "durationTicks": 96,
          "midi": 35,
          "name": "B1",
          "ticks": 184800,
          "time": 168.85955625,
          "velocity": 0.6692913385826772
        },
        {
          "duration": 0.08771924999999214,
          "durationTicks": 96,
          "midi": 38,
          "name": "D2",
          "ticks": 184800,
          "time": 168.85955625,
          "velocity": 0.6692913385826772
        },
        {
          "duration": 0.08771924999999214,
          "durationTicks": 96,
          "midi": 36,
          "name": "C2",
          "ticks": 184800,
          "time": 168.85955625,
          "velocity": 0.6692913385826772
        },
        {
          "duration": 0.08771924999999214,
          "durationTicks": 96,
          "midi": 46,
          "name": "A#2",
          "ticks": 184800,
          "time": 168.85955625,
          "velocity": 0.6692913385826772
        },
        {
          "duration": 0.08771924999999214,
          "durationTicks": 96,
          "midi": 51,
          "name": "D#3",
          "ticks": 184800,
          "time": 168.85955625,
          "velocity": 0.6692913385826772
        },
        {
          "duration": 0.08771924999999214,
          "durationTicks": 96,
          "midi": 51,
          "name": "D#3",
          "ticks": 187968,
          "time": 171.7542915,
          "velocity": 0.6692913385826772
        },
        {
          "duration": 0.08771924999999214,
          "durationTicks": 96,
          "midi": 46,
          "name": "A#2",
          "ticks": 187968,
          "time": 171.7542915,
          "velocity": 0.6692913385826772
        }
      ],
      "endOfTrackTicks": 188064
    },
    {
      "channel": 12,
      "controlChanges": {},
      "pitchBends": [],
      "instrument": {
        "family": "guitar",
        "number": 30,
        "name": "distortion guitar"
      },
      "name": "Distortion Guitar",
      "notes": [
        {
          "duration": 0.0877192500000028,
          "durationTicks": 96,
          "midi": 39,
          "name": "D#2",
          "ticks": 24768,
          "time": 22.631566499999998,
          "velocity": 0.5275590551181102
        },
        {
          "duration": 0.08771924999999925,
          "durationTicks": 96,
          "midi": 39,
          "name": "D#2",
          "ticks": 25344,
          "time": 23.157882,
          "velocity": 0.5275590551181102
        },
        {
          "duration": 0.08771924999999925,
          "durationTicks": 96,
          "midi": 39,
          "name": "D#2",
          "ticks": 25920,
          "time": 23.6841975,
          "velocity": 0.5275590551181102
        },
        {
          "duration": 0.08771924999999925,
          "durationTicks": 96,
          "midi": 39,
          "name": "D#2",
          "ticks": 26496,
          "time": 24.210513,
          "velocity": 0.5275590551181102
        },
        {
          "duration": 0.0877192500000028,
          "durationTicks": 96,
          "midi": 39,
          "name": "D#2",
          "ticks": 27072,
          "time": 24.736828499999998,
          "velocity": 0.5275590551181102
        },
        {
          "duration": 0.0877192500000028,
          "durationTicks": 96,
          "midi": 39,
          "name": "D#2",
          "ticks": 27456,
          "time": 25.0877055,
          "velocity": 0.5275590551181102
        },
        {
          "duration": 0.08771924999999925,
          "durationTicks": 96,
          "midi": 41,
          "name": "F2",
          "ticks": 27648,
          "time": 25.263144,
          "velocity": 0.5275590551181102
        },
        {
          "duration": 0.08771924999999925,
          "durationTicks": 96,
          "midi": 39,
          "name": "D#2",
          "ticks": 27840,
          "time": 25.4385825,
          "velocity": 0.5275590551181102
        },
        {
          "duration": 0.0877192500000028,
          "durationTicks": 96,
          "midi": 39,
          "name": "D#2",
          "ticks": 28416,
          "time": 25.964897999999998,
          "velocity": 0.5275590551181102
        },
        {
          "duration": 0.08771924999999925,
          "durationTicks": 96,
          "midi": 39,
          "name": "D#2",
          "ticks": 28992,
          "time": 26.4912135,
          "velocity": 0.5275590551181102
        },
        {
          "duration": 0.08771924999999925,
          "durationTicks": 96,
          "midi": 39,
          "name": "D#2",
          "ticks": 29568,
          "time": 27.017529,
          "velocity": 0.5275590551181102
        },
        {
          "duration": 0.08771924999999925,
          "durationTicks": 96,
          "midi": 39,
          "name": "D#2",
          "ticks": 30144,
          "time": 27.5438445,
          "velocity": 0.5275590551181102
        },
        {
          "duration": 0.08771924999999925,
          "durationTicks": 96,
          "midi": 39,
          "name": "D#2",
          "ticks": 30432,
          "time": 27.80700225,
          "velocity": 0.5275590551181102
        },
        {
          "duration": 0.0877192500000028,
          "durationTicks": 96,
          "midi": 39,
          "name": "D#2",
          "ticks": 30624,
          "time": 27.98244075,
          "velocity": 0.5275590551181102
        },
        {
          "duration": 0.08771924999999925,
          "durationTicks": 96,
          "midi": 38,
          "name": "D2",
          "ticks": 30912,
          "time": 28.2455985,
          "velocity": 0.5275590551181102
        },
        {
          "duration": 0.0877192500000028,
          "durationTicks": 96,
          "midi": 38,
          "name": "D2",
          "ticks": 31104,
          "time": 28.421037,
          "velocity": 0.5275590551181102
        },
        {
          "duration": 0.08771924999999925,
          "durationTicks": 96,
          "midi": 38,
          "name": "D2",
          "ticks": 31488,
          "time": 28.771914,
          "velocity": 0.5275590551181102
        },
        {
          "duration": 0.08771924999999925,
          "durationTicks": 96,
          "midi": 38,
          "name": "D2",
          "ticks": 31680,
          "time": 28.9473525,
          "velocity": 0.5275590551181102
        },
        {
          "duration": 0.08771924999999925,
          "durationTicks": 96,
          "midi": 38,
          "name": "D2",
          "ticks": 31872,
          "time": 29.122791,
          "velocity": 0.5275590551181102
        },
        {
          "duration": 0.08771924999999925,
          "durationTicks": 96,
          "midi": 38,
          "name": "D2",
          "ticks": 32256,
          "time": 29.473668,
          "velocity": 0.5275590551181102
        },
        {
          "duration": 0.0877192500000028,
          "durationTicks": 96,
          "midi": 38,
          "name": "D2",
          "ticks": 32448,
          "time": 29.6491065,
          "velocity": 0.5275590551181102
        },
        {
          "duration": 0.08771924999999925,
          "durationTicks": 96,
          "midi": 38,
          "name": "D2",
          "ticks": 32640,
          "time": 29.824545,
          "velocity": 0.5275590551181102
        },
        {
          "duration": 0.08771924999999925,
          "durationTicks": 96,
          "midi": 38,
          "name": "D2",
          "ticks": 33024,
          "time": 30.175422,
          "velocity": 0.5275590551181102
        },
        {
          "duration": 0.08771924999999925,
          "durationTicks": 96,
          "midi": 38,
          "name": "D2",
          "ticks": 33216,
          "time": 30.3508605,
          "velocity": 0.5275590551181102
        },
        {
          "duration": 0.0877192500000028,
          "durationTicks": 96,
          "midi": 38,
          "name": "D2",
          "ticks": 33408,
          "time": 30.526298999999998,
          "velocity": 0.5275590551181102
        },
        {
          "duration": 0.08771924999999925,
          "durationTicks": 96,
          "midi": 38,
          "name": "D2",
          "ticks": 33600,
          "time": 30.7017375,
          "velocity": 0.5275590551181102
        },
        {
          "duration": 0.08771924999999925,
          "durationTicks": 96,
          "midi": 41,
          "name": "F2",
          "ticks": 33792,
          "time": 30.877176,
          "velocity": 0.5275590551181102
        },
        {
          "duration": 0.08771924999999925,
          "durationTicks": 96,
          "midi": 31,
          "name": "G1",
          "ticks": 33984,
          "time": 31.0526145,
          "velocity": 0.5275590551181102
        },
        {
          "duration": 0.08771924999999925,
          "durationTicks": 96,
          "midi": 31,
          "name": "G1",
          "ticks": 34368,
          "time": 31.4034915,
          "velocity": 0.5275590551181102
        },
        {
          "duration": 0.08771924999999925,
          "durationTicks": 96,
          "midi": 33,
          "name": "A1",
          "ticks": 34560,
          "time": 31.57893,
          "velocity": 0.5275590551181102
        },
        {
          "duration": 0.0877192500000028,
          "durationTicks": 96,
          "midi": 33,
          "name": "A1",
          "ticks": 34752,
          "time": 31.754368499999998,
          "velocity": 0.5275590551181102
        },
        {
          "duration": 0.08771924999999925,
          "durationTicks": 96,
          "midi": 33,
          "name": "A1",
          "ticks": 35136,
          "time": 32.1052455,
          "velocity": 0.5275590551181102
        },
        {
          "duration": 0.08771924999999925,
          "durationTicks": 96,
          "midi": 33,
          "name": "A1",
          "ticks": 35328,
          "time": 32.280684,
          "velocity": 0.5275590551181102
        },
        {
          "duration": 0.08771924999999925,
          "durationTicks": 96,
          "midi": 34,
          "name": "A#1",
          "ticks": 35520,
          "time": 32.4561225,
          "velocity": 0.5275590551181102
        },
        {
          "duration": 0.08771924999999925,
          "durationTicks": 96,
          "midi": 33,
          "name": "A1",
          "ticks": 35712,
          "time": 32.631561,
          "velocity": 0.5275590551181102
        },
        {
          "duration": 0.08771925000000635,
          "durationTicks": 96,
          "midi": 33,
          "name": "A1",
          "ticks": 35904,
          "time": 32.806999499999996,
          "velocity": 0.5275590551181102
        },
        {
          "duration": 0.08771924999999925,
          "durationTicks": 96,
          "midi": 34,
          "name": "A#1",
          "ticks": 36096,
          "time": 32.982438,
          "velocity": 0.5275590551181102
        },
        {
          "duration": 0.08771924999999925,
          "durationTicks": 96,
          "midi": 36,
          "name": "C2",
          "ticks": 36288,
          "time": 33.1578765,
          "velocity": 0.5275590551181102
        },
        {
          "duration": 0.08771924999999925,
          "durationTicks": 96,
          "midi": 34,
          "name": "A#1",
          "ticks": 36480,
          "time": 33.333315,
          "velocity": 0.5275590551181102
        },
        {
          "duration": 0.08771924999999925,
          "durationTicks": 96,
          "midi": 34,
          "name": "A#1",
          "ticks": 36672,
          "time": 33.5087535,
          "velocity": 0.5275590551181102
        },
        {
          "duration": 0.08771924999999925,
          "durationTicks": 96,
          "midi": 36,
          "name": "C2",
          "ticks": 36672,
          "time": 33.5087535,
          "velocity": 0.5275590551181102
        },
        {
          "duration": 0.08771924999999925,
          "durationTicks": 96,
          "midi": 39,
          "name": "D#2",
          "ticks": 37056,
          "time": 33.8596305,
          "velocity": 0.5275590551181102
        },
        {
          "duration": 0.08771924999999925,
          "durationTicks": 96,
          "midi": 39,
          "name": "D#2",
          "ticks": 37248,
          "time": 34.035069,
          "velocity": 0.5275590551181102
        },
        {
          "duration": 0.08771924999999925,
          "durationTicks": 96,
          "midi": 39,
          "name": "D#2",
          "ticks": 37632,
          "time": 34.385946,
          "velocity": 0.5275590551181102
        },
        {
          "duration": 0.08771924999999925,
          "durationTicks": 96,
          "midi": 39,
          "name": "D#2",
          "ticks": 37824,
          "time": 34.5613845,
          "velocity": 0.5275590551181102
        },
        {
          "duration": 0.08771924999999925,
          "durationTicks": 96,
          "midi": 39,
          "name": "D#2",
          "ticks": 38016,
          "time": 34.736823,
          "velocity": 0.5275590551181102
        },
        {
          "duration": 0.08771924999999925,
          "durationTicks": 96,
          "midi": 39,
          "name": "D#2",
          "ticks": 38400,
          "time": 35.0877,
          "velocity": 0.5275590551181102
        },
        {
          "duration": 0.08771925000000635,
          "durationTicks": 96,
          "midi": 39,
          "name": "D#2",
          "ticks": 38592,
          "time": 35.2631385,
          "velocity": 0.5275590551181102
        },
        {
          "duration": 0.08771924999999925,
          "durationTicks": 96,
          "midi": 39,
          "name": "D#2",
          "ticks": 38784,
          "time": 35.438577,
          "velocity": 0.5275590551181102
        },
        {
          "duration": 0.08771924999999925,
          "durationTicks": 96,
          "midi": 39,
          "name": "D#2",
          "ticks": 39168,
          "time": 35.789454,
          "velocity": 0.5275590551181102
        },
        {
          "duration": 0.08771924999999925,
          "durationTicks": 96,
          "midi": 39,
          "name": "D#2",
          "ticks": 39360,
          "time": 35.9648925,
          "velocity": 0.5275590551181102
        },
        {
          "duration": 0.08771925000000635,
          "durationTicks": 96,
          "midi": 39,
          "name": "D#2",
          "ticks": 39552,
          "time": 36.140330999999996,
          "velocity": 0.5275590551181102
        },
        {
          "duration": 0.08771924999999925,
          "durationTicks": 96,
          "midi": 39,
          "name": "D#2",
          "ticks": 39744,
          "time": 36.3157695,
          "velocity": 0.5275590551181102
        },
        {
          "duration": 0.08771924999999925,
          "durationTicks": 96,
          "midi": 41,
          "name": "F2",
          "ticks": 39936,
          "time": 36.491208,
          "velocity": 0.5275590551181102
        },
        {
          "duration": 0.08771924999999925,
          "durationTicks": 96,
          "midi": 39,
          "name": "D#2",
          "ticks": 40128,
          "time": 36.6666465,
          "velocity": 0.5275590551181102
        },
        {
          "duration": 0.08771924999999925,
          "durationTicks": 96,
          "midi": 39,
          "name": "D#2",
          "ticks": 40320,
          "time": 36.842085,
          "velocity": 0.5275590551181102
        },
        {
          "duration": 0.08771924999999925,
          "durationTicks": 96,
          "midi": 39,
          "name": "D#2",
          "ticks": 40704,
          "time": 37.192962,
          "velocity": 0.5275590551181102
        },
        {
          "duration": 0.08771924999999925,
          "durationTicks": 96,
          "midi": 39,
          "name": "D#2",
          "ticks": 40896,
          "time": 37.3684005,
          "velocity": 0.5275590551181102
        },
        {
          "duration": 0.08771924999999925,
          "durationTicks": 96,
          "midi": 39,
          "name": "D#2",
          "ticks": 41088,
          "time": 37.543839,
          "velocity": 0.5275590551181102
        },
        {
          "duration": 0.08771924999999925,
          "durationTicks": 96,
          "midi": 39,
          "name": "D#2",
          "ticks": 41472,
          "time": 37.894716,
          "velocity": 0.5275590551181102
        },
        {
          "duration": 0.08771924999999925,
          "durationTicks": 96,
          "midi": 39,
          "name": "D#2",
          "ticks": 41664,
          "time": 38.0701545,
          "velocity": 0.5275590551181102
        },
        {
          "duration": 0.08771924999999925,
          "durationTicks": 96,
          "midi": 39,
          "name": "D#2",
          "ticks": 41856,
          "time": 38.245593,
          "velocity": 0.5275590551181102
        },
        {
          "duration": 0.08771925000000635,
          "durationTicks": 96,
          "midi": 39,
          "name": "D#2",
          "ticks": 42240,
          "time": 38.59647,
          "velocity": 0.5275590551181102
        },
        {
          "duration": 0.08771924999999925,
          "durationTicks": 96,
          "midi": 39,
          "name": "D#2",
          "ticks": 42432,
          "time": 38.7719085,
          "velocity": 0.5275590551181102
        },
        {
          "duration": 0.08771924999999925,
          "durationTicks": 96,
          "midi": 39,
          "name": "D#2",
          "ticks": 42624,
          "time": 38.947347,
          "velocity": 0.5275590551181102
        },
        {
          "duration": 0.08771924999999925,
          "durationTicks": 96,
          "midi": 39,
          "name": "D#2",
          "ticks": 42816,
          "time": 39.1227855,
          "velocity": 0.5275590551181102
        },
        {
          "duration": 0.08771924999999925,
          "durationTicks": 96,
          "midi": 41,
          "name": "F2",
          "ticks": 43008,
          "time": 39.298224,
          "velocity": 0.5275590551181102
        },
        {
          "duration": 0.08771925000000635,
          "durationTicks": 96,
          "midi": 38,
          "name": "D2",
          "ticks": 43200,
          "time": 39.473662499999996,
          "velocity": 0.5275590551181102
        },
        {
          "duration": 0.08771924999999925,
          "durationTicks": 96,
          "midi": 38,
          "name": "D2",
          "ticks": 43392,
          "time": 39.649101,
          "velocity": 0.5275590551181102
        },
        {
          "duration": 0.08771924999999925,
          "durationTicks": 96,
          "midi": 38,
          "name": "D2",
          "ticks": 43776,
          "time": 39.999978,
          "velocity": 0.5275590551181102
        },
        {
          "duration": 0.08771924999999925,
          "durationTicks": 96,
          "midi": 38,
          "name": "D2",
          "ticks": 43968,
          "time": 40.1754165,
          "velocity": 0.5275590551181102
        },
        {
          "duration": 0.08771924999999925,
          "durationTicks": 96,
          "midi": 38,
          "name": "D2",
          "ticks": 44160,
          "time": 40.350855,
          "velocity": 0.5275590551181102
        },
        {
          "duration": 0.08771924999999925,
          "durationTicks": 96,
          "midi": 38,
          "name": "D2",
          "ticks": 44544,
          "time": 40.701732,
          "velocity": 0.5275590551181102
        },
        {
          "duration": 0.08771924999999925,
          "durationTicks": 96,
          "midi": 38,
          "name": "D2",
          "ticks": 44736,
          "time": 40.8771705,
          "velocity": 0.5275590551181102
        },
        {
          "duration": 0.08771924999999925,
          "durationTicks": 96,
          "midi": 38,
          "name": "D2",
          "ticks": 44928,
          "time": 41.052609,
          "velocity": 0.5275590551181102
        },
        {
          "duration": 0.08771924999999925,
          "durationTicks": 96,
          "midi": 38,
          "name": "D2",
          "ticks": 45312,
          "time": 41.403486,
          "velocity": 0.5275590551181102
        },
        {
          "duration": 0.08771924999999925,
          "durationTicks": 96,
          "midi": 38,
          "name": "D2",
          "ticks": 45504,
          "time": 41.5789245,
          "velocity": 0.5275590551181102
        },
        {
          "duration": 0.08771924999999925,
          "durationTicks": 96,
          "midi": 38,
          "name": "D2",
          "ticks": 45696,
          "time": 41.754363,
          "velocity": 0.5275590551181102
        },
        {
          "duration": 0.08771925000000635,
          "durationTicks": 96,
          "midi": 38,
          "name": "D2",
          "ticks": 45888,
          "time": 41.929801499999996,
          "velocity": 0.5275590551181102
        },
        {
          "duration": 0.08771924999999925,
          "durationTicks": 96,
          "midi": 41,
          "name": "F2",
          "ticks": 46080,
          "time": 42.10524,
          "velocity": 0.5275590551181102
        },
        {
          "duration": 0.08771924999999925,
          "durationTicks": 96,
          "midi": 31,
          "name": "G1",
          "ticks": 46272,
          "time": 42.2806785,
          "velocity": 0.5275590551181102
        },
        {
          "duration": 0.08771924999999925,
          "durationTicks": 96,
          "midi": 31,
          "name": "G1",
          "ticks": 46656,
          "time": 42.6315555,
          "velocity": 0.5275590551181102
        },
        {
          "duration": 0.08771925000000635,
          "durationTicks": 96,
          "midi": 33,
          "name": "A1",
          "ticks": 46848,
          "time": 42.806993999999996,
          "velocity": 0.5275590551181102
        },
        {
          "duration": 0.08771924999999925,
          "durationTicks": 96,
          "midi": 33,
          "name": "A1",
          "ticks": 47040,
          "time": 42.9824325,
          "velocity": 0.5275590551181102
        },
        {
          "duration": 0.08771924999999925,
          "durationTicks": 96,
          "midi": 33,
          "name": "A1",
          "ticks": 47424,
          "time": 43.3333095,
          "velocity": 0.5275590551181102
        },
        {
          "duration": 0.08771924999999925,
          "durationTicks": 96,
          "midi": 33,
          "name": "A1",
          "ticks": 47616,
          "time": 43.508748,
          "velocity": 0.5275590551181102
        },
        {
          "duration": 0.08771924999999925,
          "durationTicks": 96,
          "midi": 34,
          "name": "A#1",
          "ticks": 47808,
          "time": 43.6841865,
          "velocity": 0.5275590551181102
        },
        {
          "duration": 0.08771924999999925,
          "durationTicks": 96,
          "midi": 33,
          "name": "A1",
          "ticks": 48000,
          "time": 43.859625,
          "velocity": 0.5275590551181102
        },
        {
          "duration": 0.08771924999999925,
          "durationTicks": 96,
          "midi": 33,
          "name": "A1",
          "ticks": 48192,
          "time": 44.0350635,
          "velocity": 0.5275590551181102
        },
        {
          "duration": 0.08771924999999925,
          "durationTicks": 96,
          "midi": 34,
          "name": "A#1",
          "ticks": 48384,
          "time": 44.210502,
          "velocity": 0.5275590551181102
        },
        {
          "duration": 0.08771924999999925,
          "durationTicks": 96,
          "midi": 36,
          "name": "C2",
          "ticks": 48576,
          "time": 44.3859405,
          "velocity": 0.5275590551181102
        },
        {
          "duration": 0.08771924999999925,
          "durationTicks": 96,
          "midi": 34,
          "name": "A#1",
          "ticks": 48768,
          "time": 44.561379,
          "velocity": 0.5275590551181102
        },
        {
          "duration": 0.08771924999999925,
          "durationTicks": 96,
          "midi": 36,
          "name": "C2",
          "ticks": 48960,
          "time": 44.7368175,
          "velocity": 0.5275590551181102
        },
        {
          "duration": 0.08771925000000635,
          "durationTicks": 96,
          "midi": 36,
          "name": "C2",
          "ticks": 74016,
          "time": 67.63154175,
          "velocity": 0.5275590551181102
        },
        {
          "duration": 0.08771925000000635,
          "durationTicks": 96,
          "midi": 65,
          "name": "F4",
          "ticks": 74016,
          "time": 67.63154175,
          "velocity": 0.5275590551181102
        },
        {
          "duration": 0.08771925000000635,
          "durationTicks": 96,
          "midi": 36,
          "name": "C2",
          "ticks": 74400,
          "time": 67.98241875,
          "velocity": 0.5275590551181102
        },
        {
          "duration": 0.08771925000000635,
          "durationTicks": 96,
          "midi": 58,
          "name": "A#3",
          "ticks": 74400,
          "time": 67.98241875,
          "velocity": 0.5275590551181102
        },
        {
          "duration": 0.08771924999999214,
          "durationTicks": 96,
          "midi": 36,
          "name": "C2",
          "ticks": 74784,
          "time": 68.33329575,
          "velocity": 0.5275590551181102
        },
        {
          "duration": 0.08771924999999214,
          "durationTicks": 96,
          "midi": 60,
          "name": "C4",
          "ticks": 74784,
          "time": 68.33329575,
          "velocity": 0.5275590551181102
        },
        {
          "duration": 0.08771924999999214,
          "durationTicks": 96,
          "midi": 58,
          "name": "A#3",
          "ticks": 75168,
          "time": 68.68417275,
          "velocity": 0.5275590551181102
        },
        {
          "duration": 0.08771924999999214,
          "durationTicks": 96,
          "midi": 36,
          "name": "C2",
          "ticks": 75168,
          "time": 68.68417275,
          "velocity": 0.5275590551181102
        },
        {
          "duration": 0.08771925000000635,
          "durationTicks": 96,
          "midi": 36,
          "name": "C2",
          "ticks": 75552,
          "time": 69.03504975,
          "velocity": 0.5275590551181102
        },
        {
          "duration": 0.08771925000000635,
          "durationTicks": 96,
          "midi": 53,
          "name": "F3",
          "ticks": 75552,
          "time": 69.03504975,
          "velocity": 0.5275590551181102
        },
        {
          "duration": 0.08771925000000635,
          "durationTicks": 96,
          "midi": 58,
          "name": "A#3",
          "ticks": 75744,
          "time": 69.21048825,
          "velocity": 0.5275590551181102
        },
        {
          "duration": 0.08771925000000635,
          "durationTicks": 96,
          "midi": 36,
          "name": "C2",
          "ticks": 75936,
          "time": 69.38592675,
          "velocity": 0.5275590551181102
        },
        {
          "duration": 0.08771925000000635,
          "durationTicks": 96,
          "midi": 60,
          "name": "C4",
          "ticks": 76128,
          "time": 69.56136525,
          "velocity": 0.5275590551181102
        },
        {
          "duration": 0.08771925000000635,
          "durationTicks": 96,
          "midi": 36,
          "name": "C2",
          "ticks": 76320,
          "time": 69.73680374999999,
          "velocity": 0.5275590551181102
        },
        {
          "duration": 0.08771924999999214,
          "durationTicks": 96,
          "midi": 62,
          "name": "D4",
          "ticks": 76512,
          "time": 69.91224225,
          "velocity": 0.5275590551181102
        },
        {
          "duration": 0.08771925000000635,
          "durationTicks": 96,
          "midi": 60,
          "name": "C4",
          "ticks": 76608,
          "time": 69.9999615,
          "velocity": 0.5275590551181102
        },
        {
          "duration": 0.08771924999999214,
          "durationTicks": 96,
          "midi": 58,
          "name": "A#3",
          "ticks": 76704,
          "time": 70.08768075,
          "velocity": 0.5275590551181102
        },
        {
          "duration": 0.08771924999999214,
          "durationTicks": 96,
          "midi": 36,
          "name": "C2",
          "ticks": 76704,
          "time": 70.08768075,
          "velocity": 0.5275590551181102
        },
        {
          "duration": 0.08771924999999214,
          "durationTicks": 96,
          "midi": 53,
          "name": "F3",
          "ticks": 77088,
          "time": 70.43855775,
          "velocity": 0.5275590551181102
        },
        {
          "duration": 0.08771924999999214,
          "durationTicks": 96,
          "midi": 38,
          "name": "D2",
          "ticks": 77088,
          "time": 70.43855775,
          "velocity": 0.5275590551181102
        },
        {
          "duration": 0.08771925000000635,
          "durationTicks": 96,
          "midi": 58,
          "name": "A#3",
          "ticks": 77472,
          "time": 70.78943475,
          "velocity": 0.5275590551181102
        },
        {
          "duration": 0.08771925000000635,
          "durationTicks": 96,
          "midi": 38,
          "name": "D2",
          "ticks": 77472,
          "time": 70.78943475,
          "velocity": 0.5275590551181102
        },
        {
          "duration": 0.08771925000000635,
          "durationTicks": 96,
          "midi": 38,
          "name": "D2",
          "ticks": 77856,
          "time": 71.14031175,
          "velocity": 0.5275590551181102
        },
        {
          "duration": 0.08771925000000635,
          "durationTicks": 96,
          "midi": 60,
          "name": "C4",
          "ticks": 77856,
          "time": 71.14031175,
          "velocity": 0.5275590551181102
        },
        {
          "duration": 0.08771925000000635,
          "durationTicks": 96,
          "midi": 63,
          "name": "D#4",
          "ticks": 78048,
          "time": 71.31575025,
          "velocity": 0.5275590551181102
        },
        {
          "duration": 0.08771925000000635,
          "durationTicks": 96,
          "midi": 38,
          "name": "D2",
          "ticks": 78240,
          "time": 71.49118874999999,
          "velocity": 0.5275590551181102
        },
        {
          "duration": 0.08771924999999214,
          "durationTicks": 96,
          "midi": 62,
          "name": "D4",
          "ticks": 78432,
          "time": 71.66662725,
          "velocity": 0.5275590551181102
        },
        {
          "duration": 0.08771924999999214,
          "durationTicks": 96,
          "midi": 38,
          "name": "D2",
          "ticks": 78624,
          "time": 71.84206575,
          "velocity": 0.5275590551181102
        },
        {
          "duration": 0.08771924999999214,
          "durationTicks": 96,
          "midi": 63,
          "name": "D#4",
          "ticks": 78816,
          "time": 72.01750425,
          "velocity": 0.5275590551181102
        },
        {
          "duration": 0.08771925000000635,
          "durationTicks": 96,
          "midi": 62,
          "name": "D4",
          "ticks": 78912,
          "time": 72.1052235,
          "velocity": 0.5275590551181102
        },
        {
          "duration": 0.08771924999999214,
          "durationTicks": 96,
          "midi": 38,
          "name": "D2",
          "ticks": 79008,
          "time": 72.19294275,
          "velocity": 0.5275590551181102
        },
        {
          "duration": 0.08771925000000635,
          "durationTicks": 96,
          "midi": 58,
          "name": "A#3",
          "ticks": 79392,
          "time": 72.54381975,
          "velocity": 0.5275590551181102
        },
        {
          "duration": 0.08771925000000635,
          "durationTicks": 96,
          "midi": 38,
          "name": "D2",
          "ticks": 79392,
          "time": 72.54381975,
          "velocity": 0.5275590551181102
        },
        {
          "duration": 0.08771925000000635,
          "durationTicks": 96,
          "midi": 53,
          "name": "F3",
          "ticks": 79776,
          "time": 72.89469675,
          "velocity": 0.5275590551181102
        },
        {
          "duration": 0.08771925000000635,
          "durationTicks": 96,
          "midi": 38,
          "name": "D2",
          "ticks": 79776,
          "time": 72.89469675,
          "velocity": 0.5275590551181102
        },
        {
          "duration": 0.08771924999999214,
          "durationTicks": 96,
          "midi": 39,
          "name": "D#2",
          "ticks": 80160,
          "time": 73.24557375,
          "velocity": 0.5275590551181102
        },
        {
          "duration": 0.08771924999999214,
          "durationTicks": 96,
          "midi": 65,
          "name": "F4",
          "ticks": 80160,
          "time": 73.24557375,
          "velocity": 0.5275590551181102
        },
        {
          "duration": 0.08771924999999214,
          "durationTicks": 96,
          "midi": 58,
          "name": "A#3",
          "ticks": 80544,
          "time": 73.59645075,
          "velocity": 0.5275590551181102
        },
        {
          "duration": 0.08771924999999214,
          "durationTicks": 96,
          "midi": 39,
          "name": "D#2",
          "ticks": 80544,
          "time": 73.59645075,
          "velocity": 0.5275590551181102
        },
        {
          "duration": 0.08771925000000635,
          "durationTicks": 96,
          "midi": 39,
          "name": "D#2",
          "ticks": 80928,
          "time": 73.94732775,
          "velocity": 0.5275590551181102
        },
        {
          "duration": 0.08771925000000635,
          "durationTicks": 96,
          "midi": 60,
          "name": "C4",
          "ticks": 80928,
          "time": 73.94732775,
          "velocity": 0.5275590551181102
        },
        {
          "duration": 0.08771925000000635,
          "durationTicks": 96,
          "midi": 58,
          "name": "A#3",
          "ticks": 81312,
          "time": 74.29820475,
          "velocity": 0.5275590551181102
        },
        {
          "duration": 0.08771925000000635,
          "durationTicks": 96,
          "midi": 39,
          "name": "D#2",
          "ticks": 81312,
          "time": 74.29820475,
          "velocity": 0.5275590551181102
        },
        {
          "duration": 0.08771925000000635,
          "durationTicks": 96,
          "midi": 39,
          "name": "D#2",
          "ticks": 81696,
          "time": 74.64908175,
          "velocity": 0.5275590551181102
        },
        {
          "duration": 0.08771925000000635,
          "durationTicks": 96,
          "midi": 53,
          "name": "F3",
          "ticks": 81696,
          "time": 74.64908175,
          "velocity": 0.5275590551181102
        },
        {
          "duration": 0.08771925000000635,
          "durationTicks": 96,
          "midi": 58,
          "name": "A#3",
          "ticks": 81888,
          "time": 74.82452024999999,
          "velocity": 0.5275590551181102
        },
        {
          "duration": 0.08771924999999214,
          "durationTicks": 96,
          "midi": 39,
          "name": "D#2",
          "ticks": 82080,
          "time": 74.99995875,
          "velocity": 0.5275590551181102
        },
        {
          "duration": 0.08771924999999214,
          "durationTicks": 96,
          "midi": 60,
          "name": "C4",
          "ticks": 82272,
          "time": 75.17539725,
          "velocity": 0.5275590551181102
        },
        {
          "duration": 0.08771924999999214,
          "durationTicks": 96,
          "midi": 39,
          "name": "D#2",
          "ticks": 82464,
          "time": 75.35083575,
          "velocity": 0.5275590551181102
        },
        {
          "duration": 0.08771924999999214,
          "durationTicks": 96,
          "midi": 62,
          "name": "D4",
          "ticks": 82656,
          "time": 75.52627425,
          "velocity": 0.5275590551181102
        },
        {
          "duration": 0.08771925000000635,
          "durationTicks": 96,
          "midi": 60,
          "name": "C4",
          "ticks": 82752,
          "time": 75.61399349999999,
          "velocity": 0.5275590551181102
        },
        {
          "duration": 0.08771925000000635,
          "durationTicks": 96,
          "midi": 58,
          "name": "A#3",
          "ticks": 82848,
          "time": 75.70171275,
          "velocity": 0.5275590551181102
        },
        {
          "duration": 0.08771925000000635,
          "durationTicks": 96,
          "midi": 39,
          "name": "D#2",
          "ticks": 82848,
          "time": 75.70171275,
          "velocity": 0.5275590551181102
        },
        {
          "duration": 0.08771925000000635,
          "durationTicks": 96,
          "midi": 41,
          "name": "F2",
          "ticks": 83232,
          "time": 76.05258975,
          "velocity": 0.5275590551181102
        },
        {
          "duration": 0.08771925000000635,
          "durationTicks": 96,
          "midi": 53,
          "name": "F3",
          "ticks": 83232,
          "time": 76.05258975,
          "velocity": 0.5275590551181102
        },
        {
          "duration": 0.08771925000000635,
          "durationTicks": 96,
          "midi": 58,
          "name": "A#3",
          "ticks": 83616,
          "time": 76.40346674999999,
          "velocity": 0.5275590551181102
        },
        {
          "duration": 0.08771925000000635,
          "durationTicks": 96,
          "midi": 41,
          "name": "F2",
          "ticks": 83616,
          "time": 76.40346674999999,
          "velocity": 0.5275590551181102
        },
        {
          "duration": 0.08771924999999214,
          "durationTicks": 96,
          "midi": 60,
          "name": "C4",
          "ticks": 84000,
          "time": 76.75434375,
          "velocity": 0.5275590551181102
        },
        {
          "duration": 0.08771924999999214,
          "durationTicks": 96,
          "midi": 41,
          "name": "F2",
          "ticks": 84000,
          "time": 76.75434375,
          "velocity": 0.5275590551181102
        },
        {
          "duration": 0.08771924999999214,
          "durationTicks": 96,
          "midi": 63,
          "name": "D#4",
          "ticks": 84192,
          "time": 76.92978225,
          "velocity": 0.5275590551181102
        },
        {
          "duration": 0.08771924999999214,
          "durationTicks": 96,
          "midi": 41,
          "name": "F2",
          "ticks": 84384,
          "time": 77.10522075,
          "velocity": 0.5275590551181102
        },
        {
          "duration": 0.08771925000000635,
          "durationTicks": 96,
          "midi": 62,
          "name": "D4",
          "ticks": 84576,
          "time": 77.28065925,
          "velocity": 0.5275590551181102
        },
        {
          "duration": 0.08771925000000635,
          "durationTicks": 96,
          "midi": 43,
          "name": "G2",
          "ticks": 84768,
          "time": 77.45609775,
          "velocity": 0.5275590551181102
        },
        {
          "duration": 0.08771925000000635,
          "durationTicks": 96,
          "midi": 63,
          "name": "D#4",
          "ticks": 84960,
          "time": 77.63153625,
          "velocity": 0.5275590551181102
        },
        {
          "duration": 0.08771924999999214,
          "durationTicks": 96,
          "midi": 62,
          "name": "D4",
          "ticks": 85056,
          "time": 77.7192555,
          "velocity": 0.5275590551181102
        },
        {
          "duration": 0.08771925000000635,
          "durationTicks": 96,
          "midi": 43,
          "name": "G2",
          "ticks": 85152,
          "time": 77.80697475,
          "velocity": 0.5275590551181102
        },
        {
          "duration": 0.08771925000000635,
          "durationTicks": 96,
          "midi": 58,
          "name": "A#3",
          "ticks": 85536,
          "time": 78.15785174999999,
          "velocity": 0.5275590551181102
        },
        {
          "duration": 0.08771925000000635,
          "durationTicks": 96,
          "midi": 43,
          "name": "G2",
          "ticks": 85536,
          "time": 78.15785174999999,
          "velocity": 0.5275590551181102
        },
        {
          "duration": 0.08771924999999214,
          "durationTicks": 96,
          "midi": 43,
          "name": "G2",
          "ticks": 85920,
          "time": 78.50872875,
          "velocity": 0.5275590551181102
        },
        {
          "duration": 0.08771924999999214,
          "durationTicks": 96,
          "midi": 53,
          "name": "F3",
          "ticks": 85920,
          "time": 78.50872875,
          "velocity": 0.5275590551181102
        },
        {
          "duration": 0.08771924999999214,
          "durationTicks": 96,
          "midi": 36,
          "name": "C2",
          "ticks": 86304,
          "time": 78.85960575,
          "velocity": 0.5275590551181102
        },
        {
          "duration": 0.08771924999999214,
          "durationTicks": 96,
          "midi": 65,
          "name": "F4",
          "ticks": 86304,
          "time": 78.85960575,
          "velocity": 0.5275590551181102
        },
        {
          "duration": 0.08771925000000635,
          "durationTicks": 96,
          "midi": 36,
          "name": "C2",
          "ticks": 86688,
          "time": 79.21048275,
          "velocity": 0.5275590551181102
        },
        {
          "duration": 0.08771925000000635,
          "durationTicks": 96,
          "midi": 58,
          "name": "A#3",
          "ticks": 86688,
          "time": 79.21048275,
          "velocity": 0.5275590551181102
        },
        {
          "duration": 0.08771925000000635,
          "durationTicks": 96,
          "midi": 36,
          "name": "C2",
          "ticks": 87072,
          "time": 79.56135975,
          "velocity": 0.5275590551181102
        },
        {
          "duration": 0.08771925000000635,
          "durationTicks": 96,
          "midi": 60,
          "name": "C4",
          "ticks": 87072,
          "time": 79.56135975,
          "velocity": 0.5275590551181102
        },
        {
          "duration": 0.08771924999999214,
          "durationTicks": 96,
          "midi": 36,
          "name": "C2",
          "ticks": 87456,
          "time": 79.91223675,
          "velocity": 0.5275590551181102
        },
        {
          "duration": 0.08771924999999214,
          "durationTicks": 96,
          "midi": 58,
          "name": "A#3",
          "ticks": 87456,
          "time": 79.91223675,
          "velocity": 0.5275590551181102
        },
        {
          "duration": 0.08771924999999214,
          "durationTicks": 96,
          "midi": 36,
          "name": "C2",
          "ticks": 87840,
          "time": 80.26311375,
          "velocity": 0.5275590551181102
        },
        {
          "duration": 0.08771924999999214,
          "durationTicks": 96,
          "midi": 53,
          "name": "F3",
          "ticks": 87840,
          "time": 80.26311375,
          "velocity": 0.5275590551181102
        },
        {
          "duration": 0.08771924999999214,
          "durationTicks": 96,
          "midi": 58,
          "name": "A#3",
          "ticks": 88032,
          "time": 80.43855225,
          "velocity": 0.5275590551181102
        },
        {
          "duration": 0.08771925000000635,
          "durationTicks": 96,
          "midi": 36,
          "name": "C2",
          "ticks": 88224,
          "time": 80.61399075,
          "velocity": 0.5275590551181102
        },
        {
          "duration": 0.08771925000000635,
          "durationTicks": 96,
          "midi": 60,
          "name": "C4",
          "ticks": 88416,
          "time": 80.78942925,
          "velocity": 0.5275590551181102
        },
        {
          "duration": 0.08771925000000635,
          "durationTicks": 96,
          "midi": 36,
          "name": "C2",
          "ticks": 88608,
          "time": 80.96486775,
          "velocity": 0.5275590551181102
        },
        {
          "duration": 0.08771925000000635,
          "durationTicks": 96,
          "midi": 62,
          "name": "D4",
          "ticks": 88800,
          "time": 81.14030625,
          "velocity": 0.5275590551181102
        },
        {
          "duration": 0.08771924999999214,
          "durationTicks": 96,
          "midi": 60,
          "name": "C4",
          "ticks": 88896,
          "time": 81.2280255,
          "velocity": 0.5275590551181102
        },
        {
          "duration": 0.08771925000000635,
          "durationTicks": 96,
          "midi": 36,
          "name": "C2",
          "ticks": 88992,
          "time": 81.31574475,
          "velocity": 0.5275590551181102
        },
        {
          "duration": 0.08771925000000635,
          "durationTicks": 96,
          "midi": 58,
          "name": "A#3",
          "ticks": 88992,
          "time": 81.31574475,
          "velocity": 0.5275590551181102
        },
        {
          "duration": 0.08771924999999214,
          "durationTicks": 96,
          "midi": 38,
          "name": "D2",
          "ticks": 89376,
          "time": 81.66662175,
          "velocity": 0.5275590551181102
        },
        {
          "duration": 0.08771924999999214,
          "durationTicks": 96,
          "midi": 53,
          "name": "F3",
          "ticks": 89376,
          "time": 81.66662175,
          "velocity": 0.5275590551181102
        },
        {
          "duration": 0.08771924999999214,
          "durationTicks": 96,
          "midi": 58,
          "name": "A#3",
          "ticks": 89760,
          "time": 82.01749875,
          "velocity": 0.5275590551181102
        },
        {
          "duration": 0.08771924999999214,
          "durationTicks": 96,
          "midi": 38,
          "name": "D2",
          "ticks": 89760,
          "time": 82.01749875,
          "velocity": 0.5275590551181102
        },
        {
          "duration": 0.08771925000000635,
          "durationTicks": 96,
          "midi": 38,
          "name": "D2",
          "ticks": 90144,
          "time": 82.36837575,
          "velocity": 0.5275590551181102
        },
        {
          "duration": 0.08771925000000635,
          "durationTicks": 96,
          "midi": 60,
          "name": "C4",
          "ticks": 90144,
          "time": 82.36837575,
          "velocity": 0.5275590551181102
        },
        {
          "duration": 0.08771925000000635,
          "durationTicks": 96,
          "midi": 63,
          "name": "D#4",
          "ticks": 90336,
          "time": 82.54381425,
          "velocity": 0.5275590551181102
        },
        {
          "duration": 0.08771925000000635,
          "durationTicks": 96,
          "midi": 38,
          "name": "D2",
          "ticks": 90528,
          "time": 82.71925275,
          "velocity": 0.5275590551181102
        },
        {
          "duration": 0.08771925000000635,
          "durationTicks": 96,
          "midi": 62,
          "name": "D4",
          "ticks": 90720,
          "time": 82.89469125,
          "velocity": 0.5275590551181102
        },
        {
          "duration": 0.08771925000000635,
          "durationTicks": 96,
          "midi": 38,
          "name": "D2",
          "ticks": 90912,
          "time": 83.07012974999999,
          "velocity": 0.5275590551181102
        },
        {
          "duration": 0.08771924999999214,
          "durationTicks": 96,
          "midi": 63,
          "name": "D#4",
          "ticks": 91104,
          "time": 83.24556825,
          "velocity": 0.5275590551181102
        },
        {
          "duration": 0.08771925000000635,
          "durationTicks": 96,
          "midi": 62,
          "name": "D4",
          "ticks": 91200,
          "time": 83.3332875,
          "velocity": 0.5275590551181102
        },
        {
          "duration": 0.08771924999999214,
          "durationTicks": 96,
          "midi": 60,
          "name": "C4",
          "ticks": 91296,
          "time": 83.42100675,
          "velocity": 0.5275590551181102
        },
        {
          "duration": 0.08771924999999214,
          "durationTicks": 96,
          "midi": 38,
          "name": "D2",
          "ticks": 91296,
          "time": 83.42100675,
          "velocity": 0.5275590551181102
        },
        {
          "duration": 0.08771924999999214,
          "durationTicks": 96,
          "midi": 58,
          "name": "A#3",
          "ticks": 91680,
          "time": 83.77188375,
          "velocity": 0.5275590551181102
        },
        {
          "duration": 0.08771924999999214,
          "durationTicks": 96,
          "midi": 38,
          "name": "D2",
          "ticks": 91680,
          "time": 83.77188375,
          "velocity": 0.5275590551181102
        },
        {
          "duration": 0.08771925000000635,
          "durationTicks": 96,
          "midi": 53,
          "name": "F3",
          "ticks": 92064,
          "time": 84.12276075,
          "velocity": 0.5275590551181102
        },
        {
          "duration": 0.08771925000000635,
          "durationTicks": 96,
          "midi": 38,
          "name": "D2",
          "ticks": 92064,
          "time": 84.12276075,
          "velocity": 0.5275590551181102
        },
        {
          "duration": 0.08771925000000635,
          "durationTicks": 96,
          "midi": 39,
          "name": "D#2",
          "ticks": 92448,
          "time": 84.47363775,
          "velocity": 0.5275590551181102
        },
        {
          "duration": 0.08771925000000635,
          "durationTicks": 96,
          "midi": 65,
          "name": "F4",
          "ticks": 92448,
          "time": 84.47363775,
          "velocity": 0.5275590551181102
        },
        {
          "duration": 0.08771925000000635,
          "durationTicks": 96,
          "midi": 58,
          "name": "A#3",
          "ticks": 92832,
          "time": 84.82451474999999,
          "velocity": 0.5275590551181102
        },
        {
          "duration": 0.08771925000000635,
          "durationTicks": 96,
          "midi": 39,
          "name": "D#2",
          "ticks": 92832,
          "time": 84.82451474999999,
          "velocity": 0.5275590551181102
        },
        {
          "duration": 0.08771924999999214,
          "durationTicks": 96,
          "midi": 60,
          "name": "C4",
          "ticks": 93216,
          "time": 85.17539175,
          "velocity": 0.5275590551181102
        },
        {
          "duration": 0.08771924999999214,
          "durationTicks": 96,
          "midi": 39,
          "name": "D#2",
          "ticks": 93216,
          "time": 85.17539175,
          "velocity": 0.5275590551181102
        },
        {
          "duration": 0.08771924999999214,
          "durationTicks": 96,
          "midi": 39,
          "name": "D#2",
          "ticks": 93600,
          "time": 85.52626875,
          "velocity": 0.5275590551181102
        },
        {
          "duration": 0.08771924999999214,
          "durationTicks": 96,
          "midi": 58,
          "name": "A#3",
          "ticks": 93600,
          "time": 85.52626875,
          "velocity": 0.5275590551181102
        },
        {
          "duration": 0.08771925000000635,
          "durationTicks": 96,
          "midi": 53,
          "name": "F3",
          "ticks": 93984,
          "time": 85.87714575,
          "velocity": 0.5275590551181102
        },
        {
          "duration": 0.08771925000000635,
          "durationTicks": 96,
          "midi": 39,
          "name": "D#2",
          "ticks": 93984,
          "time": 85.87714575,
          "velocity": 0.5275590551181102
        },
        {
          "duration": 0.08771925000000635,
          "durationTicks": 96,
          "midi": 58,
          "name": "A#3",
          "ticks": 94176,
          "time": 86.05258425,
          "velocity": 0.5275590551181102
        },
        {
          "duration": 0.08771925000000635,
          "durationTicks": 96,
          "midi": 39,
          "name": "D#2",
          "ticks": 94368,
          "time": 86.22802275,
          "velocity": 0.5275590551181102
        },
        {
          "duration": 0.08771925000000635,
          "durationTicks": 96,
          "midi": 60,
          "name": "C4",
          "ticks": 94560,
          "time": 86.40346124999999,
          "velocity": 0.5275590551181102
        },
        {
          "duration": 0.08771924999999214,
          "durationTicks": 96,
          "midi": 39,
          "name": "D#2",
          "ticks": 94752,
          "time": 86.57889975,
          "velocity": 0.5275590551181102
        },
        {
          "duration": 0.08771924999999214,
          "durationTicks": 96,
          "midi": 62,
          "name": "D4",
          "ticks": 94944,
          "time": 86.75433825,
          "velocity": 0.5275590551181102
        },
        {
          "duration": 0.08771925000000635,
          "durationTicks": 96,
          "midi": 60,
          "name": "C4",
          "ticks": 95040,
          "time": 86.8420575,
          "velocity": 0.5275590551181102
        },
        {
          "duration": 0.08771924999999214,
          "durationTicks": 96,
          "midi": 58,
          "name": "A#3",
          "ticks": 95136,
          "time": 86.92977675,
          "velocity": 0.5275590551181102
        },
        {
          "duration": 0.08771924999999214,
          "durationTicks": 96,
          "midi": 39,
          "name": "D#2",
          "ticks": 95136,
          "time": 86.92977675,
          "velocity": 0.5275590551181102
        },
        {
          "duration": 0.08771925000000635,
          "durationTicks": 96,
          "midi": 53,
          "name": "F3",
          "ticks": 95520,
          "time": 87.28065375,
          "velocity": 0.5275590551181102
        },
        {
          "duration": 0.08771925000000635,
          "durationTicks": 96,
          "midi": 41,
          "name": "F2",
          "ticks": 95520,
          "time": 87.28065375,
          "velocity": 0.5275590551181102
        },
        {
          "duration": 0.08771925000000635,
          "durationTicks": 96,
          "midi": 41,
          "name": "F2",
          "ticks": 95904,
          "time": 87.63153075,
          "velocity": 0.5275590551181102
        },
        {
          "duration": 0.08771925000000635,
          "durationTicks": 96,
          "midi": 58,
          "name": "A#3",
          "ticks": 95904,
          "time": 87.63153075,
          "velocity": 0.5275590551181102
        },
        {
          "duration": 0.08771925000000635,
          "durationTicks": 96,
          "midi": 41,
          "name": "F2",
          "ticks": 96288,
          "time": 87.98240775,
          "velocity": 0.5275590551181102
        },
        {
          "duration": 0.08771925000000635,
          "durationTicks": 96,
          "midi": 60,
          "name": "C4",
          "ticks": 96288,
          "time": 87.98240775,
          "velocity": 0.5275590551181102
        },
        {
          "duration": 0.08771925000000635,
          "durationTicks": 96,
          "midi": 63,
          "name": "D#4",
          "ticks": 96480,
          "time": 88.15784624999999,
          "velocity": 0.5275590551181102
        },
        {
          "duration": 0.08771924999999214,
          "durationTicks": 96,
          "midi": 41,
          "name": "F2",
          "ticks": 96672,
          "time": 88.33328475,
          "velocity": 0.5275590551181102
        },
        {
          "duration": 0.08771924999999214,
          "durationTicks": 96,
          "midi": 62,
          "name": "D4",
          "ticks": 96864,
          "time": 88.50872325,
          "velocity": 0.5275590551181102
        },
        {
          "duration": 0.08771924999999214,
          "durationTicks": 96,
          "midi": 43,
          "name": "G2",
          "ticks": 97056,
          "time": 88.68416175,
          "velocity": 0.5275590551181102
        },
        {
          "duration": 0.08771924999999214,
          "durationTicks": 96,
          "midi": 63,
          "name": "D#4",
          "ticks": 97248,
          "time": 88.85960025,
          "velocity": 0.5275590551181102
        },
        {
          "duration": 0.08771925000000635,
          "durationTicks": 96,
          "midi": 62,
          "name": "D4",
          "ticks": 97344,
          "time": 88.94731949999999,
          "velocity": 0.5275590551181102
        },
        {
          "duration": 0.08771925000000635,
          "durationTicks": 96,
          "midi": 43,
          "name": "G2",
          "ticks": 97440,
          "time": 89.03503875,
          "velocity": 0.5275590551181102
        },
        {
          "duration": 0.08771925000000635,
          "durationTicks": 96,
          "midi": 60,
          "name": "C4",
          "ticks": 97440,
          "time": 89.03503875,
          "velocity": 0.5275590551181102
        },
        {
          "duration": 0.08771925000000635,
          "durationTicks": 96,
          "midi": 43,
          "name": "G2",
          "ticks": 97824,
          "time": 89.38591575,
          "velocity": 0.5275590551181102
        },
        {
          "duration": 0.08771925000000635,
          "durationTicks": 96,
          "midi": 58,
          "name": "A#3",
          "ticks": 97824,
          "time": 89.38591575,
          "velocity": 0.5275590551181102
        },
        {
          "duration": 0.08771925000000635,
          "durationTicks": 96,
          "midi": 43,
          "name": "G2",
          "ticks": 98208,
          "time": 89.73679274999999,
          "velocity": 0.5275590551181102
        },
        {
          "duration": 0.08771925000000635,
          "durationTicks": 96,
          "midi": 53,
          "name": "F3",
          "ticks": 98208,
          "time": 89.73679274999999,
          "velocity": 0.5275590551181102
        },
        {
          "duration": 0.08771924999999214,
          "durationTicks": 96,
          "midi": 36,
          "name": "C2",
          "ticks": 98592,
          "time": 90.08766975,
          "velocity": 0.5275590551181102
        },
        {
          "duration": 0.08771924999999214,
          "durationTicks": 96,
          "midi": 36,
          "name": "C2",
          "ticks": 98976,
          "time": 90.43854675,
          "velocity": 0.5275590551181102
        },
        {
          "duration": 0.08771925000000635,
          "durationTicks": 96,
          "midi": 36,
          "name": "C2",
          "ticks": 99360,
          "time": 90.78942375,
          "velocity": 0.5275590551181102
        },
        {
          "duration": 0.08771925000000635,
          "durationTicks": 96,
          "midi": 36,
          "name": "C2",
          "ticks": 99744,
          "time": 91.14030075,
          "velocity": 0.5275590551181102
        },
        {
          "duration": 0.08771924999999214,
          "durationTicks": 96,
          "midi": 36,
          "name": "C2",
          "ticks": 100128,
          "time": 91.49117775,
          "velocity": 0.5275590551181102
        },
        {
          "duration": 0.08771924999999214,
          "durationTicks": 96,
          "midi": 36,
          "name": "C2",
          "ticks": 100512,
          "time": 91.84205475,
          "velocity": 0.5275590551181102
        },
        {
          "duration": 0.08771924999999214,
          "durationTicks": 96,
          "midi": 36,
          "name": "C2",
          "ticks": 100896,
          "time": 92.19293175,
          "velocity": 0.5275590551181102
        },
        {
          "duration": 0.08771925000000635,
          "durationTicks": 96,
          "midi": 36,
          "name": "C2",
          "ticks": 101280,
          "time": 92.54380875,
          "velocity": 0.5275590551181102
        },
        {
          "duration": 0.08771925000000635,
          "durationTicks": 96,
          "midi": 38,
          "name": "D2",
          "ticks": 101664,
          "time": 92.89468575,
          "velocity": 0.5275590551181102
        },
        {
          "duration": 0.08771924999999214,
          "durationTicks": 96,
          "midi": 38,
          "name": "D2",
          "ticks": 102048,
          "time": 93.24556275,
          "velocity": 0.5275590551181102
        },
        {
          "duration": 0.08771924999999214,
          "durationTicks": 96,
          "midi": 38,
          "name": "D2",
          "ticks": 102432,
          "time": 93.59643975,
          "velocity": 0.5275590551181102
        },
        {
          "duration": 0.08771925000000635,
          "durationTicks": 96,
          "midi": 38,
          "name": "D2",
          "ticks": 102816,
          "time": 93.94731675,
          "velocity": 0.5275590551181102
        },
        {
          "duration": 0.08771925000000635,
          "durationTicks": 96,
          "midi": 38,
          "name": "D2",
          "ticks": 103200,
          "time": 94.29819375,
          "velocity": 0.5275590551181102
        },
        {
          "duration": 0.08771925000000635,
          "durationTicks": 96,
          "midi": 38,
          "name": "D2",
          "ticks": 103584,
          "time": 94.64907074999999,
          "velocity": 0.5275590551181102
        },
        {
          "duration": 0.08771924999999214,
          "durationTicks": 96,
          "midi": 38,
          "name": "D2",
          "ticks": 103968,
          "time": 94.99994775,
          "velocity": 0.5275590551181102
        },
        {
          "duration": 0.08771924999999214,
          "durationTicks": 96,
          "midi": 38,
          "name": "D2",
          "ticks": 104352,
          "time": 95.35082475,
          "velocity": 0.5275590551181102
        },
        {
          "duration": 0.08771925000000635,
          "durationTicks": 96,
          "midi": 39,
          "name": "D#2",
          "ticks": 104736,
          "time": 95.70170175,
          "velocity": 0.5275590551181102
        },
        {
          "duration": 0.08771925000000635,
          "durationTicks": 96,
          "midi": 39,
          "name": "D#2",
          "ticks": 105120,
          "time": 96.05257875,
          "velocity": 0.5275590551181102
        },
        {
          "duration": 0.08771925000000635,
          "durationTicks": 96,
          "midi": 39,
          "name": "D#2",
          "ticks": 105504,
          "time": 96.40345574999999,
          "velocity": 0.5275590551181102
        },
        {
          "duration": 0.08771924999999214,
          "durationTicks": 96,
          "midi": 39,
          "name": "D#2",
          "ticks": 105888,
          "time": 96.75433275,
          "velocity": 0.5275590551181102
        },
        {
          "duration": 0.08771924999999214,
          "durationTicks": 96,
          "midi": 39,
          "name": "D#2",
          "ticks": 106272,
          "time": 97.10520975,
          "velocity": 0.5275590551181102
        },
        {
          "duration": 0.08771925000000635,
          "durationTicks": 96,
          "midi": 39,
          "name": "D#2",
          "ticks": 106656,
          "time": 97.45608675,
          "velocity": 0.5275590551181102
        },
        {
          "duration": 0.08771925000000635,
          "durationTicks": 96,
          "midi": 39,
          "name": "D#2",
          "ticks": 107040,
          "time": 97.80696375,
          "velocity": 0.5275590551181102
        },
        {
          "duration": 0.08771924999999214,
          "durationTicks": 96,
          "midi": 39,
          "name": "D#2",
          "ticks": 107424,
          "time": 98.15784075,
          "velocity": 0.5275590551181102
        },
        {
          "duration": 0.08771924999999214,
          "durationTicks": 96,
          "midi": 41,
          "name": "F2",
          "ticks": 107808,
          "time": 98.50871775,
          "velocity": 0.5275590551181102
        },
        {
          "duration": 0.08771924999999214,
          "durationTicks": 96,
          "midi": 41,
          "name": "F2",
          "ticks": 108192,
          "time": 98.85959475,
          "velocity": 0.5275590551181102
        },
        {
          "duration": 0.08771925000000635,
          "durationTicks": 96,
          "midi": 41,
          "name": "F2",
          "ticks": 108576,
          "time": 99.21047175,
          "velocity": 0.5275590551181102
        },
        {
          "duration": 0.08771925000000635,
          "durationTicks": 96,
          "midi": 41,
          "name": "F2",
          "ticks": 108960,
          "time": 99.56134875,
          "velocity": 0.5275590551181102
        },
        {
          "duration": 0.08771924999999214,
          "durationTicks": 96,
          "midi": 43,
          "name": "G2",
          "ticks": 109344,
          "time": 99.91222575,
          "velocity": 0.5275590551181102
        },
        {
          "duration": 0.08771924999999214,
          "durationTicks": 96,
          "midi": 43,
          "name": "G2",
          "ticks": 109728,
          "time": 100.26310275,
          "velocity": 0.5275590551181102
        },
        {
          "duration": 0.08771925000000635,
          "durationTicks": 96,
          "midi": 43,
          "name": "G2",
          "ticks": 110112,
          "time": 100.61397975,
          "velocity": 0.5275590551181102
        },
        {
          "duration": 0.08771925000000635,
          "durationTicks": 96,
          "midi": 43,
          "name": "G2",
          "ticks": 110496,
          "time": 100.96485675,
          "velocity": 0.5275590551181102
        },
        {
          "duration": 0.08771925000000635,
          "durationTicks": 96,
          "midi": 36,
          "name": "C2",
          "ticks": 110880,
          "time": 101.31573374999999,
          "velocity": 0.5275590551181102
        },
        {
          "duration": 0.08771924999999214,
          "durationTicks": 96,
          "midi": 36,
          "name": "C2",
          "ticks": 111264,
          "time": 101.66661075,
          "velocity": 0.5275590551181102
        },
        {
          "duration": 0.08771924999999214,
          "durationTicks": 96,
          "midi": 36,
          "name": "C2",
          "ticks": 111648,
          "time": 102.01748775,
          "velocity": 0.5275590551181102
        },
        {
          "duration": 0.08771925000000635,
          "durationTicks": 96,
          "midi": 36,
          "name": "C2",
          "ticks": 112032,
          "time": 102.36836475,
          "velocity": 0.5275590551181102
        },
        {
          "duration": 0.08771925000000635,
          "durationTicks": 96,
          "midi": 36,
          "name": "C2",
          "ticks": 112416,
          "time": 102.71924175,
          "velocity": 0.5275590551181102
        },
        {
          "duration": 0.08771925000000635,
          "durationTicks": 96,
          "midi": 36,
          "name": "C2",
          "ticks": 112800,
          "time": 103.07011874999999,
          "velocity": 0.5275590551181102
        },
        {
          "duration": 0.08771924999999214,
          "durationTicks": 96,
          "midi": 36,
          "name": "C2",
          "ticks": 113184,
          "time": 103.42099575,
          "velocity": 0.5275590551181102
        },
        {
          "duration": 0.08771924999999214,
          "durationTicks": 96,
          "midi": 36,
          "name": "C2",
          "ticks": 113568,
          "time": 103.77187275,
          "velocity": 0.5275590551181102
        },
        {
          "duration": 0.08771925000000635,
          "durationTicks": 96,
          "midi": 38,
          "name": "D2",
          "ticks": 113952,
          "time": 104.12274975,
          "velocity": 0.5275590551181102
        },
        {
          "duration": 0.08771925000000635,
          "durationTicks": 96,
          "midi": 38,
          "name": "D2",
          "ticks": 114336,
          "time": 104.47362675,
          "velocity": 0.5275590551181102
        },
        {
          "duration": 0.08771924999999214,
          "durationTicks": 96,
          "midi": 38,
          "name": "D2",
          "ticks": 114720,
          "time": 104.82450375,
          "velocity": 0.5275590551181102
        },
        {
          "duration": 0.08771924999999214,
          "durationTicks": 96,
          "midi": 38,
          "name": "D2",
          "ticks": 115104,
          "time": 105.17538075,
          "velocity": 0.5275590551181102
        },
        {
          "duration": 0.08771924999999214,
          "durationTicks": 96,
          "midi": 38,
          "name": "D2",
          "ticks": 115488,
          "time": 105.52625775,
          "velocity": 0.5275590551181102
        },
        {
          "duration": 0.08771925000000635,
          "durationTicks": 96,
          "midi": 38,
          "name": "D2",
          "ticks": 115872,
          "time": 105.87713475,
          "velocity": 0.5275590551181102
        },
        {
          "duration": 0.08771925000000635,
          "durationTicks": 96,
          "midi": 38,
          "name": "D2",
          "ticks": 116256,
          "time": 106.22801175,
          "velocity": 0.5275590551181102
        },
        {
          "duration": 0.08771924999999214,
          "durationTicks": 96,
          "midi": 38,
          "name": "D2",
          "ticks": 116640,
          "time": 106.57888875,
          "velocity": 0.5275590551181102
        },
        {
          "duration": 0.08771924999999214,
          "durationTicks": 96,
          "midi": 39,
          "name": "D#2",
          "ticks": 117024,
          "time": 106.92976575,
          "velocity": 0.5275590551181102
        },
        {
          "duration": 0.08771925000000635,
          "durationTicks": 96,
          "midi": 39,
          "name": "D#2",
          "ticks": 117408,
          "time": 107.28064275,
          "velocity": 0.5275590551181102
        },
        {
          "duration": 0.08771925000000635,
          "durationTicks": 96,
          "midi": 39,
          "name": "D#2",
          "ticks": 117792,
          "time": 107.63151975,
          "velocity": 0.5275590551181102
        },
        {
          "duration": 0.08771925000000635,
          "durationTicks": 96,
          "midi": 39,
          "name": "D#2",
          "ticks": 118176,
          "time": 107.98239674999999,
          "velocity": 0.5275590551181102
        },
        {
          "duration": 0.08771924999999214,
          "durationTicks": 96,
          "midi": 39,
          "name": "D#2",
          "ticks": 118560,
          "time": 108.33327375,
          "velocity": 0.5275590551181102
        },
        {
          "duration": 0.08771924999999214,
          "durationTicks": 96,
          "midi": 39,
          "name": "D#2",
          "ticks": 118944,
          "time": 108.68415075,
          "velocity": 0.5275590551181102
        },
        {
          "duration": 0.08771925000000635,
          "durationTicks": 96,
          "midi": 39,
          "name": "D#2",
          "ticks": 119328,
          "time": 109.03502775,
          "velocity": 0.5275590551181102
        },
        {
          "duration": 0.08771925000000635,
          "durationTicks": 96,
          "midi": 39,
          "name": "D#2",
          "ticks": 119712,
          "time": 109.38590475,
          "velocity": 0.5275590551181102
        },
        {
          "duration": 0.08771925000000635,
          "durationTicks": 96,
          "midi": 41,
          "name": "F2",
          "ticks": 120096,
          "time": 109.73678174999999,
          "velocity": 0.5275590551181102
        },
        {
          "duration": 0.08771924999999214,
          "durationTicks": 96,
          "midi": 41,
          "name": "F2",
          "ticks": 120480,
          "time": 110.08765875,
          "velocity": 0.5275590551181102
        },
        {
          "duration": 0.08771924999999214,
          "durationTicks": 96,
          "midi": 41,
          "name": "F2",
          "ticks": 120864,
          "time": 110.43853575,
          "velocity": 0.5275590551181102
        },
        {
          "duration": 0.08771925000000635,
          "durationTicks": 96,
          "midi": 41,
          "name": "F2",
          "ticks": 121248,
          "time": 110.78941275,
          "velocity": 0.5275590551181102
        },
        {
          "duration": 0.08771925000000635,
          "durationTicks": 96,
          "midi": 43,
          "name": "G2",
          "ticks": 121632,
          "time": 111.14028975,
          "velocity": 0.5275590551181102
        },
        {
          "duration": 0.08771924999999214,
          "durationTicks": 96,
          "midi": 43,
          "name": "G2",
          "ticks": 122016,
          "time": 111.49116675,
          "velocity": 0.5275590551181102
        },
        {
          "duration": 0.08771924999999214,
          "durationTicks": 96,
          "midi": 43,
          "name": "G2",
          "ticks": 122400,
          "time": 111.84204375,
          "velocity": 0.5275590551181102
        },
        {
          "duration": 0.08771925000000635,
          "durationTicks": 96,
          "midi": 43,
          "name": "G2",
          "ticks": 122784,
          "time": 112.19292075,
          "velocity": 0.5275590551181102
        },
        {
          "duration": 0.08771925000000635,
          "durationTicks": 96,
          "midi": 65,
          "name": "F4",
          "ticks": 123168,
          "time": 112.54379775,
          "velocity": 0.5275590551181102
        },
        {
          "duration": 0.08771925000000635,
          "durationTicks": 96,
          "midi": 36,
          "name": "C2",
          "ticks": 123168,
          "time": 112.54379775,
          "velocity": 0.5275590551181102
        },
        {
          "duration": 0.08771925000000635,
          "durationTicks": 96,
          "midi": 58,
          "name": "A#3",
          "ticks": 123552,
          "time": 112.89467475,
          "velocity": 0.5275590551181102
        },
        {
          "duration": 0.08771925000000635,
          "durationTicks": 96,
          "midi": 36,
          "name": "C2",
          "ticks": 123552,
          "time": 112.89467475,
          "velocity": 0.5275590551181102
        },
        {
          "duration": 0.08771924999999214,
          "durationTicks": 96,
          "midi": 36,
          "name": "C2",
          "ticks": 123936,
          "time": 113.24555175,
          "velocity": 0.5275590551181102
        },
        {
          "duration": 0.08771924999999214,
          "durationTicks": 96,
          "midi": 60,
          "name": "C4",
          "ticks": 123936,
          "time": 113.24555175,
          "velocity": 0.5275590551181102
        },
        {
          "duration": 0.08771924999999214,
          "durationTicks": 96,
          "midi": 58,
          "name": "A#3",
          "ticks": 124320,
          "time": 113.59642875,
          "velocity": 0.5275590551181102
        },
        {
          "duration": 0.08771924999999214,
          "durationTicks": 96,
          "midi": 36,
          "name": "C2",
          "ticks": 124320,
          "time": 113.59642875,
          "velocity": 0.5275590551181102
        },
        {
          "duration": 0.08771925000000635,
          "durationTicks": 96,
          "midi": 53,
          "name": "F3",
          "ticks": 124704,
          "time": 113.94730575,
          "velocity": 0.5275590551181102
        },
        {
          "duration": 0.08771925000000635,
          "durationTicks": 96,
          "midi": 36,
          "name": "C2",
          "ticks": 124704,
          "time": 113.94730575,
          "velocity": 0.5275590551181102
        },
        {
          "duration": 0.08771925000000635,
          "durationTicks": 96,
          "midi": 58,
          "name": "A#3",
          "ticks": 124896,
          "time": 114.12274425,
          "velocity": 0.5275590551181102
        },
        {
          "duration": 0.08771925000000635,
          "durationTicks": 96,
          "midi": 36,
          "name": "C2",
          "ticks": 125088,
          "time": 114.29818275,
          "velocity": 0.5275590551181102
        },
        {
          "duration": 0.08771925000000635,
          "durationTicks": 96,
          "midi": 60,
          "name": "C4",
          "ticks": 125280,
          "time": 114.47362125,
          "velocity": 0.5275590551181102
        },
        {
          "duration": 0.08771925000000635,
          "durationTicks": 96,
          "midi": 36,
          "name": "C2",
          "ticks": 125472,
          "time": 114.64905974999999,
          "velocity": 0.5275590551181102
        },
        {
          "duration": 0.08771924999999214,
          "durationTicks": 96,
          "midi": 62,
          "name": "D4",
          "ticks": 125664,
          "time": 114.82449825,
          "velocity": 0.5275590551181102
        },
        {
          "duration": 0.08771925000000635,
          "durationTicks": 96,
          "midi": 60,
          "name": "C4",
          "ticks": 125760,
          "time": 114.9122175,
          "velocity": 0.5275590551181102
        },
        {
          "duration": 0.08771924999999214,
          "durationTicks": 96,
          "midi": 58,
          "name": "A#3",
          "ticks": 125856,
          "time": 114.99993675,
          "velocity": 0.5275590551181102
        },
        {
          "duration": 0.08771924999999214,
          "durationTicks": 96,
          "midi": 36,
          "name": "C2",
          "ticks": 125856,
          "time": 114.99993675,
          "velocity": 0.5275590551181102
        },
        {
          "duration": 0.08771924999999214,
          "durationTicks": 96,
          "midi": 38,
          "name": "D2",
          "ticks": 126240,
          "time": 115.35081375,
          "velocity": 0.5275590551181102
        },
        {
          "duration": 0.08771924999999214,
          "durationTicks": 96,
          "midi": 53,
          "name": "F3",
          "ticks": 126240,
          "time": 115.35081375,
          "velocity": 0.5275590551181102
        },
        {
          "duration": 0.08771925000000635,
          "durationTicks": 96,
          "midi": 58,
          "name": "A#3",
          "ticks": 126624,
          "time": 115.70169075,
          "velocity": 0.5275590551181102
        },
        {
          "duration": 0.08771925000000635,
          "durationTicks": 96,
          "midi": 38,
          "name": "D2",
          "ticks": 126624,
          "time": 115.70169075,
          "velocity": 0.5275590551181102
        },
        {
          "duration": 0.08771925000000635,
          "durationTicks": 96,
          "midi": 38,
          "name": "D2",
          "ticks": 127008,
          "time": 116.05256775,
          "velocity": 0.5275590551181102
        },
        {
          "duration": 0.08771925000000635,
          "durationTicks": 96,
          "midi": 60,
          "name": "C4",
          "ticks": 127008,
          "time": 116.05256775,
          "velocity": 0.5275590551181102
        },
        {
          "duration": 0.08771925000000635,
          "durationTicks": 96,
          "midi": 63,
          "name": "D#4",
          "ticks": 127200,
          "time": 116.22800624999999,
          "velocity": 0.5275590551181102
        },
        {
          "duration": 0.08771925000000635,
          "durationTicks": 96,
          "midi": 38,
          "name": "D2",
          "ticks": 127392,
          "time": 116.40344474999999,
          "velocity": 0.5275590551181102
        },
        {
          "duration": 0.08771924999999214,
          "durationTicks": 96,
          "midi": 62,
          "name": "D4",
          "ticks": 127584,
          "time": 116.57888325,
          "velocity": 0.5275590551181102
        },
        {
          "duration": 0.08771924999999214,
          "durationTicks": 96,
          "midi": 38,
          "name": "D2",
          "ticks": 127776,
          "time": 116.75432175,
          "velocity": 0.5275590551181102
        },
        {
          "duration": 0.08771924999999214,
          "durationTicks": 96,
          "midi": 63,
          "name": "D#4",
          "ticks": 127968,
          "time": 116.92976025,
          "velocity": 0.5275590551181102
        },
        {
          "duration": 0.08771925000000635,
          "durationTicks": 96,
          "midi": 62,
          "name": "D4",
          "ticks": 128064,
          "time": 117.0174795,
          "velocity": 0.5275590551181102
        },
        {
          "duration": 0.08771924999999214,
          "durationTicks": 96,
          "midi": 38,
          "name": "D2",
          "ticks": 128160,
          "time": 117.10519875,
          "velocity": 0.5275590551181102
        },
        {
          "duration": 0.08771925000000635,
          "durationTicks": 96,
          "midi": 58,
          "name": "A#3",
          "ticks": 128544,
          "time": 117.45607575,
          "velocity": 0.5275590551181102
        },
        {
          "duration": 0.08771925000000635,
          "durationTicks": 96,
          "midi": 38,
          "name": "D2",
          "ticks": 128544,
          "time": 117.45607575,
          "velocity": 0.5275590551181102
        },
        {
          "duration": 0.08771925000000635,
          "durationTicks": 96,
          "midi": 53,
          "name": "F3",
          "ticks": 128928,
          "time": 117.80695275,
          "velocity": 0.5275590551181102
        },
        {
          "duration": 0.08771925000000635,
          "durationTicks": 96,
          "midi": 38,
          "name": "D2",
          "ticks": 128928,
          "time": 117.80695275,
          "velocity": 0.5275590551181102
        },
        {
          "duration": 0.08771924999999214,
          "durationTicks": 96,
          "midi": 39,
          "name": "D#2",
          "ticks": 129312,
          "time": 118.15782975,
          "velocity": 0.5275590551181102
        },
        {
          "duration": 0.08771924999999214,
          "durationTicks": 96,
          "midi": 65,
          "name": "F4",
          "ticks": 129312,
          "time": 118.15782975,
          "velocity": 0.5275590551181102
        },
        {
          "duration": 0.08771924999999214,
          "durationTicks": 96,
          "midi": 39,
          "name": "D#2",
          "ticks": 129696,
          "time": 118.50870675,
          "velocity": 0.5275590551181102
        },
        {
          "duration": 0.08771924999999214,
          "durationTicks": 96,
          "midi": 58,
          "name": "A#3",
          "ticks": 129696,
          "time": 118.50870675,
          "velocity": 0.5275590551181102
        },
        {
          "duration": 0.08771925000000635,
          "durationTicks": 96,
          "midi": 39,
          "name": "D#2",
          "ticks": 130080,
          "time": 118.85958375,
          "velocity": 0.5275590551181102
        },
        {
          "duration": 0.08771925000000635,
          "durationTicks": 96,
          "midi": 60,
          "name": "C4",
          "ticks": 130080,
          "time": 118.85958375,
          "velocity": 0.5275590551181102
        },
        {
          "duration": 0.08771925000000635,
          "durationTicks": 96,
          "midi": 58,
          "name": "A#3",
          "ticks": 130464,
          "time": 119.21046075,
          "velocity": 0.5275590551181102
        },
        {
          "duration": 0.08771925000000635,
          "durationTicks": 96,
          "midi": 39,
          "name": "D#2",
          "ticks": 130464,
          "time": 119.21046075,
          "velocity": 0.5275590551181102
        },
        {
          "duration": 0.08771925000000635,
          "durationTicks": 96,
          "midi": 53,
          "name": "F3",
          "ticks": 130848,
          "time": 119.56133774999999,
          "velocity": 0.5275590551181102
        },
        {
          "duration": 0.08771925000000635,
          "durationTicks": 96,
          "midi": 39,
          "name": "D#2",
          "ticks": 130848,
          "time": 119.56133774999999,
          "velocity": 0.5275590551181102
        },
        {
          "duration": 0.08771925000000635,
          "durationTicks": 96,
          "midi": 58,
          "name": "A#3",
          "ticks": 131040,
          "time": 119.73677624999999,
          "velocity": 0.5275590551181102
        },
        {
          "duration": 0.08771924999999214,
          "durationTicks": 96,
          "midi": 39,
          "name": "D#2",
          "ticks": 131232,
          "time": 119.91221475,
          "velocity": 0.5275590551181102
        },
        {
          "duration": 0.08771924999999214,
          "durationTicks": 96,
          "midi": 60,
          "name": "C4",
          "ticks": 131424,
          "time": 120.08765325,
          "velocity": 0.5275590551181102
        },
        {
          "duration": 0.08771924999999214,
          "durationTicks": 96,
          "midi": 39,
          "name": "D#2",
          "ticks": 131616,
          "time": 120.26309175,
          "velocity": 0.5275590551181102
        },
        {
          "duration": 0.08771924999999214,
          "durationTicks": 96,
          "midi": 62,
          "name": "D4",
          "ticks": 131808,
          "time": 120.43853025,
          "velocity": 0.5275590551181102
        },
        {
          "duration": 0.08771925000000635,
          "durationTicks": 96,
          "midi": 60,
          "name": "C4",
          "ticks": 131904,
          "time": 120.52624949999999,
          "velocity": 0.5275590551181102
        },
        {
          "duration": 0.08771925000000635,
          "durationTicks": 96,
          "midi": 39,
          "name": "D#2",
          "ticks": 132000,
          "time": 120.61396875,
          "velocity": 0.5275590551181102
        },
        {
          "duration": 0.08771925000000635,
          "durationTicks": 96,
          "midi": 58,
          "name": "A#3",
          "ticks": 132000,
          "time": 120.61396875,
          "velocity": 0.5275590551181102
        },
        {
          "duration": 0.08771925000000635,
          "durationTicks": 96,
          "midi": 65,
          "name": "F4",
          "ticks": 132384,
          "time": 120.96484575,
          "velocity": 0.5275590551181102
        },
        {
          "duration": 0.08771925000000635,
          "durationTicks": 96,
          "midi": 41,
          "name": "F2",
          "ticks": 132384,
          "time": 120.96484575,
          "velocity": 0.5275590551181102
        },
        {
          "duration": 0.08771925000000635,
          "durationTicks": 96,
          "midi": 41,
          "name": "F2",
          "ticks": 132768,
          "time": 121.31572274999999,
          "velocity": 0.5275590551181102
        },
        {
          "duration": 0.08771925000000635,
          "durationTicks": 96,
          "midi": 58,
          "name": "A#3",
          "ticks": 132768,
          "time": 121.31572274999999,
          "velocity": 0.5275590551181102
        },
        {
          "duration": 0.08771924999999214,
          "durationTicks": 96,
          "midi": 41,
          "name": "F2",
          "ticks": 133152,
          "time": 121.66659975,
          "velocity": 0.5275590551181102
        },
        {
          "duration": 0.08771924999999214,
          "durationTicks": 96,
          "midi": 70,
          "name": "A#4",
          "ticks": 133152,
          "time": 121.66659975,
          "velocity": 0.5275590551181102
        },
        {
          "duration": 0.08771924999999214,
          "durationTicks": 96,
          "midi": 69,
          "name": "A4",
          "ticks": 133344,
          "time": 121.84203825,
          "velocity": 0.5275590551181102
        },
        {
          "duration": 0.08771924999999214,
          "durationTicks": 96,
          "midi": 41,
          "name": "F2",
          "ticks": 133536,
          "time": 122.01747675,
          "velocity": 0.5275590551181102
        },
        {
          "duration": 0.08771925000000635,
          "durationTicks": 96,
          "midi": 65,
          "name": "F4",
          "ticks": 133728,
          "time": 122.19291525,
          "velocity": 0.5275590551181102
        },
        {
          "duration": 0.08771925000000635,
          "durationTicks": 96,
          "midi": 43,
          "name": "G2",
          "ticks": 133920,
          "time": 122.36835375,
          "velocity": 0.5275590551181102
        },
        {
          "duration": 0.08771925000000635,
          "durationTicks": 96,
          "midi": 62,
          "name": "D4",
          "ticks": 134112,
          "time": 122.54379225,
          "velocity": 0.5275590551181102
        },
        {
          "duration": 0.08771925000000635,
          "durationTicks": 96,
          "midi": 60,
          "name": "C4",
          "ticks": 134304,
          "time": 122.71923075,
          "velocity": 0.5275590551181102
        },
        {
          "duration": 0.08771925000000635,
          "durationTicks": 96,
          "midi": 43,
          "name": "G2",
          "ticks": 134304,
          "time": 122.71923075,
          "velocity": 0.5275590551181102
        },
        {
          "duration": 0.08771925000000635,
          "durationTicks": 96,
          "midi": 58,
          "name": "A#3",
          "ticks": 134496,
          "time": 122.89466924999999,
          "velocity": 0.5275590551181102
        },
        {
          "duration": 0.08771925000000635,
          "durationTicks": 96,
          "midi": 43,
          "name": "G2",
          "ticks": 134688,
          "time": 123.07010774999999,
          "velocity": 0.5275590551181102
        },
        {
          "duration": 0.08771924999999214,
          "durationTicks": 96,
          "midi": 60,
          "name": "C4",
          "ticks": 134880,
          "time": 123.24554625,
          "velocity": 0.5275590551181102
        },
        {
          "duration": 0.08771924999999214,
          "durationTicks": 96,
          "midi": 43,
          "name": "G2",
          "ticks": 135072,
          "time": 123.42098475,
          "velocity": 0.5275590551181102
        },
        {
          "duration": 0.08771924999999214,
          "durationTicks": 96,
          "midi": 58,
          "name": "A#3",
          "ticks": 135072,
          "time": 123.42098475,
          "velocity": 0.5275590551181102
        },
        {
          "duration": 0.08771924999999214,
          "durationTicks": 96,
          "midi": 53,
          "name": "F3",
          "ticks": 135264,
          "time": 123.59642325,
          "velocity": 0.5275590551181102
        },
        {
          "duration": 0.08771924999999214,
          "durationTicks": 96,
          "midi": 36,
          "name": "C2",
          "ticks": 135456,
          "time": 123.77186175,
          "velocity": 0.5275590551181102
        },
        {
          "duration": 0.08771924999999214,
          "durationTicks": 96,
          "midi": 65,
          "name": "F4",
          "ticks": 135456,
          "time": 123.77186175,
          "velocity": 0.5275590551181102
        },
        {
          "duration": 0.08771925000000635,
          "durationTicks": 96,
          "midi": 36,
          "name": "C2",
          "ticks": 135840,
          "time": 124.12273875,
          "velocity": 0.5275590551181102
        },
        {
          "duration": 0.08771925000000635,
          "durationTicks": 96,
          "midi": 58,
          "name": "A#3",
          "ticks": 135840,
          "time": 124.12273875,
          "velocity": 0.5275590551181102
        },
        {
          "duration": 0.08771925000000635,
          "durationTicks": 96,
          "midi": 36,
          "name": "C2",
          "ticks": 136224,
          "time": 124.47361575,
          "velocity": 0.5275590551181102
        },
        {
          "duration": 0.08771925000000635,
          "durationTicks": 96,
          "midi": 60,
          "name": "C4",
          "ticks": 136224,
          "time": 124.47361575,
          "velocity": 0.5275590551181102
        },
        {
          "duration": 0.08771924999999214,
          "durationTicks": 96,
          "midi": 36,
          "name": "C2",
          "ticks": 136608,
          "time": 124.82449275,
          "velocity": 0.5275590551181102
        },
        {
          "duration": 0.08771924999999214,
          "durationTicks": 96,
          "midi": 58,
          "name": "A#3",
          "ticks": 136608,
          "time": 124.82449275,
          "velocity": 0.5275590551181102
        },
        {
          "duration": 0.08771924999999214,
          "durationTicks": 96,
          "midi": 53,
          "name": "F3",
          "ticks": 136992,
          "time": 125.17536975,
          "velocity": 0.5275590551181102
        },
        {
          "duration": 0.08771924999999214,
          "durationTicks": 96,
          "midi": 36,
          "name": "C2",
          "ticks": 136992,
          "time": 125.17536975,
          "velocity": 0.5275590551181102
        },
        {
          "duration": 0.08771924999999214,
          "durationTicks": 96,
          "midi": 58,
          "name": "A#3",
          "ticks": 137184,
          "time": 125.35080825,
          "velocity": 0.5275590551181102
        },
        {
          "duration": 0.08771925000000635,
          "durationTicks": 96,
          "midi": 36,
          "name": "C2",
          "ticks": 137376,
          "time": 125.52624675,
          "velocity": 0.5275590551181102
        },
        {
          "duration": 0.08771925000000635,
          "durationTicks": 96,
          "midi": 60,
          "name": "C4",
          "ticks": 137568,
          "time": 125.70168525,
          "velocity": 0.5275590551181102
        },
        {
          "duration": 0.08771925000000635,
          "durationTicks": 96,
          "midi": 36,
          "name": "C2",
          "ticks": 137760,
          "time": 125.87712375,
          "velocity": 0.5275590551181102
        },
        {
          "duration": 0.08771925000000635,
          "durationTicks": 96,
          "midi": 62,
          "name": "D4",
          "ticks": 137952,
          "time": 126.05256225,
          "velocity": 0.5275590551181102
        },
        {
          "duration": 0.08771924999999214,
          "durationTicks": 96,
          "midi": 60,
          "name": "C4",
          "ticks": 138048,
          "time": 126.1402815,
          "velocity": 0.5275590551181102
        },
        {
          "duration": 0.08771925000000635,
          "durationTicks": 96,
          "midi": 36,
          "name": "C2",
          "ticks": 138144,
          "time": 126.22800074999999,
          "velocity": 0.5275590551181102
        },
        {
          "duration": 0.08771925000000635,
          "durationTicks": 96,
          "midi": 58,
          "name": "A#3",
          "ticks": 138144,
          "time": 126.22800074999999,
          "velocity": 0.5275590551181102
        },
        {
          "duration": 0.08771924999999214,
          "durationTicks": 96,
          "midi": 38,
          "name": "D2",
          "ticks": 138528,
          "time": 126.57887775,
          "velocity": 0.5275590551181102
        },
        {
          "duration": 0.08771924999999214,
          "durationTicks": 96,
          "midi": 53,
          "name": "F3",
          "ticks": 138528,
          "time": 126.57887775,
          "velocity": 0.5275590551181102
        },
        {
          "duration": 0.08771924999999214,
          "durationTicks": 96,
          "midi": 58,
          "name": "A#3",
          "ticks": 138912,
          "time": 126.92975475,
          "velocity": 0.5275590551181102
        },
        {
          "duration": 0.08771924999999214,
          "durationTicks": 96,
          "midi": 38,
          "name": "D2",
          "ticks": 138912,
          "time": 126.92975475,
          "velocity": 0.5275590551181102
        },
        {
          "duration": 0.08771925000000635,
          "durationTicks": 96,
          "midi": 38,
          "name": "D2",
          "ticks": 139296,
          "time": 127.28063175,
          "velocity": 0.5275590551181102
        },
        {
          "duration": 0.08771925000000635,
          "durationTicks": 96,
          "midi": 60,
          "name": "C4",
          "ticks": 139296,
          "time": 127.28063175,
          "velocity": 0.5275590551181102
        },
        {
          "duration": 0.08771925000000635,
          "durationTicks": 96,
          "midi": 63,
          "name": "D#4",
          "ticks": 139488,
          "time": 127.45607025,
          "velocity": 0.5275590551181102
        },
        {
          "duration": 0.08771925000000635,
          "durationTicks": 96,
          "midi": 38,
          "name": "D2",
          "ticks": 139680,
          "time": 127.63150875,
          "velocity": 0.5275590551181102
        },
        {
          "duration": 0.08771925000000635,
          "durationTicks": 96,
          "midi": 62,
          "name": "D4",
          "ticks": 139872,
          "time": 127.80694725,
          "velocity": 0.5275590551181102
        },
        {
          "duration": 0.08771924999999214,
          "durationTicks": 96,
          "midi": 38,
          "name": "D2",
          "ticks": 140064,
          "time": 127.98238574999999,
          "velocity": 0.5275590551181102
        },
        {
          "duration": 0.08771924999999214,
          "durationTicks": 96,
          "midi": 63,
          "name": "D#4",
          "ticks": 140256,
          "time": 128.15782425,
          "velocity": 0.5275590551181102
        },
        {
          "duration": 0.08771924999999214,
          "durationTicks": 96,
          "midi": 62,
          "name": "D4",
          "ticks": 140352,
          "time": 128.2455435,
          "velocity": 0.5275590551181102
        },
        {
          "duration": 0.08771925000002057,
          "durationTicks": 96,
          "midi": 38,
          "name": "D2",
          "ticks": 140448,
          "time": 128.33326275,
          "velocity": 0.5275590551181102
        },
        {
          "duration": 0.08771925000002057,
          "durationTicks": 96,
          "midi": 38,
          "name": "D2",
          "ticks": 140832,
          "time": 128.68413974999999,
          "velocity": 0.5275590551181102
        },
        {
          "duration": 0.08771925000002057,
          "durationTicks": 96,
          "midi": 58,
          "name": "A#3",
          "ticks": 140832,
          "time": 128.68413974999999,
          "velocity": 0.5275590551181102
        },
        {
          "duration": 0.08771924999999214,
          "durationTicks": 96,
          "midi": 38,
          "name": "D2",
          "ticks": 141216,
          "time": 129.03501675,
          "velocity": 0.5275590551181102
        },
        {
          "duration": 0.08771924999999214,
          "durationTicks": 96,
          "midi": 53,
          "name": "F3",
          "ticks": 141216,
          "time": 129.03501675,
          "velocity": 0.5275590551181102
        },
        {
          "duration": 0.08771924999999214,
          "durationTicks": 96,
          "midi": 39,
          "name": "D#2",
          "ticks": 141600,
          "time": 129.38589375,
          "velocity": 0.5275590551181102
        },
        {
          "duration": 0.08771924999999214,
          "durationTicks": 96,
          "midi": 65,
          "name": "F4",
          "ticks": 141600,
          "time": 129.38589375,
          "velocity": 0.5275590551181102
        },
        {
          "duration": 0.08771924999999214,
          "durationTicks": 96,
          "midi": 58,
          "name": "A#3",
          "ticks": 141984,
          "time": 129.73677075,
          "velocity": 0.5275590551181102
        },
        {
          "duration": 0.08771924999999214,
          "durationTicks": 96,
          "midi": 39,
          "name": "D#2",
          "ticks": 141984,
          "time": 129.73677075,
          "velocity": 0.5275590551181102
        },
        {
          "duration": 0.08771924999999214,
          "durationTicks": 96,
          "midi": 39,
          "name": "D#2",
          "ticks": 142368,
          "time": 130.08764775,
          "velocity": 0.5275590551181102
        },
        {
          "duration": 0.08771924999999214,
          "durationTicks": 96,
          "midi": 60,
          "name": "C4",
          "ticks": 142368,
          "time": 130.08764775,
          "velocity": 0.5275590551181102
        },
        {
          "duration": 0.08771924999999214,
          "durationTicks": 96,
          "midi": 39,
          "name": "D#2",
          "ticks": 142752,
          "time": 130.43852475,
          "velocity": 0.5275590551181102
        },
        {
          "duration": 0.08771924999999214,
          "durationTicks": 96,
          "midi": 58,
          "name": "A#3",
          "ticks": 142752,
          "time": 130.43852475,
          "velocity": 0.5275590551181102
        },
        {
          "duration": 0.08771924999999214,
          "durationTicks": 96,
          "midi": 39,
          "name": "D#2",
          "ticks": 143136,
          "time": 130.78940175,
          "velocity": 0.5275590551181102
        },
        {
          "duration": 0.08771924999999214,
          "durationTicks": 96,
          "midi": 53,
          "name": "F3",
          "ticks": 143136,
          "time": 130.78940175,
          "velocity": 0.5275590551181102
        },
        {
          "duration": 0.08771924999999214,
          "durationTicks": 96,
          "midi": 58,
          "name": "A#3",
          "ticks": 143328,
          "time": 130.96484025,
          "velocity": 0.5275590551181102
        },
        {
          "duration": 0.08771924999999214,
          "durationTicks": 96,
          "midi": 39,
          "name": "D#2",
          "ticks": 143520,
          "time": 131.14027875,
          "velocity": 0.5275590551181102
        },
        {
          "duration": 0.08771924999999214,
          "durationTicks": 96,
          "midi": 60,
          "name": "C4",
          "ticks": 143712,
          "time": 131.31571725,
          "velocity": 0.5275590551181102
        },
        {
          "duration": 0.08771925000002057,
          "durationTicks": 96,
          "midi": 39,
          "name": "D#2",
          "ticks": 143904,
          "time": 131.49115575,
          "velocity": 0.5275590551181102
        },
        {
          "duration": 0.08771924999999214,
          "durationTicks": 96,
          "midi": 62,
          "name": "D4",
          "ticks": 144096,
          "time": 131.66659425,
          "velocity": 0.5275590551181102
        },
        {
          "duration": 0.08771924999999214,
          "durationTicks": 96,
          "midi": 60,
          "name": "C4",
          "ticks": 144192,
          "time": 131.7543135,
          "velocity": 0.5275590551181102
        },
        {
          "duration": 0.08771925000002057,
          "durationTicks": 96,
          "midi": 58,
          "name": "A#3",
          "ticks": 144288,
          "time": 131.84203275,
          "velocity": 0.5275590551181102
        },
        {
          "duration": 0.08771925000002057,
          "durationTicks": 96,
          "midi": 39,
          "name": "D#2",
          "ticks": 144288,
          "time": 131.84203275,
          "velocity": 0.5275590551181102
        },
        {
          "duration": 0.08771925000002057,
          "durationTicks": 96,
          "midi": 41,
          "name": "F2",
          "ticks": 144672,
          "time": 132.19290974999998,
          "velocity": 0.5275590551181102
        },
        {
          "duration": 0.08771925000002057,
          "durationTicks": 96,
          "midi": 65,
          "name": "F4",
          "ticks": 144672,
          "time": 132.19290974999998,
          "velocity": 0.5275590551181102
        },
        {
          "duration": 0.08771924999999214,
          "durationTicks": 96,
          "midi": 41,
          "name": "F2",
          "ticks": 145056,
          "time": 132.54378675,
          "velocity": 0.5275590551181102
        },
        {
          "duration": 0.08771924999999214,
          "durationTicks": 96,
          "midi": 58,
          "name": "A#3",
          "ticks": 145056,
          "time": 132.54378675,
          "velocity": 0.5275590551181102
        },
        {
          "duration": 0.08771924999999214,
          "durationTicks": 96,
          "midi": 70,
          "name": "A#4",
          "ticks": 145440,
          "time": 132.89466375,
          "velocity": 0.5275590551181102
        },
        {
          "duration": 0.08771924999999214,
          "durationTicks": 96,
          "midi": 41,
          "name": "F2",
          "ticks": 145440,
          "time": 132.89466375,
          "velocity": 0.5275590551181102
        },
        {
          "duration": 0.08771925000002057,
          "durationTicks": 96,
          "midi": 69,
          "name": "A4",
          "ticks": 145632,
          "time": 133.07010225,
          "velocity": 0.5275590551181102
        },
        {
          "duration": 0.08771924999999214,
          "durationTicks": 96,
          "midi": 41,
          "name": "F2",
          "ticks": 145824,
          "time": 133.24554075,
          "velocity": 0.5275590551181102
        },
        {
          "duration": 0.08771925000002057,
          "durationTicks": 96,
          "midi": 65,
          "name": "F4",
          "ticks": 146016,
          "time": 133.42097925,
          "velocity": 0.5275590551181102
        },
        {
          "duration": 0.08771924999999214,
          "durationTicks": 96,
          "midi": 43,
          "name": "G2",
          "ticks": 146208,
          "time": 133.59641775,
          "velocity": 0.5275590551181102
        },
        {
          "duration": 0.08771925000002057,
          "durationTicks": 96,
          "midi": 62,
          "name": "D4",
          "ticks": 146400,
          "time": 133.77185624999998,
          "velocity": 0.5275590551181102
        },
        {
          "duration": 0.08771924999999214,
          "durationTicks": 96,
          "midi": 60,
          "name": "C4",
          "ticks": 146592,
          "time": 133.94729475,
          "velocity": 0.5275590551181102
        },
        {
          "duration": 0.08771924999999214,
          "durationTicks": 96,
          "midi": 43,
          "name": "G2",
          "ticks": 146592,
          "time": 133.94729475,
          "velocity": 0.5275590551181102
        },
        {
          "duration": 0.08771924999999214,
          "durationTicks": 96,
          "midi": 58,
          "name": "A#3",
          "ticks": 146784,
          "time": 134.12273325,
          "velocity": 0.5275590551181102
        },
        {
          "duration": 0.08771924999999214,
          "durationTicks": 96,
          "midi": 43,
          "name": "G2",
          "ticks": 146976,
          "time": 134.29817175,
          "velocity": 0.5275590551181102
        },
        {
          "duration": 0.08771924999999214,
          "durationTicks": 96,
          "midi": 60,
          "name": "C4",
          "ticks": 147168,
          "time": 134.47361025,
          "velocity": 0.5275590551181102
        },
        {
          "duration": 0.08771924999999214,
          "durationTicks": 96,
          "midi": 43,
          "name": "G2",
          "ticks": 147360,
          "time": 134.64904875,
          "velocity": 0.5275590551181102
        },
        {
          "duration": 0.08771924999999214,
          "durationTicks": 96,
          "midi": 58,
          "name": "A#3",
          "ticks": 147360,
          "time": 134.64904875,
          "velocity": 0.5275590551181102
        },
        {
          "duration": 0.08771924999999214,
          "durationTicks": 96,
          "midi": 53,
          "name": "F3",
          "ticks": 147552,
          "time": 134.82448725,
          "velocity": 0.5275590551181102
        },
        {
          "duration": 0.08771924999999214,
          "durationTicks": 96,
          "midi": 60,
          "name": "C4",
          "ticks": 153216,
          "time": 139.999923,
          "velocity": 0.5275590551181102
        },
        {
          "duration": 0.08771924999999214,
          "durationTicks": 96,
          "midi": 62,
          "name": "D4",
          "ticks": 153600,
          "time": 140.3508,
          "velocity": 0.5275590551181102
        },
        {
          "duration": 0.08771925000002057,
          "durationTicks": 96,
          "midi": 53,
          "name": "F3",
          "ticks": 153984,
          "time": 140.701677,
          "velocity": 0.5275590551181102
        },
        {
          "duration": 0.08771925000002057,
          "durationTicks": 96,
          "midi": 50,
          "name": "D3",
          "ticks": 158880,
          "time": 145.17535875,
          "velocity": 0.5275590551181102
        },
        {
          "duration": 0.08771925000002057,
          "durationTicks": 96,
          "midi": 48,
          "name": "C3",
          "ticks": 159264,
          "time": 145.52623574999998,
          "velocity": 0.5275590551181102
        },
        {
          "duration": 0.08771924999999214,
          "durationTicks": 96,
          "midi": 46,
          "name": "A#2",
          "ticks": 159648,
          "time": 145.87711275,
          "velocity": 0.5275590551181102
        },
        {
          "duration": 0.08771924999999214,
          "durationTicks": 96,
          "midi": 38,
          "name": "D2",
          "ticks": 160128,
          "time": 146.315709,
          "velocity": 0.5275590551181102
        },
        {
          "duration": 0.08771924999999214,
          "durationTicks": 96,
          "midi": 38,
          "name": "D2",
          "ticks": 160512,
          "time": 146.666586,
          "velocity": 0.5275590551181102
        },
        {
          "duration": 0.08771924999999214,
          "durationTicks": 96,
          "midi": 38,
          "name": "D2",
          "ticks": 160896,
          "time": 147.017463,
          "velocity": 0.5275590551181102
        },
        {
          "duration": 0.08771925000002057,
          "durationTicks": 96,
          "midi": 38,
          "name": "D2",
          "ticks": 161280,
          "time": 147.36834,
          "velocity": 0.5275590551181102
        },
        {
          "duration": 0.08771925000002057,
          "durationTicks": 96,
          "midi": 38,
          "name": "D2",
          "ticks": 161664,
          "time": 147.719217,
          "velocity": 0.5275590551181102
        },
        {
          "duration": 0.08771924999999214,
          "durationTicks": 96,
          "midi": 38,
          "name": "D2",
          "ticks": 162048,
          "time": 148.070094,
          "velocity": 0.5275590551181102
        },
        {
          "duration": 0.08771924999999214,
          "durationTicks": 96,
          "midi": 38,
          "name": "D2",
          "ticks": 162432,
          "time": 148.420971,
          "velocity": 0.5275590551181102
        },
        {
          "duration": 0.08771924999999214,
          "durationTicks": 96,
          "midi": 38,
          "name": "D2",
          "ticks": 162816,
          "time": 148.771848,
          "velocity": 0.5275590551181102
        },
        {
          "duration": 0.08771924999999214,
          "durationTicks": 96,
          "midi": 39,
          "name": "D#2",
          "ticks": 163200,
          "time": 149.122725,
          "velocity": 0.5275590551181102
        },
        {
          "duration": 0.08771924999999214,
          "durationTicks": 96,
          "midi": 39,
          "name": "D#2",
          "ticks": 163584,
          "time": 149.473602,
          "velocity": 0.5275590551181102
        },
        {
          "duration": 0.08771924999999214,
          "durationTicks": 96,
          "midi": 39,
          "name": "D#2",
          "ticks": 163968,
          "time": 149.824479,
          "velocity": 0.5275590551181102
        },
        {
          "duration": 0.08771924999999214,
          "durationTicks": 96,
          "midi": 39,
          "name": "D#2",
          "ticks": 164352,
          "time": 150.175356,
          "velocity": 0.5275590551181102
        },
        {
          "duration": 0.08771925000002057,
          "durationTicks": 96,
          "midi": 39,
          "name": "D#2",
          "ticks": 164736,
          "time": 150.526233,
          "velocity": 0.5275590551181102
        },
        {
          "duration": 0.08771925000002057,
          "durationTicks": 96,
          "midi": 39,
          "name": "D#2",
          "ticks": 165120,
          "time": 150.87711,
          "velocity": 0.5275590551181102
        },
        {
          "duration": 0.08771925000002057,
          "durationTicks": 96,
          "midi": 60,
          "name": "C4",
          "ticks": 165504,
          "time": 151.22798699999998,
          "velocity": 0.5275590551181102
        },
        {
          "duration": 0.08771925000002057,
          "durationTicks": 96,
          "midi": 39,
          "name": "D#2",
          "ticks": 165504,
          "time": 151.22798699999998,
          "velocity": 0.5275590551181102
        },
        {
          "duration": 0.08771924999999214,
          "durationTicks": 96,
          "midi": 39,
          "name": "D#2",
          "ticks": 165888,
          "time": 151.578864,
          "velocity": 0.5275590551181102
        },
        {
          "duration": 0.08771924999999214,
          "durationTicks": 96,
          "midi": 62,
          "name": "D4",
          "ticks": 165888,
          "time": 151.578864,
          "velocity": 0.5275590551181102
        },
        {
          "duration": 0.08771924999999214,
          "durationTicks": 96,
          "midi": 38,
          "name": "D2",
          "ticks": 166272,
          "time": 151.929741,
          "velocity": 0.5275590551181102
        },
        {
          "duration": 0.08771924999999214,
          "durationTicks": 96,
          "midi": 53,
          "name": "F3",
          "ticks": 166272,
          "time": 151.929741,
          "velocity": 0.5275590551181102
        },
        {
          "duration": 0.08771924999999214,
          "durationTicks": 96,
          "midi": 38,
          "name": "D2",
          "ticks": 166656,
          "time": 152.280618,
          "velocity": 0.5275590551181102
        },
        {
          "duration": 0.08771924999999214,
          "durationTicks": 96,
          "midi": 38,
          "name": "D2",
          "ticks": 167040,
          "time": 152.631495,
          "velocity": 0.5275590551181102
        },
        {
          "duration": 0.08771924999999214,
          "durationTicks": 96,
          "midi": 38,
          "name": "D2",
          "ticks": 167424,
          "time": 152.982372,
          "velocity": 0.5275590551181102
        },
        {
          "duration": 0.08771924999999214,
          "durationTicks": 96,
          "midi": 38,
          "name": "D2",
          "ticks": 167808,
          "time": 153.333249,
          "velocity": 0.5275590551181102
        },
        {
          "duration": 0.08771924999999214,
          "durationTicks": 96,
          "midi": 38,
          "name": "D2",
          "ticks": 168192,
          "time": 153.684126,
          "velocity": 0.5275590551181102
        },
        {
          "duration": 0.08771925000002057,
          "durationTicks": 96,
          "midi": 38,
          "name": "D2",
          "ticks": 168576,
          "time": 154.035003,
          "velocity": 0.5275590551181102
        },
        {
          "duration": 0.08771925000002057,
          "durationTicks": 96,
          "midi": 38,
          "name": "D2",
          "ticks": 168960,
          "time": 154.38588,
          "velocity": 0.5275590551181102
        },
        {
          "duration": 0.08771924999999214,
          "durationTicks": 96,
          "midi": 39,
          "name": "D#2",
          "ticks": 169344,
          "time": 154.736757,
          "velocity": 0.5275590551181102
        },
        {
          "duration": 0.08771924999999214,
          "durationTicks": 96,
          "midi": 62,
          "name": "D4",
          "ticks": 169728,
          "time": 155.087634,
          "velocity": 0.5275590551181102
        },
        {
          "duration": 0.08771924999999214,
          "durationTicks": 96,
          "midi": 39,
          "name": "D#2",
          "ticks": 169728,
          "time": 155.087634,
          "velocity": 0.5275590551181102
        },
        {
          "duration": 0.08771924999999214,
          "durationTicks": 96,
          "midi": 60,
          "name": "C4",
          "ticks": 170112,
          "time": 155.438511,
          "velocity": 0.5275590551181102
        },
        {
          "duration": 0.08771924999999214,
          "durationTicks": 96,
          "midi": 39,
          "name": "D#2",
          "ticks": 170112,
          "time": 155.438511,
          "velocity": 0.5275590551181102
        },
        {
          "duration": 0.08771924999999214,
          "durationTicks": 96,
          "midi": 39,
          "name": "D#2",
          "ticks": 170496,
          "time": 155.789388,
          "velocity": 0.5275590551181102
        },
        {
          "duration": 0.08771924999999214,
          "durationTicks": 96,
          "midi": 58,
          "name": "A#3",
          "ticks": 170496,
          "time": 155.789388,
          "velocity": 0.5275590551181102
        },
        {
          "duration": 0.08771924999999214,
          "durationTicks": 96,
          "midi": 39,
          "name": "D#2",
          "ticks": 170880,
          "time": 156.140265,
          "velocity": 0.5275590551181102
        },
        {
          "duration": 0.08771924999999214,
          "durationTicks": 96,
          "midi": 50,
          "name": "D3",
          "ticks": 171264,
          "time": 156.491142,
          "velocity": 0.5275590551181102
        },
        {
          "duration": 0.08771924999999214,
          "durationTicks": 96,
          "midi": 39,
          "name": "D#2",
          "ticks": 171264,
          "time": 156.491142,
          "velocity": 0.5275590551181102
        },
        {
          "duration": 0.08771924999999214,
          "durationTicks": 96,
          "midi": 39,
          "name": "D#2",
          "ticks": 171648,
          "time": 156.842019,
          "velocity": 0.5275590551181102
        },
        {
          "duration": 0.08771924999999214,
          "durationTicks": 96,
          "midi": 48,
          "name": "C3",
          "ticks": 171648,
          "time": 156.842019,
          "velocity": 0.5275590551181102
        },
        {
          "duration": 0.08771925000002057,
          "durationTicks": 96,
          "midi": 46,
          "name": "A#2",
          "ticks": 172032,
          "time": 157.192896,
          "velocity": 0.5275590551181102
        },
        {
          "duration": 0.08771925000002057,
          "durationTicks": 96,
          "midi": 39,
          "name": "D#2",
          "ticks": 172032,
          "time": 157.192896,
          "velocity": 0.5275590551181102
        },
        {
          "duration": 0.08771925000002057,
          "durationTicks": 96,
          "midi": 38,
          "name": "D2",
          "ticks": 172416,
          "time": 157.543773,
          "velocity": 0.5275590551181102
        },
        {
          "duration": 0.08771925000002057,
          "durationTicks": 96,
          "midi": 38,
          "name": "D2",
          "ticks": 172800,
          "time": 157.89464999999998,
          "velocity": 0.5275590551181102
        },
        {
          "duration": 0.08771924999999214,
          "durationTicks": 96,
          "midi": 38,
          "name": "D2",
          "ticks": 173184,
          "time": 158.245527,
          "velocity": 0.5275590551181102
        },
        {
          "duration": 0.08771924999999214,
          "durationTicks": 96,
          "midi": 38,
          "name": "D2",
          "ticks": 173568,
          "time": 158.596404,
          "velocity": 0.5275590551181102
        },
        {
          "duration": 0.08771924999999214,
          "durationTicks": 96,
          "midi": 38,
          "name": "D2",
          "ticks": 173952,
          "time": 158.947281,
          "velocity": 0.5275590551181102
        },
        {
          "duration": 0.08771924999999214,
          "durationTicks": 96,
          "midi": 38,
          "name": "D2",
          "ticks": 174336,
          "time": 159.298158,
          "velocity": 0.5275590551181102
        },
        {
          "duration": 0.08771924999999214,
          "durationTicks": 96,
          "midi": 38,
          "name": "D2",
          "ticks": 174720,
          "time": 159.649035,
          "velocity": 0.5275590551181102
        },
        {
          "duration": 0.08771924999999214,
          "durationTicks": 96,
          "midi": 38,
          "name": "D2",
          "ticks": 175104,
          "time": 159.999912,
          "velocity": 0.5275590551181102
        },
        {
          "duration": 0.08771924999999214,
          "durationTicks": 96,
          "midi": 39,
          "name": "D#2",
          "ticks": 175488,
          "time": 160.350789,
          "velocity": 0.5275590551181102
        },
        {
          "duration": 0.08771925000002057,
          "durationTicks": 96,
          "midi": 39,
          "name": "D#2",
          "ticks": 175872,
          "time": 160.701666,
          "velocity": 0.5275590551181102
        },
        {
          "duration": 0.08771925000002057,
          "durationTicks": 96,
          "midi": 39,
          "name": "D#2",
          "ticks": 176256,
          "time": 161.052543,
          "velocity": 0.5275590551181102
        },
        {
          "duration": 0.08771924999999214,
          "durationTicks": 96,
          "midi": 39,
          "name": "D#2",
          "ticks": 176640,
          "time": 161.40342,
          "velocity": 0.5275590551181102
        },
        {
          "duration": 0.08771924999999214,
          "durationTicks": 96,
          "midi": 39,
          "name": "D#2",
          "ticks": 177024,
          "time": 161.754297,
          "velocity": 0.5275590551181102
        },
        {
          "duration": 0.08771924999999214,
          "durationTicks": 96,
          "midi": 39,
          "name": "D#2",
          "ticks": 177408,
          "time": 162.105174,
          "velocity": 0.5275590551181102
        },
        {
          "duration": 0.08771924999999214,
          "durationTicks": 96,
          "midi": 39,
          "name": "D#2",
          "ticks": 177792,
          "time": 162.456051,
          "velocity": 0.5275590551181102
        },
        {
          "duration": 0.08771924999999214,
          "durationTicks": 96,
          "midi": 60,
          "name": "C4",
          "ticks": 177792,
          "time": 162.456051,
          "velocity": 0.5275590551181102
        },
        {
          "duration": 0.08771924999999214,
          "durationTicks": 96,
          "midi": 39,
          "name": "D#2",
          "ticks": 178176,
          "time": 162.806928,
          "velocity": 0.5275590551181102
        },
        {
          "duration": 0.08771924999999214,
          "durationTicks": 96,
          "midi": 62,
          "name": "D4",
          "ticks": 178176,
          "time": 162.806928,
          "velocity": 0.5275590551181102
        },
        {
          "duration": 0.08771924999999214,
          "durationTicks": 96,
          "midi": 38,
          "name": "D2",
          "ticks": 178560,
          "time": 163.157805,
          "velocity": 0.5275590551181102
        },
        {
          "duration": 0.08771924999999214,
          "durationTicks": 96,
          "midi": 53,
          "name": "F3",
          "ticks": 178560,
          "time": 163.157805,
          "velocity": 0.5275590551181102
        },
        {
          "duration": 0.08771924999999214,
          "durationTicks": 96,
          "midi": 38,
          "name": "D2",
          "ticks": 178944,
          "time": 163.508682,
          "velocity": 0.5275590551181102
        },
        {
          "duration": 0.08771925000002057,
          "durationTicks": 96,
          "midi": 38,
          "name": "D2",
          "ticks": 179328,
          "time": 163.859559,
          "velocity": 0.5275590551181102
        },
        {
          "duration": 0.08771925000002057,
          "durationTicks": 96,
          "midi": 38,
          "name": "D2",
          "ticks": 179712,
          "time": 164.210436,
          "velocity": 0.5275590551181102
        },
        {
          "duration": 0.08771925000002057,
          "durationTicks": 96,
          "midi": 38,
          "name": "D2",
          "ticks": 180096,
          "time": 164.56131299999998,
          "velocity": 0.5275590551181102
        },
        {
          "duration": 0.08771924999999214,
          "durationTicks": 96,
          "midi": 38,
          "name": "D2",
          "ticks": 180480,
          "time": 164.91219,
          "velocity": 0.5275590551181102
        },
        {
          "duration": 0.08771924999999214,
          "durationTicks": 96,
          "midi": 38,
          "name": "D2",
          "ticks": 180864,
          "time": 165.263067,
          "velocity": 0.5275590551181102
        },
        {
          "duration": 0.08771924999999214,
          "durationTicks": 96,
          "midi": 38,
          "name": "D2",
          "ticks": 181248,
          "time": 165.613944,
          "velocity": 0.5275590551181102
        },
        {
          "duration": 0.08771924999999214,
          "durationTicks": 96,
          "midi": 39,
          "name": "D#2",
          "ticks": 181632,
          "time": 165.964821,
          "velocity": 0.5275590551181102
        },
        {
          "duration": 0.08771924999999214,
          "durationTicks": 96,
          "midi": 39,
          "name": "D#2",
          "ticks": 182016,
          "time": 166.315698,
          "velocity": 0.5275590551181102
        },
        {
          "duration": 0.08771924999999214,
          "durationTicks": 96,
          "midi": 62,
          "name": "D4",
          "ticks": 182016,
          "time": 166.315698,
          "velocity": 0.5275590551181102
        },
        {
          "duration": 0.08771924999999214,
          "durationTicks": 96,
          "midi": 39,
          "name": "D#2",
          "ticks": 182400,
          "time": 166.666575,
          "velocity": 0.5275590551181102
        },
        {
          "duration": 0.08771924999999214,
          "durationTicks": 96,
          "midi": 60,
          "name": "C4",
          "ticks": 182400,
          "time": 166.666575,
          "velocity": 0.5275590551181102
        },
        {
          "duration": 0.08771924999999214,
          "durationTicks": 96,
          "midi": 39,
          "name": "D#2",
          "ticks": 182784,
          "time": 167.017452,
          "velocity": 0.5275590551181102
        },
        {
          "duration": 0.08771924999999214,
          "durationTicks": 96,
          "midi": 58,
          "name": "A#3",
          "ticks": 182784,
          "time": 167.017452,
          "velocity": 0.5275590551181102
        },
        {
          "duration": 0.08771925000002057,
          "durationTicks": 96,
          "midi": 39,
          "name": "D#2",
          "ticks": 183168,
          "time": 167.368329,
          "velocity": 0.5275590551181102
        },
        {
          "duration": 0.08771925000002057,
          "durationTicks": 96,
          "midi": 39,
          "name": "D#2",
          "ticks": 183552,
          "time": 167.71920599999999,
          "velocity": 0.5275590551181102
        },
        {
          "duration": 0.08771924999999214,
          "durationTicks": 96,
          "midi": 39,
          "name": "D#2",
          "ticks": 183936,
          "time": 168.070083,
          "velocity": 0.5275590551181102
        },
        {
          "duration": 0.08771924999999214,
          "durationTicks": 96,
          "midi": 39,
          "name": "D#2",
          "ticks": 184320,
          "time": 168.42096,
          "velocity": 0.5275590551181102
        }
      ],
      "endOfTrackTicks": 184416
    },
    {
      "channel": 9,
      "controlChanges": {},
      "pitchBends": [],
      "instrument": {
        "family": "drums",
        "number": 255
      },
      "name": "2013 Drum Kit",
      "notes": [
        {
          "duration": 0.08771924999999925,
          "durationTicks": 96,
          "midi": 36,
          "name": "C2",
          "ticks": 23136,
          "time": 21.14033925,
          "velocity": 0.49606299212598426
        },
        {
          "duration": 0.08771924999999925,
          "durationTicks": 96,
          "midi": 36,
          "name": "C2",
          "ticks": 23232,
          "time": 21.2280585,
          "velocity": 0.49606299212598426
        },
        {
          "duration": 0.0877192500000028,
          "durationTicks": 96,
          "midi": 36,
          "name": "C2",
          "ticks": 23424,
          "time": 21.403496999999998,
          "velocity": 0.49606299212598426
        },
        {
          "duration": 0.08771924999999925,
          "durationTicks": 96,
          "midi": 36,
          "name": "C2",
          "ticks": 23616,
          "time": 21.5789355,
          "velocity": 0.49606299212598426
        },
        {
          "duration": 0.0877192500000028,
          "durationTicks": 96,
          "midi": 36,
          "name": "C2",
          "ticks": 23808,
          "time": 21.754374,
          "velocity": 0.49606299212598426
        },
        {
          "duration": 0.08771924999999925,
          "durationTicks": 96,
          "midi": 35,
          "name": "B1",
          "ticks": 24000,
          "time": 21.9298125,
          "velocity": 0.49606299212598426
        },
        {
          "duration": 0.08771924999999925,
          "durationTicks": 96,
          "midi": 35,
          "name": "B1",
          "ticks": 24192,
          "time": 22.105251,
          "velocity": 0.49606299212598426
        },
        {
          "duration": 0.08771924999999925,
          "durationTicks": 96,
          "midi": 35,
          "name": "B1",
          "ticks": 24384,
          "time": 22.2806895,
          "velocity": 0.49606299212598426
        },
        {
          "duration": 0.08771924999999925,
          "durationTicks": 96,
          "midi": 35,
          "name": "B1",
          "ticks": 24576,
          "time": 22.456128,
          "velocity": 0.49606299212598426
        },
        {
          "duration": 0.08771924999999925,
          "durationTicks": 96,
          "midi": 42,
          "name": "F#2",
          "ticks": 25152,
          "time": 22.9824435,
          "velocity": 0.49606299212598426
        },
        {
          "duration": 0.08771924999999925,
          "durationTicks": 96,
          "midi": 45,
          "name": "A2",
          "ticks": 25152,
          "time": 22.9824435,
          "velocity": 0.49606299212598426
        },
        {
          "duration": 0.08771924999999925,
          "durationTicks": 96,
          "midi": 41,
          "name": "F2",
          "ticks": 25152,
          "time": 22.9824435,
          "velocity": 0.49606299212598426
        },
        {
          "duration": 0.08771924999999925,
          "durationTicks": 96,
          "midi": 36,
          "name": "C2",
          "ticks": 25152,
          "time": 22.9824435,
          "velocity": 0.49606299212598426
        },
        {
          "duration": 0.08771924999999925,
          "durationTicks": 96,
          "midi": 45,
          "name": "A2",
          "ticks": 25920,
          "time": 23.6841975,
          "velocity": 0.49606299212598426
        },
        {
          "duration": 0.08771924999999925,
          "durationTicks": 96,
          "midi": 36,
          "name": "C2",
          "ticks": 25920,
          "time": 23.6841975,
          "velocity": 0.49606299212598426
        },
        {
          "duration": 0.08771924999999925,
          "durationTicks": 96,
          "midi": 42,
          "name": "F#2",
          "ticks": 25920,
          "time": 23.6841975,
          "velocity": 0.49606299212598426
        },
        {
          "duration": 0.08771924999999925,
          "durationTicks": 96,
          "midi": 41,
          "name": "F2",
          "ticks": 25920,
          "time": 23.6841975,
          "velocity": 0.49606299212598426
        },
        {
          "duration": 0.08771924999999925,
          "durationTicks": 96,
          "midi": 36,
          "name": "C2",
          "ticks": 26688,
          "time": 24.3859515,
          "velocity": 0.49606299212598426
        },
        {
          "duration": 0.08771924999999925,
          "durationTicks": 96,
          "midi": 41,
          "name": "F2",
          "ticks": 26688,
          "time": 24.3859515,
          "velocity": 0.49606299212598426
        },
        {
          "duration": 0.08771924999999925,
          "durationTicks": 96,
          "midi": 45,
          "name": "A2",
          "ticks": 26688,
          "time": 24.3859515,
          "velocity": 0.49606299212598426
        },
        {
          "duration": 0.08771924999999925,
          "durationTicks": 96,
          "midi": 42,
          "name": "F#2",
          "ticks": 26688,
          "time": 24.3859515,
          "velocity": 0.49606299212598426
        },
        {
          "duration": 0.0877192500000028,
          "durationTicks": 96,
          "midi": 36,
          "name": "C2",
          "ticks": 27456,
          "time": 25.0877055,
          "velocity": 0.49606299212598426
        },
        {
          "duration": 0.0877192500000028,
          "durationTicks": 96,
          "midi": 41,
          "name": "F2",
          "ticks": 27456,
          "time": 25.0877055,
          "velocity": 0.49606299212598426
        },
        {
          "duration": 0.0877192500000028,
          "durationTicks": 96,
          "midi": 42,
          "name": "F#2",
          "ticks": 27456,
          "time": 25.0877055,
          "velocity": 0.49606299212598426
        },
        {
          "duration": 0.0877192500000028,
          "durationTicks": 96,
          "midi": 45,
          "name": "A2",
          "ticks": 27456,
          "time": 25.0877055,
          "velocity": 0.49606299212598426
        },
        {
          "duration": 0.08771924999999925,
          "durationTicks": 96,
          "midi": 45,
          "name": "A2",
          "ticks": 28224,
          "time": 25.7894595,
          "velocity": 0.49606299212598426
        },
        {
          "duration": 0.08771924999999925,
          "durationTicks": 96,
          "midi": 41,
          "name": "F2",
          "ticks": 28224,
          "time": 25.7894595,
          "velocity": 0.49606299212598426
        },
        {
          "duration": 0.08771924999999925,
          "durationTicks": 96,
          "midi": 42,
          "name": "F#2",
          "ticks": 28224,
          "time": 25.7894595,
          "velocity": 0.49606299212598426
        },
        {
          "duration": 0.08771924999999925,
          "durationTicks": 96,
          "midi": 36,
          "name": "C2",
          "ticks": 28224,
          "time": 25.7894595,
          "velocity": 0.49606299212598426
        },
        {
          "duration": 0.08771924999999925,
          "durationTicks": 96,
          "midi": 41,
          "name": "F2",
          "ticks": 28992,
          "time": 26.4912135,
          "velocity": 0.49606299212598426
        },
        {
          "duration": 0.08771924999999925,
          "durationTicks": 96,
          "midi": 36,
          "name": "C2",
          "ticks": 28992,
          "time": 26.4912135,
          "velocity": 0.49606299212598426
        },
        {
          "duration": 0.08771924999999925,
          "durationTicks": 96,
          "midi": 45,
          "name": "A2",
          "ticks": 28992,
          "time": 26.4912135,
          "velocity": 0.49606299212598426
        },
        {
          "duration": 0.08771924999999925,
          "durationTicks": 96,
          "midi": 42,
          "name": "F#2",
          "ticks": 28992,
          "time": 26.4912135,
          "velocity": 0.49606299212598426
        },
        {
          "duration": 0.0877192500000028,
          "durationTicks": 96,
          "midi": 45,
          "name": "A2",
          "ticks": 29760,
          "time": 27.192967499999998,
          "velocity": 0.49606299212598426
        },
        {
          "duration": 0.0877192500000028,
          "durationTicks": 96,
          "midi": 41,
          "name": "F2",
          "ticks": 29760,
          "time": 27.192967499999998,
          "velocity": 0.49606299212598426
        },
        {
          "duration": 0.0877192500000028,
          "durationTicks": 96,
          "midi": 42,
          "name": "F#2",
          "ticks": 29760,
          "time": 27.192967499999998,
          "velocity": 0.49606299212598426
        },
        {
          "duration": 0.0877192500000028,
          "durationTicks": 96,
          "midi": 36,
          "name": "C2",
          "ticks": 29760,
          "time": 27.192967499999998,
          "velocity": 0.49606299212598426
        },
        {
          "duration": 0.08771924999999925,
          "durationTicks": 96,
          "midi": 42,
          "name": "F#2",
          "ticks": 30528,
          "time": 27.8947215,
          "velocity": 0.49606299212598426
        },
        {
          "duration": 0.08771924999999925,
          "durationTicks": 96,
          "midi": 36,
          "name": "C2",
          "ticks": 30528,
          "time": 27.8947215,
          "velocity": 0.49606299212598426
        },
        {
          "duration": 0.08771924999999925,
          "durationTicks": 96,
          "midi": 41,
          "name": "F2",
          "ticks": 30528,
          "time": 27.8947215,
          "velocity": 0.49606299212598426
        },
        {
          "duration": 0.08771924999999925,
          "durationTicks": 96,
          "midi": 45,
          "name": "A2",
          "ticks": 30528,
          "time": 27.8947215,
          "velocity": 0.49606299212598426
        },
        {
          "duration": 0.08771924999999925,
          "durationTicks": 96,
          "midi": 42,
          "name": "F#2",
          "ticks": 31296,
          "time": 28.5964755,
          "velocity": 0.49606299212598426
        },
        {
          "duration": 0.08771924999999925,
          "durationTicks": 96,
          "midi": 36,
          "name": "C2",
          "ticks": 31296,
          "time": 28.5964755,
          "velocity": 0.49606299212598426
        },
        {
          "duration": 0.08771924999999925,
          "durationTicks": 96,
          "midi": 41,
          "name": "F2",
          "ticks": 31296,
          "time": 28.5964755,
          "velocity": 0.49606299212598426
        },
        {
          "duration": 0.08771924999999925,
          "durationTicks": 96,
          "midi": 45,
          "name": "A2",
          "ticks": 31296,
          "time": 28.5964755,
          "velocity": 0.49606299212598426
        },
        {
          "duration": 0.0877192500000028,
          "durationTicks": 96,
          "midi": 42,
          "name": "F#2",
          "ticks": 32064,
          "time": 29.298229499999998,
          "velocity": 0.49606299212598426
        },
        {
          "duration": 0.0877192500000028,
          "durationTicks": 96,
          "midi": 36,
          "name": "C2",
          "ticks": 32064,
          "time": 29.298229499999998,
          "velocity": 0.49606299212598426
        },
        {
          "duration": 0.0877192500000028,
          "durationTicks": 96,
          "midi": 41,
          "name": "F2",
          "ticks": 32064,
          "time": 29.298229499999998,
          "velocity": 0.49606299212598426
        },
        {
          "duration": 0.0877192500000028,
          "durationTicks": 96,
          "midi": 45,
          "name": "A2",
          "ticks": 32064,
          "time": 29.298229499999998,
          "velocity": 0.49606299212598426
        },
        {
          "duration": 0.08771924999999925,
          "durationTicks": 96,
          "midi": 42,
          "name": "F#2",
          "ticks": 32832,
          "time": 29.9999835,
          "velocity": 0.49606299212598426
        },
        {
          "duration": 0.08771924999999925,
          "durationTicks": 96,
          "midi": 45,
          "name": "A2",
          "ticks": 32832,
          "time": 29.9999835,
          "velocity": 0.49606299212598426
        },
        {
          "duration": 0.08771924999999925,
          "durationTicks": 96,
          "midi": 36,
          "name": "C2",
          "ticks": 32832,
          "time": 29.9999835,
          "velocity": 0.49606299212598426
        },
        {
          "duration": 0.08771924999999925,
          "durationTicks": 96,
          "midi": 41,
          "name": "F2",
          "ticks": 32832,
          "time": 29.9999835,
          "velocity": 0.49606299212598426
        },
        {
          "duration": 0.08771924999999925,
          "durationTicks": 96,
          "midi": 36,
          "name": "C2",
          "ticks": 33600,
          "time": 30.7017375,
          "velocity": 0.49606299212598426
        },
        {
          "duration": 0.08771924999999925,
          "durationTicks": 96,
          "midi": 41,
          "name": "F2",
          "ticks": 33600,
          "time": 30.7017375,
          "velocity": 0.49606299212598426
        },
        {
          "duration": 0.08771924999999925,
          "durationTicks": 96,
          "midi": 45,
          "name": "A2",
          "ticks": 33600,
          "time": 30.7017375,
          "velocity": 0.49606299212598426
        },
        {
          "duration": 0.08771924999999925,
          "durationTicks": 96,
          "midi": 42,
          "name": "F#2",
          "ticks": 33600,
          "time": 30.7017375,
          "velocity": 0.49606299212598426
        },
        {
          "duration": 0.08771924999999925,
          "durationTicks": 96,
          "midi": 42,
          "name": "F#2",
          "ticks": 34368,
          "time": 31.4034915,
          "velocity": 0.49606299212598426
        },
        {
          "duration": 0.08771924999999925,
          "durationTicks": 96,
          "midi": 36,
          "name": "C2",
          "ticks": 34368,
          "time": 31.4034915,
          "velocity": 0.49606299212598426
        },
        {
          "duration": 0.08771924999999925,
          "durationTicks": 96,
          "midi": 41,
          "name": "F2",
          "ticks": 34368,
          "time": 31.4034915,
          "velocity": 0.49606299212598426
        },
        {
          "duration": 0.08771924999999925,
          "durationTicks": 96,
          "midi": 45,
          "name": "A2",
          "ticks": 34368,
          "time": 31.4034915,
          "velocity": 0.49606299212598426
        },
        {
          "duration": 0.08771924999999925,
          "durationTicks": 96,
          "midi": 41,
          "name": "F2",
          "ticks": 35136,
          "time": 32.1052455,
          "velocity": 0.49606299212598426
        },
        {
          "duration": 0.08771924999999925,
          "durationTicks": 96,
          "midi": 42,
          "name": "F#2",
          "ticks": 35136,
          "time": 32.1052455,
          "velocity": 0.49606299212598426
        },
        {
          "duration": 0.08771924999999925,
          "durationTicks": 96,
          "midi": 36,
          "name": "C2",
          "ticks": 35136,
          "time": 32.1052455,
          "velocity": 0.49606299212598426
        },
        {
          "duration": 0.08771924999999925,
          "durationTicks": 96,
          "midi": 45,
          "name": "A2",
          "ticks": 35136,
          "time": 32.1052455,
          "velocity": 0.49606299212598426
        },
        {
          "duration": 0.08771925000000635,
          "durationTicks": 96,
          "midi": 41,
          "name": "F2",
          "ticks": 35904,
          "time": 32.806999499999996,
          "velocity": 0.49606299212598426
        },
        {
          "duration": 0.08771925000000635,
          "durationTicks": 96,
          "midi": 45,
          "name": "A2",
          "ticks": 35904,
          "time": 32.806999499999996,
          "velocity": 0.49606299212598426
        },
        {
          "duration": 0.08771925000000635,
          "durationTicks": 96,
          "midi": 42,
          "name": "F#2",
          "ticks": 35904,
          "time": 32.806999499999996,
          "velocity": 0.49606299212598426
        },
        {
          "duration": 0.08771925000000635,
          "durationTicks": 96,
          "midi": 36,
          "name": "C2",
          "ticks": 35904,
          "time": 32.806999499999996,
          "velocity": 0.49606299212598426
        },
        {
          "duration": 0.08771924999999925,
          "durationTicks": 96,
          "midi": 42,
          "name": "F#2",
          "ticks": 36672,
          "time": 33.5087535,
          "velocity": 0.49606299212598426
        },
        {
          "duration": 0.08771924999999925,
          "durationTicks": 96,
          "midi": 36,
          "name": "C2",
          "ticks": 36672,
          "time": 33.5087535,
          "velocity": 0.49606299212598426
        },
        {
          "duration": 0.08771924999999925,
          "durationTicks": 96,
          "midi": 41,
          "name": "F2",
          "ticks": 36672,
          "time": 33.5087535,
          "velocity": 0.49606299212598426
        },
        {
          "duration": 0.08771924999999925,
          "durationTicks": 96,
          "midi": 45,
          "name": "A2",
          "ticks": 36672,
          "time": 33.5087535,
          "velocity": 0.49606299212598426
        },
        {
          "duration": 0.08771924999999925,
          "durationTicks": 96,
          "midi": 42,
          "name": "F#2",
          "ticks": 37440,
          "time": 34.2105075,
          "velocity": 0.49606299212598426
        },
        {
          "duration": 0.08771924999999925,
          "durationTicks": 96,
          "midi": 45,
          "name": "A2",
          "ticks": 37440,
          "time": 34.2105075,
          "velocity": 0.49606299212598426
        },
        {
          "duration": 0.08771924999999925,
          "durationTicks": 96,
          "midi": 41,
          "name": "F2",
          "ticks": 37440,
          "time": 34.2105075,
          "velocity": 0.49606299212598426
        },
        {
          "duration": 0.08771924999999925,
          "durationTicks": 96,
          "midi": 36,
          "name": "C2",
          "ticks": 37440,
          "time": 34.2105075,
          "velocity": 0.49606299212598426
        },
        {
          "duration": 0.08771924999999925,
          "durationTicks": 96,
          "midi": 45,
          "name": "A2",
          "ticks": 38208,
          "time": 34.9122615,
          "velocity": 0.49606299212598426
        },
        {
          "duration": 0.08771924999999925,
          "durationTicks": 96,
          "midi": 42,
          "name": "F#2",
          "ticks": 38208,
          "time": 34.9122615,
          "velocity": 0.49606299212598426
        },
        {
          "duration": 0.08771924999999925,
          "durationTicks": 96,
          "midi": 41,
          "name": "F2",
          "ticks": 38208,
          "time": 34.9122615,
          "velocity": 0.49606299212598426
        },
        {
          "duration": 0.08771924999999925,
          "durationTicks": 96,
          "midi": 36,
          "name": "C2",
          "ticks": 38208,
          "time": 34.9122615,
          "velocity": 0.49606299212598426
        },
        {
          "duration": 0.08771924999999925,
          "durationTicks": 96,
          "midi": 36,
          "name": "C2",
          "ticks": 38976,
          "time": 35.6140155,
          "velocity": 0.49606299212598426
        },
        {
          "duration": 0.08771924999999925,
          "durationTicks": 96,
          "midi": 41,
          "name": "F2",
          "ticks": 38976,
          "time": 35.6140155,
          "velocity": 0.49606299212598426
        },
        {
          "duration": 0.08771924999999925,
          "durationTicks": 96,
          "midi": 45,
          "name": "A2",
          "ticks": 38976,
          "time": 35.6140155,
          "velocity": 0.49606299212598426
        },
        {
          "duration": 0.08771924999999925,
          "durationTicks": 96,
          "midi": 42,
          "name": "F#2",
          "ticks": 38976,
          "time": 35.6140155,
          "velocity": 0.49606299212598426
        },
        {
          "duration": 0.08771924999999925,
          "durationTicks": 96,
          "midi": 42,
          "name": "F#2",
          "ticks": 39744,
          "time": 36.3157695,
          "velocity": 0.49606299212598426
        },
        {
          "duration": 0.08771924999999925,
          "durationTicks": 96,
          "midi": 45,
          "name": "A2",
          "ticks": 39744,
          "time": 36.3157695,
          "velocity": 0.49606299212598426
        },
        {
          "duration": 0.08771924999999925,
          "durationTicks": 96,
          "midi": 36,
          "name": "C2",
          "ticks": 39744,
          "time": 36.3157695,
          "velocity": 0.49606299212598426
        },
        {
          "duration": 0.08771924999999925,
          "durationTicks": 96,
          "midi": 41,
          "name": "F2",
          "ticks": 39744,
          "time": 36.3157695,
          "velocity": 0.49606299212598426
        },
        {
          "duration": 0.08771924999999925,
          "durationTicks": 96,
          "midi": 41,
          "name": "F2",
          "ticks": 40512,
          "time": 37.0175235,
          "velocity": 0.49606299212598426
        },
        {
          "duration": 0.08771924999999925,
          "durationTicks": 96,
          "midi": 45,
          "name": "A2",
          "ticks": 40512,
          "time": 37.0175235,
          "velocity": 0.49606299212598426
        },
        {
          "duration": 0.08771924999999925,
          "durationTicks": 96,
          "midi": 42,
          "name": "F#2",
          "ticks": 40512,
          "time": 37.0175235,
          "velocity": 0.49606299212598426
        },
        {
          "duration": 0.08771924999999925,
          "durationTicks": 96,
          "midi": 36,
          "name": "C2",
          "ticks": 40512,
          "time": 37.0175235,
          "velocity": 0.49606299212598426
        },
        {
          "duration": 0.08771924999999925,
          "durationTicks": 96,
          "midi": 41,
          "name": "F2",
          "ticks": 41280,
          "time": 37.7192775,
          "velocity": 0.49606299212598426
        },
        {
          "duration": 0.08771924999999925,
          "durationTicks": 96,
          "midi": 36,
          "name": "C2",
          "ticks": 41280,
          "time": 37.7192775,
          "velocity": 0.49606299212598426
        },
        {
          "duration": 0.08771924999999925,
          "durationTicks": 96,
          "midi": 45,
          "name": "A2",
          "ticks": 41280,
          "time": 37.7192775,
          "velocity": 0.49606299212598426
        },
        {
          "duration": 0.08771924999999925,
          "durationTicks": 96,
          "midi": 42,
          "name": "F#2",
          "ticks": 41280,
          "time": 37.7192775,
          "velocity": 0.49606299212598426
        },
        {
          "duration": 0.08771924999999925,
          "durationTicks": 96,
          "midi": 36,
          "name": "C2",
          "ticks": 42048,
          "time": 38.4210315,
          "velocity": 0.49606299212598426
        },
        {
          "duration": 0.08771924999999925,
          "durationTicks": 96,
          "midi": 42,
          "name": "F#2",
          "ticks": 42048,
          "time": 38.4210315,
          "velocity": 0.49606299212598426
        },
        {
          "duration": 0.08771924999999925,
          "durationTicks": 96,
          "midi": 45,
          "name": "A2",
          "ticks": 42048,
          "time": 38.4210315,
          "velocity": 0.49606299212598426
        },
        {
          "duration": 0.08771924999999925,
          "durationTicks": 96,
          "midi": 41,
          "name": "F2",
          "ticks": 42048,
          "time": 38.4210315,
          "velocity": 0.49606299212598426
        },
        {
          "duration": 0.08771924999999925,
          "durationTicks": 96,
          "midi": 41,
          "name": "F2",
          "ticks": 42816,
          "time": 39.1227855,
          "velocity": 0.49606299212598426
        },
        {
          "duration": 0.08771924999999925,
          "durationTicks": 96,
          "midi": 42,
          "name": "F#2",
          "ticks": 42816,
          "time": 39.1227855,
          "velocity": 0.49606299212598426
        },
        {
          "duration": 0.08771924999999925,
          "durationTicks": 96,
          "midi": 36,
          "name": "C2",
          "ticks": 42816,
          "time": 39.1227855,
          "velocity": 0.49606299212598426
        },
        {
          "duration": 0.08771924999999925,
          "durationTicks": 96,
          "midi": 45,
          "name": "A2",
          "ticks": 42816,
          "time": 39.1227855,
          "velocity": 0.49606299212598426
        },
        {
          "duration": 0.08771924999999925,
          "durationTicks": 96,
          "midi": 42,
          "name": "F#2",
          "ticks": 43584,
          "time": 39.8245395,
          "velocity": 0.49606299212598426
        },
        {
          "duration": 0.08771924999999925,
          "durationTicks": 96,
          "midi": 41,
          "name": "F2",
          "ticks": 43584,
          "time": 39.8245395,
          "velocity": 0.49606299212598426
        },
        {
          "duration": 0.08771924999999925,
          "durationTicks": 96,
          "midi": 36,
          "name": "C2",
          "ticks": 43584,
          "time": 39.8245395,
          "velocity": 0.49606299212598426
        },
        {
          "duration": 0.08771924999999925,
          "durationTicks": 96,
          "midi": 45,
          "name": "A2",
          "ticks": 43584,
          "time": 39.8245395,
          "velocity": 0.49606299212598426
        },
        {
          "duration": 0.08771924999999925,
          "durationTicks": 96,
          "midi": 42,
          "name": "F#2",
          "ticks": 44352,
          "time": 40.5262935,
          "velocity": 0.49606299212598426
        },
        {
          "duration": 0.08771924999999925,
          "durationTicks": 96,
          "midi": 45,
          "name": "A2",
          "ticks": 44352,
          "time": 40.5262935,
          "velocity": 0.49606299212598426
        },
        {
          "duration": 0.08771924999999925,
          "durationTicks": 96,
          "midi": 36,
          "name": "C2",
          "ticks": 44352,
          "time": 40.5262935,
          "velocity": 0.49606299212598426
        },
        {
          "duration": 0.08771924999999925,
          "durationTicks": 96,
          "midi": 41,
          "name": "F2",
          "ticks": 44352,
          "time": 40.5262935,
          "velocity": 0.49606299212598426
        },
        {
          "duration": 0.08771924999999925,
          "durationTicks": 96,
          "midi": 41,
          "name": "F2",
          "ticks": 45120,
          "time": 41.2280475,
          "velocity": 0.49606299212598426
        },
        {
          "duration": 0.08771924999999925,
          "durationTicks": 96,
          "midi": 36,
          "name": "C2",
          "ticks": 45120,
          "time": 41.2280475,
          "velocity": 0.49606299212598426
        },
        {
          "duration": 0.08771924999999925,
          "durationTicks": 96,
          "midi": 42,
          "name": "F#2",
          "ticks": 45120,
          "time": 41.2280475,
          "velocity": 0.49606299212598426
        },
        {
          "duration": 0.08771924999999925,
          "durationTicks": 96,
          "midi": 45,
          "name": "A2",
          "ticks": 45120,
          "time": 41.2280475,
          "velocity": 0.49606299212598426
        },
        {
          "duration": 0.08771925000000635,
          "durationTicks": 96,
          "midi": 36,
          "name": "C2",
          "ticks": 45888,
          "time": 41.929801499999996,
          "velocity": 0.49606299212598426
        },
        {
          "duration": 0.08771925000000635,
          "durationTicks": 96,
          "midi": 41,
          "name": "F2",
          "ticks": 45888,
          "time": 41.929801499999996,
          "velocity": 0.49606299212598426
        },
        {
          "duration": 0.08771925000000635,
          "durationTicks": 96,
          "midi": 42,
          "name": "F#2",
          "ticks": 45888,
          "time": 41.929801499999996,
          "velocity": 0.49606299212598426
        },
        {
          "duration": 0.08771925000000635,
          "durationTicks": 96,
          "midi": 45,
          "name": "A2",
          "ticks": 45888,
          "time": 41.929801499999996,
          "velocity": 0.49606299212598426
        },
        {
          "duration": 0.08771924999999925,
          "durationTicks": 96,
          "midi": 36,
          "name": "C2",
          "ticks": 46656,
          "time": 42.6315555,
          "velocity": 0.49606299212598426
        },
        {
          "duration": 0.08771924999999925,
          "durationTicks": 96,
          "midi": 45,
          "name": "A2",
          "ticks": 46656,
          "time": 42.6315555,
          "velocity": 0.49606299212598426
        },
        {
          "duration": 0.08771924999999925,
          "durationTicks": 96,
          "midi": 41,
          "name": "F2",
          "ticks": 46656,
          "time": 42.6315555,
          "velocity": 0.49606299212598426
        },
        {
          "duration": 0.08771924999999925,
          "durationTicks": 96,
          "midi": 42,
          "name": "F#2",
          "ticks": 46656,
          "time": 42.6315555,
          "velocity": 0.49606299212598426
        },
        {
          "duration": 0.08771924999999925,
          "durationTicks": 96,
          "midi": 41,
          "name": "F2",
          "ticks": 47424,
          "time": 43.3333095,
          "velocity": 0.49606299212598426
        },
        {
          "duration": 0.08771924999999925,
          "durationTicks": 96,
          "midi": 42,
          "name": "F#2",
          "ticks": 47424,
          "time": 43.3333095,
          "velocity": 0.49606299212598426
        },
        {
          "duration": 0.08771924999999925,
          "durationTicks": 96,
          "midi": 36,
          "name": "C2",
          "ticks": 47424,
          "time": 43.3333095,
          "velocity": 0.49606299212598426
        },
        {
          "duration": 0.08771924999999925,
          "durationTicks": 96,
          "midi": 45,
          "name": "A2",
          "ticks": 47424,
          "time": 43.3333095,
          "velocity": 0.49606299212598426
        },
        {
          "duration": 0.08771924999999925,
          "durationTicks": 96,
          "midi": 42,
          "name": "F#2",
          "ticks": 48192,
          "time": 44.0350635,
          "velocity": 0.49606299212598426
        },
        {
          "duration": 0.08771924999999925,
          "durationTicks": 96,
          "midi": 45,
          "name": "A2",
          "ticks": 48192,
          "time": 44.0350635,
          "velocity": 0.49606299212598426
        },
        {
          "duration": 0.08771924999999925,
          "durationTicks": 96,
          "midi": 36,
          "name": "C2",
          "ticks": 48192,
          "time": 44.0350635,
          "velocity": 0.49606299212598426
        },
        {
          "duration": 0.08771924999999925,
          "durationTicks": 96,
          "midi": 41,
          "name": "F2",
          "ticks": 48192,
          "time": 44.0350635,
          "velocity": 0.49606299212598426
        },
        {
          "duration": 0.08771924999999925,
          "durationTicks": 96,
          "midi": 36,
          "name": "C2",
          "ticks": 48960,
          "time": 44.7368175,
          "velocity": 0.49606299212598426
        },
        {
          "duration": 0.08771924999999925,
          "durationTicks": 96,
          "midi": 42,
          "name": "F#2",
          "ticks": 48960,
          "time": 44.7368175,
          "velocity": 0.49606299212598426
        },
        {
          "duration": 0.08771924999999925,
          "durationTicks": 96,
          "midi": 45,
          "name": "A2",
          "ticks": 48960,
          "time": 44.7368175,
          "velocity": 0.49606299212598426
        },
        {
          "duration": 0.08771924999999925,
          "durationTicks": 96,
          "midi": 41,
          "name": "F2",
          "ticks": 48960,
          "time": 44.7368175,
          "velocity": 0.49606299212598426
        },
        {
          "duration": 0.08771924999999925,
          "durationTicks": 96,
          "midi": 36,
          "name": "C2",
          "ticks": 49344,
          "time": 45.0876945,
          "velocity": 0.49606299212598426
        },
        {
          "duration": 0.08771924999999925,
          "durationTicks": 96,
          "midi": 47,
          "name": "B2",
          "ticks": 50112,
          "time": 45.7894485,
          "velocity": 0.49606299212598426
        },
        {
          "duration": 0.08771924999999925,
          "durationTicks": 96,
          "midi": 35,
          "name": "B1",
          "ticks": 50112,
          "time": 45.7894485,
          "velocity": 0.49606299212598426
        },
        {
          "duration": 0.08771924999999925,
          "durationTicks": 96,
          "midi": 36,
          "name": "C2",
          "ticks": 50112,
          "time": 45.7894485,
          "velocity": 0.49606299212598426
        },
        {
          "duration": 0.08771924999999925,
          "durationTicks": 96,
          "midi": 41,
          "name": "F2",
          "ticks": 50112,
          "time": 45.7894485,
          "velocity": 0.49606299212598426
        },
        {
          "duration": 0.08771924999999925,
          "durationTicks": 96,
          "midi": 42,
          "name": "F#2",
          "ticks": 50112,
          "time": 45.7894485,
          "velocity": 0.49606299212598426
        },
        {
          "duration": 0.08771924999999925,
          "durationTicks": 96,
          "midi": 36,
          "name": "C2",
          "ticks": 50880,
          "time": 46.4912025,
          "velocity": 0.49606299212598426
        },
        {
          "duration": 0.08771924999999925,
          "durationTicks": 96,
          "midi": 36,
          "name": "C2",
          "ticks": 51648,
          "time": 47.1929565,
          "velocity": 0.49606299212598426
        },
        {
          "duration": 0.08771924999999925,
          "durationTicks": 96,
          "midi": 42,
          "name": "F#2",
          "ticks": 51648,
          "time": 47.1929565,
          "velocity": 0.49606299212598426
        },
        {
          "duration": 0.08771924999999925,
          "durationTicks": 96,
          "midi": 47,
          "name": "B2",
          "ticks": 51648,
          "time": 47.1929565,
          "velocity": 0.49606299212598426
        },
        {
          "duration": 0.08771924999999925,
          "durationTicks": 96,
          "midi": 41,
          "name": "F2",
          "ticks": 51648,
          "time": 47.1929565,
          "velocity": 0.49606299212598426
        },
        {
          "duration": 0.08771924999999925,
          "durationTicks": 96,
          "midi": 35,
          "name": "B1",
          "ticks": 51648,
          "time": 47.1929565,
          "velocity": 0.49606299212598426
        },
        {
          "duration": 0.08771924999999925,
          "durationTicks": 96,
          "midi": 36,
          "name": "C2",
          "ticks": 52416,
          "time": 47.8947105,
          "velocity": 0.49606299212598426
        },
        {
          "duration": 0.08771925000000635,
          "durationTicks": 96,
          "midi": 36,
          "name": "C2",
          "ticks": 53184,
          "time": 48.596464499999996,
          "velocity": 0.49606299212598426
        },
        {
          "duration": 0.08771925000000635,
          "durationTicks": 96,
          "midi": 41,
          "name": "F2",
          "ticks": 53184,
          "time": 48.596464499999996,
          "velocity": 0.49606299212598426
        },
        {
          "duration": 0.08771925000000635,
          "durationTicks": 96,
          "midi": 42,
          "name": "F#2",
          "ticks": 53184,
          "time": 48.596464499999996,
          "velocity": 0.49606299212598426
        },
        {
          "duration": 0.08771925000000635,
          "durationTicks": 96,
          "midi": 47,
          "name": "B2",
          "ticks": 53184,
          "time": 48.596464499999996,
          "velocity": 0.49606299212598426
        },
        {
          "duration": 0.08771925000000635,
          "durationTicks": 96,
          "midi": 35,
          "name": "B1",
          "ticks": 53184,
          "time": 48.596464499999996,
          "velocity": 0.49606299212598426
        },
        {
          "duration": 0.08771924999999925,
          "durationTicks": 96,
          "midi": 36,
          "name": "C2",
          "ticks": 53952,
          "time": 49.2982185,
          "velocity": 0.49606299212598426
        },
        {
          "duration": 0.08771924999999925,
          "durationTicks": 96,
          "midi": 41,
          "name": "F2",
          "ticks": 54720,
          "time": 49.9999725,
          "velocity": 0.49606299212598426
        },
        {
          "duration": 0.08771924999999925,
          "durationTicks": 96,
          "midi": 35,
          "name": "B1",
          "ticks": 54720,
          "time": 49.9999725,
          "velocity": 0.49606299212598426
        },
        {
          "duration": 0.08771924999999925,
          "durationTicks": 96,
          "midi": 36,
          "name": "C2",
          "ticks": 54720,
          "time": 49.9999725,
          "velocity": 0.49606299212598426
        },
        {
          "duration": 0.08771924999999925,
          "durationTicks": 96,
          "midi": 42,
          "name": "F#2",
          "ticks": 54720,
          "time": 49.9999725,
          "velocity": 0.49606299212598426
        },
        {
          "duration": 0.08771924999999925,
          "durationTicks": 96,
          "midi": 47,
          "name": "B2",
          "ticks": 54720,
          "time": 49.9999725,
          "velocity": 0.49606299212598426
        },
        {
          "duration": 0.08771924999999925,
          "durationTicks": 96,
          "midi": 36,
          "name": "C2",
          "ticks": 55488,
          "time": 50.7017265,
          "velocity": 0.49606299212598426
        },
        {
          "duration": 0.08771924999999925,
          "durationTicks": 96,
          "midi": 42,
          "name": "F#2",
          "ticks": 56256,
          "time": 51.4034805,
          "velocity": 0.49606299212598426
        },
        {
          "duration": 0.08771924999999925,
          "durationTicks": 96,
          "midi": 36,
          "name": "C2",
          "ticks": 56256,
          "time": 51.4034805,
          "velocity": 0.49606299212598426
        },
        {
          "duration": 0.08771924999999925,
          "durationTicks": 96,
          "midi": 41,
          "name": "F2",
          "ticks": 56256,
          "time": 51.4034805,
          "velocity": 0.49606299212598426
        },
        {
          "duration": 0.08771924999999925,
          "durationTicks": 96,
          "midi": 35,
          "name": "B1",
          "ticks": 56256,
          "time": 51.4034805,
          "velocity": 0.49606299212598426
        },
        {
          "duration": 0.08771924999999925,
          "durationTicks": 96,
          "midi": 47,
          "name": "B2",
          "ticks": 56256,
          "time": 51.4034805,
          "velocity": 0.49606299212598426
        },
        {
          "duration": 0.08771924999999925,
          "durationTicks": 96,
          "midi": 36,
          "name": "C2",
          "ticks": 57024,
          "time": 52.1052345,
          "velocity": 0.49606299212598426
        },
        {
          "duration": 0.08771925000000635,
          "durationTicks": 96,
          "midi": 47,
          "name": "B2",
          "ticks": 57792,
          "time": 52.806988499999996,
          "velocity": 0.49606299212598426
        },
        {
          "duration": 0.08771925000000635,
          "durationTicks": 96,
          "midi": 36,
          "name": "C2",
          "ticks": 57792,
          "time": 52.806988499999996,
          "velocity": 0.49606299212598426
        },
        {
          "duration": 0.08771925000000635,
          "durationTicks": 96,
          "midi": 41,
          "name": "F2",
          "ticks": 57792,
          "time": 52.806988499999996,
          "velocity": 0.49606299212598426
        },
        {
          "duration": 0.08771925000000635,
          "durationTicks": 96,
          "midi": 35,
          "name": "B1",
          "ticks": 57792,
          "time": 52.806988499999996,
          "velocity": 0.49606299212598426
        },
        {
          "duration": 0.08771925000000635,
          "durationTicks": 96,
          "midi": 42,
          "name": "F#2",
          "ticks": 57792,
          "time": 52.806988499999996,
          "velocity": 0.49606299212598426
        },
        {
          "duration": 0.08771924999999925,
          "durationTicks": 96,
          "midi": 36,
          "name": "C2",
          "ticks": 58560,
          "time": 53.5087425,
          "velocity": 0.49606299212598426
        },
        {
          "duration": 0.08771924999999925,
          "durationTicks": 96,
          "midi": 42,
          "name": "F#2",
          "ticks": 59328,
          "time": 54.2104965,
          "velocity": 0.49606299212598426
        },
        {
          "duration": 0.08771924999999925,
          "durationTicks": 96,
          "midi": 41,
          "name": "F2",
          "ticks": 59328,
          "time": 54.2104965,
          "velocity": 0.49606299212598426
        },
        {
          "duration": 0.08771924999999925,
          "durationTicks": 96,
          "midi": 47,
          "name": "B2",
          "ticks": 59328,
          "time": 54.2104965,
          "velocity": 0.49606299212598426
        },
        {
          "duration": 0.08771924999999925,
          "durationTicks": 96,
          "midi": 36,
          "name": "C2",
          "ticks": 59328,
          "time": 54.2104965,
          "velocity": 0.49606299212598426
        },
        {
          "duration": 0.08771924999999925,
          "durationTicks": 96,
          "midi": 35,
          "name": "B1",
          "ticks": 59328,
          "time": 54.2104965,
          "velocity": 0.49606299212598426
        },
        {
          "duration": 0.08771924999999925,
          "durationTicks": 96,
          "midi": 36,
          "name": "C2",
          "ticks": 60096,
          "time": 54.9122505,
          "velocity": 0.49606299212598426
        },
        {
          "duration": 0.08771924999999925,
          "durationTicks": 96,
          "midi": 47,
          "name": "B2",
          "ticks": 60864,
          "time": 55.6140045,
          "velocity": 0.49606299212598426
        },
        {
          "duration": 0.08771924999999925,
          "durationTicks": 96,
          "midi": 36,
          "name": "C2",
          "ticks": 60864,
          "time": 55.6140045,
          "velocity": 0.49606299212598426
        },
        {
          "duration": 0.08771924999999925,
          "durationTicks": 96,
          "midi": 35,
          "name": "B1",
          "ticks": 60864,
          "time": 55.6140045,
          "velocity": 0.49606299212598426
        },
        {
          "duration": 0.08771924999999925,
          "durationTicks": 96,
          "midi": 42,
          "name": "F#2",
          "ticks": 60864,
          "time": 55.6140045,
          "velocity": 0.49606299212598426
        },
        {
          "duration": 0.08771924999999925,
          "durationTicks": 96,
          "midi": 41,
          "name": "F2",
          "ticks": 60864,
          "time": 55.6140045,
          "velocity": 0.49606299212598426
        },
        {
          "duration": 0.08771924999999925,
          "durationTicks": 96,
          "midi": 36,
          "name": "C2",
          "ticks": 61632,
          "time": 56.3157585,
          "velocity": 0.49606299212598426
        },
        {
          "duration": 0.08771924999999925,
          "durationTicks": 96,
          "midi": 35,
          "name": "B1",
          "ticks": 62400,
          "time": 57.0175125,
          "velocity": 0.49606299212598426
        },
        {
          "duration": 0.08771924999999925,
          "durationTicks": 96,
          "midi": 42,
          "name": "F#2",
          "ticks": 62400,
          "time": 57.0175125,
          "velocity": 0.49606299212598426
        },
        {
          "duration": 0.08771924999999925,
          "durationTicks": 96,
          "midi": 36,
          "name": "C2",
          "ticks": 62400,
          "time": 57.0175125,
          "velocity": 0.49606299212598426
        },
        {
          "duration": 0.08771924999999925,
          "durationTicks": 96,
          "midi": 41,
          "name": "F2",
          "ticks": 62400,
          "time": 57.0175125,
          "velocity": 0.49606299212598426
        },
        {
          "duration": 0.08771924999999925,
          "durationTicks": 96,
          "midi": 47,
          "name": "B2",
          "ticks": 62400,
          "time": 57.0175125,
          "velocity": 0.49606299212598426
        },
        {
          "duration": 0.08771925000000635,
          "durationTicks": 96,
          "midi": 36,
          "name": "C2",
          "ticks": 63168,
          "time": 57.719266499999996,
          "velocity": 0.49606299212598426
        },
        {
          "duration": 0.08771924999999925,
          "durationTicks": 96,
          "midi": 35,
          "name": "B1",
          "ticks": 63936,
          "time": 58.4210205,
          "velocity": 0.49606299212598426
        },
        {
          "duration": 0.08771924999999925,
          "durationTicks": 96,
          "midi": 41,
          "name": "F2",
          "ticks": 63936,
          "time": 58.4210205,
          "velocity": 0.49606299212598426
        },
        {
          "duration": 0.08771924999999925,
          "durationTicks": 96,
          "midi": 42,
          "name": "F#2",
          "ticks": 63936,
          "time": 58.4210205,
          "velocity": 0.49606299212598426
        },
        {
          "duration": 0.08771924999999925,
          "durationTicks": 96,
          "midi": 36,
          "name": "C2",
          "ticks": 63936,
          "time": 58.4210205,
          "velocity": 0.49606299212598426
        },
        {
          "duration": 0.08771924999999925,
          "durationTicks": 96,
          "midi": 47,
          "name": "B2",
          "ticks": 63936,
          "time": 58.4210205,
          "velocity": 0.49606299212598426
        },
        {
          "duration": 0.08771924999999925,
          "durationTicks": 96,
          "midi": 36,
          "name": "C2",
          "ticks": 64704,
          "time": 59.1227745,
          "velocity": 0.49606299212598426
        },
        {
          "duration": 0.08771924999999925,
          "durationTicks": 96,
          "midi": 35,
          "name": "B1",
          "ticks": 65472,
          "time": 59.8245285,
          "velocity": 0.49606299212598426
        },
        {
          "duration": 0.08771924999999925,
          "durationTicks": 96,
          "midi": 47,
          "name": "B2",
          "ticks": 65472,
          "time": 59.8245285,
          "velocity": 0.49606299212598426
        },
        {
          "duration": 0.08771924999999925,
          "durationTicks": 96,
          "midi": 36,
          "name": "C2",
          "ticks": 65472,
          "time": 59.8245285,
          "velocity": 0.49606299212598426
        },
        {
          "duration": 0.08771924999999925,
          "durationTicks": 96,
          "midi": 41,
          "name": "F2",
          "ticks": 65472,
          "time": 59.8245285,
          "velocity": 0.49606299212598426
        },
        {
          "duration": 0.08771924999999925,
          "durationTicks": 96,
          "midi": 42,
          "name": "F#2",
          "ticks": 65472,
          "time": 59.8245285,
          "velocity": 0.49606299212598426
        },
        {
          "duration": 0.08771924999999925,
          "durationTicks": 96,
          "midi": 36,
          "name": "C2",
          "ticks": 66240,
          "time": 60.5262825,
          "velocity": 0.49606299212598426
        },
        {
          "duration": 0.08771924999999925,
          "durationTicks": 96,
          "midi": 36,
          "name": "C2",
          "ticks": 67008,
          "time": 61.2280365,
          "velocity": 0.49606299212598426
        },
        {
          "duration": 0.08771924999999925,
          "durationTicks": 96,
          "midi": 41,
          "name": "F2",
          "ticks": 67008,
          "time": 61.2280365,
          "velocity": 0.49606299212598426
        },
        {
          "duration": 0.08771924999999925,
          "durationTicks": 96,
          "midi": 42,
          "name": "F#2",
          "ticks": 67008,
          "time": 61.2280365,
          "velocity": 0.49606299212598426
        },
        {
          "duration": 0.08771924999999925,
          "durationTicks": 96,
          "midi": 47,
          "name": "B2",
          "ticks": 67008,
          "time": 61.2280365,
          "velocity": 0.49606299212598426
        },
        {
          "duration": 0.08771924999999925,
          "durationTicks": 96,
          "midi": 35,
          "name": "B1",
          "ticks": 67008,
          "time": 61.2280365,
          "velocity": 0.49606299212598426
        },
        {
          "duration": 0.08771925000000635,
          "durationTicks": 96,
          "midi": 36,
          "name": "C2",
          "ticks": 67776,
          "time": 61.929790499999996,
          "velocity": 0.49606299212598426
        },
        {
          "duration": 0.08771924999999925,
          "durationTicks": 96,
          "midi": 41,
          "name": "F2",
          "ticks": 68544,
          "time": 62.6315445,
          "velocity": 0.49606299212598426
        },
        {
          "duration": 0.08771924999999925,
          "durationTicks": 96,
          "midi": 35,
          "name": "B1",
          "ticks": 68544,
          "time": 62.6315445,
          "velocity": 0.49606299212598426
        },
        {
          "duration": 0.08771924999999925,
          "durationTicks": 96,
          "midi": 36,
          "name": "C2",
          "ticks": 68544,
          "time": 62.6315445,
          "velocity": 0.49606299212598426
        },
        {
          "duration": 0.08771924999999925,
          "durationTicks": 96,
          "midi": 47,
          "name": "B2",
          "ticks": 68544,
          "time": 62.6315445,
          "velocity": 0.49606299212598426
        },
        {
          "duration": 0.08771924999999925,
          "durationTicks": 96,
          "midi": 42,
          "name": "F#2",
          "ticks": 68544,
          "time": 62.6315445,
          "velocity": 0.49606299212598426
        },
        {
          "duration": 0.08771924999999925,
          "durationTicks": 96,
          "midi": 36,
          "name": "C2",
          "ticks": 69312,
          "time": 63.3332985,
          "velocity": 0.49606299212598426
        },
        {
          "duration": 0.08771925000000635,
          "durationTicks": 96,
          "midi": 47,
          "name": "B2",
          "ticks": 70080,
          "time": 64.03505249999999,
          "velocity": 0.49606299212598426
        },
        {
          "duration": 0.08771925000000635,
          "durationTicks": 96,
          "midi": 41,
          "name": "F2",
          "ticks": 70080,
          "time": 64.03505249999999,
          "velocity": 0.49606299212598426
        },
        {
          "duration": 0.08771925000000635,
          "durationTicks": 96,
          "midi": 35,
          "name": "B1",
          "ticks": 70080,
          "time": 64.03505249999999,
          "velocity": 0.49606299212598426
        },
        {
          "duration": 0.08771925000000635,
          "durationTicks": 96,
          "midi": 36,
          "name": "C2",
          "ticks": 70080,
          "time": 64.03505249999999,
          "velocity": 0.49606299212598426
        },
        {
          "duration": 0.08771925000000635,
          "durationTicks": 96,
          "midi": 42,
          "name": "F#2",
          "ticks": 70080,
          "time": 64.03505249999999,
          "velocity": 0.49606299212598426
        },
        {
          "duration": 0.08771924999999214,
          "durationTicks": 96,
          "midi": 36,
          "name": "C2",
          "ticks": 70848,
          "time": 64.7368065,
          "velocity": 0.49606299212598426
        },
        {
          "duration": 0.08771925000000635,
          "durationTicks": 96,
          "midi": 35,
          "name": "B1",
          "ticks": 71616,
          "time": 65.4385605,
          "velocity": 0.49606299212598426
        },
        {
          "duration": 0.08771925000000635,
          "durationTicks": 96,
          "midi": 42,
          "name": "F#2",
          "ticks": 71616,
          "time": 65.4385605,
          "velocity": 0.49606299212598426
        },
        {
          "duration": 0.08771925000000635,
          "durationTicks": 96,
          "midi": 36,
          "name": "C2",
          "ticks": 71616,
          "time": 65.4385605,
          "velocity": 0.49606299212598426
        },
        {
          "duration": 0.08771925000000635,
          "durationTicks": 96,
          "midi": 47,
          "name": "B2",
          "ticks": 71616,
          "time": 65.4385605,
          "velocity": 0.49606299212598426
        },
        {
          "duration": 0.08771925000000635,
          "durationTicks": 96,
          "midi": 41,
          "name": "F2",
          "ticks": 71616,
          "time": 65.4385605,
          "velocity": 0.49606299212598426
        },
        {
          "duration": 0.08771925000000635,
          "durationTicks": 96,
          "midi": 42,
          "name": "F#2",
          "ticks": 74400,
          "time": 67.98241875,
          "velocity": 0.49606299212598426
        },
        {
          "duration": 0.08771925000000635,
          "durationTicks": 96,
          "midi": 45,
          "name": "A2",
          "ticks": 74400,
          "time": 67.98241875,
          "velocity": 0.49606299212598426
        },
        {
          "duration": 0.08771925000000635,
          "durationTicks": 96,
          "midi": 36,
          "name": "C2",
          "ticks": 74400,
          "time": 67.98241875,
          "velocity": 0.49606299212598426
        },
        {
          "duration": 0.08771925000000635,
          "durationTicks": 96,
          "midi": 41,
          "name": "F2",
          "ticks": 74400,
          "time": 67.98241875,
          "velocity": 0.49606299212598426
        },
        {
          "duration": 0.08771924999999214,
          "durationTicks": 96,
          "midi": 36,
          "name": "C2",
          "ticks": 75168,
          "time": 68.68417275,
          "velocity": 0.49606299212598426
        },
        {
          "duration": 0.08771924999999214,
          "durationTicks": 96,
          "midi": 42,
          "name": "F#2",
          "ticks": 75168,
          "time": 68.68417275,
          "velocity": 0.49606299212598426
        },
        {
          "duration": 0.08771924999999214,
          "durationTicks": 96,
          "midi": 45,
          "name": "A2",
          "ticks": 75168,
          "time": 68.68417275,
          "velocity": 0.49606299212598426
        },
        {
          "duration": 0.08771924999999214,
          "durationTicks": 96,
          "midi": 41,
          "name": "F2",
          "ticks": 75168,
          "time": 68.68417275,
          "velocity": 0.49606299212598426
        },
        {
          "duration": 0.08771925000000635,
          "durationTicks": 96,
          "midi": 41,
          "name": "F2",
          "ticks": 75936,
          "time": 69.38592675,
          "velocity": 0.49606299212598426
        },
        {
          "duration": 0.08771925000000635,
          "durationTicks": 96,
          "midi": 42,
          "name": "F#2",
          "ticks": 75936,
          "time": 69.38592675,
          "velocity": 0.49606299212598426
        },
        {
          "duration": 0.08771925000000635,
          "durationTicks": 96,
          "midi": 45,
          "name": "A2",
          "ticks": 75936,
          "time": 69.38592675,
          "velocity": 0.49606299212598426
        },
        {
          "duration": 0.08771925000000635,
          "durationTicks": 96,
          "midi": 36,
          "name": "C2",
          "ticks": 75936,
          "time": 69.38592675,
          "velocity": 0.49606299212598426
        },
        {
          "duration": 0.08771924999999214,
          "durationTicks": 96,
          "midi": 41,
          "name": "F2",
          "ticks": 76704,
          "time": 70.08768075,
          "velocity": 0.49606299212598426
        },
        {
          "duration": 0.08771924999999214,
          "durationTicks": 96,
          "midi": 42,
          "name": "F#2",
          "ticks": 76704,
          "time": 70.08768075,
          "velocity": 0.49606299212598426
        },
        {
          "duration": 0.08771924999999214,
          "durationTicks": 96,
          "midi": 45,
          "name": "A2",
          "ticks": 76704,
          "time": 70.08768075,
          "velocity": 0.49606299212598426
        },
        {
          "duration": 0.08771924999999214,
          "durationTicks": 96,
          "midi": 36,
          "name": "C2",
          "ticks": 76704,
          "time": 70.08768075,
          "velocity": 0.49606299212598426
        },
        {
          "duration": 0.08771925000000635,
          "durationTicks": 96,
          "midi": 45,
          "name": "A2",
          "ticks": 77472,
          "time": 70.78943475,
          "velocity": 0.49606299212598426
        },
        {
          "duration": 0.08771925000000635,
          "durationTicks": 96,
          "midi": 41,
          "name": "F2",
          "ticks": 77472,
          "time": 70.78943475,
          "velocity": 0.49606299212598426
        },
        {
          "duration": 0.08771925000000635,
          "durationTicks": 96,
          "midi": 36,
          "name": "C2",
          "ticks": 77472,
          "time": 70.78943475,
          "velocity": 0.49606299212598426
        },
        {
          "duration": 0.08771925000000635,
          "durationTicks": 96,
          "midi": 42,
          "name": "F#2",
          "ticks": 77472,
          "time": 70.78943475,
          "velocity": 0.49606299212598426
        },
        {
          "duration": 0.08771925000000635,
          "durationTicks": 96,
          "midi": 36,
          "name": "C2",
          "ticks": 78240,
          "time": 71.49118874999999,
          "velocity": 0.49606299212598426
        },
        {
          "duration": 0.08771925000000635,
          "durationTicks": 96,
          "midi": 42,
          "name": "F#2",
          "ticks": 78240,
          "time": 71.49118874999999,
          "velocity": 0.49606299212598426
        },
        {
          "duration": 0.08771925000000635,
          "durationTicks": 96,
          "midi": 45,
          "name": "A2",
          "ticks": 78240,
          "time": 71.49118874999999,
          "velocity": 0.49606299212598426
        },
        {
          "duration": 0.08771925000000635,
          "durationTicks": 96,
          "midi": 41,
          "name": "F2",
          "ticks": 78240,
          "time": 71.49118874999999,
          "velocity": 0.49606299212598426
        },
        {
          "duration": 0.08771924999999214,
          "durationTicks": 96,
          "midi": 41,
          "name": "F2",
          "ticks": 79008,
          "time": 72.19294275,
          "velocity": 0.49606299212598426
        },
        {
          "duration": 0.08771924999999214,
          "durationTicks": 96,
          "midi": 36,
          "name": "C2",
          "ticks": 79008,
          "time": 72.19294275,
          "velocity": 0.49606299212598426
        },
        {
          "duration": 0.08771924999999214,
          "durationTicks": 96,
          "midi": 42,
          "name": "F#2",
          "ticks": 79008,
          "time": 72.19294275,
          "velocity": 0.49606299212598426
        },
        {
          "duration": 0.08771924999999214,
          "durationTicks": 96,
          "midi": 45,
          "name": "A2",
          "ticks": 79008,
          "time": 72.19294275,
          "velocity": 0.49606299212598426
        },
        {
          "duration": 0.08771925000000635,
          "durationTicks": 96,
          "midi": 36,
          "name": "C2",
          "ticks": 79776,
          "time": 72.89469675,
          "velocity": 0.49606299212598426
        },
        {
          "duration": 0.08771925000000635,
          "durationTicks": 96,
          "midi": 41,
          "name": "F2",
          "ticks": 79776,
          "time": 72.89469675,
          "velocity": 0.49606299212598426
        },
        {
          "duration": 0.08771925000000635,
          "durationTicks": 96,
          "midi": 45,
          "name": "A2",
          "ticks": 79776,
          "time": 72.89469675,
          "velocity": 0.49606299212598426
        },
        {
          "duration": 0.08771925000000635,
          "durationTicks": 96,
          "midi": 42,
          "name": "F#2",
          "ticks": 79776,
          "time": 72.89469675,
          "velocity": 0.49606299212598426
        },
        {
          "duration": 0.08771924999999214,
          "durationTicks": 96,
          "midi": 45,
          "name": "A2",
          "ticks": 80544,
          "time": 73.59645075,
          "velocity": 0.49606299212598426
        },
        {
          "duration": 0.08771924999999214,
          "durationTicks": 96,
          "midi": 42,
          "name": "F#2",
          "ticks": 80544,
          "time": 73.59645075,
          "velocity": 0.49606299212598426
        },
        {
          "duration": 0.08771924999999214,
          "durationTicks": 96,
          "midi": 41,
          "name": "F2",
          "ticks": 80544,
          "time": 73.59645075,
          "velocity": 0.49606299212598426
        },
        {
          "duration": 0.08771924999999214,
          "durationTicks": 96,
          "midi": 36,
          "name": "C2",
          "ticks": 80544,
          "time": 73.59645075,
          "velocity": 0.49606299212598426
        },
        {
          "duration": 0.08771925000000635,
          "durationTicks": 96,
          "midi": 41,
          "name": "F2",
          "ticks": 81312,
          "time": 74.29820475,
          "velocity": 0.49606299212598426
        },
        {
          "duration": 0.08771925000000635,
          "durationTicks": 96,
          "midi": 36,
          "name": "C2",
          "ticks": 81312,
          "time": 74.29820475,
          "velocity": 0.49606299212598426
        },
        {
          "duration": 0.08771925000000635,
          "durationTicks": 96,
          "midi": 45,
          "name": "A2",
          "ticks": 81312,
          "time": 74.29820475,
          "velocity": 0.49606299212598426
        },
        {
          "duration": 0.08771925000000635,
          "durationTicks": 96,
          "midi": 42,
          "name": "F#2",
          "ticks": 81312,
          "time": 74.29820475,
          "velocity": 0.49606299212598426
        },
        {
          "duration": 0.08771924999999214,
          "durationTicks": 96,
          "midi": 45,
          "name": "A2",
          "ticks": 82080,
          "time": 74.99995875,
          "velocity": 0.49606299212598426
        },
        {
          "duration": 0.08771924999999214,
          "durationTicks": 96,
          "midi": 36,
          "name": "C2",
          "ticks": 82080,
          "time": 74.99995875,
          "velocity": 0.49606299212598426
        },
        {
          "duration": 0.08771924999999214,
          "durationTicks": 96,
          "midi": 41,
          "name": "F2",
          "ticks": 82080,
          "time": 74.99995875,
          "velocity": 0.49606299212598426
        },
        {
          "duration": 0.08771924999999214,
          "durationTicks": 96,
          "midi": 42,
          "name": "F#2",
          "ticks": 82080,
          "time": 74.99995875,
          "velocity": 0.49606299212598426
        },
        {
          "duration": 0.08771925000000635,
          "durationTicks": 96,
          "midi": 36,
          "name": "C2",
          "ticks": 82848,
          "time": 75.70171275,
          "velocity": 0.49606299212598426
        },
        {
          "duration": 0.08771925000000635,
          "durationTicks": 96,
          "midi": 45,
          "name": "A2",
          "ticks": 82848,
          "time": 75.70171275,
          "velocity": 0.49606299212598426
        },
        {
          "duration": 0.08771925000000635,
          "durationTicks": 96,
          "midi": 41,
          "name": "F2",
          "ticks": 82848,
          "time": 75.70171275,
          "velocity": 0.49606299212598426
        },
        {
          "duration": 0.08771925000000635,
          "durationTicks": 96,
          "midi": 42,
          "name": "F#2",
          "ticks": 82848,
          "time": 75.70171275,
          "velocity": 0.49606299212598426
        },
        {
          "duration": 0.08771925000000635,
          "durationTicks": 96,
          "midi": 42,
          "name": "F#2",
          "ticks": 83616,
          "time": 76.40346674999999,
          "velocity": 0.49606299212598426
        },
        {
          "duration": 0.08771925000000635,
          "durationTicks": 96,
          "midi": 41,
          "name": "F2",
          "ticks": 83616,
          "time": 76.40346674999999,
          "velocity": 0.49606299212598426
        },
        {
          "duration": 0.08771925000000635,
          "durationTicks": 96,
          "midi": 36,
          "name": "C2",
          "ticks": 83616,
          "time": 76.40346674999999,
          "velocity": 0.49606299212598426
        },
        {
          "duration": 0.08771925000000635,
          "durationTicks": 96,
          "midi": 45,
          "name": "A2",
          "ticks": 83616,
          "time": 76.40346674999999,
          "velocity": 0.49606299212598426
        },
        {
          "duration": 0.08771924999999214,
          "durationTicks": 96,
          "midi": 36,
          "name": "C2",
          "ticks": 84384,
          "time": 77.10522075,
          "velocity": 0.49606299212598426
        },
        {
          "duration": 0.08771924999999214,
          "durationTicks": 96,
          "midi": 42,
          "name": "F#2",
          "ticks": 84384,
          "time": 77.10522075,
          "velocity": 0.49606299212598426
        },
        {
          "duration": 0.08771924999999214,
          "durationTicks": 96,
          "midi": 45,
          "name": "A2",
          "ticks": 84384,
          "time": 77.10522075,
          "velocity": 0.49606299212598426
        },
        {
          "duration": 0.08771924999999214,
          "durationTicks": 96,
          "midi": 41,
          "name": "F2",
          "ticks": 84384,
          "time": 77.10522075,
          "velocity": 0.49606299212598426
        },
        {
          "duration": 0.08771925000000635,
          "durationTicks": 96,
          "midi": 45,
          "name": "A2",
          "ticks": 85152,
          "time": 77.80697475,
          "velocity": 0.49606299212598426
        },
        {
          "duration": 0.08771925000000635,
          "durationTicks": 96,
          "midi": 42,
          "name": "F#2",
          "ticks": 85152,
          "time": 77.80697475,
          "velocity": 0.49606299212598426
        },
        {
          "duration": 0.08771925000000635,
          "durationTicks": 96,
          "midi": 41,
          "name": "F2",
          "ticks": 85152,
          "time": 77.80697475,
          "velocity": 0.49606299212598426
        },
        {
          "duration": 0.08771925000000635,
          "durationTicks": 96,
          "midi": 36,
          "name": "C2",
          "ticks": 85152,
          "time": 77.80697475,
          "velocity": 0.49606299212598426
        },
        {
          "duration": 0.08771924999999214,
          "durationTicks": 96,
          "midi": 36,
          "name": "C2",
          "ticks": 85920,
          "time": 78.50872875,
          "velocity": 0.49606299212598426
        },
        {
          "duration": 0.08771924999999214,
          "durationTicks": 96,
          "midi": 42,
          "name": "F#2",
          "ticks": 85920,
          "time": 78.50872875,
          "velocity": 0.49606299212598426
        },
        {
          "duration": 0.08771924999999214,
          "durationTicks": 96,
          "midi": 45,
          "name": "A2",
          "ticks": 85920,
          "time": 78.50872875,
          "velocity": 0.49606299212598426
        },
        {
          "duration": 0.08771924999999214,
          "durationTicks": 96,
          "midi": 41,
          "name": "F2",
          "ticks": 85920,
          "time": 78.50872875,
          "velocity": 0.49606299212598426
        },
        {
          "duration": 0.08771925000000635,
          "durationTicks": 96,
          "midi": 42,
          "name": "F#2",
          "ticks": 86688,
          "time": 79.21048275,
          "velocity": 0.49606299212598426
        },
        {
          "duration": 0.08771925000000635,
          "durationTicks": 96,
          "midi": 45,
          "name": "A2",
          "ticks": 86688,
          "time": 79.21048275,
          "velocity": 0.49606299212598426
        },
        {
          "duration": 0.08771925000000635,
          "durationTicks": 96,
          "midi": 41,
          "name": "F2",
          "ticks": 86688,
          "time": 79.21048275,
          "velocity": 0.49606299212598426
        },
        {
          "duration": 0.08771925000000635,
          "durationTicks": 96,
          "midi": 36,
          "name": "C2",
          "ticks": 86688,
          "time": 79.21048275,
          "velocity": 0.49606299212598426
        },
        {
          "duration": 0.08771924999999214,
          "durationTicks": 96,
          "midi": 42,
          "name": "F#2",
          "ticks": 87456,
          "time": 79.91223675,
          "velocity": 0.49606299212598426
        },
        {
          "duration": 0.08771924999999214,
          "durationTicks": 96,
          "midi": 41,
          "name": "F2",
          "ticks": 87456,
          "time": 79.91223675,
          "velocity": 0.49606299212598426
        },
        {
          "duration": 0.08771924999999214,
          "durationTicks": 96,
          "midi": 36,
          "name": "C2",
          "ticks": 87456,
          "time": 79.91223675,
          "velocity": 0.49606299212598426
        },
        {
          "duration": 0.08771924999999214,
          "durationTicks": 96,
          "midi": 45,
          "name": "A2",
          "ticks": 87456,
          "time": 79.91223675,
          "velocity": 0.49606299212598426
        },
        {
          "duration": 0.08771925000000635,
          "durationTicks": 96,
          "midi": 45,
          "name": "A2",
          "ticks": 88224,
          "time": 80.61399075,
          "velocity": 0.49606299212598426
        },
        {
          "duration": 0.08771925000000635,
          "durationTicks": 96,
          "midi": 36,
          "name": "C2",
          "ticks": 88224,
          "time": 80.61399075,
          "velocity": 0.49606299212598426
        },
        {
          "duration": 0.08771925000000635,
          "durationTicks": 96,
          "midi": 41,
          "name": "F2",
          "ticks": 88224,
          "time": 80.61399075,
          "velocity": 0.49606299212598426
        },
        {
          "duration": 0.08771925000000635,
          "durationTicks": 96,
          "midi": 42,
          "name": "F#2",
          "ticks": 88224,
          "time": 80.61399075,
          "velocity": 0.49606299212598426
        },
        {
          "duration": 0.08771925000000635,
          "durationTicks": 96,
          "midi": 41,
          "name": "F2",
          "ticks": 88992,
          "time": 81.31574475,
          "velocity": 0.49606299212598426
        },
        {
          "duration": 0.08771925000000635,
          "durationTicks": 96,
          "midi": 36,
          "name": "C2",
          "ticks": 88992,
          "time": 81.31574475,
          "velocity": 0.49606299212598426
        },
        {
          "duration": 0.08771925000000635,
          "durationTicks": 96,
          "midi": 42,
          "name": "F#2",
          "ticks": 88992,
          "time": 81.31574475,
          "velocity": 0.49606299212598426
        },
        {
          "duration": 0.08771925000000635,
          "durationTicks": 96,
          "midi": 45,
          "name": "A2",
          "ticks": 88992,
          "time": 81.31574475,
          "velocity": 0.49606299212598426
        },
        {
          "duration": 0.08771924999999214,
          "durationTicks": 96,
          "midi": 36,
          "name": "C2",
          "ticks": 89760,
          "time": 82.01749875,
          "velocity": 0.49606299212598426
        },
        {
          "duration": 0.08771924999999214,
          "durationTicks": 96,
          "midi": 45,
          "name": "A2",
          "ticks": 89760,
          "time": 82.01749875,
          "velocity": 0.49606299212598426
        },
        {
          "duration": 0.08771924999999214,
          "durationTicks": 96,
          "midi": 42,
          "name": "F#2",
          "ticks": 89760,
          "time": 82.01749875,
          "velocity": 0.49606299212598426
        },
        {
          "duration": 0.08771924999999214,
          "durationTicks": 96,
          "midi": 41,
          "name": "F2",
          "ticks": 89760,
          "time": 82.01749875,
          "velocity": 0.49606299212598426
        },
        {
          "duration": 0.08771925000000635,
          "durationTicks": 96,
          "midi": 45,
          "name": "A2",
          "ticks": 90528,
          "time": 82.71925275,
          "velocity": 0.49606299212598426
        },
        {
          "duration": 0.08771925000000635,
          "durationTicks": 96,
          "midi": 41,
          "name": "F2",
          "ticks": 90528,
          "time": 82.71925275,
          "velocity": 0.49606299212598426
        },
        {
          "duration": 0.08771925000000635,
          "durationTicks": 96,
          "midi": 36,
          "name": "C2",
          "ticks": 90528,
          "time": 82.71925275,
          "velocity": 0.49606299212598426
        },
        {
          "duration": 0.08771925000000635,
          "durationTicks": 96,
          "midi": 42,
          "name": "F#2",
          "ticks": 90528,
          "time": 82.71925275,
          "velocity": 0.49606299212598426
        },
        {
          "duration": 0.08771924999999214,
          "durationTicks": 96,
          "midi": 41,
          "name": "F2",
          "ticks": 91296,
          "time": 83.42100675,
          "velocity": 0.49606299212598426
        },
        {
          "duration": 0.08771924999999214,
          "durationTicks": 96,
          "midi": 36,
          "name": "C2",
          "ticks": 91296,
          "time": 83.42100675,
          "velocity": 0.49606299212598426
        },
        {
          "duration": 0.08771924999999214,
          "durationTicks": 96,
          "midi": 45,
          "name": "A2",
          "ticks": 91296,
          "time": 83.42100675,
          "velocity": 0.49606299212598426
        },
        {
          "duration": 0.08771924999999214,
          "durationTicks": 96,
          "midi": 42,
          "name": "F#2",
          "ticks": 91296,
          "time": 83.42100675,
          "velocity": 0.49606299212598426
        },
        {
          "duration": 0.08771925000000635,
          "durationTicks": 96,
          "midi": 42,
          "name": "F#2",
          "ticks": 92064,
          "time": 84.12276075,
          "velocity": 0.49606299212598426
        },
        {
          "duration": 0.08771925000000635,
          "durationTicks": 96,
          "midi": 41,
          "name": "F2",
          "ticks": 92064,
          "time": 84.12276075,
          "velocity": 0.49606299212598426
        },
        {
          "duration": 0.08771925000000635,
          "durationTicks": 96,
          "midi": 45,
          "name": "A2",
          "ticks": 92064,
          "time": 84.12276075,
          "velocity": 0.49606299212598426
        },
        {
          "duration": 0.08771925000000635,
          "durationTicks": 96,
          "midi": 36,
          "name": "C2",
          "ticks": 92064,
          "time": 84.12276075,
          "velocity": 0.49606299212598426
        },
        {
          "duration": 0.08771925000000635,
          "durationTicks": 96,
          "midi": 36,
          "name": "C2",
          "ticks": 92832,
          "time": 84.82451474999999,
          "velocity": 0.49606299212598426
        },
        {
          "duration": 0.08771925000000635,
          "durationTicks": 96,
          "midi": 41,
          "name": "F2",
          "ticks": 92832,
          "time": 84.82451474999999,
          "velocity": 0.49606299212598426
        },
        {
          "duration": 0.08771925000000635,
          "durationTicks": 96,
          "midi": 42,
          "name": "F#2",
          "ticks": 92832,
          "time": 84.82451474999999,
          "velocity": 0.49606299212598426
        },
        {
          "duration": 0.08771925000000635,
          "durationTicks": 96,
          "midi": 45,
          "name": "A2",
          "ticks": 92832,
          "time": 84.82451474999999,
          "velocity": 0.49606299212598426
        },
        {
          "duration": 0.08771924999999214,
          "durationTicks": 96,
          "midi": 36,
          "name": "C2",
          "ticks": 93600,
          "time": 85.52626875,
          "velocity": 0.49606299212598426
        },
        {
          "duration": 0.08771924999999214,
          "durationTicks": 96,
          "midi": 45,
          "name": "A2",
          "ticks": 93600,
          "time": 85.52626875,
          "velocity": 0.49606299212598426
        },
        {
          "duration": 0.08771924999999214,
          "durationTicks": 96,
          "midi": 42,
          "name": "F#2",
          "ticks": 93600,
          "time": 85.52626875,
          "velocity": 0.49606299212598426
        },
        {
          "duration": 0.08771924999999214,
          "durationTicks": 96,
          "midi": 41,
          "name": "F2",
          "ticks": 93600,
          "time": 85.52626875,
          "velocity": 0.49606299212598426
        },
        {
          "duration": 0.08771925000000635,
          "durationTicks": 96,
          "midi": 36,
          "name": "C2",
          "ticks": 94368,
          "time": 86.22802275,
          "velocity": 0.49606299212598426
        },
        {
          "duration": 0.08771925000000635,
          "durationTicks": 96,
          "midi": 45,
          "name": "A2",
          "ticks": 94368,
          "time": 86.22802275,
          "velocity": 0.49606299212598426
        },
        {
          "duration": 0.08771925000000635,
          "durationTicks": 96,
          "midi": 42,
          "name": "F#2",
          "ticks": 94368,
          "time": 86.22802275,
          "velocity": 0.49606299212598426
        },
        {
          "duration": 0.08771925000000635,
          "durationTicks": 96,
          "midi": 41,
          "name": "F2",
          "ticks": 94368,
          "time": 86.22802275,
          "velocity": 0.49606299212598426
        },
        {
          "duration": 0.08771924999999214,
          "durationTicks": 96,
          "midi": 36,
          "name": "C2",
          "ticks": 95136,
          "time": 86.92977675,
          "velocity": 0.49606299212598426
        },
        {
          "duration": 0.08771924999999214,
          "durationTicks": 96,
          "midi": 41,
          "name": "F2",
          "ticks": 95136,
          "time": 86.92977675,
          "velocity": 0.49606299212598426
        },
        {
          "duration": 0.08771924999999214,
          "durationTicks": 96,
          "midi": 42,
          "name": "F#2",
          "ticks": 95136,
          "time": 86.92977675,
          "velocity": 0.49606299212598426
        },
        {
          "duration": 0.08771924999999214,
          "durationTicks": 96,
          "midi": 45,
          "name": "A2",
          "ticks": 95136,
          "time": 86.92977675,
          "velocity": 0.49606299212598426
        },
        {
          "duration": 0.08771925000000635,
          "durationTicks": 96,
          "midi": 42,
          "name": "F#2",
          "ticks": 95904,
          "time": 87.63153075,
          "velocity": 0.49606299212598426
        },
        {
          "duration": 0.08771925000000635,
          "durationTicks": 96,
          "midi": 36,
          "name": "C2",
          "ticks": 95904,
          "time": 87.63153075,
          "velocity": 0.49606299212598426
        },
        {
          "duration": 0.08771925000000635,
          "durationTicks": 96,
          "midi": 45,
          "name": "A2",
          "ticks": 95904,
          "time": 87.63153075,
          "velocity": 0.49606299212598426
        },
        {
          "duration": 0.08771925000000635,
          "durationTicks": 96,
          "midi": 41,
          "name": "F2",
          "ticks": 95904,
          "time": 87.63153075,
          "velocity": 0.49606299212598426
        },
        {
          "duration": 0.08771924999999214,
          "durationTicks": 96,
          "midi": 45,
          "name": "A2",
          "ticks": 96672,
          "time": 88.33328475,
          "velocity": 0.49606299212598426
        },
        {
          "duration": 0.08771924999999214,
          "durationTicks": 96,
          "midi": 41,
          "name": "F2",
          "ticks": 96672,
          "time": 88.33328475,
          "velocity": 0.49606299212598426
        },
        {
          "duration": 0.08771924999999214,
          "durationTicks": 96,
          "midi": 42,
          "name": "F#2",
          "ticks": 96672,
          "time": 88.33328475,
          "velocity": 0.49606299212598426
        },
        {
          "duration": 0.08771924999999214,
          "durationTicks": 96,
          "midi": 36,
          "name": "C2",
          "ticks": 96672,
          "time": 88.33328475,
          "velocity": 0.49606299212598426
        },
        {
          "duration": 0.08771925000000635,
          "durationTicks": 96,
          "midi": 45,
          "name": "A2",
          "ticks": 97440,
          "time": 89.03503875,
          "velocity": 0.49606299212598426
        },
        {
          "duration": 0.08771925000000635,
          "durationTicks": 96,
          "midi": 41,
          "name": "F2",
          "ticks": 97440,
          "time": 89.03503875,
          "velocity": 0.49606299212598426
        },
        {
          "duration": 0.08771925000000635,
          "durationTicks": 96,
          "midi": 42,
          "name": "F#2",
          "ticks": 97440,
          "time": 89.03503875,
          "velocity": 0.49606299212598426
        },
        {
          "duration": 0.08771925000000635,
          "durationTicks": 96,
          "midi": 36,
          "name": "C2",
          "ticks": 97440,
          "time": 89.03503875,
          "velocity": 0.49606299212598426
        },
        {
          "duration": 0.08771925000000635,
          "durationTicks": 96,
          "midi": 36,
          "name": "C2",
          "ticks": 98208,
          "time": 89.73679274999999,
          "velocity": 0.49606299212598426
        },
        {
          "duration": 0.08771925000000635,
          "durationTicks": 96,
          "midi": 45,
          "name": "A2",
          "ticks": 98208,
          "time": 89.73679274999999,
          "velocity": 0.49606299212598426
        },
        {
          "duration": 0.08771925000000635,
          "durationTicks": 96,
          "midi": 41,
          "name": "F2",
          "ticks": 98208,
          "time": 89.73679274999999,
          "velocity": 0.49606299212598426
        },
        {
          "duration": 0.08771925000000635,
          "durationTicks": 96,
          "midi": 42,
          "name": "F#2",
          "ticks": 98208,
          "time": 89.73679274999999,
          "velocity": 0.49606299212598426
        },
        {
          "duration": 0.08771924999999214,
          "durationTicks": 96,
          "midi": 41,
          "name": "F2",
          "ticks": 98976,
          "time": 90.43854675,
          "velocity": 0.49606299212598426
        },
        {
          "duration": 0.08771924999999214,
          "durationTicks": 96,
          "midi": 45,
          "name": "A2",
          "ticks": 98976,
          "time": 90.43854675,
          "velocity": 0.49606299212598426
        },
        {
          "duration": 0.08771924999999214,
          "durationTicks": 96,
          "midi": 36,
          "name": "C2",
          "ticks": 98976,
          "time": 90.43854675,
          "velocity": 0.49606299212598426
        },
        {
          "duration": 0.08771924999999214,
          "durationTicks": 96,
          "midi": 42,
          "name": "F#2",
          "ticks": 98976,
          "time": 90.43854675,
          "velocity": 0.49606299212598426
        },
        {
          "duration": 0.08771925000000635,
          "durationTicks": 96,
          "midi": 36,
          "name": "C2",
          "ticks": 99744,
          "time": 91.14030075,
          "velocity": 0.49606299212598426
        },
        {
          "duration": 0.08771925000000635,
          "durationTicks": 96,
          "midi": 41,
          "name": "F2",
          "ticks": 99744,
          "time": 91.14030075,
          "velocity": 0.49606299212598426
        },
        {
          "duration": 0.08771925000000635,
          "durationTicks": 96,
          "midi": 42,
          "name": "F#2",
          "ticks": 99744,
          "time": 91.14030075,
          "velocity": 0.49606299212598426
        },
        {
          "duration": 0.08771925000000635,
          "durationTicks": 96,
          "midi": 45,
          "name": "A2",
          "ticks": 99744,
          "time": 91.14030075,
          "velocity": 0.49606299212598426
        },
        {
          "duration": 0.08771924999999214,
          "durationTicks": 96,
          "midi": 45,
          "name": "A2",
          "ticks": 100512,
          "time": 91.84205475,
          "velocity": 0.49606299212598426
        },
        {
          "duration": 0.08771924999999214,
          "durationTicks": 96,
          "midi": 42,
          "name": "F#2",
          "ticks": 100512,
          "time": 91.84205475,
          "velocity": 0.49606299212598426
        },
        {
          "duration": 0.08771924999999214,
          "durationTicks": 96,
          "midi": 41,
          "name": "F2",
          "ticks": 100512,
          "time": 91.84205475,
          "velocity": 0.49606299212598426
        },
        {
          "duration": 0.08771924999999214,
          "durationTicks": 96,
          "midi": 36,
          "name": "C2",
          "ticks": 100512,
          "time": 91.84205475,
          "velocity": 0.49606299212598426
        },
        {
          "duration": 0.08771925000000635,
          "durationTicks": 96,
          "midi": 36,
          "name": "C2",
          "ticks": 101280,
          "time": 92.54380875,
          "velocity": 0.49606299212598426
        },
        {
          "duration": 0.08771925000000635,
          "durationTicks": 96,
          "midi": 45,
          "name": "A2",
          "ticks": 101280,
          "time": 92.54380875,
          "velocity": 0.49606299212598426
        },
        {
          "duration": 0.08771925000000635,
          "durationTicks": 96,
          "midi": 41,
          "name": "F2",
          "ticks": 101280,
          "time": 92.54380875,
          "velocity": 0.49606299212598426
        },
        {
          "duration": 0.08771925000000635,
          "durationTicks": 96,
          "midi": 42,
          "name": "F#2",
          "ticks": 101280,
          "time": 92.54380875,
          "velocity": 0.49606299212598426
        },
        {
          "duration": 0.08771924999999214,
          "durationTicks": 96,
          "midi": 42,
          "name": "F#2",
          "ticks": 102048,
          "time": 93.24556275,
          "velocity": 0.49606299212598426
        },
        {
          "duration": 0.08771924999999214,
          "durationTicks": 96,
          "midi": 41,
          "name": "F2",
          "ticks": 102048,
          "time": 93.24556275,
          "velocity": 0.49606299212598426
        },
        {
          "duration": 0.08771924999999214,
          "durationTicks": 96,
          "midi": 36,
          "name": "C2",
          "ticks": 102048,
          "time": 93.24556275,
          "velocity": 0.49606299212598426
        },
        {
          "duration": 0.08771924999999214,
          "durationTicks": 96,
          "midi": 45,
          "name": "A2",
          "ticks": 102048,
          "time": 93.24556275,
          "velocity": 0.49606299212598426
        },
        {
          "duration": 0.08771925000000635,
          "durationTicks": 96,
          "midi": 42,
          "name": "F#2",
          "ticks": 102816,
          "time": 93.94731675,
          "velocity": 0.49606299212598426
        },
        {
          "duration": 0.08771925000000635,
          "durationTicks": 96,
          "midi": 36,
          "name": "C2",
          "ticks": 102816,
          "time": 93.94731675,
          "velocity": 0.49606299212598426
        },
        {
          "duration": 0.08771925000000635,
          "durationTicks": 96,
          "midi": 41,
          "name": "F2",
          "ticks": 102816,
          "time": 93.94731675,
          "velocity": 0.49606299212598426
        },
        {
          "duration": 0.08771925000000635,
          "durationTicks": 96,
          "midi": 45,
          "name": "A2",
          "ticks": 102816,
          "time": 93.94731675,
          "velocity": 0.49606299212598426
        },
        {
          "duration": 0.08771925000000635,
          "durationTicks": 96,
          "midi": 45,
          "name": "A2",
          "ticks": 103584,
          "time": 94.64907074999999,
          "velocity": 0.49606299212598426
        },
        {
          "duration": 0.08771925000000635,
          "durationTicks": 96,
          "midi": 42,
          "name": "F#2",
          "ticks": 103584,
          "time": 94.64907074999999,
          "velocity": 0.49606299212598426
        },
        {
          "duration": 0.08771925000000635,
          "durationTicks": 96,
          "midi": 41,
          "name": "F2",
          "ticks": 103584,
          "time": 94.64907074999999,
          "velocity": 0.49606299212598426
        },
        {
          "duration": 0.08771925000000635,
          "durationTicks": 96,
          "midi": 36,
          "name": "C2",
          "ticks": 103584,
          "time": 94.64907074999999,
          "velocity": 0.49606299212598426
        },
        {
          "duration": 0.08771924999999214,
          "durationTicks": 96,
          "midi": 45,
          "name": "A2",
          "ticks": 104352,
          "time": 95.35082475,
          "velocity": 0.49606299212598426
        },
        {
          "duration": 0.08771924999999214,
          "durationTicks": 96,
          "midi": 41,
          "name": "F2",
          "ticks": 104352,
          "time": 95.35082475,
          "velocity": 0.49606299212598426
        },
        {
          "duration": 0.08771924999999214,
          "durationTicks": 96,
          "midi": 36,
          "name": "C2",
          "ticks": 104352,
          "time": 95.35082475,
          "velocity": 0.49606299212598426
        },
        {
          "duration": 0.08771924999999214,
          "durationTicks": 96,
          "midi": 42,
          "name": "F#2",
          "ticks": 104352,
          "time": 95.35082475,
          "velocity": 0.49606299212598426
        },
        {
          "duration": 0.08771925000000635,
          "durationTicks": 96,
          "midi": 42,
          "name": "F#2",
          "ticks": 105120,
          "time": 96.05257875,
          "velocity": 0.49606299212598426
        },
        {
          "duration": 0.08771925000000635,
          "durationTicks": 96,
          "midi": 45,
          "name": "A2",
          "ticks": 105120,
          "time": 96.05257875,
          "velocity": 0.49606299212598426
        },
        {
          "duration": 0.08771925000000635,
          "durationTicks": 96,
          "midi": 41,
          "name": "F2",
          "ticks": 105120,
          "time": 96.05257875,
          "velocity": 0.49606299212598426
        },
        {
          "duration": 0.08771925000000635,
          "durationTicks": 96,
          "midi": 36,
          "name": "C2",
          "ticks": 105120,
          "time": 96.05257875,
          "velocity": 0.49606299212598426
        },
        {
          "duration": 0.08771924999999214,
          "durationTicks": 96,
          "midi": 42,
          "name": "F#2",
          "ticks": 105888,
          "time": 96.75433275,
          "velocity": 0.49606299212598426
        },
        {
          "duration": 0.08771924999999214,
          "durationTicks": 96,
          "midi": 41,
          "name": "F2",
          "ticks": 105888,
          "time": 96.75433275,
          "velocity": 0.49606299212598426
        },
        {
          "duration": 0.08771924999999214,
          "durationTicks": 96,
          "midi": 45,
          "name": "A2",
          "ticks": 105888,
          "time": 96.75433275,
          "velocity": 0.49606299212598426
        },
        {
          "duration": 0.08771924999999214,
          "durationTicks": 96,
          "midi": 36,
          "name": "C2",
          "ticks": 105888,
          "time": 96.75433275,
          "velocity": 0.49606299212598426
        },
        {
          "duration": 0.08771925000000635,
          "durationTicks": 96,
          "midi": 36,
          "name": "C2",
          "ticks": 106656,
          "time": 97.45608675,
          "velocity": 0.49606299212598426
        },
        {
          "duration": 0.08771925000000635,
          "durationTicks": 96,
          "midi": 41,
          "name": "F2",
          "ticks": 106656,
          "time": 97.45608675,
          "velocity": 0.49606299212598426
        },
        {
          "duration": 0.08771925000000635,
          "durationTicks": 96,
          "midi": 42,
          "name": "F#2",
          "ticks": 106656,
          "time": 97.45608675,
          "velocity": 0.49606299212598426
        },
        {
          "duration": 0.08771925000000635,
          "durationTicks": 96,
          "midi": 45,
          "name": "A2",
          "ticks": 106656,
          "time": 97.45608675,
          "velocity": 0.49606299212598426
        },
        {
          "duration": 0.08771924999999214,
          "durationTicks": 96,
          "midi": 36,
          "name": "C2",
          "ticks": 107424,
          "time": 98.15784075,
          "velocity": 0.49606299212598426
        },
        {
          "duration": 0.08771924999999214,
          "durationTicks": 96,
          "midi": 42,
          "name": "F#2",
          "ticks": 107424,
          "time": 98.15784075,
          "velocity": 0.49606299212598426
        },
        {
          "duration": 0.08771924999999214,
          "durationTicks": 96,
          "midi": 45,
          "name": "A2",
          "ticks": 107424,
          "time": 98.15784075,
          "velocity": 0.49606299212598426
        },
        {
          "duration": 0.08771924999999214,
          "durationTicks": 96,
          "midi": 41,
          "name": "F2",
          "ticks": 107424,
          "time": 98.15784075,
          "velocity": 0.49606299212598426
        },
        {
          "duration": 0.08771924999999214,
          "durationTicks": 96,
          "midi": 41,
          "name": "F2",
          "ticks": 108192,
          "time": 98.85959475,
          "velocity": 0.49606299212598426
        },
        {
          "duration": 0.08771924999999214,
          "durationTicks": 96,
          "midi": 36,
          "name": "C2",
          "ticks": 108192,
          "time": 98.85959475,
          "velocity": 0.49606299212598426
        },
        {
          "duration": 0.08771924999999214,
          "durationTicks": 96,
          "midi": 45,
          "name": "A2",
          "ticks": 108192,
          "time": 98.85959475,
          "velocity": 0.49606299212598426
        },
        {
          "duration": 0.08771924999999214,
          "durationTicks": 96,
          "midi": 42,
          "name": "F#2",
          "ticks": 108192,
          "time": 98.85959475,
          "velocity": 0.49606299212598426
        },
        {
          "duration": 0.08771925000000635,
          "durationTicks": 96,
          "midi": 36,
          "name": "C2",
          "ticks": 108960,
          "time": 99.56134875,
          "velocity": 0.49606299212598426
        },
        {
          "duration": 0.08771925000000635,
          "durationTicks": 96,
          "midi": 45,
          "name": "A2",
          "ticks": 108960,
          "time": 99.56134875,
          "velocity": 0.49606299212598426
        },
        {
          "duration": 0.08771925000000635,
          "durationTicks": 96,
          "midi": 41,
          "name": "F2",
          "ticks": 108960,
          "time": 99.56134875,
          "velocity": 0.49606299212598426
        },
        {
          "duration": 0.08771925000000635,
          "durationTicks": 96,
          "midi": 42,
          "name": "F#2",
          "ticks": 108960,
          "time": 99.56134875,
          "velocity": 0.49606299212598426
        },
        {
          "duration": 0.08771924999999214,
          "durationTicks": 96,
          "midi": 45,
          "name": "A2",
          "ticks": 109728,
          "time": 100.26310275,
          "velocity": 0.49606299212598426
        },
        {
          "duration": 0.08771924999999214,
          "durationTicks": 96,
          "midi": 36,
          "name": "C2",
          "ticks": 109728,
          "time": 100.26310275,
          "velocity": 0.49606299212598426
        },
        {
          "duration": 0.08771924999999214,
          "durationTicks": 96,
          "midi": 41,
          "name": "F2",
          "ticks": 109728,
          "time": 100.26310275,
          "velocity": 0.49606299212598426
        },
        {
          "duration": 0.08771924999999214,
          "durationTicks": 96,
          "midi": 42,
          "name": "F#2",
          "ticks": 109728,
          "time": 100.26310275,
          "velocity": 0.49606299212598426
        },
        {
          "duration": 0.08771925000000635,
          "durationTicks": 96,
          "midi": 41,
          "name": "F2",
          "ticks": 110496,
          "time": 100.96485675,
          "velocity": 0.49606299212598426
        },
        {
          "duration": 0.08771925000000635,
          "durationTicks": 96,
          "midi": 45,
          "name": "A2",
          "ticks": 110496,
          "time": 100.96485675,
          "velocity": 0.49606299212598426
        },
        {
          "duration": 0.08771925000000635,
          "durationTicks": 96,
          "midi": 42,
          "name": "F#2",
          "ticks": 110496,
          "time": 100.96485675,
          "velocity": 0.49606299212598426
        },
        {
          "duration": 0.08771925000000635,
          "durationTicks": 96,
          "midi": 36,
          "name": "C2",
          "ticks": 110496,
          "time": 100.96485675,
          "velocity": 0.49606299212598426
        },
        {
          "duration": 0.08771924999999214,
          "durationTicks": 96,
          "midi": 41,
          "name": "F2",
          "ticks": 111264,
          "time": 101.66661075,
          "velocity": 0.49606299212598426
        },
        {
          "duration": 0.08771924999999214,
          "durationTicks": 96,
          "midi": 36,
          "name": "C2",
          "ticks": 111264,
          "time": 101.66661075,
          "velocity": 0.49606299212598426
        },
        {
          "duration": 0.08771924999999214,
          "durationTicks": 96,
          "midi": 45,
          "name": "A2",
          "ticks": 111264,
          "time": 101.66661075,
          "velocity": 0.49606299212598426
        },
        {
          "duration": 0.08771924999999214,
          "durationTicks": 96,
          "midi": 42,
          "name": "F#2",
          "ticks": 111264,
          "time": 101.66661075,
          "velocity": 0.49606299212598426
        },
        {
          "duration": 0.08771925000000635,
          "durationTicks": 96,
          "midi": 41,
          "name": "F2",
          "ticks": 112032,
          "time": 102.36836475,
          "velocity": 0.49606299212598426
        },
        {
          "duration": 0.08771925000000635,
          "durationTicks": 96,
          "midi": 45,
          "name": "A2",
          "ticks": 112032,
          "time": 102.36836475,
          "velocity": 0.49606299212598426
        },
        {
          "duration": 0.08771925000000635,
          "durationTicks": 96,
          "midi": 36,
          "name": "C2",
          "ticks": 112032,
          "time": 102.36836475,
          "velocity": 0.49606299212598426
        },
        {
          "duration": 0.08771925000000635,
          "durationTicks": 96,
          "midi": 42,
          "name": "F#2",
          "ticks": 112032,
          "time": 102.36836475,
          "velocity": 0.49606299212598426
        },
        {
          "duration": 0.08771925000000635,
          "durationTicks": 96,
          "midi": 42,
          "name": "F#2",
          "ticks": 112800,
          "time": 103.07011874999999,
          "velocity": 0.49606299212598426
        },
        {
          "duration": 0.08771925000000635,
          "durationTicks": 96,
          "midi": 45,
          "name": "A2",
          "ticks": 112800,
          "time": 103.07011874999999,
          "velocity": 0.49606299212598426
        },
        {
          "duration": 0.08771925000000635,
          "durationTicks": 96,
          "midi": 41,
          "name": "F2",
          "ticks": 112800,
          "time": 103.07011874999999,
          "velocity": 0.49606299212598426
        },
        {
          "duration": 0.08771925000000635,
          "durationTicks": 96,
          "midi": 36,
          "name": "C2",
          "ticks": 112800,
          "time": 103.07011874999999,
          "velocity": 0.49606299212598426
        },
        {
          "duration": 0.08771924999999214,
          "durationTicks": 96,
          "midi": 42,
          "name": "F#2",
          "ticks": 113568,
          "time": 103.77187275,
          "velocity": 0.49606299212598426
        },
        {
          "duration": 0.08771924999999214,
          "durationTicks": 96,
          "midi": 45,
          "name": "A2",
          "ticks": 113568,
          "time": 103.77187275,
          "velocity": 0.49606299212598426
        },
        {
          "duration": 0.08771924999999214,
          "durationTicks": 96,
          "midi": 36,
          "name": "C2",
          "ticks": 113568,
          "time": 103.77187275,
          "velocity": 0.49606299212598426
        },
        {
          "duration": 0.08771924999999214,
          "durationTicks": 96,
          "midi": 41,
          "name": "F2",
          "ticks": 113568,
          "time": 103.77187275,
          "velocity": 0.49606299212598426
        },
        {
          "duration": 0.08771925000000635,
          "durationTicks": 96,
          "midi": 45,
          "name": "A2",
          "ticks": 114336,
          "time": 104.47362675,
          "velocity": 0.49606299212598426
        },
        {
          "duration": 0.08771925000000635,
          "durationTicks": 96,
          "midi": 42,
          "name": "F#2",
          "ticks": 114336,
          "time": 104.47362675,
          "velocity": 0.49606299212598426
        },
        {
          "duration": 0.08771925000000635,
          "durationTicks": 96,
          "midi": 41,
          "name": "F2",
          "ticks": 114336,
          "time": 104.47362675,
          "velocity": 0.49606299212598426
        },
        {
          "duration": 0.08771925000000635,
          "durationTicks": 96,
          "midi": 36,
          "name": "C2",
          "ticks": 114336,
          "time": 104.47362675,
          "velocity": 0.49606299212598426
        },
        {
          "duration": 0.08771924999999214,
          "durationTicks": 96,
          "midi": 42,
          "name": "F#2",
          "ticks": 115104,
          "time": 105.17538075,
          "velocity": 0.49606299212598426
        },
        {
          "duration": 0.08771924999999214,
          "durationTicks": 96,
          "midi": 45,
          "name": "A2",
          "ticks": 115104,
          "time": 105.17538075,
          "velocity": 0.49606299212598426
        },
        {
          "duration": 0.08771924999999214,
          "durationTicks": 96,
          "midi": 36,
          "name": "C2",
          "ticks": 115104,
          "time": 105.17538075,
          "velocity": 0.49606299212598426
        },
        {
          "duration": 0.08771924999999214,
          "durationTicks": 96,
          "midi": 41,
          "name": "F2",
          "ticks": 115104,
          "time": 105.17538075,
          "velocity": 0.49606299212598426
        },
        {
          "duration": 0.08771925000000635,
          "durationTicks": 96,
          "midi": 42,
          "name": "F#2",
          "ticks": 115872,
          "time": 105.87713475,
          "velocity": 0.49606299212598426
        },
        {
          "duration": 0.08771925000000635,
          "durationTicks": 96,
          "midi": 41,
          "name": "F2",
          "ticks": 115872,
          "time": 105.87713475,
          "velocity": 0.49606299212598426
        },
        {
          "duration": 0.08771925000000635,
          "durationTicks": 96,
          "midi": 45,
          "name": "A2",
          "ticks": 115872,
          "time": 105.87713475,
          "velocity": 0.49606299212598426
        },
        {
          "duration": 0.08771925000000635,
          "durationTicks": 96,
          "midi": 36,
          "name": "C2",
          "ticks": 115872,
          "time": 105.87713475,
          "velocity": 0.49606299212598426
        },
        {
          "duration": 0.08771924999999214,
          "durationTicks": 96,
          "midi": 41,
          "name": "F2",
          "ticks": 116640,
          "time": 106.57888875,
          "velocity": 0.49606299212598426
        },
        {
          "duration": 0.08771924999999214,
          "durationTicks": 96,
          "midi": 42,
          "name": "F#2",
          "ticks": 116640,
          "time": 106.57888875,
          "velocity": 0.49606299212598426
        },
        {
          "duration": 0.08771924999999214,
          "durationTicks": 96,
          "midi": 45,
          "name": "A2",
          "ticks": 116640,
          "time": 106.57888875,
          "velocity": 0.49606299212598426
        },
        {
          "duration": 0.08771924999999214,
          "durationTicks": 96,
          "midi": 36,
          "name": "C2",
          "ticks": 116640,
          "time": 106.57888875,
          "velocity": 0.49606299212598426
        },
        {
          "duration": 0.08771925000000635,
          "durationTicks": 96,
          "midi": 36,
          "name": "C2",
          "ticks": 117408,
          "time": 107.28064275,
          "velocity": 0.49606299212598426
        },
        {
          "duration": 0.08771925000000635,
          "durationTicks": 96,
          "midi": 45,
          "name": "A2",
          "ticks": 117408,
          "time": 107.28064275,
          "velocity": 0.49606299212598426
        },
        {
          "duration": 0.08771925000000635,
          "durationTicks": 96,
          "midi": 41,
          "name": "F2",
          "ticks": 117408,
          "time": 107.28064275,
          "velocity": 0.49606299212598426
        },
        {
          "duration": 0.08771925000000635,
          "durationTicks": 96,
          "midi": 42,
          "name": "F#2",
          "ticks": 117408,
          "time": 107.28064275,
          "velocity": 0.49606299212598426
        },
        {
          "duration": 0.08771925000000635,
          "durationTicks": 96,
          "midi": 41,
          "name": "F2",
          "ticks": 118176,
          "time": 107.98239674999999,
          "velocity": 0.49606299212598426
        },
        {
          "duration": 0.08771925000000635,
          "durationTicks": 96,
          "midi": 42,
          "name": "F#2",
          "ticks": 118176,
          "time": 107.98239674999999,
          "velocity": 0.49606299212598426
        },
        {
          "duration": 0.08771925000000635,
          "durationTicks": 96,
          "midi": 45,
          "name": "A2",
          "ticks": 118176,
          "time": 107.98239674999999,
          "velocity": 0.49606299212598426
        },
        {
          "duration": 0.08771925000000635,
          "durationTicks": 96,
          "midi": 36,
          "name": "C2",
          "ticks": 118176,
          "time": 107.98239674999999,
          "velocity": 0.49606299212598426
        },
        {
          "duration": 0.08771924999999214,
          "durationTicks": 96,
          "midi": 45,
          "name": "A2",
          "ticks": 118944,
          "time": 108.68415075,
          "velocity": 0.49606299212598426
        },
        {
          "duration": 0.08771924999999214,
          "durationTicks": 96,
          "midi": 42,
          "name": "F#2",
          "ticks": 118944,
          "time": 108.68415075,
          "velocity": 0.49606299212598426
        },
        {
          "duration": 0.08771924999999214,
          "durationTicks": 96,
          "midi": 41,
          "name": "F2",
          "ticks": 118944,
          "time": 108.68415075,
          "velocity": 0.49606299212598426
        },
        {
          "duration": 0.08771924999999214,
          "durationTicks": 96,
          "midi": 36,
          "name": "C2",
          "ticks": 118944,
          "time": 108.68415075,
          "velocity": 0.49606299212598426
        },
        {
          "duration": 0.08771925000000635,
          "durationTicks": 96,
          "midi": 36,
          "name": "C2",
          "ticks": 119712,
          "time": 109.38590475,
          "velocity": 0.49606299212598426
        },
        {
          "duration": 0.08771925000000635,
          "durationTicks": 96,
          "midi": 41,
          "name": "F2",
          "ticks": 119712,
          "time": 109.38590475,
          "velocity": 0.49606299212598426
        },
        {
          "duration": 0.08771925000000635,
          "durationTicks": 96,
          "midi": 42,
          "name": "F#2",
          "ticks": 119712,
          "time": 109.38590475,
          "velocity": 0.49606299212598426
        },
        {
          "duration": 0.08771925000000635,
          "durationTicks": 96,
          "midi": 45,
          "name": "A2",
          "ticks": 119712,
          "time": 109.38590475,
          "velocity": 0.49606299212598426
        },
        {
          "duration": 0.08771924999999214,
          "durationTicks": 96,
          "midi": 36,
          "name": "C2",
          "ticks": 120480,
          "time": 110.08765875,
          "velocity": 0.49606299212598426
        },
        {
          "duration": 0.08771924999999214,
          "durationTicks": 96,
          "midi": 45,
          "name": "A2",
          "ticks": 120480,
          "time": 110.08765875,
          "velocity": 0.49606299212598426
        },
        {
          "duration": 0.08771924999999214,
          "durationTicks": 96,
          "midi": 42,
          "name": "F#2",
          "ticks": 120480,
          "time": 110.08765875,
          "velocity": 0.49606299212598426
        },
        {
          "duration": 0.08771924999999214,
          "durationTicks": 96,
          "midi": 41,
          "name": "F2",
          "ticks": 120480,
          "time": 110.08765875,
          "velocity": 0.49606299212598426
        },
        {
          "duration": 0.08771925000000635,
          "durationTicks": 96,
          "midi": 36,
          "name": "C2",
          "ticks": 121248,
          "time": 110.78941275,
          "velocity": 0.49606299212598426
        },
        {
          "duration": 0.08771925000000635,
          "durationTicks": 96,
          "midi": 41,
          "name": "F2",
          "ticks": 121248,
          "time": 110.78941275,
          "velocity": 0.49606299212598426
        },
        {
          "duration": 0.08771925000000635,
          "durationTicks": 96,
          "midi": 45,
          "name": "A2",
          "ticks": 121248,
          "time": 110.78941275,
          "velocity": 0.49606299212598426
        },
        {
          "duration": 0.08771925000000635,
          "durationTicks": 96,
          "midi": 42,
          "name": "F#2",
          "ticks": 121248,
          "time": 110.78941275,
          "velocity": 0.49606299212598426
        },
        {
          "duration": 0.08771924999999214,
          "durationTicks": 96,
          "midi": 45,
          "name": "A2",
          "ticks": 122016,
          "time": 111.49116675,
          "velocity": 0.49606299212598426
        },
        {
          "duration": 0.08771924999999214,
          "durationTicks": 96,
          "midi": 42,
          "name": "F#2",
          "ticks": 122016,
          "time": 111.49116675,
          "velocity": 0.49606299212598426
        },
        {
          "duration": 0.08771924999999214,
          "durationTicks": 96,
          "midi": 41,
          "name": "F2",
          "ticks": 122016,
          "time": 111.49116675,
          "velocity": 0.49606299212598426
        },
        {
          "duration": 0.08771924999999214,
          "durationTicks": 96,
          "midi": 36,
          "name": "C2",
          "ticks": 122016,
          "time": 111.49116675,
          "velocity": 0.49606299212598426
        },
        {
          "duration": 0.08771925000000635,
          "durationTicks": 96,
          "midi": 41,
          "name": "F2",
          "ticks": 122784,
          "time": 112.19292075,
          "velocity": 0.49606299212598426
        },
        {
          "duration": 0.08771925000000635,
          "durationTicks": 96,
          "midi": 36,
          "name": "C2",
          "ticks": 122784,
          "time": 112.19292075,
          "velocity": 0.49606299212598426
        },
        {
          "duration": 0.08771925000000635,
          "durationTicks": 96,
          "midi": 45,
          "name": "A2",
          "ticks": 122784,
          "time": 112.19292075,
          "velocity": 0.49606299212598426
        },
        {
          "duration": 0.08771925000000635,
          "durationTicks": 96,
          "midi": 42,
          "name": "F#2",
          "ticks": 122784,
          "time": 112.19292075,
          "velocity": 0.49606299212598426
        },
        {
          "duration": 0.08771925000000635,
          "durationTicks": 96,
          "midi": 36,
          "name": "C2",
          "ticks": 123552,
          "time": 112.89467475,
          "velocity": 0.49606299212598426
        },
        {
          "duration": 0.08771925000000635,
          "durationTicks": 96,
          "midi": 45,
          "name": "A2",
          "ticks": 123552,
          "time": 112.89467475,
          "velocity": 0.49606299212598426
        },
        {
          "duration": 0.08771925000000635,
          "durationTicks": 96,
          "midi": 42,
          "name": "F#2",
          "ticks": 123552,
          "time": 112.89467475,
          "velocity": 0.49606299212598426
        },
        {
          "duration": 0.08771925000000635,
          "durationTicks": 96,
          "midi": 41,
          "name": "F2",
          "ticks": 123552,
          "time": 112.89467475,
          "velocity": 0.49606299212598426
        },
        {
          "duration": 0.08771924999999214,
          "durationTicks": 96,
          "midi": 45,
          "name": "A2",
          "ticks": 124320,
          "time": 113.59642875,
          "velocity": 0.49606299212598426
        },
        {
          "duration": 0.08771924999999214,
          "durationTicks": 96,
          "midi": 41,
          "name": "F2",
          "ticks": 124320,
          "time": 113.59642875,
          "velocity": 0.49606299212598426
        },
        {
          "duration": 0.08771924999999214,
          "durationTicks": 96,
          "midi": 36,
          "name": "C2",
          "ticks": 124320,
          "time": 113.59642875,
          "velocity": 0.49606299212598426
        },
        {
          "duration": 0.08771924999999214,
          "durationTicks": 96,
          "midi": 42,
          "name": "F#2",
          "ticks": 124320,
          "time": 113.59642875,
          "velocity": 0.49606299212598426
        },
        {
          "duration": 0.08771925000000635,
          "durationTicks": 96,
          "midi": 42,
          "name": "F#2",
          "ticks": 125088,
          "time": 114.29818275,
          "velocity": 0.49606299212598426
        },
        {
          "duration": 0.08771925000000635,
          "durationTicks": 96,
          "midi": 36,
          "name": "C2",
          "ticks": 125088,
          "time": 114.29818275,
          "velocity": 0.49606299212598426
        },
        {
          "duration": 0.08771925000000635,
          "durationTicks": 96,
          "midi": 45,
          "name": "A2",
          "ticks": 125088,
          "time": 114.29818275,
          "velocity": 0.49606299212598426
        },
        {
          "duration": 0.08771925000000635,
          "durationTicks": 96,
          "midi": 41,
          "name": "F2",
          "ticks": 125088,
          "time": 114.29818275,
          "velocity": 0.49606299212598426
        },
        {
          "duration": 0.08771924999999214,
          "durationTicks": 96,
          "midi": 41,
          "name": "F2",
          "ticks": 125856,
          "time": 114.99993675,
          "velocity": 0.49606299212598426
        },
        {
          "duration": 0.08771924999999214,
          "durationTicks": 96,
          "midi": 42,
          "name": "F#2",
          "ticks": 125856,
          "time": 114.99993675,
          "velocity": 0.49606299212598426
        },
        {
          "duration": 0.08771924999999214,
          "durationTicks": 96,
          "midi": 36,
          "name": "C2",
          "ticks": 125856,
          "time": 114.99993675,
          "velocity": 0.49606299212598426
        },
        {
          "duration": 0.08771924999999214,
          "durationTicks": 96,
          "midi": 45,
          "name": "A2",
          "ticks": 125856,
          "time": 114.99993675,
          "velocity": 0.49606299212598426
        },
        {
          "duration": 0.08771925000000635,
          "durationTicks": 96,
          "midi": 36,
          "name": "C2",
          "ticks": 126624,
          "time": 115.70169075,
          "velocity": 0.49606299212598426
        },
        {
          "duration": 0.08771925000000635,
          "durationTicks": 96,
          "midi": 45,
          "name": "A2",
          "ticks": 126624,
          "time": 115.70169075,
          "velocity": 0.49606299212598426
        },
        {
          "duration": 0.08771925000000635,
          "durationTicks": 96,
          "midi": 42,
          "name": "F#2",
          "ticks": 126624,
          "time": 115.70169075,
          "velocity": 0.49606299212598426
        },
        {
          "duration": 0.08771925000000635,
          "durationTicks": 96,
          "midi": 41,
          "name": "F2",
          "ticks": 126624,
          "time": 115.70169075,
          "velocity": 0.49606299212598426
        },
        {
          "duration": 0.08771925000000635,
          "durationTicks": 96,
          "midi": 36,
          "name": "C2",
          "ticks": 127392,
          "time": 116.40344474999999,
          "velocity": 0.49606299212598426
        },
        {
          "duration": 0.08771925000000635,
          "durationTicks": 96,
          "midi": 42,
          "name": "F#2",
          "ticks": 127392,
          "time": 116.40344474999999,
          "velocity": 0.49606299212598426
        },
        {
          "duration": 0.08771925000000635,
          "durationTicks": 96,
          "midi": 45,
          "name": "A2",
          "ticks": 127392,
          "time": 116.40344474999999,
          "velocity": 0.49606299212598426
        },
        {
          "duration": 0.08771925000000635,
          "durationTicks": 96,
          "midi": 41,
          "name": "F2",
          "ticks": 127392,
          "time": 116.40344474999999,
          "velocity": 0.49606299212598426
        },
        {
          "duration": 0.08771924999999214,
          "durationTicks": 96,
          "midi": 42,
          "name": "F#2",
          "ticks": 128160,
          "time": 117.10519875,
          "velocity": 0.49606299212598426
        },
        {
          "duration": 0.08771924999999214,
          "durationTicks": 96,
          "midi": 36,
          "name": "C2",
          "ticks": 128160,
          "time": 117.10519875,
          "velocity": 0.49606299212598426
        },
        {
          "duration": 0.08771924999999214,
          "durationTicks": 96,
          "midi": 41,
          "name": "F2",
          "ticks": 128160,
          "time": 117.10519875,
          "velocity": 0.49606299212598426
        },
        {
          "duration": 0.08771924999999214,
          "durationTicks": 96,
          "midi": 45,
          "name": "A2",
          "ticks": 128160,
          "time": 117.10519875,
          "velocity": 0.49606299212598426
        },
        {
          "duration": 0.08771925000000635,
          "durationTicks": 96,
          "midi": 42,
          "name": "F#2",
          "ticks": 128928,
          "time": 117.80695275,
          "velocity": 0.49606299212598426
        },
        {
          "duration": 0.08771925000000635,
          "durationTicks": 96,
          "midi": 36,
          "name": "C2",
          "ticks": 128928,
          "time": 117.80695275,
          "velocity": 0.49606299212598426
        },
        {
          "duration": 0.08771925000000635,
          "durationTicks": 96,
          "midi": 41,
          "name": "F2",
          "ticks": 128928,
          "time": 117.80695275,
          "velocity": 0.49606299212598426
        },
        {
          "duration": 0.08771925000000635,
          "durationTicks": 96,
          "midi": 45,
          "name": "A2",
          "ticks": 128928,
          "time": 117.80695275,
          "velocity": 0.49606299212598426
        },
        {
          "duration": 0.08771924999999214,
          "durationTicks": 96,
          "midi": 36,
          "name": "C2",
          "ticks": 129696,
          "time": 118.50870675,
          "velocity": 0.49606299212598426
        },
        {
          "duration": 0.08771924999999214,
          "durationTicks": 96,
          "midi": 41,
          "name": "F2",
          "ticks": 129696,
          "time": 118.50870675,
          "velocity": 0.49606299212598426
        },
        {
          "duration": 0.08771924999999214,
          "durationTicks": 96,
          "midi": 42,
          "name": "F#2",
          "ticks": 129696,
          "time": 118.50870675,
          "velocity": 0.49606299212598426
        },
        {
          "duration": 0.08771924999999214,
          "durationTicks": 96,
          "midi": 45,
          "name": "A2",
          "ticks": 129696,
          "time": 118.50870675,
          "velocity": 0.49606299212598426
        },
        {
          "duration": 0.08771925000000635,
          "durationTicks": 96,
          "midi": 41,
          "name": "F2",
          "ticks": 130464,
          "time": 119.21046075,
          "velocity": 0.49606299212598426
        },
        {
          "duration": 0.08771925000000635,
          "durationTicks": 96,
          "midi": 45,
          "name": "A2",
          "ticks": 130464,
          "time": 119.21046075,
          "velocity": 0.49606299212598426
        },
        {
          "duration": 0.08771925000000635,
          "durationTicks": 96,
          "midi": 36,
          "name": "C2",
          "ticks": 130464,
          "time": 119.21046075,
          "velocity": 0.49606299212598426
        },
        {
          "duration": 0.08771925000000635,
          "durationTicks": 96,
          "midi": 42,
          "name": "F#2",
          "ticks": 130464,
          "time": 119.21046075,
          "velocity": 0.49606299212598426
        },
        {
          "duration": 0.08771924999999214,
          "durationTicks": 96,
          "midi": 41,
          "name": "F2",
          "ticks": 131232,
          "time": 119.91221475,
          "velocity": 0.49606299212598426
        },
        {
          "duration": 0.08771924999999214,
          "durationTicks": 96,
          "midi": 42,
          "name": "F#2",
          "ticks": 131232,
          "time": 119.91221475,
          "velocity": 0.49606299212598426
        },
        {
          "duration": 0.08771924999999214,
          "durationTicks": 96,
          "midi": 45,
          "name": "A2",
          "ticks": 131232,
          "time": 119.91221475,
          "velocity": 0.49606299212598426
        },
        {
          "duration": 0.08771924999999214,
          "durationTicks": 96,
          "midi": 36,
          "name": "C2",
          "ticks": 131232,
          "time": 119.91221475,
          "velocity": 0.49606299212598426
        },
        {
          "duration": 0.08771925000000635,
          "durationTicks": 96,
          "midi": 41,
          "name": "F2",
          "ticks": 132000,
          "time": 120.61396875,
          "velocity": 0.49606299212598426
        },
        {
          "duration": 0.08771925000000635,
          "durationTicks": 96,
          "midi": 36,
          "name": "C2",
          "ticks": 132000,
          "time": 120.61396875,
          "velocity": 0.49606299212598426
        },
        {
          "duration": 0.08771925000000635,
          "durationTicks": 96,
          "midi": 45,
          "name": "A2",
          "ticks": 132000,
          "time": 120.61396875,
          "velocity": 0.49606299212598426
        },
        {
          "duration": 0.08771925000000635,
          "durationTicks": 96,
          "midi": 42,
          "name": "F#2",
          "ticks": 132000,
          "time": 120.61396875,
          "velocity": 0.49606299212598426
        },
        {
          "duration": 0.08771925000000635,
          "durationTicks": 96,
          "midi": 42,
          "name": "F#2",
          "ticks": 132768,
          "time": 121.31572274999999,
          "velocity": 0.49606299212598426
        },
        {
          "duration": 0.08771925000000635,
          "durationTicks": 96,
          "midi": 45,
          "name": "A2",
          "ticks": 132768,
          "time": 121.31572274999999,
          "velocity": 0.49606299212598426
        },
        {
          "duration": 0.08771925000000635,
          "durationTicks": 96,
          "midi": 41,
          "name": "F2",
          "ticks": 132768,
          "time": 121.31572274999999,
          "velocity": 0.49606299212598426
        },
        {
          "duration": 0.08771925000000635,
          "durationTicks": 96,
          "midi": 36,
          "name": "C2",
          "ticks": 132768,
          "time": 121.31572274999999,
          "velocity": 0.49606299212598426
        },
        {
          "duration": 0.08771924999999214,
          "durationTicks": 96,
          "midi": 45,
          "name": "A2",
          "ticks": 133536,
          "time": 122.01747675,
          "velocity": 0.49606299212598426
        },
        {
          "duration": 0.08771924999999214,
          "durationTicks": 96,
          "midi": 41,
          "name": "F2",
          "ticks": 133536,
          "time": 122.01747675,
          "velocity": 0.49606299212598426
        },
        {
          "duration": 0.08771924999999214,
          "durationTicks": 96,
          "midi": 36,
          "name": "C2",
          "ticks": 133536,
          "time": 122.01747675,
          "velocity": 0.49606299212598426
        },
        {
          "duration": 0.08771924999999214,
          "durationTicks": 96,
          "midi": 42,
          "name": "F#2",
          "ticks": 133536,
          "time": 122.01747675,
          "velocity": 0.49606299212598426
        },
        {
          "duration": 0.08771925000000635,
          "durationTicks": 96,
          "midi": 41,
          "name": "F2",
          "ticks": 134304,
          "time": 122.71923075,
          "velocity": 0.49606299212598426
        },
        {
          "duration": 0.08771925000000635,
          "durationTicks": 96,
          "midi": 45,
          "name": "A2",
          "ticks": 134304,
          "time": 122.71923075,
          "velocity": 0.49606299212598426
        },
        {
          "duration": 0.08771925000000635,
          "durationTicks": 96,
          "midi": 42,
          "name": "F#2",
          "ticks": 134304,
          "time": 122.71923075,
          "velocity": 0.49606299212598426
        },
        {
          "duration": 0.08771925000000635,
          "durationTicks": 96,
          "midi": 36,
          "name": "C2",
          "ticks": 134304,
          "time": 122.71923075,
          "velocity": 0.49606299212598426
        },
        {
          "duration": 0.08771924999999214,
          "durationTicks": 96,
          "midi": 36,
          "name": "C2",
          "ticks": 135072,
          "time": 123.42098475,
          "velocity": 0.49606299212598426
        },
        {
          "duration": 0.08771924999999214,
          "durationTicks": 96,
          "midi": 41,
          "name": "F2",
          "ticks": 135072,
          "time": 123.42098475,
          "velocity": 0.49606299212598426
        },
        {
          "duration": 0.08771924999999214,
          "durationTicks": 96,
          "midi": 42,
          "name": "F#2",
          "ticks": 135072,
          "time": 123.42098475,
          "velocity": 0.49606299212598426
        },
        {
          "duration": 0.08771924999999214,
          "durationTicks": 96,
          "midi": 45,
          "name": "A2",
          "ticks": 135072,
          "time": 123.42098475,
          "velocity": 0.49606299212598426
        },
        {
          "duration": 0.08771925000000635,
          "durationTicks": 96,
          "midi": 45,
          "name": "A2",
          "ticks": 135840,
          "time": 124.12273875,
          "velocity": 0.49606299212598426
        },
        {
          "duration": 0.08771925000000635,
          "durationTicks": 96,
          "midi": 36,
          "name": "C2",
          "ticks": 135840,
          "time": 124.12273875,
          "velocity": 0.49606299212598426
        },
        {
          "duration": 0.08771925000000635,
          "durationTicks": 96,
          "midi": 42,
          "name": "F#2",
          "ticks": 135840,
          "time": 124.12273875,
          "velocity": 0.49606299212598426
        },
        {
          "duration": 0.08771925000000635,
          "durationTicks": 96,
          "midi": 41,
          "name": "F2",
          "ticks": 135840,
          "time": 124.12273875,
          "velocity": 0.49606299212598426
        },
        {
          "duration": 0.08771924999999214,
          "durationTicks": 96,
          "midi": 41,
          "name": "F2",
          "ticks": 136608,
          "time": 124.82449275,
          "velocity": 0.49606299212598426
        },
        {
          "duration": 0.08771924999999214,
          "durationTicks": 96,
          "midi": 36,
          "name": "C2",
          "ticks": 136608,
          "time": 124.82449275,
          "velocity": 0.49606299212598426
        },
        {
          "duration": 0.08771924999999214,
          "durationTicks": 96,
          "midi": 45,
          "name": "A2",
          "ticks": 136608,
          "time": 124.82449275,
          "velocity": 0.49606299212598426
        },
        {
          "duration": 0.08771924999999214,
          "durationTicks": 96,
          "midi": 42,
          "name": "F#2",
          "ticks": 136608,
          "time": 124.82449275,
          "velocity": 0.49606299212598426
        },
        {
          "duration": 0.08771925000000635,
          "durationTicks": 96,
          "midi": 42,
          "name": "F#2",
          "ticks": 137376,
          "time": 125.52624675,
          "velocity": 0.49606299212598426
        },
        {
          "duration": 0.08771925000000635,
          "durationTicks": 96,
          "midi": 45,
          "name": "A2",
          "ticks": 137376,
          "time": 125.52624675,
          "velocity": 0.49606299212598426
        },
        {
          "duration": 0.08771925000000635,
          "durationTicks": 96,
          "midi": 41,
          "name": "F2",
          "ticks": 137376,
          "time": 125.52624675,
          "velocity": 0.49606299212598426
        },
        {
          "duration": 0.08771925000000635,
          "durationTicks": 96,
          "midi": 36,
          "name": "C2",
          "ticks": 137376,
          "time": 125.52624675,
          "velocity": 0.49606299212598426
        },
        {
          "duration": 0.08771925000000635,
          "durationTicks": 96,
          "midi": 41,
          "name": "F2",
          "ticks": 138144,
          "time": 126.22800074999999,
          "velocity": 0.49606299212598426
        },
        {
          "duration": 0.08771925000000635,
          "durationTicks": 96,
          "midi": 36,
          "name": "C2",
          "ticks": 138144,
          "time": 126.22800074999999,
          "velocity": 0.49606299212598426
        },
        {
          "duration": 0.08771925000000635,
          "durationTicks": 96,
          "midi": 45,
          "name": "A2",
          "ticks": 138144,
          "time": 126.22800074999999,
          "velocity": 0.49606299212598426
        },
        {
          "duration": 0.08771925000000635,
          "durationTicks": 96,
          "midi": 42,
          "name": "F#2",
          "ticks": 138144,
          "time": 126.22800074999999,
          "velocity": 0.49606299212598426
        },
        {
          "duration": 0.08771924999999214,
          "durationTicks": 96,
          "midi": 45,
          "name": "A2",
          "ticks": 138912,
          "time": 126.92975475,
          "velocity": 0.49606299212598426
        },
        {
          "duration": 0.08771924999999214,
          "durationTicks": 96,
          "midi": 41,
          "name": "F2",
          "ticks": 138912,
          "time": 126.92975475,
          "velocity": 0.49606299212598426
        },
        {
          "duration": 0.08771924999999214,
          "durationTicks": 96,
          "midi": 42,
          "name": "F#2",
          "ticks": 138912,
          "time": 126.92975475,
          "velocity": 0.49606299212598426
        },
        {
          "duration": 0.08771924999999214,
          "durationTicks": 96,
          "midi": 36,
          "name": "C2",
          "ticks": 138912,
          "time": 126.92975475,
          "velocity": 0.49606299212598426
        },
        {
          "duration": 0.08771925000000635,
          "durationTicks": 96,
          "midi": 36,
          "name": "C2",
          "ticks": 139680,
          "time": 127.63150875,
          "velocity": 0.49606299212598426
        },
        {
          "duration": 0.08771925000000635,
          "durationTicks": 96,
          "midi": 41,
          "name": "F2",
          "ticks": 139680,
          "time": 127.63150875,
          "velocity": 0.49606299212598426
        },
        {
          "duration": 0.08771925000000635,
          "durationTicks": 96,
          "midi": 42,
          "name": "F#2",
          "ticks": 139680,
          "time": 127.63150875,
          "velocity": 0.49606299212598426
        },
        {
          "duration": 0.08771925000000635,
          "durationTicks": 96,
          "midi": 45,
          "name": "A2",
          "ticks": 139680,
          "time": 127.63150875,
          "velocity": 0.49606299212598426
        },
        {
          "duration": 0.08771925000002057,
          "durationTicks": 96,
          "midi": 42,
          "name": "F#2",
          "ticks": 140448,
          "time": 128.33326275,
          "velocity": 0.49606299212598426
        },
        {
          "duration": 0.08771925000002057,
          "durationTicks": 96,
          "midi": 45,
          "name": "A2",
          "ticks": 140448,
          "time": 128.33326275,
          "velocity": 0.49606299212598426
        },
        {
          "duration": 0.08771925000002057,
          "durationTicks": 96,
          "midi": 41,
          "name": "F2",
          "ticks": 140448,
          "time": 128.33326275,
          "velocity": 0.49606299212598426
        },
        {
          "duration": 0.08771925000002057,
          "durationTicks": 96,
          "midi": 36,
          "name": "C2",
          "ticks": 140448,
          "time": 128.33326275,
          "velocity": 0.49606299212598426
        },
        {
          "duration": 0.08771924999999214,
          "durationTicks": 96,
          "midi": 41,
          "name": "F2",
          "ticks": 141216,
          "time": 129.03501675,
          "velocity": 0.49606299212598426
        },
        {
          "duration": 0.08771924999999214,
          "durationTicks": 96,
          "midi": 42,
          "name": "F#2",
          "ticks": 141216,
          "time": 129.03501675,
          "velocity": 0.49606299212598426
        },
        {
          "duration": 0.08771924999999214,
          "durationTicks": 96,
          "midi": 45,
          "name": "A2",
          "ticks": 141216,
          "time": 129.03501675,
          "velocity": 0.49606299212598426
        },
        {
          "duration": 0.08771924999999214,
          "durationTicks": 96,
          "midi": 36,
          "name": "C2",
          "ticks": 141216,
          "time": 129.03501675,
          "velocity": 0.49606299212598426
        },
        {
          "duration": 0.08771924999999214,
          "durationTicks": 96,
          "midi": 41,
          "name": "F2",
          "ticks": 141984,
          "time": 129.73677075,
          "velocity": 0.49606299212598426
        },
        {
          "duration": 0.08771924999999214,
          "durationTicks": 96,
          "midi": 45,
          "name": "A2",
          "ticks": 141984,
          "time": 129.73677075,
          "velocity": 0.49606299212598426
        },
        {
          "duration": 0.08771924999999214,
          "durationTicks": 96,
          "midi": 42,
          "name": "F#2",
          "ticks": 141984,
          "time": 129.73677075,
          "velocity": 0.49606299212598426
        },
        {
          "duration": 0.08771924999999214,
          "durationTicks": 96,
          "midi": 36,
          "name": "C2",
          "ticks": 141984,
          "time": 129.73677075,
          "velocity": 0.49606299212598426
        },
        {
          "duration": 0.08771924999999214,
          "durationTicks": 96,
          "midi": 36,
          "name": "C2",
          "ticks": 142752,
          "time": 130.43852475,
          "velocity": 0.49606299212598426
        },
        {
          "duration": 0.08771924999999214,
          "durationTicks": 96,
          "midi": 41,
          "name": "F2",
          "ticks": 142752,
          "time": 130.43852475,
          "velocity": 0.49606299212598426
        },
        {
          "duration": 0.08771924999999214,
          "durationTicks": 96,
          "midi": 45,
          "name": "A2",
          "ticks": 142752,
          "time": 130.43852475,
          "velocity": 0.49606299212598426
        },
        {
          "duration": 0.08771924999999214,
          "durationTicks": 96,
          "midi": 42,
          "name": "F#2",
          "ticks": 142752,
          "time": 130.43852475,
          "velocity": 0.49606299212598426
        },
        {
          "duration": 0.08771924999999214,
          "durationTicks": 96,
          "midi": 36,
          "name": "C2",
          "ticks": 143520,
          "time": 131.14027875,
          "velocity": 0.49606299212598426
        },
        {
          "duration": 0.08771924999999214,
          "durationTicks": 96,
          "midi": 41,
          "name": "F2",
          "ticks": 143520,
          "time": 131.14027875,
          "velocity": 0.49606299212598426
        },
        {
          "duration": 0.08771924999999214,
          "durationTicks": 96,
          "midi": 42,
          "name": "F#2",
          "ticks": 143520,
          "time": 131.14027875,
          "velocity": 0.49606299212598426
        },
        {
          "duration": 0.08771924999999214,
          "durationTicks": 96,
          "midi": 45,
          "name": "A2",
          "ticks": 143520,
          "time": 131.14027875,
          "velocity": 0.49606299212598426
        },
        {
          "duration": 0.08771925000002057,
          "durationTicks": 96,
          "midi": 45,
          "name": "A2",
          "ticks": 144288,
          "time": 131.84203275,
          "velocity": 0.49606299212598426
        },
        {
          "duration": 0.08771925000002057,
          "durationTicks": 96,
          "midi": 41,
          "name": "F2",
          "ticks": 144288,
          "time": 131.84203275,
          "velocity": 0.49606299212598426
        },
        {
          "duration": 0.08771925000002057,
          "durationTicks": 96,
          "midi": 36,
          "name": "C2",
          "ticks": 144288,
          "time": 131.84203275,
          "velocity": 0.49606299212598426
        },
        {
          "duration": 0.08771925000002057,
          "durationTicks": 96,
          "midi": 42,
          "name": "F#2",
          "ticks": 144288,
          "time": 131.84203275,
          "velocity": 0.49606299212598426
        },
        {
          "duration": 0.08771924999999214,
          "durationTicks": 96,
          "midi": 36,
          "name": "C2",
          "ticks": 145056,
          "time": 132.54378675,
          "velocity": 0.49606299212598426
        },
        {
          "duration": 0.08771924999999214,
          "durationTicks": 96,
          "midi": 42,
          "name": "F#2",
          "ticks": 145056,
          "time": 132.54378675,
          "velocity": 0.49606299212598426
        },
        {
          "duration": 0.08771924999999214,
          "durationTicks": 96,
          "midi": 41,
          "name": "F2",
          "ticks": 145056,
          "time": 132.54378675,
          "velocity": 0.49606299212598426
        },
        {
          "duration": 0.08771924999999214,
          "durationTicks": 96,
          "midi": 45,
          "name": "A2",
          "ticks": 145056,
          "time": 132.54378675,
          "velocity": 0.49606299212598426
        },
        {
          "duration": 0.08771924999999214,
          "durationTicks": 96,
          "midi": 36,
          "name": "C2",
          "ticks": 145824,
          "time": 133.24554075,
          "velocity": 0.49606299212598426
        },
        {
          "duration": 0.08771924999999214,
          "durationTicks": 96,
          "midi": 45,
          "name": "A2",
          "ticks": 145824,
          "time": 133.24554075,
          "velocity": 0.49606299212598426
        },
        {
          "duration": 0.08771924999999214,
          "durationTicks": 96,
          "midi": 41,
          "name": "F2",
          "ticks": 145824,
          "time": 133.24554075,
          "velocity": 0.49606299212598426
        },
        {
          "duration": 0.08771924999999214,
          "durationTicks": 96,
          "midi": 42,
          "name": "F#2",
          "ticks": 145824,
          "time": 133.24554075,
          "velocity": 0.49606299212598426
        },
        {
          "duration": 0.08771924999999214,
          "durationTicks": 96,
          "midi": 36,
          "name": "C2",
          "ticks": 146592,
          "time": 133.94729475,
          "velocity": 0.49606299212598426
        },
        {
          "duration": 0.08771924999999214,
          "durationTicks": 96,
          "midi": 41,
          "name": "F2",
          "ticks": 146592,
          "time": 133.94729475,
          "velocity": 0.49606299212598426
        },
        {
          "duration": 0.08771924999999214,
          "durationTicks": 96,
          "midi": 42,
          "name": "F#2",
          "ticks": 146592,
          "time": 133.94729475,
          "velocity": 0.49606299212598426
        },
        {
          "duration": 0.08771924999999214,
          "durationTicks": 96,
          "midi": 45,
          "name": "A2",
          "ticks": 146592,
          "time": 133.94729475,
          "velocity": 0.49606299212598426
        },
        {
          "duration": 0.08771924999999214,
          "durationTicks": 96,
          "midi": 41,
          "name": "F2",
          "ticks": 147360,
          "time": 134.64904875,
          "velocity": 0.49606299212598426
        },
        {
          "duration": 0.08771924999999214,
          "durationTicks": 96,
          "midi": 42,
          "name": "F#2",
          "ticks": 147360,
          "time": 134.64904875,
          "velocity": 0.49606299212598426
        },
        {
          "duration": 0.08771924999999214,
          "durationTicks": 96,
          "midi": 45,
          "name": "A2",
          "ticks": 147360,
          "time": 134.64904875,
          "velocity": 0.49606299212598426
        },
        {
          "duration": 0.08771924999999214,
          "durationTicks": 96,
          "midi": 36,
          "name": "C2",
          "ticks": 147360,
          "time": 134.64904875,
          "velocity": 0.49606299212598426
        },
        {
          "duration": 0.08771924999999214,
          "durationTicks": 96,
          "midi": 42,
          "name": "F#2",
          "ticks": 160512,
          "time": 146.666586,
          "velocity": 0.49606299212598426
        },
        {
          "duration": 0.08771924999999214,
          "durationTicks": 96,
          "midi": 43,
          "name": "G2",
          "ticks": 160512,
          "time": 146.666586,
          "velocity": 0.49606299212598426
        },
        {
          "duration": 0.08771924999999214,
          "durationTicks": 96,
          "midi": 41,
          "name": "F2",
          "ticks": 160512,
          "time": 146.666586,
          "velocity": 0.49606299212598426
        },
        {
          "duration": 0.08771925000002057,
          "durationTicks": 96,
          "midi": 42,
          "name": "F#2",
          "ticks": 161280,
          "time": 147.36834,
          "velocity": 0.49606299212598426
        },
        {
          "duration": 0.08771925000002057,
          "durationTicks": 96,
          "midi": 41,
          "name": "F2",
          "ticks": 161280,
          "time": 147.36834,
          "velocity": 0.49606299212598426
        },
        {
          "duration": 0.08771925000002057,
          "durationTicks": 96,
          "midi": 43,
          "name": "G2",
          "ticks": 161280,
          "time": 147.36834,
          "velocity": 0.49606299212598426
        },
        {
          "duration": 0.08771924999999214,
          "durationTicks": 96,
          "midi": 43,
          "name": "G2",
          "ticks": 162048,
          "time": 148.070094,
          "velocity": 0.49606299212598426
        },
        {
          "duration": 0.08771924999999214,
          "durationTicks": 96,
          "midi": 42,
          "name": "F#2",
          "ticks": 162048,
          "time": 148.070094,
          "velocity": 0.49606299212598426
        },
        {
          "duration": 0.08771924999999214,
          "durationTicks": 96,
          "midi": 41,
          "name": "F2",
          "ticks": 162048,
          "time": 148.070094,
          "velocity": 0.49606299212598426
        },
        {
          "duration": 0.08771924999999214,
          "durationTicks": 96,
          "midi": 42,
          "name": "F#2",
          "ticks": 162816,
          "time": 148.771848,
          "velocity": 0.49606299212598426
        },
        {
          "duration": 0.08771924999999214,
          "durationTicks": 96,
          "midi": 41,
          "name": "F2",
          "ticks": 162816,
          "time": 148.771848,
          "velocity": 0.49606299212598426
        },
        {
          "duration": 0.08771924999999214,
          "durationTicks": 96,
          "midi": 43,
          "name": "G2",
          "ticks": 162816,
          "time": 148.771848,
          "velocity": 0.49606299212598426
        },
        {
          "duration": 0.08771924999999214,
          "durationTicks": 96,
          "midi": 43,
          "name": "G2",
          "ticks": 163584,
          "time": 149.473602,
          "velocity": 0.49606299212598426
        },
        {
          "duration": 0.08771924999999214,
          "durationTicks": 96,
          "midi": 42,
          "name": "F#2",
          "ticks": 163584,
          "time": 149.473602,
          "velocity": 0.49606299212598426
        },
        {
          "duration": 0.08771924999999214,
          "durationTicks": 96,
          "midi": 41,
          "name": "F2",
          "ticks": 163584,
          "time": 149.473602,
          "velocity": 0.49606299212598426
        },
        {
          "duration": 0.08771924999999214,
          "durationTicks": 96,
          "midi": 42,
          "name": "F#2",
          "ticks": 164352,
          "time": 150.175356,
          "velocity": 0.49606299212598426
        },
        {
          "duration": 0.08771924999999214,
          "durationTicks": 96,
          "midi": 41,
          "name": "F2",
          "ticks": 164352,
          "time": 150.175356,
          "velocity": 0.49606299212598426
        },
        {
          "duration": 0.08771924999999214,
          "durationTicks": 96,
          "midi": 43,
          "name": "G2",
          "ticks": 164352,
          "time": 150.175356,
          "velocity": 0.49606299212598426
        },
        {
          "duration": 0.08771925000002057,
          "durationTicks": 96,
          "midi": 42,
          "name": "F#2",
          "ticks": 165120,
          "time": 150.87711,
          "velocity": 0.49606299212598426
        },
        {
          "duration": 0.08771925000002057,
          "durationTicks": 96,
          "midi": 41,
          "name": "F2",
          "ticks": 165120,
          "time": 150.87711,
          "velocity": 0.49606299212598426
        },
        {
          "duration": 0.08771925000002057,
          "durationTicks": 96,
          "midi": 43,
          "name": "G2",
          "ticks": 165120,
          "time": 150.87711,
          "velocity": 0.49606299212598426
        },
        {
          "duration": 0.08771924999999214,
          "durationTicks": 96,
          "midi": 42,
          "name": "F#2",
          "ticks": 165888,
          "time": 151.578864,
          "velocity": 0.49606299212598426
        },
        {
          "duration": 0.08771924999999214,
          "durationTicks": 96,
          "midi": 43,
          "name": "G2",
          "ticks": 165888,
          "time": 151.578864,
          "velocity": 0.49606299212598426
        },
        {
          "duration": 0.08771924999999214,
          "durationTicks": 96,
          "midi": 41,
          "name": "F2",
          "ticks": 165888,
          "time": 151.578864,
          "velocity": 0.49606299212598426
        },
        {
          "duration": 0.08771924999999214,
          "durationTicks": 96,
          "midi": 43,
          "name": "G2",
          "ticks": 166656,
          "time": 152.280618,
          "velocity": 0.49606299212598426
        },
        {
          "duration": 0.08771924999999214,
          "durationTicks": 96,
          "midi": 42,
          "name": "F#2",
          "ticks": 166656,
          "time": 152.280618,
          "velocity": 0.49606299212598426
        },
        {
          "duration": 0.08771924999999214,
          "durationTicks": 96,
          "midi": 41,
          "name": "F2",
          "ticks": 166656,
          "time": 152.280618,
          "velocity": 0.49606299212598426
        },
        {
          "duration": 0.08771924999999214,
          "durationTicks": 96,
          "midi": 43,
          "name": "G2",
          "ticks": 167424,
          "time": 152.982372,
          "velocity": 0.49606299212598426
        },
        {
          "duration": 0.08771924999999214,
          "durationTicks": 96,
          "midi": 42,
          "name": "F#2",
          "ticks": 167424,
          "time": 152.982372,
          "velocity": 0.49606299212598426
        },
        {
          "duration": 0.08771924999999214,
          "durationTicks": 96,
          "midi": 41,
          "name": "F2",
          "ticks": 167424,
          "time": 152.982372,
          "velocity": 0.49606299212598426
        },
        {
          "duration": 0.08771924999999214,
          "durationTicks": 96,
          "midi": 42,
          "name": "F#2",
          "ticks": 168192,
          "time": 153.684126,
          "velocity": 0.49606299212598426
        },
        {
          "duration": 0.08771924999999214,
          "durationTicks": 96,
          "midi": 41,
          "name": "F2",
          "ticks": 168192,
          "time": 153.684126,
          "velocity": 0.49606299212598426
        },
        {
          "duration": 0.08771924999999214,
          "durationTicks": 96,
          "midi": 43,
          "name": "G2",
          "ticks": 168192,
          "time": 153.684126,
          "velocity": 0.49606299212598426
        },
        {
          "duration": 0.08771925000002057,
          "durationTicks": 96,
          "midi": 41,
          "name": "F2",
          "ticks": 168960,
          "time": 154.38588,
          "velocity": 0.49606299212598426
        },
        {
          "duration": 0.08771925000002057,
          "durationTicks": 96,
          "midi": 43,
          "name": "G2",
          "ticks": 168960,
          "time": 154.38588,
          "velocity": 0.49606299212598426
        },
        {
          "duration": 0.08771925000002057,
          "durationTicks": 96,
          "midi": 42,
          "name": "F#2",
          "ticks": 168960,
          "time": 154.38588,
          "velocity": 0.49606299212598426
        },
        {
          "duration": 0.08771924999999214,
          "durationTicks": 96,
          "midi": 41,
          "name": "F2",
          "ticks": 169728,
          "time": 155.087634,
          "velocity": 0.49606299212598426
        },
        {
          "duration": 0.08771924999999214,
          "durationTicks": 96,
          "midi": 42,
          "name": "F#2",
          "ticks": 169728,
          "time": 155.087634,
          "velocity": 0.49606299212598426
        },
        {
          "duration": 0.08771924999999214,
          "durationTicks": 96,
          "midi": 43,
          "name": "G2",
          "ticks": 169728,
          "time": 155.087634,
          "velocity": 0.49606299212598426
        },
        {
          "duration": 0.08771924999999214,
          "durationTicks": 96,
          "midi": 41,
          "name": "F2",
          "ticks": 170496,
          "time": 155.789388,
          "velocity": 0.49606299212598426
        },
        {
          "duration": 0.08771924999999214,
          "durationTicks": 96,
          "midi": 42,
          "name": "F#2",
          "ticks": 170496,
          "time": 155.789388,
          "velocity": 0.49606299212598426
        },
        {
          "duration": 0.08771924999999214,
          "durationTicks": 96,
          "midi": 43,
          "name": "G2",
          "ticks": 170496,
          "time": 155.789388,
          "velocity": 0.49606299212598426
        },
        {
          "duration": 0.08771924999999214,
          "durationTicks": 96,
          "midi": 42,
          "name": "F#2",
          "ticks": 171264,
          "time": 156.491142,
          "velocity": 0.49606299212598426
        },
        {
          "duration": 0.08771924999999214,
          "durationTicks": 96,
          "midi": 43,
          "name": "G2",
          "ticks": 171264,
          "time": 156.491142,
          "velocity": 0.49606299212598426
        },
        {
          "duration": 0.08771924999999214,
          "durationTicks": 96,
          "midi": 41,
          "name": "F2",
          "ticks": 171264,
          "time": 156.491142,
          "velocity": 0.49606299212598426
        },
        {
          "duration": 0.08771925000002057,
          "durationTicks": 96,
          "midi": 43,
          "name": "G2",
          "ticks": 172032,
          "time": 157.192896,
          "velocity": 0.49606299212598426
        },
        {
          "duration": 0.08771925000002057,
          "durationTicks": 96,
          "midi": 41,
          "name": "F2",
          "ticks": 172032,
          "time": 157.192896,
          "velocity": 0.49606299212598426
        },
        {
          "duration": 0.08771925000002057,
          "durationTicks": 96,
          "midi": 42,
          "name": "F#2",
          "ticks": 172032,
          "time": 157.192896,
          "velocity": 0.49606299212598426
        },
        {
          "duration": 0.08771925000002057,
          "durationTicks": 96,
          "midi": 43,
          "name": "G2",
          "ticks": 172800,
          "time": 157.89464999999998,
          "velocity": 0.49606299212598426
        },
        {
          "duration": 0.08771925000002057,
          "durationTicks": 96,
          "midi": 41,
          "name": "F2",
          "ticks": 172800,
          "time": 157.89464999999998,
          "velocity": 0.49606299212598426
        },
        {
          "duration": 0.08771925000002057,
          "durationTicks": 96,
          "midi": 42,
          "name": "F#2",
          "ticks": 172800,
          "time": 157.89464999999998,
          "velocity": 0.49606299212598426
        },
        {
          "duration": 0.08771924999999214,
          "durationTicks": 96,
          "midi": 42,
          "name": "F#2",
          "ticks": 173568,
          "time": 158.596404,
          "velocity": 0.49606299212598426
        },
        {
          "duration": 0.08771924999999214,
          "durationTicks": 96,
          "midi": 41,
          "name": "F2",
          "ticks": 173568,
          "time": 158.596404,
          "velocity": 0.49606299212598426
        },
        {
          "duration": 0.08771924999999214,
          "durationTicks": 96,
          "midi": 43,
          "name": "G2",
          "ticks": 173568,
          "time": 158.596404,
          "velocity": 0.49606299212598426
        },
        {
          "duration": 0.08771924999999214,
          "durationTicks": 96,
          "midi": 41,
          "name": "F2",
          "ticks": 174336,
          "time": 159.298158,
          "velocity": 0.49606299212598426
        },
        {
          "duration": 0.08771924999999214,
          "durationTicks": 96,
          "midi": 42,
          "name": "F#2",
          "ticks": 174336,
          "time": 159.298158,
          "velocity": 0.49606299212598426
        },
        {
          "duration": 0.08771924999999214,
          "durationTicks": 96,
          "midi": 43,
          "name": "G2",
          "ticks": 174336,
          "time": 159.298158,
          "velocity": 0.49606299212598426
        },
        {
          "duration": 0.08771924999999214,
          "durationTicks": 96,
          "midi": 41,
          "name": "F2",
          "ticks": 175104,
          "time": 159.999912,
          "velocity": 0.49606299212598426
        },
        {
          "duration": 0.08771924999999214,
          "durationTicks": 96,
          "midi": 43,
          "name": "G2",
          "ticks": 175104,
          "time": 159.999912,
          "velocity": 0.49606299212598426
        },
        {
          "duration": 0.08771924999999214,
          "durationTicks": 96,
          "midi": 42,
          "name": "F#2",
          "ticks": 175104,
          "time": 159.999912,
          "velocity": 0.49606299212598426
        },
        {
          "duration": 0.08771925000002057,
          "durationTicks": 96,
          "midi": 42,
          "name": "F#2",
          "ticks": 175872,
          "time": 160.701666,
          "velocity": 0.49606299212598426
        },
        {
          "duration": 0.08771925000002057,
          "durationTicks": 96,
          "midi": 43,
          "name": "G2",
          "ticks": 175872,
          "time": 160.701666,
          "velocity": 0.49606299212598426
        },
        {
          "duration": 0.08771925000002057,
          "durationTicks": 96,
          "midi": 41,
          "name": "F2",
          "ticks": 175872,
          "time": 160.701666,
          "velocity": 0.49606299212598426
        },
        {
          "duration": 0.08771924999999214,
          "durationTicks": 96,
          "midi": 41,
          "name": "F2",
          "ticks": 176640,
          "time": 161.40342,
          "velocity": 0.49606299212598426
        },
        {
          "duration": 0.08771924999999214,
          "durationTicks": 96,
          "midi": 43,
          "name": "G2",
          "ticks": 176640,
          "time": 161.40342,
          "velocity": 0.49606299212598426
        },
        {
          "duration": 0.08771924999999214,
          "durationTicks": 96,
          "midi": 42,
          "name": "F#2",
          "ticks": 176640,
          "time": 161.40342,
          "velocity": 0.49606299212598426
        },
        {
          "duration": 0.08771924999999214,
          "durationTicks": 96,
          "midi": 41,
          "name": "F2",
          "ticks": 177408,
          "time": 162.105174,
          "velocity": 0.49606299212598426
        },
        {
          "duration": 0.08771924999999214,
          "durationTicks": 96,
          "midi": 42,
          "name": "F#2",
          "ticks": 177408,
          "time": 162.105174,
          "velocity": 0.49606299212598426
        },
        {
          "duration": 0.08771924999999214,
          "durationTicks": 96,
          "midi": 43,
          "name": "G2",
          "ticks": 177408,
          "time": 162.105174,
          "velocity": 0.49606299212598426
        },
        {
          "duration": 0.08771924999999214,
          "durationTicks": 96,
          "midi": 41,
          "name": "F2",
          "ticks": 178176,
          "time": 162.806928,
          "velocity": 0.49606299212598426
        },
        {
          "duration": 0.08771924999999214,
          "durationTicks": 96,
          "midi": 42,
          "name": "F#2",
          "ticks": 178176,
          "time": 162.806928,
          "velocity": 0.49606299212598426
        },
        {
          "duration": 0.08771924999999214,
          "durationTicks": 96,
          "midi": 43,
          "name": "G2",
          "ticks": 178176,
          "time": 162.806928,
          "velocity": 0.49606299212598426
        },
        {
          "duration": 0.08771924999999214,
          "durationTicks": 96,
          "midi": 43,
          "name": "G2",
          "ticks": 178944,
          "time": 163.508682,
          "velocity": 0.49606299212598426
        },
        {
          "duration": 0.08771924999999214,
          "durationTicks": 96,
          "midi": 42,
          "name": "F#2",
          "ticks": 178944,
          "time": 163.508682,
          "velocity": 0.49606299212598426
        },
        {
          "duration": 0.08771924999999214,
          "durationTicks": 96,
          "midi": 41,
          "name": "F2",
          "ticks": 178944,
          "time": 163.508682,
          "velocity": 0.49606299212598426
        },
        {
          "duration": 0.08771925000002057,
          "durationTicks": 96,
          "midi": 42,
          "name": "F#2",
          "ticks": 179712,
          "time": 164.210436,
          "velocity": 0.49606299212598426
        },
        {
          "duration": 0.08771925000002057,
          "durationTicks": 96,
          "midi": 41,
          "name": "F2",
          "ticks": 179712,
          "time": 164.210436,
          "velocity": 0.49606299212598426
        },
        {
          "duration": 0.08771925000002057,
          "durationTicks": 96,
          "midi": 43,
          "name": "G2",
          "ticks": 179712,
          "time": 164.210436,
          "velocity": 0.49606299212598426
        },
        {
          "duration": 0.08771924999999214,
          "durationTicks": 96,
          "midi": 41,
          "name": "F2",
          "ticks": 180480,
          "time": 164.91219,
          "velocity": 0.49606299212598426
        },
        {
          "duration": 0.08771924999999214,
          "durationTicks": 96,
          "midi": 42,
          "name": "F#2",
          "ticks": 180480,
          "time": 164.91219,
          "velocity": 0.49606299212598426
        },
        {
          "duration": 0.08771924999999214,
          "durationTicks": 96,
          "midi": 43,
          "name": "G2",
          "ticks": 180480,
          "time": 164.91219,
          "velocity": 0.49606299212598426
        },
        {
          "duration": 0.08771924999999214,
          "durationTicks": 96,
          "midi": 42,
          "name": "F#2",
          "ticks": 181248,
          "time": 165.613944,
          "velocity": 0.49606299212598426
        },
        {
          "duration": 0.08771924999999214,
          "durationTicks": 96,
          "midi": 41,
          "name": "F2",
          "ticks": 181248,
          "time": 165.613944,
          "velocity": 0.49606299212598426
        },
        {
          "duration": 0.08771924999999214,
          "durationTicks": 96,
          "midi": 43,
          "name": "G2",
          "ticks": 181248,
          "time": 165.613944,
          "velocity": 0.49606299212598426
        },
        {
          "duration": 0.08771924999999214,
          "durationTicks": 96,
          "midi": 42,
          "name": "F#2",
          "ticks": 182016,
          "time": 166.315698,
          "velocity": 0.49606299212598426
        },
        {
          "duration": 0.08771924999999214,
          "durationTicks": 96,
          "midi": 41,
          "name": "F2",
          "ticks": 182016,
          "time": 166.315698,
          "velocity": 0.49606299212598426
        },
        {
          "duration": 0.08771924999999214,
          "durationTicks": 96,
          "midi": 43,
          "name": "G2",
          "ticks": 182016,
          "time": 166.315698,
          "velocity": 0.49606299212598426
        },
        {
          "duration": 0.08771924999999214,
          "durationTicks": 96,
          "midi": 41,
          "name": "F2",
          "ticks": 182784,
          "time": 167.017452,
          "velocity": 0.49606299212598426
        },
        {
          "duration": 0.08771924999999214,
          "durationTicks": 96,
          "midi": 42,
          "name": "F#2",
          "ticks": 182784,
          "time": 167.017452,
          "velocity": 0.49606299212598426
        },
        {
          "duration": 0.08771924999999214,
          "durationTicks": 96,
          "midi": 43,
          "name": "G2",
          "ticks": 182784,
          "time": 167.017452,
          "velocity": 0.49606299212598426
        },
        {
          "duration": 0.08771925000002057,
          "durationTicks": 96,
          "midi": 43,
          "name": "G2",
          "ticks": 183552,
          "time": 167.71920599999999,
          "velocity": 0.49606299212598426
        },
        {
          "duration": 0.08771925000002057,
          "durationTicks": 96,
          "midi": 41,
          "name": "F2",
          "ticks": 183552,
          "time": 167.71920599999999,
          "velocity": 0.49606299212598426
        },
        {
          "duration": 0.08771925000002057,
          "durationTicks": 96,
          "midi": 42,
          "name": "F#2",
          "ticks": 183552,
          "time": 167.71920599999999,
          "velocity": 0.49606299212598426
        },
        {
          "duration": 0.08771924999999214,
          "durationTicks": 96,
          "midi": 42,
          "name": "F#2",
          "ticks": 184320,
          "time": 168.42096,
          "velocity": 0.49606299212598426
        },
        {
          "duration": 0.08771924999999214,
          "durationTicks": 96,
          "midi": 43,
          "name": "G2",
          "ticks": 184320,
          "time": 168.42096,
          "velocity": 0.49606299212598426
        },
        {
          "duration": 0.08771924999999214,
          "durationTicks": 96,
          "midi": 41,
          "name": "F2",
          "ticks": 184320,
          "time": 168.42096,
          "velocity": 0.49606299212598426
        },
        {
          "duration": 0.08771924999999214,
          "durationTicks": 96,
          "midi": 42,
          "name": "F#2",
          "ticks": 184800,
          "time": 168.85955625,
          "velocity": 0.49606299212598426
        },
        {
          "duration": 0.08771924999999214,
          "durationTicks": 96,
          "midi": 41,
          "name": "F2",
          "ticks": 184800,
          "time": 168.85955625,
          "velocity": 0.49606299212598426
        },
        {
          "duration": 0.08771924999999214,
          "durationTicks": 96,
          "midi": 43,
          "name": "G2",
          "ticks": 184800,
          "time": 168.85955625,
          "velocity": 0.49606299212598426
        }
      ],
      "endOfTrackTicks": 184896
    },
    {
      "channel": 13,
      "controlChanges": {},
      "pitchBends": [],
      "instrument": {
        "family": "piano",
        "number": 0,
        "name": "acoustic grand piano"
      },
      "name": "Grand Piano",
      "notes": [
        {
          "duration": 0.1754384999999985,
          "durationTicks": 192,
          "midi": 82,
          "name": "A#5",
          "ticks": 35712,
          "time": 32.631561,
          "velocity": 0.7874015748031497
        },
        {
          "duration": 0.1754385000000056,
          "durationTicks": 192,
          "midi": 81,
          "name": "A5",
          "ticks": 35904,
          "time": 32.806999499999996,
          "velocity": 0.7874015748031497
        },
        {
          "duration": 0.1754384999999985,
          "durationTicks": 192,
          "midi": 77,
          "name": "F5",
          "ticks": 36096,
          "time": 32.982438,
          "velocity": 0.7874015748031497
        },
        {
          "duration": 0.1754384999999985,
          "durationTicks": 192,
          "midi": 74,
          "name": "D5",
          "ticks": 36288,
          "time": 33.1578765,
          "velocity": 0.7874015748031497
        },
        {
          "duration": 0.1754384999999985,
          "durationTicks": 192,
          "midi": 72,
          "name": "C5",
          "ticks": 36480,
          "time": 33.333315,
          "velocity": 0.7874015748031497
        },
        {
          "duration": 0.1754384999999985,
          "durationTicks": 192,
          "midi": 70,
          "name": "A#4",
          "ticks": 36672,
          "time": 33.5087535,
          "velocity": 0.7874015748031497
        },
        {
          "duration": 0.1754385000000056,
          "durationTicks": 192,
          "midi": 65,
          "name": "F4",
          "ticks": 36864,
          "time": 33.684191999999996,
          "velocity": 0.7874015748031497
        },
        {
          "duration": 0.1754384999999985,
          "durationTicks": 192,
          "midi": 82,
          "name": "A#5",
          "ticks": 48000,
          "time": 43.859625,
          "velocity": 0.7874015748031497
        },
        {
          "duration": 0.1754384999999985,
          "durationTicks": 192,
          "midi": 81,
          "name": "A5",
          "ticks": 48192,
          "time": 44.0350635,
          "velocity": 0.7874015748031497
        },
        {
          "duration": 0.1754384999999985,
          "durationTicks": 192,
          "midi": 77,
          "name": "F5",
          "ticks": 48384,
          "time": 44.210502,
          "velocity": 0.7874015748031497
        },
        {
          "duration": 0.1754385000000056,
          "durationTicks": 192,
          "midi": 74,
          "name": "D5",
          "ticks": 48576,
          "time": 44.3859405,
          "velocity": 0.7874015748031497
        },
        {
          "duration": 0.1754384999999985,
          "durationTicks": 192,
          "midi": 72,
          "name": "C5",
          "ticks": 48768,
          "time": 44.561379,
          "velocity": 0.7874015748031497
        },
        {
          "duration": 0.1754384999999985,
          "durationTicks": 192,
          "midi": 70,
          "name": "A#4",
          "ticks": 48960,
          "time": 44.7368175,
          "velocity": 0.7874015748031497
        },
        {
          "duration": 0.1754384999999985,
          "durationTicks": 192,
          "midi": 65,
          "name": "F4",
          "ticks": 49152,
          "time": 44.912256,
          "velocity": 0.7874015748031497
        },
        {
          "duration": 2.1929812500000025,
          "durationTicks": 2400,
          "midi": 42,
          "name": "F#2",
          "ticks": 148128,
          "time": 135.35080274999999,
          "velocity": 0.7874015748031497
        },
        {
          "duration": 2.1929812500000025,
          "durationTicks": 2400,
          "midi": 44,
          "name": "G#2",
          "ticks": 150816,
          "time": 137.80694175,
          "velocity": 0.7874015748031497
        },
        {
          "duration": 2.1929812500000025,
          "durationTicks": 2400,
          "midi": 42,
          "name": "F#2",
          "ticks": 153984,
          "time": 140.701677,
          "velocity": 0.7874015748031497
        },
        {
          "duration": 0.08771924999999214,
          "durationTicks": 96,
          "midi": 78,
          "name": "F#5",
          "ticks": 163200,
          "time": 149.122725,
          "velocity": 0.7874015748031497
        },
        {
          "duration": 0.08771925000002057,
          "durationTicks": 96,
          "midi": 78,
          "name": "F#5",
          "ticks": 163392,
          "time": 149.2981635,
          "velocity": 0.7874015748031497
        },
        {
          "duration": 0.08771924999999214,
          "durationTicks": 96,
          "midi": 83,
          "name": "B5",
          "ticks": 163584,
          "time": 149.473602,
          "velocity": 0.7874015748031497
        },
        {
          "duration": 0.08771925000002057,
          "durationTicks": 96,
          "midi": 87,
          "name": "D#6",
          "ticks": 163776,
          "time": 149.64904049999998,
          "velocity": 0.7874015748031497
        },
        {
          "duration": 0.08771924999999214,
          "durationTicks": 96,
          "midi": 83,
          "name": "B5",
          "ticks": 163968,
          "time": 149.824479,
          "velocity": 0.7874015748031497
        },
        {
          "duration": 0.08771924999999214,
          "durationTicks": 96,
          "midi": 87,
          "name": "D#6",
          "ticks": 164160,
          "time": 149.9999175,
          "velocity": 0.7874015748031497
        },
        {
          "duration": 0.08771924999999214,
          "durationTicks": 96,
          "midi": 78,
          "name": "F#5",
          "ticks": 164544,
          "time": 150.3507945,
          "velocity": 0.7874015748031497
        },
        {
          "duration": 0.08771925000002057,
          "durationTicks": 96,
          "midi": 78,
          "name": "F#5",
          "ticks": 164736,
          "time": 150.526233,
          "velocity": 0.7874015748031497
        },
        {
          "duration": 0.08771924999999214,
          "durationTicks": 96,
          "midi": 83,
          "name": "B5",
          "ticks": 164928,
          "time": 150.7016715,
          "velocity": 0.7874015748031497
        },
        {
          "duration": 0.08771925000002057,
          "durationTicks": 96,
          "midi": 87,
          "name": "D#6",
          "ticks": 165120,
          "time": 150.87711,
          "velocity": 0.7874015748031497
        },
        {
          "duration": 0.08771924999999214,
          "durationTicks": 96,
          "midi": 83,
          "name": "B5",
          "ticks": 165312,
          "time": 151.0525485,
          "velocity": 0.7874015748031497
        },
        {
          "duration": 0.08771925000002057,
          "durationTicks": 96,
          "midi": 87,
          "name": "D#6",
          "ticks": 165504,
          "time": 151.22798699999998,
          "velocity": 0.7874015748031497
        },
        {
          "duration": 0.08771924999999214,
          "durationTicks": 96,
          "midi": 78,
          "name": "F#5",
          "ticks": 175488,
          "time": 160.350789,
          "velocity": 0.7874015748031497
        },
        {
          "duration": 0.08771924999999214,
          "durationTicks": 96,
          "midi": 78,
          "name": "F#5",
          "ticks": 175680,
          "time": 160.5262275,
          "velocity": 0.7874015748031497
        },
        {
          "duration": 0.08771925000002057,
          "durationTicks": 96,
          "midi": 83,
          "name": "B5",
          "ticks": 175872,
          "time": 160.701666,
          "velocity": 0.7874015748031497
        },
        {
          "duration": 0.08771924999999214,
          "durationTicks": 96,
          "midi": 87,
          "name": "D#6",
          "ticks": 176064,
          "time": 160.8771045,
          "velocity": 0.7874015748031497
        },
        {
          "duration": 0.08771925000002057,
          "durationTicks": 96,
          "midi": 83,
          "name": "B5",
          "ticks": 176256,
          "time": 161.052543,
          "velocity": 0.7874015748031497
        },
        {
          "duration": 0.08771924999999214,
          "durationTicks": 96,
          "midi": 87,
          "name": "D#6",
          "ticks": 176448,
          "time": 161.2279815,
          "velocity": 0.7874015748031497
        },
        {
          "duration": 0.08771924999999214,
          "durationTicks": 96,
          "midi": 78,
          "name": "F#5",
          "ticks": 176832,
          "time": 161.5788585,
          "velocity": 0.7874015748031497
        },
        {
          "duration": 0.08771924999999214,
          "durationTicks": 96,
          "midi": 78,
          "name": "F#5",
          "ticks": 177024,
          "time": 161.754297,
          "velocity": 0.7874015748031497
        },
        {
          "duration": 0.08771924999999214,
          "durationTicks": 96,
          "midi": 83,
          "name": "B5",
          "ticks": 177216,
          "time": 161.9297355,
          "velocity": 0.7874015748031497
        },
        {
          "duration": 0.08771924999999214,
          "durationTicks": 96,
          "midi": 87,
          "name": "D#6",
          "ticks": 177408,
          "time": 162.105174,
          "velocity": 0.7874015748031497
        },
        {
          "duration": 0.08771925000002057,
          "durationTicks": 96,
          "midi": 83,
          "name": "B5",
          "ticks": 177600,
          "time": 162.2806125,
          "velocity": 0.7874015748031497
        },
        {
          "duration": 0.08771924999999214,
          "durationTicks": 96,
          "midi": 87,
          "name": "D#6",
          "ticks": 177792,
          "time": 162.456051,
          "velocity": 0.7874015748031497
        },
        {
          "duration": 2.4561390000000074,
          "durationTicks": 2688,
          "midi": 49,
          "name": "C#3",
          "ticks": 184800,
          "time": 168.85955625,
          "velocity": 1.2598425196850394
        },
        {
          "duration": 2.4561390000000074,
          "durationTicks": 2688,
          "midi": 51,
          "name": "D#3",
          "ticks": 187968,
          "time": 171.7542915,
          "velocity": 1.2598425196850394
        },
        {
          "duration": 2.456138999999979,
          "durationTicks": 2688,
          "midi": 28,
          "name": "E1",
          "ticks": 190944,
          "time": 174.47358825,
          "velocity": 0.7874015748031497
        },
        {
          "duration": 2.456138999999979,
          "durationTicks": 2688,
          "midi": 52,
          "name": "E3",
          "ticks": 190944,
          "time": 174.47358825,
          "velocity": 0.7874015748031497
        }
      ],
      "endOfTrackTicks": 193632
    },
    {
      "channel": 9,
      "controlChanges": {},
      "pitchBends": [],
      "instrument": {
        "family": "drums",
        "number": 0,
        "name": "standard kit"
      },
      "name": "909 Drum Kit",
      "notes": [
        {
          "duration": 0.08771924999999925,
          "durationTicks": 96,
          "midi": 0,
          "name": "C-1",
          "ticks": 23232,
          "time": 21.2280585,
          "velocity": 0.3937007874015748
        },
        {
          "duration": 0.0877192500000028,
          "durationTicks": 96,
          "midi": 0,
          "name": "C-1",
          "ticks": 23424,
          "time": 21.403496999999998,
          "velocity": 0.3937007874015748
        },
        {
          "duration": 0.08771924999999925,
          "durationTicks": 96,
          "midi": 0,
          "name": "C-1",
          "ticks": 23616,
          "time": 21.5789355,
          "velocity": 0.3937007874015748
        },
        {
          "duration": 0.0877192500000028,
          "durationTicks": 96,
          "midi": 0,
          "name": "C-1",
          "ticks": 23808,
          "time": 21.754374,
          "velocity": 0.3937007874015748
        },
        {
          "duration": 0.08771924999999925,
          "durationTicks": 96,
          "midi": 0,
          "name": "C-1",
          "ticks": 24000,
          "time": 21.9298125,
          "velocity": 0.3937007874015748
        },
        {
          "duration": 0.08771924999999925,
          "durationTicks": 96,
          "midi": 0,
          "name": "C-1",
          "ticks": 24192,
          "time": 22.105251,
          "velocity": 0.3937007874015748
        },
        {
          "duration": 0.08771924999999925,
          "durationTicks": 96,
          "midi": 0,
          "name": "C-1",
          "ticks": 24384,
          "time": 22.2806895,
          "velocity": 0.3937007874015748
        },
        {
          "duration": 0.08771924999999925,
          "durationTicks": 96,
          "midi": 0,
          "name": "C-1",
          "ticks": 24576,
          "time": 22.456128,
          "velocity": 0.3937007874015748
        },
        {
          "duration": 0.08771924999999214,
          "durationTicks": 96,
          "midi": 0,
          "name": "C-1",
          "ticks": 146208,
          "time": 133.59641775,
          "velocity": 0.3937007874015748
        },
        {
          "duration": 0.08771924999999214,
          "durationTicks": 96,
          "midi": 0,
          "name": "C-1",
          "ticks": 146304,
          "time": 133.684137,
          "velocity": 0.3937007874015748
        },
        {
          "duration": 0.08771925000002057,
          "durationTicks": 96,
          "midi": 0,
          "name": "C-1",
          "ticks": 146400,
          "time": 133.77185624999998,
          "velocity": 0.3937007874015748
        },
        {
          "duration": 0.08771924999999214,
          "durationTicks": 96,
          "midi": 0,
          "name": "C-1",
          "ticks": 146496,
          "time": 133.8595755,
          "velocity": 0.3937007874015748
        },
        {
          "duration": 0.08771924999999214,
          "durationTicks": 96,
          "midi": 0,
          "name": "C-1",
          "ticks": 146592,
          "time": 133.94729475,
          "velocity": 0.3937007874015748
        },
        {
          "duration": 0.08771925000002057,
          "durationTicks": 96,
          "midi": 0,
          "name": "C-1",
          "ticks": 146688,
          "time": 134.035014,
          "velocity": 0.3937007874015748
        },
        {
          "duration": 0.08771924999999214,
          "durationTicks": 96,
          "midi": 0,
          "name": "C-1",
          "ticks": 146784,
          "time": 134.12273325,
          "velocity": 0.3937007874015748
        },
        {
          "duration": 0.08771924999999214,
          "durationTicks": 96,
          "midi": 0,
          "name": "C-1",
          "ticks": 146880,
          "time": 134.2104525,
          "velocity": 0.3937007874015748
        },
        {
          "duration": 0.08771924999999214,
          "durationTicks": 96,
          "midi": 0,
          "name": "C-1",
          "ticks": 146976,
          "time": 134.29817175,
          "velocity": 0.3937007874015748
        },
        {
          "duration": 0.08771925000002057,
          "durationTicks": 96,
          "midi": 0,
          "name": "C-1",
          "ticks": 147072,
          "time": 134.385891,
          "velocity": 0.3937007874015748
        },
        {
          "duration": 0.08771924999999214,
          "durationTicks": 96,
          "midi": 0,
          "name": "C-1",
          "ticks": 147168,
          "time": 134.47361025,
          "velocity": 0.3937007874015748
        },
        {
          "duration": 0.08771924999999214,
          "durationTicks": 96,
          "midi": 0,
          "name": "C-1",
          "ticks": 147264,
          "time": 134.5613295,
          "velocity": 0.3937007874015748
        },
        {
          "duration": 0.08771924999999214,
          "durationTicks": 96,
          "midi": 0,
          "name": "C-1",
          "ticks": 147360,
          "time": 134.64904875,
          "velocity": 0.3937007874015748
        },
        {
          "duration": 0.08771925000002057,
          "durationTicks": 96,
          "midi": 0,
          "name": "C-1",
          "ticks": 147456,
          "time": 134.73676799999998,
          "velocity": 0.3937007874015748
        },
        {
          "duration": 0.08771924999999214,
          "durationTicks": 96,
          "midi": 0,
          "name": "C-1",
          "ticks": 147552,
          "time": 134.82448725,
          "velocity": 0.3937007874015748
        },
        {
          "duration": 0.08771924999999214,
          "durationTicks": 96,
          "midi": 0,
          "name": "C-1",
          "ticks": 147648,
          "time": 134.9122065,
          "velocity": 0.3937007874015748
        },
        {
          "duration": 0.08771924999999214,
          "durationTicks": 96,
          "midi": 0,
          "name": "C-1",
          "ticks": 158784,
          "time": 145.0876395,
          "velocity": 0.3937007874015748
        },
        {
          "duration": 0.08771925000002057,
          "durationTicks": 96,
          "midi": 0,
          "name": "C-1",
          "ticks": 158880,
          "time": 145.17535875,
          "velocity": 0.3937007874015748
        },
        {
          "duration": 0.08771924999999214,
          "durationTicks": 96,
          "midi": 0,
          "name": "C-1",
          "ticks": 158976,
          "time": 145.263078,
          "velocity": 0.3937007874015748
        },
        {
          "duration": 0.08771924999999214,
          "durationTicks": 96,
          "midi": 0,
          "name": "C-1",
          "ticks": 159072,
          "time": 145.35079725,
          "velocity": 0.3937007874015748
        },
        {
          "duration": 0.08771924999999214,
          "durationTicks": 96,
          "midi": 0,
          "name": "C-1",
          "ticks": 159168,
          "time": 145.4385165,
          "velocity": 0.3937007874015748
        },
        {
          "duration": 0.08771925000002057,
          "durationTicks": 96,
          "midi": 0,
          "name": "C-1",
          "ticks": 159264,
          "time": 145.52623574999998,
          "velocity": 0.3937007874015748
        },
        {
          "duration": 0.08771924999999214,
          "durationTicks": 96,
          "midi": 0,
          "name": "C-1",
          "ticks": 159360,
          "time": 145.613955,
          "velocity": 0.3937007874015748
        },
        {
          "duration": 0.08771924999999214,
          "durationTicks": 96,
          "midi": 0,
          "name": "C-1",
          "ticks": 159456,
          "time": 145.70167425,
          "velocity": 0.3937007874015748
        },
        {
          "duration": 0.08771925000002057,
          "durationTicks": 96,
          "midi": 0,
          "name": "C-1",
          "ticks": 159552,
          "time": 145.7893935,
          "velocity": 0.3937007874015748
        },
        {
          "duration": 0.08771924999999214,
          "durationTicks": 96,
          "midi": 0,
          "name": "C-1",
          "ticks": 159648,
          "time": 145.87711275,
          "velocity": 0.3937007874015748
        },
        {
          "duration": 0.08771924999999214,
          "durationTicks": 96,
          "midi": 0,
          "name": "C-1",
          "ticks": 159744,
          "time": 145.964832,
          "velocity": 0.3937007874015748
        },
        {
          "duration": 0.08771924999999214,
          "durationTicks": 96,
          "midi": 0,
          "name": "C-1",
          "ticks": 159840,
          "time": 146.05255125,
          "velocity": 0.3937007874015748
        },
        {
          "duration": 0.08771925000002057,
          "durationTicks": 96,
          "midi": 0,
          "name": "C-1",
          "ticks": 159936,
          "time": 146.14027049999999,
          "velocity": 0.3937007874015748
        }
      ],
      "endOfTrackTicks": 160032
    },
    {
      "channel": 14,
      "controlChanges": {},
      "pitchBends": [],
      "instrument": {
        "family": "piano",
        "number": 0,
        "name": "acoustic grand piano"
      },
      "name": "Electric Piano",
      "notes": [
        {
          "duration": 0.08771924999999214,
          "durationTicks": 96,
          "midi": 70,
          "name": "A#4",
          "ticks": 98592,
          "time": 90.08766975,
          "velocity": 0.5275590551181102
        },
        {
          "duration": 0.08771924999999214,
          "durationTicks": 96,
          "midi": 70,
          "name": "A#4",
          "ticks": 98976,
          "time": 90.43854675,
          "velocity": 0.5275590551181102
        },
        {
          "duration": 0.08771925000000635,
          "durationTicks": 96,
          "midi": 72,
          "name": "C5",
          "ticks": 99168,
          "time": 90.61398525,
          "velocity": 0.5275590551181102
        },
        {
          "duration": 0.08771925000000635,
          "durationTicks": 96,
          "midi": 74,
          "name": "D5",
          "ticks": 99360,
          "time": 90.78942375,
          "velocity": 0.5275590551181102
        },
        {
          "duration": 0.08771925000000635,
          "durationTicks": 96,
          "midi": 70,
          "name": "A#4",
          "ticks": 99744,
          "time": 91.14030075,
          "velocity": 0.5275590551181102
        },
        {
          "duration": 0.08771924999999214,
          "durationTicks": 96,
          "midi": 72,
          "name": "C5",
          "ticks": 100128,
          "time": 91.49117775,
          "velocity": 0.5275590551181102
        },
        {
          "duration": 0.08771924999999214,
          "durationTicks": 96,
          "midi": 72,
          "name": "C5",
          "ticks": 100512,
          "time": 91.84205475,
          "velocity": 0.5275590551181102
        },
        {
          "duration": 0.08771924999999214,
          "durationTicks": 96,
          "midi": 74,
          "name": "D5",
          "ticks": 100704,
          "time": 92.01749325,
          "velocity": 0.5275590551181102
        },
        {
          "duration": 0.08771924999999214,
          "durationTicks": 96,
          "midi": 72,
          "name": "C5",
          "ticks": 100896,
          "time": 92.19293175,
          "velocity": 0.5275590551181102
        },
        {
          "duration": 0.08771925000000635,
          "durationTicks": 96,
          "midi": 70,
          "name": "A#4",
          "ticks": 101280,
          "time": 92.54380875,
          "velocity": 0.5275590551181102
        },
        {
          "duration": 0.08771925000000635,
          "durationTicks": 96,
          "midi": 74,
          "name": "D5",
          "ticks": 101664,
          "time": 92.89468575,
          "velocity": 0.5275590551181102
        },
        {
          "duration": 0.08771924999999214,
          "durationTicks": 96,
          "midi": 74,
          "name": "D5",
          "ticks": 102048,
          "time": 93.24556275,
          "velocity": 0.5275590551181102
        },
        {
          "duration": 0.08771924999999214,
          "durationTicks": 96,
          "midi": 75,
          "name": "D#5",
          "ticks": 102240,
          "time": 93.42100125,
          "velocity": 0.5275590551181102
        },
        {
          "duration": 0.08771924999999214,
          "durationTicks": 96,
          "midi": 77,
          "name": "F5",
          "ticks": 102432,
          "time": 93.59643975,
          "velocity": 0.5275590551181102
        },
        {
          "duration": 0.08771925000000635,
          "durationTicks": 96,
          "midi": 82,
          "name": "A#5",
          "ticks": 102816,
          "time": 93.94731675,
          "velocity": 0.5275590551181102
        },
        {
          "duration": 0.5263155000000097,
          "durationTicks": 576,
          "midi": 79,
          "name": "G5",
          "ticks": 103200,
          "time": 94.29819375,
          "velocity": 0.5275590551181102
        },
        {
          "duration": 0.5263154999999955,
          "durationTicks": 576,
          "midi": 77,
          "name": "F5",
          "ticks": 103968,
          "time": 94.99994775,
          "velocity": 0.5275590551181102
        },
        {
          "duration": 0.08771925000000635,
          "durationTicks": 96,
          "midi": 70,
          "name": "A#4",
          "ticks": 104736,
          "time": 95.70170175,
          "velocity": 0.5275590551181102
        },
        {
          "duration": 0.08771925000000635,
          "durationTicks": 96,
          "midi": 70,
          "name": "A#4",
          "ticks": 104928,
          "time": 95.87714025,
          "velocity": 0.5275590551181102
        },
        {
          "duration": 0.08771925000000635,
          "durationTicks": 96,
          "midi": 70,
          "name": "A#4",
          "ticks": 105120,
          "time": 96.05257875,
          "velocity": 0.5275590551181102
        },
        {
          "duration": 0.08771925000000635,
          "durationTicks": 96,
          "midi": 72,
          "name": "C5",
          "ticks": 105312,
          "time": 96.22801725,
          "velocity": 0.5275590551181102
        },
        {
          "duration": 0.08771925000000635,
          "durationTicks": 96,
          "midi": 74,
          "name": "D5",
          "ticks": 105504,
          "time": 96.40345574999999,
          "velocity": 0.5275590551181102
        },
        {
          "duration": 0.08771924999999214,
          "durationTicks": 96,
          "midi": 70,
          "name": "A#4",
          "ticks": 105888,
          "time": 96.75433275,
          "velocity": 0.5275590551181102
        },
        {
          "duration": 0.08771924999999214,
          "durationTicks": 96,
          "midi": 72,
          "name": "C5",
          "ticks": 106272,
          "time": 97.10520975,
          "velocity": 0.5275590551181102
        },
        {
          "duration": 0.08771925000000635,
          "durationTicks": 96,
          "midi": 72,
          "name": "C5",
          "ticks": 106464,
          "time": 97.28064825,
          "velocity": 0.5275590551181102
        },
        {
          "duration": 0.08771925000000635,
          "durationTicks": 96,
          "midi": 72,
          "name": "C5",
          "ticks": 106656,
          "time": 97.45608675,
          "velocity": 0.5275590551181102
        },
        {
          "duration": 0.08771925000000635,
          "durationTicks": 96,
          "midi": 74,
          "name": "D5",
          "ticks": 106848,
          "time": 97.63152525,
          "velocity": 0.5275590551181102
        },
        {
          "duration": 0.08771925000000635,
          "durationTicks": 96,
          "midi": 72,
          "name": "C5",
          "ticks": 107040,
          "time": 97.80696375,
          "velocity": 0.5275590551181102
        },
        {
          "duration": 0.08771924999999214,
          "durationTicks": 96,
          "midi": 70,
          "name": "A#4",
          "ticks": 107424,
          "time": 98.15784075,
          "velocity": 0.5275590551181102
        },
        {
          "duration": 0.08771924999999214,
          "durationTicks": 96,
          "midi": 74,
          "name": "D5",
          "ticks": 107808,
          "time": 98.50871775,
          "velocity": 0.5275590551181102
        },
        {
          "duration": 0.08771924999999214,
          "durationTicks": 96,
          "midi": 74,
          "name": "D5",
          "ticks": 108192,
          "time": 98.85959475,
          "velocity": 0.5275590551181102
        },
        {
          "duration": 0.08771925000000635,
          "durationTicks": 96,
          "midi": 75,
          "name": "D#5",
          "ticks": 108384,
          "time": 99.03503325,
          "velocity": 0.5275590551181102
        },
        {
          "duration": 0.08771925000000635,
          "durationTicks": 96,
          "midi": 77,
          "name": "F5",
          "ticks": 108576,
          "time": 99.21047175,
          "velocity": 0.5275590551181102
        },
        {
          "duration": 0.08771925000000635,
          "durationTicks": 96,
          "midi": 82,
          "name": "A#5",
          "ticks": 108960,
          "time": 99.56134875,
          "velocity": 0.5275590551181102
        },
        {
          "duration": 0.5263154999999955,
          "durationTicks": 576,
          "midi": 79,
          "name": "G5",
          "ticks": 109344,
          "time": 99.91222575,
          "velocity": 0.5275590551181102
        },
        {
          "duration": 0.5263154999999955,
          "durationTicks": 576,
          "midi": 77,
          "name": "F5",
          "ticks": 110112,
          "time": 100.61397975,
          "velocity": 0.5275590551181102
        },
        {
          "duration": 0.08771925000000635,
          "durationTicks": 96,
          "midi": 70,
          "name": "A#4",
          "ticks": 110880,
          "time": 101.31573374999999,
          "velocity": 0.5275590551181102
        },
        {
          "duration": 0.08771924999999214,
          "durationTicks": 96,
          "midi": 70,
          "name": "A#4",
          "ticks": 111264,
          "time": 101.66661075,
          "velocity": 0.5275590551181102
        },
        {
          "duration": 0.08771924999999214,
          "durationTicks": 96,
          "midi": 72,
          "name": "C5",
          "ticks": 111456,
          "time": 101.84204925,
          "velocity": 0.5275590551181102
        },
        {
          "duration": 0.08771924999999214,
          "durationTicks": 96,
          "midi": 74,
          "name": "D5",
          "ticks": 111648,
          "time": 102.01748775,
          "velocity": 0.5275590551181102
        },
        {
          "duration": 0.08771925000000635,
          "durationTicks": 96,
          "midi": 70,
          "name": "A#4",
          "ticks": 112032,
          "time": 102.36836475,
          "velocity": 0.5275590551181102
        },
        {
          "duration": 0.08771925000000635,
          "durationTicks": 96,
          "midi": 72,
          "name": "C5",
          "ticks": 112416,
          "time": 102.71924175,
          "velocity": 0.5275590551181102
        },
        {
          "duration": 0.08771925000000635,
          "durationTicks": 96,
          "midi": 72,
          "name": "C5",
          "ticks": 112800,
          "time": 103.07011874999999,
          "velocity": 0.5275590551181102
        },
        {
          "duration": 0.08771924999999214,
          "durationTicks": 96,
          "midi": 74,
          "name": "D5",
          "ticks": 112992,
          "time": 103.24555725,
          "velocity": 0.5275590551181102
        },
        {
          "duration": 0.08771924999999214,
          "durationTicks": 96,
          "midi": 72,
          "name": "C5",
          "ticks": 113184,
          "time": 103.42099575,
          "velocity": 0.5275590551181102
        },
        {
          "duration": 0.08771924999999214,
          "durationTicks": 96,
          "midi": 70,
          "name": "A#4",
          "ticks": 113568,
          "time": 103.77187275,
          "velocity": 0.5275590551181102
        },
        {
          "duration": 0.08771925000000635,
          "durationTicks": 96,
          "midi": 74,
          "name": "D5",
          "ticks": 113952,
          "time": 104.12274975,
          "velocity": 0.5275590551181102
        },
        {
          "duration": 0.08771925000000635,
          "durationTicks": 96,
          "midi": 74,
          "name": "D5",
          "ticks": 114336,
          "time": 104.47362675,
          "velocity": 0.5275590551181102
        },
        {
          "duration": 0.08771925000000635,
          "durationTicks": 96,
          "midi": 75,
          "name": "D#5",
          "ticks": 114528,
          "time": 104.64906524999999,
          "velocity": 0.5275590551181102
        },
        {
          "duration": 0.08771924999999214,
          "durationTicks": 96,
          "midi": 77,
          "name": "F5",
          "ticks": 114720,
          "time": 104.82450375,
          "velocity": 0.5275590551181102
        },
        {
          "duration": 0.08771924999999214,
          "durationTicks": 96,
          "midi": 82,
          "name": "A#5",
          "ticks": 115104,
          "time": 105.17538075,
          "velocity": 0.5275590551181102
        },
        {
          "duration": 0.5263154999999955,
          "durationTicks": 576,
          "midi": 79,
          "name": "G5",
          "ticks": 115488,
          "time": 105.52625775,
          "velocity": 0.5275590551181102
        },
        {
          "duration": 0.5263155000000097,
          "durationTicks": 576,
          "midi": 77,
          "name": "F5",
          "ticks": 116256,
          "time": 106.22801175,
          "velocity": 0.5275590551181102
        },
        {
          "duration": 0.08771924999999214,
          "durationTicks": 96,
          "midi": 70,
          "name": "A#4",
          "ticks": 117024,
          "time": 106.92976575,
          "velocity": 0.5275590551181102
        },
        {
          "duration": 0.08771924999999214,
          "durationTicks": 96,
          "midi": 70,
          "name": "A#4",
          "ticks": 117216,
          "time": 107.10520425,
          "velocity": 0.5275590551181102
        },
        {
          "duration": 0.08771925000000635,
          "durationTicks": 96,
          "midi": 70,
          "name": "A#4",
          "ticks": 117408,
          "time": 107.28064275,
          "velocity": 0.5275590551181102
        },
        {
          "duration": 0.08771925000000635,
          "durationTicks": 96,
          "midi": 72,
          "name": "C5",
          "ticks": 117600,
          "time": 107.45608125,
          "velocity": 0.5275590551181102
        },
        {
          "duration": 0.08771925000000635,
          "durationTicks": 96,
          "midi": 74,
          "name": "D5",
          "ticks": 117792,
          "time": 107.63151975,
          "velocity": 0.5275590551181102
        },
        {
          "duration": 0.08771925000000635,
          "durationTicks": 96,
          "midi": 70,
          "name": "A#4",
          "ticks": 118176,
          "time": 107.98239674999999,
          "velocity": 0.5275590551181102
        },
        {
          "duration": 0.08771924999999214,
          "durationTicks": 96,
          "midi": 72,
          "name": "C5",
          "ticks": 118560,
          "time": 108.33327375,
          "velocity": 0.5275590551181102
        },
        {
          "duration": 0.08771924999999214,
          "durationTicks": 96,
          "midi": 72,
          "name": "C5",
          "ticks": 118752,
          "time": 108.50871225,
          "velocity": 0.5275590551181102
        },
        {
          "duration": 0.08771924999999214,
          "durationTicks": 96,
          "midi": 72,
          "name": "C5",
          "ticks": 118944,
          "time": 108.68415075,
          "velocity": 0.5275590551181102
        },
        {
          "duration": 0.08771924999999214,
          "durationTicks": 96,
          "midi": 74,
          "name": "D5",
          "ticks": 119136,
          "time": 108.85958925,
          "velocity": 0.5275590551181102
        },
        {
          "duration": 0.08771925000000635,
          "durationTicks": 96,
          "midi": 72,
          "name": "C5",
          "ticks": 119328,
          "time": 109.03502775,
          "velocity": 0.5275590551181102
        },
        {
          "duration": 0.08771925000000635,
          "durationTicks": 96,
          "midi": 70,
          "name": "A#4",
          "ticks": 119712,
          "time": 109.38590475,
          "velocity": 0.5275590551181102
        },
        {
          "duration": 0.08771925000000635,
          "durationTicks": 96,
          "midi": 74,
          "name": "D5",
          "ticks": 120096,
          "time": 109.73678174999999,
          "velocity": 0.5275590551181102
        },
        {
          "duration": 0.08771924999999214,
          "durationTicks": 96,
          "midi": 74,
          "name": "D5",
          "ticks": 120480,
          "time": 110.08765875,
          "velocity": 0.5275590551181102
        },
        {
          "duration": 0.08771924999999214,
          "durationTicks": 96,
          "midi": 75,
          "name": "D#5",
          "ticks": 120672,
          "time": 110.26309725,
          "velocity": 0.5275590551181102
        },
        {
          "duration": 0.08771924999999214,
          "durationTicks": 96,
          "midi": 77,
          "name": "F5",
          "ticks": 120864,
          "time": 110.43853575,
          "velocity": 0.5275590551181102
        },
        {
          "duration": 0.08771925000000635,
          "durationTicks": 96,
          "midi": 82,
          "name": "A#5",
          "ticks": 121248,
          "time": 110.78941275,
          "velocity": 0.5275590551181102
        },
        {
          "duration": 0.5263155000000097,
          "durationTicks": 576,
          "midi": 79,
          "name": "G5",
          "ticks": 121632,
          "time": 111.14028975,
          "velocity": 0.5275590551181102
        },
        {
          "duration": 0.6140347500000018,
          "durationTicks": 672,
          "midi": 70,
          "name": "A#4",
          "ticks": 122400,
          "time": 111.84204375,
          "velocity": 0.5275590551181102
        },
        {
          "duration": 2.1929812500000025,
          "durationTicks": 2400,
          "midi": 63,
          "name": "D#4",
          "ticks": 148128,
          "time": 135.35080274999999,
          "velocity": 0.5275590551181102
        },
        {
          "duration": 2.1929812500000025,
          "durationTicks": 2400,
          "midi": 64,
          "name": "E4",
          "ticks": 150816,
          "time": 137.80694175,
          "velocity": 0.5275590551181102
        },
        {
          "duration": 2.1929812500000025,
          "durationTicks": 2400,
          "midi": 63,
          "name": "D#4",
          "ticks": 153984,
          "time": 140.701677,
          "velocity": 0.5275590551181102
        },
        {
          "duration": 1.4035080000000164,
          "durationTicks": 1536,
          "midi": 54,
          "name": "F#3",
          "ticks": 157056,
          "time": 143.508693,
          "velocity": 0.5275590551181102
        },
        {
          "duration": 1.4035080000000164,
          "durationTicks": 1536,
          "midi": 56,
          "name": "G#3",
          "ticks": 158208,
          "time": 144.56132399999998,
          "velocity": 0.5275590551181102
        }
      ],
      "endOfTrackTicks": 159744
    },
    {
      "channel": 15,
      "controlChanges": {},
      "pitchBends": [],
      "instrument": {
        "family": "strings",
        "number": 42,
        "name": "cello"
      },
      "name": "Cello (Sustain)",
      "notes": [
        {
          "duration": 0.08771925,
          "durationTicks": 96,
          "midi": 58,
          "name": "A#3",
          "ticks": 96,
          "time": 0.08771925,
          "velocity": 0.2755905511811024
        },
        {
          "duration": 0.08771925,
          "durationTicks": 96,
          "midi": 51,
          "name": "D#3",
          "ticks": 96,
          "time": 0.08771925,
          "velocity": 0.2755905511811024
        },
        {
          "duration": 0.08771925,
          "durationTicks": 96,
          "midi": 39,
          "name": "D#2",
          "ticks": 96,
          "time": 0.08771925,
          "velocity": 0.2755905511811024
        },
        {
          "duration": 0.08771925,
          "durationTicks": 96,
          "midi": 46,
          "name": "A#2",
          "ticks": 96,
          "time": 0.08771925,
          "velocity": 0.2755905511811024
        },
        {
          "duration": 0.08771925000000003,
          "durationTicks": 96,
          "midi": 39,
          "name": "D#2",
          "ticks": 288,
          "time": 0.26315774999999997,
          "velocity": 0.2755905511811024
        },
        {
          "duration": 0.08771925000000003,
          "durationTicks": 96,
          "midi": 51,
          "name": "D#3",
          "ticks": 288,
          "time": 0.26315774999999997,
          "velocity": 0.2755905511811024
        },
        {
          "duration": 0.08771925000000003,
          "durationTicks": 96,
          "midi": 46,
          "name": "A#2",
          "ticks": 288,
          "time": 0.26315774999999997,
          "velocity": 0.2755905511811024
        },
        {
          "duration": 0.08771925000000003,
          "durationTicks": 96,
          "midi": 58,
          "name": "A#3",
          "ticks": 288,
          "time": 0.26315774999999997,
          "velocity": 0.2755905511811024
        },
        {
          "duration": 0.08771925000000003,
          "durationTicks": 96,
          "midi": 51,
          "name": "D#3",
          "ticks": 672,
          "time": 0.61403475,
          "velocity": 0.2755905511811024
        },
        {
          "duration": 0.08771925000000003,
          "durationTicks": 96,
          "midi": 46,
          "name": "A#2",
          "ticks": 672,
          "time": 0.61403475,
          "velocity": 0.2755905511811024
        },
        {
          "duration": 0.08771925000000003,
          "durationTicks": 96,
          "midi": 39,
          "name": "D#2",
          "ticks": 672,
          "time": 0.61403475,
          "velocity": 0.2755905511811024
        },
        {
          "duration": 0.08771925000000003,
          "durationTicks": 96,
          "midi": 58,
          "name": "A#3",
          "ticks": 672,
          "time": 0.61403475,
          "velocity": 0.2755905511811024
        },
        {
          "duration": 0.08771925000000003,
          "durationTicks": 96,
          "midi": 58,
          "name": "A#3",
          "ticks": 864,
          "time": 0.78947325,
          "velocity": 0.2755905511811024
        },
        {
          "duration": 0.08771925000000003,
          "durationTicks": 96,
          "midi": 51,
          "name": "D#3",
          "ticks": 864,
          "time": 0.78947325,
          "velocity": 0.2755905511811024
        },
        {
          "duration": 0.08771925000000003,
          "durationTicks": 96,
          "midi": 39,
          "name": "D#2",
          "ticks": 864,
          "time": 0.78947325,
          "velocity": 0.2755905511811024
        },
        {
          "duration": 0.08771925000000003,
          "durationTicks": 96,
          "midi": 46,
          "name": "A#2",
          "ticks": 864,
          "time": 0.78947325,
          "velocity": 0.2755905511811024
        },
        {
          "duration": 0.08771924999999992,
          "durationTicks": 96,
          "midi": 46,
          "name": "A#2",
          "ticks": 1056,
          "time": 0.96491175,
          "velocity": 0.2755905511811024
        },
        {
          "duration": 0.08771924999999992,
          "durationTicks": 96,
          "midi": 39,
          "name": "D#2",
          "ticks": 1056,
          "time": 0.96491175,
          "velocity": 0.2755905511811024
        },
        {
          "duration": 0.08771924999999992,
          "durationTicks": 96,
          "midi": 58,
          "name": "A#3",
          "ticks": 1056,
          "time": 0.96491175,
          "velocity": 0.2755905511811024
        },
        {
          "duration": 0.08771924999999992,
          "durationTicks": 96,
          "midi": 51,
          "name": "D#3",
          "ticks": 1056,
          "time": 0.96491175,
          "velocity": 0.2755905511811024
        },
        {
          "duration": 0.08771924999999992,
          "durationTicks": 96,
          "midi": 46,
          "name": "A#2",
          "ticks": 1440,
          "time": 1.31578875,
          "velocity": 0.2755905511811024
        },
        {
          "duration": 0.08771924999999992,
          "durationTicks": 96,
          "midi": 51,
          "name": "D#3",
          "ticks": 1440,
          "time": 1.31578875,
          "velocity": 0.2755905511811024
        },
        {
          "duration": 0.08771924999999992,
          "durationTicks": 96,
          "midi": 58,
          "name": "A#3",
          "ticks": 1440,
          "time": 1.31578875,
          "velocity": 0.2755905511811024
        },
        {
          "duration": 0.08771924999999992,
          "durationTicks": 96,
          "midi": 39,
          "name": "D#2",
          "ticks": 1440,
          "time": 1.31578875,
          "velocity": 0.2755905511811024
        },
        {
          "duration": 0.08771925000000014,
          "durationTicks": 96,
          "midi": 39,
          "name": "D#2",
          "ticks": 1632,
          "time": 1.49122725,
          "velocity": 0.2755905511811024
        },
        {
          "duration": 0.08771925000000014,
          "durationTicks": 96,
          "midi": 51,
          "name": "D#3",
          "ticks": 1632,
          "time": 1.49122725,
          "velocity": 0.2755905511811024
        },
        {
          "duration": 0.08771925000000014,
          "durationTicks": 96,
          "midi": 58,
          "name": "A#3",
          "ticks": 1632,
          "time": 1.49122725,
          "velocity": 0.2755905511811024
        },
        {
          "duration": 0.08771925000000014,
          "durationTicks": 96,
          "midi": 46,
          "name": "A#2",
          "ticks": 1632,
          "time": 1.49122725,
          "velocity": 0.2755905511811024
        },
        {
          "duration": 0.08771925000000014,
          "durationTicks": 96,
          "midi": 46,
          "name": "A#2",
          "ticks": 1824,
          "time": 1.66666575,
          "velocity": 0.2755905511811024
        },
        {
          "duration": 0.08771925000000014,
          "durationTicks": 96,
          "midi": 39,
          "name": "D#2",
          "ticks": 1824,
          "time": 1.66666575,
          "velocity": 0.2755905511811024
        },
        {
          "duration": 0.08771925000000014,
          "durationTicks": 96,
          "midi": 51,
          "name": "D#3",
          "ticks": 1824,
          "time": 1.66666575,
          "velocity": 0.2755905511811024
        },
        {
          "duration": 0.08771925000000014,
          "durationTicks": 96,
          "midi": 58,
          "name": "A#3",
          "ticks": 1824,
          "time": 1.66666575,
          "velocity": 0.2755905511811024
        },
        {
          "duration": 0.0877192499999997,
          "durationTicks": 96,
          "midi": 58,
          "name": "A#3",
          "ticks": 2208,
          "time": 2.01754275,
          "velocity": 0.2755905511811024
        },
        {
          "duration": 0.0877192499999997,
          "durationTicks": 96,
          "midi": 51,
          "name": "D#3",
          "ticks": 2208,
          "time": 2.01754275,
          "velocity": 0.2755905511811024
        },
        {
          "duration": 0.0877192499999997,
          "durationTicks": 96,
          "midi": 46,
          "name": "A#2",
          "ticks": 2208,
          "time": 2.01754275,
          "velocity": 0.2755905511811024
        },
        {
          "duration": 0.0877192499999997,
          "durationTicks": 96,
          "midi": 39,
          "name": "D#2",
          "ticks": 2208,
          "time": 2.01754275,
          "velocity": 0.2755905511811024
        },
        {
          "duration": 0.08771925000000014,
          "durationTicks": 96,
          "midi": 46,
          "name": "A#2",
          "ticks": 2400,
          "time": 2.19298125,
          "velocity": 0.2755905511811024
        },
        {
          "duration": 0.08771925000000014,
          "durationTicks": 96,
          "midi": 51,
          "name": "D#3",
          "ticks": 2400,
          "time": 2.19298125,
          "velocity": 0.2755905511811024
        },
        {
          "duration": 0.08771925000000014,
          "durationTicks": 96,
          "midi": 58,
          "name": "A#3",
          "ticks": 2400,
          "time": 2.19298125,
          "velocity": 0.2755905511811024
        },
        {
          "duration": 0.08771925000000014,
          "durationTicks": 96,
          "midi": 39,
          "name": "D#2",
          "ticks": 2400,
          "time": 2.19298125,
          "velocity": 0.2755905511811024
        },
        {
          "duration": 0.0877192499999997,
          "durationTicks": 96,
          "midi": 51,
          "name": "D#3",
          "ticks": 2592,
          "time": 2.36841975,
          "velocity": 0.2755905511811024
        },
        {
          "duration": 0.0877192499999997,
          "durationTicks": 96,
          "midi": 46,
          "name": "A#2",
          "ticks": 2592,
          "time": 2.36841975,
          "velocity": 0.2755905511811024
        },
        {
          "duration": 0.0877192499999997,
          "durationTicks": 96,
          "midi": 58,
          "name": "A#3",
          "ticks": 2592,
          "time": 2.36841975,
          "velocity": 0.2755905511811024
        },
        {
          "duration": 0.0877192499999997,
          "durationTicks": 96,
          "midi": 39,
          "name": "D#2",
          "ticks": 2592,
          "time": 2.36841975,
          "velocity": 0.2755905511811024
        },
        {
          "duration": 0.08771925000000014,
          "durationTicks": 96,
          "midi": 46,
          "name": "A#2",
          "ticks": 2784,
          "time": 2.54385825,
          "velocity": 0.2755905511811024
        },
        {
          "duration": 0.08771925000000014,
          "durationTicks": 96,
          "midi": 39,
          "name": "D#2",
          "ticks": 2784,
          "time": 2.54385825,
          "velocity": 0.2755905511811024
        },
        {
          "duration": 0.08771925000000014,
          "durationTicks": 96,
          "midi": 58,
          "name": "A#3",
          "ticks": 2784,
          "time": 2.54385825,
          "velocity": 0.2755905511811024
        },
        {
          "duration": 0.08771925000000014,
          "durationTicks": 96,
          "midi": 51,
          "name": "D#3",
          "ticks": 2784,
          "time": 2.54385825,
          "velocity": 0.2755905511811024
        },
        {
          "duration": 0.08771925000000014,
          "durationTicks": 96,
          "midi": 60,
          "name": "C4",
          "ticks": 2976,
          "time": 2.71929675,
          "velocity": 0.2755905511811024
        },
        {
          "duration": 0.08771925000000014,
          "durationTicks": 96,
          "midi": 41,
          "name": "F2",
          "ticks": 2976,
          "time": 2.71929675,
          "velocity": 0.2755905511811024
        },
        {
          "duration": 0.08771925000000014,
          "durationTicks": 96,
          "midi": 48,
          "name": "C3",
          "ticks": 2976,
          "time": 2.71929675,
          "velocity": 0.2755905511811024
        },
        {
          "duration": 0.08771925000000014,
          "durationTicks": 96,
          "midi": 53,
          "name": "F3",
          "ticks": 2976,
          "time": 2.71929675,
          "velocity": 0.2755905511811024
        },
        {
          "duration": 0.0877192499999997,
          "durationTicks": 96,
          "midi": 39,
          "name": "D#2",
          "ticks": 3168,
          "time": 2.89473525,
          "velocity": 0.2755905511811024
        },
        {
          "duration": 0.0877192499999997,
          "durationTicks": 96,
          "midi": 46,
          "name": "A#2",
          "ticks": 3168,
          "time": 2.89473525,
          "velocity": 0.2755905511811024
        },
        {
          "duration": 0.0877192499999997,
          "durationTicks": 96,
          "midi": 51,
          "name": "D#3",
          "ticks": 3168,
          "time": 2.89473525,
          "velocity": 0.2755905511811024
        },
        {
          "duration": 0.0877192499999997,
          "durationTicks": 96,
          "midi": 58,
          "name": "A#3",
          "ticks": 3168,
          "time": 2.89473525,
          "velocity": 0.2755905511811024
        },
        {
          "duration": 0.08771925000000014,
          "durationTicks": 96,
          "midi": 46,
          "name": "A#2",
          "ticks": 3360,
          "time": 3.07017375,
          "velocity": 0.2755905511811024
        },
        {
          "duration": 0.08771925000000014,
          "durationTicks": 96,
          "midi": 58,
          "name": "A#3",
          "ticks": 3360,
          "time": 3.07017375,
          "velocity": 0.2755905511811024
        },
        {
          "duration": 0.08771925000000014,
          "durationTicks": 96,
          "midi": 51,
          "name": "D#3",
          "ticks": 3360,
          "time": 3.07017375,
          "velocity": 0.2755905511811024
        },
        {
          "duration": 0.08771925000000014,
          "durationTicks": 96,
          "midi": 39,
          "name": "D#2",
          "ticks": 3360,
          "time": 3.07017375,
          "velocity": 0.2755905511811024
        },
        {
          "duration": 0.08771925000000014,
          "durationTicks": 96,
          "midi": 51,
          "name": "D#3",
          "ticks": 3744,
          "time": 3.42105075,
          "velocity": 0.2755905511811024
        },
        {
          "duration": 0.08771925000000014,
          "durationTicks": 96,
          "midi": 46,
          "name": "A#2",
          "ticks": 3744,
          "time": 3.42105075,
          "velocity": 0.2755905511811024
        },
        {
          "duration": 0.08771925000000014,
          "durationTicks": 96,
          "midi": 39,
          "name": "D#2",
          "ticks": 3744,
          "time": 3.42105075,
          "velocity": 0.2755905511811024
        },
        {
          "duration": 0.08771925000000014,
          "durationTicks": 96,
          "midi": 58,
          "name": "A#3",
          "ticks": 3744,
          "time": 3.42105075,
          "velocity": 0.2755905511811024
        },
        {
          "duration": 0.08771925000000014,
          "durationTicks": 96,
          "midi": 51,
          "name": "D#3",
          "ticks": 3936,
          "time": 3.59648925,
          "velocity": 0.2755905511811024
        },
        {
          "duration": 0.08771925000000014,
          "durationTicks": 96,
          "midi": 58,
          "name": "A#3",
          "ticks": 3936,
          "time": 3.59648925,
          "velocity": 0.2755905511811024
        },
        {
          "duration": 0.08771925000000014,
          "durationTicks": 96,
          "midi": 46,
          "name": "A#2",
          "ticks": 3936,
          "time": 3.59648925,
          "velocity": 0.2755905511811024
        },
        {
          "duration": 0.08771925000000014,
          "durationTicks": 96,
          "midi": 39,
          "name": "D#2",
          "ticks": 3936,
          "time": 3.59648925,
          "velocity": 0.2755905511811024
        },
        {
          "duration": 0.0877192499999997,
          "durationTicks": 96,
          "midi": 39,
          "name": "D#2",
          "ticks": 4128,
          "time": 3.77192775,
          "velocity": 0.2755905511811024
        },
        {
          "duration": 0.0877192499999997,
          "durationTicks": 96,
          "midi": 46,
          "name": "A#2",
          "ticks": 4128,
          "time": 3.77192775,
          "velocity": 0.2755905511811024
        },
        {
          "duration": 0.0877192499999997,
          "durationTicks": 96,
          "midi": 58,
          "name": "A#3",
          "ticks": 4128,
          "time": 3.77192775,
          "velocity": 0.2755905511811024
        },
        {
          "duration": 0.0877192499999997,
          "durationTicks": 96,
          "midi": 51,
          "name": "D#3",
          "ticks": 4128,
          "time": 3.77192775,
          "velocity": 0.2755905511811024
        },
        {
          "duration": 0.08771924999999925,
          "durationTicks": 96,
          "midi": 51,
          "name": "D#3",
          "ticks": 4512,
          "time": 4.12280475,
          "velocity": 0.2755905511811024
        },
        {
          "duration": 0.08771924999999925,
          "durationTicks": 96,
          "midi": 39,
          "name": "D#2",
          "ticks": 4512,
          "time": 4.12280475,
          "velocity": 0.2755905511811024
        },
        {
          "duration": 0.08771924999999925,
          "durationTicks": 96,
          "midi": 58,
          "name": "A#3",
          "ticks": 4512,
          "time": 4.12280475,
          "velocity": 0.2755905511811024
        },
        {
          "duration": 0.08771924999999925,
          "durationTicks": 96,
          "midi": 46,
          "name": "A#2",
          "ticks": 4512,
          "time": 4.12280475,
          "velocity": 0.2755905511811024
        },
        {
          "duration": 0.08771925000000014,
          "durationTicks": 96,
          "midi": 39,
          "name": "D#2",
          "ticks": 4704,
          "time": 4.29824325,
          "velocity": 0.2755905511811024
        },
        {
          "duration": 0.08771925000000014,
          "durationTicks": 96,
          "midi": 46,
          "name": "A#2",
          "ticks": 4704,
          "time": 4.29824325,
          "velocity": 0.2755905511811024
        },
        {
          "duration": 0.08771925000000014,
          "durationTicks": 96,
          "midi": 51,
          "name": "D#3",
          "ticks": 4704,
          "time": 4.29824325,
          "velocity": 0.2755905511811024
        },
        {
          "duration": 0.08771925000000014,
          "durationTicks": 96,
          "midi": 58,
          "name": "A#3",
          "ticks": 4704,
          "time": 4.29824325,
          "velocity": 0.2755905511811024
        },
        {
          "duration": 0.08771925000000014,
          "durationTicks": 96,
          "midi": 58,
          "name": "A#3",
          "ticks": 4896,
          "time": 4.47368175,
          "velocity": 0.2755905511811024
        },
        {
          "duration": 0.08771925000000014,
          "durationTicks": 96,
          "midi": 51,
          "name": "D#3",
          "ticks": 4896,
          "time": 4.47368175,
          "velocity": 0.2755905511811024
        },
        {
          "duration": 0.08771925000000014,
          "durationTicks": 96,
          "midi": 39,
          "name": "D#2",
          "ticks": 4896,
          "time": 4.47368175,
          "velocity": 0.2755905511811024
        },
        {
          "duration": 0.08771925000000014,
          "durationTicks": 96,
          "midi": 46,
          "name": "A#2",
          "ticks": 4896,
          "time": 4.47368175,
          "velocity": 0.2755905511811024
        },
        {
          "duration": 0.08771925000000014,
          "durationTicks": 96,
          "midi": 46,
          "name": "A#2",
          "ticks": 5280,
          "time": 4.82455875,
          "velocity": 0.2755905511811024
        },
        {
          "duration": 0.08771925000000014,
          "durationTicks": 96,
          "midi": 51,
          "name": "D#3",
          "ticks": 5280,
          "time": 4.82455875,
          "velocity": 0.2755905511811024
        },
        {
          "duration": 0.08771925000000014,
          "durationTicks": 96,
          "midi": 58,
          "name": "A#3",
          "ticks": 5280,
          "time": 4.82455875,
          "velocity": 0.2755905511811024
        },
        {
          "duration": 0.08771925000000014,
          "durationTicks": 96,
          "midi": 39,
          "name": "D#2",
          "ticks": 5280,
          "time": 4.82455875,
          "velocity": 0.2755905511811024
        },
        {
          "duration": 0.08771925000000014,
          "durationTicks": 96,
          "midi": 46,
          "name": "A#2",
          "ticks": 5472,
          "time": 4.99999725,
          "velocity": 0.2755905511811024
        },
        {
          "duration": 0.08771925000000014,
          "durationTicks": 96,
          "midi": 58,
          "name": "A#3",
          "ticks": 5472,
          "time": 4.99999725,
          "velocity": 0.2755905511811024
        },
        {
          "duration": 0.08771925000000014,
          "durationTicks": 96,
          "midi": 51,
          "name": "D#3",
          "ticks": 5472,
          "time": 4.99999725,
          "velocity": 0.2755905511811024
        },
        {
          "duration": 0.08771925000000014,
          "durationTicks": 96,
          "midi": 39,
          "name": "D#2",
          "ticks": 5472,
          "time": 4.99999725,
          "velocity": 0.2755905511811024
        },
        {
          "duration": 0.08771925000000014,
          "durationTicks": 96,
          "midi": 51,
          "name": "D#3",
          "ticks": 5664,
          "time": 5.17543575,
          "velocity": 0.2755905511811024
        },
        {
          "duration": 0.08771925000000014,
          "durationTicks": 96,
          "midi": 46,
          "name": "A#2",
          "ticks": 5664,
          "time": 5.17543575,
          "velocity": 0.2755905511811024
        },
        {
          "duration": 0.08771925000000014,
          "durationTicks": 96,
          "midi": 39,
          "name": "D#2",
          "ticks": 5664,
          "time": 5.17543575,
          "velocity": 0.2755905511811024
        },
        {
          "duration": 0.08771925000000014,
          "durationTicks": 96,
          "midi": 58,
          "name": "A#3",
          "ticks": 5664,
          "time": 5.17543575,
          "velocity": 0.2755905511811024
        },
        {
          "duration": 0.08771925000000014,
          "durationTicks": 96,
          "midi": 51,
          "name": "D#3",
          "ticks": 5856,
          "time": 5.3508742499999995,
          "velocity": 0.2755905511811024
        },
        {
          "duration": 0.08771925000000014,
          "durationTicks": 96,
          "midi": 58,
          "name": "A#3",
          "ticks": 5856,
          "time": 5.3508742499999995,
          "velocity": 0.2755905511811024
        },
        {
          "duration": 0.08771925000000014,
          "durationTicks": 96,
          "midi": 46,
          "name": "A#2",
          "ticks": 5856,
          "time": 5.3508742499999995,
          "velocity": 0.2755905511811024
        },
        {
          "duration": 0.08771925000000014,
          "durationTicks": 96,
          "midi": 39,
          "name": "D#2",
          "ticks": 5856,
          "time": 5.3508742499999995,
          "velocity": 0.2755905511811024
        },
        {
          "duration": 0.08771925000000014,
          "durationTicks": 96,
          "midi": 48,
          "name": "C3",
          "ticks": 6048,
          "time": 5.52631275,
          "velocity": 0.2755905511811024
        },
        {
          "duration": 0.08771925000000014,
          "durationTicks": 96,
          "midi": 41,
          "name": "F2",
          "ticks": 6048,
          "time": 5.52631275,
          "velocity": 0.2755905511811024
        },
        {
          "duration": 0.08771925000000014,
          "durationTicks": 96,
          "midi": 53,
          "name": "F3",
          "ticks": 6048,
          "time": 5.52631275,
          "velocity": 0.2755905511811024
        },
        {
          "duration": 0.08771925000000014,
          "durationTicks": 96,
          "midi": 60,
          "name": "C4",
          "ticks": 6048,
          "time": 5.52631275,
          "velocity": 0.2755905511811024
        },
        {
          "duration": 0.08771925000000014,
          "durationTicks": 96,
          "midi": 45,
          "name": "A2",
          "ticks": 6240,
          "time": 5.70175125,
          "velocity": 0.2755905511811024
        },
        {
          "duration": 0.08771925000000014,
          "durationTicks": 96,
          "midi": 50,
          "name": "D3",
          "ticks": 6240,
          "time": 5.70175125,
          "velocity": 0.2755905511811024
        },
        {
          "duration": 0.08771925000000014,
          "durationTicks": 96,
          "midi": 57,
          "name": "A3",
          "ticks": 6240,
          "time": 5.70175125,
          "velocity": 0.2755905511811024
        },
        {
          "duration": 0.08771925000000014,
          "durationTicks": 96,
          "midi": 38,
          "name": "D2",
          "ticks": 6240,
          "time": 5.70175125,
          "velocity": 0.2755905511811024
        },
        {
          "duration": 0.08771924999999925,
          "durationTicks": 96,
          "midi": 45,
          "name": "A2",
          "ticks": 6432,
          "time": 5.87718975,
          "velocity": 0.2755905511811024
        },
        {
          "duration": 0.08771924999999925,
          "durationTicks": 96,
          "midi": 38,
          "name": "D2",
          "ticks": 6432,
          "time": 5.87718975,
          "velocity": 0.2755905511811024
        },
        {
          "duration": 0.08771924999999925,
          "durationTicks": 96,
          "midi": 50,
          "name": "D3",
          "ticks": 6432,
          "time": 5.87718975,
          "velocity": 0.2755905511811024
        },
        {
          "duration": 0.08771924999999925,
          "durationTicks": 96,
          "midi": 57,
          "name": "A3",
          "ticks": 6432,
          "time": 5.87718975,
          "velocity": 0.2755905511811024
        },
        {
          "duration": 0.08771925000000014,
          "durationTicks": 96,
          "midi": 50,
          "name": "D3",
          "ticks": 6816,
          "time": 6.22806675,
          "velocity": 0.2755905511811024
        },
        {
          "duration": 0.08771925000000014,
          "durationTicks": 96,
          "midi": 57,
          "name": "A3",
          "ticks": 6816,
          "time": 6.22806675,
          "velocity": 0.2755905511811024
        },
        {
          "duration": 0.08771925000000014,
          "durationTicks": 96,
          "midi": 38,
          "name": "D2",
          "ticks": 6816,
          "time": 6.22806675,
          "velocity": 0.2755905511811024
        },
        {
          "duration": 0.08771925000000014,
          "durationTicks": 96,
          "midi": 45,
          "name": "A2",
          "ticks": 6816,
          "time": 6.22806675,
          "velocity": 0.2755905511811024
        },
        {
          "duration": 0.08771924999999925,
          "durationTicks": 96,
          "midi": 45,
          "name": "A2",
          "ticks": 7008,
          "time": 6.40350525,
          "velocity": 0.2755905511811024
        },
        {
          "duration": 0.08771924999999925,
          "durationTicks": 96,
          "midi": 38,
          "name": "D2",
          "ticks": 7008,
          "time": 6.40350525,
          "velocity": 0.2755905511811024
        },
        {
          "duration": 0.08771924999999925,
          "durationTicks": 96,
          "midi": 57,
          "name": "A3",
          "ticks": 7008,
          "time": 6.40350525,
          "velocity": 0.2755905511811024
        },
        {
          "duration": 0.08771924999999925,
          "durationTicks": 96,
          "midi": 50,
          "name": "D3",
          "ticks": 7008,
          "time": 6.40350525,
          "velocity": 0.2755905511811024
        },
        {
          "duration": 0.08771925000000014,
          "durationTicks": 96,
          "midi": 57,
          "name": "A3",
          "ticks": 7200,
          "time": 6.57894375,
          "velocity": 0.2755905511811024
        },
        {
          "duration": 0.08771925000000014,
          "durationTicks": 96,
          "midi": 45,
          "name": "A2",
          "ticks": 7200,
          "time": 6.57894375,
          "velocity": 0.2755905511811024
        },
        {
          "duration": 0.08771925000000014,
          "durationTicks": 96,
          "midi": 38,
          "name": "D2",
          "ticks": 7200,
          "time": 6.57894375,
          "velocity": 0.2755905511811024
        },
        {
          "duration": 0.08771925000000014,
          "durationTicks": 96,
          "midi": 50,
          "name": "D3",
          "ticks": 7200,
          "time": 6.57894375,
          "velocity": 0.2755905511811024
        },
        {
          "duration": 0.08771925000000014,
          "durationTicks": 96,
          "midi": 38,
          "name": "D2",
          "ticks": 7584,
          "time": 6.92982075,
          "velocity": 0.2755905511811024
        },
        {
          "duration": 0.08771925000000014,
          "durationTicks": 96,
          "midi": 50,
          "name": "D3",
          "ticks": 7584,
          "time": 6.92982075,
          "velocity": 0.2755905511811024
        },
        {
          "duration": 0.08771925000000014,
          "durationTicks": 96,
          "midi": 57,
          "name": "A3",
          "ticks": 7584,
          "time": 6.92982075,
          "velocity": 0.2755905511811024
        },
        {
          "duration": 0.08771925000000014,
          "durationTicks": 96,
          "midi": 45,
          "name": "A2",
          "ticks": 7584,
          "time": 6.92982075,
          "velocity": 0.2755905511811024
        },
        {
          "duration": 0.08771925000000014,
          "durationTicks": 96,
          "midi": 45,
          "name": "A2",
          "ticks": 7776,
          "time": 7.10525925,
          "velocity": 0.2755905511811024
        },
        {
          "duration": 0.08771925000000014,
          "durationTicks": 96,
          "midi": 50,
          "name": "D3",
          "ticks": 7776,
          "time": 7.10525925,
          "velocity": 0.2755905511811024
        },
        {
          "duration": 0.08771925000000014,
          "durationTicks": 96,
          "midi": 57,
          "name": "A3",
          "ticks": 7776,
          "time": 7.10525925,
          "velocity": 0.2755905511811024
        },
        {
          "duration": 0.08771925000000014,
          "durationTicks": 96,
          "midi": 38,
          "name": "D2",
          "ticks": 7776,
          "time": 7.10525925,
          "velocity": 0.2755905511811024
        },
        {
          "duration": 0.08771925000000014,
          "durationTicks": 96,
          "midi": 57,
          "name": "A3",
          "ticks": 7968,
          "time": 7.28069775,
          "velocity": 0.2755905511811024
        },
        {
          "duration": 0.08771925000000014,
          "durationTicks": 96,
          "midi": 38,
          "name": "D2",
          "ticks": 7968,
          "time": 7.28069775,
          "velocity": 0.2755905511811024
        },
        {
          "duration": 0.08771925000000014,
          "durationTicks": 96,
          "midi": 50,
          "name": "D3",
          "ticks": 7968,
          "time": 7.28069775,
          "velocity": 0.2755905511811024
        },
        {
          "duration": 0.08771925000000014,
          "durationTicks": 96,
          "midi": 45,
          "name": "A2",
          "ticks": 7968,
          "time": 7.28069775,
          "velocity": 0.2755905511811024
        },
        {
          "duration": 0.08771925000000014,
          "durationTicks": 96,
          "midi": 45,
          "name": "A2",
          "ticks": 8352,
          "time": 7.6315747499999995,
          "velocity": 0.2755905511811024
        },
        {
          "duration": 0.08771925000000014,
          "durationTicks": 96,
          "midi": 38,
          "name": "D2",
          "ticks": 8352,
          "time": 7.6315747499999995,
          "velocity": 0.2755905511811024
        },
        {
          "duration": 0.08771925000000014,
          "durationTicks": 96,
          "midi": 50,
          "name": "D3",
          "ticks": 8352,
          "time": 7.6315747499999995,
          "velocity": 0.2755905511811024
        },
        {
          "duration": 0.08771925000000014,
          "durationTicks": 96,
          "midi": 57,
          "name": "A3",
          "ticks": 8352,
          "time": 7.6315747499999995,
          "velocity": 0.2755905511811024
        },
        {
          "duration": 0.08771925000000014,
          "durationTicks": 96,
          "midi": 50,
          "name": "D3",
          "ticks": 8544,
          "time": 7.80701325,
          "velocity": 0.2755905511811024
        },
        {
          "duration": 0.08771925000000014,
          "durationTicks": 96,
          "midi": 45,
          "name": "A2",
          "ticks": 8544,
          "time": 7.80701325,
          "velocity": 0.2755905511811024
        },
        {
          "duration": 0.08771925000000014,
          "durationTicks": 96,
          "midi": 57,
          "name": "A3",
          "ticks": 8544,
          "time": 7.80701325,
          "velocity": 0.2755905511811024
        },
        {
          "duration": 0.08771925000000014,
          "durationTicks": 96,
          "midi": 38,
          "name": "D2",
          "ticks": 8544,
          "time": 7.80701325,
          "velocity": 0.2755905511811024
        },
        {
          "duration": 0.08771925000000014,
          "durationTicks": 96,
          "midi": 57,
          "name": "A3",
          "ticks": 8736,
          "time": 7.98245175,
          "velocity": 0.2755905511811024
        },
        {
          "duration": 0.08771925000000014,
          "durationTicks": 96,
          "midi": 38,
          "name": "D2",
          "ticks": 8736,
          "time": 7.98245175,
          "velocity": 0.2755905511811024
        },
        {
          "duration": 0.08771925000000014,
          "durationTicks": 96,
          "midi": 50,
          "name": "D3",
          "ticks": 8736,
          "time": 7.98245175,
          "velocity": 0.2755905511811024
        },
        {
          "duration": 0.08771925000000014,
          "durationTicks": 96,
          "midi": 45,
          "name": "A2",
          "ticks": 8736,
          "time": 7.98245175,
          "velocity": 0.2755905511811024
        },
        {
          "duration": 0.08771925000000103,
          "durationTicks": 96,
          "midi": 38,
          "name": "D2",
          "ticks": 8928,
          "time": 8.15789025,
          "velocity": 0.2755905511811024
        },
        {
          "duration": 0.08771925000000103,
          "durationTicks": 96,
          "midi": 57,
          "name": "A3",
          "ticks": 8928,
          "time": 8.15789025,
          "velocity": 0.2755905511811024
        },
        {
          "duration": 0.08771925000000103,
          "durationTicks": 96,
          "midi": 45,
          "name": "A2",
          "ticks": 8928,
          "time": 8.15789025,
          "velocity": 0.2755905511811024
        },
        {
          "duration": 0.08771925000000103,
          "durationTicks": 96,
          "midi": 50,
          "name": "D3",
          "ticks": 8928,
          "time": 8.15789025,
          "velocity": 0.2755905511811024
        },
        {
          "duration": 0.08771924999999925,
          "durationTicks": 96,
          "midi": 55,
          "name": "G3",
          "ticks": 9312,
          "time": 8.50876725,
          "velocity": 0.2755905511811024
        },
        {
          "duration": 0.08771924999999925,
          "durationTicks": 96,
          "midi": 50,
          "name": "D3",
          "ticks": 9312,
          "time": 8.50876725,
          "velocity": 0.2755905511811024
        },
        {
          "duration": 0.08771924999999925,
          "durationTicks": 96,
          "midi": 43,
          "name": "G2",
          "ticks": 9312,
          "time": 8.50876725,
          "velocity": 0.2755905511811024
        },
        {
          "duration": 0.08771924999999925,
          "durationTicks": 96,
          "midi": 62,
          "name": "D4",
          "ticks": 9312,
          "time": 8.50876725,
          "velocity": 0.2755905511811024
        },
        {
          "duration": 0.08771924999999925,
          "durationTicks": 96,
          "midi": 55,
          "name": "G3",
          "ticks": 9504,
          "time": 8.68420575,
          "velocity": 0.2755905511811024
        },
        {
          "duration": 0.08771924999999925,
          "durationTicks": 96,
          "midi": 50,
          "name": "D3",
          "ticks": 9504,
          "time": 8.68420575,
          "velocity": 0.2755905511811024
        },
        {
          "duration": 0.08771924999999925,
          "durationTicks": 96,
          "midi": 62,
          "name": "D4",
          "ticks": 9504,
          "time": 8.68420575,
          "velocity": 0.2755905511811024
        },
        {
          "duration": 0.08771924999999925,
          "durationTicks": 96,
          "midi": 43,
          "name": "G2",
          "ticks": 9504,
          "time": 8.68420575,
          "velocity": 0.2755905511811024
        },
        {
          "duration": 0.08771925000000103,
          "durationTicks": 96,
          "midi": 43,
          "name": "G2",
          "ticks": 9888,
          "time": 9.035082749999999,
          "velocity": 0.2755905511811024
        },
        {
          "duration": 0.08771925000000103,
          "durationTicks": 96,
          "midi": 62,
          "name": "D4",
          "ticks": 9888,
          "time": 9.035082749999999,
          "velocity": 0.2755905511811024
        },
        {
          "duration": 0.08771925000000103,
          "durationTicks": 96,
          "midi": 50,
          "name": "D3",
          "ticks": 9888,
          "time": 9.035082749999999,
          "velocity": 0.2755905511811024
        },
        {
          "duration": 0.08771925000000103,
          "durationTicks": 96,
          "midi": 55,
          "name": "G3",
          "ticks": 9888,
          "time": 9.035082749999999,
          "velocity": 0.2755905511811024
        },
        {
          "duration": 0.08771925000000103,
          "durationTicks": 96,
          "midi": 53,
          "name": "F3",
          "ticks": 10080,
          "time": 9.21052125,
          "velocity": 0.2755905511811024
        },
        {
          "duration": 0.08771925000000103,
          "durationTicks": 96,
          "midi": 57,
          "name": "A3",
          "ticks": 10080,
          "time": 9.21052125,
          "velocity": 0.2755905511811024
        },
        {
          "duration": 0.08771925000000103,
          "durationTicks": 96,
          "midi": 57,
          "name": "A3",
          "ticks": 10080,
          "time": 9.21052125,
          "velocity": 0.2755905511811024
        },
        {
          "duration": 0.08771925000000103,
          "durationTicks": 96,
          "midi": 65,
          "name": "F4",
          "ticks": 10080,
          "time": 9.21052125,
          "velocity": 0.2755905511811024
        },
        {
          "duration": 0.08771925000000103,
          "durationTicks": 96,
          "midi": 45,
          "name": "A2",
          "ticks": 10080,
          "time": 9.21052125,
          "velocity": 0.2755905511811024
        },
        {
          "duration": 0.08771925000000103,
          "durationTicks": 96,
          "midi": 65,
          "name": "F4",
          "ticks": 10272,
          "time": 9.38595975,
          "velocity": 0.2755905511811024
        },
        {
          "duration": 0.08771925000000103,
          "durationTicks": 96,
          "midi": 57,
          "name": "A3",
          "ticks": 10272,
          "time": 9.38595975,
          "velocity": 0.2755905511811024
        },
        {
          "duration": 0.08771925000000103,
          "durationTicks": 96,
          "midi": 53,
          "name": "F3",
          "ticks": 10272,
          "time": 9.38595975,
          "velocity": 0.2755905511811024
        },
        {
          "duration": 0.08771925000000103,
          "durationTicks": 96,
          "midi": 45,
          "name": "A2",
          "ticks": 10272,
          "time": 9.38595975,
          "velocity": 0.2755905511811024
        },
        {
          "duration": 0.08771924999999925,
          "durationTicks": 96,
          "midi": 53,
          "name": "F3",
          "ticks": 10656,
          "time": 9.73683675,
          "velocity": 0.2755905511811024
        },
        {
          "duration": 0.08771924999999925,
          "durationTicks": 96,
          "midi": 65,
          "name": "F4",
          "ticks": 10656,
          "time": 9.73683675,
          "velocity": 0.2755905511811024
        },
        {
          "duration": 0.08771924999999925,
          "durationTicks": 96,
          "midi": 57,
          "name": "A3",
          "ticks": 10656,
          "time": 9.73683675,
          "velocity": 0.2755905511811024
        },
        {
          "duration": 0.08771924999999925,
          "durationTicks": 96,
          "midi": 65,
          "name": "F4",
          "ticks": 10848,
          "time": 9.91227525,
          "velocity": 0.2755905511811024
        },
        {
          "duration": 0.08771924999999925,
          "durationTicks": 96,
          "midi": 53,
          "name": "F3",
          "ticks": 10848,
          "time": 9.91227525,
          "velocity": 0.2755905511811024
        },
        {
          "duration": 0.08771924999999925,
          "durationTicks": 96,
          "midi": 58,
          "name": "A#3",
          "ticks": 10848,
          "time": 9.91227525,
          "velocity": 0.2755905511811024
        },
        {
          "duration": 0.08771924999999925,
          "durationTicks": 96,
          "midi": 53,
          "name": "F3",
          "ticks": 11040,
          "time": 10.08771375,
          "velocity": 0.2755905511811024
        },
        {
          "duration": 0.08771924999999925,
          "durationTicks": 96,
          "midi": 70,
          "name": "A#4",
          "ticks": 11040,
          "time": 10.08771375,
          "velocity": 0.2755905511811024
        },
        {
          "duration": 0.08771924999999925,
          "durationTicks": 96,
          "midi": 58,
          "name": "A#3",
          "ticks": 11040,
          "time": 10.08771375,
          "velocity": 0.2755905511811024
        },
        {
          "duration": 0.08771924999999925,
          "durationTicks": 96,
          "midi": 65,
          "name": "F4",
          "ticks": 11040,
          "time": 10.08771375,
          "velocity": 0.2755905511811024
        },
        {
          "duration": 0.08771925000000103,
          "durationTicks": 96,
          "midi": 69,
          "name": "A4",
          "ticks": 11232,
          "time": 10.26315225,
          "velocity": 0.2755905511811024
        },
        {
          "duration": 0.08771925000000103,
          "durationTicks": 96,
          "midi": 62,
          "name": "D4",
          "ticks": 11232,
          "time": 10.26315225,
          "velocity": 0.2755905511811024
        },
        {
          "duration": 0.08771925000000103,
          "durationTicks": 96,
          "midi": 57,
          "name": "A3",
          "ticks": 11232,
          "time": 10.26315225,
          "velocity": 0.2755905511811024
        },
        {
          "duration": 0.08771925000000103,
          "durationTicks": 96,
          "midi": 50,
          "name": "D3",
          "ticks": 11232,
          "time": 10.26315225,
          "velocity": 0.2755905511811024
        },
        {
          "duration": 0.08771925000000103,
          "durationTicks": 96,
          "midi": 48,
          "name": "C3",
          "ticks": 11424,
          "time": 10.43859075,
          "velocity": 0.2755905511811024
        },
        {
          "duration": 0.08771925000000103,
          "durationTicks": 96,
          "midi": 53,
          "name": "F3",
          "ticks": 11424,
          "time": 10.43859075,
          "velocity": 0.2755905511811024
        },
        {
          "duration": 0.08771925000000103,
          "durationTicks": 96,
          "midi": 60,
          "name": "C4",
          "ticks": 11424,
          "time": 10.43859075,
          "velocity": 0.2755905511811024
        },
        {
          "duration": 0.08771925000000103,
          "durationTicks": 96,
          "midi": 65,
          "name": "F4",
          "ticks": 11424,
          "time": 10.43859075,
          "velocity": 0.2755905511811024
        },
        {
          "duration": 0.08771924999999925,
          "durationTicks": 96,
          "midi": 58,
          "name": "A#3",
          "ticks": 11616,
          "time": 10.61402925,
          "velocity": 0.2755905511811024
        },
        {
          "duration": 0.08771924999999925,
          "durationTicks": 96,
          "midi": 50,
          "name": "D3",
          "ticks": 11616,
          "time": 10.61402925,
          "velocity": 0.2755905511811024
        },
        {
          "duration": 0.08771924999999925,
          "durationTicks": 96,
          "midi": 62,
          "name": "D4",
          "ticks": 11616,
          "time": 10.61402925,
          "velocity": 0.2755905511811024
        },
        {
          "duration": 0.08771924999999925,
          "durationTicks": 96,
          "midi": 41,
          "name": "F2",
          "ticks": 11808,
          "time": 10.78946775,
          "velocity": 0.2755905511811024
        },
        {
          "duration": 0.08771924999999925,
          "durationTicks": 96,
          "midi": 53,
          "name": "F3",
          "ticks": 11808,
          "time": 10.78946775,
          "velocity": 0.2755905511811024
        },
        {
          "duration": 0.08771924999999925,
          "durationTicks": 96,
          "midi": 48,
          "name": "C3",
          "ticks": 11808,
          "time": 10.78946775,
          "velocity": 0.2755905511811024
        },
        {
          "duration": 0.08771924999999925,
          "durationTicks": 96,
          "midi": 60,
          "name": "C4",
          "ticks": 11808,
          "time": 10.78946775,
          "velocity": 0.2755905511811024
        },
        {
          "duration": 0.08771924999999925,
          "durationTicks": 96,
          "midi": 48,
          "name": "C3",
          "ticks": 11808,
          "time": 10.78946775,
          "velocity": 0.2755905511811024
        },
        {
          "duration": 0.08771924999999925,
          "durationTicks": 96,
          "midi": 48,
          "name": "C3",
          "ticks": 12000,
          "time": 10.96490625,
          "velocity": 0.2755905511811024
        },
        {
          "duration": 0.08771924999999925,
          "durationTicks": 96,
          "midi": 50,
          "name": "D3",
          "ticks": 12000,
          "time": 10.96490625,
          "velocity": 0.2755905511811024
        },
        {
          "duration": 0.08771924999999925,
          "durationTicks": 96,
          "midi": 38,
          "name": "D2",
          "ticks": 12000,
          "time": 10.96490625,
          "velocity": 0.2755905511811024
        },
        {
          "duration": 0.08771924999999925,
          "durationTicks": 96,
          "midi": 58,
          "name": "A#3",
          "ticks": 12000,
          "time": 10.96490625,
          "velocity": 0.2755905511811024
        },
        {
          "duration": 0.08771924999999925,
          "durationTicks": 96,
          "midi": 46,
          "name": "A#2",
          "ticks": 12000,
          "time": 10.96490625,
          "velocity": 0.2755905511811024
        },
        {
          "duration": 0.08771924999999925,
          "durationTicks": 96,
          "midi": 57,
          "name": "A3",
          "ticks": 12192,
          "time": 11.14034475,
          "velocity": 0.2755905511811024
        },
        {
          "duration": 0.08771924999999925,
          "durationTicks": 96,
          "midi": 48,
          "name": "C3",
          "ticks": 12192,
          "time": 11.14034475,
          "velocity": 0.2755905511811024
        },
        {
          "duration": 0.08771924999999925,
          "durationTicks": 96,
          "midi": 36,
          "name": "C2",
          "ticks": 12192,
          "time": 11.14034475,
          "velocity": 0.2755905511811024
        },
        {
          "duration": 0.08771924999999925,
          "durationTicks": 96,
          "midi": 45,
          "name": "A2",
          "ticks": 12192,
          "time": 11.14034475,
          "velocity": 0.2755905511811024
        },
        {
          "duration": 0.08771924999999925,
          "durationTicks": 96,
          "midi": 46,
          "name": "A#2",
          "ticks": 12192,
          "time": 11.14034475,
          "velocity": 0.2755905511811024
        },
        {
          "duration": 0.08771925000000103,
          "durationTicks": 96,
          "midi": 58,
          "name": "A#3",
          "ticks": 12384,
          "time": 11.315783249999999,
          "velocity": 0.2755905511811024
        },
        {
          "duration": 0.08771925000000103,
          "durationTicks": 96,
          "midi": 46,
          "name": "A#2",
          "ticks": 12384,
          "time": 11.315783249999999,
          "velocity": 0.2755905511811024
        },
        {
          "duration": 0.08771925000000103,
          "durationTicks": 96,
          "midi": 39,
          "name": "D#2",
          "ticks": 12384,
          "time": 11.315783249999999,
          "velocity": 0.2755905511811024
        },
        {
          "duration": 0.08771925000000103,
          "durationTicks": 96,
          "midi": 51,
          "name": "D#3",
          "ticks": 12384,
          "time": 11.315783249999999,
          "velocity": 0.2755905511811024
        },
        {
          "duration": 0.08771925000000103,
          "durationTicks": 96,
          "midi": 51,
          "name": "D#3",
          "ticks": 12576,
          "time": 11.49122175,
          "velocity": 0.2755905511811024
        },
        {
          "duration": 0.08771925000000103,
          "durationTicks": 96,
          "midi": 39,
          "name": "D#2",
          "ticks": 12576,
          "time": 11.49122175,
          "velocity": 0.2755905511811024
        },
        {
          "duration": 0.08771925000000103,
          "durationTicks": 96,
          "midi": 58,
          "name": "A#3",
          "ticks": 12576,
          "time": 11.49122175,
          "velocity": 0.2755905511811024
        },
        {
          "duration": 0.08771925000000103,
          "durationTicks": 96,
          "midi": 46,
          "name": "A#2",
          "ticks": 12576,
          "time": 11.49122175,
          "velocity": 0.2755905511811024
        },
        {
          "duration": 0.08771924999999925,
          "durationTicks": 96,
          "midi": 58,
          "name": "A#3",
          "ticks": 12960,
          "time": 11.84209875,
          "velocity": 0.2755905511811024
        },
        {
          "duration": 0.08771924999999925,
          "durationTicks": 96,
          "midi": 39,
          "name": "D#2",
          "ticks": 12960,
          "time": 11.84209875,
          "velocity": 0.2755905511811024
        },
        {
          "duration": 0.08771924999999925,
          "durationTicks": 96,
          "midi": 51,
          "name": "D#3",
          "ticks": 12960,
          "time": 11.84209875,
          "velocity": 0.2755905511811024
        },
        {
          "duration": 0.08771924999999925,
          "durationTicks": 96,
          "midi": 46,
          "name": "A#2",
          "ticks": 12960,
          "time": 11.84209875,
          "velocity": 0.2755905511811024
        },
        {
          "duration": 0.08771924999999925,
          "durationTicks": 96,
          "midi": 39,
          "name": "D#2",
          "ticks": 13152,
          "time": 12.01753725,
          "velocity": 0.2755905511811024
        },
        {
          "duration": 0.08771924999999925,
          "durationTicks": 96,
          "midi": 58,
          "name": "A#3",
          "ticks": 13152,
          "time": 12.01753725,
          "velocity": 0.2755905511811024
        },
        {
          "duration": 0.08771924999999925,
          "durationTicks": 96,
          "midi": 51,
          "name": "D#3",
          "ticks": 13152,
          "time": 12.01753725,
          "velocity": 0.2755905511811024
        },
        {
          "duration": 0.08771924999999925,
          "durationTicks": 96,
          "midi": 46,
          "name": "A#2",
          "ticks": 13152,
          "time": 12.01753725,
          "velocity": 0.2755905511811024
        },
        {
          "duration": 0.08771924999999925,
          "durationTicks": 96,
          "midi": 46,
          "name": "A#2",
          "ticks": 13344,
          "time": 12.19297575,
          "velocity": 0.2755905511811024
        },
        {
          "duration": 0.08771924999999925,
          "durationTicks": 96,
          "midi": 39,
          "name": "D#2",
          "ticks": 13344,
          "time": 12.19297575,
          "velocity": 0.2755905511811024
        },
        {
          "duration": 0.08771924999999925,
          "durationTicks": 96,
          "midi": 58,
          "name": "A#3",
          "ticks": 13344,
          "time": 12.19297575,
          "velocity": 0.2755905511811024
        },
        {
          "duration": 0.08771924999999925,
          "durationTicks": 96,
          "midi": 51,
          "name": "D#3",
          "ticks": 13344,
          "time": 12.19297575,
          "velocity": 0.2755905511811024
        },
        {
          "duration": 0.08771925000000103,
          "durationTicks": 96,
          "midi": 51,
          "name": "D#3",
          "ticks": 13728,
          "time": 12.54385275,
          "velocity": 0.2755905511811024
        },
        {
          "duration": 0.08771925000000103,
          "durationTicks": 96,
          "midi": 39,
          "name": "D#2",
          "ticks": 13728,
          "time": 12.54385275,
          "velocity": 0.2755905511811024
        },
        {
          "duration": 0.08771925000000103,
          "durationTicks": 96,
          "midi": 46,
          "name": "A#2",
          "ticks": 13728,
          "time": 12.54385275,
          "velocity": 0.2755905511811024
        },
        {
          "duration": 0.08771925000000103,
          "durationTicks": 96,
          "midi": 58,
          "name": "A#3",
          "ticks": 13728,
          "time": 12.54385275,
          "velocity": 0.2755905511811024
        },
        {
          "duration": 0.08771925000000103,
          "durationTicks": 96,
          "midi": 46,
          "name": "A#2",
          "ticks": 13920,
          "time": 12.71929125,
          "velocity": 0.2755905511811024
        },
        {
          "duration": 0.08771925000000103,
          "durationTicks": 96,
          "midi": 39,
          "name": "D#2",
          "ticks": 13920,
          "time": 12.71929125,
          "velocity": 0.2755905511811024
        },
        {
          "duration": 0.08771925000000103,
          "durationTicks": 96,
          "midi": 51,
          "name": "D#3",
          "ticks": 13920,
          "time": 12.71929125,
          "velocity": 0.2755905511811024
        },
        {
          "duration": 0.08771925000000103,
          "durationTicks": 96,
          "midi": 58,
          "name": "A#3",
          "ticks": 13920,
          "time": 12.71929125,
          "velocity": 0.2755905511811024
        },
        {
          "duration": 0.08771924999999925,
          "durationTicks": 96,
          "midi": 46,
          "name": "A#2",
          "ticks": 14112,
          "time": 12.89472975,
          "velocity": 0.2755905511811024
        },
        {
          "duration": 0.08771924999999925,
          "durationTicks": 96,
          "midi": 51,
          "name": "D#3",
          "ticks": 14112,
          "time": 12.89472975,
          "velocity": 0.2755905511811024
        },
        {
          "duration": 0.08771924999999925,
          "durationTicks": 96,
          "midi": 58,
          "name": "A#3",
          "ticks": 14112,
          "time": 12.89472975,
          "velocity": 0.2755905511811024
        },
        {
          "duration": 0.08771924999999925,
          "durationTicks": 96,
          "midi": 39,
          "name": "D#2",
          "ticks": 14112,
          "time": 12.89472975,
          "velocity": 0.2755905511811024
        },
        {
          "duration": 0.08771924999999925,
          "durationTicks": 96,
          "midi": 39,
          "name": "D#2",
          "ticks": 14496,
          "time": 13.24560675,
          "velocity": 0.2755905511811024
        },
        {
          "duration": 0.08771924999999925,
          "durationTicks": 96,
          "midi": 51,
          "name": "D#3",
          "ticks": 14496,
          "time": 13.24560675,
          "velocity": 0.2755905511811024
        },
        {
          "duration": 0.08771924999999925,
          "durationTicks": 96,
          "midi": 58,
          "name": "A#3",
          "ticks": 14496,
          "time": 13.24560675,
          "velocity": 0.2755905511811024
        },
        {
          "duration": 0.08771924999999925,
          "durationTicks": 96,
          "midi": 46,
          "name": "A#2",
          "ticks": 14496,
          "time": 13.24560675,
          "velocity": 0.2755905511811024
        },
        {
          "duration": 0.08771924999999925,
          "durationTicks": 96,
          "midi": 46,
          "name": "A#2",
          "ticks": 14688,
          "time": 13.42104525,
          "velocity": 0.2755905511811024
        },
        {
          "duration": 0.08771924999999925,
          "durationTicks": 96,
          "midi": 39,
          "name": "D#2",
          "ticks": 14688,
          "time": 13.42104525,
          "velocity": 0.2755905511811024
        },
        {
          "duration": 0.08771924999999925,
          "durationTicks": 96,
          "midi": 51,
          "name": "D#3",
          "ticks": 14688,
          "time": 13.42104525,
          "velocity": 0.2755905511811024
        },
        {
          "duration": 0.08771924999999925,
          "durationTicks": 96,
          "midi": 58,
          "name": "A#3",
          "ticks": 14688,
          "time": 13.42104525,
          "velocity": 0.2755905511811024
        },
        {
          "duration": 0.08771925000000103,
          "durationTicks": 96,
          "midi": 58,
          "name": "A#3",
          "ticks": 14880,
          "time": 13.596483749999999,
          "velocity": 0.2755905511811024
        },
        {
          "duration": 0.08771925000000103,
          "durationTicks": 96,
          "midi": 39,
          "name": "D#2",
          "ticks": 14880,
          "time": 13.596483749999999,
          "velocity": 0.2755905511811024
        },
        {
          "duration": 0.08771925000000103,
          "durationTicks": 96,
          "midi": 51,
          "name": "D#3",
          "ticks": 14880,
          "time": 13.596483749999999,
          "velocity": 0.2755905511811024
        },
        {
          "duration": 0.08771925000000103,
          "durationTicks": 96,
          "midi": 46,
          "name": "A#2",
          "ticks": 14880,
          "time": 13.596483749999999,
          "velocity": 0.2755905511811024
        },
        {
          "duration": 0.08771925000000103,
          "durationTicks": 96,
          "midi": 46,
          "name": "A#2",
          "ticks": 15072,
          "time": 13.77192225,
          "velocity": 0.2755905511811024
        },
        {
          "duration": 0.08771925000000103,
          "durationTicks": 96,
          "midi": 58,
          "name": "A#3",
          "ticks": 15072,
          "time": 13.77192225,
          "velocity": 0.2755905511811024
        },
        {
          "duration": 0.08771925000000103,
          "durationTicks": 96,
          "midi": 51,
          "name": "D#3",
          "ticks": 15072,
          "time": 13.77192225,
          "velocity": 0.2755905511811024
        },
        {
          "duration": 0.08771925000000103,
          "durationTicks": 96,
          "midi": 39,
          "name": "D#2",
          "ticks": 15072,
          "time": 13.77192225,
          "velocity": 0.2755905511811024
        },
        {
          "duration": 0.08771925000000103,
          "durationTicks": 96,
          "midi": 60,
          "name": "C4",
          "ticks": 15264,
          "time": 13.94736075,
          "velocity": 0.2755905511811024
        },
        {
          "duration": 0.08771925000000103,
          "durationTicks": 96,
          "midi": 53,
          "name": "F3",
          "ticks": 15264,
          "time": 13.94736075,
          "velocity": 0.2755905511811024
        },
        {
          "duration": 0.08771925000000103,
          "durationTicks": 96,
          "midi": 41,
          "name": "F2",
          "ticks": 15264,
          "time": 13.94736075,
          "velocity": 0.2755905511811024
        },
        {
          "duration": 0.08771925000000103,
          "durationTicks": 96,
          "midi": 48,
          "name": "C3",
          "ticks": 15264,
          "time": 13.94736075,
          "velocity": 0.2755905511811024
        },
        {
          "duration": 0.08771924999999925,
          "durationTicks": 96,
          "midi": 51,
          "name": "D#3",
          "ticks": 15456,
          "time": 14.12279925,
          "velocity": 0.2755905511811024
        },
        {
          "duration": 0.08771924999999925,
          "durationTicks": 96,
          "midi": 58,
          "name": "A#3",
          "ticks": 15456,
          "time": 14.12279925,
          "velocity": 0.2755905511811024
        },
        {
          "duration": 0.08771924999999925,
          "durationTicks": 96,
          "midi": 46,
          "name": "A#2",
          "ticks": 15456,
          "time": 14.12279925,
          "velocity": 0.2755905511811024
        },
        {
          "duration": 0.08771924999999925,
          "durationTicks": 96,
          "midi": 39,
          "name": "D#2",
          "ticks": 15456,
          "time": 14.12279925,
          "velocity": 0.2755905511811024
        },
        {
          "duration": 0.08771924999999925,
          "durationTicks": 96,
          "midi": 58,
          "name": "A#3",
          "ticks": 15648,
          "time": 14.29823775,
          "velocity": 0.2755905511811024
        },
        {
          "duration": 0.08771924999999925,
          "durationTicks": 96,
          "midi": 51,
          "name": "D#3",
          "ticks": 15648,
          "time": 14.29823775,
          "velocity": 0.2755905511811024
        },
        {
          "duration": 0.08771924999999925,
          "durationTicks": 96,
          "midi": 39,
          "name": "D#2",
          "ticks": 15648,
          "time": 14.29823775,
          "velocity": 0.2755905511811024
        },
        {
          "duration": 0.08771924999999925,
          "durationTicks": 96,
          "midi": 46,
          "name": "A#2",
          "ticks": 15648,
          "time": 14.29823775,
          "velocity": 0.2755905511811024
        },
        {
          "duration": 0.08771925000000103,
          "durationTicks": 96,
          "midi": 46,
          "name": "A#2",
          "ticks": 16032,
          "time": 14.649114749999999,
          "velocity": 0.2755905511811024
        },
        {
          "duration": 0.08771925000000103,
          "durationTicks": 96,
          "midi": 51,
          "name": "D#3",
          "ticks": 16032,
          "time": 14.649114749999999,
          "velocity": 0.2755905511811024
        },
        {
          "duration": 0.08771925000000103,
          "durationTicks": 96,
          "midi": 58,
          "name": "A#3",
          "ticks": 16032,
          "time": 14.649114749999999,
          "velocity": 0.2755905511811024
        },
        {
          "duration": 0.08771925000000103,
          "durationTicks": 96,
          "midi": 39,
          "name": "D#2",
          "ticks": 16032,
          "time": 14.649114749999999,
          "velocity": 0.2755905511811024
        },
        {
          "duration": 0.08771925000000103,
          "durationTicks": 96,
          "midi": 39,
          "name": "D#2",
          "ticks": 16224,
          "time": 14.82455325,
          "velocity": 0.2755905511811024
        },
        {
          "duration": 0.08771925000000103,
          "durationTicks": 96,
          "midi": 51,
          "name": "D#3",
          "ticks": 16224,
          "time": 14.82455325,
          "velocity": 0.2755905511811024
        },
        {
          "duration": 0.08771925000000103,
          "durationTicks": 96,
          "midi": 46,
          "name": "A#2",
          "ticks": 16224,
          "time": 14.82455325,
          "velocity": 0.2755905511811024
        },
        {
          "duration": 0.08771925000000103,
          "durationTicks": 96,
          "midi": 58,
          "name": "A#3",
          "ticks": 16224,
          "time": 14.82455325,
          "velocity": 0.2755905511811024
        },
        {
          "duration": 0.08771925000000103,
          "durationTicks": 96,
          "midi": 39,
          "name": "D#2",
          "ticks": 16416,
          "time": 14.99999175,
          "velocity": 0.2755905511811024
        },
        {
          "duration": 0.08771925000000103,
          "durationTicks": 96,
          "midi": 46,
          "name": "A#2",
          "ticks": 16416,
          "time": 14.99999175,
          "velocity": 0.2755905511811024
        },
        {
          "duration": 0.08771925000000103,
          "durationTicks": 96,
          "midi": 51,
          "name": "D#3",
          "ticks": 16416,
          "time": 14.99999175,
          "velocity": 0.2755905511811024
        },
        {
          "duration": 0.08771925000000103,
          "durationTicks": 96,
          "midi": 58,
          "name": "A#3",
          "ticks": 16416,
          "time": 14.99999175,
          "velocity": 0.2755905511811024
        },
        {
          "duration": 0.08771924999999925,
          "durationTicks": 96,
          "midi": 51,
          "name": "D#3",
          "ticks": 16800,
          "time": 15.35086875,
          "velocity": 0.2755905511811024
        },
        {
          "duration": 0.08771924999999925,
          "durationTicks": 96,
          "midi": 39,
          "name": "D#2",
          "ticks": 16800,
          "time": 15.35086875,
          "velocity": 0.2755905511811024
        },
        {
          "duration": 0.08771924999999925,
          "durationTicks": 96,
          "midi": 46,
          "name": "A#2",
          "ticks": 16800,
          "time": 15.35086875,
          "velocity": 0.2755905511811024
        },
        {
          "duration": 0.08771924999999925,
          "durationTicks": 96,
          "midi": 58,
          "name": "A#3",
          "ticks": 16800,
          "time": 15.35086875,
          "velocity": 0.2755905511811024
        },
        {
          "duration": 0.08771924999999925,
          "durationTicks": 96,
          "midi": 46,
          "name": "A#2",
          "ticks": 16992,
          "time": 15.52630725,
          "velocity": 0.2755905511811024
        },
        {
          "duration": 0.08771924999999925,
          "durationTicks": 96,
          "midi": 51,
          "name": "D#3",
          "ticks": 16992,
          "time": 15.52630725,
          "velocity": 0.2755905511811024
        },
        {
          "duration": 0.08771924999999925,
          "durationTicks": 96,
          "midi": 58,
          "name": "A#3",
          "ticks": 16992,
          "time": 15.52630725,
          "velocity": 0.2755905511811024
        },
        {
          "duration": 0.08771924999999925,
          "durationTicks": 96,
          "midi": 39,
          "name": "D#2",
          "ticks": 16992,
          "time": 15.52630725,
          "velocity": 0.2755905511811024
        },
        {
          "duration": 0.08771924999999925,
          "durationTicks": 96,
          "midi": 46,
          "name": "A#2",
          "ticks": 17184,
          "time": 15.70174575,
          "velocity": 0.2755905511811024
        },
        {
          "duration": 0.08771924999999925,
          "durationTicks": 96,
          "midi": 39,
          "name": "D#2",
          "ticks": 17184,
          "time": 15.70174575,
          "velocity": 0.2755905511811024
        },
        {
          "duration": 0.08771924999999925,
          "durationTicks": 96,
          "midi": 51,
          "name": "D#3",
          "ticks": 17184,
          "time": 15.70174575,
          "velocity": 0.2755905511811024
        },
        {
          "duration": 0.08771924999999925,
          "durationTicks": 96,
          "midi": 58,
          "name": "A#3",
          "ticks": 17184,
          "time": 15.70174575,
          "velocity": 0.2755905511811024
        },
        {
          "duration": 0.08771924999999925,
          "durationTicks": 96,
          "midi": 39,
          "name": "D#2",
          "ticks": 17568,
          "time": 16.05262275,
          "velocity": 0.2755905511811024
        },
        {
          "duration": 0.08771924999999925,
          "durationTicks": 96,
          "midi": 46,
          "name": "A#2",
          "ticks": 17568,
          "time": 16.05262275,
          "velocity": 0.2755905511811024
        },
        {
          "duration": 0.08771924999999925,
          "durationTicks": 96,
          "midi": 51,
          "name": "D#3",
          "ticks": 17568,
          "time": 16.05262275,
          "velocity": 0.2755905511811024
        },
        {
          "duration": 0.08771924999999925,
          "durationTicks": 96,
          "midi": 58,
          "name": "A#3",
          "ticks": 17568,
          "time": 16.05262275,
          "velocity": 0.2755905511811024
        },
        {
          "duration": 0.08771924999999925,
          "durationTicks": 96,
          "midi": 39,
          "name": "D#2",
          "ticks": 17760,
          "time": 16.22806125,
          "velocity": 0.2755905511811024
        },
        {
          "duration": 0.08771924999999925,
          "durationTicks": 96,
          "midi": 58,
          "name": "A#3",
          "ticks": 17760,
          "time": 16.22806125,
          "velocity": 0.2755905511811024
        },
        {
          "duration": 0.08771924999999925,
          "durationTicks": 96,
          "midi": 51,
          "name": "D#3",
          "ticks": 17760,
          "time": 16.22806125,
          "velocity": 0.2755905511811024
        },
        {
          "duration": 0.08771924999999925,
          "durationTicks": 96,
          "midi": 46,
          "name": "A#2",
          "ticks": 17760,
          "time": 16.22806125,
          "velocity": 0.2755905511811024
        },
        {
          "duration": 0.0877192500000028,
          "durationTicks": 96,
          "midi": 58,
          "name": "A#3",
          "ticks": 17952,
          "time": 16.403499749999998,
          "velocity": 0.2755905511811024
        },
        {
          "duration": 0.0877192500000028,
          "durationTicks": 96,
          "midi": 46,
          "name": "A#2",
          "ticks": 17952,
          "time": 16.403499749999998,
          "velocity": 0.2755905511811024
        },
        {
          "duration": 0.0877192500000028,
          "durationTicks": 96,
          "midi": 39,
          "name": "D#2",
          "ticks": 17952,
          "time": 16.403499749999998,
          "velocity": 0.2755905511811024
        },
        {
          "duration": 0.0877192500000028,
          "durationTicks": 96,
          "midi": 51,
          "name": "D#3",
          "ticks": 17952,
          "time": 16.403499749999998,
          "velocity": 0.2755905511811024
        },
        {
          "duration": 0.08771924999999925,
          "durationTicks": 96,
          "midi": 46,
          "name": "A#2",
          "ticks": 18144,
          "time": 16.57893825,
          "velocity": 0.2755905511811024
        },
        {
          "duration": 0.08771924999999925,
          "durationTicks": 96,
          "midi": 58,
          "name": "A#3",
          "ticks": 18144,
          "time": 16.57893825,
          "velocity": 0.2755905511811024
        },
        {
          "duration": 0.08771924999999925,
          "durationTicks": 96,
          "midi": 51,
          "name": "D#3",
          "ticks": 18144,
          "time": 16.57893825,
          "velocity": 0.2755905511811024
        },
        {
          "duration": 0.08771924999999925,
          "durationTicks": 96,
          "midi": 39,
          "name": "D#2",
          "ticks": 18144,
          "time": 16.57893825,
          "velocity": 0.2755905511811024
        },
        {
          "duration": 0.08771924999999925,
          "durationTicks": 96,
          "midi": 60,
          "name": "C4",
          "ticks": 18336,
          "time": 16.75437675,
          "velocity": 0.2755905511811024
        },
        {
          "duration": 0.08771924999999925,
          "durationTicks": 96,
          "midi": 48,
          "name": "C3",
          "ticks": 18336,
          "time": 16.75437675,
          "velocity": 0.2755905511811024
        },
        {
          "duration": 0.08771924999999925,
          "durationTicks": 96,
          "midi": 53,
          "name": "F3",
          "ticks": 18336,
          "time": 16.75437675,
          "velocity": 0.2755905511811024
        },
        {
          "duration": 0.08771924999999925,
          "durationTicks": 96,
          "midi": 41,
          "name": "F2",
          "ticks": 18336,
          "time": 16.75437675,
          "velocity": 0.2755905511811024
        },
        {
          "duration": 0.08771924999999925,
          "durationTicks": 96,
          "midi": 57,
          "name": "A3",
          "ticks": 18528,
          "time": 16.92981525,
          "velocity": 0.2755905511811024
        },
        {
          "duration": 0.08771924999999925,
          "durationTicks": 96,
          "midi": 38,
          "name": "D2",
          "ticks": 18528,
          "time": 16.92981525,
          "velocity": 0.2755905511811024
        },
        {
          "duration": 0.08771924999999925,
          "durationTicks": 96,
          "midi": 45,
          "name": "A2",
          "ticks": 18528,
          "time": 16.92981525,
          "velocity": 0.2755905511811024
        },
        {
          "duration": 0.08771924999999925,
          "durationTicks": 96,
          "midi": 50,
          "name": "D3",
          "ticks": 18528,
          "time": 16.92981525,
          "velocity": 0.2755905511811024
        },
        {
          "duration": 0.08771924999999925,
          "durationTicks": 96,
          "midi": 45,
          "name": "A2",
          "ticks": 18720,
          "time": 17.10525375,
          "velocity": 0.2755905511811024
        },
        {
          "duration": 0.08771924999999925,
          "durationTicks": 96,
          "midi": 50,
          "name": "D3",
          "ticks": 18720,
          "time": 17.10525375,
          "velocity": 0.2755905511811024
        },
        {
          "duration": 0.08771924999999925,
          "durationTicks": 96,
          "midi": 57,
          "name": "A3",
          "ticks": 18720,
          "time": 17.10525375,
          "velocity": 0.2755905511811024
        },
        {
          "duration": 0.08771924999999925,
          "durationTicks": 96,
          "midi": 38,
          "name": "D2",
          "ticks": 18720,
          "time": 17.10525375,
          "velocity": 0.2755905511811024
        },
        {
          "duration": 0.08771924999999925,
          "durationTicks": 96,
          "midi": 50,
          "name": "D3",
          "ticks": 19104,
          "time": 17.45613075,
          "velocity": 0.2755905511811024
        },
        {
          "duration": 0.08771924999999925,
          "durationTicks": 96,
          "midi": 38,
          "name": "D2",
          "ticks": 19104,
          "time": 17.45613075,
          "velocity": 0.2755905511811024
        },
        {
          "duration": 0.08771924999999925,
          "durationTicks": 96,
          "midi": 57,
          "name": "A3",
          "ticks": 19104,
          "time": 17.45613075,
          "velocity": 0.2755905511811024
        },
        {
          "duration": 0.08771924999999925,
          "durationTicks": 96,
          "midi": 45,
          "name": "A2",
          "ticks": 19104,
          "time": 17.45613075,
          "velocity": 0.2755905511811024
        },
        {
          "duration": 0.0877192500000028,
          "durationTicks": 96,
          "midi": 38,
          "name": "D2",
          "ticks": 19296,
          "time": 17.63156925,
          "velocity": 0.2755905511811024
        },
        {
          "duration": 0.0877192500000028,
          "durationTicks": 96,
          "midi": 50,
          "name": "D3",
          "ticks": 19296,
          "time": 17.63156925,
          "velocity": 0.2755905511811024
        },
        {
          "duration": 0.0877192500000028,
          "durationTicks": 96,
          "midi": 45,
          "name": "A2",
          "ticks": 19296,
          "time": 17.63156925,
          "velocity": 0.2755905511811024
        },
        {
          "duration": 0.0877192500000028,
          "durationTicks": 96,
          "midi": 57,
          "name": "A3",
          "ticks": 19296,
          "time": 17.63156925,
          "velocity": 0.2755905511811024
        },
        {
          "duration": 0.08771924999999925,
          "durationTicks": 96,
          "midi": 45,
          "name": "A2",
          "ticks": 19488,
          "time": 17.80700775,
          "velocity": 0.2755905511811024
        },
        {
          "duration": 0.08771924999999925,
          "durationTicks": 96,
          "midi": 38,
          "name": "D2",
          "ticks": 19488,
          "time": 17.80700775,
          "velocity": 0.2755905511811024
        },
        {
          "duration": 0.08771924999999925,
          "durationTicks": 96,
          "midi": 57,
          "name": "A3",
          "ticks": 19488,
          "time": 17.80700775,
          "velocity": 0.2755905511811024
        },
        {
          "duration": 0.08771924999999925,
          "durationTicks": 96,
          "midi": 50,
          "name": "D3",
          "ticks": 19488,
          "time": 17.80700775,
          "velocity": 0.2755905511811024
        },
        {
          "duration": 0.08771924999999925,
          "durationTicks": 96,
          "midi": 50,
          "name": "D3",
          "ticks": 19872,
          "time": 18.15788475,
          "velocity": 0.2755905511811024
        },
        {
          "duration": 0.08771924999999925,
          "durationTicks": 96,
          "midi": 38,
          "name": "D2",
          "ticks": 19872,
          "time": 18.15788475,
          "velocity": 0.2755905511811024
        },
        {
          "duration": 0.08771924999999925,
          "durationTicks": 96,
          "midi": 45,
          "name": "A2",
          "ticks": 19872,
          "time": 18.15788475,
          "velocity": 0.2755905511811024
        },
        {
          "duration": 0.08771924999999925,
          "durationTicks": 96,
          "midi": 57,
          "name": "A3",
          "ticks": 19872,
          "time": 18.15788475,
          "velocity": 0.2755905511811024
        },
        {
          "duration": 0.08771924999999925,
          "durationTicks": 96,
          "midi": 38,
          "name": "D2",
          "ticks": 20064,
          "time": 18.33332325,
          "velocity": 0.2755905511811024
        },
        {
          "duration": 0.08771924999999925,
          "durationTicks": 96,
          "midi": 50,
          "name": "D3",
          "ticks": 20064,
          "time": 18.33332325,
          "velocity": 0.2755905511811024
        },
        {
          "duration": 0.08771924999999925,
          "durationTicks": 96,
          "midi": 57,
          "name": "A3",
          "ticks": 20064,
          "time": 18.33332325,
          "velocity": 0.2755905511811024
        },
        {
          "duration": 0.08771924999999925,
          "durationTicks": 96,
          "midi": 45,
          "name": "A2",
          "ticks": 20064,
          "time": 18.33332325,
          "velocity": 0.2755905511811024
        },
        {
          "duration": 0.08771924999999925,
          "durationTicks": 96,
          "midi": 45,
          "name": "A2",
          "ticks": 20256,
          "time": 18.50876175,
          "velocity": 0.2755905511811024
        },
        {
          "duration": 0.08771924999999925,
          "durationTicks": 96,
          "midi": 57,
          "name": "A3",
          "ticks": 20256,
          "time": 18.50876175,
          "velocity": 0.2755905511811024
        },
        {
          "duration": 0.08771924999999925,
          "durationTicks": 96,
          "midi": 38,
          "name": "D2",
          "ticks": 20256,
          "time": 18.50876175,
          "velocity": 0.2755905511811024
        },
        {
          "duration": 0.08771924999999925,
          "durationTicks": 96,
          "midi": 50,
          "name": "D3",
          "ticks": 20256,
          "time": 18.50876175,
          "velocity": 0.2755905511811024
        },
        {
          "duration": 0.0877192500000028,
          "durationTicks": 96,
          "midi": 45,
          "name": "A2",
          "ticks": 20640,
          "time": 18.85963875,
          "velocity": 0.2755905511811024
        },
        {
          "duration": 0.0877192500000028,
          "durationTicks": 96,
          "midi": 50,
          "name": "D3",
          "ticks": 20640,
          "time": 18.85963875,
          "velocity": 0.2755905511811024
        },
        {
          "duration": 0.0877192500000028,
          "durationTicks": 96,
          "midi": 57,
          "name": "A3",
          "ticks": 20640,
          "time": 18.85963875,
          "velocity": 0.2755905511811024
        },
        {
          "duration": 0.0877192500000028,
          "durationTicks": 96,
          "midi": 38,
          "name": "D2",
          "ticks": 20640,
          "time": 18.85963875,
          "velocity": 0.2755905511811024
        },
        {
          "duration": 0.08771924999999925,
          "durationTicks": 96,
          "midi": 50,
          "name": "D3",
          "ticks": 20832,
          "time": 19.03507725,
          "velocity": 0.2755905511811024
        },
        {
          "duration": 0.08771924999999925,
          "durationTicks": 96,
          "midi": 45,
          "name": "A2",
          "ticks": 20832,
          "time": 19.03507725,
          "velocity": 0.2755905511811024
        },
        {
          "duration": 0.08771924999999925,
          "durationTicks": 96,
          "midi": 57,
          "name": "A3",
          "ticks": 20832,
          "time": 19.03507725,
          "velocity": 0.2755905511811024
        },
        {
          "duration": 0.08771924999999925,
          "durationTicks": 96,
          "midi": 38,
          "name": "D2",
          "ticks": 20832,
          "time": 19.03507725,
          "velocity": 0.2755905511811024
        },
        {
          "duration": 0.08771924999999925,
          "durationTicks": 96,
          "midi": 50,
          "name": "D3",
          "ticks": 21024,
          "time": 19.21051575,
          "velocity": 0.2755905511811024
        },
        {
          "duration": 0.08771924999999925,
          "durationTicks": 96,
          "midi": 38,
          "name": "D2",
          "ticks": 21024,
          "time": 19.21051575,
          "velocity": 0.2755905511811024
        },
        {
          "duration": 0.08771924999999925,
          "durationTicks": 96,
          "midi": 57,
          "name": "A3",
          "ticks": 21024,
          "time": 19.21051575,
          "velocity": 0.2755905511811024
        },
        {
          "duration": 0.08771924999999925,
          "durationTicks": 96,
          "midi": 45,
          "name": "A2",
          "ticks": 21024,
          "time": 19.21051575,
          "velocity": 0.2755905511811024
        },
        {
          "duration": 0.08771924999999925,
          "durationTicks": 96,
          "midi": 38,
          "name": "D2",
          "ticks": 21216,
          "time": 19.38595425,
          "velocity": 0.2755905511811024
        },
        {
          "duration": 0.08771924999999925,
          "durationTicks": 96,
          "midi": 57,
          "name": "A3",
          "ticks": 21216,
          "time": 19.38595425,
          "velocity": 0.2755905511811024
        },
        {
          "duration": 0.08771924999999925,
          "durationTicks": 96,
          "midi": 45,
          "name": "A2",
          "ticks": 21216,
          "time": 19.38595425,
          "velocity": 0.2755905511811024
        },
        {
          "duration": 0.08771924999999925,
          "durationTicks": 96,
          "midi": 50,
          "name": "D3",
          "ticks": 21216,
          "time": 19.38595425,
          "velocity": 0.2755905511811024
        },
        {
          "duration": 0.0877192500000028,
          "durationTicks": 96,
          "midi": 62,
          "name": "D4",
          "ticks": 21600,
          "time": 19.736831249999998,
          "velocity": 0.2755905511811024
        },
        {
          "duration": 0.0877192500000028,
          "durationTicks": 96,
          "midi": 43,
          "name": "G2",
          "ticks": 21600,
          "time": 19.736831249999998,
          "velocity": 0.2755905511811024
        },
        {
          "duration": 0.0877192500000028,
          "durationTicks": 96,
          "midi": 55,
          "name": "G3",
          "ticks": 21600,
          "time": 19.736831249999998,
          "velocity": 0.2755905511811024
        },
        {
          "duration": 0.08771924999999925,
          "durationTicks": 96,
          "midi": 57,
          "name": "A3",
          "ticks": 22368,
          "time": 20.43858525,
          "velocity": 0.2755905511811024
        },
        {
          "duration": 0.08771924999999925,
          "durationTicks": 96,
          "midi": 65,
          "name": "F4",
          "ticks": 22368,
          "time": 20.43858525,
          "velocity": 0.2755905511811024
        },
        {
          "duration": 0.08771924999999925,
          "durationTicks": 96,
          "midi": 45,
          "name": "A2",
          "ticks": 22368,
          "time": 20.43858525,
          "velocity": 0.2755905511811024
        },
        {
          "duration": 0.08771924999999925,
          "durationTicks": 96,
          "midi": 46,
          "name": "A#2",
          "ticks": 23136,
          "time": 21.14033925,
          "velocity": 0.2755905511811024
        },
        {
          "duration": 0.08771924999999925,
          "durationTicks": 96,
          "midi": 46,
          "name": "A#2",
          "ticks": 23328,
          "time": 21.31577775,
          "velocity": 0.2755905511811024
        },
        {
          "duration": 0.17543850000000205,
          "durationTicks": 192,
          "midi": 70,
          "name": "A#4",
          "ticks": 23424,
          "time": 21.403496999999998,
          "velocity": 0.2755905511811024
        },
        {
          "duration": 0.08771924999999925,
          "durationTicks": 96,
          "midi": 45,
          "name": "A2",
          "ticks": 23520,
          "time": 21.49121625,
          "velocity": 0.2755905511811024
        },
        {
          "duration": 0.1754384999999985,
          "durationTicks": 192,
          "midi": 69,
          "name": "A4",
          "ticks": 23616,
          "time": 21.5789355,
          "velocity": 0.2755905511811024
        },
        {
          "duration": 0.08771924999999925,
          "durationTicks": 96,
          "midi": 46,
          "name": "A#2",
          "ticks": 23712,
          "time": 21.66665475,
          "velocity": 0.2755905511811024
        },
        {
          "duration": 0.17543850000000205,
          "durationTicks": 192,
          "midi": 65,
          "name": "F4",
          "ticks": 23808,
          "time": 21.754374,
          "velocity": 0.2755905511811024
        },
        {
          "duration": 0.08771924999999925,
          "durationTicks": 96,
          "midi": 48,
          "name": "C3",
          "ticks": 23904,
          "time": 21.84209325,
          "velocity": 0.2755905511811024
        },
        {
          "duration": 0.1754384999999985,
          "durationTicks": 192,
          "midi": 62,
          "name": "D4",
          "ticks": 24000,
          "time": 21.9298125,
          "velocity": 0.2755905511811024
        },
        {
          "duration": 0.08771924999999925,
          "durationTicks": 96,
          "midi": 48,
          "name": "C3",
          "ticks": 24096,
          "time": 22.01753175,
          "velocity": 0.2755905511811024
        },
        {
          "duration": 0.17543850000000205,
          "durationTicks": 192,
          "midi": 60,
          "name": "C4",
          "ticks": 24192,
          "time": 22.105251,
          "velocity": 0.2755905511811024
        },
        {
          "duration": 0.0877192500000028,
          "durationTicks": 96,
          "midi": 46,
          "name": "A#2",
          "ticks": 24288,
          "time": 22.19297025,
          "velocity": 0.2755905511811024
        },
        {
          "duration": 0.1754384999999985,
          "durationTicks": 192,
          "midi": 58,
          "name": "A#3",
          "ticks": 24384,
          "time": 22.2806895,
          "velocity": 0.2755905511811024
        },
        {
          "duration": 0.08771924999999925,
          "durationTicks": 96,
          "midi": 46,
          "name": "A#2",
          "ticks": 24480,
          "time": 22.36840875,
          "velocity": 0.2755905511811024
        },
        {
          "duration": 0.1754384999999985,
          "durationTicks": 192,
          "midi": 53,
          "name": "F3",
          "ticks": 24576,
          "time": 22.456128,
          "velocity": 0.2755905511811024
        },
        {
          "duration": 0.0877192500000028,
          "durationTicks": 96,
          "midi": 39,
          "name": "D#2",
          "ticks": 24768,
          "time": 22.631566499999998,
          "velocity": 0.2755905511811024
        },
        {
          "duration": 0.08771924999999925,
          "durationTicks": 96,
          "midi": 39,
          "name": "D#2",
          "ticks": 24960,
          "time": 22.807005,
          "velocity": 0.2755905511811024
        },
        {
          "duration": 0.08771924999999925,
          "durationTicks": 96,
          "midi": 39,
          "name": "D#2",
          "ticks": 25344,
          "time": 23.157882,
          "velocity": 0.2755905511811024
        },
        {
          "duration": 0.08771924999999925,
          "durationTicks": 96,
          "midi": 39,
          "name": "D#2",
          "ticks": 25536,
          "time": 23.3333205,
          "velocity": 0.2755905511811024
        },
        {
          "duration": 0.08771924999999925,
          "durationTicks": 96,
          "midi": 39,
          "name": "D#2",
          "ticks": 25728,
          "time": 23.508759,
          "velocity": 0.2755905511811024
        },
        {
          "duration": 0.0877192500000028,
          "durationTicks": 96,
          "midi": 39,
          "name": "D#2",
          "ticks": 26112,
          "time": 23.859636,
          "velocity": 0.2755905511811024
        },
        {
          "duration": 0.08771924999999925,
          "durationTicks": 96,
          "midi": 39,
          "name": "D#2",
          "ticks": 26304,
          "time": 24.0350745,
          "velocity": 0.2755905511811024
        },
        {
          "duration": 0.08771924999999925,
          "durationTicks": 96,
          "midi": 39,
          "name": "D#2",
          "ticks": 26496,
          "time": 24.210513,
          "velocity": 0.2755905511811024
        },
        {
          "duration": 0.08771924999999925,
          "durationTicks": 96,
          "midi": 39,
          "name": "D#2",
          "ticks": 26880,
          "time": 24.56139,
          "velocity": 0.2755905511811024
        },
        {
          "duration": 0.0877192500000028,
          "durationTicks": 96,
          "midi": 39,
          "name": "D#2",
          "ticks": 27072,
          "time": 24.736828499999998,
          "velocity": 0.2755905511811024
        },
        {
          "duration": 0.08771924999999925,
          "durationTicks": 96,
          "midi": 39,
          "name": "D#2",
          "ticks": 27264,
          "time": 24.912267,
          "velocity": 0.2755905511811024
        },
        {
          "duration": 0.0877192500000028,
          "durationTicks": 96,
          "midi": 39,
          "name": "D#2",
          "ticks": 27456,
          "time": 25.0877055,
          "velocity": 0.2755905511811024
        },
        {
          "duration": 0.08771924999999925,
          "durationTicks": 96,
          "midi": 41,
          "name": "F2",
          "ticks": 27648,
          "time": 25.263144,
          "velocity": 0.2755905511811024
        },
        {
          "duration": 0.08771924999999925,
          "durationTicks": 96,
          "midi": 39,
          "name": "D#2",
          "ticks": 27840,
          "time": 25.4385825,
          "velocity": 0.2755905511811024
        },
        {
          "duration": 0.08771924999999925,
          "durationTicks": 96,
          "midi": 39,
          "name": "D#2",
          "ticks": 28032,
          "time": 25.614021,
          "velocity": 0.2755905511811024
        },
        {
          "duration": 0.0877192500000028,
          "durationTicks": 96,
          "midi": 39,
          "name": "D#2",
          "ticks": 28416,
          "time": 25.964897999999998,
          "velocity": 0.2755905511811024
        },
        {
          "duration": 0.08771924999999925,
          "durationTicks": 96,
          "midi": 39,
          "name": "D#2",
          "ticks": 28608,
          "time": 26.1403365,
          "velocity": 0.2755905511811024
        },
        {
          "duration": 0.08771924999999925,
          "durationTicks": 96,
          "midi": 39,
          "name": "D#2",
          "ticks": 28800,
          "time": 26.315775,
          "velocity": 0.2755905511811024
        },
        {
          "duration": 0.08771924999999925,
          "durationTicks": 96,
          "midi": 39,
          "name": "D#2",
          "ticks": 29184,
          "time": 26.666652,
          "velocity": 0.2755905511811024
        },
        {
          "duration": 0.08771924999999925,
          "durationTicks": 96,
          "midi": 39,
          "name": "D#2",
          "ticks": 29376,
          "time": 26.8420905,
          "velocity": 0.2755905511811024
        },
        {
          "duration": 0.08771924999999925,
          "durationTicks": 96,
          "midi": 39,
          "name": "D#2",
          "ticks": 29568,
          "time": 27.017529,
          "velocity": 0.2755905511811024
        },
        {
          "duration": 0.08771924999999925,
          "durationTicks": 96,
          "midi": 39,
          "name": "D#2",
          "ticks": 29952,
          "time": 27.368406,
          "velocity": 0.2755905511811024
        },
        {
          "duration": 0.08771924999999925,
          "durationTicks": 96,
          "midi": 39,
          "name": "D#2",
          "ticks": 30144,
          "time": 27.5438445,
          "velocity": 0.2755905511811024
        },
        {
          "duration": 0.08771924999999925,
          "durationTicks": 96,
          "midi": 39,
          "name": "D#2",
          "ticks": 30336,
          "time": 27.719283,
          "velocity": 0.2755905511811024
        },
        {
          "duration": 0.08771924999999925,
          "durationTicks": 96,
          "midi": 39,
          "name": "D#2",
          "ticks": 30528,
          "time": 27.8947215,
          "velocity": 0.2755905511811024
        },
        {
          "duration": 0.08771924999999925,
          "durationTicks": 96,
          "midi": 41,
          "name": "F2",
          "ticks": 30720,
          "time": 28.07016,
          "velocity": 0.2755905511811024
        },
        {
          "duration": 0.08771924999999925,
          "durationTicks": 96,
          "midi": 38,
          "name": "D2",
          "ticks": 30912,
          "time": 28.2455985,
          "velocity": 0.2755905511811024
        },
        {
          "duration": 0.6140347499999983,
          "durationTicks": 672,
          "midi": 45,
          "name": "A2",
          "ticks": 30912,
          "time": 28.2455985,
          "velocity": 0.2755905511811024
        },
        {
          "duration": 0.0877192500000028,
          "durationTicks": 96,
          "midi": 38,
          "name": "D2",
          "ticks": 31104,
          "time": 28.421037,
          "velocity": 0.2755905511811024
        },
        {
          "duration": 0.08771924999999925,
          "durationTicks": 96,
          "midi": 38,
          "name": "D2",
          "ticks": 31488,
          "time": 28.771914,
          "velocity": 0.2755905511811024
        },
        {
          "duration": 0.7017540000000011,
          "durationTicks": 768,
          "midi": 50,
          "name": "D3",
          "ticks": 31584,
          "time": 28.859633249999998,
          "velocity": 0.2755905511811024
        },
        {
          "duration": 0.08771924999999925,
          "durationTicks": 96,
          "midi": 38,
          "name": "D2",
          "ticks": 31680,
          "time": 28.9473525,
          "velocity": 0.2755905511811024
        },
        {
          "duration": 0.08771924999999925,
          "durationTicks": 96,
          "midi": 38,
          "name": "D2",
          "ticks": 31872,
          "time": 29.122791,
          "velocity": 0.2755905511811024
        },
        {
          "duration": 0.08771924999999925,
          "durationTicks": 96,
          "midi": 38,
          "name": "D2",
          "ticks": 32256,
          "time": 29.473668,
          "velocity": 0.2755905511811024
        },
        {
          "duration": 0.0877192500000028,
          "durationTicks": 96,
          "midi": 53,
          "name": "F3",
          "ticks": 32448,
          "time": 29.6491065,
          "velocity": 0.2755905511811024
        },
        {
          "duration": 0.0877192500000028,
          "durationTicks": 96,
          "midi": 38,
          "name": "D2",
          "ticks": 32448,
          "time": 29.6491065,
          "velocity": 0.2755905511811024
        },
        {
          "duration": 0.08771924999999925,
          "durationTicks": 96,
          "midi": 53,
          "name": "F3",
          "ticks": 32544,
          "time": 29.73682575,
          "velocity": 0.2755905511811024
        },
        {
          "duration": 0.08771924999999925,
          "durationTicks": 96,
          "midi": 38,
          "name": "D2",
          "ticks": 32640,
          "time": 29.824545,
          "velocity": 0.2755905511811024
        },
        {
          "duration": 0.08771924999999925,
          "durationTicks": 96,
          "midi": 53,
          "name": "F3",
          "ticks": 32640,
          "time": 29.824545,
          "velocity": 0.2755905511811024
        },
        {
          "duration": 0.08771924999999925,
          "durationTicks": 96,
          "midi": 53,
          "name": "F3",
          "ticks": 32736,
          "time": 29.91226425,
          "velocity": 0.2755905511811024
        },
        {
          "duration": 0.08771924999999925,
          "durationTicks": 96,
          "midi": 53,
          "name": "F3",
          "ticks": 32832,
          "time": 29.9999835,
          "velocity": 0.2755905511811024
        },
        {
          "duration": 0.0877192500000028,
          "durationTicks": 96,
          "midi": 53,
          "name": "F3",
          "ticks": 32928,
          "time": 30.08770275,
          "velocity": 0.2755905511811024
        },
        {
          "duration": 0.08771924999999925,
          "durationTicks": 96,
          "midi": 38,
          "name": "D2",
          "ticks": 33024,
          "time": 30.175422,
          "velocity": 0.2755905511811024
        },
        {
          "duration": 0.08771924999999925,
          "durationTicks": 96,
          "midi": 53,
          "name": "F3",
          "ticks": 33024,
          "time": 30.175422,
          "velocity": 0.2755905511811024
        },
        {
          "duration": 0.08771924999999925,
          "durationTicks": 96,
          "midi": 53,
          "name": "F3",
          "ticks": 33120,
          "time": 30.26314125,
          "velocity": 0.2755905511811024
        },
        {
          "duration": 0.08771924999999925,
          "durationTicks": 96,
          "midi": 53,
          "name": "F3",
          "ticks": 33216,
          "time": 30.3508605,
          "velocity": 0.2755905511811024
        },
        {
          "duration": 0.08771924999999925,
          "durationTicks": 96,
          "midi": 38,
          "name": "D2",
          "ticks": 33216,
          "time": 30.3508605,
          "velocity": 0.2755905511811024
        },
        {
          "duration": 0.08771924999999925,
          "durationTicks": 96,
          "midi": 53,
          "name": "F3",
          "ticks": 33312,
          "time": 30.43857975,
          "velocity": 0.2755905511811024
        },
        {
          "duration": 0.0877192500000028,
          "durationTicks": 96,
          "midi": 38,
          "name": "D2",
          "ticks": 33408,
          "time": 30.526298999999998,
          "velocity": 0.2755905511811024
        },
        {
          "duration": 0.0877192500000028,
          "durationTicks": 96,
          "midi": 53,
          "name": "F3",
          "ticks": 33408,
          "time": 30.526298999999998,
          "velocity": 0.2755905511811024
        },
        {
          "duration": 0.08771924999999925,
          "durationTicks": 96,
          "midi": 55,
          "name": "G3",
          "ticks": 33600,
          "time": 30.7017375,
          "velocity": 0.2755905511811024
        },
        {
          "duration": 0.08771924999999925,
          "durationTicks": 96,
          "midi": 38,
          "name": "D2",
          "ticks": 33600,
          "time": 30.7017375,
          "velocity": 0.2755905511811024
        },
        {
          "duration": 0.08771924999999925,
          "durationTicks": 96,
          "midi": 55,
          "name": "G3",
          "ticks": 33696,
          "time": 30.78945675,
          "velocity": 0.2755905511811024
        },
        {
          "duration": 0.08771924999999925,
          "durationTicks": 96,
          "midi": 55,
          "name": "G3",
          "ticks": 33792,
          "time": 30.877176,
          "velocity": 0.2755905511811024
        },
        {
          "duration": 0.08771924999999925,
          "durationTicks": 96,
          "midi": 41,
          "name": "F2",
          "ticks": 33792,
          "time": 30.877176,
          "velocity": 0.2755905511811024
        },
        {
          "duration": 0.0877192500000028,
          "durationTicks": 96,
          "midi": 55,
          "name": "G3",
          "ticks": 33888,
          "time": 30.964895249999998,
          "velocity": 0.2755905511811024
        },
        {
          "duration": 0.08771924999999925,
          "durationTicks": 96,
          "midi": 53,
          "name": "F3",
          "ticks": 33984,
          "time": 31.0526145,
          "velocity": 0.2755905511811024
        },
        {
          "duration": 0.08771924999999925,
          "durationTicks": 96,
          "midi": 43,
          "name": "G2",
          "ticks": 33984,
          "time": 31.0526145,
          "velocity": 0.2755905511811024
        },
        {
          "duration": 0.08771924999999925,
          "durationTicks": 96,
          "midi": 53,
          "name": "F3",
          "ticks": 34080,
          "time": 31.14033375,
          "velocity": 0.2755905511811024
        },
        {
          "duration": 0.08771924999999925,
          "durationTicks": 96,
          "midi": 53,
          "name": "F3",
          "ticks": 34176,
          "time": 31.228053,
          "velocity": 0.2755905511811024
        },
        {
          "duration": 0.0877192500000028,
          "durationTicks": 96,
          "midi": 53,
          "name": "F3",
          "ticks": 34272,
          "time": 31.31577225,
          "velocity": 0.2755905511811024
        },
        {
          "duration": 0.08771924999999925,
          "durationTicks": 96,
          "midi": 53,
          "name": "F3",
          "ticks": 34368,
          "time": 31.4034915,
          "velocity": 0.2755905511811024
        },
        {
          "duration": 0.08771924999999925,
          "durationTicks": 96,
          "midi": 43,
          "name": "G2",
          "ticks": 34368,
          "time": 31.4034915,
          "velocity": 0.2755905511811024
        },
        {
          "duration": 0.08771924999999925,
          "durationTicks": 96,
          "midi": 53,
          "name": "F3",
          "ticks": 34464,
          "time": 31.49121075,
          "velocity": 0.2755905511811024
        },
        {
          "duration": 0.08771924999999925,
          "durationTicks": 96,
          "midi": 45,
          "name": "A2",
          "ticks": 34560,
          "time": 31.57893,
          "velocity": 0.2755905511811024
        },
        {
          "duration": 0.08771924999999925,
          "durationTicks": 96,
          "midi": 53,
          "name": "F3",
          "ticks": 34560,
          "time": 31.57893,
          "velocity": 0.2755905511811024
        },
        {
          "duration": 0.08771924999999925,
          "durationTicks": 96,
          "midi": 53,
          "name": "F3",
          "ticks": 34656,
          "time": 31.66664925,
          "velocity": 0.2755905511811024
        },
        {
          "duration": 0.0877192500000028,
          "durationTicks": 96,
          "midi": 45,
          "name": "A2",
          "ticks": 34752,
          "time": 31.754368499999998,
          "velocity": 0.2755905511811024
        },
        {
          "duration": 0.0877192500000028,
          "durationTicks": 96,
          "midi": 48,
          "name": "C3",
          "ticks": 34752,
          "time": 31.754368499999998,
          "velocity": 0.2755905511811024
        },
        {
          "duration": 0.08771924999999925,
          "durationTicks": 96,
          "midi": 48,
          "name": "C3",
          "ticks": 34848,
          "time": 31.84208775,
          "velocity": 0.2755905511811024
        },
        {
          "duration": 0.0877192499999957,
          "durationTicks": 96,
          "midi": 48,
          "name": "C3",
          "ticks": 34944,
          "time": 31.929807,
          "velocity": 0.2755905511811024
        },
        {
          "duration": 0.08771925000000635,
          "durationTicks": 96,
          "midi": 48,
          "name": "C3",
          "ticks": 35040,
          "time": 32.017526249999996,
          "velocity": 0.2755905511811024
        },
        {
          "duration": 0.08771924999999925,
          "durationTicks": 96,
          "midi": 45,
          "name": "A2",
          "ticks": 35136,
          "time": 32.1052455,
          "velocity": 0.2755905511811024
        },
        {
          "duration": 0.08771924999999925,
          "durationTicks": 96,
          "midi": 48,
          "name": "C3",
          "ticks": 35136,
          "time": 32.1052455,
          "velocity": 0.2755905511811024
        },
        {
          "duration": 0.08771924999999925,
          "durationTicks": 96,
          "midi": 48,
          "name": "C3",
          "ticks": 35232,
          "time": 32.19296475,
          "velocity": 0.2755905511811024
        },
        {
          "duration": 0.08771924999999925,
          "durationTicks": 96,
          "midi": 48,
          "name": "C3",
          "ticks": 35328,
          "time": 32.280684,
          "velocity": 0.2755905511811024
        },
        {
          "duration": 0.08771924999999925,
          "durationTicks": 96,
          "midi": 45,
          "name": "A2",
          "ticks": 35328,
          "time": 32.280684,
          "velocity": 0.2755905511811024
        },
        {
          "duration": 0.08771924999999925,
          "durationTicks": 96,
          "midi": 48,
          "name": "C3",
          "ticks": 35424,
          "time": 32.36840325,
          "velocity": 0.2755905511811024
        },
        {
          "duration": 0.08771924999999925,
          "durationTicks": 96,
          "midi": 46,
          "name": "A#2",
          "ticks": 35520,
          "time": 32.4561225,
          "velocity": 0.2755905511811024
        },
        {
          "duration": 0.08771924999999925,
          "durationTicks": 96,
          "midi": 46,
          "name": "A#2",
          "ticks": 35520,
          "time": 32.4561225,
          "velocity": 0.2755905511811024
        },
        {
          "duration": 0.08771924999999925,
          "durationTicks": 96,
          "midi": 46,
          "name": "A#2",
          "ticks": 35616,
          "time": 32.54384175,
          "velocity": 0.2755905511811024
        },
        {
          "duration": 0.08771924999999925,
          "durationTicks": 96,
          "midi": 45,
          "name": "A2",
          "ticks": 35712,
          "time": 32.631561,
          "velocity": 0.2755905511811024
        },
        {
          "duration": 0.08771924999999925,
          "durationTicks": 96,
          "midi": 46,
          "name": "A#2",
          "ticks": 35712,
          "time": 32.631561,
          "velocity": 0.2755905511811024
        },
        {
          "duration": 0.08771924999999925,
          "durationTicks": 96,
          "midi": 46,
          "name": "A#2",
          "ticks": 35808,
          "time": 32.71928025,
          "velocity": 0.2755905511811024
        },
        {
          "duration": 0.08771925000000635,
          "durationTicks": 96,
          "midi": 46,
          "name": "A#2",
          "ticks": 35904,
          "time": 32.806999499999996,
          "velocity": 0.2755905511811024
        },
        {
          "duration": 0.08771925000000635,
          "durationTicks": 96,
          "midi": 45,
          "name": "A2",
          "ticks": 35904,
          "time": 32.806999499999996,
          "velocity": 0.2755905511811024
        },
        {
          "duration": 0.08771924999999925,
          "durationTicks": 96,
          "midi": 46,
          "name": "A#2",
          "ticks": 36000,
          "time": 32.89471875,
          "velocity": 0.2755905511811024
        },
        {
          "duration": 0.08771924999999925,
          "durationTicks": 96,
          "midi": 46,
          "name": "A#2",
          "ticks": 36096,
          "time": 32.982438,
          "velocity": 0.2755905511811024
        },
        {
          "duration": 0.08771924999999925,
          "durationTicks": 96,
          "midi": 46,
          "name": "A#2",
          "ticks": 36096,
          "time": 32.982438,
          "velocity": 0.2755905511811024
        },
        {
          "duration": 0.08771924999999925,
          "durationTicks": 96,
          "midi": 46,
          "name": "A#2",
          "ticks": 36192,
          "time": 33.07015725,
          "velocity": 0.2755905511811024
        },
        {
          "duration": 0.08771924999999925,
          "durationTicks": 96,
          "midi": 43,
          "name": "G2",
          "ticks": 36288,
          "time": 33.1578765,
          "velocity": 0.2755905511811024
        },
        {
          "duration": 0.08771924999999925,
          "durationTicks": 96,
          "midi": 46,
          "name": "A#2",
          "ticks": 36480,
          "time": 33.333315,
          "velocity": 0.2755905511811024
        },
        {
          "duration": 0.08771924999999925,
          "durationTicks": 96,
          "midi": 43,
          "name": "G2",
          "ticks": 36672,
          "time": 33.5087535,
          "velocity": 0.2755905511811024
        },
        {
          "duration": 0.08771924999999925,
          "durationTicks": 96,
          "midi": 46,
          "name": "A#2",
          "ticks": 36672,
          "time": 33.5087535,
          "velocity": 0.2755905511811024
        },
        {
          "duration": 0.08771924999999925,
          "durationTicks": 96,
          "midi": 39,
          "name": "D#2",
          "ticks": 37056,
          "time": 33.8596305,
          "velocity": 0.2755905511811024
        },
        {
          "duration": 0.08771924999999925,
          "durationTicks": 96,
          "midi": 39,
          "name": "D#2",
          "ticks": 37248,
          "time": 34.035069,
          "velocity": 0.2755905511811024
        },
        {
          "duration": 0.08771924999999925,
          "durationTicks": 96,
          "midi": 39,
          "name": "D#2",
          "ticks": 37632,
          "time": 34.385946,
          "velocity": 0.2755905511811024
        },
        {
          "duration": 0.08771924999999925,
          "durationTicks": 96,
          "midi": 39,
          "name": "D#2",
          "ticks": 37824,
          "time": 34.5613845,
          "velocity": 0.2755905511811024
        },
        {
          "duration": 0.08771924999999925,
          "durationTicks": 96,
          "midi": 39,
          "name": "D#2",
          "ticks": 38016,
          "time": 34.736823,
          "velocity": 0.2755905511811024
        },
        {
          "duration": 0.08771924999999925,
          "durationTicks": 96,
          "midi": 39,
          "name": "D#2",
          "ticks": 38400,
          "time": 35.0877,
          "velocity": 0.2755905511811024
        },
        {
          "duration": 0.08771925000000635,
          "durationTicks": 96,
          "midi": 39,
          "name": "D#2",
          "ticks": 38592,
          "time": 35.2631385,
          "velocity": 0.2755905511811024
        },
        {
          "duration": 0.08771924999999925,
          "durationTicks": 96,
          "midi": 39,
          "name": "D#2",
          "ticks": 38784,
          "time": 35.438577,
          "velocity": 0.2755905511811024
        },
        {
          "duration": 0.08771924999999925,
          "durationTicks": 96,
          "midi": 39,
          "name": "D#2",
          "ticks": 39168,
          "time": 35.789454,
          "velocity": 0.2755905511811024
        },
        {
          "duration": 0.08771924999999925,
          "durationTicks": 96,
          "midi": 39,
          "name": "D#2",
          "ticks": 39360,
          "time": 35.9648925,
          "velocity": 0.2755905511811024
        },
        {
          "duration": 0.08771925000000635,
          "durationTicks": 96,
          "midi": 39,
          "name": "D#2",
          "ticks": 39552,
          "time": 36.140330999999996,
          "velocity": 0.2755905511811024
        },
        {
          "duration": 0.08771924999999925,
          "durationTicks": 96,
          "midi": 39,
          "name": "D#2",
          "ticks": 39744,
          "time": 36.3157695,
          "velocity": 0.2755905511811024
        },
        {
          "duration": 0.08771924999999925,
          "durationTicks": 96,
          "midi": 41,
          "name": "F2",
          "ticks": 39936,
          "time": 36.491208,
          "velocity": 0.2755905511811024
        },
        {
          "duration": 0.08771924999999925,
          "durationTicks": 96,
          "midi": 39,
          "name": "D#2",
          "ticks": 40128,
          "time": 36.6666465,
          "velocity": 0.2755905511811024
        },
        {
          "duration": 0.08771924999999925,
          "durationTicks": 96,
          "midi": 39,
          "name": "D#2",
          "ticks": 40320,
          "time": 36.842085,
          "velocity": 0.2755905511811024
        },
        {
          "duration": 0.08771924999999925,
          "durationTicks": 96,
          "midi": 39,
          "name": "D#2",
          "ticks": 40704,
          "time": 37.192962,
          "velocity": 0.2755905511811024
        },
        {
          "duration": 0.08771924999999925,
          "durationTicks": 96,
          "midi": 39,
          "name": "D#2",
          "ticks": 40896,
          "time": 37.3684005,
          "velocity": 0.2755905511811024
        },
        {
          "duration": 0.08771924999999925,
          "durationTicks": 96,
          "midi": 39,
          "name": "D#2",
          "ticks": 41088,
          "time": 37.543839,
          "velocity": 0.2755905511811024
        },
        {
          "duration": 0.08771924999999925,
          "durationTicks": 96,
          "midi": 39,
          "name": "D#2",
          "ticks": 41472,
          "time": 37.894716,
          "velocity": 0.2755905511811024
        },
        {
          "duration": 0.08771924999999925,
          "durationTicks": 96,
          "midi": 39,
          "name": "D#2",
          "ticks": 41664,
          "time": 38.0701545,
          "velocity": 0.2755905511811024
        },
        {
          "duration": 0.08771924999999925,
          "durationTicks": 96,
          "midi": 39,
          "name": "D#2",
          "ticks": 41856,
          "time": 38.245593,
          "velocity": 0.2755905511811024
        },
        {
          "duration": 0.08771925000000635,
          "durationTicks": 96,
          "midi": 39,
          "name": "D#2",
          "ticks": 42240,
          "time": 38.59647,
          "velocity": 0.2755905511811024
        },
        {
          "duration": 0.08771924999999925,
          "durationTicks": 96,
          "midi": 39,
          "name": "D#2",
          "ticks": 42432,
          "time": 38.7719085,
          "velocity": 0.2755905511811024
        },
        {
          "duration": 0.08771924999999925,
          "durationTicks": 96,
          "midi": 39,
          "name": "D#2",
          "ticks": 42624,
          "time": 38.947347,
          "velocity": 0.2755905511811024
        },
        {
          "duration": 0.08771924999999925,
          "durationTicks": 96,
          "midi": 39,
          "name": "D#2",
          "ticks": 42816,
          "time": 39.1227855,
          "velocity": 0.2755905511811024
        },
        {
          "duration": 0.08771924999999925,
          "durationTicks": 96,
          "midi": 41,
          "name": "F2",
          "ticks": 43008,
          "time": 39.298224,
          "velocity": 0.2755905511811024
        },
        {
          "duration": 0.08771925000000635,
          "durationTicks": 96,
          "midi": 45,
          "name": "A2",
          "ticks": 43200,
          "time": 39.473662499999996,
          "velocity": 0.2755905511811024
        },
        {
          "duration": 0.08771925000000635,
          "durationTicks": 96,
          "midi": 38,
          "name": "D2",
          "ticks": 43200,
          "time": 39.473662499999996,
          "velocity": 0.2755905511811024
        },
        {
          "duration": 0.08771924999999925,
          "durationTicks": 96,
          "midi": 45,
          "name": "A2",
          "ticks": 43296,
          "time": 39.56138175,
          "velocity": 0.2755905511811024
        },
        {
          "duration": 0.08771924999999925,
          "durationTicks": 96,
          "midi": 45,
          "name": "A2",
          "ticks": 43392,
          "time": 39.649101,
          "velocity": 0.2755905511811024
        },
        {
          "duration": 0.08771924999999925,
          "durationTicks": 96,
          "midi": 38,
          "name": "D2",
          "ticks": 43392,
          "time": 39.649101,
          "velocity": 0.2755905511811024
        },
        {
          "duration": 0.08771924999999925,
          "durationTicks": 96,
          "midi": 45,
          "name": "A2",
          "ticks": 43488,
          "time": 39.73682025,
          "velocity": 0.2755905511811024
        },
        {
          "duration": 0.08771924999999925,
          "durationTicks": 96,
          "midi": 45,
          "name": "A2",
          "ticks": 43584,
          "time": 39.8245395,
          "velocity": 0.2755905511811024
        },
        {
          "duration": 0.08771924999999925,
          "durationTicks": 96,
          "midi": 45,
          "name": "A2",
          "ticks": 43680,
          "time": 39.91225875,
          "velocity": 0.2755905511811024
        },
        {
          "duration": 0.08771924999999925,
          "durationTicks": 96,
          "midi": 38,
          "name": "D2",
          "ticks": 43776,
          "time": 39.999978,
          "velocity": 0.2755905511811024
        },
        {
          "duration": 0.08771924999999925,
          "durationTicks": 96,
          "midi": 45,
          "name": "A2",
          "ticks": 43776,
          "time": 39.999978,
          "velocity": 0.2755905511811024
        },
        {
          "duration": 0.08771924999999925,
          "durationTicks": 96,
          "midi": 50,
          "name": "D3",
          "ticks": 43872,
          "time": 40.08769725,
          "velocity": 0.2755905511811024
        },
        {
          "duration": 0.08771924999999925,
          "durationTicks": 96,
          "midi": 45,
          "name": "A2",
          "ticks": 43872,
          "time": 40.08769725,
          "velocity": 0.2755905511811024
        },
        {
          "duration": 0.08771924999999925,
          "durationTicks": 96,
          "midi": 38,
          "name": "D2",
          "ticks": 43968,
          "time": 40.1754165,
          "velocity": 0.2755905511811024
        },
        {
          "duration": 0.08771924999999925,
          "durationTicks": 96,
          "midi": 50,
          "name": "D3",
          "ticks": 43968,
          "time": 40.1754165,
          "velocity": 0.2755905511811024
        },
        {
          "duration": 0.08771924999999925,
          "durationTicks": 96,
          "midi": 45,
          "name": "A2",
          "ticks": 43968,
          "time": 40.1754165,
          "velocity": 0.2755905511811024
        },
        {
          "duration": 0.08771925000000635,
          "durationTicks": 96,
          "midi": 50,
          "name": "D3",
          "ticks": 44064,
          "time": 40.26313575,
          "velocity": 0.2755905511811024
        },
        {
          "duration": 0.08771925000000635,
          "durationTicks": 96,
          "midi": 45,
          "name": "A2",
          "ticks": 44064,
          "time": 40.26313575,
          "velocity": 0.2755905511811024
        },
        {
          "duration": 0.08771924999999925,
          "durationTicks": 96,
          "midi": 45,
          "name": "A2",
          "ticks": 44160,
          "time": 40.350855,
          "velocity": 0.2755905511811024
        },
        {
          "duration": 0.08771924999999925,
          "durationTicks": 96,
          "midi": 38,
          "name": "D2",
          "ticks": 44160,
          "time": 40.350855,
          "velocity": 0.2755905511811024
        },
        {
          "duration": 0.08771924999999925,
          "durationTicks": 96,
          "midi": 50,
          "name": "D3",
          "ticks": 44160,
          "time": 40.350855,
          "velocity": 0.2755905511811024
        },
        {
          "duration": 0.08771924999999925,
          "durationTicks": 96,
          "midi": 50,
          "name": "D3",
          "ticks": 44256,
          "time": 40.43857425,
          "velocity": 0.2755905511811024
        },
        {
          "duration": 0.08771924999999925,
          "durationTicks": 96,
          "midi": 45,
          "name": "A2",
          "ticks": 44256,
          "time": 40.43857425,
          "velocity": 0.2755905511811024
        },
        {
          "duration": 0.08771924999999925,
          "durationTicks": 96,
          "midi": 45,
          "name": "A2",
          "ticks": 44352,
          "time": 40.5262935,
          "velocity": 0.2755905511811024
        },
        {
          "duration": 0.08771924999999925,
          "durationTicks": 96,
          "midi": 50,
          "name": "D3",
          "ticks": 44352,
          "time": 40.5262935,
          "velocity": 0.2755905511811024
        },
        {
          "duration": 0.08771924999999925,
          "durationTicks": 96,
          "midi": 45,
          "name": "A2",
          "ticks": 44448,
          "time": 40.61401275,
          "velocity": 0.2755905511811024
        },
        {
          "duration": 0.08771924999999925,
          "durationTicks": 96,
          "midi": 50,
          "name": "D3",
          "ticks": 44448,
          "time": 40.61401275,
          "velocity": 0.2755905511811024
        },
        {
          "duration": 0.08771924999999925,
          "durationTicks": 96,
          "midi": 38,
          "name": "D2",
          "ticks": 44544,
          "time": 40.701732,
          "velocity": 0.2755905511811024
        },
        {
          "duration": 0.08771924999999925,
          "durationTicks": 96,
          "midi": 50,
          "name": "D3",
          "ticks": 44544,
          "time": 40.701732,
          "velocity": 0.2755905511811024
        },
        {
          "duration": 0.08771924999999925,
          "durationTicks": 96,
          "midi": 45,
          "name": "A2",
          "ticks": 44544,
          "time": 40.701732,
          "velocity": 0.2755905511811024
        },
        {
          "duration": 0.08771924999999925,
          "durationTicks": 96,
          "midi": 45,
          "name": "A2",
          "ticks": 44640,
          "time": 40.78945125,
          "velocity": 0.2755905511811024
        },
        {
          "duration": 0.08771924999999925,
          "durationTicks": 96,
          "midi": 53,
          "name": "F3",
          "ticks": 44736,
          "time": 40.8771705,
          "velocity": 0.2755905511811024
        },
        {
          "duration": 0.08771924999999925,
          "durationTicks": 96,
          "midi": 38,
          "name": "D2",
          "ticks": 44736,
          "time": 40.8771705,
          "velocity": 0.2755905511811024
        },
        {
          "duration": 0.08771924999999925,
          "durationTicks": 96,
          "midi": 53,
          "name": "F3",
          "ticks": 44832,
          "time": 40.96488975,
          "velocity": 0.2755905511811024
        },
        {
          "duration": 0.08771924999999925,
          "durationTicks": 96,
          "midi": 53,
          "name": "F3",
          "ticks": 44928,
          "time": 41.052609,
          "velocity": 0.2755905511811024
        },
        {
          "duration": 0.08771924999999925,
          "durationTicks": 96,
          "midi": 38,
          "name": "D2",
          "ticks": 44928,
          "time": 41.052609,
          "velocity": 0.2755905511811024
        },
        {
          "duration": 0.08771925000000635,
          "durationTicks": 96,
          "midi": 53,
          "name": "F3",
          "ticks": 45024,
          "time": 41.140328249999996,
          "velocity": 0.2755905511811024
        },
        {
          "duration": 0.08771924999999925,
          "durationTicks": 96,
          "midi": 53,
          "name": "F3",
          "ticks": 45120,
          "time": 41.2280475,
          "velocity": 0.2755905511811024
        },
        {
          "duration": 0.08771924999999925,
          "durationTicks": 96,
          "midi": 53,
          "name": "F3",
          "ticks": 45216,
          "time": 41.31576675,
          "velocity": 0.2755905511811024
        },
        {
          "duration": 0.08771924999999925,
          "durationTicks": 96,
          "midi": 38,
          "name": "D2",
          "ticks": 45312,
          "time": 41.403486,
          "velocity": 0.2755905511811024
        },
        {
          "duration": 0.08771924999999925,
          "durationTicks": 96,
          "midi": 53,
          "name": "F3",
          "ticks": 45312,
          "time": 41.403486,
          "velocity": 0.2755905511811024
        },
        {
          "duration": 0.08771924999999925,
          "durationTicks": 96,
          "midi": 53,
          "name": "F3",
          "ticks": 45408,
          "time": 41.49120525,
          "velocity": 0.2755905511811024
        },
        {
          "duration": 0.08771924999999925,
          "durationTicks": 96,
          "midi": 38,
          "name": "D2",
          "ticks": 45504,
          "time": 41.5789245,
          "velocity": 0.2755905511811024
        },
        {
          "duration": 0.08771924999999925,
          "durationTicks": 96,
          "midi": 53,
          "name": "F3",
          "ticks": 45504,
          "time": 41.5789245,
          "velocity": 0.2755905511811024
        },
        {
          "duration": 0.08771924999999925,
          "durationTicks": 96,
          "midi": 53,
          "name": "F3",
          "ticks": 45600,
          "time": 41.66664375,
          "velocity": 0.2755905511811024
        },
        {
          "duration": 0.08771924999999925,
          "durationTicks": 96,
          "midi": 53,
          "name": "F3",
          "ticks": 45696,
          "time": 41.754363,
          "velocity": 0.2755905511811024
        },
        {
          "duration": 0.08771924999999925,
          "durationTicks": 96,
          "midi": 38,
          "name": "D2",
          "ticks": 45696,
          "time": 41.754363,
          "velocity": 0.2755905511811024
        },
        {
          "duration": 0.08771925000000635,
          "durationTicks": 96,
          "midi": 38,
          "name": "D2",
          "ticks": 45888,
          "time": 41.929801499999996,
          "velocity": 0.2755905511811024
        },
        {
          "duration": 0.08771925000000635,
          "durationTicks": 96,
          "midi": 55,
          "name": "G3",
          "ticks": 45888,
          "time": 41.929801499999996,
          "velocity": 0.2755905511811024
        },
        {
          "duration": 0.08771924999999925,
          "durationTicks": 96,
          "midi": 55,
          "name": "G3",
          "ticks": 45984,
          "time": 42.01752075,
          "velocity": 0.2755905511811024
        },
        {
          "duration": 0.08771924999999925,
          "durationTicks": 96,
          "midi": 55,
          "name": "G3",
          "ticks": 46080,
          "time": 42.10524,
          "velocity": 0.2755905511811024
        },
        {
          "duration": 0.08771924999999925,
          "durationTicks": 96,
          "midi": 41,
          "name": "F2",
          "ticks": 46080,
          "time": 42.10524,
          "velocity": 0.2755905511811024
        },
        {
          "duration": 0.08771924999999925,
          "durationTicks": 96,
          "midi": 55,
          "name": "G3",
          "ticks": 46176,
          "time": 42.19295925,
          "velocity": 0.2755905511811024
        },
        {
          "duration": 0.08771924999999925,
          "durationTicks": 96,
          "midi": 53,
          "name": "F3",
          "ticks": 46272,
          "time": 42.2806785,
          "velocity": 0.2755905511811024
        },
        {
          "duration": 0.08771924999999925,
          "durationTicks": 96,
          "midi": 43,
          "name": "G2",
          "ticks": 46272,
          "time": 42.2806785,
          "velocity": 0.2755905511811024
        },
        {
          "duration": 0.08771924999999925,
          "durationTicks": 96,
          "midi": 53,
          "name": "F3",
          "ticks": 46368,
          "time": 42.36839775,
          "velocity": 0.2755905511811024
        },
        {
          "duration": 0.08771924999999925,
          "durationTicks": 96,
          "midi": 53,
          "name": "F3",
          "ticks": 46464,
          "time": 42.456117,
          "velocity": 0.2755905511811024
        },
        {
          "duration": 0.08771924999999925,
          "durationTicks": 96,
          "midi": 53,
          "name": "F3",
          "ticks": 46560,
          "time": 42.54383625,
          "velocity": 0.2755905511811024
        },
        {
          "duration": 0.08771924999999925,
          "durationTicks": 96,
          "midi": 43,
          "name": "G2",
          "ticks": 46656,
          "time": 42.6315555,
          "velocity": 0.2755905511811024
        },
        {
          "duration": 0.08771924999999925,
          "durationTicks": 96,
          "midi": 53,
          "name": "F3",
          "ticks": 46656,
          "time": 42.6315555,
          "velocity": 0.2755905511811024
        },
        {
          "duration": 0.08771924999999925,
          "durationTicks": 96,
          "midi": 53,
          "name": "F3",
          "ticks": 46752,
          "time": 42.71927475,
          "velocity": 0.2755905511811024
        },
        {
          "duration": 0.08771925000000635,
          "durationTicks": 96,
          "midi": 53,
          "name": "F3",
          "ticks": 46848,
          "time": 42.806993999999996,
          "velocity": 0.2755905511811024
        },
        {
          "duration": 0.08771925000000635,
          "durationTicks": 96,
          "midi": 45,
          "name": "A2",
          "ticks": 46848,
          "time": 42.806993999999996,
          "velocity": 0.2755905511811024
        },
        {
          "duration": 0.08771924999999925,
          "durationTicks": 96,
          "midi": 53,
          "name": "F3",
          "ticks": 46944,
          "time": 42.89471325,
          "velocity": 0.2755905511811024
        },
        {
          "duration": 0.08771924999999925,
          "durationTicks": 96,
          "midi": 45,
          "name": "A2",
          "ticks": 47040,
          "time": 42.9824325,
          "velocity": 0.2755905511811024
        },
        {
          "duration": 0.08771924999999925,
          "durationTicks": 96,
          "midi": 48,
          "name": "C3",
          "ticks": 47040,
          "time": 42.9824325,
          "velocity": 0.2755905511811024
        },
        {
          "duration": 0.08771924999999925,
          "durationTicks": 96,
          "midi": 48,
          "name": "C3",
          "ticks": 47136,
          "time": 43.07015175,
          "velocity": 0.2755905511811024
        },
        {
          "duration": 0.08771924999999925,
          "durationTicks": 96,
          "midi": 48,
          "name": "C3",
          "ticks": 47232,
          "time": 43.157871,
          "velocity": 0.2755905511811024
        },
        {
          "duration": 0.08771924999999925,
          "durationTicks": 96,
          "midi": 48,
          "name": "C3",
          "ticks": 47328,
          "time": 43.24559025,
          "velocity": 0.2755905511811024
        },
        {
          "duration": 0.08771924999999925,
          "durationTicks": 96,
          "midi": 48,
          "name": "C3",
          "ticks": 47424,
          "time": 43.3333095,
          "velocity": 0.2755905511811024
        },
        {
          "duration": 0.08771924999999925,
          "durationTicks": 96,
          "midi": 45,
          "name": "A2",
          "ticks": 47424,
          "time": 43.3333095,
          "velocity": 0.2755905511811024
        },
        {
          "duration": 0.08771924999999925,
          "durationTicks": 96,
          "midi": 48,
          "name": "C3",
          "ticks": 47520,
          "time": 43.42102875,
          "velocity": 0.2755905511811024
        },
        {
          "duration": 0.08771924999999925,
          "durationTicks": 96,
          "midi": 45,
          "name": "A2",
          "ticks": 47616,
          "time": 43.508748,
          "velocity": 0.2755905511811024
        },
        {
          "duration": 0.08771924999999925,
          "durationTicks": 96,
          "midi": 48,
          "name": "C3",
          "ticks": 47616,
          "time": 43.508748,
          "velocity": 0.2755905511811024
        },
        {
          "duration": 0.08771925000000635,
          "durationTicks": 96,
          "midi": 48,
          "name": "C3",
          "ticks": 47712,
          "time": 43.596467249999996,
          "velocity": 0.2755905511811024
        },
        {
          "duration": 0.08771924999999925,
          "durationTicks": 96,
          "midi": 46,
          "name": "A#2",
          "ticks": 47808,
          "time": 43.6841865,
          "velocity": 0.2755905511811024
        },
        {
          "duration": 0.08771924999999925,
          "durationTicks": 96,
          "midi": 46,
          "name": "A#2",
          "ticks": 47808,
          "time": 43.6841865,
          "velocity": 0.2755905511811024
        },
        {
          "duration": 0.08771924999999925,
          "durationTicks": 96,
          "midi": 46,
          "name": "A#2",
          "ticks": 47904,
          "time": 43.77190575,
          "velocity": 0.2755905511811024
        },
        {
          "duration": 0.08771924999999925,
          "durationTicks": 96,
          "midi": 46,
          "name": "A#2",
          "ticks": 48000,
          "time": 43.859625,
          "velocity": 0.2755905511811024
        },
        {
          "duration": 0.08771924999999925,
          "durationTicks": 96,
          "midi": 45,
          "name": "A2",
          "ticks": 48000,
          "time": 43.859625,
          "velocity": 0.2755905511811024
        },
        {
          "duration": 0.08771924999999925,
          "durationTicks": 96,
          "midi": 46,
          "name": "A#2",
          "ticks": 48096,
          "time": 43.94734425,
          "velocity": 0.2755905511811024
        },
        {
          "duration": 0.08771924999999925,
          "durationTicks": 96,
          "midi": 45,
          "name": "A2",
          "ticks": 48192,
          "time": 44.0350635,
          "velocity": 0.2755905511811024
        },
        {
          "duration": 0.08771924999999925,
          "durationTicks": 96,
          "midi": 46,
          "name": "A#2",
          "ticks": 48192,
          "time": 44.0350635,
          "velocity": 0.2755905511811024
        },
        {
          "duration": 0.08771924999999925,
          "durationTicks": 96,
          "midi": 46,
          "name": "A#2",
          "ticks": 48288,
          "time": 44.12278275,
          "velocity": 0.2755905511811024
        },
        {
          "duration": 0.08771924999999925,
          "durationTicks": 96,
          "midi": 46,
          "name": "A#2",
          "ticks": 48384,
          "time": 44.210502,
          "velocity": 0.2755905511811024
        },
        {
          "duration": 0.08771924999999925,
          "durationTicks": 96,
          "midi": 46,
          "name": "A#2",
          "ticks": 48384,
          "time": 44.210502,
          "velocity": 0.2755905511811024
        },
        {
          "duration": 0.08771924999999925,
          "durationTicks": 96,
          "midi": 46,
          "name": "A#2",
          "ticks": 48480,
          "time": 44.29822125,
          "velocity": 0.2755905511811024
        },
        {
          "duration": 0.08771924999999925,
          "durationTicks": 96,
          "midi": 43,
          "name": "G2",
          "ticks": 48576,
          "time": 44.3859405,
          "velocity": 0.2755905511811024
        },
        {
          "duration": 0.08771924999999925,
          "durationTicks": 96,
          "midi": 46,
          "name": "A#2",
          "ticks": 48768,
          "time": 44.561379,
          "velocity": 0.2755905511811024
        },
        {
          "duration": 0.08771924999999925,
          "durationTicks": 96,
          "midi": 43,
          "name": "G2",
          "ticks": 48960,
          "time": 44.7368175,
          "velocity": 0.2755905511811024
        },
        {
          "duration": 0.08771924999999925,
          "durationTicks": 96,
          "midi": 53,
          "name": "F3",
          "ticks": 49344,
          "time": 45.0876945,
          "velocity": 0.2755905511811024
        },
        {
          "duration": 0.08771924999999925,
          "durationTicks": 96,
          "midi": 46,
          "name": "A#2",
          "ticks": 49728,
          "time": 45.4385715,
          "velocity": 0.2755905511811024
        },
        {
          "duration": 0.08771924999999925,
          "durationTicks": 96,
          "midi": 48,
          "name": "C3",
          "ticks": 50112,
          "time": 45.7894485,
          "velocity": 0.2755905511811024
        },
        {
          "duration": 0.08771925000000635,
          "durationTicks": 96,
          "midi": 46,
          "name": "A#2",
          "ticks": 50496,
          "time": 46.140325499999996,
          "velocity": 0.2755905511811024
        },
        {
          "duration": 0.08771924999999925,
          "durationTicks": 96,
          "midi": 41,
          "name": "F2",
          "ticks": 50880,
          "time": 46.4912025,
          "velocity": 0.2755905511811024
        },
        {
          "duration": 0.08771924999999925,
          "durationTicks": 96,
          "midi": 46,
          "name": "A#2",
          "ticks": 51264,
          "time": 46.8420795,
          "velocity": 0.2755905511811024
        },
        {
          "duration": 0.08771924999999925,
          "durationTicks": 96,
          "midi": 48,
          "name": "C3",
          "ticks": 51648,
          "time": 47.1929565,
          "velocity": 0.2755905511811024
        },
        {
          "duration": 0.08771924999999925,
          "durationTicks": 96,
          "midi": 46,
          "name": "A#2",
          "ticks": 52032,
          "time": 47.5438335,
          "velocity": 0.2755905511811024
        },
        {
          "duration": 0.08771924999999925,
          "durationTicks": 96,
          "midi": 41,
          "name": "F2",
          "ticks": 52416,
          "time": 47.8947105,
          "velocity": 0.2755905511811024
        },
        {
          "duration": 0.08771924999999925,
          "durationTicks": 96,
          "midi": 41,
          "name": "F2",
          "ticks": 52800,
          "time": 48.2455875,
          "velocity": 0.2755905511811024
        },
        {
          "duration": 0.08771924999999925,
          "durationTicks": 96,
          "midi": 46,
          "name": "A#2",
          "ticks": 52992,
          "time": 48.421026,
          "velocity": 0.2755905511811024
        },
        {
          "duration": 0.08771925000000635,
          "durationTicks": 96,
          "midi": 48,
          "name": "C3",
          "ticks": 53184,
          "time": 48.596464499999996,
          "velocity": 0.2755905511811024
        },
        {
          "duration": 0.08771924999999925,
          "durationTicks": 96,
          "midi": 51,
          "name": "D#3",
          "ticks": 53568,
          "time": 48.9473415,
          "velocity": 0.2755905511811024
        },
        {
          "duration": 0.08771924999999925,
          "durationTicks": 96,
          "midi": 50,
          "name": "D3",
          "ticks": 53952,
          "time": 49.2982185,
          "velocity": 0.2755905511811024
        },
        {
          "duration": 0.08771924999999925,
          "durationTicks": 96,
          "midi": 51,
          "name": "D#3",
          "ticks": 54336,
          "time": 49.6490955,
          "velocity": 0.2755905511811024
        },
        {
          "duration": 0.08771924999999925,
          "durationTicks": 96,
          "midi": 50,
          "name": "D3",
          "ticks": 54720,
          "time": 49.9999725,
          "velocity": 0.2755905511811024
        },
        {
          "duration": 0.08771924999999925,
          "durationTicks": 96,
          "midi": 48,
          "name": "C3",
          "ticks": 54912,
          "time": 50.175411,
          "velocity": 0.2755905511811024
        },
        {
          "duration": 0.08771924999999925,
          "durationTicks": 96,
          "midi": 46,
          "name": "A#2",
          "ticks": 55104,
          "time": 50.3508495,
          "velocity": 0.2755905511811024
        },
        {
          "duration": 0.08771924999999925,
          "durationTicks": 96,
          "midi": 53,
          "name": "F3",
          "ticks": 55488,
          "time": 50.7017265,
          "velocity": 0.2755905511811024
        },
        {
          "duration": 0.08771924999999925,
          "durationTicks": 96,
          "midi": 58,
          "name": "A#3",
          "ticks": 55488,
          "time": 50.7017265,
          "velocity": 0.13385826771653545
        },
        {
          "duration": 0.08771924999999925,
          "durationTicks": 96,
          "midi": 46,
          "name": "A#2",
          "ticks": 55872,
          "time": 51.0526035,
          "velocity": 0.2755905511811024
        },
        {
          "duration": 0.08771924999999925,
          "durationTicks": 96,
          "midi": 57,
          "name": "A3",
          "ticks": 56256,
          "time": 51.4034805,
          "velocity": 0.13385826771653545
        },
        {
          "duration": 0.08771924999999925,
          "durationTicks": 96,
          "midi": 48,
          "name": "C3",
          "ticks": 56256,
          "time": 51.4034805,
          "velocity": 0.2755905511811024
        },
        {
          "duration": 0.08771924999999925,
          "durationTicks": 96,
          "midi": 46,
          "name": "A#2",
          "ticks": 56640,
          "time": 51.7543575,
          "velocity": 0.2755905511811024
        },
        {
          "duration": 0.08771924999999925,
          "durationTicks": 96,
          "midi": 41,
          "name": "F2",
          "ticks": 57024,
          "time": 52.1052345,
          "velocity": 0.2755905511811024
        },
        {
          "duration": 0.08771924999999925,
          "durationTicks": 96,
          "midi": 58,
          "name": "A#3",
          "ticks": 57024,
          "time": 52.1052345,
          "velocity": 0.13385826771653545
        },
        {
          "duration": 0.08771924999999925,
          "durationTicks": 96,
          "midi": 46,
          "name": "A#2",
          "ticks": 57408,
          "time": 52.4561115,
          "velocity": 0.2755905511811024
        },
        {
          "duration": 0.08771925000000635,
          "durationTicks": 96,
          "midi": 57,
          "name": "A3",
          "ticks": 57792,
          "time": 52.806988499999996,
          "velocity": 0.13385826771653545
        },
        {
          "duration": 0.08771925000000635,
          "durationTicks": 96,
          "midi": 48,
          "name": "C3",
          "ticks": 57792,
          "time": 52.806988499999996,
          "velocity": 0.2755905511811024
        },
        {
          "duration": 0.08771924999999925,
          "durationTicks": 96,
          "midi": 46,
          "name": "A#2",
          "ticks": 58176,
          "time": 53.1578655,
          "velocity": 0.2755905511811024
        },
        {
          "duration": 0.08771924999999925,
          "durationTicks": 96,
          "midi": 58,
          "name": "A#3",
          "ticks": 58176,
          "time": 53.1578655,
          "velocity": 0.13385826771653545
        },
        {
          "duration": 0.08771924999999925,
          "durationTicks": 96,
          "midi": 41,
          "name": "F2",
          "ticks": 58560,
          "time": 53.5087425,
          "velocity": 0.2755905511811024
        },
        {
          "duration": 0.08771924999999925,
          "durationTicks": 96,
          "midi": 60,
          "name": "C4",
          "ticks": 58560,
          "time": 53.5087425,
          "velocity": 0.13385826771653545
        },
        {
          "duration": 0.08771924999999925,
          "durationTicks": 96,
          "midi": 41,
          "name": "F2",
          "ticks": 58944,
          "time": 53.8596195,
          "velocity": 0.2755905511811024
        },
        {
          "duration": 0.08771924999999925,
          "durationTicks": 96,
          "midi": 46,
          "name": "A#2",
          "ticks": 59136,
          "time": 54.035058,
          "velocity": 0.2755905511811024
        },
        {
          "duration": 0.08771924999999925,
          "durationTicks": 96,
          "midi": 53,
          "name": "F3",
          "ticks": 59136,
          "time": 54.035058,
          "velocity": 0.13385826771653545
        },
        {
          "duration": 0.08771924999999925,
          "durationTicks": 96,
          "midi": 48,
          "name": "C3",
          "ticks": 59328,
          "time": 54.2104965,
          "velocity": 0.2755905511811024
        },
        {
          "duration": 0.08771924999999925,
          "durationTicks": 96,
          "midi": 60,
          "name": "C4",
          "ticks": 59328,
          "time": 54.2104965,
          "velocity": 0.13385826771653545
        },
        {
          "duration": 0.08771924999999925,
          "durationTicks": 96,
          "midi": 58,
          "name": "A#3",
          "ticks": 59520,
          "time": 54.385934999999996,
          "velocity": 0.13385826771653545
        },
        {
          "duration": 0.08771924999999925,
          "durationTicks": 96,
          "midi": 51,
          "name": "D#3",
          "ticks": 59712,
          "time": 54.5613735,
          "velocity": 0.2755905511811024
        },
        {
          "duration": 0.08771924999999925,
          "durationTicks": 96,
          "midi": 57,
          "name": "A3",
          "ticks": 59712,
          "time": 54.5613735,
          "velocity": 0.13385826771653545
        },
        {
          "duration": 0.08771924999999925,
          "durationTicks": 96,
          "midi": 58,
          "name": "A#3",
          "ticks": 60096,
          "time": 54.9122505,
          "velocity": 0.13385826771653545
        },
        {
          "duration": 0.08771924999999925,
          "durationTicks": 96,
          "midi": 50,
          "name": "D3",
          "ticks": 60096,
          "time": 54.9122505,
          "velocity": 0.2755905511811024
        },
        {
          "duration": 0.08771925000000635,
          "durationTicks": 96,
          "midi": 51,
          "name": "D#3",
          "ticks": 60480,
          "time": 55.263127499999996,
          "velocity": 0.2755905511811024
        },
        {
          "duration": 0.08771925000000635,
          "durationTicks": 96,
          "midi": 57,
          "name": "A3",
          "ticks": 60480,
          "time": 55.263127499999996,
          "velocity": 0.13385826771653545
        },
        {
          "duration": 0.08771924999999925,
          "durationTicks": 96,
          "midi": 50,
          "name": "D3",
          "ticks": 60864,
          "time": 55.6140045,
          "velocity": 0.2755905511811024
        },
        {
          "duration": 0.08771924999999925,
          "durationTicks": 96,
          "midi": 58,
          "name": "A#3",
          "ticks": 60864,
          "time": 55.6140045,
          "velocity": 0.13385826771653545
        },
        {
          "duration": 0.08771924999999925,
          "durationTicks": 96,
          "midi": 48,
          "name": "C3",
          "ticks": 61056,
          "time": 55.789443,
          "velocity": 0.2755905511811024
        },
        {
          "duration": 0.08771924999999925,
          "durationTicks": 96,
          "midi": 60,
          "name": "C4",
          "ticks": 61248,
          "time": 55.9648815,
          "velocity": 0.13385826771653545
        },
        {
          "duration": 0.08771924999999925,
          "durationTicks": 96,
          "midi": 46,
          "name": "A#2",
          "ticks": 61248,
          "time": 55.9648815,
          "velocity": 0.2755905511811024
        },
        {
          "duration": 0.08771924999999925,
          "durationTicks": 96,
          "midi": 53,
          "name": "F3",
          "ticks": 61632,
          "time": 56.3157585,
          "velocity": 0.2755905511811024
        },
        {
          "duration": 0.08771924999999925,
          "durationTicks": 96,
          "midi": 62,
          "name": "D4",
          "ticks": 61632,
          "time": 56.3157585,
          "velocity": 0.13385826771653545
        },
        {
          "duration": 0.08771924999999925,
          "durationTicks": 96,
          "midi": 58,
          "name": "A#3",
          "ticks": 61632,
          "time": 56.3157585,
          "velocity": 0.13385826771653545
        },
        {
          "duration": 0.08771924999999925,
          "durationTicks": 96,
          "midi": 46,
          "name": "A#2",
          "ticks": 62016,
          "time": 56.6666355,
          "velocity": 0.2755905511811024
        },
        {
          "duration": 0.08771924999999925,
          "durationTicks": 96,
          "midi": 65,
          "name": "F4",
          "ticks": 62400,
          "time": 57.0175125,
          "velocity": 0.13385826771653545
        },
        {
          "duration": 0.08771924999999925,
          "durationTicks": 96,
          "midi": 48,
          "name": "C3",
          "ticks": 62400,
          "time": 57.0175125,
          "velocity": 0.2755905511811024
        },
        {
          "duration": 0.08771924999999925,
          "durationTicks": 96,
          "midi": 57,
          "name": "A3",
          "ticks": 62400,
          "time": 57.0175125,
          "velocity": 0.13385826771653545
        },
        {
          "duration": 0.08771924999999925,
          "durationTicks": 96,
          "midi": 46,
          "name": "A#2",
          "ticks": 62784,
          "time": 57.3683895,
          "velocity": 0.2755905511811024
        },
        {
          "duration": 0.08771925000000635,
          "durationTicks": 96,
          "midi": 41,
          "name": "F2",
          "ticks": 63168,
          "time": 57.719266499999996,
          "velocity": 0.2755905511811024
        },
        {
          "duration": 0.08771925000000635,
          "durationTicks": 96,
          "midi": 62,
          "name": "D4",
          "ticks": 63168,
          "time": 57.719266499999996,
          "velocity": 0.13385826771653545
        },
        {
          "duration": 0.08771925000000635,
          "durationTicks": 96,
          "midi": 58,
          "name": "A#3",
          "ticks": 63168,
          "time": 57.719266499999996,
          "velocity": 0.13385826771653545
        },
        {
          "duration": 0.08771924999999925,
          "durationTicks": 96,
          "midi": 46,
          "name": "A#2",
          "ticks": 63552,
          "time": 58.0701435,
          "velocity": 0.2755905511811024
        },
        {
          "duration": 0.08771924999999925,
          "durationTicks": 96,
          "midi": 48,
          "name": "C3",
          "ticks": 63936,
          "time": 58.4210205,
          "velocity": 0.2755905511811024
        },
        {
          "duration": 0.08771924999999925,
          "durationTicks": 96,
          "midi": 65,
          "name": "F4",
          "ticks": 63936,
          "time": 58.4210205,
          "velocity": 0.13385826771653545
        },
        {
          "duration": 0.08771924999999925,
          "durationTicks": 96,
          "midi": 57,
          "name": "A3",
          "ticks": 63936,
          "time": 58.4210205,
          "velocity": 0.13385826771653545
        },
        {
          "duration": 0.08771924999999925,
          "durationTicks": 96,
          "midi": 62,
          "name": "D4",
          "ticks": 64320,
          "time": 58.7718975,
          "velocity": 0.13385826771653545
        },
        {
          "duration": 0.08771924999999925,
          "durationTicks": 96,
          "midi": 46,
          "name": "A#2",
          "ticks": 64320,
          "time": 58.7718975,
          "velocity": 0.2755905511811024
        },
        {
          "duration": 0.08771924999999925,
          "durationTicks": 96,
          "midi": 53,
          "name": "F3",
          "ticks": 64320,
          "time": 58.7718975,
          "velocity": 0.13385826771653545
        },
        {
          "duration": 0.08771924999999925,
          "durationTicks": 96,
          "midi": 41,
          "name": "F2",
          "ticks": 64704,
          "time": 59.1227745,
          "velocity": 0.2755905511811024
        },
        {
          "duration": 0.08771924999999925,
          "durationTicks": 96,
          "midi": 60,
          "name": "C4",
          "ticks": 64704,
          "time": 59.1227745,
          "velocity": 0.13385826771653545
        },
        {
          "duration": 0.08771924999999925,
          "durationTicks": 96,
          "midi": 65,
          "name": "F4",
          "ticks": 64704,
          "time": 59.1227745,
          "velocity": 0.13385826771653545
        },
        {
          "duration": 0.08771924999999925,
          "durationTicks": 96,
          "midi": 41,
          "name": "F2",
          "ticks": 65088,
          "time": 59.4736515,
          "velocity": 0.2755905511811024
        },
        {
          "duration": 0.08771924999999925,
          "durationTicks": 96,
          "midi": 60,
          "name": "C4",
          "ticks": 65280,
          "time": 59.64909,
          "velocity": 0.13385826771653545
        },
        {
          "duration": 0.08771924999999925,
          "durationTicks": 96,
          "midi": 46,
          "name": "A#2",
          "ticks": 65280,
          "time": 59.64909,
          "velocity": 0.2755905511811024
        },
        {
          "duration": 0.08771924999999925,
          "durationTicks": 96,
          "midi": 53,
          "name": "F3",
          "ticks": 65280,
          "time": 59.64909,
          "velocity": 0.13385826771653545
        },
        {
          "duration": 0.08771924999999925,
          "durationTicks": 96,
          "midi": 65,
          "name": "F4",
          "ticks": 65472,
          "time": 59.8245285,
          "velocity": 0.13385826771653545
        },
        {
          "duration": 0.08771924999999925,
          "durationTicks": 96,
          "midi": 48,
          "name": "C3",
          "ticks": 65472,
          "time": 59.8245285,
          "velocity": 0.2755905511811024
        },
        {
          "duration": 0.08771924999999925,
          "durationTicks": 96,
          "midi": 62,
          "name": "D4",
          "ticks": 65664,
          "time": 59.999967,
          "velocity": 0.13385826771653545
        },
        {
          "duration": 0.08771924999999925,
          "durationTicks": 96,
          "midi": 60,
          "name": "C4",
          "ticks": 65856,
          "time": 60.1754055,
          "velocity": 0.13385826771653545
        },
        {
          "duration": 0.08771924999999925,
          "durationTicks": 96,
          "midi": 51,
          "name": "D#3",
          "ticks": 65856,
          "time": 60.1754055,
          "velocity": 0.2755905511811024
        },
        {
          "duration": 0.08771924999999925,
          "durationTicks": 96,
          "midi": 53,
          "name": "F3",
          "ticks": 66240,
          "time": 60.5262825,
          "velocity": 0.13385826771653545
        },
        {
          "duration": 0.08771924999999925,
          "durationTicks": 96,
          "midi": 65,
          "name": "F4",
          "ticks": 66240,
          "time": 60.5262825,
          "velocity": 0.33070866141732286
        },
        {
          "duration": 0.08771924999999925,
          "durationTicks": 96,
          "midi": 50,
          "name": "D3",
          "ticks": 66240,
          "time": 60.5262825,
          "velocity": 0.2755905511811024
        },
        {
          "duration": 0.08771924999999925,
          "durationTicks": 96,
          "midi": 67,
          "name": "G4",
          "ticks": 66432,
          "time": 60.701721,
          "velocity": 0.33070866141732286
        },
        {
          "duration": 0.08771924999999925,
          "durationTicks": 96,
          "midi": 53,
          "name": "F3",
          "ticks": 66624,
          "time": 60.8771595,
          "velocity": 0.13385826771653545
        },
        {
          "duration": 0.08771924999999925,
          "durationTicks": 96,
          "midi": 65,
          "name": "F4",
          "ticks": 66624,
          "time": 60.8771595,
          "velocity": 0.33070866141732286
        },
        {
          "duration": 0.08771924999999925,
          "durationTicks": 96,
          "midi": 51,
          "name": "D#3",
          "ticks": 66624,
          "time": 60.8771595,
          "velocity": 0.2755905511811024
        },
        {
          "duration": 0.08771925000000635,
          "durationTicks": 96,
          "midi": 67,
          "name": "G4",
          "ticks": 66816,
          "time": 61.052597999999996,
          "velocity": 0.11023622047244094
        },
        {
          "duration": 0.08771924999999925,
          "durationTicks": 96,
          "midi": 62,
          "name": "D4",
          "ticks": 67008,
          "time": 61.2280365,
          "velocity": 0.13385826771653545
        },
        {
          "duration": 0.08771924999999925,
          "durationTicks": 96,
          "midi": 65,
          "name": "F4",
          "ticks": 67008,
          "time": 61.2280365,
          "velocity": 0.05511811023622047
        },
        {
          "duration": 0.08771924999999925,
          "durationTicks": 96,
          "midi": 58,
          "name": "A#3",
          "ticks": 67008,
          "time": 61.2280365,
          "velocity": 0.13385826771653545
        },
        {
          "duration": 0.08771924999999925,
          "durationTicks": 96,
          "midi": 50,
          "name": "D3",
          "ticks": 67008,
          "time": 61.2280365,
          "velocity": 0.2755905511811024
        },
        {
          "duration": 0.08771924999999925,
          "durationTicks": 96,
          "midi": 57,
          "name": "A3",
          "ticks": 67200,
          "time": 61.403475,
          "velocity": 0.13385826771653545
        },
        {
          "duration": 0.08771924999999925,
          "durationTicks": 96,
          "midi": 48,
          "name": "C3",
          "ticks": 67200,
          "time": 61.403475,
          "velocity": 0.2755905511811024
        },
        {
          "duration": 0.08771924999999925,
          "durationTicks": 96,
          "midi": 46,
          "name": "A#2",
          "ticks": 67392,
          "time": 61.5789135,
          "velocity": 0.2755905511811024
        },
        {
          "duration": 0.08771924999999925,
          "durationTicks": 96,
          "midi": 65,
          "name": "F4",
          "ticks": 67392,
          "time": 61.5789135,
          "velocity": 0.13385826771653545
        },
        {
          "duration": 0.08771924999999925,
          "durationTicks": 96,
          "midi": 60,
          "name": "C4",
          "ticks": 67392,
          "time": 61.5789135,
          "velocity": 0.13385826771653545
        },
        {
          "duration": 0.08771925000000635,
          "durationTicks": 96,
          "midi": 62,
          "name": "D4",
          "ticks": 67776,
          "time": 61.929790499999996,
          "velocity": 0.13385826771653545
        },
        {
          "duration": 0.08771925000000635,
          "durationTicks": 96,
          "midi": 53,
          "name": "F3",
          "ticks": 67776,
          "time": 61.929790499999996,
          "velocity": 0.2755905511811024
        },
        {
          "duration": 0.08771925000000635,
          "durationTicks": 96,
          "midi": 58,
          "name": "A#3",
          "ticks": 67776,
          "time": 61.929790499999996,
          "velocity": 0.13385826771653545
        },
        {
          "duration": 0.08771924999999925,
          "durationTicks": 96,
          "midi": 46,
          "name": "A#2",
          "ticks": 68160,
          "time": 62.2806675,
          "velocity": 0.2755905511811024
        },
        {
          "duration": 0.08771924999999925,
          "durationTicks": 96,
          "midi": 60,
          "name": "C4",
          "ticks": 68544,
          "time": 62.6315445,
          "velocity": 0.13385826771653545
        },
        {
          "duration": 0.08771924999999925,
          "durationTicks": 96,
          "midi": 57,
          "name": "A3",
          "ticks": 68544,
          "time": 62.6315445,
          "velocity": 0.13385826771653545
        },
        {
          "duration": 0.08771924999999925,
          "durationTicks": 96,
          "midi": 48,
          "name": "C3",
          "ticks": 68544,
          "time": 62.6315445,
          "velocity": 0.2755905511811024
        },
        {
          "duration": 0.08771924999999925,
          "durationTicks": 96,
          "midi": 46,
          "name": "A#2",
          "ticks": 68928,
          "time": 62.9824215,
          "velocity": 0.2755905511811024
        },
        {
          "duration": 0.08771924999999925,
          "durationTicks": 96,
          "midi": 58,
          "name": "A#3",
          "ticks": 69312,
          "time": 63.3332985,
          "velocity": 0.13385826771653545
        },
        {
          "duration": 0.08771924999999925,
          "durationTicks": 96,
          "midi": 62,
          "name": "D4",
          "ticks": 69312,
          "time": 63.3332985,
          "velocity": 0.13385826771653545
        },
        {
          "duration": 0.08771924999999925,
          "durationTicks": 96,
          "midi": 41,
          "name": "F2",
          "ticks": 69312,
          "time": 63.3332985,
          "velocity": 0.2755905511811024
        },
        {
          "duration": 0.08771924999999925,
          "durationTicks": 96,
          "midi": 46,
          "name": "A#2",
          "ticks": 69696,
          "time": 63.6841755,
          "velocity": 0.2755905511811024
        },
        {
          "duration": 0.08771925000000635,
          "durationTicks": 96,
          "midi": 48,
          "name": "C3",
          "ticks": 70080,
          "time": 64.03505249999999,
          "velocity": 0.2755905511811024
        },
        {
          "duration": 0.08771925000000635,
          "durationTicks": 96,
          "midi": 60,
          "name": "C4",
          "ticks": 70080,
          "time": 64.03505249999999,
          "velocity": 0.13385826771653545
        },
        {
          "duration": 0.08771925000000635,
          "durationTicks": 96,
          "midi": 57,
          "name": "A3",
          "ticks": 70080,
          "time": 64.03505249999999,
          "velocity": 0.13385826771653545
        },
        {
          "duration": 0.08771924999999214,
          "durationTicks": 96,
          "midi": 58,
          "name": "A#3",
          "ticks": 70464,
          "time": 64.3859295,
          "velocity": 0.13385826771653545
        },
        {
          "duration": 0.08771924999999214,
          "durationTicks": 96,
          "midi": 62,
          "name": "D4",
          "ticks": 70464,
          "time": 64.3859295,
          "velocity": 0.13385826771653545
        },
        {
          "duration": 0.08771924999999214,
          "durationTicks": 96,
          "midi": 46,
          "name": "A#2",
          "ticks": 70464,
          "time": 64.3859295,
          "velocity": 0.2755905511811024
        },
        {
          "duration": 0.08771924999999214,
          "durationTicks": 96,
          "midi": 63,
          "name": "D#4",
          "ticks": 70848,
          "time": 64.7368065,
          "velocity": 0.13385826771653545
        },
        {
          "duration": 0.08771924999999214,
          "durationTicks": 96,
          "midi": 41,
          "name": "F2",
          "ticks": 70848,
          "time": 64.7368065,
          "velocity": 0.2755905511811024
        },
        {
          "duration": 0.08771924999999214,
          "durationTicks": 96,
          "midi": 60,
          "name": "C4",
          "ticks": 70848,
          "time": 64.7368065,
          "velocity": 0.13385826771653545
        },
        {
          "duration": 0.08771925000000635,
          "durationTicks": 96,
          "midi": 41,
          "name": "F2",
          "ticks": 71232,
          "time": 65.0876835,
          "velocity": 0.2755905511811024
        },
        {
          "duration": 0.08771925000000635,
          "durationTicks": 96,
          "midi": 60,
          "name": "C4",
          "ticks": 71424,
          "time": 65.263122,
          "velocity": 0.13385826771653545
        },
        {
          "duration": 0.08771925000000635,
          "durationTicks": 96,
          "midi": 46,
          "name": "A#2",
          "ticks": 71424,
          "time": 65.263122,
          "velocity": 0.2755905511811024
        },
        {
          "duration": 0.08771925000000635,
          "durationTicks": 96,
          "midi": 48,
          "name": "C3",
          "ticks": 71616,
          "time": 65.4385605,
          "velocity": 0.2755905511811024
        },
        {
          "duration": 0.08771925000000635,
          "durationTicks": 96,
          "midi": 63,
          "name": "D#4",
          "ticks": 71616,
          "time": 65.4385605,
          "velocity": 0.13385826771653545
        },
        {
          "duration": 0.08771925000000635,
          "durationTicks": 96,
          "midi": 62,
          "name": "D4",
          "ticks": 71808,
          "time": 65.61399899999999,
          "velocity": 0.13385826771653545
        },
        {
          "duration": 0.08771924999999214,
          "durationTicks": 96,
          "midi": 51,
          "name": "D#3",
          "ticks": 72000,
          "time": 65.7894375,
          "velocity": 0.2755905511811024
        },
        {
          "duration": 0.08771924999999214,
          "durationTicks": 96,
          "midi": 60,
          "name": "C4",
          "ticks": 72000,
          "time": 65.7894375,
          "velocity": 0.13385826771653545
        },
        {
          "duration": 0.08771924999999214,
          "durationTicks": 96,
          "midi": 50,
          "name": "D3",
          "ticks": 72384,
          "time": 66.1403145,
          "velocity": 0.2755905511811024
        },
        {
          "duration": 0.08771924999999214,
          "durationTicks": 96,
          "midi": 62,
          "name": "D4",
          "ticks": 72384,
          "time": 66.1403145,
          "velocity": 0.2755905511811024
        },
        {
          "duration": 0.08771925000000635,
          "durationTicks": 96,
          "midi": 60,
          "name": "C4",
          "ticks": 72768,
          "time": 66.4911915,
          "velocity": 0.2755905511811024
        },
        {
          "duration": 0.08771925000000635,
          "durationTicks": 96,
          "midi": 51,
          "name": "D#3",
          "ticks": 72768,
          "time": 66.4911915,
          "velocity": 0.2755905511811024
        },
        {
          "duration": 0.08771925000000635,
          "durationTicks": 96,
          "midi": 50,
          "name": "D3",
          "ticks": 73152,
          "time": 66.8420685,
          "velocity": 0.2755905511811024
        },
        {
          "duration": 0.08771925000000635,
          "durationTicks": 96,
          "midi": 62,
          "name": "D4",
          "ticks": 73152,
          "time": 66.8420685,
          "velocity": 0.2755905511811024
        },
        {
          "duration": 0.08771925000000635,
          "durationTicks": 96,
          "midi": 48,
          "name": "C3",
          "ticks": 73344,
          "time": 67.017507,
          "velocity": 0.2755905511811024
        },
        {
          "duration": 0.08771925000000635,
          "durationTicks": 96,
          "midi": 46,
          "name": "A#2",
          "ticks": 73536,
          "time": 67.1929455,
          "velocity": 0.2755905511811024
        },
        {
          "duration": 0.08771925000000635,
          "durationTicks": 96,
          "midi": 65,
          "name": "F4",
          "ticks": 73536,
          "time": 67.1929455,
          "velocity": 0.2755905511811024
        },
        {
          "duration": 0.08771925000000635,
          "durationTicks": 96,
          "midi": 60,
          "name": "C4",
          "ticks": 73536,
          "time": 67.1929455,
          "velocity": 0.2755905511811024
        },
        {
          "duration": 0.350876999999997,
          "durationTicks": 384,
          "midi": 66,
          "name": "F#4",
          "ticks": 127584,
          "time": 116.57888325,
          "velocity": 0.2755905511811024
        },
        {
          "duration": 0.08771924999999214,
          "durationTicks": 96,
          "midi": 68,
          "name": "G#4",
          "ticks": 127968,
          "time": 116.92976025,
          "velocity": 0.2755905511811024
        },
        {
          "duration": 0.08771925000000635,
          "durationTicks": 96,
          "midi": 66,
          "name": "F#4",
          "ticks": 128064,
          "time": 117.0174795,
          "velocity": 0.2755905511811024
        },
        {
          "duration": 0.26315775000000485,
          "durationTicks": 288,
          "midi": 64,
          "name": "E4",
          "ticks": 128160,
          "time": 117.10519875,
          "velocity": 0.2755905511811024
        },
        {
          "duration": 0.26315775000000485,
          "durationTicks": 288,
          "midi": 63,
          "name": "D#4",
          "ticks": 128544,
          "time": 117.45607575,
          "velocity": 0.2755905511811024
        },
        {
          "duration": 0.26315775000000485,
          "durationTicks": 288,
          "midi": 61,
          "name": "C#4",
          "ticks": 128928,
          "time": 117.80695275,
          "velocity": 0.2755905511811024
        },
        {
          "duration": 0.701753999999994,
          "durationTicks": 768,
          "midi": 59,
          "name": "B3",
          "ticks": 129312,
          "time": 118.15782975,
          "velocity": 0.2755905511811024
        },
        {
          "duration": 0.701753999999994,
          "durationTicks": 768,
          "midi": 61,
          "name": "C#4",
          "ticks": 130080,
          "time": 118.85958375,
          "velocity": 0.2755905511811024
        },
        {
          "duration": 0.6140347500000018,
          "durationTicks": 672,
          "midi": 66,
          "name": "F#4",
          "ticks": 130848,
          "time": 119.56133774999999,
          "velocity": 0.2755905511811024
        },
        {
          "duration": 1.4035080000000022,
          "durationTicks": 1536,
          "midi": 63,
          "name": "D#4",
          "ticks": 131520,
          "time": 120.1753725,
          "velocity": 0.2755905511811024
        },
        {
          "duration": 0.43859625000000335,
          "durationTicks": 480,
          "midi": 61,
          "name": "C#4",
          "ticks": 133056,
          "time": 121.5788805,
          "velocity": 0.2755905511811024
        },
        {
          "duration": 1.4035080000000022,
          "durationTicks": 1536,
          "midi": 63,
          "name": "D#4",
          "ticks": 133728,
          "time": 122.19291525,
          "velocity": 0.2755905511811024
        },
        {
          "duration": 0.3508770000000112,
          "durationTicks": 384,
          "midi": 66,
          "name": "F#4",
          "ticks": 139872,
          "time": 127.80694725,
          "velocity": 0.2755905511811024
        },
        {
          "duration": 0.08771924999999214,
          "durationTicks": 96,
          "midi": 68,
          "name": "G#4",
          "ticks": 140256,
          "time": 128.15782425,
          "velocity": 0.2755905511811024
        },
        {
          "duration": 0.08771924999999214,
          "durationTicks": 96,
          "midi": 66,
          "name": "F#4",
          "ticks": 140352,
          "time": 128.2455435,
          "velocity": 0.2755905511811024
        },
        {
          "duration": 0.350876999999997,
          "durationTicks": 384,
          "midi": 64,
          "name": "E4",
          "ticks": 140448,
          "time": 128.33326275,
          "velocity": 0.2755905511811024
        },
        {
          "duration": 0.3508770000000254,
          "durationTicks": 384,
          "midi": 63,
          "name": "D#4",
          "ticks": 140832,
          "time": 128.68413974999999,
          "velocity": 0.2755905511811024
        },
        {
          "duration": 0.350876999999997,
          "durationTicks": 384,
          "midi": 64,
          "name": "E4",
          "ticks": 141216,
          "time": 129.03501675,
          "velocity": 0.2755905511811024
        },
        {
          "duration": 0.701753999999994,
          "durationTicks": 768,
          "midi": 66,
          "name": "F#4",
          "ticks": 141600,
          "time": 129.38589375,
          "velocity": 0.2755905511811024
        },
        {
          "duration": 0.701753999999994,
          "durationTicks": 768,
          "midi": 71,
          "name": "B4",
          "ticks": 142368,
          "time": 130.08764775,
          "velocity": 0.2755905511811024
        },
        {
          "duration": 1.403507999999988,
          "durationTicks": 1536,
          "midi": 66,
          "name": "F#4",
          "ticks": 143136,
          "time": 130.78940175,
          "velocity": 0.2755905511811024
        },
        {
          "duration": 1.403507999999988,
          "durationTicks": 1536,
          "midi": 63,
          "name": "D#4",
          "ticks": 143808,
          "time": 131.4034365,
          "velocity": 0.2755905511811024
        },
        {
          "duration": 0.43859625000001756,
          "durationTicks": 480,
          "midi": 61,
          "name": "C#4",
          "ticks": 145344,
          "time": 132.8069445,
          "velocity": 0.2755905511811024
        },
        {
          "duration": 1.7543850000000134,
          "durationTicks": 1920,
          "midi": 63,
          "name": "D#4",
          "ticks": 146016,
          "time": 133.42097925,
          "velocity": 0.2755905511811024
        },
        {
          "duration": 0.26315775000000485,
          "durationTicks": 288,
          "midi": 66,
          "name": "F#4",
          "ticks": 148128,
          "time": 135.35080274999999,
          "velocity": 0.2755905511811024
        },
        {
          "duration": 0.26315775000000485,
          "durationTicks": 288,
          "midi": 63,
          "name": "D#4",
          "ticks": 148128,
          "time": 135.35080274999999,
          "velocity": 0.2755905511811024
        },
        {
          "duration": 0.08771924999999214,
          "durationTicks": 96,
          "midi": 66,
          "name": "F#4",
          "ticks": 148512,
          "time": 135.70167975,
          "velocity": 0.2755905511811024
        },
        {
          "duration": 0.08771924999999214,
          "durationTicks": 96,
          "midi": 63,
          "name": "D#4",
          "ticks": 148512,
          "time": 135.70167975,
          "velocity": 0.2755905511811024
        },
        {
          "duration": 0.08771924999999214,
          "durationTicks": 96,
          "midi": 66,
          "name": "F#4",
          "ticks": 148704,
          "time": 135.87711825,
          "velocity": 0.2755905511811024
        },
        {
          "duration": 0.08771924999999214,
          "durationTicks": 96,
          "midi": 63,
          "name": "D#4",
          "ticks": 148704,
          "time": 135.87711825,
          "velocity": 0.2755905511811024
        },
        {
          "duration": 0.26315775000000485,
          "durationTicks": 288,
          "midi": 66,
          "name": "F#4",
          "ticks": 149088,
          "time": 136.22799525,
          "velocity": 0.2755905511811024
        },
        {
          "duration": 0.26315775000000485,
          "durationTicks": 288,
          "midi": 63,
          "name": "D#4",
          "ticks": 149088,
          "time": 136.22799525,
          "velocity": 0.2755905511811024
        },
        {
          "duration": 0.08771925000002057,
          "durationTicks": 96,
          "midi": 66,
          "name": "F#4",
          "ticks": 149472,
          "time": 136.57887225,
          "velocity": 0.2755905511811024
        },
        {
          "duration": 0.08771925000002057,
          "durationTicks": 96,
          "midi": 63,
          "name": "D#4",
          "ticks": 149472,
          "time": 136.57887225,
          "velocity": 0.2755905511811024
        },
        {
          "duration": 0.26315775000000485,
          "durationTicks": 288,
          "midi": 64,
          "name": "E4",
          "ticks": 149664,
          "time": 136.75431075,
          "velocity": 0.2755905511811024
        },
        {
          "duration": 0.26315775000000485,
          "durationTicks": 288,
          "midi": 61,
          "name": "C#4",
          "ticks": 149664,
          "time": 136.75431075,
          "velocity": 0.2755905511811024
        },
        {
          "duration": 0.26315775000000485,
          "durationTicks": 288,
          "midi": 63,
          "name": "D#4",
          "ticks": 150048,
          "time": 137.10518775,
          "velocity": 0.2755905511811024
        },
        {
          "duration": 0.26315775000000485,
          "durationTicks": 288,
          "midi": 59,
          "name": "B3",
          "ticks": 150048,
          "time": 137.10518775,
          "velocity": 0.2755905511811024
        },
        {
          "duration": 0.26315775000000485,
          "durationTicks": 288,
          "midi": 61,
          "name": "C#4",
          "ticks": 150432,
          "time": 137.45606475,
          "velocity": 0.2755905511811024
        },
        {
          "duration": 0.26315775000000485,
          "durationTicks": 288,
          "midi": 64,
          "name": "E4",
          "ticks": 150432,
          "time": 137.45606475,
          "velocity": 0.2755905511811024
        },
        {
          "duration": 0.6140347500000018,
          "durationTicks": 672,
          "midi": 66,
          "name": "F#4",
          "ticks": 150816,
          "time": 137.80694175,
          "velocity": 0.2755905511811024
        },
        {
          "duration": 0.6140347500000018,
          "durationTicks": 672,
          "midi": 63,
          "name": "D#4",
          "ticks": 150816,
          "time": 137.80694175,
          "velocity": 0.2755905511811024
        },
        {
          "duration": 0.6140347500000018,
          "durationTicks": 672,
          "midi": 71,
          "name": "B4",
          "ticks": 151584,
          "time": 138.50869575,
          "velocity": 0.2755905511811024
        },
        {
          "duration": 0.6140347500000018,
          "durationTicks": 672,
          "midi": 66,
          "name": "F#4",
          "ticks": 151584,
          "time": 138.50869575,
          "velocity": 0.2755905511811024
        },
        {
          "duration": 0.6140347500000018,
          "durationTicks": 672,
          "midi": 63,
          "name": "D#4",
          "ticks": 152352,
          "time": 139.21044975,
          "velocity": 0.2755905511811024
        },
        {
          "duration": 0.6140347500000018,
          "durationTicks": 672,
          "midi": 66,
          "name": "F#4",
          "ticks": 152352,
          "time": 139.21044975,
          "velocity": 0.2755905511811024
        },
        {
          "duration": 0.26315775000000485,
          "durationTicks": 288,
          "midi": 66,
          "name": "F#4",
          "ticks": 154368,
          "time": 141.052554,
          "velocity": 0.2755905511811024
        },
        {
          "duration": 0.26315775000000485,
          "durationTicks": 288,
          "midi": 63,
          "name": "D#4",
          "ticks": 154368,
          "time": 141.052554,
          "velocity": 0.2755905511811024
        },
        {
          "duration": 0.08771924999999214,
          "durationTicks": 96,
          "midi": 66,
          "name": "F#4",
          "ticks": 154752,
          "time": 141.403431,
          "velocity": 0.2755905511811024
        },
        {
          "duration": 0.08771924999999214,
          "durationTicks": 96,
          "midi": 63,
          "name": "D#4",
          "ticks": 154752,
          "time": 141.403431,
          "velocity": 0.2755905511811024
        },
        {
          "duration": 0.08771924999999214,
          "durationTicks": 96,
          "midi": 63,
          "name": "D#4",
          "ticks": 154944,
          "time": 141.5788695,
          "velocity": 0.2755905511811024
        },
        {
          "duration": 0.08771924999999214,
          "durationTicks": 96,
          "midi": 66,
          "name": "F#4",
          "ticks": 154944,
          "time": 141.5788695,
          "velocity": 0.2755905511811024
        },
        {
          "duration": 0.26315775000000485,
          "durationTicks": 288,
          "midi": 63,
          "name": "D#4",
          "ticks": 155328,
          "time": 141.9297465,
          "velocity": 0.2755905511811024
        },
        {
          "duration": 0.26315775000000485,
          "durationTicks": 288,
          "midi": 66,
          "name": "F#4",
          "ticks": 155328,
          "time": 141.9297465,
          "velocity": 0.2755905511811024
        },
        {
          "duration": 0.08771925000002057,
          "durationTicks": 96,
          "midi": 63,
          "name": "D#4",
          "ticks": 155712,
          "time": 142.2806235,
          "velocity": 0.2755905511811024
        },
        {
          "duration": 0.26315775000000485,
          "durationTicks": 288,
          "midi": 61,
          "name": "C#4",
          "ticks": 155904,
          "time": 142.456062,
          "velocity": 0.2755905511811024
        },
        {
          "duration": 0.26315775000000485,
          "durationTicks": 288,
          "midi": 64,
          "name": "E4",
          "ticks": 155904,
          "time": 142.456062,
          "velocity": 0.2755905511811024
        },
        {
          "duration": 0.26315775000000485,
          "durationTicks": 288,
          "midi": 63,
          "name": "D#4",
          "ticks": 156288,
          "time": 142.806939,
          "velocity": 0.2755905511811024
        },
        {
          "duration": 0.26315775000000485,
          "durationTicks": 288,
          "midi": 59,
          "name": "B3",
          "ticks": 156288,
          "time": 142.806939,
          "velocity": 0.2755905511811024
        },
        {
          "duration": 0.26315775000000485,
          "durationTicks": 288,
          "midi": 61,
          "name": "C#4",
          "ticks": 156672,
          "time": 143.157816,
          "velocity": 0.2755905511811024
        },
        {
          "duration": 0.26315775000000485,
          "durationTicks": 288,
          "midi": 64,
          "name": "E4",
          "ticks": 156672,
          "time": 143.157816,
          "velocity": 0.2755905511811024
        },
        {
          "duration": 0.350876999999997,
          "durationTicks": 384,
          "midi": 63,
          "name": "D#4",
          "ticks": 157056,
          "time": 143.508693,
          "velocity": 0.2755905511811024
        },
        {
          "duration": 0.26315775000000485,
          "durationTicks": 288,
          "midi": 66,
          "name": "F#4",
          "ticks": 157056,
          "time": 143.508693,
          "velocity": 0.2755905511811024
        },
        {
          "duration": 0.350876999999997,
          "durationTicks": 384,
          "midi": 59,
          "name": "B3",
          "ticks": 157440,
          "time": 143.85957,
          "velocity": 0.2755905511811024
        },
        {
          "duration": 0.26315775000000485,
          "durationTicks": 288,
          "midi": 61,
          "name": "C#4",
          "ticks": 157440,
          "time": 143.85957,
          "velocity": 0.2755905511811024
        },
        {
          "duration": 0.350876999999997,
          "durationTicks": 384,
          "midi": 61,
          "name": "C#4",
          "ticks": 157824,
          "time": 144.210447,
          "velocity": 0.2755905511811024
        },
        {
          "duration": 0.350876999999997,
          "durationTicks": 384,
          "midi": 64,
          "name": "E4",
          "ticks": 157824,
          "time": 144.210447,
          "velocity": 0.2755905511811024
        },
        {
          "duration": 1.2280695000000037,
          "durationTicks": 1344,
          "midi": 66,
          "name": "F#4",
          "ticks": 158208,
          "time": 144.56132399999998,
          "velocity": 0.2755905511811024
        },
        {
          "duration": 1.2280695000000037,
          "durationTicks": 1344,
          "midi": 63,
          "name": "D#4",
          "ticks": 158208,
          "time": 144.56132399999998,
          "velocity": 0.2755905511811024
        },
        {
          "duration": 0.1754385000000127,
          "durationTicks": 192,
          "midi": 66,
          "name": "F#4",
          "ticks": 160512,
          "time": 146.666586,
          "velocity": 0.2755905511811024
        },
        {
          "duration": 0.08771924999999214,
          "durationTicks": 96,
          "midi": 66,
          "name": "F#4",
          "ticks": 160896,
          "time": 147.017463,
          "velocity": 0.2755905511811024
        },
        {
          "duration": 0.08771924999999214,
          "durationTicks": 96,
          "midi": 66,
          "name": "F#4",
          "ticks": 161088,
          "time": 147.1929015,
          "velocity": 0.2755905511811024
        },
        {
          "duration": 0.1754384999999843,
          "durationTicks": 192,
          "midi": 66,
          "name": "F#4",
          "ticks": 161472,
          "time": 147.5437785,
          "velocity": 0.2755905511811024
        },
        {
          "duration": 0.08771924999999214,
          "durationTicks": 96,
          "midi": 66,
          "name": "F#4",
          "ticks": 161856,
          "time": 147.8946555,
          "velocity": 0.2755905511811024
        },
        {
          "duration": 0.1754384999999843,
          "durationTicks": 192,
          "midi": 64,
          "name": "E4",
          "ticks": 162048,
          "time": 148.070094,
          "velocity": 0.2755905511811024
        },
        {
          "duration": 0.1754384999999843,
          "durationTicks": 192,
          "midi": 63,
          "name": "D#4",
          "ticks": 162432,
          "time": 148.420971,
          "velocity": 0.2755905511811024
        },
        {
          "duration": 0.1754384999999843,
          "durationTicks": 192,
          "midi": 64,
          "name": "E4",
          "ticks": 162816,
          "time": 148.771848,
          "velocity": 0.2755905511811024
        },
        {
          "duration": 0.5263154999999813,
          "durationTicks": 576,
          "midi": 66,
          "name": "F#4",
          "ticks": 163200,
          "time": 149.122725,
          "velocity": 0.2755905511811024
        },
        {
          "duration": 0.26315775000000485,
          "durationTicks": 288,
          "midi": 71,
          "name": "B4",
          "ticks": 163968,
          "time": 149.824479,
          "velocity": 0.2755905511811024
        },
        {
          "duration": 0.8771924999999783,
          "durationTicks": 960,
          "midi": 66,
          "name": "F#4",
          "ticks": 164544,
          "time": 150.3507945,
          "velocity": 0.2755905511811024
        },
        {
          "duration": 0.1754384999999843,
          "durationTicks": 192,
          "midi": 66,
          "name": "F#4",
          "ticks": 166656,
          "time": 152.280618,
          "velocity": 0.2755905511811024
        },
        {
          "duration": 0.08771924999999214,
          "durationTicks": 96,
          "midi": 66,
          "name": "F#4",
          "ticks": 167040,
          "time": 152.631495,
          "velocity": 0.2755905511811024
        },
        {
          "duration": 0.08771925000002057,
          "durationTicks": 96,
          "midi": 66,
          "name": "F#4",
          "ticks": 167232,
          "time": 152.80693349999999,
          "velocity": 0.2755905511811024
        },
        {
          "duration": 0.1754384999999843,
          "durationTicks": 192,
          "midi": 66,
          "name": "F#4",
          "ticks": 167616,
          "time": 153.1578105,
          "velocity": 0.2755905511811024
        },
        {
          "duration": 0.08771924999999214,
          "durationTicks": 96,
          "midi": 66,
          "name": "F#4",
          "ticks": 168000,
          "time": 153.5086875,
          "velocity": 0.2755905511811024
        },
        {
          "duration": 0.1754385000000127,
          "durationTicks": 192,
          "midi": 64,
          "name": "E4",
          "ticks": 168192,
          "time": 153.684126,
          "velocity": 0.2755905511811024
        },
        {
          "duration": 0.1754385000000127,
          "durationTicks": 192,
          "midi": 63,
          "name": "D#4",
          "ticks": 168576,
          "time": 154.035003,
          "velocity": 0.2755905511811024
        },
        {
          "duration": 0.1754385000000127,
          "durationTicks": 192,
          "midi": 64,
          "name": "E4",
          "ticks": 168960,
          "time": 154.38588,
          "velocity": 0.2755905511811024
        },
        {
          "duration": 0.1754384999999843,
          "durationTicks": 192,
          "midi": 66,
          "name": "F#4",
          "ticks": 169344,
          "time": 154.736757,
          "velocity": 0.2755905511811024
        },
        {
          "duration": 0.1754384999999843,
          "durationTicks": 192,
          "midi": 71,
          "name": "B4",
          "ticks": 169728,
          "time": 155.087634,
          "velocity": 0.2755905511811024
        },
        {
          "duration": 0.1754384999999843,
          "durationTicks": 192,
          "midi": 70,
          "name": "A#4",
          "ticks": 170112,
          "time": 155.438511,
          "velocity": 0.2755905511811024
        },
        {
          "duration": 0.8771925000000067,
          "durationTicks": 960,
          "midi": 71,
          "name": "B4",
          "ticks": 170496,
          "time": 155.789388,
          "velocity": 0.2755905511811024
        },
        {
          "duration": 0.1754385000000127,
          "durationTicks": 192,
          "midi": 66,
          "name": "F#4",
          "ticks": 172800,
          "time": 157.89464999999998,
          "velocity": 0.2755905511811024
        },
        {
          "duration": 0.08771924999999214,
          "durationTicks": 96,
          "midi": 66,
          "name": "F#4",
          "ticks": 173184,
          "time": 158.245527,
          "velocity": 0.2755905511811024
        },
        {
          "duration": 0.08771924999999214,
          "durationTicks": 96,
          "midi": 66,
          "name": "F#4",
          "ticks": 173376,
          "time": 158.4209655,
          "velocity": 0.2755905511811024
        },
        {
          "duration": 0.1754385000000127,
          "durationTicks": 192,
          "midi": 66,
          "name": "F#4",
          "ticks": 173760,
          "time": 158.7718425,
          "velocity": 0.2755905511811024
        },
        {
          "duration": 0.08771925000002057,
          "durationTicks": 96,
          "midi": 66,
          "name": "F#4",
          "ticks": 174144,
          "time": 159.1227195,
          "velocity": 0.2755905511811024
        },
        {
          "duration": 0.1754384999999843,
          "durationTicks": 192,
          "midi": 64,
          "name": "E4",
          "ticks": 174336,
          "time": 159.298158,
          "velocity": 0.2755905511811024
        },
        {
          "duration": 0.1754385000000127,
          "durationTicks": 192,
          "midi": 63,
          "name": "D#4",
          "ticks": 174720,
          "time": 159.649035,
          "velocity": 0.2755905511811024
        },
        {
          "duration": 0.1754385000000127,
          "durationTicks": 192,
          "midi": 64,
          "name": "E4",
          "ticks": 175104,
          "time": 159.999912,
          "velocity": 0.2755905511811024
        },
        {
          "duration": 0.5263155000000097,
          "durationTicks": 576,
          "midi": 66,
          "name": "F#4",
          "ticks": 175488,
          "time": 160.350789,
          "velocity": 0.2755905511811024
        },
        {
          "duration": 0.26315775000000485,
          "durationTicks": 288,
          "midi": 71,
          "name": "B4",
          "ticks": 176256,
          "time": 161.052543,
          "velocity": 0.2755905511811024
        },
        {
          "duration": 0.8771925000000067,
          "durationTicks": 960,
          "midi": 66,
          "name": "F#4",
          "ticks": 176832,
          "time": 161.5788585,
          "velocity": 0.2755905511811024
        },
        {
          "duration": 0.1754385000000127,
          "durationTicks": 192,
          "midi": 66,
          "name": "F#4",
          "ticks": 178944,
          "time": 163.508682,
          "velocity": 0.2755905511811024
        },
        {
          "duration": 0.08771925000002057,
          "durationTicks": 96,
          "midi": 66,
          "name": "F#4",
          "ticks": 179328,
          "time": 163.859559,
          "velocity": 0.2755905511811024
        },
        {
          "duration": 0.08771924999999214,
          "durationTicks": 96,
          "midi": 66,
          "name": "F#4",
          "ticks": 179520,
          "time": 164.0349975,
          "velocity": 0.2755905511811024
        },
        {
          "duration": 0.1754384999999843,
          "durationTicks": 192,
          "midi": 66,
          "name": "F#4",
          "ticks": 179904,
          "time": 164.3858745,
          "velocity": 0.2755905511811024
        },
        {
          "duration": 0.08771924999999214,
          "durationTicks": 96,
          "midi": 66,
          "name": "F#4",
          "ticks": 180288,
          "time": 164.7367515,
          "velocity": 0.2755905511811024
        },
        {
          "duration": 0.1754384999999843,
          "durationTicks": 192,
          "midi": 64,
          "name": "E4",
          "ticks": 180480,
          "time": 164.91219,
          "velocity": 0.2755905511811024
        },
        {
          "duration": 0.1754384999999843,
          "durationTicks": 192,
          "midi": 63,
          "name": "D#4",
          "ticks": 180864,
          "time": 165.263067,
          "velocity": 0.2755905511811024
        },
        {
          "duration": 0.1754384999999843,
          "durationTicks": 192,
          "midi": 64,
          "name": "E4",
          "ticks": 181248,
          "time": 165.613944,
          "velocity": 0.2755905511811024
        },
        {
          "duration": 0.1754384999999843,
          "durationTicks": 192,
          "midi": 66,
          "name": "F#4",
          "ticks": 181632,
          "time": 165.964821,
          "velocity": 0.2755905511811024
        },
        {
          "duration": 0.1754385000000127,
          "durationTicks": 192,
          "midi": 71,
          "name": "B4",
          "ticks": 182016,
          "time": 166.315698,
          "velocity": 0.2755905511811024
        },
        {
          "duration": 0.1754385000000127,
          "durationTicks": 192,
          "midi": 70,
          "name": "A#4",
          "ticks": 182400,
          "time": 166.666575,
          "velocity": 0.2755905511811024
        },
        {
          "duration": 1.4035080000000164,
          "durationTicks": 1536,
          "midi": 71,
          "name": "B4",
          "ticks": 182784,
          "time": 167.017452,
          "velocity": 0.2755905511811024
        },
        {
          "duration": 2.456138999999979,
          "durationTicks": 2688,
          "midi": 28,
          "name": "E1",
          "ticks": 190944,
          "time": 174.47358825,
          "velocity": 0.2755905511811024
        }
      ],
      "endOfTrackTicks": 193632
    },
    {
      "channel": 0,
      "controlChanges": {},
      "pitchBends": [],
      "instrument": {
        "family": "piano",
        "number": 0,
        "name": "acoustic grand piano"
      },
      "name": "Violin (Sustain)",
      "notes": [
        {
          "duration": 0.08771925,
          "durationTicks": 96,
          "midi": 77,
          "name": "F5",
          "ticks": 96,
          "time": 0.08771925,
          "velocity": 0.6377952755905512
        },
        {
          "duration": 0.08771925,
          "durationTicks": 96,
          "midi": 65,
          "name": "F4",
          "ticks": 96,
          "time": 0.08771925,
          "velocity": 0.6377952755905512
        },
        {
          "duration": 0.08771925,
          "durationTicks": 96,
          "midi": 63,
          "name": "D#4",
          "ticks": 96,
          "time": 0.08771925,
          "velocity": 0.6377952755905512
        },
        {
          "duration": 0.08771925000000003,
          "durationTicks": 96,
          "midi": 70,
          "name": "A#4",
          "ticks": 864,
          "time": 0.78947325,
          "velocity": 0.6377952755905512
        },
        {
          "duration": 0.08771925000000003,
          "durationTicks": 96,
          "midi": 89,
          "name": "F6",
          "ticks": 864,
          "time": 0.78947325,
          "velocity": 0.6377952755905512
        },
        {
          "duration": 0.08771925000000003,
          "durationTicks": 96,
          "midi": 77,
          "name": "F5",
          "ticks": 864,
          "time": 0.78947325,
          "velocity": 0.6377952755905512
        },
        {
          "duration": 0.08771925000000014,
          "durationTicks": 96,
          "midi": 72,
          "name": "C5",
          "ticks": 1632,
          "time": 1.49122725,
          "velocity": 0.6377952755905512
        },
        {
          "duration": 0.08771925000000014,
          "durationTicks": 96,
          "midi": 84,
          "name": "C6",
          "ticks": 1632,
          "time": 1.49122725,
          "velocity": 0.6377952755905512
        },
        {
          "duration": 0.08771925000000014,
          "durationTicks": 96,
          "midi": 65,
          "name": "F4",
          "ticks": 1632,
          "time": 1.49122725,
          "velocity": 0.6377952755905512
        },
        {
          "duration": 0.0877192499999997,
          "durationTicks": 96,
          "midi": 82,
          "name": "A#5",
          "ticks": 3168,
          "time": 2.89473525,
          "velocity": 0.6377952755905512
        },
        {
          "duration": 0.0877192499999997,
          "durationTicks": 96,
          "midi": 70,
          "name": "A#4",
          "ticks": 3168,
          "time": 2.89473525,
          "velocity": 0.6377952755905512
        },
        {
          "duration": 0.0877192499999997,
          "durationTicks": 96,
          "midi": 63,
          "name": "D#4",
          "ticks": 3168,
          "time": 2.89473525,
          "velocity": 0.6377952755905512
        },
        {
          "duration": 0.08771925000000014,
          "durationTicks": 96,
          "midi": 70,
          "name": "A#4",
          "ticks": 3936,
          "time": 3.59648925,
          "velocity": 0.6377952755905512
        },
        {
          "duration": 0.08771925000000014,
          "durationTicks": 96,
          "midi": 77,
          "name": "F5",
          "ticks": 3936,
          "time": 3.59648925,
          "velocity": 0.6377952755905512
        },
        {
          "duration": 0.08771925000000014,
          "durationTicks": 96,
          "midi": 89,
          "name": "F6",
          "ticks": 3936,
          "time": 3.59648925,
          "velocity": 0.6377952755905512
        },
        {
          "duration": 0.08771925000000014,
          "durationTicks": 96,
          "midi": 65,
          "name": "F4",
          "ticks": 4704,
          "time": 4.29824325,
          "velocity": 0.6377952755905512
        },
        {
          "duration": 0.08771925000000014,
          "durationTicks": 96,
          "midi": 77,
          "name": "F5",
          "ticks": 4704,
          "time": 4.29824325,
          "velocity": 0.6377952755905512
        },
        {
          "duration": 0.08771925000000014,
          "durationTicks": 96,
          "midi": 65,
          "name": "F4",
          "ticks": 6240,
          "time": 5.70175125,
          "velocity": 0.6377952755905512
        },
        {
          "duration": 0.08771925000000014,
          "durationTicks": 96,
          "midi": 77,
          "name": "F5",
          "ticks": 6240,
          "time": 5.70175125,
          "velocity": 0.6377952755905512
        },
        {
          "duration": 0.08771925000000014,
          "durationTicks": 96,
          "midi": 62,
          "name": "D4",
          "ticks": 6240,
          "time": 5.70175125,
          "velocity": 0.6377952755905512
        },
        {
          "duration": 0.08771924999999925,
          "durationTicks": 96,
          "midi": 65,
          "name": "F4",
          "ticks": 7008,
          "time": 6.40350525,
          "velocity": 0.6377952755905512
        },
        {
          "duration": 0.08771924999999925,
          "durationTicks": 96,
          "midi": 69,
          "name": "A4",
          "ticks": 7008,
          "time": 6.40350525,
          "velocity": 0.6377952755905512
        },
        {
          "duration": 0.08771924999999925,
          "durationTicks": 96,
          "midi": 81,
          "name": "A5",
          "ticks": 7008,
          "time": 6.40350525,
          "velocity": 0.6377952755905512
        },
        {
          "duration": 0.08771925000000014,
          "durationTicks": 96,
          "midi": 93,
          "name": "A6",
          "ticks": 7776,
          "time": 7.10525925,
          "velocity": 0.6377952755905512
        },
        {
          "duration": 0.08771925000000014,
          "durationTicks": 96,
          "midi": 81,
          "name": "A5",
          "ticks": 7776,
          "time": 7.10525925,
          "velocity": 0.6377952755905512
        },
        {
          "duration": 0.08771925000000014,
          "durationTicks": 96,
          "midi": 84,
          "name": "C6",
          "ticks": 7776,
          "time": 7.10525925,
          "velocity": 0.6377952755905512
        },
        {
          "duration": 0.08771925000000103,
          "durationTicks": 96,
          "midi": 82,
          "name": "A#5",
          "ticks": 8928,
          "time": 8.15789025,
          "velocity": 0.6377952755905512
        },
        {
          "duration": 0.08771925000000103,
          "durationTicks": 96,
          "midi": 94,
          "name": "A#6",
          "ticks": 8928,
          "time": 8.15789025,
          "velocity": 0.6377952755905512
        },
        {
          "duration": 0.08771925000000103,
          "durationTicks": 96,
          "midi": 86,
          "name": "D6",
          "ticks": 8928,
          "time": 8.15789025,
          "velocity": 0.6377952755905512
        },
        {
          "duration": 0.08771924999999925,
          "durationTicks": 96,
          "midi": 84,
          "name": "C6",
          "ticks": 9312,
          "time": 8.50876725,
          "velocity": 0.6377952755905512
        },
        {
          "duration": 0.08771924999999925,
          "durationTicks": 96,
          "midi": 93,
          "name": "A6",
          "ticks": 9312,
          "time": 8.50876725,
          "velocity": 0.6377952755905512
        },
        {
          "duration": 0.08771924999999925,
          "durationTicks": 96,
          "midi": 81,
          "name": "A5",
          "ticks": 9312,
          "time": 8.50876725,
          "velocity": 0.6377952755905512
        },
        {
          "duration": 0.08771925000000103,
          "durationTicks": 96,
          "midi": 72,
          "name": "C5",
          "ticks": 10080,
          "time": 9.21052125,
          "velocity": 0.6377952755905512
        },
        {
          "duration": 0.08771925000000103,
          "durationTicks": 96,
          "midi": 89,
          "name": "F6",
          "ticks": 10080,
          "time": 9.21052125,
          "velocity": 0.6377952755905512
        },
        {
          "duration": 0.08771925000000103,
          "durationTicks": 96,
          "midi": 77,
          "name": "F5",
          "ticks": 10080,
          "time": 9.21052125,
          "velocity": 0.6377952755905512
        },
        {
          "duration": 0.08771924999999925,
          "durationTicks": 96,
          "midi": 86,
          "name": "D6",
          "ticks": 10848,
          "time": 9.91227525,
          "velocity": 0.6377952755905512
        },
        {
          "duration": 0.08771924999999925,
          "durationTicks": 96,
          "midi": 74,
          "name": "D5",
          "ticks": 10848,
          "time": 9.91227525,
          "velocity": 0.6377952755905512
        },
        {
          "duration": 0.08771925000000103,
          "durationTicks": 96,
          "midi": 65,
          "name": "F4",
          "ticks": 12384,
          "time": 11.315783249999999,
          "velocity": 0.6377952755905512
        },
        {
          "duration": 0.08771925000000103,
          "durationTicks": 96,
          "midi": 77,
          "name": "F5",
          "ticks": 12384,
          "time": 11.315783249999999,
          "velocity": 0.6377952755905512
        },
        {
          "duration": 0.08771925000000103,
          "durationTicks": 96,
          "midi": 63,
          "name": "D#4",
          "ticks": 12384,
          "time": 11.315783249999999,
          "velocity": 0.6377952755905512
        },
        {
          "duration": 0.08771924999999925,
          "durationTicks": 96,
          "midi": 89,
          "name": "F6",
          "ticks": 13152,
          "time": 12.01753725,
          "velocity": 0.6377952755905512
        },
        {
          "duration": 0.08771924999999925,
          "durationTicks": 96,
          "midi": 70,
          "name": "A#4",
          "ticks": 13152,
          "time": 12.01753725,
          "velocity": 0.6377952755905512
        },
        {
          "duration": 0.08771924999999925,
          "durationTicks": 96,
          "midi": 77,
          "name": "F5",
          "ticks": 13152,
          "time": 12.01753725,
          "velocity": 0.6377952755905512
        },
        {
          "duration": 0.08771925000000103,
          "durationTicks": 96,
          "midi": 65,
          "name": "F4",
          "ticks": 13920,
          "time": 12.71929125,
          "velocity": 0.6377952755905512
        },
        {
          "duration": 0.08771925000000103,
          "durationTicks": 96,
          "midi": 84,
          "name": "C6",
          "ticks": 13920,
          "time": 12.71929125,
          "velocity": 0.6377952755905512
        },
        {
          "duration": 0.08771925000000103,
          "durationTicks": 96,
          "midi": 72,
          "name": "C5",
          "ticks": 13920,
          "time": 12.71929125,
          "velocity": 0.6377952755905512
        },
        {
          "duration": 0.08771924999999925,
          "durationTicks": 96,
          "midi": 63,
          "name": "D#4",
          "ticks": 15456,
          "time": 14.12279925,
          "velocity": 0.6377952755905512
        },
        {
          "duration": 0.08771924999999925,
          "durationTicks": 96,
          "midi": 70,
          "name": "A#4",
          "ticks": 15456,
          "time": 14.12279925,
          "velocity": 0.6377952755905512
        },
        {
          "duration": 0.08771924999999925,
          "durationTicks": 96,
          "midi": 82,
          "name": "A#5",
          "ticks": 15456,
          "time": 14.12279925,
          "velocity": 0.6377952755905512
        },
        {
          "duration": 0.08771925000000103,
          "durationTicks": 96,
          "midi": 77,
          "name": "F5",
          "ticks": 16224,
          "time": 14.82455325,
          "velocity": 0.6377952755905512
        },
        {
          "duration": 0.08771925000000103,
          "durationTicks": 96,
          "midi": 70,
          "name": "A#4",
          "ticks": 16224,
          "time": 14.82455325,
          "velocity": 0.6377952755905512
        },
        {
          "duration": 0.08771925000000103,
          "durationTicks": 96,
          "midi": 89,
          "name": "F6",
          "ticks": 16224,
          "time": 14.82455325,
          "velocity": 0.6377952755905512
        },
        {
          "duration": 0.08771924999999925,
          "durationTicks": 96,
          "midi": 77,
          "name": "F5",
          "ticks": 16992,
          "time": 15.52630725,
          "velocity": 0.6377952755905512
        },
        {
          "duration": 0.08771924999999925,
          "durationTicks": 96,
          "midi": 65,
          "name": "F4",
          "ticks": 16992,
          "time": 15.52630725,
          "velocity": 0.6377952755905512
        },
        {
          "duration": 0.08771924999999925,
          "durationTicks": 96,
          "midi": 62,
          "name": "D4",
          "ticks": 18528,
          "time": 16.92981525,
          "velocity": 0.6377952755905512
        },
        {
          "duration": 0.08771924999999925,
          "durationTicks": 96,
          "midi": 65,
          "name": "F4",
          "ticks": 18528,
          "time": 16.92981525,
          "velocity": 0.6377952755905512
        },
        {
          "duration": 0.08771924999999925,
          "durationTicks": 96,
          "midi": 77,
          "name": "F5",
          "ticks": 18528,
          "time": 16.92981525,
          "velocity": 0.6377952755905512
        },
        {
          "duration": 0.0877192500000028,
          "durationTicks": 96,
          "midi": 81,
          "name": "A5",
          "ticks": 19296,
          "time": 17.63156925,
          "velocity": 0.6377952755905512
        },
        {
          "duration": 0.0877192500000028,
          "durationTicks": 96,
          "midi": 65,
          "name": "F4",
          "ticks": 19296,
          "time": 17.63156925,
          "velocity": 0.6377952755905512
        },
        {
          "duration": 0.0877192500000028,
          "durationTicks": 96,
          "midi": 69,
          "name": "A4",
          "ticks": 19296,
          "time": 17.63156925,
          "velocity": 0.6377952755905512
        },
        {
          "duration": 0.08771924999999925,
          "durationTicks": 96,
          "midi": 93,
          "name": "A6",
          "ticks": 20064,
          "time": 18.33332325,
          "velocity": 0.6377952755905512
        },
        {
          "duration": 0.08771924999999925,
          "durationTicks": 96,
          "midi": 84,
          "name": "C6",
          "ticks": 20064,
          "time": 18.33332325,
          "velocity": 0.6377952755905512
        },
        {
          "duration": 0.08771924999999925,
          "durationTicks": 96,
          "midi": 81,
          "name": "A5",
          "ticks": 20064,
          "time": 18.33332325,
          "velocity": 0.6377952755905512
        },
        {
          "duration": 0.08771924999999925,
          "durationTicks": 96,
          "midi": 94,
          "name": "A#6",
          "ticks": 21216,
          "time": 19.38595425,
          "velocity": 0.6377952755905512
        },
        {
          "duration": 0.08771924999999925,
          "durationTicks": 96,
          "midi": 86,
          "name": "D6",
          "ticks": 21216,
          "time": 19.38595425,
          "velocity": 0.6377952755905512
        },
        {
          "duration": 0.08771924999999925,
          "durationTicks": 96,
          "midi": 82,
          "name": "A#5",
          "ticks": 21216,
          "time": 19.38595425,
          "velocity": 0.6377952755905512
        },
        {
          "duration": 0.0877192500000028,
          "durationTicks": 96,
          "midi": 93,
          "name": "A6",
          "ticks": 21600,
          "time": 19.736831249999998,
          "velocity": 0.6377952755905512
        },
        {
          "duration": 0.0877192500000028,
          "durationTicks": 96,
          "midi": 67,
          "name": "G4",
          "ticks": 21600,
          "time": 19.736831249999998,
          "velocity": 0.6377952755905512
        },
        {
          "duration": 0.0877192500000028,
          "durationTicks": 96,
          "midi": 81,
          "name": "A5",
          "ticks": 21600,
          "time": 19.736831249999998,
          "velocity": 0.6377952755905512
        },
        {
          "duration": 0.0877192500000028,
          "durationTicks": 96,
          "midi": 84,
          "name": "C6",
          "ticks": 21600,
          "time": 19.736831249999998,
          "velocity": 0.6377952755905512
        },
        {
          "duration": 0.08771924999999925,
          "durationTicks": 96,
          "midi": 77,
          "name": "F5",
          "ticks": 22368,
          "time": 20.43858525,
          "velocity": 0.6377952755905512
        },
        {
          "duration": 0.08771924999999925,
          "durationTicks": 96,
          "midi": 89,
          "name": "F6",
          "ticks": 22368,
          "time": 20.43858525,
          "velocity": 0.6377952755905512
        },
        {
          "duration": 0.08771924999999925,
          "durationTicks": 96,
          "midi": 81,
          "name": "A5",
          "ticks": 22368,
          "time": 20.43858525,
          "velocity": 0.6377952755905512
        },
        {
          "duration": 0.08771924999999925,
          "durationTicks": 96,
          "midi": 69,
          "name": "A4",
          "ticks": 22368,
          "time": 20.43858525,
          "velocity": 0.6377952755905512
        },
        {
          "duration": 0.08771924999999925,
          "durationTicks": 96,
          "midi": 74,
          "name": "D5",
          "ticks": 23232,
          "time": 21.2280585,
          "velocity": 0.6377952755905512
        },
        {
          "duration": 0.08771924999999925,
          "durationTicks": 96,
          "midi": 70,
          "name": "A#4",
          "ticks": 23232,
          "time": 21.2280585,
          "velocity": 0.6377952755905512
        },
        {
          "duration": 0.08771924999999925,
          "durationTicks": 96,
          "midi": 77,
          "name": "F5",
          "ticks": 23232,
          "time": 21.2280585,
          "velocity": 0.6377952755905512
        },
        {
          "duration": 0.08771924999999925,
          "durationTicks": 96,
          "midi": 86,
          "name": "D6",
          "ticks": 23232,
          "time": 21.2280585,
          "velocity": 0.6377952755905512
        },
        {
          "duration": 0.08771924999999925,
          "durationTicks": 96,
          "midi": 53,
          "name": "F3",
          "ticks": 24672,
          "time": 22.54384725,
          "velocity": 0.6377952755905512
        },
        {
          "duration": 0.08771924999999925,
          "durationTicks": 96,
          "midi": 47,
          "name": "B2",
          "ticks": 25536,
          "time": 23.3333205,
          "velocity": 0.6377952755905512
        },
        {
          "duration": 0.0877192500000028,
          "durationTicks": 96,
          "midi": 29,
          "name": "F1",
          "ticks": 27456,
          "time": 25.0877055,
          "velocity": 0.6377952755905512
        },
        {
          "duration": 1.3157887499999994,
          "durationTicks": 1440,
          "midi": 69,
          "name": "A4",
          "ticks": 30912,
          "time": 28.2455985,
          "velocity": 0.6377952755905512
        },
        {
          "duration": 1.4035079999999986,
          "durationTicks": 1536,
          "midi": 57,
          "name": "A3",
          "ticks": 30912,
          "time": 28.2455985,
          "velocity": 0.6377952755905512
        },
        {
          "duration": 0.7236838125000027,
          "durationTicks": 792,
          "midi": 62,
          "name": "D4",
          "ticks": 31584,
          "time": 28.859633249999998,
          "velocity": 0.6377952755905512
        },
        {
          "duration": 0.9649117500000024,
          "durationTicks": 1056,
          "midi": 77,
          "name": "F5",
          "ticks": 32448,
          "time": 29.6491065,
          "velocity": 0.6377952755905512
        },
        {
          "duration": 0.9649117500000024,
          "durationTicks": 1056,
          "midi": 81,
          "name": "A5",
          "ticks": 32448,
          "time": 29.6491065,
          "velocity": 0.6377952755905512
        },
        {
          "duration": 0.9429819375000008,
          "durationTicks": 1032,
          "midi": 65,
          "name": "F4",
          "ticks": 32472,
          "time": 29.6710363125,
          "velocity": 0.6377952755905512
        },
        {
          "duration": 0.32894718749999896,
          "durationTicks": 360,
          "midi": 67,
          "name": "G4",
          "ticks": 33600,
          "time": 30.7017375,
          "velocity": 0.6377952755905512
        },
        {
          "duration": 0.32894718749999896,
          "durationTicks": 360,
          "midi": 79,
          "name": "G5",
          "ticks": 33600,
          "time": 30.7017375,
          "velocity": 0.6377952755905512
        },
        {
          "duration": 0.32894718749999896,
          "durationTicks": 360,
          "midi": 82,
          "name": "A#5",
          "ticks": 33600,
          "time": 30.7017375,
          "velocity": 0.6377952755905512
        },
        {
          "duration": 0.08771924999999925,
          "durationTicks": 96,
          "midi": 62,
          "name": "D4",
          "ticks": 33984,
          "time": 31.0526145,
          "velocity": 0.6377952755905512
        },
        {
          "duration": 0.7017539999999975,
          "durationTicks": 768,
          "midi": 65,
          "name": "F4",
          "ticks": 33984,
          "time": 31.0526145,
          "velocity": 0.6377952755905512
        },
        {
          "duration": 0.7017539999999975,
          "durationTicks": 768,
          "midi": 81,
          "name": "A5",
          "ticks": 33984,
          "time": 31.0526145,
          "velocity": 0.6377952755905512
        },
        {
          "duration": 0.08771924999999925,
          "durationTicks": 96,
          "midi": 62,
          "name": "D4",
          "ticks": 34080,
          "time": 31.14033375,
          "velocity": 0.6377952755905512
        },
        {
          "duration": 0.08771924999999925,
          "durationTicks": 96,
          "midi": 62,
          "name": "D4",
          "ticks": 34176,
          "time": 31.228053,
          "velocity": 0.6377952755905512
        },
        {
          "duration": 0.0877192500000028,
          "durationTicks": 96,
          "midi": 62,
          "name": "D4",
          "ticks": 34272,
          "time": 31.31577225,
          "velocity": 0.6377952755905512
        },
        {
          "duration": 0.08771924999999925,
          "durationTicks": 96,
          "midi": 62,
          "name": "D4",
          "ticks": 34368,
          "time": 31.4034915,
          "velocity": 0.6377952755905512
        },
        {
          "duration": 0.08771924999999925,
          "durationTicks": 96,
          "midi": 62,
          "name": "D4",
          "ticks": 34464,
          "time": 31.49121075,
          "velocity": 0.6377952755905512
        },
        {
          "duration": 0.08771924999999925,
          "durationTicks": 96,
          "midi": 62,
          "name": "D4",
          "ticks": 34560,
          "time": 31.57893,
          "velocity": 0.6377952755905512
        },
        {
          "duration": 0.08771924999999925,
          "durationTicks": 96,
          "midi": 62,
          "name": "D4",
          "ticks": 34656,
          "time": 31.66664925,
          "velocity": 0.6377952755905512
        },
        {
          "duration": 0.17543850000000205,
          "durationTicks": 192,
          "midi": 60,
          "name": "C4",
          "ticks": 34752,
          "time": 31.754368499999998,
          "velocity": 0.6377952755905512
        },
        {
          "duration": 0.7017540000000011,
          "durationTicks": 768,
          "midi": 77,
          "name": "F5",
          "ticks": 34752,
          "time": 31.754368499999998,
          "velocity": 0.6377952755905512
        },
        {
          "duration": 0.17543849999999495,
          "durationTicks": 192,
          "midi": 60,
          "name": "C4",
          "ticks": 34848,
          "time": 31.84208775,
          "velocity": 0.6377952755905512
        },
        {
          "duration": 0.17543850000000205,
          "durationTicks": 192,
          "midi": 60,
          "name": "C4",
          "ticks": 34944,
          "time": 31.929807,
          "velocity": 0.6377952755905512
        },
        {
          "duration": 0.1754385000000056,
          "durationTicks": 192,
          "midi": 60,
          "name": "C4",
          "ticks": 35040,
          "time": 32.017526249999996,
          "velocity": 0.6377952755905512
        },
        {
          "duration": 0.1754384999999985,
          "durationTicks": 192,
          "midi": 60,
          "name": "C4",
          "ticks": 35136,
          "time": 32.1052455,
          "velocity": 0.6377952755905512
        },
        {
          "duration": 0.1754384999999985,
          "durationTicks": 192,
          "midi": 60,
          "name": "C4",
          "ticks": 35232,
          "time": 32.19296475,
          "velocity": 0.6377952755905512
        },
        {
          "duration": 0.1754384999999985,
          "durationTicks": 192,
          "midi": 60,
          "name": "C4",
          "ticks": 35328,
          "time": 32.280684,
          "velocity": 0.6377952755905512
        },
        {
          "duration": 0.08771924999999925,
          "durationTicks": 96,
          "midi": 60,
          "name": "C4",
          "ticks": 35424,
          "time": 32.36840325,
          "velocity": 0.6377952755905512
        },
        {
          "duration": 0.08771924999999925,
          "durationTicks": 96,
          "midi": 79,
          "name": "G5",
          "ticks": 35520,
          "time": 32.4561225,
          "velocity": 0.6377952755905512
        },
        {
          "duration": 0.08771924999999925,
          "durationTicks": 96,
          "midi": 67,
          "name": "G4",
          "ticks": 35520,
          "time": 32.4561225,
          "velocity": 0.6377952755905512
        },
        {
          "duration": 0.1754384999999985,
          "durationTicks": 192,
          "midi": 67,
          "name": "G4",
          "ticks": 35616,
          "time": 32.54384175,
          "velocity": 0.6377952755905512
        },
        {
          "duration": 0.08771924999999925,
          "durationTicks": 96,
          "midi": 58,
          "name": "A#3",
          "ticks": 35616,
          "time": 32.54384175,
          "velocity": 0.6377952755905512
        },
        {
          "duration": 0.1754384999999985,
          "durationTicks": 192,
          "midi": 79,
          "name": "G5",
          "ticks": 35616,
          "time": 32.54384175,
          "velocity": 0.6377952755905512
        },
        {
          "duration": 0.1754384999999985,
          "durationTicks": 192,
          "midi": 67,
          "name": "G4",
          "ticks": 35712,
          "time": 32.631561,
          "velocity": 0.6377952755905512
        },
        {
          "duration": 0.1754384999999985,
          "durationTicks": 192,
          "midi": 79,
          "name": "G5",
          "ticks": 35712,
          "time": 32.631561,
          "velocity": 0.6377952755905512
        },
        {
          "duration": 0.08771924999999925,
          "durationTicks": 96,
          "midi": 58,
          "name": "A#3",
          "ticks": 35712,
          "time": 32.631561,
          "velocity": 0.6377952755905512
        },
        {
          "duration": 0.1754385000000056,
          "durationTicks": 192,
          "midi": 79,
          "name": "G5",
          "ticks": 35808,
          "time": 32.71928025,
          "velocity": 0.6377952755905512
        },
        {
          "duration": 0.08771924999999925,
          "durationTicks": 96,
          "midi": 58,
          "name": "A#3",
          "ticks": 35808,
          "time": 32.71928025,
          "velocity": 0.6377952755905512
        },
        {
          "duration": 0.1754385000000056,
          "durationTicks": 192,
          "midi": 67,
          "name": "G4",
          "ticks": 35808,
          "time": 32.71928025,
          "velocity": 0.6377952755905512
        },
        {
          "duration": 0.08771925000000635,
          "durationTicks": 96,
          "midi": 58,
          "name": "A#3",
          "ticks": 35904,
          "time": 32.806999499999996,
          "velocity": 0.6377952755905512
        },
        {
          "duration": 0.1754385000000056,
          "durationTicks": 192,
          "midi": 67,
          "name": "G4",
          "ticks": 35904,
          "time": 32.806999499999996,
          "velocity": 0.6377952755905512
        },
        {
          "duration": 0.1754385000000056,
          "durationTicks": 192,
          "midi": 79,
          "name": "G5",
          "ticks": 35904,
          "time": 32.806999499999996,
          "velocity": 0.6377952755905512
        },
        {
          "duration": 0.1754384999999985,
          "durationTicks": 192,
          "midi": 67,
          "name": "G4",
          "ticks": 36000,
          "time": 32.89471875,
          "velocity": 0.6377952755905512
        },
        {
          "duration": 0.08771924999999925,
          "durationTicks": 96,
          "midi": 58,
          "name": "A#3",
          "ticks": 36000,
          "time": 32.89471875,
          "velocity": 0.6377952755905512
        },
        {
          "duration": 0.1754384999999985,
          "durationTicks": 192,
          "midi": 79,
          "name": "G5",
          "ticks": 36000,
          "time": 32.89471875,
          "velocity": 0.6377952755905512
        },
        {
          "duration": 0.1754384999999985,
          "durationTicks": 192,
          "midi": 79,
          "name": "G5",
          "ticks": 36096,
          "time": 32.982438,
          "velocity": 0.6377952755905512
        },
        {
          "duration": 0.08771924999999925,
          "durationTicks": 96,
          "midi": 58,
          "name": "A#3",
          "ticks": 36096,
          "time": 32.982438,
          "velocity": 0.6377952755905512
        },
        {
          "duration": 0.1754384999999985,
          "durationTicks": 192,
          "midi": 67,
          "name": "G4",
          "ticks": 36096,
          "time": 32.982438,
          "velocity": 0.6377952755905512
        },
        {
          "duration": 0.1754384999999985,
          "durationTicks": 192,
          "midi": 79,
          "name": "G5",
          "ticks": 36192,
          "time": 33.07015725,
          "velocity": 0.6377952755905512
        },
        {
          "duration": 0.08771924999999925,
          "durationTicks": 96,
          "midi": 58,
          "name": "A#3",
          "ticks": 36192,
          "time": 33.07015725,
          "velocity": 0.6377952755905512
        },
        {
          "duration": 0.1754384999999985,
          "durationTicks": 192,
          "midi": 67,
          "name": "G4",
          "ticks": 36192,
          "time": 33.07015725,
          "velocity": 0.6377952755905512
        },
        {
          "duration": 0.1754384999999985,
          "durationTicks": 192,
          "midi": 79,
          "name": "G5",
          "ticks": 36288,
          "time": 33.1578765,
          "velocity": 0.6377952755905512
        },
        {
          "duration": 0.1754384999999985,
          "durationTicks": 192,
          "midi": 79,
          "name": "G5",
          "ticks": 36384,
          "time": 33.24559575,
          "velocity": 0.6377952755905512
        },
        {
          "duration": 0.1754384999999985,
          "durationTicks": 192,
          "midi": 79,
          "name": "G5",
          "ticks": 36480,
          "time": 33.333315,
          "velocity": 0.6377952755905512
        },
        {
          "duration": 1.315788750000003,
          "durationTicks": 1440,
          "midi": 69,
          "name": "A4",
          "ticks": 43200,
          "time": 39.473662499999996,
          "velocity": 0.6377952755905512
        },
        {
          "duration": 0.7236838124999991,
          "durationTicks": 792,
          "midi": 62,
          "name": "D4",
          "ticks": 43872,
          "time": 40.08769725,
          "velocity": 0.6377952755905512
        },
        {
          "duration": 0.9649117499999988,
          "durationTicks": 1056,
          "midi": 77,
          "name": "F5",
          "ticks": 44736,
          "time": 40.8771705,
          "velocity": 0.6377952755905512
        },
        {
          "duration": 0.9649117499999988,
          "durationTicks": 1056,
          "midi": 81,
          "name": "A5",
          "ticks": 44736,
          "time": 40.8771705,
          "velocity": 0.6377952755905512
        },
        {
          "duration": 0.9429819375000008,
          "durationTicks": 1032,
          "midi": 65,
          "name": "F4",
          "ticks": 44760,
          "time": 40.899100312499996,
          "velocity": 0.6377952755905512
        },
        {
          "duration": 0.32894718750000607,
          "durationTicks": 360,
          "midi": 79,
          "name": "G5",
          "ticks": 45888,
          "time": 41.929801499999996,
          "velocity": 0.6377952755905512
        },
        {
          "duration": 0.32894718750000607,
          "durationTicks": 360,
          "midi": 82,
          "name": "A#5",
          "ticks": 45888,
          "time": 41.929801499999996,
          "velocity": 0.6377952755905512
        },
        {
          "duration": 0.32894718750000607,
          "durationTicks": 360,
          "midi": 67,
          "name": "G4",
          "ticks": 45888,
          "time": 41.929801499999996,
          "velocity": 0.6377952755905512
        },
        {
          "duration": 0.7017540000000011,
          "durationTicks": 768,
          "midi": 81,
          "name": "A5",
          "ticks": 46272,
          "time": 42.2806785,
          "velocity": 0.6377952755905512
        },
        {
          "duration": 0.08771924999999925,
          "durationTicks": 96,
          "midi": 62,
          "name": "D4",
          "ticks": 46272,
          "time": 42.2806785,
          "velocity": 0.6377952755905512
        },
        {
          "duration": 0.7017540000000011,
          "durationTicks": 768,
          "midi": 65,
          "name": "F4",
          "ticks": 46272,
          "time": 42.2806785,
          "velocity": 0.6377952755905512
        },
        {
          "duration": 0.08771924999999925,
          "durationTicks": 96,
          "midi": 62,
          "name": "D4",
          "ticks": 46368,
          "time": 42.36839775,
          "velocity": 0.6377952755905512
        },
        {
          "duration": 0.08771924999999925,
          "durationTicks": 96,
          "midi": 62,
          "name": "D4",
          "ticks": 46464,
          "time": 42.456117,
          "velocity": 0.6377952755905512
        },
        {
          "duration": 0.08771924999999925,
          "durationTicks": 96,
          "midi": 62,
          "name": "D4",
          "ticks": 46560,
          "time": 42.54383625,
          "velocity": 0.6377952755905512
        },
        {
          "duration": 0.08771924999999925,
          "durationTicks": 96,
          "midi": 62,
          "name": "D4",
          "ticks": 46656,
          "time": 42.6315555,
          "velocity": 0.6377952755905512
        },
        {
          "duration": 0.08771924999999925,
          "durationTicks": 96,
          "midi": 62,
          "name": "D4",
          "ticks": 46752,
          "time": 42.71927475,
          "velocity": 0.6377952755905512
        },
        {
          "duration": 0.08771925000000635,
          "durationTicks": 96,
          "midi": 62,
          "name": "D4",
          "ticks": 46848,
          "time": 42.806993999999996,
          "velocity": 0.6377952755905512
        },
        {
          "duration": 0.08771924999999925,
          "durationTicks": 96,
          "midi": 62,
          "name": "D4",
          "ticks": 46944,
          "time": 42.89471325,
          "velocity": 0.6377952755905512
        },
        {
          "duration": 0.1754384999999985,
          "durationTicks": 192,
          "midi": 60,
          "name": "C4",
          "ticks": 47040,
          "time": 42.9824325,
          "velocity": 0.6377952755905512
        },
        {
          "duration": 0.7017540000000011,
          "durationTicks": 768,
          "midi": 77,
          "name": "F5",
          "ticks": 47040,
          "time": 42.9824325,
          "velocity": 0.6377952755905512
        },
        {
          "duration": 0.1754384999999985,
          "durationTicks": 192,
          "midi": 60,
          "name": "C4",
          "ticks": 47136,
          "time": 43.07015175,
          "velocity": 0.6377952755905512
        },
        {
          "duration": 0.1754384999999985,
          "durationTicks": 192,
          "midi": 60,
          "name": "C4",
          "ticks": 47232,
          "time": 43.157871,
          "velocity": 0.6377952755905512
        },
        {
          "duration": 0.1754384999999985,
          "durationTicks": 192,
          "midi": 60,
          "name": "C4",
          "ticks": 47328,
          "time": 43.24559025,
          "velocity": 0.6377952755905512
        },
        {
          "duration": 0.1754384999999985,
          "durationTicks": 192,
          "midi": 60,
          "name": "C4",
          "ticks": 47424,
          "time": 43.3333095,
          "velocity": 0.6377952755905512
        },
        {
          "duration": 0.1754384999999985,
          "durationTicks": 192,
          "midi": 60,
          "name": "C4",
          "ticks": 47520,
          "time": 43.42102875,
          "velocity": 0.6377952755905512
        },
        {
          "duration": 0.1754385000000056,
          "durationTicks": 192,
          "midi": 60,
          "name": "C4",
          "ticks": 47616,
          "time": 43.508748,
          "velocity": 0.6377952755905512
        },
        {
          "duration": 0.08771925000000635,
          "durationTicks": 96,
          "midi": 60,
          "name": "C4",
          "ticks": 47712,
          "time": 43.596467249999996,
          "velocity": 0.6377952755905512
        },
        {
          "duration": 0.08771924999999925,
          "durationTicks": 96,
          "midi": 79,
          "name": "G5",
          "ticks": 47808,
          "time": 43.6841865,
          "velocity": 0.6377952755905512
        },
        {
          "duration": 0.08771924999999925,
          "durationTicks": 96,
          "midi": 67,
          "name": "G4",
          "ticks": 47808,
          "time": 43.6841865,
          "velocity": 0.6377952755905512
        },
        {
          "duration": 0.1754384999999985,
          "durationTicks": 192,
          "midi": 67,
          "name": "G4",
          "ticks": 47904,
          "time": 43.77190575,
          "velocity": 0.6377952755905512
        },
        {
          "duration": 0.08771924999999925,
          "durationTicks": 96,
          "midi": 58,
          "name": "A#3",
          "ticks": 47904,
          "time": 43.77190575,
          "velocity": 0.6377952755905512
        },
        {
          "duration": 0.1754384999999985,
          "durationTicks": 192,
          "midi": 79,
          "name": "G5",
          "ticks": 47904,
          "time": 43.77190575,
          "velocity": 0.6377952755905512
        },
        {
          "duration": 0.1754384999999985,
          "durationTicks": 192,
          "midi": 79,
          "name": "G5",
          "ticks": 48000,
          "time": 43.859625,
          "velocity": 0.6377952755905512
        },
        {
          "duration": 0.08771924999999925,
          "durationTicks": 96,
          "midi": 58,
          "name": "A#3",
          "ticks": 48000,
          "time": 43.859625,
          "velocity": 0.6377952755905512
        },
        {
          "duration": 0.1754384999999985,
          "durationTicks": 192,
          "midi": 67,
          "name": "G4",
          "ticks": 48000,
          "time": 43.859625,
          "velocity": 0.6377952755905512
        },
        {
          "duration": 0.1754384999999985,
          "durationTicks": 192,
          "midi": 79,
          "name": "G5",
          "ticks": 48096,
          "time": 43.94734425,
          "velocity": 0.6377952755905512
        },
        {
          "duration": 0.08771924999999925,
          "durationTicks": 96,
          "midi": 58,
          "name": "A#3",
          "ticks": 48096,
          "time": 43.94734425,
          "velocity": 0.6377952755905512
        },
        {
          "duration": 0.1754384999999985,
          "durationTicks": 192,
          "midi": 67,
          "name": "G4",
          "ticks": 48096,
          "time": 43.94734425,
          "velocity": 0.6377952755905512
        },
        {
          "duration": 0.1754384999999985,
          "durationTicks": 192,
          "midi": 67,
          "name": "G4",
          "ticks": 48192,
          "time": 44.0350635,
          "velocity": 0.6377952755905512
        },
        {
          "duration": 0.1754384999999985,
          "durationTicks": 192,
          "midi": 79,
          "name": "G5",
          "ticks": 48192,
          "time": 44.0350635,
          "velocity": 0.6377952755905512
        },
        {
          "duration": 0.08771924999999925,
          "durationTicks": 96,
          "midi": 58,
          "name": "A#3",
          "ticks": 48192,
          "time": 44.0350635,
          "velocity": 0.6377952755905512
        },
        {
          "duration": 0.1754384999999985,
          "durationTicks": 192,
          "midi": 79,
          "name": "G5",
          "ticks": 48288,
          "time": 44.12278275,
          "velocity": 0.6377952755905512
        },
        {
          "duration": 0.08771924999999925,
          "durationTicks": 96,
          "midi": 58,
          "name": "A#3",
          "ticks": 48288,
          "time": 44.12278275,
          "velocity": 0.6377952755905512
        },
        {
          "duration": 0.1754384999999985,
          "durationTicks": 192,
          "midi": 67,
          "name": "G4",
          "ticks": 48288,
          "time": 44.12278275,
          "velocity": 0.6377952755905512
        },
        {
          "duration": 0.1754384999999985,
          "durationTicks": 192,
          "midi": 79,
          "name": "G5",
          "ticks": 48384,
          "time": 44.210502,
          "velocity": 0.6377952755905512
        },
        {
          "duration": 0.1754384999999985,
          "durationTicks": 192,
          "midi": 67,
          "name": "G4",
          "ticks": 48384,
          "time": 44.210502,
          "velocity": 0.6377952755905512
        },
        {
          "duration": 0.08771924999999925,
          "durationTicks": 96,
          "midi": 58,
          "name": "A#3",
          "ticks": 48384,
          "time": 44.210502,
          "velocity": 0.6377952755905512
        },
        {
          "duration": 0.1754384999999985,
          "durationTicks": 192,
          "midi": 67,
          "name": "G4",
          "ticks": 48480,
          "time": 44.29822125,
          "velocity": 0.6377952755905512
        },
        {
          "duration": 0.1754384999999985,
          "durationTicks": 192,
          "midi": 79,
          "name": "G5",
          "ticks": 48480,
          "time": 44.29822125,
          "velocity": 0.6377952755905512
        },
        {
          "duration": 0.08771924999999925,
          "durationTicks": 96,
          "midi": 58,
          "name": "A#3",
          "ticks": 48480,
          "time": 44.29822125,
          "velocity": 0.6377952755905512
        },
        {
          "duration": 0.1754385000000056,
          "durationTicks": 192,
          "midi": 79,
          "name": "G5",
          "ticks": 48576,
          "time": 44.3859405,
          "velocity": 0.6377952755905512
        },
        {
          "duration": 0.1754385000000056,
          "durationTicks": 192,
          "midi": 79,
          "name": "G5",
          "ticks": 48672,
          "time": 44.473659749999996,
          "velocity": 0.6377952755905512
        },
        {
          "duration": 0.1754384999999985,
          "durationTicks": 192,
          "midi": 79,
          "name": "G5",
          "ticks": 48768,
          "time": 44.561379,
          "velocity": 0.6377952755905512
        }
      ],
      "endOfTrackTicks": 48960
    }
  ]
}
