{
  "header": {
    "keySignatures": [
      {
        "key": "C",
        "scale": "major",
        "ticks": 0
      }
    ],
    "meta": [],
    "name": "",
    "ppq": 1024,
    "tempos": [
      {
        "bpm": 139.9998133335822,
        "ticks": 0
      },
      {
        "bpm": 139.97988955586715,
        "ticks": 0
      }
    ],
    "timeSignatures": [
      {
        "ticks": 0,
        "timeSignature": [
          7,
          8
        ],
        "measures": 0
      },
      {
        "ticks": 3584,
        "timeSignature": [
          6,
          8
        ],
        "measures": 0.25
      },
      {
        "ticks": 6656,
        "timeSignature": [
          7,
          8
        ],
        "measures": 0.5
      },
      {
        "ticks": 17408,
        "timeSignature": [
          6,
          8
        ],
        "measures": 1.25
      },
      {
        "ticks": 20480,
        "timeSignature": [
          7,
          8
        ],
        "measures": 1.5
      },
      {
        "ticks": 31232,
        "timeSignature": [
          6,
          8
        ],
        "measures": 2.25
      },
      {
        "ticks": 34304,
        "timeSignature": [
          7,
          8
        ],
        "measures": 2.5
      },
      {
        "ticks": 45056,
        "timeSignature": [
          6,
          8
        ],
        "measures": 3.25
      },
      {
        "ticks": 48128,
        "timeSignature": [
          7,
          8
        ],
        "measures": 3.5
      },
      {
        "ticks": 58880,
        "timeSignature": [
          6,
          8
        ],
        "measures": 4.25
      },
      {
        "ticks": 61952,
        "timeSignature": [
          7,
          8
        ],
        "measures": 4.5
      },
      {
        "ticks": 72704,
        "timeSignature": [
          6,
          8
        ],
        "measures": 5.25
      },
      {
        "ticks": 75776,
        "timeSignature": [
          7,
          8
        ],
        "measures": 5.5
      },
      {
        "ticks": 86528,
        "timeSignature": [
          6,
          8
        ],
        "measures": 6.25
      },
      {
        "ticks": 89600,
        "timeSignature": [
          7,
          8
        ],
        "measures": 6.5
      },
      {
        "ticks": 100352,
        "timeSignature": [
          6,
          8
        ],
        "measures": 7.25
      },
      {
        "ticks": 103424,
        "timeSignature": [
          7,
          8
        ],
        "measures": 7.5
      },
      {
        "ticks": 114176,
        "timeSignature": [
          6,
          8
        ],
        "measures": 8.25
      },
      {
        "ticks": 117248,
        "timeSignature": [
          7,
          8
        ],
        "measures": 8.5
      },
      {
        "ticks": 128000,
        "timeSignature": [
          6,
          8
        ],
        "measures": 9.25
      },
      {
        "ticks": 131072,
        "timeSignature": [
          7,
          8
        ],
        "measures": 9.5
      },
      {
        "ticks": 141824,
        "timeSignature": [
          6,
          8
        ],
        "measures": 10.25
      },
      {
        "ticks": 144896,
        "timeSignature": [
          7,
          8
        ],
        "measures": 10.5
      },
      {
        "ticks": 155648,
        "timeSignature": [
          6,
          8
        ],
        "measures": 11.25
      },
      {
        "ticks": 158720,
        "timeSignature": [
          7,
          8
        ],
        "measures": 11.5
      },
      {
        "ticks": 165888,
        "timeSignature": [
          4,
          4
        ],
        "measures": 12
      },
      {
        "ticks": 182272,
        "timeSignature": [
          7,
          8
        ],
        "measures": 16
      },
      {
        "ticks": 196608,
        "timeSignature": [
          4,
          4
        ],
        "measures": 17
      },
      {
        "ticks": 212992,
        "timeSignature": [
          7,
          8
        ],
        "measures": 21
      },
      {
        "ticks": 227328,
        "timeSignature": [
          4,
          4
        ],
        "measures": 22
      },
      {
        "ticks": 243712,
        "timeSignature": [
          7,
          8
        ],
        "measures": 26
      },
      {
        "ticks": 247296,
        "timeSignature": [
          6,
          8
        ],
        "measures": 26.25
      },
      {
        "ticks": 250368,
        "timeSignature": [
          7,
          8
        ],
        "measures": 26.5
      },
      {
        "ticks": 261120,
        "timeSignature": [
          6,
          8
        ],
        "measures": 27.25
      },
      {
        "ticks": 264192,
        "timeSignature": [
          7,
          8
        ],
        "measures": 27.5
      },
      {
        "ticks": 274944,
        "timeSignature": [
          6,
          8
        ],
        "measures": 28.25
      },
      {
        "ticks": 278016,
        "timeSignature": [
          7,
          8
        ],
        "measures": 28.5
      },
      {
        "ticks": 288768,
        "timeSignature": [
          6,
          8
        ],
        "measures": 29.25
      },
      {
        "ticks": 291840,
        "timeSignature": [
          7,
          8
        ],
        "measures": 29.5
      },
      {
        "ticks": 299008,
        "timeSignature": [
          4,
          4
        ],
        "measures": 30
      },
      {
        "ticks": 315392,
        "timeSignature": [
          7,
          8
        ],
        "measures": 34
      },
      {
        "ticks": 329728,
        "timeSignature": [
          4,
          4
        ],
        "measures": 35
      },
      {
        "ticks": 346112,
        "timeSignature": [
          7,
          8
        ],
        "measures": 39
      },
      {
        "ticks": 360448,
        "timeSignature": [
          4,
          4
        ],
        "measures": 40
      },
      {
        "ticks": 376832,
        "timeSignature": [
          7,
          8
        ],
        "measures": 44
      },
      {
        "ticks": 380416,
        "timeSignature": [
          6,
          8
        ],
        "measures": 44.25
      },
      {
        "ticks": 383488,
        "timeSignature": [
          7,
          8
        ],
        "measures": 44.5
      },
      {
        "ticks": 394240,
        "timeSignature": [
          6,
          8
        ],
        "measures": 45.25
      },
      {
        "ticks": 397312,
        "timeSignature": [
          7,
          8
        ],
        "measures": 45.5
      }
    ]
  },
  "tracks": [
    {
      "channel": 9,
      "controlChanges": {
        "6": [
          {
            "number": 6,
            "ticks": 4,
            "time": 0.00167434765625,
            "value": 0.09448818897637795
          }
        ],
        "7": [
          {
            "number": 7,
            "ticks": 0,
            "time": 0,
            "value": 0.7874015748031497
          },
          {
            "number": 7,
            "ticks": 0,
            "time": 0,
            "value": 0.6377952755905512
          }
        ],
        "10": [
          {
            "number": 10,
            "ticks": 0,
            "time": 0,
            "value": 0.5039370078740157
          }
        ],
        "38": [
          {
            "number": 38,
            "ticks": 5,
            "time": 0.0020929345703124998,
            "value": 0
          }
        ],
        "100": [
          {
            "number": 100,
            "ticks": 3,
            "time": 0.0012557607421875,
            "value": 0
          }
        ],
        "101": [
          {
            "number": 101,
            "ticks": 3,
            "time": 0.0012557607421875,
            "value": 0
          }
        ]
      },
      "pitchBends": [],
      "instrument": {
        "family": "drums",
        "number": 0,
        "name": "standard kit"
      },
      "name": "Acoustic Bass Drum",
      "notes": [
        {
          "duration": 0.4282144130859358,
          "durationTicks": 1023,
          "midi": 42,
          "name": "F#2",
          "ticks": 41472,
          "time": 17.3596365,
          "velocity": 0.5433070866141733
        },
        {
          "duration": 0.2101306308593749,
          "durationTicks": 502,
          "midi": 35,
          "name": "B1",
          "ticks": 41495,
          "time": 17.36926399902344,
          "velocity": 0.5433070866141733
        },
        {
          "duration": 0.2080376962890611,
          "durationTicks": 497,
          "midi": 35,
          "name": "B1",
          "ticks": 41998,
          "time": 17.579813216796875,
          "velocity": 0.5039370078740157
        },
        {
          "duration": 0.2088748701171852,
          "durationTicks": 499,
          "midi": 38,
          "name": "D2",
          "ticks": 42522,
          "time": 17.799152759765626,
          "velocity": 0.5118110236220472
        },
        {
          "duration": 0.20259606640625094,
          "durationTicks": 484,
          "midi": 38,
          "name": "D2",
          "ticks": 43035,
          "time": 18.013887846679687,
          "velocity": 0.5039370078740157
        },
        {
          "duration": 0.21389791308593686,
          "durationTicks": 511,
          "midi": 38,
          "name": "D2",
          "ticks": 43545,
          "time": 18.22736717285156,
          "velocity": 0.5118110236220472
        },
        {
          "duration": 0.203014653320313,
          "durationTicks": 485,
          "midi": 38,
          "name": "D2",
          "ticks": 44061,
          "time": 18.443358020507812,
          "velocity": 0.5039370078740157
        },
        {
          "duration": 0.21264215234375072,
          "durationTicks": 508,
          "midi": 38,
          "name": "D2",
          "ticks": 44547,
          "time": 18.646791260742187,
          "velocity": 0.5039370078740157
        },
        {
          "duration": 0.22687410742187453,
          "durationTicks": 542,
          "midi": 42,
          "name": "F#2",
          "ticks": 45056,
          "time": 18.859852,
          "velocity": 0.5433070866141733
        },
        {
          "duration": 0.22687410742187453,
          "durationTicks": 542,
          "midi": 35,
          "name": "B1",
          "ticks": 45056,
          "time": 18.859852,
          "velocity": 0.5433070866141733
        },
        {
          "duration": 0.2101306308593749,
          "durationTicks": 502,
          "midi": 38,
          "name": "D2",
          "ticks": 45599,
          "time": 19.087144694335937,
          "velocity": 0.5039370078740157
        },
        {
          "duration": 0.21431650000000246,
          "durationTicks": 512,
          "midi": 35,
          "name": "B1",
          "ticks": 46102,
          "time": 19.297693912109374,
          "velocity": 0.5039370078740157
        },
        {
          "duration": 0.21389791308594042,
          "durationTicks": 511,
          "midi": 42,
          "name": "F#2",
          "ticks": 46103,
          "time": 19.298112499023436,
          "velocity": 0.5039370078740157
        },
        {
          "duration": 0.21306073925781277,
          "durationTicks": 509,
          "midi": 38,
          "name": "D2",
          "ticks": 46615,
          "time": 19.512428999023438,
          "velocity": 0.5039370078740157
        },
        {
          "duration": 0.20971204394531284,
          "durationTicks": 501,
          "midi": 42,
          "name": "F#2",
          "ticks": 46623,
          "time": 19.515777694335938,
          "velocity": 0.5039370078740157
        },
        {
          "duration": 0.20552617480468527,
          "durationTicks": 491,
          "midi": 42,
          "name": "F#2",
          "ticks": 47125,
          "time": 19.725908325195313,
          "velocity": 0.5039370078740157
        },
        {
          "duration": 0.21347932617187837,
          "durationTicks": 510,
          "midi": 46,
          "name": "A#2",
          "ticks": 47617,
          "time": 19.93185308691406,
          "velocity": 0.5039370078740157
        },
        {
          "duration": 0.4282144130859358,
          "durationTicks": 1023,
          "midi": 42,
          "name": "F#2",
          "ticks": 48128,
          "time": 20.145751,
          "velocity": 0.5433070866141733
        },
        {
          "duration": 0.2164094345703127,
          "durationTicks": 517,
          "midi": 35,
          "name": "B1",
          "ticks": 48136,
          "time": 20.1490996953125,
          "velocity": 0.5433070866141733
        },
        {
          "duration": 0.2080376962890611,
          "durationTicks": 497,
          "midi": 35,
          "name": "B1",
          "ticks": 48654,
          "time": 20.365927716796875,
          "velocity": 0.5039370078740157
        },
        {
          "duration": 0.2080376962890611,
          "durationTicks": 497,
          "midi": 38,
          "name": "D2",
          "ticks": 49180,
          "time": 20.58610443359375,
          "velocity": 0.5118110236220472
        },
        {
          "duration": 0.19799161035156487,
          "durationTicks": 473,
          "midi": 38,
          "name": "D2",
          "ticks": 49702,
          "time": 20.804606802734373,
          "velocity": 0.5039370078740157
        },
        {
          "duration": 0.21850236914062293,
          "durationTicks": 522,
          "midi": 38,
          "name": "D2",
          "ticks": 50190,
          "time": 21.008877216796876,
          "velocity": 0.5118110236220472
        },
        {
          "duration": 0.19338715429687525,
          "durationTicks": 462,
          "midi": 38,
          "name": "D2",
          "ticks": 50740,
          "time": 21.23910001953125,
          "velocity": 0.5039370078740157
        },
        {
          "duration": 0.21264215234375072,
          "durationTicks": 508,
          "midi": 38,
          "name": "D2",
          "ticks": 51203,
          "time": 21.432905760742187,
          "velocity": 0.5039370078740157
        },
        {
          "duration": 0.21975812988281263,
          "durationTicks": 525,
          "midi": 42,
          "name": "F#2",
          "ticks": 51712,
          "time": 21.6459665,
          "velocity": 0.5433070866141733
        },
        {
          "duration": 0.21975812988281263,
          "durationTicks": 525,
          "midi": 35,
          "name": "B1",
          "ticks": 51712,
          "time": 21.6459665,
          "velocity": 0.5433070866141733
        },
        {
          "duration": 0.2080376962890611,
          "durationTicks": 497,
          "midi": 38,
          "name": "D2",
          "ticks": 52238,
          "time": 21.866143216796875,
          "velocity": 0.5039370078740157
        },
        {
          "duration": 0.21975812988281263,
          "durationTicks": 525,
          "midi": 35,
          "name": "B1",
          "ticks": 52736,
          "time": 22.074599499999998,
          "velocity": 0.5118110236220472
        },
        {
          "duration": 0.2143164999999989,
          "durationTicks": 512,
          "midi": 42,
          "name": "F#2",
          "ticks": 52749,
          "time": 22.08004112988281,
          "velocity": 0.5118110236220472
        },
        {
          "duration": 0.20803769628906466,
          "durationTicks": 497,
          "midi": 38,
          "name": "D2",
          "ticks": 53262,
          "time": 22.294776216796873,
          "velocity": 0.5039370078740157
        },
        {
          "duration": 0.207200522460937,
          "durationTicks": 495,
          "midi": 42,
          "name": "F#2",
          "ticks": 53264,
          "time": 22.295613390625,
          "velocity": 0.5039370078740157
        },
        {
          "duration": 0.2243625859374987,
          "durationTicks": 536,
          "midi": 35,
          "name": "B1",
          "ticks": 53760,
          "time": 22.5032325,
          "velocity": 0.5118110236220472
        },
        {
          "duration": 0.20468900097656473,
          "durationTicks": 489,
          "midi": 42,
          "name": "F#2",
          "ticks": 54297,
          "time": 22.72801367285156,
          "velocity": 0.5039370078740157
        },
        {
          "duration": 0.21264215234375072,
          "durationTicks": 508,
          "midi": 46,
          "name": "A#2",
          "ticks": 54787,
          "time": 22.933121260742187,
          "velocity": 0.5039370078740157
        },
        {
          "duration": 0.4282144130859358,
          "durationTicks": 1023,
          "midi": 42,
          "name": "F#2",
          "ticks": 55296,
          "time": 23.146182,
          "velocity": 0.5433070866141733
        },
        {
          "duration": 0.21850236914062648,
          "durationTicks": 522,
          "midi": 35,
          "name": "B1",
          "ticks": 55299,
          "time": 23.147437760742186,
          "velocity": 0.5433070866141733
        },
        {
          "duration": 0.2080376962890611,
          "durationTicks": 497,
          "midi": 35,
          "name": "B1",
          "ticks": 55822,
          "time": 23.366358716796874,
          "velocity": 0.5039370078740157
        },
        {
          "duration": 0.2097120439453093,
          "durationTicks": 501,
          "midi": 38,
          "name": "D2",
          "ticks": 56344,
          "time": 23.5848610859375,
          "velocity": 0.5118110236220472
        },
        {
          "duration": 0.19841019726562337,
          "durationTicks": 474,
          "midi": 38,
          "name": "D2",
          "ticks": 56869,
          "time": 23.804619215820313,
          "velocity": 0.5039370078740157
        },
        {
          "duration": 0.2235254121093746,
          "durationTicks": 534,
          "midi": 38,
          "name": "D2",
          "ticks": 57346,
          "time": 24.004285173828123,
          "velocity": 0.5118110236220472
        },
        {
          "duration": 0.19422432812499935,
          "durationTicks": 464,
          "midi": 38,
          "name": "D2",
          "ticks": 57906,
          "time": 24.238693845703125,
          "velocity": 0.5039370078740157
        },
        {
          "duration": 0.21264215234375072,
          "durationTicks": 508,
          "midi": 38,
          "name": "D2",
          "ticks": 58371,
          "time": 24.433336760742186,
          "velocity": 0.5039370078740157
        },
        {
          "duration": 0.22687410742187453,
          "durationTicks": 542,
          "midi": 42,
          "name": "F#2",
          "ticks": 58880,
          "time": 24.6463975,
          "velocity": 0.5433070866141733
        },
        {
          "duration": 0.22687410742187453,
          "durationTicks": 542,
          "midi": 35,
          "name": "B1",
          "ticks": 58880,
          "time": 24.6463975,
          "velocity": 0.5433070866141733
        },
        {
          "duration": 0.2101306308593749,
          "durationTicks": 502,
          "midi": 38,
          "name": "D2",
          "ticks": 59423,
          "time": 24.873690194335936,
          "velocity": 0.5039370078740157
        },
        {
          "duration": 0.21431650000000246,
          "durationTicks": 512,
          "midi": 35,
          "name": "B1",
          "ticks": 59926,
          "time": 25.084239412109373,
          "velocity": 0.5039370078740157
        },
        {
          "duration": 0.21389791308593686,
          "durationTicks": 511,
          "midi": 42,
          "name": "F#2",
          "ticks": 59927,
          "time": 25.084657999023438,
          "velocity": 0.5039370078740157
        },
        {
          "duration": 0.21306073925781277,
          "durationTicks": 509,
          "midi": 38,
          "name": "D2",
          "ticks": 60439,
          "time": 25.298974499023437,
          "velocity": 0.5039370078740157
        },
        {
          "duration": 0.21222356542968868,
          "durationTicks": 507,
          "midi": 42,
          "name": "F#2",
          "ticks": 60441,
          "time": 25.29981167285156,
          "velocity": 0.5039370078740157
        },
        {
          "duration": 0.20552617480468882,
          "durationTicks": 491,
          "midi": 42,
          "name": "F#2",
          "ticks": 60949,
          "time": 25.512453825195312,
          "velocity": 0.5039370078740157
        },
        {
          "duration": 0.21347932617187482,
          "durationTicks": 510,
          "midi": 46,
          "name": "A#2",
          "ticks": 61441,
          "time": 25.718398586914063,
          "velocity": 0.5039370078740157
        },
        {
          "duration": 0.4282144130859358,
          "durationTicks": 1023,
          "midi": 42,
          "name": "F#2",
          "ticks": 61952,
          "time": 25.9322965,
          "velocity": 0.5433070866141733
        },
        {
          "duration": 0.2092934570312508,
          "durationTicks": 500,
          "midi": 35,
          "name": "B1",
          "ticks": 61977,
          "time": 25.94276117285156,
          "velocity": 0.5433070866141733
        },
        {
          "duration": 0.2080376962890611,
          "durationTicks": 497,
          "midi": 35,
          "name": "B1",
          "ticks": 62478,
          "time": 26.152473216796874,
          "velocity": 0.5039370078740157
        },
        {
          "duration": 0.2097120439453093,
          "durationTicks": 501,
          "midi": 38,
          "name": "D2",
          "ticks": 63000,
          "time": 26.3709755859375,
          "velocity": 0.5118110236220472
        },
        {
          "duration": 0.20427041406249913,
          "durationTicks": 488,
          "midi": 38,
          "name": "D2",
          "ticks": 63511,
          "time": 26.584873499023438,
          "velocity": 0.5039370078740157
        },
        {
          "duration": 0.2222696513671849,
          "durationTicks": 531,
          "midi": 38,
          "name": "D2",
          "ticks": 64005,
          "time": 26.791655434570313,
          "velocity": 0.5118110236220472
        },
        {
          "duration": 0.20468900097656118,
          "durationTicks": 489,
          "midi": 38,
          "name": "D2",
          "ticks": 64537,
          "time": 27.014343672851563,
          "velocity": 0.5039370078740157
        },
        {
          "duration": 0.21264215234375072,
          "durationTicks": 508,
          "midi": 38,
          "name": "D2",
          "ticks": 65027,
          "time": 27.219451260742186,
          "velocity": 0.5039370078740157
        },
        {
          "duration": 0.21975812988281263,
          "durationTicks": 525,
          "midi": 42,
          "name": "F#2",
          "ticks": 65536,
          "time": 27.432512,
          "velocity": 0.5433070866141733
        },
        {
          "duration": 0.21975812988281263,
          "durationTicks": 525,
          "midi": 35,
          "name": "B1",
          "ticks": 65536,
          "time": 27.432512,
          "velocity": 0.5433070866141733
        },
        {
          "duration": 0.2080376962890611,
          "durationTicks": 497,
          "midi": 38,
          "name": "D2",
          "ticks": 66062,
          "time": 27.652688716796874,
          "velocity": 0.5039370078740157
        },
        {
          "duration": 0.21975812988281263,
          "durationTicks": 525,
          "midi": 35,
          "name": "B1",
          "ticks": 66560,
          "time": 27.861145,
          "velocity": 0.5118110236220472
        },
        {
          "duration": 0.21724660839844034,
          "durationTicks": 519,
          "midi": 42,
          "name": "F#2",
          "ticks": 66566,
          "time": 27.863656521484373,
          "velocity": 0.5118110236220472
        },
        {
          "duration": 0.2080376962890611,
          "durationTicks": 497,
          "midi": 38,
          "name": "D2",
          "ticks": 67086,
          "time": 28.081321716796875,
          "velocity": 0.5039370078740157
        },
        {
          "duration": 0.20468900097656118,
          "durationTicks": 489,
          "midi": 42,
          "name": "F#2",
          "ticks": 67094,
          "time": 28.084670412109375,
          "velocity": 0.5039370078740157
        },
        {
          "duration": 0.22436258593750225,
          "durationTicks": 536,
          "midi": 35,
          "name": "B1",
          "ticks": 67584,
          "time": 28.289778,
          "velocity": 0.5118110236220472
        },
        {
          "duration": 0.20468900097656118,
          "durationTicks": 489,
          "midi": 42,
          "name": "F#2",
          "ticks": 68121,
          "time": 28.514559172851563,
          "velocity": 0.5039370078740157
        },
        {
          "duration": 0.21264215234375072,
          "durationTicks": 508,
          "midi": 46,
          "name": "A#2",
          "ticks": 68611,
          "time": 28.719666760742186,
          "velocity": 0.5039370078740157
        },
        {
          "duration": 0.4282144130859393,
          "durationTicks": 1023,
          "midi": 42,
          "name": "F#2",
          "ticks": 69120,
          "time": 28.9327275,
          "velocity": 0.5433070866141733
        },
        {
          "duration": 0.20761910937499906,
          "durationTicks": 496,
          "midi": 35,
          "name": "B1",
          "ticks": 69149,
          "time": 28.944866520507812,
          "velocity": 0.5433070866141733
        },
        {
          "duration": 0.20803769628906466,
          "durationTicks": 497,
          "midi": 35,
          "name": "B1",
          "ticks": 69646,
          "time": 29.152904216796873,
          "velocity": 0.5039370078740157
        },
        {
          "duration": 0.2176651953125024,
          "durationTicks": 520,
          "midi": 38,
          "name": "D2",
          "ticks": 70149,
          "time": 29.36345343457031,
          "velocity": 0.5118110236220472
        },
        {
          "duration": 0.19799161035156132,
          "durationTicks": 473,
          "midi": 38,
          "name": "D2",
          "ticks": 70694,
          "time": 29.591583302734374,
          "velocity": 0.5039370078740157
        },
        {
          "duration": 0.2239439990234402,
          "durationTicks": 535,
          "midi": 38,
          "name": "D2",
          "ticks": 71169,
          "time": 29.79041208691406,
          "velocity": 0.5118110236220472
        },
        {
          "duration": 0.19673584960937518,
          "durationTicks": 470,
          "midi": 38,
          "name": "D2",
          "ticks": 71724,
          "time": 30.022727824218748,
          "velocity": 0.5039370078740157
        },
        {
          "duration": 0.21264215234375072,
          "durationTicks": 508,
          "midi": 38,
          "name": "D2",
          "ticks": 72195,
          "time": 30.219882260742185,
          "velocity": 0.5039370078740157
        },
        {
          "duration": 0.22687410742187453,
          "durationTicks": 542,
          "midi": 42,
          "name": "F#2",
          "ticks": 72704,
          "time": 30.432942999999998,
          "velocity": 0.5433070866141733
        },
        {
          "duration": 0.22687410742187453,
          "durationTicks": 542,
          "midi": 35,
          "name": "B1",
          "ticks": 72704,
          "time": 30.432942999999998,
          "velocity": 0.5433070866141733
        },
        {
          "duration": 0.2101306308593749,
          "durationTicks": 502,
          "midi": 38,
          "name": "D2",
          "ticks": 73247,
          "time": 30.660235694335938,
          "velocity": 0.5039370078740157
        },
        {
          "duration": 0.2143164999999989,
          "durationTicks": 512,
          "midi": 35,
          "name": "B1",
          "ticks": 73750,
          "time": 30.870784912109375,
          "velocity": 0.5039370078740157
        },
        {
          "duration": 0.21389791308593686,
          "durationTicks": 511,
          "midi": 42,
          "name": "F#2",
          "ticks": 73751,
          "time": 30.871203499023437,
          "velocity": 0.5039370078740157
        },
        {
          "duration": 0.21306073925781277,
          "durationTicks": 509,
          "midi": 38,
          "name": "D2",
          "ticks": 74263,
          "time": 31.085519999023436,
          "velocity": 0.5039370078740157
        },
        {
          "duration": 0.2009217187499992,
          "durationTicks": 480,
          "midi": 42,
          "name": "F#2",
          "ticks": 74292,
          "time": 31.09765901953125,
          "velocity": 0.5039370078740157
        },
        {
          "duration": 0.20552617480468882,
          "durationTicks": 491,
          "midi": 42,
          "name": "F#2",
          "ticks": 74773,
          "time": 31.29899932519531,
          "velocity": 0.5039370078740157
        },
        {
          "duration": 0.21347932617187482,
          "durationTicks": 510,
          "midi": 46,
          "name": "A#2",
          "ticks": 75265,
          "time": 31.504944086914062,
          "velocity": 0.5039370078740157
        },
        {
          "duration": 0.4282144130859358,
          "durationTicks": 1023,
          "midi": 42,
          "name": "F#2",
          "ticks": 75776,
          "time": 31.718842,
          "velocity": 0.5433070866141733
        },
        {
          "duration": 0.2172466083984368,
          "durationTicks": 519,
          "midi": 35,
          "name": "B1",
          "ticks": 75782,
          "time": 31.721353521484374,
          "velocity": 0.5433070866141733
        },
        {
          "duration": 0.2080376962890611,
          "durationTicks": 497,
          "midi": 35,
          "name": "B1",
          "ticks": 76302,
          "time": 31.939018716796873,
          "velocity": 0.5039370078740157
        },
        {
          "duration": 0.21892095605468853,
          "durationTicks": 523,
          "midi": 38,
          "name": "D2",
          "ticks": 76802,
          "time": 32.148312173828124,
          "velocity": 0.5118110236220472
        },
        {
          "duration": 0.20678193554687851,
          "durationTicks": 494,
          "midi": 38,
          "name": "D2",
          "ticks": 77329,
          "time": 32.36890747753906,
          "velocity": 0.5039370078740157
        },
        {
          "duration": 0.2235254121093746,
          "durationTicks": 534,
          "midi": 38,
          "name": "D2",
          "ticks": 77826,
          "time": 32.57694517382812,
          "velocity": 0.5118110236220472
        },
        {
          "duration": 0.20385182714844063,
          "durationTicks": 487,
          "midi": 38,
          "name": "D2",
          "ticks": 78363,
          "time": 32.801726346679686,
          "velocity": 0.5039370078740157
        },
        {
          "duration": 0.21264215234375428,
          "durationTicks": 508,
          "midi": 38,
          "name": "D2",
          "ticks": 78851,
          "time": 33.005996760742185,
          "velocity": 0.5039370078740157
        },
        {
          "duration": 0.21975812988281263,
          "durationTicks": 525,
          "midi": 42,
          "name": "F#2",
          "ticks": 79360,
          "time": 33.2190575,
          "velocity": 0.5433070866141733
        },
        {
          "duration": 0.21975812988281263,
          "durationTicks": 525,
          "midi": 35,
          "name": "B1",
          "ticks": 79360,
          "time": 33.2190575,
          "velocity": 0.5433070866141733
        },
        {
          "duration": 0.2080376962890611,
          "durationTicks": 497,
          "midi": 38,
          "name": "D2",
          "ticks": 79886,
          "time": 33.439234216796876,
          "velocity": 0.5039370078740157
        },
        {
          "duration": 0.21975812988281263,
          "durationTicks": 525,
          "midi": 35,
          "name": "B1",
          "ticks": 80384,
          "time": 33.647690499999996,
          "velocity": 0.5118110236220472
        },
        {
          "duration": 0.21892095605468143,
          "durationTicks": 523,
          "midi": 42,
          "name": "F#2",
          "ticks": 80386,
          "time": 33.64852767382813,
          "velocity": 0.5118110236220472
        },
        {
          "duration": 0.2080376962890611,
          "durationTicks": 497,
          "midi": 38,
          "name": "D2",
          "ticks": 80910,
          "time": 33.867867216796874,
          "velocity": 0.5039370078740157
        },
        {
          "duration": 0.19589867578125109,
          "durationTicks": 468,
          "midi": 42,
          "name": "F#2",
          "ticks": 80939,
          "time": 33.880006237304684,
          "velocity": 0.5039370078740157
        },
        {
          "duration": 0.2243625859374987,
          "durationTicks": 536,
          "midi": 35,
          "name": "B1",
          "ticks": 81408,
          "time": 34.0763235,
          "velocity": 0.5118110236220472
        },
        {
          "duration": 0.20468900097656473,
          "durationTicks": 489,
          "midi": 42,
          "name": "F#2",
          "ticks": 81945,
          "time": 34.30110467285156,
          "velocity": 0.5039370078740157
        },
        {
          "duration": 0.21264215234374717,
          "durationTicks": 508,
          "midi": 46,
          "name": "A#2",
          "ticks": 82435,
          "time": 34.50621226074219,
          "velocity": 0.5039370078740157
        },
        {
          "duration": 0.4282144130859322,
          "durationTicks": 1023,
          "midi": 42,
          "name": "F#2",
          "ticks": 82944,
          "time": 34.719273,
          "velocity": 0.5433070866141733
        },
        {
          "duration": 0.21515367382812656,
          "durationTicks": 514,
          "midi": 35,
          "name": "B1",
          "ticks": 82955,
          "time": 34.72387745605469,
          "velocity": 0.5433070866141733
        },
        {
          "duration": 0.2080376962890611,
          "durationTicks": 497,
          "midi": 35,
          "name": "B1",
          "ticks": 83470,
          "time": 34.93944971679687,
          "velocity": 0.5039370078740157
        },
        {
          "duration": 0.21515367382812656,
          "durationTicks": 514,
          "midi": 38,
          "name": "D2",
          "ticks": 83979,
          "time": 35.152510456054685,
          "velocity": 0.5118110236220472
        },
        {
          "duration": 0.20510758789063033,
          "durationTicks": 490,
          "midi": 38,
          "name": "D2",
          "ticks": 84501,
          "time": 35.37101282519531,
          "velocity": 0.5039370078740157
        },
        {
          "duration": 0.21389791308593686,
          "durationTicks": 511,
          "midi": 38,
          "name": "D2",
          "ticks": 85017,
          "time": 35.58700367285156,
          "velocity": 0.5118110236220472
        },
        {
          "duration": 0.19631726269531669,
          "durationTicks": 469,
          "midi": 38,
          "name": "D2",
          "ticks": 85549,
          "time": 35.80969191113281,
          "velocity": 0.5039370078740157
        },
        {
          "duration": 0.21264215234375428,
          "durationTicks": 508,
          "midi": 38,
          "name": "D2",
          "ticks": 86019,
          "time": 36.006427760742184,
          "velocity": 0.5039370078740157
        },
        {
          "duration": 0.22687410742187808,
          "durationTicks": 542,
          "midi": 42,
          "name": "F#2",
          "ticks": 86528,
          "time": 36.2194885,
          "velocity": 0.5433070866141733
        },
        {
          "duration": 0.22687410742187808,
          "durationTicks": 542,
          "midi": 35,
          "name": "B1",
          "ticks": 86528,
          "time": 36.2194885,
          "velocity": 0.5433070866141733
        },
        {
          "duration": 0.2101306308593749,
          "durationTicks": 502,
          "midi": 38,
          "name": "D2",
          "ticks": 87071,
          "time": 36.446781194335934,
          "velocity": 0.5039370078740157
        },
        {
          "duration": 0.21431650000000246,
          "durationTicks": 512,
          "midi": 35,
          "name": "B1",
          "ticks": 87574,
          "time": 36.657330412109374,
          "velocity": 0.5039370078740157
        },
        {
          "duration": 0.20636334863281292,
          "durationTicks": 493,
          "midi": 42,
          "name": "F#2",
          "ticks": 87593,
          "time": 36.665283563476564,
          "velocity": 0.5039370078740157
        },
        {
          "duration": 0.21306073925781277,
          "durationTicks": 509,
          "midi": 38,
          "name": "D2",
          "ticks": 88087,
          "time": 36.872065499023435,
          "velocity": 0.5039370078740157
        },
        {
          "duration": 0.20510758789062322,
          "durationTicks": 490,
          "midi": 42,
          "name": "F#2",
          "ticks": 88106,
          "time": 36.880018650390625,
          "velocity": 0.5039370078740157
        },
        {
          "duration": 0.20552617480468882,
          "durationTicks": 491,
          "midi": 42,
          "name": "F#2",
          "ticks": 88597,
          "time": 37.08554482519531,
          "velocity": 0.5039370078740157
        },
        {
          "duration": 0.21347932617187837,
          "durationTicks": 510,
          "midi": 46,
          "name": "A#2",
          "ticks": 89089,
          "time": 37.29148958691406,
          "velocity": 0.5039370078740157
        },
        {
          "duration": 0.4282144130859393,
          "durationTicks": 1023,
          "midi": 42,
          "name": "F#2",
          "ticks": 89600,
          "time": 37.5053875,
          "velocity": 0.5433070866141733
        },
        {
          "duration": 0.21096780468749898,
          "durationTicks": 504,
          "midi": 35,
          "name": "B1",
          "ticks": 89621,
          "time": 37.51417782519531,
          "velocity": 0.5433070866141733
        },
        {
          "duration": 0.2080376962890611,
          "durationTicks": 497,
          "midi": 35,
          "name": "B1",
          "ticks": 90126,
          "time": 37.725564216796876,
          "velocity": 0.5039370078740157
        },
        {
          "duration": 0.21222356542968157,
          "durationTicks": 507,
          "midi": 38,
          "name": "D2",
          "ticks": 90642,
          "time": 37.94155506445313,
          "velocity": 0.5118110236220472
        },
        {
          "duration": 0.19589867578125109,
          "durationTicks": 468,
          "midi": 38,
          "name": "D2",
          "ticks": 91179,
          "time": 38.166336237304684,
          "velocity": 0.5039370078740157
        },
        {
          "duration": 0.21682802148437474,
          "durationTicks": 518,
          "midi": 38,
          "name": "D2",
          "ticks": 91666,
          "time": 38.370188064453124,
          "velocity": 0.5118110236220472
        },
        {
          "duration": 0.20050313183593715,
          "durationTicks": 479,
          "midi": 38,
          "name": "D2",
          "ticks": 92195,
          "time": 38.591620541992185,
          "velocity": 0.5039370078740157
        },
        {
          "duration": 0.21264215234374717,
          "durationTicks": 508,
          "midi": 38,
          "name": "D2",
          "ticks": 92675,
          "time": 38.79254226074219,
          "velocity": 0.5039370078740157
        },
        {
          "duration": 0.21975812988281263,
          "durationTicks": 525,
          "midi": 42,
          "name": "F#2",
          "ticks": 93184,
          "time": 39.005603,
          "velocity": 0.5433070866141733
        },
        {
          "duration": 0.21975812988281263,
          "durationTicks": 525,
          "midi": 35,
          "name": "B1",
          "ticks": 93184,
          "time": 39.005603,
          "velocity": 0.5433070866141733
        },
        {
          "duration": 0.2080376962890611,
          "durationTicks": 497,
          "midi": 38,
          "name": "D2",
          "ticks": 93710,
          "time": 39.22577971679687,
          "velocity": 0.5039370078740157
        },
        {
          "duration": 0.21975812988281263,
          "durationTicks": 525,
          "midi": 35,
          "name": "B1",
          "ticks": 94208,
          "time": 39.434236,
          "velocity": 0.5118110236220472
        },
        {
          "duration": 0.21515367382812656,
          "durationTicks": 514,
          "midi": 42,
          "name": "F#2",
          "ticks": 94219,
          "time": 39.438840456054685,
          "velocity": 0.5118110236220472
        },
        {
          "duration": 0.2080376962890611,
          "durationTicks": 497,
          "midi": 38,
          "name": "D2",
          "ticks": 94734,
          "time": 39.65441271679688,
          "velocity": 0.5039370078740157
        },
        {
          "duration": 0.19631726269531669,
          "durationTicks": 469,
          "midi": 42,
          "name": "F#2",
          "ticks": 94762,
          "time": 39.66613315039062,
          "velocity": 0.5039370078740157
        },
        {
          "duration": 0.2243625859375058,
          "durationTicks": 536,
          "midi": 35,
          "name": "B1",
          "ticks": 95232,
          "time": 39.862868999999996,
          "velocity": 0.5118110236220472
        },
        {
          "duration": 0.20468900097656473,
          "durationTicks": 489,
          "midi": 42,
          "name": "F#2",
          "ticks": 95769,
          "time": 40.08765017285156,
          "velocity": 0.5039370078740157
        },
        {
          "duration": 0.21264215234375428,
          "durationTicks": 508,
          "midi": 46,
          "name": "A#2",
          "ticks": 96259,
          "time": 40.292757760742184,
          "velocity": 0.5039370078740157
        },
        {
          "duration": 0.4282144130859393,
          "durationTicks": 1023,
          "midi": 42,
          "name": "F#2",
          "ticks": 96768,
          "time": 40.5058185,
          "velocity": 0.5433070866141733
        },
        {
          "duration": 0.2076191093749955,
          "durationTicks": 496,
          "midi": 35,
          "name": "B1",
          "ticks": 96797,
          "time": 40.517957520507814,
          "velocity": 0.5433070866141733
        },
        {
          "duration": 0.2080376962890611,
          "durationTicks": 497,
          "midi": 35,
          "name": "B1",
          "ticks": 97294,
          "time": 40.725995216796875,
          "velocity": 0.5039370078740157
        },
        {
          "duration": 0.21138639160156458,
          "durationTicks": 505,
          "midi": 38,
          "name": "D2",
          "ticks": 97812,
          "time": 40.94282323828125,
          "velocity": 0.5118110236220472
        },
        {
          "duration": 0.20552617480468172,
          "durationTicks": 491,
          "midi": 38,
          "name": "D2",
          "ticks": 98324,
          "time": 41.15713973828125,
          "velocity": 0.5039370078740157
        },
        {
          "duration": 0.22101389062500232,
          "durationTicks": 528,
          "midi": 38,
          "name": "D2",
          "ticks": 98824,
          "time": 41.366433195312496,
          "velocity": 0.5118110236220472
        },
        {
          "duration": 0.19882878417968186,
          "durationTicks": 475,
          "midi": 38,
          "name": "D2",
          "ticks": 99367,
          "time": 41.59372588964844,
          "velocity": 0.5039370078740157
        },
        {
          "duration": 0.21264215234374717,
          "durationTicks": 508,
          "midi": 38,
          "name": "D2",
          "ticks": 99843,
          "time": 41.79297326074219,
          "velocity": 0.5039370078740157
        },
        {
          "duration": 0.22687410742187097,
          "durationTicks": 542,
          "midi": 42,
          "name": "F#2",
          "ticks": 100352,
          "time": 42.006034,
          "velocity": 0.5433070866141733
        },
        {
          "duration": 0.22687410742187097,
          "durationTicks": 542,
          "midi": 35,
          "name": "B1",
          "ticks": 100352,
          "time": 42.006034,
          "velocity": 0.5433070866141733
        },
        {
          "duration": 0.2101306308593749,
          "durationTicks": 502,
          "midi": 38,
          "name": "D2",
          "ticks": 100895,
          "time": 42.233326694335936,
          "velocity": 0.5039370078740157
        },
        {
          "duration": 0.21431649999999536,
          "durationTicks": 512,
          "midi": 35,
          "name": "B1",
          "ticks": 101398,
          "time": 42.44387591210938,
          "velocity": 0.5039370078740157
        },
        {
          "duration": 0.20385182714843353,
          "durationTicks": 487,
          "midi": 42,
          "name": "F#2",
          "ticks": 101423,
          "time": 42.45434058496094,
          "velocity": 0.5039370078740157
        },
        {
          "duration": 0.21306073925781277,
          "durationTicks": 509,
          "midi": 38,
          "name": "D2",
          "ticks": 101911,
          "time": 42.65861099902344,
          "velocity": 0.5039370078740157
        },
        {
          "duration": 0.20678193554687851,
          "durationTicks": 494,
          "midi": 42,
          "name": "F#2",
          "ticks": 101926,
          "time": 42.66488980273437,
          "velocity": 0.5039370078740157
        },
        {
          "duration": 0.20552617480468882,
          "durationTicks": 491,
          "midi": 42,
          "name": "F#2",
          "ticks": 102421,
          "time": 42.87209032519531,
          "velocity": 0.5039370078740157
        },
        {
          "duration": 0.21347932617187126,
          "durationTicks": 510,
          "midi": 46,
          "name": "A#2",
          "ticks": 102913,
          "time": 43.07803508691406,
          "velocity": 0.5039370078740157
        },
        {
          "duration": 0.4282144130859393,
          "durationTicks": 1023,
          "midi": 42,
          "name": "F#2",
          "ticks": 103424,
          "time": 43.291933,
          "velocity": 0.5433070866141733
        },
        {
          "duration": 0.21808378222656444,
          "durationTicks": 521,
          "midi": 35,
          "name": "B1",
          "ticks": 103428,
          "time": 43.29360734765625,
          "velocity": 0.5433070866141733
        },
        {
          "duration": 0.2080376962890682,
          "durationTicks": 497,
          "midi": 35,
          "name": "B1",
          "ticks": 103950,
          "time": 43.51210971679687,
          "velocity": 0.5039370078740157
        },
        {
          "duration": 0.21557226074218505,
          "durationTicks": 515,
          "midi": 38,
          "name": "D2",
          "ticks": 104458,
          "time": 43.724751869140626,
          "velocity": 0.5118110236220472
        },
        {
          "duration": 0.20050313183593715,
          "durationTicks": 479,
          "midi": 38,
          "name": "D2",
          "ticks": 104992,
          "time": 43.94827728125,
          "velocity": 0.5039370078740157
        },
        {
          "duration": 0.21347932617187837,
          "durationTicks": 510,
          "midi": 38,
          "name": "D2",
          "ticks": 105498,
          "time": 44.16008225976562,
          "velocity": 0.5118110236220472
        },
        {
          "duration": 0.20050313183593715,
          "durationTicks": 479,
          "midi": 38,
          "name": "D2",
          "ticks": 106019,
          "time": 44.37816604199219,
          "velocity": 0.5039370078740157
        },
        {
          "duration": 0.21264215234375428,
          "durationTicks": 508,
          "midi": 38,
          "name": "D2",
          "ticks": 106499,
          "time": 44.57908776074218,
          "velocity": 0.5039370078740157
        },
        {
          "duration": 0.21975812988281263,
          "durationTicks": 525,
          "midi": 42,
          "name": "F#2",
          "ticks": 107008,
          "time": 44.792148499999996,
          "velocity": 0.5433070866141733
        },
        {
          "duration": 0.21975812988281263,
          "durationTicks": 525,
          "midi": 35,
          "name": "B1",
          "ticks": 107008,
          "time": 44.792148499999996,
          "velocity": 0.5433070866141733
        },
        {
          "duration": 0.2080376962890611,
          "durationTicks": 497,
          "midi": 38,
          "name": "D2",
          "ticks": 107534,
          "time": 45.012325216796874,
          "velocity": 0.5039370078740157
        },
        {
          "duration": 0.21975812988281263,
          "durationTicks": 525,
          "midi": 35,
          "name": "B1",
          "ticks": 108032,
          "time": 45.2207815,
          "velocity": 0.5118110236220472
        },
        {
          "duration": 0.21766519531250594,
          "durationTicks": 520,
          "midi": 42,
          "name": "F#2",
          "ticks": 108037,
          "time": 45.22287443457031,
          "velocity": 0.5118110236220472
        },
        {
          "duration": 0.2080376962890611,
          "durationTicks": 497,
          "midi": 38,
          "name": "D2",
          "ticks": 108558,
          "time": 45.44095821679687,
          "velocity": 0.5039370078740157
        },
        {
          "duration": 0.20636334863281292,
          "durationTicks": 493,
          "midi": 42,
          "name": "F#2",
          "ticks": 108562,
          "time": 45.44263256445312,
          "velocity": 0.5039370078740157
        },
        {
          "duration": 0.2243625859374987,
          "durationTicks": 536,
          "midi": 35,
          "name": "B1",
          "ticks": 109056,
          "time": 45.6494145,
          "velocity": 0.5118110236220472
        },
        {
          "duration": 0.20468900097655762,
          "durationTicks": 489,
          "midi": 42,
          "name": "F#2",
          "ticks": 109593,
          "time": 45.87419567285156,
          "velocity": 0.5039370078740157
        },
        {
          "duration": 0.21264215234374717,
          "durationTicks": 508,
          "midi": 46,
          "name": "A#2",
          "ticks": 110083,
          "time": 46.079303260742186,
          "velocity": 0.5039370078740157
        },
        {
          "duration": 0.4282144130859393,
          "durationTicks": 1023,
          "midi": 42,
          "name": "F#2",
          "ticks": 110592,
          "time": 46.292364,
          "velocity": 0.5433070866141733
        },
        {
          "duration": 0.21850236914062293,
          "durationTicks": 522,
          "midi": 35,
          "name": "B1",
          "ticks": 110595,
          "time": 46.29361976074219,
          "velocity": 0.5433070866141733
        },
        {
          "duration": 0.2080376962890682,
          "durationTicks": 497,
          "midi": 35,
          "name": "B1",
          "ticks": 111118,
          "time": 46.51254071679687,
          "velocity": 0.5039370078740157
        },
        {
          "duration": 0.2088748701171852,
          "durationTicks": 499,
          "midi": 38,
          "name": "D2",
          "ticks": 111642,
          "time": 46.731880259765624,
          "velocity": 0.5118110236220472
        },
        {
          "duration": 0.20301465332030944,
          "durationTicks": 485,
          "midi": 38,
          "name": "D2",
          "ticks": 112154,
          "time": 46.94619675976563,
          "velocity": 0.5039370078740157
        },
        {
          "duration": 0.21222356542968868,
          "durationTicks": 507,
          "midi": 38,
          "name": "D2",
          "ticks": 112669,
          "time": 47.16176902050781,
          "velocity": 0.5118110236220472
        },
        {
          "duration": 0.20343324023437503,
          "durationTicks": 486,
          "midi": 38,
          "name": "D2",
          "ticks": 113180,
          "time": 47.37566693359375,
          "velocity": 0.5039370078740157
        },
        {
          "duration": 0.21264215234374717,
          "durationTicks": 508,
          "midi": 38,
          "name": "D2",
          "ticks": 113667,
          "time": 47.57951876074219,
          "velocity": 0.5039370078740157
        },
        {
          "duration": 0.22687410742187808,
          "durationTicks": 542,
          "midi": 42,
          "name": "F#2",
          "ticks": 114176,
          "time": 47.792579499999995,
          "velocity": 0.5433070866141733
        },
        {
          "duration": 0.22687410742187808,
          "durationTicks": 542,
          "midi": 35,
          "name": "B1",
          "ticks": 114176,
          "time": 47.792579499999995,
          "velocity": 0.5433070866141733
        },
        {
          "duration": 0.2101306308593749,
          "durationTicks": 502,
          "midi": 38,
          "name": "D2",
          "ticks": 114719,
          "time": 48.01987219433594,
          "velocity": 0.5039370078740157
        },
        {
          "duration": 0.21431650000000246,
          "durationTicks": 512,
          "midi": 35,
          "name": "B1",
          "ticks": 115222,
          "time": 48.23042141210937,
          "velocity": 0.5039370078740157
        },
        {
          "duration": 0.20510758789062322,
          "durationTicks": 490,
          "midi": 42,
          "name": "F#2",
          "ticks": 115244,
          "time": 48.23963032421875,
          "velocity": 0.5039370078740157
        },
        {
          "duration": 0.21306073925781277,
          "durationTicks": 509,
          "midi": 38,
          "name": "D2",
          "ticks": 115735,
          "time": 48.44515649902343,
          "velocity": 0.5039370078740157
        },
        {
          "duration": 0.21096780468749898,
          "durationTicks": 504,
          "midi": 42,
          "name": "F#2",
          "ticks": 115740,
          "time": 48.44724943359375,
          "velocity": 0.5039370078740157
        },
        {
          "duration": 0.20552617480468882,
          "durationTicks": 491,
          "midi": 42,
          "name": "F#2",
          "ticks": 116245,
          "time": 48.65863582519531,
          "velocity": 0.5039370078740157
        },
        {
          "duration": 0.21347932617187837,
          "durationTicks": 510,
          "midi": 46,
          "name": "A#2",
          "ticks": 116737,
          "time": 48.86458058691406,
          "velocity": 0.5039370078740157
        },
        {
          "duration": 0.4282144130859393,
          "durationTicks": 1023,
          "midi": 42,
          "name": "F#2",
          "ticks": 117248,
          "time": 49.078478499999996,
          "velocity": 0.5433070866141733
        },
        {
          "duration": 0.2076191093749955,
          "durationTicks": 496,
          "midi": 35,
          "name": "B1",
          "ticks": 117277,
          "time": 49.09061752050781,
          "velocity": 0.5433070866141733
        },
        {
          "duration": 0.2080376962890611,
          "durationTicks": 497,
          "midi": 35,
          "name": "B1",
          "ticks": 117774,
          "time": 49.298655216796874,
          "velocity": 0.5039370078740157
        },
        {
          "duration": 0.2088748701171923,
          "durationTicks": 499,
          "midi": 38,
          "name": "D2",
          "ticks": 118298,
          "time": 49.51799475976562,
          "velocity": 0.5118110236220472
        },
        {
          "duration": 0.2067819355468714,
          "durationTicks": 494,
          "midi": 38,
          "name": "D2",
          "ticks": 118801,
          "time": 49.72854397753906,
          "velocity": 0.5039370078740157
        },
        {
          "duration": 0.2222696513671849,
          "durationTicks": 531,
          "midi": 38,
          "name": "D2",
          "ticks": 119301,
          "time": 49.93783743457031,
          "velocity": 0.5118110236220472
        },
        {
          "duration": 0.19757302343749927,
          "durationTicks": 472,
          "midi": 38,
          "name": "D2",
          "ticks": 119850,
          "time": 50.16764165039062,
          "velocity": 0.5039370078740157
        },
        {
          "duration": 0.21264215234374717,
          "durationTicks": 508,
          "midi": 38,
          "name": "D2",
          "ticks": 120323,
          "time": 50.365633260742186,
          "velocity": 0.5039370078740157
        },
        {
          "duration": 0.21975812988281263,
          "durationTicks": 525,
          "midi": 42,
          "name": "F#2",
          "ticks": 120832,
          "time": 50.578694,
          "velocity": 0.5433070866141733
        },
        {
          "duration": 0.21975812988281263,
          "durationTicks": 525,
          "midi": 35,
          "name": "B1",
          "ticks": 120832,
          "time": 50.578694,
          "velocity": 0.5433070866141733
        },
        {
          "duration": 0.2080376962890682,
          "durationTicks": 497,
          "midi": 38,
          "name": "D2",
          "ticks": 121358,
          "time": 50.79887071679687,
          "velocity": 0.5039370078740157
        },
        {
          "duration": 0.21975812988281263,
          "durationTicks": 525,
          "midi": 35,
          "name": "B1",
          "ticks": 121856,
          "time": 51.007327,
          "velocity": 0.5118110236220472
        },
        {
          "duration": 0.21473508691406096,
          "durationTicks": 513,
          "midi": 42,
          "name": "F#2",
          "ticks": 121868,
          "time": 51.01235004296875,
          "velocity": 0.5118110236220472
        },
        {
          "duration": 0.2080376962890611,
          "durationTicks": 497,
          "midi": 38,
          "name": "D2",
          "ticks": 122382,
          "time": 51.227503716796875,
          "velocity": 0.5039370078740157
        },
        {
          "duration": 0.20468900097656473,
          "durationTicks": 489,
          "midi": 42,
          "name": "F#2",
          "ticks": 122390,
          "time": 51.23085241210937,
          "velocity": 0.5039370078740157
        },
        {
          "duration": 0.2243625859374987,
          "durationTicks": 536,
          "midi": 35,
          "name": "B1",
          "ticks": 122880,
          "time": 51.43596,
          "velocity": 0.5118110236220472
        },
        {
          "duration": 0.20468900097656473,
          "durationTicks": 489,
          "midi": 42,
          "name": "F#2",
          "ticks": 123417,
          "time": 51.66074117285156,
          "velocity": 0.5039370078740157
        },
        {
          "duration": 0.21264215234374717,
          "durationTicks": 508,
          "midi": 46,
          "name": "A#2",
          "ticks": 123907,
          "time": 51.86584876074219,
          "velocity": 0.5039370078740157
        },
        {
          "duration": 0.4282144130859322,
          "durationTicks": 1023,
          "midi": 42,
          "name": "F#2",
          "ticks": 124416,
          "time": 52.0789095,
          "velocity": 0.5433070866141733
        },
        {
          "duration": 0.2109678046875061,
          "durationTicks": 504,
          "midi": 35,
          "name": "B1",
          "ticks": 124437,
          "time": 52.08769982519531,
          "velocity": 0.5433070866141733
        },
        {
          "duration": 0.2080376962890611,
          "durationTicks": 497,
          "midi": 35,
          "name": "B1",
          "ticks": 124942,
          "time": 52.29908621679687,
          "velocity": 0.5039370078740157
        },
        {
          "duration": 0.2092934570312508,
          "durationTicks": 500,
          "midi": 38,
          "name": "D2",
          "ticks": 125465,
          "time": 52.51800717285156,
          "velocity": 0.5118110236220472
        },
        {
          "duration": 0.20217747949219245,
          "durationTicks": 483,
          "midi": 38,
          "name": "D2",
          "ticks": 125980,
          "time": 52.733579433593746,
          "velocity": 0.5039370078740157
        },
        {
          "duration": 0.21264215234374717,
          "durationTicks": 508,
          "midi": 38,
          "name": "D2",
          "ticks": 126492,
          "time": 52.94789593359375,
          "velocity": 0.5118110236220472
        },
        {
          "duration": 0.1925499804687547,
          "durationTicks": 460,
          "midi": 38,
          "name": "D2",
          "ticks": 127030,
          "time": 53.17309569335937,
          "velocity": 0.5039370078740157
        },
        {
          "duration": 0.21264215234375428,
          "durationTicks": 508,
          "midi": 38,
          "name": "D2",
          "ticks": 127491,
          "time": 53.366064260742185,
          "velocity": 0.5039370078740157
        },
        {
          "duration": 0.22687410742187808,
          "durationTicks": 542,
          "midi": 42,
          "name": "F#2",
          "ticks": 128000,
          "time": 53.579125,
          "velocity": 0.5433070866141733
        },
        {
          "duration": 0.22687410742187808,
          "durationTicks": 542,
          "midi": 35,
          "name": "B1",
          "ticks": 128000,
          "time": 53.579125,
          "velocity": 0.5433070866141733
        },
        {
          "duration": 0.2101306308593749,
          "durationTicks": 502,
          "midi": 38,
          "name": "D2",
          "ticks": 128543,
          "time": 53.806417694335934,
          "velocity": 0.5039370078740157
        },
        {
          "duration": 0.21431649999999536,
          "durationTicks": 512,
          "midi": 35,
          "name": "B1",
          "ticks": 129046,
          "time": 54.016966912109375,
          "velocity": 0.5039370078740157
        },
        {
          "duration": 0.20510758789062322,
          "durationTicks": 490,
          "midi": 42,
          "name": "F#2",
          "ticks": 129068,
          "time": 54.02617582421875,
          "velocity": 0.5039370078740157
        },
        {
          "duration": 0.21306073925781277,
          "durationTicks": 509,
          "midi": 38,
          "name": "D2",
          "ticks": 129559,
          "time": 54.231701999023436,
          "velocity": 0.5039370078740157
        },
        {
          "duration": 0.20552617480468882,
          "durationTicks": 491,
          "midi": 42,
          "name": "F#2",
          "ticks": 129577,
          "time": 54.23923656347656,
          "velocity": 0.5039370078740157
        },
        {
          "duration": 0.20552617480468172,
          "durationTicks": 491,
          "midi": 42,
          "name": "F#2",
          "ticks": 130069,
          "time": 54.445181325195314,
          "velocity": 0.5039370078740157
        },
        {
          "duration": 0.21347932617187126,
          "durationTicks": 510,
          "midi": 46,
          "name": "A#2",
          "ticks": 130561,
          "time": 54.65112608691406,
          "velocity": 0.5039370078740157
        },
        {
          "duration": 0.4282144130859393,
          "durationTicks": 1023,
          "midi": 42,
          "name": "F#2",
          "ticks": 131072,
          "time": 54.865024,
          "velocity": 0.5433070866141733
        },
        {
          "duration": 0.2076191093750026,
          "durationTicks": 496,
          "midi": 35,
          "name": "B1",
          "ticks": 131101,
          "time": 54.87716302050781,
          "velocity": 0.5433070866141733
        },
        {
          "duration": 0.2080376962890611,
          "durationTicks": 497,
          "midi": 35,
          "name": "B1",
          "ticks": 131598,
          "time": 55.08520071679688,
          "velocity": 0.5039370078740157
        },
        {
          "duration": 0.21724660839843324,
          "durationTicks": 519,
          "midi": 38,
          "name": "D2",
          "ticks": 132102,
          "time": 55.296168521484375,
          "velocity": 0.5118110236220472
        },
        {
          "duration": 0.19631726269530958,
          "durationTicks": 469,
          "midi": 38,
          "name": "D2",
          "ticks": 132650,
          "time": 55.525554150390626,
          "velocity": 0.5039370078740157
        },
        {
          "duration": 0.22101389062500232,
          "durationTicks": 528,
          "midi": 38,
          "name": "D2",
          "ticks": 133128,
          "time": 55.7256386953125,
          "velocity": 0.5118110236220472
        },
        {
          "duration": 0.19715443652343367,
          "durationTicks": 471,
          "midi": 38,
          "name": "D2",
          "ticks": 133675,
          "time": 55.95460573730469,
          "velocity": 0.5039370078740157
        },
        {
          "duration": 0.21264215234374717,
          "durationTicks": 508,
          "midi": 38,
          "name": "D2",
          "ticks": 134147,
          "time": 56.15217876074219,
          "velocity": 0.5039370078740157
        },
        {
          "duration": 0.21975812988281263,
          "durationTicks": 525,
          "midi": 42,
          "name": "F#2",
          "ticks": 134656,
          "time": 56.3652395,
          "velocity": 0.5433070866141733
        },
        {
          "duration": 0.21975812988281263,
          "durationTicks": 525,
          "midi": 35,
          "name": "B1",
          "ticks": 134656,
          "time": 56.3652395,
          "velocity": 0.5433070866141733
        },
        {
          "duration": 0.2080376962890611,
          "durationTicks": 497,
          "midi": 38,
          "name": "D2",
          "ticks": 135182,
          "time": 56.58541621679687,
          "velocity": 0.5039370078740157
        },
        {
          "duration": 0.21975812988281263,
          "durationTicks": 525,
          "midi": 35,
          "name": "B1",
          "ticks": 135680,
          "time": 56.7938725,
          "velocity": 0.5118110236220472
        },
        {
          "duration": 0.2092934570312508,
          "durationTicks": 500,
          "midi": 42,
          "name": "F#2",
          "ticks": 135705,
          "time": 56.80433717285156,
          "velocity": 0.5118110236220472
        },
        {
          "duration": 0.2080376962890682,
          "durationTicks": 497,
          "midi": 38,
          "name": "D2",
          "ticks": 136206,
          "time": 57.01404921679687,
          "velocity": 0.5039370078740157
        },
        {
          "duration": 0.20427041406250623,
          "durationTicks": 488,
          "midi": 42,
          "name": "F#2",
          "ticks": 136215,
          "time": 57.01781649902343,
          "velocity": 0.5039370078740157
        },
        {
          "duration": 0.2243625859374987,
          "durationTicks": 536,
          "midi": 35,
          "name": "B1",
          "ticks": 136704,
          "time": 57.2225055,
          "velocity": 0.5118110236220472
        },
        {
          "duration": 0.20468900097656473,
          "durationTicks": 489,
          "midi": 42,
          "name": "F#2",
          "ticks": 137241,
          "time": 57.44728667285156,
          "velocity": 0.5039370078740157
        },
        {
          "duration": 0.21264215234375428,
          "durationTicks": 508,
          "midi": 46,
          "name": "A#2",
          "ticks": 137731,
          "time": 57.652394260742184,
          "velocity": 0.5039370078740157
        },
        {
          "duration": 0.4282144130859393,
          "durationTicks": 1023,
          "midi": 42,
          "name": "F#2",
          "ticks": 138240,
          "time": 57.865455,
          "velocity": 0.5433070866141733
        },
        {
          "duration": 0.21892095605468853,
          "durationTicks": 523,
          "midi": 35,
          "name": "B1",
          "ticks": 138242,
          "time": 57.86629217382812,
          "velocity": 0.5433070866141733
        },
        {
          "duration": 0.2080376962890611,
          "durationTicks": 497,
          "midi": 35,
          "name": "B1",
          "ticks": 138766,
          "time": 58.085631716796875,
          "velocity": 0.5039370078740157
        },
        {
          "duration": 0.21180497851562308,
          "durationTicks": 506,
          "midi": 38,
          "name": "D2",
          "ticks": 139283,
          "time": 58.302041151367185,
          "velocity": 0.5118110236220472
        },
        {
          "duration": 0.19799161035155777,
          "durationTicks": 473,
          "midi": 38,
          "name": "D2",
          "ticks": 139814,
          "time": 58.52431080273438,
          "velocity": 0.5039370078740157
        },
        {
          "duration": 0.2235254121093746,
          "durationTicks": 534,
          "midi": 38,
          "name": "D2",
          "ticks": 140290,
          "time": 58.723558173828124,
          "velocity": 0.5118110236220472
        },
        {
          "duration": 0.19673584960937518,
          "durationTicks": 470,
          "midi": 38,
          "name": "D2",
          "ticks": 140844,
          "time": 58.95545532421875,
          "velocity": 0.5039370078740157
        },
        {
          "duration": 0.21264215234374717,
          "durationTicks": 508,
          "midi": 38,
          "name": "D2",
          "ticks": 141315,
          "time": 59.15260976074219,
          "velocity": 0.5039370078740157
        },
        {
          "duration": 0.22687410742187097,
          "durationTicks": 542,
          "midi": 42,
          "name": "F#2",
          "ticks": 141824,
          "time": 59.3656705,
          "velocity": 0.5433070866141733
        },
        {
          "duration": 0.22687410742187097,
          "durationTicks": 542,
          "midi": 35,
          "name": "B1",
          "ticks": 141824,
          "time": 59.3656705,
          "velocity": 0.5433070866141733
        },
        {
          "duration": 0.2101306308593749,
          "durationTicks": 502,
          "midi": 38,
          "name": "D2",
          "ticks": 142367,
          "time": 59.59296319433594,
          "velocity": 0.5039370078740157
        },
        {
          "duration": 0.21431650000000246,
          "durationTicks": 512,
          "midi": 35,
          "name": "B1",
          "ticks": 142870,
          "time": 59.80351241210937,
          "velocity": 0.5039370078740157
        },
        {
          "duration": 0.2105492177734405,
          "durationTicks": 503,
          "midi": 42,
          "name": "F#2",
          "ticks": 142879,
          "time": 59.80727969433593,
          "velocity": 0.5039370078740157
        },
        {
          "duration": 0.21306073925781277,
          "durationTicks": 509,
          "midi": 38,
          "name": "D2",
          "ticks": 143383,
          "time": 60.01824749902344,
          "velocity": 0.5039370078740157
        },
        {
          "duration": 0.20134030566406835,
          "durationTicks": 481,
          "midi": 42,
          "name": "F#2",
          "ticks": 143411,
          "time": 60.02996793261718,
          "velocity": 0.5039370078740157
        },
        {
          "duration": 0.20552617480468882,
          "durationTicks": 491,
          "midi": 42,
          "name": "F#2",
          "ticks": 143893,
          "time": 60.23172682519531,
          "velocity": 0.5039370078740157
        },
        {
          "duration": 0.21347932617187126,
          "durationTicks": 510,
          "midi": 46,
          "name": "A#2",
          "ticks": 144385,
          "time": 60.437671586914064,
          "velocity": 0.5039370078740157
        },
        {
          "duration": 0.4282144130859322,
          "durationTicks": 1023,
          "midi": 42,
          "name": "F#2",
          "ticks": 144896,
          "time": 60.6515695,
          "velocity": 0.5433070866141733
        },
        {
          "duration": 0.2088748701171923,
          "durationTicks": 499,
          "midi": 35,
          "name": "B1",
          "ticks": 144922,
          "time": 60.66245275976562,
          "velocity": 0.5433070866141733
        },
        {
          "duration": 0.2080376962890611,
          "durationTicks": 497,
          "midi": 35,
          "name": "B1",
          "ticks": 145422,
          "time": 60.87174621679687,
          "velocity": 0.5039370078740157
        },
        {
          "duration": 0.2084562832031267,
          "durationTicks": 498,
          "midi": 38,
          "name": "D2",
          "ticks": 145947,
          "time": 61.091504346679685,
          "velocity": 0.5118110236220472
        },
        {
          "duration": 0.19631726269531669,
          "durationTicks": 469,
          "midi": 38,
          "name": "D2",
          "ticks": 146474,
          "time": 61.31209965039062,
          "velocity": 0.5039370078740157
        },
        {
          "duration": 0.21892095605468143,
          "durationTicks": 523,
          "midi": 38,
          "name": "D2",
          "ticks": 146957,
          "time": 61.514277129882814,
          "velocity": 0.5118110236220472
        },
        {
          "duration": 0.19589867578125109,
          "durationTicks": 468,
          "midi": 38,
          "name": "D2",
          "ticks": 147502,
          "time": 61.742406998046874,
          "velocity": 0.5039370078740157
        },
        {
          "duration": 0.21264215234375428,
          "durationTicks": 508,
          "midi": 38,
          "name": "D2",
          "ticks": 147971,
          "time": 61.938724260742184,
          "velocity": 0.5039370078740157
        },
        {
          "duration": 0.21975812988281263,
          "durationTicks": 525,
          "midi": 42,
          "name": "F#2",
          "ticks": 148480,
          "time": 62.151785,
          "velocity": 0.5433070866141733
        },
        {
          "duration": 0.21975812988281263,
          "durationTicks": 525,
          "midi": 35,
          "name": "B1",
          "ticks": 148480,
          "time": 62.151785,
          "velocity": 0.5433070866141733
        },
        {
          "duration": 0.2080376962890611,
          "durationTicks": 497,
          "midi": 38,
          "name": "D2",
          "ticks": 149006,
          "time": 62.371961716796875,
          "velocity": 0.5039370078740157
        },
        {
          "duration": 0.21975812988281263,
          "durationTicks": 525,
          "midi": 35,
          "name": "B1",
          "ticks": 149504,
          "time": 62.580417999999995,
          "velocity": 0.5118110236220472
        },
        {
          "duration": 0.21431649999999536,
          "durationTicks": 512,
          "midi": 42,
          "name": "F#2",
          "ticks": 149517,
          "time": 62.58585962988281,
          "velocity": 0.5118110236220472
        },
        {
          "duration": 0.2080376962890611,
          "durationTicks": 497,
          "midi": 38,
          "name": "D2",
          "ticks": 150030,
          "time": 62.80059471679687,
          "velocity": 0.5039370078740157
        },
        {
          "duration": 0.20385182714843353,
          "durationTicks": 487,
          "midi": 42,
          "name": "F#2",
          "ticks": 150040,
          "time": 62.8047805859375,
          "velocity": 0.5039370078740157
        },
        {
          "duration": 0.2243625859374987,
          "durationTicks": 536,
          "midi": 35,
          "name": "B1",
          "ticks": 150528,
          "time": 63.009051,
          "velocity": 0.5118110236220472
        },
        {
          "duration": 0.20468900097655762,
          "durationTicks": 489,
          "midi": 42,
          "name": "F#2",
          "ticks": 151065,
          "time": 63.233832172851564,
          "velocity": 0.5039370078740157
        },
        {
          "duration": 0.21264215234374717,
          "durationTicks": 508,
          "midi": 46,
          "name": "A#2",
          "ticks": 151555,
          "time": 63.43893976074219,
          "velocity": 0.5039370078740157
        },
        {
          "duration": 0.4282144130859393,
          "durationTicks": 1023,
          "midi": 42,
          "name": "F#2",
          "ticks": 152064,
          "time": 63.6520005,
          "velocity": 0.5433070866141733
        },
        {
          "duration": 0.21557226074219216,
          "durationTicks": 515,
          "midi": 35,
          "name": "B1",
          "ticks": 152074,
          "time": 63.65618636914062,
          "velocity": 0.5433070866141733
        },
        {
          "duration": 0.2080376962890682,
          "durationTicks": 497,
          "midi": 35,
          "name": "B1",
          "ticks": 152590,
          "time": 63.87217721679687,
          "velocity": 0.5039370078740157
        },
        {
          "duration": 0.21306073925781277,
          "durationTicks": 509,
          "midi": 38,
          "name": "D2",
          "ticks": 153104,
          "time": 64.087330890625,
          "velocity": 0.5118110236220472
        },
        {
          "duration": 0.19715443652343367,
          "durationTicks": 471,
          "midi": 38,
          "name": "D2",
          "ticks": 153640,
          "time": 64.3116934765625,
          "velocity": 0.5039370078740157
        },
        {
          "duration": 0.2231068251953019,
          "durationTicks": 533,
          "midi": 38,
          "name": "D2",
          "ticks": 154115,
          "time": 64.51052226074219,
          "velocity": 0.5118110236220472
        },
        {
          "duration": 0.1946429150390543,
          "durationTicks": 465,
          "midi": 38,
          "name": "D2",
          "ticks": 154673,
          "time": 64.74409375878906,
          "velocity": 0.5039370078740157
        },
        {
          "duration": 0.21264215234374717,
          "durationTicks": 508,
          "midi": 38,
          "name": "D2",
          "ticks": 155139,
          "time": 64.93915526074218,
          "velocity": 0.5039370078740157
        },
        {
          "duration": 0.22687410742187808,
          "durationTicks": 542,
          "midi": 42,
          "name": "F#2",
          "ticks": 155648,
          "time": 65.152216,
          "velocity": 0.5433070866141733
        },
        {
          "duration": 0.22687410742187808,
          "durationTicks": 542,
          "midi": 35,
          "name": "B1",
          "ticks": 155648,
          "time": 65.152216,
          "velocity": 0.5433070866141733
        },
        {
          "duration": 0.21013063085936778,
          "durationTicks": 502,
          "midi": 38,
          "name": "D2",
          "ticks": 156191,
          "time": 65.37950869433594,
          "velocity": 0.5039370078740157
        },
        {
          "duration": 0.21431649999999536,
          "durationTicks": 512,
          "midi": 42,
          "name": "F#2",
          "ticks": 156694,
          "time": 65.59005791210937,
          "velocity": 0.5039370078740157
        },
        {
          "duration": 0.21431649999999536,
          "durationTicks": 512,
          "midi": 35,
          "name": "B1",
          "ticks": 156694,
          "time": 65.59005791210937,
          "velocity": 0.5039370078740157
        },
        {
          "duration": 0.21306073925781277,
          "durationTicks": 509,
          "midi": 38,
          "name": "D2",
          "ticks": 157207,
          "time": 65.80479299902343,
          "velocity": 0.5039370078740157
        },
        {
          "duration": 0.20134030566406125,
          "durationTicks": 481,
          "midi": 42,
          "name": "F#2",
          "ticks": 157235,
          "time": 65.81651343261719,
          "velocity": 0.5039370078740157
        },
        {
          "duration": 0.20552617480468882,
          "durationTicks": 491,
          "midi": 42,
          "name": "F#2",
          "ticks": 157717,
          "time": 66.01827232519531,
          "velocity": 0.5039370078740157
        },
        {
          "duration": 0.21347932617186416,
          "durationTicks": 510,
          "midi": 46,
          "name": "A#2",
          "ticks": 158209,
          "time": 66.22421708691407,
          "velocity": 0.5039370078740157
        },
        {
          "duration": 0.4282144130859393,
          "durationTicks": 1023,
          "midi": 42,
          "name": "F#2",
          "ticks": 158720,
          "time": 66.438115,
          "velocity": 0.5433070866141733
        },
        {
          "duration": 0.2084562832031338,
          "durationTicks": 498,
          "midi": 35,
          "name": "B1",
          "ticks": 158747,
          "time": 66.44941684667968,
          "velocity": 0.5433070866141733
        },
        {
          "duration": 0.2080376962890682,
          "durationTicks": 497,
          "midi": 35,
          "name": "B1",
          "ticks": 159246,
          "time": 66.65829171679687,
          "velocity": 0.5039370078740157
        },
        {
          "duration": 0.21850236914062293,
          "durationTicks": 522,
          "midi": 38,
          "name": "D2",
          "ticks": 159747,
          "time": 66.86800376074218,
          "velocity": 0.5118110236220472
        },
        {
          "duration": 0.19673584960938229,
          "durationTicks": 470,
          "midi": 38,
          "name": "D2",
          "ticks": 160297,
          "time": 67.09822656347656,
          "velocity": 0.5039370078740157
        },
        {
          "duration": 0.21347932617187837,
          "durationTicks": 510,
          "midi": 38,
          "name": "D2",
          "ticks": 160794,
          "time": 67.30626425976563,
          "velocity": 0.5118110236220472
        },
        {
          "duration": 0.20217747949219245,
          "durationTicks": 483,
          "midi": 38,
          "name": "D2",
          "ticks": 161311,
          "time": 67.52267369433594,
          "velocity": 0.5039370078740157
        },
        {
          "duration": 0.21264215234376138,
          "durationTicks": 508,
          "midi": 38,
          "name": "D2",
          "ticks": 161795,
          "time": 67.72526976074218,
          "velocity": 0.5039370078740157
        },
        {
          "duration": 0.21975812988281973,
          "durationTicks": 525,
          "midi": 42,
          "name": "F#2",
          "ticks": 162304,
          "time": 67.93833049999999,
          "velocity": 0.5433070866141733
        },
        {
          "duration": 0.21975812988281973,
          "durationTicks": 525,
          "midi": 35,
          "name": "B1",
          "ticks": 162304,
          "time": 67.93833049999999,
          "velocity": 0.5433070866141733
        },
        {
          "duration": 0.208037696289054,
          "durationTicks": 497,
          "midi": 38,
          "name": "D2",
          "ticks": 162830,
          "time": 68.15850721679688,
          "velocity": 0.5039370078740157
        },
        {
          "duration": 0.21975812988281973,
          "durationTicks": 525,
          "midi": 42,
          "name": "F#2",
          "ticks": 163328,
          "time": 68.3669635,
          "velocity": 0.5118110236220472
        },
        {
          "duration": 0.21975812988281973,
          "durationTicks": 525,
          "midi": 35,
          "name": "B1",
          "ticks": 163328,
          "time": 68.3669635,
          "velocity": 0.5118110236220472
        },
        {
          "duration": 0.2080376962890682,
          "durationTicks": 497,
          "midi": 38,
          "name": "D2",
          "ticks": 163854,
          "time": 68.58714021679687,
          "velocity": 0.5039370078740157
        },
        {
          "duration": 0.20594476171875442,
          "durationTicks": 492,
          "midi": 42,
          "name": "F#2",
          "ticks": 163859,
          "time": 68.58923315136718,
          "velocity": 0.5039370078740157
        },
        {
          "duration": 0.2243625859374987,
          "durationTicks": 536,
          "midi": 35,
          "name": "B1",
          "ticks": 164352,
          "time": 68.7955965,
          "velocity": 0.5118110236220472
        },
        {
          "duration": 0.20468900097655762,
          "durationTicks": 489,
          "midi": 42,
          "name": "F#2",
          "ticks": 164889,
          "time": 69.02037767285157,
          "velocity": 0.5039370078740157
        },
        {
          "duration": 0.21264215234374717,
          "durationTicks": 508,
          "midi": 46,
          "name": "A#2",
          "ticks": 165379,
          "time": 69.22548526074219,
          "velocity": 0.5039370078740157
        },
        {
          "duration": 0.43909767285155965,
          "durationTicks": 1049,
          "midi": 49,
          "name": "C#3",
          "ticks": 165892,
          "time": 69.44022034765625,
          "velocity": 0.5433070866141733
        },
        {
          "duration": 0.6504840644531242,
          "durationTicks": 1554,
          "midi": 35,
          "name": "B1",
          "ticks": 165892,
          "time": 69.44022034765625,
          "velocity": 0.5433070866141733
        },
        {
          "duration": 0.4152382187500052,
          "durationTicks": 992,
          "midi": 46,
          "name": "A#2",
          "ticks": 166964,
          "time": 69.88894551953125,
          "velocity": 0.5118110236220472
        },
        {
          "duration": 0.20092171875000986,
          "durationTicks": 480,
          "midi": 35,
          "name": "B1",
          "ticks": 167476,
          "time": 70.10326201953124,
          "velocity": 0.5039370078740157
        },
        {
          "duration": 0.419005500976553,
          "durationTicks": 1001,
          "midi": 35,
          "name": "B1",
          "ticks": 167970,
          "time": 70.31004395507813,
          "velocity": 0.5275590551181102
        },
        {
          "duration": 0.4160753925781222,
          "durationTicks": 994,
          "midi": 46,
          "name": "A#2",
          "ticks": 167977,
          "time": 70.31297406347656,
          "velocity": 0.5275590551181102
        },
        {
          "duration": 0.4160753925781364,
          "durationTicks": 994,
          "midi": 46,
          "name": "A#2",
          "ticks": 168989,
          "time": 70.7365840205078,
          "velocity": 0.5118110236220472
        },
        {
          "duration": 0.41147093652344324,
          "durationTicks": 983,
          "midi": 35,
          "name": "B1",
          "ticks": 169000,
          "time": 70.7411884765625,
          "velocity": 0.5118110236220472
        },
        {
          "duration": 0.43909767285157386,
          "durationTicks": 1049,
          "midi": 35,
          "name": "B1",
          "ticks": 169988,
          "time": 71.15475234765624,
          "velocity": 0.5433070866141733
        },
        {
          "duration": 0.4336560429687495,
          "durationTicks": 1036,
          "midi": 46,
          "name": "A#2",
          "ticks": 170001,
          "time": 71.16019397753907,
          "velocity": 0.5433070866141733
        },
        {
          "duration": 0.42193560937499797,
          "durationTicks": 1008,
          "midi": 46,
          "name": "A#2",
          "ticks": 171044,
          "time": 71.59678012890625,
          "velocity": 0.5118110236220472
        },
        {
          "duration": 0.4169125664062534,
          "durationTicks": 996,
          "midi": 46,
          "name": "A#2",
          "ticks": 172071,
          "time": 72.02666888964843,
          "velocity": 0.5275590551181102
        },
        {
          "duration": 0.42319137011718055,
          "durationTicks": 1011,
          "midi": 46,
          "name": "A#2",
          "ticks": 173068,
          "time": 72.44400004296875,
          "velocity": 0.5118110236220472
        },
        {
          "duration": 0.43909767285155965,
          "durationTicks": 1049,
          "midi": 49,
          "name": "C#3",
          "ticks": 174084,
          "time": 72.86928434765625,
          "velocity": 0.5433070866141733
        },
        {
          "duration": 0.6391822177734383,
          "durationTicks": 1527,
          "midi": 35,
          "name": "B1",
          "ticks": 174111,
          "time": 72.88058619433593,
          "velocity": 0.5433070866141733
        },
        {
          "duration": 0.4215170224609466,
          "durationTicks": 1007,
          "midi": 46,
          "name": "A#2",
          "ticks": 175141,
          "time": 73.3117307158203,
          "velocity": 0.5118110236220472
        },
        {
          "duration": 0.20343324023437503,
          "durationTicks": 486,
          "midi": 35,
          "name": "B1",
          "ticks": 175662,
          "time": 73.52981449804687,
          "velocity": 0.5039370078740157
        },
        {
          "duration": 0.4202612617187498,
          "durationTicks": 1004,
          "midi": 35,
          "name": "B1",
          "ticks": 176159,
          "time": 73.73785219433593,
          "velocity": 0.5275590551181102
        },
        {
          "duration": 0.4164939794921878,
          "durationTicks": 995,
          "midi": 46,
          "name": "A#2",
          "ticks": 176168,
          "time": 73.74161947656249,
          "velocity": 0.5275590551181102
        },
        {
          "duration": 0.4215170224609466,
          "durationTicks": 1007,
          "midi": 46,
          "name": "A#2",
          "ticks": 177168,
          "time": 74.16020639062499,
          "velocity": 0.5118110236220472
        },
        {
          "duration": 0.41147093652344324,
          "durationTicks": 983,
          "midi": 35,
          "name": "B1",
          "ticks": 177192,
          "time": 74.1702524765625,
          "velocity": 0.5118110236220472
        },
        {
          "duration": 0.43909767285155965,
          "durationTicks": 1049,
          "midi": 35,
          "name": "B1",
          "ticks": 178180,
          "time": 74.58381634765625,
          "velocity": 0.5433070866141733
        },
        {
          "duration": 0.42737723925780813,
          "durationTicks": 1021,
          "midi": 46,
          "name": "A#2",
          "ticks": 178208,
          "time": 74.59553678125,
          "velocity": 0.5433070866141733
        },
        {
          "duration": 0.4202612617187498,
          "durationTicks": 1004,
          "midi": 46,
          "name": "A#2",
          "ticks": 179240,
          "time": 75.02751847656249,
          "velocity": 0.5118110236220472
        },
        {
          "duration": 0.421098435546881,
          "durationTicks": 1006,
          "midi": 46,
          "name": "A#2",
          "ticks": 180253,
          "time": 75.4515470205078,
          "velocity": 0.5275590551181102
        },
        {
          "duration": 0.42319137011718055,
          "durationTicks": 1011,
          "midi": 46,
          "name": "A#2",
          "ticks": 181260,
          "time": 75.87306404296875,
          "velocity": 0.5118110236220472
        },
        {
          "duration": 0.4282144130859393,
          "durationTicks": 1023,
          "midi": 49,
          "name": "C#3",
          "ticks": 182272,
          "time": 76.296674,
          "velocity": 0.5433070866141733
        },
        {
          "duration": 0.4177497402343846,
          "durationTicks": 998,
          "midi": 46,
          "name": "A#2",
          "ticks": 183321,
          "time": 76.73577167285156,
          "velocity": 0.5118110236220472
        },
        {
          "duration": 0.42235419628906357,
          "durationTicks": 1009,
          "midi": 46,
          "name": "A#2",
          "ticks": 184337,
          "time": 77.16105597753906,
          "velocity": 0.5118110236220472
        },
        {
          "duration": 0.42360995703124615,
          "durationTicks": 1012,
          "midi": 46,
          "name": "A#2",
          "ticks": 185369,
          "time": 77.59303767285157,
          "velocity": 0.5039370078740157
        },
        {
          "duration": 0.42737723925782234,
          "durationTicks": 1021,
          "midi": 46,
          "name": "A#2",
          "ticks": 186384,
          "time": 78.017903390625,
          "velocity": 0.5039370078740157
        },
        {
          "duration": 0.4290515869140705,
          "durationTicks": 1025,
          "midi": 46,
          "name": "A#2",
          "ticks": 187415,
          "time": 78.44946649902343,
          "velocity": 0.5039370078740157
        },
        {
          "duration": 0.4177497402343704,
          "durationTicks": 998,
          "midi": 46,
          "name": "A#2",
          "ticks": 188441,
          "time": 78.87893667285157,
          "velocity": 0.5039370078740157
        },
        {
          "duration": 0.4282144130859393,
          "durationTicks": 1023,
          "midi": 49,
          "name": "C#3",
          "ticks": 189440,
          "time": 79.297105,
          "velocity": 0.5433070866141733
        },
        {
          "duration": 0.42319137011718055,
          "durationTicks": 1011,
          "midi": 46,
          "name": "A#2",
          "ticks": 190476,
          "time": 79.73076104296875,
          "velocity": 0.5118110236220472
        },
        {
          "duration": 0.42528430468749434,
          "durationTicks": 1016,
          "midi": 46,
          "name": "A#2",
          "ticks": 191498,
          "time": 80.15855686914063,
          "velocity": 0.5118110236220472
        },
        {
          "duration": 0.42402854394531175,
          "durationTicks": 1013,
          "midi": 46,
          "name": "A#2",
          "ticks": 192536,
          "time": 80.59305008593749,
          "velocity": 0.5039370078740157
        },
        {
          "duration": 0.4198426748046842,
          "durationTicks": 1003,
          "midi": 46,
          "name": "A#2",
          "ticks": 193570,
          "time": 81.02586895507812,
          "velocity": 0.5039370078740157
        },
        {
          "duration": 0.4324002822265527,
          "durationTicks": 1033,
          "midi": 46,
          "name": "A#2",
          "ticks": 194575,
          "time": 81.44654880371094,
          "velocity": 0.5039370078740157
        },
        {
          "duration": 0.4177497402343704,
          "durationTicks": 998,
          "midi": 46,
          "name": "A#2",
          "ticks": 195609,
          "time": 81.87936767285156,
          "velocity": 0.5039370078740157
        },
        {
          "duration": 0.43909767285157386,
          "durationTicks": 1049,
          "midi": 49,
          "name": "C#3",
          "ticks": 196612,
          "time": 82.29921034765624,
          "velocity": 0.5433070866141733
        },
        {
          "duration": 0.6479725429687448,
          "durationTicks": 1548,
          "midi": 35,
          "name": "B1",
          "ticks": 196618,
          "time": 82.30172186914062,
          "velocity": 0.5433070866141733
        },
        {
          "duration": 0.414401044921874,
          "durationTicks": 990,
          "midi": 46,
          "name": "A#2",
          "ticks": 197686,
          "time": 82.74877269335937,
          "velocity": 0.5118110236220472
        },
        {
          "duration": 0.20552617480468882,
          "durationTicks": 491,
          "midi": 35,
          "name": "B1",
          "ticks": 198185,
          "time": 82.95764756347656,
          "velocity": 0.5039370078740157
        },
        {
          "duration": 0.4202612617187498,
          "durationTicks": 1004,
          "midi": 46,
          "name": "A#2",
          "ticks": 198687,
          "time": 83.16777819433594,
          "velocity": 0.5275590551181102
        },
        {
          "duration": 0.4148196318359396,
          "durationTicks": 991,
          "midi": 35,
          "name": "B1",
          "ticks": 198700,
          "time": 83.17321982421875,
          "velocity": 0.5275590551181102
        },
        {
          "duration": 0.4190055009765672,
          "durationTicks": 1001,
          "midi": 46,
          "name": "A#2",
          "ticks": 199702,
          "time": 83.59264391210937,
          "velocity": 0.5118110236220472
        },
        {
          "duration": 0.4190055009765672,
          "durationTicks": 1001,
          "midi": 35,
          "name": "B1",
          "ticks": 199702,
          "time": 83.59264391210937,
          "velocity": 0.5118110236220472
        },
        {
          "duration": 0.43909767285155965,
          "durationTicks": 1049,
          "midi": 35,
          "name": "B1",
          "ticks": 200708,
          "time": 84.01374234765625,
          "velocity": 0.5433070866141733
        },
        {
          "duration": 0.4328188691406183,
          "durationTicks": 1034,
          "midi": 46,
          "name": "A#2",
          "ticks": 200723,
          "time": 84.02002115136719,
          "velocity": 0.5433070866141733
        },
        {
          "duration": 0.4215170224609466,
          "durationTicks": 1007,
          "midi": 46,
          "name": "A#2",
          "ticks": 201765,
          "time": 84.4561887158203,
          "velocity": 0.5118110236220472
        },
        {
          "duration": 0.42277278320311495,
          "durationTicks": 1010,
          "midi": 46,
          "name": "A#2",
          "ticks": 202777,
          "time": 84.87979867285156,
          "velocity": 0.5275590551181102
        },
        {
          "duration": 0.42319137011719477,
          "durationTicks": 1011,
          "midi": 46,
          "name": "A#2",
          "ticks": 203788,
          "time": 85.30299004296874,
          "velocity": 0.5118110236220472
        },
        {
          "duration": 0.43909767285155965,
          "durationTicks": 1049,
          "midi": 49,
          "name": "C#3",
          "ticks": 204804,
          "time": 85.72827434765625,
          "velocity": 0.5433070866141733
        },
        {
          "duration": 0.6479725429687591,
          "durationTicks": 1548,
          "midi": 35,
          "name": "B1",
          "ticks": 204810,
          "time": 85.73078586914062,
          "velocity": 0.5433070866141733
        },
        {
          "duration": 0.42151702246093237,
          "durationTicks": 1007,
          "midi": 46,
          "name": "A#2",
          "ticks": 205861,
          "time": 86.17072071582031,
          "velocity": 0.5118110236220472
        },
        {
          "duration": 0.20971204394530218,
          "durationTicks": 501,
          "midi": 35,
          "name": "B1",
          "ticks": 206367,
          "time": 86.38252569433594,
          "velocity": 0.5039370078740157
        },
        {
          "duration": 0.42235419628906357,
          "durationTicks": 1009,
          "midi": 35,
          "name": "B1",
          "ticks": 206874,
          "time": 86.59474925976562,
          "velocity": 0.5275590551181102
        },
        {
          "duration": 0.41314528417969143,
          "durationTicks": 987,
          "midi": 46,
          "name": "A#2",
          "ticks": 206896,
          "time": 86.603958171875,
          "velocity": 0.5275590551181102
        },
        {
          "duration": 0.4135638710937428,
          "durationTicks": 988,
          "midi": 35,
          "name": "B1",
          "ticks": 207907,
          "time": 87.02714954199219,
          "velocity": 0.5118110236220472
        },
        {
          "duration": 0.41272669726562583,
          "durationTicks": 986,
          "midi": 46,
          "name": "A#2",
          "ticks": 207909,
          "time": 87.0279867158203,
          "velocity": 0.5118110236220472
        },
        {
          "duration": 0.43909767285155965,
          "durationTicks": 1049,
          "midi": 35,
          "name": "B1",
          "ticks": 208900,
          "time": 87.44280634765624,
          "velocity": 0.5433070866141733
        },
        {
          "duration": 0.43826049902342845,
          "durationTicks": 1047,
          "midi": 46,
          "name": "A#2",
          "ticks": 208902,
          "time": 87.44364352148438,
          "velocity": 0.5433070866141733
        },
        {
          "duration": 0.4169125664062534,
          "durationTicks": 996,
          "midi": 46,
          "name": "A#2",
          "ticks": 209968,
          "time": 87.889857171875,
          "velocity": 0.5118110236220472
        },
        {
          "duration": 0.4190055009765672,
          "durationTicks": 1001,
          "midi": 46,
          "name": "A#2",
          "ticks": 210978,
          "time": 88.31262995507812,
          "velocity": 0.5275590551181102
        },
        {
          "duration": 0.42319137011719477,
          "durationTicks": 1011,
          "midi": 46,
          "name": "A#2",
          "ticks": 211980,
          "time": 88.73205404296874,
          "velocity": 0.5118110236220472
        },
        {
          "duration": 0.4282144130859393,
          "durationTicks": 1023,
          "midi": 49,
          "name": "C#3",
          "ticks": 212992,
          "time": 89.155664,
          "velocity": 0.5433070866141733
        },
        {
          "duration": 0.4177497402343704,
          "durationTicks": 998,
          "midi": 46,
          "name": "A#2",
          "ticks": 214041,
          "time": 89.59476167285156,
          "velocity": 0.5118110236220472
        },
        {
          "duration": 0.42570289160155994,
          "durationTicks": 1017,
          "midi": 46,
          "name": "A#2",
          "ticks": 215049,
          "time": 90.01669728222656,
          "velocity": 0.5118110236220472
        },
        {
          "duration": 0.42151702246093237,
          "durationTicks": 1007,
          "midi": 46,
          "name": "A#2",
          "ticks": 216094,
          "time": 90.45412060742187,
          "velocity": 0.5039370078740157
        },
        {
          "duration": 0.42444713085937735,
          "durationTicks": 1014,
          "midi": 46,
          "name": "A#2",
          "ticks": 217111,
          "time": 90.87982349902343,
          "velocity": 0.5039370078740157
        },
        {
          "duration": 0.4303073476562389,
          "durationTicks": 1028,
          "midi": 46,
          "name": "A#2",
          "ticks": 218132,
          "time": 91.30720073828125,
          "velocity": 0.5039370078740157
        },
        {
          "duration": 0.4177497402343704,
          "durationTicks": 998,
          "midi": 46,
          "name": "A#2",
          "ticks": 219161,
          "time": 91.73792667285156,
          "velocity": 0.5039370078740157
        },
        {
          "duration": 0.4282144130859393,
          "durationTicks": 1023,
          "midi": 49,
          "name": "C#3",
          "ticks": 220160,
          "time": 92.156095,
          "velocity": 0.5433070866141733
        },
        {
          "duration": 0.4282144130859393,
          "durationTicks": 1023,
          "midi": 46,
          "name": "A#2",
          "ticks": 221184,
          "time": 92.584728,
          "velocity": 0.5118110236220472
        },
        {
          "duration": 0.42570289160155994,
          "durationTicks": 1017,
          "midi": 46,
          "name": "A#2",
          "ticks": 222217,
          "time": 93.01712828222657,
          "velocity": 0.5118110236220472
        },
        {
          "duration": 0.42444713085937735,
          "durationTicks": 1014,
          "midi": 46,
          "name": "A#2",
          "ticks": 223255,
          "time": 93.45162149902343,
          "velocity": 0.5039370078740157
        },
        {
          "duration": 0.4202612617187498,
          "durationTicks": 1004,
          "midi": 46,
          "name": "A#2",
          "ticks": 224289,
          "time": 93.88444036816406,
          "velocity": 0.5039370078740157
        },
        {
          "duration": 0.4324002822265669,
          "durationTicks": 1033,
          "midi": 46,
          "name": "A#2",
          "ticks": 225295,
          "time": 94.30553880371093,
          "velocity": 0.5039370078740157
        },
        {
          "duration": 0.4177497402343704,
          "durationTicks": 998,
          "midi": 46,
          "name": "A#2",
          "ticks": 226329,
          "time": 94.73835767285156,
          "velocity": 0.5039370078740157
        },
        {
          "duration": 0.43909767285155965,
          "durationTicks": 1049,
          "midi": 49,
          "name": "C#3",
          "ticks": 227332,
          "time": 95.15820034765625,
          "velocity": 0.5433070866141733
        },
        {
          "duration": 0.6467167822265623,
          "durationTicks": 1545,
          "midi": 35,
          "name": "B1",
          "ticks": 227341,
          "time": 95.16196762988281,
          "velocity": 0.5433070866141733
        },
        {
          "duration": 0.42193560937499797,
          "durationTicks": 1008,
          "midi": 46,
          "name": "A#2",
          "ticks": 228388,
          "time": 95.60022812890625,
          "velocity": 0.5118110236220472
        },
        {
          "duration": 0.2097120439453164,
          "durationTicks": 501,
          "midi": 35,
          "name": "B1",
          "ticks": 228895,
          "time": 95.81245169433593,
          "velocity": 0.5039370078740157
        },
        {
          "duration": 0.42444713085936314,
          "durationTicks": 1014,
          "midi": 46,
          "name": "A#2",
          "ticks": 229397,
          "time": 96.02258232519532,
          "velocity": 0.5275590551181102
        },
        {
          "duration": 0.4177497402343704,
          "durationTicks": 998,
          "midi": 35,
          "name": "B1",
          "ticks": 229413,
          "time": 96.02927971582031,
          "velocity": 0.5275590551181102
        },
        {
          "duration": 0.42277278320312917,
          "durationTicks": 1010,
          "midi": 46,
          "name": "A#2",
          "ticks": 230413,
          "time": 96.44786662988281,
          "velocity": 0.5118110236220472
        },
        {
          "duration": 0.4190055009765672,
          "durationTicks": 1001,
          "midi": 35,
          "name": "B1",
          "ticks": 230422,
          "time": 96.45163391210937,
          "velocity": 0.5118110236220472
        },
        {
          "duration": 0.43909767285155965,
          "durationTicks": 1049,
          "midi": 35,
          "name": "B1",
          "ticks": 231428,
          "time": 96.87273234765625,
          "velocity": 0.5433070866141733
        },
        {
          "duration": 0.4290515869140705,
          "durationTicks": 1025,
          "midi": 46,
          "name": "A#2",
          "ticks": 231452,
          "time": 96.88277843359374,
          "velocity": 0.5433070866141733
        },
        {
          "duration": 0.42319137011718055,
          "durationTicks": 1011,
          "midi": 46,
          "name": "A#2",
          "ticks": 232481,
          "time": 97.31350436816406,
          "velocity": 0.5118110236220472
        },
        {
          "duration": 0.414401044921874,
          "durationTicks": 990,
          "midi": 46,
          "name": "A#2",
          "ticks": 233517,
          "time": 97.74716041113281,
          "velocity": 0.5275590551181102
        },
        {
          "duration": 0.42319137011718055,
          "durationTicks": 1011,
          "midi": 46,
          "name": "A#2",
          "ticks": 234508,
          "time": 98.16198004296875,
          "velocity": 0.5118110236220472
        },
        {
          "duration": 0.43909767285155965,
          "durationTicks": 1049,
          "midi": 49,
          "name": "C#3",
          "ticks": 235524,
          "time": 98.58726434765624,
          "velocity": 0.5433070866141733
        },
        {
          "duration": 0.6442052607421829,
          "durationTicks": 1539,
          "midi": 35,
          "name": "B1",
          "ticks": 235539,
          "time": 98.59354315136719,
          "velocity": 0.5433070866141733
        },
        {
          "duration": 0.417331153320319,
          "durationTicks": 997,
          "midi": 46,
          "name": "A#2",
          "ticks": 236591,
          "time": 99.03389658496093,
          "velocity": 0.5118110236220472
        },
        {
          "duration": 0.2063633486328058,
          "durationTicks": 493,
          "midi": 35,
          "name": "B1",
          "ticks": 237095,
          "time": 99.24486438964844,
          "velocity": 0.5039370078740157
        },
        {
          "duration": 0.42319137011719477,
          "durationTicks": 1011,
          "midi": 35,
          "name": "B1",
          "ticks": 237592,
          "time": 99.4529020859375,
          "velocity": 0.5275590551181102
        },
        {
          "duration": 0.4164939794921878,
          "durationTicks": 995,
          "midi": 46,
          "name": "A#2",
          "ticks": 237608,
          "time": 99.4595994765625,
          "velocity": 0.5275590551181102
        },
        {
          "duration": 0.4206798486328154,
          "durationTicks": 1005,
          "midi": 46,
          "name": "A#2",
          "ticks": 238610,
          "time": 99.87902356445312,
          "velocity": 0.5118110236220472
        },
        {
          "duration": 0.41147093652344324,
          "durationTicks": 983,
          "midi": 35,
          "name": "B1",
          "ticks": 238632,
          "time": 99.8882324765625,
          "velocity": 0.5118110236220472
        },
        {
          "duration": 0.43909767285155965,
          "durationTicks": 1049,
          "midi": 35,
          "name": "B1",
          "ticks": 239620,
          "time": 100.30179634765625,
          "velocity": 0.5433070866141733
        },
        {
          "duration": 0.4311445214843701,
          "durationTicks": 1030,
          "midi": 46,
          "name": "A#2",
          "ticks": 239639,
          "time": 100.30974949902344,
          "velocity": 0.5433070866141733
        },
        {
          "duration": 0.4202612617187498,
          "durationTicks": 1004,
          "midi": 46,
          "name": "A#2",
          "ticks": 240680,
          "time": 100.7454984765625,
          "velocity": 0.5118110236220472
        },
        {
          "duration": 0.42151702246093237,
          "durationTicks": 1007,
          "midi": 46,
          "name": "A#2",
          "ticks": 241692,
          "time": 101.16910843359375,
          "velocity": 0.5275590551181102
        },
        {
          "duration": 0.42319137011718055,
          "durationTicks": 1011,
          "midi": 46,
          "name": "A#2",
          "ticks": 242700,
          "time": 101.59104404296875,
          "velocity": 0.5118110236220472
        },
        {
          "duration": 0.4282144130859393,
          "durationTicks": 1023,
          "midi": 42,
          "name": "F#2",
          "ticks": 271360,
          "time": 113.587745,
          "velocity": 0.5433070866141733
        },
        {
          "duration": 0.2076191093749884,
          "durationTicks": 496,
          "midi": 35,
          "name": "B1",
          "ticks": 271389,
          "time": 113.59988402050782,
          "velocity": 0.5433070866141733
        },
        {
          "duration": 0.2080376962890682,
          "durationTicks": 497,
          "midi": 35,
          "name": "B1",
          "ticks": 271886,
          "time": 113.80792171679687,
          "velocity": 0.5039370078740157
        },
        {
          "duration": 0.21766519531250594,
          "durationTicks": 520,
          "midi": 38,
          "name": "D2",
          "ticks": 272389,
          "time": 114.0184709345703,
          "velocity": 0.5118110236220472
        },
        {
          "duration": 0.20175889257811264,
          "durationTicks": 482,
          "midi": 38,
          "name": "D2",
          "ticks": 272925,
          "time": 114.24283352050782,
          "velocity": 0.5039370078740157
        },
        {
          "duration": 0.21431649999999536,
          "durationTicks": 512,
          "midi": 38,
          "name": "D2",
          "ticks": 273432,
          "time": 114.4550570859375,
          "velocity": 0.5118110236220472
        },
        {
          "duration": 0.19673584960936807,
          "durationTicks": 470,
          "midi": 38,
          "name": "D2",
          "ticks": 273964,
          "time": 114.67774532421875,
          "velocity": 0.5039370078740157
        },
        {
          "duration": 0.21264215234374717,
          "durationTicks": 508,
          "midi": 38,
          "name": "D2",
          "ticks": 274435,
          "time": 114.87489976074218,
          "velocity": 0.5039370078740157
        },
        {
          "duration": 0.22687410742187808,
          "durationTicks": 542,
          "midi": 42,
          "name": "F#2",
          "ticks": 274944,
          "time": 115.0879605,
          "velocity": 0.5433070866141733
        },
        {
          "duration": 0.22687410742187808,
          "durationTicks": 542,
          "midi": 35,
          "name": "B1",
          "ticks": 274944,
          "time": 115.0879605,
          "velocity": 0.5433070866141733
        },
        {
          "duration": 0.21013063085936778,
          "durationTicks": 502,
          "midi": 38,
          "name": "D2",
          "ticks": 275487,
          "time": 115.31525319433594,
          "velocity": 0.5039370078740157
        },
        {
          "duration": 0.21431649999999536,
          "durationTicks": 512,
          "midi": 35,
          "name": "B1",
          "ticks": 275990,
          "time": 115.52580241210937,
          "velocity": 0.5039370078740157
        },
        {
          "duration": 0.2084562832031196,
          "durationTicks": 498,
          "midi": 42,
          "name": "F#2",
          "ticks": 276004,
          "time": 115.53166262890625,
          "velocity": 0.5039370078740157
        },
        {
          "duration": 0.21306073925781277,
          "durationTicks": 509,
          "midi": 38,
          "name": "D2",
          "ticks": 276503,
          "time": 115.74053749902343,
          "velocity": 0.5039370078740157
        },
        {
          "duration": 0.21222356542968157,
          "durationTicks": 507,
          "midi": 42,
          "name": "F#2",
          "ticks": 276505,
          "time": 115.74137467285156,
          "velocity": 0.5039370078740157
        },
        {
          "duration": 0.20552617480468882,
          "durationTicks": 491,
          "midi": 42,
          "name": "F#2",
          "ticks": 277013,
          "time": 115.95401682519531,
          "velocity": 0.5039370078740157
        },
        {
          "duration": 0.21347932617186416,
          "durationTicks": 510,
          "midi": 46,
          "name": "A#2",
          "ticks": 277505,
          "time": 116.15996158691406,
          "velocity": 0.5039370078740157
        },
        {
          "duration": 0.4282144130859393,
          "durationTicks": 1023,
          "midi": 42,
          "name": "F#2",
          "ticks": 278016,
          "time": 116.3738595,
          "velocity": 0.5433070866141733
        },
        {
          "duration": 0.21724660839844034,
          "durationTicks": 519,
          "midi": 35,
          "name": "B1",
          "ticks": 278022,
          "time": 116.37637102148437,
          "velocity": 0.5433070866141733
        },
        {
          "duration": 0.2080376962890682,
          "durationTicks": 497,
          "midi": 35,
          "name": "B1",
          "ticks": 278542,
          "time": 116.59403621679687,
          "velocity": 0.5039370078740157
        },
        {
          "duration": 0.21557226074217795,
          "durationTicks": 515,
          "midi": 38,
          "name": "D2",
          "ticks": 279050,
          "time": 116.80667836914063,
          "velocity": 0.5118110236220472
        },
        {
          "duration": 0.19589867578125109,
          "durationTicks": 468,
          "midi": 38,
          "name": "D2",
          "ticks": 279595,
          "time": 117.03480823730469,
          "velocity": 0.5039370078740157
        },
        {
          "duration": 0.22143247753906792,
          "durationTicks": 529,
          "midi": 38,
          "name": "D2",
          "ticks": 280071,
          "time": 117.23405560839844,
          "velocity": 0.5118110236220472
        },
        {
          "duration": 0.20343324023437503,
          "durationTicks": 486,
          "midi": 38,
          "name": "D2",
          "ticks": 280604,
          "time": 117.45716243359375,
          "velocity": 0.5039370078740157
        },
        {
          "duration": 0.21264215234376138,
          "durationTicks": 508,
          "midi": 38,
          "name": "D2",
          "ticks": 281091,
          "time": 117.66101426074218,
          "velocity": 0.5039370078740157
        },
        {
          "duration": 0.21975812988281973,
          "durationTicks": 525,
          "midi": 42,
          "name": "F#2",
          "ticks": 281600,
          "time": 117.87407499999999,
          "velocity": 0.5433070866141733
        },
        {
          "duration": 0.21975812988281973,
          "durationTicks": 525,
          "midi": 35,
          "name": "B1",
          "ticks": 281600,
          "time": 117.87407499999999,
          "velocity": 0.5433070866141733
        },
        {
          "duration": 0.208037696289054,
          "durationTicks": 497,
          "midi": 38,
          "name": "D2",
          "ticks": 282126,
          "time": 118.09425171679688,
          "velocity": 0.5039370078740157
        },
        {
          "duration": 0.21975812988281973,
          "durationTicks": 525,
          "midi": 35,
          "name": "B1",
          "ticks": 282624,
          "time": 118.302708,
          "velocity": 0.5118110236220472
        },
        {
          "duration": 0.21431650000000957,
          "durationTicks": 512,
          "midi": 42,
          "name": "F#2",
          "ticks": 282637,
          "time": 118.3081496298828,
          "velocity": 0.5118110236220472
        },
        {
          "duration": 0.2080376962890682,
          "durationTicks": 497,
          "midi": 38,
          "name": "D2",
          "ticks": 283150,
          "time": 118.52288471679687,
          "velocity": 0.5039370078740157
        },
        {
          "duration": 0.20510758789062322,
          "durationTicks": 490,
          "midi": 42,
          "name": "F#2",
          "ticks": 283157,
          "time": 118.52581482519531,
          "velocity": 0.5039370078740157
        },
        {
          "duration": 0.2243625859374987,
          "durationTicks": 536,
          "midi": 35,
          "name": "B1",
          "ticks": 283648,
          "time": 118.731341,
          "velocity": 0.5118110236220472
        },
        {
          "duration": 0.20468900097655762,
          "durationTicks": 489,
          "midi": 42,
          "name": "F#2",
          "ticks": 284185,
          "time": 118.95612217285156,
          "velocity": 0.5039370078740157
        },
        {
          "duration": 0.21264215234374717,
          "durationTicks": 508,
          "midi": 46,
          "name": "A#2",
          "ticks": 284675,
          "time": 119.16122976074219,
          "velocity": 0.5039370078740157
        },
        {
          "duration": 0.4282144130859393,
          "durationTicks": 1023,
          "midi": 42,
          "name": "F#2",
          "ticks": 285184,
          "time": 119.3742905,
          "velocity": 0.5433070866141733
        },
        {
          "duration": 0.21975812988280552,
          "durationTicks": 525,
          "midi": 35,
          "name": "B1",
          "ticks": 285184,
          "time": 119.3742905,
          "velocity": 0.5433070866141733
        },
        {
          "duration": 0.2080376962890682,
          "durationTicks": 497,
          "midi": 35,
          "name": "B1",
          "ticks": 285710,
          "time": 119.59446721679687,
          "velocity": 0.5039370078740157
        },
        {
          "duration": 0.2084562832031338,
          "durationTicks": 498,
          "midi": 38,
          "name": "D2",
          "ticks": 286235,
          "time": 119.81422534667968,
          "velocity": 0.5118110236220472
        },
        {
          "duration": 0.19966595800781306,
          "durationTicks": 477,
          "midi": 38,
          "name": "D2",
          "ticks": 286754,
          "time": 120.03147195507812,
          "velocity": 0.5039370078740157
        },
        {
          "duration": 0.21389791308592976,
          "durationTicks": 511,
          "midi": 38,
          "name": "D2",
          "ticks": 287257,
          "time": 120.24202117285157,
          "velocity": 0.5118110236220472
        },
        {
          "duration": 0.20343324023437503,
          "durationTicks": 486,
          "midi": 38,
          "name": "D2",
          "ticks": 287772,
          "time": 120.45759343359374,
          "velocity": 0.5039370078740157
        },
        {
          "duration": 0.21264215234374717,
          "durationTicks": 508,
          "midi": 38,
          "name": "D2",
          "ticks": 288259,
          "time": 120.66144526074218,
          "velocity": 0.5039370078740157
        },
        {
          "duration": 0.22687410742187808,
          "durationTicks": 542,
          "midi": 42,
          "name": "F#2",
          "ticks": 288768,
          "time": 120.874506,
          "velocity": 0.5433070866141733
        },
        {
          "duration": 0.22687410742187808,
          "durationTicks": 542,
          "midi": 35,
          "name": "B1",
          "ticks": 288768,
          "time": 120.874506,
          "velocity": 0.5433070866141733
        },
        {
          "duration": 0.21013063085936778,
          "durationTicks": 502,
          "midi": 38,
          "name": "D2",
          "ticks": 289311,
          "time": 121.10179869433594,
          "velocity": 0.5039370078740157
        },
        {
          "duration": 0.21431649999999536,
          "durationTicks": 512,
          "midi": 35,
          "name": "B1",
          "ticks": 289814,
          "time": 121.31234791210937,
          "velocity": 0.5039370078740157
        },
        {
          "duration": 0.20552617480468882,
          "durationTicks": 491,
          "midi": 42,
          "name": "F#2",
          "ticks": 289835,
          "time": 121.32113823730468,
          "velocity": 0.5039370078740157
        },
        {
          "duration": 0.21306073925781277,
          "durationTicks": 509,
          "midi": 38,
          "name": "D2",
          "ticks": 290327,
          "time": 121.52708299902343,
          "velocity": 0.5039370078740157
        },
        {
          "duration": 0.20385182714844063,
          "durationTicks": 487,
          "midi": 42,
          "name": "F#2",
          "ticks": 290349,
          "time": 121.5362919111328,
          "velocity": 0.5039370078740157
        },
        {
          "duration": 0.20552617480468882,
          "durationTicks": 491,
          "midi": 42,
          "name": "F#2",
          "ticks": 290837,
          "time": 121.74056232519531,
          "velocity": 0.5039370078740157
        },
        {
          "duration": 0.21347932617187837,
          "durationTicks": 510,
          "midi": 46,
          "name": "A#2",
          "ticks": 291329,
          "time": 121.94650708691405,
          "velocity": 0.5039370078740157
        },
        {
          "duration": 0.4282144130859393,
          "durationTicks": 1023,
          "midi": 42,
          "name": "F#2",
          "ticks": 291840,
          "time": 122.160405,
          "velocity": 0.5433070866141733
        },
        {
          "duration": 0.2092934570312508,
          "durationTicks": 500,
          "midi": 35,
          "name": "B1",
          "ticks": 291865,
          "time": 122.17086967285155,
          "velocity": 0.5433070866141733
        },
        {
          "duration": 0.2080376962890682,
          "durationTicks": 497,
          "midi": 35,
          "name": "B1",
          "ticks": 292366,
          "time": 122.38058171679687,
          "velocity": 0.5039370078740157
        },
        {
          "duration": 0.21724660839844034,
          "durationTicks": 519,
          "midi": 38,
          "name": "D2",
          "ticks": 292870,
          "time": 122.59154952148437,
          "velocity": 0.5118110236220472
        },
        {
          "duration": 0.19799161035155066,
          "durationTicks": 473,
          "midi": 38,
          "name": "D2",
          "ticks": 293414,
          "time": 122.81926080273438,
          "velocity": 0.5039370078740157
        },
        {
          "duration": 0.2235254121093675,
          "durationTicks": 534,
          "midi": 38,
          "name": "D2",
          "ticks": 293890,
          "time": 123.01850817382812,
          "velocity": 0.5118110236220472
        },
        {
          "duration": 0.20301465332030944,
          "durationTicks": 485,
          "midi": 38,
          "name": "D2",
          "ticks": 294429,
          "time": 123.2441265205078,
          "velocity": 0.5039370078740157
        },
        {
          "duration": 0.21264215234374717,
          "durationTicks": 508,
          "midi": 38,
          "name": "D2",
          "ticks": 294915,
          "time": 123.44755976074218,
          "velocity": 0.5039370078740157
        },
        {
          "duration": 0.21975812988281973,
          "durationTicks": 525,
          "midi": 42,
          "name": "F#2",
          "ticks": 295424,
          "time": 123.6606205,
          "velocity": 0.5433070866141733
        },
        {
          "duration": 0.21975812988281973,
          "durationTicks": 525,
          "midi": 35,
          "name": "B1",
          "ticks": 295424,
          "time": 123.6606205,
          "velocity": 0.5433070866141733
        },
        {
          "duration": 0.2080376962890682,
          "durationTicks": 497,
          "midi": 38,
          "name": "D2",
          "ticks": 295950,
          "time": 123.88079721679686,
          "velocity": 0.5039370078740157
        },
        {
          "duration": 0.21975812988280552,
          "durationTicks": 525,
          "midi": 35,
          "name": "B1",
          "ticks": 296448,
          "time": 124.0892535,
          "velocity": 0.5118110236220472
        },
        {
          "duration": 0.21724660839842613,
          "durationTicks": 519,
          "midi": 42,
          "name": "F#2",
          "ticks": 296454,
          "time": 124.09176502148438,
          "velocity": 0.5118110236220472
        },
        {
          "duration": 0.2080376962890682,
          "durationTicks": 497,
          "midi": 38,
          "name": "D2",
          "ticks": 296974,
          "time": 124.30943021679687,
          "velocity": 0.5039370078740157
        },
        {
          "duration": 0.2080376962890682,
          "durationTicks": 497,
          "midi": 42,
          "name": "F#2",
          "ticks": 296974,
          "time": 124.30943021679687,
          "velocity": 0.5039370078740157
        },
        {
          "duration": 0.2243625859374987,
          "durationTicks": 536,
          "midi": 35,
          "name": "B1",
          "ticks": 297472,
          "time": 124.5178865,
          "velocity": 0.5118110236220472
        },
        {
          "duration": 0.20468900097657183,
          "durationTicks": 489,
          "midi": 42,
          "name": "F#2",
          "ticks": 298009,
          "time": 124.74266767285155,
          "velocity": 0.5039370078740157
        },
        {
          "duration": 0.21264215234374717,
          "durationTicks": 508,
          "midi": 46,
          "name": "A#2",
          "ticks": 298499,
          "time": 124.94777526074219,
          "velocity": 0.5039370078740157
        },
        {
          "duration": 0.43909767285155965,
          "durationTicks": 1049,
          "midi": 49,
          "name": "C#3",
          "ticks": 299012,
          "time": 125.16251034765625,
          "velocity": 0.5433070866141733
        },
        {
          "duration": 0.6467167822265623,
          "durationTicks": 1545,
          "midi": 35,
          "name": "B1",
          "ticks": 299021,
          "time": 125.16627762988281,
          "velocity": 0.5433070866141733
        },
        {
          "duration": 0.419005500976553,
          "durationTicks": 1001,
          "midi": 46,
          "name": "A#2",
          "ticks": 300075,
          "time": 125.60746823730469,
          "velocity": 0.5118110236220472
        },
        {
          "duration": 0.20510758789062322,
          "durationTicks": 490,
          "midi": 35,
          "name": "B1",
          "ticks": 300586,
          "time": 125.82136615039062,
          "velocity": 0.5039370078740157
        },
        {
          "duration": 0.42402854394531175,
          "durationTicks": 1013,
          "midi": 35,
          "name": "B1",
          "ticks": 301078,
          "time": 126.02731091210937,
          "velocity": 0.5275590551181102
        },
        {
          "duration": 0.418168327148436,
          "durationTicks": 999,
          "midi": 46,
          "name": "A#2",
          "ticks": 301092,
          "time": 126.03317112890625,
          "velocity": 0.5275590551181102
        },
        {
          "duration": 0.4202612617187498,
          "durationTicks": 1004,
          "midi": 35,
          "name": "B1",
          "ticks": 302099,
          "time": 126.45468815136718,
          "velocity": 0.5118110236220472
        },
        {
          "duration": 0.4139824580078084,
          "durationTicks": 989,
          "midi": 46,
          "name": "A#2",
          "ticks": 302114,
          "time": 126.46096695507812,
          "velocity": 0.5118110236220472
        },
        {
          "duration": 0.43909767285155965,
          "durationTicks": 1049,
          "midi": 35,
          "name": "B1",
          "ticks": 303108,
          "time": 126.87704234765624,
          "velocity": 0.5433070866141733
        },
        {
          "duration": 0.4319816953124871,
          "durationTicks": 1032,
          "midi": 46,
          "name": "A#2",
          "ticks": 303125,
          "time": 126.88415832519532,
          "velocity": 0.5433070866141733
        },
        {
          "duration": 0.42402854394531175,
          "durationTicks": 1013,
          "midi": 46,
          "name": "A#2",
          "ticks": 304159,
          "time": 127.31697719433593,
          "velocity": 0.5118110236220472
        },
        {
          "duration": 0.4156568056640566,
          "durationTicks": 993,
          "midi": 46,
          "name": "A#2",
          "ticks": 305194,
          "time": 127.75021465039062,
          "velocity": 0.5275590551181102
        },
        {
          "duration": 0.42319137011719477,
          "durationTicks": 1011,
          "midi": 46,
          "name": "A#2",
          "ticks": 306188,
          "time": 128.16629004296874,
          "velocity": 0.5118110236220472
        },
        {
          "duration": 0.43909767285157386,
          "durationTicks": 1049,
          "midi": 49,
          "name": "C#3",
          "ticks": 307204,
          "time": 128.59157434765623,
          "velocity": 0.5433070866141733
        },
        {
          "duration": 0.6400193916015553,
          "durationTicks": 1529,
          "midi": 35,
          "name": "B1",
          "ticks": 307229,
          "time": 128.60203902050782,
          "velocity": 0.5433070866141733
        },
        {
          "duration": 0.4185869140625016,
          "durationTicks": 1000,
          "midi": 46,
          "name": "A#2",
          "ticks": 308268,
          "time": 129.03695082421874,
          "velocity": 0.5118110236220472
        },
        {
          "duration": 0.21138639160156458,
          "durationTicks": 505,
          "midi": 35,
          "name": "B1",
          "ticks": 308763,
          "time": 129.24415134667967,
          "velocity": 0.5039370078740157
        },
        {
          "duration": 0.4206798486328296,
          "durationTicks": 1005,
          "midi": 46,
          "name": "A#2",
          "ticks": 309278,
          "time": 129.45972360742186,
          "velocity": 0.5275590551181102
        },
        {
          "duration": 0.4169125664062676,
          "durationTicks": 996,
          "midi": 35,
          "name": "B1",
          "ticks": 309287,
          "time": 129.46349088964843,
          "velocity": 0.5275590551181102
        },
        {
          "duration": 0.4164939794921736,
          "durationTicks": 995,
          "midi": 46,
          "name": "A#2",
          "ticks": 310300,
          "time": 129.88751943359375,
          "velocity": 0.5118110236220472
        },
        {
          "duration": 0.4156568056640424,
          "durationTicks": 993,
          "midi": 35,
          "name": "B1",
          "ticks": 310302,
          "time": 129.88835660742188,
          "velocity": 0.5118110236220472
        },
        {
          "duration": 0.43909767285154544,
          "durationTicks": 1049,
          "midi": 35,
          "name": "B1",
          "ticks": 311300,
          "time": 130.30610634765625,
          "velocity": 0.5433070866141733
        },
        {
          "duration": 0.43700473828124586,
          "durationTicks": 1044,
          "midi": 46,
          "name": "A#2",
          "ticks": 311305,
          "time": 130.30819928222655,
          "velocity": 0.5433070866141733
        },
        {
          "duration": 0.4206798486328296,
          "durationTicks": 1005,
          "midi": 46,
          "name": "A#2",
          "ticks": 312359,
          "time": 130.74938988964843,
          "velocity": 0.5118110236220472
        },
        {
          "duration": 0.4169125664062392,
          "durationTicks": 996,
          "midi": 46,
          "name": "A#2",
          "ticks": 313383,
          "time": 131.17802288964845,
          "velocity": 0.5275590551181102
        },
        {
          "duration": 0.42319137011719477,
          "durationTicks": 1011,
          "midi": 46,
          "name": "A#2",
          "ticks": 314380,
          "time": 131.59535404296875,
          "velocity": 0.5118110236220472
        },
        {
          "duration": 0.42821441308595354,
          "durationTicks": 1023,
          "midi": 49,
          "name": "C#3",
          "ticks": 315392,
          "time": 132.01896399999998,
          "velocity": 0.5433070866141733
        },
        {
          "duration": 0.42109843554686677,
          "durationTicks": 1006,
          "midi": 46,
          "name": "A#2",
          "ticks": 316433,
          "time": 132.45471297753906,
          "velocity": 0.5118110236220472
        },
        {
          "duration": 0.42193560937499797,
          "durationTicks": 1008,
          "midi": 46,
          "name": "A#2",
          "ticks": 317458,
          "time": 132.88376456445312,
          "velocity": 0.5118110236220472
        },
        {
          "duration": 0.4269586523437283,
          "durationTicks": 1020,
          "midi": 46,
          "name": "A#2",
          "ticks": 318481,
          "time": 133.31197897753907,
          "velocity": 0.5039370078740157
        },
        {
          "duration": 0.4190055009765672,
          "durationTicks": 1001,
          "midi": 46,
          "name": "A#2",
          "ticks": 319524,
          "time": 133.74856512890625,
          "velocity": 0.5039370078740157
        },
        {
          "duration": 0.4206798486328296,
          "durationTicks": 1005,
          "midi": 46,
          "name": "A#2",
          "ticks": 320555,
          "time": 134.18012823730467,
          "velocity": 0.5039370078740157
        },
        {
          "duration": 0.4177497402343704,
          "durationTicks": 998,
          "midi": 46,
          "name": "A#2",
          "ticks": 321561,
          "time": 134.60122667285157,
          "velocity": 0.5039370078740157
        },
        {
          "duration": 0.4282144130859251,
          "durationTicks": 1023,
          "midi": 49,
          "name": "C#3",
          "ticks": 322560,
          "time": 135.019395,
          "velocity": 0.5433070866141733
        },
        {
          "duration": 0.42402854394532596,
          "durationTicks": 1013,
          "midi": 46,
          "name": "A#2",
          "ticks": 323594,
          "time": 135.45221386914062,
          "velocity": 0.5118110236220472
        },
        {
          "duration": 0.4190055009765672,
          "durationTicks": 1001,
          "midi": 46,
          "name": "A#2",
          "ticks": 324633,
          "time": 135.88712567285157,
          "velocity": 0.5118110236220472
        },
        {
          "duration": 0.42528430468752276,
          "durationTicks": 1016,
          "midi": 46,
          "name": "A#2",
          "ticks": 325653,
          "time": 136.3140843251953,
          "velocity": 0.5039370078740157
        },
        {
          "duration": 0.42151702246093237,
          "durationTicks": 1007,
          "midi": 46,
          "name": "A#2",
          "ticks": 326686,
          "time": 136.74648460742188,
          "velocity": 0.5039370078740157
        },
        {
          "duration": 0.42360995703126036,
          "durationTicks": 1012,
          "midi": 46,
          "name": "A#2",
          "ticks": 327716,
          "time": 137.17762912890623,
          "velocity": 0.5039370078740157
        },
        {
          "duration": 0.4177497402343704,
          "durationTicks": 998,
          "midi": 46,
          "name": "A#2",
          "ticks": 328729,
          "time": 137.60165767285156,
          "velocity": 0.5039370078740157
        },
        {
          "duration": 0.43909767285154544,
          "durationTicks": 1049,
          "midi": 49,
          "name": "C#3",
          "ticks": 329732,
          "time": 138.02150034765626,
          "velocity": 0.5433070866141733
        },
        {
          "duration": 0.648809716796876,
          "durationTicks": 1550,
          "midi": 35,
          "name": "B1",
          "ticks": 329736,
          "time": 138.0231746953125,
          "velocity": 0.5433070866141733
        },
        {
          "duration": 0.42067984863280117,
          "durationTicks": 1005,
          "midi": 46,
          "name": "A#2",
          "ticks": 330791,
          "time": 138.46478388964843,
          "velocity": 0.5118110236220472
        },
        {
          "duration": 0.21264215234373296,
          "durationTicks": 508,
          "midi": 35,
          "name": "B1",
          "ticks": 331288,
          "time": 138.6728215859375,
          "velocity": 0.5039370078740157
        },
        {
          "duration": 0.4156568056640708,
          "durationTicks": 993,
          "midi": 35,
          "name": "B1",
          "ticks": 331818,
          "time": 138.89467265039062,
          "velocity": 0.5275590551181102
        },
        {
          "duration": 0.4135638710937428,
          "durationTicks": 988,
          "midi": 46,
          "name": "A#2",
          "ticks": 331823,
          "time": 138.89676558496095,
          "velocity": 0.5275590551181102
        },
        {
          "duration": 0.4118895234374804,
          "durationTicks": 984,
          "midi": 35,
          "name": "B1",
          "ticks": 332839,
          "time": 139.32204988964844,
          "velocity": 0.5118110236220472
        },
        {
          "duration": 0.4110523496093492,
          "durationTicks": 982,
          "midi": 46,
          "name": "A#2",
          "ticks": 332841,
          "time": 139.32288706347657,
          "velocity": 0.5118110236220472
        },
        {
          "duration": 0.43909767285154544,
          "durationTicks": 1049,
          "midi": 35,
          "name": "B1",
          "ticks": 333828,
          "time": 139.73603234765625,
          "velocity": 0.5433070866141733
        },
        {
          "duration": 0.4315631083984215,
          "durationTicks": 1031,
          "midi": 46,
          "name": "A#2",
          "ticks": 333846,
          "time": 139.74356691210937,
          "velocity": 0.5433070866141733
        },
        {
          "duration": 0.4148196318359396,
          "durationTicks": 991,
          "midi": 46,
          "name": "A#2",
          "ticks": 334901,
          "time": 140.1851761064453,
          "velocity": 0.5118110236220472
        },
        {
          "duration": 0.4164939794921736,
          "durationTicks": 995,
          "midi": 46,
          "name": "A#2",
          "ticks": 335912,
          "time": 140.6083674765625,
          "velocity": 0.5275590551181102
        },
        {
          "duration": 0.42319137011719477,
          "durationTicks": 1011,
          "midi": 46,
          "name": "A#2",
          "ticks": 336908,
          "time": 141.02528004296875,
          "velocity": 0.5118110236220472
        },
        {
          "duration": 0.43909767285157386,
          "durationTicks": 1049,
          "midi": 49,
          "name": "C#3",
          "ticks": 337924,
          "time": 141.45056434765624,
          "velocity": 0.5433070866141733
        },
        {
          "duration": 0.6462981953125109,
          "durationTicks": 1544,
          "midi": 35,
          "name": "B1",
          "ticks": 337934,
          "time": 141.45475021679687,
          "velocity": 0.5433070866141733
        },
        {
          "duration": 0.4139824580078084,
          "durationTicks": 989,
          "midi": 46,
          "name": "A#2",
          "ticks": 338999,
          "time": 141.90054528027343,
          "velocity": 0.5118110236220472
        },
        {
          "duration": 0.21222356542969578,
          "durationTicks": 507,
          "midi": 35,
          "name": "B1",
          "ticks": 339481,
          "time": 142.10230417285155,
          "velocity": 0.5039370078740157
        },
        {
          "duration": 0.418168327148436,
          "durationTicks": 999,
          "midi": 35,
          "name": "B1",
          "ticks": 340004,
          "time": 142.32122512890624,
          "velocity": 0.5275590551181102
        },
        {
          "duration": 0.4173311533203048,
          "durationTicks": 997,
          "midi": 46,
          "name": "A#2",
          "ticks": 340006,
          "time": 142.32206230273437,
          "velocity": 0.5275590551181102
        },
        {
          "duration": 0.42319137011719477,
          "durationTicks": 1011,
          "midi": 46,
          "name": "A#2",
          "ticks": 341004,
          "time": 142.73981204296874,
          "velocity": 0.5118110236220472
        },
        {
          "duration": 0.41230811035157444,
          "durationTicks": 985,
          "midi": 35,
          "name": "B1",
          "ticks": 341030,
          "time": 142.75069530273436,
          "velocity": 0.5118110236220472
        },
        {
          "duration": 0.43909767285154544,
          "durationTicks": 1049,
          "midi": 35,
          "name": "B1",
          "ticks": 342020,
          "time": 143.16509634765626,
          "velocity": 0.5433070866141733
        },
        {
          "duration": 0.43867908593750826,
          "durationTicks": 1048,
          "midi": 46,
          "name": "A#2",
          "ticks": 342021,
          "time": 143.1655149345703,
          "velocity": 0.5433070866141733
        },
        {
          "duration": 0.4152382187499768,
          "durationTicks": 992,
          "midi": 46,
          "name": "A#2",
          "ticks": 343092,
          "time": 143.61382151953126,
          "velocity": 0.5118110236220472
        },
        {
          "duration": 0.4160753925781364,
          "durationTicks": 994,
          "midi": 46,
          "name": "A#2",
          "ticks": 344105,
          "time": 144.03785006347655,
          "velocity": 0.5275590551181102
        },
        {
          "duration": 0.42319137011716634,
          "durationTicks": 1011,
          "midi": 46,
          "name": "A#2",
          "ticks": 345100,
          "time": 144.45434404296876,
          "velocity": 0.5118110236220472
        },
        {
          "duration": 0.42821441308595354,
          "durationTicks": 1023,
          "midi": 49,
          "name": "C#3",
          "ticks": 346112,
          "time": 144.877954,
          "velocity": 0.5433070866141733
        },
        {
          "duration": 0.42109843554686677,
          "durationTicks": 1006,
          "midi": 46,
          "name": "A#2",
          "ticks": 347153,
          "time": 145.31370297753907,
          "velocity": 0.5118110236220472
        },
        {
          "duration": 0.42277278320312917,
          "durationTicks": 1010,
          "midi": 46,
          "name": "A#2",
          "ticks": 348176,
          "time": 145.741917390625,
          "velocity": 0.5118110236220472
        },
        {
          "duration": 0.4307259345703187,
          "durationTicks": 1029,
          "midi": 46,
          "name": "A#2",
          "ticks": 349192,
          "time": 146.16720169531249,
          "velocity": 0.5039370078740157
        },
        {
          "duration": 0.4269586523437283,
          "durationTicks": 1020,
          "midi": 46,
          "name": "A#2",
          "ticks": 350225,
          "time": 146.59960197753907,
          "velocity": 0.5039370078740157
        },
        {
          "duration": 0.4319816953125155,
          "durationTicks": 1032,
          "midi": 46,
          "name": "A#2",
          "ticks": 351248,
          "time": 147.027816390625,
          "velocity": 0.5039370078740157
        },
        {
          "duration": 0.4177497402343988,
          "durationTicks": 998,
          "midi": 46,
          "name": "A#2",
          "ticks": 352281,
          "time": 147.46021667285154,
          "velocity": 0.5039370078740157
        },
        {
          "duration": 0.4282144130859251,
          "durationTicks": 1023,
          "midi": 49,
          "name": "C#3",
          "ticks": 353280,
          "time": 147.878385,
          "velocity": 0.5433070866141733
        },
        {
          "duration": 0.4164939794921736,
          "durationTicks": 995,
          "midi": 46,
          "name": "A#2",
          "ticks": 354332,
          "time": 148.31873843359375,
          "velocity": 0.5118110236220472
        },
        {
          "duration": 0.4190055009765672,
          "durationTicks": 1001,
          "midi": 46,
          "name": "A#2",
          "ticks": 355353,
          "time": 148.74611567285154,
          "velocity": 0.5118110236220472
        },
        {
          "duration": 0.42235419628906357,
          "durationTicks": 1009,
          "midi": 46,
          "name": "A#2",
          "ticks": 356380,
          "time": 149.17600443359373,
          "velocity": 0.5039370078740157
        },
        {
          "duration": 0.416493979492202,
          "durationTicks": 995,
          "midi": 46,
          "name": "A#2",
          "ticks": 357418,
          "time": 149.6104976503906,
          "velocity": 0.5039370078740157
        },
        {
          "duration": 0.4286329999999907,
          "durationTicks": 1024,
          "midi": 46,
          "name": "A#2",
          "ticks": 358424,
          "time": 150.0315960859375,
          "velocity": 0.5039370078740157
        },
        {
          "duration": 0.4177497402343704,
          "durationTicks": 998,
          "midi": 46,
          "name": "A#2",
          "ticks": 359449,
          "time": 150.46064767285156,
          "velocity": 0.5039370078740157
        },
        {
          "duration": 0.43909767285157386,
          "durationTicks": 1049,
          "midi": 49,
          "name": "C#3",
          "ticks": 360452,
          "time": 150.88049034765623,
          "velocity": 0.5433070866141733
        },
        {
          "duration": 0.6471353691406136,
          "durationTicks": 1546,
          "midi": 35,
          "name": "B1",
          "ticks": 360460,
          "time": 150.88383904296876,
          "velocity": 0.5433070866141733
        },
        {
          "duration": 0.41984267480466997,
          "durationTicks": 1003,
          "midi": 46,
          "name": "A#2",
          "ticks": 361513,
          "time": 151.32461106347657,
          "velocity": 0.5118110236220472
        },
        {
          "duration": 0.20134030566404704,
          "durationTicks": 481,
          "midi": 35,
          "name": "B1",
          "ticks": 362035,
          "time": 151.5431134326172,
          "velocity": 0.5039370078740157
        },
        {
          "duration": 0.4206798486328296,
          "durationTicks": 1005,
          "midi": 46,
          "name": "A#2",
          "ticks": 362526,
          "time": 151.74863960742186,
          "velocity": 0.5275590551181102
        },
        {
          "duration": 0.420261261718764,
          "durationTicks": 1004,
          "midi": 35,
          "name": "B1",
          "ticks": 362527,
          "time": 151.74905819433593,
          "velocity": 0.5275590551181102
        },
        {
          "duration": 0.4131452841796772,
          "durationTicks": 987,
          "midi": 46,
          "name": "A#2",
          "ticks": 363556,
          "time": 152.17978412890625,
          "velocity": 0.5118110236220472
        },
        {
          "duration": 0.4127266972656116,
          "durationTicks": 986,
          "midi": 35,
          "name": "B1",
          "ticks": 363557,
          "time": 152.18020271582031,
          "velocity": 0.5118110236220472
        },
        {
          "duration": 0.43909767285154544,
          "durationTicks": 1049,
          "midi": 35,
          "name": "B1",
          "ticks": 364548,
          "time": 152.59502234765625,
          "velocity": 0.5433070866141733
        },
        {
          "duration": 0.4328188691406183,
          "durationTicks": 1034,
          "midi": 46,
          "name": "A#2",
          "ticks": 364563,
          "time": 152.60130115136718,
          "velocity": 0.5433070866141733
        },
        {
          "duration": 0.41356387109377124,
          "durationTicks": 988,
          "midi": 46,
          "name": "A#2",
          "ticks": 365624,
          "time": 153.04542186718749,
          "velocity": 0.5118110236220472
        },
        {
          "duration": 0.4131452841796772,
          "durationTicks": 987,
          "midi": 46,
          "name": "A#2",
          "ticks": 366640,
          "time": 153.470706171875,
          "velocity": 0.5275590551181102
        },
        {
          "duration": 0.42319137011719477,
          "durationTicks": 1011,
          "midi": 46,
          "name": "A#2",
          "ticks": 367628,
          "time": 153.88427004296875,
          "velocity": 0.5118110236220472
        },
        {
          "duration": 0.43909767285157386,
          "durationTicks": 1049,
          "midi": 49,
          "name": "C#3",
          "ticks": 368644,
          "time": 154.30955434765625,
          "velocity": 0.5433070866141733
        },
        {
          "duration": 0.6450424345703141,
          "durationTicks": 1541,
          "midi": 35,
          "name": "B1",
          "ticks": 368657,
          "time": 154.31499597753907,
          "velocity": 0.5433070866141733
        },
        {
          "duration": 0.42151702246093237,
          "durationTicks": 1007,
          "midi": 46,
          "name": "A#2",
          "ticks": 369701,
          "time": 154.75200071582032,
          "velocity": 0.5118110236220472
        },
        {
          "duration": 0.21138639160156458,
          "durationTicks": 505,
          "midi": 35,
          "name": "B1",
          "ticks": 370203,
          "time": 154.96213134667968,
          "velocity": 0.5039370078740157
        },
        {
          "duration": 0.42319137011719477,
          "durationTicks": 1011,
          "midi": 35,
          "name": "B1",
          "ticks": 370712,
          "time": 155.17519208593748,
          "velocity": 0.5275590551181102
        },
        {
          "duration": 0.41984267480466997,
          "durationTicks": 1003,
          "midi": 46,
          "name": "A#2",
          "ticks": 370720,
          "time": 155.17854078125,
          "velocity": 0.5275590551181102
        },
        {
          "duration": 0.4198426748046984,
          "durationTicks": 1003,
          "midi": 46,
          "name": "A#2",
          "ticks": 371732,
          "time": 155.60215073828124,
          "velocity": 0.5118110236220472
        },
        {
          "duration": 0.41188952343750884,
          "durationTicks": 984,
          "midi": 35,
          "name": "B1",
          "ticks": 371751,
          "time": 155.61010388964843,
          "velocity": 0.5118110236220472
        },
        {
          "duration": 0.43909767285157386,
          "durationTicks": 1049,
          "midi": 35,
          "name": "B1",
          "ticks": 372740,
          "time": 156.02408634765624,
          "velocity": 0.5433070866141733
        },
        {
          "duration": 0.4336560429687495,
          "durationTicks": 1036,
          "midi": 46,
          "name": "A#2",
          "ticks": 372753,
          "time": 156.02952797753906,
          "velocity": 0.5433070866141733
        },
        {
          "duration": 0.4135638710937428,
          "durationTicks": 988,
          "midi": 46,
          "name": "A#2",
          "ticks": 373816,
          "time": 156.4744858671875,
          "velocity": 0.5118110236220472
        },
        {
          "duration": 0.4190055009765672,
          "durationTicks": 1001,
          "midi": 46,
          "name": "A#2",
          "ticks": 374818,
          "time": 156.89390995507813,
          "velocity": 0.5275590551181102
        },
        {
          "duration": 0.42319137011719477,
          "durationTicks": 1011,
          "midi": 46,
          "name": "A#2",
          "ticks": 375820,
          "time": 157.31333404296873,
          "velocity": 0.5118110236220472
        }
      ],
      "endOfTrackTicks": 408063
    },
    {
      "channel": 0,
      "controlChanges": {
        "6": [
          {
            "number": 6,
            "ticks": 4,
            "time": 0.00167434765625,
            "value": 0.09448818897637795
          }
        ],
        "7": [
          {
            "number": 7,
            "ticks": 0,
            "time": 0,
            "value": 0.7874015748031497
          },
          {
            "number": 7,
            "ticks": 0,
            "time": 0,
            "value": 0.7401574803149606
          }
        ],
        "10": [
          {
            "number": 10,
            "ticks": 0,
            "time": 0,
            "value": 0.5039370078740157
          }
        ],
        "38": [
          {
            "number": 38,
            "ticks": 5,
            "time": 0.0020929345703124998,
            "value": 0
          }
        ],
        "100": [
          {
            "number": 100,
            "ticks": 3,
            "time": 0.0012557607421875,
            "value": 0
          }
        ],
        "101": [
          {
            "number": 101,
            "ticks": 3,
            "time": 0.0012557607421875,
            "value": 0
          }
        ]
      },
      "pitchBends": [],
      "instrument": {
        "family": "guitar",
        "number": 28,
        "name": "electric guitar (muted)"
      },
      "name": "Electric Guitar",
      "notes": [
        {
          "duration": 0.2327343242187503,
          "durationTicks": 556,
          "midi": 67,
          "name": "G4",
          "ticks": 27648,
          "time": 11.573091,
          "velocity": 0.44881889763779526
        },
        {
          "duration": 0.22101389062500054,
          "durationTicks": 528,
          "midi": 64,
          "name": "E4",
          "ticks": 28174,
          "time": 11.793267716796874,
          "velocity": 0.4094488188976378
        },
        {
          "duration": 0.2327343242187503,
          "durationTicks": 556,
          "midi": 69,
          "name": "A4",
          "ticks": 28672,
          "time": 12.001724,
          "velocity": 0.41732283464566927
        },
        {
          "duration": 0.22101389062500054,
          "durationTicks": 528,
          "midi": 64,
          "name": "E4",
          "ticks": 29198,
          "time": 12.221900716796874,
          "velocity": 0.4094488188976378
        },
        {
          "duration": 0.22436258593750047,
          "durationTicks": 536,
          "midi": 71,
          "name": "B4",
          "ticks": 29696,
          "time": 12.430356999999999,
          "velocity": 0.41732283464566927
        },
        {
          "duration": 0.20468900097656295,
          "durationTicks": 489,
          "midi": 71,
          "name": "B4",
          "ticks": 30233,
          "time": 12.655138172851562,
          "velocity": 0.4094488188976378
        },
        {
          "duration": 0.21264215234375072,
          "durationTicks": 508,
          "midi": 71,
          "name": "B4",
          "ticks": 30723,
          "time": 12.860245760742187,
          "velocity": 0.4094488188976378
        },
        {
          "duration": 0.22687410742187453,
          "durationTicks": 542,
          "midi": 71,
          "name": "B4",
          "ticks": 31232,
          "time": 13.0733065,
          "velocity": 0.44881889763779526
        },
        {
          "duration": 0.2101306308593749,
          "durationTicks": 502,
          "midi": 71,
          "name": "B4",
          "ticks": 31775,
          "time": 13.300599194335938,
          "velocity": 0.4094488188976378
        },
        {
          "duration": 0.2143165000000007,
          "durationTicks": 512,
          "midi": 71,
          "name": "B4",
          "ticks": 32278,
          "time": 13.511148412109375,
          "velocity": 0.4094488188976378
        },
        {
          "duration": 0.21306073925781277,
          "durationTicks": 509,
          "midi": 71,
          "name": "B4",
          "ticks": 32791,
          "time": 13.725883499023437,
          "velocity": 0.4094488188976378
        },
        {
          "duration": 0.20552617480468705,
          "durationTicks": 491,
          "midi": 71,
          "name": "B4",
          "ticks": 33301,
          "time": 13.939362825195312,
          "velocity": 0.4094488188976378
        },
        {
          "duration": 0.2134793261718766,
          "durationTicks": 510,
          "midi": 71,
          "name": "B4",
          "ticks": 33793,
          "time": 14.145307586914061,
          "velocity": 0.4094488188976378
        },
        {
          "duration": 0.21975812988281263,
          "durationTicks": 525,
          "midi": 71,
          "name": "B4",
          "ticks": 34304,
          "time": 14.3592055,
          "velocity": 0.44881889763779526
        },
        {
          "duration": 0.20803769628906288,
          "durationTicks": 497,
          "midi": 71,
          "name": "B4",
          "ticks": 34830,
          "time": 14.579382216796875,
          "velocity": 0.4094488188976378
        },
        {
          "duration": 0.21975812988281263,
          "durationTicks": 525,
          "midi": 71,
          "name": "B4",
          "ticks": 35328,
          "time": 14.7878385,
          "velocity": 0.41732283464566927
        },
        {
          "duration": 0.20803769628906288,
          "durationTicks": 497,
          "midi": 71,
          "name": "B4",
          "ticks": 35854,
          "time": 15.008015216796874,
          "velocity": 0.4094488188976378
        },
        {
          "duration": 0.22436258593750047,
          "durationTicks": 536,
          "midi": 71,
          "name": "B4",
          "ticks": 36352,
          "time": 15.216471499999999,
          "velocity": 0.41732283464566927
        },
        {
          "duration": 0.20468900097656295,
          "durationTicks": 489,
          "midi": 71,
          "name": "B4",
          "ticks": 36889,
          "time": 15.441252672851562,
          "velocity": 0.4094488188976378
        },
        {
          "duration": 0.21264215234375072,
          "durationTicks": 508,
          "midi": 71,
          "name": "B4",
          "ticks": 37379,
          "time": 15.646360260742187,
          "velocity": 0.4094488188976378
        },
        {
          "duration": 0.2197581298828144,
          "durationTicks": 525,
          "midi": 71,
          "name": "B4",
          "ticks": 37888,
          "time": 15.859421,
          "velocity": 0.44881889763779526
        },
        {
          "duration": 0.2080376962890611,
          "durationTicks": 497,
          "midi": 71,
          "name": "B4",
          "ticks": 38414,
          "time": 16.079597716796876,
          "velocity": 0.4094488188976378
        },
        {
          "duration": 0.21975812988281263,
          "durationTicks": 525,
          "midi": 71,
          "name": "B4",
          "ticks": 38912,
          "time": 16.288054,
          "velocity": 0.41732283464566927
        },
        {
          "duration": 0.20803769628906466,
          "durationTicks": 497,
          "midi": 71,
          "name": "B4",
          "ticks": 39438,
          "time": 16.508230716796874,
          "velocity": 0.4094488188976378
        },
        {
          "duration": 0.2243625859374987,
          "durationTicks": 536,
          "midi": 71,
          "name": "B4",
          "ticks": 39936,
          "time": 16.716687,
          "velocity": 0.41732283464566927
        },
        {
          "duration": 0.20468900097656473,
          "durationTicks": 489,
          "midi": 71,
          "name": "B4",
          "ticks": 40473,
          "time": 16.94146817285156,
          "velocity": 0.4094488188976378
        },
        {
          "duration": 0.21264215234375072,
          "durationTicks": 508,
          "midi": 71,
          "name": "B4",
          "ticks": 40963,
          "time": 17.146575760742188,
          "velocity": 0.4094488188976378
        },
        {
          "duration": 0.21975812988281263,
          "durationTicks": 525,
          "midi": 71,
          "name": "B4",
          "ticks": 41472,
          "time": 17.3596365,
          "velocity": 0.44881889763779526
        },
        {
          "duration": 0.2080376962890611,
          "durationTicks": 497,
          "midi": 71,
          "name": "B4",
          "ticks": 41998,
          "time": 17.579813216796875,
          "velocity": 0.4094488188976378
        },
        {
          "duration": 0.21975812988281263,
          "durationTicks": 525,
          "midi": 71,
          "name": "B4",
          "ticks": 42496,
          "time": 17.7882695,
          "velocity": 0.41732283464566927
        },
        {
          "duration": 0.20803769628906466,
          "durationTicks": 497,
          "midi": 71,
          "name": "B4",
          "ticks": 43022,
          "time": 18.008446216796873,
          "velocity": 0.4094488188976378
        },
        {
          "duration": 0.2243625859374987,
          "durationTicks": 536,
          "midi": 71,
          "name": "B4",
          "ticks": 43520,
          "time": 18.2169025,
          "velocity": 0.41732283464566927
        },
        {
          "duration": 0.20468900097656473,
          "durationTicks": 489,
          "midi": 71,
          "name": "B4",
          "ticks": 44057,
          "time": 18.44168367285156,
          "velocity": 0.4094488188976378
        },
        {
          "duration": 0.21264215234375072,
          "durationTicks": 508,
          "midi": 71,
          "name": "B4",
          "ticks": 44547,
          "time": 18.646791260742187,
          "velocity": 0.4094488188976378
        },
        {
          "duration": 0.22687410742187453,
          "durationTicks": 542,
          "midi": 71,
          "name": "B4",
          "ticks": 45056,
          "time": 18.859852,
          "velocity": 0.44881889763779526
        },
        {
          "duration": 0.2101306308593749,
          "durationTicks": 502,
          "midi": 71,
          "name": "B4",
          "ticks": 45599,
          "time": 19.087144694335937,
          "velocity": 0.4094488188976378
        },
        {
          "duration": 0.21431650000000246,
          "durationTicks": 512,
          "midi": 71,
          "name": "B4",
          "ticks": 46102,
          "time": 19.297693912109374,
          "velocity": 0.4094488188976378
        },
        {
          "duration": 0.21306073925781277,
          "durationTicks": 509,
          "midi": 71,
          "name": "B4",
          "ticks": 46615,
          "time": 19.512428999023438,
          "velocity": 0.4094488188976378
        },
        {
          "duration": 0.20552617480468527,
          "durationTicks": 491,
          "midi": 71,
          "name": "B4",
          "ticks": 47125,
          "time": 19.725908325195313,
          "velocity": 0.4094488188976378
        },
        {
          "duration": 0.21347932617187837,
          "durationTicks": 510,
          "midi": 71,
          "name": "B4",
          "ticks": 47617,
          "time": 19.93185308691406,
          "velocity": 0.4094488188976378
        },
        {
          "duration": 0.21975812988281263,
          "durationTicks": 525,
          "midi": 71,
          "name": "B4",
          "ticks": 48128,
          "time": 20.145751,
          "velocity": 0.44881889763779526
        },
        {
          "duration": 0.2080376962890611,
          "durationTicks": 497,
          "midi": 71,
          "name": "B4",
          "ticks": 48654,
          "time": 20.365927716796875,
          "velocity": 0.4094488188976378
        },
        {
          "duration": 0.21975812988281263,
          "durationTicks": 525,
          "midi": 71,
          "name": "B4",
          "ticks": 49152,
          "time": 20.574384,
          "velocity": 0.41732283464566927
        },
        {
          "duration": 0.20803769628906466,
          "durationTicks": 497,
          "midi": 71,
          "name": "B4",
          "ticks": 49678,
          "time": 20.794560716796873,
          "velocity": 0.4094488188976378
        },
        {
          "duration": 0.2243625859374987,
          "durationTicks": 536,
          "midi": 71,
          "name": "B4",
          "ticks": 50176,
          "time": 21.003017,
          "velocity": 0.41732283464566927
        },
        {
          "duration": 0.20468900097656473,
          "durationTicks": 489,
          "midi": 71,
          "name": "B4",
          "ticks": 50713,
          "time": 21.22779817285156,
          "velocity": 0.4094488188976378
        },
        {
          "duration": 0.21264215234375072,
          "durationTicks": 508,
          "midi": 71,
          "name": "B4",
          "ticks": 51203,
          "time": 21.432905760742187,
          "velocity": 0.4094488188976378
        },
        {
          "duration": 0.21975812988281263,
          "durationTicks": 525,
          "midi": 71,
          "name": "B4",
          "ticks": 51712,
          "time": 21.6459665,
          "velocity": 0.44881889763779526
        },
        {
          "duration": 0.2080376962890611,
          "durationTicks": 497,
          "midi": 71,
          "name": "B4",
          "ticks": 52238,
          "time": 21.866143216796875,
          "velocity": 0.4094488188976378
        },
        {
          "duration": 0.21975812988281263,
          "durationTicks": 525,
          "midi": 71,
          "name": "B4",
          "ticks": 52736,
          "time": 22.074599499999998,
          "velocity": 0.41732283464566927
        },
        {
          "duration": 0.20803769628906466,
          "durationTicks": 497,
          "midi": 71,
          "name": "B4",
          "ticks": 53262,
          "time": 22.294776216796873,
          "velocity": 0.4094488188976378
        },
        {
          "duration": 0.2243625859374987,
          "durationTicks": 536,
          "midi": 71,
          "name": "B4",
          "ticks": 53760,
          "time": 22.5032325,
          "velocity": 0.41732283464566927
        },
        {
          "duration": 0.20468900097656473,
          "durationTicks": 489,
          "midi": 71,
          "name": "B4",
          "ticks": 54297,
          "time": 22.72801367285156,
          "velocity": 0.4094488188976378
        },
        {
          "duration": 0.21264215234375072,
          "durationTicks": 508,
          "midi": 71,
          "name": "B4",
          "ticks": 54787,
          "time": 22.933121260742187,
          "velocity": 0.4094488188976378
        },
        {
          "duration": 0.21975812988281263,
          "durationTicks": 525,
          "midi": 71,
          "name": "B4",
          "ticks": 55296,
          "time": 23.146182,
          "velocity": 0.44881889763779526
        },
        {
          "duration": 0.2080376962890611,
          "durationTicks": 497,
          "midi": 71,
          "name": "B4",
          "ticks": 55822,
          "time": 23.366358716796874,
          "velocity": 0.4094488188976378
        },
        {
          "duration": 0.21975812988280907,
          "durationTicks": 525,
          "midi": 71,
          "name": "B4",
          "ticks": 56320,
          "time": 23.574815,
          "velocity": 0.41732283464566927
        },
        {
          "duration": 0.2080376962890611,
          "durationTicks": 497,
          "midi": 71,
          "name": "B4",
          "ticks": 56846,
          "time": 23.794991716796876,
          "velocity": 0.4094488188976378
        },
        {
          "duration": 0.2243625859374987,
          "durationTicks": 536,
          "midi": 71,
          "name": "B4",
          "ticks": 57344,
          "time": 24.003448,
          "velocity": 0.41732283464566927
        },
        {
          "duration": 0.20468900097656118,
          "durationTicks": 489,
          "midi": 71,
          "name": "B4",
          "ticks": 57881,
          "time": 24.228229172851563,
          "velocity": 0.4094488188976378
        },
        {
          "duration": 0.21264215234375072,
          "durationTicks": 508,
          "midi": 71,
          "name": "B4",
          "ticks": 58371,
          "time": 24.433336760742186,
          "velocity": 0.4094488188976378
        },
        {
          "duration": 0.22687410742187453,
          "durationTicks": 542,
          "midi": 71,
          "name": "B4",
          "ticks": 58880,
          "time": 24.6463975,
          "velocity": 0.44881889763779526
        },
        {
          "duration": 0.2101306308593749,
          "durationTicks": 502,
          "midi": 71,
          "name": "B4",
          "ticks": 59423,
          "time": 24.873690194335936,
          "velocity": 0.4094488188976378
        },
        {
          "duration": 0.21431650000000246,
          "durationTicks": 512,
          "midi": 71,
          "name": "B4",
          "ticks": 59926,
          "time": 25.084239412109373,
          "velocity": 0.4094488188976378
        },
        {
          "duration": 0.21306073925781277,
          "durationTicks": 509,
          "midi": 71,
          "name": "B4",
          "ticks": 60439,
          "time": 25.298974499023437,
          "velocity": 0.4094488188976378
        },
        {
          "duration": 0.20552617480468882,
          "durationTicks": 491,
          "midi": 71,
          "name": "B4",
          "ticks": 60949,
          "time": 25.512453825195312,
          "velocity": 0.4094488188976378
        },
        {
          "duration": 0.21347932617187482,
          "durationTicks": 510,
          "midi": 71,
          "name": "B4",
          "ticks": 61441,
          "time": 25.718398586914063,
          "velocity": 0.4094488188976378
        },
        {
          "duration": 0.21975812988281263,
          "durationTicks": 525,
          "midi": 71,
          "name": "B4",
          "ticks": 61952,
          "time": 25.9322965,
          "velocity": 0.44881889763779526
        },
        {
          "duration": 0.2080376962890611,
          "durationTicks": 497,
          "midi": 71,
          "name": "B4",
          "ticks": 62478,
          "time": 26.152473216796874,
          "velocity": 0.4094488188976378
        },
        {
          "duration": 0.21975812988281263,
          "durationTicks": 525,
          "midi": 71,
          "name": "B4",
          "ticks": 62976,
          "time": 26.360929499999997,
          "velocity": 0.41732283464566927
        },
        {
          "duration": 0.2080376962890611,
          "durationTicks": 497,
          "midi": 71,
          "name": "B4",
          "ticks": 63502,
          "time": 26.581106216796876,
          "velocity": 0.4094488188976378
        },
        {
          "duration": 0.2243625859374987,
          "durationTicks": 536,
          "midi": 71,
          "name": "B4",
          "ticks": 64000,
          "time": 26.7895625,
          "velocity": 0.41732283464566927
        },
        {
          "duration": 0.20468900097656118,
          "durationTicks": 489,
          "midi": 71,
          "name": "B4",
          "ticks": 64537,
          "time": 27.014343672851563,
          "velocity": 0.4094488188976378
        },
        {
          "duration": 0.21264215234375072,
          "durationTicks": 508,
          "midi": 71,
          "name": "B4",
          "ticks": 65027,
          "time": 27.219451260742186,
          "velocity": 0.4094488188976378
        },
        {
          "duration": 0.21975812988281263,
          "durationTicks": 525,
          "midi": 71,
          "name": "B4",
          "ticks": 65536,
          "time": 27.432512,
          "velocity": 0.44881889763779526
        },
        {
          "duration": 0.2080376962890611,
          "durationTicks": 497,
          "midi": 71,
          "name": "B4",
          "ticks": 66062,
          "time": 27.652688716796874,
          "velocity": 0.4094488188976378
        },
        {
          "duration": 0.21975812988281263,
          "durationTicks": 525,
          "midi": 71,
          "name": "B4",
          "ticks": 66560,
          "time": 27.861145,
          "velocity": 0.41732283464566927
        },
        {
          "duration": 0.2080376962890611,
          "durationTicks": 497,
          "midi": 71,
          "name": "B4",
          "ticks": 67086,
          "time": 28.081321716796875,
          "velocity": 0.4094488188976378
        },
        {
          "duration": 0.22436258593750225,
          "durationTicks": 536,
          "midi": 71,
          "name": "B4",
          "ticks": 67584,
          "time": 28.289778,
          "velocity": 0.41732283464566927
        },
        {
          "duration": 0.20468900097656118,
          "durationTicks": 489,
          "midi": 71,
          "name": "B4",
          "ticks": 68121,
          "time": 28.514559172851563,
          "velocity": 0.4094488188976378
        },
        {
          "duration": 0.21264215234375072,
          "durationTicks": 508,
          "midi": 71,
          "name": "B4",
          "ticks": 68611,
          "time": 28.719666760742186,
          "velocity": 0.4094488188976378
        },
        {
          "duration": 0.21975812988281263,
          "durationTicks": 525,
          "midi": 71,
          "name": "B4",
          "ticks": 69120,
          "time": 28.9327275,
          "velocity": 0.44881889763779526
        },
        {
          "duration": 0.20803769628906466,
          "durationTicks": 497,
          "midi": 71,
          "name": "B4",
          "ticks": 69646,
          "time": 29.152904216796873,
          "velocity": 0.4094488188976378
        },
        {
          "duration": 0.21975812988281263,
          "durationTicks": 525,
          "midi": 71,
          "name": "B4",
          "ticks": 70144,
          "time": 29.3613605,
          "velocity": 0.41732283464566927
        },
        {
          "duration": 0.2080376962890611,
          "durationTicks": 497,
          "midi": 71,
          "name": "B4",
          "ticks": 70670,
          "time": 29.581537216796875,
          "velocity": 0.4094488188976378
        },
        {
          "duration": 0.22436258593750225,
          "durationTicks": 536,
          "midi": 71,
          "name": "B4",
          "ticks": 71168,
          "time": 29.789993499999998,
          "velocity": 0.41732283464566927
        },
        {
          "duration": 0.20468900097656118,
          "durationTicks": 489,
          "midi": 71,
          "name": "B4",
          "ticks": 71705,
          "time": 30.014774672851562,
          "velocity": 0.4094488188976378
        },
        {
          "duration": 0.21264215234375072,
          "durationTicks": 508,
          "midi": 71,
          "name": "B4",
          "ticks": 72195,
          "time": 30.219882260742185,
          "velocity": 0.4094488188976378
        },
        {
          "duration": 0.22687410742187453,
          "durationTicks": 542,
          "midi": 71,
          "name": "B4",
          "ticks": 72704,
          "time": 30.432942999999998,
          "velocity": 0.44881889763779526
        },
        {
          "duration": 0.2101306308593749,
          "durationTicks": 502,
          "midi": 71,
          "name": "B4",
          "ticks": 73247,
          "time": 30.660235694335938,
          "velocity": 0.4094488188976378
        },
        {
          "duration": 0.2143164999999989,
          "durationTicks": 512,
          "midi": 71,
          "name": "B4",
          "ticks": 73750,
          "time": 30.870784912109375,
          "velocity": 0.4094488188976378
        },
        {
          "duration": 0.21306073925781277,
          "durationTicks": 509,
          "midi": 71,
          "name": "B4",
          "ticks": 74263,
          "time": 31.085519999023436,
          "velocity": 0.4094488188976378
        },
        {
          "duration": 0.20552617480468882,
          "durationTicks": 491,
          "midi": 71,
          "name": "B4",
          "ticks": 74773,
          "time": 31.29899932519531,
          "velocity": 0.4094488188976378
        },
        {
          "duration": 0.21347932617187482,
          "durationTicks": 510,
          "midi": 71,
          "name": "B4",
          "ticks": 75265,
          "time": 31.504944086914062,
          "velocity": 0.4094488188976378
        },
        {
          "duration": 0.21975812988281263,
          "durationTicks": 525,
          "midi": 71,
          "name": "B4",
          "ticks": 75776,
          "time": 31.718842,
          "velocity": 0.44881889763779526
        },
        {
          "duration": 0.2080376962890611,
          "durationTicks": 497,
          "midi": 71,
          "name": "B4",
          "ticks": 76302,
          "time": 31.939018716796873,
          "velocity": 0.4094488188976378
        },
        {
          "duration": 0.21975812988281263,
          "durationTicks": 525,
          "midi": 71,
          "name": "B4",
          "ticks": 76800,
          "time": 32.147475,
          "velocity": 0.41732283464566927
        },
        {
          "duration": 0.2080376962890682,
          "durationTicks": 497,
          "midi": 71,
          "name": "B4",
          "ticks": 77326,
          "time": 32.36765171679687,
          "velocity": 0.4094488188976378
        },
        {
          "duration": 0.2243625859374987,
          "durationTicks": 536,
          "midi": 71,
          "name": "B4",
          "ticks": 77824,
          "time": 32.576108,
          "velocity": 0.41732283464566927
        },
        {
          "duration": 0.20468900097656473,
          "durationTicks": 489,
          "midi": 71,
          "name": "B4",
          "ticks": 78361,
          "time": 32.80088917285156,
          "velocity": 0.4094488188976378
        },
        {
          "duration": 0.21264215234375428,
          "durationTicks": 508,
          "midi": 71,
          "name": "B4",
          "ticks": 78851,
          "time": 33.005996760742185,
          "velocity": 0.4094488188976378
        },
        {
          "duration": 0.21975812988281263,
          "durationTicks": 525,
          "midi": 71,
          "name": "B4",
          "ticks": 79360,
          "time": 33.2190575,
          "velocity": 0.44881889763779526
        },
        {
          "duration": 0.2080376962890611,
          "durationTicks": 497,
          "midi": 71,
          "name": "B4",
          "ticks": 79886,
          "time": 33.439234216796876,
          "velocity": 0.4094488188976378
        },
        {
          "duration": 0.21975812988281263,
          "durationTicks": 525,
          "midi": 71,
          "name": "B4",
          "ticks": 80384,
          "time": 33.647690499999996,
          "velocity": 0.41732283464566927
        },
        {
          "duration": 0.2080376962890611,
          "durationTicks": 497,
          "midi": 71,
          "name": "B4",
          "ticks": 80910,
          "time": 33.867867216796874,
          "velocity": 0.4094488188976378
        },
        {
          "duration": 0.2243625859374987,
          "durationTicks": 536,
          "midi": 71,
          "name": "B4",
          "ticks": 81408,
          "time": 34.0763235,
          "velocity": 0.41732283464566927
        },
        {
          "duration": 0.20468900097656473,
          "durationTicks": 489,
          "midi": 71,
          "name": "B4",
          "ticks": 81945,
          "time": 34.30110467285156,
          "velocity": 0.4094488188976378
        },
        {
          "duration": 0.21264215234374717,
          "durationTicks": 508,
          "midi": 71,
          "name": "B4",
          "ticks": 82435,
          "time": 34.50621226074219,
          "velocity": 0.4094488188976378
        },
        {
          "duration": 0.21975812988281263,
          "durationTicks": 525,
          "midi": 71,
          "name": "B4",
          "ticks": 82944,
          "time": 34.719273,
          "velocity": 0.44881889763779526
        },
        {
          "duration": 0.2080376962890611,
          "durationTicks": 497,
          "midi": 71,
          "name": "B4",
          "ticks": 83470,
          "time": 34.93944971679687,
          "velocity": 0.4094488188976378
        },
        {
          "duration": 0.21975812988281263,
          "durationTicks": 525,
          "midi": 71,
          "name": "B4",
          "ticks": 83968,
          "time": 35.147906,
          "velocity": 0.41732283464566927
        },
        {
          "duration": 0.2080376962890611,
          "durationTicks": 497,
          "midi": 71,
          "name": "B4",
          "ticks": 84494,
          "time": 35.36808271679688,
          "velocity": 0.4094488188976378
        },
        {
          "duration": 0.2243625859374987,
          "durationTicks": 536,
          "midi": 71,
          "name": "B4",
          "ticks": 84992,
          "time": 35.576539,
          "velocity": 0.41732283464566927
        },
        {
          "duration": 0.20468900097656473,
          "durationTicks": 489,
          "midi": 71,
          "name": "B4",
          "ticks": 85529,
          "time": 35.80132017285156,
          "velocity": 0.4094488188976378
        },
        {
          "duration": 0.21264215234375428,
          "durationTicks": 508,
          "midi": 71,
          "name": "B4",
          "ticks": 86019,
          "time": 36.006427760742184,
          "velocity": 0.4094488188976378
        },
        {
          "duration": 0.22687410742187808,
          "durationTicks": 542,
          "midi": 71,
          "name": "B4",
          "ticks": 86528,
          "time": 36.2194885,
          "velocity": 0.44881889763779526
        },
        {
          "duration": 0.2101306308593749,
          "durationTicks": 502,
          "midi": 71,
          "name": "B4",
          "ticks": 87071,
          "time": 36.446781194335934,
          "velocity": 0.4094488188976378
        },
        {
          "duration": 0.21431650000000246,
          "durationTicks": 512,
          "midi": 71,
          "name": "B4",
          "ticks": 87574,
          "time": 36.657330412109374,
          "velocity": 0.4094488188976378
        },
        {
          "duration": 0.21306073925781277,
          "durationTicks": 509,
          "midi": 71,
          "name": "B4",
          "ticks": 88087,
          "time": 36.872065499023435,
          "velocity": 0.4094488188976378
        },
        {
          "duration": 0.20552617480468882,
          "durationTicks": 491,
          "midi": 71,
          "name": "B4",
          "ticks": 88597,
          "time": 37.08554482519531,
          "velocity": 0.4094488188976378
        },
        {
          "duration": 0.21347932617187837,
          "durationTicks": 510,
          "midi": 71,
          "name": "B4",
          "ticks": 89089,
          "time": 37.29148958691406,
          "velocity": 0.4094488188976378
        },
        {
          "duration": 0.21975812988281263,
          "durationTicks": 525,
          "midi": 71,
          "name": "B4",
          "ticks": 89600,
          "time": 37.5053875,
          "velocity": 0.44881889763779526
        },
        {
          "duration": 0.2080376962890611,
          "durationTicks": 497,
          "midi": 71,
          "name": "B4",
          "ticks": 90126,
          "time": 37.725564216796876,
          "velocity": 0.4094488188976378
        },
        {
          "duration": 0.21975812988281263,
          "durationTicks": 525,
          "midi": 71,
          "name": "B4",
          "ticks": 90624,
          "time": 37.934020499999995,
          "velocity": 0.41732283464566927
        },
        {
          "duration": 0.2080376962890611,
          "durationTicks": 497,
          "midi": 71,
          "name": "B4",
          "ticks": 91150,
          "time": 38.154197216796874,
          "velocity": 0.4094488188976378
        },
        {
          "duration": 0.2243625859374987,
          "durationTicks": 536,
          "midi": 71,
          "name": "B4",
          "ticks": 91648,
          "time": 38.3626535,
          "velocity": 0.41732283464566927
        },
        {
          "duration": 0.20468900097655762,
          "durationTicks": 489,
          "midi": 71,
          "name": "B4",
          "ticks": 92185,
          "time": 38.587434672851565,
          "velocity": 0.4094488188976378
        },
        {
          "duration": 0.21264215234374717,
          "durationTicks": 508,
          "midi": 71,
          "name": "B4",
          "ticks": 92675,
          "time": 38.79254226074219,
          "velocity": 0.4094488188976378
        },
        {
          "duration": 0.21975812988281263,
          "durationTicks": 525,
          "midi": 71,
          "name": "B4",
          "ticks": 93184,
          "time": 39.005603,
          "velocity": 0.44881889763779526
        },
        {
          "duration": 0.2080376962890611,
          "durationTicks": 497,
          "midi": 71,
          "name": "B4",
          "ticks": 93710,
          "time": 39.22577971679687,
          "velocity": 0.4094488188976378
        },
        {
          "duration": 0.21975812988281263,
          "durationTicks": 525,
          "midi": 71,
          "name": "B4",
          "ticks": 94208,
          "time": 39.434236,
          "velocity": 0.41732283464566927
        },
        {
          "duration": 0.2080376962890611,
          "durationTicks": 497,
          "midi": 71,
          "name": "B4",
          "ticks": 94734,
          "time": 39.65441271679688,
          "velocity": 0.4094488188976378
        },
        {
          "duration": 0.2243625859375058,
          "durationTicks": 536,
          "midi": 71,
          "name": "B4",
          "ticks": 95232,
          "time": 39.862868999999996,
          "velocity": 0.41732283464566927
        },
        {
          "duration": 0.20468900097656473,
          "durationTicks": 489,
          "midi": 71,
          "name": "B4",
          "ticks": 95769,
          "time": 40.08765017285156,
          "velocity": 0.4094488188976378
        },
        {
          "duration": 0.21264215234375428,
          "durationTicks": 508,
          "midi": 71,
          "name": "B4",
          "ticks": 96259,
          "time": 40.292757760742184,
          "velocity": 0.4094488188976378
        },
        {
          "duration": 0.21975812988281263,
          "durationTicks": 525,
          "midi": 71,
          "name": "B4",
          "ticks": 96768,
          "time": 40.5058185,
          "velocity": 0.44881889763779526
        },
        {
          "duration": 0.2080376962890611,
          "durationTicks": 497,
          "midi": 71,
          "name": "B4",
          "ticks": 97294,
          "time": 40.725995216796875,
          "velocity": 0.4094488188976378
        },
        {
          "duration": 0.21975812988281263,
          "durationTicks": 525,
          "midi": 71,
          "name": "B4",
          "ticks": 97792,
          "time": 40.9344515,
          "velocity": 0.41732283464566927
        },
        {
          "duration": 0.2080376962890611,
          "durationTicks": 497,
          "midi": 71,
          "name": "B4",
          "ticks": 98318,
          "time": 41.15462821679687,
          "velocity": 0.4094488188976378
        },
        {
          "duration": 0.2243625859374987,
          "durationTicks": 536,
          "midi": 71,
          "name": "B4",
          "ticks": 98816,
          "time": 41.3630845,
          "velocity": 0.41732283464566927
        },
        {
          "duration": 0.20468900097655762,
          "durationTicks": 489,
          "midi": 71,
          "name": "B4",
          "ticks": 99353,
          "time": 41.587865672851564,
          "velocity": 0.4094488188976378
        },
        {
          "duration": 0.21264215234374717,
          "durationTicks": 508,
          "midi": 71,
          "name": "B4",
          "ticks": 99843,
          "time": 41.79297326074219,
          "velocity": 0.4094488188976378
        },
        {
          "duration": 0.22687410742187097,
          "durationTicks": 542,
          "midi": 71,
          "name": "B4",
          "ticks": 100352,
          "time": 42.006034,
          "velocity": 0.44881889763779526
        },
        {
          "duration": 0.2101306308593749,
          "durationTicks": 502,
          "midi": 71,
          "name": "B4",
          "ticks": 100895,
          "time": 42.233326694335936,
          "velocity": 0.4094488188976378
        },
        {
          "duration": 0.21431649999999536,
          "durationTicks": 512,
          "midi": 71,
          "name": "B4",
          "ticks": 101398,
          "time": 42.44387591210938,
          "velocity": 0.4094488188976378
        },
        {
          "duration": 0.21306073925781277,
          "durationTicks": 509,
          "midi": 71,
          "name": "B4",
          "ticks": 101911,
          "time": 42.65861099902344,
          "velocity": 0.4094488188976378
        },
        {
          "duration": 0.20552617480468882,
          "durationTicks": 491,
          "midi": 71,
          "name": "B4",
          "ticks": 102421,
          "time": 42.87209032519531,
          "velocity": 0.4094488188976378
        },
        {
          "duration": 0.21347932617187126,
          "durationTicks": 510,
          "midi": 71,
          "name": "B4",
          "ticks": 102913,
          "time": 43.07803508691406,
          "velocity": 0.4094488188976378
        },
        {
          "duration": 0.21975812988281263,
          "durationTicks": 525,
          "midi": 71,
          "name": "B4",
          "ticks": 103424,
          "time": 43.291933,
          "velocity": 0.44881889763779526
        },
        {
          "duration": 0.2080376962890682,
          "durationTicks": 497,
          "midi": 71,
          "name": "B4",
          "ticks": 103950,
          "time": 43.51210971679687,
          "velocity": 0.4094488188976378
        },
        {
          "duration": 0.21975812988281263,
          "durationTicks": 525,
          "midi": 71,
          "name": "B4",
          "ticks": 104448,
          "time": 43.720566,
          "velocity": 0.41732283464566927
        },
        {
          "duration": 0.2080376962890611,
          "durationTicks": 497,
          "midi": 71,
          "name": "B4",
          "ticks": 104974,
          "time": 43.940742716796876,
          "velocity": 0.4094488188976378
        },
        {
          "duration": 0.2243625859375058,
          "durationTicks": 536,
          "midi": 71,
          "name": "B4",
          "ticks": 105472,
          "time": 44.149198999999996,
          "velocity": 0.41732283464566927
        },
        {
          "duration": 0.20468900097656473,
          "durationTicks": 489,
          "midi": 71,
          "name": "B4",
          "ticks": 106009,
          "time": 44.37398017285156,
          "velocity": 0.4094488188976378
        },
        {
          "duration": 0.21264215234375428,
          "durationTicks": 508,
          "midi": 71,
          "name": "B4",
          "ticks": 106499,
          "time": 44.57908776074218,
          "velocity": 0.4094488188976378
        },
        {
          "duration": 0.21975812988281263,
          "durationTicks": 525,
          "midi": 71,
          "name": "B4",
          "ticks": 107008,
          "time": 44.792148499999996,
          "velocity": 0.44881889763779526
        },
        {
          "duration": 0.2080376962890611,
          "durationTicks": 497,
          "midi": 71,
          "name": "B4",
          "ticks": 107534,
          "time": 45.012325216796874,
          "velocity": 0.4094488188976378
        },
        {
          "duration": 0.21975812988281263,
          "durationTicks": 525,
          "midi": 71,
          "name": "B4",
          "ticks": 108032,
          "time": 45.2207815,
          "velocity": 0.41732283464566927
        },
        {
          "duration": 0.2080376962890611,
          "durationTicks": 497,
          "midi": 71,
          "name": "B4",
          "ticks": 108558,
          "time": 45.44095821679687,
          "velocity": 0.4094488188976378
        },
        {
          "duration": 0.2243625859374987,
          "durationTicks": 536,
          "midi": 71,
          "name": "B4",
          "ticks": 109056,
          "time": 45.6494145,
          "velocity": 0.41732283464566927
        },
        {
          "duration": 0.20468900097655762,
          "durationTicks": 489,
          "midi": 71,
          "name": "B4",
          "ticks": 109593,
          "time": 45.87419567285156,
          "velocity": 0.4094488188976378
        },
        {
          "duration": 0.21264215234374717,
          "durationTicks": 508,
          "midi": 71,
          "name": "B4",
          "ticks": 110083,
          "time": 46.079303260742186,
          "velocity": 0.4094488188976378
        },
        {
          "duration": 0.21975812988281263,
          "durationTicks": 525,
          "midi": 71,
          "name": "B4",
          "ticks": 110592,
          "time": 46.292364,
          "velocity": 0.44881889763779526
        },
        {
          "duration": 0.2080376962890682,
          "durationTicks": 497,
          "midi": 71,
          "name": "B4",
          "ticks": 111118,
          "time": 46.51254071679687,
          "velocity": 0.4094488188976378
        },
        {
          "duration": 0.21975812988281263,
          "durationTicks": 525,
          "midi": 71,
          "name": "B4",
          "ticks": 111616,
          "time": 46.720997,
          "velocity": 0.41732283464566927
        },
        {
          "duration": 0.2080376962890611,
          "durationTicks": 497,
          "midi": 71,
          "name": "B4",
          "ticks": 112142,
          "time": 46.941173716796875,
          "velocity": 0.4094488188976378
        },
        {
          "duration": 0.2243625859374987,
          "durationTicks": 536,
          "midi": 71,
          "name": "B4",
          "ticks": 112640,
          "time": 47.14963,
          "velocity": 0.41732283464566927
        },
        {
          "duration": 0.20468900097656473,
          "durationTicks": 489,
          "midi": 71,
          "name": "B4",
          "ticks": 113177,
          "time": 47.37441117285156,
          "velocity": 0.4094488188976378
        },
        {
          "duration": 0.21264215234374717,
          "durationTicks": 508,
          "midi": 71,
          "name": "B4",
          "ticks": 113667,
          "time": 47.57951876074219,
          "velocity": 0.4094488188976378
        },
        {
          "duration": 0.22687410742187808,
          "durationTicks": 542,
          "midi": 71,
          "name": "B4",
          "ticks": 114176,
          "time": 47.792579499999995,
          "velocity": 0.44881889763779526
        },
        {
          "duration": 0.2101306308593749,
          "durationTicks": 502,
          "midi": 71,
          "name": "B4",
          "ticks": 114719,
          "time": 48.01987219433594,
          "velocity": 0.4094488188976378
        },
        {
          "duration": 0.21431650000000246,
          "durationTicks": 512,
          "midi": 71,
          "name": "B4",
          "ticks": 115222,
          "time": 48.23042141210937,
          "velocity": 0.4094488188976378
        },
        {
          "duration": 0.21306073925781277,
          "durationTicks": 509,
          "midi": 71,
          "name": "B4",
          "ticks": 115735,
          "time": 48.44515649902343,
          "velocity": 0.4094488188976378
        },
        {
          "duration": 0.20552617480468882,
          "durationTicks": 491,
          "midi": 71,
          "name": "B4",
          "ticks": 116245,
          "time": 48.65863582519531,
          "velocity": 0.4094488188976378
        },
        {
          "duration": 0.21347932617187837,
          "durationTicks": 510,
          "midi": 71,
          "name": "B4",
          "ticks": 116737,
          "time": 48.86458058691406,
          "velocity": 0.4094488188976378
        },
        {
          "duration": 0.21975812988281263,
          "durationTicks": 525,
          "midi": 71,
          "name": "B4",
          "ticks": 117248,
          "time": 49.078478499999996,
          "velocity": 0.44881889763779526
        },
        {
          "duration": 0.2080376962890611,
          "durationTicks": 497,
          "midi": 71,
          "name": "B4",
          "ticks": 117774,
          "time": 49.298655216796874,
          "velocity": 0.4094488188976378
        },
        {
          "duration": 0.21975812988281263,
          "durationTicks": 525,
          "midi": 71,
          "name": "B4",
          "ticks": 118272,
          "time": 49.5071115,
          "velocity": 0.41732283464566927
        },
        {
          "duration": 0.2080376962890611,
          "durationTicks": 497,
          "midi": 71,
          "name": "B4",
          "ticks": 118798,
          "time": 49.72728821679687,
          "velocity": 0.4094488188976378
        },
        {
          "duration": 0.2243625859374987,
          "durationTicks": 536,
          "midi": 71,
          "name": "B4",
          "ticks": 119296,
          "time": 49.9357445,
          "velocity": 0.41732283464566927
        },
        {
          "duration": 0.20468900097655762,
          "durationTicks": 489,
          "midi": 71,
          "name": "B4",
          "ticks": 119833,
          "time": 50.16052567285156,
          "velocity": 0.4094488188976378
        },
        {
          "duration": 0.21264215234374717,
          "durationTicks": 508,
          "midi": 71,
          "name": "B4",
          "ticks": 120323,
          "time": 50.365633260742186,
          "velocity": 0.4094488188976378
        },
        {
          "duration": 0.21975812988281263,
          "durationTicks": 525,
          "midi": 71,
          "name": "B4",
          "ticks": 120832,
          "time": 50.578694,
          "velocity": 0.44881889763779526
        },
        {
          "duration": 0.2080376962890682,
          "durationTicks": 497,
          "midi": 71,
          "name": "B4",
          "ticks": 121358,
          "time": 50.79887071679687,
          "velocity": 0.4094488188976378
        },
        {
          "duration": 0.21975812988281263,
          "durationTicks": 525,
          "midi": 71,
          "name": "B4",
          "ticks": 121856,
          "time": 51.007327,
          "velocity": 0.41732283464566927
        },
        {
          "duration": 0.2080376962890611,
          "durationTicks": 497,
          "midi": 71,
          "name": "B4",
          "ticks": 122382,
          "time": 51.227503716796875,
          "velocity": 0.4094488188976378
        },
        {
          "duration": 0.2243625859374987,
          "durationTicks": 536,
          "midi": 71,
          "name": "B4",
          "ticks": 122880,
          "time": 51.43596,
          "velocity": 0.41732283464566927
        },
        {
          "duration": 0.20468900097656473,
          "durationTicks": 489,
          "midi": 71,
          "name": "B4",
          "ticks": 123417,
          "time": 51.66074117285156,
          "velocity": 0.4094488188976378
        },
        {
          "duration": 0.21264215234374717,
          "durationTicks": 508,
          "midi": 71,
          "name": "B4",
          "ticks": 123907,
          "time": 51.86584876074219,
          "velocity": 0.4094488188976378
        },
        {
          "duration": 0.21975812988281263,
          "durationTicks": 525,
          "midi": 71,
          "name": "B4",
          "ticks": 124416,
          "time": 52.0789095,
          "velocity": 0.44881889763779526
        },
        {
          "duration": 0.2080376962890611,
          "durationTicks": 497,
          "midi": 71,
          "name": "B4",
          "ticks": 124942,
          "time": 52.29908621679687,
          "velocity": 0.4094488188976378
        },
        {
          "duration": 0.21975812988281263,
          "durationTicks": 525,
          "midi": 71,
          "name": "B4",
          "ticks": 125440,
          "time": 52.5075425,
          "velocity": 0.41732283464566927
        },
        {
          "duration": 0.2080376962890682,
          "durationTicks": 497,
          "midi": 71,
          "name": "B4",
          "ticks": 125966,
          "time": 52.72771921679687,
          "velocity": 0.4094488188976378
        },
        {
          "duration": 0.2243625859374987,
          "durationTicks": 536,
          "midi": 71,
          "name": "B4",
          "ticks": 126464,
          "time": 52.9361755,
          "velocity": 0.41732283464566927
        },
        {
          "duration": 0.20468900097656473,
          "durationTicks": 489,
          "midi": 71,
          "name": "B4",
          "ticks": 127001,
          "time": 53.16095667285156,
          "velocity": 0.4094488188976378
        },
        {
          "duration": 0.21264215234375428,
          "durationTicks": 508,
          "midi": 71,
          "name": "B4",
          "ticks": 127491,
          "time": 53.366064260742185,
          "velocity": 0.4094488188976378
        },
        {
          "duration": 0.22687410742187808,
          "durationTicks": 542,
          "midi": 71,
          "name": "B4",
          "ticks": 128000,
          "time": 53.579125,
          "velocity": 0.44881889763779526
        },
        {
          "duration": 0.2101306308593749,
          "durationTicks": 502,
          "midi": 71,
          "name": "B4",
          "ticks": 128543,
          "time": 53.806417694335934,
          "velocity": 0.4094488188976378
        },
        {
          "duration": 0.21431649999999536,
          "durationTicks": 512,
          "midi": 71,
          "name": "B4",
          "ticks": 129046,
          "time": 54.016966912109375,
          "velocity": 0.4094488188976378
        },
        {
          "duration": 0.21306073925781277,
          "durationTicks": 509,
          "midi": 71,
          "name": "B4",
          "ticks": 129559,
          "time": 54.231701999023436,
          "velocity": 0.4094488188976378
        },
        {
          "duration": 0.20552617480468172,
          "durationTicks": 491,
          "midi": 71,
          "name": "B4",
          "ticks": 130069,
          "time": 54.445181325195314,
          "velocity": 0.4094488188976378
        },
        {
          "duration": 0.21347932617187126,
          "durationTicks": 510,
          "midi": 71,
          "name": "B4",
          "ticks": 130561,
          "time": 54.65112608691406,
          "velocity": 0.4094488188976378
        },
        {
          "duration": 0.21975812988281263,
          "durationTicks": 525,
          "midi": 71,
          "name": "B4",
          "ticks": 131072,
          "time": 54.865024,
          "velocity": 0.44881889763779526
        },
        {
          "duration": 0.2080376962890611,
          "durationTicks": 497,
          "midi": 71,
          "name": "B4",
          "ticks": 131598,
          "time": 55.08520071679688,
          "velocity": 0.4094488188976378
        },
        {
          "duration": 0.21975812988281263,
          "durationTicks": 525,
          "midi": 71,
          "name": "B4",
          "ticks": 132096,
          "time": 55.293656999999996,
          "velocity": 0.41732283464566927
        },
        {
          "duration": 0.2080376962890611,
          "durationTicks": 497,
          "midi": 71,
          "name": "B4",
          "ticks": 132622,
          "time": 55.513833716796874,
          "velocity": 0.4094488188976378
        },
        {
          "duration": 0.2243625859374987,
          "durationTicks": 536,
          "midi": 71,
          "name": "B4",
          "ticks": 133120,
          "time": 55.72229,
          "velocity": 0.41732283464566927
        },
        {
          "duration": 0.20468900097656473,
          "durationTicks": 489,
          "midi": 71,
          "name": "B4",
          "ticks": 133657,
          "time": 55.94707117285156,
          "velocity": 0.4094488188976378
        },
        {
          "duration": 0.21264215234374717,
          "durationTicks": 508,
          "midi": 71,
          "name": "B4",
          "ticks": 134147,
          "time": 56.15217876074219,
          "velocity": 0.4094488188976378
        },
        {
          "duration": 0.21975812988281263,
          "durationTicks": 525,
          "midi": 71,
          "name": "B4",
          "ticks": 134656,
          "time": 56.3652395,
          "velocity": 0.44881889763779526
        },
        {
          "duration": 0.2080376962890611,
          "durationTicks": 497,
          "midi": 71,
          "name": "B4",
          "ticks": 135182,
          "time": 56.58541621679687,
          "velocity": 0.4094488188976378
        },
        {
          "duration": 0.21975812988281263,
          "durationTicks": 525,
          "midi": 71,
          "name": "B4",
          "ticks": 135680,
          "time": 56.7938725,
          "velocity": 0.41732283464566927
        },
        {
          "duration": 0.2080376962890682,
          "durationTicks": 497,
          "midi": 71,
          "name": "B4",
          "ticks": 136206,
          "time": 57.01404921679687,
          "velocity": 0.4094488188976378
        },
        {
          "duration": 0.2243625859374987,
          "durationTicks": 536,
          "midi": 71,
          "name": "B4",
          "ticks": 136704,
          "time": 57.2225055,
          "velocity": 0.41732283464566927
        },
        {
          "duration": 0.20468900097656473,
          "durationTicks": 489,
          "midi": 71,
          "name": "B4",
          "ticks": 137241,
          "time": 57.44728667285156,
          "velocity": 0.4094488188976378
        },
        {
          "duration": 0.2256183466796884,
          "durationTicks": 539,
          "midi": 71,
          "name": "B4",
          "ticks": 137731,
          "time": 57.652394260742184,
          "velocity": 0.4094488188976378
        },
        {
          "duration": 0.207200522460937,
          "durationTicks": 495,
          "midi": 65,
          "name": "F4",
          "ticks": 182272,
          "time": 76.296674,
          "velocity": 0.5433070866141733
        },
        {
          "duration": 0.1954800888671997,
          "durationTicks": 467,
          "midi": 62,
          "name": "D4",
          "ticks": 182798,
          "time": 76.51685071679687,
          "velocity": 0.5039370078740157
        },
        {
          "duration": 0.207200522460937,
          "durationTicks": 495,
          "midi": 67,
          "name": "G4",
          "ticks": 183296,
          "time": 76.725307,
          "velocity": 0.5118110236220472
        },
        {
          "duration": 0.1954800888671855,
          "durationTicks": 467,
          "midi": 62,
          "name": "D4",
          "ticks": 183822,
          "time": 76.94548371679687,
          "velocity": 0.5039370078740157
        },
        {
          "duration": 0.21180497851563018,
          "durationTicks": 506,
          "midi": 64,
          "name": "E4",
          "ticks": 184320,
          "time": 77.15393999999999,
          "velocity": 0.5118110236220472
        },
        {
          "duration": 0.1921313935546891,
          "durationTicks": 459,
          "midi": 65,
          "name": "F4",
          "ticks": 184857,
          "time": 77.37872117285156,
          "velocity": 0.5039370078740157
        },
        {
          "duration": 0.20008454492187866,
          "durationTicks": 478,
          "midi": 62,
          "name": "D4",
          "ticks": 185347,
          "time": 77.58382876074218,
          "velocity": 0.5039370078740157
        },
        {
          "duration": 0.207200522460937,
          "durationTicks": 495,
          "midi": 69,
          "name": "A4",
          "ticks": 185856,
          "time": 77.79688949999999,
          "velocity": 0.5433070866141733
        },
        {
          "duration": 0.1954800888671855,
          "durationTicks": 467,
          "midi": 67,
          "name": "G4",
          "ticks": 186382,
          "time": 78.01706621679688,
          "velocity": 0.5039370078740157
        },
        {
          "duration": 0.207200522460937,
          "durationTicks": 495,
          "midi": 65,
          "name": "F4",
          "ticks": 186880,
          "time": 78.2255225,
          "velocity": 0.5118110236220472
        },
        {
          "duration": 0.1954800888671855,
          "durationTicks": 467,
          "midi": 64,
          "name": "E4",
          "ticks": 187406,
          "time": 78.44569921679687,
          "velocity": 0.5039370078740157
        },
        {
          "duration": 0.21180497851561597,
          "durationTicks": 506,
          "midi": 62,
          "name": "D4",
          "ticks": 187904,
          "time": 78.6541555,
          "velocity": 0.5118110236220472
        },
        {
          "duration": 0.1921313935546749,
          "durationTicks": 459,
          "midi": 60,
          "name": "C4",
          "ticks": 188441,
          "time": 78.87893667285157,
          "velocity": 0.5039370078740157
        },
        {
          "duration": 0.20008454492186445,
          "durationTicks": 478,
          "midi": 62,
          "name": "D4",
          "ticks": 188931,
          "time": 79.08404426074219,
          "velocity": 0.5039370078740157
        },
        {
          "duration": 0.207200522460937,
          "durationTicks": 495,
          "midi": 65,
          "name": "F4",
          "ticks": 189440,
          "time": 79.297105,
          "velocity": 0.5433070866141733
        },
        {
          "duration": 0.1954800888671855,
          "durationTicks": 467,
          "midi": 62,
          "name": "D4",
          "ticks": 189966,
          "time": 79.51728171679687,
          "velocity": 0.5039370078740157
        },
        {
          "duration": 0.207200522460937,
          "durationTicks": 495,
          "midi": 67,
          "name": "G4",
          "ticks": 190464,
          "time": 79.72573799999999,
          "velocity": 0.5118110236220472
        },
        {
          "duration": 0.1954800888671855,
          "durationTicks": 467,
          "midi": 62,
          "name": "D4",
          "ticks": 190990,
          "time": 79.94591471679688,
          "velocity": 0.5039370078740157
        },
        {
          "duration": 0.21180497851563018,
          "durationTicks": 506,
          "midi": 64,
          "name": "E4",
          "ticks": 191488,
          "time": 80.154371,
          "velocity": 0.5118110236220472
        },
        {
          "duration": 0.1921313935546891,
          "durationTicks": 459,
          "midi": 65,
          "name": "F4",
          "ticks": 192025,
          "time": 80.37915217285156,
          "velocity": 0.5039370078740157
        },
        {
          "duration": 0.20008454492187866,
          "durationTicks": 478,
          "midi": 62,
          "name": "D4",
          "ticks": 192515,
          "time": 80.58425976074219,
          "velocity": 0.5039370078740157
        },
        {
          "duration": 0.207200522460937,
          "durationTicks": 495,
          "midi": 69,
          "name": "A4",
          "ticks": 193024,
          "time": 80.7973205,
          "velocity": 0.5433070866141733
        },
        {
          "duration": 0.1954800888671855,
          "durationTicks": 467,
          "midi": 67,
          "name": "G4",
          "ticks": 193550,
          "time": 81.01749721679687,
          "velocity": 0.5039370078740157
        },
        {
          "duration": 0.207200522460937,
          "durationTicks": 495,
          "midi": 65,
          "name": "F4",
          "ticks": 194048,
          "time": 81.2259535,
          "velocity": 0.5118110236220472
        },
        {
          "duration": 0.1954800888671855,
          "durationTicks": 467,
          "midi": 64,
          "name": "E4",
          "ticks": 194574,
          "time": 81.44613021679687,
          "velocity": 0.5039370078740157
        },
        {
          "duration": 0.21180497851563018,
          "durationTicks": 506,
          "midi": 62,
          "name": "D4",
          "ticks": 195072,
          "time": 81.6545865,
          "velocity": 0.5118110236220472
        },
        {
          "duration": 0.1921313935546891,
          "durationTicks": 459,
          "midi": 60,
          "name": "C4",
          "ticks": 195609,
          "time": 81.87936767285156,
          "velocity": 0.5039370078740157
        },
        {
          "duration": 0.20008454492187866,
          "durationTicks": 478,
          "midi": 62,
          "name": "D4",
          "ticks": 196099,
          "time": 82.08447526074218,
          "velocity": 0.5039370078740157
        },
        {
          "duration": 0.207200522460937,
          "durationTicks": 495,
          "midi": 65,
          "name": "F4",
          "ticks": 212992,
          "time": 89.155664,
          "velocity": 0.5433070866141733
        },
        {
          "duration": 0.1954800888671855,
          "durationTicks": 467,
          "midi": 62,
          "name": "D4",
          "ticks": 213518,
          "time": 89.37584071679687,
          "velocity": 0.5039370078740157
        },
        {
          "duration": 0.207200522460937,
          "durationTicks": 495,
          "midi": 67,
          "name": "G4",
          "ticks": 214016,
          "time": 89.58429699999999,
          "velocity": 0.5118110236220472
        },
        {
          "duration": 0.1954800888671855,
          "durationTicks": 467,
          "midi": 62,
          "name": "D4",
          "ticks": 214542,
          "time": 89.80447371679688,
          "velocity": 0.5039370078740157
        },
        {
          "duration": 0.21180497851563018,
          "durationTicks": 506,
          "midi": 64,
          "name": "E4",
          "ticks": 215040,
          "time": 90.01293,
          "velocity": 0.5118110236220472
        },
        {
          "duration": 0.1921313935546891,
          "durationTicks": 459,
          "midi": 65,
          "name": "F4",
          "ticks": 215577,
          "time": 90.23771117285156,
          "velocity": 0.5039370078740157
        },
        {
          "duration": 0.20008454492187866,
          "durationTicks": 478,
          "midi": 62,
          "name": "D4",
          "ticks": 216067,
          "time": 90.44281876074218,
          "velocity": 0.5039370078740157
        },
        {
          "duration": 0.207200522460937,
          "durationTicks": 495,
          "midi": 69,
          "name": "A4",
          "ticks": 216576,
          "time": 90.6558795,
          "velocity": 0.5433070866141733
        },
        {
          "duration": 0.1954800888671855,
          "durationTicks": 467,
          "midi": 67,
          "name": "G4",
          "ticks": 217102,
          "time": 90.87605621679687,
          "velocity": 0.5039370078740157
        },
        {
          "duration": 0.207200522460937,
          "durationTicks": 495,
          "midi": 65,
          "name": "F4",
          "ticks": 217600,
          "time": 91.0845125,
          "velocity": 0.5118110236220472
        },
        {
          "duration": 0.1954800888671855,
          "durationTicks": 467,
          "midi": 64,
          "name": "E4",
          "ticks": 218126,
          "time": 91.30468921679687,
          "velocity": 0.5039370078740157
        },
        {
          "duration": 0.21180497851563018,
          "durationTicks": 506,
          "midi": 62,
          "name": "D4",
          "ticks": 218624,
          "time": 91.5131455,
          "velocity": 0.5118110236220472
        },
        {
          "duration": 0.1921313935546891,
          "durationTicks": 459,
          "midi": 60,
          "name": "C4",
          "ticks": 219161,
          "time": 91.73792667285156,
          "velocity": 0.5039370078740157
        },
        {
          "duration": 0.20008454492187866,
          "durationTicks": 478,
          "midi": 62,
          "name": "D4",
          "ticks": 219651,
          "time": 91.94303426074218,
          "velocity": 0.5039370078740157
        },
        {
          "duration": 0.207200522460937,
          "durationTicks": 495,
          "midi": 65,
          "name": "F4",
          "ticks": 220160,
          "time": 92.156095,
          "velocity": 0.5433070866141733
        },
        {
          "duration": 0.1954800888671855,
          "durationTicks": 467,
          "midi": 62,
          "name": "D4",
          "ticks": 220686,
          "time": 92.37627171679688,
          "velocity": 0.5039370078740157
        },
        {
          "duration": 0.207200522460937,
          "durationTicks": 495,
          "midi": 67,
          "name": "G4",
          "ticks": 221184,
          "time": 92.584728,
          "velocity": 0.5118110236220472
        },
        {
          "duration": 0.1954800888671855,
          "durationTicks": 467,
          "midi": 62,
          "name": "D4",
          "ticks": 221710,
          "time": 92.80490471679687,
          "velocity": 0.5039370078740157
        },
        {
          "duration": 0.21180497851561597,
          "durationTicks": 506,
          "midi": 64,
          "name": "E4",
          "ticks": 222208,
          "time": 93.013361,
          "velocity": 0.5118110236220472
        },
        {
          "duration": 0.1921313935546891,
          "durationTicks": 459,
          "midi": 65,
          "name": "F4",
          "ticks": 222745,
          "time": 93.23814217285155,
          "velocity": 0.5039370078740157
        },
        {
          "duration": 0.20008454492186445,
          "durationTicks": 478,
          "midi": 62,
          "name": "D4",
          "ticks": 223235,
          "time": 93.44324976074219,
          "velocity": 0.5039370078740157
        },
        {
          "duration": 0.207200522460937,
          "durationTicks": 495,
          "midi": 69,
          "name": "A4",
          "ticks": 223744,
          "time": 93.6563105,
          "velocity": 0.5433070866141733
        },
        {
          "duration": 0.1954800888671855,
          "durationTicks": 467,
          "midi": 67,
          "name": "G4",
          "ticks": 224270,
          "time": 93.87648721679687,
          "velocity": 0.5039370078740157
        },
        {
          "duration": 0.207200522460937,
          "durationTicks": 495,
          "midi": 65,
          "name": "F4",
          "ticks": 224768,
          "time": 94.0849435,
          "velocity": 0.5118110236220472
        },
        {
          "duration": 0.1954800888671997,
          "durationTicks": 467,
          "midi": 64,
          "name": "E4",
          "ticks": 225294,
          "time": 94.30512021679687,
          "velocity": 0.5039370078740157
        },
        {
          "duration": 0.21180497851561597,
          "durationTicks": 506,
          "midi": 62,
          "name": "D4",
          "ticks": 225792,
          "time": 94.5135765,
          "velocity": 0.5118110236220472
        },
        {
          "duration": 0.1921313935546891,
          "durationTicks": 459,
          "midi": 60,
          "name": "C4",
          "ticks": 226329,
          "time": 94.73835767285156,
          "velocity": 0.5039370078740157
        },
        {
          "duration": 0.20008454492187866,
          "durationTicks": 478,
          "midi": 62,
          "name": "D4",
          "ticks": 226819,
          "time": 94.94346526074219,
          "velocity": 0.5039370078740157
        },
        {
          "duration": 0.23273432421875384,
          "durationTicks": 556,
          "midi": 67,
          "name": "G4",
          "ticks": 257536,
          "time": 107.8011995,
          "velocity": 0.5354330708661418
        },
        {
          "duration": 0.22101389062500232,
          "durationTicks": 528,
          "midi": 64,
          "name": "E4",
          "ticks": 258062,
          "time": 108.02137621679687,
          "velocity": 0.49606299212598426
        },
        {
          "duration": 0.23273432421873963,
          "durationTicks": 556,
          "midi": 69,
          "name": "A4",
          "ticks": 258560,
          "time": 108.2298325,
          "velocity": 0.5039370078740157
        },
        {
          "duration": 0.22101389062500232,
          "durationTicks": 528,
          "midi": 64,
          "name": "E4",
          "ticks": 259086,
          "time": 108.45000921679687,
          "velocity": 0.49606299212598426
        },
        {
          "duration": 0.2243625859374987,
          "durationTicks": 536,
          "midi": 71,
          "name": "B4",
          "ticks": 259584,
          "time": 108.65846549999999,
          "velocity": 0.5039370078740157
        },
        {
          "duration": 0.20468900097657183,
          "durationTicks": 489,
          "midi": 71,
          "name": "B4",
          "ticks": 260121,
          "time": 108.88324667285156,
          "velocity": 0.49606299212598426
        },
        {
          "duration": 0.21264215234376138,
          "durationTicks": 508,
          "midi": 71,
          "name": "B4",
          "ticks": 260611,
          "time": 109.08835426074218,
          "velocity": 0.49606299212598426
        },
        {
          "duration": 0.22687410742187808,
          "durationTicks": 542,
          "midi": 71,
          "name": "B4",
          "ticks": 261120,
          "time": 109.30141499999999,
          "velocity": 0.5354330708661418
        },
        {
          "duration": 0.21013063085936778,
          "durationTicks": 502,
          "midi": 71,
          "name": "B4",
          "ticks": 261663,
          "time": 109.52870769433594,
          "velocity": 0.49606299212598426
        },
        {
          "duration": 0.21431650000000957,
          "durationTicks": 512,
          "midi": 71,
          "name": "B4",
          "ticks": 262166,
          "time": 109.73925691210937,
          "velocity": 0.49606299212598426
        },
        {
          "duration": 0.21306073925781277,
          "durationTicks": 509,
          "midi": 71,
          "name": "B4",
          "ticks": 262679,
          "time": 109.95399199902343,
          "velocity": 0.49606299212598426
        },
        {
          "duration": 0.20552617480468882,
          "durationTicks": 491,
          "midi": 71,
          "name": "B4",
          "ticks": 263189,
          "time": 110.16747132519531,
          "velocity": 0.49606299212598426
        },
        {
          "duration": 0.21347932617187837,
          "durationTicks": 510,
          "midi": 71,
          "name": "B4",
          "ticks": 263681,
          "time": 110.37341608691406,
          "velocity": 0.49606299212598426
        },
        {
          "duration": 0.21975812988281973,
          "durationTicks": 525,
          "midi": 71,
          "name": "B4",
          "ticks": 264192,
          "time": 110.58731399999999,
          "velocity": 0.5354330708661418
        },
        {
          "duration": 0.208037696289054,
          "durationTicks": 497,
          "midi": 71,
          "name": "B4",
          "ticks": 264718,
          "time": 110.80749071679688,
          "velocity": 0.49606299212598426
        },
        {
          "duration": 0.21975812988280552,
          "durationTicks": 525,
          "midi": 71,
          "name": "B4",
          "ticks": 265216,
          "time": 111.015947,
          "velocity": 0.5039370078740157
        },
        {
          "duration": 0.2080376962890682,
          "durationTicks": 497,
          "midi": 71,
          "name": "B4",
          "ticks": 265742,
          "time": 111.23612371679687,
          "velocity": 0.49606299212598426
        },
        {
          "duration": 0.2243625859374987,
          "durationTicks": 536,
          "midi": 71,
          "name": "B4",
          "ticks": 266240,
          "time": 111.44458,
          "velocity": 0.5039370078740157
        },
        {
          "duration": 0.20468900097657183,
          "durationTicks": 489,
          "midi": 71,
          "name": "B4",
          "ticks": 266777,
          "time": 111.66936117285155,
          "velocity": 0.49606299212598426
        },
        {
          "duration": 0.21264215234374717,
          "durationTicks": 508,
          "midi": 71,
          "name": "B4",
          "ticks": 267267,
          "time": 111.87446876074219,
          "velocity": 0.49606299212598426
        },
        {
          "duration": 0.21975812988280552,
          "durationTicks": 525,
          "midi": 71,
          "name": "B4",
          "ticks": 267776,
          "time": 112.0875295,
          "velocity": 0.5354330708661418
        },
        {
          "duration": 0.208037696289054,
          "durationTicks": 497,
          "midi": 71,
          "name": "B4",
          "ticks": 268302,
          "time": 112.30770621679687,
          "velocity": 0.49606299212598426
        },
        {
          "duration": 0.21975812988281973,
          "durationTicks": 525,
          "midi": 71,
          "name": "B4",
          "ticks": 268800,
          "time": 112.5161625,
          "velocity": 0.5039370078740157
        },
        {
          "duration": 0.208037696289054,
          "durationTicks": 497,
          "midi": 71,
          "name": "B4",
          "ticks": 269326,
          "time": 112.73633921679688,
          "velocity": 0.49606299212598426
        },
        {
          "duration": 0.2243625859374987,
          "durationTicks": 536,
          "midi": 71,
          "name": "B4",
          "ticks": 269824,
          "time": 112.9447955,
          "velocity": 0.5039370078740157
        },
        {
          "duration": 0.20468900097655762,
          "durationTicks": 489,
          "midi": 71,
          "name": "B4",
          "ticks": 270361,
          "time": 113.16957667285156,
          "velocity": 0.49606299212598426
        },
        {
          "duration": 0.21264215234374717,
          "durationTicks": 508,
          "midi": 71,
          "name": "B4",
          "ticks": 270851,
          "time": 113.37468426074219,
          "velocity": 0.49606299212598426
        },
        {
          "duration": 0.21975812988280552,
          "durationTicks": 525,
          "midi": 71,
          "name": "B4",
          "ticks": 271360,
          "time": 113.587745,
          "velocity": 0.5354330708661418
        },
        {
          "duration": 0.2080376962890682,
          "durationTicks": 497,
          "midi": 71,
          "name": "B4",
          "ticks": 271886,
          "time": 113.80792171679687,
          "velocity": 0.49606299212598426
        },
        {
          "duration": 0.21975812988280552,
          "durationTicks": 525,
          "midi": 71,
          "name": "B4",
          "ticks": 272384,
          "time": 114.016378,
          "velocity": 0.5039370078740157
        },
        {
          "duration": 0.208037696289054,
          "durationTicks": 497,
          "midi": 71,
          "name": "B4",
          "ticks": 272910,
          "time": 114.23655471679687,
          "velocity": 0.49606299212598426
        },
        {
          "duration": 0.2243625859374987,
          "durationTicks": 536,
          "midi": 71,
          "name": "B4",
          "ticks": 273408,
          "time": 114.445011,
          "velocity": 0.5039370078740157
        },
        {
          "duration": 0.20468900097655762,
          "durationTicks": 489,
          "midi": 71,
          "name": "B4",
          "ticks": 273945,
          "time": 114.66979217285156,
          "velocity": 0.49606299212598426
        },
        {
          "duration": 0.21264215234374717,
          "durationTicks": 508,
          "midi": 71,
          "name": "B4",
          "ticks": 274435,
          "time": 114.87489976074218,
          "velocity": 0.49606299212598426
        },
        {
          "duration": 0.22687410742187808,
          "durationTicks": 542,
          "midi": 71,
          "name": "B4",
          "ticks": 274944,
          "time": 115.0879605,
          "velocity": 0.5354330708661418
        },
        {
          "duration": 0.21013063085936778,
          "durationTicks": 502,
          "midi": 71,
          "name": "B4",
          "ticks": 275487,
          "time": 115.31525319433594,
          "velocity": 0.49606299212598426
        },
        {
          "duration": 0.21431649999999536,
          "durationTicks": 512,
          "midi": 71,
          "name": "B4",
          "ticks": 275990,
          "time": 115.52580241210937,
          "velocity": 0.49606299212598426
        },
        {
          "duration": 0.21306073925781277,
          "durationTicks": 509,
          "midi": 71,
          "name": "B4",
          "ticks": 276503,
          "time": 115.74053749902343,
          "velocity": 0.49606299212598426
        },
        {
          "duration": 0.20552617480468882,
          "durationTicks": 491,
          "midi": 71,
          "name": "B4",
          "ticks": 277013,
          "time": 115.95401682519531,
          "velocity": 0.49606299212598426
        },
        {
          "duration": 0.21347932617186416,
          "durationTicks": 510,
          "midi": 71,
          "name": "B4",
          "ticks": 277505,
          "time": 116.15996158691406,
          "velocity": 0.49606299212598426
        },
        {
          "duration": 0.21975812988281973,
          "durationTicks": 525,
          "midi": 71,
          "name": "B4",
          "ticks": 278016,
          "time": 116.3738595,
          "velocity": 0.5354330708661418
        },
        {
          "duration": 0.2080376962890682,
          "durationTicks": 497,
          "midi": 71,
          "name": "B4",
          "ticks": 278542,
          "time": 116.59403621679687,
          "velocity": 0.49606299212598426
        },
        {
          "duration": 0.21975812988280552,
          "durationTicks": 525,
          "midi": 71,
          "name": "B4",
          "ticks": 279040,
          "time": 116.8024925,
          "velocity": 0.5039370078740157
        },
        {
          "duration": 0.2080376962890682,
          "durationTicks": 497,
          "midi": 71,
          "name": "B4",
          "ticks": 279566,
          "time": 117.02266921679687,
          "velocity": 0.49606299212598426
        },
        {
          "duration": 0.2243625859375129,
          "durationTicks": 536,
          "midi": 71,
          "name": "B4",
          "ticks": 280064,
          "time": 117.23112549999999,
          "velocity": 0.5039370078740157
        },
        {
          "duration": 0.20468900097657183,
          "durationTicks": 489,
          "midi": 71,
          "name": "B4",
          "ticks": 280601,
          "time": 117.45590667285155,
          "velocity": 0.49606299212598426
        },
        {
          "duration": 0.21264215234376138,
          "durationTicks": 508,
          "midi": 71,
          "name": "B4",
          "ticks": 281091,
          "time": 117.66101426074218,
          "velocity": 0.49606299212598426
        },
        {
          "duration": 0.21975812988281973,
          "durationTicks": 525,
          "midi": 71,
          "name": "B4",
          "ticks": 281600,
          "time": 117.87407499999999,
          "velocity": 0.5354330708661418
        },
        {
          "duration": 0.208037696289054,
          "durationTicks": 497,
          "midi": 71,
          "name": "B4",
          "ticks": 282126,
          "time": 118.09425171679688,
          "velocity": 0.49606299212598426
        },
        {
          "duration": 0.21975812988281973,
          "durationTicks": 525,
          "midi": 71,
          "name": "B4",
          "ticks": 282624,
          "time": 118.302708,
          "velocity": 0.5039370078740157
        },
        {
          "duration": 0.2080376962890682,
          "durationTicks": 497,
          "midi": 71,
          "name": "B4",
          "ticks": 283150,
          "time": 118.52288471679687,
          "velocity": 0.49606299212598426
        },
        {
          "duration": 0.2243625859374987,
          "durationTicks": 536,
          "midi": 71,
          "name": "B4",
          "ticks": 283648,
          "time": 118.731341,
          "velocity": 0.5039370078740157
        },
        {
          "duration": 0.20468900097655762,
          "durationTicks": 489,
          "midi": 71,
          "name": "B4",
          "ticks": 284185,
          "time": 118.95612217285156,
          "velocity": 0.49606299212598426
        },
        {
          "duration": 0.21264215234374717,
          "durationTicks": 508,
          "midi": 71,
          "name": "B4",
          "ticks": 284675,
          "time": 119.16122976074219,
          "velocity": 0.49606299212598426
        },
        {
          "duration": 0.21975812988280552,
          "durationTicks": 525,
          "midi": 71,
          "name": "B4",
          "ticks": 285184,
          "time": 119.3742905,
          "velocity": 0.5354330708661418
        },
        {
          "duration": 0.2080376962890682,
          "durationTicks": 497,
          "midi": 71,
          "name": "B4",
          "ticks": 285710,
          "time": 119.59446721679687,
          "velocity": 0.49606299212598426
        },
        {
          "duration": 0.21975812988281973,
          "durationTicks": 525,
          "midi": 71,
          "name": "B4",
          "ticks": 286208,
          "time": 119.80292349999999,
          "velocity": 0.5039370078740157
        },
        {
          "duration": 0.208037696289054,
          "durationTicks": 497,
          "midi": 71,
          "name": "B4",
          "ticks": 286734,
          "time": 120.02310021679688,
          "velocity": 0.49606299212598426
        },
        {
          "duration": 0.2243625859374987,
          "durationTicks": 536,
          "midi": 71,
          "name": "B4",
          "ticks": 287232,
          "time": 120.2315565,
          "velocity": 0.5039370078740157
        },
        {
          "duration": 0.20468900097655762,
          "durationTicks": 489,
          "midi": 71,
          "name": "B4",
          "ticks": 287769,
          "time": 120.45633767285156,
          "velocity": 0.49606299212598426
        },
        {
          "duration": 0.21264215234374717,
          "durationTicks": 508,
          "midi": 71,
          "name": "B4",
          "ticks": 288259,
          "time": 120.66144526074218,
          "velocity": 0.49606299212598426
        },
        {
          "duration": 0.22687410742187808,
          "durationTicks": 542,
          "midi": 71,
          "name": "B4",
          "ticks": 288768,
          "time": 120.874506,
          "velocity": 0.5354330708661418
        },
        {
          "duration": 0.21013063085936778,
          "durationTicks": 502,
          "midi": 71,
          "name": "B4",
          "ticks": 289311,
          "time": 121.10179869433594,
          "velocity": 0.49606299212598426
        },
        {
          "duration": 0.21431649999999536,
          "durationTicks": 512,
          "midi": 71,
          "name": "B4",
          "ticks": 289814,
          "time": 121.31234791210937,
          "velocity": 0.49606299212598426
        },
        {
          "duration": 0.21306073925781277,
          "durationTicks": 509,
          "midi": 71,
          "name": "B4",
          "ticks": 290327,
          "time": 121.52708299902343,
          "velocity": 0.49606299212598426
        },
        {
          "duration": 0.20552617480468882,
          "durationTicks": 491,
          "midi": 71,
          "name": "B4",
          "ticks": 290837,
          "time": 121.74056232519531,
          "velocity": 0.49606299212598426
        },
        {
          "duration": 0.21347932617187837,
          "durationTicks": 510,
          "midi": 71,
          "name": "B4",
          "ticks": 291329,
          "time": 121.94650708691405,
          "velocity": 0.49606299212598426
        },
        {
          "duration": 0.21975812988280552,
          "durationTicks": 525,
          "midi": 71,
          "name": "B4",
          "ticks": 291840,
          "time": 122.160405,
          "velocity": 0.5354330708661418
        },
        {
          "duration": 0.2080376962890682,
          "durationTicks": 497,
          "midi": 71,
          "name": "B4",
          "ticks": 292366,
          "time": 122.38058171679687,
          "velocity": 0.49606299212598426
        },
        {
          "duration": 0.21975812988280552,
          "durationTicks": 525,
          "midi": 71,
          "name": "B4",
          "ticks": 292864,
          "time": 122.589038,
          "velocity": 0.5039370078740157
        },
        {
          "duration": 0.208037696289054,
          "durationTicks": 497,
          "midi": 71,
          "name": "B4",
          "ticks": 293390,
          "time": 122.80921471679687,
          "velocity": 0.49606299212598426
        },
        {
          "duration": 0.2243625859374987,
          "durationTicks": 536,
          "midi": 71,
          "name": "B4",
          "ticks": 293888,
          "time": 123.01767099999999,
          "velocity": 0.5039370078740157
        },
        {
          "duration": 0.20468900097655762,
          "durationTicks": 489,
          "midi": 71,
          "name": "B4",
          "ticks": 294425,
          "time": 123.24245217285156,
          "velocity": 0.49606299212598426
        },
        {
          "duration": 0.21264215234374717,
          "durationTicks": 508,
          "midi": 71,
          "name": "B4",
          "ticks": 294915,
          "time": 123.44755976074218,
          "velocity": 0.49606299212598426
        },
        {
          "duration": 0.21975812988281973,
          "durationTicks": 525,
          "midi": 71,
          "name": "B4",
          "ticks": 295424,
          "time": 123.6606205,
          "velocity": 0.5354330708661418
        },
        {
          "duration": 0.2080376962890682,
          "durationTicks": 497,
          "midi": 71,
          "name": "B4",
          "ticks": 295950,
          "time": 123.88079721679686,
          "velocity": 0.49606299212598426
        },
        {
          "duration": 0.21975812988280552,
          "durationTicks": 525,
          "midi": 71,
          "name": "B4",
          "ticks": 296448,
          "time": 124.0892535,
          "velocity": 0.5039370078740157
        },
        {
          "duration": 0.2080376962890682,
          "durationTicks": 497,
          "midi": 71,
          "name": "B4",
          "ticks": 296974,
          "time": 124.30943021679687,
          "velocity": 0.49606299212598426
        },
        {
          "duration": 0.2243625859374987,
          "durationTicks": 536,
          "midi": 71,
          "name": "B4",
          "ticks": 297472,
          "time": 124.5178865,
          "velocity": 0.5039370078740157
        },
        {
          "duration": 0.20468900097657183,
          "durationTicks": 489,
          "midi": 71,
          "name": "B4",
          "ticks": 298009,
          "time": 124.74266767285155,
          "velocity": 0.49606299212598426
        },
        {
          "duration": 0.22561834667968128,
          "durationTicks": 539,
          "midi": 71,
          "name": "B4",
          "ticks": 298499,
          "time": 124.94777526074219,
          "velocity": 0.49606299212598426
        },
        {
          "duration": 0.207200522460937,
          "durationTicks": 495,
          "midi": 65,
          "name": "F4",
          "ticks": 315392,
          "time": 132.01896399999998,
          "velocity": 0.6299212598425197
        },
        {
          "duration": 0.1954800888671855,
          "durationTicks": 467,
          "midi": 62,
          "name": "D4",
          "ticks": 315918,
          "time": 132.23914071679687,
          "velocity": 0.5905511811023622
        },
        {
          "duration": 0.207200522460937,
          "durationTicks": 495,
          "midi": 67,
          "name": "G4",
          "ticks": 316416,
          "time": 132.447597,
          "velocity": 0.5984251968503937
        },
        {
          "duration": 0.1954800888671855,
          "durationTicks": 467,
          "midi": 62,
          "name": "D4",
          "ticks": 316942,
          "time": 132.66777371679686,
          "velocity": 0.5905511811023622
        },
        {
          "duration": 0.21180497851563018,
          "durationTicks": 506,
          "midi": 64,
          "name": "E4",
          "ticks": 317440,
          "time": 132.87623,
          "velocity": 0.5984251968503937
        },
        {
          "duration": 0.1921313935546607,
          "durationTicks": 459,
          "midi": 65,
          "name": "F4",
          "ticks": 317977,
          "time": 133.10101117285157,
          "velocity": 0.5905511811023622
        },
        {
          "duration": 0.20008454492187866,
          "durationTicks": 478,
          "midi": 62,
          "name": "D4",
          "ticks": 318467,
          "time": 133.30611876074218,
          "velocity": 0.5905511811023622
        },
        {
          "duration": 0.207200522460937,
          "durationTicks": 495,
          "midi": 69,
          "name": "A4",
          "ticks": 318976,
          "time": 133.5191795,
          "velocity": 0.6299212598425197
        },
        {
          "duration": 0.1954800888671855,
          "durationTicks": 467,
          "midi": 67,
          "name": "G4",
          "ticks": 319502,
          "time": 133.73935621679686,
          "velocity": 0.5905511811023622
        },
        {
          "duration": 0.207200522460937,
          "durationTicks": 495,
          "midi": 65,
          "name": "F4",
          "ticks": 320000,
          "time": 133.9478125,
          "velocity": 0.5984251968503937
        },
        {
          "duration": 0.1954800888671855,
          "durationTicks": 467,
          "midi": 64,
          "name": "E4",
          "ticks": 320526,
          "time": 134.16798921679688,
          "velocity": 0.5905511811023622
        },
        {
          "duration": 0.21180497851563018,
          "durationTicks": 506,
          "midi": 62,
          "name": "D4",
          "ticks": 321024,
          "time": 134.3764455,
          "velocity": 0.5984251968503937
        },
        {
          "duration": 0.1921313935546891,
          "durationTicks": 459,
          "midi": 60,
          "name": "C4",
          "ticks": 321561,
          "time": 134.60122667285157,
          "velocity": 0.5905511811023622
        },
        {
          "duration": 0.20008454492187866,
          "durationTicks": 478,
          "midi": 62,
          "name": "D4",
          "ticks": 322051,
          "time": 134.80633426074218,
          "velocity": 0.5905511811023622
        },
        {
          "duration": 0.207200522460937,
          "durationTicks": 495,
          "midi": 65,
          "name": "F4",
          "ticks": 322560,
          "time": 135.019395,
          "velocity": 0.6299212598425197
        },
        {
          "duration": 0.1954800888671855,
          "durationTicks": 467,
          "midi": 62,
          "name": "D4",
          "ticks": 323086,
          "time": 135.23957171679686,
          "velocity": 0.5905511811023622
        },
        {
          "duration": 0.207200522460937,
          "durationTicks": 495,
          "midi": 67,
          "name": "G4",
          "ticks": 323584,
          "time": 135.448028,
          "velocity": 0.5984251968503937
        },
        {
          "duration": 0.1954800888671855,
          "durationTicks": 467,
          "midi": 62,
          "name": "D4",
          "ticks": 324110,
          "time": 135.66820471679688,
          "velocity": 0.5905511811023622
        },
        {
          "duration": 0.21180497851563018,
          "durationTicks": 506,
          "midi": 64,
          "name": "E4",
          "ticks": 324608,
          "time": 135.87666099999998,
          "velocity": 0.5984251968503937
        },
        {
          "duration": 0.1921313935546891,
          "durationTicks": 459,
          "midi": 65,
          "name": "F4",
          "ticks": 325145,
          "time": 136.10144217285156,
          "velocity": 0.5905511811023622
        },
        {
          "duration": 0.20008454492187866,
          "durationTicks": 478,
          "midi": 62,
          "name": "D4",
          "ticks": 325635,
          "time": 136.30654976074217,
          "velocity": 0.5905511811023622
        },
        {
          "duration": 0.207200522460937,
          "durationTicks": 495,
          "midi": 69,
          "name": "A4",
          "ticks": 326144,
          "time": 136.5196105,
          "velocity": 0.6299212598425197
        },
        {
          "duration": 0.1954800888671855,
          "durationTicks": 467,
          "midi": 67,
          "name": "G4",
          "ticks": 326670,
          "time": 136.73978721679688,
          "velocity": 0.5905511811023622
        },
        {
          "duration": 0.207200522460937,
          "durationTicks": 495,
          "midi": 65,
          "name": "F4",
          "ticks": 327168,
          "time": 136.9482435,
          "velocity": 0.5984251968503937
        },
        {
          "duration": 0.1954800888671855,
          "durationTicks": 467,
          "midi": 64,
          "name": "E4",
          "ticks": 327694,
          "time": 137.16842021679687,
          "velocity": 0.5905511811023622
        },
        {
          "duration": 0.21180497851560176,
          "durationTicks": 506,
          "midi": 62,
          "name": "D4",
          "ticks": 328192,
          "time": 137.3768765,
          "velocity": 0.5984251968503937
        },
        {
          "duration": 0.1921313935546891,
          "durationTicks": 459,
          "midi": 60,
          "name": "C4",
          "ticks": 328729,
          "time": 137.60165767285156,
          "velocity": 0.5905511811023622
        },
        {
          "duration": 0.20008454492185024,
          "durationTicks": 478,
          "midi": 62,
          "name": "D4",
          "ticks": 329219,
          "time": 137.8067652607422,
          "velocity": 0.5905511811023622
        },
        {
          "duration": 0.207200522460937,
          "durationTicks": 495,
          "midi": 65,
          "name": "F4",
          "ticks": 346112,
          "time": 144.877954,
          "velocity": 0.6299212598425197
        },
        {
          "duration": 0.1954800888671855,
          "durationTicks": 467,
          "midi": 62,
          "name": "D4",
          "ticks": 346638,
          "time": 145.09813071679687,
          "velocity": 0.5905511811023622
        },
        {
          "duration": 0.207200522460937,
          "durationTicks": 495,
          "midi": 67,
          "name": "G4",
          "ticks": 347136,
          "time": 145.306587,
          "velocity": 0.5984251968503937
        },
        {
          "duration": 0.1954800888671855,
          "durationTicks": 467,
          "midi": 62,
          "name": "D4",
          "ticks": 347662,
          "time": 145.52676371679686,
          "velocity": 0.5905511811023622
        },
        {
          "duration": 0.21180497851563018,
          "durationTicks": 506,
          "midi": 64,
          "name": "E4",
          "ticks": 348160,
          "time": 145.73522,
          "velocity": 0.5984251968503937
        },
        {
          "duration": 0.1921313935546891,
          "durationTicks": 459,
          "midi": 65,
          "name": "F4",
          "ticks": 348697,
          "time": 145.96000117285155,
          "velocity": 0.5905511811023622
        },
        {
          "duration": 0.20008454492187866,
          "durationTicks": 478,
          "midi": 62,
          "name": "D4",
          "ticks": 349187,
          "time": 146.16510876074219,
          "velocity": 0.5905511811023622
        },
        {
          "duration": 0.207200522460937,
          "durationTicks": 495,
          "midi": 69,
          "name": "A4",
          "ticks": 349696,
          "time": 146.37816949999998,
          "velocity": 0.6299212598425197
        },
        {
          "duration": 0.1954800888671855,
          "durationTicks": 467,
          "midi": 67,
          "name": "G4",
          "ticks": 350222,
          "time": 146.59834621679687,
          "velocity": 0.5905511811023622
        },
        {
          "duration": 0.207200522460937,
          "durationTicks": 495,
          "midi": 65,
          "name": "F4",
          "ticks": 350720,
          "time": 146.8068025,
          "velocity": 0.5984251968503937
        },
        {
          "duration": 0.1954800888671855,
          "durationTicks": 467,
          "midi": 64,
          "name": "E4",
          "ticks": 351246,
          "time": 147.02697921679686,
          "velocity": 0.5905511811023622
        },
        {
          "duration": 0.21180497851563018,
          "durationTicks": 506,
          "midi": 62,
          "name": "D4",
          "ticks": 351744,
          "time": 147.2354355,
          "velocity": 0.5984251968503937
        },
        {
          "duration": 0.1921313935546891,
          "durationTicks": 459,
          "midi": 60,
          "name": "C4",
          "ticks": 352281,
          "time": 147.46021667285154,
          "velocity": 0.5905511811023622
        },
        {
          "duration": 0.20008454492187866,
          "durationTicks": 478,
          "midi": 62,
          "name": "D4",
          "ticks": 352771,
          "time": 147.66532426074218,
          "velocity": 0.5905511811023622
        },
        {
          "duration": 0.207200522460937,
          "durationTicks": 495,
          "midi": 65,
          "name": "F4",
          "ticks": 353280,
          "time": 147.878385,
          "velocity": 0.6299212598425197
        },
        {
          "duration": 0.1954800888671855,
          "durationTicks": 467,
          "midi": 62,
          "name": "D4",
          "ticks": 353806,
          "time": 148.09856171679687,
          "velocity": 0.5905511811023622
        },
        {
          "duration": 0.207200522460937,
          "durationTicks": 495,
          "midi": 67,
          "name": "G4",
          "ticks": 354304,
          "time": 148.307018,
          "velocity": 0.5984251968503937
        },
        {
          "duration": 0.1954800888672139,
          "durationTicks": 467,
          "midi": 62,
          "name": "D4",
          "ticks": 354830,
          "time": 148.52719471679686,
          "velocity": 0.5905511811023622
        },
        {
          "duration": 0.21180497851563018,
          "durationTicks": 506,
          "midi": 64,
          "name": "E4",
          "ticks": 355328,
          "time": 148.735651,
          "velocity": 0.5984251968503937
        },
        {
          "duration": 0.1921313935546891,
          "durationTicks": 459,
          "midi": 65,
          "name": "F4",
          "ticks": 355865,
          "time": 148.96043217285157,
          "velocity": 0.5905511811023622
        },
        {
          "duration": 0.20008454492187866,
          "durationTicks": 478,
          "midi": 62,
          "name": "D4",
          "ticks": 356355,
          "time": 149.16553976074218,
          "velocity": 0.5905511811023622
        },
        {
          "duration": 0.207200522460937,
          "durationTicks": 495,
          "midi": 69,
          "name": "A4",
          "ticks": 356864,
          "time": 149.3786005,
          "velocity": 0.6299212598425197
        },
        {
          "duration": 0.1954800888671855,
          "durationTicks": 467,
          "midi": 67,
          "name": "G4",
          "ticks": 357390,
          "time": 149.59877721679686,
          "velocity": 0.5905511811023622
        },
        {
          "duration": 0.207200522460937,
          "durationTicks": 495,
          "midi": 65,
          "name": "F4",
          "ticks": 357888,
          "time": 149.8072335,
          "velocity": 0.5984251968503937
        },
        {
          "duration": 0.1954800888671855,
          "durationTicks": 467,
          "midi": 64,
          "name": "E4",
          "ticks": 358414,
          "time": 150.02741021679688,
          "velocity": 0.5905511811023622
        },
        {
          "duration": 0.21180497851563018,
          "durationTicks": 506,
          "midi": 62,
          "name": "D4",
          "ticks": 358912,
          "time": 150.2358665,
          "velocity": 0.5984251968503937
        },
        {
          "duration": 0.1921313935546891,
          "durationTicks": 459,
          "midi": 60,
          "name": "C4",
          "ticks": 359449,
          "time": 150.46064767285156,
          "velocity": 0.5905511811023622
        },
        {
          "duration": 0.20008454492187866,
          "durationTicks": 478,
          "midi": 62,
          "name": "D4",
          "ticks": 359939,
          "time": 150.66575526074217,
          "velocity": 0.5905511811023622
        },
        {
          "duration": 0.207200522460937,
          "durationTicks": 495,
          "midi": 67,
          "name": "G4",
          "ticks": 376832,
          "time": 157.736944,
          "velocity": 0.6299212598425197
        },
        {
          "duration": 0.1954800888671855,
          "durationTicks": 467,
          "midi": 64,
          "name": "E4",
          "ticks": 377358,
          "time": 157.95712071679688,
          "velocity": 0.5905511811023622
        },
        {
          "duration": 0.207200522460937,
          "durationTicks": 495,
          "midi": 69,
          "name": "A4",
          "ticks": 377856,
          "time": 158.16557699999998,
          "velocity": 0.5984251968503937
        },
        {
          "duration": 0.1954800888671855,
          "durationTicks": 467,
          "midi": 64,
          "name": "E4",
          "ticks": 378382,
          "time": 158.38575371679687,
          "velocity": 0.5905511811023622
        },
        {
          "duration": 0.21180497851563018,
          "durationTicks": 506,
          "midi": 66,
          "name": "F#4",
          "ticks": 378880,
          "time": 158.59421,
          "velocity": 0.5984251968503937
        },
        {
          "duration": 0.1921313935546891,
          "durationTicks": 459,
          "midi": 67,
          "name": "G4",
          "ticks": 379417,
          "time": 158.81899117285155,
          "velocity": 0.5905511811023622
        },
        {
          "duration": 0.20008454492187866,
          "durationTicks": 478,
          "midi": 64,
          "name": "E4",
          "ticks": 379907,
          "time": 159.0240987607422,
          "velocity": 0.5905511811023622
        },
        {
          "duration": 0.21431649999999536,
          "durationTicks": 512,
          "midi": 71,
          "name": "B4",
          "ticks": 380416,
          "time": 159.2371595,
          "velocity": 0.6299212598425197
        },
        {
          "duration": 0.19757302343748506,
          "durationTicks": 472,
          "midi": 69,
          "name": "A4",
          "ticks": 380959,
          "time": 159.46445219433593,
          "velocity": 0.5905511811023622
        },
        {
          "duration": 0.20175889257814106,
          "durationTicks": 482,
          "midi": 67,
          "name": "G4",
          "ticks": 381462,
          "time": 159.67500141210937,
          "velocity": 0.5905511811023622
        },
        {
          "duration": 0.20050313183594426,
          "durationTicks": 479,
          "midi": 66,
          "name": "F#4",
          "ticks": 381975,
          "time": 159.88973649902343,
          "velocity": 0.5905511811023622
        },
        {
          "duration": 0.1929685673827919,
          "durationTicks": 461,
          "midi": 64,
          "name": "E4",
          "ticks": 382485,
          "time": 160.10321582519532,
          "velocity": 0.5905511811023622
        },
        {
          "duration": 0.20092171875000986,
          "durationTicks": 480,
          "midi": 62,
          "name": "D4",
          "ticks": 382977,
          "time": 160.30916058691406,
          "velocity": 0.5905511811023622
        },
        {
          "duration": 0.207200522460937,
          "durationTicks": 495,
          "midi": 67,
          "name": "G4",
          "ticks": 383488,
          "time": 160.5230585,
          "velocity": 0.6299212598425197
        },
        {
          "duration": 0.1954800888671855,
          "durationTicks": 467,
          "midi": 64,
          "name": "E4",
          "ticks": 384014,
          "time": 160.74323521679688,
          "velocity": 0.5905511811023622
        },
        {
          "duration": 0.207200522460937,
          "durationTicks": 495,
          "midi": 69,
          "name": "A4",
          "ticks": 384512,
          "time": 160.95169149999998,
          "velocity": 0.5984251968503937
        },
        {
          "duration": 0.1954800888671855,
          "durationTicks": 467,
          "midi": 64,
          "name": "E4",
          "ticks": 385038,
          "time": 161.17186821679687,
          "velocity": 0.5905511811023622
        },
        {
          "duration": 0.21180497851563018,
          "durationTicks": 506,
          "midi": 66,
          "name": "F#4",
          "ticks": 385536,
          "time": 161.3803245,
          "velocity": 0.5984251968503937
        },
        {
          "duration": 0.1921313935546891,
          "durationTicks": 459,
          "midi": 67,
          "name": "G4",
          "ticks": 386073,
          "time": 161.60510567285155,
          "velocity": 0.5905511811023622
        },
        {
          "duration": 0.20008454492187866,
          "durationTicks": 478,
          "midi": 64,
          "name": "E4",
          "ticks": 386563,
          "time": 161.8102132607422,
          "velocity": 0.5905511811023622
        },
        {
          "duration": 0.207200522460937,
          "durationTicks": 495,
          "midi": 71,
          "name": "B4",
          "ticks": 387072,
          "time": 162.023274,
          "velocity": 0.6299212598425197
        },
        {
          "duration": 0.1954800888671855,
          "durationTicks": 467,
          "midi": 69,
          "name": "A4",
          "ticks": 387598,
          "time": 162.24345071679687,
          "velocity": 0.5905511811023622
        },
        {
          "duration": 0.207200522460937,
          "durationTicks": 495,
          "midi": 67,
          "name": "G4",
          "ticks": 388096,
          "time": 162.451907,
          "velocity": 0.5984251968503937
        },
        {
          "duration": 0.1954800888671855,
          "durationTicks": 467,
          "midi": 66,
          "name": "F#4",
          "ticks": 388622,
          "time": 162.67208371679686,
          "velocity": 0.5905511811023622
        },
        {
          "duration": 0.21180497851563018,
          "durationTicks": 506,
          "midi": 64,
          "name": "E4",
          "ticks": 389120,
          "time": 162.88054,
          "velocity": 0.5984251968503937
        },
        {
          "duration": 0.1921313935546891,
          "durationTicks": 459,
          "midi": 62,
          "name": "D4",
          "ticks": 389657,
          "time": 163.10532117285155,
          "velocity": 0.5905511811023622
        },
        {
          "duration": 0.20008454492187866,
          "durationTicks": 478,
          "midi": 64,
          "name": "E4",
          "ticks": 390147,
          "time": 163.31042876074218,
          "velocity": 0.5905511811023622
        },
        {
          "duration": 0.207200522460937,
          "durationTicks": 495,
          "midi": 67,
          "name": "G4",
          "ticks": 390656,
          "time": 163.52348949999998,
          "velocity": 0.6299212598425197
        },
        {
          "duration": 0.1954800888671855,
          "durationTicks": 467,
          "midi": 64,
          "name": "E4",
          "ticks": 391182,
          "time": 163.74366621679687,
          "velocity": 0.5905511811023622
        },
        {
          "duration": 0.207200522460937,
          "durationTicks": 495,
          "midi": 69,
          "name": "A4",
          "ticks": 391680,
          "time": 163.9521225,
          "velocity": 0.5984251968503937
        },
        {
          "duration": 0.1954800888671855,
          "durationTicks": 467,
          "midi": 64,
          "name": "E4",
          "ticks": 392206,
          "time": 164.17229921679686,
          "velocity": 0.5905511811023622
        },
        {
          "duration": 0.21180497851563018,
          "durationTicks": 506,
          "midi": 66,
          "name": "F#4",
          "ticks": 392704,
          "time": 164.3807555,
          "velocity": 0.5984251968503937
        },
        {
          "duration": 0.1921313935546607,
          "durationTicks": 459,
          "midi": 67,
          "name": "G4",
          "ticks": 393241,
          "time": 164.60553667285157,
          "velocity": 0.5905511811023622
        },
        {
          "duration": 0.20008454492187866,
          "durationTicks": 478,
          "midi": 64,
          "name": "E4",
          "ticks": 393731,
          "time": 164.81064426074218,
          "velocity": 0.5905511811023622
        },
        {
          "duration": 0.21431649999999536,
          "durationTicks": 512,
          "midi": 71,
          "name": "B4",
          "ticks": 394240,
          "time": 165.023705,
          "velocity": 0.6299212598425197
        },
        {
          "duration": 0.19757302343751348,
          "durationTicks": 472,
          "midi": 69,
          "name": "A4",
          "ticks": 394783,
          "time": 165.25099769433592,
          "velocity": 0.5905511811023622
        },
        {
          "duration": 0.20175889257811264,
          "durationTicks": 482,
          "midi": 67,
          "name": "G4",
          "ticks": 395286,
          "time": 165.46154691210938,
          "velocity": 0.5905511811023622
        },
        {
          "duration": 0.20050313183591584,
          "durationTicks": 479,
          "midi": 66,
          "name": "F#4",
          "ticks": 395799,
          "time": 165.67628199902344,
          "velocity": 0.5905511811023622
        },
        {
          "duration": 0.1929685673828203,
          "durationTicks": 461,
          "midi": 64,
          "name": "E4",
          "ticks": 396309,
          "time": 165.8897613251953,
          "velocity": 0.5905511811023622
        },
        {
          "duration": 0.20092171875000986,
          "durationTicks": 480,
          "midi": 62,
          "name": "D4",
          "ticks": 396801,
          "time": 166.09570608691405,
          "velocity": 0.5905511811023622
        },
        {
          "duration": 0.207200522460937,
          "durationTicks": 495,
          "midi": 67,
          "name": "G4",
          "ticks": 397312,
          "time": 166.309604,
          "velocity": 0.6299212598425197
        },
        {
          "duration": 0.1954800888671855,
          "durationTicks": 467,
          "midi": 64,
          "name": "E4",
          "ticks": 397838,
          "time": 166.52978071679686,
          "velocity": 0.5905511811023622
        },
        {
          "duration": 0.207200522460937,
          "durationTicks": 495,
          "midi": 69,
          "name": "A4",
          "ticks": 398336,
          "time": 166.738237,
          "velocity": 0.5984251968503937
        },
        {
          "duration": 0.1954800888671855,
          "durationTicks": 467,
          "midi": 64,
          "name": "E4",
          "ticks": 398862,
          "time": 166.95841371679688,
          "velocity": 0.5905511811023622
        },
        {
          "duration": 0.21180497851563018,
          "durationTicks": 506,
          "midi": 66,
          "name": "F#4",
          "ticks": 399360,
          "time": 167.16687,
          "velocity": 0.5984251968503937
        },
        {
          "duration": 0.1921313935546891,
          "durationTicks": 459,
          "midi": 67,
          "name": "G4",
          "ticks": 399897,
          "time": 167.39165117285157,
          "velocity": 0.5905511811023622
        },
        {
          "duration": 0.20008454492187866,
          "durationTicks": 478,
          "midi": 64,
          "name": "E4",
          "ticks": 400387,
          "time": 167.59675876074218,
          "velocity": 0.5905511811023622
        },
        {
          "duration": 0.207200522460937,
          "durationTicks": 495,
          "midi": 71,
          "name": "B4",
          "ticks": 400896,
          "time": 167.8098195,
          "velocity": 0.6299212598425197
        },
        {
          "duration": 0.1954800888671855,
          "durationTicks": 467,
          "midi": 69,
          "name": "A4",
          "ticks": 401422,
          "time": 168.02999621679686,
          "velocity": 0.5905511811023622
        },
        {
          "duration": 0.207200522460937,
          "durationTicks": 495,
          "midi": 67,
          "name": "G4",
          "ticks": 401920,
          "time": 168.2384525,
          "velocity": 0.5984251968503937
        },
        {
          "duration": 0.1954800888671855,
          "durationTicks": 467,
          "midi": 66,
          "name": "F#4",
          "ticks": 402446,
          "time": 168.45862921679688,
          "velocity": 0.5905511811023622
        },
        {
          "duration": 0.21180497851563018,
          "durationTicks": 506,
          "midi": 64,
          "name": "E4",
          "ticks": 402944,
          "time": 168.66708549999998,
          "velocity": 0.5984251968503937
        },
        {
          "duration": 0.1921313935546891,
          "durationTicks": 459,
          "midi": 62,
          "name": "D4",
          "ticks": 403481,
          "time": 168.89186667285156,
          "velocity": 0.5905511811023622
        },
        {
          "duration": 1.7128576523437573,
          "durationTicks": 4092,
          "midi": 64,
          "name": "E4",
          "ticks": 403971,
          "time": 169.09697426074217,
          "velocity": 0.5905511811023622
        }
      ],
      "endOfTrackTicks": 408063
    },
    {
      "channel": 1,
      "controlChanges": {
        "6": [
          {
            "number": 6,
            "ticks": 4,
            "time": 0.00167434765625,
            "value": 0.09448818897637795
          }
        ],
        "7": [
          {
            "number": 7,
            "ticks": 0,
            "time": 0,
            "value": 0.7874015748031497
          },
          {
            "number": 7,
            "ticks": 0,
            "time": 0,
            "value": 0.7401574803149606
          }
        ],
        "10": [
          {
            "number": 10,
            "ticks": 0,
            "time": 0,
            "value": 0.5039370078740157
          }
        ],
        "38": [
          {
            "number": 38,
            "ticks": 5,
            "time": 0.0020929345703124998,
            "value": 0
          }
        ],
        "100": [
          {
            "number": 100,
            "ticks": 3,
            "time": 0.0012557607421875,
            "value": 0
          }
        ],
        "101": [
          {
            "number": 101,
            "ticks": 3,
            "time": 0.0012557607421875,
            "value": 0
          }
        ]
      },
      "pitchBends": [],
      "instrument": {
        "family": "guitar",
        "number": 27,
        "name": "electric guitar (clean)"
      },
      "name": "Electric Guitar",
      "notes": [
        {
          "duration": 0.207200522460937,
          "durationTicks": 495,
          "midi": 67,
          "name": "G4",
          "ticks": 82944,
          "time": 34.719273,
          "velocity": 0.5433070866141733
        },
        {
          "duration": 0.1954800888671926,
          "durationTicks": 467,
          "midi": 64,
          "name": "E4",
          "ticks": 83470,
          "time": 34.93944971679687,
          "velocity": 0.5039370078740157
        },
        {
          "duration": 0.207200522460937,
          "durationTicks": 495,
          "midi": 69,
          "name": "A4",
          "ticks": 83968,
          "time": 35.147906,
          "velocity": 0.5118110236220472
        },
        {
          "duration": 0.1954800888671855,
          "durationTicks": 467,
          "midi": 64,
          "name": "E4",
          "ticks": 84494,
          "time": 35.36808271679688,
          "velocity": 0.5039370078740157
        },
        {
          "duration": 0.21180497851563018,
          "durationTicks": 506,
          "midi": 66,
          "name": "F#4",
          "ticks": 84992,
          "time": 35.576539,
          "velocity": 0.5118110236220472
        },
        {
          "duration": 0.1921313935546891,
          "durationTicks": 459,
          "midi": 67,
          "name": "G4",
          "ticks": 85529,
          "time": 35.80132017285156,
          "velocity": 0.5039370078740157
        },
        {
          "duration": 0.20008454492187866,
          "durationTicks": 478,
          "midi": 64,
          "name": "E4",
          "ticks": 86019,
          "time": 36.006427760742184,
          "velocity": 0.5039370078740157
        },
        {
          "duration": 0.21431650000000246,
          "durationTicks": 512,
          "midi": 71,
          "name": "B4",
          "ticks": 86528,
          "time": 36.2194885,
          "velocity": 0.5433070866141733
        },
        {
          "duration": 0.19757302343749927,
          "durationTicks": 472,
          "midi": 69,
          "name": "A4",
          "ticks": 87071,
          "time": 36.446781194335934,
          "velocity": 0.5039370078740157
        },
        {
          "duration": 0.20175889257812685,
          "durationTicks": 482,
          "midi": 67,
          "name": "G4",
          "ticks": 87574,
          "time": 36.657330412109374,
          "velocity": 0.5039370078740157
        },
        {
          "duration": 0.20050313183593715,
          "durationTicks": 479,
          "midi": 66,
          "name": "F#4",
          "ticks": 88087,
          "time": 36.872065499023435,
          "velocity": 0.5039370078740157
        },
        {
          "duration": 0.1929685673828132,
          "durationTicks": 461,
          "midi": 64,
          "name": "E4",
          "ticks": 88597,
          "time": 37.08554482519531,
          "velocity": 0.5039370078740157
        },
        {
          "duration": 0.20092171875000275,
          "durationTicks": 480,
          "midi": 62,
          "name": "D4",
          "ticks": 89089,
          "time": 37.29148958691406,
          "velocity": 0.5039370078740157
        },
        {
          "duration": 0.207200522460937,
          "durationTicks": 495,
          "midi": 67,
          "name": "G4",
          "ticks": 89600,
          "time": 37.5053875,
          "velocity": 0.5433070866141733
        },
        {
          "duration": 0.1954800888671855,
          "durationTicks": 467,
          "midi": 64,
          "name": "E4",
          "ticks": 90126,
          "time": 37.725564216796876,
          "velocity": 0.5039370078740157
        },
        {
          "duration": 0.20720052246094411,
          "durationTicks": 495,
          "midi": 69,
          "name": "A4",
          "ticks": 90624,
          "time": 37.934020499999995,
          "velocity": 0.5118110236220472
        },
        {
          "duration": 0.1954800888671855,
          "durationTicks": 467,
          "midi": 64,
          "name": "E4",
          "ticks": 91150,
          "time": 38.154197216796874,
          "velocity": 0.5039370078740157
        },
        {
          "duration": 0.21180497851562308,
          "durationTicks": 506,
          "midi": 66,
          "name": "F#4",
          "ticks": 91648,
          "time": 38.3626535,
          "velocity": 0.5118110236220472
        },
        {
          "duration": 0.192131393554682,
          "durationTicks": 459,
          "midi": 67,
          "name": "G4",
          "ticks": 92185,
          "time": 38.587434672851565,
          "velocity": 0.5039370078740157
        },
        {
          "duration": 0.20008454492187155,
          "durationTicks": 478,
          "midi": 64,
          "name": "E4",
          "ticks": 92675,
          "time": 38.79254226074219,
          "velocity": 0.5039370078740157
        },
        {
          "duration": 0.207200522460937,
          "durationTicks": 495,
          "midi": 71,
          "name": "B4",
          "ticks": 93184,
          "time": 39.005603,
          "velocity": 0.5433070866141733
        },
        {
          "duration": 0.1954800888671926,
          "durationTicks": 467,
          "midi": 69,
          "name": "A4",
          "ticks": 93710,
          "time": 39.22577971679687,
          "velocity": 0.5039370078740157
        },
        {
          "duration": 0.207200522460937,
          "durationTicks": 495,
          "midi": 67,
          "name": "G4",
          "ticks": 94208,
          "time": 39.434236,
          "velocity": 0.5118110236220472
        },
        {
          "duration": 0.1954800888671855,
          "durationTicks": 467,
          "midi": 66,
          "name": "F#4",
          "ticks": 94734,
          "time": 39.65441271679688,
          "velocity": 0.5039370078740157
        },
        {
          "duration": 0.21180497851563018,
          "durationTicks": 506,
          "midi": 64,
          "name": "E4",
          "ticks": 95232,
          "time": 39.862868999999996,
          "velocity": 0.5118110236220472
        },
        {
          "duration": 0.1921313935546891,
          "durationTicks": 459,
          "midi": 62,
          "name": "D4",
          "ticks": 95769,
          "time": 40.08765017285156,
          "velocity": 0.5039370078740157
        },
        {
          "duration": 0.20008454492187866,
          "durationTicks": 478,
          "midi": 64,
          "name": "E4",
          "ticks": 96259,
          "time": 40.292757760742184,
          "velocity": 0.5039370078740157
        },
        {
          "duration": 0.207200522460937,
          "durationTicks": 495,
          "midi": 67,
          "name": "G4",
          "ticks": 96768,
          "time": 40.5058185,
          "velocity": 0.5433070866141733
        },
        {
          "duration": 0.1954800888671855,
          "durationTicks": 467,
          "midi": 64,
          "name": "E4",
          "ticks": 97294,
          "time": 40.725995216796875,
          "velocity": 0.5039370078740157
        },
        {
          "duration": 0.207200522460937,
          "durationTicks": 495,
          "midi": 69,
          "name": "A4",
          "ticks": 97792,
          "time": 40.9344515,
          "velocity": 0.5118110236220472
        },
        {
          "duration": 0.1954800888671855,
          "durationTicks": 467,
          "midi": 64,
          "name": "E4",
          "ticks": 98318,
          "time": 41.15462821679687,
          "velocity": 0.5039370078740157
        },
        {
          "duration": 0.21180497851562308,
          "durationTicks": 506,
          "midi": 66,
          "name": "F#4",
          "ticks": 98816,
          "time": 41.3630845,
          "velocity": 0.5118110236220472
        },
        {
          "duration": 0.192131393554682,
          "durationTicks": 459,
          "midi": 67,
          "name": "G4",
          "ticks": 99353,
          "time": 41.587865672851564,
          "velocity": 0.5039370078740157
        },
        {
          "duration": 0.20008454492187155,
          "durationTicks": 478,
          "midi": 64,
          "name": "E4",
          "ticks": 99843,
          "time": 41.79297326074219,
          "velocity": 0.5039370078740157
        },
        {
          "duration": 0.21431650000000246,
          "durationTicks": 512,
          "midi": 71,
          "name": "B4",
          "ticks": 100352,
          "time": 42.006034,
          "velocity": 0.5433070866141733
        },
        {
          "duration": 0.19757302343749927,
          "durationTicks": 472,
          "midi": 69,
          "name": "A4",
          "ticks": 100895,
          "time": 42.233326694335936,
          "velocity": 0.5039370078740157
        },
        {
          "duration": 0.20175889257811974,
          "durationTicks": 482,
          "midi": 67,
          "name": "G4",
          "ticks": 101398,
          "time": 42.44387591210938,
          "velocity": 0.5039370078740157
        },
        {
          "duration": 0.20050313183593715,
          "durationTicks": 479,
          "midi": 66,
          "name": "F#4",
          "ticks": 101911,
          "time": 42.65861099902344,
          "velocity": 0.5039370078740157
        },
        {
          "duration": 0.1929685673828132,
          "durationTicks": 461,
          "midi": 64,
          "name": "E4",
          "ticks": 102421,
          "time": 42.87209032519531,
          "velocity": 0.5039370078740157
        },
        {
          "duration": 0.20092171874999565,
          "durationTicks": 480,
          "midi": 62,
          "name": "D4",
          "ticks": 102913,
          "time": 43.07803508691406,
          "velocity": 0.5039370078740157
        },
        {
          "duration": 0.207200522460937,
          "durationTicks": 495,
          "midi": 67,
          "name": "G4",
          "ticks": 103424,
          "time": 43.291933,
          "velocity": 0.5433070866141733
        },
        {
          "duration": 0.1954800888671926,
          "durationTicks": 467,
          "midi": 64,
          "name": "E4",
          "ticks": 103950,
          "time": 43.51210971679687,
          "velocity": 0.5039370078740157
        },
        {
          "duration": 0.207200522460937,
          "durationTicks": 495,
          "midi": 69,
          "name": "A4",
          "ticks": 104448,
          "time": 43.720566,
          "velocity": 0.5118110236220472
        },
        {
          "duration": 0.1954800888671855,
          "durationTicks": 467,
          "midi": 64,
          "name": "E4",
          "ticks": 104974,
          "time": 43.940742716796876,
          "velocity": 0.5039370078740157
        },
        {
          "duration": 0.21180497851563018,
          "durationTicks": 506,
          "midi": 66,
          "name": "F#4",
          "ticks": 105472,
          "time": 44.149198999999996,
          "velocity": 0.5118110236220472
        },
        {
          "duration": 0.1921313935546891,
          "durationTicks": 459,
          "midi": 67,
          "name": "G4",
          "ticks": 106009,
          "time": 44.37398017285156,
          "velocity": 0.5039370078740157
        },
        {
          "duration": 0.20008454492187866,
          "durationTicks": 478,
          "midi": 64,
          "name": "E4",
          "ticks": 106499,
          "time": 44.57908776074218,
          "velocity": 0.5039370078740157
        },
        {
          "duration": 0.207200522460937,
          "durationTicks": 495,
          "midi": 71,
          "name": "B4",
          "ticks": 107008,
          "time": 44.792148499999996,
          "velocity": 0.5433070866141733
        },
        {
          "duration": 0.1954800888671855,
          "durationTicks": 467,
          "midi": 69,
          "name": "A4",
          "ticks": 107534,
          "time": 45.012325216796874,
          "velocity": 0.5039370078740157
        },
        {
          "duration": 0.207200522460937,
          "durationTicks": 495,
          "midi": 67,
          "name": "G4",
          "ticks": 108032,
          "time": 45.2207815,
          "velocity": 0.5118110236220472
        },
        {
          "duration": 0.1954800888671855,
          "durationTicks": 467,
          "midi": 66,
          "name": "F#4",
          "ticks": 108558,
          "time": 45.44095821679687,
          "velocity": 0.5039370078740157
        },
        {
          "duration": 0.21180497851562308,
          "durationTicks": 506,
          "midi": 64,
          "name": "E4",
          "ticks": 109056,
          "time": 45.6494145,
          "velocity": 0.5118110236220472
        },
        {
          "duration": 0.192131393554682,
          "durationTicks": 459,
          "midi": 62,
          "name": "D4",
          "ticks": 109593,
          "time": 45.87419567285156,
          "velocity": 0.5039370078740157
        },
        {
          "duration": 0.20008454492187155,
          "durationTicks": 478,
          "midi": 64,
          "name": "E4",
          "ticks": 110083,
          "time": 46.079303260742186,
          "velocity": 0.5039370078740157
        },
        {
          "duration": 0.207200522460937,
          "durationTicks": 495,
          "midi": 67,
          "name": "G4",
          "ticks": 110592,
          "time": 46.292364,
          "velocity": 0.5433070866141733
        },
        {
          "duration": 0.1954800888671926,
          "durationTicks": 467,
          "midi": 64,
          "name": "E4",
          "ticks": 111118,
          "time": 46.51254071679687,
          "velocity": 0.5039370078740157
        },
        {
          "duration": 0.207200522460937,
          "durationTicks": 495,
          "midi": 69,
          "name": "A4",
          "ticks": 111616,
          "time": 46.720997,
          "velocity": 0.5118110236220472
        },
        {
          "duration": 0.1954800888671855,
          "durationTicks": 467,
          "midi": 64,
          "name": "E4",
          "ticks": 112142,
          "time": 46.941173716796875,
          "velocity": 0.5039370078740157
        },
        {
          "duration": 0.21180497851562308,
          "durationTicks": 506,
          "midi": 66,
          "name": "F#4",
          "ticks": 112640,
          "time": 47.14963,
          "velocity": 0.5118110236220472
        },
        {
          "duration": 0.1921313935546891,
          "durationTicks": 459,
          "midi": 67,
          "name": "G4",
          "ticks": 113177,
          "time": 47.37441117285156,
          "velocity": 0.5039370078740157
        },
        {
          "duration": 0.20008454492187155,
          "durationTicks": 478,
          "midi": 64,
          "name": "E4",
          "ticks": 113667,
          "time": 47.57951876074219,
          "velocity": 0.5039370078740157
        },
        {
          "duration": 0.21431650000000246,
          "durationTicks": 512,
          "midi": 71,
          "name": "B4",
          "ticks": 114176,
          "time": 47.792579499999995,
          "velocity": 0.5433070866141733
        },
        {
          "duration": 0.19757302343749927,
          "durationTicks": 472,
          "midi": 69,
          "name": "A4",
          "ticks": 114719,
          "time": 48.01987219433594,
          "velocity": 0.5039370078740157
        },
        {
          "duration": 0.20175889257812685,
          "durationTicks": 482,
          "midi": 67,
          "name": "G4",
          "ticks": 115222,
          "time": 48.23042141210937,
          "velocity": 0.5039370078740157
        },
        {
          "duration": 0.20050313183593715,
          "durationTicks": 479,
          "midi": 66,
          "name": "F#4",
          "ticks": 115735,
          "time": 48.44515649902343,
          "velocity": 0.5039370078740157
        },
        {
          "duration": 0.1929685673828132,
          "durationTicks": 461,
          "midi": 64,
          "name": "E4",
          "ticks": 116245,
          "time": 48.65863582519531,
          "velocity": 0.5039370078740157
        },
        {
          "duration": 0.20092171875000275,
          "durationTicks": 480,
          "midi": 62,
          "name": "D4",
          "ticks": 116737,
          "time": 48.86458058691406,
          "velocity": 0.5039370078740157
        },
        {
          "duration": 0.207200522460937,
          "durationTicks": 495,
          "midi": 67,
          "name": "G4",
          "ticks": 117248,
          "time": 49.078478499999996,
          "velocity": 0.5433070866141733
        },
        {
          "duration": 0.1954800888671855,
          "durationTicks": 467,
          "midi": 64,
          "name": "E4",
          "ticks": 117774,
          "time": 49.298655216796874,
          "velocity": 0.5039370078740157
        },
        {
          "duration": 0.207200522460937,
          "durationTicks": 495,
          "midi": 69,
          "name": "A4",
          "ticks": 118272,
          "time": 49.5071115,
          "velocity": 0.5118110236220472
        },
        {
          "duration": 0.1954800888671926,
          "durationTicks": 467,
          "midi": 64,
          "name": "E4",
          "ticks": 118798,
          "time": 49.72728821679687,
          "velocity": 0.5039370078740157
        },
        {
          "duration": 0.21180497851562308,
          "durationTicks": 506,
          "midi": 66,
          "name": "F#4",
          "ticks": 119296,
          "time": 49.9357445,
          "velocity": 0.5118110236220472
        },
        {
          "duration": 0.1921313935546891,
          "durationTicks": 459,
          "midi": 67,
          "name": "G4",
          "ticks": 119833,
          "time": 50.16052567285156,
          "velocity": 0.5039370078740157
        },
        {
          "duration": 0.20008454492187155,
          "durationTicks": 478,
          "midi": 64,
          "name": "E4",
          "ticks": 120323,
          "time": 50.365633260742186,
          "velocity": 0.5039370078740157
        },
        {
          "duration": 0.207200522460937,
          "durationTicks": 495,
          "midi": 71,
          "name": "B4",
          "ticks": 120832,
          "time": 50.578694,
          "velocity": 0.5433070866141733
        },
        {
          "duration": 0.1954800888671926,
          "durationTicks": 467,
          "midi": 69,
          "name": "A4",
          "ticks": 121358,
          "time": 50.79887071679687,
          "velocity": 0.5039370078740157
        },
        {
          "duration": 0.207200522460937,
          "durationTicks": 495,
          "midi": 67,
          "name": "G4",
          "ticks": 121856,
          "time": 51.007327,
          "velocity": 0.5118110236220472
        },
        {
          "duration": 0.1954800888671855,
          "durationTicks": 467,
          "midi": 66,
          "name": "F#4",
          "ticks": 122382,
          "time": 51.227503716796875,
          "velocity": 0.5039370078740157
        },
        {
          "duration": 0.21180497851562308,
          "durationTicks": 506,
          "midi": 64,
          "name": "E4",
          "ticks": 122880,
          "time": 51.43596,
          "velocity": 0.5118110236220472
        },
        {
          "duration": 0.1921313935546891,
          "durationTicks": 459,
          "midi": 62,
          "name": "D4",
          "ticks": 123417,
          "time": 51.66074117285156,
          "velocity": 0.5039370078740157
        },
        {
          "duration": 0.20008454492187155,
          "durationTicks": 478,
          "midi": 64,
          "name": "E4",
          "ticks": 123907,
          "time": 51.86584876074219,
          "velocity": 0.5039370078740157
        },
        {
          "duration": 0.207200522460937,
          "durationTicks": 495,
          "midi": 67,
          "name": "G4",
          "ticks": 124416,
          "time": 52.0789095,
          "velocity": 0.5433070866141733
        },
        {
          "duration": 0.1954800888671855,
          "durationTicks": 467,
          "midi": 64,
          "name": "E4",
          "ticks": 124942,
          "time": 52.29908621679687,
          "velocity": 0.5039370078740157
        },
        {
          "duration": 0.207200522460937,
          "durationTicks": 495,
          "midi": 69,
          "name": "A4",
          "ticks": 125440,
          "time": 52.5075425,
          "velocity": 0.5118110236220472
        },
        {
          "duration": 0.1954800888671926,
          "durationTicks": 467,
          "midi": 64,
          "name": "E4",
          "ticks": 125966,
          "time": 52.72771921679687,
          "velocity": 0.5039370078740157
        },
        {
          "duration": 0.21180497851562308,
          "durationTicks": 506,
          "midi": 66,
          "name": "F#4",
          "ticks": 126464,
          "time": 52.9361755,
          "velocity": 0.5118110236220472
        },
        {
          "duration": 0.1921313935546891,
          "durationTicks": 459,
          "midi": 67,
          "name": "G4",
          "ticks": 127001,
          "time": 53.16095667285156,
          "velocity": 0.5039370078740157
        },
        {
          "duration": 0.20008454492187866,
          "durationTicks": 478,
          "midi": 64,
          "name": "E4",
          "ticks": 127491,
          "time": 53.366064260742185,
          "velocity": 0.5039370078740157
        },
        {
          "duration": 0.21431650000000246,
          "durationTicks": 512,
          "midi": 71,
          "name": "B4",
          "ticks": 128000,
          "time": 53.579125,
          "velocity": 0.5433070866141733
        },
        {
          "duration": 0.19757302343749927,
          "durationTicks": 472,
          "midi": 69,
          "name": "A4",
          "ticks": 128543,
          "time": 53.806417694335934,
          "velocity": 0.5039370078740157
        },
        {
          "duration": 0.20175889257812685,
          "durationTicks": 482,
          "midi": 67,
          "name": "G4",
          "ticks": 129046,
          "time": 54.016966912109375,
          "velocity": 0.5039370078740157
        },
        {
          "duration": 0.20050313183593715,
          "durationTicks": 479,
          "midi": 66,
          "name": "F#4",
          "ticks": 129559,
          "time": 54.231701999023436,
          "velocity": 0.5039370078740157
        },
        {
          "duration": 0.1929685673828061,
          "durationTicks": 461,
          "midi": 64,
          "name": "E4",
          "ticks": 130069,
          "time": 54.445181325195314,
          "velocity": 0.5039370078740157
        },
        {
          "duration": 0.20092171875000275,
          "durationTicks": 480,
          "midi": 62,
          "name": "D4",
          "ticks": 130561,
          "time": 54.65112608691406,
          "velocity": 0.5039370078740157
        },
        {
          "duration": 0.207200522460937,
          "durationTicks": 495,
          "midi": 67,
          "name": "G4",
          "ticks": 131072,
          "time": 54.865024,
          "velocity": 0.5433070866141733
        },
        {
          "duration": 0.1954800888671855,
          "durationTicks": 467,
          "midi": 64,
          "name": "E4",
          "ticks": 131598,
          "time": 55.08520071679688,
          "velocity": 0.5039370078740157
        },
        {
          "duration": 0.207200522460937,
          "durationTicks": 495,
          "midi": 69,
          "name": "A4",
          "ticks": 132096,
          "time": 55.293656999999996,
          "velocity": 0.5118110236220472
        },
        {
          "duration": 0.1954800888671855,
          "durationTicks": 467,
          "midi": 64,
          "name": "E4",
          "ticks": 132622,
          "time": 55.513833716796874,
          "velocity": 0.5039370078740157
        },
        {
          "duration": 0.21180497851562308,
          "durationTicks": 506,
          "midi": 66,
          "name": "F#4",
          "ticks": 133120,
          "time": 55.72229,
          "velocity": 0.5118110236220472
        },
        {
          "duration": 0.1921313935546891,
          "durationTicks": 459,
          "midi": 67,
          "name": "G4",
          "ticks": 133657,
          "time": 55.94707117285156,
          "velocity": 0.5039370078740157
        },
        {
          "duration": 0.20008454492187155,
          "durationTicks": 478,
          "midi": 64,
          "name": "E4",
          "ticks": 134147,
          "time": 56.15217876074219,
          "velocity": 0.5039370078740157
        },
        {
          "duration": 0.207200522460937,
          "durationTicks": 495,
          "midi": 71,
          "name": "B4",
          "ticks": 134656,
          "time": 56.3652395,
          "velocity": 0.5433070866141733
        },
        {
          "duration": 0.1954800888671855,
          "durationTicks": 467,
          "midi": 69,
          "name": "A4",
          "ticks": 135182,
          "time": 56.58541621679687,
          "velocity": 0.5039370078740157
        },
        {
          "duration": 0.207200522460937,
          "durationTicks": 495,
          "midi": 67,
          "name": "G4",
          "ticks": 135680,
          "time": 56.7938725,
          "velocity": 0.5118110236220472
        },
        {
          "duration": 0.1954800888671926,
          "durationTicks": 467,
          "midi": 66,
          "name": "F#4",
          "ticks": 136206,
          "time": 57.01404921679687,
          "velocity": 0.5039370078740157
        },
        {
          "duration": 0.21180497851562308,
          "durationTicks": 506,
          "midi": 64,
          "name": "E4",
          "ticks": 136704,
          "time": 57.2225055,
          "velocity": 0.5118110236220472
        },
        {
          "duration": 0.1921313935546891,
          "durationTicks": 459,
          "midi": 62,
          "name": "D4",
          "ticks": 137241,
          "time": 57.44728667285156,
          "velocity": 0.5039370078740157
        },
        {
          "duration": 0.20008454492187866,
          "durationTicks": 478,
          "midi": 64,
          "name": "E4",
          "ticks": 137731,
          "time": 57.652394260742184,
          "velocity": 0.5039370078740157
        },
        {
          "duration": 0.207200522460937,
          "durationTicks": 495,
          "midi": 67,
          "name": "G4",
          "ticks": 138240,
          "time": 57.865455,
          "velocity": 0.5433070866141733
        },
        {
          "duration": 0.1954800888671855,
          "durationTicks": 467,
          "midi": 64,
          "name": "E4",
          "ticks": 138766,
          "time": 58.085631716796875,
          "velocity": 0.5039370078740157
        },
        {
          "duration": 0.20720052246094411,
          "durationTicks": 495,
          "midi": 69,
          "name": "A4",
          "ticks": 139264,
          "time": 58.294087999999995,
          "velocity": 0.5118110236220472
        },
        {
          "duration": 0.1954800888671855,
          "durationTicks": 467,
          "midi": 64,
          "name": "E4",
          "ticks": 139790,
          "time": 58.51426471679687,
          "velocity": 0.5039370078740157
        },
        {
          "duration": 0.21180497851562308,
          "durationTicks": 506,
          "midi": 66,
          "name": "F#4",
          "ticks": 140288,
          "time": 58.722721,
          "velocity": 0.5118110236220472
        },
        {
          "duration": 0.1921313935546891,
          "durationTicks": 459,
          "midi": 67,
          "name": "G4",
          "ticks": 140825,
          "time": 58.94750217285156,
          "velocity": 0.5039370078740157
        },
        {
          "duration": 0.20008454492187155,
          "durationTicks": 478,
          "midi": 64,
          "name": "E4",
          "ticks": 141315,
          "time": 59.15260976074219,
          "velocity": 0.5039370078740157
        },
        {
          "duration": 0.21431649999999536,
          "durationTicks": 512,
          "midi": 71,
          "name": "B4",
          "ticks": 141824,
          "time": 59.3656705,
          "velocity": 0.5433070866141733
        },
        {
          "duration": 0.19757302343749927,
          "durationTicks": 472,
          "midi": 69,
          "name": "A4",
          "ticks": 142367,
          "time": 59.59296319433594,
          "velocity": 0.5039370078740157
        },
        {
          "duration": 0.20175889257812685,
          "durationTicks": 482,
          "midi": 67,
          "name": "G4",
          "ticks": 142870,
          "time": 59.80351241210937,
          "velocity": 0.5039370078740157
        },
        {
          "duration": 0.20050313183593715,
          "durationTicks": 479,
          "midi": 66,
          "name": "F#4",
          "ticks": 143383,
          "time": 60.01824749902344,
          "velocity": 0.5039370078740157
        },
        {
          "duration": 0.1929685673828132,
          "durationTicks": 461,
          "midi": 64,
          "name": "E4",
          "ticks": 143893,
          "time": 60.23172682519531,
          "velocity": 0.5039370078740157
        },
        {
          "duration": 0.20092171874999565,
          "durationTicks": 480,
          "midi": 62,
          "name": "D4",
          "ticks": 144385,
          "time": 60.437671586914064,
          "velocity": 0.5039370078740157
        },
        {
          "duration": 0.207200522460937,
          "durationTicks": 495,
          "midi": 67,
          "name": "G4",
          "ticks": 144896,
          "time": 60.6515695,
          "velocity": 0.5433070866141733
        },
        {
          "duration": 0.1954800888671855,
          "durationTicks": 467,
          "midi": 64,
          "name": "E4",
          "ticks": 145422,
          "time": 60.87174621679687,
          "velocity": 0.5039370078740157
        },
        {
          "duration": 0.207200522460937,
          "durationTicks": 495,
          "midi": 69,
          "name": "A4",
          "ticks": 145920,
          "time": 61.0802025,
          "velocity": 0.5118110236220472
        },
        {
          "duration": 0.1954800888671926,
          "durationTicks": 467,
          "midi": 64,
          "name": "E4",
          "ticks": 146446,
          "time": 61.30037921679687,
          "velocity": 0.5039370078740157
        },
        {
          "duration": 0.21180497851562308,
          "durationTicks": 506,
          "midi": 66,
          "name": "F#4",
          "ticks": 146944,
          "time": 61.508835499999996,
          "velocity": 0.5118110236220472
        },
        {
          "duration": 0.1921313935546891,
          "durationTicks": 459,
          "midi": 67,
          "name": "G4",
          "ticks": 147481,
          "time": 61.73361667285156,
          "velocity": 0.5039370078740157
        },
        {
          "duration": 0.20008454492187866,
          "durationTicks": 478,
          "midi": 64,
          "name": "E4",
          "ticks": 147971,
          "time": 61.938724260742184,
          "velocity": 0.5039370078740157
        },
        {
          "duration": 0.207200522460937,
          "durationTicks": 495,
          "midi": 71,
          "name": "B4",
          "ticks": 148480,
          "time": 62.151785,
          "velocity": 0.5433070866141733
        },
        {
          "duration": 0.1954800888671855,
          "durationTicks": 467,
          "midi": 69,
          "name": "A4",
          "ticks": 149006,
          "time": 62.371961716796875,
          "velocity": 0.5039370078740157
        },
        {
          "duration": 0.20720052246094411,
          "durationTicks": 495,
          "midi": 67,
          "name": "G4",
          "ticks": 149504,
          "time": 62.580417999999995,
          "velocity": 0.5118110236220472
        },
        {
          "duration": 0.1954800888671855,
          "durationTicks": 467,
          "midi": 66,
          "name": "F#4",
          "ticks": 150030,
          "time": 62.80059471679687,
          "velocity": 0.5039370078740157
        },
        {
          "duration": 0.21180497851562308,
          "durationTicks": 506,
          "midi": 64,
          "name": "E4",
          "ticks": 150528,
          "time": 63.009051,
          "velocity": 0.5118110236220472
        },
        {
          "duration": 0.192131393554682,
          "durationTicks": 459,
          "midi": 62,
          "name": "D4",
          "ticks": 151065,
          "time": 63.233832172851564,
          "velocity": 0.5039370078740157
        },
        {
          "duration": 0.20008454492187155,
          "durationTicks": 478,
          "midi": 64,
          "name": "E4",
          "ticks": 151555,
          "time": 63.43893976074219,
          "velocity": 0.5039370078740157
        },
        {
          "duration": 0.207200522460937,
          "durationTicks": 495,
          "midi": 67,
          "name": "G4",
          "ticks": 152064,
          "time": 63.6520005,
          "velocity": 0.5433070866141733
        },
        {
          "duration": 0.1954800888671855,
          "durationTicks": 467,
          "midi": 64,
          "name": "E4",
          "ticks": 152590,
          "time": 63.87217721679687,
          "velocity": 0.5039370078740157
        },
        {
          "duration": 0.207200522460937,
          "durationTicks": 495,
          "midi": 69,
          "name": "A4",
          "ticks": 153088,
          "time": 64.0806335,
          "velocity": 0.5118110236220472
        },
        {
          "duration": 0.1954800888671855,
          "durationTicks": 467,
          "midi": 64,
          "name": "E4",
          "ticks": 153614,
          "time": 64.30081021679688,
          "velocity": 0.5039370078740157
        },
        {
          "duration": 0.21180497851563018,
          "durationTicks": 506,
          "midi": 66,
          "name": "F#4",
          "ticks": 154112,
          "time": 64.5092665,
          "velocity": 0.5118110236220472
        },
        {
          "duration": 0.1921313935546891,
          "durationTicks": 459,
          "midi": 67,
          "name": "G4",
          "ticks": 154649,
          "time": 64.73404767285156,
          "velocity": 0.5039370078740157
        },
        {
          "duration": 0.20008454492187866,
          "durationTicks": 478,
          "midi": 64,
          "name": "E4",
          "ticks": 155139,
          "time": 64.93915526074218,
          "velocity": 0.5039370078740157
        },
        {
          "duration": 0.21431649999999536,
          "durationTicks": 512,
          "midi": 71,
          "name": "B4",
          "ticks": 155648,
          "time": 65.152216,
          "velocity": 0.5433070866141733
        },
        {
          "duration": 0.19757302343749927,
          "durationTicks": 472,
          "midi": 69,
          "name": "A4",
          "ticks": 156191,
          "time": 65.37950869433594,
          "velocity": 0.5039370078740157
        },
        {
          "duration": 0.20175889257812685,
          "durationTicks": 482,
          "midi": 67,
          "name": "G4",
          "ticks": 156694,
          "time": 65.59005791210937,
          "velocity": 0.5039370078740157
        },
        {
          "duration": 0.20050313183594426,
          "durationTicks": 479,
          "midi": 66,
          "name": "F#4",
          "ticks": 157207,
          "time": 65.80479299902343,
          "velocity": 0.5039370078740157
        },
        {
          "duration": 0.1929685673828061,
          "durationTicks": 461,
          "midi": 64,
          "name": "E4",
          "ticks": 157717,
          "time": 66.01827232519531,
          "velocity": 0.5039370078740157
        },
        {
          "duration": 0.20092171874999565,
          "durationTicks": 480,
          "midi": 62,
          "name": "D4",
          "ticks": 158209,
          "time": 66.22421708691407,
          "velocity": 0.5039370078740157
        },
        {
          "duration": 0.207200522460937,
          "durationTicks": 495,
          "midi": 67,
          "name": "G4",
          "ticks": 158720,
          "time": 66.438115,
          "velocity": 0.5433070866141733
        },
        {
          "duration": 0.1954800888671997,
          "durationTicks": 467,
          "midi": 64,
          "name": "E4",
          "ticks": 159246,
          "time": 66.65829171679687,
          "velocity": 0.5039370078740157
        },
        {
          "duration": 0.207200522460937,
          "durationTicks": 495,
          "midi": 69,
          "name": "A4",
          "ticks": 159744,
          "time": 66.866748,
          "velocity": 0.5118110236220472
        },
        {
          "duration": 0.1954800888671855,
          "durationTicks": 467,
          "midi": 64,
          "name": "E4",
          "ticks": 160270,
          "time": 67.08692471679687,
          "velocity": 0.5039370078740157
        },
        {
          "duration": 0.21180497851563018,
          "durationTicks": 506,
          "midi": 66,
          "name": "F#4",
          "ticks": 160768,
          "time": 67.29538099999999,
          "velocity": 0.5118110236220472
        },
        {
          "duration": 0.1921313935546891,
          "durationTicks": 459,
          "midi": 67,
          "name": "G4",
          "ticks": 161305,
          "time": 67.52016217285156,
          "velocity": 0.5039370078740157
        },
        {
          "duration": 0.20008454492187866,
          "durationTicks": 478,
          "midi": 64,
          "name": "E4",
          "ticks": 161795,
          "time": 67.72526976074218,
          "velocity": 0.5039370078740157
        },
        {
          "duration": 0.207200522460937,
          "durationTicks": 495,
          "midi": 71,
          "name": "B4",
          "ticks": 162304,
          "time": 67.93833049999999,
          "velocity": 0.5433070866141733
        },
        {
          "duration": 0.1954800888671855,
          "durationTicks": 467,
          "midi": 69,
          "name": "A4",
          "ticks": 162830,
          "time": 68.15850721679688,
          "velocity": 0.5039370078740157
        },
        {
          "duration": 0.207200522460937,
          "durationTicks": 495,
          "midi": 67,
          "name": "G4",
          "ticks": 163328,
          "time": 68.3669635,
          "velocity": 0.5118110236220472
        },
        {
          "duration": 0.1954800888671855,
          "durationTicks": 467,
          "midi": 66,
          "name": "F#4",
          "ticks": 163854,
          "time": 68.58714021679687,
          "velocity": 0.5039370078740157
        },
        {
          "duration": 0.21180497851561597,
          "durationTicks": 506,
          "midi": 64,
          "name": "E4",
          "ticks": 164352,
          "time": 68.7955965,
          "velocity": 0.5118110236220472
        },
        {
          "duration": 0.1921313935546749,
          "durationTicks": 459,
          "midi": 62,
          "name": "D4",
          "ticks": 164889,
          "time": 69.02037767285157,
          "velocity": 0.5039370078740157
        },
        {
          "duration": 0.20008454492186445,
          "durationTicks": 478,
          "midi": 64,
          "name": "E4",
          "ticks": 165379,
          "time": 69.22548526074219,
          "velocity": 0.5039370078740157
        },
        {
          "duration": 0.22645552050781248,
          "durationTicks": 541,
          "midi": 67,
          "name": "G4",
          "ticks": 165892,
          "time": 69.44022034765625,
          "velocity": 0.8346456692913385
        },
        {
          "duration": 0.42360995703124615,
          "durationTicks": 1012,
          "midi": 67,
          "name": "G4",
          "ticks": 166434,
          "time": 69.66709445507813,
          "velocity": 0.7952755905511811
        },
        {
          "duration": 0.21306073925781277,
          "durationTicks": 509,
          "midi": 67,
          "name": "G4",
          "ticks": 167447,
          "time": 70.09112299902344,
          "velocity": 0.7952755905511811
        },
        {
          "duration": 0.42444713085937735,
          "durationTicks": 1014,
          "midi": 67,
          "name": "G4",
          "ticks": 167957,
          "time": 70.3046023251953,
          "velocity": 0.8188976377952756
        },
        {
          "duration": 0.42319137011719477,
          "durationTicks": 1011,
          "midi": 66,
          "name": "F#4",
          "ticks": 168972,
          "time": 70.72946804296875,
          "velocity": 0.8031496062992126
        },
        {
          "duration": 0.22645552050781248,
          "durationTicks": 541,
          "midi": 67,
          "name": "G4",
          "ticks": 169988,
          "time": 71.15475234765624,
          "velocity": 0.7401574803149606
        },
        {
          "duration": 0.21222356542969578,
          "durationTicks": 507,
          "midi": 67,
          "name": "G4",
          "ticks": 170530,
          "time": 71.38162645507812,
          "velocity": 0.7007874015748031
        },
        {
          "duration": 0.21096780468749898,
          "durationTicks": 504,
          "midi": 67,
          "name": "G4",
          "ticks": 171038,
          "time": 71.59426860742187,
          "velocity": 0.7086614173228346
        },
        {
          "duration": 0.22603693359374688,
          "durationTicks": 540,
          "midi": 67,
          "name": "G4",
          "ticks": 171543,
          "time": 71.80565499902343,
          "velocity": 0.7007874015748031
        },
        {
          "duration": 0.2239439990234331,
          "durationTicks": 535,
          "midi": 67,
          "name": "G4",
          "ticks": 172563,
          "time": 72.23261365136719,
          "velocity": 0.7007874015748031
        },
        {
          "duration": 0.42319137011718055,
          "durationTicks": 1011,
          "midi": 66,
          "name": "F#4",
          "ticks": 173068,
          "time": 72.44400004296875,
          "velocity": 0.8031496062992126
        },
        {
          "duration": 0.22645552050781248,
          "durationTicks": 541,
          "midi": 67,
          "name": "G4",
          "ticks": 174084,
          "time": 72.86928434765625,
          "velocity": 0.8346456692913385
        },
        {
          "duration": 0.42360995703124615,
          "durationTicks": 1012,
          "midi": 67,
          "name": "G4",
          "ticks": 174626,
          "time": 73.09615845507813,
          "velocity": 0.7952755905511811
        },
        {
          "duration": 0.21306073925781277,
          "durationTicks": 509,
          "midi": 67,
          "name": "G4",
          "ticks": 175639,
          "time": 73.52018699902344,
          "velocity": 0.7952755905511811
        },
        {
          "duration": 0.42444713085936314,
          "durationTicks": 1014,
          "midi": 67,
          "name": "G4",
          "ticks": 176149,
          "time": 73.73366632519532,
          "velocity": 0.8188976377952756
        },
        {
          "duration": 0.42319137011719477,
          "durationTicks": 1011,
          "midi": 66,
          "name": "F#4",
          "ticks": 177164,
          "time": 74.15853204296874,
          "velocity": 0.8031496062992126
        },
        {
          "duration": 0.22645552050781248,
          "durationTicks": 541,
          "midi": 67,
          "name": "G4",
          "ticks": 178180,
          "time": 74.58381634765625,
          "velocity": 0.7401574803149606
        },
        {
          "duration": 0.21222356542969578,
          "durationTicks": 507,
          "midi": 67,
          "name": "G4",
          "ticks": 178722,
          "time": 74.81069045507812,
          "velocity": 0.7007874015748031
        },
        {
          "duration": 0.21096780468749898,
          "durationTicks": 504,
          "midi": 67,
          "name": "G4",
          "ticks": 179230,
          "time": 75.02333260742188,
          "velocity": 0.7086614173228346
        },
        {
          "duration": 0.2260369335937611,
          "durationTicks": 540,
          "midi": 67,
          "name": "G4",
          "ticks": 179735,
          "time": 75.23471899902343,
          "velocity": 0.7007874015748031
        },
        {
          "duration": 0.8480570878906235,
          "durationTicks": 2026,
          "midi": 69,
          "name": "A4",
          "ticks": 180245,
          "time": 75.4481983251953,
          "velocity": 0.8188976377952756
        },
        {
          "duration": 0.22645552050781248,
          "durationTicks": 541,
          "midi": 67,
          "name": "G4",
          "ticks": 196612,
          "time": 82.29921034765624,
          "velocity": 0.8346456692913385
        },
        {
          "duration": 0.42360995703124615,
          "durationTicks": 1012,
          "midi": 67,
          "name": "G4",
          "ticks": 197154,
          "time": 82.52608445507812,
          "velocity": 0.7952755905511811
        },
        {
          "duration": 0.21306073925781277,
          "durationTicks": 509,
          "midi": 67,
          "name": "G4",
          "ticks": 198167,
          "time": 82.95011299902343,
          "velocity": 0.7952755905511811
        },
        {
          "duration": 0.42444713085937735,
          "durationTicks": 1014,
          "midi": 67,
          "name": "G4",
          "ticks": 198677,
          "time": 83.16359232519531,
          "velocity": 0.8188976377952756
        },
        {
          "duration": 0.42319137011718055,
          "durationTicks": 1011,
          "midi": 66,
          "name": "F#4",
          "ticks": 199692,
          "time": 83.58845804296875,
          "velocity": 0.8031496062992126
        },
        {
          "duration": 0.22645552050781248,
          "durationTicks": 541,
          "midi": 67,
          "name": "G4",
          "ticks": 200708,
          "time": 84.01374234765625,
          "velocity": 0.8346456692913385
        },
        {
          "duration": 0.21222356542968157,
          "durationTicks": 507,
          "midi": 67,
          "name": "G4",
          "ticks": 201250,
          "time": 84.24061645507813,
          "velocity": 0.7952755905511811
        },
        {
          "duration": 0.21096780468749898,
          "durationTicks": 504,
          "midi": 67,
          "name": "G4",
          "ticks": 201758,
          "time": 84.45325860742187,
          "velocity": 0.8031496062992126
        },
        {
          "duration": 0.20050313183593005,
          "durationTicks": 479,
          "midi": 67,
          "name": "G4",
          "ticks": 202263,
          "time": 84.66464499902344,
          "velocity": 0.7952755905511811
        },
        {
          "duration": 0.21096780468749898,
          "durationTicks": 504,
          "midi": 69,
          "name": "A4",
          "ticks": 203283,
          "time": 85.09160365136718,
          "velocity": 0.7952755905511811
        },
        {
          "duration": 0.42319137011719477,
          "durationTicks": 1011,
          "midi": 69,
          "name": "A4",
          "ticks": 203788,
          "time": 85.30299004296874,
          "velocity": 0.8031496062992126
        },
        {
          "duration": 0.22645552050781248,
          "durationTicks": 541,
          "midi": 67,
          "name": "G4",
          "ticks": 204804,
          "time": 85.72827434765625,
          "velocity": 0.8346456692913385
        },
        {
          "duration": 0.42360995703126036,
          "durationTicks": 1012,
          "midi": 67,
          "name": "G4",
          "ticks": 205346,
          "time": 85.95514845507812,
          "velocity": 0.7952755905511811
        },
        {
          "duration": 0.21306073925781277,
          "durationTicks": 509,
          "midi": 67,
          "name": "G4",
          "ticks": 206359,
          "time": 86.37917699902343,
          "velocity": 0.7952755905511811
        },
        {
          "duration": 0.42444713085937735,
          "durationTicks": 1014,
          "midi": 67,
          "name": "G4",
          "ticks": 206869,
          "time": 86.5926563251953,
          "velocity": 0.8188976377952756
        },
        {
          "duration": 0.42319137011718055,
          "durationTicks": 1011,
          "midi": 66,
          "name": "F#4",
          "ticks": 207884,
          "time": 87.01752204296875,
          "velocity": 0.8031496062992126
        },
        {
          "duration": 0.22645552050781248,
          "durationTicks": 541,
          "midi": 67,
          "name": "G4",
          "ticks": 208900,
          "time": 87.44280634765624,
          "velocity": 0.7401574803149606
        },
        {
          "duration": 0.21222356542968157,
          "durationTicks": 507,
          "midi": 67,
          "name": "G4",
          "ticks": 209442,
          "time": 87.66968045507812,
          "velocity": 0.7007874015748031
        },
        {
          "duration": 0.21096780468749898,
          "durationTicks": 504,
          "midi": 67,
          "name": "G4",
          "ticks": 209950,
          "time": 87.88232260742187,
          "velocity": 0.7086614173228346
        },
        {
          "duration": 0.22603693359374688,
          "durationTicks": 540,
          "midi": 67,
          "name": "G4",
          "ticks": 210455,
          "time": 88.09370899902343,
          "velocity": 0.7007874015748031
        },
        {
          "duration": 0.8480570878906235,
          "durationTicks": 2026,
          "midi": 66,
          "name": "F#4",
          "ticks": 210965,
          "time": 88.30718832519531,
          "velocity": 0.8188976377952756
        },
        {
          "duration": 0.22645552050781248,
          "durationTicks": 541,
          "midi": 60,
          "name": "C4",
          "ticks": 227332,
          "time": 95.15820034765625,
          "velocity": 0.7401574803149606
        },
        {
          "duration": 0.42360995703124615,
          "durationTicks": 1012,
          "midi": 60,
          "name": "C4",
          "ticks": 227874,
          "time": 95.38507445507813,
          "velocity": 0.7007874015748031
        },
        {
          "duration": 0.21306073925781277,
          "durationTicks": 509,
          "midi": 60,
          "name": "C4",
          "ticks": 228887,
          "time": 95.80910299902344,
          "velocity": 0.7007874015748031
        },
        {
          "duration": 0.42444713085936314,
          "durationTicks": 1014,
          "midi": 60,
          "name": "C4",
          "ticks": 229397,
          "time": 96.02258232519532,
          "velocity": 0.8188976377952756
        },
        {
          "duration": 0.42319137011719477,
          "durationTicks": 1011,
          "midi": 59,
          "name": "B3",
          "ticks": 230412,
          "time": 96.44744804296874,
          "velocity": 0.8031496062992126
        },
        {
          "duration": 0.22645552050781248,
          "durationTicks": 541,
          "midi": 60,
          "name": "C4",
          "ticks": 231428,
          "time": 96.87273234765625,
          "velocity": 0.8346456692913385
        },
        {
          "duration": 0.21222356542969578,
          "durationTicks": 507,
          "midi": 60,
          "name": "C4",
          "ticks": 231970,
          "time": 97.09960645507812,
          "velocity": 0.7952755905511811
        },
        {
          "duration": 0.21096780468749898,
          "durationTicks": 504,
          "midi": 60,
          "name": "C4",
          "ticks": 232478,
          "time": 97.31224860742188,
          "velocity": 0.8031496062992126
        },
        {
          "duration": 0.20050313183594426,
          "durationTicks": 479,
          "midi": 60,
          "name": "C4",
          "ticks": 232983,
          "time": 97.52363499902343,
          "velocity": 0.7952755905511811
        },
        {
          "duration": 0.21096780468749898,
          "durationTicks": 504,
          "midi": 62,
          "name": "D4",
          "ticks": 234003,
          "time": 97.95059365136719,
          "velocity": 0.7952755905511811
        },
        {
          "duration": 0.42319137011718055,
          "durationTicks": 1011,
          "midi": 62,
          "name": "D4",
          "ticks": 234508,
          "time": 98.16198004296875,
          "velocity": 0.8031496062992126
        },
        {
          "duration": 0.22645552050781248,
          "durationTicks": 541,
          "midi": 60,
          "name": "C4",
          "ticks": 235524,
          "time": 98.58726434765624,
          "velocity": 0.7401574803149606
        },
        {
          "duration": 0.42360995703124615,
          "durationTicks": 1012,
          "midi": 60,
          "name": "C4",
          "ticks": 236066,
          "time": 98.81413845507812,
          "velocity": 0.7007874015748031
        },
        {
          "duration": 0.21306073925781277,
          "durationTicks": 509,
          "midi": 60,
          "name": "C4",
          "ticks": 237079,
          "time": 99.23816699902343,
          "velocity": 0.7007874015748031
        },
        {
          "duration": 0.42444713085937735,
          "durationTicks": 1014,
          "midi": 60,
          "name": "C4",
          "ticks": 237589,
          "time": 99.45164632519531,
          "velocity": 0.8188976377952756
        },
        {
          "duration": 0.42319137011719477,
          "durationTicks": 1011,
          "midi": 59,
          "name": "B3",
          "ticks": 238604,
          "time": 99.87651204296874,
          "velocity": 0.8031496062992126
        },
        {
          "duration": 0.22645552050781248,
          "durationTicks": 541,
          "midi": 60,
          "name": "C4",
          "ticks": 239620,
          "time": 100.30179634765625,
          "velocity": 0.7401574803149606
        },
        {
          "duration": 0.21222356542968157,
          "durationTicks": 507,
          "midi": 60,
          "name": "C4",
          "ticks": 240162,
          "time": 100.52867045507813,
          "velocity": 0.7007874015748031
        },
        {
          "duration": 0.21096780468749898,
          "durationTicks": 504,
          "midi": 60,
          "name": "C4",
          "ticks": 240670,
          "time": 100.74131260742188,
          "velocity": 0.7086614173228346
        },
        {
          "duration": 0.22603693359374688,
          "durationTicks": 540,
          "midi": 60,
          "name": "C4",
          "ticks": 241175,
          "time": 100.95269899902344,
          "velocity": 0.7007874015748031
        },
        {
          "duration": 0.8480570878906235,
          "durationTicks": 2026,
          "midi": 59,
          "name": "B3",
          "ticks": 241685,
          "time": 101.1661783251953,
          "velocity": 0.8188976377952756
        },
        {
          "duration": 0.22645552050781248,
          "durationTicks": 541,
          "midi": 67,
          "name": "G4",
          "ticks": 299012,
          "time": 125.16251034765625,
          "velocity": 0.8346456692913385
        },
        {
          "duration": 0.42360995703126036,
          "durationTicks": 1012,
          "midi": 67,
          "name": "G4",
          "ticks": 299554,
          "time": 125.38938445507812,
          "velocity": 0.7952755905511811
        },
        {
          "duration": 0.21306073925781277,
          "durationTicks": 509,
          "midi": 67,
          "name": "G4",
          "ticks": 300567,
          "time": 125.81341299902343,
          "velocity": 0.7952755905511811
        },
        {
          "duration": 0.42444713085937735,
          "durationTicks": 1014,
          "midi": 67,
          "name": "G4",
          "ticks": 301077,
          "time": 126.0268923251953,
          "velocity": 0.8188976377952756
        },
        {
          "duration": 0.42319137011718055,
          "durationTicks": 1011,
          "midi": 66,
          "name": "F#4",
          "ticks": 302092,
          "time": 126.45175804296875,
          "velocity": 0.8031496062992126
        },
        {
          "duration": 0.22645552050781248,
          "durationTicks": 541,
          "midi": 67,
          "name": "G4",
          "ticks": 303108,
          "time": 126.87704234765624,
          "velocity": 0.7401574803149606
        },
        {
          "duration": 0.21222356542968157,
          "durationTicks": 507,
          "midi": 67,
          "name": "G4",
          "ticks": 303650,
          "time": 127.10391645507812,
          "velocity": 0.7007874015748031
        },
        {
          "duration": 0.21096780468749898,
          "durationTicks": 504,
          "midi": 67,
          "name": "G4",
          "ticks": 304158,
          "time": 127.31655860742187,
          "velocity": 0.7086614173228346
        },
        {
          "duration": 0.22603693359374688,
          "durationTicks": 540,
          "midi": 67,
          "name": "G4",
          "ticks": 304663,
          "time": 127.52794499902343,
          "velocity": 0.7007874015748031
        },
        {
          "duration": 0.2239439990234331,
          "durationTicks": 535,
          "midi": 67,
          "name": "G4",
          "ticks": 305683,
          "time": 127.95490365136719,
          "velocity": 0.7007874015748031
        },
        {
          "duration": 0.42319137011719477,
          "durationTicks": 1011,
          "midi": 66,
          "name": "F#4",
          "ticks": 306188,
          "time": 128.16629004296874,
          "velocity": 0.8031496062992126
        },
        {
          "duration": 0.22645552050781248,
          "durationTicks": 541,
          "midi": 67,
          "name": "G4",
          "ticks": 307204,
          "time": 128.59157434765623,
          "velocity": 0.8346456692913385
        },
        {
          "duration": 0.42360995703126036,
          "durationTicks": 1012,
          "midi": 67,
          "name": "G4",
          "ticks": 307746,
          "time": 128.8184484550781,
          "velocity": 0.7952755905511811
        },
        {
          "duration": 0.21306073925779856,
          "durationTicks": 509,
          "midi": 67,
          "name": "G4",
          "ticks": 308759,
          "time": 129.24247699902344,
          "velocity": 0.7952755905511811
        },
        {
          "duration": 0.42444713085939156,
          "durationTicks": 1014,
          "midi": 67,
          "name": "G4",
          "ticks": 309269,
          "time": 129.4559563251953,
          "velocity": 0.8188976377952756
        },
        {
          "duration": 0.42319137011716634,
          "durationTicks": 1011,
          "midi": 66,
          "name": "F#4",
          "ticks": 310284,
          "time": 129.88082204296876,
          "velocity": 0.8031496062992126
        },
        {
          "duration": 0.22645552050781248,
          "durationTicks": 541,
          "midi": 67,
          "name": "G4",
          "ticks": 311300,
          "time": 130.30610634765625,
          "velocity": 0.7401574803149606
        },
        {
          "duration": 0.21222356542966736,
          "durationTicks": 507,
          "midi": 67,
          "name": "G4",
          "ticks": 311842,
          "time": 130.53298045507813,
          "velocity": 0.7007874015748031
        },
        {
          "duration": 0.21096780468749898,
          "durationTicks": 504,
          "midi": 67,
          "name": "G4",
          "ticks": 312350,
          "time": 130.74562260742186,
          "velocity": 0.7086614173228346
        },
        {
          "duration": 0.22603693359374688,
          "durationTicks": 540,
          "midi": 67,
          "name": "G4",
          "ticks": 312855,
          "time": 130.95700899902343,
          "velocity": 0.7007874015748031
        },
        {
          "duration": 0.8480570878906235,
          "durationTicks": 2026,
          "midi": 69,
          "name": "A4",
          "ticks": 313365,
          "time": 131.17048832519532,
          "velocity": 0.8188976377952756
        },
        {
          "duration": 0.22645552050781248,
          "durationTicks": 541,
          "midi": 67,
          "name": "G4",
          "ticks": 329732,
          "time": 138.02150034765626,
          "velocity": 0.8346456692913385
        },
        {
          "duration": 0.42360995703126036,
          "durationTicks": 1012,
          "midi": 67,
          "name": "G4",
          "ticks": 330274,
          "time": 138.2483744550781,
          "velocity": 0.7952755905511811
        },
        {
          "duration": 0.21306073925779856,
          "durationTicks": 509,
          "midi": 67,
          "name": "G4",
          "ticks": 331287,
          "time": 138.67240299902343,
          "velocity": 0.7952755905511811
        },
        {
          "duration": 0.42444713085939156,
          "durationTicks": 1014,
          "midi": 67,
          "name": "G4",
          "ticks": 331797,
          "time": 138.8858823251953,
          "velocity": 0.8188976377952756
        },
        {
          "duration": 0.42319137011716634,
          "durationTicks": 1011,
          "midi": 66,
          "name": "F#4",
          "ticks": 332812,
          "time": 139.31074804296875,
          "velocity": 0.8031496062992126
        },
        {
          "duration": 0.22645552050781248,
          "durationTicks": 541,
          "midi": 67,
          "name": "G4",
          "ticks": 333828,
          "time": 139.73603234765625,
          "velocity": 0.8346456692913385
        },
        {
          "duration": 0.21222356542966736,
          "durationTicks": 507,
          "midi": 67,
          "name": "G4",
          "ticks": 334370,
          "time": 139.96290645507813,
          "velocity": 0.7952755905511811
        },
        {
          "duration": 0.21096780468749898,
          "durationTicks": 504,
          "midi": 67,
          "name": "G4",
          "ticks": 334878,
          "time": 140.17554860742186,
          "velocity": 0.8031496062992126
        },
        {
          "duration": 0.20050313183594426,
          "durationTicks": 479,
          "midi": 67,
          "name": "G4",
          "ticks": 335383,
          "time": 140.38693499902342,
          "velocity": 0.7952755905511811
        },
        {
          "duration": 0.21096780468749898,
          "durationTicks": 504,
          "midi": 69,
          "name": "A4",
          "ticks": 336403,
          "time": 140.81389365136718,
          "velocity": 0.7952755905511811
        },
        {
          "duration": 0.42319137011719477,
          "durationTicks": 1011,
          "midi": 69,
          "name": "A4",
          "ticks": 336908,
          "time": 141.02528004296875,
          "velocity": 0.8031496062992126
        },
        {
          "duration": 0.22645552050781248,
          "durationTicks": 541,
          "midi": 67,
          "name": "G4",
          "ticks": 337924,
          "time": 141.45056434765624,
          "velocity": 0.8346456692913385
        },
        {
          "duration": 0.42360995703126036,
          "durationTicks": 1012,
          "midi": 67,
          "name": "G4",
          "ticks": 338466,
          "time": 141.67743845507812,
          "velocity": 0.7952755905511811
        },
        {
          "duration": 0.21306073925779856,
          "durationTicks": 509,
          "midi": 67,
          "name": "G4",
          "ticks": 339479,
          "time": 142.10146699902344,
          "velocity": 0.7952755905511811
        },
        {
          "duration": 0.42444713085936314,
          "durationTicks": 1014,
          "midi": 67,
          "name": "G4",
          "ticks": 339989,
          "time": 142.3149463251953,
          "velocity": 0.8188976377952756
        },
        {
          "duration": 0.42319137011719477,
          "durationTicks": 1011,
          "midi": 66,
          "name": "F#4",
          "ticks": 341004,
          "time": 142.73981204296874,
          "velocity": 0.8031496062992126
        },
        {
          "duration": 0.22645552050781248,
          "durationTicks": 541,
          "midi": 67,
          "name": "G4",
          "ticks": 342020,
          "time": 143.16509634765626,
          "velocity": 0.7401574803149606
        },
        {
          "duration": 0.21222356542969578,
          "durationTicks": 507,
          "midi": 67,
          "name": "G4",
          "ticks": 342562,
          "time": 143.3919704550781,
          "velocity": 0.7007874015748031
        },
        {
          "duration": 0.21096780468749898,
          "durationTicks": 504,
          "midi": 67,
          "name": "G4",
          "ticks": 343070,
          "time": 143.60461260742187,
          "velocity": 0.7086614173228346
        },
        {
          "duration": 0.22603693359374688,
          "durationTicks": 540,
          "midi": 67,
          "name": "G4",
          "ticks": 343575,
          "time": 143.81599899902344,
          "velocity": 0.7007874015748031
        },
        {
          "duration": 0.8480570878906235,
          "durationTicks": 2026,
          "midi": 66,
          "name": "F#4",
          "ticks": 344085,
          "time": 144.0294783251953,
          "velocity": 0.8188976377952756
        },
        {
          "duration": 0.22645552050781248,
          "durationTicks": 541,
          "midi": 60,
          "name": "C4",
          "ticks": 360452,
          "time": 150.88049034765623,
          "velocity": 0.7401574803149606
        },
        {
          "duration": 0.42360995703126036,
          "durationTicks": 1012,
          "midi": 60,
          "name": "C4",
          "ticks": 360994,
          "time": 151.1073644550781,
          "velocity": 0.7007874015748031
        },
        {
          "duration": 0.21306073925779856,
          "durationTicks": 509,
          "midi": 60,
          "name": "C4",
          "ticks": 362007,
          "time": 151.53139299902344,
          "velocity": 0.7007874015748031
        },
        {
          "duration": 0.42444713085939156,
          "durationTicks": 1014,
          "midi": 60,
          "name": "C4",
          "ticks": 362517,
          "time": 151.7448723251953,
          "velocity": 0.8188976377952756
        },
        {
          "duration": 0.42319137011719477,
          "durationTicks": 1011,
          "midi": 59,
          "name": "B3",
          "ticks": 363532,
          "time": 152.16973804296873,
          "velocity": 0.8031496062992126
        },
        {
          "duration": 0.22645552050781248,
          "durationTicks": 541,
          "midi": 60,
          "name": "C4",
          "ticks": 364548,
          "time": 152.59502234765625,
          "velocity": 0.8346456692913385
        },
        {
          "duration": 0.21222356542966736,
          "durationTicks": 507,
          "midi": 60,
          "name": "C4",
          "ticks": 365090,
          "time": 152.82189645507813,
          "velocity": 0.7952755905511811
        },
        {
          "duration": 0.21096780468749898,
          "durationTicks": 504,
          "midi": 60,
          "name": "C4",
          "ticks": 365598,
          "time": 153.03453860742187,
          "velocity": 0.8031496062992126
        },
        {
          "duration": 0.20050313183594426,
          "durationTicks": 479,
          "midi": 60,
          "name": "C4",
          "ticks": 366103,
          "time": 153.24592499902343,
          "velocity": 0.7952755905511811
        },
        {
          "duration": 0.21096780468749898,
          "durationTicks": 504,
          "midi": 62,
          "name": "D4",
          "ticks": 367123,
          "time": 153.6728836513672,
          "velocity": 0.7952755905511811
        },
        {
          "duration": 0.42319137011719477,
          "durationTicks": 1011,
          "midi": 62,
          "name": "D4",
          "ticks": 367628,
          "time": 153.88427004296875,
          "velocity": 0.8031496062992126
        },
        {
          "duration": 0.22645552050781248,
          "durationTicks": 541,
          "midi": 60,
          "name": "C4",
          "ticks": 368644,
          "time": 154.30955434765625,
          "velocity": 0.7401574803149606
        },
        {
          "duration": 0.42360995703126036,
          "durationTicks": 1012,
          "midi": 60,
          "name": "C4",
          "ticks": 369186,
          "time": 154.53642845507812,
          "velocity": 0.7007874015748031
        },
        {
          "duration": 0.21306073925782698,
          "durationTicks": 509,
          "midi": 60,
          "name": "C4",
          "ticks": 370199,
          "time": 154.96045699902342,
          "velocity": 0.7007874015748031
        },
        {
          "duration": 0.42444713085936314,
          "durationTicks": 1014,
          "midi": 60,
          "name": "C4",
          "ticks": 370709,
          "time": 155.1739363251953,
          "velocity": 0.8188976377952756
        },
        {
          "duration": 0.42319137011719477,
          "durationTicks": 1011,
          "midi": 59,
          "name": "B3",
          "ticks": 371724,
          "time": 155.59880204296874,
          "velocity": 0.8031496062992126
        },
        {
          "duration": 0.22645552050781248,
          "durationTicks": 541,
          "midi": 60,
          "name": "C4",
          "ticks": 372740,
          "time": 156.02408634765624,
          "velocity": 0.7401574803149606
        },
        {
          "duration": 0.21222356542969578,
          "durationTicks": 507,
          "midi": 60,
          "name": "C4",
          "ticks": 373282,
          "time": 156.25096045507811,
          "velocity": 0.7007874015748031
        },
        {
          "duration": 0.21096780468749898,
          "durationTicks": 504,
          "midi": 60,
          "name": "C4",
          "ticks": 373790,
          "time": 156.46360260742188,
          "velocity": 0.7086614173228346
        },
        {
          "duration": 0.22603693359374688,
          "durationTicks": 540,
          "midi": 60,
          "name": "C4",
          "ticks": 374295,
          "time": 156.67498899902344,
          "velocity": 0.7007874015748031
        },
        {
          "duration": 0.8480570878906235,
          "durationTicks": 2026,
          "midi": 59,
          "name": "B3",
          "ticks": 374805,
          "time": 156.8884683251953,
          "velocity": 0.8188976377952756
        }
      ],
      "endOfTrackTicks": 408063
    },
    {
      "channel": 2,
      "controlChanges": {
        "6": [
          {
            "number": 6,
            "ticks": 4,
            "time": 0.00167434765625,
            "value": 0.09448818897637795
          }
        ],
        "7": [
          {
            "number": 7,
            "ticks": 0,
            "time": 0,
            "value": 0.7874015748031497
          },
          {
            "number": 7,
            "ticks": 0,
            "time": 0,
            "value": 0.7401574803149606
          }
        ],
        "10": [
          {
            "number": 10,
            "ticks": 0,
            "time": 0,
            "value": 0.5039370078740157
          }
        ],
        "38": [
          {
            "number": 38,
            "ticks": 5,
            "time": 0.0020929345703124998,
            "value": 0
          }
        ],
        "100": [
          {
            "number": 100,
            "ticks": 3,
            "time": 0.0012557607421875,
            "value": 0
          }
        ],
        "101": [
          {
            "number": 101,
            "ticks": 3,
            "time": 0.0012557607421875,
            "value": 0
          }
        ]
      },
      "pitchBends": [],
      "instrument": {
        "family": "guitar",
        "number": 30,
        "name": "distortion guitar"
      },
      "name": "Electric Guitar",
      "notes": [
        {
          "duration": 0.2143165000000007,
          "durationTicks": 512,
          "midi": 71,
          "name": "B4",
          "ticks": 31232,
          "time": 13.0733065,
          "velocity": 0.5433070866141733
        },
        {
          "duration": 0.20720052246093879,
          "durationTicks": 495,
          "midi": 71,
          "name": "B4",
          "ticks": 37888,
          "time": 15.859421,
          "velocity": 0.5433070866141733
        },
        {
          "duration": 0.2143164999999989,
          "durationTicks": 512,
          "midi": 71,
          "name": "B4",
          "ticks": 45056,
          "time": 18.859852,
          "velocity": 0.5433070866141733
        },
        {
          "duration": 0.2143164999999989,
          "durationTicks": 512,
          "midi": 71,
          "name": "B4",
          "ticks": 58880,
          "time": 24.6463975,
          "velocity": 0.5433070866141733
        },
        {
          "duration": 0.207200522460937,
          "durationTicks": 495,
          "midi": 71,
          "name": "B4",
          "ticks": 65536,
          "time": 27.432512,
          "velocity": 0.5433070866141733
        },
        {
          "duration": 0.21431650000000246,
          "durationTicks": 512,
          "midi": 71,
          "name": "B4",
          "ticks": 72704,
          "time": 30.432942999999998,
          "velocity": 0.5433070866141733
        },
        {
          "duration": 0.207200522460937,
          "durationTicks": 495,
          "midi": 71,
          "name": "B4",
          "ticks": 79360,
          "time": 33.2190575,
          "velocity": 0.5433070866141733
        },
        {
          "duration": 0.21431650000000246,
          "durationTicks": 512,
          "midi": 71,
          "name": "B4",
          "ticks": 86528,
          "time": 36.2194885,
          "velocity": 0.5433070866141733
        },
        {
          "duration": 0.207200522460937,
          "durationTicks": 495,
          "midi": 71,
          "name": "B4",
          "ticks": 93184,
          "time": 39.005603,
          "velocity": 0.5433070866141733
        },
        {
          "duration": 0.21431650000000246,
          "durationTicks": 512,
          "midi": 71,
          "name": "B4",
          "ticks": 100352,
          "time": 42.006034,
          "velocity": 0.5433070866141733
        },
        {
          "duration": 0.207200522460937,
          "durationTicks": 495,
          "midi": 71,
          "name": "B4",
          "ticks": 107008,
          "time": 44.792148499999996,
          "velocity": 0.5433070866141733
        },
        {
          "duration": 0.21431650000000246,
          "durationTicks": 512,
          "midi": 71,
          "name": "B4",
          "ticks": 114176,
          "time": 47.792579499999995,
          "velocity": 0.5433070866141733
        },
        {
          "duration": 0.207200522460937,
          "durationTicks": 495,
          "midi": 71,
          "name": "B4",
          "ticks": 120832,
          "time": 50.578694,
          "velocity": 0.5433070866141733
        },
        {
          "duration": 0.21431650000000246,
          "durationTicks": 512,
          "midi": 71,
          "name": "B4",
          "ticks": 128000,
          "time": 53.579125,
          "velocity": 0.5433070866141733
        },
        {
          "duration": 0.207200522460937,
          "durationTicks": 495,
          "midi": 71,
          "name": "B4",
          "ticks": 134656,
          "time": 56.3652395,
          "velocity": 0.5433070866141733
        },
        {
          "duration": 0.207200522460937,
          "durationTicks": 495,
          "midi": 67,
          "name": "G4",
          "ticks": 138240,
          "time": 57.865455,
          "velocity": 0.5433070866141733
        },
        {
          "duration": 0.1954800888671855,
          "durationTicks": 467,
          "midi": 64,
          "name": "E4",
          "ticks": 138766,
          "time": 58.085631716796875,
          "velocity": 0.5039370078740157
        },
        {
          "duration": 0.20720052246094411,
          "durationTicks": 495,
          "midi": 69,
          "name": "A4",
          "ticks": 139264,
          "time": 58.294087999999995,
          "velocity": 0.5118110236220472
        },
        {
          "duration": 0.1954800888671855,
          "durationTicks": 467,
          "midi": 64,
          "name": "E4",
          "ticks": 139790,
          "time": 58.51426471679687,
          "velocity": 0.5039370078740157
        },
        {
          "duration": 0.21180497851562308,
          "durationTicks": 506,
          "midi": 66,
          "name": "F#4",
          "ticks": 140288,
          "time": 58.722721,
          "velocity": 0.5118110236220472
        },
        {
          "duration": 0.1921313935546891,
          "durationTicks": 459,
          "midi": 67,
          "name": "G4",
          "ticks": 140825,
          "time": 58.94750217285156,
          "velocity": 0.5039370078740157
        },
        {
          "duration": 0.20008454492187155,
          "durationTicks": 478,
          "midi": 64,
          "name": "E4",
          "ticks": 141315,
          "time": 59.15260976074219,
          "velocity": 0.5039370078740157
        },
        {
          "duration": 0.21431649999999536,
          "durationTicks": 512,
          "midi": 71,
          "name": "B4",
          "ticks": 141824,
          "time": 59.3656705,
          "velocity": 0.5433070866141733
        },
        {
          "duration": 0.19757302343749927,
          "durationTicks": 472,
          "midi": 69,
          "name": "A4",
          "ticks": 142367,
          "time": 59.59296319433594,
          "velocity": 0.5039370078740157
        },
        {
          "duration": 0.20175889257812685,
          "durationTicks": 482,
          "midi": 67,
          "name": "G4",
          "ticks": 142870,
          "time": 59.80351241210937,
          "velocity": 0.5039370078740157
        },
        {
          "duration": 0.20050313183593715,
          "durationTicks": 479,
          "midi": 66,
          "name": "F#4",
          "ticks": 143383,
          "time": 60.01824749902344,
          "velocity": 0.5039370078740157
        },
        {
          "duration": 0.1929685673828132,
          "durationTicks": 461,
          "midi": 64,
          "name": "E4",
          "ticks": 143893,
          "time": 60.23172682519531,
          "velocity": 0.5039370078740157
        },
        {
          "duration": 0.20092171874999565,
          "durationTicks": 480,
          "midi": 62,
          "name": "D4",
          "ticks": 144385,
          "time": 60.437671586914064,
          "velocity": 0.5039370078740157
        },
        {
          "duration": 0.207200522460937,
          "durationTicks": 495,
          "midi": 67,
          "name": "G4",
          "ticks": 144896,
          "time": 60.6515695,
          "velocity": 0.5433070866141733
        },
        {
          "duration": 0.1954800888671855,
          "durationTicks": 467,
          "midi": 64,
          "name": "E4",
          "ticks": 145422,
          "time": 60.87174621679687,
          "velocity": 0.5039370078740157
        },
        {
          "duration": 0.207200522460937,
          "durationTicks": 495,
          "midi": 69,
          "name": "A4",
          "ticks": 145920,
          "time": 61.0802025,
          "velocity": 0.5118110236220472
        },
        {
          "duration": 0.1954800888671926,
          "durationTicks": 467,
          "midi": 64,
          "name": "E4",
          "ticks": 146446,
          "time": 61.30037921679687,
          "velocity": 0.5039370078740157
        },
        {
          "duration": 0.21180497851562308,
          "durationTicks": 506,
          "midi": 66,
          "name": "F#4",
          "ticks": 146944,
          "time": 61.508835499999996,
          "velocity": 0.5118110236220472
        },
        {
          "duration": 0.1921313935546891,
          "durationTicks": 459,
          "midi": 67,
          "name": "G4",
          "ticks": 147481,
          "time": 61.73361667285156,
          "velocity": 0.5039370078740157
        },
        {
          "duration": 0.20008454492187866,
          "durationTicks": 478,
          "midi": 64,
          "name": "E4",
          "ticks": 147971,
          "time": 61.938724260742184,
          "velocity": 0.5039370078740157
        },
        {
          "duration": 0.207200522460937,
          "durationTicks": 495,
          "midi": 71,
          "name": "B4",
          "ticks": 148480,
          "time": 62.151785,
          "velocity": 0.5433070866141733
        },
        {
          "duration": 0.1954800888671855,
          "durationTicks": 467,
          "midi": 69,
          "name": "A4",
          "ticks": 149006,
          "time": 62.371961716796875,
          "velocity": 0.5039370078740157
        },
        {
          "duration": 0.20720052246094411,
          "durationTicks": 495,
          "midi": 67,
          "name": "G4",
          "ticks": 149504,
          "time": 62.580417999999995,
          "velocity": 0.5118110236220472
        },
        {
          "duration": 0.1954800888671855,
          "durationTicks": 467,
          "midi": 66,
          "name": "F#4",
          "ticks": 150030,
          "time": 62.80059471679687,
          "velocity": 0.5039370078740157
        },
        {
          "duration": 0.21180497851562308,
          "durationTicks": 506,
          "midi": 64,
          "name": "E4",
          "ticks": 150528,
          "time": 63.009051,
          "velocity": 0.5118110236220472
        },
        {
          "duration": 0.192131393554682,
          "durationTicks": 459,
          "midi": 62,
          "name": "D4",
          "ticks": 151065,
          "time": 63.233832172851564,
          "velocity": 0.5039370078740157
        },
        {
          "duration": 0.20008454492187155,
          "durationTicks": 478,
          "midi": 64,
          "name": "E4",
          "ticks": 151555,
          "time": 63.43893976074219,
          "velocity": 0.5039370078740157
        },
        {
          "duration": 0.207200522460937,
          "durationTicks": 495,
          "midi": 67,
          "name": "G4",
          "ticks": 152064,
          "time": 63.6520005,
          "velocity": 0.5433070866141733
        },
        {
          "duration": 0.1954800888671855,
          "durationTicks": 467,
          "midi": 64,
          "name": "E4",
          "ticks": 152590,
          "time": 63.87217721679687,
          "velocity": 0.5039370078740157
        },
        {
          "duration": 0.207200522460937,
          "durationTicks": 495,
          "midi": 69,
          "name": "A4",
          "ticks": 153088,
          "time": 64.0806335,
          "velocity": 0.5118110236220472
        },
        {
          "duration": 0.1954800888671855,
          "durationTicks": 467,
          "midi": 64,
          "name": "E4",
          "ticks": 153614,
          "time": 64.30081021679688,
          "velocity": 0.5039370078740157
        },
        {
          "duration": 0.21180497851563018,
          "durationTicks": 506,
          "midi": 66,
          "name": "F#4",
          "ticks": 154112,
          "time": 64.5092665,
          "velocity": 0.5118110236220472
        },
        {
          "duration": 0.1921313935546891,
          "durationTicks": 459,
          "midi": 67,
          "name": "G4",
          "ticks": 154649,
          "time": 64.73404767285156,
          "velocity": 0.5039370078740157
        },
        {
          "duration": 0.20008454492187866,
          "durationTicks": 478,
          "midi": 64,
          "name": "E4",
          "ticks": 155139,
          "time": 64.93915526074218,
          "velocity": 0.5039370078740157
        },
        {
          "duration": 0.21431649999999536,
          "durationTicks": 512,
          "midi": 71,
          "name": "B4",
          "ticks": 155648,
          "time": 65.152216,
          "velocity": 0.5433070866141733
        },
        {
          "duration": 0.19757302343749927,
          "durationTicks": 472,
          "midi": 69,
          "name": "A4",
          "ticks": 156191,
          "time": 65.37950869433594,
          "velocity": 0.5039370078740157
        },
        {
          "duration": 0.20175889257812685,
          "durationTicks": 482,
          "midi": 67,
          "name": "G4",
          "ticks": 156694,
          "time": 65.59005791210937,
          "velocity": 0.5039370078740157
        },
        {
          "duration": 0.20050313183594426,
          "durationTicks": 479,
          "midi": 66,
          "name": "F#4",
          "ticks": 157207,
          "time": 65.80479299902343,
          "velocity": 0.5039370078740157
        },
        {
          "duration": 0.1929685673828061,
          "durationTicks": 461,
          "midi": 64,
          "name": "E4",
          "ticks": 157717,
          "time": 66.01827232519531,
          "velocity": 0.5039370078740157
        },
        {
          "duration": 0.20092171874999565,
          "durationTicks": 480,
          "midi": 62,
          "name": "D4",
          "ticks": 158209,
          "time": 66.22421708691407,
          "velocity": 0.5039370078740157
        },
        {
          "duration": 0.207200522460937,
          "durationTicks": 495,
          "midi": 67,
          "name": "G4",
          "ticks": 158720,
          "time": 66.438115,
          "velocity": 0.5433070866141733
        },
        {
          "duration": 0.1954800888671997,
          "durationTicks": 467,
          "midi": 64,
          "name": "E4",
          "ticks": 159246,
          "time": 66.65829171679687,
          "velocity": 0.5039370078740157
        },
        {
          "duration": 0.207200522460937,
          "durationTicks": 495,
          "midi": 69,
          "name": "A4",
          "ticks": 159744,
          "time": 66.866748,
          "velocity": 0.5118110236220472
        },
        {
          "duration": 0.1954800888671855,
          "durationTicks": 467,
          "midi": 64,
          "name": "E4",
          "ticks": 160270,
          "time": 67.08692471679687,
          "velocity": 0.5039370078740157
        },
        {
          "duration": 0.21180497851563018,
          "durationTicks": 506,
          "midi": 66,
          "name": "F#4",
          "ticks": 160768,
          "time": 67.29538099999999,
          "velocity": 0.5118110236220472
        },
        {
          "duration": 0.1921313935546891,
          "durationTicks": 459,
          "midi": 67,
          "name": "G4",
          "ticks": 161305,
          "time": 67.52016217285156,
          "velocity": 0.5039370078740157
        },
        {
          "duration": 0.20008454492187866,
          "durationTicks": 478,
          "midi": 64,
          "name": "E4",
          "ticks": 161795,
          "time": 67.72526976074218,
          "velocity": 0.5039370078740157
        },
        {
          "duration": 0.207200522460937,
          "durationTicks": 495,
          "midi": 71,
          "name": "B4",
          "ticks": 162304,
          "time": 67.93833049999999,
          "velocity": 0.5433070866141733
        },
        {
          "duration": 0.1954800888671855,
          "durationTicks": 467,
          "midi": 69,
          "name": "A4",
          "ticks": 162830,
          "time": 68.15850721679688,
          "velocity": 0.5039370078740157
        },
        {
          "duration": 0.207200522460937,
          "durationTicks": 495,
          "midi": 67,
          "name": "G4",
          "ticks": 163328,
          "time": 68.3669635,
          "velocity": 0.5118110236220472
        },
        {
          "duration": 0.1954800888671855,
          "durationTicks": 467,
          "midi": 66,
          "name": "F#4",
          "ticks": 163854,
          "time": 68.58714021679687,
          "velocity": 0.5039370078740157
        },
        {
          "duration": 0.21180497851561597,
          "durationTicks": 506,
          "midi": 64,
          "name": "E4",
          "ticks": 164352,
          "time": 68.7955965,
          "velocity": 0.5118110236220472
        },
        {
          "duration": 0.1921313935546749,
          "durationTicks": 459,
          "midi": 62,
          "name": "D4",
          "ticks": 164889,
          "time": 69.02037767285157,
          "velocity": 0.5039370078740157
        },
        {
          "duration": 0.20008454492186445,
          "durationTicks": 478,
          "midi": 64,
          "name": "E4",
          "ticks": 165379,
          "time": 69.22548526074219,
          "velocity": 0.5039370078740157
        },
        {
          "duration": 0.22645552050781248,
          "durationTicks": 541,
          "midi": 67,
          "name": "G4",
          "ticks": 165892,
          "time": 69.44022034765625,
          "velocity": 0.8346456692913385
        },
        {
          "duration": 0.42360995703124615,
          "durationTicks": 1012,
          "midi": 67,
          "name": "G4",
          "ticks": 166434,
          "time": 69.66709445507813,
          "velocity": 0.7952755905511811
        },
        {
          "duration": 0.21306073925781277,
          "durationTicks": 509,
          "midi": 67,
          "name": "G4",
          "ticks": 167447,
          "time": 70.09112299902344,
          "velocity": 0.7952755905511811
        },
        {
          "duration": 0.42444713085937735,
          "durationTicks": 1014,
          "midi": 67,
          "name": "G4",
          "ticks": 167957,
          "time": 70.3046023251953,
          "velocity": 0.8188976377952756
        },
        {
          "duration": 0.42319137011719477,
          "durationTicks": 1011,
          "midi": 66,
          "name": "F#4",
          "ticks": 168972,
          "time": 70.72946804296875,
          "velocity": 0.8031496062992126
        },
        {
          "duration": 0.22645552050781248,
          "durationTicks": 541,
          "midi": 67,
          "name": "G4",
          "ticks": 169988,
          "time": 71.15475234765624,
          "velocity": 0.7401574803149606
        },
        {
          "duration": 0.21222356542969578,
          "durationTicks": 507,
          "midi": 67,
          "name": "G4",
          "ticks": 170530,
          "time": 71.38162645507812,
          "velocity": 0.7007874015748031
        },
        {
          "duration": 0.21096780468749898,
          "durationTicks": 504,
          "midi": 67,
          "name": "G4",
          "ticks": 171038,
          "time": 71.59426860742187,
          "velocity": 0.7086614173228346
        },
        {
          "duration": 0.22603693359374688,
          "durationTicks": 540,
          "midi": 67,
          "name": "G4",
          "ticks": 171543,
          "time": 71.80565499902343,
          "velocity": 0.7007874015748031
        },
        {
          "duration": 0.2239439990234331,
          "durationTicks": 535,
          "midi": 67,
          "name": "G4",
          "ticks": 172563,
          "time": 72.23261365136719,
          "velocity": 0.7007874015748031
        },
        {
          "duration": 0.42319137011718055,
          "durationTicks": 1011,
          "midi": 66,
          "name": "F#4",
          "ticks": 173068,
          "time": 72.44400004296875,
          "velocity": 0.8031496062992126
        },
        {
          "duration": 0.22645552050781248,
          "durationTicks": 541,
          "midi": 67,
          "name": "G4",
          "ticks": 174084,
          "time": 72.86928434765625,
          "velocity": 0.8346456692913385
        },
        {
          "duration": 0.42360995703124615,
          "durationTicks": 1012,
          "midi": 67,
          "name": "G4",
          "ticks": 174626,
          "time": 73.09615845507813,
          "velocity": 0.7952755905511811
        },
        {
          "duration": 0.21306073925781277,
          "durationTicks": 509,
          "midi": 67,
          "name": "G4",
          "ticks": 175639,
          "time": 73.52018699902344,
          "velocity": 0.7952755905511811
        },
        {
          "duration": 0.42444713085936314,
          "durationTicks": 1014,
          "midi": 67,
          "name": "G4",
          "ticks": 176149,
          "time": 73.73366632519532,
          "velocity": 0.8188976377952756
        },
        {
          "duration": 0.42319137011719477,
          "durationTicks": 1011,
          "midi": 66,
          "name": "F#4",
          "ticks": 177164,
          "time": 74.15853204296874,
          "velocity": 0.8031496062992126
        },
        {
          "duration": 0.22645552050781248,
          "durationTicks": 541,
          "midi": 67,
          "name": "G4",
          "ticks": 178180,
          "time": 74.58381634765625,
          "velocity": 0.7401574803149606
        },
        {
          "duration": 0.21222356542969578,
          "durationTicks": 507,
          "midi": 67,
          "name": "G4",
          "ticks": 178722,
          "time": 74.81069045507812,
          "velocity": 0.7007874015748031
        },
        {
          "duration": 0.21096780468749898,
          "durationTicks": 504,
          "midi": 67,
          "name": "G4",
          "ticks": 179230,
          "time": 75.02333260742188,
          "velocity": 0.7086614173228346
        },
        {
          "duration": 0.2260369335937611,
          "durationTicks": 540,
          "midi": 67,
          "name": "G4",
          "ticks": 179735,
          "time": 75.23471899902343,
          "velocity": 0.7007874015748031
        },
        {
          "duration": 0.8480570878906235,
          "durationTicks": 2026,
          "midi": 69,
          "name": "A4",
          "ticks": 180245,
          "time": 75.4481983251953,
          "velocity": 0.8188976377952756
        },
        {
          "duration": 0.207200522460937,
          "durationTicks": 495,
          "midi": 65,
          "name": "F4",
          "ticks": 182272,
          "time": 76.296674,
          "velocity": 0.8346456692913385
        },
        {
          "duration": 0.1954800888671997,
          "durationTicks": 467,
          "midi": 62,
          "name": "D4",
          "ticks": 182798,
          "time": 76.51685071679687,
          "velocity": 0.7952755905511811
        },
        {
          "duration": 0.207200522460937,
          "durationTicks": 495,
          "midi": 67,
          "name": "G4",
          "ticks": 183296,
          "time": 76.725307,
          "velocity": 0.8031496062992126
        },
        {
          "duration": 0.1954800888671855,
          "durationTicks": 467,
          "midi": 62,
          "name": "D4",
          "ticks": 183822,
          "time": 76.94548371679687,
          "velocity": 0.7952755905511811
        },
        {
          "duration": 0.21180497851563018,
          "durationTicks": 506,
          "midi": 64,
          "name": "E4",
          "ticks": 184320,
          "time": 77.15393999999999,
          "velocity": 0.8031496062992126
        },
        {
          "duration": 0.1921313935546891,
          "durationTicks": 459,
          "midi": 65,
          "name": "F4",
          "ticks": 184857,
          "time": 77.37872117285156,
          "velocity": 0.7952755905511811
        },
        {
          "duration": 0.20008454492187866,
          "durationTicks": 478,
          "midi": 62,
          "name": "D4",
          "ticks": 185347,
          "time": 77.58382876074218,
          "velocity": 0.7952755905511811
        },
        {
          "duration": 0.207200522460937,
          "durationTicks": 495,
          "midi": 69,
          "name": "A4",
          "ticks": 185856,
          "time": 77.79688949999999,
          "velocity": 0.8346456692913385
        },
        {
          "duration": 0.1954800888671855,
          "durationTicks": 467,
          "midi": 67,
          "name": "G4",
          "ticks": 186382,
          "time": 78.01706621679688,
          "velocity": 0.7952755905511811
        },
        {
          "duration": 0.207200522460937,
          "durationTicks": 495,
          "midi": 65,
          "name": "F4",
          "ticks": 186880,
          "time": 78.2255225,
          "velocity": 0.8031496062992126
        },
        {
          "duration": 0.1954800888671855,
          "durationTicks": 467,
          "midi": 64,
          "name": "E4",
          "ticks": 187406,
          "time": 78.44569921679687,
          "velocity": 0.7952755905511811
        },
        {
          "duration": 0.21180497851561597,
          "durationTicks": 506,
          "midi": 62,
          "name": "D4",
          "ticks": 187904,
          "time": 78.6541555,
          "velocity": 0.8031496062992126
        },
        {
          "duration": 0.1921313935546749,
          "durationTicks": 459,
          "midi": 60,
          "name": "C4",
          "ticks": 188441,
          "time": 78.87893667285157,
          "velocity": 0.7952755905511811
        },
        {
          "duration": 0.20008454492186445,
          "durationTicks": 478,
          "midi": 62,
          "name": "D4",
          "ticks": 188931,
          "time": 79.08404426074219,
          "velocity": 0.7952755905511811
        },
        {
          "duration": 0.207200522460937,
          "durationTicks": 495,
          "midi": 65,
          "name": "F4",
          "ticks": 189440,
          "time": 79.297105,
          "velocity": 0.8346456692913385
        },
        {
          "duration": 0.1954800888671855,
          "durationTicks": 467,
          "midi": 62,
          "name": "D4",
          "ticks": 189966,
          "time": 79.51728171679687,
          "velocity": 0.7952755905511811
        },
        {
          "duration": 0.207200522460937,
          "durationTicks": 495,
          "midi": 67,
          "name": "G4",
          "ticks": 190464,
          "time": 79.72573799999999,
          "velocity": 0.8031496062992126
        },
        {
          "duration": 0.1954800888671855,
          "durationTicks": 467,
          "midi": 62,
          "name": "D4",
          "ticks": 190990,
          "time": 79.94591471679688,
          "velocity": 0.7952755905511811
        },
        {
          "duration": 0.21180497851563018,
          "durationTicks": 506,
          "midi": 64,
          "name": "E4",
          "ticks": 191488,
          "time": 80.154371,
          "velocity": 0.8031496062992126
        },
        {
          "duration": 0.1921313935546891,
          "durationTicks": 459,
          "midi": 65,
          "name": "F4",
          "ticks": 192025,
          "time": 80.37915217285156,
          "velocity": 0.7952755905511811
        },
        {
          "duration": 0.20008454492187866,
          "durationTicks": 478,
          "midi": 62,
          "name": "D4",
          "ticks": 192515,
          "time": 80.58425976074219,
          "velocity": 0.7952755905511811
        },
        {
          "duration": 0.207200522460937,
          "durationTicks": 495,
          "midi": 69,
          "name": "A4",
          "ticks": 193024,
          "time": 80.7973205,
          "velocity": 0.8346456692913385
        },
        {
          "duration": 0.1954800888671855,
          "durationTicks": 467,
          "midi": 67,
          "name": "G4",
          "ticks": 193550,
          "time": 81.01749721679687,
          "velocity": 0.7952755905511811
        },
        {
          "duration": 0.207200522460937,
          "durationTicks": 495,
          "midi": 65,
          "name": "F4",
          "ticks": 194048,
          "time": 81.2259535,
          "velocity": 0.8031496062992126
        },
        {
          "duration": 0.1954800888671855,
          "durationTicks": 467,
          "midi": 64,
          "name": "E4",
          "ticks": 194574,
          "time": 81.44613021679687,
          "velocity": 0.7952755905511811
        },
        {
          "duration": 0.21180497851563018,
          "durationTicks": 506,
          "midi": 62,
          "name": "D4",
          "ticks": 195072,
          "time": 81.6545865,
          "velocity": 0.8031496062992126
        },
        {
          "duration": 0.1921313935546891,
          "durationTicks": 459,
          "midi": 60,
          "name": "C4",
          "ticks": 195609,
          "time": 81.87936767285156,
          "velocity": 0.7952755905511811
        },
        {
          "duration": 0.20008454492187866,
          "durationTicks": 478,
          "midi": 62,
          "name": "D4",
          "ticks": 196099,
          "time": 82.08447526074218,
          "velocity": 0.7952755905511811
        },
        {
          "duration": 0.22645552050781248,
          "durationTicks": 541,
          "midi": 67,
          "name": "G4",
          "ticks": 196612,
          "time": 82.29921034765624,
          "velocity": 0.8346456692913385
        },
        {
          "duration": 0.42360995703124615,
          "durationTicks": 1012,
          "midi": 67,
          "name": "G4",
          "ticks": 197154,
          "time": 82.52608445507812,
          "velocity": 0.7952755905511811
        },
        {
          "duration": 0.21306073925781277,
          "durationTicks": 509,
          "midi": 67,
          "name": "G4",
          "ticks": 198167,
          "time": 82.95011299902343,
          "velocity": 0.7952755905511811
        },
        {
          "duration": 0.42444713085937735,
          "durationTicks": 1014,
          "midi": 67,
          "name": "G4",
          "ticks": 198677,
          "time": 83.16359232519531,
          "velocity": 0.8188976377952756
        },
        {
          "duration": 0.42319137011718055,
          "durationTicks": 1011,
          "midi": 66,
          "name": "F#4",
          "ticks": 199692,
          "time": 83.58845804296875,
          "velocity": 0.8031496062992126
        },
        {
          "duration": 0.22645552050781248,
          "durationTicks": 541,
          "midi": 67,
          "name": "G4",
          "ticks": 200708,
          "time": 84.01374234765625,
          "velocity": 0.8346456692913385
        },
        {
          "duration": 0.21222356542968157,
          "durationTicks": 507,
          "midi": 67,
          "name": "G4",
          "ticks": 201250,
          "time": 84.24061645507813,
          "velocity": 0.7952755905511811
        },
        {
          "duration": 0.21096780468749898,
          "durationTicks": 504,
          "midi": 67,
          "name": "G4",
          "ticks": 201758,
          "time": 84.45325860742187,
          "velocity": 0.8031496062992126
        },
        {
          "duration": 0.20050313183593005,
          "durationTicks": 479,
          "midi": 67,
          "name": "G4",
          "ticks": 202263,
          "time": 84.66464499902344,
          "velocity": 0.7952755905511811
        },
        {
          "duration": 0.21096780468749898,
          "durationTicks": 504,
          "midi": 69,
          "name": "A4",
          "ticks": 203283,
          "time": 85.09160365136718,
          "velocity": 0.7952755905511811
        },
        {
          "duration": 0.42319137011719477,
          "durationTicks": 1011,
          "midi": 69,
          "name": "A4",
          "ticks": 203788,
          "time": 85.30299004296874,
          "velocity": 0.8031496062992126
        },
        {
          "duration": 0.22645552050781248,
          "durationTicks": 541,
          "midi": 67,
          "name": "G4",
          "ticks": 204804,
          "time": 85.72827434765625,
          "velocity": 0.8346456692913385
        },
        {
          "duration": 0.42360995703126036,
          "durationTicks": 1012,
          "midi": 67,
          "name": "G4",
          "ticks": 205346,
          "time": 85.95514845507812,
          "velocity": 0.7952755905511811
        },
        {
          "duration": 0.21306073925781277,
          "durationTicks": 509,
          "midi": 67,
          "name": "G4",
          "ticks": 206359,
          "time": 86.37917699902343,
          "velocity": 0.7952755905511811
        },
        {
          "duration": 0.42444713085937735,
          "durationTicks": 1014,
          "midi": 67,
          "name": "G4",
          "ticks": 206869,
          "time": 86.5926563251953,
          "velocity": 0.8188976377952756
        },
        {
          "duration": 0.42319137011718055,
          "durationTicks": 1011,
          "midi": 66,
          "name": "F#4",
          "ticks": 207884,
          "time": 87.01752204296875,
          "velocity": 0.8031496062992126
        },
        {
          "duration": 0.22645552050781248,
          "durationTicks": 541,
          "midi": 67,
          "name": "G4",
          "ticks": 208900,
          "time": 87.44280634765624,
          "velocity": 0.7401574803149606
        },
        {
          "duration": 0.21222356542968157,
          "durationTicks": 507,
          "midi": 67,
          "name": "G4",
          "ticks": 209442,
          "time": 87.66968045507812,
          "velocity": 0.7007874015748031
        },
        {
          "duration": 0.21096780468749898,
          "durationTicks": 504,
          "midi": 67,
          "name": "G4",
          "ticks": 209950,
          "time": 87.88232260742187,
          "velocity": 0.7086614173228346
        },
        {
          "duration": 0.22603693359374688,
          "durationTicks": 540,
          "midi": 67,
          "name": "G4",
          "ticks": 210455,
          "time": 88.09370899902343,
          "velocity": 0.7007874015748031
        },
        {
          "duration": 0.8480570878906235,
          "durationTicks": 2026,
          "midi": 66,
          "name": "F#4",
          "ticks": 210965,
          "time": 88.30718832519531,
          "velocity": 0.8188976377952756
        },
        {
          "duration": 0.207200522460937,
          "durationTicks": 495,
          "midi": 65,
          "name": "F4",
          "ticks": 212992,
          "time": 89.155664,
          "velocity": 0.8346456692913385
        },
        {
          "duration": 0.1954800888671855,
          "durationTicks": 467,
          "midi": 62,
          "name": "D4",
          "ticks": 213518,
          "time": 89.37584071679687,
          "velocity": 0.7952755905511811
        },
        {
          "duration": 0.207200522460937,
          "durationTicks": 495,
          "midi": 67,
          "name": "G4",
          "ticks": 214016,
          "time": 89.58429699999999,
          "velocity": 0.8031496062992126
        },
        {
          "duration": 0.1954800888671855,
          "durationTicks": 467,
          "midi": 62,
          "name": "D4",
          "ticks": 214542,
          "time": 89.80447371679688,
          "velocity": 0.7952755905511811
        },
        {
          "duration": 0.21180497851563018,
          "durationTicks": 506,
          "midi": 64,
          "name": "E4",
          "ticks": 215040,
          "time": 90.01293,
          "velocity": 0.8031496062992126
        },
        {
          "duration": 0.1921313935546891,
          "durationTicks": 459,
          "midi": 65,
          "name": "F4",
          "ticks": 215577,
          "time": 90.23771117285156,
          "velocity": 0.7952755905511811
        },
        {
          "duration": 0.20008454492187866,
          "durationTicks": 478,
          "midi": 62,
          "name": "D4",
          "ticks": 216067,
          "time": 90.44281876074218,
          "velocity": 0.7952755905511811
        },
        {
          "duration": 0.207200522460937,
          "durationTicks": 495,
          "midi": 69,
          "name": "A4",
          "ticks": 216576,
          "time": 90.6558795,
          "velocity": 0.8346456692913385
        },
        {
          "duration": 0.1954800888671855,
          "durationTicks": 467,
          "midi": 67,
          "name": "G4",
          "ticks": 217102,
          "time": 90.87605621679687,
          "velocity": 0.7952755905511811
        },
        {
          "duration": 0.207200522460937,
          "durationTicks": 495,
          "midi": 65,
          "name": "F4",
          "ticks": 217600,
          "time": 91.0845125,
          "velocity": 0.8031496062992126
        },
        {
          "duration": 0.1954800888671855,
          "durationTicks": 467,
          "midi": 64,
          "name": "E4",
          "ticks": 218126,
          "time": 91.30468921679687,
          "velocity": 0.7952755905511811
        },
        {
          "duration": 0.21180497851563018,
          "durationTicks": 506,
          "midi": 62,
          "name": "D4",
          "ticks": 218624,
          "time": 91.5131455,
          "velocity": 0.8031496062992126
        },
        {
          "duration": 0.1921313935546891,
          "durationTicks": 459,
          "midi": 60,
          "name": "C4",
          "ticks": 219161,
          "time": 91.73792667285156,
          "velocity": 0.7952755905511811
        },
        {
          "duration": 0.20008454492187866,
          "durationTicks": 478,
          "midi": 62,
          "name": "D4",
          "ticks": 219651,
          "time": 91.94303426074218,
          "velocity": 0.7952755905511811
        },
        {
          "duration": 0.207200522460937,
          "durationTicks": 495,
          "midi": 65,
          "name": "F4",
          "ticks": 220160,
          "time": 92.156095,
          "velocity": 0.8346456692913385
        },
        {
          "duration": 0.1954800888671855,
          "durationTicks": 467,
          "midi": 62,
          "name": "D4",
          "ticks": 220686,
          "time": 92.37627171679688,
          "velocity": 0.7952755905511811
        },
        {
          "duration": 0.207200522460937,
          "durationTicks": 495,
          "midi": 67,
          "name": "G4",
          "ticks": 221184,
          "time": 92.584728,
          "velocity": 0.8031496062992126
        },
        {
          "duration": 0.1954800888671855,
          "durationTicks": 467,
          "midi": 62,
          "name": "D4",
          "ticks": 221710,
          "time": 92.80490471679687,
          "velocity": 0.7952755905511811
        },
        {
          "duration": 0.21180497851561597,
          "durationTicks": 506,
          "midi": 64,
          "name": "E4",
          "ticks": 222208,
          "time": 93.013361,
          "velocity": 0.8031496062992126
        },
        {
          "duration": 0.1921313935546891,
          "durationTicks": 459,
          "midi": 65,
          "name": "F4",
          "ticks": 222745,
          "time": 93.23814217285155,
          "velocity": 0.7952755905511811
        },
        {
          "duration": 0.20008454492186445,
          "durationTicks": 478,
          "midi": 62,
          "name": "D4",
          "ticks": 223235,
          "time": 93.44324976074219,
          "velocity": 0.7952755905511811
        },
        {
          "duration": 0.207200522460937,
          "durationTicks": 495,
          "midi": 69,
          "name": "A4",
          "ticks": 223744,
          "time": 93.6563105,
          "velocity": 0.8346456692913385
        },
        {
          "duration": 0.1954800888671855,
          "durationTicks": 467,
          "midi": 67,
          "name": "G4",
          "ticks": 224270,
          "time": 93.87648721679687,
          "velocity": 0.7952755905511811
        },
        {
          "duration": 0.207200522460937,
          "durationTicks": 495,
          "midi": 65,
          "name": "F4",
          "ticks": 224768,
          "time": 94.0849435,
          "velocity": 0.8031496062992126
        },
        {
          "duration": 0.1954800888671997,
          "durationTicks": 467,
          "midi": 64,
          "name": "E4",
          "ticks": 225294,
          "time": 94.30512021679687,
          "velocity": 0.7952755905511811
        },
        {
          "duration": 0.21180497851561597,
          "durationTicks": 506,
          "midi": 62,
          "name": "D4",
          "ticks": 225792,
          "time": 94.5135765,
          "velocity": 0.8031496062992126
        },
        {
          "duration": 0.1921313935546891,
          "durationTicks": 459,
          "midi": 60,
          "name": "C4",
          "ticks": 226329,
          "time": 94.73835767285156,
          "velocity": 0.7952755905511811
        },
        {
          "duration": 0.20008454492187866,
          "durationTicks": 478,
          "midi": 62,
          "name": "D4",
          "ticks": 226819,
          "time": 94.94346526074219,
          "velocity": 0.7952755905511811
        },
        {
          "duration": 0.22645552050781248,
          "durationTicks": 541,
          "midi": 60,
          "name": "C4",
          "ticks": 227332,
          "time": 95.15820034765625,
          "velocity": 0.8346456692913385
        },
        {
          "duration": 0.42360995703124615,
          "durationTicks": 1012,
          "midi": 60,
          "name": "C4",
          "ticks": 227874,
          "time": 95.38507445507813,
          "velocity": 0.7952755905511811
        },
        {
          "duration": 0.21306073925781277,
          "durationTicks": 509,
          "midi": 60,
          "name": "C4",
          "ticks": 228887,
          "time": 95.80910299902344,
          "velocity": 0.7952755905511811
        },
        {
          "duration": 0.42444713085936314,
          "durationTicks": 1014,
          "midi": 60,
          "name": "C4",
          "ticks": 229397,
          "time": 96.02258232519532,
          "velocity": 0.8188976377952756
        },
        {
          "duration": 0.42319137011719477,
          "durationTicks": 1011,
          "midi": 59,
          "name": "B3",
          "ticks": 230412,
          "time": 96.44744804296874,
          "velocity": 0.8031496062992126
        },
        {
          "duration": 0.22645552050781248,
          "durationTicks": 541,
          "midi": 60,
          "name": "C4",
          "ticks": 231428,
          "time": 96.87273234765625,
          "velocity": 0.8346456692913385
        },
        {
          "duration": 0.21222356542969578,
          "durationTicks": 507,
          "midi": 60,
          "name": "C4",
          "ticks": 231970,
          "time": 97.09960645507812,
          "velocity": 0.7952755905511811
        },
        {
          "duration": 0.21096780468749898,
          "durationTicks": 504,
          "midi": 60,
          "name": "C4",
          "ticks": 232478,
          "time": 97.31224860742188,
          "velocity": 0.8031496062992126
        },
        {
          "duration": 0.20050313183594426,
          "durationTicks": 479,
          "midi": 60,
          "name": "C4",
          "ticks": 232983,
          "time": 97.52363499902343,
          "velocity": 0.7952755905511811
        },
        {
          "duration": 0.21096780468749898,
          "durationTicks": 504,
          "midi": 62,
          "name": "D4",
          "ticks": 234003,
          "time": 97.95059365136719,
          "velocity": 0.7952755905511811
        },
        {
          "duration": 0.42319137011718055,
          "durationTicks": 1011,
          "midi": 62,
          "name": "D4",
          "ticks": 234508,
          "time": 98.16198004296875,
          "velocity": 0.8031496062992126
        },
        {
          "duration": 0.22645552050781248,
          "durationTicks": 541,
          "midi": 60,
          "name": "C4",
          "ticks": 235524,
          "time": 98.58726434765624,
          "velocity": 0.7401574803149606
        },
        {
          "duration": 0.42360995703124615,
          "durationTicks": 1012,
          "midi": 60,
          "name": "C4",
          "ticks": 236066,
          "time": 98.81413845507812,
          "velocity": 0.7007874015748031
        },
        {
          "duration": 0.21306073925781277,
          "durationTicks": 509,
          "midi": 60,
          "name": "C4",
          "ticks": 237079,
          "time": 99.23816699902343,
          "velocity": 0.7007874015748031
        },
        {
          "duration": 0.42444713085937735,
          "durationTicks": 1014,
          "midi": 60,
          "name": "C4",
          "ticks": 237589,
          "time": 99.45164632519531,
          "velocity": 0.8188976377952756
        },
        {
          "duration": 0.42319137011719477,
          "durationTicks": 1011,
          "midi": 59,
          "name": "B3",
          "ticks": 238604,
          "time": 99.87651204296874,
          "velocity": 0.8031496062992126
        },
        {
          "duration": 0.22645552050781248,
          "durationTicks": 541,
          "midi": 60,
          "name": "C4",
          "ticks": 239620,
          "time": 100.30179634765625,
          "velocity": 0.7401574803149606
        },
        {
          "duration": 0.21222356542968157,
          "durationTicks": 507,
          "midi": 60,
          "name": "C4",
          "ticks": 240162,
          "time": 100.52867045507813,
          "velocity": 0.7007874015748031
        },
        {
          "duration": 0.21096780468749898,
          "durationTicks": 504,
          "midi": 60,
          "name": "C4",
          "ticks": 240670,
          "time": 100.74131260742188,
          "velocity": 0.7086614173228346
        },
        {
          "duration": 0.22603693359374688,
          "durationTicks": 540,
          "midi": 60,
          "name": "C4",
          "ticks": 241175,
          "time": 100.95269899902344,
          "velocity": 0.7007874015748031
        },
        {
          "duration": 0.8480570878906235,
          "durationTicks": 2026,
          "midi": 59,
          "name": "B3",
          "ticks": 241685,
          "time": 101.1661783251953,
          "velocity": 0.8188976377952756
        },
        {
          "duration": 0.21431650000000957,
          "durationTicks": 512,
          "midi": 71,
          "name": "B4",
          "ticks": 261120,
          "time": 109.30141499999999,
          "velocity": 0.4251968503937008
        },
        {
          "duration": 0.207200522460937,
          "durationTicks": 495,
          "midi": 71,
          "name": "B4",
          "ticks": 267776,
          "time": 112.0875295,
          "velocity": 0.4251968503937008
        },
        {
          "duration": 0.21431649999999536,
          "durationTicks": 512,
          "midi": 71,
          "name": "B4",
          "ticks": 274944,
          "time": 115.0879605,
          "velocity": 0.6299212598425197
        },
        {
          "duration": 0.207200522460937,
          "durationTicks": 495,
          "midi": 71,
          "name": "B4",
          "ticks": 281600,
          "time": 117.87407499999999,
          "velocity": 0.6299212598425197
        },
        {
          "duration": 0.21431649999999536,
          "durationTicks": 512,
          "midi": 71,
          "name": "B4",
          "ticks": 288768,
          "time": 120.874506,
          "velocity": 0.6299212598425197
        },
        {
          "duration": 0.207200522460937,
          "durationTicks": 495,
          "midi": 71,
          "name": "B4",
          "ticks": 295424,
          "time": 123.6606205,
          "velocity": 0.6299212598425197
        },
        {
          "duration": 0.22645552050781248,
          "durationTicks": 541,
          "midi": 67,
          "name": "G4",
          "ticks": 299012,
          "time": 125.16251034765625,
          "velocity": 0.8346456692913385
        },
        {
          "duration": 0.42360995703126036,
          "durationTicks": 1012,
          "midi": 67,
          "name": "G4",
          "ticks": 299554,
          "time": 125.38938445507812,
          "velocity": 0.7952755905511811
        },
        {
          "duration": 0.21306073925781277,
          "durationTicks": 509,
          "midi": 67,
          "name": "G4",
          "ticks": 300567,
          "time": 125.81341299902343,
          "velocity": 0.7952755905511811
        },
        {
          "duration": 0.42444713085937735,
          "durationTicks": 1014,
          "midi": 67,
          "name": "G4",
          "ticks": 301077,
          "time": 126.0268923251953,
          "velocity": 0.8188976377952756
        },
        {
          "duration": 0.42319137011718055,
          "durationTicks": 1011,
          "midi": 66,
          "name": "F#4",
          "ticks": 302092,
          "time": 126.45175804296875,
          "velocity": 0.8031496062992126
        },
        {
          "duration": 0.22645552050781248,
          "durationTicks": 541,
          "midi": 67,
          "name": "G4",
          "ticks": 303108,
          "time": 126.87704234765624,
          "velocity": 0.7401574803149606
        },
        {
          "duration": 0.21222356542968157,
          "durationTicks": 507,
          "midi": 67,
          "name": "G4",
          "ticks": 303650,
          "time": 127.10391645507812,
          "velocity": 0.7007874015748031
        },
        {
          "duration": 0.21096780468749898,
          "durationTicks": 504,
          "midi": 67,
          "name": "G4",
          "ticks": 304158,
          "time": 127.31655860742187,
          "velocity": 0.7086614173228346
        },
        {
          "duration": 0.22603693359374688,
          "durationTicks": 540,
          "midi": 67,
          "name": "G4",
          "ticks": 304663,
          "time": 127.52794499902343,
          "velocity": 0.7007874015748031
        },
        {
          "duration": 0.2239439990234331,
          "durationTicks": 535,
          "midi": 67,
          "name": "G4",
          "ticks": 305683,
          "time": 127.95490365136719,
          "velocity": 0.7007874015748031
        },
        {
          "duration": 0.42319137011719477,
          "durationTicks": 1011,
          "midi": 66,
          "name": "F#4",
          "ticks": 306188,
          "time": 128.16629004296874,
          "velocity": 0.8031496062992126
        },
        {
          "duration": 0.22645552050781248,
          "durationTicks": 541,
          "midi": 67,
          "name": "G4",
          "ticks": 307204,
          "time": 128.59157434765623,
          "velocity": 0.7401574803149606
        },
        {
          "duration": 0.42360995703126036,
          "durationTicks": 1012,
          "midi": 67,
          "name": "G4",
          "ticks": 307746,
          "time": 128.8184484550781,
          "velocity": 0.7007874015748031
        },
        {
          "duration": 0.21306073925779856,
          "durationTicks": 509,
          "midi": 67,
          "name": "G4",
          "ticks": 308759,
          "time": 129.24247699902344,
          "velocity": 0.7007874015748031
        },
        {
          "duration": 0.42444713085939156,
          "durationTicks": 1014,
          "midi": 67,
          "name": "G4",
          "ticks": 309269,
          "time": 129.4559563251953,
          "velocity": 0.8188976377952756
        },
        {
          "duration": 0.42319137011716634,
          "durationTicks": 1011,
          "midi": 66,
          "name": "F#4",
          "ticks": 310284,
          "time": 129.88082204296876,
          "velocity": 0.8031496062992126
        },
        {
          "duration": 0.22645552050781248,
          "durationTicks": 541,
          "midi": 67,
          "name": "G4",
          "ticks": 311300,
          "time": 130.30610634765625,
          "velocity": 0.7401574803149606
        },
        {
          "duration": 0.21222356542966736,
          "durationTicks": 507,
          "midi": 67,
          "name": "G4",
          "ticks": 311842,
          "time": 130.53298045507813,
          "velocity": 0.7007874015748031
        },
        {
          "duration": 0.21096780468749898,
          "durationTicks": 504,
          "midi": 67,
          "name": "G4",
          "ticks": 312350,
          "time": 130.74562260742186,
          "velocity": 0.7086614173228346
        },
        {
          "duration": 0.22603693359374688,
          "durationTicks": 540,
          "midi": 67,
          "name": "G4",
          "ticks": 312855,
          "time": 130.95700899902343,
          "velocity": 0.7007874015748031
        },
        {
          "duration": 0.8480570878906235,
          "durationTicks": 2026,
          "midi": 69,
          "name": "A4",
          "ticks": 313365,
          "time": 131.17048832519532,
          "velocity": 0.8188976377952756
        },
        {
          "duration": 0.207200522460937,
          "durationTicks": 495,
          "midi": 65,
          "name": "F4",
          "ticks": 315392,
          "time": 132.01896399999998,
          "velocity": 0.8346456692913385
        },
        {
          "duration": 0.1954800888671855,
          "durationTicks": 467,
          "midi": 62,
          "name": "D4",
          "ticks": 315918,
          "time": 132.23914071679687,
          "velocity": 0.7952755905511811
        },
        {
          "duration": 0.207200522460937,
          "durationTicks": 495,
          "midi": 67,
          "name": "G4",
          "ticks": 316416,
          "time": 132.447597,
          "velocity": 0.8031496062992126
        },
        {
          "duration": 0.1954800888671855,
          "durationTicks": 467,
          "midi": 62,
          "name": "D4",
          "ticks": 316942,
          "time": 132.66777371679686,
          "velocity": 0.7952755905511811
        },
        {
          "duration": 0.21180497851563018,
          "durationTicks": 506,
          "midi": 64,
          "name": "E4",
          "ticks": 317440,
          "time": 132.87623,
          "velocity": 0.8031496062992126
        },
        {
          "duration": 0.1921313935546607,
          "durationTicks": 459,
          "midi": 65,
          "name": "F4",
          "ticks": 317977,
          "time": 133.10101117285157,
          "velocity": 0.7952755905511811
        },
        {
          "duration": 0.20008454492187866,
          "durationTicks": 478,
          "midi": 62,
          "name": "D4",
          "ticks": 318467,
          "time": 133.30611876074218,
          "velocity": 0.7952755905511811
        },
        {
          "duration": 0.207200522460937,
          "durationTicks": 495,
          "midi": 69,
          "name": "A4",
          "ticks": 318976,
          "time": 133.5191795,
          "velocity": 0.8346456692913385
        },
        {
          "duration": 0.1954800888671855,
          "durationTicks": 467,
          "midi": 67,
          "name": "G4",
          "ticks": 319502,
          "time": 133.73935621679686,
          "velocity": 0.7952755905511811
        },
        {
          "duration": 0.207200522460937,
          "durationTicks": 495,
          "midi": 65,
          "name": "F4",
          "ticks": 320000,
          "time": 133.9478125,
          "velocity": 0.8031496062992126
        },
        {
          "duration": 0.1954800888671855,
          "durationTicks": 467,
          "midi": 64,
          "name": "E4",
          "ticks": 320526,
          "time": 134.16798921679688,
          "velocity": 0.7952755905511811
        },
        {
          "duration": 0.21180497851563018,
          "durationTicks": 506,
          "midi": 62,
          "name": "D4",
          "ticks": 321024,
          "time": 134.3764455,
          "velocity": 0.8031496062992126
        },
        {
          "duration": 0.1921313935546891,
          "durationTicks": 459,
          "midi": 60,
          "name": "C4",
          "ticks": 321561,
          "time": 134.60122667285157,
          "velocity": 0.7952755905511811
        },
        {
          "duration": 0.20008454492187866,
          "durationTicks": 478,
          "midi": 62,
          "name": "D4",
          "ticks": 322051,
          "time": 134.80633426074218,
          "velocity": 0.7952755905511811
        },
        {
          "duration": 0.207200522460937,
          "durationTicks": 495,
          "midi": 65,
          "name": "F4",
          "ticks": 322560,
          "time": 135.019395,
          "velocity": 0.8346456692913385
        },
        {
          "duration": 0.1954800888671855,
          "durationTicks": 467,
          "midi": 62,
          "name": "D4",
          "ticks": 323086,
          "time": 135.23957171679686,
          "velocity": 0.7952755905511811
        },
        {
          "duration": 0.207200522460937,
          "durationTicks": 495,
          "midi": 67,
          "name": "G4",
          "ticks": 323584,
          "time": 135.448028,
          "velocity": 0.8031496062992126
        },
        {
          "duration": 0.1954800888671855,
          "durationTicks": 467,
          "midi": 62,
          "name": "D4",
          "ticks": 324110,
          "time": 135.66820471679688,
          "velocity": 0.7952755905511811
        },
        {
          "duration": 0.21180497851563018,
          "durationTicks": 506,
          "midi": 64,
          "name": "E4",
          "ticks": 324608,
          "time": 135.87666099999998,
          "velocity": 0.8031496062992126
        },
        {
          "duration": 0.1921313935546891,
          "durationTicks": 459,
          "midi": 65,
          "name": "F4",
          "ticks": 325145,
          "time": 136.10144217285156,
          "velocity": 0.7952755905511811
        },
        {
          "duration": 0.20008454492187866,
          "durationTicks": 478,
          "midi": 62,
          "name": "D4",
          "ticks": 325635,
          "time": 136.30654976074217,
          "velocity": 0.7952755905511811
        },
        {
          "duration": 0.207200522460937,
          "durationTicks": 495,
          "midi": 69,
          "name": "A4",
          "ticks": 326144,
          "time": 136.5196105,
          "velocity": 0.8346456692913385
        },
        {
          "duration": 0.1954800888671855,
          "durationTicks": 467,
          "midi": 67,
          "name": "G4",
          "ticks": 326670,
          "time": 136.73978721679688,
          "velocity": 0.7952755905511811
        },
        {
          "duration": 0.207200522460937,
          "durationTicks": 495,
          "midi": 65,
          "name": "F4",
          "ticks": 327168,
          "time": 136.9482435,
          "velocity": 0.8031496062992126
        },
        {
          "duration": 0.1954800888671855,
          "durationTicks": 467,
          "midi": 64,
          "name": "E4",
          "ticks": 327694,
          "time": 137.16842021679687,
          "velocity": 0.7952755905511811
        },
        {
          "duration": 0.21180497851560176,
          "durationTicks": 506,
          "midi": 62,
          "name": "D4",
          "ticks": 328192,
          "time": 137.3768765,
          "velocity": 0.8031496062992126
        },
        {
          "duration": 0.1921313935546891,
          "durationTicks": 459,
          "midi": 60,
          "name": "C4",
          "ticks": 328729,
          "time": 137.60165767285156,
          "velocity": 0.7952755905511811
        },
        {
          "duration": 0.20008454492185024,
          "durationTicks": 478,
          "midi": 62,
          "name": "D4",
          "ticks": 329219,
          "time": 137.8067652607422,
          "velocity": 0.7952755905511811
        },
        {
          "duration": 0.22645552050781248,
          "durationTicks": 541,
          "midi": 67,
          "name": "G4",
          "ticks": 329732,
          "time": 138.02150034765626,
          "velocity": 0.8346456692913385
        },
        {
          "duration": 0.42360995703126036,
          "durationTicks": 1012,
          "midi": 67,
          "name": "G4",
          "ticks": 330274,
          "time": 138.2483744550781,
          "velocity": 0.7952755905511811
        },
        {
          "duration": 0.21306073925779856,
          "durationTicks": 509,
          "midi": 67,
          "name": "G4",
          "ticks": 331287,
          "time": 138.67240299902343,
          "velocity": 0.7952755905511811
        },
        {
          "duration": 0.42444713085939156,
          "durationTicks": 1014,
          "midi": 67,
          "name": "G4",
          "ticks": 331797,
          "time": 138.8858823251953,
          "velocity": 0.8188976377952756
        },
        {
          "duration": 0.42319137011716634,
          "durationTicks": 1011,
          "midi": 66,
          "name": "F#4",
          "ticks": 332812,
          "time": 139.31074804296875,
          "velocity": 0.8031496062992126
        },
        {
          "duration": 0.22645552050781248,
          "durationTicks": 541,
          "midi": 67,
          "name": "G4",
          "ticks": 333828,
          "time": 139.73603234765625,
          "velocity": 0.8346456692913385
        },
        {
          "duration": 0.21222356542966736,
          "durationTicks": 507,
          "midi": 67,
          "name": "G4",
          "ticks": 334370,
          "time": 139.96290645507813,
          "velocity": 0.7952755905511811
        },
        {
          "duration": 0.21096780468749898,
          "durationTicks": 504,
          "midi": 67,
          "name": "G4",
          "ticks": 334878,
          "time": 140.17554860742186,
          "velocity": 0.8031496062992126
        },
        {
          "duration": 0.20050313183594426,
          "durationTicks": 479,
          "midi": 67,
          "name": "G4",
          "ticks": 335383,
          "time": 140.38693499902342,
          "velocity": 0.7952755905511811
        },
        {
          "duration": 0.21096780468749898,
          "durationTicks": 504,
          "midi": 69,
          "name": "A4",
          "ticks": 336403,
          "time": 140.81389365136718,
          "velocity": 0.7952755905511811
        },
        {
          "duration": 0.42319137011719477,
          "durationTicks": 1011,
          "midi": 69,
          "name": "A4",
          "ticks": 336908,
          "time": 141.02528004296875,
          "velocity": 0.8031496062992126
        },
        {
          "duration": 0.22645552050781248,
          "durationTicks": 541,
          "midi": 67,
          "name": "G4",
          "ticks": 337924,
          "time": 141.45056434765624,
          "velocity": 0.7401574803149606
        },
        {
          "duration": 0.42360995703126036,
          "durationTicks": 1012,
          "midi": 67,
          "name": "G4",
          "ticks": 338466,
          "time": 141.67743845507812,
          "velocity": 0.7007874015748031
        },
        {
          "duration": 0.21306073925779856,
          "durationTicks": 509,
          "midi": 67,
          "name": "G4",
          "ticks": 339479,
          "time": 142.10146699902344,
          "velocity": 0.7007874015748031
        },
        {
          "duration": 0.42444713085936314,
          "durationTicks": 1014,
          "midi": 67,
          "name": "G4",
          "ticks": 339989,
          "time": 142.3149463251953,
          "velocity": 0.8188976377952756
        },
        {
          "duration": 0.42319137011719477,
          "durationTicks": 1011,
          "midi": 66,
          "name": "F#4",
          "ticks": 341004,
          "time": 142.73981204296874,
          "velocity": 0.8031496062992126
        },
        {
          "duration": 0.22645552050781248,
          "durationTicks": 541,
          "midi": 67,
          "name": "G4",
          "ticks": 342020,
          "time": 143.16509634765626,
          "velocity": 0.7401574803149606
        },
        {
          "duration": 0.21222356542969578,
          "durationTicks": 507,
          "midi": 67,
          "name": "G4",
          "ticks": 342562,
          "time": 143.3919704550781,
          "velocity": 0.7007874015748031
        },
        {
          "duration": 0.21096780468749898,
          "durationTicks": 504,
          "midi": 67,
          "name": "G4",
          "ticks": 343070,
          "time": 143.60461260742187,
          "velocity": 0.7086614173228346
        },
        {
          "duration": 0.22603693359374688,
          "durationTicks": 540,
          "midi": 67,
          "name": "G4",
          "ticks": 343575,
          "time": 143.81599899902344,
          "velocity": 0.7007874015748031
        },
        {
          "duration": 0.8480570878906235,
          "durationTicks": 2026,
          "midi": 66,
          "name": "F#4",
          "ticks": 344085,
          "time": 144.0294783251953,
          "velocity": 0.8188976377952756
        },
        {
          "duration": 0.207200522460937,
          "durationTicks": 495,
          "midi": 65,
          "name": "F4",
          "ticks": 346112,
          "time": 144.877954,
          "velocity": 0.8346456692913385
        },
        {
          "duration": 0.1954800888671855,
          "durationTicks": 467,
          "midi": 62,
          "name": "D4",
          "ticks": 346638,
          "time": 145.09813071679687,
          "velocity": 0.7952755905511811
        },
        {
          "duration": 0.207200522460937,
          "durationTicks": 495,
          "midi": 67,
          "name": "G4",
          "ticks": 347136,
          "time": 145.306587,
          "velocity": 0.8031496062992126
        },
        {
          "duration": 0.1954800888671855,
          "durationTicks": 467,
          "midi": 62,
          "name": "D4",
          "ticks": 347662,
          "time": 145.52676371679686,
          "velocity": 0.7952755905511811
        },
        {
          "duration": 0.21180497851563018,
          "durationTicks": 506,
          "midi": 64,
          "name": "E4",
          "ticks": 348160,
          "time": 145.73522,
          "velocity": 0.8031496062992126
        },
        {
          "duration": 0.1921313935546891,
          "durationTicks": 459,
          "midi": 65,
          "name": "F4",
          "ticks": 348697,
          "time": 145.96000117285155,
          "velocity": 0.7952755905511811
        },
        {
          "duration": 0.20008454492187866,
          "durationTicks": 478,
          "midi": 62,
          "name": "D4",
          "ticks": 349187,
          "time": 146.16510876074219,
          "velocity": 0.7952755905511811
        },
        {
          "duration": 0.207200522460937,
          "durationTicks": 495,
          "midi": 69,
          "name": "A4",
          "ticks": 349696,
          "time": 146.37816949999998,
          "velocity": 0.8346456692913385
        },
        {
          "duration": 0.1954800888671855,
          "durationTicks": 467,
          "midi": 67,
          "name": "G4",
          "ticks": 350222,
          "time": 146.59834621679687,
          "velocity": 0.7952755905511811
        },
        {
          "duration": 0.207200522460937,
          "durationTicks": 495,
          "midi": 65,
          "name": "F4",
          "ticks": 350720,
          "time": 146.8068025,
          "velocity": 0.8031496062992126
        },
        {
          "duration": 0.1954800888671855,
          "durationTicks": 467,
          "midi": 64,
          "name": "E4",
          "ticks": 351246,
          "time": 147.02697921679686,
          "velocity": 0.7952755905511811
        },
        {
          "duration": 0.21180497851563018,
          "durationTicks": 506,
          "midi": 62,
          "name": "D4",
          "ticks": 351744,
          "time": 147.2354355,
          "velocity": 0.8031496062992126
        },
        {
          "duration": 0.1921313935546891,
          "durationTicks": 459,
          "midi": 60,
          "name": "C4",
          "ticks": 352281,
          "time": 147.46021667285154,
          "velocity": 0.7952755905511811
        },
        {
          "duration": 0.20008454492187866,
          "durationTicks": 478,
          "midi": 62,
          "name": "D4",
          "ticks": 352771,
          "time": 147.66532426074218,
          "velocity": 0.7952755905511811
        },
        {
          "duration": 0.207200522460937,
          "durationTicks": 495,
          "midi": 65,
          "name": "F4",
          "ticks": 353280,
          "time": 147.878385,
          "velocity": 0.8346456692913385
        },
        {
          "duration": 0.1954800888671855,
          "durationTicks": 467,
          "midi": 62,
          "name": "D4",
          "ticks": 353806,
          "time": 148.09856171679687,
          "velocity": 0.7952755905511811
        },
        {
          "duration": 0.207200522460937,
          "durationTicks": 495,
          "midi": 67,
          "name": "G4",
          "ticks": 354304,
          "time": 148.307018,
          "velocity": 0.8031496062992126
        },
        {
          "duration": 0.1954800888672139,
          "durationTicks": 467,
          "midi": 62,
          "name": "D4",
          "ticks": 354830,
          "time": 148.52719471679686,
          "velocity": 0.7952755905511811
        },
        {
          "duration": 0.21180497851563018,
          "durationTicks": 506,
          "midi": 64,
          "name": "E4",
          "ticks": 355328,
          "time": 148.735651,
          "velocity": 0.8031496062992126
        },
        {
          "duration": 0.1921313935546891,
          "durationTicks": 459,
          "midi": 65,
          "name": "F4",
          "ticks": 355865,
          "time": 148.96043217285157,
          "velocity": 0.7952755905511811
        },
        {
          "duration": 0.20008454492187866,
          "durationTicks": 478,
          "midi": 62,
          "name": "D4",
          "ticks": 356355,
          "time": 149.16553976074218,
          "velocity": 0.7952755905511811
        },
        {
          "duration": 0.207200522460937,
          "durationTicks": 495,
          "midi": 69,
          "name": "A4",
          "ticks": 356864,
          "time": 149.3786005,
          "velocity": 0.8346456692913385
        },
        {
          "duration": 0.1954800888671855,
          "durationTicks": 467,
          "midi": 67,
          "name": "G4",
          "ticks": 357390,
          "time": 149.59877721679686,
          "velocity": 0.7952755905511811
        },
        {
          "duration": 0.207200522460937,
          "durationTicks": 495,
          "midi": 65,
          "name": "F4",
          "ticks": 357888,
          "time": 149.8072335,
          "velocity": 0.8031496062992126
        },
        {
          "duration": 0.1954800888671855,
          "durationTicks": 467,
          "midi": 64,
          "name": "E4",
          "ticks": 358414,
          "time": 150.02741021679688,
          "velocity": 0.7952755905511811
        },
        {
          "duration": 0.21180497851563018,
          "durationTicks": 506,
          "midi": 62,
          "name": "D4",
          "ticks": 358912,
          "time": 150.2358665,
          "velocity": 0.8031496062992126
        },
        {
          "duration": 0.1921313935546891,
          "durationTicks": 459,
          "midi": 60,
          "name": "C4",
          "ticks": 359449,
          "time": 150.46064767285156,
          "velocity": 0.7952755905511811
        },
        {
          "duration": 0.20008454492187866,
          "durationTicks": 478,
          "midi": 62,
          "name": "D4",
          "ticks": 359939,
          "time": 150.66575526074217,
          "velocity": 0.7952755905511811
        },
        {
          "duration": 0.22645552050781248,
          "durationTicks": 541,
          "midi": 60,
          "name": "C4",
          "ticks": 360452,
          "time": 150.88049034765623,
          "velocity": 0.8346456692913385
        },
        {
          "duration": 0.42360995703126036,
          "durationTicks": 1012,
          "midi": 60,
          "name": "C4",
          "ticks": 360994,
          "time": 151.1073644550781,
          "velocity": 0.7952755905511811
        },
        {
          "duration": 0.21306073925779856,
          "durationTicks": 509,
          "midi": 60,
          "name": "C4",
          "ticks": 362007,
          "time": 151.53139299902344,
          "velocity": 0.7952755905511811
        },
        {
          "duration": 0.42444713085939156,
          "durationTicks": 1014,
          "midi": 60,
          "name": "C4",
          "ticks": 362517,
          "time": 151.7448723251953,
          "velocity": 0.8188976377952756
        },
        {
          "duration": 0.42319137011719477,
          "durationTicks": 1011,
          "midi": 59,
          "name": "B3",
          "ticks": 363532,
          "time": 152.16973804296873,
          "velocity": 0.8031496062992126
        },
        {
          "duration": 0.22645552050781248,
          "durationTicks": 541,
          "midi": 60,
          "name": "C4",
          "ticks": 364548,
          "time": 152.59502234765625,
          "velocity": 0.8346456692913385
        },
        {
          "duration": 0.21222356542966736,
          "durationTicks": 507,
          "midi": 60,
          "name": "C4",
          "ticks": 365090,
          "time": 152.82189645507813,
          "velocity": 0.7952755905511811
        },
        {
          "duration": 0.21096780468749898,
          "durationTicks": 504,
          "midi": 60,
          "name": "C4",
          "ticks": 365598,
          "time": 153.03453860742187,
          "velocity": 0.8031496062992126
        },
        {
          "duration": 0.20050313183594426,
          "durationTicks": 479,
          "midi": 60,
          "name": "C4",
          "ticks": 366103,
          "time": 153.24592499902343,
          "velocity": 0.7952755905511811
        },
        {
          "duration": 0.21096780468749898,
          "durationTicks": 504,
          "midi": 62,
          "name": "D4",
          "ticks": 367123,
          "time": 153.6728836513672,
          "velocity": 0.7952755905511811
        },
        {
          "duration": 0.42319137011719477,
          "durationTicks": 1011,
          "midi": 62,
          "name": "D4",
          "ticks": 367628,
          "time": 153.88427004296875,
          "velocity": 0.8031496062992126
        },
        {
          "duration": 0.22645552050781248,
          "durationTicks": 541,
          "midi": 60,
          "name": "C4",
          "ticks": 368644,
          "time": 154.30955434765625,
          "velocity": 0.7401574803149606
        },
        {
          "duration": 0.42360995703126036,
          "durationTicks": 1012,
          "midi": 60,
          "name": "C4",
          "ticks": 369186,
          "time": 154.53642845507812,
          "velocity": 0.7007874015748031
        },
        {
          "duration": 0.21306073925782698,
          "durationTicks": 509,
          "midi": 60,
          "name": "C4",
          "ticks": 370199,
          "time": 154.96045699902342,
          "velocity": 0.7007874015748031
        },
        {
          "duration": 0.42444713085936314,
          "durationTicks": 1014,
          "midi": 60,
          "name": "C4",
          "ticks": 370709,
          "time": 155.1739363251953,
          "velocity": 0.8188976377952756
        },
        {
          "duration": 0.42319137011719477,
          "durationTicks": 1011,
          "midi": 59,
          "name": "B3",
          "ticks": 371724,
          "time": 155.59880204296874,
          "velocity": 0.8031496062992126
        },
        {
          "duration": 0.22645552050781248,
          "durationTicks": 541,
          "midi": 60,
          "name": "C4",
          "ticks": 372740,
          "time": 156.02408634765624,
          "velocity": 0.7401574803149606
        },
        {
          "duration": 0.21222356542969578,
          "durationTicks": 507,
          "midi": 60,
          "name": "C4",
          "ticks": 373282,
          "time": 156.25096045507811,
          "velocity": 0.7007874015748031
        },
        {
          "duration": 0.21096780468749898,
          "durationTicks": 504,
          "midi": 60,
          "name": "C4",
          "ticks": 373790,
          "time": 156.46360260742188,
          "velocity": 0.7086614173228346
        },
        {
          "duration": 0.22603693359374688,
          "durationTicks": 540,
          "midi": 60,
          "name": "C4",
          "ticks": 374295,
          "time": 156.67498899902344,
          "velocity": 0.7007874015748031
        },
        {
          "duration": 0.8480570878906235,
          "durationTicks": 2026,
          "midi": 59,
          "name": "B3",
          "ticks": 374805,
          "time": 156.8884683251953,
          "velocity": 0.8188976377952756
        },
        {
          "duration": 0.21431649999999536,
          "durationTicks": 512,
          "midi": 71,
          "name": "B4",
          "ticks": 380416,
          "time": 159.2371595,
          "velocity": 0.5275590551181102
        },
        {
          "duration": 0.207200522460937,
          "durationTicks": 495,
          "midi": 71,
          "name": "B4",
          "ticks": 387072,
          "time": 162.023274,
          "velocity": 0.5275590551181102
        },
        {
          "duration": 0.21431649999999536,
          "durationTicks": 512,
          "midi": 71,
          "name": "B4",
          "ticks": 394240,
          "time": 165.023705,
          "velocity": 0.4251968503937008
        },
        {
          "duration": 0.207200522460937,
          "durationTicks": 495,
          "midi": 71,
          "name": "B4",
          "ticks": 400896,
          "time": 167.8098195,
          "velocity": 0.4251968503937008
        }
      ],
      "endOfTrackTicks": 408063
    },
    {
      "channel": 3,
      "controlChanges": {
        "6": [
          {
            "number": 6,
            "ticks": 4,
            "time": 0.00167434765625,
            "value": 0.09448818897637795
          }
        ],
        "7": [
          {
            "number": 7,
            "ticks": 0,
            "time": 0,
            "value": 0.7874015748031497
          },
          {
            "number": 7,
            "ticks": 0,
            "time": 0,
            "value": 0.7401574803149606
          }
        ],
        "10": [
          {
            "number": 10,
            "ticks": 0,
            "time": 0,
            "value": 0.5039370078740157
          }
        ],
        "38": [
          {
            "number": 38,
            "ticks": 5,
            "time": 0.0020929345703124998,
            "value": 0
          }
        ],
        "100": [
          {
            "number": 100,
            "ticks": 3,
            "time": 0.0012557607421875,
            "value": 0
          }
        ],
        "101": [
          {
            "number": 101,
            "ticks": 3,
            "time": 0.0012557607421875,
            "value": 0
          }
        ]
      },
      "pitchBends": [],
      "instrument": {
        "family": "bass",
        "number": 34,
        "name": "electric bass (pick)"
      },
      "name": "Bass Guitar",
      "notes": [
        {
          "duration": 0.207200522460937,
          "durationTicks": 495,
          "midi": 40,
          "name": "E2",
          "ticks": 55296,
          "time": 23.146182,
          "velocity": 0.5433070866141733
        },
        {
          "duration": 0.19548008886718904,
          "durationTicks": 467,
          "midi": 39,
          "name": "D#2",
          "ticks": 55822,
          "time": 23.366358716796874,
          "velocity": 0.5039370078740157
        },
        {
          "duration": 0.207200522460937,
          "durationTicks": 495,
          "midi": 40,
          "name": "E2",
          "ticks": 56320,
          "time": 23.574815,
          "velocity": 0.5118110236220472
        },
        {
          "duration": 0.1954800888671855,
          "durationTicks": 467,
          "midi": 39,
          "name": "D#2",
          "ticks": 56846,
          "time": 23.794991716796876,
          "velocity": 0.5039370078740157
        },
        {
          "duration": 0.21180497851562663,
          "durationTicks": 506,
          "midi": 43,
          "name": "G2",
          "ticks": 57344,
          "time": 24.003448,
          "velocity": 0.5118110236220472
        },
        {
          "duration": 0.19213139355468556,
          "durationTicks": 459,
          "midi": 42,
          "name": "F#2",
          "ticks": 57881,
          "time": 24.228229172851563,
          "velocity": 0.5039370078740157
        },
        {
          "duration": 0.2000845449218751,
          "durationTicks": 478,
          "midi": 40,
          "name": "E2",
          "ticks": 58371,
          "time": 24.433336760742186,
          "velocity": 0.5039370078740157
        },
        {
          "duration": 0.2143164999999989,
          "durationTicks": 512,
          "midi": 47,
          "name": "B2",
          "ticks": 58880,
          "time": 24.6463975,
          "velocity": 0.5433070866141733
        },
        {
          "duration": 0.19757302343750283,
          "durationTicks": 472,
          "midi": 45,
          "name": "A2",
          "ticks": 59423,
          "time": 24.873690194335936,
          "velocity": 0.5039370078740157
        },
        {
          "duration": 0.20175889257812685,
          "durationTicks": 482,
          "midi": 43,
          "name": "G2",
          "ticks": 59926,
          "time": 25.084239412109373,
          "velocity": 0.5039370078740157
        },
        {
          "duration": 0.20050313183593715,
          "durationTicks": 479,
          "midi": 38,
          "name": "D2",
          "ticks": 60439,
          "time": 25.298974499023437,
          "velocity": 0.5039370078740157
        },
        {
          "duration": 0.1929685673828132,
          "durationTicks": 461,
          "midi": 35,
          "name": "B1",
          "ticks": 60949,
          "time": 25.512453825195312,
          "velocity": 0.5039370078740157
        },
        {
          "duration": 0.2009217187499992,
          "durationTicks": 480,
          "midi": 38,
          "name": "D2",
          "ticks": 61441,
          "time": 25.718398586914063,
          "velocity": 0.5039370078740157
        },
        {
          "duration": 0.207200522460937,
          "durationTicks": 495,
          "midi": 40,
          "name": "E2",
          "ticks": 61952,
          "time": 25.9322965,
          "velocity": 0.5433070866141733
        },
        {
          "duration": 0.19548008886718904,
          "durationTicks": 467,
          "midi": 39,
          "name": "D#2",
          "ticks": 62478,
          "time": 26.152473216796874,
          "velocity": 0.5039370078740157
        },
        {
          "duration": 0.20720052246094056,
          "durationTicks": 495,
          "midi": 40,
          "name": "E2",
          "ticks": 62976,
          "time": 26.360929499999997,
          "velocity": 0.5118110236220472
        },
        {
          "duration": 0.1954800888671855,
          "durationTicks": 467,
          "midi": 39,
          "name": "D#2",
          "ticks": 63502,
          "time": 26.581106216796876,
          "velocity": 0.5039370078740157
        },
        {
          "duration": 0.21180497851562663,
          "durationTicks": 506,
          "midi": 43,
          "name": "G2",
          "ticks": 64000,
          "time": 26.7895625,
          "velocity": 0.5118110236220472
        },
        {
          "duration": 0.19213139355468556,
          "durationTicks": 459,
          "midi": 39,
          "name": "D#2",
          "ticks": 64537,
          "time": 27.014343672851563,
          "velocity": 0.5039370078740157
        },
        {
          "duration": 0.21264215234375072,
          "durationTicks": 508,
          "midi": 40,
          "name": "E2",
          "ticks": 65027,
          "time": 27.219451260742186,
          "velocity": 0.5039370078740157
        },
        {
          "duration": 0.207200522460937,
          "durationTicks": 495,
          "midi": 40,
          "name": "E2",
          "ticks": 65536,
          "time": 27.432512,
          "velocity": 0.5433070866141733
        },
        {
          "duration": 0.19548008886718904,
          "durationTicks": 467,
          "midi": 38,
          "name": "D2",
          "ticks": 66062,
          "time": 27.652688716796874,
          "velocity": 0.5039370078740157
        },
        {
          "duration": 0.207200522460937,
          "durationTicks": 495,
          "midi": 35,
          "name": "B1",
          "ticks": 66560,
          "time": 27.861145,
          "velocity": 0.5118110236220472
        },
        {
          "duration": 0.1954800888671855,
          "durationTicks": 467,
          "midi": 33,
          "name": "A1",
          "ticks": 67086,
          "time": 28.081321716796875,
          "velocity": 0.5039370078740157
        },
        {
          "duration": 0.22436258593750225,
          "durationTicks": 536,
          "midi": 35,
          "name": "B1",
          "ticks": 67584,
          "time": 28.289778,
          "velocity": 0.5118110236220472
        },
        {
          "duration": 0.19213139355468556,
          "durationTicks": 459,
          "midi": 35,
          "name": "B1",
          "ticks": 68121,
          "time": 28.514559172851563,
          "velocity": 0.5039370078740157
        },
        {
          "duration": 0.2000845449218751,
          "durationTicks": 478,
          "midi": 38,
          "name": "D2",
          "ticks": 68611,
          "time": 28.719666760742186,
          "velocity": 0.5039370078740157
        },
        {
          "duration": 0.207200522460937,
          "durationTicks": 495,
          "midi": 40,
          "name": "E2",
          "ticks": 69120,
          "time": 28.9327275,
          "velocity": 0.5433070866141733
        },
        {
          "duration": 0.19548008886718904,
          "durationTicks": 467,
          "midi": 39,
          "name": "D#2",
          "ticks": 69646,
          "time": 29.152904216796873,
          "velocity": 0.5039370078740157
        },
        {
          "duration": 0.207200522460937,
          "durationTicks": 495,
          "midi": 40,
          "name": "E2",
          "ticks": 70144,
          "time": 29.3613605,
          "velocity": 0.5118110236220472
        },
        {
          "duration": 0.1954800888671855,
          "durationTicks": 467,
          "midi": 39,
          "name": "D#2",
          "ticks": 70670,
          "time": 29.581537216796875,
          "velocity": 0.5039370078740157
        },
        {
          "duration": 0.21180497851562663,
          "durationTicks": 506,
          "midi": 43,
          "name": "G2",
          "ticks": 71168,
          "time": 29.789993499999998,
          "velocity": 0.5118110236220472
        },
        {
          "duration": 0.19213139355468556,
          "durationTicks": 459,
          "midi": 42,
          "name": "F#2",
          "ticks": 71705,
          "time": 30.014774672851562,
          "velocity": 0.5039370078740157
        },
        {
          "duration": 0.2000845449218751,
          "durationTicks": 478,
          "midi": 40,
          "name": "E2",
          "ticks": 72195,
          "time": 30.219882260742185,
          "velocity": 0.5039370078740157
        },
        {
          "duration": 0.21431650000000246,
          "durationTicks": 512,
          "midi": 47,
          "name": "B2",
          "ticks": 72704,
          "time": 30.432942999999998,
          "velocity": 0.5433070866141733
        },
        {
          "duration": 0.19757302343749927,
          "durationTicks": 472,
          "midi": 45,
          "name": "A2",
          "ticks": 73247,
          "time": 30.660235694335938,
          "velocity": 0.5039370078740157
        },
        {
          "duration": 0.2017588925781233,
          "durationTicks": 482,
          "midi": 43,
          "name": "G2",
          "ticks": 73750,
          "time": 30.870784912109375,
          "velocity": 0.5039370078740157
        },
        {
          "duration": 0.20050313183593715,
          "durationTicks": 479,
          "midi": 38,
          "name": "D2",
          "ticks": 74263,
          "time": 31.085519999023436,
          "velocity": 0.5039370078740157
        },
        {
          "duration": 0.1929685673828132,
          "durationTicks": 461,
          "midi": 35,
          "name": "B1",
          "ticks": 74773,
          "time": 31.29899932519531,
          "velocity": 0.5039370078740157
        },
        {
          "duration": 0.2009217187499992,
          "durationTicks": 480,
          "midi": 38,
          "name": "D2",
          "ticks": 75265,
          "time": 31.504944086914062,
          "velocity": 0.5039370078740157
        },
        {
          "duration": 0.207200522460937,
          "durationTicks": 495,
          "midi": 40,
          "name": "E2",
          "ticks": 75776,
          "time": 31.718842,
          "velocity": 0.5433070866141733
        },
        {
          "duration": 0.1954800888671855,
          "durationTicks": 467,
          "midi": 39,
          "name": "D#2",
          "ticks": 76302,
          "time": 31.939018716796873,
          "velocity": 0.5039370078740157
        },
        {
          "duration": 0.207200522460937,
          "durationTicks": 495,
          "midi": 40,
          "name": "E2",
          "ticks": 76800,
          "time": 32.147475,
          "velocity": 0.5118110236220472
        },
        {
          "duration": 0.1954800888671926,
          "durationTicks": 467,
          "midi": 39,
          "name": "D#2",
          "ticks": 77326,
          "time": 32.36765171679687,
          "velocity": 0.5039370078740157
        },
        {
          "duration": 0.21180497851562308,
          "durationTicks": 506,
          "midi": 43,
          "name": "G2",
          "ticks": 77824,
          "time": 32.576108,
          "velocity": 0.5118110236220472
        },
        {
          "duration": 0.1921313935546891,
          "durationTicks": 459,
          "midi": 39,
          "name": "D#2",
          "ticks": 78361,
          "time": 32.80088917285156,
          "velocity": 0.5039370078740157
        },
        {
          "duration": 0.21264215234375428,
          "durationTicks": 508,
          "midi": 40,
          "name": "E2",
          "ticks": 78851,
          "time": 33.005996760742185,
          "velocity": 0.5039370078740157
        },
        {
          "duration": 0.207200522460937,
          "durationTicks": 495,
          "midi": 40,
          "name": "E2",
          "ticks": 79360,
          "time": 33.2190575,
          "velocity": 0.5433070866141733
        },
        {
          "duration": 0.1954800888671855,
          "durationTicks": 467,
          "midi": 38,
          "name": "D2",
          "ticks": 79886,
          "time": 33.439234216796876,
          "velocity": 0.5039370078740157
        },
        {
          "duration": 0.207200522460937,
          "durationTicks": 495,
          "midi": 35,
          "name": "B1",
          "ticks": 80384,
          "time": 33.647690499999996,
          "velocity": 0.5118110236220472
        },
        {
          "duration": 0.1954800888671855,
          "durationTicks": 467,
          "midi": 33,
          "name": "A1",
          "ticks": 80910,
          "time": 33.867867216796874,
          "velocity": 0.5039370078740157
        },
        {
          "duration": 0.2243625859374987,
          "durationTicks": 536,
          "midi": 35,
          "name": "B1",
          "ticks": 81408,
          "time": 34.0763235,
          "velocity": 0.5118110236220472
        },
        {
          "duration": 0.1921313935546891,
          "durationTicks": 459,
          "midi": 35,
          "name": "B1",
          "ticks": 81945,
          "time": 34.30110467285156,
          "velocity": 0.5039370078740157
        },
        {
          "duration": 0.20008454492187155,
          "durationTicks": 478,
          "midi": 38,
          "name": "D2",
          "ticks": 82435,
          "time": 34.50621226074219,
          "velocity": 0.5039370078740157
        },
        {
          "duration": 0.207200522460937,
          "durationTicks": 495,
          "midi": 40,
          "name": "E2",
          "ticks": 82944,
          "time": 34.719273,
          "velocity": 0.5433070866141733
        },
        {
          "duration": 0.1954800888671926,
          "durationTicks": 467,
          "midi": 39,
          "name": "D#2",
          "ticks": 83470,
          "time": 34.93944971679687,
          "velocity": 0.5039370078740157
        },
        {
          "duration": 0.207200522460937,
          "durationTicks": 495,
          "midi": 40,
          "name": "E2",
          "ticks": 83968,
          "time": 35.147906,
          "velocity": 0.5118110236220472
        },
        {
          "duration": 0.1954800888671855,
          "durationTicks": 467,
          "midi": 39,
          "name": "D#2",
          "ticks": 84494,
          "time": 35.36808271679688,
          "velocity": 0.5039370078740157
        },
        {
          "duration": 0.21180497851563018,
          "durationTicks": 506,
          "midi": 43,
          "name": "G2",
          "ticks": 84992,
          "time": 35.576539,
          "velocity": 0.5118110236220472
        },
        {
          "duration": 0.1921313935546891,
          "durationTicks": 459,
          "midi": 42,
          "name": "F#2",
          "ticks": 85529,
          "time": 35.80132017285156,
          "velocity": 0.5039370078740157
        },
        {
          "duration": 0.20008454492187866,
          "durationTicks": 478,
          "midi": 40,
          "name": "E2",
          "ticks": 86019,
          "time": 36.006427760742184,
          "velocity": 0.5039370078740157
        },
        {
          "duration": 0.21431650000000246,
          "durationTicks": 512,
          "midi": 47,
          "name": "B2",
          "ticks": 86528,
          "time": 36.2194885,
          "velocity": 0.5433070866141733
        },
        {
          "duration": 0.19757302343749927,
          "durationTicks": 472,
          "midi": 45,
          "name": "A2",
          "ticks": 87071,
          "time": 36.446781194335934,
          "velocity": 0.5039370078740157
        },
        {
          "duration": 0.20175889257812685,
          "durationTicks": 482,
          "midi": 43,
          "name": "G2",
          "ticks": 87574,
          "time": 36.657330412109374,
          "velocity": 0.5039370078740157
        },
        {
          "duration": 0.20050313183593715,
          "durationTicks": 479,
          "midi": 38,
          "name": "D2",
          "ticks": 88087,
          "time": 36.872065499023435,
          "velocity": 0.5039370078740157
        },
        {
          "duration": 0.1929685673828132,
          "durationTicks": 461,
          "midi": 35,
          "name": "B1",
          "ticks": 88597,
          "time": 37.08554482519531,
          "velocity": 0.5039370078740157
        },
        {
          "duration": 0.20092171875000275,
          "durationTicks": 480,
          "midi": 38,
          "name": "D2",
          "ticks": 89089,
          "time": 37.29148958691406,
          "velocity": 0.5039370078740157
        },
        {
          "duration": 0.207200522460937,
          "durationTicks": 495,
          "midi": 40,
          "name": "E2",
          "ticks": 89600,
          "time": 37.5053875,
          "velocity": 0.5433070866141733
        },
        {
          "duration": 0.1954800888671855,
          "durationTicks": 467,
          "midi": 39,
          "name": "D#2",
          "ticks": 90126,
          "time": 37.725564216796876,
          "velocity": 0.5039370078740157
        },
        {
          "duration": 0.20720052246094411,
          "durationTicks": 495,
          "midi": 40,
          "name": "E2",
          "ticks": 90624,
          "time": 37.934020499999995,
          "velocity": 0.5118110236220472
        },
        {
          "duration": 0.1954800888671855,
          "durationTicks": 467,
          "midi": 39,
          "name": "D#2",
          "ticks": 91150,
          "time": 38.154197216796874,
          "velocity": 0.5039370078740157
        },
        {
          "duration": 0.21180497851562308,
          "durationTicks": 506,
          "midi": 43,
          "name": "G2",
          "ticks": 91648,
          "time": 38.3626535,
          "velocity": 0.5118110236220472
        },
        {
          "duration": 0.192131393554682,
          "durationTicks": 459,
          "midi": 39,
          "name": "D#2",
          "ticks": 92185,
          "time": 38.587434672851565,
          "velocity": 0.5039370078740157
        },
        {
          "duration": 0.21264215234374717,
          "durationTicks": 508,
          "midi": 40,
          "name": "E2",
          "ticks": 92675,
          "time": 38.79254226074219,
          "velocity": 0.5039370078740157
        },
        {
          "duration": 0.207200522460937,
          "durationTicks": 495,
          "midi": 40,
          "name": "E2",
          "ticks": 93184,
          "time": 39.005603,
          "velocity": 0.5433070866141733
        },
        {
          "duration": 0.1954800888671926,
          "durationTicks": 467,
          "midi": 38,
          "name": "D2",
          "ticks": 93710,
          "time": 39.22577971679687,
          "velocity": 0.5039370078740157
        },
        {
          "duration": 0.207200522460937,
          "durationTicks": 495,
          "midi": 35,
          "name": "B1",
          "ticks": 94208,
          "time": 39.434236,
          "velocity": 0.5118110236220472
        },
        {
          "duration": 0.1954800888671855,
          "durationTicks": 467,
          "midi": 33,
          "name": "A1",
          "ticks": 94734,
          "time": 39.65441271679688,
          "velocity": 0.5039370078740157
        },
        {
          "duration": 0.2243625859375058,
          "durationTicks": 536,
          "midi": 35,
          "name": "B1",
          "ticks": 95232,
          "time": 39.862868999999996,
          "velocity": 0.5118110236220472
        },
        {
          "duration": 0.1921313935546891,
          "durationTicks": 459,
          "midi": 35,
          "name": "B1",
          "ticks": 95769,
          "time": 40.08765017285156,
          "velocity": 0.5039370078740157
        },
        {
          "duration": 0.20008454492187866,
          "durationTicks": 478,
          "midi": 38,
          "name": "D2",
          "ticks": 96259,
          "time": 40.292757760742184,
          "velocity": 0.5039370078740157
        },
        {
          "duration": 0.207200522460937,
          "durationTicks": 495,
          "midi": 40,
          "name": "E2",
          "ticks": 96768,
          "time": 40.5058185,
          "velocity": 0.5433070866141733
        },
        {
          "duration": 0.1954800888671855,
          "durationTicks": 467,
          "midi": 39,
          "name": "D#2",
          "ticks": 97294,
          "time": 40.725995216796875,
          "velocity": 0.5039370078740157
        },
        {
          "duration": 0.207200522460937,
          "durationTicks": 495,
          "midi": 40,
          "name": "E2",
          "ticks": 97792,
          "time": 40.9344515,
          "velocity": 0.5118110236220472
        },
        {
          "duration": 0.1954800888671855,
          "durationTicks": 467,
          "midi": 39,
          "name": "D#2",
          "ticks": 98318,
          "time": 41.15462821679687,
          "velocity": 0.5039370078740157
        },
        {
          "duration": 0.21180497851562308,
          "durationTicks": 506,
          "midi": 43,
          "name": "G2",
          "ticks": 98816,
          "time": 41.3630845,
          "velocity": 0.5118110236220472
        },
        {
          "duration": 0.192131393554682,
          "durationTicks": 459,
          "midi": 42,
          "name": "F#2",
          "ticks": 99353,
          "time": 41.587865672851564,
          "velocity": 0.5039370078740157
        },
        {
          "duration": 0.20008454492187155,
          "durationTicks": 478,
          "midi": 40,
          "name": "E2",
          "ticks": 99843,
          "time": 41.79297326074219,
          "velocity": 0.5039370078740157
        },
        {
          "duration": 0.21431650000000246,
          "durationTicks": 512,
          "midi": 47,
          "name": "B2",
          "ticks": 100352,
          "time": 42.006034,
          "velocity": 0.5433070866141733
        },
        {
          "duration": 0.19757302343749927,
          "durationTicks": 472,
          "midi": 45,
          "name": "A2",
          "ticks": 100895,
          "time": 42.233326694335936,
          "velocity": 0.5039370078740157
        },
        {
          "duration": 0.20175889257811974,
          "durationTicks": 482,
          "midi": 43,
          "name": "G2",
          "ticks": 101398,
          "time": 42.44387591210938,
          "velocity": 0.5039370078740157
        },
        {
          "duration": 0.20050313183593715,
          "durationTicks": 479,
          "midi": 38,
          "name": "D2",
          "ticks": 101911,
          "time": 42.65861099902344,
          "velocity": 0.5039370078740157
        },
        {
          "duration": 0.1929685673828132,
          "durationTicks": 461,
          "midi": 35,
          "name": "B1",
          "ticks": 102421,
          "time": 42.87209032519531,
          "velocity": 0.5039370078740157
        },
        {
          "duration": 0.20092171874999565,
          "durationTicks": 480,
          "midi": 38,
          "name": "D2",
          "ticks": 102913,
          "time": 43.07803508691406,
          "velocity": 0.5039370078740157
        },
        {
          "duration": 0.207200522460937,
          "durationTicks": 495,
          "midi": 40,
          "name": "E2",
          "ticks": 103424,
          "time": 43.291933,
          "velocity": 0.5433070866141733
        },
        {
          "duration": 0.1954800888671926,
          "durationTicks": 467,
          "midi": 39,
          "name": "D#2",
          "ticks": 103950,
          "time": 43.51210971679687,
          "velocity": 0.5039370078740157
        },
        {
          "duration": 0.207200522460937,
          "durationTicks": 495,
          "midi": 40,
          "name": "E2",
          "ticks": 104448,
          "time": 43.720566,
          "velocity": 0.5118110236220472
        },
        {
          "duration": 0.1954800888671855,
          "durationTicks": 467,
          "midi": 39,
          "name": "D#2",
          "ticks": 104974,
          "time": 43.940742716796876,
          "velocity": 0.5039370078740157
        },
        {
          "duration": 0.21180497851563018,
          "durationTicks": 506,
          "midi": 43,
          "name": "G2",
          "ticks": 105472,
          "time": 44.149198999999996,
          "velocity": 0.5118110236220472
        },
        {
          "duration": 0.1921313935546891,
          "durationTicks": 459,
          "midi": 39,
          "name": "D#2",
          "ticks": 106009,
          "time": 44.37398017285156,
          "velocity": 0.5039370078740157
        },
        {
          "duration": 0.21264215234375428,
          "durationTicks": 508,
          "midi": 40,
          "name": "E2",
          "ticks": 106499,
          "time": 44.57908776074218,
          "velocity": 0.5039370078740157
        },
        {
          "duration": 0.207200522460937,
          "durationTicks": 495,
          "midi": 40,
          "name": "E2",
          "ticks": 107008,
          "time": 44.792148499999996,
          "velocity": 0.5433070866141733
        },
        {
          "duration": 0.1954800888671855,
          "durationTicks": 467,
          "midi": 38,
          "name": "D2",
          "ticks": 107534,
          "time": 45.012325216796874,
          "velocity": 0.5039370078740157
        },
        {
          "duration": 0.207200522460937,
          "durationTicks": 495,
          "midi": 35,
          "name": "B1",
          "ticks": 108032,
          "time": 45.2207815,
          "velocity": 0.5118110236220472
        },
        {
          "duration": 0.1954800888671855,
          "durationTicks": 467,
          "midi": 33,
          "name": "A1",
          "ticks": 108558,
          "time": 45.44095821679687,
          "velocity": 0.5039370078740157
        },
        {
          "duration": 0.2243625859374987,
          "durationTicks": 536,
          "midi": 35,
          "name": "B1",
          "ticks": 109056,
          "time": 45.6494145,
          "velocity": 0.5118110236220472
        },
        {
          "duration": 0.192131393554682,
          "durationTicks": 459,
          "midi": 35,
          "name": "B1",
          "ticks": 109593,
          "time": 45.87419567285156,
          "velocity": 0.5039370078740157
        },
        {
          "duration": 0.20008454492187155,
          "durationTicks": 478,
          "midi": 38,
          "name": "D2",
          "ticks": 110083,
          "time": 46.079303260742186,
          "velocity": 0.5039370078740157
        },
        {
          "duration": 0.207200522460937,
          "durationTicks": 495,
          "midi": 40,
          "name": "E2",
          "ticks": 110592,
          "time": 46.292364,
          "velocity": 0.5433070866141733
        },
        {
          "duration": 0.1954800888671926,
          "durationTicks": 467,
          "midi": 39,
          "name": "D#2",
          "ticks": 111118,
          "time": 46.51254071679687,
          "velocity": 0.5039370078740157
        },
        {
          "duration": 0.207200522460937,
          "durationTicks": 495,
          "midi": 40,
          "name": "E2",
          "ticks": 111616,
          "time": 46.720997,
          "velocity": 0.5118110236220472
        },
        {
          "duration": 0.1954800888671855,
          "durationTicks": 467,
          "midi": 39,
          "name": "D#2",
          "ticks": 112142,
          "time": 46.941173716796875,
          "velocity": 0.5039370078740157
        },
        {
          "duration": 0.21180497851562308,
          "durationTicks": 506,
          "midi": 43,
          "name": "G2",
          "ticks": 112640,
          "time": 47.14963,
          "velocity": 0.5118110236220472
        },
        {
          "duration": 0.1921313935546891,
          "durationTicks": 459,
          "midi": 42,
          "name": "F#2",
          "ticks": 113177,
          "time": 47.37441117285156,
          "velocity": 0.5039370078740157
        },
        {
          "duration": 0.20008454492187155,
          "durationTicks": 478,
          "midi": 40,
          "name": "E2",
          "ticks": 113667,
          "time": 47.57951876074219,
          "velocity": 0.5039370078740157
        },
        {
          "duration": 0.21431650000000246,
          "durationTicks": 512,
          "midi": 47,
          "name": "B2",
          "ticks": 114176,
          "time": 47.792579499999995,
          "velocity": 0.5433070866141733
        },
        {
          "duration": 0.19757302343749927,
          "durationTicks": 472,
          "midi": 45,
          "name": "A2",
          "ticks": 114719,
          "time": 48.01987219433594,
          "velocity": 0.5039370078740157
        },
        {
          "duration": 0.20175889257812685,
          "durationTicks": 482,
          "midi": 43,
          "name": "G2",
          "ticks": 115222,
          "time": 48.23042141210937,
          "velocity": 0.5039370078740157
        },
        {
          "duration": 0.20050313183593715,
          "durationTicks": 479,
          "midi": 38,
          "name": "D2",
          "ticks": 115735,
          "time": 48.44515649902343,
          "velocity": 0.5039370078740157
        },
        {
          "duration": 0.1929685673828132,
          "durationTicks": 461,
          "midi": 35,
          "name": "B1",
          "ticks": 116245,
          "time": 48.65863582519531,
          "velocity": 0.5039370078740157
        },
        {
          "duration": 0.20092171875000275,
          "durationTicks": 480,
          "midi": 38,
          "name": "D2",
          "ticks": 116737,
          "time": 48.86458058691406,
          "velocity": 0.5039370078740157
        },
        {
          "duration": 0.207200522460937,
          "durationTicks": 495,
          "midi": 36,
          "name": "C2",
          "ticks": 117248,
          "time": 49.078478499999996,
          "velocity": 0.5433070866141733
        },
        {
          "duration": 0.1954800888671855,
          "durationTicks": 467,
          "midi": 35,
          "name": "B1",
          "ticks": 117774,
          "time": 49.298655216796874,
          "velocity": 0.5039370078740157
        },
        {
          "duration": 0.207200522460937,
          "durationTicks": 495,
          "midi": 36,
          "name": "C2",
          "ticks": 118272,
          "time": 49.5071115,
          "velocity": 0.5118110236220472
        },
        {
          "duration": 0.1954800888671926,
          "durationTicks": 467,
          "midi": 35,
          "name": "B1",
          "ticks": 118798,
          "time": 49.72728821679687,
          "velocity": 0.5039370078740157
        },
        {
          "duration": 0.2243625859374987,
          "durationTicks": 536,
          "midi": 36,
          "name": "C2",
          "ticks": 119296,
          "time": 49.9357445,
          "velocity": 0.5118110236220472
        },
        {
          "duration": 0.1921313935546891,
          "durationTicks": 459,
          "midi": 36,
          "name": "C2",
          "ticks": 119833,
          "time": 50.16052567285156,
          "velocity": 0.5039370078740157
        },
        {
          "duration": 0.20008454492187155,
          "durationTicks": 478,
          "midi": 35,
          "name": "B1",
          "ticks": 120323,
          "time": 50.365633260742186,
          "velocity": 0.5039370078740157
        },
        {
          "duration": 0.207200522460937,
          "durationTicks": 495,
          "midi": 38,
          "name": "D2",
          "ticks": 120832,
          "time": 50.578694,
          "velocity": 0.5433070866141733
        },
        {
          "duration": 0.1954800888671926,
          "durationTicks": 467,
          "midi": 36,
          "name": "C2",
          "ticks": 121358,
          "time": 50.79887071679687,
          "velocity": 0.5039370078740157
        },
        {
          "duration": 0.207200522460937,
          "durationTicks": 495,
          "midi": 35,
          "name": "B1",
          "ticks": 121856,
          "time": 51.007327,
          "velocity": 0.5118110236220472
        },
        {
          "duration": 0.1954800888671855,
          "durationTicks": 467,
          "midi": 33,
          "name": "A1",
          "ticks": 122382,
          "time": 51.227503716796875,
          "velocity": 0.5039370078740157
        },
        {
          "duration": 0.21180497851562308,
          "durationTicks": 506,
          "midi": 35,
          "name": "B1",
          "ticks": 122880,
          "time": 51.43596,
          "velocity": 0.5118110236220472
        },
        {
          "duration": 0.1921313935546891,
          "durationTicks": 459,
          "midi": 36,
          "name": "C2",
          "ticks": 123417,
          "time": 51.66074117285156,
          "velocity": 0.5039370078740157
        },
        {
          "duration": 0.20008454492187155,
          "durationTicks": 478,
          "midi": 35,
          "name": "B1",
          "ticks": 123907,
          "time": 51.86584876074219,
          "velocity": 0.5039370078740157
        },
        {
          "duration": 0.207200522460937,
          "durationTicks": 495,
          "midi": 33,
          "name": "A1",
          "ticks": 124416,
          "time": 52.0789095,
          "velocity": 0.5433070866141733
        },
        {
          "duration": 0.1954800888671855,
          "durationTicks": 467,
          "midi": 31,
          "name": "G1",
          "ticks": 124942,
          "time": 52.29908621679687,
          "velocity": 0.5039370078740157
        },
        {
          "duration": 0.207200522460937,
          "durationTicks": 495,
          "midi": 33,
          "name": "A1",
          "ticks": 125440,
          "time": 52.5075425,
          "velocity": 0.5118110236220472
        },
        {
          "duration": 0.1954800888671926,
          "durationTicks": 467,
          "midi": 31,
          "name": "G1",
          "ticks": 125966,
          "time": 52.72771921679687,
          "velocity": 0.5039370078740157
        },
        {
          "duration": 0.2243625859374987,
          "durationTicks": 536,
          "midi": 33,
          "name": "A1",
          "ticks": 126464,
          "time": 52.9361755,
          "velocity": 0.5118110236220472
        },
        {
          "duration": 0.1921313935546891,
          "durationTicks": 459,
          "midi": 33,
          "name": "A1",
          "ticks": 127001,
          "time": 53.16095667285156,
          "velocity": 0.5039370078740157
        },
        {
          "duration": 0.20008454492187866,
          "durationTicks": 478,
          "midi": 31,
          "name": "G1",
          "ticks": 127491,
          "time": 53.366064260742185,
          "velocity": 0.5039370078740157
        },
        {
          "duration": 0.22687410742187808,
          "durationTicks": 542,
          "midi": 33,
          "name": "A1",
          "ticks": 128000,
          "time": 53.579125,
          "velocity": 0.5433070866141733
        },
        {
          "duration": 0.19757302343749927,
          "durationTicks": 472,
          "midi": 33,
          "name": "A1",
          "ticks": 128543,
          "time": 53.806417694335934,
          "velocity": 0.5039370078740157
        },
        {
          "duration": 0.20175889257812685,
          "durationTicks": 482,
          "midi": 31,
          "name": "G1",
          "ticks": 129046,
          "time": 54.016966912109375,
          "velocity": 0.5039370078740157
        },
        {
          "duration": 0.20050313183593715,
          "durationTicks": 479,
          "midi": 38,
          "name": "D2",
          "ticks": 129559,
          "time": 54.231701999023436,
          "velocity": 0.5039370078740157
        },
        {
          "duration": 0.1929685673828061,
          "durationTicks": 461,
          "midi": 35,
          "name": "B1",
          "ticks": 130069,
          "time": 54.445181325195314,
          "velocity": 0.5039370078740157
        },
        {
          "duration": 0.20092171875000275,
          "durationTicks": 480,
          "midi": 33,
          "name": "A1",
          "ticks": 130561,
          "time": 54.65112608691406,
          "velocity": 0.5039370078740157
        },
        {
          "duration": 0.207200522460937,
          "durationTicks": 495,
          "midi": 35,
          "name": "B1",
          "ticks": 131072,
          "time": 54.865024,
          "velocity": 0.5433070866141733
        },
        {
          "duration": 0.1954800888671855,
          "durationTicks": 467,
          "midi": 33,
          "name": "A1",
          "ticks": 131598,
          "time": 55.08520071679688,
          "velocity": 0.5039370078740157
        },
        {
          "duration": 0.207200522460937,
          "durationTicks": 495,
          "midi": 35,
          "name": "B1",
          "ticks": 132096,
          "time": 55.293656999999996,
          "velocity": 0.5118110236220472
        },
        {
          "duration": 0.1954800888671855,
          "durationTicks": 467,
          "midi": 33,
          "name": "A1",
          "ticks": 132622,
          "time": 55.513833716796874,
          "velocity": 0.5039370078740157
        },
        {
          "duration": 0.21180497851562308,
          "durationTicks": 506,
          "midi": 38,
          "name": "D2",
          "ticks": 133120,
          "time": 55.72229,
          "velocity": 0.5118110236220472
        },
        {
          "duration": 0.1921313935546891,
          "durationTicks": 459,
          "midi": 36,
          "name": "C2",
          "ticks": 133657,
          "time": 55.94707117285156,
          "velocity": 0.5039370078740157
        },
        {
          "duration": 0.21264215234374717,
          "durationTicks": 508,
          "midi": 35,
          "name": "B1",
          "ticks": 134147,
          "time": 56.15217876074219,
          "velocity": 0.5039370078740157
        },
        {
          "duration": 0.207200522460937,
          "durationTicks": 495,
          "midi": 35,
          "name": "B1",
          "ticks": 134656,
          "time": 56.3652395,
          "velocity": 0.5433070866141733
        },
        {
          "duration": 0.1954800888671855,
          "durationTicks": 467,
          "midi": 33,
          "name": "A1",
          "ticks": 135182,
          "time": 56.58541621679687,
          "velocity": 0.5039370078740157
        },
        {
          "duration": 0.207200522460937,
          "durationTicks": 495,
          "midi": 35,
          "name": "B1",
          "ticks": 135680,
          "time": 56.7938725,
          "velocity": 0.5118110236220472
        },
        {
          "duration": 0.1954800888671926,
          "durationTicks": 467,
          "midi": 33,
          "name": "A1",
          "ticks": 136206,
          "time": 57.01404921679687,
          "velocity": 0.5039370078740157
        },
        {
          "duration": 0.21180497851562308,
          "durationTicks": 506,
          "midi": 36,
          "name": "C2",
          "ticks": 136704,
          "time": 57.2225055,
          "velocity": 0.5118110236220472
        },
        {
          "duration": 0.1921313935546891,
          "durationTicks": 459,
          "midi": 38,
          "name": "D2",
          "ticks": 137241,
          "time": 57.44728667285156,
          "velocity": 0.5039370078740157
        },
        {
          "duration": 0.21264215234375428,
          "durationTicks": 508,
          "midi": 40,
          "name": "E2",
          "ticks": 137731,
          "time": 57.652394260742184,
          "velocity": 0.5039370078740157
        },
        {
          "duration": 0.207200522460937,
          "durationTicks": 495,
          "midi": 40,
          "name": "E2",
          "ticks": 138240,
          "time": 57.865455,
          "velocity": 0.5433070866141733
        },
        {
          "duration": 0.1954800888671855,
          "durationTicks": 467,
          "midi": 39,
          "name": "D#2",
          "ticks": 138766,
          "time": 58.085631716796875,
          "velocity": 0.5039370078740157
        },
        {
          "duration": 0.20720052246094411,
          "durationTicks": 495,
          "midi": 40,
          "name": "E2",
          "ticks": 139264,
          "time": 58.294087999999995,
          "velocity": 0.5118110236220472
        },
        {
          "duration": 0.1954800888671855,
          "durationTicks": 467,
          "midi": 39,
          "name": "D#2",
          "ticks": 139790,
          "time": 58.51426471679687,
          "velocity": 0.5039370078740157
        },
        {
          "duration": 0.21180497851562308,
          "durationTicks": 506,
          "midi": 43,
          "name": "G2",
          "ticks": 140288,
          "time": 58.722721,
          "velocity": 0.5118110236220472
        },
        {
          "duration": 0.1921313935546891,
          "durationTicks": 459,
          "midi": 42,
          "name": "F#2",
          "ticks": 140825,
          "time": 58.94750217285156,
          "velocity": 0.5039370078740157
        },
        {
          "duration": 0.20008454492187155,
          "durationTicks": 478,
          "midi": 40,
          "name": "E2",
          "ticks": 141315,
          "time": 59.15260976074219,
          "velocity": 0.5039370078740157
        },
        {
          "duration": 0.21431649999999536,
          "durationTicks": 512,
          "midi": 47,
          "name": "B2",
          "ticks": 141824,
          "time": 59.3656705,
          "velocity": 0.5433070866141733
        },
        {
          "duration": 0.19757302343749927,
          "durationTicks": 472,
          "midi": 45,
          "name": "A2",
          "ticks": 142367,
          "time": 59.59296319433594,
          "velocity": 0.5039370078740157
        },
        {
          "duration": 0.20175889257812685,
          "durationTicks": 482,
          "midi": 43,
          "name": "G2",
          "ticks": 142870,
          "time": 59.80351241210937,
          "velocity": 0.5039370078740157
        },
        {
          "duration": 0.20050313183593715,
          "durationTicks": 479,
          "midi": 38,
          "name": "D2",
          "ticks": 143383,
          "time": 60.01824749902344,
          "velocity": 0.5039370078740157
        },
        {
          "duration": 0.1929685673828132,
          "durationTicks": 461,
          "midi": 35,
          "name": "B1",
          "ticks": 143893,
          "time": 60.23172682519531,
          "velocity": 0.5039370078740157
        },
        {
          "duration": 0.20092171874999565,
          "durationTicks": 480,
          "midi": 38,
          "name": "D2",
          "ticks": 144385,
          "time": 60.437671586914064,
          "velocity": 0.5039370078740157
        },
        {
          "duration": 0.207200522460937,
          "durationTicks": 495,
          "midi": 36,
          "name": "C2",
          "ticks": 144896,
          "time": 60.6515695,
          "velocity": 0.5433070866141733
        },
        {
          "duration": 0.1954800888671855,
          "durationTicks": 467,
          "midi": 35,
          "name": "B1",
          "ticks": 145422,
          "time": 60.87174621679687,
          "velocity": 0.5039370078740157
        },
        {
          "duration": 0.207200522460937,
          "durationTicks": 495,
          "midi": 36,
          "name": "C2",
          "ticks": 145920,
          "time": 61.0802025,
          "velocity": 0.5118110236220472
        },
        {
          "duration": 0.1954800888671926,
          "durationTicks": 467,
          "midi": 35,
          "name": "B1",
          "ticks": 146446,
          "time": 61.30037921679687,
          "velocity": 0.5039370078740157
        },
        {
          "duration": 0.2243625859374987,
          "durationTicks": 536,
          "midi": 36,
          "name": "C2",
          "ticks": 146944,
          "time": 61.508835499999996,
          "velocity": 0.5118110236220472
        },
        {
          "duration": 0.1921313935546891,
          "durationTicks": 459,
          "midi": 36,
          "name": "C2",
          "ticks": 147481,
          "time": 61.73361667285156,
          "velocity": 0.5039370078740157
        },
        {
          "duration": 0.20008454492187866,
          "durationTicks": 478,
          "midi": 35,
          "name": "B1",
          "ticks": 147971,
          "time": 61.938724260742184,
          "velocity": 0.5039370078740157
        },
        {
          "duration": 0.207200522460937,
          "durationTicks": 495,
          "midi": 38,
          "name": "D2",
          "ticks": 148480,
          "time": 62.151785,
          "velocity": 0.5433070866141733
        },
        {
          "duration": 0.1954800888671855,
          "durationTicks": 467,
          "midi": 36,
          "name": "C2",
          "ticks": 149006,
          "time": 62.371961716796875,
          "velocity": 0.5039370078740157
        },
        {
          "duration": 0.20720052246094411,
          "durationTicks": 495,
          "midi": 35,
          "name": "B1",
          "ticks": 149504,
          "time": 62.580417999999995,
          "velocity": 0.5118110236220472
        },
        {
          "duration": 0.1954800888671855,
          "durationTicks": 467,
          "midi": 33,
          "name": "A1",
          "ticks": 150030,
          "time": 62.80059471679687,
          "velocity": 0.5039370078740157
        },
        {
          "duration": 0.21180497851562308,
          "durationTicks": 506,
          "midi": 35,
          "name": "B1",
          "ticks": 150528,
          "time": 63.009051,
          "velocity": 0.5118110236220472
        },
        {
          "duration": 0.192131393554682,
          "durationTicks": 459,
          "midi": 36,
          "name": "C2",
          "ticks": 151065,
          "time": 63.233832172851564,
          "velocity": 0.5039370078740157
        },
        {
          "duration": 0.20008454492187155,
          "durationTicks": 478,
          "midi": 35,
          "name": "B1",
          "ticks": 151555,
          "time": 63.43893976074219,
          "velocity": 0.5039370078740157
        },
        {
          "duration": 0.207200522460937,
          "durationTicks": 495,
          "midi": 33,
          "name": "A1",
          "ticks": 152064,
          "time": 63.6520005,
          "velocity": 0.5433070866141733
        },
        {
          "duration": 0.1954800888671855,
          "durationTicks": 467,
          "midi": 31,
          "name": "G1",
          "ticks": 152590,
          "time": 63.87217721679687,
          "velocity": 0.5039370078740157
        },
        {
          "duration": 0.207200522460937,
          "durationTicks": 495,
          "midi": 33,
          "name": "A1",
          "ticks": 153088,
          "time": 64.0806335,
          "velocity": 0.5118110236220472
        },
        {
          "duration": 0.1954800888671855,
          "durationTicks": 467,
          "midi": 31,
          "name": "G1",
          "ticks": 153614,
          "time": 64.30081021679688,
          "velocity": 0.5039370078740157
        },
        {
          "duration": 0.2243625859374987,
          "durationTicks": 536,
          "midi": 33,
          "name": "A1",
          "ticks": 154112,
          "time": 64.5092665,
          "velocity": 0.5118110236220472
        },
        {
          "duration": 0.1921313935546891,
          "durationTicks": 459,
          "midi": 33,
          "name": "A1",
          "ticks": 154649,
          "time": 64.73404767285156,
          "velocity": 0.5039370078740157
        },
        {
          "duration": 0.20008454492187866,
          "durationTicks": 478,
          "midi": 31,
          "name": "G1",
          "ticks": 155139,
          "time": 64.93915526074218,
          "velocity": 0.5039370078740157
        },
        {
          "duration": 0.22687410742187808,
          "durationTicks": 542,
          "midi": 33,
          "name": "A1",
          "ticks": 155648,
          "time": 65.152216,
          "velocity": 0.5433070866141733
        },
        {
          "duration": 0.19757302343749927,
          "durationTicks": 472,
          "midi": 33,
          "name": "A1",
          "ticks": 156191,
          "time": 65.37950869433594,
          "velocity": 0.5039370078740157
        },
        {
          "duration": 0.20175889257812685,
          "durationTicks": 482,
          "midi": 31,
          "name": "G1",
          "ticks": 156694,
          "time": 65.59005791210937,
          "velocity": 0.5039370078740157
        },
        {
          "duration": 0.20050313183594426,
          "durationTicks": 479,
          "midi": 38,
          "name": "D2",
          "ticks": 157207,
          "time": 65.80479299902343,
          "velocity": 0.5039370078740157
        },
        {
          "duration": 0.1929685673828061,
          "durationTicks": 461,
          "midi": 35,
          "name": "B1",
          "ticks": 157717,
          "time": 66.01827232519531,
          "velocity": 0.5039370078740157
        },
        {
          "duration": 0.20092171874999565,
          "durationTicks": 480,
          "midi": 33,
          "name": "A1",
          "ticks": 158209,
          "time": 66.22421708691407,
          "velocity": 0.5039370078740157
        },
        {
          "duration": 0.207200522460937,
          "durationTicks": 495,
          "midi": 35,
          "name": "B1",
          "ticks": 158720,
          "time": 66.438115,
          "velocity": 0.5433070866141733
        },
        {
          "duration": 0.1954800888671997,
          "durationTicks": 467,
          "midi": 33,
          "name": "A1",
          "ticks": 159246,
          "time": 66.65829171679687,
          "velocity": 0.5039370078740157
        },
        {
          "duration": 0.207200522460937,
          "durationTicks": 495,
          "midi": 35,
          "name": "B1",
          "ticks": 159744,
          "time": 66.866748,
          "velocity": 0.5118110236220472
        },
        {
          "duration": 0.1954800888671855,
          "durationTicks": 467,
          "midi": 33,
          "name": "A1",
          "ticks": 160270,
          "time": 67.08692471679687,
          "velocity": 0.5039370078740157
        },
        {
          "duration": 0.21180497851563018,
          "durationTicks": 506,
          "midi": 38,
          "name": "D2",
          "ticks": 160768,
          "time": 67.29538099999999,
          "velocity": 0.5118110236220472
        },
        {
          "duration": 0.1921313935546891,
          "durationTicks": 459,
          "midi": 36,
          "name": "C2",
          "ticks": 161305,
          "time": 67.52016217285156,
          "velocity": 0.5039370078740157
        },
        {
          "duration": 0.21264215234376138,
          "durationTicks": 508,
          "midi": 35,
          "name": "B1",
          "ticks": 161795,
          "time": 67.72526976074218,
          "velocity": 0.5039370078740157
        },
        {
          "duration": 0.207200522460937,
          "durationTicks": 495,
          "midi": 35,
          "name": "B1",
          "ticks": 162304,
          "time": 67.93833049999999,
          "velocity": 0.5433070866141733
        },
        {
          "duration": 0.1954800888671855,
          "durationTicks": 467,
          "midi": 33,
          "name": "A1",
          "ticks": 162830,
          "time": 68.15850721679688,
          "velocity": 0.5039370078740157
        },
        {
          "duration": 0.207200522460937,
          "durationTicks": 495,
          "midi": 35,
          "name": "B1",
          "ticks": 163328,
          "time": 68.3669635,
          "velocity": 0.5118110236220472
        },
        {
          "duration": 0.1954800888671855,
          "durationTicks": 467,
          "midi": 33,
          "name": "A1",
          "ticks": 163854,
          "time": 68.58714021679687,
          "velocity": 0.5039370078740157
        },
        {
          "duration": 0.21180497851561597,
          "durationTicks": 506,
          "midi": 36,
          "name": "C2",
          "ticks": 164352,
          "time": 68.7955965,
          "velocity": 0.5118110236220472
        },
        {
          "duration": 0.1921313935546749,
          "durationTicks": 459,
          "midi": 38,
          "name": "D2",
          "ticks": 164889,
          "time": 69.02037767285157,
          "velocity": 0.5039370078740157
        },
        {
          "duration": 0.21264215234374717,
          "durationTicks": 508,
          "midi": 40,
          "name": "E2",
          "ticks": 165379,
          "time": 69.22548526074219,
          "velocity": 0.5039370078740157
        },
        {
          "duration": 0.22645552050781248,
          "durationTicks": 541,
          "midi": 40,
          "name": "E2",
          "ticks": 165892,
          "time": 69.44022034765625,
          "velocity": 0.8346456692913385
        },
        {
          "duration": 0.42360995703124615,
          "durationTicks": 1012,
          "midi": 40,
          "name": "E2",
          "ticks": 166434,
          "time": 69.66709445507813,
          "velocity": 0.7952755905511811
        },
        {
          "duration": 0.21306073925781277,
          "durationTicks": 509,
          "midi": 40,
          "name": "E2",
          "ticks": 167447,
          "time": 70.09112299902344,
          "velocity": 0.7952755905511811
        },
        {
          "duration": 0.42444713085937735,
          "durationTicks": 1014,
          "midi": 40,
          "name": "E2",
          "ticks": 167957,
          "time": 70.3046023251953,
          "velocity": 0.8188976377952756
        },
        {
          "duration": 0.42319137011719477,
          "durationTicks": 1011,
          "midi": 42,
          "name": "F#2",
          "ticks": 168972,
          "time": 70.72946804296875,
          "velocity": 0.8031496062992126
        },
        {
          "duration": 0.22645552050781248,
          "durationTicks": 541,
          "midi": 40,
          "name": "E2",
          "ticks": 169988,
          "time": 71.15475234765624,
          "velocity": 0.7401574803149606
        },
        {
          "duration": 0.21222356542969578,
          "durationTicks": 507,
          "midi": 40,
          "name": "E2",
          "ticks": 170530,
          "time": 71.38162645507812,
          "velocity": 0.7007874015748031
        },
        {
          "duration": 0.21096780468749898,
          "durationTicks": 504,
          "midi": 40,
          "name": "E2",
          "ticks": 171038,
          "time": 71.59426860742187,
          "velocity": 0.7086614173228346
        },
        {
          "duration": 0.22603693359374688,
          "durationTicks": 540,
          "midi": 40,
          "name": "E2",
          "ticks": 171543,
          "time": 71.80565499902343,
          "velocity": 0.7007874015748031
        },
        {
          "duration": 0.2239439990234331,
          "durationTicks": 535,
          "midi": 40,
          "name": "E2",
          "ticks": 172563,
          "time": 72.23261365136719,
          "velocity": 0.7007874015748031
        },
        {
          "duration": 0.42319137011718055,
          "durationTicks": 1011,
          "midi": 38,
          "name": "D2",
          "ticks": 173068,
          "time": 72.44400004296875,
          "velocity": 0.8031496062992126
        },
        {
          "duration": 0.22645552050781248,
          "durationTicks": 541,
          "midi": 40,
          "name": "E2",
          "ticks": 174084,
          "time": 72.86928434765625,
          "velocity": 0.8346456692913385
        },
        {
          "duration": 0.42360995703124615,
          "durationTicks": 1012,
          "midi": 40,
          "name": "E2",
          "ticks": 174626,
          "time": 73.09615845507813,
          "velocity": 0.7952755905511811
        },
        {
          "duration": 0.21306073925781277,
          "durationTicks": 509,
          "midi": 40,
          "name": "E2",
          "ticks": 175639,
          "time": 73.52018699902344,
          "velocity": 0.7952755905511811
        },
        {
          "duration": 0.42444713085936314,
          "durationTicks": 1014,
          "midi": 40,
          "name": "E2",
          "ticks": 176149,
          "time": 73.73366632519532,
          "velocity": 0.8188976377952756
        },
        {
          "duration": 0.42319137011719477,
          "durationTicks": 1011,
          "midi": 42,
          "name": "F#2",
          "ticks": 177164,
          "time": 74.15853204296874,
          "velocity": 0.8031496062992126
        },
        {
          "duration": 0.22645552050781248,
          "durationTicks": 541,
          "midi": 40,
          "name": "E2",
          "ticks": 178180,
          "time": 74.58381634765625,
          "velocity": 0.7401574803149606
        },
        {
          "duration": 0.21222356542969578,
          "durationTicks": 507,
          "midi": 40,
          "name": "E2",
          "ticks": 178722,
          "time": 74.81069045507812,
          "velocity": 0.7007874015748031
        },
        {
          "duration": 0.21096780468749898,
          "durationTicks": 504,
          "midi": 40,
          "name": "E2",
          "ticks": 179230,
          "time": 75.02333260742188,
          "velocity": 0.7086614173228346
        },
        {
          "duration": 0.2260369335937611,
          "durationTicks": 540,
          "midi": 40,
          "name": "E2",
          "ticks": 179735,
          "time": 75.23471899902343,
          "velocity": 0.7007874015748031
        },
        {
          "duration": 0.8480570878906235,
          "durationTicks": 2026,
          "midi": 38,
          "name": "D2",
          "ticks": 180245,
          "time": 75.4481983251953,
          "velocity": 0.8188976377952756
        },
        {
          "duration": 0.207200522460937,
          "durationTicks": 495,
          "midi": 38,
          "name": "D2",
          "ticks": 182272,
          "time": 76.296674,
          "velocity": 0.8346456692913385
        },
        {
          "duration": 0.1954800888671997,
          "durationTicks": 467,
          "midi": 36,
          "name": "C2",
          "ticks": 182798,
          "time": 76.51685071679687,
          "velocity": 0.7952755905511811
        },
        {
          "duration": 0.207200522460937,
          "durationTicks": 495,
          "midi": 38,
          "name": "D2",
          "ticks": 183296,
          "time": 76.725307,
          "velocity": 0.8031496062992126
        },
        {
          "duration": 0.1954800888671855,
          "durationTicks": 467,
          "midi": 36,
          "name": "C2",
          "ticks": 183822,
          "time": 76.94548371679687,
          "velocity": 0.7952755905511811
        },
        {
          "duration": 0.21180497851563018,
          "durationTicks": 506,
          "midi": 41,
          "name": "F2",
          "ticks": 184320,
          "time": 77.15393999999999,
          "velocity": 0.8031496062992126
        },
        {
          "duration": 0.1921313935546891,
          "durationTicks": 459,
          "midi": 40,
          "name": "E2",
          "ticks": 184857,
          "time": 77.37872117285156,
          "velocity": 0.7952755905511811
        },
        {
          "duration": 0.20008454492187866,
          "durationTicks": 478,
          "midi": 38,
          "name": "D2",
          "ticks": 185347,
          "time": 77.58382876074218,
          "velocity": 0.7952755905511811
        },
        {
          "duration": 0.207200522460937,
          "durationTicks": 495,
          "midi": 36,
          "name": "C2",
          "ticks": 185856,
          "time": 77.79688949999999,
          "velocity": 0.8346456692913385
        },
        {
          "duration": 0.1954800888671855,
          "durationTicks": 467,
          "midi": 38,
          "name": "D2",
          "ticks": 186382,
          "time": 78.01706621679688,
          "velocity": 0.7952755905511811
        },
        {
          "duration": 0.207200522460937,
          "durationTicks": 495,
          "midi": 36,
          "name": "C2",
          "ticks": 186880,
          "time": 78.2255225,
          "velocity": 0.8031496062992126
        },
        {
          "duration": 0.1954800888671855,
          "durationTicks": 467,
          "midi": 38,
          "name": "D2",
          "ticks": 187406,
          "time": 78.44569921679687,
          "velocity": 0.7952755905511811
        },
        {
          "duration": 0.21180497851561597,
          "durationTicks": 506,
          "midi": 36,
          "name": "C2",
          "ticks": 187904,
          "time": 78.6541555,
          "velocity": 0.8031496062992126
        },
        {
          "duration": 0.1921313935546749,
          "durationTicks": 459,
          "midi": 33,
          "name": "A1",
          "ticks": 188441,
          "time": 78.87893667285157,
          "velocity": 0.7952755905511811
        },
        {
          "duration": 0.20008454492186445,
          "durationTicks": 478,
          "midi": 36,
          "name": "C2",
          "ticks": 188931,
          "time": 79.08404426074219,
          "velocity": 0.7952755905511811
        },
        {
          "duration": 0.207200522460937,
          "durationTicks": 495,
          "midi": 38,
          "name": "D2",
          "ticks": 189440,
          "time": 79.297105,
          "velocity": 0.8346456692913385
        },
        {
          "duration": 0.1954800888671855,
          "durationTicks": 467,
          "midi": 36,
          "name": "C2",
          "ticks": 189966,
          "time": 79.51728171679687,
          "velocity": 0.7952755905511811
        },
        {
          "duration": 0.207200522460937,
          "durationTicks": 495,
          "midi": 38,
          "name": "D2",
          "ticks": 190464,
          "time": 79.72573799999999,
          "velocity": 0.8031496062992126
        },
        {
          "duration": 0.1954800888671855,
          "durationTicks": 467,
          "midi": 36,
          "name": "C2",
          "ticks": 190990,
          "time": 79.94591471679688,
          "velocity": 0.7952755905511811
        },
        {
          "duration": 0.21180497851563018,
          "durationTicks": 506,
          "midi": 41,
          "name": "F2",
          "ticks": 191488,
          "time": 80.154371,
          "velocity": 0.8031496062992126
        },
        {
          "duration": 0.1921313935546891,
          "durationTicks": 459,
          "midi": 40,
          "name": "E2",
          "ticks": 192025,
          "time": 80.37915217285156,
          "velocity": 0.7952755905511811
        },
        {
          "duration": 0.20008454492187866,
          "durationTicks": 478,
          "midi": 38,
          "name": "D2",
          "ticks": 192515,
          "time": 80.58425976074219,
          "velocity": 0.7952755905511811
        },
        {
          "duration": 0.207200522460937,
          "durationTicks": 495,
          "midi": 36,
          "name": "C2",
          "ticks": 193024,
          "time": 80.7973205,
          "velocity": 0.8346456692913385
        },
        {
          "duration": 0.1954800888671855,
          "durationTicks": 467,
          "midi": 38,
          "name": "D2",
          "ticks": 193550,
          "time": 81.01749721679687,
          "velocity": 0.7952755905511811
        },
        {
          "duration": 0.207200522460937,
          "durationTicks": 495,
          "midi": 36,
          "name": "C2",
          "ticks": 194048,
          "time": 81.2259535,
          "velocity": 0.8031496062992126
        },
        {
          "duration": 0.1954800888671855,
          "durationTicks": 467,
          "midi": 38,
          "name": "D2",
          "ticks": 194574,
          "time": 81.44613021679687,
          "velocity": 0.7952755905511811
        },
        {
          "duration": 0.21180497851563018,
          "durationTicks": 506,
          "midi": 36,
          "name": "C2",
          "ticks": 195072,
          "time": 81.6545865,
          "velocity": 0.8031496062992126
        },
        {
          "duration": 0.1921313935546891,
          "durationTicks": 459,
          "midi": 33,
          "name": "A1",
          "ticks": 195609,
          "time": 81.87936767285156,
          "velocity": 0.7952755905511811
        },
        {
          "duration": 0.20008454492187866,
          "durationTicks": 478,
          "midi": 36,
          "name": "C2",
          "ticks": 196099,
          "time": 82.08447526074218,
          "velocity": 0.7952755905511811
        },
        {
          "duration": 0.22645552050781248,
          "durationTicks": 541,
          "midi": 40,
          "name": "E2",
          "ticks": 196612,
          "time": 82.29921034765624,
          "velocity": 0.8346456692913385
        },
        {
          "duration": 0.42360995703124615,
          "durationTicks": 1012,
          "midi": 40,
          "name": "E2",
          "ticks": 197154,
          "time": 82.52608445507812,
          "velocity": 0.7952755905511811
        },
        {
          "duration": 0.21306073925781277,
          "durationTicks": 509,
          "midi": 40,
          "name": "E2",
          "ticks": 198167,
          "time": 82.95011299902343,
          "velocity": 0.7952755905511811
        },
        {
          "duration": 0.42444713085937735,
          "durationTicks": 1014,
          "midi": 40,
          "name": "E2",
          "ticks": 198677,
          "time": 83.16359232519531,
          "velocity": 0.8188976377952756
        },
        {
          "duration": 0.42319137011718055,
          "durationTicks": 1011,
          "midi": 42,
          "name": "F#2",
          "ticks": 199692,
          "time": 83.58845804296875,
          "velocity": 0.8031496062992126
        },
        {
          "duration": 0.22645552050781248,
          "durationTicks": 541,
          "midi": 40,
          "name": "E2",
          "ticks": 200708,
          "time": 84.01374234765625,
          "velocity": 0.8346456692913385
        },
        {
          "duration": 0.21222356542968157,
          "durationTicks": 507,
          "midi": 40,
          "name": "E2",
          "ticks": 201250,
          "time": 84.24061645507813,
          "velocity": 0.7952755905511811
        },
        {
          "duration": 0.21096780468749898,
          "durationTicks": 504,
          "midi": 40,
          "name": "E2",
          "ticks": 201758,
          "time": 84.45325860742187,
          "velocity": 0.8031496062992126
        },
        {
          "duration": 0.20050313183593005,
          "durationTicks": 479,
          "midi": 40,
          "name": "E2",
          "ticks": 202263,
          "time": 84.66464499902344,
          "velocity": 0.7952755905511811
        },
        {
          "duration": 0.21096780468749898,
          "durationTicks": 504,
          "midi": 38,
          "name": "D2",
          "ticks": 203283,
          "time": 85.09160365136718,
          "velocity": 0.7952755905511811
        },
        {
          "duration": 0.42319137011719477,
          "durationTicks": 1011,
          "midi": 38,
          "name": "D2",
          "ticks": 203788,
          "time": 85.30299004296874,
          "velocity": 0.8031496062992126
        },
        {
          "duration": 0.22645552050781248,
          "durationTicks": 541,
          "midi": 40,
          "name": "E2",
          "ticks": 204804,
          "time": 85.72827434765625,
          "velocity": 0.8346456692913385
        },
        {
          "duration": 0.42360995703126036,
          "durationTicks": 1012,
          "midi": 40,
          "name": "E2",
          "ticks": 205346,
          "time": 85.95514845507812,
          "velocity": 0.7952755905511811
        },
        {
          "duration": 0.21306073925781277,
          "durationTicks": 509,
          "midi": 40,
          "name": "E2",
          "ticks": 206359,
          "time": 86.37917699902343,
          "velocity": 0.7952755905511811
        },
        {
          "duration": 0.42444713085937735,
          "durationTicks": 1014,
          "midi": 40,
          "name": "E2",
          "ticks": 206869,
          "time": 86.5926563251953,
          "velocity": 0.8188976377952756
        },
        {
          "duration": 0.42319137011718055,
          "durationTicks": 1011,
          "midi": 42,
          "name": "F#2",
          "ticks": 207884,
          "time": 87.01752204296875,
          "velocity": 0.8031496062992126
        },
        {
          "duration": 0.22645552050781248,
          "durationTicks": 541,
          "midi": 40,
          "name": "E2",
          "ticks": 208900,
          "time": 87.44280634765624,
          "velocity": 0.7401574803149606
        },
        {
          "duration": 0.21222356542968157,
          "durationTicks": 507,
          "midi": 40,
          "name": "E2",
          "ticks": 209442,
          "time": 87.66968045507812,
          "velocity": 0.7007874015748031
        },
        {
          "duration": 0.21096780468749898,
          "durationTicks": 504,
          "midi": 40,
          "name": "E2",
          "ticks": 209950,
          "time": 87.88232260742187,
          "velocity": 0.7086614173228346
        },
        {
          "duration": 0.22603693359374688,
          "durationTicks": 540,
          "midi": 40,
          "name": "E2",
          "ticks": 210455,
          "time": 88.09370899902343,
          "velocity": 0.7007874015748031
        },
        {
          "duration": 0.8480570878906235,
          "durationTicks": 2026,
          "midi": 38,
          "name": "D2",
          "ticks": 210965,
          "time": 88.30718832519531,
          "velocity": 0.8188976377952756
        },
        {
          "duration": 0.207200522460937,
          "durationTicks": 495,
          "midi": 38,
          "name": "D2",
          "ticks": 212992,
          "time": 89.155664,
          "velocity": 0.8346456692913385
        },
        {
          "duration": 0.1954800888671855,
          "durationTicks": 467,
          "midi": 36,
          "name": "C2",
          "ticks": 213518,
          "time": 89.37584071679687,
          "velocity": 0.7952755905511811
        },
        {
          "duration": 0.207200522460937,
          "durationTicks": 495,
          "midi": 38,
          "name": "D2",
          "ticks": 214016,
          "time": 89.58429699999999,
          "velocity": 0.8031496062992126
        },
        {
          "duration": 0.1954800888671855,
          "durationTicks": 467,
          "midi": 36,
          "name": "C2",
          "ticks": 214542,
          "time": 89.80447371679688,
          "velocity": 0.7952755905511811
        },
        {
          "duration": 0.21180497851563018,
          "durationTicks": 506,
          "midi": 41,
          "name": "F2",
          "ticks": 215040,
          "time": 90.01293,
          "velocity": 0.8031496062992126
        },
        {
          "duration": 0.1921313935546891,
          "durationTicks": 459,
          "midi": 40,
          "name": "E2",
          "ticks": 215577,
          "time": 90.23771117285156,
          "velocity": 0.7952755905511811
        },
        {
          "duration": 0.20008454492187866,
          "durationTicks": 478,
          "midi": 38,
          "name": "D2",
          "ticks": 216067,
          "time": 90.44281876074218,
          "velocity": 0.7952755905511811
        },
        {
          "duration": 0.207200522460937,
          "durationTicks": 495,
          "midi": 36,
          "name": "C2",
          "ticks": 216576,
          "time": 90.6558795,
          "velocity": 0.8346456692913385
        },
        {
          "duration": 0.1954800888671855,
          "durationTicks": 467,
          "midi": 38,
          "name": "D2",
          "ticks": 217102,
          "time": 90.87605621679687,
          "velocity": 0.7952755905511811
        },
        {
          "duration": 0.207200522460937,
          "durationTicks": 495,
          "midi": 36,
          "name": "C2",
          "ticks": 217600,
          "time": 91.0845125,
          "velocity": 0.8031496062992126
        },
        {
          "duration": 0.1954800888671855,
          "durationTicks": 467,
          "midi": 38,
          "name": "D2",
          "ticks": 218126,
          "time": 91.30468921679687,
          "velocity": 0.7952755905511811
        },
        {
          "duration": 0.21180497851563018,
          "durationTicks": 506,
          "midi": 36,
          "name": "C2",
          "ticks": 218624,
          "time": 91.5131455,
          "velocity": 0.8031496062992126
        },
        {
          "duration": 0.1921313935546891,
          "durationTicks": 459,
          "midi": 33,
          "name": "A1",
          "ticks": 219161,
          "time": 91.73792667285156,
          "velocity": 0.7952755905511811
        },
        {
          "duration": 0.20008454492187866,
          "durationTicks": 478,
          "midi": 36,
          "name": "C2",
          "ticks": 219651,
          "time": 91.94303426074218,
          "velocity": 0.7952755905511811
        },
        {
          "duration": 0.207200522460937,
          "durationTicks": 495,
          "midi": 38,
          "name": "D2",
          "ticks": 220160,
          "time": 92.156095,
          "velocity": 0.8346456692913385
        },
        {
          "duration": 0.1954800888671855,
          "durationTicks": 467,
          "midi": 36,
          "name": "C2",
          "ticks": 220686,
          "time": 92.37627171679688,
          "velocity": 0.7952755905511811
        },
        {
          "duration": 0.207200522460937,
          "durationTicks": 495,
          "midi": 38,
          "name": "D2",
          "ticks": 221184,
          "time": 92.584728,
          "velocity": 0.8031496062992126
        },
        {
          "duration": 0.1954800888671855,
          "durationTicks": 467,
          "midi": 36,
          "name": "C2",
          "ticks": 221710,
          "time": 92.80490471679687,
          "velocity": 0.7952755905511811
        },
        {
          "duration": 0.21180497851561597,
          "durationTicks": 506,
          "midi": 41,
          "name": "F2",
          "ticks": 222208,
          "time": 93.013361,
          "velocity": 0.8031496062992126
        },
        {
          "duration": 0.1921313935546891,
          "durationTicks": 459,
          "midi": 40,
          "name": "E2",
          "ticks": 222745,
          "time": 93.23814217285155,
          "velocity": 0.7952755905511811
        },
        {
          "duration": 0.20008454492186445,
          "durationTicks": 478,
          "midi": 38,
          "name": "D2",
          "ticks": 223235,
          "time": 93.44324976074219,
          "velocity": 0.7952755905511811
        },
        {
          "duration": 0.207200522460937,
          "durationTicks": 495,
          "midi": 36,
          "name": "C2",
          "ticks": 223744,
          "time": 93.6563105,
          "velocity": 0.8346456692913385
        },
        {
          "duration": 0.1954800888671855,
          "durationTicks": 467,
          "midi": 38,
          "name": "D2",
          "ticks": 224270,
          "time": 93.87648721679687,
          "velocity": 0.7952755905511811
        },
        {
          "duration": 0.207200522460937,
          "durationTicks": 495,
          "midi": 36,
          "name": "C2",
          "ticks": 224768,
          "time": 94.0849435,
          "velocity": 0.8031496062992126
        },
        {
          "duration": 0.1954800888671997,
          "durationTicks": 467,
          "midi": 38,
          "name": "D2",
          "ticks": 225294,
          "time": 94.30512021679687,
          "velocity": 0.7952755905511811
        },
        {
          "duration": 0.21180497851561597,
          "durationTicks": 506,
          "midi": 36,
          "name": "C2",
          "ticks": 225792,
          "time": 94.5135765,
          "velocity": 0.8031496062992126
        },
        {
          "duration": 0.1921313935546891,
          "durationTicks": 459,
          "midi": 33,
          "name": "A1",
          "ticks": 226329,
          "time": 94.73835767285156,
          "velocity": 0.7952755905511811
        },
        {
          "duration": 0.20008454492187866,
          "durationTicks": 478,
          "midi": 36,
          "name": "C2",
          "ticks": 226819,
          "time": 94.94346526074219,
          "velocity": 0.7952755905511811
        },
        {
          "duration": 0.22645552050781248,
          "durationTicks": 541,
          "midi": 33,
          "name": "A1",
          "ticks": 227332,
          "time": 95.15820034765625,
          "velocity": 0.8346456692913385
        },
        {
          "duration": 0.42360995703124615,
          "durationTicks": 1012,
          "midi": 33,
          "name": "A1",
          "ticks": 227874,
          "time": 95.38507445507813,
          "velocity": 0.7952755905511811
        },
        {
          "duration": 0.21306073925781277,
          "durationTicks": 509,
          "midi": 33,
          "name": "A1",
          "ticks": 228887,
          "time": 95.80910299902344,
          "velocity": 0.7952755905511811
        },
        {
          "duration": 0.42444713085936314,
          "durationTicks": 1014,
          "midi": 33,
          "name": "A1",
          "ticks": 229397,
          "time": 96.02258232519532,
          "velocity": 0.8188976377952756
        },
        {
          "duration": 0.42319137011719477,
          "durationTicks": 1011,
          "midi": 31,
          "name": "G1",
          "ticks": 230412,
          "time": 96.44744804296874,
          "velocity": 0.8031496062992126
        },
        {
          "duration": 0.22645552050781248,
          "durationTicks": 541,
          "midi": 33,
          "name": "A1",
          "ticks": 231428,
          "time": 96.87273234765625,
          "velocity": 0.8346456692913385
        },
        {
          "duration": 0.21222356542969578,
          "durationTicks": 507,
          "midi": 33,
          "name": "A1",
          "ticks": 231970,
          "time": 97.09960645507812,
          "velocity": 0.7952755905511811
        },
        {
          "duration": 0.21096780468749898,
          "durationTicks": 504,
          "midi": 33,
          "name": "A1",
          "ticks": 232478,
          "time": 97.31224860742188,
          "velocity": 0.8031496062992126
        },
        {
          "duration": 0.20050313183594426,
          "durationTicks": 479,
          "midi": 33,
          "name": "A1",
          "ticks": 232983,
          "time": 97.52363499902343,
          "velocity": 0.7952755905511811
        },
        {
          "duration": 0.21096780468749898,
          "durationTicks": 504,
          "midi": 35,
          "name": "B1",
          "ticks": 234003,
          "time": 97.95059365136719,
          "velocity": 0.7952755905511811
        },
        {
          "duration": 0.42319137011718055,
          "durationTicks": 1011,
          "midi": 35,
          "name": "B1",
          "ticks": 234508,
          "time": 98.16198004296875,
          "velocity": 0.8031496062992126
        },
        {
          "duration": 0.22645552050781248,
          "durationTicks": 541,
          "midi": 33,
          "name": "A1",
          "ticks": 235524,
          "time": 98.58726434765624,
          "velocity": 0.8346456692913385
        },
        {
          "duration": 0.42360995703124615,
          "durationTicks": 1012,
          "midi": 33,
          "name": "A1",
          "ticks": 236066,
          "time": 98.81413845507812,
          "velocity": 0.7952755905511811
        },
        {
          "duration": 0.21306073925781277,
          "durationTicks": 509,
          "midi": 33,
          "name": "A1",
          "ticks": 237079,
          "time": 99.23816699902343,
          "velocity": 0.7952755905511811
        },
        {
          "duration": 0.42444713085937735,
          "durationTicks": 1014,
          "midi": 33,
          "name": "A1",
          "ticks": 237589,
          "time": 99.45164632519531,
          "velocity": 0.8188976377952756
        },
        {
          "duration": 0.42319137011719477,
          "durationTicks": 1011,
          "midi": 31,
          "name": "G1",
          "ticks": 238604,
          "time": 99.87651204296874,
          "velocity": 0.8031496062992126
        },
        {
          "duration": 0.22645552050781248,
          "durationTicks": 541,
          "midi": 33,
          "name": "A1",
          "ticks": 239620,
          "time": 100.30179634765625,
          "velocity": 0.7401574803149606
        },
        {
          "duration": 0.21222356542968157,
          "durationTicks": 507,
          "midi": 33,
          "name": "A1",
          "ticks": 240162,
          "time": 100.52867045507813,
          "velocity": 0.7007874015748031
        },
        {
          "duration": 0.21096780468749898,
          "durationTicks": 504,
          "midi": 33,
          "name": "A1",
          "ticks": 240670,
          "time": 100.74131260742188,
          "velocity": 0.7086614173228346
        },
        {
          "duration": 0.22603693359374688,
          "durationTicks": 540,
          "midi": 33,
          "name": "A1",
          "ticks": 241175,
          "time": 100.95269899902344,
          "velocity": 0.7007874015748031
        },
        {
          "duration": 0.8480570878906235,
          "durationTicks": 2026,
          "midi": 35,
          "name": "B1",
          "ticks": 241685,
          "time": 101.1661783251953,
          "velocity": 0.8188976377952756
        },
        {
          "duration": 0.207200522460937,
          "durationTicks": 495,
          "midi": 40,
          "name": "E2",
          "ticks": 285184,
          "time": 119.3742905,
          "velocity": 0.6299212598425197
        },
        {
          "duration": 0.1954800888671855,
          "durationTicks": 467,
          "midi": 39,
          "name": "D#2",
          "ticks": 285710,
          "time": 119.59446721679687,
          "velocity": 0.5905511811023622
        },
        {
          "duration": 0.207200522460937,
          "durationTicks": 495,
          "midi": 40,
          "name": "E2",
          "ticks": 286208,
          "time": 119.80292349999999,
          "velocity": 0.5984251968503937
        },
        {
          "duration": 0.1954800888671855,
          "durationTicks": 467,
          "midi": 39,
          "name": "D#2",
          "ticks": 286734,
          "time": 120.02310021679688,
          "velocity": 0.5905511811023622
        },
        {
          "duration": 0.21180497851563018,
          "durationTicks": 506,
          "midi": 43,
          "name": "G2",
          "ticks": 287232,
          "time": 120.2315565,
          "velocity": 0.5984251968503937
        },
        {
          "duration": 0.1921313935546891,
          "durationTicks": 459,
          "midi": 42,
          "name": "F#2",
          "ticks": 287769,
          "time": 120.45633767285156,
          "velocity": 0.5905511811023622
        },
        {
          "duration": 0.20008454492187866,
          "durationTicks": 478,
          "midi": 40,
          "name": "E2",
          "ticks": 288259,
          "time": 120.66144526074218,
          "velocity": 0.5905511811023622
        },
        {
          "duration": 0.21431649999999536,
          "durationTicks": 512,
          "midi": 47,
          "name": "B2",
          "ticks": 288768,
          "time": 120.874506,
          "velocity": 0.6299212598425197
        },
        {
          "duration": 0.19757302343749927,
          "durationTicks": 472,
          "midi": 45,
          "name": "A2",
          "ticks": 289311,
          "time": 121.10179869433594,
          "velocity": 0.5905511811023622
        },
        {
          "duration": 0.20175889257812685,
          "durationTicks": 482,
          "midi": 43,
          "name": "G2",
          "ticks": 289814,
          "time": 121.31234791210937,
          "velocity": 0.5905511811023622
        },
        {
          "duration": 0.20050313183593005,
          "durationTicks": 479,
          "midi": 38,
          "name": "D2",
          "ticks": 290327,
          "time": 121.52708299902343,
          "velocity": 0.5905511811023622
        },
        {
          "duration": 0.1929685673828061,
          "durationTicks": 461,
          "midi": 35,
          "name": "B1",
          "ticks": 290837,
          "time": 121.74056232519531,
          "velocity": 0.5905511811023622
        },
        {
          "duration": 0.20092171875000986,
          "durationTicks": 480,
          "midi": 38,
          "name": "D2",
          "ticks": 291329,
          "time": 121.94650708691405,
          "velocity": 0.5905511811023622
        },
        {
          "duration": 0.207200522460937,
          "durationTicks": 495,
          "midi": 40,
          "name": "E2",
          "ticks": 291840,
          "time": 122.160405,
          "velocity": 0.6299212598425197
        },
        {
          "duration": 0.1954800888671855,
          "durationTicks": 467,
          "midi": 39,
          "name": "D#2",
          "ticks": 292366,
          "time": 122.38058171679687,
          "velocity": 0.5905511811023622
        },
        {
          "duration": 0.207200522460937,
          "durationTicks": 495,
          "midi": 40,
          "name": "E2",
          "ticks": 292864,
          "time": 122.589038,
          "velocity": 0.5984251968503937
        },
        {
          "duration": 0.1954800888671855,
          "durationTicks": 467,
          "midi": 39,
          "name": "D#2",
          "ticks": 293390,
          "time": 122.80921471679687,
          "velocity": 0.5905511811023622
        },
        {
          "duration": 0.21180497851563018,
          "durationTicks": 506,
          "midi": 43,
          "name": "G2",
          "ticks": 293888,
          "time": 123.01767099999999,
          "velocity": 0.5984251968503937
        },
        {
          "duration": 0.1921313935546891,
          "durationTicks": 459,
          "midi": 39,
          "name": "D#2",
          "ticks": 294425,
          "time": 123.24245217285156,
          "velocity": 0.5905511811023622
        },
        {
          "duration": 0.21264215234374717,
          "durationTicks": 508,
          "midi": 40,
          "name": "E2",
          "ticks": 294915,
          "time": 123.44755976074218,
          "velocity": 0.5905511811023622
        },
        {
          "duration": 0.207200522460937,
          "durationTicks": 495,
          "midi": 40,
          "name": "E2",
          "ticks": 295424,
          "time": 123.6606205,
          "velocity": 0.6299212598425197
        },
        {
          "duration": 0.1954800888671997,
          "durationTicks": 467,
          "midi": 38,
          "name": "D2",
          "ticks": 295950,
          "time": 123.88079721679686,
          "velocity": 0.5905511811023622
        },
        {
          "duration": 0.207200522460937,
          "durationTicks": 495,
          "midi": 35,
          "name": "B1",
          "ticks": 296448,
          "time": 124.0892535,
          "velocity": 0.5984251968503937
        },
        {
          "duration": 0.1954800888671855,
          "durationTicks": 467,
          "midi": 33,
          "name": "A1",
          "ticks": 296974,
          "time": 124.30943021679687,
          "velocity": 0.5905511811023622
        },
        {
          "duration": 0.2243625859374987,
          "durationTicks": 536,
          "midi": 35,
          "name": "B1",
          "ticks": 297472,
          "time": 124.5178865,
          "velocity": 0.5984251968503937
        },
        {
          "duration": 0.1921313935546891,
          "durationTicks": 459,
          "midi": 35,
          "name": "B1",
          "ticks": 298009,
          "time": 124.74266767285155,
          "velocity": 0.5905511811023622
        },
        {
          "duration": 0.20008454492186445,
          "durationTicks": 478,
          "midi": 38,
          "name": "D2",
          "ticks": 298499,
          "time": 124.94777526074219,
          "velocity": 0.5905511811023622
        },
        {
          "duration": 0.22645552050781248,
          "durationTicks": 541,
          "midi": 40,
          "name": "E2",
          "ticks": 299012,
          "time": 125.16251034765625,
          "velocity": 0.8346456692913385
        },
        {
          "duration": 0.42360995703126036,
          "durationTicks": 1012,
          "midi": 40,
          "name": "E2",
          "ticks": 299554,
          "time": 125.38938445507812,
          "velocity": 0.7952755905511811
        },
        {
          "duration": 0.21306073925781277,
          "durationTicks": 509,
          "midi": 40,
          "name": "E2",
          "ticks": 300567,
          "time": 125.81341299902343,
          "velocity": 0.7952755905511811
        },
        {
          "duration": 0.42444713085937735,
          "durationTicks": 1014,
          "midi": 40,
          "name": "E2",
          "ticks": 301077,
          "time": 126.0268923251953,
          "velocity": 0.8188976377952756
        },
        {
          "duration": 0.42319137011718055,
          "durationTicks": 1011,
          "midi": 42,
          "name": "F#2",
          "ticks": 302092,
          "time": 126.45175804296875,
          "velocity": 0.8031496062992126
        },
        {
          "duration": 0.22645552050781248,
          "durationTicks": 541,
          "midi": 40,
          "name": "E2",
          "ticks": 303108,
          "time": 126.87704234765624,
          "velocity": 0.7401574803149606
        },
        {
          "duration": 0.21222356542968157,
          "durationTicks": 507,
          "midi": 40,
          "name": "E2",
          "ticks": 303650,
          "time": 127.10391645507812,
          "velocity": 0.7007874015748031
        },
        {
          "duration": 0.21096780468749898,
          "durationTicks": 504,
          "midi": 40,
          "name": "E2",
          "ticks": 304158,
          "time": 127.31655860742187,
          "velocity": 0.7086614173228346
        },
        {
          "duration": 0.22603693359374688,
          "durationTicks": 540,
          "midi": 40,
          "name": "E2",
          "ticks": 304663,
          "time": 127.52794499902343,
          "velocity": 0.7007874015748031
        },
        {
          "duration": 0.2239439990234331,
          "durationTicks": 535,
          "midi": 40,
          "name": "E2",
          "ticks": 305683,
          "time": 127.95490365136719,
          "velocity": 0.7007874015748031
        },
        {
          "duration": 0.42319137011719477,
          "durationTicks": 1011,
          "midi": 38,
          "name": "D2",
          "ticks": 306188,
          "time": 128.16629004296874,
          "velocity": 0.8031496062992126
        },
        {
          "duration": 0.22645552050781248,
          "durationTicks": 541,
          "midi": 40,
          "name": "E2",
          "ticks": 307204,
          "time": 128.59157434765623,
          "velocity": 0.8346456692913385
        },
        {
          "duration": 0.42360995703126036,
          "durationTicks": 1012,
          "midi": 40,
          "name": "E2",
          "ticks": 307746,
          "time": 128.8184484550781,
          "velocity": 0.7952755905511811
        },
        {
          "duration": 0.21306073925779856,
          "durationTicks": 509,
          "midi": 40,
          "name": "E2",
          "ticks": 308759,
          "time": 129.24247699902344,
          "velocity": 0.7952755905511811
        },
        {
          "duration": 0.42444713085939156,
          "durationTicks": 1014,
          "midi": 40,
          "name": "E2",
          "ticks": 309269,
          "time": 129.4559563251953,
          "velocity": 0.8188976377952756
        },
        {
          "duration": 0.42319137011716634,
          "durationTicks": 1011,
          "midi": 42,
          "name": "F#2",
          "ticks": 310284,
          "time": 129.88082204296876,
          "velocity": 0.8031496062992126
        },
        {
          "duration": 0.22645552050781248,
          "durationTicks": 541,
          "midi": 40,
          "name": "E2",
          "ticks": 311300,
          "time": 130.30610634765625,
          "velocity": 0.7401574803149606
        },
        {
          "duration": 0.21222356542966736,
          "durationTicks": 507,
          "midi": 40,
          "name": "E2",
          "ticks": 311842,
          "time": 130.53298045507813,
          "velocity": 0.7007874015748031
        },
        {
          "duration": 0.21096780468749898,
          "durationTicks": 504,
          "midi": 40,
          "name": "E2",
          "ticks": 312350,
          "time": 130.74562260742186,
          "velocity": 0.7086614173228346
        },
        {
          "duration": 0.22603693359374688,
          "durationTicks": 540,
          "midi": 40,
          "name": "E2",
          "ticks": 312855,
          "time": 130.95700899902343,
          "velocity": 0.7007874015748031
        },
        {
          "duration": 0.8480570878906235,
          "durationTicks": 2026,
          "midi": 38,
          "name": "D2",
          "ticks": 313365,
          "time": 131.17048832519532,
          "velocity": 0.8188976377952756
        },
        {
          "duration": 0.207200522460937,
          "durationTicks": 495,
          "midi": 38,
          "name": "D2",
          "ticks": 315392,
          "time": 132.01896399999998,
          "velocity": 0.8346456692913385
        },
        {
          "duration": 0.1954800888671855,
          "durationTicks": 467,
          "midi": 36,
          "name": "C2",
          "ticks": 315918,
          "time": 132.23914071679687,
          "velocity": 0.7952755905511811
        },
        {
          "duration": 0.207200522460937,
          "durationTicks": 495,
          "midi": 38,
          "name": "D2",
          "ticks": 316416,
          "time": 132.447597,
          "velocity": 0.8031496062992126
        },
        {
          "duration": 0.1954800888671855,
          "durationTicks": 467,
          "midi": 36,
          "name": "C2",
          "ticks": 316942,
          "time": 132.66777371679686,
          "velocity": 0.7952755905511811
        },
        {
          "duration": 0.21180497851563018,
          "durationTicks": 506,
          "midi": 41,
          "name": "F2",
          "ticks": 317440,
          "time": 132.87623,
          "velocity": 0.8031496062992126
        },
        {
          "duration": 0.1921313935546607,
          "durationTicks": 459,
          "midi": 40,
          "name": "E2",
          "ticks": 317977,
          "time": 133.10101117285157,
          "velocity": 0.7952755905511811
        },
        {
          "duration": 0.20008454492187866,
          "durationTicks": 478,
          "midi": 38,
          "name": "D2",
          "ticks": 318467,
          "time": 133.30611876074218,
          "velocity": 0.7952755905511811
        },
        {
          "duration": 0.207200522460937,
          "durationTicks": 495,
          "midi": 36,
          "name": "C2",
          "ticks": 318976,
          "time": 133.5191795,
          "velocity": 0.8346456692913385
        },
        {
          "duration": 0.1954800888671855,
          "durationTicks": 467,
          "midi": 38,
          "name": "D2",
          "ticks": 319502,
          "time": 133.73935621679686,
          "velocity": 0.7952755905511811
        },
        {
          "duration": 0.207200522460937,
          "durationTicks": 495,
          "midi": 36,
          "name": "C2",
          "ticks": 320000,
          "time": 133.9478125,
          "velocity": 0.8031496062992126
        },
        {
          "duration": 0.1954800888671855,
          "durationTicks": 467,
          "midi": 38,
          "name": "D2",
          "ticks": 320526,
          "time": 134.16798921679688,
          "velocity": 0.7952755905511811
        },
        {
          "duration": 0.21180497851563018,
          "durationTicks": 506,
          "midi": 36,
          "name": "C2",
          "ticks": 321024,
          "time": 134.3764455,
          "velocity": 0.8031496062992126
        },
        {
          "duration": 0.1921313935546891,
          "durationTicks": 459,
          "midi": 33,
          "name": "A1",
          "ticks": 321561,
          "time": 134.60122667285157,
          "velocity": 0.7952755905511811
        },
        {
          "duration": 0.20008454492187866,
          "durationTicks": 478,
          "midi": 36,
          "name": "C2",
          "ticks": 322051,
          "time": 134.80633426074218,
          "velocity": 0.7952755905511811
        },
        {
          "duration": 0.207200522460937,
          "durationTicks": 495,
          "midi": 38,
          "name": "D2",
          "ticks": 322560,
          "time": 135.019395,
          "velocity": 0.8346456692913385
        },
        {
          "duration": 0.1954800888671855,
          "durationTicks": 467,
          "midi": 36,
          "name": "C2",
          "ticks": 323086,
          "time": 135.23957171679686,
          "velocity": 0.7952755905511811
        },
        {
          "duration": 0.207200522460937,
          "durationTicks": 495,
          "midi": 38,
          "name": "D2",
          "ticks": 323584,
          "time": 135.448028,
          "velocity": 0.8031496062992126
        },
        {
          "duration": 0.1954800888671855,
          "durationTicks": 467,
          "midi": 36,
          "name": "C2",
          "ticks": 324110,
          "time": 135.66820471679688,
          "velocity": 0.7952755905511811
        },
        {
          "duration": 0.21180497851563018,
          "durationTicks": 506,
          "midi": 41,
          "name": "F2",
          "ticks": 324608,
          "time": 135.87666099999998,
          "velocity": 0.8031496062992126
        },
        {
          "duration": 0.1921313935546891,
          "durationTicks": 459,
          "midi": 40,
          "name": "E2",
          "ticks": 325145,
          "time": 136.10144217285156,
          "velocity": 0.7952755905511811
        },
        {
          "duration": 0.20008454492187866,
          "durationTicks": 478,
          "midi": 38,
          "name": "D2",
          "ticks": 325635,
          "time": 136.30654976074217,
          "velocity": 0.7952755905511811
        },
        {
          "duration": 0.207200522460937,
          "durationTicks": 495,
          "midi": 36,
          "name": "C2",
          "ticks": 326144,
          "time": 136.5196105,
          "velocity": 0.8346456692913385
        },
        {
          "duration": 0.1954800888671855,
          "durationTicks": 467,
          "midi": 38,
          "name": "D2",
          "ticks": 326670,
          "time": 136.73978721679688,
          "velocity": 0.7952755905511811
        },
        {
          "duration": 0.207200522460937,
          "durationTicks": 495,
          "midi": 36,
          "name": "C2",
          "ticks": 327168,
          "time": 136.9482435,
          "velocity": 0.8031496062992126
        },
        {
          "duration": 0.1954800888671855,
          "durationTicks": 467,
          "midi": 38,
          "name": "D2",
          "ticks": 327694,
          "time": 137.16842021679687,
          "velocity": 0.7952755905511811
        },
        {
          "duration": 0.21180497851560176,
          "durationTicks": 506,
          "midi": 36,
          "name": "C2",
          "ticks": 328192,
          "time": 137.3768765,
          "velocity": 0.8031496062992126
        },
        {
          "duration": 0.1921313935546891,
          "durationTicks": 459,
          "midi": 33,
          "name": "A1",
          "ticks": 328729,
          "time": 137.60165767285156,
          "velocity": 0.7952755905511811
        },
        {
          "duration": 0.20008454492185024,
          "durationTicks": 478,
          "midi": 36,
          "name": "C2",
          "ticks": 329219,
          "time": 137.8067652607422,
          "velocity": 0.7952755905511811
        },
        {
          "duration": 0.22645552050781248,
          "durationTicks": 541,
          "midi": 40,
          "name": "E2",
          "ticks": 329732,
          "time": 138.02150034765626,
          "velocity": 0.8346456692913385
        },
        {
          "duration": 0.42360995703126036,
          "durationTicks": 1012,
          "midi": 40,
          "name": "E2",
          "ticks": 330274,
          "time": 138.2483744550781,
          "velocity": 0.7952755905511811
        },
        {
          "duration": 0.21306073925779856,
          "durationTicks": 509,
          "midi": 40,
          "name": "E2",
          "ticks": 331287,
          "time": 138.67240299902343,
          "velocity": 0.7952755905511811
        },
        {
          "duration": 0.42444713085939156,
          "durationTicks": 1014,
          "midi": 40,
          "name": "E2",
          "ticks": 331797,
          "time": 138.8858823251953,
          "velocity": 0.8188976377952756
        },
        {
          "duration": 0.42319137011716634,
          "durationTicks": 1011,
          "midi": 42,
          "name": "F#2",
          "ticks": 332812,
          "time": 139.31074804296875,
          "velocity": 0.8031496062992126
        },
        {
          "duration": 0.22645552050781248,
          "durationTicks": 541,
          "midi": 40,
          "name": "E2",
          "ticks": 333828,
          "time": 139.73603234765625,
          "velocity": 0.8346456692913385
        },
        {
          "duration": 0.21222356542966736,
          "durationTicks": 507,
          "midi": 40,
          "name": "E2",
          "ticks": 334370,
          "time": 139.96290645507813,
          "velocity": 0.7952755905511811
        },
        {
          "duration": 0.21096780468749898,
          "durationTicks": 504,
          "midi": 40,
          "name": "E2",
          "ticks": 334878,
          "time": 140.17554860742186,
          "velocity": 0.8031496062992126
        },
        {
          "duration": 0.20050313183594426,
          "durationTicks": 479,
          "midi": 40,
          "name": "E2",
          "ticks": 335383,
          "time": 140.38693499902342,
          "velocity": 0.7952755905511811
        },
        {
          "duration": 0.21096780468749898,
          "durationTicks": 504,
          "midi": 38,
          "name": "D2",
          "ticks": 336403,
          "time": 140.81389365136718,
          "velocity": 0.7952755905511811
        },
        {
          "duration": 0.42319137011719477,
          "durationTicks": 1011,
          "midi": 38,
          "name": "D2",
          "ticks": 336908,
          "time": 141.02528004296875,
          "velocity": 0.8031496062992126
        },
        {
          "duration": 0.22645552050781248,
          "durationTicks": 541,
          "midi": 40,
          "name": "E2",
          "ticks": 337924,
          "time": 141.45056434765624,
          "velocity": 0.8346456692913385
        },
        {
          "duration": 0.42360995703126036,
          "durationTicks": 1012,
          "midi": 40,
          "name": "E2",
          "ticks": 338466,
          "time": 141.67743845507812,
          "velocity": 0.7952755905511811
        },
        {
          "duration": 0.21306073925779856,
          "durationTicks": 509,
          "midi": 40,
          "name": "E2",
          "ticks": 339479,
          "time": 142.10146699902344,
          "velocity": 0.7952755905511811
        },
        {
          "duration": 0.42444713085936314,
          "durationTicks": 1014,
          "midi": 40,
          "name": "E2",
          "ticks": 339989,
          "time": 142.3149463251953,
          "velocity": 0.8188976377952756
        },
        {
          "duration": 0.42319137011719477,
          "durationTicks": 1011,
          "midi": 42,
          "name": "F#2",
          "ticks": 341004,
          "time": 142.73981204296874,
          "velocity": 0.8031496062992126
        },
        {
          "duration": 0.22645552050781248,
          "durationTicks": 541,
          "midi": 40,
          "name": "E2",
          "ticks": 342020,
          "time": 143.16509634765626,
          "velocity": 0.7401574803149606
        },
        {
          "duration": 0.21222356542969578,
          "durationTicks": 507,
          "midi": 40,
          "name": "E2",
          "ticks": 342562,
          "time": 143.3919704550781,
          "velocity": 0.7007874015748031
        },
        {
          "duration": 0.21096780468749898,
          "durationTicks": 504,
          "midi": 40,
          "name": "E2",
          "ticks": 343070,
          "time": 143.60461260742187,
          "velocity": 0.7086614173228346
        },
        {
          "duration": 0.22603693359374688,
          "durationTicks": 540,
          "midi": 40,
          "name": "E2",
          "ticks": 343575,
          "time": 143.81599899902344,
          "velocity": 0.7007874015748031
        },
        {
          "duration": 0.8480570878906235,
          "durationTicks": 2026,
          "midi": 38,
          "name": "D2",
          "ticks": 344085,
          "time": 144.0294783251953,
          "velocity": 0.8188976377952756
        },
        {
          "duration": 0.207200522460937,
          "durationTicks": 495,
          "midi": 38,
          "name": "D2",
          "ticks": 346112,
          "time": 144.877954,
          "velocity": 0.8346456692913385
        },
        {
          "duration": 0.1954800888671855,
          "durationTicks": 467,
          "midi": 36,
          "name": "C2",
          "ticks": 346638,
          "time": 145.09813071679687,
          "velocity": 0.7952755905511811
        },
        {
          "duration": 0.207200522460937,
          "durationTicks": 495,
          "midi": 38,
          "name": "D2",
          "ticks": 347136,
          "time": 145.306587,
          "velocity": 0.8031496062992126
        },
        {
          "duration": 0.1954800888671855,
          "durationTicks": 467,
          "midi": 36,
          "name": "C2",
          "ticks": 347662,
          "time": 145.52676371679686,
          "velocity": 0.7952755905511811
        },
        {
          "duration": 0.21180497851563018,
          "durationTicks": 506,
          "midi": 41,
          "name": "F2",
          "ticks": 348160,
          "time": 145.73522,
          "velocity": 0.8031496062992126
        },
        {
          "duration": 0.1921313935546891,
          "durationTicks": 459,
          "midi": 40,
          "name": "E2",
          "ticks": 348697,
          "time": 145.96000117285155,
          "velocity": 0.7952755905511811
        },
        {
          "duration": 0.20008454492187866,
          "durationTicks": 478,
          "midi": 38,
          "name": "D2",
          "ticks": 349187,
          "time": 146.16510876074219,
          "velocity": 0.7952755905511811
        },
        {
          "duration": 0.207200522460937,
          "durationTicks": 495,
          "midi": 36,
          "name": "C2",
          "ticks": 349696,
          "time": 146.37816949999998,
          "velocity": 0.8346456692913385
        },
        {
          "duration": 0.1954800888671855,
          "durationTicks": 467,
          "midi": 38,
          "name": "D2",
          "ticks": 350222,
          "time": 146.59834621679687,
          "velocity": 0.7952755905511811
        },
        {
          "duration": 0.207200522460937,
          "durationTicks": 495,
          "midi": 36,
          "name": "C2",
          "ticks": 350720,
          "time": 146.8068025,
          "velocity": 0.8031496062992126
        },
        {
          "duration": 0.1954800888671855,
          "durationTicks": 467,
          "midi": 38,
          "name": "D2",
          "ticks": 351246,
          "time": 147.02697921679686,
          "velocity": 0.7952755905511811
        },
        {
          "duration": 0.21180497851563018,
          "durationTicks": 506,
          "midi": 36,
          "name": "C2",
          "ticks": 351744,
          "time": 147.2354355,
          "velocity": 0.8031496062992126
        },
        {
          "duration": 0.1921313935546891,
          "durationTicks": 459,
          "midi": 33,
          "name": "A1",
          "ticks": 352281,
          "time": 147.46021667285154,
          "velocity": 0.7952755905511811
        },
        {
          "duration": 0.20008454492187866,
          "durationTicks": 478,
          "midi": 36,
          "name": "C2",
          "ticks": 352771,
          "time": 147.66532426074218,
          "velocity": 0.7952755905511811
        },
        {
          "duration": 0.207200522460937,
          "durationTicks": 495,
          "midi": 38,
          "name": "D2",
          "ticks": 353280,
          "time": 147.878385,
          "velocity": 0.8346456692913385
        },
        {
          "duration": 0.1954800888671855,
          "durationTicks": 467,
          "midi": 36,
          "name": "C2",
          "ticks": 353806,
          "time": 148.09856171679687,
          "velocity": 0.7952755905511811
        },
        {
          "duration": 0.207200522460937,
          "durationTicks": 495,
          "midi": 38,
          "name": "D2",
          "ticks": 354304,
          "time": 148.307018,
          "velocity": 0.8031496062992126
        },
        {
          "duration": 0.1954800888672139,
          "durationTicks": 467,
          "midi": 36,
          "name": "C2",
          "ticks": 354830,
          "time": 148.52719471679686,
          "velocity": 0.7952755905511811
        },
        {
          "duration": 0.21180497851563018,
          "durationTicks": 506,
          "midi": 41,
          "name": "F2",
          "ticks": 355328,
          "time": 148.735651,
          "velocity": 0.8031496062992126
        },
        {
          "duration": 0.1921313935546891,
          "durationTicks": 459,
          "midi": 40,
          "name": "E2",
          "ticks": 355865,
          "time": 148.96043217285157,
          "velocity": 0.7952755905511811
        },
        {
          "duration": 0.20008454492187866,
          "durationTicks": 478,
          "midi": 38,
          "name": "D2",
          "ticks": 356355,
          "time": 149.16553976074218,
          "velocity": 0.7952755905511811
        },
        {
          "duration": 0.207200522460937,
          "durationTicks": 495,
          "midi": 36,
          "name": "C2",
          "ticks": 356864,
          "time": 149.3786005,
          "velocity": 0.8346456692913385
        },
        {
          "duration": 0.1954800888671855,
          "durationTicks": 467,
          "midi": 38,
          "name": "D2",
          "ticks": 357390,
          "time": 149.59877721679686,
          "velocity": 0.7952755905511811
        },
        {
          "duration": 0.207200522460937,
          "durationTicks": 495,
          "midi": 36,
          "name": "C2",
          "ticks": 357888,
          "time": 149.8072335,
          "velocity": 0.8031496062992126
        },
        {
          "duration": 0.1954800888671855,
          "durationTicks": 467,
          "midi": 38,
          "name": "D2",
          "ticks": 358414,
          "time": 150.02741021679688,
          "velocity": 0.7952755905511811
        },
        {
          "duration": 0.21180497851563018,
          "durationTicks": 506,
          "midi": 36,
          "name": "C2",
          "ticks": 358912,
          "time": 150.2358665,
          "velocity": 0.8031496062992126
        },
        {
          "duration": 0.1921313935546891,
          "durationTicks": 459,
          "midi": 33,
          "name": "A1",
          "ticks": 359449,
          "time": 150.46064767285156,
          "velocity": 0.7952755905511811
        },
        {
          "duration": 0.20008454492187866,
          "durationTicks": 478,
          "midi": 36,
          "name": "C2",
          "ticks": 359939,
          "time": 150.66575526074217,
          "velocity": 0.7952755905511811
        },
        {
          "duration": 0.22645552050781248,
          "durationTicks": 541,
          "midi": 33,
          "name": "A1",
          "ticks": 360452,
          "time": 150.88049034765623,
          "velocity": 0.8346456692913385
        },
        {
          "duration": 0.42360995703126036,
          "durationTicks": 1012,
          "midi": 33,
          "name": "A1",
          "ticks": 360994,
          "time": 151.1073644550781,
          "velocity": 0.7952755905511811
        },
        {
          "duration": 0.21306073925779856,
          "durationTicks": 509,
          "midi": 33,
          "name": "A1",
          "ticks": 362007,
          "time": 151.53139299902344,
          "velocity": 0.7952755905511811
        },
        {
          "duration": 0.42444713085939156,
          "durationTicks": 1014,
          "midi": 33,
          "name": "A1",
          "ticks": 362517,
          "time": 151.7448723251953,
          "velocity": 0.8188976377952756
        },
        {
          "duration": 0.42319137011719477,
          "durationTicks": 1011,
          "midi": 31,
          "name": "G1",
          "ticks": 363532,
          "time": 152.16973804296873,
          "velocity": 0.8031496062992126
        },
        {
          "duration": 0.22645552050781248,
          "durationTicks": 541,
          "midi": 33,
          "name": "A1",
          "ticks": 364548,
          "time": 152.59502234765625,
          "velocity": 0.8346456692913385
        },
        {
          "duration": 0.21222356542966736,
          "durationTicks": 507,
          "midi": 33,
          "name": "A1",
          "ticks": 365090,
          "time": 152.82189645507813,
          "velocity": 0.7952755905511811
        },
        {
          "duration": 0.21096780468749898,
          "durationTicks": 504,
          "midi": 33,
          "name": "A1",
          "ticks": 365598,
          "time": 153.03453860742187,
          "velocity": 0.8031496062992126
        },
        {
          "duration": 0.20050313183594426,
          "durationTicks": 479,
          "midi": 33,
          "name": "A1",
          "ticks": 366103,
          "time": 153.24592499902343,
          "velocity": 0.7952755905511811
        },
        {
          "duration": 0.21096780468749898,
          "durationTicks": 504,
          "midi": 35,
          "name": "B1",
          "ticks": 367123,
          "time": 153.6728836513672,
          "velocity": 0.7952755905511811
        },
        {
          "duration": 0.42319137011719477,
          "durationTicks": 1011,
          "midi": 35,
          "name": "B1",
          "ticks": 367628,
          "time": 153.88427004296875,
          "velocity": 0.8031496062992126
        },
        {
          "duration": 0.22645552050781248,
          "durationTicks": 541,
          "midi": 33,
          "name": "A1",
          "ticks": 368644,
          "time": 154.30955434765625,
          "velocity": 0.8346456692913385
        },
        {
          "duration": 0.42360995703126036,
          "durationTicks": 1012,
          "midi": 33,
          "name": "A1",
          "ticks": 369186,
          "time": 154.53642845507812,
          "velocity": 0.7952755905511811
        },
        {
          "duration": 0.21306073925782698,
          "durationTicks": 509,
          "midi": 33,
          "name": "A1",
          "ticks": 370199,
          "time": 154.96045699902342,
          "velocity": 0.7952755905511811
        },
        {
          "duration": 0.42444713085936314,
          "durationTicks": 1014,
          "midi": 33,
          "name": "A1",
          "ticks": 370709,
          "time": 155.1739363251953,
          "velocity": 0.8188976377952756
        },
        {
          "duration": 0.42319137011719477,
          "durationTicks": 1011,
          "midi": 31,
          "name": "G1",
          "ticks": 371724,
          "time": 155.59880204296874,
          "velocity": 0.8031496062992126
        },
        {
          "duration": 0.22645552050781248,
          "durationTicks": 541,
          "midi": 33,
          "name": "A1",
          "ticks": 372740,
          "time": 156.02408634765624,
          "velocity": 0.7401574803149606
        },
        {
          "duration": 0.21222356542969578,
          "durationTicks": 507,
          "midi": 33,
          "name": "A1",
          "ticks": 373282,
          "time": 156.25096045507811,
          "velocity": 0.7007874015748031
        },
        {
          "duration": 0.21096780468749898,
          "durationTicks": 504,
          "midi": 33,
          "name": "A1",
          "ticks": 373790,
          "time": 156.46360260742188,
          "velocity": 0.7086614173228346
        },
        {
          "duration": 0.22603693359374688,
          "durationTicks": 540,
          "midi": 33,
          "name": "A1",
          "ticks": 374295,
          "time": 156.67498899902344,
          "velocity": 0.7007874015748031
        },
        {
          "duration": 0.8480570878906235,
          "durationTicks": 2026,
          "midi": 35,
          "name": "B1",
          "ticks": 374805,
          "time": 156.8884683251953,
          "velocity": 0.8188976377952756
        }
      ],
      "endOfTrackTicks": 408063
    },
    {
      "channel": 4,
      "controlChanges": {
        "6": [
          {
            "number": 6,
            "ticks": 4,
            "time": 0.00167434765625,
            "value": 0.09448818897637795
          },
          {
            "number": 6,
            "ticks": 4,
            "time": 0.00167434765625,
            "value": 0.09448818897637795
          }
        ],
        "7": [
          {
            "number": 7,
            "ticks": 0,
            "time": 0,
            "value": 0.7874015748031497
          },
          {
            "number": 7,
            "ticks": 0,
            "time": 0,
            "value": 0.7401574803149606
          },
          {
            "number": 7,
            "ticks": 0,
            "time": 0,
            "value": 0.7874015748031497
          }
        ],
        "10": [
          {
            "number": 10,
            "ticks": 0,
            "time": 0,
            "value": 0.5039370078740157
          }
        ],
        "38": [
          {
            "number": 38,
            "ticks": 5,
            "time": 0.0020929345703124998,
            "value": 0
          },
          {
            "number": 38,
            "ticks": 5,
            "time": 0.0020929345703124998,
            "value": 0
          }
        ],
        "100": [
          {
            "number": 100,
            "ticks": 3,
            "time": 0.0012557607421875,
            "value": 0
          },
          {
            "number": 100,
            "ticks": 3,
            "time": 0.0012557607421875,
            "value": 0
          }
        ],
        "101": [
          {
            "number": 101,
            "ticks": 3,
            "time": 0.0012557607421875,
            "value": 0
          },
          {
            "number": 101,
            "ticks": 3,
            "time": 0.0012557607421875,
            "value": 0
          }
        ]
      },
      "pitchBends": [],
      "instrument": {
        "family": "piano",
        "number": 1,
        "name": "bright acoustic piano"
      },
      "name": "Piano",
      "notes": [
        {
          "duration": 0.2030146533203125,
          "durationTicks": 485,
          "midi": 79,
          "name": "G5",
          "ticks": 10,
          "time": 0.0041858691406249995,
          "velocity": 0.6299212598425197
        },
        {
          "duration": 0.19548008886718748,
          "durationTicks": 467,
          "midi": 76,
          "name": "E5",
          "ticks": 526,
          "time": 0.220176716796875,
          "velocity": 0.5905511811023622
        },
        {
          "duration": 0.2072005224609375,
          "durationTicks": 495,
          "midi": 81,
          "name": "A5",
          "ticks": 1024,
          "time": 0.428633,
          "velocity": 0.5984251968503937
        },
        {
          "duration": 0.19548008886718748,
          "durationTicks": 467,
          "midi": 76,
          "name": "E5",
          "ticks": 1550,
          "time": 0.6488097167968749,
          "velocity": 0.5905511811023622
        },
        {
          "duration": 0.21180497851562496,
          "durationTicks": 506,
          "midi": 78,
          "name": "F#5",
          "ticks": 2048,
          "time": 0.857266,
          "velocity": 0.5984251968503937
        },
        {
          "duration": 0.19213139355468756,
          "durationTicks": 459,
          "midi": 79,
          "name": "G5",
          "ticks": 2585,
          "time": 1.0820471728515624,
          "velocity": 0.5905511811023622
        },
        {
          "duration": 0.2000845449218751,
          "durationTicks": 478,
          "midi": 76,
          "name": "E5",
          "ticks": 3075,
          "time": 1.2871547607421874,
          "velocity": 0.5905511811023622
        },
        {
          "duration": 0.21431650000000002,
          "durationTicks": 512,
          "midi": 83,
          "name": "B5",
          "ticks": 3584,
          "time": 1.5002155,
          "velocity": 0.6299212598425197
        },
        {
          "duration": 0.19757302343750016,
          "durationTicks": 472,
          "midi": 81,
          "name": "A5",
          "ticks": 4127,
          "time": 1.7275081943359374,
          "velocity": 0.5905511811023622
        },
        {
          "duration": 0.20175889257812485,
          "durationTicks": 482,
          "midi": 79,
          "name": "G5",
          "ticks": 4630,
          "time": 1.938057412109375,
          "velocity": 0.5905511811023622
        },
        {
          "duration": 0.2005031318359376,
          "durationTicks": 479,
          "midi": 78,
          "name": "F#5",
          "ticks": 5143,
          "time": 2.1527924990234375,
          "velocity": 0.5905511811023622
        },
        {
          "duration": 0.19296856738281276,
          "durationTicks": 461,
          "midi": 76,
          "name": "E5",
          "ticks": 5653,
          "time": 2.3662718251953123,
          "velocity": 0.5905511811023622
        },
        {
          "duration": 0.2009217187500001,
          "durationTicks": 480,
          "midi": 74,
          "name": "D5",
          "ticks": 6145,
          "time": 2.5722165869140623,
          "velocity": 0.5905511811023622
        },
        {
          "duration": 0.20720052246093745,
          "durationTicks": 495,
          "midi": 79,
          "name": "G5",
          "ticks": 6656,
          "time": 2.7861145,
          "velocity": 0.6299212598425197
        },
        {
          "duration": 0.1954800888671877,
          "durationTicks": 467,
          "midi": 76,
          "name": "E5",
          "ticks": 7182,
          "time": 3.0062912167968747,
          "velocity": 0.5905511811023622
        },
        {
          "duration": 0.20720052246093745,
          "durationTicks": 495,
          "midi": 81,
          "name": "A5",
          "ticks": 7680,
          "time": 3.2147475,
          "velocity": 0.5984251968503937
        },
        {
          "duration": 0.1954800888671877,
          "durationTicks": 467,
          "midi": 76,
          "name": "E5",
          "ticks": 8206,
          "time": 3.4349242167968748,
          "velocity": 0.5905511811023622
        },
        {
          "duration": 0.2118049785156253,
          "durationTicks": 506,
          "midi": 78,
          "name": "F#5",
          "ticks": 8704,
          "time": 3.6433804999999997,
          "velocity": 0.5984251968503937
        },
        {
          "duration": 0.19213139355468778,
          "durationTicks": 459,
          "midi": 79,
          "name": "G5",
          "ticks": 9241,
          "time": 3.868161672851562,
          "velocity": 0.5905511811023622
        },
        {
          "duration": 0.2000845449218751,
          "durationTicks": 478,
          "midi": 76,
          "name": "E5",
          "ticks": 9731,
          "time": 4.073269260742188,
          "velocity": 0.5905511811023622
        },
        {
          "duration": 0.2072005224609379,
          "durationTicks": 495,
          "midi": 83,
          "name": "B5",
          "ticks": 10240,
          "time": 4.2863299999999995,
          "velocity": 0.6299212598425197
        },
        {
          "duration": 0.19548008886718726,
          "durationTicks": 467,
          "midi": 81,
          "name": "A5",
          "ticks": 10766,
          "time": 4.506506716796875,
          "velocity": 0.5905511811023622
        },
        {
          "duration": 0.207200522460937,
          "durationTicks": 495,
          "midi": 79,
          "name": "G5",
          "ticks": 11264,
          "time": 4.714963,
          "velocity": 0.5984251968503937
        },
        {
          "duration": 0.19548008886718726,
          "durationTicks": 467,
          "midi": 78,
          "name": "F#5",
          "ticks": 11790,
          "time": 4.935139716796875,
          "velocity": 0.5905511811023622
        },
        {
          "duration": 0.21180497851562485,
          "durationTicks": 506,
          "midi": 76,
          "name": "E5",
          "ticks": 12288,
          "time": 5.143596,
          "velocity": 0.5984251968503937
        },
        {
          "duration": 0.19213139355468734,
          "durationTicks": 459,
          "midi": 74,
          "name": "D5",
          "ticks": 12825,
          "time": 5.368377172851562,
          "velocity": 0.5905511811023622
        },
        {
          "duration": 0.2000845449218751,
          "durationTicks": 478,
          "midi": 76,
          "name": "E5",
          "ticks": 13315,
          "time": 5.573484760742187,
          "velocity": 0.5905511811023622
        },
        {
          "duration": 0.207200522460937,
          "durationTicks": 495,
          "midi": 79,
          "name": "G5",
          "ticks": 13824,
          "time": 5.7865455,
          "velocity": 0.6299212598425197
        },
        {
          "duration": 0.19548008886718815,
          "durationTicks": 467,
          "midi": 76,
          "name": "E5",
          "ticks": 14350,
          "time": 6.006722216796875,
          "velocity": 0.5905511811023622
        },
        {
          "duration": 0.2072005224609379,
          "durationTicks": 495,
          "midi": 81,
          "name": "A5",
          "ticks": 14848,
          "time": 6.2151784999999995,
          "velocity": 0.5984251968503937
        },
        {
          "duration": 0.19548008886718726,
          "durationTicks": 467,
          "midi": 76,
          "name": "E5",
          "ticks": 15374,
          "time": 6.435355216796875,
          "velocity": 0.5905511811023622
        },
        {
          "duration": 0.21180497851562485,
          "durationTicks": 506,
          "midi": 78,
          "name": "F#5",
          "ticks": 15872,
          "time": 6.6438115,
          "velocity": 0.5984251968503937
        },
        {
          "duration": 0.19213139355468734,
          "durationTicks": 459,
          "midi": 79,
          "name": "G5",
          "ticks": 16409,
          "time": 6.8685926728515625,
          "velocity": 0.5905511811023622
        },
        {
          "duration": 0.2000845449218751,
          "durationTicks": 478,
          "midi": 76,
          "name": "E5",
          "ticks": 16899,
          "time": 7.0737002607421875,
          "velocity": 0.5905511811023622
        },
        {
          "duration": 0.2143165000000007,
          "durationTicks": 512,
          "midi": 83,
          "name": "B5",
          "ticks": 17408,
          "time": 7.286760999999999,
          "velocity": 0.6299212598425197
        },
        {
          "duration": 0.19757302343750016,
          "durationTicks": 472,
          "midi": 81,
          "name": "A5",
          "ticks": 17951,
          "time": 7.514053694335937,
          "velocity": 0.5905511811023622
        },
        {
          "duration": 0.20175889257812507,
          "durationTicks": 482,
          "midi": 79,
          "name": "G5",
          "ticks": 18454,
          "time": 7.724602912109375,
          "velocity": 0.5905511811023622
        },
        {
          "duration": 0.20050313183593804,
          "durationTicks": 479,
          "midi": 78,
          "name": "F#5",
          "ticks": 18967,
          "time": 7.939337999023437,
          "velocity": 0.5905511811023622
        },
        {
          "duration": 0.19296856738281143,
          "durationTicks": 461,
          "midi": 76,
          "name": "E5",
          "ticks": 19477,
          "time": 8.152817325195313,
          "velocity": 0.5905511811023622
        },
        {
          "duration": 0.2009217187499992,
          "durationTicks": 480,
          "midi": 74,
          "name": "D5",
          "ticks": 19969,
          "time": 8.358762086914062,
          "velocity": 0.5905511811023622
        },
        {
          "duration": 0.20720052246093879,
          "durationTicks": 495,
          "midi": 79,
          "name": "G5",
          "ticks": 20480,
          "time": 8.572659999999999,
          "velocity": 0.6299212598425197
        },
        {
          "duration": 0.19548008886718726,
          "durationTicks": 467,
          "midi": 76,
          "name": "E5",
          "ticks": 21006,
          "time": 8.792836716796876,
          "velocity": 0.5905511811023622
        },
        {
          "duration": 0.207200522460937,
          "durationTicks": 495,
          "midi": 81,
          "name": "A5",
          "ticks": 21504,
          "time": 9.001293,
          "velocity": 0.5984251968503937
        },
        {
          "duration": 0.19548008886718726,
          "durationTicks": 467,
          "midi": 76,
          "name": "E5",
          "ticks": 22030,
          "time": 9.221469716796875,
          "velocity": 0.5905511811023622
        },
        {
          "duration": 0.21180497851562485,
          "durationTicks": 506,
          "midi": 78,
          "name": "F#5",
          "ticks": 22528,
          "time": 9.429926,
          "velocity": 0.5984251968503937
        },
        {
          "duration": 0.19213139355468734,
          "durationTicks": 459,
          "midi": 79,
          "name": "G5",
          "ticks": 23065,
          "time": 9.654707172851563,
          "velocity": 0.5905511811023622
        },
        {
          "duration": 0.2000845449218751,
          "durationTicks": 478,
          "midi": 76,
          "name": "E5",
          "ticks": 23555,
          "time": 9.859814760742188,
          "velocity": 0.5905511811023622
        },
        {
          "duration": 0.207200522460937,
          "durationTicks": 495,
          "midi": 83,
          "name": "B5",
          "ticks": 24064,
          "time": 10.0728755,
          "velocity": 0.6299212598425197
        },
        {
          "duration": 0.19548008886718726,
          "durationTicks": 467,
          "midi": 81,
          "name": "A5",
          "ticks": 24590,
          "time": 10.293052216796875,
          "velocity": 0.5905511811023622
        },
        {
          "duration": 0.207200522460937,
          "durationTicks": 495,
          "midi": 79,
          "name": "G5",
          "ticks": 25088,
          "time": 10.5015085,
          "velocity": 0.5984251968503937
        },
        {
          "duration": 0.19548008886718726,
          "durationTicks": 467,
          "midi": 78,
          "name": "F#5",
          "ticks": 25614,
          "time": 10.721685216796875,
          "velocity": 0.5905511811023622
        },
        {
          "duration": 0.21180497851562485,
          "durationTicks": 506,
          "midi": 76,
          "name": "E5",
          "ticks": 26112,
          "time": 10.9301415,
          "velocity": 0.5984251968503937
        },
        {
          "duration": 0.19213139355468734,
          "durationTicks": 459,
          "midi": 74,
          "name": "D5",
          "ticks": 26649,
          "time": 11.154922672851562,
          "velocity": 0.5905511811023622
        },
        {
          "duration": 0.2000845449218751,
          "durationTicks": 478,
          "midi": 76,
          "name": "E5",
          "ticks": 27139,
          "time": 11.360030260742187,
          "velocity": 0.5905511811023622
        },
        {
          "duration": 0.207200522460937,
          "durationTicks": 495,
          "midi": 79,
          "name": "G5",
          "ticks": 27648,
          "time": 11.573091,
          "velocity": 0.6299212598425197
        },
        {
          "duration": 0.19548008886718726,
          "durationTicks": 467,
          "midi": 76,
          "name": "E5",
          "ticks": 28174,
          "time": 11.793267716796874,
          "velocity": 0.5905511811023622
        },
        {
          "duration": 0.207200522460937,
          "durationTicks": 495,
          "midi": 81,
          "name": "A5",
          "ticks": 28672,
          "time": 12.001724,
          "velocity": 0.5984251968503937
        },
        {
          "duration": 0.19548008886718726,
          "durationTicks": 467,
          "midi": 76,
          "name": "E5",
          "ticks": 29198,
          "time": 12.221900716796874,
          "velocity": 0.5905511811023622
        },
        {
          "duration": 0.21180497851562485,
          "durationTicks": 506,
          "midi": 78,
          "name": "F#5",
          "ticks": 29696,
          "time": 12.430356999999999,
          "velocity": 0.5984251968503937
        },
        {
          "duration": 0.19213139355468734,
          "durationTicks": 459,
          "midi": 79,
          "name": "G5",
          "ticks": 30233,
          "time": 12.655138172851562,
          "velocity": 0.5905511811023622
        },
        {
          "duration": 0.2000845449218751,
          "durationTicks": 478,
          "midi": 76,
          "name": "E5",
          "ticks": 30723,
          "time": 12.860245760742187,
          "velocity": 0.5905511811023622
        },
        {
          "duration": 0.2143165000000007,
          "durationTicks": 512,
          "midi": 83,
          "name": "B5",
          "ticks": 31232,
          "time": 13.0733065,
          "velocity": 0.6299212598425197
        },
        {
          "duration": 0.19757302343749927,
          "durationTicks": 472,
          "midi": 81,
          "name": "A5",
          "ticks": 31775,
          "time": 13.300599194335938,
          "velocity": 0.5905511811023622
        },
        {
          "duration": 0.20175889257812507,
          "durationTicks": 482,
          "midi": 79,
          "name": "G5",
          "ticks": 32278,
          "time": 13.511148412109375,
          "velocity": 0.5905511811023622
        },
        {
          "duration": 0.20050313183593715,
          "durationTicks": 479,
          "midi": 78,
          "name": "F#5",
          "ticks": 32791,
          "time": 13.725883499023437,
          "velocity": 0.5905511811023622
        },
        {
          "duration": 0.1929685673828132,
          "durationTicks": 461,
          "midi": 76,
          "name": "E5",
          "ticks": 33301,
          "time": 13.939362825195312,
          "velocity": 0.5905511811023622
        },
        {
          "duration": 0.20092171875000098,
          "durationTicks": 480,
          "midi": 74,
          "name": "D5",
          "ticks": 33793,
          "time": 14.145307586914061,
          "velocity": 0.5905511811023622
        },
        {
          "duration": 0.207200522460937,
          "durationTicks": 495,
          "midi": 79,
          "name": "G5",
          "ticks": 34304,
          "time": 14.3592055,
          "velocity": 0.6299212598425197
        },
        {
          "duration": 0.19548008886718726,
          "durationTicks": 467,
          "midi": 76,
          "name": "E5",
          "ticks": 34830,
          "time": 14.579382216796875,
          "velocity": 0.5905511811023622
        },
        {
          "duration": 0.207200522460937,
          "durationTicks": 495,
          "midi": 81,
          "name": "A5",
          "ticks": 35328,
          "time": 14.7878385,
          "velocity": 0.5984251968503937
        },
        {
          "duration": 0.19548008886718726,
          "durationTicks": 467,
          "midi": 76,
          "name": "E5",
          "ticks": 35854,
          "time": 15.008015216796874,
          "velocity": 0.5905511811023622
        },
        {
          "duration": 0.21180497851562485,
          "durationTicks": 506,
          "midi": 78,
          "name": "F#5",
          "ticks": 36352,
          "time": 15.216471499999999,
          "velocity": 0.5984251968503937
        },
        {
          "duration": 0.19213139355468734,
          "durationTicks": 459,
          "midi": 79,
          "name": "G5",
          "ticks": 36889,
          "time": 15.441252672851562,
          "velocity": 0.5905511811023622
        },
        {
          "duration": 0.2000845449218751,
          "durationTicks": 478,
          "midi": 76,
          "name": "E5",
          "ticks": 37379,
          "time": 15.646360260742187,
          "velocity": 0.5905511811023622
        },
        {
          "duration": 0.20720052246093879,
          "durationTicks": 495,
          "midi": 83,
          "name": "B5",
          "ticks": 37888,
          "time": 15.859421,
          "velocity": 0.6299212598425197
        },
        {
          "duration": 0.1954800888671855,
          "durationTicks": 467,
          "midi": 81,
          "name": "A5",
          "ticks": 38414,
          "time": 16.079597716796876,
          "velocity": 0.5905511811023622
        },
        {
          "duration": 0.207200522460937,
          "durationTicks": 495,
          "midi": 79,
          "name": "G5",
          "ticks": 38912,
          "time": 16.288054,
          "velocity": 0.5984251968503937
        },
        {
          "duration": 0.19548008886718904,
          "durationTicks": 467,
          "midi": 78,
          "name": "F#5",
          "ticks": 39438,
          "time": 16.508230716796874,
          "velocity": 0.5905511811023622
        },
        {
          "duration": 0.21180497851562308,
          "durationTicks": 506,
          "midi": 76,
          "name": "E5",
          "ticks": 39936,
          "time": 16.716687,
          "velocity": 0.5984251968503937
        },
        {
          "duration": 0.1921313935546891,
          "durationTicks": 459,
          "midi": 74,
          "name": "D5",
          "ticks": 40473,
          "time": 16.94146817285156,
          "velocity": 0.5905511811023622
        },
        {
          "duration": 0.2000845449218751,
          "durationTicks": 478,
          "midi": 76,
          "name": "E5",
          "ticks": 40963,
          "time": 17.146575760742188,
          "velocity": 0.5905511811023622
        },
        {
          "duration": 0.207200522460937,
          "durationTicks": 495,
          "midi": 79,
          "name": "G5",
          "ticks": 41472,
          "time": 17.3596365,
          "velocity": 0.6299212598425197
        },
        {
          "duration": 0.1954800888671855,
          "durationTicks": 467,
          "midi": 76,
          "name": "E5",
          "ticks": 41998,
          "time": 17.579813216796875,
          "velocity": 0.5905511811023622
        },
        {
          "duration": 0.207200522460937,
          "durationTicks": 495,
          "midi": 81,
          "name": "A5",
          "ticks": 42496,
          "time": 17.7882695,
          "velocity": 0.5984251968503937
        },
        {
          "duration": 0.19548008886718904,
          "durationTicks": 467,
          "midi": 76,
          "name": "E5",
          "ticks": 43022,
          "time": 18.008446216796873,
          "velocity": 0.5905511811023622
        },
        {
          "duration": 0.21180497851562308,
          "durationTicks": 506,
          "midi": 78,
          "name": "F#5",
          "ticks": 43520,
          "time": 18.2169025,
          "velocity": 0.5984251968503937
        },
        {
          "duration": 0.1921313935546891,
          "durationTicks": 459,
          "midi": 79,
          "name": "G5",
          "ticks": 44057,
          "time": 18.44168367285156,
          "velocity": 0.5905511811023622
        },
        {
          "duration": 0.2000845449218751,
          "durationTicks": 478,
          "midi": 76,
          "name": "E5",
          "ticks": 44547,
          "time": 18.646791260742187,
          "velocity": 0.5905511811023622
        },
        {
          "duration": 0.2143164999999989,
          "durationTicks": 512,
          "midi": 83,
          "name": "B5",
          "ticks": 45056,
          "time": 18.859852,
          "velocity": 0.6299212598425197
        },
        {
          "duration": 0.19757302343749927,
          "durationTicks": 472,
          "midi": 81,
          "name": "A5",
          "ticks": 45599,
          "time": 19.087144694335937,
          "velocity": 0.5905511811023622
        },
        {
          "duration": 0.20175889257812685,
          "durationTicks": 482,
          "midi": 79,
          "name": "G5",
          "ticks": 46102,
          "time": 19.297693912109374,
          "velocity": 0.5905511811023622
        },
        {
          "duration": 0.20050313183593715,
          "durationTicks": 479,
          "midi": 78,
          "name": "F#5",
          "ticks": 46615,
          "time": 19.512428999023438,
          "velocity": 0.5905511811023622
        },
        {
          "duration": 0.1929685673828132,
          "durationTicks": 461,
          "midi": 76,
          "name": "E5",
          "ticks": 47125,
          "time": 19.725908325195313,
          "velocity": 0.5905511811023622
        },
        {
          "duration": 0.20092171875000275,
          "durationTicks": 480,
          "midi": 74,
          "name": "D5",
          "ticks": 47617,
          "time": 19.93185308691406,
          "velocity": 0.5905511811023622
        },
        {
          "duration": 0.207200522460937,
          "durationTicks": 495,
          "midi": 79,
          "name": "G5",
          "ticks": 48128,
          "time": 20.145751,
          "velocity": 0.6299212598425197
        },
        {
          "duration": 0.1954800888671855,
          "durationTicks": 467,
          "midi": 76,
          "name": "E5",
          "ticks": 48654,
          "time": 20.365927716796875,
          "velocity": 0.5905511811023622
        },
        {
          "duration": 0.207200522460937,
          "durationTicks": 495,
          "midi": 81,
          "name": "A5",
          "ticks": 49152,
          "time": 20.574384,
          "velocity": 0.5984251968503937
        },
        {
          "duration": 0.19548008886718904,
          "durationTicks": 467,
          "midi": 76,
          "name": "E5",
          "ticks": 49678,
          "time": 20.794560716796873,
          "velocity": 0.5905511811023622
        },
        {
          "duration": 0.21180497851562308,
          "durationTicks": 506,
          "midi": 78,
          "name": "F#5",
          "ticks": 50176,
          "time": 21.003017,
          "velocity": 0.5984251968503937
        },
        {
          "duration": 0.1921313935546891,
          "durationTicks": 459,
          "midi": 79,
          "name": "G5",
          "ticks": 50713,
          "time": 21.22779817285156,
          "velocity": 0.5905511811023622
        },
        {
          "duration": 0.2000845449218751,
          "durationTicks": 478,
          "midi": 76,
          "name": "E5",
          "ticks": 51203,
          "time": 21.432905760742187,
          "velocity": 0.5905511811023622
        },
        {
          "duration": 0.207200522460937,
          "durationTicks": 495,
          "midi": 83,
          "name": "B5",
          "ticks": 51712,
          "time": 21.6459665,
          "velocity": 0.6299212598425197
        },
        {
          "duration": 0.1954800888671855,
          "durationTicks": 467,
          "midi": 81,
          "name": "A5",
          "ticks": 52238,
          "time": 21.866143216796875,
          "velocity": 0.5905511811023622
        },
        {
          "duration": 0.20720052246094056,
          "durationTicks": 495,
          "midi": 79,
          "name": "G5",
          "ticks": 52736,
          "time": 22.074599499999998,
          "velocity": 0.5984251968503937
        },
        {
          "duration": 0.19548008886718904,
          "durationTicks": 467,
          "midi": 78,
          "name": "F#5",
          "ticks": 53262,
          "time": 22.294776216796873,
          "velocity": 0.5905511811023622
        },
        {
          "duration": 0.21180497851562663,
          "durationTicks": 506,
          "midi": 76,
          "name": "E5",
          "ticks": 53760,
          "time": 22.5032325,
          "velocity": 0.5984251968503937
        },
        {
          "duration": 0.1921313935546891,
          "durationTicks": 459,
          "midi": 74,
          "name": "D5",
          "ticks": 54297,
          "time": 22.72801367285156,
          "velocity": 0.5905511811023622
        },
        {
          "duration": 0.2000845449218751,
          "durationTicks": 478,
          "midi": 76,
          "name": "E5",
          "ticks": 54787,
          "time": 22.933121260742187,
          "velocity": 0.5905511811023622
        },
        {
          "duration": 0.207200522460937,
          "durationTicks": 495,
          "midi": 79,
          "name": "G5",
          "ticks": 55296,
          "time": 23.146182,
          "velocity": 0.6299212598425197
        },
        {
          "duration": 0.19548008886718904,
          "durationTicks": 467,
          "midi": 76,
          "name": "E5",
          "ticks": 55822,
          "time": 23.366358716796874,
          "velocity": 0.5905511811023622
        },
        {
          "duration": 0.207200522460937,
          "durationTicks": 495,
          "midi": 81,
          "name": "A5",
          "ticks": 56320,
          "time": 23.574815,
          "velocity": 0.5984251968503937
        },
        {
          "duration": 0.1954800888671855,
          "durationTicks": 467,
          "midi": 76,
          "name": "E5",
          "ticks": 56846,
          "time": 23.794991716796876,
          "velocity": 0.5905511811023622
        },
        {
          "duration": 0.21180497851562663,
          "durationTicks": 506,
          "midi": 78,
          "name": "F#5",
          "ticks": 57344,
          "time": 24.003448,
          "velocity": 0.5984251968503937
        },
        {
          "duration": 0.19213139355468556,
          "durationTicks": 459,
          "midi": 79,
          "name": "G5",
          "ticks": 57881,
          "time": 24.228229172851563,
          "velocity": 0.5905511811023622
        },
        {
          "duration": 0.2000845449218751,
          "durationTicks": 478,
          "midi": 76,
          "name": "E5",
          "ticks": 58371,
          "time": 24.433336760742186,
          "velocity": 0.5905511811023622
        },
        {
          "duration": 0.2143164999999989,
          "durationTicks": 512,
          "midi": 83,
          "name": "B5",
          "ticks": 58880,
          "time": 24.6463975,
          "velocity": 0.6299212598425197
        },
        {
          "duration": 0.19757302343750283,
          "durationTicks": 472,
          "midi": 81,
          "name": "A5",
          "ticks": 59423,
          "time": 24.873690194335936,
          "velocity": 0.5905511811023622
        },
        {
          "duration": 0.20175889257812685,
          "durationTicks": 482,
          "midi": 79,
          "name": "G5",
          "ticks": 59926,
          "time": 25.084239412109373,
          "velocity": 0.5905511811023622
        },
        {
          "duration": 0.20050313183593715,
          "durationTicks": 479,
          "midi": 78,
          "name": "F#5",
          "ticks": 60439,
          "time": 25.298974499023437,
          "velocity": 0.5905511811023622
        },
        {
          "duration": 0.1929685673828132,
          "durationTicks": 461,
          "midi": 76,
          "name": "E5",
          "ticks": 60949,
          "time": 25.512453825195312,
          "velocity": 0.5905511811023622
        },
        {
          "duration": 0.2009217187499992,
          "durationTicks": 480,
          "midi": 74,
          "name": "D5",
          "ticks": 61441,
          "time": 25.718398586914063,
          "velocity": 0.5905511811023622
        },
        {
          "duration": 0.207200522460937,
          "durationTicks": 495,
          "midi": 79,
          "name": "G5",
          "ticks": 61952,
          "time": 25.9322965,
          "velocity": 0.6299212598425197
        },
        {
          "duration": 0.19548008886718904,
          "durationTicks": 467,
          "midi": 76,
          "name": "E5",
          "ticks": 62478,
          "time": 26.152473216796874,
          "velocity": 0.5905511811023622
        },
        {
          "duration": 0.20720052246094056,
          "durationTicks": 495,
          "midi": 81,
          "name": "A5",
          "ticks": 62976,
          "time": 26.360929499999997,
          "velocity": 0.5984251968503937
        },
        {
          "duration": 0.1954800888671855,
          "durationTicks": 467,
          "midi": 76,
          "name": "E5",
          "ticks": 63502,
          "time": 26.581106216796876,
          "velocity": 0.5905511811023622
        },
        {
          "duration": 0.21180497851562663,
          "durationTicks": 506,
          "midi": 78,
          "name": "F#5",
          "ticks": 64000,
          "time": 26.7895625,
          "velocity": 0.5984251968503937
        },
        {
          "duration": 0.19213139355468556,
          "durationTicks": 459,
          "midi": 79,
          "name": "G5",
          "ticks": 64537,
          "time": 27.014343672851563,
          "velocity": 0.5905511811023622
        },
        {
          "duration": 0.2000845449218751,
          "durationTicks": 478,
          "midi": 76,
          "name": "E5",
          "ticks": 65027,
          "time": 27.219451260742186,
          "velocity": 0.5905511811023622
        },
        {
          "duration": 0.207200522460937,
          "durationTicks": 495,
          "midi": 83,
          "name": "B5",
          "ticks": 65536,
          "time": 27.432512,
          "velocity": 0.6299212598425197
        },
        {
          "duration": 0.19548008886718904,
          "durationTicks": 467,
          "midi": 81,
          "name": "A5",
          "ticks": 66062,
          "time": 27.652688716796874,
          "velocity": 0.5905511811023622
        },
        {
          "duration": 0.207200522460937,
          "durationTicks": 495,
          "midi": 79,
          "name": "G5",
          "ticks": 66560,
          "time": 27.861145,
          "velocity": 0.5984251968503937
        },
        {
          "duration": 0.1954800888671855,
          "durationTicks": 467,
          "midi": 78,
          "name": "F#5",
          "ticks": 67086,
          "time": 28.081321716796875,
          "velocity": 0.5905511811023622
        },
        {
          "duration": 0.21180497851562663,
          "durationTicks": 506,
          "midi": 76,
          "name": "E5",
          "ticks": 67584,
          "time": 28.289778,
          "velocity": 0.5984251968503937
        },
        {
          "duration": 0.19213139355468556,
          "durationTicks": 459,
          "midi": 74,
          "name": "D5",
          "ticks": 68121,
          "time": 28.514559172851563,
          "velocity": 0.5905511811023622
        },
        {
          "duration": 0.2000845449218751,
          "durationTicks": 478,
          "midi": 76,
          "name": "E5",
          "ticks": 68611,
          "time": 28.719666760742186,
          "velocity": 0.5905511811023622
        },
        {
          "duration": 0.207200522460937,
          "durationTicks": 495,
          "midi": 79,
          "name": "G5",
          "ticks": 69120,
          "time": 28.9327275,
          "velocity": 0.6299212598425197
        },
        {
          "duration": 0.19548008886718904,
          "durationTicks": 467,
          "midi": 76,
          "name": "E5",
          "ticks": 69646,
          "time": 29.152904216796873,
          "velocity": 0.5905511811023622
        },
        {
          "duration": 0.207200522460937,
          "durationTicks": 495,
          "midi": 81,
          "name": "A5",
          "ticks": 70144,
          "time": 29.3613605,
          "velocity": 0.5984251968503937
        },
        {
          "duration": 0.1954800888671855,
          "durationTicks": 467,
          "midi": 76,
          "name": "E5",
          "ticks": 70670,
          "time": 29.581537216796875,
          "velocity": 0.5905511811023622
        },
        {
          "duration": 0.21180497851562663,
          "durationTicks": 506,
          "midi": 78,
          "name": "F#5",
          "ticks": 71168,
          "time": 29.789993499999998,
          "velocity": 0.5984251968503937
        },
        {
          "duration": 0.19213139355468556,
          "durationTicks": 459,
          "midi": 79,
          "name": "G5",
          "ticks": 71705,
          "time": 30.014774672851562,
          "velocity": 0.5905511811023622
        },
        {
          "duration": 0.2000845449218751,
          "durationTicks": 478,
          "midi": 76,
          "name": "E5",
          "ticks": 72195,
          "time": 30.219882260742185,
          "velocity": 0.5905511811023622
        },
        {
          "duration": 0.21431650000000246,
          "durationTicks": 512,
          "midi": 83,
          "name": "B5",
          "ticks": 72704,
          "time": 30.432942999999998,
          "velocity": 0.6299212598425197
        },
        {
          "duration": 0.19757302343749927,
          "durationTicks": 472,
          "midi": 81,
          "name": "A5",
          "ticks": 73247,
          "time": 30.660235694335938,
          "velocity": 0.5905511811023622
        },
        {
          "duration": 0.2017588925781233,
          "durationTicks": 482,
          "midi": 79,
          "name": "G5",
          "ticks": 73750,
          "time": 30.870784912109375,
          "velocity": 0.5905511811023622
        },
        {
          "duration": 0.20050313183593715,
          "durationTicks": 479,
          "midi": 78,
          "name": "F#5",
          "ticks": 74263,
          "time": 31.085519999023436,
          "velocity": 0.5905511811023622
        },
        {
          "duration": 0.1929685673828132,
          "durationTicks": 461,
          "midi": 76,
          "name": "E5",
          "ticks": 74773,
          "time": 31.29899932519531,
          "velocity": 0.5905511811023622
        },
        {
          "duration": 0.2009217187499992,
          "durationTicks": 480,
          "midi": 74,
          "name": "D5",
          "ticks": 75265,
          "time": 31.504944086914062,
          "velocity": 0.5905511811023622
        },
        {
          "duration": 0.207200522460937,
          "durationTicks": 495,
          "midi": 79,
          "name": "G5",
          "ticks": 75776,
          "time": 31.718842,
          "velocity": 0.6299212598425197
        },
        {
          "duration": 0.1954800888671855,
          "durationTicks": 467,
          "midi": 76,
          "name": "E5",
          "ticks": 76302,
          "time": 31.939018716796873,
          "velocity": 0.5905511811023622
        },
        {
          "duration": 0.207200522460937,
          "durationTicks": 495,
          "midi": 81,
          "name": "A5",
          "ticks": 76800,
          "time": 32.147475,
          "velocity": 0.5984251968503937
        },
        {
          "duration": 0.1954800888671926,
          "durationTicks": 467,
          "midi": 76,
          "name": "E5",
          "ticks": 77326,
          "time": 32.36765171679687,
          "velocity": 0.5905511811023622
        },
        {
          "duration": 0.21180497851562308,
          "durationTicks": 506,
          "midi": 78,
          "name": "F#5",
          "ticks": 77824,
          "time": 32.576108,
          "velocity": 0.5984251968503937
        },
        {
          "duration": 0.1921313935546891,
          "durationTicks": 459,
          "midi": 79,
          "name": "G5",
          "ticks": 78361,
          "time": 32.80088917285156,
          "velocity": 0.5905511811023622
        },
        {
          "duration": 0.20008454492187866,
          "durationTicks": 478,
          "midi": 76,
          "name": "E5",
          "ticks": 78851,
          "time": 33.005996760742185,
          "velocity": 0.5905511811023622
        },
        {
          "duration": 0.207200522460937,
          "durationTicks": 495,
          "midi": 83,
          "name": "B5",
          "ticks": 79360,
          "time": 33.2190575,
          "velocity": 0.6299212598425197
        },
        {
          "duration": 0.1954800888671855,
          "durationTicks": 467,
          "midi": 81,
          "name": "A5",
          "ticks": 79886,
          "time": 33.439234216796876,
          "velocity": 0.5905511811023622
        },
        {
          "duration": 0.207200522460937,
          "durationTicks": 495,
          "midi": 79,
          "name": "G5",
          "ticks": 80384,
          "time": 33.647690499999996,
          "velocity": 0.5984251968503937
        },
        {
          "duration": 0.1954800888671855,
          "durationTicks": 467,
          "midi": 78,
          "name": "F#5",
          "ticks": 80910,
          "time": 33.867867216796874,
          "velocity": 0.5905511811023622
        },
        {
          "duration": 0.21180497851562308,
          "durationTicks": 506,
          "midi": 76,
          "name": "E5",
          "ticks": 81408,
          "time": 34.0763235,
          "velocity": 0.5984251968503937
        },
        {
          "duration": 0.1921313935546891,
          "durationTicks": 459,
          "midi": 74,
          "name": "D5",
          "ticks": 81945,
          "time": 34.30110467285156,
          "velocity": 0.5905511811023622
        },
        {
          "duration": 0.20008454492187155,
          "durationTicks": 478,
          "midi": 76,
          "name": "E5",
          "ticks": 82435,
          "time": 34.50621226074219,
          "velocity": 0.5905511811023622
        },
        {
          "duration": 0.207200522460937,
          "durationTicks": 495,
          "midi": 79,
          "name": "G5",
          "ticks": 82944,
          "time": 34.719273,
          "velocity": 0.6299212598425197
        },
        {
          "duration": 0.1954800888671926,
          "durationTicks": 467,
          "midi": 76,
          "name": "E5",
          "ticks": 83470,
          "time": 34.93944971679687,
          "velocity": 0.5905511811023622
        },
        {
          "duration": 0.207200522460937,
          "durationTicks": 495,
          "midi": 81,
          "name": "A5",
          "ticks": 83968,
          "time": 35.147906,
          "velocity": 0.5984251968503937
        },
        {
          "duration": 0.1954800888671855,
          "durationTicks": 467,
          "midi": 76,
          "name": "E5",
          "ticks": 84494,
          "time": 35.36808271679688,
          "velocity": 0.5905511811023622
        },
        {
          "duration": 0.21180497851563018,
          "durationTicks": 506,
          "midi": 78,
          "name": "F#5",
          "ticks": 84992,
          "time": 35.576539,
          "velocity": 0.5984251968503937
        },
        {
          "duration": 0.1921313935546891,
          "durationTicks": 459,
          "midi": 79,
          "name": "G5",
          "ticks": 85529,
          "time": 35.80132017285156,
          "velocity": 0.5905511811023622
        },
        {
          "duration": 0.20008454492187866,
          "durationTicks": 478,
          "midi": 76,
          "name": "E5",
          "ticks": 86019,
          "time": 36.006427760742184,
          "velocity": 0.5905511811023622
        },
        {
          "duration": 0.21431650000000246,
          "durationTicks": 512,
          "midi": 83,
          "name": "B5",
          "ticks": 86528,
          "time": 36.2194885,
          "velocity": 0.6299212598425197
        },
        {
          "duration": 0.19757302343749927,
          "durationTicks": 472,
          "midi": 81,
          "name": "A5",
          "ticks": 87071,
          "time": 36.446781194335934,
          "velocity": 0.5905511811023622
        },
        {
          "duration": 0.20175889257812685,
          "durationTicks": 482,
          "midi": 79,
          "name": "G5",
          "ticks": 87574,
          "time": 36.657330412109374,
          "velocity": 0.5905511811023622
        },
        {
          "duration": 0.20050313183593715,
          "durationTicks": 479,
          "midi": 78,
          "name": "F#5",
          "ticks": 88087,
          "time": 36.872065499023435,
          "velocity": 0.5905511811023622
        },
        {
          "duration": 0.1929685673828132,
          "durationTicks": 461,
          "midi": 76,
          "name": "E5",
          "ticks": 88597,
          "time": 37.08554482519531,
          "velocity": 0.5905511811023622
        },
        {
          "duration": 0.20092171875000275,
          "durationTicks": 480,
          "midi": 74,
          "name": "D5",
          "ticks": 89089,
          "time": 37.29148958691406,
          "velocity": 0.5905511811023622
        },
        {
          "duration": 0.207200522460937,
          "durationTicks": 495,
          "midi": 79,
          "name": "G5",
          "ticks": 89600,
          "time": 37.5053875,
          "velocity": 0.6299212598425197
        },
        {
          "duration": 0.1954800888671855,
          "durationTicks": 467,
          "midi": 76,
          "name": "E5",
          "ticks": 90126,
          "time": 37.725564216796876,
          "velocity": 0.5905511811023622
        },
        {
          "duration": 0.20720052246094411,
          "durationTicks": 495,
          "midi": 81,
          "name": "A5",
          "ticks": 90624,
          "time": 37.934020499999995,
          "velocity": 0.5984251968503937
        },
        {
          "duration": 0.1954800888671855,
          "durationTicks": 467,
          "midi": 76,
          "name": "E5",
          "ticks": 91150,
          "time": 38.154197216796874,
          "velocity": 0.5905511811023622
        },
        {
          "duration": 0.21180497851562308,
          "durationTicks": 506,
          "midi": 78,
          "name": "F#5",
          "ticks": 91648,
          "time": 38.3626535,
          "velocity": 0.5984251968503937
        },
        {
          "duration": 0.192131393554682,
          "durationTicks": 459,
          "midi": 79,
          "name": "G5",
          "ticks": 92185,
          "time": 38.587434672851565,
          "velocity": 0.5905511811023622
        },
        {
          "duration": 0.20008454492187155,
          "durationTicks": 478,
          "midi": 76,
          "name": "E5",
          "ticks": 92675,
          "time": 38.79254226074219,
          "velocity": 0.5905511811023622
        },
        {
          "duration": 0.207200522460937,
          "durationTicks": 495,
          "midi": 83,
          "name": "B5",
          "ticks": 93184,
          "time": 39.005603,
          "velocity": 0.6299212598425197
        },
        {
          "duration": 0.1954800888671926,
          "durationTicks": 467,
          "midi": 81,
          "name": "A5",
          "ticks": 93710,
          "time": 39.22577971679687,
          "velocity": 0.5905511811023622
        },
        {
          "duration": 0.207200522460937,
          "durationTicks": 495,
          "midi": 79,
          "name": "G5",
          "ticks": 94208,
          "time": 39.434236,
          "velocity": 0.5984251968503937
        },
        {
          "duration": 0.1954800888671855,
          "durationTicks": 467,
          "midi": 78,
          "name": "F#5",
          "ticks": 94734,
          "time": 39.65441271679688,
          "velocity": 0.5905511811023622
        },
        {
          "duration": 0.21180497851563018,
          "durationTicks": 506,
          "midi": 76,
          "name": "E5",
          "ticks": 95232,
          "time": 39.862868999999996,
          "velocity": 0.5984251968503937
        },
        {
          "duration": 0.1921313935546891,
          "durationTicks": 459,
          "midi": 74,
          "name": "D5",
          "ticks": 95769,
          "time": 40.08765017285156,
          "velocity": 0.5905511811023622
        },
        {
          "duration": 0.20008454492187866,
          "durationTicks": 478,
          "midi": 76,
          "name": "E5",
          "ticks": 96259,
          "time": 40.292757760742184,
          "velocity": 0.5905511811023622
        },
        {
          "duration": 0.207200522460937,
          "durationTicks": 495,
          "midi": 79,
          "name": "G5",
          "ticks": 96768,
          "time": 40.5058185,
          "velocity": 0.6299212598425197
        },
        {
          "duration": 0.1954800888671855,
          "durationTicks": 467,
          "midi": 76,
          "name": "E5",
          "ticks": 97294,
          "time": 40.725995216796875,
          "velocity": 0.5905511811023622
        },
        {
          "duration": 0.207200522460937,
          "durationTicks": 495,
          "midi": 81,
          "name": "A5",
          "ticks": 97792,
          "time": 40.9344515,
          "velocity": 0.5984251968503937
        },
        {
          "duration": 0.1954800888671855,
          "durationTicks": 467,
          "midi": 76,
          "name": "E5",
          "ticks": 98318,
          "time": 41.15462821679687,
          "velocity": 0.5905511811023622
        },
        {
          "duration": 0.21180497851562308,
          "durationTicks": 506,
          "midi": 78,
          "name": "F#5",
          "ticks": 98816,
          "time": 41.3630845,
          "velocity": 0.5984251968503937
        },
        {
          "duration": 0.192131393554682,
          "durationTicks": 459,
          "midi": 79,
          "name": "G5",
          "ticks": 99353,
          "time": 41.587865672851564,
          "velocity": 0.5905511811023622
        },
        {
          "duration": 0.20008454492187155,
          "durationTicks": 478,
          "midi": 76,
          "name": "E5",
          "ticks": 99843,
          "time": 41.79297326074219,
          "velocity": 0.5905511811023622
        },
        {
          "duration": 0.21431650000000246,
          "durationTicks": 512,
          "midi": 83,
          "name": "B5",
          "ticks": 100352,
          "time": 42.006034,
          "velocity": 0.6299212598425197
        },
        {
          "duration": 0.19757302343749927,
          "durationTicks": 472,
          "midi": 81,
          "name": "A5",
          "ticks": 100895,
          "time": 42.233326694335936,
          "velocity": 0.5905511811023622
        },
        {
          "duration": 0.20175889257811974,
          "durationTicks": 482,
          "midi": 79,
          "name": "G5",
          "ticks": 101398,
          "time": 42.44387591210938,
          "velocity": 0.5905511811023622
        },
        {
          "duration": 0.20050313183593715,
          "durationTicks": 479,
          "midi": 78,
          "name": "F#5",
          "ticks": 101911,
          "time": 42.65861099902344,
          "velocity": 0.5905511811023622
        },
        {
          "duration": 0.1929685673828132,
          "durationTicks": 461,
          "midi": 76,
          "name": "E5",
          "ticks": 102421,
          "time": 42.87209032519531,
          "velocity": 0.5905511811023622
        },
        {
          "duration": 0.20092171874999565,
          "durationTicks": 480,
          "midi": 74,
          "name": "D5",
          "ticks": 102913,
          "time": 43.07803508691406,
          "velocity": 0.5905511811023622
        },
        {
          "duration": 0.207200522460937,
          "durationTicks": 495,
          "midi": 79,
          "name": "G5",
          "ticks": 103424,
          "time": 43.291933,
          "velocity": 0.6299212598425197
        },
        {
          "duration": 0.1954800888671926,
          "durationTicks": 467,
          "midi": 76,
          "name": "E5",
          "ticks": 103950,
          "time": 43.51210971679687,
          "velocity": 0.5905511811023622
        },
        {
          "duration": 0.207200522460937,
          "durationTicks": 495,
          "midi": 81,
          "name": "A5",
          "ticks": 104448,
          "time": 43.720566,
          "velocity": 0.5984251968503937
        },
        {
          "duration": 0.1954800888671855,
          "durationTicks": 467,
          "midi": 76,
          "name": "E5",
          "ticks": 104974,
          "time": 43.940742716796876,
          "velocity": 0.5905511811023622
        },
        {
          "duration": 0.21180497851563018,
          "durationTicks": 506,
          "midi": 78,
          "name": "F#5",
          "ticks": 105472,
          "time": 44.149198999999996,
          "velocity": 0.5984251968503937
        },
        {
          "duration": 0.1921313935546891,
          "durationTicks": 459,
          "midi": 79,
          "name": "G5",
          "ticks": 106009,
          "time": 44.37398017285156,
          "velocity": 0.5905511811023622
        },
        {
          "duration": 0.20008454492187866,
          "durationTicks": 478,
          "midi": 76,
          "name": "E5",
          "ticks": 106499,
          "time": 44.57908776074218,
          "velocity": 0.5905511811023622
        },
        {
          "duration": 0.207200522460937,
          "durationTicks": 495,
          "midi": 83,
          "name": "B5",
          "ticks": 107008,
          "time": 44.792148499999996,
          "velocity": 0.6299212598425197
        },
        {
          "duration": 0.1954800888671855,
          "durationTicks": 467,
          "midi": 81,
          "name": "A5",
          "ticks": 107534,
          "time": 45.012325216796874,
          "velocity": 0.5905511811023622
        },
        {
          "duration": 0.207200522460937,
          "durationTicks": 495,
          "midi": 79,
          "name": "G5",
          "ticks": 108032,
          "time": 45.2207815,
          "velocity": 0.5984251968503937
        },
        {
          "duration": 0.1954800888671855,
          "durationTicks": 467,
          "midi": 78,
          "name": "F#5",
          "ticks": 108558,
          "time": 45.44095821679687,
          "velocity": 0.5905511811023622
        },
        {
          "duration": 0.21180497851562308,
          "durationTicks": 506,
          "midi": 76,
          "name": "E5",
          "ticks": 109056,
          "time": 45.6494145,
          "velocity": 0.5984251968503937
        },
        {
          "duration": 0.192131393554682,
          "durationTicks": 459,
          "midi": 74,
          "name": "D5",
          "ticks": 109593,
          "time": 45.87419567285156,
          "velocity": 0.5905511811023622
        },
        {
          "duration": 0.20008454492187155,
          "durationTicks": 478,
          "midi": 76,
          "name": "E5",
          "ticks": 110083,
          "time": 46.079303260742186,
          "velocity": 0.5905511811023622
        },
        {
          "duration": 0.207200522460937,
          "durationTicks": 495,
          "midi": 79,
          "name": "G5",
          "ticks": 110592,
          "time": 46.292364,
          "velocity": 0.6299212598425197
        },
        {
          "duration": 0.1954800888671926,
          "durationTicks": 467,
          "midi": 76,
          "name": "E5",
          "ticks": 111118,
          "time": 46.51254071679687,
          "velocity": 0.5905511811023622
        },
        {
          "duration": 0.207200522460937,
          "durationTicks": 495,
          "midi": 81,
          "name": "A5",
          "ticks": 111616,
          "time": 46.720997,
          "velocity": 0.5984251968503937
        },
        {
          "duration": 0.1954800888671855,
          "durationTicks": 467,
          "midi": 76,
          "name": "E5",
          "ticks": 112142,
          "time": 46.941173716796875,
          "velocity": 0.5905511811023622
        },
        {
          "duration": 0.21180497851562308,
          "durationTicks": 506,
          "midi": 78,
          "name": "F#5",
          "ticks": 112640,
          "time": 47.14963,
          "velocity": 0.5984251968503937
        },
        {
          "duration": 0.1921313935546891,
          "durationTicks": 459,
          "midi": 79,
          "name": "G5",
          "ticks": 113177,
          "time": 47.37441117285156,
          "velocity": 0.5905511811023622
        },
        {
          "duration": 0.20008454492187155,
          "durationTicks": 478,
          "midi": 76,
          "name": "E5",
          "ticks": 113667,
          "time": 47.57951876074219,
          "velocity": 0.5905511811023622
        },
        {
          "duration": 0.21431650000000246,
          "durationTicks": 512,
          "midi": 83,
          "name": "B5",
          "ticks": 114176,
          "time": 47.792579499999995,
          "velocity": 0.6299212598425197
        },
        {
          "duration": 0.19757302343749927,
          "durationTicks": 472,
          "midi": 81,
          "name": "A5",
          "ticks": 114719,
          "time": 48.01987219433594,
          "velocity": 0.5905511811023622
        },
        {
          "duration": 0.20175889257812685,
          "durationTicks": 482,
          "midi": 79,
          "name": "G5",
          "ticks": 115222,
          "time": 48.23042141210937,
          "velocity": 0.5905511811023622
        },
        {
          "duration": 0.20050313183593715,
          "durationTicks": 479,
          "midi": 78,
          "name": "F#5",
          "ticks": 115735,
          "time": 48.44515649902343,
          "velocity": 0.5905511811023622
        },
        {
          "duration": 0.1929685673828132,
          "durationTicks": 461,
          "midi": 76,
          "name": "E5",
          "ticks": 116245,
          "time": 48.65863582519531,
          "velocity": 0.5905511811023622
        },
        {
          "duration": 0.20092171875000275,
          "durationTicks": 480,
          "midi": 74,
          "name": "D5",
          "ticks": 116737,
          "time": 48.86458058691406,
          "velocity": 0.5905511811023622
        },
        {
          "duration": 0.207200522460937,
          "durationTicks": 495,
          "midi": 79,
          "name": "G5",
          "ticks": 117248,
          "time": 49.078478499999996,
          "velocity": 0.6299212598425197
        },
        {
          "duration": 0.1954800888671855,
          "durationTicks": 467,
          "midi": 76,
          "name": "E5",
          "ticks": 117774,
          "time": 49.298655216796874,
          "velocity": 0.5905511811023622
        },
        {
          "duration": 0.207200522460937,
          "durationTicks": 495,
          "midi": 81,
          "name": "A5",
          "ticks": 118272,
          "time": 49.5071115,
          "velocity": 0.5984251968503937
        },
        {
          "duration": 0.1954800888671926,
          "durationTicks": 467,
          "midi": 76,
          "name": "E5",
          "ticks": 118798,
          "time": 49.72728821679687,
          "velocity": 0.5905511811023622
        },
        {
          "duration": 0.21180497851562308,
          "durationTicks": 506,
          "midi": 78,
          "name": "F#5",
          "ticks": 119296,
          "time": 49.9357445,
          "velocity": 0.5984251968503937
        },
        {
          "duration": 0.1921313935546891,
          "durationTicks": 459,
          "midi": 79,
          "name": "G5",
          "ticks": 119833,
          "time": 50.16052567285156,
          "velocity": 0.5905511811023622
        },
        {
          "duration": 0.20008454492187155,
          "durationTicks": 478,
          "midi": 76,
          "name": "E5",
          "ticks": 120323,
          "time": 50.365633260742186,
          "velocity": 0.5905511811023622
        },
        {
          "duration": 0.207200522460937,
          "durationTicks": 495,
          "midi": 83,
          "name": "B5",
          "ticks": 120832,
          "time": 50.578694,
          "velocity": 0.6299212598425197
        },
        {
          "duration": 0.1954800888671926,
          "durationTicks": 467,
          "midi": 81,
          "name": "A5",
          "ticks": 121358,
          "time": 50.79887071679687,
          "velocity": 0.5905511811023622
        },
        {
          "duration": 0.207200522460937,
          "durationTicks": 495,
          "midi": 79,
          "name": "G5",
          "ticks": 121856,
          "time": 51.007327,
          "velocity": 0.5984251968503937
        },
        {
          "duration": 0.1954800888671855,
          "durationTicks": 467,
          "midi": 78,
          "name": "F#5",
          "ticks": 122382,
          "time": 51.227503716796875,
          "velocity": 0.5905511811023622
        },
        {
          "duration": 0.21180497851562308,
          "durationTicks": 506,
          "midi": 76,
          "name": "E5",
          "ticks": 122880,
          "time": 51.43596,
          "velocity": 0.5984251968503937
        },
        {
          "duration": 0.1921313935546891,
          "durationTicks": 459,
          "midi": 74,
          "name": "D5",
          "ticks": 123417,
          "time": 51.66074117285156,
          "velocity": 0.5905511811023622
        },
        {
          "duration": 0.20008454492187155,
          "durationTicks": 478,
          "midi": 76,
          "name": "E5",
          "ticks": 123907,
          "time": 51.86584876074219,
          "velocity": 0.5905511811023622
        },
        {
          "duration": 0.207200522460937,
          "durationTicks": 495,
          "midi": 79,
          "name": "G5",
          "ticks": 124416,
          "time": 52.0789095,
          "velocity": 0.6299212598425197
        },
        {
          "duration": 0.1954800888671855,
          "durationTicks": 467,
          "midi": 76,
          "name": "E5",
          "ticks": 124942,
          "time": 52.29908621679687,
          "velocity": 0.5905511811023622
        },
        {
          "duration": 0.207200522460937,
          "durationTicks": 495,
          "midi": 81,
          "name": "A5",
          "ticks": 125440,
          "time": 52.5075425,
          "velocity": 0.5984251968503937
        },
        {
          "duration": 0.1954800888671926,
          "durationTicks": 467,
          "midi": 76,
          "name": "E5",
          "ticks": 125966,
          "time": 52.72771921679687,
          "velocity": 0.5905511811023622
        },
        {
          "duration": 0.21180497851562308,
          "durationTicks": 506,
          "midi": 78,
          "name": "F#5",
          "ticks": 126464,
          "time": 52.9361755,
          "velocity": 0.5984251968503937
        },
        {
          "duration": 0.1921313935546891,
          "durationTicks": 459,
          "midi": 79,
          "name": "G5",
          "ticks": 127001,
          "time": 53.16095667285156,
          "velocity": 0.5905511811023622
        },
        {
          "duration": 0.20008454492187866,
          "durationTicks": 478,
          "midi": 76,
          "name": "E5",
          "ticks": 127491,
          "time": 53.366064260742185,
          "velocity": 0.5905511811023622
        },
        {
          "duration": 0.21431650000000246,
          "durationTicks": 512,
          "midi": 83,
          "name": "B5",
          "ticks": 128000,
          "time": 53.579125,
          "velocity": 0.6299212598425197
        },
        {
          "duration": 0.19757302343749927,
          "durationTicks": 472,
          "midi": 81,
          "name": "A5",
          "ticks": 128543,
          "time": 53.806417694335934,
          "velocity": 0.5905511811023622
        },
        {
          "duration": 0.20175889257812685,
          "durationTicks": 482,
          "midi": 79,
          "name": "G5",
          "ticks": 129046,
          "time": 54.016966912109375,
          "velocity": 0.5905511811023622
        },
        {
          "duration": 0.20050313183593715,
          "durationTicks": 479,
          "midi": 78,
          "name": "F#5",
          "ticks": 129559,
          "time": 54.231701999023436,
          "velocity": 0.5905511811023622
        },
        {
          "duration": 0.1929685673828061,
          "durationTicks": 461,
          "midi": 76,
          "name": "E5",
          "ticks": 130069,
          "time": 54.445181325195314,
          "velocity": 0.5905511811023622
        },
        {
          "duration": 0.20092171875000275,
          "durationTicks": 480,
          "midi": 74,
          "name": "D5",
          "ticks": 130561,
          "time": 54.65112608691406,
          "velocity": 0.5905511811023622
        },
        {
          "duration": 0.207200522460937,
          "durationTicks": 495,
          "midi": 79,
          "name": "G5",
          "ticks": 131072,
          "time": 54.865024,
          "velocity": 0.6299212598425197
        },
        {
          "duration": 0.1954800888671855,
          "durationTicks": 467,
          "midi": 76,
          "name": "E5",
          "ticks": 131598,
          "time": 55.08520071679688,
          "velocity": 0.5905511811023622
        },
        {
          "duration": 0.207200522460937,
          "durationTicks": 495,
          "midi": 81,
          "name": "A5",
          "ticks": 132096,
          "time": 55.293656999999996,
          "velocity": 0.5984251968503937
        },
        {
          "duration": 0.1954800888671855,
          "durationTicks": 467,
          "midi": 76,
          "name": "E5",
          "ticks": 132622,
          "time": 55.513833716796874,
          "velocity": 0.5905511811023622
        },
        {
          "duration": 0.21180497851562308,
          "durationTicks": 506,
          "midi": 78,
          "name": "F#5",
          "ticks": 133120,
          "time": 55.72229,
          "velocity": 0.5984251968503937
        },
        {
          "duration": 0.1921313935546891,
          "durationTicks": 459,
          "midi": 79,
          "name": "G5",
          "ticks": 133657,
          "time": 55.94707117285156,
          "velocity": 0.5905511811023622
        },
        {
          "duration": 0.20008454492187155,
          "durationTicks": 478,
          "midi": 76,
          "name": "E5",
          "ticks": 134147,
          "time": 56.15217876074219,
          "velocity": 0.5905511811023622
        },
        {
          "duration": 0.207200522460937,
          "durationTicks": 495,
          "midi": 83,
          "name": "B5",
          "ticks": 134656,
          "time": 56.3652395,
          "velocity": 0.6299212598425197
        },
        {
          "duration": 0.1954800888671855,
          "durationTicks": 467,
          "midi": 81,
          "name": "A5",
          "ticks": 135182,
          "time": 56.58541621679687,
          "velocity": 0.5905511811023622
        },
        {
          "duration": 0.207200522460937,
          "durationTicks": 495,
          "midi": 79,
          "name": "G5",
          "ticks": 135680,
          "time": 56.7938725,
          "velocity": 0.5984251968503937
        },
        {
          "duration": 0.1954800888671926,
          "durationTicks": 467,
          "midi": 78,
          "name": "F#5",
          "ticks": 136206,
          "time": 57.01404921679687,
          "velocity": 0.5905511811023622
        },
        {
          "duration": 0.21180497851562308,
          "durationTicks": 506,
          "midi": 76,
          "name": "E5",
          "ticks": 136704,
          "time": 57.2225055,
          "velocity": 0.5984251968503937
        },
        {
          "duration": 0.1921313935546891,
          "durationTicks": 459,
          "midi": 74,
          "name": "D5",
          "ticks": 137241,
          "time": 57.44728667285156,
          "velocity": 0.5905511811023622
        },
        {
          "duration": 0.20008454492187866,
          "durationTicks": 478,
          "midi": 76,
          "name": "E5",
          "ticks": 137731,
          "time": 57.652394260742184,
          "velocity": 0.5905511811023622
        },
        {
          "duration": 0.207200522460937,
          "durationTicks": 495,
          "midi": 79,
          "name": "G5",
          "ticks": 138240,
          "time": 57.865455,
          "velocity": 0.6299212598425197
        },
        {
          "duration": 0.1954800888671855,
          "durationTicks": 467,
          "midi": 76,
          "name": "E5",
          "ticks": 138766,
          "time": 58.085631716796875,
          "velocity": 0.5905511811023622
        },
        {
          "duration": 0.20720052246094411,
          "durationTicks": 495,
          "midi": 81,
          "name": "A5",
          "ticks": 139264,
          "time": 58.294087999999995,
          "velocity": 0.5984251968503937
        },
        {
          "duration": 0.1954800888671855,
          "durationTicks": 467,
          "midi": 76,
          "name": "E5",
          "ticks": 139790,
          "time": 58.51426471679687,
          "velocity": 0.5905511811023622
        },
        {
          "duration": 0.21180497851562308,
          "durationTicks": 506,
          "midi": 78,
          "name": "F#5",
          "ticks": 140288,
          "time": 58.722721,
          "velocity": 0.5984251968503937
        },
        {
          "duration": 0.1921313935546891,
          "durationTicks": 459,
          "midi": 79,
          "name": "G5",
          "ticks": 140825,
          "time": 58.94750217285156,
          "velocity": 0.5905511811023622
        },
        {
          "duration": 0.20008454492187155,
          "durationTicks": 478,
          "midi": 76,
          "name": "E5",
          "ticks": 141315,
          "time": 59.15260976074219,
          "velocity": 0.5905511811023622
        },
        {
          "duration": 0.21431649999999536,
          "durationTicks": 512,
          "midi": 83,
          "name": "B5",
          "ticks": 141824,
          "time": 59.3656705,
          "velocity": 0.6299212598425197
        },
        {
          "duration": 0.19757302343749927,
          "durationTicks": 472,
          "midi": 81,
          "name": "A5",
          "ticks": 142367,
          "time": 59.59296319433594,
          "velocity": 0.5905511811023622
        },
        {
          "duration": 0.20175889257812685,
          "durationTicks": 482,
          "midi": 79,
          "name": "G5",
          "ticks": 142870,
          "time": 59.80351241210937,
          "velocity": 0.5905511811023622
        },
        {
          "duration": 0.20050313183593715,
          "durationTicks": 479,
          "midi": 78,
          "name": "F#5",
          "ticks": 143383,
          "time": 60.01824749902344,
          "velocity": 0.5905511811023622
        },
        {
          "duration": 0.1929685673828132,
          "durationTicks": 461,
          "midi": 76,
          "name": "E5",
          "ticks": 143893,
          "time": 60.23172682519531,
          "velocity": 0.5905511811023622
        },
        {
          "duration": 0.20092171874999565,
          "durationTicks": 480,
          "midi": 74,
          "name": "D5",
          "ticks": 144385,
          "time": 60.437671586914064,
          "velocity": 0.5905511811023622
        },
        {
          "duration": 0.207200522460937,
          "durationTicks": 495,
          "midi": 79,
          "name": "G5",
          "ticks": 144896,
          "time": 60.6515695,
          "velocity": 0.6299212598425197
        },
        {
          "duration": 0.1954800888671855,
          "durationTicks": 467,
          "midi": 76,
          "name": "E5",
          "ticks": 145422,
          "time": 60.87174621679687,
          "velocity": 0.5905511811023622
        },
        {
          "duration": 0.207200522460937,
          "durationTicks": 495,
          "midi": 81,
          "name": "A5",
          "ticks": 145920,
          "time": 61.0802025,
          "velocity": 0.5984251968503937
        },
        {
          "duration": 0.1954800888671926,
          "durationTicks": 467,
          "midi": 76,
          "name": "E5",
          "ticks": 146446,
          "time": 61.30037921679687,
          "velocity": 0.5905511811023622
        },
        {
          "duration": 0.21180497851562308,
          "durationTicks": 506,
          "midi": 78,
          "name": "F#5",
          "ticks": 146944,
          "time": 61.508835499999996,
          "velocity": 0.5984251968503937
        },
        {
          "duration": 0.1921313935546891,
          "durationTicks": 459,
          "midi": 79,
          "name": "G5",
          "ticks": 147481,
          "time": 61.73361667285156,
          "velocity": 0.5905511811023622
        },
        {
          "duration": 0.20008454492187866,
          "durationTicks": 478,
          "midi": 76,
          "name": "E5",
          "ticks": 147971,
          "time": 61.938724260742184,
          "velocity": 0.5905511811023622
        },
        {
          "duration": 0.207200522460937,
          "durationTicks": 495,
          "midi": 83,
          "name": "B5",
          "ticks": 148480,
          "time": 62.151785,
          "velocity": 0.6299212598425197
        },
        {
          "duration": 0.1954800888671855,
          "durationTicks": 467,
          "midi": 81,
          "name": "A5",
          "ticks": 149006,
          "time": 62.371961716796875,
          "velocity": 0.5905511811023622
        },
        {
          "duration": 0.20720052246094411,
          "durationTicks": 495,
          "midi": 79,
          "name": "G5",
          "ticks": 149504,
          "time": 62.580417999999995,
          "velocity": 0.5984251968503937
        },
        {
          "duration": 0.1954800888671855,
          "durationTicks": 467,
          "midi": 78,
          "name": "F#5",
          "ticks": 150030,
          "time": 62.80059471679687,
          "velocity": 0.5905511811023622
        },
        {
          "duration": 0.21180497851562308,
          "durationTicks": 506,
          "midi": 76,
          "name": "E5",
          "ticks": 150528,
          "time": 63.009051,
          "velocity": 0.5984251968503937
        },
        {
          "duration": 0.192131393554682,
          "durationTicks": 459,
          "midi": 74,
          "name": "D5",
          "ticks": 151065,
          "time": 63.233832172851564,
          "velocity": 0.5905511811023622
        },
        {
          "duration": 0.20008454492187155,
          "durationTicks": 478,
          "midi": 76,
          "name": "E5",
          "ticks": 151555,
          "time": 63.43893976074219,
          "velocity": 0.5905511811023622
        },
        {
          "duration": 0.207200522460937,
          "durationTicks": 495,
          "midi": 79,
          "name": "G5",
          "ticks": 152064,
          "time": 63.6520005,
          "velocity": 0.6299212598425197
        },
        {
          "duration": 0.1954800888671855,
          "durationTicks": 467,
          "midi": 76,
          "name": "E5",
          "ticks": 152590,
          "time": 63.87217721679687,
          "velocity": 0.5905511811023622
        },
        {
          "duration": 0.207200522460937,
          "durationTicks": 495,
          "midi": 81,
          "name": "A5",
          "ticks": 153088,
          "time": 64.0806335,
          "velocity": 0.5984251968503937
        },
        {
          "duration": 0.1954800888671855,
          "durationTicks": 467,
          "midi": 76,
          "name": "E5",
          "ticks": 153614,
          "time": 64.30081021679688,
          "velocity": 0.5905511811023622
        },
        {
          "duration": 0.21180497851563018,
          "durationTicks": 506,
          "midi": 78,
          "name": "F#5",
          "ticks": 154112,
          "time": 64.5092665,
          "velocity": 0.5984251968503937
        },
        {
          "duration": 0.1921313935546891,
          "durationTicks": 459,
          "midi": 79,
          "name": "G5",
          "ticks": 154649,
          "time": 64.73404767285156,
          "velocity": 0.5905511811023622
        },
        {
          "duration": 0.20008454492187866,
          "durationTicks": 478,
          "midi": 76,
          "name": "E5",
          "ticks": 155139,
          "time": 64.93915526074218,
          "velocity": 0.5905511811023622
        },
        {
          "duration": 0.21431649999999536,
          "durationTicks": 512,
          "midi": 83,
          "name": "B5",
          "ticks": 155648,
          "time": 65.152216,
          "velocity": 0.6299212598425197
        },
        {
          "duration": 0.19757302343749927,
          "durationTicks": 472,
          "midi": 81,
          "name": "A5",
          "ticks": 156191,
          "time": 65.37950869433594,
          "velocity": 0.5905511811023622
        },
        {
          "duration": 0.20175889257812685,
          "durationTicks": 482,
          "midi": 79,
          "name": "G5",
          "ticks": 156694,
          "time": 65.59005791210937,
          "velocity": 0.5905511811023622
        },
        {
          "duration": 0.20050313183594426,
          "durationTicks": 479,
          "midi": 78,
          "name": "F#5",
          "ticks": 157207,
          "time": 65.80479299902343,
          "velocity": 0.5905511811023622
        },
        {
          "duration": 0.1929685673828061,
          "durationTicks": 461,
          "midi": 76,
          "name": "E5",
          "ticks": 157717,
          "time": 66.01827232519531,
          "velocity": 0.5905511811023622
        },
        {
          "duration": 0.20092171874999565,
          "durationTicks": 480,
          "midi": 74,
          "name": "D5",
          "ticks": 158209,
          "time": 66.22421708691407,
          "velocity": 0.5905511811023622
        },
        {
          "duration": 0.207200522460937,
          "durationTicks": 495,
          "midi": 79,
          "name": "G5",
          "ticks": 158720,
          "time": 66.438115,
          "velocity": 0.6299212598425197
        },
        {
          "duration": 0.1954800888671997,
          "durationTicks": 467,
          "midi": 76,
          "name": "E5",
          "ticks": 159246,
          "time": 66.65829171679687,
          "velocity": 0.5905511811023622
        },
        {
          "duration": 0.207200522460937,
          "durationTicks": 495,
          "midi": 81,
          "name": "A5",
          "ticks": 159744,
          "time": 66.866748,
          "velocity": 0.5984251968503937
        },
        {
          "duration": 0.1954800888671855,
          "durationTicks": 467,
          "midi": 76,
          "name": "E5",
          "ticks": 160270,
          "time": 67.08692471679687,
          "velocity": 0.5905511811023622
        },
        {
          "duration": 0.21180497851563018,
          "durationTicks": 506,
          "midi": 78,
          "name": "F#5",
          "ticks": 160768,
          "time": 67.29538099999999,
          "velocity": 0.5984251968503937
        },
        {
          "duration": 0.1921313935546891,
          "durationTicks": 459,
          "midi": 79,
          "name": "G5",
          "ticks": 161305,
          "time": 67.52016217285156,
          "velocity": 0.5905511811023622
        },
        {
          "duration": 0.20008454492187866,
          "durationTicks": 478,
          "midi": 76,
          "name": "E5",
          "ticks": 161795,
          "time": 67.72526976074218,
          "velocity": 0.5905511811023622
        },
        {
          "duration": 0.207200522460937,
          "durationTicks": 495,
          "midi": 83,
          "name": "B5",
          "ticks": 162304,
          "time": 67.93833049999999,
          "velocity": 0.6299212598425197
        },
        {
          "duration": 0.1954800888671855,
          "durationTicks": 467,
          "midi": 81,
          "name": "A5",
          "ticks": 162830,
          "time": 68.15850721679688,
          "velocity": 0.5905511811023622
        },
        {
          "duration": 0.207200522460937,
          "durationTicks": 495,
          "midi": 79,
          "name": "G5",
          "ticks": 163328,
          "time": 68.3669635,
          "velocity": 0.5984251968503937
        },
        {
          "duration": 0.1954800888671855,
          "durationTicks": 467,
          "midi": 78,
          "name": "F#5",
          "ticks": 163854,
          "time": 68.58714021679687,
          "velocity": 0.5905511811023622
        },
        {
          "duration": 0.21180497851561597,
          "durationTicks": 506,
          "midi": 76,
          "name": "E5",
          "ticks": 164352,
          "time": 68.7955965,
          "velocity": 0.5984251968503937
        },
        {
          "duration": 0.1921313935546749,
          "durationTicks": 459,
          "midi": 74,
          "name": "D5",
          "ticks": 164889,
          "time": 69.02037767285157,
          "velocity": 0.5905511811023622
        },
        {
          "duration": 0.20008454492186445,
          "durationTicks": 478,
          "midi": 76,
          "name": "E5",
          "ticks": 165379,
          "time": 69.22548526074219,
          "velocity": 0.5905511811023622
        },
        {
          "duration": 0.207200522460937,
          "durationTicks": 495,
          "midi": 77,
          "name": "F5",
          "ticks": 182272,
          "time": 76.296674,
          "velocity": 0.6299212598425197
        },
        {
          "duration": 0.1954800888671997,
          "durationTicks": 467,
          "midi": 74,
          "name": "D5",
          "ticks": 182798,
          "time": 76.51685071679687,
          "velocity": 0.5905511811023622
        },
        {
          "duration": 0.207200522460937,
          "durationTicks": 495,
          "midi": 79,
          "name": "G5",
          "ticks": 183296,
          "time": 76.725307,
          "velocity": 0.5984251968503937
        },
        {
          "duration": 0.1954800888671855,
          "durationTicks": 467,
          "midi": 74,
          "name": "D5",
          "ticks": 183822,
          "time": 76.94548371679687,
          "velocity": 0.5905511811023622
        },
        {
          "duration": 0.21180497851563018,
          "durationTicks": 506,
          "midi": 76,
          "name": "E5",
          "ticks": 184320,
          "time": 77.15393999999999,
          "velocity": 0.5984251968503937
        },
        {
          "duration": 0.1921313935546891,
          "durationTicks": 459,
          "midi": 77,
          "name": "F5",
          "ticks": 184857,
          "time": 77.37872117285156,
          "velocity": 0.5905511811023622
        },
        {
          "duration": 0.20008454492187866,
          "durationTicks": 478,
          "midi": 74,
          "name": "D5",
          "ticks": 185347,
          "time": 77.58382876074218,
          "velocity": 0.5905511811023622
        },
        {
          "duration": 0.207200522460937,
          "durationTicks": 495,
          "midi": 81,
          "name": "A5",
          "ticks": 185856,
          "time": 77.79688949999999,
          "velocity": 0.6299212598425197
        },
        {
          "duration": 0.1954800888671855,
          "durationTicks": 467,
          "midi": 79,
          "name": "G5",
          "ticks": 186382,
          "time": 78.01706621679688,
          "velocity": 0.5905511811023622
        },
        {
          "duration": 0.207200522460937,
          "durationTicks": 495,
          "midi": 77,
          "name": "F5",
          "ticks": 186880,
          "time": 78.2255225,
          "velocity": 0.5984251968503937
        },
        {
          "duration": 0.1954800888671855,
          "durationTicks": 467,
          "midi": 76,
          "name": "E5",
          "ticks": 187406,
          "time": 78.44569921679687,
          "velocity": 0.5905511811023622
        },
        {
          "duration": 0.21180497851561597,
          "durationTicks": 506,
          "midi": 74,
          "name": "D5",
          "ticks": 187904,
          "time": 78.6541555,
          "velocity": 0.5984251968503937
        },
        {
          "duration": 0.1921313935546749,
          "durationTicks": 459,
          "midi": 72,
          "name": "C5",
          "ticks": 188441,
          "time": 78.87893667285157,
          "velocity": 0.5905511811023622
        },
        {
          "duration": 0.20008454492186445,
          "durationTicks": 478,
          "midi": 74,
          "name": "D5",
          "ticks": 188931,
          "time": 79.08404426074219,
          "velocity": 0.5905511811023622
        },
        {
          "duration": 0.207200522460937,
          "durationTicks": 495,
          "midi": 77,
          "name": "F5",
          "ticks": 189440,
          "time": 79.297105,
          "velocity": 0.6299212598425197
        },
        {
          "duration": 0.1954800888671855,
          "durationTicks": 467,
          "midi": 74,
          "name": "D5",
          "ticks": 189966,
          "time": 79.51728171679687,
          "velocity": 0.5905511811023622
        },
        {
          "duration": 0.207200522460937,
          "durationTicks": 495,
          "midi": 79,
          "name": "G5",
          "ticks": 190464,
          "time": 79.72573799999999,
          "velocity": 0.5984251968503937
        },
        {
          "duration": 0.1954800888671855,
          "durationTicks": 467,
          "midi": 74,
          "name": "D5",
          "ticks": 190990,
          "time": 79.94591471679688,
          "velocity": 0.5905511811023622
        },
        {
          "duration": 0.21180497851563018,
          "durationTicks": 506,
          "midi": 76,
          "name": "E5",
          "ticks": 191488,
          "time": 80.154371,
          "velocity": 0.5984251968503937
        },
        {
          "duration": 0.1921313935546891,
          "durationTicks": 459,
          "midi": 77,
          "name": "F5",
          "ticks": 192025,
          "time": 80.37915217285156,
          "velocity": 0.5905511811023622
        },
        {
          "duration": 0.20008454492187866,
          "durationTicks": 478,
          "midi": 74,
          "name": "D5",
          "ticks": 192515,
          "time": 80.58425976074219,
          "velocity": 0.5905511811023622
        },
        {
          "duration": 0.207200522460937,
          "durationTicks": 495,
          "midi": 81,
          "name": "A5",
          "ticks": 193024,
          "time": 80.7973205,
          "velocity": 0.6299212598425197
        },
        {
          "duration": 0.1954800888671855,
          "durationTicks": 467,
          "midi": 79,
          "name": "G5",
          "ticks": 193550,
          "time": 81.01749721679687,
          "velocity": 0.5905511811023622
        },
        {
          "duration": 0.207200522460937,
          "durationTicks": 495,
          "midi": 77,
          "name": "F5",
          "ticks": 194048,
          "time": 81.2259535,
          "velocity": 0.5984251968503937
        },
        {
          "duration": 0.1954800888671855,
          "durationTicks": 467,
          "midi": 76,
          "name": "E5",
          "ticks": 194574,
          "time": 81.44613021679687,
          "velocity": 0.5905511811023622
        },
        {
          "duration": 0.21180497851563018,
          "durationTicks": 506,
          "midi": 74,
          "name": "D5",
          "ticks": 195072,
          "time": 81.6545865,
          "velocity": 0.5984251968503937
        },
        {
          "duration": 0.1921313935546891,
          "durationTicks": 459,
          "midi": 72,
          "name": "C5",
          "ticks": 195609,
          "time": 81.87936767285156,
          "velocity": 0.5905511811023622
        },
        {
          "duration": 0.20008454492187866,
          "durationTicks": 478,
          "midi": 74,
          "name": "D5",
          "ticks": 196099,
          "time": 82.08447526074218,
          "velocity": 0.5905511811023622
        },
        {
          "duration": 0.207200522460937,
          "durationTicks": 495,
          "midi": 77,
          "name": "F5",
          "ticks": 212992,
          "time": 89.155664,
          "velocity": 0.6299212598425197
        },
        {
          "duration": 0.1954800888671855,
          "durationTicks": 467,
          "midi": 74,
          "name": "D5",
          "ticks": 213518,
          "time": 89.37584071679687,
          "velocity": 0.5905511811023622
        },
        {
          "duration": 0.207200522460937,
          "durationTicks": 495,
          "midi": 79,
          "name": "G5",
          "ticks": 214016,
          "time": 89.58429699999999,
          "velocity": 0.5984251968503937
        },
        {
          "duration": 0.1954800888671855,
          "durationTicks": 467,
          "midi": 74,
          "name": "D5",
          "ticks": 214542,
          "time": 89.80447371679688,
          "velocity": 0.5905511811023622
        },
        {
          "duration": 0.21180497851563018,
          "durationTicks": 506,
          "midi": 76,
          "name": "E5",
          "ticks": 215040,
          "time": 90.01293,
          "velocity": 0.5984251968503937
        },
        {
          "duration": 0.1921313935546891,
          "durationTicks": 459,
          "midi": 77,
          "name": "F5",
          "ticks": 215577,
          "time": 90.23771117285156,
          "velocity": 0.5905511811023622
        },
        {
          "duration": 0.20008454492187866,
          "durationTicks": 478,
          "midi": 74,
          "name": "D5",
          "ticks": 216067,
          "time": 90.44281876074218,
          "velocity": 0.5905511811023622
        },
        {
          "duration": 0.207200522460937,
          "durationTicks": 495,
          "midi": 81,
          "name": "A5",
          "ticks": 216576,
          "time": 90.6558795,
          "velocity": 0.6299212598425197
        },
        {
          "duration": 0.1954800888671855,
          "durationTicks": 467,
          "midi": 79,
          "name": "G5",
          "ticks": 217102,
          "time": 90.87605621679687,
          "velocity": 0.5905511811023622
        },
        {
          "duration": 0.207200522460937,
          "durationTicks": 495,
          "midi": 77,
          "name": "F5",
          "ticks": 217600,
          "time": 91.0845125,
          "velocity": 0.5984251968503937
        },
        {
          "duration": 0.1954800888671855,
          "durationTicks": 467,
          "midi": 76,
          "name": "E5",
          "ticks": 218126,
          "time": 91.30468921679687,
          "velocity": 0.5905511811023622
        },
        {
          "duration": 0.21180497851563018,
          "durationTicks": 506,
          "midi": 74,
          "name": "D5",
          "ticks": 218624,
          "time": 91.5131455,
          "velocity": 0.5984251968503937
        },
        {
          "duration": 0.1921313935546891,
          "durationTicks": 459,
          "midi": 72,
          "name": "C5",
          "ticks": 219161,
          "time": 91.73792667285156,
          "velocity": 0.5905511811023622
        },
        {
          "duration": 0.20008454492187866,
          "durationTicks": 478,
          "midi": 74,
          "name": "D5",
          "ticks": 219651,
          "time": 91.94303426074218,
          "velocity": 0.5905511811023622
        },
        {
          "duration": 0.207200522460937,
          "durationTicks": 495,
          "midi": 77,
          "name": "F5",
          "ticks": 220160,
          "time": 92.156095,
          "velocity": 0.6299212598425197
        },
        {
          "duration": 0.1954800888671855,
          "durationTicks": 467,
          "midi": 74,
          "name": "D5",
          "ticks": 220686,
          "time": 92.37627171679688,
          "velocity": 0.5905511811023622
        },
        {
          "duration": 0.207200522460937,
          "durationTicks": 495,
          "midi": 79,
          "name": "G5",
          "ticks": 221184,
          "time": 92.584728,
          "velocity": 0.5984251968503937
        },
        {
          "duration": 0.1954800888671855,
          "durationTicks": 467,
          "midi": 74,
          "name": "D5",
          "ticks": 221710,
          "time": 92.80490471679687,
          "velocity": 0.5905511811023622
        },
        {
          "duration": 0.21180497851561597,
          "durationTicks": 506,
          "midi": 76,
          "name": "E5",
          "ticks": 222208,
          "time": 93.013361,
          "velocity": 0.5984251968503937
        },
        {
          "duration": 0.1921313935546891,
          "durationTicks": 459,
          "midi": 77,
          "name": "F5",
          "ticks": 222745,
          "time": 93.23814217285155,
          "velocity": 0.5905511811023622
        },
        {
          "duration": 0.20008454492186445,
          "durationTicks": 478,
          "midi": 74,
          "name": "D5",
          "ticks": 223235,
          "time": 93.44324976074219,
          "velocity": 0.5905511811023622
        },
        {
          "duration": 0.207200522460937,
          "durationTicks": 495,
          "midi": 81,
          "name": "A5",
          "ticks": 223744,
          "time": 93.6563105,
          "velocity": 0.6299212598425197
        },
        {
          "duration": 0.1954800888671855,
          "durationTicks": 467,
          "midi": 79,
          "name": "G5",
          "ticks": 224270,
          "time": 93.87648721679687,
          "velocity": 0.5905511811023622
        },
        {
          "duration": 0.207200522460937,
          "durationTicks": 495,
          "midi": 77,
          "name": "F5",
          "ticks": 224768,
          "time": 94.0849435,
          "velocity": 0.5984251968503937
        },
        {
          "duration": 0.1954800888671997,
          "durationTicks": 467,
          "midi": 76,
          "name": "E5",
          "ticks": 225294,
          "time": 94.30512021679687,
          "velocity": 0.5905511811023622
        },
        {
          "duration": 0.21180497851561597,
          "durationTicks": 506,
          "midi": 74,
          "name": "D5",
          "ticks": 225792,
          "time": 94.5135765,
          "velocity": 0.5984251968503937
        },
        {
          "duration": 0.1921313935546891,
          "durationTicks": 459,
          "midi": 72,
          "name": "C5",
          "ticks": 226329,
          "time": 94.73835767285156,
          "velocity": 0.5905511811023622
        },
        {
          "duration": 0.20008454492187866,
          "durationTicks": 478,
          "midi": 74,
          "name": "D5",
          "ticks": 226819,
          "time": 94.94346526074219,
          "velocity": 0.5905511811023622
        },
        {
          "duration": 0.207200522460937,
          "durationTicks": 495,
          "midi": 79,
          "name": "G5",
          "ticks": 243712,
          "time": 102.014654,
          "velocity": 0.6299212598425197
        },
        {
          "duration": 0.1954800888671855,
          "durationTicks": 467,
          "midi": 76,
          "name": "E5",
          "ticks": 244238,
          "time": 102.23483071679688,
          "velocity": 0.5905511811023622
        },
        {
          "duration": 0.207200522460937,
          "durationTicks": 495,
          "midi": 81,
          "name": "A5",
          "ticks": 244736,
          "time": 102.443287,
          "velocity": 0.5984251968503937
        },
        {
          "duration": 0.1954800888671855,
          "durationTicks": 467,
          "midi": 76,
          "name": "E5",
          "ticks": 245262,
          "time": 102.66346371679687,
          "velocity": 0.5905511811023622
        },
        {
          "duration": 0.21180497851561597,
          "durationTicks": 506,
          "midi": 78,
          "name": "F#5",
          "ticks": 245760,
          "time": 102.87192,
          "velocity": 0.5984251968503937
        },
        {
          "duration": 0.1921313935546891,
          "durationTicks": 459,
          "midi": 79,
          "name": "G5",
          "ticks": 246297,
          "time": 103.09670117285155,
          "velocity": 0.5905511811023622
        },
        {
          "duration": 0.20008454492186445,
          "durationTicks": 478,
          "midi": 76,
          "name": "E5",
          "ticks": 246787,
          "time": 103.30180876074219,
          "velocity": 0.5905511811023622
        },
        {
          "duration": 0.21431649999999536,
          "durationTicks": 512,
          "midi": 83,
          "name": "B5",
          "ticks": 247296,
          "time": 103.5148695,
          "velocity": 0.6299212598425197
        },
        {
          "duration": 0.19757302343749927,
          "durationTicks": 472,
          "midi": 81,
          "name": "A5",
          "ticks": 247839,
          "time": 103.74216219433593,
          "velocity": 0.5905511811023622
        },
        {
          "duration": 0.20175889257812685,
          "durationTicks": 482,
          "midi": 79,
          "name": "G5",
          "ticks": 248342,
          "time": 103.95271141210937,
          "velocity": 0.5905511811023622
        },
        {
          "duration": 0.20050313183593005,
          "durationTicks": 479,
          "midi": 78,
          "name": "F#5",
          "ticks": 248855,
          "time": 104.16744649902344,
          "velocity": 0.5905511811023622
        },
        {
          "duration": 0.1929685673828203,
          "durationTicks": 461,
          "midi": 76,
          "name": "E5",
          "ticks": 249365,
          "time": 104.3809258251953,
          "velocity": 0.5905511811023622
        },
        {
          "duration": 0.20092171874999565,
          "durationTicks": 480,
          "midi": 74,
          "name": "D5",
          "ticks": 249857,
          "time": 104.58687058691406,
          "velocity": 0.5905511811023622
        },
        {
          "duration": 0.20720052246095122,
          "durationTicks": 495,
          "midi": 79,
          "name": "G5",
          "ticks": 250368,
          "time": 104.80076849999999,
          "velocity": 0.6299212598425197
        },
        {
          "duration": 0.1954800888671855,
          "durationTicks": 467,
          "midi": 76,
          "name": "E5",
          "ticks": 250894,
          "time": 105.02094521679687,
          "velocity": 0.5905511811023622
        },
        {
          "duration": 0.207200522460937,
          "durationTicks": 495,
          "midi": 81,
          "name": "A5",
          "ticks": 251392,
          "time": 105.2294015,
          "velocity": 0.5984251968503937
        },
        {
          "duration": 0.1954800888671997,
          "durationTicks": 467,
          "midi": 76,
          "name": "E5",
          "ticks": 251918,
          "time": 105.44957821679687,
          "velocity": 0.5905511811023622
        },
        {
          "duration": 0.21180497851561597,
          "durationTicks": 506,
          "midi": 78,
          "name": "F#5",
          "ticks": 252416,
          "time": 105.6580345,
          "velocity": 0.5984251968503937
        },
        {
          "duration": 0.1921313935546891,
          "durationTicks": 459,
          "midi": 79,
          "name": "G5",
          "ticks": 252953,
          "time": 105.88281567285156,
          "velocity": 0.5905511811023622
        },
        {
          "duration": 0.20008454492187866,
          "durationTicks": 478,
          "midi": 76,
          "name": "E5",
          "ticks": 253443,
          "time": 106.08792326074219,
          "velocity": 0.5905511811023622
        },
        {
          "duration": 0.207200522460937,
          "durationTicks": 495,
          "midi": 83,
          "name": "B5",
          "ticks": 253952,
          "time": 106.300984,
          "velocity": 0.6299212598425197
        },
        {
          "duration": 0.1954800888671855,
          "durationTicks": 467,
          "midi": 81,
          "name": "A5",
          "ticks": 254478,
          "time": 106.52116071679687,
          "velocity": 0.5905511811023622
        },
        {
          "duration": 0.207200522460937,
          "durationTicks": 495,
          "midi": 79,
          "name": "G5",
          "ticks": 254976,
          "time": 106.72961699999999,
          "velocity": 0.5984251968503937
        },
        {
          "duration": 0.1954800888671855,
          "durationTicks": 467,
          "midi": 78,
          "name": "F#5",
          "ticks": 255502,
          "time": 106.94979371679688,
          "velocity": 0.5905511811023622
        },
        {
          "duration": 0.21180497851563018,
          "durationTicks": 506,
          "midi": 76,
          "name": "E5",
          "ticks": 256000,
          "time": 107.15825,
          "velocity": 0.5984251968503937
        },
        {
          "duration": 0.1921313935546891,
          "durationTicks": 459,
          "midi": 74,
          "name": "D5",
          "ticks": 256537,
          "time": 107.38303117285156,
          "velocity": 0.5905511811023622
        },
        {
          "duration": 0.20008454492187866,
          "durationTicks": 478,
          "midi": 76,
          "name": "E5",
          "ticks": 257027,
          "time": 107.58813876074218,
          "velocity": 0.5905511811023622
        },
        {
          "duration": 0.207200522460937,
          "durationTicks": 495,
          "midi": 79,
          "name": "G5",
          "ticks": 257536,
          "time": 107.8011995,
          "velocity": 0.6299212598425197
        },
        {
          "duration": 0.1954800888671855,
          "durationTicks": 467,
          "midi": 76,
          "name": "E5",
          "ticks": 258062,
          "time": 108.02137621679687,
          "velocity": 0.5905511811023622
        },
        {
          "duration": 0.207200522460937,
          "durationTicks": 495,
          "midi": 81,
          "name": "A5",
          "ticks": 258560,
          "time": 108.2298325,
          "velocity": 0.5984251968503937
        },
        {
          "duration": 0.1954800888671855,
          "durationTicks": 467,
          "midi": 76,
          "name": "E5",
          "ticks": 259086,
          "time": 108.45000921679687,
          "velocity": 0.5905511811023622
        },
        {
          "duration": 0.21180497851563018,
          "durationTicks": 506,
          "midi": 78,
          "name": "F#5",
          "ticks": 259584,
          "time": 108.65846549999999,
          "velocity": 0.5984251968503937
        },
        {
          "duration": 0.1921313935546891,
          "durationTicks": 459,
          "midi": 79,
          "name": "G5",
          "ticks": 260121,
          "time": 108.88324667285156,
          "velocity": 0.5905511811023622
        },
        {
          "duration": 0.20008454492187866,
          "durationTicks": 478,
          "midi": 76,
          "name": "E5",
          "ticks": 260611,
          "time": 109.08835426074218,
          "velocity": 0.5905511811023622
        },
        {
          "duration": 0.21431650000000957,
          "durationTicks": 512,
          "midi": 83,
          "name": "B5",
          "ticks": 261120,
          "time": 109.30141499999999,
          "velocity": 0.6299212598425197
        },
        {
          "duration": 0.19757302343749927,
          "durationTicks": 472,
          "midi": 81,
          "name": "A5",
          "ticks": 261663,
          "time": 109.52870769433594,
          "velocity": 0.5905511811023622
        },
        {
          "duration": 0.20175889257812685,
          "durationTicks": 482,
          "midi": 79,
          "name": "G5",
          "ticks": 262166,
          "time": 109.73925691210937,
          "velocity": 0.5905511811023622
        },
        {
          "duration": 0.20050313183594426,
          "durationTicks": 479,
          "midi": 78,
          "name": "F#5",
          "ticks": 262679,
          "time": 109.95399199902343,
          "velocity": 0.5905511811023622
        },
        {
          "duration": 0.1929685673828203,
          "durationTicks": 461,
          "midi": 76,
          "name": "E5",
          "ticks": 263189,
          "time": 110.16747132519531,
          "velocity": 0.5905511811023622
        },
        {
          "duration": 0.20092171874999565,
          "durationTicks": 480,
          "midi": 74,
          "name": "D5",
          "ticks": 263681,
          "time": 110.37341608691406,
          "velocity": 0.5905511811023622
        },
        {
          "duration": 0.207200522460937,
          "durationTicks": 495,
          "midi": 79,
          "name": "G5",
          "ticks": 264192,
          "time": 110.58731399999999,
          "velocity": 0.6299212598425197
        },
        {
          "duration": 0.1954800888671855,
          "durationTicks": 467,
          "midi": 76,
          "name": "E5",
          "ticks": 264718,
          "time": 110.80749071679688,
          "velocity": 0.5905511811023622
        },
        {
          "duration": 0.207200522460937,
          "durationTicks": 495,
          "midi": 81,
          "name": "A5",
          "ticks": 265216,
          "time": 111.015947,
          "velocity": 0.5984251968503937
        },
        {
          "duration": 0.1954800888671855,
          "durationTicks": 467,
          "midi": 76,
          "name": "E5",
          "ticks": 265742,
          "time": 111.23612371679687,
          "velocity": 0.5905511811023622
        },
        {
          "duration": 0.21180497851561597,
          "durationTicks": 506,
          "midi": 78,
          "name": "F#5",
          "ticks": 266240,
          "time": 111.44458,
          "velocity": 0.5984251968503937
        },
        {
          "duration": 0.1921313935546891,
          "durationTicks": 459,
          "midi": 79,
          "name": "G5",
          "ticks": 266777,
          "time": 111.66936117285155,
          "velocity": 0.5905511811023622
        },
        {
          "duration": 0.20008454492186445,
          "durationTicks": 478,
          "midi": 76,
          "name": "E5",
          "ticks": 267267,
          "time": 111.87446876074219,
          "velocity": 0.5905511811023622
        },
        {
          "duration": 0.207200522460937,
          "durationTicks": 495,
          "midi": 83,
          "name": "B5",
          "ticks": 267776,
          "time": 112.0875295,
          "velocity": 0.6299212598425197
        },
        {
          "duration": 0.1954800888671855,
          "durationTicks": 467,
          "midi": 81,
          "name": "A5",
          "ticks": 268302,
          "time": 112.30770621679687,
          "velocity": 0.5905511811023622
        },
        {
          "duration": 0.207200522460937,
          "durationTicks": 495,
          "midi": 79,
          "name": "G5",
          "ticks": 268800,
          "time": 112.5161625,
          "velocity": 0.5984251968503937
        },
        {
          "duration": 0.1954800888671855,
          "durationTicks": 467,
          "midi": 78,
          "name": "F#5",
          "ticks": 269326,
          "time": 112.73633921679688,
          "velocity": 0.5905511811023622
        },
        {
          "duration": 0.21180497851563018,
          "durationTicks": 506,
          "midi": 76,
          "name": "E5",
          "ticks": 269824,
          "time": 112.9447955,
          "velocity": 0.5984251968503937
        },
        {
          "duration": 0.1921313935546891,
          "durationTicks": 459,
          "midi": 74,
          "name": "D5",
          "ticks": 270361,
          "time": 113.16957667285156,
          "velocity": 0.5905511811023622
        },
        {
          "duration": 0.20008454492187866,
          "durationTicks": 478,
          "midi": 76,
          "name": "E5",
          "ticks": 270851,
          "time": 113.37468426074219,
          "velocity": 0.5905511811023622
        },
        {
          "duration": 0.207200522460937,
          "durationTicks": 495,
          "midi": 79,
          "name": "G5",
          "ticks": 271360,
          "time": 113.587745,
          "velocity": 0.6299212598425197
        },
        {
          "duration": 0.1954800888671855,
          "durationTicks": 467,
          "midi": 76,
          "name": "E5",
          "ticks": 271886,
          "time": 113.80792171679687,
          "velocity": 0.5905511811023622
        },
        {
          "duration": 0.207200522460937,
          "durationTicks": 495,
          "midi": 81,
          "name": "A5",
          "ticks": 272384,
          "time": 114.016378,
          "velocity": 0.5984251968503937
        },
        {
          "duration": 0.1954800888671855,
          "durationTicks": 467,
          "midi": 76,
          "name": "E5",
          "ticks": 272910,
          "time": 114.23655471679687,
          "velocity": 0.5905511811023622
        },
        {
          "duration": 0.21180497851563018,
          "durationTicks": 506,
          "midi": 78,
          "name": "F#5",
          "ticks": 273408,
          "time": 114.445011,
          "velocity": 0.5984251968503937
        },
        {
          "duration": 0.1921313935546891,
          "durationTicks": 459,
          "midi": 79,
          "name": "G5",
          "ticks": 273945,
          "time": 114.66979217285156,
          "velocity": 0.5905511811023622
        },
        {
          "duration": 0.20008454492187866,
          "durationTicks": 478,
          "midi": 76,
          "name": "E5",
          "ticks": 274435,
          "time": 114.87489976074218,
          "velocity": 0.5905511811023622
        },
        {
          "duration": 0.21431649999999536,
          "durationTicks": 512,
          "midi": 83,
          "name": "B5",
          "ticks": 274944,
          "time": 115.0879605,
          "velocity": 0.6299212598425197
        },
        {
          "duration": 0.19757302343749927,
          "durationTicks": 472,
          "midi": 81,
          "name": "A5",
          "ticks": 275487,
          "time": 115.31525319433594,
          "velocity": 0.5905511811023622
        },
        {
          "duration": 0.20175889257812685,
          "durationTicks": 482,
          "midi": 79,
          "name": "G5",
          "ticks": 275990,
          "time": 115.52580241210937,
          "velocity": 0.5905511811023622
        },
        {
          "duration": 0.20050313183594426,
          "durationTicks": 479,
          "midi": 78,
          "name": "F#5",
          "ticks": 276503,
          "time": 115.74053749902343,
          "velocity": 0.5905511811023622
        },
        {
          "duration": 0.1929685673828061,
          "durationTicks": 461,
          "midi": 76,
          "name": "E5",
          "ticks": 277013,
          "time": 115.95401682519531,
          "velocity": 0.5905511811023622
        },
        {
          "duration": 0.20092171874999565,
          "durationTicks": 480,
          "midi": 74,
          "name": "D5",
          "ticks": 277505,
          "time": 116.15996158691406,
          "velocity": 0.5905511811023622
        },
        {
          "duration": 0.207200522460937,
          "durationTicks": 495,
          "midi": 79,
          "name": "G5",
          "ticks": 278016,
          "time": 116.3738595,
          "velocity": 0.6299212598425197
        },
        {
          "duration": 0.1954800888671997,
          "durationTicks": 467,
          "midi": 76,
          "name": "E5",
          "ticks": 278542,
          "time": 116.59403621679687,
          "velocity": 0.5905511811023622
        },
        {
          "duration": 0.207200522460937,
          "durationTicks": 495,
          "midi": 81,
          "name": "A5",
          "ticks": 279040,
          "time": 116.8024925,
          "velocity": 0.5984251968503937
        },
        {
          "duration": 0.1954800888671855,
          "durationTicks": 467,
          "midi": 76,
          "name": "E5",
          "ticks": 279566,
          "time": 117.02266921679687,
          "velocity": 0.5905511811023622
        },
        {
          "duration": 0.21180497851563018,
          "durationTicks": 506,
          "midi": 78,
          "name": "F#5",
          "ticks": 280064,
          "time": 117.23112549999999,
          "velocity": 0.5984251968503937
        },
        {
          "duration": 0.1921313935546891,
          "durationTicks": 459,
          "midi": 79,
          "name": "G5",
          "ticks": 280601,
          "time": 117.45590667285155,
          "velocity": 0.5905511811023622
        },
        {
          "duration": 0.20008454492187866,
          "durationTicks": 478,
          "midi": 76,
          "name": "E5",
          "ticks": 281091,
          "time": 117.66101426074218,
          "velocity": 0.5905511811023622
        },
        {
          "duration": 0.207200522460937,
          "durationTicks": 495,
          "midi": 83,
          "name": "B5",
          "ticks": 281600,
          "time": 117.87407499999999,
          "velocity": 0.6299212598425197
        },
        {
          "duration": 0.1954800888671855,
          "durationTicks": 467,
          "midi": 81,
          "name": "A5",
          "ticks": 282126,
          "time": 118.09425171679688,
          "velocity": 0.5905511811023622
        },
        {
          "duration": 0.207200522460937,
          "durationTicks": 495,
          "midi": 79,
          "name": "G5",
          "ticks": 282624,
          "time": 118.302708,
          "velocity": 0.5984251968503937
        },
        {
          "duration": 0.1954800888671855,
          "durationTicks": 467,
          "midi": 78,
          "name": "F#5",
          "ticks": 283150,
          "time": 118.52288471679687,
          "velocity": 0.5905511811023622
        },
        {
          "duration": 0.21180497851561597,
          "durationTicks": 506,
          "midi": 76,
          "name": "E5",
          "ticks": 283648,
          "time": 118.731341,
          "velocity": 0.5984251968503937
        },
        {
          "duration": 0.1921313935546749,
          "durationTicks": 459,
          "midi": 74,
          "name": "D5",
          "ticks": 284185,
          "time": 118.95612217285156,
          "velocity": 0.5905511811023622
        },
        {
          "duration": 0.20008454492186445,
          "durationTicks": 478,
          "midi": 76,
          "name": "E5",
          "ticks": 284675,
          "time": 119.16122976074219,
          "velocity": 0.5905511811023622
        },
        {
          "duration": 0.207200522460937,
          "durationTicks": 495,
          "midi": 79,
          "name": "G5",
          "ticks": 285184,
          "time": 119.3742905,
          "velocity": 0.6299212598425197
        },
        {
          "duration": 0.1954800888671855,
          "durationTicks": 467,
          "midi": 76,
          "name": "E5",
          "ticks": 285710,
          "time": 119.59446721679687,
          "velocity": 0.5905511811023622
        },
        {
          "duration": 0.207200522460937,
          "durationTicks": 495,
          "midi": 81,
          "name": "A5",
          "ticks": 286208,
          "time": 119.80292349999999,
          "velocity": 0.5984251968503937
        },
        {
          "duration": 0.1954800888671855,
          "durationTicks": 467,
          "midi": 76,
          "name": "E5",
          "ticks": 286734,
          "time": 120.02310021679688,
          "velocity": 0.5905511811023622
        },
        {
          "duration": 0.21180497851563018,
          "durationTicks": 506,
          "midi": 78,
          "name": "F#5",
          "ticks": 287232,
          "time": 120.2315565,
          "velocity": 0.5984251968503937
        },
        {
          "duration": 0.1921313935546891,
          "durationTicks": 459,
          "midi": 79,
          "name": "G5",
          "ticks": 287769,
          "time": 120.45633767285156,
          "velocity": 0.5905511811023622
        },
        {
          "duration": 0.20008454492187866,
          "durationTicks": 478,
          "midi": 76,
          "name": "E5",
          "ticks": 288259,
          "time": 120.66144526074218,
          "velocity": 0.5905511811023622
        },
        {
          "duration": 0.21431649999999536,
          "durationTicks": 512,
          "midi": 83,
          "name": "B5",
          "ticks": 288768,
          "time": 120.874506,
          "velocity": 0.6299212598425197
        },
        {
          "duration": 0.19757302343749927,
          "durationTicks": 472,
          "midi": 81,
          "name": "A5",
          "ticks": 289311,
          "time": 121.10179869433594,
          "velocity": 0.5905511811023622
        },
        {
          "duration": 0.20175889257812685,
          "durationTicks": 482,
          "midi": 79,
          "name": "G5",
          "ticks": 289814,
          "time": 121.31234791210937,
          "velocity": 0.5905511811023622
        },
        {
          "duration": 0.20050313183593005,
          "durationTicks": 479,
          "midi": 78,
          "name": "F#5",
          "ticks": 290327,
          "time": 121.52708299902343,
          "velocity": 0.5905511811023622
        },
        {
          "duration": 0.1929685673828061,
          "durationTicks": 461,
          "midi": 76,
          "name": "E5",
          "ticks": 290837,
          "time": 121.74056232519531,
          "velocity": 0.5905511811023622
        },
        {
          "duration": 0.20092171875000986,
          "durationTicks": 480,
          "midi": 74,
          "name": "D5",
          "ticks": 291329,
          "time": 121.94650708691405,
          "velocity": 0.5905511811023622
        },
        {
          "duration": 0.207200522460937,
          "durationTicks": 495,
          "midi": 79,
          "name": "G5",
          "ticks": 291840,
          "time": 122.160405,
          "velocity": 0.6299212598425197
        },
        {
          "duration": 0.1954800888671855,
          "durationTicks": 467,
          "midi": 76,
          "name": "E5",
          "ticks": 292366,
          "time": 122.38058171679687,
          "velocity": 0.5905511811023622
        },
        {
          "duration": 0.207200522460937,
          "durationTicks": 495,
          "midi": 81,
          "name": "A5",
          "ticks": 292864,
          "time": 122.589038,
          "velocity": 0.5984251968503937
        },
        {
          "duration": 0.1954800888671855,
          "durationTicks": 467,
          "midi": 76,
          "name": "E5",
          "ticks": 293390,
          "time": 122.80921471679687,
          "velocity": 0.5905511811023622
        },
        {
          "duration": 0.21180497851563018,
          "durationTicks": 506,
          "midi": 78,
          "name": "F#5",
          "ticks": 293888,
          "time": 123.01767099999999,
          "velocity": 0.5984251968503937
        },
        {
          "duration": 0.1921313935546891,
          "durationTicks": 459,
          "midi": 79,
          "name": "G5",
          "ticks": 294425,
          "time": 123.24245217285156,
          "velocity": 0.5905511811023622
        },
        {
          "duration": 0.20008454492187866,
          "durationTicks": 478,
          "midi": 76,
          "name": "E5",
          "ticks": 294915,
          "time": 123.44755976074218,
          "velocity": 0.5905511811023622
        },
        {
          "duration": 0.207200522460937,
          "durationTicks": 495,
          "midi": 83,
          "name": "B5",
          "ticks": 295424,
          "time": 123.6606205,
          "velocity": 0.6299212598425197
        },
        {
          "duration": 0.1954800888671997,
          "durationTicks": 467,
          "midi": 81,
          "name": "A5",
          "ticks": 295950,
          "time": 123.88079721679686,
          "velocity": 0.5905511811023622
        },
        {
          "duration": 0.207200522460937,
          "durationTicks": 495,
          "midi": 79,
          "name": "G5",
          "ticks": 296448,
          "time": 124.0892535,
          "velocity": 0.5984251968503937
        },
        {
          "duration": 0.1954800888671855,
          "durationTicks": 467,
          "midi": 78,
          "name": "F#5",
          "ticks": 296974,
          "time": 124.30943021679687,
          "velocity": 0.5905511811023622
        },
        {
          "duration": 0.21180497851561597,
          "durationTicks": 506,
          "midi": 76,
          "name": "E5",
          "ticks": 297472,
          "time": 124.5178865,
          "velocity": 0.5984251968503937
        },
        {
          "duration": 0.1921313935546891,
          "durationTicks": 459,
          "midi": 74,
          "name": "D5",
          "ticks": 298009,
          "time": 124.74266767285155,
          "velocity": 0.5905511811023622
        },
        {
          "duration": 0.20008454492186445,
          "durationTicks": 478,
          "midi": 76,
          "name": "E5",
          "ticks": 298499,
          "time": 124.94777526074219,
          "velocity": 0.5905511811023622
        },
        {
          "duration": 0.8639633906249884,
          "durationTicks": 2064,
          "midi": 79,
          "name": "G5",
          "ticks": 299012,
          "time": 125.16251034765625,
          "velocity": 0.8346456692913385
        },
        {
          "duration": 0.8480570878906235,
          "durationTicks": 2026,
          "midi": 78,
          "name": "F#5",
          "ticks": 301077,
          "time": 126.0268923251953,
          "velocity": 0.8188976377952756
        },
        {
          "duration": 0.8639633906250026,
          "durationTicks": 2064,
          "midi": 79,
          "name": "G5",
          "ticks": 303108,
          "time": 126.87704234765624,
          "velocity": 0.8346456692913385
        },
        {
          "duration": 0.8480570878906235,
          "durationTicks": 2026,
          "midi": 81,
          "name": "A5",
          "ticks": 305173,
          "time": 127.74142432519531,
          "velocity": 0.8188976377952756
        },
        {
          "duration": 0.8639633906250026,
          "durationTicks": 2064,
          "midi": 79,
          "name": "G5",
          "ticks": 307204,
          "time": 128.59157434765623,
          "velocity": 0.8346456692913385
        },
        {
          "duration": 0.8480570878906235,
          "durationTicks": 2026,
          "midi": 78,
          "name": "F#5",
          "ticks": 309269,
          "time": 129.4559563251953,
          "velocity": 0.8188976377952756
        },
        {
          "duration": 0.8639633906250026,
          "durationTicks": 2064,
          "midi": 83,
          "name": "B5",
          "ticks": 311300,
          "time": 130.30610634765625,
          "velocity": 0.8346456692913385
        },
        {
          "duration": 0.207200522460937,
          "durationTicks": 495,
          "midi": 77,
          "name": "F5",
          "ticks": 315392,
          "time": 132.01896399999998,
          "velocity": 0.8346456692913385
        },
        {
          "duration": 0.1954800888671855,
          "durationTicks": 467,
          "midi": 74,
          "name": "D5",
          "ticks": 315918,
          "time": 132.23914071679687,
          "velocity": 0.7952755905511811
        },
        {
          "duration": 0.207200522460937,
          "durationTicks": 495,
          "midi": 79,
          "name": "G5",
          "ticks": 316416,
          "time": 132.447597,
          "velocity": 0.8031496062992126
        },
        {
          "duration": 0.1954800888671855,
          "durationTicks": 467,
          "midi": 74,
          "name": "D5",
          "ticks": 316942,
          "time": 132.66777371679686,
          "velocity": 0.7952755905511811
        },
        {
          "duration": 0.21180497851563018,
          "durationTicks": 506,
          "midi": 76,
          "name": "E5",
          "ticks": 317440,
          "time": 132.87623,
          "velocity": 0.8031496062992126
        },
        {
          "duration": 0.1921313935546607,
          "durationTicks": 459,
          "midi": 77,
          "name": "F5",
          "ticks": 317977,
          "time": 133.10101117285157,
          "velocity": 0.7952755905511811
        },
        {
          "duration": 0.20008454492187866,
          "durationTicks": 478,
          "midi": 74,
          "name": "D5",
          "ticks": 318467,
          "time": 133.30611876074218,
          "velocity": 0.7952755905511811
        },
        {
          "duration": 0.207200522460937,
          "durationTicks": 495,
          "midi": 81,
          "name": "A5",
          "ticks": 318976,
          "time": 133.5191795,
          "velocity": 0.8346456692913385
        },
        {
          "duration": 0.1954800888671855,
          "durationTicks": 467,
          "midi": 79,
          "name": "G5",
          "ticks": 319502,
          "time": 133.73935621679686,
          "velocity": 0.7952755905511811
        },
        {
          "duration": 0.207200522460937,
          "durationTicks": 495,
          "midi": 77,
          "name": "F5",
          "ticks": 320000,
          "time": 133.9478125,
          "velocity": 0.8031496062992126
        },
        {
          "duration": 0.1954800888671855,
          "durationTicks": 467,
          "midi": 76,
          "name": "E5",
          "ticks": 320526,
          "time": 134.16798921679688,
          "velocity": 0.7952755905511811
        },
        {
          "duration": 0.21180497851563018,
          "durationTicks": 506,
          "midi": 74,
          "name": "D5",
          "ticks": 321024,
          "time": 134.3764455,
          "velocity": 0.8031496062992126
        },
        {
          "duration": 0.1921313935546891,
          "durationTicks": 459,
          "midi": 72,
          "name": "C5",
          "ticks": 321561,
          "time": 134.60122667285157,
          "velocity": 0.7952755905511811
        },
        {
          "duration": 0.20008454492187866,
          "durationTicks": 478,
          "midi": 74,
          "name": "D5",
          "ticks": 322051,
          "time": 134.80633426074218,
          "velocity": 0.7952755905511811
        },
        {
          "duration": 0.207200522460937,
          "durationTicks": 495,
          "midi": 77,
          "name": "F5",
          "ticks": 322560,
          "time": 135.019395,
          "velocity": 0.8346456692913385
        },
        {
          "duration": 0.1954800888671855,
          "durationTicks": 467,
          "midi": 74,
          "name": "D5",
          "ticks": 323086,
          "time": 135.23957171679686,
          "velocity": 0.7952755905511811
        },
        {
          "duration": 0.207200522460937,
          "durationTicks": 495,
          "midi": 79,
          "name": "G5",
          "ticks": 323584,
          "time": 135.448028,
          "velocity": 0.8031496062992126
        },
        {
          "duration": 0.1954800888671855,
          "durationTicks": 467,
          "midi": 74,
          "name": "D5",
          "ticks": 324110,
          "time": 135.66820471679688,
          "velocity": 0.7952755905511811
        },
        {
          "duration": 0.21180497851563018,
          "durationTicks": 506,
          "midi": 76,
          "name": "E5",
          "ticks": 324608,
          "time": 135.87666099999998,
          "velocity": 0.8031496062992126
        },
        {
          "duration": 0.1921313935546891,
          "durationTicks": 459,
          "midi": 77,
          "name": "F5",
          "ticks": 325145,
          "time": 136.10144217285156,
          "velocity": 0.7952755905511811
        },
        {
          "duration": 0.20008454492187866,
          "durationTicks": 478,
          "midi": 74,
          "name": "D5",
          "ticks": 325635,
          "time": 136.30654976074217,
          "velocity": 0.7952755905511811
        },
        {
          "duration": 0.207200522460937,
          "durationTicks": 495,
          "midi": 81,
          "name": "A5",
          "ticks": 326144,
          "time": 136.5196105,
          "velocity": 0.8346456692913385
        },
        {
          "duration": 0.1954800888671855,
          "durationTicks": 467,
          "midi": 79,
          "name": "G5",
          "ticks": 326670,
          "time": 136.73978721679688,
          "velocity": 0.7952755905511811
        },
        {
          "duration": 0.207200522460937,
          "durationTicks": 495,
          "midi": 77,
          "name": "F5",
          "ticks": 327168,
          "time": 136.9482435,
          "velocity": 0.8031496062992126
        },
        {
          "duration": 0.1954800888671855,
          "durationTicks": 467,
          "midi": 76,
          "name": "E5",
          "ticks": 327694,
          "time": 137.16842021679687,
          "velocity": 0.7952755905511811
        },
        {
          "duration": 0.21180497851560176,
          "durationTicks": 506,
          "midi": 74,
          "name": "D5",
          "ticks": 328192,
          "time": 137.3768765,
          "velocity": 0.8031496062992126
        },
        {
          "duration": 0.1921313935546891,
          "durationTicks": 459,
          "midi": 72,
          "name": "C5",
          "ticks": 328729,
          "time": 137.60165767285156,
          "velocity": 0.7952755905511811
        },
        {
          "duration": 0.20008454492185024,
          "durationTicks": 478,
          "midi": 74,
          "name": "D5",
          "ticks": 329219,
          "time": 137.8067652607422,
          "velocity": 0.7952755905511811
        },
        {
          "duration": 0.8639633906249742,
          "durationTicks": 2064,
          "midi": 79,
          "name": "G5",
          "ticks": 329732,
          "time": 138.02150034765626,
          "velocity": 0.8346456692913385
        },
        {
          "duration": 0.8480570878906235,
          "durationTicks": 2026,
          "midi": 78,
          "name": "F#5",
          "ticks": 331797,
          "time": 138.8858823251953,
          "velocity": 0.8188976377952756
        },
        {
          "duration": 0.8639633906250026,
          "durationTicks": 2064,
          "midi": 79,
          "name": "G5",
          "ticks": 333828,
          "time": 139.73603234765625,
          "velocity": 0.8346456692913385
        },
        {
          "duration": 0.8480570878906235,
          "durationTicks": 2026,
          "midi": 81,
          "name": "A5",
          "ticks": 335893,
          "time": 140.60041432519532,
          "velocity": 0.8188976377952756
        },
        {
          "duration": 0.8639633906250026,
          "durationTicks": 2064,
          "midi": 79,
          "name": "G5",
          "ticks": 337924,
          "time": 141.45056434765624,
          "velocity": 0.8346456692913385
        },
        {
          "duration": 0.8480570878906235,
          "durationTicks": 2026,
          "midi": 78,
          "name": "F#5",
          "ticks": 339989,
          "time": 142.3149463251953,
          "velocity": 0.8188976377952756
        },
        {
          "duration": 0.8639633906249742,
          "durationTicks": 2064,
          "midi": 83,
          "name": "B5",
          "ticks": 342020,
          "time": 143.16509634765626,
          "velocity": 0.8346456692913385
        },
        {
          "duration": 0.207200522460937,
          "durationTicks": 495,
          "midi": 77,
          "name": "F5",
          "ticks": 346112,
          "time": 144.877954,
          "velocity": 0.8346456692913385
        },
        {
          "duration": 0.1954800888671855,
          "durationTicks": 467,
          "midi": 74,
          "name": "D5",
          "ticks": 346638,
          "time": 145.09813071679687,
          "velocity": 0.7952755905511811
        },
        {
          "duration": 0.207200522460937,
          "durationTicks": 495,
          "midi": 79,
          "name": "G5",
          "ticks": 347136,
          "time": 145.306587,
          "velocity": 0.8031496062992126
        },
        {
          "duration": 0.1954800888671855,
          "durationTicks": 467,
          "midi": 74,
          "name": "D5",
          "ticks": 347662,
          "time": 145.52676371679686,
          "velocity": 0.7952755905511811
        },
        {
          "duration": 0.21180497851563018,
          "durationTicks": 506,
          "midi": 76,
          "name": "E5",
          "ticks": 348160,
          "time": 145.73522,
          "velocity": 0.8031496062992126
        },
        {
          "duration": 0.1921313935546891,
          "durationTicks": 459,
          "midi": 77,
          "name": "F5",
          "ticks": 348697,
          "time": 145.96000117285155,
          "velocity": 0.7952755905511811
        },
        {
          "duration": 0.20008454492187866,
          "durationTicks": 478,
          "midi": 74,
          "name": "D5",
          "ticks": 349187,
          "time": 146.16510876074219,
          "velocity": 0.7952755905511811
        },
        {
          "duration": 0.207200522460937,
          "durationTicks": 495,
          "midi": 81,
          "name": "A5",
          "ticks": 349696,
          "time": 146.37816949999998,
          "velocity": 0.8346456692913385
        },
        {
          "duration": 0.1954800888671855,
          "durationTicks": 467,
          "midi": 79,
          "name": "G5",
          "ticks": 350222,
          "time": 146.59834621679687,
          "velocity": 0.7952755905511811
        },
        {
          "duration": 0.207200522460937,
          "durationTicks": 495,
          "midi": 77,
          "name": "F5",
          "ticks": 350720,
          "time": 146.8068025,
          "velocity": 0.8031496062992126
        },
        {
          "duration": 0.1954800888671855,
          "durationTicks": 467,
          "midi": 76,
          "name": "E5",
          "ticks": 351246,
          "time": 147.02697921679686,
          "velocity": 0.7952755905511811
        },
        {
          "duration": 0.21180497851563018,
          "durationTicks": 506,
          "midi": 74,
          "name": "D5",
          "ticks": 351744,
          "time": 147.2354355,
          "velocity": 0.8031496062992126
        },
        {
          "duration": 0.1921313935546891,
          "durationTicks": 459,
          "midi": 72,
          "name": "C5",
          "ticks": 352281,
          "time": 147.46021667285154,
          "velocity": 0.7952755905511811
        },
        {
          "duration": 0.20008454492187866,
          "durationTicks": 478,
          "midi": 74,
          "name": "D5",
          "ticks": 352771,
          "time": 147.66532426074218,
          "velocity": 0.7952755905511811
        },
        {
          "duration": 0.207200522460937,
          "durationTicks": 495,
          "midi": 77,
          "name": "F5",
          "ticks": 353280,
          "time": 147.878385,
          "velocity": 0.8346456692913385
        },
        {
          "duration": 0.1954800888671855,
          "durationTicks": 467,
          "midi": 74,
          "name": "D5",
          "ticks": 353806,
          "time": 148.09856171679687,
          "velocity": 0.7952755905511811
        },
        {
          "duration": 0.207200522460937,
          "durationTicks": 495,
          "midi": 79,
          "name": "G5",
          "ticks": 354304,
          "time": 148.307018,
          "velocity": 0.8031496062992126
        },
        {
          "duration": 0.1954800888672139,
          "durationTicks": 467,
          "midi": 74,
          "name": "D5",
          "ticks": 354830,
          "time": 148.52719471679686,
          "velocity": 0.7952755905511811
        },
        {
          "duration": 0.21180497851563018,
          "durationTicks": 506,
          "midi": 76,
          "name": "E5",
          "ticks": 355328,
          "time": 148.735651,
          "velocity": 0.8031496062992126
        },
        {
          "duration": 0.1921313935546891,
          "durationTicks": 459,
          "midi": 77,
          "name": "F5",
          "ticks": 355865,
          "time": 148.96043217285157,
          "velocity": 0.7952755905511811
        },
        {
          "duration": 0.20008454492187866,
          "durationTicks": 478,
          "midi": 74,
          "name": "D5",
          "ticks": 356355,
          "time": 149.16553976074218,
          "velocity": 0.7952755905511811
        },
        {
          "duration": 0.207200522460937,
          "durationTicks": 495,
          "midi": 81,
          "name": "A5",
          "ticks": 356864,
          "time": 149.3786005,
          "velocity": 0.8346456692913385
        },
        {
          "duration": 0.1954800888671855,
          "durationTicks": 467,
          "midi": 79,
          "name": "G5",
          "ticks": 357390,
          "time": 149.59877721679686,
          "velocity": 0.7952755905511811
        },
        {
          "duration": 0.207200522460937,
          "durationTicks": 495,
          "midi": 77,
          "name": "F5",
          "ticks": 357888,
          "time": 149.8072335,
          "velocity": 0.8031496062992126
        },
        {
          "duration": 0.1954800888671855,
          "durationTicks": 467,
          "midi": 76,
          "name": "E5",
          "ticks": 358414,
          "time": 150.02741021679688,
          "velocity": 0.7952755905511811
        },
        {
          "duration": 0.21180497851563018,
          "durationTicks": 506,
          "midi": 74,
          "name": "D5",
          "ticks": 358912,
          "time": 150.2358665,
          "velocity": 0.8031496062992126
        },
        {
          "duration": 0.1921313935546891,
          "durationTicks": 459,
          "midi": 72,
          "name": "C5",
          "ticks": 359449,
          "time": 150.46064767285156,
          "velocity": 0.7952755905511811
        },
        {
          "duration": 0.21264215234376138,
          "durationTicks": 508,
          "midi": 74,
          "name": "D5",
          "ticks": 359939,
          "time": 150.66575526074217,
          "velocity": 0.7952755905511811
        },
        {
          "duration": 0.8639633906250026,
          "durationTicks": 2064,
          "midi": 74,
          "name": "D5",
          "ticks": 360452,
          "time": 150.88049034765623,
          "velocity": 0.8346456692913385
        },
        {
          "duration": 0.8480570878906235,
          "durationTicks": 2026,
          "midi": 72,
          "name": "C5",
          "ticks": 362517,
          "time": 151.7448723251953,
          "velocity": 0.8188976377952756
        },
        {
          "duration": 0.8639633906250026,
          "durationTicks": 2064,
          "midi": 71,
          "name": "B4",
          "ticks": 364548,
          "time": 152.59502234765625,
          "velocity": 0.8346456692913385
        },
        {
          "duration": 0.8480570878906519,
          "durationTicks": 2026,
          "midi": 72,
          "name": "C5",
          "ticks": 366613,
          "time": 153.4594043251953,
          "velocity": 0.8188976377952756
        },
        {
          "duration": 0.8639633906250026,
          "durationTicks": 2064,
          "midi": 74,
          "name": "D5",
          "ticks": 368644,
          "time": 154.30955434765625,
          "velocity": 0.8346456692913385
        },
        {
          "duration": 0.8480570878906235,
          "durationTicks": 2026,
          "midi": 72,
          "name": "C5",
          "ticks": 370709,
          "time": 155.1739363251953,
          "velocity": 0.8188976377952756
        },
        {
          "duration": 0.8639633906250026,
          "durationTicks": 2064,
          "midi": 76,
          "name": "E5",
          "ticks": 372740,
          "time": 156.02408634765624,
          "velocity": 0.8346456692913385
        },
        {
          "duration": 0.8480570878906235,
          "durationTicks": 2026,
          "midi": 71,
          "name": "B4",
          "ticks": 374805,
          "time": 156.8884683251953,
          "velocity": 0.8188976377952756
        },
        {
          "duration": 0.207200522460937,
          "durationTicks": 495,
          "midi": 79,
          "name": "G5",
          "ticks": 390656,
          "time": 163.52348949999998,
          "velocity": 0.6299212598425197
        },
        {
          "duration": 0.1954800888671855,
          "durationTicks": 467,
          "midi": 76,
          "name": "E5",
          "ticks": 391182,
          "time": 163.74366621679687,
          "velocity": 0.5905511811023622
        },
        {
          "duration": 0.207200522460937,
          "durationTicks": 495,
          "midi": 81,
          "name": "A5",
          "ticks": 391680,
          "time": 163.9521225,
          "velocity": 0.5984251968503937
        },
        {
          "duration": 0.1954800888671855,
          "durationTicks": 467,
          "midi": 76,
          "name": "E5",
          "ticks": 392206,
          "time": 164.17229921679686,
          "velocity": 0.5905511811023622
        },
        {
          "duration": 0.21180497851563018,
          "durationTicks": 506,
          "midi": 78,
          "name": "F#5",
          "ticks": 392704,
          "time": 164.3807555,
          "velocity": 0.5984251968503937
        },
        {
          "duration": 0.1921313935546607,
          "durationTicks": 459,
          "midi": 79,
          "name": "G5",
          "ticks": 393241,
          "time": 164.60553667285157,
          "velocity": 0.5905511811023622
        },
        {
          "duration": 0.20008454492187866,
          "durationTicks": 478,
          "midi": 76,
          "name": "E5",
          "ticks": 393731,
          "time": 164.81064426074218,
          "velocity": 0.5905511811023622
        },
        {
          "duration": 0.21431649999999536,
          "durationTicks": 512,
          "midi": 83,
          "name": "B5",
          "ticks": 394240,
          "time": 165.023705,
          "velocity": 0.6299212598425197
        },
        {
          "duration": 0.19757302343751348,
          "durationTicks": 472,
          "midi": 81,
          "name": "A5",
          "ticks": 394783,
          "time": 165.25099769433592,
          "velocity": 0.5905511811023622
        },
        {
          "duration": 0.20175889257811264,
          "durationTicks": 482,
          "midi": 79,
          "name": "G5",
          "ticks": 395286,
          "time": 165.46154691210938,
          "velocity": 0.5905511811023622
        },
        {
          "duration": 0.20050313183591584,
          "durationTicks": 479,
          "midi": 78,
          "name": "F#5",
          "ticks": 395799,
          "time": 165.67628199902344,
          "velocity": 0.5905511811023622
        },
        {
          "duration": 0.1929685673828203,
          "durationTicks": 461,
          "midi": 76,
          "name": "E5",
          "ticks": 396309,
          "time": 165.8897613251953,
          "velocity": 0.5905511811023622
        },
        {
          "duration": 0.20092171875000986,
          "durationTicks": 480,
          "midi": 74,
          "name": "D5",
          "ticks": 396801,
          "time": 166.09570608691405,
          "velocity": 0.5905511811023622
        },
        {
          "duration": 0.207200522460937,
          "durationTicks": 495,
          "midi": 79,
          "name": "G5",
          "ticks": 397312,
          "time": 166.309604,
          "velocity": 0.6299212598425197
        },
        {
          "duration": 0.1954800888671855,
          "durationTicks": 467,
          "midi": 76,
          "name": "E5",
          "ticks": 397838,
          "time": 166.52978071679686,
          "velocity": 0.5905511811023622
        },
        {
          "duration": 0.207200522460937,
          "durationTicks": 495,
          "midi": 81,
          "name": "A5",
          "ticks": 398336,
          "time": 166.738237,
          "velocity": 0.5984251968503937
        },
        {
          "duration": 0.1954800888671855,
          "durationTicks": 467,
          "midi": 76,
          "name": "E5",
          "ticks": 398862,
          "time": 166.95841371679688,
          "velocity": 0.5905511811023622
        },
        {
          "duration": 0.21180497851563018,
          "durationTicks": 506,
          "midi": 78,
          "name": "F#5",
          "ticks": 399360,
          "time": 167.16687,
          "velocity": 0.5984251968503937
        },
        {
          "duration": 0.1921313935546891,
          "durationTicks": 459,
          "midi": 79,
          "name": "G5",
          "ticks": 399897,
          "time": 167.39165117285157,
          "velocity": 0.5905511811023622
        },
        {
          "duration": 0.20008454492187866,
          "durationTicks": 478,
          "midi": 76,
          "name": "E5",
          "ticks": 400387,
          "time": 167.59675876074218,
          "velocity": 0.5905511811023622
        },
        {
          "duration": 0.207200522460937,
          "durationTicks": 495,
          "midi": 83,
          "name": "B5",
          "ticks": 400896,
          "time": 167.8098195,
          "velocity": 0.6299212598425197
        },
        {
          "duration": 0.1954800888671855,
          "durationTicks": 467,
          "midi": 81,
          "name": "A5",
          "ticks": 401422,
          "time": 168.02999621679686,
          "velocity": 0.5905511811023622
        },
        {
          "duration": 0.207200522460937,
          "durationTicks": 495,
          "midi": 79,
          "name": "G5",
          "ticks": 401920,
          "time": 168.2384525,
          "velocity": 0.5984251968503937
        },
        {
          "duration": 0.1954800888671855,
          "durationTicks": 467,
          "midi": 78,
          "name": "F#5",
          "ticks": 402446,
          "time": 168.45862921679688,
          "velocity": 0.5905511811023622
        },
        {
          "duration": 0.21180497851563018,
          "durationTicks": 506,
          "midi": 76,
          "name": "E5",
          "ticks": 402944,
          "time": 168.66708549999998,
          "velocity": 0.5984251968503937
        },
        {
          "duration": 0.1921313935546891,
          "durationTicks": 459,
          "midi": 74,
          "name": "D5",
          "ticks": 403481,
          "time": 168.89186667285156,
          "velocity": 0.5905511811023622
        },
        {
          "duration": 0.20008454492187866,
          "durationTicks": 478,
          "midi": 76,
          "name": "E5",
          "ticks": 403971,
          "time": 169.09697426074217,
          "velocity": 0.5905511811023622
        }
      ],
      "endOfTrackTicks": 408063
    }
  ]
}
