{
  "header": {
    "keySignatures": [
      {
        "key": "C",
        "scale": "major",
        "ticks": 0
      }
    ],
    "meta": [],
    "name": "",
    "ppq": 1024,
    "tempos": [
      {
        "bpm": 120.00024000048,
        "ticks": 0
      },
      {
        "bpm": 139.93973262181754,
        "ticks": 0
      },
      {
        "bpm": 199.91403696410543,
        "ticks": 8192
      },
      {
        "bpm": 119.94842217846326,
        "ticks": 73728
      },
      {
        "bpm": 139.93973262181754,
        "ticks": 266240
      },
      {
        "bpm": 139.93973262181754,
        "ticks": 299008
      },
      {
        "bpm": 79.96556149818144,
        "ticks": 503808
      },
      {
        "bpm": 139.93973262181754,
        "ticks": 507904
      },
      {
        "bpm": 119.94842217846326,
        "ticks": 671744
      },
      {
        "bpm": 139.93973262181754,
        "ticks": 770048
      },
      {
        "bpm": 161.93020808031739,
        "ticks": 958464
      },
      {
        "bpm": 99.95701848205272,
        "ticks": 1179648
      },
      {
        "bpm": 149.93552772307908,
        "ticks": 1396736
      },
      {
        "bpm": 109.95273864783788,
        "ticks": 1421312
      }
    ],
    "timeSignatures": [
      {
        "ticks": 0,
        "timeSignature": [
          4,
          4
        ],
        "measures": 0
      }
    ]
  },
  "tracks": [
    {
      "channel": 0,
      "controlChanges": {
        "7": [
          {
            "number": 7,
            "ticks": 0,
            "time": 0,
            "value": 0.7952755905511811
          },
          {
            "number": 7,
            "ticks": 0,
            "time": 0,
            "value": 1
          }
        ],
        "10": [
          {
            "number": 10,
            "ticks": 0,
            "time": 0,
            "value": 0.5039370078740157
          },
          {
            "number": 10,
            "ticks": 0,
            "time": 0,
            "value": 0.5039370078740157
          }
        ]
      },
      "pitchBends": [],
      "instrument": {
        "family": "piano",
        "number": 0,
        "name": "acoustic grand piano"
      },
      "name": "Acoustic Grand Piano",
      "notes": [
        {
          "duration": 0.20977222265624998,
          "durationTicks": 501,
          "midi": 76,
          "name": "E5",
          "ticks": 0,
          "time": 0,
          "velocity": 0.8661417322834646
        },
        {
          "duration": 0.20977222265624998,
          "durationTicks": 501,
          "midi": 76,
          "name": "E5",
          "ticks": 512,
          "time": 0.21437799999999999,
          "velocity": 0.8661417322834646
        },
        {
          "duration": 0.20977222265624995,
          "durationTicks": 501,
          "midi": 76,
          "name": "E5",
          "ticks": 1536,
          "time": 0.643134,
          "velocity": 0.8661417322834646
        },
        {
          "duration": 0.20977222265624995,
          "durationTicks": 501,
          "midi": 72,
          "name": "C5",
          "ticks": 2560,
          "time": 1.07189,
          "velocity": 0.8661417322834646
        },
        {
          "duration": 0.3571570976562499,
          "durationTicks": 853,
          "midi": 76,
          "name": "E5",
          "ticks": 3072,
          "time": 1.286268,
          "velocity": 0.8661417322834646
        },
        {
          "duration": 0.3571570976562499,
          "durationTicks": 853,
          "midi": 79,
          "name": "G5",
          "ticks": 4096,
          "time": 1.7150239999999999,
          "velocity": 0.8661417322834646
        },
        {
          "duration": 0.3571570976562497,
          "durationTicks": 853,
          "midi": 67,
          "name": "G4",
          "ticks": 6144,
          "time": 2.572536,
          "velocity": 0.8661417322834646
        },
        {
          "duration": 0.14684045800781265,
          "durationTicks": 501,
          "midi": 67,
          "name": "G4",
          "ticks": 8192,
          "time": 3.4300479999999998,
          "velocity": 0.8661417322834646
        },
        {
          "duration": 0.14684045800781265,
          "durationTicks": 501,
          "midi": 74,
          "name": "D5",
          "ticks": 8704,
          "time": 3.5801125,
          "velocity": 0.8661417322834646
        },
        {
          "duration": 0.1468404580078122,
          "durationTicks": 501,
          "midi": 74,
          "name": "D5",
          "ticks": 9216,
          "time": 3.730177,
          "velocity": 0.8661417322834646
        },
        {
          "duration": 0.14684045800781265,
          "durationTicks": 501,
          "midi": 69,
          "name": "A4",
          "ticks": 9728,
          "time": 3.8802415,
          "velocity": 0.8661417322834646
        },
        {
          "duration": 0.1468404580078131,
          "durationTicks": 501,
          "midi": 74,
          "name": "D5",
          "ticks": 10752,
          "time": 4.1803704999999995,
          "velocity": 0.8661417322834646
        },
        {
          "duration": 0.5501388017578126,
          "durationTicks": 1877,
          "midi": 71,
          "name": "B4",
          "ticks": 11264,
          "time": 4.330435,
          "velocity": 0.8661417322834646
        },
        {
          "duration": 0.1468404580078122,
          "durationTicks": 501,
          "midi": 74,
          "name": "D5",
          "ticks": 13824,
          "time": 5.0807575,
          "velocity": 0.8661417322834646
        },
        {
          "duration": 0.1468404580078122,
          "durationTicks": 501,
          "midi": 71,
          "name": "B4",
          "ticks": 14336,
          "time": 5.230822,
          "velocity": 0.8661417322834646
        },
        {
          "duration": 0.1468404580078122,
          "durationTicks": 501,
          "midi": 72,
          "name": "C5",
          "ticks": 14848,
          "time": 5.3808865,
          "velocity": 0.8661417322834646
        },
        {
          "duration": 0.2500098017578125,
          "durationTicks": 853,
          "midi": 74,
          "name": "D5",
          "ticks": 15360,
          "time": 5.530951,
          "velocity": 0.8661417322834646
        },
        {
          "duration": 0.1468404580078122,
          "durationTicks": 501,
          "midi": 67,
          "name": "G4",
          "ticks": 16384,
          "time": 5.83108,
          "velocity": 0.8661417322834646
        },
        {
          "duration": 0.1468404580078131,
          "durationTicks": 501,
          "midi": 74,
          "name": "D5",
          "ticks": 16896,
          "time": 5.981144499999999,
          "velocity": 0.8661417322834646
        },
        {
          "duration": 0.1468404580078122,
          "durationTicks": 501,
          "midi": 74,
          "name": "D5",
          "ticks": 17408,
          "time": 6.131209,
          "velocity": 0.8661417322834646
        },
        {
          "duration": 0.1468404580078122,
          "durationTicks": 501,
          "midi": 69,
          "name": "A4",
          "ticks": 17920,
          "time": 6.281273499999999,
          "velocity": 0.8661417322834646
        },
        {
          "duration": 0.1468404580078122,
          "durationTicks": 501,
          "midi": 74,
          "name": "D5",
          "ticks": 18944,
          "time": 6.581402499999999,
          "velocity": 0.8661417322834646
        },
        {
          "duration": 0.5501388017578126,
          "durationTicks": 1877,
          "midi": 71,
          "name": "B4",
          "ticks": 19456,
          "time": 6.731466999999999,
          "velocity": 0.8661417322834646
        },
        {
          "duration": 0.1468404580078122,
          "durationTicks": 501,
          "midi": 67,
          "name": "G4",
          "ticks": 24576,
          "time": 8.232111999999999,
          "velocity": 0.8661417322834646
        },
        {
          "duration": 0.1468404580078122,
          "durationTicks": 501,
          "midi": 74,
          "name": "D5",
          "ticks": 25088,
          "time": 8.3821765,
          "velocity": 0.8661417322834646
        },
        {
          "duration": 0.1468404580078122,
          "durationTicks": 501,
          "midi": 74,
          "name": "D5",
          "ticks": 25600,
          "time": 8.532240999999999,
          "velocity": 0.8661417322834646
        },
        {
          "duration": 0.1468404580078122,
          "durationTicks": 501,
          "midi": 69,
          "name": "A4",
          "ticks": 26112,
          "time": 8.6823055,
          "velocity": 0.8661417322834646
        },
        {
          "duration": 0.1468404580078122,
          "durationTicks": 501,
          "midi": 74,
          "name": "D5",
          "ticks": 27136,
          "time": 8.9824345,
          "velocity": 0.8661417322834646
        },
        {
          "duration": 0.5501388017578126,
          "durationTicks": 1877,
          "midi": 71,
          "name": "B4",
          "ticks": 27648,
          "time": 9.132499,
          "velocity": 0.8661417322834646
        },
        {
          "duration": 0.14684045800781398,
          "durationTicks": 501,
          "midi": 74,
          "name": "D5",
          "ticks": 30208,
          "time": 9.882821499999999,
          "velocity": 0.8661417322834646
        },
        {
          "duration": 0.1468404580078122,
          "durationTicks": 501,
          "midi": 71,
          "name": "B4",
          "ticks": 30720,
          "time": 10.032886,
          "velocity": 0.8661417322834646
        },
        {
          "duration": 0.14684045800781398,
          "durationTicks": 501,
          "midi": 72,
          "name": "C5",
          "ticks": 31232,
          "time": 10.182950499999999,
          "velocity": 0.8661417322834646
        },
        {
          "duration": 0.2500098017578125,
          "durationTicks": 853,
          "midi": 74,
          "name": "D5",
          "ticks": 31744,
          "time": 10.333015,
          "velocity": 0.8661417322834646
        },
        {
          "duration": 0.1468404580078122,
          "durationTicks": 501,
          "midi": 67,
          "name": "G4",
          "ticks": 32768,
          "time": 10.633144,
          "velocity": 0.8661417322834646
        },
        {
          "duration": 0.1468404580078122,
          "durationTicks": 501,
          "midi": 74,
          "name": "D5",
          "ticks": 33280,
          "time": 10.783208499999999,
          "velocity": 0.8661417322834646
        },
        {
          "duration": 0.1468404580078122,
          "durationTicks": 501,
          "midi": 74,
          "name": "D5",
          "ticks": 33792,
          "time": 10.933273,
          "velocity": 0.8661417322834646
        },
        {
          "duration": 0.1468404580078122,
          "durationTicks": 501,
          "midi": 69,
          "name": "A4",
          "ticks": 34304,
          "time": 11.083337499999999,
          "velocity": 0.8661417322834646
        },
        {
          "duration": 0.1468404580078122,
          "durationTicks": 501,
          "midi": 74,
          "name": "D5",
          "ticks": 35328,
          "time": 11.383466499999999,
          "velocity": 0.8661417322834646
        },
        {
          "duration": 0.5501388017578126,
          "durationTicks": 1877,
          "midi": 71,
          "name": "B4",
          "ticks": 35840,
          "time": 11.533530999999998,
          "velocity": 0.8661417322834646
        },
        {
          "duration": 0.1468404580078122,
          "durationTicks": 501,
          "midi": 74,
          "name": "D5",
          "ticks": 40960,
          "time": 13.034175999999999,
          "velocity": 0.8661417322834646
        },
        {
          "duration": 0.14684045800781398,
          "durationTicks": 501,
          "midi": 72,
          "name": "C5",
          "ticks": 41472,
          "time": 13.184240499999998,
          "velocity": 0.8661417322834646
        },
        {
          "duration": 0.1468404580078122,
          "durationTicks": 501,
          "midi": 74,
          "name": "D5",
          "ticks": 41984,
          "time": 13.334304999999999,
          "velocity": 0.8661417322834646
        },
        {
          "duration": 0.14684045800781398,
          "durationTicks": 501,
          "midi": 71,
          "name": "B4",
          "ticks": 42496,
          "time": 13.484369499999998,
          "velocity": 0.8661417322834646
        },
        {
          "duration": 0.14684045800781398,
          "durationTicks": 501,
          "midi": 74,
          "name": "D5",
          "ticks": 43520,
          "time": 13.784498499999998,
          "velocity": 0.8661417322834646
        },
        {
          "duration": 0.8253547499999989,
          "durationTicks": 2816,
          "midi": 79,
          "name": "G5",
          "ticks": 44032,
          "time": 13.934562999999999,
          "velocity": 0.8661417322834646
        },
        {
          "duration": 0.1468404580078122,
          "durationTicks": 501,
          "midi": 74,
          "name": "D5",
          "ticks": 49152,
          "time": 15.435208,
          "velocity": 0.8661417322834646
        },
        {
          "duration": 0.1468404580078122,
          "durationTicks": 501,
          "midi": 72,
          "name": "C5",
          "ticks": 49664,
          "time": 15.585272499999999,
          "velocity": 0.8661417322834646
        },
        {
          "duration": 0.14684045800781398,
          "durationTicks": 501,
          "midi": 74,
          "name": "D5",
          "ticks": 50176,
          "time": 15.735336999999998,
          "velocity": 0.8661417322834646
        },
        {
          "duration": 0.14684045800781398,
          "durationTicks": 501,
          "midi": 71,
          "name": "B4",
          "ticks": 50688,
          "time": 15.885401499999999,
          "velocity": 0.8661417322834646
        },
        {
          "duration": 0.1468404580078122,
          "durationTicks": 501,
          "midi": 74,
          "name": "D5",
          "ticks": 51712,
          "time": 16.1855305,
          "velocity": 0.8661417322834646
        },
        {
          "duration": 0.8253547500000025,
          "durationTicks": 2816,
          "midi": 72,
          "name": "C5",
          "ticks": 52224,
          "time": 16.335594999999998,
          "velocity": 0.8661417322834646
        },
        {
          "duration": 0.1468404580078122,
          "durationTicks": 501,
          "midi": 74,
          "name": "D5",
          "ticks": 57344,
          "time": 17.83624,
          "velocity": 0.8661417322834646
        },
        {
          "duration": 0.1468404580078122,
          "durationTicks": 501,
          "midi": 72,
          "name": "C5",
          "ticks": 57856,
          "time": 17.9863045,
          "velocity": 0.8661417322834646
        },
        {
          "duration": 0.1468404580078122,
          "durationTicks": 501,
          "midi": 74,
          "name": "D5",
          "ticks": 58368,
          "time": 18.136369,
          "velocity": 0.8661417322834646
        },
        {
          "duration": 0.14684045800781576,
          "durationTicks": 501,
          "midi": 71,
          "name": "B4",
          "ticks": 58880,
          "time": 18.286433499999998,
          "velocity": 0.8661417322834646
        },
        {
          "duration": 0.1468404580078122,
          "durationTicks": 501,
          "midi": 74,
          "name": "D5",
          "ticks": 59904,
          "time": 18.5865625,
          "velocity": 0.8661417322834646
        },
        {
          "duration": 0.8253547499999989,
          "durationTicks": 2816,
          "midi": 79,
          "name": "G5",
          "ticks": 60416,
          "time": 18.736627,
          "velocity": 0.8661417322834646
        },
        {
          "duration": 0.1468404580078122,
          "durationTicks": 501,
          "midi": 81,
          "name": "A5",
          "ticks": 65536,
          "time": 20.237271999999997,
          "velocity": 0.8661417322834646
        },
        {
          "duration": 0.14684045800781576,
          "durationTicks": 501,
          "midi": 79,
          "name": "G5",
          "ticks": 66048,
          "time": 20.387336499999996,
          "velocity": 0.8661417322834646
        },
        {
          "duration": 0.1468404580078122,
          "durationTicks": 501,
          "midi": 81,
          "name": "A5",
          "ticks": 66560,
          "time": 20.537401,
          "velocity": 0.8661417322834646
        },
        {
          "duration": 0.1468404580078122,
          "durationTicks": 501,
          "midi": 79,
          "name": "G5",
          "ticks": 67072,
          "time": 20.6874655,
          "velocity": 0.8661417322834646
        },
        {
          "duration": 0.14684045800781576,
          "durationTicks": 501,
          "midi": 83,
          "name": "B5",
          "ticks": 68096,
          "time": 20.987594499999997,
          "velocity": 0.8661417322834646
        },
        {
          "duration": 0.8253547499999989,
          "durationTicks": 2816,
          "midi": 79,
          "name": "G5",
          "ticks": 68608,
          "time": 21.137659,
          "velocity": 0.8661417322834646
        },
        {
          "duration": 0.24473409667968937,
          "durationTicks": 501,
          "midi": 64,
          "name": "E4",
          "ticks": 77824,
          "time": 24.639163999999997,
          "velocity": 0.8661417322834646
        },
        {
          "duration": 0.24473409667968582,
          "durationTicks": 501,
          "midi": 64,
          "name": "E4",
          "ticks": 78336,
          "time": 24.8892715,
          "velocity": 0.8661417322834646
        },
        {
          "duration": 0.24473409667968937,
          "durationTicks": 501,
          "midi": 64,
          "name": "E4",
          "ticks": 80384,
          "time": 25.889701499999997,
          "velocity": 0.8661417322834646
        },
        {
          "duration": 0.24473409667968582,
          "durationTicks": 501,
          "midi": 64,
          "name": "E4",
          "ticks": 80896,
          "time": 26.139809,
          "velocity": 0.8661417322834646
        },
        {
          "duration": 0.11968034667968652,
          "durationTicks": 245,
          "midi": 64,
          "name": "E4",
          "ticks": 81408,
          "time": 26.389916499999998,
          "velocity": 0.8661417322834646
        },
        {
          "duration": 0.11968034667968652,
          "durationTicks": 245,
          "midi": 64,
          "name": "E4",
          "ticks": 81664,
          "time": 26.514970249999998,
          "velocity": 0.8661417322834646
        },
        {
          "duration": 0.24473409667968937,
          "durationTicks": 501,
          "midi": 65,
          "name": "F4",
          "ticks": 81920,
          "time": 26.640023999999997,
          "velocity": 0.8661417322834646
        },
        {
          "duration": 0.24473409667968582,
          "durationTicks": 501,
          "midi": 65,
          "name": "F4",
          "ticks": 82432,
          "time": 26.8901315,
          "velocity": 0.8661417322834646
        },
        {
          "duration": 0.24473409667968937,
          "durationTicks": 501,
          "midi": 65,
          "name": "F4",
          "ticks": 84480,
          "time": 27.890561499999997,
          "velocity": 0.8661417322834646
        },
        {
          "duration": 0.24473409667968937,
          "durationTicks": 501,
          "midi": 65,
          "name": "F4",
          "ticks": 84992,
          "time": 28.140668999999995,
          "velocity": 0.8661417322834646
        },
        {
          "duration": 0.11968034667968652,
          "durationTicks": 245,
          "midi": 65,
          "name": "F4",
          "ticks": 85504,
          "time": 28.390776499999998,
          "velocity": 0.8661417322834646
        },
        {
          "duration": 0.11968034667969008,
          "durationTicks": 245,
          "midi": 65,
          "name": "F4",
          "ticks": 85760,
          "time": 28.515830249999997,
          "velocity": 0.8661417322834646
        },
        {
          "duration": 0.24473409667968582,
          "durationTicks": 501,
          "midi": 67,
          "name": "G4",
          "ticks": 86016,
          "time": 28.640884,
          "velocity": 0.8661417322834646
        },
        {
          "duration": 0.24473409667968582,
          "durationTicks": 501,
          "midi": 67,
          "name": "G4",
          "ticks": 86528,
          "time": 28.8909915,
          "velocity": 0.8661417322834646
        },
        {
          "duration": 0.24473409667968937,
          "durationTicks": 501,
          "midi": 67,
          "name": "G4",
          "ticks": 88576,
          "time": 29.891421499999996,
          "velocity": 0.8661417322834646
        },
        {
          "duration": 0.24473409667968582,
          "durationTicks": 501,
          "midi": 67,
          "name": "G4",
          "ticks": 89088,
          "time": 30.141529,
          "velocity": 0.8661417322834646
        },
        {
          "duration": 0.11968034667968652,
          "durationTicks": 245,
          "midi": 67,
          "name": "G4",
          "ticks": 89600,
          "time": 30.391636499999997,
          "velocity": 0.8661417322834646
        },
        {
          "duration": 0.11968034667968652,
          "durationTicks": 245,
          "midi": 67,
          "name": "G4",
          "ticks": 89856,
          "time": 30.516690249999996,
          "velocity": 0.8661417322834646
        },
        {
          "duration": 0.24473409667968937,
          "durationTicks": 501,
          "midi": 65,
          "name": "F4",
          "ticks": 90112,
          "time": 30.641743999999996,
          "velocity": 0.8661417322834646
        },
        {
          "duration": 0.24473409667968937,
          "durationTicks": 501,
          "midi": 65,
          "name": "F4",
          "ticks": 90624,
          "time": 30.891851499999998,
          "velocity": 0.8661417322834646
        },
        {
          "duration": 0.24473409667969293,
          "durationTicks": 501,
          "midi": 65,
          "name": "F4",
          "ticks": 92672,
          "time": 31.892281499999996,
          "velocity": 0.8661417322834646
        },
        {
          "duration": 0.24473409667969293,
          "durationTicks": 501,
          "midi": 65,
          "name": "F4",
          "ticks": 93184,
          "time": 32.142388999999994,
          "velocity": 0.8661417322834646
        },
        {
          "duration": 0.11968034667969363,
          "durationTicks": 245,
          "midi": 65,
          "name": "F4",
          "ticks": 93696,
          "time": 32.39249649999999,
          "velocity": 0.8661417322834646
        },
        {
          "duration": 0.11968034667968652,
          "durationTicks": 245,
          "midi": 65,
          "name": "F4",
          "ticks": 93952,
          "time": 32.51755025,
          "velocity": 0.8661417322834646
        },
        {
          "duration": 0.6667905029296861,
          "durationTicks": 1365,
          "midi": 64,
          "name": "E4",
          "ticks": 94208,
          "time": 32.642604,
          "velocity": 0.8661417322834646
        },
        {
          "duration": 0.4948415966796844,
          "durationTicks": 1013,
          "midi": 64,
          "name": "E4",
          "ticks": 95744,
          "time": 33.3929265,
          "velocity": 0.8661417322834646
        },
        {
          "duration": 0.24473409667968582,
          "durationTicks": 501,
          "midi": 67,
          "name": "G4",
          "ticks": 96768,
          "time": 33.8931415,
          "velocity": 0.8661417322834646
        },
        {
          "duration": 0.24473409667968582,
          "durationTicks": 501,
          "midi": 69,
          "name": "A4",
          "ticks": 97280,
          "time": 34.143249,
          "velocity": 0.8661417322834646
        },
        {
          "duration": 0.24473409667969293,
          "durationTicks": 501,
          "midi": 67,
          "name": "G4",
          "ticks": 97792,
          "time": 34.393356499999996,
          "velocity": 0.8661417322834646
        },
        {
          "duration": 1.8758062500000037,
          "durationTicks": 3840,
          "midi": 60,
          "name": "C4",
          "ticks": 98304,
          "time": 34.643463999999994,
          "velocity": 0.8661417322834646
        },
        {
          "duration": 0.6667905029296861,
          "durationTicks": 1365,
          "midi": 65,
          "name": "F4",
          "ticks": 102400,
          "time": 36.644324,
          "velocity": 0.8661417322834646
        },
        {
          "duration": 0.4948415966796915,
          "durationTicks": 1013,
          "midi": 65,
          "name": "F4",
          "ticks": 103936,
          "time": 37.39464649999999,
          "velocity": 0.8661417322834646
        },
        {
          "duration": 0.24473409667968582,
          "durationTicks": 501,
          "midi": 69,
          "name": "A4",
          "ticks": 104960,
          "time": 37.8948615,
          "velocity": 0.8661417322834646
        },
        {
          "duration": 0.24473409667968582,
          "durationTicks": 501,
          "midi": 71,
          "name": "B4",
          "ticks": 105472,
          "time": 38.144968999999996,
          "velocity": 0.8661417322834646
        },
        {
          "duration": 0.24473409667968582,
          "durationTicks": 501,
          "midi": 69,
          "name": "A4",
          "ticks": 105984,
          "time": 38.395076499999995,
          "velocity": 0.8661417322834646
        },
        {
          "duration": 1.8758062499999966,
          "durationTicks": 3840,
          "midi": 63,
          "name": "D#4",
          "ticks": 106496,
          "time": 38.645184,
          "velocity": 0.8661417322834646
        },
        {
          "duration": 0.6667905029296932,
          "durationTicks": 1365,
          "midi": 67,
          "name": "G4",
          "ticks": 110592,
          "time": 40.646043999999996,
          "velocity": 0.8661417322834646
        },
        {
          "duration": 0.4948415966796844,
          "durationTicks": 1013,
          "midi": 67,
          "name": "G4",
          "ticks": 112128,
          "time": 41.3963665,
          "velocity": 0.8661417322834646
        },
        {
          "duration": 0.24473409667969293,
          "durationTicks": 501,
          "midi": 72,
          "name": "C5",
          "ticks": 113152,
          "time": 41.896581499999996,
          "velocity": 0.8661417322834646
        },
        {
          "duration": 0.24473409667969293,
          "durationTicks": 501,
          "midi": 74,
          "name": "D5",
          "ticks": 113664,
          "time": 42.146688999999995,
          "velocity": 0.8661417322834646
        },
        {
          "duration": 0.24473409667969293,
          "durationTicks": 501,
          "midi": 72,
          "name": "C5",
          "ticks": 114176,
          "time": 42.396796499999994,
          "velocity": 0.8661417322834646
        },
        {
          "duration": 0.6667905029296932,
          "durationTicks": 1365,
          "midi": 79,
          "name": "G5",
          "ticks": 114688,
          "time": 42.64690399999999,
          "velocity": 0.8661417322834646
        },
        {
          "duration": 0.4948415966796844,
          "durationTicks": 1013,
          "midi": 77,
          "name": "F5",
          "ticks": 116224,
          "time": 43.397226499999995,
          "velocity": 0.8661417322834646
        },
        {
          "duration": 0.24473409667968582,
          "durationTicks": 501,
          "midi": 72,
          "name": "C5",
          "ticks": 117248,
          "time": 43.8974415,
          "velocity": 0.8661417322834646
        },
        {
          "duration": 0.24473409667968582,
          "durationTicks": 501,
          "midi": 67,
          "name": "G4",
          "ticks": 117760,
          "time": 44.147549,
          "velocity": 0.8661417322834646
        },
        {
          "duration": 0.24473409667968582,
          "durationTicks": 501,
          "midi": 65,
          "name": "F4",
          "ticks": 118272,
          "time": 44.3976565,
          "velocity": 0.8661417322834646
        },
        {
          "duration": 0.6667905029296861,
          "durationTicks": 1365,
          "midi": 76,
          "name": "E5",
          "ticks": 118784,
          "time": 44.647763999999995,
          "velocity": 0.8661417322834646
        },
        {
          "duration": 0.4948415966796844,
          "durationTicks": 1013,
          "midi": 72,
          "name": "C5",
          "ticks": 120320,
          "time": 45.3980865,
          "velocity": 0.8661417322834646
        },
        {
          "duration": 0.24473409667968582,
          "durationTicks": 501,
          "midi": 69,
          "name": "A4",
          "ticks": 121344,
          "time": 45.898301499999995,
          "velocity": 0.8661417322834646
        },
        {
          "duration": 0.24473409667967871,
          "durationTicks": 501,
          "midi": 65,
          "name": "F4",
          "ticks": 121856,
          "time": 46.148409,
          "velocity": 0.8661417322834646
        },
        {
          "duration": 0.24473409667968582,
          "durationTicks": 501,
          "midi": 64,
          "name": "E4",
          "ticks": 122368,
          "time": 46.3985165,
          "velocity": 0.8661417322834646
        },
        {
          "duration": 1.3755912499999994,
          "durationTicks": 2816,
          "midi": 63,
          "name": "D#4",
          "ticks": 122880,
          "time": 46.648624,
          "velocity": 0.8661417322834646
        },
        {
          "duration": 2.376021250000001,
          "durationTicks": 4864,
          "midi": 61,
          "name": "C#4",
          "ticks": 125952,
          "time": 48.149269,
          "velocity": 0.8661417322834646
        },
        {
          "duration": 0.18220722167968972,
          "durationTicks": 373,
          "midi": 62,
          "name": "D4",
          "ticks": 138752,
          "time": 54.4019565,
          "velocity": 0.8661417322834646
        },
        {
          "duration": 0.11968034667968652,
          "durationTicks": 245,
          "midi": 64,
          "name": "E4",
          "ticks": 139264,
          "time": 54.652063999999996,
          "velocity": 0.8661417322834646
        },
        {
          "duration": 0.11968034667968652,
          "durationTicks": 245,
          "midi": 63,
          "name": "D#4",
          "ticks": 139520,
          "time": 54.777117749999995,
          "velocity": 0.8661417322834646
        },
        {
          "duration": 0.11968034667968652,
          "durationTicks": 245,
          "midi": 64,
          "name": "E4",
          "ticks": 139776,
          "time": 54.902171499999994,
          "velocity": 0.8661417322834646
        },
        {
          "duration": 0.24473409667969293,
          "durationTicks": 501,
          "midi": 67,
          "name": "G4",
          "ticks": 140032,
          "time": 55.027225249999994,
          "velocity": 0.8661417322834646
        },
        {
          "duration": 0.11968034667969363,
          "durationTicks": 245,
          "midi": 69,
          "name": "A4",
          "ticks": 140544,
          "time": 55.27733274999999,
          "velocity": 0.8661417322834646
        },
        {
          "duration": 0.24473409667968582,
          "durationTicks": 501,
          "midi": 67,
          "name": "G4",
          "ticks": 140800,
          "time": 55.4023865,
          "velocity": 0.8661417322834646
        },
        {
          "duration": 0.4166830029296875,
          "durationTicks": 853,
          "midi": 60,
          "name": "C4",
          "ticks": 141312,
          "time": 55.652494,
          "velocity": 0.8661417322834646
        },
        {
          "duration": 0.11968034667969363,
          "durationTicks": 245,
          "midi": 55,
          "name": "G3",
          "ticks": 142848,
          "time": 56.40281649999999,
          "velocity": 0.8661417322834646
        },
        {
          "duration": 0.11968034667969363,
          "durationTicks": 245,
          "midi": 56,
          "name": "G#3",
          "ticks": 143104,
          "time": 56.52787024999999,
          "velocity": 0.8661417322834646
        },
        {
          "duration": 0.11968034667968652,
          "durationTicks": 245,
          "midi": 57,
          "name": "A3",
          "ticks": 143360,
          "time": 56.652924,
          "velocity": 0.8661417322834646
        },
        {
          "duration": 0.11968034667968652,
          "durationTicks": 245,
          "midi": 56,
          "name": "G#3",
          "ticks": 143616,
          "time": 56.77797775,
          "velocity": 0.8661417322834646
        },
        {
          "duration": 0.11968034667968652,
          "durationTicks": 245,
          "midi": 57,
          "name": "A3",
          "ticks": 143872,
          "time": 56.9030315,
          "velocity": 0.8661417322834646
        },
        {
          "duration": 0.24473409667968582,
          "durationTicks": 501,
          "midi": 60,
          "name": "C4",
          "ticks": 144128,
          "time": 57.02808525,
          "velocity": 0.8661417322834646
        },
        {
          "duration": 0.11968034667968652,
          "durationTicks": 245,
          "midi": 62,
          "name": "D4",
          "ticks": 144640,
          "time": 57.278192749999995,
          "velocity": 0.8661417322834646
        },
        {
          "duration": 0.24473409667968582,
          "durationTicks": 501,
          "midi": 60,
          "name": "C4",
          "ticks": 144896,
          "time": 57.403246499999995,
          "velocity": 0.8661417322834646
        },
        {
          "duration": 0.4166830029296875,
          "durationTicks": 853,
          "midi": 57,
          "name": "A3",
          "ticks": 145408,
          "time": 57.65335399999999,
          "velocity": 0.8661417322834646
        },
        {
          "duration": 0.24473409667968582,
          "durationTicks": 501,
          "midi": 57,
          "name": "A3",
          "ticks": 146944,
          "time": 58.403676499999996,
          "velocity": 0.8661417322834646
        },
        {
          "duration": 0.11968034667968652,
          "durationTicks": 245,
          "midi": 55,
          "name": "G3",
          "ticks": 147456,
          "time": 58.653783999999995,
          "velocity": 0.8661417322834646
        },
        {
          "duration": 0.11968034667968652,
          "durationTicks": 245,
          "midi": 52,
          "name": "E3",
          "ticks": 147712,
          "time": 58.778837749999994,
          "velocity": 0.8661417322834646
        },
        {
          "duration": 0.11968034667968652,
          "durationTicks": 245,
          "midi": 53,
          "name": "F3",
          "ticks": 147968,
          "time": 58.90389149999999,
          "velocity": 0.8661417322834646
        },
        {
          "duration": 0.3697878466796922,
          "durationTicks": 757,
          "midi": 67,
          "name": "G4",
          "ticks": 148224,
          "time": 59.02894524999999,
          "velocity": 0.8661417322834646
        },
        {
          "duration": 0.11968034667968652,
          "durationTicks": 245,
          "midi": 55,
          "name": "G3",
          "ticks": 148992,
          "time": 59.4041065,
          "velocity": 0.8661417322834646
        },
        {
          "duration": 0.11968034667968652,
          "durationTicks": 245,
          "midi": 52,
          "name": "E3",
          "ticks": 149248,
          "time": 59.52916025,
          "velocity": 0.8661417322834646
        },
        {
          "duration": 0.11968034667968652,
          "durationTicks": 245,
          "midi": 53,
          "name": "F3",
          "ticks": 149504,
          "time": 59.654213999999996,
          "velocity": 0.8661417322834646
        },
        {
          "duration": 0.3697878466796851,
          "durationTicks": 757,
          "midi": 67,
          "name": "G4",
          "ticks": 149760,
          "time": 59.779267749999995,
          "velocity": 0.8661417322834646
        },
        {
          "duration": 0.30774946289062655,
          "durationTicks": 630,
          "midi": 55,
          "name": "G3",
          "ticks": 150528,
          "time": 60.15442899999999,
          "velocity": 0.8661417322834646
        },
        {
          "duration": 0.1817187304687522,
          "durationTicks": 372,
          "midi": 67,
          "name": "G4",
          "ticks": 151169,
          "time": 60.46755186621093,
          "velocity": 0.8661417322834646
        },
        {
          "duration": 0.24473409667968582,
          "durationTicks": 501,
          "midi": 65,
          "name": "F4",
          "ticks": 151552,
          "time": 60.654644,
          "velocity": 0.8661417322834646
        },
        {
          "duration": 0.24473409667968582,
          "durationTicks": 501,
          "midi": 67,
          "name": "G4",
          "ticks": 152064,
          "time": 60.904751499999996,
          "velocity": 0.8661417322834646
        },
        {
          "duration": 0.11968034667968652,
          "durationTicks": 245,
          "midi": 69,
          "name": "A4",
          "ticks": 152576,
          "time": 61.154858999999995,
          "velocity": 0.8661417322834646
        },
        {
          "duration": 0.24473409667968582,
          "durationTicks": 501,
          "midi": 67,
          "name": "G4",
          "ticks": 152832,
          "time": 61.279912749999994,
          "velocity": 0.8661417322834646
        },
        {
          "duration": 0.5417367529296868,
          "durationTicks": 1109,
          "midi": 62,
          "name": "D4",
          "ticks": 153344,
          "time": 61.53002024999999,
          "velocity": 0.8661417322834646
        },
        {
          "duration": 0.18220722167968972,
          "durationTicks": 373,
          "midi": 62,
          "name": "D4",
          "ticks": 155136,
          "time": 62.405396499999995,
          "velocity": 0.8661417322834646
        },
        {
          "duration": 0.11968034667968652,
          "durationTicks": 245,
          "midi": 64,
          "name": "E4",
          "ticks": 155648,
          "time": 62.65550399999999,
          "velocity": 0.8661417322834646
        },
        {
          "duration": 0.11968034667968652,
          "durationTicks": 245,
          "midi": 63,
          "name": "D#4",
          "ticks": 155904,
          "time": 62.78055774999999,
          "velocity": 0.8661417322834646
        },
        {
          "duration": 0.11968034667969363,
          "durationTicks": 245,
          "midi": 64,
          "name": "E4",
          "ticks": 156160,
          "time": 62.90561149999999,
          "velocity": 0.8661417322834646
        },
        {
          "duration": 0.24473409667968582,
          "durationTicks": 501,
          "midi": 67,
          "name": "G4",
          "ticks": 156416,
          "time": 63.03066525,
          "velocity": 0.8661417322834646
        },
        {
          "duration": 0.11968034667968652,
          "durationTicks": 245,
          "midi": 69,
          "name": "A4",
          "ticks": 156928,
          "time": 63.28077275,
          "velocity": 0.8661417322834646
        },
        {
          "duration": 0.24473409667968582,
          "durationTicks": 501,
          "midi": 67,
          "name": "G4",
          "ticks": 157184,
          "time": 63.405826499999996,
          "velocity": 0.8661417322834646
        },
        {
          "duration": 0.4166830029296946,
          "durationTicks": 853,
          "midi": 70,
          "name": "A#4",
          "ticks": 157696,
          "time": 63.655933999999995,
          "velocity": 0.8661417322834646
        },
        {
          "duration": 0.24473409667969293,
          "durationTicks": 501,
          "midi": 68,
          "name": "G#4",
          "ticks": 159232,
          "time": 64.4062565,
          "velocity": 0.8661417322834646
        },
        {
          "duration": 0.11968034667968652,
          "durationTicks": 245,
          "midi": 69,
          "name": "A4",
          "ticks": 159744,
          "time": 64.656364,
          "velocity": 0.8661417322834646
        },
        {
          "duration": 0.11968034667967231,
          "durationTicks": 245,
          "midi": 68,
          "name": "G#4",
          "ticks": 160000,
          "time": 64.78141775,
          "velocity": 0.8661417322834646
        },
        {
          "duration": 0.11968034667968652,
          "durationTicks": 245,
          "midi": 69,
          "name": "A4",
          "ticks": 160256,
          "time": 64.9064715,
          "velocity": 0.8661417322834646
        },
        {
          "duration": 0.24473409667969293,
          "durationTicks": 501,
          "midi": 72,
          "name": "C5",
          "ticks": 160512,
          "time": 65.03152524999999,
          "velocity": 0.8661417322834646
        },
        {
          "duration": 0.11968034667967231,
          "durationTicks": 245,
          "midi": 74,
          "name": "D5",
          "ticks": 161024,
          "time": 65.28163275,
          "velocity": 0.8661417322834646
        },
        {
          "duration": 0.24473409667969293,
          "durationTicks": 501,
          "midi": 72,
          "name": "C5",
          "ticks": 161280,
          "time": 65.40668649999999,
          "velocity": 0.8661417322834646
        },
        {
          "duration": 0.4166830029296875,
          "durationTicks": 853,
          "midi": 69,
          "name": "A4",
          "ticks": 161792,
          "time": 65.65679399999999,
          "velocity": 0.8661417322834646
        },
        {
          "duration": 0.24473409667967871,
          "durationTicks": 501,
          "midi": 69,
          "name": "A4",
          "ticks": 163328,
          "time": 66.4071165,
          "velocity": 0.8661417322834646
        },
        {
          "duration": 0.11968034667970073,
          "durationTicks": 245,
          "midi": 67,
          "name": "G4",
          "ticks": 163840,
          "time": 66.65722399999999,
          "velocity": 0.8661417322834646
        },
        {
          "duration": 0.11968034667970073,
          "durationTicks": 245,
          "midi": 66,
          "name": "F#4",
          "ticks": 164096,
          "time": 66.78227774999999,
          "velocity": 0.8661417322834646
        },
        {
          "duration": 0.11968034667968652,
          "durationTicks": 245,
          "midi": 67,
          "name": "G4",
          "ticks": 164352,
          "time": 66.9073315,
          "velocity": 0.8661417322834646
        },
        {
          "duration": 0.3697878466796851,
          "durationTicks": 757,
          "midi": 55,
          "name": "G3",
          "ticks": 164608,
          "time": 67.03238525,
          "velocity": 0.8661417322834646
        },
        {
          "duration": 0.11968034667968652,
          "durationTicks": 245,
          "midi": 67,
          "name": "G4",
          "ticks": 165376,
          "time": 67.4075465,
          "velocity": 0.8661417322834646
        },
        {
          "duration": 0.11968034667967231,
          "durationTicks": 245,
          "midi": 66,
          "name": "F#4",
          "ticks": 165632,
          "time": 67.53260025,
          "velocity": 0.8661417322834646
        },
        {
          "duration": 0.11968034667968652,
          "durationTicks": 245,
          "midi": 67,
          "name": "G4",
          "ticks": 165888,
          "time": 67.657654,
          "velocity": 0.8661417322834646
        },
        {
          "duration": 0.24473409667969293,
          "durationTicks": 501,
          "midi": 55,
          "name": "G3",
          "ticks": 166144,
          "time": 67.78270774999999,
          "velocity": 0.8661417322834646
        },
        {
          "duration": 0.11968034667968652,
          "durationTicks": 245,
          "midi": 55,
          "name": "G3",
          "ticks": 166656,
          "time": 68.03281525,
          "velocity": 0.8661417322834646
        },
        {
          "duration": 0.24473409667967871,
          "durationTicks": 501,
          "midi": 62,
          "name": "D4",
          "ticks": 166912,
          "time": 68.157869,
          "velocity": 0.8661417322834646
        },
        {
          "duration": 0.24473409667967871,
          "durationTicks": 501,
          "midi": 65,
          "name": "F4",
          "ticks": 166912,
          "time": 68.157869,
          "velocity": 0.8661417322834646
        },
        {
          "duration": 0.24473409667969293,
          "durationTicks": 501,
          "midi": 64,
          "name": "E4",
          "ticks": 167424,
          "time": 68.40797649999999,
          "velocity": 0.8661417322834646
        },
        {
          "duration": 1.3755912499999852,
          "durationTicks": 2816,
          "midi": 52,
          "name": "E3",
          "ticks": 167936,
          "time": 68.658084,
          "velocity": 0.8661417322834646
        },
        {
          "duration": 1.3755912499999852,
          "durationTicks": 2816,
          "midi": 60,
          "name": "C4",
          "ticks": 167936,
          "time": 68.658084,
          "velocity": 0.8661417322834646
        },
        {
          "duration": 0.11968034667968652,
          "durationTicks": 245,
          "midi": 62,
          "name": "D4",
          "ticks": 171520,
          "time": 70.40883649999999,
          "velocity": 0.8661417322834646
        },
        {
          "duration": 0.11968034667970073,
          "durationTicks": 245,
          "midi": 63,
          "name": "D#4",
          "ticks": 171776,
          "time": 70.53389024999998,
          "velocity": 0.8661417322834646
        },
        {
          "duration": 0.11968034667970073,
          "durationTicks": 245,
          "midi": 64,
          "name": "E4",
          "ticks": 172032,
          "time": 70.65894399999999,
          "velocity": 0.8661417322834646
        },
        {
          "duration": 0.11968034667968652,
          "durationTicks": 245,
          "midi": 63,
          "name": "D#4",
          "ticks": 172288,
          "time": 70.78399775,
          "velocity": 0.8661417322834646
        },
        {
          "duration": 0.11968034667967231,
          "durationTicks": 245,
          "midi": 64,
          "name": "E4",
          "ticks": 172544,
          "time": 70.9090515,
          "velocity": 0.8661417322834646
        },
        {
          "duration": 0.24473409667969293,
          "durationTicks": 501,
          "midi": 67,
          "name": "G4",
          "ticks": 172800,
          "time": 71.03410525,
          "velocity": 0.8661417322834646
        },
        {
          "duration": 0.11968034667968652,
          "durationTicks": 245,
          "midi": 69,
          "name": "A4",
          "ticks": 173312,
          "time": 71.28421275,
          "velocity": 0.8661417322834646
        },
        {
          "duration": 0.24473409667967871,
          "durationTicks": 501,
          "midi": 67,
          "name": "G4",
          "ticks": 173568,
          "time": 71.4092665,
          "velocity": 0.8661417322834646
        },
        {
          "duration": 0.4166830029296875,
          "durationTicks": 853,
          "midi": 60,
          "name": "C4",
          "ticks": 174080,
          "time": 71.65937399999999,
          "velocity": 0.8661417322834646
        },
        {
          "duration": 0.11968034667968652,
          "durationTicks": 245,
          "midi": 55,
          "name": "G3",
          "ticks": 175616,
          "time": 72.4096965,
          "velocity": 0.8661417322834646
        },
        {
          "duration": 0.11968034667967231,
          "durationTicks": 245,
          "midi": 56,
          "name": "G#3",
          "ticks": 175872,
          "time": 72.53475025,
          "velocity": 0.8661417322834646
        },
        {
          "duration": 0.11968034667968652,
          "durationTicks": 245,
          "midi": 57,
          "name": "A3",
          "ticks": 176128,
          "time": 72.659804,
          "velocity": 0.8661417322834646
        },
        {
          "duration": 0.11968034667970073,
          "durationTicks": 245,
          "midi": 56,
          "name": "G#3",
          "ticks": 176384,
          "time": 72.78485774999999,
          "velocity": 0.8661417322834646
        },
        {
          "duration": 0.11968034667968652,
          "durationTicks": 245,
          "midi": 57,
          "name": "A3",
          "ticks": 176640,
          "time": 72.90991149999999,
          "velocity": 0.8661417322834646
        },
        {
          "duration": 0.24473409667967871,
          "durationTicks": 501,
          "midi": 60,
          "name": "C4",
          "ticks": 176896,
          "time": 73.03496525,
          "velocity": 0.8661417322834646
        },
        {
          "duration": 0.11968034667968652,
          "durationTicks": 245,
          "midi": 62,
          "name": "D4",
          "ticks": 177408,
          "time": 73.28507275,
          "velocity": 0.8661417322834646
        },
        {
          "duration": 0.24473409667969293,
          "durationTicks": 501,
          "midi": 60,
          "name": "C4",
          "ticks": 177664,
          "time": 73.41012649999999,
          "velocity": 0.8661417322834646
        },
        {
          "duration": 0.4166830029296875,
          "durationTicks": 853,
          "midi": 57,
          "name": "A3",
          "ticks": 178176,
          "time": 73.660234,
          "velocity": 0.8661417322834646
        },
        {
          "duration": 0.24473409667970714,
          "durationTicks": 501,
          "midi": 57,
          "name": "A3",
          "ticks": 179712,
          "time": 74.41055649999998,
          "velocity": 0.8661417322834646
        },
        {
          "duration": 0.11968034667968652,
          "durationTicks": 245,
          "midi": 55,
          "name": "G3",
          "ticks": 180224,
          "time": 74.660664,
          "velocity": 0.8661417322834646
        },
        {
          "duration": 0.11968034667967231,
          "durationTicks": 245,
          "midi": 52,
          "name": "E3",
          "ticks": 180480,
          "time": 74.78571775,
          "velocity": 0.8661417322834646
        },
        {
          "duration": 0.11968034667968652,
          "durationTicks": 245,
          "midi": 53,
          "name": "F3",
          "ticks": 180736,
          "time": 74.9107715,
          "velocity": 0.8661417322834646
        },
        {
          "duration": 0.4323147216796883,
          "durationTicks": 885,
          "midi": 67,
          "name": "G4",
          "ticks": 180992,
          "time": 75.03582524999999,
          "velocity": 0.8661417322834646
        },
        {
          "duration": 0.05715347167968332,
          "durationTicks": 117,
          "midi": 55,
          "name": "G3",
          "ticks": 181888,
          "time": 75.473513375,
          "velocity": 0.8661417322834646
        },
        {
          "duration": 0.11968034667970073,
          "durationTicks": 245,
          "midi": 53,
          "name": "F3",
          "ticks": 182016,
          "time": 75.53604024999999,
          "velocity": 0.8661417322834646
        },
        {
          "duration": 0.11968034667970073,
          "durationTicks": 245,
          "midi": 52,
          "name": "E3",
          "ticks": 182272,
          "time": 75.66109399999999,
          "velocity": 0.8661417322834646
        },
        {
          "duration": 0.3697878466796851,
          "durationTicks": 757,
          "midi": 55,
          "name": "G3",
          "ticks": 182528,
          "time": 75.78614775,
          "velocity": 0.8661417322834646
        },
        {
          "duration": 0.30774946289062655,
          "durationTicks": 630,
          "midi": 55,
          "name": "G3",
          "ticks": 183296,
          "time": 76.16130899999999,
          "velocity": 0.8661417322834646
        },
        {
          "duration": 0.1817187304687451,
          "durationTicks": 372,
          "midi": 67,
          "name": "G4",
          "ticks": 183937,
          "time": 76.47443186621094,
          "velocity": 0.8661417322834646
        },
        {
          "duration": 0.24473409667969293,
          "durationTicks": 501,
          "midi": 65,
          "name": "F4",
          "ticks": 184320,
          "time": 76.66152399999999,
          "velocity": 0.8661417322834646
        },
        {
          "duration": 0.24473409667967871,
          "durationTicks": 501,
          "midi": 67,
          "name": "G4",
          "ticks": 184832,
          "time": 76.9116315,
          "velocity": 0.8661417322834646
        },
        {
          "duration": 0.11968034667968652,
          "durationTicks": 245,
          "midi": 69,
          "name": "A4",
          "ticks": 185344,
          "time": 77.161739,
          "velocity": 0.8661417322834646
        },
        {
          "duration": 0.24473409667969293,
          "durationTicks": 501,
          "midi": 67,
          "name": "G4",
          "ticks": 185600,
          "time": 77.28679274999999,
          "velocity": 0.8661417322834646
        },
        {
          "duration": 0.5417367529296797,
          "durationTicks": 1109,
          "midi": 62,
          "name": "D4",
          "ticks": 186112,
          "time": 77.53690025,
          "velocity": 0.8661417322834646
        },
        {
          "duration": 0.18220722167968972,
          "durationTicks": 373,
          "midi": 62,
          "name": "D4",
          "ticks": 187904,
          "time": 78.41227649999999,
          "velocity": 0.8661417322834646
        },
        {
          "duration": 0.11968034667967231,
          "durationTicks": 245,
          "midi": 64,
          "name": "E4",
          "ticks": 188416,
          "time": 78.662384,
          "velocity": 0.8661417322834646
        },
        {
          "duration": 0.11968034667968652,
          "durationTicks": 245,
          "midi": 63,
          "name": "D#4",
          "ticks": 188672,
          "time": 78.78743775,
          "velocity": 0.8661417322834646
        },
        {
          "duration": 0.11968034667970073,
          "durationTicks": 245,
          "midi": 64,
          "name": "E4",
          "ticks": 188928,
          "time": 78.91249149999999,
          "velocity": 0.8661417322834646
        },
        {
          "duration": 0.24473409667967871,
          "durationTicks": 501,
          "midi": 67,
          "name": "G4",
          "ticks": 189184,
          "time": 79.03754525,
          "velocity": 0.8661417322834646
        },
        {
          "duration": 0.11968034667968652,
          "durationTicks": 245,
          "midi": 69,
          "name": "A4",
          "ticks": 189696,
          "time": 79.28765274999999,
          "velocity": 0.8661417322834646
        },
        {
          "duration": 0.24473409667970714,
          "durationTicks": 501,
          "midi": 67,
          "name": "G4",
          "ticks": 189952,
          "time": 79.41270649999998,
          "velocity": 0.8661417322834646
        },
        {
          "duration": 0.4166830029296875,
          "durationTicks": 853,
          "midi": 70,
          "name": "A#4",
          "ticks": 190464,
          "time": 79.662814,
          "velocity": 0.8661417322834646
        },
        {
          "duration": 0.24473409667969293,
          "durationTicks": 501,
          "midi": 68,
          "name": "G#4",
          "ticks": 192000,
          "time": 80.4131365,
          "velocity": 0.8661417322834646
        },
        {
          "duration": 0.11968034667968652,
          "durationTicks": 245,
          "midi": 69,
          "name": "A4",
          "ticks": 192512,
          "time": 80.66324399999999,
          "velocity": 0.8661417322834646
        },
        {
          "duration": 0.11968034667968652,
          "durationTicks": 245,
          "midi": 68,
          "name": "G#4",
          "ticks": 192768,
          "time": 80.78829775,
          "velocity": 0.8661417322834646
        },
        {
          "duration": 0.11968034667967231,
          "durationTicks": 245,
          "midi": 69,
          "name": "A4",
          "ticks": 193024,
          "time": 80.9133515,
          "velocity": 0.8661417322834646
        },
        {
          "duration": 0.11968034667968652,
          "durationTicks": 245,
          "midi": 72,
          "name": "C5",
          "ticks": 193280,
          "time": 81.03840525,
          "velocity": 0.8661417322834646
        },
        {
          "duration": 0.11968034667968652,
          "durationTicks": 245,
          "midi": 74,
          "name": "D5",
          "ticks": 193792,
          "time": 81.28851275,
          "velocity": 0.8661417322834646
        },
        {
          "duration": 0.24473409667967871,
          "durationTicks": 501,
          "midi": 72,
          "name": "C5",
          "ticks": 194048,
          "time": 81.4135665,
          "velocity": 0.8661417322834646
        },
        {
          "duration": 0.4166830029296875,
          "durationTicks": 853,
          "midi": 69,
          "name": "A4",
          "ticks": 194560,
          "time": 81.66367399999999,
          "velocity": 0.8661417322834646
        },
        {
          "duration": 0.24473409667967871,
          "durationTicks": 501,
          "midi": 69,
          "name": "A4",
          "ticks": 196096,
          "time": 82.4139965,
          "velocity": 0.8661417322834646
        },
        {
          "duration": 0.11968034667968652,
          "durationTicks": 245,
          "midi": 67,
          "name": "G4",
          "ticks": 196608,
          "time": 82.664104,
          "velocity": 0.8661417322834646
        },
        {
          "duration": 0.11968034667970073,
          "durationTicks": 245,
          "midi": 66,
          "name": "F#4",
          "ticks": 196864,
          "time": 82.78915774999999,
          "velocity": 0.8661417322834646
        },
        {
          "duration": 0.11968034667968652,
          "durationTicks": 245,
          "midi": 67,
          "name": "G4",
          "ticks": 197120,
          "time": 82.9142115,
          "velocity": 0.8661417322834646
        },
        {
          "duration": 0.3697878466796851,
          "durationTicks": 757,
          "midi": 55,
          "name": "G3",
          "ticks": 197376,
          "time": 83.03926525,
          "velocity": 0.8661417322834646
        },
        {
          "duration": 0.11968034667970073,
          "durationTicks": 245,
          "midi": 67,
          "name": "G4",
          "ticks": 198144,
          "time": 83.41442649999999,
          "velocity": 0.8661417322834646
        },
        {
          "duration": 0.11968034667968652,
          "durationTicks": 245,
          "midi": 66,
          "name": "F#4",
          "ticks": 198400,
          "time": 83.53948025,
          "velocity": 0.8661417322834646
        },
        {
          "duration": 0.11968034667967231,
          "durationTicks": 245,
          "midi": 67,
          "name": "G4",
          "ticks": 198656,
          "time": 83.664534,
          "velocity": 0.8661417322834646
        },
        {
          "duration": 0.24473409667969293,
          "durationTicks": 501,
          "midi": 55,
          "name": "G3",
          "ticks": 198912,
          "time": 83.78958775,
          "velocity": 0.8661417322834646
        },
        {
          "duration": 0.11968034667968652,
          "durationTicks": 245,
          "midi": 55,
          "name": "G3",
          "ticks": 199424,
          "time": 84.03969525,
          "velocity": 0.8661417322834646
        },
        {
          "duration": 0.24473409667967871,
          "durationTicks": 501,
          "midi": 65,
          "name": "F4",
          "ticks": 199680,
          "time": 84.164749,
          "velocity": 0.8661417322834646
        },
        {
          "duration": 0.24473409667969293,
          "durationTicks": 501,
          "midi": 64,
          "name": "E4",
          "ticks": 200192,
          "time": 84.41485649999998,
          "velocity": 0.8661417322834646
        },
        {
          "duration": 1.8758062499999966,
          "durationTicks": 3840,
          "midi": 60,
          "name": "C4",
          "ticks": 200704,
          "time": 84.664964,
          "velocity": 0.8661417322834646
        },
        {
          "duration": 0.6667905029297003,
          "durationTicks": 1365,
          "midi": 77,
          "name": "F5",
          "ticks": 204800,
          "time": 86.66582399999999,
          "velocity": 0.8661417322834646
        },
        {
          "duration": 0.6667905029297003,
          "durationTicks": 1365,
          "midi": 81,
          "name": "A5",
          "ticks": 204800,
          "time": 86.66582399999999,
          "velocity": 0.8661417322834646
        },
        {
          "duration": 0.24473409667967871,
          "durationTicks": 501,
          "midi": 72,
          "name": "C5",
          "ticks": 206336,
          "time": 87.4161465,
          "velocity": 0.8661417322834646
        },
        {
          "duration": 0.24473409667967871,
          "durationTicks": 501,
          "midi": 77,
          "name": "F5",
          "ticks": 206336,
          "time": 87.4161465,
          "velocity": 0.8661417322834646
        },
        {
          "duration": 0.6667905029297003,
          "durationTicks": 1365,
          "midi": 76,
          "name": "E5",
          "ticks": 206848,
          "time": 87.66625399999998,
          "velocity": 0.8661417322834646
        },
        {
          "duration": 0.6667905029297003,
          "durationTicks": 1365,
          "midi": 79,
          "name": "G5",
          "ticks": 206848,
          "time": 87.66625399999998,
          "velocity": 0.8661417322834646
        },
        {
          "duration": 0.24473409667967871,
          "durationTicks": 501,
          "midi": 72,
          "name": "C5",
          "ticks": 208384,
          "time": 88.41657649999999,
          "velocity": 0.8661417322834646
        },
        {
          "duration": 0.24473409667967871,
          "durationTicks": 501,
          "midi": 76,
          "name": "E5",
          "ticks": 208384,
          "time": 88.41657649999999,
          "velocity": 0.8661417322834646
        },
        {
          "duration": 0.3697878466796851,
          "durationTicks": 757,
          "midi": 77,
          "name": "F5",
          "ticks": 208896,
          "time": 88.666684,
          "velocity": 0.8661417322834646
        },
        {
          "duration": 0.11968034667967231,
          "durationTicks": 245,
          "midi": 79,
          "name": "G5",
          "ticks": 209664,
          "time": 89.04184525,
          "velocity": 0.8661417322834646
        },
        {
          "duration": 0.1035601367187553,
          "durationTicks": 212,
          "midi": 76,
          "name": "E5",
          "ticks": 210561,
          "time": 89.48002186621093,
          "velocity": 0.8661417322834646
        },
        {
          "duration": 0.1822072216796755,
          "durationTicks": 373,
          "midi": 76,
          "name": "E5",
          "ticks": 210944,
          "time": 89.667114,
          "velocity": 0.8661417322834646
        },
        {
          "duration": 0.05715347167969753,
          "durationTicks": 117,
          "midi": 77,
          "name": "F5",
          "ticks": 211328,
          "time": 89.85469462499998,
          "velocity": 0.8661417322834646
        },
        {
          "duration": 0.11968034667970073,
          "durationTicks": 245,
          "midi": 79,
          "name": "G5",
          "ticks": 211456,
          "time": 89.91722149999998,
          "velocity": 0.8661417322834646
        },
        {
          "duration": 0.11968034667970073,
          "durationTicks": 245,
          "midi": 80,
          "name": "G#5",
          "ticks": 211712,
          "time": 90.04227524999999,
          "velocity": 0.8661417322834646
        },
        {
          "duration": 0.6667905029297003,
          "durationTicks": 1365,
          "midi": 77,
          "name": "F5",
          "ticks": 212992,
          "time": 90.66754399999999,
          "velocity": 0.8661417322834646
        },
        {
          "duration": 0.6667905029297003,
          "durationTicks": 1365,
          "midi": 81,
          "name": "A5",
          "ticks": 212992,
          "time": 90.66754399999999,
          "velocity": 0.8661417322834646
        },
        {
          "duration": 0.24473409667967871,
          "durationTicks": 501,
          "midi": 77,
          "name": "F5",
          "ticks": 214528,
          "time": 91.4178665,
          "velocity": 0.8661417322834646
        },
        {
          "duration": 0.24473409667967871,
          "durationTicks": 501,
          "midi": 80,
          "name": "G#5",
          "ticks": 214528,
          "time": 91.4178665,
          "velocity": 0.8661417322834646
        },
        {
          "duration": 0.6667905029297003,
          "durationTicks": 1365,
          "midi": 76,
          "name": "E5",
          "ticks": 215040,
          "time": 91.66797399999999,
          "velocity": 0.8661417322834646
        },
        {
          "duration": 0.6667905029297003,
          "durationTicks": 1365,
          "midi": 79,
          "name": "G5",
          "ticks": 215040,
          "time": 91.66797399999999,
          "velocity": 0.8661417322834646
        },
        {
          "duration": 0.24473409667967871,
          "durationTicks": 501,
          "midi": 78,
          "name": "F#5",
          "ticks": 216576,
          "time": 92.4182965,
          "velocity": 0.8661417322834646
        },
        {
          "duration": 0.36978784667971354,
          "durationTicks": 757,
          "midi": 77,
          "name": "F5",
          "ticks": 217088,
          "time": 92.66840399999998,
          "velocity": 0.8661417322834646
        },
        {
          "duration": 0.3697878466796851,
          "durationTicks": 757,
          "midi": 76,
          "name": "E5",
          "ticks": 217856,
          "time": 93.04356525,
          "velocity": 0.8661417322834646
        },
        {
          "duration": 0.6667905029297003,
          "durationTicks": 1365,
          "midi": 72,
          "name": "C5",
          "ticks": 218624,
          "time": 93.41872649999999,
          "velocity": 0.8661417322834646
        },
        {
          "duration": 0.24473409667967871,
          "durationTicks": 501,
          "midi": 77,
          "name": "F5",
          "ticks": 221184,
          "time": 94.669264,
          "velocity": 0.8661417322834646
        },
        {
          "duration": 0.24473409667967871,
          "durationTicks": 501,
          "midi": 81,
          "name": "A5",
          "ticks": 221184,
          "time": 94.669264,
          "velocity": 0.8661417322834646
        },
        {
          "duration": 0.24473409667970714,
          "durationTicks": 501,
          "midi": 77,
          "name": "F5",
          "ticks": 221696,
          "time": 94.91937149999998,
          "velocity": 0.8661417322834646
        },
        {
          "duration": 0.24473409667970714,
          "durationTicks": 501,
          "midi": 81,
          "name": "A5",
          "ticks": 221696,
          "time": 94.91937149999998,
          "velocity": 0.8661417322834646
        },
        {
          "duration": 0.24473409667967871,
          "durationTicks": 501,
          "midi": 77,
          "name": "F5",
          "ticks": 222208,
          "time": 95.169479,
          "velocity": 0.8661417322834646
        },
        {
          "duration": 0.24473409667967871,
          "durationTicks": 501,
          "midi": 80,
          "name": "G#5",
          "ticks": 222208,
          "time": 95.169479,
          "velocity": 0.8661417322834646
        },
        {
          "duration": 0.24473409667970714,
          "durationTicks": 501,
          "midi": 77,
          "name": "F5",
          "ticks": 222720,
          "time": 95.41958649999998,
          "velocity": 0.8661417322834646
        },
        {
          "duration": 0.24473409667970714,
          "durationTicks": 501,
          "midi": 80,
          "name": "G#5",
          "ticks": 222720,
          "time": 95.41958649999998,
          "velocity": 0.8661417322834646
        },
        {
          "duration": 0.24473409667967871,
          "durationTicks": 501,
          "midi": 76,
          "name": "E5",
          "ticks": 223232,
          "time": 95.66969399999999,
          "velocity": 0.8661417322834646
        },
        {
          "duration": 0.24473409667967871,
          "durationTicks": 501,
          "midi": 79,
          "name": "G5",
          "ticks": 223232,
          "time": 95.66969399999999,
          "velocity": 0.8661417322834646
        },
        {
          "duration": 0.24473409667967871,
          "durationTicks": 501,
          "midi": 76,
          "name": "E5",
          "ticks": 223744,
          "time": 95.9198015,
          "velocity": 0.8661417322834646
        },
        {
          "duration": 0.24473409667967871,
          "durationTicks": 501,
          "midi": 79,
          "name": "G5",
          "ticks": 223744,
          "time": 95.9198015,
          "velocity": 0.8661417322834646
        },
        {
          "duration": 0.24473409667967871,
          "durationTicks": 501,
          "midi": 75,
          "name": "D#5",
          "ticks": 224256,
          "time": 96.16990899999999,
          "velocity": 0.8661417322834646
        },
        {
          "duration": 0.24473409667967871,
          "durationTicks": 501,
          "midi": 78,
          "name": "F#5",
          "ticks": 224256,
          "time": 96.16990899999999,
          "velocity": 0.8661417322834646
        },
        {
          "duration": 0.24473409667967871,
          "durationTicks": 501,
          "midi": 75,
          "name": "D#5",
          "ticks": 224768,
          "time": 96.4200165,
          "velocity": 0.8661417322834646
        },
        {
          "duration": 0.24473409667967871,
          "durationTicks": 501,
          "midi": 78,
          "name": "F#5",
          "ticks": 224768,
          "time": 96.4200165,
          "velocity": 0.8661417322834646
        },
        {
          "duration": 0.3697878466796851,
          "durationTicks": 757,
          "midi": 74,
          "name": "D5",
          "ticks": 225280,
          "time": 96.67012399999999,
          "velocity": 0.8661417322834646
        },
        {
          "duration": 0.3697878466796851,
          "durationTicks": 757,
          "midi": 77,
          "name": "F5",
          "ticks": 225280,
          "time": 96.67012399999999,
          "velocity": 0.8661417322834646
        },
        {
          "duration": 0.11968034667967231,
          "durationTicks": 245,
          "midi": 76,
          "name": "E5",
          "ticks": 226048,
          "time": 97.04528525,
          "velocity": 0.8661417322834646
        },
        {
          "duration": 0.11968034667967231,
          "durationTicks": 245,
          "midi": 79,
          "name": "G5",
          "ticks": 226048,
          "time": 97.04528525,
          "velocity": 0.8661417322834646
        },
        {
          "duration": 1.1254837500000008,
          "durationTicks": 2304,
          "midi": 72,
          "name": "C5",
          "ticks": 226816,
          "time": 97.4204465,
          "velocity": 0.8661417322834646
        },
        {
          "duration": 1.1254837500000008,
          "durationTicks": 2304,
          "midi": 76,
          "name": "E5",
          "ticks": 226816,
          "time": 97.4204465,
          "velocity": 0.8661417322834646
        },
        {
          "duration": 0.24473409667967871,
          "durationTicks": 501,
          "midi": 77,
          "name": "F5",
          "ticks": 229376,
          "time": 98.670984,
          "velocity": 0.8661417322834646
        },
        {
          "duration": 0.24473409667967871,
          "durationTicks": 501,
          "midi": 81,
          "name": "A5",
          "ticks": 229376,
          "time": 98.670984,
          "velocity": 0.8661417322834646
        },
        {
          "duration": 0.24473409667967871,
          "durationTicks": 501,
          "midi": 77,
          "name": "F5",
          "ticks": 229888,
          "time": 98.92109149999999,
          "velocity": 0.8661417322834646
        },
        {
          "duration": 0.24473409667967871,
          "durationTicks": 501,
          "midi": 81,
          "name": "A5",
          "ticks": 229888,
          "time": 98.92109149999999,
          "velocity": 0.8661417322834646
        },
        {
          "duration": 0.24473409667967871,
          "durationTicks": 501,
          "midi": 77,
          "name": "F5",
          "ticks": 230400,
          "time": 99.171199,
          "velocity": 0.8661417322834646
        },
        {
          "duration": 0.24473409667967871,
          "durationTicks": 501,
          "midi": 80,
          "name": "G#5",
          "ticks": 230400,
          "time": 99.171199,
          "velocity": 0.8661417322834646
        },
        {
          "duration": 0.24473409667970714,
          "durationTicks": 501,
          "midi": 77,
          "name": "F5",
          "ticks": 230912,
          "time": 99.42130649999999,
          "velocity": 0.8661417322834646
        },
        {
          "duration": 0.24473409667970714,
          "durationTicks": 501,
          "midi": 80,
          "name": "G#5",
          "ticks": 230912,
          "time": 99.42130649999999,
          "velocity": 0.8661417322834646
        },
        {
          "duration": 0.24473409667967871,
          "durationTicks": 501,
          "midi": 76,
          "name": "E5",
          "ticks": 231424,
          "time": 99.671414,
          "velocity": 0.8661417322834646
        },
        {
          "duration": 0.24473409667967871,
          "durationTicks": 501,
          "midi": 79,
          "name": "G5",
          "ticks": 231424,
          "time": 99.671414,
          "velocity": 0.8661417322834646
        },
        {
          "duration": 0.24473409667970714,
          "durationTicks": 501,
          "midi": 76,
          "name": "E5",
          "ticks": 231936,
          "time": 99.92152149999998,
          "velocity": 0.8661417322834646
        },
        {
          "duration": 0.24473409667970714,
          "durationTicks": 501,
          "midi": 79,
          "name": "G5",
          "ticks": 231936,
          "time": 99.92152149999998,
          "velocity": 0.8661417322834646
        },
        {
          "duration": 0.24473409667967871,
          "durationTicks": 501,
          "midi": 75,
          "name": "D#5",
          "ticks": 232448,
          "time": 100.171629,
          "velocity": 0.8661417322834646
        },
        {
          "duration": 0.24473409667967871,
          "durationTicks": 501,
          "midi": 78,
          "name": "F#5",
          "ticks": 232448,
          "time": 100.171629,
          "velocity": 0.8661417322834646
        },
        {
          "duration": 0.24473409667970714,
          "durationTicks": 501,
          "midi": 75,
          "name": "D#5",
          "ticks": 232960,
          "time": 100.42173649999998,
          "velocity": 0.8661417322834646
        },
        {
          "duration": 0.24473409667970714,
          "durationTicks": 501,
          "midi": 78,
          "name": "F#5",
          "ticks": 232960,
          "time": 100.42173649999998,
          "velocity": 0.8661417322834646
        },
        {
          "duration": 0.3697878466796851,
          "durationTicks": 757,
          "midi": 74,
          "name": "D5",
          "ticks": 233472,
          "time": 100.671844,
          "velocity": 0.8661417322834646
        },
        {
          "duration": 0.3697878466796851,
          "durationTicks": 757,
          "midi": 77,
          "name": "F5",
          "ticks": 233472,
          "time": 100.671844,
          "velocity": 0.8661417322834646
        },
        {
          "duration": 0.11968034667970073,
          "durationTicks": 245,
          "midi": 72,
          "name": "C5",
          "ticks": 234240,
          "time": 101.04700524999998,
          "velocity": 0.8661417322834646
        },
        {
          "duration": 0.11968034667970073,
          "durationTicks": 245,
          "midi": 76,
          "name": "E5",
          "ticks": 234240,
          "time": 101.04700524999998,
          "velocity": 0.8661417322834646
        },
        {
          "duration": 1.1254837500000008,
          "durationTicks": 2304,
          "midi": 67,
          "name": "G4",
          "ticks": 235008,
          "time": 101.4221665,
          "velocity": 0.8661417322834646
        },
        {
          "duration": 1.1254837500000008,
          "durationTicks": 2304,
          "midi": 72,
          "name": "C5",
          "ticks": 235008,
          "time": 101.4221665,
          "velocity": 0.8661417322834646
        },
        {
          "duration": 0.11968034667970073,
          "durationTicks": 245,
          "midi": 72,
          "name": "C5",
          "ticks": 237568,
          "time": 102.67270399999998,
          "velocity": 0.8661417322834646
        },
        {
          "duration": 0.24473409667967871,
          "durationTicks": 501,
          "midi": 64,
          "name": "E4",
          "ticks": 237824,
          "time": 102.79775774999999,
          "velocity": 0.8661417322834646
        },
        {
          "duration": 0.11968034667967231,
          "durationTicks": 245,
          "midi": 70,
          "name": "A#4",
          "ticks": 238336,
          "time": 103.04786525,
          "velocity": 0.8661417322834646
        },
        {
          "duration": 0.11968034667967231,
          "durationTicks": 245,
          "midi": 72,
          "name": "C5",
          "ticks": 239616,
          "time": 103.673134,
          "velocity": 0.8661417322834646
        },
        {
          "duration": 0.24473409667970714,
          "durationTicks": 501,
          "midi": 64,
          "name": "E4",
          "ticks": 239872,
          "time": 103.79818774999998,
          "velocity": 0.8661417322834646
        },
        {
          "duration": 0.11968034667967231,
          "durationTicks": 245,
          "midi": 70,
          "name": "A#4",
          "ticks": 240384,
          "time": 104.04829525,
          "velocity": 0.8661417322834646
        },
        {
          "duration": 0.11968034667967231,
          "durationTicks": 245,
          "midi": 69,
          "name": "A4",
          "ticks": 241664,
          "time": 104.673564,
          "velocity": 0.8661417322834646
        },
        {
          "duration": 0.24473409667967871,
          "durationTicks": 501,
          "midi": 60,
          "name": "C4",
          "ticks": 241920,
          "time": 104.79861775,
          "velocity": 0.8661417322834646
        },
        {
          "duration": 0.11968034667970073,
          "durationTicks": 245,
          "midi": 63,
          "name": "D#4",
          "ticks": 242432,
          "time": 105.04872524999999,
          "velocity": 0.8661417322834646
        },
        {
          "duration": 0.11968034667967231,
          "durationTicks": 245,
          "midi": 69,
          "name": "A4",
          "ticks": 243712,
          "time": 105.673994,
          "velocity": 0.8661417322834646
        },
        {
          "duration": 0.24473409667967871,
          "durationTicks": 501,
          "midi": 60,
          "name": "C4",
          "ticks": 243968,
          "time": 105.79904775,
          "velocity": 0.8661417322834646
        },
        {
          "duration": 0.11968034667970073,
          "durationTicks": 245,
          "midi": 63,
          "name": "D#4",
          "ticks": 244480,
          "time": 106.04915524999998,
          "velocity": 0.8661417322834646
        },
        {
          "duration": 0.11968034667970073,
          "durationTicks": 245,
          "midi": 72,
          "name": "C5",
          "ticks": 245760,
          "time": 106.67442399999999,
          "velocity": 0.8661417322834646
        },
        {
          "duration": 0.24473409667967871,
          "durationTicks": 501,
          "midi": 64,
          "name": "E4",
          "ticks": 246016,
          "time": 106.79947775,
          "velocity": 0.8661417322834646
        },
        {
          "duration": 0.11968034667970073,
          "durationTicks": 245,
          "midi": 70,
          "name": "A#4",
          "ticks": 246528,
          "time": 107.04958524999998,
          "velocity": 0.8661417322834646
        },
        {
          "duration": 0.11968034667970073,
          "durationTicks": 245,
          "midi": 72,
          "name": "C5",
          "ticks": 247808,
          "time": 107.67485399999998,
          "velocity": 0.8661417322834646
        },
        {
          "duration": 0.24473409667967871,
          "durationTicks": 501,
          "midi": 64,
          "name": "E4",
          "ticks": 248064,
          "time": 107.79990774999999,
          "velocity": 0.8661417322834646
        },
        {
          "duration": 0.11968034667967231,
          "durationTicks": 245,
          "midi": 70,
          "name": "A#4",
          "ticks": 248576,
          "time": 108.05001525,
          "velocity": 0.8661417322834646
        },
        {
          "duration": 0.24473409667967871,
          "durationTicks": 501,
          "midi": 65,
          "name": "F4",
          "ticks": 249856,
          "time": 108.675284,
          "velocity": 0.8661417322834646
        },
        {
          "duration": 0.24473409667967871,
          "durationTicks": 501,
          "midi": 69,
          "name": "A4",
          "ticks": 249856,
          "time": 108.675284,
          "velocity": 0.8661417322834646
        },
        {
          "duration": 0.24473409667967871,
          "durationTicks": 501,
          "midi": 65,
          "name": "F4",
          "ticks": 250368,
          "time": 108.92539149999999,
          "velocity": 0.8661417322834646
        },
        {
          "duration": 0.24473409667967871,
          "durationTicks": 501,
          "midi": 69,
          "name": "A4",
          "ticks": 250368,
          "time": 108.92539149999999,
          "velocity": 0.8661417322834646
        },
        {
          "duration": 0.24473409667967871,
          "durationTicks": 501,
          "midi": 65,
          "name": "F4",
          "ticks": 250880,
          "time": 109.175499,
          "velocity": 0.8661417322834646
        },
        {
          "duration": 0.24473409667967871,
          "durationTicks": 501,
          "midi": 69,
          "name": "A4",
          "ticks": 250880,
          "time": 109.175499,
          "velocity": 0.8661417322834646
        },
        {
          "duration": 0.24473409667970714,
          "durationTicks": 501,
          "midi": 65,
          "name": "F4",
          "ticks": 251392,
          "time": 109.42560649999999,
          "velocity": 0.8661417322834646
        },
        {
          "duration": 0.24473409667970714,
          "durationTicks": 501,
          "midi": 69,
          "name": "A4",
          "ticks": 251392,
          "time": 109.42560649999999,
          "velocity": 0.8661417322834646
        },
        {
          "duration": 0.4166830029296875,
          "durationTicks": 853,
          "midi": 65,
          "name": "F4",
          "ticks": 251904,
          "time": 109.675714,
          "velocity": 0.8661417322834646
        },
        {
          "duration": 0.4166830029296875,
          "durationTicks": 853,
          "midi": 68,
          "name": "G#4",
          "ticks": 251904,
          "time": 109.675714,
          "velocity": 0.8661417322834646
        },
        {
          "duration": 0.05715347167966911,
          "durationTicks": 117,
          "midi": 67,
          "name": "G4",
          "ticks": 252928,
          "time": 110.175929,
          "velocity": 0.8661417322834646
        },
        {
          "duration": 0.05715347167966911,
          "durationTicks": 117,
          "midi": 65,
          "name": "F4",
          "ticks": 253056,
          "time": 110.238455875,
          "velocity": 0.8661417322834646
        },
        {
          "duration": 0.05715347167966911,
          "durationTicks": 117,
          "midi": 64,
          "name": "E4",
          "ticks": 253184,
          "time": 110.30098275,
          "velocity": 0.8661417322834646
        },
        {
          "duration": 0.05715347167966911,
          "durationTicks": 117,
          "midi": 62,
          "name": "D4",
          "ticks": 253312,
          "time": 110.363509625,
          "velocity": 0.8661417322834646
        },
        {
          "duration": 0.05715347167969753,
          "durationTicks": 117,
          "midi": 60,
          "name": "C4",
          "ticks": 253440,
          "time": 110.42603649999998,
          "velocity": 0.8661417322834646
        },
        {
          "duration": 0.05715347167969753,
          "durationTicks": 117,
          "midi": 58,
          "name": "A#3",
          "ticks": 253568,
          "time": 110.48856337499998,
          "velocity": 0.8661417322834646
        },
        {
          "duration": 0.11968034667970073,
          "durationTicks": 245,
          "midi": 55,
          "name": "G3",
          "ticks": 253696,
          "time": 110.55109024999999,
          "velocity": 0.8661417322834646
        },
        {
          "duration": 0.11968034667967231,
          "durationTicks": 245,
          "midi": 72,
          "name": "C5",
          "ticks": 253952,
          "time": 110.676144,
          "velocity": 0.8661417322834646
        },
        {
          "duration": 0.24473409667967871,
          "durationTicks": 501,
          "midi": 64,
          "name": "E4",
          "ticks": 254208,
          "time": 110.80119775,
          "velocity": 0.8661417322834646
        },
        {
          "duration": 0.11968034667970073,
          "durationTicks": 245,
          "midi": 70,
          "name": "A#4",
          "ticks": 254720,
          "time": 111.05130524999998,
          "velocity": 0.8661417322834646
        },
        {
          "duration": 0.11968034667970073,
          "durationTicks": 245,
          "midi": 72,
          "name": "C5",
          "ticks": 256000,
          "time": 111.67657399999999,
          "velocity": 0.8661417322834646
        },
        {
          "duration": 0.24473409667967871,
          "durationTicks": 501,
          "midi": 64,
          "name": "E4",
          "ticks": 256256,
          "time": 111.80162775,
          "velocity": 0.8661417322834646
        },
        {
          "duration": 0.11968034667970073,
          "durationTicks": 245,
          "midi": 70,
          "name": "A#4",
          "ticks": 256768,
          "time": 112.05173524999998,
          "velocity": 0.8661417322834646
        },
        {
          "duration": 0.11968034667970073,
          "durationTicks": 245,
          "midi": 69,
          "name": "A4",
          "ticks": 258048,
          "time": 112.67700399999998,
          "velocity": 0.8661417322834646
        },
        {
          "duration": 0.24473409667967871,
          "durationTicks": 501,
          "midi": 60,
          "name": "C4",
          "ticks": 258304,
          "time": 112.80205774999999,
          "velocity": 0.8661417322834646
        },
        {
          "duration": 0.11968034667967231,
          "durationTicks": 245,
          "midi": 63,
          "name": "D#4",
          "ticks": 258816,
          "time": 113.05216525,
          "velocity": 0.8661417322834646
        },
        {
          "duration": 0.11968034667967231,
          "durationTicks": 245,
          "midi": 69,
          "name": "A4",
          "ticks": 260096,
          "time": 113.677434,
          "velocity": 0.8661417322834646
        },
        {
          "duration": 0.24473409667970714,
          "durationTicks": 501,
          "midi": 60,
          "name": "C4",
          "ticks": 260352,
          "time": 113.80248774999998,
          "velocity": 0.8661417322834646
        },
        {
          "duration": 0.11968034667967231,
          "durationTicks": 245,
          "midi": 63,
          "name": "D#4",
          "ticks": 260864,
          "time": 114.05259525,
          "velocity": 0.8661417322834646
        },
        {
          "duration": 0.11968034667967231,
          "durationTicks": 245,
          "midi": 72,
          "name": "C5",
          "ticks": 262144,
          "time": 114.677864,
          "velocity": 0.8661417322834646
        },
        {
          "duration": 0.24473409667970714,
          "durationTicks": 501,
          "midi": 64,
          "name": "E4",
          "ticks": 262400,
          "time": 114.80291774999998,
          "velocity": 0.8661417322834646
        },
        {
          "duration": 0.11968034667970073,
          "durationTicks": 245,
          "midi": 70,
          "name": "A#4",
          "ticks": 262912,
          "time": 115.05302524999999,
          "velocity": 0.8661417322834646
        },
        {
          "duration": 0.11968034667967231,
          "durationTicks": 245,
          "midi": 72,
          "name": "C5",
          "ticks": 264192,
          "time": 115.678294,
          "velocity": 0.8661417322834646
        },
        {
          "duration": 0.24473409667967871,
          "durationTicks": 501,
          "midi": 64,
          "name": "E4",
          "ticks": 264448,
          "time": 115.80334775,
          "velocity": 0.8661417322834646
        },
        {
          "duration": 0.11968034667970073,
          "durationTicks": 245,
          "midi": 70,
          "name": "A#4",
          "ticks": 264960,
          "time": 116.05345524999998,
          "velocity": 0.8661417322834646
        },
        {
          "duration": 0.3571570976562555,
          "durationTicks": 853,
          "midi": 72,
          "name": "C5",
          "ticks": 266240,
          "time": 116.67872399999999,
          "velocity": 0.8661417322834646
        },
        {
          "duration": 0.3571570976562555,
          "durationTicks": 853,
          "midi": 76,
          "name": "E5",
          "ticks": 266240,
          "time": 116.67872399999999,
          "velocity": 0.8661417322834646
        },
        {
          "duration": 0.3571570976562555,
          "durationTicks": 853,
          "midi": 79,
          "name": "G5",
          "ticks": 266240,
          "time": 116.67872399999999,
          "velocity": 0.8661417322834646
        },
        {
          "duration": 0.20977222265624107,
          "durationTicks": 501,
          "midi": 72,
          "name": "C5",
          "ticks": 267776,
          "time": 117.32185799999999,
          "velocity": 0.8661417322834646
        },
        {
          "duration": 0.20977222265624107,
          "durationTicks": 501,
          "midi": 77,
          "name": "F5",
          "ticks": 267776,
          "time": 117.32185799999999,
          "velocity": 0.8661417322834646
        },
        {
          "duration": 0.20977222265624107,
          "durationTicks": 501,
          "midi": 81,
          "name": "A5",
          "ticks": 267776,
          "time": 117.32185799999999,
          "velocity": 0.8661417322834646
        },
        {
          "duration": 0.20977222265625528,
          "durationTicks": 501,
          "midi": 72,
          "name": "C5",
          "ticks": 268800,
          "time": 117.75061399999998,
          "velocity": 0.8661417322834646
        },
        {
          "duration": 0.20977222265625528,
          "durationTicks": 501,
          "midi": 76,
          "name": "E5",
          "ticks": 268800,
          "time": 117.75061399999998,
          "velocity": 0.8661417322834646
        },
        {
          "duration": 0.20977222265625528,
          "durationTicks": 501,
          "midi": 79,
          "name": "G5",
          "ticks": 268800,
          "time": 117.75061399999998,
          "velocity": 0.8661417322834646
        },
        {
          "duration": 0.20977222265624107,
          "durationTicks": 501,
          "midi": 72,
          "name": "C5",
          "ticks": 269824,
          "time": 118.17936999999999,
          "velocity": 0.8661417322834646
        },
        {
          "duration": 0.20977222265624107,
          "durationTicks": 501,
          "midi": 75,
          "name": "D#5",
          "ticks": 269824,
          "time": 118.17936999999999,
          "velocity": 0.8661417322834646
        },
        {
          "duration": 0.20977222265624107,
          "durationTicks": 501,
          "midi": 78,
          "name": "F#5",
          "ticks": 269824,
          "time": 118.17936999999999,
          "velocity": 0.8661417322834646
        },
        {
          "duration": 0.20977222265625528,
          "durationTicks": 501,
          "midi": 72,
          "name": "C5",
          "ticks": 270336,
          "time": 118.39374799999999,
          "velocity": 0.8661417322834646
        },
        {
          "duration": 0.20977222265625528,
          "durationTicks": 501,
          "midi": 76,
          "name": "E5",
          "ticks": 270336,
          "time": 118.39374799999999,
          "velocity": 0.8661417322834646
        },
        {
          "duration": 0.20977222265625528,
          "durationTicks": 501,
          "midi": 79,
          "name": "G5",
          "ticks": 270336,
          "time": 118.39374799999999,
          "velocity": 0.8661417322834646
        },
        {
          "duration": 0.20977222265625528,
          "durationTicks": 501,
          "midi": 76,
          "name": "E5",
          "ticks": 270848,
          "time": 118.60812599999998,
          "velocity": 0.8661417322834646
        },
        {
          "duration": 0.20977222265625528,
          "durationTicks": 501,
          "midi": 79,
          "name": "G5",
          "ticks": 270848,
          "time": 118.60812599999998,
          "velocity": 0.8661417322834646
        },
        {
          "duration": 0.20977222265625528,
          "durationTicks": 501,
          "midi": 84,
          "name": "C6",
          "ticks": 270848,
          "time": 118.60812599999998,
          "velocity": 0.8661417322834646
        },
        {
          "duration": 0.35715709765624126,
          "durationTicks": 853,
          "midi": 79,
          "name": "G5",
          "ticks": 271360,
          "time": 118.822504,
          "velocity": 0.8661417322834646
        },
        {
          "duration": 0.35715709765624126,
          "durationTicks": 853,
          "midi": 84,
          "name": "C6",
          "ticks": 271360,
          "time": 118.822504,
          "velocity": 0.8661417322834646
        },
        {
          "duration": 0.35715709765624126,
          "durationTicks": 853,
          "midi": 88,
          "name": "E6",
          "ticks": 271360,
          "time": 118.822504,
          "velocity": 0.8661417322834646
        },
        {
          "duration": 0.20977222265624107,
          "durationTicks": 501,
          "midi": 67,
          "name": "G4",
          "ticks": 273408,
          "time": 119.680016,
          "velocity": 0.8661417322834646
        },
        {
          "duration": 0.20977222265624107,
          "durationTicks": 501,
          "midi": 72,
          "name": "C5",
          "ticks": 273920,
          "time": 119.89439399999999,
          "velocity": 0.8661417322834646
        },
        {
          "duration": 0.3571570976562555,
          "durationTicks": 853,
          "midi": 71,
          "name": "B4",
          "ticks": 274432,
          "time": 120.10877199999999,
          "velocity": 0.8661417322834646
        },
        {
          "duration": 0.3571570976562555,
          "durationTicks": 853,
          "midi": 74,
          "name": "D5",
          "ticks": 274432,
          "time": 120.10877199999999,
          "velocity": 0.8661417322834646
        },
        {
          "duration": 0.3571570976562555,
          "durationTicks": 853,
          "midi": 77,
          "name": "F5",
          "ticks": 274432,
          "time": 120.10877199999999,
          "velocity": 0.8661417322834646
        },
        {
          "duration": 0.20977222265624107,
          "durationTicks": 501,
          "midi": 71,
          "name": "B4",
          "ticks": 275968,
          "time": 120.75190599999999,
          "velocity": 0.8661417322834646
        },
        {
          "duration": 0.20977222265624107,
          "durationTicks": 501,
          "midi": 76,
          "name": "E5",
          "ticks": 275968,
          "time": 120.75190599999999,
          "velocity": 0.8661417322834646
        },
        {
          "duration": 0.20977222265624107,
          "durationTicks": 501,
          "midi": 79,
          "name": "G5",
          "ticks": 275968,
          "time": 120.75190599999999,
          "velocity": 0.8661417322834646
        },
        {
          "duration": 0.20977222265625528,
          "durationTicks": 501,
          "midi": 71,
          "name": "B4",
          "ticks": 276992,
          "time": 121.18066199999998,
          "velocity": 0.8661417322834646
        },
        {
          "duration": 0.20977222265625528,
          "durationTicks": 501,
          "midi": 74,
          "name": "D5",
          "ticks": 276992,
          "time": 121.18066199999998,
          "velocity": 0.8661417322834646
        },
        {
          "duration": 0.20977222265625528,
          "durationTicks": 501,
          "midi": 77,
          "name": "F5",
          "ticks": 276992,
          "time": 121.18066199999998,
          "velocity": 0.8661417322834646
        },
        {
          "duration": 0.20977222265624107,
          "durationTicks": 501,
          "midi": 70,
          "name": "A#4",
          "ticks": 278016,
          "time": 121.60941799999999,
          "velocity": 0.8661417322834646
        },
        {
          "duration": 0.20977222265624107,
          "durationTicks": 501,
          "midi": 73,
          "name": "C#5",
          "ticks": 278016,
          "time": 121.60941799999999,
          "velocity": 0.8661417322834646
        },
        {
          "duration": 0.20977222265624107,
          "durationTicks": 501,
          "midi": 76,
          "name": "E5",
          "ticks": 278016,
          "time": 121.60941799999999,
          "velocity": 0.8661417322834646
        },
        {
          "duration": 0.20977222265625528,
          "durationTicks": 501,
          "midi": 71,
          "name": "B4",
          "ticks": 278528,
          "time": 121.82379599999999,
          "velocity": 0.8661417322834646
        },
        {
          "duration": 0.20977222265625528,
          "durationTicks": 501,
          "midi": 74,
          "name": "D5",
          "ticks": 278528,
          "time": 121.82379599999999,
          "velocity": 0.8661417322834646
        },
        {
          "duration": 0.20977222265625528,
          "durationTicks": 501,
          "midi": 77,
          "name": "F5",
          "ticks": 278528,
          "time": 121.82379599999999,
          "velocity": 0.8661417322834646
        },
        {
          "duration": 0.20977222265625528,
          "durationTicks": 501,
          "midi": 74,
          "name": "D5",
          "ticks": 279040,
          "time": 122.03817399999998,
          "velocity": 0.8661417322834646
        },
        {
          "duration": 0.20977222265625528,
          "durationTicks": 501,
          "midi": 79,
          "name": "G5",
          "ticks": 279040,
          "time": 122.03817399999998,
          "velocity": 0.8661417322834646
        },
        {
          "duration": 0.20977222265625528,
          "durationTicks": 501,
          "midi": 83,
          "name": "B5",
          "ticks": 279040,
          "time": 122.03817399999998,
          "velocity": 0.8661417322834646
        },
        {
          "duration": 0.35715709765624126,
          "durationTicks": 853,
          "midi": 79,
          "name": "G5",
          "ticks": 279552,
          "time": 122.252552,
          "velocity": 0.8661417322834646
        },
        {
          "duration": 0.35715709765624126,
          "durationTicks": 853,
          "midi": 83,
          "name": "B5",
          "ticks": 279552,
          "time": 122.252552,
          "velocity": 0.8661417322834646
        },
        {
          "duration": 0.35715709765624126,
          "durationTicks": 853,
          "midi": 86,
          "name": "D6",
          "ticks": 279552,
          "time": 122.252552,
          "velocity": 0.8661417322834646
        },
        {
          "duration": 0.20977222265624107,
          "durationTicks": 501,
          "midi": 67,
          "name": "G4",
          "ticks": 281600,
          "time": 123.110064,
          "velocity": 0.8661417322834646
        },
        {
          "duration": 0.20977222265624107,
          "durationTicks": 501,
          "midi": 71,
          "name": "B4",
          "ticks": 282112,
          "time": 123.32444199999999,
          "velocity": 0.8661417322834646
        },
        {
          "duration": 0.3571570976562555,
          "durationTicks": 853,
          "midi": 69,
          "name": "A4",
          "ticks": 282624,
          "time": 123.53881999999999,
          "velocity": 0.8661417322834646
        },
        {
          "duration": 0.3571570976562555,
          "durationTicks": 853,
          "midi": 72,
          "name": "C5",
          "ticks": 282624,
          "time": 123.53881999999999,
          "velocity": 0.8661417322834646
        },
        {
          "duration": 0.3571570976562555,
          "durationTicks": 853,
          "midi": 76,
          "name": "E5",
          "ticks": 282624,
          "time": 123.53881999999999,
          "velocity": 0.8661417322834646
        },
        {
          "duration": 0.20977222265624107,
          "durationTicks": 501,
          "midi": 69,
          "name": "A4",
          "ticks": 284160,
          "time": 124.18195399999999,
          "velocity": 0.8661417322834646
        },
        {
          "duration": 0.20977222265624107,
          "durationTicks": 501,
          "midi": 74,
          "name": "D5",
          "ticks": 284160,
          "time": 124.18195399999999,
          "velocity": 0.8661417322834646
        },
        {
          "duration": 0.20977222265624107,
          "durationTicks": 501,
          "midi": 77,
          "name": "F5",
          "ticks": 284160,
          "time": 124.18195399999999,
          "velocity": 0.8661417322834646
        },
        {
          "duration": 0.20977222265625528,
          "durationTicks": 501,
          "midi": 69,
          "name": "A4",
          "ticks": 285184,
          "time": 124.61070999999998,
          "velocity": 0.8661417322834646
        },
        {
          "duration": 0.20977222265625528,
          "durationTicks": 501,
          "midi": 72,
          "name": "C5",
          "ticks": 285184,
          "time": 124.61070999999998,
          "velocity": 0.8661417322834646
        },
        {
          "duration": 0.20977222265625528,
          "durationTicks": 501,
          "midi": 76,
          "name": "E5",
          "ticks": 285184,
          "time": 124.61070999999998,
          "velocity": 0.8661417322834646
        },
        {
          "duration": 0.20977222265624107,
          "durationTicks": 501,
          "midi": 68,
          "name": "G#4",
          "ticks": 286208,
          "time": 125.03946599999999,
          "velocity": 0.8661417322834646
        },
        {
          "duration": 0.20977222265624107,
          "durationTicks": 501,
          "midi": 71,
          "name": "B4",
          "ticks": 286208,
          "time": 125.03946599999999,
          "velocity": 0.8661417322834646
        },
        {
          "duration": 0.20977222265624107,
          "durationTicks": 501,
          "midi": 75,
          "name": "D#5",
          "ticks": 286208,
          "time": 125.03946599999999,
          "velocity": 0.8661417322834646
        },
        {
          "duration": 0.20977222265625528,
          "durationTicks": 501,
          "midi": 69,
          "name": "A4",
          "ticks": 286720,
          "time": 125.25384399999999,
          "velocity": 0.8661417322834646
        },
        {
          "duration": 0.20977222265625528,
          "durationTicks": 501,
          "midi": 72,
          "name": "C5",
          "ticks": 286720,
          "time": 125.25384399999999,
          "velocity": 0.8661417322834646
        },
        {
          "duration": 0.20977222265625528,
          "durationTicks": 501,
          "midi": 76,
          "name": "E5",
          "ticks": 286720,
          "time": 125.25384399999999,
          "velocity": 0.8661417322834646
        },
        {
          "duration": 0.20977222265625528,
          "durationTicks": 501,
          "midi": 72,
          "name": "C5",
          "ticks": 287232,
          "time": 125.46822199999998,
          "velocity": 0.8661417322834646
        },
        {
          "duration": 0.20977222265625528,
          "durationTicks": 501,
          "midi": 76,
          "name": "E5",
          "ticks": 287232,
          "time": 125.46822199999998,
          "velocity": 0.8661417322834646
        },
        {
          "duration": 0.20977222265625528,
          "durationTicks": 501,
          "midi": 81,
          "name": "A5",
          "ticks": 287232,
          "time": 125.46822199999998,
          "velocity": 0.8661417322834646
        },
        {
          "duration": 0.35715709765624126,
          "durationTicks": 853,
          "midi": 76,
          "name": "E5",
          "ticks": 287744,
          "time": 125.6826,
          "velocity": 0.8661417322834646
        },
        {
          "duration": 0.35715709765624126,
          "durationTicks": 853,
          "midi": 81,
          "name": "A5",
          "ticks": 287744,
          "time": 125.6826,
          "velocity": 0.8661417322834646
        },
        {
          "duration": 0.35715709765624126,
          "durationTicks": 853,
          "midi": 84,
          "name": "C6",
          "ticks": 287744,
          "time": 125.6826,
          "velocity": 0.8661417322834646
        },
        {
          "duration": 0.20977222265625528,
          "durationTicks": 501,
          "midi": 72,
          "name": "C5",
          "ticks": 289280,
          "time": 126.32573399999998,
          "velocity": 0.8661417322834646
        },
        {
          "duration": 0.20977222265625528,
          "durationTicks": 501,
          "midi": 76,
          "name": "E5",
          "ticks": 289280,
          "time": 126.32573399999998,
          "velocity": 0.8661417322834646
        },
        {
          "duration": 0.20977222265625528,
          "durationTicks": 501,
          "midi": 81,
          "name": "A5",
          "ticks": 289280,
          "time": 126.32573399999998,
          "velocity": 0.8661417322834646
        },
        {
          "duration": 0.20977222265624107,
          "durationTicks": 501,
          "midi": 74,
          "name": "D5",
          "ticks": 289792,
          "time": 126.540112,
          "velocity": 0.8661417322834646
        },
        {
          "duration": 0.20977222265624107,
          "durationTicks": 501,
          "midi": 78,
          "name": "F#5",
          "ticks": 289792,
          "time": 126.540112,
          "velocity": 0.8661417322834646
        },
        {
          "duration": 0.20977222265624107,
          "durationTicks": 501,
          "midi": 83,
          "name": "B5",
          "ticks": 289792,
          "time": 126.540112,
          "velocity": 0.8661417322834646
        },
        {
          "duration": 0.20977222265624107,
          "durationTicks": 501,
          "midi": 69,
          "name": "A4",
          "ticks": 290304,
          "time": 126.75448999999999,
          "velocity": 0.8661417322834646
        },
        {
          "duration": 0.20977222265624107,
          "durationTicks": 501,
          "midi": 76,
          "name": "E5",
          "ticks": 290304,
          "time": 126.75448999999999,
          "velocity": 0.8661417322834646
        },
        {
          "duration": 0.20977222265624107,
          "durationTicks": 501,
          "midi": 81,
          "name": "A5",
          "ticks": 290304,
          "time": 126.75448999999999,
          "velocity": 0.8661417322834646
        },
        {
          "duration": 0.20977222265624107,
          "durationTicks": 501,
          "midi": 84,
          "name": "C6",
          "ticks": 290304,
          "time": 126.75448999999999,
          "velocity": 0.8661417322834646
        },
        {
          "duration": 0.20977222265625528,
          "durationTicks": 501,
          "midi": 78,
          "name": "F#5",
          "ticks": 290816,
          "time": 126.96886799999999,
          "velocity": 0.8661417322834646
        },
        {
          "duration": 0.20977222265625528,
          "durationTicks": 501,
          "midi": 83,
          "name": "B5",
          "ticks": 290816,
          "time": 126.96886799999999,
          "velocity": 0.8661417322834646
        },
        {
          "duration": 0.20977222265625528,
          "durationTicks": 501,
          "midi": 86,
          "name": "D6",
          "ticks": 290816,
          "time": 126.96886799999999,
          "velocity": 0.8661417322834646
        },
        {
          "duration": 0.20977222265625528,
          "durationTicks": 501,
          "midi": 78,
          "name": "F#5",
          "ticks": 291328,
          "time": 127.18324599999998,
          "velocity": 0.8661417322834646
        },
        {
          "duration": 0.20977222265625528,
          "durationTicks": 501,
          "midi": 81,
          "name": "A5",
          "ticks": 291328,
          "time": 127.18324599999998,
          "velocity": 0.8661417322834646
        },
        {
          "duration": 0.20977222265625528,
          "durationTicks": 501,
          "midi": 84,
          "name": "C6",
          "ticks": 291328,
          "time": 127.18324599999998,
          "velocity": 0.8661417322834646
        },
        {
          "duration": 0.20977222265624107,
          "durationTicks": 501,
          "midi": 78,
          "name": "F#5",
          "ticks": 291840,
          "time": 127.397624,
          "velocity": 0.8661417322834646
        },
        {
          "duration": 0.20977222265624107,
          "durationTicks": 501,
          "midi": 83,
          "name": "B5",
          "ticks": 291840,
          "time": 127.397624,
          "velocity": 0.8661417322834646
        },
        {
          "duration": 0.20977222265624107,
          "durationTicks": 501,
          "midi": 86,
          "name": "D6",
          "ticks": 291840,
          "time": 127.397624,
          "velocity": 0.8661417322834646
        },
        {
          "duration": 0.4241502226562375,
          "durationTicks": 1013,
          "midi": 78,
          "name": "F#5",
          "ticks": 292352,
          "time": 127.61200199999999,
          "velocity": 0.8661417322834646
        },
        {
          "duration": 0.4241502226562375,
          "durationTicks": 1013,
          "midi": 81,
          "name": "A5",
          "ticks": 292352,
          "time": 127.61200199999999,
          "velocity": 0.8661417322834646
        },
        {
          "duration": 0.4241502226562375,
          "durationTicks": 1013,
          "midi": 84,
          "name": "C6",
          "ticks": 292352,
          "time": 127.61200199999999,
          "velocity": 0.8661417322834646
        },
        {
          "duration": 0.20977222265625528,
          "durationTicks": 501,
          "midi": 74,
          "name": "D5",
          "ticks": 293376,
          "time": 128.04075799999998,
          "velocity": 0.8661417322834646
        },
        {
          "duration": 0.20977222265625528,
          "durationTicks": 501,
          "midi": 78,
          "name": "F#5",
          "ticks": 293376,
          "time": 128.04075799999998,
          "velocity": 0.8661417322834646
        },
        {
          "duration": 0.20977222265625528,
          "durationTicks": 501,
          "midi": 81,
          "name": "A5",
          "ticks": 293376,
          "time": 128.04075799999998,
          "velocity": 0.8661417322834646
        },
        {
          "duration": 0.20977222265625528,
          "durationTicks": 501,
          "midi": 72,
          "name": "C5",
          "ticks": 293888,
          "time": 128.255136,
          "velocity": 0.8661417322834646
        },
        {
          "duration": 0.20977222265625528,
          "durationTicks": 501,
          "midi": 74,
          "name": "D5",
          "ticks": 293888,
          "time": 128.255136,
          "velocity": 0.8661417322834646
        },
        {
          "duration": 0.20977222265625528,
          "durationTicks": 501,
          "midi": 78,
          "name": "F#5",
          "ticks": 293888,
          "time": 128.255136,
          "velocity": 0.8661417322834646
        },
        {
          "duration": 0.20977222265625528,
          "durationTicks": 501,
          "midi": 69,
          "name": "A4",
          "ticks": 294400,
          "time": 128.46951399999998,
          "velocity": 0.8661417322834646
        },
        {
          "duration": 0.20977222265625528,
          "durationTicks": 501,
          "midi": 72,
          "name": "C5",
          "ticks": 294400,
          "time": 128.46951399999998,
          "velocity": 0.8661417322834646
        },
        {
          "duration": 0.20977222265625528,
          "durationTicks": 501,
          "midi": 74,
          "name": "D5",
          "ticks": 294400,
          "time": 128.46951399999998,
          "velocity": 0.8661417322834646
        },
        {
          "duration": 0.20977222265625528,
          "durationTicks": 501,
          "midi": 69,
          "name": "A4",
          "ticks": 294912,
          "time": 128.683892,
          "velocity": 0.8661417322834646
        },
        {
          "duration": 0.20977222265625528,
          "durationTicks": 501,
          "midi": 72,
          "name": "C5",
          "ticks": 294912,
          "time": 128.683892,
          "velocity": 0.8661417322834646
        },
        {
          "duration": 0.20977222265625528,
          "durationTicks": 501,
          "midi": 69,
          "name": "A4",
          "ticks": 295424,
          "time": 128.89827,
          "velocity": 0.8661417322834646
        },
        {
          "duration": 0.20977222265625528,
          "durationTicks": 501,
          "midi": 57,
          "name": "A3",
          "ticks": 300544,
          "time": 131.04205,
          "velocity": 0.8661417322834646
        },
        {
          "duration": 0.20977222265625528,
          "durationTicks": 501,
          "midi": 59,
          "name": "B3",
          "ticks": 301568,
          "time": 131.47080599999998,
          "velocity": 0.8661417322834646
        },
        {
          "duration": 0.20977222265625528,
          "durationTicks": 501,
          "midi": 62,
          "name": "D4",
          "ticks": 302592,
          "time": 131.89956199999997,
          "velocity": 0.8661417322834646
        },
        {
          "duration": 0.3571570976562555,
          "durationTicks": 853,
          "midi": 67,
          "name": "G4",
          "ticks": 303104,
          "time": 132.11393999999999,
          "velocity": 0.8661417322834646
        },
        {
          "duration": 0.20977222265625528,
          "durationTicks": 501,
          "midi": 74,
          "name": "D5",
          "ticks": 304640,
          "time": 132.757074,
          "velocity": 0.8661417322834646
        },
        {
          "duration": 0.20977222265625528,
          "durationTicks": 501,
          "midi": 79,
          "name": "G5",
          "ticks": 304640,
          "time": 132.757074,
          "velocity": 0.8661417322834646
        },
        {
          "duration": 0.20977222265625528,
          "durationTicks": 501,
          "midi": 57,
          "name": "A3",
          "ticks": 308736,
          "time": 134.472098,
          "velocity": 0.8661417322834646
        },
        {
          "duration": 0.20977222265625528,
          "durationTicks": 501,
          "midi": 59,
          "name": "B3",
          "ticks": 309760,
          "time": 134.90085399999998,
          "velocity": 0.8661417322834646
        },
        {
          "duration": 0.20977222265625528,
          "durationTicks": 501,
          "midi": 62,
          "name": "D4",
          "ticks": 310784,
          "time": 135.32960999999997,
          "velocity": 0.8661417322834646
        },
        {
          "duration": 0.3571570976562555,
          "durationTicks": 853,
          "midi": 67,
          "name": "G4",
          "ticks": 311296,
          "time": 135.54398799999998,
          "velocity": 0.8661417322834646
        },
        {
          "duration": 0.20977222265625528,
          "durationTicks": 501,
          "midi": 74,
          "name": "D5",
          "ticks": 312832,
          "time": 136.187122,
          "velocity": 0.8661417322834646
        },
        {
          "duration": 0.20977222265625528,
          "durationTicks": 501,
          "midi": 79,
          "name": "G5",
          "ticks": 312832,
          "time": 136.187122,
          "velocity": 0.8661417322834646
        },
        {
          "duration": 0.20977222265625528,
          "durationTicks": 501,
          "midi": 57,
          "name": "A3",
          "ticks": 316928,
          "time": 137.902146,
          "velocity": 0.8661417322834646
        },
        {
          "duration": 0.20977222265625528,
          "durationTicks": 501,
          "midi": 59,
          "name": "B3",
          "ticks": 317952,
          "time": 138.33090199999998,
          "velocity": 0.8661417322834646
        },
        {
          "duration": 0.20977222265625528,
          "durationTicks": 501,
          "midi": 62,
          "name": "D4",
          "ticks": 318976,
          "time": 138.75965799999997,
          "velocity": 0.8661417322834646
        },
        {
          "duration": 0.3571570976562555,
          "durationTicks": 853,
          "midi": 67,
          "name": "G4",
          "ticks": 319488,
          "time": 138.97403599999998,
          "velocity": 0.8661417322834646
        },
        {
          "duration": 0.20977222265625528,
          "durationTicks": 501,
          "midi": 74,
          "name": "D5",
          "ticks": 321024,
          "time": 139.61717,
          "velocity": 0.8661417322834646
        },
        {
          "duration": 0.20977222265625528,
          "durationTicks": 501,
          "midi": 79,
          "name": "G5",
          "ticks": 321024,
          "time": 139.61717,
          "velocity": 0.8661417322834646
        },
        {
          "duration": 0.20977222265625528,
          "durationTicks": 501,
          "midi": 57,
          "name": "A3",
          "ticks": 325120,
          "time": 141.332194,
          "velocity": 0.8661417322834646
        },
        {
          "duration": 0.20977222265625528,
          "durationTicks": 501,
          "midi": 59,
          "name": "B3",
          "ticks": 326144,
          "time": 141.76094999999998,
          "velocity": 0.8661417322834646
        },
        {
          "duration": 0.20977222265625528,
          "durationTicks": 501,
          "midi": 62,
          "name": "D4",
          "ticks": 327168,
          "time": 142.18970599999997,
          "velocity": 0.8661417322834646
        },
        {
          "duration": 0.3571570976562555,
          "durationTicks": 853,
          "midi": 67,
          "name": "G4",
          "ticks": 327680,
          "time": 142.40408399999998,
          "velocity": 0.8661417322834646
        },
        {
          "duration": 0.20977222265625528,
          "durationTicks": 501,
          "midi": 74,
          "name": "D5",
          "ticks": 329216,
          "time": 143.047218,
          "velocity": 0.8661417322834646
        },
        {
          "duration": 0.20977222265625528,
          "durationTicks": 501,
          "midi": 79,
          "name": "G5",
          "ticks": 329216,
          "time": 143.047218,
          "velocity": 0.8661417322834646
        },
        {
          "duration": 0.20977222265625528,
          "durationTicks": 501,
          "midi": 57,
          "name": "A3",
          "ticks": 333312,
          "time": 144.762242,
          "velocity": 0.8661417322834646
        },
        {
          "duration": 0.20977222265625528,
          "durationTicks": 501,
          "midi": 58,
          "name": "A#3",
          "ticks": 334336,
          "time": 145.19099799999998,
          "velocity": 0.8661417322834646
        },
        {
          "duration": 0.20977222265625528,
          "durationTicks": 501,
          "midi": 62,
          "name": "D4",
          "ticks": 335360,
          "time": 145.61975399999997,
          "velocity": 0.8661417322834646
        },
        {
          "duration": 0.3571570976562555,
          "durationTicks": 853,
          "midi": 67,
          "name": "G4",
          "ticks": 335872,
          "time": 145.83413199999998,
          "velocity": 0.8661417322834646
        },
        {
          "duration": 0.20977222265625528,
          "durationTicks": 501,
          "midi": 74,
          "name": "D5",
          "ticks": 337408,
          "time": 146.477266,
          "velocity": 0.8661417322834646
        },
        {
          "duration": 0.20977222265625528,
          "durationTicks": 501,
          "midi": 79,
          "name": "G5",
          "ticks": 337408,
          "time": 146.477266,
          "velocity": 0.8661417322834646
        },
        {
          "duration": 0.20977222265625528,
          "durationTicks": 501,
          "midi": 57,
          "name": "A3",
          "ticks": 341504,
          "time": 148.19228999999999,
          "velocity": 0.8661417322834646
        },
        {
          "duration": 0.20977222265625528,
          "durationTicks": 501,
          "midi": 58,
          "name": "A#3",
          "ticks": 342528,
          "time": 148.62104599999998,
          "velocity": 0.8661417322834646
        },
        {
          "duration": 0.20977222265622686,
          "durationTicks": 501,
          "midi": 62,
          "name": "D4",
          "ticks": 343552,
          "time": 149.049802,
          "velocity": 0.8661417322834646
        },
        {
          "duration": 0.3571570976562555,
          "durationTicks": 853,
          "midi": 67,
          "name": "G4",
          "ticks": 344064,
          "time": 149.26417999999998,
          "velocity": 0.8661417322834646
        },
        {
          "duration": 0.20977222265625528,
          "durationTicks": 501,
          "midi": 74,
          "name": "D5",
          "ticks": 345600,
          "time": 149.90731399999999,
          "velocity": 0.8661417322834646
        },
        {
          "duration": 0.20977222265625528,
          "durationTicks": 501,
          "midi": 79,
          "name": "G5",
          "ticks": 345600,
          "time": 149.90731399999999,
          "velocity": 0.8661417322834646
        },
        {
          "duration": 0.20977222265622686,
          "durationTicks": 501,
          "midi": 62,
          "name": "D4",
          "ticks": 348672,
          "time": 151.193582,
          "velocity": 0.8661417322834646
        },
        {
          "duration": 0.20977222265625528,
          "durationTicks": 501,
          "midi": 67,
          "name": "G4",
          "ticks": 349184,
          "time": 151.40795999999997,
          "velocity": 0.8661417322834646
        },
        {
          "duration": 0.20977222265625528,
          "durationTicks": 501,
          "midi": 69,
          "name": "A4",
          "ticks": 349696,
          "time": 151.62233799999998,
          "velocity": 0.8661417322834646
        },
        {
          "duration": 0.20977222265622686,
          "durationTicks": 501,
          "midi": 71,
          "name": "B4",
          "ticks": 350208,
          "time": 151.836716,
          "velocity": 0.8661417322834646
        },
        {
          "duration": 0.20977222265625528,
          "durationTicks": 501,
          "midi": 72,
          "name": "C5",
          "ticks": 350720,
          "time": 152.05109399999998,
          "velocity": 0.8661417322834646
        },
        {
          "duration": 0.20977222265625528,
          "durationTicks": 501,
          "midi": 71,
          "name": "B4",
          "ticks": 351232,
          "time": 152.265472,
          "velocity": 0.8661417322834646
        },
        {
          "duration": 0.20977222265622686,
          "durationTicks": 501,
          "midi": 69,
          "name": "A4",
          "ticks": 351744,
          "time": 152.47985,
          "velocity": 0.8661417322834646
        },
        {
          "duration": 0.3571570976562555,
          "durationTicks": 853,
          "midi": 67,
          "name": "G4",
          "ticks": 352256,
          "time": 152.69422799999998,
          "velocity": 0.8661417322834646
        },
        {
          "duration": 0.3571570976562555,
          "durationTicks": 853,
          "midi": 62,
          "name": "D4",
          "ticks": 353280,
          "time": 153.12298399999997,
          "velocity": 0.8661417322834646
        },
        {
          "duration": 0.35715709765622705,
          "durationTicks": 853,
          "midi": 60,
          "name": "C4",
          "ticks": 354304,
          "time": 153.55174,
          "velocity": 0.8661417322834646
        },
        {
          "duration": 0.3571570976562555,
          "durationTicks": 853,
          "midi": 67,
          "name": "G4",
          "ticks": 355328,
          "time": 153.980496,
          "velocity": 0.8661417322834646
        },
        {
          "duration": 0.3571570976562555,
          "durationTicks": 853,
          "midi": 62,
          "name": "D4",
          "ticks": 356352,
          "time": 154.40925199999998,
          "velocity": 0.8661417322834646
        },
        {
          "duration": 0.20977222265625528,
          "durationTicks": 501,
          "midi": 55,
          "name": "G3",
          "ticks": 357888,
          "time": 155.05238599999998,
          "velocity": 0.8661417322834646
        },
        {
          "duration": 0.20977222265622686,
          "durationTicks": 501,
          "midi": 55,
          "name": "G3",
          "ticks": 359936,
          "time": 155.909898,
          "velocity": 0.8661417322834646
        },
        {
          "duration": 0.20977222265625528,
          "durationTicks": 501,
          "midi": 60,
          "name": "C4",
          "ticks": 363008,
          "time": 157.19616599999998,
          "velocity": 0.8661417322834646
        },
        {
          "duration": 0.20977222265625528,
          "durationTicks": 501,
          "midi": 60,
          "name": "C4",
          "ticks": 364032,
          "time": 157.62492199999997,
          "velocity": 0.8661417322834646
        },
        {
          "duration": 0.20977222265625528,
          "durationTicks": 501,
          "midi": 59,
          "name": "B3",
          "ticks": 364544,
          "time": 157.83929999999998,
          "velocity": 0.8661417322834646
        },
        {
          "duration": 0.20977222265625528,
          "durationTicks": 501,
          "midi": 62,
          "name": "D4",
          "ticks": 365056,
          "time": 158.053678,
          "velocity": 0.8661417322834646
        },
        {
          "duration": 0.3571570976562555,
          "durationTicks": 853,
          "midi": 67,
          "name": "G4",
          "ticks": 365568,
          "time": 158.26805599999997,
          "velocity": 0.8661417322834646
        },
        {
          "duration": 0.20977222265625528,
          "durationTicks": 501,
          "midi": 57,
          "name": "A3",
          "ticks": 367104,
          "time": 158.91118999999998,
          "velocity": 0.8661417322834646
        },
        {
          "duration": 0.20977222265622686,
          "durationTicks": 501,
          "midi": 59,
          "name": "B3",
          "ticks": 368128,
          "time": 159.339946,
          "velocity": 0.8661417322834646
        },
        {
          "duration": 0.20977222265625528,
          "durationTicks": 501,
          "midi": 62,
          "name": "D4",
          "ticks": 370176,
          "time": 160.19745799999998,
          "velocity": 0.8661417322834646
        },
        {
          "duration": 0.20977222265625528,
          "durationTicks": 501,
          "midi": 67,
          "name": "G4",
          "ticks": 371200,
          "time": 160.62621399999998,
          "velocity": 0.8661417322834646
        },
        {
          "duration": 0.20977222265625528,
          "durationTicks": 501,
          "midi": 62,
          "name": "D4",
          "ticks": 373248,
          "time": 161.483726,
          "velocity": 0.8661417322834646
        },
        {
          "duration": 0.20977222265625528,
          "durationTicks": 501,
          "midi": 67,
          "name": "G4",
          "ticks": 373760,
          "time": 161.69810399999997,
          "velocity": 0.8661417322834646
        },
        {
          "duration": 0.20977222265625528,
          "durationTicks": 501,
          "midi": 69,
          "name": "A4",
          "ticks": 374272,
          "time": 161.91248199999998,
          "velocity": 0.8661417322834646
        },
        {
          "duration": 0.20977222265625528,
          "durationTicks": 501,
          "midi": 71,
          "name": "B4",
          "ticks": 374784,
          "time": 162.12686,
          "velocity": 0.8661417322834646
        },
        {
          "duration": 0.20977222265625528,
          "durationTicks": 501,
          "midi": 72,
          "name": "C5",
          "ticks": 375296,
          "time": 162.34123799999998,
          "velocity": 0.8661417322834646
        },
        {
          "duration": 0.20977222265625528,
          "durationTicks": 501,
          "midi": 71,
          "name": "B4",
          "ticks": 375808,
          "time": 162.555616,
          "velocity": 0.8661417322834646
        },
        {
          "duration": 0.20977222265622686,
          "durationTicks": 501,
          "midi": 69,
          "name": "A4",
          "ticks": 376320,
          "time": 162.769994,
          "velocity": 0.8661417322834646
        },
        {
          "duration": 0.3571570976562555,
          "durationTicks": 853,
          "midi": 67,
          "name": "G4",
          "ticks": 376832,
          "time": 162.98437199999998,
          "velocity": 0.8661417322834646
        },
        {
          "duration": 0.3571570976562555,
          "durationTicks": 853,
          "midi": 62,
          "name": "D4",
          "ticks": 377856,
          "time": 163.41312799999997,
          "velocity": 0.8661417322834646
        },
        {
          "duration": 0.35715709765622705,
          "durationTicks": 853,
          "midi": 60,
          "name": "C4",
          "ticks": 378880,
          "time": 163.841884,
          "velocity": 0.8661417322834646
        },
        {
          "duration": 0.3571570976562555,
          "durationTicks": 853,
          "midi": 67,
          "name": "G4",
          "ticks": 379904,
          "time": 164.27064,
          "velocity": 0.8661417322834646
        },
        {
          "duration": 0.3571570976562555,
          "durationTicks": 853,
          "midi": 62,
          "name": "D4",
          "ticks": 380928,
          "time": 164.69939599999998,
          "velocity": 0.8661417322834646
        },
        {
          "duration": 0.20977222265625528,
          "durationTicks": 501,
          "midi": 55,
          "name": "G3",
          "ticks": 382464,
          "time": 165.34252999999998,
          "velocity": 0.8661417322834646
        },
        {
          "duration": 0.20977222265625528,
          "durationTicks": 501,
          "midi": 55,
          "name": "G3",
          "ticks": 383488,
          "time": 165.77128599999998,
          "velocity": 0.8661417322834646
        },
        {
          "duration": 0.20977222265622686,
          "durationTicks": 501,
          "midi": 55,
          "name": "G3",
          "ticks": 384512,
          "time": 166.200042,
          "velocity": 0.8661417322834646
        },
        {
          "duration": 0.20977222265625528,
          "durationTicks": 501,
          "midi": 60,
          "name": "C4",
          "ticks": 386560,
          "time": 167.05755399999998,
          "velocity": 0.8661417322834646
        },
        {
          "duration": 0.20977222265625528,
          "durationTicks": 501,
          "midi": 60,
          "name": "C4",
          "ticks": 387584,
          "time": 167.48630999999997,
          "velocity": 0.8661417322834646
        },
        {
          "duration": 0.20977222265625528,
          "durationTicks": 501,
          "midi": 60,
          "name": "C4",
          "ticks": 388608,
          "time": 167.91506599999997,
          "velocity": 0.8661417322834646
        },
        {
          "duration": 0.20977222265625528,
          "durationTicks": 501,
          "midi": 59,
          "name": "B3",
          "ticks": 389120,
          "time": 168.12944399999998,
          "velocity": 0.8661417322834646
        },
        {
          "duration": 0.20977222265622686,
          "durationTicks": 501,
          "midi": 62,
          "name": "D4",
          "ticks": 389632,
          "time": 168.343822,
          "velocity": 0.8661417322834646
        },
        {
          "duration": 0.35715709765622705,
          "durationTicks": 853,
          "midi": 67,
          "name": "G4",
          "ticks": 390144,
          "time": 168.5582,
          "velocity": 0.8661417322834646
        },
        {
          "duration": 0.20977222265625528,
          "durationTicks": 501,
          "midi": 57,
          "name": "A3",
          "ticks": 391680,
          "time": 169.20133399999997,
          "velocity": 0.8661417322834646
        },
        {
          "duration": 0.20977222265622686,
          "durationTicks": 501,
          "midi": 59,
          "name": "B3",
          "ticks": 392704,
          "time": 169.63009,
          "velocity": 0.8661417322834646
        },
        {
          "duration": 0.20977222265625528,
          "durationTicks": 501,
          "midi": 59,
          "name": "B3",
          "ticks": 394752,
          "time": 170.48760199999998,
          "velocity": 0.8661417322834646
        },
        {
          "duration": 0.20977222265625528,
          "durationTicks": 501,
          "midi": 67,
          "name": "G4",
          "ticks": 398848,
          "time": 172.20262599999998,
          "velocity": 0.8661417322834646
        },
        {
          "duration": 0.20977222265625528,
          "durationTicks": 501,
          "midi": 76,
          "name": "E5",
          "ticks": 399360,
          "time": 172.417004,
          "velocity": 0.8661417322834646
        },
        {
          "duration": 0.20977222265625528,
          "durationTicks": 501,
          "midi": 74,
          "name": "D5",
          "ticks": 399872,
          "time": 172.63138199999997,
          "velocity": 0.8661417322834646
        },
        {
          "duration": 0.20977222265625528,
          "durationTicks": 501,
          "midi": 72,
          "name": "C5",
          "ticks": 400384,
          "time": 172.84575999999998,
          "velocity": 0.8661417322834646
        },
        {
          "duration": 0.20977222265622686,
          "durationTicks": 501,
          "midi": 76,
          "name": "E5",
          "ticks": 400896,
          "time": 173.060138,
          "velocity": 0.8661417322834646
        },
        {
          "duration": 0.3571570976562555,
          "durationTicks": 853,
          "midi": 74,
          "name": "D5",
          "ticks": 401408,
          "time": 173.27451599999998,
          "velocity": 0.8661417322834646
        },
        {
          "duration": 0.20977222265625528,
          "durationTicks": 501,
          "midi": 67,
          "name": "G4",
          "ticks": 402944,
          "time": 173.91764999999998,
          "velocity": 0.8661417322834646
        },
        {
          "duration": 0.20977222265625528,
          "durationTicks": 501,
          "midi": 64,
          "name": "E4",
          "ticks": 407040,
          "time": 175.63267399999998,
          "velocity": 0.8661417322834646
        },
        {
          "duration": 0.20977222265625528,
          "durationTicks": 501,
          "midi": 74,
          "name": "D5",
          "ticks": 407552,
          "time": 175.847052,
          "velocity": 0.8661417322834646
        },
        {
          "duration": 0.20977222265625528,
          "durationTicks": 501,
          "midi": 72,
          "name": "C5",
          "ticks": 408064,
          "time": 176.06142999999997,
          "velocity": 0.8661417322834646
        },
        {
          "duration": 0.20977222265625528,
          "durationTicks": 501,
          "midi": 71,
          "name": "B4",
          "ticks": 408576,
          "time": 176.27580799999998,
          "velocity": 0.8661417322834646
        },
        {
          "duration": 0.20977222265622686,
          "durationTicks": 501,
          "midi": 72,
          "name": "C5",
          "ticks": 409088,
          "time": 176.490186,
          "velocity": 0.8661417322834646
        },
        {
          "duration": 0.3571570976562555,
          "durationTicks": 853,
          "midi": 71,
          "name": "B4",
          "ticks": 409600,
          "time": 176.70456399999998,
          "velocity": 0.8661417322834646
        },
        {
          "duration": 0.20977222265625528,
          "durationTicks": 501,
          "midi": 67,
          "name": "G4",
          "ticks": 411136,
          "time": 177.34769799999998,
          "velocity": 0.8661417322834646
        },
        {
          "duration": 0.20977222265625528,
          "durationTicks": 501,
          "midi": 67,
          "name": "G4",
          "ticks": 415232,
          "time": 179.06272199999998,
          "velocity": 0.8661417322834646
        },
        {
          "duration": 0.20977222265625528,
          "durationTicks": 501,
          "midi": 76,
          "name": "E5",
          "ticks": 415744,
          "time": 179.2771,
          "velocity": 0.8661417322834646
        },
        {
          "duration": 0.20977222265625528,
          "durationTicks": 501,
          "midi": 74,
          "name": "D5",
          "ticks": 416256,
          "time": 179.49147799999997,
          "velocity": 0.8661417322834646
        },
        {
          "duration": 0.20977222265625528,
          "durationTicks": 501,
          "midi": 72,
          "name": "C5",
          "ticks": 416768,
          "time": 179.70585599999998,
          "velocity": 0.8661417322834646
        },
        {
          "duration": 0.20977222265622686,
          "durationTicks": 501,
          "midi": 76,
          "name": "E5",
          "ticks": 417280,
          "time": 179.920234,
          "velocity": 0.8661417322834646
        },
        {
          "duration": 0.3571570976562555,
          "durationTicks": 853,
          "midi": 74,
          "name": "D5",
          "ticks": 417792,
          "time": 180.13461199999998,
          "velocity": 0.8661417322834646
        },
        {
          "duration": 0.20977222265625528,
          "durationTicks": 501,
          "midi": 67,
          "name": "G4",
          "ticks": 419328,
          "time": 180.77774599999998,
          "velocity": 0.8661417322834646
        },
        {
          "duration": 0.20977222265625528,
          "durationTicks": 501,
          "midi": 72,
          "name": "C5",
          "ticks": 423936,
          "time": 182.707148,
          "velocity": 0.8661417322834646
        },
        {
          "duration": 0.20977222265625528,
          "durationTicks": 501,
          "midi": 74,
          "name": "D5",
          "ticks": 424448,
          "time": 182.92152599999997,
          "velocity": 0.8661417322834646
        },
        {
          "duration": 0.20977222265625528,
          "durationTicks": 501,
          "midi": 72,
          "name": "C5",
          "ticks": 424960,
          "time": 183.13590399999998,
          "velocity": 0.8661417322834646
        },
        {
          "duration": 0.20977222265622686,
          "durationTicks": 501,
          "midi": 71,
          "name": "B4",
          "ticks": 425472,
          "time": 183.350282,
          "velocity": 0.8661417322834646
        },
        {
          "duration": 0.3571570976562555,
          "durationTicks": 853,
          "midi": 67,
          "name": "G4",
          "ticks": 427008,
          "time": 183.99341599999997,
          "velocity": 0.8661417322834646
        },
        {
          "duration": 0.35715709765622705,
          "durationTicks": 853,
          "midi": 64,
          "name": "E4",
          "ticks": 428032,
          "time": 184.422172,
          "velocity": 0.8661417322834646
        },
        {
          "duration": 0.20977222265625528,
          "durationTicks": 501,
          "midi": 62,
          "name": "D4",
          "ticks": 430592,
          "time": 185.49406199999999,
          "velocity": 0.8661417322834646
        },
        {
          "duration": 0.20977222265622686,
          "durationTicks": 501,
          "midi": 67,
          "name": "G4",
          "ticks": 431104,
          "time": 185.70844,
          "velocity": 0.8661417322834646
        },
        {
          "duration": 0.20977222265625528,
          "durationTicks": 501,
          "midi": 69,
          "name": "A4",
          "ticks": 431616,
          "time": 185.92281799999998,
          "velocity": 0.8661417322834646
        },
        {
          "duration": 0.20977222265625528,
          "durationTicks": 501,
          "midi": 71,
          "name": "B4",
          "ticks": 432128,
          "time": 186.137196,
          "velocity": 0.8661417322834646
        },
        {
          "duration": 0.20977222265625528,
          "durationTicks": 501,
          "midi": 72,
          "name": "C5",
          "ticks": 432640,
          "time": 186.35157399999997,
          "velocity": 0.8661417322834646
        },
        {
          "duration": 0.20977222265625528,
          "durationTicks": 501,
          "midi": 71,
          "name": "B4",
          "ticks": 433152,
          "time": 186.56595199999998,
          "velocity": 0.8661417322834646
        },
        {
          "duration": 0.20977222265622686,
          "durationTicks": 501,
          "midi": 69,
          "name": "A4",
          "ticks": 433664,
          "time": 186.78033,
          "velocity": 0.8661417322834646
        },
        {
          "duration": 0.3571570976562555,
          "durationTicks": 853,
          "midi": 67,
          "name": "G4",
          "ticks": 434176,
          "time": 186.99470799999997,
          "velocity": 0.8661417322834646
        },
        {
          "duration": 0.3571570976562555,
          "durationTicks": 853,
          "midi": 62,
          "name": "D4",
          "ticks": 435200,
          "time": 187.42346399999997,
          "velocity": 0.8661417322834646
        },
        {
          "duration": 0.35715709765622705,
          "durationTicks": 853,
          "midi": 60,
          "name": "C4",
          "ticks": 436224,
          "time": 187.85222,
          "velocity": 0.8661417322834646
        },
        {
          "duration": 0.3571570976562555,
          "durationTicks": 853,
          "midi": 67,
          "name": "G4",
          "ticks": 437248,
          "time": 188.28097599999998,
          "velocity": 0.8661417322834646
        },
        {
          "duration": 0.3571570976562555,
          "durationTicks": 853,
          "midi": 62,
          "name": "D4",
          "ticks": 438272,
          "time": 188.70973199999997,
          "velocity": 0.8661417322834646
        },
        {
          "duration": 0.20977222265625528,
          "durationTicks": 501,
          "midi": 55,
          "name": "G3",
          "ticks": 439808,
          "time": 189.35286599999998,
          "velocity": 0.8661417322834646
        },
        {
          "duration": 0.20977222265622686,
          "durationTicks": 501,
          "midi": 55,
          "name": "G3",
          "ticks": 441856,
          "time": 190.210378,
          "velocity": 0.8661417322834646
        },
        {
          "duration": 0.20977222265625528,
          "durationTicks": 501,
          "midi": 60,
          "name": "C4",
          "ticks": 445952,
          "time": 191.925402,
          "velocity": 0.8661417322834646
        },
        {
          "duration": 0.20977222265625528,
          "durationTicks": 501,
          "midi": 59,
          "name": "B3",
          "ticks": 446464,
          "time": 192.13977999999997,
          "velocity": 0.8661417322834646
        },
        {
          "duration": 0.20977222265625528,
          "durationTicks": 501,
          "midi": 62,
          "name": "D4",
          "ticks": 446976,
          "time": 192.35415799999998,
          "velocity": 0.8661417322834646
        },
        {
          "duration": 0.35715709765622705,
          "durationTicks": 853,
          "midi": 67,
          "name": "G4",
          "ticks": 447488,
          "time": 192.568536,
          "velocity": 0.8661417322834646
        },
        {
          "duration": 0.20977222265625528,
          "durationTicks": 501,
          "midi": 57,
          "name": "A3",
          "ticks": 449024,
          "time": 193.21166999999997,
          "velocity": 0.8661417322834646
        },
        {
          "duration": 0.20977222265622686,
          "durationTicks": 501,
          "midi": 59,
          "name": "B3",
          "ticks": 450048,
          "time": 193.640426,
          "velocity": 0.8661417322834646
        },
        {
          "duration": 0.20977222265625528,
          "durationTicks": 501,
          "midi": 62,
          "name": "D4",
          "ticks": 452096,
          "time": 194.49793799999998,
          "velocity": 0.8661417322834646
        },
        {
          "duration": 0.20977222265622686,
          "durationTicks": 501,
          "midi": 62,
          "name": "D4",
          "ticks": 455168,
          "time": 195.78420599999998,
          "velocity": 0.8661417322834646
        },
        {
          "duration": 0.20977222265622686,
          "durationTicks": 501,
          "midi": 67,
          "name": "G4",
          "ticks": 455680,
          "time": 195.998584,
          "velocity": 0.8661417322834646
        },
        {
          "duration": 0.20977222265625528,
          "durationTicks": 501,
          "midi": 69,
          "name": "A4",
          "ticks": 456192,
          "time": 196.21296199999998,
          "velocity": 0.8661417322834646
        },
        {
          "duration": 0.20977222265625528,
          "durationTicks": 501,
          "midi": 71,
          "name": "B4",
          "ticks": 456704,
          "time": 196.42734,
          "velocity": 0.8661417322834646
        },
        {
          "duration": 0.20977222265625528,
          "durationTicks": 501,
          "midi": 72,
          "name": "C5",
          "ticks": 457216,
          "time": 196.64171799999997,
          "velocity": 0.8661417322834646
        },
        {
          "duration": 0.20977222265625528,
          "durationTicks": 501,
          "midi": 71,
          "name": "B4",
          "ticks": 457728,
          "time": 196.85609599999998,
          "velocity": 0.8661417322834646
        },
        {
          "duration": 0.20977222265622686,
          "durationTicks": 501,
          "midi": 69,
          "name": "A4",
          "ticks": 458240,
          "time": 197.070474,
          "velocity": 0.8661417322834646
        },
        {
          "duration": 0.35715709765622705,
          "durationTicks": 853,
          "midi": 67,
          "name": "G4",
          "ticks": 458752,
          "time": 197.284852,
          "velocity": 0.8661417322834646
        },
        {
          "duration": 0.3571570976562839,
          "durationTicks": 853,
          "midi": 62,
          "name": "D4",
          "ticks": 459776,
          "time": 197.71360799999997,
          "velocity": 0.8661417322834646
        },
        {
          "duration": 0.35715709765622705,
          "durationTicks": 853,
          "midi": 60,
          "name": "C4",
          "ticks": 460800,
          "time": 198.142364,
          "velocity": 0.8661417322834646
        },
        {
          "duration": 0.3571570976562555,
          "durationTicks": 853,
          "midi": 67,
          "name": "G4",
          "ticks": 461824,
          "time": 198.57111999999998,
          "velocity": 0.8661417322834646
        },
        {
          "duration": 0.3571570976562555,
          "durationTicks": 853,
          "midi": 62,
          "name": "D4",
          "ticks": 462848,
          "time": 198.99987599999997,
          "velocity": 0.8661417322834646
        },
        {
          "duration": 0.20977222265625528,
          "durationTicks": 501,
          "midi": 55,
          "name": "G3",
          "ticks": 464384,
          "time": 199.64300999999998,
          "velocity": 0.8661417322834646
        },
        {
          "duration": 0.2097722226562837,
          "durationTicks": 501,
          "midi": 60,
          "name": "C4",
          "ticks": 465408,
          "time": 200.07176599999997,
          "velocity": 0.8661417322834646
        },
        {
          "duration": 0.20977222265622686,
          "durationTicks": 501,
          "midi": 55,
          "name": "G3",
          "ticks": 466432,
          "time": 200.500522,
          "velocity": 0.8661417322834646
        },
        {
          "duration": 0.20977222265622686,
          "durationTicks": 501,
          "midi": 60,
          "name": "C4",
          "ticks": 469504,
          "time": 201.78679,
          "velocity": 0.8661417322834646
        },
        {
          "duration": 0.2097722226562837,
          "durationTicks": 501,
          "midi": 60,
          "name": "C4",
          "ticks": 470528,
          "time": 202.21554599999996,
          "velocity": 0.8661417322834646
        },
        {
          "duration": 0.20977222265625528,
          "durationTicks": 501,
          "midi": 59,
          "name": "B3",
          "ticks": 471040,
          "time": 202.42992399999997,
          "velocity": 0.8661417322834646
        },
        {
          "duration": 0.20977222265625528,
          "durationTicks": 501,
          "midi": 62,
          "name": "D4",
          "ticks": 471552,
          "time": 202.64430199999998,
          "velocity": 0.8661417322834646
        },
        {
          "duration": 0.35715709765622705,
          "durationTicks": 853,
          "midi": 67,
          "name": "G4",
          "ticks": 472064,
          "time": 202.85868,
          "velocity": 0.8661417322834646
        },
        {
          "duration": 0.2097722226562837,
          "durationTicks": 501,
          "midi": 57,
          "name": "A3",
          "ticks": 473600,
          "time": 203.50181399999997,
          "velocity": 0.8661417322834646
        },
        {
          "duration": 0.20977222265622686,
          "durationTicks": 501,
          "midi": 59,
          "name": "B3",
          "ticks": 474624,
          "time": 203.93057,
          "velocity": 0.8661417322834646
        },
        {
          "duration": 0.20977222265622686,
          "durationTicks": 501,
          "midi": 59,
          "name": "B3",
          "ticks": 477696,
          "time": 205.216838,
          "velocity": 0.8661417322834646
        },
        {
          "duration": 0.20977222265622686,
          "durationTicks": 501,
          "midi": 67,
          "name": "G4",
          "ticks": 477696,
          "time": 205.216838,
          "velocity": 0.8661417322834646
        },
        {
          "duration": 0.20977222265625528,
          "durationTicks": 501,
          "midi": 57,
          "name": "A3",
          "ticks": 480768,
          "time": 206.50310599999997,
          "velocity": 0.8661417322834646
        },
        {
          "duration": 0.20977222265625528,
          "durationTicks": 501,
          "midi": 65,
          "name": "F4",
          "ticks": 480768,
          "time": 206.50310599999997,
          "velocity": 0.8661417322834646
        },
        {
          "duration": 0.2097722226562837,
          "durationTicks": 501,
          "midi": 57,
          "name": "A3",
          "ticks": 481792,
          "time": 206.93186199999997,
          "velocity": 0.8661417322834646
        },
        {
          "duration": 0.2097722226562837,
          "durationTicks": 501,
          "midi": 65,
          "name": "F4",
          "ticks": 481792,
          "time": 206.93186199999997,
          "velocity": 0.8661417322834646
        },
        {
          "duration": 0.20977222265625528,
          "durationTicks": 501,
          "midi": 57,
          "name": "A3",
          "ticks": 482304,
          "time": 207.14623999999998,
          "velocity": 0.8661417322834646
        },
        {
          "duration": 0.20977222265625528,
          "durationTicks": 501,
          "midi": 65,
          "name": "F4",
          "ticks": 482304,
          "time": 207.14623999999998,
          "velocity": 0.8661417322834646
        },
        {
          "duration": 0.20977222265622686,
          "durationTicks": 501,
          "midi": 57,
          "name": "A3",
          "ticks": 482816,
          "time": 207.360618,
          "velocity": 0.8661417322834646
        },
        {
          "duration": 0.20977222265622686,
          "durationTicks": 501,
          "midi": 65,
          "name": "F4",
          "ticks": 482816,
          "time": 207.360618,
          "velocity": 0.8661417322834646
        },
        {
          "duration": 0.20977222265625528,
          "durationTicks": 501,
          "midi": 57,
          "name": "A3",
          "ticks": 483840,
          "time": 207.78937399999998,
          "velocity": 0.8661417322834646
        },
        {
          "duration": 0.20977222265625528,
          "durationTicks": 501,
          "midi": 65,
          "name": "F4",
          "ticks": 483840,
          "time": 207.78937399999998,
          "velocity": 0.8661417322834646
        },
        {
          "duration": 0.2097722226562837,
          "durationTicks": 501,
          "midi": 57,
          "name": "A3",
          "ticks": 484352,
          "time": 208.00375199999996,
          "velocity": 0.8661417322834646
        },
        {
          "duration": 0.2097722226562837,
          "durationTicks": 501,
          "midi": 65,
          "name": "F4",
          "ticks": 484352,
          "time": 208.00375199999996,
          "velocity": 0.8661417322834646
        },
        {
          "duration": 0.20977222265625528,
          "durationTicks": 501,
          "midi": 57,
          "name": "A3",
          "ticks": 484864,
          "time": 208.21812999999997,
          "velocity": 0.8661417322834646
        },
        {
          "duration": 0.20977222265625528,
          "durationTicks": 501,
          "midi": 65,
          "name": "F4",
          "ticks": 484864,
          "time": 208.21812999999997,
          "velocity": 0.8661417322834646
        },
        {
          "duration": 0.20977222265622686,
          "durationTicks": 501,
          "midi": 57,
          "name": "A3",
          "ticks": 485888,
          "time": 208.646886,
          "velocity": 0.8661417322834646
        },
        {
          "duration": 0.20977222265622686,
          "durationTicks": 501,
          "midi": 65,
          "name": "F4",
          "ticks": 485888,
          "time": 208.646886,
          "velocity": 0.8661417322834646
        },
        {
          "duration": 0.20977222265625528,
          "durationTicks": 501,
          "midi": 57,
          "name": "A3",
          "ticks": 486400,
          "time": 208.86126399999998,
          "velocity": 0.8661417322834646
        },
        {
          "duration": 0.20977222265625528,
          "durationTicks": 501,
          "midi": 65,
          "name": "F4",
          "ticks": 486400,
          "time": 208.86126399999998,
          "velocity": 0.8661417322834646
        },
        {
          "duration": 0.2097722226562837,
          "durationTicks": 501,
          "midi": 57,
          "name": "A3",
          "ticks": 486912,
          "time": 209.07564199999996,
          "velocity": 0.8661417322834646
        },
        {
          "duration": 0.2097722226562837,
          "durationTicks": 501,
          "midi": 65,
          "name": "F4",
          "ticks": 486912,
          "time": 209.07564199999996,
          "velocity": 0.8661417322834646
        },
        {
          "duration": 0.20977222265625528,
          "durationTicks": 501,
          "midi": 58,
          "name": "A#3",
          "ticks": 488960,
          "time": 209.93315399999997,
          "velocity": 0.8661417322834646
        },
        {
          "duration": 0.20977222265625528,
          "durationTicks": 501,
          "midi": 67,
          "name": "G4",
          "ticks": 488960,
          "time": 209.93315399999997,
          "velocity": 0.8661417322834646
        },
        {
          "duration": 0.2097722226562837,
          "durationTicks": 501,
          "midi": 58,
          "name": "A#3",
          "ticks": 489984,
          "time": 210.36190999999997,
          "velocity": 0.8661417322834646
        },
        {
          "duration": 0.2097722226562837,
          "durationTicks": 501,
          "midi": 67,
          "name": "G4",
          "ticks": 489984,
          "time": 210.36190999999997,
          "velocity": 0.8661417322834646
        },
        {
          "duration": 0.20977222265622686,
          "durationTicks": 501,
          "midi": 58,
          "name": "A#3",
          "ticks": 491008,
          "time": 210.790666,
          "velocity": 0.8661417322834646
        },
        {
          "duration": 0.20977222265622686,
          "durationTicks": 501,
          "midi": 67,
          "name": "G4",
          "ticks": 491008,
          "time": 210.790666,
          "velocity": 0.8661417322834646
        },
        {
          "duration": 0.20977222265625528,
          "durationTicks": 501,
          "midi": 58,
          "name": "A#3",
          "ticks": 492032,
          "time": 211.21942199999998,
          "velocity": 0.8661417322834646
        },
        {
          "duration": 0.20977222265625528,
          "durationTicks": 501,
          "midi": 67,
          "name": "G4",
          "ticks": 492032,
          "time": 211.21942199999998,
          "velocity": 0.8661417322834646
        },
        {
          "duration": 0.2097722226562837,
          "durationTicks": 501,
          "midi": 58,
          "name": "A#3",
          "ticks": 492544,
          "time": 211.43379999999996,
          "velocity": 0.8661417322834646
        },
        {
          "duration": 0.20977222265625528,
          "durationTicks": 501,
          "midi": 58,
          "name": "A#3",
          "ticks": 493056,
          "time": 211.64817799999997,
          "velocity": 0.8661417322834646
        },
        {
          "duration": 0.20977222265625528,
          "durationTicks": 501,
          "midi": 67,
          "name": "G4",
          "ticks": 493056,
          "time": 211.64817799999997,
          "velocity": 0.8661417322834646
        },
        {
          "duration": 0.20977222265622686,
          "durationTicks": 501,
          "midi": 58,
          "name": "A#3",
          "ticks": 493568,
          "time": 211.86255599999998,
          "velocity": 0.8661417322834646
        },
        {
          "duration": 0.20977222265622686,
          "durationTicks": 501,
          "midi": 67,
          "name": "G4",
          "ticks": 493568,
          "time": 211.86255599999998,
          "velocity": 0.8661417322834646
        },
        {
          "duration": 0.20977222265622686,
          "durationTicks": 501,
          "midi": 58,
          "name": "A#3",
          "ticks": 494080,
          "time": 212.076934,
          "velocity": 0.8661417322834646
        },
        {
          "duration": 0.20977222265622686,
          "durationTicks": 501,
          "midi": 67,
          "name": "G4",
          "ticks": 494080,
          "time": 212.076934,
          "velocity": 0.8661417322834646
        },
        {
          "duration": 0.20977222265625528,
          "durationTicks": 501,
          "midi": 58,
          "name": "A#3",
          "ticks": 494592,
          "time": 212.29131199999998,
          "velocity": 0.8661417322834646
        },
        {
          "duration": 0.20977222265625528,
          "durationTicks": 501,
          "midi": 67,
          "name": "G4",
          "ticks": 494592,
          "time": 212.29131199999998,
          "velocity": 0.8661417322834646
        },
        {
          "duration": 0.2097722226562837,
          "durationTicks": 501,
          "midi": 58,
          "name": "A#3",
          "ticks": 495104,
          "time": 212.50568999999996,
          "velocity": 0.8661417322834646
        },
        {
          "duration": 0.2097722226562837,
          "durationTicks": 501,
          "midi": 67,
          "name": "G4",
          "ticks": 495104,
          "time": 212.50568999999996,
          "velocity": 0.8661417322834646
        },
        {
          "duration": 0.20977222265622686,
          "durationTicks": 501,
          "midi": 60,
          "name": "C4",
          "ticks": 497152,
          "time": 213.363202,
          "velocity": 0.8661417322834646
        },
        {
          "duration": 0.20977222265622686,
          "durationTicks": 501,
          "midi": 67,
          "name": "G4",
          "ticks": 497152,
          "time": 213.363202,
          "velocity": 0.8661417322834646
        },
        {
          "duration": 0.2097722226562837,
          "durationTicks": 501,
          "midi": 60,
          "name": "C4",
          "ticks": 498176,
          "time": 213.79195799999997,
          "velocity": 0.8661417322834646
        },
        {
          "duration": 0.2097722226562837,
          "durationTicks": 501,
          "midi": 67,
          "name": "G4",
          "ticks": 498176,
          "time": 213.79195799999997,
          "velocity": 0.8661417322834646
        },
        {
          "duration": 0.20977222265622686,
          "durationTicks": 501,
          "midi": 60,
          "name": "C4",
          "ticks": 499200,
          "time": 214.220714,
          "velocity": 0.8661417322834646
        },
        {
          "duration": 0.20977222265622686,
          "durationTicks": 501,
          "midi": 67,
          "name": "G4",
          "ticks": 499200,
          "time": 214.220714,
          "velocity": 0.8661417322834646
        },
        {
          "duration": 0.20977222265625528,
          "durationTicks": 501,
          "midi": 60,
          "name": "C4",
          "ticks": 500224,
          "time": 214.64946999999998,
          "velocity": 0.8661417322834646
        },
        {
          "duration": 0.20977222265625528,
          "durationTicks": 501,
          "midi": 69,
          "name": "A4",
          "ticks": 500224,
          "time": 214.64946999999998,
          "velocity": 0.8661417322834646
        },
        {
          "duration": 0.20977222265625528,
          "durationTicks": 501,
          "midi": 60,
          "name": "C4",
          "ticks": 501248,
          "time": 215.07822599999997,
          "velocity": 0.8661417322834646
        },
        {
          "duration": 0.20977222265625528,
          "durationTicks": 501,
          "midi": 69,
          "name": "A4",
          "ticks": 501248,
          "time": 215.07822599999997,
          "velocity": 0.8661417322834646
        },
        {
          "duration": 0.20977222265622686,
          "durationTicks": 501,
          "midi": 60,
          "name": "C4",
          "ticks": 502272,
          "time": 215.506982,
          "velocity": 0.8661417322834646
        },
        {
          "duration": 0.20977222265622686,
          "durationTicks": 501,
          "midi": 69,
          "name": "A4",
          "ticks": 502272,
          "time": 215.506982,
          "velocity": 0.8661417322834646
        },
        {
          "duration": 0.6250249208984542,
          "durationTicks": 853,
          "midi": 57,
          "name": "A3",
          "ticks": 506880,
          "time": 218.40108499999997,
          "velocity": 0.8661417322834646
        },
        {
          "duration": 0.6250249208984542,
          "durationTicks": 853,
          "midi": 62,
          "name": "D4",
          "ticks": 506880,
          "time": 218.40108499999997,
          "velocity": 0.8661417322834646
        },
        {
          "duration": 0.15617772265625263,
          "durationTicks": 373,
          "midi": 74,
          "name": "D5",
          "ticks": 507904,
          "time": 219.15140799999998,
          "velocity": 0.8661417322834646
        },
        {
          "duration": 0.15617772265625263,
          "durationTicks": 373,
          "midi": 72,
          "name": "C5",
          "ticks": 508288,
          "time": 219.31219149999998,
          "velocity": 0.8661417322834646
        },
        {
          "duration": 0.10258322265624997,
          "durationTicks": 245,
          "midi": 67,
          "name": "G4",
          "ticks": 508672,
          "time": 219.47297499999996,
          "velocity": 0.8661417322834646
        },
        {
          "duration": 0.15617772265625263,
          "durationTicks": 373,
          "midi": 62,
          "name": "D4",
          "ticks": 508928,
          "time": 219.58016399999997,
          "velocity": 0.8661417322834646
        },
        {
          "duration": 0.15617772265625263,
          "durationTicks": 373,
          "midi": 60,
          "name": "C4",
          "ticks": 509312,
          "time": 219.74094749999998,
          "velocity": 0.8661417322834646
        },
        {
          "duration": 0.10258322265624997,
          "durationTicks": 245,
          "midi": 55,
          "name": "G3",
          "ticks": 509696,
          "time": 219.90173099999998,
          "velocity": 0.8661417322834646
        },
        {
          "duration": 0.35715709765622705,
          "durationTicks": 853,
          "midi": 50,
          "name": "D3",
          "ticks": 509952,
          "time": 220.00892,
          "velocity": 0.8661417322834646
        },
        {
          "duration": 1.6078349999999944,
          "durationTicks": 3840,
          "midi": 57,
          "name": "A3",
          "ticks": 516096,
          "time": 222.58145599999997,
          "velocity": 0.8661417322834646
        },
        {
          "duration": 1.6078349999999944,
          "durationTicks": 3840,
          "midi": 62,
          "name": "D4",
          "ticks": 516096,
          "time": 222.58145599999997,
          "velocity": 0.8661417322834646
        },
        {
          "duration": 1.6078349999999944,
          "durationTicks": 3840,
          "midi": 59,
          "name": "B3",
          "ticks": 520192,
          "time": 224.29647999999997,
          "velocity": 0.8661417322834646
        },
        {
          "duration": 1.6078349999999944,
          "durationTicks": 3840,
          "midi": 64,
          "name": "E4",
          "ticks": 520192,
          "time": 224.29647999999997,
          "velocity": 0.8661417322834646
        },
        {
          "duration": 1.6078349999999944,
          "durationTicks": 3840,
          "midi": 60,
          "name": "C4",
          "ticks": 524288,
          "time": 226.01150399999997,
          "velocity": 0.8661417322834646
        },
        {
          "duration": 1.6078349999999944,
          "durationTicks": 3840,
          "midi": 65,
          "name": "F4",
          "ticks": 524288,
          "time": 226.01150399999997,
          "velocity": 0.8661417322834646
        },
        {
          "duration": 1.6078349999999944,
          "durationTicks": 3840,
          "midi": 62,
          "name": "D4",
          "ticks": 528384,
          "time": 227.72652799999997,
          "velocity": 0.8661417322834646
        },
        {
          "duration": 1.6078349999999944,
          "durationTicks": 3840,
          "midi": 67,
          "name": "G4",
          "ticks": 528384,
          "time": 227.72652799999997,
          "velocity": 0.8661417322834646
        },
        {
          "duration": 1.6078349999999944,
          "durationTicks": 3840,
          "midi": 57,
          "name": "A3",
          "ticks": 532480,
          "time": 229.44155199999997,
          "velocity": 0.8661417322834646
        },
        {
          "duration": 1.6078349999999944,
          "durationTicks": 3840,
          "midi": 62,
          "name": "D4",
          "ticks": 532480,
          "time": 229.44155199999997,
          "velocity": 0.8661417322834646
        },
        {
          "duration": 1.6078349999999944,
          "durationTicks": 3840,
          "midi": 59,
          "name": "B3",
          "ticks": 536576,
          "time": 231.15657599999997,
          "velocity": 0.8661417322834646
        },
        {
          "duration": 1.6078349999999944,
          "durationTicks": 3840,
          "midi": 64,
          "name": "E4",
          "ticks": 536576,
          "time": 231.15657599999997,
          "velocity": 0.8661417322834646
        },
        {
          "duration": 1.6078349999999944,
          "durationTicks": 3840,
          "midi": 60,
          "name": "C4",
          "ticks": 540672,
          "time": 232.87159999999997,
          "velocity": 0.8661417322834646
        },
        {
          "duration": 1.6078349999999944,
          "durationTicks": 3840,
          "midi": 65,
          "name": "F4",
          "ticks": 540672,
          "time": 232.87159999999997,
          "velocity": 0.8661417322834646
        },
        {
          "duration": 0.7503230000000087,
          "durationTicks": 1792,
          "midi": 62,
          "name": "D4",
          "ticks": 544768,
          "time": 234.58662399999997,
          "velocity": 0.8661417322834646
        },
        {
          "duration": 0.7503230000000087,
          "durationTicks": 1792,
          "midi": 67,
          "name": "G4",
          "ticks": 544768,
          "time": 234.58662399999997,
          "velocity": 0.8661417322834646
        },
        {
          "duration": 1.067284222656241,
          "durationTicks": 2549,
          "midi": 62,
          "name": "D4",
          "ticks": 548864,
          "time": 236.30164799999997,
          "velocity": 0.8661417322834646
        },
        {
          "duration": 0.20977222265625528,
          "durationTicks": 501,
          "midi": 57,
          "name": "A3",
          "ticks": 551424,
          "time": 237.37353799999997,
          "velocity": 0.8661417322834646
        },
        {
          "duration": 0.20977222265625528,
          "durationTicks": 501,
          "midi": 62,
          "name": "D4",
          "ticks": 551936,
          "time": 237.58791599999998,
          "velocity": 0.8661417322834646
        },
        {
          "duration": 0.20977222265625528,
          "durationTicks": 501,
          "midi": 72,
          "name": "C5",
          "ticks": 552448,
          "time": 237.80229399999996,
          "velocity": 0.8661417322834646
        },
        {
          "duration": 0.20977222265625528,
          "durationTicks": 501,
          "midi": 71,
          "name": "B4",
          "ticks": 552960,
          "time": 238.01667199999997,
          "velocity": 0.8661417322834646
        },
        {
          "duration": 0.20977222265622686,
          "durationTicks": 501,
          "midi": 67,
          "name": "G4",
          "ticks": 553472,
          "time": 238.23104999999998,
          "velocity": 0.8661417322834646
        },
        {
          "duration": 1.1790790000000015,
          "durationTicks": 2816,
          "midi": 62,
          "name": "D4",
          "ticks": 553984,
          "time": 238.44542799999996,
          "velocity": 0.8661417322834646
        },
        {
          "duration": 0.5715350976562661,
          "durationTicks": 1365,
          "midi": 62,
          "name": "D4",
          "ticks": 557056,
          "time": 239.73169599999997,
          "velocity": 0.8661417322834646
        },
        {
          "duration": 0.4241502226562375,
          "durationTicks": 1013,
          "midi": 60,
          "name": "C4",
          "ticks": 558592,
          "time": 240.37482999999997,
          "velocity": 0.8661417322834646
        },
        {
          "duration": 0.20977222265625528,
          "durationTicks": 501,
          "midi": 62,
          "name": "D4",
          "ticks": 559616,
          "time": 240.80358599999997,
          "velocity": 0.8661417322834646
        },
        {
          "duration": 0.20977222265625528,
          "durationTicks": 501,
          "midi": 67,
          "name": "G4",
          "ticks": 560128,
          "time": 241.01796399999998,
          "velocity": 0.8661417322834646
        },
        {
          "duration": 0.20977222265625528,
          "durationTicks": 501,
          "midi": 65,
          "name": "F4",
          "ticks": 560640,
          "time": 241.23234199999996,
          "velocity": 0.8661417322834646
        },
        {
          "duration": 1.6078349999999944,
          "durationTicks": 3840,
          "midi": 67,
          "name": "G4",
          "ticks": 561152,
          "time": 241.44671999999997,
          "velocity": 0.8661417322834646
        },
        {
          "duration": 1.067284222656241,
          "durationTicks": 2549,
          "midi": 62,
          "name": "D4",
          "ticks": 565248,
          "time": 243.16174399999997,
          "velocity": 0.8661417322834646
        },
        {
          "duration": 0.20977222265625528,
          "durationTicks": 501,
          "midi": 57,
          "name": "A3",
          "ticks": 567808,
          "time": 244.23363399999997,
          "velocity": 0.8661417322834646
        },
        {
          "duration": 0.20977222265625528,
          "durationTicks": 501,
          "midi": 62,
          "name": "D4",
          "ticks": 568320,
          "time": 244.44801199999998,
          "velocity": 0.8661417322834646
        },
        {
          "duration": 0.20977222265625528,
          "durationTicks": 501,
          "midi": 72,
          "name": "C5",
          "ticks": 568832,
          "time": 244.66238999999996,
          "velocity": 0.8661417322834646
        },
        {
          "duration": 0.20977222265625528,
          "durationTicks": 501,
          "midi": 71,
          "name": "B4",
          "ticks": 569344,
          "time": 244.87676799999997,
          "velocity": 0.8661417322834646
        },
        {
          "duration": 0.20977222265622686,
          "durationTicks": 501,
          "midi": 67,
          "name": "G4",
          "ticks": 569856,
          "time": 245.09114599999998,
          "velocity": 0.8661417322834646
        },
        {
          "duration": 0.5715350976562661,
          "durationTicks": 1365,
          "midi": 62,
          "name": "D4",
          "ticks": 570368,
          "time": 245.30552399999996,
          "velocity": 0.8661417322834646
        },
        {
          "duration": 0.20977222265625528,
          "durationTicks": 501,
          "midi": 57,
          "name": "A3",
          "ticks": 571904,
          "time": 245.94865799999997,
          "velocity": 0.8661417322834646
        },
        {
          "duration": 0.20977222265625528,
          "durationTicks": 501,
          "midi": 62,
          "name": "D4",
          "ticks": 572416,
          "time": 246.16303599999998,
          "velocity": 0.8661417322834646
        },
        {
          "duration": 0.20977222265622686,
          "durationTicks": 501,
          "midi": 74,
          "name": "D5",
          "ticks": 572928,
          "time": 246.377414,
          "velocity": 0.8661417322834646
        },
        {
          "duration": 0.3571570976562555,
          "durationTicks": 853,
          "midi": 72,
          "name": "C5",
          "ticks": 573440,
          "time": 246.59179199999997,
          "velocity": 0.8661417322834646
        },
        {
          "duration": 1.0672842226562693,
          "durationTicks": 2549,
          "midi": 71,
          "name": "B4",
          "ticks": 574464,
          "time": 247.02054799999996,
          "velocity": 0.8661417322834646
        },
        {
          "duration": 0.20977222265625528,
          "durationTicks": 501,
          "midi": 69,
          "name": "A4",
          "ticks": 577024,
          "time": 248.09243799999996,
          "velocity": 0.8661417322834646
        },
        {
          "duration": 1.6078349999999944,
          "durationTicks": 3840,
          "midi": 67,
          "name": "G4",
          "ticks": 577536,
          "time": 248.30681599999997,
          "velocity": 0.8661417322834646
        },
        {
          "duration": 1.6078349999999944,
          "durationTicks": 3840,
          "midi": 71,
          "name": "B4",
          "ticks": 577536,
          "time": 248.30681599999997,
          "velocity": 0.8661417322834646
        },
        {
          "duration": 1.067284222656241,
          "durationTicks": 2549,
          "midi": 63,
          "name": "D#4",
          "ticks": 581632,
          "time": 250.02183999999997,
          "velocity": 0.8661417322834646
        },
        {
          "duration": 1.067284222656241,
          "durationTicks": 2549,
          "midi": 65,
          "name": "F4",
          "ticks": 581632,
          "time": 250.02183999999997,
          "velocity": 0.8661417322834646
        },
        {
          "duration": 0.20977222265625528,
          "durationTicks": 501,
          "midi": 60,
          "name": "C4",
          "ticks": 584192,
          "time": 251.09372999999997,
          "velocity": 0.8661417322834646
        },
        {
          "duration": 0.20977222265625528,
          "durationTicks": 501,
          "midi": 65,
          "name": "F4",
          "ticks": 584704,
          "time": 251.30810799999998,
          "velocity": 0.8661417322834646
        },
        {
          "duration": 0.20977222265625528,
          "durationTicks": 501,
          "midi": 75,
          "name": "D#5",
          "ticks": 585216,
          "time": 251.52248599999996,
          "velocity": 0.8661417322834646
        },
        {
          "duration": 0.20977222265625528,
          "durationTicks": 501,
          "midi": 74,
          "name": "D5",
          "ticks": 585728,
          "time": 251.73686399999997,
          "velocity": 0.8661417322834646
        },
        {
          "duration": 0.20977222265622686,
          "durationTicks": 501,
          "midi": 70,
          "name": "A#4",
          "ticks": 586240,
          "time": 251.95124199999998,
          "velocity": 0.8661417322834646
        },
        {
          "duration": 1.1744732226562178,
          "durationTicks": 2805,
          "midi": 65,
          "name": "F4",
          "ticks": 586752,
          "time": 252.16562,
          "velocity": 0.8661417322834646
        },
        {
          "duration": 0.3169612226562606,
          "durationTicks": 757,
          "midi": 63,
          "name": "D#4",
          "ticks": 589568,
          "time": 253.34469899999996,
          "velocity": 0.8661417322834646
        },
        {
          "duration": 1.2816622226562515,
          "durationTicks": 3061,
          "midi": 65,
          "name": "F4",
          "ticks": 590336,
          "time": 253.66626599999998,
          "velocity": 0.8661417322834646
        },
        {
          "duration": 0.20977222265625528,
          "durationTicks": 501,
          "midi": 68,
          "name": "G#4",
          "ticks": 593408,
          "time": 254.95253399999996,
          "velocity": 0.8661417322834646
        },
        {
          "duration": 1.6078350000000228,
          "durationTicks": 3840,
          "midi": 65,
          "name": "F4",
          "ticks": 593920,
          "time": 255.16691199999997,
          "velocity": 0.8661417322834646
        },
        {
          "duration": 1.0672842226562125,
          "durationTicks": 2549,
          "midi": 62,
          "name": "D4",
          "ticks": 598016,
          "time": 256.881936,
          "velocity": 0.8661417322834646
        },
        {
          "duration": 0.20977222265622686,
          "durationTicks": 501,
          "midi": 57,
          "name": "A3",
          "ticks": 600576,
          "time": 257.953826,
          "velocity": 0.8661417322834646
        },
        {
          "duration": 0.2097722226562837,
          "durationTicks": 501,
          "midi": 62,
          "name": "D4",
          "ticks": 601088,
          "time": 258.16820399999995,
          "velocity": 0.8661417322834646
        },
        {
          "duration": 0.2097722226562837,
          "durationTicks": 501,
          "midi": 72,
          "name": "C5",
          "ticks": 601600,
          "time": 258.38258199999996,
          "velocity": 0.8661417322834646
        },
        {
          "duration": 0.2097722226562837,
          "durationTicks": 501,
          "midi": 71,
          "name": "B4",
          "ticks": 602112,
          "time": 258.59695999999997,
          "velocity": 0.8661417322834646
        },
        {
          "duration": 0.20977222265622686,
          "durationTicks": 501,
          "midi": 67,
          "name": "G4",
          "ticks": 602624,
          "time": 258.811338,
          "velocity": 0.8661417322834646
        },
        {
          "duration": 1.1790790000000015,
          "durationTicks": 2816,
          "midi": 62,
          "name": "D4",
          "ticks": 603136,
          "time": 259.025716,
          "velocity": 0.8661417322834646
        },
        {
          "duration": 1.607834999999966,
          "durationTicks": 3840,
          "midi": 63,
          "name": "D#4",
          "ticks": 606208,
          "time": 260.311984,
          "velocity": 0.8661417322834646
        },
        {
          "duration": 1.607834999999966,
          "durationTicks": 3840,
          "midi": 67,
          "name": "G4",
          "ticks": 606208,
          "time": 260.311984,
          "velocity": 0.8661417322834646
        },
        {
          "duration": 1.6078350000000228,
          "durationTicks": 3840,
          "midi": 65,
          "name": "F4",
          "ticks": 610304,
          "time": 262.02700799999997,
          "velocity": 0.8661417322834646
        },
        {
          "duration": 1.6078350000000228,
          "durationTicks": 3840,
          "midi": 67,
          "name": "G4",
          "ticks": 610304,
          "time": 262.02700799999997,
          "velocity": 0.8661417322834646
        },
        {
          "duration": 0.7503229999999803,
          "durationTicks": 1792,
          "midi": 68,
          "name": "G#4",
          "ticks": 614400,
          "time": 263.742032,
          "velocity": 0.8661417322834646
        },
        {
          "duration": 0.7503229999999803,
          "durationTicks": 1792,
          "midi": 72,
          "name": "C5",
          "ticks": 614400,
          "time": 263.742032,
          "velocity": 0.8661417322834646
        },
        {
          "duration": 0.7503229999999803,
          "durationTicks": 1792,
          "midi": 79,
          "name": "G5",
          "ticks": 616448,
          "time": 264.599544,
          "velocity": 0.8661417322834646
        },
        {
          "duration": 0.35715709765622705,
          "durationTicks": 853,
          "midi": 77,
          "name": "F5",
          "ticks": 618496,
          "time": 265.45705599999997,
          "velocity": 0.8661417322834646
        },
        {
          "duration": 1.1790790000000015,
          "durationTicks": 2816,
          "midi": 71,
          "name": "B4",
          "ticks": 619520,
          "time": 265.885812,
          "velocity": 0.8661417322834646
        },
        {
          "duration": 1.1790790000000015,
          "durationTicks": 2816,
          "midi": 74,
          "name": "D5",
          "ticks": 619520,
          "time": 265.885812,
          "velocity": 0.8661417322834646
        },
        {
          "duration": 0.7503229999999803,
          "durationTicks": 1792,
          "midi": 68,
          "name": "G#4",
          "ticks": 622592,
          "time": 267.17208,
          "velocity": 0.8661417322834646
        },
        {
          "duration": 0.7503229999999803,
          "durationTicks": 1792,
          "midi": 72,
          "name": "C5",
          "ticks": 622592,
          "time": 267.17208,
          "velocity": 0.8661417322834646
        },
        {
          "duration": 0.7503229999999803,
          "durationTicks": 1792,
          "midi": 79,
          "name": "G5",
          "ticks": 624640,
          "time": 268.029592,
          "velocity": 0.8661417322834646
        },
        {
          "duration": 0.3571570976562839,
          "durationTicks": 853,
          "midi": 77,
          "name": "F5",
          "ticks": 626688,
          "time": 268.88710399999997,
          "velocity": 0.8661417322834646
        },
        {
          "duration": 0.7503229999999803,
          "durationTicks": 1792,
          "midi": 74,
          "name": "D5",
          "ticks": 627712,
          "time": 269.31586,
          "velocity": 0.8661417322834646
        },
        {
          "duration": 0.35715709765622705,
          "durationTicks": 853,
          "midi": 83,
          "name": "B5",
          "ticks": 629760,
          "time": 270.173372,
          "velocity": 0.8661417322834646
        },
        {
          "duration": 0.7503229999999803,
          "durationTicks": 1792,
          "midi": 72,
          "name": "C5",
          "ticks": 630784,
          "time": 270.602128,
          "velocity": 0.8661417322834646
        },
        {
          "duration": 0.7503229999999803,
          "durationTicks": 1792,
          "midi": 67,
          "name": "G4",
          "ticks": 632832,
          "time": 271.45964,
          "velocity": 0.8661417322834646
        },
        {
          "duration": 0.7503229999999803,
          "durationTicks": 1792,
          "midi": 79,
          "name": "G5",
          "ticks": 632832,
          "time": 271.45964,
          "velocity": 0.8661417322834646
        },
        {
          "duration": 0.7503229999999803,
          "durationTicks": 1792,
          "midi": 67,
          "name": "G4",
          "ticks": 634880,
          "time": 272.31715199999996,
          "velocity": 0.8661417322834646
        },
        {
          "duration": 0.7503229999999803,
          "durationTicks": 1792,
          "midi": 77,
          "name": "F5",
          "ticks": 634880,
          "time": 272.31715199999996,
          "velocity": 0.8661417322834646
        },
        {
          "duration": 0.7503230000000372,
          "durationTicks": 1792,
          "midi": 67,
          "name": "G4",
          "ticks": 636928,
          "time": 273.17466399999995,
          "velocity": 0.8661417322834646
        },
        {
          "duration": 0.7503230000000372,
          "durationTicks": 1792,
          "midi": 74,
          "name": "D5",
          "ticks": 636928,
          "time": 273.17466399999995,
          "velocity": 0.8661417322834646
        },
        {
          "duration": 2.4653470000000084,
          "durationTicks": 5888,
          "midi": 68,
          "name": "G#4",
          "ticks": 638976,
          "time": 274.032176,
          "velocity": 0.8661417322834646
        },
        {
          "duration": 2.4653470000000084,
          "durationTicks": 5888,
          "midi": 75,
          "name": "D#5",
          "ticks": 638976,
          "time": 274.032176,
          "velocity": 0.8661417322834646
        },
        {
          "duration": 0.7503230000000372,
          "durationTicks": 1792,
          "midi": 72,
          "name": "C5",
          "ticks": 645120,
          "time": 276.60471199999995,
          "velocity": 0.8661417322834646
        },
        {
          "duration": 3.322858999999994,
          "durationTicks": 7936,
          "midi": 74,
          "name": "D5",
          "ticks": 647168,
          "time": 277.462224,
          "velocity": 0.8661417322834646
        },
        {
          "duration": 1.607834999999966,
          "durationTicks": 3840,
          "midi": 68,
          "name": "G#4",
          "ticks": 655360,
          "time": 280.892272,
          "velocity": 0.8661417322834646
        },
        {
          "duration": 1.607834999999966,
          "durationTicks": 3840,
          "midi": 75,
          "name": "D#5",
          "ticks": 655360,
          "time": 280.892272,
          "velocity": 0.8661417322834646
        },
        {
          "duration": 0.7503230000000372,
          "durationTicks": 1792,
          "midi": 80,
          "name": "G#5",
          "ticks": 659456,
          "time": 282.60729599999996,
          "velocity": 0.8661417322834646
        },
        {
          "duration": 0.7503230000000372,
          "durationTicks": 1792,
          "midi": 75,
          "name": "D#5",
          "ticks": 661504,
          "time": 283.46480799999995,
          "velocity": 0.8661417322834646
        },
        {
          "duration": 1.607834999999966,
          "durationTicks": 3840,
          "midi": 67,
          "name": "G4",
          "ticks": 663552,
          "time": 284.32232,
          "velocity": 0.8661417322834646
        },
        {
          "duration": 1.607834999999966,
          "durationTicks": 3840,
          "midi": 74,
          "name": "D5",
          "ticks": 663552,
          "time": 284.32232,
          "velocity": 0.8661417322834646
        },
        {
          "duration": 1.0672842226562693,
          "durationTicks": 2549,
          "midi": 79,
          "name": "G5",
          "ticks": 667648,
          "time": 286.03734399999996,
          "velocity": 0.8661417322834646
        },
        {
          "duration": 0.04898872265624732,
          "durationTicks": 117,
          "midi": 67,
          "name": "G4",
          "ticks": 670208,
          "time": 287.10923399999996,
          "velocity": 0.8661417322834646
        },
        {
          "duration": 0.04898872265624732,
          "durationTicks": 117,
          "midi": 65,
          "name": "F4",
          "ticks": 670336,
          "time": 287.1628285,
          "velocity": 0.8661417322834646
        },
        {
          "duration": 0.04898872265624732,
          "durationTicks": 117,
          "midi": 64,
          "name": "E4",
          "ticks": 670464,
          "time": 287.21642299999996,
          "velocity": 0.8661417322834646
        },
        {
          "duration": 0.048988722656190475,
          "durationTicks": 117,
          "midi": 62,
          "name": "D4",
          "ticks": 670592,
          "time": 287.2700175,
          "velocity": 0.8661417322834646
        },
        {
          "duration": 0.04898872265624732,
          "durationTicks": 117,
          "midi": 67,
          "name": "G4",
          "ticks": 670720,
          "time": 287.32361199999997,
          "velocity": 0.8661417322834646
        },
        {
          "duration": 0.04898872265630416,
          "durationTicks": 117,
          "midi": 65,
          "name": "F4",
          "ticks": 670848,
          "time": 287.37720649999994,
          "velocity": 0.8661417322834646
        },
        {
          "duration": 0.04898872265624732,
          "durationTicks": 117,
          "midi": 64,
          "name": "E4",
          "ticks": 670976,
          "time": 287.430801,
          "velocity": 0.8661417322834646
        },
        {
          "duration": 0.048988722656190475,
          "durationTicks": 117,
          "midi": 62,
          "name": "D4",
          "ticks": 671104,
          "time": 287.4843955,
          "velocity": 0.8661417322834646
        },
        {
          "duration": 0.04898872265624732,
          "durationTicks": 117,
          "midi": 67,
          "name": "G4",
          "ticks": 671232,
          "time": 287.53799,
          "velocity": 0.8661417322834646
        },
        {
          "duration": 0.04898872265624732,
          "durationTicks": 117,
          "midi": 65,
          "name": "F4",
          "ticks": 671360,
          "time": 287.59158449999995,
          "velocity": 0.8661417322834646
        },
        {
          "duration": 0.04898872265624732,
          "durationTicks": 117,
          "midi": 64,
          "name": "E4",
          "ticks": 671488,
          "time": 287.645179,
          "velocity": 0.8661417322834646
        },
        {
          "duration": 0.6667905029297003,
          "durationTicks": 1365,
          "midi": 74,
          "name": "D5",
          "ticks": 688128,
          "time": 295.755808,
          "velocity": 0.8661417322834646
        },
        {
          "duration": 0.6667905029297003,
          "durationTicks": 1365,
          "midi": 81,
          "name": "A5",
          "ticks": 688128,
          "time": 295.755808,
          "velocity": 0.8661417322834646
        },
        {
          "duration": 1.1254837500000008,
          "durationTicks": 2304,
          "midi": 73,
          "name": "C#5",
          "ticks": 689664,
          "time": 296.5061305,
          "velocity": 0.8661417322834646
        },
        {
          "duration": 1.1254837500000008,
          "durationTicks": 2304,
          "midi": 80,
          "name": "G#5",
          "ticks": 689664,
          "time": 296.5061305,
          "velocity": 0.8661417322834646
        },
        {
          "duration": 0.6667905029297003,
          "durationTicks": 1365,
          "midi": 72,
          "name": "C5",
          "ticks": 692224,
          "time": 297.756668,
          "velocity": 0.8661417322834646
        },
        {
          "duration": 0.6667905029297003,
          "durationTicks": 1365,
          "midi": 79,
          "name": "G5",
          "ticks": 692224,
          "time": 297.756668,
          "velocity": 0.8661417322834646
        },
        {
          "duration": 1.1254837500000008,
          "durationTicks": 2304,
          "midi": 69,
          "name": "A4",
          "ticks": 693760,
          "time": 298.5069905,
          "velocity": 0.8661417322834646
        },
        {
          "duration": 1.1254837500000008,
          "durationTicks": 2304,
          "midi": 77,
          "name": "F5",
          "ticks": 693760,
          "time": 298.5069905,
          "velocity": 0.8661417322834646
        },
        {
          "duration": 0.6667905029297003,
          "durationTicks": 1365,
          "midi": 74,
          "name": "D5",
          "ticks": 696320,
          "time": 299.757528,
          "velocity": 0.8661417322834646
        },
        {
          "duration": 0.6667905029297003,
          "durationTicks": 1365,
          "midi": 81,
          "name": "A5",
          "ticks": 696320,
          "time": 299.757528,
          "velocity": 0.8661417322834646
        },
        {
          "duration": 0.4948415966796347,
          "durationTicks": 1013,
          "midi": 73,
          "name": "C#5",
          "ticks": 697856,
          "time": 300.5078505,
          "velocity": 0.8661417322834646
        },
        {
          "duration": 0.4948415966796347,
          "durationTicks": 1013,
          "midi": 80,
          "name": "G#5",
          "ticks": 697856,
          "time": 300.5078505,
          "velocity": 0.8661417322834646
        },
        {
          "duration": 0.4948415966796915,
          "durationTicks": 1013,
          "midi": 72,
          "name": "C5",
          "ticks": 698880,
          "time": 301.0080655,
          "velocity": 0.8661417322834646
        },
        {
          "duration": 0.4948415966796915,
          "durationTicks": 1013,
          "midi": 79,
          "name": "G5",
          "ticks": 698880,
          "time": 301.0080655,
          "velocity": 0.8661417322834646
        },
        {
          "duration": 0.4948415966796915,
          "durationTicks": 1013,
          "midi": 69,
          "name": "A4",
          "ticks": 699904,
          "time": 301.5082805,
          "velocity": 0.8661417322834646
        },
        {
          "duration": 0.4948415966796915,
          "durationTicks": 1013,
          "midi": 77,
          "name": "F5",
          "ticks": 699904,
          "time": 301.5082805,
          "velocity": 0.8661417322834646
        },
        {
          "duration": 1.6256987500000264,
          "durationTicks": 3328,
          "midi": 69,
          "name": "A4",
          "ticks": 700928,
          "time": 302.0084955,
          "velocity": 0.8661417322834646
        },
        {
          "duration": 1.6256987500000264,
          "durationTicks": 3328,
          "midi": 74,
          "name": "D5",
          "ticks": 700928,
          "time": 302.0084955,
          "velocity": 0.8661417322834646
        },
        {
          "duration": 0.6667905029296435,
          "durationTicks": 1365,
          "midi": 74,
          "name": "D5",
          "ticks": 704512,
          "time": 303.759248,
          "velocity": 0.8661417322834646
        },
        {
          "duration": 0.6667905029296435,
          "durationTicks": 1365,
          "midi": 81,
          "name": "A5",
          "ticks": 704512,
          "time": 303.759248,
          "velocity": 0.8661417322834646
        },
        {
          "duration": 1.1254837500000008,
          "durationTicks": 2304,
          "midi": 73,
          "name": "C#5",
          "ticks": 706048,
          "time": 304.5095705,
          "velocity": 0.8661417322834646
        },
        {
          "duration": 1.1254837500000008,
          "durationTicks": 2304,
          "midi": 80,
          "name": "G#5",
          "ticks": 706048,
          "time": 304.5095705,
          "velocity": 0.8661417322834646
        },
        {
          "duration": 0.6667905029297003,
          "durationTicks": 1365,
          "midi": 72,
          "name": "C5",
          "ticks": 708608,
          "time": 305.760108,
          "velocity": 0.8661417322834646
        },
        {
          "duration": 0.6667905029297003,
          "durationTicks": 1365,
          "midi": 79,
          "name": "G5",
          "ticks": 708608,
          "time": 305.760108,
          "velocity": 0.8661417322834646
        },
        {
          "duration": 1.1254837500000008,
          "durationTicks": 2304,
          "midi": 69,
          "name": "A4",
          "ticks": 710144,
          "time": 306.5104305,
          "velocity": 0.8661417322834646
        },
        {
          "duration": 1.1254837500000008,
          "durationTicks": 2304,
          "midi": 77,
          "name": "F5",
          "ticks": 710144,
          "time": 306.5104305,
          "velocity": 0.8661417322834646
        },
        {
          "duration": 0.6667905029297003,
          "durationTicks": 1365,
          "midi": 74,
          "name": "D5",
          "ticks": 712704,
          "time": 307.760968,
          "velocity": 0.8661417322834646
        },
        {
          "duration": 0.6667905029297003,
          "durationTicks": 1365,
          "midi": 81,
          "name": "A5",
          "ticks": 712704,
          "time": 307.760968,
          "velocity": 0.8661417322834646
        },
        {
          "duration": 0.4948415966796915,
          "durationTicks": 1013,
          "midi": 73,
          "name": "C#5",
          "ticks": 714240,
          "time": 308.5112905,
          "velocity": 0.8661417322834646
        },
        {
          "duration": 0.4948415966796915,
          "durationTicks": 1013,
          "midi": 80,
          "name": "G#5",
          "ticks": 714240,
          "time": 308.5112905,
          "velocity": 0.8661417322834646
        },
        {
          "duration": 0.4948415966796915,
          "durationTicks": 1013,
          "midi": 72,
          "name": "C5",
          "ticks": 715264,
          "time": 309.0115055,
          "velocity": 0.8661417322834646
        },
        {
          "duration": 0.4948415966796915,
          "durationTicks": 1013,
          "midi": 79,
          "name": "G5",
          "ticks": 715264,
          "time": 309.0115055,
          "velocity": 0.8661417322834646
        },
        {
          "duration": 0.4948415966796915,
          "durationTicks": 1013,
          "midi": 69,
          "name": "A4",
          "ticks": 716288,
          "time": 309.51172049999997,
          "velocity": 0.8661417322834646
        },
        {
          "duration": 0.4948415966796915,
          "durationTicks": 1013,
          "midi": 77,
          "name": "F5",
          "ticks": 716288,
          "time": 309.51172049999997,
          "velocity": 0.8661417322834646
        },
        {
          "duration": 1.6256987499999696,
          "durationTicks": 3328,
          "midi": 69,
          "name": "A4",
          "ticks": 717312,
          "time": 310.0119355,
          "velocity": 0.8661417322834646
        },
        {
          "duration": 1.6256987499999696,
          "durationTicks": 3328,
          "midi": 74,
          "name": "D5",
          "ticks": 717312,
          "time": 310.0119355,
          "velocity": 0.8661417322834646
        },
        {
          "duration": 0.6667905029297003,
          "durationTicks": 1365,
          "midi": 69,
          "name": "A4",
          "ticks": 720896,
          "time": 311.76268799999997,
          "velocity": 0.8661417322834646
        },
        {
          "duration": 0.6667905029297003,
          "durationTicks": 1365,
          "midi": 74,
          "name": "D5",
          "ticks": 720896,
          "time": 311.76268799999997,
          "velocity": 0.8661417322834646
        },
        {
          "duration": 1.1254837500000008,
          "durationTicks": 2304,
          "midi": 69,
          "name": "A4",
          "ticks": 722432,
          "time": 312.5130105,
          "velocity": 0.8661417322834646
        },
        {
          "duration": 1.1254837500000008,
          "durationTicks": 2304,
          "midi": 73,
          "name": "C#5",
          "ticks": 722432,
          "time": 312.5130105,
          "velocity": 0.8661417322834646
        },
        {
          "duration": 0.6667905029296435,
          "durationTicks": 1365,
          "midi": 69,
          "name": "A4",
          "ticks": 724992,
          "time": 313.763548,
          "velocity": 0.8661417322834646
        },
        {
          "duration": 0.6667905029296435,
          "durationTicks": 1365,
          "midi": 72,
          "name": "C5",
          "ticks": 724992,
          "time": 313.763548,
          "velocity": 0.8661417322834646
        },
        {
          "duration": 1.1254837500000008,
          "durationTicks": 2304,
          "midi": 68,
          "name": "G#4",
          "ticks": 726528,
          "time": 314.5138705,
          "velocity": 0.8661417322834646
        },
        {
          "duration": 1.1254837500000008,
          "durationTicks": 2304,
          "midi": 71,
          "name": "B4",
          "ticks": 726528,
          "time": 314.5138705,
          "velocity": 0.8661417322834646
        },
        {
          "duration": 0.6667905029296435,
          "durationTicks": 1365,
          "midi": 69,
          "name": "A4",
          "ticks": 729088,
          "time": 315.764408,
          "velocity": 0.8661417322834646
        },
        {
          "duration": 0.6667905029296435,
          "durationTicks": 1365,
          "midi": 74,
          "name": "D5",
          "ticks": 729088,
          "time": 315.764408,
          "velocity": 0.8661417322834646
        },
        {
          "duration": 1.1254837500000008,
          "durationTicks": 2304,
          "midi": 69,
          "name": "A4",
          "ticks": 730624,
          "time": 316.5147305,
          "velocity": 0.8661417322834646
        },
        {
          "duration": 1.1254837500000008,
          "durationTicks": 2304,
          "midi": 73,
          "name": "C#5",
          "ticks": 730624,
          "time": 316.5147305,
          "velocity": 0.8661417322834646
        },
        {
          "duration": 0.6667905029297003,
          "durationTicks": 1365,
          "midi": 69,
          "name": "A4",
          "ticks": 733184,
          "time": 317.765268,
          "velocity": 0.8661417322834646
        },
        {
          "duration": 0.6667905029297003,
          "durationTicks": 1365,
          "midi": 72,
          "name": "C5",
          "ticks": 733184,
          "time": 317.765268,
          "velocity": 0.8661417322834646
        },
        {
          "duration": 1.1254837500000008,
          "durationTicks": 2304,
          "midi": 68,
          "name": "G#4",
          "ticks": 734720,
          "time": 318.5155905,
          "velocity": 0.8661417322834646
        },
        {
          "duration": 1.1254837500000008,
          "durationTicks": 2304,
          "midi": 71,
          "name": "B4",
          "ticks": 734720,
          "time": 318.5155905,
          "velocity": 0.8661417322834646
        },
        {
          "duration": 0.6667905029297003,
          "durationTicks": 1365,
          "midi": 69,
          "name": "A4",
          "ticks": 737280,
          "time": 319.766128,
          "velocity": 0.8661417322834646
        },
        {
          "duration": 0.6667905029297003,
          "durationTicks": 1365,
          "midi": 74,
          "name": "D5",
          "ticks": 737280,
          "time": 319.766128,
          "velocity": 0.8661417322834646
        },
        {
          "duration": 1.125483749999944,
          "durationTicks": 2304,
          "midi": 69,
          "name": "A4",
          "ticks": 738816,
          "time": 320.5164505,
          "velocity": 0.8661417322834646
        },
        {
          "duration": 1.125483749999944,
          "durationTicks": 2304,
          "midi": 73,
          "name": "C#5",
          "ticks": 738816,
          "time": 320.5164505,
          "velocity": 0.8661417322834646
        },
        {
          "duration": 0.6667905029297003,
          "durationTicks": 1365,
          "midi": 69,
          "name": "A4",
          "ticks": 741376,
          "time": 321.76698799999997,
          "velocity": 0.8661417322834646
        },
        {
          "duration": 0.6667905029297003,
          "durationTicks": 1365,
          "midi": 74,
          "name": "D5",
          "ticks": 741376,
          "time": 321.76698799999997,
          "velocity": 0.8661417322834646
        },
        {
          "duration": 1.1254837500000008,
          "durationTicks": 2304,
          "midi": 68,
          "name": "G#4",
          "ticks": 742912,
          "time": 322.5173105,
          "velocity": 0.8661417322834646
        },
        {
          "duration": 1.1254837500000008,
          "durationTicks": 2304,
          "midi": 73,
          "name": "C#5",
          "ticks": 742912,
          "time": 322.5173105,
          "velocity": 0.8661417322834646
        },
        {
          "duration": 0.6667905029297003,
          "durationTicks": 1365,
          "midi": 69,
          "name": "A4",
          "ticks": 745472,
          "time": 323.76784799999996,
          "velocity": 0.8661417322834646
        },
        {
          "duration": 0.6667905029297003,
          "durationTicks": 1365,
          "midi": 74,
          "name": "D5",
          "ticks": 745472,
          "time": 323.76784799999996,
          "velocity": 0.8661417322834646
        },
        {
          "duration": 1.1254837500000008,
          "durationTicks": 2304,
          "midi": 69,
          "name": "A4",
          "ticks": 747008,
          "time": 324.5181705,
          "velocity": 0.8661417322834646
        },
        {
          "duration": 1.1254837500000008,
          "durationTicks": 2304,
          "midi": 73,
          "name": "C#5",
          "ticks": 747008,
          "time": 324.5181705,
          "velocity": 0.8661417322834646
        },
        {
          "duration": 0.6667905029297003,
          "durationTicks": 1365,
          "midi": 69,
          "name": "A4",
          "ticks": 749568,
          "time": 325.768708,
          "velocity": 0.8661417322834646
        },
        {
          "duration": 0.6667905029297003,
          "durationTicks": 1365,
          "midi": 72,
          "name": "C5",
          "ticks": 749568,
          "time": 325.768708,
          "velocity": 0.8661417322834646
        },
        {
          "duration": 1.1254837500000008,
          "durationTicks": 2304,
          "midi": 68,
          "name": "G#4",
          "ticks": 751104,
          "time": 326.5190305,
          "velocity": 0.8661417322834646
        },
        {
          "duration": 1.1254837500000008,
          "durationTicks": 2304,
          "midi": 71,
          "name": "B4",
          "ticks": 751104,
          "time": 326.5190305,
          "velocity": 0.8661417322834646
        },
        {
          "duration": 0.4241502226562375,
          "durationTicks": 1013,
          "midi": 72,
          "name": "C5",
          "ticks": 785920,
          "time": 342.418726,
          "velocity": 0.8661417322834646
        },
        {
          "duration": 0.20977222265622686,
          "durationTicks": 501,
          "midi": 72,
          "name": "C5",
          "ticks": 786944,
          "time": 342.847482,
          "velocity": 0.8661417322834646
        },
        {
          "duration": 0.20977222265622686,
          "durationTicks": 501,
          "midi": 69,
          "name": "A4",
          "ticks": 787456,
          "time": 343.06186,
          "velocity": 0.8661417322834646
        },
        {
          "duration": 0.2097722226562837,
          "durationTicks": 501,
          "midi": 69,
          "name": "A4",
          "ticks": 787968,
          "time": 343.276238,
          "velocity": 0.8661417322834646
        },
        {
          "duration": 0.2097722226562837,
          "durationTicks": 501,
          "midi": 70,
          "name": "A#4",
          "ticks": 788480,
          "time": 343.490616,
          "velocity": 0.8661417322834646
        },
        {
          "duration": 0.20977222265622686,
          "durationTicks": 501,
          "midi": 70,
          "name": "A#4",
          "ticks": 788992,
          "time": 343.704994,
          "velocity": 0.8661417322834646
        },
        {
          "duration": 0.4241502226562375,
          "durationTicks": 1013,
          "midi": 72,
          "name": "C5",
          "ticks": 798208,
          "time": 347.563798,
          "velocity": 0.8661417322834646
        },
        {
          "duration": 0.2097722226562837,
          "durationTicks": 501,
          "midi": 72,
          "name": "C5",
          "ticks": 799232,
          "time": 347.992554,
          "velocity": 0.8661417322834646
        },
        {
          "duration": 0.2097722226562837,
          "durationTicks": 501,
          "midi": 69,
          "name": "A4",
          "ticks": 799744,
          "time": 348.206932,
          "velocity": 0.8661417322834646
        },
        {
          "duration": 0.20977222265622686,
          "durationTicks": 501,
          "midi": 69,
          "name": "A4",
          "ticks": 800256,
          "time": 348.42131,
          "velocity": 0.8661417322834646
        },
        {
          "duration": 0.20977222265622686,
          "durationTicks": 501,
          "midi": 70,
          "name": "A#4",
          "ticks": 800768,
          "time": 348.635688,
          "velocity": 0.8661417322834646
        },
        {
          "duration": 0.20977222265622686,
          "durationTicks": 501,
          "midi": 70,
          "name": "A#4",
          "ticks": 801280,
          "time": 348.850066,
          "velocity": 0.8661417322834646
        },
        {
          "duration": 0.4241502226562375,
          "durationTicks": 1013,
          "midi": 65,
          "name": "F4",
          "ticks": 806400,
          "time": 350.993846,
          "velocity": 0.8661417322834646
        },
        {
          "duration": 0.2097722226562837,
          "durationTicks": 501,
          "midi": 65,
          "name": "F4",
          "ticks": 807424,
          "time": 351.422602,
          "velocity": 0.8661417322834646
        },
        {
          "duration": 0.2097722226562837,
          "durationTicks": 501,
          "midi": 62,
          "name": "D4",
          "ticks": 807936,
          "time": 351.63698,
          "velocity": 0.8661417322834646
        },
        {
          "duration": 0.20977222265622686,
          "durationTicks": 501,
          "midi": 62,
          "name": "D4",
          "ticks": 808448,
          "time": 351.851358,
          "velocity": 0.8661417322834646
        },
        {
          "duration": 0.20977222265622686,
          "durationTicks": 501,
          "midi": 63,
          "name": "D#4",
          "ticks": 808960,
          "time": 352.065736,
          "velocity": 0.8661417322834646
        },
        {
          "duration": 0.20977222265622686,
          "durationTicks": 501,
          "midi": 63,
          "name": "D#4",
          "ticks": 809472,
          "time": 352.280114,
          "velocity": 0.8661417322834646
        },
        {
          "duration": 0.4241502226562375,
          "durationTicks": 1013,
          "midi": 65,
          "name": "F4",
          "ticks": 814592,
          "time": 354.423894,
          "velocity": 0.8661417322834646
        },
        {
          "duration": 0.2097722226562837,
          "durationTicks": 501,
          "midi": 65,
          "name": "F4",
          "ticks": 815616,
          "time": 354.85265,
          "velocity": 0.8661417322834646
        },
        {
          "duration": 0.2097722226562837,
          "durationTicks": 501,
          "midi": 62,
          "name": "D4",
          "ticks": 816128,
          "time": 355.067028,
          "velocity": 0.8661417322834646
        },
        {
          "duration": 0.20977222265622686,
          "durationTicks": 501,
          "midi": 62,
          "name": "D4",
          "ticks": 816640,
          "time": 355.281406,
          "velocity": 0.8661417322834646
        },
        {
          "duration": 0.20977222265622686,
          "durationTicks": 501,
          "midi": 63,
          "name": "D#4",
          "ticks": 817152,
          "time": 355.495784,
          "velocity": 0.8661417322834646
        },
        {
          "duration": 0.20977222265622686,
          "durationTicks": 501,
          "midi": 63,
          "name": "D#4",
          "ticks": 817664,
          "time": 355.710162,
          "velocity": 0.8661417322834646
        },
        {
          "duration": 0.20977222265622686,
          "durationTicks": 501,
          "midi": 60,
          "name": "C4",
          "ticks": 827392,
          "time": 359.783344,
          "velocity": 0.8661417322834646
        },
        {
          "duration": 0.20977222265622686,
          "durationTicks": 501,
          "midi": 72,
          "name": "C5",
          "ticks": 827904,
          "time": 359.997722,
          "velocity": 0.8661417322834646
        },
        {
          "duration": 0.20977222265622686,
          "durationTicks": 501,
          "midi": 57,
          "name": "A3",
          "ticks": 828416,
          "time": 360.2121,
          "velocity": 0.8661417322834646
        },
        {
          "duration": 0.2097722226562837,
          "durationTicks": 501,
          "midi": 69,
          "name": "A4",
          "ticks": 828928,
          "time": 360.426478,
          "velocity": 0.8661417322834646
        },
        {
          "duration": 0.2097722226562837,
          "durationTicks": 501,
          "midi": 58,
          "name": "A#3",
          "ticks": 829440,
          "time": 360.640856,
          "velocity": 0.8661417322834646
        },
        {
          "duration": 0.2097722226562837,
          "durationTicks": 501,
          "midi": 70,
          "name": "A#4",
          "ticks": 829952,
          "time": 360.855234,
          "velocity": 0.8661417322834646
        },
        {
          "duration": 0.2097722226562837,
          "durationTicks": 501,
          "midi": 60,
          "name": "C4",
          "ticks": 835584,
          "time": 363.213392,
          "velocity": 0.8661417322834646
        },
        {
          "duration": 0.20977222265622686,
          "durationTicks": 501,
          "midi": 72,
          "name": "C5",
          "ticks": 836096,
          "time": 363.42777,
          "velocity": 0.8661417322834646
        },
        {
          "duration": 0.20977222265622686,
          "durationTicks": 501,
          "midi": 57,
          "name": "A3",
          "ticks": 836608,
          "time": 363.642148,
          "velocity": 0.8661417322834646
        },
        {
          "duration": 0.20977222265622686,
          "durationTicks": 501,
          "midi": 69,
          "name": "A4",
          "ticks": 837120,
          "time": 363.85652600000003,
          "velocity": 0.8661417322834646
        },
        {
          "duration": 0.2097722226562837,
          "durationTicks": 501,
          "midi": 58,
          "name": "A#3",
          "ticks": 837632,
          "time": 364.070904,
          "velocity": 0.8661417322834646
        },
        {
          "duration": 0.2097722226562837,
          "durationTicks": 501,
          "midi": 70,
          "name": "A#4",
          "ticks": 838144,
          "time": 364.285282,
          "velocity": 0.8661417322834646
        },
        {
          "duration": 0.20977222265622686,
          "durationTicks": 501,
          "midi": 53,
          "name": "F3",
          "ticks": 843776,
          "time": 366.64344,
          "velocity": 0.8661417322834646
        },
        {
          "duration": 0.20977222265622686,
          "durationTicks": 501,
          "midi": 65,
          "name": "F4",
          "ticks": 844288,
          "time": 366.857818,
          "velocity": 0.8661417322834646
        },
        {
          "duration": 0.20977222265622686,
          "durationTicks": 501,
          "midi": 50,
          "name": "D3",
          "ticks": 844800,
          "time": 367.072196,
          "velocity": 0.8661417322834646
        },
        {
          "duration": 0.2097722226562837,
          "durationTicks": 501,
          "midi": 62,
          "name": "D4",
          "ticks": 845312,
          "time": 367.286574,
          "velocity": 0.8661417322834646
        },
        {
          "duration": 0.2097722226562837,
          "durationTicks": 501,
          "midi": 51,
          "name": "D#3",
          "ticks": 845824,
          "time": 367.500952,
          "velocity": 0.8661417322834646
        },
        {
          "duration": 0.2097722226562837,
          "durationTicks": 501,
          "midi": 63,
          "name": "D#4",
          "ticks": 846336,
          "time": 367.71533,
          "velocity": 0.8661417322834646
        },
        {
          "duration": 0.2097722226562837,
          "durationTicks": 501,
          "midi": 53,
          "name": "F3",
          "ticks": 851968,
          "time": 370.073488,
          "velocity": 0.8661417322834646
        },
        {
          "duration": 0.20977222265622686,
          "durationTicks": 501,
          "midi": 65,
          "name": "F4",
          "ticks": 852480,
          "time": 370.287866,
          "velocity": 0.8661417322834646
        },
        {
          "duration": 0.20977222265622686,
          "durationTicks": 501,
          "midi": 50,
          "name": "D3",
          "ticks": 852992,
          "time": 370.502244,
          "velocity": 0.8661417322834646
        },
        {
          "duration": 0.20977222265622686,
          "durationTicks": 501,
          "midi": 62,
          "name": "D4",
          "ticks": 853504,
          "time": 370.71662200000003,
          "velocity": 0.8661417322834646
        },
        {
          "duration": 0.2097722226562837,
          "durationTicks": 501,
          "midi": 51,
          "name": "D#3",
          "ticks": 854016,
          "time": 370.931,
          "velocity": 0.8661417322834646
        },
        {
          "duration": 0.20977222265622686,
          "durationTicks": 501,
          "midi": 63,
          "name": "D#4",
          "ticks": 854528,
          "time": 371.145378,
          "velocity": 0.8661417322834646
        },
        {
          "duration": 0.1025832226562784,
          "durationTicks": 245,
          "midi": 63,
          "name": "D#4",
          "ticks": 859392,
          "time": 373.181969,
          "velocity": 0.8661417322834646
        },
        {
          "duration": 0.1025832226562784,
          "durationTicks": 245,
          "midi": 62,
          "name": "D4",
          "ticks": 859648,
          "time": 373.289158,
          "velocity": 0.8661417322834646
        },
        {
          "duration": 0.1025832226562784,
          "durationTicks": 245,
          "midi": 61,
          "name": "C#4",
          "ticks": 859904,
          "time": 373.396347,
          "velocity": 0.8661417322834646
        },
        {
          "duration": 0.3571570976562839,
          "durationTicks": 853,
          "midi": 60,
          "name": "C4",
          "ticks": 860160,
          "time": 373.503536,
          "velocity": 0.8661417322834646
        },
        {
          "duration": 0.35715709765622705,
          "durationTicks": 853,
          "midi": 63,
          "name": "D#4",
          "ticks": 861184,
          "time": 373.932292,
          "velocity": 0.8661417322834646
        },
        {
          "duration": 0.3571570976562839,
          "durationTicks": 853,
          "midi": 62,
          "name": "D4",
          "ticks": 862208,
          "time": 374.361048,
          "velocity": 0.8661417322834646
        },
        {
          "duration": 0.35715709765622705,
          "durationTicks": 853,
          "midi": 56,
          "name": "G#3",
          "ticks": 863232,
          "time": 374.789804,
          "velocity": 0.8661417322834646
        },
        {
          "duration": 0.35715709765622705,
          "durationTicks": 853,
          "midi": 55,
          "name": "G3",
          "ticks": 864256,
          "time": 375.21856,
          "velocity": 0.8661417322834646
        },
        {
          "duration": 0.3571570976562839,
          "durationTicks": 853,
          "midi": 61,
          "name": "C#4",
          "ticks": 865280,
          "time": 375.647316,
          "velocity": 0.8661417322834646
        },
        {
          "duration": 0.15617772265625263,
          "durationTicks": 373,
          "midi": 60,
          "name": "C4",
          "ticks": 866304,
          "time": 376.076072,
          "velocity": 0.8661417322834646
        },
        {
          "duration": 0.15617772265625263,
          "durationTicks": 373,
          "midi": 66,
          "name": "F#4",
          "ticks": 866688,
          "time": 376.2368555,
          "velocity": 0.8661417322834646
        },
        {
          "duration": 0.10258322265622155,
          "durationTicks": 245,
          "midi": 65,
          "name": "F4",
          "ticks": 867072,
          "time": 376.397639,
          "velocity": 0.8661417322834646
        },
        {
          "duration": 0.15617772265625263,
          "durationTicks": 373,
          "midi": 64,
          "name": "E4",
          "ticks": 867328,
          "time": 376.504828,
          "velocity": 0.8661417322834646
        },
        {
          "duration": 0.15617772265625263,
          "durationTicks": 373,
          "midi": 71,
          "name": "B4",
          "ticks": 867712,
          "time": 376.6656115,
          "velocity": 0.8661417322834646
        },
        {
          "duration": 0.1025832226562784,
          "durationTicks": 245,
          "midi": 70,
          "name": "A#4",
          "ticks": 868096,
          "time": 376.826395,
          "velocity": 0.8661417322834646
        },
        {
          "duration": 0.31696122265623217,
          "durationTicks": 757,
          "midi": 69,
          "name": "A4",
          "ticks": 868352,
          "time": 376.933584,
          "velocity": 0.8661417322834646
        },
        {
          "duration": 0.10258322265622155,
          "durationTicks": 245,
          "midi": 63,
          "name": "D#4",
          "ticks": 869120,
          "time": 377.255151,
          "velocity": 0.8661417322834646
        },
        {
          "duration": 0.31696122265623217,
          "durationTicks": 757,
          "midi": 59,
          "name": "B3",
          "ticks": 869632,
          "time": 377.469529,
          "velocity": 0.8661417322834646
        },
        {
          "duration": 0.316961222656289,
          "durationTicks": 757,
          "midi": 58,
          "name": "A#3",
          "ticks": 870400,
          "time": 377.791096,
          "velocity": 0.8661417322834646
        },
        {
          "duration": 0.1025832226562784,
          "durationTicks": 245,
          "midi": 57,
          "name": "A3",
          "ticks": 871168,
          "time": 378.112663,
          "velocity": 0.8661417322834646
        },
        {
          "duration": 0.20977222265622686,
          "durationTicks": 501,
          "midi": 56,
          "name": "G#3",
          "ticks": 871936,
          "time": 378.43423,
          "velocity": 0.8661417322834646
        },
        {
          "duration": 0.20977222265622686,
          "durationTicks": 501,
          "midi": 60,
          "name": "C4",
          "ticks": 876544,
          "time": 380.363632,
          "velocity": 0.8661417322834646
        },
        {
          "duration": 0.20977222265622686,
          "durationTicks": 501,
          "midi": 72,
          "name": "C5",
          "ticks": 877056,
          "time": 380.57801,
          "velocity": 0.8661417322834646
        },
        {
          "duration": 0.20977222265622686,
          "durationTicks": 501,
          "midi": 57,
          "name": "A3",
          "ticks": 877568,
          "time": 380.792388,
          "velocity": 0.8661417322834646
        },
        {
          "duration": 0.2097722226562837,
          "durationTicks": 501,
          "midi": 69,
          "name": "A4",
          "ticks": 878080,
          "time": 381.00676599999997,
          "velocity": 0.8661417322834646
        },
        {
          "duration": 0.2097722226562837,
          "durationTicks": 501,
          "midi": 58,
          "name": "A#3",
          "ticks": 878592,
          "time": 381.221144,
          "velocity": 0.8661417322834646
        },
        {
          "duration": 0.2097722226562837,
          "durationTicks": 501,
          "midi": 70,
          "name": "A#4",
          "ticks": 879104,
          "time": 381.435522,
          "velocity": 0.8661417322834646
        },
        {
          "duration": 0.2097722226562837,
          "durationTicks": 501,
          "midi": 60,
          "name": "C4",
          "ticks": 884736,
          "time": 383.79368,
          "velocity": 0.8661417322834646
        },
        {
          "duration": 0.20977222265622686,
          "durationTicks": 501,
          "midi": 72,
          "name": "C5",
          "ticks": 885248,
          "time": 384.008058,
          "velocity": 0.8661417322834646
        },
        {
          "duration": 0.20977222265622686,
          "durationTicks": 501,
          "midi": 57,
          "name": "A3",
          "ticks": 885760,
          "time": 384.222436,
          "velocity": 0.8661417322834646
        },
        {
          "duration": 0.20977222265622686,
          "durationTicks": 501,
          "midi": 69,
          "name": "A4",
          "ticks": 886272,
          "time": 384.436814,
          "velocity": 0.8661417322834646
        },
        {
          "duration": 0.2097722226562837,
          "durationTicks": 501,
          "midi": 58,
          "name": "A#3",
          "ticks": 886784,
          "time": 384.651192,
          "velocity": 0.8661417322834646
        },
        {
          "duration": 0.2097722226562837,
          "durationTicks": 501,
          "midi": 70,
          "name": "A#4",
          "ticks": 887296,
          "time": 384.86557,
          "velocity": 0.8661417322834646
        },
        {
          "duration": 0.20977222265622686,
          "durationTicks": 501,
          "midi": 53,
          "name": "F3",
          "ticks": 892928,
          "time": 387.223728,
          "velocity": 0.8661417322834646
        },
        {
          "duration": 0.20977222265622686,
          "durationTicks": 501,
          "midi": 65,
          "name": "F4",
          "ticks": 893440,
          "time": 387.438106,
          "velocity": 0.8661417322834646
        },
        {
          "duration": 0.20977222265622686,
          "durationTicks": 501,
          "midi": 50,
          "name": "D3",
          "ticks": 893952,
          "time": 387.652484,
          "velocity": 0.8661417322834646
        },
        {
          "duration": 0.2097722226562837,
          "durationTicks": 501,
          "midi": 62,
          "name": "D4",
          "ticks": 894464,
          "time": 387.86686199999997,
          "velocity": 0.8661417322834646
        },
        {
          "duration": 0.2097722226562837,
          "durationTicks": 501,
          "midi": 51,
          "name": "D#3",
          "ticks": 894976,
          "time": 388.08124,
          "velocity": 0.8661417322834646
        },
        {
          "duration": 0.2097722226562837,
          "durationTicks": 501,
          "midi": 63,
          "name": "D#4",
          "ticks": 895488,
          "time": 388.295618,
          "velocity": 0.8661417322834646
        },
        {
          "duration": 0.2097722226562837,
          "durationTicks": 501,
          "midi": 53,
          "name": "F3",
          "ticks": 901120,
          "time": 390.653776,
          "velocity": 0.8661417322834646
        },
        {
          "duration": 0.20977222265622686,
          "durationTicks": 501,
          "midi": 65,
          "name": "F4",
          "ticks": 901632,
          "time": 390.868154,
          "velocity": 0.8661417322834646
        },
        {
          "duration": 0.20977222265622686,
          "durationTicks": 501,
          "midi": 50,
          "name": "D3",
          "ticks": 902144,
          "time": 391.082532,
          "velocity": 0.8661417322834646
        },
        {
          "duration": 0.20977222265622686,
          "durationTicks": 501,
          "midi": 62,
          "name": "D4",
          "ticks": 902656,
          "time": 391.29691,
          "velocity": 0.8661417322834646
        },
        {
          "duration": 0.2097722226562837,
          "durationTicks": 501,
          "midi": 51,
          "name": "D#3",
          "ticks": 903168,
          "time": 391.511288,
          "velocity": 0.8661417322834646
        },
        {
          "duration": 0.2097722226562837,
          "durationTicks": 501,
          "midi": 63,
          "name": "D#4",
          "ticks": 903680,
          "time": 391.725666,
          "velocity": 0.8661417322834646
        },
        {
          "duration": 0.1025832226562784,
          "durationTicks": 245,
          "midi": 63,
          "name": "D#4",
          "ticks": 908544,
          "time": 393.762257,
          "velocity": 0.8661417322834646
        },
        {
          "duration": 0.1025832226562784,
          "durationTicks": 245,
          "midi": 62,
          "name": "D4",
          "ticks": 908800,
          "time": 393.869446,
          "velocity": 0.8661417322834646
        },
        {
          "duration": 0.1025832226562784,
          "durationTicks": 245,
          "midi": 61,
          "name": "C#4",
          "ticks": 909056,
          "time": 393.976635,
          "velocity": 0.8661417322834646
        },
        {
          "duration": 0.3571570976562839,
          "durationTicks": 853,
          "midi": 60,
          "name": "C4",
          "ticks": 909312,
          "time": 394.083824,
          "velocity": 0.8661417322834646
        },
        {
          "duration": 0.35715709765622705,
          "durationTicks": 853,
          "midi": 63,
          "name": "D#4",
          "ticks": 910336,
          "time": 394.51258,
          "velocity": 0.8661417322834646
        },
        {
          "duration": 0.3571570976562839,
          "durationTicks": 853,
          "midi": 62,
          "name": "D4",
          "ticks": 911360,
          "time": 394.941336,
          "velocity": 0.8661417322834646
        },
        {
          "duration": 0.35715709765622705,
          "durationTicks": 853,
          "midi": 56,
          "name": "G#3",
          "ticks": 912384,
          "time": 395.370092,
          "velocity": 0.8661417322834646
        },
        {
          "duration": 0.35715709765622705,
          "durationTicks": 853,
          "midi": 55,
          "name": "G3",
          "ticks": 913408,
          "time": 395.798848,
          "velocity": 0.8661417322834646
        },
        {
          "duration": 0.3571570976562839,
          "durationTicks": 853,
          "midi": 61,
          "name": "C#4",
          "ticks": 914432,
          "time": 396.227604,
          "velocity": 0.8661417322834646
        },
        {
          "duration": 0.15617772265625263,
          "durationTicks": 373,
          "midi": 60,
          "name": "C4",
          "ticks": 915456,
          "time": 396.65636,
          "velocity": 0.8661417322834646
        },
        {
          "duration": 0.15617772265625263,
          "durationTicks": 373,
          "midi": 66,
          "name": "F#4",
          "ticks": 915840,
          "time": 396.8171435,
          "velocity": 0.8661417322834646
        },
        {
          "duration": 0.10258322265622155,
          "durationTicks": 245,
          "midi": 65,
          "name": "F4",
          "ticks": 916224,
          "time": 396.977927,
          "velocity": 0.8661417322834646
        },
        {
          "duration": 0.15617772265625263,
          "durationTicks": 373,
          "midi": 64,
          "name": "E4",
          "ticks": 916480,
          "time": 397.08511599999997,
          "velocity": 0.8661417322834646
        },
        {
          "duration": 0.15617772265625263,
          "durationTicks": 373,
          "midi": 71,
          "name": "B4",
          "ticks": 916864,
          "time": 397.2458995,
          "velocity": 0.8661417322834646
        },
        {
          "duration": 0.1025832226562784,
          "durationTicks": 245,
          "midi": 70,
          "name": "A#4",
          "ticks": 917248,
          "time": 397.406683,
          "velocity": 0.8661417322834646
        },
        {
          "duration": 0.31696122265623217,
          "durationTicks": 757,
          "midi": 69,
          "name": "A4",
          "ticks": 917504,
          "time": 397.513872,
          "velocity": 0.8661417322834646
        },
        {
          "duration": 0.10258322265622155,
          "durationTicks": 245,
          "midi": 63,
          "name": "D#4",
          "ticks": 918272,
          "time": 397.835439,
          "velocity": 0.8661417322834646
        },
        {
          "duration": 0.31696122265623217,
          "durationTicks": 757,
          "midi": 59,
          "name": "B3",
          "ticks": 918784,
          "time": 398.049817,
          "velocity": 0.8661417322834646
        },
        {
          "duration": 0.316961222656289,
          "durationTicks": 757,
          "midi": 58,
          "name": "A#3",
          "ticks": 919552,
          "time": 398.371384,
          "velocity": 0.8661417322834646
        },
        {
          "duration": 0.1025832226562784,
          "durationTicks": 245,
          "midi": 57,
          "name": "A3",
          "ticks": 920320,
          "time": 398.692951,
          "velocity": 0.8661417322834646
        },
        {
          "duration": 0.20977222265622686,
          "durationTicks": 501,
          "midi": 56,
          "name": "G#3",
          "ticks": 921088,
          "time": 399.014518,
          "velocity": 0.8661417322834646
        },
        {
          "duration": 0.3571570976562839,
          "durationTicks": 853,
          "midi": 72,
          "name": "C5",
          "ticks": 925696,
          "time": 400.94392,
          "velocity": 0.8661417322834646
        },
        {
          "duration": 0.3571570976562839,
          "durationTicks": 853,
          "midi": 76,
          "name": "E5",
          "ticks": 925696,
          "time": 400.94392,
          "velocity": 0.8661417322834646
        },
        {
          "duration": 0.3571570976562839,
          "durationTicks": 853,
          "midi": 79,
          "name": "G5",
          "ticks": 925696,
          "time": 400.94392,
          "velocity": 0.8661417322834646
        },
        {
          "duration": 0.2097722226562837,
          "durationTicks": 501,
          "midi": 72,
          "name": "C5",
          "ticks": 927232,
          "time": 401.58705399999997,
          "velocity": 0.8661417322834646
        },
        {
          "duration": 0.2097722226562837,
          "durationTicks": 501,
          "midi": 77,
          "name": "F5",
          "ticks": 927232,
          "time": 401.58705399999997,
          "velocity": 0.8661417322834646
        },
        {
          "duration": 0.2097722226562837,
          "durationTicks": 501,
          "midi": 81,
          "name": "A5",
          "ticks": 927232,
          "time": 401.58705399999997,
          "velocity": 0.8661417322834646
        },
        {
          "duration": 0.2097722226562837,
          "durationTicks": 501,
          "midi": 72,
          "name": "C5",
          "ticks": 928256,
          "time": 402.01581,
          "velocity": 0.8661417322834646
        },
        {
          "duration": 0.2097722226562837,
          "durationTicks": 501,
          "midi": 76,
          "name": "E5",
          "ticks": 928256,
          "time": 402.01581,
          "velocity": 0.8661417322834646
        },
        {
          "duration": 0.2097722226562837,
          "durationTicks": 501,
          "midi": 79,
          "name": "G5",
          "ticks": 928256,
          "time": 402.01581,
          "velocity": 0.8661417322834646
        },
        {
          "duration": 0.20977222265622686,
          "durationTicks": 501,
          "midi": 72,
          "name": "C5",
          "ticks": 929280,
          "time": 402.444566,
          "velocity": 0.8661417322834646
        },
        {
          "duration": 0.20977222265622686,
          "durationTicks": 501,
          "midi": 75,
          "name": "D#5",
          "ticks": 929280,
          "time": 402.444566,
          "velocity": 0.8661417322834646
        },
        {
          "duration": 0.20977222265622686,
          "durationTicks": 501,
          "midi": 78,
          "name": "F#5",
          "ticks": 929280,
          "time": 402.444566,
          "velocity": 0.8661417322834646
        },
        {
          "duration": 0.20977222265622686,
          "durationTicks": 501,
          "midi": 72,
          "name": "C5",
          "ticks": 929792,
          "time": 402.658944,
          "velocity": 0.8661417322834646
        },
        {
          "duration": 0.20977222265622686,
          "durationTicks": 501,
          "midi": 76,
          "name": "E5",
          "ticks": 929792,
          "time": 402.658944,
          "velocity": 0.8661417322834646
        },
        {
          "duration": 0.20977222265622686,
          "durationTicks": 501,
          "midi": 79,
          "name": "G5",
          "ticks": 929792,
          "time": 402.658944,
          "velocity": 0.8661417322834646
        },
        {
          "duration": 0.20977222265622686,
          "durationTicks": 501,
          "midi": 76,
          "name": "E5",
          "ticks": 930304,
          "time": 402.87332200000003,
          "velocity": 0.8661417322834646
        },
        {
          "duration": 0.20977222265622686,
          "durationTicks": 501,
          "midi": 79,
          "name": "G5",
          "ticks": 930304,
          "time": 402.87332200000003,
          "velocity": 0.8661417322834646
        },
        {
          "duration": 0.20977222265622686,
          "durationTicks": 501,
          "midi": 84,
          "name": "C6",
          "ticks": 930304,
          "time": 402.87332200000003,
          "velocity": 0.8661417322834646
        },
        {
          "duration": 0.3571570976562839,
          "durationTicks": 853,
          "midi": 79,
          "name": "G5",
          "ticks": 930816,
          "time": 403.0877,
          "velocity": 0.8661417322834646
        },
        {
          "duration": 0.3571570976562839,
          "durationTicks": 853,
          "midi": 84,
          "name": "C6",
          "ticks": 930816,
          "time": 403.0877,
          "velocity": 0.8661417322834646
        },
        {
          "duration": 0.3571570976562839,
          "durationTicks": 853,
          "midi": 88,
          "name": "E6",
          "ticks": 930816,
          "time": 403.0877,
          "velocity": 0.8661417322834646
        },
        {
          "duration": 0.2097722226562837,
          "durationTicks": 501,
          "midi": 67,
          "name": "G4",
          "ticks": 932864,
          "time": 403.94521199999997,
          "velocity": 0.8661417322834646
        },
        {
          "duration": 0.2097722226562837,
          "durationTicks": 501,
          "midi": 72,
          "name": "C5",
          "ticks": 933376,
          "time": 404.15959,
          "velocity": 0.8661417322834646
        },
        {
          "duration": 0.35715709765622705,
          "durationTicks": 853,
          "midi": 71,
          "name": "B4",
          "ticks": 933888,
          "time": 404.373968,
          "velocity": 0.8661417322834646
        },
        {
          "duration": 0.35715709765622705,
          "durationTicks": 853,
          "midi": 74,
          "name": "D5",
          "ticks": 933888,
          "time": 404.373968,
          "velocity": 0.8661417322834646
        },
        {
          "duration": 0.35715709765622705,
          "durationTicks": 853,
          "midi": 77,
          "name": "F5",
          "ticks": 933888,
          "time": 404.373968,
          "velocity": 0.8661417322834646
        },
        {
          "duration": 0.20977222265622686,
          "durationTicks": 501,
          "midi": 71,
          "name": "B4",
          "ticks": 935424,
          "time": 405.017102,
          "velocity": 0.8661417322834646
        },
        {
          "duration": 0.20977222265622686,
          "durationTicks": 501,
          "midi": 76,
          "name": "E5",
          "ticks": 935424,
          "time": 405.017102,
          "velocity": 0.8661417322834646
        },
        {
          "duration": 0.20977222265622686,
          "durationTicks": 501,
          "midi": 79,
          "name": "G5",
          "ticks": 935424,
          "time": 405.017102,
          "velocity": 0.8661417322834646
        },
        {
          "duration": 0.2097722226562837,
          "durationTicks": 501,
          "midi": 71,
          "name": "B4",
          "ticks": 936448,
          "time": 405.445858,
          "velocity": 0.8661417322834646
        },
        {
          "duration": 0.2097722226562837,
          "durationTicks": 501,
          "midi": 74,
          "name": "D5",
          "ticks": 936448,
          "time": 405.445858,
          "velocity": 0.8661417322834646
        },
        {
          "duration": 0.2097722226562837,
          "durationTicks": 501,
          "midi": 77,
          "name": "F5",
          "ticks": 936448,
          "time": 405.445858,
          "velocity": 0.8661417322834646
        },
        {
          "duration": 0.20977222265622686,
          "durationTicks": 501,
          "midi": 70,
          "name": "A#4",
          "ticks": 937472,
          "time": 405.874614,
          "velocity": 0.8661417322834646
        },
        {
          "duration": 0.20977222265622686,
          "durationTicks": 501,
          "midi": 73,
          "name": "C#5",
          "ticks": 937472,
          "time": 405.874614,
          "velocity": 0.8661417322834646
        },
        {
          "duration": 0.20977222265622686,
          "durationTicks": 501,
          "midi": 76,
          "name": "E5",
          "ticks": 937472,
          "time": 405.874614,
          "velocity": 0.8661417322834646
        },
        {
          "duration": 0.20977222265622686,
          "durationTicks": 501,
          "midi": 71,
          "name": "B4",
          "ticks": 937984,
          "time": 406.088992,
          "velocity": 0.8661417322834646
        },
        {
          "duration": 0.20977222265622686,
          "durationTicks": 501,
          "midi": 74,
          "name": "D5",
          "ticks": 937984,
          "time": 406.088992,
          "velocity": 0.8661417322834646
        },
        {
          "duration": 0.20977222265622686,
          "durationTicks": 501,
          "midi": 77,
          "name": "F5",
          "ticks": 937984,
          "time": 406.088992,
          "velocity": 0.8661417322834646
        },
        {
          "duration": 0.2097722226562837,
          "durationTicks": 501,
          "midi": 74,
          "name": "D5",
          "ticks": 938496,
          "time": 406.30337,
          "velocity": 0.8661417322834646
        },
        {
          "duration": 0.2097722226562837,
          "durationTicks": 501,
          "midi": 79,
          "name": "G5",
          "ticks": 938496,
          "time": 406.30337,
          "velocity": 0.8661417322834646
        },
        {
          "duration": 0.2097722226562837,
          "durationTicks": 501,
          "midi": 83,
          "name": "B5",
          "ticks": 938496,
          "time": 406.30337,
          "velocity": 0.8661417322834646
        },
        {
          "duration": 0.3571570976562839,
          "durationTicks": 853,
          "midi": 79,
          "name": "G5",
          "ticks": 939008,
          "time": 406.517748,
          "velocity": 0.8661417322834646
        },
        {
          "duration": 0.3571570976562839,
          "durationTicks": 853,
          "midi": 83,
          "name": "B5",
          "ticks": 939008,
          "time": 406.517748,
          "velocity": 0.8661417322834646
        },
        {
          "duration": 0.3571570976562839,
          "durationTicks": 853,
          "midi": 86,
          "name": "D6",
          "ticks": 939008,
          "time": 406.517748,
          "velocity": 0.8661417322834646
        },
        {
          "duration": 0.20977222265622686,
          "durationTicks": 501,
          "midi": 67,
          "name": "G4",
          "ticks": 941056,
          "time": 407.37526,
          "velocity": 0.8661417322834646
        },
        {
          "duration": 0.2097722226562837,
          "durationTicks": 501,
          "midi": 71,
          "name": "B4",
          "ticks": 941568,
          "time": 407.589638,
          "velocity": 0.8661417322834646
        },
        {
          "duration": 0.3571570976562839,
          "durationTicks": 853,
          "midi": 69,
          "name": "A4",
          "ticks": 942080,
          "time": 407.804016,
          "velocity": 0.8661417322834646
        },
        {
          "duration": 0.3571570976562839,
          "durationTicks": 853,
          "midi": 72,
          "name": "C5",
          "ticks": 942080,
          "time": 407.804016,
          "velocity": 0.8661417322834646
        },
        {
          "duration": 0.3571570976562839,
          "durationTicks": 853,
          "midi": 76,
          "name": "E5",
          "ticks": 942080,
          "time": 407.804016,
          "velocity": 0.8661417322834646
        },
        {
          "duration": 0.2097722226562837,
          "durationTicks": 501,
          "midi": 69,
          "name": "A4",
          "ticks": 943616,
          "time": 408.44714999999997,
          "velocity": 0.8661417322834646
        },
        {
          "duration": 0.2097722226562837,
          "durationTicks": 501,
          "midi": 74,
          "name": "D5",
          "ticks": 943616,
          "time": 408.44714999999997,
          "velocity": 0.8661417322834646
        },
        {
          "duration": 0.2097722226562837,
          "durationTicks": 501,
          "midi": 77,
          "name": "F5",
          "ticks": 943616,
          "time": 408.44714999999997,
          "velocity": 0.8661417322834646
        },
        {
          "duration": 0.2097722226562837,
          "durationTicks": 501,
          "midi": 69,
          "name": "A4",
          "ticks": 944640,
          "time": 408.875906,
          "velocity": 0.8661417322834646
        },
        {
          "duration": 0.2097722226562837,
          "durationTicks": 501,
          "midi": 72,
          "name": "C5",
          "ticks": 944640,
          "time": 408.875906,
          "velocity": 0.8661417322834646
        },
        {
          "duration": 0.2097722226562837,
          "durationTicks": 501,
          "midi": 76,
          "name": "E5",
          "ticks": 944640,
          "time": 408.875906,
          "velocity": 0.8661417322834646
        },
        {
          "duration": 0.20977222265622686,
          "durationTicks": 501,
          "midi": 68,
          "name": "G#4",
          "ticks": 945664,
          "time": 409.304662,
          "velocity": 0.8661417322834646
        },
        {
          "duration": 0.20977222265622686,
          "durationTicks": 501,
          "midi": 71,
          "name": "B4",
          "ticks": 945664,
          "time": 409.304662,
          "velocity": 0.8661417322834646
        },
        {
          "duration": 0.20977222265622686,
          "durationTicks": 501,
          "midi": 75,
          "name": "D#5",
          "ticks": 945664,
          "time": 409.304662,
          "velocity": 0.8661417322834646
        },
        {
          "duration": 0.20977222265622686,
          "durationTicks": 501,
          "midi": 69,
          "name": "A4",
          "ticks": 946176,
          "time": 409.51904,
          "velocity": 0.8661417322834646
        },
        {
          "duration": 0.20977222265622686,
          "durationTicks": 501,
          "midi": 72,
          "name": "C5",
          "ticks": 946176,
          "time": 409.51904,
          "velocity": 0.8661417322834646
        },
        {
          "duration": 0.20977222265622686,
          "durationTicks": 501,
          "midi": 76,
          "name": "E5",
          "ticks": 946176,
          "time": 409.51904,
          "velocity": 0.8661417322834646
        },
        {
          "duration": 0.20977222265622686,
          "durationTicks": 501,
          "midi": 72,
          "name": "C5",
          "ticks": 946688,
          "time": 409.73341800000003,
          "velocity": 0.8661417322834646
        },
        {
          "duration": 0.20977222265622686,
          "durationTicks": 501,
          "midi": 76,
          "name": "E5",
          "ticks": 946688,
          "time": 409.73341800000003,
          "velocity": 0.8661417322834646
        },
        {
          "duration": 0.20977222265622686,
          "durationTicks": 501,
          "midi": 81,
          "name": "A5",
          "ticks": 946688,
          "time": 409.73341800000003,
          "velocity": 0.8661417322834646
        },
        {
          "duration": 0.3571570976562839,
          "durationTicks": 853,
          "midi": 76,
          "name": "E5",
          "ticks": 947200,
          "time": 409.947796,
          "velocity": 0.8661417322834646
        },
        {
          "duration": 0.3571570976562839,
          "durationTicks": 853,
          "midi": 81,
          "name": "A5",
          "ticks": 947200,
          "time": 409.947796,
          "velocity": 0.8661417322834646
        },
        {
          "duration": 0.3571570976562839,
          "durationTicks": 853,
          "midi": 84,
          "name": "C6",
          "ticks": 947200,
          "time": 409.947796,
          "velocity": 0.8661417322834646
        },
        {
          "duration": 0.20977222265622686,
          "durationTicks": 501,
          "midi": 72,
          "name": "C5",
          "ticks": 948736,
          "time": 410.59093,
          "velocity": 0.8661417322834646
        },
        {
          "duration": 0.20977222265622686,
          "durationTicks": 501,
          "midi": 76,
          "name": "E5",
          "ticks": 948736,
          "time": 410.59093,
          "velocity": 0.8661417322834646
        },
        {
          "duration": 0.20977222265622686,
          "durationTicks": 501,
          "midi": 81,
          "name": "A5",
          "ticks": 948736,
          "time": 410.59093,
          "velocity": 0.8661417322834646
        },
        {
          "duration": 0.2097722226562837,
          "durationTicks": 501,
          "midi": 74,
          "name": "D5",
          "ticks": 949248,
          "time": 410.80530799999997,
          "velocity": 0.8661417322834646
        },
        {
          "duration": 0.2097722226562837,
          "durationTicks": 501,
          "midi": 78,
          "name": "F#5",
          "ticks": 949248,
          "time": 410.80530799999997,
          "velocity": 0.8661417322834646
        },
        {
          "duration": 0.2097722226562837,
          "durationTicks": 501,
          "midi": 83,
          "name": "B5",
          "ticks": 949248,
          "time": 410.80530799999997,
          "velocity": 0.8661417322834646
        },
        {
          "duration": 0.2097722226562837,
          "durationTicks": 501,
          "midi": 69,
          "name": "A4",
          "ticks": 949760,
          "time": 411.019686,
          "velocity": 0.8661417322834646
        },
        {
          "duration": 0.2097722226562837,
          "durationTicks": 501,
          "midi": 76,
          "name": "E5",
          "ticks": 949760,
          "time": 411.019686,
          "velocity": 0.8661417322834646
        },
        {
          "duration": 0.2097722226562837,
          "durationTicks": 501,
          "midi": 81,
          "name": "A5",
          "ticks": 949760,
          "time": 411.019686,
          "velocity": 0.8661417322834646
        },
        {
          "duration": 0.2097722226562837,
          "durationTicks": 501,
          "midi": 84,
          "name": "C6",
          "ticks": 949760,
          "time": 411.019686,
          "velocity": 0.8661417322834646
        },
        {
          "duration": 0.2097722226562837,
          "durationTicks": 501,
          "midi": 78,
          "name": "F#5",
          "ticks": 950272,
          "time": 411.234064,
          "velocity": 0.8661417322834646
        },
        {
          "duration": 0.2097722226562837,
          "durationTicks": 501,
          "midi": 83,
          "name": "B5",
          "ticks": 950272,
          "time": 411.234064,
          "velocity": 0.8661417322834646
        },
        {
          "duration": 0.2097722226562837,
          "durationTicks": 501,
          "midi": 86,
          "name": "D6",
          "ticks": 950272,
          "time": 411.234064,
          "velocity": 0.8661417322834646
        },
        {
          "duration": 0.2097722226562837,
          "durationTicks": 501,
          "midi": 78,
          "name": "F#5",
          "ticks": 950784,
          "time": 411.448442,
          "velocity": 0.8661417322834646
        },
        {
          "duration": 0.2097722226562837,
          "durationTicks": 501,
          "midi": 81,
          "name": "A5",
          "ticks": 950784,
          "time": 411.448442,
          "velocity": 0.8661417322834646
        },
        {
          "duration": 0.2097722226562837,
          "durationTicks": 501,
          "midi": 84,
          "name": "C6",
          "ticks": 950784,
          "time": 411.448442,
          "velocity": 0.8661417322834646
        },
        {
          "duration": 0.20977222265622686,
          "durationTicks": 501,
          "midi": 78,
          "name": "F#5",
          "ticks": 951296,
          "time": 411.66282,
          "velocity": 0.8661417322834646
        },
        {
          "duration": 0.20977222265622686,
          "durationTicks": 501,
          "midi": 83,
          "name": "B5",
          "ticks": 951296,
          "time": 411.66282,
          "velocity": 0.8661417322834646
        },
        {
          "duration": 0.20977222265622686,
          "durationTicks": 501,
          "midi": 86,
          "name": "D6",
          "ticks": 951296,
          "time": 411.66282,
          "velocity": 0.8661417322834646
        },
        {
          "duration": 0.4241502226562375,
          "durationTicks": 1013,
          "midi": 78,
          "name": "F#5",
          "ticks": 951808,
          "time": 411.877198,
          "velocity": 0.8661417322834646
        },
        {
          "duration": 0.4241502226562375,
          "durationTicks": 1013,
          "midi": 81,
          "name": "A5",
          "ticks": 951808,
          "time": 411.877198,
          "velocity": 0.8661417322834646
        },
        {
          "duration": 0.4241502226562375,
          "durationTicks": 1013,
          "midi": 84,
          "name": "C6",
          "ticks": 951808,
          "time": 411.877198,
          "velocity": 0.8661417322834646
        },
        {
          "duration": 0.2097722226562837,
          "durationTicks": 501,
          "midi": 74,
          "name": "D5",
          "ticks": 952832,
          "time": 412.305954,
          "velocity": 0.8661417322834646
        },
        {
          "duration": 0.2097722226562837,
          "durationTicks": 501,
          "midi": 78,
          "name": "F#5",
          "ticks": 952832,
          "time": 412.305954,
          "velocity": 0.8661417322834646
        },
        {
          "duration": 0.2097722226562837,
          "durationTicks": 501,
          "midi": 81,
          "name": "A5",
          "ticks": 952832,
          "time": 412.305954,
          "velocity": 0.8661417322834646
        },
        {
          "duration": 0.20977222265622686,
          "durationTicks": 501,
          "midi": 72,
          "name": "C5",
          "ticks": 953344,
          "time": 412.520332,
          "velocity": 0.8661417322834646
        },
        {
          "duration": 0.20977222265622686,
          "durationTicks": 501,
          "midi": 74,
          "name": "D5",
          "ticks": 953344,
          "time": 412.520332,
          "velocity": 0.8661417322834646
        },
        {
          "duration": 0.20977222265622686,
          "durationTicks": 501,
          "midi": 78,
          "name": "F#5",
          "ticks": 953344,
          "time": 412.520332,
          "velocity": 0.8661417322834646
        },
        {
          "duration": 0.20977222265622686,
          "durationTicks": 501,
          "midi": 69,
          "name": "A4",
          "ticks": 953856,
          "time": 412.73471,
          "velocity": 0.8661417322834646
        },
        {
          "duration": 0.20977222265622686,
          "durationTicks": 501,
          "midi": 72,
          "name": "C5",
          "ticks": 953856,
          "time": 412.73471,
          "velocity": 0.8661417322834646
        },
        {
          "duration": 0.20977222265622686,
          "durationTicks": 501,
          "midi": 74,
          "name": "D5",
          "ticks": 953856,
          "time": 412.73471,
          "velocity": 0.8661417322834646
        },
        {
          "duration": 0.20977222265622686,
          "durationTicks": 501,
          "midi": 69,
          "name": "A4",
          "ticks": 954368,
          "time": 412.949088,
          "velocity": 0.8661417322834646
        },
        {
          "duration": 0.20977222265622686,
          "durationTicks": 501,
          "midi": 72,
          "name": "C5",
          "ticks": 954368,
          "time": 412.949088,
          "velocity": 0.8661417322834646
        },
        {
          "duration": 0.2097722226562837,
          "durationTicks": 501,
          "midi": 69,
          "name": "A4",
          "ticks": 954880,
          "time": 413.16346599999997,
          "velocity": 0.8661417322834646
        },
        {
          "duration": 0.3086543847656458,
          "durationTicks": 853,
          "midi": 69,
          "name": "A4",
          "ticks": 958464,
          "time": 414.664112,
          "velocity": 0.8661417322834646
        },
        {
          "duration": 0.3086543847656458,
          "durationTicks": 853,
          "midi": 74,
          "name": "D5",
          "ticks": 958464,
          "time": 414.664112,
          "velocity": 0.8661417322834646
        },
        {
          "duration": 0.3086543847656458,
          "durationTicks": 853,
          "midi": 76,
          "name": "E5",
          "ticks": 958464,
          "time": 414.664112,
          "velocity": 0.8661417322834646
        },
        {
          "duration": 0.3086543847656458,
          "durationTicks": 853,
          "midi": 69,
          "name": "A4",
          "ticks": 960512,
          "time": 415.405172,
          "velocity": 0.8661417322834646
        },
        {
          "duration": 0.3086543847656458,
          "durationTicks": 853,
          "midi": 74,
          "name": "D5",
          "ticks": 960512,
          "time": 415.405172,
          "velocity": 0.8661417322834646
        },
        {
          "duration": 0.3086543847656458,
          "durationTicks": 853,
          "midi": 76,
          "name": "E5",
          "ticks": 960512,
          "time": 415.405172,
          "velocity": 0.8661417322834646
        },
        {
          "duration": 0.30865438476558893,
          "durationTicks": 853,
          "midi": 69,
          "name": "A4",
          "ticks": 962560,
          "time": 416.146232,
          "velocity": 0.8661417322834646
        },
        {
          "duration": 0.30865438476558893,
          "durationTicks": 853,
          "midi": 74,
          "name": "D5",
          "ticks": 962560,
          "time": 416.146232,
          "velocity": 0.8661417322834646
        },
        {
          "duration": 0.30865438476558893,
          "durationTicks": 853,
          "midi": 76,
          "name": "E5",
          "ticks": 962560,
          "time": 416.146232,
          "velocity": 0.8661417322834646
        },
        {
          "duration": 0.181284697265653,
          "durationTicks": 501,
          "midi": 73,
          "name": "C#5",
          "ticks": 963584,
          "time": 416.51676199999997,
          "velocity": 0.8661417322834646
        },
        {
          "duration": 0.181284697265653,
          "durationTicks": 501,
          "midi": 57,
          "name": "A3",
          "ticks": 964096,
          "time": 416.702027,
          "velocity": 0.8661417322834646
        },
        {
          "duration": 0.30865438476558893,
          "durationTicks": 853,
          "midi": 71,
          "name": "B4",
          "ticks": 964608,
          "time": 416.887292,
          "velocity": 0.8661417322834646
        },
        {
          "duration": 0.3086543847656458,
          "durationTicks": 853,
          "midi": 70,
          "name": "A#4",
          "ticks": 965632,
          "time": 417.257822,
          "velocity": 0.8661417322834646
        },
        {
          "duration": 0.6484274999999684,
          "durationTicks": 1792,
          "midi": 69,
          "name": "A4",
          "ticks": 966656,
          "time": 417.628352,
          "velocity": 0.8661417322834646
        },
        {
          "duration": 0.30865438476558893,
          "durationTicks": 853,
          "midi": 71,
          "name": "B4",
          "ticks": 968704,
          "time": 418.369412,
          "velocity": 0.8661417322834646
        },
        {
          "duration": 0.3086543847656458,
          "durationTicks": 853,
          "midi": 69,
          "name": "A4",
          "ticks": 969728,
          "time": 418.739942,
          "velocity": 0.8661417322834646
        },
        {
          "duration": 1.018957499999999,
          "durationTicks": 2816,
          "midi": 62,
          "name": "D4",
          "ticks": 970752,
          "time": 419.110472,
          "velocity": 0.8661417322834646
        },
        {
          "duration": 0.3086543847656458,
          "durationTicks": 853,
          "midi": 59,
          "name": "B3",
          "ticks": 974848,
          "time": 420.59259199999997,
          "velocity": 0.8661417322834646
        },
        {
          "duration": 0.30865438476558893,
          "durationTicks": 853,
          "midi": 59,
          "name": "B3",
          "ticks": 975872,
          "time": 420.963122,
          "velocity": 0.8661417322834646
        },
        {
          "duration": 0.3086543847656458,
          "durationTicks": 853,
          "midi": 64,
          "name": "E4",
          "ticks": 976896,
          "time": 421.333652,
          "velocity": 0.8661417322834646
        },
        {
          "duration": 0.30865438476558893,
          "durationTicks": 853,
          "midi": 62,
          "name": "D4",
          "ticks": 977920,
          "time": 421.704182,
          "velocity": 0.8661417322834646
        },
        {
          "duration": 1.018957499999999,
          "durationTicks": 2816,
          "midi": 59,
          "name": "B3",
          "ticks": 978944,
          "time": 422.074712,
          "velocity": 0.8661417322834646
        },
        {
          "duration": 0.49391938476560426,
          "durationTicks": 1365,
          "midi": 57,
          "name": "A3",
          "ticks": 983040,
          "time": 423.556832,
          "velocity": 0.8661417322834646
        },
        {
          "duration": 0.4939193847656611,
          "durationTicks": 1365,
          "midi": 57,
          "name": "A3",
          "ticks": 984576,
          "time": 424.112627,
          "velocity": 0.8661417322834646
        },
        {
          "duration": 0.5518146972656268,
          "durationTicks": 1525,
          "midi": 69,
          "name": "A4",
          "ticks": 986112,
          "time": 424.66842199999996,
          "velocity": 0.8661417322834646
        },
        {
          "duration": 0.49391938476560426,
          "durationTicks": 1365,
          "midi": 57,
          "name": "A3",
          "ticks": 987648,
          "time": 425.224217,
          "velocity": 0.8661417322834646
        },
        {
          "duration": 0.30865438476558893,
          "durationTicks": 853,
          "midi": 57,
          "name": "A3",
          "ticks": 989184,
          "time": 425.780012,
          "velocity": 0.8661417322834646
        },
        {
          "duration": 0.3086543847656458,
          "durationTicks": 853,
          "midi": 69,
          "name": "A4",
          "ticks": 990208,
          "time": 426.150542,
          "velocity": 0.8661417322834646
        },
        {
          "duration": 0.6484274999999684,
          "durationTicks": 1792,
          "midi": 57,
          "name": "A3",
          "ticks": 991232,
          "time": 426.521072,
          "velocity": 0.8661417322834646
        },
        {
          "duration": 0.3086543847656458,
          "durationTicks": 853,
          "midi": 69,
          "name": "A4",
          "ticks": 994304,
          "time": 427.632662,
          "velocity": 0.8661417322834646
        },
        {
          "duration": 1.018957499999999,
          "durationTicks": 2816,
          "midi": 64,
          "name": "E4",
          "ticks": 995328,
          "time": 428.003192,
          "velocity": 0.8661417322834646
        },
        {
          "duration": 0.6484275000000252,
          "durationTicks": 1792,
          "midi": 66,
          "name": "F#4",
          "ticks": 999424,
          "time": 429.48531199999996,
          "velocity": 0.8661417322834646
        },
        {
          "duration": 0.3086543847656458,
          "durationTicks": 853,
          "midi": 71,
          "name": "B4",
          "ticks": 1001472,
          "time": 430.22637199999997,
          "velocity": 0.8661417322834646
        },
        {
          "duration": 0.30865438476558893,
          "durationTicks": 853,
          "midi": 69,
          "name": "A4",
          "ticks": 1002496,
          "time": 430.596902,
          "velocity": 0.8661417322834646
        },
        {
          "duration": 1.018957499999999,
          "durationTicks": 2816,
          "midi": 72,
          "name": "C5",
          "ticks": 1003520,
          "time": 430.967432,
          "velocity": 0.8661417322834646
        },
        {
          "duration": 0.3086543847656458,
          "durationTicks": 853,
          "midi": 71,
          "name": "B4",
          "ticks": 1007616,
          "time": 432.449552,
          "velocity": 0.8661417322834646
        },
        {
          "duration": 0.30865438476558893,
          "durationTicks": 853,
          "midi": 71,
          "name": "B4",
          "ticks": 1008640,
          "time": 432.820082,
          "velocity": 0.8661417322834646
        },
        {
          "duration": 0.3086543847656458,
          "durationTicks": 853,
          "midi": 76,
          "name": "E5",
          "ticks": 1009664,
          "time": 433.190612,
          "velocity": 0.8661417322834646
        },
        {
          "duration": 0.3086543847656458,
          "durationTicks": 853,
          "midi": 74,
          "name": "D5",
          "ticks": 1010688,
          "time": 433.56114199999996,
          "velocity": 0.8661417322834646
        },
        {
          "duration": 1.018957499999999,
          "durationTicks": 2816,
          "midi": 71,
          "name": "B4",
          "ticks": 1011712,
          "time": 433.931672,
          "velocity": 0.8661417322834646
        },
        {
          "duration": 0.49391938476560426,
          "durationTicks": 1365,
          "midi": 69,
          "name": "A4",
          "ticks": 1015808,
          "time": 435.413792,
          "velocity": 0.8661417322834646
        },
        {
          "duration": 0.49391938476560426,
          "durationTicks": 1365,
          "midi": 69,
          "name": "A4",
          "ticks": 1017344,
          "time": 435.969587,
          "velocity": 0.8661417322834646
        },
        {
          "duration": 0.5518146972656268,
          "durationTicks": 1525,
          "midi": 57,
          "name": "A3",
          "ticks": 1018880,
          "time": 436.525382,
          "velocity": 0.8661417322834646
        },
        {
          "duration": 0.4939193847656611,
          "durationTicks": 1365,
          "midi": 69,
          "name": "A4",
          "ticks": 1020416,
          "time": 437.08117699999997,
          "velocity": 0.8661417322834646
        },
        {
          "duration": 0.30865438476558893,
          "durationTicks": 853,
          "midi": 57,
          "name": "A3",
          "ticks": 1021952,
          "time": 437.636972,
          "velocity": 0.8661417322834646
        },
        {
          "duration": 0.3086543847656458,
          "durationTicks": 853,
          "midi": 64,
          "name": "E4",
          "ticks": 1022976,
          "time": 438.007502,
          "velocity": 0.8661417322834646
        },
        {
          "duration": 2.1305475000000342,
          "durationTicks": 5888,
          "midi": 62,
          "name": "D4",
          "ticks": 1024000,
          "time": 438.37803199999996,
          "velocity": 0.8661417322834646
        },
        {
          "duration": 0.6484275000000252,
          "durationTicks": 1792,
          "midi": 69,
          "name": "A4",
          "ticks": 1032192,
          "time": 441.342272,
          "velocity": 0.8661417322834646
        },
        {
          "duration": 0.3086543847656458,
          "durationTicks": 853,
          "midi": 71,
          "name": "B4",
          "ticks": 1034240,
          "time": 442.083332,
          "velocity": 0.8661417322834646
        },
        {
          "duration": 0.3086543847656458,
          "durationTicks": 853,
          "midi": 69,
          "name": "A4",
          "ticks": 1035264,
          "time": 442.45386199999996,
          "velocity": 0.8661417322834646
        },
        {
          "duration": 1.018957499999999,
          "durationTicks": 2816,
          "midi": 62,
          "name": "D4",
          "ticks": 1036288,
          "time": 442.824392,
          "velocity": 0.8661417322834646
        },
        {
          "duration": 0.30865438476558893,
          "durationTicks": 853,
          "midi": 59,
          "name": "B3",
          "ticks": 1040384,
          "time": 444.306512,
          "velocity": 0.8661417322834646
        },
        {
          "duration": 0.3086543847656458,
          "durationTicks": 853,
          "midi": 59,
          "name": "B3",
          "ticks": 1041408,
          "time": 444.677042,
          "velocity": 0.8661417322834646
        },
        {
          "duration": 0.30865438476558893,
          "durationTicks": 853,
          "midi": 64,
          "name": "E4",
          "ticks": 1042432,
          "time": 445.047572,
          "velocity": 0.8661417322834646
        },
        {
          "duration": 0.3086543847656458,
          "durationTicks": 853,
          "midi": 62,
          "name": "D4",
          "ticks": 1043456,
          "time": 445.418102,
          "velocity": 0.8661417322834646
        },
        {
          "duration": 1.018957499999999,
          "durationTicks": 2816,
          "midi": 59,
          "name": "B3",
          "ticks": 1044480,
          "time": 445.788632,
          "velocity": 0.8661417322834646
        },
        {
          "duration": 0.49391938476560426,
          "durationTicks": 1365,
          "midi": 57,
          "name": "A3",
          "ticks": 1048576,
          "time": 447.270752,
          "velocity": 0.8661417322834646
        },
        {
          "duration": 0.49391938476560426,
          "durationTicks": 1365,
          "midi": 57,
          "name": "A3",
          "ticks": 1050112,
          "time": 447.826547,
          "velocity": 0.8661417322834646
        },
        {
          "duration": 0.5518146972656268,
          "durationTicks": 1525,
          "midi": 69,
          "name": "A4",
          "ticks": 1051648,
          "time": 448.382342,
          "velocity": 0.8661417322834646
        },
        {
          "duration": 0.49391938476560426,
          "durationTicks": 1365,
          "midi": 57,
          "name": "A3",
          "ticks": 1053184,
          "time": 448.938137,
          "velocity": 0.8661417322834646
        },
        {
          "duration": 0.3086543847656458,
          "durationTicks": 853,
          "midi": 57,
          "name": "A3",
          "ticks": 1054720,
          "time": 449.493932,
          "velocity": 0.8661417322834646
        },
        {
          "duration": 0.30865438476558893,
          "durationTicks": 853,
          "midi": 69,
          "name": "A4",
          "ticks": 1055744,
          "time": 449.864462,
          "velocity": 0.8661417322834646
        },
        {
          "duration": 0.6484275000000252,
          "durationTicks": 1792,
          "midi": 57,
          "name": "A3",
          "ticks": 1056768,
          "time": 450.234992,
          "velocity": 0.8661417322834646
        },
        {
          "duration": 0.30865438476558893,
          "durationTicks": 853,
          "midi": 69,
          "name": "A4",
          "ticks": 1059840,
          "time": 451.346582,
          "velocity": 0.8661417322834646
        },
        {
          "duration": 1.018957499999999,
          "durationTicks": 2816,
          "midi": 64,
          "name": "E4",
          "ticks": 1060864,
          "time": 451.717112,
          "velocity": 0.8661417322834646
        },
        {
          "duration": 0.6484274999999684,
          "durationTicks": 1792,
          "midi": 66,
          "name": "F#4",
          "ticks": 1064960,
          "time": 453.199232,
          "velocity": 0.8661417322834646
        },
        {
          "duration": 0.30865438476558893,
          "durationTicks": 853,
          "midi": 71,
          "name": "B4",
          "ticks": 1067008,
          "time": 453.940292,
          "velocity": 0.8661417322834646
        },
        {
          "duration": 0.3086543847656458,
          "durationTicks": 853,
          "midi": 69,
          "name": "A4",
          "ticks": 1068032,
          "time": 454.310822,
          "velocity": 0.8661417322834646
        },
        {
          "duration": 1.018957499999999,
          "durationTicks": 2816,
          "midi": 72,
          "name": "C5",
          "ticks": 1069056,
          "time": 454.681352,
          "velocity": 0.8661417322834646
        },
        {
          "duration": 0.3086543847656458,
          "durationTicks": 853,
          "midi": 71,
          "name": "B4",
          "ticks": 1073152,
          "time": 456.16347199999996,
          "velocity": 0.8661417322834646
        },
        {
          "duration": 0.3086543847656458,
          "durationTicks": 853,
          "midi": 71,
          "name": "B4",
          "ticks": 1074176,
          "time": 456.534002,
          "velocity": 0.8661417322834646
        },
        {
          "duration": 0.3086543847656458,
          "durationTicks": 853,
          "midi": 76,
          "name": "E5",
          "ticks": 1075200,
          "time": 456.90453199999996,
          "velocity": 0.8661417322834646
        },
        {
          "duration": 0.30865438476558893,
          "durationTicks": 853,
          "midi": 74,
          "name": "D5",
          "ticks": 1076224,
          "time": 457.275062,
          "velocity": 0.8661417322834646
        },
        {
          "duration": 1.018957499999999,
          "durationTicks": 2816,
          "midi": 71,
          "name": "B4",
          "ticks": 1077248,
          "time": 457.64559199999997,
          "velocity": 0.8661417322834646
        },
        {
          "duration": 0.49391938476560426,
          "durationTicks": 1365,
          "midi": 69,
          "name": "A4",
          "ticks": 1081344,
          "time": 459.127712,
          "velocity": 0.8661417322834646
        },
        {
          "duration": 0.4939193847656611,
          "durationTicks": 1365,
          "midi": 69,
          "name": "A4",
          "ticks": 1082880,
          "time": 459.68350699999996,
          "velocity": 0.8661417322834646
        },
        {
          "duration": 0.55181469726557,
          "durationTicks": 1525,
          "midi": 57,
          "name": "A3",
          "ticks": 1084416,
          "time": 460.239302,
          "velocity": 0.8661417322834646
        },
        {
          "duration": 0.49391938476560426,
          "durationTicks": 1365,
          "midi": 69,
          "name": "A4",
          "ticks": 1085952,
          "time": 460.795097,
          "velocity": 0.8661417322834646
        },
        {
          "duration": 0.3086543847656458,
          "durationTicks": 853,
          "midi": 57,
          "name": "A3",
          "ticks": 1087488,
          "time": 461.350892,
          "velocity": 0.8661417322834646
        },
        {
          "duration": 0.3086543847656458,
          "durationTicks": 853,
          "midi": 64,
          "name": "E4",
          "ticks": 1088512,
          "time": 461.72142199999996,
          "velocity": 0.8661417322834646
        },
        {
          "duration": 1.389487499999973,
          "durationTicks": 3840,
          "midi": 62,
          "name": "D4",
          "ticks": 1089536,
          "time": 462.091952,
          "velocity": 0.8661417322834646
        },
        {
          "duration": 0.181284697265653,
          "durationTicks": 501,
          "midi": 74,
          "name": "D5",
          "ticks": 1094144,
          "time": 463.75933699999996,
          "velocity": 0.8661417322834646
        },
        {
          "duration": 0.181284697265653,
          "durationTicks": 501,
          "midi": 73,
          "name": "C#5",
          "ticks": 1094656,
          "time": 463.944602,
          "velocity": 0.8661417322834646
        },
        {
          "duration": 0.18128469726559615,
          "durationTicks": 501,
          "midi": 74,
          "name": "D5",
          "ticks": 1095168,
          "time": 464.129867,
          "velocity": 0.8661417322834646
        },
        {
          "duration": 0.18128469726559615,
          "durationTicks": 501,
          "midi": 76,
          "name": "E5",
          "ticks": 1095680,
          "time": 464.315132,
          "velocity": 0.8661417322834646
        },
        {
          "duration": 0.181284697265653,
          "durationTicks": 501,
          "midi": 78,
          "name": "F#5",
          "ticks": 1096192,
          "time": 464.50039699999996,
          "velocity": 0.8661417322834646
        },
        {
          "duration": 0.181284697265653,
          "durationTicks": 501,
          "midi": 79,
          "name": "G5",
          "ticks": 1096704,
          "time": 464.685662,
          "velocity": 0.8661417322834646
        },
        {
          "duration": 0.18128469726559615,
          "durationTicks": 501,
          "midi": 81,
          "name": "A5",
          "ticks": 1097216,
          "time": 464.870927,
          "velocity": 0.8661417322834646
        },
        {
          "duration": 0.6484274999999684,
          "durationTicks": 1792,
          "midi": 83,
          "name": "B5",
          "ticks": 1097728,
          "time": 465.056192,
          "velocity": 0.8661417322834646
        },
        {
          "duration": 0.6484275000000252,
          "durationTicks": 1792,
          "midi": 82,
          "name": "A#5",
          "ticks": 1099776,
          "time": 465.79725199999996,
          "velocity": 0.8661417322834646
        },
        {
          "duration": 0.6484275000000252,
          "durationTicks": 1792,
          "midi": 81,
          "name": "A5",
          "ticks": 1101824,
          "time": 466.53831199999996,
          "velocity": 0.8661417322834646
        },
        {
          "duration": 0.3086543847656458,
          "durationTicks": 853,
          "midi": 83,
          "name": "B5",
          "ticks": 1103872,
          "time": 467.27937199999997,
          "velocity": 0.8661417322834646
        },
        {
          "duration": 0.30865438476558893,
          "durationTicks": 853,
          "midi": 78,
          "name": "F#5",
          "ticks": 1104896,
          "time": 467.649902,
          "velocity": 0.8661417322834646
        },
        {
          "duration": 0.6484275000000252,
          "durationTicks": 1792,
          "midi": 79,
          "name": "G5",
          "ticks": 1105920,
          "time": 468.02043199999997,
          "velocity": 0.8661417322834646
        },
        {
          "duration": 0.6484275000000252,
          "durationTicks": 1792,
          "midi": 81,
          "name": "A5",
          "ticks": 1107968,
          "time": 468.761492,
          "velocity": 0.8661417322834646
        },
        {
          "duration": 0.6484275000000252,
          "durationTicks": 1792,
          "midi": 78,
          "name": "F#5",
          "ticks": 1110016,
          "time": 469.502552,
          "velocity": 0.8661417322834646
        },
        {
          "duration": 0.18128469726559615,
          "durationTicks": 501,
          "midi": 81,
          "name": "A5",
          "ticks": 1112576,
          "time": 470.428877,
          "velocity": 0.8661417322834646
        },
        {
          "duration": 0.18128469726559615,
          "durationTicks": 501,
          "midi": 83,
          "name": "B5",
          "ticks": 1113088,
          "time": 470.614142,
          "velocity": 0.8661417322834646
        },
        {
          "duration": 0.181284697265653,
          "durationTicks": 501,
          "midi": 85,
          "name": "C#6",
          "ticks": 1113600,
          "time": 470.799407,
          "velocity": 0.8661417322834646
        },
        {
          "duration": 0.6484274999999684,
          "durationTicks": 1792,
          "midi": 86,
          "name": "D6",
          "ticks": 1114112,
          "time": 470.984672,
          "velocity": 0.8661417322834646
        },
        {
          "duration": 0.18128469726559615,
          "durationTicks": 501,
          "midi": 85,
          "name": "C#6",
          "ticks": 1116672,
          "time": 471.910997,
          "velocity": 0.8661417322834646
        },
        {
          "duration": 0.181284697265653,
          "durationTicks": 501,
          "midi": 86,
          "name": "D6",
          "ticks": 1117184,
          "time": 472.09626199999997,
          "velocity": 0.8661417322834646
        },
        {
          "duration": 0.18128469726559615,
          "durationTicks": 501,
          "midi": 88,
          "name": "E6",
          "ticks": 1117696,
          "time": 472.281527,
          "velocity": 0.8661417322834646
        },
        {
          "duration": 0.6484274999999684,
          "durationTicks": 1792,
          "midi": 90,
          "name": "F#6",
          "ticks": 1118208,
          "time": 472.466792,
          "velocity": 0.8661417322834646
        },
        {
          "duration": 0.30865438476558893,
          "durationTicks": 853,
          "midi": 81,
          "name": "A5",
          "ticks": 1120256,
          "time": 473.207852,
          "velocity": 0.8661417322834646
        },
        {
          "duration": 0.3086543847656458,
          "durationTicks": 853,
          "midi": 90,
          "name": "F#6",
          "ticks": 1121280,
          "time": 473.578382,
          "velocity": 0.8661417322834646
        },
        {
          "duration": 0.6484274999999684,
          "durationTicks": 1792,
          "midi": 88,
          "name": "E6",
          "ticks": 1122304,
          "time": 473.948912,
          "velocity": 0.8661417322834646
        },
        {
          "duration": 0.30865438476558893,
          "durationTicks": 853,
          "midi": 86,
          "name": "D6",
          "ticks": 1124352,
          "time": 474.689972,
          "velocity": 0.8661417322834646
        },
        {
          "duration": 0.3086543847656458,
          "durationTicks": 853,
          "midi": 85,
          "name": "C#6",
          "ticks": 1125376,
          "time": 475.060502,
          "velocity": 0.8661417322834646
        },
        {
          "duration": 1.3894875000000297,
          "durationTicks": 3840,
          "midi": 86,
          "name": "D6",
          "ticks": 1126400,
          "time": 475.43103199999996,
          "velocity": 0.8661417322834646
        },
        {
          "duration": 0.0886521972656169,
          "durationTicks": 245,
          "midi": 61,
          "name": "C#4",
          "ticks": 1130496,
          "time": 476.91315199999997,
          "velocity": 0.8661417322834646
        },
        {
          "duration": 0.0886521972656169,
          "durationTicks": 245,
          "midi": 62,
          "name": "D4",
          "ticks": 1130752,
          "time": 477.0057845,
          "velocity": 0.8661417322834646
        },
        {
          "duration": 0.0886521972656169,
          "durationTicks": 245,
          "midi": 61,
          "name": "C#4",
          "ticks": 1131008,
          "time": 477.098417,
          "velocity": 0.8661417322834646
        },
        {
          "duration": 0.08865219726567375,
          "durationTicks": 245,
          "midi": 62,
          "name": "D4",
          "ticks": 1131264,
          "time": 477.19104949999996,
          "velocity": 0.8661417322834646
        },
        {
          "duration": 0.0886521972656169,
          "durationTicks": 245,
          "midi": 64,
          "name": "E4",
          "ticks": 1131520,
          "time": 477.283682,
          "velocity": 0.8661417322834646
        },
        {
          "duration": 0.0886521972656169,
          "durationTicks": 245,
          "midi": 62,
          "name": "D4",
          "ticks": 1131776,
          "time": 477.3763145,
          "velocity": 0.8661417322834646
        },
        {
          "duration": 0.08865219726567375,
          "durationTicks": 245,
          "midi": 61,
          "name": "C#4",
          "ticks": 1132032,
          "time": 477.46894699999996,
          "velocity": 0.8661417322834646
        },
        {
          "duration": 0.0886521972656169,
          "durationTicks": 245,
          "midi": 62,
          "name": "D4",
          "ticks": 1132288,
          "time": 477.5615795,
          "velocity": 0.8661417322834646
        },
        {
          "duration": 0.0886521972656169,
          "durationTicks": 245,
          "midi": 61,
          "name": "C#4",
          "ticks": 1132544,
          "time": 477.654212,
          "velocity": 0.8661417322834646
        },
        {
          "duration": 0.08865219726567375,
          "durationTicks": 245,
          "midi": 62,
          "name": "D4",
          "ticks": 1132800,
          "time": 477.74684449999995,
          "velocity": 0.8661417322834646
        },
        {
          "duration": 0.0886521972656169,
          "durationTicks": 245,
          "midi": 61,
          "name": "C#4",
          "ticks": 1133056,
          "time": 477.839477,
          "velocity": 0.8661417322834646
        },
        {
          "duration": 0.0886521972656169,
          "durationTicks": 245,
          "midi": 62,
          "name": "D4",
          "ticks": 1133312,
          "time": 477.93210949999997,
          "velocity": 0.8661417322834646
        },
        {
          "duration": 0.0886521972656169,
          "durationTicks": 245,
          "midi": 64,
          "name": "E4",
          "ticks": 1133568,
          "time": 478.024742,
          "velocity": 0.8661417322834646
        },
        {
          "duration": 0.0886521972656169,
          "durationTicks": 245,
          "midi": 62,
          "name": "D4",
          "ticks": 1133824,
          "time": 478.1173745,
          "velocity": 0.8661417322834646
        },
        {
          "duration": 0.0886521972656169,
          "durationTicks": 245,
          "midi": 61,
          "name": "C#4",
          "ticks": 1134080,
          "time": 478.21000699999996,
          "velocity": 0.8661417322834646
        },
        {
          "duration": 0.0886521972656169,
          "durationTicks": 245,
          "midi": 62,
          "name": "D4",
          "ticks": 1134336,
          "time": 478.3026395,
          "velocity": 0.8661417322834646
        },
        {
          "duration": 0.0886521972656169,
          "durationTicks": 245,
          "midi": 61,
          "name": "C#4",
          "ticks": 1134592,
          "time": 478.395272,
          "velocity": 0.8661417322834646
        },
        {
          "duration": 0.0886521972656169,
          "durationTicks": 245,
          "midi": 62,
          "name": "D4",
          "ticks": 1134848,
          "time": 478.4879045,
          "velocity": 0.8661417322834646
        },
        {
          "duration": 0.0886521972656169,
          "durationTicks": 245,
          "midi": 61,
          "name": "C#4",
          "ticks": 1135104,
          "time": 478.580537,
          "velocity": 0.8661417322834646
        },
        {
          "duration": 0.0886521972656169,
          "durationTicks": 245,
          "midi": 62,
          "name": "D4",
          "ticks": 1135360,
          "time": 478.6731695,
          "velocity": 0.8661417322834646
        },
        {
          "duration": 0.0886521972656169,
          "durationTicks": 245,
          "midi": 67,
          "name": "G4",
          "ticks": 1135616,
          "time": 478.765802,
          "velocity": 0.8661417322834646
        },
        {
          "duration": 0.0886521972656169,
          "durationTicks": 245,
          "midi": 62,
          "name": "D4",
          "ticks": 1135872,
          "time": 478.8584345,
          "velocity": 0.8661417322834646
        },
        {
          "duration": 0.08865219726567375,
          "durationTicks": 245,
          "midi": 61,
          "name": "C#4",
          "ticks": 1136128,
          "time": 478.95106699999997,
          "velocity": 0.8661417322834646
        },
        {
          "duration": 0.0886521972656169,
          "durationTicks": 245,
          "midi": 62,
          "name": "D4",
          "ticks": 1136384,
          "time": 479.0436995,
          "velocity": 0.8661417322834646
        },
        {
          "duration": 0.0886521972656169,
          "durationTicks": 245,
          "midi": 69,
          "name": "A4",
          "ticks": 1136640,
          "time": 479.136332,
          "velocity": 0.8661417322834646
        },
        {
          "duration": 0.08865219726567375,
          "durationTicks": 245,
          "midi": 62,
          "name": "D4",
          "ticks": 1136896,
          "time": 479.22896449999996,
          "velocity": 0.8661417322834646
        },
        {
          "duration": 0.0886521972656169,
          "durationTicks": 245,
          "midi": 61,
          "name": "C#4",
          "ticks": 1137152,
          "time": 479.321597,
          "velocity": 0.8661417322834646
        },
        {
          "duration": 0.0886521972656169,
          "durationTicks": 245,
          "midi": 62,
          "name": "D4",
          "ticks": 1137408,
          "time": 479.4142295,
          "velocity": 0.8661417322834646
        },
        {
          "duration": 0.08865219726567375,
          "durationTicks": 245,
          "midi": 67,
          "name": "G4",
          "ticks": 1137664,
          "time": 479.50686199999996,
          "velocity": 0.8661417322834646
        },
        {
          "duration": 0.0886521972656169,
          "durationTicks": 245,
          "midi": 62,
          "name": "D4",
          "ticks": 1137920,
          "time": 479.5994945,
          "velocity": 0.8661417322834646
        },
        {
          "duration": 0.0886521972656169,
          "durationTicks": 245,
          "midi": 61,
          "name": "C#4",
          "ticks": 1138176,
          "time": 479.69212699999997,
          "velocity": 0.8661417322834646
        },
        {
          "duration": 0.08865219726567375,
          "durationTicks": 245,
          "midi": 62,
          "name": "D4",
          "ticks": 1138432,
          "time": 479.78475949999995,
          "velocity": 0.8661417322834646
        },
        {
          "duration": 0.0886521972656169,
          "durationTicks": 245,
          "midi": 61,
          "name": "C#4",
          "ticks": 1138688,
          "time": 479.877392,
          "velocity": 0.8661417322834646
        },
        {
          "duration": 0.0886521972656169,
          "durationTicks": 245,
          "midi": 62,
          "name": "D4",
          "ticks": 1138944,
          "time": 479.97002449999997,
          "velocity": 0.8661417322834646
        },
        {
          "duration": 0.0886521972656169,
          "durationTicks": 245,
          "midi": 61,
          "name": "C#4",
          "ticks": 1139200,
          "time": 480.062657,
          "velocity": 0.8661417322834646
        },
        {
          "duration": 0.0886521972656169,
          "durationTicks": 245,
          "midi": 62,
          "name": "D4",
          "ticks": 1139456,
          "time": 480.1552895,
          "velocity": 0.8661417322834646
        },
        {
          "duration": 0.08865219726556006,
          "durationTicks": 245,
          "midi": 64,
          "name": "E4",
          "ticks": 1139712,
          "time": 480.247922,
          "velocity": 0.8661417322834646
        },
        {
          "duration": 0.0886521972656169,
          "durationTicks": 245,
          "midi": 62,
          "name": "D4",
          "ticks": 1139968,
          "time": 480.3405545,
          "velocity": 0.8661417322834646
        },
        {
          "duration": 0.0886521972656169,
          "durationTicks": 245,
          "midi": 61,
          "name": "C#4",
          "ticks": 1140224,
          "time": 480.433187,
          "velocity": 0.8661417322834646
        },
        {
          "duration": 0.0886521972656169,
          "durationTicks": 245,
          "midi": 62,
          "name": "D4",
          "ticks": 1140480,
          "time": 480.5258195,
          "velocity": 0.8661417322834646
        },
        {
          "duration": 0.0886521972656169,
          "durationTicks": 245,
          "midi": 61,
          "name": "C#4",
          "ticks": 1140736,
          "time": 480.618452,
          "velocity": 0.8661417322834646
        },
        {
          "duration": 0.08865219726567375,
          "durationTicks": 245,
          "midi": 62,
          "name": "D4",
          "ticks": 1140992,
          "time": 480.71108449999997,
          "velocity": 0.8661417322834646
        },
        {
          "duration": 0.0886521972656169,
          "durationTicks": 245,
          "midi": 61,
          "name": "C#4",
          "ticks": 1141248,
          "time": 480.803717,
          "velocity": 0.8661417322834646
        },
        {
          "duration": 0.0886521972656169,
          "durationTicks": 245,
          "midi": 62,
          "name": "D4",
          "ticks": 1141504,
          "time": 480.8963495,
          "velocity": 0.8661417322834646
        },
        {
          "duration": 0.08865219726567375,
          "durationTicks": 245,
          "midi": 64,
          "name": "E4",
          "ticks": 1141760,
          "time": 480.98898199999996,
          "velocity": 0.8661417322834646
        },
        {
          "duration": 0.0886521972656169,
          "durationTicks": 245,
          "midi": 62,
          "name": "D4",
          "ticks": 1142016,
          "time": 481.0816145,
          "velocity": 0.8661417322834646
        },
        {
          "duration": 0.0886521972656169,
          "durationTicks": 245,
          "midi": 61,
          "name": "C#4",
          "ticks": 1142272,
          "time": 481.174247,
          "velocity": 0.8661417322834646
        },
        {
          "duration": 0.08865219726567375,
          "durationTicks": 245,
          "midi": 62,
          "name": "D4",
          "ticks": 1142528,
          "time": 481.26687949999996,
          "velocity": 0.8661417322834646
        },
        {
          "duration": 0.0886521972656169,
          "durationTicks": 245,
          "midi": 61,
          "name": "C#4",
          "ticks": 1142784,
          "time": 481.359512,
          "velocity": 0.8661417322834646
        },
        {
          "duration": 0.0886521972656169,
          "durationTicks": 245,
          "midi": 62,
          "name": "D4",
          "ticks": 1143040,
          "time": 481.4521445,
          "velocity": 0.8661417322834646
        },
        {
          "duration": 0.08865219726567375,
          "durationTicks": 245,
          "midi": 61,
          "name": "C#4",
          "ticks": 1143296,
          "time": 481.54477699999995,
          "velocity": 0.8661417322834646
        },
        {
          "duration": 0.0886521972656169,
          "durationTicks": 245,
          "midi": 62,
          "name": "D4",
          "ticks": 1143552,
          "time": 481.6374095,
          "velocity": 0.8661417322834646
        },
        {
          "duration": 0.0886521972656169,
          "durationTicks": 245,
          "midi": 67,
          "name": "G4",
          "ticks": 1143808,
          "time": 481.73004199999997,
          "velocity": 0.8661417322834646
        },
        {
          "duration": 0.08865219726567375,
          "durationTicks": 245,
          "midi": 62,
          "name": "D4",
          "ticks": 1144064,
          "time": 481.82267449999995,
          "velocity": 0.8661417322834646
        },
        {
          "duration": 0.0886521972656169,
          "durationTicks": 245,
          "midi": 61,
          "name": "C#4",
          "ticks": 1144320,
          "time": 481.915307,
          "velocity": 0.8661417322834646
        },
        {
          "duration": 0.0886521972656169,
          "durationTicks": 245,
          "midi": 62,
          "name": "D4",
          "ticks": 1144576,
          "time": 482.00793949999996,
          "velocity": 0.8661417322834646
        },
        {
          "duration": 0.0886521972656169,
          "durationTicks": 245,
          "midi": 69,
          "name": "A4",
          "ticks": 1144832,
          "time": 482.100572,
          "velocity": 0.8661417322834646
        },
        {
          "duration": 0.0886521972656169,
          "durationTicks": 245,
          "midi": 62,
          "name": "D4",
          "ticks": 1145088,
          "time": 482.1932045,
          "velocity": 0.8661417322834646
        },
        {
          "duration": 0.08865219726556006,
          "durationTicks": 245,
          "midi": 61,
          "name": "C#4",
          "ticks": 1145344,
          "time": 482.285837,
          "velocity": 0.8661417322834646
        },
        {
          "duration": 0.0886521972656169,
          "durationTicks": 245,
          "midi": 62,
          "name": "D4",
          "ticks": 1145600,
          "time": 482.3784695,
          "velocity": 0.8661417322834646
        },
        {
          "duration": 0.0886521972656169,
          "durationTicks": 245,
          "midi": 67,
          "name": "G4",
          "ticks": 1145856,
          "time": 482.471102,
          "velocity": 0.8661417322834646
        },
        {
          "duration": 0.0886521972656169,
          "durationTicks": 245,
          "midi": 62,
          "name": "D4",
          "ticks": 1146112,
          "time": 482.5637345,
          "velocity": 0.8661417322834646
        },
        {
          "duration": 0.0886521972656169,
          "durationTicks": 245,
          "midi": 61,
          "name": "C#4",
          "ticks": 1146368,
          "time": 482.656367,
          "velocity": 0.8661417322834646
        },
        {
          "duration": 0.08865219726567375,
          "durationTicks": 245,
          "midi": 62,
          "name": "D4",
          "ticks": 1146624,
          "time": 482.74899949999997,
          "velocity": 0.8661417322834646
        },
        {
          "duration": 0.30865438476558893,
          "durationTicks": 853,
          "midi": 74,
          "name": "D5",
          "ticks": 1146880,
          "time": 482.841632,
          "velocity": 0.8661417322834646
        },
        {
          "duration": 0.30865438476558893,
          "durationTicks": 853,
          "midi": 79,
          "name": "G5",
          "ticks": 1146880,
          "time": 482.841632,
          "velocity": 0.8661417322834646
        },
        {
          "duration": 0.30865438476558893,
          "durationTicks": 853,
          "midi": 81,
          "name": "A5",
          "ticks": 1146880,
          "time": 482.841632,
          "velocity": 0.8661417322834646
        },
        {
          "duration": 0.3086543847656458,
          "durationTicks": 853,
          "midi": 74,
          "name": "D5",
          "ticks": 1148928,
          "time": 483.58269199999995,
          "velocity": 0.8661417322834646
        },
        {
          "duration": 0.3086543847656458,
          "durationTicks": 853,
          "midi": 79,
          "name": "G5",
          "ticks": 1148928,
          "time": 483.58269199999995,
          "velocity": 0.8661417322834646
        },
        {
          "duration": 0.3086543847656458,
          "durationTicks": 853,
          "midi": 81,
          "name": "A5",
          "ticks": 1148928,
          "time": 483.58269199999995,
          "velocity": 0.8661417322834646
        },
        {
          "duration": 0.30865438476558893,
          "durationTicks": 853,
          "midi": 74,
          "name": "D5",
          "ticks": 1150976,
          "time": 484.323752,
          "velocity": 0.8661417322834646
        },
        {
          "duration": 0.30865438476558893,
          "durationTicks": 853,
          "midi": 79,
          "name": "G5",
          "ticks": 1150976,
          "time": 484.323752,
          "velocity": 0.8661417322834646
        },
        {
          "duration": 0.30865438476558893,
          "durationTicks": 853,
          "midi": 81,
          "name": "A5",
          "ticks": 1150976,
          "time": 484.323752,
          "velocity": 0.8661417322834646
        },
        {
          "duration": 0.30865438476558893,
          "durationTicks": 853,
          "midi": 78,
          "name": "F#5",
          "ticks": 1152000,
          "time": 484.694282,
          "velocity": 0.8661417322834646
        },
        {
          "duration": 0.3086543847656458,
          "durationTicks": 853,
          "midi": 76,
          "name": "E5",
          "ticks": 1153024,
          "time": 485.06481199999996,
          "velocity": 0.8661417322834646
        },
        {
          "duration": 0.3086543847656458,
          "durationTicks": 853,
          "midi": 75,
          "name": "D#5",
          "ticks": 1154048,
          "time": 485.435342,
          "velocity": 0.8661417322834646
        },
        {
          "duration": 0.3086543847656458,
          "durationTicks": 853,
          "midi": 67,
          "name": "G4",
          "ticks": 1155072,
          "time": 485.80587199999997,
          "velocity": 0.8661417322834646
        },
        {
          "duration": 0.3086543847656458,
          "durationTicks": 853,
          "midi": 72,
          "name": "C5",
          "ticks": 1155072,
          "time": 485.80587199999997,
          "velocity": 0.8661417322834646
        },
        {
          "duration": 0.3086543847656458,
          "durationTicks": 853,
          "midi": 74,
          "name": "D5",
          "ticks": 1155072,
          "time": 485.80587199999997,
          "velocity": 0.8661417322834646
        },
        {
          "duration": 0.3086543847656458,
          "durationTicks": 853,
          "midi": 67,
          "name": "G4",
          "ticks": 1157120,
          "time": 486.54693199999997,
          "velocity": 0.8661417322834646
        },
        {
          "duration": 0.3086543847656458,
          "durationTicks": 853,
          "midi": 72,
          "name": "C5",
          "ticks": 1157120,
          "time": 486.54693199999997,
          "velocity": 0.8661417322834646
        },
        {
          "duration": 0.3086543847656458,
          "durationTicks": 853,
          "midi": 74,
          "name": "D5",
          "ticks": 1157120,
          "time": 486.54693199999997,
          "velocity": 0.8661417322834646
        },
        {
          "duration": 0.3086543847656458,
          "durationTicks": 853,
          "midi": 67,
          "name": "G4",
          "ticks": 1159168,
          "time": 487.287992,
          "velocity": 0.8661417322834646
        },
        {
          "duration": 0.3086543847656458,
          "durationTicks": 853,
          "midi": 72,
          "name": "C5",
          "ticks": 1159168,
          "time": 487.287992,
          "velocity": 0.8661417322834646
        },
        {
          "duration": 0.3086543847656458,
          "durationTicks": 853,
          "midi": 74,
          "name": "D5",
          "ticks": 1159168,
          "time": 487.287992,
          "velocity": 0.8661417322834646
        },
        {
          "duration": 0.0886521972656169,
          "durationTicks": 245,
          "midi": 67,
          "name": "G4",
          "ticks": 1160704,
          "time": 487.84378699999996,
          "velocity": 0.8661417322834646
        },
        {
          "duration": 0.0886521972656169,
          "durationTicks": 245,
          "midi": 71,
          "name": "B4",
          "ticks": 1160704,
          "time": 487.84378699999996,
          "velocity": 0.8661417322834646
        },
        {
          "duration": 0.0886521972656169,
          "durationTicks": 245,
          "midi": 67,
          "name": "G4",
          "ticks": 1160960,
          "time": 487.9364195,
          "velocity": 0.8661417322834646
        },
        {
          "duration": 0.0886521972656169,
          "durationTicks": 245,
          "midi": 72,
          "name": "C5",
          "ticks": 1160960,
          "time": 487.9364195,
          "velocity": 0.8661417322834646
        },
        {
          "duration": 0.3086543847656458,
          "durationTicks": 853,
          "midi": 67,
          "name": "G4",
          "ticks": 1161216,
          "time": 488.029052,
          "velocity": 0.8661417322834646
        },
        {
          "duration": 0.3086543847656458,
          "durationTicks": 853,
          "midi": 72,
          "name": "C5",
          "ticks": 1161216,
          "time": 488.029052,
          "velocity": 0.8661417322834646
        },
        {
          "duration": 0.3086543847656458,
          "durationTicks": 853,
          "midi": 74,
          "name": "D5",
          "ticks": 1161216,
          "time": 488.029052,
          "velocity": 0.8661417322834646
        },
        {
          "duration": 0.30865438476558893,
          "durationTicks": 853,
          "midi": 67,
          "name": "G4",
          "ticks": 1162240,
          "time": 488.399582,
          "velocity": 0.8661417322834646
        },
        {
          "duration": 0.30865438476558893,
          "durationTicks": 853,
          "midi": 74,
          "name": "D5",
          "ticks": 1162240,
          "time": 488.399582,
          "velocity": 0.8661417322834646
        },
        {
          "duration": 0.30865438476558893,
          "durationTicks": 853,
          "midi": 76,
          "name": "E5",
          "ticks": 1162240,
          "time": 488.399582,
          "velocity": 0.8661417322834646
        },
        {
          "duration": 0.3086543847656458,
          "durationTicks": 853,
          "midi": 69,
          "name": "A4",
          "ticks": 1163264,
          "time": 488.770112,
          "velocity": 0.8661417322834646
        },
        {
          "duration": 0.3086543847656458,
          "durationTicks": 853,
          "midi": 72,
          "name": "C5",
          "ticks": 1163264,
          "time": 488.770112,
          "velocity": 0.8661417322834646
        },
        {
          "duration": 0.3086543847656458,
          "durationTicks": 853,
          "midi": 74,
          "name": "D5",
          "ticks": 1163264,
          "time": 488.770112,
          "velocity": 0.8661417322834646
        },
        {
          "duration": 0.181284697265653,
          "durationTicks": 501,
          "midi": 74,
          "name": "D5",
          "ticks": 1164800,
          "time": 489.325907,
          "velocity": 0.8661417322834646
        },
        {
          "duration": 0.3086543847656458,
          "durationTicks": 853,
          "midi": 69,
          "name": "A4",
          "ticks": 1165312,
          "time": 489.511172,
          "velocity": 0.8661417322834646
        },
        {
          "duration": 0.3086543847656458,
          "durationTicks": 853,
          "midi": 78,
          "name": "F#5",
          "ticks": 1165312,
          "time": 489.511172,
          "velocity": 0.8661417322834646
        },
        {
          "duration": 0.3086543847656458,
          "durationTicks": 853,
          "midi": 81,
          "name": "A5",
          "ticks": 1166336,
          "time": 489.88170199999996,
          "velocity": 0.8661417322834646
        },
        {
          "duration": 0.30865438476558893,
          "durationTicks": 853,
          "midi": 80,
          "name": "G#5",
          "ticks": 1167360,
          "time": 490.252232,
          "velocity": 0.8661417322834646
        },
        {
          "duration": 0.3086543847656458,
          "durationTicks": 853,
          "midi": 81,
          "name": "A5",
          "ticks": 1168384,
          "time": 490.62276199999997,
          "velocity": 0.8661417322834646
        },
        {
          "duration": 0.0886521972656169,
          "durationTicks": 245,
          "midi": 80,
          "name": "G#5",
          "ticks": 1169408,
          "time": 490.993292,
          "velocity": 0.8661417322834646
        },
        {
          "duration": 0.0886521972656169,
          "durationTicks": 245,
          "midi": 81,
          "name": "A5",
          "ticks": 1169664,
          "time": 491.0859245,
          "velocity": 0.8661417322834646
        },
        {
          "duration": 0.08865219726567375,
          "durationTicks": 245,
          "midi": 80,
          "name": "G#5",
          "ticks": 1169920,
          "time": 491.17855699999996,
          "velocity": 0.8661417322834646
        },
        {
          "duration": 0.0886521972656169,
          "durationTicks": 245,
          "midi": 78,
          "name": "F#5",
          "ticks": 1170176,
          "time": 491.2711895,
          "velocity": 0.8661417322834646
        },
        {
          "duration": 0.181284697265653,
          "durationTicks": 501,
          "midi": 74,
          "name": "D5",
          "ticks": 1170432,
          "time": 491.36382199999997,
          "velocity": 0.8661417322834646
        },
        {
          "duration": 0.18128469726559615,
          "durationTicks": 501,
          "midi": 69,
          "name": "A4",
          "ticks": 1170944,
          "time": 491.549087,
          "velocity": 0.8661417322834646
        },
        {
          "duration": 0.2739171972655754,
          "durationTicks": 757,
          "midi": 71,
          "name": "B4",
          "ticks": 1171456,
          "time": 491.734352,
          "velocity": 0.8661417322834646
        },
        {
          "duration": 0.0886521972656169,
          "durationTicks": 245,
          "midi": 73,
          "name": "C#5",
          "ticks": 1172224,
          "time": 492.0122495,
          "velocity": 0.8661417322834646
        },
        {
          "duration": 0.27391719726563224,
          "durationTicks": 757,
          "midi": 74,
          "name": "D5",
          "ticks": 1172480,
          "time": 492.104882,
          "velocity": 0.8661417322834646
        },
        {
          "duration": 0.0886521972656169,
          "durationTicks": 245,
          "midi": 76,
          "name": "E5",
          "ticks": 1173248,
          "time": 492.38277949999997,
          "velocity": 0.8661417322834646
        },
        {
          "duration": 0.0886521972656169,
          "durationTicks": 245,
          "midi": 78,
          "name": "F#5",
          "ticks": 1173504,
          "time": 492.475412,
          "velocity": 0.8661417322834646
        },
        {
          "duration": 0.0886521972656169,
          "durationTicks": 245,
          "midi": 77,
          "name": "F5",
          "ticks": 1173760,
          "time": 492.5680445,
          "velocity": 0.8661417322834646
        },
        {
          "duration": 0.08865219726567375,
          "durationTicks": 245,
          "midi": 78,
          "name": "F#5",
          "ticks": 1174016,
          "time": 492.66067699999996,
          "velocity": 0.8661417322834646
        },
        {
          "duration": 0.0886521972656169,
          "durationTicks": 245,
          "midi": 79,
          "name": "G5",
          "ticks": 1174272,
          "time": 492.7533095,
          "velocity": 0.8661417322834646
        },
        {
          "duration": 0.0886521972656169,
          "durationTicks": 245,
          "midi": 81,
          "name": "A5",
          "ticks": 1174528,
          "time": 492.845942,
          "velocity": 0.8661417322834646
        },
        {
          "duration": 0.08865219726567375,
          "durationTicks": 245,
          "midi": 79,
          "name": "G5",
          "ticks": 1174784,
          "time": 492.93857449999996,
          "velocity": 0.8661417322834646
        },
        {
          "duration": 0.0886521972656169,
          "durationTicks": 245,
          "midi": 78,
          "name": "F#5",
          "ticks": 1175040,
          "time": 493.031207,
          "velocity": 0.8661417322834646
        },
        {
          "duration": 0.0886521972656169,
          "durationTicks": 245,
          "midi": 76,
          "name": "E5",
          "ticks": 1175296,
          "time": 493.1238395,
          "velocity": 0.8661417322834646
        },
        {
          "duration": 0.08865219726567375,
          "durationTicks": 245,
          "midi": 74,
          "name": "D5",
          "ticks": 1175552,
          "time": 493.21647199999995,
          "velocity": 0.8661417322834646
        },
        {
          "duration": 0.0886521972656169,
          "durationTicks": 245,
          "midi": 73,
          "name": "C#5",
          "ticks": 1175808,
          "time": 493.3091045,
          "velocity": 0.8661417322834646
        },
        {
          "duration": 0.0886521972656169,
          "durationTicks": 245,
          "midi": 74,
          "name": "D5",
          "ticks": 1176064,
          "time": 493.40173699999997,
          "velocity": 0.8661417322834646
        },
        {
          "duration": 0.08865219726567375,
          "durationTicks": 245,
          "midi": 81,
          "name": "A5",
          "ticks": 1176320,
          "time": 493.49436949999995,
          "velocity": 0.8661417322834646
        },
        {
          "duration": 0.0886521972656169,
          "durationTicks": 245,
          "midi": 73,
          "name": "C#5",
          "ticks": 1176576,
          "time": 493.587002,
          "velocity": 0.8661417322834646
        },
        {
          "duration": 0.0886521972656169,
          "durationTicks": 245,
          "midi": 72,
          "name": "C5",
          "ticks": 1176832,
          "time": 493.67963449999996,
          "velocity": 0.8661417322834646
        },
        {
          "duration": 0.0886521972656169,
          "durationTicks": 245,
          "midi": 73,
          "name": "C#5",
          "ticks": 1177088,
          "time": 493.772267,
          "velocity": 0.8661417322834646
        },
        {
          "duration": 0.0886521972656169,
          "durationTicks": 245,
          "midi": 81,
          "name": "A5",
          "ticks": 1177344,
          "time": 493.8648995,
          "velocity": 0.8661417322834646
        },
        {
          "duration": 0.08865219726556006,
          "durationTicks": 245,
          "midi": 73,
          "name": "C#5",
          "ticks": 1177600,
          "time": 493.957532,
          "velocity": 0.8661417322834646
        },
        {
          "duration": 0.0886521972656169,
          "durationTicks": 245,
          "midi": 72,
          "name": "C5",
          "ticks": 1177856,
          "time": 494.0501645,
          "velocity": 0.8661417322834646
        },
        {
          "duration": 0.0886521972656169,
          "durationTicks": 245,
          "midi": 71,
          "name": "B4",
          "ticks": 1178112,
          "time": 494.142797,
          "velocity": 0.8661417322834646
        },
        {
          "duration": 0.0886521972656169,
          "durationTicks": 245,
          "midi": 70,
          "name": "A#4",
          "ticks": 1178368,
          "time": 494.2354295,
          "velocity": 0.8661417322834646
        },
        {
          "duration": 0.0886521972656169,
          "durationTicks": 245,
          "midi": 69,
          "name": "A4",
          "ticks": 1178624,
          "time": 494.328062,
          "velocity": 0.8661417322834646
        },
        {
          "duration": 0.08865219726567375,
          "durationTicks": 245,
          "midi": 68,
          "name": "G#4",
          "ticks": 1178880,
          "time": 494.42069449999997,
          "velocity": 0.8661417322834646
        },
        {
          "duration": 0.0886521972656169,
          "durationTicks": 245,
          "midi": 67,
          "name": "G4",
          "ticks": 1179136,
          "time": 494.513327,
          "velocity": 0.8661417322834646
        },
        {
          "duration": 0.0886521972656169,
          "durationTicks": 245,
          "midi": 64,
          "name": "E4",
          "ticks": 1179392,
          "time": 494.6059595,
          "velocity": 0.8661417322834646
        },
        {
          "duration": 0.29368091601565993,
          "durationTicks": 501,
          "midi": 69,
          "name": "A4",
          "ticks": 1183744,
          "time": 497.09962399999995,
          "velocity": 0.8661417322834646
        },
        {
          "duration": 0.2936809160156031,
          "durationTicks": 501,
          "midi": 74,
          "name": "D5",
          "ticks": 1184256,
          "time": 497.399753,
          "velocity": 0.8661417322834646
        },
        {
          "duration": 0.2936809160156031,
          "durationTicks": 501,
          "midi": 86,
          "name": "D6",
          "ticks": 1184256,
          "time": 497.399753,
          "velocity": 0.8661417322834646
        },
        {
          "duration": 0.29368091601565993,
          "durationTicks": 501,
          "midi": 77,
          "name": "F5",
          "ticks": 1184768,
          "time": 497.69988199999995,
          "velocity": 0.8661417322834646
        },
        {
          "duration": 0.29368091601565993,
          "durationTicks": 501,
          "midi": 81,
          "name": "A5",
          "ticks": 1184768,
          "time": 497.69988199999995,
          "velocity": 0.8661417322834646
        },
        {
          "duration": 2.5510964999999715,
          "durationTicks": 4352,
          "midi": 76,
          "name": "E5",
          "ticks": 1185280,
          "time": 498.000011,
          "velocity": 0.8661417322834646
        },
        {
          "duration": 2.5510964999999715,
          "durationTicks": 4352,
          "midi": 80,
          "name": "G#5",
          "ticks": 1185280,
          "time": 498.000011,
          "velocity": 0.8661417322834646
        },
        {
          "duration": 0.29368091601565993,
          "durationTicks": 501,
          "midi": 69,
          "name": "A4",
          "ticks": 1200128,
          "time": 506.70375199999995,
          "velocity": 0.8661417322834646
        },
        {
          "duration": 0.2936809160156031,
          "durationTicks": 501,
          "midi": 74,
          "name": "D5",
          "ticks": 1200640,
          "time": 507.003881,
          "velocity": 0.8661417322834646
        },
        {
          "duration": 0.2936809160156031,
          "durationTicks": 501,
          "midi": 86,
          "name": "D6",
          "ticks": 1200640,
          "time": 507.003881,
          "velocity": 0.8661417322834646
        },
        {
          "duration": 0.29368091601565993,
          "durationTicks": 501,
          "midi": 77,
          "name": "F5",
          "ticks": 1201152,
          "time": 507.30400999999995,
          "velocity": 0.8661417322834646
        },
        {
          "duration": 0.29368091601565993,
          "durationTicks": 501,
          "midi": 81,
          "name": "A5",
          "ticks": 1201152,
          "time": 507.30400999999995,
          "velocity": 0.8661417322834646
        },
        {
          "duration": 2.000664603515588,
          "durationTicks": 3413,
          "midi": 76,
          "name": "E5",
          "ticks": 1201664,
          "time": 507.604139,
          "velocity": 0.8661417322834646
        },
        {
          "duration": 2.000664603515588,
          "durationTicks": 3413,
          "midi": 80,
          "name": "G#5",
          "ticks": 1201664,
          "time": 507.604139,
          "velocity": 0.8661417322834646
        },
        {
          "duration": 0.500019603515625,
          "durationTicks": 853,
          "midi": 83,
          "name": "B5",
          "ticks": 1205248,
          "time": 509.70504199999993,
          "velocity": 0.8661417322834646
        },
        {
          "duration": 0.500019603515625,
          "durationTicks": 853,
          "midi": 95,
          "name": "B6",
          "ticks": 1205248,
          "time": 509.70504199999993,
          "velocity": 0.8661417322834646
        },
        {
          "duration": 0.29368091601565993,
          "durationTicks": 501,
          "midi": 69,
          "name": "A4",
          "ticks": 1216512,
          "time": 516.30788,
          "velocity": 0.8661417322834646
        },
        {
          "duration": 0.29368091601565993,
          "durationTicks": 501,
          "midi": 74,
          "name": "D5",
          "ticks": 1217024,
          "time": 516.6080089999999,
          "velocity": 0.8661417322834646
        },
        {
          "duration": 0.29368091601565993,
          "durationTicks": 501,
          "midi": 86,
          "name": "D6",
          "ticks": 1217024,
          "time": 516.6080089999999,
          "velocity": 0.8661417322834646
        },
        {
          "duration": 0.29368091601554625,
          "durationTicks": 501,
          "midi": 77,
          "name": "F5",
          "ticks": 1217536,
          "time": 516.908138,
          "velocity": 0.8661417322834646
        },
        {
          "duration": 0.29368091601554625,
          "durationTicks": 501,
          "midi": 81,
          "name": "A5",
          "ticks": 1217536,
          "time": 516.908138,
          "velocity": 0.8661417322834646
        },
        {
          "duration": 1.3505804999999782,
          "durationTicks": 2304,
          "midi": 76,
          "name": "E5",
          "ticks": 1218048,
          "time": 517.208267,
          "velocity": 0.8661417322834646
        },
        {
          "duration": 1.3505804999999782,
          "durationTicks": 2304,
          "midi": 80,
          "name": "G#5",
          "ticks": 1218048,
          "time": 517.208267,
          "velocity": 0.8661417322834646
        },
        {
          "duration": 0.14361641601567499,
          "durationTicks": 245,
          "midi": 69,
          "name": "A4",
          "ticks": 1220864,
          "time": 518.8589764999999,
          "velocity": 0.8661417322834646
        },
        {
          "duration": 0.14361641601567499,
          "durationTicks": 245,
          "midi": 74,
          "name": "D5",
          "ticks": 1221120,
          "time": 519.0090409999999,
          "velocity": 0.8661417322834646
        },
        {
          "duration": 0.1436164160155613,
          "durationTicks": 245,
          "midi": 81,
          "name": "A5",
          "ticks": 1221376,
          "time": 519.1591055,
          "velocity": 0.8661417322834646
        },
        {
          "duration": 0.1436164160155613,
          "durationTicks": 245,
          "midi": 80,
          "name": "G#5",
          "ticks": 1221632,
          "time": 519.30917,
          "velocity": 0.8661417322834646
        },
        {
          "duration": 0.1436164160155613,
          "durationTicks": 245,
          "midi": 69,
          "name": "A4",
          "ticks": 1221888,
          "time": 519.4592345,
          "velocity": 0.8661417322834646
        },
        {
          "duration": 0.14361641601567499,
          "durationTicks": 245,
          "midi": 74,
          "name": "D5",
          "ticks": 1222144,
          "time": 519.609299,
          "velocity": 0.8661417322834646
        },
        {
          "duration": 0.14361641601567499,
          "durationTicks": 245,
          "midi": 79,
          "name": "G5",
          "ticks": 1222400,
          "time": 519.7593635,
          "velocity": 0.8661417322834646
        },
        {
          "duration": 0.14361641601567499,
          "durationTicks": 245,
          "midi": 77,
          "name": "F5",
          "ticks": 1222656,
          "time": 519.9094279999999,
          "velocity": 0.8661417322834646
        },
        {
          "duration": 0.14361641601567499,
          "durationTicks": 245,
          "midi": 69,
          "name": "A4",
          "ticks": 1222912,
          "time": 520.0594924999999,
          "velocity": 0.8661417322834646
        },
        {
          "duration": 0.14361641601567499,
          "durationTicks": 245,
          "midi": 74,
          "name": "D5",
          "ticks": 1223168,
          "time": 520.2095569999999,
          "velocity": 0.8661417322834646
        },
        {
          "duration": 0.1436164160155613,
          "durationTicks": 245,
          "midi": 77,
          "name": "F5",
          "ticks": 1223424,
          "time": 520.3596215,
          "velocity": 0.8661417322834646
        },
        {
          "duration": 0.1436164160155613,
          "durationTicks": 245,
          "midi": 76,
          "name": "E5",
          "ticks": 1223680,
          "time": 520.509686,
          "velocity": 0.8661417322834646
        },
        {
          "duration": 0.1436164160155613,
          "durationTicks": 245,
          "midi": 67,
          "name": "G4",
          "ticks": 1223936,
          "time": 520.6597505,
          "velocity": 0.8661417322834646
        },
        {
          "duration": 0.14361641601567499,
          "durationTicks": 245,
          "midi": 73,
          "name": "C#5",
          "ticks": 1224192,
          "time": 520.809815,
          "velocity": 0.8661417322834646
        },
        {
          "duration": 0.14361641601567499,
          "durationTicks": 245,
          "midi": 76,
          "name": "E5",
          "ticks": 1224448,
          "time": 520.9598794999999,
          "velocity": 0.8661417322834646
        },
        {
          "duration": 0.29368091601565993,
          "durationTicks": 501,
          "midi": 74,
          "name": "D5",
          "ticks": 1224704,
          "time": 521.1099439999999,
          "velocity": 0.8661417322834646
        },
        {
          "duration": 0.1436164160155613,
          "durationTicks": 245,
          "midi": 69,
          "name": "A4",
          "ticks": 1225216,
          "time": 521.410073,
          "velocity": 0.8661417322834646
        },
        {
          "duration": 0.1436164160155613,
          "durationTicks": 245,
          "midi": 74,
          "name": "D5",
          "ticks": 1225472,
          "time": 521.5601375,
          "velocity": 0.8661417322834646
        },
        {
          "duration": 0.29368091601554625,
          "durationTicks": 501,
          "midi": 73,
          "name": "C#5",
          "ticks": 1225728,
          "time": 521.710202,
          "velocity": 0.8661417322834646
        },
        {
          "duration": 0.14361641601567499,
          "durationTicks": 245,
          "midi": 67,
          "name": "G4",
          "ticks": 1226240,
          "time": 522.010331,
          "velocity": 0.8661417322834646
        },
        {
          "duration": 0.14361641601567499,
          "durationTicks": 245,
          "midi": 70,
          "name": "A#4",
          "ticks": 1226496,
          "time": 522.1603954999999,
          "velocity": 0.8661417322834646
        },
        {
          "duration": 0.29368091601565993,
          "durationTicks": 501,
          "midi": 69,
          "name": "A4",
          "ticks": 1226752,
          "time": 522.3104599999999,
          "velocity": 0.8661417322834646
        },
        {
          "duration": 0.1436164160155613,
          "durationTicks": 245,
          "midi": 69,
          "name": "A4",
          "ticks": 1227264,
          "time": 522.610589,
          "velocity": 0.8661417322834646
        },
        {
          "duration": 0.1436164160155613,
          "durationTicks": 245,
          "midi": 74,
          "name": "D5",
          "ticks": 1227520,
          "time": 522.7606535,
          "velocity": 0.8661417322834646
        },
        {
          "duration": 0.1436164160155613,
          "durationTicks": 245,
          "midi": 77,
          "name": "F5",
          "ticks": 1227776,
          "time": 522.910718,
          "velocity": 0.8661417322834646
        },
        {
          "duration": 0.14361641601567499,
          "durationTicks": 245,
          "midi": 69,
          "name": "A4",
          "ticks": 1228032,
          "time": 523.0607825,
          "velocity": 0.8661417322834646
        },
        {
          "duration": 0.14361641601567499,
          "durationTicks": 245,
          "midi": 74,
          "name": "D5",
          "ticks": 1228288,
          "time": 523.210847,
          "velocity": 0.8661417322834646
        },
        {
          "duration": 0.14361641601567499,
          "durationTicks": 245,
          "midi": 77,
          "name": "F5",
          "ticks": 1228544,
          "time": 523.3609114999999,
          "velocity": 0.8661417322834646
        },
        {
          "duration": 0.14361641601567499,
          "durationTicks": 245,
          "midi": 70,
          "name": "A#4",
          "ticks": 1228800,
          "time": 523.5109759999999,
          "velocity": 0.8661417322834646
        },
        {
          "duration": 0.1436164160155613,
          "durationTicks": 245,
          "midi": 67,
          "name": "G4",
          "ticks": 1229056,
          "time": 523.6610405,
          "velocity": 0.8661417322834646
        },
        {
          "duration": 0.1436164160155613,
          "durationTicks": 245,
          "midi": 70,
          "name": "A#4",
          "ticks": 1229312,
          "time": 523.811105,
          "velocity": 0.8661417322834646
        },
        {
          "duration": 0.1436164160155613,
          "durationTicks": 245,
          "midi": 73,
          "name": "C#5",
          "ticks": 1229568,
          "time": 523.9611695,
          "velocity": 0.8661417322834646
        },
        {
          "duration": 0.14361641601567499,
          "durationTicks": 245,
          "midi": 76,
          "name": "E5",
          "ticks": 1229824,
          "time": 524.111234,
          "velocity": 0.8661417322834646
        },
        {
          "duration": 0.14361641601567499,
          "durationTicks": 245,
          "midi": 70,
          "name": "A#4",
          "ticks": 1230080,
          "time": 524.2612985,
          "velocity": 0.8661417322834646
        },
        {
          "duration": 0.14361641601567499,
          "durationTicks": 245,
          "midi": 73,
          "name": "C#5",
          "ticks": 1230336,
          "time": 524.4113629999999,
          "velocity": 0.8661417322834646
        },
        {
          "duration": 0.14361641601567499,
          "durationTicks": 245,
          "midi": 76,
          "name": "E5",
          "ticks": 1230592,
          "time": 524.5614274999999,
          "velocity": 0.8661417322834646
        },
        {
          "duration": 0.14361641601567499,
          "durationTicks": 245,
          "midi": 77,
          "name": "F5",
          "ticks": 1230848,
          "time": 524.7114919999999,
          "velocity": 0.8661417322834646
        },
        {
          "duration": 0.1436164160155613,
          "durationTicks": 245,
          "midi": 81,
          "name": "A5",
          "ticks": 1231104,
          "time": 524.8615565,
          "velocity": 0.8661417322834646
        },
        {
          "duration": 0.1436164160155613,
          "durationTicks": 245,
          "midi": 86,
          "name": "D6",
          "ticks": 1231360,
          "time": 525.011621,
          "velocity": 0.8661417322834646
        },
        {
          "duration": 0.1436164160155613,
          "durationTicks": 245,
          "midi": 81,
          "name": "A5",
          "ticks": 1231616,
          "time": 525.1616855,
          "velocity": 0.8661417322834646
        },
        {
          "duration": 0.14361641601567499,
          "durationTicks": 245,
          "midi": 77,
          "name": "F5",
          "ticks": 1231872,
          "time": 525.31175,
          "velocity": 0.8661417322834646
        },
        {
          "duration": 0.14361641601567499,
          "durationTicks": 245,
          "midi": 86,
          "name": "D6",
          "ticks": 1232128,
          "time": 525.4618145,
          "velocity": 0.8661417322834646
        },
        {
          "duration": 0.14361641601567499,
          "durationTicks": 245,
          "midi": 81,
          "name": "A5",
          "ticks": 1232384,
          "time": 525.6118789999999,
          "velocity": 0.8661417322834646
        },
        {
          "duration": 0.14361641601567499,
          "durationTicks": 245,
          "midi": 77,
          "name": "F5",
          "ticks": 1232640,
          "time": 525.7619434999999,
          "velocity": 0.8661417322834646
        },
        {
          "duration": 0.1436164160155613,
          "durationTicks": 245,
          "midi": 76,
          "name": "E5",
          "ticks": 1232896,
          "time": 525.912008,
          "velocity": 0.8661417322834646
        },
        {
          "duration": 0.1436164160155613,
          "durationTicks": 245,
          "midi": 79,
          "name": "G5",
          "ticks": 1233152,
          "time": 526.0620725,
          "velocity": 0.8661417322834646
        },
        {
          "duration": 0.1436164160155613,
          "durationTicks": 245,
          "midi": 85,
          "name": "C#6",
          "ticks": 1233408,
          "time": 526.212137,
          "velocity": 0.8661417322834646
        },
        {
          "duration": 0.1436164160155613,
          "durationTicks": 245,
          "midi": 79,
          "name": "G5",
          "ticks": 1233664,
          "time": 526.3622015,
          "velocity": 0.8661417322834646
        },
        {
          "duration": 0.14361641601567499,
          "durationTicks": 245,
          "midi": 76,
          "name": "E5",
          "ticks": 1233920,
          "time": 526.512266,
          "velocity": 0.8661417322834646
        },
        {
          "duration": 0.14361641601567499,
          "durationTicks": 245,
          "midi": 85,
          "name": "C#6",
          "ticks": 1234176,
          "time": 526.6623304999999,
          "velocity": 0.8661417322834646
        },
        {
          "duration": 0.14361641601567499,
          "durationTicks": 245,
          "midi": 79,
          "name": "G5",
          "ticks": 1234432,
          "time": 526.8123949999999,
          "velocity": 0.8661417322834646
        },
        {
          "duration": 0.14361641601567499,
          "durationTicks": 245,
          "midi": 76,
          "name": "E5",
          "ticks": 1234688,
          "time": 526.9624594999999,
          "velocity": 0.8661417322834646
        },
        {
          "duration": 0.1436164160155613,
          "durationTicks": 245,
          "midi": 74,
          "name": "D5",
          "ticks": 1234944,
          "time": 527.112524,
          "velocity": 0.8661417322834646
        },
        {
          "duration": 0.1436164160155613,
          "durationTicks": 245,
          "midi": 77,
          "name": "F5",
          "ticks": 1235200,
          "time": 527.2625885,
          "velocity": 0.8661417322834646
        },
        {
          "duration": 0.1436164160155613,
          "durationTicks": 245,
          "midi": 81,
          "name": "A5",
          "ticks": 1235456,
          "time": 527.412653,
          "velocity": 0.8661417322834646
        },
        {
          "duration": 0.14361641601567499,
          "durationTicks": 245,
          "midi": 77,
          "name": "F5",
          "ticks": 1235712,
          "time": 527.5627175,
          "velocity": 0.8661417322834646
        },
        {
          "duration": 0.14361641601567499,
          "durationTicks": 245,
          "midi": 74,
          "name": "D5",
          "ticks": 1235968,
          "time": 527.712782,
          "velocity": 0.8661417322834646
        },
        {
          "duration": 0.14361641601567499,
          "durationTicks": 245,
          "midi": 81,
          "name": "A5",
          "ticks": 1236224,
          "time": 527.8628464999999,
          "velocity": 0.8661417322834646
        },
        {
          "duration": 0.14361641601567499,
          "durationTicks": 245,
          "midi": 77,
          "name": "F5",
          "ticks": 1236480,
          "time": 528.0129109999999,
          "velocity": 0.8661417322834646
        },
        {
          "duration": 0.14361641601567499,
          "durationTicks": 245,
          "midi": 74,
          "name": "D5",
          "ticks": 1236736,
          "time": 528.1629754999999,
          "velocity": 0.8661417322834646
        },
        {
          "duration": 0.29368091601554625,
          "durationTicks": 501,
          "midi": 73,
          "name": "C#5",
          "ticks": 1236992,
          "time": 528.31304,
          "velocity": 0.8661417322834646
        },
        {
          "duration": 0.29368091601565993,
          "durationTicks": 501,
          "midi": 69,
          "name": "A4",
          "ticks": 1237504,
          "time": 528.613169,
          "velocity": 0.8661417322834646
        },
        {
          "duration": 0.29368091601565993,
          "durationTicks": 501,
          "midi": 73,
          "name": "C#5",
          "ticks": 1237504,
          "time": 528.613169,
          "velocity": 0.8661417322834646
        },
        {
          "duration": 0.29368091601565993,
          "durationTicks": 501,
          "midi": 79,
          "name": "G5",
          "ticks": 1237504,
          "time": 528.613169,
          "velocity": 0.8661417322834646
        },
        {
          "duration": 0.29368091601565993,
          "durationTicks": 501,
          "midi": 74,
          "name": "D5",
          "ticks": 1238016,
          "time": 528.9132979999999,
          "velocity": 0.8661417322834646
        },
        {
          "duration": 0.29368091601565993,
          "durationTicks": 501,
          "midi": 77,
          "name": "F5",
          "ticks": 1238016,
          "time": 528.9132979999999,
          "velocity": 0.8661417322834646
        },
        {
          "duration": 0.29368091601565993,
          "durationTicks": 501,
          "midi": 82,
          "name": "A#5",
          "ticks": 1238016,
          "time": 528.9132979999999,
          "velocity": 0.8661417322834646
        },
        {
          "duration": 0.29368091601565993,
          "durationTicks": 501,
          "midi": 73,
          "name": "C#5",
          "ticks": 1238528,
          "time": 529.2134269999999,
          "velocity": 0.8661417322834646
        },
        {
          "duration": 0.29368091601565993,
          "durationTicks": 501,
          "midi": 76,
          "name": "E5",
          "ticks": 1238528,
          "time": 529.2134269999999,
          "velocity": 0.8661417322834646
        },
        {
          "duration": 0.29368091601565993,
          "durationTicks": 501,
          "midi": 81,
          "name": "A5",
          "ticks": 1238528,
          "time": 529.2134269999999,
          "velocity": 0.8661417322834646
        },
        {
          "duration": 1.0504515000000083,
          "durationTicks": 1792,
          "midi": 69,
          "name": "A4",
          "ticks": 1239040,
          "time": 529.513556,
          "velocity": 0.8661417322834646
        },
        {
          "duration": 1.0504515000000083,
          "durationTicks": 1792,
          "midi": 73,
          "name": "C#5",
          "ticks": 1239040,
          "time": 529.513556,
          "velocity": 0.8661417322834646
        },
        {
          "duration": 1.0504515000000083,
          "durationTicks": 1792,
          "midi": 79,
          "name": "G5",
          "ticks": 1239040,
          "time": 529.513556,
          "velocity": 0.8661417322834646
        },
        {
          "duration": 0.1436164160155613,
          "durationTicks": 245,
          "midi": 74,
          "name": "D5",
          "ticks": 1241344,
          "time": 530.8641365,
          "velocity": 0.8661417322834646
        },
        {
          "duration": 0.1436164160155613,
          "durationTicks": 245,
          "midi": 86,
          "name": "D6",
          "ticks": 1241344,
          "time": 530.8641365,
          "velocity": 0.8661417322834646
        },
        {
          "duration": 0.14361641601567499,
          "durationTicks": 245,
          "midi": 73,
          "name": "C#5",
          "ticks": 1241600,
          "time": 531.014201,
          "velocity": 0.8661417322834646
        },
        {
          "duration": 0.14361641601567499,
          "durationTicks": 245,
          "midi": 85,
          "name": "C#6",
          "ticks": 1241600,
          "time": 531.014201,
          "velocity": 0.8661417322834646
        },
        {
          "duration": 0.14361641601567499,
          "durationTicks": 245,
          "midi": 74,
          "name": "D5",
          "ticks": 1241856,
          "time": 531.1642654999999,
          "velocity": 0.8661417322834646
        },
        {
          "duration": 0.14361641601567499,
          "durationTicks": 245,
          "midi": 86,
          "name": "D6",
          "ticks": 1241856,
          "time": 531.1642654999999,
          "velocity": 0.8661417322834646
        },
        {
          "duration": 0.14361641601567499,
          "durationTicks": 245,
          "midi": 75,
          "name": "D#5",
          "ticks": 1242112,
          "time": 531.3143299999999,
          "velocity": 0.8661417322834646
        },
        {
          "duration": 0.14361641601567499,
          "durationTicks": 245,
          "midi": 87,
          "name": "D#6",
          "ticks": 1242112,
          "time": 531.3143299999999,
          "velocity": 0.8661417322834646
        },
        {
          "duration": 0.14361641601567499,
          "durationTicks": 245,
          "midi": 74,
          "name": "D5",
          "ticks": 1242368,
          "time": 531.4643944999999,
          "velocity": 0.8661417322834646
        },
        {
          "duration": 0.14361641601567499,
          "durationTicks": 245,
          "midi": 86,
          "name": "D6",
          "ticks": 1242368,
          "time": 531.4643944999999,
          "velocity": 0.8661417322834646
        },
        {
          "duration": 0.1436164160155613,
          "durationTicks": 245,
          "midi": 73,
          "name": "C#5",
          "ticks": 1242624,
          "time": 531.614459,
          "velocity": 0.8661417322834646
        },
        {
          "duration": 0.1436164160155613,
          "durationTicks": 245,
          "midi": 85,
          "name": "C#6",
          "ticks": 1242624,
          "time": 531.614459,
          "velocity": 0.8661417322834646
        },
        {
          "duration": 0.1436164160155613,
          "durationTicks": 245,
          "midi": 68,
          "name": "G#4",
          "ticks": 1242880,
          "time": 531.7645235,
          "velocity": 0.8661417322834646
        },
        {
          "duration": 0.1436164160155613,
          "durationTicks": 245,
          "midi": 80,
          "name": "G#5",
          "ticks": 1242880,
          "time": 531.7645235,
          "velocity": 0.8661417322834646
        },
        {
          "duration": 0.1436164160155613,
          "durationTicks": 245,
          "midi": 69,
          "name": "A4",
          "ticks": 1243136,
          "time": 531.914588,
          "velocity": 0.8661417322834646
        },
        {
          "duration": 0.1436164160155613,
          "durationTicks": 245,
          "midi": 81,
          "name": "A5",
          "ticks": 1243136,
          "time": 531.914588,
          "velocity": 0.8661417322834646
        },
        {
          "duration": 0.14361641601567499,
          "durationTicks": 245,
          "midi": 77,
          "name": "F5",
          "ticks": 1243392,
          "time": 532.0646525,
          "velocity": 0.8661417322834646
        },
        {
          "duration": 0.14361641601567499,
          "durationTicks": 245,
          "midi": 76,
          "name": "E5",
          "ticks": 1243648,
          "time": 532.214717,
          "velocity": 0.8661417322834646
        },
        {
          "duration": 0.14361641601567499,
          "durationTicks": 245,
          "midi": 77,
          "name": "F5",
          "ticks": 1243904,
          "time": 532.3647814999999,
          "velocity": 0.8661417322834646
        },
        {
          "duration": 0.14361641601567499,
          "durationTicks": 245,
          "midi": 67,
          "name": "G4",
          "ticks": 1244160,
          "time": 532.5148459999999,
          "velocity": 0.8661417322834646
        },
        {
          "duration": 0.14361641601567499,
          "durationTicks": 245,
          "midi": 79,
          "name": "G5",
          "ticks": 1244160,
          "time": 532.5148459999999,
          "velocity": 0.8661417322834646
        },
        {
          "duration": 0.14361641601567499,
          "durationTicks": 245,
          "midi": 77,
          "name": "F5",
          "ticks": 1244416,
          "time": 532.6649104999999,
          "velocity": 0.8661417322834646
        },
        {
          "duration": 0.1436164160155613,
          "durationTicks": 245,
          "midi": 76,
          "name": "E5",
          "ticks": 1244672,
          "time": 532.814975,
          "velocity": 0.8661417322834646
        },
        {
          "duration": 0.1436164160155613,
          "durationTicks": 245,
          "midi": 73,
          "name": "C#5",
          "ticks": 1244928,
          "time": 532.9650395,
          "velocity": 0.8661417322834646
        },
        {
          "duration": 0.500019603515625,
          "durationTicks": 853,
          "midi": 74,
          "name": "D5",
          "ticks": 1245184,
          "time": 533.115104,
          "velocity": 0.8661417322834646
        },
        {
          "duration": 0.29368091601565993,
          "durationTicks": 501,
          "midi": 67,
          "name": "G4",
          "ticks": 1250816,
          "time": 536.416523,
          "velocity": 0.8661417322834646
        },
        {
          "duration": 0.29368091601565993,
          "durationTicks": 501,
          "midi": 70,
          "name": "A#4",
          "ticks": 1251840,
          "time": 537.0167809999999,
          "velocity": 0.8661417322834646
        },
        {
          "duration": 0.29368091601554625,
          "durationTicks": 501,
          "midi": 67,
          "name": "G4",
          "ticks": 1252352,
          "time": 537.31691,
          "velocity": 0.8661417322834646
        },
        {
          "duration": 0.29368091601554625,
          "durationTicks": 501,
          "midi": 69,
          "name": "A4",
          "ticks": 1252352,
          "time": 537.31691,
          "velocity": 0.8661417322834646
        },
        {
          "duration": 0.29368091601565993,
          "durationTicks": 501,
          "midi": 73,
          "name": "C#5",
          "ticks": 1252864,
          "time": 537.617039,
          "velocity": 0.8661417322834646
        },
        {
          "duration": 0.14361641601567499,
          "durationTicks": 245,
          "midi": 69,
          "name": "A4",
          "ticks": 1253376,
          "time": 537.917168,
          "velocity": 0.8661417322834646
        },
        {
          "duration": 0.14361641601567499,
          "durationTicks": 245,
          "midi": 74,
          "name": "D5",
          "ticks": 1253376,
          "time": 537.917168,
          "velocity": 0.8661417322834646
        },
        {
          "duration": 0.14361641601567499,
          "durationTicks": 245,
          "midi": 69,
          "name": "A4",
          "ticks": 1253632,
          "time": 538.0672324999999,
          "velocity": 0.8661417322834646
        },
        {
          "duration": 0.14361641601567499,
          "durationTicks": 245,
          "midi": 74,
          "name": "D5",
          "ticks": 1253888,
          "time": 538.2172969999999,
          "velocity": 0.8661417322834646
        },
        {
          "duration": 0.1436164160155613,
          "durationTicks": 245,
          "midi": 81,
          "name": "A5",
          "ticks": 1254144,
          "time": 538.3673615,
          "velocity": 0.8661417322834646
        },
        {
          "duration": 0.1436164160155613,
          "durationTicks": 245,
          "midi": 80,
          "name": "G#5",
          "ticks": 1254400,
          "time": 538.517426,
          "velocity": 0.8661417322834646
        },
        {
          "duration": 0.1436164160155613,
          "durationTicks": 245,
          "midi": 69,
          "name": "A4",
          "ticks": 1254656,
          "time": 538.6674905,
          "velocity": 0.8661417322834646
        },
        {
          "duration": 0.1436164160155613,
          "durationTicks": 245,
          "midi": 74,
          "name": "D5",
          "ticks": 1254912,
          "time": 538.817555,
          "velocity": 0.8661417322834646
        },
        {
          "duration": 0.14361641601567499,
          "durationTicks": 245,
          "midi": 79,
          "name": "G5",
          "ticks": 1255168,
          "time": 538.9676195,
          "velocity": 0.8661417322834646
        },
        {
          "duration": 0.14361641601567499,
          "durationTicks": 245,
          "midi": 77,
          "name": "F5",
          "ticks": 1255424,
          "time": 539.1176839999999,
          "velocity": 0.8661417322834646
        },
        {
          "duration": 0.14361641601567499,
          "durationTicks": 245,
          "midi": 69,
          "name": "A4",
          "ticks": 1255680,
          "time": 539.2677484999999,
          "velocity": 0.8661417322834646
        },
        {
          "duration": 0.14361641601567499,
          "durationTicks": 245,
          "midi": 74,
          "name": "D5",
          "ticks": 1255936,
          "time": 539.4178129999999,
          "velocity": 0.8661417322834646
        },
        {
          "duration": 0.1436164160155613,
          "durationTicks": 245,
          "midi": 77,
          "name": "F5",
          "ticks": 1256192,
          "time": 539.5678775,
          "velocity": 0.8661417322834646
        },
        {
          "duration": 0.1436164160155613,
          "durationTicks": 245,
          "midi": 76,
          "name": "E5",
          "ticks": 1256448,
          "time": 539.717942,
          "velocity": 0.8661417322834646
        },
        {
          "duration": 0.1436164160155613,
          "durationTicks": 245,
          "midi": 67,
          "name": "G4",
          "ticks": 1256704,
          "time": 539.8680065,
          "velocity": 0.8661417322834646
        },
        {
          "duration": 0.14361641601567499,
          "durationTicks": 245,
          "midi": 73,
          "name": "C#5",
          "ticks": 1256960,
          "time": 540.018071,
          "velocity": 0.8661417322834646
        },
        {
          "duration": 0.14361641601567499,
          "durationTicks": 245,
          "midi": 76,
          "name": "E5",
          "ticks": 1257216,
          "time": 540.1681355,
          "velocity": 0.8661417322834646
        },
        {
          "duration": 0.29368091601565993,
          "durationTicks": 501,
          "midi": 74,
          "name": "D5",
          "ticks": 1257472,
          "time": 540.3181999999999,
          "velocity": 0.8661417322834646
        },
        {
          "duration": 0.14361641601567499,
          "durationTicks": 245,
          "midi": 69,
          "name": "A4",
          "ticks": 1257984,
          "time": 540.6183289999999,
          "velocity": 0.8661417322834646
        },
        {
          "duration": 0.1436164160155613,
          "durationTicks": 245,
          "midi": 74,
          "name": "D5",
          "ticks": 1258240,
          "time": 540.7683935,
          "velocity": 0.8661417322834646
        },
        {
          "duration": 0.29368091601554625,
          "durationTicks": 501,
          "midi": 73,
          "name": "C#5",
          "ticks": 1258496,
          "time": 540.918458,
          "velocity": 0.8661417322834646
        },
        {
          "duration": 0.14361641601567499,
          "durationTicks": 245,
          "midi": 67,
          "name": "G4",
          "ticks": 1259008,
          "time": 541.218587,
          "velocity": 0.8661417322834646
        },
        {
          "duration": 0.14361641601567499,
          "durationTicks": 245,
          "midi": 70,
          "name": "A#4",
          "ticks": 1259264,
          "time": 541.3686514999999,
          "velocity": 0.8661417322834646
        },
        {
          "duration": 0.29368091601565993,
          "durationTicks": 501,
          "midi": 69,
          "name": "A4",
          "ticks": 1259520,
          "time": 541.5187159999999,
          "velocity": 0.8661417322834646
        },
        {
          "duration": 0.1436164160155613,
          "durationTicks": 245,
          "midi": 69,
          "name": "A4",
          "ticks": 1260032,
          "time": 541.818845,
          "velocity": 0.8661417322834646
        },
        {
          "duration": 0.1436164160155613,
          "durationTicks": 245,
          "midi": 74,
          "name": "D5",
          "ticks": 1260288,
          "time": 541.9689095,
          "velocity": 0.8661417322834646
        },
        {
          "duration": 0.1436164160155613,
          "durationTicks": 245,
          "midi": 77,
          "name": "F5",
          "ticks": 1260544,
          "time": 542.118974,
          "velocity": 0.8661417322834646
        },
        {
          "duration": 0.1436164160155613,
          "durationTicks": 245,
          "midi": 69,
          "name": "A4",
          "ticks": 1260800,
          "time": 542.2690385,
          "velocity": 0.8661417322834646
        },
        {
          "duration": 0.14361641601567499,
          "durationTicks": 245,
          "midi": 74,
          "name": "D5",
          "ticks": 1261056,
          "time": 542.419103,
          "velocity": 0.8661417322834646
        },
        {
          "duration": 0.14361641601567499,
          "durationTicks": 245,
          "midi": 77,
          "name": "F5",
          "ticks": 1261312,
          "time": 542.5691674999999,
          "velocity": 0.8661417322834646
        },
        {
          "duration": 0.14361641601567499,
          "durationTicks": 245,
          "midi": 76,
          "name": "E5",
          "ticks": 1261568,
          "time": 542.7192319999999,
          "velocity": 0.8661417322834646
        },
        {
          "duration": 0.1436164160155613,
          "durationTicks": 245,
          "midi": 67,
          "name": "G4",
          "ticks": 1261824,
          "time": 542.8692965,
          "velocity": 0.8661417322834646
        },
        {
          "duration": 0.1436164160155613,
          "durationTicks": 245,
          "midi": 70,
          "name": "A#4",
          "ticks": 1262080,
          "time": 543.019361,
          "velocity": 0.8661417322834646
        },
        {
          "duration": 0.1436164160155613,
          "durationTicks": 245,
          "midi": 73,
          "name": "C#5",
          "ticks": 1262336,
          "time": 543.1694255,
          "velocity": 0.8661417322834646
        },
        {
          "duration": 0.1436164160155613,
          "durationTicks": 245,
          "midi": 76,
          "name": "E5",
          "ticks": 1262592,
          "time": 543.31949,
          "velocity": 0.8661417322834646
        },
        {
          "duration": 0.14361641601567499,
          "durationTicks": 245,
          "midi": 73,
          "name": "C#5",
          "ticks": 1262848,
          "time": 543.4695545,
          "velocity": 0.8661417322834646
        },
        {
          "duration": 0.14361641601567499,
          "durationTicks": 245,
          "midi": 76,
          "name": "E5",
          "ticks": 1263104,
          "time": 543.619619,
          "velocity": 0.8661417322834646
        },
        {
          "duration": 0.14361641601567499,
          "durationTicks": 245,
          "midi": 79,
          "name": "G5",
          "ticks": 1263360,
          "time": 543.7696834999999,
          "velocity": 0.8661417322834646
        },
        {
          "duration": 0.14361641601567499,
          "durationTicks": 245,
          "midi": 77,
          "name": "F5",
          "ticks": 1263616,
          "time": 543.9197479999999,
          "velocity": 0.8661417322834646
        },
        {
          "duration": 0.1436164160155613,
          "durationTicks": 245,
          "midi": 81,
          "name": "A5",
          "ticks": 1263872,
          "time": 544.0698125,
          "velocity": 0.8661417322834646
        },
        {
          "duration": 0.1436164160155613,
          "durationTicks": 245,
          "midi": 86,
          "name": "D6",
          "ticks": 1264128,
          "time": 544.219877,
          "velocity": 0.8661417322834646
        },
        {
          "duration": 0.1436164160155613,
          "durationTicks": 245,
          "midi": 81,
          "name": "A5",
          "ticks": 1264384,
          "time": 544.3699415,
          "velocity": 0.8661417322834646
        },
        {
          "duration": 0.14361641601567499,
          "durationTicks": 245,
          "midi": 77,
          "name": "F5",
          "ticks": 1264640,
          "time": 544.520006,
          "velocity": 0.8661417322834646
        },
        {
          "duration": 0.14361641601567499,
          "durationTicks": 245,
          "midi": 86,
          "name": "D6",
          "ticks": 1264896,
          "time": 544.6700705,
          "velocity": 0.8661417322834646
        },
        {
          "duration": 0.14361641601567499,
          "durationTicks": 245,
          "midi": 81,
          "name": "A5",
          "ticks": 1265152,
          "time": 544.8201349999999,
          "velocity": 0.8661417322834646
        },
        {
          "duration": 0.14361641601567499,
          "durationTicks": 245,
          "midi": 77,
          "name": "F5",
          "ticks": 1265408,
          "time": 544.9701994999999,
          "velocity": 0.8661417322834646
        },
        {
          "duration": 0.14361641601567499,
          "durationTicks": 245,
          "midi": 76,
          "name": "E5",
          "ticks": 1265664,
          "time": 545.1202639999999,
          "velocity": 0.8661417322834646
        },
        {
          "duration": 0.1436164160155613,
          "durationTicks": 245,
          "midi": 79,
          "name": "G5",
          "ticks": 1265920,
          "time": 545.2703285,
          "velocity": 0.8661417322834646
        },
        {
          "duration": 0.1436164160155613,
          "durationTicks": 245,
          "midi": 85,
          "name": "C#6",
          "ticks": 1266176,
          "time": 545.420393,
          "velocity": 0.8661417322834646
        },
        {
          "duration": 0.1436164160155613,
          "durationTicks": 245,
          "midi": 79,
          "name": "G5",
          "ticks": 1266432,
          "time": 545.5704575,
          "velocity": 0.8661417322834646
        },
        {
          "duration": 0.14361641601567499,
          "durationTicks": 245,
          "midi": 76,
          "name": "E5",
          "ticks": 1266688,
          "time": 545.720522,
          "velocity": 0.8661417322834646
        },
        {
          "duration": 0.14361641601567499,
          "durationTicks": 245,
          "midi": 85,
          "name": "C#6",
          "ticks": 1266944,
          "time": 545.8705865,
          "velocity": 0.8661417322834646
        },
        {
          "duration": 0.14361641601567499,
          "durationTicks": 245,
          "midi": 79,
          "name": "G5",
          "ticks": 1267200,
          "time": 546.0206509999999,
          "velocity": 0.8661417322834646
        },
        {
          "duration": 0.14361641601567499,
          "durationTicks": 245,
          "midi": 76,
          "name": "E5",
          "ticks": 1267456,
          "time": 546.1707154999999,
          "velocity": 0.8661417322834646
        },
        {
          "duration": 0.1436164160155613,
          "durationTicks": 245,
          "midi": 69,
          "name": "A4",
          "ticks": 1267968,
          "time": 546.4708445,
          "velocity": 0.8661417322834646
        },
        {
          "duration": 0.1436164160155613,
          "durationTicks": 245,
          "midi": 74,
          "name": "D5",
          "ticks": 1268224,
          "time": 546.620909,
          "velocity": 0.8661417322834646
        },
        {
          "duration": 0.1436164160155613,
          "durationTicks": 245,
          "midi": 69,
          "name": "A4",
          "ticks": 1268480,
          "time": 546.7709735,
          "velocity": 0.8661417322834646
        },
        {
          "duration": 0.14361641601567499,
          "durationTicks": 245,
          "midi": 77,
          "name": "F5",
          "ticks": 1268736,
          "time": 546.921038,
          "velocity": 0.8661417322834646
        },
        {
          "duration": 0.14361641601567499,
          "durationTicks": 245,
          "midi": 69,
          "name": "A4",
          "ticks": 1268992,
          "time": 547.0711024999999,
          "velocity": 0.8661417322834646
        },
        {
          "duration": 0.14361641601567499,
          "durationTicks": 245,
          "midi": 74,
          "name": "D5",
          "ticks": 1269248,
          "time": 547.2211669999999,
          "velocity": 0.8661417322834646
        },
        {
          "duration": 0.14361641601567499,
          "durationTicks": 245,
          "midi": 69,
          "name": "A4",
          "ticks": 1269504,
          "time": 547.3712314999999,
          "velocity": 0.8661417322834646
        },
        {
          "duration": 0.1436164160155613,
          "durationTicks": 245,
          "midi": 75,
          "name": "D#5",
          "ticks": 1269760,
          "time": 547.521296,
          "velocity": 0.8661417322834646
        },
        {
          "duration": 0.1436164160155613,
          "durationTicks": 245,
          "midi": 67,
          "name": "G4",
          "ticks": 1270016,
          "time": 547.6713605,
          "velocity": 0.8661417322834646
        },
        {
          "duration": 0.1436164160155613,
          "durationTicks": 245,
          "midi": 74,
          "name": "D5",
          "ticks": 1270272,
          "time": 547.821425,
          "velocity": 0.8661417322834646
        },
        {
          "duration": 0.14361641601567499,
          "durationTicks": 245,
          "midi": 69,
          "name": "A4",
          "ticks": 1270528,
          "time": 547.9714895,
          "velocity": 0.8661417322834646
        },
        {
          "duration": 0.14361641601567499,
          "durationTicks": 245,
          "midi": 75,
          "name": "D#5",
          "ticks": 1270784,
          "time": 548.121554,
          "velocity": 0.8661417322834646
        },
        {
          "duration": 0.14361641601567499,
          "durationTicks": 245,
          "midi": 69,
          "name": "A4",
          "ticks": 1271040,
          "time": 548.2716184999999,
          "velocity": 0.8661417322834646
        },
        {
          "duration": 0.14361641601567499,
          "durationTicks": 245,
          "midi": 74,
          "name": "D5",
          "ticks": 1271296,
          "time": 548.4216829999999,
          "velocity": 0.8661417322834646
        },
        {
          "duration": 0.14361641601567499,
          "durationTicks": 245,
          "midi": 69,
          "name": "A4",
          "ticks": 1271552,
          "time": 548.5717474999999,
          "velocity": 0.8661417322834646
        },
        {
          "duration": 0.1436164160155613,
          "durationTicks": 245,
          "midi": 67,
          "name": "G4",
          "ticks": 1272064,
          "time": 548.8718765,
          "velocity": 0.8661417322834646
        },
        {
          "duration": 0.1436164160155613,
          "durationTicks": 245,
          "midi": 73,
          "name": "C#5",
          "ticks": 1272320,
          "time": 549.021941,
          "velocity": 0.8661417322834646
        },
        {
          "duration": 0.14361641601567499,
          "durationTicks": 245,
          "midi": 67,
          "name": "G4",
          "ticks": 1272576,
          "time": 549.1720055,
          "velocity": 0.8661417322834646
        },
        {
          "duration": 0.14361641601567499,
          "durationTicks": 245,
          "midi": 67,
          "name": "G4",
          "ticks": 1273088,
          "time": 549.4721344999999,
          "velocity": 0.8661417322834646
        },
        {
          "duration": 0.14361641601567499,
          "durationTicks": 245,
          "midi": 73,
          "name": "C#5",
          "ticks": 1273344,
          "time": 549.6221989999999,
          "velocity": 0.8661417322834646
        },
        {
          "duration": 0.1436164160155613,
          "durationTicks": 245,
          "midi": 67,
          "name": "G4",
          "ticks": 1273600,
          "time": 549.7722635,
          "velocity": 0.8661417322834646
        },
        {
          "duration": 0.1436164160155613,
          "durationTicks": 245,
          "midi": 67,
          "name": "G4",
          "ticks": 1274112,
          "time": 550.0723925,
          "velocity": 0.8661417322834646
        },
        {
          "duration": 0.1436164160155613,
          "durationTicks": 245,
          "midi": 73,
          "name": "C#5",
          "ticks": 1274368,
          "time": 550.222457,
          "velocity": 0.8661417322834646
        },
        {
          "duration": 0.14361641601567499,
          "durationTicks": 245,
          "midi": 67,
          "name": "G4",
          "ticks": 1274624,
          "time": 550.3725215,
          "velocity": 0.8661417322834646
        },
        {
          "duration": 0.14361641601567499,
          "durationTicks": 245,
          "midi": 67,
          "name": "G4",
          "ticks": 1275136,
          "time": 550.6726504999999,
          "velocity": 0.8661417322834646
        },
        {
          "duration": 0.1436164160155613,
          "durationTicks": 245,
          "midi": 73,
          "name": "C#5",
          "ticks": 1275392,
          "time": 550.822715,
          "velocity": 0.8661417322834646
        },
        {
          "duration": 0.1436164160155613,
          "durationTicks": 245,
          "midi": 67,
          "name": "G4",
          "ticks": 1275648,
          "time": 550.9727795,
          "velocity": 0.8661417322834646
        },
        {
          "duration": 0.1436164160155613,
          "durationTicks": 245,
          "midi": 68,
          "name": "G#4",
          "ticks": 1276160,
          "time": 551.2729085,
          "velocity": 0.8661417322834646
        },
        {
          "duration": 0.14361641601567499,
          "durationTicks": 245,
          "midi": 71,
          "name": "B4",
          "ticks": 1276416,
          "time": 551.422973,
          "velocity": 0.8661417322834646
        },
        {
          "duration": 0.14361641601567499,
          "durationTicks": 245,
          "midi": 68,
          "name": "G#4",
          "ticks": 1276672,
          "time": 551.5730374999999,
          "velocity": 0.8661417322834646
        },
        {
          "duration": 0.14361641601567499,
          "durationTicks": 245,
          "midi": 74,
          "name": "D5",
          "ticks": 1276928,
          "time": 551.7231019999999,
          "velocity": 0.8661417322834646
        },
        {
          "duration": 0.14361641601567499,
          "durationTicks": 245,
          "midi": 68,
          "name": "G#4",
          "ticks": 1277184,
          "time": 551.8731664999999,
          "velocity": 0.8661417322834646
        },
        {
          "duration": 0.1436164160155613,
          "durationTicks": 245,
          "midi": 71,
          "name": "B4",
          "ticks": 1277440,
          "time": 552.023231,
          "velocity": 0.8661417322834646
        },
        {
          "duration": 0.1436164160155613,
          "durationTicks": 245,
          "midi": 68,
          "name": "G#4",
          "ticks": 1277696,
          "time": 552.1732955,
          "velocity": 0.8661417322834646
        },
        {
          "duration": 0.14361641601567499,
          "durationTicks": 245,
          "midi": 68,
          "name": "G#4",
          "ticks": 1278208,
          "time": 552.4734245,
          "velocity": 0.8661417322834646
        },
        {
          "duration": 0.14361641601567499,
          "durationTicks": 245,
          "midi": 71,
          "name": "B4",
          "ticks": 1278464,
          "time": 552.623489,
          "velocity": 0.8661417322834646
        },
        {
          "duration": 0.14361641601567499,
          "durationTicks": 245,
          "midi": 68,
          "name": "G#4",
          "ticks": 1278720,
          "time": 552.7735534999999,
          "velocity": 0.8661417322834646
        },
        {
          "duration": 0.14361641601567499,
          "durationTicks": 245,
          "midi": 73,
          "name": "C#5",
          "ticks": 1278976,
          "time": 552.9236179999999,
          "velocity": 0.8661417322834646
        },
        {
          "duration": 0.14361641601567499,
          "durationTicks": 245,
          "midi": 67,
          "name": "G4",
          "ticks": 1279232,
          "time": 553.0736824999999,
          "velocity": 0.8661417322834646
        },
        {
          "duration": 0.1436164160155613,
          "durationTicks": 245,
          "midi": 70,
          "name": "A#4",
          "ticks": 1279488,
          "time": 553.223747,
          "velocity": 0.8661417322834646
        },
        {
          "duration": 0.1436164160155613,
          "durationTicks": 245,
          "midi": 67,
          "name": "G4",
          "ticks": 1279744,
          "time": 553.3738115,
          "velocity": 0.8661417322834646
        },
        {
          "duration": 0.14361641601567499,
          "durationTicks": 245,
          "midi": 69,
          "name": "A4",
          "ticks": 1280256,
          "time": 553.6739405,
          "velocity": 0.8661417322834646
        },
        {
          "duration": 0.14361641601567499,
          "durationTicks": 245,
          "midi": 74,
          "name": "D5",
          "ticks": 1280512,
          "time": 553.8240049999999,
          "velocity": 0.8661417322834646
        },
        {
          "duration": 0.14361641601567499,
          "durationTicks": 245,
          "midi": 69,
          "name": "A4",
          "ticks": 1280768,
          "time": 553.9740694999999,
          "velocity": 0.8661417322834646
        },
        {
          "duration": 0.14361641601567499,
          "durationTicks": 245,
          "midi": 77,
          "name": "F5",
          "ticks": 1281024,
          "time": 554.1241339999999,
          "velocity": 0.8661417322834646
        },
        {
          "duration": 0.1436164160155613,
          "durationTicks": 245,
          "midi": 69,
          "name": "A4",
          "ticks": 1281280,
          "time": 554.2741985,
          "velocity": 0.8661417322834646
        },
        {
          "duration": 0.1436164160155613,
          "durationTicks": 245,
          "midi": 74,
          "name": "D5",
          "ticks": 1281536,
          "time": 554.424263,
          "velocity": 0.8661417322834646
        },
        {
          "duration": 0.1436164160155613,
          "durationTicks": 245,
          "midi": 69,
          "name": "A4",
          "ticks": 1281792,
          "time": 554.5743275,
          "velocity": 0.8661417322834646
        },
        {
          "duration": 0.14361641601567499,
          "durationTicks": 245,
          "midi": 69,
          "name": "A4",
          "ticks": 1282304,
          "time": 554.8744565,
          "velocity": 0.8661417322834646
        },
        {
          "duration": 0.14361641601567499,
          "durationTicks": 245,
          "midi": 74,
          "name": "D5",
          "ticks": 1282560,
          "time": 555.0245209999999,
          "velocity": 0.8661417322834646
        },
        {
          "duration": 0.14361641601567499,
          "durationTicks": 245,
          "midi": 69,
          "name": "A4",
          "ticks": 1282816,
          "time": 555.1745854999999,
          "velocity": 0.8661417322834646
        },
        {
          "duration": 0.14361641601567499,
          "durationTicks": 245,
          "midi": 77,
          "name": "F5",
          "ticks": 1283072,
          "time": 555.3246499999999,
          "velocity": 0.8661417322834646
        },
        {
          "duration": 0.1436164160155613,
          "durationTicks": 245,
          "midi": 74,
          "name": "D5",
          "ticks": 1283328,
          "time": 555.4747145,
          "velocity": 0.8661417322834646
        },
        {
          "duration": 0.1436164160155613,
          "durationTicks": 245,
          "midi": 77,
          "name": "F5",
          "ticks": 1283584,
          "time": 555.624779,
          "velocity": 0.8661417322834646
        },
        {
          "duration": 0.1436164160155613,
          "durationTicks": 245,
          "midi": 81,
          "name": "A5",
          "ticks": 1283840,
          "time": 555.7748435,
          "velocity": 0.8661417322834646
        },
        {
          "duration": 0.14361641601567499,
          "durationTicks": 245,
          "midi": 74,
          "name": "D5",
          "ticks": 1284096,
          "time": 555.924908,
          "velocity": 0.8661417322834646
        },
        {
          "duration": 0.14361641601567499,
          "durationTicks": 245,
          "midi": 86,
          "name": "D6",
          "ticks": 1284096,
          "time": 555.924908,
          "velocity": 0.8661417322834646
        },
        {
          "duration": 0.14361641601567499,
          "durationTicks": 245,
          "midi": 74,
          "name": "D5",
          "ticks": 1284352,
          "time": 556.0749725,
          "velocity": 0.8661417322834646
        },
        {
          "duration": 0.14361641601567499,
          "durationTicks": 245,
          "midi": 77,
          "name": "F5",
          "ticks": 1284608,
          "time": 556.2250369999999,
          "velocity": 0.8661417322834646
        },
        {
          "duration": 0.14361641601567499,
          "durationTicks": 245,
          "midi": 74,
          "name": "D5",
          "ticks": 1284864,
          "time": 556.3751014999999,
          "velocity": 0.8661417322834646
        },
        {
          "duration": 0.14361641601567499,
          "durationTicks": 245,
          "midi": 81,
          "name": "A5",
          "ticks": 1285120,
          "time": 556.5251659999999,
          "velocity": 0.8661417322834646
        },
        {
          "duration": 0.1436164160155613,
          "durationTicks": 245,
          "midi": 74,
          "name": "D5",
          "ticks": 1285376,
          "time": 556.6752305,
          "velocity": 0.8661417322834646
        },
        {
          "duration": 0.1436164160155613,
          "durationTicks": 245,
          "midi": 77,
          "name": "F5",
          "ticks": 1285632,
          "time": 556.825295,
          "velocity": 0.8661417322834646
        },
        {
          "duration": 0.14361641601567499,
          "durationTicks": 245,
          "midi": 74,
          "name": "D5",
          "ticks": 1285888,
          "time": 556.9753595,
          "velocity": 0.8661417322834646
        },
        {
          "duration": 0.14361641601567499,
          "durationTicks": 245,
          "midi": 75,
          "name": "D#5",
          "ticks": 1286144,
          "time": 557.125424,
          "velocity": 0.8661417322834646
        },
        {
          "duration": 0.14361641601567499,
          "durationTicks": 245,
          "midi": 81,
          "name": "A5",
          "ticks": 1286144,
          "time": 557.125424,
          "velocity": 0.8661417322834646
        },
        {
          "duration": 0.14361641601567499,
          "durationTicks": 245,
          "midi": 74,
          "name": "D5",
          "ticks": 1286400,
          "time": 557.2754884999999,
          "velocity": 0.8661417322834646
        },
        {
          "duration": 0.29368091601565993,
          "durationTicks": 501,
          "midi": 74,
          "name": "D5",
          "ticks": 1286656,
          "time": 557.4255529999999,
          "velocity": 0.8661417322834646
        },
        {
          "duration": 0.29368091601565993,
          "durationTicks": 501,
          "midi": 77,
          "name": "F5",
          "ticks": 1286656,
          "time": 557.4255529999999,
          "velocity": 0.8661417322834646
        },
        {
          "duration": 0.1436164160155613,
          "durationTicks": 245,
          "midi": 73,
          "name": "C#5",
          "ticks": 1287168,
          "time": 557.725682,
          "velocity": 0.8661417322834646
        },
        {
          "duration": 0.1436164160155613,
          "durationTicks": 245,
          "midi": 81,
          "name": "A5",
          "ticks": 1287168,
          "time": 557.725682,
          "velocity": 0.8661417322834646
        },
        {
          "duration": 0.1436164160155613,
          "durationTicks": 245,
          "midi": 74,
          "name": "D5",
          "ticks": 1287424,
          "time": 557.8757465,
          "velocity": 0.8661417322834646
        },
        {
          "duration": 0.1436164160155613,
          "durationTicks": 245,
          "midi": 68,
          "name": "G#4",
          "ticks": 1287680,
          "time": 558.025811,
          "velocity": 0.8661417322834646
        },
        {
          "duration": 0.1436164160155613,
          "durationTicks": 245,
          "midi": 77,
          "name": "F5",
          "ticks": 1287680,
          "time": 558.025811,
          "velocity": 0.8661417322834646
        },
        {
          "duration": 0.14361641601567499,
          "durationTicks": 245,
          "midi": 74,
          "name": "D5",
          "ticks": 1287936,
          "time": 558.1758755,
          "velocity": 0.8661417322834646
        },
        {
          "duration": 0.14361641601567499,
          "durationTicks": 245,
          "midi": 69,
          "name": "A4",
          "ticks": 1288192,
          "time": 558.32594,
          "velocity": 0.8661417322834646
        },
        {
          "duration": 0.14361641601567499,
          "durationTicks": 245,
          "midi": 73,
          "name": "C#5",
          "ticks": 1288448,
          "time": 558.4760044999999,
          "velocity": 0.8661417322834646
        },
        {
          "duration": 0.14361641601567499,
          "durationTicks": 245,
          "midi": 76,
          "name": "E5",
          "ticks": 1288704,
          "time": 558.6260689999999,
          "velocity": 0.8661417322834646
        },
        {
          "duration": 0.1436164160155613,
          "durationTicks": 245,
          "midi": 73,
          "name": "C#5",
          "ticks": 1288960,
          "time": 558.7761335,
          "velocity": 0.8661417322834646
        },
        {
          "duration": 0.1436164160155613,
          "durationTicks": 245,
          "midi": 79,
          "name": "G5",
          "ticks": 1289216,
          "time": 558.926198,
          "velocity": 0.8661417322834646
        },
        {
          "duration": 0.1436164160155613,
          "durationTicks": 245,
          "midi": 73,
          "name": "C#5",
          "ticks": 1289472,
          "time": 559.0762625,
          "velocity": 0.8661417322834646
        },
        {
          "duration": 0.1436164160155613,
          "durationTicks": 245,
          "midi": 76,
          "name": "E5",
          "ticks": 1289728,
          "time": 559.226327,
          "velocity": 0.8661417322834646
        },
        {
          "duration": 0.14361641601567499,
          "durationTicks": 245,
          "midi": 73,
          "name": "C#5",
          "ticks": 1289984,
          "time": 559.3763915,
          "velocity": 0.8661417322834646
        },
        {
          "duration": 0.14361641601567499,
          "durationTicks": 245,
          "midi": 69,
          "name": "A4",
          "ticks": 1290240,
          "time": 559.5264559999999,
          "velocity": 0.8661417322834646
        },
        {
          "duration": 0.14361641601567499,
          "durationTicks": 245,
          "midi": 73,
          "name": "C#5",
          "ticks": 1290496,
          "time": 559.6765204999999,
          "velocity": 0.8661417322834646
        },
        {
          "duration": 0.14361641601567499,
          "durationTicks": 245,
          "midi": 76,
          "name": "E5",
          "ticks": 1290752,
          "time": 559.8265849999999,
          "velocity": 0.8661417322834646
        },
        {
          "duration": 0.14361641601567499,
          "durationTicks": 245,
          "midi": 73,
          "name": "C#5",
          "ticks": 1291008,
          "time": 559.9766494999999,
          "velocity": 0.8661417322834646
        },
        {
          "duration": 0.1436164160155613,
          "durationTicks": 245,
          "midi": 79,
          "name": "G5",
          "ticks": 1291264,
          "time": 560.126714,
          "velocity": 0.8661417322834646
        },
        {
          "duration": 0.1436164160155613,
          "durationTicks": 245,
          "midi": 73,
          "name": "C#5",
          "ticks": 1291520,
          "time": 560.2767785,
          "velocity": 0.8661417322834646
        },
        {
          "duration": 0.14361641601567499,
          "durationTicks": 245,
          "midi": 76,
          "name": "E5",
          "ticks": 1291776,
          "time": 560.426843,
          "velocity": 0.8661417322834646
        },
        {
          "duration": 0.14361641601567499,
          "durationTicks": 245,
          "midi": 73,
          "name": "C#5",
          "ticks": 1292032,
          "time": 560.5769075,
          "velocity": 0.8661417322834646
        },
        {
          "duration": 0.14361641601567499,
          "durationTicks": 245,
          "midi": 68,
          "name": "G#4",
          "ticks": 1292288,
          "time": 560.7269719999999,
          "velocity": 0.8661417322834646
        },
        {
          "duration": 0.14361641601567499,
          "durationTicks": 245,
          "midi": 71,
          "name": "B4",
          "ticks": 1292288,
          "time": 560.7269719999999,
          "velocity": 0.8661417322834646
        },
        {
          "duration": 0.14361641601567499,
          "durationTicks": 245,
          "midi": 74,
          "name": "D5",
          "ticks": 1292544,
          "time": 560.8770364999999,
          "velocity": 0.8661417322834646
        },
        {
          "duration": 0.14361641601567499,
          "durationTicks": 245,
          "midi": 77,
          "name": "F5",
          "ticks": 1292800,
          "time": 561.0271009999999,
          "velocity": 0.8661417322834646
        },
        {
          "duration": 0.1436164160155613,
          "durationTicks": 245,
          "midi": 74,
          "name": "D5",
          "ticks": 1293056,
          "time": 561.1771655,
          "velocity": 0.8661417322834646
        },
        {
          "duration": 0.1436164160155613,
          "durationTicks": 245,
          "midi": 80,
          "name": "G#5",
          "ticks": 1293312,
          "time": 561.32723,
          "velocity": 0.8661417322834646
        },
        {
          "duration": 0.14361641601567499,
          "durationTicks": 245,
          "midi": 74,
          "name": "D5",
          "ticks": 1293568,
          "time": 561.4772945,
          "velocity": 0.8661417322834646
        },
        {
          "duration": 0.14361641601567499,
          "durationTicks": 245,
          "midi": 77,
          "name": "F5",
          "ticks": 1293824,
          "time": 561.627359,
          "velocity": 0.8661417322834646
        },
        {
          "duration": 0.14361641601567499,
          "durationTicks": 245,
          "midi": 74,
          "name": "D5",
          "ticks": 1294080,
          "time": 561.7774234999999,
          "velocity": 0.8661417322834646
        },
        {
          "duration": 0.14361641601567499,
          "durationTicks": 245,
          "midi": 69,
          "name": "A4",
          "ticks": 1294336,
          "time": 561.9274879999999,
          "velocity": 0.8661417322834646
        },
        {
          "duration": 0.14361641601567499,
          "durationTicks": 245,
          "midi": 71,
          "name": "B4",
          "ticks": 1294336,
          "time": 561.9274879999999,
          "velocity": 0.8661417322834646
        },
        {
          "duration": 0.14361641601567499,
          "durationTicks": 245,
          "midi": 74,
          "name": "D5",
          "ticks": 1294592,
          "time": 562.0775524999999,
          "velocity": 0.8661417322834646
        },
        {
          "duration": 0.1436164160155613,
          "durationTicks": 245,
          "midi": 77,
          "name": "F5",
          "ticks": 1294848,
          "time": 562.227617,
          "velocity": 0.8661417322834646
        },
        {
          "duration": 0.1436164160155613,
          "durationTicks": 245,
          "midi": 74,
          "name": "D5",
          "ticks": 1295104,
          "time": 562.3776815,
          "velocity": 0.8661417322834646
        },
        {
          "duration": 0.1436164160155613,
          "durationTicks": 245,
          "midi": 67,
          "name": "G4",
          "ticks": 1295360,
          "time": 562.527746,
          "velocity": 0.8661417322834646
        },
        {
          "duration": 0.1436164160155613,
          "durationTicks": 245,
          "midi": 79,
          "name": "G5",
          "ticks": 1295360,
          "time": 562.527746,
          "velocity": 0.8661417322834646
        },
        {
          "duration": 0.1436164160155613,
          "durationTicks": 245,
          "midi": 70,
          "name": "A#4",
          "ticks": 1295616,
          "time": 562.6778105,
          "velocity": 0.8661417322834646
        },
        {
          "duration": 0.14361641601567499,
          "durationTicks": 245,
          "midi": 73,
          "name": "C#5",
          "ticks": 1295872,
          "time": 562.827875,
          "velocity": 0.8661417322834646
        },
        {
          "duration": 0.14361641601567499,
          "durationTicks": 245,
          "midi": 70,
          "name": "A#4",
          "ticks": 1296128,
          "time": 562.9779394999999,
          "velocity": 0.8661417322834646
        },
        {
          "duration": 0.14361641601567499,
          "durationTicks": 245,
          "midi": 69,
          "name": "A4",
          "ticks": 1296384,
          "time": 563.1280039999999,
          "velocity": 0.8661417322834646
        },
        {
          "duration": 0.1436164160155613,
          "durationTicks": 245,
          "midi": 74,
          "name": "D5",
          "ticks": 1296640,
          "time": 563.2780685,
          "velocity": 0.8661417322834646
        },
        {
          "duration": 0.1436164160155613,
          "durationTicks": 245,
          "midi": 77,
          "name": "F5",
          "ticks": 1296896,
          "time": 563.428133,
          "velocity": 0.8661417322834646
        },
        {
          "duration": 0.1436164160155613,
          "durationTicks": 245,
          "midi": 74,
          "name": "D5",
          "ticks": 1297152,
          "time": 563.5781975,
          "velocity": 0.8661417322834646
        },
        {
          "duration": 0.1436164160155613,
          "durationTicks": 245,
          "midi": 81,
          "name": "A5",
          "ticks": 1297408,
          "time": 563.728262,
          "velocity": 0.8661417322834646
        },
        {
          "duration": 0.14361641601567499,
          "durationTicks": 245,
          "midi": 69,
          "name": "A4",
          "ticks": 1297664,
          "time": 563.8783265,
          "velocity": 0.8661417322834646
        },
        {
          "duration": 0.14361641601567499,
          "durationTicks": 245,
          "midi": 74,
          "name": "D5",
          "ticks": 1297920,
          "time": 564.0283909999999,
          "velocity": 0.8661417322834646
        },
        {
          "duration": 0.14361641601567499,
          "durationTicks": 245,
          "midi": 77,
          "name": "F5",
          "ticks": 1298176,
          "time": 564.1784554999999,
          "velocity": 0.8661417322834646
        },
        {
          "duration": 0.29368091601565993,
          "durationTicks": 501,
          "midi": 74,
          "name": "D5",
          "ticks": 1298432,
          "time": 564.3285199999999,
          "velocity": 0.8661417322834646
        },
        {
          "duration": 0.29368091601565993,
          "durationTicks": 501,
          "midi": 77,
          "name": "F5",
          "ticks": 1298432,
          "time": 564.3285199999999,
          "velocity": 0.8661417322834646
        },
        {
          "duration": 0.29368091601565993,
          "durationTicks": 501,
          "midi": 81,
          "name": "A5",
          "ticks": 1298432,
          "time": 564.3285199999999,
          "velocity": 0.8661417322834646
        },
        {
          "duration": 0.29368091601554625,
          "durationTicks": 501,
          "midi": 74,
          "name": "D5",
          "ticks": 1298944,
          "time": 564.628649,
          "velocity": 0.8661417322834646
        },
        {
          "duration": 0.29368091601554625,
          "durationTicks": 501,
          "midi": 77,
          "name": "F5",
          "ticks": 1298944,
          "time": 564.628649,
          "velocity": 0.8661417322834646
        },
        {
          "duration": 0.29368091601554625,
          "durationTicks": 501,
          "midi": 81,
          "name": "A5",
          "ticks": 1298944,
          "time": 564.628649,
          "velocity": 0.8661417322834646
        },
        {
          "duration": 0.29368091601565993,
          "durationTicks": 501,
          "midi": 74,
          "name": "D5",
          "ticks": 1299456,
          "time": 564.928778,
          "velocity": 0.8661417322834646
        },
        {
          "duration": 0.29368091601565993,
          "durationTicks": 501,
          "midi": 77,
          "name": "F5",
          "ticks": 1299456,
          "time": 564.928778,
          "velocity": 0.8661417322834646
        },
        {
          "duration": 0.29368091601565993,
          "durationTicks": 501,
          "midi": 81,
          "name": "A5",
          "ticks": 1299456,
          "time": 564.928778,
          "velocity": 0.8661417322834646
        },
        {
          "duration": 0.29368091601565993,
          "durationTicks": 501,
          "midi": 74,
          "name": "D5",
          "ticks": 1299968,
          "time": 565.2289069999999,
          "velocity": 0.8661417322834646
        },
        {
          "duration": 0.29368091601565993,
          "durationTicks": 501,
          "midi": 77,
          "name": "F5",
          "ticks": 1299968,
          "time": 565.2289069999999,
          "velocity": 0.8661417322834646
        },
        {
          "duration": 0.29368091601565993,
          "durationTicks": 501,
          "midi": 81,
          "name": "A5",
          "ticks": 1299968,
          "time": 565.2289069999999,
          "velocity": 0.8661417322834646
        },
        {
          "duration": 0.1436164160155613,
          "durationTicks": 245,
          "midi": 57,
          "name": "A3",
          "ticks": 1300736,
          "time": 565.6791005,
          "velocity": 0.8661417322834646
        },
        {
          "duration": 0.1436164160155613,
          "durationTicks": 245,
          "midi": 62,
          "name": "D4",
          "ticks": 1300736,
          "time": 565.6791005,
          "velocity": 0.8661417322834646
        },
        {
          "duration": 0.1436164160155613,
          "durationTicks": 245,
          "midi": 65,
          "name": "F4",
          "ticks": 1300736,
          "time": 565.6791005,
          "velocity": 0.8661417322834646
        },
        {
          "duration": 0.1436164160155613,
          "durationTicks": 245,
          "midi": 57,
          "name": "A3",
          "ticks": 1300992,
          "time": 565.829165,
          "velocity": 0.8661417322834646
        },
        {
          "duration": 0.1436164160155613,
          "durationTicks": 245,
          "midi": 62,
          "name": "D4",
          "ticks": 1300992,
          "time": 565.829165,
          "velocity": 0.8661417322834646
        },
        {
          "duration": 0.1436164160155613,
          "durationTicks": 245,
          "midi": 65,
          "name": "F4",
          "ticks": 1300992,
          "time": 565.829165,
          "velocity": 0.8661417322834646
        },
        {
          "duration": 0.1436164160155613,
          "durationTicks": 245,
          "midi": 57,
          "name": "A3",
          "ticks": 1301248,
          "time": 565.9792295,
          "velocity": 0.8661417322834646
        },
        {
          "duration": 0.1436164160155613,
          "durationTicks": 245,
          "midi": 62,
          "name": "D4",
          "ticks": 1301248,
          "time": 565.9792295,
          "velocity": 0.8661417322834646
        },
        {
          "duration": 0.1436164160155613,
          "durationTicks": 245,
          "midi": 65,
          "name": "F4",
          "ticks": 1301248,
          "time": 565.9792295,
          "velocity": 0.8661417322834646
        },
        {
          "duration": 0.1436164160155613,
          "durationTicks": 245,
          "midi": 58,
          "name": "A#3",
          "ticks": 1301504,
          "time": 566.129294,
          "velocity": 0.8661417322834646
        },
        {
          "duration": 0.1436164160155613,
          "durationTicks": 245,
          "midi": 64,
          "name": "E4",
          "ticks": 1301504,
          "time": 566.129294,
          "velocity": 0.8661417322834646
        },
        {
          "duration": 0.14361641601567499,
          "durationTicks": 245,
          "midi": 58,
          "name": "A#3",
          "ticks": 1301760,
          "time": 566.2793585,
          "velocity": 0.8661417322834646
        },
        {
          "duration": 0.14361641601567499,
          "durationTicks": 245,
          "midi": 64,
          "name": "E4",
          "ticks": 1301760,
          "time": 566.2793585,
          "velocity": 0.8661417322834646
        },
        {
          "duration": 0.14361641601567499,
          "durationTicks": 245,
          "midi": 55,
          "name": "G3",
          "ticks": 1302016,
          "time": 566.4294229999999,
          "velocity": 0.8661417322834646
        },
        {
          "duration": 0.14361641601567499,
          "durationTicks": 245,
          "midi": 61,
          "name": "C#4",
          "ticks": 1302016,
          "time": 566.4294229999999,
          "velocity": 0.8661417322834646
        },
        {
          "duration": 0.14361641601567499,
          "durationTicks": 245,
          "midi": 55,
          "name": "G3",
          "ticks": 1302272,
          "time": 566.5794874999999,
          "velocity": 0.8661417322834646
        },
        {
          "duration": 0.14361641601567499,
          "durationTicks": 245,
          "midi": 61,
          "name": "C#4",
          "ticks": 1302272,
          "time": 566.5794874999999,
          "velocity": 0.8661417322834646
        },
        {
          "duration": 0.1436164160155613,
          "durationTicks": 245,
          "midi": 57,
          "name": "A3",
          "ticks": 1302528,
          "time": 566.729552,
          "velocity": 0.8661417322834646
        },
        {
          "duration": 0.1436164160155613,
          "durationTicks": 245,
          "midi": 62,
          "name": "D4",
          "ticks": 1302528,
          "time": 566.729552,
          "velocity": 0.8661417322834646
        },
        {
          "duration": 0.1436164160155613,
          "durationTicks": 245,
          "midi": 57,
          "name": "A3",
          "ticks": 1302784,
          "time": 566.8796165,
          "velocity": 0.8661417322834646
        },
        {
          "duration": 0.1436164160155613,
          "durationTicks": 245,
          "midi": 62,
          "name": "D4",
          "ticks": 1302784,
          "time": 566.8796165,
          "velocity": 0.8661417322834646
        },
        {
          "duration": 0.1436164160155613,
          "durationTicks": 245,
          "midi": 57,
          "name": "A3",
          "ticks": 1303040,
          "time": 567.029681,
          "velocity": 0.8661417322834646
        },
        {
          "duration": 0.1436164160155613,
          "durationTicks": 245,
          "midi": 62,
          "name": "D4",
          "ticks": 1303040,
          "time": 567.029681,
          "velocity": 0.8661417322834646
        },
        {
          "duration": 0.1436164160155613,
          "durationTicks": 245,
          "midi": 65,
          "name": "F4",
          "ticks": 1303040,
          "time": 567.029681,
          "velocity": 0.8661417322834646
        },
        {
          "duration": 0.1436164160155613,
          "durationTicks": 245,
          "midi": 57,
          "name": "A3",
          "ticks": 1303296,
          "time": 567.1797455,
          "velocity": 0.8661417322834646
        },
        {
          "duration": 0.1436164160155613,
          "durationTicks": 245,
          "midi": 62,
          "name": "D4",
          "ticks": 1303296,
          "time": 567.1797455,
          "velocity": 0.8661417322834646
        },
        {
          "duration": 0.1436164160155613,
          "durationTicks": 245,
          "midi": 65,
          "name": "F4",
          "ticks": 1303296,
          "time": 567.1797455,
          "velocity": 0.8661417322834646
        },
        {
          "duration": 0.14361641601567499,
          "durationTicks": 245,
          "midi": 58,
          "name": "A#3",
          "ticks": 1303552,
          "time": 567.32981,
          "velocity": 0.8661417322834646
        },
        {
          "duration": 0.14361641601567499,
          "durationTicks": 245,
          "midi": 64,
          "name": "E4",
          "ticks": 1303552,
          "time": 567.32981,
          "velocity": 0.8661417322834646
        },
        {
          "duration": 0.14361641601567499,
          "durationTicks": 245,
          "midi": 58,
          "name": "A#3",
          "ticks": 1303808,
          "time": 567.4798744999999,
          "velocity": 0.8661417322834646
        },
        {
          "duration": 0.14361641601567499,
          "durationTicks": 245,
          "midi": 64,
          "name": "E4",
          "ticks": 1303808,
          "time": 567.4798744999999,
          "velocity": 0.8661417322834646
        },
        {
          "duration": 0.14361641601567499,
          "durationTicks": 245,
          "midi": 55,
          "name": "G3",
          "ticks": 1304064,
          "time": 567.6299389999999,
          "velocity": 0.8661417322834646
        },
        {
          "duration": 0.14361641601567499,
          "durationTicks": 245,
          "midi": 60,
          "name": "C4",
          "ticks": 1304064,
          "time": 567.6299389999999,
          "velocity": 0.8661417322834646
        },
        {
          "duration": 0.1436164160155613,
          "durationTicks": 245,
          "midi": 55,
          "name": "G3",
          "ticks": 1304320,
          "time": 567.7800035,
          "velocity": 0.8661417322834646
        },
        {
          "duration": 0.1436164160155613,
          "durationTicks": 245,
          "midi": 60,
          "name": "C4",
          "ticks": 1304320,
          "time": 567.7800035,
          "velocity": 0.8661417322834646
        },
        {
          "duration": 0.1436164160155613,
          "durationTicks": 245,
          "midi": 62,
          "name": "D4",
          "ticks": 1304832,
          "time": 568.0801325,
          "velocity": 0.8661417322834646
        },
        {
          "duration": 0.1436164160155613,
          "durationTicks": 245,
          "midi": 65,
          "name": "F4",
          "ticks": 1304832,
          "time": 568.0801325,
          "velocity": 0.8661417322834646
        },
        {
          "duration": 0.1436164160155613,
          "durationTicks": 245,
          "midi": 70,
          "name": "A#4",
          "ticks": 1304832,
          "time": 568.0801325,
          "velocity": 0.8661417322834646
        },
        {
          "duration": 0.1436164160155613,
          "durationTicks": 245,
          "midi": 62,
          "name": "D4",
          "ticks": 1305088,
          "time": 568.230197,
          "velocity": 0.8661417322834646
        },
        {
          "duration": 0.1436164160155613,
          "durationTicks": 245,
          "midi": 65,
          "name": "F4",
          "ticks": 1305088,
          "time": 568.230197,
          "velocity": 0.8661417322834646
        },
        {
          "duration": 0.1436164160155613,
          "durationTicks": 245,
          "midi": 70,
          "name": "A#4",
          "ticks": 1305088,
          "time": 568.230197,
          "velocity": 0.8661417322834646
        },
        {
          "duration": 0.14361641601567499,
          "durationTicks": 245,
          "midi": 62,
          "name": "D4",
          "ticks": 1305344,
          "time": 568.3802615,
          "velocity": 0.8661417322834646
        },
        {
          "duration": 0.14361641601567499,
          "durationTicks": 245,
          "midi": 65,
          "name": "F4",
          "ticks": 1305344,
          "time": 568.3802615,
          "velocity": 0.8661417322834646
        },
        {
          "duration": 0.14361641601567499,
          "durationTicks": 245,
          "midi": 70,
          "name": "A#4",
          "ticks": 1305344,
          "time": 568.3802615,
          "velocity": 0.8661417322834646
        },
        {
          "duration": 0.14361641601567499,
          "durationTicks": 245,
          "midi": 62,
          "name": "D4",
          "ticks": 1305600,
          "time": 568.530326,
          "velocity": 0.8661417322834646
        },
        {
          "duration": 0.14361641601567499,
          "durationTicks": 245,
          "midi": 65,
          "name": "F4",
          "ticks": 1305600,
          "time": 568.530326,
          "velocity": 0.8661417322834646
        },
        {
          "duration": 0.14361641601567499,
          "durationTicks": 245,
          "midi": 74,
          "name": "D5",
          "ticks": 1305600,
          "time": 568.530326,
          "velocity": 0.8661417322834646
        },
        {
          "duration": 0.14361641601567499,
          "durationTicks": 245,
          "midi": 62,
          "name": "D4",
          "ticks": 1305856,
          "time": 568.6803904999999,
          "velocity": 0.8661417322834646
        },
        {
          "duration": 0.14361641601567499,
          "durationTicks": 245,
          "midi": 65,
          "name": "F4",
          "ticks": 1305856,
          "time": 568.6803904999999,
          "velocity": 0.8661417322834646
        },
        {
          "duration": 0.14361641601567499,
          "durationTicks": 245,
          "midi": 74,
          "name": "D5",
          "ticks": 1305856,
          "time": 568.6803904999999,
          "velocity": 0.8661417322834646
        },
        {
          "duration": 0.14361641601567499,
          "durationTicks": 245,
          "midi": 62,
          "name": "D4",
          "ticks": 1306112,
          "time": 568.8304549999999,
          "velocity": 0.8661417322834646
        },
        {
          "duration": 0.14361641601567499,
          "durationTicks": 245,
          "midi": 65,
          "name": "F4",
          "ticks": 1306112,
          "time": 568.8304549999999,
          "velocity": 0.8661417322834646
        },
        {
          "duration": 0.14361641601567499,
          "durationTicks": 245,
          "midi": 70,
          "name": "A#4",
          "ticks": 1306112,
          "time": 568.8304549999999,
          "velocity": 0.8661417322834646
        },
        {
          "duration": 0.14361641601567499,
          "durationTicks": 245,
          "midi": 62,
          "name": "D4",
          "ticks": 1306368,
          "time": 568.9805194999999,
          "velocity": 0.8661417322834646
        },
        {
          "duration": 0.14361641601567499,
          "durationTicks": 245,
          "midi": 65,
          "name": "F4",
          "ticks": 1306368,
          "time": 568.9805194999999,
          "velocity": 0.8661417322834646
        },
        {
          "duration": 0.14361641601567499,
          "durationTicks": 245,
          "midi": 70,
          "name": "A#4",
          "ticks": 1306368,
          "time": 568.9805194999999,
          "velocity": 0.8661417322834646
        },
        {
          "duration": 0.1436164160155613,
          "durationTicks": 245,
          "midi": 67,
          "name": "G4",
          "ticks": 1306624,
          "time": 569.130584,
          "velocity": 0.8661417322834646
        },
        {
          "duration": 0.1436164160155613,
          "durationTicks": 245,
          "midi": 76,
          "name": "E5",
          "ticks": 1306624,
          "time": 569.130584,
          "velocity": 0.8661417322834646
        },
        {
          "duration": 0.1436164160155613,
          "durationTicks": 245,
          "midi": 82,
          "name": "A#5",
          "ticks": 1306624,
          "time": 569.130584,
          "velocity": 0.8661417322834646
        },
        {
          "duration": 0.1436164160155613,
          "durationTicks": 245,
          "midi": 67,
          "name": "G4",
          "ticks": 1306880,
          "time": 569.2806485,
          "velocity": 0.8661417322834646
        },
        {
          "duration": 0.1436164160155613,
          "durationTicks": 245,
          "midi": 76,
          "name": "E5",
          "ticks": 1306880,
          "time": 569.2806485,
          "velocity": 0.8661417322834646
        },
        {
          "duration": 0.1436164160155613,
          "durationTicks": 245,
          "midi": 82,
          "name": "A#5",
          "ticks": 1306880,
          "time": 569.2806485,
          "velocity": 0.8661417322834646
        },
        {
          "duration": 0.14361641601567499,
          "durationTicks": 245,
          "midi": 67,
          "name": "G4",
          "ticks": 1307136,
          "time": 569.430713,
          "velocity": 0.8661417322834646
        },
        {
          "duration": 0.14361641601567499,
          "durationTicks": 245,
          "midi": 73,
          "name": "C#5",
          "ticks": 1307136,
          "time": 569.430713,
          "velocity": 0.8661417322834646
        },
        {
          "duration": 0.14361641601567499,
          "durationTicks": 245,
          "midi": 79,
          "name": "G5",
          "ticks": 1307136,
          "time": 569.430713,
          "velocity": 0.8661417322834646
        },
        {
          "duration": 0.14361641601567499,
          "durationTicks": 245,
          "midi": 67,
          "name": "G4",
          "ticks": 1307392,
          "time": 569.5807775,
          "velocity": 0.8661417322834646
        },
        {
          "duration": 0.14361641601567499,
          "durationTicks": 245,
          "midi": 73,
          "name": "C#5",
          "ticks": 1307392,
          "time": 569.5807775,
          "velocity": 0.8661417322834646
        },
        {
          "duration": 0.14361641601567499,
          "durationTicks": 245,
          "midi": 79,
          "name": "G5",
          "ticks": 1307392,
          "time": 569.5807775,
          "velocity": 0.8661417322834646
        },
        {
          "duration": 0.14361641601567499,
          "durationTicks": 245,
          "midi": 67,
          "name": "G4",
          "ticks": 1307648,
          "time": 569.7308419999999,
          "velocity": 0.8661417322834646
        },
        {
          "duration": 0.14361641601567499,
          "durationTicks": 245,
          "midi": 70,
          "name": "A#4",
          "ticks": 1307648,
          "time": 569.7308419999999,
          "velocity": 0.8661417322834646
        },
        {
          "duration": 0.14361641601567499,
          "durationTicks": 245,
          "midi": 79,
          "name": "G5",
          "ticks": 1307648,
          "time": 569.7308419999999,
          "velocity": 0.8661417322834646
        },
        {
          "duration": 0.14361641601567499,
          "durationTicks": 245,
          "midi": 85,
          "name": "C#6",
          "ticks": 1307648,
          "time": 569.7308419999999,
          "velocity": 0.8661417322834646
        },
        {
          "duration": 0.14361641601567499,
          "durationTicks": 245,
          "midi": 67,
          "name": "G4",
          "ticks": 1307904,
          "time": 569.8809064999999,
          "velocity": 0.8661417322834646
        },
        {
          "duration": 0.14361641601567499,
          "durationTicks": 245,
          "midi": 70,
          "name": "A#4",
          "ticks": 1307904,
          "time": 569.8809064999999,
          "velocity": 0.8661417322834646
        },
        {
          "duration": 0.14361641601567499,
          "durationTicks": 245,
          "midi": 79,
          "name": "G5",
          "ticks": 1307904,
          "time": 569.8809064999999,
          "velocity": 0.8661417322834646
        },
        {
          "duration": 0.14361641601567499,
          "durationTicks": 245,
          "midi": 85,
          "name": "C#6",
          "ticks": 1307904,
          "time": 569.8809064999999,
          "velocity": 0.8661417322834646
        },
        {
          "duration": 0.14361641601567499,
          "durationTicks": 245,
          "midi": 67,
          "name": "G4",
          "ticks": 1308160,
          "time": 570.0309709999999,
          "velocity": 0.8661417322834646
        },
        {
          "duration": 0.14361641601567499,
          "durationTicks": 245,
          "midi": 70,
          "name": "A#4",
          "ticks": 1308160,
          "time": 570.0309709999999,
          "velocity": 0.8661417322834646
        },
        {
          "duration": 0.14361641601567499,
          "durationTicks": 245,
          "midi": 76,
          "name": "E5",
          "ticks": 1308160,
          "time": 570.0309709999999,
          "velocity": 0.8661417322834646
        },
        {
          "duration": 0.14361641601567499,
          "durationTicks": 245,
          "midi": 82,
          "name": "A#5",
          "ticks": 1308160,
          "time": 570.0309709999999,
          "velocity": 0.8661417322834646
        },
        {
          "duration": 0.1436164160155613,
          "durationTicks": 245,
          "midi": 67,
          "name": "G4",
          "ticks": 1308416,
          "time": 570.1810355,
          "velocity": 0.8661417322834646
        },
        {
          "duration": 0.1436164160155613,
          "durationTicks": 245,
          "midi": 70,
          "name": "A#4",
          "ticks": 1308416,
          "time": 570.1810355,
          "velocity": 0.8661417322834646
        },
        {
          "duration": 0.1436164160155613,
          "durationTicks": 245,
          "midi": 76,
          "name": "E5",
          "ticks": 1308416,
          "time": 570.1810355,
          "velocity": 0.8661417322834646
        },
        {
          "duration": 0.1436164160155613,
          "durationTicks": 245,
          "midi": 82,
          "name": "A#5",
          "ticks": 1308416,
          "time": 570.1810355,
          "velocity": 0.8661417322834646
        },
        {
          "duration": 0.1436164160155613,
          "durationTicks": 245,
          "midi": 69,
          "name": "A4",
          "ticks": 1308928,
          "time": 570.4811645,
          "velocity": 0.8661417322834646
        },
        {
          "duration": 0.1436164160155613,
          "durationTicks": 245,
          "midi": 74,
          "name": "D5",
          "ticks": 1309184,
          "time": 570.631229,
          "velocity": 0.8661417322834646
        },
        {
          "duration": 0.14361641601567499,
          "durationTicks": 245,
          "midi": 81,
          "name": "A5",
          "ticks": 1309440,
          "time": 570.7812935,
          "velocity": 0.8661417322834646
        },
        {
          "duration": 0.14361641601567499,
          "durationTicks": 245,
          "midi": 80,
          "name": "G#5",
          "ticks": 1309696,
          "time": 570.9313579999999,
          "velocity": 0.8661417322834646
        },
        {
          "duration": 0.14361641601567499,
          "durationTicks": 245,
          "midi": 69,
          "name": "A4",
          "ticks": 1309952,
          "time": 571.0814224999999,
          "velocity": 0.8661417322834646
        },
        {
          "duration": 0.1436164160155613,
          "durationTicks": 245,
          "midi": 74,
          "name": "D5",
          "ticks": 1310208,
          "time": 571.231487,
          "velocity": 0.8661417322834646
        },
        {
          "duration": 0.1436164160155613,
          "durationTicks": 245,
          "midi": 79,
          "name": "G5",
          "ticks": 1310464,
          "time": 571.3815515,
          "velocity": 0.8661417322834646
        },
        {
          "duration": 0.1436164160155613,
          "durationTicks": 245,
          "midi": 77,
          "name": "F5",
          "ticks": 1310720,
          "time": 571.531616,
          "velocity": 0.8661417322834646
        },
        {
          "duration": 0.1436164160155613,
          "durationTicks": 245,
          "midi": 69,
          "name": "A4",
          "ticks": 1310976,
          "time": 571.6816805,
          "velocity": 0.8661417322834646
        },
        {
          "duration": 0.14361641601567499,
          "durationTicks": 245,
          "midi": 74,
          "name": "D5",
          "ticks": 1311232,
          "time": 571.831745,
          "velocity": 0.8661417322834646
        },
        {
          "duration": 0.14361641601567499,
          "durationTicks": 245,
          "midi": 77,
          "name": "F5",
          "ticks": 1311488,
          "time": 571.9818094999999,
          "velocity": 0.8661417322834646
        },
        {
          "duration": 0.14361641601567499,
          "durationTicks": 245,
          "midi": 76,
          "name": "E5",
          "ticks": 1311744,
          "time": 572.1318739999999,
          "velocity": 0.8661417322834646
        },
        {
          "duration": 0.14361641601567499,
          "durationTicks": 245,
          "midi": 67,
          "name": "G4",
          "ticks": 1312000,
          "time": 572.2819384999999,
          "velocity": 0.8661417322834646
        },
        {
          "duration": 0.14361641601567499,
          "durationTicks": 245,
          "midi": 73,
          "name": "C#5",
          "ticks": 1312256,
          "time": 572.4320029999999,
          "velocity": 0.8661417322834646
        },
        {
          "duration": 0.1436164160155613,
          "durationTicks": 245,
          "midi": 76,
          "name": "E5",
          "ticks": 1312512,
          "time": 572.5820675,
          "velocity": 0.8661417322834646
        },
        {
          "duration": 0.29368091601565993,
          "durationTicks": 501,
          "midi": 74,
          "name": "D5",
          "ticks": 1312768,
          "time": 572.732132,
          "velocity": 0.8661417322834646
        },
        {
          "duration": 0.14361641601567499,
          "durationTicks": 245,
          "midi": 69,
          "name": "A4",
          "ticks": 1313280,
          "time": 573.032261,
          "velocity": 0.8661417322834646
        },
        {
          "duration": 0.14361641601567499,
          "durationTicks": 245,
          "midi": 74,
          "name": "D5",
          "ticks": 1313536,
          "time": 573.1823254999999,
          "velocity": 0.8661417322834646
        },
        {
          "duration": 0.29368091601565993,
          "durationTicks": 501,
          "midi": 73,
          "name": "C#5",
          "ticks": 1313792,
          "time": 573.3323899999999,
          "velocity": 0.8661417322834646
        },
        {
          "duration": 0.1436164160155613,
          "durationTicks": 245,
          "midi": 67,
          "name": "G4",
          "ticks": 1314304,
          "time": 573.632519,
          "velocity": 0.8661417322834646
        },
        {
          "duration": 0.1436164160155613,
          "durationTicks": 245,
          "midi": 70,
          "name": "A#4",
          "ticks": 1314560,
          "time": 573.7825835,
          "velocity": 0.8661417322834646
        },
        {
          "duration": 0.29368091601554625,
          "durationTicks": 501,
          "midi": 69,
          "name": "A4",
          "ticks": 1314816,
          "time": 573.932648,
          "velocity": 0.8661417322834646
        },
        {
          "duration": 0.14361641601567499,
          "durationTicks": 245,
          "midi": 69,
          "name": "A4",
          "ticks": 1315328,
          "time": 574.2327769999999,
          "velocity": 0.8661417322834646
        },
        {
          "duration": 0.14361641601567499,
          "durationTicks": 245,
          "midi": 74,
          "name": "D5",
          "ticks": 1315584,
          "time": 574.3828414999999,
          "velocity": 0.8661417322834646
        },
        {
          "duration": 0.14361641601567499,
          "durationTicks": 245,
          "midi": 77,
          "name": "F5",
          "ticks": 1315840,
          "time": 574.5329059999999,
          "velocity": 0.8661417322834646
        },
        {
          "duration": 0.1436164160155613,
          "durationTicks": 245,
          "midi": 69,
          "name": "A4",
          "ticks": 1316096,
          "time": 574.6829705,
          "velocity": 0.8661417322834646
        },
        {
          "duration": 0.1436164160155613,
          "durationTicks": 245,
          "midi": 74,
          "name": "D5",
          "ticks": 1316352,
          "time": 574.833035,
          "velocity": 0.8661417322834646
        },
        {
          "duration": 0.1436164160155613,
          "durationTicks": 245,
          "midi": 77,
          "name": "F5",
          "ticks": 1316608,
          "time": 574.9830995,
          "velocity": 0.8661417322834646
        },
        {
          "duration": 0.1436164160155613,
          "durationTicks": 245,
          "midi": 70,
          "name": "A#4",
          "ticks": 1316864,
          "time": 575.133164,
          "velocity": 0.8661417322834646
        },
        {
          "duration": 0.14361641601567499,
          "durationTicks": 245,
          "midi": 67,
          "name": "G4",
          "ticks": 1317120,
          "time": 575.2832285,
          "velocity": 0.8661417322834646
        },
        {
          "duration": 0.14361641601567499,
          "durationTicks": 245,
          "midi": 70,
          "name": "A#4",
          "ticks": 1317376,
          "time": 575.4332929999999,
          "velocity": 0.8661417322834646
        },
        {
          "duration": 0.14361641601567499,
          "durationTicks": 245,
          "midi": 73,
          "name": "C#5",
          "ticks": 1317632,
          "time": 575.5833574999999,
          "velocity": 0.8661417322834646
        },
        {
          "duration": 0.1436164160155613,
          "durationTicks": 245,
          "midi": 76,
          "name": "E5",
          "ticks": 1317888,
          "time": 575.733422,
          "velocity": 0.8661417322834646
        },
        {
          "duration": 0.1436164160155613,
          "durationTicks": 245,
          "midi": 70,
          "name": "A#4",
          "ticks": 1318144,
          "time": 575.8834865,
          "velocity": 0.8661417322834646
        },
        {
          "duration": 0.1436164160155613,
          "durationTicks": 245,
          "midi": 73,
          "name": "C#5",
          "ticks": 1318400,
          "time": 576.033551,
          "velocity": 0.8661417322834646
        },
        {
          "duration": 0.1436164160155613,
          "durationTicks": 245,
          "midi": 76,
          "name": "E5",
          "ticks": 1318656,
          "time": 576.1836155,
          "velocity": 0.8661417322834646
        },
        {
          "duration": 0.14361641601567499,
          "durationTicks": 245,
          "midi": 77,
          "name": "F5",
          "ticks": 1318912,
          "time": 576.33368,
          "velocity": 0.8661417322834646
        },
        {
          "duration": 0.14361641601567499,
          "durationTicks": 245,
          "midi": 81,
          "name": "A5",
          "ticks": 1319168,
          "time": 576.4837445,
          "velocity": 0.8661417322834646
        },
        {
          "duration": 0.14361641601567499,
          "durationTicks": 245,
          "midi": 86,
          "name": "D6",
          "ticks": 1319424,
          "time": 576.6338089999999,
          "velocity": 0.8661417322834646
        },
        {
          "duration": 0.14361641601567499,
          "durationTicks": 245,
          "midi": 81,
          "name": "A5",
          "ticks": 1319680,
          "time": 576.7838734999999,
          "velocity": 0.8661417322834646
        },
        {
          "duration": 0.14361641601567499,
          "durationTicks": 245,
          "midi": 77,
          "name": "F5",
          "ticks": 1319936,
          "time": 576.9339379999999,
          "velocity": 0.8661417322834646
        },
        {
          "duration": 0.1436164160155613,
          "durationTicks": 245,
          "midi": 86,
          "name": "D6",
          "ticks": 1320192,
          "time": 577.0840025,
          "velocity": 0.8661417322834646
        },
        {
          "duration": 0.1436164160155613,
          "durationTicks": 245,
          "midi": 81,
          "name": "A5",
          "ticks": 1320448,
          "time": 577.234067,
          "velocity": 0.8661417322834646
        },
        {
          "duration": 0.14361641601567499,
          "durationTicks": 245,
          "midi": 77,
          "name": "F5",
          "ticks": 1320704,
          "time": 577.3841315,
          "velocity": 0.8661417322834646
        },
        {
          "duration": 0.14361641601567499,
          "durationTicks": 245,
          "midi": 76,
          "name": "E5",
          "ticks": 1320960,
          "time": 577.534196,
          "velocity": 0.8661417322834646
        },
        {
          "duration": 0.14361641601567499,
          "durationTicks": 245,
          "midi": 79,
          "name": "G5",
          "ticks": 1321216,
          "time": 577.6842604999999,
          "velocity": 0.8661417322834646
        },
        {
          "duration": 0.14361641601567499,
          "durationTicks": 245,
          "midi": 85,
          "name": "C#6",
          "ticks": 1321472,
          "time": 577.8343249999999,
          "velocity": 0.8661417322834646
        },
        {
          "duration": 0.14361641601567499,
          "durationTicks": 245,
          "midi": 79,
          "name": "G5",
          "ticks": 1321728,
          "time": 577.9843894999999,
          "velocity": 0.8661417322834646
        },
        {
          "duration": 0.1436164160155613,
          "durationTicks": 245,
          "midi": 76,
          "name": "E5",
          "ticks": 1321984,
          "time": 578.134454,
          "velocity": 0.8661417322834646
        },
        {
          "duration": 0.1436164160155613,
          "durationTicks": 245,
          "midi": 85,
          "name": "C#6",
          "ticks": 1322240,
          "time": 578.2845185,
          "velocity": 0.8661417322834646
        },
        {
          "duration": 0.1436164160155613,
          "durationTicks": 245,
          "midi": 79,
          "name": "G5",
          "ticks": 1322496,
          "time": 578.434583,
          "velocity": 0.8661417322834646
        },
        {
          "duration": 0.1436164160155613,
          "durationTicks": 245,
          "midi": 76,
          "name": "E5",
          "ticks": 1322752,
          "time": 578.5846475,
          "velocity": 0.8661417322834646
        },
        {
          "duration": 0.14361641601567499,
          "durationTicks": 245,
          "midi": 74,
          "name": "D5",
          "ticks": 1323008,
          "time": 578.734712,
          "velocity": 0.8661417322834646
        },
        {
          "duration": 0.14361641601567499,
          "durationTicks": 245,
          "midi": 77,
          "name": "F5",
          "ticks": 1323264,
          "time": 578.8847764999999,
          "velocity": 0.8661417322834646
        },
        {
          "duration": 0.14361641601567499,
          "durationTicks": 245,
          "midi": 81,
          "name": "A5",
          "ticks": 1323520,
          "time": 579.0348409999999,
          "velocity": 0.8661417322834646
        },
        {
          "duration": 0.1436164160155613,
          "durationTicks": 245,
          "midi": 77,
          "name": "F5",
          "ticks": 1323776,
          "time": 579.1849055,
          "velocity": 0.8661417322834646
        },
        {
          "duration": 0.1436164160155613,
          "durationTicks": 245,
          "midi": 74,
          "name": "D5",
          "ticks": 1324032,
          "time": 579.33497,
          "velocity": 0.8661417322834646
        },
        {
          "duration": 0.1436164160155613,
          "durationTicks": 245,
          "midi": 81,
          "name": "A5",
          "ticks": 1324288,
          "time": 579.4850345,
          "velocity": 0.8661417322834646
        },
        {
          "duration": 0.1436164160155613,
          "durationTicks": 245,
          "midi": 77,
          "name": "F5",
          "ticks": 1324544,
          "time": 579.635099,
          "velocity": 0.8661417322834646
        },
        {
          "duration": 0.14361641601567499,
          "durationTicks": 245,
          "midi": 74,
          "name": "D5",
          "ticks": 1324800,
          "time": 579.7851635,
          "velocity": 0.8661417322834646
        },
        {
          "duration": 0.29368091601565993,
          "durationTicks": 501,
          "midi": 73,
          "name": "C#5",
          "ticks": 1325056,
          "time": 579.9352279999999,
          "velocity": 0.8661417322834646
        },
        {
          "duration": 0.29368091601565993,
          "durationTicks": 501,
          "midi": 69,
          "name": "A4",
          "ticks": 1325568,
          "time": 580.2353569999999,
          "velocity": 0.8661417322834646
        },
        {
          "duration": 0.29368091601565993,
          "durationTicks": 501,
          "midi": 73,
          "name": "C#5",
          "ticks": 1325568,
          "time": 580.2353569999999,
          "velocity": 0.8661417322834646
        },
        {
          "duration": 0.29368091601565993,
          "durationTicks": 501,
          "midi": 79,
          "name": "G5",
          "ticks": 1325568,
          "time": 580.2353569999999,
          "velocity": 0.8661417322834646
        },
        {
          "duration": 0.29368091601554625,
          "durationTicks": 501,
          "midi": 74,
          "name": "D5",
          "ticks": 1326080,
          "time": 580.535486,
          "velocity": 0.8661417322834646
        },
        {
          "duration": 0.29368091601554625,
          "durationTicks": 501,
          "midi": 77,
          "name": "F5",
          "ticks": 1326080,
          "time": 580.535486,
          "velocity": 0.8661417322834646
        },
        {
          "duration": 0.29368091601554625,
          "durationTicks": 501,
          "midi": 82,
          "name": "A#5",
          "ticks": 1326080,
          "time": 580.535486,
          "velocity": 0.8661417322834646
        },
        {
          "duration": 0.29368091601565993,
          "durationTicks": 501,
          "midi": 73,
          "name": "C#5",
          "ticks": 1326592,
          "time": 580.835615,
          "velocity": 0.8661417322834646
        },
        {
          "duration": 0.29368091601565993,
          "durationTicks": 501,
          "midi": 76,
          "name": "E5",
          "ticks": 1326592,
          "time": 580.835615,
          "velocity": 0.8661417322834646
        },
        {
          "duration": 0.29368091601565993,
          "durationTicks": 501,
          "midi": 81,
          "name": "A5",
          "ticks": 1326592,
          "time": 580.835615,
          "velocity": 0.8661417322834646
        },
        {
          "duration": 1.0504515000000083,
          "durationTicks": 1792,
          "midi": 69,
          "name": "A4",
          "ticks": 1327104,
          "time": 581.1357439999999,
          "velocity": 0.8661417322834646
        },
        {
          "duration": 1.0504515000000083,
          "durationTicks": 1792,
          "midi": 72,
          "name": "C5",
          "ticks": 1327104,
          "time": 581.1357439999999,
          "velocity": 0.8661417322834646
        },
        {
          "duration": 1.0504515000000083,
          "durationTicks": 1792,
          "midi": 79,
          "name": "G5",
          "ticks": 1327104,
          "time": 581.1357439999999,
          "velocity": 0.8661417322834646
        },
        {
          "duration": 0.14361641601567499,
          "durationTicks": 245,
          "midi": 74,
          "name": "D5",
          "ticks": 1329408,
          "time": 582.4863244999999,
          "velocity": 0.8661417322834646
        },
        {
          "duration": 0.14361641601567499,
          "durationTicks": 245,
          "midi": 86,
          "name": "D6",
          "ticks": 1329408,
          "time": 582.4863244999999,
          "velocity": 0.8661417322834646
        },
        {
          "duration": 0.1436164160155613,
          "durationTicks": 245,
          "midi": 72,
          "name": "C5",
          "ticks": 1329664,
          "time": 582.636389,
          "velocity": 0.8661417322834646
        },
        {
          "duration": 0.1436164160155613,
          "durationTicks": 245,
          "midi": 84,
          "name": "C6",
          "ticks": 1329664,
          "time": 582.636389,
          "velocity": 0.8661417322834646
        },
        {
          "duration": 0.1436164160155613,
          "durationTicks": 245,
          "midi": 74,
          "name": "D5",
          "ticks": 1329920,
          "time": 582.7864535,
          "velocity": 0.8661417322834646
        },
        {
          "duration": 0.1436164160155613,
          "durationTicks": 245,
          "midi": 86,
          "name": "D6",
          "ticks": 1329920,
          "time": 582.7864535,
          "velocity": 0.8661417322834646
        },
        {
          "duration": 0.1436164160155613,
          "durationTicks": 245,
          "midi": 75,
          "name": "D#5",
          "ticks": 1330176,
          "time": 582.936518,
          "velocity": 0.8661417322834646
        },
        {
          "duration": 0.1436164160155613,
          "durationTicks": 245,
          "midi": 87,
          "name": "D#6",
          "ticks": 1330176,
          "time": 582.936518,
          "velocity": 0.8661417322834646
        },
        {
          "duration": 0.1436164160155613,
          "durationTicks": 245,
          "midi": 74,
          "name": "D5",
          "ticks": 1330432,
          "time": 583.0865825,
          "velocity": 0.8661417322834646
        },
        {
          "duration": 0.1436164160155613,
          "durationTicks": 245,
          "midi": 86,
          "name": "D6",
          "ticks": 1330432,
          "time": 583.0865825,
          "velocity": 0.8661417322834646
        },
        {
          "duration": 0.14361641601567499,
          "durationTicks": 245,
          "midi": 72,
          "name": "C5",
          "ticks": 1330688,
          "time": 583.236647,
          "velocity": 0.8661417322834646
        },
        {
          "duration": 0.14361641601567499,
          "durationTicks": 245,
          "midi": 84,
          "name": "C6",
          "ticks": 1330688,
          "time": 583.236647,
          "velocity": 0.8661417322834646
        },
        {
          "duration": 0.14361641601567499,
          "durationTicks": 245,
          "midi": 68,
          "name": "G#4",
          "ticks": 1330944,
          "time": 583.3867114999999,
          "velocity": 0.8661417322834646
        },
        {
          "duration": 0.14361641601567499,
          "durationTicks": 245,
          "midi": 80,
          "name": "G#5",
          "ticks": 1330944,
          "time": 583.3867114999999,
          "velocity": 0.8661417322834646
        },
        {
          "duration": 0.14361641601567499,
          "durationTicks": 245,
          "midi": 69,
          "name": "A4",
          "ticks": 1331200,
          "time": 583.5367759999999,
          "velocity": 0.8661417322834646
        },
        {
          "duration": 0.14361641601567499,
          "durationTicks": 245,
          "midi": 81,
          "name": "A5",
          "ticks": 1331200,
          "time": 583.5367759999999,
          "velocity": 0.8661417322834646
        },
        {
          "duration": 0.1436164160155613,
          "durationTicks": 245,
          "midi": 77,
          "name": "F5",
          "ticks": 1331456,
          "time": 583.6868405,
          "velocity": 0.8661417322834646
        },
        {
          "duration": 0.1436164160155613,
          "durationTicks": 245,
          "midi": 76,
          "name": "E5",
          "ticks": 1331712,
          "time": 583.836905,
          "velocity": 0.8661417322834646
        },
        {
          "duration": 0.1436164160155613,
          "durationTicks": 245,
          "midi": 77,
          "name": "F5",
          "ticks": 1331968,
          "time": 583.9869695,
          "velocity": 0.8661417322834646
        },
        {
          "duration": 0.1436164160155613,
          "durationTicks": 245,
          "midi": 67,
          "name": "G4",
          "ticks": 1332224,
          "time": 584.137034,
          "velocity": 0.8661417322834646
        },
        {
          "duration": 0.1436164160155613,
          "durationTicks": 245,
          "midi": 79,
          "name": "G5",
          "ticks": 1332224,
          "time": 584.137034,
          "velocity": 0.8661417322834646
        },
        {
          "duration": 0.14361641601567499,
          "durationTicks": 245,
          "midi": 77,
          "name": "F5",
          "ticks": 1332480,
          "time": 584.2870985,
          "velocity": 0.8661417322834646
        },
        {
          "duration": 0.14361641601567499,
          "durationTicks": 245,
          "midi": 76,
          "name": "E5",
          "ticks": 1332736,
          "time": 584.4371629999999,
          "velocity": 0.8661417322834646
        },
        {
          "duration": 0.14361641601567499,
          "durationTicks": 245,
          "midi": 73,
          "name": "C#5",
          "ticks": 1332992,
          "time": 584.5872274999999,
          "velocity": 0.8661417322834646
        },
        {
          "duration": 0.500019603515625,
          "durationTicks": 853,
          "midi": 74,
          "name": "D5",
          "ticks": 1333248,
          "time": 584.7372919999999,
          "velocity": 0.8661417322834646
        },
        {
          "duration": 0.29368091601565993,
          "durationTicks": 501,
          "midi": 67,
          "name": "G4",
          "ticks": 1338880,
          "time": 588.0387109999999,
          "velocity": 0.8661417322834646
        },
        {
          "duration": 0.29368091601565993,
          "durationTicks": 501,
          "midi": 70,
          "name": "A#4",
          "ticks": 1339904,
          "time": 588.638969,
          "velocity": 0.8661417322834646
        },
        {
          "duration": 0.29368091601565993,
          "durationTicks": 501,
          "midi": 67,
          "name": "G4",
          "ticks": 1340416,
          "time": 588.939098,
          "velocity": 0.8661417322834646
        },
        {
          "duration": 0.29368091601565993,
          "durationTicks": 501,
          "midi": 69,
          "name": "A4",
          "ticks": 1340416,
          "time": 588.939098,
          "velocity": 0.8661417322834646
        },
        {
          "duration": 0.29368091601565993,
          "durationTicks": 501,
          "midi": 73,
          "name": "C#5",
          "ticks": 1340928,
          "time": 589.2392269999999,
          "velocity": 0.8661417322834646
        },
        {
          "duration": 0.1436164160155613,
          "durationTicks": 245,
          "midi": 69,
          "name": "A4",
          "ticks": 1341440,
          "time": 589.539356,
          "velocity": 0.8661417322834646
        },
        {
          "duration": 0.1436164160155613,
          "durationTicks": 245,
          "midi": 74,
          "name": "D5",
          "ticks": 1341440,
          "time": 589.539356,
          "velocity": 0.8661417322834646
        },
        {
          "duration": 0.1436164160155613,
          "durationTicks": 245,
          "midi": 69,
          "name": "A4",
          "ticks": 1341696,
          "time": 589.6894205,
          "velocity": 0.8661417322834646
        },
        {
          "duration": 0.14361641601567499,
          "durationTicks": 245,
          "midi": 74,
          "name": "D5",
          "ticks": 1341952,
          "time": 589.839485,
          "velocity": 0.8661417322834646
        },
        {
          "duration": 0.14361641601567499,
          "durationTicks": 245,
          "midi": 81,
          "name": "A5",
          "ticks": 1342208,
          "time": 589.9895495,
          "velocity": 0.8661417322834646
        },
        {
          "duration": 0.14361641601567499,
          "durationTicks": 245,
          "midi": 80,
          "name": "G#5",
          "ticks": 1342464,
          "time": 590.1396139999999,
          "velocity": 0.8661417322834646
        },
        {
          "duration": 0.14361641601567499,
          "durationTicks": 245,
          "midi": 69,
          "name": "A4",
          "ticks": 1342720,
          "time": 590.2896784999999,
          "velocity": 0.8661417322834646
        },
        {
          "duration": 0.14361641601567499,
          "durationTicks": 245,
          "midi": 74,
          "name": "D5",
          "ticks": 1342976,
          "time": 590.4397429999999,
          "velocity": 0.8661417322834646
        },
        {
          "duration": 0.1436164160155613,
          "durationTicks": 245,
          "midi": 79,
          "name": "G5",
          "ticks": 1343232,
          "time": 590.5898075,
          "velocity": 0.8661417322834646
        },
        {
          "duration": 0.1436164160155613,
          "durationTicks": 245,
          "midi": 77,
          "name": "F5",
          "ticks": 1343488,
          "time": 590.739872,
          "velocity": 0.8661417322834646
        },
        {
          "duration": 0.1436164160155613,
          "durationTicks": 245,
          "midi": 69,
          "name": "A4",
          "ticks": 1343744,
          "time": 590.8899365,
          "velocity": 0.8661417322834646
        },
        {
          "duration": 0.1436164160155613,
          "durationTicks": 245,
          "midi": 74,
          "name": "D5",
          "ticks": 1344000,
          "time": 591.040001,
          "velocity": 0.8661417322834646
        },
        {
          "duration": 0.14361641601567499,
          "durationTicks": 245,
          "midi": 77,
          "name": "F5",
          "ticks": 1344256,
          "time": 591.1900655,
          "velocity": 0.8661417322834646
        },
        {
          "duration": 0.14361641601567499,
          "durationTicks": 245,
          "midi": 76,
          "name": "E5",
          "ticks": 1344512,
          "time": 591.3401299999999,
          "velocity": 0.8661417322834646
        },
        {
          "duration": 0.14361641601567499,
          "durationTicks": 245,
          "midi": 67,
          "name": "G4",
          "ticks": 1344768,
          "time": 591.4901944999999,
          "velocity": 0.8661417322834646
        },
        {
          "duration": 0.1436164160155613,
          "durationTicks": 245,
          "midi": 73,
          "name": "C#5",
          "ticks": 1345024,
          "time": 591.640259,
          "velocity": 0.8661417322834646
        },
        {
          "duration": 0.1436164160155613,
          "durationTicks": 245,
          "midi": 76,
          "name": "E5",
          "ticks": 1345280,
          "time": 591.7903235,
          "velocity": 0.8661417322834646
        },
        {
          "duration": 0.1436164160155613,
          "durationTicks": 245,
          "midi": 74,
          "name": "D5",
          "ticks": 1345536,
          "time": 591.940388,
          "velocity": 0.8661417322834646
        },
        {
          "duration": 0.1436164160155613,
          "durationTicks": 245,
          "midi": 65,
          "name": "F4",
          "ticks": 1345792,
          "time": 592.0904525,
          "velocity": 0.8661417322834646
        },
        {
          "duration": 0.14361641601567499,
          "durationTicks": 245,
          "midi": 69,
          "name": "A4",
          "ticks": 1346048,
          "time": 592.240517,
          "velocity": 0.8661417322834646
        },
        {
          "duration": 0.14361641601567499,
          "durationTicks": 245,
          "midi": 74,
          "name": "D5",
          "ticks": 1346304,
          "time": 592.3905814999999,
          "velocity": 0.8661417322834646
        },
        {
          "duration": 0.29368091601565993,
          "durationTicks": 501,
          "midi": 73,
          "name": "C#5",
          "ticks": 1346560,
          "time": 592.5406459999999,
          "velocity": 0.8661417322834646
        },
        {
          "duration": 0.14361641601567499,
          "durationTicks": 245,
          "midi": 67,
          "name": "G4",
          "ticks": 1347072,
          "time": 592.8407749999999,
          "velocity": 0.8661417322834646
        },
        {
          "duration": 0.1436164160155613,
          "durationTicks": 245,
          "midi": 70,
          "name": "A#4",
          "ticks": 1347328,
          "time": 592.9908395,
          "velocity": 0.8661417322834646
        },
        {
          "duration": 0.1436164160155613,
          "durationTicks": 245,
          "midi": 69,
          "name": "A4",
          "ticks": 1347584,
          "time": 593.140904,
          "velocity": 0.8661417322834646
        },
        {
          "duration": 0.14361641601567499,
          "durationTicks": 245,
          "midi": 65,
          "name": "F4",
          "ticks": 1347840,
          "time": 593.2909685,
          "velocity": 0.8661417322834646
        },
        {
          "duration": 0.14361641601567499,
          "durationTicks": 245,
          "midi": 69,
          "name": "A4",
          "ticks": 1348096,
          "time": 593.441033,
          "velocity": 0.8661417322834646
        },
        {
          "duration": 0.14361641601567499,
          "durationTicks": 245,
          "midi": 74,
          "name": "D5",
          "ticks": 1348352,
          "time": 593.5910974999999,
          "velocity": 0.8661417322834646
        },
        {
          "duration": 0.14361641601567499,
          "durationTicks": 245,
          "midi": 77,
          "name": "F5",
          "ticks": 1348608,
          "time": 593.7411619999999,
          "velocity": 0.8661417322834646
        },
        {
          "duration": 0.14361641601567499,
          "durationTicks": 245,
          "midi": 69,
          "name": "A4",
          "ticks": 1348864,
          "time": 593.8912264999999,
          "velocity": 0.8661417322834646
        },
        {
          "duration": 0.1436164160155613,
          "durationTicks": 245,
          "midi": 74,
          "name": "D5",
          "ticks": 1349120,
          "time": 594.041291,
          "velocity": 0.8661417322834646
        },
        {
          "duration": 0.1436164160155613,
          "durationTicks": 245,
          "midi": 77,
          "name": "F5",
          "ticks": 1349376,
          "time": 594.1913555,
          "velocity": 0.8661417322834646
        },
        {
          "duration": 0.1436164160155613,
          "durationTicks": 245,
          "midi": 76,
          "name": "E5",
          "ticks": 1349632,
          "time": 594.34142,
          "velocity": 0.8661417322834646
        },
        {
          "duration": 0.1436164160155613,
          "durationTicks": 245,
          "midi": 67,
          "name": "G4",
          "ticks": 1349888,
          "time": 594.4914845,
          "velocity": 0.8661417322834646
        },
        {
          "duration": 0.14361641601567499,
          "durationTicks": 245,
          "midi": 70,
          "name": "A#4",
          "ticks": 1350144,
          "time": 594.6415489999999,
          "velocity": 0.8661417322834646
        },
        {
          "duration": 0.14361641601567499,
          "durationTicks": 245,
          "midi": 73,
          "name": "C#5",
          "ticks": 1350400,
          "time": 594.7916134999999,
          "velocity": 0.8661417322834646
        },
        {
          "duration": 0.14361641601567499,
          "durationTicks": 245,
          "midi": 76,
          "name": "E5",
          "ticks": 1350656,
          "time": 594.9416779999999,
          "velocity": 0.8661417322834646
        },
        {
          "duration": 0.1436164160155613,
          "durationTicks": 245,
          "midi": 73,
          "name": "C#5",
          "ticks": 1350912,
          "time": 595.0917425,
          "velocity": 0.8661417322834646
        },
        {
          "duration": 0.1436164160155613,
          "durationTicks": 245,
          "midi": 76,
          "name": "E5",
          "ticks": 1351168,
          "time": 595.241807,
          "velocity": 0.8661417322834646
        },
        {
          "duration": 0.1436164160155613,
          "durationTicks": 245,
          "midi": 79,
          "name": "G5",
          "ticks": 1351424,
          "time": 595.3918715,
          "velocity": 0.8661417322834646
        },
        {
          "duration": 0.1436164160155613,
          "durationTicks": 245,
          "midi": 77,
          "name": "F5",
          "ticks": 1351680,
          "time": 595.541936,
          "velocity": 0.8661417322834646
        },
        {
          "duration": 0.14361641601567499,
          "durationTicks": 245,
          "midi": 81,
          "name": "A5",
          "ticks": 1351936,
          "time": 595.6920005,
          "velocity": 0.8661417322834646
        },
        {
          "duration": 0.14361641601567499,
          "durationTicks": 245,
          "midi": 86,
          "name": "D6",
          "ticks": 1352192,
          "time": 595.8420649999999,
          "velocity": 0.8661417322834646
        },
        {
          "duration": 0.14361641601567499,
          "durationTicks": 245,
          "midi": 81,
          "name": "A5",
          "ticks": 1352448,
          "time": 595.9921294999999,
          "velocity": 0.8661417322834646
        },
        {
          "duration": 0.1436164160155613,
          "durationTicks": 245,
          "midi": 77,
          "name": "F5",
          "ticks": 1352704,
          "time": 596.142194,
          "velocity": 0.8661417322834646
        },
        {
          "duration": 0.1436164160155613,
          "durationTicks": 245,
          "midi": 86,
          "name": "D6",
          "ticks": 1352960,
          "time": 596.2922585,
          "velocity": 0.8661417322834646
        },
        {
          "duration": 0.1436164160155613,
          "durationTicks": 245,
          "midi": 81,
          "name": "A5",
          "ticks": 1353216,
          "time": 596.442323,
          "velocity": 0.8661417322834646
        },
        {
          "duration": 0.1436164160155613,
          "durationTicks": 245,
          "midi": 77,
          "name": "F5",
          "ticks": 1353472,
          "time": 596.5923875,
          "velocity": 0.8661417322834646
        },
        {
          "duration": 0.14361641601567499,
          "durationTicks": 245,
          "midi": 76,
          "name": "E5",
          "ticks": 1353728,
          "time": 596.742452,
          "velocity": 0.8661417322834646
        },
        {
          "duration": 0.14361641601567499,
          "durationTicks": 245,
          "midi": 79,
          "name": "G5",
          "ticks": 1353984,
          "time": 596.8925164999999,
          "velocity": 0.8661417322834646
        },
        {
          "duration": 0.14361641601567499,
          "durationTicks": 245,
          "midi": 85,
          "name": "C#6",
          "ticks": 1354240,
          "time": 597.0425809999999,
          "velocity": 0.8661417322834646
        },
        {
          "duration": 0.14361641601567499,
          "durationTicks": 245,
          "midi": 79,
          "name": "G5",
          "ticks": 1354496,
          "time": 597.1926454999999,
          "velocity": 0.8661417322834646
        },
        {
          "duration": 0.14361641601567499,
          "durationTicks": 245,
          "midi": 76,
          "name": "E5",
          "ticks": 1354752,
          "time": 597.3427099999999,
          "velocity": 0.8661417322834646
        },
        {
          "duration": 0.1436164160155613,
          "durationTicks": 245,
          "midi": 85,
          "name": "C#6",
          "ticks": 1355008,
          "time": 597.4927745,
          "velocity": 0.8661417322834646
        },
        {
          "duration": 0.1436164160155613,
          "durationTicks": 245,
          "midi": 79,
          "name": "G5",
          "ticks": 1355264,
          "time": 597.642839,
          "velocity": 0.8661417322834646
        },
        {
          "duration": 0.14361641601567499,
          "durationTicks": 245,
          "midi": 76,
          "name": "E5",
          "ticks": 1355520,
          "time": 597.7929035,
          "velocity": 0.8661417322834646
        },
        {
          "duration": 0.14361641601567499,
          "durationTicks": 245,
          "midi": 69,
          "name": "A4",
          "ticks": 1356032,
          "time": 598.0930324999999,
          "velocity": 0.8661417322834646
        },
        {
          "duration": 0.14361641601567499,
          "durationTicks": 245,
          "midi": 74,
          "name": "D5",
          "ticks": 1356288,
          "time": 598.2430969999999,
          "velocity": 0.8661417322834646
        },
        {
          "duration": 0.14361641601567499,
          "durationTicks": 245,
          "midi": 69,
          "name": "A4",
          "ticks": 1356544,
          "time": 598.3931614999999,
          "velocity": 0.8661417322834646
        },
        {
          "duration": 0.1436164160155613,
          "durationTicks": 245,
          "midi": 77,
          "name": "F5",
          "ticks": 1356800,
          "time": 598.543226,
          "velocity": 0.8661417322834646
        },
        {
          "duration": 0.1436164160155613,
          "durationTicks": 245,
          "midi": 69,
          "name": "A4",
          "ticks": 1357056,
          "time": 598.6932905,
          "velocity": 0.8661417322834646
        },
        {
          "duration": 0.1436164160155613,
          "durationTicks": 245,
          "midi": 74,
          "name": "D5",
          "ticks": 1357312,
          "time": 598.843355,
          "velocity": 0.8661417322834646
        },
        {
          "duration": 0.1436164160155613,
          "durationTicks": 245,
          "midi": 69,
          "name": "A4",
          "ticks": 1357568,
          "time": 598.9934195,
          "velocity": 0.8661417322834646
        },
        {
          "duration": 0.14361641601567499,
          "durationTicks": 245,
          "midi": 75,
          "name": "D#5",
          "ticks": 1357824,
          "time": 599.143484,
          "velocity": 0.8661417322834646
        },
        {
          "duration": 0.14361641601567499,
          "durationTicks": 245,
          "midi": 67,
          "name": "G4",
          "ticks": 1358080,
          "time": 599.2935484999999,
          "velocity": 0.8661417322834646
        },
        {
          "duration": 0.14361641601567499,
          "durationTicks": 245,
          "midi": 74,
          "name": "D5",
          "ticks": 1358336,
          "time": 599.4436129999999,
          "velocity": 0.8661417322834646
        },
        {
          "duration": 0.1436164160155613,
          "durationTicks": 245,
          "midi": 69,
          "name": "A4",
          "ticks": 1358592,
          "time": 599.5936775,
          "velocity": 0.8661417322834646
        },
        {
          "duration": 0.1436164160155613,
          "durationTicks": 245,
          "midi": 75,
          "name": "D#5",
          "ticks": 1358848,
          "time": 599.743742,
          "velocity": 0.8661417322834646
        },
        {
          "duration": 0.1436164160155613,
          "durationTicks": 245,
          "midi": 69,
          "name": "A4",
          "ticks": 1359104,
          "time": 599.8938065,
          "velocity": 0.8661417322834646
        },
        {
          "duration": 0.1436164160155613,
          "durationTicks": 245,
          "midi": 74,
          "name": "D5",
          "ticks": 1359360,
          "time": 600.043871,
          "velocity": 0.8661417322834646
        },
        {
          "duration": 0.14361641601567499,
          "durationTicks": 245,
          "midi": 69,
          "name": "A4",
          "ticks": 1359616,
          "time": 600.1939355,
          "velocity": 0.8661417322834646
        },
        {
          "duration": 0.14361641601567499,
          "durationTicks": 245,
          "midi": 67,
          "name": "G4",
          "ticks": 1360128,
          "time": 600.4940644999999,
          "velocity": 0.8661417322834646
        },
        {
          "duration": 0.14361641601567499,
          "durationTicks": 245,
          "midi": 73,
          "name": "C#5",
          "ticks": 1360384,
          "time": 600.6441289999999,
          "velocity": 0.8661417322834646
        },
        {
          "duration": 0.14361641601567499,
          "durationTicks": 245,
          "midi": 67,
          "name": "G4",
          "ticks": 1360640,
          "time": 600.7941934999999,
          "velocity": 0.8661417322834646
        },
        {
          "duration": 0.1436164160155613,
          "durationTicks": 245,
          "midi": 67,
          "name": "G4",
          "ticks": 1361152,
          "time": 601.0943225,
          "velocity": 0.8661417322834646
        },
        {
          "duration": 0.14361641601567499,
          "durationTicks": 245,
          "midi": 73,
          "name": "C#5",
          "ticks": 1361408,
          "time": 601.244387,
          "velocity": 0.8661417322834646
        },
        {
          "duration": 0.14361641601567499,
          "durationTicks": 245,
          "midi": 67,
          "name": "G4",
          "ticks": 1361664,
          "time": 601.3944515,
          "velocity": 0.8661417322834646
        },
        {
          "duration": 0.14361641601567499,
          "durationTicks": 245,
          "midi": 67,
          "name": "G4",
          "ticks": 1362176,
          "time": 601.6945804999999,
          "velocity": 0.8661417322834646
        },
        {
          "duration": 0.14361641601567499,
          "durationTicks": 245,
          "midi": 73,
          "name": "C#5",
          "ticks": 1362432,
          "time": 601.8446449999999,
          "velocity": 0.8661417322834646
        },
        {
          "duration": 0.1436164160155613,
          "durationTicks": 245,
          "midi": 67,
          "name": "G4",
          "ticks": 1362688,
          "time": 601.9947095,
          "velocity": 0.8661417322834646
        },
        {
          "duration": 0.1436164160155613,
          "durationTicks": 245,
          "midi": 67,
          "name": "G4",
          "ticks": 1363200,
          "time": 602.2948385,
          "velocity": 0.8661417322834646
        },
        {
          "duration": 0.14361641601567499,
          "durationTicks": 245,
          "midi": 73,
          "name": "C#5",
          "ticks": 1363456,
          "time": 602.444903,
          "velocity": 0.8661417322834646
        },
        {
          "duration": 0.14361641601567499,
          "durationTicks": 245,
          "midi": 67,
          "name": "G4",
          "ticks": 1363712,
          "time": 602.5949674999999,
          "velocity": 0.8661417322834646
        },
        {
          "duration": 0.14361641601567499,
          "durationTicks": 245,
          "midi": 68,
          "name": "G#4",
          "ticks": 1364224,
          "time": 602.8950964999999,
          "velocity": 0.8661417322834646
        },
        {
          "duration": 0.1436164160155613,
          "durationTicks": 245,
          "midi": 71,
          "name": "B4",
          "ticks": 1364480,
          "time": 603.045161,
          "velocity": 0.8661417322834646
        },
        {
          "duration": 0.1436164160155613,
          "durationTicks": 245,
          "midi": 68,
          "name": "G#4",
          "ticks": 1364736,
          "time": 603.1952255,
          "velocity": 0.8661417322834646
        },
        {
          "duration": 0.1436164160155613,
          "durationTicks": 245,
          "midi": 74,
          "name": "D5",
          "ticks": 1364992,
          "time": 603.34529,
          "velocity": 0.8661417322834646
        },
        {
          "duration": 0.1436164160155613,
          "durationTicks": 245,
          "midi": 68,
          "name": "G#4",
          "ticks": 1365248,
          "time": 603.4953545,
          "velocity": 0.8661417322834646
        },
        {
          "duration": 0.14361641601567499,
          "durationTicks": 245,
          "midi": 71,
          "name": "B4",
          "ticks": 1365504,
          "time": 603.645419,
          "velocity": 0.8661417322834646
        },
        {
          "duration": 0.14361641601567499,
          "durationTicks": 245,
          "midi": 68,
          "name": "G#4",
          "ticks": 1365760,
          "time": 603.7954834999999,
          "velocity": 0.8661417322834646
        },
        {
          "duration": 0.1436164160155613,
          "durationTicks": 245,
          "midi": 68,
          "name": "G#4",
          "ticks": 1366272,
          "time": 604.0956125,
          "velocity": 0.8661417322834646
        },
        {
          "duration": 0.1436164160155613,
          "durationTicks": 245,
          "midi": 71,
          "name": "B4",
          "ticks": 1366528,
          "time": 604.245677,
          "velocity": 0.8661417322834646
        },
        {
          "duration": 0.1436164160155613,
          "durationTicks": 245,
          "midi": 68,
          "name": "G#4",
          "ticks": 1366784,
          "time": 604.3957415,
          "velocity": 0.8661417322834646
        },
        {
          "duration": 0.1436164160155613,
          "durationTicks": 245,
          "midi": 73,
          "name": "C#5",
          "ticks": 1367040,
          "time": 604.545806,
          "velocity": 0.8661417322834646
        },
        {
          "duration": 0.14361641601567499,
          "durationTicks": 245,
          "midi": 67,
          "name": "G4",
          "ticks": 1367296,
          "time": 604.6958705,
          "velocity": 0.8661417322834646
        },
        {
          "duration": 0.14361641601567499,
          "durationTicks": 245,
          "midi": 70,
          "name": "A#4",
          "ticks": 1367552,
          "time": 604.8459349999999,
          "velocity": 0.8661417322834646
        },
        {
          "duration": 0.14361641601567499,
          "durationTicks": 245,
          "midi": 67,
          "name": "G4",
          "ticks": 1367808,
          "time": 604.9959994999999,
          "velocity": 0.8661417322834646
        },
        {
          "duration": 0.14361641601567499,
          "durationTicks": 245,
          "midi": 69,
          "name": "A4",
          "ticks": 1368320,
          "time": 605.2961284999999,
          "velocity": 0.8661417322834646
        },
        {
          "duration": 0.1436164160155613,
          "durationTicks": 245,
          "midi": 74,
          "name": "D5",
          "ticks": 1368576,
          "time": 605.446193,
          "velocity": 0.8661417322834646
        },
        {
          "duration": 0.1436164160155613,
          "durationTicks": 245,
          "midi": 69,
          "name": "A4",
          "ticks": 1368832,
          "time": 605.5962575,
          "velocity": 0.8661417322834646
        },
        {
          "duration": 0.14361641601567499,
          "durationTicks": 245,
          "midi": 77,
          "name": "F5",
          "ticks": 1369088,
          "time": 605.746322,
          "velocity": 0.8661417322834646
        },
        {
          "duration": 0.14361641601567499,
          "durationTicks": 245,
          "midi": 69,
          "name": "A4",
          "ticks": 1369344,
          "time": 605.8963865,
          "velocity": 0.8661417322834646
        },
        {
          "duration": 0.14361641601567499,
          "durationTicks": 245,
          "midi": 74,
          "name": "D5",
          "ticks": 1369600,
          "time": 606.0464509999999,
          "velocity": 0.8661417322834646
        },
        {
          "duration": 0.14361641601567499,
          "durationTicks": 245,
          "midi": 69,
          "name": "A4",
          "ticks": 1369856,
          "time": 606.1965154999999,
          "velocity": 0.8661417322834646
        },
        {
          "duration": 0.1436164160155613,
          "durationTicks": 245,
          "midi": 69,
          "name": "A4",
          "ticks": 1370368,
          "time": 606.4966445,
          "velocity": 0.8661417322834646
        },
        {
          "duration": 0.1436164160155613,
          "durationTicks": 245,
          "midi": 74,
          "name": "D5",
          "ticks": 1370624,
          "time": 606.646709,
          "velocity": 0.8661417322834646
        },
        {
          "duration": 0.1436164160155613,
          "durationTicks": 245,
          "midi": 69,
          "name": "A4",
          "ticks": 1370880,
          "time": 606.7967735,
          "velocity": 0.8661417322834646
        },
        {
          "duration": 0.1436164160155613,
          "durationTicks": 245,
          "midi": 77,
          "name": "F5",
          "ticks": 1371136,
          "time": 606.946838,
          "velocity": 0.8661417322834646
        },
        {
          "duration": 0.14361641601567499,
          "durationTicks": 245,
          "midi": 74,
          "name": "D5",
          "ticks": 1371392,
          "time": 607.0969024999999,
          "velocity": 0.8661417322834646
        },
        {
          "duration": 0.14361641601567499,
          "durationTicks": 245,
          "midi": 77,
          "name": "F5",
          "ticks": 1371648,
          "time": 607.2469669999999,
          "velocity": 0.8661417322834646
        },
        {
          "duration": 0.14361641601567499,
          "durationTicks": 245,
          "midi": 81,
          "name": "A5",
          "ticks": 1371904,
          "time": 607.3970314999999,
          "velocity": 0.8661417322834646
        },
        {
          "duration": 0.1436164160155613,
          "durationTicks": 245,
          "midi": 74,
          "name": "D5",
          "ticks": 1372160,
          "time": 607.547096,
          "velocity": 0.8661417322834646
        },
        {
          "duration": 0.1436164160155613,
          "durationTicks": 245,
          "midi": 86,
          "name": "D6",
          "ticks": 1372160,
          "time": 607.547096,
          "velocity": 0.8661417322834646
        },
        {
          "duration": 0.1436164160155613,
          "durationTicks": 245,
          "midi": 74,
          "name": "D5",
          "ticks": 1372416,
          "time": 607.6971605,
          "velocity": 0.8661417322834646
        },
        {
          "duration": 0.1436164160155613,
          "durationTicks": 245,
          "midi": 77,
          "name": "F5",
          "ticks": 1372672,
          "time": 607.847225,
          "velocity": 0.8661417322834646
        },
        {
          "duration": 0.1436164160155613,
          "durationTicks": 245,
          "midi": 74,
          "name": "D5",
          "ticks": 1372928,
          "time": 607.9972895,
          "velocity": 0.8661417322834646
        },
        {
          "duration": 0.14361641601567499,
          "durationTicks": 245,
          "midi": 81,
          "name": "A5",
          "ticks": 1373184,
          "time": 608.147354,
          "velocity": 0.8661417322834646
        },
        {
          "duration": 0.14361641601567499,
          "durationTicks": 245,
          "midi": 74,
          "name": "D5",
          "ticks": 1373440,
          "time": 608.2974184999999,
          "velocity": 0.8661417322834646
        },
        {
          "duration": 0.14361641601567499,
          "durationTicks": 245,
          "midi": 77,
          "name": "F5",
          "ticks": 1373696,
          "time": 608.4474829999999,
          "velocity": 0.8661417322834646
        },
        {
          "duration": 0.14361641601567499,
          "durationTicks": 245,
          "midi": 74,
          "name": "D5",
          "ticks": 1373952,
          "time": 608.5975474999999,
          "velocity": 0.8661417322834646
        },
        {
          "duration": 0.1436164160155613,
          "durationTicks": 245,
          "midi": 75,
          "name": "D#5",
          "ticks": 1374208,
          "time": 608.747612,
          "velocity": 0.8661417322834646
        },
        {
          "duration": 0.1436164160155613,
          "durationTicks": 245,
          "midi": 81,
          "name": "A5",
          "ticks": 1374208,
          "time": 608.747612,
          "velocity": 0.8661417322834646
        },
        {
          "duration": 0.1436164160155613,
          "durationTicks": 245,
          "midi": 74,
          "name": "D5",
          "ticks": 1374464,
          "time": 608.8976765,
          "velocity": 0.8661417322834646
        },
        {
          "duration": 0.29368091601565993,
          "durationTicks": 501,
          "midi": 74,
          "name": "D5",
          "ticks": 1374720,
          "time": 609.047741,
          "velocity": 0.8661417322834646
        },
        {
          "duration": 0.29368091601565993,
          "durationTicks": 501,
          "midi": 77,
          "name": "F5",
          "ticks": 1374720,
          "time": 609.047741,
          "velocity": 0.8661417322834646
        },
        {
          "duration": 0.14361641601567499,
          "durationTicks": 245,
          "midi": 73,
          "name": "C#5",
          "ticks": 1375232,
          "time": 609.34787,
          "velocity": 0.8661417322834646
        },
        {
          "duration": 0.14361641601567499,
          "durationTicks": 245,
          "midi": 81,
          "name": "A5",
          "ticks": 1375232,
          "time": 609.34787,
          "velocity": 0.8661417322834646
        },
        {
          "duration": 0.14361641601567499,
          "durationTicks": 245,
          "midi": 74,
          "name": "D5",
          "ticks": 1375488,
          "time": 609.4979344999999,
          "velocity": 0.8661417322834646
        },
        {
          "duration": 0.14361641601567499,
          "durationTicks": 245,
          "midi": 68,
          "name": "G#4",
          "ticks": 1375744,
          "time": 609.6479989999999,
          "velocity": 0.8661417322834646
        },
        {
          "duration": 0.14361641601567499,
          "durationTicks": 245,
          "midi": 77,
          "name": "F5",
          "ticks": 1375744,
          "time": 609.6479989999999,
          "velocity": 0.8661417322834646
        },
        {
          "duration": 0.14361641601567499,
          "durationTicks": 245,
          "midi": 74,
          "name": "D5",
          "ticks": 1376000,
          "time": 609.7980634999999,
          "velocity": 0.8661417322834646
        },
        {
          "duration": 0.1436164160155613,
          "durationTicks": 245,
          "midi": 69,
          "name": "A4",
          "ticks": 1376256,
          "time": 609.948128,
          "velocity": 0.8661417322834646
        },
        {
          "duration": 0.1436164160155613,
          "durationTicks": 245,
          "midi": 73,
          "name": "C#5",
          "ticks": 1376512,
          "time": 610.0981925,
          "velocity": 0.8661417322834646
        },
        {
          "duration": 0.14361641601567499,
          "durationTicks": 245,
          "midi": 76,
          "name": "E5",
          "ticks": 1376768,
          "time": 610.248257,
          "velocity": 0.8661417322834646
        },
        {
          "duration": 0.14361641601567499,
          "durationTicks": 245,
          "midi": 73,
          "name": "C#5",
          "ticks": 1377024,
          "time": 610.3983215,
          "velocity": 0.8661417322834646
        },
        {
          "duration": 0.14361641601567499,
          "durationTicks": 245,
          "midi": 79,
          "name": "G5",
          "ticks": 1377280,
          "time": 610.5483859999999,
          "velocity": 0.8661417322834646
        },
        {
          "duration": 0.14361641601567499,
          "durationTicks": 245,
          "midi": 73,
          "name": "C#5",
          "ticks": 1377536,
          "time": 610.6984504999999,
          "velocity": 0.8661417322834646
        },
        {
          "duration": 0.14361641601567499,
          "durationTicks": 245,
          "midi": 76,
          "name": "E5",
          "ticks": 1377792,
          "time": 610.8485149999999,
          "velocity": 0.8661417322834646
        },
        {
          "duration": 0.1436164160155613,
          "durationTicks": 245,
          "midi": 73,
          "name": "C#5",
          "ticks": 1378048,
          "time": 610.9985795,
          "velocity": 0.8661417322834646
        },
        {
          "duration": 0.1436164160155613,
          "durationTicks": 245,
          "midi": 69,
          "name": "A4",
          "ticks": 1378304,
          "time": 611.148644,
          "velocity": 0.8661417322834646
        },
        {
          "duration": 0.1436164160155613,
          "durationTicks": 245,
          "midi": 73,
          "name": "C#5",
          "ticks": 1378560,
          "time": 611.2987085,
          "velocity": 0.8661417322834646
        },
        {
          "duration": 0.1436164160155613,
          "durationTicks": 245,
          "midi": 76,
          "name": "E5",
          "ticks": 1378816,
          "time": 611.448773,
          "velocity": 0.8661417322834646
        },
        {
          "duration": 0.14361641601567499,
          "durationTicks": 245,
          "midi": 73,
          "name": "C#5",
          "ticks": 1379072,
          "time": 611.5988375,
          "velocity": 0.8661417322834646
        },
        {
          "duration": 0.14361641601567499,
          "durationTicks": 245,
          "midi": 79,
          "name": "G5",
          "ticks": 1379328,
          "time": 611.7489019999999,
          "velocity": 0.8661417322834646
        },
        {
          "duration": 0.14361641601567499,
          "durationTicks": 245,
          "midi": 73,
          "name": "C#5",
          "ticks": 1379584,
          "time": 611.8989664999999,
          "velocity": 0.8661417322834646
        },
        {
          "duration": 0.1436164160155613,
          "durationTicks": 245,
          "midi": 76,
          "name": "E5",
          "ticks": 1379840,
          "time": 612.049031,
          "velocity": 0.8661417322834646
        },
        {
          "duration": 0.1436164160155613,
          "durationTicks": 245,
          "midi": 73,
          "name": "C#5",
          "ticks": 1380096,
          "time": 612.1990955,
          "velocity": 0.8661417322834646
        },
        {
          "duration": 0.1436164160155613,
          "durationTicks": 245,
          "midi": 68,
          "name": "G#4",
          "ticks": 1380352,
          "time": 612.34916,
          "velocity": 0.8661417322834646
        },
        {
          "duration": 0.1436164160155613,
          "durationTicks": 245,
          "midi": 71,
          "name": "B4",
          "ticks": 1380352,
          "time": 612.34916,
          "velocity": 0.8661417322834646
        },
        {
          "duration": 0.1436164160155613,
          "durationTicks": 245,
          "midi": 74,
          "name": "D5",
          "ticks": 1380608,
          "time": 612.4992245,
          "velocity": 0.8661417322834646
        },
        {
          "duration": 0.14361641601567499,
          "durationTicks": 245,
          "midi": 77,
          "name": "F5",
          "ticks": 1380864,
          "time": 612.649289,
          "velocity": 0.8661417322834646
        },
        {
          "duration": 0.14361641601567499,
          "durationTicks": 245,
          "midi": 74,
          "name": "D5",
          "ticks": 1381120,
          "time": 612.7993534999999,
          "velocity": 0.8661417322834646
        },
        {
          "duration": 0.14361641601567499,
          "durationTicks": 245,
          "midi": 80,
          "name": "G#5",
          "ticks": 1381376,
          "time": 612.9494179999999,
          "velocity": 0.8661417322834646
        },
        {
          "duration": 0.14361641601567499,
          "durationTicks": 245,
          "midi": 74,
          "name": "D5",
          "ticks": 1381632,
          "time": 613.0994824999999,
          "velocity": 0.8661417322834646
        },
        {
          "duration": 0.14361641601567499,
          "durationTicks": 245,
          "midi": 77,
          "name": "F5",
          "ticks": 1381888,
          "time": 613.2495469999999,
          "velocity": 0.8661417322834646
        },
        {
          "duration": 0.1436164160155613,
          "durationTicks": 245,
          "midi": 74,
          "name": "D5",
          "ticks": 1382144,
          "time": 613.3996115,
          "velocity": 0.8661417322834646
        },
        {
          "duration": 0.1436164160155613,
          "durationTicks": 245,
          "midi": 69,
          "name": "A4",
          "ticks": 1382400,
          "time": 613.549676,
          "velocity": 0.8661417322834646
        },
        {
          "duration": 0.1436164160155613,
          "durationTicks": 245,
          "midi": 71,
          "name": "B4",
          "ticks": 1382400,
          "time": 613.549676,
          "velocity": 0.8661417322834646
        },
        {
          "duration": 0.14361641601567499,
          "durationTicks": 245,
          "midi": 74,
          "name": "D5",
          "ticks": 1382656,
          "time": 613.6997405,
          "velocity": 0.8661417322834646
        },
        {
          "duration": 0.14361641601567499,
          "durationTicks": 245,
          "midi": 77,
          "name": "F5",
          "ticks": 1382912,
          "time": 613.849805,
          "velocity": 0.8661417322834646
        },
        {
          "duration": 0.14361641601567499,
          "durationTicks": 245,
          "midi": 74,
          "name": "D5",
          "ticks": 1383168,
          "time": 613.9998694999999,
          "velocity": 0.8661417322834646
        },
        {
          "duration": 0.14361641601567499,
          "durationTicks": 245,
          "midi": 67,
          "name": "G4",
          "ticks": 1383424,
          "time": 614.1499339999999,
          "velocity": 0.8661417322834646
        },
        {
          "duration": 0.14361641601567499,
          "durationTicks": 245,
          "midi": 79,
          "name": "G5",
          "ticks": 1383424,
          "time": 614.1499339999999,
          "velocity": 0.8661417322834646
        },
        {
          "duration": 0.14361641601567499,
          "durationTicks": 245,
          "midi": 70,
          "name": "A#4",
          "ticks": 1383680,
          "time": 614.2999984999999,
          "velocity": 0.8661417322834646
        },
        {
          "duration": 0.1436164160155613,
          "durationTicks": 245,
          "midi": 73,
          "name": "C#5",
          "ticks": 1383936,
          "time": 614.450063,
          "velocity": 0.8661417322834646
        },
        {
          "duration": 0.1436164160155613,
          "durationTicks": 245,
          "midi": 70,
          "name": "A#4",
          "ticks": 1384192,
          "time": 614.6001275,
          "velocity": 0.8661417322834646
        },
        {
          "duration": 0.1436164160155613,
          "durationTicks": 245,
          "midi": 69,
          "name": "A4",
          "ticks": 1384448,
          "time": 614.750192,
          "velocity": 0.8661417322834646
        },
        {
          "duration": 0.1436164160155613,
          "durationTicks": 245,
          "midi": 74,
          "name": "D5",
          "ticks": 1384704,
          "time": 614.9002565,
          "velocity": 0.8661417322834646
        },
        {
          "duration": 0.14361641601567499,
          "durationTicks": 245,
          "midi": 77,
          "name": "F5",
          "ticks": 1384960,
          "time": 615.0503209999999,
          "velocity": 0.8661417322834646
        },
        {
          "duration": 0.14361641601567499,
          "durationTicks": 245,
          "midi": 74,
          "name": "D5",
          "ticks": 1385216,
          "time": 615.2003854999999,
          "velocity": 0.8661417322834646
        },
        {
          "duration": 0.14361641601567499,
          "durationTicks": 245,
          "midi": 81,
          "name": "A5",
          "ticks": 1385472,
          "time": 615.3504499999999,
          "velocity": 0.8661417322834646
        },
        {
          "duration": 0.1436164160155613,
          "durationTicks": 245,
          "midi": 69,
          "name": "A4",
          "ticks": 1385728,
          "time": 615.5005145,
          "velocity": 0.8661417322834646
        },
        {
          "duration": 0.1436164160155613,
          "durationTicks": 245,
          "midi": 74,
          "name": "D5",
          "ticks": 1385984,
          "time": 615.650579,
          "velocity": 0.8661417322834646
        },
        {
          "duration": 0.1436164160155613,
          "durationTicks": 245,
          "midi": 77,
          "name": "F5",
          "ticks": 1386240,
          "time": 615.8006435,
          "velocity": 0.8661417322834646
        },
        {
          "duration": 0.29368091601565993,
          "durationTicks": 501,
          "midi": 74,
          "name": "D5",
          "ticks": 1386496,
          "time": 615.950708,
          "velocity": 0.8661417322834646
        },
        {
          "duration": 0.29368091601565993,
          "durationTicks": 501,
          "midi": 77,
          "name": "F5",
          "ticks": 1386496,
          "time": 615.950708,
          "velocity": 0.8661417322834646
        },
        {
          "duration": 0.29368091601565993,
          "durationTicks": 501,
          "midi": 81,
          "name": "A5",
          "ticks": 1386496,
          "time": 615.950708,
          "velocity": 0.8661417322834646
        },
        {
          "duration": 0.29368091601565993,
          "durationTicks": 501,
          "midi": 74,
          "name": "D5",
          "ticks": 1387008,
          "time": 616.2508369999999,
          "velocity": 0.8661417322834646
        },
        {
          "duration": 0.29368091601565993,
          "durationTicks": 501,
          "midi": 77,
          "name": "F5",
          "ticks": 1387008,
          "time": 616.2508369999999,
          "velocity": 0.8661417322834646
        },
        {
          "duration": 0.29368091601565993,
          "durationTicks": 501,
          "midi": 81,
          "name": "A5",
          "ticks": 1387008,
          "time": 616.2508369999999,
          "velocity": 0.8661417322834646
        },
        {
          "duration": 0.29368091601554625,
          "durationTicks": 501,
          "midi": 74,
          "name": "D5",
          "ticks": 1387520,
          "time": 616.550966,
          "velocity": 0.8661417322834646
        },
        {
          "duration": 0.29368091601554625,
          "durationTicks": 501,
          "midi": 77,
          "name": "F5",
          "ticks": 1387520,
          "time": 616.550966,
          "velocity": 0.8661417322834646
        },
        {
          "duration": 0.29368091601554625,
          "durationTicks": 501,
          "midi": 81,
          "name": "A5",
          "ticks": 1387520,
          "time": 616.550966,
          "velocity": 0.8661417322834646
        },
        {
          "duration": 0.29368091601554625,
          "durationTicks": 501,
          "midi": 74,
          "name": "D5",
          "ticks": 1388032,
          "time": 616.851095,
          "velocity": 0.8661417322834646
        },
        {
          "duration": 0.29368091601554625,
          "durationTicks": 501,
          "midi": 77,
          "name": "F5",
          "ticks": 1388032,
          "time": 616.851095,
          "velocity": 0.8661417322834646
        },
        {
          "duration": 0.29368091601554625,
          "durationTicks": 501,
          "midi": 81,
          "name": "A5",
          "ticks": 1388032,
          "time": 616.851095,
          "velocity": 0.8661417322834646
        },
        {
          "duration": 0.14361641601567499,
          "durationTicks": 245,
          "midi": 57,
          "name": "A3",
          "ticks": 1388800,
          "time": 617.3012884999999,
          "velocity": 0.8661417322834646
        },
        {
          "duration": 0.14361641601567499,
          "durationTicks": 245,
          "midi": 62,
          "name": "D4",
          "ticks": 1388800,
          "time": 617.3012884999999,
          "velocity": 0.8661417322834646
        },
        {
          "duration": 0.14361641601567499,
          "durationTicks": 245,
          "midi": 65,
          "name": "F4",
          "ticks": 1388800,
          "time": 617.3012884999999,
          "velocity": 0.8661417322834646
        },
        {
          "duration": 0.14361641601567499,
          "durationTicks": 245,
          "midi": 57,
          "name": "A3",
          "ticks": 1389056,
          "time": 617.4513529999999,
          "velocity": 0.8661417322834646
        },
        {
          "duration": 0.14361641601567499,
          "durationTicks": 245,
          "midi": 62,
          "name": "D4",
          "ticks": 1389056,
          "time": 617.4513529999999,
          "velocity": 0.8661417322834646
        },
        {
          "duration": 0.14361641601567499,
          "durationTicks": 245,
          "midi": 65,
          "name": "F4",
          "ticks": 1389056,
          "time": 617.4513529999999,
          "velocity": 0.8661417322834646
        },
        {
          "duration": 0.14361641601567499,
          "durationTicks": 245,
          "midi": 57,
          "name": "A3",
          "ticks": 1389312,
          "time": 617.6014174999999,
          "velocity": 0.8661417322834646
        },
        {
          "duration": 0.14361641601567499,
          "durationTicks": 245,
          "midi": 62,
          "name": "D4",
          "ticks": 1389312,
          "time": 617.6014174999999,
          "velocity": 0.8661417322834646
        },
        {
          "duration": 0.14361641601567499,
          "durationTicks": 245,
          "midi": 65,
          "name": "F4",
          "ticks": 1389312,
          "time": 617.6014174999999,
          "velocity": 0.8661417322834646
        },
        {
          "duration": 0.14361641601567499,
          "durationTicks": 245,
          "midi": 58,
          "name": "A#3",
          "ticks": 1389568,
          "time": 617.7514819999999,
          "velocity": 0.8661417322834646
        },
        {
          "duration": 0.14361641601567499,
          "durationTicks": 245,
          "midi": 64,
          "name": "E4",
          "ticks": 1389568,
          "time": 617.7514819999999,
          "velocity": 0.8661417322834646
        },
        {
          "duration": 0.1436164160155613,
          "durationTicks": 245,
          "midi": 58,
          "name": "A#3",
          "ticks": 1389824,
          "time": 617.9015465,
          "velocity": 0.8661417322834646
        },
        {
          "duration": 0.1436164160155613,
          "durationTicks": 245,
          "midi": 64,
          "name": "E4",
          "ticks": 1389824,
          "time": 617.9015465,
          "velocity": 0.8661417322834646
        },
        {
          "duration": 0.1436164160155613,
          "durationTicks": 245,
          "midi": 55,
          "name": "G3",
          "ticks": 1390080,
          "time": 618.051611,
          "velocity": 0.8661417322834646
        },
        {
          "duration": 0.1436164160155613,
          "durationTicks": 245,
          "midi": 61,
          "name": "C#4",
          "ticks": 1390080,
          "time": 618.051611,
          "velocity": 0.8661417322834646
        },
        {
          "duration": 0.14361641601567499,
          "durationTicks": 245,
          "midi": 55,
          "name": "G3",
          "ticks": 1390336,
          "time": 618.2016755,
          "velocity": 0.8661417322834646
        },
        {
          "duration": 0.14361641601567499,
          "durationTicks": 245,
          "midi": 61,
          "name": "C#4",
          "ticks": 1390336,
          "time": 618.2016755,
          "velocity": 0.8661417322834646
        },
        {
          "duration": 0.14361641601567499,
          "durationTicks": 245,
          "midi": 57,
          "name": "A3",
          "ticks": 1390592,
          "time": 618.35174,
          "velocity": 0.8661417322834646
        },
        {
          "duration": 0.14361641601567499,
          "durationTicks": 245,
          "midi": 62,
          "name": "D4",
          "ticks": 1390592,
          "time": 618.35174,
          "velocity": 0.8661417322834646
        },
        {
          "duration": 0.14361641601567499,
          "durationTicks": 245,
          "midi": 57,
          "name": "A3",
          "ticks": 1390848,
          "time": 618.5018044999999,
          "velocity": 0.8661417322834646
        },
        {
          "duration": 0.14361641601567499,
          "durationTicks": 245,
          "midi": 62,
          "name": "D4",
          "ticks": 1390848,
          "time": 618.5018044999999,
          "velocity": 0.8661417322834646
        },
        {
          "duration": 0.14361641601567499,
          "durationTicks": 245,
          "midi": 57,
          "name": "A3",
          "ticks": 1391104,
          "time": 618.6518689999999,
          "velocity": 0.8661417322834646
        },
        {
          "duration": 0.14361641601567499,
          "durationTicks": 245,
          "midi": 62,
          "name": "D4",
          "ticks": 1391104,
          "time": 618.6518689999999,
          "velocity": 0.8661417322834646
        },
        {
          "duration": 0.14361641601567499,
          "durationTicks": 245,
          "midi": 65,
          "name": "F4",
          "ticks": 1391104,
          "time": 618.6518689999999,
          "velocity": 0.8661417322834646
        },
        {
          "duration": 0.14361641601567499,
          "durationTicks": 245,
          "midi": 57,
          "name": "A3",
          "ticks": 1391360,
          "time": 618.8019334999999,
          "velocity": 0.8661417322834646
        },
        {
          "duration": 0.14361641601567499,
          "durationTicks": 245,
          "midi": 62,
          "name": "D4",
          "ticks": 1391360,
          "time": 618.8019334999999,
          "velocity": 0.8661417322834646
        },
        {
          "duration": 0.14361641601567499,
          "durationTicks": 245,
          "midi": 65,
          "name": "F4",
          "ticks": 1391360,
          "time": 618.8019334999999,
          "velocity": 0.8661417322834646
        },
        {
          "duration": 0.1436164160155613,
          "durationTicks": 245,
          "midi": 58,
          "name": "A#3",
          "ticks": 1391616,
          "time": 618.951998,
          "velocity": 0.8661417322834646
        },
        {
          "duration": 0.1436164160155613,
          "durationTicks": 245,
          "midi": 64,
          "name": "E4",
          "ticks": 1391616,
          "time": 618.951998,
          "velocity": 0.8661417322834646
        },
        {
          "duration": 0.1436164160155613,
          "durationTicks": 245,
          "midi": 58,
          "name": "A#3",
          "ticks": 1391872,
          "time": 619.1020625,
          "velocity": 0.8661417322834646
        },
        {
          "duration": 0.1436164160155613,
          "durationTicks": 245,
          "midi": 64,
          "name": "E4",
          "ticks": 1391872,
          "time": 619.1020625,
          "velocity": 0.8661417322834646
        },
        {
          "duration": 0.1436164160155613,
          "durationTicks": 245,
          "midi": 55,
          "name": "G3",
          "ticks": 1392128,
          "time": 619.252127,
          "velocity": 0.8661417322834646
        },
        {
          "duration": 0.1436164160155613,
          "durationTicks": 245,
          "midi": 61,
          "name": "C#4",
          "ticks": 1392128,
          "time": 619.252127,
          "velocity": 0.8661417322834646
        },
        {
          "duration": 0.1436164160155613,
          "durationTicks": 245,
          "midi": 55,
          "name": "G3",
          "ticks": 1392384,
          "time": 619.4021915,
          "velocity": 0.8661417322834646
        },
        {
          "duration": 0.1436164160155613,
          "durationTicks": 245,
          "midi": 61,
          "name": "C#4",
          "ticks": 1392384,
          "time": 619.4021915,
          "velocity": 0.8661417322834646
        },
        {
          "duration": 0.14361641601567499,
          "durationTicks": 245,
          "midi": 62,
          "name": "D4",
          "ticks": 1392896,
          "time": 619.7023204999999,
          "velocity": 0.8661417322834646
        },
        {
          "duration": 0.14361641601567499,
          "durationTicks": 245,
          "midi": 65,
          "name": "F4",
          "ticks": 1392896,
          "time": 619.7023204999999,
          "velocity": 0.8661417322834646
        },
        {
          "duration": 0.14361641601567499,
          "durationTicks": 245,
          "midi": 69,
          "name": "A4",
          "ticks": 1392896,
          "time": 619.7023204999999,
          "velocity": 0.8661417322834646
        },
        {
          "duration": 0.14361641601567499,
          "durationTicks": 245,
          "midi": 62,
          "name": "D4",
          "ticks": 1393152,
          "time": 619.8523849999999,
          "velocity": 0.8661417322834646
        },
        {
          "duration": 0.14361641601567499,
          "durationTicks": 245,
          "midi": 65,
          "name": "F4",
          "ticks": 1393152,
          "time": 619.8523849999999,
          "velocity": 0.8661417322834646
        },
        {
          "duration": 0.14361641601567499,
          "durationTicks": 245,
          "midi": 69,
          "name": "A4",
          "ticks": 1393152,
          "time": 619.8523849999999,
          "velocity": 0.8661417322834646
        },
        {
          "duration": 0.1436164160155613,
          "durationTicks": 245,
          "midi": 62,
          "name": "D4",
          "ticks": 1393408,
          "time": 620.0024495,
          "velocity": 0.8661417322834646
        },
        {
          "duration": 0.1436164160155613,
          "durationTicks": 245,
          "midi": 65,
          "name": "F4",
          "ticks": 1393408,
          "time": 620.0024495,
          "velocity": 0.8661417322834646
        },
        {
          "duration": 0.1436164160155613,
          "durationTicks": 245,
          "midi": 69,
          "name": "A4",
          "ticks": 1393408,
          "time": 620.0024495,
          "velocity": 0.8661417322834646
        },
        {
          "duration": 0.1436164160155613,
          "durationTicks": 245,
          "midi": 62,
          "name": "D4",
          "ticks": 1393664,
          "time": 620.152514,
          "velocity": 0.8661417322834646
        },
        {
          "duration": 0.1436164160155613,
          "durationTicks": 245,
          "midi": 65,
          "name": "F4",
          "ticks": 1393664,
          "time": 620.152514,
          "velocity": 0.8661417322834646
        },
        {
          "duration": 0.1436164160155613,
          "durationTicks": 245,
          "midi": 74,
          "name": "D5",
          "ticks": 1393664,
          "time": 620.152514,
          "velocity": 0.8661417322834646
        },
        {
          "duration": 0.1436164160155613,
          "durationTicks": 245,
          "midi": 62,
          "name": "D4",
          "ticks": 1393920,
          "time": 620.3025785,
          "velocity": 0.8661417322834646
        },
        {
          "duration": 0.1436164160155613,
          "durationTicks": 245,
          "midi": 65,
          "name": "F4",
          "ticks": 1393920,
          "time": 620.3025785,
          "velocity": 0.8661417322834646
        },
        {
          "duration": 0.1436164160155613,
          "durationTicks": 245,
          "midi": 74,
          "name": "D5",
          "ticks": 1393920,
          "time": 620.3025785,
          "velocity": 0.8661417322834646
        },
        {
          "duration": 0.1436164160155613,
          "durationTicks": 245,
          "midi": 62,
          "name": "D4",
          "ticks": 1394176,
          "time": 620.452643,
          "velocity": 0.8661417322834646
        },
        {
          "duration": 0.1436164160155613,
          "durationTicks": 245,
          "midi": 65,
          "name": "F4",
          "ticks": 1394176,
          "time": 620.452643,
          "velocity": 0.8661417322834646
        },
        {
          "duration": 0.1436164160155613,
          "durationTicks": 245,
          "midi": 69,
          "name": "A4",
          "ticks": 1394176,
          "time": 620.452643,
          "velocity": 0.8661417322834646
        },
        {
          "duration": 0.14361641601567499,
          "durationTicks": 245,
          "midi": 62,
          "name": "D4",
          "ticks": 1394432,
          "time": 620.6027075,
          "velocity": 0.8661417322834646
        },
        {
          "duration": 0.14361641601567499,
          "durationTicks": 245,
          "midi": 65,
          "name": "F4",
          "ticks": 1394432,
          "time": 620.6027075,
          "velocity": 0.8661417322834646
        },
        {
          "duration": 0.14361641601567499,
          "durationTicks": 245,
          "midi": 69,
          "name": "A4",
          "ticks": 1394432,
          "time": 620.6027075,
          "velocity": 0.8661417322834646
        },
        {
          "duration": 0.14361641601567499,
          "durationTicks": 245,
          "midi": 67,
          "name": "G4",
          "ticks": 1394688,
          "time": 620.7527719999999,
          "velocity": 0.8661417322834646
        },
        {
          "duration": 0.14361641601567499,
          "durationTicks": 245,
          "midi": 76,
          "name": "E5",
          "ticks": 1394688,
          "time": 620.7527719999999,
          "velocity": 0.8661417322834646
        },
        {
          "duration": 0.14361641601567499,
          "durationTicks": 245,
          "midi": 82,
          "name": "A#5",
          "ticks": 1394688,
          "time": 620.7527719999999,
          "velocity": 0.8661417322834646
        },
        {
          "duration": 0.14361641601567499,
          "durationTicks": 245,
          "midi": 67,
          "name": "G4",
          "ticks": 1394944,
          "time": 620.9028364999999,
          "velocity": 0.8661417322834646
        },
        {
          "duration": 0.14361641601567499,
          "durationTicks": 245,
          "midi": 76,
          "name": "E5",
          "ticks": 1394944,
          "time": 620.9028364999999,
          "velocity": 0.8661417322834646
        },
        {
          "duration": 0.14361641601567499,
          "durationTicks": 245,
          "midi": 82,
          "name": "A#5",
          "ticks": 1394944,
          "time": 620.9028364999999,
          "velocity": 0.8661417322834646
        },
        {
          "duration": 0.14361641601567499,
          "durationTicks": 245,
          "midi": 67,
          "name": "G4",
          "ticks": 1395200,
          "time": 621.0529009999999,
          "velocity": 0.8661417322834646
        },
        {
          "duration": 0.14361641601567499,
          "durationTicks": 245,
          "midi": 73,
          "name": "C#5",
          "ticks": 1395200,
          "time": 621.0529009999999,
          "velocity": 0.8661417322834646
        },
        {
          "duration": 0.14361641601567499,
          "durationTicks": 245,
          "midi": 79,
          "name": "G5",
          "ticks": 1395200,
          "time": 621.0529009999999,
          "velocity": 0.8661417322834646
        },
        {
          "duration": 0.14361641601567499,
          "durationTicks": 245,
          "midi": 67,
          "name": "G4",
          "ticks": 1395456,
          "time": 621.2029654999999,
          "velocity": 0.8661417322834646
        },
        {
          "duration": 0.14361641601567499,
          "durationTicks": 245,
          "midi": 73,
          "name": "C#5",
          "ticks": 1395456,
          "time": 621.2029654999999,
          "velocity": 0.8661417322834646
        },
        {
          "duration": 0.14361641601567499,
          "durationTicks": 245,
          "midi": 79,
          "name": "G5",
          "ticks": 1395456,
          "time": 621.2029654999999,
          "velocity": 0.8661417322834646
        },
        {
          "duration": 0.1436164160155613,
          "durationTicks": 245,
          "midi": 67,
          "name": "G4",
          "ticks": 1395712,
          "time": 621.35303,
          "velocity": 0.8661417322834646
        },
        {
          "duration": 0.1436164160155613,
          "durationTicks": 245,
          "midi": 70,
          "name": "A#4",
          "ticks": 1395712,
          "time": 621.35303,
          "velocity": 0.8661417322834646
        },
        {
          "duration": 0.1436164160155613,
          "durationTicks": 245,
          "midi": 79,
          "name": "G5",
          "ticks": 1395712,
          "time": 621.35303,
          "velocity": 0.8661417322834646
        },
        {
          "duration": 0.1436164160155613,
          "durationTicks": 245,
          "midi": 85,
          "name": "C#6",
          "ticks": 1395712,
          "time": 621.35303,
          "velocity": 0.8661417322834646
        },
        {
          "duration": 0.1436164160155613,
          "durationTicks": 245,
          "midi": 67,
          "name": "G4",
          "ticks": 1395968,
          "time": 621.5030945,
          "velocity": 0.8661417322834646
        },
        {
          "duration": 0.1436164160155613,
          "durationTicks": 245,
          "midi": 70,
          "name": "A#4",
          "ticks": 1395968,
          "time": 621.5030945,
          "velocity": 0.8661417322834646
        },
        {
          "duration": 0.1436164160155613,
          "durationTicks": 245,
          "midi": 79,
          "name": "G5",
          "ticks": 1395968,
          "time": 621.5030945,
          "velocity": 0.8661417322834646
        },
        {
          "duration": 0.1436164160155613,
          "durationTicks": 245,
          "midi": 85,
          "name": "C#6",
          "ticks": 1395968,
          "time": 621.5030945,
          "velocity": 0.8661417322834646
        },
        {
          "duration": 0.14361641601567499,
          "durationTicks": 245,
          "midi": 67,
          "name": "G4",
          "ticks": 1396224,
          "time": 621.653159,
          "velocity": 0.8661417322834646
        },
        {
          "duration": 0.14361641601567499,
          "durationTicks": 245,
          "midi": 70,
          "name": "A#4",
          "ticks": 1396224,
          "time": 621.653159,
          "velocity": 0.8661417322834646
        },
        {
          "duration": 0.14361641601567499,
          "durationTicks": 245,
          "midi": 76,
          "name": "E5",
          "ticks": 1396224,
          "time": 621.653159,
          "velocity": 0.8661417322834646
        },
        {
          "duration": 0.14361641601567499,
          "durationTicks": 245,
          "midi": 82,
          "name": "A#5",
          "ticks": 1396224,
          "time": 621.653159,
          "velocity": 0.8661417322834646
        },
        {
          "duration": 0.14361641601567499,
          "durationTicks": 245,
          "midi": 67,
          "name": "G4",
          "ticks": 1396480,
          "time": 621.8032235,
          "velocity": 0.8661417322834646
        },
        {
          "duration": 0.14361641601567499,
          "durationTicks": 245,
          "midi": 70,
          "name": "A#4",
          "ticks": 1396480,
          "time": 621.8032235,
          "velocity": 0.8661417322834646
        },
        {
          "duration": 0.14361641601567499,
          "durationTicks": 245,
          "midi": 76,
          "name": "E5",
          "ticks": 1396480,
          "time": 621.8032235,
          "velocity": 0.8661417322834646
        },
        {
          "duration": 0.14361641601567499,
          "durationTicks": 245,
          "midi": 82,
          "name": "A#5",
          "ticks": 1396480,
          "time": 621.8032235,
          "velocity": 0.8661417322834646
        },
        {
          "duration": 0.1957872773436975,
          "durationTicks": 501,
          "midi": 62,
          "name": "D4",
          "ticks": 1399040,
          "time": 622.853675,
          "velocity": 0.8661417322834646
        },
        {
          "duration": 0.19578727734381118,
          "durationTicks": 501,
          "midi": 65,
          "name": "F4",
          "ticks": 1399552,
          "time": 623.0537609999999,
          "velocity": 0.8661417322834646
        },
        {
          "duration": 0.09574427734378332,
          "durationTicks": 245,
          "midi": 66,
          "name": "F#4",
          "ticks": 1400064,
          "time": 623.253847,
          "velocity": 0.8661417322834646
        },
        {
          "duration": 0.1957872773436975,
          "durationTicks": 501,
          "midi": 67,
          "name": "G4",
          "ticks": 1400320,
          "time": 623.35389,
          "velocity": 0.8661417322834646
        },
        {
          "duration": 0.19578727734381118,
          "durationTicks": 501,
          "midi": 57,
          "name": "A3",
          "ticks": 1400832,
          "time": 623.5539759999999,
          "velocity": 0.8661417322834646
        },
        {
          "duration": 0.19578727734381118,
          "durationTicks": 501,
          "midi": 60,
          "name": "C4",
          "ticks": 1400832,
          "time": 623.5539759999999,
          "velocity": 0.8661417322834646
        },
        {
          "duration": 0.1957872773436975,
          "durationTicks": 501,
          "midi": 57,
          "name": "A3",
          "ticks": 1401344,
          "time": 623.754062,
          "velocity": 0.8661417322834646
        },
        {
          "duration": 0.1957872773436975,
          "durationTicks": 501,
          "midi": 60,
          "name": "C4",
          "ticks": 1401344,
          "time": 623.754062,
          "velocity": 0.8661417322834646
        },
        {
          "duration": 0.19578727734381118,
          "durationTicks": 501,
          "midi": 57,
          "name": "A3",
          "ticks": 1401856,
          "time": 623.9541479999999,
          "velocity": 0.8661417322834646
        },
        {
          "duration": 0.19578727734381118,
          "durationTicks": 501,
          "midi": 60,
          "name": "C4",
          "ticks": 1401856,
          "time": 623.9541479999999,
          "velocity": 0.8661417322834646
        },
        {
          "duration": 0.09574427734366964,
          "durationTicks": 245,
          "midi": 53,
          "name": "F3",
          "ticks": 1402368,
          "time": 624.154234,
          "velocity": 0.8661417322834646
        },
        {
          "duration": 0.09574427734366964,
          "durationTicks": 245,
          "midi": 57,
          "name": "A3",
          "ticks": 1402368,
          "time": 624.154234,
          "velocity": 0.8661417322834646
        },
        {
          "duration": 0.09574427734378332,
          "durationTicks": 245,
          "midi": 57,
          "name": "A3",
          "ticks": 1402624,
          "time": 624.2542769999999,
          "velocity": 0.8661417322834646
        },
        {
          "duration": 0.09574427734378332,
          "durationTicks": 245,
          "midi": 60,
          "name": "C4",
          "ticks": 1402624,
          "time": 624.2542769999999,
          "velocity": 0.8661417322834646
        },
        {
          "duration": 0.1957872773436975,
          "durationTicks": 501,
          "midi": 57,
          "name": "A3",
          "ticks": 1403136,
          "time": 624.454363,
          "velocity": 0.8661417322834646
        },
        {
          "duration": 0.1957872773436975,
          "durationTicks": 501,
          "midi": 60,
          "name": "C4",
          "ticks": 1403136,
          "time": 624.454363,
          "velocity": 0.8661417322834646
        },
        {
          "duration": 0.09574427734378332,
          "durationTicks": 245,
          "midi": 53,
          "name": "F3",
          "ticks": 1403648,
          "time": 624.6544489999999,
          "velocity": 0.8661417322834646
        },
        {
          "duration": 0.09574427734378332,
          "durationTicks": 245,
          "midi": 57,
          "name": "A3",
          "ticks": 1403648,
          "time": 624.6544489999999,
          "velocity": 0.8661417322834646
        },
        {
          "duration": 0.09574427734378332,
          "durationTicks": 245,
          "midi": 57,
          "name": "A3",
          "ticks": 1403904,
          "time": 624.7544919999999,
          "velocity": 0.8661417322834646
        },
        {
          "duration": 0.09574427734378332,
          "durationTicks": 245,
          "midi": 60,
          "name": "C4",
          "ticks": 1403904,
          "time": 624.7544919999999,
          "velocity": 0.8661417322834646
        },
        {
          "duration": 0.09574427734378332,
          "durationTicks": 245,
          "midi": 53,
          "name": "F3",
          "ticks": 1404160,
          "time": 624.8545349999999,
          "velocity": 0.8661417322834646
        },
        {
          "duration": 0.09574427734378332,
          "durationTicks": 245,
          "midi": 57,
          "name": "A3",
          "ticks": 1404160,
          "time": 624.8545349999999,
          "velocity": 0.8661417322834646
        },
        {
          "duration": 0.1957872773436975,
          "durationTicks": 501,
          "midi": 57,
          "name": "A3",
          "ticks": 1404416,
          "time": 624.954578,
          "velocity": 0.8661417322834646
        },
        {
          "duration": 0.1957872773436975,
          "durationTicks": 501,
          "midi": 60,
          "name": "C4",
          "ticks": 1404416,
          "time": 624.954578,
          "velocity": 0.8661417322834646
        },
        {
          "duration": 0.19578727734381118,
          "durationTicks": 501,
          "midi": 55,
          "name": "G3",
          "ticks": 1404928,
          "time": 625.1546639999999,
          "velocity": 0.8661417322834646
        },
        {
          "duration": 0.19578727734381118,
          "durationTicks": 501,
          "midi": 59,
          "name": "B3",
          "ticks": 1404928,
          "time": 625.1546639999999,
          "velocity": 0.8661417322834646
        },
        {
          "duration": 0.1957872773436975,
          "durationTicks": 501,
          "midi": 55,
          "name": "G3",
          "ticks": 1405440,
          "time": 625.35475,
          "velocity": 0.8661417322834646
        },
        {
          "duration": 0.1957872773436975,
          "durationTicks": 501,
          "midi": 59,
          "name": "B3",
          "ticks": 1405440,
          "time": 625.35475,
          "velocity": 0.8661417322834646
        },
        {
          "duration": 0.19578727734381118,
          "durationTicks": 501,
          "midi": 55,
          "name": "G3",
          "ticks": 1405952,
          "time": 625.5548359999999,
          "velocity": 0.8661417322834646
        },
        {
          "duration": 0.19578727734381118,
          "durationTicks": 501,
          "midi": 59,
          "name": "B3",
          "ticks": 1405952,
          "time": 625.5548359999999,
          "velocity": 0.8661417322834646
        },
        {
          "duration": 0.09574427734366964,
          "durationTicks": 245,
          "midi": 52,
          "name": "E3",
          "ticks": 1406464,
          "time": 625.754922,
          "velocity": 0.8661417322834646
        },
        {
          "duration": 0.09574427734366964,
          "durationTicks": 245,
          "midi": 55,
          "name": "G3",
          "ticks": 1406464,
          "time": 625.754922,
          "velocity": 0.8661417322834646
        },
        {
          "duration": 0.09574427734378332,
          "durationTicks": 245,
          "midi": 55,
          "name": "G3",
          "ticks": 1406720,
          "time": 625.8549649999999,
          "velocity": 0.8661417322834646
        },
        {
          "duration": 0.09574427734378332,
          "durationTicks": 245,
          "midi": 59,
          "name": "B3",
          "ticks": 1406720,
          "time": 625.8549649999999,
          "velocity": 0.8661417322834646
        },
        {
          "duration": 0.1957872773436975,
          "durationTicks": 501,
          "midi": 55,
          "name": "G3",
          "ticks": 1407232,
          "time": 626.0550509999999,
          "velocity": 0.8661417322834646
        },
        {
          "duration": 0.1957872773436975,
          "durationTicks": 501,
          "midi": 59,
          "name": "B3",
          "ticks": 1407232,
          "time": 626.0550509999999,
          "velocity": 0.8661417322834646
        },
        {
          "duration": 0.09574427734378332,
          "durationTicks": 245,
          "midi": 52,
          "name": "E3",
          "ticks": 1407744,
          "time": 626.2551369999999,
          "velocity": 0.8661417322834646
        },
        {
          "duration": 0.09574427734378332,
          "durationTicks": 245,
          "midi": 55,
          "name": "G3",
          "ticks": 1407744,
          "time": 626.2551369999999,
          "velocity": 0.8661417322834646
        },
        {
          "duration": 0.09574427734378332,
          "durationTicks": 245,
          "midi": 55,
          "name": "G3",
          "ticks": 1408000,
          "time": 626.3551799999999,
          "velocity": 0.8661417322834646
        },
        {
          "duration": 0.09574427734378332,
          "durationTicks": 245,
          "midi": 59,
          "name": "B3",
          "ticks": 1408000,
          "time": 626.3551799999999,
          "velocity": 0.8661417322834646
        },
        {
          "duration": 0.09574427734378332,
          "durationTicks": 245,
          "midi": 52,
          "name": "E3",
          "ticks": 1408256,
          "time": 626.4552229999999,
          "velocity": 0.8661417322834646
        },
        {
          "duration": 0.09574427734378332,
          "durationTicks": 245,
          "midi": 55,
          "name": "G3",
          "ticks": 1408256,
          "time": 626.4552229999999,
          "velocity": 0.8661417322834646
        },
        {
          "duration": 0.1957872773436975,
          "durationTicks": 501,
          "midi": 55,
          "name": "G3",
          "ticks": 1408512,
          "time": 626.555266,
          "velocity": 0.8661417322834646
        },
        {
          "duration": 0.1957872773436975,
          "durationTicks": 501,
          "midi": 59,
          "name": "B3",
          "ticks": 1408512,
          "time": 626.555266,
          "velocity": 0.8661417322834646
        },
        {
          "duration": 0.19578727734381118,
          "durationTicks": 501,
          "midi": 57,
          "name": "A3",
          "ticks": 1409024,
          "time": 626.7553519999999,
          "velocity": 0.8661417322834646
        },
        {
          "duration": 0.19578727734381118,
          "durationTicks": 501,
          "midi": 60,
          "name": "C4",
          "ticks": 1409024,
          "time": 626.7553519999999,
          "velocity": 0.8661417322834646
        },
        {
          "duration": 0.1957872773436975,
          "durationTicks": 501,
          "midi": 57,
          "name": "A3",
          "ticks": 1409536,
          "time": 626.955438,
          "velocity": 0.8661417322834646
        },
        {
          "duration": 0.1957872773436975,
          "durationTicks": 501,
          "midi": 60,
          "name": "C4",
          "ticks": 1409536,
          "time": 626.955438,
          "velocity": 0.8661417322834646
        },
        {
          "duration": 0.19578727734381118,
          "durationTicks": 501,
          "midi": 57,
          "name": "A3",
          "ticks": 1410048,
          "time": 627.1555239999999,
          "velocity": 0.8661417322834646
        },
        {
          "duration": 0.19578727734381118,
          "durationTicks": 501,
          "midi": 60,
          "name": "C4",
          "ticks": 1410048,
          "time": 627.1555239999999,
          "velocity": 0.8661417322834646
        },
        {
          "duration": 0.09574427734366964,
          "durationTicks": 245,
          "midi": 53,
          "name": "F3",
          "ticks": 1410560,
          "time": 627.35561,
          "velocity": 0.8661417322834646
        },
        {
          "duration": 0.09574427734366964,
          "durationTicks": 245,
          "midi": 57,
          "name": "A3",
          "ticks": 1410560,
          "time": 627.35561,
          "velocity": 0.8661417322834646
        },
        {
          "duration": 0.09574427734366964,
          "durationTicks": 245,
          "midi": 57,
          "name": "A3",
          "ticks": 1410816,
          "time": 627.455653,
          "velocity": 0.8661417322834646
        },
        {
          "duration": 0.09574427734366964,
          "durationTicks": 245,
          "midi": 60,
          "name": "C4",
          "ticks": 1410816,
          "time": 627.455653,
          "velocity": 0.8661417322834646
        },
        {
          "duration": 0.1957872773436975,
          "durationTicks": 501,
          "midi": 57,
          "name": "A3",
          "ticks": 1411328,
          "time": 627.6557389999999,
          "velocity": 0.8661417322834646
        },
        {
          "duration": 0.1957872773436975,
          "durationTicks": 501,
          "midi": 60,
          "name": "C4",
          "ticks": 1411328,
          "time": 627.6557389999999,
          "velocity": 0.8661417322834646
        },
        {
          "duration": 0.09574427734366964,
          "durationTicks": 245,
          "midi": 53,
          "name": "F3",
          "ticks": 1411840,
          "time": 627.855825,
          "velocity": 0.8661417322834646
        },
        {
          "duration": 0.09574427734366964,
          "durationTicks": 245,
          "midi": 57,
          "name": "A3",
          "ticks": 1411840,
          "time": 627.855825,
          "velocity": 0.8661417322834646
        },
        {
          "duration": 0.09574427734378332,
          "durationTicks": 245,
          "midi": 57,
          "name": "A3",
          "ticks": 1412096,
          "time": 627.9558679999999,
          "velocity": 0.8661417322834646
        },
        {
          "duration": 0.09574427734378332,
          "durationTicks": 245,
          "midi": 60,
          "name": "C4",
          "ticks": 1412096,
          "time": 627.9558679999999,
          "velocity": 0.8661417322834646
        },
        {
          "duration": 0.09574427734378332,
          "durationTicks": 245,
          "midi": 53,
          "name": "F3",
          "ticks": 1412352,
          "time": 628.0559109999999,
          "velocity": 0.8661417322834646
        },
        {
          "duration": 0.09574427734378332,
          "durationTicks": 245,
          "midi": 57,
          "name": "A3",
          "ticks": 1412352,
          "time": 628.0559109999999,
          "velocity": 0.8661417322834646
        },
        {
          "duration": 0.1957872773436975,
          "durationTicks": 501,
          "midi": 57,
          "name": "A3",
          "ticks": 1412608,
          "time": 628.155954,
          "velocity": 0.8661417322834646
        },
        {
          "duration": 0.1957872773436975,
          "durationTicks": 501,
          "midi": 60,
          "name": "C4",
          "ticks": 1412608,
          "time": 628.155954,
          "velocity": 0.8661417322834646
        },
        {
          "duration": 0.19578727734381118,
          "durationTicks": 501,
          "midi": 55,
          "name": "G3",
          "ticks": 1413120,
          "time": 628.3560399999999,
          "velocity": 0.8661417322834646
        },
        {
          "duration": 0.19578727734381118,
          "durationTicks": 501,
          "midi": 59,
          "name": "B3",
          "ticks": 1413120,
          "time": 628.3560399999999,
          "velocity": 0.8661417322834646
        },
        {
          "duration": 0.1957872773436975,
          "durationTicks": 501,
          "midi": 55,
          "name": "G3",
          "ticks": 1413632,
          "time": 628.556126,
          "velocity": 0.8661417322834646
        },
        {
          "duration": 0.1957872773436975,
          "durationTicks": 501,
          "midi": 59,
          "name": "B3",
          "ticks": 1413632,
          "time": 628.556126,
          "velocity": 0.8661417322834646
        },
        {
          "duration": 0.19578727734381118,
          "durationTicks": 501,
          "midi": 55,
          "name": "G3",
          "ticks": 1414144,
          "time": 628.7562119999999,
          "velocity": 0.8661417322834646
        },
        {
          "duration": 0.19578727734381118,
          "durationTicks": 501,
          "midi": 59,
          "name": "B3",
          "ticks": 1414144,
          "time": 628.7562119999999,
          "velocity": 0.8661417322834646
        },
        {
          "duration": 0.09574427734378332,
          "durationTicks": 245,
          "midi": 52,
          "name": "E3",
          "ticks": 1414656,
          "time": 628.956298,
          "velocity": 0.8661417322834646
        },
        {
          "duration": 0.09574427734378332,
          "durationTicks": 245,
          "midi": 55,
          "name": "G3",
          "ticks": 1414656,
          "time": 628.956298,
          "velocity": 0.8661417322834646
        },
        {
          "duration": 0.09574427734366964,
          "durationTicks": 245,
          "midi": 55,
          "name": "G3",
          "ticks": 1414912,
          "time": 629.056341,
          "velocity": 0.8661417322834646
        },
        {
          "duration": 0.09574427734366964,
          "durationTicks": 245,
          "midi": 59,
          "name": "B3",
          "ticks": 1414912,
          "time": 629.056341,
          "velocity": 0.8661417322834646
        },
        {
          "duration": 0.19578727734381118,
          "durationTicks": 501,
          "midi": 55,
          "name": "G3",
          "ticks": 1415424,
          "time": 629.2564269999999,
          "velocity": 0.8661417322834646
        },
        {
          "duration": 0.19578727734381118,
          "durationTicks": 501,
          "midi": 59,
          "name": "B3",
          "ticks": 1415424,
          "time": 629.2564269999999,
          "velocity": 0.8661417322834646
        },
        {
          "duration": 0.09574427734366964,
          "durationTicks": 245,
          "midi": 52,
          "name": "E3",
          "ticks": 1415936,
          "time": 629.456513,
          "velocity": 0.8661417322834646
        },
        {
          "duration": 0.09574427734366964,
          "durationTicks": 245,
          "midi": 55,
          "name": "G3",
          "ticks": 1415936,
          "time": 629.456513,
          "velocity": 0.8661417322834646
        },
        {
          "duration": 0.09574427734378332,
          "durationTicks": 245,
          "midi": 55,
          "name": "G3",
          "ticks": 1416192,
          "time": 629.5565559999999,
          "velocity": 0.8661417322834646
        },
        {
          "duration": 0.09574427734378332,
          "durationTicks": 245,
          "midi": 59,
          "name": "B3",
          "ticks": 1416192,
          "time": 629.5565559999999,
          "velocity": 0.8661417322834646
        },
        {
          "duration": 0.09574427734378332,
          "durationTicks": 245,
          "midi": 52,
          "name": "E3",
          "ticks": 1416448,
          "time": 629.6565989999999,
          "velocity": 0.8661417322834646
        },
        {
          "duration": 0.09574427734378332,
          "durationTicks": 245,
          "midi": 55,
          "name": "G3",
          "ticks": 1416448,
          "time": 629.6565989999999,
          "velocity": 0.8661417322834646
        },
        {
          "duration": 0.1957872773436975,
          "durationTicks": 501,
          "midi": 55,
          "name": "G3",
          "ticks": 1416704,
          "time": 629.7566419999999,
          "velocity": 0.8661417322834646
        },
        {
          "duration": 0.1957872773436975,
          "durationTicks": 501,
          "midi": 59,
          "name": "B3",
          "ticks": 1416704,
          "time": 629.7566419999999,
          "velocity": 0.8661417322834646
        },
        {
          "duration": 1.5006450000000768,
          "durationTicks": 3840,
          "midi": 57,
          "name": "A3",
          "ticks": 1417216,
          "time": 629.9567279999999,
          "velocity": 0.8661417322834646
        },
        {
          "duration": 1.5006450000000768,
          "durationTicks": 3840,
          "midi": 60,
          "name": "C4",
          "ticks": 1417216,
          "time": 629.9567279999999,
          "velocity": 0.8661417322834646
        },
        {
          "duration": 0.9549557499999537,
          "durationTicks": 1792,
          "midi": 55,
          "name": "G3",
          "ticks": 1421312,
          "time": 631.5574159999999,
          "velocity": 0.8661417322834646
        },
        {
          "duration": 0.9549557499999537,
          "durationTicks": 1792,
          "midi": 59,
          "name": "B3",
          "ticks": 1421312,
          "time": 631.5574159999999,
          "velocity": 0.8661417322834646
        },
        {
          "duration": 0.9549557499999537,
          "durationTicks": 1792,
          "midi": 64,
          "name": "E4",
          "ticks": 1421312,
          "time": 631.5574159999999,
          "velocity": 0.8661417322834646
        },
        {
          "duration": 0.2669826064453673,
          "durationTicks": 501,
          "midi": 64,
          "name": "E4",
          "ticks": 1423872,
          "time": 632.9216384999999,
          "velocity": 0.8661417322834646
        },
        {
          "duration": 0.19877148144530565,
          "durationTicks": 373,
          "midi": 65,
          "name": "F4",
          "ticks": 1424384,
          "time": 633.1944829999999,
          "velocity": 0.8661417322834646
        },
        {
          "duration": 0.3351937314453153,
          "durationTicks": 629,
          "midi": 67,
          "name": "G4",
          "ticks": 1424768,
          "time": 633.3991163749998,
          "velocity": 0.8661417322834646
        },
        {
          "duration": 0.9549557499999537,
          "durationTicks": 1792,
          "midi": 60,
          "name": "C4",
          "ticks": 1425408,
          "time": 633.7401719999999,
          "velocity": 0.8661417322834646
        },
        {
          "duration": 0.9549557499999537,
          "durationTicks": 1792,
          "midi": 65,
          "name": "F4",
          "ticks": 1425408,
          "time": 633.7401719999999,
          "velocity": 0.8661417322834646
        },
        {
          "duration": 0.9549557499999537,
          "durationTicks": 1792,
          "midi": 69,
          "name": "A4",
          "ticks": 1425408,
          "time": 633.7401719999999,
          "velocity": 0.8661417322834646
        },
        {
          "duration": 0.2669826064452536,
          "durationTicks": 501,
          "midi": 69,
          "name": "A4",
          "ticks": 1427968,
          "time": 635.1043944999999,
          "velocity": 0.8661417322834646
        },
        {
          "duration": 0.19877148144530565,
          "durationTicks": 373,
          "midi": 67,
          "name": "G4",
          "ticks": 1428480,
          "time": 635.3772389999999,
          "velocity": 0.8661417322834646
        },
        {
          "duration": 0.3351937314453153,
          "durationTicks": 629,
          "midi": 65,
          "name": "F4",
          "ticks": 1428864,
          "time": 635.5818723749999,
          "velocity": 0.8661417322834646
        },
        {
          "duration": 0.9549557500000674,
          "durationTicks": 1792,
          "midi": 55,
          "name": "G3",
          "ticks": 1429504,
          "time": 635.9229279999998,
          "velocity": 0.8661417322834646
        },
        {
          "duration": 0.9549557500000674,
          "durationTicks": 1792,
          "midi": 59,
          "name": "B3",
          "ticks": 1429504,
          "time": 635.9229279999998,
          "velocity": 0.8661417322834646
        },
        {
          "duration": 0.9549557500000674,
          "durationTicks": 1792,
          "midi": 64,
          "name": "E4",
          "ticks": 1429504,
          "time": 635.9229279999998,
          "velocity": 0.8661417322834646
        },
        {
          "duration": 0.2669826064453673,
          "durationTicks": 501,
          "midi": 64,
          "name": "E4",
          "ticks": 1432064,
          "time": 637.2871504999998,
          "velocity": 0.8661417322834646
        },
        {
          "duration": 0.19877148144530565,
          "durationTicks": 373,
          "midi": 65,
          "name": "F4",
          "ticks": 1432576,
          "time": 637.5599949999998,
          "velocity": 0.8661417322834646
        },
        {
          "duration": 0.3351937314453153,
          "durationTicks": 629,
          "midi": 67,
          "name": "G4",
          "ticks": 1432960,
          "time": 637.7646283749999,
          "velocity": 0.8661417322834646
        },
        {
          "duration": 0.9549557499999537,
          "durationTicks": 1792,
          "midi": 60,
          "name": "C4",
          "ticks": 1433600,
          "time": 638.1056839999999,
          "velocity": 0.8661417322834646
        },
        {
          "duration": 0.9549557499999537,
          "durationTicks": 1792,
          "midi": 65,
          "name": "F4",
          "ticks": 1433600,
          "time": 638.1056839999999,
          "velocity": 0.8661417322834646
        },
        {
          "duration": 0.9549557499999537,
          "durationTicks": 1792,
          "midi": 69,
          "name": "A4",
          "ticks": 1433600,
          "time": 638.1056839999999,
          "velocity": 0.8661417322834646
        },
        {
          "duration": 0.2669826064453673,
          "durationTicks": 501,
          "midi": 71,
          "name": "B4",
          "ticks": 1436160,
          "time": 639.4699064999999,
          "velocity": 0.8661417322834646
        },
        {
          "duration": 0.19877148144530565,
          "durationTicks": 373,
          "midi": 72,
          "name": "C5",
          "ticks": 1436672,
          "time": 639.7427509999999,
          "velocity": 0.8661417322834646
        },
        {
          "duration": 0.3351937314453153,
          "durationTicks": 629,
          "midi": 74,
          "name": "D5",
          "ticks": 1437056,
          "time": 639.9473843749998,
          "velocity": 0.8661417322834646
        },
        {
          "duration": 0.9549557499999537,
          "durationTicks": 1792,
          "midi": 55,
          "name": "G3",
          "ticks": 1437696,
          "time": 640.2884399999999,
          "velocity": 0.8661417322834646
        },
        {
          "duration": 0.9549557499999537,
          "durationTicks": 1792,
          "midi": 59,
          "name": "B3",
          "ticks": 1437696,
          "time": 640.2884399999999,
          "velocity": 0.8661417322834646
        },
        {
          "duration": 0.9549557499999537,
          "durationTicks": 1792,
          "midi": 64,
          "name": "E4",
          "ticks": 1437696,
          "time": 640.2884399999999,
          "velocity": 0.8661417322834646
        },
        {
          "duration": 0.2669826064452536,
          "durationTicks": 501,
          "midi": 64,
          "name": "E4",
          "ticks": 1440256,
          "time": 641.6526624999999,
          "velocity": 0.8661417322834646
        },
        {
          "duration": 0.19877148144530565,
          "durationTicks": 373,
          "midi": 65,
          "name": "F4",
          "ticks": 1440768,
          "time": 641.9255069999999,
          "velocity": 0.8661417322834646
        },
        {
          "duration": 0.3351937314453153,
          "durationTicks": 629,
          "midi": 67,
          "name": "G4",
          "ticks": 1441152,
          "time": 642.1301403749999,
          "velocity": 0.8661417322834646
        },
        {
          "duration": 0.9549557500000674,
          "durationTicks": 1792,
          "midi": 60,
          "name": "C4",
          "ticks": 1441792,
          "time": 642.4711959999998,
          "velocity": 0.8661417322834646
        },
        {
          "duration": 0.9549557500000674,
          "durationTicks": 1792,
          "midi": 65,
          "name": "F4",
          "ticks": 1441792,
          "time": 642.4711959999998,
          "velocity": 0.8661417322834646
        },
        {
          "duration": 0.9549557500000674,
          "durationTicks": 1792,
          "midi": 69,
          "name": "A4",
          "ticks": 1441792,
          "time": 642.4711959999998,
          "velocity": 0.8661417322834646
        },
        {
          "duration": 0.2669826064452536,
          "durationTicks": 501,
          "midi": 62,
          "name": "D4",
          "ticks": 1443840,
          "time": 643.5625739999999,
          "velocity": 0.8661417322834646
        },
        {
          "duration": 0.2669826064452536,
          "durationTicks": 501,
          "midi": 67,
          "name": "G4",
          "ticks": 1443840,
          "time": 643.5625739999999,
          "velocity": 0.8661417322834646
        },
        {
          "duration": 0.2669826064452536,
          "durationTicks": 501,
          "midi": 71,
          "name": "B4",
          "ticks": 1443840,
          "time": 643.5625739999999,
          "velocity": 0.8661417322834646
        },
        {
          "duration": 0.2669826064453673,
          "durationTicks": 501,
          "midi": 62,
          "name": "D4",
          "ticks": 1444352,
          "time": 643.8354184999998,
          "velocity": 0.8661417322834646
        },
        {
          "duration": 0.2669826064453673,
          "durationTicks": 501,
          "midi": 67,
          "name": "G4",
          "ticks": 1444352,
          "time": 643.8354184999998,
          "velocity": 0.8661417322834646
        },
        {
          "duration": 0.2669826064453673,
          "durationTicks": 501,
          "midi": 71,
          "name": "B4",
          "ticks": 1444352,
          "time": 643.8354184999998,
          "velocity": 0.8661417322834646
        },
        {
          "duration": 0.3351937314453153,
          "durationTicks": 629,
          "midi": 62,
          "name": "D4",
          "ticks": 1445248,
          "time": 644.3128963749999,
          "velocity": 0.8661417322834646
        },
        {
          "duration": 0.3351937314453153,
          "durationTicks": 629,
          "midi": 67,
          "name": "G4",
          "ticks": 1445248,
          "time": 644.3128963749999,
          "velocity": 0.8661417322834646
        },
        {
          "duration": 0.3351937314453153,
          "durationTicks": 629,
          "midi": 71,
          "name": "B4",
          "ticks": 1445248,
          "time": 644.3128963749999,
          "velocity": 0.8661417322834646
        },
        {
          "duration": 0.7274077001952719,
          "durationTicks": 1365,
          "midi": 64,
          "name": "E4",
          "ticks": 1445888,
          "time": 644.6539519999999,
          "velocity": 0.8661417322834646
        },
        {
          "duration": 0.2669826064453673,
          "durationTicks": 501,
          "midi": 64,
          "name": "E4",
          "ticks": 1447424,
          "time": 645.4724854999998,
          "velocity": 0.8661417322834646
        },
        {
          "duration": 0.2669826064453673,
          "durationTicks": 501,
          "midi": 65,
          "name": "F4",
          "ticks": 1447936,
          "time": 645.7453299999999,
          "velocity": 0.8661417322834646
        },
        {
          "duration": 0.2669826064453673,
          "durationTicks": 501,
          "midi": 64,
          "name": "E4",
          "ticks": 1448448,
          "time": 646.0181744999999,
          "velocity": 0.8661417322834646
        },
        {
          "duration": 0.2669826064452536,
          "durationTicks": 501,
          "midi": 65,
          "name": "F4",
          "ticks": 1448960,
          "time": 646.2910189999999,
          "velocity": 0.8661417322834646
        },
        {
          "duration": 0.2669826064452536,
          "durationTicks": 501,
          "midi": 67,
          "name": "G4",
          "ticks": 1449472,
          "time": 646.5638634999999,
          "velocity": 0.8661417322834646
        },
        {
          "duration": 0.9549557499999537,
          "durationTicks": 1792,
          "midi": 64,
          "name": "E4",
          "ticks": 1449984,
          "time": 646.8367079999999,
          "velocity": 0.8661417322834646
        },
        {
          "duration": 0.45456320019525265,
          "durationTicks": 853,
          "midi": 60,
          "name": "C4",
          "ticks": 1452032,
          "time": 647.9280859999999,
          "velocity": 0.8661417322834646
        },
        {
          "duration": 0.2669826064452536,
          "durationTicks": 501,
          "midi": 64,
          "name": "E4",
          "ticks": 1453056,
          "time": 648.4737749999999,
          "velocity": 0.8661417322834646
        },
        {
          "duration": 0.2669826064453673,
          "durationTicks": 501,
          "midi": 67,
          "name": "G4",
          "ticks": 1453568,
          "time": 648.7466194999998,
          "velocity": 0.8661417322834646
        },
        {
          "duration": 0.45456320019536633,
          "durationTicks": 853,
          "midi": 69,
          "name": "A4",
          "ticks": 1454080,
          "time": 649.0194639999999,
          "velocity": 0.8661417322834646
        },
        {
          "duration": 0.2669826064452536,
          "durationTicks": 501,
          "midi": 69,
          "name": "A4",
          "ticks": 1455104,
          "time": 649.5651529999999,
          "velocity": 0.8661417322834646
        },
        {
          "duration": 0.2669826064452536,
          "durationTicks": 501,
          "midi": 69,
          "name": "A4",
          "ticks": 1455616,
          "time": 649.8379974999999,
          "velocity": 0.8661417322834646
        },
        {
          "duration": 0.45456320019536633,
          "durationTicks": 853,
          "midi": 71,
          "name": "B4",
          "ticks": 1456128,
          "time": 650.1108419999998,
          "velocity": 0.8661417322834646
        },
        {
          "duration": 0.2669826064453673,
          "durationTicks": 501,
          "midi": 74,
          "name": "D5",
          "ticks": 1457152,
          "time": 650.6565309999999,
          "velocity": 0.8661417322834646
        },
        {
          "duration": 0.2669826064452536,
          "durationTicks": 501,
          "midi": 72,
          "name": "C5",
          "ticks": 1457664,
          "time": 650.9293754999999,
          "velocity": 0.8661417322834646
        },
        {
          "duration": 1.5006447499999922,
          "durationTicks": 2816,
          "midi": 67,
          "name": "G4",
          "ticks": 1458176,
          "time": 651.2022199999999,
          "velocity": 0.8661417322834646
        },
        {
          "duration": 0.7274077001953856,
          "durationTicks": 1365,
          "midi": 69,
          "name": "A4",
          "ticks": 1462272,
          "time": 653.3849759999998,
          "velocity": 0.8661417322834646
        },
        {
          "duration": 0.2669826064452536,
          "durationTicks": 501,
          "midi": 69,
          "name": "A4",
          "ticks": 1463808,
          "time": 654.2035094999999,
          "velocity": 0.8661417322834646
        },
        {
          "duration": 0.45456320019525265,
          "durationTicks": 853,
          "midi": 71,
          "name": "B4",
          "ticks": 1464320,
          "time": 654.4763539999999,
          "velocity": 0.8661417322834646
        },
        {
          "duration": 0.2669826064453673,
          "durationTicks": 501,
          "midi": 74,
          "name": "D5",
          "ticks": 1465344,
          "time": 655.0220429999998,
          "velocity": 0.8661417322834646
        },
        {
          "duration": 0.2669826064453673,
          "durationTicks": 501,
          "midi": 72,
          "name": "C5",
          "ticks": 1465856,
          "time": 655.2948874999998,
          "velocity": 0.8661417322834646
        },
        {
          "duration": 0.9549557500000674,
          "durationTicks": 1792,
          "midi": 67,
          "name": "G4",
          "ticks": 1466368,
          "time": 655.5677319999999,
          "velocity": 0.8661417322834646
        },
        {
          "duration": 0.45456320019536633,
          "durationTicks": 853,
          "midi": 72,
          "name": "C5",
          "ticks": 1468416,
          "time": 656.6591099999998,
          "velocity": 0.8661417322834646
        },
        {
          "duration": 0.2669826064453673,
          "durationTicks": 501,
          "midi": 60,
          "name": "C4",
          "ticks": 1469440,
          "time": 657.2047989999999,
          "velocity": 0.8661417322834646
        },
        {
          "duration": 0.2669826064452536,
          "durationTicks": 501,
          "midi": 62,
          "name": "D4",
          "ticks": 1469952,
          "time": 657.4776434999999,
          "velocity": 0.8661417322834646
        },
        {
          "duration": 0.7274077001952719,
          "durationTicks": 1365,
          "midi": 65,
          "name": "F4",
          "ticks": 1470464,
          "time": 657.7504879999999,
          "velocity": 0.8661417322834646
        },
        {
          "duration": 0.3351937314453153,
          "durationTicks": 629,
          "midi": 67,
          "name": "G4",
          "ticks": 1472000,
          "time": 658.5690214999998,
          "velocity": 0.8661417322834646
        },
        {
          "duration": 0.2669826064453673,
          "durationTicks": 501,
          "midi": 65,
          "name": "F4",
          "ticks": 1472640,
          "time": 658.9100771249998,
          "velocity": 0.8661417322834646
        },
        {
          "duration": 0.19877148144530565,
          "durationTicks": 373,
          "midi": 64,
          "name": "E4",
          "ticks": 1473152,
          "time": 659.1829216249998,
          "velocity": 0.8661417322834646
        },
        {
          "duration": 0.2669826064452536,
          "durationTicks": 501,
          "midi": 62,
          "name": "D4",
          "ticks": 1473536,
          "time": 659.3875549999999,
          "velocity": 0.8661417322834646
        },
        {
          "duration": 0.2669826064452536,
          "durationTicks": 501,
          "midi": 60,
          "name": "C4",
          "ticks": 1474048,
          "time": 659.6603994999999,
          "velocity": 0.8661417322834646
        },
        {
          "duration": 2.0463337500000307,
          "durationTicks": 3840,
          "midi": 67,
          "name": "G4",
          "ticks": 1474560,
          "time": 659.9332439999998,
          "velocity": 0.8661417322834646
        },
        {
          "duration": 0.7274077001952719,
          "durationTicks": 1365,
          "midi": 64,
          "name": "E4",
          "ticks": 1478656,
          "time": 662.1159999999999,
          "velocity": 0.8661417322834646
        },
        {
          "duration": 0.2669826064453673,
          "durationTicks": 501,
          "midi": 64,
          "name": "E4",
          "ticks": 1480192,
          "time": 662.9345334999998,
          "velocity": 0.8661417322834646
        },
        {
          "duration": 0.2669826064453673,
          "durationTicks": 501,
          "midi": 65,
          "name": "F4",
          "ticks": 1480704,
          "time": 663.2073779999998,
          "velocity": 0.8661417322834646
        },
        {
          "duration": 0.2669826064453673,
          "durationTicks": 501,
          "midi": 64,
          "name": "E4",
          "ticks": 1481216,
          "time": 663.4802224999999,
          "velocity": 0.8661417322834646
        },
        {
          "duration": 0.2669826064452536,
          "durationTicks": 501,
          "midi": 65,
          "name": "F4",
          "ticks": 1481728,
          "time": 663.7530669999999,
          "velocity": 0.8661417322834646
        },
        {
          "duration": 0.2669826064452536,
          "durationTicks": 501,
          "midi": 67,
          "name": "G4",
          "ticks": 1482240,
          "time": 664.0259114999999,
          "velocity": 0.8661417322834646
        },
        {
          "duration": 0.9549557499999537,
          "durationTicks": 1792,
          "midi": 64,
          "name": "E4",
          "ticks": 1482752,
          "time": 664.2987559999999,
          "velocity": 0.8661417322834646
        },
        {
          "duration": 0.45456320019536633,
          "durationTicks": 853,
          "midi": 60,
          "name": "C4",
          "ticks": 1484800,
          "time": 665.3901339999999,
          "velocity": 0.8661417322834646
        },
        {
          "duration": 0.2669826064452536,
          "durationTicks": 501,
          "midi": 64,
          "name": "E4",
          "ticks": 1485824,
          "time": 665.9358229999999,
          "velocity": 0.8661417322834646
        },
        {
          "duration": 0.2669826064453673,
          "durationTicks": 501,
          "midi": 67,
          "name": "G4",
          "ticks": 1486336,
          "time": 666.2086674999998,
          "velocity": 0.8661417322834646
        },
        {
          "duration": 0.45456320019536633,
          "durationTicks": 853,
          "midi": 69,
          "name": "A4",
          "ticks": 1486848,
          "time": 666.4815119999998,
          "velocity": 0.8661417322834646
        },
        {
          "duration": 0.2669826064452536,
          "durationTicks": 501,
          "midi": 69,
          "name": "A4",
          "ticks": 1487872,
          "time": 667.0272009999999,
          "velocity": 0.8661417322834646
        },
        {
          "duration": 0.2669826064452536,
          "durationTicks": 501,
          "midi": 69,
          "name": "A4",
          "ticks": 1488384,
          "time": 667.3000454999999,
          "velocity": 0.8661417322834646
        },
        {
          "duration": 0.45456320019525265,
          "durationTicks": 853,
          "midi": 71,
          "name": "B4",
          "ticks": 1488896,
          "time": 667.5728899999999,
          "velocity": 0.8661417322834646
        },
        {
          "duration": 0.2669826064453673,
          "durationTicks": 501,
          "midi": 74,
          "name": "D5",
          "ticks": 1489920,
          "time": 668.1185789999998,
          "velocity": 0.8661417322834646
        },
        {
          "duration": 0.2669826064453673,
          "durationTicks": 501,
          "midi": 72,
          "name": "C5",
          "ticks": 1490432,
          "time": 668.3914234999999,
          "velocity": 0.8661417322834646
        },
        {
          "duration": 1.5006447499999922,
          "durationTicks": 2816,
          "midi": 67,
          "name": "G4",
          "ticks": 1490944,
          "time": 668.6642679999999,
          "velocity": 0.8661417322834646
        },
        {
          "duration": 0.7274077001952719,
          "durationTicks": 1365,
          "midi": 69,
          "name": "A4",
          "ticks": 1495040,
          "time": 670.8470239999999,
          "velocity": 0.8661417322834646
        },
        {
          "duration": 0.2669826064453673,
          "durationTicks": 501,
          "midi": 69,
          "name": "A4",
          "ticks": 1496576,
          "time": 671.6655574999999,
          "velocity": 0.8661417322834646
        },
        {
          "duration": 0.45456320019525265,
          "durationTicks": 853,
          "midi": 71,
          "name": "B4",
          "ticks": 1497088,
          "time": 671.9384019999999,
          "velocity": 0.8661417322834646
        },
        {
          "duration": 0.2669826064452536,
          "durationTicks": 501,
          "midi": 74,
          "name": "D5",
          "ticks": 1498112,
          "time": 672.4840909999999,
          "velocity": 0.8661417322834646
        },
        {
          "duration": 0.2669826064453673,
          "durationTicks": 501,
          "midi": 72,
          "name": "C5",
          "ticks": 1498624,
          "time": 672.7569354999998,
          "velocity": 0.8661417322834646
        },
        {
          "duration": 0.9549557500000674,
          "durationTicks": 1792,
          "midi": 67,
          "name": "G4",
          "ticks": 1499136,
          "time": 673.0297799999998,
          "velocity": 0.8661417322834646
        },
        {
          "duration": 0.45456320019525265,
          "durationTicks": 853,
          "midi": 72,
          "name": "C5",
          "ticks": 1501184,
          "time": 674.1211579999999,
          "velocity": 0.8661417322834646
        },
        {
          "duration": 0.2669826064453673,
          "durationTicks": 501,
          "midi": 72,
          "name": "C5",
          "ticks": 1502208,
          "time": 674.6668469999998,
          "velocity": 0.8661417322834646
        },
        {
          "duration": 0.2669826064453673,
          "durationTicks": 501,
          "midi": 74,
          "name": "D5",
          "ticks": 1502720,
          "time": 674.9396914999999,
          "velocity": 0.8661417322834646
        },
        {
          "duration": 0.45456320019525265,
          "durationTicks": 853,
          "midi": 77,
          "name": "F5",
          "ticks": 1503232,
          "time": 675.2125359999999,
          "velocity": 0.8661417322834646
        },
        {
          "duration": 0.45456320019525265,
          "durationTicks": 853,
          "midi": 76,
          "name": "E5",
          "ticks": 1504256,
          "time": 675.7582249999999,
          "velocity": 0.8661417322834646
        },
        {
          "duration": 0.45456320019536633,
          "durationTicks": 853,
          "midi": 71,
          "name": "B4",
          "ticks": 1505280,
          "time": 676.3039139999998,
          "velocity": 0.8661417322834646
        },
        {
          "duration": 0.2669826064452536,
          "durationTicks": 501,
          "midi": 72,
          "name": "C5",
          "ticks": 1506816,
          "time": 677.1224474999999,
          "velocity": 0.8661417322834646
        },
        {
          "duration": 0.9549557499999537,
          "durationTicks": 1792,
          "midi": 72,
          "name": "C5",
          "ticks": 1507328,
          "time": 677.3952919999999,
          "velocity": 0.8661417322834646
        },
        {
          "duration": 0.45456320019536633,
          "durationTicks": 853,
          "midi": 72,
          "name": "C5",
          "ticks": 1511424,
          "time": 679.5780479999999,
          "velocity": 0.8661417322834646
        },
        {
          "duration": 0.2669826064452536,
          "durationTicks": 501,
          "midi": 74,
          "name": "D5",
          "ticks": 1512960,
          "time": 680.3965814999999,
          "velocity": 0.8661417322834646
        },
        {
          "duration": 0.45456320019536633,
          "durationTicks": 853,
          "midi": 76,
          "name": "E5",
          "ticks": 1514496,
          "time": 681.2151149999999,
          "velocity": 0.8661417322834646
        },
        {
          "duration": 0.45456320019525265,
          "durationTicks": 853,
          "midi": 71,
          "name": "B4",
          "ticks": 1515520,
          "time": 681.7608039999999,
          "velocity": 0.8661417322834646
        },
        {
          "duration": 0.2669826064453673,
          "durationTicks": 501,
          "midi": 67,
          "name": "G4",
          "ticks": 1517056,
          "time": 682.5793374999998,
          "velocity": 0.8661417322834646
        },
        {
          "duration": 0.45456320019525265,
          "durationTicks": 853,
          "midi": 64,
          "name": "E4",
          "ticks": 1518592,
          "time": 683.3978709999999,
          "velocity": 0.8661417322834646
        },
        {
          "duration": 0.45456320019525265,
          "durationTicks": 853,
          "midi": 69,
          "name": "A4",
          "ticks": 1519616,
          "time": 683.9435599999999,
          "velocity": 0.8661417322834646
        },
        {
          "duration": 0.2669826064453673,
          "durationTicks": 501,
          "midi": 71,
          "name": "B4",
          "ticks": 1521152,
          "time": 684.7620934999999,
          "velocity": 0.8661417322834646
        },
        {
          "duration": 0.45456320019536633,
          "durationTicks": 853,
          "midi": 72,
          "name": "C5",
          "ticks": 1522688,
          "time": 685.5806269999998,
          "velocity": 0.8661417322834646
        },
        {
          "duration": 0.45456320019536633,
          "durationTicks": 853,
          "midi": 67,
          "name": "G4",
          "ticks": 1523712,
          "time": 686.1263159999999,
          "velocity": 0.8661417322834646
        },
        {
          "duration": 0.45456320019525265,
          "durationTicks": 853,
          "midi": 65,
          "name": "F4",
          "ticks": 1527808,
          "time": 688.3090719999999,
          "velocity": 0.8661417322834646
        },
        {
          "duration": 0.2669826064453673,
          "durationTicks": 501,
          "midi": 67,
          "name": "G4",
          "ticks": 1529344,
          "time": 689.1276054999998,
          "velocity": 0.8661417322834646
        },
        {
          "duration": 0.45456320019525265,
          "durationTicks": 853,
          "midi": 69,
          "name": "A4",
          "ticks": 1530880,
          "time": 689.9461389999999,
          "velocity": 0.8661417322834646
        },
        {
          "duration": 0.45456320019536633,
          "durationTicks": 853,
          "midi": 67,
          "name": "G4",
          "ticks": 1531904,
          "time": 690.4918279999998,
          "velocity": 0.8661417322834646
        },
        {
          "duration": 0.2669826064452536,
          "durationTicks": 501,
          "midi": 71,
          "name": "B4",
          "ticks": 1533440,
          "time": 691.3103614999999,
          "velocity": 0.8661417322834646
        },
        {
          "duration": 0.45456320019536633,
          "durationTicks": 853,
          "midi": 72,
          "name": "C5",
          "ticks": 1534976,
          "time": 692.1288949999998,
          "velocity": 0.8661417322834646
        },
        {
          "duration": 0.45456320019536633,
          "durationTicks": 853,
          "midi": 69,
          "name": "A4",
          "ticks": 1536000,
          "time": 692.6745839999999,
          "velocity": 0.8661417322834646
        },
        {
          "duration": 0.45456320019536633,
          "durationTicks": 853,
          "midi": 72,
          "name": "C5",
          "ticks": 1539072,
          "time": 694.3116509999999,
          "velocity": 0.8661417322834646
        },
        {
          "duration": 0.45456320019525265,
          "durationTicks": 853,
          "midi": 74,
          "name": "D5",
          "ticks": 1540096,
          "time": 694.8573399999999,
          "velocity": 0.8661417322834646
        },
        {
          "duration": 0.2669826064453673,
          "durationTicks": 501,
          "midi": 72,
          "name": "C5",
          "ticks": 1544192,
          "time": 697.0400959999998,
          "velocity": 0.8661417322834646
        },
        {
          "duration": 0.2669826064453673,
          "durationTicks": 501,
          "midi": 76,
          "name": "E5",
          "ticks": 1544192,
          "time": 697.0400959999998,
          "velocity": 0.8661417322834646
        },
        {
          "duration": 0.2669826064453673,
          "durationTicks": 501,
          "midi": 71,
          "name": "B4",
          "ticks": 1544704,
          "time": 697.3129404999999,
          "velocity": 0.8661417322834646
        },
        {
          "duration": 0.2669826064453673,
          "durationTicks": 501,
          "midi": 74,
          "name": "D5",
          "ticks": 1544704,
          "time": 697.3129404999999,
          "velocity": 0.8661417322834646
        },
        {
          "duration": 0.2669826064453673,
          "durationTicks": 501,
          "midi": 72,
          "name": "C5",
          "ticks": 1545216,
          "time": 697.5857849999999,
          "velocity": 0.8661417322834646
        },
        {
          "duration": 0.2669826064453673,
          "durationTicks": 501,
          "midi": 76,
          "name": "E5",
          "ticks": 1545216,
          "time": 697.5857849999999,
          "velocity": 0.8661417322834646
        },
        {
          "duration": 0.2669826064452536,
          "durationTicks": 501,
          "midi": 74,
          "name": "D5",
          "ticks": 1545728,
          "time": 697.8586294999999,
          "velocity": 0.8661417322834646
        },
        {
          "duration": 0.2669826064452536,
          "durationTicks": 501,
          "midi": 77,
          "name": "F5",
          "ticks": 1545728,
          "time": 697.8586294999999,
          "velocity": 0.8661417322834646
        },
        {
          "duration": 0.45456320019525265,
          "durationTicks": 853,
          "midi": 76,
          "name": "E5",
          "ticks": 1546240,
          "time": 698.1314739999999,
          "velocity": 0.8661417322834646
        },
        {
          "duration": 0.45456320019525265,
          "durationTicks": 853,
          "midi": 79,
          "name": "G5",
          "ticks": 1546240,
          "time": 698.1314739999999,
          "velocity": 0.8661417322834646
        },
        {
          "duration": 0.2669826064453673,
          "durationTicks": 501,
          "midi": 72,
          "name": "C5",
          "ticks": 1547264,
          "time": 698.6771629999998,
          "velocity": 0.8661417322834646
        },
        {
          "duration": 0.2669826064453673,
          "durationTicks": 501,
          "midi": 76,
          "name": "E5",
          "ticks": 1547264,
          "time": 698.6771629999998,
          "velocity": 0.8661417322834646
        },
        {
          "duration": 0.2669826064453673,
          "durationTicks": 501,
          "midi": 71,
          "name": "B4",
          "ticks": 1547776,
          "time": 698.9500074999999,
          "velocity": 0.8661417322834646
        },
        {
          "duration": 0.2669826064453673,
          "durationTicks": 501,
          "midi": 74,
          "name": "D5",
          "ticks": 1547776,
          "time": 698.9500074999999,
          "velocity": 0.8661417322834646
        },
        {
          "duration": 0.7274077001952719,
          "durationTicks": 1365,
          "midi": 71,
          "name": "B4",
          "ticks": 1548288,
          "time": 699.2228519999999,
          "velocity": 0.8661417322834646
        },
        {
          "duration": 0.7274077001952719,
          "durationTicks": 1365,
          "midi": 74,
          "name": "D5",
          "ticks": 1548288,
          "time": 699.2228519999999,
          "velocity": 0.8661417322834646
        },
        {
          "duration": 0.2669826064452536,
          "durationTicks": 501,
          "midi": 67,
          "name": "G4",
          "ticks": 1549824,
          "time": 700.0413854999999,
          "velocity": 0.8661417322834646
        },
        {
          "duration": 0.2669826064452536,
          "durationTicks": 501,
          "midi": 72,
          "name": "C5",
          "ticks": 1549824,
          "time": 700.0413854999999,
          "velocity": 0.8661417322834646
        },
        {
          "duration": 0.45456320019536633,
          "durationTicks": 853,
          "midi": 67,
          "name": "G4",
          "ticks": 1550336,
          "time": 700.3142299999998,
          "velocity": 0.8661417322834646
        },
        {
          "duration": 0.45456320019536633,
          "durationTicks": 853,
          "midi": 72,
          "name": "C5",
          "ticks": 1550336,
          "time": 700.3142299999998,
          "velocity": 0.8661417322834646
        },
        {
          "duration": 0.2669826064453673,
          "durationTicks": 501,
          "midi": 72,
          "name": "C5",
          "ticks": 1551360,
          "time": 700.8599189999999,
          "velocity": 0.8661417322834646
        },
        {
          "duration": 0.2669826064453673,
          "durationTicks": 501,
          "midi": 76,
          "name": "E5",
          "ticks": 1551360,
          "time": 700.8599189999999,
          "velocity": 0.8661417322834646
        },
        {
          "duration": 0.2669826064452536,
          "durationTicks": 501,
          "midi": 76,
          "name": "E5",
          "ticks": 1551872,
          "time": 701.1327634999999,
          "velocity": 0.8661417322834646
        },
        {
          "duration": 0.2669826064452536,
          "durationTicks": 501,
          "midi": 79,
          "name": "G5",
          "ticks": 1551872,
          "time": 701.1327634999999,
          "velocity": 0.8661417322834646
        },
        {
          "duration": 0.2669826064452536,
          "durationTicks": 501,
          "midi": 77,
          "name": "F5",
          "ticks": 1552384,
          "time": 701.4056079999999,
          "velocity": 0.8661417322834646
        },
        {
          "duration": 0.2669826064452536,
          "durationTicks": 501,
          "midi": 81,
          "name": "A5",
          "ticks": 1552384,
          "time": 701.4056079999999,
          "velocity": 0.8661417322834646
        },
        {
          "duration": 0.2669826064453673,
          "durationTicks": 501,
          "midi": 76,
          "name": "E5",
          "ticks": 1552896,
          "time": 701.6784524999998,
          "velocity": 0.8661417322834646
        },
        {
          "duration": 0.2669826064453673,
          "durationTicks": 501,
          "midi": 79,
          "name": "G5",
          "ticks": 1552896,
          "time": 701.6784524999998,
          "velocity": 0.8661417322834646
        },
        {
          "duration": 0.2669826064453673,
          "durationTicks": 501,
          "midi": 77,
          "name": "F5",
          "ticks": 1553408,
          "time": 701.9512969999998,
          "velocity": 0.8661417322834646
        },
        {
          "duration": 0.2669826064453673,
          "durationTicks": 501,
          "midi": 81,
          "name": "A5",
          "ticks": 1553408,
          "time": 701.9512969999998,
          "velocity": 0.8661417322834646
        },
        {
          "duration": 0.2669826064453673,
          "durationTicks": 501,
          "midi": 77,
          "name": "F5",
          "ticks": 1553920,
          "time": 702.2241414999999,
          "velocity": 0.8661417322834646
        },
        {
          "duration": 0.2669826064453673,
          "durationTicks": 501,
          "midi": 83,
          "name": "B5",
          "ticks": 1553920,
          "time": 702.2241414999999,
          "velocity": 0.8661417322834646
        },
        {
          "duration": 0.45456320019525265,
          "durationTicks": 853,
          "midi": 76,
          "name": "E5",
          "ticks": 1554432,
          "time": 702.4969859999999,
          "velocity": 0.8661417322834646
        },
        {
          "duration": 0.45456320019525265,
          "durationTicks": 853,
          "midi": 84,
          "name": "C6",
          "ticks": 1554432,
          "time": 702.4969859999999,
          "velocity": 0.8661417322834646
        },
        {
          "duration": 0.2669826064452536,
          "durationTicks": 501,
          "midi": 76,
          "name": "E5",
          "ticks": 1555456,
          "time": 703.0426749999999,
          "velocity": 0.8661417322834646
        },
        {
          "duration": 0.2669826064452536,
          "durationTicks": 501,
          "midi": 79,
          "name": "G5",
          "ticks": 1555456,
          "time": 703.0426749999999,
          "velocity": 0.8661417322834646
        },
        {
          "duration": 0.2669826064452536,
          "durationTicks": 501,
          "midi": 74,
          "name": "D5",
          "ticks": 1555968,
          "time": 703.3155194999999,
          "velocity": 0.8661417322834646
        },
        {
          "duration": 0.2669826064452536,
          "durationTicks": 501,
          "midi": 77,
          "name": "F5",
          "ticks": 1555968,
          "time": 703.3155194999999,
          "velocity": 0.8661417322834646
        },
        {
          "duration": 0.45456320019536633,
          "durationTicks": 853,
          "midi": 72,
          "name": "C5",
          "ticks": 1556480,
          "time": 703.5883639999998,
          "velocity": 0.8661417322834646
        },
        {
          "duration": 0.45456320019536633,
          "durationTicks": 853,
          "midi": 76,
          "name": "E5",
          "ticks": 1556480,
          "time": 703.5883639999998,
          "velocity": 0.8661417322834646
        },
        {
          "duration": 0.2669826064453673,
          "durationTicks": 501,
          "midi": 72,
          "name": "C5",
          "ticks": 1557504,
          "time": 704.1340529999999,
          "velocity": 0.8661417322834646
        },
        {
          "duration": 0.2669826064453673,
          "durationTicks": 501,
          "midi": 76,
          "name": "E5",
          "ticks": 1557504,
          "time": 704.1340529999999,
          "velocity": 0.8661417322834646
        },
        {
          "duration": 0.2669826064452536,
          "durationTicks": 501,
          "midi": 74,
          "name": "D5",
          "ticks": 1558016,
          "time": 704.4068974999999,
          "velocity": 0.8661417322834646
        },
        {
          "duration": 0.2669826064452536,
          "durationTicks": 501,
          "midi": 77,
          "name": "F5",
          "ticks": 1558016,
          "time": 704.4068974999999,
          "velocity": 0.8661417322834646
        },
        {
          "duration": 0.9549557499999537,
          "durationTicks": 1792,
          "midi": 71,
          "name": "B4",
          "ticks": 1558528,
          "time": 704.6797419999999,
          "velocity": 0.8661417322834646
        },
        {
          "duration": 0.9549557499999537,
          "durationTicks": 1792,
          "midi": 74,
          "name": "D5",
          "ticks": 1558528,
          "time": 704.6797419999999,
          "velocity": 0.8661417322834646
        },
        {
          "duration": 0.2669826064452536,
          "durationTicks": 501,
          "midi": 72,
          "name": "C5",
          "ticks": 1560576,
          "time": 705.7711199999999,
          "velocity": 0.8661417322834646
        },
        {
          "duration": 0.2669826064452536,
          "durationTicks": 501,
          "midi": 76,
          "name": "E5",
          "ticks": 1560576,
          "time": 705.7711199999999,
          "velocity": 0.8661417322834646
        },
        {
          "duration": 0.2669826064452536,
          "durationTicks": 501,
          "midi": 71,
          "name": "B4",
          "ticks": 1561088,
          "time": 706.0439644999999,
          "velocity": 0.8661417322834646
        },
        {
          "duration": 0.2669826064452536,
          "durationTicks": 501,
          "midi": 74,
          "name": "D5",
          "ticks": 1561088,
          "time": 706.0439644999999,
          "velocity": 0.8661417322834646
        },
        {
          "duration": 0.2669826064452536,
          "durationTicks": 501,
          "midi": 72,
          "name": "C5",
          "ticks": 1561600,
          "time": 706.3168089999999,
          "velocity": 0.8661417322834646
        },
        {
          "duration": 0.2669826064452536,
          "durationTicks": 501,
          "midi": 76,
          "name": "E5",
          "ticks": 1561600,
          "time": 706.3168089999999,
          "velocity": 0.8661417322834646
        },
        {
          "duration": 0.2669826064453673,
          "durationTicks": 501,
          "midi": 74,
          "name": "D5",
          "ticks": 1562112,
          "time": 706.5896534999998,
          "velocity": 0.8661417322834646
        },
        {
          "duration": 0.2669826064453673,
          "durationTicks": 501,
          "midi": 77,
          "name": "F5",
          "ticks": 1562112,
          "time": 706.5896534999998,
          "velocity": 0.8661417322834646
        },
        {
          "duration": 0.45456320019536633,
          "durationTicks": 853,
          "midi": 76,
          "name": "E5",
          "ticks": 1562624,
          "time": 706.8624979999998,
          "velocity": 0.8661417322834646
        },
        {
          "duration": 0.45456320019536633,
          "durationTicks": 853,
          "midi": 79,
          "name": "G5",
          "ticks": 1562624,
          "time": 706.8624979999998,
          "velocity": 0.8661417322834646
        },
        {
          "duration": 0.2669826064452536,
          "durationTicks": 501,
          "midi": 72,
          "name": "C5",
          "ticks": 1563648,
          "time": 707.4081869999999,
          "velocity": 0.8661417322834646
        },
        {
          "duration": 0.2669826064452536,
          "durationTicks": 501,
          "midi": 76,
          "name": "E5",
          "ticks": 1563648,
          "time": 707.4081869999999,
          "velocity": 0.8661417322834646
        },
        {
          "duration": 0.2669826064452536,
          "durationTicks": 501,
          "midi": 71,
          "name": "B4",
          "ticks": 1564160,
          "time": 707.6810314999999,
          "velocity": 0.8661417322834646
        },
        {
          "duration": 0.2669826064452536,
          "durationTicks": 501,
          "midi": 74,
          "name": "D5",
          "ticks": 1564160,
          "time": 707.6810314999999,
          "velocity": 0.8661417322834646
        },
        {
          "duration": 0.7274077001953856,
          "durationTicks": 1365,
          "midi": 71,
          "name": "B4",
          "ticks": 1564672,
          "time": 707.9538759999998,
          "velocity": 0.8661417322834646
        },
        {
          "duration": 0.7274077001953856,
          "durationTicks": 1365,
          "midi": 74,
          "name": "D5",
          "ticks": 1564672,
          "time": 707.9538759999998,
          "velocity": 0.8661417322834646
        },
        {
          "duration": 0.2669826064453673,
          "durationTicks": 501,
          "midi": 67,
          "name": "G4",
          "ticks": 1566208,
          "time": 708.7724094999999,
          "velocity": 0.8661417322834646
        },
        {
          "duration": 0.2669826064453673,
          "durationTicks": 501,
          "midi": 72,
          "name": "C5",
          "ticks": 1566208,
          "time": 708.7724094999999,
          "velocity": 0.8661417322834646
        },
        {
          "duration": 0.45456320019525265,
          "durationTicks": 853,
          "midi": 67,
          "name": "G4",
          "ticks": 1566720,
          "time": 709.0452539999999,
          "velocity": 0.8661417322834646
        },
        {
          "duration": 0.45456320019525265,
          "durationTicks": 853,
          "midi": 72,
          "name": "C5",
          "ticks": 1566720,
          "time": 709.0452539999999,
          "velocity": 0.8661417322834646
        },
        {
          "duration": 0.2669826064452536,
          "durationTicks": 501,
          "midi": 72,
          "name": "C5",
          "ticks": 1567744,
          "time": 709.5909429999999,
          "velocity": 0.8661417322834646
        },
        {
          "duration": 0.2669826064452536,
          "durationTicks": 501,
          "midi": 76,
          "name": "E5",
          "ticks": 1567744,
          "time": 709.5909429999999,
          "velocity": 0.8661417322834646
        },
        {
          "duration": 0.2669826064453673,
          "durationTicks": 501,
          "midi": 76,
          "name": "E5",
          "ticks": 1568256,
          "time": 709.8637874999998,
          "velocity": 0.8661417322834646
        },
        {
          "duration": 0.2669826064453673,
          "durationTicks": 501,
          "midi": 79,
          "name": "G5",
          "ticks": 1568256,
          "time": 709.8637874999998,
          "velocity": 0.8661417322834646
        },
        {
          "duration": 0.2669826064453673,
          "durationTicks": 501,
          "midi": 77,
          "name": "F5",
          "ticks": 1568768,
          "time": 710.1366319999998,
          "velocity": 0.8661417322834646
        },
        {
          "duration": 0.2669826064453673,
          "durationTicks": 501,
          "midi": 81,
          "name": "A5",
          "ticks": 1568768,
          "time": 710.1366319999998,
          "velocity": 0.8661417322834646
        },
        {
          "duration": 0.2669826064453673,
          "durationTicks": 501,
          "midi": 76,
          "name": "E5",
          "ticks": 1569280,
          "time": 710.4094764999999,
          "velocity": 0.8661417322834646
        },
        {
          "duration": 0.2669826064453673,
          "durationTicks": 501,
          "midi": 79,
          "name": "G5",
          "ticks": 1569280,
          "time": 710.4094764999999,
          "velocity": 0.8661417322834646
        },
        {
          "duration": 0.2669826064452536,
          "durationTicks": 501,
          "midi": 77,
          "name": "F5",
          "ticks": 1569792,
          "time": 710.6823209999999,
          "velocity": 0.8661417322834646
        },
        {
          "duration": 0.2669826064452536,
          "durationTicks": 501,
          "midi": 81,
          "name": "A5",
          "ticks": 1569792,
          "time": 710.6823209999999,
          "velocity": 0.8661417322834646
        },
        {
          "duration": 0.2669826064452536,
          "durationTicks": 501,
          "midi": 77,
          "name": "F5",
          "ticks": 1570304,
          "time": 710.9551654999999,
          "velocity": 0.8661417322834646
        },
        {
          "duration": 0.2669826064452536,
          "durationTicks": 501,
          "midi": 83,
          "name": "B5",
          "ticks": 1570304,
          "time": 710.9551654999999,
          "velocity": 0.8661417322834646
        },
        {
          "duration": 0.45456320019536633,
          "durationTicks": 853,
          "midi": 76,
          "name": "E5",
          "ticks": 1570816,
          "time": 711.2280099999998,
          "velocity": 0.8661417322834646
        },
        {
          "duration": 0.45456320019536633,
          "durationTicks": 853,
          "midi": 84,
          "name": "C6",
          "ticks": 1570816,
          "time": 711.2280099999998,
          "velocity": 0.8661417322834646
        },
        {
          "duration": 0.2669826064453673,
          "durationTicks": 501,
          "midi": 76,
          "name": "E5",
          "ticks": 1571840,
          "time": 711.7736989999999,
          "velocity": 0.8661417322834646
        },
        {
          "duration": 0.2669826064453673,
          "durationTicks": 501,
          "midi": 79,
          "name": "G5",
          "ticks": 1571840,
          "time": 711.7736989999999,
          "velocity": 0.8661417322834646
        },
        {
          "duration": 0.2669826064452536,
          "durationTicks": 501,
          "midi": 74,
          "name": "D5",
          "ticks": 1572352,
          "time": 712.0465434999999,
          "velocity": 0.8661417322834646
        },
        {
          "duration": 0.2669826064452536,
          "durationTicks": 501,
          "midi": 77,
          "name": "F5",
          "ticks": 1572352,
          "time": 712.0465434999999,
          "velocity": 0.8661417322834646
        },
        {
          "duration": 0.2669826064452536,
          "durationTicks": 501,
          "midi": 72,
          "name": "C5",
          "ticks": 1572864,
          "time": 712.3193879999999,
          "velocity": 0.8661417322834646
        },
        {
          "duration": 0.2669826064452536,
          "durationTicks": 501,
          "midi": 77,
          "name": "F5",
          "ticks": 1572864,
          "time": 712.3193879999999,
          "velocity": 0.8661417322834646
        },
        {
          "duration": 0.2669826064452536,
          "durationTicks": 501,
          "midi": 72,
          "name": "C5",
          "ticks": 1573376,
          "time": 712.5922324999999,
          "velocity": 0.8661417322834646
        },
        {
          "duration": 0.2669826064452536,
          "durationTicks": 501,
          "midi": 76,
          "name": "E5",
          "ticks": 1573376,
          "time": 712.5922324999999,
          "velocity": 0.8661417322834646
        },
        {
          "duration": 0.2669826064452536,
          "durationTicks": 501,
          "midi": 71,
          "name": "B4",
          "ticks": 1573888,
          "time": 712.8650769999999,
          "velocity": 0.8661417322834646
        },
        {
          "duration": 0.2669826064452536,
          "durationTicks": 501,
          "midi": 74,
          "name": "D5",
          "ticks": 1573888,
          "time": 712.8650769999999,
          "velocity": 0.8661417322834646
        },
        {
          "duration": 0.2669826064453673,
          "durationTicks": 501,
          "midi": 67,
          "name": "G4",
          "ticks": 1574400,
          "time": 713.1379214999998,
          "velocity": 0.8661417322834646
        },
        {
          "duration": 0.2669826064453673,
          "durationTicks": 501,
          "midi": 72,
          "name": "C5",
          "ticks": 1574400,
          "time": 713.1379214999998,
          "velocity": 0.8661417322834646
        },
        {
          "duration": 0.45456320019536633,
          "durationTicks": 853,
          "midi": 74,
          "name": "D5",
          "ticks": 1574912,
          "time": 713.4107659999999,
          "velocity": 0.8661417322834646
        },
        {
          "duration": 0.45456320019536633,
          "durationTicks": 853,
          "midi": 79,
          "name": "G5",
          "ticks": 1574912,
          "time": 713.4107659999999,
          "velocity": 0.8661417322834646
        },
        {
          "duration": 0.45456320019525265,
          "durationTicks": 853,
          "midi": 62,
          "name": "D4",
          "ticks": 1575936,
          "time": 713.9564549999999,
          "velocity": 0.8661417322834646
        },
        {
          "duration": 0.45456320019525265,
          "durationTicks": 853,
          "midi": 67,
          "name": "G4",
          "ticks": 1575936,
          "time": 713.9564549999999,
          "velocity": 0.8661417322834646
        },
        {
          "duration": 0.7274077001953856,
          "durationTicks": 1365,
          "midi": 76,
          "name": "E5",
          "ticks": 1576960,
          "time": 714.5021439999998,
          "velocity": 0.8661417322834646
        },
        {
          "duration": 0.2669826064452536,
          "durationTicks": 501,
          "midi": 76,
          "name": "E5",
          "ticks": 1578496,
          "time": 715.3206774999999,
          "velocity": 0.8661417322834646
        },
        {
          "duration": 0.2669826064452536,
          "durationTicks": 501,
          "midi": 77,
          "name": "F5",
          "ticks": 1579008,
          "time": 715.5935219999999,
          "velocity": 0.8661417322834646
        },
        {
          "duration": 0.2669826064452536,
          "durationTicks": 501,
          "midi": 76,
          "name": "E5",
          "ticks": 1579520,
          "time": 715.8663664999999,
          "velocity": 0.8661417322834646
        },
        {
          "duration": 0.2669826064452536,
          "durationTicks": 501,
          "midi": 77,
          "name": "F5",
          "ticks": 1580032,
          "time": 716.1392109999999,
          "velocity": 0.8661417322834646
        },
        {
          "duration": 0.2669826064453673,
          "durationTicks": 501,
          "midi": 79,
          "name": "G5",
          "ticks": 1580544,
          "time": 716.4120554999998,
          "velocity": 0.8661417322834646
        },
        {
          "duration": 0.9549557500000674,
          "durationTicks": 1792,
          "midi": 76,
          "name": "E5",
          "ticks": 1581056,
          "time": 716.6848999999999,
          "velocity": 0.8661417322834646
        },
        {
          "duration": 0.45456320019536633,
          "durationTicks": 853,
          "midi": 72,
          "name": "C5",
          "ticks": 1583104,
          "time": 717.7762779999998,
          "velocity": 0.8661417322834646
        },
        {
          "duration": 0.2669826064453673,
          "durationTicks": 501,
          "midi": 76,
          "name": "E5",
          "ticks": 1584128,
          "time": 718.3219669999999,
          "velocity": 0.8661417322834646
        },
        {
          "duration": 0.2669826064452536,
          "durationTicks": 501,
          "midi": 79,
          "name": "G5",
          "ticks": 1584640,
          "time": 718.5948114999999,
          "velocity": 0.8661417322834646
        },
        {
          "duration": 0.45456320019525265,
          "durationTicks": 853,
          "midi": 81,
          "name": "A5",
          "ticks": 1585152,
          "time": 718.8676559999999,
          "velocity": 0.8661417322834646
        },
        {
          "duration": 0.2669826064452536,
          "durationTicks": 501,
          "midi": 81,
          "name": "A5",
          "ticks": 1586176,
          "time": 719.4133449999999,
          "velocity": 0.8661417322834646
        },
        {
          "duration": 0.2669826064453673,
          "durationTicks": 501,
          "midi": 81,
          "name": "A5",
          "ticks": 1586688,
          "time": 719.6861894999998,
          "velocity": 0.8661417322834646
        },
        {
          "duration": 0.45456320019536633,
          "durationTicks": 853,
          "midi": 83,
          "name": "B5",
          "ticks": 1587200,
          "time": 719.9590339999999,
          "velocity": 0.8661417322834646
        },
        {
          "duration": 0.2669826064452536,
          "durationTicks": 501,
          "midi": 86,
          "name": "D6",
          "ticks": 1588224,
          "time": 720.5047229999999,
          "velocity": 0.8661417322834646
        },
        {
          "duration": 0.2669826064452536,
          "durationTicks": 501,
          "midi": 84,
          "name": "C6",
          "ticks": 1588736,
          "time": 720.7775674999999,
          "velocity": 0.8661417322834646
        },
        {
          "duration": 1.5006447499999922,
          "durationTicks": 2816,
          "midi": 79,
          "name": "G5",
          "ticks": 1589248,
          "time": 721.0504119999998,
          "velocity": 0.8661417322834646
        },
        {
          "duration": 0.7274077001952719,
          "durationTicks": 1365,
          "midi": 81,
          "name": "A5",
          "ticks": 1593344,
          "time": 723.2331679999999,
          "velocity": 0.8661417322834646
        },
        {
          "duration": 0.2669826064453673,
          "durationTicks": 501,
          "midi": 81,
          "name": "A5",
          "ticks": 1594880,
          "time": 724.0517014999998,
          "velocity": 0.8661417322834646
        },
        {
          "duration": 0.45456320019536633,
          "durationTicks": 853,
          "midi": 83,
          "name": "B5",
          "ticks": 1595392,
          "time": 724.3245459999998,
          "velocity": 0.8661417322834646
        },
        {
          "duration": 0.2669826064453673,
          "durationTicks": 501,
          "midi": 86,
          "name": "D6",
          "ticks": 1596416,
          "time": 724.8702349999999,
          "velocity": 0.8661417322834646
        },
        {
          "duration": 0.2669826064452536,
          "durationTicks": 501,
          "midi": 84,
          "name": "C6",
          "ticks": 1596928,
          "time": 725.1430794999999,
          "velocity": 0.8661417322834646
        },
        {
          "duration": 0.9549557499999537,
          "durationTicks": 1792,
          "midi": 79,
          "name": "G5",
          "ticks": 1597440,
          "time": 725.4159239999999,
          "velocity": 0.8661417322834646
        },
        {
          "duration": 0.45456320019536633,
          "durationTicks": 853,
          "midi": 84,
          "name": "C6",
          "ticks": 1599488,
          "time": 726.5073019999999,
          "velocity": 0.8661417322834646
        },
        {
          "duration": 0.2669826064452536,
          "durationTicks": 501,
          "midi": 72,
          "name": "C5",
          "ticks": 1600512,
          "time": 727.0529909999999,
          "velocity": 0.8661417322834646
        },
        {
          "duration": 0.2669826064453673,
          "durationTicks": 501,
          "midi": 74,
          "name": "D5",
          "ticks": 1601024,
          "time": 727.3258354999998,
          "velocity": 0.8661417322834646
        },
        {
          "duration": 0.7274077001953856,
          "durationTicks": 1365,
          "midi": 77,
          "name": "F5",
          "ticks": 1601536,
          "time": 727.5986799999998,
          "velocity": 0.8661417322834646
        },
        {
          "duration": 0.3351937314453153,
          "durationTicks": 629,
          "midi": 79,
          "name": "G5",
          "ticks": 1603072,
          "time": 728.4172134999999,
          "velocity": 0.8661417322834646
        },
        {
          "duration": 0.2669826064453673,
          "durationTicks": 501,
          "midi": 77,
          "name": "F5",
          "ticks": 1603712,
          "time": 728.7582691249999,
          "velocity": 0.8661417322834646
        },
        {
          "duration": 0.19877148144530565,
          "durationTicks": 373,
          "midi": 76,
          "name": "E5",
          "ticks": 1604224,
          "time": 729.0311136249999,
          "velocity": 0.8661417322834646
        },
        {
          "duration": 0.2669826064453673,
          "durationTicks": 501,
          "midi": 74,
          "name": "D5",
          "ticks": 1604608,
          "time": 729.2357469999998,
          "velocity": 0.8661417322834646
        },
        {
          "duration": 0.2669826064453673,
          "durationTicks": 501,
          "midi": 72,
          "name": "C5",
          "ticks": 1605120,
          "time": 729.5085914999999,
          "velocity": 0.8661417322834646
        },
        {
          "duration": 2.0463337500000307,
          "durationTicks": 3840,
          "midi": 79,
          "name": "G5",
          "ticks": 1605632,
          "time": 729.7814359999999,
          "velocity": 0.8661417322834646
        },
        {
          "duration": 0.7274077001952719,
          "durationTicks": 1365,
          "midi": 64,
          "name": "E4",
          "ticks": 1609728,
          "time": 731.9641919999999,
          "velocity": 0.8661417322834646
        },
        {
          "duration": 0.2669826064453673,
          "durationTicks": 501,
          "midi": 64,
          "name": "E4",
          "ticks": 1611264,
          "time": 732.7827254999999,
          "velocity": 0.8661417322834646
        },
        {
          "duration": 0.2669826064453673,
          "durationTicks": 501,
          "midi": 65,
          "name": "F4",
          "ticks": 1611776,
          "time": 733.0555699999999,
          "velocity": 0.8661417322834646
        },
        {
          "duration": 0.2669826064452536,
          "durationTicks": 501,
          "midi": 64,
          "name": "E4",
          "ticks": 1612288,
          "time": 733.3284144999999,
          "velocity": 0.8661417322834646
        },
        {
          "duration": 0.2669826064452536,
          "durationTicks": 501,
          "midi": 65,
          "name": "F4",
          "ticks": 1612800,
          "time": 733.6012589999999,
          "velocity": 0.8661417322834646
        },
        {
          "duration": 0.2669826064453673,
          "durationTicks": 501,
          "midi": 67,
          "name": "G4",
          "ticks": 1613312,
          "time": 733.8741034999998,
          "velocity": 0.8661417322834646
        },
        {
          "duration": 0.9549557500000674,
          "durationTicks": 1792,
          "midi": 64,
          "name": "E4",
          "ticks": 1613824,
          "time": 734.1469479999998,
          "velocity": 0.8661417322834646
        },
        {
          "duration": 0.45456320019525265,
          "durationTicks": 853,
          "midi": 60,
          "name": "C4",
          "ticks": 1615872,
          "time": 735.2383259999999,
          "velocity": 0.8661417322834646
        },
        {
          "duration": 0.2669826064453673,
          "durationTicks": 501,
          "midi": 64,
          "name": "E4",
          "ticks": 1616896,
          "time": 735.7840149999998,
          "velocity": 0.8661417322834646
        },
        {
          "duration": 0.2669826064453673,
          "durationTicks": 501,
          "midi": 67,
          "name": "G4",
          "ticks": 1617408,
          "time": 736.0568594999999,
          "velocity": 0.8661417322834646
        },
        {
          "duration": 0.45456320019536633,
          "durationTicks": 853,
          "midi": 69,
          "name": "A4",
          "ticks": 1617920,
          "time": 736.3297039999999,
          "velocity": 0.8661417322834646
        },
        {
          "duration": 0.2669826064452536,
          "durationTicks": 501,
          "midi": 69,
          "name": "A4",
          "ticks": 1618944,
          "time": 736.8753929999999,
          "velocity": 0.8661417322834646
        },
        {
          "duration": 0.2669826064453673,
          "durationTicks": 501,
          "midi": 69,
          "name": "A4",
          "ticks": 1619456,
          "time": 737.1482374999998,
          "velocity": 0.8661417322834646
        },
        {
          "duration": 0.45456320019536633,
          "durationTicks": 853,
          "midi": 71,
          "name": "B4",
          "ticks": 1619968,
          "time": 737.4210819999998,
          "velocity": 0.8661417322834646
        },
        {
          "duration": 0.2669826064452536,
          "durationTicks": 501,
          "midi": 74,
          "name": "D5",
          "ticks": 1620992,
          "time": 737.9667709999999,
          "velocity": 0.8661417322834646
        },
        {
          "duration": 0.2669826064452536,
          "durationTicks": 501,
          "midi": 72,
          "name": "C5",
          "ticks": 1621504,
          "time": 738.2396154999999,
          "velocity": 0.8661417322834646
        },
        {
          "duration": 1.5006447499999922,
          "durationTicks": 2816,
          "midi": 67,
          "name": "G4",
          "ticks": 1622016,
          "time": 738.5124599999999,
          "velocity": 0.8661417322834646
        },
        {
          "duration": 0.7274077001953856,
          "durationTicks": 1365,
          "midi": 69,
          "name": "A4",
          "ticks": 1626112,
          "time": 740.6952159999998,
          "velocity": 0.8661417322834646
        },
        {
          "duration": 0.2669826064452536,
          "durationTicks": 501,
          "midi": 69,
          "name": "A4",
          "ticks": 1627648,
          "time": 741.5137494999999,
          "velocity": 0.8661417322834646
        },
        {
          "duration": 0.45456320019525265,
          "durationTicks": 853,
          "midi": 71,
          "name": "B4",
          "ticks": 1628160,
          "time": 741.7865939999999,
          "velocity": 0.8661417322834646
        },
        {
          "duration": 0.2669826064453673,
          "durationTicks": 501,
          "midi": 74,
          "name": "D5",
          "ticks": 1629184,
          "time": 742.3322829999998,
          "velocity": 0.8661417322834646
        },
        {
          "duration": 0.2669826064453673,
          "durationTicks": 501,
          "midi": 72,
          "name": "C5",
          "ticks": 1629696,
          "time": 742.6051274999999,
          "velocity": 0.8661417322834646
        },
        {
          "duration": 0.9549557499999537,
          "durationTicks": 1792,
          "midi": 67,
          "name": "G4",
          "ticks": 1630208,
          "time": 742.8779719999999,
          "velocity": 0.8661417322834646
        },
        {
          "duration": 0.45456320019536633,
          "durationTicks": 853,
          "midi": 72,
          "name": "C5",
          "ticks": 1632256,
          "time": 743.9693499999998,
          "velocity": 0.8661417322834646
        },
        {
          "duration": 0.2669826064452536,
          "durationTicks": 501,
          "midi": 72,
          "name": "C5",
          "ticks": 1633280,
          "time": 744.5150389999999,
          "velocity": 0.8661417322834646
        },
        {
          "duration": 0.2669826064452536,
          "durationTicks": 501,
          "midi": 74,
          "name": "D5",
          "ticks": 1633792,
          "time": 744.7878834999999,
          "velocity": 0.8661417322834646
        },
        {
          "duration": 0.45456320019525265,
          "durationTicks": 853,
          "midi": 77,
          "name": "F5",
          "ticks": 1634304,
          "time": 745.0607279999999,
          "velocity": 0.8661417322834646
        },
        {
          "duration": 0.45456320019536633,
          "durationTicks": 853,
          "midi": 76,
          "name": "E5",
          "ticks": 1635328,
          "time": 745.6064169999999,
          "velocity": 0.8661417322834646
        },
        {
          "duration": 0.45456320019525265,
          "durationTicks": 853,
          "midi": 71,
          "name": "B4",
          "ticks": 1636352,
          "time": 746.1521059999999,
          "velocity": 0.8661417322834646
        },
        {
          "duration": 0.2669826064453673,
          "durationTicks": 501,
          "midi": 72,
          "name": "C5",
          "ticks": 1637888,
          "time": 746.9706394999998,
          "velocity": 0.8661417322834646
        },
        {
          "duration": 0.9549557500000674,
          "durationTicks": 1792,
          "midi": 72,
          "name": "C5",
          "ticks": 1638400,
          "time": 747.2434839999999,
          "velocity": 0.8661417322834646
        },
        {
          "duration": 0.45456320019525265,
          "durationTicks": 853,
          "midi": 72,
          "name": "C5",
          "ticks": 1642496,
          "time": 749.4262399999999,
          "velocity": 0.8661417322834646
        },
        {
          "duration": 0.2669826064453673,
          "durationTicks": 501,
          "midi": 74,
          "name": "D5",
          "ticks": 1644032,
          "time": 750.2447734999998,
          "velocity": 0.8661417322834646
        },
        {
          "duration": 0.45456320019525265,
          "durationTicks": 853,
          "midi": 76,
          "name": "E5",
          "ticks": 1645568,
          "time": 751.0633069999999,
          "velocity": 0.8661417322834646
        },
        {
          "duration": 0.45456320019525265,
          "durationTicks": 853,
          "midi": 71,
          "name": "B4",
          "ticks": 1646592,
          "time": 751.6089959999999,
          "velocity": 0.8661417322834646
        },
        {
          "duration": 0.2669826064453673,
          "durationTicks": 501,
          "midi": 67,
          "name": "G4",
          "ticks": 1648128,
          "time": 752.4275294999999,
          "velocity": 0.8661417322834646
        },
        {
          "duration": 0.45456320019536633,
          "durationTicks": 853,
          "midi": 64,
          "name": "E4",
          "ticks": 1649664,
          "time": 753.2460629999998,
          "velocity": 0.8661417322834646
        },
        {
          "duration": 0.45456320019536633,
          "durationTicks": 853,
          "midi": 69,
          "name": "A4",
          "ticks": 1650688,
          "time": 753.7917519999999,
          "velocity": 0.8661417322834646
        },
        {
          "duration": 0.2669826064452536,
          "durationTicks": 501,
          "midi": 71,
          "name": "B4",
          "ticks": 1652224,
          "time": 754.6102854999999,
          "velocity": 0.8661417322834646
        },
        {
          "duration": 0.45456320019536633,
          "durationTicks": 853,
          "midi": 72,
          "name": "C5",
          "ticks": 1653760,
          "time": 755.4288189999999,
          "velocity": 0.8661417322834646
        },
        {
          "duration": 0.45456320019525265,
          "durationTicks": 853,
          "midi": 67,
          "name": "G4",
          "ticks": 1654784,
          "time": 755.9745079999999,
          "velocity": 0.8661417322834646
        },
        {
          "duration": 0.45456320019536633,
          "durationTicks": 853,
          "midi": 65,
          "name": "F4",
          "ticks": 1658880,
          "time": 758.1572639999998,
          "velocity": 0.8661417322834646
        },
        {
          "duration": 0.2669826064452536,
          "durationTicks": 501,
          "midi": 67,
          "name": "G4",
          "ticks": 1660416,
          "time": 758.9757974999999,
          "velocity": 0.8661417322834646
        },
        {
          "duration": 0.45456320019536633,
          "durationTicks": 853,
          "midi": 69,
          "name": "A4",
          "ticks": 1661952,
          "time": 759.7943309999998,
          "velocity": 0.8661417322834646
        },
        {
          "duration": 0.45456320019525265,
          "durationTicks": 853,
          "midi": 67,
          "name": "G4",
          "ticks": 1662976,
          "time": 760.3400199999999,
          "velocity": 0.8661417322834646
        },
        {
          "duration": 0.2669826064452536,
          "durationTicks": 501,
          "midi": 71,
          "name": "B4",
          "ticks": 1664512,
          "time": 761.1585534999999,
          "velocity": 0.8661417322834646
        },
        {
          "duration": 0.45456320019536633,
          "durationTicks": 853,
          "midi": 72,
          "name": "C5",
          "ticks": 1666048,
          "time": 761.9770869999999,
          "velocity": 0.8661417322834646
        },
        {
          "duration": 0.45456320019525265,
          "durationTicks": 853,
          "midi": 69,
          "name": "A4",
          "ticks": 1667072,
          "time": 762.5227759999999,
          "velocity": 0.8661417322834646
        },
        {
          "duration": 0.45456320019525265,
          "durationTicks": 853,
          "midi": 72,
          "name": "C5",
          "ticks": 1670144,
          "time": 764.1598429999999,
          "velocity": 0.8661417322834646
        },
        {
          "duration": 0.45456320019536633,
          "durationTicks": 853,
          "midi": 74,
          "name": "D5",
          "ticks": 1671168,
          "time": 764.7055319999998,
          "velocity": 0.8661417322834646
        },
        {
          "duration": 0.2669826064452536,
          "durationTicks": 501,
          "midi": 72,
          "name": "C5",
          "ticks": 1675264,
          "time": 766.8882879999999,
          "velocity": 0.8661417322834646
        },
        {
          "duration": 0.2669826064452536,
          "durationTicks": 501,
          "midi": 76,
          "name": "E5",
          "ticks": 1675264,
          "time": 766.8882879999999,
          "velocity": 0.8661417322834646
        },
        {
          "duration": 0.2669826064452536,
          "durationTicks": 501,
          "midi": 71,
          "name": "B4",
          "ticks": 1675776,
          "time": 767.1611324999999,
          "velocity": 0.8661417322834646
        },
        {
          "duration": 0.2669826064452536,
          "durationTicks": 501,
          "midi": 74,
          "name": "D5",
          "ticks": 1675776,
          "time": 767.1611324999999,
          "velocity": 0.8661417322834646
        },
        {
          "duration": 0.2669826064452536,
          "durationTicks": 501,
          "midi": 72,
          "name": "C5",
          "ticks": 1676288,
          "time": 767.4339769999999,
          "velocity": 0.8661417322834646
        },
        {
          "duration": 0.2669826064452536,
          "durationTicks": 501,
          "midi": 76,
          "name": "E5",
          "ticks": 1676288,
          "time": 767.4339769999999,
          "velocity": 0.8661417322834646
        },
        {
          "duration": 0.2669826064452536,
          "durationTicks": 501,
          "midi": 74,
          "name": "D5",
          "ticks": 1676800,
          "time": 767.7068214999999,
          "velocity": 0.8661417322834646
        },
        {
          "duration": 0.2669826064452536,
          "durationTicks": 501,
          "midi": 77,
          "name": "F5",
          "ticks": 1676800,
          "time": 767.7068214999999,
          "velocity": 0.8661417322834646
        },
        {
          "duration": 0.45456320019536633,
          "durationTicks": 853,
          "midi": 76,
          "name": "E5",
          "ticks": 1677312,
          "time": 767.9796659999998,
          "velocity": 0.8661417322834646
        },
        {
          "duration": 0.45456320019536633,
          "durationTicks": 853,
          "midi": 79,
          "name": "G5",
          "ticks": 1677312,
          "time": 767.9796659999998,
          "velocity": 0.8661417322834646
        },
        {
          "duration": 0.2669826064453673,
          "durationTicks": 501,
          "midi": 72,
          "name": "C5",
          "ticks": 1678336,
          "time": 768.5253549999999,
          "velocity": 0.8661417322834646
        },
        {
          "duration": 0.2669826064453673,
          "durationTicks": 501,
          "midi": 76,
          "name": "E5",
          "ticks": 1678336,
          "time": 768.5253549999999,
          "velocity": 0.8661417322834646
        },
        {
          "duration": 0.2669826064452536,
          "durationTicks": 501,
          "midi": 71,
          "name": "B4",
          "ticks": 1678848,
          "time": 768.7981994999999,
          "velocity": 0.8661417322834646
        },
        {
          "duration": 0.2669826064452536,
          "durationTicks": 501,
          "midi": 74,
          "name": "D5",
          "ticks": 1678848,
          "time": 768.7981994999999,
          "velocity": 0.8661417322834646
        },
        {
          "duration": 0.7274077001953856,
          "durationTicks": 1365,
          "midi": 71,
          "name": "B4",
          "ticks": 1679360,
          "time": 769.0710439999998,
          "velocity": 0.8661417322834646
        },
        {
          "duration": 0.7274077001953856,
          "durationTicks": 1365,
          "midi": 74,
          "name": "D5",
          "ticks": 1679360,
          "time": 769.0710439999998,
          "velocity": 0.8661417322834646
        },
        {
          "duration": 0.2669826064452536,
          "durationTicks": 501,
          "midi": 67,
          "name": "G4",
          "ticks": 1680896,
          "time": 769.8895774999999,
          "velocity": 0.8661417322834646
        },
        {
          "duration": 0.2669826064452536,
          "durationTicks": 501,
          "midi": 72,
          "name": "C5",
          "ticks": 1680896,
          "time": 769.8895774999999,
          "velocity": 0.8661417322834646
        },
        {
          "duration": 0.45456320019525265,
          "durationTicks": 853,
          "midi": 67,
          "name": "G4",
          "ticks": 1681408,
          "time": 770.1624219999999,
          "velocity": 0.8661417322834646
        },
        {
          "duration": 0.45456320019525265,
          "durationTicks": 853,
          "midi": 72,
          "name": "C5",
          "ticks": 1681408,
          "time": 770.1624219999999,
          "velocity": 0.8661417322834646
        },
        {
          "duration": 0.2669826064452536,
          "durationTicks": 501,
          "midi": 72,
          "name": "C5",
          "ticks": 1682432,
          "time": 770.7081109999999,
          "velocity": 0.8661417322834646
        },
        {
          "duration": 0.2669826064452536,
          "durationTicks": 501,
          "midi": 76,
          "name": "E5",
          "ticks": 1682432,
          "time": 770.7081109999999,
          "velocity": 0.8661417322834646
        },
        {
          "duration": 0.2669826064452536,
          "durationTicks": 501,
          "midi": 76,
          "name": "E5",
          "ticks": 1682944,
          "time": 770.9809554999999,
          "velocity": 0.8661417322834646
        },
        {
          "duration": 0.2669826064452536,
          "durationTicks": 501,
          "midi": 79,
          "name": "G5",
          "ticks": 1682944,
          "time": 770.9809554999999,
          "velocity": 0.8661417322834646
        },
        {
          "duration": 0.2669826064453673,
          "durationTicks": 501,
          "midi": 77,
          "name": "F5",
          "ticks": 1683456,
          "time": 771.2537999999998,
          "velocity": 0.8661417322834646
        },
        {
          "duration": 0.2669826064453673,
          "durationTicks": 501,
          "midi": 81,
          "name": "A5",
          "ticks": 1683456,
          "time": 771.2537999999998,
          "velocity": 0.8661417322834646
        },
        {
          "duration": 0.2669826064453673,
          "durationTicks": 501,
          "midi": 76,
          "name": "E5",
          "ticks": 1683968,
          "time": 771.5266444999999,
          "velocity": 0.8661417322834646
        },
        {
          "duration": 0.2669826064453673,
          "durationTicks": 501,
          "midi": 79,
          "name": "G5",
          "ticks": 1683968,
          "time": 771.5266444999999,
          "velocity": 0.8661417322834646
        },
        {
          "duration": 0.2669826064453673,
          "durationTicks": 501,
          "midi": 77,
          "name": "F5",
          "ticks": 1684480,
          "time": 771.7994889999999,
          "velocity": 0.8661417322834646
        },
        {
          "duration": 0.2669826064453673,
          "durationTicks": 501,
          "midi": 81,
          "name": "A5",
          "ticks": 1684480,
          "time": 771.7994889999999,
          "velocity": 0.8661417322834646
        },
        {
          "duration": 0.2669826064452536,
          "durationTicks": 501,
          "midi": 77,
          "name": "F5",
          "ticks": 1684992,
          "time": 772.0723334999999,
          "velocity": 0.8661417322834646
        },
        {
          "duration": 0.2669826064452536,
          "durationTicks": 501,
          "midi": 83,
          "name": "B5",
          "ticks": 1684992,
          "time": 772.0723334999999,
          "velocity": 0.8661417322834646
        },
        {
          "duration": 0.45456320019536633,
          "durationTicks": 853,
          "midi": 76,
          "name": "E5",
          "ticks": 1685504,
          "time": 772.3451779999998,
          "velocity": 0.8661417322834646
        },
        {
          "duration": 0.45456320019536633,
          "durationTicks": 853,
          "midi": 84,
          "name": "C6",
          "ticks": 1685504,
          "time": 772.3451779999998,
          "velocity": 0.8661417322834646
        },
        {
          "duration": 0.2669826064453673,
          "durationTicks": 501,
          "midi": 76,
          "name": "E5",
          "ticks": 1686528,
          "time": 772.8908669999998,
          "velocity": 0.8661417322834646
        },
        {
          "duration": 0.2669826064453673,
          "durationTicks": 501,
          "midi": 79,
          "name": "G5",
          "ticks": 1686528,
          "time": 772.8908669999998,
          "velocity": 0.8661417322834646
        },
        {
          "duration": 0.2669826064452536,
          "durationTicks": 501,
          "midi": 74,
          "name": "D5",
          "ticks": 1687040,
          "time": 773.1637114999999,
          "velocity": 0.8661417322834646
        },
        {
          "duration": 0.2669826064452536,
          "durationTicks": 501,
          "midi": 77,
          "name": "F5",
          "ticks": 1687040,
          "time": 773.1637114999999,
          "velocity": 0.8661417322834646
        },
        {
          "duration": 0.45456320019525265,
          "durationTicks": 853,
          "midi": 72,
          "name": "C5",
          "ticks": 1687552,
          "time": 773.4365559999999,
          "velocity": 0.8661417322834646
        },
        {
          "duration": 0.45456320019525265,
          "durationTicks": 853,
          "midi": 76,
          "name": "E5",
          "ticks": 1687552,
          "time": 773.4365559999999,
          "velocity": 0.8661417322834646
        },
        {
          "duration": 0.2669826064452536,
          "durationTicks": 501,
          "midi": 72,
          "name": "C5",
          "ticks": 1688576,
          "time": 773.9822449999999,
          "velocity": 0.8661417322834646
        },
        {
          "duration": 0.2669826064452536,
          "durationTicks": 501,
          "midi": 76,
          "name": "E5",
          "ticks": 1688576,
          "time": 773.9822449999999,
          "velocity": 0.8661417322834646
        },
        {
          "duration": 0.2669826064452536,
          "durationTicks": 501,
          "midi": 74,
          "name": "D5",
          "ticks": 1689088,
          "time": 774.2550894999999,
          "velocity": 0.8661417322834646
        },
        {
          "duration": 0.2669826064452536,
          "durationTicks": 501,
          "midi": 77,
          "name": "F5",
          "ticks": 1689088,
          "time": 774.2550894999999,
          "velocity": 0.8661417322834646
        },
        {
          "duration": 0.9549557500000674,
          "durationTicks": 1792,
          "midi": 71,
          "name": "B4",
          "ticks": 1689600,
          "time": 774.5279339999998,
          "velocity": 0.8661417322834646
        },
        {
          "duration": 0.9549557500000674,
          "durationTicks": 1792,
          "midi": 74,
          "name": "D5",
          "ticks": 1689600,
          "time": 774.5279339999998,
          "velocity": 0.8661417322834646
        },
        {
          "duration": 0.2669826064453673,
          "durationTicks": 501,
          "midi": 72,
          "name": "C5",
          "ticks": 1691648,
          "time": 775.6193119999998,
          "velocity": 0.8661417322834646
        },
        {
          "duration": 0.2669826064453673,
          "durationTicks": 501,
          "midi": 76,
          "name": "E5",
          "ticks": 1691648,
          "time": 775.6193119999998,
          "velocity": 0.8661417322834646
        },
        {
          "duration": 0.2669826064453673,
          "durationTicks": 501,
          "midi": 71,
          "name": "B4",
          "ticks": 1692160,
          "time": 775.8921564999998,
          "velocity": 0.8661417322834646
        },
        {
          "duration": 0.2669826064453673,
          "durationTicks": 501,
          "midi": 74,
          "name": "D5",
          "ticks": 1692160,
          "time": 775.8921564999998,
          "velocity": 0.8661417322834646
        },
        {
          "duration": 0.2669826064453673,
          "durationTicks": 501,
          "midi": 72,
          "name": "C5",
          "ticks": 1692672,
          "time": 776.1650009999998,
          "velocity": 0.8661417322834646
        },
        {
          "duration": 0.2669826064453673,
          "durationTicks": 501,
          "midi": 76,
          "name": "E5",
          "ticks": 1692672,
          "time": 776.1650009999998,
          "velocity": 0.8661417322834646
        },
        {
          "duration": 0.2669826064452536,
          "durationTicks": 501,
          "midi": 74,
          "name": "D5",
          "ticks": 1693184,
          "time": 776.4378454999999,
          "velocity": 0.8661417322834646
        },
        {
          "duration": 0.2669826064452536,
          "durationTicks": 501,
          "midi": 77,
          "name": "F5",
          "ticks": 1693184,
          "time": 776.4378454999999,
          "velocity": 0.8661417322834646
        },
        {
          "duration": 0.45456320019525265,
          "durationTicks": 853,
          "midi": 76,
          "name": "E5",
          "ticks": 1693696,
          "time": 776.7106899999999,
          "velocity": 0.8661417322834646
        },
        {
          "duration": 0.45456320019525265,
          "durationTicks": 853,
          "midi": 79,
          "name": "G5",
          "ticks": 1693696,
          "time": 776.7106899999999,
          "velocity": 0.8661417322834646
        },
        {
          "duration": 0.2669826064452536,
          "durationTicks": 501,
          "midi": 72,
          "name": "C5",
          "ticks": 1694720,
          "time": 777.2563789999999,
          "velocity": 0.8661417322834646
        },
        {
          "duration": 0.2669826064452536,
          "durationTicks": 501,
          "midi": 76,
          "name": "E5",
          "ticks": 1694720,
          "time": 777.2563789999999,
          "velocity": 0.8661417322834646
        },
        {
          "duration": 0.2669826064453673,
          "durationTicks": 501,
          "midi": 71,
          "name": "B4",
          "ticks": 1695232,
          "time": 777.5292234999998,
          "velocity": 0.8661417322834646
        },
        {
          "duration": 0.2669826064453673,
          "durationTicks": 501,
          "midi": 74,
          "name": "D5",
          "ticks": 1695232,
          "time": 777.5292234999998,
          "velocity": 0.8661417322834646
        },
        {
          "duration": 0.7274077001953856,
          "durationTicks": 1365,
          "midi": 71,
          "name": "B4",
          "ticks": 1695744,
          "time": 777.8020679999998,
          "velocity": 0.8661417322834646
        },
        {
          "duration": 0.7274077001953856,
          "durationTicks": 1365,
          "midi": 74,
          "name": "D5",
          "ticks": 1695744,
          "time": 777.8020679999998,
          "velocity": 0.8661417322834646
        },
        {
          "duration": 0.2669826064452536,
          "durationTicks": 501,
          "midi": 67,
          "name": "G4",
          "ticks": 1697280,
          "time": 778.6206014999999,
          "velocity": 0.8661417322834646
        },
        {
          "duration": 0.2669826064452536,
          "durationTicks": 501,
          "midi": 72,
          "name": "C5",
          "ticks": 1697280,
          "time": 778.6206014999999,
          "velocity": 0.8661417322834646
        },
        {
          "duration": 0.45456320019536633,
          "durationTicks": 853,
          "midi": 67,
          "name": "G4",
          "ticks": 1697792,
          "time": 778.8934459999998,
          "velocity": 0.8661417322834646
        },
        {
          "duration": 0.45456320019536633,
          "durationTicks": 853,
          "midi": 72,
          "name": "C5",
          "ticks": 1697792,
          "time": 778.8934459999998,
          "velocity": 0.8661417322834646
        },
        {
          "duration": 0.2669826064453673,
          "durationTicks": 501,
          "midi": 72,
          "name": "C5",
          "ticks": 1698816,
          "time": 779.4391349999999,
          "velocity": 0.8661417322834646
        },
        {
          "duration": 0.2669826064453673,
          "durationTicks": 501,
          "midi": 76,
          "name": "E5",
          "ticks": 1698816,
          "time": 779.4391349999999,
          "velocity": 0.8661417322834646
        },
        {
          "duration": 0.2669826064452536,
          "durationTicks": 501,
          "midi": 76,
          "name": "E5",
          "ticks": 1699328,
          "time": 779.7119794999999,
          "velocity": 0.8661417322834646
        },
        {
          "duration": 0.2669826064452536,
          "durationTicks": 501,
          "midi": 79,
          "name": "G5",
          "ticks": 1699328,
          "time": 779.7119794999999,
          "velocity": 0.8661417322834646
        },
        {
          "duration": 0.2669826064452536,
          "durationTicks": 501,
          "midi": 77,
          "name": "F5",
          "ticks": 1699840,
          "time": 779.9848239999999,
          "velocity": 0.8661417322834646
        },
        {
          "duration": 0.2669826064452536,
          "durationTicks": 501,
          "midi": 81,
          "name": "A5",
          "ticks": 1699840,
          "time": 779.9848239999999,
          "velocity": 0.8661417322834646
        },
        {
          "duration": 0.2669826064452536,
          "durationTicks": 501,
          "midi": 76,
          "name": "E5",
          "ticks": 1700352,
          "time": 780.2576684999999,
          "velocity": 0.8661417322834646
        },
        {
          "duration": 0.2669826064452536,
          "durationTicks": 501,
          "midi": 79,
          "name": "G5",
          "ticks": 1700352,
          "time": 780.2576684999999,
          "velocity": 0.8661417322834646
        },
        {
          "duration": 0.2669826064452536,
          "durationTicks": 501,
          "midi": 77,
          "name": "F5",
          "ticks": 1700864,
          "time": 780.5305129999999,
          "velocity": 0.8661417322834646
        },
        {
          "duration": 0.2669826064452536,
          "durationTicks": 501,
          "midi": 81,
          "name": "A5",
          "ticks": 1700864,
          "time": 780.5305129999999,
          "velocity": 0.8661417322834646
        },
        {
          "duration": 0.2669826064453673,
          "durationTicks": 501,
          "midi": 77,
          "name": "F5",
          "ticks": 1701376,
          "time": 780.8033574999998,
          "velocity": 0.8661417322834646
        },
        {
          "duration": 0.2669826064453673,
          "durationTicks": 501,
          "midi": 83,
          "name": "B5",
          "ticks": 1701376,
          "time": 780.8033574999998,
          "velocity": 0.8661417322834646
        },
        {
          "duration": 0.45456320019536633,
          "durationTicks": 853,
          "midi": 76,
          "name": "E5",
          "ticks": 1701888,
          "time": 781.0762019999999,
          "velocity": 0.8661417322834646
        },
        {
          "duration": 0.45456320019536633,
          "durationTicks": 853,
          "midi": 84,
          "name": "C6",
          "ticks": 1701888,
          "time": 781.0762019999999,
          "velocity": 0.8661417322834646
        },
        {
          "duration": 0.2669826064452536,
          "durationTicks": 501,
          "midi": 76,
          "name": "E5",
          "ticks": 1702912,
          "time": 781.6218909999999,
          "velocity": 0.8661417322834646
        },
        {
          "duration": 0.2669826064452536,
          "durationTicks": 501,
          "midi": 79,
          "name": "G5",
          "ticks": 1702912,
          "time": 781.6218909999999,
          "velocity": 0.8661417322834646
        },
        {
          "duration": 0.2669826064452536,
          "durationTicks": 501,
          "midi": 74,
          "name": "D5",
          "ticks": 1703424,
          "time": 781.8947354999999,
          "velocity": 0.8661417322834646
        },
        {
          "duration": 0.2669826064452536,
          "durationTicks": 501,
          "midi": 77,
          "name": "F5",
          "ticks": 1703424,
          "time": 781.8947354999999,
          "velocity": 0.8661417322834646
        },
        {
          "duration": 0.2669826064453673,
          "durationTicks": 501,
          "midi": 72,
          "name": "C5",
          "ticks": 1703936,
          "time": 782.1675799999998,
          "velocity": 0.8661417322834646
        },
        {
          "duration": 0.2669826064453673,
          "durationTicks": 501,
          "midi": 77,
          "name": "F5",
          "ticks": 1703936,
          "time": 782.1675799999998,
          "velocity": 0.8661417322834646
        },
        {
          "duration": 0.2669826064453673,
          "durationTicks": 501,
          "midi": 72,
          "name": "C5",
          "ticks": 1704448,
          "time": 782.4404244999998,
          "velocity": 0.8661417322834646
        },
        {
          "duration": 0.2669826064453673,
          "durationTicks": 501,
          "midi": 76,
          "name": "E5",
          "ticks": 1704448,
          "time": 782.4404244999998,
          "velocity": 0.8661417322834646
        },
        {
          "duration": 0.2669826064453673,
          "durationTicks": 501,
          "midi": 71,
          "name": "B4",
          "ticks": 1704960,
          "time": 782.7132689999999,
          "velocity": 0.8661417322834646
        },
        {
          "duration": 0.2669826064453673,
          "durationTicks": 501,
          "midi": 74,
          "name": "D5",
          "ticks": 1704960,
          "time": 782.7132689999999,
          "velocity": 0.8661417322834646
        },
        {
          "duration": 0.2669826064452536,
          "durationTicks": 501,
          "midi": 67,
          "name": "G4",
          "ticks": 1705472,
          "time": 782.9861134999999,
          "velocity": 0.8661417322834646
        },
        {
          "duration": 0.2669826064452536,
          "durationTicks": 501,
          "midi": 72,
          "name": "C5",
          "ticks": 1705472,
          "time": 782.9861134999999,
          "velocity": 0.8661417322834646
        },
        {
          "duration": 0.45456320019525265,
          "durationTicks": 853,
          "midi": 74,
          "name": "D5",
          "ticks": 1705984,
          "time": 783.2589579999999,
          "velocity": 0.8661417322834646
        },
        {
          "duration": 0.45456320019525265,
          "durationTicks": 853,
          "midi": 79,
          "name": "G5",
          "ticks": 1705984,
          "time": 783.2589579999999,
          "velocity": 0.8661417322834646
        },
        {
          "duration": 0.45456320019525265,
          "durationTicks": 853,
          "midi": 62,
          "name": "D4",
          "ticks": 1707008,
          "time": 783.8046469999999,
          "velocity": 0.8661417322834646
        },
        {
          "duration": 0.45456320019525265,
          "durationTicks": 853,
          "midi": 67,
          "name": "G4",
          "ticks": 1707008,
          "time": 783.8046469999999,
          "velocity": 0.8661417322834646
        },
        {
          "duration": 0.2669826064453673,
          "durationTicks": 501,
          "midi": 73,
          "name": "C#5",
          "ticks": 1708032,
          "time": 784.3503359999999,
          "velocity": 0.8661417322834646
        },
        {
          "duration": 0.2669826064453673,
          "durationTicks": 501,
          "midi": 77,
          "name": "F5",
          "ticks": 1708032,
          "time": 784.3503359999999,
          "velocity": 0.8661417322834646
        },
        {
          "duration": 0.2669826064453673,
          "durationTicks": 501,
          "midi": 72,
          "name": "C5",
          "ticks": 1708544,
          "time": 784.6231804999999,
          "velocity": 0.8661417322834646
        },
        {
          "duration": 0.2669826064453673,
          "durationTicks": 501,
          "midi": 75,
          "name": "D#5",
          "ticks": 1708544,
          "time": 784.6231804999999,
          "velocity": 0.8661417322834646
        },
        {
          "duration": 0.2669826064452536,
          "durationTicks": 501,
          "midi": 73,
          "name": "C#5",
          "ticks": 1709056,
          "time": 784.8960249999999,
          "velocity": 0.8661417322834646
        },
        {
          "duration": 0.2669826064452536,
          "durationTicks": 501,
          "midi": 77,
          "name": "F5",
          "ticks": 1709056,
          "time": 784.8960249999999,
          "velocity": 0.8661417322834646
        },
        {
          "duration": 0.2669826064453673,
          "durationTicks": 501,
          "midi": 75,
          "name": "D#5",
          "ticks": 1709568,
          "time": 785.1688694999998,
          "velocity": 0.8661417322834646
        },
        {
          "duration": 0.2669826064453673,
          "durationTicks": 501,
          "midi": 78,
          "name": "F#5",
          "ticks": 1709568,
          "time": 785.1688694999998,
          "velocity": 0.8661417322834646
        },
        {
          "duration": 0.45456320019536633,
          "durationTicks": 853,
          "midi": 77,
          "name": "F5",
          "ticks": 1710080,
          "time": 785.4417139999998,
          "velocity": 0.8661417322834646
        },
        {
          "duration": 0.45456320019536633,
          "durationTicks": 853,
          "midi": 80,
          "name": "G#5",
          "ticks": 1710080,
          "time": 785.4417139999998,
          "velocity": 0.8661417322834646
        },
        {
          "duration": 0.2669826064452536,
          "durationTicks": 501,
          "midi": 73,
          "name": "C#5",
          "ticks": 1711104,
          "time": 785.9874029999999,
          "velocity": 0.8661417322834646
        },
        {
          "duration": 0.2669826064452536,
          "durationTicks": 501,
          "midi": 77,
          "name": "F5",
          "ticks": 1711104,
          "time": 785.9874029999999,
          "velocity": 0.8661417322834646
        },
        {
          "duration": 0.2669826064452536,
          "durationTicks": 501,
          "midi": 72,
          "name": "C5",
          "ticks": 1711616,
          "time": 786.2602474999999,
          "velocity": 0.8661417322834646
        },
        {
          "duration": 0.2669826064452536,
          "durationTicks": 501,
          "midi": 75,
          "name": "D#5",
          "ticks": 1711616,
          "time": 786.2602474999999,
          "velocity": 0.8661417322834646
        },
        {
          "duration": 0.7274077001952719,
          "durationTicks": 1365,
          "midi": 72,
          "name": "C5",
          "ticks": 1712128,
          "time": 786.5330919999999,
          "velocity": 0.8661417322834646
        },
        {
          "duration": 0.7274077001952719,
          "durationTicks": 1365,
          "midi": 75,
          "name": "D#5",
          "ticks": 1712128,
          "time": 786.5330919999999,
          "velocity": 0.8661417322834646
        },
        {
          "duration": 0.2669826064453673,
          "durationTicks": 501,
          "midi": 68,
          "name": "G#4",
          "ticks": 1713664,
          "time": 787.3516254999998,
          "velocity": 0.8661417322834646
        },
        {
          "duration": 0.2669826064453673,
          "durationTicks": 501,
          "midi": 73,
          "name": "C#5",
          "ticks": 1713664,
          "time": 787.3516254999998,
          "velocity": 0.8661417322834646
        },
        {
          "duration": 0.45456320019536633,
          "durationTicks": 853,
          "midi": 68,
          "name": "G#4",
          "ticks": 1714176,
          "time": 787.6244699999999,
          "velocity": 0.8661417322834646
        },
        {
          "duration": 0.45456320019536633,
          "durationTicks": 853,
          "midi": 73,
          "name": "C#5",
          "ticks": 1714176,
          "time": 787.6244699999999,
          "velocity": 0.8661417322834646
        },
        {
          "duration": 0.2669826064452536,
          "durationTicks": 501,
          "midi": 73,
          "name": "C#5",
          "ticks": 1715200,
          "time": 788.1701589999999,
          "velocity": 0.8661417322834646
        },
        {
          "duration": 0.2669826064452536,
          "durationTicks": 501,
          "midi": 77,
          "name": "F5",
          "ticks": 1715200,
          "time": 788.1701589999999,
          "velocity": 0.8661417322834646
        },
        {
          "duration": 0.2669826064453673,
          "durationTicks": 501,
          "midi": 77,
          "name": "F5",
          "ticks": 1715712,
          "time": 788.4430034999998,
          "velocity": 0.8661417322834646
        },
        {
          "duration": 0.2669826064453673,
          "durationTicks": 501,
          "midi": 80,
          "name": "G#5",
          "ticks": 1715712,
          "time": 788.4430034999998,
          "velocity": 0.8661417322834646
        },
        {
          "duration": 0.2669826064453673,
          "durationTicks": 501,
          "midi": 78,
          "name": "F#5",
          "ticks": 1716224,
          "time": 788.7158479999998,
          "velocity": 0.8661417322834646
        },
        {
          "duration": 0.2669826064453673,
          "durationTicks": 501,
          "midi": 82,
          "name": "A#5",
          "ticks": 1716224,
          "time": 788.7158479999998,
          "velocity": 0.8661417322834646
        },
        {
          "duration": 0.2669826064453673,
          "durationTicks": 501,
          "midi": 77,
          "name": "F5",
          "ticks": 1716736,
          "time": 788.9886924999998,
          "velocity": 0.8661417322834646
        },
        {
          "duration": 0.2669826064453673,
          "durationTicks": 501,
          "midi": 80,
          "name": "G#5",
          "ticks": 1716736,
          "time": 788.9886924999998,
          "velocity": 0.8661417322834646
        },
        {
          "duration": 0.2669826064452536,
          "durationTicks": 501,
          "midi": 78,
          "name": "F#5",
          "ticks": 1717248,
          "time": 789.2615369999999,
          "velocity": 0.8661417322834646
        },
        {
          "duration": 0.2669826064452536,
          "durationTicks": 501,
          "midi": 82,
          "name": "A#5",
          "ticks": 1717248,
          "time": 789.2615369999999,
          "velocity": 0.8661417322834646
        },
        {
          "duration": 0.2669826064452536,
          "durationTicks": 501,
          "midi": 78,
          "name": "F#5",
          "ticks": 1717760,
          "time": 789.5343814999999,
          "velocity": 0.8661417322834646
        },
        {
          "duration": 0.2669826064452536,
          "durationTicks": 501,
          "midi": 84,
          "name": "C6",
          "ticks": 1717760,
          "time": 789.5343814999999,
          "velocity": 0.8661417322834646
        },
        {
          "duration": 0.45456320019525265,
          "durationTicks": 853,
          "midi": 77,
          "name": "F5",
          "ticks": 1718272,
          "time": 789.8072259999999,
          "velocity": 0.8661417322834646
        },
        {
          "duration": 0.45456320019525265,
          "durationTicks": 853,
          "midi": 85,
          "name": "C#6",
          "ticks": 1718272,
          "time": 789.8072259999999,
          "velocity": 0.8661417322834646
        },
        {
          "duration": 0.2669826064452536,
          "durationTicks": 501,
          "midi": 77,
          "name": "F5",
          "ticks": 1719296,
          "time": 790.3529149999999,
          "velocity": 0.8661417322834646
        },
        {
          "duration": 0.2669826064452536,
          "durationTicks": 501,
          "midi": 80,
          "name": "G#5",
          "ticks": 1719296,
          "time": 790.3529149999999,
          "velocity": 0.8661417322834646
        },
        {
          "duration": 0.2669826064453673,
          "durationTicks": 501,
          "midi": 75,
          "name": "D#5",
          "ticks": 1719808,
          "time": 790.6257594999998,
          "velocity": 0.8661417322834646
        },
        {
          "duration": 0.2669826064453673,
          "durationTicks": 501,
          "midi": 78,
          "name": "F#5",
          "ticks": 1719808,
          "time": 790.6257594999998,
          "velocity": 0.8661417322834646
        },
        {
          "duration": 0.45456320019536633,
          "durationTicks": 853,
          "midi": 73,
          "name": "C#5",
          "ticks": 1720320,
          "time": 790.8986039999999,
          "velocity": 0.8661417322834646
        },
        {
          "duration": 0.45456320019536633,
          "durationTicks": 853,
          "midi": 77,
          "name": "F5",
          "ticks": 1720320,
          "time": 790.8986039999999,
          "velocity": 0.8661417322834646
        },
        {
          "duration": 0.2669826064452536,
          "durationTicks": 501,
          "midi": 73,
          "name": "C#5",
          "ticks": 1721344,
          "time": 791.4442929999999,
          "velocity": 0.8661417322834646
        },
        {
          "duration": 0.2669826064452536,
          "durationTicks": 501,
          "midi": 77,
          "name": "F5",
          "ticks": 1721344,
          "time": 791.4442929999999,
          "velocity": 0.8661417322834646
        },
        {
          "duration": 0.2669826064453673,
          "durationTicks": 501,
          "midi": 75,
          "name": "D#5",
          "ticks": 1721856,
          "time": 791.7171374999998,
          "velocity": 0.8661417322834646
        },
        {
          "duration": 0.2669826064453673,
          "durationTicks": 501,
          "midi": 78,
          "name": "F#5",
          "ticks": 1721856,
          "time": 791.7171374999998,
          "velocity": 0.8661417322834646
        },
        {
          "duration": 0.9549557500000674,
          "durationTicks": 1792,
          "midi": 72,
          "name": "C5",
          "ticks": 1722368,
          "time": 791.9899819999998,
          "velocity": 0.8661417322834646
        },
        {
          "duration": 0.9549557500000674,
          "durationTicks": 1792,
          "midi": 75,
          "name": "D#5",
          "ticks": 1722368,
          "time": 791.9899819999998,
          "velocity": 0.8661417322834646
        },
        {
          "duration": 0.2669826064452536,
          "durationTicks": 501,
          "midi": 73,
          "name": "C#5",
          "ticks": 1724416,
          "time": 793.0813599999999,
          "velocity": 0.8661417322834646
        },
        {
          "duration": 0.2669826064452536,
          "durationTicks": 501,
          "midi": 77,
          "name": "F5",
          "ticks": 1724416,
          "time": 793.0813599999999,
          "velocity": 0.8661417322834646
        },
        {
          "duration": 0.2669826064452536,
          "durationTicks": 501,
          "midi": 72,
          "name": "C5",
          "ticks": 1724928,
          "time": 793.3542044999999,
          "velocity": 0.8661417322834646
        },
        {
          "duration": 0.2669826064452536,
          "durationTicks": 501,
          "midi": 75,
          "name": "D#5",
          "ticks": 1724928,
          "time": 793.3542044999999,
          "velocity": 0.8661417322834646
        },
        {
          "duration": 0.2669826064453673,
          "durationTicks": 501,
          "midi": 73,
          "name": "C#5",
          "ticks": 1725440,
          "time": 793.6270489999998,
          "velocity": 0.8661417322834646
        },
        {
          "duration": 0.2669826064453673,
          "durationTicks": 501,
          "midi": 77,
          "name": "F5",
          "ticks": 1725440,
          "time": 793.6270489999998,
          "velocity": 0.8661417322834646
        },
        {
          "duration": 0.2669826064453673,
          "durationTicks": 501,
          "midi": 75,
          "name": "D#5",
          "ticks": 1725952,
          "time": 793.8998934999998,
          "velocity": 0.8661417322834646
        },
        {
          "duration": 0.2669826064453673,
          "durationTicks": 501,
          "midi": 78,
          "name": "F#5",
          "ticks": 1725952,
          "time": 793.8998934999998,
          "velocity": 0.8661417322834646
        },
        {
          "duration": 0.45456320019536633,
          "durationTicks": 853,
          "midi": 77,
          "name": "F5",
          "ticks": 1726464,
          "time": 794.1727379999999,
          "velocity": 0.8661417322834646
        },
        {
          "duration": 0.45456320019536633,
          "durationTicks": 853,
          "midi": 80,
          "name": "G#5",
          "ticks": 1726464,
          "time": 794.1727379999999,
          "velocity": 0.8661417322834646
        },
        {
          "duration": 0.2669826064452536,
          "durationTicks": 501,
          "midi": 73,
          "name": "C#5",
          "ticks": 1727488,
          "time": 794.7184269999999,
          "velocity": 0.8661417322834646
        },
        {
          "duration": 0.2669826064452536,
          "durationTicks": 501,
          "midi": 77,
          "name": "F5",
          "ticks": 1727488,
          "time": 794.7184269999999,
          "velocity": 0.8661417322834646
        },
        {
          "duration": 0.2669826064453673,
          "durationTicks": 501,
          "midi": 72,
          "name": "C5",
          "ticks": 1728000,
          "time": 794.9912714999998,
          "velocity": 0.8661417322834646
        },
        {
          "duration": 0.2669826064453673,
          "durationTicks": 501,
          "midi": 75,
          "name": "D#5",
          "ticks": 1728000,
          "time": 794.9912714999998,
          "velocity": 0.8661417322834646
        },
        {
          "duration": 0.7274077001953856,
          "durationTicks": 1365,
          "midi": 72,
          "name": "C5",
          "ticks": 1728512,
          "time": 795.2641159999998,
          "velocity": 0.8661417322834646
        },
        {
          "duration": 0.7274077001953856,
          "durationTicks": 1365,
          "midi": 75,
          "name": "D#5",
          "ticks": 1728512,
          "time": 795.2641159999998,
          "velocity": 0.8661417322834646
        },
        {
          "duration": 0.2669826064452536,
          "durationTicks": 501,
          "midi": 68,
          "name": "G#4",
          "ticks": 1730048,
          "time": 796.0826494999999,
          "velocity": 0.8661417322834646
        },
        {
          "duration": 0.2669826064452536,
          "durationTicks": 501,
          "midi": 73,
          "name": "C#5",
          "ticks": 1730048,
          "time": 796.0826494999999,
          "velocity": 0.8661417322834646
        },
        {
          "duration": 0.45456320019525265,
          "durationTicks": 853,
          "midi": 68,
          "name": "G#4",
          "ticks": 1730560,
          "time": 796.3554939999999,
          "velocity": 0.8661417322834646
        },
        {
          "duration": 0.45456320019525265,
          "durationTicks": 853,
          "midi": 73,
          "name": "C#5",
          "ticks": 1730560,
          "time": 796.3554939999999,
          "velocity": 0.8661417322834646
        },
        {
          "duration": 0.2669826064453673,
          "durationTicks": 501,
          "midi": 73,
          "name": "C#5",
          "ticks": 1731584,
          "time": 796.9011829999998,
          "velocity": 0.8661417322834646
        },
        {
          "duration": 0.2669826064453673,
          "durationTicks": 501,
          "midi": 77,
          "name": "F5",
          "ticks": 1731584,
          "time": 796.9011829999998,
          "velocity": 0.8661417322834646
        },
        {
          "duration": 0.2669826064453673,
          "durationTicks": 501,
          "midi": 77,
          "name": "F5",
          "ticks": 1732096,
          "time": 797.1740274999999,
          "velocity": 0.8661417322834646
        },
        {
          "duration": 0.2669826064453673,
          "durationTicks": 501,
          "midi": 80,
          "name": "G#5",
          "ticks": 1732096,
          "time": 797.1740274999999,
          "velocity": 0.8661417322834646
        },
        {
          "duration": 0.2669826064453673,
          "durationTicks": 501,
          "midi": 78,
          "name": "F#5",
          "ticks": 1732608,
          "time": 797.4468719999999,
          "velocity": 0.8661417322834646
        },
        {
          "duration": 0.2669826064453673,
          "durationTicks": 501,
          "midi": 82,
          "name": "A#5",
          "ticks": 1732608,
          "time": 797.4468719999999,
          "velocity": 0.8661417322834646
        },
        {
          "duration": 0.2669826064452536,
          "durationTicks": 501,
          "midi": 77,
          "name": "F5",
          "ticks": 1733120,
          "time": 797.7197164999999,
          "velocity": 0.8661417322834646
        },
        {
          "duration": 0.2669826064452536,
          "durationTicks": 501,
          "midi": 80,
          "name": "G#5",
          "ticks": 1733120,
          "time": 797.7197164999999,
          "velocity": 0.8661417322834646
        },
        {
          "duration": 0.2669826064452536,
          "durationTicks": 501,
          "midi": 78,
          "name": "F#5",
          "ticks": 1733632,
          "time": 797.9925609999999,
          "velocity": 0.8661417322834646
        },
        {
          "duration": 0.2669826064452536,
          "durationTicks": 501,
          "midi": 82,
          "name": "A#5",
          "ticks": 1733632,
          "time": 797.9925609999999,
          "velocity": 0.8661417322834646
        },
        {
          "duration": 0.2669826064453673,
          "durationTicks": 501,
          "midi": 78,
          "name": "F#5",
          "ticks": 1734144,
          "time": 798.2654054999998,
          "velocity": 0.8661417322834646
        },
        {
          "duration": 0.2669826064453673,
          "durationTicks": 501,
          "midi": 84,
          "name": "C6",
          "ticks": 1734144,
          "time": 798.2654054999998,
          "velocity": 0.8661417322834646
        },
        {
          "duration": 0.45456320019536633,
          "durationTicks": 853,
          "midi": 77,
          "name": "F5",
          "ticks": 1734656,
          "time": 798.5382499999998,
          "velocity": 0.8661417322834646
        },
        {
          "duration": 0.45456320019536633,
          "durationTicks": 853,
          "midi": 85,
          "name": "C#6",
          "ticks": 1734656,
          "time": 798.5382499999998,
          "velocity": 0.8661417322834646
        },
        {
          "duration": 0.2669826064452536,
          "durationTicks": 501,
          "midi": 77,
          "name": "F5",
          "ticks": 1735680,
          "time": 799.0839389999999,
          "velocity": 0.8661417322834646
        },
        {
          "duration": 0.2669826064452536,
          "durationTicks": 501,
          "midi": 80,
          "name": "G#5",
          "ticks": 1735680,
          "time": 799.0839389999999,
          "velocity": 0.8661417322834646
        },
        {
          "duration": 0.2669826064452536,
          "durationTicks": 501,
          "midi": 75,
          "name": "D#5",
          "ticks": 1736192,
          "time": 799.3567834999999,
          "velocity": 0.8661417322834646
        },
        {
          "duration": 0.2669826064452536,
          "durationTicks": 501,
          "midi": 78,
          "name": "F#5",
          "ticks": 1736192,
          "time": 799.3567834999999,
          "velocity": 0.8661417322834646
        },
        {
          "duration": 0.2669826064452536,
          "durationTicks": 501,
          "midi": 73,
          "name": "C#5",
          "ticks": 1736704,
          "time": 799.6296279999999,
          "velocity": 0.8661417322834646
        },
        {
          "duration": 0.2669826064452536,
          "durationTicks": 501,
          "midi": 78,
          "name": "F#5",
          "ticks": 1736704,
          "time": 799.6296279999999,
          "velocity": 0.8661417322834646
        },
        {
          "duration": 0.2669826064452536,
          "durationTicks": 501,
          "midi": 73,
          "name": "C#5",
          "ticks": 1737216,
          "time": 799.9024724999999,
          "velocity": 0.8661417322834646
        },
        {
          "duration": 0.2669826064452536,
          "durationTicks": 501,
          "midi": 77,
          "name": "F5",
          "ticks": 1737216,
          "time": 799.9024724999999,
          "velocity": 0.8661417322834646
        },
        {
          "duration": 0.2669826064453673,
          "durationTicks": 501,
          "midi": 72,
          "name": "C5",
          "ticks": 1737728,
          "time": 800.1753169999998,
          "velocity": 0.8661417322834646
        },
        {
          "duration": 0.2669826064453673,
          "durationTicks": 501,
          "midi": 75,
          "name": "D#5",
          "ticks": 1737728,
          "time": 800.1753169999998,
          "velocity": 0.8661417322834646
        },
        {
          "duration": 0.2669826064453673,
          "durationTicks": 501,
          "midi": 68,
          "name": "G#4",
          "ticks": 1738240,
          "time": 800.4481614999999,
          "velocity": 0.8661417322834646
        },
        {
          "duration": 0.2669826064453673,
          "durationTicks": 501,
          "midi": 73,
          "name": "C#5",
          "ticks": 1738240,
          "time": 800.4481614999999,
          "velocity": 0.8661417322834646
        },
        {
          "duration": 0.45456320019536633,
          "durationTicks": 853,
          "midi": 75,
          "name": "D#5",
          "ticks": 1738752,
          "time": 800.7210059999999,
          "velocity": 0.8661417322834646
        },
        {
          "duration": 0.45456320019536633,
          "durationTicks": 853,
          "midi": 80,
          "name": "G#5",
          "ticks": 1738752,
          "time": 800.7210059999999,
          "velocity": 0.8661417322834646
        },
        {
          "duration": 0.45456320019536633,
          "durationTicks": 853,
          "midi": 68,
          "name": "G#4",
          "ticks": 1739776,
          "time": 801.2666949999998,
          "velocity": 0.8661417322834646
        },
        {
          "duration": 0.45456320019536633,
          "durationTicks": 853,
          "midi": 72,
          "name": "C5",
          "ticks": 1739776,
          "time": 801.2666949999998,
          "velocity": 0.8661417322834646
        },
        {
          "duration": 0.9549557500000674,
          "durationTicks": 1792,
          "midi": 56,
          "name": "G#3",
          "ticks": 1740800,
          "time": 801.8123839999998,
          "velocity": 0.8661417322834646
        },
        {
          "duration": 0.9549557500000674,
          "durationTicks": 1792,
          "midi": 60,
          "name": "C4",
          "ticks": 1740800,
          "time": 801.8123839999998,
          "velocity": 0.8661417322834646
        },
        {
          "duration": 0.9549557500000674,
          "durationTicks": 1792,
          "midi": 65,
          "name": "F4",
          "ticks": 1740800,
          "time": 801.8123839999998,
          "velocity": 0.8661417322834646
        },
        {
          "duration": 0.2669826064452536,
          "durationTicks": 501,
          "midi": 65,
          "name": "F4",
          "ticks": 1743360,
          "time": 803.1766064999999,
          "velocity": 0.8661417322834646
        },
        {
          "duration": 0.19877148144530565,
          "durationTicks": 373,
          "midi": 66,
          "name": "F#4",
          "ticks": 1743872,
          "time": 803.4494509999998,
          "velocity": 0.8661417322834646
        },
        {
          "duration": 0.3351937314453153,
          "durationTicks": 629,
          "midi": 68,
          "name": "G#4",
          "ticks": 1744256,
          "time": 803.6540843749999,
          "velocity": 0.8661417322834646
        },
        {
          "duration": 0.9549557499999537,
          "durationTicks": 1792,
          "midi": 61,
          "name": "C#4",
          "ticks": 1744896,
          "time": 803.9951399999999,
          "velocity": 0.8661417322834646
        },
        {
          "duration": 0.9549557499999537,
          "durationTicks": 1792,
          "midi": 66,
          "name": "F#4",
          "ticks": 1744896,
          "time": 803.9951399999999,
          "velocity": 0.8661417322834646
        },
        {
          "duration": 0.9549557499999537,
          "durationTicks": 1792,
          "midi": 70,
          "name": "A#4",
          "ticks": 1744896,
          "time": 803.9951399999999,
          "velocity": 0.8661417322834646
        },
        {
          "duration": 0.2669826064452536,
          "durationTicks": 501,
          "midi": 70,
          "name": "A#4",
          "ticks": 1747456,
          "time": 805.3593624999999,
          "velocity": 0.8661417322834646
        },
        {
          "duration": 0.19877148144530565,
          "durationTicks": 373,
          "midi": 68,
          "name": "G#4",
          "ticks": 1747968,
          "time": 805.6322069999999,
          "velocity": 0.8661417322834646
        },
        {
          "duration": 0.3351937314453153,
          "durationTicks": 629,
          "midi": 66,
          "name": "F#4",
          "ticks": 1748352,
          "time": 805.8368403749998,
          "velocity": 0.8661417322834646
        },
        {
          "duration": 0.9549557499999537,
          "durationTicks": 1792,
          "midi": 56,
          "name": "G#3",
          "ticks": 1748992,
          "time": 806.1778959999999,
          "velocity": 0.8661417322834646
        },
        {
          "duration": 0.9549557499999537,
          "durationTicks": 1792,
          "midi": 60,
          "name": "C4",
          "ticks": 1748992,
          "time": 806.1778959999999,
          "velocity": 0.8661417322834646
        },
        {
          "duration": 0.9549557499999537,
          "durationTicks": 1792,
          "midi": 65,
          "name": "F4",
          "ticks": 1748992,
          "time": 806.1778959999999,
          "velocity": 0.8661417322834646
        },
        {
          "duration": 0.2669826064452536,
          "durationTicks": 501,
          "midi": 65,
          "name": "F4",
          "ticks": 1751552,
          "time": 807.5421184999999,
          "velocity": 0.8661417322834646
        },
        {
          "duration": 0.19877148144541934,
          "durationTicks": 373,
          "midi": 66,
          "name": "F#4",
          "ticks": 1752064,
          "time": 807.8149629999998,
          "velocity": 0.8661417322834646
        },
        {
          "duration": 0.3351937314453153,
          "durationTicks": 629,
          "midi": 68,
          "name": "G#4",
          "ticks": 1752448,
          "time": 808.0195963749999,
          "velocity": 0.8661417322834646
        },
        {
          "duration": 0.9549557499999537,
          "durationTicks": 1792,
          "midi": 61,
          "name": "C#4",
          "ticks": 1753088,
          "time": 808.3606519999998,
          "velocity": 0.8661417322834646
        },
        {
          "duration": 0.9549557499999537,
          "durationTicks": 1792,
          "midi": 66,
          "name": "F#4",
          "ticks": 1753088,
          "time": 808.3606519999998,
          "velocity": 0.8661417322834646
        },
        {
          "duration": 0.9549557499999537,
          "durationTicks": 1792,
          "midi": 70,
          "name": "A#4",
          "ticks": 1753088,
          "time": 808.3606519999998,
          "velocity": 0.8661417322834646
        },
        {
          "duration": 0.2669826064453673,
          "durationTicks": 501,
          "midi": 70,
          "name": "A#4",
          "ticks": 1755648,
          "time": 809.7248744999998,
          "velocity": 0.8661417322834646
        },
        {
          "duration": 0.19877148144530565,
          "durationTicks": 373,
          "midi": 68,
          "name": "G#4",
          "ticks": 1756160,
          "time": 809.9977189999998,
          "velocity": 0.8661417322834646
        },
        {
          "duration": 0.3351937314453153,
          "durationTicks": 629,
          "midi": 66,
          "name": "F#4",
          "ticks": 1756544,
          "time": 810.2023523749999,
          "velocity": 0.8661417322834646
        },
        {
          "duration": 0.9549557499999537,
          "durationTicks": 1792,
          "midi": 56,
          "name": "G#3",
          "ticks": 1757184,
          "time": 810.5434079999999,
          "velocity": 0.8661417322834646
        },
        {
          "duration": 0.9549557499999537,
          "durationTicks": 1792,
          "midi": 60,
          "name": "C4",
          "ticks": 1757184,
          "time": 810.5434079999999,
          "velocity": 0.8661417322834646
        },
        {
          "duration": 0.9549557499999537,
          "durationTicks": 1792,
          "midi": 65,
          "name": "F4",
          "ticks": 1757184,
          "time": 810.5434079999999,
          "velocity": 0.8661417322834646
        },
        {
          "duration": 0.2669826064452536,
          "durationTicks": 501,
          "midi": 65,
          "name": "F4",
          "ticks": 1759744,
          "time": 811.9076304999999,
          "velocity": 0.8661417322834646
        },
        {
          "duration": 0.19877148144530565,
          "durationTicks": 373,
          "midi": 66,
          "name": "F#4",
          "ticks": 1760256,
          "time": 812.1804749999999,
          "velocity": 0.8661417322834646
        },
        {
          "duration": 0.3351937314453153,
          "durationTicks": 629,
          "midi": 68,
          "name": "G#4",
          "ticks": 1760640,
          "time": 812.3851083749998,
          "velocity": 0.8661417322834646
        },
        {
          "duration": 0.9549557499999537,
          "durationTicks": 1792,
          "midi": 61,
          "name": "C#4",
          "ticks": 1761280,
          "time": 812.7261639999999,
          "velocity": 0.8661417322834646
        },
        {
          "duration": 0.9549557499999537,
          "durationTicks": 1792,
          "midi": 66,
          "name": "F#4",
          "ticks": 1761280,
          "time": 812.7261639999999,
          "velocity": 0.8661417322834646
        },
        {
          "duration": 0.9549557499999537,
          "durationTicks": 1792,
          "midi": 70,
          "name": "A#4",
          "ticks": 1761280,
          "time": 812.7261639999999,
          "velocity": 0.8661417322834646
        },
        {
          "duration": 1.3583606064453306,
          "durationTicks": 2549,
          "midi": 66,
          "name": "F#4",
          "ticks": 1763328,
          "time": 813.8175419999999,
          "velocity": 0.8661417322834646
        },
        {
          "duration": 1.3583606064453306,
          "durationTicks": 2549,
          "midi": 69,
          "name": "A4",
          "ticks": 1763328,
          "time": 813.8175419999999,
          "velocity": 0.8661417322834646
        },
        {
          "duration": 1.3583606064453306,
          "durationTicks": 2549,
          "midi": 73,
          "name": "C#5",
          "ticks": 1763328,
          "time": 813.8175419999999,
          "velocity": 0.8661417322834646
        },
        {
          "duration": 0.06234923144529603,
          "durationTicks": 117,
          "midi": 68,
          "name": "G#4",
          "ticks": 1765888,
          "time": 815.1817644999999,
          "velocity": 0.8661417322834646
        },
        {
          "duration": 1.1595891249999113,
          "durationTicks": 2176,
          "midi": 65,
          "name": "F4",
          "ticks": 1766016,
          "time": 815.2499756249999,
          "velocity": 0.8661417322834646
        },
        {
          "duration": 1.1595891249999113,
          "durationTicks": 2176,
          "midi": 73,
          "name": "C#5",
          "ticks": 1766016,
          "time": 815.2499756249999,
          "velocity": 0.8661417322834646
        }
      ],
      "endOfTrackTicks": 1770326
    },
    {
      "channel": 1,
      "controlChanges": {
        "7": [
          {
            "number": 7,
            "ticks": 0,
            "time": 0,
            "value": 0.7952755905511811
          },
          {
            "number": 7,
            "ticks": 0,
            "time": 0,
            "value": 1
          }
        ],
        "10": [
          {
            "number": 10,
            "ticks": 0,
            "time": 0,
            "value": 0.5039370078740157
          },
          {
            "number": 10,
            "ticks": 0,
            "time": 0,
            "value": 0.5039370078740157
          }
        ]
      },
      "pitchBends": [],
      "instrument": {
        "family": "piano",
        "number": 0,
        "name": "acoustic grand piano"
      },
      "name": "Acoustic Grand Piano",
      "notes": [
        {
          "duration": 0.20977222265624998,
          "durationTicks": 501,
          "midi": 38,
          "name": "D2",
          "ticks": 0,
          "time": 0,
          "velocity": 0.8661417322834646
        },
        {
          "duration": 0.20977222265624998,
          "durationTicks": 501,
          "midi": 38,
          "name": "D2",
          "ticks": 512,
          "time": 0.21437799999999999,
          "velocity": 0.8661417322834646
        },
        {
          "duration": 0.20977222265624995,
          "durationTicks": 501,
          "midi": 38,
          "name": "D2",
          "ticks": 1536,
          "time": 0.643134,
          "velocity": 0.8661417322834646
        },
        {
          "duration": 0.20977222265624995,
          "durationTicks": 501,
          "midi": 38,
          "name": "D2",
          "ticks": 2560,
          "time": 1.07189,
          "velocity": 0.8661417322834646
        },
        {
          "duration": 0.3571570976562499,
          "durationTicks": 853,
          "midi": 38,
          "name": "D2",
          "ticks": 3072,
          "time": 1.286268,
          "velocity": 0.8661417322834646
        },
        {
          "duration": 0.3571570976562499,
          "durationTicks": 853,
          "midi": 43,
          "name": "G2",
          "ticks": 4096,
          "time": 1.7150239999999999,
          "velocity": 0.8661417322834646
        },
        {
          "duration": 0.3571570976562497,
          "durationTicks": 853,
          "midi": 47,
          "name": "B2",
          "ticks": 6144,
          "time": 2.572536,
          "velocity": 0.8661417322834646
        },
        {
          "duration": 1.7257417499999996,
          "durationTicks": 5888,
          "midi": 43,
          "name": "G2",
          "ticks": 8192,
          "time": 3.4300479999999998,
          "velocity": 0.8661417322834646
        },
        {
          "duration": 1.7257417499999992,
          "durationTicks": 5888,
          "midi": 48,
          "name": "C3",
          "ticks": 16384,
          "time": 5.83108,
          "velocity": 0.8661417322834646
        },
        {
          "duration": 1.725741750000001,
          "durationTicks": 5888,
          "midi": 43,
          "name": "G2",
          "ticks": 24576,
          "time": 8.232111999999999,
          "velocity": 0.8661417322834646
        },
        {
          "duration": 1.7257417499999992,
          "durationTicks": 5888,
          "midi": 48,
          "name": "C3",
          "ticks": 32768,
          "time": 10.633144,
          "velocity": 0.8661417322834646
        },
        {
          "duration": 1.7257417499999992,
          "durationTicks": 5888,
          "midi": 47,
          "name": "B2",
          "ticks": 40960,
          "time": 13.034175999999999,
          "velocity": 0.8661417322834646
        },
        {
          "duration": 1.725741750000001,
          "durationTicks": 5888,
          "midi": 45,
          "name": "A2",
          "ticks": 49152,
          "time": 15.435208,
          "velocity": 0.8661417322834646
        },
        {
          "duration": 1.7257417499999974,
          "durationTicks": 5888,
          "midi": 47,
          "name": "B2",
          "ticks": 57344,
          "time": 17.83624,
          "velocity": 0.8661417322834646
        },
        {
          "duration": 1.725741750000001,
          "durationTicks": 5888,
          "midi": 50,
          "name": "D3",
          "ticks": 65536,
          "time": 20.237271999999997,
          "velocity": 0.8661417322834646
        },
        {
          "duration": 3.8766662499999995,
          "durationTicks": 7936,
          "midi": 36,
          "name": "C2",
          "ticks": 73728,
          "time": 22.638303999999998,
          "velocity": 0.8661417322834646
        },
        {
          "duration": 3.8766662499999995,
          "durationTicks": 7936,
          "midi": 48,
          "name": "C3",
          "ticks": 73728,
          "time": 22.638303999999998,
          "velocity": 0.8661417322834646
        },
        {
          "duration": 1.8758062500000001,
          "durationTicks": 3840,
          "midi": 36,
          "name": "C2",
          "ticks": 81920,
          "time": 26.640023999999997,
          "velocity": 0.8661417322834646
        },
        {
          "duration": 1.8758062500000001,
          "durationTicks": 3840,
          "midi": 48,
          "name": "C3",
          "ticks": 81920,
          "time": 26.640023999999997,
          "velocity": 0.8661417322834646
        },
        {
          "duration": 1.8758062499999966,
          "durationTicks": 3840,
          "midi": 36,
          "name": "C2",
          "ticks": 86016,
          "time": 28.640884,
          "velocity": 0.8661417322834646
        },
        {
          "duration": 1.8758062499999966,
          "durationTicks": 3840,
          "midi": 48,
          "name": "C3",
          "ticks": 86016,
          "time": 28.640884,
          "velocity": 0.8661417322834646
        },
        {
          "duration": 1.8758062500000037,
          "durationTicks": 3840,
          "midi": 36,
          "name": "C2",
          "ticks": 90112,
          "time": 30.641743999999996,
          "velocity": 0.8661417322834646
        },
        {
          "duration": 1.8758062500000037,
          "durationTicks": 3840,
          "midi": 48,
          "name": "C3",
          "ticks": 90112,
          "time": 30.641743999999996,
          "velocity": 0.8661417322834646
        },
        {
          "duration": 1.8758062499999966,
          "durationTicks": 3840,
          "midi": 36,
          "name": "C2",
          "ticks": 94208,
          "time": 32.642604,
          "velocity": 0.8661417322834646
        },
        {
          "duration": 1.8758062499999966,
          "durationTicks": 3840,
          "midi": 48,
          "name": "C3",
          "ticks": 94208,
          "time": 32.642604,
          "velocity": 0.8661417322834646
        },
        {
          "duration": 1.8758062500000037,
          "durationTicks": 3840,
          "midi": 37,
          "name": "C#2",
          "ticks": 98304,
          "time": 34.643463999999994,
          "velocity": 0.8661417322834646
        },
        {
          "duration": 1.8758062500000037,
          "durationTicks": 3840,
          "midi": 49,
          "name": "C#3",
          "ticks": 98304,
          "time": 34.643463999999994,
          "velocity": 0.8661417322834646
        },
        {
          "duration": 1.8758062499999966,
          "durationTicks": 3840,
          "midi": 38,
          "name": "D2",
          "ticks": 102400,
          "time": 36.644324,
          "velocity": 0.8661417322834646
        },
        {
          "duration": 1.8758062499999966,
          "durationTicks": 3840,
          "midi": 50,
          "name": "D3",
          "ticks": 102400,
          "time": 36.644324,
          "velocity": 0.8661417322834646
        },
        {
          "duration": 1.8758062499999966,
          "durationTicks": 3840,
          "midi": 39,
          "name": "D#2",
          "ticks": 106496,
          "time": 38.645184,
          "velocity": 0.8661417322834646
        },
        {
          "duration": 1.8758062499999966,
          "durationTicks": 3840,
          "midi": 51,
          "name": "D#3",
          "ticks": 106496,
          "time": 38.645184,
          "velocity": 0.8661417322834646
        },
        {
          "duration": 1.8758062500000037,
          "durationTicks": 3840,
          "midi": 40,
          "name": "E2",
          "ticks": 110592,
          "time": 40.646043999999996,
          "velocity": 0.8661417322834646
        },
        {
          "duration": 1.8758062500000037,
          "durationTicks": 3840,
          "midi": 52,
          "name": "E3",
          "ticks": 110592,
          "time": 40.646043999999996,
          "velocity": 0.8661417322834646
        },
        {
          "duration": 1.8758062500000037,
          "durationTicks": 3840,
          "midi": 39,
          "name": "D#2",
          "ticks": 114688,
          "time": 42.64690399999999,
          "velocity": 0.8661417322834646
        },
        {
          "duration": 1.8758062500000037,
          "durationTicks": 3840,
          "midi": 51,
          "name": "D#3",
          "ticks": 114688,
          "time": 42.64690399999999,
          "velocity": 0.8661417322834646
        },
        {
          "duration": 1.8758062499999966,
          "durationTicks": 3840,
          "midi": 38,
          "name": "D2",
          "ticks": 118784,
          "time": 44.647763999999995,
          "velocity": 0.8661417322834646
        },
        {
          "duration": 1.8758062499999966,
          "durationTicks": 3840,
          "midi": 50,
          "name": "D3",
          "ticks": 118784,
          "time": 44.647763999999995,
          "velocity": 0.8661417322834646
        },
        {
          "duration": 3.8766662499999995,
          "durationTicks": 7936,
          "midi": 37,
          "name": "C#2",
          "ticks": 122880,
          "time": 46.648624,
          "velocity": 0.8661417322834646
        },
        {
          "duration": 3.8766662499999995,
          "durationTicks": 7936,
          "midi": 49,
          "name": "C#3",
          "ticks": 122880,
          "time": 46.648624,
          "velocity": 0.8661417322834646
        },
        {
          "duration": 0.24473409667968582,
          "durationTicks": 501,
          "midi": 48,
          "name": "C3",
          "ticks": 131072,
          "time": 50.650344,
          "velocity": 0.8661417322834646
        },
        {
          "duration": 0.24473409667968582,
          "durationTicks": 501,
          "midi": 60,
          "name": "C4",
          "ticks": 131072,
          "time": 50.650344,
          "velocity": 0.8661417322834646
        },
        {
          "duration": 0.24473409667968582,
          "durationTicks": 501,
          "midi": 45,
          "name": "A2",
          "ticks": 131584,
          "time": 50.900451499999996,
          "velocity": 0.8661417322834646
        },
        {
          "duration": 0.24473409667968582,
          "durationTicks": 501,
          "midi": 57,
          "name": "A3",
          "ticks": 131584,
          "time": 50.900451499999996,
          "velocity": 0.8661417322834646
        },
        {
          "duration": 0.24473409667967871,
          "durationTicks": 501,
          "midi": 48,
          "name": "C3",
          "ticks": 132096,
          "time": 51.150559,
          "velocity": 0.8661417322834646
        },
        {
          "duration": 0.24473409667967871,
          "durationTicks": 501,
          "midi": 60,
          "name": "C4",
          "ticks": 132096,
          "time": 51.150559,
          "velocity": 0.8661417322834646
        },
        {
          "duration": 0.05715347167968332,
          "durationTicks": 117,
          "midi": 62,
          "name": "D4",
          "ticks": 132608,
          "time": 51.4006665,
          "velocity": 0.8661417322834646
        },
        {
          "duration": 0.057153471679690426,
          "durationTicks": 117,
          "midi": 50,
          "name": "D3",
          "ticks": 132736,
          "time": 51.463193374999996,
          "velocity": 0.8661417322834646
        },
        {
          "duration": 0.11968034667968652,
          "durationTicks": 245,
          "midi": 48,
          "name": "C3",
          "ticks": 132864,
          "time": 51.52572024999999,
          "velocity": 0.8661417322834646
        },
        {
          "duration": 0.11968034667968652,
          "durationTicks": 245,
          "midi": 60,
          "name": "C4",
          "ticks": 132864,
          "time": 51.52572024999999,
          "velocity": 0.8661417322834646
        },
        {
          "duration": 0.3697878466796851,
          "durationTicks": 757,
          "midi": 40,
          "name": "E2",
          "ticks": 133376,
          "time": 51.77582775,
          "velocity": 0.8661417322834646
        },
        {
          "duration": 0.3697878466796851,
          "durationTicks": 757,
          "midi": 52,
          "name": "E3",
          "ticks": 133376,
          "time": 51.77582775,
          "velocity": 0.8661417322834646
        },
        {
          "duration": 0.24473409667969293,
          "durationTicks": 501,
          "midi": 41,
          "name": "F2",
          "ticks": 134144,
          "time": 52.150988999999996,
          "velocity": 0.8661417322834646
        },
        {
          "duration": 0.24473409667969293,
          "durationTicks": 501,
          "midi": 53,
          "name": "F3",
          "ticks": 134144,
          "time": 52.150988999999996,
          "velocity": 0.8661417322834646
        },
        {
          "duration": 0.24473409667969293,
          "durationTicks": 501,
          "midi": 42,
          "name": "F#2",
          "ticks": 134656,
          "time": 52.401096499999994,
          "velocity": 0.8661417322834646
        },
        {
          "duration": 0.24473409667969293,
          "durationTicks": 501,
          "midi": 54,
          "name": "F#3",
          "ticks": 134656,
          "time": 52.401096499999994,
          "velocity": 0.8661417322834646
        },
        {
          "duration": 0.4166830029296875,
          "durationTicks": 853,
          "midi": 43,
          "name": "G2",
          "ticks": 135168,
          "time": 52.65120399999999,
          "velocity": 0.8661417322834646
        },
        {
          "duration": 0.4166830029296875,
          "durationTicks": 853,
          "midi": 55,
          "name": "G3",
          "ticks": 135168,
          "time": 52.65120399999999,
          "velocity": 0.8661417322834646
        },
        {
          "duration": 0.11968034667968652,
          "durationTicks": 245,
          "midi": 43,
          "name": "G2",
          "ticks": 136192,
          "time": 53.151419,
          "velocity": 0.8661417322834646
        },
        {
          "duration": 0.11968034667968652,
          "durationTicks": 245,
          "midi": 55,
          "name": "G3",
          "ticks": 136192,
          "time": 53.151419,
          "velocity": 0.8661417322834646
        },
        {
          "duration": 0.24473409667968582,
          "durationTicks": 501,
          "midi": 43,
          "name": "G2",
          "ticks": 136448,
          "time": 53.276472749999996,
          "velocity": 0.8661417322834646
        },
        {
          "duration": 0.24473409667968582,
          "durationTicks": 501,
          "midi": 55,
          "name": "G3",
          "ticks": 136448,
          "time": 53.276472749999996,
          "velocity": 0.8661417322834646
        },
        {
          "duration": 0.11968034667968652,
          "durationTicks": 245,
          "midi": 43,
          "name": "G2",
          "ticks": 136960,
          "time": 53.526580249999995,
          "velocity": 0.8661417322834646
        },
        {
          "duration": 0.11968034667968652,
          "durationTicks": 245,
          "midi": 55,
          "name": "G3",
          "ticks": 136960,
          "time": 53.526580249999995,
          "velocity": 0.8661417322834646
        },
        {
          "duration": 0.4166830029296875,
          "durationTicks": 853,
          "midi": 52,
          "name": "E3",
          "ticks": 139264,
          "time": 54.652063999999996,
          "velocity": 0.8661417322834646
        },
        {
          "duration": 0.4166830029296875,
          "durationTicks": 853,
          "midi": 55,
          "name": "G3",
          "ticks": 139264,
          "time": 54.652063999999996,
          "velocity": 0.8661417322834646
        },
        {
          "duration": 0.24473409667969293,
          "durationTicks": 501,
          "midi": 52,
          "name": "E3",
          "ticks": 140288,
          "time": 55.15227899999999,
          "velocity": 0.8661417322834646
        },
        {
          "duration": 0.24473409667969293,
          "durationTicks": 501,
          "midi": 55,
          "name": "G3",
          "ticks": 140288,
          "time": 55.15227899999999,
          "velocity": 0.8661417322834646
        },
        {
          "duration": 0.24473409667968582,
          "durationTicks": 501,
          "midi": 52,
          "name": "E3",
          "ticks": 140800,
          "time": 55.4023865,
          "velocity": 0.8661417322834646
        },
        {
          "duration": 0.24473409667968582,
          "durationTicks": 501,
          "midi": 55,
          "name": "G3",
          "ticks": 140800,
          "time": 55.4023865,
          "velocity": 0.8661417322834646
        },
        {
          "duration": 0.24473409667968582,
          "durationTicks": 501,
          "midi": 52,
          "name": "E3",
          "ticks": 141824,
          "time": 55.902601499999996,
          "velocity": 0.8661417322834646
        },
        {
          "duration": 0.24473409667968582,
          "durationTicks": 501,
          "midi": 55,
          "name": "G3",
          "ticks": 141824,
          "time": 55.902601499999996,
          "velocity": 0.8661417322834646
        },
        {
          "duration": 0.4166830029296875,
          "durationTicks": 853,
          "midi": 52,
          "name": "E3",
          "ticks": 142336,
          "time": 56.152708999999994,
          "velocity": 0.8661417322834646
        },
        {
          "duration": 0.4166830029296875,
          "durationTicks": 853,
          "midi": 55,
          "name": "G3",
          "ticks": 142336,
          "time": 56.152708999999994,
          "velocity": 0.8661417322834646
        },
        {
          "duration": 0.4166830029296875,
          "durationTicks": 853,
          "midi": 53,
          "name": "F3",
          "ticks": 143360,
          "time": 56.652924,
          "velocity": 0.8661417322834646
        },
        {
          "duration": 0.4166830029296875,
          "durationTicks": 853,
          "midi": 57,
          "name": "A3",
          "ticks": 143360,
          "time": 56.652924,
          "velocity": 0.8661417322834646
        },
        {
          "duration": 0.3697878466796851,
          "durationTicks": 757,
          "midi": 53,
          "name": "F3",
          "ticks": 144384,
          "time": 57.153138999999996,
          "velocity": 0.8661417322834646
        },
        {
          "duration": 0.3697878466796851,
          "durationTicks": 757,
          "midi": 57,
          "name": "A3",
          "ticks": 144384,
          "time": 57.153138999999996,
          "velocity": 0.8661417322834646
        },
        {
          "duration": 0.11968034667968652,
          "durationTicks": 245,
          "midi": 53,
          "name": "F3",
          "ticks": 145152,
          "time": 57.528300249999994,
          "velocity": 0.8661417322834646
        },
        {
          "duration": 0.11968034667968652,
          "durationTicks": 245,
          "midi": 57,
          "name": "A3",
          "ticks": 145152,
          "time": 57.528300249999994,
          "velocity": 0.8661417322834646
        },
        {
          "duration": 0.6667905029296861,
          "durationTicks": 1365,
          "midi": 53,
          "name": "F3",
          "ticks": 145920,
          "time": 57.9034615,
          "velocity": 0.8661417322834646
        },
        {
          "duration": 0.6667905029296861,
          "durationTicks": 1365,
          "midi": 57,
          "name": "A3",
          "ticks": 145920,
          "time": 57.9034615,
          "velocity": 0.8661417322834646
        },
        {
          "duration": 0.4166830029296875,
          "durationTicks": 853,
          "midi": 52,
          "name": "E3",
          "ticks": 147456,
          "time": 58.653783999999995,
          "velocity": 0.8661417322834646
        },
        {
          "duration": 0.4166830029296875,
          "durationTicks": 853,
          "midi": 55,
          "name": "G3",
          "ticks": 147456,
          "time": 58.653783999999995,
          "velocity": 0.8661417322834646
        },
        {
          "duration": 0.3697878466796851,
          "durationTicks": 757,
          "midi": 52,
          "name": "E3",
          "ticks": 148480,
          "time": 59.153999,
          "velocity": 0.8661417322834646
        },
        {
          "duration": 0.3697878466796851,
          "durationTicks": 757,
          "midi": 55,
          "name": "G3",
          "ticks": 148480,
          "time": 59.153999,
          "velocity": 0.8661417322834646
        },
        {
          "duration": 0.11968034667968652,
          "durationTicks": 245,
          "midi": 52,
          "name": "E3",
          "ticks": 149248,
          "time": 59.52916025,
          "velocity": 0.8661417322834646
        },
        {
          "duration": 0.11968034667968652,
          "durationTicks": 245,
          "midi": 55,
          "name": "G3",
          "ticks": 149248,
          "time": 59.52916025,
          "velocity": 0.8661417322834646
        },
        {
          "duration": 0.24473409667968582,
          "durationTicks": 501,
          "midi": 52,
          "name": "E3",
          "ticks": 150016,
          "time": 59.904321499999995,
          "velocity": 0.8661417322834646
        },
        {
          "duration": 0.24473409667968582,
          "durationTicks": 501,
          "midi": 55,
          "name": "G3",
          "ticks": 150016,
          "time": 59.904321499999995,
          "velocity": 0.8661417322834646
        },
        {
          "duration": 0.4166830029296875,
          "durationTicks": 853,
          "midi": 52,
          "name": "E3",
          "ticks": 150528,
          "time": 60.15442899999999,
          "velocity": 0.8661417322834646
        },
        {
          "duration": 0.4166830029296875,
          "durationTicks": 853,
          "midi": 55,
          "name": "G3",
          "ticks": 150528,
          "time": 60.15442899999999,
          "velocity": 0.8661417322834646
        },
        {
          "duration": 0.4166830029296875,
          "durationTicks": 853,
          "midi": 50,
          "name": "D3",
          "ticks": 151552,
          "time": 60.654644,
          "velocity": 0.8661417322834646
        },
        {
          "duration": 0.4166830029296875,
          "durationTicks": 853,
          "midi": 53,
          "name": "F3",
          "ticks": 151552,
          "time": 60.654644,
          "velocity": 0.8661417322834646
        },
        {
          "duration": 0.3697878466796851,
          "durationTicks": 757,
          "midi": 50,
          "name": "D3",
          "ticks": 152576,
          "time": 61.154858999999995,
          "velocity": 0.8661417322834646
        },
        {
          "duration": 0.3697878466796851,
          "durationTicks": 757,
          "midi": 53,
          "name": "F3",
          "ticks": 152576,
          "time": 61.154858999999995,
          "velocity": 0.8661417322834646
        },
        {
          "duration": 0.11968034667969363,
          "durationTicks": 245,
          "midi": 50,
          "name": "D3",
          "ticks": 153344,
          "time": 61.53002024999999,
          "velocity": 0.8661417322834646
        },
        {
          "duration": 0.11968034667969363,
          "durationTicks": 245,
          "midi": 55,
          "name": "G3",
          "ticks": 153344,
          "time": 61.53002024999999,
          "velocity": 0.8661417322834646
        },
        {
          "duration": 0.4948415966796844,
          "durationTicks": 1013,
          "midi": 50,
          "name": "D3",
          "ticks": 154112,
          "time": 61.9051815,
          "velocity": 0.8661417322834646
        },
        {
          "duration": 0.4948415966796844,
          "durationTicks": 1013,
          "midi": 55,
          "name": "G3",
          "ticks": 154112,
          "time": 61.9051815,
          "velocity": 0.8661417322834646
        },
        {
          "duration": 0.24473409667968582,
          "durationTicks": 501,
          "midi": 52,
          "name": "E3",
          "ticks": 155136,
          "time": 62.405396499999995,
          "velocity": 0.8661417322834646
        },
        {
          "duration": 0.24473409667968582,
          "durationTicks": 501,
          "midi": 55,
          "name": "G3",
          "ticks": 155136,
          "time": 62.405396499999995,
          "velocity": 0.8661417322834646
        },
        {
          "duration": 0.4166830029296875,
          "durationTicks": 853,
          "midi": 52,
          "name": "E3",
          "ticks": 155648,
          "time": 62.65550399999999,
          "velocity": 0.8661417322834646
        },
        {
          "duration": 0.4166830029296875,
          "durationTicks": 853,
          "midi": 55,
          "name": "G3",
          "ticks": 155648,
          "time": 62.65550399999999,
          "velocity": 0.8661417322834646
        },
        {
          "duration": 0.24473409667968582,
          "durationTicks": 501,
          "midi": 52,
          "name": "E3",
          "ticks": 156672,
          "time": 63.155719,
          "velocity": 0.8661417322834646
        },
        {
          "duration": 0.24473409667968582,
          "durationTicks": 501,
          "midi": 55,
          "name": "G3",
          "ticks": 156672,
          "time": 63.155719,
          "velocity": 0.8661417322834646
        },
        {
          "duration": 0.24473409667968582,
          "durationTicks": 501,
          "midi": 52,
          "name": "E3",
          "ticks": 157184,
          "time": 63.405826499999996,
          "velocity": 0.8661417322834646
        },
        {
          "duration": 0.24473409667968582,
          "durationTicks": 501,
          "midi": 55,
          "name": "G3",
          "ticks": 157184,
          "time": 63.405826499999996,
          "velocity": 0.8661417322834646
        },
        {
          "duration": 0.24473409667968582,
          "durationTicks": 501,
          "midi": 52,
          "name": "E3",
          "ticks": 158208,
          "time": 63.90604149999999,
          "velocity": 0.8661417322834646
        },
        {
          "duration": 0.24473409667968582,
          "durationTicks": 501,
          "midi": 55,
          "name": "G3",
          "ticks": 158208,
          "time": 63.90604149999999,
          "velocity": 0.8661417322834646
        },
        {
          "duration": 0.4166830029296875,
          "durationTicks": 853,
          "midi": 52,
          "name": "E3",
          "ticks": 158720,
          "time": 64.156149,
          "velocity": 0.8661417322834646
        },
        {
          "duration": 0.4166830029296875,
          "durationTicks": 853,
          "midi": 55,
          "name": "G3",
          "ticks": 158720,
          "time": 64.156149,
          "velocity": 0.8661417322834646
        },
        {
          "duration": 0.4166830029296875,
          "durationTicks": 853,
          "midi": 53,
          "name": "F3",
          "ticks": 159744,
          "time": 64.656364,
          "velocity": 0.8661417322834646
        },
        {
          "duration": 0.4166830029296875,
          "durationTicks": 853,
          "midi": 57,
          "name": "A3",
          "ticks": 159744,
          "time": 64.656364,
          "velocity": 0.8661417322834646
        },
        {
          "duration": 0.3697878466796851,
          "durationTicks": 757,
          "midi": 53,
          "name": "F3",
          "ticks": 160768,
          "time": 65.156579,
          "velocity": 0.8661417322834646
        },
        {
          "duration": 0.3697878466796851,
          "durationTicks": 757,
          "midi": 57,
          "name": "A3",
          "ticks": 160768,
          "time": 65.156579,
          "velocity": 0.8661417322834646
        },
        {
          "duration": 0.11968034667970073,
          "durationTicks": 245,
          "midi": 54,
          "name": "F#3",
          "ticks": 161536,
          "time": 65.53174024999998,
          "velocity": 0.8661417322834646
        },
        {
          "duration": 0.11968034667970073,
          "durationTicks": 245,
          "midi": 57,
          "name": "A3",
          "ticks": 161536,
          "time": 65.53174024999998,
          "velocity": 0.8661417322834646
        },
        {
          "duration": 0.24473409667967871,
          "durationTicks": 501,
          "midi": 54,
          "name": "F#3",
          "ticks": 162304,
          "time": 65.9069015,
          "velocity": 0.8661417322834646
        },
        {
          "duration": 0.24473409667967871,
          "durationTicks": 501,
          "midi": 57,
          "name": "A3",
          "ticks": 162304,
          "time": 65.9069015,
          "velocity": 0.8661417322834646
        },
        {
          "duration": 0.4166830029296875,
          "durationTicks": 853,
          "midi": 54,
          "name": "F#3",
          "ticks": 162816,
          "time": 66.15700899999999,
          "velocity": 0.8661417322834646
        },
        {
          "duration": 0.4166830029296875,
          "durationTicks": 853,
          "midi": 57,
          "name": "A3",
          "ticks": 162816,
          "time": 66.15700899999999,
          "velocity": 0.8661417322834646
        },
        {
          "duration": 0.4166830029296875,
          "durationTicks": 853,
          "midi": 52,
          "name": "E3",
          "ticks": 163840,
          "time": 66.65722399999999,
          "velocity": 0.8661417322834646
        },
        {
          "duration": 0.4166830029296875,
          "durationTicks": 853,
          "midi": 55,
          "name": "G3",
          "ticks": 163840,
          "time": 66.65722399999999,
          "velocity": 0.8661417322834646
        },
        {
          "duration": 0.24473409667969293,
          "durationTicks": 501,
          "midi": 52,
          "name": "E3",
          "ticks": 164864,
          "time": 67.157439,
          "velocity": 0.8661417322834646
        },
        {
          "duration": 0.24473409667969293,
          "durationTicks": 501,
          "midi": 55,
          "name": "G3",
          "ticks": 164864,
          "time": 67.157439,
          "velocity": 0.8661417322834646
        },
        {
          "duration": 0.24473409667967871,
          "durationTicks": 501,
          "midi": 52,
          "name": "E3",
          "ticks": 165376,
          "time": 67.4075465,
          "velocity": 0.8661417322834646
        },
        {
          "duration": 0.24473409667967871,
          "durationTicks": 501,
          "midi": 55,
          "name": "G3",
          "ticks": 165376,
          "time": 67.4075465,
          "velocity": 0.8661417322834646
        },
        {
          "duration": 0.24473409667969293,
          "durationTicks": 501,
          "midi": 52,
          "name": "E3",
          "ticks": 166400,
          "time": 67.90776149999999,
          "velocity": 0.8661417322834646
        },
        {
          "duration": 0.24473409667969293,
          "durationTicks": 501,
          "midi": 55,
          "name": "G3",
          "ticks": 166400,
          "time": 67.90776149999999,
          "velocity": 0.8661417322834646
        },
        {
          "duration": 0.4166830029296875,
          "durationTicks": 853,
          "midi": 52,
          "name": "E3",
          "ticks": 166912,
          "time": 68.157869,
          "velocity": 0.8661417322834646
        },
        {
          "duration": 0.4166830029296875,
          "durationTicks": 853,
          "midi": 55,
          "name": "G3",
          "ticks": 166912,
          "time": 68.157869,
          "velocity": 0.8661417322834646
        },
        {
          "duration": 0.4166830029296875,
          "durationTicks": 853,
          "midi": 48,
          "name": "C3",
          "ticks": 167936,
          "time": 68.658084,
          "velocity": 0.8661417322834646
        },
        {
          "duration": 0.4166830029296875,
          "durationTicks": 853,
          "midi": 55,
          "name": "G3",
          "ticks": 167936,
          "time": 68.658084,
          "velocity": 0.8661417322834646
        },
        {
          "duration": 0.11968034667967231,
          "durationTicks": 245,
          "midi": 55,
          "name": "G3",
          "ticks": 168960,
          "time": 69.158299,
          "velocity": 0.8661417322834646
        },
        {
          "duration": 0.24473409667969293,
          "durationTicks": 501,
          "midi": 57,
          "name": "A3",
          "ticks": 169216,
          "time": 69.28335274999999,
          "velocity": 0.8661417322834646
        },
        {
          "duration": 0.11968034667970073,
          "durationTicks": 245,
          "midi": 60,
          "name": "C4",
          "ticks": 169728,
          "time": 69.53346024999999,
          "velocity": 0.8661417322834646
        },
        {
          "duration": 0.24473409667969293,
          "durationTicks": 501,
          "midi": 52,
          "name": "E3",
          "ticks": 172032,
          "time": 70.65894399999999,
          "velocity": 0.8661417322834646
        },
        {
          "duration": 0.24473409667969293,
          "durationTicks": 501,
          "midi": 55,
          "name": "G3",
          "ticks": 172032,
          "time": 70.65894399999999,
          "velocity": 0.8661417322834646
        },
        {
          "duration": 0.24473409667967871,
          "durationTicks": 501,
          "midi": 52,
          "name": "E3",
          "ticks": 172544,
          "time": 70.9090515,
          "velocity": 0.8661417322834646
        },
        {
          "duration": 0.24473409667967871,
          "durationTicks": 501,
          "midi": 55,
          "name": "G3",
          "ticks": 172544,
          "time": 70.9090515,
          "velocity": 0.8661417322834646
        },
        {
          "duration": 0.11968034667968652,
          "durationTicks": 245,
          "midi": 52,
          "name": "E3",
          "ticks": 173824,
          "time": 71.53432025,
          "velocity": 0.8661417322834646
        },
        {
          "duration": 0.11968034667968652,
          "durationTicks": 245,
          "midi": 55,
          "name": "G3",
          "ticks": 173824,
          "time": 71.53432025,
          "velocity": 0.8661417322834646
        },
        {
          "duration": 0.24473409667967871,
          "durationTicks": 501,
          "midi": 52,
          "name": "E3",
          "ticks": 174592,
          "time": 71.9094815,
          "velocity": 0.8661417322834646
        },
        {
          "duration": 0.24473409667967871,
          "durationTicks": 501,
          "midi": 55,
          "name": "G3",
          "ticks": 174592,
          "time": 71.9094815,
          "velocity": 0.8661417322834646
        },
        {
          "duration": 0.24473409667969293,
          "durationTicks": 501,
          "midi": 67,
          "name": "G4",
          "ticks": 175104,
          "time": 72.159589,
          "velocity": 0.8661417322834646
        },
        {
          "duration": 0.05715347167968332,
          "durationTicks": 117,
          "midi": 65,
          "name": "F4",
          "ticks": 175616,
          "time": 72.4096965,
          "velocity": 0.8661417322834646
        },
        {
          "duration": 0.05715347167968332,
          "durationTicks": 117,
          "midi": 64,
          "name": "E4",
          "ticks": 175744,
          "time": 72.472223375,
          "velocity": 0.8661417322834646
        },
        {
          "duration": 0.05715347167968332,
          "durationTicks": 117,
          "midi": 62,
          "name": "D4",
          "ticks": 175872,
          "time": 72.53475025,
          "velocity": 0.8661417322834646
        },
        {
          "duration": 0.05715347167968332,
          "durationTicks": 117,
          "midi": 59,
          "name": "B3",
          "ticks": 176128,
          "time": 72.659804,
          "velocity": 0.8661417322834646
        },
        {
          "duration": 0.05715347167968332,
          "durationTicks": 117,
          "midi": 57,
          "name": "A3",
          "ticks": 176256,
          "time": 72.722330875,
          "velocity": 0.8661417322834646
        },
        {
          "duration": 0.05715347167969753,
          "durationTicks": 117,
          "midi": 55,
          "name": "G3",
          "ticks": 176384,
          "time": 72.78485774999999,
          "velocity": 0.8661417322834646
        },
        {
          "duration": 0.05715347167969753,
          "durationTicks": 117,
          "midi": 53,
          "name": "F3",
          "ticks": 176512,
          "time": 72.84738462499999,
          "velocity": 0.8661417322834646
        },
        {
          "duration": 0.24473409667967871,
          "durationTicks": 501,
          "midi": 53,
          "name": "F3",
          "ticks": 176640,
          "time": 72.90991149999999,
          "velocity": 0.8661417322834646
        },
        {
          "duration": 0.24473409667967871,
          "durationTicks": 501,
          "midi": 57,
          "name": "A3",
          "ticks": 176640,
          "time": 72.90991149999999,
          "velocity": 0.8661417322834646
        },
        {
          "duration": 0.11968034667968652,
          "durationTicks": 245,
          "midi": 53,
          "name": "F3",
          "ticks": 177920,
          "time": 73.53518025,
          "velocity": 0.8661417322834646
        },
        {
          "duration": 0.11968034667968652,
          "durationTicks": 245,
          "midi": 57,
          "name": "A3",
          "ticks": 177920,
          "time": 73.53518025,
          "velocity": 0.8661417322834646
        },
        {
          "duration": 0.24473409667969293,
          "durationTicks": 501,
          "midi": 53,
          "name": "F3",
          "ticks": 178688,
          "time": 73.91034149999999,
          "velocity": 0.8661417322834646
        },
        {
          "duration": 0.24473409667969293,
          "durationTicks": 501,
          "midi": 57,
          "name": "A3",
          "ticks": 178688,
          "time": 73.91034149999999,
          "velocity": 0.8661417322834646
        },
        {
          "duration": 0.24473409667967871,
          "durationTicks": 501,
          "midi": 65,
          "name": "F4",
          "ticks": 179200,
          "time": 74.160449,
          "velocity": 0.8661417322834646
        },
        {
          "duration": 0.05715347167969753,
          "durationTicks": 117,
          "midi": 64,
          "name": "E4",
          "ticks": 179712,
          "time": 74.41055649999998,
          "velocity": 0.8661417322834646
        },
        {
          "duration": 0.05715347167969753,
          "durationTicks": 117,
          "midi": 62,
          "name": "D4",
          "ticks": 179840,
          "time": 74.47308337499999,
          "velocity": 0.8661417322834646
        },
        {
          "duration": 0.05715347167969753,
          "durationTicks": 117,
          "midi": 60,
          "name": "C4",
          "ticks": 179968,
          "time": 74.53561024999999,
          "velocity": 0.8661417322834646
        },
        {
          "duration": 0.05715347167968332,
          "durationTicks": 117,
          "midi": 57,
          "name": "A3",
          "ticks": 180224,
          "time": 74.660664,
          "velocity": 0.8661417322834646
        },
        {
          "duration": 0.05715347167968332,
          "durationTicks": 117,
          "midi": 55,
          "name": "G3",
          "ticks": 180352,
          "time": 74.723190875,
          "velocity": 0.8661417322834646
        },
        {
          "duration": 0.05715347167966911,
          "durationTicks": 117,
          "midi": 53,
          "name": "F3",
          "ticks": 180480,
          "time": 74.78571775,
          "velocity": 0.8661417322834646
        },
        {
          "duration": 0.18220722167968972,
          "durationTicks": 373,
          "midi": 52,
          "name": "E3",
          "ticks": 180608,
          "time": 74.84824462499999,
          "velocity": 0.8661417322834646
        },
        {
          "duration": 0.18220722167968972,
          "durationTicks": 373,
          "midi": 55,
          "name": "G3",
          "ticks": 180608,
          "time": 74.84824462499999,
          "velocity": 0.8661417322834646
        },
        {
          "duration": 0.11968034667970073,
          "durationTicks": 245,
          "midi": 52,
          "name": "E3",
          "ticks": 180992,
          "time": 75.03582524999999,
          "velocity": 0.8661417322834646
        },
        {
          "duration": 0.11968034667970073,
          "durationTicks": 245,
          "midi": 55,
          "name": "G3",
          "ticks": 180992,
          "time": 75.03582524999999,
          "velocity": 0.8661417322834646
        },
        {
          "duration": 0.24473409667969293,
          "durationTicks": 501,
          "midi": 52,
          "name": "E3",
          "ticks": 181760,
          "time": 75.41098649999999,
          "velocity": 0.8661417322834646
        },
        {
          "duration": 0.24473409667969293,
          "durationTicks": 501,
          "midi": 55,
          "name": "G3",
          "ticks": 181760,
          "time": 75.41098649999999,
          "velocity": 0.8661417322834646
        },
        {
          "duration": 0.8753762500000022,
          "durationTicks": 1792,
          "midi": 52,
          "name": "E3",
          "ticks": 182272,
          "time": 75.66109399999999,
          "velocity": 0.8661417322834646
        },
        {
          "duration": 0.8753762500000022,
          "durationTicks": 1792,
          "midi": 55,
          "name": "G3",
          "ticks": 182272,
          "time": 75.66109399999999,
          "velocity": 0.8661417322834646
        },
        {
          "duration": 0.36978784667969933,
          "durationTicks": 757,
          "midi": 53,
          "name": "F3",
          "ticks": 184320,
          "time": 76.66152399999999,
          "velocity": 0.8661417322834646
        },
        {
          "duration": 0.36978784667969933,
          "durationTicks": 757,
          "midi": 57,
          "name": "A3",
          "ticks": 184320,
          "time": 76.66152399999999,
          "velocity": 0.8661417322834646
        },
        {
          "duration": 0.05715347167968332,
          "durationTicks": 117,
          "midi": 60,
          "name": "C4",
          "ticks": 185088,
          "time": 77.03668524999999,
          "velocity": 0.8661417322834646
        },
        {
          "duration": 0.05715347167968332,
          "durationTicks": 117,
          "midi": 55,
          "name": "G3",
          "ticks": 185216,
          "time": 77.099212125,
          "velocity": 0.8661417322834646
        },
        {
          "duration": 0.5573684716796947,
          "durationTicks": 1141,
          "midi": 55,
          "name": "G3",
          "ticks": 185856,
          "time": 77.4118465,
          "velocity": 0.8661417322834646
        },
        {
          "duration": 0.5573684716796947,
          "durationTicks": 1141,
          "midi": 62,
          "name": "D4",
          "ticks": 185856,
          "time": 77.4118465,
          "velocity": 0.8661417322834646
        },
        {
          "duration": 0.05715347167968332,
          "durationTicks": 117,
          "midi": 60,
          "name": "C4",
          "ticks": 187008,
          "time": 77.974588375,
          "velocity": 0.8661417322834646
        },
        {
          "duration": 0.05715347167968332,
          "durationTicks": 117,
          "midi": 59,
          "name": "B3",
          "ticks": 187136,
          "time": 78.03711525,
          "velocity": 0.8661417322834646
        },
        {
          "duration": 0.05715347167966911,
          "durationTicks": 117,
          "midi": 57,
          "name": "A3",
          "ticks": 187264,
          "time": 78.099642125,
          "velocity": 0.8661417322834646
        },
        {
          "duration": 0.05715347167968332,
          "durationTicks": 117,
          "midi": 55,
          "name": "G3",
          "ticks": 187392,
          "time": 78.16216899999999,
          "velocity": 0.8661417322834646
        },
        {
          "duration": 0.05715347167968332,
          "durationTicks": 117,
          "midi": 53,
          "name": "F3",
          "ticks": 187520,
          "time": 78.224695875,
          "velocity": 0.8661417322834646
        },
        {
          "duration": 0.11968034667970073,
          "durationTicks": 245,
          "midi": 50,
          "name": "D3",
          "ticks": 187648,
          "time": 78.28722274999998,
          "velocity": 0.8661417322834646
        },
        {
          "duration": 0.24473409667969293,
          "durationTicks": 501,
          "midi": 48,
          "name": "C3",
          "ticks": 187904,
          "time": 78.41227649999999,
          "velocity": 0.8661417322834646
        },
        {
          "duration": 0.24473409667969293,
          "durationTicks": 501,
          "midi": 52,
          "name": "E3",
          "ticks": 187904,
          "time": 78.41227649999999,
          "velocity": 0.8661417322834646
        },
        {
          "duration": 0.3697878466796851,
          "durationTicks": 757,
          "midi": 52,
          "name": "E3",
          "ticks": 188416,
          "time": 78.662384,
          "velocity": 0.8661417322834646
        },
        {
          "duration": 0.3697878466796851,
          "durationTicks": 757,
          "midi": 55,
          "name": "G3",
          "ticks": 188416,
          "time": 78.662384,
          "velocity": 0.8661417322834646
        },
        {
          "duration": 0.11968034667968652,
          "durationTicks": 245,
          "midi": 52,
          "name": "E3",
          "ticks": 189184,
          "time": 79.03754525,
          "velocity": 0.8661417322834646
        },
        {
          "duration": 0.11968034667968652,
          "durationTicks": 245,
          "midi": 55,
          "name": "G3",
          "ticks": 189184,
          "time": 79.03754525,
          "velocity": 0.8661417322834646
        },
        {
          "duration": 0.24473409667970714,
          "durationTicks": 501,
          "midi": 52,
          "name": "E3",
          "ticks": 189952,
          "time": 79.41270649999998,
          "velocity": 0.8661417322834646
        },
        {
          "duration": 0.24473409667970714,
          "durationTicks": 501,
          "midi": 55,
          "name": "G3",
          "ticks": 189952,
          "time": 79.41270649999998,
          "velocity": 0.8661417322834646
        },
        {
          "duration": 0.24473409667969293,
          "durationTicks": 501,
          "midi": 52,
          "name": "E3",
          "ticks": 190976,
          "time": 79.9129215,
          "velocity": 0.8661417322834646
        },
        {
          "duration": 0.24473409667969293,
          "durationTicks": 501,
          "midi": 60,
          "name": "C4",
          "ticks": 190976,
          "time": 79.9129215,
          "velocity": 0.8661417322834646
        },
        {
          "duration": 0.11968034667968652,
          "durationTicks": 245,
          "midi": 62,
          "name": "D4",
          "ticks": 191488,
          "time": 80.163029,
          "velocity": 0.8661417322834646
        },
        {
          "duration": 0.24473409667967871,
          "durationTicks": 501,
          "midi": 64,
          "name": "E4",
          "ticks": 191744,
          "time": 80.28808275,
          "velocity": 0.8661417322834646
        },
        {
          "duration": 0.11968034667970073,
          "durationTicks": 245,
          "midi": 60,
          "name": "C4",
          "ticks": 192256,
          "time": 80.53819024999999,
          "velocity": 0.8661417322834646
        },
        {
          "duration": 0.4166830029296875,
          "durationTicks": 853,
          "midi": 53,
          "name": "F3",
          "ticks": 192512,
          "time": 80.66324399999999,
          "velocity": 0.8661417322834646
        },
        {
          "duration": 0.4166830029296875,
          "durationTicks": 853,
          "midi": 57,
          "name": "A3",
          "ticks": 192512,
          "time": 80.66324399999999,
          "velocity": 0.8661417322834646
        },
        {
          "duration": 0.3697878466796851,
          "durationTicks": 757,
          "midi": 53,
          "name": "F3",
          "ticks": 193536,
          "time": 81.16345899999999,
          "velocity": 0.8661417322834646
        },
        {
          "duration": 0.3697878466796851,
          "durationTicks": 757,
          "midi": 57,
          "name": "A3",
          "ticks": 193536,
          "time": 81.16345899999999,
          "velocity": 0.8661417322834646
        },
        {
          "duration": 0.11968034667968652,
          "durationTicks": 245,
          "midi": 54,
          "name": "F#3",
          "ticks": 194304,
          "time": 81.53862025,
          "velocity": 0.8661417322834646
        },
        {
          "duration": 0.11968034667968652,
          "durationTicks": 245,
          "midi": 57,
          "name": "A3",
          "ticks": 194304,
          "time": 81.53862025,
          "velocity": 0.8661417322834646
        },
        {
          "duration": 0.24473409667967871,
          "durationTicks": 501,
          "midi": 54,
          "name": "F#3",
          "ticks": 195072,
          "time": 81.9137815,
          "velocity": 0.8661417322834646
        },
        {
          "duration": 0.24473409667967871,
          "durationTicks": 501,
          "midi": 60,
          "name": "C4",
          "ticks": 195072,
          "time": 81.9137815,
          "velocity": 0.8661417322834646
        },
        {
          "duration": 0.11968034667970073,
          "durationTicks": 245,
          "midi": 63,
          "name": "D#4",
          "ticks": 195584,
          "time": 82.16388899999998,
          "velocity": 0.8661417322834646
        },
        {
          "duration": 0.24473409667969293,
          "durationTicks": 501,
          "midi": 62,
          "name": "D4",
          "ticks": 195840,
          "time": 82.28894274999999,
          "velocity": 0.8661417322834646
        },
        {
          "duration": 0.11968034667967231,
          "durationTicks": 245,
          "midi": 55,
          "name": "G3",
          "ticks": 196352,
          "time": 82.53905025,
          "velocity": 0.8661417322834646
        },
        {
          "duration": 0.11968034667967231,
          "durationTicks": 245,
          "midi": 60,
          "name": "C4",
          "ticks": 196352,
          "time": 82.53905025,
          "velocity": 0.8661417322834646
        },
        {
          "duration": 0.24473409667967871,
          "durationTicks": 501,
          "midi": 52,
          "name": "E3",
          "ticks": 197120,
          "time": 82.9142115,
          "velocity": 0.8661417322834646
        },
        {
          "duration": 0.24473409667967871,
          "durationTicks": 501,
          "midi": 55,
          "name": "G3",
          "ticks": 197120,
          "time": 82.9142115,
          "velocity": 0.8661417322834646
        },
        {
          "duration": 0.11968034667968652,
          "durationTicks": 245,
          "midi": 52,
          "name": "E3",
          "ticks": 198400,
          "time": 83.53948025,
          "velocity": 0.8661417322834646
        },
        {
          "duration": 0.11968034667968652,
          "durationTicks": 245,
          "midi": 55,
          "name": "G3",
          "ticks": 198400,
          "time": 83.53948025,
          "velocity": 0.8661417322834646
        },
        {
          "duration": 0.24473409667969293,
          "durationTicks": 501,
          "midi": 52,
          "name": "E3",
          "ticks": 199168,
          "time": 83.91464149999999,
          "velocity": 0.8661417322834646
        },
        {
          "duration": 0.24473409667969293,
          "durationTicks": 501,
          "midi": 55,
          "name": "G3",
          "ticks": 199168,
          "time": 83.91464149999999,
          "velocity": 0.8661417322834646
        },
        {
          "duration": 0.24473409667969293,
          "durationTicks": 501,
          "midi": 52,
          "name": "E3",
          "ticks": 200192,
          "time": 84.41485649999998,
          "velocity": 0.8661417322834646
        },
        {
          "duration": 0.24473409667969293,
          "durationTicks": 501,
          "midi": 55,
          "name": "G3",
          "ticks": 200192,
          "time": 84.41485649999998,
          "velocity": 0.8661417322834646
        },
        {
          "duration": 0.4166830029296875,
          "durationTicks": 853,
          "midi": 52,
          "name": "E3",
          "ticks": 200704,
          "time": 84.664964,
          "velocity": 0.8661417322834646
        },
        {
          "duration": 0.4166830029296875,
          "durationTicks": 853,
          "midi": 55,
          "name": "G3",
          "ticks": 200704,
          "time": 84.664964,
          "velocity": 0.8661417322834646
        },
        {
          "duration": 0.11968034667968652,
          "durationTicks": 245,
          "midi": 58,
          "name": "A#3",
          "ticks": 201728,
          "time": 85.165179,
          "velocity": 0.8661417322834646
        },
        {
          "duration": 0.24473409667967871,
          "durationTicks": 501,
          "midi": 59,
          "name": "B3",
          "ticks": 201984,
          "time": 85.29023275,
          "velocity": 0.8661417322834646
        },
        {
          "duration": 0.5417367529296939,
          "durationTicks": 1109,
          "midi": 60,
          "name": "C4",
          "ticks": 202496,
          "time": 85.54034024999999,
          "velocity": 0.8661417322834646
        },
        {
          "duration": 0.18220722167968972,
          "durationTicks": 373,
          "midi": 64,
          "name": "E4",
          "ticks": 203776,
          "time": 86.16560899999999,
          "velocity": 0.8661417322834646
        },
        {
          "duration": 0.05715347167968332,
          "durationTicks": 117,
          "midi": 65,
          "name": "F4",
          "ticks": 204160,
          "time": 86.353189625,
          "velocity": 0.8661417322834646
        },
        {
          "duration": 0.11968034667967231,
          "durationTicks": 245,
          "midi": 67,
          "name": "G4",
          "ticks": 204288,
          "time": 86.4157165,
          "velocity": 0.8661417322834646
        },
        {
          "duration": 0.11968034667968652,
          "durationTicks": 245,
          "midi": 68,
          "name": "G#4",
          "ticks": 204544,
          "time": 86.54077025,
          "velocity": 0.8661417322834646
        },
        {
          "duration": 0.6667905029297003,
          "durationTicks": 1365,
          "midi": 65,
          "name": "F4",
          "ticks": 204800,
          "time": 86.66582399999999,
          "velocity": 0.8661417322834646
        },
        {
          "duration": 0.6667905029297003,
          "durationTicks": 1365,
          "midi": 69,
          "name": "A4",
          "ticks": 204800,
          "time": 86.66582399999999,
          "velocity": 0.8661417322834646
        },
        {
          "duration": 0.24473409667967871,
          "durationTicks": 501,
          "midi": 60,
          "name": "C4",
          "ticks": 206336,
          "time": 87.4161465,
          "velocity": 0.8661417322834646
        },
        {
          "duration": 0.24473409667967871,
          "durationTicks": 501,
          "midi": 65,
          "name": "F4",
          "ticks": 206336,
          "time": 87.4161465,
          "velocity": 0.8661417322834646
        },
        {
          "duration": 0.6667905029297003,
          "durationTicks": 1365,
          "midi": 64,
          "name": "E4",
          "ticks": 206848,
          "time": 87.66625399999998,
          "velocity": 0.8661417322834646
        },
        {
          "duration": 0.6667905029297003,
          "durationTicks": 1365,
          "midi": 67,
          "name": "G4",
          "ticks": 206848,
          "time": 87.66625399999998,
          "velocity": 0.8661417322834646
        },
        {
          "duration": 0.24473409667967871,
          "durationTicks": 501,
          "midi": 60,
          "name": "C4",
          "ticks": 208384,
          "time": 88.41657649999999,
          "velocity": 0.8661417322834646
        },
        {
          "duration": 0.24473409667967871,
          "durationTicks": 501,
          "midi": 64,
          "name": "E4",
          "ticks": 208384,
          "time": 88.41657649999999,
          "velocity": 0.8661417322834646
        },
        {
          "duration": 0.3697878466796851,
          "durationTicks": 757,
          "midi": 65,
          "name": "F4",
          "ticks": 208896,
          "time": 88.666684,
          "velocity": 0.8661417322834646
        },
        {
          "duration": 0.11968034667967231,
          "durationTicks": 245,
          "midi": 67,
          "name": "G4",
          "ticks": 209664,
          "time": 89.04184525,
          "velocity": 0.8661417322834646
        },
        {
          "duration": 0.1035601367187553,
          "durationTicks": 212,
          "midi": 64,
          "name": "E4",
          "ticks": 210561,
          "time": 89.48002186621093,
          "velocity": 0.8661417322834646
        },
        {
          "duration": 0.1822072216796755,
          "durationTicks": 373,
          "midi": 64,
          "name": "E4",
          "ticks": 210944,
          "time": 89.667114,
          "velocity": 0.8661417322834646
        },
        {
          "duration": 0.05715347167969753,
          "durationTicks": 117,
          "midi": 65,
          "name": "F4",
          "ticks": 211328,
          "time": 89.85469462499998,
          "velocity": 0.8661417322834646
        },
        {
          "duration": 0.11968034667970073,
          "durationTicks": 245,
          "midi": 67,
          "name": "G4",
          "ticks": 211456,
          "time": 89.91722149999998,
          "velocity": 0.8661417322834646
        },
        {
          "duration": 0.11968034667970073,
          "durationTicks": 245,
          "midi": 68,
          "name": "G#4",
          "ticks": 211712,
          "time": 90.04227524999999,
          "velocity": 0.8661417322834646
        },
        {
          "duration": 0.6667905029297003,
          "durationTicks": 1365,
          "midi": 65,
          "name": "F4",
          "ticks": 212992,
          "time": 90.66754399999999,
          "velocity": 0.8661417322834646
        },
        {
          "duration": 0.6667905029297003,
          "durationTicks": 1365,
          "midi": 69,
          "name": "A4",
          "ticks": 212992,
          "time": 90.66754399999999,
          "velocity": 0.8661417322834646
        },
        {
          "duration": 0.24473409667967871,
          "durationTicks": 501,
          "midi": 65,
          "name": "F4",
          "ticks": 214528,
          "time": 91.4178665,
          "velocity": 0.8661417322834646
        },
        {
          "duration": 0.24473409667967871,
          "durationTicks": 501,
          "midi": 68,
          "name": "G#4",
          "ticks": 214528,
          "time": 91.4178665,
          "velocity": 0.8661417322834646
        },
        {
          "duration": 0.6667905029297003,
          "durationTicks": 1365,
          "midi": 64,
          "name": "E4",
          "ticks": 215040,
          "time": 91.66797399999999,
          "velocity": 0.8661417322834646
        },
        {
          "duration": 0.6667905029297003,
          "durationTicks": 1365,
          "midi": 67,
          "name": "G4",
          "ticks": 215040,
          "time": 91.66797399999999,
          "velocity": 0.8661417322834646
        },
        {
          "duration": 0.24473409667967871,
          "durationTicks": 501,
          "midi": 66,
          "name": "F#4",
          "ticks": 216576,
          "time": 92.4182965,
          "velocity": 0.8661417322834646
        },
        {
          "duration": 0.36978784667971354,
          "durationTicks": 757,
          "midi": 65,
          "name": "F4",
          "ticks": 217088,
          "time": 92.66840399999998,
          "velocity": 0.8661417322834646
        },
        {
          "duration": 0.3697878466796851,
          "durationTicks": 757,
          "midi": 64,
          "name": "E4",
          "ticks": 217856,
          "time": 93.04356525,
          "velocity": 0.8661417322834646
        },
        {
          "duration": 0.6667905029297003,
          "durationTicks": 1365,
          "midi": 60,
          "name": "C4",
          "ticks": 218624,
          "time": 93.41872649999999,
          "velocity": 0.8661417322834646
        },
        {
          "duration": 0.24473409667967871,
          "durationTicks": 501,
          "midi": 65,
          "name": "F4",
          "ticks": 221184,
          "time": 94.669264,
          "velocity": 0.8661417322834646
        },
        {
          "duration": 0.24473409667967871,
          "durationTicks": 501,
          "midi": 69,
          "name": "A4",
          "ticks": 221184,
          "time": 94.669264,
          "velocity": 0.8661417322834646
        },
        {
          "duration": 0.24473409667970714,
          "durationTicks": 501,
          "midi": 65,
          "name": "F4",
          "ticks": 221696,
          "time": 94.91937149999998,
          "velocity": 0.8661417322834646
        },
        {
          "duration": 0.24473409667970714,
          "durationTicks": 501,
          "midi": 69,
          "name": "A4",
          "ticks": 221696,
          "time": 94.91937149999998,
          "velocity": 0.8661417322834646
        },
        {
          "duration": 0.24473409667967871,
          "durationTicks": 501,
          "midi": 65,
          "name": "F4",
          "ticks": 222208,
          "time": 95.169479,
          "velocity": 0.8661417322834646
        },
        {
          "duration": 0.24473409667967871,
          "durationTicks": 501,
          "midi": 68,
          "name": "G#4",
          "ticks": 222208,
          "time": 95.169479,
          "velocity": 0.8661417322834646
        },
        {
          "duration": 0.24473409667970714,
          "durationTicks": 501,
          "midi": 65,
          "name": "F4",
          "ticks": 222720,
          "time": 95.41958649999998,
          "velocity": 0.8661417322834646
        },
        {
          "duration": 0.24473409667970714,
          "durationTicks": 501,
          "midi": 68,
          "name": "G#4",
          "ticks": 222720,
          "time": 95.41958649999998,
          "velocity": 0.8661417322834646
        },
        {
          "duration": 0.24473409667967871,
          "durationTicks": 501,
          "midi": 64,
          "name": "E4",
          "ticks": 223232,
          "time": 95.66969399999999,
          "velocity": 0.8661417322834646
        },
        {
          "duration": 0.24473409667967871,
          "durationTicks": 501,
          "midi": 67,
          "name": "G4",
          "ticks": 223232,
          "time": 95.66969399999999,
          "velocity": 0.8661417322834646
        },
        {
          "duration": 0.24473409667967871,
          "durationTicks": 501,
          "midi": 64,
          "name": "E4",
          "ticks": 223744,
          "time": 95.9198015,
          "velocity": 0.8661417322834646
        },
        {
          "duration": 0.24473409667967871,
          "durationTicks": 501,
          "midi": 67,
          "name": "G4",
          "ticks": 223744,
          "time": 95.9198015,
          "velocity": 0.8661417322834646
        },
        {
          "duration": 0.24473409667967871,
          "durationTicks": 501,
          "midi": 63,
          "name": "D#4",
          "ticks": 224256,
          "time": 96.16990899999999,
          "velocity": 0.8661417322834646
        },
        {
          "duration": 0.24473409667967871,
          "durationTicks": 501,
          "midi": 66,
          "name": "F#4",
          "ticks": 224256,
          "time": 96.16990899999999,
          "velocity": 0.8661417322834646
        },
        {
          "duration": 0.24473409667967871,
          "durationTicks": 501,
          "midi": 63,
          "name": "D#4",
          "ticks": 224768,
          "time": 96.4200165,
          "velocity": 0.8661417322834646
        },
        {
          "duration": 0.24473409667967871,
          "durationTicks": 501,
          "midi": 66,
          "name": "F#4",
          "ticks": 224768,
          "time": 96.4200165,
          "velocity": 0.8661417322834646
        },
        {
          "duration": 0.3697878466796851,
          "durationTicks": 757,
          "midi": 62,
          "name": "D4",
          "ticks": 225280,
          "time": 96.67012399999999,
          "velocity": 0.8661417322834646
        },
        {
          "duration": 0.3697878466796851,
          "durationTicks": 757,
          "midi": 65,
          "name": "F4",
          "ticks": 225280,
          "time": 96.67012399999999,
          "velocity": 0.8661417322834646
        },
        {
          "duration": 0.11968034667967231,
          "durationTicks": 245,
          "midi": 64,
          "name": "E4",
          "ticks": 226048,
          "time": 97.04528525,
          "velocity": 0.8661417322834646
        },
        {
          "duration": 0.11968034667967231,
          "durationTicks": 245,
          "midi": 67,
          "name": "G4",
          "ticks": 226048,
          "time": 97.04528525,
          "velocity": 0.8661417322834646
        },
        {
          "duration": 1.1254837500000008,
          "durationTicks": 2304,
          "midi": 60,
          "name": "C4",
          "ticks": 226816,
          "time": 97.4204465,
          "velocity": 0.8661417322834646
        },
        {
          "duration": 1.1254837500000008,
          "durationTicks": 2304,
          "midi": 64,
          "name": "E4",
          "ticks": 226816,
          "time": 97.4204465,
          "velocity": 0.8661417322834646
        },
        {
          "duration": 0.24473409667967871,
          "durationTicks": 501,
          "midi": 65,
          "name": "F4",
          "ticks": 229376,
          "time": 98.670984,
          "velocity": 0.8661417322834646
        },
        {
          "duration": 0.24473409667967871,
          "durationTicks": 501,
          "midi": 69,
          "name": "A4",
          "ticks": 229376,
          "time": 98.670984,
          "velocity": 0.8661417322834646
        },
        {
          "duration": 0.24473409667967871,
          "durationTicks": 501,
          "midi": 65,
          "name": "F4",
          "ticks": 229888,
          "time": 98.92109149999999,
          "velocity": 0.8661417322834646
        },
        {
          "duration": 0.24473409667967871,
          "durationTicks": 501,
          "midi": 69,
          "name": "A4",
          "ticks": 229888,
          "time": 98.92109149999999,
          "velocity": 0.8661417322834646
        },
        {
          "duration": 0.24473409667967871,
          "durationTicks": 501,
          "midi": 65,
          "name": "F4",
          "ticks": 230400,
          "time": 99.171199,
          "velocity": 0.8661417322834646
        },
        {
          "duration": 0.24473409667967871,
          "durationTicks": 501,
          "midi": 68,
          "name": "G#4",
          "ticks": 230400,
          "time": 99.171199,
          "velocity": 0.8661417322834646
        },
        {
          "duration": 0.24473409667970714,
          "durationTicks": 501,
          "midi": 65,
          "name": "F4",
          "ticks": 230912,
          "time": 99.42130649999999,
          "velocity": 0.8661417322834646
        },
        {
          "duration": 0.24473409667970714,
          "durationTicks": 501,
          "midi": 68,
          "name": "G#4",
          "ticks": 230912,
          "time": 99.42130649999999,
          "velocity": 0.8661417322834646
        },
        {
          "duration": 0.24473409667967871,
          "durationTicks": 501,
          "midi": 64,
          "name": "E4",
          "ticks": 231424,
          "time": 99.671414,
          "velocity": 0.8661417322834646
        },
        {
          "duration": 0.24473409667967871,
          "durationTicks": 501,
          "midi": 67,
          "name": "G4",
          "ticks": 231424,
          "time": 99.671414,
          "velocity": 0.8661417322834646
        },
        {
          "duration": 0.24473409667970714,
          "durationTicks": 501,
          "midi": 64,
          "name": "E4",
          "ticks": 231936,
          "time": 99.92152149999998,
          "velocity": 0.8661417322834646
        },
        {
          "duration": 0.24473409667970714,
          "durationTicks": 501,
          "midi": 67,
          "name": "G4",
          "ticks": 231936,
          "time": 99.92152149999998,
          "velocity": 0.8661417322834646
        },
        {
          "duration": 0.24473409667967871,
          "durationTicks": 501,
          "midi": 63,
          "name": "D#4",
          "ticks": 232448,
          "time": 100.171629,
          "velocity": 0.8661417322834646
        },
        {
          "duration": 0.24473409667967871,
          "durationTicks": 501,
          "midi": 66,
          "name": "F#4",
          "ticks": 232448,
          "time": 100.171629,
          "velocity": 0.8661417322834646
        },
        {
          "duration": 0.24473409667970714,
          "durationTicks": 501,
          "midi": 63,
          "name": "D#4",
          "ticks": 232960,
          "time": 100.42173649999998,
          "velocity": 0.8661417322834646
        },
        {
          "duration": 0.24473409667970714,
          "durationTicks": 501,
          "midi": 66,
          "name": "F#4",
          "ticks": 232960,
          "time": 100.42173649999998,
          "velocity": 0.8661417322834646
        },
        {
          "duration": 0.3697878466796851,
          "durationTicks": 757,
          "midi": 62,
          "name": "D4",
          "ticks": 233472,
          "time": 100.671844,
          "velocity": 0.8661417322834646
        },
        {
          "duration": 0.3697878466796851,
          "durationTicks": 757,
          "midi": 65,
          "name": "F4",
          "ticks": 233472,
          "time": 100.671844,
          "velocity": 0.8661417322834646
        },
        {
          "duration": 0.11968034667970073,
          "durationTicks": 245,
          "midi": 60,
          "name": "C4",
          "ticks": 234240,
          "time": 101.04700524999998,
          "velocity": 0.8661417322834646
        },
        {
          "duration": 0.11968034667970073,
          "durationTicks": 245,
          "midi": 64,
          "name": "E4",
          "ticks": 234240,
          "time": 101.04700524999998,
          "velocity": 0.8661417322834646
        },
        {
          "duration": 1.1254837500000008,
          "durationTicks": 2304,
          "midi": 55,
          "name": "G3",
          "ticks": 235008,
          "time": 101.4221665,
          "velocity": 0.8661417322834646
        },
        {
          "duration": 1.1254837500000008,
          "durationTicks": 2304,
          "midi": 60,
          "name": "C4",
          "ticks": 235008,
          "time": 101.4221665,
          "velocity": 0.8661417322834646
        },
        {
          "duration": 0.11968034667970073,
          "durationTicks": 245,
          "midi": 60,
          "name": "C4",
          "ticks": 237568,
          "time": 102.67270399999998,
          "velocity": 0.8661417322834646
        },
        {
          "duration": 0.24473409667967871,
          "durationTicks": 501,
          "midi": 52,
          "name": "E3",
          "ticks": 237824,
          "time": 102.79775774999999,
          "velocity": 0.8661417322834646
        },
        {
          "duration": 0.11968034667967231,
          "durationTicks": 245,
          "midi": 58,
          "name": "A#3",
          "ticks": 238336,
          "time": 103.04786525,
          "velocity": 0.8661417322834646
        },
        {
          "duration": 0.11968034667967231,
          "durationTicks": 245,
          "midi": 60,
          "name": "C4",
          "ticks": 239616,
          "time": 103.673134,
          "velocity": 0.8661417322834646
        },
        {
          "duration": 0.24473409667970714,
          "durationTicks": 501,
          "midi": 52,
          "name": "E3",
          "ticks": 239872,
          "time": 103.79818774999998,
          "velocity": 0.8661417322834646
        },
        {
          "duration": 0.11968034667967231,
          "durationTicks": 245,
          "midi": 58,
          "name": "A#3",
          "ticks": 240384,
          "time": 104.04829525,
          "velocity": 0.8661417322834646
        },
        {
          "duration": 0.11968034667967231,
          "durationTicks": 245,
          "midi": 57,
          "name": "A3",
          "ticks": 241664,
          "time": 104.673564,
          "velocity": 0.8661417322834646
        },
        {
          "duration": 0.24473409667967871,
          "durationTicks": 501,
          "midi": 48,
          "name": "C3",
          "ticks": 241920,
          "time": 104.79861775,
          "velocity": 0.8661417322834646
        },
        {
          "duration": 0.11968034667970073,
          "durationTicks": 245,
          "midi": 51,
          "name": "D#3",
          "ticks": 242432,
          "time": 105.04872524999999,
          "velocity": 0.8661417322834646
        },
        {
          "duration": 0.11968034667967231,
          "durationTicks": 245,
          "midi": 57,
          "name": "A3",
          "ticks": 243712,
          "time": 105.673994,
          "velocity": 0.8661417322834646
        },
        {
          "duration": 0.24473409667967871,
          "durationTicks": 501,
          "midi": 48,
          "name": "C3",
          "ticks": 243968,
          "time": 105.79904775,
          "velocity": 0.8661417322834646
        },
        {
          "duration": 0.11968034667970073,
          "durationTicks": 245,
          "midi": 51,
          "name": "D#3",
          "ticks": 244480,
          "time": 106.04915524999998,
          "velocity": 0.8661417322834646
        },
        {
          "duration": 0.11968034667970073,
          "durationTicks": 245,
          "midi": 60,
          "name": "C4",
          "ticks": 245760,
          "time": 106.67442399999999,
          "velocity": 0.8661417322834646
        },
        {
          "duration": 0.24473409667967871,
          "durationTicks": 501,
          "midi": 52,
          "name": "E3",
          "ticks": 246016,
          "time": 106.79947775,
          "velocity": 0.8661417322834646
        },
        {
          "duration": 0.11968034667970073,
          "durationTicks": 245,
          "midi": 58,
          "name": "A#3",
          "ticks": 246528,
          "time": 107.04958524999998,
          "velocity": 0.8661417322834646
        },
        {
          "duration": 0.11968034667970073,
          "durationTicks": 245,
          "midi": 60,
          "name": "C4",
          "ticks": 247808,
          "time": 107.67485399999998,
          "velocity": 0.8661417322834646
        },
        {
          "duration": 0.24473409667967871,
          "durationTicks": 501,
          "midi": 52,
          "name": "E3",
          "ticks": 248064,
          "time": 107.79990774999999,
          "velocity": 0.8661417322834646
        },
        {
          "duration": 0.11968034667967231,
          "durationTicks": 245,
          "midi": 58,
          "name": "A#3",
          "ticks": 248576,
          "time": 108.05001525,
          "velocity": 0.8661417322834646
        },
        {
          "duration": 0.24473409667967871,
          "durationTicks": 501,
          "midi": 53,
          "name": "F3",
          "ticks": 249856,
          "time": 108.675284,
          "velocity": 0.8661417322834646
        },
        {
          "duration": 0.24473409667967871,
          "durationTicks": 501,
          "midi": 57,
          "name": "A3",
          "ticks": 249856,
          "time": 108.675284,
          "velocity": 0.8661417322834646
        },
        {
          "duration": 0.24473409667967871,
          "durationTicks": 501,
          "midi": 53,
          "name": "F3",
          "ticks": 250368,
          "time": 108.92539149999999,
          "velocity": 0.8661417322834646
        },
        {
          "duration": 0.24473409667967871,
          "durationTicks": 501,
          "midi": 57,
          "name": "A3",
          "ticks": 250368,
          "time": 108.92539149999999,
          "velocity": 0.8661417322834646
        },
        {
          "duration": 0.24473409667967871,
          "durationTicks": 501,
          "midi": 53,
          "name": "F3",
          "ticks": 250880,
          "time": 109.175499,
          "velocity": 0.8661417322834646
        },
        {
          "duration": 0.24473409667967871,
          "durationTicks": 501,
          "midi": 57,
          "name": "A3",
          "ticks": 250880,
          "time": 109.175499,
          "velocity": 0.8661417322834646
        },
        {
          "duration": 0.24473409667970714,
          "durationTicks": 501,
          "midi": 53,
          "name": "F3",
          "ticks": 251392,
          "time": 109.42560649999999,
          "velocity": 0.8661417322834646
        },
        {
          "duration": 0.24473409667970714,
          "durationTicks": 501,
          "midi": 57,
          "name": "A3",
          "ticks": 251392,
          "time": 109.42560649999999,
          "velocity": 0.8661417322834646
        },
        {
          "duration": 0.4166830029296875,
          "durationTicks": 853,
          "midi": 53,
          "name": "F3",
          "ticks": 251904,
          "time": 109.675714,
          "velocity": 0.8661417322834646
        },
        {
          "duration": 0.4166830029296875,
          "durationTicks": 853,
          "midi": 56,
          "name": "G#3",
          "ticks": 251904,
          "time": 109.675714,
          "velocity": 0.8661417322834646
        },
        {
          "duration": 0.05715347167966911,
          "durationTicks": 117,
          "midi": 55,
          "name": "G3",
          "ticks": 252928,
          "time": 110.175929,
          "velocity": 0.8661417322834646
        },
        {
          "duration": 0.05715347167966911,
          "durationTicks": 117,
          "midi": 53,
          "name": "F3",
          "ticks": 253056,
          "time": 110.238455875,
          "velocity": 0.8661417322834646
        },
        {
          "duration": 0.05715347167966911,
          "durationTicks": 117,
          "midi": 52,
          "name": "E3",
          "ticks": 253184,
          "time": 110.30098275,
          "velocity": 0.8661417322834646
        },
        {
          "duration": 0.05715347167966911,
          "durationTicks": 117,
          "midi": 50,
          "name": "D3",
          "ticks": 253312,
          "time": 110.363509625,
          "velocity": 0.8661417322834646
        },
        {
          "duration": 0.05715347167969753,
          "durationTicks": 117,
          "midi": 48,
          "name": "C3",
          "ticks": 253440,
          "time": 110.42603649999998,
          "velocity": 0.8661417322834646
        },
        {
          "duration": 0.05715347167969753,
          "durationTicks": 117,
          "midi": 46,
          "name": "A#2",
          "ticks": 253568,
          "time": 110.48856337499998,
          "velocity": 0.8661417322834646
        },
        {
          "duration": 0.11968034667970073,
          "durationTicks": 245,
          "midi": 43,
          "name": "G2",
          "ticks": 253696,
          "time": 110.55109024999999,
          "velocity": 0.8661417322834646
        },
        {
          "duration": 0.11968034667967231,
          "durationTicks": 245,
          "midi": 60,
          "name": "C4",
          "ticks": 253952,
          "time": 110.676144,
          "velocity": 0.8661417322834646
        },
        {
          "duration": 0.24473409667967871,
          "durationTicks": 501,
          "midi": 52,
          "name": "E3",
          "ticks": 254208,
          "time": 110.80119775,
          "velocity": 0.8661417322834646
        },
        {
          "duration": 0.11968034667970073,
          "durationTicks": 245,
          "midi": 58,
          "name": "A#3",
          "ticks": 254720,
          "time": 111.05130524999998,
          "velocity": 0.8661417322834646
        },
        {
          "duration": 0.11968034667970073,
          "durationTicks": 245,
          "midi": 60,
          "name": "C4",
          "ticks": 256000,
          "time": 111.67657399999999,
          "velocity": 0.8661417322834646
        },
        {
          "duration": 0.24473409667967871,
          "durationTicks": 501,
          "midi": 52,
          "name": "E3",
          "ticks": 256256,
          "time": 111.80162775,
          "velocity": 0.8661417322834646
        },
        {
          "duration": 0.11968034667970073,
          "durationTicks": 245,
          "midi": 58,
          "name": "A#3",
          "ticks": 256768,
          "time": 112.05173524999998,
          "velocity": 0.8661417322834646
        },
        {
          "duration": 0.11968034667970073,
          "durationTicks": 245,
          "midi": 57,
          "name": "A3",
          "ticks": 258048,
          "time": 112.67700399999998,
          "velocity": 0.8661417322834646
        },
        {
          "duration": 0.24473409667967871,
          "durationTicks": 501,
          "midi": 48,
          "name": "C3",
          "ticks": 258304,
          "time": 112.80205774999999,
          "velocity": 0.8661417322834646
        },
        {
          "duration": 0.11968034667967231,
          "durationTicks": 245,
          "midi": 51,
          "name": "D#3",
          "ticks": 258816,
          "time": 113.05216525,
          "velocity": 0.8661417322834646
        },
        {
          "duration": 0.11968034667967231,
          "durationTicks": 245,
          "midi": 57,
          "name": "A3",
          "ticks": 260096,
          "time": 113.677434,
          "velocity": 0.8661417322834646
        },
        {
          "duration": 0.24473409667970714,
          "durationTicks": 501,
          "midi": 48,
          "name": "C3",
          "ticks": 260352,
          "time": 113.80248774999998,
          "velocity": 0.8661417322834646
        },
        {
          "duration": 0.11968034667967231,
          "durationTicks": 245,
          "midi": 51,
          "name": "D#3",
          "ticks": 260864,
          "time": 114.05259525,
          "velocity": 0.8661417322834646
        },
        {
          "duration": 0.11968034667967231,
          "durationTicks": 245,
          "midi": 60,
          "name": "C4",
          "ticks": 262144,
          "time": 114.677864,
          "velocity": 0.8661417322834646
        },
        {
          "duration": 0.24473409667970714,
          "durationTicks": 501,
          "midi": 52,
          "name": "E3",
          "ticks": 262400,
          "time": 114.80291774999998,
          "velocity": 0.8661417322834646
        },
        {
          "duration": 0.11968034667970073,
          "durationTicks": 245,
          "midi": 58,
          "name": "A#3",
          "ticks": 262912,
          "time": 115.05302524999999,
          "velocity": 0.8661417322834646
        },
        {
          "duration": 0.11968034667967231,
          "durationTicks": 245,
          "midi": 60,
          "name": "C4",
          "ticks": 264192,
          "time": 115.678294,
          "velocity": 0.8661417322834646
        },
        {
          "duration": 0.24473409667967871,
          "durationTicks": 501,
          "midi": 52,
          "name": "E3",
          "ticks": 264448,
          "time": 115.80334775,
          "velocity": 0.8661417322834646
        },
        {
          "duration": 0.11968034667970073,
          "durationTicks": 245,
          "midi": 58,
          "name": "A#3",
          "ticks": 264960,
          "time": 116.05345524999998,
          "velocity": 0.8661417322834646
        },
        {
          "duration": 0.3571570976562555,
          "durationTicks": 853,
          "midi": 52,
          "name": "E3",
          "ticks": 266240,
          "time": 116.67872399999999,
          "velocity": 0.8661417322834646
        },
        {
          "duration": 0.3571570976562555,
          "durationTicks": 853,
          "midi": 60,
          "name": "C4",
          "ticks": 266240,
          "time": 116.67872399999999,
          "velocity": 0.8661417322834646
        },
        {
          "duration": 0.20977222265624107,
          "durationTicks": 501,
          "midi": 53,
          "name": "F3",
          "ticks": 267776,
          "time": 117.32185799999999,
          "velocity": 0.8661417322834646
        },
        {
          "duration": 0.20977222265624107,
          "durationTicks": 501,
          "midi": 60,
          "name": "C4",
          "ticks": 267776,
          "time": 117.32185799999999,
          "velocity": 0.8661417322834646
        },
        {
          "duration": 0.20977222265625528,
          "durationTicks": 501,
          "midi": 52,
          "name": "E3",
          "ticks": 268800,
          "time": 117.75061399999998,
          "velocity": 0.8661417322834646
        },
        {
          "duration": 0.20977222265625528,
          "durationTicks": 501,
          "midi": 60,
          "name": "C4",
          "ticks": 268800,
          "time": 117.75061399999998,
          "velocity": 0.8661417322834646
        },
        {
          "duration": 0.20977222265624107,
          "durationTicks": 501,
          "midi": 51,
          "name": "D#3",
          "ticks": 269824,
          "time": 118.17936999999999,
          "velocity": 0.8661417322834646
        },
        {
          "duration": 0.20977222265624107,
          "durationTicks": 501,
          "midi": 55,
          "name": "G3",
          "ticks": 269824,
          "time": 118.17936999999999,
          "velocity": 0.8661417322834646
        },
        {
          "duration": 0.20977222265625528,
          "durationTicks": 501,
          "midi": 52,
          "name": "E3",
          "ticks": 270336,
          "time": 118.39374799999999,
          "velocity": 0.8661417322834646
        },
        {
          "duration": 0.20977222265625528,
          "durationTicks": 501,
          "midi": 60,
          "name": "C4",
          "ticks": 270336,
          "time": 118.39374799999999,
          "velocity": 0.8661417322834646
        },
        {
          "duration": 0.20977222265625528,
          "durationTicks": 501,
          "midi": 55,
          "name": "G3",
          "ticks": 270848,
          "time": 118.60812599999998,
          "velocity": 0.8661417322834646
        },
        {
          "duration": 0.20977222265625528,
          "durationTicks": 501,
          "midi": 60,
          "name": "C4",
          "ticks": 270848,
          "time": 118.60812599999998,
          "velocity": 0.8661417322834646
        },
        {
          "duration": 0.35715709765624126,
          "durationTicks": 853,
          "midi": 60,
          "name": "C4",
          "ticks": 271360,
          "time": 118.822504,
          "velocity": 0.8661417322834646
        },
        {
          "duration": 0.3571570976562555,
          "durationTicks": 853,
          "midi": 50,
          "name": "D3",
          "ticks": 274432,
          "time": 120.10877199999999,
          "velocity": 0.8661417322834646
        },
        {
          "duration": 0.3571570976562555,
          "durationTicks": 853,
          "midi": 59,
          "name": "B3",
          "ticks": 274432,
          "time": 120.10877199999999,
          "velocity": 0.8661417322834646
        },
        {
          "duration": 0.20977222265624107,
          "durationTicks": 501,
          "midi": 52,
          "name": "E3",
          "ticks": 275968,
          "time": 120.75190599999999,
          "velocity": 0.8661417322834646
        },
        {
          "duration": 0.20977222265624107,
          "durationTicks": 501,
          "midi": 59,
          "name": "B3",
          "ticks": 275968,
          "time": 120.75190599999999,
          "velocity": 0.8661417322834646
        },
        {
          "duration": 0.20977222265625528,
          "durationTicks": 501,
          "midi": 50,
          "name": "D3",
          "ticks": 276992,
          "time": 121.18066199999998,
          "velocity": 0.8661417322834646
        },
        {
          "duration": 0.20977222265625528,
          "durationTicks": 501,
          "midi": 59,
          "name": "B3",
          "ticks": 276992,
          "time": 121.18066199999998,
          "velocity": 0.8661417322834646
        },
        {
          "duration": 0.20977222265624107,
          "durationTicks": 501,
          "midi": 49,
          "name": "C#3",
          "ticks": 278016,
          "time": 121.60941799999999,
          "velocity": 0.8661417322834646
        },
        {
          "duration": 0.20977222265624107,
          "durationTicks": 501,
          "midi": 55,
          "name": "G3",
          "ticks": 278016,
          "time": 121.60941799999999,
          "velocity": 0.8661417322834646
        },
        {
          "duration": 0.20977222265625528,
          "durationTicks": 501,
          "midi": 50,
          "name": "D3",
          "ticks": 278528,
          "time": 121.82379599999999,
          "velocity": 0.8661417322834646
        },
        {
          "duration": 0.20977222265625528,
          "durationTicks": 501,
          "midi": 59,
          "name": "B3",
          "ticks": 278528,
          "time": 121.82379599999999,
          "velocity": 0.8661417322834646
        },
        {
          "duration": 0.20977222265625528,
          "durationTicks": 501,
          "midi": 55,
          "name": "G3",
          "ticks": 279040,
          "time": 122.03817399999998,
          "velocity": 0.8661417322834646
        },
        {
          "duration": 0.20977222265625528,
          "durationTicks": 501,
          "midi": 59,
          "name": "B3",
          "ticks": 279040,
          "time": 122.03817399999998,
          "velocity": 0.8661417322834646
        },
        {
          "duration": 0.35715709765624126,
          "durationTicks": 853,
          "midi": 59,
          "name": "B3",
          "ticks": 279552,
          "time": 122.252552,
          "velocity": 0.8661417322834646
        },
        {
          "duration": 0.3571570976562555,
          "durationTicks": 853,
          "midi": 48,
          "name": "C3",
          "ticks": 282624,
          "time": 123.53881999999999,
          "velocity": 0.8661417322834646
        },
        {
          "duration": 0.3571570976562555,
          "durationTicks": 853,
          "midi": 57,
          "name": "A3",
          "ticks": 282624,
          "time": 123.53881999999999,
          "velocity": 0.8661417322834646
        },
        {
          "duration": 0.20977222265624107,
          "durationTicks": 501,
          "midi": 50,
          "name": "D3",
          "ticks": 284160,
          "time": 124.18195399999999,
          "velocity": 0.8661417322834646
        },
        {
          "duration": 0.20977222265624107,
          "durationTicks": 501,
          "midi": 57,
          "name": "A3",
          "ticks": 284160,
          "time": 124.18195399999999,
          "velocity": 0.8661417322834646
        },
        {
          "duration": 0.20977222265625528,
          "durationTicks": 501,
          "midi": 48,
          "name": "C3",
          "ticks": 285184,
          "time": 124.61070999999998,
          "velocity": 0.8661417322834646
        },
        {
          "duration": 0.20977222265625528,
          "durationTicks": 501,
          "midi": 57,
          "name": "A3",
          "ticks": 285184,
          "time": 124.61070999999998,
          "velocity": 0.8661417322834646
        },
        {
          "duration": 0.20977222265624107,
          "durationTicks": 501,
          "midi": 47,
          "name": "B2",
          "ticks": 286208,
          "time": 125.03946599999999,
          "velocity": 0.8661417322834646
        },
        {
          "duration": 0.20977222265624107,
          "durationTicks": 501,
          "midi": 52,
          "name": "E3",
          "ticks": 286208,
          "time": 125.03946599999999,
          "velocity": 0.8661417322834646
        },
        {
          "duration": 0.20977222265625528,
          "durationTicks": 501,
          "midi": 48,
          "name": "C3",
          "ticks": 286720,
          "time": 125.25384399999999,
          "velocity": 0.8661417322834646
        },
        {
          "duration": 0.20977222265625528,
          "durationTicks": 501,
          "midi": 57,
          "name": "A3",
          "ticks": 286720,
          "time": 125.25384399999999,
          "velocity": 0.8661417322834646
        },
        {
          "duration": 0.20977222265625528,
          "durationTicks": 501,
          "midi": 52,
          "name": "E3",
          "ticks": 287232,
          "time": 125.46822199999998,
          "velocity": 0.8661417322834646
        },
        {
          "duration": 0.20977222265625528,
          "durationTicks": 501,
          "midi": 57,
          "name": "A3",
          "ticks": 287232,
          "time": 125.46822199999998,
          "velocity": 0.8661417322834646
        },
        {
          "duration": 0.35715709765624126,
          "durationTicks": 853,
          "midi": 57,
          "name": "A3",
          "ticks": 287744,
          "time": 125.6826,
          "velocity": 0.8661417322834646
        },
        {
          "duration": 0.20977222265625528,
          "durationTicks": 501,
          "midi": 48,
          "name": "C3",
          "ticks": 289280,
          "time": 126.32573399999998,
          "velocity": 0.8661417322834646
        },
        {
          "duration": 0.20977222265625528,
          "durationTicks": 501,
          "midi": 57,
          "name": "A3",
          "ticks": 289280,
          "time": 126.32573399999998,
          "velocity": 0.8661417322834646
        },
        {
          "duration": 0.20977222265624107,
          "durationTicks": 501,
          "midi": 50,
          "name": "D3",
          "ticks": 289792,
          "time": 126.540112,
          "velocity": 0.8661417322834646
        },
        {
          "duration": 0.20977222265624107,
          "durationTicks": 501,
          "midi": 59,
          "name": "B3",
          "ticks": 289792,
          "time": 126.540112,
          "velocity": 0.8661417322834646
        },
        {
          "duration": 0.20977222265624107,
          "durationTicks": 501,
          "midi": 52,
          "name": "E3",
          "ticks": 290304,
          "time": 126.75448999999999,
          "velocity": 0.8661417322834646
        },
        {
          "duration": 0.20977222265624107,
          "durationTicks": 501,
          "midi": 60,
          "name": "C4",
          "ticks": 290304,
          "time": 126.75448999999999,
          "velocity": 0.8661417322834646
        },
        {
          "duration": 0.20977222265625528,
          "durationTicks": 501,
          "midi": 54,
          "name": "F#3",
          "ticks": 290816,
          "time": 126.96886799999999,
          "velocity": 0.8661417322834646
        },
        {
          "duration": 0.20977222265625528,
          "durationTicks": 501,
          "midi": 62,
          "name": "D4",
          "ticks": 290816,
          "time": 126.96886799999999,
          "velocity": 0.8661417322834646
        },
        {
          "duration": 0.20977222265625528,
          "durationTicks": 501,
          "midi": 54,
          "name": "F#3",
          "ticks": 291328,
          "time": 127.18324599999998,
          "velocity": 0.8661417322834646
        },
        {
          "duration": 0.20977222265625528,
          "durationTicks": 501,
          "midi": 60,
          "name": "C4",
          "ticks": 291328,
          "time": 127.18324599999998,
          "velocity": 0.8661417322834646
        },
        {
          "duration": 0.20977222265624107,
          "durationTicks": 501,
          "midi": 54,
          "name": "F#3",
          "ticks": 291840,
          "time": 127.397624,
          "velocity": 0.8661417322834646
        },
        {
          "duration": 0.20977222265624107,
          "durationTicks": 501,
          "midi": 62,
          "name": "D4",
          "ticks": 291840,
          "time": 127.397624,
          "velocity": 0.8661417322834646
        },
        {
          "duration": 0.4241502226562375,
          "durationTicks": 1013,
          "midi": 54,
          "name": "F#3",
          "ticks": 292352,
          "time": 127.61200199999999,
          "velocity": 0.8661417322834646
        },
        {
          "duration": 0.4241502226562375,
          "durationTicks": 1013,
          "midi": 60,
          "name": "C4",
          "ticks": 292352,
          "time": 127.61200199999999,
          "velocity": 0.8661417322834646
        },
        {
          "duration": 0.20977222265625528,
          "durationTicks": 501,
          "midi": 50,
          "name": "D3",
          "ticks": 293376,
          "time": 128.04075799999998,
          "velocity": 0.8661417322834646
        },
        {
          "duration": 0.20977222265625528,
          "durationTicks": 501,
          "midi": 57,
          "name": "A3",
          "ticks": 293376,
          "time": 128.04075799999998,
          "velocity": 0.8661417322834646
        },
        {
          "duration": 0.20977222265625528,
          "durationTicks": 501,
          "midi": 48,
          "name": "C3",
          "ticks": 293888,
          "time": 128.255136,
          "velocity": 0.8661417322834646
        },
        {
          "duration": 0.20977222265625528,
          "durationTicks": 501,
          "midi": 54,
          "name": "F#3",
          "ticks": 293888,
          "time": 128.255136,
          "velocity": 0.8661417322834646
        },
        {
          "duration": 0.20977222265625528,
          "durationTicks": 501,
          "midi": 45,
          "name": "A2",
          "ticks": 294400,
          "time": 128.46951399999998,
          "velocity": 0.8661417322834646
        },
        {
          "duration": 0.20977222265625528,
          "durationTicks": 501,
          "midi": 50,
          "name": "D3",
          "ticks": 294400,
          "time": 128.46951399999998,
          "velocity": 0.8661417322834646
        },
        {
          "duration": 0.20977222265625528,
          "durationTicks": 501,
          "midi": 45,
          "name": "A2",
          "ticks": 294912,
          "time": 128.683892,
          "velocity": 0.8661417322834646
        },
        {
          "duration": 0.20977222265625528,
          "durationTicks": 501,
          "midi": 50,
          "name": "D3",
          "ticks": 294912,
          "time": 128.683892,
          "velocity": 0.8661417322834646
        },
        {
          "duration": 0.20977222265625528,
          "durationTicks": 501,
          "midi": 47,
          "name": "B2",
          "ticks": 295424,
          "time": 128.89827,
          "velocity": 0.8661417322834646
        },
        {
          "duration": 0.20977222265625528,
          "durationTicks": 501,
          "midi": 52,
          "name": "E3",
          "ticks": 295424,
          "time": 128.89827,
          "velocity": 0.8661417322834646
        },
        {
          "duration": 0.20977222265625528,
          "durationTicks": 501,
          "midi": 49,
          "name": "C#3",
          "ticks": 295936,
          "time": 129.11264799999998,
          "velocity": 0.8661417322834646
        },
        {
          "duration": 0.20977222265625528,
          "durationTicks": 501,
          "midi": 53,
          "name": "F3",
          "ticks": 295936,
          "time": 129.11264799999998,
          "velocity": 0.8661417322834646
        },
        {
          "duration": 0.9647009999999909,
          "durationTicks": 2304,
          "midi": 50,
          "name": "D3",
          "ticks": 296448,
          "time": 129.327026,
          "velocity": 0.8661417322834646
        },
        {
          "duration": 0.9647009999999909,
          "durationTicks": 2304,
          "midi": 54,
          "name": "F#3",
          "ticks": 296448,
          "time": 129.327026,
          "velocity": 0.8661417322834646
        },
        {
          "duration": 0.20977222265625528,
          "durationTicks": 501,
          "midi": 43,
          "name": "G2",
          "ticks": 299008,
          "time": 130.39891599999999,
          "velocity": 0.8661417322834646
        },
        {
          "duration": 0.20977222265622686,
          "durationTicks": 501,
          "midi": 50,
          "name": "D3",
          "ticks": 299520,
          "time": 130.613294,
          "velocity": 0.8661417322834646
        },
        {
          "duration": 0.3571570976562555,
          "durationTicks": 853,
          "midi": 55,
          "name": "G3",
          "ticks": 300032,
          "time": 130.82767199999998,
          "velocity": 0.8661417322834646
        },
        {
          "duration": 0.20977222265625528,
          "durationTicks": 501,
          "midi": 43,
          "name": "G2",
          "ticks": 303104,
          "time": 132.11393999999999,
          "velocity": 0.8661417322834646
        },
        {
          "duration": 0.20977222265622686,
          "durationTicks": 501,
          "midi": 50,
          "name": "D3",
          "ticks": 303616,
          "time": 132.328318,
          "velocity": 0.8661417322834646
        },
        {
          "duration": 0.3571570976562555,
          "durationTicks": 853,
          "midi": 55,
          "name": "G3",
          "ticks": 304128,
          "time": 132.54269599999998,
          "velocity": 0.8661417322834646
        },
        {
          "duration": 0.20977222265625528,
          "durationTicks": 501,
          "midi": 41,
          "name": "F2",
          "ticks": 307200,
          "time": 133.82896399999998,
          "velocity": 0.8661417322834646
        },
        {
          "duration": 0.20977222265622686,
          "durationTicks": 501,
          "midi": 48,
          "name": "C3",
          "ticks": 307712,
          "time": 134.043342,
          "velocity": 0.8661417322834646
        },
        {
          "duration": 0.3571570976562555,
          "durationTicks": 853,
          "midi": 53,
          "name": "F3",
          "ticks": 308224,
          "time": 134.25771999999998,
          "velocity": 0.8661417322834646
        },
        {
          "duration": 0.20977222265625528,
          "durationTicks": 501,
          "midi": 41,
          "name": "F2",
          "ticks": 311296,
          "time": 135.54398799999998,
          "velocity": 0.8661417322834646
        },
        {
          "duration": 0.20977222265622686,
          "durationTicks": 501,
          "midi": 48,
          "name": "C3",
          "ticks": 311808,
          "time": 135.758366,
          "velocity": 0.8661417322834646
        },
        {
          "duration": 0.3571570976562555,
          "durationTicks": 853,
          "midi": 53,
          "name": "F3",
          "ticks": 312320,
          "time": 135.97274399999998,
          "velocity": 0.8661417322834646
        },
        {
          "duration": 0.3571570976562555,
          "durationTicks": 853,
          "midi": 48,
          "name": "C3",
          "ticks": 314368,
          "time": 136.830256,
          "velocity": 0.8661417322834646
        },
        {
          "duration": 0.20977222265625528,
          "durationTicks": 501,
          "midi": 43,
          "name": "G2",
          "ticks": 315392,
          "time": 137.25901199999998,
          "velocity": 0.8661417322834646
        },
        {
          "duration": 0.20977222265622686,
          "durationTicks": 501,
          "midi": 50,
          "name": "D3",
          "ticks": 315904,
          "time": 137.47339,
          "velocity": 0.8661417322834646
        },
        {
          "duration": 0.3571570976562555,
          "durationTicks": 853,
          "midi": 55,
          "name": "G3",
          "ticks": 316416,
          "time": 137.68776799999998,
          "velocity": 0.8661417322834646
        },
        {
          "duration": 0.20977222265625528,
          "durationTicks": 501,
          "midi": 43,
          "name": "G2",
          "ticks": 319488,
          "time": 138.97403599999998,
          "velocity": 0.8661417322834646
        },
        {
          "duration": 0.20977222265625528,
          "durationTicks": 501,
          "midi": 50,
          "name": "D3",
          "ticks": 320000,
          "time": 139.188414,
          "velocity": 0.8661417322834646
        },
        {
          "duration": 0.3571570976562555,
          "durationTicks": 853,
          "midi": 55,
          "name": "G3",
          "ticks": 320512,
          "time": 139.40279199999998,
          "velocity": 0.8661417322834646
        },
        {
          "duration": 0.20977222265625528,
          "durationTicks": 501,
          "midi": 41,
          "name": "F2",
          "ticks": 323584,
          "time": 140.68905999999998,
          "velocity": 0.8661417322834646
        },
        {
          "duration": 0.20977222265622686,
          "durationTicks": 501,
          "midi": 48,
          "name": "C3",
          "ticks": 324096,
          "time": 140.903438,
          "velocity": 0.8661417322834646
        },
        {
          "duration": 0.3571570976562555,
          "durationTicks": 853,
          "midi": 53,
          "name": "F3",
          "ticks": 324608,
          "time": 141.11781599999998,
          "velocity": 0.8661417322834646
        },
        {
          "duration": 0.20977222265625528,
          "durationTicks": 501,
          "midi": 41,
          "name": "F2",
          "ticks": 327680,
          "time": 142.40408399999998,
          "velocity": 0.8661417322834646
        },
        {
          "duration": 0.20977222265625528,
          "durationTicks": 501,
          "midi": 48,
          "name": "C3",
          "ticks": 328192,
          "time": 142.618462,
          "velocity": 0.8661417322834646
        },
        {
          "duration": 0.3571570976562555,
          "durationTicks": 853,
          "midi": 53,
          "name": "F3",
          "ticks": 328704,
          "time": 142.83283999999998,
          "velocity": 0.8661417322834646
        },
        {
          "duration": 0.20977222265625528,
          "durationTicks": 501,
          "midi": 39,
          "name": "D#2",
          "ticks": 331776,
          "time": 144.11910799999998,
          "velocity": 0.8661417322834646
        },
        {
          "duration": 0.20977222265622686,
          "durationTicks": 501,
          "midi": 46,
          "name": "A#2",
          "ticks": 332288,
          "time": 144.333486,
          "velocity": 0.8661417322834646
        },
        {
          "duration": 0.3571570976562555,
          "durationTicks": 853,
          "midi": 51,
          "name": "D#3",
          "ticks": 332800,
          "time": 144.54786399999998,
          "velocity": 0.8661417322834646
        },
        {
          "duration": 0.20977222265625528,
          "durationTicks": 501,
          "midi": 39,
          "name": "D#2",
          "ticks": 335872,
          "time": 145.83413199999998,
          "velocity": 0.8661417322834646
        },
        {
          "duration": 0.20977222265625528,
          "durationTicks": 501,
          "midi": 46,
          "name": "A#2",
          "ticks": 336384,
          "time": 146.04851,
          "velocity": 0.8661417322834646
        },
        {
          "duration": 0.3571570976562555,
          "durationTicks": 853,
          "midi": 51,
          "name": "D#3",
          "ticks": 336896,
          "time": 146.26288799999998,
          "velocity": 0.8661417322834646
        },
        {
          "duration": 0.20977222265625528,
          "durationTicks": 501,
          "midi": 41,
          "name": "F2",
          "ticks": 339968,
          "time": 147.54915599999998,
          "velocity": 0.8661417322834646
        },
        {
          "duration": 0.20977222265622686,
          "durationTicks": 501,
          "midi": 48,
          "name": "C3",
          "ticks": 340480,
          "time": 147.763534,
          "velocity": 0.8661417322834646
        },
        {
          "duration": 0.3571570976562555,
          "durationTicks": 853,
          "midi": 53,
          "name": "F3",
          "ticks": 340992,
          "time": 147.97791199999998,
          "velocity": 0.8661417322834646
        },
        {
          "duration": 0.20977222265625528,
          "durationTicks": 501,
          "midi": 41,
          "name": "F2",
          "ticks": 344064,
          "time": 149.26417999999998,
          "velocity": 0.8661417322834646
        },
        {
          "duration": 0.20977222265625528,
          "durationTicks": 501,
          "midi": 48,
          "name": "C3",
          "ticks": 344576,
          "time": 149.478558,
          "velocity": 0.8661417322834646
        },
        {
          "duration": 0.3571570976562555,
          "durationTicks": 853,
          "midi": 53,
          "name": "F3",
          "ticks": 345088,
          "time": 149.69293599999997,
          "velocity": 0.8661417322834646
        },
        {
          "duration": 0.3571570976562555,
          "durationTicks": 853,
          "midi": 48,
          "name": "C3",
          "ticks": 347136,
          "time": 150.550448,
          "velocity": 0.8661417322834646
        },
        {
          "duration": 0.20977222265625528,
          "durationTicks": 501,
          "midi": 43,
          "name": "G2",
          "ticks": 348160,
          "time": 150.97920399999998,
          "velocity": 0.8661417322834646
        },
        {
          "duration": 0.20977222265622686,
          "durationTicks": 501,
          "midi": 50,
          "name": "D3",
          "ticks": 348672,
          "time": 151.193582,
          "velocity": 0.8661417322834646
        },
        {
          "duration": 0.20977222265625528,
          "durationTicks": 501,
          "midi": 55,
          "name": "G3",
          "ticks": 351232,
          "time": 152.265472,
          "velocity": 0.8661417322834646
        },
        {
          "duration": 0.20977222265622686,
          "durationTicks": 501,
          "midi": 50,
          "name": "D3",
          "ticks": 351744,
          "time": 152.47985,
          "velocity": 0.8661417322834646
        },
        {
          "duration": 0.20977222265625528,
          "durationTicks": 501,
          "midi": 41,
          "name": "F2",
          "ticks": 352256,
          "time": 152.69422799999998,
          "velocity": 0.8661417322834646
        },
        {
          "duration": 0.20977222265625528,
          "durationTicks": 501,
          "midi": 48,
          "name": "C3",
          "ticks": 352768,
          "time": 152.908606,
          "velocity": 0.8661417322834646
        },
        {
          "duration": 0.3571570976562555,
          "durationTicks": 853,
          "midi": 53,
          "name": "F3",
          "ticks": 353280,
          "time": 153.12298399999997,
          "velocity": 0.8661417322834646
        },
        {
          "duration": 0.20977222265625528,
          "durationTicks": 501,
          "midi": 39,
          "name": "D#2",
          "ticks": 356352,
          "time": 154.40925199999998,
          "velocity": 0.8661417322834646
        },
        {
          "duration": 0.20977222265622686,
          "durationTicks": 501,
          "midi": 46,
          "name": "A#2",
          "ticks": 356864,
          "time": 154.62363,
          "velocity": 0.8661417322834646
        },
        {
          "duration": 0.3571570976562555,
          "durationTicks": 853,
          "midi": 51,
          "name": "D#3",
          "ticks": 357376,
          "time": 154.83800799999997,
          "velocity": 0.8661417322834646
        },
        {
          "duration": 0.3571570976562555,
          "durationTicks": 853,
          "midi": 51,
          "name": "D#3",
          "ticks": 359424,
          "time": 155.69552,
          "velocity": 0.8661417322834646
        },
        {
          "duration": 0.20977222265625528,
          "durationTicks": 501,
          "midi": 41,
          "name": "F2",
          "ticks": 360448,
          "time": 156.12427599999998,
          "velocity": 0.8661417322834646
        },
        {
          "duration": 0.20977222265625528,
          "durationTicks": 501,
          "midi": 48,
          "name": "C3",
          "ticks": 360960,
          "time": 156.338654,
          "velocity": 0.8661417322834646
        },
        {
          "duration": 0.3571570976562555,
          "durationTicks": 853,
          "midi": 53,
          "name": "F3",
          "ticks": 361472,
          "time": 156.55303199999997,
          "velocity": 0.8661417322834646
        },
        {
          "duration": 0.20977222265625528,
          "durationTicks": 501,
          "midi": 48,
          "name": "C3",
          "ticks": 363520,
          "time": 157.410544,
          "velocity": 0.8661417322834646
        },
        {
          "duration": 0.20977222265625528,
          "durationTicks": 501,
          "midi": 53,
          "name": "F3",
          "ticks": 364032,
          "time": 157.62492199999997,
          "velocity": 0.8661417322834646
        },
        {
          "duration": 0.20977222265625528,
          "durationTicks": 501,
          "midi": 43,
          "name": "G2",
          "ticks": 364544,
          "time": 157.83929999999998,
          "velocity": 0.8661417322834646
        },
        {
          "duration": 0.20977222265625528,
          "durationTicks": 501,
          "midi": 50,
          "name": "D3",
          "ticks": 365056,
          "time": 158.053678,
          "velocity": 0.8661417322834646
        },
        {
          "duration": 0.3571570976562555,
          "durationTicks": 853,
          "midi": 55,
          "name": "G3",
          "ticks": 365568,
          "time": 158.26805599999997,
          "velocity": 0.8661417322834646
        },
        {
          "duration": 0.20977222265622686,
          "durationTicks": 501,
          "midi": 55,
          "name": "G3",
          "ticks": 368128,
          "time": 159.339946,
          "velocity": 0.8661417322834646
        },
        {
          "duration": 0.20977222265625528,
          "durationTicks": 501,
          "midi": 43,
          "name": "G2",
          "ticks": 368640,
          "time": 159.55432399999998,
          "velocity": 0.8661417322834646
        },
        {
          "duration": 0.20977222265625528,
          "durationTicks": 501,
          "midi": 50,
          "name": "D3",
          "ticks": 369152,
          "time": 159.768702,
          "velocity": 0.8661417322834646
        },
        {
          "duration": 0.3571570976562555,
          "durationTicks": 853,
          "midi": 55,
          "name": "G3",
          "ticks": 369664,
          "time": 159.98307999999997,
          "velocity": 0.8661417322834646
        },
        {
          "duration": 0.20977222265625528,
          "durationTicks": 501,
          "midi": 43,
          "name": "G2",
          "ticks": 372736,
          "time": 161.26934799999998,
          "velocity": 0.8661417322834646
        },
        {
          "duration": 0.20977222265625528,
          "durationTicks": 501,
          "midi": 50,
          "name": "D3",
          "ticks": 373248,
          "time": 161.483726,
          "velocity": 0.8661417322834646
        },
        {
          "duration": 0.20977222265625528,
          "durationTicks": 501,
          "midi": 55,
          "name": "G3",
          "ticks": 375808,
          "time": 162.555616,
          "velocity": 0.8661417322834646
        },
        {
          "duration": 0.20977222265622686,
          "durationTicks": 501,
          "midi": 50,
          "name": "D3",
          "ticks": 376320,
          "time": 162.769994,
          "velocity": 0.8661417322834646
        },
        {
          "duration": 0.20977222265625528,
          "durationTicks": 501,
          "midi": 41,
          "name": "F2",
          "ticks": 376832,
          "time": 162.98437199999998,
          "velocity": 0.8661417322834646
        },
        {
          "duration": 0.20977222265625528,
          "durationTicks": 501,
          "midi": 48,
          "name": "C3",
          "ticks": 377344,
          "time": 163.19875,
          "velocity": 0.8661417322834646
        },
        {
          "duration": 0.3571570976562555,
          "durationTicks": 853,
          "midi": 53,
          "name": "F3",
          "ticks": 377856,
          "time": 163.41312799999997,
          "velocity": 0.8661417322834646
        },
        {
          "duration": 0.20977222265625528,
          "durationTicks": 501,
          "midi": 39,
          "name": "D#2",
          "ticks": 380928,
          "time": 164.69939599999998,
          "velocity": 0.8661417322834646
        },
        {
          "duration": 0.20977222265622686,
          "durationTicks": 501,
          "midi": 46,
          "name": "A#2",
          "ticks": 381440,
          "time": 164.913774,
          "velocity": 0.8661417322834646
        },
        {
          "duration": 0.35715709765622705,
          "durationTicks": 853,
          "midi": 51,
          "name": "D#3",
          "ticks": 381952,
          "time": 165.128152,
          "velocity": 0.8661417322834646
        },
        {
          "duration": 0.3571570976562555,
          "durationTicks": 853,
          "midi": 51,
          "name": "D#3",
          "ticks": 384000,
          "time": 165.98566399999999,
          "velocity": 0.8661417322834646
        },
        {
          "duration": 0.20977222265625528,
          "durationTicks": 501,
          "midi": 41,
          "name": "F2",
          "ticks": 385024,
          "time": 166.41441999999998,
          "velocity": 0.8661417322834646
        },
        {
          "duration": 0.20977222265625528,
          "durationTicks": 501,
          "midi": 48,
          "name": "C3",
          "ticks": 385536,
          "time": 166.628798,
          "velocity": 0.8661417322834646
        },
        {
          "duration": 0.20977222265625528,
          "durationTicks": 501,
          "midi": 53,
          "name": "F3",
          "ticks": 386560,
          "time": 167.05755399999998,
          "velocity": 0.8661417322834646
        },
        {
          "duration": 0.3571570976562555,
          "durationTicks": 853,
          "midi": 48,
          "name": "C3",
          "ticks": 388096,
          "time": 167.70068799999999,
          "velocity": 0.8661417322834646
        },
        {
          "duration": 0.20977222265625528,
          "durationTicks": 501,
          "midi": 43,
          "name": "G2",
          "ticks": 389120,
          "time": 168.12944399999998,
          "velocity": 0.8661417322834646
        },
        {
          "duration": 0.20977222265622686,
          "durationTicks": 501,
          "midi": 50,
          "name": "D3",
          "ticks": 389632,
          "time": 168.343822,
          "velocity": 0.8661417322834646
        },
        {
          "duration": 0.20977222265625528,
          "durationTicks": 501,
          "midi": 55,
          "name": "G3",
          "ticks": 390656,
          "time": 168.77257799999998,
          "velocity": 0.8661417322834646
        },
        {
          "duration": 0.3571570976562555,
          "durationTicks": 853,
          "midi": 50,
          "name": "D3",
          "ticks": 392192,
          "time": 169.41571199999998,
          "velocity": 0.8661417322834646
        },
        {
          "duration": 0.20977222265625528,
          "durationTicks": 501,
          "midi": 43,
          "name": "G2",
          "ticks": 393216,
          "time": 169.84446799999998,
          "velocity": 0.8661417322834646
        },
        {
          "duration": 0.20977222265625528,
          "durationTicks": 501,
          "midi": 50,
          "name": "D3",
          "ticks": 393728,
          "time": 170.058846,
          "velocity": 0.8661417322834646
        },
        {
          "duration": 0.3571570976562555,
          "durationTicks": 853,
          "midi": 55,
          "name": "G3",
          "ticks": 394240,
          "time": 170.27322399999997,
          "velocity": 0.8661417322834646
        },
        {
          "duration": 0.20977222265625528,
          "durationTicks": 501,
          "midi": 48,
          "name": "C3",
          "ticks": 397312,
          "time": 171.55949199999998,
          "velocity": 0.8661417322834646
        },
        {
          "duration": 0.20977222265625528,
          "durationTicks": 501,
          "midi": 55,
          "name": "G3",
          "ticks": 397824,
          "time": 171.77387,
          "velocity": 0.8661417322834646
        },
        {
          "duration": 0.35715709765622705,
          "durationTicks": 853,
          "midi": 60,
          "name": "C4",
          "ticks": 398336,
          "time": 171.988248,
          "velocity": 0.8661417322834646
        },
        {
          "duration": 0.20977222265625528,
          "durationTicks": 501,
          "midi": 47,
          "name": "B2",
          "ticks": 401408,
          "time": 173.27451599999998,
          "velocity": 0.8661417322834646
        },
        {
          "duration": 0.20977222265625528,
          "durationTicks": 501,
          "midi": 55,
          "name": "G3",
          "ticks": 401920,
          "time": 173.488894,
          "velocity": 0.8661417322834646
        },
        {
          "duration": 0.3571570976562555,
          "durationTicks": 853,
          "midi": 59,
          "name": "B3",
          "ticks": 402432,
          "time": 173.70327199999997,
          "velocity": 0.8661417322834646
        },
        {
          "duration": 0.20977222265625528,
          "durationTicks": 501,
          "midi": 55,
          "name": "G3",
          "ticks": 403968,
          "time": 174.34640599999997,
          "velocity": 0.8661417322834646
        },
        {
          "duration": 0.3571570976562555,
          "durationTicks": 853,
          "midi": 59,
          "name": "B3",
          "ticks": 404480,
          "time": 174.56078399999998,
          "velocity": 0.8661417322834646
        },
        {
          "duration": 0.20977222265625528,
          "durationTicks": 501,
          "midi": 45,
          "name": "A2",
          "ticks": 405504,
          "time": 174.98953999999998,
          "velocity": 0.8661417322834646
        },
        {
          "duration": 0.20977222265625528,
          "durationTicks": 501,
          "midi": 52,
          "name": "E3",
          "ticks": 406016,
          "time": 175.203918,
          "velocity": 0.8661417322834646
        },
        {
          "duration": 0.35715709765622705,
          "durationTicks": 853,
          "midi": 57,
          "name": "A3",
          "ticks": 406528,
          "time": 175.418296,
          "velocity": 0.8661417322834646
        },
        {
          "duration": 0.3571570976562555,
          "durationTicks": 853,
          "midi": 52,
          "name": "E3",
          "ticks": 408576,
          "time": 176.27580799999998,
          "velocity": 0.8661417322834646
        },
        {
          "duration": 0.20977222265625528,
          "durationTicks": 501,
          "midi": 43,
          "name": "G2",
          "ticks": 409600,
          "time": 176.70456399999998,
          "velocity": 0.8661417322834646
        },
        {
          "duration": 0.20977222265625528,
          "durationTicks": 501,
          "midi": 50,
          "name": "D3",
          "ticks": 410112,
          "time": 176.918942,
          "velocity": 0.8661417322834646
        },
        {
          "duration": 0.3571570976562555,
          "durationTicks": 853,
          "midi": 55,
          "name": "G3",
          "ticks": 410624,
          "time": 177.13331999999997,
          "velocity": 0.8661417322834646
        },
        {
          "duration": 0.3571570976562555,
          "durationTicks": 853,
          "midi": 50,
          "name": "D3",
          "ticks": 412672,
          "time": 177.99083199999998,
          "velocity": 0.8661417322834646
        },
        {
          "duration": 0.20977222265625528,
          "durationTicks": 501,
          "midi": 48,
          "name": "C3",
          "ticks": 413696,
          "time": 178.41958799999998,
          "velocity": 0.8661417322834646
        },
        {
          "duration": 0.20977222265625528,
          "durationTicks": 501,
          "midi": 55,
          "name": "G3",
          "ticks": 414208,
          "time": 178.633966,
          "velocity": 0.8661417322834646
        },
        {
          "duration": 0.35715709765622705,
          "durationTicks": 853,
          "midi": 60,
          "name": "C4",
          "ticks": 414720,
          "time": 178.848344,
          "velocity": 0.8661417322834646
        },
        {
          "duration": 0.20977222265625528,
          "durationTicks": 501,
          "midi": 47,
          "name": "B2",
          "ticks": 417792,
          "time": 180.13461199999998,
          "velocity": 0.8661417322834646
        },
        {
          "duration": 0.20977222265625528,
          "durationTicks": 501,
          "midi": 55,
          "name": "G3",
          "ticks": 418304,
          "time": 180.34899,
          "velocity": 0.8661417322834646
        },
        {
          "duration": 0.3571570976562555,
          "durationTicks": 853,
          "midi": 59,
          "name": "B3",
          "ticks": 418816,
          "time": 180.56336799999997,
          "velocity": 0.8661417322834646
        },
        {
          "duration": 0.3571570976562555,
          "durationTicks": 853,
          "midi": 59,
          "name": "B3",
          "ticks": 420864,
          "time": 181.42087999999998,
          "velocity": 0.8661417322834646
        },
        {
          "duration": 0.20977222265625528,
          "durationTicks": 501,
          "midi": 46,
          "name": "A#2",
          "ticks": 421888,
          "time": 181.84963599999998,
          "velocity": 0.8661417322834646
        },
        {
          "duration": 0.20977222265625528,
          "durationTicks": 501,
          "midi": 53,
          "name": "F3",
          "ticks": 422400,
          "time": 182.064014,
          "velocity": 0.8661417322834646
        },
        {
          "duration": 0.35715709765622705,
          "durationTicks": 853,
          "midi": 58,
          "name": "A#3",
          "ticks": 422912,
          "time": 182.278392,
          "velocity": 0.8661417322834646
        },
        {
          "duration": 0.3571570976562555,
          "durationTicks": 853,
          "midi": 58,
          "name": "A#3",
          "ticks": 424960,
          "time": 183.13590399999998,
          "velocity": 0.8661417322834646
        },
        {
          "duration": 0.20977222265625528,
          "durationTicks": 501,
          "midi": 45,
          "name": "A2",
          "ticks": 425984,
          "time": 183.56465999999998,
          "velocity": 0.8661417322834646
        },
        {
          "duration": 0.20977222265625528,
          "durationTicks": 501,
          "midi": 57,
          "name": "A3",
          "ticks": 426496,
          "time": 183.77903799999999,
          "velocity": 0.8661417322834646
        },
        {
          "duration": 0.20977222265622686,
          "durationTicks": 501,
          "midi": 50,
          "name": "D3",
          "ticks": 428032,
          "time": 184.422172,
          "velocity": 0.8661417322834646
        },
        {
          "duration": 0.20977222265625528,
          "durationTicks": 501,
          "midi": 57,
          "name": "A3",
          "ticks": 428544,
          "time": 184.63654999999997,
          "velocity": 0.8661417322834646
        },
        {
          "duration": 0.20977222265625528,
          "durationTicks": 501,
          "midi": 43,
          "name": "G2",
          "ticks": 430080,
          "time": 185.27968399999997,
          "velocity": 0.8661417322834646
        },
        {
          "duration": 0.20977222265625528,
          "durationTicks": 501,
          "midi": 50,
          "name": "D3",
          "ticks": 430592,
          "time": 185.49406199999999,
          "velocity": 0.8661417322834646
        },
        {
          "duration": 0.3571570976562555,
          "durationTicks": 853,
          "midi": 55,
          "name": "G3",
          "ticks": 433152,
          "time": 186.56595199999998,
          "velocity": 0.8661417322834646
        },
        {
          "duration": 0.20977222265625528,
          "durationTicks": 501,
          "midi": 41,
          "name": "F2",
          "ticks": 434176,
          "time": 186.99470799999997,
          "velocity": 0.8661417322834646
        },
        {
          "duration": 0.20977222265625528,
          "durationTicks": 501,
          "midi": 48,
          "name": "C3",
          "ticks": 434688,
          "time": 187.20908599999999,
          "velocity": 0.8661417322834646
        },
        {
          "duration": 0.3571570976562555,
          "durationTicks": 853,
          "midi": 53,
          "name": "F3",
          "ticks": 435200,
          "time": 187.42346399999997,
          "velocity": 0.8661417322834646
        },
        {
          "duration": 0.20977222265622686,
          "durationTicks": 501,
          "midi": 48,
          "name": "C3",
          "ticks": 436736,
          "time": 188.066598,
          "velocity": 0.8661417322834646
        },
        {
          "duration": 0.3571570976562555,
          "durationTicks": 853,
          "midi": 53,
          "name": "F3",
          "ticks": 437248,
          "time": 188.28097599999998,
          "velocity": 0.8661417322834646
        },
        {
          "duration": 0.20977222265625528,
          "durationTicks": 501,
          "midi": 39,
          "name": "D#2",
          "ticks": 438272,
          "time": 188.70973199999997,
          "velocity": 0.8661417322834646
        },
        {
          "duration": 0.20977222265625528,
          "durationTicks": 501,
          "midi": 46,
          "name": "A#2",
          "ticks": 438784,
          "time": 188.92410999999998,
          "velocity": 0.8661417322834646
        },
        {
          "duration": 0.35715709765622705,
          "durationTicks": 853,
          "midi": 51,
          "name": "D#3",
          "ticks": 439296,
          "time": 189.138488,
          "velocity": 0.8661417322834646
        },
        {
          "duration": 0.3571570976562555,
          "durationTicks": 853,
          "midi": 46,
          "name": "A#2",
          "ticks": 441344,
          "time": 189.99599999999998,
          "velocity": 0.8661417322834646
        },
        {
          "duration": 0.20977222265625528,
          "durationTicks": 501,
          "midi": 41,
          "name": "F2",
          "ticks": 442368,
          "time": 190.42475599999997,
          "velocity": 0.8661417322834646
        },
        {
          "duration": 0.20977222265625528,
          "durationTicks": 501,
          "midi": 48,
          "name": "C3",
          "ticks": 442880,
          "time": 190.63913399999998,
          "velocity": 0.8661417322834646
        },
        {
          "duration": 0.3571570976562555,
          "durationTicks": 853,
          "midi": 53,
          "name": "F3",
          "ticks": 443392,
          "time": 190.85351199999997,
          "velocity": 0.8661417322834646
        },
        {
          "duration": 0.3571570976562555,
          "durationTicks": 853,
          "midi": 48,
          "name": "C3",
          "ticks": 445440,
          "time": 191.71102399999998,
          "velocity": 0.8661417322834646
        },
        {
          "duration": 0.20977222265625528,
          "durationTicks": 501,
          "midi": 43,
          "name": "G2",
          "ticks": 446464,
          "time": 192.13977999999997,
          "velocity": 0.8661417322834646
        },
        {
          "duration": 0.20977222265625528,
          "durationTicks": 501,
          "midi": 50,
          "name": "D3",
          "ticks": 446976,
          "time": 192.35415799999998,
          "velocity": 0.8661417322834646
        },
        {
          "duration": 0.35715709765622705,
          "durationTicks": 853,
          "midi": 55,
          "name": "G3",
          "ticks": 447488,
          "time": 192.568536,
          "velocity": 0.8661417322834646
        },
        {
          "duration": 0.3571570976562555,
          "durationTicks": 853,
          "midi": 55,
          "name": "G3",
          "ticks": 449536,
          "time": 193.42604799999998,
          "velocity": 0.8661417322834646
        },
        {
          "duration": 0.3571570976562555,
          "durationTicks": 853,
          "midi": 43,
          "name": "G2",
          "ticks": 450560,
          "time": 193.85480399999997,
          "velocity": 0.8661417322834646
        },
        {
          "duration": 0.3571570976562839,
          "durationTicks": 853,
          "midi": 50,
          "name": "D3",
          "ticks": 451584,
          "time": 194.28355999999997,
          "velocity": 0.8661417322834646
        },
        {
          "duration": 0.20977222265625528,
          "durationTicks": 501,
          "midi": 43,
          "name": "G2",
          "ticks": 454656,
          "time": 195.56982799999997,
          "velocity": 0.8661417322834646
        },
        {
          "duration": 0.20977222265622686,
          "durationTicks": 501,
          "midi": 50,
          "name": "D3",
          "ticks": 455168,
          "time": 195.78420599999998,
          "velocity": 0.8661417322834646
        },
        {
          "duration": 0.20977222265625528,
          "durationTicks": 501,
          "midi": 55,
          "name": "G3",
          "ticks": 457728,
          "time": 196.85609599999998,
          "velocity": 0.8661417322834646
        },
        {
          "duration": 0.20977222265622686,
          "durationTicks": 501,
          "midi": 50,
          "name": "D3",
          "ticks": 458240,
          "time": 197.070474,
          "velocity": 0.8661417322834646
        },
        {
          "duration": 0.20977222265622686,
          "durationTicks": 501,
          "midi": 41,
          "name": "F2",
          "ticks": 458752,
          "time": 197.284852,
          "velocity": 0.8661417322834646
        },
        {
          "duration": 0.20977222265625528,
          "durationTicks": 501,
          "midi": 48,
          "name": "C3",
          "ticks": 459264,
          "time": 197.49922999999998,
          "velocity": 0.8661417322834646
        },
        {
          "duration": 0.3571570976562839,
          "durationTicks": 853,
          "midi": 53,
          "name": "F3",
          "ticks": 459776,
          "time": 197.71360799999997,
          "velocity": 0.8661417322834646
        },
        {
          "duration": 0.20977222265622686,
          "durationTicks": 501,
          "midi": 48,
          "name": "C3",
          "ticks": 461312,
          "time": 198.356742,
          "velocity": 0.8661417322834646
        },
        {
          "duration": 0.20977222265625528,
          "durationTicks": 501,
          "midi": 39,
          "name": "D#2",
          "ticks": 462848,
          "time": 198.99987599999997,
          "velocity": 0.8661417322834646
        },
        {
          "duration": 0.20977222265625528,
          "durationTicks": 501,
          "midi": 46,
          "name": "A#2",
          "ticks": 463360,
          "time": 199.21425399999998,
          "velocity": 0.8661417322834646
        },
        {
          "duration": 0.35715709765622705,
          "durationTicks": 853,
          "midi": 51,
          "name": "D#3",
          "ticks": 463872,
          "time": 199.428632,
          "velocity": 0.8661417322834646
        },
        {
          "duration": 0.3571570976562555,
          "durationTicks": 853,
          "midi": 51,
          "name": "D#3",
          "ticks": 465920,
          "time": 200.28614399999998,
          "velocity": 0.8661417322834646
        },
        {
          "duration": 0.20977222265622686,
          "durationTicks": 501,
          "midi": 41,
          "name": "F2",
          "ticks": 466944,
          "time": 200.7149,
          "velocity": 0.8661417322834646
        },
        {
          "duration": 0.20977222265625528,
          "durationTicks": 501,
          "midi": 48,
          "name": "C3",
          "ticks": 467456,
          "time": 200.92927799999998,
          "velocity": 0.8661417322834646
        },
        {
          "duration": 0.3571570976562839,
          "durationTicks": 853,
          "midi": 53,
          "name": "F3",
          "ticks": 467968,
          "time": 201.14365599999996,
          "velocity": 0.8661417322834646
        },
        {
          "duration": 0.3571570976562555,
          "durationTicks": 853,
          "midi": 48,
          "name": "C3",
          "ticks": 470016,
          "time": 202.00116799999998,
          "velocity": 0.8661417322834646
        },
        {
          "duration": 0.20977222265625528,
          "durationTicks": 501,
          "midi": 43,
          "name": "G2",
          "ticks": 471040,
          "time": 202.42992399999997,
          "velocity": 0.8661417322834646
        },
        {
          "duration": 0.20977222265625528,
          "durationTicks": 501,
          "midi": 50,
          "name": "D3",
          "ticks": 471552,
          "time": 202.64430199999998,
          "velocity": 0.8661417322834646
        },
        {
          "duration": 0.35715709765622705,
          "durationTicks": 853,
          "midi": 55,
          "name": "G3",
          "ticks": 472064,
          "time": 202.85868,
          "velocity": 0.8661417322834646
        },
        {
          "duration": 0.3571570976562555,
          "durationTicks": 853,
          "midi": 55,
          "name": "G3",
          "ticks": 474112,
          "time": 203.71619199999998,
          "velocity": 0.8661417322834646
        },
        {
          "duration": 0.20977222265622686,
          "durationTicks": 501,
          "midi": 43,
          "name": "G2",
          "ticks": 475136,
          "time": 204.144948,
          "velocity": 0.8661417322834646
        },
        {
          "duration": 0.20977222265625528,
          "durationTicks": 501,
          "midi": 50,
          "name": "D3",
          "ticks": 475648,
          "time": 204.35932599999998,
          "velocity": 0.8661417322834646
        },
        {
          "duration": 0.3571570976562839,
          "durationTicks": 853,
          "midi": 55,
          "name": "G3",
          "ticks": 476160,
          "time": 204.57370399999996,
          "velocity": 0.8661417322834646
        },
        {
          "duration": 0.20977222265625528,
          "durationTicks": 501,
          "midi": 41,
          "name": "F2",
          "ticks": 479232,
          "time": 205.85997199999997,
          "velocity": 0.8661417322834646
        },
        {
          "duration": 0.20977222265625528,
          "durationTicks": 501,
          "midi": 48,
          "name": "C3",
          "ticks": 479744,
          "time": 206.07434999999998,
          "velocity": 0.8661417322834646
        },
        {
          "duration": 0.35715709765622705,
          "durationTicks": 853,
          "midi": 53,
          "name": "F3",
          "ticks": 480256,
          "time": 206.288728,
          "velocity": 0.8661417322834646
        },
        {
          "duration": 0.35715709765622705,
          "durationTicks": 853,
          "midi": 41,
          "name": "F2",
          "ticks": 483328,
          "time": 207.574996,
          "velocity": 0.8661417322834646
        },
        {
          "duration": 0.35715709765622705,
          "durationTicks": 853,
          "midi": 48,
          "name": "C3",
          "ticks": 485376,
          "time": 208.43250799999998,
          "velocity": 0.8661417322834646
        },
        {
          "duration": 0.3571570976562555,
          "durationTicks": 853,
          "midi": 53,
          "name": "F3",
          "ticks": 486400,
          "time": 208.86126399999998,
          "velocity": 0.8661417322834646
        },
        {
          "duration": 0.20977222265625528,
          "durationTicks": 501,
          "midi": 39,
          "name": "D#2",
          "ticks": 487424,
          "time": 209.29001999999997,
          "velocity": 0.8661417322834646
        },
        {
          "duration": 0.20977222265625528,
          "durationTicks": 501,
          "midi": 46,
          "name": "A#2",
          "ticks": 487936,
          "time": 209.50439799999998,
          "velocity": 0.8661417322834646
        },
        {
          "duration": 0.35715709765622705,
          "durationTicks": 853,
          "midi": 51,
          "name": "D#3",
          "ticks": 488448,
          "time": 209.718776,
          "velocity": 0.8661417322834646
        },
        {
          "duration": 0.3571570976562555,
          "durationTicks": 853,
          "midi": 51,
          "name": "D#3",
          "ticks": 490496,
          "time": 210.57628799999998,
          "velocity": 0.8661417322834646
        },
        {
          "duration": 0.35715709765622705,
          "durationTicks": 853,
          "midi": 39,
          "name": "D#2",
          "ticks": 491520,
          "time": 211.005044,
          "velocity": 0.8661417322834646
        },
        {
          "duration": 0.10258322265624997,
          "durationTicks": 245,
          "midi": 51,
          "name": "D#3",
          "ticks": 493312,
          "time": 211.75536699999998,
          "velocity": 0.8661417322834646
        },
        {
          "duration": 0.20977222265625528,
          "durationTicks": 501,
          "midi": 38,
          "name": "D2",
          "ticks": 495616,
          "time": 212.72006799999997,
          "velocity": 0.8661417322834646
        },
        {
          "duration": 0.20977222265625528,
          "durationTicks": 501,
          "midi": 45,
          "name": "A2",
          "ticks": 496128,
          "time": 212.93444599999998,
          "velocity": 0.8661417322834646
        },
        {
          "duration": 0.35715709765622705,
          "durationTicks": 853,
          "midi": 50,
          "name": "D3",
          "ticks": 496640,
          "time": 213.148824,
          "velocity": 0.8661417322834646
        },
        {
          "duration": 0.3571570976562555,
          "durationTicks": 853,
          "midi": 50,
          "name": "D3",
          "ticks": 498688,
          "time": 214.00633599999998,
          "velocity": 0.8661417322834646
        },
        {
          "duration": 0.35715709765622705,
          "durationTicks": 853,
          "midi": 38,
          "name": "D2",
          "ticks": 499712,
          "time": 214.435092,
          "velocity": 0.8661417322834646
        },
        {
          "duration": 0.3571570976562839,
          "durationTicks": 853,
          "midi": 50,
          "name": "D3",
          "ticks": 500736,
          "time": 214.86384799999996,
          "velocity": 0.8661417322834646
        },
        {
          "duration": 0.20977222265622686,
          "durationTicks": 501,
          "midi": 50,
          "name": "D3",
          "ticks": 502272,
          "time": 215.506982,
          "velocity": 0.8661417322834646
        },
        {
          "duration": 0.20977222265625528,
          "durationTicks": 501,
          "midi": 50,
          "name": "D3",
          "ticks": 503296,
          "time": 215.935738,
          "velocity": 0.8661417322834646
        },
        {
          "duration": 0.36710138964843964,
          "durationTicks": 501,
          "midi": 45,
          "name": "A2",
          "ticks": 503808,
          "time": 216.15011599999997,
          "velocity": 0.8661417322834646
        },
        {
          "duration": 0.36710138964843964,
          "durationTicks": 501,
          "midi": 50,
          "name": "D3",
          "ticks": 503808,
          "time": 216.15011599999997,
          "velocity": 0.8661417322834646
        },
        {
          "duration": 0.36710138964843964,
          "durationTicks": 501,
          "midi": 38,
          "name": "D2",
          "ticks": 504320,
          "time": 216.52527749999996,
          "velocity": 0.8661417322834646
        },
        {
          "duration": 0.36710138964843964,
          "durationTicks": 501,
          "midi": 53,
          "name": "F3",
          "ticks": 504320,
          "time": 216.52527749999996,
          "velocity": 0.8661417322834646
        },
        {
          "duration": 0.36710138964843964,
          "durationTicks": 501,
          "midi": 45,
          "name": "A2",
          "ticks": 504832,
          "time": 216.90043899999998,
          "velocity": 0.8661417322834646
        },
        {
          "duration": 0.36710138964843964,
          "durationTicks": 501,
          "midi": 57,
          "name": "A3",
          "ticks": 504832,
          "time": 216.90043899999998,
          "velocity": 0.8661417322834646
        },
        {
          "duration": 1.750509420898453,
          "durationTicks": 2389,
          "midi": 44,
          "name": "G#2",
          "ticks": 505344,
          "time": 217.27560049999997,
          "velocity": 0.8661417322834646
        },
        {
          "duration": 1.750509420898453,
          "durationTicks": 2389,
          "midi": 56,
          "name": "G#3",
          "ticks": 505344,
          "time": 217.27560049999997,
          "velocity": 0.8661417322834646
        },
        {
          "duration": 0.15617772265625263,
          "durationTicks": 373,
          "midi": 62,
          "name": "D4",
          "ticks": 507904,
          "time": 219.15140799999998,
          "velocity": 0.8661417322834646
        },
        {
          "duration": 0.15617772265625263,
          "durationTicks": 373,
          "midi": 60,
          "name": "C4",
          "ticks": 508288,
          "time": 219.31219149999998,
          "velocity": 0.8661417322834646
        },
        {
          "duration": 0.10258322265624997,
          "durationTicks": 245,
          "midi": 55,
          "name": "G3",
          "ticks": 508672,
          "time": 219.47297499999996,
          "velocity": 0.8661417322834646
        },
        {
          "duration": 0.15617772265625263,
          "durationTicks": 373,
          "midi": 50,
          "name": "D3",
          "ticks": 508928,
          "time": 219.58016399999997,
          "velocity": 0.8661417322834646
        },
        {
          "duration": 0.15617772265625263,
          "durationTicks": 373,
          "midi": 48,
          "name": "C3",
          "ticks": 509312,
          "time": 219.74094749999998,
          "velocity": 0.8661417322834646
        },
        {
          "duration": 0.10258322265624997,
          "durationTicks": 245,
          "midi": 43,
          "name": "G2",
          "ticks": 509696,
          "time": 219.90173099999998,
          "velocity": 0.8661417322834646
        },
        {
          "duration": 2.46534699999998,
          "durationTicks": 5888,
          "midi": 38,
          "name": "D2",
          "ticks": 509952,
          "time": 220.00892,
          "velocity": 0.8661417322834646
        },
        {
          "duration": 2.46534699999998,
          "durationTicks": 5888,
          "midi": 45,
          "name": "A2",
          "ticks": 509952,
          "time": 220.00892,
          "velocity": 0.8661417322834646
        },
        {
          "duration": 2.46534699999998,
          "durationTicks": 5888,
          "midi": 50,
          "name": "D3",
          "ticks": 509952,
          "time": 220.00892,
          "velocity": 0.8661417322834646
        },
        {
          "duration": 6.752906999999993,
          "durationTicks": 16128,
          "midi": 38,
          "name": "D2",
          "ticks": 516096,
          "time": 222.58145599999997,
          "velocity": 0.8661417322834646
        },
        {
          "duration": 6.752906999999993,
          "durationTicks": 16128,
          "midi": 45,
          "name": "A2",
          "ticks": 516096,
          "time": 222.58145599999997,
          "velocity": 0.8661417322834646
        },
        {
          "duration": 6.752906999999993,
          "durationTicks": 16128,
          "midi": 50,
          "name": "D3",
          "ticks": 516096,
          "time": 222.58145599999997,
          "velocity": 0.8661417322834646
        },
        {
          "duration": 5.895395000000008,
          "durationTicks": 14080,
          "midi": 38,
          "name": "D2",
          "ticks": 532480,
          "time": 229.44155199999997,
          "velocity": 0.8661417322834646
        },
        {
          "duration": 5.895395000000008,
          "durationTicks": 14080,
          "midi": 45,
          "name": "A2",
          "ticks": 532480,
          "time": 229.44155199999997,
          "velocity": 0.8661417322834646
        },
        {
          "duration": 5.895395000000008,
          "durationTicks": 14080,
          "midi": 50,
          "name": "D3",
          "ticks": 532480,
          "time": 229.44155199999997,
          "velocity": 0.8661417322834646
        },
        {
          "duration": 0.3571570976562555,
          "durationTicks": 853,
          "midi": 50,
          "name": "D3",
          "ticks": 548864,
          "time": 236.30164799999997,
          "velocity": 0.8661417322834646
        },
        {
          "duration": 0.3571570976562555,
          "durationTicks": 853,
          "midi": 57,
          "name": "A3",
          "ticks": 548864,
          "time": 236.30164799999997,
          "velocity": 0.8661417322834646
        },
        {
          "duration": 0.3571570976562555,
          "durationTicks": 853,
          "midi": 62,
          "name": "D4",
          "ticks": 548864,
          "time": 236.30164799999997,
          "velocity": 0.8661417322834646
        },
        {
          "duration": 0.3571570976562555,
          "durationTicks": 853,
          "midi": 50,
          "name": "D3",
          "ticks": 549888,
          "time": 236.73040399999996,
          "velocity": 0.8661417322834646
        },
        {
          "duration": 0.3571570976562555,
          "durationTicks": 853,
          "midi": 57,
          "name": "A3",
          "ticks": 549888,
          "time": 236.73040399999996,
          "velocity": 0.8661417322834646
        },
        {
          "duration": 0.3571570976562555,
          "durationTicks": 853,
          "midi": 62,
          "name": "D4",
          "ticks": 549888,
          "time": 236.73040399999996,
          "velocity": 0.8661417322834646
        },
        {
          "duration": 0.20977222265625528,
          "durationTicks": 501,
          "midi": 50,
          "name": "D3",
          "ticks": 551424,
          "time": 237.37353799999997,
          "velocity": 0.8661417322834646
        },
        {
          "duration": 0.20977222265625528,
          "durationTicks": 501,
          "midi": 57,
          "name": "A3",
          "ticks": 551424,
          "time": 237.37353799999997,
          "velocity": 0.8661417322834646
        },
        {
          "duration": 0.20977222265625528,
          "durationTicks": 501,
          "midi": 62,
          "name": "D4",
          "ticks": 551424,
          "time": 237.37353799999997,
          "velocity": 0.8661417322834646
        },
        {
          "duration": 0.10258322265624997,
          "durationTicks": 245,
          "midi": 50,
          "name": "D3",
          "ticks": 551936,
          "time": 237.58791599999998,
          "velocity": 0.8661417322834646
        },
        {
          "duration": 0.10258322265624997,
          "durationTicks": 245,
          "midi": 57,
          "name": "A3",
          "ticks": 551936,
          "time": 237.58791599999998,
          "velocity": 0.8661417322834646
        },
        {
          "duration": 0.10258322265624997,
          "durationTicks": 245,
          "midi": 62,
          "name": "D4",
          "ticks": 551936,
          "time": 237.58791599999998,
          "velocity": 0.8661417322834646
        },
        {
          "duration": 0.10258322265624997,
          "durationTicks": 245,
          "midi": 50,
          "name": "D3",
          "ticks": 552192,
          "time": 237.69510499999998,
          "velocity": 0.8661417322834646
        },
        {
          "duration": 0.10258322265624997,
          "durationTicks": 245,
          "midi": 57,
          "name": "A3",
          "ticks": 552192,
          "time": 237.69510499999998,
          "velocity": 0.8661417322834646
        },
        {
          "duration": 0.10258322265624997,
          "durationTicks": 245,
          "midi": 62,
          "name": "D4",
          "ticks": 552192,
          "time": 237.69510499999998,
          "velocity": 0.8661417322834646
        },
        {
          "duration": 0.1025832226562784,
          "durationTicks": 245,
          "midi": 50,
          "name": "D3",
          "ticks": 552448,
          "time": 237.80229399999996,
          "velocity": 0.8661417322834646
        },
        {
          "duration": 0.1025832226562784,
          "durationTicks": 245,
          "midi": 57,
          "name": "A3",
          "ticks": 552448,
          "time": 237.80229399999996,
          "velocity": 0.8661417322834646
        },
        {
          "duration": 0.1025832226562784,
          "durationTicks": 245,
          "midi": 62,
          "name": "D4",
          "ticks": 552448,
          "time": 237.80229399999996,
          "velocity": 0.8661417322834646
        },
        {
          "duration": 0.10258322265624997,
          "durationTicks": 245,
          "midi": 50,
          "name": "D3",
          "ticks": 552704,
          "time": 237.90948299999997,
          "velocity": 0.8661417322834646
        },
        {
          "duration": 0.10258322265624997,
          "durationTicks": 245,
          "midi": 57,
          "name": "A3",
          "ticks": 552704,
          "time": 237.90948299999997,
          "velocity": 0.8661417322834646
        },
        {
          "duration": 0.10258322265624997,
          "durationTicks": 245,
          "midi": 62,
          "name": "D4",
          "ticks": 552704,
          "time": 237.90948299999997,
          "velocity": 0.8661417322834646
        },
        {
          "duration": 0.3571570976562555,
          "durationTicks": 853,
          "midi": 52,
          "name": "E3",
          "ticks": 552960,
          "time": 238.01667199999997,
          "velocity": 0.8661417322834646
        },
        {
          "duration": 0.3571570976562555,
          "durationTicks": 853,
          "midi": 59,
          "name": "B3",
          "ticks": 552960,
          "time": 238.01667199999997,
          "velocity": 0.8661417322834646
        },
        {
          "duration": 0.3571570976562555,
          "durationTicks": 853,
          "midi": 64,
          "name": "E4",
          "ticks": 552960,
          "time": 238.01667199999997,
          "velocity": 0.8661417322834646
        },
        {
          "duration": 0.3571570976562555,
          "durationTicks": 853,
          "midi": 52,
          "name": "E3",
          "ticks": 553984,
          "time": 238.44542799999996,
          "velocity": 0.8661417322834646
        },
        {
          "duration": 0.3571570976562555,
          "durationTicks": 853,
          "midi": 59,
          "name": "B3",
          "ticks": 553984,
          "time": 238.44542799999996,
          "velocity": 0.8661417322834646
        },
        {
          "duration": 0.3571570976562555,
          "durationTicks": 853,
          "midi": 64,
          "name": "E4",
          "ticks": 553984,
          "time": 238.44542799999996,
          "velocity": 0.8661417322834646
        },
        {
          "duration": 0.20977222265625528,
          "durationTicks": 501,
          "midi": 52,
          "name": "E3",
          "ticks": 555520,
          "time": 239.08856199999997,
          "velocity": 0.8661417322834646
        },
        {
          "duration": 0.20977222265625528,
          "durationTicks": 501,
          "midi": 59,
          "name": "B3",
          "ticks": 555520,
          "time": 239.08856199999997,
          "velocity": 0.8661417322834646
        },
        {
          "duration": 0.20977222265625528,
          "durationTicks": 501,
          "midi": 64,
          "name": "E4",
          "ticks": 555520,
          "time": 239.08856199999997,
          "velocity": 0.8661417322834646
        },
        {
          "duration": 0.10258322265624997,
          "durationTicks": 245,
          "midi": 52,
          "name": "E3",
          "ticks": 556032,
          "time": 239.30293999999998,
          "velocity": 0.8661417322834646
        },
        {
          "duration": 0.10258322265624997,
          "durationTicks": 245,
          "midi": 59,
          "name": "B3",
          "ticks": 556032,
          "time": 239.30293999999998,
          "velocity": 0.8661417322834646
        },
        {
          "duration": 0.10258322265624997,
          "durationTicks": 245,
          "midi": 64,
          "name": "E4",
          "ticks": 556032,
          "time": 239.30293999999998,
          "velocity": 0.8661417322834646
        },
        {
          "duration": 0.10258322265624997,
          "durationTicks": 245,
          "midi": 52,
          "name": "E3",
          "ticks": 556288,
          "time": 239.41012899999998,
          "velocity": 0.8661417322834646
        },
        {
          "duration": 0.10258322265624997,
          "durationTicks": 245,
          "midi": 59,
          "name": "B3",
          "ticks": 556288,
          "time": 239.41012899999998,
          "velocity": 0.8661417322834646
        },
        {
          "duration": 0.10258322265624997,
          "durationTicks": 245,
          "midi": 64,
          "name": "E4",
          "ticks": 556288,
          "time": 239.41012899999998,
          "velocity": 0.8661417322834646
        },
        {
          "duration": 0.10258322265622155,
          "durationTicks": 245,
          "midi": 52,
          "name": "E3",
          "ticks": 556544,
          "time": 239.517318,
          "velocity": 0.8661417322834646
        },
        {
          "duration": 0.10258322265622155,
          "durationTicks": 245,
          "midi": 59,
          "name": "B3",
          "ticks": 556544,
          "time": 239.517318,
          "velocity": 0.8661417322834646
        },
        {
          "duration": 0.10258322265622155,
          "durationTicks": 245,
          "midi": 64,
          "name": "E4",
          "ticks": 556544,
          "time": 239.517318,
          "velocity": 0.8661417322834646
        },
        {
          "duration": 0.10258322265624997,
          "durationTicks": 245,
          "midi": 52,
          "name": "E3",
          "ticks": 556800,
          "time": 239.62450699999997,
          "velocity": 0.8661417322834646
        },
        {
          "duration": 0.10258322265624997,
          "durationTicks": 245,
          "midi": 59,
          "name": "B3",
          "ticks": 556800,
          "time": 239.62450699999997,
          "velocity": 0.8661417322834646
        },
        {
          "duration": 0.10258322265624997,
          "durationTicks": 245,
          "midi": 64,
          "name": "E4",
          "ticks": 556800,
          "time": 239.62450699999997,
          "velocity": 0.8661417322834646
        },
        {
          "duration": 0.3571570976562555,
          "durationTicks": 853,
          "midi": 53,
          "name": "F3",
          "ticks": 557056,
          "time": 239.73169599999997,
          "velocity": 0.8661417322834646
        },
        {
          "duration": 0.3571570976562555,
          "durationTicks": 853,
          "midi": 60,
          "name": "C4",
          "ticks": 557056,
          "time": 239.73169599999997,
          "velocity": 0.8661417322834646
        },
        {
          "duration": 0.3571570976562555,
          "durationTicks": 853,
          "midi": 65,
          "name": "F4",
          "ticks": 557056,
          "time": 239.73169599999997,
          "velocity": 0.8661417322834646
        },
        {
          "duration": 0.3571570976562555,
          "durationTicks": 853,
          "midi": 53,
          "name": "F3",
          "ticks": 558080,
          "time": 240.16045199999996,
          "velocity": 0.8661417322834646
        },
        {
          "duration": 0.3571570976562555,
          "durationTicks": 853,
          "midi": 60,
          "name": "C4",
          "ticks": 558080,
          "time": 240.16045199999996,
          "velocity": 0.8661417322834646
        },
        {
          "duration": 0.3571570976562555,
          "durationTicks": 853,
          "midi": 65,
          "name": "F4",
          "ticks": 558080,
          "time": 240.16045199999996,
          "velocity": 0.8661417322834646
        },
        {
          "duration": 0.20977222265625528,
          "durationTicks": 501,
          "midi": 53,
          "name": "F3",
          "ticks": 559616,
          "time": 240.80358599999997,
          "velocity": 0.8661417322834646
        },
        {
          "duration": 0.20977222265625528,
          "durationTicks": 501,
          "midi": 60,
          "name": "C4",
          "ticks": 559616,
          "time": 240.80358599999997,
          "velocity": 0.8661417322834646
        },
        {
          "duration": 0.20977222265625528,
          "durationTicks": 501,
          "midi": 65,
          "name": "F4",
          "ticks": 559616,
          "time": 240.80358599999997,
          "velocity": 0.8661417322834646
        },
        {
          "duration": 0.10258322265624997,
          "durationTicks": 245,
          "midi": 53,
          "name": "F3",
          "ticks": 560128,
          "time": 241.01796399999998,
          "velocity": 0.8661417322834646
        },
        {
          "duration": 0.10258322265624997,
          "durationTicks": 245,
          "midi": 60,
          "name": "C4",
          "ticks": 560128,
          "time": 241.01796399999998,
          "velocity": 0.8661417322834646
        },
        {
          "duration": 0.10258322265624997,
          "durationTicks": 245,
          "midi": 65,
          "name": "F4",
          "ticks": 560128,
          "time": 241.01796399999998,
          "velocity": 0.8661417322834646
        },
        {
          "duration": 0.10258322265624997,
          "durationTicks": 245,
          "midi": 53,
          "name": "F3",
          "ticks": 560384,
          "time": 241.12515299999998,
          "velocity": 0.8661417322834646
        },
        {
          "duration": 0.10258322265624997,
          "durationTicks": 245,
          "midi": 60,
          "name": "C4",
          "ticks": 560384,
          "time": 241.12515299999998,
          "velocity": 0.8661417322834646
        },
        {
          "duration": 0.10258322265624997,
          "durationTicks": 245,
          "midi": 65,
          "name": "F4",
          "ticks": 560384,
          "time": 241.12515299999998,
          "velocity": 0.8661417322834646
        },
        {
          "duration": 0.1025832226562784,
          "durationTicks": 245,
          "midi": 53,
          "name": "F3",
          "ticks": 560640,
          "time": 241.23234199999996,
          "velocity": 0.8661417322834646
        },
        {
          "duration": 0.1025832226562784,
          "durationTicks": 245,
          "midi": 60,
          "name": "C4",
          "ticks": 560640,
          "time": 241.23234199999996,
          "velocity": 0.8661417322834646
        },
        {
          "duration": 0.1025832226562784,
          "durationTicks": 245,
          "midi": 65,
          "name": "F4",
          "ticks": 560640,
          "time": 241.23234199999996,
          "velocity": 0.8661417322834646
        },
        {
          "duration": 0.10258322265624997,
          "durationTicks": 245,
          "midi": 53,
          "name": "F3",
          "ticks": 560896,
          "time": 241.33953099999997,
          "velocity": 0.8661417322834646
        },
        {
          "duration": 0.10258322265624997,
          "durationTicks": 245,
          "midi": 60,
          "name": "C4",
          "ticks": 560896,
          "time": 241.33953099999997,
          "velocity": 0.8661417322834646
        },
        {
          "duration": 0.10258322265624997,
          "durationTicks": 245,
          "midi": 65,
          "name": "F4",
          "ticks": 560896,
          "time": 241.33953099999997,
          "velocity": 0.8661417322834646
        },
        {
          "duration": 0.3571570976562555,
          "durationTicks": 853,
          "midi": 55,
          "name": "G3",
          "ticks": 561152,
          "time": 241.44671999999997,
          "velocity": 0.8661417322834646
        },
        {
          "duration": 0.3571570976562555,
          "durationTicks": 853,
          "midi": 62,
          "name": "D4",
          "ticks": 561152,
          "time": 241.44671999999997,
          "velocity": 0.8661417322834646
        },
        {
          "duration": 0.3571570976562555,
          "durationTicks": 853,
          "midi": 67,
          "name": "G4",
          "ticks": 561152,
          "time": 241.44671999999997,
          "velocity": 0.8661417322834646
        },
        {
          "duration": 0.3571570976562555,
          "durationTicks": 853,
          "midi": 55,
          "name": "G3",
          "ticks": 562176,
          "time": 241.87547599999996,
          "velocity": 0.8661417322834646
        },
        {
          "duration": 0.3571570976562555,
          "durationTicks": 853,
          "midi": 62,
          "name": "D4",
          "ticks": 562176,
          "time": 241.87547599999996,
          "velocity": 0.8661417322834646
        },
        {
          "duration": 0.3571570976562555,
          "durationTicks": 853,
          "midi": 67,
          "name": "G4",
          "ticks": 562176,
          "time": 241.87547599999996,
          "velocity": 0.8661417322834646
        },
        {
          "duration": 0.20977222265625528,
          "durationTicks": 501,
          "midi": 55,
          "name": "G3",
          "ticks": 563712,
          "time": 242.51860999999997,
          "velocity": 0.8661417322834646
        },
        {
          "duration": 0.20977222265625528,
          "durationTicks": 501,
          "midi": 62,
          "name": "D4",
          "ticks": 563712,
          "time": 242.51860999999997,
          "velocity": 0.8661417322834646
        },
        {
          "duration": 0.20977222265625528,
          "durationTicks": 501,
          "midi": 67,
          "name": "G4",
          "ticks": 563712,
          "time": 242.51860999999997,
          "velocity": 0.8661417322834646
        },
        {
          "duration": 0.10258322265624997,
          "durationTicks": 245,
          "midi": 55,
          "name": "G3",
          "ticks": 564224,
          "time": 242.73298799999998,
          "velocity": 0.8661417322834646
        },
        {
          "duration": 0.10258322265624997,
          "durationTicks": 245,
          "midi": 62,
          "name": "D4",
          "ticks": 564224,
          "time": 242.73298799999998,
          "velocity": 0.8661417322834646
        },
        {
          "duration": 0.10258322265624997,
          "durationTicks": 245,
          "midi": 67,
          "name": "G4",
          "ticks": 564224,
          "time": 242.73298799999998,
          "velocity": 0.8661417322834646
        },
        {
          "duration": 0.10258322265624997,
          "durationTicks": 245,
          "midi": 55,
          "name": "G3",
          "ticks": 564480,
          "time": 242.84017699999998,
          "velocity": 0.8661417322834646
        },
        {
          "duration": 0.10258322265624997,
          "durationTicks": 245,
          "midi": 62,
          "name": "D4",
          "ticks": 564480,
          "time": 242.84017699999998,
          "velocity": 0.8661417322834646
        },
        {
          "duration": 0.10258322265624997,
          "durationTicks": 245,
          "midi": 67,
          "name": "G4",
          "ticks": 564480,
          "time": 242.84017699999998,
          "velocity": 0.8661417322834646
        },
        {
          "duration": 0.10258322265622155,
          "durationTicks": 245,
          "midi": 55,
          "name": "G3",
          "ticks": 564736,
          "time": 242.947366,
          "velocity": 0.8661417322834646
        },
        {
          "duration": 0.10258322265622155,
          "durationTicks": 245,
          "midi": 62,
          "name": "D4",
          "ticks": 564736,
          "time": 242.947366,
          "velocity": 0.8661417322834646
        },
        {
          "duration": 0.10258322265622155,
          "durationTicks": 245,
          "midi": 67,
          "name": "G4",
          "ticks": 564736,
          "time": 242.947366,
          "velocity": 0.8661417322834646
        },
        {
          "duration": 0.10258322265624997,
          "durationTicks": 245,
          "midi": 55,
          "name": "G3",
          "ticks": 564992,
          "time": 243.05455499999997,
          "velocity": 0.8661417322834646
        },
        {
          "duration": 0.10258322265624997,
          "durationTicks": 245,
          "midi": 62,
          "name": "D4",
          "ticks": 564992,
          "time": 243.05455499999997,
          "velocity": 0.8661417322834646
        },
        {
          "duration": 0.10258322265624997,
          "durationTicks": 245,
          "midi": 67,
          "name": "G4",
          "ticks": 564992,
          "time": 243.05455499999997,
          "velocity": 0.8661417322834646
        },
        {
          "duration": 0.3571570976562555,
          "durationTicks": 853,
          "midi": 50,
          "name": "D3",
          "ticks": 565248,
          "time": 243.16174399999997,
          "velocity": 0.8661417322834646
        },
        {
          "duration": 0.3571570976562555,
          "durationTicks": 853,
          "midi": 57,
          "name": "A3",
          "ticks": 565248,
          "time": 243.16174399999997,
          "velocity": 0.8661417322834646
        },
        {
          "duration": 0.3571570976562555,
          "durationTicks": 853,
          "midi": 62,
          "name": "D4",
          "ticks": 565248,
          "time": 243.16174399999997,
          "velocity": 0.8661417322834646
        },
        {
          "duration": 0.3571570976562555,
          "durationTicks": 853,
          "midi": 50,
          "name": "D3",
          "ticks": 566272,
          "time": 243.59049999999996,
          "velocity": 0.8661417322834646
        },
        {
          "duration": 0.3571570976562555,
          "durationTicks": 853,
          "midi": 57,
          "name": "A3",
          "ticks": 566272,
          "time": 243.59049999999996,
          "velocity": 0.8661417322834646
        },
        {
          "duration": 0.3571570976562555,
          "durationTicks": 853,
          "midi": 62,
          "name": "D4",
          "ticks": 566272,
          "time": 243.59049999999996,
          "velocity": 0.8661417322834646
        },
        {
          "duration": 0.20977222265625528,
          "durationTicks": 501,
          "midi": 50,
          "name": "D3",
          "ticks": 567808,
          "time": 244.23363399999997,
          "velocity": 0.8661417322834646
        },
        {
          "duration": 0.20977222265625528,
          "durationTicks": 501,
          "midi": 57,
          "name": "A3",
          "ticks": 567808,
          "time": 244.23363399999997,
          "velocity": 0.8661417322834646
        },
        {
          "duration": 0.20977222265625528,
          "durationTicks": 501,
          "midi": 62,
          "name": "D4",
          "ticks": 567808,
          "time": 244.23363399999997,
          "velocity": 0.8661417322834646
        },
        {
          "duration": 0.10258322265624997,
          "durationTicks": 245,
          "midi": 50,
          "name": "D3",
          "ticks": 568320,
          "time": 244.44801199999998,
          "velocity": 0.8661417322834646
        },
        {
          "duration": 0.10258322265624997,
          "durationTicks": 245,
          "midi": 57,
          "name": "A3",
          "ticks": 568320,
          "time": 244.44801199999998,
          "velocity": 0.8661417322834646
        },
        {
          "duration": 0.10258322265624997,
          "durationTicks": 245,
          "midi": 62,
          "name": "D4",
          "ticks": 568320,
          "time": 244.44801199999998,
          "velocity": 0.8661417322834646
        },
        {
          "duration": 0.10258322265624997,
          "durationTicks": 245,
          "midi": 50,
          "name": "D3",
          "ticks": 568576,
          "time": 244.55520099999998,
          "velocity": 0.8661417322834646
        },
        {
          "duration": 0.10258322265624997,
          "durationTicks": 245,
          "midi": 57,
          "name": "A3",
          "ticks": 568576,
          "time": 244.55520099999998,
          "velocity": 0.8661417322834646
        },
        {
          "duration": 0.10258322265624997,
          "durationTicks": 245,
          "midi": 62,
          "name": "D4",
          "ticks": 568576,
          "time": 244.55520099999998,
          "velocity": 0.8661417322834646
        },
        {
          "duration": 0.1025832226562784,
          "durationTicks": 245,
          "midi": 50,
          "name": "D3",
          "ticks": 568832,
          "time": 244.66238999999996,
          "velocity": 0.8661417322834646
        },
        {
          "duration": 0.1025832226562784,
          "durationTicks": 245,
          "midi": 57,
          "name": "A3",
          "ticks": 568832,
          "time": 244.66238999999996,
          "velocity": 0.8661417322834646
        },
        {
          "duration": 0.1025832226562784,
          "durationTicks": 245,
          "midi": 62,
          "name": "D4",
          "ticks": 568832,
          "time": 244.66238999999996,
          "velocity": 0.8661417322834646
        },
        {
          "duration": 0.10258322265624997,
          "durationTicks": 245,
          "midi": 50,
          "name": "D3",
          "ticks": 569088,
          "time": 244.76957899999996,
          "velocity": 0.8661417322834646
        },
        {
          "duration": 0.10258322265624997,
          "durationTicks": 245,
          "midi": 57,
          "name": "A3",
          "ticks": 569088,
          "time": 244.76957899999996,
          "velocity": 0.8661417322834646
        },
        {
          "duration": 0.10258322265624997,
          "durationTicks": 245,
          "midi": 62,
          "name": "D4",
          "ticks": 569088,
          "time": 244.76957899999996,
          "velocity": 0.8661417322834646
        },
        {
          "duration": 0.3571570976562555,
          "durationTicks": 853,
          "midi": 52,
          "name": "E3",
          "ticks": 569344,
          "time": 244.87676799999997,
          "velocity": 0.8661417322834646
        },
        {
          "duration": 0.3571570976562555,
          "durationTicks": 853,
          "midi": 59,
          "name": "B3",
          "ticks": 569344,
          "time": 244.87676799999997,
          "velocity": 0.8661417322834646
        },
        {
          "duration": 0.3571570976562555,
          "durationTicks": 853,
          "midi": 64,
          "name": "E4",
          "ticks": 569344,
          "time": 244.87676799999997,
          "velocity": 0.8661417322834646
        },
        {
          "duration": 0.3571570976562555,
          "durationTicks": 853,
          "midi": 52,
          "name": "E3",
          "ticks": 570368,
          "time": 245.30552399999996,
          "velocity": 0.8661417322834646
        },
        {
          "duration": 0.3571570976562555,
          "durationTicks": 853,
          "midi": 59,
          "name": "B3",
          "ticks": 570368,
          "time": 245.30552399999996,
          "velocity": 0.8661417322834646
        },
        {
          "duration": 0.3571570976562555,
          "durationTicks": 853,
          "midi": 64,
          "name": "E4",
          "ticks": 570368,
          "time": 245.30552399999996,
          "velocity": 0.8661417322834646
        },
        {
          "duration": 0.20977222265625528,
          "durationTicks": 501,
          "midi": 52,
          "name": "E3",
          "ticks": 571904,
          "time": 245.94865799999997,
          "velocity": 0.8661417322834646
        },
        {
          "duration": 0.20977222265625528,
          "durationTicks": 501,
          "midi": 59,
          "name": "B3",
          "ticks": 571904,
          "time": 245.94865799999997,
          "velocity": 0.8661417322834646
        },
        {
          "duration": 0.20977222265625528,
          "durationTicks": 501,
          "midi": 64,
          "name": "E4",
          "ticks": 571904,
          "time": 245.94865799999997,
          "velocity": 0.8661417322834646
        },
        {
          "duration": 0.10258322265624997,
          "durationTicks": 245,
          "midi": 52,
          "name": "E3",
          "ticks": 572416,
          "time": 246.16303599999998,
          "velocity": 0.8661417322834646
        },
        {
          "duration": 0.10258322265624997,
          "durationTicks": 245,
          "midi": 59,
          "name": "B3",
          "ticks": 572416,
          "time": 246.16303599999998,
          "velocity": 0.8661417322834646
        },
        {
          "duration": 0.10258322265624997,
          "durationTicks": 245,
          "midi": 64,
          "name": "E4",
          "ticks": 572416,
          "time": 246.16303599999998,
          "velocity": 0.8661417322834646
        },
        {
          "duration": 0.10258322265624997,
          "durationTicks": 245,
          "midi": 52,
          "name": "E3",
          "ticks": 572672,
          "time": 246.27022499999998,
          "velocity": 0.8661417322834646
        },
        {
          "duration": 0.10258322265624997,
          "durationTicks": 245,
          "midi": 59,
          "name": "B3",
          "ticks": 572672,
          "time": 246.27022499999998,
          "velocity": 0.8661417322834646
        },
        {
          "duration": 0.10258322265624997,
          "durationTicks": 245,
          "midi": 64,
          "name": "E4",
          "ticks": 572672,
          "time": 246.27022499999998,
          "velocity": 0.8661417322834646
        },
        {
          "duration": 0.10258322265622155,
          "durationTicks": 245,
          "midi": 52,
          "name": "E3",
          "ticks": 572928,
          "time": 246.377414,
          "velocity": 0.8661417322834646
        },
        {
          "duration": 0.10258322265622155,
          "durationTicks": 245,
          "midi": 59,
          "name": "B3",
          "ticks": 572928,
          "time": 246.377414,
          "velocity": 0.8661417322834646
        },
        {
          "duration": 0.10258322265622155,
          "durationTicks": 245,
          "midi": 64,
          "name": "E4",
          "ticks": 572928,
          "time": 246.377414,
          "velocity": 0.8661417322834646
        },
        {
          "duration": 0.10258322265624997,
          "durationTicks": 245,
          "midi": 52,
          "name": "E3",
          "ticks": 573184,
          "time": 246.48460299999996,
          "velocity": 0.8661417322834646
        },
        {
          "duration": 0.10258322265624997,
          "durationTicks": 245,
          "midi": 59,
          "name": "B3",
          "ticks": 573184,
          "time": 246.48460299999996,
          "velocity": 0.8661417322834646
        },
        {
          "duration": 0.10258322265624997,
          "durationTicks": 245,
          "midi": 64,
          "name": "E4",
          "ticks": 573184,
          "time": 246.48460299999996,
          "velocity": 0.8661417322834646
        },
        {
          "duration": 0.3571570976562555,
          "durationTicks": 853,
          "midi": 53,
          "name": "F3",
          "ticks": 573440,
          "time": 246.59179199999997,
          "velocity": 0.8661417322834646
        },
        {
          "duration": 0.3571570976562555,
          "durationTicks": 853,
          "midi": 60,
          "name": "C4",
          "ticks": 573440,
          "time": 246.59179199999997,
          "velocity": 0.8661417322834646
        },
        {
          "duration": 0.3571570976562555,
          "durationTicks": 853,
          "midi": 65,
          "name": "F4",
          "ticks": 573440,
          "time": 246.59179199999997,
          "velocity": 0.8661417322834646
        },
        {
          "duration": 0.3571570976562555,
          "durationTicks": 853,
          "midi": 53,
          "name": "F3",
          "ticks": 574464,
          "time": 247.02054799999996,
          "velocity": 0.8661417322834646
        },
        {
          "duration": 0.3571570976562555,
          "durationTicks": 853,
          "midi": 60,
          "name": "C4",
          "ticks": 574464,
          "time": 247.02054799999996,
          "velocity": 0.8661417322834646
        },
        {
          "duration": 0.3571570976562555,
          "durationTicks": 853,
          "midi": 65,
          "name": "F4",
          "ticks": 574464,
          "time": 247.02054799999996,
          "velocity": 0.8661417322834646
        },
        {
          "duration": 0.20977222265625528,
          "durationTicks": 501,
          "midi": 53,
          "name": "F3",
          "ticks": 576000,
          "time": 247.66368199999997,
          "velocity": 0.8661417322834646
        },
        {
          "duration": 0.20977222265625528,
          "durationTicks": 501,
          "midi": 60,
          "name": "C4",
          "ticks": 576000,
          "time": 247.66368199999997,
          "velocity": 0.8661417322834646
        },
        {
          "duration": 0.20977222265625528,
          "durationTicks": 501,
          "midi": 65,
          "name": "F4",
          "ticks": 576000,
          "time": 247.66368199999997,
          "velocity": 0.8661417322834646
        },
        {
          "duration": 0.10258322265624997,
          "durationTicks": 245,
          "midi": 53,
          "name": "F3",
          "ticks": 576512,
          "time": 247.87805999999998,
          "velocity": 0.8661417322834646
        },
        {
          "duration": 0.10258322265624997,
          "durationTicks": 245,
          "midi": 60,
          "name": "C4",
          "ticks": 576512,
          "time": 247.87805999999998,
          "velocity": 0.8661417322834646
        },
        {
          "duration": 0.10258322265624997,
          "durationTicks": 245,
          "midi": 65,
          "name": "F4",
          "ticks": 576512,
          "time": 247.87805999999998,
          "velocity": 0.8661417322834646
        },
        {
          "duration": 0.10258322265624997,
          "durationTicks": 245,
          "midi": 53,
          "name": "F3",
          "ticks": 576768,
          "time": 247.98524899999998,
          "velocity": 0.8661417322834646
        },
        {
          "duration": 0.10258322265624997,
          "durationTicks": 245,
          "midi": 60,
          "name": "C4",
          "ticks": 576768,
          "time": 247.98524899999998,
          "velocity": 0.8661417322834646
        },
        {
          "duration": 0.10258322265624997,
          "durationTicks": 245,
          "midi": 65,
          "name": "F4",
          "ticks": 576768,
          "time": 247.98524899999998,
          "velocity": 0.8661417322834646
        },
        {
          "duration": 0.1025832226562784,
          "durationTicks": 245,
          "midi": 53,
          "name": "F3",
          "ticks": 577024,
          "time": 248.09243799999996,
          "velocity": 0.8661417322834646
        },
        {
          "duration": 0.1025832226562784,
          "durationTicks": 245,
          "midi": 60,
          "name": "C4",
          "ticks": 577024,
          "time": 248.09243799999996,
          "velocity": 0.8661417322834646
        },
        {
          "duration": 0.1025832226562784,
          "durationTicks": 245,
          "midi": 65,
          "name": "F4",
          "ticks": 577024,
          "time": 248.09243799999996,
          "velocity": 0.8661417322834646
        },
        {
          "duration": 0.10258322265624997,
          "durationTicks": 245,
          "midi": 53,
          "name": "F3",
          "ticks": 577280,
          "time": 248.19962699999996,
          "velocity": 0.8661417322834646
        },
        {
          "duration": 0.10258322265624997,
          "durationTicks": 245,
          "midi": 60,
          "name": "C4",
          "ticks": 577280,
          "time": 248.19962699999996,
          "velocity": 0.8661417322834646
        },
        {
          "duration": 0.10258322265624997,
          "durationTicks": 245,
          "midi": 65,
          "name": "F4",
          "ticks": 577280,
          "time": 248.19962699999996,
          "velocity": 0.8661417322834646
        },
        {
          "duration": 0.3571570976562555,
          "durationTicks": 853,
          "midi": 55,
          "name": "G3",
          "ticks": 577536,
          "time": 248.30681599999997,
          "velocity": 0.8661417322834646
        },
        {
          "duration": 0.3571570976562555,
          "durationTicks": 853,
          "midi": 62,
          "name": "D4",
          "ticks": 577536,
          "time": 248.30681599999997,
          "velocity": 0.8661417322834646
        },
        {
          "duration": 0.3571570976562555,
          "durationTicks": 853,
          "midi": 67,
          "name": "G4",
          "ticks": 577536,
          "time": 248.30681599999997,
          "velocity": 0.8661417322834646
        },
        {
          "duration": 0.3571570976562555,
          "durationTicks": 853,
          "midi": 55,
          "name": "G3",
          "ticks": 578560,
          "time": 248.73557199999996,
          "velocity": 0.8661417322834646
        },
        {
          "duration": 0.3571570976562555,
          "durationTicks": 853,
          "midi": 62,
          "name": "D4",
          "ticks": 578560,
          "time": 248.73557199999996,
          "velocity": 0.8661417322834646
        },
        {
          "duration": 0.3571570976562555,
          "durationTicks": 853,
          "midi": 67,
          "name": "G4",
          "ticks": 578560,
          "time": 248.73557199999996,
          "velocity": 0.8661417322834646
        },
        {
          "duration": 0.20977222265625528,
          "durationTicks": 501,
          "midi": 55,
          "name": "G3",
          "ticks": 580096,
          "time": 249.37870599999997,
          "velocity": 0.8661417322834646
        },
        {
          "duration": 0.20977222265625528,
          "durationTicks": 501,
          "midi": 62,
          "name": "D4",
          "ticks": 580096,
          "time": 249.37870599999997,
          "velocity": 0.8661417322834646
        },
        {
          "duration": 0.20977222265625528,
          "durationTicks": 501,
          "midi": 67,
          "name": "G4",
          "ticks": 580096,
          "time": 249.37870599999997,
          "velocity": 0.8661417322834646
        },
        {
          "duration": 0.10258322265624997,
          "durationTicks": 245,
          "midi": 55,
          "name": "G3",
          "ticks": 580608,
          "time": 249.59308399999998,
          "velocity": 0.8661417322834646
        },
        {
          "duration": 0.10258322265624997,
          "durationTicks": 245,
          "midi": 62,
          "name": "D4",
          "ticks": 580608,
          "time": 249.59308399999998,
          "velocity": 0.8661417322834646
        },
        {
          "duration": 0.10258322265624997,
          "durationTicks": 245,
          "midi": 67,
          "name": "G4",
          "ticks": 580608,
          "time": 249.59308399999998,
          "velocity": 0.8661417322834646
        },
        {
          "duration": 0.10258322265624997,
          "durationTicks": 245,
          "midi": 55,
          "name": "G3",
          "ticks": 580864,
          "time": 249.70027299999998,
          "velocity": 0.8661417322834646
        },
        {
          "duration": 0.10258322265624997,
          "durationTicks": 245,
          "midi": 62,
          "name": "D4",
          "ticks": 580864,
          "time": 249.70027299999998,
          "velocity": 0.8661417322834646
        },
        {
          "duration": 0.10258322265624997,
          "durationTicks": 245,
          "midi": 67,
          "name": "G4",
          "ticks": 580864,
          "time": 249.70027299999998,
          "velocity": 0.8661417322834646
        },
        {
          "duration": 0.10258322265622155,
          "durationTicks": 245,
          "midi": 55,
          "name": "G3",
          "ticks": 581120,
          "time": 249.807462,
          "velocity": 0.8661417322834646
        },
        {
          "duration": 0.10258322265622155,
          "durationTicks": 245,
          "midi": 62,
          "name": "D4",
          "ticks": 581120,
          "time": 249.807462,
          "velocity": 0.8661417322834646
        },
        {
          "duration": 0.10258322265622155,
          "durationTicks": 245,
          "midi": 67,
          "name": "G4",
          "ticks": 581120,
          "time": 249.807462,
          "velocity": 0.8661417322834646
        },
        {
          "duration": 0.10258322265624997,
          "durationTicks": 245,
          "midi": 55,
          "name": "G3",
          "ticks": 581376,
          "time": 249.91465099999996,
          "velocity": 0.8661417322834646
        },
        {
          "duration": 0.10258322265624997,
          "durationTicks": 245,
          "midi": 62,
          "name": "D4",
          "ticks": 581376,
          "time": 249.91465099999996,
          "velocity": 0.8661417322834646
        },
        {
          "duration": 0.10258322265624997,
          "durationTicks": 245,
          "midi": 67,
          "name": "G4",
          "ticks": 581376,
          "time": 249.91465099999996,
          "velocity": 0.8661417322834646
        },
        {
          "duration": 0.3571570976562555,
          "durationTicks": 853,
          "midi": 53,
          "name": "F3",
          "ticks": 581632,
          "time": 250.02183999999997,
          "velocity": 0.8661417322834646
        },
        {
          "duration": 0.3571570976562555,
          "durationTicks": 853,
          "midi": 60,
          "name": "C4",
          "ticks": 581632,
          "time": 250.02183999999997,
          "velocity": 0.8661417322834646
        },
        {
          "duration": 0.3571570976562555,
          "durationTicks": 853,
          "midi": 65,
          "name": "F4",
          "ticks": 581632,
          "time": 250.02183999999997,
          "velocity": 0.8661417322834646
        },
        {
          "duration": 0.3571570976562555,
          "durationTicks": 853,
          "midi": 53,
          "name": "F3",
          "ticks": 582656,
          "time": 250.45059599999996,
          "velocity": 0.8661417322834646
        },
        {
          "duration": 0.3571570976562555,
          "durationTicks": 853,
          "midi": 60,
          "name": "C4",
          "ticks": 582656,
          "time": 250.45059599999996,
          "velocity": 0.8661417322834646
        },
        {
          "duration": 0.3571570976562555,
          "durationTicks": 853,
          "midi": 65,
          "name": "F4",
          "ticks": 582656,
          "time": 250.45059599999996,
          "velocity": 0.8661417322834646
        },
        {
          "duration": 0.20977222265625528,
          "durationTicks": 501,
          "midi": 53,
          "name": "F3",
          "ticks": 584192,
          "time": 251.09372999999997,
          "velocity": 0.8661417322834646
        },
        {
          "duration": 0.20977222265625528,
          "durationTicks": 501,
          "midi": 60,
          "name": "C4",
          "ticks": 584192,
          "time": 251.09372999999997,
          "velocity": 0.8661417322834646
        },
        {
          "duration": 0.20977222265625528,
          "durationTicks": 501,
          "midi": 65,
          "name": "F4",
          "ticks": 584192,
          "time": 251.09372999999997,
          "velocity": 0.8661417322834646
        },
        {
          "duration": 0.10258322265624997,
          "durationTicks": 245,
          "midi": 53,
          "name": "F3",
          "ticks": 584704,
          "time": 251.30810799999998,
          "velocity": 0.8661417322834646
        },
        {
          "duration": 0.10258322265624997,
          "durationTicks": 245,
          "midi": 60,
          "name": "C4",
          "ticks": 584704,
          "time": 251.30810799999998,
          "velocity": 0.8661417322834646
        },
        {
          "duration": 0.10258322265624997,
          "durationTicks": 245,
          "midi": 65,
          "name": "F4",
          "ticks": 584704,
          "time": 251.30810799999998,
          "velocity": 0.8661417322834646
        },
        {
          "duration": 0.10258322265624997,
          "durationTicks": 245,
          "midi": 53,
          "name": "F3",
          "ticks": 584960,
          "time": 251.41529699999998,
          "velocity": 0.8661417322834646
        },
        {
          "duration": 0.10258322265624997,
          "durationTicks": 245,
          "midi": 60,
          "name": "C4",
          "ticks": 584960,
          "time": 251.41529699999998,
          "velocity": 0.8661417322834646
        },
        {
          "duration": 0.10258322265624997,
          "durationTicks": 245,
          "midi": 65,
          "name": "F4",
          "ticks": 584960,
          "time": 251.41529699999998,
          "velocity": 0.8661417322834646
        },
        {
          "duration": 0.1025832226562784,
          "durationTicks": 245,
          "midi": 53,
          "name": "F3",
          "ticks": 585216,
          "time": 251.52248599999996,
          "velocity": 0.8661417322834646
        },
        {
          "duration": 0.1025832226562784,
          "durationTicks": 245,
          "midi": 60,
          "name": "C4",
          "ticks": 585216,
          "time": 251.52248599999996,
          "velocity": 0.8661417322834646
        },
        {
          "duration": 0.1025832226562784,
          "durationTicks": 245,
          "midi": 65,
          "name": "F4",
          "ticks": 585216,
          "time": 251.52248599999996,
          "velocity": 0.8661417322834646
        },
        {
          "duration": 0.10258322265624997,
          "durationTicks": 245,
          "midi": 53,
          "name": "F3",
          "ticks": 585472,
          "time": 251.62967499999996,
          "velocity": 0.8661417322834646
        },
        {
          "duration": 0.10258322265624997,
          "durationTicks": 245,
          "midi": 60,
          "name": "C4",
          "ticks": 585472,
          "time": 251.62967499999996,
          "velocity": 0.8661417322834646
        },
        {
          "duration": 0.10258322265624997,
          "durationTicks": 245,
          "midi": 65,
          "name": "F4",
          "ticks": 585472,
          "time": 251.62967499999996,
          "velocity": 0.8661417322834646
        },
        {
          "duration": 0.3571570976562555,
          "durationTicks": 853,
          "midi": 55,
          "name": "G3",
          "ticks": 585728,
          "time": 251.73686399999997,
          "velocity": 0.8661417322834646
        },
        {
          "duration": 0.3571570976562555,
          "durationTicks": 853,
          "midi": 62,
          "name": "D4",
          "ticks": 585728,
          "time": 251.73686399999997,
          "velocity": 0.8661417322834646
        },
        {
          "duration": 0.3571570976562555,
          "durationTicks": 853,
          "midi": 67,
          "name": "G4",
          "ticks": 585728,
          "time": 251.73686399999997,
          "velocity": 0.8661417322834646
        },
        {
          "duration": 0.35715709765622705,
          "durationTicks": 853,
          "midi": 55,
          "name": "G3",
          "ticks": 586752,
          "time": 252.16562,
          "velocity": 0.8661417322834646
        },
        {
          "duration": 0.35715709765622705,
          "durationTicks": 853,
          "midi": 62,
          "name": "D4",
          "ticks": 586752,
          "time": 252.16562,
          "velocity": 0.8661417322834646
        },
        {
          "duration": 0.35715709765622705,
          "durationTicks": 853,
          "midi": 67,
          "name": "G4",
          "ticks": 586752,
          "time": 252.16562,
          "velocity": 0.8661417322834646
        },
        {
          "duration": 0.20977222265625528,
          "durationTicks": 501,
          "midi": 55,
          "name": "G3",
          "ticks": 588288,
          "time": 252.80875399999996,
          "velocity": 0.8661417322834646
        },
        {
          "duration": 0.20977222265625528,
          "durationTicks": 501,
          "midi": 62,
          "name": "D4",
          "ticks": 588288,
          "time": 252.80875399999996,
          "velocity": 0.8661417322834646
        },
        {
          "duration": 0.20977222265625528,
          "durationTicks": 501,
          "midi": 67,
          "name": "G4",
          "ticks": 588288,
          "time": 252.80875399999996,
          "velocity": 0.8661417322834646
        },
        {
          "duration": 0.10258322265624997,
          "durationTicks": 245,
          "midi": 55,
          "name": "G3",
          "ticks": 588800,
          "time": 253.02313199999998,
          "velocity": 0.8661417322834646
        },
        {
          "duration": 0.10258322265624997,
          "durationTicks": 245,
          "midi": 62,
          "name": "D4",
          "ticks": 588800,
          "time": 253.02313199999998,
          "velocity": 0.8661417322834646
        },
        {
          "duration": 0.10258322265624997,
          "durationTicks": 245,
          "midi": 67,
          "name": "G4",
          "ticks": 588800,
          "time": 253.02313199999998,
          "velocity": 0.8661417322834646
        },
        {
          "duration": 0.10258322265624997,
          "durationTicks": 245,
          "midi": 55,
          "name": "G3",
          "ticks": 589056,
          "time": 253.13032099999998,
          "velocity": 0.8661417322834646
        },
        {
          "duration": 0.10258322265624997,
          "durationTicks": 245,
          "midi": 62,
          "name": "D4",
          "ticks": 589056,
          "time": 253.13032099999998,
          "velocity": 0.8661417322834646
        },
        {
          "duration": 0.10258322265624997,
          "durationTicks": 245,
          "midi": 67,
          "name": "G4",
          "ticks": 589056,
          "time": 253.13032099999998,
          "velocity": 0.8661417322834646
        },
        {
          "duration": 0.10258322265622155,
          "durationTicks": 245,
          "midi": 55,
          "name": "G3",
          "ticks": 589312,
          "time": 253.23751,
          "velocity": 0.8661417322834646
        },
        {
          "duration": 0.10258322265622155,
          "durationTicks": 245,
          "midi": 62,
          "name": "D4",
          "ticks": 589312,
          "time": 253.23751,
          "velocity": 0.8661417322834646
        },
        {
          "duration": 0.10258322265622155,
          "durationTicks": 245,
          "midi": 67,
          "name": "G4",
          "ticks": 589312,
          "time": 253.23751,
          "velocity": 0.8661417322834646
        },
        {
          "duration": 0.10258322265624997,
          "durationTicks": 245,
          "midi": 55,
          "name": "G3",
          "ticks": 589568,
          "time": 253.34469899999996,
          "velocity": 0.8661417322834646
        },
        {
          "duration": 0.10258322265624997,
          "durationTicks": 245,
          "midi": 62,
          "name": "D4",
          "ticks": 589568,
          "time": 253.34469899999996,
          "velocity": 0.8661417322834646
        },
        {
          "duration": 0.10258322265624997,
          "durationTicks": 245,
          "midi": 67,
          "name": "G4",
          "ticks": 589568,
          "time": 253.34469899999996,
          "velocity": 0.8661417322834646
        },
        {
          "duration": 0.3571570976562555,
          "durationTicks": 853,
          "midi": 56,
          "name": "G#3",
          "ticks": 589824,
          "time": 253.45188799999997,
          "velocity": 0.8661417322834646
        },
        {
          "duration": 0.3571570976562555,
          "durationTicks": 853,
          "midi": 63,
          "name": "D#4",
          "ticks": 589824,
          "time": 253.45188799999997,
          "velocity": 0.8661417322834646
        },
        {
          "duration": 0.3571570976562555,
          "durationTicks": 853,
          "midi": 68,
          "name": "G#4",
          "ticks": 589824,
          "time": 253.45188799999997,
          "velocity": 0.8661417322834646
        },
        {
          "duration": 0.3571570976562555,
          "durationTicks": 853,
          "midi": 56,
          "name": "G#3",
          "ticks": 590848,
          "time": 253.88064399999996,
          "velocity": 0.8661417322834646
        },
        {
          "duration": 0.3571570976562555,
          "durationTicks": 853,
          "midi": 63,
          "name": "D#4",
          "ticks": 590848,
          "time": 253.88064399999996,
          "velocity": 0.8661417322834646
        },
        {
          "duration": 0.3571570976562555,
          "durationTicks": 853,
          "midi": 68,
          "name": "G#4",
          "ticks": 590848,
          "time": 253.88064399999996,
          "velocity": 0.8661417322834646
        },
        {
          "duration": 0.20977222265625528,
          "durationTicks": 501,
          "midi": 56,
          "name": "G#3",
          "ticks": 592384,
          "time": 254.52377799999996,
          "velocity": 0.8661417322834646
        },
        {
          "duration": 0.20977222265625528,
          "durationTicks": 501,
          "midi": 63,
          "name": "D#4",
          "ticks": 592384,
          "time": 254.52377799999996,
          "velocity": 0.8661417322834646
        },
        {
          "duration": 0.20977222265625528,
          "durationTicks": 501,
          "midi": 68,
          "name": "G#4",
          "ticks": 592384,
          "time": 254.52377799999996,
          "velocity": 0.8661417322834646
        },
        {
          "duration": 0.10258322265624997,
          "durationTicks": 245,
          "midi": 56,
          "name": "G#3",
          "ticks": 592896,
          "time": 254.73815599999998,
          "velocity": 0.8661417322834646
        },
        {
          "duration": 0.10258322265624997,
          "durationTicks": 245,
          "midi": 63,
          "name": "D#4",
          "ticks": 592896,
          "time": 254.73815599999998,
          "velocity": 0.8661417322834646
        },
        {
          "duration": 0.10258322265624997,
          "durationTicks": 245,
          "midi": 68,
          "name": "G#4",
          "ticks": 592896,
          "time": 254.73815599999998,
          "velocity": 0.8661417322834646
        },
        {
          "duration": 0.10258322265624997,
          "durationTicks": 245,
          "midi": 56,
          "name": "G#3",
          "ticks": 593152,
          "time": 254.84534499999998,
          "velocity": 0.8661417322834646
        },
        {
          "duration": 0.10258322265624997,
          "durationTicks": 245,
          "midi": 63,
          "name": "D#4",
          "ticks": 593152,
          "time": 254.84534499999998,
          "velocity": 0.8661417322834646
        },
        {
          "duration": 0.10258322265624997,
          "durationTicks": 245,
          "midi": 68,
          "name": "G#4",
          "ticks": 593152,
          "time": 254.84534499999998,
          "velocity": 0.8661417322834646
        },
        {
          "duration": 0.1025832226562784,
          "durationTicks": 245,
          "midi": 56,
          "name": "G#3",
          "ticks": 593408,
          "time": 254.95253399999996,
          "velocity": 0.8661417322834646
        },
        {
          "duration": 0.1025832226562784,
          "durationTicks": 245,
          "midi": 63,
          "name": "D#4",
          "ticks": 593408,
          "time": 254.95253399999996,
          "velocity": 0.8661417322834646
        },
        {
          "duration": 0.1025832226562784,
          "durationTicks": 245,
          "midi": 68,
          "name": "G#4",
          "ticks": 593408,
          "time": 254.95253399999996,
          "velocity": 0.8661417322834646
        },
        {
          "duration": 0.10258322265624997,
          "durationTicks": 245,
          "midi": 56,
          "name": "G#3",
          "ticks": 593664,
          "time": 255.05972299999996,
          "velocity": 0.8661417322834646
        },
        {
          "duration": 0.10258322265624997,
          "durationTicks": 245,
          "midi": 63,
          "name": "D#4",
          "ticks": 593664,
          "time": 255.05972299999996,
          "velocity": 0.8661417322834646
        },
        {
          "duration": 0.10258322265624997,
          "durationTicks": 245,
          "midi": 68,
          "name": "G#4",
          "ticks": 593664,
          "time": 255.05972299999996,
          "velocity": 0.8661417322834646
        },
        {
          "duration": 0.3571570976562555,
          "durationTicks": 853,
          "midi": 58,
          "name": "A#3",
          "ticks": 593920,
          "time": 255.16691199999997,
          "velocity": 0.8661417322834646
        },
        {
          "duration": 0.3571570976562555,
          "durationTicks": 853,
          "midi": 65,
          "name": "F4",
          "ticks": 593920,
          "time": 255.16691199999997,
          "velocity": 0.8661417322834646
        },
        {
          "duration": 0.3571570976562555,
          "durationTicks": 853,
          "midi": 70,
          "name": "A#4",
          "ticks": 593920,
          "time": 255.16691199999997,
          "velocity": 0.8661417322834646
        },
        {
          "duration": 0.35715709765622705,
          "durationTicks": 853,
          "midi": 58,
          "name": "A#3",
          "ticks": 594944,
          "time": 255.595668,
          "velocity": 0.8661417322834646
        },
        {
          "duration": 0.35715709765622705,
          "durationTicks": 853,
          "midi": 65,
          "name": "F4",
          "ticks": 594944,
          "time": 255.595668,
          "velocity": 0.8661417322834646
        },
        {
          "duration": 0.35715709765622705,
          "durationTicks": 853,
          "midi": 70,
          "name": "A#4",
          "ticks": 594944,
          "time": 255.595668,
          "velocity": 0.8661417322834646
        },
        {
          "duration": 0.2097722226562837,
          "durationTicks": 501,
          "midi": 58,
          "name": "A#3",
          "ticks": 596480,
          "time": 256.23880199999996,
          "velocity": 0.8661417322834646
        },
        {
          "duration": 0.2097722226562837,
          "durationTicks": 501,
          "midi": 65,
          "name": "F4",
          "ticks": 596480,
          "time": 256.23880199999996,
          "velocity": 0.8661417322834646
        },
        {
          "duration": 0.2097722226562837,
          "durationTicks": 501,
          "midi": 70,
          "name": "A#4",
          "ticks": 596480,
          "time": 256.23880199999996,
          "velocity": 0.8661417322834646
        },
        {
          "duration": 0.10258322265622155,
          "durationTicks": 245,
          "midi": 58,
          "name": "A#3",
          "ticks": 596992,
          "time": 256.45318,
          "velocity": 0.8661417322834646
        },
        {
          "duration": 0.10258322265622155,
          "durationTicks": 245,
          "midi": 65,
          "name": "F4",
          "ticks": 596992,
          "time": 256.45318,
          "velocity": 0.8661417322834646
        },
        {
          "duration": 0.10258322265622155,
          "durationTicks": 245,
          "midi": 70,
          "name": "A#4",
          "ticks": 596992,
          "time": 256.45318,
          "velocity": 0.8661417322834646
        },
        {
          "duration": 0.10258322265622155,
          "durationTicks": 245,
          "midi": 58,
          "name": "A#3",
          "ticks": 597248,
          "time": 256.560369,
          "velocity": 0.8661417322834646
        },
        {
          "duration": 0.10258322265622155,
          "durationTicks": 245,
          "midi": 65,
          "name": "F4",
          "ticks": 597248,
          "time": 256.560369,
          "velocity": 0.8661417322834646
        },
        {
          "duration": 0.10258322265622155,
          "durationTicks": 245,
          "midi": 70,
          "name": "A#4",
          "ticks": 597248,
          "time": 256.560369,
          "velocity": 0.8661417322834646
        },
        {
          "duration": 0.10258322265622155,
          "durationTicks": 245,
          "midi": 58,
          "name": "A#3",
          "ticks": 597504,
          "time": 256.667558,
          "velocity": 0.8661417322834646
        },
        {
          "duration": 0.10258322265622155,
          "durationTicks": 245,
          "midi": 65,
          "name": "F4",
          "ticks": 597504,
          "time": 256.667558,
          "velocity": 0.8661417322834646
        },
        {
          "duration": 0.10258322265622155,
          "durationTicks": 245,
          "midi": 70,
          "name": "A#4",
          "ticks": 597504,
          "time": 256.667558,
          "velocity": 0.8661417322834646
        },
        {
          "duration": 0.10258322265622155,
          "durationTicks": 245,
          "midi": 58,
          "name": "A#3",
          "ticks": 597760,
          "time": 256.774747,
          "velocity": 0.8661417322834646
        },
        {
          "duration": 0.10258322265622155,
          "durationTicks": 245,
          "midi": 65,
          "name": "F4",
          "ticks": 597760,
          "time": 256.774747,
          "velocity": 0.8661417322834646
        },
        {
          "duration": 0.10258322265622155,
          "durationTicks": 245,
          "midi": 70,
          "name": "A#4",
          "ticks": 597760,
          "time": 256.774747,
          "velocity": 0.8661417322834646
        },
        {
          "duration": 0.35715709765622705,
          "durationTicks": 853,
          "midi": 50,
          "name": "D3",
          "ticks": 598016,
          "time": 256.881936,
          "velocity": 0.8661417322834646
        },
        {
          "duration": 0.35715709765622705,
          "durationTicks": 853,
          "midi": 57,
          "name": "A3",
          "ticks": 598016,
          "time": 256.881936,
          "velocity": 0.8661417322834646
        },
        {
          "duration": 0.35715709765622705,
          "durationTicks": 853,
          "midi": 62,
          "name": "D4",
          "ticks": 598016,
          "time": 256.881936,
          "velocity": 0.8661417322834646
        },
        {
          "duration": 0.3571570976562839,
          "durationTicks": 853,
          "midi": 50,
          "name": "D3",
          "ticks": 599040,
          "time": 257.31069199999996,
          "velocity": 0.8661417322834646
        },
        {
          "duration": 0.3571570976562839,
          "durationTicks": 853,
          "midi": 57,
          "name": "A3",
          "ticks": 599040,
          "time": 257.31069199999996,
          "velocity": 0.8661417322834646
        },
        {
          "duration": 0.3571570976562839,
          "durationTicks": 853,
          "midi": 62,
          "name": "D4",
          "ticks": 599040,
          "time": 257.31069199999996,
          "velocity": 0.8661417322834646
        },
        {
          "duration": 0.20977222265622686,
          "durationTicks": 501,
          "midi": 50,
          "name": "D3",
          "ticks": 600576,
          "time": 257.953826,
          "velocity": 0.8661417322834646
        },
        {
          "duration": 0.20977222265622686,
          "durationTicks": 501,
          "midi": 57,
          "name": "A3",
          "ticks": 600576,
          "time": 257.953826,
          "velocity": 0.8661417322834646
        },
        {
          "duration": 0.20977222265622686,
          "durationTicks": 501,
          "midi": 62,
          "name": "D4",
          "ticks": 600576,
          "time": 257.953826,
          "velocity": 0.8661417322834646
        },
        {
          "duration": 0.1025832226562784,
          "durationTicks": 245,
          "midi": 50,
          "name": "D3",
          "ticks": 601088,
          "time": 258.16820399999995,
          "velocity": 0.8661417322834646
        },
        {
          "duration": 0.1025832226562784,
          "durationTicks": 245,
          "midi": 57,
          "name": "A3",
          "ticks": 601088,
          "time": 258.16820399999995,
          "velocity": 0.8661417322834646
        },
        {
          "duration": 0.1025832226562784,
          "durationTicks": 245,
          "midi": 62,
          "name": "D4",
          "ticks": 601088,
          "time": 258.16820399999995,
          "velocity": 0.8661417322834646
        },
        {
          "duration": 0.1025832226562784,
          "durationTicks": 245,
          "midi": 50,
          "name": "D3",
          "ticks": 601344,
          "time": 258.27539299999995,
          "velocity": 0.8661417322834646
        },
        {
          "duration": 0.1025832226562784,
          "durationTicks": 245,
          "midi": 57,
          "name": "A3",
          "ticks": 601344,
          "time": 258.27539299999995,
          "velocity": 0.8661417322834646
        },
        {
          "duration": 0.1025832226562784,
          "durationTicks": 245,
          "midi": 62,
          "name": "D4",
          "ticks": 601344,
          "time": 258.27539299999995,
          "velocity": 0.8661417322834646
        },
        {
          "duration": 0.1025832226562784,
          "durationTicks": 245,
          "midi": 50,
          "name": "D3",
          "ticks": 601600,
          "time": 258.38258199999996,
          "velocity": 0.8661417322834646
        },
        {
          "duration": 0.1025832226562784,
          "durationTicks": 245,
          "midi": 57,
          "name": "A3",
          "ticks": 601600,
          "time": 258.38258199999996,
          "velocity": 0.8661417322834646
        },
        {
          "duration": 0.1025832226562784,
          "durationTicks": 245,
          "midi": 62,
          "name": "D4",
          "ticks": 601600,
          "time": 258.38258199999996,
          "velocity": 0.8661417322834646
        },
        {
          "duration": 0.1025832226562784,
          "durationTicks": 245,
          "midi": 50,
          "name": "D3",
          "ticks": 601856,
          "time": 258.48977099999996,
          "velocity": 0.8661417322834646
        },
        {
          "duration": 0.1025832226562784,
          "durationTicks": 245,
          "midi": 57,
          "name": "A3",
          "ticks": 601856,
          "time": 258.48977099999996,
          "velocity": 0.8661417322834646
        },
        {
          "duration": 0.1025832226562784,
          "durationTicks": 245,
          "midi": 62,
          "name": "D4",
          "ticks": 601856,
          "time": 258.48977099999996,
          "velocity": 0.8661417322834646
        },
        {
          "duration": 0.35715709765622705,
          "durationTicks": 853,
          "midi": 52,
          "name": "E3",
          "ticks": 602112,
          "time": 258.59695999999997,
          "velocity": 0.8661417322834646
        },
        {
          "duration": 0.35715709765622705,
          "durationTicks": 853,
          "midi": 59,
          "name": "B3",
          "ticks": 602112,
          "time": 258.59695999999997,
          "velocity": 0.8661417322834646
        },
        {
          "duration": 0.35715709765622705,
          "durationTicks": 853,
          "midi": 64,
          "name": "E4",
          "ticks": 602112,
          "time": 258.59695999999997,
          "velocity": 0.8661417322834646
        },
        {
          "duration": 0.35715709765622705,
          "durationTicks": 853,
          "midi": 52,
          "name": "E3",
          "ticks": 603136,
          "time": 259.025716,
          "velocity": 0.8661417322834646
        },
        {
          "duration": 0.35715709765622705,
          "durationTicks": 853,
          "midi": 59,
          "name": "B3",
          "ticks": 603136,
          "time": 259.025716,
          "velocity": 0.8661417322834646
        },
        {
          "duration": 0.35715709765622705,
          "durationTicks": 853,
          "midi": 64,
          "name": "E4",
          "ticks": 603136,
          "time": 259.025716,
          "velocity": 0.8661417322834646
        },
        {
          "duration": 0.20977222265622686,
          "durationTicks": 501,
          "midi": 52,
          "name": "E3",
          "ticks": 604672,
          "time": 259.66884999999996,
          "velocity": 0.8661417322834646
        },
        {
          "duration": 0.20977222265622686,
          "durationTicks": 501,
          "midi": 59,
          "name": "B3",
          "ticks": 604672,
          "time": 259.66884999999996,
          "velocity": 0.8661417322834646
        },
        {
          "duration": 0.20977222265622686,
          "durationTicks": 501,
          "midi": 64,
          "name": "E4",
          "ticks": 604672,
          "time": 259.66884999999996,
          "velocity": 0.8661417322834646
        },
        {
          "duration": 0.1025832226562784,
          "durationTicks": 245,
          "midi": 52,
          "name": "E3",
          "ticks": 605184,
          "time": 259.883228,
          "velocity": 0.8661417322834646
        },
        {
          "duration": 0.1025832226562784,
          "durationTicks": 245,
          "midi": 59,
          "name": "B3",
          "ticks": 605184,
          "time": 259.883228,
          "velocity": 0.8661417322834646
        },
        {
          "duration": 0.1025832226562784,
          "durationTicks": 245,
          "midi": 64,
          "name": "E4",
          "ticks": 605184,
          "time": 259.883228,
          "velocity": 0.8661417322834646
        },
        {
          "duration": 0.10258322265622155,
          "durationTicks": 245,
          "midi": 52,
          "name": "E3",
          "ticks": 605440,
          "time": 259.990417,
          "velocity": 0.8661417322834646
        },
        {
          "duration": 0.10258322265622155,
          "durationTicks": 245,
          "midi": 59,
          "name": "B3",
          "ticks": 605440,
          "time": 259.990417,
          "velocity": 0.8661417322834646
        },
        {
          "duration": 0.10258322265622155,
          "durationTicks": 245,
          "midi": 64,
          "name": "E4",
          "ticks": 605440,
          "time": 259.990417,
          "velocity": 0.8661417322834646
        },
        {
          "duration": 0.10258322265622155,
          "durationTicks": 245,
          "midi": 52,
          "name": "E3",
          "ticks": 605696,
          "time": 260.097606,
          "velocity": 0.8661417322834646
        },
        {
          "duration": 0.10258322265622155,
          "durationTicks": 245,
          "midi": 59,
          "name": "B3",
          "ticks": 605696,
          "time": 260.097606,
          "velocity": 0.8661417322834646
        },
        {
          "duration": 0.10258322265622155,
          "durationTicks": 245,
          "midi": 64,
          "name": "E4",
          "ticks": 605696,
          "time": 260.097606,
          "velocity": 0.8661417322834646
        },
        {
          "duration": 0.10258322265622155,
          "durationTicks": 245,
          "midi": 52,
          "name": "E3",
          "ticks": 605952,
          "time": 260.204795,
          "velocity": 0.8661417322834646
        },
        {
          "duration": 0.10258322265622155,
          "durationTicks": 245,
          "midi": 59,
          "name": "B3",
          "ticks": 605952,
          "time": 260.204795,
          "velocity": 0.8661417322834646
        },
        {
          "duration": 0.10258322265622155,
          "durationTicks": 245,
          "midi": 64,
          "name": "E4",
          "ticks": 605952,
          "time": 260.204795,
          "velocity": 0.8661417322834646
        },
        {
          "duration": 0.35715709765622705,
          "durationTicks": 853,
          "midi": 53,
          "name": "F3",
          "ticks": 606208,
          "time": 260.311984,
          "velocity": 0.8661417322834646
        },
        {
          "duration": 0.35715709765622705,
          "durationTicks": 853,
          "midi": 60,
          "name": "C4",
          "ticks": 606208,
          "time": 260.311984,
          "velocity": 0.8661417322834646
        },
        {
          "duration": 0.35715709765622705,
          "durationTicks": 853,
          "midi": 65,
          "name": "F4",
          "ticks": 606208,
          "time": 260.311984,
          "velocity": 0.8661417322834646
        },
        {
          "duration": 0.3571570976562839,
          "durationTicks": 853,
          "midi": 53,
          "name": "F3",
          "ticks": 607232,
          "time": 260.74073999999996,
          "velocity": 0.8661417322834646
        },
        {
          "duration": 0.3571570976562839,
          "durationTicks": 853,
          "midi": 60,
          "name": "C4",
          "ticks": 607232,
          "time": 260.74073999999996,
          "velocity": 0.8661417322834646
        },
        {
          "duration": 0.3571570976562839,
          "durationTicks": 853,
          "midi": 65,
          "name": "F4",
          "ticks": 607232,
          "time": 260.74073999999996,
          "velocity": 0.8661417322834646
        },
        {
          "duration": 0.20977222265622686,
          "durationTicks": 501,
          "midi": 53,
          "name": "F3",
          "ticks": 608768,
          "time": 261.383874,
          "velocity": 0.8661417322834646
        },
        {
          "duration": 0.20977222265622686,
          "durationTicks": 501,
          "midi": 60,
          "name": "C4",
          "ticks": 608768,
          "time": 261.383874,
          "velocity": 0.8661417322834646
        },
        {
          "duration": 0.20977222265622686,
          "durationTicks": 501,
          "midi": 65,
          "name": "F4",
          "ticks": 608768,
          "time": 261.383874,
          "velocity": 0.8661417322834646
        },
        {
          "duration": 0.10258322265622155,
          "durationTicks": 245,
          "midi": 53,
          "name": "F3",
          "ticks": 609280,
          "time": 261.598252,
          "velocity": 0.8661417322834646
        },
        {
          "duration": 0.10258322265622155,
          "durationTicks": 245,
          "midi": 60,
          "name": "C4",
          "ticks": 609280,
          "time": 261.598252,
          "velocity": 0.8661417322834646
        },
        {
          "duration": 0.10258322265622155,
          "durationTicks": 245,
          "midi": 65,
          "name": "F4",
          "ticks": 609280,
          "time": 261.598252,
          "velocity": 0.8661417322834646
        },
        {
          "duration": 0.1025832226562784,
          "durationTicks": 245,
          "midi": 53,
          "name": "F3",
          "ticks": 609536,
          "time": 261.70544099999995,
          "velocity": 0.8661417322834646
        },
        {
          "duration": 0.1025832226562784,
          "durationTicks": 245,
          "midi": 60,
          "name": "C4",
          "ticks": 609536,
          "time": 261.70544099999995,
          "velocity": 0.8661417322834646
        },
        {
          "duration": 0.1025832226562784,
          "durationTicks": 245,
          "midi": 65,
          "name": "F4",
          "ticks": 609536,
          "time": 261.70544099999995,
          "velocity": 0.8661417322834646
        },
        {
          "duration": 0.1025832226562784,
          "durationTicks": 245,
          "midi": 53,
          "name": "F3",
          "ticks": 609792,
          "time": 261.81262999999996,
          "velocity": 0.8661417322834646
        },
        {
          "duration": 0.1025832226562784,
          "durationTicks": 245,
          "midi": 60,
          "name": "C4",
          "ticks": 609792,
          "time": 261.81262999999996,
          "velocity": 0.8661417322834646
        },
        {
          "duration": 0.1025832226562784,
          "durationTicks": 245,
          "midi": 65,
          "name": "F4",
          "ticks": 609792,
          "time": 261.81262999999996,
          "velocity": 0.8661417322834646
        },
        {
          "duration": 0.1025832226562784,
          "durationTicks": 245,
          "midi": 53,
          "name": "F3",
          "ticks": 610048,
          "time": 261.91981899999996,
          "velocity": 0.8661417322834646
        },
        {
          "duration": 0.1025832226562784,
          "durationTicks": 245,
          "midi": 60,
          "name": "C4",
          "ticks": 610048,
          "time": 261.91981899999996,
          "velocity": 0.8661417322834646
        },
        {
          "duration": 0.1025832226562784,
          "durationTicks": 245,
          "midi": 65,
          "name": "F4",
          "ticks": 610048,
          "time": 261.91981899999996,
          "velocity": 0.8661417322834646
        },
        {
          "duration": 0.3571570976562839,
          "durationTicks": 853,
          "midi": 55,
          "name": "G3",
          "ticks": 610304,
          "time": 262.02700799999997,
          "velocity": 0.8661417322834646
        },
        {
          "duration": 0.3571570976562839,
          "durationTicks": 853,
          "midi": 62,
          "name": "D4",
          "ticks": 610304,
          "time": 262.02700799999997,
          "velocity": 0.8661417322834646
        },
        {
          "duration": 0.3571570976562839,
          "durationTicks": 853,
          "midi": 67,
          "name": "G4",
          "ticks": 610304,
          "time": 262.02700799999997,
          "velocity": 0.8661417322834646
        },
        {
          "duration": 0.35715709765622705,
          "durationTicks": 853,
          "midi": 55,
          "name": "G3",
          "ticks": 611328,
          "time": 262.455764,
          "velocity": 0.8661417322834646
        },
        {
          "duration": 0.35715709765622705,
          "durationTicks": 853,
          "midi": 62,
          "name": "D4",
          "ticks": 611328,
          "time": 262.455764,
          "velocity": 0.8661417322834646
        },
        {
          "duration": 0.35715709765622705,
          "durationTicks": 853,
          "midi": 67,
          "name": "G4",
          "ticks": 611328,
          "time": 262.455764,
          "velocity": 0.8661417322834646
        },
        {
          "duration": 0.2097722226562837,
          "durationTicks": 501,
          "midi": 55,
          "name": "G3",
          "ticks": 612864,
          "time": 263.09889799999996,
          "velocity": 0.8661417322834646
        },
        {
          "duration": 0.2097722226562837,
          "durationTicks": 501,
          "midi": 62,
          "name": "D4",
          "ticks": 612864,
          "time": 263.09889799999996,
          "velocity": 0.8661417322834646
        },
        {
          "duration": 0.2097722226562837,
          "durationTicks": 501,
          "midi": 67,
          "name": "G4",
          "ticks": 612864,
          "time": 263.09889799999996,
          "velocity": 0.8661417322834646
        },
        {
          "duration": 0.10258322265622155,
          "durationTicks": 245,
          "midi": 55,
          "name": "G3",
          "ticks": 613376,
          "time": 263.313276,
          "velocity": 0.8661417322834646
        },
        {
          "duration": 0.10258322265622155,
          "durationTicks": 245,
          "midi": 62,
          "name": "D4",
          "ticks": 613376,
          "time": 263.313276,
          "velocity": 0.8661417322834646
        },
        {
          "duration": 0.10258322265622155,
          "durationTicks": 245,
          "midi": 67,
          "name": "G4",
          "ticks": 613376,
          "time": 263.313276,
          "velocity": 0.8661417322834646
        },
        {
          "duration": 0.10258322265622155,
          "durationTicks": 245,
          "midi": 55,
          "name": "G3",
          "ticks": 613632,
          "time": 263.420465,
          "velocity": 0.8661417322834646
        },
        {
          "duration": 0.10258322265622155,
          "durationTicks": 245,
          "midi": 62,
          "name": "D4",
          "ticks": 613632,
          "time": 263.420465,
          "velocity": 0.8661417322834646
        },
        {
          "duration": 0.10258322265622155,
          "durationTicks": 245,
          "midi": 67,
          "name": "G4",
          "ticks": 613632,
          "time": 263.420465,
          "velocity": 0.8661417322834646
        },
        {
          "duration": 0.10258322265622155,
          "durationTicks": 245,
          "midi": 55,
          "name": "G3",
          "ticks": 613888,
          "time": 263.527654,
          "velocity": 0.8661417322834646
        },
        {
          "duration": 0.10258322265622155,
          "durationTicks": 245,
          "midi": 62,
          "name": "D4",
          "ticks": 613888,
          "time": 263.527654,
          "velocity": 0.8661417322834646
        },
        {
          "duration": 0.10258322265622155,
          "durationTicks": 245,
          "midi": 67,
          "name": "G4",
          "ticks": 613888,
          "time": 263.527654,
          "velocity": 0.8661417322834646
        },
        {
          "duration": 0.10258322265622155,
          "durationTicks": 245,
          "midi": 55,
          "name": "G3",
          "ticks": 614144,
          "time": 263.634843,
          "velocity": 0.8661417322834646
        },
        {
          "duration": 0.10258322265622155,
          "durationTicks": 245,
          "midi": 62,
          "name": "D4",
          "ticks": 614144,
          "time": 263.634843,
          "velocity": 0.8661417322834646
        },
        {
          "duration": 0.10258322265622155,
          "durationTicks": 245,
          "midi": 67,
          "name": "G4",
          "ticks": 614144,
          "time": 263.634843,
          "velocity": 0.8661417322834646
        },
        {
          "duration": 0.24473409667967871,
          "durationTicks": 501,
          "midi": 33,
          "name": "A1",
          "ticks": 671744,
          "time": 287.752368,
          "velocity": 0.8661417322834646
        },
        {
          "duration": 0.24473409667967871,
          "durationTicks": 501,
          "midi": 38,
          "name": "D2",
          "ticks": 672256,
          "time": 288.0024755,
          "velocity": 0.8661417322834646
        },
        {
          "duration": 0.24473409667967871,
          "durationTicks": 501,
          "midi": 45,
          "name": "A2",
          "ticks": 672768,
          "time": 288.252583,
          "velocity": 0.8661417322834646
        },
        {
          "duration": 1.1254837500000008,
          "durationTicks": 2304,
          "midi": 44,
          "name": "G#2",
          "ticks": 673280,
          "time": 288.50269049999997,
          "velocity": 0.8661417322834646
        },
        {
          "duration": 0.24473409667967871,
          "durationTicks": 501,
          "midi": 33,
          "name": "A1",
          "ticks": 675840,
          "time": 289.753228,
          "velocity": 0.8661417322834646
        },
        {
          "duration": 0.24473409667967871,
          "durationTicks": 501,
          "midi": 38,
          "name": "D2",
          "ticks": 676352,
          "time": 290.0033355,
          "velocity": 0.8661417322834646
        },
        {
          "duration": 0.24473409667967871,
          "durationTicks": 501,
          "midi": 43,
          "name": "G2",
          "ticks": 676864,
          "time": 290.253443,
          "velocity": 0.8661417322834646
        },
        {
          "duration": 1.1254837500000008,
          "durationTicks": 2304,
          "midi": 41,
          "name": "F2",
          "ticks": 677376,
          "time": 290.5035505,
          "velocity": 0.8661417322834646
        },
        {
          "duration": 0.24473409667973556,
          "durationTicks": 501,
          "midi": 33,
          "name": "A1",
          "ticks": 679936,
          "time": 291.75408799999997,
          "velocity": 0.8661417322834646
        },
        {
          "duration": 0.24473409667967871,
          "durationTicks": 501,
          "midi": 38,
          "name": "D2",
          "ticks": 680448,
          "time": 292.0041955,
          "velocity": 0.8661417322834646
        },
        {
          "duration": 0.24473409667967871,
          "durationTicks": 501,
          "midi": 45,
          "name": "A2",
          "ticks": 680960,
          "time": 292.254303,
          "velocity": 0.8661417322834646
        },
        {
          "duration": 0.4948415966796915,
          "durationTicks": 1013,
          "midi": 44,
          "name": "G#2",
          "ticks": 681472,
          "time": 292.5044105,
          "velocity": 0.8661417322834646
        },
        {
          "duration": 0.4948415966796915,
          "durationTicks": 1013,
          "midi": 43,
          "name": "G2",
          "ticks": 682496,
          "time": 293.0046255,
          "velocity": 0.8661417322834646
        },
        {
          "duration": 0.4948415966796915,
          "durationTicks": 1013,
          "midi": 41,
          "name": "F2",
          "ticks": 683520,
          "time": 293.5048405,
          "velocity": 0.8661417322834646
        },
        {
          "duration": 1.6256987500000264,
          "durationTicks": 3328,
          "midi": 38,
          "name": "D2",
          "ticks": 684544,
          "time": 294.00505549999997,
          "velocity": 0.8661417322834646
        },
        {
          "duration": 0.24473409667967871,
          "durationTicks": 501,
          "midi": 33,
          "name": "A1",
          "ticks": 688128,
          "time": 295.755808,
          "velocity": 0.8661417322834646
        },
        {
          "duration": 0.24473409667967871,
          "durationTicks": 501,
          "midi": 38,
          "name": "D2",
          "ticks": 688640,
          "time": 296.0059155,
          "velocity": 0.8661417322834646
        },
        {
          "duration": 0.24473409667967871,
          "durationTicks": 501,
          "midi": 45,
          "name": "A2",
          "ticks": 689152,
          "time": 296.25602299999997,
          "velocity": 0.8661417322834646
        },
        {
          "duration": 1.1254837500000008,
          "durationTicks": 2304,
          "midi": 44,
          "name": "G#2",
          "ticks": 689664,
          "time": 296.5061305,
          "velocity": 0.8661417322834646
        },
        {
          "duration": 0.24473409667967871,
          "durationTicks": 501,
          "midi": 33,
          "name": "A1",
          "ticks": 692224,
          "time": 297.756668,
          "velocity": 0.8661417322834646
        },
        {
          "duration": 0.24473409667967871,
          "durationTicks": 501,
          "midi": 38,
          "name": "D2",
          "ticks": 692736,
          "time": 298.0067755,
          "velocity": 0.8661417322834646
        },
        {
          "duration": 0.24473409667967871,
          "durationTicks": 501,
          "midi": 43,
          "name": "G2",
          "ticks": 693248,
          "time": 298.256883,
          "velocity": 0.8661417322834646
        },
        {
          "duration": 1.1254837500000008,
          "durationTicks": 2304,
          "midi": 41,
          "name": "F2",
          "ticks": 693760,
          "time": 298.5069905,
          "velocity": 0.8661417322834646
        },
        {
          "duration": 0.24473409667967871,
          "durationTicks": 501,
          "midi": 33,
          "name": "A1",
          "ticks": 696320,
          "time": 299.757528,
          "velocity": 0.8661417322834646
        },
        {
          "duration": 0.24473409667967871,
          "durationTicks": 501,
          "midi": 38,
          "name": "D2",
          "ticks": 696832,
          "time": 300.0076355,
          "velocity": 0.8661417322834646
        },
        {
          "duration": 0.24473409667967871,
          "durationTicks": 501,
          "midi": 45,
          "name": "A2",
          "ticks": 697344,
          "time": 300.257743,
          "velocity": 0.8661417322834646
        },
        {
          "duration": 0.4948415966796347,
          "durationTicks": 1013,
          "midi": 44,
          "name": "G#2",
          "ticks": 697856,
          "time": 300.5078505,
          "velocity": 0.8661417322834646
        },
        {
          "duration": 0.4948415966796915,
          "durationTicks": 1013,
          "midi": 43,
          "name": "G2",
          "ticks": 698880,
          "time": 301.0080655,
          "velocity": 0.8661417322834646
        },
        {
          "duration": 0.4948415966796915,
          "durationTicks": 1013,
          "midi": 41,
          "name": "F2",
          "ticks": 699904,
          "time": 301.5082805,
          "velocity": 0.8661417322834646
        },
        {
          "duration": 1.6256987500000264,
          "durationTicks": 3328,
          "midi": 38,
          "name": "D2",
          "ticks": 700928,
          "time": 302.0084955,
          "velocity": 0.8661417322834646
        },
        {
          "duration": 0.24473409667967871,
          "durationTicks": 501,
          "midi": 33,
          "name": "A1",
          "ticks": 704512,
          "time": 303.759248,
          "velocity": 0.8661417322834646
        },
        {
          "duration": 0.24473409667973556,
          "durationTicks": 501,
          "midi": 38,
          "name": "D2",
          "ticks": 705024,
          "time": 304.00935549999997,
          "velocity": 0.8661417322834646
        },
        {
          "duration": 0.24473409667967871,
          "durationTicks": 501,
          "midi": 45,
          "name": "A2",
          "ticks": 705536,
          "time": 304.259463,
          "velocity": 0.8661417322834646
        },
        {
          "duration": 1.1254837500000008,
          "durationTicks": 2304,
          "midi": 44,
          "name": "G#2",
          "ticks": 706048,
          "time": 304.5095705,
          "velocity": 0.8661417322834646
        },
        {
          "duration": 0.24473409667967871,
          "durationTicks": 501,
          "midi": 33,
          "name": "A1",
          "ticks": 708608,
          "time": 305.760108,
          "velocity": 0.8661417322834646
        },
        {
          "duration": 0.24473409667967871,
          "durationTicks": 501,
          "midi": 38,
          "name": "D2",
          "ticks": 709120,
          "time": 306.0102155,
          "velocity": 0.8661417322834646
        },
        {
          "duration": 0.24473409667967871,
          "durationTicks": 501,
          "midi": 43,
          "name": "G2",
          "ticks": 709632,
          "time": 306.26032299999997,
          "velocity": 0.8661417322834646
        },
        {
          "duration": 1.1254837500000008,
          "durationTicks": 2304,
          "midi": 41,
          "name": "F2",
          "ticks": 710144,
          "time": 306.5104305,
          "velocity": 0.8661417322834646
        },
        {
          "duration": 0.24473409667967871,
          "durationTicks": 501,
          "midi": 33,
          "name": "A1",
          "ticks": 712704,
          "time": 307.760968,
          "velocity": 0.8661417322834646
        },
        {
          "duration": 0.24473409667967871,
          "durationTicks": 501,
          "midi": 38,
          "name": "D2",
          "ticks": 713216,
          "time": 308.0110755,
          "velocity": 0.8661417322834646
        },
        {
          "duration": 0.24473409667973556,
          "durationTicks": 501,
          "midi": 45,
          "name": "A2",
          "ticks": 713728,
          "time": 308.26118299999996,
          "velocity": 0.8661417322834646
        },
        {
          "duration": 0.4948415966796915,
          "durationTicks": 1013,
          "midi": 44,
          "name": "G#2",
          "ticks": 714240,
          "time": 308.5112905,
          "velocity": 0.8661417322834646
        },
        {
          "duration": 0.4948415966796915,
          "durationTicks": 1013,
          "midi": 43,
          "name": "G2",
          "ticks": 715264,
          "time": 309.0115055,
          "velocity": 0.8661417322834646
        },
        {
          "duration": 0.4948415966796915,
          "durationTicks": 1013,
          "midi": 41,
          "name": "F2",
          "ticks": 716288,
          "time": 309.51172049999997,
          "velocity": 0.8661417322834646
        },
        {
          "duration": 1.6256987499999696,
          "durationTicks": 3328,
          "midi": 38,
          "name": "D2",
          "ticks": 717312,
          "time": 310.0119355,
          "velocity": 0.8661417322834646
        },
        {
          "duration": 0.24473409667967871,
          "durationTicks": 501,
          "midi": 38,
          "name": "D2",
          "ticks": 720896,
          "time": 311.76268799999997,
          "velocity": 0.8661417322834646
        },
        {
          "duration": 0.24473409667967871,
          "durationTicks": 501,
          "midi": 33,
          "name": "A1",
          "ticks": 721408,
          "time": 312.0127955,
          "velocity": 0.8661417322834646
        },
        {
          "duration": 0.24473409667967871,
          "durationTicks": 501,
          "midi": 38,
          "name": "D2",
          "ticks": 721920,
          "time": 312.262903,
          "velocity": 0.8661417322834646
        },
        {
          "duration": 1.1254837500000008,
          "durationTicks": 2304,
          "midi": 37,
          "name": "C#2",
          "ticks": 722432,
          "time": 312.5130105,
          "velocity": 0.8661417322834646
        },
        {
          "duration": 0.24473409667967871,
          "durationTicks": 501,
          "midi": 36,
          "name": "C2",
          "ticks": 724992,
          "time": 313.763548,
          "velocity": 0.8661417322834646
        },
        {
          "duration": 0.24473409667967871,
          "durationTicks": 501,
          "midi": 33,
          "name": "A1",
          "ticks": 725504,
          "time": 314.01365549999997,
          "velocity": 0.8661417322834646
        },
        {
          "duration": 0.24473409667967871,
          "durationTicks": 501,
          "midi": 36,
          "name": "C2",
          "ticks": 726016,
          "time": 314.263763,
          "velocity": 0.8661417322834646
        },
        {
          "duration": 1.1254837500000008,
          "durationTicks": 2304,
          "midi": 35,
          "name": "B1",
          "ticks": 726528,
          "time": 314.5138705,
          "velocity": 0.8661417322834646
        },
        {
          "duration": 0.24473409667967871,
          "durationTicks": 501,
          "midi": 38,
          "name": "D2",
          "ticks": 729088,
          "time": 315.764408,
          "velocity": 0.8661417322834646
        },
        {
          "duration": 0.24473409667967871,
          "durationTicks": 501,
          "midi": 33,
          "name": "A1",
          "ticks": 729600,
          "time": 316.0145155,
          "velocity": 0.8661417322834646
        },
        {
          "duration": 0.24473409667967871,
          "durationTicks": 501,
          "midi": 38,
          "name": "D2",
          "ticks": 730112,
          "time": 316.264623,
          "velocity": 0.8661417322834646
        },
        {
          "duration": 1.1254837500000008,
          "durationTicks": 2304,
          "midi": 37,
          "name": "C#2",
          "ticks": 730624,
          "time": 316.5147305,
          "velocity": 0.8661417322834646
        },
        {
          "duration": 0.24473409667967871,
          "durationTicks": 501,
          "midi": 36,
          "name": "C2",
          "ticks": 733184,
          "time": 317.765268,
          "velocity": 0.8661417322834646
        },
        {
          "duration": 0.24473409667967871,
          "durationTicks": 501,
          "midi": 33,
          "name": "A1",
          "ticks": 733696,
          "time": 318.0153755,
          "velocity": 0.8661417322834646
        },
        {
          "duration": 0.24473409667967871,
          "durationTicks": 501,
          "midi": 36,
          "name": "C2",
          "ticks": 734208,
          "time": 318.265483,
          "velocity": 0.8661417322834646
        },
        {
          "duration": 1.1254837500000008,
          "durationTicks": 2304,
          "midi": 35,
          "name": "B1",
          "ticks": 734720,
          "time": 318.5155905,
          "velocity": 0.8661417322834646
        },
        {
          "duration": 0.24473409667967871,
          "durationTicks": 501,
          "midi": 38,
          "name": "D2",
          "ticks": 737280,
          "time": 319.766128,
          "velocity": 0.8661417322834646
        },
        {
          "duration": 0.24473409667967871,
          "durationTicks": 501,
          "midi": 33,
          "name": "A1",
          "ticks": 737792,
          "time": 320.0162355,
          "velocity": 0.8661417322834646
        },
        {
          "duration": 0.24473409667967871,
          "durationTicks": 501,
          "midi": 38,
          "name": "D2",
          "ticks": 738304,
          "time": 320.266343,
          "velocity": 0.8661417322834646
        },
        {
          "duration": 0.4948415966796347,
          "durationTicks": 1013,
          "midi": 37,
          "name": "C#2",
          "ticks": 738816,
          "time": 320.5164505,
          "velocity": 0.8661417322834646
        },
        {
          "duration": 0.6667905029297003,
          "durationTicks": 1365,
          "midi": 40,
          "name": "E2",
          "ticks": 739840,
          "time": 321.0166655,
          "velocity": 0.8661417322834646
        },
        {
          "duration": 0.24473409667973556,
          "durationTicks": 501,
          "midi": 38,
          "name": "D2",
          "ticks": 741376,
          "time": 321.76698799999997,
          "velocity": 0.8661417322834646
        },
        {
          "duration": 0.24473409667967871,
          "durationTicks": 501,
          "midi": 33,
          "name": "A1",
          "ticks": 741888,
          "time": 322.0170955,
          "velocity": 0.8661417322834646
        },
        {
          "duration": 0.24473409667967871,
          "durationTicks": 501,
          "midi": 38,
          "name": "D2",
          "ticks": 742400,
          "time": 322.267203,
          "velocity": 0.8661417322834646
        },
        {
          "duration": 1.1254837500000008,
          "durationTicks": 2304,
          "midi": 37,
          "name": "C#2",
          "ticks": 742912,
          "time": 322.5173105,
          "velocity": 0.8661417322834646
        },
        {
          "duration": 0.24473409667973556,
          "durationTicks": 501,
          "midi": 38,
          "name": "D2",
          "ticks": 745472,
          "time": 323.76784799999996,
          "velocity": 0.8661417322834646
        },
        {
          "duration": 0.24473409667973556,
          "durationTicks": 501,
          "midi": 33,
          "name": "A1",
          "ticks": 745984,
          "time": 324.01795549999997,
          "velocity": 0.8661417322834646
        },
        {
          "duration": 0.24473409667967871,
          "durationTicks": 501,
          "midi": 38,
          "name": "D2",
          "ticks": 746496,
          "time": 324.268063,
          "velocity": 0.8661417322834646
        },
        {
          "duration": 1.1254837500000008,
          "durationTicks": 2304,
          "midi": 37,
          "name": "C#2",
          "ticks": 747008,
          "time": 324.5181705,
          "velocity": 0.8661417322834646
        },
        {
          "duration": 0.24473409667967871,
          "durationTicks": 501,
          "midi": 36,
          "name": "C2",
          "ticks": 749568,
          "time": 325.768708,
          "velocity": 0.8661417322834646
        },
        {
          "duration": 0.24473409667973556,
          "durationTicks": 501,
          "midi": 33,
          "name": "A1",
          "ticks": 750080,
          "time": 326.01881549999996,
          "velocity": 0.8661417322834646
        },
        {
          "duration": 0.24473409667967871,
          "durationTicks": 501,
          "midi": 36,
          "name": "C2",
          "ticks": 750592,
          "time": 326.268923,
          "velocity": 0.8661417322834646
        },
        {
          "duration": 1.1254837500000008,
          "durationTicks": 2304,
          "midi": 35,
          "name": "B1",
          "ticks": 751104,
          "time": 326.5190305,
          "velocity": 0.8661417322834646
        },
        {
          "duration": 0.24473409667967871,
          "durationTicks": 501,
          "midi": 26,
          "name": "D1",
          "ticks": 753664,
          "time": 327.769568,
          "velocity": 0.8661417322834646
        },
        {
          "duration": 0.24473409667967871,
          "durationTicks": 501,
          "midi": 33,
          "name": "A1",
          "ticks": 754176,
          "time": 328.0196755,
          "velocity": 0.8661417322834646
        },
        {
          "duration": 0.24473409667973556,
          "durationTicks": 501,
          "midi": 38,
          "name": "D2",
          "ticks": 754688,
          "time": 328.26978299999996,
          "velocity": 0.8661417322834646
        },
        {
          "duration": 0.24473409667967871,
          "durationTicks": 501,
          "midi": 26,
          "name": "D1",
          "ticks": 755200,
          "time": 328.5198905,
          "velocity": 0.8661417322834646
        },
        {
          "duration": 0.24473409667967871,
          "durationTicks": 501,
          "midi": 33,
          "name": "A1",
          "ticks": 755712,
          "time": 328.769998,
          "velocity": 0.8661417322834646
        },
        {
          "duration": 0.24473409667967871,
          "durationTicks": 501,
          "midi": 37,
          "name": "C#2",
          "ticks": 756224,
          "time": 329.0201055,
          "velocity": 0.8661417322834646
        },
        {
          "duration": 0.24473409667967871,
          "durationTicks": 501,
          "midi": 26,
          "name": "D1",
          "ticks": 756736,
          "time": 329.270213,
          "velocity": 0.8661417322834646
        },
        {
          "duration": 0.24473409667967871,
          "durationTicks": 501,
          "midi": 33,
          "name": "A1",
          "ticks": 757248,
          "time": 329.52032049999997,
          "velocity": 0.8661417322834646
        },
        {
          "duration": 0.24473409667967871,
          "durationTicks": 501,
          "midi": 36,
          "name": "C2",
          "ticks": 757760,
          "time": 329.770428,
          "velocity": 0.8661417322834646
        },
        {
          "duration": 0.24473409667967871,
          "durationTicks": 501,
          "midi": 26,
          "name": "D1",
          "ticks": 758272,
          "time": 330.0205355,
          "velocity": 0.8661417322834646
        },
        {
          "duration": 0.24473409667967871,
          "durationTicks": 501,
          "midi": 29,
          "name": "F1",
          "ticks": 758784,
          "time": 330.270643,
          "velocity": 0.8661417322834646
        },
        {
          "duration": 0.24473409667973556,
          "durationTicks": 501,
          "midi": 36,
          "name": "C2",
          "ticks": 759296,
          "time": 330.52075049999996,
          "velocity": 0.8661417322834646
        },
        {
          "duration": 0.24473409667967871,
          "durationTicks": 501,
          "midi": 35,
          "name": "B1",
          "ticks": 759808,
          "time": 330.770858,
          "velocity": 0.8661417322834646
        },
        {
          "duration": 0.6667905029297003,
          "durationTicks": 1365,
          "midi": 31,
          "name": "G1",
          "ticks": 760320,
          "time": 331.0209655,
          "velocity": 0.8661417322834646
        },
        {
          "duration": 0.24473409667967871,
          "durationTicks": 501,
          "midi": 26,
          "name": "D1",
          "ticks": 761856,
          "time": 331.77128799999997,
          "velocity": 0.8661417322834646
        },
        {
          "duration": 0.24473409667967871,
          "durationTicks": 501,
          "midi": 33,
          "name": "A1",
          "ticks": 762368,
          "time": 332.0213955,
          "velocity": 0.8661417322834646
        },
        {
          "duration": 0.24473409667967871,
          "durationTicks": 501,
          "midi": 38,
          "name": "D2",
          "ticks": 762880,
          "time": 332.271503,
          "velocity": 0.8661417322834646
        },
        {
          "duration": 0.24473409667967871,
          "durationTicks": 501,
          "midi": 26,
          "name": "D1",
          "ticks": 763392,
          "time": 332.5216105,
          "velocity": 0.8661417322834646
        },
        {
          "duration": 0.24473409667973556,
          "durationTicks": 501,
          "midi": 33,
          "name": "A1",
          "ticks": 763904,
          "time": 332.77171799999996,
          "velocity": 0.8661417322834646
        },
        {
          "duration": 0.24473409667967871,
          "durationTicks": 501,
          "midi": 37,
          "name": "C#2",
          "ticks": 764416,
          "time": 333.0218255,
          "velocity": 0.8661417322834646
        },
        {
          "duration": 0.24473409667967871,
          "durationTicks": 501,
          "midi": 26,
          "name": "D1",
          "ticks": 764928,
          "time": 333.271933,
          "velocity": 0.8661417322834646
        },
        {
          "duration": 0.24473409667967871,
          "durationTicks": 501,
          "midi": 33,
          "name": "A1",
          "ticks": 765440,
          "time": 333.5220405,
          "velocity": 0.8661417322834646
        },
        {
          "duration": 0.24473409667967871,
          "durationTicks": 501,
          "midi": 36,
          "name": "C2",
          "ticks": 765952,
          "time": 333.772148,
          "velocity": 0.8661417322834646
        },
        {
          "duration": 0.24473409667967871,
          "durationTicks": 501,
          "midi": 26,
          "name": "D1",
          "ticks": 766464,
          "time": 334.02225549999997,
          "velocity": 0.8661417322834646
        },
        {
          "duration": 0.24473409667967871,
          "durationTicks": 501,
          "midi": 29,
          "name": "F1",
          "ticks": 766976,
          "time": 334.272363,
          "velocity": 0.8661417322834646
        },
        {
          "duration": 0.24473409667967871,
          "durationTicks": 501,
          "midi": 36,
          "name": "C2",
          "ticks": 767488,
          "time": 334.5224705,
          "velocity": 0.8661417322834646
        },
        {
          "duration": 0.24473409667967871,
          "durationTicks": 501,
          "midi": 35,
          "name": "B1",
          "ticks": 768000,
          "time": 334.772578,
          "velocity": 0.8661417322834646
        },
        {
          "duration": 0.6667905029297003,
          "durationTicks": 1365,
          "midi": 31,
          "name": "G1",
          "ticks": 768512,
          "time": 335.02268549999997,
          "velocity": 0.8661417322834646
        },
        {
          "duration": 0.35715709765622705,
          "durationTicks": 853,
          "midi": 48,
          "name": "C3",
          "ticks": 770048,
          "time": 335.773008,
          "velocity": 0.8661417322834646
        },
        {
          "duration": 0.3571570976562839,
          "durationTicks": 853,
          "midi": 46,
          "name": "A#2",
          "ticks": 772096,
          "time": 336.63052,
          "velocity": 0.8661417322834646
        },
        {
          "duration": 0.35715709765622705,
          "durationTicks": 853,
          "midi": 43,
          "name": "G2",
          "ticks": 773120,
          "time": 337.059276,
          "velocity": 0.8661417322834646
        },
        {
          "duration": 0.35715709765622705,
          "durationTicks": 853,
          "midi": 48,
          "name": "C3",
          "ticks": 774144,
          "time": 337.48803200000003,
          "velocity": 0.8661417322834646
        },
        {
          "duration": 0.35715709765622705,
          "durationTicks": 853,
          "midi": 46,
          "name": "A#2",
          "ticks": 776192,
          "time": 338.345544,
          "velocity": 0.8661417322834646
        },
        {
          "duration": 0.3571570976562839,
          "durationTicks": 853,
          "midi": 43,
          "name": "G2",
          "ticks": 777216,
          "time": 338.7743,
          "velocity": 0.8661417322834646
        },
        {
          "duration": 0.35715709765622705,
          "durationTicks": 853,
          "midi": 48,
          "name": "C3",
          "ticks": 778240,
          "time": 339.203056,
          "velocity": 0.8661417322834646
        },
        {
          "duration": 0.3571570976562839,
          "durationTicks": 853,
          "midi": 46,
          "name": "A#2",
          "ticks": 780288,
          "time": 340.060568,
          "velocity": 0.8661417322834646
        },
        {
          "duration": 0.35715709765622705,
          "durationTicks": 853,
          "midi": 43,
          "name": "G2",
          "ticks": 781312,
          "time": 340.489324,
          "velocity": 0.8661417322834646
        },
        {
          "duration": 0.35715709765622705,
          "durationTicks": 853,
          "midi": 48,
          "name": "C3",
          "ticks": 782336,
          "time": 340.91808000000003,
          "velocity": 0.8661417322834646
        },
        {
          "duration": 0.35715709765622705,
          "durationTicks": 853,
          "midi": 46,
          "name": "A#2",
          "ticks": 784384,
          "time": 341.775592,
          "velocity": 0.8661417322834646
        },
        {
          "duration": 0.3571570976562839,
          "durationTicks": 853,
          "midi": 43,
          "name": "G2",
          "ticks": 785408,
          "time": 342.204348,
          "velocity": 0.8661417322834646
        },
        {
          "duration": 0.35715709765622705,
          "durationTicks": 853,
          "midi": 48,
          "name": "C3",
          "ticks": 786432,
          "time": 342.633104,
          "velocity": 0.8661417322834646
        },
        {
          "duration": 0.3571570976562839,
          "durationTicks": 853,
          "midi": 46,
          "name": "A#2",
          "ticks": 788480,
          "time": 343.490616,
          "velocity": 0.8661417322834646
        },
        {
          "duration": 0.35715709765622705,
          "durationTicks": 853,
          "midi": 43,
          "name": "G2",
          "ticks": 789504,
          "time": 343.919372,
          "velocity": 0.8661417322834646
        },
        {
          "duration": 0.35715709765622705,
          "durationTicks": 853,
          "midi": 48,
          "name": "C3",
          "ticks": 790528,
          "time": 344.34812800000003,
          "velocity": 0.8661417322834646
        },
        {
          "duration": 0.35715709765622705,
          "durationTicks": 853,
          "midi": 46,
          "name": "A#2",
          "ticks": 792576,
          "time": 345.20564,
          "velocity": 0.8661417322834646
        },
        {
          "duration": 0.3571570976562839,
          "durationTicks": 853,
          "midi": 43,
          "name": "G2",
          "ticks": 793600,
          "time": 345.634396,
          "velocity": 0.8661417322834646
        },
        {
          "duration": 0.35715709765622705,
          "durationTicks": 853,
          "midi": 48,
          "name": "C3",
          "ticks": 794624,
          "time": 346.063152,
          "velocity": 0.8661417322834646
        },
        {
          "duration": 0.3571570976562839,
          "durationTicks": 853,
          "midi": 46,
          "name": "A#2",
          "ticks": 796672,
          "time": 346.920664,
          "velocity": 0.8661417322834646
        },
        {
          "duration": 0.35715709765622705,
          "durationTicks": 853,
          "midi": 43,
          "name": "G2",
          "ticks": 797696,
          "time": 347.34942,
          "velocity": 0.8661417322834646
        },
        {
          "duration": 0.35715709765622705,
          "durationTicks": 853,
          "midi": 48,
          "name": "C3",
          "ticks": 798720,
          "time": 347.77817600000003,
          "velocity": 0.8661417322834646
        },
        {
          "duration": 0.35715709765622705,
          "durationTicks": 853,
          "midi": 46,
          "name": "A#2",
          "ticks": 800768,
          "time": 348.635688,
          "velocity": 0.8661417322834646
        },
        {
          "duration": 0.3571570976562839,
          "durationTicks": 853,
          "midi": 43,
          "name": "G2",
          "ticks": 801792,
          "time": 349.064444,
          "velocity": 0.8661417322834646
        },
        {
          "duration": 0.35715709765622705,
          "durationTicks": 853,
          "midi": 48,
          "name": "C3",
          "ticks": 802816,
          "time": 349.4932,
          "velocity": 0.8661417322834646
        },
        {
          "duration": 0.3571570976562839,
          "durationTicks": 853,
          "midi": 46,
          "name": "A#2",
          "ticks": 804864,
          "time": 350.350712,
          "velocity": 0.8661417322834646
        },
        {
          "duration": 0.35715709765622705,
          "durationTicks": 853,
          "midi": 43,
          "name": "G2",
          "ticks": 805888,
          "time": 350.779468,
          "velocity": 0.8661417322834646
        },
        {
          "duration": 0.35715709765622705,
          "durationTicks": 853,
          "midi": 48,
          "name": "C3",
          "ticks": 806912,
          "time": 351.20822400000003,
          "velocity": 0.8661417322834646
        },
        {
          "duration": 0.35715709765622705,
          "durationTicks": 853,
          "midi": 46,
          "name": "A#2",
          "ticks": 808960,
          "time": 352.065736,
          "velocity": 0.8661417322834646
        },
        {
          "duration": 0.3571570976562839,
          "durationTicks": 853,
          "midi": 43,
          "name": "G2",
          "ticks": 809984,
          "time": 352.494492,
          "velocity": 0.8661417322834646
        },
        {
          "duration": 0.35715709765622705,
          "durationTicks": 853,
          "midi": 48,
          "name": "C3",
          "ticks": 811008,
          "time": 352.923248,
          "velocity": 0.8661417322834646
        },
        {
          "duration": 0.3571570976562839,
          "durationTicks": 853,
          "midi": 46,
          "name": "A#2",
          "ticks": 813056,
          "time": 353.78076,
          "velocity": 0.8661417322834646
        },
        {
          "duration": 0.35715709765622705,
          "durationTicks": 853,
          "midi": 43,
          "name": "G2",
          "ticks": 814080,
          "time": 354.209516,
          "velocity": 0.8661417322834646
        },
        {
          "duration": 0.35715709765622705,
          "durationTicks": 853,
          "midi": 48,
          "name": "C3",
          "ticks": 815104,
          "time": 354.63827200000003,
          "velocity": 0.8661417322834646
        },
        {
          "duration": 0.35715709765622705,
          "durationTicks": 853,
          "midi": 46,
          "name": "A#2",
          "ticks": 817152,
          "time": 355.495784,
          "velocity": 0.8661417322834646
        },
        {
          "duration": 0.3571570976562839,
          "durationTicks": 853,
          "midi": 43,
          "name": "G2",
          "ticks": 818176,
          "time": 355.92454,
          "velocity": 0.8661417322834646
        },
        {
          "duration": 0.35715709765622705,
          "durationTicks": 853,
          "midi": 48,
          "name": "C3",
          "ticks": 819200,
          "time": 356.353296,
          "velocity": 0.8661417322834646
        },
        {
          "duration": 0.3571570976562839,
          "durationTicks": 853,
          "midi": 46,
          "name": "A#2",
          "ticks": 821248,
          "time": 357.210808,
          "velocity": 0.8661417322834646
        },
        {
          "duration": 0.35715709765622705,
          "durationTicks": 853,
          "midi": 43,
          "name": "G2",
          "ticks": 822272,
          "time": 357.639564,
          "velocity": 0.8661417322834646
        },
        {
          "duration": 0.35715709765622705,
          "durationTicks": 853,
          "midi": 48,
          "name": "C3",
          "ticks": 823296,
          "time": 358.06832,
          "velocity": 0.8661417322834646
        },
        {
          "duration": 0.35715709765622705,
          "durationTicks": 853,
          "midi": 46,
          "name": "A#2",
          "ticks": 825344,
          "time": 358.925832,
          "velocity": 0.8661417322834646
        },
        {
          "duration": 0.3571570976562839,
          "durationTicks": 853,
          "midi": 43,
          "name": "G2",
          "ticks": 826368,
          "time": 359.354588,
          "velocity": 0.8661417322834646
        },
        {
          "duration": 0.35715709765622705,
          "durationTicks": 853,
          "midi": 48,
          "name": "C3",
          "ticks": 827392,
          "time": 359.783344,
          "velocity": 0.8661417322834646
        },
        {
          "duration": 0.3571570976562839,
          "durationTicks": 853,
          "midi": 46,
          "name": "A#2",
          "ticks": 829440,
          "time": 360.640856,
          "velocity": 0.8661417322834646
        },
        {
          "duration": 0.35715709765622705,
          "durationTicks": 853,
          "midi": 43,
          "name": "G2",
          "ticks": 830464,
          "time": 361.069612,
          "velocity": 0.8661417322834646
        },
        {
          "duration": 0.35715709765622705,
          "durationTicks": 853,
          "midi": 48,
          "name": "C3",
          "ticks": 831488,
          "time": 361.498368,
          "velocity": 0.8661417322834646
        },
        {
          "duration": 0.35715709765622705,
          "durationTicks": 853,
          "midi": 46,
          "name": "A#2",
          "ticks": 833536,
          "time": 362.35588,
          "velocity": 0.8661417322834646
        },
        {
          "duration": 0.3571570976562839,
          "durationTicks": 853,
          "midi": 43,
          "name": "G2",
          "ticks": 834560,
          "time": 362.784636,
          "velocity": 0.8661417322834646
        },
        {
          "duration": 0.35715709765622705,
          "durationTicks": 853,
          "midi": 48,
          "name": "C3",
          "ticks": 835584,
          "time": 363.213392,
          "velocity": 0.8661417322834646
        },
        {
          "duration": 0.3571570976562839,
          "durationTicks": 853,
          "midi": 46,
          "name": "A#2",
          "ticks": 837632,
          "time": 364.070904,
          "velocity": 0.8661417322834646
        },
        {
          "duration": 0.35715709765622705,
          "durationTicks": 853,
          "midi": 43,
          "name": "G2",
          "ticks": 838656,
          "time": 364.49966,
          "velocity": 0.8661417322834646
        },
        {
          "duration": 0.35715709765622705,
          "durationTicks": 853,
          "midi": 48,
          "name": "C3",
          "ticks": 839680,
          "time": 364.928416,
          "velocity": 0.8661417322834646
        },
        {
          "duration": 0.35715709765622705,
          "durationTicks": 853,
          "midi": 46,
          "name": "A#2",
          "ticks": 841728,
          "time": 365.785928,
          "velocity": 0.8661417322834646
        },
        {
          "duration": 0.3571570976562839,
          "durationTicks": 853,
          "midi": 43,
          "name": "G2",
          "ticks": 842752,
          "time": 366.214684,
          "velocity": 0.8661417322834646
        },
        {
          "duration": 0.3571570976562839,
          "durationTicks": 853,
          "midi": 41,
          "name": "F2",
          "ticks": 843776,
          "time": 366.64344,
          "velocity": 0.8661417322834646
        },
        {
          "duration": 0.3571570976562839,
          "durationTicks": 853,
          "midi": 39,
          "name": "D#2",
          "ticks": 845824,
          "time": 367.500952,
          "velocity": 0.8661417322834646
        },
        {
          "duration": 0.35715709765622705,
          "durationTicks": 853,
          "midi": 43,
          "name": "G2",
          "ticks": 846848,
          "time": 367.929708,
          "velocity": 0.8661417322834646
        },
        {
          "duration": 0.35715709765622705,
          "durationTicks": 853,
          "midi": 48,
          "name": "C3",
          "ticks": 847872,
          "time": 368.358464,
          "velocity": 0.8661417322834646
        },
        {
          "duration": 0.35715709765622705,
          "durationTicks": 853,
          "midi": 46,
          "name": "A#2",
          "ticks": 849920,
          "time": 369.215976,
          "velocity": 0.8661417322834646
        },
        {
          "duration": 0.3571570976562839,
          "durationTicks": 853,
          "midi": 43,
          "name": "G2",
          "ticks": 850944,
          "time": 369.644732,
          "velocity": 0.8661417322834646
        },
        {
          "duration": 0.35715709765622705,
          "durationTicks": 853,
          "midi": 41,
          "name": "F2",
          "ticks": 851968,
          "time": 370.073488,
          "velocity": 0.8661417322834646
        },
        {
          "duration": 0.3571570976562839,
          "durationTicks": 853,
          "midi": 39,
          "name": "D#2",
          "ticks": 854016,
          "time": 370.931,
          "velocity": 0.8661417322834646
        },
        {
          "duration": 0.35715709765622705,
          "durationTicks": 853,
          "midi": 43,
          "name": "G2",
          "ticks": 855040,
          "time": 371.359756,
          "velocity": 0.8661417322834646
        },
        {
          "duration": 0.35715709765622705,
          "durationTicks": 853,
          "midi": 48,
          "name": "C3",
          "ticks": 856064,
          "time": 371.788512,
          "velocity": 0.8661417322834646
        },
        {
          "duration": 0.35715709765622705,
          "durationTicks": 853,
          "midi": 46,
          "name": "A#2",
          "ticks": 858112,
          "time": 372.646024,
          "velocity": 0.8661417322834646
        },
        {
          "duration": 0.35715709765622705,
          "durationTicks": 853,
          "midi": 43,
          "name": "G2",
          "ticks": 859136,
          "time": 373.07478000000003,
          "velocity": 0.8661417322834646
        },
        {
          "duration": 0.3571570976562839,
          "durationTicks": 853,
          "midi": 48,
          "name": "C3",
          "ticks": 860160,
          "time": 373.503536,
          "velocity": 0.8661417322834646
        },
        {
          "duration": 0.3571570976562839,
          "durationTicks": 853,
          "midi": 46,
          "name": "A#2",
          "ticks": 862208,
          "time": 374.361048,
          "velocity": 0.8661417322834646
        },
        {
          "duration": 0.35715709765622705,
          "durationTicks": 853,
          "midi": 43,
          "name": "G2",
          "ticks": 863232,
          "time": 374.789804,
          "velocity": 0.8661417322834646
        },
        {
          "duration": 0.35715709765622705,
          "durationTicks": 853,
          "midi": 41,
          "name": "F2",
          "ticks": 864256,
          "time": 375.21856,
          "velocity": 0.8661417322834646
        },
        {
          "duration": 0.35715709765622705,
          "durationTicks": 853,
          "midi": 39,
          "name": "D#2",
          "ticks": 866304,
          "time": 376.076072,
          "velocity": 0.8661417322834646
        },
        {
          "duration": 0.3571570976562839,
          "durationTicks": 853,
          "midi": 43,
          "name": "G2",
          "ticks": 867328,
          "time": 376.504828,
          "velocity": 0.8661417322834646
        },
        {
          "duration": 0.35715709765622705,
          "durationTicks": 853,
          "midi": 48,
          "name": "C3",
          "ticks": 868352,
          "time": 376.933584,
          "velocity": 0.8661417322834646
        },
        {
          "duration": 0.3571570976562839,
          "durationTicks": 853,
          "midi": 46,
          "name": "A#2",
          "ticks": 870400,
          "time": 377.791096,
          "velocity": 0.8661417322834646
        },
        {
          "duration": 0.35715709765622705,
          "durationTicks": 853,
          "midi": 43,
          "name": "G2",
          "ticks": 871424,
          "time": 378.219852,
          "velocity": 0.8661417322834646
        },
        {
          "duration": 0.35715709765622705,
          "durationTicks": 853,
          "midi": 48,
          "name": "C3",
          "ticks": 872448,
          "time": 378.648608,
          "velocity": 0.8661417322834646
        },
        {
          "duration": 0.35715709765622705,
          "durationTicks": 853,
          "midi": 46,
          "name": "A#2",
          "ticks": 874496,
          "time": 379.50612,
          "velocity": 0.8661417322834646
        },
        {
          "duration": 0.35715709765622705,
          "durationTicks": 853,
          "midi": 43,
          "name": "G2",
          "ticks": 875520,
          "time": 379.93487600000003,
          "velocity": 0.8661417322834646
        },
        {
          "duration": 0.3571570976562839,
          "durationTicks": 853,
          "midi": 48,
          "name": "C3",
          "ticks": 876544,
          "time": 380.363632,
          "velocity": 0.8661417322834646
        },
        {
          "duration": 0.3571570976562839,
          "durationTicks": 853,
          "midi": 46,
          "name": "A#2",
          "ticks": 878592,
          "time": 381.221144,
          "velocity": 0.8661417322834646
        },
        {
          "duration": 0.35715709765622705,
          "durationTicks": 853,
          "midi": 43,
          "name": "G2",
          "ticks": 879616,
          "time": 381.6499,
          "velocity": 0.8661417322834646
        },
        {
          "duration": 0.35715709765622705,
          "durationTicks": 853,
          "midi": 48,
          "name": "C3",
          "ticks": 880640,
          "time": 382.078656,
          "velocity": 0.8661417322834646
        },
        {
          "duration": 0.35715709765622705,
          "durationTicks": 853,
          "midi": 46,
          "name": "A#2",
          "ticks": 882688,
          "time": 382.936168,
          "velocity": 0.8661417322834646
        },
        {
          "duration": 0.3571570976562839,
          "durationTicks": 853,
          "midi": 43,
          "name": "G2",
          "ticks": 883712,
          "time": 383.364924,
          "velocity": 0.8661417322834646
        },
        {
          "duration": 0.35715709765622705,
          "durationTicks": 853,
          "midi": 48,
          "name": "C3",
          "ticks": 884736,
          "time": 383.79368,
          "velocity": 0.8661417322834646
        },
        {
          "duration": 0.3571570976562839,
          "durationTicks": 853,
          "midi": 46,
          "name": "A#2",
          "ticks": 886784,
          "time": 384.651192,
          "velocity": 0.8661417322834646
        },
        {
          "duration": 0.35715709765622705,
          "durationTicks": 853,
          "midi": 43,
          "name": "G2",
          "ticks": 887808,
          "time": 385.079948,
          "velocity": 0.8661417322834646
        },
        {
          "duration": 0.35715709765622705,
          "durationTicks": 853,
          "midi": 48,
          "name": "C3",
          "ticks": 888832,
          "time": 385.508704,
          "velocity": 0.8661417322834646
        },
        {
          "duration": 0.35715709765622705,
          "durationTicks": 853,
          "midi": 46,
          "name": "A#2",
          "ticks": 890880,
          "time": 386.366216,
          "velocity": 0.8661417322834646
        },
        {
          "duration": 0.35715709765622705,
          "durationTicks": 853,
          "midi": 43,
          "name": "G2",
          "ticks": 891904,
          "time": 386.79497200000003,
          "velocity": 0.8661417322834646
        },
        {
          "duration": 0.3571570976562839,
          "durationTicks": 853,
          "midi": 41,
          "name": "F2",
          "ticks": 892928,
          "time": 387.223728,
          "velocity": 0.8661417322834646
        },
        {
          "duration": 0.3571570976562839,
          "durationTicks": 853,
          "midi": 39,
          "name": "D#2",
          "ticks": 894976,
          "time": 388.08124,
          "velocity": 0.8661417322834646
        },
        {
          "duration": 0.35715709765622705,
          "durationTicks": 853,
          "midi": 43,
          "name": "G2",
          "ticks": 896000,
          "time": 388.509996,
          "velocity": 0.8661417322834646
        },
        {
          "duration": 0.35715709765622705,
          "durationTicks": 853,
          "midi": 48,
          "name": "C3",
          "ticks": 897024,
          "time": 388.938752,
          "velocity": 0.8661417322834646
        },
        {
          "duration": 0.35715709765622705,
          "durationTicks": 853,
          "midi": 46,
          "name": "A#2",
          "ticks": 899072,
          "time": 389.796264,
          "velocity": 0.8661417322834646
        },
        {
          "duration": 0.3571570976562839,
          "durationTicks": 853,
          "midi": 43,
          "name": "G2",
          "ticks": 900096,
          "time": 390.22502,
          "velocity": 0.8661417322834646
        },
        {
          "duration": 0.35715709765622705,
          "durationTicks": 853,
          "midi": 41,
          "name": "F2",
          "ticks": 901120,
          "time": 390.653776,
          "velocity": 0.8661417322834646
        },
        {
          "duration": 0.3571570976562839,
          "durationTicks": 853,
          "midi": 39,
          "name": "D#2",
          "ticks": 903168,
          "time": 391.511288,
          "velocity": 0.8661417322834646
        },
        {
          "duration": 0.35715709765622705,
          "durationTicks": 853,
          "midi": 43,
          "name": "G2",
          "ticks": 904192,
          "time": 391.940044,
          "velocity": 0.8661417322834646
        },
        {
          "duration": 0.35715709765622705,
          "durationTicks": 853,
          "midi": 48,
          "name": "C3",
          "ticks": 905216,
          "time": 392.3688,
          "velocity": 0.8661417322834646
        },
        {
          "duration": 0.35715709765622705,
          "durationTicks": 853,
          "midi": 46,
          "name": "A#2",
          "ticks": 907264,
          "time": 393.226312,
          "velocity": 0.8661417322834646
        },
        {
          "duration": 0.35715709765622705,
          "durationTicks": 853,
          "midi": 43,
          "name": "G2",
          "ticks": 908288,
          "time": 393.655068,
          "velocity": 0.8661417322834646
        },
        {
          "duration": 0.3571570976562839,
          "durationTicks": 853,
          "midi": 48,
          "name": "C3",
          "ticks": 909312,
          "time": 394.083824,
          "velocity": 0.8661417322834646
        },
        {
          "duration": 0.3571570976562839,
          "durationTicks": 853,
          "midi": 46,
          "name": "A#2",
          "ticks": 911360,
          "time": 394.941336,
          "velocity": 0.8661417322834646
        },
        {
          "duration": 0.35715709765622705,
          "durationTicks": 853,
          "midi": 43,
          "name": "G2",
          "ticks": 912384,
          "time": 395.370092,
          "velocity": 0.8661417322834646
        },
        {
          "duration": 0.35715709765622705,
          "durationTicks": 853,
          "midi": 41,
          "name": "F2",
          "ticks": 913408,
          "time": 395.798848,
          "velocity": 0.8661417322834646
        },
        {
          "duration": 0.35715709765622705,
          "durationTicks": 853,
          "midi": 39,
          "name": "D#2",
          "ticks": 915456,
          "time": 396.65636,
          "velocity": 0.8661417322834646
        },
        {
          "duration": 0.3571570976562839,
          "durationTicks": 853,
          "midi": 43,
          "name": "G2",
          "ticks": 916480,
          "time": 397.08511599999997,
          "velocity": 0.8661417322834646
        },
        {
          "duration": 0.35715709765622705,
          "durationTicks": 853,
          "midi": 48,
          "name": "C3",
          "ticks": 917504,
          "time": 397.513872,
          "velocity": 0.8661417322834646
        },
        {
          "duration": 0.3571570976562839,
          "durationTicks": 853,
          "midi": 46,
          "name": "A#2",
          "ticks": 919552,
          "time": 398.371384,
          "velocity": 0.8661417322834646
        },
        {
          "duration": 0.35715709765622705,
          "durationTicks": 853,
          "midi": 43,
          "name": "G2",
          "ticks": 920576,
          "time": 398.80014,
          "velocity": 0.8661417322834646
        },
        {
          "duration": 0.35715709765622705,
          "durationTicks": 853,
          "midi": 48,
          "name": "C3",
          "ticks": 921600,
          "time": 399.228896,
          "velocity": 0.8661417322834646
        },
        {
          "duration": 0.35715709765622705,
          "durationTicks": 853,
          "midi": 46,
          "name": "A#2",
          "ticks": 923648,
          "time": 400.086408,
          "velocity": 0.8661417322834646
        },
        {
          "duration": 0.35715709765622705,
          "durationTicks": 853,
          "midi": 43,
          "name": "G2",
          "ticks": 924672,
          "time": 400.515164,
          "velocity": 0.8661417322834646
        },
        {
          "duration": 0.3571570976562839,
          "durationTicks": 853,
          "midi": 52,
          "name": "E3",
          "ticks": 925696,
          "time": 400.94392,
          "velocity": 0.8661417322834646
        },
        {
          "duration": 0.3571570976562839,
          "durationTicks": 853,
          "midi": 60,
          "name": "C4",
          "ticks": 925696,
          "time": 400.94392,
          "velocity": 0.8661417322834646
        },
        {
          "duration": 0.2097722226562837,
          "durationTicks": 501,
          "midi": 53,
          "name": "F3",
          "ticks": 927232,
          "time": 401.58705399999997,
          "velocity": 0.8661417322834646
        },
        {
          "duration": 0.2097722226562837,
          "durationTicks": 501,
          "midi": 60,
          "name": "C4",
          "ticks": 927232,
          "time": 401.58705399999997,
          "velocity": 0.8661417322834646
        },
        {
          "duration": 0.2097722226562837,
          "durationTicks": 501,
          "midi": 52,
          "name": "E3",
          "ticks": 928256,
          "time": 402.01581,
          "velocity": 0.8661417322834646
        },
        {
          "duration": 0.2097722226562837,
          "durationTicks": 501,
          "midi": 60,
          "name": "C4",
          "ticks": 928256,
          "time": 402.01581,
          "velocity": 0.8661417322834646
        },
        {
          "duration": 0.20977222265622686,
          "durationTicks": 501,
          "midi": 51,
          "name": "D#3",
          "ticks": 929280,
          "time": 402.444566,
          "velocity": 0.8661417322834646
        },
        {
          "duration": 0.20977222265622686,
          "durationTicks": 501,
          "midi": 55,
          "name": "G3",
          "ticks": 929280,
          "time": 402.444566,
          "velocity": 0.8661417322834646
        },
        {
          "duration": 0.20977222265622686,
          "durationTicks": 501,
          "midi": 52,
          "name": "E3",
          "ticks": 929792,
          "time": 402.658944,
          "velocity": 0.8661417322834646
        },
        {
          "duration": 0.20977222265622686,
          "durationTicks": 501,
          "midi": 60,
          "name": "C4",
          "ticks": 929792,
          "time": 402.658944,
          "velocity": 0.8661417322834646
        },
        {
          "duration": 0.20977222265622686,
          "durationTicks": 501,
          "midi": 55,
          "name": "G3",
          "ticks": 930304,
          "time": 402.87332200000003,
          "velocity": 0.8661417322834646
        },
        {
          "duration": 0.20977222265622686,
          "durationTicks": 501,
          "midi": 60,
          "name": "C4",
          "ticks": 930304,
          "time": 402.87332200000003,
          "velocity": 0.8661417322834646
        },
        {
          "duration": 0.3571570976562839,
          "durationTicks": 853,
          "midi": 60,
          "name": "C4",
          "ticks": 930816,
          "time": 403.0877,
          "velocity": 0.8661417322834646
        },
        {
          "duration": 0.35715709765622705,
          "durationTicks": 853,
          "midi": 50,
          "name": "D3",
          "ticks": 933888,
          "time": 404.373968,
          "velocity": 0.8661417322834646
        },
        {
          "duration": 0.35715709765622705,
          "durationTicks": 853,
          "midi": 59,
          "name": "B3",
          "ticks": 933888,
          "time": 404.373968,
          "velocity": 0.8661417322834646
        },
        {
          "duration": 0.20977222265622686,
          "durationTicks": 501,
          "midi": 52,
          "name": "E3",
          "ticks": 935424,
          "time": 405.017102,
          "velocity": 0.8661417322834646
        },
        {
          "duration": 0.20977222265622686,
          "durationTicks": 501,
          "midi": 59,
          "name": "B3",
          "ticks": 935424,
          "time": 405.017102,
          "velocity": 0.8661417322834646
        },
        {
          "duration": 0.2097722226562837,
          "durationTicks": 501,
          "midi": 50,
          "name": "D3",
          "ticks": 936448,
          "time": 405.445858,
          "velocity": 0.8661417322834646
        },
        {
          "duration": 0.2097722226562837,
          "durationTicks": 501,
          "midi": 59,
          "name": "B3",
          "ticks": 936448,
          "time": 405.445858,
          "velocity": 0.8661417322834646
        },
        {
          "duration": 0.20977222265622686,
          "durationTicks": 501,
          "midi": 49,
          "name": "C#3",
          "ticks": 937472,
          "time": 405.874614,
          "velocity": 0.8661417322834646
        },
        {
          "duration": 0.20977222265622686,
          "durationTicks": 501,
          "midi": 55,
          "name": "G3",
          "ticks": 937472,
          "time": 405.874614,
          "velocity": 0.8661417322834646
        },
        {
          "duration": 0.20977222265622686,
          "durationTicks": 501,
          "midi": 50,
          "name": "D3",
          "ticks": 937984,
          "time": 406.088992,
          "velocity": 0.8661417322834646
        },
        {
          "duration": 0.20977222265622686,
          "durationTicks": 501,
          "midi": 59,
          "name": "B3",
          "ticks": 937984,
          "time": 406.088992,
          "velocity": 0.8661417322834646
        },
        {
          "duration": 0.2097722226562837,
          "durationTicks": 501,
          "midi": 55,
          "name": "G3",
          "ticks": 938496,
          "time": 406.30337,
          "velocity": 0.8661417322834646
        },
        {
          "duration": 0.2097722226562837,
          "durationTicks": 501,
          "midi": 59,
          "name": "B3",
          "ticks": 938496,
          "time": 406.30337,
          "velocity": 0.8661417322834646
        },
        {
          "duration": 0.3571570976562839,
          "durationTicks": 853,
          "midi": 59,
          "name": "B3",
          "ticks": 939008,
          "time": 406.517748,
          "velocity": 0.8661417322834646
        },
        {
          "duration": 0.3571570976562839,
          "durationTicks": 853,
          "midi": 48,
          "name": "C3",
          "ticks": 942080,
          "time": 407.804016,
          "velocity": 0.8661417322834646
        },
        {
          "duration": 0.3571570976562839,
          "durationTicks": 853,
          "midi": 57,
          "name": "A3",
          "ticks": 942080,
          "time": 407.804016,
          "velocity": 0.8661417322834646
        },
        {
          "duration": 0.2097722226562837,
          "durationTicks": 501,
          "midi": 50,
          "name": "D3",
          "ticks": 943616,
          "time": 408.44714999999997,
          "velocity": 0.8661417322834646
        },
        {
          "duration": 0.2097722226562837,
          "durationTicks": 501,
          "midi": 57,
          "name": "A3",
          "ticks": 943616,
          "time": 408.44714999999997,
          "velocity": 0.8661417322834646
        },
        {
          "duration": 0.2097722226562837,
          "durationTicks": 501,
          "midi": 48,
          "name": "C3",
          "ticks": 944640,
          "time": 408.875906,
          "velocity": 0.8661417322834646
        },
        {
          "duration": 0.2097722226562837,
          "durationTicks": 501,
          "midi": 57,
          "name": "A3",
          "ticks": 944640,
          "time": 408.875906,
          "velocity": 0.8661417322834646
        },
        {
          "duration": 0.20977222265622686,
          "durationTicks": 501,
          "midi": 47,
          "name": "B2",
          "ticks": 945664,
          "time": 409.304662,
          "velocity": 0.8661417322834646
        },
        {
          "duration": 0.20977222265622686,
          "durationTicks": 501,
          "midi": 52,
          "name": "E3",
          "ticks": 945664,
          "time": 409.304662,
          "velocity": 0.8661417322834646
        },
        {
          "duration": 0.20977222265622686,
          "durationTicks": 501,
          "midi": 48,
          "name": "C3",
          "ticks": 946176,
          "time": 409.51904,
          "velocity": 0.8661417322834646
        },
        {
          "duration": 0.20977222265622686,
          "durationTicks": 501,
          "midi": 57,
          "name": "A3",
          "ticks": 946176,
          "time": 409.51904,
          "velocity": 0.8661417322834646
        },
        {
          "duration": 0.20977222265622686,
          "durationTicks": 501,
          "midi": 52,
          "name": "E3",
          "ticks": 946688,
          "time": 409.73341800000003,
          "velocity": 0.8661417322834646
        },
        {
          "duration": 0.20977222265622686,
          "durationTicks": 501,
          "midi": 57,
          "name": "A3",
          "ticks": 946688,
          "time": 409.73341800000003,
          "velocity": 0.8661417322834646
        },
        {
          "duration": 0.3571570976562839,
          "durationTicks": 853,
          "midi": 57,
          "name": "A3",
          "ticks": 947200,
          "time": 409.947796,
          "velocity": 0.8661417322834646
        },
        {
          "duration": 0.20977222265622686,
          "durationTicks": 501,
          "midi": 48,
          "name": "C3",
          "ticks": 948736,
          "time": 410.59093,
          "velocity": 0.8661417322834646
        },
        {
          "duration": 0.20977222265622686,
          "durationTicks": 501,
          "midi": 57,
          "name": "A3",
          "ticks": 948736,
          "time": 410.59093,
          "velocity": 0.8661417322834646
        },
        {
          "duration": 0.2097722226562837,
          "durationTicks": 501,
          "midi": 50,
          "name": "D3",
          "ticks": 949248,
          "time": 410.80530799999997,
          "velocity": 0.8661417322834646
        },
        {
          "duration": 0.2097722226562837,
          "durationTicks": 501,
          "midi": 59,
          "name": "B3",
          "ticks": 949248,
          "time": 410.80530799999997,
          "velocity": 0.8661417322834646
        },
        {
          "duration": 0.2097722226562837,
          "durationTicks": 501,
          "midi": 52,
          "name": "E3",
          "ticks": 949760,
          "time": 411.019686,
          "velocity": 0.8661417322834646
        },
        {
          "duration": 0.2097722226562837,
          "durationTicks": 501,
          "midi": 60,
          "name": "C4",
          "ticks": 949760,
          "time": 411.019686,
          "velocity": 0.8661417322834646
        },
        {
          "duration": 0.2097722226562837,
          "durationTicks": 501,
          "midi": 54,
          "name": "F#3",
          "ticks": 950272,
          "time": 411.234064,
          "velocity": 0.8661417322834646
        },
        {
          "duration": 0.2097722226562837,
          "durationTicks": 501,
          "midi": 62,
          "name": "D4",
          "ticks": 950272,
          "time": 411.234064,
          "velocity": 0.8661417322834646
        },
        {
          "duration": 0.2097722226562837,
          "durationTicks": 501,
          "midi": 54,
          "name": "F#3",
          "ticks": 950784,
          "time": 411.448442,
          "velocity": 0.8661417322834646
        },
        {
          "duration": 0.2097722226562837,
          "durationTicks": 501,
          "midi": 60,
          "name": "C4",
          "ticks": 950784,
          "time": 411.448442,
          "velocity": 0.8661417322834646
        },
        {
          "duration": 0.20977222265622686,
          "durationTicks": 501,
          "midi": 54,
          "name": "F#3",
          "ticks": 951296,
          "time": 411.66282,
          "velocity": 0.8661417322834646
        },
        {
          "duration": 0.20977222265622686,
          "durationTicks": 501,
          "midi": 62,
          "name": "D4",
          "ticks": 951296,
          "time": 411.66282,
          "velocity": 0.8661417322834646
        },
        {
          "duration": 0.4241502226562375,
          "durationTicks": 1013,
          "midi": 54,
          "name": "F#3",
          "ticks": 951808,
          "time": 411.877198,
          "velocity": 0.8661417322834646
        },
        {
          "duration": 0.4241502226562375,
          "durationTicks": 1013,
          "midi": 60,
          "name": "C4",
          "ticks": 951808,
          "time": 411.877198,
          "velocity": 0.8661417322834646
        },
        {
          "duration": 0.2097722226562837,
          "durationTicks": 501,
          "midi": 50,
          "name": "D3",
          "ticks": 952832,
          "time": 412.305954,
          "velocity": 0.8661417322834646
        },
        {
          "duration": 0.2097722226562837,
          "durationTicks": 501,
          "midi": 57,
          "name": "A3",
          "ticks": 952832,
          "time": 412.305954,
          "velocity": 0.8661417322834646
        },
        {
          "duration": 0.20977222265622686,
          "durationTicks": 501,
          "midi": 48,
          "name": "C3",
          "ticks": 953344,
          "time": 412.520332,
          "velocity": 0.8661417322834646
        },
        {
          "duration": 0.20977222265622686,
          "durationTicks": 501,
          "midi": 54,
          "name": "F#3",
          "ticks": 953344,
          "time": 412.520332,
          "velocity": 0.8661417322834646
        },
        {
          "duration": 0.20977222265622686,
          "durationTicks": 501,
          "midi": 45,
          "name": "A2",
          "ticks": 953856,
          "time": 412.73471,
          "velocity": 0.8661417322834646
        },
        {
          "duration": 0.20977222265622686,
          "durationTicks": 501,
          "midi": 50,
          "name": "D3",
          "ticks": 953856,
          "time": 412.73471,
          "velocity": 0.8661417322834646
        },
        {
          "duration": 0.20977222265622686,
          "durationTicks": 501,
          "midi": 45,
          "name": "A2",
          "ticks": 954368,
          "time": 412.949088,
          "velocity": 0.8661417322834646
        },
        {
          "duration": 0.20977222265622686,
          "durationTicks": 501,
          "midi": 50,
          "name": "D3",
          "ticks": 954368,
          "time": 412.949088,
          "velocity": 0.8661417322834646
        },
        {
          "duration": 0.2097722226562837,
          "durationTicks": 501,
          "midi": 47,
          "name": "B2",
          "ticks": 954880,
          "time": 413.16346599999997,
          "velocity": 0.8661417322834646
        },
        {
          "duration": 0.2097722226562837,
          "durationTicks": 501,
          "midi": 52,
          "name": "E3",
          "ticks": 954880,
          "time": 413.16346599999997,
          "velocity": 0.8661417322834646
        },
        {
          "duration": 0.2097722226562837,
          "durationTicks": 501,
          "midi": 49,
          "name": "C#3",
          "ticks": 955392,
          "time": 413.377844,
          "velocity": 0.8661417322834646
        },
        {
          "duration": 0.2097722226562837,
          "durationTicks": 501,
          "midi": 53,
          "name": "F3",
          "ticks": 955392,
          "time": 413.377844,
          "velocity": 0.8661417322834646
        },
        {
          "duration": 0.9647009999999909,
          "durationTicks": 2304,
          "midi": 50,
          "name": "D3",
          "ticks": 955904,
          "time": 413.592222,
          "velocity": 0.8661417322834646
        },
        {
          "duration": 0.9647009999999909,
          "durationTicks": 2304,
          "midi": 54,
          "name": "F#3",
          "ticks": 955904,
          "time": 413.592222,
          "velocity": 0.8661417322834646
        },
        {
          "duration": 0.3086543847656458,
          "durationTicks": 853,
          "midi": 57,
          "name": "A3",
          "ticks": 959488,
          "time": 415.03464199999996,
          "velocity": 0.8661417322834646
        },
        {
          "duration": 0.3086543847656458,
          "durationTicks": 853,
          "midi": 57,
          "name": "A3",
          "ticks": 961536,
          "time": 415.77570199999997,
          "velocity": 0.8661417322834646
        },
        {
          "duration": 0.3086543847656458,
          "durationTicks": 853,
          "midi": 57,
          "name": "A3",
          "ticks": 963584,
          "time": 416.51676199999997,
          "velocity": 0.8661417322834646
        },
        {
          "duration": 0.18128469726559615,
          "durationTicks": 501,
          "midi": 59,
          "name": "B3",
          "ticks": 964608,
          "time": 416.887292,
          "velocity": 0.8661417322834646
        },
        {
          "duration": 0.181284697265653,
          "durationTicks": 501,
          "midi": 59,
          "name": "B3",
          "ticks": 965120,
          "time": 417.07255699999996,
          "velocity": 0.8661417322834646
        },
        {
          "duration": 0.181284697265653,
          "durationTicks": 501,
          "midi": 60,
          "name": "C4",
          "ticks": 965632,
          "time": 417.257822,
          "velocity": 0.8661417322834646
        },
        {
          "duration": 0.18128469726559615,
          "durationTicks": 501,
          "midi": 60,
          "name": "C4",
          "ticks": 966144,
          "time": 417.443087,
          "velocity": 0.8661417322834646
        },
        {
          "duration": 0.18128469726559615,
          "durationTicks": 501,
          "midi": 57,
          "name": "A3",
          "ticks": 966656,
          "time": 417.628352,
          "velocity": 0.8661417322834646
        },
        {
          "duration": 0.181284697265653,
          "durationTicks": 501,
          "midi": 50,
          "name": "D3",
          "ticks": 967168,
          "time": 417.81361699999997,
          "velocity": 0.8661417322834646
        },
        {
          "duration": 0.181284697265653,
          "durationTicks": 501,
          "midi": 54,
          "name": "F#3",
          "ticks": 967168,
          "time": 417.81361699999997,
          "velocity": 0.8661417322834646
        },
        {
          "duration": 0.181284697265653,
          "durationTicks": 501,
          "midi": 57,
          "name": "A3",
          "ticks": 967168,
          "time": 417.81361699999997,
          "velocity": 0.8661417322834646
        },
        {
          "duration": 0.181284697265653,
          "durationTicks": 501,
          "midi": 50,
          "name": "D3",
          "ticks": 967680,
          "time": 417.998882,
          "velocity": 0.8661417322834646
        },
        {
          "duration": 0.18128469726559615,
          "durationTicks": 501,
          "midi": 50,
          "name": "D3",
          "ticks": 968192,
          "time": 418.184147,
          "velocity": 0.8661417322834646
        },
        {
          "duration": 0.18128469726559615,
          "durationTicks": 501,
          "midi": 54,
          "name": "F#3",
          "ticks": 968192,
          "time": 418.184147,
          "velocity": 0.8661417322834646
        },
        {
          "duration": 0.18128469726559615,
          "durationTicks": 501,
          "midi": 57,
          "name": "A3",
          "ticks": 968192,
          "time": 418.184147,
          "velocity": 0.8661417322834646
        },
        {
          "duration": 0.30865438476558893,
          "durationTicks": 853,
          "midi": 50,
          "name": "D3",
          "ticks": 968704,
          "time": 418.369412,
          "velocity": 0.8661417322834646
        },
        {
          "duration": 0.30865438476558893,
          "durationTicks": 853,
          "midi": 54,
          "name": "F#3",
          "ticks": 968704,
          "time": 418.369412,
          "velocity": 0.8661417322834646
        },
        {
          "duration": 0.30865438476558893,
          "durationTicks": 853,
          "midi": 57,
          "name": "A3",
          "ticks": 968704,
          "time": 418.369412,
          "velocity": 0.8661417322834646
        },
        {
          "duration": 0.181284697265653,
          "durationTicks": 501,
          "midi": 50,
          "name": "D3",
          "ticks": 969728,
          "time": 418.739942,
          "velocity": 0.8661417322834646
        },
        {
          "duration": 0.18128469726559615,
          "durationTicks": 501,
          "midi": 57,
          "name": "A3",
          "ticks": 970240,
          "time": 418.925207,
          "velocity": 0.8661417322834646
        },
        {
          "duration": 0.18128469726559615,
          "durationTicks": 501,
          "midi": 57,
          "name": "A3",
          "ticks": 970752,
          "time": 419.110472,
          "velocity": 0.8661417322834646
        },
        {
          "duration": 0.181284697265653,
          "durationTicks": 501,
          "midi": 50,
          "name": "D3",
          "ticks": 971264,
          "time": 419.295737,
          "velocity": 0.8661417322834646
        },
        {
          "duration": 0.181284697265653,
          "durationTicks": 501,
          "midi": 54,
          "name": "F#3",
          "ticks": 971264,
          "time": 419.295737,
          "velocity": 0.8661417322834646
        },
        {
          "duration": 0.181284697265653,
          "durationTicks": 501,
          "midi": 57,
          "name": "A3",
          "ticks": 971264,
          "time": 419.295737,
          "velocity": 0.8661417322834646
        },
        {
          "duration": 0.18128469726559615,
          "durationTicks": 501,
          "midi": 50,
          "name": "D3",
          "ticks": 971776,
          "time": 419.481002,
          "velocity": 0.8661417322834646
        },
        {
          "duration": 0.18128469726559615,
          "durationTicks": 501,
          "midi": 50,
          "name": "D3",
          "ticks": 972288,
          "time": 419.666267,
          "velocity": 0.8661417322834646
        },
        {
          "duration": 0.18128469726559615,
          "durationTicks": 501,
          "midi": 54,
          "name": "F#3",
          "ticks": 972288,
          "time": 419.666267,
          "velocity": 0.8661417322834646
        },
        {
          "duration": 0.18128469726559615,
          "durationTicks": 501,
          "midi": 57,
          "name": "A3",
          "ticks": 972288,
          "time": 419.666267,
          "velocity": 0.8661417322834646
        },
        {
          "duration": 0.3086543847656458,
          "durationTicks": 853,
          "midi": 50,
          "name": "D3",
          "ticks": 972800,
          "time": 419.85153199999996,
          "velocity": 0.8661417322834646
        },
        {
          "duration": 0.3086543847656458,
          "durationTicks": 853,
          "midi": 54,
          "name": "F#3",
          "ticks": 972800,
          "time": 419.85153199999996,
          "velocity": 0.8661417322834646
        },
        {
          "duration": 0.3086543847656458,
          "durationTicks": 853,
          "midi": 57,
          "name": "A3",
          "ticks": 972800,
          "time": 419.85153199999996,
          "velocity": 0.8661417322834646
        },
        {
          "duration": 0.18128469726559615,
          "durationTicks": 501,
          "midi": 50,
          "name": "D3",
          "ticks": 973824,
          "time": 420.222062,
          "velocity": 0.8661417322834646
        },
        {
          "duration": 0.18128469726559615,
          "durationTicks": 501,
          "midi": 54,
          "name": "F#3",
          "ticks": 973824,
          "time": 420.222062,
          "velocity": 0.8661417322834646
        },
        {
          "duration": 0.18128469726559615,
          "durationTicks": 501,
          "midi": 57,
          "name": "A3",
          "ticks": 973824,
          "time": 420.222062,
          "velocity": 0.8661417322834646
        },
        {
          "duration": 0.18128469726559615,
          "durationTicks": 501,
          "midi": 48,
          "name": "C3",
          "ticks": 974336,
          "time": 420.407327,
          "velocity": 0.8661417322834646
        },
        {
          "duration": 0.181284697265653,
          "durationTicks": 501,
          "midi": 43,
          "name": "G2",
          "ticks": 974848,
          "time": 420.59259199999997,
          "velocity": 0.8661417322834646
        },
        {
          "duration": 0.181284697265653,
          "durationTicks": 501,
          "midi": 50,
          "name": "D3",
          "ticks": 975360,
          "time": 420.777857,
          "velocity": 0.8661417322834646
        },
        {
          "duration": 0.181284697265653,
          "durationTicks": 501,
          "midi": 55,
          "name": "G3",
          "ticks": 975360,
          "time": 420.777857,
          "velocity": 0.8661417322834646
        },
        {
          "duration": 0.181284697265653,
          "durationTicks": 501,
          "midi": 59,
          "name": "B3",
          "ticks": 975360,
          "time": 420.777857,
          "velocity": 0.8661417322834646
        },
        {
          "duration": 0.0886521972656169,
          "durationTicks": 245,
          "midi": 38,
          "name": "D2",
          "ticks": 975872,
          "time": 420.963122,
          "velocity": 0.8661417322834646
        },
        {
          "duration": 0.27391719726563224,
          "durationTicks": 757,
          "midi": 50,
          "name": "D3",
          "ticks": 976128,
          "time": 421.0557545,
          "velocity": 0.8661417322834646
        },
        {
          "duration": 0.27391719726563224,
          "durationTicks": 757,
          "midi": 55,
          "name": "G3",
          "ticks": 976128,
          "time": 421.0557545,
          "velocity": 0.8661417322834646
        },
        {
          "duration": 0.27391719726563224,
          "durationTicks": 757,
          "midi": 59,
          "name": "B3",
          "ticks": 976128,
          "time": 421.0557545,
          "velocity": 0.8661417322834646
        },
        {
          "duration": 0.27391719726563224,
          "durationTicks": 757,
          "midi": 43,
          "name": "G2",
          "ticks": 976896,
          "time": 421.333652,
          "velocity": 0.8661417322834646
        },
        {
          "duration": 0.27391719726563224,
          "durationTicks": 757,
          "midi": 50,
          "name": "D3",
          "ticks": 976896,
          "time": 421.333652,
          "velocity": 0.8661417322834646
        },
        {
          "duration": 0.27391719726563224,
          "durationTicks": 757,
          "midi": 55,
          "name": "G3",
          "ticks": 976896,
          "time": 421.333652,
          "velocity": 0.8661417322834646
        },
        {
          "duration": 0.27391719726563224,
          "durationTicks": 757,
          "midi": 59,
          "name": "B3",
          "ticks": 976896,
          "time": 421.333652,
          "velocity": 0.8661417322834646
        },
        {
          "duration": 0.08865219726567375,
          "durationTicks": 245,
          "midi": 50,
          "name": "D3",
          "ticks": 977664,
          "time": 421.61154949999997,
          "velocity": 0.8661417322834646
        },
        {
          "duration": 0.08865219726567375,
          "durationTicks": 245,
          "midi": 55,
          "name": "G3",
          "ticks": 977664,
          "time": 421.61154949999997,
          "velocity": 0.8661417322834646
        },
        {
          "duration": 0.08865219726567375,
          "durationTicks": 245,
          "midi": 59,
          "name": "B3",
          "ticks": 977664,
          "time": 421.61154949999997,
          "velocity": 0.8661417322834646
        },
        {
          "duration": 0.18128469726559615,
          "durationTicks": 501,
          "midi": 38,
          "name": "D2",
          "ticks": 977920,
          "time": 421.704182,
          "velocity": 0.8661417322834646
        },
        {
          "duration": 0.181284697265653,
          "durationTicks": 501,
          "midi": 50,
          "name": "D3",
          "ticks": 978432,
          "time": 421.88944699999996,
          "velocity": 0.8661417322834646
        },
        {
          "duration": 0.181284697265653,
          "durationTicks": 501,
          "midi": 55,
          "name": "G3",
          "ticks": 978432,
          "time": 421.88944699999996,
          "velocity": 0.8661417322834646
        },
        {
          "duration": 0.181284697265653,
          "durationTicks": 501,
          "midi": 59,
          "name": "B3",
          "ticks": 978432,
          "time": 421.88944699999996,
          "velocity": 0.8661417322834646
        },
        {
          "duration": 0.181284697265653,
          "durationTicks": 501,
          "midi": 44,
          "name": "G#2",
          "ticks": 978944,
          "time": 422.074712,
          "velocity": 0.8661417322834646
        },
        {
          "duration": 0.18128469726559615,
          "durationTicks": 501,
          "midi": 52,
          "name": "E3",
          "ticks": 979456,
          "time": 422.259977,
          "velocity": 0.8661417322834646
        },
        {
          "duration": 0.18128469726559615,
          "durationTicks": 501,
          "midi": 56,
          "name": "G#3",
          "ticks": 979456,
          "time": 422.259977,
          "velocity": 0.8661417322834646
        },
        {
          "duration": 0.18128469726559615,
          "durationTicks": 501,
          "midi": 59,
          "name": "B3",
          "ticks": 979456,
          "time": 422.259977,
          "velocity": 0.8661417322834646
        },
        {
          "duration": 0.18128469726559615,
          "durationTicks": 501,
          "midi": 38,
          "name": "D2",
          "ticks": 979968,
          "time": 422.445242,
          "velocity": 0.8661417322834646
        },
        {
          "duration": 0.181284697265653,
          "durationTicks": 501,
          "midi": 52,
          "name": "E3",
          "ticks": 980480,
          "time": 422.63050699999997,
          "velocity": 0.8661417322834646
        },
        {
          "duration": 0.181284697265653,
          "durationTicks": 501,
          "midi": 56,
          "name": "G#3",
          "ticks": 980480,
          "time": 422.63050699999997,
          "velocity": 0.8661417322834646
        },
        {
          "duration": 0.181284697265653,
          "durationTicks": 501,
          "midi": 59,
          "name": "B3",
          "ticks": 980480,
          "time": 422.63050699999997,
          "velocity": 0.8661417322834646
        },
        {
          "duration": 0.3086543847656458,
          "durationTicks": 853,
          "midi": 44,
          "name": "G#2",
          "ticks": 980992,
          "time": 422.815772,
          "velocity": 0.8661417322834646
        },
        {
          "duration": 0.3086543847656458,
          "durationTicks": 853,
          "midi": 52,
          "name": "E3",
          "ticks": 980992,
          "time": 422.815772,
          "velocity": 0.8661417322834646
        },
        {
          "duration": 0.3086543847656458,
          "durationTicks": 853,
          "midi": 56,
          "name": "G#3",
          "ticks": 980992,
          "time": 422.815772,
          "velocity": 0.8661417322834646
        },
        {
          "duration": 0.3086543847656458,
          "durationTicks": 853,
          "midi": 59,
          "name": "B3",
          "ticks": 980992,
          "time": 422.815772,
          "velocity": 0.8661417322834646
        },
        {
          "duration": 0.30865438476558893,
          "durationTicks": 853,
          "midi": 38,
          "name": "D2",
          "ticks": 982016,
          "time": 423.186302,
          "velocity": 0.8661417322834646
        },
        {
          "duration": 0.30865438476558893,
          "durationTicks": 853,
          "midi": 52,
          "name": "E3",
          "ticks": 982016,
          "time": 423.186302,
          "velocity": 0.8661417322834646
        },
        {
          "duration": 0.30865438476558893,
          "durationTicks": 853,
          "midi": 56,
          "name": "G#3",
          "ticks": 982016,
          "time": 423.186302,
          "velocity": 0.8661417322834646
        },
        {
          "duration": 0.30865438476558893,
          "durationTicks": 853,
          "midi": 59,
          "name": "B3",
          "ticks": 982016,
          "time": 423.186302,
          "velocity": 0.8661417322834646
        },
        {
          "duration": 0.181284697265653,
          "durationTicks": 501,
          "midi": 45,
          "name": "A2",
          "ticks": 983040,
          "time": 423.556832,
          "velocity": 0.8661417322834646
        },
        {
          "duration": 0.18128469726559615,
          "durationTicks": 501,
          "midi": 50,
          "name": "D3",
          "ticks": 983552,
          "time": 423.742097,
          "velocity": 0.8661417322834646
        },
        {
          "duration": 0.18128469726559615,
          "durationTicks": 501,
          "midi": 54,
          "name": "F#3",
          "ticks": 983552,
          "time": 423.742097,
          "velocity": 0.8661417322834646
        },
        {
          "duration": 0.18128469726559615,
          "durationTicks": 501,
          "midi": 57,
          "name": "A3",
          "ticks": 983552,
          "time": 423.742097,
          "velocity": 0.8661417322834646
        },
        {
          "duration": 0.18128469726559615,
          "durationTicks": 501,
          "midi": 38,
          "name": "D2",
          "ticks": 984064,
          "time": 423.927362,
          "velocity": 0.8661417322834646
        },
        {
          "duration": 0.181284697265653,
          "durationTicks": 501,
          "midi": 50,
          "name": "D3",
          "ticks": 984576,
          "time": 424.112627,
          "velocity": 0.8661417322834646
        },
        {
          "duration": 0.181284697265653,
          "durationTicks": 501,
          "midi": 54,
          "name": "F#3",
          "ticks": 984576,
          "time": 424.112627,
          "velocity": 0.8661417322834646
        },
        {
          "duration": 0.181284697265653,
          "durationTicks": 501,
          "midi": 57,
          "name": "A3",
          "ticks": 984576,
          "time": 424.112627,
          "velocity": 0.8661417322834646
        },
        {
          "duration": 0.18128469726559615,
          "durationTicks": 501,
          "midi": 45,
          "name": "A2",
          "ticks": 985088,
          "time": 424.297892,
          "velocity": 0.8661417322834646
        },
        {
          "duration": 0.18128469726559615,
          "durationTicks": 501,
          "midi": 50,
          "name": "D3",
          "ticks": 985600,
          "time": 424.483157,
          "velocity": 0.8661417322834646
        },
        {
          "duration": 0.18128469726559615,
          "durationTicks": 501,
          "midi": 54,
          "name": "F#3",
          "ticks": 985600,
          "time": 424.483157,
          "velocity": 0.8661417322834646
        },
        {
          "duration": 0.18128469726559615,
          "durationTicks": 501,
          "midi": 57,
          "name": "A3",
          "ticks": 985600,
          "time": 424.483157,
          "velocity": 0.8661417322834646
        },
        {
          "duration": 0.181284697265653,
          "durationTicks": 501,
          "midi": 45,
          "name": "A2",
          "ticks": 986112,
          "time": 424.66842199999996,
          "velocity": 0.8661417322834646
        },
        {
          "duration": 0.181284697265653,
          "durationTicks": 501,
          "midi": 50,
          "name": "D3",
          "ticks": 986624,
          "time": 424.853687,
          "velocity": 0.8661417322834646
        },
        {
          "duration": 0.181284697265653,
          "durationTicks": 501,
          "midi": 54,
          "name": "F#3",
          "ticks": 986624,
          "time": 424.853687,
          "velocity": 0.8661417322834646
        },
        {
          "duration": 0.181284697265653,
          "durationTicks": 501,
          "midi": 57,
          "name": "A3",
          "ticks": 986624,
          "time": 424.853687,
          "velocity": 0.8661417322834646
        },
        {
          "duration": 0.18128469726559615,
          "durationTicks": 501,
          "midi": 45,
          "name": "A2",
          "ticks": 987136,
          "time": 425.038952,
          "velocity": 0.8661417322834646
        },
        {
          "duration": 0.18128469726559615,
          "durationTicks": 501,
          "midi": 50,
          "name": "D3",
          "ticks": 987648,
          "time": 425.224217,
          "velocity": 0.8661417322834646
        },
        {
          "duration": 0.18128469726559615,
          "durationTicks": 501,
          "midi": 54,
          "name": "F#3",
          "ticks": 987648,
          "time": 425.224217,
          "velocity": 0.8661417322834646
        },
        {
          "duration": 0.18128469726559615,
          "durationTicks": 501,
          "midi": 57,
          "name": "A3",
          "ticks": 987648,
          "time": 425.224217,
          "velocity": 0.8661417322834646
        },
        {
          "duration": 0.181284697265653,
          "durationTicks": 501,
          "midi": 38,
          "name": "D2",
          "ticks": 988160,
          "time": 425.40948199999997,
          "velocity": 0.8661417322834646
        },
        {
          "duration": 0.181284697265653,
          "durationTicks": 501,
          "midi": 50,
          "name": "D3",
          "ticks": 988672,
          "time": 425.594747,
          "velocity": 0.8661417322834646
        },
        {
          "duration": 0.181284697265653,
          "durationTicks": 501,
          "midi": 54,
          "name": "F#3",
          "ticks": 988672,
          "time": 425.594747,
          "velocity": 0.8661417322834646
        },
        {
          "duration": 0.181284697265653,
          "durationTicks": 501,
          "midi": 57,
          "name": "A3",
          "ticks": 988672,
          "time": 425.594747,
          "velocity": 0.8661417322834646
        },
        {
          "duration": 0.18128469726559615,
          "durationTicks": 501,
          "midi": 45,
          "name": "A2",
          "ticks": 989184,
          "time": 425.780012,
          "velocity": 0.8661417322834646
        },
        {
          "duration": 0.18128469726559615,
          "durationTicks": 501,
          "midi": 50,
          "name": "D3",
          "ticks": 989696,
          "time": 425.965277,
          "velocity": 0.8661417322834646
        },
        {
          "duration": 0.18128469726559615,
          "durationTicks": 501,
          "midi": 54,
          "name": "F#3",
          "ticks": 989696,
          "time": 425.965277,
          "velocity": 0.8661417322834646
        },
        {
          "duration": 0.18128469726559615,
          "durationTicks": 501,
          "midi": 57,
          "name": "A3",
          "ticks": 989696,
          "time": 425.965277,
          "velocity": 0.8661417322834646
        },
        {
          "duration": 0.181284697265653,
          "durationTicks": 501,
          "midi": 45,
          "name": "A2",
          "ticks": 990208,
          "time": 426.150542,
          "velocity": 0.8661417322834646
        },
        {
          "duration": 0.181284697265653,
          "durationTicks": 501,
          "midi": 50,
          "name": "D3",
          "ticks": 990720,
          "time": 426.335807,
          "velocity": 0.8661417322834646
        },
        {
          "duration": 0.181284697265653,
          "durationTicks": 501,
          "midi": 54,
          "name": "F#3",
          "ticks": 990720,
          "time": 426.335807,
          "velocity": 0.8661417322834646
        },
        {
          "duration": 0.181284697265653,
          "durationTicks": 501,
          "midi": 57,
          "name": "A3",
          "ticks": 990720,
          "time": 426.335807,
          "velocity": 0.8661417322834646
        },
        {
          "duration": 0.18128469726559615,
          "durationTicks": 501,
          "midi": 45,
          "name": "A2",
          "ticks": 991232,
          "time": 426.521072,
          "velocity": 0.8661417322834646
        },
        {
          "duration": 0.181284697265653,
          "durationTicks": 501,
          "midi": 50,
          "name": "D3",
          "ticks": 991744,
          "time": 426.70633699999996,
          "velocity": 0.8661417322834646
        },
        {
          "duration": 0.181284697265653,
          "durationTicks": 501,
          "midi": 54,
          "name": "F#3",
          "ticks": 991744,
          "time": 426.70633699999996,
          "velocity": 0.8661417322834646
        },
        {
          "duration": 0.181284697265653,
          "durationTicks": 501,
          "midi": 57,
          "name": "A3",
          "ticks": 991744,
          "time": 426.70633699999996,
          "velocity": 0.8661417322834646
        },
        {
          "duration": 0.181284697265653,
          "durationTicks": 501,
          "midi": 38,
          "name": "D2",
          "ticks": 992256,
          "time": 426.891602,
          "velocity": 0.8661417322834646
        },
        {
          "duration": 0.18128469726559615,
          "durationTicks": 501,
          "midi": 50,
          "name": "D3",
          "ticks": 992768,
          "time": 427.076867,
          "velocity": 0.8661417322834646
        },
        {
          "duration": 0.18128469726559615,
          "durationTicks": 501,
          "midi": 54,
          "name": "F#3",
          "ticks": 992768,
          "time": 427.076867,
          "velocity": 0.8661417322834646
        },
        {
          "duration": 0.18128469726559615,
          "durationTicks": 501,
          "midi": 57,
          "name": "A3",
          "ticks": 992768,
          "time": 427.076867,
          "velocity": 0.8661417322834646
        },
        {
          "duration": 0.18128469726559615,
          "durationTicks": 501,
          "midi": 45,
          "name": "A2",
          "ticks": 993280,
          "time": 427.262132,
          "velocity": 0.8661417322834646
        },
        {
          "duration": 0.181284697265653,
          "durationTicks": 501,
          "midi": 50,
          "name": "D3",
          "ticks": 993792,
          "time": 427.44739699999997,
          "velocity": 0.8661417322834646
        },
        {
          "duration": 0.181284697265653,
          "durationTicks": 501,
          "midi": 54,
          "name": "F#3",
          "ticks": 993792,
          "time": 427.44739699999997,
          "velocity": 0.8661417322834646
        },
        {
          "duration": 0.181284697265653,
          "durationTicks": 501,
          "midi": 57,
          "name": "A3",
          "ticks": 993792,
          "time": 427.44739699999997,
          "velocity": 0.8661417322834646
        },
        {
          "duration": 0.181284697265653,
          "durationTicks": 501,
          "midi": 45,
          "name": "A2",
          "ticks": 994304,
          "time": 427.632662,
          "velocity": 0.8661417322834646
        },
        {
          "duration": 0.18128469726559615,
          "durationTicks": 501,
          "midi": 50,
          "name": "D3",
          "ticks": 994816,
          "time": 427.817927,
          "velocity": 0.8661417322834646
        },
        {
          "duration": 0.18128469726559615,
          "durationTicks": 501,
          "midi": 54,
          "name": "F#3",
          "ticks": 994816,
          "time": 427.817927,
          "velocity": 0.8661417322834646
        },
        {
          "duration": 0.18128469726559615,
          "durationTicks": 501,
          "midi": 57,
          "name": "A3",
          "ticks": 994816,
          "time": 427.817927,
          "velocity": 0.8661417322834646
        },
        {
          "duration": 0.18128469726559615,
          "durationTicks": 501,
          "midi": 52,
          "name": "E3",
          "ticks": 995328,
          "time": 428.003192,
          "velocity": 0.8661417322834646
        },
        {
          "duration": 0.181284697265653,
          "durationTicks": 501,
          "midi": 49,
          "name": "C#3",
          "ticks": 995840,
          "time": 428.18845699999997,
          "velocity": 0.8661417322834646
        },
        {
          "duration": 0.181284697265653,
          "durationTicks": 501,
          "midi": 52,
          "name": "E3",
          "ticks": 995840,
          "time": 428.18845699999997,
          "velocity": 0.8661417322834646
        },
        {
          "duration": 0.181284697265653,
          "durationTicks": 501,
          "midi": 57,
          "name": "A3",
          "ticks": 995840,
          "time": 428.18845699999997,
          "velocity": 0.8661417322834646
        },
        {
          "duration": 0.181284697265653,
          "durationTicks": 501,
          "midi": 45,
          "name": "A2",
          "ticks": 996352,
          "time": 428.373722,
          "velocity": 0.8661417322834646
        },
        {
          "duration": 0.18128469726559615,
          "durationTicks": 501,
          "midi": 49,
          "name": "C#3",
          "ticks": 996864,
          "time": 428.558987,
          "velocity": 0.8661417322834646
        },
        {
          "duration": 0.18128469726559615,
          "durationTicks": 501,
          "midi": 52,
          "name": "E3",
          "ticks": 996864,
          "time": 428.558987,
          "velocity": 0.8661417322834646
        },
        {
          "duration": 0.18128469726559615,
          "durationTicks": 501,
          "midi": 57,
          "name": "A3",
          "ticks": 996864,
          "time": 428.558987,
          "velocity": 0.8661417322834646
        },
        {
          "duration": 0.3086543847656458,
          "durationTicks": 853,
          "midi": 49,
          "name": "C#3",
          "ticks": 997376,
          "time": 428.74425199999996,
          "velocity": 0.8661417322834646
        },
        {
          "duration": 0.3086543847656458,
          "durationTicks": 853,
          "midi": 52,
          "name": "E3",
          "ticks": 997376,
          "time": 428.74425199999996,
          "velocity": 0.8661417322834646
        },
        {
          "duration": 0.3086543847656458,
          "durationTicks": 853,
          "midi": 57,
          "name": "A3",
          "ticks": 997376,
          "time": 428.74425199999996,
          "velocity": 0.8661417322834646
        },
        {
          "duration": 0.18128469726559615,
          "durationTicks": 501,
          "midi": 49,
          "name": "C#3",
          "ticks": 998400,
          "time": 429.114782,
          "velocity": 0.8661417322834646
        },
        {
          "duration": 0.18128469726559615,
          "durationTicks": 501,
          "midi": 52,
          "name": "E3",
          "ticks": 998400,
          "time": 429.114782,
          "velocity": 0.8661417322834646
        },
        {
          "duration": 0.18128469726559615,
          "durationTicks": 501,
          "midi": 57,
          "name": "A3",
          "ticks": 998400,
          "time": 429.114782,
          "velocity": 0.8661417322834646
        },
        {
          "duration": 0.18128469726559615,
          "durationTicks": 501,
          "midi": 49,
          "name": "C#3",
          "ticks": 998912,
          "time": 429.300047,
          "velocity": 0.8661417322834646
        },
        {
          "duration": 0.18128469726559615,
          "durationTicks": 501,
          "midi": 52,
          "name": "E3",
          "ticks": 998912,
          "time": 429.300047,
          "velocity": 0.8661417322834646
        },
        {
          "duration": 0.18128469726559615,
          "durationTicks": 501,
          "midi": 57,
          "name": "A3",
          "ticks": 998912,
          "time": 429.300047,
          "velocity": 0.8661417322834646
        },
        {
          "duration": 0.08865219726567375,
          "durationTicks": 245,
          "midi": 54,
          "name": "F#3",
          "ticks": 999424,
          "time": 429.48531199999996,
          "velocity": 0.8661417322834646
        },
        {
          "duration": 0.08865219726567375,
          "durationTicks": 245,
          "midi": 57,
          "name": "A3",
          "ticks": 999424,
          "time": 429.48531199999996,
          "velocity": 0.8661417322834646
        },
        {
          "duration": 0.0886521972656169,
          "durationTicks": 245,
          "midi": 50,
          "name": "D3",
          "ticks": 999680,
          "time": 429.5779445,
          "velocity": 0.8661417322834646
        },
        {
          "duration": 0.0886521972656169,
          "durationTicks": 245,
          "midi": 54,
          "name": "F#3",
          "ticks": 999936,
          "time": 429.670577,
          "velocity": 0.8661417322834646
        },
        {
          "duration": 0.0886521972656169,
          "durationTicks": 245,
          "midi": 50,
          "name": "D3",
          "ticks": 1000192,
          "time": 429.7632095,
          "velocity": 0.8661417322834646
        },
        {
          "duration": 0.18128469726559615,
          "durationTicks": 501,
          "midi": 50,
          "name": "D3",
          "ticks": 1000448,
          "time": 429.855842,
          "velocity": 0.8661417322834646
        },
        {
          "duration": 0.18128469726559615,
          "durationTicks": 501,
          "midi": 57,
          "name": "A3",
          "ticks": 1000448,
          "time": 429.855842,
          "velocity": 0.8661417322834646
        },
        {
          "duration": 0.18128469726559615,
          "durationTicks": 501,
          "midi": 50,
          "name": "D3",
          "ticks": 1000960,
          "time": 430.041107,
          "velocity": 0.8661417322834646
        },
        {
          "duration": 0.18128469726559615,
          "durationTicks": 501,
          "midi": 54,
          "name": "F#3",
          "ticks": 1000960,
          "time": 430.041107,
          "velocity": 0.8661417322834646
        },
        {
          "duration": 0.18128469726559615,
          "durationTicks": 501,
          "midi": 57,
          "name": "A3",
          "ticks": 1000960,
          "time": 430.041107,
          "velocity": 0.8661417322834646
        },
        {
          "duration": 0.181284697265653,
          "durationTicks": 501,
          "midi": 57,
          "name": "A3",
          "ticks": 1001472,
          "time": 430.22637199999997,
          "velocity": 0.8661417322834646
        },
        {
          "duration": 0.181284697265653,
          "durationTicks": 501,
          "midi": 50,
          "name": "D3",
          "ticks": 1001984,
          "time": 430.411637,
          "velocity": 0.8661417322834646
        },
        {
          "duration": 0.181284697265653,
          "durationTicks": 501,
          "midi": 54,
          "name": "F#3",
          "ticks": 1001984,
          "time": 430.411637,
          "velocity": 0.8661417322834646
        },
        {
          "duration": 0.181284697265653,
          "durationTicks": 501,
          "midi": 57,
          "name": "A3",
          "ticks": 1001984,
          "time": 430.411637,
          "velocity": 0.8661417322834646
        },
        {
          "duration": 0.18128469726559615,
          "durationTicks": 501,
          "midi": 50,
          "name": "D3",
          "ticks": 1002496,
          "time": 430.596902,
          "velocity": 0.8661417322834646
        },
        {
          "duration": 0.181284697265653,
          "durationTicks": 501,
          "midi": 50,
          "name": "D3",
          "ticks": 1003008,
          "time": 430.78216699999996,
          "velocity": 0.8661417322834646
        },
        {
          "duration": 0.181284697265653,
          "durationTicks": 501,
          "midi": 54,
          "name": "F#3",
          "ticks": 1003008,
          "time": 430.78216699999996,
          "velocity": 0.8661417322834646
        },
        {
          "duration": 0.181284697265653,
          "durationTicks": 501,
          "midi": 57,
          "name": "A3",
          "ticks": 1003008,
          "time": 430.78216699999996,
          "velocity": 0.8661417322834646
        },
        {
          "duration": 0.0886521972656169,
          "durationTicks": 245,
          "midi": 54,
          "name": "F#3",
          "ticks": 1003520,
          "time": 430.967432,
          "velocity": 0.8661417322834646
        },
        {
          "duration": 0.0886521972656169,
          "durationTicks": 245,
          "midi": 57,
          "name": "A3",
          "ticks": 1003520,
          "time": 430.967432,
          "velocity": 0.8661417322834646
        },
        {
          "duration": 0.0886521972656169,
          "durationTicks": 245,
          "midi": 50,
          "name": "D3",
          "ticks": 1003776,
          "time": 431.0600645,
          "velocity": 0.8661417322834646
        },
        {
          "duration": 0.0886521972656169,
          "durationTicks": 245,
          "midi": 54,
          "name": "F#3",
          "ticks": 1004032,
          "time": 431.152697,
          "velocity": 0.8661417322834646
        },
        {
          "duration": 0.0886521972656169,
          "durationTicks": 245,
          "midi": 50,
          "name": "D3",
          "ticks": 1004288,
          "time": 431.24532949999997,
          "velocity": 0.8661417322834646
        },
        {
          "duration": 0.18128469726559615,
          "durationTicks": 501,
          "midi": 50,
          "name": "D3",
          "ticks": 1004544,
          "time": 431.337962,
          "velocity": 0.8661417322834646
        },
        {
          "duration": 0.18128469726559615,
          "durationTicks": 501,
          "midi": 57,
          "name": "A3",
          "ticks": 1004544,
          "time": 431.337962,
          "velocity": 0.8661417322834646
        },
        {
          "duration": 0.181284697265653,
          "durationTicks": 501,
          "midi": 50,
          "name": "D3",
          "ticks": 1005056,
          "time": 431.52322699999996,
          "velocity": 0.8661417322834646
        },
        {
          "duration": 0.181284697265653,
          "durationTicks": 501,
          "midi": 54,
          "name": "F#3",
          "ticks": 1005056,
          "time": 431.52322699999996,
          "velocity": 0.8661417322834646
        },
        {
          "duration": 0.181284697265653,
          "durationTicks": 501,
          "midi": 57,
          "name": "A3",
          "ticks": 1005056,
          "time": 431.52322699999996,
          "velocity": 0.8661417322834646
        },
        {
          "duration": 0.181284697265653,
          "durationTicks": 501,
          "midi": 57,
          "name": "A3",
          "ticks": 1005568,
          "time": 431.708492,
          "velocity": 0.8661417322834646
        },
        {
          "duration": 0.18128469726559615,
          "durationTicks": 501,
          "midi": 50,
          "name": "D3",
          "ticks": 1006080,
          "time": 431.893757,
          "velocity": 0.8661417322834646
        },
        {
          "duration": 0.18128469726559615,
          "durationTicks": 501,
          "midi": 54,
          "name": "F#3",
          "ticks": 1006080,
          "time": 431.893757,
          "velocity": 0.8661417322834646
        },
        {
          "duration": 0.18128469726559615,
          "durationTicks": 501,
          "midi": 57,
          "name": "A3",
          "ticks": 1006080,
          "time": 431.893757,
          "velocity": 0.8661417322834646
        },
        {
          "duration": 0.18128469726559615,
          "durationTicks": 501,
          "midi": 50,
          "name": "D3",
          "ticks": 1006592,
          "time": 432.079022,
          "velocity": 0.8661417322834646
        },
        {
          "duration": 0.181284697265653,
          "durationTicks": 501,
          "midi": 50,
          "name": "D3",
          "ticks": 1007104,
          "time": 432.26428699999997,
          "velocity": 0.8661417322834646
        },
        {
          "duration": 0.181284697265653,
          "durationTicks": 501,
          "midi": 54,
          "name": "F#3",
          "ticks": 1007104,
          "time": 432.26428699999997,
          "velocity": 0.8661417322834646
        },
        {
          "duration": 0.181284697265653,
          "durationTicks": 501,
          "midi": 57,
          "name": "A3",
          "ticks": 1007104,
          "time": 432.26428699999997,
          "velocity": 0.8661417322834646
        },
        {
          "duration": 0.0886521972656169,
          "durationTicks": 245,
          "midi": 56,
          "name": "G#3",
          "ticks": 1007616,
          "time": 432.449552,
          "velocity": 0.8661417322834646
        },
        {
          "duration": 0.0886521972656169,
          "durationTicks": 245,
          "midi": 59,
          "name": "B3",
          "ticks": 1007616,
          "time": 432.449552,
          "velocity": 0.8661417322834646
        },
        {
          "duration": 0.08865219726567375,
          "durationTicks": 245,
          "midi": 52,
          "name": "E3",
          "ticks": 1007872,
          "time": 432.54218449999996,
          "velocity": 0.8661417322834646
        },
        {
          "duration": 0.0886521972656169,
          "durationTicks": 245,
          "midi": 56,
          "name": "G#3",
          "ticks": 1008128,
          "time": 432.634817,
          "velocity": 0.8661417322834646
        },
        {
          "duration": 0.0886521972656169,
          "durationTicks": 245,
          "midi": 52,
          "name": "E3",
          "ticks": 1008384,
          "time": 432.7274495,
          "velocity": 0.8661417322834646
        },
        {
          "duration": 0.18128469726559615,
          "durationTicks": 501,
          "midi": 52,
          "name": "E3",
          "ticks": 1008640,
          "time": 432.820082,
          "velocity": 0.8661417322834646
        },
        {
          "duration": 0.18128469726559615,
          "durationTicks": 501,
          "midi": 59,
          "name": "B3",
          "ticks": 1008640,
          "time": 432.820082,
          "velocity": 0.8661417322834646
        },
        {
          "duration": 0.181284697265653,
          "durationTicks": 501,
          "midi": 52,
          "name": "E3",
          "ticks": 1009152,
          "time": 433.005347,
          "velocity": 0.8661417322834646
        },
        {
          "duration": 0.181284697265653,
          "durationTicks": 501,
          "midi": 56,
          "name": "G#3",
          "ticks": 1009152,
          "time": 433.005347,
          "velocity": 0.8661417322834646
        },
        {
          "duration": 0.181284697265653,
          "durationTicks": 501,
          "midi": 59,
          "name": "B3",
          "ticks": 1009152,
          "time": 433.005347,
          "velocity": 0.8661417322834646
        },
        {
          "duration": 0.18128469726559615,
          "durationTicks": 501,
          "midi": 59,
          "name": "B3",
          "ticks": 1009664,
          "time": 433.190612,
          "velocity": 0.8661417322834646
        },
        {
          "duration": 0.18128469726559615,
          "durationTicks": 501,
          "midi": 52,
          "name": "E3",
          "ticks": 1010176,
          "time": 433.375877,
          "velocity": 0.8661417322834646
        },
        {
          "duration": 0.18128469726559615,
          "durationTicks": 501,
          "midi": 56,
          "name": "G#3",
          "ticks": 1010176,
          "time": 433.375877,
          "velocity": 0.8661417322834646
        },
        {
          "duration": 0.18128469726559615,
          "durationTicks": 501,
          "midi": 59,
          "name": "B3",
          "ticks": 1010176,
          "time": 433.375877,
          "velocity": 0.8661417322834646
        },
        {
          "duration": 0.181284697265653,
          "durationTicks": 501,
          "midi": 52,
          "name": "E3",
          "ticks": 1010688,
          "time": 433.56114199999996,
          "velocity": 0.8661417322834646
        },
        {
          "duration": 0.181284697265653,
          "durationTicks": 501,
          "midi": 52,
          "name": "E3",
          "ticks": 1011200,
          "time": 433.746407,
          "velocity": 0.8661417322834646
        },
        {
          "duration": 0.181284697265653,
          "durationTicks": 501,
          "midi": 56,
          "name": "G#3",
          "ticks": 1011200,
          "time": 433.746407,
          "velocity": 0.8661417322834646
        },
        {
          "duration": 0.181284697265653,
          "durationTicks": 501,
          "midi": 59,
          "name": "B3",
          "ticks": 1011200,
          "time": 433.746407,
          "velocity": 0.8661417322834646
        },
        {
          "duration": 0.0886521972656169,
          "durationTicks": 245,
          "midi": 56,
          "name": "G#3",
          "ticks": 1011712,
          "time": 433.931672,
          "velocity": 0.8661417322834646
        },
        {
          "duration": 0.0886521972656169,
          "durationTicks": 245,
          "midi": 62,
          "name": "D4",
          "ticks": 1011712,
          "time": 433.931672,
          "velocity": 0.8661417322834646
        },
        {
          "duration": 0.0886521972656169,
          "durationTicks": 245,
          "midi": 52,
          "name": "E3",
          "ticks": 1011968,
          "time": 434.02430449999997,
          "velocity": 0.8661417322834646
        },
        {
          "duration": 0.0886521972656169,
          "durationTicks": 245,
          "midi": 56,
          "name": "G#3",
          "ticks": 1012224,
          "time": 434.116937,
          "velocity": 0.8661417322834646
        },
        {
          "duration": 0.0886521972656169,
          "durationTicks": 245,
          "midi": 52,
          "name": "E3",
          "ticks": 1012480,
          "time": 434.2095695,
          "velocity": 0.8661417322834646
        },
        {
          "duration": 0.181284697265653,
          "durationTicks": 501,
          "midi": 52,
          "name": "E3",
          "ticks": 1012736,
          "time": 434.30220199999997,
          "velocity": 0.8661417322834646
        },
        {
          "duration": 0.181284697265653,
          "durationTicks": 501,
          "midi": 62,
          "name": "D4",
          "ticks": 1012736,
          "time": 434.30220199999997,
          "velocity": 0.8661417322834646
        },
        {
          "duration": 0.181284697265653,
          "durationTicks": 501,
          "midi": 52,
          "name": "E3",
          "ticks": 1013248,
          "time": 434.487467,
          "velocity": 0.8661417322834646
        },
        {
          "duration": 0.181284697265653,
          "durationTicks": 501,
          "midi": 56,
          "name": "G#3",
          "ticks": 1013248,
          "time": 434.487467,
          "velocity": 0.8661417322834646
        },
        {
          "duration": 0.181284697265653,
          "durationTicks": 501,
          "midi": 62,
          "name": "D4",
          "ticks": 1013248,
          "time": 434.487467,
          "velocity": 0.8661417322834646
        },
        {
          "duration": 0.18128469726559615,
          "durationTicks": 501,
          "midi": 62,
          "name": "D4",
          "ticks": 1013760,
          "time": 434.672732,
          "velocity": 0.8661417322834646
        },
        {
          "duration": 0.18128469726559615,
          "durationTicks": 501,
          "midi": 52,
          "name": "E3",
          "ticks": 1014272,
          "time": 434.857997,
          "velocity": 0.8661417322834646
        },
        {
          "duration": 0.18128469726559615,
          "durationTicks": 501,
          "midi": 56,
          "name": "G#3",
          "ticks": 1014272,
          "time": 434.857997,
          "velocity": 0.8661417322834646
        },
        {
          "duration": 0.18128469726559615,
          "durationTicks": 501,
          "midi": 62,
          "name": "D4",
          "ticks": 1014272,
          "time": 434.857997,
          "velocity": 0.8661417322834646
        },
        {
          "duration": 0.181284697265653,
          "durationTicks": 501,
          "midi": 52,
          "name": "E3",
          "ticks": 1014784,
          "time": 435.04326199999997,
          "velocity": 0.8661417322834646
        },
        {
          "duration": 0.181284697265653,
          "durationTicks": 501,
          "midi": 52,
          "name": "E3",
          "ticks": 1015296,
          "time": 435.228527,
          "velocity": 0.8661417322834646
        },
        {
          "duration": 0.181284697265653,
          "durationTicks": 501,
          "midi": 56,
          "name": "G#3",
          "ticks": 1015296,
          "time": 435.228527,
          "velocity": 0.8661417322834646
        },
        {
          "duration": 0.181284697265653,
          "durationTicks": 501,
          "midi": 62,
          "name": "D4",
          "ticks": 1015296,
          "time": 435.228527,
          "velocity": 0.8661417322834646
        },
        {
          "duration": 0.30865438476558893,
          "durationTicks": 853,
          "midi": 50,
          "name": "D3",
          "ticks": 1015808,
          "time": 435.413792,
          "velocity": 0.8661417322834646
        },
        {
          "duration": 0.30865438476558893,
          "durationTicks": 853,
          "midi": 54,
          "name": "F#3",
          "ticks": 1015808,
          "time": 435.413792,
          "velocity": 0.8661417322834646
        },
        {
          "duration": 0.30865438476558893,
          "durationTicks": 853,
          "midi": 57,
          "name": "A3",
          "ticks": 1015808,
          "time": 435.413792,
          "velocity": 0.8661417322834646
        },
        {
          "duration": 0.3086543847656458,
          "durationTicks": 853,
          "midi": 50,
          "name": "D3",
          "ticks": 1016832,
          "time": 435.784322,
          "velocity": 0.8661417322834646
        },
        {
          "duration": 0.3086543847656458,
          "durationTicks": 853,
          "midi": 54,
          "name": "F#3",
          "ticks": 1016832,
          "time": 435.784322,
          "velocity": 0.8661417322834646
        },
        {
          "duration": 0.3086543847656458,
          "durationTicks": 853,
          "midi": 57,
          "name": "A3",
          "ticks": 1016832,
          "time": 435.784322,
          "velocity": 0.8661417322834646
        },
        {
          "duration": 0.18128469726559615,
          "durationTicks": 501,
          "midi": 53,
          "name": "F3",
          "ticks": 1017856,
          "time": 436.154852,
          "velocity": 0.8661417322834646
        },
        {
          "duration": 0.181284697265653,
          "durationTicks": 501,
          "midi": 50,
          "name": "D3",
          "ticks": 1018368,
          "time": 436.34011699999996,
          "velocity": 0.8661417322834646
        },
        {
          "duration": 0.181284697265653,
          "durationTicks": 501,
          "midi": 53,
          "name": "F3",
          "ticks": 1018368,
          "time": 436.34011699999996,
          "velocity": 0.8661417322834646
        },
        {
          "duration": 0.181284697265653,
          "durationTicks": 501,
          "midi": 57,
          "name": "A3",
          "ticks": 1018368,
          "time": 436.34011699999996,
          "velocity": 0.8661417322834646
        },
        {
          "duration": 0.181284697265653,
          "durationTicks": 501,
          "midi": 53,
          "name": "F3",
          "ticks": 1018880,
          "time": 436.525382,
          "velocity": 0.8661417322834646
        },
        {
          "duration": 0.18128469726559615,
          "durationTicks": 501,
          "midi": 50,
          "name": "D3",
          "ticks": 1019392,
          "time": 436.710647,
          "velocity": 0.8661417322834646
        },
        {
          "duration": 0.18128469726559615,
          "durationTicks": 501,
          "midi": 53,
          "name": "F3",
          "ticks": 1019392,
          "time": 436.710647,
          "velocity": 0.8661417322834646
        },
        {
          "duration": 0.18128469726559615,
          "durationTicks": 501,
          "midi": 57,
          "name": "A3",
          "ticks": 1019392,
          "time": 436.710647,
          "velocity": 0.8661417322834646
        },
        {
          "duration": 0.18128469726559615,
          "durationTicks": 501,
          "midi": 52,
          "name": "E3",
          "ticks": 1019904,
          "time": 436.895912,
          "velocity": 0.8661417322834646
        },
        {
          "duration": 0.181284697265653,
          "durationTicks": 501,
          "midi": 50,
          "name": "D3",
          "ticks": 1020416,
          "time": 437.08117699999997,
          "velocity": 0.8661417322834646
        },
        {
          "duration": 0.181284697265653,
          "durationTicks": 501,
          "midi": 57,
          "name": "A3",
          "ticks": 1020416,
          "time": 437.08117699999997,
          "velocity": 0.8661417322834646
        },
        {
          "duration": 0.181284697265653,
          "durationTicks": 501,
          "midi": 59,
          "name": "B3",
          "ticks": 1020416,
          "time": 437.08117699999997,
          "velocity": 0.8661417322834646
        },
        {
          "duration": 0.181284697265653,
          "durationTicks": 501,
          "midi": 52,
          "name": "E3",
          "ticks": 1020928,
          "time": 437.266442,
          "velocity": 0.8661417322834646
        },
        {
          "duration": 0.18128469726559615,
          "durationTicks": 501,
          "midi": 50,
          "name": "D3",
          "ticks": 1021440,
          "time": 437.451707,
          "velocity": 0.8661417322834646
        },
        {
          "duration": 0.18128469726559615,
          "durationTicks": 501,
          "midi": 57,
          "name": "A3",
          "ticks": 1021440,
          "time": 437.451707,
          "velocity": 0.8661417322834646
        },
        {
          "duration": 0.18128469726559615,
          "durationTicks": 501,
          "midi": 59,
          "name": "B3",
          "ticks": 1021440,
          "time": 437.451707,
          "velocity": 0.8661417322834646
        },
        {
          "duration": 0.18128469726559615,
          "durationTicks": 501,
          "midi": 51,
          "name": "D#3",
          "ticks": 1021952,
          "time": 437.636972,
          "velocity": 0.8661417322834646
        },
        {
          "duration": 0.181284697265653,
          "durationTicks": 501,
          "midi": 52,
          "name": "E3",
          "ticks": 1022464,
          "time": 437.822237,
          "velocity": 0.8661417322834646
        },
        {
          "duration": 0.181284697265653,
          "durationTicks": 501,
          "midi": 57,
          "name": "A3",
          "ticks": 1022464,
          "time": 437.822237,
          "velocity": 0.8661417322834646
        },
        {
          "duration": 0.181284697265653,
          "durationTicks": 501,
          "midi": 59,
          "name": "B3",
          "ticks": 1022464,
          "time": 437.822237,
          "velocity": 0.8661417322834646
        },
        {
          "duration": 0.3086543847656458,
          "durationTicks": 853,
          "midi": 51,
          "name": "D#3",
          "ticks": 1022976,
          "time": 438.007502,
          "velocity": 0.8661417322834646
        },
        {
          "duration": 0.3086543847656458,
          "durationTicks": 853,
          "midi": 50,
          "name": "D3",
          "ticks": 1024000,
          "time": 438.37803199999996,
          "velocity": 0.8661417322834646
        },
        {
          "duration": 0.3086543847656458,
          "durationTicks": 853,
          "midi": 54,
          "name": "F#3",
          "ticks": 1024000,
          "time": 438.37803199999996,
          "velocity": 0.8661417322834646
        },
        {
          "duration": 0.3086543847656458,
          "durationTicks": 853,
          "midi": 57,
          "name": "A3",
          "ticks": 1024000,
          "time": 438.37803199999996,
          "velocity": 0.8661417322834646
        },
        {
          "duration": 0.3086543847656458,
          "durationTicks": 853,
          "midi": 50,
          "name": "D3",
          "ticks": 1025024,
          "time": 438.748562,
          "velocity": 0.8661417322834646
        },
        {
          "duration": 0.3086543847656458,
          "durationTicks": 853,
          "midi": 54,
          "name": "F#3",
          "ticks": 1025024,
          "time": 438.748562,
          "velocity": 0.8661417322834646
        },
        {
          "duration": 0.3086543847656458,
          "durationTicks": 853,
          "midi": 57,
          "name": "A3",
          "ticks": 1025024,
          "time": 438.748562,
          "velocity": 0.8661417322834646
        },
        {
          "duration": 0.181284697265653,
          "durationTicks": 501,
          "midi": 47,
          "name": "B2",
          "ticks": 1026048,
          "time": 439.11909199999997,
          "velocity": 0.8661417322834646
        },
        {
          "duration": 0.181284697265653,
          "durationTicks": 501,
          "midi": 50,
          "name": "D3",
          "ticks": 1026560,
          "time": 439.304357,
          "velocity": 0.8661417322834646
        },
        {
          "duration": 0.181284697265653,
          "durationTicks": 501,
          "midi": 54,
          "name": "F#3",
          "ticks": 1026560,
          "time": 439.304357,
          "velocity": 0.8661417322834646
        },
        {
          "duration": 0.181284697265653,
          "durationTicks": 501,
          "midi": 57,
          "name": "A3",
          "ticks": 1026560,
          "time": 439.304357,
          "velocity": 0.8661417322834646
        },
        {
          "duration": 0.18128469726559615,
          "durationTicks": 501,
          "midi": 47,
          "name": "B2",
          "ticks": 1027072,
          "time": 439.489622,
          "velocity": 0.8661417322834646
        },
        {
          "duration": 0.18128469726559615,
          "durationTicks": 501,
          "midi": 50,
          "name": "D3",
          "ticks": 1027584,
          "time": 439.674887,
          "velocity": 0.8661417322834646
        },
        {
          "duration": 0.18128469726559615,
          "durationTicks": 501,
          "midi": 54,
          "name": "F#3",
          "ticks": 1027584,
          "time": 439.674887,
          "velocity": 0.8661417322834646
        },
        {
          "duration": 0.18128469726559615,
          "durationTicks": 501,
          "midi": 57,
          "name": "A3",
          "ticks": 1027584,
          "time": 439.674887,
          "velocity": 0.8661417322834646
        },
        {
          "duration": 0.181284697265653,
          "durationTicks": 501,
          "midi": 46,
          "name": "A#2",
          "ticks": 1028096,
          "time": 439.86015199999997,
          "velocity": 0.8661417322834646
        },
        {
          "duration": 0.181284697265653,
          "durationTicks": 501,
          "midi": 50,
          "name": "D3",
          "ticks": 1028608,
          "time": 440.045417,
          "velocity": 0.8661417322834646
        },
        {
          "duration": 0.181284697265653,
          "durationTicks": 501,
          "midi": 53,
          "name": "F3",
          "ticks": 1028608,
          "time": 440.045417,
          "velocity": 0.8661417322834646
        },
        {
          "duration": 0.181284697265653,
          "durationTicks": 501,
          "midi": 57,
          "name": "A3",
          "ticks": 1028608,
          "time": 440.045417,
          "velocity": 0.8661417322834646
        },
        {
          "duration": 0.18128469726559615,
          "durationTicks": 501,
          "midi": 46,
          "name": "A#2",
          "ticks": 1029120,
          "time": 440.230682,
          "velocity": 0.8661417322834646
        },
        {
          "duration": 0.181284697265653,
          "durationTicks": 501,
          "midi": 50,
          "name": "D3",
          "ticks": 1029632,
          "time": 440.41594699999996,
          "velocity": 0.8661417322834646
        },
        {
          "duration": 0.181284697265653,
          "durationTicks": 501,
          "midi": 53,
          "name": "F3",
          "ticks": 1029632,
          "time": 440.41594699999996,
          "velocity": 0.8661417322834646
        },
        {
          "duration": 0.181284697265653,
          "durationTicks": 501,
          "midi": 57,
          "name": "A3",
          "ticks": 1029632,
          "time": 440.41594699999996,
          "velocity": 0.8661417322834646
        },
        {
          "duration": 0.181284697265653,
          "durationTicks": 501,
          "midi": 51,
          "name": "D#3",
          "ticks": 1030144,
          "time": 440.601212,
          "velocity": 0.8661417322834646
        },
        {
          "duration": 0.18128469726559615,
          "durationTicks": 501,
          "midi": 50,
          "name": "D3",
          "ticks": 1030656,
          "time": 440.786477,
          "velocity": 0.8661417322834646
        },
        {
          "duration": 0.18128469726559615,
          "durationTicks": 501,
          "midi": 53,
          "name": "F3",
          "ticks": 1030656,
          "time": 440.786477,
          "velocity": 0.8661417322834646
        },
        {
          "duration": 0.18128469726559615,
          "durationTicks": 501,
          "midi": 57,
          "name": "A3",
          "ticks": 1030656,
          "time": 440.786477,
          "velocity": 0.8661417322834646
        },
        {
          "duration": 0.30865438476558893,
          "durationTicks": 853,
          "midi": 51,
          "name": "D#3",
          "ticks": 1031168,
          "time": 440.971742,
          "velocity": 0.8661417322834646
        },
        {
          "duration": 0.181284697265653,
          "durationTicks": 501,
          "midi": 57,
          "name": "A3",
          "ticks": 1032192,
          "time": 441.342272,
          "velocity": 0.8661417322834646
        },
        {
          "duration": 0.18128469726559615,
          "durationTicks": 501,
          "midi": 50,
          "name": "D3",
          "ticks": 1032704,
          "time": 441.527537,
          "velocity": 0.8661417322834646
        },
        {
          "duration": 0.18128469726559615,
          "durationTicks": 501,
          "midi": 54,
          "name": "F#3",
          "ticks": 1032704,
          "time": 441.527537,
          "velocity": 0.8661417322834646
        },
        {
          "duration": 0.18128469726559615,
          "durationTicks": 501,
          "midi": 57,
          "name": "A3",
          "ticks": 1032704,
          "time": 441.527537,
          "velocity": 0.8661417322834646
        },
        {
          "duration": 0.18128469726559615,
          "durationTicks": 501,
          "midi": 50,
          "name": "D3",
          "ticks": 1033216,
          "time": 441.712802,
          "velocity": 0.8661417322834646
        },
        {
          "duration": 0.181284697265653,
          "durationTicks": 501,
          "midi": 50,
          "name": "D3",
          "ticks": 1033728,
          "time": 441.89806699999997,
          "velocity": 0.8661417322834646
        },
        {
          "duration": 0.181284697265653,
          "durationTicks": 501,
          "midi": 54,
          "name": "F#3",
          "ticks": 1033728,
          "time": 441.89806699999997,
          "velocity": 0.8661417322834646
        },
        {
          "duration": 0.181284697265653,
          "durationTicks": 501,
          "midi": 57,
          "name": "A3",
          "ticks": 1033728,
          "time": 441.89806699999997,
          "velocity": 0.8661417322834646
        },
        {
          "duration": 0.3086543847656458,
          "durationTicks": 853,
          "midi": 50,
          "name": "D3",
          "ticks": 1034240,
          "time": 442.083332,
          "velocity": 0.8661417322834646
        },
        {
          "duration": 0.3086543847656458,
          "durationTicks": 853,
          "midi": 54,
          "name": "F#3",
          "ticks": 1034240,
          "time": 442.083332,
          "velocity": 0.8661417322834646
        },
        {
          "duration": 0.3086543847656458,
          "durationTicks": 853,
          "midi": 57,
          "name": "A3",
          "ticks": 1034240,
          "time": 442.083332,
          "velocity": 0.8661417322834646
        },
        {
          "duration": 0.181284697265653,
          "durationTicks": 501,
          "midi": 50,
          "name": "D3",
          "ticks": 1035264,
          "time": 442.45386199999996,
          "velocity": 0.8661417322834646
        },
        {
          "duration": 0.181284697265653,
          "durationTicks": 501,
          "midi": 57,
          "name": "A3",
          "ticks": 1035776,
          "time": 442.639127,
          "velocity": 0.8661417322834646
        },
        {
          "duration": 0.18128469726559615,
          "durationTicks": 501,
          "midi": 57,
          "name": "A3",
          "ticks": 1036288,
          "time": 442.824392,
          "velocity": 0.8661417322834646
        },
        {
          "duration": 0.18128469726559615,
          "durationTicks": 501,
          "midi": 50,
          "name": "D3",
          "ticks": 1036800,
          "time": 443.009657,
          "velocity": 0.8661417322834646
        },
        {
          "duration": 0.18128469726559615,
          "durationTicks": 501,
          "midi": 54,
          "name": "F#3",
          "ticks": 1036800,
          "time": 443.009657,
          "velocity": 0.8661417322834646
        },
        {
          "duration": 0.18128469726559615,
          "durationTicks": 501,
          "midi": 57,
          "name": "A3",
          "ticks": 1036800,
          "time": 443.009657,
          "velocity": 0.8661417322834646
        },
        {
          "duration": 0.181284697265653,
          "durationTicks": 501,
          "midi": 50,
          "name": "D3",
          "ticks": 1037312,
          "time": 443.19492199999996,
          "velocity": 0.8661417322834646
        },
        {
          "duration": 0.181284697265653,
          "durationTicks": 501,
          "midi": 50,
          "name": "D3",
          "ticks": 1037824,
          "time": 443.380187,
          "velocity": 0.8661417322834646
        },
        {
          "duration": 0.181284697265653,
          "durationTicks": 501,
          "midi": 54,
          "name": "F#3",
          "ticks": 1037824,
          "time": 443.380187,
          "velocity": 0.8661417322834646
        },
        {
          "duration": 0.181284697265653,
          "durationTicks": 501,
          "midi": 57,
          "name": "A3",
          "ticks": 1037824,
          "time": 443.380187,
          "velocity": 0.8661417322834646
        },
        {
          "duration": 0.30865438476558893,
          "durationTicks": 853,
          "midi": 50,
          "name": "D3",
          "ticks": 1038336,
          "time": 443.565452,
          "velocity": 0.8661417322834646
        },
        {
          "duration": 0.30865438476558893,
          "durationTicks": 853,
          "midi": 54,
          "name": "F#3",
          "ticks": 1038336,
          "time": 443.565452,
          "velocity": 0.8661417322834646
        },
        {
          "duration": 0.30865438476558893,
          "durationTicks": 853,
          "midi": 57,
          "name": "A3",
          "ticks": 1038336,
          "time": 443.565452,
          "velocity": 0.8661417322834646
        },
        {
          "duration": 0.181284697265653,
          "durationTicks": 501,
          "midi": 50,
          "name": "D3",
          "ticks": 1039360,
          "time": 443.93598199999997,
          "velocity": 0.8661417322834646
        },
        {
          "duration": 0.181284697265653,
          "durationTicks": 501,
          "midi": 54,
          "name": "F#3",
          "ticks": 1039360,
          "time": 443.93598199999997,
          "velocity": 0.8661417322834646
        },
        {
          "duration": 0.181284697265653,
          "durationTicks": 501,
          "midi": 57,
          "name": "A3",
          "ticks": 1039360,
          "time": 443.93598199999997,
          "velocity": 0.8661417322834646
        },
        {
          "duration": 0.181284697265653,
          "durationTicks": 501,
          "midi": 48,
          "name": "C3",
          "ticks": 1039872,
          "time": 444.121247,
          "velocity": 0.8661417322834646
        },
        {
          "duration": 0.18128469726559615,
          "durationTicks": 501,
          "midi": 43,
          "name": "G2",
          "ticks": 1040384,
          "time": 444.306512,
          "velocity": 0.8661417322834646
        },
        {
          "duration": 0.181284697265653,
          "durationTicks": 501,
          "midi": 50,
          "name": "D3",
          "ticks": 1040896,
          "time": 444.49177699999996,
          "velocity": 0.8661417322834646
        },
        {
          "duration": 0.181284697265653,
          "durationTicks": 501,
          "midi": 55,
          "name": "G3",
          "ticks": 1040896,
          "time": 444.49177699999996,
          "velocity": 0.8661417322834646
        },
        {
          "duration": 0.181284697265653,
          "durationTicks": 501,
          "midi": 59,
          "name": "B3",
          "ticks": 1040896,
          "time": 444.49177699999996,
          "velocity": 0.8661417322834646
        },
        {
          "duration": 0.0886521972656169,
          "durationTicks": 245,
          "midi": 38,
          "name": "D2",
          "ticks": 1041408,
          "time": 444.677042,
          "velocity": 0.8661417322834646
        },
        {
          "duration": 0.2739171972655754,
          "durationTicks": 757,
          "midi": 50,
          "name": "D3",
          "ticks": 1041664,
          "time": 444.7696745,
          "velocity": 0.8661417322834646
        },
        {
          "duration": 0.2739171972655754,
          "durationTicks": 757,
          "midi": 55,
          "name": "G3",
          "ticks": 1041664,
          "time": 444.7696745,
          "velocity": 0.8661417322834646
        },
        {
          "duration": 0.2739171972655754,
          "durationTicks": 757,
          "midi": 59,
          "name": "B3",
          "ticks": 1041664,
          "time": 444.7696745,
          "velocity": 0.8661417322834646
        },
        {
          "duration": 0.27391719726563224,
          "durationTicks": 757,
          "midi": 43,
          "name": "G2",
          "ticks": 1042432,
          "time": 445.047572,
          "velocity": 0.8661417322834646
        },
        {
          "duration": 0.27391719726563224,
          "durationTicks": 757,
          "midi": 50,
          "name": "D3",
          "ticks": 1042432,
          "time": 445.047572,
          "velocity": 0.8661417322834646
        },
        {
          "duration": 0.27391719726563224,
          "durationTicks": 757,
          "midi": 55,
          "name": "G3",
          "ticks": 1042432,
          "time": 445.047572,
          "velocity": 0.8661417322834646
        },
        {
          "duration": 0.27391719726563224,
          "durationTicks": 757,
          "midi": 59,
          "name": "B3",
          "ticks": 1042432,
          "time": 445.047572,
          "velocity": 0.8661417322834646
        },
        {
          "duration": 0.0886521972656169,
          "durationTicks": 245,
          "midi": 50,
          "name": "D3",
          "ticks": 1043200,
          "time": 445.3254695,
          "velocity": 0.8661417322834646
        },
        {
          "duration": 0.0886521972656169,
          "durationTicks": 245,
          "midi": 55,
          "name": "G3",
          "ticks": 1043200,
          "time": 445.3254695,
          "velocity": 0.8661417322834646
        },
        {
          "duration": 0.0886521972656169,
          "durationTicks": 245,
          "midi": 59,
          "name": "B3",
          "ticks": 1043200,
          "time": 445.3254695,
          "velocity": 0.8661417322834646
        },
        {
          "duration": 0.181284697265653,
          "durationTicks": 501,
          "midi": 38,
          "name": "D2",
          "ticks": 1043456,
          "time": 445.418102,
          "velocity": 0.8661417322834646
        },
        {
          "duration": 0.18128469726559615,
          "durationTicks": 501,
          "midi": 50,
          "name": "D3",
          "ticks": 1043968,
          "time": 445.603367,
          "velocity": 0.8661417322834646
        },
        {
          "duration": 0.18128469726559615,
          "durationTicks": 501,
          "midi": 55,
          "name": "G3",
          "ticks": 1043968,
          "time": 445.603367,
          "velocity": 0.8661417322834646
        },
        {
          "duration": 0.18128469726559615,
          "durationTicks": 501,
          "midi": 59,
          "name": "B3",
          "ticks": 1043968,
          "time": 445.603367,
          "velocity": 0.8661417322834646
        },
        {
          "duration": 0.18128469726559615,
          "durationTicks": 501,
          "midi": 44,
          "name": "G#2",
          "ticks": 1044480,
          "time": 445.788632,
          "velocity": 0.8661417322834646
        },
        {
          "duration": 0.181284697265653,
          "durationTicks": 501,
          "midi": 52,
          "name": "E3",
          "ticks": 1044992,
          "time": 445.97389699999997,
          "velocity": 0.8661417322834646
        },
        {
          "duration": 0.181284697265653,
          "durationTicks": 501,
          "midi": 56,
          "name": "G#3",
          "ticks": 1044992,
          "time": 445.97389699999997,
          "velocity": 0.8661417322834646
        },
        {
          "duration": 0.181284697265653,
          "durationTicks": 501,
          "midi": 59,
          "name": "B3",
          "ticks": 1044992,
          "time": 445.97389699999997,
          "velocity": 0.8661417322834646
        },
        {
          "duration": 0.181284697265653,
          "durationTicks": 501,
          "midi": 38,
          "name": "D2",
          "ticks": 1045504,
          "time": 446.159162,
          "velocity": 0.8661417322834646
        },
        {
          "duration": 0.18128469726559615,
          "durationTicks": 501,
          "midi": 52,
          "name": "E3",
          "ticks": 1046016,
          "time": 446.344427,
          "velocity": 0.8661417322834646
        },
        {
          "duration": 0.18128469726559615,
          "durationTicks": 501,
          "midi": 56,
          "name": "G#3",
          "ticks": 1046016,
          "time": 446.344427,
          "velocity": 0.8661417322834646
        },
        {
          "duration": 0.18128469726559615,
          "durationTicks": 501,
          "midi": 59,
          "name": "B3",
          "ticks": 1046016,
          "time": 446.344427,
          "velocity": 0.8661417322834646
        },
        {
          "duration": 0.30865438476558893,
          "durationTicks": 853,
          "midi": 44,
          "name": "G#2",
          "ticks": 1046528,
          "time": 446.529692,
          "velocity": 0.8661417322834646
        },
        {
          "duration": 0.30865438476558893,
          "durationTicks": 853,
          "midi": 52,
          "name": "E3",
          "ticks": 1046528,
          "time": 446.529692,
          "velocity": 0.8661417322834646
        },
        {
          "duration": 0.30865438476558893,
          "durationTicks": 853,
          "midi": 56,
          "name": "G#3",
          "ticks": 1046528,
          "time": 446.529692,
          "velocity": 0.8661417322834646
        },
        {
          "duration": 0.30865438476558893,
          "durationTicks": 853,
          "midi": 59,
          "name": "B3",
          "ticks": 1046528,
          "time": 446.529692,
          "velocity": 0.8661417322834646
        },
        {
          "duration": 0.3086543847656458,
          "durationTicks": 853,
          "midi": 38,
          "name": "D2",
          "ticks": 1047552,
          "time": 446.900222,
          "velocity": 0.8661417322834646
        },
        {
          "duration": 0.3086543847656458,
          "durationTicks": 853,
          "midi": 52,
          "name": "E3",
          "ticks": 1047552,
          "time": 446.900222,
          "velocity": 0.8661417322834646
        },
        {
          "duration": 0.3086543847656458,
          "durationTicks": 853,
          "midi": 56,
          "name": "G#3",
          "ticks": 1047552,
          "time": 446.900222,
          "velocity": 0.8661417322834646
        },
        {
          "duration": 0.3086543847656458,
          "durationTicks": 853,
          "midi": 59,
          "name": "B3",
          "ticks": 1047552,
          "time": 446.900222,
          "velocity": 0.8661417322834646
        },
        {
          "duration": 0.18128469726559615,
          "durationTicks": 501,
          "midi": 45,
          "name": "A2",
          "ticks": 1048576,
          "time": 447.270752,
          "velocity": 0.8661417322834646
        },
        {
          "duration": 0.181284697265653,
          "durationTicks": 501,
          "midi": 50,
          "name": "D3",
          "ticks": 1049088,
          "time": 447.456017,
          "velocity": 0.8661417322834646
        },
        {
          "duration": 0.181284697265653,
          "durationTicks": 501,
          "midi": 54,
          "name": "F#3",
          "ticks": 1049088,
          "time": 447.456017,
          "velocity": 0.8661417322834646
        },
        {
          "duration": 0.181284697265653,
          "durationTicks": 501,
          "midi": 57,
          "name": "A3",
          "ticks": 1049088,
          "time": 447.456017,
          "velocity": 0.8661417322834646
        },
        {
          "duration": 0.181284697265653,
          "durationTicks": 501,
          "midi": 38,
          "name": "D2",
          "ticks": 1049600,
          "time": 447.641282,
          "velocity": 0.8661417322834646
        },
        {
          "duration": 0.18128469726559615,
          "durationTicks": 501,
          "midi": 50,
          "name": "D3",
          "ticks": 1050112,
          "time": 447.826547,
          "velocity": 0.8661417322834646
        },
        {
          "duration": 0.18128469726559615,
          "durationTicks": 501,
          "midi": 54,
          "name": "F#3",
          "ticks": 1050112,
          "time": 447.826547,
          "velocity": 0.8661417322834646
        },
        {
          "duration": 0.18128469726559615,
          "durationTicks": 501,
          "midi": 57,
          "name": "A3",
          "ticks": 1050112,
          "time": 447.826547,
          "velocity": 0.8661417322834646
        },
        {
          "duration": 0.181284697265653,
          "durationTicks": 501,
          "midi": 45,
          "name": "A2",
          "ticks": 1050624,
          "time": 448.01181199999996,
          "velocity": 0.8661417322834646
        },
        {
          "duration": 0.181284697265653,
          "durationTicks": 501,
          "midi": 50,
          "name": "D3",
          "ticks": 1051136,
          "time": 448.197077,
          "velocity": 0.8661417322834646
        },
        {
          "duration": 0.181284697265653,
          "durationTicks": 501,
          "midi": 54,
          "name": "F#3",
          "ticks": 1051136,
          "time": 448.197077,
          "velocity": 0.8661417322834646
        },
        {
          "duration": 0.181284697265653,
          "durationTicks": 501,
          "midi": 57,
          "name": "A3",
          "ticks": 1051136,
          "time": 448.197077,
          "velocity": 0.8661417322834646
        },
        {
          "duration": 0.18128469726559615,
          "durationTicks": 501,
          "midi": 45,
          "name": "A2",
          "ticks": 1051648,
          "time": 448.382342,
          "velocity": 0.8661417322834646
        },
        {
          "duration": 0.18128469726559615,
          "durationTicks": 501,
          "midi": 50,
          "name": "D3",
          "ticks": 1052160,
          "time": 448.567607,
          "velocity": 0.8661417322834646
        },
        {
          "duration": 0.18128469726559615,
          "durationTicks": 501,
          "midi": 54,
          "name": "F#3",
          "ticks": 1052160,
          "time": 448.567607,
          "velocity": 0.8661417322834646
        },
        {
          "duration": 0.18128469726559615,
          "durationTicks": 501,
          "midi": 57,
          "name": "A3",
          "ticks": 1052160,
          "time": 448.567607,
          "velocity": 0.8661417322834646
        },
        {
          "duration": 0.181284697265653,
          "durationTicks": 501,
          "midi": 45,
          "name": "A2",
          "ticks": 1052672,
          "time": 448.75287199999997,
          "velocity": 0.8661417322834646
        },
        {
          "duration": 0.18128469726559615,
          "durationTicks": 501,
          "midi": 50,
          "name": "D3",
          "ticks": 1053184,
          "time": 448.938137,
          "velocity": 0.8661417322834646
        },
        {
          "duration": 0.18128469726559615,
          "durationTicks": 501,
          "midi": 54,
          "name": "F#3",
          "ticks": 1053184,
          "time": 448.938137,
          "velocity": 0.8661417322834646
        },
        {
          "duration": 0.18128469726559615,
          "durationTicks": 501,
          "midi": 57,
          "name": "A3",
          "ticks": 1053184,
          "time": 448.938137,
          "velocity": 0.8661417322834646
        },
        {
          "duration": 0.18128469726559615,
          "durationTicks": 501,
          "midi": 38,
          "name": "D2",
          "ticks": 1053696,
          "time": 449.123402,
          "velocity": 0.8661417322834646
        },
        {
          "duration": 0.18128469726559615,
          "durationTicks": 501,
          "midi": 50,
          "name": "D3",
          "ticks": 1054208,
          "time": 449.308667,
          "velocity": 0.8661417322834646
        },
        {
          "duration": 0.18128469726559615,
          "durationTicks": 501,
          "midi": 54,
          "name": "F#3",
          "ticks": 1054208,
          "time": 449.308667,
          "velocity": 0.8661417322834646
        },
        {
          "duration": 0.18128469726559615,
          "durationTicks": 501,
          "midi": 57,
          "name": "A3",
          "ticks": 1054208,
          "time": 449.308667,
          "velocity": 0.8661417322834646
        },
        {
          "duration": 0.181284697265653,
          "durationTicks": 501,
          "midi": 45,
          "name": "A2",
          "ticks": 1054720,
          "time": 449.493932,
          "velocity": 0.8661417322834646
        },
        {
          "duration": 0.181284697265653,
          "durationTicks": 501,
          "midi": 50,
          "name": "D3",
          "ticks": 1055232,
          "time": 449.679197,
          "velocity": 0.8661417322834646
        },
        {
          "duration": 0.181284697265653,
          "durationTicks": 501,
          "midi": 54,
          "name": "F#3",
          "ticks": 1055232,
          "time": 449.679197,
          "velocity": 0.8661417322834646
        },
        {
          "duration": 0.181284697265653,
          "durationTicks": 501,
          "midi": 57,
          "name": "A3",
          "ticks": 1055232,
          "time": 449.679197,
          "velocity": 0.8661417322834646
        },
        {
          "duration": 0.18128469726559615,
          "durationTicks": 501,
          "midi": 45,
          "name": "A2",
          "ticks": 1055744,
          "time": 449.864462,
          "velocity": 0.8661417322834646
        },
        {
          "duration": 0.181284697265653,
          "durationTicks": 501,
          "midi": 50,
          "name": "D3",
          "ticks": 1056256,
          "time": 450.04972699999996,
          "velocity": 0.8661417322834646
        },
        {
          "duration": 0.181284697265653,
          "durationTicks": 501,
          "midi": 54,
          "name": "F#3",
          "ticks": 1056256,
          "time": 450.04972699999996,
          "velocity": 0.8661417322834646
        },
        {
          "duration": 0.181284697265653,
          "durationTicks": 501,
          "midi": 57,
          "name": "A3",
          "ticks": 1056256,
          "time": 450.04972699999996,
          "velocity": 0.8661417322834646
        },
        {
          "duration": 0.181284697265653,
          "durationTicks": 501,
          "midi": 45,
          "name": "A2",
          "ticks": 1056768,
          "time": 450.234992,
          "velocity": 0.8661417322834646
        },
        {
          "duration": 0.18128469726559615,
          "durationTicks": 501,
          "midi": 50,
          "name": "D3",
          "ticks": 1057280,
          "time": 450.420257,
          "velocity": 0.8661417322834646
        },
        {
          "duration": 0.18128469726559615,
          "durationTicks": 501,
          "midi": 54,
          "name": "F#3",
          "ticks": 1057280,
          "time": 450.420257,
          "velocity": 0.8661417322834646
        },
        {
          "duration": 0.18128469726559615,
          "durationTicks": 501,
          "midi": 57,
          "name": "A3",
          "ticks": 1057280,
          "time": 450.420257,
          "velocity": 0.8661417322834646
        },
        {
          "duration": 0.18128469726559615,
          "durationTicks": 501,
          "midi": 38,
          "name": "D2",
          "ticks": 1057792,
          "time": 450.605522,
          "velocity": 0.8661417322834646
        },
        {
          "duration": 0.181284697265653,
          "durationTicks": 501,
          "midi": 50,
          "name": "D3",
          "ticks": 1058304,
          "time": 450.79078699999997,
          "velocity": 0.8661417322834646
        },
        {
          "duration": 0.181284697265653,
          "durationTicks": 501,
          "midi": 54,
          "name": "F#3",
          "ticks": 1058304,
          "time": 450.79078699999997,
          "velocity": 0.8661417322834646
        },
        {
          "duration": 0.181284697265653,
          "durationTicks": 501,
          "midi": 57,
          "name": "A3",
          "ticks": 1058304,
          "time": 450.79078699999997,
          "velocity": 0.8661417322834646
        },
        {
          "duration": 0.181284697265653,
          "durationTicks": 501,
          "midi": 45,
          "name": "A2",
          "ticks": 1058816,
          "time": 450.976052,
          "velocity": 0.8661417322834646
        },
        {
          "duration": 0.18128469726559615,
          "durationTicks": 501,
          "midi": 50,
          "name": "D3",
          "ticks": 1059328,
          "time": 451.161317,
          "velocity": 0.8661417322834646
        },
        {
          "duration": 0.18128469726559615,
          "durationTicks": 501,
          "midi": 54,
          "name": "F#3",
          "ticks": 1059328,
          "time": 451.161317,
          "velocity": 0.8661417322834646
        },
        {
          "duration": 0.18128469726559615,
          "durationTicks": 501,
          "midi": 57,
          "name": "A3",
          "ticks": 1059328,
          "time": 451.161317,
          "velocity": 0.8661417322834646
        },
        {
          "duration": 0.18128469726559615,
          "durationTicks": 501,
          "midi": 45,
          "name": "A2",
          "ticks": 1059840,
          "time": 451.346582,
          "velocity": 0.8661417322834646
        },
        {
          "duration": 0.181284697265653,
          "durationTicks": 501,
          "midi": 50,
          "name": "D3",
          "ticks": 1060352,
          "time": 451.53184699999997,
          "velocity": 0.8661417322834646
        },
        {
          "duration": 0.181284697265653,
          "durationTicks": 501,
          "midi": 54,
          "name": "F#3",
          "ticks": 1060352,
          "time": 451.53184699999997,
          "velocity": 0.8661417322834646
        },
        {
          "duration": 0.181284697265653,
          "durationTicks": 501,
          "midi": 57,
          "name": "A3",
          "ticks": 1060352,
          "time": 451.53184699999997,
          "velocity": 0.8661417322834646
        },
        {
          "duration": 0.181284697265653,
          "durationTicks": 501,
          "midi": 52,
          "name": "E3",
          "ticks": 1060864,
          "time": 451.717112,
          "velocity": 0.8661417322834646
        },
        {
          "duration": 0.18128469726559615,
          "durationTicks": 501,
          "midi": 49,
          "name": "C#3",
          "ticks": 1061376,
          "time": 451.902377,
          "velocity": 0.8661417322834646
        },
        {
          "duration": 0.18128469726559615,
          "durationTicks": 501,
          "midi": 52,
          "name": "E3",
          "ticks": 1061376,
          "time": 451.902377,
          "velocity": 0.8661417322834646
        },
        {
          "duration": 0.18128469726559615,
          "durationTicks": 501,
          "midi": 57,
          "name": "A3",
          "ticks": 1061376,
          "time": 451.902377,
          "velocity": 0.8661417322834646
        },
        {
          "duration": 0.181284697265653,
          "durationTicks": 501,
          "midi": 45,
          "name": "A2",
          "ticks": 1061888,
          "time": 452.08764199999996,
          "velocity": 0.8661417322834646
        },
        {
          "duration": 0.181284697265653,
          "durationTicks": 501,
          "midi": 49,
          "name": "C#3",
          "ticks": 1062400,
          "time": 452.272907,
          "velocity": 0.8661417322834646
        },
        {
          "duration": 0.181284697265653,
          "durationTicks": 501,
          "midi": 52,
          "name": "E3",
          "ticks": 1062400,
          "time": 452.272907,
          "velocity": 0.8661417322834646
        },
        {
          "duration": 0.181284697265653,
          "durationTicks": 501,
          "midi": 57,
          "name": "A3",
          "ticks": 1062400,
          "time": 452.272907,
          "velocity": 0.8661417322834646
        },
        {
          "duration": 0.3086543847656458,
          "durationTicks": 853,
          "midi": 49,
          "name": "C#3",
          "ticks": 1062912,
          "time": 452.458172,
          "velocity": 0.8661417322834646
        },
        {
          "duration": 0.3086543847656458,
          "durationTicks": 853,
          "midi": 52,
          "name": "E3",
          "ticks": 1062912,
          "time": 452.458172,
          "velocity": 0.8661417322834646
        },
        {
          "duration": 0.3086543847656458,
          "durationTicks": 853,
          "midi": 57,
          "name": "A3",
          "ticks": 1062912,
          "time": 452.458172,
          "velocity": 0.8661417322834646
        },
        {
          "duration": 0.181284697265653,
          "durationTicks": 501,
          "midi": 49,
          "name": "C#3",
          "ticks": 1063936,
          "time": 452.82870199999996,
          "velocity": 0.8661417322834646
        },
        {
          "duration": 0.181284697265653,
          "durationTicks": 501,
          "midi": 52,
          "name": "E3",
          "ticks": 1063936,
          "time": 452.82870199999996,
          "velocity": 0.8661417322834646
        },
        {
          "duration": 0.181284697265653,
          "durationTicks": 501,
          "midi": 57,
          "name": "A3",
          "ticks": 1063936,
          "time": 452.82870199999996,
          "velocity": 0.8661417322834646
        },
        {
          "duration": 0.181284697265653,
          "durationTicks": 501,
          "midi": 49,
          "name": "C#3",
          "ticks": 1064448,
          "time": 453.013967,
          "velocity": 0.8661417322834646
        },
        {
          "duration": 0.181284697265653,
          "durationTicks": 501,
          "midi": 52,
          "name": "E3",
          "ticks": 1064448,
          "time": 453.013967,
          "velocity": 0.8661417322834646
        },
        {
          "duration": 0.181284697265653,
          "durationTicks": 501,
          "midi": 57,
          "name": "A3",
          "ticks": 1064448,
          "time": 453.013967,
          "velocity": 0.8661417322834646
        },
        {
          "duration": 0.0886521972656169,
          "durationTicks": 245,
          "midi": 54,
          "name": "F#3",
          "ticks": 1064960,
          "time": 453.199232,
          "velocity": 0.8661417322834646
        },
        {
          "duration": 0.0886521972656169,
          "durationTicks": 245,
          "midi": 57,
          "name": "A3",
          "ticks": 1064960,
          "time": 453.199232,
          "velocity": 0.8661417322834646
        },
        {
          "duration": 0.0886521972656169,
          "durationTicks": 245,
          "midi": 50,
          "name": "D3",
          "ticks": 1065216,
          "time": 453.2918645,
          "velocity": 0.8661417322834646
        },
        {
          "duration": 0.0886521972656169,
          "durationTicks": 245,
          "midi": 54,
          "name": "F#3",
          "ticks": 1065472,
          "time": 453.384497,
          "velocity": 0.8661417322834646
        },
        {
          "duration": 0.0886521972656169,
          "durationTicks": 245,
          "midi": 50,
          "name": "D3",
          "ticks": 1065728,
          "time": 453.4771295,
          "velocity": 0.8661417322834646
        },
        {
          "duration": 0.181284697265653,
          "durationTicks": 501,
          "midi": 50,
          "name": "D3",
          "ticks": 1065984,
          "time": 453.56976199999997,
          "velocity": 0.8661417322834646
        },
        {
          "duration": 0.181284697265653,
          "durationTicks": 501,
          "midi": 57,
          "name": "A3",
          "ticks": 1065984,
          "time": 453.56976199999997,
          "velocity": 0.8661417322834646
        },
        {
          "duration": 0.181284697265653,
          "durationTicks": 501,
          "midi": 50,
          "name": "D3",
          "ticks": 1066496,
          "time": 453.755027,
          "velocity": 0.8661417322834646
        },
        {
          "duration": 0.181284697265653,
          "durationTicks": 501,
          "midi": 54,
          "name": "F#3",
          "ticks": 1066496,
          "time": 453.755027,
          "velocity": 0.8661417322834646
        },
        {
          "duration": 0.181284697265653,
          "durationTicks": 501,
          "midi": 57,
          "name": "A3",
          "ticks": 1066496,
          "time": 453.755027,
          "velocity": 0.8661417322834646
        },
        {
          "duration": 0.18128469726559615,
          "durationTicks": 501,
          "midi": 57,
          "name": "A3",
          "ticks": 1067008,
          "time": 453.940292,
          "velocity": 0.8661417322834646
        },
        {
          "duration": 0.181284697265653,
          "durationTicks": 501,
          "midi": 50,
          "name": "D3",
          "ticks": 1067520,
          "time": 454.12555699999996,
          "velocity": 0.8661417322834646
        },
        {
          "duration": 0.181284697265653,
          "durationTicks": 501,
          "midi": 54,
          "name": "F#3",
          "ticks": 1067520,
          "time": 454.12555699999996,
          "velocity": 0.8661417322834646
        },
        {
          "duration": 0.181284697265653,
          "durationTicks": 501,
          "midi": 57,
          "name": "A3",
          "ticks": 1067520,
          "time": 454.12555699999996,
          "velocity": 0.8661417322834646
        },
        {
          "duration": 0.181284697265653,
          "durationTicks": 501,
          "midi": 50,
          "name": "D3",
          "ticks": 1068032,
          "time": 454.310822,
          "velocity": 0.8661417322834646
        },
        {
          "duration": 0.18128469726559615,
          "durationTicks": 501,
          "midi": 50,
          "name": "D3",
          "ticks": 1068544,
          "time": 454.496087,
          "velocity": 0.8661417322834646
        },
        {
          "duration": 0.18128469726559615,
          "durationTicks": 501,
          "midi": 54,
          "name": "F#3",
          "ticks": 1068544,
          "time": 454.496087,
          "velocity": 0.8661417322834646
        },
        {
          "duration": 0.18128469726559615,
          "durationTicks": 501,
          "midi": 57,
          "name": "A3",
          "ticks": 1068544,
          "time": 454.496087,
          "velocity": 0.8661417322834646
        },
        {
          "duration": 0.0886521972656169,
          "durationTicks": 245,
          "midi": 54,
          "name": "F#3",
          "ticks": 1069056,
          "time": 454.681352,
          "velocity": 0.8661417322834646
        },
        {
          "duration": 0.0886521972656169,
          "durationTicks": 245,
          "midi": 57,
          "name": "A3",
          "ticks": 1069056,
          "time": 454.681352,
          "velocity": 0.8661417322834646
        },
        {
          "duration": 0.0886521972656169,
          "durationTicks": 245,
          "midi": 50,
          "name": "D3",
          "ticks": 1069312,
          "time": 454.7739845,
          "velocity": 0.8661417322834646
        },
        {
          "duration": 0.0886521972656169,
          "durationTicks": 245,
          "midi": 54,
          "name": "F#3",
          "ticks": 1069568,
          "time": 454.86661699999996,
          "velocity": 0.8661417322834646
        },
        {
          "duration": 0.0886521972656169,
          "durationTicks": 245,
          "midi": 50,
          "name": "D3",
          "ticks": 1069824,
          "time": 454.9592495,
          "velocity": 0.8661417322834646
        },
        {
          "duration": 0.181284697265653,
          "durationTicks": 501,
          "midi": 50,
          "name": "D3",
          "ticks": 1070080,
          "time": 455.051882,
          "velocity": 0.8661417322834646
        },
        {
          "duration": 0.181284697265653,
          "durationTicks": 501,
          "midi": 57,
          "name": "A3",
          "ticks": 1070080,
          "time": 455.051882,
          "velocity": 0.8661417322834646
        },
        {
          "duration": 0.18128469726559615,
          "durationTicks": 501,
          "midi": 50,
          "name": "D3",
          "ticks": 1070592,
          "time": 455.237147,
          "velocity": 0.8661417322834646
        },
        {
          "duration": 0.18128469726559615,
          "durationTicks": 501,
          "midi": 54,
          "name": "F#3",
          "ticks": 1070592,
          "time": 455.237147,
          "velocity": 0.8661417322834646
        },
        {
          "duration": 0.18128469726559615,
          "durationTicks": 501,
          "midi": 57,
          "name": "A3",
          "ticks": 1070592,
          "time": 455.237147,
          "velocity": 0.8661417322834646
        },
        {
          "duration": 0.18128469726559615,
          "durationTicks": 501,
          "midi": 57,
          "name": "A3",
          "ticks": 1071104,
          "time": 455.422412,
          "velocity": 0.8661417322834646
        },
        {
          "duration": 0.181284697265653,
          "durationTicks": 501,
          "midi": 50,
          "name": "D3",
          "ticks": 1071616,
          "time": 455.60767699999997,
          "velocity": 0.8661417322834646
        },
        {
          "duration": 0.181284697265653,
          "durationTicks": 501,
          "midi": 54,
          "name": "F#3",
          "ticks": 1071616,
          "time": 455.60767699999997,
          "velocity": 0.8661417322834646
        },
        {
          "duration": 0.181284697265653,
          "durationTicks": 501,
          "midi": 57,
          "name": "A3",
          "ticks": 1071616,
          "time": 455.60767699999997,
          "velocity": 0.8661417322834646
        },
        {
          "duration": 0.181284697265653,
          "durationTicks": 501,
          "midi": 50,
          "name": "D3",
          "ticks": 1072128,
          "time": 455.792942,
          "velocity": 0.8661417322834646
        },
        {
          "duration": 0.18128469726559615,
          "durationTicks": 501,
          "midi": 50,
          "name": "D3",
          "ticks": 1072640,
          "time": 455.978207,
          "velocity": 0.8661417322834646
        },
        {
          "duration": 0.18128469726559615,
          "durationTicks": 501,
          "midi": 54,
          "name": "F#3",
          "ticks": 1072640,
          "time": 455.978207,
          "velocity": 0.8661417322834646
        },
        {
          "duration": 0.18128469726559615,
          "durationTicks": 501,
          "midi": 57,
          "name": "A3",
          "ticks": 1072640,
          "time": 455.978207,
          "velocity": 0.8661417322834646
        },
        {
          "duration": 0.08865219726567375,
          "durationTicks": 245,
          "midi": 56,
          "name": "G#3",
          "ticks": 1073152,
          "time": 456.16347199999996,
          "velocity": 0.8661417322834646
        },
        {
          "duration": 0.08865219726567375,
          "durationTicks": 245,
          "midi": 59,
          "name": "B3",
          "ticks": 1073152,
          "time": 456.16347199999996,
          "velocity": 0.8661417322834646
        },
        {
          "duration": 0.0886521972656169,
          "durationTicks": 245,
          "midi": 52,
          "name": "E3",
          "ticks": 1073408,
          "time": 456.2561045,
          "velocity": 0.8661417322834646
        },
        {
          "duration": 0.0886521972656169,
          "durationTicks": 245,
          "midi": 56,
          "name": "G#3",
          "ticks": 1073664,
          "time": 456.34873699999997,
          "velocity": 0.8661417322834646
        },
        {
          "duration": 0.0886521972656169,
          "durationTicks": 245,
          "midi": 52,
          "name": "E3",
          "ticks": 1073920,
          "time": 456.4413695,
          "velocity": 0.8661417322834646
        },
        {
          "duration": 0.18128469726559615,
          "durationTicks": 501,
          "midi": 52,
          "name": "E3",
          "ticks": 1074176,
          "time": 456.534002,
          "velocity": 0.8661417322834646
        },
        {
          "duration": 0.18128469726559615,
          "durationTicks": 501,
          "midi": 59,
          "name": "B3",
          "ticks": 1074176,
          "time": 456.534002,
          "velocity": 0.8661417322834646
        },
        {
          "duration": 0.18128469726559615,
          "durationTicks": 501,
          "midi": 52,
          "name": "E3",
          "ticks": 1074688,
          "time": 456.719267,
          "velocity": 0.8661417322834646
        },
        {
          "duration": 0.18128469726559615,
          "durationTicks": 501,
          "midi": 56,
          "name": "G#3",
          "ticks": 1074688,
          "time": 456.719267,
          "velocity": 0.8661417322834646
        },
        {
          "duration": 0.18128469726559615,
          "durationTicks": 501,
          "midi": 59,
          "name": "B3",
          "ticks": 1074688,
          "time": 456.719267,
          "velocity": 0.8661417322834646
        },
        {
          "duration": 0.181284697265653,
          "durationTicks": 501,
          "midi": 59,
          "name": "B3",
          "ticks": 1075200,
          "time": 456.90453199999996,
          "velocity": 0.8661417322834646
        },
        {
          "duration": 0.181284697265653,
          "durationTicks": 501,
          "midi": 52,
          "name": "E3",
          "ticks": 1075712,
          "time": 457.089797,
          "velocity": 0.8661417322834646
        },
        {
          "duration": 0.181284697265653,
          "durationTicks": 501,
          "midi": 56,
          "name": "G#3",
          "ticks": 1075712,
          "time": 457.089797,
          "velocity": 0.8661417322834646
        },
        {
          "duration": 0.181284697265653,
          "durationTicks": 501,
          "midi": 59,
          "name": "B3",
          "ticks": 1075712,
          "time": 457.089797,
          "velocity": 0.8661417322834646
        },
        {
          "duration": 0.18128469726559615,
          "durationTicks": 501,
          "midi": 52,
          "name": "E3",
          "ticks": 1076224,
          "time": 457.275062,
          "velocity": 0.8661417322834646
        },
        {
          "duration": 0.18128469726559615,
          "durationTicks": 501,
          "midi": 52,
          "name": "E3",
          "ticks": 1076736,
          "time": 457.460327,
          "velocity": 0.8661417322834646
        },
        {
          "duration": 0.18128469726559615,
          "durationTicks": 501,
          "midi": 56,
          "name": "G#3",
          "ticks": 1076736,
          "time": 457.460327,
          "velocity": 0.8661417322834646
        },
        {
          "duration": 0.18128469726559615,
          "durationTicks": 501,
          "midi": 59,
          "name": "B3",
          "ticks": 1076736,
          "time": 457.460327,
          "velocity": 0.8661417322834646
        },
        {
          "duration": 0.08865219726567375,
          "durationTicks": 245,
          "midi": 56,
          "name": "G#3",
          "ticks": 1077248,
          "time": 457.64559199999997,
          "velocity": 0.8661417322834646
        },
        {
          "duration": 0.08865219726567375,
          "durationTicks": 245,
          "midi": 62,
          "name": "D4",
          "ticks": 1077248,
          "time": 457.64559199999997,
          "velocity": 0.8661417322834646
        },
        {
          "duration": 0.0886521972656169,
          "durationTicks": 245,
          "midi": 52,
          "name": "E3",
          "ticks": 1077504,
          "time": 457.7382245,
          "velocity": 0.8661417322834646
        },
        {
          "duration": 0.0886521972656169,
          "durationTicks": 245,
          "midi": 56,
          "name": "G#3",
          "ticks": 1077760,
          "time": 457.830857,
          "velocity": 0.8661417322834646
        },
        {
          "duration": 0.08865219726567375,
          "durationTicks": 245,
          "midi": 52,
          "name": "E3",
          "ticks": 1078016,
          "time": 457.92348949999996,
          "velocity": 0.8661417322834646
        },
        {
          "duration": 0.18128469726559615,
          "durationTicks": 501,
          "midi": 52,
          "name": "E3",
          "ticks": 1078272,
          "time": 458.016122,
          "velocity": 0.8661417322834646
        },
        {
          "duration": 0.18128469726559615,
          "durationTicks": 501,
          "midi": 62,
          "name": "D4",
          "ticks": 1078272,
          "time": 458.016122,
          "velocity": 0.8661417322834646
        },
        {
          "duration": 0.181284697265653,
          "durationTicks": 501,
          "midi": 52,
          "name": "E3",
          "ticks": 1078784,
          "time": 458.20138699999995,
          "velocity": 0.8661417322834646
        },
        {
          "duration": 0.181284697265653,
          "durationTicks": 501,
          "midi": 56,
          "name": "G#3",
          "ticks": 1078784,
          "time": 458.20138699999995,
          "velocity": 0.8661417322834646
        },
        {
          "duration": 0.181284697265653,
          "durationTicks": 501,
          "midi": 62,
          "name": "D4",
          "ticks": 1078784,
          "time": 458.20138699999995,
          "velocity": 0.8661417322834646
        },
        {
          "duration": 0.181284697265653,
          "durationTicks": 501,
          "midi": 62,
          "name": "D4",
          "ticks": 1079296,
          "time": 458.38665199999997,
          "velocity": 0.8661417322834646
        },
        {
          "duration": 0.18128469726559615,
          "durationTicks": 501,
          "midi": 52,
          "name": "E3",
          "ticks": 1079808,
          "time": 458.571917,
          "velocity": 0.8661417322834646
        },
        {
          "duration": 0.18128469726559615,
          "durationTicks": 501,
          "midi": 56,
          "name": "G#3",
          "ticks": 1079808,
          "time": 458.571917,
          "velocity": 0.8661417322834646
        },
        {
          "duration": 0.18128469726559615,
          "durationTicks": 501,
          "midi": 62,
          "name": "D4",
          "ticks": 1079808,
          "time": 458.571917,
          "velocity": 0.8661417322834646
        },
        {
          "duration": 0.18128469726559615,
          "durationTicks": 501,
          "midi": 52,
          "name": "E3",
          "ticks": 1080320,
          "time": 458.757182,
          "velocity": 0.8661417322834646
        },
        {
          "duration": 0.18128469726559615,
          "durationTicks": 501,
          "midi": 52,
          "name": "E3",
          "ticks": 1080832,
          "time": 458.942447,
          "velocity": 0.8661417322834646
        },
        {
          "duration": 0.18128469726559615,
          "durationTicks": 501,
          "midi": 56,
          "name": "G#3",
          "ticks": 1080832,
          "time": 458.942447,
          "velocity": 0.8661417322834646
        },
        {
          "duration": 0.18128469726559615,
          "durationTicks": 501,
          "midi": 62,
          "name": "D4",
          "ticks": 1080832,
          "time": 458.942447,
          "velocity": 0.8661417322834646
        },
        {
          "duration": 0.3086543847656458,
          "durationTicks": 853,
          "midi": 50,
          "name": "D3",
          "ticks": 1081344,
          "time": 459.127712,
          "velocity": 0.8661417322834646
        },
        {
          "duration": 0.3086543847656458,
          "durationTicks": 853,
          "midi": 54,
          "name": "F#3",
          "ticks": 1081344,
          "time": 459.127712,
          "velocity": 0.8661417322834646
        },
        {
          "duration": 0.3086543847656458,
          "durationTicks": 853,
          "midi": 57,
          "name": "A3",
          "ticks": 1081344,
          "time": 459.127712,
          "velocity": 0.8661417322834646
        },
        {
          "duration": 0.30865438476558893,
          "durationTicks": 853,
          "midi": 50,
          "name": "D3",
          "ticks": 1082368,
          "time": 459.498242,
          "velocity": 0.8661417322834646
        },
        {
          "duration": 0.30865438476558893,
          "durationTicks": 853,
          "midi": 54,
          "name": "F#3",
          "ticks": 1082368,
          "time": 459.498242,
          "velocity": 0.8661417322834646
        },
        {
          "duration": 0.30865438476558893,
          "durationTicks": 853,
          "midi": 57,
          "name": "A3",
          "ticks": 1082368,
          "time": 459.498242,
          "velocity": 0.8661417322834646
        },
        {
          "duration": 0.181284697265653,
          "durationTicks": 501,
          "midi": 53,
          "name": "F3",
          "ticks": 1083392,
          "time": 459.868772,
          "velocity": 0.8661417322834646
        },
        {
          "duration": 0.18128469726559615,
          "durationTicks": 501,
          "midi": 50,
          "name": "D3",
          "ticks": 1083904,
          "time": 460.054037,
          "velocity": 0.8661417322834646
        },
        {
          "duration": 0.18128469726559615,
          "durationTicks": 501,
          "midi": 53,
          "name": "F3",
          "ticks": 1083904,
          "time": 460.054037,
          "velocity": 0.8661417322834646
        },
        {
          "duration": 0.18128469726559615,
          "durationTicks": 501,
          "midi": 57,
          "name": "A3",
          "ticks": 1083904,
          "time": 460.054037,
          "velocity": 0.8661417322834646
        },
        {
          "duration": 0.18128469726559615,
          "durationTicks": 501,
          "midi": 53,
          "name": "F3",
          "ticks": 1084416,
          "time": 460.239302,
          "velocity": 0.8661417322834646
        },
        {
          "duration": 0.181284697265653,
          "durationTicks": 501,
          "midi": 50,
          "name": "D3",
          "ticks": 1084928,
          "time": 460.42456699999997,
          "velocity": 0.8661417322834646
        },
        {
          "duration": 0.181284697265653,
          "durationTicks": 501,
          "midi": 53,
          "name": "F3",
          "ticks": 1084928,
          "time": 460.42456699999997,
          "velocity": 0.8661417322834646
        },
        {
          "duration": 0.181284697265653,
          "durationTicks": 501,
          "midi": 57,
          "name": "A3",
          "ticks": 1084928,
          "time": 460.42456699999997,
          "velocity": 0.8661417322834646
        },
        {
          "duration": 0.18128469726559615,
          "durationTicks": 501,
          "midi": 52,
          "name": "E3",
          "ticks": 1085440,
          "time": 460.609832,
          "velocity": 0.8661417322834646
        },
        {
          "duration": 0.18128469726559615,
          "durationTicks": 501,
          "midi": 50,
          "name": "D3",
          "ticks": 1085952,
          "time": 460.795097,
          "velocity": 0.8661417322834646
        },
        {
          "duration": 0.18128469726559615,
          "durationTicks": 501,
          "midi": 57,
          "name": "A3",
          "ticks": 1085952,
          "time": 460.795097,
          "velocity": 0.8661417322834646
        },
        {
          "duration": 0.18128469726559615,
          "durationTicks": 501,
          "midi": 59,
          "name": "B3",
          "ticks": 1085952,
          "time": 460.795097,
          "velocity": 0.8661417322834646
        },
        {
          "duration": 0.18128469726559615,
          "durationTicks": 501,
          "midi": 52,
          "name": "E3",
          "ticks": 1086464,
          "time": 460.980362,
          "velocity": 0.8661417322834646
        },
        {
          "duration": 0.181284697265653,
          "durationTicks": 501,
          "midi": 50,
          "name": "D3",
          "ticks": 1086976,
          "time": 461.165627,
          "velocity": 0.8661417322834646
        },
        {
          "duration": 0.181284697265653,
          "durationTicks": 501,
          "midi": 57,
          "name": "A3",
          "ticks": 1086976,
          "time": 461.165627,
          "velocity": 0.8661417322834646
        },
        {
          "duration": 0.181284697265653,
          "durationTicks": 501,
          "midi": 59,
          "name": "B3",
          "ticks": 1086976,
          "time": 461.165627,
          "velocity": 0.8661417322834646
        },
        {
          "duration": 0.181284697265653,
          "durationTicks": 501,
          "midi": 51,
          "name": "D#3",
          "ticks": 1087488,
          "time": 461.350892,
          "velocity": 0.8661417322834646
        },
        {
          "duration": 0.18128469726559615,
          "durationTicks": 501,
          "midi": 52,
          "name": "E3",
          "ticks": 1088000,
          "time": 461.536157,
          "velocity": 0.8661417322834646
        },
        {
          "duration": 0.18128469726559615,
          "durationTicks": 501,
          "midi": 57,
          "name": "A3",
          "ticks": 1088000,
          "time": 461.536157,
          "velocity": 0.8661417322834646
        },
        {
          "duration": 0.18128469726559615,
          "durationTicks": 501,
          "midi": 59,
          "name": "B3",
          "ticks": 1088000,
          "time": 461.536157,
          "velocity": 0.8661417322834646
        },
        {
          "duration": 0.3086543847656458,
          "durationTicks": 853,
          "midi": 51,
          "name": "D#3",
          "ticks": 1088512,
          "time": 461.72142199999996,
          "velocity": 0.8661417322834646
        },
        {
          "duration": 0.3086543847656458,
          "durationTicks": 853,
          "midi": 50,
          "name": "D3",
          "ticks": 1089536,
          "time": 462.091952,
          "velocity": 0.8661417322834646
        },
        {
          "duration": 0.3086543847656458,
          "durationTicks": 853,
          "midi": 54,
          "name": "F#3",
          "ticks": 1089536,
          "time": 462.091952,
          "velocity": 0.8661417322834646
        },
        {
          "duration": 0.3086543847656458,
          "durationTicks": 853,
          "midi": 57,
          "name": "A3",
          "ticks": 1089536,
          "time": 462.091952,
          "velocity": 0.8661417322834646
        },
        {
          "duration": 0.181284697265653,
          "durationTicks": 501,
          "midi": 47,
          "name": "B2",
          "ticks": 1090560,
          "time": 462.46248199999997,
          "velocity": 0.8661417322834646
        },
        {
          "duration": 0.181284697265653,
          "durationTicks": 501,
          "midi": 50,
          "name": "D3",
          "ticks": 1090560,
          "time": 462.46248199999997,
          "velocity": 0.8661417322834646
        },
        {
          "duration": 0.181284697265653,
          "durationTicks": 501,
          "midi": 54,
          "name": "F#3",
          "ticks": 1090560,
          "time": 462.46248199999997,
          "velocity": 0.8661417322834646
        },
        {
          "duration": 0.181284697265653,
          "durationTicks": 501,
          "midi": 57,
          "name": "A3",
          "ticks": 1090560,
          "time": 462.46248199999997,
          "velocity": 0.8661417322834646
        },
        {
          "duration": 0.181284697265653,
          "durationTicks": 501,
          "midi": 49,
          "name": "C#3",
          "ticks": 1091072,
          "time": 462.647747,
          "velocity": 0.8661417322834646
        },
        {
          "duration": 0.18128469726559615,
          "durationTicks": 501,
          "midi": 50,
          "name": "D3",
          "ticks": 1091584,
          "time": 462.833012,
          "velocity": 0.8661417322834646
        },
        {
          "duration": 0.18128469726559615,
          "durationTicks": 501,
          "midi": 50,
          "name": "D3",
          "ticks": 1092096,
          "time": 463.018277,
          "velocity": 0.8661417322834646
        },
        {
          "duration": 0.18128469726559615,
          "durationTicks": 501,
          "midi": 54,
          "name": "F#3",
          "ticks": 1092096,
          "time": 463.018277,
          "velocity": 0.8661417322834646
        },
        {
          "duration": 0.18128469726559615,
          "durationTicks": 501,
          "midi": 57,
          "name": "A3",
          "ticks": 1092096,
          "time": 463.018277,
          "velocity": 0.8661417322834646
        },
        {
          "duration": 0.181284697265653,
          "durationTicks": 501,
          "midi": 45,
          "name": "A2",
          "ticks": 1092608,
          "time": 463.20354199999997,
          "velocity": 0.8661417322834646
        },
        {
          "duration": 0.181284697265653,
          "durationTicks": 501,
          "midi": 50,
          "name": "D3",
          "ticks": 1093120,
          "time": 463.388807,
          "velocity": 0.8661417322834646
        },
        {
          "duration": 0.181284697265653,
          "durationTicks": 501,
          "midi": 54,
          "name": "F#3",
          "ticks": 1093120,
          "time": 463.388807,
          "velocity": 0.8661417322834646
        },
        {
          "duration": 0.181284697265653,
          "durationTicks": 501,
          "midi": 57,
          "name": "A3",
          "ticks": 1093120,
          "time": 463.388807,
          "velocity": 0.8661417322834646
        },
        {
          "duration": 0.18128469726559615,
          "durationTicks": 501,
          "midi": 50,
          "name": "D3",
          "ticks": 1093632,
          "time": 463.574072,
          "velocity": 0.8661417322834646
        },
        {
          "duration": 0.181284697265653,
          "durationTicks": 501,
          "midi": 50,
          "name": "D3",
          "ticks": 1094144,
          "time": 463.75933699999996,
          "velocity": 0.8661417322834646
        },
        {
          "duration": 0.181284697265653,
          "durationTicks": 501,
          "midi": 54,
          "name": "F#3",
          "ticks": 1094144,
          "time": 463.75933699999996,
          "velocity": 0.8661417322834646
        },
        {
          "duration": 0.181284697265653,
          "durationTicks": 501,
          "midi": 57,
          "name": "A3",
          "ticks": 1094144,
          "time": 463.75933699999996,
          "velocity": 0.8661417322834646
        },
        {
          "duration": 0.181284697265653,
          "durationTicks": 501,
          "midi": 47,
          "name": "B2",
          "ticks": 1094656,
          "time": 463.944602,
          "velocity": 0.8661417322834646
        },
        {
          "duration": 0.18128469726559615,
          "durationTicks": 501,
          "midi": 49,
          "name": "C#3",
          "ticks": 1095168,
          "time": 464.129867,
          "velocity": 0.8661417322834646
        },
        {
          "duration": 0.18128469726559615,
          "durationTicks": 501,
          "midi": 50,
          "name": "D3",
          "ticks": 1095168,
          "time": 464.129867,
          "velocity": 0.8661417322834646
        },
        {
          "duration": 0.18128469726559615,
          "durationTicks": 501,
          "midi": 54,
          "name": "F#3",
          "ticks": 1095168,
          "time": 464.129867,
          "velocity": 0.8661417322834646
        },
        {
          "duration": 0.18128469726559615,
          "durationTicks": 501,
          "midi": 57,
          "name": "A3",
          "ticks": 1095168,
          "time": 464.129867,
          "velocity": 0.8661417322834646
        },
        {
          "duration": 0.18128469726559615,
          "durationTicks": 501,
          "midi": 50,
          "name": "D3",
          "ticks": 1095680,
          "time": 464.315132,
          "velocity": 0.8661417322834646
        },
        {
          "duration": 0.181284697265653,
          "durationTicks": 501,
          "midi": 50,
          "name": "D3",
          "ticks": 1096192,
          "time": 464.50039699999996,
          "velocity": 0.8661417322834646
        },
        {
          "duration": 0.181284697265653,
          "durationTicks": 501,
          "midi": 54,
          "name": "F#3",
          "ticks": 1096192,
          "time": 464.50039699999996,
          "velocity": 0.8661417322834646
        },
        {
          "duration": 0.181284697265653,
          "durationTicks": 501,
          "midi": 57,
          "name": "A3",
          "ticks": 1096192,
          "time": 464.50039699999996,
          "velocity": 0.8661417322834646
        },
        {
          "duration": 0.181284697265653,
          "durationTicks": 501,
          "midi": 52,
          "name": "E3",
          "ticks": 1096704,
          "time": 464.685662,
          "velocity": 0.8661417322834646
        },
        {
          "duration": 0.18128469726559615,
          "durationTicks": 501,
          "midi": 54,
          "name": "F#3",
          "ticks": 1097216,
          "time": 464.870927,
          "velocity": 0.8661417322834646
        },
        {
          "duration": 0.2739171972655754,
          "durationTicks": 757,
          "midi": 50,
          "name": "D3",
          "ticks": 1097728,
          "time": 465.056192,
          "velocity": 0.8661417322834646
        },
        {
          "duration": 0.2739171972655754,
          "durationTicks": 757,
          "midi": 55,
          "name": "G3",
          "ticks": 1097728,
          "time": 465.056192,
          "velocity": 0.8661417322834646
        },
        {
          "duration": 0.2739171972655754,
          "durationTicks": 757,
          "midi": 59,
          "name": "B3",
          "ticks": 1097728,
          "time": 465.056192,
          "velocity": 0.8661417322834646
        },
        {
          "duration": 0.0886521972656169,
          "durationTicks": 245,
          "midi": 50,
          "name": "D3",
          "ticks": 1098496,
          "time": 465.3340895,
          "velocity": 0.8661417322834646
        },
        {
          "duration": 0.0886521972656169,
          "durationTicks": 245,
          "midi": 55,
          "name": "G3",
          "ticks": 1098496,
          "time": 465.3340895,
          "velocity": 0.8661417322834646
        },
        {
          "duration": 0.0886521972656169,
          "durationTicks": 245,
          "midi": 59,
          "name": "B3",
          "ticks": 1098496,
          "time": 465.3340895,
          "velocity": 0.8661417322834646
        },
        {
          "duration": 0.181284697265653,
          "durationTicks": 501,
          "midi": 55,
          "name": "G3",
          "ticks": 1098752,
          "time": 465.426722,
          "velocity": 0.8661417322834646
        },
        {
          "duration": 0.18128469726559615,
          "durationTicks": 501,
          "midi": 50,
          "name": "D3",
          "ticks": 1099264,
          "time": 465.611987,
          "velocity": 0.8661417322834646
        },
        {
          "duration": 0.18128469726559615,
          "durationTicks": 501,
          "midi": 55,
          "name": "G3",
          "ticks": 1099264,
          "time": 465.611987,
          "velocity": 0.8661417322834646
        },
        {
          "duration": 0.18128469726559615,
          "durationTicks": 501,
          "midi": 59,
          "name": "B3",
          "ticks": 1099264,
          "time": 465.611987,
          "velocity": 0.8661417322834646
        },
        {
          "duration": 0.3086543847656458,
          "durationTicks": 853,
          "midi": 50,
          "name": "D3",
          "ticks": 1099776,
          "time": 465.79725199999996,
          "velocity": 0.8661417322834646
        },
        {
          "duration": 0.3086543847656458,
          "durationTicks": 853,
          "midi": 55,
          "name": "G3",
          "ticks": 1099776,
          "time": 465.79725199999996,
          "velocity": 0.8661417322834646
        },
        {
          "duration": 0.3086543847656458,
          "durationTicks": 853,
          "midi": 59,
          "name": "B3",
          "ticks": 1099776,
          "time": 465.79725199999996,
          "velocity": 0.8661417322834646
        },
        {
          "duration": 0.3086543847656458,
          "durationTicks": 853,
          "midi": 55,
          "name": "G3",
          "ticks": 1100800,
          "time": 466.167782,
          "velocity": 0.8661417322834646
        },
        {
          "duration": 0.27391719726563224,
          "durationTicks": 757,
          "midi": 50,
          "name": "D3",
          "ticks": 1101824,
          "time": 466.53831199999996,
          "velocity": 0.8661417322834646
        },
        {
          "duration": 0.27391719726563224,
          "durationTicks": 757,
          "midi": 54,
          "name": "F#3",
          "ticks": 1101824,
          "time": 466.53831199999996,
          "velocity": 0.8661417322834646
        },
        {
          "duration": 0.27391719726563224,
          "durationTicks": 757,
          "midi": 57,
          "name": "A3",
          "ticks": 1101824,
          "time": 466.53831199999996,
          "velocity": 0.8661417322834646
        },
        {
          "duration": 0.0886521972656169,
          "durationTicks": 245,
          "midi": 50,
          "name": "D3",
          "ticks": 1102592,
          "time": 466.8162095,
          "velocity": 0.8661417322834646
        },
        {
          "duration": 0.0886521972656169,
          "durationTicks": 245,
          "midi": 54,
          "name": "F#3",
          "ticks": 1102592,
          "time": 466.8162095,
          "velocity": 0.8661417322834646
        },
        {
          "duration": 0.0886521972656169,
          "durationTicks": 245,
          "midi": 57,
          "name": "A3",
          "ticks": 1102592,
          "time": 466.8162095,
          "velocity": 0.8661417322834646
        },
        {
          "duration": 0.18128469726559615,
          "durationTicks": 501,
          "midi": 54,
          "name": "F#3",
          "ticks": 1102848,
          "time": 466.908842,
          "velocity": 0.8661417322834646
        },
        {
          "duration": 0.18128469726559615,
          "durationTicks": 501,
          "midi": 50,
          "name": "D3",
          "ticks": 1103360,
          "time": 467.094107,
          "velocity": 0.8661417322834646
        },
        {
          "duration": 0.18128469726559615,
          "durationTicks": 501,
          "midi": 54,
          "name": "F#3",
          "ticks": 1103360,
          "time": 467.094107,
          "velocity": 0.8661417322834646
        },
        {
          "duration": 0.18128469726559615,
          "durationTicks": 501,
          "midi": 57,
          "name": "A3",
          "ticks": 1103360,
          "time": 467.094107,
          "velocity": 0.8661417322834646
        },
        {
          "duration": 0.181284697265653,
          "durationTicks": 501,
          "midi": 53,
          "name": "F3",
          "ticks": 1103872,
          "time": 467.27937199999997,
          "velocity": 0.8661417322834646
        },
        {
          "duration": 0.181284697265653,
          "durationTicks": 501,
          "midi": 50,
          "name": "D3",
          "ticks": 1104384,
          "time": 467.464637,
          "velocity": 0.8661417322834646
        },
        {
          "duration": 0.181284697265653,
          "durationTicks": 501,
          "midi": 53,
          "name": "F3",
          "ticks": 1104384,
          "time": 467.464637,
          "velocity": 0.8661417322834646
        },
        {
          "duration": 0.181284697265653,
          "durationTicks": 501,
          "midi": 56,
          "name": "G#3",
          "ticks": 1104384,
          "time": 467.464637,
          "velocity": 0.8661417322834646
        },
        {
          "duration": 0.0886521972656169,
          "durationTicks": 245,
          "midi": 53,
          "name": "F3",
          "ticks": 1104896,
          "time": 467.649902,
          "velocity": 0.8661417322834646
        },
        {
          "duration": 0.27391719726563224,
          "durationTicks": 757,
          "midi": 50,
          "name": "D3",
          "ticks": 1105152,
          "time": 467.7425345,
          "velocity": 0.8661417322834646
        },
        {
          "duration": 0.27391719726563224,
          "durationTicks": 757,
          "midi": 53,
          "name": "F3",
          "ticks": 1105152,
          "time": 467.7425345,
          "velocity": 0.8661417322834646
        },
        {
          "duration": 0.27391719726563224,
          "durationTicks": 757,
          "midi": 56,
          "name": "G#3",
          "ticks": 1105152,
          "time": 467.7425345,
          "velocity": 0.8661417322834646
        },
        {
          "duration": 0.27391719726563224,
          "durationTicks": 757,
          "midi": 52,
          "name": "E3",
          "ticks": 1105920,
          "time": 468.02043199999997,
          "velocity": 0.8661417322834646
        },
        {
          "duration": 0.0886521972656169,
          "durationTicks": 245,
          "midi": 45,
          "name": "A2",
          "ticks": 1106688,
          "time": 468.29832949999997,
          "velocity": 0.8661417322834646
        },
        {
          "duration": 0.0886521972656169,
          "durationTicks": 245,
          "midi": 49,
          "name": "C#3",
          "ticks": 1106688,
          "time": 468.29832949999997,
          "velocity": 0.8661417322834646
        },
        {
          "duration": 0.0886521972656169,
          "durationTicks": 245,
          "midi": 55,
          "name": "G3",
          "ticks": 1106688,
          "time": 468.29832949999997,
          "velocity": 0.8661417322834646
        },
        {
          "duration": 0.18128469726559615,
          "durationTicks": 501,
          "midi": 52,
          "name": "E3",
          "ticks": 1106944,
          "time": 468.390962,
          "velocity": 0.8661417322834646
        },
        {
          "duration": 0.181284697265653,
          "durationTicks": 501,
          "midi": 45,
          "name": "A2",
          "ticks": 1107456,
          "time": 468.57622699999996,
          "velocity": 0.8661417322834646
        },
        {
          "duration": 0.181284697265653,
          "durationTicks": 501,
          "midi": 49,
          "name": "C#3",
          "ticks": 1107456,
          "time": 468.57622699999996,
          "velocity": 0.8661417322834646
        },
        {
          "duration": 0.181284697265653,
          "durationTicks": 501,
          "midi": 55,
          "name": "G3",
          "ticks": 1107456,
          "time": 468.57622699999996,
          "velocity": 0.8661417322834646
        },
        {
          "duration": 0.3086543847656458,
          "durationTicks": 853,
          "midi": 45,
          "name": "A2",
          "ticks": 1107968,
          "time": 468.761492,
          "velocity": 0.8661417322834646
        },
        {
          "duration": 0.3086543847656458,
          "durationTicks": 853,
          "midi": 49,
          "name": "C#3",
          "ticks": 1107968,
          "time": 468.761492,
          "velocity": 0.8661417322834646
        },
        {
          "duration": 0.3086543847656458,
          "durationTicks": 853,
          "midi": 51,
          "name": "D#3",
          "ticks": 1107968,
          "time": 468.761492,
          "velocity": 0.8661417322834646
        },
        {
          "duration": 0.3086543847656458,
          "durationTicks": 853,
          "midi": 54,
          "name": "F#3",
          "ticks": 1107968,
          "time": 468.761492,
          "velocity": 0.8661417322834646
        },
        {
          "duration": 0.30865438476558893,
          "durationTicks": 853,
          "midi": 51,
          "name": "D#3",
          "ticks": 1108992,
          "time": 469.132022,
          "velocity": 0.8661417322834646
        },
        {
          "duration": 0.181284697265653,
          "durationTicks": 501,
          "midi": 50,
          "name": "D3",
          "ticks": 1110016,
          "time": 469.502552,
          "velocity": 0.8661417322834646
        },
        {
          "duration": 0.18128469726559615,
          "durationTicks": 501,
          "midi": 45,
          "name": "A2",
          "ticks": 1110528,
          "time": 469.687817,
          "velocity": 0.8661417322834646
        },
        {
          "duration": 0.18128469726559615,
          "durationTicks": 501,
          "midi": 50,
          "name": "D3",
          "ticks": 1110528,
          "time": 469.687817,
          "velocity": 0.8661417322834646
        },
        {
          "duration": 0.18128469726559615,
          "durationTicks": 501,
          "midi": 54,
          "name": "F#3",
          "ticks": 1110528,
          "time": 469.687817,
          "velocity": 0.8661417322834646
        },
        {
          "duration": 0.181284697265653,
          "durationTicks": 501,
          "midi": 45,
          "name": "A2",
          "ticks": 1111040,
          "time": 469.87308199999995,
          "velocity": 0.8661417322834646
        },
        {
          "duration": 0.181284697265653,
          "durationTicks": 501,
          "midi": 45,
          "name": "A2",
          "ticks": 1111552,
          "time": 470.05834699999997,
          "velocity": 0.8661417322834646
        },
        {
          "duration": 0.181284697265653,
          "durationTicks": 501,
          "midi": 50,
          "name": "D3",
          "ticks": 1111552,
          "time": 470.05834699999997,
          "velocity": 0.8661417322834646
        },
        {
          "duration": 0.181284697265653,
          "durationTicks": 501,
          "midi": 54,
          "name": "F#3",
          "ticks": 1111552,
          "time": 470.05834699999997,
          "velocity": 0.8661417322834646
        },
        {
          "duration": 0.18128469726559615,
          "durationTicks": 501,
          "midi": 50,
          "name": "D3",
          "ticks": 1112064,
          "time": 470.243612,
          "velocity": 0.8661417322834646
        },
        {
          "duration": 0.18128469726559615,
          "durationTicks": 501,
          "midi": 45,
          "name": "A2",
          "ticks": 1112576,
          "time": 470.428877,
          "velocity": 0.8661417322834646
        },
        {
          "duration": 0.18128469726559615,
          "durationTicks": 501,
          "midi": 50,
          "name": "D3",
          "ticks": 1112576,
          "time": 470.428877,
          "velocity": 0.8661417322834646
        },
        {
          "duration": 0.18128469726559615,
          "durationTicks": 501,
          "midi": 54,
          "name": "F#3",
          "ticks": 1112576,
          "time": 470.428877,
          "velocity": 0.8661417322834646
        },
        {
          "duration": 0.18128469726559615,
          "durationTicks": 501,
          "midi": 52,
          "name": "E3",
          "ticks": 1113088,
          "time": 470.614142,
          "velocity": 0.8661417322834646
        },
        {
          "duration": 0.181284697265653,
          "durationTicks": 501,
          "midi": 45,
          "name": "A2",
          "ticks": 1113600,
          "time": 470.799407,
          "velocity": 0.8661417322834646
        },
        {
          "duration": 0.181284697265653,
          "durationTicks": 501,
          "midi": 50,
          "name": "D3",
          "ticks": 1113600,
          "time": 470.799407,
          "velocity": 0.8661417322834646
        },
        {
          "duration": 0.181284697265653,
          "durationTicks": 501,
          "midi": 54,
          "name": "F#3",
          "ticks": 1113600,
          "time": 470.799407,
          "velocity": 0.8661417322834646
        },
        {
          "duration": 0.30865438476558893,
          "durationTicks": 853,
          "midi": 43,
          "name": "G2",
          "ticks": 1114112,
          "time": 470.984672,
          "velocity": 0.8661417322834646
        },
        {
          "duration": 0.30865438476558893,
          "durationTicks": 853,
          "midi": 47,
          "name": "B2",
          "ticks": 1114112,
          "time": 470.984672,
          "velocity": 0.8661417322834646
        },
        {
          "duration": 0.30865438476558893,
          "durationTicks": 853,
          "midi": 50,
          "name": "D3",
          "ticks": 1114112,
          "time": 470.984672,
          "velocity": 0.8661417322834646
        },
        {
          "duration": 0.30865438476558893,
          "durationTicks": 853,
          "midi": 55,
          "name": "G3",
          "ticks": 1114112,
          "time": 470.984672,
          "velocity": 0.8661417322834646
        },
        {
          "duration": 0.3086543847656458,
          "durationTicks": 853,
          "midi": 55,
          "name": "G3",
          "ticks": 1115136,
          "time": 471.35520199999996,
          "velocity": 0.8661417322834646
        },
        {
          "duration": 0.3086543847656458,
          "durationTicks": 853,
          "midi": 43,
          "name": "G2",
          "ticks": 1116160,
          "time": 471.725732,
          "velocity": 0.8661417322834646
        },
        {
          "duration": 0.3086543847656458,
          "durationTicks": 853,
          "midi": 46,
          "name": "A#2",
          "ticks": 1116160,
          "time": 471.725732,
          "velocity": 0.8661417322834646
        },
        {
          "duration": 0.3086543847656458,
          "durationTicks": 853,
          "midi": 49,
          "name": "C#3",
          "ticks": 1116160,
          "time": 471.725732,
          "velocity": 0.8661417322834646
        },
        {
          "duration": 0.3086543847656458,
          "durationTicks": 853,
          "midi": 55,
          "name": "G3",
          "ticks": 1116160,
          "time": 471.725732,
          "velocity": 0.8661417322834646
        },
        {
          "duration": 0.3086543847656458,
          "durationTicks": 853,
          "midi": 43,
          "name": "G2",
          "ticks": 1117184,
          "time": 472.09626199999997,
          "velocity": 0.8661417322834646
        },
        {
          "duration": 0.3086543847656458,
          "durationTicks": 853,
          "midi": 46,
          "name": "A#2",
          "ticks": 1117184,
          "time": 472.09626199999997,
          "velocity": 0.8661417322834646
        },
        {
          "duration": 0.3086543847656458,
          "durationTicks": 853,
          "midi": 49,
          "name": "C#3",
          "ticks": 1117184,
          "time": 472.09626199999997,
          "velocity": 0.8661417322834646
        },
        {
          "duration": 0.3086543847656458,
          "durationTicks": 853,
          "midi": 55,
          "name": "G3",
          "ticks": 1117184,
          "time": 472.09626199999997,
          "velocity": 0.8661417322834646
        },
        {
          "duration": 0.18128469726559615,
          "durationTicks": 501,
          "midi": 54,
          "name": "F#3",
          "ticks": 1118208,
          "time": 472.466792,
          "velocity": 0.8661417322834646
        },
        {
          "duration": 0.18128469726559615,
          "durationTicks": 501,
          "midi": 42,
          "name": "F#2",
          "ticks": 1118720,
          "time": 472.652057,
          "velocity": 0.8661417322834646
        },
        {
          "duration": 0.18128469726559615,
          "durationTicks": 501,
          "midi": 45,
          "name": "A2",
          "ticks": 1118720,
          "time": 472.652057,
          "velocity": 0.8661417322834646
        },
        {
          "duration": 0.18128469726559615,
          "durationTicks": 501,
          "midi": 50,
          "name": "D3",
          "ticks": 1118720,
          "time": 472.652057,
          "velocity": 0.8661417322834646
        },
        {
          "duration": 0.181284697265653,
          "durationTicks": 501,
          "midi": 49,
          "name": "C#3",
          "ticks": 1119232,
          "time": 472.837322,
          "velocity": 0.8661417322834646
        },
        {
          "duration": 0.181284697265653,
          "durationTicks": 501,
          "midi": 51,
          "name": "D#3",
          "ticks": 1119744,
          "time": 473.022587,
          "velocity": 0.8661417322834646
        },
        {
          "duration": 0.30865438476558893,
          "durationTicks": 853,
          "midi": 42,
          "name": "F#2",
          "ticks": 1120256,
          "time": 473.207852,
          "velocity": 0.8661417322834646
        },
        {
          "duration": 0.30865438476558893,
          "durationTicks": 853,
          "midi": 45,
          "name": "A2",
          "ticks": 1120256,
          "time": 473.207852,
          "velocity": 0.8661417322834646
        },
        {
          "duration": 0.30865438476558893,
          "durationTicks": 853,
          "midi": 50,
          "name": "D3",
          "ticks": 1120256,
          "time": 473.207852,
          "velocity": 0.8661417322834646
        },
        {
          "duration": 0.30865438476558893,
          "durationTicks": 853,
          "midi": 54,
          "name": "F#3",
          "ticks": 1120256,
          "time": 473.207852,
          "velocity": 0.8661417322834646
        },
        {
          "duration": 0.3086543847656458,
          "durationTicks": 853,
          "midi": 42,
          "name": "F#2",
          "ticks": 1121280,
          "time": 473.578382,
          "velocity": 0.8661417322834646
        },
        {
          "duration": 0.3086543847656458,
          "durationTicks": 853,
          "midi": 45,
          "name": "A2",
          "ticks": 1121280,
          "time": 473.578382,
          "velocity": 0.8661417322834646
        },
        {
          "duration": 0.3086543847656458,
          "durationTicks": 853,
          "midi": 50,
          "name": "D3",
          "ticks": 1121280,
          "time": 473.578382,
          "velocity": 0.8661417322834646
        },
        {
          "duration": 0.3086543847656458,
          "durationTicks": 853,
          "midi": 54,
          "name": "F#3",
          "ticks": 1121280,
          "time": 473.578382,
          "velocity": 0.8661417322834646
        },
        {
          "duration": 0.18128469726559615,
          "durationTicks": 501,
          "midi": 52,
          "name": "E3",
          "ticks": 1122304,
          "time": 473.948912,
          "velocity": 0.8661417322834646
        },
        {
          "duration": 0.181284697265653,
          "durationTicks": 501,
          "midi": 43,
          "name": "G2",
          "ticks": 1122816,
          "time": 474.13417699999997,
          "velocity": 0.8661417322834646
        },
        {
          "duration": 0.181284697265653,
          "durationTicks": 501,
          "midi": 47,
          "name": "B2",
          "ticks": 1122816,
          "time": 474.13417699999997,
          "velocity": 0.8661417322834646
        },
        {
          "duration": 0.181284697265653,
          "durationTicks": 501,
          "midi": 50,
          "name": "D3",
          "ticks": 1122816,
          "time": 474.13417699999997,
          "velocity": 0.8661417322834646
        },
        {
          "duration": 0.18128469726559615,
          "durationTicks": 501,
          "midi": 52,
          "name": "E3",
          "ticks": 1123328,
          "time": 474.319442,
          "velocity": 0.8661417322834646
        },
        {
          "duration": 0.18128469726559615,
          "durationTicks": 501,
          "midi": 43,
          "name": "G2",
          "ticks": 1123840,
          "time": 474.504707,
          "velocity": 0.8661417322834646
        },
        {
          "duration": 0.18128469726559615,
          "durationTicks": 501,
          "midi": 47,
          "name": "B2",
          "ticks": 1123840,
          "time": 474.504707,
          "velocity": 0.8661417322834646
        },
        {
          "duration": 0.18128469726559615,
          "durationTicks": 501,
          "midi": 50,
          "name": "D3",
          "ticks": 1123840,
          "time": 474.504707,
          "velocity": 0.8661417322834646
        },
        {
          "duration": 0.18128469726559615,
          "durationTicks": 501,
          "midi": 50,
          "name": "D3",
          "ticks": 1124352,
          "time": 474.689972,
          "velocity": 0.8661417322834646
        },
        {
          "duration": 0.181284697265653,
          "durationTicks": 501,
          "midi": 43,
          "name": "G2",
          "ticks": 1124864,
          "time": 474.87523699999997,
          "velocity": 0.8661417322834646
        },
        {
          "duration": 0.181284697265653,
          "durationTicks": 501,
          "midi": 47,
          "name": "B2",
          "ticks": 1124864,
          "time": 474.87523699999997,
          "velocity": 0.8661417322834646
        },
        {
          "duration": 0.181284697265653,
          "durationTicks": 501,
          "midi": 50,
          "name": "D3",
          "ticks": 1124864,
          "time": 474.87523699999997,
          "velocity": 0.8661417322834646
        },
        {
          "duration": 0.181284697265653,
          "durationTicks": 501,
          "midi": 50,
          "name": "D3",
          "ticks": 1125376,
          "time": 475.060502,
          "velocity": 0.8661417322834646
        },
        {
          "duration": 0.18128469726559615,
          "durationTicks": 501,
          "midi": 43,
          "name": "G2",
          "ticks": 1125888,
          "time": 475.245767,
          "velocity": 0.8661417322834646
        },
        {
          "duration": 0.18128469726559615,
          "durationTicks": 501,
          "midi": 46,
          "name": "A#2",
          "ticks": 1125888,
          "time": 475.245767,
          "velocity": 0.8661417322834646
        },
        {
          "duration": 0.18128469726559615,
          "durationTicks": 501,
          "midi": 50,
          "name": "D3",
          "ticks": 1125888,
          "time": 475.245767,
          "velocity": 0.8661417322834646
        },
        {
          "duration": 0.3086543847656458,
          "durationTicks": 853,
          "midi": 42,
          "name": "F#2",
          "ticks": 1126400,
          "time": 475.43103199999996,
          "velocity": 0.8661417322834646
        },
        {
          "duration": 0.3086543847656458,
          "durationTicks": 853,
          "midi": 45,
          "name": "A2",
          "ticks": 1126400,
          "time": 475.43103199999996,
          "velocity": 0.8661417322834646
        },
        {
          "duration": 0.3086543847656458,
          "durationTicks": 853,
          "midi": 50,
          "name": "D3",
          "ticks": 1126400,
          "time": 475.43103199999996,
          "velocity": 0.8661417322834646
        },
        {
          "duration": 0.3086543847656458,
          "durationTicks": 853,
          "midi": 45,
          "name": "A2",
          "ticks": 1127424,
          "time": 475.801562,
          "velocity": 0.8661417322834646
        },
        {
          "duration": 0.181284697265653,
          "durationTicks": 501,
          "midi": 50,
          "name": "D3",
          "ticks": 1128448,
          "time": 476.17209199999996,
          "velocity": 0.8661417322834646
        },
        {
          "duration": 0.181284697265653,
          "durationTicks": 501,
          "midi": 42,
          "name": "F#2",
          "ticks": 1128960,
          "time": 476.357357,
          "velocity": 0.8661417322834646
        },
        {
          "duration": 0.181284697265653,
          "durationTicks": 501,
          "midi": 45,
          "name": "A2",
          "ticks": 1128960,
          "time": 476.357357,
          "velocity": 0.8661417322834646
        },
        {
          "duration": 0.181284697265653,
          "durationTicks": 501,
          "midi": 50,
          "name": "D3",
          "ticks": 1128960,
          "time": 476.357357,
          "velocity": 0.8661417322834646
        },
        {
          "duration": 0.0886521972656169,
          "durationTicks": 245,
          "midi": 45,
          "name": "A2",
          "ticks": 1129472,
          "time": 476.542622,
          "velocity": 0.8661417322834646
        },
        {
          "duration": 0.27391719726563224,
          "durationTicks": 757,
          "midi": 42,
          "name": "F#2",
          "ticks": 1129728,
          "time": 476.6352545,
          "velocity": 0.8661417322834646
        },
        {
          "duration": 0.27391719726563224,
          "durationTicks": 757,
          "midi": 45,
          "name": "A2",
          "ticks": 1129728,
          "time": 476.6352545,
          "velocity": 0.8661417322834646
        },
        {
          "duration": 0.27391719726563224,
          "durationTicks": 757,
          "midi": 50,
          "name": "D3",
          "ticks": 1129728,
          "time": 476.6352545,
          "velocity": 0.8661417322834646
        },
        {
          "duration": 0.181284697265653,
          "durationTicks": 501,
          "midi": 50,
          "name": "D3",
          "ticks": 1130496,
          "time": 476.91315199999997,
          "velocity": 0.8661417322834646
        },
        {
          "duration": 0.181284697265653,
          "durationTicks": 501,
          "midi": 45,
          "name": "A2",
          "ticks": 1131008,
          "time": 477.098417,
          "velocity": 0.8661417322834646
        },
        {
          "duration": 0.181284697265653,
          "durationTicks": 501,
          "midi": 50,
          "name": "D3",
          "ticks": 1131008,
          "time": 477.098417,
          "velocity": 0.8661417322834646
        },
        {
          "duration": 0.181284697265653,
          "durationTicks": 501,
          "midi": 54,
          "name": "F#3",
          "ticks": 1131008,
          "time": 477.098417,
          "velocity": 0.8661417322834646
        },
        {
          "duration": 0.18128469726559615,
          "durationTicks": 501,
          "midi": 49,
          "name": "C#3",
          "ticks": 1131520,
          "time": 477.283682,
          "velocity": 0.8661417322834646
        },
        {
          "duration": 0.181284697265653,
          "durationTicks": 501,
          "midi": 45,
          "name": "A2",
          "ticks": 1132032,
          "time": 477.46894699999996,
          "velocity": 0.8661417322834646
        },
        {
          "duration": 0.181284697265653,
          "durationTicks": 501,
          "midi": 50,
          "name": "D3",
          "ticks": 1132032,
          "time": 477.46894699999996,
          "velocity": 0.8661417322834646
        },
        {
          "duration": 0.181284697265653,
          "durationTicks": 501,
          "midi": 54,
          "name": "F#3",
          "ticks": 1132032,
          "time": 477.46894699999996,
          "velocity": 0.8661417322834646
        },
        {
          "duration": 0.181284697265653,
          "durationTicks": 501,
          "midi": 47,
          "name": "B2",
          "ticks": 1132544,
          "time": 477.654212,
          "velocity": 0.8661417322834646
        },
        {
          "duration": 0.18128469726559615,
          "durationTicks": 501,
          "midi": 45,
          "name": "A2",
          "ticks": 1133056,
          "time": 477.839477,
          "velocity": 0.8661417322834646
        },
        {
          "duration": 0.18128469726559615,
          "durationTicks": 501,
          "midi": 50,
          "name": "D3",
          "ticks": 1133056,
          "time": 477.839477,
          "velocity": 0.8661417322834646
        },
        {
          "duration": 0.18128469726559615,
          "durationTicks": 501,
          "midi": 54,
          "name": "F#3",
          "ticks": 1133056,
          "time": 477.839477,
          "velocity": 0.8661417322834646
        },
        {
          "duration": 0.18128469726559615,
          "durationTicks": 501,
          "midi": 45,
          "name": "A2",
          "ticks": 1133568,
          "time": 478.024742,
          "velocity": 0.8661417322834646
        },
        {
          "duration": 0.181284697265653,
          "durationTicks": 501,
          "midi": 45,
          "name": "A2",
          "ticks": 1134080,
          "time": 478.21000699999996,
          "velocity": 0.8661417322834646
        },
        {
          "duration": 0.181284697265653,
          "durationTicks": 501,
          "midi": 50,
          "name": "D3",
          "ticks": 1134080,
          "time": 478.21000699999996,
          "velocity": 0.8661417322834646
        },
        {
          "duration": 0.181284697265653,
          "durationTicks": 501,
          "midi": 54,
          "name": "F#3",
          "ticks": 1134080,
          "time": 478.21000699999996,
          "velocity": 0.8661417322834646
        },
        {
          "duration": 0.181284697265653,
          "durationTicks": 501,
          "midi": 50,
          "name": "D3",
          "ticks": 1134592,
          "time": 478.395272,
          "velocity": 0.8661417322834646
        },
        {
          "duration": 0.18128469726559615,
          "durationTicks": 501,
          "midi": 45,
          "name": "A2",
          "ticks": 1135104,
          "time": 478.580537,
          "velocity": 0.8661417322834646
        },
        {
          "duration": 0.18128469726559615,
          "durationTicks": 501,
          "midi": 50,
          "name": "D3",
          "ticks": 1135104,
          "time": 478.580537,
          "velocity": 0.8661417322834646
        },
        {
          "duration": 0.18128469726559615,
          "durationTicks": 501,
          "midi": 54,
          "name": "F#3",
          "ticks": 1135104,
          "time": 478.580537,
          "velocity": 0.8661417322834646
        },
        {
          "duration": 0.18128469726559615,
          "durationTicks": 501,
          "midi": 45,
          "name": "A2",
          "ticks": 1135616,
          "time": 478.765802,
          "velocity": 0.8661417322834646
        },
        {
          "duration": 0.181284697265653,
          "durationTicks": 501,
          "midi": 45,
          "name": "A2",
          "ticks": 1136128,
          "time": 478.95106699999997,
          "velocity": 0.8661417322834646
        },
        {
          "duration": 0.181284697265653,
          "durationTicks": 501,
          "midi": 50,
          "name": "D3",
          "ticks": 1136128,
          "time": 478.95106699999997,
          "velocity": 0.8661417322834646
        },
        {
          "duration": 0.181284697265653,
          "durationTicks": 501,
          "midi": 54,
          "name": "F#3",
          "ticks": 1136128,
          "time": 478.95106699999997,
          "velocity": 0.8661417322834646
        },
        {
          "duration": 0.181284697265653,
          "durationTicks": 501,
          "midi": 50,
          "name": "D3",
          "ticks": 1136640,
          "time": 479.136332,
          "velocity": 0.8661417322834646
        },
        {
          "duration": 0.18128469726559615,
          "durationTicks": 501,
          "midi": 45,
          "name": "A2",
          "ticks": 1137152,
          "time": 479.321597,
          "velocity": 0.8661417322834646
        },
        {
          "duration": 0.18128469726559615,
          "durationTicks": 501,
          "midi": 50,
          "name": "D3",
          "ticks": 1137152,
          "time": 479.321597,
          "velocity": 0.8661417322834646
        },
        {
          "duration": 0.18128469726559615,
          "durationTicks": 501,
          "midi": 54,
          "name": "F#3",
          "ticks": 1137152,
          "time": 479.321597,
          "velocity": 0.8661417322834646
        },
        {
          "duration": 0.181284697265653,
          "durationTicks": 501,
          "midi": 52,
          "name": "E3",
          "ticks": 1137664,
          "time": 479.50686199999996,
          "velocity": 0.8661417322834646
        },
        {
          "duration": 0.181284697265653,
          "durationTicks": 501,
          "midi": 45,
          "name": "A2",
          "ticks": 1138176,
          "time": 479.69212699999997,
          "velocity": 0.8661417322834646
        },
        {
          "duration": 0.181284697265653,
          "durationTicks": 501,
          "midi": 50,
          "name": "D3",
          "ticks": 1138176,
          "time": 479.69212699999997,
          "velocity": 0.8661417322834646
        },
        {
          "duration": 0.181284697265653,
          "durationTicks": 501,
          "midi": 54,
          "name": "F#3",
          "ticks": 1138176,
          "time": 479.69212699999997,
          "velocity": 0.8661417322834646
        },
        {
          "duration": 0.3086543847656458,
          "durationTicks": 853,
          "midi": 47,
          "name": "B2",
          "ticks": 1138688,
          "time": 479.877392,
          "velocity": 0.8661417322834646
        },
        {
          "duration": 0.3086543847656458,
          "durationTicks": 853,
          "midi": 50,
          "name": "D3",
          "ticks": 1138688,
          "time": 479.877392,
          "velocity": 0.8661417322834646
        },
        {
          "duration": 0.3086543847656458,
          "durationTicks": 853,
          "midi": 55,
          "name": "G3",
          "ticks": 1138688,
          "time": 479.877392,
          "velocity": 0.8661417322834646
        },
        {
          "duration": 0.18128469726559615,
          "durationTicks": 501,
          "midi": 54,
          "name": "F#3",
          "ticks": 1139712,
          "time": 480.247922,
          "velocity": 0.8661417322834646
        },
        {
          "duration": 0.181284697265653,
          "durationTicks": 501,
          "midi": 47,
          "name": "B2",
          "ticks": 1140224,
          "time": 480.433187,
          "velocity": 0.8661417322834646
        },
        {
          "duration": 0.181284697265653,
          "durationTicks": 501,
          "midi": 50,
          "name": "D3",
          "ticks": 1140224,
          "time": 480.433187,
          "velocity": 0.8661417322834646
        },
        {
          "duration": 0.181284697265653,
          "durationTicks": 501,
          "midi": 55,
          "name": "G3",
          "ticks": 1140224,
          "time": 480.433187,
          "velocity": 0.8661417322834646
        },
        {
          "duration": 0.181284697265653,
          "durationTicks": 501,
          "midi": 52,
          "name": "E3",
          "ticks": 1140736,
          "time": 480.618452,
          "velocity": 0.8661417322834646
        },
        {
          "duration": 0.18128469726559615,
          "durationTicks": 501,
          "midi": 47,
          "name": "B2",
          "ticks": 1141248,
          "time": 480.803717,
          "velocity": 0.8661417322834646
        },
        {
          "duration": 0.18128469726559615,
          "durationTicks": 501,
          "midi": 50,
          "name": "D3",
          "ticks": 1141248,
          "time": 480.803717,
          "velocity": 0.8661417322834646
        },
        {
          "duration": 0.18128469726559615,
          "durationTicks": 501,
          "midi": 55,
          "name": "G3",
          "ticks": 1141248,
          "time": 480.803717,
          "velocity": 0.8661417322834646
        },
        {
          "duration": 0.181284697265653,
          "durationTicks": 501,
          "midi": 50,
          "name": "D3",
          "ticks": 1141760,
          "time": 480.98898199999996,
          "velocity": 0.8661417322834646
        },
        {
          "duration": 0.181284697265653,
          "durationTicks": 501,
          "midi": 47,
          "name": "B2",
          "ticks": 1142272,
          "time": 481.174247,
          "velocity": 0.8661417322834646
        },
        {
          "duration": 0.181284697265653,
          "durationTicks": 501,
          "midi": 50,
          "name": "D3",
          "ticks": 1142272,
          "time": 481.174247,
          "velocity": 0.8661417322834646
        },
        {
          "duration": 0.181284697265653,
          "durationTicks": 501,
          "midi": 55,
          "name": "G3",
          "ticks": 1142272,
          "time": 481.174247,
          "velocity": 0.8661417322834646
        },
        {
          "duration": 0.18128469726559615,
          "durationTicks": 501,
          "midi": 55,
          "name": "G3",
          "ticks": 1142784,
          "time": 481.359512,
          "velocity": 0.8661417322834646
        },
        {
          "duration": 0.181284697265653,
          "durationTicks": 501,
          "midi": 47,
          "name": "B2",
          "ticks": 1143296,
          "time": 481.54477699999995,
          "velocity": 0.8661417322834646
        },
        {
          "duration": 0.181284697265653,
          "durationTicks": 501,
          "midi": 50,
          "name": "D3",
          "ticks": 1143296,
          "time": 481.54477699999995,
          "velocity": 0.8661417322834646
        },
        {
          "duration": 0.181284697265653,
          "durationTicks": 501,
          "midi": 55,
          "name": "G3",
          "ticks": 1143296,
          "time": 481.54477699999995,
          "velocity": 0.8661417322834646
        },
        {
          "duration": 0.181284697265653,
          "durationTicks": 501,
          "midi": 50,
          "name": "D3",
          "ticks": 1143808,
          "time": 481.73004199999997,
          "velocity": 0.8661417322834646
        },
        {
          "duration": 0.18128469726559615,
          "durationTicks": 501,
          "midi": 47,
          "name": "B2",
          "ticks": 1144320,
          "time": 481.915307,
          "velocity": 0.8661417322834646
        },
        {
          "duration": 0.18128469726559615,
          "durationTicks": 501,
          "midi": 50,
          "name": "D3",
          "ticks": 1144320,
          "time": 481.915307,
          "velocity": 0.8661417322834646
        },
        {
          "duration": 0.18128469726559615,
          "durationTicks": 501,
          "midi": 55,
          "name": "G3",
          "ticks": 1144320,
          "time": 481.915307,
          "velocity": 0.8661417322834646
        },
        {
          "duration": 0.18128469726559615,
          "durationTicks": 501,
          "midi": 55,
          "name": "G3",
          "ticks": 1144832,
          "time": 482.100572,
          "velocity": 0.8661417322834646
        },
        {
          "duration": 0.08865219726556006,
          "durationTicks": 245,
          "midi": 47,
          "name": "B2",
          "ticks": 1145344,
          "time": 482.285837,
          "velocity": 0.8661417322834646
        },
        {
          "duration": 0.08865219726556006,
          "durationTicks": 245,
          "midi": 50,
          "name": "D3",
          "ticks": 1145344,
          "time": 482.285837,
          "velocity": 0.8661417322834646
        },
        {
          "duration": 0.08865219726556006,
          "durationTicks": 245,
          "midi": 55,
          "name": "G3",
          "ticks": 1145344,
          "time": 482.285837,
          "velocity": 0.8661417322834646
        },
        {
          "duration": 0.0886521972656169,
          "durationTicks": 245,
          "midi": 55,
          "name": "G3",
          "ticks": 1145600,
          "time": 482.3784695,
          "velocity": 0.8661417322834646
        },
        {
          "duration": 0.181284697265653,
          "durationTicks": 501,
          "midi": 54,
          "name": "F#3",
          "ticks": 1145856,
          "time": 482.471102,
          "velocity": 0.8661417322834646
        },
        {
          "duration": 0.181284697265653,
          "durationTicks": 501,
          "midi": 47,
          "name": "B2",
          "ticks": 1146368,
          "time": 482.656367,
          "velocity": 0.8661417322834646
        },
        {
          "duration": 0.181284697265653,
          "durationTicks": 501,
          "midi": 50,
          "name": "D3",
          "ticks": 1146368,
          "time": 482.656367,
          "velocity": 0.8661417322834646
        },
        {
          "duration": 0.181284697265653,
          "durationTicks": 501,
          "midi": 52,
          "name": "E3",
          "ticks": 1146368,
          "time": 482.656367,
          "velocity": 0.8661417322834646
        },
        {
          "duration": 0.181284697265653,
          "durationTicks": 501,
          "midi": 55,
          "name": "G3",
          "ticks": 1146368,
          "time": 482.656367,
          "velocity": 0.8661417322834646
        },
        {
          "duration": 0.27391719726563224,
          "durationTicks": 757,
          "midi": 45,
          "name": "A2",
          "ticks": 1146880,
          "time": 482.841632,
          "velocity": 0.8661417322834646
        },
        {
          "duration": 0.27391719726563224,
          "durationTicks": 757,
          "midi": 50,
          "name": "D3",
          "ticks": 1146880,
          "time": 482.841632,
          "velocity": 0.8661417322834646
        },
        {
          "duration": 0.27391719726563224,
          "durationTicks": 757,
          "midi": 54,
          "name": "F#3",
          "ticks": 1146880,
          "time": 482.841632,
          "velocity": 0.8661417322834646
        },
        {
          "duration": 0.0886521972656169,
          "durationTicks": 245,
          "midi": 45,
          "name": "A2",
          "ticks": 1147648,
          "time": 483.1195295,
          "velocity": 0.8661417322834646
        },
        {
          "duration": 0.0886521972656169,
          "durationTicks": 245,
          "midi": 50,
          "name": "D3",
          "ticks": 1147648,
          "time": 483.1195295,
          "velocity": 0.8661417322834646
        },
        {
          "duration": 0.0886521972656169,
          "durationTicks": 245,
          "midi": 54,
          "name": "F#3",
          "ticks": 1147648,
          "time": 483.1195295,
          "velocity": 0.8661417322834646
        },
        {
          "duration": 0.181284697265653,
          "durationTicks": 501,
          "midi": 49,
          "name": "C#3",
          "ticks": 1147904,
          "time": 483.212162,
          "velocity": 0.8661417322834646
        },
        {
          "duration": 0.18128469726559615,
          "durationTicks": 501,
          "midi": 45,
          "name": "A2",
          "ticks": 1148416,
          "time": 483.397427,
          "velocity": 0.8661417322834646
        },
        {
          "duration": 0.18128469726559615,
          "durationTicks": 501,
          "midi": 50,
          "name": "D3",
          "ticks": 1148416,
          "time": 483.397427,
          "velocity": 0.8661417322834646
        },
        {
          "duration": 0.18128469726559615,
          "durationTicks": 501,
          "midi": 54,
          "name": "F#3",
          "ticks": 1148416,
          "time": 483.397427,
          "velocity": 0.8661417322834646
        },
        {
          "duration": 0.181284697265653,
          "durationTicks": 501,
          "midi": 47,
          "name": "B2",
          "ticks": 1148928,
          "time": 483.58269199999995,
          "velocity": 0.8661417322834646
        },
        {
          "duration": 0.181284697265653,
          "durationTicks": 501,
          "midi": 45,
          "name": "A2",
          "ticks": 1149440,
          "time": 483.76795699999997,
          "velocity": 0.8661417322834646
        },
        {
          "duration": 0.181284697265653,
          "durationTicks": 501,
          "midi": 50,
          "name": "D3",
          "ticks": 1149440,
          "time": 483.76795699999997,
          "velocity": 0.8661417322834646
        },
        {
          "duration": 0.181284697265653,
          "durationTicks": 501,
          "midi": 54,
          "name": "F#3",
          "ticks": 1149440,
          "time": 483.76795699999997,
          "velocity": 0.8661417322834646
        },
        {
          "duration": 0.18128469726559615,
          "durationTicks": 501,
          "midi": 45,
          "name": "A2",
          "ticks": 1149952,
          "time": 483.953222,
          "velocity": 0.8661417322834646
        },
        {
          "duration": 0.18128469726559615,
          "durationTicks": 501,
          "midi": 45,
          "name": "A2",
          "ticks": 1150464,
          "time": 484.138487,
          "velocity": 0.8661417322834646
        },
        {
          "duration": 0.18128469726559615,
          "durationTicks": 501,
          "midi": 50,
          "name": "D3",
          "ticks": 1150464,
          "time": 484.138487,
          "velocity": 0.8661417322834646
        },
        {
          "duration": 0.18128469726559615,
          "durationTicks": 501,
          "midi": 54,
          "name": "F#3",
          "ticks": 1150464,
          "time": 484.138487,
          "velocity": 0.8661417322834646
        },
        {
          "duration": 0.30865438476558893,
          "durationTicks": 853,
          "midi": 45,
          "name": "A2",
          "ticks": 1150976,
          "time": 484.323752,
          "velocity": 0.8661417322834646
        },
        {
          "duration": 0.30865438476558893,
          "durationTicks": 853,
          "midi": 50,
          "name": "D3",
          "ticks": 1150976,
          "time": 484.323752,
          "velocity": 0.8661417322834646
        },
        {
          "duration": 0.30865438476558893,
          "durationTicks": 853,
          "midi": 54,
          "name": "F#3",
          "ticks": 1150976,
          "time": 484.323752,
          "velocity": 0.8661417322834646
        },
        {
          "duration": 0.181284697265653,
          "durationTicks": 501,
          "midi": 45,
          "name": "A2",
          "ticks": 1152000,
          "time": 484.694282,
          "velocity": 0.8661417322834646
        },
        {
          "duration": 0.18128469726559615,
          "durationTicks": 501,
          "midi": 45,
          "name": "A2",
          "ticks": 1152512,
          "time": 484.879547,
          "velocity": 0.8661417322834646
        },
        {
          "duration": 0.18128469726559615,
          "durationTicks": 501,
          "midi": 50,
          "name": "D3",
          "ticks": 1152512,
          "time": 484.879547,
          "velocity": 0.8661417322834646
        },
        {
          "duration": 0.18128469726559615,
          "durationTicks": 501,
          "midi": 54,
          "name": "F#3",
          "ticks": 1152512,
          "time": 484.879547,
          "velocity": 0.8661417322834646
        },
        {
          "duration": 0.181284697265653,
          "durationTicks": 501,
          "midi": 50,
          "name": "D3",
          "ticks": 1153024,
          "time": 485.06481199999996,
          "velocity": 0.8661417322834646
        },
        {
          "duration": 0.181284697265653,
          "durationTicks": 501,
          "midi": 45,
          "name": "A2",
          "ticks": 1153536,
          "time": 485.250077,
          "velocity": 0.8661417322834646
        },
        {
          "duration": 0.181284697265653,
          "durationTicks": 501,
          "midi": 50,
          "name": "D3",
          "ticks": 1153536,
          "time": 485.250077,
          "velocity": 0.8661417322834646
        },
        {
          "duration": 0.181284697265653,
          "durationTicks": 501,
          "midi": 54,
          "name": "F#3",
          "ticks": 1153536,
          "time": 485.250077,
          "velocity": 0.8661417322834646
        },
        {
          "duration": 0.18128469726559615,
          "durationTicks": 501,
          "midi": 52,
          "name": "E3",
          "ticks": 1154048,
          "time": 485.435342,
          "velocity": 0.8661417322834646
        },
        {
          "duration": 0.181284697265653,
          "durationTicks": 501,
          "midi": 45,
          "name": "A2",
          "ticks": 1154560,
          "time": 485.62060699999995,
          "velocity": 0.8661417322834646
        },
        {
          "duration": 0.181284697265653,
          "durationTicks": 501,
          "midi": 50,
          "name": "D3",
          "ticks": 1154560,
          "time": 485.62060699999995,
          "velocity": 0.8661417322834646
        },
        {
          "duration": 0.181284697265653,
          "durationTicks": 501,
          "midi": 54,
          "name": "F#3",
          "ticks": 1154560,
          "time": 485.62060699999995,
          "velocity": 0.8661417322834646
        },
        {
          "duration": 0.27391719726563224,
          "durationTicks": 757,
          "midi": 47,
          "name": "B2",
          "ticks": 1155072,
          "time": 485.80587199999997,
          "velocity": 0.8661417322834646
        },
        {
          "duration": 0.27391719726563224,
          "durationTicks": 757,
          "midi": 50,
          "name": "D3",
          "ticks": 1155072,
          "time": 485.80587199999997,
          "velocity": 0.8661417322834646
        },
        {
          "duration": 0.27391719726563224,
          "durationTicks": 757,
          "midi": 55,
          "name": "G3",
          "ticks": 1155072,
          "time": 485.80587199999997,
          "velocity": 0.8661417322834646
        },
        {
          "duration": 0.08865219726556006,
          "durationTicks": 245,
          "midi": 47,
          "name": "B2",
          "ticks": 1155840,
          "time": 486.0837695,
          "velocity": 0.8661417322834646
        },
        {
          "duration": 0.08865219726556006,
          "durationTicks": 245,
          "midi": 50,
          "name": "D3",
          "ticks": 1155840,
          "time": 486.0837695,
          "velocity": 0.8661417322834646
        },
        {
          "duration": 0.08865219726556006,
          "durationTicks": 245,
          "midi": 55,
          "name": "G3",
          "ticks": 1155840,
          "time": 486.0837695,
          "velocity": 0.8661417322834646
        },
        {
          "duration": 0.18128469726559615,
          "durationTicks": 501,
          "midi": 50,
          "name": "D3",
          "ticks": 1156096,
          "time": 486.176402,
          "velocity": 0.8661417322834646
        },
        {
          "duration": 0.18128469726559615,
          "durationTicks": 501,
          "midi": 47,
          "name": "B2",
          "ticks": 1156608,
          "time": 486.361667,
          "velocity": 0.8661417322834646
        },
        {
          "duration": 0.18128469726559615,
          "durationTicks": 501,
          "midi": 50,
          "name": "D3",
          "ticks": 1156608,
          "time": 486.361667,
          "velocity": 0.8661417322834646
        },
        {
          "duration": 0.18128469726559615,
          "durationTicks": 501,
          "midi": 55,
          "name": "G3",
          "ticks": 1156608,
          "time": 486.361667,
          "velocity": 0.8661417322834646
        },
        {
          "duration": 0.181284697265653,
          "durationTicks": 501,
          "midi": 55,
          "name": "G3",
          "ticks": 1157120,
          "time": 486.54693199999997,
          "velocity": 0.8661417322834646
        },
        {
          "duration": 0.181284697265653,
          "durationTicks": 501,
          "midi": 47,
          "name": "B2",
          "ticks": 1157632,
          "time": 486.732197,
          "velocity": 0.8661417322834646
        },
        {
          "duration": 0.181284697265653,
          "durationTicks": 501,
          "midi": 50,
          "name": "D3",
          "ticks": 1157632,
          "time": 486.732197,
          "velocity": 0.8661417322834646
        },
        {
          "duration": 0.181284697265653,
          "durationTicks": 501,
          "midi": 55,
          "name": "G3",
          "ticks": 1157632,
          "time": 486.732197,
          "velocity": 0.8661417322834646
        },
        {
          "duration": 0.18128469726559615,
          "durationTicks": 501,
          "midi": 50,
          "name": "D3",
          "ticks": 1158144,
          "time": 486.917462,
          "velocity": 0.8661417322834646
        },
        {
          "duration": 0.181284697265653,
          "durationTicks": 501,
          "midi": 47,
          "name": "B2",
          "ticks": 1158656,
          "time": 487.10272699999996,
          "velocity": 0.8661417322834646
        },
        {
          "duration": 0.181284697265653,
          "durationTicks": 501,
          "midi": 50,
          "name": "D3",
          "ticks": 1158656,
          "time": 487.10272699999996,
          "velocity": 0.8661417322834646
        },
        {
          "duration": 0.181284697265653,
          "durationTicks": 501,
          "midi": 55,
          "name": "G3",
          "ticks": 1158656,
          "time": 487.10272699999996,
          "velocity": 0.8661417322834646
        },
        {
          "duration": 0.181284697265653,
          "durationTicks": 501,
          "midi": 55,
          "name": "G3",
          "ticks": 1159168,
          "time": 487.287992,
          "velocity": 0.8661417322834646
        },
        {
          "duration": 0.18128469726559615,
          "durationTicks": 501,
          "midi": 47,
          "name": "B2",
          "ticks": 1159680,
          "time": 487.473257,
          "velocity": 0.8661417322834646
        },
        {
          "duration": 0.18128469726559615,
          "durationTicks": 501,
          "midi": 50,
          "name": "D3",
          "ticks": 1159680,
          "time": 487.473257,
          "velocity": 0.8661417322834646
        },
        {
          "duration": 0.18128469726559615,
          "durationTicks": 501,
          "midi": 55,
          "name": "G3",
          "ticks": 1159680,
          "time": 487.473257,
          "velocity": 0.8661417322834646
        },
        {
          "duration": 0.181284697265653,
          "durationTicks": 501,
          "midi": 50,
          "name": "D3",
          "ticks": 1160192,
          "time": 487.65852199999995,
          "velocity": 0.8661417322834646
        },
        {
          "duration": 0.181284697265653,
          "durationTicks": 501,
          "midi": 47,
          "name": "B2",
          "ticks": 1160704,
          "time": 487.84378699999996,
          "velocity": 0.8661417322834646
        },
        {
          "duration": 0.181284697265653,
          "durationTicks": 501,
          "midi": 50,
          "name": "D3",
          "ticks": 1160704,
          "time": 487.84378699999996,
          "velocity": 0.8661417322834646
        },
        {
          "duration": 0.181284697265653,
          "durationTicks": 501,
          "midi": 55,
          "name": "G3",
          "ticks": 1160704,
          "time": 487.84378699999996,
          "velocity": 0.8661417322834646
        },
        {
          "duration": 0.18128469726559615,
          "durationTicks": 501,
          "midi": 55,
          "name": "G3",
          "ticks": 1161216,
          "time": 488.029052,
          "velocity": 0.8661417322834646
        },
        {
          "duration": 0.18128469726559615,
          "durationTicks": 501,
          "midi": 47,
          "name": "B2",
          "ticks": 1161728,
          "time": 488.214317,
          "velocity": 0.8661417322834646
        },
        {
          "duration": 0.18128469726559615,
          "durationTicks": 501,
          "midi": 50,
          "name": "D3",
          "ticks": 1161728,
          "time": 488.214317,
          "velocity": 0.8661417322834646
        },
        {
          "duration": 0.18128469726559615,
          "durationTicks": 501,
          "midi": 55,
          "name": "G3",
          "ticks": 1161728,
          "time": 488.214317,
          "velocity": 0.8661417322834646
        },
        {
          "duration": 0.18128469726559615,
          "durationTicks": 501,
          "midi": 54,
          "name": "F#3",
          "ticks": 1162240,
          "time": 488.399582,
          "velocity": 0.8661417322834646
        },
        {
          "duration": 0.181284697265653,
          "durationTicks": 501,
          "midi": 47,
          "name": "B2",
          "ticks": 1162752,
          "time": 488.58484699999997,
          "velocity": 0.8661417322834646
        },
        {
          "duration": 0.181284697265653,
          "durationTicks": 501,
          "midi": 50,
          "name": "D3",
          "ticks": 1162752,
          "time": 488.58484699999997,
          "velocity": 0.8661417322834646
        },
        {
          "duration": 0.181284697265653,
          "durationTicks": 501,
          "midi": 55,
          "name": "G3",
          "ticks": 1162752,
          "time": 488.58484699999997,
          "velocity": 0.8661417322834646
        },
        {
          "duration": 0.3086543847656458,
          "durationTicks": 853,
          "midi": 42,
          "name": "F#2",
          "ticks": 1163264,
          "time": 488.770112,
          "velocity": 0.8661417322834646
        },
        {
          "duration": 0.3086543847656458,
          "durationTicks": 853,
          "midi": 45,
          "name": "A2",
          "ticks": 1163264,
          "time": 488.770112,
          "velocity": 0.8661417322834646
        },
        {
          "duration": 0.3086543847656458,
          "durationTicks": 853,
          "midi": 50,
          "name": "D3",
          "ticks": 1163264,
          "time": 488.770112,
          "velocity": 0.8661417322834646
        },
        {
          "duration": 0.3086543847656458,
          "durationTicks": 853,
          "midi": 45,
          "name": "A2",
          "ticks": 1164288,
          "time": 489.14064199999996,
          "velocity": 0.8661417322834646
        },
        {
          "duration": 0.18128469726559615,
          "durationTicks": 501,
          "midi": 50,
          "name": "D3",
          "ticks": 1165312,
          "time": 489.511172,
          "velocity": 0.8661417322834646
        },
        {
          "duration": 0.18128469726559615,
          "durationTicks": 501,
          "midi": 42,
          "name": "F#2",
          "ticks": 1165824,
          "time": 489.696437,
          "velocity": 0.8661417322834646
        },
        {
          "duration": 0.18128469726559615,
          "durationTicks": 501,
          "midi": 45,
          "name": "A2",
          "ticks": 1165824,
          "time": 489.696437,
          "velocity": 0.8661417322834646
        },
        {
          "duration": 0.18128469726559615,
          "durationTicks": 501,
          "midi": 50,
          "name": "D3",
          "ticks": 1165824,
          "time": 489.696437,
          "velocity": 0.8661417322834646
        },
        {
          "duration": 0.0886521972656169,
          "durationTicks": 245,
          "midi": 45,
          "name": "A2",
          "ticks": 1166336,
          "time": 489.88170199999996,
          "velocity": 0.8661417322834646
        },
        {
          "duration": 0.2739171972655754,
          "durationTicks": 757,
          "midi": 42,
          "name": "F#2",
          "ticks": 1166592,
          "time": 489.9743345,
          "velocity": 0.8661417322834646
        },
        {
          "duration": 0.2739171972655754,
          "durationTicks": 757,
          "midi": 45,
          "name": "A2",
          "ticks": 1166592,
          "time": 489.9743345,
          "velocity": 0.8661417322834646
        },
        {
          "duration": 0.2739171972655754,
          "durationTicks": 757,
          "midi": 50,
          "name": "D3",
          "ticks": 1166592,
          "time": 489.9743345,
          "velocity": 0.8661417322834646
        },
        {
          "duration": 0.30865438476558893,
          "durationTicks": 853,
          "midi": 42,
          "name": "F#2",
          "ticks": 1167360,
          "time": 490.252232,
          "velocity": 0.8661417322834646
        },
        {
          "duration": 0.30865438476558893,
          "durationTicks": 853,
          "midi": 45,
          "name": "A2",
          "ticks": 1167360,
          "time": 490.252232,
          "velocity": 0.8661417322834646
        },
        {
          "duration": 0.30865438476558893,
          "durationTicks": 853,
          "midi": 50,
          "name": "D3",
          "ticks": 1167360,
          "time": 490.252232,
          "velocity": 0.8661417322834646
        },
        {
          "duration": 0.181284697265653,
          "durationTicks": 501,
          "midi": 45,
          "name": "A2",
          "ticks": 1168384,
          "time": 490.62276199999997,
          "velocity": 0.8661417322834646
        },
        {
          "duration": 0.181284697265653,
          "durationTicks": 501,
          "midi": 42,
          "name": "F#2",
          "ticks": 1168896,
          "time": 490.808027,
          "velocity": 0.8661417322834646
        },
        {
          "duration": 0.181284697265653,
          "durationTicks": 501,
          "midi": 45,
          "name": "A2",
          "ticks": 1168896,
          "time": 490.808027,
          "velocity": 0.8661417322834646
        },
        {
          "duration": 0.181284697265653,
          "durationTicks": 501,
          "midi": 50,
          "name": "D3",
          "ticks": 1168896,
          "time": 490.808027,
          "velocity": 0.8661417322834646
        },
        {
          "duration": 0.18128469726559615,
          "durationTicks": 501,
          "midi": 50,
          "name": "D3",
          "ticks": 1169408,
          "time": 490.993292,
          "velocity": 0.8661417322834646
        },
        {
          "duration": 0.181284697265653,
          "durationTicks": 501,
          "midi": 42,
          "name": "F#2",
          "ticks": 1169920,
          "time": 491.17855699999996,
          "velocity": 0.8661417322834646
        },
        {
          "duration": 0.181284697265653,
          "durationTicks": 501,
          "midi": 45,
          "name": "A2",
          "ticks": 1169920,
          "time": 491.17855699999996,
          "velocity": 0.8661417322834646
        },
        {
          "duration": 0.181284697265653,
          "durationTicks": 501,
          "midi": 50,
          "name": "D3",
          "ticks": 1169920,
          "time": 491.17855699999996,
          "velocity": 0.8661417322834646
        },
        {
          "duration": 0.181284697265653,
          "durationTicks": 501,
          "midi": 52,
          "name": "E3",
          "ticks": 1170432,
          "time": 491.36382199999997,
          "velocity": 0.8661417322834646
        },
        {
          "duration": 0.18128469726559615,
          "durationTicks": 501,
          "midi": 42,
          "name": "F#2",
          "ticks": 1170944,
          "time": 491.549087,
          "velocity": 0.8661417322834646
        },
        {
          "duration": 0.18128469726559615,
          "durationTicks": 501,
          "midi": 45,
          "name": "A2",
          "ticks": 1170944,
          "time": 491.549087,
          "velocity": 0.8661417322834646
        },
        {
          "duration": 0.18128469726559615,
          "durationTicks": 501,
          "midi": 50,
          "name": "D3",
          "ticks": 1170944,
          "time": 491.549087,
          "velocity": 0.8661417322834646
        },
        {
          "duration": 0.18128469726559615,
          "durationTicks": 501,
          "midi": 54,
          "name": "F#3",
          "ticks": 1170944,
          "time": 491.549087,
          "velocity": 0.8661417322834646
        },
        {
          "duration": 0.30865438476558893,
          "durationTicks": 853,
          "midi": 47,
          "name": "B2",
          "ticks": 1171456,
          "time": 491.734352,
          "velocity": 0.8661417322834646
        },
        {
          "duration": 0.30865438476558893,
          "durationTicks": 853,
          "midi": 50,
          "name": "D3",
          "ticks": 1171456,
          "time": 491.734352,
          "velocity": 0.8661417322834646
        },
        {
          "duration": 0.30865438476558893,
          "durationTicks": 853,
          "midi": 55,
          "name": "G3",
          "ticks": 1171456,
          "time": 491.734352,
          "velocity": 0.8661417322834646
        },
        {
          "duration": 0.181284697265653,
          "durationTicks": 501,
          "midi": 50,
          "name": "D3",
          "ticks": 1172480,
          "time": 492.104882,
          "velocity": 0.8661417322834646
        },
        {
          "duration": 0.18128469726559615,
          "durationTicks": 501,
          "midi": 47,
          "name": "B2",
          "ticks": 1172992,
          "time": 492.290147,
          "velocity": 0.8661417322834646
        },
        {
          "duration": 0.18128469726559615,
          "durationTicks": 501,
          "midi": 50,
          "name": "D3",
          "ticks": 1172992,
          "time": 492.290147,
          "velocity": 0.8661417322834646
        },
        {
          "duration": 0.18128469726559615,
          "durationTicks": 501,
          "midi": 55,
          "name": "G3",
          "ticks": 1172992,
          "time": 492.290147,
          "velocity": 0.8661417322834646
        },
        {
          "duration": 0.30865438476558893,
          "durationTicks": 853,
          "midi": 47,
          "name": "B2",
          "ticks": 1173504,
          "time": 492.475412,
          "velocity": 0.8661417322834646
        },
        {
          "duration": 0.30865438476558893,
          "durationTicks": 853,
          "midi": 50,
          "name": "D3",
          "ticks": 1173504,
          "time": 492.475412,
          "velocity": 0.8661417322834646
        },
        {
          "duration": 0.30865438476558893,
          "durationTicks": 853,
          "midi": 55,
          "name": "G3",
          "ticks": 1173504,
          "time": 492.475412,
          "velocity": 0.8661417322834646
        },
        {
          "duration": 0.3086543847656458,
          "durationTicks": 853,
          "midi": 47,
          "name": "B2",
          "ticks": 1174528,
          "time": 492.845942,
          "velocity": 0.8661417322834646
        },
        {
          "duration": 0.3086543847656458,
          "durationTicks": 853,
          "midi": 50,
          "name": "D3",
          "ticks": 1174528,
          "time": 492.845942,
          "velocity": 0.8661417322834646
        },
        {
          "duration": 0.3086543847656458,
          "durationTicks": 853,
          "midi": 55,
          "name": "G3",
          "ticks": 1174528,
          "time": 492.845942,
          "velocity": 0.8661417322834646
        },
        {
          "duration": 0.181284697265653,
          "durationTicks": 501,
          "midi": 57,
          "name": "A3",
          "ticks": 1175552,
          "time": 493.21647199999995,
          "velocity": 0.8661417322834646
        },
        {
          "duration": 0.181284697265653,
          "durationTicks": 501,
          "midi": 47,
          "name": "B2",
          "ticks": 1176064,
          "time": 493.40173699999997,
          "velocity": 0.8661417322834646
        },
        {
          "duration": 0.181284697265653,
          "durationTicks": 501,
          "midi": 50,
          "name": "D3",
          "ticks": 1176064,
          "time": 493.40173699999997,
          "velocity": 0.8661417322834646
        },
        {
          "duration": 0.181284697265653,
          "durationTicks": 501,
          "midi": 55,
          "name": "G3",
          "ticks": 1176064,
          "time": 493.40173699999997,
          "velocity": 0.8661417322834646
        },
        {
          "duration": 0.18128469726559615,
          "durationTicks": 501,
          "midi": 52,
          "name": "E3",
          "ticks": 1176576,
          "time": 493.587002,
          "velocity": 0.8661417322834646
        },
        {
          "duration": 0.18128469726559615,
          "durationTicks": 501,
          "midi": 47,
          "name": "B2",
          "ticks": 1177088,
          "time": 493.772267,
          "velocity": 0.8661417322834646
        },
        {
          "duration": 0.18128469726559615,
          "durationTicks": 501,
          "midi": 50,
          "name": "D3",
          "ticks": 1177088,
          "time": 493.772267,
          "velocity": 0.8661417322834646
        },
        {
          "duration": 0.18128469726559615,
          "durationTicks": 501,
          "midi": 55,
          "name": "G3",
          "ticks": 1177088,
          "time": 493.772267,
          "velocity": 0.8661417322834646
        },
        {
          "duration": 0.18128469726559615,
          "durationTicks": 501,
          "midi": 57,
          "name": "A3",
          "ticks": 1177600,
          "time": 493.957532,
          "velocity": 0.8661417322834646
        },
        {
          "duration": 0.181284697265653,
          "durationTicks": 501,
          "midi": 47,
          "name": "B2",
          "ticks": 1178112,
          "time": 494.142797,
          "velocity": 0.8661417322834646
        },
        {
          "duration": 0.181284697265653,
          "durationTicks": 501,
          "midi": 50,
          "name": "D3",
          "ticks": 1178112,
          "time": 494.142797,
          "velocity": 0.8661417322834646
        },
        {
          "duration": 0.181284697265653,
          "durationTicks": 501,
          "midi": 55,
          "name": "G3",
          "ticks": 1178112,
          "time": 494.142797,
          "velocity": 0.8661417322834646
        },
        {
          "duration": 0.181284697265653,
          "durationTicks": 501,
          "midi": 52,
          "name": "E3",
          "ticks": 1178624,
          "time": 494.328062,
          "velocity": 0.8661417322834646
        },
        {
          "duration": 0.18128469726559615,
          "durationTicks": 501,
          "midi": 47,
          "name": "B2",
          "ticks": 1179136,
          "time": 494.513327,
          "velocity": 0.8661417322834646
        },
        {
          "duration": 0.18128469726559615,
          "durationTicks": 501,
          "midi": 50,
          "name": "D3",
          "ticks": 1179136,
          "time": 494.513327,
          "velocity": 0.8661417322834646
        },
        {
          "duration": 0.18128469726559615,
          "durationTicks": 501,
          "midi": 55,
          "name": "G3",
          "ticks": 1179136,
          "time": 494.513327,
          "velocity": 0.8661417322834646
        },
        {
          "duration": 10.104147603515628,
          "durationTicks": 17237,
          "midi": 38,
          "name": "D2",
          "ticks": 1179648,
          "time": 494.69859199999996,
          "velocity": 0.8661417322834646
        },
        {
          "duration": 10.104147603515628,
          "durationTicks": 17237,
          "midi": 50,
          "name": "D3",
          "ticks": 1179648,
          "time": 494.69859199999996,
          "velocity": 0.8661417322834646
        },
        {
          "duration": 8.853805500000021,
          "durationTicks": 15104,
          "midi": 38,
          "name": "D2",
          "ticks": 1197056,
          "time": 504.90297799999996,
          "velocity": 0.8661417322834646
        },
        {
          "duration": 8.853805500000021,
          "durationTicks": 15104,
          "midi": 50,
          "name": "D3",
          "ticks": 1197056,
          "time": 504.90297799999996,
          "velocity": 0.8661417322834646
        },
        {
          "duration": 4.651999499999988,
          "durationTicks": 7936,
          "midi": 38,
          "name": "D2",
          "ticks": 1212416,
          "time": 513.906848,
          "velocity": 0.8661417322834646
        },
        {
          "duration": 4.651999499999988,
          "durationTicks": 7936,
          "midi": 50,
          "name": "D3",
          "ticks": 1212416,
          "time": 513.906848,
          "velocity": 0.8661417322834646
        },
        {
          "duration": 2.9010516035156115,
          "durationTicks": 4949,
          "midi": 38,
          "name": "D2",
          "ticks": 1220608,
          "time": 518.7089119999999,
          "velocity": 0.8661417322834646
        },
        {
          "duration": 2.9010516035156115,
          "durationTicks": 4949,
          "midi": 50,
          "name": "D3",
          "ticks": 1220608,
          "time": 518.7089119999999,
          "velocity": 0.8661417322834646
        },
        {
          "duration": 0.500019603515625,
          "durationTicks": 853,
          "midi": 40,
          "name": "E2",
          "ticks": 1225728,
          "time": 521.710202,
          "velocity": 0.8661417322834646
        },
        {
          "duration": 0.500019603515625,
          "durationTicks": 853,
          "midi": 52,
          "name": "E3",
          "ticks": 1225728,
          "time": 521.710202,
          "velocity": 0.8661417322834646
        },
        {
          "duration": 1.0504515000000083,
          "durationTicks": 1792,
          "midi": 41,
          "name": "F2",
          "ticks": 1226752,
          "time": 522.3104599999999,
          "velocity": 0.8661417322834646
        },
        {
          "duration": 1.0504515000000083,
          "durationTicks": 1792,
          "midi": 53,
          "name": "F3",
          "ticks": 1226752,
          "time": 522.3104599999999,
          "velocity": 0.8661417322834646
        },
        {
          "duration": 1.0504515000000083,
          "durationTicks": 1792,
          "midi": 43,
          "name": "G2",
          "ticks": 1228800,
          "time": 523.5109759999999,
          "velocity": 0.8661417322834646
        },
        {
          "duration": 1.0504515000000083,
          "durationTicks": 1792,
          "midi": 45,
          "name": "A2",
          "ticks": 1230848,
          "time": 524.7114919999999,
          "velocity": 0.8661417322834646
        },
        {
          "duration": 1.0504514999998946,
          "durationTicks": 1792,
          "midi": 43,
          "name": "G2",
          "ticks": 1232896,
          "time": 525.912008,
          "velocity": 0.8661417322834646
        },
        {
          "duration": 1.0504514999998946,
          "durationTicks": 1792,
          "midi": 41,
          "name": "F2",
          "ticks": 1234944,
          "time": 527.112524,
          "velocity": 0.8661417322834646
        },
        {
          "duration": 1.0504514999998946,
          "durationTicks": 1792,
          "midi": 53,
          "name": "F3",
          "ticks": 1234944,
          "time": 527.112524,
          "velocity": 0.8661417322834646
        },
        {
          "duration": 0.29368091601554625,
          "durationTicks": 501,
          "midi": 40,
          "name": "E2",
          "ticks": 1236992,
          "time": 528.31304,
          "velocity": 0.8661417322834646
        },
        {
          "duration": 0.29368091601554625,
          "durationTicks": 501,
          "midi": 52,
          "name": "E3",
          "ticks": 1236992,
          "time": 528.31304,
          "velocity": 0.8661417322834646
        },
        {
          "duration": 0.29368091601565993,
          "durationTicks": 501,
          "midi": 43,
          "name": "G2",
          "ticks": 1237504,
          "time": 528.613169,
          "velocity": 0.8661417322834646
        },
        {
          "duration": 0.29368091601565993,
          "durationTicks": 501,
          "midi": 46,
          "name": "A#2",
          "ticks": 1238016,
          "time": 528.9132979999999,
          "velocity": 0.8661417322834646
        },
        {
          "duration": 0.29368091601565993,
          "durationTicks": 501,
          "midi": 44,
          "name": "G#2",
          "ticks": 1238528,
          "time": 529.2134269999999,
          "velocity": 0.8661417322834646
        },
        {
          "duration": 1.0504515000000083,
          "durationTicks": 1792,
          "midi": 45,
          "name": "A2",
          "ticks": 1239040,
          "time": 529.513556,
          "velocity": 0.8661417322834646
        },
        {
          "duration": 3.445035416015571,
          "durationTicks": 5877,
          "midi": 38,
          "name": "D2",
          "ticks": 1241088,
          "time": 530.714072,
          "velocity": 0.8661417322834646
        },
        {
          "duration": 3.445035416015571,
          "durationTicks": 5877,
          "midi": 50,
          "name": "D3",
          "ticks": 1241088,
          "time": 530.714072,
          "velocity": 0.8661417322834646
        },
        {
          "duration": 0.1436164160155613,
          "durationTicks": 245,
          "midi": 52,
          "name": "E3",
          "ticks": 1246976,
          "time": 534.1655555,
          "velocity": 0.8661417322834646
        },
        {
          "duration": 0.1436164160155613,
          "durationTicks": 245,
          "midi": 53,
          "name": "F3",
          "ticks": 1247232,
          "time": 534.31562,
          "velocity": 0.8661417322834646
        },
        {
          "duration": 0.14361641601567499,
          "durationTicks": 245,
          "midi": 50,
          "name": "D3",
          "ticks": 1247488,
          "time": 534.4656845,
          "velocity": 0.8661417322834646
        },
        {
          "duration": 0.14361641601567499,
          "durationTicks": 245,
          "midi": 49,
          "name": "C#3",
          "ticks": 1247744,
          "time": 534.6157489999999,
          "velocity": 0.8661417322834646
        },
        {
          "duration": 0.14361641601567499,
          "durationTicks": 245,
          "midi": 50,
          "name": "D3",
          "ticks": 1248000,
          "time": 534.7658134999999,
          "velocity": 0.8661417322834646
        },
        {
          "duration": 0.14361641601567499,
          "durationTicks": 245,
          "midi": 51,
          "name": "D#3",
          "ticks": 1248256,
          "time": 534.9158779999999,
          "velocity": 0.8661417322834646
        },
        {
          "duration": 0.1436164160155613,
          "durationTicks": 245,
          "midi": 50,
          "name": "D3",
          "ticks": 1248512,
          "time": 535.0659425,
          "velocity": 0.8661417322834646
        },
        {
          "duration": 0.1436164160155613,
          "durationTicks": 245,
          "midi": 49,
          "name": "C#3",
          "ticks": 1248768,
          "time": 535.216007,
          "velocity": 0.8661417322834646
        },
        {
          "duration": 0.1436164160155613,
          "durationTicks": 245,
          "midi": 44,
          "name": "G#2",
          "ticks": 1249024,
          "time": 535.3660715,
          "velocity": 0.8661417322834646
        },
        {
          "duration": 0.29368091601565993,
          "durationTicks": 501,
          "midi": 45,
          "name": "A2",
          "ticks": 1249280,
          "time": 535.516136,
          "velocity": 0.8661417322834646
        },
        {
          "duration": 0.29368091601565993,
          "durationTicks": 501,
          "midi": 50,
          "name": "D3",
          "ticks": 1249280,
          "time": 535.516136,
          "velocity": 0.8661417322834646
        },
        {
          "duration": 0.29368091601565993,
          "durationTicks": 501,
          "midi": 50,
          "name": "D3",
          "ticks": 1249792,
          "time": 535.8162649999999,
          "velocity": 0.8661417322834646
        },
        {
          "duration": 0.29368091601565993,
          "durationTicks": 501,
          "midi": 53,
          "name": "F3",
          "ticks": 1249792,
          "time": 535.8162649999999,
          "velocity": 0.8661417322834646
        },
        {
          "duration": 0.29368091601565993,
          "durationTicks": 501,
          "midi": 40,
          "name": "E2",
          "ticks": 1250304,
          "time": 536.1163939999999,
          "velocity": 0.8661417322834646
        },
        {
          "duration": 0.29368091601565993,
          "durationTicks": 501,
          "midi": 49,
          "name": "C#3",
          "ticks": 1250304,
          "time": 536.1163939999999,
          "velocity": 0.8661417322834646
        },
        {
          "duration": 0.29368091601565993,
          "durationTicks": 501,
          "midi": 52,
          "name": "E3",
          "ticks": 1250304,
          "time": 536.1163939999999,
          "velocity": 0.8661417322834646
        },
        {
          "duration": 0.29368091601565993,
          "durationTicks": 501,
          "midi": 52,
          "name": "E3",
          "ticks": 1250816,
          "time": 536.416523,
          "velocity": 0.8661417322834646
        },
        {
          "duration": 0.29368091601565993,
          "durationTicks": 501,
          "midi": 41,
          "name": "F2",
          "ticks": 1251328,
          "time": 536.716652,
          "velocity": 0.8661417322834646
        },
        {
          "duration": 0.29368091601565993,
          "durationTicks": 501,
          "midi": 50,
          "name": "D3",
          "ticks": 1251328,
          "time": 536.716652,
          "velocity": 0.8661417322834646
        },
        {
          "duration": 0.29368091601565993,
          "durationTicks": 501,
          "midi": 53,
          "name": "F3",
          "ticks": 1251328,
          "time": 536.716652,
          "velocity": 0.8661417322834646
        },
        {
          "duration": 0.29368091601565993,
          "durationTicks": 501,
          "midi": 53,
          "name": "F3",
          "ticks": 1251840,
          "time": 537.0167809999999,
          "velocity": 0.8661417322834646
        },
        {
          "duration": 0.29368091601554625,
          "durationTicks": 501,
          "midi": 43,
          "name": "G2",
          "ticks": 1252352,
          "time": 537.31691,
          "velocity": 0.8661417322834646
        },
        {
          "duration": 0.29368091601565993,
          "durationTicks": 501,
          "midi": 52,
          "name": "E3",
          "ticks": 1252864,
          "time": 537.617039,
          "velocity": 0.8661417322834646
        },
        {
          "duration": 0.500019603515625,
          "durationTicks": 853,
          "midi": 45,
          "name": "A2",
          "ticks": 1253376,
          "time": 537.917168,
          "velocity": 0.8661417322834646
        },
        {
          "duration": 1.0504514999998946,
          "durationTicks": 1792,
          "midi": 38,
          "name": "D2",
          "ticks": 1267712,
          "time": 546.32078,
          "velocity": 0.8661417322834646
        },
        {
          "duration": 1.0504514999998946,
          "durationTicks": 1792,
          "midi": 50,
          "name": "D3",
          "ticks": 1267712,
          "time": 546.32078,
          "velocity": 0.8661417322834646
        },
        {
          "duration": 0.29368091601554625,
          "durationTicks": 501,
          "midi": 39,
          "name": "D#2",
          "ticks": 1269760,
          "time": 547.521296,
          "velocity": 0.8661417322834646
        },
        {
          "duration": 0.29368091601554625,
          "durationTicks": 501,
          "midi": 51,
          "name": "D#3",
          "ticks": 1269760,
          "time": 547.521296,
          "velocity": 0.8661417322834646
        },
        {
          "duration": 0.29368091601565993,
          "durationTicks": 501,
          "midi": 38,
          "name": "D2",
          "ticks": 1270272,
          "time": 547.821425,
          "velocity": 0.8661417322834646
        },
        {
          "duration": 0.29368091601565993,
          "durationTicks": 501,
          "midi": 50,
          "name": "D3",
          "ticks": 1270272,
          "time": 547.821425,
          "velocity": 0.8661417322834646
        },
        {
          "duration": 0.29368091601565993,
          "durationTicks": 501,
          "midi": 49,
          "name": "C#3",
          "ticks": 1270784,
          "time": 548.121554,
          "velocity": 0.8661417322834646
        },
        {
          "duration": 0.29368091601565993,
          "durationTicks": 501,
          "midi": 44,
          "name": "G#2",
          "ticks": 1271296,
          "time": 548.4216829999999,
          "velocity": 0.8661417322834646
        },
        {
          "duration": 2.2509675000000016,
          "durationTicks": 3840,
          "midi": 45,
          "name": "A2",
          "ticks": 1271808,
          "time": 548.721812,
          "velocity": 0.8661417322834646
        },
        {
          "duration": 1.0504515000000083,
          "durationTicks": 1792,
          "midi": 44,
          "name": "G#2",
          "ticks": 1275904,
          "time": 551.122844,
          "velocity": 0.8661417322834646
        },
        {
          "duration": 0.29368091601565993,
          "durationTicks": 501,
          "midi": 45,
          "name": "A2",
          "ticks": 1277952,
          "time": 552.32336,
          "velocity": 0.8661417322834646
        },
        {
          "duration": 0.29368091601565993,
          "durationTicks": 501,
          "midi": 44,
          "name": "G#2",
          "ticks": 1278464,
          "time": 552.623489,
          "velocity": 0.8661417322834646
        },
        {
          "duration": 0.29368091601565993,
          "durationTicks": 501,
          "midi": 43,
          "name": "G2",
          "ticks": 1278976,
          "time": 552.9236179999999,
          "velocity": 0.8661417322834646
        },
        {
          "duration": 0.29368091601554625,
          "durationTicks": 501,
          "midi": 49,
          "name": "C#3",
          "ticks": 1279488,
          "time": 553.223747,
          "velocity": 0.8661417322834646
        },
        {
          "duration": 2.2509675000000016,
          "durationTicks": 3840,
          "midi": 38,
          "name": "D2",
          "ticks": 1280000,
          "time": 553.523876,
          "velocity": 0.8661417322834646
        },
        {
          "duration": 2.2509675000000016,
          "durationTicks": 3840,
          "midi": 50,
          "name": "D3",
          "ticks": 1280000,
          "time": 553.523876,
          "velocity": 0.8661417322834646
        },
        {
          "duration": 1.0504515000000083,
          "durationTicks": 1792,
          "midi": 38,
          "name": "D2",
          "ticks": 1284096,
          "time": 555.924908,
          "velocity": 0.8661417322834646
        },
        {
          "duration": 1.0504515000000083,
          "durationTicks": 1792,
          "midi": 50,
          "name": "D3",
          "ticks": 1284096,
          "time": 555.924908,
          "velocity": 0.8661417322834646
        },
        {
          "duration": 0.29368091601565993,
          "durationTicks": 501,
          "midi": 51,
          "name": "D#3",
          "ticks": 1286144,
          "time": 557.125424,
          "velocity": 0.8661417322834646
        },
        {
          "duration": 0.29368091601565993,
          "durationTicks": 501,
          "midi": 50,
          "name": "D3",
          "ticks": 1286656,
          "time": 557.4255529999999,
          "velocity": 0.8661417322834646
        },
        {
          "duration": 0.29368091601554625,
          "durationTicks": 501,
          "midi": 49,
          "name": "C#3",
          "ticks": 1287168,
          "time": 557.725682,
          "velocity": 0.8661417322834646
        },
        {
          "duration": 0.29368091601565993,
          "durationTicks": 501,
          "midi": 44,
          "name": "G#2",
          "ticks": 1287680,
          "time": 558.025811,
          "velocity": 0.8661417322834646
        },
        {
          "duration": 2.2509675000000016,
          "durationTicks": 3840,
          "midi": 40,
          "name": "E2",
          "ticks": 1288192,
          "time": 558.32594,
          "velocity": 0.8661417322834646
        },
        {
          "duration": 2.2509675000000016,
          "durationTicks": 3840,
          "midi": 45,
          "name": "A2",
          "ticks": 1288192,
          "time": 558.32594,
          "velocity": 0.8661417322834646
        },
        {
          "duration": 2.2509675000000016,
          "durationTicks": 3840,
          "midi": 52,
          "name": "E3",
          "ticks": 1288192,
          "time": 558.32594,
          "velocity": 0.8661417322834646
        },
        {
          "duration": 1.0504515000000083,
          "durationTicks": 1792,
          "midi": 41,
          "name": "F2",
          "ticks": 1292288,
          "time": 560.7269719999999,
          "velocity": 0.8661417322834646
        },
        {
          "duration": 1.0504515000000083,
          "durationTicks": 1792,
          "midi": 44,
          "name": "G#2",
          "ticks": 1292288,
          "time": 560.7269719999999,
          "velocity": 0.8661417322834646
        },
        {
          "duration": 1.0504515000000083,
          "durationTicks": 1792,
          "midi": 53,
          "name": "F3",
          "ticks": 1292288,
          "time": 560.7269719999999,
          "velocity": 0.8661417322834646
        },
        {
          "duration": 0.29368091601565993,
          "durationTicks": 501,
          "midi": 45,
          "name": "A2",
          "ticks": 1294336,
          "time": 561.9274879999999,
          "velocity": 0.8661417322834646
        },
        {
          "duration": 0.29368091601554625,
          "durationTicks": 501,
          "midi": 44,
          "name": "G#2",
          "ticks": 1294848,
          "time": 562.227617,
          "velocity": 0.8661417322834646
        },
        {
          "duration": 0.29368091601554625,
          "durationTicks": 501,
          "midi": 40,
          "name": "E2",
          "ticks": 1295360,
          "time": 562.527746,
          "velocity": 0.8661417322834646
        },
        {
          "duration": 0.29368091601554625,
          "durationTicks": 501,
          "midi": 43,
          "name": "G2",
          "ticks": 1295360,
          "time": 562.527746,
          "velocity": 0.8661417322834646
        },
        {
          "duration": 0.29368091601554625,
          "durationTicks": 501,
          "midi": 52,
          "name": "E3",
          "ticks": 1295360,
          "time": 562.527746,
          "velocity": 0.8661417322834646
        },
        {
          "duration": 0.29368091601565993,
          "durationTicks": 501,
          "midi": 49,
          "name": "C#3",
          "ticks": 1295872,
          "time": 562.827875,
          "velocity": 0.8661417322834646
        },
        {
          "duration": 2.2509675000000016,
          "durationTicks": 3840,
          "midi": 38,
          "name": "D2",
          "ticks": 1296384,
          "time": 563.1280039999999,
          "velocity": 0.8661417322834646
        },
        {
          "duration": 2.2509675000000016,
          "durationTicks": 3840,
          "midi": 50,
          "name": "D3",
          "ticks": 1296384,
          "time": 563.1280039999999,
          "velocity": 0.8661417322834646
        },
        {
          "duration": 2.2509675000000016,
          "durationTicks": 3840,
          "midi": 53,
          "name": "F3",
          "ticks": 1296384,
          "time": 563.1280039999999,
          "velocity": 0.8661417322834646
        },
        {
          "duration": 2.8512254999999413,
          "durationTicks": 4864,
          "midi": 38,
          "name": "D2",
          "ticks": 1308672,
          "time": 570.3311,
          "velocity": 0.8661417322834646
        },
        {
          "duration": 2.8512254999999413,
          "durationTicks": 4864,
          "midi": 50,
          "name": "D3",
          "ticks": 1308672,
          "time": 570.3311,
          "velocity": 0.8661417322834646
        },
        {
          "duration": 0.500019603515625,
          "durationTicks": 853,
          "midi": 40,
          "name": "E2",
          "ticks": 1313792,
          "time": 573.3323899999999,
          "velocity": 0.8661417322834646
        },
        {
          "duration": 0.500019603515625,
          "durationTicks": 853,
          "midi": 52,
          "name": "E3",
          "ticks": 1313792,
          "time": 573.3323899999999,
          "velocity": 0.8661417322834646
        },
        {
          "duration": 1.0504515000000083,
          "durationTicks": 1792,
          "midi": 41,
          "name": "F2",
          "ticks": 1314816,
          "time": 573.932648,
          "velocity": 0.8661417322834646
        },
        {
          "duration": 1.0504515000000083,
          "durationTicks": 1792,
          "midi": 53,
          "name": "F3",
          "ticks": 1314816,
          "time": 573.932648,
          "velocity": 0.8661417322834646
        },
        {
          "duration": 1.0504515000000083,
          "durationTicks": 1792,
          "midi": 43,
          "name": "G2",
          "ticks": 1316864,
          "time": 575.133164,
          "velocity": 0.8661417322834646
        },
        {
          "duration": 1.0504515000000083,
          "durationTicks": 1792,
          "midi": 45,
          "name": "A2",
          "ticks": 1318912,
          "time": 576.33368,
          "velocity": 0.8661417322834646
        },
        {
          "duration": 1.0504515000000083,
          "durationTicks": 1792,
          "midi": 43,
          "name": "G2",
          "ticks": 1320960,
          "time": 577.534196,
          "velocity": 0.8661417322834646
        },
        {
          "duration": 1.0504515000000083,
          "durationTicks": 1792,
          "midi": 41,
          "name": "F2",
          "ticks": 1323008,
          "time": 578.734712,
          "velocity": 0.8661417322834646
        },
        {
          "duration": 1.0504515000000083,
          "durationTicks": 1792,
          "midi": 53,
          "name": "F3",
          "ticks": 1323008,
          "time": 578.734712,
          "velocity": 0.8661417322834646
        },
        {
          "duration": 0.29368091601565993,
          "durationTicks": 501,
          "midi": 40,
          "name": "E2",
          "ticks": 1325056,
          "time": 579.9352279999999,
          "velocity": 0.8661417322834646
        },
        {
          "duration": 0.29368091601565993,
          "durationTicks": 501,
          "midi": 52,
          "name": "E3",
          "ticks": 1325056,
          "time": 579.9352279999999,
          "velocity": 0.8661417322834646
        },
        {
          "duration": 0.29368091601565993,
          "durationTicks": 501,
          "midi": 43,
          "name": "G2",
          "ticks": 1325568,
          "time": 580.2353569999999,
          "velocity": 0.8661417322834646
        },
        {
          "duration": 0.29368091601554625,
          "durationTicks": 501,
          "midi": 46,
          "name": "A#2",
          "ticks": 1326080,
          "time": 580.535486,
          "velocity": 0.8661417322834646
        },
        {
          "duration": 0.29368091601565993,
          "durationTicks": 501,
          "midi": 44,
          "name": "G#2",
          "ticks": 1326592,
          "time": 580.835615,
          "velocity": 0.8661417322834646
        },
        {
          "duration": 1.0504515000000083,
          "durationTicks": 1792,
          "midi": 45,
          "name": "A2",
          "ticks": 1327104,
          "time": 581.1357439999999,
          "velocity": 0.8661417322834646
        },
        {
          "duration": 3.445035416015685,
          "durationTicks": 5877,
          "midi": 38,
          "name": "D2",
          "ticks": 1329152,
          "time": 582.3362599999999,
          "velocity": 0.8661417322834646
        },
        {
          "duration": 3.445035416015685,
          "durationTicks": 5877,
          "midi": 50,
          "name": "D3",
          "ticks": 1329152,
          "time": 582.3362599999999,
          "velocity": 0.8661417322834646
        },
        {
          "duration": 0.14361641601567499,
          "durationTicks": 245,
          "midi": 52,
          "name": "E3",
          "ticks": 1335040,
          "time": 585.7877434999999,
          "velocity": 0.8661417322834646
        },
        {
          "duration": 0.14361641601567499,
          "durationTicks": 245,
          "midi": 53,
          "name": "F3",
          "ticks": 1335296,
          "time": 585.9378079999999,
          "velocity": 0.8661417322834646
        },
        {
          "duration": 0.1436164160155613,
          "durationTicks": 245,
          "midi": 50,
          "name": "D3",
          "ticks": 1335552,
          "time": 586.0878725,
          "velocity": 0.8661417322834646
        },
        {
          "duration": 0.1436164160155613,
          "durationTicks": 245,
          "midi": 49,
          "name": "C#3",
          "ticks": 1335808,
          "time": 586.237937,
          "velocity": 0.8661417322834646
        },
        {
          "duration": 0.1436164160155613,
          "durationTicks": 245,
          "midi": 50,
          "name": "D3",
          "ticks": 1336064,
          "time": 586.3880015,
          "velocity": 0.8661417322834646
        },
        {
          "duration": 0.1436164160155613,
          "durationTicks": 245,
          "midi": 51,
          "name": "D#3",
          "ticks": 1336320,
          "time": 586.538066,
          "velocity": 0.8661417322834646
        },
        {
          "duration": 0.14361641601567499,
          "durationTicks": 245,
          "midi": 50,
          "name": "D3",
          "ticks": 1336576,
          "time": 586.6881304999999,
          "velocity": 0.8661417322834646
        },
        {
          "duration": 0.14361641601567499,
          "durationTicks": 245,
          "midi": 49,
          "name": "C#3",
          "ticks": 1336832,
          "time": 586.8381949999999,
          "velocity": 0.8661417322834646
        },
        {
          "duration": 0.14361641601567499,
          "durationTicks": 245,
          "midi": 44,
          "name": "G#2",
          "ticks": 1337088,
          "time": 586.9882594999999,
          "velocity": 0.8661417322834646
        },
        {
          "duration": 0.29368091601554625,
          "durationTicks": 501,
          "midi": 45,
          "name": "A2",
          "ticks": 1337344,
          "time": 587.138324,
          "velocity": 0.8661417322834646
        },
        {
          "duration": 0.29368091601554625,
          "durationTicks": 501,
          "midi": 50,
          "name": "D3",
          "ticks": 1337344,
          "time": 587.138324,
          "velocity": 0.8661417322834646
        },
        {
          "duration": 0.29368091601554625,
          "durationTicks": 501,
          "midi": 50,
          "name": "D3",
          "ticks": 1337856,
          "time": 587.438453,
          "velocity": 0.8661417322834646
        },
        {
          "duration": 0.29368091601554625,
          "durationTicks": 501,
          "midi": 53,
          "name": "F3",
          "ticks": 1337856,
          "time": 587.438453,
          "velocity": 0.8661417322834646
        },
        {
          "duration": 0.29368091601565993,
          "durationTicks": 501,
          "midi": 40,
          "name": "E2",
          "ticks": 1338368,
          "time": 587.738582,
          "velocity": 0.8661417322834646
        },
        {
          "duration": 0.29368091601565993,
          "durationTicks": 501,
          "midi": 49,
          "name": "C#3",
          "ticks": 1338368,
          "time": 587.738582,
          "velocity": 0.8661417322834646
        },
        {
          "duration": 0.29368091601565993,
          "durationTicks": 501,
          "midi": 52,
          "name": "E3",
          "ticks": 1338368,
          "time": 587.738582,
          "velocity": 0.8661417322834646
        },
        {
          "duration": 0.29368091601565993,
          "durationTicks": 501,
          "midi": 52,
          "name": "E3",
          "ticks": 1338880,
          "time": 588.0387109999999,
          "velocity": 0.8661417322834646
        },
        {
          "duration": 0.29368091601554625,
          "durationTicks": 501,
          "midi": 41,
          "name": "F2",
          "ticks": 1339392,
          "time": 588.33884,
          "velocity": 0.8661417322834646
        },
        {
          "duration": 0.29368091601554625,
          "durationTicks": 501,
          "midi": 50,
          "name": "D3",
          "ticks": 1339392,
          "time": 588.33884,
          "velocity": 0.8661417322834646
        },
        {
          "duration": 0.29368091601554625,
          "durationTicks": 501,
          "midi": 53,
          "name": "F3",
          "ticks": 1339392,
          "time": 588.33884,
          "velocity": 0.8661417322834646
        },
        {
          "duration": 0.29368091601565993,
          "durationTicks": 501,
          "midi": 53,
          "name": "F3",
          "ticks": 1339904,
          "time": 588.638969,
          "velocity": 0.8661417322834646
        },
        {
          "duration": 0.29368091601565993,
          "durationTicks": 501,
          "midi": 43,
          "name": "G2",
          "ticks": 1340416,
          "time": 588.939098,
          "velocity": 0.8661417322834646
        },
        {
          "duration": 0.29368091601565993,
          "durationTicks": 501,
          "midi": 52,
          "name": "E3",
          "ticks": 1340928,
          "time": 589.2392269999999,
          "velocity": 0.8661417322834646
        },
        {
          "duration": 0.500019603515625,
          "durationTicks": 853,
          "midi": 45,
          "name": "A2",
          "ticks": 1341440,
          "time": 589.539356,
          "velocity": 0.8661417322834646
        },
        {
          "duration": 1.0504515000000083,
          "durationTicks": 1792,
          "midi": 38,
          "name": "D2",
          "ticks": 1355776,
          "time": 597.942968,
          "velocity": 0.8661417322834646
        },
        {
          "duration": 1.0504515000000083,
          "durationTicks": 1792,
          "midi": 50,
          "name": "D3",
          "ticks": 1355776,
          "time": 597.942968,
          "velocity": 0.8661417322834646
        },
        {
          "duration": 0.29368091601565993,
          "durationTicks": 501,
          "midi": 39,
          "name": "D#2",
          "ticks": 1357824,
          "time": 599.143484,
          "velocity": 0.8661417322834646
        },
        {
          "duration": 0.29368091601565993,
          "durationTicks": 501,
          "midi": 51,
          "name": "D#3",
          "ticks": 1357824,
          "time": 599.143484,
          "velocity": 0.8661417322834646
        },
        {
          "duration": 0.29368091601565993,
          "durationTicks": 501,
          "midi": 38,
          "name": "D2",
          "ticks": 1358336,
          "time": 599.4436129999999,
          "velocity": 0.8661417322834646
        },
        {
          "duration": 0.29368091601565993,
          "durationTicks": 501,
          "midi": 50,
          "name": "D3",
          "ticks": 1358336,
          "time": 599.4436129999999,
          "velocity": 0.8661417322834646
        },
        {
          "duration": 0.29368091601554625,
          "durationTicks": 501,
          "midi": 49,
          "name": "C#3",
          "ticks": 1358848,
          "time": 599.743742,
          "velocity": 0.8661417322834646
        },
        {
          "duration": 0.29368091601565993,
          "durationTicks": 501,
          "midi": 44,
          "name": "G#2",
          "ticks": 1359360,
          "time": 600.043871,
          "velocity": 0.8661417322834646
        },
        {
          "duration": 2.2509675000000016,
          "durationTicks": 3840,
          "midi": 45,
          "name": "A2",
          "ticks": 1359872,
          "time": 600.3439999999999,
          "velocity": 0.8661417322834646
        },
        {
          "duration": 1.0504515000000083,
          "durationTicks": 1792,
          "midi": 44,
          "name": "G#2",
          "ticks": 1363968,
          "time": 602.7450319999999,
          "velocity": 0.8661417322834646
        },
        {
          "duration": 0.29368091601565993,
          "durationTicks": 501,
          "midi": 45,
          "name": "A2",
          "ticks": 1366016,
          "time": 603.9455479999999,
          "velocity": 0.8661417322834646
        },
        {
          "duration": 0.29368091601554625,
          "durationTicks": 501,
          "midi": 44,
          "name": "G#2",
          "ticks": 1366528,
          "time": 604.245677,
          "velocity": 0.8661417322834646
        },
        {
          "duration": 0.29368091601565993,
          "durationTicks": 501,
          "midi": 43,
          "name": "G2",
          "ticks": 1367040,
          "time": 604.545806,
          "velocity": 0.8661417322834646
        },
        {
          "duration": 0.29368091601565993,
          "durationTicks": 501,
          "midi": 49,
          "name": "C#3",
          "ticks": 1367552,
          "time": 604.8459349999999,
          "velocity": 0.8661417322834646
        },
        {
          "duration": 2.2509675000000016,
          "durationTicks": 3840,
          "midi": 38,
          "name": "D2",
          "ticks": 1368064,
          "time": 605.1460639999999,
          "velocity": 0.8661417322834646
        },
        {
          "duration": 2.2509675000000016,
          "durationTicks": 3840,
          "midi": 50,
          "name": "D3",
          "ticks": 1368064,
          "time": 605.1460639999999,
          "velocity": 0.8661417322834646
        },
        {
          "duration": 1.0504514999998946,
          "durationTicks": 1792,
          "midi": 38,
          "name": "D2",
          "ticks": 1372160,
          "time": 607.547096,
          "velocity": 0.8661417322834646
        },
        {
          "duration": 1.0504514999998946,
          "durationTicks": 1792,
          "midi": 50,
          "name": "D3",
          "ticks": 1372160,
          "time": 607.547096,
          "velocity": 0.8661417322834646
        },
        {
          "duration": 0.29368091601554625,
          "durationTicks": 501,
          "midi": 51,
          "name": "D#3",
          "ticks": 1374208,
          "time": 608.747612,
          "velocity": 0.8661417322834646
        },
        {
          "duration": 0.29368091601565993,
          "durationTicks": 501,
          "midi": 50,
          "name": "D3",
          "ticks": 1374720,
          "time": 609.047741,
          "velocity": 0.8661417322834646
        },
        {
          "duration": 0.29368091601565993,
          "durationTicks": 501,
          "midi": 49,
          "name": "C#3",
          "ticks": 1375232,
          "time": 609.34787,
          "velocity": 0.8661417322834646
        },
        {
          "duration": 0.29368091601565993,
          "durationTicks": 501,
          "midi": 44,
          "name": "G#2",
          "ticks": 1375744,
          "time": 609.6479989999999,
          "velocity": 0.8661417322834646
        },
        {
          "duration": 2.2509675000000016,
          "durationTicks": 3840,
          "midi": 40,
          "name": "E2",
          "ticks": 1376256,
          "time": 609.948128,
          "velocity": 0.8661417322834646
        },
        {
          "duration": 2.2509675000000016,
          "durationTicks": 3840,
          "midi": 45,
          "name": "A2",
          "ticks": 1376256,
          "time": 609.948128,
          "velocity": 0.8661417322834646
        },
        {
          "duration": 2.2509675000000016,
          "durationTicks": 3840,
          "midi": 52,
          "name": "E3",
          "ticks": 1376256,
          "time": 609.948128,
          "velocity": 0.8661417322834646
        },
        {
          "duration": 1.0504515000000083,
          "durationTicks": 1792,
          "midi": 41,
          "name": "F2",
          "ticks": 1380352,
          "time": 612.34916,
          "velocity": 0.8661417322834646
        },
        {
          "duration": 1.0504515000000083,
          "durationTicks": 1792,
          "midi": 44,
          "name": "G#2",
          "ticks": 1380352,
          "time": 612.34916,
          "velocity": 0.8661417322834646
        },
        {
          "duration": 1.0504515000000083,
          "durationTicks": 1792,
          "midi": 53,
          "name": "F3",
          "ticks": 1380352,
          "time": 612.34916,
          "velocity": 0.8661417322834646
        },
        {
          "duration": 0.29368091601565993,
          "durationTicks": 501,
          "midi": 45,
          "name": "A2",
          "ticks": 1382400,
          "time": 613.549676,
          "velocity": 0.8661417322834646
        },
        {
          "duration": 0.29368091601565993,
          "durationTicks": 501,
          "midi": 44,
          "name": "G#2",
          "ticks": 1382912,
          "time": 613.849805,
          "velocity": 0.8661417322834646
        },
        {
          "duration": 0.29368091601565993,
          "durationTicks": 501,
          "midi": 40,
          "name": "E2",
          "ticks": 1383424,
          "time": 614.1499339999999,
          "velocity": 0.8661417322834646
        },
        {
          "duration": 0.29368091601565993,
          "durationTicks": 501,
          "midi": 43,
          "name": "G2",
          "ticks": 1383424,
          "time": 614.1499339999999,
          "velocity": 0.8661417322834646
        },
        {
          "duration": 0.29368091601565993,
          "durationTicks": 501,
          "midi": 52,
          "name": "E3",
          "ticks": 1383424,
          "time": 614.1499339999999,
          "velocity": 0.8661417322834646
        },
        {
          "duration": 0.29368091601554625,
          "durationTicks": 501,
          "midi": 49,
          "name": "C#3",
          "ticks": 1383936,
          "time": 614.450063,
          "velocity": 0.8661417322834646
        },
        {
          "duration": 2.2509675000000016,
          "durationTicks": 3840,
          "midi": 38,
          "name": "D2",
          "ticks": 1384448,
          "time": 614.750192,
          "velocity": 0.8661417322834646
        },
        {
          "duration": 2.2509675000000016,
          "durationTicks": 3840,
          "midi": 50,
          "name": "D3",
          "ticks": 1384448,
          "time": 614.750192,
          "velocity": 0.8661417322834646
        },
        {
          "duration": 2.2509675000000016,
          "durationTicks": 3840,
          "midi": 53,
          "name": "F3",
          "ticks": 1384448,
          "time": 614.750192,
          "velocity": 0.8661417322834646
        },
        {
          "duration": 2.0463337500000307,
          "durationTicks": 3840,
          "midi": 36,
          "name": "C2",
          "ticks": 1421312,
          "time": 631.5574159999999,
          "velocity": 0.8661417322834646
        },
        {
          "duration": 2.046333749999917,
          "durationTicks": 3840,
          "midi": 41,
          "name": "F2",
          "ticks": 1425408,
          "time": 633.7401719999999,
          "velocity": 0.8661417322834646
        },
        {
          "duration": 2.0463337500000307,
          "durationTicks": 3840,
          "midi": 36,
          "name": "C2",
          "ticks": 1429504,
          "time": 635.9229279999998,
          "velocity": 0.8661417322834646
        },
        {
          "duration": 0.9549557499999537,
          "durationTicks": 1792,
          "midi": 41,
          "name": "F2",
          "ticks": 1433600,
          "time": 638.1056839999999,
          "velocity": 0.8661417322834646
        },
        {
          "duration": 0.9549557500000674,
          "durationTicks": 1792,
          "midi": 43,
          "name": "G2",
          "ticks": 1435648,
          "time": 639.1970619999998,
          "velocity": 0.8661417322834646
        },
        {
          "duration": 2.046333749999917,
          "durationTicks": 3840,
          "midi": 36,
          "name": "C2",
          "ticks": 1437696,
          "time": 640.2884399999999,
          "velocity": 0.8661417322834646
        },
        {
          "duration": 0.9549557500000674,
          "durationTicks": 1792,
          "midi": 41,
          "name": "F2",
          "ticks": 1441792,
          "time": 642.4711959999998,
          "velocity": 0.8661417322834646
        },
        {
          "duration": 0.2669826064452536,
          "durationTicks": 501,
          "midi": 43,
          "name": "G2",
          "ticks": 1443840,
          "time": 643.5625739999999,
          "velocity": 0.8661417322834646
        },
        {
          "duration": 0.2669826064453673,
          "durationTicks": 501,
          "midi": 43,
          "name": "G2",
          "ticks": 1444352,
          "time": 643.8354184999998,
          "velocity": 0.8661417322834646
        },
        {
          "duration": 0.3351937314453153,
          "durationTicks": 629,
          "midi": 43,
          "name": "G2",
          "ticks": 1445248,
          "time": 644.3128963749999,
          "velocity": 0.8661417322834646
        },
        {
          "duration": 0.2669826064452536,
          "durationTicks": 501,
          "midi": 36,
          "name": "C2",
          "ticks": 1445888,
          "time": 644.6539519999999,
          "velocity": 0.8661417322834646
        },
        {
          "duration": 0.2669826064452536,
          "durationTicks": 501,
          "midi": 36,
          "name": "C2",
          "ticks": 1446400,
          "time": 644.9267964999999,
          "velocity": 0.8661417322834646
        },
        {
          "duration": 0.2669826064452536,
          "durationTicks": 501,
          "midi": 36,
          "name": "C2",
          "ticks": 1446912,
          "time": 645.1996409999999,
          "velocity": 0.8661417322834646
        },
        {
          "duration": 0.2669826064453673,
          "durationTicks": 501,
          "midi": 36,
          "name": "C2",
          "ticks": 1447424,
          "time": 645.4724854999998,
          "velocity": 0.8661417322834646
        },
        {
          "duration": 0.2669826064453673,
          "durationTicks": 501,
          "midi": 38,
          "name": "D2",
          "ticks": 1447936,
          "time": 645.7453299999999,
          "velocity": 0.8661417322834646
        },
        {
          "duration": 0.2669826064453673,
          "durationTicks": 501,
          "midi": 38,
          "name": "D2",
          "ticks": 1448448,
          "time": 646.0181744999999,
          "velocity": 0.8661417322834646
        },
        {
          "duration": 0.2669826064452536,
          "durationTicks": 501,
          "midi": 38,
          "name": "D2",
          "ticks": 1448960,
          "time": 646.2910189999999,
          "velocity": 0.8661417322834646
        },
        {
          "duration": 0.2669826064452536,
          "durationTicks": 501,
          "midi": 38,
          "name": "D2",
          "ticks": 1449472,
          "time": 646.5638634999999,
          "velocity": 0.8661417322834646
        },
        {
          "duration": 0.2669826064452536,
          "durationTicks": 501,
          "midi": 40,
          "name": "E2",
          "ticks": 1449984,
          "time": 646.8367079999999,
          "velocity": 0.8661417322834646
        },
        {
          "duration": 0.2669826064453673,
          "durationTicks": 501,
          "midi": 40,
          "name": "E2",
          "ticks": 1450496,
          "time": 647.1095524999998,
          "velocity": 0.8661417322834646
        },
        {
          "duration": 0.2669826064453673,
          "durationTicks": 501,
          "midi": 40,
          "name": "E2",
          "ticks": 1451008,
          "time": 647.3823969999999,
          "velocity": 0.8661417322834646
        },
        {
          "duration": 0.2669826064453673,
          "durationTicks": 501,
          "midi": 40,
          "name": "E2",
          "ticks": 1451520,
          "time": 647.6552414999999,
          "velocity": 0.8661417322834646
        },
        {
          "duration": 0.2669826064452536,
          "durationTicks": 501,
          "midi": 36,
          "name": "C2",
          "ticks": 1452032,
          "time": 647.9280859999999,
          "velocity": 0.8661417322834646
        },
        {
          "duration": 0.2669826064452536,
          "durationTicks": 501,
          "midi": 36,
          "name": "C2",
          "ticks": 1452544,
          "time": 648.2009304999999,
          "velocity": 0.8661417322834646
        },
        {
          "duration": 0.2669826064452536,
          "durationTicks": 501,
          "midi": 36,
          "name": "C2",
          "ticks": 1453056,
          "time": 648.4737749999999,
          "velocity": 0.8661417322834646
        },
        {
          "duration": 0.2669826064453673,
          "durationTicks": 501,
          "midi": 36,
          "name": "C2",
          "ticks": 1453568,
          "time": 648.7466194999998,
          "velocity": 0.8661417322834646
        },
        {
          "duration": 0.2669826064453673,
          "durationTicks": 501,
          "midi": 41,
          "name": "F2",
          "ticks": 1454080,
          "time": 649.0194639999999,
          "velocity": 0.8661417322834646
        },
        {
          "duration": 0.2669826064453673,
          "durationTicks": 501,
          "midi": 41,
          "name": "F2",
          "ticks": 1454592,
          "time": 649.2923084999999,
          "velocity": 0.8661417322834646
        },
        {
          "duration": 0.2669826064452536,
          "durationTicks": 501,
          "midi": 41,
          "name": "F2",
          "ticks": 1455104,
          "time": 649.5651529999999,
          "velocity": 0.8661417322834646
        },
        {
          "duration": 0.2669826064452536,
          "durationTicks": 501,
          "midi": 41,
          "name": "F2",
          "ticks": 1455616,
          "time": 649.8379974999999,
          "velocity": 0.8661417322834646
        },
        {
          "duration": 0.2669826064453673,
          "durationTicks": 501,
          "midi": 43,
          "name": "G2",
          "ticks": 1456128,
          "time": 650.1108419999998,
          "velocity": 0.8661417322834646
        },
        {
          "duration": 0.2669826064453673,
          "durationTicks": 501,
          "midi": 43,
          "name": "G2",
          "ticks": 1456640,
          "time": 650.3836864999998,
          "velocity": 0.8661417322834646
        },
        {
          "duration": 0.2669826064453673,
          "durationTicks": 501,
          "midi": 43,
          "name": "G2",
          "ticks": 1457152,
          "time": 650.6565309999999,
          "velocity": 0.8661417322834646
        },
        {
          "duration": 0.2669826064452536,
          "durationTicks": 501,
          "midi": 43,
          "name": "G2",
          "ticks": 1457664,
          "time": 650.9293754999999,
          "velocity": 0.8661417322834646
        },
        {
          "duration": 0.2669826064452536,
          "durationTicks": 501,
          "midi": 36,
          "name": "C2",
          "ticks": 1458176,
          "time": 651.2022199999999,
          "velocity": 0.8661417322834646
        },
        {
          "duration": 0.2669826064452536,
          "durationTicks": 501,
          "midi": 36,
          "name": "C2",
          "ticks": 1458688,
          "time": 651.4750644999999,
          "velocity": 0.8661417322834646
        },
        {
          "duration": 0.2669826064453673,
          "durationTicks": 501,
          "midi": 36,
          "name": "C2",
          "ticks": 1459200,
          "time": 651.7479089999998,
          "velocity": 0.8661417322834646
        },
        {
          "duration": 0.2669826064453673,
          "durationTicks": 501,
          "midi": 36,
          "name": "C2",
          "ticks": 1459712,
          "time": 652.0207534999998,
          "velocity": 0.8661417322834646
        },
        {
          "duration": 0.2669826064453673,
          "durationTicks": 501,
          "midi": 36,
          "name": "C2",
          "ticks": 1460224,
          "time": 652.2935979999999,
          "velocity": 0.8661417322834646
        },
        {
          "duration": 0.2669826064452536,
          "durationTicks": 501,
          "midi": 36,
          "name": "C2",
          "ticks": 1460736,
          "time": 652.5664424999999,
          "velocity": 0.8661417322834646
        },
        {
          "duration": 0.130560356445244,
          "durationTicks": 245,
          "midi": 38,
          "name": "D2",
          "ticks": 1461248,
          "time": 652.8392869999999,
          "velocity": 0.8661417322834646
        },
        {
          "duration": 0.40340485644526325,
          "durationTicks": 757,
          "midi": 40,
          "name": "E2",
          "ticks": 1461504,
          "time": 652.9757092499999,
          "velocity": 0.8661417322834646
        },
        {
          "duration": 0.2669826064453673,
          "durationTicks": 501,
          "midi": 41,
          "name": "F2",
          "ticks": 1462272,
          "time": 653.3849759999998,
          "velocity": 0.8661417322834646
        },
        {
          "duration": 0.2669826064453673,
          "durationTicks": 501,
          "midi": 41,
          "name": "F2",
          "ticks": 1462784,
          "time": 653.6578204999998,
          "velocity": 0.8661417322834646
        },
        {
          "duration": 0.2669826064453673,
          "durationTicks": 501,
          "midi": 41,
          "name": "F2",
          "ticks": 1463296,
          "time": 653.9306649999999,
          "velocity": 0.8661417322834646
        },
        {
          "duration": 0.2669826064452536,
          "durationTicks": 501,
          "midi": 41,
          "name": "F2",
          "ticks": 1463808,
          "time": 654.2035094999999,
          "velocity": 0.8661417322834646
        },
        {
          "duration": 0.2669826064452536,
          "durationTicks": 501,
          "midi": 43,
          "name": "G2",
          "ticks": 1464320,
          "time": 654.4763539999999,
          "velocity": 0.8661417322834646
        },
        {
          "duration": 0.2669826064452536,
          "durationTicks": 501,
          "midi": 43,
          "name": "G2",
          "ticks": 1464832,
          "time": 654.7491984999999,
          "velocity": 0.8661417322834646
        },
        {
          "duration": 0.2669826064453673,
          "durationTicks": 501,
          "midi": 43,
          "name": "G2",
          "ticks": 1465344,
          "time": 655.0220429999998,
          "velocity": 0.8661417322834646
        },
        {
          "duration": 0.2669826064453673,
          "durationTicks": 501,
          "midi": 43,
          "name": "G2",
          "ticks": 1465856,
          "time": 655.2948874999998,
          "velocity": 0.8661417322834646
        },
        {
          "duration": 0.2669826064453673,
          "durationTicks": 501,
          "midi": 40,
          "name": "E2",
          "ticks": 1466368,
          "time": 655.5677319999999,
          "velocity": 0.8661417322834646
        },
        {
          "duration": 0.2669826064452536,
          "durationTicks": 501,
          "midi": 40,
          "name": "E2",
          "ticks": 1466880,
          "time": 655.8405764999999,
          "velocity": 0.8661417322834646
        },
        {
          "duration": 0.2669826064452536,
          "durationTicks": 501,
          "midi": 40,
          "name": "E2",
          "ticks": 1467392,
          "time": 656.1134209999999,
          "velocity": 0.8661417322834646
        },
        {
          "duration": 0.2669826064452536,
          "durationTicks": 501,
          "midi": 40,
          "name": "E2",
          "ticks": 1467904,
          "time": 656.3862654999999,
          "velocity": 0.8661417322834646
        },
        {
          "duration": 0.2669826064453673,
          "durationTicks": 501,
          "midi": 36,
          "name": "C2",
          "ticks": 1468416,
          "time": 656.6591099999998,
          "velocity": 0.8661417322834646
        },
        {
          "duration": 0.2669826064453673,
          "durationTicks": 501,
          "midi": 36,
          "name": "C2",
          "ticks": 1468928,
          "time": 656.9319544999998,
          "velocity": 0.8661417322834646
        },
        {
          "duration": 0.2669826064453673,
          "durationTicks": 501,
          "midi": 36,
          "name": "C2",
          "ticks": 1469440,
          "time": 657.2047989999999,
          "velocity": 0.8661417322834646
        },
        {
          "duration": 0.2669826064452536,
          "durationTicks": 501,
          "midi": 36,
          "name": "C2",
          "ticks": 1469952,
          "time": 657.4776434999999,
          "velocity": 0.8661417322834646
        },
        {
          "duration": 0.2669826064452536,
          "durationTicks": 501,
          "midi": 34,
          "name": "A#1",
          "ticks": 1470464,
          "time": 657.7504879999999,
          "velocity": 0.8661417322834646
        },
        {
          "duration": 0.2669826064452536,
          "durationTicks": 501,
          "midi": 34,
          "name": "A#1",
          "ticks": 1470976,
          "time": 658.0233324999999,
          "velocity": 0.8661417322834646
        },
        {
          "duration": 0.2669826064453673,
          "durationTicks": 501,
          "midi": 34,
          "name": "A#1",
          "ticks": 1471488,
          "time": 658.2961769999998,
          "velocity": 0.8661417322834646
        },
        {
          "duration": 0.2669826064453673,
          "durationTicks": 501,
          "midi": 34,
          "name": "A#1",
          "ticks": 1472000,
          "time": 658.5690214999998,
          "velocity": 0.8661417322834646
        },
        {
          "duration": 0.2669826064453673,
          "durationTicks": 501,
          "midi": 34,
          "name": "A#1",
          "ticks": 1472512,
          "time": 658.8418659999999,
          "velocity": 0.8661417322834646
        },
        {
          "duration": 0.2669826064452536,
          "durationTicks": 501,
          "midi": 34,
          "name": "A#1",
          "ticks": 1473024,
          "time": 659.1147104999999,
          "velocity": 0.8661417322834646
        },
        {
          "duration": 0.2669826064452536,
          "durationTicks": 501,
          "midi": 34,
          "name": "A#1",
          "ticks": 1473536,
          "time": 659.3875549999999,
          "velocity": 0.8661417322834646
        },
        {
          "duration": 0.2669826064452536,
          "durationTicks": 501,
          "midi": 34,
          "name": "A#1",
          "ticks": 1474048,
          "time": 659.6603994999999,
          "velocity": 0.8661417322834646
        },
        {
          "duration": 0.2669826064453673,
          "durationTicks": 501,
          "midi": 38,
          "name": "D2",
          "ticks": 1474560,
          "time": 659.9332439999998,
          "velocity": 0.8661417322834646
        },
        {
          "duration": 0.2669826064453673,
          "durationTicks": 501,
          "midi": 38,
          "name": "D2",
          "ticks": 1475072,
          "time": 660.2060884999999,
          "velocity": 0.8661417322834646
        },
        {
          "duration": 0.2669826064453673,
          "durationTicks": 501,
          "midi": 38,
          "name": "D2",
          "ticks": 1475584,
          "time": 660.4789329999999,
          "velocity": 0.8661417322834646
        },
        {
          "duration": 0.2669826064452536,
          "durationTicks": 501,
          "midi": 38,
          "name": "D2",
          "ticks": 1476096,
          "time": 660.7517774999999,
          "velocity": 0.8661417322834646
        },
        {
          "duration": 0.2669826064452536,
          "durationTicks": 501,
          "midi": 43,
          "name": "G2",
          "ticks": 1476608,
          "time": 661.0246219999999,
          "velocity": 0.8661417322834646
        },
        {
          "duration": 0.2669826064452536,
          "durationTicks": 501,
          "midi": 43,
          "name": "G2",
          "ticks": 1477120,
          "time": 661.2974664999999,
          "velocity": 0.8661417322834646
        },
        {
          "duration": 0.2669826064453673,
          "durationTicks": 501,
          "midi": 43,
          "name": "G2",
          "ticks": 1477632,
          "time": 661.5703109999998,
          "velocity": 0.8661417322834646
        },
        {
          "duration": 0.2669826064453673,
          "durationTicks": 501,
          "midi": 43,
          "name": "G2",
          "ticks": 1478144,
          "time": 661.8431554999999,
          "velocity": 0.8661417322834646
        },
        {
          "duration": 0.2669826064453673,
          "durationTicks": 501,
          "midi": 36,
          "name": "C2",
          "ticks": 1478656,
          "time": 662.1159999999999,
          "velocity": 0.8661417322834646
        },
        {
          "duration": 0.2669826064452536,
          "durationTicks": 501,
          "midi": 36,
          "name": "C2",
          "ticks": 1479168,
          "time": 662.3888444999999,
          "velocity": 0.8661417322834646
        },
        {
          "duration": 0.2669826064452536,
          "durationTicks": 501,
          "midi": 36,
          "name": "C2",
          "ticks": 1479680,
          "time": 662.6616889999999,
          "velocity": 0.8661417322834646
        },
        {
          "duration": 0.2669826064453673,
          "durationTicks": 501,
          "midi": 36,
          "name": "C2",
          "ticks": 1480192,
          "time": 662.9345334999998,
          "velocity": 0.8661417322834646
        },
        {
          "duration": 0.2669826064453673,
          "durationTicks": 501,
          "midi": 38,
          "name": "D2",
          "ticks": 1480704,
          "time": 663.2073779999998,
          "velocity": 0.8661417322834646
        },
        {
          "duration": 0.2669826064453673,
          "durationTicks": 501,
          "midi": 38,
          "name": "D2",
          "ticks": 1481216,
          "time": 663.4802224999999,
          "velocity": 0.8661417322834646
        },
        {
          "duration": 0.2669826064452536,
          "durationTicks": 501,
          "midi": 38,
          "name": "D2",
          "ticks": 1481728,
          "time": 663.7530669999999,
          "velocity": 0.8661417322834646
        },
        {
          "duration": 0.2669826064452536,
          "durationTicks": 501,
          "midi": 38,
          "name": "D2",
          "ticks": 1482240,
          "time": 664.0259114999999,
          "velocity": 0.8661417322834646
        },
        {
          "duration": 0.2669826064452536,
          "durationTicks": 501,
          "midi": 40,
          "name": "E2",
          "ticks": 1482752,
          "time": 664.2987559999999,
          "velocity": 0.8661417322834646
        },
        {
          "duration": 0.2669826064452536,
          "durationTicks": 501,
          "midi": 40,
          "name": "E2",
          "ticks": 1483264,
          "time": 664.5716004999999,
          "velocity": 0.8661417322834646
        },
        {
          "duration": 0.2669826064453673,
          "durationTicks": 501,
          "midi": 40,
          "name": "E2",
          "ticks": 1483776,
          "time": 664.8444449999998,
          "velocity": 0.8661417322834646
        },
        {
          "duration": 0.2669826064453673,
          "durationTicks": 501,
          "midi": 40,
          "name": "E2",
          "ticks": 1484288,
          "time": 665.1172894999999,
          "velocity": 0.8661417322834646
        },
        {
          "duration": 0.2669826064453673,
          "durationTicks": 501,
          "midi": 36,
          "name": "C2",
          "ticks": 1484800,
          "time": 665.3901339999999,
          "velocity": 0.8661417322834646
        },
        {
          "duration": 0.2669826064452536,
          "durationTicks": 501,
          "midi": 36,
          "name": "C2",
          "ticks": 1485312,
          "time": 665.6629784999999,
          "velocity": 0.8661417322834646
        },
        {
          "duration": 0.2669826064452536,
          "durationTicks": 501,
          "midi": 36,
          "name": "C2",
          "ticks": 1485824,
          "time": 665.9358229999999,
          "velocity": 0.8661417322834646
        },
        {
          "duration": 0.2669826064453673,
          "durationTicks": 501,
          "midi": 36,
          "name": "C2",
          "ticks": 1486336,
          "time": 666.2086674999998,
          "velocity": 0.8661417322834646
        },
        {
          "duration": 0.2669826064453673,
          "durationTicks": 501,
          "midi": 41,
          "name": "F2",
          "ticks": 1486848,
          "time": 666.4815119999998,
          "velocity": 0.8661417322834646
        },
        {
          "duration": 0.2669826064453673,
          "durationTicks": 501,
          "midi": 41,
          "name": "F2",
          "ticks": 1487360,
          "time": 666.7543564999999,
          "velocity": 0.8661417322834646
        },
        {
          "duration": 0.2669826064452536,
          "durationTicks": 501,
          "midi": 41,
          "name": "F2",
          "ticks": 1487872,
          "time": 667.0272009999999,
          "velocity": 0.8661417322834646
        },
        {
          "duration": 0.2669826064452536,
          "durationTicks": 501,
          "midi": 41,
          "name": "F2",
          "ticks": 1488384,
          "time": 667.3000454999999,
          "velocity": 0.8661417322834646
        },
        {
          "duration": 0.2669826064452536,
          "durationTicks": 501,
          "midi": 43,
          "name": "G2",
          "ticks": 1488896,
          "time": 667.5728899999999,
          "velocity": 0.8661417322834646
        },
        {
          "duration": 0.2669826064453673,
          "durationTicks": 501,
          "midi": 43,
          "name": "G2",
          "ticks": 1489408,
          "time": 667.8457344999998,
          "velocity": 0.8661417322834646
        },
        {
          "duration": 0.2669826064453673,
          "durationTicks": 501,
          "midi": 43,
          "name": "G2",
          "ticks": 1489920,
          "time": 668.1185789999998,
          "velocity": 0.8661417322834646
        },
        {
          "duration": 0.2669826064453673,
          "durationTicks": 501,
          "midi": 43,
          "name": "G2",
          "ticks": 1490432,
          "time": 668.3914234999999,
          "velocity": 0.8661417322834646
        },
        {
          "duration": 0.2669826064453673,
          "durationTicks": 501,
          "midi": 36,
          "name": "C2",
          "ticks": 1490944,
          "time": 668.6642679999999,
          "velocity": 0.8661417322834646
        },
        {
          "duration": 0.2669826064452536,
          "durationTicks": 501,
          "midi": 36,
          "name": "C2",
          "ticks": 1491456,
          "time": 668.9371124999999,
          "velocity": 0.8661417322834646
        },
        {
          "duration": 0.2669826064452536,
          "durationTicks": 501,
          "midi": 36,
          "name": "C2",
          "ticks": 1491968,
          "time": 669.2099569999999,
          "velocity": 0.8661417322834646
        },
        {
          "duration": 0.2669826064453673,
          "durationTicks": 501,
          "midi": 36,
          "name": "C2",
          "ticks": 1492480,
          "time": 669.4828014999998,
          "velocity": 0.8661417322834646
        },
        {
          "duration": 0.2669826064453673,
          "durationTicks": 501,
          "midi": 36,
          "name": "C2",
          "ticks": 1492992,
          "time": 669.7556459999998,
          "velocity": 0.8661417322834646
        },
        {
          "duration": 0.2669826064453673,
          "durationTicks": 501,
          "midi": 36,
          "name": "C2",
          "ticks": 1493504,
          "time": 670.0284904999999,
          "velocity": 0.8661417322834646
        },
        {
          "duration": 0.13056035644535768,
          "durationTicks": 245,
          "midi": 38,
          "name": "D2",
          "ticks": 1494016,
          "time": 670.3013349999999,
          "velocity": 0.8661417322834646
        },
        {
          "duration": 0.40340485644526325,
          "durationTicks": 757,
          "midi": 40,
          "name": "E2",
          "ticks": 1494272,
          "time": 670.4377572499999,
          "velocity": 0.8661417322834646
        },
        {
          "duration": 0.2669826064452536,
          "durationTicks": 501,
          "midi": 41,
          "name": "F2",
          "ticks": 1495040,
          "time": 670.8470239999999,
          "velocity": 0.8661417322834646
        },
        {
          "duration": 0.2669826064453673,
          "durationTicks": 501,
          "midi": 41,
          "name": "F2",
          "ticks": 1495552,
          "time": 671.1198684999998,
          "velocity": 0.8661417322834646
        },
        {
          "duration": 0.2669826064453673,
          "durationTicks": 501,
          "midi": 41,
          "name": "F2",
          "ticks": 1496064,
          "time": 671.3927129999998,
          "velocity": 0.8661417322834646
        },
        {
          "duration": 0.2669826064453673,
          "durationTicks": 501,
          "midi": 41,
          "name": "F2",
          "ticks": 1496576,
          "time": 671.6655574999999,
          "velocity": 0.8661417322834646
        },
        {
          "duration": 0.2669826064452536,
          "durationTicks": 501,
          "midi": 43,
          "name": "G2",
          "ticks": 1497088,
          "time": 671.9384019999999,
          "velocity": 0.8661417322834646
        },
        {
          "duration": 0.2669826064452536,
          "durationTicks": 501,
          "midi": 43,
          "name": "G2",
          "ticks": 1497600,
          "time": 672.2112464999999,
          "velocity": 0.8661417322834646
        },
        {
          "duration": 0.2669826064452536,
          "durationTicks": 501,
          "midi": 43,
          "name": "G2",
          "ticks": 1498112,
          "time": 672.4840909999999,
          "velocity": 0.8661417322834646
        },
        {
          "duration": 0.2669826064453673,
          "durationTicks": 501,
          "midi": 43,
          "name": "G2",
          "ticks": 1498624,
          "time": 672.7569354999998,
          "velocity": 0.8661417322834646
        },
        {
          "duration": 0.2669826064453673,
          "durationTicks": 501,
          "midi": 40,
          "name": "E2",
          "ticks": 1499136,
          "time": 673.0297799999998,
          "velocity": 0.8661417322834646
        },
        {
          "duration": 0.2669826064453673,
          "durationTicks": 501,
          "midi": 40,
          "name": "E2",
          "ticks": 1499648,
          "time": 673.3026244999999,
          "velocity": 0.8661417322834646
        },
        {
          "duration": 0.2669826064452536,
          "durationTicks": 501,
          "midi": 40,
          "name": "E2",
          "ticks": 1500160,
          "time": 673.5754689999999,
          "velocity": 0.8661417322834646
        },
        {
          "duration": 0.2669826064452536,
          "durationTicks": 501,
          "midi": 40,
          "name": "E2",
          "ticks": 1500672,
          "time": 673.8483134999999,
          "velocity": 0.8661417322834646
        },
        {
          "duration": 0.2669826064452536,
          "durationTicks": 501,
          "midi": 36,
          "name": "C2",
          "ticks": 1501184,
          "time": 674.1211579999999,
          "velocity": 0.8661417322834646
        },
        {
          "duration": 0.2669826064453673,
          "durationTicks": 501,
          "midi": 36,
          "name": "C2",
          "ticks": 1501696,
          "time": 674.3940024999998,
          "velocity": 0.8661417322834646
        },
        {
          "duration": 0.2669826064453673,
          "durationTicks": 501,
          "midi": 36,
          "name": "C2",
          "ticks": 1502208,
          "time": 674.6668469999998,
          "velocity": 0.8661417322834646
        },
        {
          "duration": 0.2669826064453673,
          "durationTicks": 501,
          "midi": 36,
          "name": "C2",
          "ticks": 1502720,
          "time": 674.9396914999999,
          "velocity": 0.8661417322834646
        },
        {
          "duration": 0.2669826064452536,
          "durationTicks": 501,
          "midi": 38,
          "name": "D2",
          "ticks": 1503232,
          "time": 675.2125359999999,
          "velocity": 0.8661417322834646
        },
        {
          "duration": 0.2669826064452536,
          "durationTicks": 501,
          "midi": 38,
          "name": "D2",
          "ticks": 1503744,
          "time": 675.4853804999999,
          "velocity": 0.8661417322834646
        },
        {
          "duration": 0.2669826064452536,
          "durationTicks": 501,
          "midi": 38,
          "name": "D2",
          "ticks": 1504256,
          "time": 675.7582249999999,
          "velocity": 0.8661417322834646
        },
        {
          "duration": 0.2669826064453673,
          "durationTicks": 501,
          "midi": 38,
          "name": "D2",
          "ticks": 1504768,
          "time": 676.0310694999998,
          "velocity": 0.8661417322834646
        },
        {
          "duration": 0.2669826064453673,
          "durationTicks": 501,
          "midi": 43,
          "name": "G2",
          "ticks": 1505280,
          "time": 676.3039139999998,
          "velocity": 0.8661417322834646
        },
        {
          "duration": 0.2669826064453673,
          "durationTicks": 501,
          "midi": 43,
          "name": "G2",
          "ticks": 1505792,
          "time": 676.5767584999999,
          "velocity": 0.8661417322834646
        },
        {
          "duration": 0.2669826064452536,
          "durationTicks": 501,
          "midi": 43,
          "name": "G2",
          "ticks": 1506304,
          "time": 676.8496029999999,
          "velocity": 0.8661417322834646
        },
        {
          "duration": 0.2669826064452536,
          "durationTicks": 501,
          "midi": 43,
          "name": "G2",
          "ticks": 1506816,
          "time": 677.1224474999999,
          "velocity": 0.8661417322834646
        },
        {
          "duration": 0.2669826064452536,
          "durationTicks": 501,
          "midi": 36,
          "name": "C2",
          "ticks": 1507328,
          "time": 677.3952919999999,
          "velocity": 0.8661417322834646
        },
        {
          "duration": 0.2669826064453673,
          "durationTicks": 501,
          "midi": 36,
          "name": "C2",
          "ticks": 1507840,
          "time": 677.6681364999998,
          "velocity": 0.8661417322834646
        },
        {
          "duration": 0.2669826064453673,
          "durationTicks": 501,
          "midi": 36,
          "name": "C2",
          "ticks": 1508352,
          "time": 677.9409809999999,
          "velocity": 0.8661417322834646
        },
        {
          "duration": 0.2669826064453673,
          "durationTicks": 501,
          "midi": 36,
          "name": "C2",
          "ticks": 1508864,
          "time": 678.2138254999999,
          "velocity": 0.8661417322834646
        },
        {
          "duration": 0.2669826064452536,
          "durationTicks": 501,
          "midi": 36,
          "name": "C2",
          "ticks": 1509376,
          "time": 678.4866699999999,
          "velocity": 0.8661417322834646
        },
        {
          "duration": 0.2669826064452536,
          "durationTicks": 501,
          "midi": 36,
          "name": "C2",
          "ticks": 1509888,
          "time": 678.7595144999999,
          "velocity": 0.8661417322834646
        },
        {
          "duration": 0.2669826064453673,
          "durationTicks": 501,
          "midi": 36,
          "name": "C2",
          "ticks": 1510400,
          "time": 679.0323589999998,
          "velocity": 0.8661417322834646
        },
        {
          "duration": 0.2669826064453673,
          "durationTicks": 501,
          "midi": 36,
          "name": "C2",
          "ticks": 1510912,
          "time": 679.3052034999998,
          "velocity": 0.8661417322834646
        },
        {
          "duration": 0.7274077001953856,
          "durationTicks": 1365,
          "midi": 45,
          "name": "A2",
          "ticks": 1511424,
          "time": 679.5780479999999,
          "velocity": 0.8661417322834646
        },
        {
          "duration": 1.227800249999973,
          "durationTicks": 2304,
          "midi": 45,
          "name": "A2",
          "ticks": 1512960,
          "time": 680.3965814999999,
          "velocity": 0.8661417322834646
        },
        {
          "duration": 0.7274077001952719,
          "durationTicks": 1365,
          "midi": 43,
          "name": "G2",
          "ticks": 1515520,
          "time": 681.7608039999999,
          "velocity": 0.8661417322834646
        },
        {
          "duration": 1.2278002500000866,
          "durationTicks": 2304,
          "midi": 43,
          "name": "G2",
          "ticks": 1517056,
          "time": 682.5793374999998,
          "velocity": 0.8661417322834646
        },
        {
          "duration": 0.7274077001952719,
          "durationTicks": 1365,
          "midi": 41,
          "name": "F2",
          "ticks": 1519616,
          "time": 683.9435599999999,
          "velocity": 0.8661417322834646
        },
        {
          "duration": 1.227800249999973,
          "durationTicks": 2304,
          "midi": 41,
          "name": "F2",
          "ticks": 1521152,
          "time": 684.7620934999999,
          "velocity": 0.8661417322834646
        },
        {
          "duration": 0.7274077001952719,
          "durationTicks": 1365,
          "midi": 40,
          "name": "E2",
          "ticks": 1523712,
          "time": 686.1263159999999,
          "velocity": 0.8661417322834646
        },
        {
          "duration": 1.227800249999973,
          "durationTicks": 2304,
          "midi": 40,
          "name": "E2",
          "ticks": 1525248,
          "time": 686.9448494999999,
          "velocity": 0.8661417322834646
        },
        {
          "duration": 1.5006447499999922,
          "durationTicks": 2816,
          "midi": 38,
          "name": "D2",
          "ticks": 1527808,
          "time": 688.3090719999999,
          "velocity": 0.8661417322834646
        },
        {
          "duration": 0.45456320019525265,
          "durationTicks": 853,
          "midi": 38,
          "name": "D2",
          "ticks": 1530880,
          "time": 689.9461389999999,
          "velocity": 0.8661417322834646
        },
        {
          "duration": 1.5006447500001059,
          "durationTicks": 2816,
          "midi": 40,
          "name": "E2",
          "ticks": 1531904,
          "time": 690.4918279999998,
          "velocity": 0.8661417322834646
        },
        {
          "duration": 0.45456320019536633,
          "durationTicks": 853,
          "midi": 40,
          "name": "E2",
          "ticks": 1534976,
          "time": 692.1288949999998,
          "velocity": 0.8661417322834646
        },
        {
          "duration": 1.5006447499999922,
          "durationTicks": 2816,
          "midi": 41,
          "name": "F2",
          "ticks": 1536000,
          "time": 692.6745839999999,
          "velocity": 0.8661417322834646
        },
        {
          "duration": 0.45456320019536633,
          "durationTicks": 853,
          "midi": 41,
          "name": "F2",
          "ticks": 1539072,
          "time": 694.3116509999999,
          "velocity": 0.8661417322834646
        },
        {
          "duration": 2.046333749999917,
          "durationTicks": 3840,
          "midi": 43,
          "name": "G2",
          "ticks": 1540096,
          "time": 694.8573399999999,
          "velocity": 0.8661417322834646
        },
        {
          "duration": 0.2669826064453673,
          "durationTicks": 501,
          "midi": 48,
          "name": "C3",
          "ticks": 1544192,
          "time": 697.0400959999998,
          "velocity": 0.8661417322834646
        },
        {
          "duration": 0.2669826064453673,
          "durationTicks": 501,
          "midi": 48,
          "name": "C3",
          "ticks": 1544704,
          "time": 697.3129404999999,
          "velocity": 0.8661417322834646
        },
        {
          "duration": 0.2669826064453673,
          "durationTicks": 501,
          "midi": 48,
          "name": "C3",
          "ticks": 1545216,
          "time": 697.5857849999999,
          "velocity": 0.8661417322834646
        },
        {
          "duration": 0.2669826064452536,
          "durationTicks": 501,
          "midi": 48,
          "name": "C3",
          "ticks": 1545728,
          "time": 697.8586294999999,
          "velocity": 0.8661417322834646
        },
        {
          "duration": 0.2669826064452536,
          "durationTicks": 501,
          "midi": 47,
          "name": "B2",
          "ticks": 1546240,
          "time": 698.1314739999999,
          "velocity": 0.8661417322834646
        },
        {
          "duration": 0.2669826064453673,
          "durationTicks": 501,
          "midi": 47,
          "name": "B2",
          "ticks": 1546752,
          "time": 698.4043184999998,
          "velocity": 0.8661417322834646
        },
        {
          "duration": 0.2669826064453673,
          "durationTicks": 501,
          "midi": 47,
          "name": "B2",
          "ticks": 1547264,
          "time": 698.6771629999998,
          "velocity": 0.8661417322834646
        },
        {
          "duration": 0.2669826064453673,
          "durationTicks": 501,
          "midi": 47,
          "name": "B2",
          "ticks": 1547776,
          "time": 698.9500074999999,
          "velocity": 0.8661417322834646
        },
        {
          "duration": 0.2669826064452536,
          "durationTicks": 501,
          "midi": 45,
          "name": "A2",
          "ticks": 1548288,
          "time": 699.2228519999999,
          "velocity": 0.8661417322834646
        },
        {
          "duration": 0.2669826064452536,
          "durationTicks": 501,
          "midi": 45,
          "name": "A2",
          "ticks": 1548800,
          "time": 699.4956964999999,
          "velocity": 0.8661417322834646
        },
        {
          "duration": 0.2669826064452536,
          "durationTicks": 501,
          "midi": 45,
          "name": "A2",
          "ticks": 1549312,
          "time": 699.7685409999999,
          "velocity": 0.8661417322834646
        },
        {
          "duration": 0.2669826064452536,
          "durationTicks": 501,
          "midi": 45,
          "name": "A2",
          "ticks": 1549824,
          "time": 700.0413854999999,
          "velocity": 0.8661417322834646
        },
        {
          "duration": 0.2669826064453673,
          "durationTicks": 501,
          "midi": 43,
          "name": "G2",
          "ticks": 1550336,
          "time": 700.3142299999998,
          "velocity": 0.8661417322834646
        },
        {
          "duration": 0.2669826064453673,
          "durationTicks": 501,
          "midi": 43,
          "name": "G2",
          "ticks": 1550848,
          "time": 700.5870744999999,
          "velocity": 0.8661417322834646
        },
        {
          "duration": 0.2669826064453673,
          "durationTicks": 501,
          "midi": 43,
          "name": "G2",
          "ticks": 1551360,
          "time": 700.8599189999999,
          "velocity": 0.8661417322834646
        },
        {
          "duration": 0.2669826064452536,
          "durationTicks": 501,
          "midi": 43,
          "name": "G2",
          "ticks": 1551872,
          "time": 701.1327634999999,
          "velocity": 0.8661417322834646
        },
        {
          "duration": 0.2669826064452536,
          "durationTicks": 501,
          "midi": 41,
          "name": "F2",
          "ticks": 1552384,
          "time": 701.4056079999999,
          "velocity": 0.8661417322834646
        },
        {
          "duration": 0.2669826064453673,
          "durationTicks": 501,
          "midi": 41,
          "name": "F2",
          "ticks": 1552896,
          "time": 701.6784524999998,
          "velocity": 0.8661417322834646
        },
        {
          "duration": 0.2669826064453673,
          "durationTicks": 501,
          "midi": 41,
          "name": "F2",
          "ticks": 1553408,
          "time": 701.9512969999998,
          "velocity": 0.8661417322834646
        },
        {
          "duration": 0.2669826064453673,
          "durationTicks": 501,
          "midi": 41,
          "name": "F2",
          "ticks": 1553920,
          "time": 702.2241414999999,
          "velocity": 0.8661417322834646
        },
        {
          "duration": 0.2669826064452536,
          "durationTicks": 501,
          "midi": 40,
          "name": "E2",
          "ticks": 1554432,
          "time": 702.4969859999999,
          "velocity": 0.8661417322834646
        },
        {
          "duration": 0.2669826064452536,
          "durationTicks": 501,
          "midi": 40,
          "name": "E2",
          "ticks": 1554944,
          "time": 702.7698304999999,
          "velocity": 0.8661417322834646
        },
        {
          "duration": 0.2669826064452536,
          "durationTicks": 501,
          "midi": 40,
          "name": "E2",
          "ticks": 1555456,
          "time": 703.0426749999999,
          "velocity": 0.8661417322834646
        },
        {
          "duration": 0.2669826064452536,
          "durationTicks": 501,
          "midi": 40,
          "name": "E2",
          "ticks": 1555968,
          "time": 703.3155194999999,
          "velocity": 0.8661417322834646
        },
        {
          "duration": 0.2669826064453673,
          "durationTicks": 501,
          "midi": 38,
          "name": "D2",
          "ticks": 1556480,
          "time": 703.5883639999998,
          "velocity": 0.8661417322834646
        },
        {
          "duration": 0.2669826064453673,
          "durationTicks": 501,
          "midi": 38,
          "name": "D2",
          "ticks": 1556992,
          "time": 703.8612084999999,
          "velocity": 0.8661417322834646
        },
        {
          "duration": 0.2669826064453673,
          "durationTicks": 501,
          "midi": 38,
          "name": "D2",
          "ticks": 1557504,
          "time": 704.1340529999999,
          "velocity": 0.8661417322834646
        },
        {
          "duration": 0.2669826064452536,
          "durationTicks": 501,
          "midi": 38,
          "name": "D2",
          "ticks": 1558016,
          "time": 704.4068974999999,
          "velocity": 0.8661417322834646
        },
        {
          "duration": 0.2669826064452536,
          "durationTicks": 501,
          "midi": 43,
          "name": "G2",
          "ticks": 1558528,
          "time": 704.6797419999999,
          "velocity": 0.8661417322834646
        },
        {
          "duration": 0.2669826064453673,
          "durationTicks": 501,
          "midi": 43,
          "name": "G2",
          "ticks": 1559040,
          "time": 704.9525864999998,
          "velocity": 0.8661417322834646
        },
        {
          "duration": 0.2669826064453673,
          "durationTicks": 501,
          "midi": 43,
          "name": "G2",
          "ticks": 1559552,
          "time": 705.2254309999998,
          "velocity": 0.8661417322834646
        },
        {
          "duration": 0.2669826064453673,
          "durationTicks": 501,
          "midi": 43,
          "name": "G2",
          "ticks": 1560064,
          "time": 705.4982754999999,
          "velocity": 0.8661417322834646
        },
        {
          "duration": 0.2669826064452536,
          "durationTicks": 501,
          "midi": 48,
          "name": "C3",
          "ticks": 1560576,
          "time": 705.7711199999999,
          "velocity": 0.8661417322834646
        },
        {
          "duration": 0.2669826064452536,
          "durationTicks": 501,
          "midi": 48,
          "name": "C3",
          "ticks": 1561088,
          "time": 706.0439644999999,
          "velocity": 0.8661417322834646
        },
        {
          "duration": 0.2669826064452536,
          "durationTicks": 501,
          "midi": 48,
          "name": "C3",
          "ticks": 1561600,
          "time": 706.3168089999999,
          "velocity": 0.8661417322834646
        },
        {
          "duration": 0.2669826064453673,
          "durationTicks": 501,
          "midi": 48,
          "name": "C3",
          "ticks": 1562112,
          "time": 706.5896534999998,
          "velocity": 0.8661417322834646
        },
        {
          "duration": 0.2669826064453673,
          "durationTicks": 501,
          "midi": 47,
          "name": "B2",
          "ticks": 1562624,
          "time": 706.8624979999998,
          "velocity": 0.8661417322834646
        },
        {
          "duration": 0.2669826064453673,
          "durationTicks": 501,
          "midi": 47,
          "name": "B2",
          "ticks": 1563136,
          "time": 707.1353424999999,
          "velocity": 0.8661417322834646
        },
        {
          "duration": 0.2669826064452536,
          "durationTicks": 501,
          "midi": 47,
          "name": "B2",
          "ticks": 1563648,
          "time": 707.4081869999999,
          "velocity": 0.8661417322834646
        },
        {
          "duration": 0.2669826064452536,
          "durationTicks": 501,
          "midi": 47,
          "name": "B2",
          "ticks": 1564160,
          "time": 707.6810314999999,
          "velocity": 0.8661417322834646
        },
        {
          "duration": 0.2669826064453673,
          "durationTicks": 501,
          "midi": 45,
          "name": "A2",
          "ticks": 1564672,
          "time": 707.9538759999998,
          "velocity": 0.8661417322834646
        },
        {
          "duration": 0.2669826064453673,
          "durationTicks": 501,
          "midi": 45,
          "name": "A2",
          "ticks": 1565184,
          "time": 708.2267204999998,
          "velocity": 0.8661417322834646
        },
        {
          "duration": 0.2669826064453673,
          "durationTicks": 501,
          "midi": 45,
          "name": "A2",
          "ticks": 1565696,
          "time": 708.4995649999998,
          "velocity": 0.8661417322834646
        },
        {
          "duration": 0.2669826064453673,
          "durationTicks": 501,
          "midi": 45,
          "name": "A2",
          "ticks": 1566208,
          "time": 708.7724094999999,
          "velocity": 0.8661417322834646
        },
        {
          "duration": 0.2669826064452536,
          "durationTicks": 501,
          "midi": 43,
          "name": "G2",
          "ticks": 1566720,
          "time": 709.0452539999999,
          "velocity": 0.8661417322834646
        },
        {
          "duration": 0.2669826064452536,
          "durationTicks": 501,
          "midi": 43,
          "name": "G2",
          "ticks": 1567232,
          "time": 709.3180984999999,
          "velocity": 0.8661417322834646
        },
        {
          "duration": 0.2669826064452536,
          "durationTicks": 501,
          "midi": 43,
          "name": "G2",
          "ticks": 1567744,
          "time": 709.5909429999999,
          "velocity": 0.8661417322834646
        },
        {
          "duration": 0.2669826064453673,
          "durationTicks": 501,
          "midi": 43,
          "name": "G2",
          "ticks": 1568256,
          "time": 709.8637874999998,
          "velocity": 0.8661417322834646
        },
        {
          "duration": 0.2669826064453673,
          "durationTicks": 501,
          "midi": 41,
          "name": "F2",
          "ticks": 1568768,
          "time": 710.1366319999998,
          "velocity": 0.8661417322834646
        },
        {
          "duration": 0.2669826064453673,
          "durationTicks": 501,
          "midi": 41,
          "name": "F2",
          "ticks": 1569280,
          "time": 710.4094764999999,
          "velocity": 0.8661417322834646
        },
        {
          "duration": 0.2669826064452536,
          "durationTicks": 501,
          "midi": 41,
          "name": "F2",
          "ticks": 1569792,
          "time": 710.6823209999999,
          "velocity": 0.8661417322834646
        },
        {
          "duration": 0.2669826064452536,
          "durationTicks": 501,
          "midi": 41,
          "name": "F2",
          "ticks": 1570304,
          "time": 710.9551654999999,
          "velocity": 0.8661417322834646
        },
        {
          "duration": 0.2669826064453673,
          "durationTicks": 501,
          "midi": 40,
          "name": "E2",
          "ticks": 1570816,
          "time": 711.2280099999998,
          "velocity": 0.8661417322834646
        },
        {
          "duration": 0.2669826064453673,
          "durationTicks": 501,
          "midi": 40,
          "name": "E2",
          "ticks": 1571328,
          "time": 711.5008544999998,
          "velocity": 0.8661417322834646
        },
        {
          "duration": 0.2669826064453673,
          "durationTicks": 501,
          "midi": 40,
          "name": "E2",
          "ticks": 1571840,
          "time": 711.7736989999999,
          "velocity": 0.8661417322834646
        },
        {
          "duration": 0.2669826064452536,
          "durationTicks": 501,
          "midi": 40,
          "name": "E2",
          "ticks": 1572352,
          "time": 712.0465434999999,
          "velocity": 0.8661417322834646
        },
        {
          "duration": 0.2669826064452536,
          "durationTicks": 501,
          "midi": 38,
          "name": "D2",
          "ticks": 1572864,
          "time": 712.3193879999999,
          "velocity": 0.8661417322834646
        },
        {
          "duration": 0.2669826064452536,
          "durationTicks": 501,
          "midi": 38,
          "name": "D2",
          "ticks": 1573376,
          "time": 712.5922324999999,
          "velocity": 0.8661417322834646
        },
        {
          "duration": 0.2669826064452536,
          "durationTicks": 501,
          "midi": 38,
          "name": "D2",
          "ticks": 1573888,
          "time": 712.8650769999999,
          "velocity": 0.8661417322834646
        },
        {
          "duration": 0.2669826064453673,
          "durationTicks": 501,
          "midi": 38,
          "name": "D2",
          "ticks": 1574400,
          "time": 713.1379214999998,
          "velocity": 0.8661417322834646
        },
        {
          "duration": 0.2669826064453673,
          "durationTicks": 501,
          "midi": 43,
          "name": "G2",
          "ticks": 1574912,
          "time": 713.4107659999999,
          "velocity": 0.8661417322834646
        },
        {
          "duration": 0.2669826064453673,
          "durationTicks": 501,
          "midi": 43,
          "name": "G2",
          "ticks": 1575424,
          "time": 713.6836104999999,
          "velocity": 0.8661417322834646
        },
        {
          "duration": 0.2669826064452536,
          "durationTicks": 501,
          "midi": 43,
          "name": "G2",
          "ticks": 1575936,
          "time": 713.9564549999999,
          "velocity": 0.8661417322834646
        },
        {
          "duration": 0.2669826064452536,
          "durationTicks": 501,
          "midi": 43,
          "name": "G2",
          "ticks": 1576448,
          "time": 714.2292994999999,
          "velocity": 0.8661417322834646
        },
        {
          "duration": 0.2669826064453673,
          "durationTicks": 501,
          "midi": 36,
          "name": "C2",
          "ticks": 1576960,
          "time": 714.5021439999998,
          "velocity": 0.8661417322834646
        },
        {
          "duration": 0.2669826064453673,
          "durationTicks": 501,
          "midi": 36,
          "name": "C2",
          "ticks": 1577472,
          "time": 714.7749884999998,
          "velocity": 0.8661417322834646
        },
        {
          "duration": 0.2669826064453673,
          "durationTicks": 501,
          "midi": 36,
          "name": "C2",
          "ticks": 1577984,
          "time": 715.0478329999999,
          "velocity": 0.8661417322834646
        },
        {
          "duration": 0.2669826064452536,
          "durationTicks": 501,
          "midi": 36,
          "name": "C2",
          "ticks": 1578496,
          "time": 715.3206774999999,
          "velocity": 0.8661417322834646
        },
        {
          "duration": 0.2669826064452536,
          "durationTicks": 501,
          "midi": 38,
          "name": "D2",
          "ticks": 1579008,
          "time": 715.5935219999999,
          "velocity": 0.8661417322834646
        },
        {
          "duration": 0.2669826064452536,
          "durationTicks": 501,
          "midi": 38,
          "name": "D2",
          "ticks": 1579520,
          "time": 715.8663664999999,
          "velocity": 0.8661417322834646
        },
        {
          "duration": 0.2669826064452536,
          "durationTicks": 501,
          "midi": 38,
          "name": "D2",
          "ticks": 1580032,
          "time": 716.1392109999999,
          "velocity": 0.8661417322834646
        },
        {
          "duration": 0.2669826064453673,
          "durationTicks": 501,
          "midi": 38,
          "name": "D2",
          "ticks": 1580544,
          "time": 716.4120554999998,
          "velocity": 0.8661417322834646
        },
        {
          "duration": 0.2669826064453673,
          "durationTicks": 501,
          "midi": 40,
          "name": "E2",
          "ticks": 1581056,
          "time": 716.6848999999999,
          "velocity": 0.8661417322834646
        },
        {
          "duration": 0.2669826064453673,
          "durationTicks": 501,
          "midi": 40,
          "name": "E2",
          "ticks": 1581568,
          "time": 716.9577444999999,
          "velocity": 0.8661417322834646
        },
        {
          "duration": 0.2669826064452536,
          "durationTicks": 501,
          "midi": 40,
          "name": "E2",
          "ticks": 1582080,
          "time": 717.2305889999999,
          "velocity": 0.8661417322834646
        },
        {
          "duration": 0.2669826064452536,
          "durationTicks": 501,
          "midi": 40,
          "name": "E2",
          "ticks": 1582592,
          "time": 717.5034334999999,
          "velocity": 0.8661417322834646
        },
        {
          "duration": 0.2669826064453673,
          "durationTicks": 501,
          "midi": 36,
          "name": "C2",
          "ticks": 1583104,
          "time": 717.7762779999998,
          "velocity": 0.8661417322834646
        },
        {
          "duration": 0.2669826064453673,
          "durationTicks": 501,
          "midi": 36,
          "name": "C2",
          "ticks": 1583616,
          "time": 718.0491224999998,
          "velocity": 0.8661417322834646
        },
        {
          "duration": 0.2669826064453673,
          "durationTicks": 501,
          "midi": 36,
          "name": "C2",
          "ticks": 1584128,
          "time": 718.3219669999999,
          "velocity": 0.8661417322834646
        },
        {
          "duration": 0.2669826064452536,
          "durationTicks": 501,
          "midi": 36,
          "name": "C2",
          "ticks": 1584640,
          "time": 718.5948114999999,
          "velocity": 0.8661417322834646
        },
        {
          "duration": 0.2669826064452536,
          "durationTicks": 501,
          "midi": 41,
          "name": "F2",
          "ticks": 1585152,
          "time": 718.8676559999999,
          "velocity": 0.8661417322834646
        },
        {
          "duration": 0.2669826064452536,
          "durationTicks": 501,
          "midi": 41,
          "name": "F2",
          "ticks": 1585664,
          "time": 719.1405004999999,
          "velocity": 0.8661417322834646
        },
        {
          "duration": 0.2669826064452536,
          "durationTicks": 501,
          "midi": 41,
          "name": "F2",
          "ticks": 1586176,
          "time": 719.4133449999999,
          "velocity": 0.8661417322834646
        },
        {
          "duration": 0.2669826064453673,
          "durationTicks": 501,
          "midi": 41,
          "name": "F2",
          "ticks": 1586688,
          "time": 719.6861894999998,
          "velocity": 0.8661417322834646
        },
        {
          "duration": 0.2669826064453673,
          "durationTicks": 501,
          "midi": 43,
          "name": "G2",
          "ticks": 1587200,
          "time": 719.9590339999999,
          "velocity": 0.8661417322834646
        },
        {
          "duration": 0.2669826064453673,
          "durationTicks": 501,
          "midi": 43,
          "name": "G2",
          "ticks": 1587712,
          "time": 720.2318784999999,
          "velocity": 0.8661417322834646
        },
        {
          "duration": 0.2669826064452536,
          "durationTicks": 501,
          "midi": 43,
          "name": "G2",
          "ticks": 1588224,
          "time": 720.5047229999999,
          "velocity": 0.8661417322834646
        },
        {
          "duration": 0.2669826064452536,
          "durationTicks": 501,
          "midi": 43,
          "name": "G2",
          "ticks": 1588736,
          "time": 720.7775674999999,
          "velocity": 0.8661417322834646
        },
        {
          "duration": 0.2669826064453673,
          "durationTicks": 501,
          "midi": 36,
          "name": "C2",
          "ticks": 1589248,
          "time": 721.0504119999998,
          "velocity": 0.8661417322834646
        },
        {
          "duration": 0.2669826064453673,
          "durationTicks": 501,
          "midi": 36,
          "name": "C2",
          "ticks": 1589760,
          "time": 721.3232564999998,
          "velocity": 0.8661417322834646
        },
        {
          "duration": 0.2669826064453673,
          "durationTicks": 501,
          "midi": 36,
          "name": "C2",
          "ticks": 1590272,
          "time": 721.5961009999999,
          "velocity": 0.8661417322834646
        },
        {
          "duration": 0.2669826064452536,
          "durationTicks": 501,
          "midi": 36,
          "name": "C2",
          "ticks": 1590784,
          "time": 721.8689454999999,
          "velocity": 0.8661417322834646
        },
        {
          "duration": 0.2669826064452536,
          "durationTicks": 501,
          "midi": 36,
          "name": "C2",
          "ticks": 1591296,
          "time": 722.1417899999999,
          "velocity": 0.8661417322834646
        },
        {
          "duration": 0.2669826064452536,
          "durationTicks": 501,
          "midi": 36,
          "name": "C2",
          "ticks": 1591808,
          "time": 722.4146344999999,
          "velocity": 0.8661417322834646
        },
        {
          "duration": 0.13056035644535768,
          "durationTicks": 245,
          "midi": 38,
          "name": "D2",
          "ticks": 1592320,
          "time": 722.6874789999998,
          "velocity": 0.8661417322834646
        },
        {
          "duration": 0.40340485644537694,
          "durationTicks": 757,
          "midi": 40,
          "name": "E2",
          "ticks": 1592576,
          "time": 722.8239012499998,
          "velocity": 0.8661417322834646
        },
        {
          "duration": 0.2669826064453673,
          "durationTicks": 501,
          "midi": 41,
          "name": "F2",
          "ticks": 1593344,
          "time": 723.2331679999999,
          "velocity": 0.8661417322834646
        },
        {
          "duration": 0.2669826064452536,
          "durationTicks": 501,
          "midi": 41,
          "name": "F2",
          "ticks": 1593856,
          "time": 723.5060124999999,
          "velocity": 0.8661417322834646
        },
        {
          "duration": 0.2669826064452536,
          "durationTicks": 501,
          "midi": 41,
          "name": "F2",
          "ticks": 1594368,
          "time": 723.7788569999999,
          "velocity": 0.8661417322834646
        },
        {
          "duration": 0.2669826064453673,
          "durationTicks": 501,
          "midi": 41,
          "name": "F2",
          "ticks": 1594880,
          "time": 724.0517014999998,
          "velocity": 0.8661417322834646
        },
        {
          "duration": 0.2669826064453673,
          "durationTicks": 501,
          "midi": 43,
          "name": "G2",
          "ticks": 1595392,
          "time": 724.3245459999998,
          "velocity": 0.8661417322834646
        },
        {
          "duration": 0.2669826064453673,
          "durationTicks": 501,
          "midi": 43,
          "name": "G2",
          "ticks": 1595904,
          "time": 724.5973904999998,
          "velocity": 0.8661417322834646
        },
        {
          "duration": 0.2669826064453673,
          "durationTicks": 501,
          "midi": 43,
          "name": "G2",
          "ticks": 1596416,
          "time": 724.8702349999999,
          "velocity": 0.8661417322834646
        },
        {
          "duration": 0.2669826064452536,
          "durationTicks": 501,
          "midi": 43,
          "name": "G2",
          "ticks": 1596928,
          "time": 725.1430794999999,
          "velocity": 0.8661417322834646
        },
        {
          "duration": 0.2669826064452536,
          "durationTicks": 501,
          "midi": 40,
          "name": "E2",
          "ticks": 1597440,
          "time": 725.4159239999999,
          "velocity": 0.8661417322834646
        },
        {
          "duration": 0.2669826064452536,
          "durationTicks": 501,
          "midi": 40,
          "name": "E2",
          "ticks": 1597952,
          "time": 725.6887684999999,
          "velocity": 0.8661417322834646
        },
        {
          "duration": 0.2669826064453673,
          "durationTicks": 501,
          "midi": 40,
          "name": "E2",
          "ticks": 1598464,
          "time": 725.9616129999998,
          "velocity": 0.8661417322834646
        },
        {
          "duration": 0.2669826064453673,
          "durationTicks": 501,
          "midi": 40,
          "name": "E2",
          "ticks": 1598976,
          "time": 726.2344574999998,
          "velocity": 0.8661417322834646
        },
        {
          "duration": 0.2669826064453673,
          "durationTicks": 501,
          "midi": 36,
          "name": "C2",
          "ticks": 1599488,
          "time": 726.5073019999999,
          "velocity": 0.8661417322834646
        },
        {
          "duration": 0.2669826064452536,
          "durationTicks": 501,
          "midi": 36,
          "name": "C2",
          "ticks": 1600000,
          "time": 726.7801464999999,
          "velocity": 0.8661417322834646
        },
        {
          "duration": 0.2669826064452536,
          "durationTicks": 501,
          "midi": 36,
          "name": "C2",
          "ticks": 1600512,
          "time": 727.0529909999999,
          "velocity": 0.8661417322834646
        },
        {
          "duration": 0.2669826064453673,
          "durationTicks": 501,
          "midi": 36,
          "name": "C2",
          "ticks": 1601024,
          "time": 727.3258354999998,
          "velocity": 0.8661417322834646
        },
        {
          "duration": 0.2669826064453673,
          "durationTicks": 501,
          "midi": 34,
          "name": "A#1",
          "ticks": 1601536,
          "time": 727.5986799999998,
          "velocity": 0.8661417322834646
        },
        {
          "duration": 0.2669826064453673,
          "durationTicks": 501,
          "midi": 34,
          "name": "A#1",
          "ticks": 1602048,
          "time": 727.8715244999999,
          "velocity": 0.8661417322834646
        },
        {
          "duration": 0.2669826064452536,
          "durationTicks": 501,
          "midi": 34,
          "name": "A#1",
          "ticks": 1602560,
          "time": 728.1443689999999,
          "velocity": 0.8661417322834646
        },
        {
          "duration": 0.2669826064452536,
          "durationTicks": 501,
          "midi": 34,
          "name": "A#1",
          "ticks": 1603072,
          "time": 728.4172134999999,
          "velocity": 0.8661417322834646
        },
        {
          "duration": 0.2669826064452536,
          "durationTicks": 501,
          "midi": 34,
          "name": "A#1",
          "ticks": 1603584,
          "time": 728.6900579999999,
          "velocity": 0.8661417322834646
        },
        {
          "duration": 0.2669826064452536,
          "durationTicks": 501,
          "midi": 34,
          "name": "A#1",
          "ticks": 1604096,
          "time": 728.9629024999999,
          "velocity": 0.8661417322834646
        },
        {
          "duration": 0.2669826064453673,
          "durationTicks": 501,
          "midi": 34,
          "name": "A#1",
          "ticks": 1604608,
          "time": 729.2357469999998,
          "velocity": 0.8661417322834646
        },
        {
          "duration": 0.2669826064453673,
          "durationTicks": 501,
          "midi": 34,
          "name": "A#1",
          "ticks": 1605120,
          "time": 729.5085914999999,
          "velocity": 0.8661417322834646
        },
        {
          "duration": 0.2669826064453673,
          "durationTicks": 501,
          "midi": 38,
          "name": "D2",
          "ticks": 1605632,
          "time": 729.7814359999999,
          "velocity": 0.8661417322834646
        },
        {
          "duration": 0.2669826064452536,
          "durationTicks": 501,
          "midi": 38,
          "name": "D2",
          "ticks": 1606144,
          "time": 730.0542804999999,
          "velocity": 0.8661417322834646
        },
        {
          "duration": 0.2669826064452536,
          "durationTicks": 501,
          "midi": 38,
          "name": "D2",
          "ticks": 1606656,
          "time": 730.3271249999999,
          "velocity": 0.8661417322834646
        },
        {
          "duration": 0.2669826064453673,
          "durationTicks": 501,
          "midi": 38,
          "name": "D2",
          "ticks": 1607168,
          "time": 730.5999694999998,
          "velocity": 0.8661417322834646
        },
        {
          "duration": 0.2669826064453673,
          "durationTicks": 501,
          "midi": 43,
          "name": "G2",
          "ticks": 1607680,
          "time": 730.8728139999998,
          "velocity": 0.8661417322834646
        },
        {
          "duration": 0.2669826064453673,
          "durationTicks": 501,
          "midi": 43,
          "name": "G2",
          "ticks": 1608192,
          "time": 731.1456584999999,
          "velocity": 0.8661417322834646
        },
        {
          "duration": 0.2669826064452536,
          "durationTicks": 501,
          "midi": 43,
          "name": "G2",
          "ticks": 1608704,
          "time": 731.4185029999999,
          "velocity": 0.8661417322834646
        },
        {
          "duration": 0.2669826064452536,
          "durationTicks": 501,
          "midi": 43,
          "name": "G2",
          "ticks": 1609216,
          "time": 731.6913474999999,
          "velocity": 0.8661417322834646
        },
        {
          "duration": 0.2669826064452536,
          "durationTicks": 501,
          "midi": 36,
          "name": "C2",
          "ticks": 1609728,
          "time": 731.9641919999999,
          "velocity": 0.8661417322834646
        },
        {
          "duration": 0.2669826064452536,
          "durationTicks": 501,
          "midi": 36,
          "name": "C2",
          "ticks": 1610240,
          "time": 732.2370364999999,
          "velocity": 0.8661417322834646
        },
        {
          "duration": 0.2669826064453673,
          "durationTicks": 501,
          "midi": 36,
          "name": "C2",
          "ticks": 1610752,
          "time": 732.5098809999998,
          "velocity": 0.8661417322834646
        },
        {
          "duration": 0.2669826064453673,
          "durationTicks": 501,
          "midi": 36,
          "name": "C2",
          "ticks": 1611264,
          "time": 732.7827254999999,
          "velocity": 0.8661417322834646
        },
        {
          "duration": 0.2669826064453673,
          "durationTicks": 501,
          "midi": 38,
          "name": "D2",
          "ticks": 1611776,
          "time": 733.0555699999999,
          "velocity": 0.8661417322834646
        },
        {
          "duration": 0.2669826064452536,
          "durationTicks": 501,
          "midi": 38,
          "name": "D2",
          "ticks": 1612288,
          "time": 733.3284144999999,
          "velocity": 0.8661417322834646
        },
        {
          "duration": 0.2669826064452536,
          "durationTicks": 501,
          "midi": 38,
          "name": "D2",
          "ticks": 1612800,
          "time": 733.6012589999999,
          "velocity": 0.8661417322834646
        },
        {
          "duration": 0.2669826064453673,
          "durationTicks": 501,
          "midi": 38,
          "name": "D2",
          "ticks": 1613312,
          "time": 733.8741034999998,
          "velocity": 0.8661417322834646
        },
        {
          "duration": 0.2669826064453673,
          "durationTicks": 501,
          "midi": 40,
          "name": "E2",
          "ticks": 1613824,
          "time": 734.1469479999998,
          "velocity": 0.8661417322834646
        },
        {
          "duration": 0.2669826064453673,
          "durationTicks": 501,
          "midi": 40,
          "name": "E2",
          "ticks": 1614336,
          "time": 734.4197924999999,
          "velocity": 0.8661417322834646
        },
        {
          "duration": 0.2669826064452536,
          "durationTicks": 501,
          "midi": 40,
          "name": "E2",
          "ticks": 1614848,
          "time": 734.6926369999999,
          "velocity": 0.8661417322834646
        },
        {
          "duration": 0.2669826064452536,
          "durationTicks": 501,
          "midi": 40,
          "name": "E2",
          "ticks": 1615360,
          "time": 734.9654814999999,
          "velocity": 0.8661417322834646
        },
        {
          "duration": 0.2669826064452536,
          "durationTicks": 501,
          "midi": 36,
          "name": "C2",
          "ticks": 1615872,
          "time": 735.2383259999999,
          "velocity": 0.8661417322834646
        },
        {
          "duration": 0.2669826064452536,
          "durationTicks": 501,
          "midi": 36,
          "name": "C2",
          "ticks": 1616384,
          "time": 735.5111704999999,
          "velocity": 0.8661417322834646
        },
        {
          "duration": 0.2669826064453673,
          "durationTicks": 501,
          "midi": 36,
          "name": "C2",
          "ticks": 1616896,
          "time": 735.7840149999998,
          "velocity": 0.8661417322834646
        },
        {
          "duration": 0.2669826064453673,
          "durationTicks": 501,
          "midi": 36,
          "name": "C2",
          "ticks": 1617408,
          "time": 736.0568594999999,
          "velocity": 0.8661417322834646
        },
        {
          "duration": 0.2669826064453673,
          "durationTicks": 501,
          "midi": 41,
          "name": "F2",
          "ticks": 1617920,
          "time": 736.3297039999999,
          "velocity": 0.8661417322834646
        },
        {
          "duration": 0.2669826064452536,
          "durationTicks": 501,
          "midi": 41,
          "name": "F2",
          "ticks": 1618432,
          "time": 736.6025484999999,
          "velocity": 0.8661417322834646
        },
        {
          "duration": 0.2669826064452536,
          "durationTicks": 501,
          "midi": 41,
          "name": "F2",
          "ticks": 1618944,
          "time": 736.8753929999999,
          "velocity": 0.8661417322834646
        },
        {
          "duration": 0.2669826064453673,
          "durationTicks": 501,
          "midi": 41,
          "name": "F2",
          "ticks": 1619456,
          "time": 737.1482374999998,
          "velocity": 0.8661417322834646
        },
        {
          "duration": 0.2669826064453673,
          "durationTicks": 501,
          "midi": 43,
          "name": "G2",
          "ticks": 1619968,
          "time": 737.4210819999998,
          "velocity": 0.8661417322834646
        },
        {
          "duration": 0.2669826064453673,
          "durationTicks": 501,
          "midi": 43,
          "name": "G2",
          "ticks": 1620480,
          "time": 737.6939264999999,
          "velocity": 0.8661417322834646
        },
        {
          "duration": 0.2669826064452536,
          "durationTicks": 501,
          "midi": 43,
          "name": "G2",
          "ticks": 1620992,
          "time": 737.9667709999999,
          "velocity": 0.8661417322834646
        },
        {
          "duration": 0.2669826064452536,
          "durationTicks": 501,
          "midi": 43,
          "name": "G2",
          "ticks": 1621504,
          "time": 738.2396154999999,
          "velocity": 0.8661417322834646
        },
        {
          "duration": 0.2669826064452536,
          "durationTicks": 501,
          "midi": 36,
          "name": "C2",
          "ticks": 1622016,
          "time": 738.5124599999999,
          "velocity": 0.8661417322834646
        },
        {
          "duration": 0.2669826064453673,
          "durationTicks": 501,
          "midi": 36,
          "name": "C2",
          "ticks": 1622528,
          "time": 738.7853044999998,
          "velocity": 0.8661417322834646
        },
        {
          "duration": 0.2669826064453673,
          "durationTicks": 501,
          "midi": 36,
          "name": "C2",
          "ticks": 1623040,
          "time": 739.0581489999998,
          "velocity": 0.8661417322834646
        },
        {
          "duration": 0.2669826064453673,
          "durationTicks": 501,
          "midi": 36,
          "name": "C2",
          "ticks": 1623552,
          "time": 739.3309934999999,
          "velocity": 0.8661417322834646
        },
        {
          "duration": 0.2669826064452536,
          "durationTicks": 501,
          "midi": 36,
          "name": "C2",
          "ticks": 1624064,
          "time": 739.6038379999999,
          "velocity": 0.8661417322834646
        },
        {
          "duration": 0.2669826064452536,
          "durationTicks": 501,
          "midi": 36,
          "name": "C2",
          "ticks": 1624576,
          "time": 739.8766824999999,
          "velocity": 0.8661417322834646
        },
        {
          "duration": 0.130560356445244,
          "durationTicks": 245,
          "midi": 38,
          "name": "D2",
          "ticks": 1625088,
          "time": 740.1495269999999,
          "velocity": 0.8661417322834646
        },
        {
          "duration": 0.40340485644526325,
          "durationTicks": 757,
          "midi": 40,
          "name": "E2",
          "ticks": 1625344,
          "time": 740.2859492499999,
          "velocity": 0.8661417322834646
        },
        {
          "duration": 0.2669826064453673,
          "durationTicks": 501,
          "midi": 41,
          "name": "F2",
          "ticks": 1626112,
          "time": 740.6952159999998,
          "velocity": 0.8661417322834646
        },
        {
          "duration": 0.2669826064453673,
          "durationTicks": 501,
          "midi": 41,
          "name": "F2",
          "ticks": 1626624,
          "time": 740.9680604999999,
          "velocity": 0.8661417322834646
        },
        {
          "duration": 0.2669826064452536,
          "durationTicks": 501,
          "midi": 41,
          "name": "F2",
          "ticks": 1627136,
          "time": 741.2409049999999,
          "velocity": 0.8661417322834646
        },
        {
          "duration": 0.2669826064452536,
          "durationTicks": 501,
          "midi": 41,
          "name": "F2",
          "ticks": 1627648,
          "time": 741.5137494999999,
          "velocity": 0.8661417322834646
        },
        {
          "duration": 0.2669826064452536,
          "durationTicks": 501,
          "midi": 43,
          "name": "G2",
          "ticks": 1628160,
          "time": 741.7865939999999,
          "velocity": 0.8661417322834646
        },
        {
          "duration": 0.2669826064453673,
          "durationTicks": 501,
          "midi": 43,
          "name": "G2",
          "ticks": 1628672,
          "time": 742.0594384999998,
          "velocity": 0.8661417322834646
        },
        {
          "duration": 0.2669826064453673,
          "durationTicks": 501,
          "midi": 43,
          "name": "G2",
          "ticks": 1629184,
          "time": 742.3322829999998,
          "velocity": 0.8661417322834646
        },
        {
          "duration": 0.2669826064453673,
          "durationTicks": 501,
          "midi": 43,
          "name": "G2",
          "ticks": 1629696,
          "time": 742.6051274999999,
          "velocity": 0.8661417322834646
        },
        {
          "duration": 0.2669826064452536,
          "durationTicks": 501,
          "midi": 40,
          "name": "E2",
          "ticks": 1630208,
          "time": 742.8779719999999,
          "velocity": 0.8661417322834646
        },
        {
          "duration": 0.2669826064452536,
          "durationTicks": 501,
          "midi": 40,
          "name": "E2",
          "ticks": 1630720,
          "time": 743.1508164999999,
          "velocity": 0.8661417322834646
        },
        {
          "duration": 0.2669826064453673,
          "durationTicks": 501,
          "midi": 40,
          "name": "E2",
          "ticks": 1631232,
          "time": 743.4236609999998,
          "velocity": 0.8661417322834646
        },
        {
          "duration": 0.2669826064453673,
          "durationTicks": 501,
          "midi": 40,
          "name": "E2",
          "ticks": 1631744,
          "time": 743.6965054999998,
          "velocity": 0.8661417322834646
        },
        {
          "duration": 0.2669826064453673,
          "durationTicks": 501,
          "midi": 36,
          "name": "C2",
          "ticks": 1632256,
          "time": 743.9693499999998,
          "velocity": 0.8661417322834646
        },
        {
          "duration": 0.2669826064452536,
          "durationTicks": 501,
          "midi": 36,
          "name": "C2",
          "ticks": 1632768,
          "time": 744.2421944999999,
          "velocity": 0.8661417322834646
        },
        {
          "duration": 0.2669826064452536,
          "durationTicks": 501,
          "midi": 36,
          "name": "C2",
          "ticks": 1633280,
          "time": 744.5150389999999,
          "velocity": 0.8661417322834646
        },
        {
          "duration": 0.2669826064452536,
          "durationTicks": 501,
          "midi": 36,
          "name": "C2",
          "ticks": 1633792,
          "time": 744.7878834999999,
          "velocity": 0.8661417322834646
        },
        {
          "duration": 0.2669826064452536,
          "durationTicks": 501,
          "midi": 38,
          "name": "D2",
          "ticks": 1634304,
          "time": 745.0607279999999,
          "velocity": 0.8661417322834646
        },
        {
          "duration": 0.2669826064453673,
          "durationTicks": 501,
          "midi": 38,
          "name": "D2",
          "ticks": 1634816,
          "time": 745.3335724999998,
          "velocity": 0.8661417322834646
        },
        {
          "duration": 0.2669826064453673,
          "durationTicks": 501,
          "midi": 38,
          "name": "D2",
          "ticks": 1635328,
          "time": 745.6064169999999,
          "velocity": 0.8661417322834646
        },
        {
          "duration": 0.2669826064453673,
          "durationTicks": 501,
          "midi": 38,
          "name": "D2",
          "ticks": 1635840,
          "time": 745.8792614999999,
          "velocity": 0.8661417322834646
        },
        {
          "duration": 0.2669826064452536,
          "durationTicks": 501,
          "midi": 43,
          "name": "G2",
          "ticks": 1636352,
          "time": 746.1521059999999,
          "velocity": 0.8661417322834646
        },
        {
          "duration": 0.2669826064452536,
          "durationTicks": 501,
          "midi": 43,
          "name": "G2",
          "ticks": 1636864,
          "time": 746.4249504999999,
          "velocity": 0.8661417322834646
        },
        {
          "duration": 0.2669826064453673,
          "durationTicks": 501,
          "midi": 43,
          "name": "G2",
          "ticks": 1637376,
          "time": 746.6977949999998,
          "velocity": 0.8661417322834646
        },
        {
          "duration": 0.2669826064453673,
          "durationTicks": 501,
          "midi": 43,
          "name": "G2",
          "ticks": 1637888,
          "time": 746.9706394999998,
          "velocity": 0.8661417322834646
        },
        {
          "duration": 0.2669826064453673,
          "durationTicks": 501,
          "midi": 36,
          "name": "C2",
          "ticks": 1638400,
          "time": 747.2434839999999,
          "velocity": 0.8661417322834646
        },
        {
          "duration": 0.2669826064452536,
          "durationTicks": 501,
          "midi": 36,
          "name": "C2",
          "ticks": 1638912,
          "time": 747.5163284999999,
          "velocity": 0.8661417322834646
        },
        {
          "duration": 0.2669826064452536,
          "durationTicks": 501,
          "midi": 36,
          "name": "C2",
          "ticks": 1639424,
          "time": 747.7891729999999,
          "velocity": 0.8661417322834646
        },
        {
          "duration": 0.2669826064452536,
          "durationTicks": 501,
          "midi": 36,
          "name": "C2",
          "ticks": 1639936,
          "time": 748.0620174999999,
          "velocity": 0.8661417322834646
        },
        {
          "duration": 0.2669826064452536,
          "durationTicks": 501,
          "midi": 36,
          "name": "C2",
          "ticks": 1640448,
          "time": 748.3348619999999,
          "velocity": 0.8661417322834646
        },
        {
          "duration": 0.2669826064453673,
          "durationTicks": 501,
          "midi": 36,
          "name": "C2",
          "ticks": 1640960,
          "time": 748.6077064999998,
          "velocity": 0.8661417322834646
        },
        {
          "duration": 0.2669826064453673,
          "durationTicks": 501,
          "midi": 36,
          "name": "C2",
          "ticks": 1641472,
          "time": 748.8805509999999,
          "velocity": 0.8661417322834646
        },
        {
          "duration": 0.2669826064453673,
          "durationTicks": 501,
          "midi": 36,
          "name": "C2",
          "ticks": 1641984,
          "time": 749.1533954999999,
          "velocity": 0.8661417322834646
        },
        {
          "duration": 0.7274077001952719,
          "durationTicks": 1365,
          "midi": 45,
          "name": "A2",
          "ticks": 1642496,
          "time": 749.4262399999999,
          "velocity": 0.8661417322834646
        },
        {
          "duration": 1.227800249999973,
          "durationTicks": 2304,
          "midi": 45,
          "name": "A2",
          "ticks": 1644032,
          "time": 750.2447734999998,
          "velocity": 0.8661417322834646
        },
        {
          "duration": 0.7274077001952719,
          "durationTicks": 1365,
          "midi": 43,
          "name": "G2",
          "ticks": 1646592,
          "time": 751.6089959999999,
          "velocity": 0.8661417322834646
        },
        {
          "duration": 1.227800249999973,
          "durationTicks": 2304,
          "midi": 43,
          "name": "G2",
          "ticks": 1648128,
          "time": 752.4275294999999,
          "velocity": 0.8661417322834646
        },
        {
          "duration": 0.7274077001952719,
          "durationTicks": 1365,
          "midi": 41,
          "name": "F2",
          "ticks": 1650688,
          "time": 753.7917519999999,
          "velocity": 0.8661417322834646
        },
        {
          "duration": 1.227800249999973,
          "durationTicks": 2304,
          "midi": 41,
          "name": "F2",
          "ticks": 1652224,
          "time": 754.6102854999999,
          "velocity": 0.8661417322834646
        },
        {
          "duration": 0.7274077001952719,
          "durationTicks": 1365,
          "midi": 40,
          "name": "E2",
          "ticks": 1654784,
          "time": 755.9745079999999,
          "velocity": 0.8661417322834646
        },
        {
          "duration": 1.227800249999973,
          "durationTicks": 2304,
          "midi": 40,
          "name": "E2",
          "ticks": 1656320,
          "time": 756.7930414999998,
          "velocity": 0.8661417322834646
        },
        {
          "duration": 1.5006447500001059,
          "durationTicks": 2816,
          "midi": 38,
          "name": "D2",
          "ticks": 1658880,
          "time": 758.1572639999998,
          "velocity": 0.8661417322834646
        },
        {
          "duration": 0.45456320019536633,
          "durationTicks": 853,
          "midi": 38,
          "name": "D2",
          "ticks": 1661952,
          "time": 759.7943309999998,
          "velocity": 0.8661417322834646
        },
        {
          "duration": 1.5006447499999922,
          "durationTicks": 2816,
          "midi": 40,
          "name": "E2",
          "ticks": 1662976,
          "time": 760.3400199999999,
          "velocity": 0.8661417322834646
        },
        {
          "duration": 0.45456320019536633,
          "durationTicks": 853,
          "midi": 40,
          "name": "E2",
          "ticks": 1666048,
          "time": 761.9770869999999,
          "velocity": 0.8661417322834646
        },
        {
          "duration": 1.5006447499999922,
          "durationTicks": 2816,
          "midi": 41,
          "name": "F2",
          "ticks": 1667072,
          "time": 762.5227759999999,
          "velocity": 0.8661417322834646
        },
        {
          "duration": 0.45456320019525265,
          "durationTicks": 853,
          "midi": 41,
          "name": "F2",
          "ticks": 1670144,
          "time": 764.1598429999999,
          "velocity": 0.8661417322834646
        },
        {
          "duration": 2.0463337500000307,
          "durationTicks": 3840,
          "midi": 43,
          "name": "G2",
          "ticks": 1671168,
          "time": 764.7055319999998,
          "velocity": 0.8661417322834646
        },
        {
          "duration": 0.2669826064452536,
          "durationTicks": 501,
          "midi": 48,
          "name": "C3",
          "ticks": 1675264,
          "time": 766.8882879999999,
          "velocity": 0.8661417322834646
        },
        {
          "duration": 0.2669826064452536,
          "durationTicks": 501,
          "midi": 48,
          "name": "C3",
          "ticks": 1675776,
          "time": 767.1611324999999,
          "velocity": 0.8661417322834646
        },
        {
          "duration": 0.2669826064452536,
          "durationTicks": 501,
          "midi": 48,
          "name": "C3",
          "ticks": 1676288,
          "time": 767.4339769999999,
          "velocity": 0.8661417322834646
        },
        {
          "duration": 0.2669826064452536,
          "durationTicks": 501,
          "midi": 48,
          "name": "C3",
          "ticks": 1676800,
          "time": 767.7068214999999,
          "velocity": 0.8661417322834646
        },
        {
          "duration": 0.2669826064453673,
          "durationTicks": 501,
          "midi": 47,
          "name": "B2",
          "ticks": 1677312,
          "time": 767.9796659999998,
          "velocity": 0.8661417322834646
        },
        {
          "duration": 0.2669826064453673,
          "durationTicks": 501,
          "midi": 47,
          "name": "B2",
          "ticks": 1677824,
          "time": 768.2525104999999,
          "velocity": 0.8661417322834646
        },
        {
          "duration": 0.2669826064453673,
          "durationTicks": 501,
          "midi": 47,
          "name": "B2",
          "ticks": 1678336,
          "time": 768.5253549999999,
          "velocity": 0.8661417322834646
        },
        {
          "duration": 0.2669826064452536,
          "durationTicks": 501,
          "midi": 47,
          "name": "B2",
          "ticks": 1678848,
          "time": 768.7981994999999,
          "velocity": 0.8661417322834646
        },
        {
          "duration": 0.2669826064453673,
          "durationTicks": 501,
          "midi": 45,
          "name": "A2",
          "ticks": 1679360,
          "time": 769.0710439999998,
          "velocity": 0.8661417322834646
        },
        {
          "duration": 0.2669826064453673,
          "durationTicks": 501,
          "midi": 45,
          "name": "A2",
          "ticks": 1679872,
          "time": 769.3438884999998,
          "velocity": 0.8661417322834646
        },
        {
          "duration": 0.2669826064453673,
          "durationTicks": 501,
          "midi": 45,
          "name": "A2",
          "ticks": 1680384,
          "time": 769.6167329999998,
          "velocity": 0.8661417322834646
        },
        {
          "duration": 0.2669826064452536,
          "durationTicks": 501,
          "midi": 45,
          "name": "A2",
          "ticks": 1680896,
          "time": 769.8895774999999,
          "velocity": 0.8661417322834646
        },
        {
          "duration": 0.2669826064452536,
          "durationTicks": 501,
          "midi": 43,
          "name": "G2",
          "ticks": 1681408,
          "time": 770.1624219999999,
          "velocity": 0.8661417322834646
        },
        {
          "duration": 0.2669826064452536,
          "durationTicks": 501,
          "midi": 43,
          "name": "G2",
          "ticks": 1681920,
          "time": 770.4352664999999,
          "velocity": 0.8661417322834646
        },
        {
          "duration": 0.2669826064452536,
          "durationTicks": 501,
          "midi": 43,
          "name": "G2",
          "ticks": 1682432,
          "time": 770.7081109999999,
          "velocity": 0.8661417322834646
        },
        {
          "duration": 0.2669826064452536,
          "durationTicks": 501,
          "midi": 43,
          "name": "G2",
          "ticks": 1682944,
          "time": 770.9809554999999,
          "velocity": 0.8661417322834646
        },
        {
          "duration": 0.2669826064453673,
          "durationTicks": 501,
          "midi": 41,
          "name": "F2",
          "ticks": 1683456,
          "time": 771.2537999999998,
          "velocity": 0.8661417322834646
        },
        {
          "duration": 0.2669826064453673,
          "durationTicks": 501,
          "midi": 41,
          "name": "F2",
          "ticks": 1683968,
          "time": 771.5266444999999,
          "velocity": 0.8661417322834646
        },
        {
          "duration": 0.2669826064453673,
          "durationTicks": 501,
          "midi": 41,
          "name": "F2",
          "ticks": 1684480,
          "time": 771.7994889999999,
          "velocity": 0.8661417322834646
        },
        {
          "duration": 0.2669826064452536,
          "durationTicks": 501,
          "midi": 41,
          "name": "F2",
          "ticks": 1684992,
          "time": 772.0723334999999,
          "velocity": 0.8661417322834646
        },
        {
          "duration": 0.2669826064453673,
          "durationTicks": 501,
          "midi": 40,
          "name": "E2",
          "ticks": 1685504,
          "time": 772.3451779999998,
          "velocity": 0.8661417322834646
        },
        {
          "duration": 0.2669826064453673,
          "durationTicks": 501,
          "midi": 40,
          "name": "E2",
          "ticks": 1686016,
          "time": 772.6180224999998,
          "velocity": 0.8661417322834646
        },
        {
          "duration": 0.2669826064453673,
          "durationTicks": 501,
          "midi": 40,
          "name": "E2",
          "ticks": 1686528,
          "time": 772.8908669999998,
          "velocity": 0.8661417322834646
        },
        {
          "duration": 0.2669826064452536,
          "durationTicks": 501,
          "midi": 40,
          "name": "E2",
          "ticks": 1687040,
          "time": 773.1637114999999,
          "velocity": 0.8661417322834646
        },
        {
          "duration": 0.2669826064452536,
          "durationTicks": 501,
          "midi": 38,
          "name": "D2",
          "ticks": 1687552,
          "time": 773.4365559999999,
          "velocity": 0.8661417322834646
        },
        {
          "duration": 0.2669826064452536,
          "durationTicks": 501,
          "midi": 38,
          "name": "D2",
          "ticks": 1688064,
          "time": 773.7094004999999,
          "velocity": 0.8661417322834646
        },
        {
          "duration": 0.2669826064452536,
          "durationTicks": 501,
          "midi": 38,
          "name": "D2",
          "ticks": 1688576,
          "time": 773.9822449999999,
          "velocity": 0.8661417322834646
        },
        {
          "duration": 0.2669826064452536,
          "durationTicks": 501,
          "midi": 38,
          "name": "D2",
          "ticks": 1689088,
          "time": 774.2550894999999,
          "velocity": 0.8661417322834646
        },
        {
          "duration": 0.2669826064453673,
          "durationTicks": 501,
          "midi": 43,
          "name": "G2",
          "ticks": 1689600,
          "time": 774.5279339999998,
          "velocity": 0.8661417322834646
        },
        {
          "duration": 0.2669826064453673,
          "durationTicks": 501,
          "midi": 43,
          "name": "G2",
          "ticks": 1690112,
          "time": 774.8007784999999,
          "velocity": 0.8661417322834646
        },
        {
          "duration": 0.2669826064453673,
          "durationTicks": 501,
          "midi": 43,
          "name": "G2",
          "ticks": 1690624,
          "time": 775.0736229999999,
          "velocity": 0.8661417322834646
        },
        {
          "duration": 0.2669826064452536,
          "durationTicks": 501,
          "midi": 43,
          "name": "G2",
          "ticks": 1691136,
          "time": 775.3464674999999,
          "velocity": 0.8661417322834646
        },
        {
          "duration": 0.2669826064453673,
          "durationTicks": 501,
          "midi": 48,
          "name": "C3",
          "ticks": 1691648,
          "time": 775.6193119999998,
          "velocity": 0.8661417322834646
        },
        {
          "duration": 0.2669826064453673,
          "durationTicks": 501,
          "midi": 48,
          "name": "C3",
          "ticks": 1692160,
          "time": 775.8921564999998,
          "velocity": 0.8661417322834646
        },
        {
          "duration": 0.2669826064453673,
          "durationTicks": 501,
          "midi": 48,
          "name": "C3",
          "ticks": 1692672,
          "time": 776.1650009999998,
          "velocity": 0.8661417322834646
        },
        {
          "duration": 0.2669826064452536,
          "durationTicks": 501,
          "midi": 48,
          "name": "C3",
          "ticks": 1693184,
          "time": 776.4378454999999,
          "velocity": 0.8661417322834646
        },
        {
          "duration": 0.2669826064452536,
          "durationTicks": 501,
          "midi": 47,
          "name": "B2",
          "ticks": 1693696,
          "time": 776.7106899999999,
          "velocity": 0.8661417322834646
        },
        {
          "duration": 0.2669826064452536,
          "durationTicks": 501,
          "midi": 47,
          "name": "B2",
          "ticks": 1694208,
          "time": 776.9835344999999,
          "velocity": 0.8661417322834646
        },
        {
          "duration": 0.2669826064452536,
          "durationTicks": 501,
          "midi": 47,
          "name": "B2",
          "ticks": 1694720,
          "time": 777.2563789999999,
          "velocity": 0.8661417322834646
        },
        {
          "duration": 0.2669826064453673,
          "durationTicks": 501,
          "midi": 47,
          "name": "B2",
          "ticks": 1695232,
          "time": 777.5292234999998,
          "velocity": 0.8661417322834646
        },
        {
          "duration": 0.2669826064453673,
          "durationTicks": 501,
          "midi": 45,
          "name": "A2",
          "ticks": 1695744,
          "time": 777.8020679999998,
          "velocity": 0.8661417322834646
        },
        {
          "duration": 0.2669826064453673,
          "durationTicks": 501,
          "midi": 45,
          "name": "A2",
          "ticks": 1696256,
          "time": 778.0749124999999,
          "velocity": 0.8661417322834646
        },
        {
          "duration": 0.2669826064452536,
          "durationTicks": 501,
          "midi": 45,
          "name": "A2",
          "ticks": 1696768,
          "time": 778.3477569999999,
          "velocity": 0.8661417322834646
        },
        {
          "duration": 0.2669826064452536,
          "durationTicks": 501,
          "midi": 45,
          "name": "A2",
          "ticks": 1697280,
          "time": 778.6206014999999,
          "velocity": 0.8661417322834646
        },
        {
          "duration": 0.2669826064453673,
          "durationTicks": 501,
          "midi": 43,
          "name": "G2",
          "ticks": 1697792,
          "time": 778.8934459999998,
          "velocity": 0.8661417322834646
        },
        {
          "duration": 0.2669826064453673,
          "durationTicks": 501,
          "midi": 43,
          "name": "G2",
          "ticks": 1698304,
          "time": 779.1662904999998,
          "velocity": 0.8661417322834646
        },
        {
          "duration": 0.2669826064453673,
          "durationTicks": 501,
          "midi": 43,
          "name": "G2",
          "ticks": 1698816,
          "time": 779.4391349999999,
          "velocity": 0.8661417322834646
        },
        {
          "duration": 0.2669826064452536,
          "durationTicks": 501,
          "midi": 43,
          "name": "G2",
          "ticks": 1699328,
          "time": 779.7119794999999,
          "velocity": 0.8661417322834646
        },
        {
          "duration": 0.2669826064452536,
          "durationTicks": 501,
          "midi": 41,
          "name": "F2",
          "ticks": 1699840,
          "time": 779.9848239999999,
          "velocity": 0.8661417322834646
        },
        {
          "duration": 0.2669826064452536,
          "durationTicks": 501,
          "midi": 41,
          "name": "F2",
          "ticks": 1700352,
          "time": 780.2576684999999,
          "velocity": 0.8661417322834646
        },
        {
          "duration": 0.2669826064452536,
          "durationTicks": 501,
          "midi": 41,
          "name": "F2",
          "ticks": 1700864,
          "time": 780.5305129999999,
          "velocity": 0.8661417322834646
        },
        {
          "duration": 0.2669826064453673,
          "durationTicks": 501,
          "midi": 41,
          "name": "F2",
          "ticks": 1701376,
          "time": 780.8033574999998,
          "velocity": 0.8661417322834646
        },
        {
          "duration": 0.2669826064453673,
          "durationTicks": 501,
          "midi": 40,
          "name": "E2",
          "ticks": 1701888,
          "time": 781.0762019999999,
          "velocity": 0.8661417322834646
        },
        {
          "duration": 0.2669826064453673,
          "durationTicks": 501,
          "midi": 40,
          "name": "E2",
          "ticks": 1702400,
          "time": 781.3490464999999,
          "velocity": 0.8661417322834646
        },
        {
          "duration": 0.2669826064452536,
          "durationTicks": 501,
          "midi": 40,
          "name": "E2",
          "ticks": 1702912,
          "time": 781.6218909999999,
          "velocity": 0.8661417322834646
        },
        {
          "duration": 0.2669826064452536,
          "durationTicks": 501,
          "midi": 40,
          "name": "E2",
          "ticks": 1703424,
          "time": 781.8947354999999,
          "velocity": 0.8661417322834646
        },
        {
          "duration": 0.2669826064453673,
          "durationTicks": 501,
          "midi": 38,
          "name": "D2",
          "ticks": 1703936,
          "time": 782.1675799999998,
          "velocity": 0.8661417322834646
        },
        {
          "duration": 0.2669826064453673,
          "durationTicks": 501,
          "midi": 38,
          "name": "D2",
          "ticks": 1704448,
          "time": 782.4404244999998,
          "velocity": 0.8661417322834646
        },
        {
          "duration": 0.2669826064453673,
          "durationTicks": 501,
          "midi": 38,
          "name": "D2",
          "ticks": 1704960,
          "time": 782.7132689999999,
          "velocity": 0.8661417322834646
        },
        {
          "duration": 0.2669826064452536,
          "durationTicks": 501,
          "midi": 38,
          "name": "D2",
          "ticks": 1705472,
          "time": 782.9861134999999,
          "velocity": 0.8661417322834646
        },
        {
          "duration": 0.2669826064452536,
          "durationTicks": 501,
          "midi": 43,
          "name": "G2",
          "ticks": 1705984,
          "time": 783.2589579999999,
          "velocity": 0.8661417322834646
        },
        {
          "duration": 0.2669826064452536,
          "durationTicks": 501,
          "midi": 43,
          "name": "G2",
          "ticks": 1706496,
          "time": 783.5318024999999,
          "velocity": 0.8661417322834646
        },
        {
          "duration": 0.2669826064452536,
          "durationTicks": 501,
          "midi": 43,
          "name": "G2",
          "ticks": 1707008,
          "time": 783.8046469999999,
          "velocity": 0.8661417322834646
        },
        {
          "duration": 0.2669826064453673,
          "durationTicks": 501,
          "midi": 43,
          "name": "G2",
          "ticks": 1707520,
          "time": 784.0774914999998,
          "velocity": 0.8661417322834646
        },
        {
          "duration": 0.2669826064453673,
          "durationTicks": 501,
          "midi": 49,
          "name": "C#3",
          "ticks": 1708032,
          "time": 784.3503359999999,
          "velocity": 0.8661417322834646
        },
        {
          "duration": 0.2669826064453673,
          "durationTicks": 501,
          "midi": 49,
          "name": "C#3",
          "ticks": 1708544,
          "time": 784.6231804999999,
          "velocity": 0.8661417322834646
        },
        {
          "duration": 0.2669826064452536,
          "durationTicks": 501,
          "midi": 49,
          "name": "C#3",
          "ticks": 1709056,
          "time": 784.8960249999999,
          "velocity": 0.8661417322834646
        },
        {
          "duration": 0.2669826064453673,
          "durationTicks": 501,
          "midi": 49,
          "name": "C#3",
          "ticks": 1709568,
          "time": 785.1688694999998,
          "velocity": 0.8661417322834646
        },
        {
          "duration": 0.2669826064453673,
          "durationTicks": 501,
          "midi": 48,
          "name": "C3",
          "ticks": 1710080,
          "time": 785.4417139999998,
          "velocity": 0.8661417322834646
        },
        {
          "duration": 0.2669826064453673,
          "durationTicks": 501,
          "midi": 48,
          "name": "C3",
          "ticks": 1710592,
          "time": 785.7145584999998,
          "velocity": 0.8661417322834646
        },
        {
          "duration": 0.2669826064452536,
          "durationTicks": 501,
          "midi": 48,
          "name": "C3",
          "ticks": 1711104,
          "time": 785.9874029999999,
          "velocity": 0.8661417322834646
        },
        {
          "duration": 0.2669826064452536,
          "durationTicks": 501,
          "midi": 48,
          "name": "C3",
          "ticks": 1711616,
          "time": 786.2602474999999,
          "velocity": 0.8661417322834646
        },
        {
          "duration": 0.2669826064452536,
          "durationTicks": 501,
          "midi": 46,
          "name": "A#2",
          "ticks": 1712128,
          "time": 786.5330919999999,
          "velocity": 0.8661417322834646
        },
        {
          "duration": 0.2669826064452536,
          "durationTicks": 501,
          "midi": 46,
          "name": "A#2",
          "ticks": 1712640,
          "time": 786.8059364999999,
          "velocity": 0.8661417322834646
        },
        {
          "duration": 0.2669826064452536,
          "durationTicks": 501,
          "midi": 46,
          "name": "A#2",
          "ticks": 1713152,
          "time": 787.0787809999999,
          "velocity": 0.8661417322834646
        },
        {
          "duration": 0.2669826064453673,
          "durationTicks": 501,
          "midi": 46,
          "name": "A#2",
          "ticks": 1713664,
          "time": 787.3516254999998,
          "velocity": 0.8661417322834646
        },
        {
          "duration": 0.2669826064453673,
          "durationTicks": 501,
          "midi": 44,
          "name": "G#2",
          "ticks": 1714176,
          "time": 787.6244699999999,
          "velocity": 0.8661417322834646
        },
        {
          "duration": 0.2669826064453673,
          "durationTicks": 501,
          "midi": 44,
          "name": "G#2",
          "ticks": 1714688,
          "time": 787.8973144999999,
          "velocity": 0.8661417322834646
        },
        {
          "duration": 0.2669826064452536,
          "durationTicks": 501,
          "midi": 44,
          "name": "G#2",
          "ticks": 1715200,
          "time": 788.1701589999999,
          "velocity": 0.8661417322834646
        },
        {
          "duration": 0.2669826064453673,
          "durationTicks": 501,
          "midi": 44,
          "name": "G#2",
          "ticks": 1715712,
          "time": 788.4430034999998,
          "velocity": 0.8661417322834646
        },
        {
          "duration": 0.2669826064453673,
          "durationTicks": 501,
          "midi": 42,
          "name": "F#2",
          "ticks": 1716224,
          "time": 788.7158479999998,
          "velocity": 0.8661417322834646
        },
        {
          "duration": 0.2669826064453673,
          "durationTicks": 501,
          "midi": 42,
          "name": "F#2",
          "ticks": 1716736,
          "time": 788.9886924999998,
          "velocity": 0.8661417322834646
        },
        {
          "duration": 0.2669826064452536,
          "durationTicks": 501,
          "midi": 42,
          "name": "F#2",
          "ticks": 1717248,
          "time": 789.2615369999999,
          "velocity": 0.8661417322834646
        },
        {
          "duration": 0.2669826064452536,
          "durationTicks": 501,
          "midi": 42,
          "name": "F#2",
          "ticks": 1717760,
          "time": 789.5343814999999,
          "velocity": 0.8661417322834646
        },
        {
          "duration": 0.2669826064452536,
          "durationTicks": 501,
          "midi": 41,
          "name": "F2",
          "ticks": 1718272,
          "time": 789.8072259999999,
          "velocity": 0.8661417322834646
        },
        {
          "duration": 0.2669826064452536,
          "durationTicks": 501,
          "midi": 41,
          "name": "F2",
          "ticks": 1718784,
          "time": 790.0800704999999,
          "velocity": 0.8661417322834646
        },
        {
          "duration": 0.2669826064452536,
          "durationTicks": 501,
          "midi": 41,
          "name": "F2",
          "ticks": 1719296,
          "time": 790.3529149999999,
          "velocity": 0.8661417322834646
        },
        {
          "duration": 0.2669826064453673,
          "durationTicks": 501,
          "midi": 41,
          "name": "F2",
          "ticks": 1719808,
          "time": 790.6257594999998,
          "velocity": 0.8661417322834646
        },
        {
          "duration": 0.2669826064453673,
          "durationTicks": 501,
          "midi": 39,
          "name": "D#2",
          "ticks": 1720320,
          "time": 790.8986039999999,
          "velocity": 0.8661417322834646
        },
        {
          "duration": 0.2669826064453673,
          "durationTicks": 501,
          "midi": 39,
          "name": "D#2",
          "ticks": 1720832,
          "time": 791.1714484999999,
          "velocity": 0.8661417322834646
        },
        {
          "duration": 0.2669826064452536,
          "durationTicks": 501,
          "midi": 39,
          "name": "D#2",
          "ticks": 1721344,
          "time": 791.4442929999999,
          "velocity": 0.8661417322834646
        },
        {
          "duration": 0.2669826064453673,
          "durationTicks": 501,
          "midi": 39,
          "name": "D#2",
          "ticks": 1721856,
          "time": 791.7171374999998,
          "velocity": 0.8661417322834646
        },
        {
          "duration": 0.2669826064453673,
          "durationTicks": 501,
          "midi": 44,
          "name": "G#2",
          "ticks": 1722368,
          "time": 791.9899819999998,
          "velocity": 0.8661417322834646
        },
        {
          "duration": 0.2669826064453673,
          "durationTicks": 501,
          "midi": 44,
          "name": "G#2",
          "ticks": 1722880,
          "time": 792.2628264999998,
          "velocity": 0.8661417322834646
        },
        {
          "duration": 0.2669826064452536,
          "durationTicks": 501,
          "midi": 44,
          "name": "G#2",
          "ticks": 1723392,
          "time": 792.5356709999999,
          "velocity": 0.8661417322834646
        },
        {
          "duration": 0.2669826064452536,
          "durationTicks": 501,
          "midi": 44,
          "name": "G#2",
          "ticks": 1723904,
          "time": 792.8085154999999,
          "velocity": 0.8661417322834646
        },
        {
          "duration": 0.2669826064452536,
          "durationTicks": 501,
          "midi": 49,
          "name": "C#3",
          "ticks": 1724416,
          "time": 793.0813599999999,
          "velocity": 0.8661417322834646
        },
        {
          "duration": 0.2669826064452536,
          "durationTicks": 501,
          "midi": 49,
          "name": "C#3",
          "ticks": 1724928,
          "time": 793.3542044999999,
          "velocity": 0.8661417322834646
        },
        {
          "duration": 0.2669826064453673,
          "durationTicks": 501,
          "midi": 49,
          "name": "C#3",
          "ticks": 1725440,
          "time": 793.6270489999998,
          "velocity": 0.8661417322834646
        },
        {
          "duration": 0.2669826064453673,
          "durationTicks": 501,
          "midi": 49,
          "name": "C#3",
          "ticks": 1725952,
          "time": 793.8998934999998,
          "velocity": 0.8661417322834646
        },
        {
          "duration": 0.2669826064453673,
          "durationTicks": 501,
          "midi": 48,
          "name": "C3",
          "ticks": 1726464,
          "time": 794.1727379999999,
          "velocity": 0.8661417322834646
        },
        {
          "duration": 0.2669826064452536,
          "durationTicks": 501,
          "midi": 48,
          "name": "C3",
          "ticks": 1726976,
          "time": 794.4455824999999,
          "velocity": 0.8661417322834646
        },
        {
          "duration": 0.2669826064452536,
          "durationTicks": 501,
          "midi": 48,
          "name": "C3",
          "ticks": 1727488,
          "time": 794.7184269999999,
          "velocity": 0.8661417322834646
        },
        {
          "duration": 0.2669826064453673,
          "durationTicks": 501,
          "midi": 48,
          "name": "C3",
          "ticks": 1728000,
          "time": 794.9912714999998,
          "velocity": 0.8661417322834646
        },
        {
          "duration": 0.2669826064453673,
          "durationTicks": 501,
          "midi": 46,
          "name": "A#2",
          "ticks": 1728512,
          "time": 795.2641159999998,
          "velocity": 0.8661417322834646
        },
        {
          "duration": 0.2669826064453673,
          "durationTicks": 501,
          "midi": 46,
          "name": "A#2",
          "ticks": 1729024,
          "time": 795.5369604999999,
          "velocity": 0.8661417322834646
        },
        {
          "duration": 0.2669826064452536,
          "durationTicks": 501,
          "midi": 46,
          "name": "A#2",
          "ticks": 1729536,
          "time": 795.8098049999999,
          "velocity": 0.8661417322834646
        },
        {
          "duration": 0.2669826064452536,
          "durationTicks": 501,
          "midi": 46,
          "name": "A#2",
          "ticks": 1730048,
          "time": 796.0826494999999,
          "velocity": 0.8661417322834646
        },
        {
          "duration": 0.2669826064452536,
          "durationTicks": 501,
          "midi": 44,
          "name": "G#2",
          "ticks": 1730560,
          "time": 796.3554939999999,
          "velocity": 0.8661417322834646
        },
        {
          "duration": 0.2669826064452536,
          "durationTicks": 501,
          "midi": 44,
          "name": "G#2",
          "ticks": 1731072,
          "time": 796.6283384999999,
          "velocity": 0.8661417322834646
        },
        {
          "duration": 0.2669826064453673,
          "durationTicks": 501,
          "midi": 44,
          "name": "G#2",
          "ticks": 1731584,
          "time": 796.9011829999998,
          "velocity": 0.8661417322834646
        },
        {
          "duration": 0.2669826064453673,
          "durationTicks": 501,
          "midi": 44,
          "name": "G#2",
          "ticks": 1732096,
          "time": 797.1740274999999,
          "velocity": 0.8661417322834646
        },
        {
          "duration": 0.2669826064453673,
          "durationTicks": 501,
          "midi": 42,
          "name": "F#2",
          "ticks": 1732608,
          "time": 797.4468719999999,
          "velocity": 0.8661417322834646
        },
        {
          "duration": 0.2669826064452536,
          "durationTicks": 501,
          "midi": 42,
          "name": "F#2",
          "ticks": 1733120,
          "time": 797.7197164999999,
          "velocity": 0.8661417322834646
        },
        {
          "duration": 0.2669826064452536,
          "durationTicks": 501,
          "midi": 42,
          "name": "F#2",
          "ticks": 1733632,
          "time": 797.9925609999999,
          "velocity": 0.8661417322834646
        },
        {
          "duration": 0.2669826064453673,
          "durationTicks": 501,
          "midi": 42,
          "name": "F#2",
          "ticks": 1734144,
          "time": 798.2654054999998,
          "velocity": 0.8661417322834646
        },
        {
          "duration": 0.2669826064453673,
          "durationTicks": 501,
          "midi": 41,
          "name": "F2",
          "ticks": 1734656,
          "time": 798.5382499999998,
          "velocity": 0.8661417322834646
        },
        {
          "duration": 0.2669826064453673,
          "durationTicks": 501,
          "midi": 41,
          "name": "F2",
          "ticks": 1735168,
          "time": 798.8110944999999,
          "velocity": 0.8661417322834646
        },
        {
          "duration": 0.2669826064452536,
          "durationTicks": 501,
          "midi": 41,
          "name": "F2",
          "ticks": 1735680,
          "time": 799.0839389999999,
          "velocity": 0.8661417322834646
        },
        {
          "duration": 0.2669826064452536,
          "durationTicks": 501,
          "midi": 41,
          "name": "F2",
          "ticks": 1736192,
          "time": 799.3567834999999,
          "velocity": 0.8661417322834646
        },
        {
          "duration": 0.2669826064452536,
          "durationTicks": 501,
          "midi": 39,
          "name": "D#2",
          "ticks": 1736704,
          "time": 799.6296279999999,
          "velocity": 0.8661417322834646
        },
        {
          "duration": 0.2669826064452536,
          "durationTicks": 501,
          "midi": 39,
          "name": "D#2",
          "ticks": 1737216,
          "time": 799.9024724999999,
          "velocity": 0.8661417322834646
        },
        {
          "duration": 0.2669826064453673,
          "durationTicks": 501,
          "midi": 39,
          "name": "D#2",
          "ticks": 1737728,
          "time": 800.1753169999998,
          "velocity": 0.8661417322834646
        },
        {
          "duration": 0.2669826064453673,
          "durationTicks": 501,
          "midi": 39,
          "name": "D#2",
          "ticks": 1738240,
          "time": 800.4481614999999,
          "velocity": 0.8661417322834646
        },
        {
          "duration": 0.2669826064453673,
          "durationTicks": 501,
          "midi": 44,
          "name": "G#2",
          "ticks": 1738752,
          "time": 800.7210059999999,
          "velocity": 0.8661417322834646
        },
        {
          "duration": 0.2669826064452536,
          "durationTicks": 501,
          "midi": 44,
          "name": "G#2",
          "ticks": 1739264,
          "time": 800.9938504999999,
          "velocity": 0.8661417322834646
        },
        {
          "duration": 0.2669826064453673,
          "durationTicks": 501,
          "midi": 44,
          "name": "G#2",
          "ticks": 1739776,
          "time": 801.2666949999998,
          "velocity": 0.8661417322834646
        },
        {
          "duration": 0.2669826064453673,
          "durationTicks": 501,
          "midi": 44,
          "name": "G#2",
          "ticks": 1740288,
          "time": 801.5395394999998,
          "velocity": 0.8661417322834646
        },
        {
          "duration": 2.0463337500000307,
          "durationTicks": 3840,
          "midi": 37,
          "name": "C#2",
          "ticks": 1740800,
          "time": 801.8123839999998,
          "velocity": 0.8661417322834646
        },
        {
          "duration": 2.0463337500000307,
          "durationTicks": 3840,
          "midi": 42,
          "name": "F#2",
          "ticks": 1744896,
          "time": 803.9951399999999,
          "velocity": 0.8661417322834646
        },
        {
          "duration": 2.046333749999917,
          "durationTicks": 3840,
          "midi": 37,
          "name": "C#2",
          "ticks": 1748992,
          "time": 806.1778959999999,
          "velocity": 0.8661417322834646
        },
        {
          "duration": 2.0463337500000307,
          "durationTicks": 3840,
          "midi": 42,
          "name": "F#2",
          "ticks": 1753088,
          "time": 808.3606519999998,
          "velocity": 0.8661417322834646
        },
        {
          "duration": 2.046333749999917,
          "durationTicks": 3840,
          "midi": 37,
          "name": "C#2",
          "ticks": 1757184,
          "time": 810.5434079999999,
          "velocity": 0.8661417322834646
        },
        {
          "duration": 2.046333749999917,
          "durationTicks": 3840,
          "midi": 42,
          "name": "F#2",
          "ticks": 1761280,
          "time": 812.7261639999999,
          "velocity": 0.8661417322834646
        },
        {
          "duration": 0.3410556250000809,
          "durationTicks": 640,
          "midi": 37,
          "name": "C#2",
          "ticks": 1765760,
          "time": 815.1135533749998,
          "velocity": 0.8661417322834646
        },
        {
          "duration": 0.45456320019525265,
          "durationTicks": 853,
          "midi": 37,
          "name": "C#2",
          "ticks": 1769472,
          "time": 817.0916759999999,
          "velocity": 0.8661417322834646
        }
      ],
      "endOfTrackTicks": 1770326
    }
  ]
}
