{
  "header": {
    "keySignatures": [],
    "meta": [],
    "name": "",
    "ppq": 384,
    "tempos": [
      {
        "bpm": 89.00004005001803,
        "ticks": 0
      }
    ],
    "timeSignatures": [
      {
        "ticks": 0,
        "timeSignature": [
          1,
          4
        ],
        "measures": 0
      }
    ]
  },
  "tracks": [
    {
      "channel": 0,
      "controlChanges": {},
      "pitchBends": [],
      "instrument": {
        "family": "piano",
        "number": 0,
        "name": "acoustic grand piano"
      },
      "name": "Grand Piano",
      "notes": [
        {
          "duration": 0.6741569999999999,
          "durationTicks": 384,
          "midi": 48,
          "name": "C3",
          "ticks": 0,
          "time": 0,
          "velocity": 0.2204724409448819
        },
        {
          "duration": 0.16853924999999997,
          "durationTicks": 96,
          "midi": 55,
          "name": "G3",
          "ticks": 96,
          "time": 0.16853924999999997,
          "velocity": 0.2204724409448819
        },
        {
          "duration": 0.16853924999999992,
          "durationTicks": 96,
          "midi": 60,
          "name": "C4",
          "ticks": 192,
          "time": 0.33707849999999995,
          "velocity": 0.2204724409448819
        },
        {
          "duration": 0.16853925000000003,
          "durationTicks": 96,
          "midi": 62,
          "name": "D4",
          "ticks": 288,
          "time": 0.5056177499999999,
          "velocity": 0.2204724409448819
        },
        {
          "duration": 0.16853925000000003,
          "durationTicks": 96,
          "midi": 64,
          "name": "E4",
          "ticks": 384,
          "time": 0.6741569999999999,
          "velocity": 0.2204724409448819
        },
        {
          "duration": 0.16853925000000003,
          "durationTicks": 96,
          "midi": 55,
          "name": "G3",
          "ticks": 576,
          "time": 1.0112354999999997,
          "velocity": 0.2204724409448819
        },
        {
          "duration": 0.6741569999999997,
          "durationTicks": 384,
          "midi": 48,
          "name": "C3",
          "ticks": 768,
          "time": 1.3483139999999998,
          "velocity": 0.2204724409448819
        },
        {
          "duration": 0.16853925000000003,
          "durationTicks": 96,
          "midi": 55,
          "name": "G3",
          "ticks": 864,
          "time": 1.5168532499999998,
          "velocity": 0.2204724409448819
        },
        {
          "duration": 0.1685392499999998,
          "durationTicks": 96,
          "midi": 60,
          "name": "C4",
          "ticks": 960,
          "time": 1.6853924999999998,
          "velocity": 0.2204724409448819
        },
        {
          "duration": 0.1685392499999998,
          "durationTicks": 96,
          "midi": 62,
          "name": "D4",
          "ticks": 1056,
          "time": 1.8539317499999997,
          "velocity": 0.2204724409448819
        },
        {
          "duration": 0.16853925000000025,
          "durationTicks": 96,
          "midi": 64,
          "name": "E4",
          "ticks": 1152,
          "time": 2.0224709999999995,
          "velocity": 0.2204724409448819
        },
        {
          "duration": 0.16853925000000025,
          "durationTicks": 96,
          "midi": 55,
          "name": "G3",
          "ticks": 1344,
          "time": 2.3595494999999995,
          "velocity": 0.2204724409448819
        },
        {
          "duration": 0.6741570000000001,
          "durationTicks": 384,
          "midi": 45,
          "name": "A2",
          "ticks": 1536,
          "time": 2.6966279999999996,
          "velocity": 0.2204724409448819
        },
        {
          "duration": 0.16853925000000025,
          "durationTicks": 96,
          "midi": 55,
          "name": "G3",
          "ticks": 1632,
          "time": 2.8651672499999994,
          "velocity": 0.2204724409448819
        },
        {
          "duration": 0.1685392499999998,
          "durationTicks": 96,
          "midi": 60,
          "name": "C4",
          "ticks": 1728,
          "time": 3.0337064999999996,
          "velocity": 0.2204724409448819
        },
        {
          "duration": 0.16853925000000025,
          "durationTicks": 96,
          "midi": 62,
          "name": "D4",
          "ticks": 1824,
          "time": 3.2022457499999994,
          "velocity": 0.2204724409448819
        },
        {
          "duration": 0.1685392499999998,
          "durationTicks": 96,
          "midi": 64,
          "name": "E4",
          "ticks": 1920,
          "time": 3.3707849999999997,
          "velocity": 0.2204724409448819
        },
        {
          "duration": 0.16853925000000025,
          "durationTicks": 96,
          "midi": 55,
          "name": "G3",
          "ticks": 2112,
          "time": 3.7078634999999993,
          "velocity": 0.2204724409448819
        },
        {
          "duration": 0.6741570000000001,
          "durationTicks": 384,
          "midi": 45,
          "name": "A2",
          "ticks": 2304,
          "time": 4.044941999999999,
          "velocity": 0.2204724409448819
        },
        {
          "duration": 0.16853925000000025,
          "durationTicks": 96,
          "midi": 55,
          "name": "G3",
          "ticks": 2400,
          "time": 4.213481249999999,
          "velocity": 0.2204724409448819
        },
        {
          "duration": 0.16853925000000025,
          "durationTicks": 96,
          "midi": 60,
          "name": "C4",
          "ticks": 2496,
          "time": 4.382020499999999,
          "velocity": 0.2204724409448819
        },
        {
          "duration": 0.16853924999999936,
          "durationTicks": 96,
          "midi": 62,
          "name": "D4",
          "ticks": 2592,
          "time": 4.55055975,
          "velocity": 0.2204724409448819
        },
        {
          "duration": 0.16853925000000025,
          "durationTicks": 96,
          "midi": 64,
          "name": "E4",
          "ticks": 2688,
          "time": 4.719098999999999,
          "velocity": 0.2204724409448819
        },
        {
          "duration": 0.16853924999999936,
          "durationTicks": 96,
          "midi": 55,
          "name": "G3",
          "ticks": 2880,
          "time": 5.0561774999999995,
          "velocity": 0.2204724409448819
        },
        {
          "duration": 0.6741570000000001,
          "durationTicks": 384,
          "midi": 41,
          "name": "F2",
          "ticks": 3072,
          "time": 5.393255999999999,
          "velocity": 0.2204724409448819
        },
        {
          "duration": 0.16853924999999936,
          "durationTicks": 96,
          "midi": 55,
          "name": "G3",
          "ticks": 3168,
          "time": 5.561795249999999,
          "velocity": 0.2204724409448819
        },
        {
          "duration": 0.16853925000000025,
          "durationTicks": 96,
          "midi": 60,
          "name": "C4",
          "ticks": 3264,
          "time": 5.730334499999999,
          "velocity": 0.2204724409448819
        },
        {
          "duration": 0.16853925000000025,
          "durationTicks": 96,
          "midi": 62,
          "name": "D4",
          "ticks": 3360,
          "time": 5.898873749999999,
          "velocity": 0.2204724409448819
        },
        {
          "duration": 0.16853924999999936,
          "durationTicks": 96,
          "midi": 64,
          "name": "E4",
          "ticks": 3456,
          "time": 6.067412999999999,
          "velocity": 0.2204724409448819
        },
        {
          "duration": 0.16853925000000025,
          "durationTicks": 96,
          "midi": 55,
          "name": "G3",
          "ticks": 3648,
          "time": 6.404491499999999,
          "velocity": 0.2204724409448819
        },
        {
          "duration": 0.6741569999999992,
          "durationTicks": 384,
          "midi": 41,
          "name": "F2",
          "ticks": 3840,
          "time": 6.741569999999999,
          "velocity": 0.2204724409448819
        },
        {
          "duration": 0.16853925000000025,
          "durationTicks": 96,
          "midi": 55,
          "name": "G3",
          "ticks": 3936,
          "time": 6.910109249999999,
          "velocity": 0.2204724409448819
        },
        {
          "duration": 0.16853925000000025,
          "durationTicks": 96,
          "midi": 60,
          "name": "C4",
          "ticks": 4032,
          "time": 7.078648499999999,
          "velocity": 0.2204724409448819
        },
        {
          "duration": 0.16853924999999936,
          "durationTicks": 96,
          "midi": 62,
          "name": "D4",
          "ticks": 4128,
          "time": 7.247187749999999,
          "velocity": 0.2204724409448819
        },
        {
          "duration": 0.16853925000000025,
          "durationTicks": 96,
          "midi": 64,
          "name": "E4",
          "ticks": 4224,
          "time": 7.415726999999999,
          "velocity": 0.2204724409448819
        },
        {
          "duration": 0.16853924999999936,
          "durationTicks": 96,
          "midi": 55,
          "name": "G3",
          "ticks": 4416,
          "time": 7.752805499999999,
          "velocity": 0.2204724409448819
        },
        {
          "duration": 0.674157000000001,
          "durationTicks": 384,
          "midi": 43,
          "name": "G2",
          "ticks": 4608,
          "time": 8.089883999999998,
          "velocity": 0.2204724409448819
        },
        {
          "duration": 0.16853925000000025,
          "durationTicks": 96,
          "midi": 55,
          "name": "G3",
          "ticks": 4704,
          "time": 8.258423249999998,
          "velocity": 0.2204724409448819
        },
        {
          "duration": 0.16853925000000025,
          "durationTicks": 96,
          "midi": 60,
          "name": "C4",
          "ticks": 4800,
          "time": 8.426962499999998,
          "velocity": 0.2204724409448819
        },
        {
          "duration": 0.16853925000000025,
          "durationTicks": 96,
          "midi": 62,
          "name": "D4",
          "ticks": 4896,
          "time": 8.595501749999999,
          "velocity": 0.2204724409448819
        },
        {
          "duration": 0.16853925000000025,
          "durationTicks": 96,
          "midi": 64,
          "name": "E4",
          "ticks": 4992,
          "time": 8.764040999999999,
          "velocity": 0.2204724409448819
        },
        {
          "duration": 0.16853924999999848,
          "durationTicks": 96,
          "midi": 55,
          "name": "G3",
          "ticks": 5184,
          "time": 9.1011195,
          "velocity": 0.2204724409448819
        },
        {
          "duration": 0.674157000000001,
          "durationTicks": 384,
          "midi": 43,
          "name": "G2",
          "ticks": 5376,
          "time": 9.438197999999998,
          "velocity": 0.2204724409448819
        },
        {
          "duration": 0.16853925000000025,
          "durationTicks": 96,
          "midi": 55,
          "name": "G3",
          "ticks": 5472,
          "time": 9.606737249999998,
          "velocity": 0.2204724409448819
        },
        {
          "duration": 0.16853925000000025,
          "durationTicks": 96,
          "midi": 60,
          "name": "C4",
          "ticks": 5568,
          "time": 9.775276499999999,
          "velocity": 0.2204724409448819
        },
        {
          "duration": 0.16853925000000025,
          "durationTicks": 96,
          "midi": 62,
          "name": "D4",
          "ticks": 5664,
          "time": 9.943815749999999,
          "velocity": 0.2204724409448819
        },
        {
          "duration": 0.16853924999999848,
          "durationTicks": 96,
          "midi": 64,
          "name": "E4",
          "ticks": 5760,
          "time": 10.112354999999999,
          "velocity": 0.2204724409448819
        },
        {
          "duration": 0.16853925000000025,
          "durationTicks": 96,
          "midi": 55,
          "name": "G3",
          "ticks": 5952,
          "time": 10.449433499999998,
          "velocity": 0.2204724409448819
        },
        {
          "duration": 0.6741569999999992,
          "durationTicks": 384,
          "midi": 48,
          "name": "C3",
          "ticks": 6144,
          "time": 10.786511999999998,
          "velocity": 0.2204724409448819
        },
        {
          "duration": 0.16853925000000025,
          "durationTicks": 96,
          "midi": 55,
          "name": "G3",
          "ticks": 6240,
          "time": 10.955051249999999,
          "velocity": 0.2204724409448819
        },
        {
          "duration": 0.16853925000000025,
          "durationTicks": 96,
          "midi": 60,
          "name": "C4",
          "ticks": 6336,
          "time": 11.123590499999999,
          "velocity": 0.2204724409448819
        },
        {
          "duration": 0.16853924999999848,
          "durationTicks": 96,
          "midi": 62,
          "name": "D4",
          "ticks": 6432,
          "time": 11.292129749999999,
          "velocity": 0.2204724409448819
        },
        {
          "duration": 0.16853925000000025,
          "durationTicks": 96,
          "midi": 64,
          "name": "E4",
          "ticks": 6528,
          "time": 11.460668999999998,
          "velocity": 0.2204724409448819
        },
        {
          "duration": 0.16853925000000025,
          "durationTicks": 96,
          "midi": 55,
          "name": "G3",
          "ticks": 6720,
          "time": 11.797747499999998,
          "velocity": 0.2204724409448819
        },
        {
          "duration": 0.6741569999999992,
          "durationTicks": 384,
          "midi": 48,
          "name": "C3",
          "ticks": 6912,
          "time": 12.134825999999999,
          "velocity": 0.2204724409448819
        },
        {
          "duration": 0.16853924999999848,
          "durationTicks": 96,
          "midi": 55,
          "name": "G3",
          "ticks": 7008,
          "time": 12.303365249999999,
          "velocity": 0.2204724409448819
        },
        {
          "duration": 0.16853925000000025,
          "durationTicks": 96,
          "midi": 60,
          "name": "C4",
          "ticks": 7104,
          "time": 12.471904499999997,
          "velocity": 0.2204724409448819
        },
        {
          "duration": 0.16853925000000025,
          "durationTicks": 96,
          "midi": 62,
          "name": "D4",
          "ticks": 7200,
          "time": 12.640443749999998,
          "velocity": 0.2204724409448819
        },
        {
          "duration": 0.16853925000000025,
          "durationTicks": 96,
          "midi": 64,
          "name": "E4",
          "ticks": 7296,
          "time": 12.808982999999998,
          "velocity": 0.2283464566929134
        },
        {
          "duration": 0.16853925000000025,
          "durationTicks": 96,
          "midi": 55,
          "name": "G3",
          "ticks": 7488,
          "time": 13.146061499999998,
          "velocity": 0.2283464566929134
        },
        {
          "duration": 0.6741569999999992,
          "durationTicks": 384,
          "midi": 45,
          "name": "A2",
          "ticks": 7680,
          "time": 13.483139999999999,
          "velocity": 0.2283464566929134
        },
        {
          "duration": 0.16853925000000025,
          "durationTicks": 96,
          "midi": 55,
          "name": "G3",
          "ticks": 7776,
          "time": 13.651679249999997,
          "velocity": 0.2283464566929134
        },
        {
          "duration": 0.16853925000000025,
          "durationTicks": 96,
          "midi": 60,
          "name": "C4",
          "ticks": 7872,
          "time": 13.820218499999998,
          "velocity": 0.2283464566929134
        },
        {
          "duration": 0.16853925000000025,
          "durationTicks": 96,
          "midi": 62,
          "name": "D4",
          "ticks": 7968,
          "time": 13.988757749999998,
          "velocity": 0.2283464566929134
        },
        {
          "duration": 0.16853925000000025,
          "durationTicks": 96,
          "midi": 64,
          "name": "E4",
          "ticks": 8064,
          "time": 14.157296999999998,
          "velocity": 0.2283464566929134
        },
        {
          "duration": 0.16853924999999848,
          "durationTicks": 96,
          "midi": 55,
          "name": "G3",
          "ticks": 8256,
          "time": 14.494375499999999,
          "velocity": 0.2283464566929134
        },
        {
          "duration": 0.674157000000001,
          "durationTicks": 384,
          "midi": 45,
          "name": "A2",
          "ticks": 8448,
          "time": 14.831453999999997,
          "velocity": 0.23622047244094488
        },
        {
          "duration": 0.16853925000000025,
          "durationTicks": 96,
          "midi": 55,
          "name": "G3",
          "ticks": 8544,
          "time": 14.999993249999998,
          "velocity": 0.23622047244094488
        },
        {
          "duration": 0.16853925000000025,
          "durationTicks": 96,
          "midi": 60,
          "name": "C4",
          "ticks": 8640,
          "time": 15.168532499999998,
          "velocity": 0.23622047244094488
        },
        {
          "duration": 0.16853925000000025,
          "durationTicks": 96,
          "midi": 62,
          "name": "D4",
          "ticks": 8736,
          "time": 15.337071749999998,
          "velocity": 0.23622047244094488
        },
        {
          "duration": 0.16853924999999848,
          "durationTicks": 96,
          "midi": 64,
          "name": "E4",
          "ticks": 8832,
          "time": 15.505610999999998,
          "velocity": 0.23622047244094488
        },
        {
          "duration": 0.16853925000000025,
          "durationTicks": 96,
          "midi": 55,
          "name": "G3",
          "ticks": 9024,
          "time": 15.842689499999997,
          "velocity": 0.23622047244094488
        },
        {
          "duration": 0.674157000000001,
          "durationTicks": 384,
          "midi": 41,
          "name": "F2",
          "ticks": 9216,
          "time": 16.179767999999996,
          "velocity": 0.23622047244094488
        },
        {
          "duration": 0.16853924999999848,
          "durationTicks": 96,
          "midi": 55,
          "name": "G3",
          "ticks": 9312,
          "time": 16.348307249999998,
          "velocity": 0.23622047244094488
        },
        {
          "duration": 0.16853925000000203,
          "durationTicks": 96,
          "midi": 60,
          "name": "C4",
          "ticks": 9408,
          "time": 16.516846499999996,
          "velocity": 0.23622047244094488
        },
        {
          "duration": 0.16853924999999848,
          "durationTicks": 96,
          "midi": 62,
          "name": "D4",
          "ticks": 9504,
          "time": 16.68538575,
          "velocity": 0.23622047244094488
        },
        {
          "duration": 0.16853925000000203,
          "durationTicks": 96,
          "midi": 64,
          "name": "E4",
          "ticks": 9600,
          "time": 16.853924999999997,
          "velocity": 0.23622047244094488
        },
        {
          "duration": 0.16853924999999848,
          "durationTicks": 96,
          "midi": 55,
          "name": "G3",
          "ticks": 9792,
          "time": 17.191003499999997,
          "velocity": 0.23622047244094488
        },
        {
          "duration": 0.674157000000001,
          "durationTicks": 384,
          "midi": 41,
          "name": "F2",
          "ticks": 9984,
          "time": 17.528081999999998,
          "velocity": 0.2440944881889764
        },
        {
          "duration": 0.16853925000000203,
          "durationTicks": 96,
          "midi": 55,
          "name": "G3",
          "ticks": 10080,
          "time": 17.696621249999996,
          "velocity": 0.2440944881889764
        },
        {
          "duration": 0.16853924999999848,
          "durationTicks": 96,
          "midi": 60,
          "name": "C4",
          "ticks": 10176,
          "time": 17.865160499999998,
          "velocity": 0.2440944881889764
        },
        {
          "duration": 0.16853925000000203,
          "durationTicks": 96,
          "midi": 62,
          "name": "D4",
          "ticks": 10272,
          "time": 18.033699749999997,
          "velocity": 0.2440944881889764
        },
        {
          "duration": 0.16853924999999848,
          "durationTicks": 96,
          "midi": 64,
          "name": "E4",
          "ticks": 10368,
          "time": 18.202239,
          "velocity": 0.2440944881889764
        },
        {
          "duration": 0.16853925000000203,
          "durationTicks": 96,
          "midi": 55,
          "name": "G3",
          "ticks": 10560,
          "time": 18.539317499999996,
          "velocity": 0.2440944881889764
        },
        {
          "duration": 0.674157000000001,
          "durationTicks": 384,
          "midi": 43,
          "name": "G2",
          "ticks": 10752,
          "time": 18.876395999999996,
          "velocity": 0.2440944881889764
        },
        {
          "duration": 0.16853924999999848,
          "durationTicks": 96,
          "midi": 55,
          "name": "G3",
          "ticks": 10848,
          "time": 19.044935249999998,
          "velocity": 0.2440944881889764
        },
        {
          "duration": 0.16853925000000203,
          "durationTicks": 96,
          "midi": 60,
          "name": "C4",
          "ticks": 10944,
          "time": 19.213474499999997,
          "velocity": 0.2440944881889764
        },
        {
          "duration": 0.16853924999999848,
          "durationTicks": 96,
          "midi": 62,
          "name": "D4",
          "ticks": 11040,
          "time": 19.38201375,
          "velocity": 0.2440944881889764
        },
        {
          "duration": 0.16853924999999848,
          "durationTicks": 96,
          "midi": 64,
          "name": "E4",
          "ticks": 11136,
          "time": 19.550552999999997,
          "velocity": 0.25196850393700787
        },
        {
          "duration": 0.16853924999999848,
          "durationTicks": 96,
          "midi": 55,
          "name": "G3",
          "ticks": 11328,
          "time": 19.887631499999998,
          "velocity": 0.25196850393700787
        },
        {
          "duration": 0.33707849999999695,
          "durationTicks": 192,
          "midi": 43,
          "name": "G2",
          "ticks": 11520,
          "time": 20.224709999999998,
          "velocity": 0.25196850393700787
        },
        {
          "duration": 0.16853924999999848,
          "durationTicks": 96,
          "midi": 55,
          "name": "G3",
          "ticks": 11616,
          "time": 20.393249249999997,
          "velocity": 0.25196850393700787
        },
        {
          "duration": 0.16853925000000203,
          "durationTicks": 96,
          "midi": 60,
          "name": "C4",
          "ticks": 11712,
          "time": 20.561788499999995,
          "velocity": 0.25196850393700787
        },
        {
          "duration": 0.16853924999999848,
          "durationTicks": 96,
          "midi": 62,
          "name": "D4",
          "ticks": 11808,
          "time": 20.730327749999997,
          "velocity": 0.25196850393700787
        },
        {
          "duration": 0.674157000000001,
          "durationTicks": 384,
          "midi": 48,
          "name": "C3",
          "ticks": 12288,
          "time": 21.573023999999997,
          "velocity": 0.25984251968503935
        },
        {
          "duration": 0.674157000000001,
          "durationTicks": 384,
          "midi": 60,
          "name": "C4",
          "ticks": 12288,
          "time": 21.573023999999997,
          "velocity": 0.25984251968503935
        },
        {
          "duration": 0.16853925000000203,
          "durationTicks": 96,
          "midi": 67,
          "name": "G4",
          "ticks": 12384,
          "time": 21.741563249999995,
          "velocity": 0.25984251968503935
        },
        {
          "duration": 0.16853924999999848,
          "durationTicks": 96,
          "midi": 72,
          "name": "C5",
          "ticks": 12480,
          "time": 21.910102499999997,
          "velocity": 0.25984251968503935
        },
        {
          "duration": 0.16853925000000203,
          "durationTicks": 96,
          "midi": 74,
          "name": "D5",
          "ticks": 12576,
          "time": 22.078641749999996,
          "velocity": 0.25984251968503935
        },
        {
          "duration": 0.16853924999999848,
          "durationTicks": 96,
          "midi": 76,
          "name": "E5",
          "ticks": 12672,
          "time": 22.247180999999998,
          "velocity": 0.25984251968503935
        },
        {
          "duration": 0.6741569999999975,
          "durationTicks": 384,
          "midi": 55,
          "name": "G3",
          "ticks": 12672,
          "time": 22.247180999999998,
          "velocity": 0.25984251968503935
        },
        {
          "duration": 0.16853924999999848,
          "durationTicks": 96,
          "midi": 67,
          "name": "G4",
          "ticks": 12864,
          "time": 22.584259499999998,
          "velocity": 0.25984251968503935
        },
        {
          "duration": 0.6741569999999975,
          "durationTicks": 384,
          "midi": 60,
          "name": "C4",
          "ticks": 12864,
          "time": 22.584259499999998,
          "velocity": 0.25984251968503935
        },
        {
          "duration": 1.348314000000002,
          "durationTicks": 768,
          "midi": 48,
          "name": "C3",
          "ticks": 13056,
          "time": 22.921337999999995,
          "velocity": 0.25984251968503935
        },
        {
          "duration": 0.16853924999999848,
          "durationTicks": 96,
          "midi": 67,
          "name": "G4",
          "ticks": 13152,
          "time": 23.089877249999997,
          "velocity": 0.25984251968503935
        },
        {
          "duration": 0.3370785000000005,
          "durationTicks": 192,
          "midi": 62,
          "name": "D4",
          "ticks": 13248,
          "time": 23.258416499999996,
          "velocity": 0.25984251968503935
        },
        {
          "duration": 0.16853925000000203,
          "durationTicks": 96,
          "midi": 72,
          "name": "C5",
          "ticks": 13248,
          "time": 23.258416499999996,
          "velocity": 0.25984251968503935
        },
        {
          "duration": 0.16853924999999848,
          "durationTicks": 96,
          "midi": 74,
          "name": "D5",
          "ticks": 13344,
          "time": 23.426955749999998,
          "velocity": 0.25984251968503935
        },
        {
          "duration": 0.16853924999999848,
          "durationTicks": 96,
          "midi": 76,
          "name": "E5",
          "ticks": 13440,
          "time": 23.595494999999996,
          "velocity": 0.25984251968503935
        },
        {
          "duration": 0.16853924999999848,
          "durationTicks": 96,
          "midi": 67,
          "name": "G4",
          "ticks": 13632,
          "time": 23.932573499999997,
          "velocity": 0.25984251968503935
        },
        {
          "duration": 0.6741569999999975,
          "durationTicks": 384,
          "midi": 57,
          "name": "A3",
          "ticks": 13824,
          "time": 24.269651999999997,
          "velocity": 0.25984251968503935
        },
        {
          "duration": 0.6741569999999975,
          "durationTicks": 384,
          "midi": 45,
          "name": "A2",
          "ticks": 13824,
          "time": 24.269651999999997,
          "velocity": 0.25984251968503935
        },
        {
          "duration": 0.16853925000000203,
          "durationTicks": 96,
          "midi": 67,
          "name": "G4",
          "ticks": 13920,
          "time": 24.438191249999996,
          "velocity": 0.25984251968503935
        },
        {
          "duration": 0.16853924999999848,
          "durationTicks": 96,
          "midi": 72,
          "name": "C5",
          "ticks": 14016,
          "time": 24.606730499999998,
          "velocity": 0.25984251968503935
        },
        {
          "duration": 0.16853924999999848,
          "durationTicks": 96,
          "midi": 74,
          "name": "D5",
          "ticks": 14112,
          "time": 24.775269749999996,
          "velocity": 0.25984251968503935
        },
        {
          "duration": 0.674157000000001,
          "durationTicks": 384,
          "midi": 55,
          "name": "G3",
          "ticks": 14208,
          "time": 24.943808999999995,
          "velocity": 0.25984251968503935
        },
        {
          "duration": 0.16853925000000203,
          "durationTicks": 96,
          "midi": 76,
          "name": "E5",
          "ticks": 14208,
          "time": 24.943808999999995,
          "velocity": 0.25984251968503935
        },
        {
          "duration": 0.674157000000001,
          "durationTicks": 384,
          "midi": 60,
          "name": "C4",
          "ticks": 14400,
          "time": 25.280887499999995,
          "velocity": 0.25984251968503935
        },
        {
          "duration": 0.16853925000000203,
          "durationTicks": 96,
          "midi": 67,
          "name": "G4",
          "ticks": 14400,
          "time": 25.280887499999995,
          "velocity": 0.25984251968503935
        },
        {
          "duration": 1.348314000000002,
          "durationTicks": 768,
          "midi": 45,
          "name": "A2",
          "ticks": 14592,
          "time": 25.617965999999996,
          "velocity": 0.25984251968503935
        },
        {
          "duration": 0.16853924999999848,
          "durationTicks": 96,
          "midi": 67,
          "name": "G4",
          "ticks": 14688,
          "time": 25.786505249999998,
          "velocity": 0.25984251968503935
        },
        {
          "duration": 0.16853924999999848,
          "durationTicks": 96,
          "midi": 72,
          "name": "C5",
          "ticks": 14784,
          "time": 25.955044499999996,
          "velocity": 0.25984251968503935
        },
        {
          "duration": 0.3370785000000005,
          "durationTicks": 192,
          "midi": 62,
          "name": "D4",
          "ticks": 14784,
          "time": 25.955044499999996,
          "velocity": 0.25984251968503935
        },
        {
          "duration": 0.16853925000000203,
          "durationTicks": 96,
          "midi": 74,
          "name": "D5",
          "ticks": 14880,
          "time": 26.123583749999995,
          "velocity": 0.25984251968503935
        },
        {
          "duration": 0.16853924999999848,
          "durationTicks": 96,
          "midi": 76,
          "name": "E5",
          "ticks": 14976,
          "time": 26.292122999999997,
          "velocity": 0.25984251968503935
        },
        {
          "duration": 0.16853924999999848,
          "durationTicks": 96,
          "midi": 67,
          "name": "G4",
          "ticks": 15168,
          "time": 26.629201499999997,
          "velocity": 0.25984251968503935
        },
        {
          "duration": 0.6741569999999975,
          "durationTicks": 384,
          "midi": 53,
          "name": "F3",
          "ticks": 15360,
          "time": 26.966279999999998,
          "velocity": 0.25984251968503935
        },
        {
          "duration": 0.6741569999999975,
          "durationTicks": 384,
          "midi": 41,
          "name": "F2",
          "ticks": 15360,
          "time": 26.966279999999998,
          "velocity": 0.25984251968503935
        },
        {
          "duration": 0.16853924999999848,
          "durationTicks": 96,
          "midi": 67,
          "name": "G4",
          "ticks": 15456,
          "time": 27.134819249999996,
          "velocity": 0.25984251968503935
        },
        {
          "duration": 0.16853925000000203,
          "durationTicks": 96,
          "midi": 72,
          "name": "C5",
          "ticks": 15552,
          "time": 27.303358499999995,
          "velocity": 0.25984251968503935
        },
        {
          "duration": 0.16853924999999848,
          "durationTicks": 96,
          "midi": 74,
          "name": "D5",
          "ticks": 15648,
          "time": 27.471897749999997,
          "velocity": 0.25984251968503935
        },
        {
          "duration": 0.16853925000000203,
          "durationTicks": 96,
          "midi": 76,
          "name": "E5",
          "ticks": 15744,
          "time": 27.640436999999995,
          "velocity": 0.25984251968503935
        },
        {
          "duration": 0.674157000000001,
          "durationTicks": 384,
          "midi": 55,
          "name": "G3",
          "ticks": 15744,
          "time": 27.640436999999995,
          "velocity": 0.25984251968503935
        },
        {
          "duration": 0.16853924999999848,
          "durationTicks": 96,
          "midi": 67,
          "name": "G4",
          "ticks": 15936,
          "time": 27.977515499999996,
          "velocity": 0.25984251968503935
        },
        {
          "duration": 0.674157000000001,
          "durationTicks": 384,
          "midi": 60,
          "name": "C4",
          "ticks": 15936,
          "time": 27.977515499999996,
          "velocity": 0.25984251968503935
        },
        {
          "duration": 1.3483139999999985,
          "durationTicks": 768,
          "midi": 41,
          "name": "F2",
          "ticks": 16128,
          "time": 28.314593999999996,
          "velocity": 0.25984251968503935
        },
        {
          "duration": 0.16853925000000203,
          "durationTicks": 96,
          "midi": 67,
          "name": "G4",
          "ticks": 16224,
          "time": 28.483133249999995,
          "velocity": 0.25984251968503935
        },
        {
          "duration": 0.3370785000000005,
          "durationTicks": 192,
          "midi": 62,
          "name": "D4",
          "ticks": 16320,
          "time": 28.651672499999997,
          "velocity": 0.25984251968503935
        },
        {
          "duration": 0.16853924999999848,
          "durationTicks": 96,
          "midi": 72,
          "name": "C5",
          "ticks": 16320,
          "time": 28.651672499999997,
          "velocity": 0.25984251968503935
        },
        {
          "duration": 0.16853925000000203,
          "durationTicks": 96,
          "midi": 74,
          "name": "D5",
          "ticks": 16416,
          "time": 28.820211749999995,
          "velocity": 0.25984251968503935
        },
        {
          "duration": 0.16853924999999848,
          "durationTicks": 96,
          "midi": 76,
          "name": "E5",
          "ticks": 16512,
          "time": 28.988750999999997,
          "velocity": 0.25984251968503935
        },
        {
          "duration": 0.16853925000000203,
          "durationTicks": 96,
          "midi": 67,
          "name": "G4",
          "ticks": 16704,
          "time": 29.325829499999994,
          "velocity": 0.25984251968503935
        },
        {
          "duration": 0.674157000000001,
          "durationTicks": 384,
          "midi": 43,
          "name": "G2",
          "ticks": 16896,
          "time": 29.662907999999995,
          "velocity": 0.25984251968503935
        },
        {
          "duration": 0.674157000000001,
          "durationTicks": 384,
          "midi": 55,
          "name": "G3",
          "ticks": 16896,
          "time": 29.662907999999995,
          "velocity": 0.25984251968503935
        },
        {
          "duration": 0.16853924999999848,
          "durationTicks": 96,
          "midi": 67,
          "name": "G4",
          "ticks": 16992,
          "time": 29.831447249999997,
          "velocity": 0.25984251968503935
        },
        {
          "duration": 0.16853925000000203,
          "durationTicks": 96,
          "midi": 72,
          "name": "C5",
          "ticks": 17088,
          "time": 29.999986499999995,
          "velocity": 0.25984251968503935
        },
        {
          "duration": 0.16853924999999848,
          "durationTicks": 96,
          "midi": 74,
          "name": "D5",
          "ticks": 17184,
          "time": 30.168525749999997,
          "velocity": 0.25984251968503935
        },
        {
          "duration": 0.16853924999999848,
          "durationTicks": 96,
          "midi": 76,
          "name": "E5",
          "ticks": 17280,
          "time": 30.337064999999996,
          "velocity": 0.25984251968503935
        },
        {
          "duration": 0.674157000000001,
          "durationTicks": 384,
          "midi": 55,
          "name": "G3",
          "ticks": 17280,
          "time": 30.337064999999996,
          "velocity": 0.25984251968503935
        },
        {
          "duration": 0.16853924999999848,
          "durationTicks": 96,
          "midi": 67,
          "name": "G4",
          "ticks": 17472,
          "time": 30.674143499999996,
          "velocity": 0.25984251968503935
        },
        {
          "duration": 0.6741569999999975,
          "durationTicks": 384,
          "midi": 60,
          "name": "C4",
          "ticks": 17472,
          "time": 30.674143499999996,
          "velocity": 0.25984251968503935
        },
        {
          "duration": 1.348313999999995,
          "durationTicks": 768,
          "midi": 43,
          "name": "G2",
          "ticks": 17664,
          "time": 31.011221999999997,
          "velocity": 0.25984251968503935
        },
        {
          "duration": 0.16853924999999848,
          "durationTicks": 96,
          "midi": 67,
          "name": "G4",
          "ticks": 17760,
          "time": 31.179761249999995,
          "velocity": 0.25984251968503935
        },
        {
          "duration": 0.3370785000000005,
          "durationTicks": 192,
          "midi": 62,
          "name": "D4",
          "ticks": 17856,
          "time": 31.348300499999993,
          "velocity": 0.25984251968503935
        },
        {
          "duration": 0.16853925000000203,
          "durationTicks": 96,
          "midi": 72,
          "name": "C5",
          "ticks": 17856,
          "time": 31.348300499999993,
          "velocity": 0.25984251968503935
        },
        {
          "duration": 0.16853924999999848,
          "durationTicks": 96,
          "midi": 74,
          "name": "D5",
          "ticks": 17952,
          "time": 31.516839749999995,
          "velocity": 0.25984251968503935
        },
        {
          "duration": 0.16853925000000203,
          "durationTicks": 96,
          "midi": 76,
          "name": "E5",
          "ticks": 18048,
          "time": 31.685378999999994,
          "velocity": 0.25984251968503935
        },
        {
          "duration": 0.16853925000000203,
          "durationTicks": 96,
          "midi": 67,
          "name": "G4",
          "ticks": 18240,
          "time": 32.022457499999994,
          "velocity": 0.25984251968503935
        },
        {
          "duration": 0.674157000000001,
          "durationTicks": 384,
          "midi": 60,
          "name": "C4",
          "ticks": 18432,
          "time": 32.35953599999999,
          "velocity": 0.25984251968503935
        },
        {
          "duration": 0.674157000000001,
          "durationTicks": 384,
          "midi": 48,
          "name": "C3",
          "ticks": 18432,
          "time": 32.35953599999999,
          "velocity": 0.25984251968503935
        },
        {
          "duration": 0.16853925000000203,
          "durationTicks": 96,
          "midi": 67,
          "name": "G4",
          "ticks": 18528,
          "time": 32.52807524999999,
          "velocity": 0.25984251968503935
        },
        {
          "duration": 0.16853925000000203,
          "durationTicks": 96,
          "midi": 72,
          "name": "C5",
          "ticks": 18624,
          "time": 32.696614499999995,
          "velocity": 0.25984251968503935
        },
        {
          "duration": 0.16853924999999492,
          "durationTicks": 96,
          "midi": 74,
          "name": "D5",
          "ticks": 18720,
          "time": 32.86515375,
          "velocity": 0.25984251968503935
        },
        {
          "duration": 0.674157000000001,
          "durationTicks": 384,
          "midi": 55,
          "name": "G3",
          "ticks": 18816,
          "time": 33.03369299999999,
          "velocity": 0.25984251968503935
        },
        {
          "duration": 0.16853925000000203,
          "durationTicks": 96,
          "midi": 76,
          "name": "E5",
          "ticks": 18816,
          "time": 33.03369299999999,
          "velocity": 0.25984251968503935
        },
        {
          "duration": 0.674157000000001,
          "durationTicks": 384,
          "midi": 60,
          "name": "C4",
          "ticks": 19008,
          "time": 33.3707715,
          "velocity": 0.25984251968503935
        },
        {
          "duration": 0.16853924999999492,
          "durationTicks": 96,
          "midi": 67,
          "name": "G4",
          "ticks": 19008,
          "time": 33.3707715,
          "velocity": 0.25984251968503935
        },
        {
          "duration": 1.348314000000002,
          "durationTicks": 768,
          "midi": 48,
          "name": "C3",
          "ticks": 19200,
          "time": 33.70784999999999,
          "velocity": 0.25984251968503935
        },
        {
          "duration": 0.16853925000000203,
          "durationTicks": 96,
          "midi": 67,
          "name": "G4",
          "ticks": 19296,
          "time": 33.876389249999995,
          "velocity": 0.25984251968503935
        },
        {
          "duration": 0.16853924999999492,
          "durationTicks": 96,
          "midi": 72,
          "name": "C5",
          "ticks": 19392,
          "time": 34.0449285,
          "velocity": 0.25984251968503935
        },
        {
          "duration": 0.33707849999999695,
          "durationTicks": 192,
          "midi": 62,
          "name": "D4",
          "ticks": 19392,
          "time": 34.0449285,
          "velocity": 0.25984251968503935
        },
        {
          "duration": 0.16853925000000203,
          "durationTicks": 96,
          "midi": 74,
          "name": "D5",
          "ticks": 19488,
          "time": 34.21346774999999,
          "velocity": 0.25984251968503935
        },
        {
          "duration": 0.16853925000000203,
          "durationTicks": 96,
          "midi": 76,
          "name": "E5",
          "ticks": 19584,
          "time": 34.382006999999994,
          "velocity": 0.25984251968503935
        },
        {
          "duration": 0.16853925000000203,
          "durationTicks": 96,
          "midi": 67,
          "name": "G4",
          "ticks": 19776,
          "time": 34.71908549999999,
          "velocity": 0.25984251968503935
        },
        {
          "duration": 0.674157000000001,
          "durationTicks": 384,
          "midi": 57,
          "name": "A3",
          "ticks": 19968,
          "time": 35.056163999999995,
          "velocity": 0.25984251968503935
        },
        {
          "duration": 0.674157000000001,
          "durationTicks": 384,
          "midi": 45,
          "name": "A2",
          "ticks": 19968,
          "time": 35.056163999999995,
          "velocity": 0.25984251968503935
        },
        {
          "duration": 0.16853924999999492,
          "durationTicks": 96,
          "midi": 67,
          "name": "G4",
          "ticks": 20064,
          "time": 35.22470325,
          "velocity": 0.25984251968503935
        },
        {
          "duration": 0.16853925000000203,
          "durationTicks": 96,
          "midi": 72,
          "name": "C5",
          "ticks": 20160,
          "time": 35.39324249999999,
          "velocity": 0.25984251968503935
        },
        {
          "duration": 0.16853925000000203,
          "durationTicks": 96,
          "midi": 74,
          "name": "D5",
          "ticks": 20256,
          "time": 35.561781749999994,
          "velocity": 0.25984251968503935
        },
        {
          "duration": 0.16853924999999492,
          "durationTicks": 96,
          "midi": 76,
          "name": "E5",
          "ticks": 20352,
          "time": 35.730320999999996,
          "velocity": 0.25984251968503935
        },
        {
          "duration": 0.674157000000001,
          "durationTicks": 384,
          "midi": 55,
          "name": "G3",
          "ticks": 20352,
          "time": 35.730320999999996,
          "velocity": 0.25984251968503935
        },
        {
          "duration": 0.16853925000000203,
          "durationTicks": 96,
          "midi": 67,
          "name": "G4",
          "ticks": 20544,
          "time": 36.06739949999999,
          "velocity": 0.25984251968503935
        },
        {
          "duration": 0.674157000000001,
          "durationTicks": 384,
          "midi": 60,
          "name": "C4",
          "ticks": 20544,
          "time": 36.06739949999999,
          "velocity": 0.25984251968503935
        },
        {
          "duration": 1.348313999999995,
          "durationTicks": 768,
          "midi": 45,
          "name": "A2",
          "ticks": 20736,
          "time": 36.404478,
          "velocity": 0.25984251968503935
        },
        {
          "duration": 0.16853925000000203,
          "durationTicks": 96,
          "midi": 67,
          "name": "G4",
          "ticks": 20832,
          "time": 36.57301724999999,
          "velocity": 0.25984251968503935
        },
        {
          "duration": 0.33707849999999695,
          "durationTicks": 192,
          "midi": 62,
          "name": "D4",
          "ticks": 20928,
          "time": 36.741556499999994,
          "velocity": 0.25984251968503935
        },
        {
          "duration": 0.16853925000000203,
          "durationTicks": 96,
          "midi": 72,
          "name": "C5",
          "ticks": 20928,
          "time": 36.741556499999994,
          "velocity": 0.25984251968503935
        },
        {
          "duration": 0.16853924999999492,
          "durationTicks": 96,
          "midi": 74,
          "name": "D5",
          "ticks": 21024,
          "time": 36.910095749999996,
          "velocity": 0.25984251968503935
        },
        {
          "duration": 0.16853925000000203,
          "durationTicks": 96,
          "midi": 76,
          "name": "E5",
          "ticks": 21120,
          "time": 37.07863499999999,
          "velocity": 0.25984251968503935
        },
        {
          "duration": 0.16853925000000203,
          "durationTicks": 96,
          "midi": 67,
          "name": "G4",
          "ticks": 21312,
          "time": 37.415713499999995,
          "velocity": 0.25984251968503935
        },
        {
          "duration": 0.674157000000001,
          "durationTicks": 384,
          "midi": 41,
          "name": "F2",
          "ticks": 21504,
          "time": 37.75279199999999,
          "velocity": 0.25984251968503935
        },
        {
          "duration": 0.674157000000001,
          "durationTicks": 384,
          "midi": 53,
          "name": "F3",
          "ticks": 21504,
          "time": 37.75279199999999,
          "velocity": 0.25984251968503935
        },
        {
          "duration": 0.16853925000000203,
          "durationTicks": 96,
          "midi": 67,
          "name": "G4",
          "ticks": 21600,
          "time": 37.921331249999994,
          "velocity": 0.25984251968503935
        },
        {
          "duration": 0.16853924999999492,
          "durationTicks": 96,
          "midi": 72,
          "name": "C5",
          "ticks": 21696,
          "time": 38.089870499999996,
          "velocity": 0.25984251968503935
        },
        {
          "duration": 0.16853925000000203,
          "durationTicks": 96,
          "midi": 74,
          "name": "D5",
          "ticks": 21792,
          "time": 38.25840974999999,
          "velocity": 0.25984251968503935
        },
        {
          "duration": 0.674157000000001,
          "durationTicks": 384,
          "midi": 55,
          "name": "G3",
          "ticks": 21888,
          "time": 38.42694899999999,
          "velocity": 0.25984251968503935
        },
        {
          "duration": 0.16853925000000203,
          "durationTicks": 96,
          "midi": 76,
          "name": "E5",
          "ticks": 21888,
          "time": 38.42694899999999,
          "velocity": 0.25984251968503935
        },
        {
          "duration": 0.6741569999999939,
          "durationTicks": 384,
          "midi": 60,
          "name": "C4",
          "ticks": 22080,
          "time": 38.7640275,
          "velocity": 0.25984251968503935
        },
        {
          "duration": 0.16853924999999492,
          "durationTicks": 96,
          "midi": 67,
          "name": "G4",
          "ticks": 22080,
          "time": 38.7640275,
          "velocity": 0.25984251968503935
        },
        {
          "duration": 1.348314000000002,
          "durationTicks": 768,
          "midi": 41,
          "name": "F2",
          "ticks": 22272,
          "time": 39.101105999999994,
          "velocity": 0.25984251968503935
        },
        {
          "duration": 0.16853924999999492,
          "durationTicks": 96,
          "midi": 67,
          "name": "G4",
          "ticks": 22368,
          "time": 39.269645249999996,
          "velocity": 0.25984251968503935
        },
        {
          "duration": 0.16853925000000203,
          "durationTicks": 96,
          "midi": 72,
          "name": "C5",
          "ticks": 22464,
          "time": 39.43818449999999,
          "velocity": 0.25984251968503935
        },
        {
          "duration": 0.33707850000000406,
          "durationTicks": 192,
          "midi": 62,
          "name": "D4",
          "ticks": 22464,
          "time": 39.43818449999999,
          "velocity": 0.25984251968503935
        },
        {
          "duration": 0.16853925000000203,
          "durationTicks": 96,
          "midi": 74,
          "name": "D5",
          "ticks": 22560,
          "time": 39.60672374999999,
          "velocity": 0.25984251968503935
        },
        {
          "duration": 0.16853924999999492,
          "durationTicks": 96,
          "midi": 76,
          "name": "E5",
          "ticks": 22656,
          "time": 39.775262999999995,
          "velocity": 0.25984251968503935
        },
        {
          "duration": 0.16853925000000203,
          "durationTicks": 96,
          "midi": 67,
          "name": "G4",
          "ticks": 22848,
          "time": 40.11234149999999,
          "velocity": 0.25984251968503935
        },
        {
          "duration": 0.6741569999999939,
          "durationTicks": 384,
          "midi": 43,
          "name": "G2",
          "ticks": 23040,
          "time": 40.449419999999996,
          "velocity": 0.25984251968503935
        },
        {
          "duration": 0.6741569999999939,
          "durationTicks": 384,
          "midi": 55,
          "name": "G3",
          "ticks": 23040,
          "time": 40.449419999999996,
          "velocity": 0.25984251968503935
        },
        {
          "duration": 0.16853925000000203,
          "durationTicks": 96,
          "midi": 67,
          "name": "G4",
          "ticks": 23136,
          "time": 40.61795924999999,
          "velocity": 0.25984251968503935
        },
        {
          "duration": 0.16853925000000203,
          "durationTicks": 96,
          "midi": 72,
          "name": "C5",
          "ticks": 23232,
          "time": 40.78649849999999,
          "velocity": 0.25984251968503935
        },
        {
          "duration": 0.16853924999999492,
          "durationTicks": 96,
          "midi": 74,
          "name": "D5",
          "ticks": 23328,
          "time": 40.955037749999995,
          "velocity": 0.25984251968503935
        },
        {
          "duration": 0.16853925000000203,
          "durationTicks": 96,
          "midi": 76,
          "name": "E5",
          "ticks": 23424,
          "time": 41.12357699999999,
          "velocity": 0.25984251968503935
        },
        {
          "duration": 0.674157000000001,
          "durationTicks": 384,
          "midi": 55,
          "name": "G3",
          "ticks": 23424,
          "time": 41.12357699999999,
          "velocity": 0.25984251968503935
        },
        {
          "duration": 0.16853925000000203,
          "durationTicks": 96,
          "midi": 67,
          "name": "G4",
          "ticks": 23616,
          "time": 41.460655499999994,
          "velocity": 0.25984251968503935
        },
        {
          "duration": 0.674157000000001,
          "durationTicks": 384,
          "midi": 60,
          "name": "C4",
          "ticks": 23616,
          "time": 41.460655499999994,
          "velocity": 0.25984251968503935
        },
        {
          "duration": 1.348314000000002,
          "durationTicks": 768,
          "midi": 43,
          "name": "G2",
          "ticks": 23808,
          "time": 41.79773399999999,
          "velocity": 0.25984251968503935
        },
        {
          "duration": 0.16853925000000203,
          "durationTicks": 96,
          "midi": 67,
          "name": "G4",
          "ticks": 23904,
          "time": 41.96627324999999,
          "velocity": 0.25984251968503935
        },
        {
          "duration": 0.16853924999999492,
          "durationTicks": 96,
          "midi": 72,
          "name": "C5",
          "ticks": 24000,
          "time": 42.134812499999995,
          "velocity": 0.25984251968503935
        },
        {
          "duration": 0.33707849999999695,
          "durationTicks": 192,
          "midi": 62,
          "name": "D4",
          "ticks": 24000,
          "time": 42.134812499999995,
          "velocity": 0.25984251968503935
        },
        {
          "duration": 0.16853925000000203,
          "durationTicks": 96,
          "midi": 74,
          "name": "D5",
          "ticks": 24096,
          "time": 42.30335174999999,
          "velocity": 0.25984251968503935
        },
        {
          "duration": 0.16853925000000203,
          "durationTicks": 96,
          "midi": 76,
          "name": "E5",
          "ticks": 24192,
          "time": 42.47189099999999,
          "velocity": 0.25984251968503935
        },
        {
          "duration": 0.16853924999999492,
          "durationTicks": 96,
          "midi": 67,
          "name": "G4",
          "ticks": 24384,
          "time": 42.808969499999996,
          "velocity": 0.25984251968503935
        },
        {
          "duration": 0.33707849999999695,
          "durationTicks": 192,
          "midi": 48,
          "name": "C3",
          "ticks": 24576,
          "time": 43.14604799999999,
          "velocity": 0.29133858267716534
        },
        {
          "duration": 0.674157000000001,
          "durationTicks": 384,
          "midi": 60,
          "name": "C4",
          "ticks": 24576,
          "time": 43.14604799999999,
          "velocity": 0.29133858267716534
        },
        {
          "duration": 0.16853924999999492,
          "durationTicks": 96,
          "midi": 67,
          "name": "G4",
          "ticks": 24672,
          "time": 43.314587249999995,
          "velocity": 0.29133858267716534
        },
        {
          "duration": 0.16853925000000203,
          "durationTicks": 96,
          "midi": 72,
          "name": "C5",
          "ticks": 24768,
          "time": 43.48312649999999,
          "velocity": 0.29133858267716534
        },
        {
          "duration": 0.16853925000000203,
          "durationTicks": 96,
          "midi": 74,
          "name": "D5",
          "ticks": 24864,
          "time": 43.65166574999999,
          "velocity": 0.29133858267716534
        },
        {
          "duration": 0.16853925000000203,
          "durationTicks": 96,
          "midi": 76,
          "name": "E5",
          "ticks": 24960,
          "time": 43.820204999999994,
          "velocity": 0.29133858267716534
        },
        {
          "duration": 0.33707849999999695,
          "durationTicks": 192,
          "midi": 55,
          "name": "G3",
          "ticks": 24960,
          "time": 43.820204999999994,
          "velocity": 0.29133858267716534
        },
        {
          "duration": 0.16853925000000203,
          "durationTicks": 96,
          "midi": 67,
          "name": "G4",
          "ticks": 25152,
          "time": 44.15728349999999,
          "velocity": 0.29133858267716534
        },
        {
          "duration": 0.33707850000000406,
          "durationTicks": 192,
          "midi": 60,
          "name": "C4",
          "ticks": 25152,
          "time": 44.15728349999999,
          "velocity": 0.29133858267716534
        },
        {
          "duration": 0.33707849999999695,
          "durationTicks": 192,
          "midi": 48,
          "name": "C3",
          "ticks": 25344,
          "time": 44.494361999999995,
          "velocity": 0.29133858267716534
        },
        {
          "duration": 0.16853925000000203,
          "durationTicks": 96,
          "midi": 67,
          "name": "G4",
          "ticks": 25440,
          "time": 44.66290124999999,
          "velocity": 0.29133858267716534
        },
        {
          "duration": 0.16853925000000203,
          "durationTicks": 96,
          "midi": 72,
          "name": "C5",
          "ticks": 25536,
          "time": 44.83144049999999,
          "velocity": 0.29133858267716534
        },
        {
          "duration": 0.33707850000000406,
          "durationTicks": 192,
          "midi": 62,
          "name": "D4",
          "ticks": 25536,
          "time": 44.83144049999999,
          "velocity": 0.29133858267716534
        },
        {
          "duration": 0.16853925000000203,
          "durationTicks": 96,
          "midi": 74,
          "name": "D5",
          "ticks": 25632,
          "time": 44.999979749999994,
          "velocity": 0.29133858267716534
        },
        {
          "duration": 0.16853924999999492,
          "durationTicks": 96,
          "midi": 76,
          "name": "E5",
          "ticks": 25728,
          "time": 45.168518999999996,
          "velocity": 0.29133858267716534
        },
        {
          "duration": 0.16853924999999492,
          "durationTicks": 96,
          "midi": 62,
          "name": "D4",
          "ticks": 25728,
          "time": 45.168518999999996,
          "velocity": 0.29133858267716534
        },
        {
          "duration": 0.16853925000000203,
          "durationTicks": 96,
          "midi": 64,
          "name": "E4",
          "ticks": 25824,
          "time": 45.33705824999999,
          "velocity": 0.29133858267716534
        },
        {
          "duration": 0.16853925000000203,
          "durationTicks": 96,
          "midi": 67,
          "name": "G4",
          "ticks": 25920,
          "time": 45.50559749999999,
          "velocity": 0.29133858267716534
        },
        {
          "duration": 0.16853925000000203,
          "durationTicks": 96,
          "midi": 64,
          "name": "E4",
          "ticks": 25920,
          "time": 45.50559749999999,
          "velocity": 0.29133858267716534
        },
        {
          "duration": 0.16853924999999492,
          "durationTicks": 96,
          "midi": 64,
          "name": "E4",
          "ticks": 26016,
          "time": 45.674136749999995,
          "velocity": 0.29133858267716534
        },
        {
          "duration": 0.33707850000000406,
          "durationTicks": 192,
          "midi": 45,
          "name": "A2",
          "ticks": 26112,
          "time": 45.84267599999999,
          "velocity": 0.29133858267716534
        },
        {
          "duration": 0.16853925000000203,
          "durationTicks": 96,
          "midi": 71,
          "name": "B4",
          "ticks": 26112,
          "time": 45.84267599999999,
          "velocity": 0.29133858267716534
        },
        {
          "duration": 0.674157000000001,
          "durationTicks": 384,
          "midi": 57,
          "name": "A3",
          "ticks": 26112,
          "time": 45.84267599999999,
          "velocity": 0.29133858267716534
        },
        {
          "duration": 0.16853925000000203,
          "durationTicks": 96,
          "midi": 67,
          "name": "G4",
          "ticks": 26208,
          "time": 46.01121524999999,
          "velocity": 0.29133858267716534
        },
        {
          "duration": 0.16853925000000203,
          "durationTicks": 96,
          "midi": 72,
          "name": "C5",
          "ticks": 26304,
          "time": 46.179754499999994,
          "velocity": 0.29133858267716534
        },
        {
          "duration": 0.16853925000000203,
          "durationTicks": 96,
          "midi": 71,
          "name": "B4",
          "ticks": 26304,
          "time": 46.179754499999994,
          "velocity": 0.29133858267716534
        },
        {
          "duration": 0.16853924999999492,
          "durationTicks": 96,
          "midi": 74,
          "name": "D5",
          "ticks": 26400,
          "time": 46.348293749999996,
          "velocity": 0.29133858267716534
        },
        {
          "duration": 0.16853925000000203,
          "durationTicks": 96,
          "midi": 76,
          "name": "E5",
          "ticks": 26496,
          "time": 46.51683299999999,
          "velocity": 0.29133858267716534
        },
        {
          "duration": 0.16853925000000203,
          "durationTicks": 96,
          "midi": 67,
          "name": "G4",
          "ticks": 26496,
          "time": 46.51683299999999,
          "velocity": 0.29133858267716534
        },
        {
          "duration": 0.33707850000000406,
          "durationTicks": 192,
          "midi": 55,
          "name": "G3",
          "ticks": 26496,
          "time": 46.51683299999999,
          "velocity": 0.29133858267716534
        },
        {
          "duration": 0.16853924999999492,
          "durationTicks": 96,
          "midi": 67,
          "name": "G4",
          "ticks": 26688,
          "time": 46.853911499999995,
          "velocity": 0.29133858267716534
        },
        {
          "duration": 0.33707849999999695,
          "durationTicks": 192,
          "midi": 60,
          "name": "C4",
          "ticks": 26688,
          "time": 46.853911499999995,
          "velocity": 0.29133858267716534
        },
        {
          "duration": 0.33707849999999695,
          "durationTicks": 192,
          "midi": 45,
          "name": "A2",
          "ticks": 26880,
          "time": 47.19098999999999,
          "velocity": 0.29133858267716534
        },
        {
          "duration": 0.16853924999999492,
          "durationTicks": 96,
          "midi": 67,
          "name": "G4",
          "ticks": 26976,
          "time": 47.359529249999994,
          "velocity": 0.29133858267716534
        },
        {
          "duration": 0.33707850000000406,
          "durationTicks": 192,
          "midi": 62,
          "name": "D4",
          "ticks": 27072,
          "time": 47.52806849999999,
          "velocity": 0.29133858267716534
        },
        {
          "duration": 0.16853925000000203,
          "durationTicks": 96,
          "midi": 72,
          "name": "C5",
          "ticks": 27072,
          "time": 47.52806849999999,
          "velocity": 0.29133858267716534
        },
        {
          "duration": 0.16853925000000203,
          "durationTicks": 96,
          "midi": 74,
          "name": "D5",
          "ticks": 27168,
          "time": 47.69660774999999,
          "velocity": 0.29133858267716534
        },
        {
          "duration": 0.16853925000000203,
          "durationTicks": 96,
          "midi": 76,
          "name": "E5",
          "ticks": 27264,
          "time": 47.86514699999999,
          "velocity": 0.29133858267716534
        },
        {
          "duration": 0.33707849999999695,
          "durationTicks": 192,
          "midi": 64,
          "name": "E4",
          "ticks": 27264,
          "time": 47.86514699999999,
          "velocity": 0.29133858267716534
        },
        {
          "duration": 0.33707850000000406,
          "durationTicks": 192,
          "midi": 62,
          "name": "D4",
          "ticks": 27456,
          "time": 48.20222549999999,
          "velocity": 0.29133858267716534
        },
        {
          "duration": 0.16853925000000203,
          "durationTicks": 96,
          "midi": 67,
          "name": "G4",
          "ticks": 27456,
          "time": 48.20222549999999,
          "velocity": 0.29133858267716534
        },
        {
          "duration": 0.33707849999999695,
          "durationTicks": 192,
          "midi": 41,
          "name": "F2",
          "ticks": 27648,
          "time": 48.539303999999994,
          "velocity": 0.29133858267716534
        },
        {
          "duration": 0.16853925000000203,
          "durationTicks": 96,
          "midi": 67,
          "name": "G4",
          "ticks": 27744,
          "time": 48.70784324999999,
          "velocity": 0.29133858267716534
        },
        {
          "duration": 0.33707850000000406,
          "durationTicks": 192,
          "midi": 60,
          "name": "C4",
          "ticks": 27840,
          "time": 48.87638249999999,
          "velocity": 0.29133858267716534
        },
        {
          "duration": 0.16853925000000203,
          "durationTicks": 96,
          "midi": 72,
          "name": "C5",
          "ticks": 27840,
          "time": 48.87638249999999,
          "velocity": 0.29133858267716534
        },
        {
          "duration": 0.16853925000000203,
          "durationTicks": 96,
          "midi": 74,
          "name": "D5",
          "ticks": 27936,
          "time": 49.04492174999999,
          "velocity": 0.29133858267716534
        },
        {
          "duration": 0.33707849999999695,
          "durationTicks": 192,
          "midi": 55,
          "name": "G3",
          "ticks": 28032,
          "time": 49.213460999999995,
          "velocity": 0.29133858267716534
        },
        {
          "duration": 0.16853924999999492,
          "durationTicks": 96,
          "midi": 76,
          "name": "E5",
          "ticks": 28032,
          "time": 49.213460999999995,
          "velocity": 0.29133858267716534
        },
        {
          "duration": 0.33707849999999695,
          "durationTicks": 192,
          "midi": 60,
          "name": "C4",
          "ticks": 28224,
          "time": 49.55053949999999,
          "velocity": 0.29133858267716534
        },
        {
          "duration": 0.16853925000000203,
          "durationTicks": 96,
          "midi": 67,
          "name": "G4",
          "ticks": 28224,
          "time": 49.55053949999999,
          "velocity": 0.29133858267716534
        },
        {
          "duration": 0.33707850000000406,
          "durationTicks": 192,
          "midi": 41,
          "name": "F2",
          "ticks": 28416,
          "time": 49.88761799999999,
          "velocity": 0.29133858267716534
        },
        {
          "duration": 0.16853925000000203,
          "durationTicks": 96,
          "midi": 67,
          "name": "G4",
          "ticks": 28512,
          "time": 50.05615724999999,
          "velocity": 0.29133858267716534
        },
        {
          "duration": 0.16853925000000203,
          "durationTicks": 96,
          "midi": 72,
          "name": "C5",
          "ticks": 28608,
          "time": 50.22469649999999,
          "velocity": 0.29133858267716534
        },
        {
          "duration": 0.674157000000001,
          "durationTicks": 384,
          "midi": 62,
          "name": "D4",
          "ticks": 28608,
          "time": 50.22469649999999,
          "velocity": 0.29133858267716534
        },
        {
          "duration": 0.16853924999999492,
          "durationTicks": 96,
          "midi": 74,
          "name": "D5",
          "ticks": 28704,
          "time": 50.393235749999995,
          "velocity": 0.29133858267716534
        },
        {
          "duration": 0.16853925000000203,
          "durationTicks": 96,
          "midi": 76,
          "name": "E5",
          "ticks": 28800,
          "time": 50.56177499999999,
          "velocity": 0.29133858267716534
        },
        {
          "duration": 0.16853924999999492,
          "durationTicks": 96,
          "midi": 67,
          "name": "G4",
          "ticks": 28992,
          "time": 50.898853499999994,
          "velocity": 0.29133858267716534
        },
        {
          "duration": 0.33707849999999695,
          "durationTicks": 192,
          "midi": 60,
          "name": "C4",
          "ticks": 28992,
          "time": 50.898853499999994,
          "velocity": 0.29133858267716534
        },
        {
          "duration": 0.33707850000000406,
          "durationTicks": 192,
          "midi": 43,
          "name": "G2",
          "ticks": 29184,
          "time": 51.23593199999999,
          "velocity": 0.29133858267716534
        },
        {
          "duration": 0.16853925000000203,
          "durationTicks": 96,
          "midi": 67,
          "name": "G4",
          "ticks": 29280,
          "time": 51.40447124999999,
          "velocity": 0.29133858267716534
        },
        {
          "duration": 0.16853924999999492,
          "durationTicks": 96,
          "midi": 72,
          "name": "C5",
          "ticks": 29376,
          "time": 51.573010499999995,
          "velocity": 0.29133858267716534
        },
        {
          "duration": 0.16853925000000203,
          "durationTicks": 96,
          "midi": 74,
          "name": "D5",
          "ticks": 29472,
          "time": 51.74154974999999,
          "velocity": 0.29133858267716534
        },
        {
          "duration": 0.16853925000000203,
          "durationTicks": 96,
          "midi": 76,
          "name": "E5",
          "ticks": 29568,
          "time": 51.91008899999999,
          "velocity": 0.29133858267716534
        },
        {
          "duration": 0.33707849999999695,
          "durationTicks": 192,
          "midi": 55,
          "name": "G3",
          "ticks": 29568,
          "time": 51.91008899999999,
          "velocity": 0.29133858267716534
        },
        {
          "duration": 0.16853925000000203,
          "durationTicks": 96,
          "midi": 67,
          "name": "G4",
          "ticks": 29760,
          "time": 52.24716749999999,
          "velocity": 0.29133858267716534
        },
        {
          "duration": 0.33707850000000406,
          "durationTicks": 192,
          "midi": 60,
          "name": "C4",
          "ticks": 29760,
          "time": 52.24716749999999,
          "velocity": 0.29133858267716534
        },
        {
          "duration": 0.33707849999999695,
          "durationTicks": 192,
          "midi": 43,
          "name": "G2",
          "ticks": 29952,
          "time": 52.58424599999999,
          "velocity": 0.29133858267716534
        },
        {
          "duration": 0.16853924999999492,
          "durationTicks": 96,
          "midi": 67,
          "name": "G4",
          "ticks": 30048,
          "time": 52.752785249999995,
          "velocity": 0.29133858267716534
        },
        {
          "duration": 0.16853925000000203,
          "durationTicks": 96,
          "midi": 72,
          "name": "C5",
          "ticks": 30144,
          "time": 52.92132449999999,
          "velocity": 0.29133858267716534
        },
        {
          "duration": 0.674157000000001,
          "durationTicks": 384,
          "midi": 62,
          "name": "D4",
          "ticks": 30144,
          "time": 52.92132449999999,
          "velocity": 0.29133858267716534
        },
        {
          "duration": 0.16853925000000203,
          "durationTicks": 96,
          "midi": 74,
          "name": "D5",
          "ticks": 30240,
          "time": 53.08986374999999,
          "velocity": 0.29133858267716534
        },
        {
          "duration": 0.16853924999999492,
          "durationTicks": 96,
          "midi": 76,
          "name": "E5",
          "ticks": 30336,
          "time": 53.258402999999994,
          "velocity": 0.29133858267716534
        },
        {
          "duration": 0.16853925000000203,
          "durationTicks": 96,
          "midi": 67,
          "name": "G4",
          "ticks": 30528,
          "time": 53.59548149999999,
          "velocity": 0.29133858267716534
        },
        {
          "duration": 0.33707850000000406,
          "durationTicks": 192,
          "midi": 60,
          "name": "C4",
          "ticks": 30528,
          "time": 53.59548149999999,
          "velocity": 0.29133858267716534
        },
        {
          "duration": 0.33707849999999695,
          "durationTicks": 192,
          "midi": 48,
          "name": "C3",
          "ticks": 30720,
          "time": 53.932559999999995,
          "velocity": 0.29133858267716534
        },
        {
          "duration": 0.6741569999999939,
          "durationTicks": 384,
          "midi": 60,
          "name": "C4",
          "ticks": 30720,
          "time": 53.932559999999995,
          "velocity": 0.29133858267716534
        },
        {
          "duration": 0.16853925000000203,
          "durationTicks": 96,
          "midi": 67,
          "name": "G4",
          "ticks": 30816,
          "time": 54.10109924999999,
          "velocity": 0.29133858267716534
        },
        {
          "duration": 0.16853925000000203,
          "durationTicks": 96,
          "midi": 72,
          "name": "C5",
          "ticks": 30912,
          "time": 54.26963849999999,
          "velocity": 0.29133858267716534
        },
        {
          "duration": 0.16853924999999492,
          "durationTicks": 96,
          "midi": 74,
          "name": "D5",
          "ticks": 31008,
          "time": 54.438177749999994,
          "velocity": 0.29133858267716534
        },
        {
          "duration": 0.33707850000000406,
          "durationTicks": 192,
          "midi": 55,
          "name": "G3",
          "ticks": 31104,
          "time": 54.60671699999999,
          "velocity": 0.29133858267716534
        },
        {
          "duration": 0.16853925000000203,
          "durationTicks": 96,
          "midi": 76,
          "name": "E5",
          "ticks": 31104,
          "time": 54.60671699999999,
          "velocity": 0.29133858267716534
        },
        {
          "duration": 0.16853924999999492,
          "durationTicks": 96,
          "midi": 67,
          "name": "G4",
          "ticks": 31296,
          "time": 54.94379549999999,
          "velocity": 0.29133858267716534
        },
        {
          "duration": 0.33707849999999695,
          "durationTicks": 192,
          "midi": 60,
          "name": "C4",
          "ticks": 31296,
          "time": 54.94379549999999,
          "velocity": 0.29133858267716534
        },
        {
          "duration": 0.33707850000000406,
          "durationTicks": 192,
          "midi": 48,
          "name": "C3",
          "ticks": 31488,
          "time": 55.28087399999999,
          "velocity": 0.29133858267716534
        },
        {
          "duration": 0.16853925000000203,
          "durationTicks": 96,
          "midi": 67,
          "name": "G4",
          "ticks": 31584,
          "time": 55.44941324999999,
          "velocity": 0.29133858267716534
        },
        {
          "duration": 0.33707849999999695,
          "durationTicks": 192,
          "midi": 62,
          "name": "D4",
          "ticks": 31680,
          "time": 55.617952499999994,
          "velocity": 0.29133858267716534
        },
        {
          "duration": 0.16853924999999492,
          "durationTicks": 96,
          "midi": 72,
          "name": "C5",
          "ticks": 31680,
          "time": 55.617952499999994,
          "velocity": 0.29133858267716534
        },
        {
          "duration": 0.16853925000000203,
          "durationTicks": 96,
          "midi": 74,
          "name": "D5",
          "ticks": 31776,
          "time": 55.78649174999999,
          "velocity": 0.29133858267716534
        },
        {
          "duration": 0.16853925000000203,
          "durationTicks": 96,
          "midi": 76,
          "name": "E5",
          "ticks": 31872,
          "time": 55.95503099999999,
          "velocity": 0.29133858267716534
        },
        {
          "duration": 0.16853925000000203,
          "durationTicks": 96,
          "midi": 62,
          "name": "D4",
          "ticks": 31872,
          "time": 55.95503099999999,
          "velocity": 0.29133858267716534
        },
        {
          "duration": 0.16853924999999492,
          "durationTicks": 96,
          "midi": 64,
          "name": "E4",
          "ticks": 31968,
          "time": 56.12357024999999,
          "velocity": 0.29133858267716534
        },
        {
          "duration": 0.16853925000000203,
          "durationTicks": 96,
          "midi": 67,
          "name": "G4",
          "ticks": 32064,
          "time": 56.29210949999999,
          "velocity": 0.29133858267716534
        },
        {
          "duration": 0.16853925000000203,
          "durationTicks": 96,
          "midi": 64,
          "name": "E4",
          "ticks": 32064,
          "time": 56.29210949999999,
          "velocity": 0.29133858267716534
        },
        {
          "duration": 0.16853925000000203,
          "durationTicks": 96,
          "midi": 64,
          "name": "E4",
          "ticks": 32160,
          "time": 56.46064874999999,
          "velocity": 0.29133858267716534
        },
        {
          "duration": 0.16853925000000203,
          "durationTicks": 96,
          "midi": 71,
          "name": "B4",
          "ticks": 32256,
          "time": 56.62918799999999,
          "velocity": 0.29133858267716534
        },
        {
          "duration": 0.33707849999999695,
          "durationTicks": 192,
          "midi": 45,
          "name": "A2",
          "ticks": 32256,
          "time": 56.62918799999999,
          "velocity": 0.29133858267716534
        },
        {
          "duration": 0.674157000000001,
          "durationTicks": 384,
          "midi": 57,
          "name": "A3",
          "ticks": 32256,
          "time": 56.62918799999999,
          "velocity": 0.29133858267716534
        },
        {
          "duration": 0.16853924999999492,
          "durationTicks": 96,
          "midi": 67,
          "name": "G4",
          "ticks": 32352,
          "time": 56.797727249999994,
          "velocity": 0.29133858267716534
        },
        {
          "duration": 0.16853925000000203,
          "durationTicks": 96,
          "midi": 71,
          "name": "B4",
          "ticks": 32448,
          "time": 56.96626649999999,
          "velocity": 0.29133858267716534
        },
        {
          "duration": 0.16853925000000203,
          "durationTicks": 96,
          "midi": 72,
          "name": "C5",
          "ticks": 32448,
          "time": 56.96626649999999,
          "velocity": 0.29133858267716534
        },
        {
          "duration": 0.16853925000000203,
          "durationTicks": 96,
          "midi": 74,
          "name": "D5",
          "ticks": 32544,
          "time": 57.13480574999999,
          "velocity": 0.29133858267716534
        },
        {
          "duration": 0.16853924999999492,
          "durationTicks": 96,
          "midi": 67,
          "name": "G4",
          "ticks": 32640,
          "time": 57.30334499999999,
          "velocity": 0.29133858267716534
        },
        {
          "duration": 0.33707849999999695,
          "durationTicks": 192,
          "midi": 55,
          "name": "G3",
          "ticks": 32640,
          "time": 57.30334499999999,
          "velocity": 0.29133858267716534
        },
        {
          "duration": 0.16853924999999492,
          "durationTicks": 96,
          "midi": 76,
          "name": "E5",
          "ticks": 32640,
          "time": 57.30334499999999,
          "velocity": 0.29133858267716534
        },
        {
          "duration": 0.16853925000000203,
          "durationTicks": 96,
          "midi": 67,
          "name": "G4",
          "ticks": 32832,
          "time": 57.64042349999999,
          "velocity": 0.29133858267716534
        },
        {
          "duration": 0.33707850000000406,
          "durationTicks": 192,
          "midi": 60,
          "name": "C4",
          "ticks": 32832,
          "time": 57.64042349999999,
          "velocity": 0.29133858267716534
        },
        {
          "duration": 0.33707849999999695,
          "durationTicks": 192,
          "midi": 45,
          "name": "A2",
          "ticks": 33024,
          "time": 57.977501999999994,
          "velocity": 0.29133858267716534
        },
        {
          "duration": 0.16853924999999492,
          "durationTicks": 96,
          "midi": 62,
          "name": "D4",
          "ticks": 33024,
          "time": 57.977501999999994,
          "velocity": 0.29133858267716534
        },
        {
          "duration": 0.16853925000000203,
          "durationTicks": 96,
          "midi": 67,
          "name": "G4",
          "ticks": 33120,
          "time": 58.14604124999999,
          "velocity": 0.29133858267716534
        },
        {
          "duration": 0.16853925000000203,
          "durationTicks": 96,
          "midi": 64,
          "name": "E4",
          "ticks": 33120,
          "time": 58.14604124999999,
          "velocity": 0.29133858267716534
        },
        {
          "duration": 0.16853925000000203,
          "durationTicks": 96,
          "midi": 67,
          "name": "G4",
          "ticks": 33216,
          "time": 58.31458049999999,
          "velocity": 0.29133858267716534
        },
        {
          "duration": 0.16853925000000203,
          "durationTicks": 96,
          "midi": 72,
          "name": "C5",
          "ticks": 33216,
          "time": 58.31458049999999,
          "velocity": 0.29133858267716534
        },
        {
          "duration": 0.33707849999999695,
          "durationTicks": 192,
          "midi": 62,
          "name": "D4",
          "ticks": 33216,
          "time": 58.31458049999999,
          "velocity": 0.29133858267716534
        },
        {
          "duration": 0.16853924999999492,
          "durationTicks": 96,
          "midi": 74,
          "name": "D5",
          "ticks": 33312,
          "time": 58.48311974999999,
          "velocity": 0.29133858267716534
        },
        {
          "duration": 0.16853924999999492,
          "durationTicks": 96,
          "midi": 64,
          "name": "E4",
          "ticks": 33312,
          "time": 58.48311974999999,
          "velocity": 0.29133858267716534
        },
        {
          "duration": 0.16853925000000203,
          "durationTicks": 96,
          "midi": 76,
          "name": "E5",
          "ticks": 33408,
          "time": 58.65165899999999,
          "velocity": 0.29133858267716534
        },
        {
          "duration": 0.16853925000000203,
          "durationTicks": 96,
          "midi": 71,
          "name": "B4",
          "ticks": 33408,
          "time": 58.65165899999999,
          "velocity": 0.29133858267716534
        },
        {
          "duration": 0.33707850000000406,
          "durationTicks": 192,
          "midi": 64,
          "name": "E4",
          "ticks": 33408,
          "time": 58.65165899999999,
          "velocity": 0.29133858267716534
        },
        {
          "duration": 0.16853925000000203,
          "durationTicks": 96,
          "midi": 71,
          "name": "B4",
          "ticks": 33600,
          "time": 58.98873749999999,
          "velocity": 0.29133858267716534
        },
        {
          "duration": 0.33707849999999695,
          "durationTicks": 192,
          "midi": 62,
          "name": "D4",
          "ticks": 33600,
          "time": 58.98873749999999,
          "velocity": 0.29133858267716534
        },
        {
          "duration": 0.16853925000000203,
          "durationTicks": 96,
          "midi": 67,
          "name": "G4",
          "ticks": 33600,
          "time": 58.98873749999999,
          "velocity": 0.29133858267716534
        },
        {
          "duration": 0.33707850000000406,
          "durationTicks": 192,
          "midi": 41,
          "name": "F2",
          "ticks": 33792,
          "time": 59.32581599999999,
          "velocity": 0.29133858267716534
        },
        {
          "duration": 0.16853925000000203,
          "durationTicks": 96,
          "midi": 67,
          "name": "G4",
          "ticks": 33792,
          "time": 59.32581599999999,
          "velocity": 0.29133858267716534
        },
        {
          "duration": 0.16853925000000203,
          "durationTicks": 96,
          "midi": 67,
          "name": "G4",
          "ticks": 33888,
          "time": 59.49435524999999,
          "velocity": 0.29133858267716534
        },
        {
          "duration": 0.16853924999999492,
          "durationTicks": 96,
          "midi": 72,
          "name": "C5",
          "ticks": 33984,
          "time": 59.66289449999999,
          "velocity": 0.29133858267716534
        },
        {
          "duration": 0.33707849999999695,
          "durationTicks": 192,
          "midi": 60,
          "name": "C4",
          "ticks": 33984,
          "time": 59.66289449999999,
          "velocity": 0.29133858267716534
        },
        {
          "duration": 0.16853925000000203,
          "durationTicks": 96,
          "midi": 74,
          "name": "D5",
          "ticks": 34080,
          "time": 59.83143374999999,
          "velocity": 0.29133858267716534
        },
        {
          "duration": 0.33707850000000406,
          "durationTicks": 192,
          "midi": 55,
          "name": "G3",
          "ticks": 34176,
          "time": 59.99997299999999,
          "velocity": 0.29133858267716534
        },
        {
          "duration": 0.16853925000000203,
          "durationTicks": 96,
          "midi": 76,
          "name": "E5",
          "ticks": 34176,
          "time": 59.99997299999999,
          "velocity": 0.29133858267716534
        },
        {
          "duration": 0.16853924999999492,
          "durationTicks": 96,
          "midi": 67,
          "name": "G4",
          "ticks": 34368,
          "time": 60.337051499999994,
          "velocity": 0.29133858267716534
        },
        {
          "duration": 0.33707849999999695,
          "durationTicks": 192,
          "midi": 60,
          "name": "C4",
          "ticks": 34368,
          "time": 60.337051499999994,
          "velocity": 0.29133858267716534
        },
        {
          "duration": 0.33707849999999695,
          "durationTicks": 192,
          "midi": 41,
          "name": "F2",
          "ticks": 34560,
          "time": 60.67412999999999,
          "velocity": 0.29133858267716534
        },
        {
          "duration": 0.16853924999999492,
          "durationTicks": 96,
          "midi": 67,
          "name": "G4",
          "ticks": 34656,
          "time": 60.84266924999999,
          "velocity": 0.29133858267716534
        },
        {
          "duration": 0.16853925000000203,
          "durationTicks": 96,
          "midi": 72,
          "name": "C5",
          "ticks": 34752,
          "time": 61.01120849999999,
          "velocity": 0.29133858267716534
        },
        {
          "duration": 0.33707850000000406,
          "durationTicks": 192,
          "midi": 62,
          "name": "D4",
          "ticks": 34752,
          "time": 61.01120849999999,
          "velocity": 0.29133858267716534
        },
        {
          "duration": 0.16853925000000203,
          "durationTicks": 96,
          "midi": 74,
          "name": "D5",
          "ticks": 34848,
          "time": 61.17974774999999,
          "velocity": 0.29133858267716534
        },
        {
          "duration": 0.16853924999999492,
          "durationTicks": 96,
          "midi": 76,
          "name": "E5",
          "ticks": 34944,
          "time": 61.34828699999999,
          "velocity": 0.29133858267716534
        },
        {
          "duration": 0.33707849999999695,
          "durationTicks": 192,
          "midi": 55,
          "name": "G3",
          "ticks": 34944,
          "time": 61.34828699999999,
          "velocity": 0.29133858267716534
        },
        {
          "duration": 0.16853925000000203,
          "durationTicks": 96,
          "midi": 67,
          "name": "G4",
          "ticks": 35136,
          "time": 61.68536549999999,
          "velocity": 0.29133858267716534
        },
        {
          "duration": 0.33707850000000406,
          "durationTicks": 192,
          "midi": 60,
          "name": "C4",
          "ticks": 35136,
          "time": 61.68536549999999,
          "velocity": 0.29133858267716534
        },
        {
          "duration": 0.33707849999999695,
          "durationTicks": 192,
          "midi": 43,
          "name": "G2",
          "ticks": 35328,
          "time": 62.02244399999999,
          "velocity": 0.29133858267716534
        },
        {
          "duration": 0.16853925000000203,
          "durationTicks": 96,
          "midi": 67,
          "name": "G4",
          "ticks": 35424,
          "time": 62.19098324999999,
          "velocity": 0.29133858267716534
        },
        {
          "duration": 0.33707849999999695,
          "durationTicks": 192,
          "midi": 62,
          "name": "D4",
          "ticks": 35520,
          "time": 62.35952249999999,
          "velocity": 0.29133858267716534
        },
        {
          "duration": 0.16853925000000203,
          "durationTicks": 96,
          "midi": 72,
          "name": "C5",
          "ticks": 35520,
          "time": 62.35952249999999,
          "velocity": 0.29133858267716534
        },
        {
          "duration": 0.16853924999999492,
          "durationTicks": 96,
          "midi": 74,
          "name": "D5",
          "ticks": 35616,
          "time": 62.52806174999999,
          "velocity": 0.29133858267716534
        },
        {
          "duration": 0.33707850000000406,
          "durationTicks": 192,
          "midi": 55,
          "name": "G3",
          "ticks": 35712,
          "time": 62.69660099999999,
          "velocity": 0.29133858267716534
        },
        {
          "duration": 0.16853925000000203,
          "durationTicks": 96,
          "midi": 76,
          "name": "E5",
          "ticks": 35712,
          "time": 62.69660099999999,
          "velocity": 0.29133858267716534
        },
        {
          "duration": 0.16853925000000203,
          "durationTicks": 96,
          "midi": 67,
          "name": "G4",
          "ticks": 35904,
          "time": 63.03367949999999,
          "velocity": 0.29133858267716534
        },
        {
          "duration": 0.33707849999999695,
          "durationTicks": 192,
          "midi": 60,
          "name": "C4",
          "ticks": 35904,
          "time": 63.03367949999999,
          "velocity": 0.29133858267716534
        },
        {
          "duration": 0.33707850000000406,
          "durationTicks": 192,
          "midi": 43,
          "name": "G2",
          "ticks": 36096,
          "time": 63.37075799999999,
          "velocity": 0.29133858267716534
        },
        {
          "duration": 0.16853925000000203,
          "durationTicks": 96,
          "midi": 67,
          "name": "G4",
          "ticks": 36192,
          "time": 63.53929724999999,
          "velocity": 0.29133858267716534
        },
        {
          "duration": 0.33707849999999695,
          "durationTicks": 192,
          "midi": 62,
          "name": "D4",
          "ticks": 36288,
          "time": 63.70783649999999,
          "velocity": 0.29133858267716534
        },
        {
          "duration": 0.16853924999999492,
          "durationTicks": 96,
          "midi": 72,
          "name": "C5",
          "ticks": 36288,
          "time": 63.70783649999999,
          "velocity": 0.29133858267716534
        },
        {
          "duration": 0.16853925000000203,
          "durationTicks": 96,
          "midi": 74,
          "name": "D5",
          "ticks": 36384,
          "time": 63.87637574999999,
          "velocity": 0.29133858267716534
        },
        {
          "duration": 0.16853924999999492,
          "durationTicks": 96,
          "midi": 62,
          "name": "D4",
          "ticks": 36480,
          "time": 64.04491499999999,
          "velocity": 0.29133858267716534
        },
        {
          "duration": 0.16853925000000913,
          "durationTicks": 96,
          "midi": 64,
          "name": "E4",
          "ticks": 36576,
          "time": 64.21345424999998,
          "velocity": 0.28346456692913385
        },
        {
          "duration": 0.16853924999999492,
          "durationTicks": 96,
          "midi": 67,
          "name": "G4",
          "ticks": 36672,
          "time": 64.3819935,
          "velocity": 0.2755905511811024
        },
        {
          "duration": 0.16853924999999492,
          "durationTicks": 96,
          "midi": 64,
          "name": "E4",
          "ticks": 36768,
          "time": 64.55053274999999,
          "velocity": 0.2677165354330709
        },
        {
          "duration": 0.16853925000000913,
          "durationTicks": 96,
          "midi": 48,
          "name": "C3",
          "ticks": 36864,
          "time": 64.71907199999998,
          "velocity": 0.25984251968503935
        },
        {
          "duration": 1.5168532500000111,
          "durationTicks": 864,
          "midi": 72,
          "name": "C5",
          "ticks": 36864,
          "time": 64.71907199999998,
          "velocity": 0.25984251968503935
        },
        {
          "duration": 0.16853924999999492,
          "durationTicks": 96,
          "midi": 55,
          "name": "G3",
          "ticks": 36960,
          "time": 64.88761124999999,
          "velocity": 0.25984251968503935
        },
        {
          "duration": 0.16853925000000913,
          "durationTicks": 96,
          "midi": 60,
          "name": "C4",
          "ticks": 37056,
          "time": 65.05615049999999,
          "velocity": 0.25984251968503935
        },
        {
          "duration": 0.16853924999999492,
          "durationTicks": 96,
          "midi": 62,
          "name": "D4",
          "ticks": 37152,
          "time": 65.22468975,
          "velocity": 0.25984251968503935
        },
        {
          "duration": 0.16853924999999492,
          "durationTicks": 96,
          "midi": 64,
          "name": "E4",
          "ticks": 37248,
          "time": 65.39322899999999,
          "velocity": 0.25984251968503935
        },
        {
          "duration": 0.33707850000000406,
          "durationTicks": 192,
          "midi": 55,
          "name": "G3",
          "ticks": 37248,
          "time": 65.39322899999999,
          "velocity": 0.25984251968503935
        },
        {
          "duration": 0.16853924999999492,
          "durationTicks": 96,
          "midi": 55,
          "name": "G3",
          "ticks": 37440,
          "time": 65.7303075,
          "velocity": 0.25984251968503935
        },
        {
          "duration": 0.33707849999998984,
          "durationTicks": 192,
          "midi": 60,
          "name": "C4",
          "ticks": 37440,
          "time": 65.7303075,
          "velocity": 0.25984251968503935
        },
        {
          "duration": 0.16853925000000913,
          "durationTicks": 96,
          "midi": 48,
          "name": "C3",
          "ticks": 37632,
          "time": 66.06738599999998,
          "velocity": 0.25984251968503935
        },
        {
          "duration": 0.16853924999999492,
          "durationTicks": 96,
          "midi": 55,
          "name": "G3",
          "ticks": 37728,
          "time": 66.23592525,
          "velocity": 0.25984251968503935
        },
        {
          "duration": 0.33707850000000406,
          "durationTicks": 192,
          "midi": 67,
          "name": "G4",
          "ticks": 37824,
          "time": 66.40446449999999,
          "velocity": 0.25984251968503935
        },
        {
          "duration": 0.16853924999999492,
          "durationTicks": 96,
          "midi": 60,
          "name": "C4",
          "ticks": 37824,
          "time": 66.40446449999999,
          "velocity": 0.25984251968503935
        },
        {
          "duration": 0.16853924999999492,
          "durationTicks": 96,
          "midi": 62,
          "name": "D4",
          "ticks": 37824,
          "time": 66.40446449999999,
          "velocity": 0.25984251968503935
        },
        {
          "duration": 0.16853925000000913,
          "durationTicks": 96,
          "midi": 62,
          "name": "D4",
          "ticks": 37920,
          "time": 66.57300374999998,
          "velocity": 0.25984251968503935
        },
        {
          "duration": 0.33707849999998984,
          "durationTicks": 192,
          "midi": 76,
          "name": "E5",
          "ticks": 38016,
          "time": 66.741543,
          "velocity": 0.25984251968503935
        },
        {
          "duration": 0.16853924999999492,
          "durationTicks": 96,
          "midi": 64,
          "name": "E4",
          "ticks": 38016,
          "time": 66.741543,
          "velocity": 0.25984251968503935
        },
        {
          "duration": 1.0112355000000122,
          "durationTicks": 576,
          "midi": 77,
          "name": "F5",
          "ticks": 38208,
          "time": 67.07862149999998,
          "velocity": 0.25984251968503935
        },
        {
          "duration": 0.16853925000000913,
          "durationTicks": 96,
          "midi": 55,
          "name": "G3",
          "ticks": 38208,
          "time": 67.07862149999998,
          "velocity": 0.25984251968503935
        },
        {
          "duration": 0.16853925000000913,
          "durationTicks": 96,
          "midi": 45,
          "name": "A2",
          "ticks": 38400,
          "time": 67.41569999999999,
          "velocity": 0.25984251968503935
        },
        {
          "duration": 0.16853924999999492,
          "durationTicks": 96,
          "midi": 55,
          "name": "G3",
          "ticks": 38496,
          "time": 67.58423925,
          "velocity": 0.25984251968503935
        },
        {
          "duration": 0.16853924999999492,
          "durationTicks": 96,
          "midi": 60,
          "name": "C4",
          "ticks": 38592,
          "time": 67.75277849999999,
          "velocity": 0.25984251968503935
        },
        {
          "duration": 0.16853925000000913,
          "durationTicks": 96,
          "midi": 62,
          "name": "D4",
          "ticks": 38688,
          "time": 67.92131774999999,
          "velocity": 0.25984251968503935
        },
        {
          "duration": 0.16853924999999492,
          "durationTicks": 96,
          "midi": 64,
          "name": "E4",
          "ticks": 38784,
          "time": 68.089857,
          "velocity": 0.25984251968503935
        },
        {
          "duration": 0.33707849999998984,
          "durationTicks": 192,
          "midi": 76,
          "name": "E5",
          "ticks": 38784,
          "time": 68.089857,
          "velocity": 0.25984251968503935
        },
        {
          "duration": 0.33707849999998984,
          "durationTicks": 192,
          "midi": 55,
          "name": "G3",
          "ticks": 38784,
          "time": 68.089857,
          "velocity": 0.25984251968503935
        },
        {
          "duration": 0.33707850000000406,
          "durationTicks": 192,
          "midi": 60,
          "name": "C4",
          "ticks": 38976,
          "time": 68.42693549999998,
          "velocity": 0.25984251968503935
        },
        {
          "duration": 0.16853925000000913,
          "durationTicks": 96,
          "midi": 55,
          "name": "G3",
          "ticks": 38976,
          "time": 68.42693549999998,
          "velocity": 0.25984251968503935
        },
        {
          "duration": 1.011235499999998,
          "durationTicks": 576,
          "midi": 74,
          "name": "D5",
          "ticks": 38976,
          "time": 68.42693549999998,
          "velocity": 0.25984251968503935
        },
        {
          "duration": 0.16853924999999492,
          "durationTicks": 96,
          "midi": 45,
          "name": "A2",
          "ticks": 39168,
          "time": 68.76401399999999,
          "velocity": 0.25984251968503935
        },
        {
          "duration": 0.16853925000000913,
          "durationTicks": 96,
          "midi": 55,
          "name": "G3",
          "ticks": 39264,
          "time": 68.93255324999998,
          "velocity": 0.25984251968503935
        },
        {
          "duration": 0.16853924999999492,
          "durationTicks": 96,
          "midi": 60,
          "name": "C4",
          "ticks": 39360,
          "time": 69.1010925,
          "velocity": 0.25984251968503935
        },
        {
          "duration": 0.16853924999999492,
          "durationTicks": 96,
          "midi": 62,
          "name": "D4",
          "ticks": 39360,
          "time": 69.1010925,
          "velocity": 0.25984251968503935
        },
        {
          "duration": 0.16853924999999492,
          "durationTicks": 96,
          "midi": 62,
          "name": "D4",
          "ticks": 39456,
          "time": 69.26963174999999,
          "velocity": 0.25984251968503935
        },
        {
          "duration": 0.16853925000000913,
          "durationTicks": 96,
          "midi": 64,
          "name": "E4",
          "ticks": 39552,
          "time": 69.43817099999998,
          "velocity": 0.25984251968503935
        },
        {
          "duration": 0.6741570000000081,
          "durationTicks": 384,
          "midi": 72,
          "name": "C5",
          "ticks": 39552,
          "time": 69.43817099999998,
          "velocity": 0.25984251968503935
        },
        {
          "duration": 0.16853925000000913,
          "durationTicks": 96,
          "midi": 55,
          "name": "G3",
          "ticks": 39744,
          "time": 69.77524949999999,
          "velocity": 0.25984251968503935
        },
        {
          "duration": 1.516853249999997,
          "durationTicks": 864,
          "midi": 71,
          "name": "B4",
          "ticks": 39936,
          "time": 70.11232799999999,
          "velocity": 0.25984251968503935
        },
        {
          "duration": 0.16853924999999492,
          "durationTicks": 96,
          "midi": 41,
          "name": "F2",
          "ticks": 39936,
          "time": 70.11232799999999,
          "velocity": 0.25984251968503935
        },
        {
          "duration": 0.16853925000000913,
          "durationTicks": 96,
          "midi": 55,
          "name": "G3",
          "ticks": 40032,
          "time": 70.28086724999999,
          "velocity": 0.25984251968503935
        },
        {
          "duration": 0.16853924999999492,
          "durationTicks": 96,
          "midi": 60,
          "name": "C4",
          "ticks": 40128,
          "time": 70.4494065,
          "velocity": 0.25984251968503935
        },
        {
          "duration": 0.16853924999999492,
          "durationTicks": 96,
          "midi": 62,
          "name": "D4",
          "ticks": 40224,
          "time": 70.61794574999999,
          "velocity": 0.25984251968503935
        },
        {
          "duration": 0.33707850000000406,
          "durationTicks": 192,
          "midi": 55,
          "name": "G3",
          "ticks": 40320,
          "time": 70.78648499999998,
          "velocity": 0.25984251968503935
        },
        {
          "duration": 0.16853925000000913,
          "durationTicks": 96,
          "midi": 64,
          "name": "E4",
          "ticks": 40320,
          "time": 70.78648499999998,
          "velocity": 0.25984251968503935
        },
        {
          "duration": 0.33707850000000406,
          "durationTicks": 192,
          "midi": 60,
          "name": "C4",
          "ticks": 40512,
          "time": 71.12356349999999,
          "velocity": 0.25984251968503935
        },
        {
          "duration": 0.16853924999999492,
          "durationTicks": 96,
          "midi": 55,
          "name": "G3",
          "ticks": 40512,
          "time": 71.12356349999999,
          "velocity": 0.25984251968503935
        },
        {
          "duration": 0.16853924999999492,
          "durationTicks": 96,
          "midi": 41,
          "name": "F2",
          "ticks": 40704,
          "time": 71.46064199999999,
          "velocity": 0.25984251968503935
        },
        {
          "duration": 0.16853924999999492,
          "durationTicks": 96,
          "midi": 55,
          "name": "G3",
          "ticks": 40800,
          "time": 71.62918124999999,
          "velocity": 0.25984251968503935
        },
        {
          "duration": 0.33707850000000406,
          "durationTicks": 192,
          "midi": 72,
          "name": "C5",
          "ticks": 40896,
          "time": 71.79772049999998,
          "velocity": 0.25984251968503935
        },
        {
          "duration": 0.16853925000000913,
          "durationTicks": 96,
          "midi": 60,
          "name": "C4",
          "ticks": 40896,
          "time": 71.79772049999998,
          "velocity": 0.25984251968503935
        },
        {
          "duration": 0.16853925000000913,
          "durationTicks": 96,
          "midi": 62,
          "name": "D4",
          "ticks": 40896,
          "time": 71.79772049999998,
          "velocity": 0.25984251968503935
        },
        {
          "duration": 0.16853924999999492,
          "durationTicks": 96,
          "midi": 62,
          "name": "D4",
          "ticks": 40992,
          "time": 71.96625974999999,
          "velocity": 0.25984251968503935
        },
        {
          "duration": 0.16853924999999492,
          "durationTicks": 96,
          "midi": 64,
          "name": "E4",
          "ticks": 41088,
          "time": 72.13479899999999,
          "velocity": 0.25984251968503935
        },
        {
          "duration": 0.33707850000000406,
          "durationTicks": 192,
          "midi": 74,
          "name": "D5",
          "ticks": 41088,
          "time": 72.13479899999999,
          "velocity": 0.25984251968503935
        },
        {
          "duration": 0.16853924999999492,
          "durationTicks": 96,
          "midi": 55,
          "name": "G3",
          "ticks": 41280,
          "time": 72.47187749999999,
          "velocity": 0.25984251968503935
        },
        {
          "duration": 2.191010249999991,
          "durationTicks": 1248,
          "midi": 67,
          "name": "G4",
          "ticks": 41280,
          "time": 72.47187749999999,
          "velocity": 0.25984251968503935
        },
        {
          "duration": 0.16853924999999492,
          "durationTicks": 96,
          "midi": 43,
          "name": "G2",
          "ticks": 41472,
          "time": 72.808956,
          "velocity": 0.25984251968503935
        },
        {
          "duration": 0.16853924999999492,
          "durationTicks": 96,
          "midi": 55,
          "name": "G3",
          "ticks": 41568,
          "time": 72.97749524999999,
          "velocity": 0.25984251968503935
        },
        {
          "duration": 0.16853925000000913,
          "durationTicks": 96,
          "midi": 60,
          "name": "C4",
          "ticks": 41664,
          "time": 73.14603449999998,
          "velocity": 0.25984251968503935
        },
        {
          "duration": 0.16853924999999492,
          "durationTicks": 96,
          "midi": 62,
          "name": "D4",
          "ticks": 41760,
          "time": 73.31457375,
          "velocity": 0.25984251968503935
        },
        {
          "duration": 0.33707850000000406,
          "durationTicks": 192,
          "midi": 55,
          "name": "G3",
          "ticks": 41856,
          "time": 73.48311299999999,
          "velocity": 0.25984251968503935
        },
        {
          "duration": 0.16853924999999492,
          "durationTicks": 96,
          "midi": 64,
          "name": "E4",
          "ticks": 41856,
          "time": 73.48311299999999,
          "velocity": 0.25984251968503935
        },
        {
          "duration": 0.16853924999999492,
          "durationTicks": 96,
          "midi": 55,
          "name": "G3",
          "ticks": 42048,
          "time": 73.82019149999999,
          "velocity": 0.25984251968503935
        },
        {
          "duration": 0.33707849999998984,
          "durationTicks": 192,
          "midi": 60,
          "name": "C4",
          "ticks": 42048,
          "time": 73.82019149999999,
          "velocity": 0.25984251968503935
        },
        {
          "duration": 0.16853925000000913,
          "durationTicks": 96,
          "midi": 43,
          "name": "G2",
          "ticks": 42240,
          "time": 74.15726999999998,
          "velocity": 0.25984251968503935
        },
        {
          "duration": 0.16853924999999492,
          "durationTicks": 96,
          "midi": 55,
          "name": "G3",
          "ticks": 42336,
          "time": 74.32580924999999,
          "velocity": 0.25984251968503935
        },
        {
          "duration": 0.16853924999999492,
          "durationTicks": 96,
          "midi": 62,
          "name": "D4",
          "ticks": 42432,
          "time": 74.49434849999999,
          "velocity": 0.25984251968503935
        },
        {
          "duration": 0.16853924999999492,
          "durationTicks": 96,
          "midi": 60,
          "name": "C4",
          "ticks": 42432,
          "time": 74.49434849999999,
          "velocity": 0.25984251968503935
        },
        {
          "duration": 0.16853925000000913,
          "durationTicks": 96,
          "midi": 62,
          "name": "D4",
          "ticks": 42528,
          "time": 74.66288774999998,
          "velocity": 0.25984251968503935
        },
        {
          "duration": 0.6741569999999939,
          "durationTicks": 384,
          "midi": 65,
          "name": "F4",
          "ticks": 42624,
          "time": 74.83142699999999,
          "velocity": 0.25984251968503935
        },
        {
          "duration": 0.16853924999999492,
          "durationTicks": 96,
          "midi": 64,
          "name": "E4",
          "ticks": 42624,
          "time": 74.83142699999999,
          "velocity": 0.25984251968503935
        },
        {
          "duration": 0.16853924999999492,
          "durationTicks": 96,
          "midi": 55,
          "name": "G3",
          "ticks": 42816,
          "time": 75.1685055,
          "velocity": 0.25984251968503935
        },
        {
          "duration": 0.16853925000000913,
          "durationTicks": 96,
          "midi": 48,
          "name": "C3",
          "ticks": 43008,
          "time": 75.50558399999998,
          "velocity": 0.25984251968503935
        },
        {
          "duration": 0.6741570000000081,
          "durationTicks": 384,
          "midi": 64,
          "name": "E4",
          "ticks": 43008,
          "time": 75.50558399999998,
          "velocity": 0.25984251968503935
        },
        {
          "duration": 0.16853924999999492,
          "durationTicks": 96,
          "midi": 55,
          "name": "G3",
          "ticks": 43104,
          "time": 75.67412325,
          "velocity": 0.25984251968503935
        },
        {
          "duration": 0.16853924999999492,
          "durationTicks": 96,
          "midi": 60,
          "name": "C4",
          "ticks": 43200,
          "time": 75.84266249999999,
          "velocity": 0.25984251968503935
        },
        {
          "duration": 0.16853925000000913,
          "durationTicks": 96,
          "midi": 62,
          "name": "D4",
          "ticks": 43296,
          "time": 76.01120174999998,
          "velocity": 0.25984251968503935
        },
        {
          "duration": 0.16853924999999492,
          "durationTicks": 96,
          "midi": 64,
          "name": "E4",
          "ticks": 43392,
          "time": 76.17974099999999,
          "velocity": 0.25984251968503935
        },
        {
          "duration": 0.33707849999998984,
          "durationTicks": 192,
          "midi": 55,
          "name": "G3",
          "ticks": 43392,
          "time": 76.17974099999999,
          "velocity": 0.25984251968503935
        },
        {
          "duration": 0.16853925000000913,
          "durationTicks": 96,
          "midi": 55,
          "name": "G3",
          "ticks": 43584,
          "time": 76.51681949999998,
          "velocity": 0.25984251968503935
        },
        {
          "duration": 0.33707850000000406,
          "durationTicks": 192,
          "midi": 60,
          "name": "C4",
          "ticks": 43584,
          "time": 76.51681949999998,
          "velocity": 0.25984251968503935
        },
        {
          "duration": 0.16853924999999492,
          "durationTicks": 96,
          "midi": 48,
          "name": "C3",
          "ticks": 43776,
          "time": 76.85389799999999,
          "velocity": 0.25984251968503935
        },
        {
          "duration": 0.16853925000000913,
          "durationTicks": 96,
          "midi": 55,
          "name": "G3",
          "ticks": 43872,
          "time": 77.02243724999998,
          "velocity": 0.25984251968503935
        },
        {
          "duration": 0.33707850000000406,
          "durationTicks": 192,
          "midi": 67,
          "name": "G4",
          "ticks": 43968,
          "time": 77.19097649999999,
          "velocity": 0.25984251968503935
        },
        {
          "duration": 0.16853924999999492,
          "durationTicks": 96,
          "midi": 60,
          "name": "C4",
          "ticks": 43968,
          "time": 77.19097649999999,
          "velocity": 0.25984251968503935
        },
        {
          "duration": 0.16853924999999492,
          "durationTicks": 96,
          "midi": 62,
          "name": "D4",
          "ticks": 43968,
          "time": 77.19097649999999,
          "velocity": 0.25984251968503935
        },
        {
          "duration": 0.16853925000000913,
          "durationTicks": 96,
          "midi": 62,
          "name": "D4",
          "ticks": 44064,
          "time": 77.35951574999999,
          "velocity": 0.25984251968503935
        },
        {
          "duration": 0.16853924999999492,
          "durationTicks": 96,
          "midi": 64,
          "name": "E4",
          "ticks": 44160,
          "time": 77.528055,
          "velocity": 0.25984251968503935
        },
        {
          "duration": 0.33707849999998984,
          "durationTicks": 192,
          "midi": 72,
          "name": "C5",
          "ticks": 44160,
          "time": 77.528055,
          "velocity": 0.25984251968503935
        },
        {
          "duration": 0.16853925000000913,
          "durationTicks": 96,
          "midi": 55,
          "name": "G3",
          "ticks": 44352,
          "time": 77.86513349999998,
          "velocity": 0.25984251968503935
        },
        {
          "duration": 1.011235499999998,
          "durationTicks": 576,
          "midi": 74,
          "name": "D5",
          "ticks": 44352,
          "time": 77.86513349999998,
          "velocity": 0.25984251968503935
        },
        {
          "duration": 0.16853924999999492,
          "durationTicks": 96,
          "midi": 45,
          "name": "A2",
          "ticks": 44544,
          "time": 78.20221199999999,
          "velocity": 0.25984251968503935
        },
        {
          "duration": 0.16853925000000913,
          "durationTicks": 96,
          "midi": 55,
          "name": "G3",
          "ticks": 44640,
          "time": 78.37075124999998,
          "velocity": 0.25984251968503935
        },
        {
          "duration": 0.16853924999999492,
          "durationTicks": 96,
          "midi": 60,
          "name": "C4",
          "ticks": 44736,
          "time": 78.53929049999999,
          "velocity": 0.25984251968503935
        },
        {
          "duration": 0.16853924999999492,
          "durationTicks": 96,
          "midi": 62,
          "name": "D4",
          "ticks": 44832,
          "time": 78.70782974999999,
          "velocity": 0.25984251968503935
        },
        {
          "duration": 0.33707850000000406,
          "durationTicks": 192,
          "midi": 55,
          "name": "G3",
          "ticks": 44928,
          "time": 78.87636899999998,
          "velocity": 0.25984251968503935
        },
        {
          "duration": 0.16853925000000913,
          "durationTicks": 96,
          "midi": 64,
          "name": "E4",
          "ticks": 44928,
          "time": 78.87636899999998,
          "velocity": 0.25984251968503935
        },
        {
          "duration": 0.33707850000000406,
          "durationTicks": 192,
          "midi": 72,
          "name": "C5",
          "ticks": 44928,
          "time": 78.87636899999998,
          "velocity": 0.25984251968503935
        },
        {
          "duration": 0.16853924999999492,
          "durationTicks": 96,
          "midi": 55,
          "name": "G3",
          "ticks": 45120,
          "time": 79.21344749999999,
          "velocity": 0.25984251968503935
        },
        {
          "duration": 0.33707850000000406,
          "durationTicks": 192,
          "midi": 60,
          "name": "C4",
          "ticks": 45120,
          "time": 79.21344749999999,
          "velocity": 0.25984251968503935
        },
        {
          "duration": 1.011235499999998,
          "durationTicks": 576,
          "midi": 71,
          "name": "B4",
          "ticks": 45120,
          "time": 79.21344749999999,
          "velocity": 0.25984251968503935
        },
        {
          "duration": 0.16853924999999492,
          "durationTicks": 96,
          "midi": 45,
          "name": "A2",
          "ticks": 45312,
          "time": 79.55052599999999,
          "velocity": 0.25984251968503935
        },
        {
          "duration": 0.16853924999999492,
          "durationTicks": 96,
          "midi": 55,
          "name": "G3",
          "ticks": 45408,
          "time": 79.71906524999999,
          "velocity": 0.25984251968503935
        },
        {
          "duration": 0.16853925000000913,
          "durationTicks": 96,
          "midi": 60,
          "name": "C4",
          "ticks": 45504,
          "time": 79.88760449999998,
          "velocity": 0.25984251968503935
        },
        {
          "duration": 0.16853925000000913,
          "durationTicks": 96,
          "midi": 62,
          "name": "D4",
          "ticks": 45504,
          "time": 79.88760449999998,
          "velocity": 0.25984251968503935
        },
        {
          "duration": 0.16853924999999492,
          "durationTicks": 96,
          "midi": 62,
          "name": "D4",
          "ticks": 45600,
          "time": 80.05614374999999,
          "velocity": 0.25984251968503935
        },
        {
          "duration": 0.16853925000000913,
          "durationTicks": 96,
          "midi": 64,
          "name": "E4",
          "ticks": 45696,
          "time": 80.22468299999998,
          "velocity": 0.25984251968503935
        },
        {
          "duration": 1.348314000000002,
          "durationTicks": 768,
          "midi": 72,
          "name": "C5",
          "ticks": 45696,
          "time": 80.22468299999998,
          "velocity": 0.25984251968503935
        },
        {
          "duration": 0.16853924999999492,
          "durationTicks": 96,
          "midi": 55,
          "name": "G3",
          "ticks": 45888,
          "time": 80.56176149999999,
          "velocity": 0.25984251968503935
        },
        {
          "duration": 0.16853924999999492,
          "durationTicks": 96,
          "midi": 41,
          "name": "F2",
          "ticks": 46080,
          "time": 80.89883999999999,
          "velocity": 0.25984251968503935
        },
        {
          "duration": 0.16853924999999492,
          "durationTicks": 96,
          "midi": 55,
          "name": "G3",
          "ticks": 46176,
          "time": 81.06737924999999,
          "velocity": 0.25984251968503935
        },
        {
          "duration": 0.16853925000000913,
          "durationTicks": 96,
          "midi": 60,
          "name": "C4",
          "ticks": 46272,
          "time": 81.23591849999998,
          "velocity": 0.25984251968503935
        },
        {
          "duration": 0.16853924999999492,
          "durationTicks": 96,
          "midi": 62,
          "name": "D4",
          "ticks": 46368,
          "time": 81.40445774999999,
          "velocity": 0.25984251968503935
        },
        {
          "duration": 0.16853924999999492,
          "durationTicks": 96,
          "midi": 64,
          "name": "E4",
          "ticks": 46464,
          "time": 81.57299699999999,
          "velocity": 0.25984251968503935
        },
        {
          "duration": 0.33707850000000406,
          "durationTicks": 192,
          "midi": 55,
          "name": "G3",
          "ticks": 46464,
          "time": 81.57299699999999,
          "velocity": 0.25984251968503935
        },
        {
          "duration": 0.33707850000000406,
          "durationTicks": 192,
          "midi": 71,
          "name": "B4",
          "ticks": 46464,
          "time": 81.57299699999999,
          "velocity": 0.25984251968503935
        },
        {
          "duration": 0.33707849999998984,
          "durationTicks": 192,
          "midi": 60,
          "name": "C4",
          "ticks": 46656,
          "time": 81.91007549999999,
          "velocity": 0.25984251968503935
        },
        {
          "duration": 0.16853924999999492,
          "durationTicks": 96,
          "midi": 55,
          "name": "G3",
          "ticks": 46656,
          "time": 81.91007549999999,
          "velocity": 0.25984251968503935
        },
        {
          "duration": 2.865167249999999,
          "durationTicks": 1632,
          "midi": 67,
          "name": "G4",
          "ticks": 46656,
          "time": 81.91007549999999,
          "velocity": 0.25984251968503935
        },
        {
          "duration": 0.16853925000000913,
          "durationTicks": 96,
          "midi": 41,
          "name": "F2",
          "ticks": 46848,
          "time": 82.24715399999998,
          "velocity": 0.25984251968503935
        },
        {
          "duration": 0.16853924999999492,
          "durationTicks": 96,
          "midi": 55,
          "name": "G3",
          "ticks": 46944,
          "time": 82.41569324999999,
          "velocity": 0.25984251968503935
        },
        {
          "duration": 0.16853925000000913,
          "durationTicks": 96,
          "midi": 60,
          "name": "C4",
          "ticks": 47040,
          "time": 82.58423249999998,
          "velocity": 0.25984251968503935
        },
        {
          "duration": 0.16853925000000913,
          "durationTicks": 96,
          "midi": 62,
          "name": "D4",
          "ticks": 47040,
          "time": 82.58423249999998,
          "velocity": 0.25984251968503935
        },
        {
          "duration": 0.16853924999999492,
          "durationTicks": 96,
          "midi": 62,
          "name": "D4",
          "ticks": 47136,
          "time": 82.75277175,
          "velocity": 0.25984251968503935
        },
        {
          "duration": 0.16853924999999492,
          "durationTicks": 96,
          "midi": 64,
          "name": "E4",
          "ticks": 47232,
          "time": 82.92131099999999,
          "velocity": 0.25984251968503935
        },
        {
          "duration": 0.16853924999999492,
          "durationTicks": 96,
          "midi": 55,
          "name": "G3",
          "ticks": 47424,
          "time": 83.25838949999999,
          "velocity": 0.25984251968503935
        },
        {
          "duration": 0.16853925000000913,
          "durationTicks": 96,
          "midi": 43,
          "name": "G2",
          "ticks": 47616,
          "time": 83.59546799999998,
          "velocity": 0.25984251968503935
        },
        {
          "duration": 0.16853924999999492,
          "durationTicks": 96,
          "midi": 55,
          "name": "G3",
          "ticks": 47712,
          "time": 83.76400724999999,
          "velocity": 0.25984251968503935
        },
        {
          "duration": 0.16853924999999492,
          "durationTicks": 96,
          "midi": 60,
          "name": "C4",
          "ticks": 47808,
          "time": 83.93254649999999,
          "velocity": 0.25984251968503935
        },
        {
          "duration": 0.16853925000000913,
          "durationTicks": 96,
          "midi": 62,
          "name": "D4",
          "ticks": 47904,
          "time": 84.10108574999998,
          "velocity": 0.25984251968503935
        },
        {
          "duration": 0.16853924999999492,
          "durationTicks": 96,
          "midi": 64,
          "name": "E4",
          "ticks": 48000,
          "time": 84.26962499999999,
          "velocity": 0.25984251968503935
        },
        {
          "duration": 0.33707849999998984,
          "durationTicks": 192,
          "midi": 55,
          "name": "G3",
          "ticks": 48000,
          "time": 84.26962499999999,
          "velocity": 0.25984251968503935
        },
        {
          "duration": 0.16853925000000913,
          "durationTicks": 96,
          "midi": 55,
          "name": "G3",
          "ticks": 48192,
          "time": 84.60670349999998,
          "velocity": 0.25984251968503935
        },
        {
          "duration": 0.33707850000000406,
          "durationTicks": 192,
          "midi": 60,
          "name": "C4",
          "ticks": 48192,
          "time": 84.60670349999998,
          "velocity": 0.25984251968503935
        },
        {
          "duration": 0.16853925000000913,
          "durationTicks": 96,
          "midi": 43,
          "name": "G2",
          "ticks": 48384,
          "time": 84.94378199999998,
          "velocity": 0.25984251968503935
        },
        {
          "duration": 0.6741570000000081,
          "durationTicks": 384,
          "midi": 64,
          "name": "E4",
          "ticks": 48384,
          "time": 84.94378199999998,
          "velocity": 0.25984251968503935
        },
        {
          "duration": 0.16853924999999492,
          "durationTicks": 96,
          "midi": 55,
          "name": "G3",
          "ticks": 48480,
          "time": 85.11232125,
          "velocity": 0.25984251968503935
        },
        {
          "duration": 0.16853924999999492,
          "durationTicks": 96,
          "midi": 62,
          "name": "D4",
          "ticks": 48576,
          "time": 85.28086049999999,
          "velocity": 0.25984251968503935
        },
        {
          "duration": 0.16853924999999492,
          "durationTicks": 96,
          "midi": 60,
          "name": "C4",
          "ticks": 48576,
          "time": 85.28086049999999,
          "velocity": 0.25984251968503935
        },
        {
          "duration": 0.16853925000000913,
          "durationTicks": 96,
          "midi": 62,
          "name": "D4",
          "ticks": 48672,
          "time": 85.44939974999998,
          "velocity": 0.25984251968503935
        },
        {
          "duration": 0.16853924999999492,
          "durationTicks": 96,
          "midi": 65,
          "name": "F4",
          "ticks": 48768,
          "time": 85.61793899999999,
          "velocity": 0.25984251968503935
        },
        {
          "duration": 0.16853924999999492,
          "durationTicks": 96,
          "midi": 62,
          "name": "D4",
          "ticks": 48768,
          "time": 85.61793899999999,
          "velocity": 0.25984251968503935
        },
        {
          "duration": 0.16853924999999492,
          "durationTicks": 96,
          "midi": 64,
          "name": "E4",
          "ticks": 48768,
          "time": 85.61793899999999,
          "velocity": 0.25984251968503935
        },
        {
          "duration": 0.16853924999999492,
          "durationTicks": 96,
          "midi": 64,
          "name": "E4",
          "ticks": 48864,
          "time": 85.78647824999999,
          "velocity": 0.25984251968503935
        },
        {
          "duration": 0.16853925000000913,
          "durationTicks": 96,
          "midi": 55,
          "name": "G3",
          "ticks": 48960,
          "time": 85.95501749999998,
          "velocity": 0.25984251968503935
        },
        {
          "duration": 0.16853925000000913,
          "durationTicks": 96,
          "midi": 64,
          "name": "E4",
          "ticks": 48960,
          "time": 85.95501749999998,
          "velocity": 0.25984251968503935
        },
        {
          "duration": 0.16853925000000913,
          "durationTicks": 96,
          "midi": 67,
          "name": "G4",
          "ticks": 48960,
          "time": 85.95501749999998,
          "velocity": 0.25984251968503935
        },
        {
          "duration": 0.16853924999999492,
          "durationTicks": 96,
          "midi": 64,
          "name": "E4",
          "ticks": 49056,
          "time": 86.12355674999999,
          "velocity": 0.25984251968503935
        },
        {
          "duration": 0.6741569999999939,
          "durationTicks": 384,
          "midi": 64,
          "name": "E4",
          "ticks": 49152,
          "time": 86.29209599999999,
          "velocity": 0.25984251968503935
        },
        {
          "duration": 0.16853924999999492,
          "durationTicks": 96,
          "midi": 48,
          "name": "C3",
          "ticks": 49152,
          "time": 86.29209599999999,
          "velocity": 0.25984251968503935
        },
        {
          "duration": 0.16853925000000913,
          "durationTicks": 96,
          "midi": 55,
          "name": "G3",
          "ticks": 49248,
          "time": 86.46063524999998,
          "velocity": 0.25984251968503935
        },
        {
          "duration": 0.16853924999999492,
          "durationTicks": 96,
          "midi": 60,
          "name": "C4",
          "ticks": 49344,
          "time": 86.62917449999999,
          "velocity": 0.25984251968503935
        },
        {
          "duration": 0.16853924999999492,
          "durationTicks": 96,
          "midi": 62,
          "name": "D4",
          "ticks": 49440,
          "time": 86.79771374999999,
          "velocity": 0.25984251968503935
        },
        {
          "duration": 0.33707850000000406,
          "durationTicks": 192,
          "midi": 55,
          "name": "G3",
          "ticks": 49536,
          "time": 86.96625299999998,
          "velocity": 0.25984251968503935
        },
        {
          "duration": 0.16853925000000913,
          "durationTicks": 96,
          "midi": 64,
          "name": "E4",
          "ticks": 49536,
          "time": 86.96625299999998,
          "velocity": 0.25984251968503935
        },
        {
          "duration": 0.16853924999999492,
          "durationTicks": 96,
          "midi": 55,
          "name": "G3",
          "ticks": 49728,
          "time": 87.30333149999998,
          "velocity": 0.25984251968503935
        },
        {
          "duration": 0.33707850000000406,
          "durationTicks": 192,
          "midi": 60,
          "name": "C4",
          "ticks": 49728,
          "time": 87.30333149999998,
          "velocity": 0.25984251968503935
        },
        {
          "duration": 0.16853924999999492,
          "durationTicks": 96,
          "midi": 48,
          "name": "C3",
          "ticks": 49920,
          "time": 87.64040999999999,
          "velocity": 0.25984251968503935
        },
        {
          "duration": 0.16853925000000913,
          "durationTicks": 96,
          "midi": 55,
          "name": "G3",
          "ticks": 50016,
          "time": 87.80894924999998,
          "velocity": 0.25984251968503935
        },
        {
          "duration": 0.16853924999999492,
          "durationTicks": 96,
          "midi": 62,
          "name": "D4",
          "ticks": 50112,
          "time": 87.97748849999999,
          "velocity": 0.25984251968503935
        },
        {
          "duration": 0.16853924999999492,
          "durationTicks": 96,
          "midi": 60,
          "name": "C4",
          "ticks": 50112,
          "time": 87.97748849999999,
          "velocity": 0.25984251968503935
        },
        {
          "duration": 0.33707849999998984,
          "durationTicks": 192,
          "midi": 67,
          "name": "G4",
          "ticks": 50112,
          "time": 87.97748849999999,
          "velocity": 0.25984251968503935
        },
        {
          "duration": 0.16853924999999492,
          "durationTicks": 96,
          "midi": 62,
          "name": "D4",
          "ticks": 50208,
          "time": 88.14602774999999,
          "velocity": 0.25984251968503935
        },
        {
          "duration": 0.33707850000000406,
          "durationTicks": 192,
          "midi": 72,
          "name": "C5",
          "ticks": 50304,
          "time": 88.31456699999998,
          "velocity": 0.25984251968503935
        },
        {
          "duration": 0.33707850000000406,
          "durationTicks": 192,
          "midi": 64,
          "name": "E4",
          "ticks": 50304,
          "time": 88.31456699999998,
          "velocity": 0.25984251968503935
        },
        {
          "duration": 0.16853924999999492,
          "durationTicks": 96,
          "midi": 55,
          "name": "G3",
          "ticks": 50496,
          "time": 88.65164549999999,
          "velocity": 0.25984251968503935
        },
        {
          "duration": 0.33707850000000406,
          "durationTicks": 192,
          "midi": 74,
          "name": "D5",
          "ticks": 50496,
          "time": 88.65164549999999,
          "velocity": 0.25984251968503935
        },
        {
          "duration": 0.33707849999998984,
          "durationTicks": 192,
          "midi": 76,
          "name": "E5",
          "ticks": 50688,
          "time": 88.98872399999999,
          "velocity": 0.25984251968503935
        },
        {
          "duration": 0.33707849999998984,
          "durationTicks": 192,
          "midi": 71,
          "name": "B4",
          "ticks": 50688,
          "time": 88.98872399999999,
          "velocity": 0.25984251968503935
        },
        {
          "duration": 0.16853924999999492,
          "durationTicks": 96,
          "midi": 45,
          "name": "A2",
          "ticks": 50688,
          "time": 88.98872399999999,
          "velocity": 0.25984251968503935
        },
        {
          "duration": 0.16853924999999492,
          "durationTicks": 96,
          "midi": 55,
          "name": "G3",
          "ticks": 50784,
          "time": 89.15726324999999,
          "velocity": 0.25984251968503935
        },
        {
          "duration": 0.16853925000000913,
          "durationTicks": 96,
          "midi": 60,
          "name": "C4",
          "ticks": 50880,
          "time": 89.32580249999998,
          "velocity": 0.25984251968503935
        },
        {
          "duration": 0.33707850000000406,
          "durationTicks": 192,
          "midi": 71,
          "name": "B4",
          "ticks": 50880,
          "time": 89.32580249999998,
          "velocity": 0.25984251968503935
        },
        {
          "duration": 0.33707850000000406,
          "durationTicks": 192,
          "midi": 77,
          "name": "F5",
          "ticks": 50880,
          "time": 89.32580249999998,
          "velocity": 0.25984251968503935
        },
        {
          "duration": 0.16853924999999492,
          "durationTicks": 96,
          "midi": 62,
          "name": "D4",
          "ticks": 50976,
          "time": 89.49434174999999,
          "velocity": 0.25984251968503935
        },
        {
          "duration": 0.16853924999999492,
          "durationTicks": 96,
          "midi": 64,
          "name": "E4",
          "ticks": 51072,
          "time": 89.66288099999998,
          "velocity": 0.25984251968503935
        },
        {
          "duration": 0.33707850000000406,
          "durationTicks": 192,
          "midi": 67,
          "name": "G4",
          "ticks": 51072,
          "time": 89.66288099999998,
          "velocity": 0.25984251968503935
        },
        {
          "duration": 0.33707850000000406,
          "durationTicks": 192,
          "midi": 76,
          "name": "E5",
          "ticks": 51072,
          "time": 89.66288099999998,
          "velocity": 0.25984251968503935
        },
        {
          "duration": 0.33707850000000406,
          "durationTicks": 192,
          "midi": 55,
          "name": "G3",
          "ticks": 51072,
          "time": 89.66288099999998,
          "velocity": 0.25984251968503935
        },
        {
          "duration": 0.6741569999999939,
          "durationTicks": 384,
          "midi": 74,
          "name": "D5",
          "ticks": 51264,
          "time": 89.99995949999999,
          "velocity": 0.25984251968503935
        },
        {
          "duration": 0.33707850000000406,
          "durationTicks": 192,
          "midi": 60,
          "name": "C4",
          "ticks": 51264,
          "time": 89.99995949999999,
          "velocity": 0.25984251968503935
        },
        {
          "duration": 0.33707850000000406,
          "durationTicks": 192,
          "midi": 71,
          "name": "B4",
          "ticks": 51264,
          "time": 89.99995949999999,
          "velocity": 0.25984251968503935
        },
        {
          "duration": 0.16853924999999492,
          "durationTicks": 96,
          "midi": 55,
          "name": "G3",
          "ticks": 51264,
          "time": 89.99995949999999,
          "velocity": 0.25984251968503935
        },
        {
          "duration": 0.16853924999999492,
          "durationTicks": 96,
          "midi": 45,
          "name": "A2",
          "ticks": 51456,
          "time": 90.33703799999999,
          "velocity": 0.25984251968503935
        },
        {
          "duration": 0.33707849999998984,
          "durationTicks": 192,
          "midi": 71,
          "name": "B4",
          "ticks": 51456,
          "time": 90.33703799999999,
          "velocity": 0.25984251968503935
        },
        {
          "duration": 0.16853924999999492,
          "durationTicks": 96,
          "midi": 55,
          "name": "G3",
          "ticks": 51552,
          "time": 90.50557724999999,
          "velocity": 0.25984251968503935
        },
        {
          "duration": 0.16853925000000913,
          "durationTicks": 96,
          "midi": 60,
          "name": "C4",
          "ticks": 51648,
          "time": 90.67411649999998,
          "velocity": 0.25984251968503935
        },
        {
          "duration": 0.16853925000000913,
          "durationTicks": 96,
          "midi": 62,
          "name": "D4",
          "ticks": 51648,
          "time": 90.67411649999998,
          "velocity": 0.25984251968503935
        },
        {
          "duration": 0.33707850000000406,
          "durationTicks": 192,
          "midi": 67,
          "name": "G4",
          "ticks": 51648,
          "time": 90.67411649999998,
          "velocity": 0.25984251968503935
        },
        {
          "duration": 0.16853924999999492,
          "durationTicks": 96,
          "midi": 62,
          "name": "D4",
          "ticks": 51744,
          "time": 90.84265574999999,
          "velocity": 0.25984251968503935
        },
        {
          "duration": 0.6741569999999939,
          "durationTicks": 384,
          "midi": 72,
          "name": "C5",
          "ticks": 51840,
          "time": 91.01119499999999,
          "velocity": 0.25984251968503935
        },
        {
          "duration": 0.33707850000000406,
          "durationTicks": 192,
          "midi": 71,
          "name": "B4",
          "ticks": 51840,
          "time": 91.01119499999999,
          "velocity": 0.25984251968503935
        },
        {
          "duration": 0.16853924999999492,
          "durationTicks": 96,
          "midi": 64,
          "name": "E4",
          "ticks": 51840,
          "time": 91.01119499999999,
          "velocity": 0.25984251968503935
        },
        {
          "duration": 0.16853924999999492,
          "durationTicks": 96,
          "midi": 55,
          "name": "G3",
          "ticks": 52032,
          "time": 91.34827349999999,
          "velocity": 0.25984251968503935
        },
        {
          "duration": 0.33707849999998984,
          "durationTicks": 192,
          "midi": 71,
          "name": "B4",
          "ticks": 52032,
          "time": 91.34827349999999,
          "velocity": 0.25984251968503935
        },
        {
          "duration": 0,
          "durationTicks": 0,
          "midi": 72,
          "name": "C5",
          "ticks": 52224,
          "time": 91.68535199999998,
          "velocity": 0.25984251968503935
        },
        {
          "duration": 0.33707850000000406,
          "durationTicks": 192,
          "midi": 67,
          "name": "G4",
          "ticks": 52224,
          "time": 91.68535199999998,
          "velocity": 0.25984251968503935
        },
        {
          "duration": 0.16853925000000913,
          "durationTicks": 96,
          "midi": 41,
          "name": "F2",
          "ticks": 52224,
          "time": 91.68535199999998,
          "velocity": 0.25984251968503935
        },
        {
          "duration": 1.853931750000001,
          "durationTicks": 1056,
          "midi": 79,
          "name": "G5",
          "ticks": 52260,
          "time": 91.74855421874999,
          "velocity": 0.25984251968503935
        },
        {
          "duration": 0.16853924999999492,
          "durationTicks": 96,
          "midi": 55,
          "name": "G3",
          "ticks": 52320,
          "time": 91.85389124999999,
          "velocity": 0.25984251968503935
        },
        {
          "duration": 0.16853924999999492,
          "durationTicks": 96,
          "midi": 60,
          "name": "C4",
          "ticks": 52416,
          "time": 92.02243049999998,
          "velocity": 0.25984251968503935
        },
        {
          "duration": 0.16853925000000913,
          "durationTicks": 96,
          "midi": 62,
          "name": "D4",
          "ticks": 52512,
          "time": 92.19096974999998,
          "velocity": 0.25984251968503935
        },
        {
          "duration": 0.16853924999999492,
          "durationTicks": 96,
          "midi": 64,
          "name": "E4",
          "ticks": 52608,
          "time": 92.35950899999999,
          "velocity": 0.25984251968503935
        },
        {
          "duration": 0.33707850000000406,
          "durationTicks": 192,
          "midi": 55,
          "name": "G3",
          "ticks": 52608,
          "time": 92.35950899999999,
          "velocity": 0.25984251968503935
        },
        {
          "duration": 0.16853924999999492,
          "durationTicks": 96,
          "midi": 55,
          "name": "G3",
          "ticks": 52800,
          "time": 92.69658749999999,
          "velocity": 0.25984251968503935
        },
        {
          "duration": 0.33707849999998984,
          "durationTicks": 192,
          "midi": 60,
          "name": "C4",
          "ticks": 52800,
          "time": 92.69658749999999,
          "velocity": 0.25984251968503935
        },
        {
          "duration": 0.16853925000000913,
          "durationTicks": 96,
          "midi": 41,
          "name": "F2",
          "ticks": 52992,
          "time": 93.03366599999998,
          "velocity": 0.25984251968503935
        },
        {
          "duration": 0.16853924999999492,
          "durationTicks": 96,
          "midi": 55,
          "name": "G3",
          "ticks": 53088,
          "time": 93.20220524999999,
          "velocity": 0.25984251968503935
        },
        {
          "duration": 0.16853924999999492,
          "durationTicks": 96,
          "midi": 62,
          "name": "D4",
          "ticks": 53184,
          "time": 93.37074449999999,
          "velocity": 0.25984251968503935
        },
        {
          "duration": 0.16853924999999492,
          "durationTicks": 96,
          "midi": 60,
          "name": "C4",
          "ticks": 53184,
          "time": 93.37074449999999,
          "velocity": 0.25984251968503935
        },
        {
          "duration": 0.16853925000000913,
          "durationTicks": 96,
          "midi": 62,
          "name": "D4",
          "ticks": 53280,
          "time": 93.53928374999998,
          "velocity": 0.25984251968503935
        },
        {
          "duration": 0.16853924999999492,
          "durationTicks": 96,
          "midi": 64,
          "name": "E4",
          "ticks": 53376,
          "time": 93.70782299999999,
          "velocity": 0.25984251968503935
        },
        {
          "duration": 0.16853925000000913,
          "durationTicks": 96,
          "midi": 55,
          "name": "G3",
          "ticks": 53568,
          "time": 94.04490149999998,
          "velocity": 0.25984251968503935
        },
        {
          "duration": 0.17029486718750775,
          "durationTicks": 97,
          "midi": 77,
          "name": "F5",
          "ticks": 53632,
          "time": 94.15726099999998,
          "velocity": 0.25984251968503935
        },
        {
          "duration": 0.17029486718749354,
          "durationTicks": 97,
          "midi": 76,
          "name": "E5",
          "ticks": 53696,
          "time": 94.26962049999999,
          "velocity": 0.25984251968503935
        },
        {
          "duration": 0.16853924999999492,
          "durationTicks": 96,
          "midi": 43,
          "name": "G2",
          "ticks": 53761,
          "time": 94.38373561718748,
          "velocity": 0.25984251968503935
        },
        {
          "duration": 1.853931750000001,
          "durationTicks": 1056,
          "midi": 74,
          "name": "D5",
          "ticks": 53761,
          "time": 94.38373561718748,
          "velocity": 0.25984251968503935
        },
        {
          "duration": 0.16853924999999492,
          "durationTicks": 96,
          "midi": 55,
          "name": "G3",
          "ticks": 53857,
          "time": 94.55227486718748,
          "velocity": 0.25984251968503935
        },
        {
          "duration": 0.16853925000000913,
          "durationTicks": 96,
          "midi": 60,
          "name": "C4",
          "ticks": 53953,
          "time": 94.72081411718747,
          "velocity": 0.25984251968503935
        },
        {
          "duration": 0.16853924999999492,
          "durationTicks": 96,
          "midi": 62,
          "name": "D4",
          "ticks": 54049,
          "time": 94.88935336718748,
          "velocity": 0.25984251968503935
        },
        {
          "duration": 0.33707850000000406,
          "durationTicks": 192,
          "midi": 55,
          "name": "G3",
          "ticks": 54145,
          "time": 95.05789261718748,
          "velocity": 0.25984251968503935
        },
        {
          "duration": 0.16853924999999492,
          "durationTicks": 96,
          "midi": 64,
          "name": "E4",
          "ticks": 54145,
          "time": 95.05789261718748,
          "velocity": 0.25984251968503935
        },
        {
          "duration": 0.33707850000000406,
          "durationTicks": 192,
          "midi": 60,
          "name": "C4",
          "ticks": 54337,
          "time": 95.39497111718748,
          "velocity": 0.25984251968503935
        },
        {
          "duration": 0.16853924999999492,
          "durationTicks": 96,
          "midi": 55,
          "name": "G3",
          "ticks": 54337,
          "time": 95.39497111718748,
          "velocity": 0.25984251968503935
        },
        {
          "duration": 0.16853924999999492,
          "durationTicks": 96,
          "midi": 43,
          "name": "G2",
          "ticks": 54529,
          "time": 95.73204961718749,
          "velocity": 0.25984251968503935
        },
        {
          "duration": 0.16853924999999492,
          "durationTicks": 96,
          "midi": 55,
          "name": "G3",
          "ticks": 54625,
          "time": 95.90058886718748,
          "velocity": 0.25984251968503935
        },
        {
          "duration": 0.16853925000000913,
          "durationTicks": 96,
          "midi": 62,
          "name": "D4",
          "ticks": 54721,
          "time": 96.06912811718747,
          "velocity": 0.25984251968503935
        },
        {
          "duration": 0.16853925000000913,
          "durationTicks": 96,
          "midi": 60,
          "name": "C4",
          "ticks": 54721,
          "time": 96.06912811718747,
          "velocity": 0.25984251968503935
        },
        {
          "duration": 0.16853924999999492,
          "durationTicks": 96,
          "midi": 62,
          "name": "D4",
          "ticks": 54817,
          "time": 96.23766736718748,
          "velocity": 0.25984251968503935
        },
        {
          "duration": 0.6741569999999939,
          "durationTicks": 384,
          "midi": 72,
          "name": "C5",
          "ticks": 54913,
          "time": 96.40620661718748,
          "velocity": 0.25984251968503935
        },
        {
          "duration": 0.16853924999999492,
          "durationTicks": 96,
          "midi": 64,
          "name": "E4",
          "ticks": 54913,
          "time": 96.40620661718748,
          "velocity": 0.25984251968503935
        },
        {
          "duration": 0.16853924999999492,
          "durationTicks": 96,
          "midi": 55,
          "name": "G3",
          "ticks": 55105,
          "time": 96.74328511718748,
          "velocity": 0.25984251968503935
        },
        {
          "duration": 0.16853925000000913,
          "durationTicks": 96,
          "midi": 48,
          "name": "C3",
          "ticks": 55297,
          "time": 97.08036361718747,
          "velocity": 0.25984251968503935
        },
        {
          "duration": 0,
          "durationTicks": 0,
          "midi": 76,
          "name": "E5",
          "ticks": 55297,
          "time": 97.08036361718747,
          "velocity": 0.25984251968503935
        },
        {
          "duration": 0.505617749999999,
          "durationTicks": 288,
          "midi": 77,
          "name": "F5",
          "ticks": 55333,
          "time": 97.14356583593748,
          "velocity": 0.25984251968503935
        },
        {
          "duration": 0.16853924999999492,
          "durationTicks": 96,
          "midi": 55,
          "name": "G3",
          "ticks": 55393,
          "time": 97.24890286718748,
          "velocity": 0.25984251968503935
        },
        {
          "duration": 0.16853924999999492,
          "durationTicks": 96,
          "midi": 60,
          "name": "C4",
          "ticks": 55489,
          "time": 97.41744211718748,
          "velocity": 0.25984251968503935
        },
        {
          "duration": 0.16853925000000913,
          "durationTicks": 96,
          "midi": 62,
          "name": "D4",
          "ticks": 55585,
          "time": 97.58598136718747,
          "velocity": 0.25984251968503935
        },
        {
          "duration": 0.33707850000000406,
          "durationTicks": 192,
          "midi": 76,
          "name": "E5",
          "ticks": 55681,
          "time": 97.75452061718748,
          "velocity": 0.25984251968503935
        },
        {
          "duration": 0.16853924999999492,
          "durationTicks": 96,
          "midi": 64,
          "name": "E4",
          "ticks": 55681,
          "time": 97.75452061718748,
          "velocity": 0.25984251968503935
        },
        {
          "duration": 0.33707850000000406,
          "durationTicks": 192,
          "midi": 55,
          "name": "G3",
          "ticks": 55681,
          "time": 97.75452061718748,
          "velocity": 0.25984251968503935
        },
        {
          "duration": 1.011235499999998,
          "durationTicks": 576,
          "midi": 74,
          "name": "D5",
          "ticks": 55873,
          "time": 98.09159911718749,
          "velocity": 0.25984251968503935
        },
        {
          "duration": 0.16853924999999492,
          "durationTicks": 96,
          "midi": 55,
          "name": "G3",
          "ticks": 55873,
          "time": 98.09159911718749,
          "velocity": 0.25984251968503935
        },
        {
          "duration": 0.33707849999998984,
          "durationTicks": 192,
          "midi": 60,
          "name": "C4",
          "ticks": 55873,
          "time": 98.09159911718749,
          "velocity": 0.25984251968503935
        },
        {
          "duration": 0.16853925000000913,
          "durationTicks": 96,
          "midi": 48,
          "name": "C3",
          "ticks": 56065,
          "time": 98.42867761718747,
          "velocity": 0.25984251968503935
        },
        {
          "duration": 0.16853924999999492,
          "durationTicks": 96,
          "midi": 55,
          "name": "G3",
          "ticks": 56161,
          "time": 98.59721686718748,
          "velocity": 0.25984251968503935
        },
        {
          "duration": 0.16853924999999492,
          "durationTicks": 96,
          "midi": 62,
          "name": "D4",
          "ticks": 56257,
          "time": 98.76575611718748,
          "velocity": 0.25984251968503935
        },
        {
          "duration": 0.16853924999999492,
          "durationTicks": 96,
          "midi": 60,
          "name": "C4",
          "ticks": 56257,
          "time": 98.76575611718748,
          "velocity": 0.25984251968503935
        },
        {
          "duration": 0.16853925000000913,
          "durationTicks": 96,
          "midi": 62,
          "name": "D4",
          "ticks": 56353,
          "time": 98.93429536718747,
          "velocity": 0.25984251968503935
        },
        {
          "duration": 0.16853924999999492,
          "durationTicks": 96,
          "midi": 62,
          "name": "D4",
          "ticks": 56449,
          "time": 99.10283461718748,
          "velocity": 0.25984251968503935
        },
        {
          "duration": 0.16853924999999492,
          "durationTicks": 96,
          "midi": 64,
          "name": "E4",
          "ticks": 56449,
          "time": 99.10283461718748,
          "velocity": 0.25984251968503935
        },
        {
          "duration": 0.16853924999999492,
          "durationTicks": 96,
          "midi": 64,
          "name": "E4",
          "ticks": 56545,
          "time": 99.27137386718748,
          "velocity": 0.25984251968503935
        },
        {
          "duration": 0.16853925000000913,
          "durationTicks": 96,
          "midi": 67,
          "name": "G4",
          "ticks": 56641,
          "time": 99.43991311718747,
          "velocity": 0.25984251968503935
        },
        {
          "duration": 0.16853925000000913,
          "durationTicks": 96,
          "midi": 55,
          "name": "G3",
          "ticks": 56641,
          "time": 99.43991311718747,
          "velocity": 0.25984251968503935
        },
        {
          "duration": 0.16853924999999492,
          "durationTicks": 96,
          "midi": 64,
          "name": "E4",
          "ticks": 56737,
          "time": 99.60845236718748,
          "velocity": 0.25984251968503935
        },
        {
          "duration": 1.853931750000001,
          "durationTicks": 1056,
          "midi": 72,
          "name": "C5",
          "ticks": 56833,
          "time": 99.77699161718748,
          "velocity": 0.25984251968503935
        },
        {
          "duration": 0.33707850000000406,
          "durationTicks": 192,
          "midi": 71,
          "name": "B4",
          "ticks": 56833,
          "time": 99.77699161718748,
          "velocity": 0.25984251968503935
        },
        {
          "duration": 0.16853924999999492,
          "durationTicks": 96,
          "midi": 45,
          "name": "A2",
          "ticks": 56833,
          "time": 99.77699161718748,
          "velocity": 0.25984251968503935
        },
        {
          "duration": 0.16853925000000913,
          "durationTicks": 96,
          "midi": 55,
          "name": "G3",
          "ticks": 56929,
          "time": 99.94553086718747,
          "velocity": 0.25984251968503935
        },
        {
          "duration": 0.33707850000000406,
          "durationTicks": 192,
          "midi": 71,
          "name": "B4",
          "ticks": 57025,
          "time": 100.11407011718748,
          "velocity": 0.25984251968503935
        },
        {
          "duration": 0.16853924999999492,
          "durationTicks": 96,
          "midi": 60,
          "name": "C4",
          "ticks": 57025,
          "time": 100.11407011718748,
          "velocity": 0.25984251968503935
        },
        {
          "duration": 0.16853925000000913,
          "durationTicks": 96,
          "midi": 62,
          "name": "D4",
          "ticks": 57121,
          "time": 100.28260936718748,
          "velocity": 0.25984251968503935
        },
        {
          "duration": 0.16853924999999492,
          "durationTicks": 96,
          "midi": 64,
          "name": "E4",
          "ticks": 57217,
          "time": 100.45114861718749,
          "velocity": 0.25984251968503935
        },
        {
          "duration": 0.33707849999998984,
          "durationTicks": 192,
          "midi": 55,
          "name": "G3",
          "ticks": 57217,
          "time": 100.45114861718749,
          "velocity": 0.25984251968503935
        },
        {
          "duration": 0.33707849999998984,
          "durationTicks": 192,
          "midi": 67,
          "name": "G4",
          "ticks": 57217,
          "time": 100.45114861718749,
          "velocity": 0.25984251968503935
        },
        {
          "duration": 0.16853925000000913,
          "durationTicks": 96,
          "midi": 55,
          "name": "G3",
          "ticks": 57409,
          "time": 100.78822711718747,
          "velocity": 0.25984251968503935
        },
        {
          "duration": 0.33707850000000406,
          "durationTicks": 192,
          "midi": 71,
          "name": "B4",
          "ticks": 57409,
          "time": 100.78822711718747,
          "velocity": 0.25984251968503935
        },
        {
          "duration": 0.33707850000000406,
          "durationTicks": 192,
          "midi": 60,
          "name": "C4",
          "ticks": 57409,
          "time": 100.78822711718747,
          "velocity": 0.25984251968503935
        },
        {
          "duration": 0.33707850000000406,
          "durationTicks": 192,
          "midi": 71,
          "name": "B4",
          "ticks": 57601,
          "time": 101.12530561718748,
          "velocity": 0.25984251968503935
        },
        {
          "duration": 0.16853924999999492,
          "durationTicks": 96,
          "midi": 45,
          "name": "A2",
          "ticks": 57601,
          "time": 101.12530561718748,
          "velocity": 0.25984251968503935
        },
        {
          "duration": 0.16853925000000913,
          "durationTicks": 96,
          "midi": 55,
          "name": "G3",
          "ticks": 57697,
          "time": 101.29384486718747,
          "velocity": 0.25984251968503935
        },
        {
          "duration": 0.33707849999998984,
          "durationTicks": 192,
          "midi": 67,
          "name": "G4",
          "ticks": 57793,
          "time": 101.46238411718748,
          "velocity": 0.25984251968503935
        },
        {
          "duration": 0.16853924999999492,
          "durationTicks": 96,
          "midi": 62,
          "name": "D4",
          "ticks": 57793,
          "time": 101.46238411718748,
          "velocity": 0.25984251968503935
        },
        {
          "duration": 0.16853924999999492,
          "durationTicks": 96,
          "midi": 60,
          "name": "C4",
          "ticks": 57793,
          "time": 101.46238411718748,
          "velocity": 0.25984251968503935
        },
        {
          "duration": 0.16853924999999492,
          "durationTicks": 96,
          "midi": 62,
          "name": "D4",
          "ticks": 57889,
          "time": 101.63092336718748,
          "velocity": 0.25984251968503935
        },
        {
          "duration": 0.16853925000000913,
          "durationTicks": 96,
          "midi": 64,
          "name": "E4",
          "ticks": 57985,
          "time": 101.79946261718747,
          "velocity": 0.25984251968503935
        },
        {
          "duration": 0.33707850000000406,
          "durationTicks": 192,
          "midi": 71,
          "name": "B4",
          "ticks": 57985,
          "time": 101.79946261718747,
          "velocity": 0.25984251968503935
        },
        {
          "duration": 0.505617749999999,
          "durationTicks": 288,
          "midi": 72,
          "name": "C5",
          "ticks": 58177,
          "time": 102.13654111718748,
          "velocity": 0.25984251968503935
        },
        {
          "duration": 0.33707850000000406,
          "durationTicks": 192,
          "midi": 71,
          "name": "B4",
          "ticks": 58177,
          "time": 102.13654111718748,
          "velocity": 0.25984251968503935
        },
        {
          "duration": 0.16853924999999492,
          "durationTicks": 96,
          "midi": 55,
          "name": "G3",
          "ticks": 58177,
          "time": 102.13654111718748,
          "velocity": 0.25984251968503935
        },
        {
          "duration": 0.16853924999999492,
          "durationTicks": 96,
          "midi": 41,
          "name": "F2",
          "ticks": 58369,
          "time": 102.47361961718748,
          "velocity": 0.25984251968503935
        },
        {
          "duration": 0.16853924999999492,
          "durationTicks": 96,
          "midi": 67,
          "name": "G4",
          "ticks": 58369,
          "time": 102.47361961718748,
          "velocity": 0.25984251968503935
        },
        {
          "duration": 0.16853924999999492,
          "durationTicks": 96,
          "midi": 55,
          "name": "G3",
          "ticks": 58465,
          "time": 102.64215886718748,
          "velocity": 0.25984251968503935
        },
        {
          "duration": 0.842696250000003,
          "durationTicks": 480,
          "midi": 74,
          "name": "D5",
          "ticks": 58465,
          "time": 102.64215886718748,
          "velocity": 0.25984251968503935
        },
        {
          "duration": 0.16853925000000913,
          "durationTicks": 96,
          "midi": 60,
          "name": "C4",
          "ticks": 58561,
          "time": 102.81069811718747,
          "velocity": 0.25984251968503935
        },
        {
          "duration": 0.16853924999999492,
          "durationTicks": 96,
          "midi": 62,
          "name": "D4",
          "ticks": 58657,
          "time": 102.97923736718748,
          "velocity": 0.25984251968503935
        },
        {
          "duration": 0.33707850000000406,
          "durationTicks": 192,
          "midi": 55,
          "name": "G3",
          "ticks": 58753,
          "time": 103.14777661718747,
          "velocity": 0.25984251968503935
        },
        {
          "duration": 0.16853925000000913,
          "durationTicks": 96,
          "midi": 64,
          "name": "E4",
          "ticks": 58753,
          "time": 103.14777661718747,
          "velocity": 0.25984251968503935
        },
        {
          "duration": 0.16853924999999492,
          "durationTicks": 96,
          "midi": 55,
          "name": "G3",
          "ticks": 58945,
          "time": 103.48485511718748,
          "velocity": 0.25984251968503935
        },
        {
          "duration": 0.33707850000000406,
          "durationTicks": 192,
          "midi": 60,
          "name": "C4",
          "ticks": 58945,
          "time": 103.48485511718748,
          "velocity": 0.25984251968503935
        },
        {
          "duration": 1.011235499999998,
          "durationTicks": 576,
          "midi": 72,
          "name": "C5",
          "ticks": 58945,
          "time": 103.48485511718748,
          "velocity": 0.25984251968503935
        },
        {
          "duration": 0.16853924999999492,
          "durationTicks": 96,
          "midi": 41,
          "name": "F2",
          "ticks": 59137,
          "time": 103.82193361718748,
          "velocity": 0.25984251968503935
        },
        {
          "duration": 0.16853924999999492,
          "durationTicks": 96,
          "midi": 55,
          "name": "G3",
          "ticks": 59233,
          "time": 103.99047286718748,
          "velocity": 0.25984251968503935
        },
        {
          "duration": 0.16853925000000913,
          "durationTicks": 96,
          "midi": 62,
          "name": "D4",
          "ticks": 59329,
          "time": 104.15901211718747,
          "velocity": 0.25984251968503935
        },
        {
          "duration": 0.16853925000000913,
          "durationTicks": 96,
          "midi": 60,
          "name": "C4",
          "ticks": 59329,
          "time": 104.15901211718747,
          "velocity": 0.25984251968503935
        },
        {
          "duration": 0.16853924999999492,
          "durationTicks": 96,
          "midi": 62,
          "name": "D4",
          "ticks": 59425,
          "time": 104.32755136718748,
          "velocity": 0.25984251968503935
        },
        {
          "duration": 0.33707850000000406,
          "durationTicks": 192,
          "midi": 71,
          "name": "B4",
          "ticks": 59521,
          "time": 104.49609061718748,
          "velocity": 0.25984251968503935
        },
        {
          "duration": 0.16853924999999492,
          "durationTicks": 96,
          "midi": 64,
          "name": "E4",
          "ticks": 59521,
          "time": 104.49609061718748,
          "velocity": 0.25984251968503935
        },
        {
          "duration": 0.16853924999999492,
          "durationTicks": 96,
          "midi": 55,
          "name": "G3",
          "ticks": 59713,
          "time": 104.83316911718748,
          "velocity": 0.25984251968503935
        },
        {
          "duration": 2.191010249999991,
          "durationTicks": 1248,
          "midi": 67,
          "name": "G4",
          "ticks": 59713,
          "time": 104.83316911718748,
          "velocity": 0.25984251968503935
        },
        {
          "duration": 0.16853925000000913,
          "durationTicks": 96,
          "midi": 43,
          "name": "G2",
          "ticks": 59905,
          "time": 105.17024761718747,
          "velocity": 0.25984251968503935
        },
        {
          "duration": 0.16853924999999492,
          "durationTicks": 96,
          "midi": 55,
          "name": "G3",
          "ticks": 60001,
          "time": 105.33878686718748,
          "velocity": 0.25984251968503935
        },
        {
          "duration": 0.16853925000000913,
          "durationTicks": 96,
          "midi": 60,
          "name": "C4",
          "ticks": 60097,
          "time": 105.50732611718747,
          "velocity": 0.25984251968503935
        },
        {
          "duration": 0.16853924999999492,
          "durationTicks": 96,
          "midi": 62,
          "name": "D4",
          "ticks": 60193,
          "time": 105.67586536718748,
          "velocity": 0.25984251968503935
        },
        {
          "duration": 0.33707850000000406,
          "durationTicks": 192,
          "midi": 55,
          "name": "G3",
          "ticks": 60289,
          "time": 105.84440461718748,
          "velocity": 0.25984251968503935
        },
        {
          "duration": 0.16853924999999492,
          "durationTicks": 96,
          "midi": 64,
          "name": "E4",
          "ticks": 60289,
          "time": 105.84440461718748,
          "velocity": 0.25984251968503935
        },
        {
          "duration": 0.33707849999998984,
          "durationTicks": 192,
          "midi": 60,
          "name": "C4",
          "ticks": 60481,
          "time": 106.18148311718748,
          "velocity": 0.25984251968503935
        },
        {
          "duration": 0.16853924999999492,
          "durationTicks": 96,
          "midi": 55,
          "name": "G3",
          "ticks": 60481,
          "time": 106.18148311718748,
          "velocity": 0.25984251968503935
        },
        {
          "duration": 0.16853924999999492,
          "durationTicks": 96,
          "midi": 62,
          "name": "D4",
          "ticks": 61057,
          "time": 107.19271861718748,
          "velocity": 0.25984251968503935
        },
        {
          "duration": 0.16853924999999492,
          "durationTicks": 96,
          "midi": 64,
          "name": "E4",
          "ticks": 61153,
          "time": 107.36125786718748,
          "velocity": 0.2677165354330709
        },
        {
          "duration": 0.16853925000000913,
          "durationTicks": 96,
          "midi": 67,
          "name": "G4",
          "ticks": 61249,
          "time": 107.52979711718747,
          "velocity": 0.2755905511811024
        },
        {
          "duration": 0.16853924999999492,
          "durationTicks": 96,
          "midi": 64,
          "name": "E4",
          "ticks": 61345,
          "time": 107.69833636718748,
          "velocity": 0.28346456692913385
        },
        {
          "duration": 0.16853925000000913,
          "durationTicks": 96,
          "midi": 57,
          "name": "A3",
          "ticks": 61441,
          "time": 107.86687561718747,
          "velocity": 0.29133858267716534
        },
        {
          "duration": 0.16853924999999492,
          "durationTicks": 96,
          "midi": 64,
          "name": "E4",
          "ticks": 61537,
          "time": 108.03541486718748,
          "velocity": 0.29133858267716534
        },
        {
          "duration": 0.16853924999999492,
          "durationTicks": 96,
          "midi": 62,
          "name": "D4",
          "ticks": 61633,
          "time": 108.20395411718748,
          "velocity": 0.28346456692913385
        },
        {
          "duration": 0.16853924999999492,
          "durationTicks": 96,
          "midi": 69,
          "name": "A4",
          "ticks": 61633,
          "time": 108.20395411718748,
          "velocity": 0.28346456692913385
        },
        {
          "duration": 0.16853925000000913,
          "durationTicks": 96,
          "midi": 71,
          "name": "B4",
          "ticks": 61729,
          "time": 108.37249336718747,
          "velocity": 0.28346456692913385
        },
        {
          "duration": 0.16853925000000913,
          "durationTicks": 96,
          "midi": 64,
          "name": "E4",
          "ticks": 61729,
          "time": 108.37249336718747,
          "velocity": 0.28346456692913385
        },
        {
          "duration": 0.16853924999999492,
          "durationTicks": 96,
          "midi": 67,
          "name": "G4",
          "ticks": 61825,
          "time": 108.54103261718748,
          "velocity": 0.2755905511811024
        },
        {
          "duration": 0.16853924999999492,
          "durationTicks": 96,
          "midi": 72,
          "name": "C5",
          "ticks": 61825,
          "time": 108.54103261718748,
          "velocity": 0.2755905511811024
        },
        {
          "duration": 0.16853924999999492,
          "durationTicks": 96,
          "midi": 64,
          "name": "E4",
          "ticks": 61921,
          "time": 108.70957186718748,
          "velocity": 0.2677165354330709
        },
        {
          "duration": 0.16853925000000913,
          "durationTicks": 96,
          "midi": 64,
          "name": "E4",
          "ticks": 62017,
          "time": 108.87811111718747,
          "velocity": 0.2677165354330709
        },
        {
          "duration": 0.16853924999999492,
          "durationTicks": 96,
          "midi": 62,
          "name": "D4",
          "ticks": 62209,
          "time": 109.21518961718748,
          "velocity": 0.25984251968503935
        },
        {
          "duration": 0.16853924999999492,
          "durationTicks": 96,
          "midi": 57,
          "name": "A3",
          "ticks": 62209,
          "time": 109.21518961718748,
          "velocity": 0.25984251968503935
        },
        {
          "duration": 0.16853925000000913,
          "durationTicks": 96,
          "midi": 64,
          "name": "E4",
          "ticks": 62305,
          "time": 109.38372886718747,
          "velocity": 0.25196850393700787
        },
        {
          "duration": 0.16853924999999492,
          "durationTicks": 96,
          "midi": 67,
          "name": "G4",
          "ticks": 62401,
          "time": 109.55226811718748,
          "velocity": 0.2440944881889764
        },
        {
          "duration": 0.16853924999999492,
          "durationTicks": 96,
          "midi": 69,
          "name": "A4",
          "ticks": 62401,
          "time": 109.55226811718748,
          "velocity": 0.2440944881889764
        },
        {
          "duration": 0.16853924999999492,
          "durationTicks": 96,
          "midi": 64,
          "name": "E4",
          "ticks": 62497,
          "time": 109.72080736718748,
          "velocity": 0.2440944881889764
        },
        {
          "duration": 0.16853924999999492,
          "durationTicks": 96,
          "midi": 71,
          "name": "B4",
          "ticks": 62497,
          "time": 109.72080736718748,
          "velocity": 0.2440944881889764
        },
        {
          "duration": 0.16853925000000913,
          "durationTicks": 96,
          "midi": 72,
          "name": "C5",
          "ticks": 62593,
          "time": 109.88934661718747,
          "velocity": 0.23622047244094488
        },
        {
          "duration": 0.16853924999999492,
          "durationTicks": 96,
          "midi": 64,
          "name": "E4",
          "ticks": 62785,
          "time": 110.22642511718747,
          "velocity": 0.2283464566929134
        },
        {
          "duration": 0.16853924999999492,
          "durationTicks": 96,
          "midi": 62,
          "name": "D4",
          "ticks": 62785,
          "time": 110.22642511718747,
          "velocity": 0.2283464566929134
        },
        {
          "duration": 0.16853925000000913,
          "durationTicks": 96,
          "midi": 64,
          "name": "E4",
          "ticks": 62881,
          "time": 110.39496436718747,
          "velocity": 0.2204724409448819
        },
        {
          "duration": 0.16853924999999492,
          "durationTicks": 96,
          "midi": 67,
          "name": "G4",
          "ticks": 62977,
          "time": 110.56350361718748,
          "velocity": 0.2204724409448819
        },
        {
          "duration": 0.16853924999999492,
          "durationTicks": 96,
          "midi": 53,
          "name": "F3",
          "ticks": 62977,
          "time": 110.56350361718748,
          "velocity": 0.2204724409448819
        },
        {
          "duration": 0.16853925000000913,
          "durationTicks": 96,
          "midi": 64,
          "name": "E4",
          "ticks": 63073,
          "time": 110.73204286718747,
          "velocity": 0.2204724409448819
        },
        {
          "duration": 0.16853924999999492,
          "durationTicks": 96,
          "midi": 69,
          "name": "A4",
          "ticks": 63169,
          "time": 110.90058211718748,
          "velocity": 0.2204724409448819
        },
        {
          "duration": 0.16853924999999492,
          "durationTicks": 96,
          "midi": 71,
          "name": "B4",
          "ticks": 63265,
          "time": 111.06912136718748,
          "velocity": 0.2204724409448819
        },
        {
          "duration": 0.16853925000000913,
          "durationTicks": 96,
          "midi": 62,
          "name": "D4",
          "ticks": 63361,
          "time": 111.23766061718747,
          "velocity": 0.2204724409448819
        },
        {
          "duration": 0.33707850000000406,
          "durationTicks": 192,
          "midi": 72,
          "name": "C5",
          "ticks": 63361,
          "time": 111.23766061718747,
          "velocity": 0.2204724409448819
        },
        {
          "duration": 0.16853924999999492,
          "durationTicks": 96,
          "midi": 64,
          "name": "E4",
          "ticks": 63457,
          "time": 111.40619986718748,
          "velocity": 0.2204724409448819
        },
        {
          "duration": 0.16853924999999492,
          "durationTicks": 96,
          "midi": 67,
          "name": "G4",
          "ticks": 63553,
          "time": 111.57473911718748,
          "velocity": 0.2204724409448819
        },
        {
          "duration": 0.16853924999999492,
          "durationTicks": 96,
          "midi": 64,
          "name": "E4",
          "ticks": 63553,
          "time": 111.57473911718748,
          "velocity": 0.2204724409448819
        },
        {
          "duration": 0.16853925000000913,
          "durationTicks": 96,
          "midi": 64,
          "name": "E4",
          "ticks": 63649,
          "time": 111.74327836718747,
          "velocity": 0.2204724409448819
        },
        {
          "duration": 0.16853924999999492,
          "durationTicks": 96,
          "midi": 53,
          "name": "F3",
          "ticks": 63745,
          "time": 111.91181761718748,
          "velocity": 0.2204724409448819
        },
        {
          "duration": 0.16853924999999492,
          "durationTicks": 96,
          "midi": 64,
          "name": "E4",
          "ticks": 63841,
          "time": 112.08035686718748,
          "velocity": 0.2204724409448819
        },
        {
          "duration": 0.16853925000000913,
          "durationTicks": 96,
          "midi": 69,
          "name": "A4",
          "ticks": 63937,
          "time": 112.24889611718747,
          "velocity": 0.2204724409448819
        },
        {
          "duration": 0.16853924999999492,
          "durationTicks": 96,
          "midi": 71,
          "name": "B4",
          "ticks": 64033,
          "time": 112.41743536718748,
          "velocity": 0.2204724409448819
        },
        {
          "duration": 0.33707850000000406,
          "durationTicks": 192,
          "midi": 72,
          "name": "C5",
          "ticks": 64129,
          "time": 112.58597461718747,
          "velocity": 0.2204724409448819
        },
        {
          "duration": 0.33707850000000406,
          "durationTicks": 192,
          "midi": 64,
          "name": "E4",
          "ticks": 64321,
          "time": 112.92305311718748,
          "velocity": 0.2204724409448819
        },
        {
          "duration": 0.16853924999999492,
          "durationTicks": 96,
          "midi": 55,
          "name": "G3",
          "ticks": 64513,
          "time": 113.26013161718748,
          "velocity": 0.2204724409448819
        },
        {
          "duration": 0.16853924999999492,
          "durationTicks": 96,
          "midi": 62,
          "name": "D4",
          "ticks": 64609,
          "time": 113.42867086718748,
          "velocity": 0.2204724409448819
        },
        {
          "duration": 0.16853925000000913,
          "durationTicks": 96,
          "midi": 67,
          "name": "G4",
          "ticks": 64705,
          "time": 113.59721011718747,
          "velocity": 0.2204724409448819
        },
        {
          "duration": 0.16853924999999492,
          "durationTicks": 96,
          "midi": 69,
          "name": "A4",
          "ticks": 64801,
          "time": 113.76574936718748,
          "velocity": 0.2204724409448819
        },
        {
          "duration": 0.33707850000000406,
          "durationTicks": 192,
          "midi": 71,
          "name": "B4",
          "ticks": 64897,
          "time": 113.93428861718748,
          "velocity": 0.2204724409448819
        },
        {
          "duration": 0.33707849999998984,
          "durationTicks": 192,
          "midi": 62,
          "name": "D4",
          "ticks": 65089,
          "time": 114.27136711718748,
          "velocity": 0.2204724409448819
        },
        {
          "duration": 0.16853925000000913,
          "durationTicks": 96,
          "midi": 55,
          "name": "G3",
          "ticks": 65281,
          "time": 114.60844561718747,
          "velocity": 0.2204724409448819
        },
        {
          "duration": 0.16853924999999492,
          "durationTicks": 96,
          "midi": 62,
          "name": "D4",
          "ticks": 65377,
          "time": 114.77698486718748,
          "velocity": 0.2204724409448819
        },
        {
          "duration": 0.16853924999999492,
          "durationTicks": 96,
          "midi": 67,
          "name": "G4",
          "ticks": 65473,
          "time": 114.94552411718747,
          "velocity": 0.2204724409448819
        },
        {
          "duration": 0.16853925000000913,
          "durationTicks": 96,
          "midi": 69,
          "name": "A4",
          "ticks": 65569,
          "time": 115.11406336718747,
          "velocity": 0.2204724409448819
        },
        {
          "duration": 0.33707849999998984,
          "durationTicks": 192,
          "midi": 71,
          "name": "B4",
          "ticks": 65665,
          "time": 115.28260261718748,
          "velocity": 0.2204724409448819
        },
        {
          "duration": 0.33707850000000406,
          "durationTicks": 192,
          "midi": 62,
          "name": "D4",
          "ticks": 65857,
          "time": 115.61968111718747,
          "velocity": 0.2204724409448819
        },
        {
          "duration": 0.16853925000000913,
          "durationTicks": 96,
          "midi": 56,
          "name": "G#3",
          "ticks": 66049,
          "time": 115.95675961718747,
          "velocity": 0.2204724409448819
        },
        {
          "duration": 0.16853924999999492,
          "durationTicks": 96,
          "midi": 64,
          "name": "E4",
          "ticks": 66145,
          "time": 116.12529886718748,
          "velocity": 0.2204724409448819
        },
        {
          "duration": 0.16853924999999492,
          "durationTicks": 96,
          "midi": 68,
          "name": "G#4",
          "ticks": 66241,
          "time": 116.29383811718748,
          "velocity": 0.2204724409448819
        },
        {
          "duration": 0.16853925000000913,
          "durationTicks": 96,
          "midi": 69,
          "name": "A4",
          "ticks": 66337,
          "time": 116.46237736718747,
          "velocity": 0.2283464566929134
        },
        {
          "duration": 0.33707849999998984,
          "durationTicks": 192,
          "midi": 71,
          "name": "B4",
          "ticks": 66433,
          "time": 116.63091661718748,
          "velocity": 0.2283464566929134
        },
        {
          "duration": 0.33707850000000406,
          "durationTicks": 192,
          "midi": 64,
          "name": "E4",
          "ticks": 66625,
          "time": 116.96799511718747,
          "velocity": 0.23622047244094488
        },
        {
          "duration": 0.16853924999999492,
          "durationTicks": 96,
          "midi": 56,
          "name": "G#3",
          "ticks": 66817,
          "time": 117.30507361718747,
          "velocity": 0.23622047244094488
        },
        {
          "duration": 0.16853925000000913,
          "durationTicks": 96,
          "midi": 64,
          "name": "E4",
          "ticks": 66913,
          "time": 117.47361286718747,
          "velocity": 0.23622047244094488
        },
        {
          "duration": 0.16853924999999492,
          "durationTicks": 96,
          "midi": 68,
          "name": "G#4",
          "ticks": 67009,
          "time": 117.64215211718748,
          "velocity": 0.2440944881889764
        },
        {
          "duration": 0.16853924999999492,
          "durationTicks": 96,
          "midi": 69,
          "name": "A4",
          "ticks": 67105,
          "time": 117.81069136718747,
          "velocity": 0.2440944881889764
        },
        {
          "duration": 0.33707850000000406,
          "durationTicks": 192,
          "midi": 71,
          "name": "B4",
          "ticks": 67201,
          "time": 117.97923061718747,
          "velocity": 0.2440944881889764
        },
        {
          "duration": 0.33707850000000406,
          "durationTicks": 192,
          "midi": 64,
          "name": "E4",
          "ticks": 67393,
          "time": 118.31630911718747,
          "velocity": 0.25196850393700787
        },
        {
          "duration": 0.16853924999999492,
          "durationTicks": 96,
          "midi": 57,
          "name": "A3",
          "ticks": 67585,
          "time": 118.65338761718748,
          "velocity": 0.25984251968503935
        },
        {
          "duration": 0.33707850000000406,
          "durationTicks": 192,
          "midi": 45,
          "name": "A2",
          "ticks": 67585,
          "time": 118.65338761718748,
          "velocity": 0.25984251968503935
        },
        {
          "duration": 0.16853925000000913,
          "durationTicks": 96,
          "midi": 64,
          "name": "E4",
          "ticks": 67681,
          "time": 118.82192686718747,
          "velocity": 0.25984251968503935
        },
        {
          "duration": 0.16853924999999492,
          "durationTicks": 96,
          "midi": 69,
          "name": "A4",
          "ticks": 67777,
          "time": 118.99046611718748,
          "velocity": 0.25984251968503935
        },
        {
          "duration": 0.16853924999999492,
          "durationTicks": 96,
          "midi": 72,
          "name": "C5",
          "ticks": 67777,
          "time": 118.99046611718748,
          "velocity": 0.25984251968503935
        },
        {
          "duration": 0.16853924999999492,
          "durationTicks": 96,
          "midi": 74,
          "name": "D5",
          "ticks": 67873,
          "time": 119.15900536718748,
          "velocity": 0.25984251968503935
        },
        {
          "duration": 0.16853924999999492,
          "durationTicks": 96,
          "midi": 71,
          "name": "B4",
          "ticks": 67873,
          "time": 119.15900536718748,
          "velocity": 0.25984251968503935
        },
        {
          "duration": 0.33707850000000406,
          "durationTicks": 192,
          "midi": 72,
          "name": "C5",
          "ticks": 67969,
          "time": 119.32754461718747,
          "velocity": 0.25984251968503935
        },
        {
          "duration": 0.33707850000000406,
          "durationTicks": 192,
          "midi": 76,
          "name": "E5",
          "ticks": 67969,
          "time": 119.32754461718747,
          "velocity": 0.25984251968503935
        },
        {
          "duration": 0.33707850000000406,
          "durationTicks": 192,
          "midi": 40,
          "name": "E2",
          "ticks": 68161,
          "time": 119.66462311718747,
          "velocity": 0.25984251968503935
        },
        {
          "duration": 0.33707850000000406,
          "durationTicks": 192,
          "midi": 64,
          "name": "E4",
          "ticks": 68161,
          "time": 119.66462311718747,
          "velocity": 0.25984251968503935
        },
        {
          "duration": 0.33707849999998984,
          "durationTicks": 192,
          "midi": 45,
          "name": "A2",
          "ticks": 68353,
          "time": 120.00170161718748,
          "velocity": 0.25984251968503935
        },
        {
          "duration": 0.16853924999999492,
          "durationTicks": 96,
          "midi": 57,
          "name": "A3",
          "ticks": 68353,
          "time": 120.00170161718748,
          "velocity": 0.25984251968503935
        },
        {
          "duration": 0.16853924999999492,
          "durationTicks": 96,
          "midi": 64,
          "name": "E4",
          "ticks": 68449,
          "time": 120.17024086718747,
          "velocity": 0.25984251968503935
        },
        {
          "duration": 0.16853925000000913,
          "durationTicks": 96,
          "midi": 69,
          "name": "A4",
          "ticks": 68545,
          "time": 120.33878011718747,
          "velocity": 0.25984251968503935
        },
        {
          "duration": 0.16853925000000913,
          "durationTicks": 96,
          "midi": 72,
          "name": "C5",
          "ticks": 68545,
          "time": 120.33878011718747,
          "velocity": 0.25984251968503935
        },
        {
          "duration": 0.16853924999999492,
          "durationTicks": 96,
          "midi": 71,
          "name": "B4",
          "ticks": 68641,
          "time": 120.50731936718748,
          "velocity": 0.25984251968503935
        },
        {
          "duration": 0.16853924999999492,
          "durationTicks": 96,
          "midi": 74,
          "name": "D5",
          "ticks": 68641,
          "time": 120.50731936718748,
          "velocity": 0.25984251968503935
        },
        {
          "duration": 0.33707850000000406,
          "durationTicks": 192,
          "midi": 76,
          "name": "E5",
          "ticks": 68737,
          "time": 120.67585861718747,
          "velocity": 0.25984251968503935
        },
        {
          "duration": 0.33707850000000406,
          "durationTicks": 192,
          "midi": 72,
          "name": "C5",
          "ticks": 68737,
          "time": 120.67585861718747,
          "velocity": 0.25984251968503935
        },
        {
          "duration": 0.33707850000000406,
          "durationTicks": 192,
          "midi": 64,
          "name": "E4",
          "ticks": 68929,
          "time": 121.01293711718748,
          "velocity": 0.25984251968503935
        },
        {
          "duration": 0.16853924999999492,
          "durationTicks": 96,
          "midi": 53,
          "name": "F3",
          "ticks": 69121,
          "time": 121.35001561718748,
          "velocity": 0.25984251968503935
        },
        {
          "duration": 0.33707849999998984,
          "durationTicks": 192,
          "midi": 41,
          "name": "F2",
          "ticks": 69121,
          "time": 121.35001561718748,
          "velocity": 0.25984251968503935
        },
        {
          "duration": 0.16853924999999492,
          "durationTicks": 96,
          "midi": 64,
          "name": "E4",
          "ticks": 69217,
          "time": 121.51855486718748,
          "velocity": 0.25984251968503935
        },
        {
          "duration": 0.16853925000000913,
          "durationTicks": 96,
          "midi": 72,
          "name": "C5",
          "ticks": 69313,
          "time": 121.68709411718747,
          "velocity": 0.25984251968503935
        },
        {
          "duration": 0.16853925000000913,
          "durationTicks": 96,
          "midi": 69,
          "name": "A4",
          "ticks": 69313,
          "time": 121.68709411718747,
          "velocity": 0.25984251968503935
        },
        {
          "duration": 0.16853924999999492,
          "durationTicks": 96,
          "midi": 74,
          "name": "D5",
          "ticks": 69409,
          "time": 121.85563336718748,
          "velocity": 0.25984251968503935
        },
        {
          "duration": 0.16853924999999492,
          "durationTicks": 96,
          "midi": 71,
          "name": "B4",
          "ticks": 69409,
          "time": 121.85563336718748,
          "velocity": 0.25984251968503935
        },
        {
          "duration": 0.33707850000000406,
          "durationTicks": 192,
          "midi": 76,
          "name": "E5",
          "ticks": 69505,
          "time": 122.02417261718747,
          "velocity": 0.25984251968503935
        },
        {
          "duration": 0.33707850000000406,
          "durationTicks": 192,
          "midi": 72,
          "name": "C5",
          "ticks": 69505,
          "time": 122.02417261718747,
          "velocity": 0.25984251968503935
        },
        {
          "duration": 0.33707849999998984,
          "durationTicks": 192,
          "midi": 64,
          "name": "E4",
          "ticks": 69697,
          "time": 122.36125111718748,
          "velocity": 0.25984251968503935
        },
        {
          "duration": 0.33707849999998984,
          "durationTicks": 192,
          "midi": 36,
          "name": "C2",
          "ticks": 69697,
          "time": 122.36125111718748,
          "velocity": 0.25984251968503935
        },
        {
          "duration": 0.16853925000000913,
          "durationTicks": 96,
          "midi": 53,
          "name": "F3",
          "ticks": 69889,
          "time": 122.69832961718747,
          "velocity": 0.25984251968503935
        },
        {
          "duration": 0.33707850000000406,
          "durationTicks": 192,
          "midi": 41,
          "name": "F2",
          "ticks": 69889,
          "time": 122.69832961718747,
          "velocity": 0.25984251968503935
        },
        {
          "duration": 0.16853924999999492,
          "durationTicks": 96,
          "midi": 64,
          "name": "E4",
          "ticks": 69985,
          "time": 122.86686886718748,
          "velocity": 0.25984251968503935
        },
        {
          "duration": 0.16853924999999492,
          "durationTicks": 96,
          "midi": 69,
          "name": "A4",
          "ticks": 70081,
          "time": 123.03540811718747,
          "velocity": 0.25984251968503935
        },
        {
          "duration": 0.16853924999999492,
          "durationTicks": 96,
          "midi": 72,
          "name": "C5",
          "ticks": 70081,
          "time": 123.03540811718747,
          "velocity": 0.25984251968503935
        },
        {
          "duration": 0.16853925000000913,
          "durationTicks": 96,
          "midi": 71,
          "name": "B4",
          "ticks": 70177,
          "time": 123.20394736718747,
          "velocity": 0.25984251968503935
        },
        {
          "duration": 0.16853925000000913,
          "durationTicks": 96,
          "midi": 74,
          "name": "D5",
          "ticks": 70177,
          "time": 123.20394736718747,
          "velocity": 0.25984251968503935
        },
        {
          "duration": 0.33707850000000406,
          "durationTicks": 192,
          "midi": 76,
          "name": "E5",
          "ticks": 70273,
          "time": 123.37248661718748,
          "velocity": 0.25984251968503935
        },
        {
          "duration": 0.33707850000000406,
          "durationTicks": 192,
          "midi": 72,
          "name": "C5",
          "ticks": 70273,
          "time": 123.37248661718748,
          "velocity": 0.25984251968503935
        },
        {
          "duration": 0.33707849999998984,
          "durationTicks": 192,
          "midi": 64,
          "name": "E4",
          "ticks": 70465,
          "time": 123.70956511718748,
          "velocity": 0.25984251968503935
        },
        {
          "duration": 0.33707850000000406,
          "durationTicks": 192,
          "midi": 43,
          "name": "G2",
          "ticks": 70657,
          "time": 124.04664361718747,
          "velocity": 0.25984251968503935
        },
        {
          "duration": 0.16853925000000913,
          "durationTicks": 96,
          "midi": 55,
          "name": "G3",
          "ticks": 70657,
          "time": 124.04664361718747,
          "velocity": 0.25984251968503935
        },
        {
          "duration": 0.16853924999999492,
          "durationTicks": 96,
          "midi": 62,
          "name": "D4",
          "ticks": 70753,
          "time": 124.21518286718748,
          "velocity": 0.25984251968503935
        },
        {
          "duration": 0.16853924999999492,
          "durationTicks": 96,
          "midi": 67,
          "name": "G4",
          "ticks": 70849,
          "time": 124.38372211718747,
          "velocity": 0.25984251968503935
        },
        {
          "duration": 0.16853924999999492,
          "durationTicks": 96,
          "midi": 71,
          "name": "B4",
          "ticks": 70849,
          "time": 124.38372211718747,
          "velocity": 0.25984251968503935
        },
        {
          "duration": 0.16853925000000913,
          "durationTicks": 96,
          "midi": 69,
          "name": "A4",
          "ticks": 70945,
          "time": 124.55226136718747,
          "velocity": 0.25984251968503935
        },
        {
          "duration": 0.16853925000000913,
          "durationTicks": 96,
          "midi": 72,
          "name": "C5",
          "ticks": 70945,
          "time": 124.55226136718747,
          "velocity": 0.25984251968503935
        },
        {
          "duration": 0.33707849999998984,
          "durationTicks": 192,
          "midi": 74,
          "name": "D5",
          "ticks": 71041,
          "time": 124.72080061718748,
          "velocity": 0.25984251968503935
        },
        {
          "duration": 0.33707849999998984,
          "durationTicks": 192,
          "midi": 71,
          "name": "B4",
          "ticks": 71041,
          "time": 124.72080061718748,
          "velocity": 0.25984251968503935
        },
        {
          "duration": 0.33707850000000406,
          "durationTicks": 192,
          "midi": 38,
          "name": "D2",
          "ticks": 71233,
          "time": 125.05787911718747,
          "velocity": 0.25984251968503935
        },
        {
          "duration": 0.33707850000000406,
          "durationTicks": 192,
          "midi": 62,
          "name": "D4",
          "ticks": 71233,
          "time": 125.05787911718747,
          "velocity": 0.25984251968503935
        },
        {
          "duration": 0.33707850000000406,
          "durationTicks": 192,
          "midi": 43,
          "name": "G2",
          "ticks": 71425,
          "time": 125.39495761718747,
          "velocity": 0.25984251968503935
        },
        {
          "duration": 0.16853924999999492,
          "durationTicks": 96,
          "midi": 55,
          "name": "G3",
          "ticks": 71425,
          "time": 125.39495761718747,
          "velocity": 0.25984251968503935
        },
        {
          "duration": 0.16853925000000913,
          "durationTicks": 96,
          "midi": 62,
          "name": "D4",
          "ticks": 71521,
          "time": 125.56349686718747,
          "velocity": 0.25984251968503935
        },
        {
          "duration": 0.16853924999999492,
          "durationTicks": 96,
          "midi": 67,
          "name": "G4",
          "ticks": 71617,
          "time": 125.73203611718748,
          "velocity": 0.25984251968503935
        },
        {
          "duration": 0.16853924999999492,
          "durationTicks": 96,
          "midi": 71,
          "name": "B4",
          "ticks": 71617,
          "time": 125.73203611718748,
          "velocity": 0.25984251968503935
        },
        {
          "duration": 0.16853925000000913,
          "durationTicks": 96,
          "midi": 69,
          "name": "A4",
          "ticks": 71713,
          "time": 125.90057536718747,
          "velocity": 0.25984251968503935
        },
        {
          "duration": 0.16853925000000913,
          "durationTicks": 96,
          "midi": 72,
          "name": "C5",
          "ticks": 71713,
          "time": 125.90057536718747,
          "velocity": 0.25984251968503935
        },
        {
          "duration": 0.33707849999998984,
          "durationTicks": 192,
          "midi": 74,
          "name": "D5",
          "ticks": 71809,
          "time": 126.06911461718748,
          "velocity": 0.25984251968503935
        },
        {
          "duration": 0.33707849999998984,
          "durationTicks": 192,
          "midi": 71,
          "name": "B4",
          "ticks": 71809,
          "time": 126.06911461718748,
          "velocity": 0.25984251968503935
        },
        {
          "duration": 0.33707850000000406,
          "durationTicks": 192,
          "midi": 62,
          "name": "D4",
          "ticks": 72001,
          "time": 126.40619311718747,
          "velocity": 0.25984251968503935
        },
        {
          "duration": 0.33707850000000406,
          "durationTicks": 192,
          "midi": 40,
          "name": "E2",
          "ticks": 72193,
          "time": 126.74327161718747,
          "velocity": 0.25984251968503935
        },
        {
          "duration": 0.16853924999999492,
          "durationTicks": 96,
          "midi": 56,
          "name": "G#3",
          "ticks": 72193,
          "time": 126.74327161718747,
          "velocity": 0.25984251968503935
        },
        {
          "duration": 0.16853925000000913,
          "durationTicks": 96,
          "midi": 64,
          "name": "E4",
          "ticks": 72289,
          "time": 126.91181086718747,
          "velocity": 0.25984251968503935
        },
        {
          "duration": 0.16853924999999492,
          "durationTicks": 96,
          "midi": 68,
          "name": "G#4",
          "ticks": 72385,
          "time": 127.08035011718748,
          "velocity": 0.25984251968503935
        },
        {
          "duration": 0.16853924999999492,
          "durationTicks": 96,
          "midi": 74,
          "name": "D5",
          "ticks": 72385,
          "time": 127.08035011718748,
          "velocity": 0.25984251968503935
        },
        {
          "duration": 0.16853924999999492,
          "durationTicks": 96,
          "midi": 69,
          "name": "A4",
          "ticks": 72481,
          "time": 127.24888936718747,
          "velocity": 0.25984251968503935
        },
        {
          "duration": 0.16853924999999492,
          "durationTicks": 96,
          "midi": 76,
          "name": "E5",
          "ticks": 72481,
          "time": 127.24888936718747,
          "velocity": 0.25984251968503935
        },
        {
          "duration": 0.33707850000000406,
          "durationTicks": 192,
          "midi": 77,
          "name": "F5",
          "ticks": 72577,
          "time": 127.41742861718747,
          "velocity": 0.2677165354330709
        },
        {
          "duration": 0.33707850000000406,
          "durationTicks": 192,
          "midi": 71,
          "name": "B4",
          "ticks": 72577,
          "time": 127.41742861718747,
          "velocity": 0.2677165354330709
        },
        {
          "duration": 0.33707849999998984,
          "durationTicks": 192,
          "midi": 35,
          "name": "B1",
          "ticks": 72769,
          "time": 127.75450711718747,
          "velocity": 0.2677165354330709
        },
        {
          "duration": 0.33707849999998984,
          "durationTicks": 192,
          "midi": 64,
          "name": "E4",
          "ticks": 72769,
          "time": 127.75450711718747,
          "velocity": 0.2677165354330709
        },
        {
          "duration": 0.33707849999998984,
          "durationTicks": 192,
          "midi": 71,
          "name": "B4",
          "ticks": 72769,
          "time": 127.75450711718747,
          "velocity": 0.2677165354330709
        },
        {
          "duration": 0.33707850000001827,
          "durationTicks": 192,
          "midi": 40,
          "name": "E2",
          "ticks": 72961,
          "time": 128.09158561718746,
          "velocity": 0.2755905511811024
        },
        {
          "duration": 0.16853925000000913,
          "durationTicks": 96,
          "midi": 56,
          "name": "G#3",
          "ticks": 72961,
          "time": 128.09158561718746,
          "velocity": 0.2755905511811024
        },
        {
          "duration": 0.16853925000000913,
          "durationTicks": 96,
          "midi": 68,
          "name": "G#4",
          "ticks": 73057,
          "time": 128.26012486718747,
          "velocity": 0.2755905511811024
        },
        {
          "duration": 0.16853925000000913,
          "durationTicks": 96,
          "midi": 64,
          "name": "E4",
          "ticks": 73057,
          "time": 128.26012486718747,
          "velocity": 0.2755905511811024
        },
        {
          "duration": 0.1685392499999807,
          "durationTicks": 96,
          "midi": 66,
          "name": "F#4",
          "ticks": 73153,
          "time": 128.42866411718748,
          "velocity": 0.28346456692913385
        },
        {
          "duration": 0.1685392499999807,
          "durationTicks": 96,
          "midi": 69,
          "name": "A4",
          "ticks": 73153,
          "time": 128.42866411718748,
          "velocity": 0.28346456692913385
        },
        {
          "duration": 0.16853925000000913,
          "durationTicks": 96,
          "midi": 71,
          "name": "B4",
          "ticks": 73249,
          "time": 128.59720336718746,
          "velocity": 0.28346456692913385
        },
        {
          "duration": 0.16853925000000913,
          "durationTicks": 96,
          "midi": 68,
          "name": "G#4",
          "ticks": 73249,
          "time": 128.59720336718746,
          "velocity": 0.28346456692913385
        },
        {
          "duration": 0.16853925000000913,
          "durationTicks": 96,
          "midi": 40,
          "name": "E2",
          "ticks": 73345,
          "time": 128.76574261718747,
          "velocity": 0.28346456692913385
        },
        {
          "duration": 0.33707849999998984,
          "durationTicks": 192,
          "midi": 69,
          "name": "A4",
          "ticks": 73345,
          "time": 128.76574261718747,
          "velocity": 0.28346456692913385
        },
        {
          "duration": 0.33707849999998984,
          "durationTicks": 192,
          "midi": 72,
          "name": "C5",
          "ticks": 73345,
          "time": 128.76574261718747,
          "velocity": 0.28346456692913385
        },
        {
          "duration": 0.1685392499999807,
          "durationTicks": 96,
          "midi": 40,
          "name": "E2",
          "ticks": 73441,
          "time": 128.93428186718748,
          "velocity": 0.28346456692913385
        },
        {
          "duration": 0.33707850000001827,
          "durationTicks": 192,
          "midi": 64,
          "name": "E4",
          "ticks": 73537,
          "time": 129.10282111718746,
          "velocity": 0.29133858267716534
        },
        {
          "duration": 0.33707850000001827,
          "durationTicks": 192,
          "midi": 68,
          "name": "G#4",
          "ticks": 73537,
          "time": 129.10282111718746,
          "velocity": 0.29133858267716534
        },
        {
          "duration": 0.16853925000000913,
          "durationTicks": 96,
          "midi": 40,
          "name": "E2",
          "ticks": 73537,
          "time": 129.10282111718746,
          "velocity": 0.29133858267716534
        },
        {
          "duration": 0.16853925000000913,
          "durationTicks": 96,
          "midi": 40,
          "name": "E2",
          "ticks": 73633,
          "time": 129.27136036718747,
          "velocity": 0.29133858267716534
        },
        {
          "duration": 0.33707849999998984,
          "durationTicks": 192,
          "midi": 45,
          "name": "A2",
          "ticks": 73729,
          "time": 129.43989961718748,
          "velocity": 0.29133858267716534
        },
        {
          "duration": 1.011235499999998,
          "durationTicks": 576,
          "midi": 57,
          "name": "A3",
          "ticks": 73729,
          "time": 129.43989961718748,
          "velocity": 0.29133858267716534
        },
        {
          "duration": 0.1685392499999807,
          "durationTicks": 96,
          "midi": 64,
          "name": "E4",
          "ticks": 73825,
          "time": 129.6084388671875,
          "velocity": 0.29133858267716534
        },
        {
          "duration": 0.16853925000000913,
          "durationTicks": 96,
          "midi": 69,
          "name": "A4",
          "ticks": 73921,
          "time": 129.77697811718747,
          "velocity": 0.29133858267716534
        },
        {
          "duration": 0.16853925000000913,
          "durationTicks": 96,
          "midi": 72,
          "name": "C5",
          "ticks": 73921,
          "time": 129.77697811718747,
          "velocity": 0.29133858267716534
        },
        {
          "duration": 0.16853925000000913,
          "durationTicks": 96,
          "midi": 74,
          "name": "D5",
          "ticks": 74017,
          "time": 129.94551736718748,
          "velocity": 0.29133858267716534
        },
        {
          "duration": 0.16853925000000913,
          "durationTicks": 96,
          "midi": 71,
          "name": "B4",
          "ticks": 74017,
          "time": 129.94551736718748,
          "velocity": 0.29133858267716534
        },
        {
          "duration": 0.33707849999998984,
          "durationTicks": 192,
          "midi": 76,
          "name": "E5",
          "ticks": 74113,
          "time": 130.1140566171875,
          "velocity": 0.29133858267716534
        },
        {
          "duration": 0.33707849999998984,
          "durationTicks": 192,
          "midi": 72,
          "name": "C5",
          "ticks": 74113,
          "time": 130.1140566171875,
          "velocity": 0.29133858267716534
        },
        {
          "duration": 0.33707849999998984,
          "durationTicks": 192,
          "midi": 64,
          "name": "E4",
          "ticks": 74305,
          "time": 130.45113511718748,
          "velocity": 0.29133858267716534
        },
        {
          "duration": 0.33707849999998984,
          "durationTicks": 192,
          "midi": 40,
          "name": "E2",
          "ticks": 74305,
          "time": 130.45113511718748,
          "velocity": 0.29133858267716534
        },
        {
          "duration": 0.33707850000001827,
          "durationTicks": 192,
          "midi": 45,
          "name": "A2",
          "ticks": 74497,
          "time": 130.78821361718747,
          "velocity": 0.29133858267716534
        },
        {
          "duration": 0.16853925000000913,
          "durationTicks": 96,
          "midi": 64,
          "name": "E4",
          "ticks": 74593,
          "time": 130.95675286718748,
          "velocity": 0.29133858267716534
        },
        {
          "duration": 0.1685392499999807,
          "durationTicks": 96,
          "midi": 72,
          "name": "C5",
          "ticks": 74689,
          "time": 131.12529211718748,
          "velocity": 0.29133858267716534
        },
        {
          "duration": 0.1685392499999807,
          "durationTicks": 96,
          "midi": 69,
          "name": "A4",
          "ticks": 74689,
          "time": 131.12529211718748,
          "velocity": 0.29133858267716534
        },
        {
          "duration": 0.16853925000000913,
          "durationTicks": 96,
          "midi": 71,
          "name": "B4",
          "ticks": 74785,
          "time": 131.29383136718747,
          "velocity": 0.29133858267716534
        },
        {
          "duration": 0.16853925000000913,
          "durationTicks": 96,
          "midi": 74,
          "name": "D5",
          "ticks": 74785,
          "time": 131.29383136718747,
          "velocity": 0.29133858267716534
        },
        {
          "duration": 0.33707849999998984,
          "durationTicks": 192,
          "midi": 76,
          "name": "E5",
          "ticks": 74881,
          "time": 131.46237061718747,
          "velocity": 0.29133858267716534
        },
        {
          "duration": 0.33707849999998984,
          "durationTicks": 192,
          "midi": 72,
          "name": "C5",
          "ticks": 74881,
          "time": 131.46237061718747,
          "velocity": 0.29133858267716534
        },
        {
          "duration": 0.33707850000001827,
          "durationTicks": 192,
          "midi": 64,
          "name": "E4",
          "ticks": 75073,
          "time": 131.79944911718746,
          "velocity": 0.29133858267716534
        },
        {
          "duration": 0.33707849999998984,
          "durationTicks": 192,
          "midi": 41,
          "name": "F2",
          "ticks": 75265,
          "time": 132.13652761718748,
          "velocity": 0.29133858267716534
        },
        {
          "duration": 1.011235499999998,
          "durationTicks": 576,
          "midi": 53,
          "name": "F3",
          "ticks": 75265,
          "time": 132.13652761718748,
          "velocity": 0.29133858267716534
        },
        {
          "duration": 0.16853925000000913,
          "durationTicks": 96,
          "midi": 64,
          "name": "E4",
          "ticks": 75361,
          "time": 132.30506686718746,
          "velocity": 0.29133858267716534
        },
        {
          "duration": 0.16853925000000913,
          "durationTicks": 96,
          "midi": 72,
          "name": "C5",
          "ticks": 75457,
          "time": 132.47360611718747,
          "velocity": 0.29133858267716534
        },
        {
          "duration": 0.16853925000000913,
          "durationTicks": 96,
          "midi": 69,
          "name": "A4",
          "ticks": 75457,
          "time": 132.47360611718747,
          "velocity": 0.29133858267716534
        },
        {
          "duration": 0.1685392499999807,
          "durationTicks": 96,
          "midi": 71,
          "name": "B4",
          "ticks": 75553,
          "time": 132.64214536718748,
          "velocity": 0.29133858267716534
        },
        {
          "duration": 0.1685392499999807,
          "durationTicks": 96,
          "midi": 74,
          "name": "D5",
          "ticks": 75553,
          "time": 132.64214536718748,
          "velocity": 0.29133858267716534
        },
        {
          "duration": 0.33707850000001827,
          "durationTicks": 192,
          "midi": 76,
          "name": "E5",
          "ticks": 75649,
          "time": 132.81068461718746,
          "velocity": 0.29133858267716534
        },
        {
          "duration": 0.33707850000001827,
          "durationTicks": 192,
          "midi": 72,
          "name": "C5",
          "ticks": 75649,
          "time": 132.81068461718746,
          "velocity": 0.29133858267716534
        },
        {
          "duration": 0.33707849999998984,
          "durationTicks": 192,
          "midi": 36,
          "name": "C2",
          "ticks": 75841,
          "time": 133.14776311718748,
          "velocity": 0.29133858267716534
        },
        {
          "duration": 0.33707849999998984,
          "durationTicks": 192,
          "midi": 64,
          "name": "E4",
          "ticks": 75841,
          "time": 133.14776311718748,
          "velocity": 0.29133858267716534
        },
        {
          "duration": 0.33707849999998984,
          "durationTicks": 192,
          "midi": 41,
          "name": "F2",
          "ticks": 76033,
          "time": 133.48484161718747,
          "velocity": 0.29133858267716534
        },
        {
          "duration": 1.3483140000000162,
          "durationTicks": 768,
          "midi": 48,
          "name": "C3",
          "ticks": 76033,
          "time": 133.48484161718747,
          "velocity": 0.29133858267716534
        },
        {
          "duration": 0.1685392499999807,
          "durationTicks": 96,
          "midi": 64,
          "name": "E4",
          "ticks": 76129,
          "time": 133.65338086718748,
          "velocity": 0.29133858267716534
        },
        {
          "duration": 0.16853925000000913,
          "durationTicks": 96,
          "midi": 72,
          "name": "C5",
          "ticks": 76225,
          "time": 133.82192011718746,
          "velocity": 0.29133858267716534
        },
        {
          "duration": 0.16853925000000913,
          "durationTicks": 96,
          "midi": 69,
          "name": "A4",
          "ticks": 76225,
          "time": 133.82192011718746,
          "velocity": 0.29133858267716534
        },
        {
          "duration": 0.16853925000000913,
          "durationTicks": 96,
          "midi": 71,
          "name": "B4",
          "ticks": 76321,
          "time": 133.99045936718747,
          "velocity": 0.29133858267716534
        },
        {
          "duration": 0.16853925000000913,
          "durationTicks": 96,
          "midi": 74,
          "name": "D5",
          "ticks": 76321,
          "time": 133.99045936718747,
          "velocity": 0.29133858267716534
        },
        {
          "duration": 0.33707849999998984,
          "durationTicks": 192,
          "midi": 72,
          "name": "C5",
          "ticks": 76417,
          "time": 134.15899861718748,
          "velocity": 0.29133858267716534
        },
        {
          "duration": 0.33707849999998984,
          "durationTicks": 192,
          "midi": 76,
          "name": "E5",
          "ticks": 76417,
          "time": 134.15899861718748,
          "velocity": 0.29133858267716534
        },
        {
          "duration": 0.33707850000001827,
          "durationTicks": 192,
          "midi": 64,
          "name": "E4",
          "ticks": 76609,
          "time": 134.49607711718747,
          "velocity": 0.29133858267716534
        },
        {
          "duration": 0.33707849999998984,
          "durationTicks": 192,
          "midi": 43,
          "name": "G2",
          "ticks": 76801,
          "time": 134.8331556171875,
          "velocity": 0.29133858267716534
        },
        {
          "duration": 1.011235499999998,
          "durationTicks": 576,
          "midi": 59,
          "name": "B3",
          "ticks": 76801,
          "time": 134.8331556171875,
          "velocity": 0.29133858267716534
        },
        {
          "duration": 0.16853925000000913,
          "durationTicks": 96,
          "midi": 62,
          "name": "D4",
          "ticks": 76897,
          "time": 135.00169486718747,
          "velocity": 0.29133858267716534
        },
        {
          "duration": 0.16853925000000913,
          "durationTicks": 96,
          "midi": 71,
          "name": "B4",
          "ticks": 76993,
          "time": 135.17023411718748,
          "velocity": 0.29133858267716534
        },
        {
          "duration": 0.16853925000000913,
          "durationTicks": 96,
          "midi": 67,
          "name": "G4",
          "ticks": 76993,
          "time": 135.17023411718748,
          "velocity": 0.29133858267716534
        },
        {
          "duration": 0.1685392499999807,
          "durationTicks": 96,
          "midi": 69,
          "name": "A4",
          "ticks": 77089,
          "time": 135.33877336718749,
          "velocity": 0.29133858267716534
        },
        {
          "duration": 0.1685392499999807,
          "durationTicks": 96,
          "midi": 72,
          "name": "C5",
          "ticks": 77089,
          "time": 135.33877336718749,
          "velocity": 0.29133858267716534
        },
        {
          "duration": 0.33707850000001827,
          "durationTicks": 192,
          "midi": 74,
          "name": "D5",
          "ticks": 77185,
          "time": 135.50731261718747,
          "velocity": 0.29133858267716534
        },
        {
          "duration": 0.33707850000001827,
          "durationTicks": 192,
          "midi": 71,
          "name": "B4",
          "ticks": 77185,
          "time": 135.50731261718747,
          "velocity": 0.29133858267716534
        },
        {
          "duration": 0.33707849999998984,
          "durationTicks": 192,
          "midi": 38,
          "name": "D2",
          "ticks": 77377,
          "time": 135.84439111718748,
          "velocity": 0.29133858267716534
        },
        {
          "duration": 0.33707849999998984,
          "durationTicks": 192,
          "midi": 62,
          "name": "D4",
          "ticks": 77377,
          "time": 135.84439111718748,
          "velocity": 0.29133858267716534
        },
        {
          "duration": 0.33707849999998984,
          "durationTicks": 192,
          "midi": 43,
          "name": "G2",
          "ticks": 77569,
          "time": 136.18146961718747,
          "velocity": 0.29133858267716534
        },
        {
          "duration": 0.1685392499999807,
          "durationTicks": 96,
          "midi": 62,
          "name": "D4",
          "ticks": 77665,
          "time": 136.35000886718748,
          "velocity": 0.29133858267716534
        },
        {
          "duration": 0.16853925000000913,
          "durationTicks": 96,
          "midi": 67,
          "name": "G4",
          "ticks": 77761,
          "time": 136.51854811718746,
          "velocity": 0.29133858267716534
        },
        {
          "duration": 0.16853925000000913,
          "durationTicks": 96,
          "midi": 71,
          "name": "B4",
          "ticks": 77761,
          "time": 136.51854811718746,
          "velocity": 0.29133858267716534
        },
        {
          "duration": 0.16853925000000913,
          "durationTicks": 96,
          "midi": 72,
          "name": "C5",
          "ticks": 77857,
          "time": 136.68708736718747,
          "velocity": 0.29133858267716534
        },
        {
          "duration": 0.16853925000000913,
          "durationTicks": 96,
          "midi": 69,
          "name": "A4",
          "ticks": 77857,
          "time": 136.68708736718747,
          "velocity": 0.29133858267716534
        },
        {
          "duration": 0.33707849999998984,
          "durationTicks": 192,
          "midi": 71,
          "name": "B4",
          "ticks": 77953,
          "time": 136.85562661718748,
          "velocity": 0.29133858267716534
        },
        {
          "duration": 0.33707849999998984,
          "durationTicks": 192,
          "midi": 74,
          "name": "D5",
          "ticks": 77953,
          "time": 136.85562661718748,
          "velocity": 0.29133858267716534
        },
        {
          "duration": 0.33707849999998984,
          "durationTicks": 192,
          "midi": 62,
          "name": "D4",
          "ticks": 78145,
          "time": 137.19270511718747,
          "velocity": 0.29133858267716534
        },
        {
          "duration": 0.33707850000001827,
          "durationTicks": 192,
          "midi": 40,
          "name": "E2",
          "ticks": 78337,
          "time": 137.52978361718746,
          "velocity": 0.29133858267716534
        },
        {
          "duration": 0.16853925000000913,
          "durationTicks": 96,
          "midi": 68,
          "name": "G#4",
          "ticks": 78337,
          "time": 137.52978361718746,
          "velocity": 0.29133858267716534
        },
        {
          "duration": 2.5280887500000233,
          "durationTicks": 1440,
          "midi": 62,
          "name": "D4",
          "ticks": 78337,
          "time": 137.52978361718746,
          "velocity": 0.29133858267716534
        },
        {
          "duration": 0.16853925000000913,
          "durationTicks": 96,
          "midi": 64,
          "name": "E4",
          "ticks": 78433,
          "time": 137.69832286718747,
          "velocity": 0.29133858267716534
        },
        {
          "duration": 0.1685392499999807,
          "durationTicks": 96,
          "midi": 68,
          "name": "G#4",
          "ticks": 78529,
          "time": 137.86686211718748,
          "velocity": 0.29133858267716534
        },
        {
          "duration": 0.1685392499999807,
          "durationTicks": 96,
          "midi": 74,
          "name": "D5",
          "ticks": 78529,
          "time": 137.86686211718748,
          "velocity": 0.29133858267716534
        },
        {
          "duration": 0.16853925000000913,
          "durationTicks": 96,
          "midi": 69,
          "name": "A4",
          "ticks": 78625,
          "time": 138.03540136718746,
          "velocity": 0.29133858267716534
        },
        {
          "duration": 0.16853925000000913,
          "durationTicks": 96,
          "midi": 76,
          "name": "E5",
          "ticks": 78625,
          "time": 138.03540136718746,
          "velocity": 0.29133858267716534
        },
        {
          "duration": 0.33707849999998984,
          "durationTicks": 192,
          "midi": 71,
          "name": "B4",
          "ticks": 78721,
          "time": 138.20394061718747,
          "velocity": 0.29133858267716534
        },
        {
          "duration": 0.33707849999998984,
          "durationTicks": 192,
          "midi": 77,
          "name": "F5",
          "ticks": 78721,
          "time": 138.20394061718747,
          "velocity": 0.29133858267716534
        },
        {
          "duration": 0.33707850000001827,
          "durationTicks": 192,
          "midi": 64,
          "name": "E4",
          "ticks": 78913,
          "time": 138.54101911718746,
          "velocity": 0.29133858267716534
        },
        {
          "duration": 0.33707850000001827,
          "durationTicks": 192,
          "midi": 71,
          "name": "B4",
          "ticks": 78913,
          "time": 138.54101911718746,
          "velocity": 0.29133858267716534
        },
        {
          "duration": 0.33707850000001827,
          "durationTicks": 192,
          "midi": 35,
          "name": "B1",
          "ticks": 78913,
          "time": 138.54101911718746,
          "velocity": 0.29133858267716534
        },
        {
          "duration": 0.1685392499999807,
          "durationTicks": 96,
          "midi": 68,
          "name": "G#4",
          "ticks": 79105,
          "time": 138.87809761718748,
          "velocity": 0.29133858267716534
        },
        {
          "duration": 0.33707849999998984,
          "durationTicks": 192,
          "midi": 40,
          "name": "E2",
          "ticks": 79105,
          "time": 138.87809761718748,
          "velocity": 0.29133858267716534
        },
        {
          "duration": 0.16853925000000913,
          "durationTicks": 96,
          "midi": 68,
          "name": "G#4",
          "ticks": 79201,
          "time": 139.04663686718746,
          "velocity": 0.29133858267716534
        },
        {
          "duration": 0.16853925000000913,
          "durationTicks": 96,
          "midi": 64,
          "name": "E4",
          "ticks": 79201,
          "time": 139.04663686718746,
          "velocity": 0.29133858267716534
        },
        {
          "duration": 0.16853925000000913,
          "durationTicks": 96,
          "midi": 66,
          "name": "F#4",
          "ticks": 79297,
          "time": 139.21517611718747,
          "velocity": 0.29133858267716534
        },
        {
          "duration": 0.16853925000000913,
          "durationTicks": 96,
          "midi": 69,
          "name": "A4",
          "ticks": 79297,
          "time": 139.21517611718747,
          "velocity": 0.29133858267716534
        },
        {
          "duration": 0.1685392499999807,
          "durationTicks": 96,
          "midi": 71,
          "name": "B4",
          "ticks": 79393,
          "time": 139.38371536718748,
          "velocity": 0.29133858267716534
        },
        {
          "duration": 0.1685392499999807,
          "durationTicks": 96,
          "midi": 68,
          "name": "G#4",
          "ticks": 79393,
          "time": 139.38371536718748,
          "velocity": 0.29133858267716534
        },
        {
          "duration": 0.33707850000001827,
          "durationTicks": 192,
          "midi": 69,
          "name": "A4",
          "ticks": 79489,
          "time": 139.55225461718746,
          "velocity": 0.29133858267716534
        },
        {
          "duration": 0.33707850000001827,
          "durationTicks": 192,
          "midi": 72,
          "name": "C5",
          "ticks": 79489,
          "time": 139.55225461718746,
          "velocity": 0.29133858267716534
        },
        {
          "duration": 0.16853925000000913,
          "durationTicks": 96,
          "midi": 40,
          "name": "E2",
          "ticks": 79489,
          "time": 139.55225461718746,
          "velocity": 0.29133858267716534
        },
        {
          "duration": 0.16853925000000913,
          "durationTicks": 96,
          "midi": 40,
          "name": "E2",
          "ticks": 79585,
          "time": 139.72079386718747,
          "velocity": 0.29133858267716534
        },
        {
          "duration": 0.16853925000000913,
          "durationTicks": 96,
          "midi": 40,
          "name": "E2",
          "ticks": 79681,
          "time": 139.88933311718748,
          "velocity": 0.29133858267716534
        },
        {
          "duration": 0.33707849999998984,
          "durationTicks": 192,
          "midi": 64,
          "name": "E4",
          "ticks": 79681,
          "time": 139.88933311718748,
          "velocity": 0.29133858267716534
        },
        {
          "duration": 0.33707849999998984,
          "durationTicks": 192,
          "midi": 68,
          "name": "G#4",
          "ticks": 79681,
          "time": 139.88933311718748,
          "velocity": 0.29133858267716534
        },
        {
          "duration": 0.1685392499999807,
          "durationTicks": 96,
          "midi": 40,
          "name": "E2",
          "ticks": 79777,
          "time": 140.05787236718749,
          "velocity": 0.29133858267716534
        },
        {
          "duration": 1.011235499999998,
          "durationTicks": 576,
          "midi": 57,
          "name": "A3",
          "ticks": 79873,
          "time": 140.22641161718747,
          "velocity": 0.29133858267716534
        },
        {
          "duration": 0.33707850000001827,
          "durationTicks": 192,
          "midi": 45,
          "name": "A2",
          "ticks": 79873,
          "time": 140.22641161718747,
          "velocity": 0.29133858267716534
        },
        {
          "duration": 0.16853925000000913,
          "durationTicks": 96,
          "midi": 64,
          "name": "E4",
          "ticks": 79969,
          "time": 140.39495086718748,
          "velocity": 0.29133858267716534
        },
        {
          "duration": 0.1685392499999807,
          "durationTicks": 96,
          "midi": 69,
          "name": "A4",
          "ticks": 80065,
          "time": 140.56349011718748,
          "velocity": 0.29133858267716534
        },
        {
          "duration": 0.1685392499999807,
          "durationTicks": 96,
          "midi": 72,
          "name": "C5",
          "ticks": 80065,
          "time": 140.56349011718748,
          "velocity": 0.29133858267716534
        },
        {
          "duration": 0.16853925000000913,
          "durationTicks": 96,
          "midi": 74,
          "name": "D5",
          "ticks": 80161,
          "time": 140.73202936718747,
          "velocity": 0.29133858267716534
        },
        {
          "duration": 0.16853925000000913,
          "durationTicks": 96,
          "midi": 71,
          "name": "B4",
          "ticks": 80161,
          "time": 140.73202936718747,
          "velocity": 0.29133858267716534
        },
        {
          "duration": 0.33707849999998984,
          "durationTicks": 192,
          "midi": 76,
          "name": "E5",
          "ticks": 80257,
          "time": 140.90056861718747,
          "velocity": 0.29133858267716534
        },
        {
          "duration": 0.33707849999998984,
          "durationTicks": 192,
          "midi": 72,
          "name": "C5",
          "ticks": 80257,
          "time": 140.90056861718747,
          "velocity": 0.29133858267716534
        },
        {
          "duration": 0.33707850000001827,
          "durationTicks": 192,
          "midi": 64,
          "name": "E4",
          "ticks": 80449,
          "time": 141.23764711718746,
          "velocity": 0.29133858267716534
        },
        {
          "duration": 0.33707850000001827,
          "durationTicks": 192,
          "midi": 40,
          "name": "E2",
          "ticks": 80449,
          "time": 141.23764711718746,
          "velocity": 0.29133858267716534
        },
        {
          "duration": 0.33707849999998984,
          "durationTicks": 192,
          "midi": 45,
          "name": "A2",
          "ticks": 80641,
          "time": 141.57472561718748,
          "velocity": 0.29133858267716534
        },
        {
          "duration": 0.16853925000000913,
          "durationTicks": 96,
          "midi": 64,
          "name": "E4",
          "ticks": 80737,
          "time": 141.74326486718746,
          "velocity": 0.29133858267716534
        },
        {
          "duration": 0.16853925000000913,
          "durationTicks": 96,
          "midi": 72,
          "name": "C5",
          "ticks": 80833,
          "time": 141.91180411718747,
          "velocity": 0.29133858267716534
        },
        {
          "duration": 0.16853925000000913,
          "durationTicks": 96,
          "midi": 69,
          "name": "A4",
          "ticks": 80833,
          "time": 141.91180411718747,
          "velocity": 0.29133858267716534
        },
        {
          "duration": 0.1685392499999807,
          "durationTicks": 96,
          "midi": 74,
          "name": "D5",
          "ticks": 80929,
          "time": 142.08034336718748,
          "velocity": 0.29133858267716534
        },
        {
          "duration": 0.1685392499999807,
          "durationTicks": 96,
          "midi": 71,
          "name": "B4",
          "ticks": 80929,
          "time": 142.08034336718748,
          "velocity": 0.29133858267716534
        },
        {
          "duration": 0.33707850000001827,
          "durationTicks": 192,
          "midi": 72,
          "name": "C5",
          "ticks": 81025,
          "time": 142.24888261718746,
          "velocity": 0.29133858267716534
        },
        {
          "duration": 0.33707850000001827,
          "durationTicks": 192,
          "midi": 76,
          "name": "E5",
          "ticks": 81025,
          "time": 142.24888261718746,
          "velocity": 0.29133858267716534
        },
        {
          "duration": 0.33707849999998984,
          "durationTicks": 192,
          "midi": 64,
          "name": "E4",
          "ticks": 81217,
          "time": 142.58596111718748,
          "velocity": 0.29133858267716534
        },
        {
          "duration": 1.011235499999998,
          "durationTicks": 576,
          "midi": 53,
          "name": "F3",
          "ticks": 81409,
          "time": 142.92303961718747,
          "velocity": 0.29133858267716534
        },
        {
          "duration": 0.33707849999998984,
          "durationTicks": 192,
          "midi": 41,
          "name": "F2",
          "ticks": 81409,
          "time": 142.92303961718747,
          "velocity": 0.29133858267716534
        },
        {
          "duration": 0.1685392499999807,
          "durationTicks": 96,
          "midi": 64,
          "name": "E4",
          "ticks": 81505,
          "time": 143.09157886718748,
          "velocity": 0.29133858267716534
        },
        {
          "duration": 0.16853925000000913,
          "durationTicks": 96,
          "midi": 69,
          "name": "A4",
          "ticks": 81601,
          "time": 143.26011811718746,
          "velocity": 0.29133858267716534
        },
        {
          "duration": 0.16853925000000913,
          "durationTicks": 96,
          "midi": 72,
          "name": "C5",
          "ticks": 81601,
          "time": 143.26011811718746,
          "velocity": 0.29133858267716534
        },
        {
          "duration": 0.16853925000000913,
          "durationTicks": 96,
          "midi": 71,
          "name": "B4",
          "ticks": 81697,
          "time": 143.42865736718747,
          "velocity": 0.29133858267716534
        },
        {
          "duration": 0.16853925000000913,
          "durationTicks": 96,
          "midi": 74,
          "name": "D5",
          "ticks": 81697,
          "time": 143.42865736718747,
          "velocity": 0.29133858267716534
        },
        {
          "duration": 0.33707849999998984,
          "durationTicks": 192,
          "midi": 76,
          "name": "E5",
          "ticks": 81793,
          "time": 143.59719661718748,
          "velocity": 0.29133858267716534
        },
        {
          "duration": 0.33707849999998984,
          "durationTicks": 192,
          "midi": 72,
          "name": "C5",
          "ticks": 81793,
          "time": 143.59719661718748,
          "velocity": 0.29133858267716534
        },
        {
          "duration": 0.33707849999998984,
          "durationTicks": 192,
          "midi": 36,
          "name": "C2",
          "ticks": 81985,
          "time": 143.93427511718747,
          "velocity": 0.29133858267716534
        },
        {
          "duration": 0.33707849999998984,
          "durationTicks": 192,
          "midi": 64,
          "name": "E4",
          "ticks": 81985,
          "time": 143.93427511718747,
          "velocity": 0.29133858267716534
        },
        {
          "duration": 1.3483140000000162,
          "durationTicks": 768,
          "midi": 48,
          "name": "C3",
          "ticks": 82177,
          "time": 144.27135361718746,
          "velocity": 0.29133858267716534
        },
        {
          "duration": 0.33707850000001827,
          "durationTicks": 192,
          "midi": 41,
          "name": "F2",
          "ticks": 82177,
          "time": 144.27135361718746,
          "velocity": 0.29133858267716534
        },
        {
          "duration": 0.16853925000000913,
          "durationTicks": 96,
          "midi": 64,
          "name": "E4",
          "ticks": 82273,
          "time": 144.43989286718747,
          "velocity": 0.29133858267716534
        },
        {
          "duration": 0.1685392499999807,
          "durationTicks": 96,
          "midi": 69,
          "name": "A4",
          "ticks": 82369,
          "time": 144.60843211718748,
          "velocity": 0.29133858267716534
        },
        {
          "duration": 0.1685392499999807,
          "durationTicks": 96,
          "midi": 72,
          "name": "C5",
          "ticks": 82369,
          "time": 144.60843211718748,
          "velocity": 0.29133858267716534
        },
        {
          "duration": 0.16853925000000913,
          "durationTicks": 96,
          "midi": 74,
          "name": "D5",
          "ticks": 82465,
          "time": 144.77697136718746,
          "velocity": 0.29133858267716534
        },
        {
          "duration": 0.16853925000000913,
          "durationTicks": 96,
          "midi": 71,
          "name": "B4",
          "ticks": 82465,
          "time": 144.77697136718746,
          "velocity": 0.29133858267716534
        },
        {
          "duration": 0.33707850000001827,
          "durationTicks": 192,
          "midi": 72,
          "name": "C5",
          "ticks": 82561,
          "time": 144.94551061718747,
          "velocity": 0.29133858267716534
        },
        {
          "duration": 0.33707850000001827,
          "durationTicks": 192,
          "midi": 76,
          "name": "E5",
          "ticks": 82561,
          "time": 144.94551061718747,
          "velocity": 0.29133858267716534
        },
        {
          "duration": 0.33707849999998984,
          "durationTicks": 192,
          "midi": 64,
          "name": "E4",
          "ticks": 82753,
          "time": 145.28258911718748,
          "velocity": 0.29133858267716534
        },
        {
          "duration": 0.33707849999998984,
          "durationTicks": 192,
          "midi": 43,
          "name": "G2",
          "ticks": 82945,
          "time": 145.61966761718747,
          "velocity": 0.29133858267716534
        },
        {
          "duration": 1.011235499999998,
          "durationTicks": 576,
          "midi": 59,
          "name": "B3",
          "ticks": 82945,
          "time": 145.61966761718747,
          "velocity": 0.29133858267716534
        },
        {
          "duration": 0.1685392499999807,
          "durationTicks": 96,
          "midi": 62,
          "name": "D4",
          "ticks": 83041,
          "time": 145.78820686718748,
          "velocity": 0.29133858267716534
        },
        {
          "duration": 0.16853925000000913,
          "durationTicks": 96,
          "midi": 67,
          "name": "G4",
          "ticks": 83137,
          "time": 145.95674611718746,
          "velocity": 0.29133858267716534
        },
        {
          "duration": 0.16853925000000913,
          "durationTicks": 96,
          "midi": 71,
          "name": "B4",
          "ticks": 83137,
          "time": 145.95674611718746,
          "velocity": 0.29133858267716534
        },
        {
          "duration": 0.16853925000000913,
          "durationTicks": 96,
          "midi": 72,
          "name": "C5",
          "ticks": 83233,
          "time": 146.12528536718747,
          "velocity": 0.29133858267716534
        },
        {
          "duration": 0.16853925000000913,
          "durationTicks": 96,
          "midi": 69,
          "name": "A4",
          "ticks": 83233,
          "time": 146.12528536718747,
          "velocity": 0.29133858267716534
        },
        {
          "duration": 0.33707849999998984,
          "durationTicks": 192,
          "midi": 71,
          "name": "B4",
          "ticks": 83329,
          "time": 146.29382461718748,
          "velocity": 0.29133858267716534
        },
        {
          "duration": 0.33707849999998984,
          "durationTicks": 192,
          "midi": 74,
          "name": "D5",
          "ticks": 83329,
          "time": 146.29382461718748,
          "velocity": 0.29133858267716534
        },
        {
          "duration": 0.33707849999998984,
          "durationTicks": 192,
          "midi": 62,
          "name": "D4",
          "ticks": 83521,
          "time": 146.63090311718747,
          "velocity": 0.29133858267716534
        },
        {
          "duration": 0.33707849999998984,
          "durationTicks": 192,
          "midi": 38,
          "name": "D2",
          "ticks": 83521,
          "time": 146.63090311718747,
          "velocity": 0.29133858267716534
        },
        {
          "duration": 0.33707850000001827,
          "durationTicks": 192,
          "midi": 43,
          "name": "G2",
          "ticks": 83713,
          "time": 146.96798161718746,
          "velocity": 0.29133858267716534
        },
        {
          "duration": 0.16853925000000913,
          "durationTicks": 96,
          "midi": 62,
          "name": "D4",
          "ticks": 83809,
          "time": 147.13652086718747,
          "velocity": 0.29133858267716534
        },
        {
          "duration": 0.1685392499999807,
          "durationTicks": 96,
          "midi": 67,
          "name": "G4",
          "ticks": 83905,
          "time": 147.30506011718748,
          "velocity": 0.29133858267716534
        },
        {
          "duration": 0.1685392499999807,
          "durationTicks": 96,
          "midi": 71,
          "name": "B4",
          "ticks": 83905,
          "time": 147.30506011718748,
          "velocity": 0.29133858267716534
        },
        {
          "duration": 0.16853925000000913,
          "durationTicks": 96,
          "midi": 69,
          "name": "A4",
          "ticks": 84001,
          "time": 147.47359936718746,
          "velocity": 0.29133858267716534
        },
        {
          "duration": 0.16853925000000913,
          "durationTicks": 96,
          "midi": 72,
          "name": "C5",
          "ticks": 84001,
          "time": 147.47359936718746,
          "velocity": 0.29133858267716534
        },
        {
          "duration": 0.33707849999998984,
          "durationTicks": 192,
          "midi": 74,
          "name": "D5",
          "ticks": 84097,
          "time": 147.64213861718747,
          "velocity": 0.29133858267716534
        },
        {
          "duration": 0.33707849999998984,
          "durationTicks": 192,
          "midi": 71,
          "name": "B4",
          "ticks": 84097,
          "time": 147.64213861718747,
          "velocity": 0.29133858267716534
        },
        {
          "duration": 0.33707850000001827,
          "durationTicks": 192,
          "midi": 62,
          "name": "D4",
          "ticks": 84289,
          "time": 147.97921711718746,
          "velocity": 0.29133858267716534
        },
        {
          "duration": 2.528088749999995,
          "durationTicks": 1440,
          "midi": 62,
          "name": "D4",
          "ticks": 84481,
          "time": 148.31629561718748,
          "velocity": 0.29133858267716534
        },
        {
          "duration": 0.1685392499999807,
          "durationTicks": 96,
          "midi": 68,
          "name": "G#4",
          "ticks": 84481,
          "time": 148.31629561718748,
          "velocity": 0.29133858267716534
        },
        {
          "duration": 0.33707849999998984,
          "durationTicks": 192,
          "midi": 40,
          "name": "E2",
          "ticks": 84481,
          "time": 148.31629561718748,
          "velocity": 0.29133858267716534
        },
        {
          "duration": 0.16853925000000913,
          "durationTicks": 96,
          "midi": 64,
          "name": "E4",
          "ticks": 84577,
          "time": 148.48483486718746,
          "velocity": 0.29133858267716534
        },
        {
          "duration": 0.16853925000000913,
          "durationTicks": 96,
          "midi": 74,
          "name": "D5",
          "ticks": 84673,
          "time": 148.65337411718747,
          "velocity": 0.29133858267716534
        },
        {
          "duration": 0.16853925000000913,
          "durationTicks": 96,
          "midi": 68,
          "name": "G#4",
          "ticks": 84673,
          "time": 148.65337411718747,
          "velocity": 0.29133858267716534
        },
        {
          "duration": 0.1685392499999807,
          "durationTicks": 96,
          "midi": 76,
          "name": "E5",
          "ticks": 84769,
          "time": 148.82191336718748,
          "velocity": 0.29133858267716534
        },
        {
          "duration": 0.1685392499999807,
          "durationTicks": 96,
          "midi": 69,
          "name": "A4",
          "ticks": 84769,
          "time": 148.82191336718748,
          "velocity": 0.29133858267716534
        },
        {
          "duration": 0.33707850000001827,
          "durationTicks": 192,
          "midi": 77,
          "name": "F5",
          "ticks": 84865,
          "time": 148.99045261718746,
          "velocity": 0.29133858267716534
        },
        {
          "duration": 0.33707850000001827,
          "durationTicks": 192,
          "midi": 71,
          "name": "B4",
          "ticks": 84865,
          "time": 148.99045261718746,
          "velocity": 0.29133858267716534
        },
        {
          "duration": 0.33707849999998984,
          "durationTicks": 192,
          "midi": 35,
          "name": "B1",
          "ticks": 85057,
          "time": 149.32753111718748,
          "velocity": 0.29133858267716534
        },
        {
          "duration": 0.33707849999998984,
          "durationTicks": 192,
          "midi": 64,
          "name": "E4",
          "ticks": 85057,
          "time": 149.32753111718748,
          "velocity": 0.29133858267716534
        },
        {
          "duration": 0.33707849999998984,
          "durationTicks": 192,
          "midi": 71,
          "name": "B4",
          "ticks": 85057,
          "time": 149.32753111718748,
          "velocity": 0.29133858267716534
        },
        {
          "duration": 0.16853925000000913,
          "durationTicks": 96,
          "midi": 68,
          "name": "G#4",
          "ticks": 85249,
          "time": 149.66460961718747,
          "velocity": 0.29133858267716534
        },
        {
          "duration": 0.33707850000001827,
          "durationTicks": 192,
          "midi": 40,
          "name": "E2",
          "ticks": 85249,
          "time": 149.66460961718747,
          "velocity": 0.29133858267716534
        },
        {
          "duration": 0.16853925000000913,
          "durationTicks": 96,
          "midi": 68,
          "name": "G#4",
          "ticks": 85345,
          "time": 149.83314886718748,
          "velocity": 0.29133858267716534
        },
        {
          "duration": 0.16853925000000913,
          "durationTicks": 96,
          "midi": 64,
          "name": "E4",
          "ticks": 85345,
          "time": 149.83314886718748,
          "velocity": 0.29133858267716534
        },
        {
          "duration": 0.1685392499999807,
          "durationTicks": 96,
          "midi": 66,
          "name": "F#4",
          "ticks": 85441,
          "time": 150.00168811718748,
          "velocity": 0.29133858267716534
        },
        {
          "duration": 0.1685392499999807,
          "durationTicks": 96,
          "midi": 69,
          "name": "A4",
          "ticks": 85441,
          "time": 150.00168811718748,
          "velocity": 0.29133858267716534
        },
        {
          "duration": 0.16853925000000913,
          "durationTicks": 96,
          "midi": 71,
          "name": "B4",
          "ticks": 85537,
          "time": 150.17022736718747,
          "velocity": 0.29133858267716534
        },
        {
          "duration": 0.16853925000000913,
          "durationTicks": 96,
          "midi": 68,
          "name": "G#4",
          "ticks": 85537,
          "time": 150.17022736718747,
          "velocity": 0.29133858267716534
        },
        {
          "duration": 0.33707849999998984,
          "durationTicks": 192,
          "midi": 72,
          "name": "C5",
          "ticks": 85633,
          "time": 150.33876661718747,
          "velocity": 0.29133858267716534
        },
        {
          "duration": 0.16853925000000913,
          "durationTicks": 96,
          "midi": 40,
          "name": "E2",
          "ticks": 85633,
          "time": 150.33876661718747,
          "velocity": 0.29133858267716534
        },
        {
          "duration": 0.33707849999998984,
          "durationTicks": 192,
          "midi": 69,
          "name": "A4",
          "ticks": 85633,
          "time": 150.33876661718747,
          "velocity": 0.29133858267716534
        },
        {
          "duration": 0.1685392499999807,
          "durationTicks": 96,
          "midi": 40,
          "name": "E2",
          "ticks": 85729,
          "time": 150.50730586718748,
          "velocity": 0.29133858267716534
        },
        {
          "duration": 0.16853925000000913,
          "durationTicks": 96,
          "midi": 40,
          "name": "E2",
          "ticks": 85825,
          "time": 150.67584511718746,
          "velocity": 0.29133858267716534
        },
        {
          "duration": 0.33707850000001827,
          "durationTicks": 192,
          "midi": 64,
          "name": "E4",
          "ticks": 85825,
          "time": 150.67584511718746,
          "velocity": 0.29133858267716534
        },
        {
          "duration": 0.33707850000001827,
          "durationTicks": 192,
          "midi": 68,
          "name": "G#4",
          "ticks": 85825,
          "time": 150.67584511718746,
          "velocity": 0.29133858267716534
        },
        {
          "duration": 0.16853925000000913,
          "durationTicks": 96,
          "midi": 40,
          "name": "E2",
          "ticks": 85921,
          "time": 150.84438436718747,
          "velocity": 0.29133858267716534
        },
        {
          "duration": 1.011235499999998,
          "durationTicks": 576,
          "midi": 57,
          "name": "A3",
          "ticks": 86017,
          "time": 151.01292361718748,
          "velocity": 0.29133858267716534
        },
        {
          "duration": 0.33707849999998984,
          "durationTicks": 192,
          "midi": 45,
          "name": "A2",
          "ticks": 86017,
          "time": 151.01292361718748,
          "velocity": 0.29133858267716534
        },
        {
          "duration": 0.16853925000000913,
          "durationTicks": 96,
          "midi": 64,
          "name": "E4",
          "ticks": 86113,
          "time": 151.18146286718746,
          "velocity": 0.29133858267716534
        },
        {
          "duration": 0.16853925000000913,
          "durationTicks": 96,
          "midi": 69,
          "name": "A4",
          "ticks": 86209,
          "time": 151.35000211718747,
          "velocity": 0.29133858267716534
        },
        {
          "duration": 0.16853925000000913,
          "durationTicks": 96,
          "midi": 72,
          "name": "C5",
          "ticks": 86209,
          "time": 151.35000211718747,
          "velocity": 0.29133858267716534
        },
        {
          "duration": 0.1685392499999807,
          "durationTicks": 96,
          "midi": 74,
          "name": "D5",
          "ticks": 86305,
          "time": 151.51854136718748,
          "velocity": 0.29133858267716534
        },
        {
          "duration": 0.1685392499999807,
          "durationTicks": 96,
          "midi": 71,
          "name": "B4",
          "ticks": 86305,
          "time": 151.51854136718748,
          "velocity": 0.29133858267716534
        },
        {
          "duration": 0.33707850000001827,
          "durationTicks": 192,
          "midi": 72,
          "name": "C5",
          "ticks": 86401,
          "time": 151.68708061718746,
          "velocity": 0.29133858267716534
        },
        {
          "duration": 0.33707850000001827,
          "durationTicks": 192,
          "midi": 76,
          "name": "E5",
          "ticks": 86401,
          "time": 151.68708061718746,
          "velocity": 0.29133858267716534
        },
        {
          "duration": 0.33707849999998984,
          "durationTicks": 192,
          "midi": 40,
          "name": "E2",
          "ticks": 86593,
          "time": 152.02415911718748,
          "velocity": 0.29133858267716534
        },
        {
          "duration": 0.33707849999998984,
          "durationTicks": 192,
          "midi": 64,
          "name": "E4",
          "ticks": 86593,
          "time": 152.02415911718748,
          "velocity": 0.29133858267716534
        },
        {
          "duration": 0.33707849999998984,
          "durationTicks": 192,
          "midi": 45,
          "name": "A2",
          "ticks": 86785,
          "time": 152.36123761718747,
          "velocity": 0.29133858267716534
        },
        {
          "duration": 0.1685392499999807,
          "durationTicks": 96,
          "midi": 64,
          "name": "E4",
          "ticks": 86881,
          "time": 152.52977686718748,
          "velocity": 0.29133858267716534
        },
        {
          "duration": 0.16853925000000913,
          "durationTicks": 96,
          "midi": 72,
          "name": "C5",
          "ticks": 86977,
          "time": 152.69831611718746,
          "velocity": 0.29133858267716534
        },
        {
          "duration": 0.16853925000000913,
          "durationTicks": 96,
          "midi": 69,
          "name": "A4",
          "ticks": 86977,
          "time": 152.69831611718746,
          "velocity": 0.29133858267716534
        },
        {
          "duration": 0.16853925000000913,
          "durationTicks": 96,
          "midi": 74,
          "name": "D5",
          "ticks": 87073,
          "time": 152.86685536718747,
          "velocity": 0.29133858267716534
        },
        {
          "duration": 0.16853925000000913,
          "durationTicks": 96,
          "midi": 71,
          "name": "B4",
          "ticks": 87073,
          "time": 152.86685536718747,
          "velocity": 0.29133858267716534
        },
        {
          "duration": 0.33707849999998984,
          "durationTicks": 192,
          "midi": 76,
          "name": "E5",
          "ticks": 87169,
          "time": 153.03539461718748,
          "velocity": 0.29133858267716534
        },
        {
          "duration": 0.33707849999998984,
          "durationTicks": 192,
          "midi": 72,
          "name": "C5",
          "ticks": 87169,
          "time": 153.03539461718748,
          "velocity": 0.29133858267716534
        },
        {
          "duration": 0.1685392499999807,
          "durationTicks": 96,
          "midi": 69,
          "name": "A4",
          "ticks": 87169,
          "time": 153.03539461718748,
          "velocity": 0.29133858267716534
        },
        {
          "duration": 0.16853925000000913,
          "durationTicks": 96,
          "midi": 71,
          "name": "B4",
          "ticks": 87265,
          "time": 153.20393386718746,
          "velocity": 0.29133858267716534
        },
        {
          "duration": 0.16853925000000913,
          "durationTicks": 96,
          "midi": 72,
          "name": "C5",
          "ticks": 87361,
          "time": 153.37247311718747,
          "velocity": 0.29133858267716534
        },
        {
          "duration": 0.33707849999998984,
          "durationTicks": 192,
          "midi": 64,
          "name": "E4",
          "ticks": 87361,
          "time": 153.37247311718747,
          "velocity": 0.29133858267716534
        },
        {
          "duration": 0.1685392499999807,
          "durationTicks": 96,
          "midi": 74,
          "name": "D5",
          "ticks": 87457,
          "time": 153.54101236718748,
          "velocity": 0.29133858267716534
        },
        {
          "duration": 1.011235499999998,
          "durationTicks": 576,
          "midi": 53,
          "name": "F3",
          "ticks": 87553,
          "time": 153.70955161718746,
          "velocity": 0.29133858267716534
        },
        {
          "duration": 0.33707850000001827,
          "durationTicks": 192,
          "midi": 41,
          "name": "F2",
          "ticks": 87553,
          "time": 153.70955161718746,
          "velocity": 0.29133858267716534
        },
        {
          "duration": 0.16853925000000913,
          "durationTicks": 96,
          "midi": 74,
          "name": "D5",
          "ticks": 87553,
          "time": 153.70955161718746,
          "velocity": 0.29133858267716534
        },
        {
          "duration": 0.16853925000000913,
          "durationTicks": 96,
          "midi": 72,
          "name": "C5",
          "ticks": 87649,
          "time": 153.87809086718747,
          "velocity": 0.29133858267716534
        },
        {
          "duration": 0.16853925000000913,
          "durationTicks": 96,
          "midi": 64,
          "name": "E4",
          "ticks": 87649,
          "time": 153.87809086718747,
          "velocity": 0.29133858267716534
        },
        {
          "duration": 0.1685392499999807,
          "durationTicks": 96,
          "midi": 72,
          "name": "C5",
          "ticks": 87745,
          "time": 154.04663011718748,
          "velocity": 0.29133858267716534
        },
        {
          "duration": 0.1685392499999807,
          "durationTicks": 96,
          "midi": 76,
          "name": "E5",
          "ticks": 87745,
          "time": 154.04663011718748,
          "velocity": 0.29133858267716534
        },
        {
          "duration": 0.1685392499999807,
          "durationTicks": 96,
          "midi": 69,
          "name": "A4",
          "ticks": 87745,
          "time": 154.04663011718748,
          "velocity": 0.29133858267716534
        },
        {
          "duration": 0.16853925000000913,
          "durationTicks": 96,
          "midi": 74,
          "name": "D5",
          "ticks": 87841,
          "time": 154.21516936718746,
          "velocity": 0.29133858267716534
        },
        {
          "duration": 0.16853925000000913,
          "durationTicks": 96,
          "midi": 71,
          "name": "B4",
          "ticks": 87841,
          "time": 154.21516936718746,
          "velocity": 0.29133858267716534
        },
        {
          "duration": 0.16853925000000913,
          "durationTicks": 96,
          "midi": 76,
          "name": "E5",
          "ticks": 87937,
          "time": 154.38370861718747,
          "velocity": 0.29133858267716534
        },
        {
          "duration": 0.33707849999998984,
          "durationTicks": 192,
          "midi": 72,
          "name": "C5",
          "ticks": 87937,
          "time": 154.38370861718747,
          "velocity": 0.29133858267716534
        },
        {
          "duration": 0.1685392499999807,
          "durationTicks": 96,
          "midi": 74,
          "name": "D5",
          "ticks": 88033,
          "time": 154.55224786718748,
          "velocity": 0.29133858267716534
        },
        {
          "duration": 0.33707850000001827,
          "durationTicks": 192,
          "midi": 64,
          "name": "E4",
          "ticks": 88129,
          "time": 154.72078711718746,
          "velocity": 0.29133858267716534
        },
        {
          "duration": 0.33707850000001827,
          "durationTicks": 192,
          "midi": 36,
          "name": "C2",
          "ticks": 88129,
          "time": 154.72078711718746,
          "velocity": 0.29133858267716534
        },
        {
          "duration": 0.33707850000001827,
          "durationTicks": 192,
          "midi": 72,
          "name": "C5",
          "ticks": 88129,
          "time": 154.72078711718746,
          "velocity": 0.29133858267716534
        },
        {
          "duration": 0.33707849999998984,
          "durationTicks": 192,
          "midi": 71,
          "name": "B4",
          "ticks": 88321,
          "time": 155.05786561718747,
          "velocity": 0.29133858267716534
        },
        {
          "duration": 0.33707849999998984,
          "durationTicks": 192,
          "midi": 41,
          "name": "F2",
          "ticks": 88321,
          "time": 155.05786561718747,
          "velocity": 0.29133858267716534
        },
        {
          "duration": 1.3483139999999878,
          "durationTicks": 768,
          "midi": 48,
          "name": "C3",
          "ticks": 88321,
          "time": 155.05786561718747,
          "velocity": 0.29133858267716534
        },
        {
          "duration": 0.1685392499999807,
          "durationTicks": 96,
          "midi": 64,
          "name": "E4",
          "ticks": 88417,
          "time": 155.22640486718748,
          "velocity": 0.29133858267716534
        },
        {
          "duration": 0.16853925000000913,
          "durationTicks": 96,
          "midi": 72,
          "name": "C5",
          "ticks": 88513,
          "time": 155.39494411718746,
          "velocity": 0.29133858267716534
        },
        {
          "duration": 0.16853925000000913,
          "durationTicks": 96,
          "midi": 69,
          "name": "A4",
          "ticks": 88513,
          "time": 155.39494411718746,
          "velocity": 0.29133858267716534
        },
        {
          "duration": 0.16853925000000913,
          "durationTicks": 96,
          "midi": 74,
          "name": "D5",
          "ticks": 88609,
          "time": 155.56348336718747,
          "velocity": 0.29133858267716534
        },
        {
          "duration": 0.16853925000000913,
          "durationTicks": 96,
          "midi": 71,
          "name": "B4",
          "ticks": 88609,
          "time": 155.56348336718747,
          "velocity": 0.29133858267716534
        },
        {
          "duration": 0.33707849999998984,
          "durationTicks": 192,
          "midi": 67,
          "name": "G4",
          "ticks": 88705,
          "time": 155.73202261718748,
          "velocity": 0.29133858267716534
        },
        {
          "duration": 0.33707849999998984,
          "durationTicks": 192,
          "midi": 72,
          "name": "C5",
          "ticks": 88705,
          "time": 155.73202261718748,
          "velocity": 0.29133858267716534
        },
        {
          "duration": 0.33707849999998984,
          "durationTicks": 192,
          "midi": 76,
          "name": "E5",
          "ticks": 88705,
          "time": 155.73202261718748,
          "velocity": 0.29133858267716534
        },
        {
          "duration": 0.33707849999998984,
          "durationTicks": 192,
          "midi": 69,
          "name": "A4",
          "ticks": 88897,
          "time": 156.06910111718747,
          "velocity": 0.29133858267716534
        },
        {
          "duration": 0.33707849999998984,
          "durationTicks": 192,
          "midi": 64,
          "name": "E4",
          "ticks": 88897,
          "time": 156.06910111718747,
          "velocity": 0.29133858267716534
        },
        {
          "duration": 1.011235499999998,
          "durationTicks": 576,
          "midi": 59,
          "name": "B3",
          "ticks": 89089,
          "time": 156.40617961718746,
          "velocity": 0.29133858267716534
        },
        {
          "duration": 0.33707850000001827,
          "durationTicks": 192,
          "midi": 43,
          "name": "G2",
          "ticks": 89089,
          "time": 156.40617961718746,
          "velocity": 0.29133858267716534
        },
        {
          "duration": 0.16853925000000913,
          "durationTicks": 96,
          "midi": 67,
          "name": "G4",
          "ticks": 89089,
          "time": 156.40617961718746,
          "velocity": 0.29133858267716534
        },
        {
          "duration": 0.16853925000000913,
          "durationTicks": 96,
          "midi": 62,
          "name": "D4",
          "ticks": 89185,
          "time": 156.57471886718747,
          "velocity": 0.29133858267716534
        },
        {
          "duration": 0.16853925000000913,
          "durationTicks": 96,
          "midi": 69,
          "name": "A4",
          "ticks": 89185,
          "time": 156.57471886718747,
          "velocity": 0.29133858267716534
        },
        {
          "duration": 0.1685392499999807,
          "durationTicks": 96,
          "midi": 67,
          "name": "G4",
          "ticks": 89281,
          "time": 156.74325811718748,
          "velocity": 0.29133858267716534
        },
        {
          "duration": 1.1797747499999787,
          "durationTicks": 672,
          "midi": 71,
          "name": "B4",
          "ticks": 89281,
          "time": 156.74325811718748,
          "velocity": 0.29133858267716534
        },
        {
          "duration": 0.16853925000000913,
          "durationTicks": 96,
          "midi": 72,
          "name": "C5",
          "ticks": 89377,
          "time": 156.91179736718746,
          "velocity": 0.29133858267716534
        },
        {
          "duration": 0.33707849999998984,
          "durationTicks": 192,
          "midi": 74,
          "name": "D5",
          "ticks": 89473,
          "time": 157.08033661718747,
          "velocity": 0.29133858267716534
        },
        {
          "duration": 0.33707850000001827,
          "durationTicks": 192,
          "midi": 50,
          "name": "D3",
          "ticks": 89665,
          "time": 157.41741511718746,
          "velocity": 0.29133858267716534
        },
        {
          "duration": 0.33707850000001827,
          "durationTicks": 192,
          "midi": 62,
          "name": "D4",
          "ticks": 89665,
          "time": 157.41741511718746,
          "velocity": 0.29133858267716534
        },
        {
          "duration": 0.33707849999998984,
          "durationTicks": 192,
          "midi": 43,
          "name": "G2",
          "ticks": 89857,
          "time": 157.75449361718748,
          "velocity": 0.29133858267716534
        },
        {
          "duration": 0.16853925000000913,
          "durationTicks": 96,
          "midi": 62,
          "name": "D4",
          "ticks": 89953,
          "time": 157.92303286718746,
          "velocity": 0.29133858267716534
        },
        {
          "duration": 0.16853925000000913,
          "durationTicks": 96,
          "midi": 67,
          "name": "G4",
          "ticks": 90049,
          "time": 158.09157211718747,
          "velocity": 0.29133858267716534
        },
        {
          "duration": 0.16853925000000913,
          "durationTicks": 96,
          "midi": 71,
          "name": "B4",
          "ticks": 90049,
          "time": 158.09157211718747,
          "velocity": 0.29133858267716534
        },
        {
          "duration": 0.1685392499999807,
          "durationTicks": 96,
          "midi": 69,
          "name": "A4",
          "ticks": 90145,
          "time": 158.26011136718748,
          "velocity": 0.29133858267716534
        },
        {
          "duration": 0.1685392499999807,
          "durationTicks": 96,
          "midi": 72,
          "name": "C5",
          "ticks": 90145,
          "time": 158.26011136718748,
          "velocity": 0.29133858267716534
        },
        {
          "duration": 0.33707850000001827,
          "durationTicks": 192,
          "midi": 71,
          "name": "B4",
          "ticks": 90241,
          "time": 158.42865061718746,
          "velocity": 0.29133858267716534
        },
        {
          "duration": 0.33707850000001827,
          "durationTicks": 192,
          "midi": 74,
          "name": "D5",
          "ticks": 90241,
          "time": 158.42865061718746,
          "velocity": 0.29133858267716534
        },
        {
          "duration": 0.33707849999998984,
          "durationTicks": 192,
          "midi": 62,
          "name": "D4",
          "ticks": 90433,
          "time": 158.76572911718748,
          "velocity": 0.29133858267716534
        },
        {
          "duration": 0.16853925000000913,
          "durationTicks": 96,
          "midi": 72,
          "name": "C5",
          "ticks": 90529,
          "time": 158.93426836718746,
          "velocity": 0.29133858267716534
        },
        {
          "duration": 0.16853925000000913,
          "durationTicks": 96,
          "midi": 74,
          "name": "D5",
          "ticks": 90625,
          "time": 159.10280761718747,
          "velocity": 0.29133858267716534
        },
        {
          "duration": 0.33707849999998984,
          "durationTicks": 192,
          "midi": 40,
          "name": "E2",
          "ticks": 90625,
          "time": 159.10280761718747,
          "velocity": 0.29133858267716534
        },
        {
          "duration": 0.16853925000000913,
          "durationTicks": 96,
          "midi": 68,
          "name": "G#4",
          "ticks": 90625,
          "time": 159.10280761718747,
          "velocity": 0.29133858267716534
        },
        {
          "duration": 0.1685392499999807,
          "durationTicks": 96,
          "midi": 64,
          "name": "E4",
          "ticks": 90721,
          "time": 159.27134686718748,
          "velocity": 0.29133858267716534
        },
        {
          "duration": 0.1685392499999807,
          "durationTicks": 96,
          "midi": 72,
          "name": "C5",
          "ticks": 90721,
          "time": 159.27134686718748,
          "velocity": 0.29133858267716534
        },
        {
          "duration": 0.16853925000000913,
          "durationTicks": 96,
          "midi": 74,
          "name": "D5",
          "ticks": 90817,
          "time": 159.43988611718746,
          "velocity": 0.29133858267716534
        },
        {
          "duration": 0.16853925000000913,
          "durationTicks": 96,
          "midi": 71,
          "name": "B4",
          "ticks": 90817,
          "time": 159.43988611718746,
          "velocity": 0.29133858267716534
        },
        {
          "duration": 0.16853925000000913,
          "durationTicks": 96,
          "midi": 68,
          "name": "G#4",
          "ticks": 90817,
          "time": 159.43988611718746,
          "velocity": 0.29133858267716534
        },
        {
          "duration": 0.16853925000000913,
          "durationTicks": 96,
          "midi": 76,
          "name": "E5",
          "ticks": 90913,
          "time": 159.60842536718746,
          "velocity": 0.29133858267716534
        },
        {
          "duration": 0.16853925000000913,
          "durationTicks": 96,
          "midi": 69,
          "name": "A4",
          "ticks": 90913,
          "time": 159.60842536718746,
          "velocity": 0.29133858267716534
        },
        {
          "duration": 0.33707849999998984,
          "durationTicks": 192,
          "midi": 71,
          "name": "B4",
          "ticks": 91009,
          "time": 159.77696461718747,
          "velocity": 0.29133858267716534
        },
        {
          "duration": 0.33707849999998984,
          "durationTicks": 192,
          "midi": 77,
          "name": "F5",
          "ticks": 91009,
          "time": 159.77696461718747,
          "velocity": 0.29133858267716534
        },
        {
          "duration": 0.33707850000001827,
          "durationTicks": 192,
          "midi": 64,
          "name": "E4",
          "ticks": 91201,
          "time": 160.11404311718746,
          "velocity": 0.29133858267716534
        },
        {
          "duration": 0.33707850000001827,
          "durationTicks": 192,
          "midi": 35,
          "name": "B1",
          "ticks": 91201,
          "time": 160.11404311718746,
          "velocity": 0.29133858267716534
        },
        {
          "duration": 0.16853925000000913,
          "durationTicks": 96,
          "midi": 71,
          "name": "B4",
          "ticks": 91201,
          "time": 160.11404311718746,
          "velocity": 0.29133858267716534
        },
        {
          "duration": 0.16853925000000913,
          "durationTicks": 96,
          "midi": 72,
          "name": "C5",
          "ticks": 91297,
          "time": 160.28258236718747,
          "velocity": 0.29133858267716534
        },
        {
          "duration": 0.33707849999998984,
          "durationTicks": 192,
          "midi": 40,
          "name": "E2",
          "ticks": 91393,
          "time": 160.45112161718748,
          "velocity": 0.29133858267716534
        },
        {
          "duration": 0.1685392499999807,
          "durationTicks": 96,
          "midi": 74,
          "name": "D5",
          "ticks": 91393,
          "time": 160.45112161718748,
          "velocity": 0.29133858267716534
        },
        {
          "duration": 0.16853925000000913,
          "durationTicks": 96,
          "midi": 64,
          "name": "E4",
          "ticks": 91489,
          "time": 160.61966086718746,
          "velocity": 0.29133858267716534
        },
        {
          "duration": 0.16853925000000913,
          "durationTicks": 96,
          "midi": 76,
          "name": "E5",
          "ticks": 91489,
          "time": 160.61966086718746,
          "velocity": 0.29133858267716534
        },
        {
          "duration": 0.16853925000000913,
          "durationTicks": 96,
          "midi": 77,
          "name": "F5",
          "ticks": 91585,
          "time": 160.78820011718747,
          "velocity": 0.29133858267716534
        },
        {
          "duration": 0.16853925000000913,
          "durationTicks": 96,
          "midi": 66,
          "name": "F#4",
          "ticks": 91585,
          "time": 160.78820011718747,
          "velocity": 0.29133858267716534
        },
        {
          "duration": 0.1685392499999807,
          "durationTicks": 96,
          "midi": 68,
          "name": "G#4",
          "ticks": 91681,
          "time": 160.95673936718748,
          "velocity": 0.29133858267716534
        },
        {
          "duration": 0.1685392499999807,
          "durationTicks": 96,
          "midi": 71,
          "name": "B4",
          "ticks": 91681,
          "time": 160.95673936718748,
          "velocity": 0.29133858267716534
        },
        {
          "duration": 0,
          "durationTicks": 0,
          "midi": 76,
          "name": "E5",
          "ticks": 91777,
          "time": 161.12527861718746,
          "velocity": 0.29133858267716534
        },
        {
          "duration": 0.16853925000000913,
          "durationTicks": 96,
          "midi": 40,
          "name": "E2",
          "ticks": 91777,
          "time": 161.12527861718746,
          "velocity": 0.29133858267716534
        },
        {
          "duration": 0.33707850000001827,
          "durationTicks": 192,
          "midi": 69,
          "name": "A4",
          "ticks": 91777,
          "time": 161.12527861718746,
          "velocity": 0.29133858267716534
        },
        {
          "duration": 0,
          "durationTicks": 0,
          "midi": 77,
          "name": "F5",
          "ticks": 91825,
          "time": 161.20954824218748,
          "velocity": 0.29133858267716534
        },
        {
          "duration": 0.16853925000000913,
          "durationTicks": 96,
          "midi": 40,
          "name": "E2",
          "ticks": 91873,
          "time": 161.29381786718747,
          "velocity": 0.29133858267716534
        },
        {
          "duration": 0.16853925000000913,
          "durationTicks": 96,
          "midi": 76,
          "name": "E5",
          "ticks": 91873,
          "time": 161.29381786718747,
          "velocity": 0.29133858267716534
        },
        {
          "duration": 0.1685392499999807,
          "durationTicks": 96,
          "midi": 40,
          "name": "E2",
          "ticks": 91969,
          "time": 161.46235711718748,
          "velocity": 0.29133858267716534
        },
        {
          "duration": 0.33707849999998984,
          "durationTicks": 192,
          "midi": 74,
          "name": "D5",
          "ticks": 91969,
          "time": 161.46235711718748,
          "velocity": 0.29133858267716534
        },
        {
          "duration": 0.33707849999998984,
          "durationTicks": 192,
          "midi": 68,
          "name": "G#4",
          "ticks": 91969,
          "time": 161.46235711718748,
          "velocity": 0.29133858267716534
        },
        {
          "duration": 0.16853925000000913,
          "durationTicks": 96,
          "midi": 40,
          "name": "E2",
          "ticks": 92065,
          "time": 161.63089636718746,
          "velocity": 0.29133858267716534
        },
        {
          "duration": 0.16853925000000913,
          "durationTicks": 96,
          "midi": 45,
          "name": "A2",
          "ticks": 92161,
          "time": 161.79943561718747,
          "velocity": 0.29133858267716534
        },
        {
          "duration": 0.16853925000000913,
          "durationTicks": 96,
          "midi": 74,
          "name": "D5",
          "ticks": 92161,
          "time": 161.79943561718747,
          "velocity": 0.29133858267716534
        },
        {
          "duration": 0.8426962499999888,
          "durationTicks": 480,
          "midi": 76,
          "name": "E5",
          "ticks": 92257,
          "time": 161.96797486718748,
          "velocity": 0.29133858267716534
        },
        {
          "duration": 0.1685392499999807,
          "durationTicks": 96,
          "midi": 52,
          "name": "E3",
          "ticks": 92257,
          "time": 161.96797486718748,
          "velocity": 0.29133858267716534
        },
        {
          "duration": 0.16853925000000913,
          "durationTicks": 96,
          "midi": 57,
          "name": "A3",
          "ticks": 92353,
          "time": 162.13651411718746,
          "velocity": 0.29133858267716534
        },
        {
          "duration": 0.16853925000000913,
          "durationTicks": 96,
          "midi": 59,
          "name": "B3",
          "ticks": 92449,
          "time": 162.30505336718747,
          "velocity": 0.29133858267716534
        },
        {
          "duration": 0.33707849999998984,
          "durationTicks": 192,
          "midi": 60,
          "name": "C4",
          "ticks": 92545,
          "time": 162.47359261718748,
          "velocity": 0.29133858267716534
        },
        {
          "duration": 0.33707849999998984,
          "durationTicks": 192,
          "midi": 52,
          "name": "E3",
          "ticks": 92737,
          "time": 162.81067111718747,
          "velocity": 0.29133858267716534
        },
        {
          "duration": 0.1685392499999807,
          "durationTicks": 96,
          "midi": 74,
          "name": "D5",
          "ticks": 92801,
          "time": 162.9230306171875,
          "velocity": 0.29133858267716534
        },
        {
          "duration": 0.17029486718749354,
          "durationTicks": 97,
          "midi": 72,
          "name": "C5",
          "ticks": 92864,
          "time": 163.03363449999998,
          "velocity": 0.29133858267716534
        },
        {
          "duration": 1.011235499999998,
          "durationTicks": 576,
          "midi": 69,
          "name": "A4",
          "ticks": 92929,
          "time": 163.14774961718746,
          "velocity": 0.29133858267716534
        },
        {
          "duration": 0.16853925000000913,
          "durationTicks": 96,
          "midi": 45,
          "name": "A2",
          "ticks": 92929,
          "time": 163.14774961718746,
          "velocity": 0.29133858267716534
        },
        {
          "duration": 0.16853925000000913,
          "durationTicks": 96,
          "midi": 52,
          "name": "E3",
          "ticks": 93025,
          "time": 163.31628886718747,
          "velocity": 0.29133858267716534
        },
        {
          "duration": 0.1685392499999807,
          "durationTicks": 96,
          "midi": 57,
          "name": "A3",
          "ticks": 93121,
          "time": 163.48482811718748,
          "velocity": 0.29133858267716534
        },
        {
          "duration": 0.16853925000000913,
          "durationTicks": 96,
          "midi": 59,
          "name": "B3",
          "ticks": 93217,
          "time": 163.65336736718746,
          "velocity": 0.29133858267716534
        },
        {
          "duration": 0.33707849999998984,
          "durationTicks": 192,
          "midi": 60,
          "name": "C4",
          "ticks": 93313,
          "time": 163.82190661718747,
          "velocity": 0.29133858267716534
        },
        {
          "duration": 0.33707850000001827,
          "durationTicks": 192,
          "midi": 52,
          "name": "E3",
          "ticks": 93505,
          "time": 164.15898511718746,
          "velocity": 0.29133858267716534
        },
        {
          "duration": 0.33707850000001827,
          "durationTicks": 192,
          "midi": 71,
          "name": "B4",
          "ticks": 93505,
          "time": 164.15898511718746,
          "velocity": 0.29133858267716534
        },
        {
          "duration": 0.1685392499999807,
          "durationTicks": 96,
          "midi": 72,
          "name": "C5",
          "ticks": 93697,
          "time": 164.49606361718747,
          "velocity": 0.29133858267716534
        },
        {
          "duration": 0.1685392499999807,
          "durationTicks": 96,
          "midi": 41,
          "name": "F2",
          "ticks": 93697,
          "time": 164.49606361718747,
          "velocity": 0.29133858267716534
        },
        {
          "duration": 0.16853925000000913,
          "durationTicks": 96,
          "midi": 52,
          "name": "E3",
          "ticks": 93793,
          "time": 164.66460286718745,
          "velocity": 0.29133858267716534
        },
        {
          "duration": 0.16853925000000913,
          "durationTicks": 96,
          "midi": 71,
          "name": "B4",
          "ticks": 93793,
          "time": 164.66460286718745,
          "velocity": 0.29133858267716534
        },
        {
          "duration": 0.16853925000000913,
          "durationTicks": 96,
          "midi": 57,
          "name": "A3",
          "ticks": 93889,
          "time": 164.83314211718746,
          "velocity": 0.29133858267716534
        },
        {
          "duration": 1.516853249999997,
          "durationTicks": 864,
          "midi": 69,
          "name": "A4",
          "ticks": 93889,
          "time": 164.83314211718746,
          "velocity": 0.29133858267716534
        },
        {
          "duration": 0.16853925000000913,
          "durationTicks": 96,
          "midi": 59,
          "name": "B3",
          "ticks": 93985,
          "time": 165.00168136718747,
          "velocity": 0.29133858267716534
        },
        {
          "duration": 0.33707849999998984,
          "durationTicks": 192,
          "midi": 60,
          "name": "C4",
          "ticks": 94081,
          "time": 165.17022061718748,
          "velocity": 0.29133858267716534
        },
        {
          "duration": 0.33707849999998984,
          "durationTicks": 192,
          "midi": 52,
          "name": "E3",
          "ticks": 94273,
          "time": 165.50729911718747,
          "velocity": 0.29133858267716534
        },
        {
          "duration": 0.16853925000000913,
          "durationTicks": 96,
          "midi": 41,
          "name": "F2",
          "ticks": 94465,
          "time": 165.84437761718746,
          "velocity": 0.29133858267716534
        },
        {
          "duration": 0.16853925000000913,
          "durationTicks": 96,
          "midi": 52,
          "name": "E3",
          "ticks": 94561,
          "time": 166.01291686718747,
          "velocity": 0.29133858267716534
        },
        {
          "duration": 0.1685392499999807,
          "durationTicks": 96,
          "midi": 57,
          "name": "A3",
          "ticks": 94657,
          "time": 166.18145611718748,
          "velocity": 0.29133858267716534
        },
        {
          "duration": 0.16853925000000913,
          "durationTicks": 96,
          "midi": 59,
          "name": "B3",
          "ticks": 94753,
          "time": 166.34999536718746,
          "velocity": 0.29133858267716534
        },
        {
          "duration": 0.505617749999999,
          "durationTicks": 288,
          "midi": 67,
          "name": "G4",
          "ticks": 94849,
          "time": 166.51853461718747,
          "velocity": 0.29133858267716534
        },
        {
          "duration": 0.33707849999998984,
          "durationTicks": 192,
          "midi": 60,
          "name": "C4",
          "ticks": 94849,
          "time": 166.51853461718747,
          "velocity": 0.29133858267716534
        },
        {
          "duration": 0.33707850000001827,
          "durationTicks": 192,
          "midi": 52,
          "name": "E3",
          "ticks": 95041,
          "time": 166.85561311718746,
          "velocity": 0.29133858267716534
        },
        {
          "duration": 0,
          "durationTicks": 0,
          "midi": 69,
          "name": "A4",
          "ticks": 95137,
          "time": 167.02415236718747,
          "velocity": 0.29133858267716534
        },
        {
          "duration": 0,
          "durationTicks": 0,
          "midi": 67,
          "name": "G4",
          "ticks": 95185,
          "time": 167.10842199218746,
          "velocity": 0.29133858267716534
        },
        {
          "duration": 2.022470999999996,
          "durationTicks": 1152,
          "midi": 62,
          "name": "D4",
          "ticks": 95233,
          "time": 167.19269161718748,
          "velocity": 0.29133858267716534
        },
        {
          "duration": 0.1685392499999807,
          "durationTicks": 96,
          "midi": 43,
          "name": "G2",
          "ticks": 95233,
          "time": 167.19269161718748,
          "velocity": 0.29133858267716534
        },
        {
          "duration": 0.16853925000000913,
          "durationTicks": 96,
          "midi": 50,
          "name": "D3",
          "ticks": 95329,
          "time": 167.36123086718746,
          "velocity": 0.29133858267716534
        },
        {
          "duration": 0.16853925000000913,
          "durationTicks": 96,
          "midi": 55,
          "name": "G3",
          "ticks": 95425,
          "time": 167.52977011718747,
          "velocity": 0.29133858267716534
        },
        {
          "duration": 0.1685392499999807,
          "durationTicks": 96,
          "midi": 57,
          "name": "A3",
          "ticks": 95521,
          "time": 167.69830936718748,
          "velocity": 0.29133858267716534
        },
        {
          "duration": 0.33707850000001827,
          "durationTicks": 192,
          "midi": 59,
          "name": "B3",
          "ticks": 95617,
          "time": 167.86684861718746,
          "velocity": 0.29133858267716534
        },
        {
          "duration": 0.33707849999998984,
          "durationTicks": 192,
          "midi": 50,
          "name": "D3",
          "ticks": 95809,
          "time": 168.20392711718748,
          "velocity": 0.29133858267716534
        },
        {
          "duration": 0.16853925000000913,
          "durationTicks": 96,
          "midi": 43,
          "name": "G2",
          "ticks": 96001,
          "time": 168.54100561718747,
          "velocity": 0.29133858267716534
        },
        {
          "duration": 0.1685392499999807,
          "durationTicks": 96,
          "midi": 50,
          "name": "D3",
          "ticks": 96097,
          "time": 168.70954486718747,
          "velocity": 0.29133858267716534
        },
        {
          "duration": 0.16853925000000913,
          "durationTicks": 96,
          "midi": 55,
          "name": "G3",
          "ticks": 96193,
          "time": 168.87808411718746,
          "velocity": 0.29133858267716534
        },
        {
          "duration": 0.16853925000000913,
          "durationTicks": 96,
          "midi": 57,
          "name": "A3",
          "ticks": 96289,
          "time": 169.04662336718746,
          "velocity": 0.29133858267716534
        },
        {
          "duration": 0.33707849999998984,
          "durationTicks": 192,
          "midi": 59,
          "name": "B3",
          "ticks": 96385,
          "time": 169.21516261718747,
          "velocity": 0.29133858267716534
        },
        {
          "duration": 0.16853925000000913,
          "durationTicks": 96,
          "midi": 62,
          "name": "D4",
          "ticks": 96481,
          "time": 169.38370186718745,
          "velocity": 0.29133858267716534
        },
        {
          "duration": 0.33707849999998984,
          "durationTicks": 192,
          "midi": 50,
          "name": "D3",
          "ticks": 96577,
          "time": 169.55224111718746,
          "velocity": 0.29133858267716534
        },
        {
          "duration": 0.16853925000000913,
          "durationTicks": 96,
          "midi": 64,
          "name": "E4",
          "ticks": 96577,
          "time": 169.55224111718746,
          "velocity": 0.29133858267716534
        },
        {
          "duration": 0.1685392499999807,
          "durationTicks": 96,
          "midi": 65,
          "name": "F4",
          "ticks": 96673,
          "time": 169.72078036718747,
          "velocity": 0.29133858267716534
        },
        {
          "duration": 0.16853925000000913,
          "durationTicks": 96,
          "midi": 40,
          "name": "E2",
          "ticks": 96769,
          "time": 169.88931961718745,
          "velocity": 0.29133858267716534
        },
        {
          "duration": 0.16853925000000913,
          "durationTicks": 96,
          "midi": 64,
          "name": "E4",
          "ticks": 96769,
          "time": 169.88931961718745,
          "velocity": 0.29133858267716534
        },
        {
          "duration": 0.16853925000000913,
          "durationTicks": 96,
          "midi": 52,
          "name": "E3",
          "ticks": 96865,
          "time": 170.05785886718746,
          "velocity": 0.29133858267716534
        },
        {
          "duration": 0,
          "durationTicks": 0,
          "midi": 65,
          "name": "F4",
          "ticks": 96865,
          "time": 170.05785886718746,
          "velocity": 0.29133858267716534
        },
        {
          "duration": 0,
          "durationTicks": 0,
          "midi": 62,
          "name": "D4",
          "ticks": 96913,
          "time": 170.14212849218745,
          "velocity": 0.29133858267716534
        },
        {
          "duration": 0.16853925000000913,
          "durationTicks": 96,
          "midi": 59,
          "name": "B3",
          "ticks": 96961,
          "time": 170.22639811718747,
          "velocity": 0.29133858267716534
        },
        {
          "duration": 1.8539317499999868,
          "durationTicks": 1056,
          "midi": 64,
          "name": "E4",
          "ticks": 96961,
          "time": 170.22639811718747,
          "velocity": 0.29133858267716534
        },
        {
          "duration": 0.1685392499999807,
          "durationTicks": 96,
          "midi": 60,
          "name": "C4",
          "ticks": 97057,
          "time": 170.39493736718748,
          "velocity": 0.29133858267716534
        },
        {
          "duration": 0.33707850000001827,
          "durationTicks": 192,
          "midi": 62,
          "name": "D4",
          "ticks": 97153,
          "time": 170.56347661718746,
          "velocity": 0.29133858267716534
        },
        {
          "duration": 0.33707849999998984,
          "durationTicks": 192,
          "midi": 56,
          "name": "G#3",
          "ticks": 97345,
          "time": 170.90055511718748,
          "velocity": 0.29133858267716534
        },
        {
          "duration": 0.16853925000000913,
          "durationTicks": 96,
          "midi": 40,
          "name": "E2",
          "ticks": 97537,
          "time": 171.23763361718747,
          "velocity": 0.29133858267716534
        },
        {
          "duration": 0.1685392499999807,
          "durationTicks": 96,
          "midi": 52,
          "name": "E3",
          "ticks": 97633,
          "time": 171.40617286718748,
          "velocity": 0.29133858267716534
        },
        {
          "duration": 0.16853925000000913,
          "durationTicks": 96,
          "midi": 54,
          "name": "F#3",
          "ticks": 97729,
          "time": 171.57471211718746,
          "velocity": 0.29133858267716534
        },
        {
          "duration": 0.16853925000000913,
          "durationTicks": 96,
          "midi": 56,
          "name": "G#3",
          "ticks": 97825,
          "time": 171.74325136718747,
          "velocity": 0.29133858267716534
        },
        {
          "duration": 0.33707849999998984,
          "durationTicks": 192,
          "midi": 57,
          "name": "A3",
          "ticks": 97921,
          "time": 171.91179061718748,
          "velocity": 0.29133858267716534
        },
        {
          "duration": 0.16853925000000913,
          "durationTicks": 96,
          "midi": 80,
          "name": "G#5",
          "ticks": 98113,
          "time": 172.24886911718747,
          "velocity": 0.29133858267716534
        },
        {
          "duration": 0.33883411718750267,
          "durationTicks": 193,
          "midi": 56,
          "name": "G#3",
          "ticks": 98113,
          "time": 172.24886911718747,
          "velocity": 0.29133858267716534
        },
        {
          "duration": 0.17029486718749354,
          "durationTicks": 97,
          "midi": 81,
          "name": "A5",
          "ticks": 98177,
          "time": 172.3612286171875,
          "velocity": 0.28346456692913385
        },
        {
          "duration": 0.17029486718752196,
          "durationTicks": 97,
          "midi": 80,
          "name": "G#5",
          "ticks": 98241,
          "time": 172.47358811718746,
          "velocity": 0.2677165354330709
        },
        {
          "duration": 0.17029486718752196,
          "durationTicks": 97,
          "midi": 83,
          "name": "B5",
          "ticks": 98241,
          "time": 172.47358811718746,
          "velocity": 0.2677165354330709
        },
        {
          "duration": 0.1685392499999807,
          "durationTicks": 96,
          "midi": 45,
          "name": "A2",
          "ticks": 98306,
          "time": 172.58770323437497,
          "velocity": 0.25984251968503935
        },
        {
          "duration": 0.1685392499999807,
          "durationTicks": 96,
          "midi": 84,
          "name": "C6",
          "ticks": 98306,
          "time": 172.58770323437497,
          "velocity": 0.25984251968503935
        },
        {
          "duration": 0.1685392499999807,
          "durationTicks": 96,
          "midi": 81,
          "name": "A5",
          "ticks": 98306,
          "time": 172.58770323437497,
          "velocity": 0.25984251968503935
        },
        {
          "duration": 0.16853925000000913,
          "durationTicks": 96,
          "midi": 52,
          "name": "E3",
          "ticks": 98402,
          "time": 172.75624248437495,
          "velocity": 0.25984251968503935
        },
        {
          "duration": 0.16853925000000913,
          "durationTicks": 96,
          "midi": 76,
          "name": "E5",
          "ticks": 98498,
          "time": 172.92478173437496,
          "velocity": 0.25984251968503935
        },
        {
          "duration": 0.16853925000000913,
          "durationTicks": 96,
          "midi": 57,
          "name": "A3",
          "ticks": 98498,
          "time": 172.92478173437496,
          "velocity": 0.25984251968503935
        },
        {
          "duration": 0.16853925000000913,
          "durationTicks": 96,
          "midi": 81,
          "name": "A5",
          "ticks": 98498,
          "time": 172.92478173437496,
          "velocity": 0.25984251968503935
        },
        {
          "duration": 0.1685392499999807,
          "durationTicks": 96,
          "midi": 84,
          "name": "C6",
          "ticks": 98594,
          "time": 173.09332098437497,
          "velocity": 0.25984251968503935
        },
        {
          "duration": 0.1685392499999807,
          "durationTicks": 96,
          "midi": 81,
          "name": "A5",
          "ticks": 98594,
          "time": 173.09332098437497,
          "velocity": 0.25984251968503935
        },
        {
          "duration": 0.1685392499999807,
          "durationTicks": 96,
          "midi": 59,
          "name": "B3",
          "ticks": 98594,
          "time": 173.09332098437497,
          "velocity": 0.25984251968503935
        },
        {
          "duration": 0.33707850000001827,
          "durationTicks": 192,
          "midi": 60,
          "name": "C4",
          "ticks": 98690,
          "time": 173.26186023437495,
          "velocity": 0.25984251968503935
        },
        {
          "duration": 0.16853925000000913,
          "durationTicks": 96,
          "midi": 76,
          "name": "E5",
          "ticks": 98786,
          "time": 173.43039948437496,
          "velocity": 0.25984251968503935
        },
        {
          "duration": 0.16853925000000913,
          "durationTicks": 96,
          "midi": 81,
          "name": "A5",
          "ticks": 98786,
          "time": 173.43039948437496,
          "velocity": 0.25984251968503935
        },
        {
          "duration": 0.1685392499999807,
          "durationTicks": 96,
          "midi": 84,
          "name": "C6",
          "ticks": 98882,
          "time": 173.59893873437497,
          "velocity": 0.25984251968503935
        },
        {
          "duration": 0.33707849999998984,
          "durationTicks": 192,
          "midi": 52,
          "name": "E3",
          "ticks": 98882,
          "time": 173.59893873437497,
          "velocity": 0.25984251968503935
        },
        {
          "duration": 0.1685392499999807,
          "durationTicks": 96,
          "midi": 81,
          "name": "A5",
          "ticks": 98882,
          "time": 173.59893873437497,
          "velocity": 0.25984251968503935
        },
        {
          "duration": 0.16853925000000913,
          "durationTicks": 96,
          "midi": 81,
          "name": "A5",
          "ticks": 98978,
          "time": 173.76747798437495,
          "velocity": 0.25984251968503935
        },
        {
          "duration": 0.16853925000000913,
          "durationTicks": 96,
          "midi": 76,
          "name": "E5",
          "ticks": 98978,
          "time": 173.76747798437495,
          "velocity": 0.25984251968503935
        },
        {
          "duration": 0.16853925000000913,
          "durationTicks": 96,
          "midi": 81,
          "name": "A5",
          "ticks": 99074,
          "time": 173.93601723437496,
          "velocity": 0.25984251968503935
        },
        {
          "duration": 0.16853925000000913,
          "durationTicks": 96,
          "midi": 45,
          "name": "A2",
          "ticks": 99074,
          "time": 173.93601723437496,
          "velocity": 0.25984251968503935
        },
        {
          "duration": 0.16853925000000913,
          "durationTicks": 96,
          "midi": 84,
          "name": "C6",
          "ticks": 99074,
          "time": 173.93601723437496,
          "velocity": 0.25984251968503935
        },
        {
          "duration": 0.1685392499999807,
          "durationTicks": 96,
          "midi": 52,
          "name": "E3",
          "ticks": 99170,
          "time": 174.10455648437497,
          "velocity": 0.25984251968503935
        },
        {
          "duration": 0.16853925000000913,
          "durationTicks": 96,
          "midi": 57,
          "name": "A3",
          "ticks": 99266,
          "time": 174.27309573437495,
          "velocity": 0.25984251968503935
        },
        {
          "duration": 0.16853925000000913,
          "durationTicks": 96,
          "midi": 76,
          "name": "E5",
          "ticks": 99266,
          "time": 174.27309573437495,
          "velocity": 0.25984251968503935
        },
        {
          "duration": 0.16853925000000913,
          "durationTicks": 96,
          "midi": 81,
          "name": "A5",
          "ticks": 99266,
          "time": 174.27309573437495,
          "velocity": 0.25984251968503935
        },
        {
          "duration": 0.16853925000000913,
          "durationTicks": 96,
          "midi": 84,
          "name": "C6",
          "ticks": 99362,
          "time": 174.44163498437496,
          "velocity": 0.25984251968503935
        },
        {
          "duration": 0.16853925000000913,
          "durationTicks": 96,
          "midi": 59,
          "name": "B3",
          "ticks": 99362,
          "time": 174.44163498437496,
          "velocity": 0.25984251968503935
        },
        {
          "duration": 0.16853925000000913,
          "durationTicks": 96,
          "midi": 81,
          "name": "A5",
          "ticks": 99362,
          "time": 174.44163498437496,
          "velocity": 0.25984251968503935
        },
        {
          "duration": 0.33707849999998984,
          "durationTicks": 192,
          "midi": 60,
          "name": "C4",
          "ticks": 99458,
          "time": 174.61017423437497,
          "velocity": 0.25984251968503935
        },
        {
          "duration": 0.16853925000000913,
          "durationTicks": 96,
          "midi": 81,
          "name": "A5",
          "ticks": 99554,
          "time": 174.77871348437495,
          "velocity": 0.25984251968503935
        },
        {
          "duration": 0.16853925000000913,
          "durationTicks": 96,
          "midi": 76,
          "name": "E5",
          "ticks": 99554,
          "time": 174.77871348437495,
          "velocity": 0.25984251968503935
        },
        {
          "duration": 0.16853925000000913,
          "durationTicks": 96,
          "midi": 81,
          "name": "A5",
          "ticks": 99650,
          "time": 174.94725273437496,
          "velocity": 0.25984251968503935
        },
        {
          "duration": 0.33707849999998984,
          "durationTicks": 192,
          "midi": 52,
          "name": "E3",
          "ticks": 99650,
          "time": 174.94725273437496,
          "velocity": 0.25984251968503935
        },
        {
          "duration": 0.16853925000000913,
          "durationTicks": 96,
          "midi": 84,
          "name": "C6",
          "ticks": 99650,
          "time": 174.94725273437496,
          "velocity": 0.25984251968503935
        },
        {
          "duration": 0.1685392499999807,
          "durationTicks": 96,
          "midi": 76,
          "name": "E5",
          "ticks": 99746,
          "time": 175.11579198437497,
          "velocity": 0.25984251968503935
        },
        {
          "duration": 0.1685392499999807,
          "durationTicks": 96,
          "midi": 81,
          "name": "A5",
          "ticks": 99746,
          "time": 175.11579198437497,
          "velocity": 0.25984251968503935
        },
        {
          "duration": 0.16853925000000913,
          "durationTicks": 96,
          "midi": 81,
          "name": "A5",
          "ticks": 99842,
          "time": 175.28433123437495,
          "velocity": 0.25984251968503935
        },
        {
          "duration": 0.16853925000000913,
          "durationTicks": 96,
          "midi": 41,
          "name": "F2",
          "ticks": 99842,
          "time": 175.28433123437495,
          "velocity": 0.25984251968503935
        },
        {
          "duration": 0.16853925000000913,
          "durationTicks": 96,
          "midi": 84,
          "name": "C6",
          "ticks": 99842,
          "time": 175.28433123437495,
          "velocity": 0.25984251968503935
        },
        {
          "duration": 0.16853925000000913,
          "durationTicks": 96,
          "midi": 52,
          "name": "E3",
          "ticks": 99938,
          "time": 175.45287048437496,
          "velocity": 0.25984251968503935
        },
        {
          "duration": 0.16853925000000913,
          "durationTicks": 96,
          "midi": 81,
          "name": "A5",
          "ticks": 100034,
          "time": 175.62140973437496,
          "velocity": 0.25984251968503935
        },
        {
          "duration": 0.16853925000000913,
          "durationTicks": 96,
          "midi": 77,
          "name": "F5",
          "ticks": 100034,
          "time": 175.62140973437496,
          "velocity": 0.25984251968503935
        },
        {
          "duration": 0.16853925000000913,
          "durationTicks": 96,
          "midi": 57,
          "name": "A3",
          "ticks": 100034,
          "time": 175.62140973437496,
          "velocity": 0.25984251968503935
        },
        {
          "duration": 0.1685392499999807,
          "durationTicks": 96,
          "midi": 59,
          "name": "B3",
          "ticks": 100130,
          "time": 175.78994898437497,
          "velocity": 0.25984251968503935
        },
        {
          "duration": 0.1685392499999807,
          "durationTicks": 96,
          "midi": 81,
          "name": "A5",
          "ticks": 100130,
          "time": 175.78994898437497,
          "velocity": 0.25984251968503935
        },
        {
          "duration": 0.1685392499999807,
          "durationTicks": 96,
          "midi": 84,
          "name": "C6",
          "ticks": 100130,
          "time": 175.78994898437497,
          "velocity": 0.25984251968503935
        },
        {
          "duration": 0.33707850000001827,
          "durationTicks": 192,
          "midi": 60,
          "name": "C4",
          "ticks": 100226,
          "time": 175.95848823437495,
          "velocity": 0.25984251968503935
        },
        {
          "duration": 0.16853925000000913,
          "durationTicks": 96,
          "midi": 77,
          "name": "F5",
          "ticks": 100322,
          "time": 176.12702748437496,
          "velocity": 0.25984251968503935
        },
        {
          "duration": 0.16853925000000913,
          "durationTicks": 96,
          "midi": 81,
          "name": "A5",
          "ticks": 100322,
          "time": 176.12702748437496,
          "velocity": 0.25984251968503935
        },
        {
          "duration": 0.33707849999998984,
          "durationTicks": 192,
          "midi": 52,
          "name": "E3",
          "ticks": 100418,
          "time": 176.29556673437497,
          "velocity": 0.25984251968503935
        },
        {
          "duration": 0.1685392499999807,
          "durationTicks": 96,
          "midi": 84,
          "name": "C6",
          "ticks": 100418,
          "time": 176.29556673437497,
          "velocity": 0.25984251968503935
        },
        {
          "duration": 0.1685392499999807,
          "durationTicks": 96,
          "midi": 81,
          "name": "A5",
          "ticks": 100418,
          "time": 176.29556673437497,
          "velocity": 0.25984251968503935
        },
        {
          "duration": 0.16853925000000913,
          "durationTicks": 96,
          "midi": 77,
          "name": "F5",
          "ticks": 100514,
          "time": 176.46410598437495,
          "velocity": 0.25984251968503935
        },
        {
          "duration": 0.16853925000000913,
          "durationTicks": 96,
          "midi": 81,
          "name": "A5",
          "ticks": 100514,
          "time": 176.46410598437495,
          "velocity": 0.25984251968503935
        },
        {
          "duration": 0.16853925000000913,
          "durationTicks": 96,
          "midi": 84,
          "name": "C6",
          "ticks": 100610,
          "time": 176.63264523437496,
          "velocity": 0.25984251968503935
        },
        {
          "duration": 0.16853925000000913,
          "durationTicks": 96,
          "midi": 41,
          "name": "F2",
          "ticks": 100610,
          "time": 176.63264523437496,
          "velocity": 0.25984251968503935
        },
        {
          "duration": 0.16853925000000913,
          "durationTicks": 96,
          "midi": 81,
          "name": "A5",
          "ticks": 100610,
          "time": 176.63264523437496,
          "velocity": 0.25984251968503935
        },
        {
          "duration": 0.1685392499999807,
          "durationTicks": 96,
          "midi": 52,
          "name": "E3",
          "ticks": 100706,
          "time": 176.80118448437497,
          "velocity": 0.25984251968503935
        },
        {
          "duration": 0.16853925000000913,
          "durationTicks": 96,
          "midi": 57,
          "name": "A3",
          "ticks": 100802,
          "time": 176.96972373437495,
          "velocity": 0.25984251968503935
        },
        {
          "duration": 0.16853925000000913,
          "durationTicks": 96,
          "midi": 77,
          "name": "F5",
          "ticks": 100802,
          "time": 176.96972373437495,
          "velocity": 0.25984251968503935
        },
        {
          "duration": 0.16853925000000913,
          "durationTicks": 96,
          "midi": 81,
          "name": "A5",
          "ticks": 100802,
          "time": 176.96972373437495,
          "velocity": 0.25984251968503935
        },
        {
          "duration": 0.16853925000000913,
          "durationTicks": 96,
          "midi": 81,
          "name": "A5",
          "ticks": 100898,
          "time": 177.13826298437496,
          "velocity": 0.25984251968503935
        },
        {
          "duration": 0.16853925000000913,
          "durationTicks": 96,
          "midi": 84,
          "name": "C6",
          "ticks": 100898,
          "time": 177.13826298437496,
          "velocity": 0.25984251968503935
        },
        {
          "duration": 0.16853925000000913,
          "durationTicks": 96,
          "midi": 59,
          "name": "B3",
          "ticks": 100898,
          "time": 177.13826298437496,
          "velocity": 0.25984251968503935
        },
        {
          "duration": 0.33707849999998984,
          "durationTicks": 192,
          "midi": 60,
          "name": "C4",
          "ticks": 100994,
          "time": 177.30680223437497,
          "velocity": 0.25984251968503935
        },
        {
          "duration": 0.16853925000000913,
          "durationTicks": 96,
          "midi": 77,
          "name": "F5",
          "ticks": 101090,
          "time": 177.47534148437495,
          "velocity": 0.25984251968503935
        },
        {
          "duration": 0.16853925000000913,
          "durationTicks": 96,
          "midi": 81,
          "name": "A5",
          "ticks": 101090,
          "time": 177.47534148437495,
          "velocity": 0.25984251968503935
        },
        {
          "duration": 0.16853925000000913,
          "durationTicks": 96,
          "midi": 84,
          "name": "C6",
          "ticks": 101186,
          "time": 177.64388073437496,
          "velocity": 0.25984251968503935
        },
        {
          "duration": 0.16853925000000913,
          "durationTicks": 96,
          "midi": 81,
          "name": "A5",
          "ticks": 101186,
          "time": 177.64388073437496,
          "velocity": 0.25984251968503935
        },
        {
          "duration": 0.33707849999998984,
          "durationTicks": 192,
          "midi": 52,
          "name": "E3",
          "ticks": 101186,
          "time": 177.64388073437496,
          "velocity": 0.25984251968503935
        },
        {
          "duration": 0.1685392499999807,
          "durationTicks": 96,
          "midi": 81,
          "name": "A5",
          "ticks": 101282,
          "time": 177.81241998437497,
          "velocity": 0.25984251968503935
        },
        {
          "duration": 0.1685392499999807,
          "durationTicks": 96,
          "midi": 77,
          "name": "F5",
          "ticks": 101282,
          "time": 177.81241998437497,
          "velocity": 0.25984251968503935
        },
        {
          "duration": 0.16853925000000913,
          "durationTicks": 96,
          "midi": 79,
          "name": "G5",
          "ticks": 101378,
          "time": 177.98095923437495,
          "velocity": 0.25984251968503935
        },
        {
          "duration": 0.16853925000000913,
          "durationTicks": 96,
          "midi": 43,
          "name": "G2",
          "ticks": 101378,
          "time": 177.98095923437495,
          "velocity": 0.25984251968503935
        },
        {
          "duration": 0.16853925000000913,
          "durationTicks": 96,
          "midi": 83,
          "name": "B5",
          "ticks": 101378,
          "time": 177.98095923437495,
          "velocity": 0.25984251968503935
        },
        {
          "duration": 0.16853925000000913,
          "durationTicks": 96,
          "midi": 50,
          "name": "D3",
          "ticks": 101474,
          "time": 178.14949848437496,
          "velocity": 0.25984251968503935
        },
        {
          "duration": 0.1685392499999807,
          "durationTicks": 96,
          "midi": 74,
          "name": "D5",
          "ticks": 101570,
          "time": 178.31803773437497,
          "velocity": 0.25984251968503935
        },
        {
          "duration": 0.1685392499999807,
          "durationTicks": 96,
          "midi": 79,
          "name": "G5",
          "ticks": 101570,
          "time": 178.31803773437497,
          "velocity": 0.25984251968503935
        },
        {
          "duration": 0.1685392499999807,
          "durationTicks": 96,
          "midi": 55,
          "name": "G3",
          "ticks": 101570,
          "time": 178.31803773437497,
          "velocity": 0.25984251968503935
        },
        {
          "duration": 0.16853925000000913,
          "durationTicks": 96,
          "midi": 79,
          "name": "G5",
          "ticks": 101666,
          "time": 178.48657698437495,
          "velocity": 0.25984251968503935
        },
        {
          "duration": 0.16853925000000913,
          "durationTicks": 96,
          "midi": 83,
          "name": "B5",
          "ticks": 101666,
          "time": 178.48657698437495,
          "velocity": 0.25984251968503935
        },
        {
          "duration": 0.16853925000000913,
          "durationTicks": 96,
          "midi": 57,
          "name": "A3",
          "ticks": 101666,
          "time": 178.48657698437495,
          "velocity": 0.25984251968503935
        },
        {
          "duration": 0.33707849999998984,
          "durationTicks": 192,
          "midi": 59,
          "name": "B3",
          "ticks": 101762,
          "time": 178.65511623437496,
          "velocity": 0.25984251968503935
        },
        {
          "duration": 0.1685392499999807,
          "durationTicks": 96,
          "midi": 79,
          "name": "G5",
          "ticks": 101858,
          "time": 178.82365548437497,
          "velocity": 0.25984251968503935
        },
        {
          "duration": 0.1685392499999807,
          "durationTicks": 96,
          "midi": 74,
          "name": "D5",
          "ticks": 101858,
          "time": 178.82365548437497,
          "velocity": 0.25984251968503935
        },
        {
          "duration": 0.33707850000001827,
          "durationTicks": 192,
          "midi": 50,
          "name": "D3",
          "ticks": 101954,
          "time": 178.99219473437495,
          "velocity": 0.25984251968503935
        },
        {
          "duration": 0.16853925000000913,
          "durationTicks": 96,
          "midi": 79,
          "name": "G5",
          "ticks": 101954,
          "time": 178.99219473437495,
          "velocity": 0.25984251968503935
        },
        {
          "duration": 0.16853925000000913,
          "durationTicks": 96,
          "midi": 83,
          "name": "B5",
          "ticks": 101954,
          "time": 178.99219473437495,
          "velocity": 0.25984251968503935
        },
        {
          "duration": 0.16853925000000913,
          "durationTicks": 96,
          "midi": 79,
          "name": "G5",
          "ticks": 102050,
          "time": 179.16073398437496,
          "velocity": 0.25984251968503935
        },
        {
          "duration": 0.16853925000000913,
          "durationTicks": 96,
          "midi": 74,
          "name": "D5",
          "ticks": 102050,
          "time": 179.16073398437496,
          "velocity": 0.25984251968503935
        },
        {
          "duration": 0.1685392499999807,
          "durationTicks": 96,
          "midi": 79,
          "name": "G5",
          "ticks": 102146,
          "time": 179.32927323437497,
          "velocity": 0.25984251968503935
        },
        {
          "duration": 0.1685392499999807,
          "durationTicks": 96,
          "midi": 83,
          "name": "B5",
          "ticks": 102146,
          "time": 179.32927323437497,
          "velocity": 0.25984251968503935
        },
        {
          "duration": 0.1685392499999807,
          "durationTicks": 96,
          "midi": 43,
          "name": "G2",
          "ticks": 102146,
          "time": 179.32927323437497,
          "velocity": 0.25984251968503935
        },
        {
          "duration": 0.16853925000000913,
          "durationTicks": 96,
          "midi": 50,
          "name": "D3",
          "ticks": 102242,
          "time": 179.49781248437495,
          "velocity": 0.25984251968503935
        },
        {
          "duration": 0.16853925000000913,
          "durationTicks": 96,
          "midi": 55,
          "name": "G3",
          "ticks": 102338,
          "time": 179.66635173437496,
          "velocity": 0.25984251968503935
        },
        {
          "duration": 0.16853925000000913,
          "durationTicks": 96,
          "midi": 74,
          "name": "D5",
          "ticks": 102338,
          "time": 179.66635173437496,
          "velocity": 0.25984251968503935
        },
        {
          "duration": 0.16853925000000913,
          "durationTicks": 96,
          "midi": 79,
          "name": "G5",
          "ticks": 102338,
          "time": 179.66635173437496,
          "velocity": 0.25984251968503935
        },
        {
          "duration": 0.1685392499999807,
          "durationTicks": 96,
          "midi": 57,
          "name": "A3",
          "ticks": 102434,
          "time": 179.83489098437497,
          "velocity": 0.25984251968503935
        },
        {
          "duration": 0.1685392499999807,
          "durationTicks": 96,
          "midi": 83,
          "name": "B5",
          "ticks": 102434,
          "time": 179.83489098437497,
          "velocity": 0.25984251968503935
        },
        {
          "duration": 0.1685392499999807,
          "durationTicks": 96,
          "midi": 79,
          "name": "G5",
          "ticks": 102434,
          "time": 179.83489098437497,
          "velocity": 0.25984251968503935
        },
        {
          "duration": 0.33707850000001827,
          "durationTicks": 192,
          "midi": 59,
          "name": "B3",
          "ticks": 102530,
          "time": 180.00343023437495,
          "velocity": 0.25984251968503935
        },
        {
          "duration": 0.16853925000000913,
          "durationTicks": 96,
          "midi": 79,
          "name": "G5",
          "ticks": 102626,
          "time": 180.17196948437496,
          "velocity": 0.25984251968503935
        },
        {
          "duration": 0.16853925000000913,
          "durationTicks": 96,
          "midi": 74,
          "name": "D5",
          "ticks": 102626,
          "time": 180.17196948437496,
          "velocity": 0.25984251968503935
        },
        {
          "duration": 0.33707849999998984,
          "durationTicks": 192,
          "midi": 50,
          "name": "D3",
          "ticks": 102722,
          "time": 180.34050873437496,
          "velocity": 0.25984251968503935
        },
        {
          "duration": 0.16853925000000913,
          "durationTicks": 96,
          "midi": 79,
          "name": "G5",
          "ticks": 102722,
          "time": 180.34050873437496,
          "velocity": 0.25984251968503935
        },
        {
          "duration": 0.16853925000000913,
          "durationTicks": 96,
          "midi": 83,
          "name": "B5",
          "ticks": 102722,
          "time": 180.34050873437496,
          "velocity": 0.25984251968503935
        },
        {
          "duration": 0.1685392499999807,
          "durationTicks": 96,
          "midi": 74,
          "name": "D5",
          "ticks": 102818,
          "time": 180.50904798437497,
          "velocity": 0.25984251968503935
        },
        {
          "duration": 0.1685392499999807,
          "durationTicks": 96,
          "midi": 79,
          "name": "G5",
          "ticks": 102818,
          "time": 180.50904798437497,
          "velocity": 0.25984251968503935
        },
        {
          "duration": 0.16853925000000913,
          "durationTicks": 96,
          "midi": 80,
          "name": "G#5",
          "ticks": 102914,
          "time": 180.67758723437495,
          "velocity": 0.25984251968503935
        },
        {
          "duration": 0.16853925000000913,
          "durationTicks": 96,
          "midi": 83,
          "name": "B5",
          "ticks": 102914,
          "time": 180.67758723437495,
          "velocity": 0.25984251968503935
        },
        {
          "duration": 0.16853925000000913,
          "durationTicks": 96,
          "midi": 40,
          "name": "E2",
          "ticks": 102914,
          "time": 180.67758723437495,
          "velocity": 0.25984251968503935
        },
        {
          "duration": 0.16853925000000913,
          "durationTicks": 96,
          "midi": 52,
          "name": "E3",
          "ticks": 103010,
          "time": 180.84612648437496,
          "velocity": 0.25984251968503935
        },
        {
          "duration": 0.1685392499999807,
          "durationTicks": 96,
          "midi": 76,
          "name": "E5",
          "ticks": 103106,
          "time": 181.01466573437497,
          "velocity": 0.25984251968503935
        },
        {
          "duration": 0.1685392499999807,
          "durationTicks": 96,
          "midi": 59,
          "name": "B3",
          "ticks": 103106,
          "time": 181.01466573437497,
          "velocity": 0.25984251968503935
        },
        {
          "duration": 0.1685392499999807,
          "durationTicks": 96,
          "midi": 80,
          "name": "G#5",
          "ticks": 103106,
          "time": 181.01466573437497,
          "velocity": 0.25984251968503935
        },
        {
          "duration": 0.16853925000000913,
          "durationTicks": 96,
          "midi": 83,
          "name": "B5",
          "ticks": 103202,
          "time": 181.18320498437495,
          "velocity": 0.25984251968503935
        },
        {
          "duration": 0.16853925000000913,
          "durationTicks": 96,
          "midi": 80,
          "name": "G#5",
          "ticks": 103202,
          "time": 181.18320498437495,
          "velocity": 0.25984251968503935
        },
        {
          "duration": 0.16853925000000913,
          "durationTicks": 96,
          "midi": 60,
          "name": "C4",
          "ticks": 103202,
          "time": 181.18320498437495,
          "velocity": 0.25984251968503935
        },
        {
          "duration": 0.33707849999998984,
          "durationTicks": 192,
          "midi": 62,
          "name": "D4",
          "ticks": 103298,
          "time": 181.35174423437496,
          "velocity": 0.25984251968503935
        },
        {
          "duration": 0.1685392499999807,
          "durationTicks": 96,
          "midi": 76,
          "name": "E5",
          "ticks": 103394,
          "time": 181.52028348437497,
          "velocity": 0.25984251968503935
        },
        {
          "duration": 0.1685392499999807,
          "durationTicks": 96,
          "midi": 80,
          "name": "G#5",
          "ticks": 103394,
          "time": 181.52028348437497,
          "velocity": 0.25984251968503935
        },
        {
          "duration": 0.16853925000000913,
          "durationTicks": 96,
          "midi": 83,
          "name": "B5",
          "ticks": 103490,
          "time": 181.68882273437495,
          "velocity": 0.25984251968503935
        },
        {
          "duration": 0.33707850000001827,
          "durationTicks": 192,
          "midi": 56,
          "name": "G#3",
          "ticks": 103490,
          "time": 181.68882273437495,
          "velocity": 0.25984251968503935
        },
        {
          "duration": 0.16853925000000913,
          "durationTicks": 96,
          "midi": 80,
          "name": "G#5",
          "ticks": 103490,
          "time": 181.68882273437495,
          "velocity": 0.25984251968503935
        },
        {
          "duration": 0.16853925000000913,
          "durationTicks": 96,
          "midi": 80,
          "name": "G#5",
          "ticks": 103586,
          "time": 181.85736198437496,
          "velocity": 0.25984251968503935
        },
        {
          "duration": 0.16853925000000913,
          "durationTicks": 96,
          "midi": 76,
          "name": "E5",
          "ticks": 103586,
          "time": 181.85736198437496,
          "velocity": 0.25984251968503935
        },
        {
          "duration": 0.1685392499999807,
          "durationTicks": 96,
          "midi": 80,
          "name": "G#5",
          "ticks": 103682,
          "time": 182.02590123437497,
          "velocity": 0.25984251968503935
        },
        {
          "duration": 0.1685392499999807,
          "durationTicks": 96,
          "midi": 83,
          "name": "B5",
          "ticks": 103682,
          "time": 182.02590123437497,
          "velocity": 0.25984251968503935
        },
        {
          "duration": 0.1685392499999807,
          "durationTicks": 96,
          "midi": 40,
          "name": "E2",
          "ticks": 103682,
          "time": 182.02590123437497,
          "velocity": 0.25984251968503935
        },
        {
          "duration": 0.16853925000000913,
          "durationTicks": 96,
          "midi": 52,
          "name": "E3",
          "ticks": 103778,
          "time": 182.19444048437495,
          "velocity": 0.25984251968503935
        },
        {
          "duration": 0.16853925000000913,
          "durationTicks": 96,
          "midi": 54,
          "name": "F#3",
          "ticks": 103874,
          "time": 182.36297973437496,
          "velocity": 0.25984251968503935
        },
        {
          "duration": 0.16853925000000913,
          "durationTicks": 96,
          "midi": 80,
          "name": "G#5",
          "ticks": 103874,
          "time": 182.36297973437496,
          "velocity": 0.25984251968503935
        },
        {
          "duration": 0.16853925000000913,
          "durationTicks": 96,
          "midi": 76,
          "name": "E5",
          "ticks": 103874,
          "time": 182.36297973437496,
          "velocity": 0.25984251968503935
        },
        {
          "duration": 0.1685392499999807,
          "durationTicks": 96,
          "midi": 83,
          "name": "B5",
          "ticks": 103970,
          "time": 182.53151898437497,
          "velocity": 0.25984251968503935
        },
        {
          "duration": 0.1685392499999807,
          "durationTicks": 96,
          "midi": 56,
          "name": "G#3",
          "ticks": 103970,
          "time": 182.53151898437497,
          "velocity": 0.25984251968503935
        },
        {
          "duration": 0.1685392499999807,
          "durationTicks": 96,
          "midi": 80,
          "name": "G#5",
          "ticks": 103970,
          "time": 182.53151898437497,
          "velocity": 0.25984251968503935
        },
        {
          "duration": 0.33707850000001827,
          "durationTicks": 192,
          "midi": 57,
          "name": "A3",
          "ticks": 104066,
          "time": 182.70005823437495,
          "velocity": 0.25984251968503935
        },
        {
          "duration": 0.16853925000000913,
          "durationTicks": 96,
          "midi": 76,
          "name": "E5",
          "ticks": 104162,
          "time": 182.86859748437496,
          "velocity": 0.25984251968503935
        },
        {
          "duration": 0.16853925000000913,
          "durationTicks": 96,
          "midi": 80,
          "name": "G#5",
          "ticks": 104162,
          "time": 182.86859748437496,
          "velocity": 0.25984251968503935
        },
        {
          "duration": 0.1685392499999807,
          "durationTicks": 96,
          "midi": 83,
          "name": "B5",
          "ticks": 104258,
          "time": 183.03713673437497,
          "velocity": 0.25984251968503935
        },
        {
          "duration": 0.1685392499999807,
          "durationTicks": 96,
          "midi": 80,
          "name": "G#5",
          "ticks": 104258,
          "time": 183.03713673437497,
          "velocity": 0.25984251968503935
        },
        {
          "duration": 0.33707849999998984,
          "durationTicks": 192,
          "midi": 56,
          "name": "G#3",
          "ticks": 104258,
          "time": 183.03713673437497,
          "velocity": 0.25984251968503935
        },
        {
          "duration": 0.16853925000000913,
          "durationTicks": 96,
          "midi": 80,
          "name": "G#5",
          "ticks": 104354,
          "time": 183.20567598437495,
          "velocity": 0.25984251968503935
        },
        {
          "duration": 0.16853925000000913,
          "durationTicks": 96,
          "midi": 76,
          "name": "E5",
          "ticks": 104354,
          "time": 183.20567598437495,
          "velocity": 0.25984251968503935
        },
        {
          "duration": 2.528088749999995,
          "durationTicks": 1440,
          "midi": 76,
          "name": "E5",
          "ticks": 104450,
          "time": 183.37421523437496,
          "velocity": 0.2204724409448819
        },
        {
          "duration": 0.33707849999998984,
          "durationTicks": 192,
          "midi": 33,
          "name": "A1",
          "ticks": 104450,
          "time": 183.37421523437496,
          "velocity": 0.2204724409448819
        },
        {
          "duration": 0.16853925000000913,
          "durationTicks": 96,
          "midi": 84,
          "name": "C6",
          "ticks": 104450,
          "time": 183.37421523437496,
          "velocity": 0.2204724409448819
        },
        {
          "duration": 2.528088749999995,
          "durationTicks": 1440,
          "midi": 45,
          "name": "A2",
          "ticks": 104450,
          "time": 183.37421523437496,
          "velocity": 0.2204724409448819
        },
        {
          "duration": 0.16853925000000913,
          "durationTicks": 96,
          "midi": 81,
          "name": "A5",
          "ticks": 104450,
          "time": 183.37421523437496,
          "velocity": 0.2204724409448819
        },
        {
          "duration": 0.16853925000000913,
          "durationTicks": 96,
          "midi": 81,
          "name": "A5",
          "ticks": 104642,
          "time": 183.71129373437495,
          "velocity": 0.2204724409448819
        },
        {
          "duration": 0.8426962500000172,
          "durationTicks": 480,
          "midi": 33,
          "name": "A1",
          "ticks": 104642,
          "time": 183.71129373437495,
          "velocity": 0.2204724409448819
        },
        {
          "duration": 0.16853925000000913,
          "durationTicks": 96,
          "midi": 84,
          "name": "C6",
          "ticks": 104738,
          "time": 183.87983298437496,
          "velocity": 0.2204724409448819
        },
        {
          "duration": 0.16853925000000913,
          "durationTicks": 96,
          "midi": 81,
          "name": "A5",
          "ticks": 104738,
          "time": 183.87983298437496,
          "velocity": 0.2204724409448819
        },
        {
          "duration": 0.16853925000000913,
          "durationTicks": 96,
          "midi": 81,
          "name": "A5",
          "ticks": 104930,
          "time": 184.21691148437495,
          "velocity": 0.2204724409448819
        },
        {
          "duration": 0.16853925000000913,
          "durationTicks": 96,
          "midi": 84,
          "name": "C6",
          "ticks": 105026,
          "time": 184.38545073437496,
          "velocity": 0.2204724409448819
        },
        {
          "duration": 0.16853925000000913,
          "durationTicks": 96,
          "midi": 81,
          "name": "A5",
          "ticks": 105026,
          "time": 184.38545073437496,
          "velocity": 0.2204724409448819
        },
        {
          "duration": 0.33707849999998984,
          "durationTicks": 192,
          "midi": 33,
          "name": "A1",
          "ticks": 105122,
          "time": 184.55398998437497,
          "velocity": 0.2204724409448819
        },
        {
          "duration": 0.1685392499999807,
          "durationTicks": 96,
          "midi": 81,
          "name": "A5",
          "ticks": 105122,
          "time": 184.55398998437497,
          "velocity": 0.2204724409448819
        },
        {
          "duration": 0.16853925000000913,
          "durationTicks": 96,
          "midi": 84,
          "name": "C6",
          "ticks": 105218,
          "time": 184.72252923437495,
          "velocity": 0.2204724409448819
        },
        {
          "duration": 0.16853925000000913,
          "durationTicks": 96,
          "midi": 81,
          "name": "A5",
          "ticks": 105218,
          "time": 184.72252923437495,
          "velocity": 0.2204724409448819
        },
        {
          "duration": 0.505617749999999,
          "durationTicks": 288,
          "midi": 33,
          "name": "A1",
          "ticks": 105314,
          "time": 184.89106848437496,
          "velocity": 0.2204724409448819
        },
        {
          "duration": 0.1685392499999807,
          "durationTicks": 96,
          "midi": 81,
          "name": "A5",
          "ticks": 105410,
          "time": 185.05960773437496,
          "velocity": 0.2204724409448819
        },
        {
          "duration": 0.16853925000000913,
          "durationTicks": 96,
          "midi": 81,
          "name": "A5",
          "ticks": 105506,
          "time": 185.22814698437494,
          "velocity": 0.2204724409448819
        },
        {
          "duration": 0.16853925000000913,
          "durationTicks": 96,
          "midi": 84,
          "name": "C6",
          "ticks": 105506,
          "time": 185.22814698437494,
          "velocity": 0.2204724409448819
        },
        {
          "duration": 0.6741570000000081,
          "durationTicks": 384,
          "midi": 33,
          "name": "A1",
          "ticks": 105602,
          "time": 185.39668623437495,
          "velocity": 0.2204724409448819
        },
        {
          "duration": 0.16853925000000913,
          "durationTicks": 96,
          "midi": 81,
          "name": "A5",
          "ticks": 105698,
          "time": 185.56522548437496,
          "velocity": 0.2204724409448819
        },
        {
          "duration": 0.1685392499999807,
          "durationTicks": 96,
          "midi": 81,
          "name": "A5",
          "ticks": 105794,
          "time": 185.73376473437497,
          "velocity": 0.2204724409448819
        },
        {
          "duration": 0.1685392499999807,
          "durationTicks": 96,
          "midi": 84,
          "name": "C6",
          "ticks": 105794,
          "time": 185.73376473437497,
          "velocity": 0.2204724409448819
        },
        {
          "duration": 0.16853925000000913,
          "durationTicks": 96,
          "midi": 81,
          "name": "A5",
          "ticks": 105890,
          "time": 185.90230398437495,
          "velocity": 0.2204724409448819
        },
        {
          "duration": 0.16853925000000913,
          "durationTicks": 96,
          "midi": 81,
          "name": "A5",
          "ticks": 105986,
          "time": 186.07084323437496,
          "velocity": 0.2204724409448819
        },
        {
          "duration": 0.16853925000000913,
          "durationTicks": 96,
          "midi": 84,
          "name": "C6",
          "ticks": 105986,
          "time": 186.07084323437496,
          "velocity": 0.2204724409448819
        },
        {
          "duration": 2.528088749999995,
          "durationTicks": 1440,
          "midi": 41,
          "name": "F2",
          "ticks": 105986,
          "time": 186.07084323437496,
          "velocity": 0.2204724409448819
        },
        {
          "duration": 0.33707849999998984,
          "durationTicks": 192,
          "midi": 29,
          "name": "F1",
          "ticks": 105986,
          "time": 186.07084323437496,
          "velocity": 0.2204724409448819
        },
        {
          "duration": 1.3483139999999878,
          "durationTicks": 768,
          "midi": 77,
          "name": "F5",
          "ticks": 105986,
          "time": 186.07084323437496,
          "velocity": 0.2204724409448819
        },
        {
          "duration": 0.16853925000000913,
          "durationTicks": 96,
          "midi": 81,
          "name": "A5",
          "ticks": 106178,
          "time": 186.40792173437495,
          "velocity": 0.2204724409448819
        },
        {
          "duration": 0.8426962500000172,
          "durationTicks": 480,
          "midi": 29,
          "name": "F1",
          "ticks": 106178,
          "time": 186.40792173437495,
          "velocity": 0.2204724409448819
        },
        {
          "duration": 0.16853925000000913,
          "durationTicks": 96,
          "midi": 81,
          "name": "A5",
          "ticks": 106274,
          "time": 186.57646098437496,
          "velocity": 0.2204724409448819
        },
        {
          "duration": 0.16853925000000913,
          "durationTicks": 96,
          "midi": 84,
          "name": "C6",
          "ticks": 106274,
          "time": 186.57646098437496,
          "velocity": 0.2204724409448819
        },
        {
          "duration": 0.16853925000000913,
          "durationTicks": 96,
          "midi": 81,
          "name": "A5",
          "ticks": 106466,
          "time": 186.91353948437495,
          "velocity": 0.2204724409448819
        },
        {
          "duration": 0.16853925000000913,
          "durationTicks": 96,
          "midi": 84,
          "name": "C6",
          "ticks": 106562,
          "time": 187.08207873437496,
          "velocity": 0.2204724409448819
        },
        {
          "duration": 0.16853925000000913,
          "durationTicks": 96,
          "midi": 81,
          "name": "A5",
          "ticks": 106562,
          "time": 187.08207873437496,
          "velocity": 0.2204724409448819
        },
        {
          "duration": 0.1685392499999807,
          "durationTicks": 96,
          "midi": 81,
          "name": "A5",
          "ticks": 106658,
          "time": 187.25061798437497,
          "velocity": 0.2204724409448819
        },
        {
          "duration": 0.33707849999998984,
          "durationTicks": 192,
          "midi": 29,
          "name": "F1",
          "ticks": 106658,
          "time": 187.25061798437497,
          "velocity": 0.2204724409448819
        },
        {
          "duration": 0.16853925000000913,
          "durationTicks": 96,
          "midi": 84,
          "name": "C6",
          "ticks": 106754,
          "time": 187.41915723437495,
          "velocity": 0.2204724409448819
        },
        {
          "duration": 0.16853925000000913,
          "durationTicks": 96,
          "midi": 81,
          "name": "A5",
          "ticks": 106754,
          "time": 187.41915723437495,
          "velocity": 0.2204724409448819
        },
        {
          "duration": 1.3483140000000162,
          "durationTicks": 768,
          "midi": 72,
          "name": "C5",
          "ticks": 106754,
          "time": 187.41915723437495,
          "velocity": 0.2204724409448819
        },
        {
          "duration": 0.505617749999999,
          "durationTicks": 288,
          "midi": 29,
          "name": "F1",
          "ticks": 106850,
          "time": 187.58769648437496,
          "velocity": 0.2204724409448819
        },
        {
          "duration": 0.33707849999998984,
          "durationTicks": 192,
          "midi": 29,
          "name": "F1",
          "ticks": 107138,
          "time": 188.09331423437496,
          "velocity": 0.2204724409448819
        },
        {
          "duration": 0.16853925000000913,
          "durationTicks": 96,
          "midi": 29,
          "name": "F1",
          "ticks": 107330,
          "time": 188.43039273437495,
          "velocity": 0.2204724409448819
        },
        {
          "duration": 0.16853925000000913,
          "durationTicks": 96,
          "midi": 29,
          "name": "F1",
          "ticks": 107426,
          "time": 188.59893198437496,
          "velocity": 0.2204724409448819
        },
        {
          "duration": 2.528088749999995,
          "durationTicks": 1440,
          "midi": 43,
          "name": "G2",
          "ticks": 107522,
          "time": 188.76747123437497,
          "velocity": 0.2204724409448819
        },
        {
          "duration": 2.528088749999995,
          "durationTicks": 1440,
          "midi": 71,
          "name": "B4",
          "ticks": 107522,
          "time": 188.76747123437497,
          "velocity": 0.2204724409448819
        },
        {
          "duration": 0.33707849999998984,
          "durationTicks": 192,
          "midi": 31,
          "name": "G1",
          "ticks": 107522,
          "time": 188.76747123437497,
          "velocity": 0.2204724409448819
        },
        {
          "duration": 0.8426962499999888,
          "durationTicks": 480,
          "midi": 31,
          "name": "G1",
          "ticks": 107714,
          "time": 189.10454973437496,
          "velocity": 0.2204724409448819
        },
        {
          "duration": 0.33707850000001827,
          "durationTicks": 192,
          "midi": 31,
          "name": "G1",
          "ticks": 108194,
          "time": 189.94724598437494,
          "velocity": 0.2204724409448819
        },
        {
          "duration": 0.505617749999999,
          "durationTicks": 288,
          "midi": 31,
          "name": "G1",
          "ticks": 108386,
          "time": 190.28432448437496,
          "velocity": 0.2204724409448819
        },
        {
          "duration": 0.6741570000000081,
          "durationTicks": 384,
          "midi": 31,
          "name": "G1",
          "ticks": 108674,
          "time": 190.78994223437496,
          "velocity": 0.2204724409448819
        },
        {
          "duration": 0.33707849999998984,
          "durationTicks": 192,
          "midi": 28,
          "name": "E1",
          "ticks": 109058,
          "time": 191.46409923437497,
          "velocity": 0.2204724409448819
        },
        {
          "duration": 7.752805499999994,
          "durationTicks": 4416,
          "midi": 74,
          "name": "D5",
          "ticks": 109058,
          "time": 191.46409923437497,
          "velocity": 0.2204724409448819
        },
        {
          "duration": 7.752805499999994,
          "durationTicks": 4416,
          "midi": 40,
          "name": "E2",
          "ticks": 109058,
          "time": 191.46409923437497,
          "velocity": 0.2204724409448819
        },
        {
          "duration": 0.8426962499999888,
          "durationTicks": 480,
          "midi": 28,
          "name": "E1",
          "ticks": 109250,
          "time": 191.80117773437496,
          "velocity": 0.2204724409448819
        },
        {
          "duration": 0.33707850000001827,
          "durationTicks": 192,
          "midi": 28,
          "name": "E1",
          "ticks": 109730,
          "time": 192.64387398437495,
          "velocity": 0.2204724409448819
        },
        {
          "duration": 0.505617749999999,
          "durationTicks": 288,
          "midi": 28,
          "name": "E1",
          "ticks": 109922,
          "time": 192.98095248437497,
          "velocity": 0.2204724409448819
        },
        {
          "duration": 5.730334499999998,
          "durationTicks": 3264,
          "midi": 28,
          "name": "E1",
          "ticks": 110210,
          "time": 193.48657023437497,
          "velocity": 0.2204724409448819
        }
      ],
      "endOfTrackTicks": 113474
    }
  ]
}
