{
    "header": {
      "keySignatures": [],
      "meta": [],
      "name": "",
      "ppq": 384,
      "tempos": [
        {
          "bpm": 47.00002741668266,
          "ticks": 0
        }
      ],
      "timeSignatures": [
        {
          "ticks": 0,
          "timeSignature": [
            1,
            4
          ],
          "measures": 0
        }
      ]
    },
    "tracks": [
      {
        "channel": 0,
        "controlChanges": {},
        "pitchBends": [],
        "instrument": {
          "family": "piano",
          "number": 0,
          "name": "acoustic grand piano"
        },
        "name": "Elec. Piano (Classic)",
        "notes": [
          {
            "duration": 7.659570000000002,
            "durationTicks": 2304,
            "midi": 31,
            "name": "G1",
            "ticks": 12288,
            "time": 40.85104,
            "velocity": 0.3937007874015748
          }
        ],
        "endOfTrackTicks": 14592
      },
      {
        "channel": 1,
        "controlChanges": {},
        "pitchBends": [],
        "instrument": {
          "family": "guitar",
          "number": 24,
          "name": "acoustic guitar (nylon)"
        },
        "name": "Acoustic Guitar",
        "notes": [
          {
            "duration": 0.4787231249999948,
            "durationTicks": 144,
            "midi": 55,
            "name": "G3",
            "ticks": 14976,
            "time": 49.787205,
            "velocity": 0.15748031496062992
          },
          {
            "duration": 0.15957437500000538,
            "durationTicks": 48,
            "midi": 55,
            "name": "G3",
            "ticks": 15120,
            "time": 50.265928124999995,
            "velocity": 0.15748031496062992
          },
          {
            "duration": 0.15957437499999827,
            "durationTicks": 48,
            "midi": 62,
            "name": "D4",
            "ticks": 15168,
            "time": 50.4255025,
            "velocity": 0.15748031496062992
          },
          {
            "duration": 0.15957437499999827,
            "durationTicks": 48,
            "midi": 67,
            "name": "G4",
            "ticks": 15216,
            "time": 50.585076875,
            "velocity": 0.15748031496062992
          },
          {
            "duration": 0.31914875000000364,
            "durationTicks": 96,
            "midi": 66,
            "name": "F#4",
            "ticks": 15264,
            "time": 50.74465125,
            "velocity": 0.15748031496062992
          },
          {
            "duration": 0.31914874999999654,
            "durationTicks": 96,
            "midi": 62,
            "name": "D4",
            "ticks": 15360,
            "time": 51.0638,
            "velocity": 0.15748031496062992
          },
          {
            "duration": 0.4787231249999948,
            "durationTicks": 144,
            "midi": 55,
            "name": "G3",
            "ticks": 15360,
            "time": 51.0638,
            "velocity": 0.047244094488188976
          },
          {
            "duration": 0.15957437499999827,
            "durationTicks": 48,
            "midi": 55,
            "name": "G3",
            "ticks": 15504,
            "time": 51.542523124999995,
            "velocity": 0.047244094488188976
          },
          {
            "duration": 0.15957437500000538,
            "durationTicks": 48,
            "midi": 62,
            "name": "D4",
            "ticks": 15552,
            "time": 51.702097499999994,
            "velocity": 0.047244094488188976
          },
          {
            "duration": 0.15957437499999827,
            "durationTicks": 48,
            "midi": 67,
            "name": "G4",
            "ticks": 15600,
            "time": 51.861671875,
            "velocity": 0.047244094488188976
          },
          {
            "duration": 0.31914874999999654,
            "durationTicks": 96,
            "midi": 66,
            "name": "F#4",
            "ticks": 15648,
            "time": 52.02124625,
            "velocity": 0.047244094488188976
          },
          {
            "duration": 0.31914875000000364,
            "durationTicks": 96,
            "midi": 62,
            "name": "D4",
            "ticks": 15744,
            "time": 52.340394999999994,
            "velocity": 0.047244094488188976
          },
          {
            "duration": 0.4787231250000019,
            "durationTicks": 144,
            "midi": 55,
            "name": "G3",
            "ticks": 15744,
            "time": 52.340394999999994,
            "velocity": 0.015748031496062992
          },
          {
            "duration": 0.15957437499999827,
            "durationTicks": 48,
            "midi": 55,
            "name": "G3",
            "ticks": 15888,
            "time": 52.819118124999996,
            "velocity": 0.015748031496062992
          },
          {
            "duration": 0.15957437500000538,
            "durationTicks": 48,
            "midi": 62,
            "name": "D4",
            "ticks": 15936,
            "time": 52.978692499999994,
            "velocity": 0.015748031496062992
          },
          {
            "duration": 0.15957437499999827,
            "durationTicks": 48,
            "midi": 67,
            "name": "G4",
            "ticks": 15984,
            "time": 53.138266875,
            "velocity": 0.015748031496062992
          },
          {
            "duration": 0.31914874999999654,
            "durationTicks": 96,
            "midi": 66,
            "name": "F#4",
            "ticks": 16032,
            "time": 53.29784125,
            "velocity": 0.015748031496062992
          },
          {
            "duration": 0.4787231250000019,
            "durationTicks": 144,
            "midi": 55,
            "name": "G3",
            "ticks": 16128,
            "time": 53.616989999999994,
            "velocity": 0.015748031496062992
          },
          {
            "duration": 0.31914875000000364,
            "durationTicks": 96,
            "midi": 62,
            "name": "D4",
            "ticks": 16128,
            "time": 53.616989999999994,
            "velocity": 0.015748031496062992
          },
          {
            "duration": 0.15957437499999827,
            "durationTicks": 48,
            "midi": 55,
            "name": "G3",
            "ticks": 16272,
            "time": 54.095713124999996,
            "velocity": 0.015748031496062992
          },
          {
            "duration": 0.15957437500000538,
            "durationTicks": 48,
            "midi": 62,
            "name": "D4",
            "ticks": 16320,
            "time": 54.255287499999994,
            "velocity": 0.015748031496062992
          },
          {
            "duration": 0.15957437499999827,
            "durationTicks": 48,
            "midi": 67,
            "name": "G4",
            "ticks": 16368,
            "time": 54.414861875,
            "velocity": 0.015748031496062992
          },
          {
            "duration": 0.31914874999999654,
            "durationTicks": 96,
            "midi": 66,
            "name": "F#4",
            "ticks": 16416,
            "time": 54.57443625,
            "velocity": 0.015748031496062992
          },
          {
            "duration": 0.31914875000000364,
            "durationTicks": 96,
            "midi": 62,
            "name": "D4",
            "ticks": 16512,
            "time": 54.893584999999995,
            "velocity": 0.015748031496062992
          }
        ],
        "endOfTrackTicks": 16608
      },
      {
        "channel": 2,
        "controlChanges": {},
        "pitchBends": [],
        "instrument": {
          "family": "synth lead",
          "number": 80,
          "name": "lead 1 (square)"
        },
        "name": "Smooth Synth",
        "notes": [
          {
            "duration": 0.15957437499999827,
            "durationTicks": 48,
            "midi": 31,
            "name": "G1",
            "ticks": 12288,
            "time": 40.85104,
            "velocity": 0.2204724409448819
          },
          {
            "duration": 0.15957437499999827,
            "durationTicks": 48,
            "midi": 31,
            "name": "G1",
            "ticks": 12336,
            "time": 41.010614374999996,
            "velocity": 0.2204724409448819
          },
          {
            "duration": 0.15957437500000538,
            "durationTicks": 48,
            "midi": 31,
            "name": "G1",
            "ticks": 12384,
            "time": 41.170188749999994,
            "velocity": 0.2204724409448819
          },
          {
            "duration": 0.15957437499999827,
            "durationTicks": 48,
            "midi": 31,
            "name": "G1",
            "ticks": 12432,
            "time": 41.329763125,
            "velocity": 0.2204724409448819
          },
          {
            "duration": 0.15957437499999827,
            "durationTicks": 48,
            "midi": 31,
            "name": "G1",
            "ticks": 12480,
            "time": 41.4893375,
            "velocity": 0.2204724409448819
          },
          {
            "duration": 0.15957437499999827,
            "durationTicks": 48,
            "midi": 31,
            "name": "G1",
            "ticks": 12528,
            "time": 41.648911874999996,
            "velocity": 0.2204724409448819
          },
          {
            "duration": 0.15957437500000538,
            "durationTicks": 48,
            "midi": 31,
            "name": "G1",
            "ticks": 12576,
            "time": 41.808486249999994,
            "velocity": 0.2204724409448819
          },
          {
            "duration": 0.15957437499999827,
            "durationTicks": 48,
            "midi": 31,
            "name": "G1",
            "ticks": 12624,
            "time": 41.968060625,
            "velocity": 0.2204724409448819
          },
          {
            "duration": 0.15957437499999827,
            "durationTicks": 48,
            "midi": 31,
            "name": "G1",
            "ticks": 12672,
            "time": 42.127635,
            "velocity": 0.2204724409448819
          },
          {
            "duration": 0.15957437499999827,
            "durationTicks": 48,
            "midi": 31,
            "name": "G1",
            "ticks": 12720,
            "time": 42.287209374999996,
            "velocity": 0.2204724409448819
          },
          {
            "duration": 0.15957437500000538,
            "durationTicks": 48,
            "midi": 31,
            "name": "G1",
            "ticks": 12768,
            "time": 42.446783749999994,
            "velocity": 0.2204724409448819
          },
          {
            "duration": 0.15957437499999827,
            "durationTicks": 48,
            "midi": 31,
            "name": "G1",
            "ticks": 12816,
            "time": 42.606358125,
            "velocity": 0.2204724409448819
          },
          {
            "duration": 0.15957437499999827,
            "durationTicks": 48,
            "midi": 31,
            "name": "G1",
            "ticks": 12864,
            "time": 42.7659325,
            "velocity": 0.2204724409448819
          },
          {
            "duration": 0.15957437499999827,
            "durationTicks": 48,
            "midi": 31,
            "name": "G1",
            "ticks": 12912,
            "time": 42.925506874999996,
            "velocity": 0.2204724409448819
          },
          {
            "duration": 0.15957437500000538,
            "durationTicks": 48,
            "midi": 31,
            "name": "G1",
            "ticks": 12960,
            "time": 43.085081249999995,
            "velocity": 0.2204724409448819
          },
          {
            "duration": 0.15957437499999827,
            "durationTicks": 48,
            "midi": 31,
            "name": "G1",
            "ticks": 13008,
            "time": 43.244655625,
            "velocity": 0.2204724409448819
          },
          {
            "duration": 0.15957437499999827,
            "durationTicks": 48,
            "midi": 31,
            "name": "G1",
            "ticks": 13056,
            "time": 43.40423,
            "velocity": 0.2204724409448819
          },
          {
            "duration": 0.15957437499999827,
            "durationTicks": 48,
            "midi": 31,
            "name": "G1",
            "ticks": 13104,
            "time": 43.563804375,
            "velocity": 0.2204724409448819
          },
          {
            "duration": 0.15957437500000538,
            "durationTicks": 48,
            "midi": 31,
            "name": "G1",
            "ticks": 13152,
            "time": 43.723378749999995,
            "velocity": 0.2204724409448819
          },
          {
            "duration": 0.15957437499999827,
            "durationTicks": 48,
            "midi": 31,
            "name": "G1",
            "ticks": 13200,
            "time": 43.882953125,
            "velocity": 0.2204724409448819
          },
          {
            "duration": 0.15957437499999827,
            "durationTicks": 48,
            "midi": 31,
            "name": "G1",
            "ticks": 13248,
            "time": 44.0425275,
            "velocity": 0.2204724409448819
          },
          {
            "duration": 0.15957437499999827,
            "durationTicks": 48,
            "midi": 31,
            "name": "G1",
            "ticks": 13296,
            "time": 44.202101875,
            "velocity": 0.2204724409448819
          },
          {
            "duration": 0.15957437500000538,
            "durationTicks": 48,
            "midi": 31,
            "name": "G1",
            "ticks": 13344,
            "time": 44.361676249999995,
            "velocity": 0.2204724409448819
          },
          {
            "duration": 0.15957437499999827,
            "durationTicks": 48,
            "midi": 31,
            "name": "G1",
            "ticks": 13392,
            "time": 44.521250625,
            "velocity": 0.2204724409448819
          },
          {
            "duration": 0.15957437499999827,
            "durationTicks": 48,
            "midi": 31,
            "name": "G1",
            "ticks": 13440,
            "time": 44.680825,
            "velocity": 0.2204724409448819
          },
          {
            "duration": 0.15957437499999827,
            "durationTicks": 48,
            "midi": 31,
            "name": "G1",
            "ticks": 13488,
            "time": 44.840399375,
            "velocity": 0.2204724409448819
          },
          {
            "duration": 0.15957437500000538,
            "durationTicks": 48,
            "midi": 31,
            "name": "G1",
            "ticks": 13536,
            "time": 44.999973749999995,
            "velocity": 0.2204724409448819
          },
          {
            "duration": 0.15957437499999827,
            "durationTicks": 48,
            "midi": 31,
            "name": "G1",
            "ticks": 13584,
            "time": 45.159548125,
            "velocity": 0.2204724409448819
          },
          {
            "duration": 0.15957437499999827,
            "durationTicks": 48,
            "midi": 31,
            "name": "G1",
            "ticks": 13632,
            "time": 45.3191225,
            "velocity": 0.2204724409448819
          },
          {
            "duration": 0.15957437499999827,
            "durationTicks": 48,
            "midi": 31,
            "name": "G1",
            "ticks": 13680,
            "time": 45.478696875,
            "velocity": 0.2204724409448819
          },
          {
            "duration": 0.15957437500000538,
            "durationTicks": 48,
            "midi": 31,
            "name": "G1",
            "ticks": 13728,
            "time": 45.638271249999995,
            "velocity": 0.2204724409448819
          },
          {
            "duration": 0.15957437499999827,
            "durationTicks": 48,
            "midi": 31,
            "name": "G1",
            "ticks": 13776,
            "time": 45.797845625,
            "velocity": 0.2204724409448819
          },
          {
            "duration": 0.15957437499999827,
            "durationTicks": 48,
            "midi": 31,
            "name": "G1",
            "ticks": 13824,
            "time": 45.95742,
            "velocity": 0.2204724409448819
          },
          {
            "duration": 0.15957437499999827,
            "durationTicks": 48,
            "midi": 31,
            "name": "G1",
            "ticks": 13872,
            "time": 46.116994375,
            "velocity": 0.2204724409448819
          },
          {
            "duration": 0.15957437499999827,
            "durationTicks": 48,
            "midi": 31,
            "name": "G1",
            "ticks": 13920,
            "time": 46.276568749999996,
            "velocity": 0.2204724409448819
          },
          {
            "duration": 0.15957437500000538,
            "durationTicks": 48,
            "midi": 31,
            "name": "G1",
            "ticks": 13968,
            "time": 46.436143124999994,
            "velocity": 0.2204724409448819
          },
          {
            "duration": 0.15957437499999827,
            "durationTicks": 48,
            "midi": 31,
            "name": "G1",
            "ticks": 14016,
            "time": 46.5957175,
            "velocity": 0.2204724409448819
          },
          {
            "duration": 0.15957437499999827,
            "durationTicks": 48,
            "midi": 31,
            "name": "G1",
            "ticks": 14064,
            "time": 46.755291875,
            "velocity": 0.2204724409448819
          },
          {
            "duration": 0.15957437499999827,
            "durationTicks": 48,
            "midi": 31,
            "name": "G1",
            "ticks": 14112,
            "time": 46.914866249999996,
            "velocity": 0.2204724409448819
          },
          {
            "duration": 0.15957437500000538,
            "durationTicks": 48,
            "midi": 31,
            "name": "G1",
            "ticks": 14160,
            "time": 47.074440624999994,
            "velocity": 0.2204724409448819
          },
          {
            "duration": 0.15957437499999827,
            "durationTicks": 48,
            "midi": 31,
            "name": "G1",
            "ticks": 14208,
            "time": 47.234015,
            "velocity": 0.2204724409448819
          },
          {
            "duration": 0.15957437499999827,
            "durationTicks": 48,
            "midi": 31,
            "name": "G1",
            "ticks": 14256,
            "time": 47.393589375,
            "velocity": 0.2204724409448819
          },
          {
            "duration": 0.15957437499999827,
            "durationTicks": 48,
            "midi": 31,
            "name": "G1",
            "ticks": 14304,
            "time": 47.553163749999996,
            "velocity": 0.2204724409448819
          },
          {
            "duration": 0.15957437500000538,
            "durationTicks": 48,
            "midi": 31,
            "name": "G1",
            "ticks": 14352,
            "time": 47.712738124999994,
            "velocity": 0.2204724409448819
          },
          {
            "duration": 0.15957437499999827,
            "durationTicks": 48,
            "midi": 31,
            "name": "G1",
            "ticks": 14400,
            "time": 47.8723125,
            "velocity": 0.2204724409448819
          },
          {
            "duration": 0.15957437499999827,
            "durationTicks": 48,
            "midi": 31,
            "name": "G1",
            "ticks": 14448,
            "time": 48.031886875,
            "velocity": 0.2204724409448819
          },
          {
            "duration": 0.15957437499999827,
            "durationTicks": 48,
            "midi": 31,
            "name": "G1",
            "ticks": 14496,
            "time": 48.191461249999996,
            "velocity": 0.2204724409448819
          },
          {
            "duration": 0.15957437500000538,
            "durationTicks": 48,
            "midi": 31,
            "name": "G1",
            "ticks": 14544,
            "time": 48.351035624999994,
            "velocity": 0.2204724409448819
          },
          {
            "duration": 0.15957437499999827,
            "durationTicks": 48,
            "midi": 31,
            "name": "G1",
            "ticks": 14592,
            "time": 48.51061,
            "velocity": 0.2204724409448819
          },
          {
            "duration": 0.15957437499999827,
            "durationTicks": 48,
            "midi": 31,
            "name": "G1",
            "ticks": 14640,
            "time": 48.670184375,
            "velocity": 0.2204724409448819
          },
          {
            "duration": 0.15957437499999827,
            "durationTicks": 48,
            "midi": 31,
            "name": "G1",
            "ticks": 14688,
            "time": 48.829758749999996,
            "velocity": 0.2204724409448819
          },
          {
            "duration": 0.15957437500000538,
            "durationTicks": 48,
            "midi": 31,
            "name": "G1",
            "ticks": 14736,
            "time": 48.989333124999995,
            "velocity": 0.2204724409448819
          },
          {
            "duration": 0.15957437499999827,
            "durationTicks": 48,
            "midi": 31,
            "name": "G1",
            "ticks": 14784,
            "time": 49.1489075,
            "velocity": 0.2204724409448819
          },
          {
            "duration": 0.15957437499999827,
            "durationTicks": 48,
            "midi": 31,
            "name": "G1",
            "ticks": 14832,
            "time": 49.308481875,
            "velocity": 0.2204724409448819
          },
          {
            "duration": 0.15957437499999827,
            "durationTicks": 48,
            "midi": 31,
            "name": "G1",
            "ticks": 14880,
            "time": 49.46805625,
            "velocity": 0.2204724409448819
          },
          {
            "duration": 0.15957437500000538,
            "durationTicks": 48,
            "midi": 31,
            "name": "G1",
            "ticks": 14928,
            "time": 49.627630624999995,
            "velocity": 0.2204724409448819
          },
          {
            "duration": 0.15957437499999827,
            "durationTicks": 48,
            "midi": 31,
            "name": "G1",
            "ticks": 14976,
            "time": 49.787205,
            "velocity": 0.2204724409448819
          },
          {
            "duration": 0.15957437499999827,
            "durationTicks": 48,
            "midi": 31,
            "name": "G1",
            "ticks": 15024,
            "time": 49.946779375,
            "velocity": 0.2204724409448819
          },
          {
            "duration": 0.15957437499999827,
            "durationTicks": 48,
            "midi": 31,
            "name": "G1",
            "ticks": 15072,
            "time": 50.10635375,
            "velocity": 0.2204724409448819
          },
          {
            "duration": 0.15957437500000538,
            "durationTicks": 48,
            "midi": 31,
            "name": "G1",
            "ticks": 15120,
            "time": 50.265928124999995,
            "velocity": 0.2204724409448819
          },
          {
            "duration": 0.15957437499999827,
            "durationTicks": 48,
            "midi": 31,
            "name": "G1",
            "ticks": 15168,
            "time": 50.4255025,
            "velocity": 0.2204724409448819
          },
          {
            "duration": 0.15957437499999827,
            "durationTicks": 48,
            "midi": 31,
            "name": "G1",
            "ticks": 15216,
            "time": 50.585076875,
            "velocity": 0.2204724409448819
          },
          {
            "duration": 0.15957437499999827,
            "durationTicks": 48,
            "midi": 31,
            "name": "G1",
            "ticks": 15264,
            "time": 50.74465125,
            "velocity": 0.2204724409448819
          },
          {
            "duration": 0.15957437500000538,
            "durationTicks": 48,
            "midi": 31,
            "name": "G1",
            "ticks": 15312,
            "time": 50.904225624999995,
            "velocity": 0.2204724409448819
          },
          {
            "duration": 0.15957437499999827,
            "durationTicks": 48,
            "midi": 31,
            "name": "G1",
            "ticks": 15360,
            "time": 51.0638,
            "velocity": 0.2204724409448819
          },
          {
            "duration": 0.15957437499999827,
            "durationTicks": 48,
            "midi": 31,
            "name": "G1",
            "ticks": 15408,
            "time": 51.223374375,
            "velocity": 0.2204724409448819
          },
          {
            "duration": 0.15957437499999827,
            "durationTicks": 48,
            "midi": 31,
            "name": "G1",
            "ticks": 15456,
            "time": 51.38294875,
            "velocity": 0.2204724409448819
          },
          {
            "duration": 0.15957437499999827,
            "durationTicks": 48,
            "midi": 31,
            "name": "G1",
            "ticks": 15504,
            "time": 51.542523124999995,
            "velocity": 0.2204724409448819
          },
          {
            "duration": 0.15957437500000538,
            "durationTicks": 48,
            "midi": 31,
            "name": "G1",
            "ticks": 15552,
            "time": 51.702097499999994,
            "velocity": 0.2204724409448819
          },
          {
            "duration": 0.15957437499999827,
            "durationTicks": 48,
            "midi": 31,
            "name": "G1",
            "ticks": 15600,
            "time": 51.861671875,
            "velocity": 0.2204724409448819
          },
          {
            "duration": 0.15957437499999827,
            "durationTicks": 48,
            "midi": 31,
            "name": "G1",
            "ticks": 15648,
            "time": 52.02124625,
            "velocity": 0.2204724409448819
          },
          {
            "duration": 0.15957437499999827,
            "durationTicks": 48,
            "midi": 31,
            "name": "G1",
            "ticks": 15696,
            "time": 52.180820624999996,
            "velocity": 0.2204724409448819
          },
          {
            "duration": 0.15957437500000538,
            "durationTicks": 48,
            "midi": 31,
            "name": "G1",
            "ticks": 15744,
            "time": 52.340394999999994,
            "velocity": 0.2204724409448819
          },
          {
            "duration": 0.15957437499999827,
            "durationTicks": 48,
            "midi": 31,
            "name": "G1",
            "ticks": 15792,
            "time": 52.499969375,
            "velocity": 0.2204724409448819
          },
          {
            "duration": 0.15957437499999827,
            "durationTicks": 48,
            "midi": 31,
            "name": "G1",
            "ticks": 15840,
            "time": 52.65954375,
            "velocity": 0.2204724409448819
          },
          {
            "duration": 0.15957437499999827,
            "durationTicks": 48,
            "midi": 31,
            "name": "G1",
            "ticks": 15888,
            "time": 52.819118124999996,
            "velocity": 0.2204724409448819
          },
          {
            "duration": 0.15957437500000538,
            "durationTicks": 48,
            "midi": 31,
            "name": "G1",
            "ticks": 15936,
            "time": 52.978692499999994,
            "velocity": 0.2204724409448819
          },
          {
            "duration": 0.15957437499999827,
            "durationTicks": 48,
            "midi": 31,
            "name": "G1",
            "ticks": 15984,
            "time": 53.138266875,
            "velocity": 0.2204724409448819
          },
          {
            "duration": 0.15957437499999827,
            "durationTicks": 48,
            "midi": 31,
            "name": "G1",
            "ticks": 16032,
            "time": 53.29784125,
            "velocity": 0.2204724409448819
          },
          {
            "duration": 0.15957437499999827,
            "durationTicks": 48,
            "midi": 31,
            "name": "G1",
            "ticks": 16080,
            "time": 53.457415624999996,
            "velocity": 0.2204724409448819
          },
          {
            "duration": 0.15957437500000538,
            "durationTicks": 48,
            "midi": 31,
            "name": "G1",
            "ticks": 16128,
            "time": 53.616989999999994,
            "velocity": 0.2204724409448819
          },
          {
            "duration": 0.15957437499999827,
            "durationTicks": 48,
            "midi": 31,
            "name": "G1",
            "ticks": 16176,
            "time": 53.776564375,
            "velocity": 0.2204724409448819
          },
          {
            "duration": 0.15957437499999827,
            "durationTicks": 48,
            "midi": 31,
            "name": "G1",
            "ticks": 16224,
            "time": 53.93613875,
            "velocity": 0.2204724409448819
          },
          {
            "duration": 0.15957437499999827,
            "durationTicks": 48,
            "midi": 31,
            "name": "G1",
            "ticks": 16272,
            "time": 54.095713124999996,
            "velocity": 0.2204724409448819
          },
          {
            "duration": 0.15957437500000538,
            "durationTicks": 48,
            "midi": 31,
            "name": "G1",
            "ticks": 16320,
            "time": 54.255287499999994,
            "velocity": 0.2204724409448819
          },
          {
            "duration": 0.15957437499999827,
            "durationTicks": 48,
            "midi": 31,
            "name": "G1",
            "ticks": 16368,
            "time": 54.414861875,
            "velocity": 0.2204724409448819
          },
          {
            "duration": 0.15957437499999827,
            "durationTicks": 48,
            "midi": 31,
            "name": "G1",
            "ticks": 16416,
            "time": 54.57443625,
            "velocity": 0.2204724409448819
          },
          {
            "duration": 0.15957437499999827,
            "durationTicks": 48,
            "midi": 31,
            "name": "G1",
            "ticks": 16464,
            "time": 54.734010624999996,
            "velocity": 0.2204724409448819
          },
          {
            "duration": 0.15957437500000538,
            "durationTicks": 48,
            "midi": 31,
            "name": "G1",
            "ticks": 16512,
            "time": 54.893584999999995,
            "velocity": 0.2204724409448819
          },
          {
            "duration": 0.15957437499999827,
            "durationTicks": 48,
            "midi": 31,
            "name": "G1",
            "ticks": 16560,
            "time": 55.053159375,
            "velocity": 0.2204724409448819
          },
          {
            "duration": 0.15957437499999827,
            "durationTicks": 48,
            "midi": 31,
            "name": "G1",
            "ticks": 16608,
            "time": 55.21273375,
            "velocity": 0.2204724409448819
          },
          {
            "duration": 0.15957437499999827,
            "durationTicks": 48,
            "midi": 31,
            "name": "G1",
            "ticks": 16656,
            "time": 55.372308124999996,
            "velocity": 0.2204724409448819
          },
          {
            "duration": 0.15957437500000538,
            "durationTicks": 48,
            "midi": 31,
            "name": "G1",
            "ticks": 16704,
            "time": 55.531882499999995,
            "velocity": 0.2204724409448819
          },
          {
            "duration": 0.15957437499999827,
            "durationTicks": 48,
            "midi": 31,
            "name": "G1",
            "ticks": 16752,
            "time": 55.691456875,
            "velocity": 0.2204724409448819
          },
          {
            "duration": 0.15957437499999827,
            "durationTicks": 48,
            "midi": 31,
            "name": "G1",
            "ticks": 16800,
            "time": 55.85103125,
            "velocity": 0.2204724409448819
          },
          {
            "duration": 0.15957437499999827,
            "durationTicks": 48,
            "midi": 31,
            "name": "G1",
            "ticks": 16848,
            "time": 56.010605625,
            "velocity": 0.2204724409448819
          }
        ],
        "endOfTrackTicks": 16896
      },
      {
        "channel": 3,
        "controlChanges": {},
        "pitchBends": [],
        "instrument": {
          "family": "synth lead",
          "number": 80,
          "name": "lead 1 (square)"
        },
        "name": "8-Bit Square",
        "notes": [
          {
            "duration": 1.276595,
            "durationTicks": 384,
            "midi": 31,
            "name": "G1",
            "ticks": 0,
            "time": 0,
            "velocity": 0.1968503937007874
          },
          {
            "duration": 1.276595,
            "durationTicks": 384,
            "midi": 67,
            "name": "G4",
            "ticks": 0,
            "time": 0,
            "velocity": 0.1968503937007874
          },
          {
            "duration": 1.276595,
            "durationTicks": 384,
            "midi": 43,
            "name": "G2",
            "ticks": 0,
            "time": 0,
            "velocity": 0.1968503937007874
          },
          {
            "duration": 1.276595,
            "durationTicks": 384,
            "midi": 55,
            "name": "G3",
            "ticks": 0,
            "time": 0,
            "velocity": 0.1968503937007874
          },
          {
            "duration": 0.31914875,
            "durationTicks": 96,
            "midi": 79,
            "name": "G5",
            "ticks": 96,
            "time": 0.31914875,
            "velocity": 0.1968503937007874
          },
          {
            "duration": 0.07978718750000002,
            "durationTicks": 24,
            "midi": 78,
            "name": "F#5",
            "ticks": 192,
            "time": 0.6382975,
            "velocity": 0.1968503937007874
          },
          {
            "duration": 0.23936156249999996,
            "durationTicks": 72,
            "midi": 79,
            "name": "G5",
            "ticks": 216,
            "time": 0.7180846875,
            "velocity": 0.1968503937007874
          },
          {
            "duration": 0.31914875,
            "durationTicks": 96,
            "midi": 79,
            "name": "G5",
            "ticks": 288,
            "time": 0.9574462499999999,
            "velocity": 0.1968503937007874
          },
          {
            "duration": 0.9574462499999998,
            "durationTicks": 288,
            "midi": 86,
            "name": "D6",
            "ticks": 384,
            "time": 1.276595,
            "velocity": 0.1968503937007874
          },
          {
            "duration": 0.9574462499999998,
            "durationTicks": 288,
            "midi": 38,
            "name": "D2",
            "ticks": 384,
            "time": 1.276595,
            "velocity": 0.1968503937007874
          },
          {
            "duration": 0.9574462499999998,
            "durationTicks": 288,
            "midi": 74,
            "name": "D5",
            "ticks": 384,
            "time": 1.276595,
            "velocity": 0.1968503937007874
          },
          {
            "duration": 0.9574462499999998,
            "durationTicks": 288,
            "midi": 62,
            "name": "D4",
            "ticks": 384,
            "time": 1.276595,
            "velocity": 0.1968503937007874
          },
          {
            "duration": 0.9574462499999998,
            "durationTicks": 288,
            "midi": 50,
            "name": "D3",
            "ticks": 384,
            "time": 1.276595,
            "velocity": 0.1968503937007874
          },
          {
            "duration": 0.3191487500000001,
            "durationTicks": 96,
            "midi": 55,
            "name": "G3",
            "ticks": 672,
            "time": 2.2340412499999998,
            "velocity": 0.1968503937007874
          },
          {
            "duration": 0.3191487500000001,
            "durationTicks": 96,
            "midi": 91,
            "name": "G6",
            "ticks": 672,
            "time": 2.2340412499999998,
            "velocity": 0.1968503937007874
          },
          {
            "duration": 0.3191487500000001,
            "durationTicks": 96,
            "midi": 43,
            "name": "G2",
            "ticks": 672,
            "time": 2.2340412499999998,
            "velocity": 0.1968503937007874
          },
          {
            "duration": 0.3191487500000001,
            "durationTicks": 96,
            "midi": 67,
            "name": "G4",
            "ticks": 672,
            "time": 2.2340412499999998,
            "velocity": 0.1968503937007874
          },
          {
            "duration": 0.3191487500000001,
            "durationTicks": 96,
            "midi": 79,
            "name": "G5",
            "ticks": 672,
            "time": 2.2340412499999998,
            "velocity": 0.1968503937007874
          },
          {
            "duration": 0.3191487500000001,
            "durationTicks": 96,
            "midi": 42,
            "name": "F#2",
            "ticks": 768,
            "time": 2.55319,
            "velocity": 0.1968503937007874
          },
          {
            "duration": 0.3191487500000001,
            "durationTicks": 96,
            "midi": 66,
            "name": "F#4",
            "ticks": 768,
            "time": 2.55319,
            "velocity": 0.1968503937007874
          },
          {
            "duration": 0.3191487500000001,
            "durationTicks": 96,
            "midi": 54,
            "name": "F#3",
            "ticks": 768,
            "time": 2.55319,
            "velocity": 0.1968503937007874
          },
          {
            "duration": 0.3191487500000001,
            "durationTicks": 96,
            "midi": 78,
            "name": "F#5",
            "ticks": 768,
            "time": 2.55319,
            "velocity": 0.1968503937007874
          },
          {
            "duration": 0.3191487500000001,
            "durationTicks": 96,
            "midi": 90,
            "name": "F#6",
            "ticks": 768,
            "time": 2.55319,
            "velocity": 0.1968503937007874
          },
          {
            "duration": 0.3191487500000001,
            "durationTicks": 96,
            "midi": 55,
            "name": "G3",
            "ticks": 864,
            "time": 2.87233875,
            "velocity": 0.1968503937007874
          },
          {
            "duration": 0.3191487500000001,
            "durationTicks": 96,
            "midi": 91,
            "name": "G6",
            "ticks": 864,
            "time": 2.87233875,
            "velocity": 0.1968503937007874
          },
          {
            "duration": 0.3191487500000001,
            "durationTicks": 96,
            "midi": 79,
            "name": "G5",
            "ticks": 864,
            "time": 2.87233875,
            "velocity": 0.1968503937007874
          },
          {
            "duration": 0.3191487500000001,
            "durationTicks": 96,
            "midi": 43,
            "name": "G2",
            "ticks": 864,
            "time": 2.87233875,
            "velocity": 0.1968503937007874
          },
          {
            "duration": 0.3191487500000001,
            "durationTicks": 96,
            "midi": 67,
            "name": "G4",
            "ticks": 864,
            "time": 2.87233875,
            "velocity": 0.1968503937007874
          },
          {
            "duration": 0.31914874999999965,
            "durationTicks": 96,
            "midi": 42,
            "name": "F#2",
            "ticks": 960,
            "time": 3.1914875,
            "velocity": 0.1968503937007874
          },
          {
            "duration": 0.31914874999999965,
            "durationTicks": 96,
            "midi": 90,
            "name": "F#6",
            "ticks": 960,
            "time": 3.1914875,
            "velocity": 0.1968503937007874
          },
          {
            "duration": 0.31914874999999965,
            "durationTicks": 96,
            "midi": 54,
            "name": "F#3",
            "ticks": 960,
            "time": 3.1914875,
            "velocity": 0.1968503937007874
          },
          {
            "duration": 0.31914874999999965,
            "durationTicks": 96,
            "midi": 66,
            "name": "F#4",
            "ticks": 960,
            "time": 3.1914875,
            "velocity": 0.1968503937007874
          },
          {
            "duration": 0.31914874999999965,
            "durationTicks": 96,
            "midi": 78,
            "name": "F#5",
            "ticks": 960,
            "time": 3.1914875,
            "velocity": 0.1968503937007874
          },
          {
            "duration": 0.3191487500000001,
            "durationTicks": 96,
            "midi": 55,
            "name": "G3",
            "ticks": 1056,
            "time": 3.5106362499999997,
            "velocity": 0.1968503937007874
          },
          {
            "duration": 0.3191487500000001,
            "durationTicks": 96,
            "midi": 67,
            "name": "G4",
            "ticks": 1056,
            "time": 3.5106362499999997,
            "velocity": 0.1968503937007874
          },
          {
            "duration": 0.3191487500000001,
            "durationTicks": 96,
            "midi": 79,
            "name": "G5",
            "ticks": 1056,
            "time": 3.5106362499999997,
            "velocity": 0.1968503937007874
          },
          {
            "duration": 0.3191487500000001,
            "durationTicks": 96,
            "midi": 43,
            "name": "G2",
            "ticks": 1056,
            "time": 3.5106362499999997,
            "velocity": 0.1968503937007874
          },
          {
            "duration": 0.3191487500000001,
            "durationTicks": 96,
            "midi": 91,
            "name": "G6",
            "ticks": 1056,
            "time": 3.5106362499999997,
            "velocity": 0.1968503937007874
          },
          {
            "duration": 0.31914874999999965,
            "durationTicks": 96,
            "midi": 78,
            "name": "F#5",
            "ticks": 1152,
            "time": 3.8297849999999998,
            "velocity": 0.1968503937007874
          },
          {
            "duration": 0.31914874999999965,
            "durationTicks": 96,
            "midi": 90,
            "name": "F#6",
            "ticks": 1152,
            "time": 3.8297849999999998,
            "velocity": 0.1968503937007874
          },
          {
            "duration": 0.31914874999999965,
            "durationTicks": 96,
            "midi": 42,
            "name": "F#2",
            "ticks": 1152,
            "time": 3.8297849999999998,
            "velocity": 0.1968503937007874
          },
          {
            "duration": 0.31914874999999965,
            "durationTicks": 96,
            "midi": 66,
            "name": "F#4",
            "ticks": 1152,
            "time": 3.8297849999999998,
            "velocity": 0.1968503937007874
          },
          {
            "duration": 0.31914874999999965,
            "durationTicks": 96,
            "midi": 54,
            "name": "F#3",
            "ticks": 1152,
            "time": 3.8297849999999998,
            "velocity": 0.1968503937007874
          },
          {
            "duration": 0.3191487500000001,
            "durationTicks": 96,
            "midi": 76,
            "name": "E5",
            "ticks": 1248,
            "time": 4.148933749999999,
            "velocity": 0.1968503937007874
          },
          {
            "duration": 0.3191487500000001,
            "durationTicks": 96,
            "midi": 40,
            "name": "E2",
            "ticks": 1248,
            "time": 4.148933749999999,
            "velocity": 0.1968503937007874
          },
          {
            "duration": 0.3191487500000001,
            "durationTicks": 96,
            "midi": 88,
            "name": "E6",
            "ticks": 1248,
            "time": 4.148933749999999,
            "velocity": 0.1968503937007874
          },
          {
            "duration": 0.3191487500000001,
            "durationTicks": 96,
            "midi": 64,
            "name": "E4",
            "ticks": 1248,
            "time": 4.148933749999999,
            "velocity": 0.1968503937007874
          },
          {
            "duration": 0.3191487500000001,
            "durationTicks": 96,
            "midi": 52,
            "name": "E3",
            "ticks": 1248,
            "time": 4.148933749999999,
            "velocity": 0.1968503937007874
          },
          {
            "duration": 0.3191487500000001,
            "durationTicks": 96,
            "midi": 62,
            "name": "D4",
            "ticks": 1344,
            "time": 4.4680824999999995,
            "velocity": 0.1968503937007874
          },
          {
            "duration": 0.3191487500000001,
            "durationTicks": 96,
            "midi": 50,
            "name": "D3",
            "ticks": 1344,
            "time": 4.4680824999999995,
            "velocity": 0.1968503937007874
          },
          {
            "duration": 0.3191487500000001,
            "durationTicks": 96,
            "midi": 38,
            "name": "D2",
            "ticks": 1344,
            "time": 4.4680824999999995,
            "velocity": 0.1968503937007874
          },
          {
            "duration": 0.3191487500000001,
            "durationTicks": 96,
            "midi": 74,
            "name": "D5",
            "ticks": 1344,
            "time": 4.4680824999999995,
            "velocity": 0.1968503937007874
          },
          {
            "duration": 0.3191487500000001,
            "durationTicks": 96,
            "midi": 86,
            "name": "D6",
            "ticks": 1344,
            "time": 4.4680824999999995,
            "velocity": 0.1968503937007874
          },
          {
            "duration": 0.3191487500000001,
            "durationTicks": 96,
            "midi": 84,
            "name": "C6",
            "ticks": 1440,
            "time": 4.78723125,
            "velocity": 0.1968503937007874
          },
          {
            "duration": 0.3191487500000001,
            "durationTicks": 96,
            "midi": 36,
            "name": "C2",
            "ticks": 1440,
            "time": 4.78723125,
            "velocity": 0.1968503937007874
          },
          {
            "duration": 0.3191487500000001,
            "durationTicks": 96,
            "midi": 48,
            "name": "C3",
            "ticks": 1440,
            "time": 4.78723125,
            "velocity": 0.1968503937007874
          },
          {
            "duration": 0.3191487500000001,
            "durationTicks": 96,
            "midi": 72,
            "name": "C5",
            "ticks": 1440,
            "time": 4.78723125,
            "velocity": 0.1968503937007874
          },
          {
            "duration": 0.3191487500000001,
            "durationTicks": 96,
            "midi": 60,
            "name": "C4",
            "ticks": 1440,
            "time": 4.78723125,
            "velocity": 0.1968503937007874
          },
          {
            "duration": 5.10638,
            "durationTicks": 1536,
            "midi": 50,
            "name": "D3",
            "ticks": 1536,
            "time": 5.10638,
            "velocity": 0.1968503937007874
          },
          {
            "duration": 5.10638,
            "durationTicks": 1536,
            "midi": 62,
            "name": "D4",
            "ticks": 1536,
            "time": 5.10638,
            "velocity": 0.1968503937007874
          },
          {
            "duration": 5.10638,
            "durationTicks": 1536,
            "midi": 86,
            "name": "D6",
            "ticks": 1536,
            "time": 5.10638,
            "velocity": 0.1968503937007874
          },
          {
            "duration": 5.10638,
            "durationTicks": 1536,
            "midi": 74,
            "name": "D5",
            "ticks": 1536,
            "time": 5.10638,
            "velocity": 0.1968503937007874
          },
          {
            "duration": 5.10638,
            "durationTicks": 1536,
            "midi": 38,
            "name": "D2",
            "ticks": 1536,
            "time": 5.10638,
            "velocity": 0.1968503937007874
          },
          {
            "duration": 1.2765950000000004,
            "durationTicks": 384,
            "midi": 67,
            "name": "G4",
            "ticks": 3072,
            "time": 10.21276,
            "velocity": 0.1968503937007874
          },
          {
            "duration": 1.2765950000000004,
            "durationTicks": 384,
            "midi": 55,
            "name": "G3",
            "ticks": 3072,
            "time": 10.21276,
            "velocity": 0.1968503937007874
          },
          {
            "duration": 1.2765950000000004,
            "durationTicks": 384,
            "midi": 43,
            "name": "G2",
            "ticks": 3072,
            "time": 10.21276,
            "velocity": 0.1968503937007874
          },
          {
            "duration": 1.2765950000000004,
            "durationTicks": 384,
            "midi": 31,
            "name": "G1",
            "ticks": 3072,
            "time": 10.21276,
            "velocity": 0.1968503937007874
          },
          {
            "duration": 0.3191487500000001,
            "durationTicks": 96,
            "midi": 79,
            "name": "G5",
            "ticks": 3168,
            "time": 10.53190875,
            "velocity": 0.1968503937007874
          },
          {
            "duration": 0.07978718749999913,
            "durationTicks": 24,
            "midi": 78,
            "name": "F#5",
            "ticks": 3264,
            "time": 10.8510575,
            "velocity": 0.1968503937007874
          },
          {
            "duration": 0.23936156250000096,
            "durationTicks": 72,
            "midi": 79,
            "name": "G5",
            "ticks": 3288,
            "time": 10.930844687499999,
            "velocity": 0.1968503937007874
          },
          {
            "duration": 0.3191487500000001,
            "durationTicks": 96,
            "midi": 79,
            "name": "G5",
            "ticks": 3360,
            "time": 11.17020625,
            "velocity": 0.1968503937007874
          },
          {
            "duration": 0.9574462500000003,
            "durationTicks": 288,
            "midi": 62,
            "name": "D4",
            "ticks": 3456,
            "time": 11.489355,
            "velocity": 0.1968503937007874
          },
          {
            "duration": 0.9574462500000003,
            "durationTicks": 288,
            "midi": 74,
            "name": "D5",
            "ticks": 3456,
            "time": 11.489355,
            "velocity": 0.1968503937007874
          },
          {
            "duration": 0.9574462500000003,
            "durationTicks": 288,
            "midi": 38,
            "name": "D2",
            "ticks": 3456,
            "time": 11.489355,
            "velocity": 0.1968503937007874
          },
          {
            "duration": 0.9574462500000003,
            "durationTicks": 288,
            "midi": 86,
            "name": "D6",
            "ticks": 3456,
            "time": 11.489355,
            "velocity": 0.1968503937007874
          },
          {
            "duration": 0.9574462500000003,
            "durationTicks": 288,
            "midi": 50,
            "name": "D3",
            "ticks": 3456,
            "time": 11.489355,
            "velocity": 0.1968503937007874
          },
          {
            "duration": 0.3191487500000001,
            "durationTicks": 96,
            "midi": 55,
            "name": "G3",
            "ticks": 3744,
            "time": 12.44680125,
            "velocity": 0.1968503937007874
          },
          {
            "duration": 0.3191487500000001,
            "durationTicks": 96,
            "midi": 79,
            "name": "G5",
            "ticks": 3744,
            "time": 12.44680125,
            "velocity": 0.1968503937007874
          },
          {
            "duration": 0.3191487500000001,
            "durationTicks": 96,
            "midi": 91,
            "name": "G6",
            "ticks": 3744,
            "time": 12.44680125,
            "velocity": 0.1968503937007874
          },
          {
            "duration": 0.3191487500000001,
            "durationTicks": 96,
            "midi": 67,
            "name": "G4",
            "ticks": 3744,
            "time": 12.44680125,
            "velocity": 0.1968503937007874
          },
          {
            "duration": 0.3191487500000001,
            "durationTicks": 96,
            "midi": 43,
            "name": "G2",
            "ticks": 3744,
            "time": 12.44680125,
            "velocity": 0.1968503937007874
          },
          {
            "duration": 0.3191487499999983,
            "durationTicks": 96,
            "midi": 54,
            "name": "F#3",
            "ticks": 3840,
            "time": 12.76595,
            "velocity": 0.1968503937007874
          },
          {
            "duration": 0.3191487499999983,
            "durationTicks": 96,
            "midi": 42,
            "name": "F#2",
            "ticks": 3840,
            "time": 12.76595,
            "velocity": 0.1968503937007874
          },
          {
            "duration": 0.3191487499999983,
            "durationTicks": 96,
            "midi": 78,
            "name": "F#5",
            "ticks": 3840,
            "time": 12.76595,
            "velocity": 0.1968503937007874
          },
          {
            "duration": 0.3191487499999983,
            "durationTicks": 96,
            "midi": 90,
            "name": "F#6",
            "ticks": 3840,
            "time": 12.76595,
            "velocity": 0.1968503937007874
          },
          {
            "duration": 0.3191487499999983,
            "durationTicks": 96,
            "midi": 66,
            "name": "F#4",
            "ticks": 3840,
            "time": 12.76595,
            "velocity": 0.1968503937007874
          },
          {
            "duration": 0.3191487500000001,
            "durationTicks": 96,
            "midi": 67,
            "name": "G4",
            "ticks": 3936,
            "time": 13.085098749999998,
            "velocity": 0.1968503937007874
          },
          {
            "duration": 0.3191487500000001,
            "durationTicks": 96,
            "midi": 43,
            "name": "G2",
            "ticks": 3936,
            "time": 13.085098749999998,
            "velocity": 0.1968503937007874
          },
          {
            "duration": 0.3191487500000001,
            "durationTicks": 96,
            "midi": 55,
            "name": "G3",
            "ticks": 3936,
            "time": 13.085098749999998,
            "velocity": 0.1968503937007874
          },
          {
            "duration": 0.3191487500000001,
            "durationTicks": 96,
            "midi": 79,
            "name": "G5",
            "ticks": 3936,
            "time": 13.085098749999998,
            "velocity": 0.1968503937007874
          },
          {
            "duration": 0.3191487500000001,
            "durationTicks": 96,
            "midi": 91,
            "name": "G6",
            "ticks": 3936,
            "time": 13.085098749999998,
            "velocity": 0.1968503937007874
          },
          {
            "duration": 1.5957437500000005,
            "durationTicks": 480,
            "midi": 93,
            "name": "A6",
            "ticks": 4032,
            "time": 13.404247499999999,
            "velocity": 0.1968503937007874
          },
          {
            "duration": 1.5957437500000005,
            "durationTicks": 480,
            "midi": 57,
            "name": "A3",
            "ticks": 4032,
            "time": 13.404247499999999,
            "velocity": 0.1968503937007874
          },
          {
            "duration": 1.5957437500000005,
            "durationTicks": 480,
            "midi": 81,
            "name": "A5",
            "ticks": 4032,
            "time": 13.404247499999999,
            "velocity": 0.1968503937007874
          },
          {
            "duration": 1.5957437500000005,
            "durationTicks": 480,
            "midi": 69,
            "name": "A4",
            "ticks": 4032,
            "time": 13.404247499999999,
            "velocity": 0.1968503937007874
          },
          {
            "duration": 0.3191487500000001,
            "durationTicks": 96,
            "midi": 55,
            "name": "G3",
            "ticks": 4512,
            "time": 14.999991249999999,
            "velocity": 0.1968503937007874
          },
          {
            "duration": 0.3191487500000001,
            "durationTicks": 96,
            "midi": 67,
            "name": "G4",
            "ticks": 4512,
            "time": 14.999991249999999,
            "velocity": 0.1968503937007874
          },
          {
            "duration": 0.3191487500000001,
            "durationTicks": 96,
            "midi": 91,
            "name": "G6",
            "ticks": 4512,
            "time": 14.999991249999999,
            "velocity": 0.1968503937007874
          },
          {
            "duration": 0.3191487500000001,
            "durationTicks": 96,
            "midi": 79,
            "name": "G5",
            "ticks": 4512,
            "time": 14.999991249999999,
            "velocity": 0.1968503937007874
          },
          {
            "duration": 5.10638,
            "durationTicks": 1536,
            "midi": 38,
            "name": "D2",
            "ticks": 4608,
            "time": 15.319139999999999,
            "velocity": 0.1968503937007874
          },
          {
            "duration": 5.10638,
            "durationTicks": 1536,
            "midi": 62,
            "name": "D4",
            "ticks": 4608,
            "time": 15.319139999999999,
            "velocity": 0.1968503937007874
          },
          {
            "duration": 5.10638,
            "durationTicks": 1536,
            "midi": 86,
            "name": "D6",
            "ticks": 4608,
            "time": 15.319139999999999,
            "velocity": 0.1968503937007874
          },
          {
            "duration": 5.10638,
            "durationTicks": 1536,
            "midi": 74,
            "name": "D5",
            "ticks": 4608,
            "time": 15.319139999999999,
            "velocity": 0.1968503937007874
          },
          {
            "duration": 5.10638,
            "durationTicks": 1536,
            "midi": 50,
            "name": "D3",
            "ticks": 4608,
            "time": 15.319139999999999,
            "velocity": 0.1968503937007874
          },
          {
            "duration": 1.2765950000000004,
            "durationTicks": 384,
            "midi": 43,
            "name": "G2",
            "ticks": 6144,
            "time": 20.42552,
            "velocity": 0.1968503937007874
          },
          {
            "duration": 1.2765950000000004,
            "durationTicks": 384,
            "midi": 55,
            "name": "G3",
            "ticks": 6144,
            "time": 20.42552,
            "velocity": 0.1968503937007874
          },
          {
            "duration": 1.2765950000000004,
            "durationTicks": 384,
            "midi": 91,
            "name": "G6",
            "ticks": 6144,
            "time": 20.42552,
            "velocity": 0.1968503937007874
          },
          {
            "duration": 1.2765950000000004,
            "durationTicks": 384,
            "midi": 79,
            "name": "G5",
            "ticks": 6144,
            "time": 20.42552,
            "velocity": 0.1968503937007874
          },
          {
            "duration": 1.2765950000000004,
            "durationTicks": 384,
            "midi": 67,
            "name": "G4",
            "ticks": 6144,
            "time": 20.42552,
            "velocity": 0.1968503937007874
          },
          {
            "duration": 0.9574462500000003,
            "durationTicks": 288,
            "midi": 54,
            "name": "F#3",
            "ticks": 6528,
            "time": 21.702115,
            "velocity": 0.1968503937007874
          },
          {
            "duration": 0.9574462500000003,
            "durationTicks": 288,
            "midi": 42,
            "name": "F#2",
            "ticks": 6528,
            "time": 21.702115,
            "velocity": 0.1968503937007874
          },
          {
            "duration": 0.9574462500000003,
            "durationTicks": 288,
            "midi": 90,
            "name": "F#6",
            "ticks": 6528,
            "time": 21.702115,
            "velocity": 0.1968503937007874
          },
          {
            "duration": 0.9574462500000003,
            "durationTicks": 288,
            "midi": 78,
            "name": "F#5",
            "ticks": 6528,
            "time": 21.702115,
            "velocity": 0.1968503937007874
          },
          {
            "duration": 0.9574462500000003,
            "durationTicks": 288,
            "midi": 66,
            "name": "F#4",
            "ticks": 6528,
            "time": 21.702115,
            "velocity": 0.1968503937007874
          },
          {
            "duration": 0.3191487500000001,
            "durationTicks": 96,
            "midi": 74,
            "name": "D5",
            "ticks": 6816,
            "time": 22.65956125,
            "velocity": 0.1968503937007874
          },
          {
            "duration": 0.3191487500000001,
            "durationTicks": 96,
            "midi": 62,
            "name": "D4",
            "ticks": 6816,
            "time": 22.65956125,
            "velocity": 0.1968503937007874
          },
          {
            "duration": 0.3191487500000001,
            "durationTicks": 96,
            "midi": 38,
            "name": "D2",
            "ticks": 6816,
            "time": 22.65956125,
            "velocity": 0.1968503937007874
          },
          {
            "duration": 0.3191487500000001,
            "durationTicks": 96,
            "midi": 50,
            "name": "D3",
            "ticks": 6816,
            "time": 22.65956125,
            "velocity": 0.1968503937007874
          },
          {
            "duration": 0.3191487500000001,
            "durationTicks": 96,
            "midi": 86,
            "name": "D6",
            "ticks": 6816,
            "time": 22.65956125,
            "velocity": 0.1968503937007874
          },
          {
            "duration": 1.9148925000000006,
            "durationTicks": 576,
            "midi": 57,
            "name": "A3",
            "ticks": 6912,
            "time": 22.97871,
            "velocity": 0.1968503937007874
          },
          {
            "duration": 1.9148925000000006,
            "durationTicks": 576,
            "midi": 81,
            "name": "A5",
            "ticks": 6912,
            "time": 22.97871,
            "velocity": 0.1968503937007874
          },
          {
            "duration": 1.9148925000000006,
            "durationTicks": 576,
            "midi": 33,
            "name": "A1",
            "ticks": 6912,
            "time": 22.97871,
            "velocity": 0.1968503937007874
          },
          {
            "duration": 1.9148925000000006,
            "durationTicks": 576,
            "midi": 45,
            "name": "A2",
            "ticks": 6912,
            "time": 22.97871,
            "velocity": 0.1968503937007874
          },
          {
            "duration": 1.9148925000000006,
            "durationTicks": 576,
            "midi": 69,
            "name": "A4",
            "ticks": 6912,
            "time": 22.97871,
            "velocity": 0.1968503937007874
          },
          {
            "duration": 0.3191487500000001,
            "durationTicks": 96,
            "midi": 31,
            "name": "G1",
            "ticks": 7488,
            "time": 24.8936025,
            "velocity": 0.1968503937007874
          },
          {
            "duration": 0.3191487500000001,
            "durationTicks": 96,
            "midi": 67,
            "name": "G4",
            "ticks": 7488,
            "time": 24.8936025,
            "velocity": 0.1968503937007874
          },
          {
            "duration": 0.3191487500000001,
            "durationTicks": 96,
            "midi": 55,
            "name": "G3",
            "ticks": 7488,
            "time": 24.8936025,
            "velocity": 0.1968503937007874
          },
          {
            "duration": 0.3191487500000001,
            "durationTicks": 96,
            "midi": 43,
            "name": "G2",
            "ticks": 7488,
            "time": 24.8936025,
            "velocity": 0.1968503937007874
          },
          {
            "duration": 0.3191487500000001,
            "durationTicks": 96,
            "midi": 79,
            "name": "G5",
            "ticks": 7488,
            "time": 24.8936025,
            "velocity": 0.1968503937007874
          },
          {
            "duration": 0.3191487500000001,
            "durationTicks": 96,
            "midi": 81,
            "name": "A5",
            "ticks": 7584,
            "time": 25.21275125,
            "velocity": 0.1968503937007874
          },
          {
            "duration": 0.3191487500000001,
            "durationTicks": 96,
            "midi": 57,
            "name": "A3",
            "ticks": 7584,
            "time": 25.21275125,
            "velocity": 0.1968503937007874
          },
          {
            "duration": 0.3191487500000001,
            "durationTicks": 96,
            "midi": 33,
            "name": "A1",
            "ticks": 7584,
            "time": 25.21275125,
            "velocity": 0.1968503937007874
          },
          {
            "duration": 0.3191487500000001,
            "durationTicks": 96,
            "midi": 45,
            "name": "A2",
            "ticks": 7584,
            "time": 25.21275125,
            "velocity": 0.1968503937007874
          },
          {
            "duration": 0.3191487500000001,
            "durationTicks": 96,
            "midi": 69,
            "name": "A4",
            "ticks": 7584,
            "time": 25.21275125,
            "velocity": 0.1968503937007874
          },
          {
            "duration": 1.2765949999999968,
            "durationTicks": 384,
            "midi": 35,
            "name": "B1",
            "ticks": 7680,
            "time": 25.5319,
            "velocity": 0.1968503937007874
          },
          {
            "duration": 1.2765949999999968,
            "durationTicks": 384,
            "midi": 59,
            "name": "B3",
            "ticks": 7680,
            "time": 25.5319,
            "velocity": 0.1968503937007874
          },
          {
            "duration": 1.2765949999999968,
            "durationTicks": 384,
            "midi": 71,
            "name": "B4",
            "ticks": 7680,
            "time": 25.5319,
            "velocity": 0.1968503937007874
          },
          {
            "duration": 1.2765949999999968,
            "durationTicks": 384,
            "midi": 83,
            "name": "B5",
            "ticks": 7680,
            "time": 25.5319,
            "velocity": 0.1968503937007874
          },
          {
            "duration": 1.2765949999999968,
            "durationTicks": 384,
            "midi": 47,
            "name": "B2",
            "ticks": 7680,
            "time": 25.5319,
            "velocity": 0.1968503937007874
          },
          {
            "duration": 0.9574462500000003,
            "durationTicks": 288,
            "midi": 86,
            "name": "D6",
            "ticks": 8064,
            "time": 26.808494999999997,
            "velocity": 0.1968503937007874
          },
          {
            "duration": 0.9574462500000003,
            "durationTicks": 288,
            "midi": 62,
            "name": "D4",
            "ticks": 8064,
            "time": 26.808494999999997,
            "velocity": 0.1968503937007874
          },
          {
            "duration": 0.9574462500000003,
            "durationTicks": 288,
            "midi": 50,
            "name": "D3",
            "ticks": 8064,
            "time": 26.808494999999997,
            "velocity": 0.1968503937007874
          },
          {
            "duration": 0.9574462500000003,
            "durationTicks": 288,
            "midi": 38,
            "name": "D2",
            "ticks": 8064,
            "time": 26.808494999999997,
            "velocity": 0.1968503937007874
          },
          {
            "duration": 0.9574462500000003,
            "durationTicks": 288,
            "midi": 74,
            "name": "D5",
            "ticks": 8064,
            "time": 26.808494999999997,
            "velocity": 0.1968503937007874
          },
          {
            "duration": 0.3191487500000001,
            "durationTicks": 96,
            "midi": 26,
            "name": "D1",
            "ticks": 8352,
            "time": 27.765941249999997,
            "velocity": 0.1968503937007874
          },
          {
            "duration": 0.3191487500000001,
            "durationTicks": 96,
            "midi": 62,
            "name": "D4",
            "ticks": 8352,
            "time": 27.765941249999997,
            "velocity": 0.1968503937007874
          },
          {
            "duration": 0.3191487500000001,
            "durationTicks": 96,
            "midi": 50,
            "name": "D3",
            "ticks": 8352,
            "time": 27.765941249999997,
            "velocity": 0.1968503937007874
          },
          {
            "duration": 0.3191487500000001,
            "durationTicks": 96,
            "midi": 38,
            "name": "D2",
            "ticks": 8352,
            "time": 27.765941249999997,
            "velocity": 0.1968503937007874
          },
          {
            "duration": 0.3191487500000001,
            "durationTicks": 96,
            "midi": 74,
            "name": "D5",
            "ticks": 8352,
            "time": 27.765941249999997,
            "velocity": 0.1968503937007874
          },
          {
            "duration": 2.5531900000000007,
            "durationTicks": 768,
            "midi": 76,
            "name": "E5",
            "ticks": 8448,
            "time": 28.085089999999997,
            "velocity": 0.1968503937007874
          },
          {
            "duration": 2.5531900000000007,
            "durationTicks": 768,
            "midi": 40,
            "name": "E2",
            "ticks": 8448,
            "time": 28.085089999999997,
            "velocity": 0.1968503937007874
          },
          {
            "duration": 2.5531900000000007,
            "durationTicks": 768,
            "midi": 64,
            "name": "E4",
            "ticks": 8448,
            "time": 28.085089999999997,
            "velocity": 0.1968503937007874
          },
          {
            "duration": 2.5531900000000007,
            "durationTicks": 768,
            "midi": 52,
            "name": "E3",
            "ticks": 8448,
            "time": 28.085089999999997,
            "velocity": 0.1968503937007874
          },
          {
            "duration": 2.5531900000000007,
            "durationTicks": 768,
            "midi": 28,
            "name": "E1",
            "ticks": 8448,
            "time": 28.085089999999997,
            "velocity": 0.1968503937007874
          },
          {
            "duration": 1.2765950000000004,
            "durationTicks": 384,
            "midi": 67,
            "name": "G4",
            "ticks": 9216,
            "time": 30.638279999999998,
            "velocity": 0.1968503937007874
          },
          {
            "duration": 1.2765950000000004,
            "durationTicks": 384,
            "midi": 31,
            "name": "G1",
            "ticks": 9216,
            "time": 30.638279999999998,
            "velocity": 0.1968503937007874
          },
          {
            "duration": 1.2765950000000004,
            "durationTicks": 384,
            "midi": 43,
            "name": "G2",
            "ticks": 9216,
            "time": 30.638279999999998,
            "velocity": 0.1968503937007874
          },
          {
            "duration": 1.2765950000000004,
            "durationTicks": 384,
            "midi": 55,
            "name": "G3",
            "ticks": 9216,
            "time": 30.638279999999998,
            "velocity": 0.1968503937007874
          },
          {
            "duration": 1.2765950000000004,
            "durationTicks": 384,
            "midi": 79,
            "name": "G5",
            "ticks": 9216,
            "time": 30.638279999999998,
            "velocity": 0.1968503937007874
          },
          {
            "duration": 0.9574462500000003,
            "durationTicks": 288,
            "midi": 86,
            "name": "D6",
            "ticks": 9600,
            "time": 31.914875,
            "velocity": 0.1968503937007874
          },
          {
            "duration": 0.9574462500000003,
            "durationTicks": 288,
            "midi": 62,
            "name": "D4",
            "ticks": 9600,
            "time": 31.914875,
            "velocity": 0.1968503937007874
          },
          {
            "duration": 0.9574462500000003,
            "durationTicks": 288,
            "midi": 50,
            "name": "D3",
            "ticks": 9600,
            "time": 31.914875,
            "velocity": 0.1968503937007874
          },
          {
            "duration": 0.9574462500000003,
            "durationTicks": 288,
            "midi": 74,
            "name": "D5",
            "ticks": 9600,
            "time": 31.914875,
            "velocity": 0.1968503937007874
          },
          {
            "duration": 0.9574462500000003,
            "durationTicks": 288,
            "midi": 38,
            "name": "D2",
            "ticks": 9600,
            "time": 31.914875,
            "velocity": 0.1968503937007874
          },
          {
            "duration": 0.31914874999999654,
            "durationTicks": 96,
            "midi": 79,
            "name": "G5",
            "ticks": 9888,
            "time": 32.87232125,
            "velocity": 0.1968503937007874
          },
          {
            "duration": 0.31914874999999654,
            "durationTicks": 96,
            "midi": 67,
            "name": "G4",
            "ticks": 9888,
            "time": 32.87232125,
            "velocity": 0.1968503937007874
          },
          {
            "duration": 0.31914874999999654,
            "durationTicks": 96,
            "midi": 91,
            "name": "G6",
            "ticks": 9888,
            "time": 32.87232125,
            "velocity": 0.1968503937007874
          },
          {
            "duration": 0.31914874999999654,
            "durationTicks": 96,
            "midi": 43,
            "name": "G2",
            "ticks": 9888,
            "time": 32.87232125,
            "velocity": 0.1968503937007874
          },
          {
            "duration": 0.31914874999999654,
            "durationTicks": 96,
            "midi": 55,
            "name": "G3",
            "ticks": 9888,
            "time": 32.87232125,
            "velocity": 0.1968503937007874
          },
          {
            "duration": 0.31914875000000364,
            "durationTicks": 96,
            "midi": 78,
            "name": "F#5",
            "ticks": 9984,
            "time": 33.191469999999995,
            "velocity": 0.1968503937007874
          },
          {
            "duration": 0.31914875000000364,
            "durationTicks": 96,
            "midi": 66,
            "name": "F#4",
            "ticks": 9984,
            "time": 33.191469999999995,
            "velocity": 0.1968503937007874
          },
          {
            "duration": 0.31914875000000364,
            "durationTicks": 96,
            "midi": 54,
            "name": "F#3",
            "ticks": 9984,
            "time": 33.191469999999995,
            "velocity": 0.1968503937007874
          },
          {
            "duration": 0.31914875000000364,
            "durationTicks": 96,
            "midi": 42,
            "name": "F#2",
            "ticks": 9984,
            "time": 33.191469999999995,
            "velocity": 0.1968503937007874
          },
          {
            "duration": 0.31914875000000364,
            "durationTicks": 96,
            "midi": 90,
            "name": "F#6",
            "ticks": 9984,
            "time": 33.191469999999995,
            "velocity": 0.1968503937007874
          },
          {
            "duration": 0.31914874999999654,
            "durationTicks": 96,
            "midi": 55,
            "name": "G3",
            "ticks": 10080,
            "time": 33.51061875,
            "velocity": 0.1968503937007874
          },
          {
            "duration": 0.31914874999999654,
            "durationTicks": 96,
            "midi": 43,
            "name": "G2",
            "ticks": 10080,
            "time": 33.51061875,
            "velocity": 0.1968503937007874
          },
          {
            "duration": 0.31914874999999654,
            "durationTicks": 96,
            "midi": 67,
            "name": "G4",
            "ticks": 10080,
            "time": 33.51061875,
            "velocity": 0.1968503937007874
          },
          {
            "duration": 0.31914874999999654,
            "durationTicks": 96,
            "midi": 91,
            "name": "G6",
            "ticks": 10080,
            "time": 33.51061875,
            "velocity": 0.1968503937007874
          },
          {
            "duration": 0.31914874999999654,
            "durationTicks": 96,
            "midi": 79,
            "name": "G5",
            "ticks": 10080,
            "time": 33.51061875,
            "velocity": 0.1968503937007874
          },
          {
            "duration": 1.595743750000004,
            "durationTicks": 480,
            "midi": 69,
            "name": "A4",
            "ticks": 10176,
            "time": 33.829767499999996,
            "velocity": 0.1968503937007874
          },
          {
            "duration": 1.595743750000004,
            "durationTicks": 480,
            "midi": 93,
            "name": "A6",
            "ticks": 10176,
            "time": 33.829767499999996,
            "velocity": 0.1968503937007874
          },
          {
            "duration": 1.595743750000004,
            "durationTicks": 480,
            "midi": 57,
            "name": "A3",
            "ticks": 10176,
            "time": 33.829767499999996,
            "velocity": 0.1968503937007874
          },
          {
            "duration": 1.595743750000004,
            "durationTicks": 480,
            "midi": 45,
            "name": "A2",
            "ticks": 10176,
            "time": 33.829767499999996,
            "velocity": 0.1968503937007874
          },
          {
            "duration": 1.595743750000004,
            "durationTicks": 480,
            "midi": 81,
            "name": "A5",
            "ticks": 10176,
            "time": 33.829767499999996,
            "velocity": 0.1968503937007874
          },
          {
            "duration": 0.31914874999999654,
            "durationTicks": 96,
            "midi": 91,
            "name": "G6",
            "ticks": 10656,
            "time": 35.42551125,
            "velocity": 0.1968503937007874
          },
          {
            "duration": 0.31914874999999654,
            "durationTicks": 96,
            "midi": 31,
            "name": "G1",
            "ticks": 10656,
            "time": 35.42551125,
            "velocity": 0.1968503937007874
          },
          {
            "duration": 0.31914874999999654,
            "durationTicks": 96,
            "midi": 43,
            "name": "G2",
            "ticks": 10656,
            "time": 35.42551125,
            "velocity": 0.1968503937007874
          },
          {
            "duration": 0.31914874999999654,
            "durationTicks": 96,
            "midi": 67,
            "name": "G4",
            "ticks": 10656,
            "time": 35.42551125,
            "velocity": 0.1968503937007874
          },
          {
            "duration": 0.31914874999999654,
            "durationTicks": 96,
            "midi": 79,
            "name": "G5",
            "ticks": 10656,
            "time": 35.42551125,
            "velocity": 0.1968503937007874
          },
          {
            "duration": 0.31914874999999654,
            "durationTicks": 96,
            "midi": 55,
            "name": "G3",
            "ticks": 10656,
            "time": 35.42551125,
            "velocity": 0.1968503937007874
          },
          {
            "duration": 5.1063800000000015,
            "durationTicks": 1536,
            "midi": 57,
            "name": "A3",
            "ticks": 10752,
            "time": 35.744659999999996,
            "velocity": 0.1968503937007874
          },
          {
            "duration": 5.1063800000000015,
            "durationTicks": 1536,
            "midi": 33,
            "name": "A1",
            "ticks": 10752,
            "time": 35.744659999999996,
            "velocity": 0.1968503937007874
          },
          {
            "duration": 5.1063800000000015,
            "durationTicks": 1536,
            "midi": 69,
            "name": "A4",
            "ticks": 10752,
            "time": 35.744659999999996,
            "velocity": 0.1968503937007874
          },
          {
            "duration": 5.1063800000000015,
            "durationTicks": 1536,
            "midi": 93,
            "name": "A6",
            "ticks": 10752,
            "time": 35.744659999999996,
            "velocity": 0.1968503937007874
          },
          {
            "duration": 5.1063800000000015,
            "durationTicks": 1536,
            "midi": 45,
            "name": "A2",
            "ticks": 10752,
            "time": 35.744659999999996,
            "velocity": 0.1968503937007874
          },
          {
            "duration": 5.1063800000000015,
            "durationTicks": 1536,
            "midi": 81,
            "name": "A5",
            "ticks": 10752,
            "time": 35.744659999999996,
            "velocity": 0.1968503937007874
          },
          {
            "duration": 7.659570000000002,
            "durationTicks": 2304,
            "midi": 67,
            "name": "G4",
            "ticks": 12288,
            "time": 40.85104,
            "velocity": 0.1968503937007874
          },
          {
            "duration": 7.659570000000002,
            "durationTicks": 2304,
            "midi": 55,
            "name": "G3",
            "ticks": 12288,
            "time": 40.85104,
            "velocity": 0.1968503937007874
          },
          {
            "duration": 7.659570000000002,
            "durationTicks": 2304,
            "midi": 91,
            "name": "G6",
            "ticks": 12288,
            "time": 40.85104,
            "velocity": 0.1968503937007874
          },
          {
            "duration": 7.659570000000002,
            "durationTicks": 2304,
            "midi": 31,
            "name": "G1",
            "ticks": 12288,
            "time": 40.85104,
            "velocity": 0.1968503937007874
          },
          {
            "duration": 7.659570000000002,
            "durationTicks": 2304,
            "midi": 43,
            "name": "G2",
            "ticks": 12288,
            "time": 40.85104,
            "velocity": 0.1968503937007874
          },
          {
            "duration": 7.659570000000002,
            "durationTicks": 2304,
            "midi": 79,
            "name": "G5",
            "ticks": 12288,
            "time": 40.85104,
            "velocity": 0.1968503937007874
          }
        ],
        "endOfTrackTicks": 14592
      },
      {
        "channel": 4,
        "controlChanges": {},
        "pitchBends": [],
        "instrument": {
          "family": "synth lead",
          "number": 81,
          "name": "lead 2 (sawtooth)"
        },
        "name": "8-Bit Sawtooth",
        "notes": [
          {
            "duration": 0.797871875,
            "durationTicks": 240,
            "midi": 67,
            "name": "G4",
            "ticks": 0,
            "time": 0,
            "velocity": 0.3937007874015748
          },
          {
            "duration": 0.797871875,
            "durationTicks": 240,
            "midi": 79,
            "name": "G5",
            "ticks": 0,
            "time": 0,
            "velocity": 0.3937007874015748
          },
          {
            "duration": 0.31914875,
            "durationTicks": 96,
            "midi": 79,
            "name": "G5",
            "ticks": 288,
            "time": 0.9574462499999999,
            "velocity": 0.3937007874015748
          },
          {
            "duration": 0.31914875,
            "durationTicks": 96,
            "midi": 67,
            "name": "G4",
            "ticks": 288,
            "time": 0.9574462499999999,
            "velocity": 0.3937007874015748
          },
          {
            "duration": 0.9574462499999998,
            "durationTicks": 288,
            "midi": 74,
            "name": "D5",
            "ticks": 384,
            "time": 1.276595,
            "velocity": 0.3937007874015748
          },
          {
            "duration": 0.9574462499999998,
            "durationTicks": 288,
            "midi": 86,
            "name": "D6",
            "ticks": 384,
            "time": 1.276595,
            "velocity": 0.3937007874015748
          },
          {
            "duration": 0.3191487500000001,
            "durationTicks": 96,
            "midi": 91,
            "name": "G6",
            "ticks": 672,
            "time": 2.2340412499999998,
            "velocity": 0.3937007874015748
          },
          {
            "duration": 0.3191487500000001,
            "durationTicks": 96,
            "midi": 79,
            "name": "G5",
            "ticks": 672,
            "time": 2.2340412499999998,
            "velocity": 0.3937007874015748
          },
          {
            "duration": 0.3191487500000001,
            "durationTicks": 96,
            "midi": 78,
            "name": "F#5",
            "ticks": 768,
            "time": 2.55319,
            "velocity": 0.3937007874015748
          },
          {
            "duration": 0.3191487500000001,
            "durationTicks": 96,
            "midi": 90,
            "name": "F#6",
            "ticks": 768,
            "time": 2.55319,
            "velocity": 0.3937007874015748
          },
          {
            "duration": 0.3191487500000001,
            "durationTicks": 96,
            "midi": 79,
            "name": "G5",
            "ticks": 864,
            "time": 2.87233875,
            "velocity": 0.3937007874015748
          },
          {
            "duration": 0.3191487500000001,
            "durationTicks": 96,
            "midi": 91,
            "name": "G6",
            "ticks": 864,
            "time": 2.87233875,
            "velocity": 0.3937007874015748
          },
          {
            "duration": 0.31914874999999965,
            "durationTicks": 96,
            "midi": 78,
            "name": "F#5",
            "ticks": 960,
            "time": 3.1914875,
            "velocity": 0.3937007874015748
          },
          {
            "duration": 0.31914874999999965,
            "durationTicks": 96,
            "midi": 90,
            "name": "F#6",
            "ticks": 960,
            "time": 3.1914875,
            "velocity": 0.3937007874015748
          },
          {
            "duration": 0.3191487500000001,
            "durationTicks": 96,
            "midi": 91,
            "name": "G6",
            "ticks": 1056,
            "time": 3.5106362499999997,
            "velocity": 0.3937007874015748
          },
          {
            "duration": 0.3191487500000001,
            "durationTicks": 96,
            "midi": 79,
            "name": "G5",
            "ticks": 1056,
            "time": 3.5106362499999997,
            "velocity": 0.3937007874015748
          },
          {
            "duration": 0.31914874999999965,
            "durationTicks": 96,
            "midi": 78,
            "name": "F#5",
            "ticks": 1152,
            "time": 3.8297849999999998,
            "velocity": 0.3937007874015748
          },
          {
            "duration": 0.31914874999999965,
            "durationTicks": 96,
            "midi": 90,
            "name": "F#6",
            "ticks": 1152,
            "time": 3.8297849999999998,
            "velocity": 0.3937007874015748
          },
          {
            "duration": 0.3191487500000001,
            "durationTicks": 96,
            "midi": 76,
            "name": "E5",
            "ticks": 1248,
            "time": 4.148933749999999,
            "velocity": 0.3937007874015748
          },
          {
            "duration": 0.3191487500000001,
            "durationTicks": 96,
            "midi": 88,
            "name": "E6",
            "ticks": 1248,
            "time": 4.148933749999999,
            "velocity": 0.3937007874015748
          },
          {
            "duration": 0.3191487500000001,
            "durationTicks": 96,
            "midi": 86,
            "name": "D6",
            "ticks": 1344,
            "time": 4.4680824999999995,
            "velocity": 0.3937007874015748
          },
          {
            "duration": 0.3191487500000001,
            "durationTicks": 96,
            "midi": 74,
            "name": "D5",
            "ticks": 1344,
            "time": 4.4680824999999995,
            "velocity": 0.3937007874015748
          },
          {
            "duration": 0.3191487500000001,
            "durationTicks": 96,
            "midi": 72,
            "name": "C5",
            "ticks": 1440,
            "time": 4.78723125,
            "velocity": 0.3937007874015748
          },
          {
            "duration": 0.3191487500000001,
            "durationTicks": 96,
            "midi": 84,
            "name": "C6",
            "ticks": 1440,
            "time": 4.78723125,
            "velocity": 0.3937007874015748
          },
          {
            "duration": 5.10638,
            "durationTicks": 1536,
            "midi": 74,
            "name": "D5",
            "ticks": 1536,
            "time": 5.10638,
            "velocity": 0.3937007874015748
          },
          {
            "duration": 5.10638,
            "durationTicks": 1536,
            "midi": 86,
            "name": "D6",
            "ticks": 1536,
            "time": 5.10638,
            "velocity": 0.3937007874015748
          },
          {
            "duration": 0.7978718750000002,
            "durationTicks": 240,
            "midi": 79,
            "name": "G5",
            "ticks": 3072,
            "time": 10.21276,
            "velocity": 0.3937007874015748
          },
          {
            "duration": 0.7978718750000002,
            "durationTicks": 240,
            "midi": 67,
            "name": "G4",
            "ticks": 3072,
            "time": 10.21276,
            "velocity": 0.3937007874015748
          },
          {
            "duration": 0.3191487500000001,
            "durationTicks": 96,
            "midi": 79,
            "name": "G5",
            "ticks": 3360,
            "time": 11.17020625,
            "velocity": 0.3937007874015748
          },
          {
            "duration": 0.3191487500000001,
            "durationTicks": 96,
            "midi": 67,
            "name": "G4",
            "ticks": 3360,
            "time": 11.17020625,
            "velocity": 0.3937007874015748
          },
          {
            "duration": 0.9574462500000003,
            "durationTicks": 288,
            "midi": 74,
            "name": "D5",
            "ticks": 3456,
            "time": 11.489355,
            "velocity": 0.3937007874015748
          },
          {
            "duration": 0.9574462500000003,
            "durationTicks": 288,
            "midi": 86,
            "name": "D6",
            "ticks": 3456,
            "time": 11.489355,
            "velocity": 0.3937007874015748
          },
          {
            "duration": 0.3191487500000001,
            "durationTicks": 96,
            "midi": 79,
            "name": "G5",
            "ticks": 3744,
            "time": 12.44680125,
            "velocity": 0.3937007874015748
          },
          {
            "duration": 0.3191487500000001,
            "durationTicks": 96,
            "midi": 91,
            "name": "G6",
            "ticks": 3744,
            "time": 12.44680125,
            "velocity": 0.3937007874015748
          },
          {
            "duration": 0.3191487499999983,
            "durationTicks": 96,
            "midi": 90,
            "name": "F#6",
            "ticks": 3840,
            "time": 12.76595,
            "velocity": 0.3937007874015748
          },
          {
            "duration": 0.3191487499999983,
            "durationTicks": 96,
            "midi": 78,
            "name": "F#5",
            "ticks": 3840,
            "time": 12.76595,
            "velocity": 0.3937007874015748
          },
          {
            "duration": 0.3191487500000001,
            "durationTicks": 96,
            "midi": 91,
            "name": "G6",
            "ticks": 3936,
            "time": 13.085098749999998,
            "velocity": 0.3937007874015748
          },
          {
            "duration": 0.3191487500000001,
            "durationTicks": 96,
            "midi": 79,
            "name": "G5",
            "ticks": 3936,
            "time": 13.085098749999998,
            "velocity": 0.3937007874015748
          },
          {
            "duration": 1.5957437500000005,
            "durationTicks": 480,
            "midi": 93,
            "name": "A6",
            "ticks": 4032,
            "time": 13.404247499999999,
            "velocity": 0.3937007874015748
          },
          {
            "duration": 1.5957437500000005,
            "durationTicks": 480,
            "midi": 81,
            "name": "A5",
            "ticks": 4032,
            "time": 13.404247499999999,
            "velocity": 0.3937007874015748
          },
          {
            "duration": 0.3191487500000001,
            "durationTicks": 96,
            "midi": 79,
            "name": "G5",
            "ticks": 4512,
            "time": 14.999991249999999,
            "velocity": 0.3937007874015748
          },
          {
            "duration": 0.3191487500000001,
            "durationTicks": 96,
            "midi": 91,
            "name": "G6",
            "ticks": 4512,
            "time": 14.999991249999999,
            "velocity": 0.3937007874015748
          },
          {
            "duration": 5.10638,
            "durationTicks": 1536,
            "midi": 86,
            "name": "D6",
            "ticks": 4608,
            "time": 15.319139999999999,
            "velocity": 0.3937007874015748
          },
          {
            "duration": 5.10638,
            "durationTicks": 1536,
            "midi": 74,
            "name": "D5",
            "ticks": 4608,
            "time": 15.319139999999999,
            "velocity": 0.3937007874015748
          },
          {
            "duration": 1.2765950000000004,
            "durationTicks": 384,
            "midi": 91,
            "name": "G6",
            "ticks": 6144,
            "time": 20.42552,
            "velocity": 0.3937007874015748
          },
          {
            "duration": 1.2765950000000004,
            "durationTicks": 384,
            "midi": 79,
            "name": "G5",
            "ticks": 6144,
            "time": 20.42552,
            "velocity": 0.3937007874015748
          },
          {
            "duration": 0.9574462500000003,
            "durationTicks": 288,
            "midi": 90,
            "name": "F#6",
            "ticks": 6528,
            "time": 21.702115,
            "velocity": 0.3937007874015748
          },
          {
            "duration": 0.9574462500000003,
            "durationTicks": 288,
            "midi": 78,
            "name": "F#5",
            "ticks": 6528,
            "time": 21.702115,
            "velocity": 0.3937007874015748
          },
          {
            "duration": 0.3191487500000001,
            "durationTicks": 96,
            "midi": 86,
            "name": "D6",
            "ticks": 6816,
            "time": 22.65956125,
            "velocity": 0.3937007874015748
          },
          {
            "duration": 0.3191487500000001,
            "durationTicks": 96,
            "midi": 74,
            "name": "D5",
            "ticks": 6816,
            "time": 22.65956125,
            "velocity": 0.3937007874015748
          },
          {
            "duration": 1.9148925000000006,
            "durationTicks": 576,
            "midi": 81,
            "name": "A5",
            "ticks": 6912,
            "time": 22.97871,
            "velocity": 0.3937007874015748
          },
          {
            "duration": 1.9148925000000006,
            "durationTicks": 576,
            "midi": 69,
            "name": "A4",
            "ticks": 6912,
            "time": 22.97871,
            "velocity": 0.3937007874015748
          },
          {
            "duration": 0.3191487500000001,
            "durationTicks": 96,
            "midi": 67,
            "name": "G4",
            "ticks": 7488,
            "time": 24.8936025,
            "velocity": 0.3937007874015748
          },
          {
            "duration": 0.3191487500000001,
            "durationTicks": 96,
            "midi": 79,
            "name": "G5",
            "ticks": 7488,
            "time": 24.8936025,
            "velocity": 0.3937007874015748
          },
          {
            "duration": 0.3191487500000001,
            "durationTicks": 96,
            "midi": 81,
            "name": "A5",
            "ticks": 7584,
            "time": 25.21275125,
            "velocity": 0.3937007874015748
          },
          {
            "duration": 0.3191487500000001,
            "durationTicks": 96,
            "midi": 69,
            "name": "A4",
            "ticks": 7584,
            "time": 25.21275125,
            "velocity": 0.3937007874015748
          },
          {
            "duration": 1.2765949999999968,
            "durationTicks": 384,
            "midi": 83,
            "name": "B5",
            "ticks": 7680,
            "time": 25.5319,
            "velocity": 0.3937007874015748
          },
          {
            "duration": 1.2765949999999968,
            "durationTicks": 384,
            "midi": 71,
            "name": "B4",
            "ticks": 7680,
            "time": 25.5319,
            "velocity": 0.3937007874015748
          },
          {
            "duration": 0.9574462500000003,
            "durationTicks": 288,
            "midi": 74,
            "name": "D5",
            "ticks": 8064,
            "time": 26.808494999999997,
            "velocity": 0.3937007874015748
          },
          {
            "duration": 0.9574462500000003,
            "durationTicks": 288,
            "midi": 86,
            "name": "D6",
            "ticks": 8064,
            "time": 26.808494999999997,
            "velocity": 0.3937007874015748
          },
          {
            "duration": 0.3191487500000001,
            "durationTicks": 96,
            "midi": 74,
            "name": "D5",
            "ticks": 8352,
            "time": 27.765941249999997,
            "velocity": 0.3937007874015748
          },
          {
            "duration": 0.3191487500000001,
            "durationTicks": 96,
            "midi": 62,
            "name": "D4",
            "ticks": 8352,
            "time": 27.765941249999997,
            "velocity": 0.3937007874015748
          },
          {
            "duration": 2.5531900000000007,
            "durationTicks": 768,
            "midi": 64,
            "name": "E4",
            "ticks": 8448,
            "time": 28.085089999999997,
            "velocity": 0.3937007874015748
          },
          {
            "duration": 2.5531900000000007,
            "durationTicks": 768,
            "midi": 76,
            "name": "E5",
            "ticks": 8448,
            "time": 28.085089999999997,
            "velocity": 0.3937007874015748
          },
          {
            "duration": 0.7978718749999985,
            "durationTicks": 240,
            "midi": 67,
            "name": "G4",
            "ticks": 9216,
            "time": 30.638279999999998,
            "velocity": 0.3937007874015748
          },
          {
            "duration": 0.7978718749999985,
            "durationTicks": 240,
            "midi": 79,
            "name": "G5",
            "ticks": 9216,
            "time": 30.638279999999998,
            "velocity": 0.3937007874015748
          },
          {
            "duration": 0.3191487500000001,
            "durationTicks": 96,
            "midi": 67,
            "name": "G4",
            "ticks": 9504,
            "time": 31.59572625,
            "velocity": 0.3937007874015748
          },
          {
            "duration": 0.3191487500000001,
            "durationTicks": 96,
            "midi": 79,
            "name": "G5",
            "ticks": 9504,
            "time": 31.59572625,
            "velocity": 0.3937007874015748
          },
          {
            "duration": 0.9574462500000003,
            "durationTicks": 288,
            "midi": 74,
            "name": "D5",
            "ticks": 9600,
            "time": 31.914875,
            "velocity": 0.3937007874015748
          },
          {
            "duration": 0.9574462500000003,
            "durationTicks": 288,
            "midi": 86,
            "name": "D6",
            "ticks": 9600,
            "time": 31.914875,
            "velocity": 0.3937007874015748
          },
          {
            "duration": 0.31914874999999654,
            "durationTicks": 96,
            "midi": 79,
            "name": "G5",
            "ticks": 9888,
            "time": 32.87232125,
            "velocity": 0.3937007874015748
          },
          {
            "duration": 0.31914874999999654,
            "durationTicks": 96,
            "midi": 91,
            "name": "G6",
            "ticks": 9888,
            "time": 32.87232125,
            "velocity": 0.3937007874015748
          },
          {
            "duration": 0.31914875000000364,
            "durationTicks": 96,
            "midi": 90,
            "name": "F#6",
            "ticks": 9984,
            "time": 33.191469999999995,
            "velocity": 0.3937007874015748
          },
          {
            "duration": 0.31914875000000364,
            "durationTicks": 96,
            "midi": 78,
            "name": "F#5",
            "ticks": 9984,
            "time": 33.191469999999995,
            "velocity": 0.3937007874015748
          },
          {
            "duration": 0.31914874999999654,
            "durationTicks": 96,
            "midi": 91,
            "name": "G6",
            "ticks": 10080,
            "time": 33.51061875,
            "velocity": 0.3937007874015748
          },
          {
            "duration": 0.31914874999999654,
            "durationTicks": 96,
            "midi": 79,
            "name": "G5",
            "ticks": 10080,
            "time": 33.51061875,
            "velocity": 0.3937007874015748
          },
          {
            "duration": 1.595743750000004,
            "durationTicks": 480,
            "midi": 93,
            "name": "A6",
            "ticks": 10176,
            "time": 33.829767499999996,
            "velocity": 0.3937007874015748
          },
          {
            "duration": 1.595743750000004,
            "durationTicks": 480,
            "midi": 81,
            "name": "A5",
            "ticks": 10176,
            "time": 33.829767499999996,
            "velocity": 0.3937007874015748
          },
          {
            "duration": 0.31914874999999654,
            "durationTicks": 96,
            "midi": 79,
            "name": "G5",
            "ticks": 10656,
            "time": 35.42551125,
            "velocity": 0.3937007874015748
          },
          {
            "duration": 0.31914874999999654,
            "durationTicks": 96,
            "midi": 91,
            "name": "G6",
            "ticks": 10656,
            "time": 35.42551125,
            "velocity": 0.3937007874015748
          },
          {
            "duration": 5.1063800000000015,
            "durationTicks": 1536,
            "midi": 93,
            "name": "A6",
            "ticks": 10752,
            "time": 35.744659999999996,
            "velocity": 0.3937007874015748
          },
          {
            "duration": 5.1063800000000015,
            "durationTicks": 1536,
            "midi": 81,
            "name": "A5",
            "ticks": 10752,
            "time": 35.744659999999996,
            "velocity": 0.3937007874015748
          },
          {
            "duration": 7.659570000000002,
            "durationTicks": 2304,
            "midi": 79,
            "name": "G5",
            "ticks": 12288,
            "time": 40.85104,
            "velocity": 0.3937007874015748
          },
          {
            "duration": 7.659570000000002,
            "durationTicks": 2304,
            "midi": 91,
            "name": "G6",
            "ticks": 12288,
            "time": 40.85104,
            "velocity": 0.3937007874015748
          }
        ],
        "endOfTrackTicks": 14592
      },
      {
        "channel": 5,
        "controlChanges": {},
        "pitchBends": [],
        "instrument": {
          "family": "synth lead",
          "number": 87,
          "name": "lead 8 (bass + lead)"
        },
        "name": "8-Bit Triangle",
        "notes": [
          {
            "duration": 0.797871875,
            "durationTicks": 240,
            "midi": 55,
            "name": "G3",
            "ticks": 0,
            "time": 0,
            "velocity": 0.6929133858267716
          },
          {
            "duration": 0.31914875,
            "durationTicks": 96,
            "midi": 55,
            "name": "G3",
            "ticks": 288,
            "time": 0.9574462499999999,
            "velocity": 0.6929133858267716
          },
          {
            "duration": 0.9574462499999998,
            "durationTicks": 288,
            "midi": 62,
            "name": "D4",
            "ticks": 384,
            "time": 1.276595,
            "velocity": 0.6929133858267716
          },
          {
            "duration": 0.3191487500000001,
            "durationTicks": 96,
            "midi": 67,
            "name": "G4",
            "ticks": 672,
            "time": 2.2340412499999998,
            "velocity": 0.6929133858267716
          },
          {
            "duration": 0.6382975000000002,
            "durationTicks": 192,
            "midi": 66,
            "name": "F#4",
            "ticks": 768,
            "time": 2.55319,
            "velocity": 0.6929133858267716
          },
          {
            "duration": 1.9148924999999997,
            "durationTicks": 576,
            "midi": 62,
            "name": "D4",
            "ticks": 960,
            "time": 3.1914875,
            "velocity": 0.6929133858267716
          },
          {
            "duration": 0.7978718750000002,
            "durationTicks": 240,
            "midi": 55,
            "name": "G3",
            "ticks": 3072,
            "time": 10.21276,
            "velocity": 0.6929133858267716
          },
          {
            "duration": 0.3191487500000001,
            "durationTicks": 96,
            "midi": 55,
            "name": "G3",
            "ticks": 3360,
            "time": 11.17020625,
            "velocity": 0.6929133858267716
          },
          {
            "duration": 0.9574462500000003,
            "durationTicks": 288,
            "midi": 62,
            "name": "D4",
            "ticks": 3456,
            "time": 11.489355,
            "velocity": 0.6929133858267716
          },
          {
            "duration": 0.3191487500000001,
            "durationTicks": 96,
            "midi": 67,
            "name": "G4",
            "ticks": 3744,
            "time": 12.44680125,
            "velocity": 0.6929133858267716
          },
          {
            "duration": 0.6382974999999984,
            "durationTicks": 192,
            "midi": 66,
            "name": "F#4",
            "ticks": 3840,
            "time": 12.76595,
            "velocity": 0.6929133858267716
          },
          {
            "duration": 1.9148925000000006,
            "durationTicks": 576,
            "midi": 62,
            "name": "D4",
            "ticks": 4032,
            "time": 13.404247499999999,
            "velocity": 0.6929133858267716
          }
        ],
        "endOfTrackTicks": 4608
      },
      {
        "channel": 6,
        "controlChanges": {},
        "pitchBends": [],
        "instrument": {
          "family": "chromatic percussion",
          "number": 11,
          "name": "vibraphone"
        },
        "name": "Vibraphone",
        "notes": [
          {
            "duration": 0.4787231249999948,
            "durationTicks": 144,
            "midi": 79,
            "name": "G5",
            "ticks": 14976,
            "time": 49.787205,
            "velocity": 0.3937007874015748
          },
          {
            "duration": 0.4787231249999948,
            "durationTicks": 144,
            "midi": 67,
            "name": "G4",
            "ticks": 14976,
            "time": 49.787205,
            "velocity": 0.3937007874015748
          },
          {
            "duration": 0.15957437500000538,
            "durationTicks": 48,
            "midi": 79,
            "name": "G5",
            "ticks": 15120,
            "time": 50.265928124999995,
            "velocity": 0.3937007874015748
          },
          {
            "duration": 0.15957437500000538,
            "durationTicks": 48,
            "midi": 67,
            "name": "G4",
            "ticks": 15120,
            "time": 50.265928124999995,
            "velocity": 0.3937007874015748
          },
          {
            "duration": 0.15957437499999827,
            "durationTicks": 48,
            "midi": 86,
            "name": "D6",
            "ticks": 15168,
            "time": 50.4255025,
            "velocity": 0.3937007874015748
          },
          {
            "duration": 0.15957437499999827,
            "durationTicks": 48,
            "midi": 74,
            "name": "D5",
            "ticks": 15168,
            "time": 50.4255025,
            "velocity": 0.3937007874015748
          },
          {
            "duration": 0.15957437499999827,
            "durationTicks": 48,
            "midi": 79,
            "name": "G5",
            "ticks": 15216,
            "time": 50.585076875,
            "velocity": 0.3937007874015748
          },
          {
            "duration": 0.15957437499999827,
            "durationTicks": 48,
            "midi": 91,
            "name": "G6",
            "ticks": 15216,
            "time": 50.585076875,
            "velocity": 0.3937007874015748
          },
          {
            "duration": 0.31914875000000364,
            "durationTicks": 96,
            "midi": 90,
            "name": "F#6",
            "ticks": 15264,
            "time": 50.74465125,
            "velocity": 0.3937007874015748
          },
          {
            "duration": 0.31914875000000364,
            "durationTicks": 96,
            "midi": 78,
            "name": "F#5",
            "ticks": 15264,
            "time": 50.74465125,
            "velocity": 0.3937007874015748
          },
          {
            "duration": 0.31914874999999654,
            "durationTicks": 96,
            "midi": 74,
            "name": "D5",
            "ticks": 15360,
            "time": 51.0638,
            "velocity": 0.3937007874015748
          },
          {
            "duration": 0.31914874999999654,
            "durationTicks": 96,
            "midi": 86,
            "name": "D6",
            "ticks": 15360,
            "time": 51.0638,
            "velocity": 0.3937007874015748
          },
          {
            "duration": 0.4787231249999948,
            "durationTicks": 144,
            "midi": 79,
            "name": "G5",
            "ticks": 15360,
            "time": 51.0638,
            "velocity": 0.11811023622047244
          },
          {
            "duration": 0.4787231249999948,
            "durationTicks": 144,
            "midi": 67,
            "name": "G4",
            "ticks": 15360,
            "time": 51.0638,
            "velocity": 0.11811023622047244
          },
          {
            "duration": 0.15957437499999827,
            "durationTicks": 48,
            "midi": 67,
            "name": "G4",
            "ticks": 15504,
            "time": 51.542523124999995,
            "velocity": 0.11811023622047244
          },
          {
            "duration": 0.15957437499999827,
            "durationTicks": 48,
            "midi": 79,
            "name": "G5",
            "ticks": 15504,
            "time": 51.542523124999995,
            "velocity": 0.11811023622047244
          },
          {
            "duration": 0.15957437500000538,
            "durationTicks": 48,
            "midi": 74,
            "name": "D5",
            "ticks": 15552,
            "time": 51.702097499999994,
            "velocity": 0.11811023622047244
          },
          {
            "duration": 0.15957437500000538,
            "durationTicks": 48,
            "midi": 86,
            "name": "D6",
            "ticks": 15552,
            "time": 51.702097499999994,
            "velocity": 0.11811023622047244
          },
          {
            "duration": 0.15957437499999827,
            "durationTicks": 48,
            "midi": 91,
            "name": "G6",
            "ticks": 15600,
            "time": 51.861671875,
            "velocity": 0.11811023622047244
          },
          {
            "duration": 0.15957437499999827,
            "durationTicks": 48,
            "midi": 79,
            "name": "G5",
            "ticks": 15600,
            "time": 51.861671875,
            "velocity": 0.11811023622047244
          },
          {
            "duration": 0.31914874999999654,
            "durationTicks": 96,
            "midi": 90,
            "name": "F#6",
            "ticks": 15648,
            "time": 52.02124625,
            "velocity": 0.11811023622047244
          },
          {
            "duration": 0.31914874999999654,
            "durationTicks": 96,
            "midi": 78,
            "name": "F#5",
            "ticks": 15648,
            "time": 52.02124625,
            "velocity": 0.11811023622047244
          },
          {
            "duration": 0.31914875000000364,
            "durationTicks": 96,
            "midi": 86,
            "name": "D6",
            "ticks": 15744,
            "time": 52.340394999999994,
            "velocity": 0.11811023622047244
          },
          {
            "duration": 0.31914875000000364,
            "durationTicks": 96,
            "midi": 74,
            "name": "D5",
            "ticks": 15744,
            "time": 52.340394999999994,
            "velocity": 0.11811023622047244
          },
          {
            "duration": 0.4787231250000019,
            "durationTicks": 144,
            "midi": 67,
            "name": "G4",
            "ticks": 15744,
            "time": 52.340394999999994,
            "velocity": 0.03937007874015748
          },
          {
            "duration": 0.4787231250000019,
            "durationTicks": 144,
            "midi": 79,
            "name": "G5",
            "ticks": 15744,
            "time": 52.340394999999994,
            "velocity": 0.03937007874015748
          },
          {
            "duration": 0.15957437499999827,
            "durationTicks": 48,
            "midi": 67,
            "name": "G4",
            "ticks": 15888,
            "time": 52.819118124999996,
            "velocity": 0.03937007874015748
          },
          {
            "duration": 0.15957437499999827,
            "durationTicks": 48,
            "midi": 79,
            "name": "G5",
            "ticks": 15888,
            "time": 52.819118124999996,
            "velocity": 0.03937007874015748
          },
          {
            "duration": 0.15957437500000538,
            "durationTicks": 48,
            "midi": 74,
            "name": "D5",
            "ticks": 15936,
            "time": 52.978692499999994,
            "velocity": 0.03937007874015748
          },
          {
            "duration": 0.15957437500000538,
            "durationTicks": 48,
            "midi": 86,
            "name": "D6",
            "ticks": 15936,
            "time": 52.978692499999994,
            "velocity": 0.03937007874015748
          },
          {
            "duration": 0.15957437499999827,
            "durationTicks": 48,
            "midi": 91,
            "name": "G6",
            "ticks": 15984,
            "time": 53.138266875,
            "velocity": 0.03937007874015748
          },
          {
            "duration": 0.15957437499999827,
            "durationTicks": 48,
            "midi": 79,
            "name": "G5",
            "ticks": 15984,
            "time": 53.138266875,
            "velocity": 0.03937007874015748
          },
          {
            "duration": 0.31914874999999654,
            "durationTicks": 96,
            "midi": 90,
            "name": "F#6",
            "ticks": 16032,
            "time": 53.29784125,
            "velocity": 0.03937007874015748
          },
          {
            "duration": 0.31914874999999654,
            "durationTicks": 96,
            "midi": 78,
            "name": "F#5",
            "ticks": 16032,
            "time": 53.29784125,
            "velocity": 0.03937007874015748
          },
          {
            "duration": 0.31914875000000364,
            "durationTicks": 96,
            "midi": 74,
            "name": "D5",
            "ticks": 16128,
            "time": 53.616989999999994,
            "velocity": 0.03937007874015748
          },
          {
            "duration": 0.4787231250000019,
            "durationTicks": 144,
            "midi": 67,
            "name": "G4",
            "ticks": 16128,
            "time": 53.616989999999994,
            "velocity": 0.03937007874015748
          },
          {
            "duration": 0.4787231250000019,
            "durationTicks": 144,
            "midi": 79,
            "name": "G5",
            "ticks": 16128,
            "time": 53.616989999999994,
            "velocity": 0.03937007874015748
          },
          {
            "duration": 0.31914875000000364,
            "durationTicks": 96,
            "midi": 86,
            "name": "D6",
            "ticks": 16128,
            "time": 53.616989999999994,
            "velocity": 0.03937007874015748
          },
          {
            "duration": 0.15957437499999827,
            "durationTicks": 48,
            "midi": 67,
            "name": "G4",
            "ticks": 16272,
            "time": 54.095713124999996,
            "velocity": 0.03937007874015748
          },
          {
            "duration": 0.15957437499999827,
            "durationTicks": 48,
            "midi": 79,
            "name": "G5",
            "ticks": 16272,
            "time": 54.095713124999996,
            "velocity": 0.03937007874015748
          },
          {
            "duration": 0.15957437500000538,
            "durationTicks": 48,
            "midi": 86,
            "name": "D6",
            "ticks": 16320,
            "time": 54.255287499999994,
            "velocity": 0.03937007874015748
          },
          {
            "duration": 0.15957437500000538,
            "durationTicks": 48,
            "midi": 74,
            "name": "D5",
            "ticks": 16320,
            "time": 54.255287499999994,
            "velocity": 0.03937007874015748
          },
          {
            "duration": 0.15957437499999827,
            "durationTicks": 48,
            "midi": 79,
            "name": "G5",
            "ticks": 16368,
            "time": 54.414861875,
            "velocity": 0.03937007874015748
          },
          {
            "duration": 0.15957437499999827,
            "durationTicks": 48,
            "midi": 91,
            "name": "G6",
            "ticks": 16368,
            "time": 54.414861875,
            "velocity": 0.03937007874015748
          },
          {
            "duration": 0.31914874999999654,
            "durationTicks": 96,
            "midi": 90,
            "name": "F#6",
            "ticks": 16416,
            "time": 54.57443625,
            "velocity": 0.03937007874015748
          },
          {
            "duration": 0.31914874999999654,
            "durationTicks": 96,
            "midi": 78,
            "name": "F#5",
            "ticks": 16416,
            "time": 54.57443625,
            "velocity": 0.03937007874015748
          },
          {
            "duration": 0.31914875000000364,
            "durationTicks": 96,
            "midi": 86,
            "name": "D6",
            "ticks": 16512,
            "time": 54.893584999999995,
            "velocity": 0.03937007874015748
          },
          {
            "duration": 0.31914875000000364,
            "durationTicks": 96,
            "midi": 74,
            "name": "D5",
            "ticks": 16512,
            "time": 54.893584999999995,
            "velocity": 0.03937007874015748
          }
        ],
        "endOfTrackTicks": 16608
      },
      {
        "channel": 7,
        "controlChanges": {},
        "pitchBends": [],
        "instrument": {
          "family": "piano",
          "number": 0,
          "name": "acoustic grand piano"
        },
        "name": "Grand Piano",
        "notes": [
          {
            "duration": 0.31914875,
            "durationTicks": 96,
            "midi": 62,
            "name": "D4",
            "ticks": 0,
            "time": 0,
            "velocity": 0.5590551181102362
          },
          {
            "duration": 0.31914875,
            "durationTicks": 96,
            "midi": 50,
            "name": "D3",
            "ticks": 0,
            "time": 0,
            "velocity": 0.5590551181102362
          },
          {
            "duration": 0.31914875,
            "durationTicks": 96,
            "midi": 31,
            "name": "G1",
            "ticks": 0,
            "time": 0,
            "velocity": 0.5590551181102362
          },
          {
            "duration": 0.31914875,
            "durationTicks": 96,
            "midi": 43,
            "name": "G2",
            "ticks": 0,
            "time": 0,
            "velocity": 0.5590551181102362
          },
          {
            "duration": 0.9574462499999999,
            "durationTicks": 288,
            "midi": 55,
            "name": "G3",
            "ticks": 0,
            "time": 0,
            "velocity": 0.5590551181102362
          },
          {
            "duration": 0.159574375,
            "durationTicks": 48,
            "midi": 67,
            "name": "G4",
            "ticks": 48,
            "time": 0.159574375,
            "velocity": 0.5590551181102362
          },
          {
            "duration": 0.31914875,
            "durationTicks": 96,
            "midi": 31,
            "name": "G1",
            "ticks": 96,
            "time": 0.31914875,
            "velocity": 0.5590551181102362
          },
          {
            "duration": 0.159574375,
            "durationTicks": 48,
            "midi": 74,
            "name": "D5",
            "ticks": 96,
            "time": 0.31914875,
            "velocity": 0.5590551181102362
          },
          {
            "duration": 0.31914875,
            "durationTicks": 96,
            "midi": 43,
            "name": "G2",
            "ticks": 96,
            "time": 0.31914875,
            "velocity": 0.5590551181102362
          },
          {
            "duration": 0.31914875,
            "durationTicks": 96,
            "midi": 62,
            "name": "D4",
            "ticks": 96,
            "time": 0.31914875,
            "velocity": 0.5590551181102362
          },
          {
            "duration": 0.31914875,
            "durationTicks": 96,
            "midi": 50,
            "name": "D3",
            "ticks": 96,
            "time": 0.31914875,
            "velocity": 0.5590551181102362
          },
          {
            "duration": 0.159574375,
            "durationTicks": 48,
            "midi": 79,
            "name": "G5",
            "ticks": 144,
            "time": 0.47872312499999997,
            "velocity": 0.5590551181102362
          },
          {
            "duration": 0.31914875,
            "durationTicks": 96,
            "midi": 50,
            "name": "D3",
            "ticks": 192,
            "time": 0.6382975,
            "velocity": 0.5590551181102362
          },
          {
            "duration": 0.31914875,
            "durationTicks": 96,
            "midi": 43,
            "name": "G2",
            "ticks": 192,
            "time": 0.6382975,
            "velocity": 0.5590551181102362
          },
          {
            "duration": 0.31914875,
            "durationTicks": 96,
            "midi": 31,
            "name": "G1",
            "ticks": 192,
            "time": 0.6382975,
            "velocity": 0.5590551181102362
          },
          {
            "duration": 0.31914875,
            "durationTicks": 96,
            "midi": 62,
            "name": "D4",
            "ticks": 192,
            "time": 0.6382975,
            "velocity": 0.5590551181102362
          },
          {
            "duration": 0.15957437500000005,
            "durationTicks": 48,
            "midi": 78,
            "name": "F#5",
            "ticks": 192,
            "time": 0.6382975,
            "velocity": 0.5590551181102362
          },
          {
            "duration": 0.31914875,
            "durationTicks": 96,
            "midi": 50,
            "name": "D3",
            "ticks": 288,
            "time": 0.9574462499999999,
            "velocity": 0.5590551181102362
          },
          {
            "duration": 0.15957437499999994,
            "durationTicks": 48,
            "midi": 74,
            "name": "D5",
            "ticks": 288,
            "time": 0.9574462499999999,
            "velocity": 0.5590551181102362
          },
          {
            "duration": 0.31914875,
            "durationTicks": 96,
            "midi": 43,
            "name": "G2",
            "ticks": 288,
            "time": 0.9574462499999999,
            "velocity": 0.5590551181102362
          },
          {
            "duration": 0.31914875,
            "durationTicks": 96,
            "midi": 31,
            "name": "G1",
            "ticks": 288,
            "time": 0.9574462499999999,
            "velocity": 0.5590551181102362
          },
          {
            "duration": 0.31914875,
            "durationTicks": 96,
            "midi": 62,
            "name": "D4",
            "ticks": 288,
            "time": 0.9574462499999999,
            "velocity": 0.5590551181102362
          },
          {
            "duration": 0.31914875,
            "durationTicks": 96,
            "midi": 55,
            "name": "G3",
            "ticks": 288,
            "time": 0.9574462499999999,
            "velocity": 0.5590551181102362
          },
          {
            "duration": 0.3191487500000001,
            "durationTicks": 96,
            "midi": 50,
            "name": "D3",
            "ticks": 384,
            "time": 1.276595,
            "velocity": 0.5590551181102362
          },
          {
            "duration": 0.3191487500000001,
            "durationTicks": 96,
            "midi": 31,
            "name": "G1",
            "ticks": 384,
            "time": 1.276595,
            "velocity": 0.5590551181102362
          },
          {
            "duration": 0.4787231249999999,
            "durationTicks": 144,
            "midi": 60,
            "name": "C4",
            "ticks": 384,
            "time": 1.276595,
            "velocity": 0.5590551181102362
          },
          {
            "duration": 0.3191487500000001,
            "durationTicks": 96,
            "midi": 43,
            "name": "G2",
            "ticks": 384,
            "time": 1.276595,
            "velocity": 0.5590551181102362
          },
          {
            "duration": 0.3191487500000001,
            "durationTicks": 96,
            "midi": 62,
            "name": "D4",
            "ticks": 384,
            "time": 1.276595,
            "velocity": 0.5590551181102362
          },
          {
            "duration": 0.31914874999999987,
            "durationTicks": 96,
            "midi": 62,
            "name": "D4",
            "ticks": 480,
            "time": 1.59574375,
            "velocity": 0.5590551181102362
          },
          {
            "duration": 0.31914874999999987,
            "durationTicks": 96,
            "midi": 50,
            "name": "D3",
            "ticks": 480,
            "time": 1.59574375,
            "velocity": 0.5590551181102362
          },
          {
            "duration": 0.31914874999999987,
            "durationTicks": 96,
            "midi": 74,
            "name": "D5",
            "ticks": 480,
            "time": 1.59574375,
            "velocity": 0.5590551181102362
          },
          {
            "duration": 0.31914874999999987,
            "durationTicks": 96,
            "midi": 31,
            "name": "G1",
            "ticks": 480,
            "time": 1.59574375,
            "velocity": 0.5590551181102362
          },
          {
            "duration": 0.31914874999999987,
            "durationTicks": 96,
            "midi": 43,
            "name": "G2",
            "ticks": 480,
            "time": 1.59574375,
            "velocity": 0.5590551181102362
          },
          {
            "duration": 0.4787231249999999,
            "durationTicks": 144,
            "midi": 59,
            "name": "B3",
            "ticks": 528,
            "time": 1.7553181249999998,
            "velocity": 0.5590551181102362
          },
          {
            "duration": 0.31914874999999987,
            "durationTicks": 96,
            "midi": 31,
            "name": "G1",
            "ticks": 576,
            "time": 1.9148924999999999,
            "velocity": 0.5590551181102362
          },
          {
            "duration": 0.31914874999999987,
            "durationTicks": 96,
            "midi": 50,
            "name": "D3",
            "ticks": 576,
            "time": 1.9148924999999999,
            "velocity": 0.5590551181102362
          },
          {
            "duration": 0.31914874999999987,
            "durationTicks": 96,
            "midi": 43,
            "name": "G2",
            "ticks": 576,
            "time": 1.9148924999999999,
            "velocity": 0.5590551181102362
          },
          {
            "duration": 0.31914874999999987,
            "durationTicks": 96,
            "midi": 62,
            "name": "D4",
            "ticks": 576,
            "time": 1.9148924999999999,
            "velocity": 0.5590551181102362
          },
          {
            "duration": 0.3191487500000001,
            "durationTicks": 96,
            "midi": 57,
            "name": "A3",
            "ticks": 672,
            "time": 2.2340412499999998,
            "velocity": 0.5590551181102362
          },
          {
            "duration": 0.3191487500000001,
            "durationTicks": 96,
            "midi": 43,
            "name": "G2",
            "ticks": 672,
            "time": 2.2340412499999998,
            "velocity": 0.5590551181102362
          },
          {
            "duration": 0.3191487500000001,
            "durationTicks": 96,
            "midi": 62,
            "name": "D4",
            "ticks": 672,
            "time": 2.2340412499999998,
            "velocity": 0.5590551181102362
          },
          {
            "duration": 0.3191487500000001,
            "durationTicks": 96,
            "midi": 74,
            "name": "D5",
            "ticks": 672,
            "time": 2.2340412499999998,
            "velocity": 0.5590551181102362
          },
          {
            "duration": 0.3191487500000001,
            "durationTicks": 96,
            "midi": 50,
            "name": "D3",
            "ticks": 672,
            "time": 2.2340412499999998,
            "velocity": 0.5590551181102362
          },
          {
            "duration": 0.3191487500000001,
            "durationTicks": 96,
            "midi": 31,
            "name": "G1",
            "ticks": 672,
            "time": 2.2340412499999998,
            "velocity": 0.5590551181102362
          },
          {
            "duration": 0.3191487500000001,
            "durationTicks": 96,
            "midi": 50,
            "name": "D3",
            "ticks": 768,
            "time": 2.55319,
            "velocity": 0.5590551181102362
          },
          {
            "duration": 0.3191487500000001,
            "durationTicks": 96,
            "midi": 45,
            "name": "A2",
            "ticks": 768,
            "time": 2.55319,
            "velocity": 0.5590551181102362
          },
          {
            "duration": 0.3191487500000001,
            "durationTicks": 96,
            "midi": 33,
            "name": "A1",
            "ticks": 768,
            "time": 2.55319,
            "velocity": 0.5590551181102362
          },
          {
            "duration": 0.9574462499999998,
            "durationTicks": 288,
            "midi": 55,
            "name": "G3",
            "ticks": 768,
            "time": 2.55319,
            "velocity": 0.5590551181102362
          },
          {
            "duration": 0.3191487500000001,
            "durationTicks": 96,
            "midi": 62,
            "name": "D4",
            "ticks": 768,
            "time": 2.55319,
            "velocity": 0.5590551181102362
          },
          {
            "duration": 0.3191487500000001,
            "durationTicks": 96,
            "midi": 45,
            "name": "A2",
            "ticks": 864,
            "time": 2.87233875,
            "velocity": 0.5590551181102362
          },
          {
            "duration": 0.3191487500000001,
            "durationTicks": 96,
            "midi": 33,
            "name": "A1",
            "ticks": 864,
            "time": 2.87233875,
            "velocity": 0.5590551181102362
          },
          {
            "duration": 0.3191487500000001,
            "durationTicks": 96,
            "midi": 62,
            "name": "D4",
            "ticks": 864,
            "time": 2.87233875,
            "velocity": 0.5590551181102362
          },
          {
            "duration": 0.3191487500000001,
            "durationTicks": 96,
            "midi": 50,
            "name": "D3",
            "ticks": 864,
            "time": 2.87233875,
            "velocity": 0.5590551181102362
          },
          {
            "duration": 0.3191487500000001,
            "durationTicks": 96,
            "midi": 74,
            "name": "D5",
            "ticks": 864,
            "time": 2.87233875,
            "velocity": 0.5590551181102362
          },
          {
            "duration": 0.31914874999999965,
            "durationTicks": 96,
            "midi": 62,
            "name": "D4",
            "ticks": 960,
            "time": 3.1914875,
            "velocity": 0.5590551181102362
          },
          {
            "duration": 0.31914874999999965,
            "durationTicks": 96,
            "midi": 45,
            "name": "A2",
            "ticks": 960,
            "time": 3.1914875,
            "velocity": 0.5590551181102362
          },
          {
            "duration": 0.31914874999999965,
            "durationTicks": 96,
            "midi": 33,
            "name": "A1",
            "ticks": 960,
            "time": 3.1914875,
            "velocity": 0.5590551181102362
          },
          {
            "duration": 0.31914874999999965,
            "durationTicks": 96,
            "midi": 50,
            "name": "D3",
            "ticks": 960,
            "time": 3.1914875,
            "velocity": 0.5590551181102362
          },
          {
            "duration": 0.3191487500000001,
            "durationTicks": 96,
            "midi": 55,
            "name": "G3",
            "ticks": 1056,
            "time": 3.5106362499999997,
            "velocity": 0.5590551181102362
          },
          {
            "duration": 0.3191487500000001,
            "durationTicks": 96,
            "midi": 45,
            "name": "A2",
            "ticks": 1056,
            "time": 3.5106362499999997,
            "velocity": 0.5590551181102362
          },
          {
            "duration": 0.3191487500000001,
            "durationTicks": 96,
            "midi": 33,
            "name": "A1",
            "ticks": 1056,
            "time": 3.5106362499999997,
            "velocity": 0.5590551181102362
          },
          {
            "duration": 0.3191487500000001,
            "durationTicks": 96,
            "midi": 50,
            "name": "D3",
            "ticks": 1056,
            "time": 3.5106362499999997,
            "velocity": 0.5590551181102362
          },
          {
            "duration": 0.3191487500000001,
            "durationTicks": 96,
            "midi": 74,
            "name": "D5",
            "ticks": 1056,
            "time": 3.5106362499999997,
            "velocity": 0.5590551181102362
          },
          {
            "duration": 0.3191487500000001,
            "durationTicks": 96,
            "midi": 62,
            "name": "D4",
            "ticks": 1056,
            "time": 3.5106362499999997,
            "velocity": 0.5590551181102362
          },
          {
            "duration": 0.31914874999999965,
            "durationTicks": 96,
            "midi": 33,
            "name": "A1",
            "ticks": 1152,
            "time": 3.8297849999999998,
            "velocity": 0.5590551181102362
          },
          {
            "duration": 0.31914874999999965,
            "durationTicks": 96,
            "midi": 45,
            "name": "A2",
            "ticks": 1152,
            "time": 3.8297849999999998,
            "velocity": 0.5590551181102362
          },
          {
            "duration": 0.31914874999999965,
            "durationTicks": 96,
            "midi": 62,
            "name": "D4",
            "ticks": 1152,
            "time": 3.8297849999999998,
            "velocity": 0.5590551181102362
          },
          {
            "duration": 0.31914874999999965,
            "durationTicks": 96,
            "midi": 50,
            "name": "D3",
            "ticks": 1152,
            "time": 3.8297849999999998,
            "velocity": 0.5590551181102362
          },
          {
            "duration": 0.4787231249999997,
            "durationTicks": 144,
            "midi": 60,
            "name": "C4",
            "ticks": 1152,
            "time": 3.8297849999999998,
            "velocity": 0.5590551181102362
          },
          {
            "duration": 0.3191487500000001,
            "durationTicks": 96,
            "midi": 33,
            "name": "A1",
            "ticks": 1248,
            "time": 4.148933749999999,
            "velocity": 0.5590551181102362
          },
          {
            "duration": 0.3191487500000001,
            "durationTicks": 96,
            "midi": 50,
            "name": "D3",
            "ticks": 1248,
            "time": 4.148933749999999,
            "velocity": 0.5590551181102362
          },
          {
            "duration": 0.3191487500000001,
            "durationTicks": 96,
            "midi": 45,
            "name": "A2",
            "ticks": 1248,
            "time": 4.148933749999999,
            "velocity": 0.5590551181102362
          },
          {
            "duration": 0.3191487500000001,
            "durationTicks": 96,
            "midi": 74,
            "name": "D5",
            "ticks": 1248,
            "time": 4.148933749999999,
            "velocity": 0.5590551181102362
          },
          {
            "duration": 0.3191487500000001,
            "durationTicks": 96,
            "midi": 62,
            "name": "D4",
            "ticks": 1248,
            "time": 4.148933749999999,
            "velocity": 0.5590551181102362
          },
          {
            "duration": 0.47872312500000014,
            "durationTicks": 144,
            "midi": 59,
            "name": "B3",
            "ticks": 1296,
            "time": 4.3085081249999995,
            "velocity": 0.5590551181102362
          },
          {
            "duration": 0.3191487500000001,
            "durationTicks": 96,
            "midi": 45,
            "name": "A2",
            "ticks": 1344,
            "time": 4.4680824999999995,
            "velocity": 0.5590551181102362
          },
          {
            "duration": 0.3191487500000001,
            "durationTicks": 96,
            "midi": 33,
            "name": "A1",
            "ticks": 1344,
            "time": 4.4680824999999995,
            "velocity": 0.5590551181102362
          },
          {
            "duration": 0.3191487500000001,
            "durationTicks": 96,
            "midi": 62,
            "name": "D4",
            "ticks": 1344,
            "time": 4.4680824999999995,
            "velocity": 0.5590551181102362
          },
          {
            "duration": 0.3191487500000001,
            "durationTicks": 96,
            "midi": 50,
            "name": "D3",
            "ticks": 1344,
            "time": 4.4680824999999995,
            "velocity": 0.5590551181102362
          },
          {
            "duration": 0.3191487500000001,
            "durationTicks": 96,
            "midi": 74,
            "name": "D5",
            "ticks": 1440,
            "time": 4.78723125,
            "velocity": 0.5590551181102362
          },
          {
            "duration": 0.3191487500000001,
            "durationTicks": 96,
            "midi": 57,
            "name": "A3",
            "ticks": 1440,
            "time": 4.78723125,
            "velocity": 0.5590551181102362
          },
          {
            "duration": 0.3191487500000001,
            "durationTicks": 96,
            "midi": 62,
            "name": "D4",
            "ticks": 1440,
            "time": 4.78723125,
            "velocity": 0.5590551181102362
          },
          {
            "duration": 0.3191487500000001,
            "durationTicks": 96,
            "midi": 50,
            "name": "D3",
            "ticks": 1440,
            "time": 4.78723125,
            "velocity": 0.5590551181102362
          },
          {
            "duration": 0.3191487500000001,
            "durationTicks": 96,
            "midi": 33,
            "name": "A1",
            "ticks": 1440,
            "time": 4.78723125,
            "velocity": 0.5590551181102362
          },
          {
            "duration": 0.3191487500000001,
            "durationTicks": 96,
            "midi": 45,
            "name": "A2",
            "ticks": 1440,
            "time": 4.78723125,
            "velocity": 0.5590551181102362
          },
          {
            "duration": 0.3191487500000001,
            "durationTicks": 96,
            "midi": 50,
            "name": "D3",
            "ticks": 1536,
            "time": 5.10638,
            "velocity": 0.5590551181102362
          },
          {
            "duration": 0.3191487500000001,
            "durationTicks": 96,
            "midi": 47,
            "name": "B2",
            "ticks": 1536,
            "time": 5.10638,
            "velocity": 0.5590551181102362
          },
          {
            "duration": 0.9574462500000003,
            "durationTicks": 288,
            "midi": 55,
            "name": "G3",
            "ticks": 1536,
            "time": 5.10638,
            "velocity": 0.5590551181102362
          },
          {
            "duration": 0.3191487500000001,
            "durationTicks": 96,
            "midi": 35,
            "name": "B1",
            "ticks": 1536,
            "time": 5.10638,
            "velocity": 0.5590551181102362
          },
          {
            "duration": 0.3191487500000001,
            "durationTicks": 96,
            "midi": 62,
            "name": "D4",
            "ticks": 1536,
            "time": 5.10638,
            "velocity": 0.5590551181102362
          },
          {
            "duration": 0.15957437500000005,
            "durationTicks": 48,
            "midi": 67,
            "name": "G4",
            "ticks": 1584,
            "time": 5.265954375,
            "velocity": 0.5590551181102362
          },
          {
            "duration": 0.15957437500000005,
            "durationTicks": 48,
            "midi": 74,
            "name": "D5",
            "ticks": 1632,
            "time": 5.42552875,
            "velocity": 0.5590551181102362
          },
          {
            "duration": 0.3191487500000001,
            "durationTicks": 96,
            "midi": 35,
            "name": "B1",
            "ticks": 1632,
            "time": 5.42552875,
            "velocity": 0.5590551181102362
          },
          {
            "duration": 0.3191487500000001,
            "durationTicks": 96,
            "midi": 47,
            "name": "B2",
            "ticks": 1632,
            "time": 5.42552875,
            "velocity": 0.5590551181102362
          },
          {
            "duration": 0.3191487500000001,
            "durationTicks": 96,
            "midi": 50,
            "name": "D3",
            "ticks": 1632,
            "time": 5.42552875,
            "velocity": 0.5590551181102362
          },
          {
            "duration": 0.3191487500000001,
            "durationTicks": 96,
            "midi": 62,
            "name": "D4",
            "ticks": 1632,
            "time": 5.42552875,
            "velocity": 0.5590551181102362
          },
          {
            "duration": 0.15957437500000005,
            "durationTicks": 48,
            "midi": 79,
            "name": "G5",
            "ticks": 1680,
            "time": 5.585103125,
            "velocity": 0.5590551181102362
          },
          {
            "duration": 0.3191487500000001,
            "durationTicks": 96,
            "midi": 35,
            "name": "B1",
            "ticks": 1728,
            "time": 5.7446775,
            "velocity": 0.5590551181102362
          },
          {
            "duration": 0.3191487500000001,
            "durationTicks": 96,
            "midi": 47,
            "name": "B2",
            "ticks": 1728,
            "time": 5.7446775,
            "velocity": 0.5590551181102362
          },
          {
            "duration": 0.15957437500000005,
            "durationTicks": 48,
            "midi": 78,
            "name": "F#5",
            "ticks": 1728,
            "time": 5.7446775,
            "velocity": 0.5590551181102362
          },
          {
            "duration": 0.3191487500000001,
            "durationTicks": 96,
            "midi": 50,
            "name": "D3",
            "ticks": 1728,
            "time": 5.7446775,
            "velocity": 0.5590551181102362
          },
          {
            "duration": 0.3191487500000001,
            "durationTicks": 96,
            "midi": 62,
            "name": "D4",
            "ticks": 1728,
            "time": 5.7446775,
            "velocity": 0.5590551181102362
          },
          {
            "duration": 0.15957437500000005,
            "durationTicks": 48,
            "midi": 74,
            "name": "D5",
            "ticks": 1824,
            "time": 6.06382625,
            "velocity": 0.5590551181102362
          },
          {
            "duration": 0.3191487500000001,
            "durationTicks": 96,
            "midi": 62,
            "name": "D4",
            "ticks": 1824,
            "time": 6.06382625,
            "velocity": 0.5590551181102362
          },
          {
            "duration": 0.3191487500000001,
            "durationTicks": 96,
            "midi": 50,
            "name": "D3",
            "ticks": 1824,
            "time": 6.06382625,
            "velocity": 0.5590551181102362
          },
          {
            "duration": 0.3191487500000001,
            "durationTicks": 96,
            "midi": 55,
            "name": "G3",
            "ticks": 1824,
            "time": 6.06382625,
            "velocity": 0.5590551181102362
          },
          {
            "duration": 0.3191487500000001,
            "durationTicks": 96,
            "midi": 35,
            "name": "B1",
            "ticks": 1824,
            "time": 6.06382625,
            "velocity": 0.5590551181102362
          },
          {
            "duration": 0.3191487500000001,
            "durationTicks": 96,
            "midi": 47,
            "name": "B2",
            "ticks": 1824,
            "time": 6.06382625,
            "velocity": 0.5590551181102362
          },
          {
            "duration": 0.15957437500000005,
            "durationTicks": 48,
            "midi": 79,
            "name": "G5",
            "ticks": 1872,
            "time": 6.223400625,
            "velocity": 0.5590551181102362
          },
          {
            "duration": 0.3191487499999992,
            "durationTicks": 96,
            "midi": 62,
            "name": "D4",
            "ticks": 1920,
            "time": 6.382975,
            "velocity": 0.5590551181102362
          },
          {
            "duration": 0.3191487499999992,
            "durationTicks": 96,
            "midi": 35,
            "name": "B1",
            "ticks": 1920,
            "time": 6.382975,
            "velocity": 0.5590551181102362
          },
          {
            "duration": 0.15957437499999916,
            "durationTicks": 48,
            "midi": 78,
            "name": "F#5",
            "ticks": 1920,
            "time": 6.382975,
            "velocity": 0.5590551181102362
          },
          {
            "duration": 0.47872312499999925,
            "durationTicks": 144,
            "midi": 60,
            "name": "C4",
            "ticks": 1920,
            "time": 6.382975,
            "velocity": 0.5590551181102362
          },
          {
            "duration": 0.3191487499999992,
            "durationTicks": 96,
            "midi": 47,
            "name": "B2",
            "ticks": 1920,
            "time": 6.382975,
            "velocity": 0.5590551181102362
          },
          {
            "duration": 0.3191487499999992,
            "durationTicks": 96,
            "midi": 50,
            "name": "D3",
            "ticks": 1920,
            "time": 6.382975,
            "velocity": 0.5590551181102362
          },
          {
            "duration": 0.3191487500000001,
            "durationTicks": 96,
            "midi": 35,
            "name": "B1",
            "ticks": 2016,
            "time": 6.702123749999999,
            "velocity": 0.5590551181102362
          },
          {
            "duration": 0.15957437500000005,
            "durationTicks": 48,
            "midi": 74,
            "name": "D5",
            "ticks": 2016,
            "time": 6.702123749999999,
            "velocity": 0.5590551181102362
          },
          {
            "duration": 0.3191487500000001,
            "durationTicks": 96,
            "midi": 62,
            "name": "D4",
            "ticks": 2016,
            "time": 6.702123749999999,
            "velocity": 0.5590551181102362
          },
          {
            "duration": 0.3191487500000001,
            "durationTicks": 96,
            "midi": 50,
            "name": "D3",
            "ticks": 2016,
            "time": 6.702123749999999,
            "velocity": 0.5590551181102362
          },
          {
            "duration": 0.3191487500000001,
            "durationTicks": 96,
            "midi": 47,
            "name": "B2",
            "ticks": 2016,
            "time": 6.702123749999999,
            "velocity": 0.5590551181102362
          },
          {
            "duration": 0.47872312500000014,
            "durationTicks": 144,
            "midi": 59,
            "name": "B3",
            "ticks": 2064,
            "time": 6.861698124999999,
            "velocity": 0.5590551181102362
          },
          {
            "duration": 0.3191487500000001,
            "durationTicks": 96,
            "midi": 35,
            "name": "B1",
            "ticks": 2112,
            "time": 7.021272499999999,
            "velocity": 0.5590551181102362
          },
          {
            "duration": 0.3191487500000001,
            "durationTicks": 96,
            "midi": 50,
            "name": "D3",
            "ticks": 2112,
            "time": 7.021272499999999,
            "velocity": 0.5590551181102362
          },
          {
            "duration": 0.3191487500000001,
            "durationTicks": 96,
            "midi": 62,
            "name": "D4",
            "ticks": 2112,
            "time": 7.021272499999999,
            "velocity": 0.5590551181102362
          },
          {
            "duration": 0.3191487500000001,
            "durationTicks": 96,
            "midi": 47,
            "name": "B2",
            "ticks": 2112,
            "time": 7.021272499999999,
            "velocity": 0.5590551181102362
          },
          {
            "duration": 0.3191487500000001,
            "durationTicks": 96,
            "midi": 35,
            "name": "B1",
            "ticks": 2208,
            "time": 7.3404212499999995,
            "velocity": 0.5590551181102362
          },
          {
            "duration": 0.3191487500000001,
            "durationTicks": 96,
            "midi": 57,
            "name": "A3",
            "ticks": 2208,
            "time": 7.3404212499999995,
            "velocity": 0.5590551181102362
          },
          {
            "duration": 0.3191487500000001,
            "durationTicks": 96,
            "midi": 47,
            "name": "B2",
            "ticks": 2208,
            "time": 7.3404212499999995,
            "velocity": 0.5590551181102362
          },
          {
            "duration": 0.3191487500000001,
            "durationTicks": 96,
            "midi": 50,
            "name": "D3",
            "ticks": 2208,
            "time": 7.3404212499999995,
            "velocity": 0.5590551181102362
          },
          {
            "duration": 0.3191487500000001,
            "durationTicks": 96,
            "midi": 62,
            "name": "D4",
            "ticks": 2208,
            "time": 7.3404212499999995,
            "velocity": 0.5590551181102362
          },
          {
            "duration": 0.3191487500000001,
            "durationTicks": 96,
            "midi": 62,
            "name": "D4",
            "ticks": 2304,
            "time": 7.6595699999999995,
            "velocity": 0.5590551181102362
          },
          {
            "duration": 0.3191487500000001,
            "durationTicks": 96,
            "midi": 55,
            "name": "G3",
            "ticks": 2304,
            "time": 7.6595699999999995,
            "velocity": 0.5590551181102362
          },
          {
            "duration": 0.47872312499999925,
            "durationTicks": 144,
            "midi": 60,
            "name": "C4",
            "ticks": 2304,
            "time": 7.6595699999999995,
            "velocity": 0.5590551181102362
          },
          {
            "duration": 0.3191487500000001,
            "durationTicks": 96,
            "midi": 36,
            "name": "C2",
            "ticks": 2304,
            "time": 7.6595699999999995,
            "velocity": 0.5590551181102362
          },
          {
            "duration": 0.3191487500000001,
            "durationTicks": 96,
            "midi": 48,
            "name": "C3",
            "ticks": 2304,
            "time": 7.6595699999999995,
            "velocity": 0.5590551181102362
          },
          {
            "duration": 0.15957437500000005,
            "durationTicks": 48,
            "midi": 67,
            "name": "G4",
            "ticks": 2352,
            "time": 7.819144375,
            "velocity": 0.5590551181102362
          },
          {
            "duration": 0.3191487499999992,
            "durationTicks": 96,
            "midi": 55,
            "name": "G3",
            "ticks": 2400,
            "time": 7.97871875,
            "velocity": 0.5590551181102362
          },
          {
            "duration": 0.3191487499999992,
            "durationTicks": 96,
            "midi": 62,
            "name": "D4",
            "ticks": 2400,
            "time": 7.97871875,
            "velocity": 0.5590551181102362
          },
          {
            "duration": 0.3191487499999992,
            "durationTicks": 96,
            "midi": 48,
            "name": "C3",
            "ticks": 2400,
            "time": 7.97871875,
            "velocity": 0.5590551181102362
          },
          {
            "duration": 0.3191487499999992,
            "durationTicks": 96,
            "midi": 36,
            "name": "C2",
            "ticks": 2400,
            "time": 7.97871875,
            "velocity": 0.5590551181102362
          },
          {
            "duration": 0.15957437499999916,
            "durationTicks": 48,
            "midi": 74,
            "name": "D5",
            "ticks": 2400,
            "time": 7.97871875,
            "velocity": 0.5590551181102362
          },
          {
            "duration": 0.15957437500000005,
            "durationTicks": 48,
            "midi": 79,
            "name": "G5",
            "ticks": 2448,
            "time": 8.138293124999999,
            "velocity": 0.5590551181102362
          },
          {
            "duration": 0.47872312500000014,
            "durationTicks": 144,
            "midi": 59,
            "name": "B3",
            "ticks": 2448,
            "time": 8.138293124999999,
            "velocity": 0.5590551181102362
          },
          {
            "duration": 0.3191487500000001,
            "durationTicks": 96,
            "midi": 62,
            "name": "D4",
            "ticks": 2496,
            "time": 8.297867499999999,
            "velocity": 0.5590551181102362
          },
          {
            "duration": 0.3191487500000001,
            "durationTicks": 96,
            "midi": 55,
            "name": "G3",
            "ticks": 2496,
            "time": 8.297867499999999,
            "velocity": 0.5590551181102362
          },
          {
            "duration": 0.15957437500000005,
            "durationTicks": 48,
            "midi": 78,
            "name": "F#5",
            "ticks": 2496,
            "time": 8.297867499999999,
            "velocity": 0.5590551181102362
          },
          {
            "duration": 0.3191487500000001,
            "durationTicks": 96,
            "midi": 48,
            "name": "C3",
            "ticks": 2496,
            "time": 8.297867499999999,
            "velocity": 0.5590551181102362
          },
          {
            "duration": 0.3191487500000001,
            "durationTicks": 96,
            "midi": 36,
            "name": "C2",
            "ticks": 2496,
            "time": 8.297867499999999,
            "velocity": 0.5590551181102362
          },
          {
            "duration": 0.3191487500000001,
            "durationTicks": 96,
            "midi": 57,
            "name": "A3",
            "ticks": 2592,
            "time": 8.617016249999999,
            "velocity": 0.5590551181102362
          },
          {
            "duration": 0.15957437500000005,
            "durationTicks": 48,
            "midi": 74,
            "name": "D5",
            "ticks": 2592,
            "time": 8.617016249999999,
            "velocity": 0.5590551181102362
          },
          {
            "duration": 0.3191487500000001,
            "durationTicks": 96,
            "midi": 62,
            "name": "D4",
            "ticks": 2592,
            "time": 8.617016249999999,
            "velocity": 0.5590551181102362
          },
          {
            "duration": 0.3191487500000001,
            "durationTicks": 96,
            "midi": 48,
            "name": "C3",
            "ticks": 2592,
            "time": 8.617016249999999,
            "velocity": 0.5590551181102362
          },
          {
            "duration": 0.3191487500000001,
            "durationTicks": 96,
            "midi": 36,
            "name": "C2",
            "ticks": 2592,
            "time": 8.617016249999999,
            "velocity": 0.5590551181102362
          },
          {
            "duration": 0.3191487500000001,
            "durationTicks": 96,
            "midi": 55,
            "name": "G3",
            "ticks": 2592,
            "time": 8.617016249999999,
            "velocity": 0.5590551181102362
          },
          {
            "duration": 0.15957437500000005,
            "durationTicks": 48,
            "midi": 79,
            "name": "G5",
            "ticks": 2640,
            "time": 8.776590624999999,
            "velocity": 0.5590551181102362
          },
          {
            "duration": 0.3191487500000001,
            "durationTicks": 96,
            "midi": 62,
            "name": "D4",
            "ticks": 2688,
            "time": 8.936164999999999,
            "velocity": 0.5590551181102362
          },
          {
            "duration": 0.3191487500000001,
            "durationTicks": 96,
            "midi": 36,
            "name": "C2",
            "ticks": 2688,
            "time": 8.936164999999999,
            "velocity": 0.5590551181102362
          },
          {
            "duration": 0.3191487500000001,
            "durationTicks": 96,
            "midi": 48,
            "name": "C3",
            "ticks": 2688,
            "time": 8.936164999999999,
            "velocity": 0.5590551181102362
          },
          {
            "duration": 0.3191487500000001,
            "durationTicks": 96,
            "midi": 55,
            "name": "G3",
            "ticks": 2688,
            "time": 8.936164999999999,
            "velocity": 0.5590551181102362
          },
          {
            "duration": 0.15957437500000005,
            "durationTicks": 48,
            "midi": 78,
            "name": "F#5",
            "ticks": 2688,
            "time": 8.936164999999999,
            "velocity": 0.5590551181102362
          },
          {
            "duration": 0.47872312500000014,
            "durationTicks": 144,
            "midi": 60,
            "name": "C4",
            "ticks": 2688,
            "time": 8.936164999999999,
            "velocity": 0.5590551181102362
          },
          {
            "duration": 0.3191487500000001,
            "durationTicks": 96,
            "midi": 36,
            "name": "C2",
            "ticks": 2784,
            "time": 9.25531375,
            "velocity": 0.5590551181102362
          },
          {
            "duration": 0.15957437500000005,
            "durationTicks": 48,
            "midi": 74,
            "name": "D5",
            "ticks": 2784,
            "time": 9.25531375,
            "velocity": 0.5590551181102362
          },
          {
            "duration": 0.3191487500000001,
            "durationTicks": 96,
            "midi": 62,
            "name": "D4",
            "ticks": 2784,
            "time": 9.25531375,
            "velocity": 0.5590551181102362
          },
          {
            "duration": 0.3191487500000001,
            "durationTicks": 96,
            "midi": 55,
            "name": "G3",
            "ticks": 2784,
            "time": 9.25531375,
            "velocity": 0.5590551181102362
          },
          {
            "duration": 0.3191487500000001,
            "durationTicks": 96,
            "midi": 48,
            "name": "C3",
            "ticks": 2784,
            "time": 9.25531375,
            "velocity": 0.5590551181102362
          },
          {
            "duration": 0.47872312500000014,
            "durationTicks": 144,
            "midi": 59,
            "name": "B3",
            "ticks": 2832,
            "time": 9.414888125,
            "velocity": 0.5590551181102362
          },
          {
            "duration": 0.3191487500000001,
            "durationTicks": 96,
            "midi": 38,
            "name": "D2",
            "ticks": 2880,
            "time": 9.5744625,
            "velocity": 0.5590551181102362
          },
          {
            "duration": 0.3191487500000001,
            "durationTicks": 96,
            "midi": 55,
            "name": "G3",
            "ticks": 2880,
            "time": 9.5744625,
            "velocity": 0.5590551181102362
          },
          {
            "duration": 0.3191487500000001,
            "durationTicks": 96,
            "midi": 62,
            "name": "D4",
            "ticks": 2880,
            "time": 9.5744625,
            "velocity": 0.5590551181102362
          },
          {
            "duration": 0.3191487500000001,
            "durationTicks": 96,
            "midi": 50,
            "name": "D3",
            "ticks": 2880,
            "time": 9.5744625,
            "velocity": 0.5590551181102362
          },
          {
            "duration": 0.3191487500000001,
            "durationTicks": 96,
            "midi": 55,
            "name": "G3",
            "ticks": 2976,
            "time": 9.89361125,
            "velocity": 0.5590551181102362
          },
          {
            "duration": 0.3191487500000001,
            "durationTicks": 96,
            "midi": 62,
            "name": "D4",
            "ticks": 2976,
            "time": 9.89361125,
            "velocity": 0.5590551181102362
          },
          {
            "duration": 0.3191487500000001,
            "durationTicks": 96,
            "midi": 57,
            "name": "A3",
            "ticks": 2976,
            "time": 9.89361125,
            "velocity": 0.5590551181102362
          },
          {
            "duration": 0.3191487500000001,
            "durationTicks": 96,
            "midi": 38,
            "name": "D2",
            "ticks": 2976,
            "time": 9.89361125,
            "velocity": 0.5590551181102362
          },
          {
            "duration": 0.3191487500000001,
            "durationTicks": 96,
            "midi": 50,
            "name": "D3",
            "ticks": 2976,
            "time": 9.89361125,
            "velocity": 0.5590551181102362
          },
          {
            "duration": 0.3191487500000001,
            "durationTicks": 96,
            "midi": 62,
            "name": "D4",
            "ticks": 3072,
            "time": 10.21276,
            "velocity": 0.5590551181102362
          },
          {
            "duration": 0.3191487500000001,
            "durationTicks": 96,
            "midi": 43,
            "name": "G2",
            "ticks": 3072,
            "time": 10.21276,
            "velocity": 0.5590551181102362
          },
          {
            "duration": 0.3191487500000001,
            "durationTicks": 96,
            "midi": 31,
            "name": "G1",
            "ticks": 3072,
            "time": 10.21276,
            "velocity": 0.5590551181102362
          },
          {
            "duration": 0.3191487500000001,
            "durationTicks": 96,
            "midi": 50,
            "name": "D3",
            "ticks": 3072,
            "time": 10.21276,
            "velocity": 0.5590551181102362
          },
          {
            "duration": 0.9574462500000003,
            "durationTicks": 288,
            "midi": 55,
            "name": "G3",
            "ticks": 3072,
            "time": 10.21276,
            "velocity": 0.5590551181102362
          },
          {
            "duration": 0.15957437500000005,
            "durationTicks": 48,
            "midi": 67,
            "name": "G4",
            "ticks": 3120,
            "time": 10.372334375,
            "velocity": 0.5590551181102362
          },
          {
            "duration": 0.3191487500000001,
            "durationTicks": 96,
            "midi": 43,
            "name": "G2",
            "ticks": 3168,
            "time": 10.53190875,
            "velocity": 0.5590551181102362
          },
          {
            "duration": 0.3191487500000001,
            "durationTicks": 96,
            "midi": 50,
            "name": "D3",
            "ticks": 3168,
            "time": 10.53190875,
            "velocity": 0.5590551181102362
          },
          {
            "duration": 0.3191487500000001,
            "durationTicks": 96,
            "midi": 31,
            "name": "G1",
            "ticks": 3168,
            "time": 10.53190875,
            "velocity": 0.5590551181102362
          },
          {
            "duration": 0.3191487500000001,
            "durationTicks": 96,
            "midi": 62,
            "name": "D4",
            "ticks": 3168,
            "time": 10.53190875,
            "velocity": 0.5590551181102362
          },
          {
            "duration": 0.15957437500000005,
            "durationTicks": 48,
            "midi": 74,
            "name": "D5",
            "ticks": 3168,
            "time": 10.53190875,
            "velocity": 0.5590551181102362
          },
          {
            "duration": 0.15957437500000005,
            "durationTicks": 48,
            "midi": 79,
            "name": "G5",
            "ticks": 3216,
            "time": 10.691483125,
            "velocity": 0.5590551181102362
          },
          {
            "duration": 0.3191487500000001,
            "durationTicks": 96,
            "midi": 31,
            "name": "G1",
            "ticks": 3264,
            "time": 10.8510575,
            "velocity": 0.5590551181102362
          },
          {
            "duration": 0.3191487500000001,
            "durationTicks": 96,
            "midi": 43,
            "name": "G2",
            "ticks": 3264,
            "time": 10.8510575,
            "velocity": 0.5590551181102362
          },
          {
            "duration": 0.3191487500000001,
            "durationTicks": 96,
            "midi": 50,
            "name": "D3",
            "ticks": 3264,
            "time": 10.8510575,
            "velocity": 0.5590551181102362
          },
          {
            "duration": 0.15957437500000005,
            "durationTicks": 48,
            "midi": 78,
            "name": "F#5",
            "ticks": 3264,
            "time": 10.8510575,
            "velocity": 0.5590551181102362
          },
          {
            "duration": 0.3191487500000001,
            "durationTicks": 96,
            "midi": 62,
            "name": "D4",
            "ticks": 3264,
            "time": 10.8510575,
            "velocity": 0.5590551181102362
          },
          {
            "duration": 0.3191487500000001,
            "durationTicks": 96,
            "midi": 62,
            "name": "D4",
            "ticks": 3360,
            "time": 11.17020625,
            "velocity": 0.5590551181102362
          },
          {
            "duration": 0.3191487500000001,
            "durationTicks": 96,
            "midi": 55,
            "name": "G3",
            "ticks": 3360,
            "time": 11.17020625,
            "velocity": 0.5590551181102362
          },
          {
            "duration": 0.15957437500000005,
            "durationTicks": 48,
            "midi": 74,
            "name": "D5",
            "ticks": 3360,
            "time": 11.17020625,
            "velocity": 0.5590551181102362
          },
          {
            "duration": 0.3191487500000001,
            "durationTicks": 96,
            "midi": 43,
            "name": "G2",
            "ticks": 3360,
            "time": 11.17020625,
            "velocity": 0.5590551181102362
          },
          {
            "duration": 0.3191487500000001,
            "durationTicks": 96,
            "midi": 31,
            "name": "G1",
            "ticks": 3360,
            "time": 11.17020625,
            "velocity": 0.5590551181102362
          },
          {
            "duration": 0.3191487500000001,
            "durationTicks": 96,
            "midi": 50,
            "name": "D3",
            "ticks": 3360,
            "time": 11.17020625,
            "velocity": 0.5590551181102362
          },
          {
            "duration": 0.3191487500000001,
            "durationTicks": 96,
            "midi": 43,
            "name": "G2",
            "ticks": 3456,
            "time": 11.489355,
            "velocity": 0.5590551181102362
          },
          {
            "duration": 0.3191487500000001,
            "durationTicks": 96,
            "midi": 31,
            "name": "G1",
            "ticks": 3456,
            "time": 11.489355,
            "velocity": 0.5590551181102362
          },
          {
            "duration": 0.3191487500000001,
            "durationTicks": 96,
            "midi": 50,
            "name": "D3",
            "ticks": 3456,
            "time": 11.489355,
            "velocity": 0.5590551181102362
          },
          {
            "duration": 0.3191487500000001,
            "durationTicks": 96,
            "midi": 62,
            "name": "D4",
            "ticks": 3456,
            "time": 11.489355,
            "velocity": 0.5590551181102362
          },
          {
            "duration": 0.47872312500000014,
            "durationTicks": 144,
            "midi": 60,
            "name": "C4",
            "ticks": 3456,
            "time": 11.489355,
            "velocity": 0.5590551181102362
          },
          {
            "duration": 0.3191487500000001,
            "durationTicks": 96,
            "midi": 43,
            "name": "G2",
            "ticks": 3552,
            "time": 11.80850375,
            "velocity": 0.5590551181102362
          },
          {
            "duration": 0.3191487500000001,
            "durationTicks": 96,
            "midi": 31,
            "name": "G1",
            "ticks": 3552,
            "time": 11.80850375,
            "velocity": 0.5590551181102362
          },
          {
            "duration": 0.3191487500000001,
            "durationTicks": 96,
            "midi": 74,
            "name": "D5",
            "ticks": 3552,
            "time": 11.80850375,
            "velocity": 0.5590551181102362
          },
          {
            "duration": 0.3191487500000001,
            "durationTicks": 96,
            "midi": 62,
            "name": "D4",
            "ticks": 3552,
            "time": 11.80850375,
            "velocity": 0.5590551181102362
          },
          {
            "duration": 0.3191487500000001,
            "durationTicks": 96,
            "midi": 50,
            "name": "D3",
            "ticks": 3552,
            "time": 11.80850375,
            "velocity": 0.5590551181102362
          },
          {
            "duration": 0.47872312500000014,
            "durationTicks": 144,
            "midi": 59,
            "name": "B3",
            "ticks": 3600,
            "time": 11.968078125,
            "velocity": 0.5590551181102362
          },
          {
            "duration": 0.3191487500000001,
            "durationTicks": 96,
            "midi": 31,
            "name": "G1",
            "ticks": 3648,
            "time": 12.1276525,
            "velocity": 0.5590551181102362
          },
          {
            "duration": 0.3191487500000001,
            "durationTicks": 96,
            "midi": 50,
            "name": "D3",
            "ticks": 3648,
            "time": 12.1276525,
            "velocity": 0.5590551181102362
          },
          {
            "duration": 0.3191487500000001,
            "durationTicks": 96,
            "midi": 43,
            "name": "G2",
            "ticks": 3648,
            "time": 12.1276525,
            "velocity": 0.5590551181102362
          },
          {
            "duration": 0.3191487500000001,
            "durationTicks": 96,
            "midi": 62,
            "name": "D4",
            "ticks": 3648,
            "time": 12.1276525,
            "velocity": 0.5590551181102362
          },
          {
            "duration": 0.3191487500000001,
            "durationTicks": 96,
            "midi": 57,
            "name": "A3",
            "ticks": 3744,
            "time": 12.44680125,
            "velocity": 0.5590551181102362
          },
          {
            "duration": 0.3191487500000001,
            "durationTicks": 96,
            "midi": 31,
            "name": "G1",
            "ticks": 3744,
            "time": 12.44680125,
            "velocity": 0.5590551181102362
          },
          {
            "duration": 0.3191487500000001,
            "durationTicks": 96,
            "midi": 43,
            "name": "G2",
            "ticks": 3744,
            "time": 12.44680125,
            "velocity": 0.5590551181102362
          },
          {
            "duration": 0.3191487500000001,
            "durationTicks": 96,
            "midi": 62,
            "name": "D4",
            "ticks": 3744,
            "time": 12.44680125,
            "velocity": 0.5590551181102362
          },
          {
            "duration": 0.3191487500000001,
            "durationTicks": 96,
            "midi": 50,
            "name": "D3",
            "ticks": 3744,
            "time": 12.44680125,
            "velocity": 0.5590551181102362
          },
          {
            "duration": 0.3191487500000001,
            "durationTicks": 96,
            "midi": 74,
            "name": "D5",
            "ticks": 3744,
            "time": 12.44680125,
            "velocity": 0.5590551181102362
          },
          {
            "duration": 0.9574462499999985,
            "durationTicks": 288,
            "midi": 55,
            "name": "G3",
            "ticks": 3840,
            "time": 12.76595,
            "velocity": 0.5590551181102362
          },
          {
            "duration": 0.3191487499999983,
            "durationTicks": 96,
            "midi": 33,
            "name": "A1",
            "ticks": 3840,
            "time": 12.76595,
            "velocity": 0.5590551181102362
          },
          {
            "duration": 0.3191487499999983,
            "durationTicks": 96,
            "midi": 45,
            "name": "A2",
            "ticks": 3840,
            "time": 12.76595,
            "velocity": 0.5590551181102362
          },
          {
            "duration": 0.3191487499999983,
            "durationTicks": 96,
            "midi": 62,
            "name": "D4",
            "ticks": 3840,
            "time": 12.76595,
            "velocity": 0.5590551181102362
          },
          {
            "duration": 0.3191487500000001,
            "durationTicks": 96,
            "midi": 33,
            "name": "A1",
            "ticks": 3936,
            "time": 13.085098749999998,
            "velocity": 0.5590551181102362
          },
          {
            "duration": 0.3191487500000001,
            "durationTicks": 96,
            "midi": 74,
            "name": "D5",
            "ticks": 3936,
            "time": 13.085098749999998,
            "velocity": 0.5590551181102362
          },
          {
            "duration": 0.3191487500000001,
            "durationTicks": 96,
            "midi": 45,
            "name": "A2",
            "ticks": 3936,
            "time": 13.085098749999998,
            "velocity": 0.5590551181102362
          },
          {
            "duration": 0.3191487500000001,
            "durationTicks": 96,
            "midi": 62,
            "name": "D4",
            "ticks": 3936,
            "time": 13.085098749999998,
            "velocity": 0.5590551181102362
          },
          {
            "duration": 0.3191487500000001,
            "durationTicks": 96,
            "midi": 45,
            "name": "A2",
            "ticks": 4032,
            "time": 13.404247499999999,
            "velocity": 0.5590551181102362
          },
          {
            "duration": 0.3191487500000001,
            "durationTicks": 96,
            "midi": 62,
            "name": "D4",
            "ticks": 4032,
            "time": 13.404247499999999,
            "velocity": 0.5590551181102362
          },
          {
            "duration": 0.3191487500000001,
            "durationTicks": 96,
            "midi": 33,
            "name": "A1",
            "ticks": 4032,
            "time": 13.404247499999999,
            "velocity": 0.5590551181102362
          },
          {
            "duration": 0.3191487500000001,
            "durationTicks": 96,
            "midi": 45,
            "name": "A2",
            "ticks": 4128,
            "time": 13.723396249999999,
            "velocity": 0.5590551181102362
          },
          {
            "duration": 0.3191487500000001,
            "durationTicks": 96,
            "midi": 74,
            "name": "D5",
            "ticks": 4128,
            "time": 13.723396249999999,
            "velocity": 0.5590551181102362
          },
          {
            "duration": 0.3191487500000001,
            "durationTicks": 96,
            "midi": 33,
            "name": "A1",
            "ticks": 4128,
            "time": 13.723396249999999,
            "velocity": 0.5590551181102362
          },
          {
            "duration": 0.3191487500000001,
            "durationTicks": 96,
            "midi": 62,
            "name": "D4",
            "ticks": 4128,
            "time": 13.723396249999999,
            "velocity": 0.5590551181102362
          },
          {
            "duration": 0.3191487500000001,
            "durationTicks": 96,
            "midi": 55,
            "name": "G3",
            "ticks": 4128,
            "time": 13.723396249999999,
            "velocity": 0.5590551181102362
          },
          {
            "duration": 0.47872312500000014,
            "durationTicks": 144,
            "midi": 60,
            "name": "C4",
            "ticks": 4224,
            "time": 14.042544999999999,
            "velocity": 0.5590551181102362
          },
          {
            "duration": 0.3191487500000001,
            "durationTicks": 96,
            "midi": 45,
            "name": "A2",
            "ticks": 4224,
            "time": 14.042544999999999,
            "velocity": 0.5590551181102362
          },
          {
            "duration": 0.3191487500000001,
            "durationTicks": 96,
            "midi": 62,
            "name": "D4",
            "ticks": 4224,
            "time": 14.042544999999999,
            "velocity": 0.5590551181102362
          },
          {
            "duration": 0.3191487500000001,
            "durationTicks": 96,
            "midi": 33,
            "name": "A1",
            "ticks": 4224,
            "time": 14.042544999999999,
            "velocity": 0.5590551181102362
          },
          {
            "duration": 0.3191487500000001,
            "durationTicks": 96,
            "midi": 62,
            "name": "D4",
            "ticks": 4320,
            "time": 14.361693749999999,
            "velocity": 0.5590551181102362
          },
          {
            "duration": 0.3191487500000001,
            "durationTicks": 96,
            "midi": 74,
            "name": "D5",
            "ticks": 4320,
            "time": 14.361693749999999,
            "velocity": 0.5590551181102362
          },
          {
            "duration": 0.3191487500000001,
            "durationTicks": 96,
            "midi": 45,
            "name": "A2",
            "ticks": 4320,
            "time": 14.361693749999999,
            "velocity": 0.5590551181102362
          },
          {
            "duration": 0.3191487500000001,
            "durationTicks": 96,
            "midi": 33,
            "name": "A1",
            "ticks": 4320,
            "time": 14.361693749999999,
            "velocity": 0.5590551181102362
          },
          {
            "duration": 0.47872312500000014,
            "durationTicks": 144,
            "midi": 59,
            "name": "B3",
            "ticks": 4368,
            "time": 14.521268124999999,
            "velocity": 0.5590551181102362
          },
          {
            "duration": 0.3191487500000001,
            "durationTicks": 96,
            "midi": 33,
            "name": "A1",
            "ticks": 4416,
            "time": 14.680842499999999,
            "velocity": 0.5590551181102362
          },
          {
            "duration": 0.3191487500000001,
            "durationTicks": 96,
            "midi": 45,
            "name": "A2",
            "ticks": 4416,
            "time": 14.680842499999999,
            "velocity": 0.5590551181102362
          },
          {
            "duration": 0.3191487500000001,
            "durationTicks": 96,
            "midi": 62,
            "name": "D4",
            "ticks": 4416,
            "time": 14.680842499999999,
            "velocity": 0.5590551181102362
          },
          {
            "duration": 0.3191487500000001,
            "durationTicks": 96,
            "midi": 45,
            "name": "A2",
            "ticks": 4512,
            "time": 14.999991249999999,
            "velocity": 0.5590551181102362
          },
          {
            "duration": 0.3191487500000001,
            "durationTicks": 96,
            "midi": 62,
            "name": "D4",
            "ticks": 4512,
            "time": 14.999991249999999,
            "velocity": 0.5590551181102362
          },
          {
            "duration": 0.3191487500000001,
            "durationTicks": 96,
            "midi": 33,
            "name": "A1",
            "ticks": 4512,
            "time": 14.999991249999999,
            "velocity": 0.5590551181102362
          },
          {
            "duration": 0.3191487500000001,
            "durationTicks": 96,
            "midi": 74,
            "name": "D5",
            "ticks": 4512,
            "time": 14.999991249999999,
            "velocity": 0.5590551181102362
          },
          {
            "duration": 0.3191487500000001,
            "durationTicks": 96,
            "midi": 57,
            "name": "A3",
            "ticks": 4512,
            "time": 14.999991249999999,
            "velocity": 0.5590551181102362
          },
          {
            "duration": 0.9574462499999985,
            "durationTicks": 288,
            "midi": 55,
            "name": "G3",
            "ticks": 4608,
            "time": 15.319139999999999,
            "velocity": 0.5590551181102362
          },
          {
            "duration": 0.3191487500000001,
            "durationTicks": 96,
            "midi": 62,
            "name": "D4",
            "ticks": 4608,
            "time": 15.319139999999999,
            "velocity": 0.5590551181102362
          },
          {
            "duration": 0.3191487500000001,
            "durationTicks": 96,
            "midi": 35,
            "name": "B1",
            "ticks": 4608,
            "time": 15.319139999999999,
            "velocity": 0.5590551181102362
          },
          {
            "duration": 0.3191487500000001,
            "durationTicks": 96,
            "midi": 50,
            "name": "D3",
            "ticks": 4608,
            "time": 15.319139999999999,
            "velocity": 0.5590551181102362
          },
          {
            "duration": 0.3191487500000001,
            "durationTicks": 96,
            "midi": 47,
            "name": "B2",
            "ticks": 4608,
            "time": 15.319139999999999,
            "velocity": 0.5590551181102362
          },
          {
            "duration": 0.15957437500000005,
            "durationTicks": 48,
            "midi": 67,
            "name": "G4",
            "ticks": 4656,
            "time": 15.478714375,
            "velocity": 0.5590551181102362
          },
          {
            "duration": 0.3191487500000001,
            "durationTicks": 96,
            "midi": 50,
            "name": "D3",
            "ticks": 4704,
            "time": 15.63828875,
            "velocity": 0.5590551181102362
          },
          {
            "duration": 0.3191487500000001,
            "durationTicks": 96,
            "midi": 62,
            "name": "D4",
            "ticks": 4704,
            "time": 15.63828875,
            "velocity": 0.5590551181102362
          },
          {
            "duration": 0.3191487500000001,
            "durationTicks": 96,
            "midi": 35,
            "name": "B1",
            "ticks": 4704,
            "time": 15.63828875,
            "velocity": 0.5590551181102362
          },
          {
            "duration": 0.3191487500000001,
            "durationTicks": 96,
            "midi": 47,
            "name": "B2",
            "ticks": 4704,
            "time": 15.63828875,
            "velocity": 0.5590551181102362
          },
          {
            "duration": 0.15957437500000005,
            "durationTicks": 48,
            "midi": 74,
            "name": "D5",
            "ticks": 4704,
            "time": 15.63828875,
            "velocity": 0.5590551181102362
          },
          {
            "duration": 0.15957437500000005,
            "durationTicks": 48,
            "midi": 79,
            "name": "G5",
            "ticks": 4752,
            "time": 15.797863125,
            "velocity": 0.5590551181102362
          },
          {
            "duration": 0.3191487499999983,
            "durationTicks": 96,
            "midi": 62,
            "name": "D4",
            "ticks": 4800,
            "time": 15.9574375,
            "velocity": 0.5590551181102362
          },
          {
            "duration": 0.3191487499999983,
            "durationTicks": 96,
            "midi": 47,
            "name": "B2",
            "ticks": 4800,
            "time": 15.9574375,
            "velocity": 0.5590551181102362
          },
          {
            "duration": 0.3191487499999983,
            "durationTicks": 96,
            "midi": 50,
            "name": "D3",
            "ticks": 4800,
            "time": 15.9574375,
            "velocity": 0.5590551181102362
          },
          {
            "duration": 0.15957437500000005,
            "durationTicks": 48,
            "midi": 78,
            "name": "F#5",
            "ticks": 4800,
            "time": 15.9574375,
            "velocity": 0.5590551181102362
          },
          {
            "duration": 0.3191487499999983,
            "durationTicks": 96,
            "midi": 35,
            "name": "B1",
            "ticks": 4800,
            "time": 15.9574375,
            "velocity": 0.5590551181102362
          },
          {
            "duration": 0.15957437500000182,
            "durationTicks": 48,
            "midi": 74,
            "name": "D5",
            "ticks": 4896,
            "time": 16.276586249999998,
            "velocity": 0.5590551181102362
          },
          {
            "duration": 0.3191487500000001,
            "durationTicks": 96,
            "midi": 47,
            "name": "B2",
            "ticks": 4896,
            "time": 16.276586249999998,
            "velocity": 0.5590551181102362
          },
          {
            "duration": 0.3191487500000001,
            "durationTicks": 96,
            "midi": 62,
            "name": "D4",
            "ticks": 4896,
            "time": 16.276586249999998,
            "velocity": 0.5590551181102362
          },
          {
            "duration": 0.3191487500000001,
            "durationTicks": 96,
            "midi": 50,
            "name": "D3",
            "ticks": 4896,
            "time": 16.276586249999998,
            "velocity": 0.5590551181102362
          },
          {
            "duration": 0.3191487500000001,
            "durationTicks": 96,
            "midi": 35,
            "name": "B1",
            "ticks": 4896,
            "time": 16.276586249999998,
            "velocity": 0.5590551181102362
          },
          {
            "duration": 0.3191487500000001,
            "durationTicks": 96,
            "midi": 55,
            "name": "G3",
            "ticks": 4896,
            "time": 16.276586249999998,
            "velocity": 0.5590551181102362
          },
          {
            "duration": 0.15957437499999827,
            "durationTicks": 48,
            "midi": 79,
            "name": "G5",
            "ticks": 4944,
            "time": 16.436160625,
            "velocity": 0.5590551181102362
          },
          {
            "duration": 0.3191487500000001,
            "durationTicks": 96,
            "midi": 47,
            "name": "B2",
            "ticks": 4992,
            "time": 16.595734999999998,
            "velocity": 0.5590551181102362
          },
          {
            "duration": 0.3191487500000001,
            "durationTicks": 96,
            "midi": 62,
            "name": "D4",
            "ticks": 4992,
            "time": 16.595734999999998,
            "velocity": 0.5590551181102362
          },
          {
            "duration": 0.3191487500000001,
            "durationTicks": 96,
            "midi": 50,
            "name": "D3",
            "ticks": 4992,
            "time": 16.595734999999998,
            "velocity": 0.5590551181102362
          },
          {
            "duration": 0.15957437500000182,
            "durationTicks": 48,
            "midi": 78,
            "name": "F#5",
            "ticks": 4992,
            "time": 16.595734999999998,
            "velocity": 0.5590551181102362
          },
          {
            "duration": 0.3191487500000001,
            "durationTicks": 96,
            "midi": 35,
            "name": "B1",
            "ticks": 4992,
            "time": 16.595734999999998,
            "velocity": 0.5590551181102362
          },
          {
            "duration": 0.4787231250000019,
            "durationTicks": 144,
            "midi": 60,
            "name": "C4",
            "ticks": 4992,
            "time": 16.595734999999998,
            "velocity": 0.5590551181102362
          },
          {
            "duration": 0.3191487500000001,
            "durationTicks": 96,
            "midi": 47,
            "name": "B2",
            "ticks": 5088,
            "time": 16.914883749999998,
            "velocity": 0.5590551181102362
          },
          {
            "duration": 0.15957437500000182,
            "durationTicks": 48,
            "midi": 74,
            "name": "D5",
            "ticks": 5088,
            "time": 16.914883749999998,
            "velocity": 0.5590551181102362
          },
          {
            "duration": 0.3191487500000001,
            "durationTicks": 96,
            "midi": 62,
            "name": "D4",
            "ticks": 5088,
            "time": 16.914883749999998,
            "velocity": 0.5590551181102362
          },
          {
            "duration": 0.3191487500000001,
            "durationTicks": 96,
            "midi": 35,
            "name": "B1",
            "ticks": 5088,
            "time": 16.914883749999998,
            "velocity": 0.5590551181102362
          },
          {
            "duration": 0.3191487500000001,
            "durationTicks": 96,
            "midi": 50,
            "name": "D3",
            "ticks": 5088,
            "time": 16.914883749999998,
            "velocity": 0.5590551181102362
          },
          {
            "duration": 0.47872312499999836,
            "durationTicks": 144,
            "midi": 59,
            "name": "B3",
            "ticks": 5136,
            "time": 17.074458125,
            "velocity": 0.5590551181102362
          },
          {
            "duration": 0.3191487500000001,
            "durationTicks": 96,
            "midi": 50,
            "name": "D3",
            "ticks": 5184,
            "time": 17.234032499999998,
            "velocity": 0.5590551181102362
          },
          {
            "duration": 0.3191487500000001,
            "durationTicks": 96,
            "midi": 47,
            "name": "B2",
            "ticks": 5184,
            "time": 17.234032499999998,
            "velocity": 0.5590551181102362
          },
          {
            "duration": 0.3191487500000001,
            "durationTicks": 96,
            "midi": 62,
            "name": "D4",
            "ticks": 5184,
            "time": 17.234032499999998,
            "velocity": 0.5590551181102362
          },
          {
            "duration": 0.3191487500000001,
            "durationTicks": 96,
            "midi": 35,
            "name": "B1",
            "ticks": 5184,
            "time": 17.234032499999998,
            "velocity": 0.5590551181102362
          },
          {
            "duration": 0.3191487500000001,
            "durationTicks": 96,
            "midi": 62,
            "name": "D4",
            "ticks": 5280,
            "time": 17.553181249999998,
            "velocity": 0.5590551181102362
          },
          {
            "duration": 0.3191487500000001,
            "durationTicks": 96,
            "midi": 47,
            "name": "B2",
            "ticks": 5280,
            "time": 17.553181249999998,
            "velocity": 0.5590551181102362
          },
          {
            "duration": 0.3191487500000001,
            "durationTicks": 96,
            "midi": 35,
            "name": "B1",
            "ticks": 5280,
            "time": 17.553181249999998,
            "velocity": 0.5590551181102362
          },
          {
            "duration": 0.3191487500000001,
            "durationTicks": 96,
            "midi": 50,
            "name": "D3",
            "ticks": 5280,
            "time": 17.553181249999998,
            "velocity": 0.5590551181102362
          },
          {
            "duration": 0.3191487500000001,
            "durationTicks": 96,
            "midi": 57,
            "name": "A3",
            "ticks": 5280,
            "time": 17.553181249999998,
            "velocity": 0.5590551181102362
          },
          {
            "duration": 0.3191487500000001,
            "durationTicks": 96,
            "midi": 55,
            "name": "G3",
            "ticks": 5376,
            "time": 17.872329999999998,
            "velocity": 0.5590551181102362
          },
          {
            "duration": 0.3191487500000001,
            "durationTicks": 96,
            "midi": 62,
            "name": "D4",
            "ticks": 5376,
            "time": 17.872329999999998,
            "velocity": 0.5590551181102362
          },
          {
            "duration": 0.3191487500000001,
            "durationTicks": 96,
            "midi": 48,
            "name": "C3",
            "ticks": 5376,
            "time": 17.872329999999998,
            "velocity": 0.5590551181102362
          },
          {
            "duration": 0.3191487500000001,
            "durationTicks": 96,
            "midi": 36,
            "name": "C2",
            "ticks": 5376,
            "time": 17.872329999999998,
            "velocity": 0.5590551181102362
          },
          {
            "duration": 0.4787231250000019,
            "durationTicks": 144,
            "midi": 60,
            "name": "C4",
            "ticks": 5376,
            "time": 17.872329999999998,
            "velocity": 0.5590551181102362
          },
          {
            "duration": 0.15957437499999827,
            "durationTicks": 48,
            "midi": 67,
            "name": "G4",
            "ticks": 5424,
            "time": 18.031904375,
            "velocity": 0.5590551181102362
          },
          {
            "duration": 0.3191487500000001,
            "durationTicks": 96,
            "midi": 62,
            "name": "D4",
            "ticks": 5472,
            "time": 18.191478749999998,
            "velocity": 0.5590551181102362
          },
          {
            "duration": 0.3191487500000001,
            "durationTicks": 96,
            "midi": 48,
            "name": "C3",
            "ticks": 5472,
            "time": 18.191478749999998,
            "velocity": 0.5590551181102362
          },
          {
            "duration": 0.3191487500000001,
            "durationTicks": 96,
            "midi": 36,
            "name": "C2",
            "ticks": 5472,
            "time": 18.191478749999998,
            "velocity": 0.5590551181102362
          },
          {
            "duration": 0.3191487500000001,
            "durationTicks": 96,
            "midi": 55,
            "name": "G3",
            "ticks": 5472,
            "time": 18.191478749999998,
            "velocity": 0.5590551181102362
          },
          {
            "duration": 0.15957437500000182,
            "durationTicks": 48,
            "midi": 74,
            "name": "D5",
            "ticks": 5472,
            "time": 18.191478749999998,
            "velocity": 0.5590551181102362
          },
          {
            "duration": 0.47872312499999836,
            "durationTicks": 144,
            "midi": 59,
            "name": "B3",
            "ticks": 5520,
            "time": 18.351053125,
            "velocity": 0.5590551181102362
          },
          {
            "duration": 0.15957437499999827,
            "durationTicks": 48,
            "midi": 79,
            "name": "G5",
            "ticks": 5520,
            "time": 18.351053125,
            "velocity": 0.5590551181102362
          },
          {
            "duration": 0.3191487500000001,
            "durationTicks": 96,
            "midi": 55,
            "name": "G3",
            "ticks": 5568,
            "time": 18.5106275,
            "velocity": 0.5590551181102362
          },
          {
            "duration": 0.3191487500000001,
            "durationTicks": 96,
            "midi": 48,
            "name": "C3",
            "ticks": 5568,
            "time": 18.5106275,
            "velocity": 0.5590551181102362
          },
          {
            "duration": 0.15957437500000182,
            "durationTicks": 48,
            "midi": 78,
            "name": "F#5",
            "ticks": 5568,
            "time": 18.5106275,
            "velocity": 0.5590551181102362
          },
          {
            "duration": 0.3191487500000001,
            "durationTicks": 96,
            "midi": 62,
            "name": "D4",
            "ticks": 5568,
            "time": 18.5106275,
            "velocity": 0.5590551181102362
          },
          {
            "duration": 0.3191487500000001,
            "durationTicks": 96,
            "midi": 36,
            "name": "C2",
            "ticks": 5568,
            "time": 18.5106275,
            "velocity": 0.5590551181102362
          },
          {
            "duration": 0.15957437500000182,
            "durationTicks": 48,
            "midi": 74,
            "name": "D5",
            "ticks": 5664,
            "time": 18.82977625,
            "velocity": 0.5590551181102362
          },
          {
            "duration": 0.3191487500000001,
            "durationTicks": 96,
            "midi": 62,
            "name": "D4",
            "ticks": 5664,
            "time": 18.82977625,
            "velocity": 0.5590551181102362
          },
          {
            "duration": 0.3191487500000001,
            "durationTicks": 96,
            "midi": 55,
            "name": "G3",
            "ticks": 5664,
            "time": 18.82977625,
            "velocity": 0.5590551181102362
          },
          {
            "duration": 0.3191487500000001,
            "durationTicks": 96,
            "midi": 48,
            "name": "C3",
            "ticks": 5664,
            "time": 18.82977625,
            "velocity": 0.5590551181102362
          },
          {
            "duration": 0.3191487500000001,
            "durationTicks": 96,
            "midi": 57,
            "name": "A3",
            "ticks": 5664,
            "time": 18.82977625,
            "velocity": 0.5590551181102362
          },
          {
            "duration": 0.3191487500000001,
            "durationTicks": 96,
            "midi": 36,
            "name": "C2",
            "ticks": 5664,
            "time": 18.82977625,
            "velocity": 0.5590551181102362
          },
          {
            "duration": 0.15957437499999827,
            "durationTicks": 48,
            "midi": 79,
            "name": "G5",
            "ticks": 5712,
            "time": 18.989350625,
            "velocity": 0.5590551181102362
          },
          {
            "duration": 0.15957437500000182,
            "durationTicks": 48,
            "midi": 78,
            "name": "F#5",
            "ticks": 5760,
            "time": 19.148925,
            "velocity": 0.5590551181102362
          },
          {
            "duration": 0.3191487500000001,
            "durationTicks": 96,
            "midi": 62,
            "name": "D4",
            "ticks": 5760,
            "time": 19.148925,
            "velocity": 0.5590551181102362
          },
          {
            "duration": 0.3191487500000001,
            "durationTicks": 96,
            "midi": 55,
            "name": "G3",
            "ticks": 5760,
            "time": 19.148925,
            "velocity": 0.5590551181102362
          },
          {
            "duration": 0.3191487500000001,
            "durationTicks": 96,
            "midi": 36,
            "name": "C2",
            "ticks": 5760,
            "time": 19.148925,
            "velocity": 0.5590551181102362
          },
          {
            "duration": 0.3191487500000001,
            "durationTicks": 96,
            "midi": 48,
            "name": "C3",
            "ticks": 5760,
            "time": 19.148925,
            "velocity": 0.5590551181102362
          },
          {
            "duration": 0.4787231250000019,
            "durationTicks": 144,
            "midi": 60,
            "name": "C4",
            "ticks": 5760,
            "time": 19.148925,
            "velocity": 0.5590551181102362
          },
          {
            "duration": 0.15957437500000182,
            "durationTicks": 48,
            "midi": 74,
            "name": "D5",
            "ticks": 5856,
            "time": 19.46807375,
            "velocity": 0.5590551181102362
          },
          {
            "duration": 0.3191487500000001,
            "durationTicks": 96,
            "midi": 48,
            "name": "C3",
            "ticks": 5856,
            "time": 19.46807375,
            "velocity": 0.5590551181102362
          },
          {
            "duration": 0.3191487500000001,
            "durationTicks": 96,
            "midi": 36,
            "name": "C2",
            "ticks": 5856,
            "time": 19.46807375,
            "velocity": 0.5590551181102362
          },
          {
            "duration": 0.3191487500000001,
            "durationTicks": 96,
            "midi": 62,
            "name": "D4",
            "ticks": 5856,
            "time": 19.46807375,
            "velocity": 0.5590551181102362
          },
          {
            "duration": 0.3191487500000001,
            "durationTicks": 96,
            "midi": 55,
            "name": "G3",
            "ticks": 5856,
            "time": 19.46807375,
            "velocity": 0.5590551181102362
          },
          {
            "duration": 0.47872312499999836,
            "durationTicks": 144,
            "midi": 59,
            "name": "B3",
            "ticks": 5904,
            "time": 19.627648125,
            "velocity": 0.5590551181102362
          },
          {
            "duration": 0.3191487500000001,
            "durationTicks": 96,
            "midi": 50,
            "name": "D3",
            "ticks": 5952,
            "time": 19.7872225,
            "velocity": 0.5590551181102362
          },
          {
            "duration": 0.3191487500000001,
            "durationTicks": 96,
            "midi": 55,
            "name": "G3",
            "ticks": 5952,
            "time": 19.7872225,
            "velocity": 0.5590551181102362
          },
          {
            "duration": 0.3191487500000001,
            "durationTicks": 96,
            "midi": 62,
            "name": "D4",
            "ticks": 5952,
            "time": 19.7872225,
            "velocity": 0.5590551181102362
          },
          {
            "duration": 0.3191487500000001,
            "durationTicks": 96,
            "midi": 38,
            "name": "D2",
            "ticks": 5952,
            "time": 19.7872225,
            "velocity": 0.5590551181102362
          },
          {
            "duration": 0.3191487500000001,
            "durationTicks": 96,
            "midi": 62,
            "name": "D4",
            "ticks": 6048,
            "time": 20.10637125,
            "velocity": 0.5590551181102362
          },
          {
            "duration": 0.3191487500000001,
            "durationTicks": 96,
            "midi": 50,
            "name": "D3",
            "ticks": 6048,
            "time": 20.10637125,
            "velocity": 0.5590551181102362
          },
          {
            "duration": 0.3191487500000001,
            "durationTicks": 96,
            "midi": 57,
            "name": "A3",
            "ticks": 6048,
            "time": 20.10637125,
            "velocity": 0.5590551181102362
          },
          {
            "duration": 0.3191487500000001,
            "durationTicks": 96,
            "midi": 55,
            "name": "G3",
            "ticks": 6048,
            "time": 20.10637125,
            "velocity": 0.5590551181102362
          },
          {
            "duration": 0.3191487500000001,
            "durationTicks": 96,
            "midi": 38,
            "name": "D2",
            "ticks": 6048,
            "time": 20.10637125,
            "velocity": 0.5590551181102362
          },
          {
            "duration": 0.9574462500000003,
            "durationTicks": 288,
            "midi": 55,
            "name": "G3",
            "ticks": 6144,
            "time": 20.42552,
            "velocity": 0.5590551181102362
          },
          {
            "duration": 0.3191487500000001,
            "durationTicks": 96,
            "midi": 64,
            "name": "E4",
            "ticks": 6144,
            "time": 20.42552,
            "velocity": 0.5590551181102362
          },
          {
            "duration": 0.3191487500000001,
            "durationTicks": 96,
            "midi": 52,
            "name": "E3",
            "ticks": 6144,
            "time": 20.42552,
            "velocity": 0.5590551181102362
          },
          {
            "duration": 0.3191487500000001,
            "durationTicks": 96,
            "midi": 40,
            "name": "E2",
            "ticks": 6144,
            "time": 20.42552,
            "velocity": 0.5590551181102362
          },
          {
            "duration": 0.3191487500000001,
            "durationTicks": 96,
            "midi": 28,
            "name": "E1",
            "ticks": 6144,
            "time": 20.42552,
            "velocity": 0.5590551181102362
          },
          {
            "duration": 0.3191487500000001,
            "durationTicks": 96,
            "midi": 64,
            "name": "E4",
            "ticks": 6240,
            "time": 20.74466875,
            "velocity": 0.5590551181102362
          },
          {
            "duration": 0.3191487500000001,
            "durationTicks": 96,
            "midi": 74,
            "name": "D5",
            "ticks": 6240,
            "time": 20.74466875,
            "velocity": 0.5590551181102362
          },
          {
            "duration": 0.3191487500000001,
            "durationTicks": 96,
            "midi": 52,
            "name": "E3",
            "ticks": 6240,
            "time": 20.74466875,
            "velocity": 0.5590551181102362
          },
          {
            "duration": 0.3191487500000001,
            "durationTicks": 96,
            "midi": 40,
            "name": "E2",
            "ticks": 6240,
            "time": 20.74466875,
            "velocity": 0.5590551181102362
          },
          {
            "duration": 0.3191487500000001,
            "durationTicks": 96,
            "midi": 28,
            "name": "E1",
            "ticks": 6240,
            "time": 20.74466875,
            "velocity": 0.5590551181102362
          },
          {
            "duration": 0.3191487500000001,
            "durationTicks": 96,
            "midi": 52,
            "name": "E3",
            "ticks": 6336,
            "time": 21.0638175,
            "velocity": 0.5590551181102362
          },
          {
            "duration": 0.3191487500000001,
            "durationTicks": 96,
            "midi": 40,
            "name": "E2",
            "ticks": 6336,
            "time": 21.0638175,
            "velocity": 0.5590551181102362
          },
          {
            "duration": 0.3191487500000001,
            "durationTicks": 96,
            "midi": 64,
            "name": "E4",
            "ticks": 6336,
            "time": 21.0638175,
            "velocity": 0.5590551181102362
          },
          {
            "duration": 0.3191487500000001,
            "durationTicks": 96,
            "midi": 28,
            "name": "E1",
            "ticks": 6336,
            "time": 21.0638175,
            "velocity": 0.5590551181102362
          },
          {
            "duration": 0.3191487500000001,
            "durationTicks": 96,
            "midi": 40,
            "name": "E2",
            "ticks": 6432,
            "time": 21.38296625,
            "velocity": 0.5590551181102362
          },
          {
            "duration": 0.3191487500000001,
            "durationTicks": 96,
            "midi": 52,
            "name": "E3",
            "ticks": 6432,
            "time": 21.38296625,
            "velocity": 0.5590551181102362
          },
          {
            "duration": 0.3191487500000001,
            "durationTicks": 96,
            "midi": 55,
            "name": "G3",
            "ticks": 6432,
            "time": 21.38296625,
            "velocity": 0.5590551181102362
          },
          {
            "duration": 0.3191487500000001,
            "durationTicks": 96,
            "midi": 28,
            "name": "E1",
            "ticks": 6432,
            "time": 21.38296625,
            "velocity": 0.5590551181102362
          },
          {
            "duration": 0.3191487500000001,
            "durationTicks": 96,
            "midi": 74,
            "name": "D5",
            "ticks": 6432,
            "time": 21.38296625,
            "velocity": 0.5590551181102362
          },
          {
            "duration": 0.3191487500000001,
            "durationTicks": 96,
            "midi": 64,
            "name": "E4",
            "ticks": 6432,
            "time": 21.38296625,
            "velocity": 0.5590551181102362
          },
          {
            "duration": 0.3191487500000001,
            "durationTicks": 96,
            "midi": 64,
            "name": "E4",
            "ticks": 6528,
            "time": 21.702115,
            "velocity": 0.5590551181102362
          },
          {
            "duration": 0.3191487500000001,
            "durationTicks": 96,
            "midi": 52,
            "name": "E3",
            "ticks": 6528,
            "time": 21.702115,
            "velocity": 0.5590551181102362
          },
          {
            "duration": 0.47872312499999836,
            "durationTicks": 144,
            "midi": 59,
            "name": "B3",
            "ticks": 6528,
            "time": 21.702115,
            "velocity": 0.5590551181102362
          },
          {
            "duration": 0.3191487500000001,
            "durationTicks": 96,
            "midi": 28,
            "name": "E1",
            "ticks": 6528,
            "time": 21.702115,
            "velocity": 0.5590551181102362
          },
          {
            "duration": 0.3191487500000001,
            "durationTicks": 96,
            "midi": 40,
            "name": "E2",
            "ticks": 6528,
            "time": 21.702115,
            "velocity": 0.5590551181102362
          },
          {
            "duration": 0.3191487500000001,
            "durationTicks": 96,
            "midi": 64,
            "name": "E4",
            "ticks": 6624,
            "time": 22.02126375,
            "velocity": 0.5590551181102362
          },
          {
            "duration": 0.3191487500000001,
            "durationTicks": 96,
            "midi": 74,
            "name": "D5",
            "ticks": 6624,
            "time": 22.02126375,
            "velocity": 0.5590551181102362
          },
          {
            "duration": 0.3191487500000001,
            "durationTicks": 96,
            "midi": 52,
            "name": "E3",
            "ticks": 6624,
            "time": 22.02126375,
            "velocity": 0.5590551181102362
          },
          {
            "duration": 0.3191487500000001,
            "durationTicks": 96,
            "midi": 40,
            "name": "E2",
            "ticks": 6624,
            "time": 22.02126375,
            "velocity": 0.5590551181102362
          },
          {
            "duration": 0.3191487500000001,
            "durationTicks": 96,
            "midi": 28,
            "name": "E1",
            "ticks": 6624,
            "time": 22.02126375,
            "velocity": 0.5590551181102362
          },
          {
            "duration": 0.4787231250000019,
            "durationTicks": 144,
            "midi": 57,
            "name": "A3",
            "ticks": 6672,
            "time": 22.180838124999998,
            "velocity": 0.5590551181102362
          },
          {
            "duration": 0.3191487500000001,
            "durationTicks": 96,
            "midi": 28,
            "name": "E1",
            "ticks": 6720,
            "time": 22.3404125,
            "velocity": 0.5590551181102362
          },
          {
            "duration": 0.3191487500000001,
            "durationTicks": 96,
            "midi": 64,
            "name": "E4",
            "ticks": 6720,
            "time": 22.3404125,
            "velocity": 0.5590551181102362
          },
          {
            "duration": 0.3191487500000001,
            "durationTicks": 96,
            "midi": 40,
            "name": "E2",
            "ticks": 6720,
            "time": 22.3404125,
            "velocity": 0.5590551181102362
          },
          {
            "duration": 0.3191487500000001,
            "durationTicks": 96,
            "midi": 52,
            "name": "E3",
            "ticks": 6720,
            "time": 22.3404125,
            "velocity": 0.5590551181102362
          },
          {
            "duration": 0.3191487500000001,
            "durationTicks": 96,
            "midi": 40,
            "name": "E2",
            "ticks": 6816,
            "time": 22.65956125,
            "velocity": 0.5590551181102362
          },
          {
            "duration": 0.3191487500000001,
            "durationTicks": 96,
            "midi": 74,
            "name": "D5",
            "ticks": 6816,
            "time": 22.65956125,
            "velocity": 0.5590551181102362
          },
          {
            "duration": 0.3191487500000001,
            "durationTicks": 96,
            "midi": 64,
            "name": "E4",
            "ticks": 6816,
            "time": 22.65956125,
            "velocity": 0.5590551181102362
          },
          {
            "duration": 0.3191487500000001,
            "durationTicks": 96,
            "midi": 28,
            "name": "E1",
            "ticks": 6816,
            "time": 22.65956125,
            "velocity": 0.5590551181102362
          },
          {
            "duration": 0.3191487500000001,
            "durationTicks": 96,
            "midi": 55,
            "name": "G3",
            "ticks": 6816,
            "time": 22.65956125,
            "velocity": 0.5590551181102362
          },
          {
            "duration": 0.3191487500000001,
            "durationTicks": 96,
            "midi": 52,
            "name": "E3",
            "ticks": 6816,
            "time": 22.65956125,
            "velocity": 0.5590551181102362
          },
          {
            "duration": 0.3191487500000001,
            "durationTicks": 96,
            "midi": 54,
            "name": "F#3",
            "ticks": 6912,
            "time": 22.97871,
            "velocity": 0.5590551181102362
          },
          {
            "duration": 0.3191487500000001,
            "durationTicks": 96,
            "midi": 26,
            "name": "D1",
            "ticks": 6912,
            "time": 22.97871,
            "velocity": 0.5590551181102362
          },
          {
            "duration": 0.3191487500000001,
            "durationTicks": 96,
            "midi": 50,
            "name": "D3",
            "ticks": 6912,
            "time": 22.97871,
            "velocity": 0.5590551181102362
          },
          {
            "duration": 0.9574462500000003,
            "durationTicks": 288,
            "midi": 57,
            "name": "A3",
            "ticks": 6912,
            "time": 22.97871,
            "velocity": 0.5590551181102362
          },
          {
            "duration": 0.3191487500000001,
            "durationTicks": 96,
            "midi": 38,
            "name": "D2",
            "ticks": 6912,
            "time": 22.97871,
            "velocity": 0.5590551181102362
          },
          {
            "duration": 0.3191487500000001,
            "durationTicks": 96,
            "midi": 62,
            "name": "D4",
            "ticks": 6912,
            "time": 22.97871,
            "velocity": 0.5590551181102362
          },
          {
            "duration": 0.15957437500000182,
            "durationTicks": 48,
            "midi": 67,
            "name": "G4",
            "ticks": 6960,
            "time": 23.138284374999998,
            "velocity": 0.5590551181102362
          },
          {
            "duration": 0.15957437499999827,
            "durationTicks": 48,
            "midi": 74,
            "name": "D5",
            "ticks": 7008,
            "time": 23.29785875,
            "velocity": 0.5590551181102362
          },
          {
            "duration": 0.3191487500000001,
            "durationTicks": 96,
            "midi": 50,
            "name": "D3",
            "ticks": 7008,
            "time": 23.29785875,
            "velocity": 0.5590551181102362
          },
          {
            "duration": 0.3191487500000001,
            "durationTicks": 96,
            "midi": 26,
            "name": "D1",
            "ticks": 7008,
            "time": 23.29785875,
            "velocity": 0.5590551181102362
          },
          {
            "duration": 0.3191487500000001,
            "durationTicks": 96,
            "midi": 62,
            "name": "D4",
            "ticks": 7008,
            "time": 23.29785875,
            "velocity": 0.5590551181102362
          },
          {
            "duration": 0.3191487500000001,
            "durationTicks": 96,
            "midi": 38,
            "name": "D2",
            "ticks": 7008,
            "time": 23.29785875,
            "velocity": 0.5590551181102362
          },
          {
            "duration": 0.3191487500000001,
            "durationTicks": 96,
            "midi": 54,
            "name": "F#3",
            "ticks": 7008,
            "time": 23.29785875,
            "velocity": 0.5590551181102362
          },
          {
            "duration": 0.15957437500000182,
            "durationTicks": 48,
            "midi": 79,
            "name": "G5",
            "ticks": 7056,
            "time": 23.457433124999998,
            "velocity": 0.5590551181102362
          },
          {
            "duration": 0.3191487500000001,
            "durationTicks": 96,
            "midi": 62,
            "name": "D4",
            "ticks": 7104,
            "time": 23.6170075,
            "velocity": 0.5590551181102362
          },
          {
            "duration": 0.3191487500000001,
            "durationTicks": 96,
            "midi": 54,
            "name": "F#3",
            "ticks": 7104,
            "time": 23.6170075,
            "velocity": 0.5590551181102362
          },
          {
            "duration": 0.3191487500000001,
            "durationTicks": 96,
            "midi": 26,
            "name": "D1",
            "ticks": 7104,
            "time": 23.6170075,
            "velocity": 0.5590551181102362
          },
          {
            "duration": 0.3191487500000001,
            "durationTicks": 96,
            "midi": 50,
            "name": "D3",
            "ticks": 7104,
            "time": 23.6170075,
            "velocity": 0.5590551181102362
          },
          {
            "duration": 0.3191487500000001,
            "durationTicks": 96,
            "midi": 38,
            "name": "D2",
            "ticks": 7104,
            "time": 23.6170075,
            "velocity": 0.5590551181102362
          },
          {
            "duration": 0.15957437499999827,
            "durationTicks": 48,
            "midi": 78,
            "name": "F#5",
            "ticks": 7104,
            "time": 23.6170075,
            "velocity": 0.5590551181102362
          },
          {
            "duration": 0.3191487500000001,
            "durationTicks": 96,
            "midi": 62,
            "name": "D4",
            "ticks": 7200,
            "time": 23.93615625,
            "velocity": 0.5590551181102362
          },
          {
            "duration": 0.15957437499999827,
            "durationTicks": 48,
            "midi": 74,
            "name": "D5",
            "ticks": 7200,
            "time": 23.93615625,
            "velocity": 0.5590551181102362
          },
          {
            "duration": 0.3191487500000001,
            "durationTicks": 96,
            "midi": 38,
            "name": "D2",
            "ticks": 7200,
            "time": 23.93615625,
            "velocity": 0.5590551181102362
          },
          {
            "duration": 0.3191487500000001,
            "durationTicks": 96,
            "midi": 26,
            "name": "D1",
            "ticks": 7200,
            "time": 23.93615625,
            "velocity": 0.5590551181102362
          },
          {
            "duration": 0.3191487500000001,
            "durationTicks": 96,
            "midi": 50,
            "name": "D3",
            "ticks": 7200,
            "time": 23.93615625,
            "velocity": 0.5590551181102362
          },
          {
            "duration": 0.3191487500000001,
            "durationTicks": 96,
            "midi": 54,
            "name": "F#3",
            "ticks": 7200,
            "time": 23.93615625,
            "velocity": 0.5590551181102362
          },
          {
            "duration": 0.3191487500000001,
            "durationTicks": 96,
            "midi": 57,
            "name": "A3",
            "ticks": 7200,
            "time": 23.93615625,
            "velocity": 0.5590551181102362
          },
          {
            "duration": 0.3191487500000001,
            "durationTicks": 96,
            "midi": 50,
            "name": "D3",
            "ticks": 7296,
            "time": 24.255305,
            "velocity": 0.5590551181102362
          },
          {
            "duration": 0.3191487500000001,
            "durationTicks": 96,
            "midi": 54,
            "name": "F#3",
            "ticks": 7296,
            "time": 24.255305,
            "velocity": 0.5590551181102362
          },
          {
            "duration": 0.3191487500000001,
            "durationTicks": 96,
            "midi": 62,
            "name": "D4",
            "ticks": 7296,
            "time": 24.255305,
            "velocity": 0.5590551181102362
          },
          {
            "duration": 0.47872312499999836,
            "durationTicks": 144,
            "midi": 60,
            "name": "C4",
            "ticks": 7296,
            "time": 24.255305,
            "velocity": 0.5590551181102362
          },
          {
            "duration": 0.3191487500000001,
            "durationTicks": 96,
            "midi": 26,
            "name": "D1",
            "ticks": 7296,
            "time": 24.255305,
            "velocity": 0.5590551181102362
          },
          {
            "duration": 0.3191487500000001,
            "durationTicks": 96,
            "midi": 38,
            "name": "D2",
            "ticks": 7296,
            "time": 24.255305,
            "velocity": 0.5590551181102362
          },
          {
            "duration": 0.3191487500000001,
            "durationTicks": 96,
            "midi": 74,
            "name": "D5",
            "ticks": 7392,
            "time": 24.57445375,
            "velocity": 0.5590551181102362
          },
          {
            "duration": 0.3191487500000001,
            "durationTicks": 96,
            "midi": 26,
            "name": "D1",
            "ticks": 7392,
            "time": 24.57445375,
            "velocity": 0.5590551181102362
          },
          {
            "duration": 0.3191487500000001,
            "durationTicks": 96,
            "midi": 54,
            "name": "F#3",
            "ticks": 7392,
            "time": 24.57445375,
            "velocity": 0.5590551181102362
          },
          {
            "duration": 0.3191487500000001,
            "durationTicks": 96,
            "midi": 50,
            "name": "D3",
            "ticks": 7392,
            "time": 24.57445375,
            "velocity": 0.5590551181102362
          },
          {
            "duration": 0.3191487500000001,
            "durationTicks": 96,
            "midi": 62,
            "name": "D4",
            "ticks": 7392,
            "time": 24.57445375,
            "velocity": 0.5590551181102362
          },
          {
            "duration": 0.3191487500000001,
            "durationTicks": 96,
            "midi": 38,
            "name": "D2",
            "ticks": 7392,
            "time": 24.57445375,
            "velocity": 0.5590551181102362
          },
          {
            "duration": 0.4787231250000019,
            "durationTicks": 144,
            "midi": 59,
            "name": "B3",
            "ticks": 7440,
            "time": 24.734028125,
            "velocity": 0.5590551181102362
          },
          {
            "duration": 0.3191487500000001,
            "durationTicks": 96,
            "midi": 38,
            "name": "D2",
            "ticks": 7488,
            "time": 24.8936025,
            "velocity": 0.5590551181102362
          },
          {
            "duration": 0.3191487500000001,
            "durationTicks": 96,
            "midi": 54,
            "name": "F#3",
            "ticks": 7488,
            "time": 24.8936025,
            "velocity": 0.5590551181102362
          },
          {
            "duration": 0.3191487500000001,
            "durationTicks": 96,
            "midi": 50,
            "name": "D3",
            "ticks": 7488,
            "time": 24.8936025,
            "velocity": 0.5590551181102362
          },
          {
            "duration": 0.3191487500000001,
            "durationTicks": 96,
            "midi": 62,
            "name": "D4",
            "ticks": 7488,
            "time": 24.8936025,
            "velocity": 0.5590551181102362
          },
          {
            "duration": 0.3191487500000001,
            "durationTicks": 96,
            "midi": 26,
            "name": "D1",
            "ticks": 7488,
            "time": 24.8936025,
            "velocity": 0.5590551181102362
          },
          {
            "duration": 0.15957437500000182,
            "durationTicks": 48,
            "midi": 67,
            "name": "G4",
            "ticks": 7536,
            "time": 25.053176875,
            "velocity": 0.5590551181102362
          },
          {
            "duration": 0.3191487500000001,
            "durationTicks": 96,
            "midi": 57,
            "name": "A3",
            "ticks": 7584,
            "time": 25.21275125,
            "velocity": 0.5590551181102362
          },
          {
            "duration": 0.3191487500000001,
            "durationTicks": 96,
            "midi": 26,
            "name": "D1",
            "ticks": 7584,
            "time": 25.21275125,
            "velocity": 0.5590551181102362
          },
          {
            "duration": 0.3191487500000001,
            "durationTicks": 96,
            "midi": 54,
            "name": "F#3",
            "ticks": 7584,
            "time": 25.21275125,
            "velocity": 0.5590551181102362
          },
          {
            "duration": 0.3191487500000001,
            "durationTicks": 96,
            "midi": 50,
            "name": "D3",
            "ticks": 7584,
            "time": 25.21275125,
            "velocity": 0.5590551181102362
          },
          {
            "duration": 0.3191487500000001,
            "durationTicks": 96,
            "midi": 38,
            "name": "D2",
            "ticks": 7584,
            "time": 25.21275125,
            "velocity": 0.5590551181102362
          },
          {
            "duration": 0.3191487500000001,
            "durationTicks": 96,
            "midi": 62,
            "name": "D4",
            "ticks": 7584,
            "time": 25.21275125,
            "velocity": 0.5590551181102362
          },
          {
            "duration": 0.15957437499999827,
            "durationTicks": 48,
            "midi": 74,
            "name": "D5",
            "ticks": 7584,
            "time": 25.21275125,
            "velocity": 0.5590551181102362
          },
          {
            "duration": 0.15957437500000182,
            "durationTicks": 48,
            "midi": 79,
            "name": "G5",
            "ticks": 7632,
            "time": 25.372325625,
            "velocity": 0.5590551181102362
          },
          {
            "duration": 0.31914874999999654,
            "durationTicks": 96,
            "midi": 47,
            "name": "B2",
            "ticks": 7680,
            "time": 25.5319,
            "velocity": 0.5590551181102362
          },
          {
            "duration": 0.31914874999999654,
            "durationTicks": 96,
            "midi": 35,
            "name": "B1",
            "ticks": 7680,
            "time": 25.5319,
            "velocity": 0.5590551181102362
          },
          {
            "duration": 0.9574462499999967,
            "durationTicks": 288,
            "midi": 55,
            "name": "G3",
            "ticks": 7680,
            "time": 25.5319,
            "velocity": 0.5590551181102362
          },
          {
            "duration": 0.31914874999999654,
            "durationTicks": 96,
            "midi": 62,
            "name": "D4",
            "ticks": 7680,
            "time": 25.5319,
            "velocity": 0.5590551181102362
          },
          {
            "duration": 0.15957437499999827,
            "durationTicks": 48,
            "midi": 78,
            "name": "F#5",
            "ticks": 7680,
            "time": 25.5319,
            "velocity": 0.5590551181102362
          },
          {
            "duration": 0.31914874999999654,
            "durationTicks": 96,
            "midi": 50,
            "name": "D3",
            "ticks": 7680,
            "time": 25.5319,
            "velocity": 0.5590551181102362
          },
          {
            "duration": 0.15957437500000182,
            "durationTicks": 48,
            "midi": 74,
            "name": "D5",
            "ticks": 7776,
            "time": 25.851048749999997,
            "velocity": 0.5590551181102362
          },
          {
            "duration": 0.3191487500000001,
            "durationTicks": 96,
            "midi": 62,
            "name": "D4",
            "ticks": 7776,
            "time": 25.851048749999997,
            "velocity": 0.5590551181102362
          },
          {
            "duration": 0.3191487500000001,
            "durationTicks": 96,
            "midi": 47,
            "name": "B2",
            "ticks": 7776,
            "time": 25.851048749999997,
            "velocity": 0.5590551181102362
          },
          {
            "duration": 0.3191487500000001,
            "durationTicks": 96,
            "midi": 50,
            "name": "D3",
            "ticks": 7776,
            "time": 25.851048749999997,
            "velocity": 0.5590551181102362
          },
          {
            "duration": 0.3191487500000001,
            "durationTicks": 96,
            "midi": 35,
            "name": "B1",
            "ticks": 7776,
            "time": 25.851048749999997,
            "velocity": 0.5590551181102362
          },
          {
            "duration": 0.15957437499999827,
            "durationTicks": 48,
            "midi": 79,
            "name": "G5",
            "ticks": 7824,
            "time": 26.010623125,
            "velocity": 0.5590551181102362
          },
          {
            "duration": 0.3191487500000001,
            "durationTicks": 96,
            "midi": 47,
            "name": "B2",
            "ticks": 7872,
            "time": 26.170197499999997,
            "velocity": 0.5590551181102362
          },
          {
            "duration": 0.3191487500000001,
            "durationTicks": 96,
            "midi": 50,
            "name": "D3",
            "ticks": 7872,
            "time": 26.170197499999997,
            "velocity": 0.5590551181102362
          },
          {
            "duration": 0.3191487500000001,
            "durationTicks": 96,
            "midi": 35,
            "name": "B1",
            "ticks": 7872,
            "time": 26.170197499999997,
            "velocity": 0.5590551181102362
          },
          {
            "duration": 0.15957437500000182,
            "durationTicks": 48,
            "midi": 78,
            "name": "F#5",
            "ticks": 7872,
            "time": 26.170197499999997,
            "velocity": 0.5590551181102362
          },
          {
            "duration": 0.3191487500000001,
            "durationTicks": 96,
            "midi": 62,
            "name": "D4",
            "ticks": 7872,
            "time": 26.170197499999997,
            "velocity": 0.5590551181102362
          },
          {
            "duration": 0.3191487500000001,
            "durationTicks": 96,
            "midi": 35,
            "name": "B1",
            "ticks": 7968,
            "time": 26.489346249999997,
            "velocity": 0.5590551181102362
          },
          {
            "duration": 0.15957437500000182,
            "durationTicks": 48,
            "midi": 74,
            "name": "D5",
            "ticks": 7968,
            "time": 26.489346249999997,
            "velocity": 0.5590551181102362
          },
          {
            "duration": 0.3191487500000001,
            "durationTicks": 96,
            "midi": 55,
            "name": "G3",
            "ticks": 7968,
            "time": 26.489346249999997,
            "velocity": 0.5590551181102362
          },
          {
            "duration": 0.3191487500000001,
            "durationTicks": 96,
            "midi": 62,
            "name": "D4",
            "ticks": 7968,
            "time": 26.489346249999997,
            "velocity": 0.5590551181102362
          },
          {
            "duration": 0.3191487500000001,
            "durationTicks": 96,
            "midi": 47,
            "name": "B2",
            "ticks": 7968,
            "time": 26.489346249999997,
            "velocity": 0.5590551181102362
          },
          {
            "duration": 0.3191487500000001,
            "durationTicks": 96,
            "midi": 50,
            "name": "D3",
            "ticks": 7968,
            "time": 26.489346249999997,
            "velocity": 0.5590551181102362
          },
          {
            "duration": 0.3191487500000001,
            "durationTicks": 96,
            "midi": 62,
            "name": "D4",
            "ticks": 8064,
            "time": 26.808494999999997,
            "velocity": 0.5590551181102362
          },
          {
            "duration": 0.3191487500000001,
            "durationTicks": 96,
            "midi": 35,
            "name": "B1",
            "ticks": 8064,
            "time": 26.808494999999997,
            "velocity": 0.5590551181102362
          },
          {
            "duration": 0.3191487500000001,
            "durationTicks": 96,
            "midi": 67,
            "name": "G4",
            "ticks": 8064,
            "time": 26.808494999999997,
            "velocity": 0.5590551181102362
          },
          {
            "duration": 0.4787231250000019,
            "durationTicks": 144,
            "midi": 60,
            "name": "C4",
            "ticks": 8064,
            "time": 26.808494999999997,
            "velocity": 0.5590551181102362
          },
          {
            "duration": 0.3191487500000001,
            "durationTicks": 96,
            "midi": 47,
            "name": "B2",
            "ticks": 8064,
            "time": 26.808494999999997,
            "velocity": 0.5590551181102362
          },
          {
            "duration": 0.3191487500000001,
            "durationTicks": 96,
            "midi": 50,
            "name": "D3",
            "ticks": 8064,
            "time": 26.808494999999997,
            "velocity": 0.5590551181102362
          },
          {
            "duration": 0.3191487500000001,
            "durationTicks": 96,
            "midi": 47,
            "name": "B2",
            "ticks": 8160,
            "time": 27.127643749999997,
            "velocity": 0.5590551181102362
          },
          {
            "duration": 0.3191487500000001,
            "durationTicks": 96,
            "midi": 62,
            "name": "D4",
            "ticks": 8160,
            "time": 27.127643749999997,
            "velocity": 0.5590551181102362
          },
          {
            "duration": 0.3191487500000001,
            "durationTicks": 96,
            "midi": 50,
            "name": "D3",
            "ticks": 8160,
            "time": 27.127643749999997,
            "velocity": 0.5590551181102362
          },
          {
            "duration": 0.15957437500000182,
            "durationTicks": 48,
            "midi": 74,
            "name": "D5",
            "ticks": 8160,
            "time": 27.127643749999997,
            "velocity": 0.5590551181102362
          },
          {
            "duration": 0.3191487500000001,
            "durationTicks": 96,
            "midi": 35,
            "name": "B1",
            "ticks": 8160,
            "time": 27.127643749999997,
            "velocity": 0.5590551181102362
          },
          {
            "duration": 0.47872312499999836,
            "durationTicks": 144,
            "midi": 59,
            "name": "B3",
            "ticks": 8208,
            "time": 27.287218125,
            "velocity": 0.5590551181102362
          },
          {
            "duration": 0.15957437499999827,
            "durationTicks": 48,
            "midi": 79,
            "name": "G5",
            "ticks": 8208,
            "time": 27.287218125,
            "velocity": 0.5590551181102362
          },
          {
            "duration": 0.3191487500000001,
            "durationTicks": 96,
            "midi": 47,
            "name": "B2",
            "ticks": 8256,
            "time": 27.446792499999997,
            "velocity": 0.5590551181102362
          },
          {
            "duration": 0.3191487500000001,
            "durationTicks": 96,
            "midi": 62,
            "name": "D4",
            "ticks": 8256,
            "time": 27.446792499999997,
            "velocity": 0.5590551181102362
          },
          {
            "duration": 0.15957437500000182,
            "durationTicks": 48,
            "midi": 78,
            "name": "F#5",
            "ticks": 8256,
            "time": 27.446792499999997,
            "velocity": 0.5590551181102362
          },
          {
            "duration": 0.3191487500000001,
            "durationTicks": 96,
            "midi": 35,
            "name": "B1",
            "ticks": 8256,
            "time": 27.446792499999997,
            "velocity": 0.5590551181102362
          },
          {
            "duration": 0.3191487500000001,
            "durationTicks": 96,
            "midi": 50,
            "name": "D3",
            "ticks": 8256,
            "time": 27.446792499999997,
            "velocity": 0.5590551181102362
          },
          {
            "duration": 0.15957437500000182,
            "durationTicks": 48,
            "midi": 74,
            "name": "D5",
            "ticks": 8352,
            "time": 27.765941249999997,
            "velocity": 0.5590551181102362
          },
          {
            "duration": 0.3191487500000001,
            "durationTicks": 96,
            "midi": 47,
            "name": "B2",
            "ticks": 8352,
            "time": 27.765941249999997,
            "velocity": 0.5590551181102362
          },
          {
            "duration": 0.3191487500000001,
            "durationTicks": 96,
            "midi": 35,
            "name": "B1",
            "ticks": 8352,
            "time": 27.765941249999997,
            "velocity": 0.5590551181102362
          },
          {
            "duration": 0.3191487500000001,
            "durationTicks": 96,
            "midi": 57,
            "name": "A3",
            "ticks": 8352,
            "time": 27.765941249999997,
            "velocity": 0.5590551181102362
          },
          {
            "duration": 0.3191487500000001,
            "durationTicks": 96,
            "midi": 50,
            "name": "D3",
            "ticks": 8352,
            "time": 27.765941249999997,
            "velocity": 0.5590551181102362
          },
          {
            "duration": 0.3191487500000001,
            "durationTicks": 96,
            "midi": 62,
            "name": "D4",
            "ticks": 8352,
            "time": 27.765941249999997,
            "velocity": 0.5590551181102362
          },
          {
            "duration": 0.15957437499999827,
            "durationTicks": 48,
            "midi": 79,
            "name": "G5",
            "ticks": 8400,
            "time": 27.925515625,
            "velocity": 0.5590551181102362
          },
          {
            "duration": 0.3191487500000001,
            "durationTicks": 96,
            "midi": 24,
            "name": "C1",
            "ticks": 8448,
            "time": 28.085089999999997,
            "velocity": 0.5590551181102362
          },
          {
            "duration": 0.4787231250000019,
            "durationTicks": 144,
            "midi": 60,
            "name": "C4",
            "ticks": 8448,
            "time": 28.085089999999997,
            "velocity": 0.5590551181102362
          },
          {
            "duration": 0.3191487500000001,
            "durationTicks": 96,
            "midi": 36,
            "name": "C2",
            "ticks": 8448,
            "time": 28.085089999999997,
            "velocity": 0.5590551181102362
          },
          {
            "duration": 0.3191487500000001,
            "durationTicks": 96,
            "midi": 48,
            "name": "C3",
            "ticks": 8448,
            "time": 28.085089999999997,
            "velocity": 0.5590551181102362
          },
          {
            "duration": 0.15957437500000182,
            "durationTicks": 48,
            "midi": 78,
            "name": "F#5",
            "ticks": 8448,
            "time": 28.085089999999997,
            "velocity": 0.5590551181102362
          },
          {
            "duration": 0.3191487500000001,
            "durationTicks": 96,
            "midi": 55,
            "name": "G3",
            "ticks": 8448,
            "time": 28.085089999999997,
            "velocity": 0.5590551181102362
          },
          {
            "duration": 0.3191487500000001,
            "durationTicks": 96,
            "midi": 64,
            "name": "E4",
            "ticks": 8448,
            "time": 28.085089999999997,
            "velocity": 0.5590551181102362
          },
          {
            "duration": 0.3191487500000001,
            "durationTicks": 96,
            "midi": 64,
            "name": "E4",
            "ticks": 8544,
            "time": 28.404238749999998,
            "velocity": 0.5590551181102362
          },
          {
            "duration": 0.3191487500000001,
            "durationTicks": 96,
            "midi": 24,
            "name": "C1",
            "ticks": 8544,
            "time": 28.404238749999998,
            "velocity": 0.5590551181102362
          },
          {
            "duration": 0.3191487500000001,
            "durationTicks": 96,
            "midi": 55,
            "name": "G3",
            "ticks": 8544,
            "time": 28.404238749999998,
            "velocity": 0.5590551181102362
          },
          {
            "duration": 0.3191487500000001,
            "durationTicks": 96,
            "midi": 74,
            "name": "D5",
            "ticks": 8544,
            "time": 28.404238749999998,
            "velocity": 0.5590551181102362
          },
          {
            "duration": 0.3191487500000001,
            "durationTicks": 96,
            "midi": 36,
            "name": "C2",
            "ticks": 8544,
            "time": 28.404238749999998,
            "velocity": 0.5590551181102362
          },
          {
            "duration": 0.3191487500000001,
            "durationTicks": 96,
            "midi": 48,
            "name": "C3",
            "ticks": 8544,
            "time": 28.404238749999998,
            "velocity": 0.5590551181102362
          },
          {
            "duration": 0.47872312499999836,
            "durationTicks": 144,
            "midi": 59,
            "name": "B3",
            "ticks": 8592,
            "time": 28.563813125,
            "velocity": 0.5590551181102362
          },
          {
            "duration": 0.3191487500000001,
            "durationTicks": 96,
            "midi": 24,
            "name": "C1",
            "ticks": 8640,
            "time": 28.723387499999998,
            "velocity": 0.5590551181102362
          },
          {
            "duration": 0.3191487500000001,
            "durationTicks": 96,
            "midi": 64,
            "name": "E4",
            "ticks": 8640,
            "time": 28.723387499999998,
            "velocity": 0.5590551181102362
          },
          {
            "duration": 0.3191487500000001,
            "durationTicks": 96,
            "midi": 55,
            "name": "G3",
            "ticks": 8640,
            "time": 28.723387499999998,
            "velocity": 0.5590551181102362
          },
          {
            "duration": 0.3191487500000001,
            "durationTicks": 96,
            "midi": 79,
            "name": "G5",
            "ticks": 8640,
            "time": 28.723387499999998,
            "velocity": 0.5590551181102362
          },
          {
            "duration": 0.3191487500000001,
            "durationTicks": 96,
            "midi": 36,
            "name": "C2",
            "ticks": 8640,
            "time": 28.723387499999998,
            "velocity": 0.5590551181102362
          },
          {
            "duration": 0.3191487500000001,
            "durationTicks": 96,
            "midi": 48,
            "name": "C3",
            "ticks": 8640,
            "time": 28.723387499999998,
            "velocity": 0.5590551181102362
          },
          {
            "duration": 0.3191487500000001,
            "durationTicks": 96,
            "midi": 24,
            "name": "C1",
            "ticks": 8736,
            "time": 29.042536249999998,
            "velocity": 0.5590551181102362
          },
          {
            "duration": 0.3191487500000001,
            "durationTicks": 96,
            "midi": 64,
            "name": "E4",
            "ticks": 8736,
            "time": 29.042536249999998,
            "velocity": 0.5590551181102362
          },
          {
            "duration": 0.3191487500000001,
            "durationTicks": 96,
            "midi": 36,
            "name": "C2",
            "ticks": 8736,
            "time": 29.042536249999998,
            "velocity": 0.5590551181102362
          },
          {
            "duration": 0.3191487500000001,
            "durationTicks": 96,
            "midi": 57,
            "name": "A3",
            "ticks": 8736,
            "time": 29.042536249999998,
            "velocity": 0.5590551181102362
          },
          {
            "duration": 0.3191487500000001,
            "durationTicks": 96,
            "midi": 48,
            "name": "C3",
            "ticks": 8736,
            "time": 29.042536249999998,
            "velocity": 0.5590551181102362
          },
          {
            "duration": 0.3191487500000001,
            "durationTicks": 96,
            "midi": 74,
            "name": "D5",
            "ticks": 8736,
            "time": 29.042536249999998,
            "velocity": 0.5590551181102362
          },
          {
            "duration": 0.3191487500000001,
            "durationTicks": 96,
            "midi": 55,
            "name": "G3",
            "ticks": 8736,
            "time": 29.042536249999998,
            "velocity": 0.5590551181102362
          },
          {
            "duration": 0.3191487500000001,
            "durationTicks": 96,
            "midi": 64,
            "name": "E4",
            "ticks": 8832,
            "time": 29.361684999999998,
            "velocity": 0.5590551181102362
          },
          {
            "duration": 0.3191487500000001,
            "durationTicks": 96,
            "midi": 48,
            "name": "C3",
            "ticks": 8832,
            "time": 29.361684999999998,
            "velocity": 0.5590551181102362
          },
          {
            "duration": 0.3191487500000001,
            "durationTicks": 96,
            "midi": 24,
            "name": "C1",
            "ticks": 8832,
            "time": 29.361684999999998,
            "velocity": 0.5590551181102362
          },
          {
            "duration": 0.3191487500000001,
            "durationTicks": 96,
            "midi": 36,
            "name": "C2",
            "ticks": 8832,
            "time": 29.361684999999998,
            "velocity": 0.5590551181102362
          },
          {
            "duration": 0.3191487500000001,
            "durationTicks": 96,
            "midi": 78,
            "name": "F#5",
            "ticks": 8832,
            "time": 29.361684999999998,
            "velocity": 0.5590551181102362
          },
          {
            "duration": 0.4787231250000019,
            "durationTicks": 144,
            "midi": 60,
            "name": "C4",
            "ticks": 8832,
            "time": 29.361684999999998,
            "velocity": 0.5590551181102362
          },
          {
            "duration": 0.3191487500000001,
            "durationTicks": 96,
            "midi": 55,
            "name": "G3",
            "ticks": 8832,
            "time": 29.361684999999998,
            "velocity": 0.5590551181102362
          },
          {
            "duration": 0.3191487500000001,
            "durationTicks": 96,
            "midi": 64,
            "name": "E4",
            "ticks": 8928,
            "time": 29.680833749999998,
            "velocity": 0.5590551181102362
          },
          {
            "duration": 0.3191487500000001,
            "durationTicks": 96,
            "midi": 55,
            "name": "G3",
            "ticks": 8928,
            "time": 29.680833749999998,
            "velocity": 0.5590551181102362
          },
          {
            "duration": 0.3191487500000001,
            "durationTicks": 96,
            "midi": 48,
            "name": "C3",
            "ticks": 8928,
            "time": 29.680833749999998,
            "velocity": 0.5590551181102362
          },
          {
            "duration": 0.3191487500000001,
            "durationTicks": 96,
            "midi": 36,
            "name": "C2",
            "ticks": 8928,
            "time": 29.680833749999998,
            "velocity": 0.5590551181102362
          },
          {
            "duration": 0.15957437500000182,
            "durationTicks": 48,
            "midi": 74,
            "name": "D5",
            "ticks": 8928,
            "time": 29.680833749999998,
            "velocity": 0.5590551181102362
          },
          {
            "duration": 0.3191487500000001,
            "durationTicks": 96,
            "midi": 24,
            "name": "C1",
            "ticks": 8928,
            "time": 29.680833749999998,
            "velocity": 0.5590551181102362
          },
          {
            "duration": 0.47872312499999836,
            "durationTicks": 144,
            "midi": 59,
            "name": "B3",
            "ticks": 8976,
            "time": 29.840408125,
            "velocity": 0.5590551181102362
          },
          {
            "duration": 0.15957437499999827,
            "durationTicks": 48,
            "midi": 79,
            "name": "G5",
            "ticks": 8976,
            "time": 29.840408125,
            "velocity": 0.5590551181102362
          },
          {
            "duration": 0.3191487500000001,
            "durationTicks": 96,
            "midi": 78,
            "name": "F#5",
            "ticks": 9024,
            "time": 29.999982499999998,
            "velocity": 0.5590551181102362
          },
          {
            "duration": 0.3191487500000001,
            "durationTicks": 96,
            "midi": 48,
            "name": "C3",
            "ticks": 9024,
            "time": 29.999982499999998,
            "velocity": 0.5590551181102362
          },
          {
            "duration": 0.3191487500000001,
            "durationTicks": 96,
            "midi": 24,
            "name": "C1",
            "ticks": 9024,
            "time": 29.999982499999998,
            "velocity": 0.5590551181102362
          },
          {
            "duration": 0.3191487500000001,
            "durationTicks": 96,
            "midi": 55,
            "name": "G3",
            "ticks": 9024,
            "time": 29.999982499999998,
            "velocity": 0.5590551181102362
          },
          {
            "duration": 0.3191487500000001,
            "durationTicks": 96,
            "midi": 36,
            "name": "C2",
            "ticks": 9024,
            "time": 29.999982499999998,
            "velocity": 0.5590551181102362
          },
          {
            "duration": 0.3191487500000001,
            "durationTicks": 96,
            "midi": 64,
            "name": "E4",
            "ticks": 9024,
            "time": 29.999982499999998,
            "velocity": 0.5590551181102362
          },
          {
            "duration": 0.3191487500000001,
            "durationTicks": 96,
            "midi": 48,
            "name": "C3",
            "ticks": 9120,
            "time": 30.319131249999998,
            "velocity": 0.5590551181102362
          },
          {
            "duration": 0.3191487500000001,
            "durationTicks": 96,
            "midi": 36,
            "name": "C2",
            "ticks": 9120,
            "time": 30.319131249999998,
            "velocity": 0.5590551181102362
          },
          {
            "duration": 0.3191487500000001,
            "durationTicks": 96,
            "midi": 55,
            "name": "G3",
            "ticks": 9120,
            "time": 30.319131249999998,
            "velocity": 0.5590551181102362
          },
          {
            "duration": 0.3191487500000001,
            "durationTicks": 96,
            "midi": 24,
            "name": "C1",
            "ticks": 9120,
            "time": 30.319131249999998,
            "velocity": 0.5590551181102362
          },
          {
            "duration": 0.3191487500000001,
            "durationTicks": 96,
            "midi": 64,
            "name": "E4",
            "ticks": 9120,
            "time": 30.319131249999998,
            "velocity": 0.5590551181102362
          },
          {
            "duration": 0.3191487500000001,
            "durationTicks": 96,
            "midi": 74,
            "name": "D5",
            "ticks": 9120,
            "time": 30.319131249999998,
            "velocity": 0.5590551181102362
          },
          {
            "duration": 0.9574462500000003,
            "durationTicks": 288,
            "midi": 57,
            "name": "A3",
            "ticks": 9216,
            "time": 30.638279999999998,
            "velocity": 0.5590551181102362
          },
          {
            "duration": 0.3191487500000001,
            "durationTicks": 96,
            "midi": 38,
            "name": "D2",
            "ticks": 9216,
            "time": 30.638279999999998,
            "velocity": 0.5590551181102362
          },
          {
            "duration": 0.3191487500000001,
            "durationTicks": 96,
            "midi": 69,
            "name": "A4",
            "ticks": 9216,
            "time": 30.638279999999998,
            "velocity": 0.5590551181102362
          },
          {
            "duration": 0.3191487500000001,
            "durationTicks": 96,
            "midi": 50,
            "name": "D3",
            "ticks": 9216,
            "time": 30.638279999999998,
            "velocity": 0.5590551181102362
          },
          {
            "duration": 0.3191487500000001,
            "durationTicks": 96,
            "midi": 62,
            "name": "D4",
            "ticks": 9216,
            "time": 30.638279999999998,
            "velocity": 0.5590551181102362
          },
          {
            "duration": 0.3191487500000001,
            "durationTicks": 96,
            "midi": 45,
            "name": "A2",
            "ticks": 9216,
            "time": 30.638279999999998,
            "velocity": 0.5590551181102362
          },
          {
            "duration": 0.3191487500000001,
            "durationTicks": 96,
            "midi": 26,
            "name": "D1",
            "ticks": 9216,
            "time": 30.638279999999998,
            "velocity": 0.5590551181102362
          },
          {
            "duration": 0.3191487500000001,
            "durationTicks": 96,
            "midi": 45,
            "name": "A2",
            "ticks": 9312,
            "time": 30.95742875,
            "velocity": 0.5590551181102362
          },
          {
            "duration": 0.3191487500000001,
            "durationTicks": 96,
            "midi": 38,
            "name": "D2",
            "ticks": 9312,
            "time": 30.95742875,
            "velocity": 0.5590551181102362
          },
          {
            "duration": 0.3191487500000001,
            "durationTicks": 96,
            "midi": 62,
            "name": "D4",
            "ticks": 9312,
            "time": 30.95742875,
            "velocity": 0.5590551181102362
          },
          {
            "duration": 0.3191487500000001,
            "durationTicks": 96,
            "midi": 26,
            "name": "D1",
            "ticks": 9312,
            "time": 30.95742875,
            "velocity": 0.5590551181102362
          },
          {
            "duration": 0.15957437499999827,
            "durationTicks": 48,
            "midi": 74,
            "name": "D5",
            "ticks": 9312,
            "time": 30.95742875,
            "velocity": 0.5590551181102362
          },
          {
            "duration": 0.3191487500000001,
            "durationTicks": 96,
            "midi": 50,
            "name": "D3",
            "ticks": 9312,
            "time": 30.95742875,
            "velocity": 0.5590551181102362
          },
          {
            "duration": 0.15957437500000182,
            "durationTicks": 48,
            "midi": 79,
            "name": "G5",
            "ticks": 9360,
            "time": 31.117003124999997,
            "velocity": 0.5590551181102362
          },
          {
            "duration": 0.3191487500000001,
            "durationTicks": 96,
            "midi": 62,
            "name": "D4",
            "ticks": 9408,
            "time": 31.2765775,
            "velocity": 0.5590551181102362
          },
          {
            "duration": 0.3191487500000001,
            "durationTicks": 96,
            "midi": 38,
            "name": "D2",
            "ticks": 9408,
            "time": 31.2765775,
            "velocity": 0.5590551181102362
          },
          {
            "duration": 0.3191487500000001,
            "durationTicks": 96,
            "midi": 50,
            "name": "D3",
            "ticks": 9408,
            "time": 31.2765775,
            "velocity": 0.5590551181102362
          },
          {
            "duration": 0.3191487500000001,
            "durationTicks": 96,
            "midi": 26,
            "name": "D1",
            "ticks": 9408,
            "time": 31.2765775,
            "velocity": 0.5590551181102362
          },
          {
            "duration": 0.3191487500000001,
            "durationTicks": 96,
            "midi": 45,
            "name": "A2",
            "ticks": 9408,
            "time": 31.2765775,
            "velocity": 0.5590551181102362
          },
          {
            "duration": 0.15957437499999827,
            "durationTicks": 48,
            "midi": 78,
            "name": "F#5",
            "ticks": 9408,
            "time": 31.2765775,
            "velocity": 0.5590551181102362
          },
          {
            "duration": 0.3191487500000001,
            "durationTicks": 96,
            "midi": 62,
            "name": "D4",
            "ticks": 9504,
            "time": 31.59572625,
            "velocity": 0.5590551181102362
          },
          {
            "duration": 0.3191487500000001,
            "durationTicks": 96,
            "midi": 74,
            "name": "D5",
            "ticks": 9504,
            "time": 31.59572625,
            "velocity": 0.5590551181102362
          },
          {
            "duration": 0.3191487500000001,
            "durationTicks": 96,
            "midi": 50,
            "name": "D3",
            "ticks": 9504,
            "time": 31.59572625,
            "velocity": 0.5590551181102362
          },
          {
            "duration": 0.3191487500000001,
            "durationTicks": 96,
            "midi": 38,
            "name": "D2",
            "ticks": 9504,
            "time": 31.59572625,
            "velocity": 0.5590551181102362
          },
          {
            "duration": 0.3191487500000001,
            "durationTicks": 96,
            "midi": 57,
            "name": "A3",
            "ticks": 9504,
            "time": 31.59572625,
            "velocity": 0.5590551181102362
          },
          {
            "duration": 0.3191487500000001,
            "durationTicks": 96,
            "midi": 26,
            "name": "D1",
            "ticks": 9504,
            "time": 31.59572625,
            "velocity": 0.5590551181102362
          },
          {
            "duration": 0.3191487500000001,
            "durationTicks": 96,
            "midi": 45,
            "name": "A2",
            "ticks": 9504,
            "time": 31.59572625,
            "velocity": 0.5590551181102362
          },
          {
            "duration": 0.3191487500000001,
            "durationTicks": 96,
            "midi": 45,
            "name": "A2",
            "ticks": 9600,
            "time": 31.914875,
            "velocity": 0.5590551181102362
          },
          {
            "duration": 0.3191487500000001,
            "durationTicks": 96,
            "midi": 69,
            "name": "A4",
            "ticks": 9600,
            "time": 31.914875,
            "velocity": 0.5590551181102362
          },
          {
            "duration": 0.3191487500000001,
            "durationTicks": 96,
            "midi": 62,
            "name": "D4",
            "ticks": 9600,
            "time": 31.914875,
            "velocity": 0.5590551181102362
          },
          {
            "duration": 0.3191487500000001,
            "durationTicks": 96,
            "midi": 38,
            "name": "D2",
            "ticks": 9600,
            "time": 31.914875,
            "velocity": 0.5590551181102362
          },
          {
            "duration": 0.3191487500000001,
            "durationTicks": 96,
            "midi": 26,
            "name": "D1",
            "ticks": 9600,
            "time": 31.914875,
            "velocity": 0.5590551181102362
          },
          {
            "duration": 0.3191487500000001,
            "durationTicks": 96,
            "midi": 50,
            "name": "D3",
            "ticks": 9600,
            "time": 31.914875,
            "velocity": 0.5590551181102362
          },
          {
            "duration": 0.47872312499999836,
            "durationTicks": 144,
            "midi": 60,
            "name": "C4",
            "ticks": 9600,
            "time": 31.914875,
            "velocity": 0.5590551181102362
          },
          {
            "duration": 0.31914874999999654,
            "durationTicks": 96,
            "midi": 50,
            "name": "D3",
            "ticks": 9696,
            "time": 32.23402375,
            "velocity": 0.5590551181102362
          },
          {
            "duration": 0.31914874999999654,
            "durationTicks": 96,
            "midi": 26,
            "name": "D1",
            "ticks": 9696,
            "time": 32.23402375,
            "velocity": 0.5590551181102362
          },
          {
            "duration": 0.31914874999999654,
            "durationTicks": 96,
            "midi": 45,
            "name": "A2",
            "ticks": 9696,
            "time": 32.23402375,
            "velocity": 0.5590551181102362
          },
          {
            "duration": 0.31914874999999654,
            "durationTicks": 96,
            "midi": 74,
            "name": "D5",
            "ticks": 9696,
            "time": 32.23402375,
            "velocity": 0.5590551181102362
          },
          {
            "duration": 0.31914874999999654,
            "durationTicks": 96,
            "midi": 38,
            "name": "D2",
            "ticks": 9696,
            "time": 32.23402375,
            "velocity": 0.5590551181102362
          },
          {
            "duration": 0.31914874999999654,
            "durationTicks": 96,
            "midi": 62,
            "name": "D4",
            "ticks": 9696,
            "time": 32.23402375,
            "velocity": 0.5590551181102362
          },
          {
            "duration": 0.4787231250000019,
            "durationTicks": 144,
            "midi": 59,
            "name": "B3",
            "ticks": 9744,
            "time": 32.393598125,
            "velocity": 0.5590551181102362
          },
          {
            "duration": 0.31914875000000364,
            "durationTicks": 96,
            "midi": 45,
            "name": "A2",
            "ticks": 9792,
            "time": 32.553172499999995,
            "velocity": 0.5590551181102362
          },
          {
            "duration": 0.31914875000000364,
            "durationTicks": 96,
            "midi": 69,
            "name": "A4",
            "ticks": 9792,
            "time": 32.553172499999995,
            "velocity": 0.5590551181102362
          },
          {
            "duration": 0.31914875000000364,
            "durationTicks": 96,
            "midi": 50,
            "name": "D3",
            "ticks": 9792,
            "time": 32.553172499999995,
            "velocity": 0.5590551181102362
          },
          {
            "duration": 0.31914875000000364,
            "durationTicks": 96,
            "midi": 62,
            "name": "D4",
            "ticks": 9792,
            "time": 32.553172499999995,
            "velocity": 0.5590551181102362
          },
          {
            "duration": 0.31914875000000364,
            "durationTicks": 96,
            "midi": 26,
            "name": "D1",
            "ticks": 9792,
            "time": 32.553172499999995,
            "velocity": 0.5590551181102362
          },
          {
            "duration": 0.31914875000000364,
            "durationTicks": 96,
            "midi": 38,
            "name": "D2",
            "ticks": 9792,
            "time": 32.553172499999995,
            "velocity": 0.5590551181102362
          },
          {
            "duration": 0.31914874999999654,
            "durationTicks": 96,
            "midi": 45,
            "name": "A2",
            "ticks": 9888,
            "time": 32.87232125,
            "velocity": 0.5590551181102362
          },
          {
            "duration": 0.31914874999999654,
            "durationTicks": 96,
            "midi": 62,
            "name": "D4",
            "ticks": 9888,
            "time": 32.87232125,
            "velocity": 0.5590551181102362
          },
          {
            "duration": 0.31914874999999654,
            "durationTicks": 96,
            "midi": 74,
            "name": "D5",
            "ticks": 9888,
            "time": 32.87232125,
            "velocity": 0.5590551181102362
          },
          {
            "duration": 0.31914874999999654,
            "durationTicks": 96,
            "midi": 38,
            "name": "D2",
            "ticks": 9888,
            "time": 32.87232125,
            "velocity": 0.5590551181102362
          },
          {
            "duration": 0.31914874999999654,
            "durationTicks": 96,
            "midi": 55,
            "name": "G3",
            "ticks": 9888,
            "time": 32.87232125,
            "velocity": 0.5590551181102362
          },
          {
            "duration": 0.31914874999999654,
            "durationTicks": 96,
            "midi": 50,
            "name": "D3",
            "ticks": 9888,
            "time": 32.87232125,
            "velocity": 0.5590551181102362
          },
          {
            "duration": 0.31914874999999654,
            "durationTicks": 96,
            "midi": 26,
            "name": "D1",
            "ticks": 9888,
            "time": 32.87232125,
            "velocity": 0.5590551181102362
          },
          {
            "duration": 0.31914875000000364,
            "durationTicks": 96,
            "midi": 38,
            "name": "D2",
            "ticks": 9984,
            "time": 33.191469999999995,
            "velocity": 0.5590551181102362
          },
          {
            "duration": 0.31914875000000364,
            "durationTicks": 96,
            "midi": 26,
            "name": "D1",
            "ticks": 9984,
            "time": 33.191469999999995,
            "velocity": 0.5590551181102362
          },
          {
            "duration": 0.31914875000000364,
            "durationTicks": 96,
            "midi": 50,
            "name": "D3",
            "ticks": 9984,
            "time": 33.191469999999995,
            "velocity": 0.5590551181102362
          },
          {
            "duration": 0.31914875000000364,
            "durationTicks": 96,
            "midi": 62,
            "name": "D4",
            "ticks": 9984,
            "time": 33.191469999999995,
            "velocity": 0.5590551181102362
          },
          {
            "duration": 0.9574462500000038,
            "durationTicks": 288,
            "midi": 57,
            "name": "A3",
            "ticks": 9984,
            "time": 33.191469999999995,
            "velocity": 0.5590551181102362
          },
          {
            "duration": 0.31914875000000364,
            "durationTicks": 96,
            "midi": 45,
            "name": "A2",
            "ticks": 9984,
            "time": 33.191469999999995,
            "velocity": 0.5590551181102362
          },
          {
            "duration": 0.31914875000000364,
            "durationTicks": 96,
            "midi": 69,
            "name": "A4",
            "ticks": 9984,
            "time": 33.191469999999995,
            "velocity": 0.5590551181102362
          },
          {
            "duration": 0.31914874999999654,
            "durationTicks": 96,
            "midi": 74,
            "name": "D5",
            "ticks": 10080,
            "time": 33.51061875,
            "velocity": 0.5590551181102362
          },
          {
            "duration": 0.31914874999999654,
            "durationTicks": 96,
            "midi": 50,
            "name": "D3",
            "ticks": 10080,
            "time": 33.51061875,
            "velocity": 0.5590551181102362
          },
          {
            "duration": 0.31914874999999654,
            "durationTicks": 96,
            "midi": 45,
            "name": "A2",
            "ticks": 10080,
            "time": 33.51061875,
            "velocity": 0.5590551181102362
          },
          {
            "duration": 0.31914874999999654,
            "durationTicks": 96,
            "midi": 62,
            "name": "D4",
            "ticks": 10080,
            "time": 33.51061875,
            "velocity": 0.5590551181102362
          },
          {
            "duration": 0.31914874999999654,
            "durationTicks": 96,
            "midi": 26,
            "name": "D1",
            "ticks": 10080,
            "time": 33.51061875,
            "velocity": 0.5590551181102362
          },
          {
            "duration": 0.31914874999999654,
            "durationTicks": 96,
            "midi": 38,
            "name": "D2",
            "ticks": 10080,
            "time": 33.51061875,
            "velocity": 0.5590551181102362
          },
          {
            "duration": 0.31914875000000364,
            "durationTicks": 96,
            "midi": 45,
            "name": "A2",
            "ticks": 10176,
            "time": 33.829767499999996,
            "velocity": 0.5590551181102362
          },
          {
            "duration": 0.31914875000000364,
            "durationTicks": 96,
            "midi": 38,
            "name": "D2",
            "ticks": 10176,
            "time": 33.829767499999996,
            "velocity": 0.5590551181102362
          },
          {
            "duration": 0.31914875000000364,
            "durationTicks": 96,
            "midi": 62,
            "name": "D4",
            "ticks": 10176,
            "time": 33.829767499999996,
            "velocity": 0.5590551181102362
          },
          {
            "duration": 0.31914875000000364,
            "durationTicks": 96,
            "midi": 50,
            "name": "D3",
            "ticks": 10176,
            "time": 33.829767499999996,
            "velocity": 0.5590551181102362
          },
          {
            "duration": 0.31914875000000364,
            "durationTicks": 96,
            "midi": 78,
            "name": "F#5",
            "ticks": 10176,
            "time": 33.829767499999996,
            "velocity": 0.5590551181102362
          },
          {
            "duration": 0.31914875000000364,
            "durationTicks": 96,
            "midi": 26,
            "name": "D1",
            "ticks": 10176,
            "time": 33.829767499999996,
            "velocity": 0.5590551181102362
          },
          {
            "duration": 0.31914874999999654,
            "durationTicks": 96,
            "midi": 62,
            "name": "D4",
            "ticks": 10272,
            "time": 34.14891625,
            "velocity": 0.5590551181102362
          },
          {
            "duration": 0.31914874999999654,
            "durationTicks": 96,
            "midi": 74,
            "name": "D5",
            "ticks": 10272,
            "time": 34.14891625,
            "velocity": 0.5590551181102362
          },
          {
            "duration": 0.31914874999999654,
            "durationTicks": 96,
            "midi": 38,
            "name": "D2",
            "ticks": 10272,
            "time": 34.14891625,
            "velocity": 0.5590551181102362
          },
          {
            "duration": 0.31914874999999654,
            "durationTicks": 96,
            "midi": 50,
            "name": "D3",
            "ticks": 10272,
            "time": 34.14891625,
            "velocity": 0.5590551181102362
          },
          {
            "duration": 0.31914874999999654,
            "durationTicks": 96,
            "midi": 57,
            "name": "A3",
            "ticks": 10272,
            "time": 34.14891625,
            "velocity": 0.5590551181102362
          },
          {
            "duration": 0.31914874999999654,
            "durationTicks": 96,
            "midi": 26,
            "name": "D1",
            "ticks": 10272,
            "time": 34.14891625,
            "velocity": 0.5590551181102362
          },
          {
            "duration": 0.31914874999999654,
            "durationTicks": 96,
            "midi": 45,
            "name": "A2",
            "ticks": 10272,
            "time": 34.14891625,
            "velocity": 0.5590551181102362
          },
          {
            "duration": 0.31914875000000364,
            "durationTicks": 96,
            "midi": 50,
            "name": "D3",
            "ticks": 10368,
            "time": 34.468064999999996,
            "velocity": 0.5590551181102362
          },
          {
            "duration": 0.31914875000000364,
            "durationTicks": 96,
            "midi": 38,
            "name": "D2",
            "ticks": 10368,
            "time": 34.468064999999996,
            "velocity": 0.5590551181102362
          },
          {
            "duration": 0.31914875000000364,
            "durationTicks": 96,
            "midi": 62,
            "name": "D4",
            "ticks": 10368,
            "time": 34.468064999999996,
            "velocity": 0.5590551181102362
          },
          {
            "duration": 0.31914875000000364,
            "durationTicks": 96,
            "midi": 26,
            "name": "D1",
            "ticks": 10368,
            "time": 34.468064999999996,
            "velocity": 0.5590551181102362
          },
          {
            "duration": 0.4787231250000019,
            "durationTicks": 144,
            "midi": 60,
            "name": "C4",
            "ticks": 10368,
            "time": 34.468064999999996,
            "velocity": 0.5590551181102362
          },
          {
            "duration": 0.31914875000000364,
            "durationTicks": 96,
            "midi": 45,
            "name": "A2",
            "ticks": 10368,
            "time": 34.468064999999996,
            "velocity": 0.5590551181102362
          },
          {
            "duration": 0.31914875000000364,
            "durationTicks": 96,
            "midi": 69,
            "name": "A4",
            "ticks": 10368,
            "time": 34.468064999999996,
            "velocity": 0.5590551181102362
          },
          {
            "duration": 0.31914874999999654,
            "durationTicks": 96,
            "midi": 38,
            "name": "D2",
            "ticks": 10464,
            "time": 34.78721375,
            "velocity": 0.5590551181102362
          },
          {
            "duration": 0.31914874999999654,
            "durationTicks": 96,
            "midi": 45,
            "name": "A2",
            "ticks": 10464,
            "time": 34.78721375,
            "velocity": 0.5590551181102362
          },
          {
            "duration": 0.31914874999999654,
            "durationTicks": 96,
            "midi": 26,
            "name": "D1",
            "ticks": 10464,
            "time": 34.78721375,
            "velocity": 0.5590551181102362
          },
          {
            "duration": 0.31914874999999654,
            "durationTicks": 96,
            "midi": 50,
            "name": "D3",
            "ticks": 10464,
            "time": 34.78721375,
            "velocity": 0.5590551181102362
          },
          {
            "duration": 0.15957437499999827,
            "durationTicks": 48,
            "midi": 74,
            "name": "D5",
            "ticks": 10464,
            "time": 34.78721375,
            "velocity": 0.5590551181102362
          },
          {
            "duration": 0.31914874999999654,
            "durationTicks": 96,
            "midi": 62,
            "name": "D4",
            "ticks": 10464,
            "time": 34.78721375,
            "velocity": 0.5590551181102362
          },
          {
            "duration": 0.15957437499999827,
            "durationTicks": 48,
            "midi": 79,
            "name": "G5",
            "ticks": 10512,
            "time": 34.946788125,
            "velocity": 0.5590551181102362
          },
          {
            "duration": 0.4787231250000019,
            "durationTicks": 144,
            "midi": 59,
            "name": "B3",
            "ticks": 10512,
            "time": 34.946788125,
            "velocity": 0.5590551181102362
          },
          {
            "duration": 0.31914875000000364,
            "durationTicks": 96,
            "midi": 45,
            "name": "A2",
            "ticks": 10560,
            "time": 35.106362499999996,
            "velocity": 0.5590551181102362
          },
          {
            "duration": 0.31914875000000364,
            "durationTicks": 96,
            "midi": 50,
            "name": "D3",
            "ticks": 10560,
            "time": 35.106362499999996,
            "velocity": 0.5590551181102362
          },
          {
            "duration": 0.31914875000000364,
            "durationTicks": 96,
            "midi": 26,
            "name": "D1",
            "ticks": 10560,
            "time": 35.106362499999996,
            "velocity": 0.5590551181102362
          },
          {
            "duration": 0.31914875000000364,
            "durationTicks": 96,
            "midi": 62,
            "name": "D4",
            "ticks": 10560,
            "time": 35.106362499999996,
            "velocity": 0.5590551181102362
          },
          {
            "duration": 0.15957437500000538,
            "durationTicks": 48,
            "midi": 78,
            "name": "F#5",
            "ticks": 10560,
            "time": 35.106362499999996,
            "velocity": 0.5590551181102362
          },
          {
            "duration": 0.31914875000000364,
            "durationTicks": 96,
            "midi": 38,
            "name": "D2",
            "ticks": 10560,
            "time": 35.106362499999996,
            "velocity": 0.5590551181102362
          },
          {
            "duration": 0.31914874999999654,
            "durationTicks": 96,
            "midi": 38,
            "name": "D2",
            "ticks": 10656,
            "time": 35.42551125,
            "velocity": 0.5590551181102362
          },
          {
            "duration": 0.31914874999999654,
            "durationTicks": 96,
            "midi": 74,
            "name": "D5",
            "ticks": 10656,
            "time": 35.42551125,
            "velocity": 0.5590551181102362
          },
          {
            "duration": 0.31914874999999654,
            "durationTicks": 96,
            "midi": 62,
            "name": "D4",
            "ticks": 10656,
            "time": 35.42551125,
            "velocity": 0.5590551181102362
          },
          {
            "duration": 0.31914874999999654,
            "durationTicks": 96,
            "midi": 45,
            "name": "A2",
            "ticks": 10656,
            "time": 35.42551125,
            "velocity": 0.5590551181102362
          },
          {
            "duration": 0.31914874999999654,
            "durationTicks": 96,
            "midi": 26,
            "name": "D1",
            "ticks": 10656,
            "time": 35.42551125,
            "velocity": 0.5590551181102362
          },
          {
            "duration": 0.31914874999999654,
            "durationTicks": 96,
            "midi": 50,
            "name": "D3",
            "ticks": 10656,
            "time": 35.42551125,
            "velocity": 0.5590551181102362
          },
          {
            "duration": 0.31914874999999654,
            "durationTicks": 96,
            "midi": 57,
            "name": "A3",
            "ticks": 10656,
            "time": 35.42551125,
            "velocity": 0.5590551181102362
          },
          {
            "duration": 0.31914875000000364,
            "durationTicks": 96,
            "midi": 78,
            "name": "F#5",
            "ticks": 10752,
            "time": 35.744659999999996,
            "velocity": 0.5590551181102362
          },
          {
            "duration": 0.31914875000000364,
            "durationTicks": 96,
            "midi": 50,
            "name": "D3",
            "ticks": 10752,
            "time": 35.744659999999996,
            "velocity": 0.5590551181102362
          },
          {
            "duration": 0.31914875000000364,
            "durationTicks": 96,
            "midi": 38,
            "name": "D2",
            "ticks": 10752,
            "time": 35.744659999999996,
            "velocity": 0.5590551181102362
          },
          {
            "duration": 0.31914875000000364,
            "durationTicks": 96,
            "midi": 62,
            "name": "D4",
            "ticks": 10752,
            "time": 35.744659999999996,
            "velocity": 0.5590551181102362
          },
          {
            "duration": 0.6382975000000002,
            "durationTicks": 192,
            "midi": 62,
            "name": "D4",
            "ticks": 10752,
            "time": 35.744659999999996,
            "velocity": 0.5590551181102362
          },
          {
            "duration": 0.31914875000000364,
            "durationTicks": 96,
            "midi": 26,
            "name": "D1",
            "ticks": 10752,
            "time": 35.744659999999996,
            "velocity": 0.5590551181102362
          },
          {
            "duration": 0.31914875000000364,
            "durationTicks": 96,
            "midi": 45,
            "name": "A2",
            "ticks": 10752,
            "time": 35.744659999999996,
            "velocity": 0.5590551181102362
          },
          {
            "duration": 0.31914874999999654,
            "durationTicks": 96,
            "midi": 74,
            "name": "D5",
            "ticks": 10848,
            "time": 36.06380875,
            "velocity": 0.5590551181102362
          },
          {
            "duration": 0.31914874999999654,
            "durationTicks": 96,
            "midi": 45,
            "name": "A2",
            "ticks": 10848,
            "time": 36.06380875,
            "velocity": 0.5590551181102362
          },
          {
            "duration": 0.31914874999999654,
            "durationTicks": 96,
            "midi": 38,
            "name": "D2",
            "ticks": 10848,
            "time": 36.06380875,
            "velocity": 0.5590551181102362
          },
          {
            "duration": 0.31914874999999654,
            "durationTicks": 96,
            "midi": 50,
            "name": "D3",
            "ticks": 10848,
            "time": 36.06380875,
            "velocity": 0.5590551181102362
          },
          {
            "duration": 0.31914874999999654,
            "durationTicks": 96,
            "midi": 26,
            "name": "D1",
            "ticks": 10848,
            "time": 36.06380875,
            "velocity": 0.5590551181102362
          },
          {
            "duration": 0.6382975000000002,
            "durationTicks": 192,
            "midi": 62,
            "name": "D4",
            "ticks": 10848,
            "time": 36.06380875,
            "velocity": 0.5590551181102362
          },
          {
            "duration": 0.31914875000000364,
            "durationTicks": 96,
            "midi": 38,
            "name": "D2",
            "ticks": 10944,
            "time": 36.382957499999996,
            "velocity": 0.5590551181102362
          },
          {
            "duration": 0.31914875000000364,
            "durationTicks": 96,
            "midi": 62,
            "name": "D4",
            "ticks": 10944,
            "time": 36.382957499999996,
            "velocity": 0.5590551181102362
          },
          {
            "duration": 0.31914875000000364,
            "durationTicks": 96,
            "midi": 50,
            "name": "D3",
            "ticks": 10944,
            "time": 36.382957499999996,
            "velocity": 0.5590551181102362
          },
          {
            "duration": 0.31914875000000364,
            "durationTicks": 96,
            "midi": 26,
            "name": "D1",
            "ticks": 10944,
            "time": 36.382957499999996,
            "velocity": 0.5590551181102362
          },
          {
            "duration": 0.31914875000000364,
            "durationTicks": 96,
            "midi": 45,
            "name": "A2",
            "ticks": 10944,
            "time": 36.382957499999996,
            "velocity": 0.5590551181102362
          },
          {
            "duration": 0.31914875000000364,
            "durationTicks": 96,
            "midi": 69,
            "name": "A4",
            "ticks": 10944,
            "time": 36.382957499999996,
            "velocity": 0.5590551181102362
          },
          {
            "duration": 0.31914874999999654,
            "durationTicks": 96,
            "midi": 38,
            "name": "D2",
            "ticks": 11040,
            "time": 36.70210625,
            "velocity": 0.5590551181102362
          },
          {
            "duration": 0.31914874999999654,
            "durationTicks": 96,
            "midi": 62,
            "name": "D4",
            "ticks": 11040,
            "time": 36.70210625,
            "velocity": 0.5590551181102362
          },
          {
            "duration": 0.31914874999999654,
            "durationTicks": 96,
            "midi": 45,
            "name": "A2",
            "ticks": 11040,
            "time": 36.70210625,
            "velocity": 0.5590551181102362
          },
          {
            "duration": 0.31914874999999654,
            "durationTicks": 96,
            "midi": 50,
            "name": "D3",
            "ticks": 11040,
            "time": 36.70210625,
            "velocity": 0.5590551181102362
          },
          {
            "duration": 0.31914874999999654,
            "durationTicks": 96,
            "midi": 62,
            "name": "D4",
            "ticks": 11040,
            "time": 36.70210625,
            "velocity": 0.5590551181102362
          },
          {
            "duration": 0.31914874999999654,
            "durationTicks": 96,
            "midi": 26,
            "name": "D1",
            "ticks": 11040,
            "time": 36.70210625,
            "velocity": 0.5590551181102362
          },
          {
            "duration": 0.15957437499999827,
            "durationTicks": 48,
            "midi": 74,
            "name": "D5",
            "ticks": 11040,
            "time": 36.70210625,
            "velocity": 0.5590551181102362
          },
          {
            "duration": 0.15957437499999827,
            "durationTicks": 48,
            "midi": 79,
            "name": "G5",
            "ticks": 11088,
            "time": 36.861680625,
            "velocity": 0.5590551181102362
          },
          {
            "duration": 0.31914875000000364,
            "durationTicks": 96,
            "midi": 45,
            "name": "A2",
            "ticks": 11136,
            "time": 37.021255,
            "velocity": 0.5590551181102362
          },
          {
            "duration": 0.4787231250000019,
            "durationTicks": 144,
            "midi": 60,
            "name": "C4",
            "ticks": 11136,
            "time": 37.021255,
            "velocity": 0.5590551181102362
          },
          {
            "duration": 0.31914875000000364,
            "durationTicks": 96,
            "midi": 62,
            "name": "D4",
            "ticks": 11136,
            "time": 37.021255,
            "velocity": 0.5590551181102362
          },
          {
            "duration": 0.31914875000000364,
            "durationTicks": 96,
            "midi": 50,
            "name": "D3",
            "ticks": 11136,
            "time": 37.021255,
            "velocity": 0.5590551181102362
          },
          {
            "duration": 0.31914875000000364,
            "durationTicks": 96,
            "midi": 38,
            "name": "D2",
            "ticks": 11136,
            "time": 37.021255,
            "velocity": 0.5590551181102362
          },
          {
            "duration": 0.31914875000000364,
            "durationTicks": 96,
            "midi": 26,
            "name": "D1",
            "ticks": 11136,
            "time": 37.021255,
            "velocity": 0.5590551181102362
          },
          {
            "duration": 0.15957437499999827,
            "durationTicks": 48,
            "midi": 78,
            "name": "F#5",
            "ticks": 11136,
            "time": 37.021255,
            "velocity": 0.5590551181102362
          },
          {
            "duration": 0.31914874999999654,
            "durationTicks": 96,
            "midi": 26,
            "name": "D1",
            "ticks": 11232,
            "time": 37.34040375,
            "velocity": 0.5590551181102362
          },
          {
            "duration": 0.15957437499999827,
            "durationTicks": 48,
            "midi": 74,
            "name": "D5",
            "ticks": 11232,
            "time": 37.34040375,
            "velocity": 0.5590551181102362
          },
          {
            "duration": 0.31914874999999654,
            "durationTicks": 96,
            "midi": 38,
            "name": "D2",
            "ticks": 11232,
            "time": 37.34040375,
            "velocity": 0.5590551181102362
          },
          {
            "duration": 0.31914874999999654,
            "durationTicks": 96,
            "midi": 62,
            "name": "D4",
            "ticks": 11232,
            "time": 37.34040375,
            "velocity": 0.5590551181102362
          },
          {
            "duration": 0.31914874999999654,
            "durationTicks": 96,
            "midi": 50,
            "name": "D3",
            "ticks": 11232,
            "time": 37.34040375,
            "velocity": 0.5590551181102362
          },
          {
            "duration": 0.31914874999999654,
            "durationTicks": 96,
            "midi": 45,
            "name": "A2",
            "ticks": 11232,
            "time": 37.34040375,
            "velocity": 0.5590551181102362
          },
          {
            "duration": 0.15957437499999827,
            "durationTicks": 48,
            "midi": 69,
            "name": "A4",
            "ticks": 11280,
            "time": 37.499978125,
            "velocity": 0.5590551181102362
          },
          {
            "duration": 0.4787231250000019,
            "durationTicks": 144,
            "midi": 59,
            "name": "B3",
            "ticks": 11280,
            "time": 37.499978125,
            "velocity": 0.5590551181102362
          },
          {
            "duration": 0.31914875000000364,
            "durationTicks": 96,
            "midi": 50,
            "name": "D3",
            "ticks": 11328,
            "time": 37.6595525,
            "velocity": 0.5590551181102362
          },
          {
            "duration": 0.15957437499999827,
            "durationTicks": 48,
            "midi": 79,
            "name": "G5",
            "ticks": 11328,
            "time": 37.6595525,
            "velocity": 0.5590551181102362
          },
          {
            "duration": 0.31914875000000364,
            "durationTicks": 96,
            "midi": 38,
            "name": "D2",
            "ticks": 11328,
            "time": 37.6595525,
            "velocity": 0.5590551181102362
          },
          {
            "duration": 0.31914875000000364,
            "durationTicks": 96,
            "midi": 45,
            "name": "A2",
            "ticks": 11328,
            "time": 37.6595525,
            "velocity": 0.5590551181102362
          },
          {
            "duration": 0.31914875000000364,
            "durationTicks": 96,
            "midi": 62,
            "name": "D4",
            "ticks": 11328,
            "time": 37.6595525,
            "velocity": 0.5590551181102362
          },
          {
            "duration": 0.31914875000000364,
            "durationTicks": 96,
            "midi": 26,
            "name": "D1",
            "ticks": 11328,
            "time": 37.6595525,
            "velocity": 0.5590551181102362
          },
          {
            "duration": 0.15957437500000538,
            "durationTicks": 48,
            "midi": 78,
            "name": "F#5",
            "ticks": 11376,
            "time": 37.819126874999995,
            "velocity": 0.5590551181102362
          },
          {
            "duration": 0.31914874999999654,
            "durationTicks": 96,
            "midi": 26,
            "name": "D1",
            "ticks": 11424,
            "time": 37.97870125,
            "velocity": 0.5590551181102362
          },
          {
            "duration": 0.31914874999999654,
            "durationTicks": 96,
            "midi": 45,
            "name": "A2",
            "ticks": 11424,
            "time": 37.97870125,
            "velocity": 0.5590551181102362
          },
          {
            "duration": 0.31914874999999654,
            "durationTicks": 96,
            "midi": 55,
            "name": "G3",
            "ticks": 11424,
            "time": 37.97870125,
            "velocity": 0.5590551181102362
          },
          {
            "duration": 0.31914874999999654,
            "durationTicks": 96,
            "midi": 38,
            "name": "D2",
            "ticks": 11424,
            "time": 37.97870125,
            "velocity": 0.5590551181102362
          },
          {
            "duration": 0.31914874999999654,
            "durationTicks": 96,
            "midi": 74,
            "name": "D5",
            "ticks": 11424,
            "time": 37.97870125,
            "velocity": 0.5590551181102362
          },
          {
            "duration": 0.31914874999999654,
            "durationTicks": 96,
            "midi": 62,
            "name": "D4",
            "ticks": 11424,
            "time": 37.97870125,
            "velocity": 0.5590551181102362
          },
          {
            "duration": 0.31914874999999654,
            "durationTicks": 96,
            "midi": 50,
            "name": "D3",
            "ticks": 11424,
            "time": 37.97870125,
            "velocity": 0.5590551181102362
          },
          {
            "duration": 0.4787231250000019,
            "durationTicks": 144,
            "midi": 57,
            "name": "A3",
            "ticks": 11520,
            "time": 38.29785,
            "velocity": 0.5590551181102362
          },
          {
            "duration": 0.31914875000000364,
            "durationTicks": 96,
            "midi": 50,
            "name": "D3",
            "ticks": 11520,
            "time": 38.29785,
            "velocity": 0.5590551181102362
          },
          {
            "duration": 0.31914875000000364,
            "durationTicks": 96,
            "midi": 26,
            "name": "D1",
            "ticks": 11520,
            "time": 38.29785,
            "velocity": 0.5590551181102362
          },
          {
            "duration": 0.31914875000000364,
            "durationTicks": 96,
            "midi": 38,
            "name": "D2",
            "ticks": 11520,
            "time": 38.29785,
            "velocity": 0.5590551181102362
          },
          {
            "duration": 0.31914875000000364,
            "durationTicks": 96,
            "midi": 69,
            "name": "A4",
            "ticks": 11520,
            "time": 38.29785,
            "velocity": 0.5590551181102362
          },
          {
            "duration": 0.31914875000000364,
            "durationTicks": 96,
            "midi": 62,
            "name": "D4",
            "ticks": 11520,
            "time": 38.29785,
            "velocity": 0.5590551181102362
          },
          {
            "duration": 0.31914875000000364,
            "durationTicks": 96,
            "midi": 45,
            "name": "A2",
            "ticks": 11520,
            "time": 38.29785,
            "velocity": 0.5590551181102362
          },
          {
            "duration": 0.31914874999999654,
            "durationTicks": 96,
            "midi": 26,
            "name": "D1",
            "ticks": 11616,
            "time": 38.61699875,
            "velocity": 0.5590551181102362
          },
          {
            "duration": 0.31914874999999654,
            "durationTicks": 96,
            "midi": 50,
            "name": "D3",
            "ticks": 11616,
            "time": 38.61699875,
            "velocity": 0.5590551181102362
          },
          {
            "duration": 0.15957437499999827,
            "durationTicks": 48,
            "midi": 74,
            "name": "D5",
            "ticks": 11616,
            "time": 38.61699875,
            "velocity": 0.5590551181102362
          },
          {
            "duration": 0.31914874999999654,
            "durationTicks": 96,
            "midi": 45,
            "name": "A2",
            "ticks": 11616,
            "time": 38.61699875,
            "velocity": 0.5590551181102362
          },
          {
            "duration": 0.31914874999999654,
            "durationTicks": 96,
            "midi": 38,
            "name": "D2",
            "ticks": 11616,
            "time": 38.61699875,
            "velocity": 0.5590551181102362
          },
          {
            "duration": 0.31914874999999654,
            "durationTicks": 96,
            "midi": 62,
            "name": "D4",
            "ticks": 11616,
            "time": 38.61699875,
            "velocity": 0.5590551181102362
          },
          {
            "duration": 0.4787231250000019,
            "durationTicks": 144,
            "midi": 59,
            "name": "B3",
            "ticks": 11664,
            "time": 38.776573125,
            "velocity": 0.5590551181102362
          },
          {
            "duration": 0.15957437499999827,
            "durationTicks": 48,
            "midi": 79,
            "name": "G5",
            "ticks": 11664,
            "time": 38.776573125,
            "velocity": 0.5590551181102362
          },
          {
            "duration": 0.31914875000000364,
            "durationTicks": 96,
            "midi": 26,
            "name": "D1",
            "ticks": 11712,
            "time": 38.9361475,
            "velocity": 0.5590551181102362
          },
          {
            "duration": 0.31914875000000364,
            "durationTicks": 96,
            "midi": 38,
            "name": "D2",
            "ticks": 11712,
            "time": 38.9361475,
            "velocity": 0.5590551181102362
          },
          {
            "duration": 0.15957437499999827,
            "durationTicks": 48,
            "midi": 78,
            "name": "F#5",
            "ticks": 11712,
            "time": 38.9361475,
            "velocity": 0.5590551181102362
          },
          {
            "duration": 0.31914875000000364,
            "durationTicks": 96,
            "midi": 62,
            "name": "D4",
            "ticks": 11712,
            "time": 38.9361475,
            "velocity": 0.5590551181102362
          },
          {
            "duration": 0.31914875000000364,
            "durationTicks": 96,
            "midi": 45,
            "name": "A2",
            "ticks": 11712,
            "time": 38.9361475,
            "velocity": 0.5590551181102362
          },
          {
            "duration": 0.31914875000000364,
            "durationTicks": 96,
            "midi": 50,
            "name": "D3",
            "ticks": 11712,
            "time": 38.9361475,
            "velocity": 0.5590551181102362
          },
          {
            "duration": 0.31914874999999654,
            "durationTicks": 96,
            "midi": 38,
            "name": "D2",
            "ticks": 11808,
            "time": 39.25529625,
            "velocity": 0.5590551181102362
          },
          {
            "duration": 0.31914874999999654,
            "durationTicks": 96,
            "midi": 50,
            "name": "D3",
            "ticks": 11808,
            "time": 39.25529625,
            "velocity": 0.5590551181102362
          },
          {
            "duration": 0.31914874999999654,
            "durationTicks": 96,
            "midi": 60,
            "name": "C4",
            "ticks": 11808,
            "time": 39.25529625,
            "velocity": 0.5590551181102362
          },
          {
            "duration": 0.31914874999999654,
            "durationTicks": 96,
            "midi": 45,
            "name": "A2",
            "ticks": 11808,
            "time": 39.25529625,
            "velocity": 0.5590551181102362
          },
          {
            "duration": 0.15957437499999827,
            "durationTicks": 48,
            "midi": 74,
            "name": "D5",
            "ticks": 11808,
            "time": 39.25529625,
            "velocity": 0.5590551181102362
          },
          {
            "duration": 0.31914874999999654,
            "durationTicks": 96,
            "midi": 62,
            "name": "D4",
            "ticks": 11808,
            "time": 39.25529625,
            "velocity": 0.5590551181102362
          },
          {
            "duration": 0.31914874999999654,
            "durationTicks": 96,
            "midi": 26,
            "name": "D1",
            "ticks": 11808,
            "time": 39.25529625,
            "velocity": 0.5590551181102362
          },
          {
            "duration": 0.15957437499999827,
            "durationTicks": 48,
            "midi": 69,
            "name": "A4",
            "ticks": 11856,
            "time": 39.414870625,
            "velocity": 0.5590551181102362
          },
          {
            "duration": 0.4787231250000019,
            "durationTicks": 144,
            "midi": 60,
            "name": "C4",
            "ticks": 11904,
            "time": 39.574445,
            "velocity": 0.5590551181102362
          },
          {
            "duration": 0.31914875000000364,
            "durationTicks": 96,
            "midi": 26,
            "name": "D1",
            "ticks": 11904,
            "time": 39.574445,
            "velocity": 0.5590551181102362
          },
          {
            "duration": 0.31914875000000364,
            "durationTicks": 96,
            "midi": 38,
            "name": "D2",
            "ticks": 11904,
            "time": 39.574445,
            "velocity": 0.5590551181102362
          },
          {
            "duration": 0.31914875000000364,
            "durationTicks": 96,
            "midi": 50,
            "name": "D3",
            "ticks": 11904,
            "time": 39.574445,
            "velocity": 0.5590551181102362
          },
          {
            "duration": 0.31914875000000364,
            "durationTicks": 96,
            "midi": 62,
            "name": "D4",
            "ticks": 11904,
            "time": 39.574445,
            "velocity": 0.5590551181102362
          },
          {
            "duration": 0.31914875000000364,
            "durationTicks": 96,
            "midi": 45,
            "name": "A2",
            "ticks": 11904,
            "time": 39.574445,
            "velocity": 0.5590551181102362
          },
          {
            "duration": 0.15957437499999827,
            "durationTicks": 48,
            "midi": 79,
            "name": "G5",
            "ticks": 11904,
            "time": 39.574445,
            "velocity": 0.5590551181102362
          },
          {
            "duration": 0.15957437500000538,
            "durationTicks": 48,
            "midi": 78,
            "name": "F#5",
            "ticks": 11952,
            "time": 39.734019374999995,
            "velocity": 0.5590551181102362
          },
          {
            "duration": 0.31914874999999654,
            "durationTicks": 96,
            "midi": 50,
            "name": "D3",
            "ticks": 12000,
            "time": 39.89359375,
            "velocity": 0.5590551181102362
          },
          {
            "duration": 0.31914874999999654,
            "durationTicks": 96,
            "midi": 26,
            "name": "D1",
            "ticks": 12000,
            "time": 39.89359375,
            "velocity": 0.5590551181102362
          },
          {
            "duration": 0.31914874999999654,
            "durationTicks": 96,
            "midi": 38,
            "name": "D2",
            "ticks": 12000,
            "time": 39.89359375,
            "velocity": 0.5590551181102362
          },
          {
            "duration": 0.31914874999999654,
            "durationTicks": 96,
            "midi": 62,
            "name": "D4",
            "ticks": 12000,
            "time": 39.89359375,
            "velocity": 0.5590551181102362
          },
          {
            "duration": 0.31914874999999654,
            "durationTicks": 96,
            "midi": 45,
            "name": "A2",
            "ticks": 12000,
            "time": 39.89359375,
            "velocity": 0.5590551181102362
          },
          {
            "duration": 0.31914874999999654,
            "durationTicks": 96,
            "midi": 74,
            "name": "D5",
            "ticks": 12000,
            "time": 39.89359375,
            "velocity": 0.5590551181102362
          },
          {
            "duration": 0.4787231250000019,
            "durationTicks": 144,
            "midi": 59,
            "name": "B3",
            "ticks": 12048,
            "time": 40.053168125,
            "velocity": 0.5590551181102362
          },
          {
            "duration": 0.15957437499999827,
            "durationTicks": 48,
            "midi": 79,
            "name": "G5",
            "ticks": 12096,
            "time": 40.2127425,
            "velocity": 0.5590551181102362
          },
          {
            "duration": 0.31914875000000364,
            "durationTicks": 96,
            "midi": 45,
            "name": "A2",
            "ticks": 12096,
            "time": 40.2127425,
            "velocity": 0.5590551181102362
          },
          {
            "duration": 0.31914875000000364,
            "durationTicks": 96,
            "midi": 62,
            "name": "D4",
            "ticks": 12096,
            "time": 40.2127425,
            "velocity": 0.5590551181102362
          },
          {
            "duration": 0.31914875000000364,
            "durationTicks": 96,
            "midi": 26,
            "name": "D1",
            "ticks": 12096,
            "time": 40.2127425,
            "velocity": 0.5590551181102362
          },
          {
            "duration": 0.31914875000000364,
            "durationTicks": 96,
            "midi": 38,
            "name": "D2",
            "ticks": 12096,
            "time": 40.2127425,
            "velocity": 0.5590551181102362
          },
          {
            "duration": 0.31914875000000364,
            "durationTicks": 96,
            "midi": 50,
            "name": "D3",
            "ticks": 12096,
            "time": 40.2127425,
            "velocity": 0.5590551181102362
          },
          {
            "duration": 0.15957437500000538,
            "durationTicks": 48,
            "midi": 78,
            "name": "F#5",
            "ticks": 12144,
            "time": 40.372316874999996,
            "velocity": 0.5590551181102362
          },
          {
            "duration": 0.31914874999999654,
            "durationTicks": 96,
            "midi": 74,
            "name": "D5",
            "ticks": 12192,
            "time": 40.53189125,
            "velocity": 0.5590551181102362
          },
          {
            "duration": 0.31914874999999654,
            "durationTicks": 96,
            "midi": 57,
            "name": "A3",
            "ticks": 12192,
            "time": 40.53189125,
            "velocity": 0.5590551181102362
          },
          {
            "duration": 0.31914874999999654,
            "durationTicks": 96,
            "midi": 45,
            "name": "A2",
            "ticks": 12192,
            "time": 40.53189125,
            "velocity": 0.5590551181102362
          },
          {
            "duration": 0.31914874999999654,
            "durationTicks": 96,
            "midi": 62,
            "name": "D4",
            "ticks": 12192,
            "time": 40.53189125,
            "velocity": 0.5590551181102362
          },
          {
            "duration": 0.31914874999999654,
            "durationTicks": 96,
            "midi": 38,
            "name": "D2",
            "ticks": 12192,
            "time": 40.53189125,
            "velocity": 0.5590551181102362
          },
          {
            "duration": 0.31914874999999654,
            "durationTicks": 96,
            "midi": 26,
            "name": "D1",
            "ticks": 12192,
            "time": 40.53189125,
            "velocity": 0.5590551181102362
          },
          {
            "duration": 0.31914874999999654,
            "durationTicks": 96,
            "midi": 50,
            "name": "D3",
            "ticks": 12192,
            "time": 40.53189125,
            "velocity": 0.5590551181102362
          },
          {
            "duration": 7.659570000000002,
            "durationTicks": 2304,
            "midi": 55,
            "name": "G3",
            "ticks": 12288,
            "time": 40.85104,
            "velocity": 0.5590551181102362
          },
          {
            "duration": 7.659570000000002,
            "durationTicks": 2304,
            "midi": 62,
            "name": "D4",
            "ticks": 12288,
            "time": 40.85104,
            "velocity": 0.5590551181102362
          },
          {
            "duration": 7.659570000000002,
            "durationTicks": 2304,
            "midi": 67,
            "name": "G4",
            "ticks": 12288,
            "time": 40.85104,
            "velocity": 0.5590551181102362
          },
          {
            "duration": 7.659570000000002,
            "durationTicks": 2304,
            "midi": 50,
            "name": "D3",
            "ticks": 12288,
            "time": 40.85104,
            "velocity": 0.5590551181102362
          },
          {
            "duration": 7.659570000000002,
            "durationTicks": 2304,
            "midi": 43,
            "name": "G2",
            "ticks": 12288,
            "time": 40.85104,
            "velocity": 0.5590551181102362
          }
        ],
        "endOfTrackTicks": 14592
      },
      {
        "channel": 8,
        "controlChanges": {},
        "pitchBends": [],
        "instrument": {
          "family": "piano",
          "number": 0,
          "name": "acoustic grand piano"
        },
        "name": "Electric Piano",
        "notes": [
          {
            "duration": 0.9574462499999967,
            "durationTicks": 288,
            "midi": 67,
            "name": "G4",
            "ticks": 13824,
            "time": 45.95742,
            "velocity": 0.3937007874015748
          },
          {
            "duration": 0.31914875000000364,
            "durationTicks": 96,
            "midi": 67,
            "name": "G4",
            "ticks": 14112,
            "time": 46.914866249999996,
            "velocity": 0.3937007874015748
          },
          {
            "duration": 0.9574462499999967,
            "durationTicks": 288,
            "midi": 74,
            "name": "D5",
            "ticks": 14208,
            "time": 47.234015,
            "velocity": 0.3937007874015748
          },
          {
            "duration": 0.31914875000000364,
            "durationTicks": 96,
            "midi": 79,
            "name": "G5",
            "ticks": 14496,
            "time": 48.191461249999996,
            "velocity": 0.3937007874015748
          },
          {
            "duration": 0.6382975000000002,
            "durationTicks": 192,
            "midi": 78,
            "name": "F#5",
            "ticks": 14592,
            "time": 48.51061,
            "velocity": 0.3937007874015748
          },
          {
            "duration": 0.6382975000000002,
            "durationTicks": 192,
            "midi": 74,
            "name": "D5",
            "ticks": 14784,
            "time": 49.1489075,
            "velocity": 0.3937007874015748
          }
        ],
        "endOfTrackTicks": 14976
      }
    ]
  }
