{
  "header": {
    "keySignatures": [],
    "meta": [],
    "name": "",
    "ppq": 384,
    "tempos": [
      {
        "bpm": 40,
        "ticks": 0
      }
    ],
    "timeSignatures": [
      {
        "ticks": 0,
        "timeSignature": [
          1,
          4
        ],
        "measures": 0
      }
    ]
  },
  "tracks": [
    {
      "channel": 0,
      "controlChanges": {},
      "pitchBends": [],
      "instrument": {
        "family": "piano",
        "number": 0,
        "name": "acoustic grand piano"
      },
      "name": "Grand Piano (Classic)",
      "notes": [
        {
          "duration": 0.375,
          "durationTicks": 96,
          "midi": 84,
          "name": "C6",
          "ticks": 0,
          "time": 0,
          "velocity": 0.3937007874015748
        },
        {
          "duration": 0.375,
          "durationTicks": 96,
          "midi": 61,
          "name": "C#4",
          "ticks": 0,
          "time": 0,
          "velocity": 0.3937007874015748
        },
        {
          "duration": 0.375,
          "durationTicks": 96,
          "midi": 77,
          "name": "F5",
          "ticks": 96,
          "time": 0.375,
          "velocity": 0.3937007874015748
        },
        {
          "duration": 0.375,
          "durationTicks": 96,
          "midi": 82,
          "name": "A#5",
          "ticks": 192,
          "time": 0.75,
          "velocity": 0.3937007874015748
        },
        {
          "duration": 0.375,
          "durationTicks": 96,
          "midi": 75,
          "name": "D#5",
          "ticks": 288,
          "time": 1.125,
          "velocity": 0.3937007874015748
        },
        {
          "duration": 0.375,
          "durationTicks": 96,
          "midi": 77,
          "name": "F5",
          "ticks": 384,
          "time": 1.5,
          "velocity": 0.3937007874015748
        },
        {
          "duration": 0.375,
          "durationTicks": 96,
          "midi": 72,
          "name": "C5",
          "ticks": 480,
          "time": 1.875,
          "velocity": 0.3937007874015748
        },
        {
          "duration": 0.375,
          "durationTicks": 96,
          "midi": 84,
          "name": "C6",
          "ticks": 576,
          "time": 2.25,
          "velocity": 0.3937007874015748
        },
        {
          "duration": 0.375,
          "durationTicks": 96,
          "midi": 61,
          "name": "C#4",
          "ticks": 576,
          "time": 2.25,
          "velocity": 0.3937007874015748
        },
        {
          "duration": 0.375,
          "durationTicks": 96,
          "midi": 77,
          "name": "F5",
          "ticks": 672,
          "time": 2.625,
          "velocity": 0.3937007874015748
        },
        {
          "duration": 0.375,
          "durationTicks": 96,
          "midi": 82,
          "name": "A#5",
          "ticks": 768,
          "time": 3,
          "velocity": 0.3937007874015748
        },
        {
          "duration": 0.375,
          "durationTicks": 96,
          "midi": 75,
          "name": "D#5",
          "ticks": 864,
          "time": 3.375,
          "velocity": 0.3937007874015748
        },
        {
          "duration": 0.375,
          "durationTicks": 96,
          "midi": 77,
          "name": "F5",
          "ticks": 960,
          "time": 3.75,
          "velocity": 0.3937007874015748
        },
        {
          "duration": 0.375,
          "durationTicks": 96,
          "midi": 72,
          "name": "C5",
          "ticks": 1056,
          "time": 4.125,
          "velocity": 0.3937007874015748
        },
        {
          "duration": 0.375,
          "durationTicks": 96,
          "midi": 84,
          "name": "C6",
          "ticks": 1152,
          "time": 4.5,
          "velocity": 0.3937007874015748
        },
        {
          "duration": 0.375,
          "durationTicks": 96,
          "midi": 61,
          "name": "C#4",
          "ticks": 1152,
          "time": 4.5,
          "velocity": 0.3937007874015748
        },
        {
          "duration": 0.375,
          "durationTicks": 96,
          "midi": 77,
          "name": "F5",
          "ticks": 1248,
          "time": 4.875,
          "velocity": 0.3937007874015748
        },
        {
          "duration": 0.375,
          "durationTicks": 96,
          "midi": 82,
          "name": "A#5",
          "ticks": 1344,
          "time": 5.25,
          "velocity": 0.3937007874015748
        },
        {
          "duration": 0.375,
          "durationTicks": 96,
          "midi": 75,
          "name": "D#5",
          "ticks": 1440,
          "time": 5.625,
          "velocity": 0.3937007874015748
        },
        {
          "duration": 0.375,
          "durationTicks": 96,
          "midi": 77,
          "name": "F5",
          "ticks": 1536,
          "time": 6,
          "velocity": 0.3937007874015748
        },
        {
          "duration": 0.375,
          "durationTicks": 96,
          "midi": 72,
          "name": "C5",
          "ticks": 1632,
          "time": 6.375,
          "velocity": 0.3937007874015748
        },
        {
          "duration": 0.375,
          "durationTicks": 96,
          "midi": 84,
          "name": "C6",
          "ticks": 1728,
          "time": 6.75,
          "velocity": 0.3937007874015748
        },
        {
          "duration": 0.375,
          "durationTicks": 96,
          "midi": 61,
          "name": "C#4",
          "ticks": 1728,
          "time": 6.75,
          "velocity": 0.3937007874015748
        },
        {
          "duration": 0.375,
          "durationTicks": 96,
          "midi": 77,
          "name": "F5",
          "ticks": 1824,
          "time": 7.125,
          "velocity": 0.3937007874015748
        },
        {
          "duration": 0.375,
          "durationTicks": 96,
          "midi": 82,
          "name": "A#5",
          "ticks": 1920,
          "time": 7.5,
          "velocity": 0.3937007874015748
        },
        {
          "duration": 0.375,
          "durationTicks": 96,
          "midi": 75,
          "name": "D#5",
          "ticks": 2016,
          "time": 7.875,
          "velocity": 0.3937007874015748
        },
        {
          "duration": 0.375,
          "durationTicks": 96,
          "midi": 77,
          "name": "F5",
          "ticks": 2112,
          "time": 8.25,
          "velocity": 0.3937007874015748
        },
        {
          "duration": 0.375,
          "durationTicks": 96,
          "midi": 72,
          "name": "C5",
          "ticks": 2208,
          "time": 8.625,
          "velocity": 0.3937007874015748
        },
        {
          "duration": 0.375,
          "durationTicks": 96,
          "midi": 82,
          "name": "A#5",
          "ticks": 2304,
          "time": 9,
          "velocity": 0.3937007874015748
        },
        {
          "duration": 0.375,
          "durationTicks": 96,
          "midi": 60,
          "name": "C4",
          "ticks": 2304,
          "time": 9,
          "velocity": 0.3937007874015748
        },
        {
          "duration": 0.375,
          "durationTicks": 96,
          "midi": 77,
          "name": "F5",
          "ticks": 2400,
          "time": 9.375,
          "velocity": 0.3937007874015748
        },
        {
          "duration": 0.375,
          "durationTicks": 96,
          "midi": 79,
          "name": "G5",
          "ticks": 2496,
          "time": 9.75,
          "velocity": 0.3937007874015748
        },
        {
          "duration": 0.375,
          "durationTicks": 96,
          "midi": 75,
          "name": "D#5",
          "ticks": 2592,
          "time": 10.125,
          "velocity": 0.3937007874015748
        },
        {
          "duration": 0.375,
          "durationTicks": 96,
          "midi": 77,
          "name": "F5",
          "ticks": 2688,
          "time": 10.5,
          "velocity": 0.3937007874015748
        },
        {
          "duration": 0.375,
          "durationTicks": 96,
          "midi": 72,
          "name": "C5",
          "ticks": 2784,
          "time": 10.875,
          "velocity": 0.3937007874015748
        },
        {
          "duration": 0.375,
          "durationTicks": 96,
          "midi": 60,
          "name": "C4",
          "ticks": 2880,
          "time": 11.25,
          "velocity": 0.3937007874015748
        },
        {
          "duration": 0.375,
          "durationTicks": 96,
          "midi": 82,
          "name": "A#5",
          "ticks": 2880,
          "time": 11.25,
          "velocity": 0.3937007874015748
        },
        {
          "duration": 0.375,
          "durationTicks": 96,
          "midi": 77,
          "name": "F5",
          "ticks": 2976,
          "time": 11.625,
          "velocity": 0.3937007874015748
        },
        {
          "duration": 0.375,
          "durationTicks": 96,
          "midi": 79,
          "name": "G5",
          "ticks": 3072,
          "time": 12,
          "velocity": 0.3937007874015748
        },
        {
          "duration": 0.375,
          "durationTicks": 96,
          "midi": 75,
          "name": "D#5",
          "ticks": 3168,
          "time": 12.375,
          "velocity": 0.3937007874015748
        },
        {
          "duration": 0.375,
          "durationTicks": 96,
          "midi": 77,
          "name": "F5",
          "ticks": 3264,
          "time": 12.75,
          "velocity": 0.3937007874015748
        },
        {
          "duration": 0.375,
          "durationTicks": 96,
          "midi": 72,
          "name": "C5",
          "ticks": 3360,
          "time": 13.125,
          "velocity": 0.3937007874015748
        },
        {
          "duration": 0.375,
          "durationTicks": 96,
          "midi": 60,
          "name": "C4",
          "ticks": 3456,
          "time": 13.5,
          "velocity": 0.3937007874015748
        },
        {
          "duration": 0.375,
          "durationTicks": 96,
          "midi": 82,
          "name": "A#5",
          "ticks": 3456,
          "time": 13.5,
          "velocity": 0.3937007874015748
        },
        {
          "duration": 0.375,
          "durationTicks": 96,
          "midi": 77,
          "name": "F5",
          "ticks": 3552,
          "time": 13.875,
          "velocity": 0.3937007874015748
        },
        {
          "duration": 0.375,
          "durationTicks": 96,
          "midi": 79,
          "name": "G5",
          "ticks": 3648,
          "time": 14.25,
          "velocity": 0.3937007874015748
        },
        {
          "duration": 0.375,
          "durationTicks": 96,
          "midi": 75,
          "name": "D#5",
          "ticks": 3744,
          "time": 14.625,
          "velocity": 0.3937007874015748
        },
        {
          "duration": 0.375,
          "durationTicks": 96,
          "midi": 77,
          "name": "F5",
          "ticks": 3840,
          "time": 15,
          "velocity": 0.3937007874015748
        },
        {
          "duration": 0.375,
          "durationTicks": 96,
          "midi": 72,
          "name": "C5",
          "ticks": 3936,
          "time": 15.375,
          "velocity": 0.3937007874015748
        },
        {
          "duration": 0.375,
          "durationTicks": 96,
          "midi": 60,
          "name": "C4",
          "ticks": 4032,
          "time": 15.75,
          "velocity": 0.3937007874015748
        },
        {
          "duration": 0.375,
          "durationTicks": 96,
          "midi": 82,
          "name": "A#5",
          "ticks": 4032,
          "time": 15.75,
          "velocity": 0.3937007874015748
        },
        {
          "duration": 0.375,
          "durationTicks": 96,
          "midi": 77,
          "name": "F5",
          "ticks": 4128,
          "time": 16.125,
          "velocity": 0.3937007874015748
        },
        {
          "duration": 0.375,
          "durationTicks": 96,
          "midi": 79,
          "name": "G5",
          "ticks": 4224,
          "time": 16.5,
          "velocity": 0.3937007874015748
        },
        {
          "duration": 0.375,
          "durationTicks": 96,
          "midi": 75,
          "name": "D#5",
          "ticks": 4320,
          "time": 16.875,
          "velocity": 0.3937007874015748
        },
        {
          "duration": 0.375,
          "durationTicks": 96,
          "midi": 77,
          "name": "F5",
          "ticks": 4416,
          "time": 17.25,
          "velocity": 0.3937007874015748
        },
        {
          "duration": 0.375,
          "durationTicks": 96,
          "midi": 72,
          "name": "C5",
          "ticks": 4512,
          "time": 17.625,
          "velocity": 0.3937007874015748
        },
        {
          "duration": 0.375,
          "durationTicks": 96,
          "midi": 61,
          "name": "C#4",
          "ticks": 4608,
          "time": 18,
          "velocity": 0.3937007874015748
        },
        {
          "duration": 0.375,
          "durationTicks": 96,
          "midi": 84,
          "name": "C6",
          "ticks": 4608,
          "time": 18,
          "velocity": 0.3937007874015748
        },
        {
          "duration": 0.375,
          "durationTicks": 96,
          "midi": 77,
          "name": "F5",
          "ticks": 4704,
          "time": 18.375,
          "velocity": 0.3937007874015748
        },
        {
          "duration": 0.375,
          "durationTicks": 96,
          "midi": 82,
          "name": "A#5",
          "ticks": 4800,
          "time": 18.75,
          "velocity": 0.3937007874015748
        },
        {
          "duration": 0.375,
          "durationTicks": 96,
          "midi": 75,
          "name": "D#5",
          "ticks": 4896,
          "time": 19.125,
          "velocity": 0.3937007874015748
        },
        {
          "duration": 0.375,
          "durationTicks": 96,
          "midi": 77,
          "name": "F5",
          "ticks": 4992,
          "time": 19.5,
          "velocity": 0.3937007874015748
        },
        {
          "duration": 0.375,
          "durationTicks": 96,
          "midi": 72,
          "name": "C5",
          "ticks": 5088,
          "time": 19.875,
          "velocity": 0.3937007874015748
        },
        {
          "duration": 0.375,
          "durationTicks": 96,
          "midi": 61,
          "name": "C#4",
          "ticks": 5184,
          "time": 20.25,
          "velocity": 0.3937007874015748
        },
        {
          "duration": 0.375,
          "durationTicks": 96,
          "midi": 84,
          "name": "C6",
          "ticks": 5184,
          "time": 20.25,
          "velocity": 0.3937007874015748
        },
        {
          "duration": 0.375,
          "durationTicks": 96,
          "midi": 77,
          "name": "F5",
          "ticks": 5280,
          "time": 20.625,
          "velocity": 0.3937007874015748
        },
        {
          "duration": 0.375,
          "durationTicks": 96,
          "midi": 82,
          "name": "A#5",
          "ticks": 5376,
          "time": 21,
          "velocity": 0.3937007874015748
        },
        {
          "duration": 0.375,
          "durationTicks": 96,
          "midi": 75,
          "name": "D#5",
          "ticks": 5472,
          "time": 21.375,
          "velocity": 0.3937007874015748
        },
        {
          "duration": 0.375,
          "durationTicks": 96,
          "midi": 77,
          "name": "F5",
          "ticks": 5568,
          "time": 21.75,
          "velocity": 0.3937007874015748
        },
        {
          "duration": 0.375,
          "durationTicks": 96,
          "midi": 72,
          "name": "C5",
          "ticks": 5664,
          "time": 22.125,
          "velocity": 0.3937007874015748
        },
        {
          "duration": 0.375,
          "durationTicks": 96,
          "midi": 61,
          "name": "C#4",
          "ticks": 5760,
          "time": 22.5,
          "velocity": 0.3937007874015748
        },
        {
          "duration": 0.375,
          "durationTicks": 96,
          "midi": 84,
          "name": "C6",
          "ticks": 5760,
          "time": 22.5,
          "velocity": 0.3937007874015748
        },
        {
          "duration": 0.375,
          "durationTicks": 96,
          "midi": 77,
          "name": "F5",
          "ticks": 5856,
          "time": 22.875,
          "velocity": 0.3937007874015748
        },
        {
          "duration": 0.375,
          "durationTicks": 96,
          "midi": 82,
          "name": "A#5",
          "ticks": 5952,
          "time": 23.25,
          "velocity": 0.3937007874015748
        },
        {
          "duration": 0.375,
          "durationTicks": 96,
          "midi": 75,
          "name": "D#5",
          "ticks": 6048,
          "time": 23.625,
          "velocity": 0.3937007874015748
        },
        {
          "duration": 0.375,
          "durationTicks": 96,
          "midi": 77,
          "name": "F5",
          "ticks": 6144,
          "time": 24,
          "velocity": 0.3937007874015748
        },
        {
          "duration": 0.375,
          "durationTicks": 96,
          "midi": 72,
          "name": "C5",
          "ticks": 6240,
          "time": 24.375,
          "velocity": 0.3937007874015748
        },
        {
          "duration": 0.375,
          "durationTicks": 96,
          "midi": 61,
          "name": "C#4",
          "ticks": 6336,
          "time": 24.75,
          "velocity": 0.3937007874015748
        },
        {
          "duration": 0.375,
          "durationTicks": 96,
          "midi": 84,
          "name": "C6",
          "ticks": 6336,
          "time": 24.75,
          "velocity": 0.3937007874015748
        },
        {
          "duration": 0.375,
          "durationTicks": 96,
          "midi": 77,
          "name": "F5",
          "ticks": 6432,
          "time": 25.125,
          "velocity": 0.3937007874015748
        },
        {
          "duration": 0.375,
          "durationTicks": 96,
          "midi": 82,
          "name": "A#5",
          "ticks": 6528,
          "time": 25.5,
          "velocity": 0.3937007874015748
        },
        {
          "duration": 0.375,
          "durationTicks": 96,
          "midi": 75,
          "name": "D#5",
          "ticks": 6624,
          "time": 25.875,
          "velocity": 0.3937007874015748
        },
        {
          "duration": 0.375,
          "durationTicks": 96,
          "midi": 77,
          "name": "F5",
          "ticks": 6720,
          "time": 26.25,
          "velocity": 0.3937007874015748
        },
        {
          "duration": 0.375,
          "durationTicks": 96,
          "midi": 72,
          "name": "C5",
          "ticks": 6816,
          "time": 26.625,
          "velocity": 0.3937007874015748
        },
        {
          "duration": 0.375,
          "durationTicks": 96,
          "midi": 84,
          "name": "C6",
          "ticks": 6912,
          "time": 27,
          "velocity": 0.3937007874015748
        },
        {
          "duration": 0.375,
          "durationTicks": 96,
          "midi": 63,
          "name": "D#4",
          "ticks": 6912,
          "time": 27,
          "velocity": 0.3937007874015748
        },
        {
          "duration": 0.375,
          "durationTicks": 96,
          "midi": 77,
          "name": "F5",
          "ticks": 7008,
          "time": 27.375,
          "velocity": 0.3937007874015748
        },
        {
          "duration": 0.375,
          "durationTicks": 96,
          "midi": 82,
          "name": "A#5",
          "ticks": 7104,
          "time": 27.75,
          "velocity": 0.3937007874015748
        },
        {
          "duration": 0.375,
          "durationTicks": 96,
          "midi": 77,
          "name": "F5",
          "ticks": 7200,
          "time": 28.125,
          "velocity": 0.3937007874015748
        },
        {
          "duration": 0.375,
          "durationTicks": 96,
          "midi": 79,
          "name": "G5",
          "ticks": 7296,
          "time": 28.5,
          "velocity": 0.3937007874015748
        },
        {
          "duration": 0.375,
          "durationTicks": 96,
          "midi": 75,
          "name": "D#5",
          "ticks": 7392,
          "time": 28.875,
          "velocity": 0.3937007874015748
        },
        {
          "duration": 0.375,
          "durationTicks": 96,
          "midi": 84,
          "name": "C6",
          "ticks": 7488,
          "time": 29.25,
          "velocity": 0.3937007874015748
        },
        {
          "duration": 0.375,
          "durationTicks": 96,
          "midi": 63,
          "name": "D#4",
          "ticks": 7488,
          "time": 29.25,
          "velocity": 0.3937007874015748
        },
        {
          "duration": 0.375,
          "durationTicks": 96,
          "midi": 77,
          "name": "F5",
          "ticks": 7584,
          "time": 29.625,
          "velocity": 0.3937007874015748
        },
        {
          "duration": 0.375,
          "durationTicks": 96,
          "midi": 82,
          "name": "A#5",
          "ticks": 7680,
          "time": 30,
          "velocity": 0.3937007874015748
        },
        {
          "duration": 0.375,
          "durationTicks": 96,
          "midi": 77,
          "name": "F5",
          "ticks": 7776,
          "time": 30.375,
          "velocity": 0.3937007874015748
        },
        {
          "duration": 0.375,
          "durationTicks": 96,
          "midi": 79,
          "name": "G5",
          "ticks": 7872,
          "time": 30.75,
          "velocity": 0.3937007874015748
        },
        {
          "duration": 0.375,
          "durationTicks": 96,
          "midi": 75,
          "name": "D#5",
          "ticks": 7968,
          "time": 31.125,
          "velocity": 0.3937007874015748
        },
        {
          "duration": 0.375,
          "durationTicks": 96,
          "midi": 81,
          "name": "A5",
          "ticks": 8064,
          "time": 31.5,
          "velocity": 0.3937007874015748
        },
        {
          "duration": 0.375,
          "durationTicks": 96,
          "midi": 65,
          "name": "F4",
          "ticks": 8064,
          "time": 31.5,
          "velocity": 0.3937007874015748
        },
        {
          "duration": 0.375,
          "durationTicks": 96,
          "midi": 72,
          "name": "C5",
          "ticks": 8160,
          "time": 31.875,
          "velocity": 0.3937007874015748
        },
        {
          "duration": 0.375,
          "durationTicks": 96,
          "midi": 77,
          "name": "F5",
          "ticks": 8256,
          "time": 32.25,
          "velocity": 0.3937007874015748
        },
        {
          "duration": 0.375,
          "durationTicks": 96,
          "midi": 79,
          "name": "G5",
          "ticks": 8352,
          "time": 32.625,
          "velocity": 0.3937007874015748
        },
        {
          "duration": 0.375,
          "durationTicks": 96,
          "midi": 82,
          "name": "A#5",
          "ticks": 8448,
          "time": 33,
          "velocity": 0.3937007874015748
        },
        {
          "duration": 0.375,
          "durationTicks": 96,
          "midi": 81,
          "name": "A5",
          "ticks": 8544,
          "time": 33.375,
          "velocity": 0.3937007874015748
        },
        {
          "duration": 0.375,
          "durationTicks": 96,
          "midi": 77,
          "name": "F5",
          "ticks": 8640,
          "time": 33.75,
          "velocity": 0.3937007874015748
        },
        {
          "duration": 0.375,
          "durationTicks": 96,
          "midi": 65,
          "name": "F4",
          "ticks": 8640,
          "time": 33.75,
          "velocity": 0.3937007874015748
        },
        {
          "duration": 0.375,
          "durationTicks": 96,
          "midi": 69,
          "name": "A4",
          "ticks": 8736,
          "time": 34.125,
          "velocity": 0.3937007874015748
        },
        {
          "duration": 0.375,
          "durationTicks": 96,
          "midi": 45,
          "name": "A2",
          "ticks": 8736,
          "time": 34.125,
          "velocity": 0.3937007874015748
        },
        {
          "duration": 0.375,
          "durationTicks": 96,
          "midi": 70,
          "name": "A#4",
          "ticks": 8832,
          "time": 34.5,
          "velocity": 0.3937007874015748
        },
        {
          "duration": 0.375,
          "durationTicks": 96,
          "midi": 46,
          "name": "A#2",
          "ticks": 8832,
          "time": 34.5,
          "velocity": 0.3937007874015748
        },
        {
          "duration": 0.375,
          "durationTicks": 96,
          "midi": 45,
          "name": "A2",
          "ticks": 8928,
          "time": 34.875,
          "velocity": 0.3937007874015748
        },
        {
          "duration": 0.375,
          "durationTicks": 96,
          "midi": 69,
          "name": "A4",
          "ticks": 8928,
          "time": 34.875,
          "velocity": 0.3937007874015748
        },
        {
          "duration": 0.375,
          "durationTicks": 96,
          "midi": 70,
          "name": "A#4",
          "ticks": 9024,
          "time": 35.25,
          "velocity": 0.3937007874015748
        },
        {
          "duration": 0.375,
          "durationTicks": 96,
          "midi": 46,
          "name": "A#2",
          "ticks": 9024,
          "time": 35.25,
          "velocity": 0.3937007874015748
        },
        {
          "duration": 0.375,
          "durationTicks": 96,
          "midi": 77,
          "name": "F5",
          "ticks": 9120,
          "time": 35.625,
          "velocity": 0.3937007874015748
        },
        {
          "duration": 0.375,
          "durationTicks": 96,
          "midi": 53,
          "name": "F3",
          "ticks": 9120,
          "time": 35.625,
          "velocity": 0.3937007874015748
        },
        {
          "duration": 0.375,
          "durationTicks": 96,
          "midi": 44,
          "name": "G#2",
          "ticks": 9216,
          "time": 36,
          "velocity": 0.3937007874015748
        },
        {
          "duration": 0.375,
          "durationTicks": 96,
          "midi": 29,
          "name": "F1",
          "ticks": 9216,
          "time": 36,
          "velocity": 0.3937007874015748
        },
        {
          "duration": 0.375,
          "durationTicks": 96,
          "midi": 37,
          "name": "C#2",
          "ticks": 9216,
          "time": 36,
          "velocity": 0.3937007874015748
        },
        {
          "duration": 0.375,
          "durationTicks": 96,
          "midi": 72,
          "name": "C5",
          "ticks": 9216,
          "time": 36,
          "velocity": 0.3937007874015748
        },
        {
          "duration": 0.375,
          "durationTicks": 96,
          "midi": 65,
          "name": "F4",
          "ticks": 9216,
          "time": 36,
          "velocity": 0.3937007874015748
        },
        {
          "duration": 0.375,
          "durationTicks": 96,
          "midi": 53,
          "name": "F3",
          "ticks": 9312,
          "time": 36.375,
          "velocity": 0.3937007874015748
        },
        {
          "duration": 0.375,
          "durationTicks": 96,
          "midi": 68,
          "name": "G#4",
          "ticks": 9408,
          "time": 36.75,
          "velocity": 0.3937007874015748
        },
        {
          "duration": 0.375,
          "durationTicks": 96,
          "midi": 56,
          "name": "G#3",
          "ticks": 9408,
          "time": 36.75,
          "velocity": 0.3937007874015748
        },
        {
          "duration": 0.375,
          "durationTicks": 96,
          "midi": 77,
          "name": "F5",
          "ticks": 9408,
          "time": 36.75,
          "velocity": 0.3937007874015748
        },
        {
          "duration": 0.375,
          "durationTicks": 96,
          "midi": 51,
          "name": "D#3",
          "ticks": 9504,
          "time": 37.125,
          "velocity": 0.3937007874015748
        },
        {
          "duration": 0.375,
          "durationTicks": 96,
          "midi": 53,
          "name": "F3",
          "ticks": 9600,
          "time": 37.5,
          "velocity": 0.3937007874015748
        },
        {
          "duration": 0.375,
          "durationTicks": 96,
          "midi": 72,
          "name": "C5",
          "ticks": 9600,
          "time": 37.5,
          "velocity": 0.3937007874015748
        },
        {
          "duration": 0.375,
          "durationTicks": 96,
          "midi": 80,
          "name": "G#5",
          "ticks": 9600,
          "time": 37.5,
          "velocity": 0.3937007874015748
        },
        {
          "duration": 0.375,
          "durationTicks": 96,
          "midi": 48,
          "name": "C3",
          "ticks": 9696,
          "time": 37.875,
          "velocity": 0.3937007874015748
        },
        {
          "duration": 0.375,
          "durationTicks": 96,
          "midi": 44,
          "name": "G#2",
          "ticks": 9792,
          "time": 38.25,
          "velocity": 0.3937007874015748
        },
        {
          "duration": 0.375,
          "durationTicks": 96,
          "midi": 68,
          "name": "G#4",
          "ticks": 9792,
          "time": 38.25,
          "velocity": 0.3937007874015748
        },
        {
          "duration": 0.375,
          "durationTicks": 96,
          "midi": 37,
          "name": "C#2",
          "ticks": 9792,
          "time": 38.25,
          "velocity": 0.3937007874015748
        },
        {
          "duration": 0.375,
          "durationTicks": 96,
          "midi": 77,
          "name": "F5",
          "ticks": 9792,
          "time": 38.25,
          "velocity": 0.3937007874015748
        },
        {
          "duration": 0.375,
          "durationTicks": 96,
          "midi": 53,
          "name": "F3",
          "ticks": 9888,
          "time": 38.625,
          "velocity": 0.3937007874015748
        },
        {
          "duration": 0.375,
          "durationTicks": 96,
          "midi": 56,
          "name": "G#3",
          "ticks": 9984,
          "time": 39,
          "velocity": 0.3937007874015748
        },
        {
          "duration": 0.375,
          "durationTicks": 96,
          "midi": 51,
          "name": "D#3",
          "ticks": 10080,
          "time": 39.375,
          "velocity": 0.3937007874015748
        },
        {
          "duration": 0.375,
          "durationTicks": 96,
          "midi": 53,
          "name": "F3",
          "ticks": 10176,
          "time": 39.75,
          "velocity": 0.3937007874015748
        },
        {
          "duration": 0.375,
          "durationTicks": 96,
          "midi": 79,
          "name": "G5",
          "ticks": 10176,
          "time": 39.75,
          "velocity": 0.3937007874015748
        },
        {
          "duration": 0.375,
          "durationTicks": 96,
          "midi": 70,
          "name": "A#4",
          "ticks": 10176,
          "time": 39.75,
          "velocity": 0.3937007874015748
        },
        {
          "duration": 0.375,
          "durationTicks": 96,
          "midi": 48,
          "name": "C3",
          "ticks": 10272,
          "time": 40.125,
          "velocity": 0.3937007874015748
        },
        {
          "duration": 0.375,
          "durationTicks": 96,
          "midi": 80,
          "name": "G#5",
          "ticks": 10272,
          "time": 40.125,
          "velocity": 0.3937007874015748
        },
        {
          "duration": 0.375,
          "durationTicks": 96,
          "midi": 72,
          "name": "C5",
          "ticks": 10272,
          "time": 40.125,
          "velocity": 0.3937007874015748
        },
        {
          "duration": 0.375,
          "durationTicks": 96,
          "midi": 39,
          "name": "D#2",
          "ticks": 10368,
          "time": 40.5,
          "velocity": 0.3937007874015748
        },
        {
          "duration": 0.375,
          "durationTicks": 96,
          "midi": 46,
          "name": "A#2",
          "ticks": 10368,
          "time": 40.5,
          "velocity": 0.3937007874015748
        },
        {
          "duration": 0.375,
          "durationTicks": 96,
          "midi": 75,
          "name": "D#5",
          "ticks": 10368,
          "time": 40.5,
          "velocity": 0.3937007874015748
        },
        {
          "duration": 0.375,
          "durationTicks": 96,
          "midi": 82,
          "name": "A#5",
          "ticks": 10368,
          "time": 40.5,
          "velocity": 0.3937007874015748
        },
        {
          "duration": 0.375,
          "durationTicks": 96,
          "midi": 53,
          "name": "F3",
          "ticks": 10464,
          "time": 40.875,
          "velocity": 0.3937007874015748
        },
        {
          "duration": 0.375,
          "durationTicks": 96,
          "midi": 55,
          "name": "G3",
          "ticks": 10560,
          "time": 41.25,
          "velocity": 0.3937007874015748
        },
        {
          "duration": 0.375,
          "durationTicks": 96,
          "midi": 51,
          "name": "D#3",
          "ticks": 10656,
          "time": 41.625,
          "velocity": 0.3937007874015748
        },
        {
          "duration": 0.375,
          "durationTicks": 96,
          "midi": 53,
          "name": "F3",
          "ticks": 10752,
          "time": 42,
          "velocity": 0.3937007874015748
        },
        {
          "duration": 0.375,
          "durationTicks": 96,
          "midi": 48,
          "name": "C3",
          "ticks": 10848,
          "time": 42.375,
          "velocity": 0.3937007874015748
        },
        {
          "duration": 0.375,
          "durationTicks": 96,
          "midi": 39,
          "name": "D#2",
          "ticks": 10944,
          "time": 42.75,
          "velocity": 0.3937007874015748
        },
        {
          "duration": 0.375,
          "durationTicks": 96,
          "midi": 46,
          "name": "A#2",
          "ticks": 10944,
          "time": 42.75,
          "velocity": 0.3937007874015748
        },
        {
          "duration": 0.375,
          "durationTicks": 96,
          "midi": 53,
          "name": "F3",
          "ticks": 11040,
          "time": 43.125,
          "velocity": 0.3937007874015748
        },
        {
          "duration": 0.375,
          "durationTicks": 96,
          "midi": 55,
          "name": "G3",
          "ticks": 11136,
          "time": 43.5,
          "velocity": 0.3937007874015748
        },
        {
          "duration": 0.375,
          "durationTicks": 96,
          "midi": 79,
          "name": "G5",
          "ticks": 11136,
          "time": 43.5,
          "velocity": 0.3937007874015748
        },
        {
          "duration": 0.375,
          "durationTicks": 96,
          "midi": 72,
          "name": "C5",
          "ticks": 11136,
          "time": 43.5,
          "velocity": 0.3937007874015748
        },
        {
          "duration": 0.375,
          "durationTicks": 96,
          "midi": 75,
          "name": "D#5",
          "ticks": 11232,
          "time": 43.875,
          "velocity": 0.3937007874015748
        },
        {
          "duration": 0.375,
          "durationTicks": 96,
          "midi": 80,
          "name": "G#5",
          "ticks": 11232,
          "time": 43.875,
          "velocity": 0.3937007874015748
        },
        {
          "duration": 0.375,
          "durationTicks": 96,
          "midi": 51,
          "name": "D#3",
          "ticks": 11232,
          "time": 43.875,
          "velocity": 0.3937007874015748
        },
        {
          "duration": 0.375,
          "durationTicks": 96,
          "midi": 53,
          "name": "F3",
          "ticks": 11328,
          "time": 44.25,
          "velocity": 0.3937007874015748
        },
        {
          "duration": 0.375,
          "durationTicks": 96,
          "midi": 82,
          "name": "A#5",
          "ticks": 11328,
          "time": 44.25,
          "velocity": 0.3937007874015748
        },
        {
          "duration": 0.375,
          "durationTicks": 96,
          "midi": 77,
          "name": "F5",
          "ticks": 11328,
          "time": 44.25,
          "velocity": 0.3937007874015748
        },
        {
          "duration": 0.375,
          "durationTicks": 96,
          "midi": 79,
          "name": "G5",
          "ticks": 11424,
          "time": 44.625,
          "velocity": 0.3937007874015748
        },
        {
          "duration": 0.375,
          "durationTicks": 96,
          "midi": 84,
          "name": "C6",
          "ticks": 11424,
          "time": 44.625,
          "velocity": 0.3937007874015748
        },
        {
          "duration": 0.375,
          "durationTicks": 96,
          "midi": 48,
          "name": "C3",
          "ticks": 11424,
          "time": 44.625,
          "velocity": 0.3937007874015748
        },
        {
          "duration": 0.375,
          "durationTicks": 96,
          "midi": 79,
          "name": "G5",
          "ticks": 11520,
          "time": 45,
          "velocity": 0.3937007874015748
        },
        {
          "duration": 0.375,
          "durationTicks": 96,
          "midi": 41,
          "name": "F2",
          "ticks": 11520,
          "time": 45,
          "velocity": 0.3937007874015748
        },
        {
          "duration": 0.375,
          "durationTicks": 96,
          "midi": 48,
          "name": "C3",
          "ticks": 11520,
          "time": 45,
          "velocity": 0.3937007874015748
        },
        {
          "duration": 0.375,
          "durationTicks": 96,
          "midi": 72,
          "name": "C5",
          "ticks": 11520,
          "time": 45,
          "velocity": 0.3937007874015748
        },
        {
          "duration": 0.375,
          "durationTicks": 96,
          "midi": 58,
          "name": "A#3",
          "ticks": 11616,
          "time": 45.375,
          "velocity": 0.3937007874015748
        },
        {
          "duration": 0.375,
          "durationTicks": 96,
          "midi": 60,
          "name": "C4",
          "ticks": 11712,
          "time": 45.75,
          "velocity": 0.3937007874015748
        },
        {
          "duration": 0.375,
          "durationTicks": 96,
          "midi": 55,
          "name": "G3",
          "ticks": 11808,
          "time": 46.125,
          "velocity": 0.3937007874015748
        },
        {
          "duration": 0.375,
          "durationTicks": 96,
          "midi": 51,
          "name": "D#3",
          "ticks": 11904,
          "time": 46.5,
          "velocity": 0.3937007874015748
        },
        {
          "duration": 0.375,
          "durationTicks": 96,
          "midi": 55,
          "name": "G3",
          "ticks": 12000,
          "time": 46.875,
          "velocity": 0.3937007874015748
        },
        {
          "duration": 0.375,
          "durationTicks": 96,
          "midi": 41,
          "name": "F2",
          "ticks": 12096,
          "time": 47.25,
          "velocity": 0.3937007874015748
        },
        {
          "duration": 0.375,
          "durationTicks": 96,
          "midi": 48,
          "name": "C3",
          "ticks": 12096,
          "time": 47.25,
          "velocity": 0.3937007874015748
        },
        {
          "duration": 0.375,
          "durationTicks": 96,
          "midi": 58,
          "name": "A#3",
          "ticks": 12192,
          "time": 47.625,
          "velocity": 0.3937007874015748
        },
        {
          "duration": 0.375,
          "durationTicks": 96,
          "midi": 60,
          "name": "C4",
          "ticks": 12288,
          "time": 48,
          "velocity": 0.3937007874015748
        },
        {
          "duration": 0.375,
          "durationTicks": 96,
          "midi": 55,
          "name": "G3",
          "ticks": 12384,
          "time": 48.375,
          "velocity": 0.3937007874015748
        },
        {
          "duration": 0.375,
          "durationTicks": 96,
          "midi": 51,
          "name": "D#3",
          "ticks": 12480,
          "time": 48.75,
          "velocity": 0.3937007874015748
        },
        {
          "duration": 0.375,
          "durationTicks": 96,
          "midi": 55,
          "name": "G3",
          "ticks": 12576,
          "time": 49.125,
          "velocity": 0.3937007874015748
        },
        {
          "duration": 0.375,
          "durationTicks": 96,
          "midi": 53,
          "name": "F3",
          "ticks": 12672,
          "time": 49.5,
          "velocity": 0.3937007874015748
        },
        {
          "duration": 0.375,
          "durationTicks": 96,
          "midi": 72,
          "name": "C5",
          "ticks": 12672,
          "time": 49.5,
          "velocity": 0.3937007874015748
        },
        {
          "duration": 0.375,
          "durationTicks": 96,
          "midi": 79,
          "name": "G5",
          "ticks": 12672,
          "time": 49.5,
          "velocity": 0.3937007874015748
        },
        {
          "duration": 0.375,
          "durationTicks": 96,
          "midi": 48,
          "name": "C3",
          "ticks": 12672,
          "time": 49.5,
          "velocity": 0.3937007874015748
        },
        {
          "duration": 0.375,
          "durationTicks": 96,
          "midi": 58,
          "name": "A#3",
          "ticks": 12768,
          "time": 49.875,
          "velocity": 0.3937007874015748
        },
        {
          "duration": 0.375,
          "durationTicks": 96,
          "midi": 60,
          "name": "C4",
          "ticks": 12864,
          "time": 50.25,
          "velocity": 0.3937007874015748
        },
        {
          "duration": 0.375,
          "durationTicks": 96,
          "midi": 58,
          "name": "A#3",
          "ticks": 12960,
          "time": 50.625,
          "velocity": 0.3937007874015748
        },
        {
          "duration": 0.375,
          "durationTicks": 96,
          "midi": 53,
          "name": "F3",
          "ticks": 13056,
          "time": 51,
          "velocity": 0.3937007874015748
        },
        {
          "duration": 0.375,
          "durationTicks": 96,
          "midi": 77,
          "name": "F5",
          "ticks": 13056,
          "time": 51,
          "velocity": 0.3937007874015748
        },
        {
          "duration": 0.375,
          "durationTicks": 96,
          "midi": 58,
          "name": "A#3",
          "ticks": 13152,
          "time": 51.375,
          "velocity": 0.3937007874015748
        },
        {
          "duration": 0.375,
          "durationTicks": 96,
          "midi": 72,
          "name": "C5",
          "ticks": 13248,
          "time": 51.75,
          "velocity": 0.3937007874015748
        },
        {
          "duration": 0.375,
          "durationTicks": 96,
          "midi": 48,
          "name": "C3",
          "ticks": 13248,
          "time": 51.75,
          "velocity": 0.3937007874015748
        },
        {
          "duration": 0.375,
          "durationTicks": 96,
          "midi": 69,
          "name": "A4",
          "ticks": 13248,
          "time": 51.75,
          "velocity": 0.3937007874015748
        },
        {
          "duration": 0.375,
          "durationTicks": 96,
          "midi": 53,
          "name": "F3",
          "ticks": 13248,
          "time": 51.75,
          "velocity": 0.3937007874015748
        },
        {
          "duration": 0.375,
          "durationTicks": 96,
          "midi": 41,
          "name": "F2",
          "ticks": 13248,
          "time": 51.75,
          "velocity": 0.3937007874015748
        },
        {
          "duration": 0.375,
          "durationTicks": 96,
          "midi": 55,
          "name": "G3",
          "ticks": 13344,
          "time": 52.125,
          "velocity": 0.3937007874015748
        },
        {
          "duration": 0.375,
          "durationTicks": 96,
          "midi": 57,
          "name": "A3",
          "ticks": 13440,
          "time": 52.5,
          "velocity": 0.3937007874015748
        },
        {
          "duration": 0.375,
          "durationTicks": 96,
          "midi": 55,
          "name": "G3",
          "ticks": 13536,
          "time": 52.875,
          "velocity": 0.3937007874015748
        },
        {
          "duration": 0.375,
          "durationTicks": 96,
          "midi": 67,
          "name": "G4",
          "ticks": 13632,
          "time": 53.25,
          "velocity": 0.3937007874015748
        },
        {
          "duration": 0.375,
          "durationTicks": 96,
          "midi": 53,
          "name": "F3",
          "ticks": 13632,
          "time": 53.25,
          "velocity": 0.3937007874015748
        },
        {
          "duration": 0.375,
          "durationTicks": 96,
          "midi": 46,
          "name": "A#2",
          "ticks": 13632,
          "time": 53.25,
          "velocity": 0.3937007874015748
        },
        {
          "duration": 0.375,
          "durationTicks": 96,
          "midi": 39,
          "name": "D#2",
          "ticks": 13632,
          "time": 53.25,
          "velocity": 0.3937007874015748
        },
        {
          "duration": 0.375,
          "durationTicks": 96,
          "midi": 55,
          "name": "G3",
          "ticks": 13728,
          "time": 53.625,
          "velocity": 0.3937007874015748
        },
        {
          "duration": 0.375,
          "durationTicks": 96,
          "midi": 44,
          "name": "G#2",
          "ticks": 13824,
          "time": 54,
          "velocity": 0.3937007874015748
        },
        {
          "duration": 0.375,
          "durationTicks": 96,
          "midi": 72,
          "name": "C5",
          "ticks": 13824,
          "time": 54,
          "velocity": 0.3937007874015748
        },
        {
          "duration": 0.375,
          "durationTicks": 96,
          "midi": 65,
          "name": "F4",
          "ticks": 13824,
          "time": 54,
          "velocity": 0.3937007874015748
        },
        {
          "duration": 0.375,
          "durationTicks": 96,
          "midi": 29,
          "name": "F1",
          "ticks": 13824,
          "time": 54,
          "velocity": 0.3937007874015748
        },
        {
          "duration": 0.375,
          "durationTicks": 96,
          "midi": 37,
          "name": "C#2",
          "ticks": 13824,
          "time": 54,
          "velocity": 0.3937007874015748
        },
        {
          "duration": 0.375,
          "durationTicks": 96,
          "midi": 53,
          "name": "F3",
          "ticks": 13920,
          "time": 54.375,
          "velocity": 0.3937007874015748
        },
        {
          "duration": 0.375,
          "durationTicks": 96,
          "midi": 77,
          "name": "F5",
          "ticks": 14016,
          "time": 54.75,
          "velocity": 0.3937007874015748
        },
        {
          "duration": 0.375,
          "durationTicks": 96,
          "midi": 68,
          "name": "G#4",
          "ticks": 14016,
          "time": 54.75,
          "velocity": 0.3937007874015748
        },
        {
          "duration": 0.375,
          "durationTicks": 96,
          "midi": 56,
          "name": "G#3",
          "ticks": 14016,
          "time": 54.75,
          "velocity": 0.3937007874015748
        },
        {
          "duration": 0.375,
          "durationTicks": 96,
          "midi": 51,
          "name": "D#3",
          "ticks": 14112,
          "time": 55.125,
          "velocity": 0.3937007874015748
        },
        {
          "duration": 0.375,
          "durationTicks": 96,
          "midi": 80,
          "name": "G#5",
          "ticks": 14208,
          "time": 55.5,
          "velocity": 0.3937007874015748
        },
        {
          "duration": 0.375,
          "durationTicks": 96,
          "midi": 72,
          "name": "C5",
          "ticks": 14208,
          "time": 55.5,
          "velocity": 0.3937007874015748
        },
        {
          "duration": 0.375,
          "durationTicks": 96,
          "midi": 53,
          "name": "F3",
          "ticks": 14208,
          "time": 55.5,
          "velocity": 0.3937007874015748
        },
        {
          "duration": 0.375,
          "durationTicks": 96,
          "midi": 48,
          "name": "C3",
          "ticks": 14304,
          "time": 55.875,
          "velocity": 0.3937007874015748
        },
        {
          "duration": 0.375,
          "durationTicks": 96,
          "midi": 77,
          "name": "F5",
          "ticks": 14400,
          "time": 56.25,
          "velocity": 0.3937007874015748
        },
        {
          "duration": 0.375,
          "durationTicks": 96,
          "midi": 37,
          "name": "C#2",
          "ticks": 14400,
          "time": 56.25,
          "velocity": 0.3937007874015748
        },
        {
          "duration": 0.375,
          "durationTicks": 96,
          "midi": 68,
          "name": "G#4",
          "ticks": 14400,
          "time": 56.25,
          "velocity": 0.3937007874015748
        },
        {
          "duration": 0.375,
          "durationTicks": 96,
          "midi": 44,
          "name": "G#2",
          "ticks": 14400,
          "time": 56.25,
          "velocity": 0.3937007874015748
        },
        {
          "duration": 0.375,
          "durationTicks": 96,
          "midi": 53,
          "name": "F3",
          "ticks": 14496,
          "time": 56.625,
          "velocity": 0.3937007874015748
        },
        {
          "duration": 0.375,
          "durationTicks": 96,
          "midi": 56,
          "name": "G#3",
          "ticks": 14592,
          "time": 57,
          "velocity": 0.3937007874015748
        },
        {
          "duration": 0.375,
          "durationTicks": 96,
          "midi": 51,
          "name": "D#3",
          "ticks": 14688,
          "time": 57.375,
          "velocity": 0.3937007874015748
        },
        {
          "duration": 0.375,
          "durationTicks": 96,
          "midi": 70,
          "name": "A#4",
          "ticks": 14784,
          "time": 57.75,
          "velocity": 0.3937007874015748
        },
        {
          "duration": 0.375,
          "durationTicks": 96,
          "midi": 53,
          "name": "F3",
          "ticks": 14784,
          "time": 57.75,
          "velocity": 0.3937007874015748
        },
        {
          "duration": 0.375,
          "durationTicks": 96,
          "midi": 79,
          "name": "G5",
          "ticks": 14784,
          "time": 57.75,
          "velocity": 0.3937007874015748
        },
        {
          "duration": 0.375,
          "durationTicks": 96,
          "midi": 72,
          "name": "C5",
          "ticks": 14880,
          "time": 58.125,
          "velocity": 0.3937007874015748
        },
        {
          "duration": 0.375,
          "durationTicks": 96,
          "midi": 80,
          "name": "G#5",
          "ticks": 14880,
          "time": 58.125,
          "velocity": 0.3937007874015748
        },
        {
          "duration": 0.375,
          "durationTicks": 96,
          "midi": 48,
          "name": "C3",
          "ticks": 14880,
          "time": 58.125,
          "velocity": 0.3937007874015748
        },
        {
          "duration": 0.375,
          "durationTicks": 96,
          "midi": 46,
          "name": "A#2",
          "ticks": 14976,
          "time": 58.5,
          "velocity": 0.3937007874015748
        },
        {
          "duration": 0.375,
          "durationTicks": 96,
          "midi": 39,
          "name": "D#2",
          "ticks": 14976,
          "time": 58.5,
          "velocity": 0.3937007874015748
        },
        {
          "duration": 0.375,
          "durationTicks": 96,
          "midi": 75,
          "name": "D#5",
          "ticks": 14976,
          "time": 58.5,
          "velocity": 0.3937007874015748
        },
        {
          "duration": 0.375,
          "durationTicks": 96,
          "midi": 82,
          "name": "A#5",
          "ticks": 14976,
          "time": 58.5,
          "velocity": 0.3937007874015748
        },
        {
          "duration": 0.375,
          "durationTicks": 96,
          "midi": 53,
          "name": "F3",
          "ticks": 15072,
          "time": 58.875,
          "velocity": 0.3937007874015748
        },
        {
          "duration": 0.375,
          "durationTicks": 96,
          "midi": 55,
          "name": "G3",
          "ticks": 15168,
          "time": 59.25,
          "velocity": 0.3937007874015748
        },
        {
          "duration": 0.375,
          "durationTicks": 96,
          "midi": 51,
          "name": "D#3",
          "ticks": 15264,
          "time": 59.625,
          "velocity": 0.3937007874015748
        },
        {
          "duration": 0.375,
          "durationTicks": 96,
          "midi": 53,
          "name": "F3",
          "ticks": 15360,
          "time": 60,
          "velocity": 0.3937007874015748
        },
        {
          "duration": 0.375,
          "durationTicks": 96,
          "midi": 48,
          "name": "C3",
          "ticks": 15456,
          "time": 60.375,
          "velocity": 0.3937007874015748
        },
        {
          "duration": 0.375,
          "durationTicks": 96,
          "midi": 46,
          "name": "A#2",
          "ticks": 15552,
          "time": 60.75,
          "velocity": 0.3937007874015748
        },
        {
          "duration": 0.375,
          "durationTicks": 96,
          "midi": 39,
          "name": "D#2",
          "ticks": 15552,
          "time": 60.75,
          "velocity": 0.3937007874015748
        },
        {
          "duration": 0.375,
          "durationTicks": 96,
          "midi": 53,
          "name": "F3",
          "ticks": 15648,
          "time": 61.125,
          "velocity": 0.3937007874015748
        },
        {
          "duration": 0.375,
          "durationTicks": 96,
          "midi": 79,
          "name": "G5",
          "ticks": 15744,
          "time": 61.5,
          "velocity": 0.3937007874015748
        },
        {
          "duration": 0.375,
          "durationTicks": 96,
          "midi": 55,
          "name": "G3",
          "ticks": 15744,
          "time": 61.5,
          "velocity": 0.3937007874015748
        },
        {
          "duration": 0.375,
          "durationTicks": 96,
          "midi": 72,
          "name": "C5",
          "ticks": 15744,
          "time": 61.5,
          "velocity": 0.3937007874015748
        },
        {
          "duration": 0.375,
          "durationTicks": 96,
          "midi": 51,
          "name": "D#3",
          "ticks": 15840,
          "time": 61.875,
          "velocity": 0.3937007874015748
        },
        {
          "duration": 0.375,
          "durationTicks": 96,
          "midi": 80,
          "name": "G#5",
          "ticks": 15840,
          "time": 61.875,
          "velocity": 0.3937007874015748
        },
        {
          "duration": 0.375,
          "durationTicks": 96,
          "midi": 75,
          "name": "D#5",
          "ticks": 15840,
          "time": 61.875,
          "velocity": 0.3937007874015748
        },
        {
          "duration": 0.375,
          "durationTicks": 96,
          "midi": 53,
          "name": "F3",
          "ticks": 15936,
          "time": 62.25,
          "velocity": 0.3937007874015748
        },
        {
          "duration": 0.375,
          "durationTicks": 96,
          "midi": 82,
          "name": "A#5",
          "ticks": 15936,
          "time": 62.25,
          "velocity": 0.3937007874015748
        },
        {
          "duration": 0.375,
          "durationTicks": 96,
          "midi": 77,
          "name": "F5",
          "ticks": 15936,
          "time": 62.25,
          "velocity": 0.3937007874015748
        },
        {
          "duration": 0.375,
          "durationTicks": 96,
          "midi": 79,
          "name": "G5",
          "ticks": 16032,
          "time": 62.625,
          "velocity": 0.3937007874015748
        },
        {
          "duration": 0.375,
          "durationTicks": 96,
          "midi": 48,
          "name": "C3",
          "ticks": 16032,
          "time": 62.625,
          "velocity": 0.3937007874015748
        },
        {
          "duration": 0.375,
          "durationTicks": 96,
          "midi": 84,
          "name": "C6",
          "ticks": 16032,
          "time": 62.625,
          "velocity": 0.3937007874015748
        },
        {
          "duration": 0.375,
          "durationTicks": 96,
          "midi": 82,
          "name": "A#5",
          "ticks": 16128,
          "time": 63,
          "velocity": 0.3937007874015748
        },
        {
          "duration": 0.375,
          "durationTicks": 96,
          "midi": 87,
          "name": "D#6",
          "ticks": 16128,
          "time": 63,
          "velocity": 0.3937007874015748
        },
        {
          "duration": 0.375,
          "durationTicks": 96,
          "midi": 79,
          "name": "G5",
          "ticks": 16128,
          "time": 63,
          "velocity": 0.3937007874015748
        },
        {
          "duration": 0.375,
          "durationTicks": 96,
          "midi": 41,
          "name": "F2",
          "ticks": 16128,
          "time": 63,
          "velocity": 0.3937007874015748
        },
        {
          "duration": 0.375,
          "durationTicks": 96,
          "midi": 48,
          "name": "C3",
          "ticks": 16128,
          "time": 63,
          "velocity": 0.3937007874015748
        },
        {
          "duration": 0.375,
          "durationTicks": 96,
          "midi": 58,
          "name": "A#3",
          "ticks": 16224,
          "time": 63.375,
          "velocity": 0.3937007874015748
        },
        {
          "duration": 0.375,
          "durationTicks": 96,
          "midi": 60,
          "name": "C4",
          "ticks": 16320,
          "time": 63.75,
          "velocity": 0.3937007874015748
        },
        {
          "duration": 0.375,
          "durationTicks": 96,
          "midi": 55,
          "name": "G3",
          "ticks": 16416,
          "time": 64.125,
          "velocity": 0.3937007874015748
        },
        {
          "duration": 0.375,
          "durationTicks": 96,
          "midi": 51,
          "name": "D#3",
          "ticks": 16512,
          "time": 64.5,
          "velocity": 0.3937007874015748
        },
        {
          "duration": 0.375,
          "durationTicks": 96,
          "midi": 55,
          "name": "G3",
          "ticks": 16608,
          "time": 64.875,
          "velocity": 0.3937007874015748
        },
        {
          "duration": 0.375,
          "durationTicks": 96,
          "midi": 48,
          "name": "C3",
          "ticks": 16704,
          "time": 65.25,
          "velocity": 0.3937007874015748
        },
        {
          "duration": 0.375,
          "durationTicks": 96,
          "midi": 41,
          "name": "F2",
          "ticks": 16704,
          "time": 65.25,
          "velocity": 0.3937007874015748
        },
        {
          "duration": 0.375,
          "durationTicks": 96,
          "midi": 58,
          "name": "A#3",
          "ticks": 16800,
          "time": 65.625,
          "velocity": 0.3937007874015748
        },
        {
          "duration": 0.375,
          "durationTicks": 96,
          "midi": 60,
          "name": "C4",
          "ticks": 16896,
          "time": 66,
          "velocity": 0.3937007874015748
        },
        {
          "duration": 0.375,
          "durationTicks": 96,
          "midi": 55,
          "name": "G3",
          "ticks": 16992,
          "time": 66.375,
          "velocity": 0.3937007874015748
        },
        {
          "duration": 0.375,
          "durationTicks": 96,
          "midi": 79,
          "name": "G5",
          "ticks": 17088,
          "time": 66.75,
          "velocity": 0.3937007874015748
        },
        {
          "duration": 0.375,
          "durationTicks": 96,
          "midi": 82,
          "name": "A#5",
          "ticks": 17088,
          "time": 66.75,
          "velocity": 0.3937007874015748
        },
        {
          "duration": 0.375,
          "durationTicks": 96,
          "midi": 87,
          "name": "D#6",
          "ticks": 17088,
          "time": 66.75,
          "velocity": 0.3937007874015748
        },
        {
          "duration": 0.375,
          "durationTicks": 96,
          "midi": 51,
          "name": "D#3",
          "ticks": 17088,
          "time": 66.75,
          "velocity": 0.3937007874015748
        },
        {
          "duration": 0.375,
          "durationTicks": 96,
          "midi": 55,
          "name": "G3",
          "ticks": 17184,
          "time": 67.125,
          "velocity": 0.3937007874015748
        },
        {
          "duration": 0.375,
          "durationTicks": 96,
          "midi": 53,
          "name": "F3",
          "ticks": 17280,
          "time": 67.5,
          "velocity": 0.3937007874015748
        },
        {
          "duration": 0.375,
          "durationTicks": 96,
          "midi": 84,
          "name": "C6",
          "ticks": 17280,
          "time": 67.5,
          "velocity": 0.3937007874015748
        },
        {
          "duration": 0.375,
          "durationTicks": 96,
          "midi": 77,
          "name": "F5",
          "ticks": 17280,
          "time": 67.5,
          "velocity": 0.3937007874015748
        },
        {
          "duration": 0.375,
          "durationTicks": 96,
          "midi": 48,
          "name": "C3",
          "ticks": 17280,
          "time": 67.5,
          "velocity": 0.3937007874015748
        },
        {
          "duration": 0.375,
          "durationTicks": 96,
          "midi": 81,
          "name": "A5",
          "ticks": 17280,
          "time": 67.5,
          "velocity": 0.3937007874015748
        },
        {
          "duration": 0.375,
          "durationTicks": 96,
          "midi": 58,
          "name": "A#3",
          "ticks": 17376,
          "time": 67.875,
          "velocity": 0.3937007874015748
        },
        {
          "duration": 0.375,
          "durationTicks": 96,
          "midi": 60,
          "name": "C4",
          "ticks": 17472,
          "time": 68.25,
          "velocity": 0.3937007874015748
        },
        {
          "duration": 0.375,
          "durationTicks": 96,
          "midi": 58,
          "name": "A#3",
          "ticks": 17568,
          "time": 68.625,
          "velocity": 0.3937007874015748
        },
        {
          "duration": 0.375,
          "durationTicks": 96,
          "midi": 53,
          "name": "F3",
          "ticks": 17664,
          "time": 69,
          "velocity": 0.3937007874015748
        },
        {
          "duration": 0.375,
          "durationTicks": 96,
          "midi": 58,
          "name": "A#3",
          "ticks": 17760,
          "time": 69.375,
          "velocity": 0.3937007874015748
        },
        {
          "duration": 0.375,
          "durationTicks": 96,
          "midi": 57,
          "name": "A3",
          "ticks": 17856,
          "time": 69.75,
          "velocity": 0.3937007874015748
        },
        {
          "duration": 0.375,
          "durationTicks": 96,
          "midi": 53,
          "name": "F3",
          "ticks": 17856,
          "time": 69.75,
          "velocity": 0.3937007874015748
        },
        {
          "duration": 0.375,
          "durationTicks": 96,
          "midi": 48,
          "name": "C3",
          "ticks": 17856,
          "time": 69.75,
          "velocity": 0.3937007874015748
        },
        {
          "duration": 0.375,
          "durationTicks": 96,
          "midi": 41,
          "name": "F2",
          "ticks": 17856,
          "time": 69.75,
          "velocity": 0.3937007874015748
        },
        {
          "duration": 0.375,
          "durationTicks": 96,
          "midi": 55,
          "name": "G3",
          "ticks": 17952,
          "time": 70.125,
          "velocity": 0.3937007874015748
        },
        {
          "duration": 0.375,
          "durationTicks": 96,
          "midi": 57,
          "name": "A3",
          "ticks": 18048,
          "time": 70.5,
          "velocity": 0.3937007874015748
        },
        {
          "duration": 0.375,
          "durationTicks": 96,
          "midi": 55,
          "name": "G3",
          "ticks": 18144,
          "time": 70.875,
          "velocity": 0.3937007874015748
        },
        {
          "duration": 0.375,
          "durationTicks": 96,
          "midi": 46,
          "name": "A#2",
          "ticks": 18240,
          "time": 71.25,
          "velocity": 0.3937007874015748
        },
        {
          "duration": 0.375,
          "durationTicks": 96,
          "midi": 53,
          "name": "F3",
          "ticks": 18240,
          "time": 71.25,
          "velocity": 0.3937007874015748
        },
        {
          "duration": 0.375,
          "durationTicks": 96,
          "midi": 39,
          "name": "D#2",
          "ticks": 18240,
          "time": 71.25,
          "velocity": 0.3937007874015748
        },
        {
          "duration": 0.375,
          "durationTicks": 96,
          "midi": 55,
          "name": "G3",
          "ticks": 18336,
          "time": 71.625,
          "velocity": 0.3937007874015748
        },
        {
          "duration": 0.375,
          "durationTicks": 96,
          "midi": 44,
          "name": "G#2",
          "ticks": 18432,
          "time": 72,
          "velocity": 0.3937007874015748
        },
        {
          "duration": 0.375,
          "durationTicks": 96,
          "midi": 65,
          "name": "F4",
          "ticks": 18432,
          "time": 72,
          "velocity": 0.3937007874015748
        },
        {
          "duration": 0.375,
          "durationTicks": 96,
          "midi": 37,
          "name": "C#2",
          "ticks": 18432,
          "time": 72,
          "velocity": 0.3937007874015748
        },
        {
          "duration": 0.375,
          "durationTicks": 96,
          "midi": 72,
          "name": "C5",
          "ticks": 18432,
          "time": 72,
          "velocity": 0.3937007874015748
        },
        {
          "duration": 0.375,
          "durationTicks": 96,
          "midi": 29,
          "name": "F1",
          "ticks": 18432,
          "time": 72,
          "velocity": 0.3937007874015748
        },
        {
          "duration": 0.375,
          "durationTicks": 96,
          "midi": 53,
          "name": "F3",
          "ticks": 18528,
          "time": 72.375,
          "velocity": 0.3937007874015748
        },
        {
          "duration": 0.375,
          "durationTicks": 96,
          "midi": 77,
          "name": "F5",
          "ticks": 18624,
          "time": 72.75,
          "velocity": 0.3937007874015748
        },
        {
          "duration": 0.375,
          "durationTicks": 96,
          "midi": 56,
          "name": "G#3",
          "ticks": 18624,
          "time": 72.75,
          "velocity": 0.3937007874015748
        },
        {
          "duration": 0.375,
          "durationTicks": 96,
          "midi": 68,
          "name": "G#4",
          "ticks": 18624,
          "time": 72.75,
          "velocity": 0.3937007874015748
        },
        {
          "duration": 0.375,
          "durationTicks": 96,
          "midi": 51,
          "name": "D#3",
          "ticks": 18720,
          "time": 73.125,
          "velocity": 0.3937007874015748
        },
        {
          "duration": 0.375,
          "durationTicks": 96,
          "midi": 53,
          "name": "F3",
          "ticks": 18816,
          "time": 73.5,
          "velocity": 0.3937007874015748
        },
        {
          "duration": 0.375,
          "durationTicks": 96,
          "midi": 72,
          "name": "C5",
          "ticks": 18816,
          "time": 73.5,
          "velocity": 0.3937007874015748
        },
        {
          "duration": 0.375,
          "durationTicks": 96,
          "midi": 80,
          "name": "G#5",
          "ticks": 18816,
          "time": 73.5,
          "velocity": 0.3937007874015748
        },
        {
          "duration": 0.375,
          "durationTicks": 96,
          "midi": 48,
          "name": "C3",
          "ticks": 18912,
          "time": 73.875,
          "velocity": 0.3937007874015748
        },
        {
          "duration": 0.375,
          "durationTicks": 96,
          "midi": 37,
          "name": "C#2",
          "ticks": 19008,
          "time": 74.25,
          "velocity": 0.3937007874015748
        },
        {
          "duration": 0.375,
          "durationTicks": 96,
          "midi": 44,
          "name": "G#2",
          "ticks": 19008,
          "time": 74.25,
          "velocity": 0.3937007874015748
        },
        {
          "duration": 0.375,
          "durationTicks": 96,
          "midi": 77,
          "name": "F5",
          "ticks": 19008,
          "time": 74.25,
          "velocity": 0.3937007874015748
        },
        {
          "duration": 0.375,
          "durationTicks": 96,
          "midi": 68,
          "name": "G#4",
          "ticks": 19008,
          "time": 74.25,
          "velocity": 0.3937007874015748
        },
        {
          "duration": 0.375,
          "durationTicks": 96,
          "midi": 53,
          "name": "F3",
          "ticks": 19104,
          "time": 74.625,
          "velocity": 0.3937007874015748
        },
        {
          "duration": 0.375,
          "durationTicks": 96,
          "midi": 56,
          "name": "G#3",
          "ticks": 19200,
          "time": 75,
          "velocity": 0.3937007874015748
        },
        {
          "duration": 0.375,
          "durationTicks": 96,
          "midi": 51,
          "name": "D#3",
          "ticks": 19296,
          "time": 75.375,
          "velocity": 0.3937007874015748
        },
        {
          "duration": 0.375,
          "durationTicks": 96,
          "midi": 79,
          "name": "G5",
          "ticks": 19392,
          "time": 75.75,
          "velocity": 0.3937007874015748
        },
        {
          "duration": 0.375,
          "durationTicks": 96,
          "midi": 53,
          "name": "F3",
          "ticks": 19392,
          "time": 75.75,
          "velocity": 0.3937007874015748
        },
        {
          "duration": 0.375,
          "durationTicks": 96,
          "midi": 70,
          "name": "A#4",
          "ticks": 19392,
          "time": 75.75,
          "velocity": 0.3937007874015748
        },
        {
          "duration": 0.375,
          "durationTicks": 96,
          "midi": 80,
          "name": "G#5",
          "ticks": 19488,
          "time": 76.125,
          "velocity": 0.3937007874015748
        },
        {
          "duration": 0.375,
          "durationTicks": 96,
          "midi": 72,
          "name": "C5",
          "ticks": 19488,
          "time": 76.125,
          "velocity": 0.3937007874015748
        },
        {
          "duration": 0.375,
          "durationTicks": 96,
          "midi": 48,
          "name": "C3",
          "ticks": 19488,
          "time": 76.125,
          "velocity": 0.3937007874015748
        },
        {
          "duration": 0.375,
          "durationTicks": 96,
          "midi": 39,
          "name": "D#2",
          "ticks": 19584,
          "time": 76.5,
          "velocity": 0.3937007874015748
        },
        {
          "duration": 0.375,
          "durationTicks": 96,
          "midi": 46,
          "name": "A#2",
          "ticks": 19584,
          "time": 76.5,
          "velocity": 0.3937007874015748
        },
        {
          "duration": 0.375,
          "durationTicks": 96,
          "midi": 75,
          "name": "D#5",
          "ticks": 19584,
          "time": 76.5,
          "velocity": 0.3937007874015748
        },
        {
          "duration": 0.375,
          "durationTicks": 96,
          "midi": 82,
          "name": "A#5",
          "ticks": 19584,
          "time": 76.5,
          "velocity": 0.3937007874015748
        },
        {
          "duration": 0.375,
          "durationTicks": 96,
          "midi": 53,
          "name": "F3",
          "ticks": 19680,
          "time": 76.875,
          "velocity": 0.3937007874015748
        },
        {
          "duration": 0.375,
          "durationTicks": 96,
          "midi": 55,
          "name": "G3",
          "ticks": 19776,
          "time": 77.25,
          "velocity": 0.3937007874015748
        },
        {
          "duration": 0.375,
          "durationTicks": 96,
          "midi": 51,
          "name": "D#3",
          "ticks": 19872,
          "time": 77.625,
          "velocity": 0.3937007874015748
        },
        {
          "duration": 0.375,
          "durationTicks": 96,
          "midi": 53,
          "name": "F3",
          "ticks": 19968,
          "time": 78,
          "velocity": 0.3937007874015748
        },
        {
          "duration": 0.375,
          "durationTicks": 96,
          "midi": 48,
          "name": "C3",
          "ticks": 20064,
          "time": 78.375,
          "velocity": 0.3937007874015748
        },
        {
          "duration": 0.375,
          "durationTicks": 96,
          "midi": 39,
          "name": "D#2",
          "ticks": 20160,
          "time": 78.75,
          "velocity": 0.3937007874015748
        },
        {
          "duration": 0.375,
          "durationTicks": 96,
          "midi": 46,
          "name": "A#2",
          "ticks": 20160,
          "time": 78.75,
          "velocity": 0.3937007874015748
        },
        {
          "duration": 0.375,
          "durationTicks": 96,
          "midi": 53,
          "name": "F3",
          "ticks": 20256,
          "time": 79.125,
          "velocity": 0.3937007874015748
        },
        {
          "duration": 0.375,
          "durationTicks": 96,
          "midi": 55,
          "name": "G3",
          "ticks": 20352,
          "time": 79.5,
          "velocity": 0.3937007874015748
        },
        {
          "duration": 0.375,
          "durationTicks": 96,
          "midi": 72,
          "name": "C5",
          "ticks": 20352,
          "time": 79.5,
          "velocity": 0.3937007874015748
        },
        {
          "duration": 0.375,
          "durationTicks": 96,
          "midi": 79,
          "name": "G5",
          "ticks": 20352,
          "time": 79.5,
          "velocity": 0.3937007874015748
        },
        {
          "duration": 0.375,
          "durationTicks": 96,
          "midi": 75,
          "name": "D#5",
          "ticks": 20448,
          "time": 79.875,
          "velocity": 0.3937007874015748
        },
        {
          "duration": 0.375,
          "durationTicks": 96,
          "midi": 51,
          "name": "D#3",
          "ticks": 20448,
          "time": 79.875,
          "velocity": 0.3937007874015748
        },
        {
          "duration": 0.375,
          "durationTicks": 96,
          "midi": 80,
          "name": "G#5",
          "ticks": 20448,
          "time": 79.875,
          "velocity": 0.3937007874015748
        },
        {
          "duration": 0.375,
          "durationTicks": 96,
          "midi": 77,
          "name": "F5",
          "ticks": 20544,
          "time": 80.25,
          "velocity": 0.3937007874015748
        },
        {
          "duration": 0.375,
          "durationTicks": 96,
          "midi": 82,
          "name": "A#5",
          "ticks": 20544,
          "time": 80.25,
          "velocity": 0.3937007874015748
        },
        {
          "duration": 0.375,
          "durationTicks": 96,
          "midi": 53,
          "name": "F3",
          "ticks": 20544,
          "time": 80.25,
          "velocity": 0.3937007874015748
        },
        {
          "duration": 0.375,
          "durationTicks": 96,
          "midi": 84,
          "name": "C6",
          "ticks": 20640,
          "time": 80.625,
          "velocity": 0.3937007874015748
        },
        {
          "duration": 0.375,
          "durationTicks": 96,
          "midi": 79,
          "name": "G5",
          "ticks": 20640,
          "time": 80.625,
          "velocity": 0.3937007874015748
        },
        {
          "duration": 0.375,
          "durationTicks": 96,
          "midi": 48,
          "name": "C3",
          "ticks": 20640,
          "time": 80.625,
          "velocity": 0.3937007874015748
        },
        {
          "duration": 0.375,
          "durationTicks": 96,
          "midi": 79,
          "name": "G5",
          "ticks": 20736,
          "time": 81,
          "velocity": 0.3937007874015748
        },
        {
          "duration": 0.375,
          "durationTicks": 96,
          "midi": 72,
          "name": "C5",
          "ticks": 20736,
          "time": 81,
          "velocity": 0.3937007874015748
        },
        {
          "duration": 0.375,
          "durationTicks": 96,
          "midi": 48,
          "name": "C3",
          "ticks": 20736,
          "time": 81,
          "velocity": 0.3937007874015748
        },
        {
          "duration": 0.375,
          "durationTicks": 96,
          "midi": 41,
          "name": "F2",
          "ticks": 20736,
          "time": 81,
          "velocity": 0.3937007874015748
        },
        {
          "duration": 0.375,
          "durationTicks": 96,
          "midi": 58,
          "name": "A#3",
          "ticks": 20832,
          "time": 81.375,
          "velocity": 0.3937007874015748
        },
        {
          "duration": 0.375,
          "durationTicks": 96,
          "midi": 60,
          "name": "C4",
          "ticks": 20928,
          "time": 81.75,
          "velocity": 0.3937007874015748
        },
        {
          "duration": 0.375,
          "durationTicks": 96,
          "midi": 55,
          "name": "G3",
          "ticks": 21024,
          "time": 82.125,
          "velocity": 0.3937007874015748
        },
        {
          "duration": 0.375,
          "durationTicks": 96,
          "midi": 51,
          "name": "D#3",
          "ticks": 21120,
          "time": 82.5,
          "velocity": 0.3937007874015748
        },
        {
          "duration": 0.375,
          "durationTicks": 96,
          "midi": 55,
          "name": "G3",
          "ticks": 21216,
          "time": 82.875,
          "velocity": 0.3937007874015748
        },
        {
          "duration": 0.375,
          "durationTicks": 96,
          "midi": 48,
          "name": "C3",
          "ticks": 21312,
          "time": 83.25,
          "velocity": 0.3937007874015748
        },
        {
          "duration": 0.375,
          "durationTicks": 96,
          "midi": 41,
          "name": "F2",
          "ticks": 21312,
          "time": 83.25,
          "velocity": 0.3937007874015748
        },
        {
          "duration": 0.375,
          "durationTicks": 96,
          "midi": 58,
          "name": "A#3",
          "ticks": 21408,
          "time": 83.625,
          "velocity": 0.3937007874015748
        },
        {
          "duration": 0.375,
          "durationTicks": 96,
          "midi": 60,
          "name": "C4",
          "ticks": 21504,
          "time": 84,
          "velocity": 0.3937007874015748
        },
        {
          "duration": 0.375,
          "durationTicks": 96,
          "midi": 55,
          "name": "G3",
          "ticks": 21600,
          "time": 84.375,
          "velocity": 0.3937007874015748
        },
        {
          "duration": 0.375,
          "durationTicks": 96,
          "midi": 51,
          "name": "D#3",
          "ticks": 21696,
          "time": 84.75,
          "velocity": 0.3937007874015748
        },
        {
          "duration": 0.375,
          "durationTicks": 96,
          "midi": 55,
          "name": "G3",
          "ticks": 21792,
          "time": 85.125,
          "velocity": 0.3937007874015748
        },
        {
          "duration": 0.375,
          "durationTicks": 96,
          "midi": 79,
          "name": "G5",
          "ticks": 21888,
          "time": 85.5,
          "velocity": 0.3937007874015748
        },
        {
          "duration": 0.375,
          "durationTicks": 96,
          "midi": 53,
          "name": "F3",
          "ticks": 21888,
          "time": 85.5,
          "velocity": 0.3937007874015748
        },
        {
          "duration": 0.375,
          "durationTicks": 96,
          "midi": 72,
          "name": "C5",
          "ticks": 21888,
          "time": 85.5,
          "velocity": 0.3937007874015748
        },
        {
          "duration": 0.375,
          "durationTicks": 96,
          "midi": 48,
          "name": "C3",
          "ticks": 21888,
          "time": 85.5,
          "velocity": 0.3937007874015748
        },
        {
          "duration": 0.375,
          "durationTicks": 96,
          "midi": 58,
          "name": "A#3",
          "ticks": 21984,
          "time": 85.875,
          "velocity": 0.3937007874015748
        },
        {
          "duration": 0.375,
          "durationTicks": 96,
          "midi": 60,
          "name": "C4",
          "ticks": 22080,
          "time": 86.25,
          "velocity": 0.3937007874015748
        },
        {
          "duration": 0.375,
          "durationTicks": 96,
          "midi": 58,
          "name": "A#3",
          "ticks": 22176,
          "time": 86.625,
          "velocity": 0.3937007874015748
        },
        {
          "duration": 0.375,
          "durationTicks": 96,
          "midi": 77,
          "name": "F5",
          "ticks": 22272,
          "time": 87,
          "velocity": 0.3937007874015748
        },
        {
          "duration": 0.375,
          "durationTicks": 96,
          "midi": 53,
          "name": "F3",
          "ticks": 22272,
          "time": 87,
          "velocity": 0.3937007874015748
        },
        {
          "duration": 0.375,
          "durationTicks": 96,
          "midi": 58,
          "name": "A#3",
          "ticks": 22368,
          "time": 87.375,
          "velocity": 0.3937007874015748
        },
        {
          "duration": 0.375,
          "durationTicks": 96,
          "midi": 53,
          "name": "F3",
          "ticks": 22464,
          "time": 87.75,
          "velocity": 0.3937007874015748
        },
        {
          "duration": 0.375,
          "durationTicks": 96,
          "midi": 48,
          "name": "C3",
          "ticks": 22464,
          "time": 87.75,
          "velocity": 0.3937007874015748
        },
        {
          "duration": 0.375,
          "durationTicks": 96,
          "midi": 41,
          "name": "F2",
          "ticks": 22464,
          "time": 87.75,
          "velocity": 0.3937007874015748
        },
        {
          "duration": 0.375,
          "durationTicks": 96,
          "midi": 72,
          "name": "C5",
          "ticks": 22464,
          "time": 87.75,
          "velocity": 0.3937007874015748
        },
        {
          "duration": 0.375,
          "durationTicks": 96,
          "midi": 69,
          "name": "A4",
          "ticks": 22464,
          "time": 87.75,
          "velocity": 0.3937007874015748
        },
        {
          "duration": 0.375,
          "durationTicks": 96,
          "midi": 55,
          "name": "G3",
          "ticks": 22560,
          "time": 88.125,
          "velocity": 0.3937007874015748
        },
        {
          "duration": 0.375,
          "durationTicks": 96,
          "midi": 57,
          "name": "A3",
          "ticks": 22656,
          "time": 88.5,
          "velocity": 0.3937007874015748
        },
        {
          "duration": 0.375,
          "durationTicks": 96,
          "midi": 55,
          "name": "G3",
          "ticks": 22752,
          "time": 88.875,
          "velocity": 0.3937007874015748
        },
        {
          "duration": 0.375,
          "durationTicks": 96,
          "midi": 67,
          "name": "G4",
          "ticks": 22848,
          "time": 89.25,
          "velocity": 0.3937007874015748
        },
        {
          "duration": 0.375,
          "durationTicks": 96,
          "midi": 53,
          "name": "F3",
          "ticks": 22848,
          "time": 89.25,
          "velocity": 0.3937007874015748
        },
        {
          "duration": 0.375,
          "durationTicks": 96,
          "midi": 46,
          "name": "A#2",
          "ticks": 22848,
          "time": 89.25,
          "velocity": 0.3937007874015748
        },
        {
          "duration": 0.375,
          "durationTicks": 96,
          "midi": 39,
          "name": "D#2",
          "ticks": 22848,
          "time": 89.25,
          "velocity": 0.3937007874015748
        },
        {
          "duration": 0.375,
          "durationTicks": 96,
          "midi": 55,
          "name": "G3",
          "ticks": 22944,
          "time": 89.625,
          "velocity": 0.3937007874015748
        },
        {
          "duration": 0.375,
          "durationTicks": 96,
          "midi": 44,
          "name": "G#2",
          "ticks": 23040,
          "time": 90,
          "velocity": 0.3937007874015748
        },
        {
          "duration": 0.375,
          "durationTicks": 96,
          "midi": 72,
          "name": "C5",
          "ticks": 23040,
          "time": 90,
          "velocity": 0.3937007874015748
        },
        {
          "duration": 0.375,
          "durationTicks": 96,
          "midi": 37,
          "name": "C#2",
          "ticks": 23040,
          "time": 90,
          "velocity": 0.3937007874015748
        },
        {
          "duration": 0.375,
          "durationTicks": 96,
          "midi": 29,
          "name": "F1",
          "ticks": 23040,
          "time": 90,
          "velocity": 0.3937007874015748
        },
        {
          "duration": 0.375,
          "durationTicks": 96,
          "midi": 65,
          "name": "F4",
          "ticks": 23040,
          "time": 90,
          "velocity": 0.3937007874015748
        },
        {
          "duration": 0.375,
          "durationTicks": 96,
          "midi": 53,
          "name": "F3",
          "ticks": 23136,
          "time": 90.375,
          "velocity": 0.3937007874015748
        },
        {
          "duration": 0.375,
          "durationTicks": 96,
          "midi": 56,
          "name": "G#3",
          "ticks": 23232,
          "time": 90.75,
          "velocity": 0.3937007874015748
        },
        {
          "duration": 0.375,
          "durationTicks": 96,
          "midi": 77,
          "name": "F5",
          "ticks": 23232,
          "time": 90.75,
          "velocity": 0.3937007874015748
        },
        {
          "duration": 0.375,
          "durationTicks": 96,
          "midi": 68,
          "name": "G#4",
          "ticks": 23232,
          "time": 90.75,
          "velocity": 0.3937007874015748
        },
        {
          "duration": 0.375,
          "durationTicks": 96,
          "midi": 51,
          "name": "D#3",
          "ticks": 23328,
          "time": 91.125,
          "velocity": 0.3937007874015748
        },
        {
          "duration": 0.375,
          "durationTicks": 96,
          "midi": 80,
          "name": "G#5",
          "ticks": 23424,
          "time": 91.5,
          "velocity": 0.3937007874015748
        },
        {
          "duration": 0.375,
          "durationTicks": 96,
          "midi": 72,
          "name": "C5",
          "ticks": 23424,
          "time": 91.5,
          "velocity": 0.3937007874015748
        },
        {
          "duration": 0.375,
          "durationTicks": 96,
          "midi": 53,
          "name": "F3",
          "ticks": 23424,
          "time": 91.5,
          "velocity": 0.3937007874015748
        },
        {
          "duration": 0.375,
          "durationTicks": 96,
          "midi": 48,
          "name": "C3",
          "ticks": 23520,
          "time": 91.875,
          "velocity": 0.3937007874015748
        },
        {
          "duration": 0.375,
          "durationTicks": 96,
          "midi": 37,
          "name": "C#2",
          "ticks": 23616,
          "time": 92.25,
          "velocity": 0.3937007874015748
        },
        {
          "duration": 0.375,
          "durationTicks": 96,
          "midi": 44,
          "name": "G#2",
          "ticks": 23616,
          "time": 92.25,
          "velocity": 0.3937007874015748
        },
        {
          "duration": 0.375,
          "durationTicks": 96,
          "midi": 77,
          "name": "F5",
          "ticks": 23616,
          "time": 92.25,
          "velocity": 0.3937007874015748
        },
        {
          "duration": 0.375,
          "durationTicks": 96,
          "midi": 68,
          "name": "G#4",
          "ticks": 23616,
          "time": 92.25,
          "velocity": 0.3937007874015748
        },
        {
          "duration": 0.375,
          "durationTicks": 96,
          "midi": 53,
          "name": "F3",
          "ticks": 23712,
          "time": 92.625,
          "velocity": 0.3937007874015748
        },
        {
          "duration": 0.375,
          "durationTicks": 96,
          "midi": 56,
          "name": "G#3",
          "ticks": 23808,
          "time": 93,
          "velocity": 0.3937007874015748
        },
        {
          "duration": 0.375,
          "durationTicks": 96,
          "midi": 51,
          "name": "D#3",
          "ticks": 23904,
          "time": 93.375,
          "velocity": 0.3937007874015748
        },
        {
          "duration": 0.375,
          "durationTicks": 96,
          "midi": 70,
          "name": "A#4",
          "ticks": 24000,
          "time": 93.75,
          "velocity": 0.3937007874015748
        },
        {
          "duration": 0.375,
          "durationTicks": 96,
          "midi": 79,
          "name": "G5",
          "ticks": 24000,
          "time": 93.75,
          "velocity": 0.3937007874015748
        },
        {
          "duration": 0.375,
          "durationTicks": 96,
          "midi": 53,
          "name": "F3",
          "ticks": 24000,
          "time": 93.75,
          "velocity": 0.3937007874015748
        },
        {
          "duration": 0.375,
          "durationTicks": 96,
          "midi": 80,
          "name": "G#5",
          "ticks": 24096,
          "time": 94.125,
          "velocity": 0.3937007874015748
        },
        {
          "duration": 0.375,
          "durationTicks": 96,
          "midi": 48,
          "name": "C3",
          "ticks": 24096,
          "time": 94.125,
          "velocity": 0.3937007874015748
        },
        {
          "duration": 0.375,
          "durationTicks": 96,
          "midi": 72,
          "name": "C5",
          "ticks": 24096,
          "time": 94.125,
          "velocity": 0.3937007874015748
        },
        {
          "duration": 0.375,
          "durationTicks": 96,
          "midi": 82,
          "name": "A#5",
          "ticks": 24192,
          "time": 94.5,
          "velocity": 0.3937007874015748
        },
        {
          "duration": 0.375,
          "durationTicks": 96,
          "midi": 39,
          "name": "D#2",
          "ticks": 24192,
          "time": 94.5,
          "velocity": 0.3937007874015748
        },
        {
          "duration": 0.375,
          "durationTicks": 96,
          "midi": 46,
          "name": "A#2",
          "ticks": 24192,
          "time": 94.5,
          "velocity": 0.3937007874015748
        },
        {
          "duration": 0.375,
          "durationTicks": 96,
          "midi": 75,
          "name": "D#5",
          "ticks": 24192,
          "time": 94.5,
          "velocity": 0.3937007874015748
        },
        {
          "duration": 0.375,
          "durationTicks": 96,
          "midi": 53,
          "name": "F3",
          "ticks": 24288,
          "time": 94.875,
          "velocity": 0.3937007874015748
        },
        {
          "duration": 0.375,
          "durationTicks": 96,
          "midi": 55,
          "name": "G3",
          "ticks": 24384,
          "time": 95.25,
          "velocity": 0.3937007874015748
        },
        {
          "duration": 0.375,
          "durationTicks": 96,
          "midi": 51,
          "name": "D#3",
          "ticks": 24480,
          "time": 95.625,
          "velocity": 0.3937007874015748
        },
        {
          "duration": 0.375,
          "durationTicks": 96,
          "midi": 53,
          "name": "F3",
          "ticks": 24576,
          "time": 96,
          "velocity": 0.3937007874015748
        },
        {
          "duration": 0.375,
          "durationTicks": 96,
          "midi": 48,
          "name": "C3",
          "ticks": 24672,
          "time": 96.375,
          "velocity": 0.3937007874015748
        },
        {
          "duration": 0.375,
          "durationTicks": 96,
          "midi": 39,
          "name": "D#2",
          "ticks": 24768,
          "time": 96.75,
          "velocity": 0.3937007874015748
        },
        {
          "duration": 0.375,
          "durationTicks": 96,
          "midi": 46,
          "name": "A#2",
          "ticks": 24768,
          "time": 96.75,
          "velocity": 0.3937007874015748
        },
        {
          "duration": 0.375,
          "durationTicks": 96,
          "midi": 53,
          "name": "F3",
          "ticks": 24864,
          "time": 97.125,
          "velocity": 0.3937007874015748
        },
        {
          "duration": 0.375,
          "durationTicks": 96,
          "midi": 72,
          "name": "C5",
          "ticks": 24960,
          "time": 97.5,
          "velocity": 0.3937007874015748
        },
        {
          "duration": 0.375,
          "durationTicks": 96,
          "midi": 79,
          "name": "G5",
          "ticks": 24960,
          "time": 97.5,
          "velocity": 0.3937007874015748
        },
        {
          "duration": 0.375,
          "durationTicks": 96,
          "midi": 55,
          "name": "G3",
          "ticks": 24960,
          "time": 97.5,
          "velocity": 0.3937007874015748
        },
        {
          "duration": 0.375,
          "durationTicks": 96,
          "midi": 75,
          "name": "D#5",
          "ticks": 25056,
          "time": 97.875,
          "velocity": 0.3937007874015748
        },
        {
          "duration": 0.375,
          "durationTicks": 96,
          "midi": 80,
          "name": "G#5",
          "ticks": 25056,
          "time": 97.875,
          "velocity": 0.3937007874015748
        },
        {
          "duration": 0.375,
          "durationTicks": 96,
          "midi": 51,
          "name": "D#3",
          "ticks": 25056,
          "time": 97.875,
          "velocity": 0.3937007874015748
        },
        {
          "duration": 0.375,
          "durationTicks": 96,
          "midi": 77,
          "name": "F5",
          "ticks": 25152,
          "time": 98.25,
          "velocity": 0.3937007874015748
        },
        {
          "duration": 0.375,
          "durationTicks": 96,
          "midi": 82,
          "name": "A#5",
          "ticks": 25152,
          "time": 98.25,
          "velocity": 0.3937007874015748
        },
        {
          "duration": 0.375,
          "durationTicks": 96,
          "midi": 53,
          "name": "F3",
          "ticks": 25152,
          "time": 98.25,
          "velocity": 0.3937007874015748
        },
        {
          "duration": 0.375,
          "durationTicks": 96,
          "midi": 48,
          "name": "C3",
          "ticks": 25248,
          "time": 98.625,
          "velocity": 0.3937007874015748
        },
        {
          "duration": 0.375,
          "durationTicks": 96,
          "midi": 84,
          "name": "C6",
          "ticks": 25248,
          "time": 98.625,
          "velocity": 0.3937007874015748
        },
        {
          "duration": 0.375,
          "durationTicks": 96,
          "midi": 79,
          "name": "G5",
          "ticks": 25248,
          "time": 98.625,
          "velocity": 0.3937007874015748
        },
        {
          "duration": 0.375,
          "durationTicks": 96,
          "midi": 48,
          "name": "C3",
          "ticks": 25344,
          "time": 99,
          "velocity": 0.3937007874015748
        },
        {
          "duration": 0.375,
          "durationTicks": 96,
          "midi": 41,
          "name": "F2",
          "ticks": 25344,
          "time": 99,
          "velocity": 0.3937007874015748
        },
        {
          "duration": 0.375,
          "durationTicks": 96,
          "midi": 82,
          "name": "A#5",
          "ticks": 25344,
          "time": 99,
          "velocity": 0.3937007874015748
        },
        {
          "duration": 0.375,
          "durationTicks": 96,
          "midi": 87,
          "name": "D#6",
          "ticks": 25344,
          "time": 99,
          "velocity": 0.3937007874015748
        },
        {
          "duration": 0.375,
          "durationTicks": 96,
          "midi": 79,
          "name": "G5",
          "ticks": 25344,
          "time": 99,
          "velocity": 0.3937007874015748
        },
        {
          "duration": 0.375,
          "durationTicks": 96,
          "midi": 58,
          "name": "A#3",
          "ticks": 25440,
          "time": 99.375,
          "velocity": 0.3937007874015748
        },
        {
          "duration": 0.375,
          "durationTicks": 96,
          "midi": 60,
          "name": "C4",
          "ticks": 25536,
          "time": 99.75,
          "velocity": 0.3937007874015748
        },
        {
          "duration": 0.375,
          "durationTicks": 96,
          "midi": 55,
          "name": "G3",
          "ticks": 25632,
          "time": 100.125,
          "velocity": 0.3937007874015748
        },
        {
          "duration": 0.375,
          "durationTicks": 96,
          "midi": 51,
          "name": "D#3",
          "ticks": 25728,
          "time": 100.5,
          "velocity": 0.3937007874015748
        },
        {
          "duration": 0.375,
          "durationTicks": 96,
          "midi": 55,
          "name": "G3",
          "ticks": 25824,
          "time": 100.875,
          "velocity": 0.3937007874015748
        },
        {
          "duration": 0.375,
          "durationTicks": 96,
          "midi": 41,
          "name": "F2",
          "ticks": 25920,
          "time": 101.25,
          "velocity": 0.3937007874015748
        },
        {
          "duration": 0.375,
          "durationTicks": 96,
          "midi": 48,
          "name": "C3",
          "ticks": 25920,
          "time": 101.25,
          "velocity": 0.3937007874015748
        },
        {
          "duration": 0.375,
          "durationTicks": 96,
          "midi": 58,
          "name": "A#3",
          "ticks": 26016,
          "time": 101.625,
          "velocity": 0.3937007874015748
        },
        {
          "duration": 0.375,
          "durationTicks": 96,
          "midi": 60,
          "name": "C4",
          "ticks": 26112,
          "time": 102,
          "velocity": 0.3937007874015748
        },
        {
          "duration": 0.375,
          "durationTicks": 96,
          "midi": 55,
          "name": "G3",
          "ticks": 26208,
          "time": 102.375,
          "velocity": 0.3937007874015748
        },
        {
          "duration": 0.375,
          "durationTicks": 96,
          "midi": 79,
          "name": "G5",
          "ticks": 26304,
          "time": 102.75,
          "velocity": 0.3937007874015748
        },
        {
          "duration": 0.375,
          "durationTicks": 96,
          "midi": 87,
          "name": "D#6",
          "ticks": 26304,
          "time": 102.75,
          "velocity": 0.3937007874015748
        },
        {
          "duration": 0.375,
          "durationTicks": 96,
          "midi": 82,
          "name": "A#5",
          "ticks": 26304,
          "time": 102.75,
          "velocity": 0.3937007874015748
        },
        {
          "duration": 0.375,
          "durationTicks": 96,
          "midi": 51,
          "name": "D#3",
          "ticks": 26304,
          "time": 102.75,
          "velocity": 0.3937007874015748
        },
        {
          "duration": 0.375,
          "durationTicks": 96,
          "midi": 55,
          "name": "G3",
          "ticks": 26400,
          "time": 103.125,
          "velocity": 0.3937007874015748
        },
        {
          "duration": 0.375,
          "durationTicks": 96,
          "midi": 77,
          "name": "F5",
          "ticks": 26496,
          "time": 103.5,
          "velocity": 0.3937007874015748
        },
        {
          "duration": 0.375,
          "durationTicks": 96,
          "midi": 84,
          "name": "C6",
          "ticks": 26496,
          "time": 103.5,
          "velocity": 0.3937007874015748
        },
        {
          "duration": 0.375,
          "durationTicks": 96,
          "midi": 48,
          "name": "C3",
          "ticks": 26496,
          "time": 103.5,
          "velocity": 0.3937007874015748
        },
        {
          "duration": 0.375,
          "durationTicks": 96,
          "midi": 53,
          "name": "F3",
          "ticks": 26496,
          "time": 103.5,
          "velocity": 0.3937007874015748
        },
        {
          "duration": 0.375,
          "durationTicks": 96,
          "midi": 81,
          "name": "A5",
          "ticks": 26496,
          "time": 103.5,
          "velocity": 0.3937007874015748
        },
        {
          "duration": 0.375,
          "durationTicks": 96,
          "midi": 58,
          "name": "A#3",
          "ticks": 26592,
          "time": 103.875,
          "velocity": 0.3937007874015748
        },
        {
          "duration": 0.375,
          "durationTicks": 96,
          "midi": 60,
          "name": "C4",
          "ticks": 26688,
          "time": 104.25,
          "velocity": 0.3937007874015748
        },
        {
          "duration": 0.375,
          "durationTicks": 96,
          "midi": 58,
          "name": "A#3",
          "ticks": 26784,
          "time": 104.625,
          "velocity": 0.3937007874015748
        },
        {
          "duration": 0.375,
          "durationTicks": 96,
          "midi": 53,
          "name": "F3",
          "ticks": 26880,
          "time": 105,
          "velocity": 0.3937007874015748
        },
        {
          "duration": 0.375,
          "durationTicks": 96,
          "midi": 58,
          "name": "A#3",
          "ticks": 26976,
          "time": 105.375,
          "velocity": 0.3937007874015748
        },
        {
          "duration": 0.375,
          "durationTicks": 96,
          "midi": 53,
          "name": "F3",
          "ticks": 27072,
          "time": 105.75,
          "velocity": 0.3937007874015748
        },
        {
          "duration": 0.375,
          "durationTicks": 96,
          "midi": 41,
          "name": "F2",
          "ticks": 27072,
          "time": 105.75,
          "velocity": 0.3937007874015748
        },
        {
          "duration": 0.375,
          "durationTicks": 96,
          "midi": 57,
          "name": "A3",
          "ticks": 27072,
          "time": 105.75,
          "velocity": 0.3937007874015748
        },
        {
          "duration": 0.375,
          "durationTicks": 96,
          "midi": 48,
          "name": "C3",
          "ticks": 27072,
          "time": 105.75,
          "velocity": 0.3937007874015748
        },
        {
          "duration": 0.375,
          "durationTicks": 96,
          "midi": 55,
          "name": "G3",
          "ticks": 27168,
          "time": 106.125,
          "velocity": 0.3937007874015748
        },
        {
          "duration": 0.375,
          "durationTicks": 96,
          "midi": 57,
          "name": "A3",
          "ticks": 27264,
          "time": 106.5,
          "velocity": 0.3937007874015748
        },
        {
          "duration": 0.375,
          "durationTicks": 96,
          "midi": 55,
          "name": "G3",
          "ticks": 27360,
          "time": 106.875,
          "velocity": 0.3937007874015748
        },
        {
          "duration": 0.375,
          "durationTicks": 96,
          "midi": 46,
          "name": "A#2",
          "ticks": 27456,
          "time": 107.25,
          "velocity": 0.3937007874015748
        },
        {
          "duration": 0.375,
          "durationTicks": 96,
          "midi": 39,
          "name": "D#2",
          "ticks": 27456,
          "time": 107.25,
          "velocity": 0.3937007874015748
        },
        {
          "duration": 0.375,
          "durationTicks": 96,
          "midi": 53,
          "name": "F3",
          "ticks": 27456,
          "time": 107.25,
          "velocity": 0.3937007874015748
        },
        {
          "duration": 0.375,
          "durationTicks": 96,
          "midi": 55,
          "name": "G3",
          "ticks": 27552,
          "time": 107.625,
          "velocity": 0.3937007874015748
        }
      ],
      "endOfTrackTicks": 27648
    }
  ]
}
